<svg xmlns="http://www.w3.org/2000/svg" xml:space="preserve" viewBox="0 0 512 512"><circle cx="256" cy="256" r="256" style="fill:#0071c5"/><path d="M373.4 90c-2.5-1.5-5.6-2.2-9.3-2.2-2.9 0-5.6.7-8.1 2s-4.9 3.3-7.1 6c-1.5-2.7-3.4-4.6-5.8-6s-5.1-2-8.3-2c-6 0-11.2 2.6-15.5 7.9v-6.8h-12.1v20.5c-15-5.2-33.5-7.8-55.6-7.8-27 0-48.7 5.5-65.1 16.4Q155 139.3 155 172.9c0 13.6 3.6 25.6 10.9 36.1 5.3 7.7 13.9 14.6 25.5 20.8-15.2 6-26.4 14.4-33.7 25.2-7.3 10.9-10.9 24.2-10.9 39.8 0 16 3.9 30.6 11.7 43.6s19.1 22.8 34.1 29.5c14.9 6.7 36.6 10 64.9 10q22.65 0 42.6-4.5c13.3-3 24.4-7.6 33.4-13.9 8.9-6.3 16.5-15.3 22.6-26.9s9.2-24.1 9.2-37.5c0-13.9-3.6-26.5-10.7-37.9s-17.9-20.6-32.4-27.5c10.9-7.3 19-14.8 24.1-22.6 6.8-10.4 10.2-21.7 10.2-33.7 0-12.9-3.4-24.5-10.1-34.7h4.1v-23.9c0-4.7.4-8.1 1.1-10.3s1.9-3.8 3.5-4.9 3.4-1.7 5.2-1.7c2.5 0 4.4.9 5.6 2.8.9 1.4 1.4 4.6 1.4 9.6v28.5h13.2V107c0-4.8-.5-8.2-1.4-10.3-1.3-3-3.1-5.2-5.7-6.7m-140.1 65.2c5.7-5.6 13-8.5 22-8.5q13.35 0 21.9 8.7c5.7 5.8 8.6 13.3 8.6 22.5 0 8.9-2.7 16.1-8.2 21.7q-8.25 8.4-21 8.4c-9.6 0-17.3-2.8-23.1-8.5s-8.7-13.1-8.7-22.3c0-9 2.9-16.3 8.5-22m46.8 165.7c-7.1 7.6-15 11.4-23.9 11.4-9.2 0-17.4-3.7-24.6-11.2s-10.8-17.1-10.8-28.9c0-12.4 3.4-22.2 10.3-29.5s14.9-10.9 24.2-10.9c9.4 0 17.6 3.8 24.7 11.3s10.7 17.2 10.7 29c-.1 11.6-3.6 21.2-10.6 28.8M330.8 122c-3.1-2.5-6.7-4.7-10.4-6.7v-.8c0-4.8.3-8.2 1.1-10.3.7-2.1 1.9-3.6 3.5-4.7s3.5-1.6 5.5-1.6c1.7 0 3 .3 4 1s1.7 1.7 2.2 3.1.7 4.5.7 9.4v16.4c-2.1-2-4.2-4-6.6-5.8m104.9-27.7q-6-6.6-15-6.6-8.4 0-14.4 6.9V69.9H393v68.7h12.2v-7.3q3 4.2 7.2 6.3t8.4 2.1q8.7 0 14.7-6.9c4-4.6 6.1-11.1 6.1-19.6 0-8.2-2-14.5-5.9-18.9m-10.6 31.4c-2.1 2.5-4.5 3.7-7.4 3.7-3.8 0-6.8-1.8-9.1-5.3q-2.4-3.75-2.4-11.4c0-5 1-8.7 3.1-11.2s4.7-3.7 7.9-3.7 5.9 1.3 7.9 3.8 3.1 6.6 3.1 12.3c-.1 5.4-1.1 9.3-3.1 11.8" style="fill:#fff"/></svg>