<svg xmlns="http://www.w3.org/2000/svg" xml:space="preserve" viewBox="0 0 512 512"><path d="M336.4 239c-4.3 1.4-14.9 2.2-32 2.2H278v-44.8h27.8c14.4 0 23.1.2 26 .6 5.8 1 10.3 3.3 13.4 6.9 3.2 3.7 4.8 8.4 4.8 14.4q0 7.95-3.6 13.2c-2.5 3.6-5.8 6.1-10 7.5M512 96v320c0 53-43 96-96 96H96c-53 0-96-43-96-96V96C0 43 43 0 96 0h320c53 0 96 43 96 96M228.8 254.9c0-31.7-5.7-54.5-17.2-68.3s-26.2-20.8-44.1-20.8c-16.5 0-30 5.5-40.6 16.4-10.6 11-16 25.4-16 43.3 0 17.2 5 31.1 15.1 41.8s22 16.1 35.9 16.1c12.8 0 23.4-4.9 31.9-14.8-1.4 20.2-4.5 33.5-9.4 40-4.9 6.4-10.8 9.6-17.8 9.6-5.5 0-10-1.6-13.4-4.8s-5.5-8.1-6.3-14.8l-32.7 3.6c2.4 14.6 7.9 25.6 16.4 32.9s19.7 11 33.5 11c19.2 0 34.7-7.1 46.7-21.4 12.1-14.2 18-37.5 18-69.8M401 343l-21.5-34.4c-8.5-13.7-15.3-23.3-20.3-28.6-5-5.4-11.4-10.3-19.1-14.8 15.5-2.2 27.1-7.7 34.9-16.3s11.7-19.6 11.7-32.8c0-10.4-2.6-19.7-7.7-27.8s-12-13.7-20.5-16.9-22.3-4.8-41.1-4.8h-75V343H278v-73.7h7.2c8.2 0 14.2.7 17.9 2 3.8 1.3 7.3 3.8 10.7 7.3 3.4 3.6 9.6 12.2 18.8 25.9l25.8 38.4H401zM166 193.9c-6.3 0-11.5 2.5-15.6 7.4s-6.2 13-6.2 24.3c0 11.4 2.2 19.8 6.7 25.1s10.1 8 16.9 8c6.5 0 12-2.6 16.4-7.7 4.5-5.1 6.7-12.7 6.7-22.6 0-10.9-2.5-19.4-7.5-25.4-5-6.1-10.8-9.1-17.4-9.1" style="fill:#fff"/></svg>