<svg xmlns="http://www.w3.org/2000/svg" xml:space="preserve" viewBox="0 0 512 512"><linearGradient id="9router_svg__a" x1="0" x2="512" y1="514" y2="2" gradientTransform="matrix(1 0 0 -1 0 514)" gradientUnits="userSpaceOnUse"><stop offset="0" style="stop-color:#f97815"/><stop offset="1" style="stop-color:#c2590a"/></linearGradient><path d="M96 0h320c53 0 96 43 96 96v320c0 53-43 96-96 96H96c-53 0-96-43-96-96V96C0 43 43 0 96 0" style="fill:url(#9router_svg__a)"/><path d="M211.6 186.6c-11.5-13.8-26.2-20.8-44.1-20.8-16.5 0-30 5.5-40.6 16.4-10.6 11-16 25.4-16 43.3 0 17.2 5 31.1 15.1 41.8s22 16.1 35.9 16.1c12.8 0 23.4-4.9 31.9-14.8-1.4 20.2-4.5 33.5-9.4 40-4.9 6.4-10.8 9.6-17.8 9.6-5.5 0-10-1.6-13.4-4.8s-5.5-8.1-6.3-14.8l-32.7 3.6c2.4 14.6 7.9 25.6 16.4 32.9s19.7 11 33.5 11c19.2 0 34.7-7.1 46.7-21.4s17.9-37.6 17.9-69.8c.1-31.7-5.6-54.5-17.1-68.3m-27.4 64.3c-4.5 5.1-9.9 7.7-16.4 7.7-6.7 0-12.4-2.7-16.9-8s-6.7-13.7-6.7-25.1c0-11.2 2.1-19.3 6.2-24.3 4.1-4.9 9.3-7.4 15.6-7.4q9.9 0 17.4 9c5 6 7.5 14.5 7.5 25.4 0 10.1-2.2 17.6-6.7 22.7m195.3 57.7c-8.5-13.7-15.3-23.3-20.3-28.6-5-5.4-11.4-10.3-19.1-14.8 15.5-2.2 27.1-7.7 34.9-16.3s11.7-19.6 11.7-32.8c0-10.4-2.6-19.7-7.7-27.8s-12-13.7-20.5-16.9-22.3-4.8-41.1-4.8h-75V343H278v-73.7h7.2c8.2 0 14.2.7 17.9 2 3.8 1.3 7.3 3.8 10.7 7.3 3.4 3.6 9.6 12.2 18.8 25.9l25.8 38.4H401zm-75.2-67.4H278v-44.8h27.8c14.4 0 23.1.2 26 .6 5.8 1 10.3 3.3 13.4 6.9 3.2 3.7 4.8 8.4 4.8 14.4q0 7.95-3.6 13.2c-2.4 3.5-5.7 6-10 7.5s-15 2.2-32.1 2.2" style="fill:#fff"/></svg>