<?xml version="1.0" encoding="utf-8"?>
<!-- Generator: Adobe Illustrator 28.2.0, SVG Export Plug-In . SVG Version: 6.00 Build 0)  -->
<svg version="1.1" id="Layer_1" xmlns="http://www.w3.org/2000/svg" xmlns:xlink="http://www.w3.org/1999/xlink" x="0px" y="0px"
	 viewBox="0 0 512 512" style="enable-background:new 0 0 512 512;" xml:space="preserve">
<style type="text/css">
	.st0{fill:#805AD5;}
	.st1{fill:#FFFFFF;}
</style>
<path class="st0" d="M378.5,512h-245C59.8,512,0,452.2,0,378.5v-245C0,59.8,59.8,0,133.5,0h245C452.2,0,512,59.8,512,133.5v245
	C512,452.2,452.2,512,378.5,512z"/>
<path class="st1" d="M407.7,384.1l-33.2-68.2l26.9-10.4c1.7-0.6,2.6-2.6,1.9-4.3l-7.8-20.2c-0.6-1.7-2.6-2.6-4.3-1.9L362,290.3
	L268.8,99.2c-0.6-1.2-1.7-1.9-3-1.9h-6.3c-1.3,0-2.4,0.7-3,1.9l-95,201.6l-55.2,20.3c-1.8,0.6-2.6,2.6-2,4.3l7.4,20.3
	c0.6,1.8,2.6,2.6,4.3,2l28.4-10.4l-32.2,68.3c-0.3,0.8-0.4,1.7,0,2.5l1.6,4.3v0.1c0.6,1.7,2.6,2.6,4.3,1.9l229.8-88.3l34.3,70.4
	c0.8,1.7,2.8,2.4,4.5,1.6l19.5-9.5C407.8,387.8,408.5,385.8,407.7,384.1z M263,151.8l46.1,94.9L199.4,287L263,151.8z M161.5,367.4
	l20.7-44l139.4-51.1l13.7,28.3L161.5,367.4z"/>
</svg>
