<svg xmlns="http://www.w3.org/2000/svg" xml:space="preserve" viewBox="0 0 512 512"><linearGradient id="adguard-home-central-manager-light_svg__a" x1="18.591" x2="534.669" y1="-27.805" y2="488.273" gradientUnits="userSpaceOnUse"><stop offset="0" style="stop-color:#fff;stop-opacity:.6"/><stop offset="1" style="stop-color:#fff"/></linearGradient><path d="M256 5.4 55.6 80.5v175.4C55.6 406.2 256 506.4 256 506.4s200.4-100.2 200.4-250.5V80.5zM352.4 222 252.2 322.2c-5.6 5.6-13.3 8.8-21.3 8.8s-15.6-3.2-21.3-8.8l-50.1-50.1c-11.7-11.7-11.7-30.8 0-42.5s30.8-11.7 42.5 0l28.8 28.8 79-79c11.7-11.7 30.8-11.7 42.5 0 11.9 11.8 11.9 30.9.1 42.6" style="fill:url(#adguard-home-central-manager-light_svg__a)"/><path d="m256 512-2.2-1.1c-.5-.3-51.3-25.8-101.3-69.6-29.5-25.8-53-52.8-69.9-80.2-21.3-34.6-32.1-70-32.1-105.2V77L256 0l205.4 77v178.8c0 35.2-10.8 70.6-32.1 105.2-16.9 27.4-40.4 54.4-69.9 80.2-50 43.8-100.8 69.4-101.3 69.6zM60.6 84v171.9c0 75.7 53.5 138.4 98.3 177.7 43.1 37.8 86.8 61.8 97.1 67.2 10.2-5.4 53.9-29.4 97.1-67.2 44.9-39.3 98.3-102 98.3-177.7V84L256 10.7z" style="opacity:.2;fill:#fff"/></svg>