<svg xmlns="http://www.w3.org/2000/svg" xml:space="preserve" viewBox="0 0 512 512"><path d="M508.8 58.4C430.4 18.4 335.2 0 256 0S81.6 18.4 3.2 58.4c0 88-1.6 304.8 252.8 453.6C510.4 363.2 508.8 146.4 508.8 58.4M185.5 373.9l11.7-24.3c-50.6-21.8-89.9-72.1-92.9-131.4-1.2-54.8 29.1-106.7 75.5-136l4.1 7c10.3 17.5 3.6 39.3-10.9 53.5-20.3 20-34.3 46.9-35.3 75.5-2.8 44.4 26.5 90.4 68.3 112.9l13.8-28.7c5.6 18.4 17.2 36.5 36.2 50.7-19 12.5-43.6 19.8-70.5 20.8m146.7-19.7-4.1-7c-10.3-17.5-3.6-39.3 10.9-53.5 20.3-20 34.3-46.9 35.3-75.5 2.8-44.4-26.5-90.4-68.3-112.9L292.2 134c-5.6-18.4-17.2-36.5-36.2-50.7 19-12.5 43.6-19.8 70.5-20.8l-11.7 24.3c50.6 21.8 89.9 72.1 92.9 131.4 1.2 54.7-29.1 106.6-75.5 136"/></svg>