<svg xmlns="http://www.w3.org/2000/svg" xml:space="preserve" viewBox="0 0 512 512"><path d="M90.7 6.4h330.7C471.5 6.4 512 46.9 512 97v318c0 50.1-40.5 90.7-90.7 90.7H90.7C40.5 505.6 0 465.1 0 415V97C0 46.9 40.5 6.4 90.7 6.4" style="fill:#001e36"/><path d="M268.8 359.2H133.6c-2.4 0-3.4-1.2-3.4-3.8v-218c-.2-1.4.8-2.8 2.4-3h42.5c1-.2 2.4.6 2.4 1.8v179.7h98.6c2.2 0 2.8 1 2.4 3l-6.2 37.1c0 1-.6 2-1.2 2.6-.7.4-1.5.6-2.3.6m34.1-170.7h37.3c2.2 0 3.8 1.4 4.4 3.4.8 1.4 1.4 3.2 1.8 5 .4 2.2.8 4.4 1 6.6.2 2.4.4 5 .4 7.6 6.4-7.4 14.2-13.6 22.8-18.4 9.8-5.4 20.8-8 31.8-7.6 1.4-.2 2.8.8 3 2.4V230c0 1.8-1 2.4-3.4 2.4-13.8-.8-27.8 1.8-40.3 7.2-4.2 2-8.4 4.4-11.6 8v108.8c0 2.2-.8 3-2.8 3h-41.5c-1.8.2-3.2-.8-3.4-2.6v-119c0-5.2 0-10.4-.2-16s-.2-11.2-.4-16.6c-.2-4.8-.6-9.4-1.2-14.2-.2-1 .4-2.2 1.4-2.4.3-.3.5-.3.9-.1" style="fill:#31a8ff"/></svg>