<svg xmlns="http://www.w3.org/2000/svg" xml:space="preserve" viewBox="0 0 512 512"><path d="M229.8 246.4c1.9 5.5 3.6 10.9 4.9 15.4h-54.2c3.2-9 6.4-19 9.4-29.9 3.4-10.7 6.6-21.3 9.8-31.6 3-9.2 5.3-18.3 7.3-27.5h.4c1.5 5.1 3 10.7 4.7 16.6 1.7 6.2 3.6 12.4 5.8 19 2.1 6.6 4.1 13 6.2 19.6 1.8 6.5 3.7 12.6 5.7 18.4M512 97.1V415c0 50.1-40.5 90.7-90.7 90.7H90.7C40.5 505.6 0 465.1 0 414.9V97.1C0 46.9 40.5 6.4 90.7 6.4h330.7c50.1 0 90.6 40.5 90.6 90.7M315.1 354.8 237.2 135c-.2-1.1-1.1-1.7-2.8-1.7h-55.3c-1.1.2-1.9 1.3-1.7 2.3 0 4.7-.4 9.4-1.3 13.9-.9 2.6-1.5 4.9-2.1 7l-68.7 197.8c-.6 2.6 0 3.8 2.3 3.8h40.1c1.9.2 3.6-1.1 4.1-3L168 305h79.4l17.5 50.8c.4 1.5 1.9 2.6 3.4 2.3H313c2.1.1 2.7-1 2.1-3.3m71.5-163.2c0-1.9-.9-3-2.8-3h-42.2c-1.9 0-2.8.9-2.8 3v164.3c0 2.1 1.1 3.4 3.2 3.4h41.8c1.9 0 2.8-1.1 2.8-3.4zm2.9-48c.2-7-2.3-13.9-7-19-4.7-4.9-11.1-7.5-19.4-7.5-7 0-13.9 2.6-19 7.5s-7.9 11.7-7.7 19c-.2 7.3 2.3 14.3 7.3 19.6 5.1 4.9 11.9 7.7 19 7.5 7.3.4 14.5-2.3 19.4-7.5 5.1-5.3 7.7-12.4 7.4-19.6"/></svg>