<svg xmlns="http://www.w3.org/2000/svg" xml:space="preserve" viewBox="0 0 512 512"><path d="m246.5 453.1-73.8-37.2-79.6 33.8-79.6 33.8-.2-188.7c-.1-103.8.1-189 .4-189.3.4-.3 36.1-15.7 79.5-34.1L172.1 38l74.1 37.2c40.7 20.5 74.5 37.2 75 37.2s37.2-17.4 81.5-38.6 84.1-40.3 88.5-42.4l7.9-3.7-.2 189-.2 189-88.4 42.3c-48.6 23.3-88.7 42.4-89.1 42.4-.5-.1-34.1-16.8-74.7-37.3" style="fill:#48b5ff"/><path d="M279.7 222.1c9.5 1.7 9.1-2.7 4.2-8.1-1.4-1.5-2.5-3.9-4.4-4.9-3.8-2-8.5-1.6-12.6-.7-3.9.8-7.8 3-11.1 5.1-10 6-21.9 11.9-33.8 12.2-2.5.1-12.6.4-11.7-4.5 2.1-11.4 13.6-17.5 21.9-24.1 3.7-3 7.5-6 11.1-9.1 1.8-1.5 3.3-3.5 5.3-4.9 2.4-1.7 5.2-2.6 7.6-4.3 16.8-11.4 43.2-26.4 63.6-15.2 8.4 4.6 12.6 14.4 15.2 23.1 2.9 9.7 6.1 19.3 7.2 29.4.9 8-.8 16.1-.1 24.1.8 9.5 5.8 15.8 12.2 22.4 2.6 2.7 7.8 6.9 9.2 10.5 3.2 8.7.1 13.9-4.5 20.9-3.3 5.1-6.3 9.7-10.5 14.2-4 4.4-7.1 9.4-11.1 13.7-10.2 11-25.2 19.5-40.2 21.3-8.3 1-12.1 1.4-19.6-.3-17.3-4.1-32.8-24.2-37.7-40.5-3.2-10.5-3.1-22.5-4-33.4-.8-9.2-2.6-18.5 1.6-27.3 5.2-11.1 18.2-16.5 29.2-19.9 2.4-.8 6.6-2.2 9.1-1.9 1.3.4 2.5 1.6 3.9 2.2m109.5-64.6c-4 14.7-5.5 29.1-6.4 44.2-.4 7.3-1.2 7.8-.3 16.1.4 4.6 2.4 10.1 4.3 14.3 1.5 3.3 5.6 5.3 8.9 6.1 18.6 4.9 34.6-2.9 43.7-19.7 8.7-16.1 5.9-31.7 5-48.9-.5-9.3-1-19.4-.3-28.7.8-11.3 6.5-21.5 11.3-31.4 3-6.1 4.7-12.7 7.2-19 1.7-4.4 3.4-7.6 5-12.2 2-5.9.8-11.9 1.5-17.9.6-5.2 3.6-9.8 5-14.8.6-2.2 1.2-4.4 1.7-6.6l-75.4 36.1c3.3 28.8-3.8 55.1-11.2 82.4m107.6 144.1c-7.2.7-14.7-.3-21.5 2-15.8 5.2-37.2 19.8-44.2 36.7-2.7 6.5-3.8 13.3-4.4 20.2-.3 3.8-.1 7.6-1.1 11.3-2.1 8.2-6.1 16.9-11.4 23.6-3.8 4.7-8.7 8.4-13.2 12.4-10.7 9.3-30.6 31-28.5 47.1.2 1.9 1 3 2.7 3.7 2.8 1.3 8.2-.7 11.2-1.1 1.8-.2 3.4-.4 4.9-.6L499 405.2V303.5c-.7-.6-1.4-1.3-2.2-1.9M.1 184c-.3 4.7 0 9.8 0 14.5v.1zm281.4 284.9c7.8-.2 15.6-2.4 23.3-3.8 6.1-1.1 12.9-1.4 18-5.4 6.1-4.9 10-13.5 10.4-21.3 1.3-26.7-21-33.1-42.4-38-9.1-2.1-18.2-4.2-27.4-5.3-12.7-1.6-26.2-3.1-37.8-8.9-5.8-2.9-10.2-7.8-15.8-10.9-5-2.8-9.6-4.8-14.1-8.4-15.2-12-30-21.6-49.9-14.6-6.8 2.4-11.2 6.7-16.7 11.2-5.1 4.3-10.8 8.2-14.8 13.5-8.4 11-13.8 24.4-21 36.2C82.7 430.6 71 447.6 56.5 462c-1.5 1.5-2.9 3.1-4.3 4.7l120.4-51.1 104.8 52.7c1.6.4 3.1.6 4.1.6m-200.2-217c4.4-5.2 8.9-11.5 11.9-17.7 1-2 1.6-4.1 2.6-6 2-4 15.6-16.3 19.2-18.8 6.4-4.5 14.3-6.5 21.7-8.4.8-.2 8.4-2.1 8.8-2.3 7.1-3.3 20.4-15.9 23.4-22.8.5-1.1 2.2-9.5 2.4-10.2 5.1-22.4-8.4-45.3-26-58.3-4.6-3.3-9.8-6-14.9-8.4-6.5-3.1-13.4-5.2-17.3-11.7-3.6-6.1-3.7-15.3-2.1-23.2l-98.1 41.6v191.1c8.5 1.7 25-7.8 30.2-11.6 3.9-2.9 2.4-2.3 6.2-5.5 8.1-6.9 16.3-13.5 24.2-20.7 4.8-4.3 3.8-2.3 7.8-7.1" style="fill:#00fd00"/><path d="m321.1 504.9-149-74.9-172 72.9V97l172.4-73.1 148.6 74.8L512 7.1v406.2zm-148.5-89.2 148.6 74.8L499 405.2V27.7L321 113 172 38.1 13 105.5v377.8z" style="fill:#afafaf"/><path d="m172.7 23.8 148.4 74.9v406.1l-148.4-74.9z" style="fill:#6d6d6d;fill-opacity:.3191"/></svg>