<svg xmlns="http://www.w3.org/2000/svg" xml:space="preserve" viewBox="0 0 512 512"><path d="m184.1 53 130 66.2v359.3l-130-66.3z" style="fill:#fff;fill-opacity:.3191"/><path d="M378.9 171.7c3.8-13.7 8.1-29.2 9.9-45.1l47.8-22.9c-.1.3-.3.6-.4 1-.6 1.4-1.2 2.8-1.8 4.4-.9 2.3-1.7 4.6-2.5 6.8-1.2 3.5-2.4 6.7-3.8 9.7-.5 1-1 2-1.4 3-4.1 8.3-8.3 16.9-9.1 26.7-.6 8.5-.2 17.5.3 26 .1 2.2.3 4.3.4 6.4.9 12.5 1.7 23.4-4.2 34.3-7.1 13.2-19.2 18.6-33 15h-.1c-2.3-.6-4.1-1.8-4.5-2.6-1.8-3.7-3-7.9-3.3-11-.4-4.7-.3-6.1-.1-8.9.1-1.2.2-2.6.4-4.5.8-14.3 2.1-26.3 5.4-38.3m63.9 137c-11.2 5.9-22.7 15.5-26.9 25.7-1.9 4.6-3 9.8-3.5 16.4-.1 1-.1 1.9-.2 2.9-.1 2.4-.2 5.2-1 8-2.2 8.4-6.1 16.7-10.9 22.7-3 3.8-6.6 6.8-10 9.6-.8.6-1.5 1.3-2.3 1.9-1.7 1.5-3.6 3.2-5.5 5.2l60.4-29v-63.4zM91.5 256.5c1.9-1.7 2.9-2.4 3.6-3 .6-.5 1-.7 2.7-2.7 4.2-5.1 7.6-10.1 9.8-14.6.3-.7.6-1.4.9-2.2.4-1 .8-2 1.3-3.1l.1-.1c2.5-4.6 15.5-16.1 18.5-18.3 6-4.4 13.2-6.3 19.6-7.9l1.3-.3c.5-.1 3.1-.8 5.2-1.4.9-.2 1.7-.4 2.2-.6 5.4-2.8 15.4-12.5 17.7-17.2.4-1.6 1.7-7.4 1.8-8.2l.1-.2c4.2-18.3-7.6-36.6-21.1-46.5-3.5-2.6-7.7-4.7-12.5-7-1-.5-2-.9-3-1.4-2.9-1.3-5.9-2.7-8.7-4.7l-62 26.3v132.4c.3-.3.6-.6 1-.9 1.6-1.3 3.2-2.7 4.8-4 5.9-5 11.3-9.5 16.7-14.4m242.8 44.2c3.3-3.7 5.8-7.3 8.8-11.9 4.1-6.2 5.3-8.8 3.4-14-.6-1.5-3.3-4.1-4.9-5.6-.8-.7-1.5-1.4-2.1-2-5.8-6-11.5-12.7-12.2-23-.3-3.6-.1-7.2.1-10.6.2-3.7.4-7.2 0-10.6-.8-7.7-3.1-15.1-5.5-22.9l-.7-2.3c-2.7-9.3-6.3-14.9-11.1-17.5-11.9-6.5-28.6-2.2-51.2 13.2l-.1.1c-1.3.8-2.5 1.5-3.7 2-1.1.5-2.1 1.1-2.9 1.6-.7.5-1.5 1.3-2.3 2.1-.6.6-1.3 1.3-2 1.9-2 1.7-4 3.3-6 4.9-1.3 1.1-2.7 2.2-4 3.3l-.1.1c-1.4 1.1-2.9 2.2-4.4 3.3-5.4 4-10.6 7.7-12.5 12.9 1.3.2 3 .2 4.5.1h.3c9.7-.3 19.8-5.5 27.6-10.1 4.3-2.7 8-4.4 11.4-5.2 3.7-.8 9.2-1.5 14.4.9l.3.2c1.9 1.1 3.2 2.7 4.1 4.1.3.4.7.9.8 1l.4.4c1.4 1.8 5.8 7.4 2.9 12.2-2.8 4.8-9.5 3.6-11.7 3.3l-.6-.1-.6-.3c-.7-.3-1.4-.7-1.9-1-.2-.1-.5-.3-.7-.4-1.3.1-4.4 1.1-5.4 1.5l-.2.1c-8.6 2.8-19 7-22.9 15-2.5 5.4-1.9 11.4-1.3 17.7.1 1.3.3 2.5.4 3.8.2 2.5.4 5.1.6 7.7.5 7.1.9 14.5 2.9 21 4 13.1 16.5 29.2 29.8 32.5 5.4 1.3 8 1 14.4.3l1.3-.1c11.5-1.3 24-7.9 32.5-17.3l.1-.1c1.7-1.8 3.2-3.8 4.8-5.9 1.8-2.1 3.4-4.3 5.2-6.3M286 390.6c-7.7-1.9-15.8-3.7-23.8-4.7l-1.6-.2c-11.2-1.5-22.9-3-33.4-8.3-3.3-1.7-6-3.8-8.6-5.8-2-1.5-3.8-3-5.7-4.1-1.4-.8-2.7-1.5-4-2.2-2.9-1.6-6-3.2-9.1-5.6-12.5-9.8-24.1-17.5-39.5-12.1-4.7 1.6-8 4.4-12.2 8l-1.1 1c-1.2 1-2.3 1.9-3.5 2.9-3.4 2.7-6.5 5.3-8.9 8.4-4.3 5.7-7.7 12.1-11.2 18.8l-4.5 8.4 64.3-27.3 130.3 65.6c3.5-3.4 6-9 6.3-14.2.7-19.1-14.2-24.1-33.8-28.6M506.1 0 313.9 92.2 182.8 26.3l-177 75V512l175.1-74.3 132.6 66.7L506.2 412zm-192 439.4-131.2-66-118.8 50.4V139.9l116.6-49.4 132.6 66.7 134.5-64.5v282.4z" style="fill:#fff"/></svg>