<?xml version="1.0" encoding="utf-8"?>
<!-- Generator: Adobe Illustrator 28.2.0, SVG Export Plug-In . SVG Version: 6.00 Build 0)  -->
<svg version="1.1"
	 id="svg1" xmlns:inkscape="http://www.inkscape.org/namespaces/inkscape" xmlns:svg="http://www.w3.org/2000/svg" xmlns:sodipodi="http://sodipodi.sourceforge.net/DTD/sodipodi-0.dtd"
	 xmlns="http://www.w3.org/2000/svg" xmlns:xlink="http://www.w3.org/1999/xlink" x="0px" y="0px" viewBox="0 0 512 512"
	 style="enable-background:new 0 0 512 512;" xml:space="preserve">
<style type="text/css">
	.st0{fill:#48B5FF;}
	.st1{fill:#00FF00;}
	.st2{fill:#6D6D6D;fill-opacity:0.3191;}
	.st3{fill:#AFAFAF;}
</style>
<path id="path1" class="st0" d="M247.6,432.4l-65.4-33l-70.6,29.9L41,459.3l-0.3-167.2c-0.1-91.9,0.1-167.5,0.4-167.8
	c0.4-0.3,32-13.8,70.5-30.1l69.8-29.8l65.7,33c36.2,18.2,66,33,66.5,33s33-15.5,72.1-34.3s74.5-35.8,78.5-37.5l7-3.3l-0.3,167.5
	l-0.3,167.5l-78.2,37.5c-43,20.6-78.6,37.5-79,37.5C313.4,465.4,283.6,450.6,247.6,432.4z"/>
<path class="st1" d="M129.8,80.9c-3.3,7.5-4.6,19.9-0.3,27.2c3.4,5.7,9.5,7.6,15.4,10.4c4.6,2.2,9.2,4.6,13.2,7.5
	c15.7,11.5,27.6,31.7,23,51.6c-0.1,0.6-1.8,8.1-2,9c-2.7,6.1-14.5,17.3-20.7,20.2c-0.4,0.1-7.1,1.8-7.9,2
	c-6.6,1.8-13.6,3.4-19.3,7.5c-3.2,2.3-15.2,13.2-17,16.6c-0.9,1.8-1.4,3.6-2.2,5.3c-2.7,5.5-6.6,11-10.5,15.7
	c-3.6,4.3-2.7,2.4-6.7,6.1c-7,6.4-14.2,12.3-21.5,18.4c-3.4,2.8-2,2.3-5.5,4.9c-5.1,3.7-22.5,13.6-28.8,9.4
	c-6.6-4.3-1.8-21.7-2.9-27.9c-0.8-4.6-3.3-8.8-4.4-13.3c-1.3-5.1,0.3-9.9,0.5-14.9c0.3-4.8,0.5-9.9,0-14.7
	c-0.6-5.5-2.5-9.4-2.5-15.4c0-4.4-0.3-9.2,0-13.5c0.1-1.6,0.8-3.2,1-4.8c0.9-6.1,1.5-12.7,1-18.9c-0.3-3.1,6.4-12.3,5.8-15.4
	c-1.1-7.1-8.2-7.2-7.2-14.2c0.5-3.7,0.3-8.2,1.9-11.5c1-1.8,1.8-4.7,3.3-6.1c4.3-4.3,15.4-7,21-8.7c3.6-1.1,7-2.8,10.3-4.4
	c3.8-1.8,6.7-4.3,10.3-6.5c4.1-2.4,8.9-3.8,13.2-5.7C103.1,91.1,115.8,84.5,129.8,80.9L129.8,80.9z M277,227.7
	c-1.3-0.6-2.3-1.6-3.7-1.8c-2.2-0.3-5.8,1-8.1,1.8c-9.7,3.1-21.2,7.9-25.9,17.6c-3.7,7.9-2,16-1.4,24.1c0.9,9.7,0.8,20.2,3.6,29.7
	c4.4,14.5,18.2,32.2,33.4,35.9c6.6,1.6,9.9,1.1,17.4,0.3c13.3-1.5,26.7-9,35.7-18.9c3.6-3.8,6.4-8.4,9.9-12.2
	c3.7-4.1,6.4-8.1,9.3-12.6c4.1-6.2,6.7-10.8,3.9-18.5c-1.3-3.2-5.7-6.9-8.1-9.3c-5.6-5.8-10.2-11.4-10.8-19.8
	c-0.6-7.1,1-14.3,0.1-21.5c-1-8.9-3.8-17.5-6.4-26.1c-2.2-7.6-6-16.4-13.5-20.4c-18-9.9-41.4,3.3-56.4,13.5
	c-2.2,1.5-4.7,2.3-6.7,3.8c-1.8,1.3-3.1,2.9-4.7,4.3c-3.2,2.7-6.6,5.3-9.9,8.1c-7.4,5.8-17.5,11.3-19.3,21.3
	c-0.8,4.3,8.2,4.1,10.4,3.9c10.5-0.3,21.1-5.5,30-10.8c2.9-1.8,6.5-3.8,9.9-4.6c3.7-0.8,7.7-1.1,11.2,0.6c1.6,0.9,2.7,3.1,3.9,4.3
	C285,225.4,285.4,229.2,277,227.7L277,227.7z M66.1,453.5c5.3-3.3,8.7-8.7,13.1-13.1C92,427.6,102.4,412.5,112,397
	c6.4-10.4,11.2-22.3,18.7-32.1c3.6-4.8,8.6-8.2,13.1-12.1c4.8-4.1,8.8-7.9,14.9-9.9c17.6-6.2,30.7,2.2,44.2,12.8
	c4.1,3.2,8.1,4.9,12.5,7.5c4.9,2.8,8.8,7.1,14,9.7c10.3,5.2,22.3,6.5,33.4,8c8.2,1,16.3,2.8,24.3,4.8c18.9,4.4,38.6,10,37.5,33.7
	c-0.4,6.9-3.8,14.5-9.2,18.9c-4.6,3.7-10.5,3.8-15.9,4.8c-6.7,1.3-13.7,3.2-20.6,3.3c-3.7,0.1-13.1-2.9-17.3-3.8
	c-4.4-1-9.5-1.1-13.5-3.3c-4.4-2.4-8-6.2-12.1-9.2c-5.6-4.1-1.3-0.8-5.7-3.3c-3.8-2.3-7.1-5.3-11-7.5c-5.8-3.3-15.9-4.2-22.7-5.5
	c-6.5-1.4-12.6-3.8-19.3-4.7c-15.9-1.9-33.8,6.6-47.1,15.1c-2.9,1.8-5.7,4.1-8.6,6.1c-3.1,2.2-6.6,3.8-10,5.6
	c-8.7,4.7-17.8,8.4-26.3,13c-2.3,1.3-13.1,7-15.2,6.5C68.8,455.2,67.5,453,66.1,453.5c-2.5,0.8-3.7,4.2-6.1,5.3 M469.4,298.2
	c-6.4,0.6-13-0.3-19,1.8c-14,4.7-33,17.5-39.2,32.5c-2.3,5.7-3.4,11.8-3.9,17.9c-0.3,3.3-0.1,6.7-1,10c-1.8,7.2-5.3,15-10,20.8
	c-3.3,4.2-7.7,7.5-11.7,10.9c-9.4,8.2-27.1,27.4-25.3,41.7c0.3,1.8,0.9,2.5,2.4,3.3c2.4,1.1,7.4-0.6,9.9-1c8.9-1.3,14-1.5,22.6-5.7
	c1.8-0.9,3.3-1.6,4.9-2.3c7-3.2,13.6-6.9,20.4-10.4c2.5-1.4,5.5-2,8.1-3.3c2.4-1.3,4.4-3.1,6.9-4.2c1.8-0.9,3.7-1.3,5.5-1.9
	c2-1,4.1-2.2,6.1-3.3c2.4-1.3,5.3-1.5,8-2.2c1.8-0.5,3.1-1.5,4.7-2c1.8-0.8,4.1-0.6,6-1.1c1.8-0.5,2.8-2.4,4.3-3.4
	c0.8-0.5,1.8-0.6,2.3-1.4s0.3-1.8,0.8-2.5c0.5-1,1.8-1.4,2.2-2.4c2-4.3,0.4-14.3,0.5-19.2c0.1-5.2,0.5-10.2,0.9-15.4
	c0.3-3.9-0.3-8-0.3-11.9c0-1.8,0.5-3.3,0.4-5.1s-0.5-3.4-0.5-5.2c0-3.6,0,0.4,0.6-2.9c0.4-2.4,0-5.3,0.1-7.7
	c0.1-2.8,0.8-5.6,0.5-8.5c-0.1-1.9-1.4-3.2-1.5-5.1c-0.3-1.8,0.8-6.5,0-7.7c-0.5-0.8-1.9-0.4-2.5-0.9
	C471.3,299.9,470.4,299,469.4,298.2L469.4,298.2z M383.5,95.1c3.9,26.3-2.5,50.4-9.4,75.3c-3.6,13-4.9,25.9-5.7,39.2
	c-0.4,6.5-1,7-0.3,14.2c0.4,4.1,2,8.9,3.8,12.6c1.4,2.9,5.1,4.7,7.9,5.3c16.5,4.4,30.6-2.5,38.7-17.4c7.7-14.2,5.3-28.1,4.4-43.4
	c-0.5-8.2-0.9-17.1-0.3-25.4c0.8-9.9,5.7-19,10-27.8c2.5-5.3,4.2-11.3,6.4-16.9c1.5-3.8,3.1-6.7,4.4-10.8c1.8-5.3,0.8-10.5,1.4-15.8
	c0.5-4.7,3.2-8.7,4.4-13.1c1.2-4.5,2.2-8.9,3.3-13.3"/>
<path id="rect378" sodipodi:nodetypes="ccccc" class="st2" d="M184.1,53l130,66.2v359.3l-130-66.3V53z"/>
<path class="st3" d="M506.1,0L313.9,92.2L182.8,26.3L5.8,101.3V512l175.1-74.3l132.6,66.7l192.7-92.4L506.1,0L506.1,0z M314.1,439.4
	l-131.2-66L64.1,423.8V139.9l116.6-49.4l132.6,66.7l134.5-64.5v282.4L314.1,439.4z"/>
</svg>
