<svg xmlns="http://www.w3.org/2000/svg" xml:space="preserve" viewBox="0 0 512 512"><path d="M307.2 0H204.8C91.7 0 0 91.7 0 204.8v102.4C0 420.3 91.7 512 204.8 512h102.4C420.3 512 512 420.3 512 307.2V204.8C512 91.7 420.3 0 307.2 0" style="fill:#fff"/><path d="M146.7 229.9c7.1 15 17.4 26.4 30.1 35.6-1.5 4.6-3.3 9.1-4.4 13.7-1.3 5.2-2.3 10.6-2.7 16-1.8 23.4 5.4 44 20.4 61.7 11.3 13.3 25.4 22.6 42.4 27.1 5.2 1.4 10.6 2.4 16 2.8 21.4 1.6 40.9-3.6 58.1-16.5 17-12.8 27.8-29.6 32.5-50.3 1.3-5.6 2.1-11.5 2.1-17.3-.2-21.9-8-40.7-24.1-55.8-11.8-11.1-25.9-17.8-41.9-20.1-5.9-.8-11.9-1.4-17.9-1.1-17.3.7-32.9 6.6-46.3 17.6-5.1 4.2-9.4 9.2-14 13.9-.9 1-1.4 1.2-2.6.6-9.1-4.7-17-10.9-23.7-18.7-10.3-11.9-16.6-25.8-19.5-41.3-.9-5.1-1.2-10.4-1.7-15.6-.2-2-.4-4.1-.4-6.1.4-17.9 3.8-35 12.3-50.9 6.6-12.3 15.5-22.7 26.3-31.5 13.4-11 28.8-17.9 45.6-21.5 4.5-1 9.1-1.3 13.7-1.8 3.6-.3 7.2-.5 10.7-.4 19.2.4 37.2 5.3 53.6 15.5 25 15.4 40.8 37.6 47.5 66.1 1.4 6.1 1.6 12.4 2.2 18.6.3 2.8.5 5.6.4 8.3-.2 5.7-.6 11.5-1 17.5-3.6-2.6-6.8-5.1-10.1-7.4-8.8-6.3-18.2-11.8-28.1-16.3-3.2-1.5-4.3-3.7-4.5-7.1-.6-8.3-3.4-15.9-7.5-23.1-9.3-16.2-23.2-26.2-41.2-30-20.2-4.2-38.6.2-54.6 13.4-11.1 9-18.3 20.6-21.6 34.5-1.9 8.2-2.5 16.5.5 24.7 3.3 9 13.4 13.5 22.1 9.5 8.6-4 17.5-6.9 26.8-8.4 8.2-1.3 16.4-1.9 24.6-1.3 7.6.5 15.1 1.4 22.6 2.7 9.6 1.7 18.6 5.2 27.3 9.4 14.5 6.9 27.3 16.3 38 28.3 12.2 13.5 21 29 25.6 46.7 2 7.8 3.4 15.7 3.4 23.8 0 3.5.4 7 .3 10.5-.2 7.6-1.2 15.1-2.6 22.5-2.4 12-6.5 23.3-12.4 34-8.1 14.9-18.8 27.7-31.8 38.6-15.5 13.1-33.2 22.2-52.9 27-6.4 1.6-13 2.4-19.6 3.1-5.6.6-11.3.8-16.9.4-13.6-1-26.8-3.9-39.6-8.9-15.4-6-29-14.6-41.2-25.7-19.1-17.3-32.1-38.4-38.4-63.5-1.7-6.7-2.7-13.5-3.4-20.3-.6-6.8-.9-13.7-.4-20.5 1.6-22.3 8.1-43.1 20.9-61.7.6-.2.7-.4 1-1m65.7 76.7c0 10.6-.1 21.2 0 31.8q.15 13.8 12.3 20.4c8.4 4.6 17.6 6.3 26.9 6.7 6.7.3 13.4-.4 20.1-1.1 7.9-.9 15.4-3.4 22-8.1 7.5-5.4 12.5-12.5 12.6-21.9.2-14.3.1-28.7 0-43 0-4.8-1.4-9.4-4.7-13-4.1-4.5-8.5-8.8-12.8-13.2-5.4-5.6-12-8-19.7-7.9-12.7.1-25.3 0-38 0q-2.55 0-5.1.6c-8.3 1.8-13.9 9.1-13.8 17.6.2 10.3.1 20.7.2 31.1-.1 0 0 0 0 0m25.9 5.4h41c.6 0 1.3.2 1.9.3 3.8.5 5.7 2.4 5.6 5.7-.1 3.2-2.5 5.4-6.4 5.7-.6.1-1.3.3-1.9.3h-40.6c-.6 0-1.3-.2-1.9-.3-4.6-.2-7.1-4.5-5.5-7.8 1.1-2.5 3.2-3.6 5.9-3.5.6-.2 1.3-.4 1.9-.4m41.8-24.8c2.4 0 4.6.5 5.9 2.9 2.3 4-.8 8.7-5.8 8.7h-44c-3.6-.1-6.2-2.5-6.3-5.5-.2-3.1 2.8-6.1 6-6.1 7.4.1 14.8 0 22.2 0zm-16.4 50.1c3.6.1 5.3 1 6.3 3.7 1.1 3.1-.9 6.7-4.1 7.4-1.2.2-2.5.4-3.7.4h-23.6c-1.1 0-2.1-.1-3.2-.3-3.5-.6-5.7-3-5.4-6.2.2-2.9 2.7-5 6.1-5 4.6-.1 9.2 0 13.8 0 4.6-.1 9.2-.2 13.8 0" style="fill:#01cbe7"/></svg>