<svg xmlns="http://www.w3.org/2000/svg" xml:space="preserve" viewBox="0 0 512 512"><path d="M13.3 233.6c7.3 0 13.3 6.3 13.3 14v81.2c0 7.7-6 14-13.3 14S0 336.5 0 328.8v-81.2c0-7.7 6-14 13.3-14m44.1-43.7c7.3 0 13.3 5.9 13.3 13.2V373c0 7.3-6 13.2-13.3 13.2s-13.3-5.9-13.3-13.2V203.1c.1-7.2 6-13.2 13.3-13.2m44.2-17.3c7.3 0 13.3 6.3 13.3 14v202c0 7.7-6 14-13.3 14s-13.3-6.3-13.3-14v-202c-.1-7.7 5.9-14 13.3-14m44.1-44.3c7.3 0 13.3 6.3 13.3 14.2v246c0 7.8-6 14.2-13.3 14.2s-13.3-6.3-13.3-14.2v-246c0-7.8 5.9-14.2 13.3-14.2m44.1-17.3c7.3 0 13.3 6.3 13.3 14v263.7c0 7.7-6 14-13.3 14s-13.3-6.3-13.3-14V125c0-7.8 6-14 13.3-14m44.2-1.7c7.3 0 13.3 6.3 13.3 14v265.2c0 7.7-6 14-13.3 14s-13.3-6.3-13.3-14V123.4c-.1-7.7 5.8-14.1 13.3-14.1m44 18.1c7.3 0 13.3 6.3 13.3 14v247.3c0 7.7-6 14-13.3 14s-13.3-6.3-13.3-14V141.4c0-7.8 6-14 13.3-14m44.2 44.2c7.3 0 13.3 6.3 13.3 14v202.9c0 7.7-6 14-13.3 14s-13.3-6.3-13.3-14V185.6c0-7.7 6-14 13.3-14m44.1 2.2c7.3 0 13.3 6.3 13.3 14v200.7c0 7.7-6 14-13.3 14s-13.3-6.3-13.3-14V187.8c-.1-7.7 5.9-14 13.3-14m44.1 22.3c7.3 0 13.3 6.3 13.3 14v178.5c0 7.7-6 14-13.3 14s-13.3-6.3-13.3-14V210.1c0-7.7 6-14 13.3-14m44.1 32.9c7.3 0 13.3 6.3 13.3 14v144.3c0 7.7-6 14-13.3 14s-13.3-6.3-13.3-14V242.9c.1-7.7 6-13.9 13.3-13.9m44.2 33.7c7.3 0 13.3 6.3 13.3 14v76.5c0 7.7-6 14-13.3 14s-13.3-6.3-13.3-14v-76.5c-.1-7.7 5.9-14 13.3-14" style="fill:#fff"/></svg>