<svg xmlns="http://www.w3.org/2000/svg" xml:space="preserve" shape-rendering="geometricPrecision" viewBox="0 0 512 512"><path d="m228.6 47.2-190.9 79c-10.6 4.4-10.5 19.5.2 23.7l191.7 76c16.8 6.7 35.6 6.7 52.4 0l191.7-76c10.7-4.2 10.8-19.3.2-23.7L283 47.2c-17.4-7.2-37-7.2-54.4 0m44.2 220.3v189.9c0 9 9.1 15.2 17.5 11.9l213.6-82.9c4.9-1.9 8.1-6.6 8.1-11.9V184.6c0-9-9.1-15.2-17.5-11.9l-213.6 82.9c-4.9 1.9-8.1 6.6-8.1 11.9m-49.9 9.8-63.4 30.6-6.4 3.1-133.8 64.1C10.8 379.2 0 373 0 363.6V185.4c0-3.4 1.7-6.4 4.1-8.6 1-1 2.1-1.8 3.2-2.4 3.2-1.9 7.8-2.4 11.6-.9l202.9 80.4c10.4 4.1 11.2 18.5 1.1 23.4"/></svg>