<svg xmlns="http://www.w3.org/2000/svg" xml:space="preserve" viewBox="0 0 512 512"><path d="M460.8 102.4c-4.4-5.8-11.3-9.3-18.6-9.3H279.3V46.5c12.9 0 23.3-10.4 23.3-23.3S292.1 0 279.3 0h-46.5c-12.9 0-23.3 10.4-23.3 23.3s10.4 23.3 23.3 23.3v46.5h-163c-7.3 0-14.2 3.4-18.6 9.3-4.4 5.8-5.8 13.4-3.8 20.4l41.8 145.8c5.5 19.7 23.7 33.7 44.5 34h5.8v186.2c0 12.9 10.4 23.3 23.3 23.3s23.3-10.4 23.3-23.3V302.5h139.6v186.2c0 12.9 10.4 23.3 23.3 23.3s23.3-10.4 23.3-23.3V302.5h5.9c20.7-.1 39.1-14 44.7-34q.45-1.5.6-3l41-142.8c2.1-6.9.7-14.5-3.7-20.3M299 139.6l-16.6 116.3h-52.7L213 139.6zm-198.3 0H166l16.6 116.3h-48.5zm277.2 116.3v.1h-48.5L346 139.6h65.3z" style="fill:#3c83f6"/></svg>