<?xml version="1.0" encoding="utf-8"?>
<!-- Generator: Adobe Illustrator 28.2.0, SVG Export Plug-In . SVG Version: 6.00 Build 0)  -->
<svg version="1.1" id="Layer_1" xmlns="http://www.w3.org/2000/svg" xmlns:xlink="http://www.w3.org/1999/xlink" x="0px" y="0px"
	 viewBox="0 0 512 512" style="enable-background:new 0 0 512 512;" xml:space="preserve">
<style type="text/css">
	.st0{fill:#FFFFFF;}
</style>
<path class="st0" d="M149.7,372.1c-30-27.5-49.4-66.6-51-110.2H0c1.7,73.5,34.3,139.4,85.4,185L149.7,372.1z M323.1,398.4
	c-20.4,9.6-43.1,15-67.2,15c-36.5,0-70.1-12.4-96.8-33.3L94.9,455c44,35.7,100,57,161.1,57c40.8,0,79.4-9.6,113.6-26.5L323.1,398.4z
	 M512,256v256h-98.6v-54.1c-10.3,8.1-21.3,15.3-32.8,21.8l-46.4-87.1c47.3-27.1,79.2-78.2,79.2-136.6c0-86.9-70.5-157.4-157.4-157.4
	c-84.7,0-153.8,66.9-157.2,150.8H0C3.5,111.1,116.8,0,256,0C397.3,0,512,114.6,512,256L512,256z"/>
</svg>
