<svg xmlns="http://www.w3.org/2000/svg" xml:space="preserve" viewBox="0 0 512 512"><path d="M358.2 256.2c35.9 89.5 46.7 162.1 32.1 217.6-16 61.1-80.9 37.6-104.9-1.8-20.9-34.2-29.4-90-41.1-88.1-26.8 4.5-63.5 138.2-158.1 127.5-48.7-5.6-49.6-73.6-40.3-130.9 13.4-82.8 43.7-148.6 90.5-197.4 20.6 9.3 43.4 18.4 67.2 27.1-30.6 12.8-45.9 36.4-45.8 70.7.1 24.9 41.5 35.2 71.7 30.6 61-9.3 49.5-41.7 40.7-63.5-2-5-6.4-11.6-13-19.7h.1c35.6 11 70.2 20.6 100.9 27.9m-238.4-94.3c39.2 19.2 89.3 38.7 141 54.7 53.7 16.7 104.7 29.9 143.6 37.2 52.9 9.9 64.3 5.6 66.2 4.4-.4-13.3-13.5-48.7-119.8-102.7l-3.4-1.7.1-3.9c.9-29 1.7-44 2.7-50 3.3-21.2 12.7-42.1 21-60.5 7.4-16.3 15.7-34.8 11.3-39.3-1-.4-11.2-2.7-59.6 28.6-29.1 18.8-61.3 43-80.4 58.6-7.1 5.8-19.2 13.6-36.1 23.4l-1.7 1-1.9-.2c-61.5-5.6-126.2-8.4-140.5 12.7 1.6 3.8 14 16.3 57.5 37.7" style="fill-rule:evenodd;clip-rule:evenodd;fill:#fff"/></svg>