<?xml version="1.0" encoding="utf-8"?>
<!-- Generator: Adobe Illustrator 28.2.0, SVG Export Plug-In . SVG Version: 6.00 Build 0)  -->
<svg version="1.1" id="Layer_1" xmlns="http://www.w3.org/2000/svg" xmlns:xlink="http://www.w3.org/1999/xlink" x="0px" y="0px"
	 viewBox="0 0 512 512" style="enable-background:new 0 0 512 512;" xml:space="preserve">
<style type="text/css">
	.st0{fill-rule:evenodd;clip-rule:evenodd;}
</style>
<path class="st0" d="M358.2,256.2c35.9,89.5,46.7,162.1,32.1,217.6c-16,61.1-80.9,37.6-104.9-1.8c-20.9-34.2-29.4-90-41.1-88.1
	c-26.8,4.5-63.5,138.2-158.1,127.5c-48.7-5.6-49.6-73.6-40.3-130.9c13.4-82.8,43.7-148.6,90.5-197.4c20.6,9.3,43.4,18.4,67.2,27.1
	c-30.6,12.8-45.9,36.4-45.8,70.7c0.1,24.9,41.5,35.2,71.7,30.6c61-9.3,49.5-41.7,40.7-63.5c-2-5-6.4-11.6-13-19.7c0,0,0,0,0.1,0
	C292.9,239.3,327.5,248.9,358.2,256.2z M119.8,161.9c39.2,19.2,89.3,38.7,141,54.7c53.7,16.7,104.7,29.9,143.6,37.2
	c52.9,9.9,64.3,5.6,66.2,4.4c-0.4-13.3-13.5-48.7-119.8-102.7l-3.4-1.7l0.1-3.9c0.9-29,1.7-44,2.7-50c3.3-21.2,12.7-42.1,21-60.5
	c7.4-16.3,15.7-34.8,11.3-39.3c-1-0.4-11.2-2.7-59.6,28.6c-29.1,18.8-61.3,43-80.4,58.6c-7.1,5.8-19.2,13.6-36.1,23.4l-1.7,1
	l-1.9-0.2c-61.5-5.6-126.2-8.4-140.5,12.7C63.9,128,76.3,140.5,119.8,161.9z"/>
</svg>
