<?xml version="1.0" encoding="utf-8"?>
<!-- Generator: Adobe Illustrator 28.2.0, SVG Export Plug-In . SVG Version: 6.00 Build 0)  -->
<svg version="1.1" id="Layer_1" xmlns="http://www.w3.org/2000/svg" xmlns:xlink="http://www.w3.org/1999/xlink" x="0px" y="0px"
	 viewBox="0 0 512 512" style="enable-background:new 0 0 512 512;" xml:space="preserve">
<style type="text/css">
	.st0{fill-rule:evenodd;clip-rule:evenodd;fill:#FFFFFF;}
</style>
<path class="st0" d="M349.4,154.6c0.8-26.5,1.6-42.7,2.6-48.6c7-45,44-91,30-104S275,56,236,88c-6.4,5.2-18,12.8-34.9,22.6
	C117.7,103,68.8,105.3,56,127c-4.4,9.3,29.3,31.5,83.3,55.6c-48.8,48.7-80.2,115.1-93.8,199.5c-9.2,56.6-8.3,123.8,39.8,129.3
	C178.8,522,215,389.9,241.5,385.5c11.6-1.9,20,53.2,40.6,87c23.7,38.9,87.8,62.1,103.6,1.8c14.6-55.8,3.4-129-33.6-219.5
	c-0.4-1.1-0.8-1.8-1-2.3C421.3,269.6,471,275.1,471,262C471,246.7,458.6,210,349.4,154.6z M226.8,313.9
	c-29.8,4.6-70.7-5.6-70.8-30.2c-0.1-37,17.8-61.4,54-73c11.9,4.2,24.2,8.4,36.9,12.5c10.8,12.2,17.5,21.5,20.2,28.1
	C275.7,272.7,287,304.7,226.8,313.9z"/>
</svg>
