<?xml version="1.0" encoding="utf-8"?>
<!-- Generator: Adobe Illustrator 28.2.0, SVG Export Plug-In . SVG Version: 6.00 Build 0)  -->
<svg version="1.1"
	 id="svg7131" xmlns:cc="http://creativecommons.org/ns#" xmlns:sodipodi="http://sodipodi.sourceforge.net/DTD/sodipodi-0.dtd" xmlns:inkscape="http://www.inkscape.org/namespaces/inkscape" xmlns:dc="http://purl.org/dc/elements/1.1/" xmlns:rdf="http://www.w3.org/1999/02/22-rdf-syntax-ns#" xmlns:svg="http://www.w3.org/2000/svg" sodipodi:docname="alaska airlines.svg"
	 xmlns="http://www.w3.org/2000/svg" xmlns:xlink="http://www.w3.org/1999/xlink" x="0px" y="0px" viewBox="0 0 512 512"
	 style="enable-background:new 0 0 512 512;" xml:space="preserve">
<style type="text/css">
	.st0{fill:#00385F;}
</style>
<path id="path6827" inkscape:connector-curvature="0" class="st0" d="M503.7,95.2c-49.8,0-75.8,13.3-124.8,48.6L213,263.3H106.8
	c-30.7,0-55.4,1.2-74.6,19.5L4.7,308.2c0,0,79.8-3.1,154.2-5.9L0,416.8h68.7l162.5-117.3c31.6-1.3,53.2-1.9,53.5-1.9
	c37.8-1,58.8-34.4,58.8-34.4h-62.2l131.2-94.7l-97.5,157.9c-20.8,36.2-31,62.2-34.4,90.1h56.4c2.1-23.5,10.2-48,24.7-72.1
	l132.8-221.6c9.3-15.2,17.3-27.6,17.3-27.6L503.7,95.2L503.7,95.2z"/>
</svg>
