<svg xmlns="http://www.w3.org/2000/svg" xml:space="preserve" viewBox="0 0 512 512"><path d="M209.39 42.81C195.84 53.14 52.52 295.87 7.33 384.32c-22.59 45.19 9.68 97.48 60.68 97.48 25.18 0 56.16-19.37 152.35-94.25 80.05-62.62 165.27-87.15 227.24-65.2 15.49 5.16 26.47 7.75 25.18 5.16-46.48-87.8-158.81-275.66-170.43-284.7-21.94-17.43-71.01-17.43-92.96 0m150.42 297.61c-15.49 2.58-41.32 11.62-57.46 19.37-23.24 11.62-27.11 15.49-20.01 21.3 5.16 3.87 32.92 24.53 60.68 46.48 28.41 21.3 58.1 42.61 65.85 46.48 55.52 29.7 122.01-26.47 98.13-83.28-14.85-36.8-89.09-61.97-147.19-50.35"/></svg>