<?xml version="1.0" encoding="utf-8"?>
<!-- Generator: Adobe Illustrator 28.2.0, SVG Export Plug-In . SVG Version: 6.00 Build 0)  -->
<svg version="1.1" id="Layer_1" xmlns:bx="https://boxy-svg.com"
	 xmlns="http://www.w3.org/2000/svg" xmlns:xlink="http://www.w3.org/1999/xlink" x="0px" y="0px" viewBox="0 0 512 512"
	 style="enable-background:new 0 0 512 512;" xml:space="preserve">
<style type="text/css">
	.st0{fill:#FFFFFF;}
</style>
<g>
	<path class="st0" d="M512,309.8c0,6.6,0,13.2-0.4,20.7c-1.4,7.8-1.5,14.9-3.2,21.6c-13.4,50.9-45,85.2-94.8,102.2
		c-8.8,3-18.3,4.1-27.5,6.1c-29,0.1-57.9,0.1-86.9,0.1c-57.3,0-114.6,0-172.7-0.5c-10.5-2.5-20.5-3.5-29.9-6.5
		c-26.5-8.7-48.4-24.1-65.8-46c-12.5-15.8-21.5-33.3-26.1-53c-1.8-7.8-3-15.8-4.5-23.7c-0.1-7-0.1-14.1,0.3-21.9
		c5.1-52.7,33.9-87.8,77.9-112.9c0-0.9,0-2.1,0-3.3c0-12-1.6-24.4,0.4-36.1c4-22.8,13.6-43.2,29.1-61c14.8-17,32.4-29.4,53.4-36.8
		c9.6-3.4,19.8-5,29.7-7.3c9.1,0,18.1-0.1,28,0.4c5.1,1.2,9.6,1.5,13.8,2.6c21,5.2,39.6,14.9,55.7,29.5c2.8,2.5,5.4,8.1,11.8,4.7
		c20.6-10.8,42.5-14.2,65.7-10.5c20.6,3.3,38.7,11.6,54.2,25.3c14.1,12.5,24.3,28,31.1,45.6c7.8,20.2,12.7,40.6,7.5,60.5
		c9.8,10.9,19.4,20.5,27.5,31.1c11.2,14.8,18.8,31.6,22.2,50C509.7,297.1,510.8,303.4,512,309.8 M424.2,396.8
		c6.8-6.4,14.7-12,20.2-19.4c12.8-17.1,17.6-36.7,13.8-58.1c-2.8-15.9-10-29.5-21.1-40.5c-15.6-15.5-35.4-22.8-57.3-22.8
		c-85.7,0.2-171.4,0.7-257.1,1.2c-19.5,0.1-35.7,9.1-48.6,22.4c-17.7,18.3-25,40.9-20.4,66.6c2.8,15.6,10.1,29.1,21,40
		c16.3,16.2,36.9,22.9,59.7,22.9c72.7,0,145.4,0.1,218.1-0.1c11.8,0,23.5-1.1,35.3-1.1C400.9,408,412.3,403.3,424.2,396.8
		L424.2,396.8z"/>
	<path class="st0" d="M147.9,307.4c19.2,5.4,25.3,28.1,12.6,42.9c-6.5,7.6-18.2,10.2-29.8,6.2c-8.7-3-15.1-12.7-15.8-22
		c-1.3-17.8,13.6-28.4,26.6-28.2C143.5,306.3,145.4,307,147.9,307.4L147.9,307.4z"/>
	<path class="st0" d="M226.8,308.2c9.6,2.9,14.6,10.1,16.6,18.5c2.3,9.9-0.5,19.2-8.8,25.9c-8.3,6.7-17.7,8.4-27.7,3.9
		c-10.2-4.6-15.7-13.3-15.6-23.8C191.5,314.8,208.7,301.5,226.8,308.2L226.8,308.2z"/>
	<path class="st0" d="M269,339.4c-3.1-17.7,5.7-27.7,17.9-32c12.1-4.3,28.4,4.2,32.2,16.9c5.7,19.1-8.8,35.6-26.6,34.5
		C282,358.1,271.4,350.8,269,339.4L269,339.4z"/>
	<path class="st0" d="M361.3,356.9c-11.1-5.2-18.8-17.6-16.9-26.6c3.8-18.4,16.4-24.9,28.2-24c13.1,1,22,9.1,24.2,21.5
		c2.4,13.3-5,24.4-16.5,29C373.8,359.5,367.9,358.8,361.3,356.9L361.3,356.9z"/>
</g>
</svg>
