<svg xmlns="http://www.w3.org/2000/svg" xml:space="preserve" viewBox="0 0 512 512"><path d="M307 346c-20.6 1-18.5-9.8-6.4-26.3 28.2-37.7 81.5-90.4 83.3-127.6 3.2-48.7-45.7-64.5-96-64-35.1.4-71.3 10.5-96 19.3C106.7 177.5 53.2 225.7 19.5 279c-35.7 52.9-24 105.8 51.5 105.1 58-.6 95.5-18.4 134.8-38.4.2 0-108.5 31-148.4 8.1-.1 0-.1 0-.2-.1-4.1-2.3-9.1-5.6-9.8-14.6-1.4-18.9 31-38.5 48.6-44.8v-32.7c12.9 5 27 7.8 41.7 7.8 28.2 0 54-10.2 74.1-27 .8 2.8 1.2 5.9 1 9.5h7.9c1-8.4-3.7-15.1-3.7-15.1-7.1-11.3-19.5-11.1-19.5-11.1s6.7 2.9 11.3 9.9c-18.4 15.4-42 24.7-67.9 24.7-11 0-21.6-1.7-31.6-4.8L135 230l-7.1-18.6c51.9-18.2 95.6-32.1 166.6-44.4l-15.9-13.3 8.3-5.1c42.9 12.1 70.9 21 69.4 43.7-.7 3.7-2 8.1-4.3 13-12.5 24.7-49.6 65.9-64.6 83.1-9.9 11.4-19.6 22.6-26.6 33.3-7.1 10.7-11.5 20.7-11.8 30.3.9 74.8 220.4-34.9 262.9-64-62.7 27-130.3 53-204.9 58"/></svg>