<svg xmlns="http://www.w3.org/2000/svg" xml:space="preserve" viewBox="0 0 512 512"><path d="M470.8 288.4c21.8-1.7 39.4 12.6 41.1 34.4 1.7 22.7-14.3 41.1-36.1 42.8-21 1.7-39.4-14.3-41.1-35.2-1.7-22.7 13.4-39.5 36.1-42m-184.6-53.7c-1.7-2.5-.8-5 1.7-6.7 47.8-43.6 119.1-52 174.5-9.2 14.3 11.7 23.5 36.1 15.9 50.3-3.4 5.9-7.6 8.4-12.6 10.1-11.7 5-22.7 10.1-30.2 21-7.6 10.9-9.2 23.5-5.9 36.9 2.5 10.9 6.7 22.7-4.2 32.7-5.9 5.9-34.4 10.9-41.9 5.9-3.4-2.5-2.5-5-1.7-8.4 2.5-21-2.5-40.3-10.1-58.7-2.5-6.7-1.7-10.1 5-11.7 11.7-3.4 22.7-9.2 31-17.6 18.5-17.6 14.3-40.3-10.1-50.3-19.3-8.4-39.4-6.7-58.7-5-18.3.7-35.9 5.7-52.7 10.7" style="fill:#86da2f"/><path d="M205.7 467.1c0-21.8 16.8-38.6 36.9-38.6S282 447 282 468c0 20.1-16.8 37.8-36.1 38.6-24.3 0-40.2-15.1-40.2-39.5m69.6-210.5c2.5-2.5 4.2-1.7 6.7 0 55.4 33.6 83.9 99.8 58.7 164.4-6.7 16.8-28.5 33.6-44.5 29.4-6.7-1.7-10.1-5-13.4-9.2-7.6-10.1-15.9-19.3-28.5-23.5-13.4-4.2-25.2-1.7-36.9 5-10.1 5.9-20.1 13.4-32.7 5.9-7.6-4.2-20.1-30.2-17.6-38.6 1.7-3.4 5-3.4 8.4-3.4 21-3.4 37.8-13.4 53.7-26.8 5-4.2 9.2-4.2 13.4 1.7 6.7 10.1 15.1 18.5 26 24.3 21.8 12.6 42.8 1.7 45.3-23.5 2.5-21-5-39.4-11.7-57.9-7.6-16.8-16.8-32.7-26.9-47.8" style="fill:#24c2ff"/><path d="M110.9 85.4c1.7 0 5.9.8 10.1 1.7 31 5.9 50.3-5 60.4-34.4 6.7-19.3 21-25.2 39.4-15.1.8 0 .8.8 1.7.8 19.3 10.9 19.3 12.6 7.6 29.4-10.1 13.4-15.1 28.5-17.6 44.5-1.7 9.2-5 10.9-13.4 7.6-13.4-5-27.7-5-41.9 0-15.9 5-22.7 19.3-17.6 35.2 6.7 21 25.2 30.2 41.1 41.1s34.4 16.8 52 24.3c2.5.8 6.7.8 5.9 5-.8 2.5-4.2 2.5-7.6 2.5-37.8 1.7-73.8-4.2-103.2-29.4-27.8-22.6-48-50.3-44.6-88.9 2.5-12.6 11.7-21.8 27.7-24.3m64.6-47c2.5 21.8-12.6 40.3-35.2 43.6-19.3 2.5-39.4-13.4-41.9-31.9C95.9 25.8 109.3 8.2 132 5.6c20.8-2.4 40.9 13.5 43.5 32.8" style="fill:#ff4649"/><path d="M248.4 261.6c-3.4 16.8-10.9 32.7-21 47-30.2 45.3-73.8 63.8-127.5 58.7-19.3-1.7-35.2-17.6-36.9-33.6-.8-6.7.8-11.7 5-16.8 5.9-7.6 10.9-14.3 13.4-23.5 5-18.5-1.7-33.6-15.1-47-18.5-18.5-15.9-35.2 5.9-48.7 2.5-1.7 5.9-3.4 9.2-5 5-2.5 9.2-2.5 10.9 3.4 7.6 19.3 22.7 33.6 39.4 45.3 5.9 5 5.9 8.4.8 14.3-10.1 10.9-15.9 24.3-16.8 39.4-1.7 18.5 9.2 30.2 27.7 30.2 11.7 0 22.7-4.2 32.7-9.2 26-13.4 46.1-32.7 65.4-52.9 2.8-.8 3.6-2.5 6.9-1.6M42.1 321.2C22 323.7 1.8 306.9.2 286c-1.7-20.1 15.1-40.3 34.4-41.9 21.8-2.5 41.9 12.6 43.6 32.7.8 19.2-11.8 42.7-36.1 44.4" style="fill:#0069da"/><path d="M265.2 222.2c-3.4 1.7-5-.8-5.9-3.4-31-57.9-21.8-130.9 32.7-174.5 14.3-11.7 41.1-14.3 52.9-2.5 5 4.2 5.9 9.2 6.7 15.1 1.7 12.6 4.2 25.2 12.6 35.2 9.2 10.9 21 15.1 34.4 14.3 11.7 0 23.5-1.7 31 11.7 4.2 7.6 2.5 36.9-4.2 42.8-3.4 2.5-5.9.8-8.4 0-19.3-7.6-39.4-7.6-59.6-4.2-6.7.8-10.1-.8-10.1-8.4-.8-12.6-3.4-24.3-10.1-35.2-12.6-22.7-36.1-23.5-51.2-2.5-12.6 16.8-15.9 36.9-19.3 57-3.2 17.6-2.3 36.1-1.5 54.6 0 0-.8 0 0 0M394.4 22.5c21-1.7 41.1 15.1 42.8 36.1 1.7 20.1-15.1 39.4-35.2 41.1-21.8 1.7-41.1-14.3-42.8-35.2-1.7-21 13.4-40.3 35.2-42" style="fill:#ffcb12"/></svg>