<svg xmlns="http://www.w3.org/2000/svg" xml:space="preserve" viewBox="0 0 512 512"><path d="m461.3 267 49.9 18.1c-7.2 62.8-37.6 123.1-90 167C312.8 543 151 528.9 60 420.5 10.1 361.3-8.1 286.1 3.3 215.2h-.1c.2-1.1.4-2.1.6-3.2.3-1.7.6-3.3.9-5 .4-2.2.9-4.4 1.4-6.6.4-1.6.7-3.3 1.1-4.9.5-2.3 1.1-4.5 1.8-6.7.4-1.6.8-3.1 1.3-4.7.7-2.4 1.4-4.7 2.2-7.1.5-1.4.9-2.8 1.4-4.2 1-2.8 2-5.5 3-8.3.4-.9.7-1.9 1-2.8 1.4-3.7 3-7.3 4.6-10.9.4-1 .9-1.9 1.4-2.9 1.2-2.6 2.5-5.3 3.8-7.9.7-1.3 1.4-2.6 2.1-4 1.2-2.2 2.3-4.4 3.6-6.6.8-1.4 1.7-2.8 2.5-4.2 1.2-2 2.4-4.1 3.7-6.1.9-1.4 1.8-2.9 2.8-4.3 1.3-1.9 2.6-3.9 3.9-5.8l3-4.2c1.4-1.9 2.8-3.8 4.2-5.6 1.1-1.4 2.1-2.7 3.2-4.1 1.5-1.9 3-3.7 4.6-5.5l3.3-3.9c1.7-1.9 3.4-3.7 5.1-5.5 1.1-1.2 2.2-2.4 3.3-3.5 1.9-2 4-3.9 6-5.8 1-.9 2-1.9 3-2.9 3.1-2.8 6.2-5.6 9.5-8.3C200.1-31 361.9-16.9 452.9 91.5c2.2 2.6 4.3 5.2 6.4 7.9.6.8 1.2 1.6 1.7 2.3 1.4 1.9 2.9 3.8 4.3 5.7.7 1 1.3 1.9 2 2.9 1.2 1.8 2.5 3.5 3.6 5.3.7 1.1 1.4 2.1 2 3.2 1.1 1.7 2.2 3.4 3.2 5.1.7 1.1 1.3 2.3 2 3.4 1 1.7 2 3.4 2.9 5.1.7 1.2 1.3 2.4 1.9 3.6.9 1.7 1.8 3.3 2.6 5 .6 1.2 1.2 2.5 1.8 3.8.8 1.7 1.6 3.3 2.4 5 .6 1.3 1.1 2.6 1.7 3.9.7 1.7 1.5 3.3 2.1 5 .5 1.3 1.1 2.7 1.6 4 .6 1.6 1.3 3.3 1.9 5 .5 1.4 1 2.7 1.4 4.1.6 1.6 1.2 3.3 1.7 4.9.5 1.4.9 2.8 1.3 4.2.5 1.6 1 3.3 1.5 4.9.4 1.4.8 2.9 1.2 4.3.4 1.6.9 3.3 1.3 4.9.4 1.5.7 2.9 1 4.4.4 1.6.7 3.2 1.1 4.9.3 1.5.6 3 .9 4.4.3 1.6.6 3.2.9 4.9.3 1.5.5 3 .7 4.5.2 1.6.5 3.2.7 4.8.2 1.5.4 3 .5 4.6.1 1.1.3 2.2.4 3.3.1 1 .2 2 .3 3.1l-157.3-60.1 58.9-49.4c-72.8-86.6-202.3-97.9-289.1-25.2q-4.05 3.3-7.8 6.9c-.9.8-1.8 1.7-2.6 2.6-1.6 1.5-3.2 3.1-4.7 4.6-1 1-2 2.1-2.9 3.2-1.3 1.4-2.7 2.9-4 4.3-1 1.1-2 2.3-2.9 3.5-1.2 1.4-2.4 2.8-3.6 4.3-1 1.2-1.9 2.5-2.8 3.7-1.1 1.4-2.2 2.8-3.2 4.3l-2.7 3.9c-1 1.5-2 2.9-3 4.4-.9 1.3-1.7 2.7-2.5 4l-2.7 4.5c-.8 1.4-1.5 2.8-2.3 4.1-.8 1.5-1.7 3-2.5 4.5l-2.1 4.2c-.7 1.5-1.5 3.1-2.2 4.6-.7 1.4-1.3 2.9-1.9 4.3-.7 1.6-1.4 3.1-2 4.7-.6 1.5-1.1 2.9-1.7 4.4-.6 1.6-1.2 3.2-1.7 4.8-.5 1.5-1 3-1.5 4.4l-1.5 4.8-1.2 4.5c-.4 1.6-.9 3.3-1.3 4.9-.4 1.5-.7 3-1 4.5-.4 1.6-.7 3.3-1 5-.3 1.5-.6 3-.8 4.6-.3 1.7-.6 3.3-.8 5-.2 1.5-.4 3.1-.6 4.6-6.7 54.4 8.4 111.3 46.4 156.6 72.8 86.6 202.3 97.9 289.1 25.2 45.2-38.2 70-91.5 72.9-146.1m-204.9 65.8c-42.5 0-76.9-34.4-76.9-76.8h-51.3c0 70.7 57.4 128 128.2 128s128.2-57.3 128.2-128h-51.3c.1 42.4-34.4 76.8-76.9 76.8" style="fill:#8989ef"/></svg>