<?xml version="1.0" encoding="utf-8"?>
<!-- Generator: Adobe Illustrator 28.2.0, SVG Export Plug-In . SVG Version: 6.00 Build 0)  -->
<svg version="1.1" id="Layer_1" xmlns="http://www.w3.org/2000/svg" xmlns:xlink="http://www.w3.org/1999/xlink" x="0px" y="0px"
	 viewBox="0 0 512 512" style="enable-background:new 0 0 512 512;" xml:space="preserve">
<style type="text/css">
	.st0{fill-rule:evenodd;clip-rule:evenodd;fill:#E25444;}
	.st1{fill-rule:evenodd;clip-rule:evenodd;fill:#7B1D13;}
	.st2{fill-rule:evenodd;clip-rule:evenodd;fill:#58150D;}
	.st3{fill:#58150D;}
</style>
<polygon class="st0" points="430.9,88.5 430.9,425.6 467.2,405.3 467.2,108.8 "/>
<polygon class="st1" points="253.9,108.8 253.9,138.4 254.1,138.4 254.1,380.2 253.9,380.3 253.9,405.3 430.9,425.6 430.9,88.5 "/>
<polygon class="st2" points="73.2,88.7 44.8,101.3 44.8,412.8 73.2,425.4 "/>
<path class="st0" d="M73.2,88.2l180.9,50.3v241.8L73.2,425.7V88.2z"/>
<path class="st3" d="M330.2,362.1l-76.1,19.1v0L178,362.1l76.2-14.1L330.2,362.1z M330.7,152.5L330.7,152.5l-76.8-21.3v-0.3
	l-76.2,21.5l-0.2,0.3l76.8,12.3l76.6-12.3L330.7,152.5z"/>
<path class="st1" d="M253.9,0l-76.8,40.5v112l77-21.7L253.9,0z M254.1,192.5l-76.7,8.3v111.8l76.7,8.8V192.5z M254.1,381.2
	l-76.7-19.2v109.9l76.7,40.1V381.2z"/>
<path class="st0" d="M330.8,361.9l-76.7,19.2V512l76.7-40.1V361.9z M254.1,192.5l76.7,8.3v111.8l-76.7,8.8V192.5z M253.9,0
	l76.8,40.5v112l-76.8-21.3V0z"/>
</svg>
