<svg xmlns="http://www.w3.org/2000/svg" xml:space="preserve" viewBox="0 0 512 512"><path d="m40.6 98.3 29-12.9v343.4l-29-12.9zm298.2-2.1V148l.2.2v8.1l-84.8 13.6h-.1v14.7l84.9 9.2v125.9l-84.9 9.7v13.7h.1l68.3 12.7 16.5 3.1V418l95.5 10.9V85.2zM178.6 38.1v108.3l72.2-20.3V0zM251 512V386l-72.1-18.1v106.3zm-60.2-147.4 63.2 15.9 63.2-15.9-63.1-11.7zM178.9 311l72.1 8.2V194.6l-72.1 7.8zm139.3-161.2-64.9-18-63.8 17.9 64.6 10.4z" style="opacity:.5;fill:#fff"/><path d="M471.4 105.9v302.4l-37 20.7V85.2zM169.2 382.8v-24l16.6-3.1 68.3-12.6v-13.7l-.8-.1-84.1-9.6V193.8l84.9-9.2v-14.7l-58.2-9.3-23.7-4-3.3-.6v-43.6L69.6 84.8V429l99.6-25.1zM329.1 38.1 256.9 0l.2 126.5 72 20zm.1 436.2V367.9L257.1 386v126zm0-163.3V202.5l-72.1-7.8v124.7z" style="fill:#fff"/></svg>