<svg xmlns="http://www.w3.org/2000/svg" xml:space="preserve" viewBox="0 0 512 512"><path d="M56.9 148.6c13.7 0 23.8 7.7 29.1 20.8h1.1c8.2-14 18.1-20.8 30.8-20.8 20.8 0 33.4 17.5 33.4 45.6v68.5c0 2.1-1.5 3.6-3.6 3.6h-22.2c-2.1 0-3.6-1.5-3.6-3.6v-66.3c0-13.4-5.3-20.9-15.1-20.9-10.8 0-16.5 8.7-16.5 24.8v62.4c0 2.1-1.5 3.6-3.6 3.6H64.5c-2.1 0-3.6-1.5-3.6-3.6v-66.3c0-13.4-5.3-20.9-15.1-20.9-10.8 0-16.5 8.7-16.5 24.8v62.4c0 2.1-1.5 3.6-3.6 3.6H3.6c-2.1 0-3.6-1.5-3.6-3.6v-108c0-2.1 1.5-3.6 3.6-3.6h18.3c2.1 0 3.4 1.4 3.9 3.6l2.8 13.6h1.1c4.9-12.7 14.5-19.7 27.2-19.7m202 6.1v108c0 2.1-1.5 3.6-3.6 3.6H237c-2.2 0-3.4-1.4-3.9-3.6l-2.8-13.6h-1.1c-5 12.9-14.7 19.7-27.7 19.7-20.8 0-33.5-17-33.5-44.9v-69.2c0-2.1 1.5-3.6 3.6-3.6h22.2c2.1 0 3.6 1.5 3.6 3.6v67c0 13.2 5.3 20.4 15.2 20.4 11.1 0 16.9-8.3 16.9-24.2v-63.1c0-2.1 1.5-3.6 3.6-3.6h22.2c2-.2 3.6 1.4 3.6 3.5m72.3 29c-1.4-7.6-7.2-12.1-15.1-12.1s-13.2 4.2-13.2 10.3c0 5.7 4.2 9.3 12.7 11.5l16.2 4c20.1 5 28.7 16.5 28.7 33.7 0 21.7-18.6 37.7-43.4 37.7-22.6 0-41.4-11.8-44.7-36.8-.3-2.2.8-3.7 3-4.2l19.1-3.6c2.5-.5 3.9.6 4.4 3.6 1.9 12.1 8.6 17.9 18.1 17.9 8.7 0 14.8-4.6 14.8-12 0-7.2-4.3-11.1-13.3-13.3l-12.1-2.9c-24.4-5.9-32.3-17.7-32.3-33.8 0-22.5 18.6-35.1 41.7-35.1 24 0 37.8 12.3 42 30.1.6 2.5-.3 4-2.8 4.4l-19.9 3.3c-2 .4-3.7-.5-3.9-2.7m57.6-76.1c9.4 0 17.2 6.4 17.2 17.2 0 10.5-7.8 17.2-17.2 17.2s-17.2-6.6-17.2-17.2c0-10.8 7.8-17.2 17.2-17.2m-14.7 155v-108c0-2.1 1.5-3.6 3.6-3.6h22.2c2.1 0 3.6 1.5 3.6 3.6v108c0 2.1-1.5 3.6-3.6 3.6h-22.2c-2.1 0-3.6-1.5-3.6-3.6m137.8-32.5c-5 24.9-23.3 38.6-44.6 38.6-28.5 0-49.9-25.9-49.9-60.1 0-34.1 21.3-60 49.9-60 21.3 0 39.6 13.7 44.6 38.6.4 2.4-.7 3.9-2.9 4.3l-20.1 3.6c-2.2.4-3.6-.6-4.2-2.9-3-14-9.1-20.2-17.5-20.2-12.7 0-19.4 13-19.4 36.6 0 23.7 6.6 36.7 19.4 36.7 8.3 0 14.4-6.2 17.5-20.2.6-2.4 1.9-3.3 4.2-2.9l20.1 3.6c2.2.4 3.3 1.9 2.9 4.3m-137.2 94c1.4 3.2 5.4 3.2 11.6 1.9 16.6-3.6 37.7-3.9 41.3 1.1 3.5 5.1-4.2 24.8-13.2 39.2-3.3 5.5-4.7 9-1.9 11.6.7.8 1.7 1.1 2.8 1.2 3.3 0 7.6-3.3 11.6-7.1 8.7-7.6 15.5-17.3 19.2-28.2 3.7-10.5 5.5-25.3 1.7-31-3.7-5.4-18.3-9-29.5-8.9-11.8 0-23.1 2.9-33.4 8.3-6.3 3.6-12.1 7.5-10.2 11.9m-307.3-5.8c1 2.9 3.2 6.5 6.5 10.7 42.5 52.4 110.9 75.4 177 75.4 57.8 0 113.6-17.4 149-48.2 6.1-5.4 9.3-9.7 9.3-13 0-1.4-.6-2.5-1.5-3.6-3-3.2-7.6-.8-13.2 2.1-33 17.3-83.6 29.2-137.5 29.2-60.8 0-125.9-15.1-175.2-54.8-4.7-3.7-9.8-7.5-13.3-4.7-1.2 1-2.4 3-1.1 6.9" style="fill:#25d1da"/></svg>