<?xml version="1.0" encoding="utf-8"?>
<!-- Generator: Adobe Illustrator 28.2.0, SVG Export Plug-In . SVG Version: 6.00 Build 0)  -->
<svg version="1.1" id="Layer_1" xmlns="http://www.w3.org/2000/svg" xmlns:xlink="http://www.w3.org/1999/xlink" x="0px" y="0px"
	 viewBox="0 0 512 512" style="enable-background:new 0 0 512 512;" xml:space="preserve">
<style type="text/css">
	.st0{fill-rule:evenodd;clip-rule:evenodd;fill:#FFFFFF;}
</style>
<path class="st0" d="M31.2,18.3l85,85l-12.9,12.9l-85-85v69.4H0V9.1C0,4.1,4.1,0,9.1,0h91.4v18.3H31.2z M512,9.1v91.4h-18.3V31.2
	l-85,85l-12.9-12.9l85-85h-69.4V0h91.4C507.9,0,512,4.1,512,9.1L512,9.1z M493.7,411.4H512v91.4c0,5-4.1,9.1-9.1,9.1h-91.4v-18.3
	h69.4l-85-85l12.9-12.9l85,85V411.4z M116.2,408.7l-85,85h69.4V512H9.1c-5.1,0-9.1-4.1-9.1-9.1v-91.4h18.3v69.4l85-85L116.2,408.7z
	 M256,110.5c-57.2,0-118.9,13.2-118.9,42.1v200.6c0,29.4,59.8,44.8,118.9,44.8s118.9-15.4,118.9-44.8V152.6
	C374.9,123.7,313.2,110.5,256,110.5z M356.6,353.1c0,9-35.5,26.5-100.6,26.5s-100.6-17.5-100.6-26.5v-37.7
	c22.2,13.1,61.6,19.8,100.8,19.8c39,0,78.2-6.7,100.3-19.8V353.1z M356.6,290.6c0,9.3-38.1,26.4-100.3,26.4
	c-62.6,0-100.8-17.1-100.8-26.4v-45c22.2,13.1,61.6,19.8,100.8,19.8c39,0,78.2-6.8,100.3-19.8V290.6z M356.6,220.8
	c0,9.3-38.1,26.4-100.3,26.4c-62.6,0-100.8-17.1-100.8-26.4v-44.4c22.5,12.4,62.5,18.3,100.6,18.3c38.1,0,78.1-5.9,100.6-18.3V220.8
	z M256,176.3c-65.3,0-100.6-16.9-100.6-23.8c0-6.9,35.2-23.8,100.6-23.8c65.3,0,100.6,16.9,100.6,23.8
	C356.6,159.5,321.3,176.3,256,176.3z M489.1,248.8c0-30.3-35-60.3-93.7-80.2l5.9-17.3c67.4,22.8,106.1,58.4,106.1,97.5
	c0,39.1-38.7,74.7-106.1,97.5l-5.9-17.3C454.1,309.1,489.1,279.2,489.1,248.8L489.1,248.8z M23.4,248.8c0,29.1,32.8,58.3,87.7,78.1
	l-6.2,17.2c-63.4-22.9-99.8-57.6-99.8-95.3c0-37.7,36.4-72.4,99.8-95.3l6.2,17.2C56.2,190.6,23.4,219.7,23.4,248.8L23.4,248.8z"/>
</svg>
