<?xml version="1.0" encoding="utf-8"?>
<!-- Generator: Adobe Illustrator 28.2.0, SVG Export Plug-In . SVG Version: 6.00 Build 0)  -->
<svg version="1.1"
	 id="Layer_1" xmlns:rdf="http://www.w3.org/1999/02/22-rdf-syntax-ns#" xmlns:svg="http://www.w3.org/2000/svg" xmlns:sodipodi="http://sodipodi.sourceforge.net/DTD/sodipodi-0.dtd" xmlns:dc="http://purl.org/dc/elements/1.1/" xmlns:inkscape="http://www.inkscape.org/namespaces/inkscape" xmlns:cc="http://creativecommons.org/ns#" sodipodi:docname="Amazon Music.svg"
	 xmlns="http://www.w3.org/2000/svg" xmlns:xlink="http://www.w3.org/1999/xlink" x="0px" y="0px" viewBox="0 0 512 512"
	 style="enable-background:new 0 0 512 512;" xml:space="preserve">
<path d="M340.3,235.9c-3.5,2.3-8.6,4-15,4c-9.8,0-19-1.2-28.2-4c-2.3-0.6-4-1.2-5.2-1.2c-1.7,0-2.3,1.2-2.3,3.5v5.8
	c0,1.7,0.6,2.9,1.2,4c0.6,0.6,1.7,1.7,3.5,2.3c9.2,4,19.6,5.8,31.1,5.8c12.1,0,21.3-2.9,28.8-8.6s10.9-13.2,10.9-23
	c0-6.9-1.7-12.1-5.2-16.7c-3.5-4-9.2-8.1-17.3-10.9l-16.1-6.3c-6.3-2.3-10.9-4.6-12.7-6.9c-2.3-2.3-3.5-4.6-3.5-8.6
	c0-8.6,6.3-13.2,19.6-13.2c7.5,0,15,1.2,21.9,3.5c2.3,0.6,4,1.2,4.6,1.2c1.7,0,2.9-1.2,2.9-3.5v-5.8c0-1.7-0.6-2.9-1.2-4
	c-0.6-1.2-1.7-1.7-3.5-2.3c-8.6-2.9-17.3-4.6-25.9-4.6c-10.9,0-20.1,2.9-27,8.1s-10.2,12.3-10.2,21c0,13.2,7.5,23,22.4,28.8
	l17.3,6.3c5.8,2.3,9.2,4,11.5,6.3s2.9,4.6,2.9,8.1C345.5,229.5,343.8,233.6,340.3,235.9z M250,153v76.5c-9.8,6.3-19.6,9.8-29.3,9.8
	c-6.3,0-10.9-1.7-13.8-5.2c-2.9-3.5-4-8.6-4-16.1v-65c0-2.9-1.2-4-4-4h-12.1c-2.9,0-4,1.2-4,4v71.3c0,9.8,2.3,17.8,7.5,23
	s12.7,8.1,22.4,8.1c13.2,0,26.5-4.6,39.1-13.8l1.2,6.9c0,1.7,0.6,2.3,1.7,2.9c0.6,0.6,1.7,0.6,3.5,0.6h8.6c2.9,0,4-1.2,4-4v-95
	c0-2.9-1.2-4-4-4h-12.1C251.2,149,250,150.7,250,153z M140.8,252.5h12.1c2.9,0,4-1.2,4-4v-71.9c0-9.8-2.3-17.3-7.5-22.4
	c-5.2-5.2-12.1-8.1-21.9-8.1c-13.2,0-27,4.6-40.3,14.4c-4.6-9.8-13.2-14.4-25.9-14.4s-25.3,4.6-38,13.2l-1.2-6.3
	c0-1.7-0.6-2.3-1.7-2.9c-0.6-0.6-1.7-0.6-2.9-0.6h-9c-2.9,0-4,1.2-4,4V249c0,2.9,1.2,4,4,4h12c2.9,0,4-1.2,4-4v-77.6
	c9.8-5.8,19.6-9.2,29.9-9.2c5.8,0,9.8,1.7,12.1,5.2s4,8.1,4,15v66.1c0,2.9,1.2,4,4,4h12.1c2.9,0,4-1.2,4-4v-70.7v-3.5
	c0-1.2,0-2.3,0-2.9c10.4-6.3,20.1-9.2,29.9-9.2c5.8,0,9.8,1.7,12.1,5.2s4,8.1,4,15v66.1C136.7,251.4,137.9,252.5,140.8,252.5z
	 M454.2,329c-62.7,26.5-131.1,39.7-193.3,39.7c-92,0-181.2-25.3-253.1-67.3c-1.2-0.6-2.3-1.2-3.5-1.2c-4,0-6.3,4.6-2.3,8.6
	c66.7,60.4,155.3,96.6,253.1,96.6c70.2,0,151.3-21.9,207.1-63.3C472.1,335.4,464,325,454.2,329z M452.5,172
	c5.2-5.8,13.2-8.6,24.7-8.6c5.8,0,11.5,0.6,16.7,2.3c1.7,0.6,2.3,0.6,3.5,0.6c1.7,0,2.9-1.2,2.9-4v-5.8c0-1.7-0.6-3.5-1.2-4
	c-0.6-0.6-1.7-1.7-2.9-2.3c-7.5-1.7-15-3.5-21.9-3.5c-16.1,0-28.2,4.6-37.4,14.4c-8.6,9.2-13.2,23-13.2,40.3s4,30.5,12.7,39.7
	c8.6,9.2,20.7,13.8,36.8,13.8c8.6,0,16.7-1.2,23-4c1.7-0.6,2.9-1.2,3.5-2.3c0.6-0.6,0.6-2.3,0.6-4v-5.8c0-2.9-1.2-4-2.9-4
	c-0.6,0-1.7,0-2.9,0.6c-6.3,1.7-12.7,2.9-18.4,2.9c-10.9,0-19-2.9-24.2-8.6c-5.2-5.8-7.5-15-7.5-27v-2.9
	C445,187,447.3,177.8,452.5,172z M478.4,383.1c29.9-25.3,38-77.6,31.6-85.7c-2.9-3.5-16.7-6.9-33.9-6.9c-18.4,0-40.3,4-56.9,15.5
	c-5.2,3.5-4,8.1,1.2,7.5c17.8-2.3,58.1-6.9,65.6,2.3c6.9,9.2-8.1,47.2-15,63.8C469.2,384.8,473.2,386.6,478.4,383.1z M398.4,149
	h-12.1c-2.9,0-4,1.2-4,4v95.5c0,2.9,1.2,4,4,4h12.1c2.9,0,4-1.2,4-4V153C402.5,150.7,401.3,149,398.4,149z M401.9,109.9
	c-2.3-2.3-5.8-3.5-9.8-3.5s-6.9,1.2-9.2,3.5c-2.3,2.3-3.5,5.2-3.5,8.6s1.2,6.9,3.5,8.6c2.3,2.3,5.2,3.5,9.2,3.5s6.9-1.2,9.2-3.5
	c2.3-2.3,3.5-5.2,3.5-8.6S404.2,111.6,401.9,109.9z"/>
</svg>
