<svg xmlns="http://www.w3.org/2000/svg" xml:space="preserve" viewBox="0 0 512 512"><path d="M225.3 511.7c-47.4-3.8-84.6-13.6-121.1-32.1-24.9-12.6-40.9-23.9-58.1-41.3-13.4-13.5-20.2-22.4-21.5-28.6-1.1-5 .9-8.1 5.4-8.1 2.9 0 7.7 2.7 15.8 9.1 35.4 27.6 84.9 47.6 139.8 56.5 51.2 8.3 103.2 7.3 156-3.1 17.2-3.4 32.5-7.4 48.1-12.6 11.8-3.9 19.4-7.1 31.4-13 7.9-3.9 10.4-4.8 13-5 3-.2 3.3-.2 4.9 1.6 2.5 2.7 2.4 6.2-.3 10.3-2.5 3.7-6.9 8.2-13.4 13.4-33.5 27-87.9 46.3-146.3 52-10.5 1.1-44.5 1.6-53.7.9m219-31.9c-3.3-2.9-2.8-6.1 2.7-15.1 7.3-12 13.4-26.6 14.9-35.5 1.3-7.5-.6-9.9-8.9-11.3-7.8-1.4-25.8-.4-37.2 2-2.1.4-5.9.8-8.4.8-4.1 0-4.7-.1-5.9-1.3-.7-.7-1.4-2.3-1.6-3.5-.3-1.9-.1-2.5 1.5-4.3 2.5-2.9 7.4-6.1 14.1-9.3 11.6-5.5 21.8-7.8 34.9-7.8 16.9 0 30.4 4.1 34.9 10.5 1.7 2.4 1.7 2.6 1.9 10.3.1 5.8 0 9.3-.7 12.9-2.2 12-8.4 25.7-15.5 34.6-4.6 5.7-14.9 15.2-18.6 17-4.1 2.1-5.8 2.1-8.1 0m-237.9-124c-14-2.7-25.8-16.8-30.5-36.5-3.2-13.5-3.4-32.9-.5-46.5 3.9-18 12.6-31 24.4-36.5 15-7 30.6-2.7 39.9 11.1 1.5 2.3 3 4 3.3 3.8s.5-10.2.5-25.4c0-24.6 0-25.1 1.1-26.2s1.7-1.1 14.2-1c9.5.1 13.3.4 13.8.9 1.3 1.3 1.5 12.7 1.2 82.5l-.2 69.2-1.2 1.3c-1.1 1.2-1.5 1.3-11.6 1.3-5.8 0-10.9-.2-11.4-.3-1.5-.6-2.4-3-3.7-10.1-.7-3.8-1.4-6.8-1.6-6.8s-1.1 1.4-2 3.2c-2.4 4.8-9.1 11.1-14.3 13.7-2.3 1.1-5.6 2.3-7.2 2.6-3.6.5-10.4.4-14.2-.3m24.5-26.4c9.1-4.4 13.9-19 12.9-38.8-.9-18-6.2-28.4-15.7-31-3.1-.8-4.1-.9-6.7-.3-9 2-14.1 10.2-15.9 25.7-1.1 9.6-.5 20.9 1.7 28.9 2.2 8.1 5.9 13.3 11.1 15.7 3.2 1.5 9.2 1.4 12.6-.2m99.7 26.3c-5.5-1.2-9.4-2.6-14.1-5.3-13.4-7.7-22.9-22.6-25.9-40.6-1.2-7.4-1.2-21.1 0-28.4 2.8-17.3 12.3-32.9 24.9-41 6.6-4.3 17.1-7.3 25.2-7.3 4.7 0 12.4 1.5 17 3.3 11.1 4.3 20.9 14.6 26.5 27.8 3.7 8.8 5.3 17.1 5.4 28.8.1 7.9 0 8.8-1 9.9-1.1 1.2-1.2 1.2-33.9 1.2h-32.9v1.9c0 3.4 1.6 10.2 3.3 14.4 2.1 5.1 4.8 8.4 8.6 10.3 3.9 2 10.4 2.1 14.7.2 3.5-1.5 7.5-5.7 8.7-9.1.5-1.3 1.2-3.4 1.6-4.6.7-2 1-2.3 2.8-2.4 2.5-.2 22.6 4.2 24.4 5.3 1.8 1.2 1.4 3.7-1.7 10.3s-8.2 13-13.4 16.9c-8.7 6.5-15.8 8.8-28.1 9.1-5.8 0-9.7-.2-12.1-.7m27.2-72.3c.6-.4.6-1.4-.2-5.4-1.8-9.8-5.7-16.5-11.1-19-8.3-3.9-17.6 1.1-21.6 11.5-1.9 4.8-3.3 12.1-2.6 12.8.8.7 34.4.8 35.5.1m84 72.2c-13.9-3.2-26.5-13.7-33.9-28.1-2.4-4.8-5.3-14.4-6.2-20.4-3.4-23.8 3.4-46.7 17.7-60.4 7.5-7.1 14.2-10.8 23.2-12.6 31.5-6.3 58.6 19.4 60.3 57.3.7 15.8-3.1 30.9-10.8 42.5-6.4 9.7-16.5 17.4-27.3 20.8-5 1.7-17.6 2.1-23 .9m16.9-25.2c5.1-2.6 9-8.8 11.1-17.6 1-4.4 1.2-6.8 1.2-17.7 0-10.1-.2-13.4-1-16.7-2.9-12.2-7.7-18.5-15.2-20.1-9.9-2-17.7 5.3-20.6 19.3-3.5 17-1.4 37.9 4.7 47.2 1.7 2.6 5.7 5.8 8.3 6.7 2.5.7 9 .1 11.5-1.1M40 352.6c-1.1-1.2-1.6-2.8-5.1-15.4-1.8-6.7-3.7-13.4-5.6-20.1-2.8-10-5.6-20.1-8.4-30.1-3.5-12.8-7.1-25.5-10.7-38.3-1.4-4.8-2.5-9.2-2.5-9.9 0-2.6 1.5-2.9 15.7-2.9 11.9 0 13.3.1 14.4 1 1 .8 1.9 4.1 5.6 20.8 4.4 20 5.9 26.5 7.8 35.2 2.9 12.6 6.1 28 6.1 28.9 0 1.7.9 0 1.6-3.2s2.2-9.9 9.2-41.9c7.4-33.7 8.6-38.6 9.5-39.6.8-.8 2.8-.9 14.2-1.1 14.2-.2 15.9.1 16.2 2.5.2 1.1-1.8 8.3-10.3 38.5-4 14.5-8.1 29.1-12 43.7-1.9 7.1-3.4 12.3-7.8 27.5-.6 2.1-1.5 4.1-1.9 4.6-.7.7-3.3.9-18 .9-16 0-17.1-.1-18-1.1m87.1-.1-1.5-1.2.1-56.6c.1-53.5.2-56.7 1.1-57.6s2.4-1 13.5-1.2c10.5-.1 12.8 0 14.2.7l1.7.9v56.3c0 40.5-.2 56.7-.6 57.7-.3.8-1.2 1.5-1.8 1.7-.7.2-6.6.3-13.3.3-11.2.2-12 .1-13.4-1m8.8-125.5c-5-1.3-9.9-5.9-11.6-10.8-1.1-3.4-1.2-8.8-.1-12.5 1-3.4 4.9-8 8.3-9.8 3.5-1.8 12.1-2.1 15.7-.5 4.2 1.8 6.8 4.3 8.7 8 1.5 3.1 1.7 3.9 1.7 8.5 0 5.9-1.1 8.8-4.3 12.2-3.3 3.4-6.8 4.9-12.1 5.2-2.5.1-5.3-.1-6.3-.3M3.1 198.1c-.8-.2-1.5-.6-2.1-1.1-.9-.8-1-5.1-1-75.7C0 80 .2 46 .5 45.7c1.1-1.6 3.1-1.9 12.9-1.9 5.5 0 10.4.2 10.9.3 1.4.5 1.9 1.9 3.4 9.3.8 3.8 1.6 7 1.8 7.2s1.2-1 2.1-2.8c1.9-3.8 7.8-9.9 11.7-12.1 6.7-3.9 14.2-5.4 21.4-4.2 16.9 2.6 28.7 17.1 34 41.7 1.3 6.1 1.6 26.9.6 34.9-1.9 14.1-7.3 27.2-14.3 34.8-7.2 7.7-13.6 10.9-22.9 11.4-6.6.4-10.9-.4-15.9-2.9-4.5-2.2-9.7-7.1-12.9-12.1-1.2-1.8-2.3-3.3-2.5-3.3s-.4 10.9-.4 24.2c0 13.6-.2 24.8-.5 25.6-.8 2.2-3.2 2.6-14.8 2.6-6.1 0-11.4-.2-12-.3m51.4-60.3c4.1-1.4 8-5.5 10.1-10.8 2.5-5.9 3.6-11.9 3.9-21.2.6-16.2-3.1-30.1-9.4-35.4-2-1.7-7.2-3.7-9.6-3.7-12.1 0-19.9 13.9-19.9 35.4 0 15.3 3.1 26.3 8.9 32.2 4.3 4.1 10.2 5.5 16 3.5m399.8 26.1c-19.3-3.5-34.4-18.5-39.7-39.4-7.1-28.3.7-58 19.1-72.9 17.4-14 42.4-14 58.4.1 7 6.1 11 12 14.9 21.4 3.2 7.8 4.5 14.5 4.9 25.3.2 5 .1 9.7 0 10.4-.8 3.3.9 3.2-34.7 3.2-17.9 0-32.7.2-32.9.5-.6 1 1.4 10.9 3.1 15.3 2.2 5.8 6.4 10.3 10.8 11.6 9.5 2.7 18.4-1.5 21.4-10.2 2.1-5.9 2.4-6.3 4.7-6.5 1.7-.1 14.5 2.4 22.3 4.4 3.2.8 3.5 2.4 1.5 7.6-2.4 6.1-5.3 10.9-9.4 15.3-9.1 9.7-18.9 13.8-33.8 14.2-4.4.1-9.1-.1-10.6-.3m26.4-73.8c0-5.6-3.6-16-6.9-19.9-2.3-2.7-6.7-4.7-10.4-4.6-5.9 0-10.4 2.8-13.7 8.4-2.1 3.7-4.5 10.7-5.1 15l-.4 2.8h36.4zM116 160.5l-1.5-1.2v-56.8c0-52.1.1-56.9.9-57.6 1.2-1 20.8-1.4 23.1-.5 1.9.8 2.5 2.1 3.9 9.8.6 3.4 1.3 6.3 1.5 6.5s1.3-1.3 2.3-3.3c2.4-4.6 8.1-10.6 12-12.6 6.5-3.3 16-4.2 23.3-2.1 4.6 1.3 6.5 2.9 6.5 5.5 0 1.9-3.7 17.5-5.4 22.6-1.3 3.9-2.1 4.1-7.6 2-6.5-2.4-9.8-3.3-12.9-3.3-8.4 0-13.7 4.4-16.4 13.7-.9 2.9-1 7.4-1.3 40-.2 29-.5 36.8-1 37.4-.5.5-3.9.8-13.4.9-12 .2-12.6.1-14-1m82.5.6c-.6-.3-1.3-.9-1.5-1.3-.2-.6-.6-102.4-.4-112.7.1-2.9 1.8-3.2 15.8-3.2 13.8 0 14.1.1 14.4 3.6.1.9.1 26.5.1 56.8-.1 54.3-.1 55.2-1.2 56.3s-1.8 1.1-13.5 1.1c-7-.1-13.1-.4-13.7-.6m49-.1c-.7-.3-1.5-1.2-1.8-2-.3-.9-.5-21.9-.5-57.1 0-47.2.1-55.9.8-56.8.7-1 1.7-1.1 11.5-1.3 7.2-.1 11.2 0 12.2.5 1.7.7 1.9 1.3 3.9 11.3.5 2.7 1.1 5 1.3 5.2s1.2-1.4 2.3-3.5c3.5-7 9.3-12.2 16.3-14.7 2.6-1 4.6-1.2 9.7-1.3 6.8-.1 9.6.6 15.3 3.5 3.8 1.9 9.7 7.9 12.2 12.5 1.2 2.1 2.3 3.8 2.5 3.8s1.2-1.2 2.2-2.7c5.2-7.6 12.7-13.6 19.9-15.9 5.7-1.8 14.7-1.8 20 .1 11.4 3.9 18.2 12.4 22.4 28.2 1.2 4.4 1.2 5.7 1.4 46.4.2 36.1.1 42-.6 43-.8 1.1-1.6 1.1-13.6 1.3-12.2.2-12.8.1-14.3-1l-1.5-1.2-.2-37.8c-.2-37.3-.2-37.9-1.4-41.5-2.5-7.5-6.6-10.7-13.5-10.8-7-.1-12 3.7-14.6 11.1-1.9 5.3-2.2 12-2.2 45.9 0 32.3 0 33.1-1.1 34.2-1 1-1.9 1.1-13.4 1.1-12.6 0-14-.2-15-2.2-.4-.7-.6-12.7-.6-36.1 0-35.1-.2-39.3-2-45-2.6-8.1-12.5-11.5-20.4-7.2-5.1 2.8-7.8 8.5-8.8 18.6-.3 2.9-.5 19.8-.5 37.5v32.2l-1.2 1.1c-1.2 1.1-1.9 1.1-13.3 1.1-6.7.1-12.7-.2-13.4-.5M206.6 34.9c-4.9-1.5-9.2-5.3-11.3-9.8-1.8-3.9-1.8-11.1 0-15.1 1.6-3.6 5.1-7.1 8.7-8.7 4-1.8 11.1-1.7 15.2.1 4 1.7 8 6.2 9.3 10.4 1.3 4.3.9 10.2-1 14.4-1.7 3.7-5.9 7.2-10 8.4-2.9.9-8.5 1-10.9.3" style="fill:#fff"/></svg>