<svg xmlns="http://www.w3.org/2000/svg" xml:space="preserve" viewBox="0 0 512 512"><path d="M249.7 407.3c-22.2-.5-44.3-3.7-65.7-9.3-20.1-5.2-39.4-13-57.4-23.2-19.2-10.7-36.5-24.7-51-41.3-6.2-7.1-9.6-11.8-11.2-15.7-.6-1.2-.9-2.6-1-3.9-.1-2.5.7-4.1 2.6-5 .7-.4.8-.4 2.1-.4.7 0 1.4 0 2.1.3 2.3.7 5.1 2.5 8.8 5.5 12.8 10.4 26.7 19.3 41.4 26.7 16.4 8.3 32.5 14.3 52.7 19.6 22.8 6 46.2 9.6 69.8 10.9 8.1.5 10.4.5 21.1.5 11.8 0 17.1-.2 26.9-.8 40.2-2.8 79.9-12.1 109.5-25.8 2.4-1.1 4.7-2.3 7-3.4 5-2.5 6.3-3.1 8.4-3.9 2.9-1 4.9-.7 6.6 1.1 1.1 1.1 1.7 2.7 1.6 4.3-.6 4.6-6.6 11.2-18.2 19.9-27.7 20.9-66.1 35.5-108.4 41.3-9.7 1.3-19.5 2.2-29.3 2.5-6.2.2-12.3.2-18.4.1m179.5-26.6q-1.95-.75-3-2.7c-.9-1.9-.6-3.5 1.2-7.1 1.1-2.2 2.2-4.3 3.5-6.3 4.6-7.6 9.2-17.7 11.3-25 2.2-7.3 2.4-11.4.9-13.8-1.3-2-5.6-3.3-12.6-3.7-2.7-.2-11.5-.1-14.1.2-5.8.5-9.9 1.1-15.3 2.2-3.9.8-4.6.9-7.4.9-2.7 0-3.2-.1-4.3-.6-1.7-.9-2.6-2.7-2.3-4.6.3-1.5 1.3-3 3.1-4.5 4.7-3.9 11.9-7.7 19.9-10.3 8.3-2.8 17.1-4 25.8-3.7 5 .2 10 .9 14.8 2.2 7.9 2 12.7 4.7 14.4 7.9 1.3 2.5 1.8 5 1.7 9.3-.1 7.4-1.3 14.7-3.7 21.7-3.4 10.5-9.4 20-17.4 27.7-5.9 5.8-10 8.9-13.3 10-1 .3-2.1.4-3.2.2m-426.7-81c-.9-.4-1.7-1.1-2.2-2l-.3-.5v-73c0-66.1 0-73 .1-73.6.2-.8 1.1-1.8 2-2.2l.6-.3h20.1l.5.2c.8.4 1.5 1.1 1.9 1.9.4.9.5 1.4 2.1 9.4l1.1 5.6h1.1l.5-1.1c1.2-2.5 2.6-4.9 4.3-7 2.1-2.5 4.6-4.7 7.3-6.6 7.1-4.8 15.9-6.4 24.3-4.5 8.5 1.9 16.1 7.5 21.7 16 5.4 8.2 9.1 20 10.3 32.3.4 3.7.4 4.7.5 10 .2 5.2-.1 10.4-.7 15.6-1.8 14.2-6.6 26.5-13.6 34.6-1.6 1.8-3.3 3.4-5.1 5-4.4 3.5-9.7 5.8-15.2 6.7-2.2.3-7.4.4-9.5.1-8.1-1.2-14.2-5-19.5-12.1-1.5-2-2.8-4.1-4-6.3-.3-.5-.3-.5-.9-.5h-.6v49.8l-.3.6c-.5.8-1.2 1.5-2 1.8-.5.2-1.8.2-12.3.2-9.6 0-11.9 0-12.2-.1m49.3-58.2c4.2-.8 7.6-3.2 10.2-7.3 3.3-5.1 5.3-12.6 5.9-22.4.2-2.9.1-11.7-.2-14.2-.5-5.3-1.3-9.7-2.6-13.2-2.8-8.2-7.2-12.8-13.4-14-2.1-.3-4.3-.3-6.4 0-5.1 1-9 4.3-11.8 9.9-1.6 3.3-2.8 6.8-3.4 10.4-1.4 7.2-1.7 18.2-.6 26.6.9 7.1 2.8 12.9 5.6 17.1 3 4.4 6.7 6.8 11.6 7.3 1.3.1 3.8 0 5.1-.2m408.8 24.9-1.7-.2c-8.3-.7-16.3-3.8-23-8.7-3.2-2.5-6.2-5.3-8.7-8.4-7.1-9-11.5-20.4-12.8-33.3-.3-3.4-.4-5.6-.4-10.3 0-4.5.4-9 1.1-13.4 4.1-23.6 19.1-41.3 38.7-45.6 3.6-.8 6.4-1.1 10.5-1.1 5.5-.1 10.9.9 16.1 2.9 2 .8 3.9 1.7 5.7 2.8 6 3.6 11.1 8.4 15 14.2 4.7 7.1 7.9 15.1 9.5 23.4 1.1 5.7 1.6 10.8 1.5 18.6 0 4.7 0 4.8-.3 5.3-.5 1-1.4 1.7-2.5 1.9-.5.1-6.4.2-32.6.2h-32l.1.8c.9 9.6 2.6 15.8 5.7 20.5 2.6 3.9 5.8 6.1 10 7 1.4.3 4.6.4 6.2.2 4.4-.5 7.6-2 10.3-4.8 2.2-2.3 3.6-5.1 4.7-9 .5-2 .7-2.3 1.2-2.9.6-.6 1.2-.9 2.1-.9 1 0 22 4.7 22.9 5.1 1.1.5 1.7 1.6 1.6 2.8-.2 1.7-2.8 7.6-4.7 11.1-4.2 7.4-10.4 13.3-18 17.1-5.2 2.5-10.8 4.1-16.5 4.6-1.6.1-8.5.2-9.7.1m21.3-72.1c-.1-1.6-.6-4.7-1-6.6-1.8-8.8-5.4-14.9-10.3-17.5-4.1-2-8.9-2.1-13.1 0-1.6.8-3 1.9-4.2 3.1q-2.25 2.1-3.6 4.8c-2.1 3.8-3.7 8.9-4.6 14.9-.1.8-.2 1.6-.2 1.8v.3h37zM117 263.4c-.9-.4-1.6-1.2-2-2.1-.2-.5-.2-5.3-.2-55.5 0-49.7 0-55 .2-55.5.3-.8.9-1.5 1.7-1.8l.7-.3h9.7c10.1 0 10.6 0 11.5.4.6.3 1.4 1.2 1.6 2 .1.4.9 3.7 1.6 7.5l1.4 7.1c.1.2.1.3.6.2h.6l.6-1.3c1.2-2.8 2.8-5.5 4.7-7.9 1.1-1.3 3.3-3.6 4.7-4.6 5.2-4 10.7-5.8 17.6-5.8 4.7 0 8.8.8 12.6 2.4 1.2.5 1.9 1.1 2.3 1.8.3.5.3.7.3 1.8 0 1.2 0 1.3-2.8 12.3-1.5 6.1-2.8 11.3-2.9 11.6-.2.6-.8 1.2-1.4 1.4-.4.1-.8.2-1.2.2-.9 0-1 0-4.9-1.6-4-1.6-7-2.6-9.4-2.9-2-.2-4.1-.2-6.1 0-2 .3-4 1-5.7 2.1-1.3.8-3.4 2.9-4.4 4.4-2.7 4.1-3.9 8.8-4.2 16.2-.1 1.5-.1 16.9-.1 34.1 0 34.8.1 31.8-.7 32.9-.3.4-.6.6-1 .8l-.7.3h-24.2zm82.8.1c-1.1-.3-1.8-1-2.1-2-.2-.5-.2-3.1-.2-55.7v-55.1l.3-.6c.4-.8.9-1.3 1.7-1.7l.6-.3h11.7c12.2 0 12.7 0 13.6.4.6.3 1 .8 1.3 1.4.2.4.2 3.3.2 55.7 0 50.4 0 55.3-.1 55.9-.1.5-.4.9-.8 1.2-1.1 1.1-.1 1-13.7 1-9.4 0-12.2 0-12.5-.2m50 0c-.9-.3-1.7-1.1-2.2-2l-.3-.5V150.6l.3-.6c.3-.7.9-1.3 1.7-1.6l.6-.3H260c9.4 0 10.2 0 10.6.2 1 .4 1.8 1.2 2.1 2.2.2.5 1.2 5.1 3 14.2l.1.6h1.2l.4-1c.8-1.9 1.7-3.7 2.8-5.5 4.5-7.2 11-11.7 18.9-13 5.2-.9 11.1-.5 15.9 1.2 6.3 2.2 11.5 6.4 15.4 12.6 1 1.6 1.8 3.3 2.6 5l.3.7h1.1l.9-1.4c4-6.1 8.9-11.2 13.8-14.1 6.5-3.8 14.1-5.3 21.6-4.1 7.6 1.1 14.5 5.2 19 11.4 1.3 1.8 2.4 3.5 3.5 5.8 2.9 5.8 4.7 12.5 5.4 20.2.4 4 .4 7.1.4 42.7V261l-.3.6c-.3.7-.8 1.3-1.6 1.7l-.6.3h-24.3l-.5-.3c-.7-.4-1.3-1-1.7-1.7l-.3-.6-.1-35.6c-.1-37.8 0-36-.6-39-1.1-6.4-3.9-10.8-8.2-12.9-2.1-1-4.2-1.4-7.1-1.3-4.1.1-7.2 1.4-9.8 4-3.1 3.1-4.9 7.7-5.8 14.7-.2 1.4-.2 4.7-.2 35.7l-.1 34.2-.3.6c-.3.7-.8 1.3-1.6 1.7l-.6.3H311l-.6-.3c-.7-.4-1.3-1-1.7-1.7l-.3-.5-.1-35.6c-.1-37.8 0-36-.6-39-1.1-6.4-3.9-10.8-8.2-12.9-2.1-1-4.2-1.4-7.1-1.3-4.1.1-7.2 1.4-9.8 4-3.1 3.1-4.9 7.7-5.8 14.7-.2 1.4-.2 4.7-.2 35.7l-.1 34.2-.3.6c-.3.7-.8 1.3-1.6 1.7l-.6.3h-12c-9.4.4-11.9.4-12.2.2M209.9 139c-4-.5-7.7-2.3-10.4-5.2-2.1-2.2-3.6-5-4.1-8-.3-1.7-.4-4.9-.2-6.8.7-5 2.9-8.8 6.9-11.4 5.7-3.8 14.1-3.9 19.8-.3 2.2 1.4 4 3.3 5.4 5.5 2.4 4 2.9 10.3 1.2 15.3-1.6 4.5-5.1 8.1-9.5 9.8-2.7 1-6.1 1.4-9.1 1.1"/></svg>