<svg xmlns="http://www.w3.org/2000/svg" xml:space="preserve" id="ambys_svg__DESIGN" x="0" y="0" version="1.1" viewBox="0 0 512 512"><style>.ambys_svg__st0{fill:#2e1d49}.ambys_svg__st4{fill:#fff}</style><path id="ambys_svg__path9" d="M470.2 281.3c4.5-1.6 8.9-3.5 13.1-5.7 6.6-3.4 12.6-8 17.7-13.5 4.2-4.5 7.4-9.8 9.5-15.6 2.1-6 2.1-12.5 0-18.4-3.8-10.9-15.2-17.1-26.4-14.5q-4.05.9-7.8 2.7c-2.9 1.5-5.8 3.1-8.6 4.8-2.9 1.8-5.8 3.4-8.7 4.9-.1-.1-.2-.3-.3-.4-1.1-1.6-2.5-3-4.1-4.1 1.8-1.2 3.5-2.7 4.9-4.4 3.3-3.8 4.8-8.8 4.3-13.9 1.3-.8 2.6-1.7 3.9-2.6 5.1-3.5 9.5-7.8 13.2-12.7 5.2-7.4 7.6-14.8 7.2-22.6-.1-2.7-.6-5.4-1.5-8-3.9-12.2-16.9-19-29.1-15.1-1.3.4-2.6 1-3.8 1.6-4.1 2.2-8 5-11.3 8.3-1.9 1.8-3.9 3.6-5.8 5.4-.6.6-1.3 1.2-1.9 1.8-4.2-2.9-9.5-4.1-14.5-3.2-1.9.3-3.8.9-5.6 1.7-3 1.3-5.8 3.2-8.1 5.5q-4.05 4.05-7.5 8.7c-.7.9-1.4 1.9-2.1 2.8-.2.2-.3.4-.5.6-1.7-.4-3.5-.6-5.2-.5-3.9.1-7.8 1.3-11.1 3.4-2.3 1.4-4.5 3.1-6.5 5q-3-3.75-6.3-7.2c-4.3-4.6-9-8.8-14-12.7-16.1-12.8-34.7-22.1-54.5-27.3-10.9-2.9-21.9-4.9-33.1-5.9-5.7-.5-11.5-.6-17.2-.1-8.5.7-16.9 1.9-25.2 3.7-18 3.9-33.8 10-48 18.6-13.7 8.2-25.9 18.7-36.1 30.9-2-1.9-4.2-3.6-6.7-5-3.5-2.2-7.5-3.3-11.7-3.3q-2.25 0-4.5.6c-1.4-1.9-2.9-3.8-4.3-5.7-2.8-3.6-5.9-7.4-10.9-10.4-3.6-2.3-7.8-3.5-12.1-3.4-3.9 0-7.8 1.2-11 3.5l-.4-.3-9-8.4c-3-2.8-6.4-5.2-10-7a22.98 22.98 0 0 0-31 10.1c-.5 1-1 2.1-1.3 3.2-2.5 7.2-2.3 15 .6 22.1 2.5 6.3 6.5 12 11.6 16.5 3.2 2.9 6.7 5.5 10.3 7.8-.5 6.5 2.3 12.8 7.4 16.9.6.5 1.2.9 1.8 1.3-1.7 1.2-3.2 2.8-4.4 4.5-.6-.3-1.3-.7-1.9-1-2-1.1-4.1-2.3-6.3-3.7-1.4-.8-2.7-1.6-4.2-2.5-3.6-2.2-7.5-3.9-11.5-5.1-12.2-3.3-24.7 3.9-28 16.1-.1.5-.2.9-.3 1.4-1.3 5.9-.6 12.1 2.2 18.3 2.4 5.2 5.6 9.9 9.6 13.9 5.5 5.5 11.9 10 18.9 13.3 3.4 1.7 6.9 3.1 10.5 4.4l.3 1.5c.8 3.3 2.5 6.3 4.9 8.8q-3.9-1.05-7.8-1.8c-3.9-.7-8-.8-11.9-.2-9.9 1.4-17.7 9.1-19.3 19-1 5.6 0 11.4 3 17.1 3.3 6.2 8.4 11.2 15.6 15.3 8.2 4.7 17.6 7.2 28.6 7.7 3.1 5.6 8.6 9.5 15 10.2 1.2.2 2.4.2 3.6.2 3.1 0 6.2-.4 9.1-1.3 2.9 2.9 7.4 5.6 14.5 5.8h.4c1 0 2.1-.1 3.1-.3 2.5-.4 4.9-.9 7.2-1.7q5.55-1.95 10.8-4.5l.9-.4c5.1-2.3 9.9-5 14.5-8.1 7.3 6.4 15.4 11.9 24 16.4 8.3 4.4 17.4 7.8 29.5 10.9 12.7 3.2 26.7 5.1 42.8 5.8 3.3.1 6.6.3 9.9.4h1.1q5.7.3 11.4 0c2-.1 4-.1 6.1 0 1.8.2 3.7.2 5.8.2 1.4 0 2.9 0 4.5-.1 5.3-.2 11.1-.6 18.3-1 3.9-.2 7.6-.5 11.5-.9 6.9-.7 13.8-1.9 20.5-3.4 8.7-1.9 17.2-4.5 25.5-7.9 8.7-3.7 17-8.4 24.7-14 2.8-2 5.5-4.1 8-6.5 8.7 6 17.8 9.9 25.9 13 2.6.9 5.3 1.6 8 1.9 1 .1 1.9.2 2.9.2 2.5 0 5-.4 7.4-1.3 2.7-.9 5.2-2.5 7.3-4.5.9.3 1.9.5 2.9.7q4.95 1.05 9.9.3c6.7-1 12-4.7 14.9-10.2 1.3-.1 2.7-.1 4-.3 7.3-.6 14.4-2.5 21-5.6 5.7-2.6 10.7-6.3 14.8-11 5.4-6.3 7.9-13.2 7.6-20.6-.3-8.5-5.5-16.1-13.2-19.6-4.2-1.9-8.8-2.7-13.4-2.4-4.2.3-8.3 1.1-12.3 2.3-.1 0-.3.1-.4.1 2.4-2.4 4.1-5.5 4.9-8.8-.9-.6-.8-1.1-.7-1.5" class="ambys_svg__st0"/><linearGradient id="ambys_svg__path10_00000120532055242829677210000000028084124171977605_" x1="210.545" x2="691.221" y1="-77.071" y2="-77.071" gradientTransform="matrix(1 0 0 -1 -194.868 175.34)" gradientUnits="userSpaceOnUse"><stop offset="0" style="stop-color:#fdb6e0"/><stop offset=".25" style="stop-color:#bee8fe"/><stop offset=".5" style="stop-color:#fff"/><stop offset=".75" style="stop-color:#bee8fe"/><stop offset="1" style="stop-color:#fdb6e0"/></linearGradient><path id="ambys_svg__path10" d="M446.5 272.6c.5.4 1.1.7 1.7.8 1.3.4 2.6.9 3.8 1.5.7.4 1.3.8 1.8 1.4 1.5 1.8 1.1 3.9-1.1 4.8-1.9.8-4 1-6 .8-3.6-.3-7.1-1-10.6-1.5-1.6-.2-3.3-.3-5.1-.5.4.6.9 1 1.5 1.3q1.95 1.2 3.3 3c1.7 2.2 1 4.5-1.6 5.4-2.3.7-4.7.9-7.1.6-8.4-.7-16.8-2-25.1-3.9-5.1-1-10.1-2.6-14.8-4.7-3-1.4-5.7-3.2-8.1-5.5-3.3-3.2-4.7-7.9-3.6-12.3.9-4.8 3.5-9.1 7.3-12.2 6.1-4.8 13.1-8.4 20.5-10.7 1.2-.4 2.4-.6 3.7-.5 2.6.2 3.6 2.1 2.4 4.4-.5.9-1.1 1.7-1.8 2.5-.6.7-1.1 1.4-1.7 2.1-.2.3-.6.7-.3 1.1s.7.3 1.1.3c1 0 1.9-.2 2.8-.5 5.1-1.7 10-4 14.4-7.1 3.9-2.6 7.8-5.2 11.8-7.4 1.5-.8 3.1-1.5 4.8-2 .8-.2 1.6-.3 2.5-.3 1.6-.1 3 1.2 3.1 2.9 0 .4 0 .7-.2 1.1-.4 1.2-.9 2.3-1.7 3.4-1 1.5-2.1 3.1-3 4.6-.4.7-1.1 1.5-.5 2.3s1.6.5 2.4.4c1.8-.2 3.5-.6 5.2-1.2 9.6-3.1 18.7-7.3 27.2-12.6 2.3-1.5 4.7-2.8 7.2-4 1.3-.7 2.8-1.2 4.2-1.5 3.6-.9 7.3 1.1 8.4 4.6.9 2.6.9 5.4-.1 7.9-1.4 3.8-3.5 7.2-6.3 10.1q-5.85 6.3-13.5 10.2c-5.4 2.8-11.1 5-17 6.7-3.5 1.1-7.1 2.2-10.6 3.3-.2.1-.9.5-1.3.9m-367.2 8.8c-1.1.7-2.1 1.6-3 2.6-2 2.6-1.2 5 1.9 5.9 1.1.3 2.2.5 3.4.5 2.8 0 5.6-.3 8.4-.7 8.7-.9 17.3-2.5 25.7-4.8 3.8-1 7.5-2.4 11-4.2 2.4-1.2 4.6-2.8 6.4-4.8 2.8-2.9 4.1-6.9 3.5-10.9-1-6.9-4.8-11.9-10.4-15.6q-5.55-3.6-11.7-6.3c-1.9-.9-3.9-1.6-5.9-2.2-1.3-.4-2.6-.6-3.9-.5-2.5.2-3.6 2-2.5 4.3.4.7.8 1.3 1.3 1.9.8 1 1.6 1.9 2.3 2.9.6.9.4 1.3-.8 1.3s-2.4-.3-3.5-.7c-3.9-1.3-7.6-3-11-5.1-4.3-2.6-8.4-5.6-12.8-8.2-1.9-1.2-4-2.2-6.1-2.9-1.1-.4-2.2-.5-3.4-.4-1.6.1-2.8 1.4-2.7 2.9v.4c.1.7.3 1.4.6 2 .5 1.1 1.2 2.1 1.9 3 1 1.2 1.8 2.5 2.5 3.9.8 1.8.4 2.4-1.6 2.4-1.3-.1-2.5-.3-3.7-.6-7.5-2.2-14.7-5.1-21.5-8.8-3.8-2-7.3-4.3-11-6.4-2.4-1.5-4.9-2.7-7.6-3.5-4.5-1.1-8.3 1.2-9.3 5.8-.6 2.9-.1 5.9 1.2 8.5 1.6 3.5 3.8 6.7 6.5 9.4 4.2 4.2 9.2 7.7 14.6 10.2 5.2 2.4 10.6 4.4 16.1 6 3.1 1 6.3 1.9 9.4 2.9.8.1 1.4.5 1.9 1.1-1.1.4-2.1.7-3 1-1.1.3-2.1.8-3.1 1.4-1.3 1-2.7 2-2.2 3.9.4 1.8 2 2.3 3.7 2.7 2.6.5 5.2.2 7.8-.2 3.9-.6 7.8-1.3 11.8-1.2-.3.4-.8.8-1.2 1.1m17.9-61.9c-.7.2-1.5.3-2.2.5-2.4.6-4.7 1.4-6.5 3.2-2.3 2.3-2.1 4.8.6 6.6.8.6 1.8 1 2.7 1.3 1.1.4 2.3.8 3.4 1.1 10.9 3.1 22.1 5.1 33.5 5.9 3.2.2 6.3 0 9.4-.5 1.7-.3 3.3-.8 4.7-1.6 3.9-1.9 6.1-6.2 5.2-10.4-.5-2.4-1.4-4.7-2.6-6.8-2.6-4.6-5.8-8.8-8.8-13.1q-3-4.5-6.3-8.7c-1.7-2.1-3.7-3.9-6-5.3-1.1-.7-2.4-1.2-3.7-1.2-1.6-.1-3.1 1-3.3 2.6-.2.8-.2 1.5-.1 2.3.1.5.1 1.1.1 1.6 0 .6.1 1.3-.5 1.6-.7.4-1.3 0-1.8-.4q-1.5-1.05-2.7-2.4c-1.9-2.1-3.7-4.2-5.4-6.5-2.5-3.4-5-6.8-7.6-10.2-1.9-2.5-3.8-4.9-6.6-6.5-1.1-.8-2.5-1.2-3.9-1.2-1.9-.1-3.6 1.4-3.7 3.3v.1c0 1.5.3 3 .9 4.4.5 1.5 1.1 3 1.6 4.6.2.4.3.9.3 1.4.1.7-.3 1-1 .8-.6-.2-1.1-.4-1.7-.6-1.7-.8-3.2-1.8-4.7-2.9q-6.3-4.65-12-10.2c-3.6-3.4-7.2-6.8-10.9-10.1-1.9-1.8-4-3.3-6.3-4.4-4.6-2.2-9.1-.4-10.9 4.4-1.2 3.6-1.1 7.5.5 11 1.6 4.1 4.2 7.7 7.5 10.6 3.6 3.2 7.6 6 11.8 8.4 4.5 2.5 8.9 5.1 13.4 7.6.4.3 1 .4 1.2 1.1-.7-.1-1.3-.2-1.8-.2-2.3-.2-4.7.1-6.8 1.1-2.9 1.5-3.1 4.1-.6 6.2 1.3 1 2.7 1.8 4.2 2.3 3.1 1.3 6.4 2.4 9.7 3.3 4.4 1.2 8.8 2.3 13.1 3.5 1.6.4 3.1 1.1 4.6 1.9zm341.3-19.8c2-1.2 4-2.3 6.1-3.5 4.8-2.5 9.4-5.2 13.8-8.3 3.6-2.6 7-5.4 9.6-9.1 2.7-3.8 4.6-8 4.3-12.8-.1-1.3-.3-2.5-.7-3.7-1.7-4.9-6.4-6.9-11.1-4.6-2.8 1.6-5.4 3.5-7.7 5.8-4.3 4-8.5 8-12.8 12-2.9 2.7-6 5.2-9.2 7.4q-2.55 1.95-5.7 3c-.9.3-1.1 0-1-.9.3-1.4.6-2.7 1.2-3.9.7-1.7 1.3-3.5 1.6-5.3.3-3-1.6-4.8-4.6-4.3-.6.1-1.2.3-1.7.5-1.4.6-2.6 1.5-3.7 2.5-2.1 2.1-4 4.3-5.7 6.7-3.2 4.3-6.2 8.6-9.7 12.6-1.3 1.6-2.8 3.1-4.5 4.4-1.5 1-2.2.6-2.2-1.2 0-1.1.1-2.3 0-3.4-.1-2.1-1.4-3.2-3.5-3.2-1.3.1-2.5.5-3.5 1.2-2.7 1.8-5.1 4-7 6.6-3 3.7-5.4 7.8-8.3 11.7-2 2.7-3.9 5.6-5.6 8.5-1.2 1.9-2.1 3.9-2.6 6.1-.7 3.2-.5 6.2 1.6 8.8 1.5 1.8 3.5 3.1 5.8 3.7 3.3.9 6.7 1.3 10.1 1.1 4.4-.2 8.7-.6 13-1.3q11.85-1.8 23.4-5.1c1.6-.5 3.2-1.1 4.6-2 2.7-1.6 3.1-4.5.8-6.7q-.75-.75-1.5-1.2c-1.6-1-3.4-1.7-5.3-2-.7-.1-1.3-.3-2.3-.5 1.1-.7 2.3-1.3 3.6-1.7 4.3-1.5 8.7-2.4 13.1-3.6 4.6-1.1 9.1-2.7 13.3-4.7 1.1-.5 2.1-1.2 2.9-2.1 1.1-1.1 1.2-2.9.1-4.1l-.1-.1c-.6-.7-1.5-1.3-2.4-1.5-2-.7-4.1-.9-6.2-.7-.4 0-.9.3-1.4 0 .1-.6.6-.8 1.1-1.1m-25.2 134.9c3.8 1.3 7.5 2.9 11 4.7 3.5 1.7 7.2 3 11 3.8 1.5.3 3 .4 4.5.2 1.6-.2 3-.9 3.6-2.5.6-1.7 0-3.2-1.1-4.4-1-1.1-2.1-1.9-3.4-2.6-.6-.2-1.2-.6-1.6-1.1h5c5.8.2 11.6.6 17.4.1 5.5-.5 10.8-1.9 15.8-4.2 3.7-1.6 7-4 9.6-7 2.4-2.7 4-5.8 3.8-9.6 0-2.7-1.6-5.2-4.1-6.2-1.8-.8-3.8-1.1-5.8-1-3.1.3-6.2.8-9.1 1.7-6.5 1.9-13 4-19.7 5.4-4.9 1.1-9.9 1.8-14.9 2.3-1.3.1-2.5 0-3.7-.3-1.3-.3-1.5-.9-1.2-2.1.4-1 .9-1.9 1.6-2.8.6-.8 1.1-1.7 1.5-2.6.8-1.8-.1-3.8-1.8-4.5-.1 0-.2-.1-.3-.1-1.3-.5-2.8-.7-4.2-.5-4.8.5-9.4 1.7-13.9 3.4-2.4 1-4.9 1.9-7.5 2.5-.4.1-.8.4-1.2-.1.6-.9 1.4-1.8 2.2-2.5 1.1-1 2-2.2 2.9-3.4 1.6-2.5.9-4.8-1.8-6.1-1.4-.6-2.8-1-4.3-1.1-4.4-.6-8.7 0-13 .6-3.6.4-7 1.5-10.2 3.1-7.5 4.1-10.8 12-8.3 20.3 2 6.3 6 11.2 11.1 15.3 7.9 6.2 16.9 10.3 26.2 13.9 1.5.5 3 .8 4.5 1 1 .1 2 0 3-.4 1.7-.5 2.7-2.4 2.2-4.1-.4-1.5-1.2-2.9-2.4-3.9-2.1-2-4.2-3.9-6.6-5.6 1.1-.2 2.1.1 3.2.4m-340.7-.4c-1.1.6-2.1 1.4-2.9 2.3-1.1 1.2-1.4 2.8-.9 4.4.6 1.6 2 2.3 3.6 2.5.5.1 1 .1 1.4.1 2.8-.1 5.5-.7 8-1.7 2.9-1 5.6-2.3 8.4-3.6 3.1-1.6 6.3-2.8 9.6-3.8.5-.2 1-.2 1.4.1-.8.7-1.6 1.2-2.3 1.9-1.9 1.6-3.9 3-5.1 5.2-.8 1.5-1.4 3-.5 4.6 1 1.7 2.6 1.9 4.4 1.9.3 0 .6 0 .9-.1 1.5-.2 3.1-.6 4.5-1.1 3.4-1.2 6.8-2.6 10.1-4.2 5.3-2.4 10.3-5.3 14.9-8.8 4.7-3.6 8.6-7.8 10.9-13.3 2.5-5.8 2.6-11.5-.8-17-2.4-4-6.3-6.1-10.5-7.7-3.4-1.3-7-1.5-10.5-1.9-3-.4-6-.4-8.9 0-1.8.2-3.5.7-5.1 1.6-1.6 1-2.2 3.1-1.3 4.7.5 1.1 1.2 2 2.1 2.9.9 1 1.9 2 2.8 3 .2.3.7.5.3 1.2-.6-.2-1.3-.3-2-.5-1.9-.6-3.7-1.3-5.6-1.9-3.7-1.5-7.6-2.6-11.5-3.3-1.9-.4-3.9-.5-5.9-.2-3.7.7-4.8 3.2-2.9 6.4.5.9 1.1 1.7 1.6 2.6 1.6 2.6 1 3.7-2 3.9-2.1.1-4.2-.1-6.2-.4-8-1.1-16-2.9-23.7-5.3-4.1-1.4-8.2-2.5-12.5-3.3-2.2-.4-4.5-.5-6.8-.2-3.3.4-6 3-6.5 6.3-.3 2.4.2 4.9 1.5 7.1 2.1 4.1 5.6 6.8 9.5 9 6.8 3.8 14.1 5.4 21.8 5.7 5.6.3 11.1-.4 16.6-.4.8-.1 1.7 0 2.5.2-.9.3-1.7.6-2.4 1.1" style="fill:url(#ambys_svg__path10_00000120532055242829677210000000028084124171977605_)"/><radialGradient id="ambys_svg__path11_00000094594915063132802320000012362061598611392134_" cx="490.21" cy="-36.423" r="162.619" fx="394.118" fy="-23.411" gradientTransform="matrix(1 0 0 -1 -194.868 175.34)" gradientUnits="userSpaceOnUse"><stop offset=".102" style="stop-color:#fff"/><stop offset=".781" style="stop-color:#fdb6e0"/></radialGradient><path id="ambys_svg__path11" d="M75.4 322.5c.7-.4 1.5-.5 2.3-.3 6 .2 11.9-.4 17.8-1.6 7.6-1.7 14.9-4.6 21.6-8.4 1.8-1 3.6-2.1 5.4-3.1 2-1.2 2-1.3 1.1-3.4-2.1-5.3-3.7-10.9-4.6-16.5-1.1-6.7-1.1-13.6 0-20.3.5-3.2.5-3.1-2.7-2.7-7.7 1.1-15.5 1.4-23.2 1-9.6-.5-18.9-2.6-28.1-5.4-3.8-1.2-7.3-2.9-10.5-5.3-.1-.1-.1-.2-.2-.4.5-.4 1 0 1.4.1 13.2 4.9 27.2 6.8 41.2 5.5 7.7-.7 15.4-2.4 22.7-5.1 1.4-.4 2.4-1.5 2.7-2.9 2.4-9.1 5.3-18 8.6-26.8.3-.8.7-1.6 1-2.5.5-1.3.4-1.5-.9-1.9-3.6-1.1-7.1-2.4-10.6-3.8-7.2-3-14.2-6.7-20.7-10.9-7.2-4.6-14.1-9.7-20.4-15.4-2.3-2-4.4-4.1-6.2-6.4-.5-.5-.8-1-1-1.6.5-.4.7 0 1 .2 7.1 6.7 15.4 11.6 24 16.2 6.2 3.4 12.7 6.4 19.3 9.1 5.7 2.3 11.5 4 17.5 5 2.3.4 2.6.3 3.7-1.8 3.4-6.3 7.3-12.3 11.8-18 9.4-11.7 20.8-21.7 33.7-29.4 13.4-8.1 28-13.4 43.3-16.7 7.6-1.6 15.4-2.8 23.2-3.4 4.8-.4 9.7-.3 14.5.1 10.3.9 20.5 2.7 30.5 5.4 17.8 4.7 34.4 13 48.8 24.4 4.4 3.4 8.5 7.2 12.3 11.2 7.1 7.5 13.3 15.9 18.2 25 2.3 4.1 1.6 3.6 5.9 2.8 7.2-1.4 14.1-3.6 20.8-6.7 8.3-3.7 16.4-7.9 24.1-12.6 5-3.1 9.8-6.6 14.2-10.6.3-.3.5-.7 1-.6.4.4 0 .6-.2.9-.6.9-1.4 1.8-2.2 2.6-5.6 5.9-11.9 11.1-18.6 15.7q-10.65 7.65-22.5 13.2c-4.8 2.3-9.8 4.2-14.9 5.7-.4.1-.8.2-1.2.4-.4.1-.7.5-.6.9 0 .1 0 .2.1.2.1.3.2.6.3.8q5.7 14.25 9.6 29.1c.3 1.3 1.3 2.4 2.6 2.8 7.2 2.7 14.8 4.4 22.5 5.1 13.1 1.2 26.4-.3 38.9-4.6 1.1-.5 2.2-.9 3.4-1.1.1 0 .2.1.3.1.2.4-.1.5-.3.7-3 2.1-6.3 3.8-9.7 4.9-7.9 2.7-16 4.4-24.3 5.3-5.9.6-11.9.7-17.9.2-3.6-.3-7.3-.6-10.9-1.2-1.6-.2-1.8 0-1.5 1.6 1.8 10.3 1.1 21-2 31-.8 2.6-1.7 5.1-2.6 7.6-.6 1.5-.5 1.7.8 2.5 10.5 6.6 21.6 11.5 34 13 3.9.4 7.7.6 11.6.5.7-.1 1.5 0 2.2.2-.3.6-.9.9-1.6.8-4.9.4-9.7 1.1-14.6 1.1-6.6.1-13.1-1-19.6-1.9-5.7-.9-11.4-2.3-16.8-4.4-1.4-.5-1.6-.5-2.4.9-2.3 3.9-4.8 7.5-7.7 11-3.9 4.7-8.4 8.8-13.4 12.4-6.7 4.9-14 9-21.6 12.3-7.4 3-15.1 5.4-22.9 7.1-6.2 1.4-12.4 2.5-18.7 3.1-3.6.4-7.3.6-10.9.8-6 .4-12 .7-18.1 1-2.7.2-5.5.1-8.2-.1q-4.2-.3-8.4 0c-3.2.2-6.4.2-9.7 0-3.7-.2-7.4-.3-11.1-.5-13.3-.5-26.5-2-39.5-5.3-9-2.3-17.8-5.1-26-9.5-8.9-4.8-17.4-10.3-24.5-17.6-4.1-4.2-7.6-8.9-10.6-14-.1-.2-.2-.4-.4-.6-.9-1.4-1-1.5-2.6-.9-6.3 2.4-12.9 4-19.6 4.8-5.3.9-10.7 1.4-16 1.5-4.2 0-8.3-.5-12.5-.9-.8-.1-1.6-.1-2.3-.2-.6.2-1.2.2-1.7-.5" style="fill:url(#ambys_svg__path11_00000094594915063132802320000012362061598611392134_)"/><path d="M348.5 272.3c2.4-.1 4.8.2 7.1.8 1.6.4 3.2 1 4.6 2 1.9 1.2 2.5 3.7 1.4 5.6-.1.2-.3.4-.4.6-1.3 1.5-2.9 2.7-4.7 3.5-3.9 1.7-7.9 3-12.1 3.8-4 .8-8 1.4-12 1.7-3.3.2-6.7 0-10-.8-1.2-.2-2.4-.7-3.5-1.3-2.7-1.7-3.2-4.5-1.2-7 1-1.2 2.3-2.3 3.7-3 4.9-2.7 10.4-4.4 16-5q5.4-.9 11.1-.9m-184.4-.1c7.9.4 15.7.9 23.1 4.1 2.5.9 4.8 2.4 6.8 4.2 2.7 2.8 2.1 6.3-1.5 8-1.9.8-4 1.3-6.1 1.5-4.2.5-8.4.3-12.5-.4-5.5-.7-10.9-2-16.1-3.9-1.6-.6-3.2-1.4-4.6-2.4q-1.5-.9-2.4-2.4c-1.4-1.8-1-4.4.8-5.7.1 0 .1-.1.2-.1 1.8-1.3 3.9-2.1 6.1-2.4 2-.4 4.1-.5 6.2-.5" style="fill:#fb9ad7"/><path id="ambys_svg__path14" d="M258.5 311h-5c-17.1-.1-34.5-.6-50.8-5.7 8.8 9 19 16.6 30.1 22.4 7.2 3.8 15.1 6.9 23.1 7 8.1-.1 15.9-3.2 23.1-7 11.2-5.9 21.3-13.4 30.1-22.4-16.2 5.1-33.5 5.6-50.6 5.7" class="ambys_svg__st0"/><path d="M291.7 260.4c2-4.1 11.5-33.7 17.3-34.6 4.2-.7 8.2.1 12.1 1.5 7.2 2.5 12.9 6.9 17.6 12.8q5.1 6.15 8.1 13.5c1.3 3.3 2.1 6.8 2.5 10.4.3 3.2-.6 6.5-2.5 9.1-2.6 3.7-6.3 6.5-10.4 8.2-7.4 3.3-15.5 4.8-23.5 4.5-4.9-.2-9.6-1.4-13.3-5-2.9-2.8-5.2-6.3-6.6-10.1-.6-1.6-.9-3.3-1.4-5-.5-1.8.2-3.4.2-5.1-.2-.2-.2-.2-.1-.2m-71.4 0c-1.7-6.3-9-32.6-15.2-34.3q-2.25-.6-4.5-.6c-3.5-.2-6.8.6-10.1 1.7-7.2 2.5-12.9 6.9-17.6 12.8q-5.1 6.15-8.1 13.5c-1.3 3.3-2.1 6.8-2.5 10.4-.3 3.2.6 6.5 2.5 9.1 2.6 3.7 6.3 6.5 10.4 8.2 5.9 2.6 12.2 4.1 18.5 4.5.4 0 .8 0 1.2.1h3.8c1 0 1.9-.1 2.9-.3.4 0 .7-.1 1.1-.1 4-.5 7.6-2.3 10.4-5.2 3.5-3.7 6-8.3 7.2-13.2.6-2.3.1-4.4 0-6.6" class="ambys_svg__st4"/><linearGradient id="ambys_svg__path17_00000091717537801725655300000003326068860682571684_" x1="436.22" x2="465.358" y1="-152.05" y2="-152.05" gradientTransform="matrix(1 0 0 -1 -194.868 175.34)" gradientUnits="userSpaceOnUse"><stop offset=".173" style="stop-color:#fdb6e0"/><stop offset="1" style="stop-color:#fff"/></linearGradient><path id="ambys_svg__path17" d="M270.5 327.9c-9.7 4.7-19.3 4.6-29.1 0 8.6-6.2 22-5.7 29.1 0" style="fill:url(#ambys_svg__path17_00000091717537801725655300000003326068860682571684_)"/><path d="M216 232.9c-1.6-2.2-3.7-3.9-6.2-5-5.2-2.1-10.3-1.4-15 1.4-8 4.7-14 12.2-16.8 21.1-2.6 8-1.5 18.5 7.6 25.1 3.7 2.8 7.8 4.7 12.5 4.8 7.3.2 13.1-2.8 17.6-8.4 4.1-5.1 6.4-11.5 6.4-18.1 0-2.5-.2-5.1-.7-7.6-.7-4.8-2.5-9.4-5.4-13.3m-24.6 26.5s-.1 0 0 0c-2 0-3.5-1.5-3.5-3.4-.1-1.7 1.2-3.3 3-3.4h.2c1.8-.1 3.3 1.2 3.4 3v.2c.1 1.8-1.2 3.4-3.1 3.6m18.9-2.2c-1.2.6-2.6 1-4 .9-3.1 0-6-1.4-7.9-3.9-2.2-2.8-2.2-6.7.1-9.4 3.3-4.2 11.7-5.1 14.9 1.8.3.7.5 1.3.7 2 1.1 3.9-.2 6.8-3.8 8.6m122.6-9.8c-2.6-6.1-6.6-11.4-11.8-15.5-2.9-2.5-6.4-4.2-10.2-4.9-6-1-11 .8-14.7 5.7-2.4 3-4 6.5-4.9 10.3-.9 3.7-1.3 7.4-1.3 11.2.2 8.5 3.2 15.8 9.8 21.3 5.1 4.3 11.2 6 17.9 4.4 5.3-1.4 10-4.5 13.4-8.8 3.1-3.8 4-8.3 4-13.9-.1-3.5-.8-6.8-2.2-9.8m-20.5 8.1c-.1.1-.2.1-.3.2-1.8 1.5-4.1 2.4-6.4 2.4-1.3 0-2.6-.3-3.8-.8-3.2-1.5-5.4-4.4-4.1-8.6 1.2-3.8 3.3-6.6 7.4-7 3.2-.5 6.5.8 8.4 3.4 2.6 3.2 2.1 7.9-1.2 10.4m11.8.4c-.1 1.8-1.5 3.3-3.3 3.4-1.9 0-3.4-1.5-3.4-3.4s1.5-3.4 3.3-3.4c1.8.1 3.4 1.6 3.4 3.4" class="ambys_svg__st0"/><path id="ambys_svg__path21" d="M281.8 163.4c5.4 0 10.8 1.1 15.9 3 6.6 2.4 12.7 5.8 18.3 10 1.9 1.4 3.7 3.1 5.2 4.9.9 1.2 1.7 2.5 2.1 3.9.7 2.2-.3 4.6-2.4 5.6-1.7.9-3.5 1.3-5.4 1.3-4.1 0-8.1-.5-12.1-1.4-8.6-1.7-17.1-3.8-25.3-7.2-2.5-1-4.9-2.2-7.1-3.7-1.6-1.1-3-2.6-3.8-4.4-1.2-2.3-.9-5.1.7-7.1 1-1.4 2.4-2.5 4.1-3.1 3.1-1.3 6.5-1.9 9.8-1.8" class="ambys_svg__st4"/><path id="ambys_svg__path22" d="M244.5 173.2c-2.5.1-5.1-.2-7.5-.8-1.2-.2-2.4-.8-3.4-1.5-1.5-.9-2-2.9-1-4.4.2-.3.4-.5.6-.7.5-.6 1.1-1.1 1.9-1.4 3.8-1.7 7.6-3.1 11.9-2.8 3.2.2 6.4 1 9.3 2.5q1.5.75 2.4 2.1c1 1.3.7 3.2-.5 4.2-.8.7-1.8 1.2-2.8 1.5-3.7 1-7.3 1.4-10.9 1.3" class="ambys_svg__st4"/></svg>