<?xml version="1.0" encoding="utf-8"?>
<!-- Generator: Adobe Illustrator 28.2.0, SVG Export Plug-In . SVG Version: 6.00 Build 0)  -->
<svg version="1.1" id="Layer_1" xmlns="http://www.w3.org/2000/svg" xmlns:xlink="http://www.w3.org/1999/xlink" x="0px" y="0px"
	 viewBox="0 0 512 512" style="enable-background:new 0 0 512 512;" xml:space="preserve">
<style type="text/css">
	.st0{fill:url(#Red_Gradient_00000085967260573921133280000009846936096875822992_);}
	.st1{fill:url(#Beak_Shadow_00000142881169934410974560000004053163669456193214_);}
	.st2{fill:url(#Beak_00000128461949498675669440000006152566843453868428_);}
	.st3{fill:url(#Blue_Gradient_00000112590553679742092040000000961626885685936520_);}
</style>
<g id="Flight_Symbol_5_">
	
		<linearGradient id="Red_Gradient_00000079484425575861798650000003312480943222785674_" gradientUnits="userSpaceOnUse" x1="367.1755" y1="289.9224" x2="367.1755" y2="615.98">
		<stop  offset="0" style="stop-color:#ED1C24"/>
		<stop  offset="0.1471" style="stop-color:#E51C24"/>
		<stop  offset="0.2996" style="stop-color:#D61C23"/>
		<stop  offset="0.4545" style="stop-color:#C11A20"/>
		<stop  offset="0.6112" style="stop-color:#A4171C"/>
		<stop  offset="0.7677" style="stop-color:#821013"/>
		<stop  offset="0.81" style="stop-color:#780E0F"/>
	</linearGradient>
	<path id="Red_Gradient_1_" style="fill:url(#Red_Gradient_00000079484425575861798650000003312480943222785674_);" d="M277.4,460.8
		c28.8,47.3,74.7,46.3,86.9,46.3H512L337.7,295.5c-80.4,3.3-123,54.9-114.2,76.5L277.4,460.8z"/>
	
		<linearGradient id="Beak_Shadow_00000147918131003102582950000010369400382224408233_" gradientUnits="userSpaceOnUse" x1="218.7061" y1="317.0514" x2="337.7049" y2="317.0514">
		<stop  offset="0" style="stop-color:#69231D"/>
		<stop  offset="0.1406" style="stop-color:#7A2720"/>
		<stop  offset="0.5166" style="stop-color:#A72F27"/>
		<stop  offset="0.8162" style="stop-color:#C5332A"/>
		<stop  offset="1" style="stop-color:#D1342A"/>
	</linearGradient>
	<path id="Beak_Shadow_3_" style="fill:url(#Beak_Shadow_00000147918131003102582950000010369400382224408233_);" d="M223.5,372
		c-0.2-0.4-4.8-11-4.8-23.9c0-48.3,42.8-76,91.5-86l27.5,33.4C257.3,298.8,214.7,350.4,223.5,372z"/>
	
		<linearGradient id="Beak_00000160869504209088235470000016023590032063654577_" gradientUnits="userSpaceOnUse" x1="205.6344" y1="299.6616" x2="338.2343" y2="219.9875">
		<stop  offset="0.1" style="stop-color:#EFF2F4"/>
		<stop  offset="0.3638" style="stop-color:#D5DDE1"/>
		<stop  offset="0.8932" style="stop-color:#A1B0B9"/>
		<stop  offset="1" style="stop-color:#96A7B0"/>
	</linearGradient>
	<path id="Beak_3_" style="fill:url(#Beak_00000160869504209088235470000016023590032063654577_);" d="M290.7,215
		c-73.5,0-128.3,12.1-128.3,40.9c0,10.6,3.3,19.7,12.3,35.9l48.8,80.3c-0.2-0.4-4.8-11-4.8-23.9c0-48.3,42.8-76,91.5-86
		c14.1-2.9,28.6-4.3,42.8-4.3c11.9,0,23.1,0.6,31.7,3.7C379.6,243.1,366.2,215,290.7,215z"/>
	
		<linearGradient id="Blue_Gradient_00000029759768713016121940000010162730302057451179_" gradientUnits="userSpaceOnUse" x1="132.5364" y1="232.5674" x2="132.5364" y2="7.2978">
		<stop  offset="0" style="stop-color:#1C2F72"/>
		<stop  offset="0.1391" style="stop-color:#004B88"/>
		<stop  offset="0.2977" style="stop-color:#0066A0"/>
		<stop  offset="0.4543" style="stop-color:#007EB7"/>
		<stop  offset="0.6056" style="stop-color:#0092CB"/>
		<stop  offset="0.75" style="stop-color:#00A1DB"/>
		<stop  offset="0.8847" style="stop-color:#00ABE7"/>
		<stop  offset="1" style="stop-color:#00AFEB"/>
	</linearGradient>
	<path id="Blue_Gradient_2_" style="fill:url(#Blue_Gradient_00000029759768713016121940000010162730302057451179_);" d="
		M97.4,164.9c20.2,33.1,27.7,41.4,75.8,41.5c35.3,0,91.9,0,91.9,0l-126.7-160c-28-34.6-44.1-40.9-69.7-41.4H0L97.4,164.9z"/>
</g>
</svg>
