<?xml version="1.0" encoding="utf-8"?>
<!-- Generator: Adobe Illustrator 28.2.0, SVG Export Plug-In . SVG Version: 6.00 Build 0)  -->
<svg version="1.1" id="Layer_1" xmlns="http://www.w3.org/2000/svg" xmlns:xlink="http://www.w3.org/1999/xlink" x="0px" y="0px"
	 viewBox="0 0 512 512" style="enable-background:new 0 0 512 512;" xml:space="preserve">
<style type="text/css">
	.st0{fill-rule:evenodd;clip-rule:evenodd;}
</style>
<g>
	<polygon class="st0" points="170.9,264.9 215,264.9 192.9,214.4 	"/>
	<path class="st0" d="M256,0C114.6,0,0,114.6,0,256s114.6,256,256,256s256-114.6,256-256S397.4,0,256,0z M241.9,324.7l-18.3-39.4
		h-61.4l-18,39.4h-25.5L185,181.1l16,0c12.1,28.9,66.4,143.5,66.4,143.5H241.9z M393.4,201.4h-63.4v37.7h55.6v20.4h-55.6v44.8h63.4
		v20.3h-86V181.1h86V201.4z"/>
</g>
</svg>
