<svg xmlns="http://www.w3.org/2000/svg" xml:space="preserve" viewBox="0 0 512 512"><path d="M223.5 372c-.2-.4-4.8-11-4.8-23.9 0-48.3 42.8-76 91.5-86l27.5 33.4c-80.4 3.3-123 54.9-114.2 76.5" style="fill:#fff;fill-opacity:.5"/><path d="M290.7 215c-73.5 0-128.3 12.1-128.3 40.9 0 10.6 3.3 19.7 12.3 35.9l48.8 80.3c-.2-.4-4.8-11-4.8-23.9 0-48.3 42.8-76 91.5-86 14.1-2.9 28.6-4.3 42.8-4.3 11.9 0 23.1.6 31.7 3.7-5.1-18.5-18.5-46.6-94-46.6m-13.3 245.8c28.8 47.3 74.7 46.3 86.9 46.3H512L337.7 295.5c-80.4 3.3-123 54.9-114.2 76.5zm-180-295.9c20.2 33.1 27.7 41.4 75.8 41.5h91.9l-126.7-160C110.4 11.8 94.3 5.5 68.7 5H0z" style="fill:#fff"/></svg>