<?xml version="1.0" encoding="utf-8"?>
<!-- Generator: Adobe Illustrator 28.2.0, SVG Export Plug-In . SVG Version: 6.00 Build 0)  -->
<svg version="1.1" id="Layer_1" xmlns="http://www.w3.org/2000/svg" xmlns:xlink="http://www.w3.org/1999/xlink" x="0px" y="0px"
	 viewBox="0 0 512 512" style="enable-background:new 0 0 512 512;" xml:space="preserve">
<style type="text/css">
	.st0{fill:#FEDAA5;}
	.st1{fill:#FCE8EC;}
	.st2{fill:#F18928;}
	.st3{fill:#80C9C1;}
	.st4{fill:#95C7DB;}
	.st5{fill:#87ADD4;}
	.st6{fill:#FFF1CF;}
	.st7{fill:#A29EA1;}
	.st8{fill:#797AAA;}
	.st9{fill:#F8B570;}
	.st10{fill:#F8C9D1;}
	.st11{fill:#9B8BC1;}
	.st12{fill:#6E5EA6;}
	.st13{fill:#B59259;}
	.st14{fill:#7D89C1;}
	.st15{fill:none;}
</style>
<path class="st0" d="M174.6,444.7c7.7-0.6,18.2,0.3,17-12.5c-5.1-1.9-10.6-3.8-15.4-6.1c-0.6-0.3-1.3-0.6-1.9-1
	c-9.6,6.1-15.4,16.3-24.6,22.7l0,0c-0.3,0.6-1,1-1.3,1.6c1.6,0.3,3.5,1,5.4,1.6C161.2,451.4,167.6,445.7,174.6,444.7z"/>
<path class="st1" d="M0,388.4c0.3,0.3,0.6,0.6,1,0.3h0.3c0-1,0-1.9,0-2.9c-0.3,0.3-1,1-1.3,1.3C0,387.8,0,388.1,0,388.4z"/>
<path class="st1" d="M280.5,235.5c6.7-0.3,13.4-0.3,19.8,3.8l0,0c1,0,1.9-0.3,2.6,0c16.3,10.2,7.7-7.7,7.7-8.6c0-2.9,0.3-5.4,1-7.7
	c-2.2-4.2-4.2-8.3-5.8-12.5c-4.2-11.5-7.7-23.3-11.5-34.9c-4.2,9-8,18.2-11.2,27.8c-0.3,0.6-0.6,1.3-1.3,1.9
	c-2.2,2.6-6.7,2.6-10.9,1.9c2.6,5.4,4.8,10.9,6.7,16.6C279.2,227.5,280.2,231.7,280.5,235.5z"/>
<path class="st1" d="M308.7,145.3c-1.9,4.5-4.2,9-6.1,13.1c22.4,8.3,42.5,20.2,60.1,36.1c2.9,2.6,5.1,5.4,7.4,8.3
	c1.3,1.6,2.2,3.5,3.2,5.4c4.5,0.3,9.3,0,13.8-2.2c3.2-1.6,6.1-4.5,9-6.7l0,0l0,0c0,0-0.3,0-0.3-0.3c5.4-7.7,12.8-14.7,16.6-22.7
	c-2.6-1.9-5.1-3.8-8-5.4c-2.6-1.6-3.8-4.5-2.6-7.4c0.3-0.6,0.6-1.6,1.3-2.2c1-2.2,0.3-5.1-1.6-6.4c-2.6-1.6-5.4-2.9-8.3-2.9
	c-1.6,0-3.5-0.3-4.8-1.6c-8.6-7.7-16.3-15.7-24.9-22.4c-12.2-9.6-24.6-18.6-37.1-27.5c-4.5-3.2-9.9-4.5-15.7-4.5
	c-4.8,0.3-9.6,0-14.1,0c-0.3,0-0.6,0-0.6,0c1.9,5.1,4.5,9.9,5.1,15.4C302.3,123.6,313.8,134.1,308.7,145.3z"/>
<path class="st2" d="M127.6,472.5c-1.9,2.9-4.5,5.1-6.1,8.3c-4.2,9-4.8-1.6-8-1.6c-1,0-2.2,0-3.2,0c-0.6,2.6-1.3,5.4-1.6,8
	c-0.6,2.9-0.6,6.1-1,9c-0.3,3.2,2.2,5.8,5.1,4.8c3.5-1.3,5.8-3.5,7.4-7c2.2-5.4,4.2-10.6,6.1-16C126,477,127.3,474.5,127.6,472.5z"
	/>
<path class="st2" d="M455.8,221.1c0.6-0.6,1-1,1.6-1.6c14.1-12.8,30.4-21.7,47.7-29.4c2.2-1,4.5-2.2,6.7-3.2c0.3,0,0.3-0.6,0-0.6
	c0,0,0,0-0.3,0c-9.6-1.3-18.2-0.3-27.5,1.6c-6.1,1.3-12.2,2.9-18.2,4.2c-0.3,2.2-1,4.8-1.9,7C461.2,206.7,458.7,214.1,455.8,221.1z"
	/>
<path class="st2" d="M434.7,256.3c-2.2,3.5-4.2,7.7-6.7,11.2c-3.2,4.5-7.7,8.3-15,8.6c-2.9,0-6.4-2.6-9.3-2.2
	c-0.6,23.3-2.6,46.7-8.3,69.7c-2.9,10.9-7,21.1-12.5,31.7c-1.6,3.2-6.4,3.8-8.3,1c-0.3-0.3-0.3-0.6-0.6-1.3
	c-6.1-13.1-12.2-25.9-17.3-39c-0.6-1.6-1-2.9-1.6-4.5c-1.6,1.6-3.2,3.2-4.8,4.8c-4.2,4.5-10.9,6.7-15.7,10.6
	c-3.2,2.6-6.7,4.2-10.2,5.1c1.9,3.8,3.8,7.7,6.1,11.2c6.4,10.9,12.2,21.7,15.4,33.9c3.5,13.4,2.6,17-9.6,24
	c-11.5,6.7-23.7,12.8-35.8,18.9c-2.2,1.3-5.1,1.6-7.7,1.6c-9.6,0.3-19.2,0-28.8,0l0,0l0,0c-21.4,0.6-42.9,0.3-63.7-5.8
	c-0.6,13.4-12.8,19.8-21.4,24.6c-1.3,0.6-2.2,1.3-2.9,1.9c2.6,1.3,4.8,2.6,7.4,3.5c1.3,0.6,2.6,1,3.8,1.3c5.4,1,10.9,1.3,16,2.2
	c16,2.6,31.7,6.1,47.7,8c16.6,1.9,33.3,0.6,49.3-5.4c14.4-5.4,29.1-10.6,43.5-15.7c7.4-2.6,15.4-3.5,23-3.5c1.9,0,3.8,1.3,4.8,3.2
	c1.3,2.2,2.9,3.5,6.7,5.1c1.3,0.6,2.2,1.6,2.9,2.6c1.6,3.8,3.5,7.7,5.1,11.5c4.2,8.6,9,17,17,22.7c1.3,1,2.9,1.6,4.8,2.2
	c1.9,0.6,4.2-0.6,3.8-2.6c-1.3-10.9-2.2-21.4-4.5-32c-2.9-12.8-6.1-25.6-7-39c-0.6-10.2,1.6-19.5,8.3-27.5c6.4-8,12.5-16,18.9-24
	c8-9.9,13.1-20.8,12.2-34.2c-1-13.1-0.6-25.9,3.5-38.7c2.9-8.6,5.4-17.3,11.5-24.6c3.8-4.8,6.4-10.2,7.4-16.3
	c0.3-2.9-1.9-5.1-4.8-5.1H444c-2.6,0-4.8-1.9-5.1-4.5v-0.3v-0.3c-0.6,1-1.3,1.9-1.9,2.6C436.3,254.1,435.3,255.4,434.7,256.3z"/>
<path class="st3" d="M97.9,250.9c2.2-0.6,4.5-1,7-1.6l0,0c0.6-0.3,1.3-0.3,1.9-0.6c0.3,0,0.3,0,0.6-0.3l0,0
	c9.6-20.5,23.7-37.4,40-52.8c11.5-10.9,24-20.2,37.4-28.5c0-3.2,0.3-6.4,1.3-9.6c1.3-4.2,1.6-9,2.6-13.4c0-0.6,0.3-1.3,0.3-1.9
	c0-0.3,0-0.6,0.3-1.3c3.2-10.2,5.1-20.5,6.1-30.7c-14.1,4.2-27.8,8.6-42.2,12.5c-4.8,1.3-7.7,3.8-10.2,8c-5.4,9-11.5,17.6-17.6,26.2
	c-1.3,1.9-2.9,3.2-4.5,4.8c-1.3,1.3-3.5,1.3-4.8,0c-1.6-1.6-4.5-1-5.4,1.3c-1,2.6-1.9,5.1-3.2,7.4c-2.2,3.8-3.2,9-7.4,10.6
	c-1.9,0.6-3.8,1.6-4.8,3.5c-6.7,14.4-13.4,28.5-20.2,42.5c-4.2,10.2-8,19.5-11.2,29.1c9.3-0.6,18.2-1.6,27.2-3.5
	C93.4,252.2,95.6,251.5,97.9,250.9z"/>
<path class="st4" d="M221.3,218.3c-1.6,1.9-1.3,5.1-2.2,7.4c0.3,0,0.3,0.3,0.6,0.3c1-2.6,1.6-5.4,2.6-8
	C221.7,217.6,221.3,217.9,221.3,218.3z"/>
<path class="st4" d="M189,142.4c-0.3,0.6-0.3,1.3-0.6,1.9c-1,4.5-1,9-2.6,13.4c-1,3.2-1.3,6.4-1.3,9.6c1.3-0.6,2.2-1.6,3.5-2.2
	c3.5-1.9,7-3.5,11.2-3.5c1.9,0,3.2,1.9,2.6,3.8c-6.1,19.5-12.5,39-18.6,58.5c11.2-1.3,20.5-8.6,29.1-18.2c0.3-0.3,0.6-0.6,1-1l0,0
	l0,0c0.6-0.6,2.6-1.6,2.6-1.6c2.6,3.2,5.1,6.4,7.7,9.6c2.2-7,4.5-13.8,6.4-20.8c2.6-8,5.4-16,8.3-24c0.6-1.6,1.3-3.5,2.2-4.8
	c1.9-2.9,4.8-2.9,6.7,0c8.3,14.7,17,29.1,24,44.5c4.2,0.6,8.6,0.6,10.9-1.9c0.3-0.3,0.6-1,1-1.6c3.2-9.6,7-18.9,11.5-28.1
	c-1.9-6.1-3.8-12.2-5.8-18.2c0-0.3,0-0.3,0-0.6l1-1l0,0l0,0c3.5,0.6,7.4,1,10.9,2.2c0.6,0.3,1.3,0.6,1.9,0.6
	c1.9-4.2,4.2-8.6,6.1-13.1c4.8-11.5-6.7-22.1-8-33.6c-0.6-5.4-3.2-10.6-5.4-15.7c-11.8-0.6-20.5-5.4-24.9-17
	c-3.5-8.6-6.4-17.6-9.3-26.9c-1-3.5-2.2-7-3.2-10.6c-1,2.9-1,6.1-1.3,8.3c-0.3,6.4-4.5,9.6-6.1,14.7l0,0l0,0c-0.6-0.3-1-0.3-1.6-0.3
	c-5.1-0.3-10.6,4.5-15.4,5.4c-0.3,2.6-0.6,4.8-1,7.4c-1.6,10.6-8.3,16-18.6,17.6c-9.6,1.6-10.6,2.2-11.5,11.8c0,0.6-1,1-1.6,1.3
	c-1.9,0.6-3.8,1.3-5.8,1.9c-1,10.2-2.6,20.8-6.1,30.7C189.4,141.8,189,142.1,189,142.4z"/>
<path class="st5" d="M250.8,65.7L250.8,65.7c1.6-5.1,5.8-8.3,6.1-14.7c0-2.2,0.3-5.4,1.3-8.3c-2.2-7-4.2-14.1-6.4-21.1
	c-1-2.9-2.2-5.4-3.5-8s-4.5-3.8-6.7-1.6c-1.6,1.9-2.6,4.2-3.2,8c-1,9-1.6,17.6-2.6,26.5c-0.6,8-1.3,16-2.2,24
	c4.8-1,10.2-5.8,15.4-5.4C249.8,65.4,250.1,65.7,250.8,65.7z"/>
<path class="st0" d="M409.7,205.5L409.7,205.5c-5.4,9-4.8,22.4-17,26.5c-3.5,1.3-7,1.6-10.6,1.9c-2.6,0.3-5.1,0.6-7.7,1
	c-1,0.3-1.6,0.3-2.6,0.6c-12.8,3.5-20.2,12.8-30.1,19.2c-2.9,1.9-6.4,2.6-9.6,3.8l0,0c0.6,11.5-2.9,22.4-8,32.3
	c-1.9,3.5,1.6,9.6-1.9,11.8c-0.6,0.6-1.9,1-3.5,1c-1.9,0-3.8,0.6-5.4,1c1.3,3.5,2.2,7,2.9,10.9c11.2-0.6,21.4-3.8,30.7-9.3
	c-1.9-6.1-3.8-12.2-5.8-17.9c-1-2.6-1.3-5.1-1.6-7.7c-1.3-7,0-9.6,6.4-13.1c11.5-6.7,23.7-11.2,36.5-14.4c5.8-1.6,11.8-2.2,17.9-3.5
	c1.3-0.3,2.6,0,3.8,0c0,0.6,0.3,1.3,0.3,1.9c0,1,0,1.9,0,2.9c2.2-7,6.4-13.4,14.4-19.8c13.4-10.2,23.7-23,28.8-38.1
	c-5.4,1-10.2,0-14.7-3.5c-2.6-1.9-5.4-4.2-7.7-6.1c-0.3-0.3-1-0.6-1.3-1C419.6,193.3,416.1,200.3,409.7,205.5z"/>
<path class="st6" d="M374.9,216.7c0,1.6-1.3,3.2-2.6,3.8c-13.4,6.7-26.5,14.7-42.2,16.3c-6.7,0.6-11.5-1.6-14.7-7
	c-1.3-2.2-2.2-4.5-3.5-6.4c-0.6,2.2-1,4.8-1,7.7c0,1,8.6,18.9-7.7,8.6c-0.6-0.3-1.6,0-2.6,0c10.6,6.4,20.8,13.1,31.3,19.5l0,0l0,0
	c3.2-1.3,6.7-1.9,9.6-3.8c9.9-6.1,17.3-15.7,30.1-19.2c1-0.3,1.6-0.3,2.6-0.6c2.6-0.6,5.1-1,7.7-1c3.5-0.3,7-1,10.6-1.9
	c12.2-4.2,11.8-17.6,17-26.5l0,0c0,0,0,0-0.3,0.3c-3.8-1.9-8-3.8-11.8-5.8c-0.3-0.3-0.6-0.3-1.3-0.6l0,0c-2.9,2.2-5.8,4.8-9,6.7
	c-4.8,2.2-9.3,2.9-13.8,2.2C374.2,210.9,374.9,213.8,374.9,216.7z"/>
<path class="st7" d="M332,258.6c-10.6-6.4-20.8-13.1-31.3-19.5l0,0c-6.1-4.2-12.8-3.8-19.8-3.8c0,0.6,0.3,1.3,0.3,1.9
	c1,7-1.6,12.8-7.7,16.6c-6.4,4.2-13.4,7.4-20.5,9.6c0.3,2.9,0.6,5.8,1,8.6c0.6,7,1.3,13.8,1.6,20.8c13.1-2.9,26.2-3.8,39.7-3.8
	c7,0,12.2,3.2,15.7,9.3c1,1.9,1.9,4.2,2.9,6.4c1.6-0.6,3.5-1,5.4-1.3c1.6,0,2.6-0.3,3.2-1c3.5-2.2,0.3-8.3,1.9-11.8
	C329.1,280.9,332.3,270.4,332,258.6L332,258.6z"/>
<path class="st8" d="M86.7,302.1c1.6,0,3.2,0.3,4.5,0.3c1.3,0,2.2,0,3.5,0c0.6-8.6,1.6-17.3,3.5-25.6c-13.4,0.3-26.9,0.6-40.3,0.3
	c-1.9,8-3.5,16.3-4.5,24.6C64.6,300.8,75.8,301.1,86.7,302.1z"/>
<path class="st9" d="M418,235.2c-8,6.1-12.2,12.8-14.4,19.8c0,6.1,0,12.5,0,18.6c2.9-0.3,6.4,2.6,9.3,2.2c7.4-0.3,11.5-3.8,15-8.3
	c2.6-3.5,4.5-7.4,6.7-11.2c0.6-1.3,1.6-2.2,2.6-3.5c0.6-0.6,1.3-1.6,1.9-2.6c0-6.1,1.3-11.8,5.1-16.3c3.5-4.5,7.4-9,11.5-12.8
	c3.2-7,5.8-14.4,8-21.7c0.6-2.2,1.3-4.8,1.9-7c-5.8,1.3-11.2,2.9-17,4.2c-0.6,0-1.3,0.3-1.6,0.3C441.7,211.9,431.5,225,418,235.2z"
	/>
<path class="st5" d="M176.6,245.8c4.2,0.6,8,1.6,11.8,3.8c2.9,0.3,6.1,1,9,1.3l0,0c4.8,0,9.3,0.3,14.1,0.3
	c2.9-8.6,5.4-17.3,8.3-26.2c-0.3,0-0.3-0.3-0.6-0.3c1.3-2.2,0.6-5.4,2.2-7.4c0.3-0.3,0.6-0.3,1-0.6c0.6-1.6,1-3.2,1.6-4.8
	c-2.6-3.2-4.8-6.4-7.7-9.6c0,0-1.9,1-2.6,1.6l0,0c-0.3,0.3-0.6,0.6-1,1c-8.6,9.6-17.9,17-29.1,18.2C181,231,178.8,238.4,176.6,245.8
	z"/>
<path class="st10" d="M396.3,199.7c0.3,0.3,0.6,0.3,1.3,0.6c3.8,1.9,8,3.8,11.8,5.8c0,0,0,0,0.3-0.3c6.4-5.1,9.9-12.2,13.4-19.5
	c-3.5-3.2-6.7-6.4-10.2-9.3C409.1,185,401.7,192,396.3,199.7C396.3,199.4,396.3,199.4,396.3,199.7z"/>
<path class="st11" d="M2.6,388.4c0-1.3,0-2.2,0-3.5c-0.3,0.3-0.6,0.6-1,1c0,1,0,1.9,0,2.9C1.9,388.7,2.2,388.7,2.6,388.4z"/>
<path class="st12" d="M10.9,386.5c13.1-2.9,25.9-6.4,39-9c2.9-0.6,5.4-0.6,7.7-0.3c2.2-1,4.2-2.2,6.1-3.5
	c10.9-9,23.7-10.9,36.8-11.2c0.3-3.2,2.6-5.8,5.1-8c7.4-6.4,16-8.6,25.6-9.6c3.2-0.3,6.1,2.6,5.4,5.4c0,0.6-0.3,1.3-0.3,1.6
	c-1.3,4.2-2.2,8.3-3.5,12.8c3.8-1.9,8-3.2,12.8-1c7,3.5,15-0.3,22.7,0c10.9-29.1,33.6-51.8,65.2-64.3c-1-6.7-2.9-13.4-5.8-19.8
	c-3.8-8.3-11.5-11.5-22.7-6.1c-12.5,6.1-26.2,10.6-40,8c-0.3,1-0.6,1.6-0.6,2.6c-0.6,1.9-1.9,4.2-3.8,5.4c-4.5,3.2-9,6.4-13.8,8.6
	c-15.4,7.7-31,13.8-48,16.6c-1.3,0.3-2.6,0.3-4.5,0.3l0,0l0,0c0-4.5,0.3-8.6,0.6-13.1c-1,0-2.2,0-3.5,0c-1.6,0-3.2,0-4.8-0.3
	c-10.9-1-22.1-1-32.9-0.6c-1.3,11.8-1.6,24-1,36.5c0,1.6-0.6,3.5-1.6,4.8c-5.4,5.4-10.9,10.9-16.6,15.7
	c-9.6,8.3-19.8,16.3-29.4,24.3c-1,0.6-1.6,1.3-2.2,2.2c0,1.3,0,2.2,0,3.5C5.4,387.8,8,387.1,10.9,386.5z"/>
<path class="st8" d="M238.3,297.6c5.4-1.9,11.2-3.5,17-4.5c-0.3-7-1-13.8-1.6-20.8c-0.3-2.9-0.6-5.8-1-8.6c-1.6,0.3-2.9,1-4.5,1.3
	c-13.1,3.5-26.5,4.5-40,4.5c-0.6,0-1.3-0.3-2.2-0.3l0,0l0,0c0.3-1,0.3-1.9,0.6-2.6c1.3-4.2,2.6-8.3,3.8-12.8
	c-7-0.6-12.5-1.6-13.4-2.9l0,0l0,0c-2.9-0.3-6.1-1-9-1.3c-3.8-2.2-8-3.5-11.8-3.8c-3.8,12.2-7.7,24-11.5,36.1
	c13.4,2.6,27.2-1.9,40-8c11.2-5.4,18.9-2.2,22.7,6.1c2.9,6.4,4.8,13.1,5.8,19.8C234.8,298.9,236.7,298.2,238.3,297.6z M188.4,249.9
	c2.9,0.3,5.8,1,9,1.3C194.1,250.9,191.3,250.2,188.4,249.9z"/>
<path class="st8" d="M124.1,405c5.8,1.6,11.8,1,17.3-2.6c6.4-4.2,13.1-8,20.2-10.6c1-9.9,3.2-19.2,6.4-28.1
	c-7.7-0.3-15.4,3.5-22.7,0c-4.8-2.2-9-1-13.1,1c-2.2,8-4.5,16-6.7,24c-0.3,1.3-1.3,2.6-2.6,2.9c-2.6,0.6-4.8,0-7-1.3
	c-9.3-6.1-13.8-15-15.7-25.6c0-1,0-1.6,0-2.6c-13.1,0.3-25.6,2.2-36.8,11.2c-1.6,1.3-3.8,2.6-5.8,3.5c4.8,0.6,9,2.9,12.2,8.6
	c5.1,9.3,12.8,17.3,20.5,24.6c1,1,1.6,1.6,2.6,2.6C99.8,405,111.6,401.5,124.1,405z"/>
<path class="st7" d="M144.9,446.6c2.9-1.6,3.8-1,4.8,1.3c9-6.4,15-16.6,24.6-22.7c-9-4.8-13.4-12.5-13.4-23.3c0-3.2,0.3-6.7,0.6-9.9
	c-7,2.6-13.4,6.4-20.2,10.6c-5.4,3.5-11.5,4.5-17.3,2.6c-12.5-3.5-24.3,0-31,8c6.4,6.4,12.8,12.5,18.9,18.9c1,1,2.2,2.6,2.2,3.8
	c0,5.4,0.3,10.9,0,16.3c5.4,0,10.9-0.3,16.6-0.6C135.6,451.1,140.4,449.2,144.9,446.6z"/>
<path class="st9" d="M350.6,335.3c1.6-1.6,2.9-3.2,4.5-4.8c-2.9-8-5.4-15.7-8-23.7c-9.3,5.4-19.5,8.6-30.7,9.3
	c0.3,1.6,0.3,3.5,0.3,5.4c0.3,10.6,3.2,20.5,7.7,29.7c3.5-1,7-2.6,10.6-5.4C339.7,342,346.4,339.8,350.6,335.3z"/>
<path class="st13" d="M149.7,447.9c-1.3-2.2-2.2-2.9-4.8-1.3c-4.5,2.6-9.3,4.5-14.1,4.8c-5.4,0.3-10.9,0.3-16.6,0.6
	c0,3.2-0.3,6.7-0.6,9.9c-0.6,5.8-1.9,11.8-3.2,17.6c1,0,2.2,0,3.2,0c3.5,0,4.2,10.6,8,1.6c1.3-3.2,3.8-5.4,6.1-8.3l0,0
	c0.3-0.3,0.6-0.6,1-1.3c1-3.5,1.9-7,3.2-10.6c3.2-8.6,9-12.5,16.6-11.2C149.1,448.9,149.4,448.2,149.7,447.9L149.7,447.9z"/>
<path class="st9" d="M200.2,435.1c-0.6-0.3-1.3-0.3-1.9-0.6c-2.2-0.6-4.5-1.3-6.7-2.2c1.3,12.8-9.3,11.8-17,12.5
	c-7.4,0.6-13.4,6.7-20.8,6.4c0.3,0,0.3,0,0.6,0.3c7.4,3.2,14.4,7,21.4,10.6c1-0.6,1.9-1.3,2.9-1.9
	C187.4,454.9,199.6,448.5,200.2,435.1z"/>
<path class="st9" d="M127.6,472.5L127.6,472.5c-0.6,2.2-1.6,4.5-1.3,6.1c0.6-1.3,1-2.9,1.6-4.2c0.3-1,0.6-1.9,1-3.2
	C128.6,471.6,127.9,471.9,127.6,472.5L127.6,472.5z"/>
<path class="st7" d="M98.5,276.1c1.6-7,3.5-13.8,6.1-20.5c1-2.6,1.9-4.8,3.2-7.4l0,0c-0.3,0-0.3,0-0.6,0.3c-0.6,0.3-1.3,0.3-1.9,0.6
	l0,0c-2.6,0.6-4.8,1-7,1.6c-2.2,0.6-4.5,1-6.7,1.6c-9,1.9-17.9,2.9-27.2,3.5c-2.2,6.7-4.2,13.8-5.8,20.5
	C71.3,276.8,84.8,276.8,98.5,276.1z"/>
<path class="st14" d="M211.4,251.8c-4.8,0-9.3-0.3-14.1-0.3l0,0c0.6,1.3,6.4,2.2,13.4,2.9C210.8,253.1,211.1,252.5,211.4,251.8z"/>
<path class="st15" d="M197.3,251.2c-2.9-0.3-5.8-1-9-1.3"/>
</svg>
