<svg xmlns="http://www.w3.org/2000/svg" xml:space="preserve" viewBox="0 0 512 512"><path d="M157.2 245.6c-7.9-14.7-17.6-27.9-29.1-39.9-10.1-10.6-19.3-21.9-26.2-35-6-11.4-10.1-23.3-12-36.1-2.3-16.1-1.2-31.8 4.9-47 3.1-7.8 7.4-14.8 12.9-21.2 1.2-1.4 1.7-3.4 2.5-5.1 3.9-8.8 10.9-13.4 20.1-15.2 5-.9 9.9-.7 14.8.4.7.2 1.7.1 2.3-.2 21.4-12.1 44-21.7 66.8-30.8C226.6 10.6 239.1 6.1 252 3c5.8-1.4 11.8-2.2 17.7-3 8.2-1.2 15.3 1.5 21.6 6.6 14.6 11.7 27 25.3 36.4 41.5 2.3 4 4 8.3 4.7 13 .8 5.4-1 10.1-4.4 14.2-16.1 19.2-35.4 34.4-58 45.3-16 7.7-32.7 13.3-50.2 16.6-14.2 2.7-28.6 4-43.2 3.1-12.4-.7-24.2-3.6-35.9-7.3-12.7-4-26.6 1.3-33.2 12.3-4 6.7-4.7 13.8-2 21.2.2.4.4.8.9 1.5.7-2.4 1.3-4.4 1.8-6.4 3-11.5 14.2-18.4 26.4-16 4.9.9 9.5 3.2 14.3 4.7 16.3 5.3 33.1 7.1 50.1 6.1 36.1-2.1 69.8-12.2 100.4-31.8 7.4-4.8 14.3-10.2 20.5-16.6 3.7-3.8 7.7-7.4 12.9-9.2 4.8-1.6 8.6-.1 10.9 4.4 1.5 3 1.8 6.1 1.7 9.3-.2 10.1-4.1 18.6-10.8 26.1-14.5 16.4-32.3 28.4-51.5 38.6-16.1 8.5-33.2 14.5-50.7 19.5-2 .6-4 1.3-6 2-.2.1-.3.2-.7.6.9.3 1.6.6 2.3.7 5.7 1.1 11.3.2 16.9-.7 14-2.2 27.3-6.6 40.2-12.4 1.4-.6 2.8-1.3 4.4-1.7-1 1.4-2 2.7-2.9 4.1-2.3 3.5-4.5 7.1-6.9 10.6-.6.8-1.5 1.6-2.4 1.9-13 4.3-26.3 7.4-39.7 9.7-4.3.7-8.6 1.5-13 2.5 7.2 2.6 14.7 3.4 22.3 3.5 7.6.2 15.2 0 22.5 0-1.7 5.7-3.6 11.9-5.4 18-4.7-1.1-9.5-2.6-14.4-3.3-17.1-2.4-33.4.2-48.3 9.5-1.2.7-1.6.1-2.3-.5-3.6-2.9-7.4-5.4-11.9-6.6-7.1-2-13.8-.6-20 3.2-3 1.8-5.9 4-8.8 6-.2 1.2-.7 1.5-1.1 1.8m11-175.1c.1-.1.2-.2 0 0 .1-.2.1-.1 0 0-.1-.4-.1-1-.4-1.3-7.6-7.5-16.5-12.8-27.1-14.8-11.4-2.2-20.5 2.9-24.1 13.7-4.1 12.3-1.9 24 4.1 35.2.1.2.4.4.8.7.3-3.6.5-6.9.8-10.3.9-11 8-20.1 18.3-23.4 6.4-2 12.9-2.1 19.5-1.4 2.8.4 5.4 1.1 8.1 1.6m-34.8 39.9c3.1-7.2 6.3-13.7 12.7-17.8 6.2-4.1 13.1-6 20.2-8-.8-.6-1.6-1-2.5-1.3-9.1-3.2-20.7-.1-27 7.2-4.7 5.6-6.9 11.9-3.4 19.9m121.7-71.5c2.1-.4 4-.5 5.7-1.1.8-.3 1.9-1.2 2-2 .1-.6-.7-1.8-1.5-2.2-5.5-2.9-11.3-3.8-17.4-2.4-.9.2-2.1 1.2-2.2 2s.9 1.9 1.6 2.6c.6.6 1.5 1 2.4 1.2 3.2.7 6.4 1.3 9.4 1.9m32.8-20.1c-.2-3.9-1.3-7.5-3.8-10.5-.7-.8-2.3-1.6-3.1-1.3-.9.4-1.8 1.8-2 2.9-.5 3.8.6 7.4 2.6 10.7 1 1.6 2 3.6 4.3 2.9 2.3-.6 1.8-2.9 2-4.7M139.7 463.4c-3.9-2.4-7.8-4.7-11.6-7.2-12.6-8.2-24-17.6-32.5-30.2-6.4-9.6-10.2-20.1-11-31.7-.1-2-.2-4-.3-5.9-.1-1.2.3-1.8 1.6-2 8.8-1.6 17.3-3.9 25.4-7.8 2.6-1.3 5-3.1 7.3-5-10.9 2.2-21.7 3.4-33 1.7 1.3-8.4 4-16.3 6.9-23.8 13.8 1.8 27.5 3.6 41.2 5.4.1-.3.2-.5.4-.8-8.3-11.7-19.6-20.3-31.4-29 4.5-6.4 9-12.7 13.5-19.2 7.7 9.2 16.2 16.4 27.6 20.7-2.6-3.6-5-6.8-7.2-10-2.2-3.3-4.2-6.7-6.1-10.2s-3.4-7.2-4.9-11.1c6.7 3.3 13.5 3.7 20.5 2.1 6.9-1.6 13.1-5 18.9-8.8.2.1.3.1.4.2 3.2 2.1 4.5 4.6 4.1 8.9-1 8.7.5 17.2 3.5 25.5 1.1 3.1 3.3 5.3 5.9 5 1.3-.1 2.5-.8 4-1.3-.1.4-.1 1.2-.2 2-1.9.2-3.7.5-5.5.7-1.5.1-1.9 1-1.4 2.2 1.4 2.9 2.8 5.9 4.4 8.7.4.7 1.1 1.3 1.8 1.7 1.4.8 2.9 1.5 5 2.5-2.3 1-1.5 1.9-.8 2.8 4.9 5.9 10.6 10.8 17.1 14.8 12.8 7.7 26.7 10.8 41.4 9.2 27.3-3 46.5-17.7 58-42.3 5.2-11 6.8-22.8 5.5-34.9 2.8-1.9 5.7-3.9 8.8-6 3.7 3.1 7.5 6.4 11.4 9.6-4.2 10.3-9.8 19.4-16.3 28.1 10.2-3.8 18.7-10.2 26.6-18 4.2 5.8 8.4 11.5 12.5 17.2-5.7 4.7-11.3 9.1-16.7 13.7-5.3 4.6-10.2 9.6-14.1 15.5.1.2.1.4.2.7 14.2-1.9 28.4-3.7 42.8-5.6 2.6 7.7 4.5 15.7 5.4 24.3-11.2 1.3-22.1.5-33-2.5-.1.2-.2.4-.3.5 1.4 1.1 2.7 2.4 4.2 3.4 6.9 4.4 14.7 6.6 22.6 8.4 1.8.4 3.7.7 5.7 1.1.3 6.9-.9 13.5-2.7 20-4.5 16.1-13.5 29.3-26.4 39.8-6.3 5.1-13.1 9.6-19.7 14.3-.5.4-1.1.8-1.6 1.1.1.2.2.4.2.6 1.3-.4 2.7-.6 3.9-1.2 11.9-4.9 23.3-10.6 33.8-17.9.3-.2.7-.4 1.1-.7 9.9 5.6 18.7 12.1 20.1 24.6 15.5 1.1 22.8 14.7 20.9 26.6-5.8-2.7-11.9-4.1-18.4-2.8-1.3-6.3-4.8-10.6-10.9-12.3-5.2-1.4-10 .2-14.5 2.5-6.2 3.2-11.4 7.5-15 13.5-.1.2-.3.4-.3.3-.8-2.5-1.4-5.2-2.6-7.6-2.3-4.5-7.4-6.7-12.3-5.5-7.6 1.8-13.6 6.2-18.4 12.2-1 1.2-1.3 2.9-2.1 4.7-5.2.3-10.3-1.2-14.6-4.8-6.3-5.4-8.5-12.4-7.9-20.5.5-6.9-1-13.4-4.1-19.6-.6-1.3-.4-2 .4-3 8.8-10.6 16.2-22.1 21-35 1.5-3.9 2.7-7.9 2.2-12.1-.3-2.4-1-4.7-1.6-7.1h-.7c-.4 1.4-.8 2.8-1.2 4.1-8.4 23.4-22.4 42.2-44.7 54.1-5.5 2.9-11.5 5.1-17.5 6.7-5.2 1.4-10.5 0-15.5-1.9-21.2-8.2-37.3-22.3-48.5-42.1-3.5-6.1-6-12.7-8.1-19.4-.1-.3-.2-.6-.5-1.4-1.8 3.4-2.3 6.6-2.1 10 .4 7.1 3.4 13.4 6.5 19.6 4.8 9.7 11 18.5 18.1 26.8-3.3 6.4-4.5 13.2-4.2 20.3.1 3.4.1 6.9-.6 10.1-2.1 10-11.8 17.1-21.5 16.5-5.3-9.2-12.9-14.9-23-16.8-5.9-1.1-11.9 4-12.6 10.2q-.15 1.35-.3 2.4c-2.7-2.8-5.3-5.8-8.4-8.3-4.2-3.5-8.9-6.3-14.4-7.4-9.2-1.9-16.3 3-17.8 12.5-6.7-1.5-13.2-.3-19.3 2.8-2.3-13.7 6.1-25.3 19.2-26.8.4-2 .6-4 1.1-6 1.5-5.6 5-9.8 9.2-13.4 1.7-1.5 3.7-2.7 5.5-4.2 1-.8 1.7-.7 2.7 0 11.3 8.7 24.3 14.1 37.7 18.7.4.1.8.1 1.2.2.4 0 .7.1 1.1.1v.3c.1 0 .1-.1.2-.1-.1 0-.2-.1-.3-.1.4-.5.1-.7-.1-.9m242.7-23.6c-5.1-3.6-10-7.2-15-10.7-.9-.6-.9-1-.4-1.9 4.5-8.5 7.8-17.5 9.6-27 1.7-9.4 2.3-18.9 1.3-28.4-.6-6.1-1.7-12.1-2.5-18.2 3.1.8 5.5 2.2 7.2 5.3 3.3 6 7.3 11.5 12.4 16.2.9.8 1.6 2 3.1 1.3.2-.1.6.4.9.7.7.6 1.4 1.3 2.4 2.2 2.9-7.9 2.4-15.6.7-23.4 2.1-1.2 3.8-1.7 6.2-.2 4.6 2.9 9.8 4.3 15.3 4.5 1.8.1 3.5-.2 5.5-.4-1.8-6-5.3-10.9-9.3-15.4 1.7-2.6 3.4-5.2 4.9-7.5 2.8.2 5.6.6 8.3.4 1.7-.1 3.4-1.1 5.1-1.6-.7-1.4-1.2-3-2.2-4.3-2-2.6-4.3-5.1-6.5-7.6l-.7.7c.3-2.1.5-4.2.9-6.2.1-.6 1-1.2 1.6-1.4 3.7-1.1 6.5-3.2 9.1-6 1.2-1.4.8-2-.6-2.8-2.9-1.6-5.9-1.3-9-.9-.5.1-.9.2-1.7.4-1.1-4.6-2.3-9.1-3.1-13.7-.3-1.9.5-3.8 2.3-4.9 1.9-1.1 3.6-.4 5.1.9 4.1 3.4 6.8 7.9 9.2 12.6 5.4 10.6 7.1 21.9 7.2 33.6.1 18.8-3.1 36.7-12 53.5-6.4 12.1-15.2 22.3-25.7 31.1-9.1 7.8-19.4 13.7-29.6 19.1M202.1 298.1c.3-1.5.4-3.1.8-4.6.6-2.6 1.8-4.4 4.9-5 5.1-1.1 7.3-5.4 6.2-10.5-.4-1.9.1-3.1 1.6-4.3 13.4-10.5 33.9-10 46.8 1.1 1 .8 1.3 1.7 1.3 3-.1 1.5.1 3.1.4 4.6.8 3.5 3 5.8 6.5 6.6 1.3.3 1.9.9 2.3 2.2 7.1 20.8-6 43.3-27.6 47.7-9.6 1.9-18.5.4-26.8-4.9-.9-.6-2-1-3.2-1.7-.9-2.5-2.5-4.9-5.4-6.2-.3-.1-.5-.2-.8-.3-.3 0-.6 0-.9.1-.1-.3-.3-.5-.4-.8 0-1.2.3-2.5-.1-3.5-.7-2-1.9-3.9-2.9-5.8-.3-.3-.5-.6-.8-.9-.5-.3-1.1-.6-1.6-.9v-1.2c.2-.6.5-1.2.4-1.8-.2-1.7-.5-3.5-.7-5.2-.1-.4-.1-.8-.2-1.2v-4.1c0-.8.1-1.6.2-2.4m.7-23.8c-4-1.7-7.7-3.6-11.7-4.9-1.8-.6-4.1-.4-5.9.3-4 1.5-5.5 5.9-3.1 9.4 1.8 2.8 4.4 5 6.6 7.5.6.6 1.3 1.1 2.3 2-4.7 1-8.9.5-12.9-1.4-6.8-3.2-11.8-8.6-16.3-14.4-1.1-1.4-2.1-2.6-4.3-1.5-1.6.8-1.6 1.9-1.1 3.2 1 2.5 2.1 5 3.3 7.7-.7.4-1.6 1.1-2.6 1.6-5.7 3.4-11.8 6.1-18.5 6.4-7.3.3-13.9-5.2-15.7-12.3-1.2-4.9-.2-9.5 1.7-13.9 3.9-9 9.2-17.1 14.8-25.1.4-.6.9-1.2 1.4-2 2.8 4.5 5.6 8.7 8.4 13.1-2.5 1.7-5 3.2-7.4 4.9-1.2.9-2.3 1.9-3.4 3s-.9 2.3.6 2.7c2.1.5 4.3.8 6.4.7 7.1-.5 12.7-4.4 18.2-8.5 2.9-2.2 5.9-4.4 9.1-6.2 7.8-4.5 14.9-3.2 20.9 3.6 4.6 5.2 6.7 11.4 8 18 .4 2 .8 4.1 1.2 6.1m81.9 22.6c4.4.7 8.7 1.3 13.1 2 .8 8.7-.1 17.4-3.5 25.8-7.4 18.1-20.3 30.6-39.1 36.1-20.2 5.9-38.7 2-55-11.5-1.5-1.2-3.3-2.1-5-3.2-.5-.4-.8-1.1-1-1.4 4.4-2.1 8.8-4.1 13.2-6.1 2.9 6.9 24.8 13.4 37 11.3 12.8-2.2 23.3-8.2 31.2-18.5 7.9-10.2 10.7-21.9 9.1-34.5m2-9.7c2.4-3.6 4.9-6.9 7-10.5 1.6-2.8 1.1-5.8-.6-8.5-1.8-2.8-4.6-3.4-7.2-1.4-1.9 1.5-3.5 3.4-5.2 5.2-1.6 1.7-3.2 3.3-5 5.3-1-9.3-1.1-18.2 3.4-26.3 3.3-5.9 8-10.1 14.9-11.4 4.9-1 9.2.8 13.3 3.5 13.2 8.9 15 28.5 3.3 39.1-7.1 6.2-15.4 7.1-23.9 5M211 263.7c-1.4-4.1-2.9-8.4-4.4-12.7 4.1-2.7 8.7-4.6 13.6-6 14.7-4 29.1-3.6 43.2 2.6 1.5.7 3.4 1.2 4.2 2.4.6 1-.3 2.8-.5 4.3-.5 3-1 6-1.6 9.1-18.3-11-36.4-10.6-54.5.3M83.2 511c-1.2-8.4 0-15.9 6.2-21.9 5.4-5.2 13.4-6.3 20-2.9 3.6 1.9 6.7 4.4 8.8 8 2 3.6.5 6.2-3.6 6.6-9.4 1.1-18.7 2.9-27.1 7.5-1.3.9-2.6 1.8-4.3 2.7m295-1.1c-8.8-5.7-18.3-8.7-28.4-9.9-1.4-.2-2.8-.4-4.2-.7-2.6-.6-3.7-2.7-2.7-5.1 2.3-5.7 7-8.9 12.6-10.4 10.3-2.7 19.6 4.2 22.2 14.3.9 3.9 1.3 7.7.5 11.8M130.3 512c-2-5.6-3-11-1.5-16.5 1.3-5.3 6.3-8.4 12.2-7.4 4.8.7 8.9 3.1 11.8 7.1q2.55 3.6-1.5 5.1c-7.7 2.5-14.7 6.1-21 11.7m200.4-2.1c-6.1-5.3-13-8.6-20.3-11.2-3.3-1.2-3.9-3-1.7-5.7 3.8-4.7 8.7-7.4 14.9-6.5 3.9.5 6.7 2.7 8 6.4 2.2 5.7 1 11.3-.9 17M202.4 312.8v1.2c-2.6 1.2-5.1 2.4-7.8 3.5-4 1.7-8 3.3-12.1 4.9-.6.2-1.3.3-1.9.1-.4-.1-.9-1.1-.8-1.2.5-.6 1.2-1 2-1.6-2-6.6-3-13.6-2.1-20.6h11.2c-.1 5.6-.2 11.3 1.8 17.1 3.4-1.2 6.5-2.3 9.7-3.4m5.3 12.3c.1.3.3.5.4.8-6.1 4.1-12.1 8.3-18.2 12.4-.8.5-1.6 1.3-2.4 0-.5-.9-1.8-2 0-3 .3-.2.3-1.3.1-1.7-.6-.9-1.5-1.6-2.3-2.3-.5-.4-1.2-.5-1.9-.8.2-.4.4-.7.7-1.1 4.9-1 9.9-1.9 15-2.9-.5.9-1 1.7-1.4 2.5.1.2.3.3.4.5 3.2-1.4 6.4-2.9 9.6-4.4m81.2-95.3c-1.8.9-3.2 1.6-4.2 2.2-2.6-1.7-5-3.3-7.7-5.1.6-1.6 1.5-3.5 2.4-5.9 3.2 2.9 6.2 5.8 9.5 8.8M187.6 346.1c1.1-1 2.1-2 3.3-3.2.8.5 1.5 1 2.4 1.7-2.2.6-3.9 1-5.7 1.5m85.5-106.3c.2-1.3.4-2.5.6-3.9 2.5 1.7 1 2.8.1 4-.3-.1-.5-.1-.7-.1"/></svg>