<svg xmlns="http://www.w3.org/2000/svg" xml:space="preserve" viewBox="0 0 512 512"><path d="M256 215.9c-21.5 0-38.9-17.4-38.9-38.9s17.4-38.9 38.9-38.9 38.9 17.4 38.9 38.9-17.4 38.9-38.9 38.9M511.9 256c0 141.4-114.6 256-256 256S0 397.4 0 256 114.6 0 256 0s255.9 114.6 255.9 256m-98.8 41.5v-2.4l-29.2.1h-45.8c-.4 0-.8.1-1.2.2h-2.6l.6.6h-.1c5.7 5.7 11 11.2 16.4 16.3l2.7 2.7c1.6 2 1.6 3.7-.2 6.5-5 7.4-10.6 14.1-16.9 20.1l-.2.2c-.8.8-1.6 1.5-2.4 2.2l-.6.6-2.4 2.1-.1.1c-6.6 5.6-13.9 10.4-22 14.2-9.6 4.6-20.1 7.5-30.1 11.2-.1.1-.2.1-.3.2-1 .2-1.9.4-2.9.5q-.9-.6-.9-2.7V254.3c34.6-8.5 60.3-39.8 60.3-77 0-43.8-35.5-79.3-79.3-79.3s-79.3 35.5-79.3 79.3c0 37.2 25.6 68.4 60.2 77 0 29.1.1 58.2.1 87.3v28.8c-.1 1-.3 1.9-.8 2.3l-3.3-.6c-.6-.3-1.2-.7-1.9-.8-11.4-2.5-21.8-6.4-31.3-11.7-17.2-9.7-31.8-23.6-42.6-40.5-.3-1.1-.2-2.1.3-3.2l20.3-20.3h-.1l.1-.1c-3-.1-4.7-.3-6.4-.3H99v.5h-.2v72.4c0 1 .2 2 .4 2.9v2.9l22.4-22.4c31.3 38.8 79.7 63.7 134 63.7 27.7 0 53.8-6.5 77-18 16.6-7.9 31.6-18.6 45-32.4q6.6-6.6 12.3-13.8l22.7 22.7v-3.6c.2-.7.3-1.5.3-2.2.2-23.4.2-46.9.2-70.4"/></svg>