<svg xmlns="http://www.w3.org/2000/svg" xml:space="preserve" id="android-auto_svg__Livello_1" x="0" y="0" version="1.1" viewBox="0 0 512 512"><style>.android-auto_svg__st5,.android-auto_svg__st6{opacity:.2;fill-rule:evenodd;clip-rule:evenodd;fill:#fff;enable-background:new}.android-auto_svg__st6{fill:#1a237e}</style><path d="M39.8 443.7c-18.9 0-34.1-15.3-34.1-34.1 0-6.2 1.7-12 4.6-17L226.4 17.1C232.2 6.9 243.3 0 255.9 0s23.7 6.9 29.6 17.1l216.2 375.4c2.9 5 4.6 10.8 4.6 17 0 18.9-15.3 34.1-34.1 34.1z" style="fill-rule:evenodd;clip-rule:evenodd;fill:#03a9f4"/><linearGradient id="android-auto_svg__SVGID_1_" x1="194.869" x2="495.504" y1="245.587" y2="74.857" gradientTransform="matrix(1 0 0 -1 0 512.4)" gradientUnits="userSpaceOnUse"><stop offset="0" style="stop-color:#1a237e;stop-opacity:.2"/><stop offset="1" style="stop-color:#1a237e;stop-opacity:2.000000e-02"/></linearGradient><path d="M506.3 409.6 255.9 159.3v284.4h216.2c18.9 0 34.1-15.3 34.2-34.1" style="fill:url(#android-auto_svg__SVGID_1_)"/><path d="M226.4 17.1 10.2 392.5c-2.9 5-4.6 10.8-4.6 17 0 18.9 15.3 34.1 34.1 34.1H256V0c-12.7 0-23.8 6.9-29.6 17.1" style="fill-rule:evenodd;clip-rule:evenodd;fill:#039be5"/><path d="m255.9 159.3 193.4 341.3-11.4 11.4-182-68.3-182 68.3-11.4-11.4z" style="fill-rule:evenodd;clip-rule:evenodd;fill:#f1f1f1"/><path d="m255.9 159.3 193.4 341.3-11.4 11.4-182-68.3" style="fill-rule:evenodd;clip-rule:evenodd;fill:#e1e1e1"/><path d="m255.9 162.2 192.4 339.5 1-1.1-193.4-341.3L62.5 500.6l1.1 1z" class="android-auto_svg__st5"/><path d="M94.7 441.2h-55c-18.4 0-33.4-14.6-34.1-32.9v1.3c0 18.9 15.3 34.1 34.1 34.1h53.5z" class="android-auto_svg__st6"/><path d="m438 509.5-182.1-68.3-182 68.2L63.4 499l-.9 1.6L73.9 512l182-68.3L438 512l11.3-11.4-.9-1.6z" style="opacity:7.000000e-02;fill-rule:evenodd;clip-rule:evenodd"/><path d="M506.2 408.3v.5c0 .3 0 .6-.1.8 0 .3-.1.6-.1.9-.7 6.6-3.2 12.6-7.1 17.6-.2.2-.3.4-.5.6s-.3.4-.5.6-.3.4-.5.6-.4.4-.5.6c-.2.2-.4.4-.5.6-.2.2-.4.4-.6.5-.2.2-.4.3-.6.5s-.4.3-.6.5l-.1.1c-.2.2-.4.3-.5.5l-.1.1c-.2.1-.4.3-.5.4l-.1.1c-.2.1-.4.3-.5.4 0 0-.1 0-.1.1-.2.1-.4.3-.6.4l-.1.1c-.2.1-.4.3-.6.4-.1 0-.1.1-.2.1-.2.1-.3.2-.5.3-.1 0-.1.1-.2.1-.2.1-.3.2-.5.3-.1 0-.1.1-.1.1l-.6.3c-.1 0-.1.1-.2.1-.2.1-.3.2-.5.3-.1 0-.1.1-.2.1-.2.1-.4.2-.5.3-.1 0-.1.1-.2.1-.2.1-.3.2-.5.3-.1 0-.2.1-.3.1-.2.1-.3.2-.5.2-.1 0-.2.1-.2.1-.2.1-.3.1-.5.2-.1 0-.2.1-.3.1-.2.1-.3.1-.5.2-.1 0-.2.1-.3.1-.2.1-.3.1-.5.2-.1 0-.2.1-.3.1-.2.1-.3.1-.5.2-.1 0-.2.1-.3.1-.2.1-.3.1-.5.1-.1 0-.3.1-.4.1s-.3.1-.4.1-.2.1-.3.1-.3.1-.5.1c-.1 0-.3.1-.4.1s-.3.1-.5.1c-.1 0-.3.1-.5.1-.1 0-.3.1-.4.1s-.3.1-.4.1-.3.1-.4.1-.3.1-.4.1-.3.1-.4.1-.3 0-.5.1c-.1 0-.3 0-.4.1-.2 0-.3 0-.5.1h-58.8l1.4 2.5h53.6c.9 0 1.8 0 2.6-.1h.1c.2 0 .5 0 .7-.1.3 0 .5-.1.8-.1h.2c.2 0 .5-.1.7-.1h.2c.2 0 .4-.1.6-.1.1 0 .2 0 .3-.1.2 0 .4-.1.6-.1.1 0 .2 0 .2-.1.2 0 .4-.1.6-.1.1 0 .2-.1.3-.1.2 0 .3-.1.5-.1.1 0 .2-.1.4-.1.1 0 .3-.1.5-.1.1 0 .2-.1.3-.1.2-.1.3-.1.5-.1.1 0 .3-.1.4-.1.1-.1.3-.1.4-.1.1-.1.3-.1.4-.1s.3-.1.4-.1c.1-.1.3-.1.4-.2s.3-.1.4-.1c.1-.1.3-.1.4-.2.1 0 .2-.1.3-.1.1-.1.3-.1.5-.2.1 0 .2-.1.3-.1.1-.1.3-.1.4-.2s.2-.1.3-.1c.1-.1.3-.1.5-.2.1-.1.2-.1.3-.1.2-.1.3-.2.5-.3.1 0 .2-.1.3-.1.2-.1.3-.2.5-.3.1 0 .2-.1.2-.1.2-.1.3-.2.5-.3.1 0 .1-.1.2-.1.2-.1.3-.2.5-.3.1 0 .1-.1.2-.1.2-.1.3-.2.5-.3.1 0 .1-.1.2-.1.2-.1.4-.3.5-.4l.1-.1c.2-.1.4-.3.5-.4l.1-.1c.2-.1.3-.3.5-.4l.1-.1c.2-.1.3-.3.5-.4l.1-.1c.2-.1.3-.3.5-.4l.1-.1c.2-.2.4-.3.5-.5l.1-.1c.2-.2.4-.3.6-.5s.4-.3.5-.5c.2-.2.4-.4.5-.6.2-.2.4-.4.5-.6.2-.2.3-.4.5-.6s.3-.4.5-.6.3-.4.5-.6.3-.4.5-.6c3.6-4.8 6-10.6 6.6-16.9 0-.3.1-.6.1-.9s0-.6.1-.8v-1.8c.4-.7.3-1.1.3-1.5" class="android-auto_svg__st6"/><path d="M10.2 395.1 226.4 19.7c2.9-5.1 7.2-9.4 12.3-12.4s11-4.7 17.3-4.7c12.6 0 23.7 6.9 29.6 17.1l216.2 375.4c2.7 4.7 4.3 10 4.5 15.7v-1.3c0-6.2-1.7-12-4.6-17L285.5 17.1C279.6 6.9 268.6 0 256 0c-6.3 0-12.2 1.7-17.3 4.7s-9.3 7.3-12.3 12.4L10.2 392.5c-2.9 5-4.6 10.8-4.6 17v1.3c.3-5.7 1.9-11 4.6-15.7" class="android-auto_svg__st5"/><radialGradient id="android-auto_svg__SVGID_00000157266038258657264850000000727471624180381071_" cx="188.894" cy="478.062" r="571.464" gradientTransform="matrix(1 0 0 -1 0 512.4)" gradientUnits="userSpaceOnUse"><stop offset="0" style="stop-color:#fff;stop-opacity:.1"/><stop offset="1" style="stop-color:#fff;stop-opacity:0"/></radialGradient><path d="M497.4 432.6c.2-.2.4-.4.5-.6.2-.2.3-.4.5-.6s.3-.4.5-.6.3-.4.5-.6c3.6-4.8 6-10.6 6.6-16.9 0-.3.1-.6.1-.9s0-.6.1-.8v-1.8c0-6.2-1.7-12-4.6-17L285.5 17.1C279.6 6.9 268.6 0 256 0c-6.3 0-12.2 1.7-17.3 4.7s-9.3 7.3-12.3 12.4L10.2 392.5c-2.9 5-4.6 10.8-4.6 17 0 18.9 15.3 34.1 34.1 34.1h55l-32.2 56.9L73.9 512l182-68.2L438 512l11.4-11.4-32.2-56.9h55c.9 0 1.8 0 2.6-.1h.1c.2 0 .5 0 .7-.1.3 0 .5-.1.8-.1h.2c.2 0 .5-.1.7-.1h.2c.2 0 .4-.1.6-.1.1 0 .2 0 .3-.1.2 0 .4-.1.6-.1.1 0 .2 0 .2-.1.2 0 .4-.1.6-.1.1 0 .2-.1.3-.1.2 0 .3-.1.5-.1.1 0 .2-.1.4-.1.1 0 .3-.1.5-.1.1 0 .2-.1.3-.1.2-.1.3-.1.5-.1.1 0 .3-.1.4-.1.1-.1.3-.1.4-.1.1-.1.3-.1.4-.1s.3-.1.4-.1c.1-.1.3-.1.4-.2s.3-.1.4-.1c.1-.1.3-.1.4-.2.1 0 .2-.1.3-.1.1-.1.3-.1.5-.2.1 0 .2-.1.3-.1.1-.1.3-.1.4-.2s.2-.1.3-.1c.1-.1.3-.1.5-.2.1-.1.2-.1.3-.1.2-.1.3-.2.5-.3.1 0 .2-.1.3-.1.2-.1.3-.2.5-.3.1 0 .2-.1.2-.1.2-.1.3-.2.5-.3.1 0 .1-.1.2-.1.2-.1.3-.2.5-.3.1 0 .1-.1.2-.1.2-.1.3-.2.5-.3.1 0 .1-.1.2-.1.2-.1.4-.3.5-.4l.1-.1c.2-.1.4-.3.5-.4l.1-.1c.2-.1.3-.3.5-.4l.1-.1c.2-.1.3-.3.5-.4l.1-.1c.2-.1.3-.3.5-.4l.1-.1c.2-.2.4-.3.5-.5l.1-.1c.2-.2.4-.3.6-.5s.4-.3.5-.5c.2-.2.4-.4.5-.6.5-.6.7-.8.9-1" style="fill-rule:evenodd;clip-rule:evenodd;fill:url(#android-auto_svg__SVGID_00000157266038258657264850000000727471624180381071_)"/></svg>