<svg xmlns="http://www.w3.org/2000/svg" xml:space="preserve" viewBox="0 0 512 512"><linearGradient id="animation-digital-network_svg__a" x1="-49.957" x2="-49.06" y1="652.073" y2="652.073" gradientTransform="scale(599.939 -599.939)rotate(18.001 2034.925 483.68)" gradientUnits="userSpaceOnUse"><stop offset="0" style="stop-color:#0095ff"/><stop offset=".66" style="stop-color:#00edff"/><stop offset="1" style="stop-color:#76ffdf"/></linearGradient><path d="M175.8 239.7H40.6l28.3-75.1h78.7zm40.6 107.7h-80l-4.6-13.6H85l-5 13.6H0l27.5-75h160.6z" style="fill:url(#animation-digital-network_svg__a)"/><linearGradient id="animation-digital-network_svg__b" x1="-49.957" x2="-49.06" y1="651.969" y2="651.969" gradientTransform="scale(599.939 -599.939)rotate(18.001 2034.925 483.68)" gradientUnits="userSpaceOnUse"><stop offset="0" style="stop-color:#0095ff"/><stop offset=".66" style="stop-color:#00edff"/><stop offset="1" style="stop-color:#76ffdf"/></linearGradient><path d="M443 164.6v58l-32.1-58h-75.1v56.7c-14.5-33.3-47-55.4-83.3-56.7h-75.1l15.7 75.1h56.7c9.5-.5 17.8 6.9 18.4 16.4-.6 9.5-8.9 16.9-18.4 16.4h-49.2l15.7 75h33.5c37.5.2 71.7-22.1 86.7-56.5v56.5h68V293l27.5 54.5h80V164.6z" style="fill:url(#animation-digital-network_svg__b)"/><linearGradient id="animation-digital-network_svg__c" x1="-49.957" x2="-49.06" y1="652.092" y2="652.092" gradientTransform="scale(599.939 -599.939)rotate(18.001 2034.925 483.68)" gradientUnits="userSpaceOnUse"><stop offset="0" style="stop-color:#0095ff"/><stop offset=".66" style="stop-color:#00edff"/><stop offset="1" style="stop-color:#76ffdf"/></linearGradient><path d="M129.5 246.9c4.9 0 8.9 4 8.9 8.9s-4 8.9-8.9 8.9-8.9-4-8.9-8.9c.1-4.8 4.1-8.8 8.9-8.9m-45.8 0c4.9 0 8.9 4 8.9 8.9s-4 8.9-8.9 8.9-8.9-4-8.9-8.9c.1-4.8 4-8.8 8.9-8.9" style="fill:url(#animation-digital-network_svg__c)"/></svg>