<svg xmlns="http://www.w3.org/2000/svg" xml:space="preserve" viewBox="0 0 512 512"><path d="M384 145.3V128c0-6.5-.6-12.9-1.6-19.2C373.1 47.3 320 0 256 0S138.9 47.3 129.6 108.8c-1 6.3-1.6 12.7-1.6 19.2v17.3C89.8 167.4 64 208.6 64 256v128c0 70.7 57.3 128 128 128h128c0-35.3-28.7-64-64-64h-64c-35.3 0-64-28.7-64-64V256c0-35.3 28.7-64 64-64h128c35.3 0 64 28.7 64 64v32c0 23.7-12.9 44.3-32 55.4V256c0-17.7-14.3-32-32-32H192c-17.7 0-32 14.3-32 32v128c0 17.7 14.3 32 32 32h128c22.5 0 43.5-5.8 61.9-16 39.4-21.8 66.1-63.8 66.1-112v-32c0-47.4-25.8-88.6-64-110.7M288 352h-64v-64h64zm-96-224c0-11.7 3.2-22.6 8.7-32 11.1-19.1 31.7-32 55.3-32s44.3 12.9 55.3 32c5.5 9.4 8.7 20.3 8.7 32zm161.7 4.6c-2.7-.7-5.4-1.4-8.2-2 2.8.6 5.5 1.2 8.2 2 2.7.7 5.3 1.6 7.9 2.5-2.6-1-5.2-1.8-7.9-2.5"/></svg>