<svg xmlns="http://www.w3.org/2000/svg" xml:space="preserve" viewBox="0 0 512 512"><linearGradient id="anonaddy_svg__a" x1="44.378" x2="447.022" y1="386.378" y2="789.022" gradientTransform="translate(0 -278)" gradientUnits="userSpaceOnUse"><stop offset="0" style="stop-color:#3ae7e1"/><stop offset=".948" style="stop-color:#1993d2"/></linearGradient><path d="M320 224H192c-17.7 0-32 14.3-32 32v128c0 17.7 14.3 32 32 32h128c17.7 0 32-14.3 32-32V256c0-17.7-14.3-32-32-32m-32 128h-64v-64h64z" style="fill:url(#anonaddy_svg__a)"/><linearGradient id="anonaddy_svg__b" x1="44.337" x2="446.981" y1="386.418" y2="789.062" gradientTransform="translate(0 -278)" gradientUnits="userSpaceOnUse"><stop offset="0" style="stop-color:#3ae7e1"/><stop offset=".948" style="stop-color:#1993d2"/></linearGradient><path d="M384 384c0 5.5-.8 10.9-2.1 16 39.4-21.8 66.1-63.8 66.1-112v-32c0-47.4-25.8-88.6-64-110.7-18.8-10.9-40.7-17.3-64-17.3H192c-23.3 0-45.2 6.4-64 17.3-38.2 22.1-64 63.3-64 110.7v128c0 70.7 57.3 128 128 128h128c0-35.3-28.7-64-64-64h-64c-35.3 0-64-28.7-64-64V256c0-35.3 28.7-64 64-64h128c35.3 0 64 28.7 64 64z" style="fill:url(#anonaddy_svg__b)"/><path d="M384 288c0 23.7-12.9 44.3-32 55.4V384c0 17.7-14.3 32-32 32 22.5 0 43.5-5.8 61.9-16 1.3-5.1 2.1-10.5 2.1-16zM128 145.3c18.8-10.9 40.7-17.3 64-17.3 0-11.7 3.2-22.6 8.7-32H192c-21.4 0-42.7 4.4-62.4 12.8-1 6.3-1.6 12.7-1.6 19.2zM311.3 96c5.5 9.4 8.7 20.3 8.7 32 23.3 0 45.2 6.4 64 17.3V128c0-6.5-.6-12.9-1.6-19.2-19.7-8.4-41-12.8-62.4-12.8z" style="fill:#2d7aae"/><linearGradient id="anonaddy_svg__c" x1="158.782" x2="561.426" y1="271.974" y2="674.618" gradientTransform="translate(0 -278)" gradientUnits="userSpaceOnUse"><stop offset="0" style="stop-color:#3ae7e1"/><stop offset=".948" style="stop-color:#1993d2"/></linearGradient><path d="M200.7 96c11.1-19.1 31.7-32 55.3-32s44.3 12.9 55.3 32h8.7c21.4 0 42.7 4.4 62.4 12.8C373.1 47.3 320 0 256 0S138.9 47.3 129.6 108.8c19.7-8.4 41-12.8 62.4-12.8z" style="fill:url(#anonaddy_svg__c)"/></svg>