<?xml version="1.0" encoding="utf-8"?>
<!-- Generator: Adobe Illustrator 28.2.0, SVG Export Plug-In . SVG Version: 6.00 Build 0)  -->
<svg version="1.1" id="Layer_1" xmlns="http://www.w3.org/2000/svg" xmlns:xlink="http://www.w3.org/1999/xlink" x="0px" y="0px"
	 viewBox="0 0 512 512" style="enable-background:new 0 0 512 512;" xml:space="preserve">
<path d="M384,145.3V128c0-6.5-0.6-12.9-1.6-19.2C373.1,47.3,320,0,256,0S138.9,47.3,129.6,108.8c-1,6.3-1.6,12.7-1.6,19.2v17.3
	C89.8,167.4,64,208.6,64,256v128c0,70.7,57.3,128,128,128h128c0-35.3-28.7-64-64-64h-64c-35.3,0-64-28.7-64-64V256
	c0-35.3,28.7-64,64-64h128c35.3,0,64,28.7,64,64v32c0,23.7-12.9,44.3-32,55.4V256c0-17.7-14.3-32-32-32H192c-17.7,0-32,14.3-32,32
	v128c0,17.7,14.3,32,32,32h128c22.5,0,43.5-5.8,61.9-16c39.4-21.8,66.1-63.8,66.1-112v-32C448,208.6,422.2,167.4,384,145.3z
	 M288,352h-64v-64h64V352z M192,128c0-11.7,3.2-22.6,8.7-32c11.1-19.1,31.7-32,55.3-32c23.6,0,44.3,12.9,55.3,32
	c5.5,9.4,8.7,20.3,8.7,32H192z M353.7,132.6c-2.7-0.7-5.4-1.4-8.2-2C348.3,131.2,351,131.8,353.7,132.6c2.7,0.7,5.3,1.6,7.9,2.5
	C359,134.1,356.4,133.3,353.7,132.6z"/>
</svg>
