<?xml version="1.0" encoding="utf-8"?>
<!-- Generator: Adobe Illustrator 28.2.0, SVG Export Plug-In . SVG Version: 6.00 Build 0)  -->
<svg version="1.1" id="Layer_1" xmlns="http://www.w3.org/2000/svg" xmlns:xlink="http://www.w3.org/1999/xlink" x="0px" y="0px"
	 viewBox="0 0 512 512" style="enable-background:new 0 0 512 512;" xml:space="preserve">
<g>
	<polygon points="226.4,241.1 326.5,319.9 260.3,156.4 	"/>
	<path d="M256,0C114.6,0,0,114.6,0,256s114.6,256,256,256s256-114.6,256-256S397.4,0,256,0z M361.1,383.3c-5,0-8.8-1.9-14.1-6.2
		L214.9,270.4l-44.3,110.9h-38.3l111.8-269c2.9-7.1,9.1-10.8,16.2-10.8c7.1,0,12.9,3.7,15.8,10.8L378,357.6c1.1,3,1.7,5.7,1.8,7.4
		C379.8,375.8,371.1,383.3,361.1,383.3z"/>
</g>
</svg>
