<svg xmlns="http://www.w3.org/2000/svg" xml:space="preserve" id="anycable_svg__Layer_1" x="0" y="0" version="1.1" viewBox="0 0 512 512"><style>.anycable_svg__st0{fill:#4a4a4a}.anycable_svg__st0,.anycable_svg__st1{fill-rule:evenodd;clip-rule:evenodd}</style><path d="M195.3 358.8c0-5.6 4-8.1 9.1-5.5l22.3 11.1c5 2.5 9.1 9.1 9.1 14.6v121.4c0 5.6-4 8.1-9.1 5.5l-22.3-11.1c-5-2.5-9.1-9.1-9.1-14.6zm9.4 119.5c2.9 8 10.1 12.7 16.1 10.5s8.5-10.4 5.6-18.4-10.1-12.7-16.1-10.5-8.5 10.4-5.6 18.4m71.5-159.9c0-5.6 4-8.1 9.1-5.5l22.3 11.1c5 2.5 9.1 9.1 9.1 14.6V460c0 5.6-4 8.1-9.1 5.5l-22.3-11.1c-5-2.5-9.1-9.1-9.1-14.6zm9.4 119.5c2.9 8 10.1 12.7 16.1 10.5s8.5-10.4 5.6-18.4-10.1-12.7-16.1-10.5-8.5 10.4-5.6 18.4" class="anycable_svg__st0"/><path d="m232.2 365.1-10.1 5.1v141.5l10.1-5.1zm80.9-40.4-10.1 5.1v141.5l10.1-5.1zM201.2 456.6l-1.2 22.3 14.4 18.1-18.6-.5-7.9-20.9 1.9-18.3zm80.9-40.4-1.2 22.3 14.4 18.1-18.6-.5-7.9-20.9 1.9-18.3z" class="anycable_svg__st0"/><path d="M185.2 363.9c0-5.6 4-8.1 9.1-5.5l22.3 11.1c5 2.5 9.1 9.1 9.1 14.6v121.4c0 5.6-4 8.1-9.1 5.5l-22.3-11.1c-5-2.5-9.1-9.1-9.1-14.6zm9.4 119.5c2.9 8 10.1 12.7 16.1 10.5s8.5-10.4 5.6-18.4-10.1-12.7-16.1-10.5-8.5 10.4-5.6 18.4m71.5-160c0-5.6 4-8.1 9.1-5.5l22.3 11.1c5 2.5 9.1 9.1 9.1 14.6V465c0 5.6-4 8.1-9.1 5.5l-22.3-11.1c-5-2.5-9.1-9.1-9.1-14.6zm9.4 119.5c2.9 8 10.1 12.7 16.1 10.5s8.5-10.4 5.6-18.4-10.1-12.7-16.1-10.5-8.5 10.5-5.6 18.4" class="anycable_svg__st1"/><path id="anycable_svg__Combined-Shape_00000017515274741967492480000011551197830429204395_" d="M458.2 101.1 256 202.2v252.7l202.2-101.1z" style="fill-rule:evenodd;clip-rule:evenodd;fill:#ff5e5e"/><path id="anycable_svg__Combined-Shape_00000023985056232090438090000015119887608703255231_" d="M53.8 101.1 256 202.2v252.7L53.8 353.8z" style="fill-rule:evenodd;clip-rule:evenodd;fill:#f32b2b"/><linearGradient id="anycable_svg__Rectangle-2_00000010279931125067029100000017332961069869770380_" x1="-693.79" x2="-688.735" y1="810.319" y2="810.319" gradientTransform="matrix(80 0 0 24 55557 -19387)" gradientUnits="userSpaceOnUse"><stop offset="0" style="stop-color:#f22b2b"/><stop offset="1" style="stop-color:#ff5e5e"/></linearGradient><path id="anycable_svg__Rectangle-2" d="M53.8 121.3 256 20.2l202.2 101.1v-20.2L256 0 53.8 101.1z" style="fill-rule:evenodd;clip-rule:evenodd;fill:url(#anycable_svg__Rectangle-2_00000010279931125067029100000017332961069869770380_)"/><path d="M387.4 328.5s0 12.6-15.2 20.2-15.2-5.1-15.2-5.1v-20.2l30.3-15.2v20.3zm34.5-100.9c-3.8 10.5-13.3 16.7-21.2 13.8s-11.2-13.7-7.3-24.2c3.8-10.5 13.3-16.7 21.2-13.8 7.8 2.9 11.1 13.7 7.3 24.2M341 268c-3.8 10.5-13.3 16.7-21.2 13.8s-11.2-13.7-7.3-24.2c3.8-10.5 13.3-16.7 21.2-13.8s11.1 13.7 7.3 24.2m-216.4-63.3c0-2.8-2-6.1-4.5-7.3l-11.2-5.6c-2.5-1.2-4.5.1-4.5 2.8v50.5c0 2.8 2 6.1 4.5 7.3l11.2 5.6c2.5 1.2 4.5-.1 4.5-2.8zm70.7 35.4c0-2.8-2-6.1-4.5-7.3l-11.2-5.6c-2.5-1.2-4.5.1-4.5 2.8v50.5c0 2.8 2 6.1 4.5 7.3l11.2 5.6c2.5 1.2 4.5-.1 4.5-2.8zM165 331s0-12.6-15.2-20.2-15.2 5.1-15.2 5.1V336l30.3 15.2V331zm50.6-184.4c11.2 0 20.2-6.8 20.2-15.2s-9.1-15.2-20.2-15.2-20.2 6.8-20.2 15.2 9 15.2 20.2 15.2m80.8-40.5c11.2 0 20.2-6.8 20.2-15.2s-9.1-15.2-20.2-15.2-20.2 6.8-20.2 15.2 9.1 15.2 20.2 15.2" class="anycable_svg__st1"/></svg>