<svg xmlns="http://www.w3.org/2000/svg" xml:space="preserve" viewBox="0 0 512 512"><path d="M113.8 0h284.4C461.1 0 512 50.9 512 113.8v284.4C512 461 461.1 512 398.2 512H113.8C50.9 512 0 461.1 0 398.2V113.8C0 50.9 50.9 0 113.8 0"/><linearGradient id="anytype_svg__a" x1="177.352" x2="325.524" y1="346.31" y2="715.234" gradientTransform="translate(0 -278)" gradientUnits="userSpaceOnUse"><stop offset=".5" style="stop-color:#fff"/><stop offset=".664" style="stop-color:#ffedbe"/><stop offset=".839" style="stop-color:#ffbcc3"/></linearGradient><path d="M334.2 163.6v-64H135.3v64zm0 0v248.9h64V163.6zM202.7 412.4c56.9 0 103.1-46.2 103.1-103.1s-46.2-103.1-103.1-103.1S99.6 252.4 99.6 309.3s46.1 103.1 103.1 103.1" style="fill-rule:evenodd;clip-rule:evenodd;fill:url(#anytype_svg__a)"/></svg>