<?xml version="1.0" encoding="utf-8"?>
<!-- Generator: Adobe Illustrator 28.2.0, SVG Export Plug-In . SVG Version: 6.00 Build 0)  -->
<svg version="1.1" id="Layer_1" xmlns="http://www.w3.org/2000/svg" xmlns:xlink="http://www.w3.org/1999/xlink" x="0px" y="0px"
	 viewBox="0 0 512 512" style="enable-background:new 0 0 512 512;" xml:space="preserve">
<style type="text/css">
	.st0{fill-rule:evenodd;clip-rule:evenodd;fill:url(#SVGID_1_);}
</style>
<g>
	<path d="M113.8,0h284.4C461.1,0,512,50.9,512,113.8v284.4c0,62.8-50.9,113.8-113.8,113.8H113.8C50.9,512,0,461.1,0,398.2V113.8
		C0,50.9,50.9,0,113.8,0z"/>
	
		<linearGradient id="SVGID_1_" gradientUnits="userSpaceOnUse" x1="177.3443" y1="445.687" x2="325.5164" y2="76.7625" gradientTransform="matrix(1 0 0 -1 0 514)">
		<stop  offset="0.5" style="stop-color:#FFFFFF"/>
		<stop  offset="0.6637" style="stop-color:#FFEDBE"/>
		<stop  offset="0.8393" style="stop-color:#FFBCC3"/>
	</linearGradient>
	<path class="st0" d="M334.2,163.6v-64H135.3v64H334.2z M334.2,163.6v248.9h64V163.6H334.2z M202.7,412.4
		c56.9,0,103.1-46.2,103.1-103.1s-46.2-103.1-103.1-103.1S99.6,252.4,99.6,309.3S145.7,412.4,202.7,412.4z"/>
</g>
</svg>
