<svg xmlns="http://www.w3.org/2000/svg" xml:space="preserve" viewBox="0 0 512 512"><path d="M271.8 414.4c33.1 0 64.7-10.1 91.1-28.8-29 23.8-66 38.1-106.4 38.1-92.5 0-167.8-75.3-167.8-167.8S164 88.1 256.5 88.1c45.2 0 86.3 18 116.5 47.2-28.4-23.7-63.8-36.6-101.3-36.6-42.2 0-82 16.4-111.8 46.2-29.9 29.8-46.3 69.4-46.3 111.6s16.4 81.8 46.3 111.6c30 29.9 69.7 46.3 111.9 46.3M132.3 256.6c0 76.7 62.6 139.2 139.5 139.2 27.6 0 53.4-8.1 75.1-22-17.9 9.3-38.1 14.5-59.6 14.5-71.8 0-130.2-58.5-130.2-130.5 0-71.9 58.4-130.5 130.2-130.5 29.3 0 56.3 9.7 78.1 26.2-24.8-22.4-57.6-36.1-93.6-36.1-76.9 0-139.5 62.5-139.5 139.2m68.4.3c0-56.4 45.9-102.2 102.2-102.2 19.1 0 37 5.3 52.3 14.4-18.8-14.5-42.3-23.1-67.8-23.1-61.5 0-111.5 50.2-111.5 111.8 0 61.7 50 111.8 111.5 111.8 30.2 0 57.6-12.1 77.7-31.7-17.2 13.3-38.8 21.2-62.2 21.2-56.3 0-102.2-45.8-102.2-102.2M512 114.3v283.3c0 63.1-51.2 114.3-114.3 114.3H114.3C51.2 512 0 460.8 0 397.7V114.3C0 51.2 51.2 0 114.3 0h283.3C460.8 0 512 51.2 512 114.3M443 256c0-49.8-19.4-96.6-54.6-131.8s-82-54.6-131.8-54.6S160 89 124.8 124.2s-54.6 82-54.6 131.8 19.4 96.6 54.6 131.8 82 54.6 131.8 54.6 96.6-19.4 131.8-54.6S443 305.8 443 256m-140.1-82.6c-46.1 0-83.6 37.5-83.6 83.6s37.5 83.6 83.6 83.6 83.6-37.5 83.6-83.6c0-46.2-37.5-83.6-83.6-83.6" style="fill:#fff"/></svg>