<svg xmlns="http://www.w3.org/2000/svg" xml:space="preserve" viewBox="0 0 512 512"><path d="M409 211.5c3.8 43.9-65.3 85.6-154.2 93.3S90.7 283 87 239.2c-3.8-43.9 65.3-85.6 154.2-93.3 88.9-7.6 164.1 21.8 167.8 65.6" style="fill:#bbe6fb"/><path d="M243.8 151.1c-33.9-.6-73.6 12.9-103.2 25.5-3.1 8.9-4.7 18.3-4.7 28 0 52 47 94.2 105 94.2s105-42.2 105-94.2c0-16.5-4.7-31.9-13-45.4-23.7-3.6-56.2-7.6-89.1-8.1" style="fill:#d3effc"/><path d="M240.9 151.1c-18.8-1.1-51.2 8.7-78.1 18.4-4.1 9.7-6.4 20.3-6.4 31.4 0 45.6 41.3 82.6 85.1 82.6 43.4 0 81.9-37 85.1-82.6 1-14.8-4.1-28.8-11.2-40.8-28-5-57.7-8-74.5-9" style="fill:#fff"/><path d="m225.5 212.4-20.1.6c-2.8-2.2-5.5-4.7-7.9-7.3 1.4-3.7 3.1-7.1 5.1-10.4l23 17c-.1 0-.1 0-.1.1m-19.6-22.2c-1.2 1.6-2.3 3.2-3.3 4.9l26.9 9.9c.3-.4.6-.7.9-1.1l-13.6-17.1c-1.7 2.4-4.4 4-7.6 4-1.2.1-2.3-.2-3.3-.6m-5.4-5.4q-.6-1.5-.6-3.3c0-5.1 4.2-9.3 9.3-9.3 1.2 0 2.4.2 3.4.7 15.4-11.7 35.6-16.8 55.9-12.3 1.9.4 3.7.9 5.5 1.5-20.1-2.8-40.9 3.4-56.3 15.8.5 1.1.7 2.3.7 3.6 0 1.5-.4 2.8-1 4l18.4 13.4c.3-.2.5-.3.8-.5l-7.5-26.5 13.2 23.7c.5-.2.9-.3 1.4-.5l-.4-26.2 8.5 24.8 10.2-24.5.3 26.9c.1 0 .2.1.3.1l15.1-21.3-7.7 25.9.2.2 22.1-14.7-16.1 22.3c0 .1.1.1.1.2l20.3-7.3c.2-.3.5-.6.7-.9-1.2-1.5-1.9-3.3-1.9-5.3 0-4.7 3.8-8.4 8.4-8.4.7 0 1.3.1 1.9.2 2.6-5.3 4.5-11 5.8-16.8-24.2-17.9-71-15.5-71-15.5s-37.2-1.9-62.4 10.3c1.7 12.2 6.5 23.7 13.7 33.5 2.4-4.8 5.3-9.5 8.7-13.8m10.9 32.5c3 1.9 6.2 3.6 9.5 5.1l2.9-.6c0-.4 0-.8.1-1.2zm6.6 12.1-22.2-1.6 13.6-2.9c-5.3-3.3-10-7.3-14.2-11.8-.1.3-.1.5-.2.8-1.5 6.8-1.8 13.7-1 20.4 5 .9 9 5 9.8 10l19.8-12.7c-1.9-.7-3.8-1.4-5.6-2.2m60.7 2.6 19.5 19.2-25.5-10 15 23-22.7-17.5c-.1.1-.3.2-.4.2l7.3 27-12.7-24.2-2.1 28.4-8.5-28.1h-.1l-10 26.8 2.4-28.8c-.1-.1-.3-.1-.4-.2l-17.2 24.4 6.4-23.9c-7.4 7.1-13.2 15.9-17 25.5 2 2.2 4.2 4.2 6.5 6.2 6.9 1.8 14.1 2.7 21.5 2.7 29.9 0 56.2-15.4 71.3-38.7-8-5.5-17-9.5-26.4-11.4zm34.4-60.3c-.4 6.1-1.6 12-3.5 17.6 1.7 1.5 2.8 3.7 2.8 6.2 0 4.7-3.8 8.4-8.4 8.4-.5 0-.9-.1-1.4-.1-3.2 5-7 9.5-11.3 13.5l13.7.7-20.8 5c-.6.5-1.3.9-1.9 1.3 12.1 1.9 23.4 7 32.8 14.7 6.8-12.2 10.7-26.4 10.7-41.4-.1-11.4-5.1-19.8-12.7-25.9m-121.4 86.6c-6.7 0-12.2-5.5-12.2-12.2 0-4.8 2.8-9 6.9-11-.9-7.5-.6-15.3 1.1-23.1.5-2.2 1.1-4.4 1.8-6.5-7.4-10.9-11.8-24-11.8-38.2v-1.5c-12.6 6.3-22 16.2-22 31.9 0 34.6 20.7 64.3 50.3 77.6 0-.1 0-.2.1-.3-5-4.9-9.1-10.6-12.4-16.8-.5.1-1.1.1-1.8.1m101.4-52.5-14 10.7v.1l1.2.1c4.7-3.1 9-6.7 12.8-10.9m-84.5 53.9 18.2-23-22.9 8.3c0 .4.1.7.1 1.1 0 3.5-1.5 6.7-3.9 9 2.2 4.6 4.9 9 8 13.1 1.7-4.7 3.9-9.2 6.6-13.4z" style="fill:#1287b1"/><path d="M3.7 273.6c80.2-80.2 144.3-105 202.4-116.3 7.7-1.5 9.1-18.3 9.1-18.3s1.1 12.4 6.5 14 12.4-19.4 12.4-19.4-6.5 18.8 0 19.9 18.3-18.3 18.3-18.3-4.8 16.7-1.6 17.8 19.4-24.2 19.4-24.2-9.7 16.7-.5 18.3 22.5-11.4 22.5-11.4-10.5 11.9-5.8 13.5c19.9 7 36-18.9 36-18.9s-3.7 11.4-13.4 23.7c21 5.4 36.6-26.2 36.6-26.2L330 159.5c8.1 4.3 40.4-32.8 40.4-32.8s-16.7 29.1-26.4 35c5.4 4.3 24.8-12.9 24.8-12.9s-15.6 19.4-9.7 20.5c8.6 7 40.4-36.1 40.4-36.1s-12.4 25.3-30.7 45.2C384 186 422 136.9 422 136.9s-1.1 15.6-28.5 40.4c20.5-2.7 46.8-41.5 46.8-41.5s-9.7 29.1-32.8 49.5c20.1-2.1 52.2-51.7 52.2-51.7S447.3 168.1 422 188c28 6.2 68.4-35.5 68.4-35.5s-15.9 29.6-36.6 41.7c23.2 8.9 54.9-27.7 54.9-27.7s-31.8 49-82.4 46.8c-16.6-.7-66.8-50.4-174.4-46.3-142.1 5.4-172.3 65.7-248.2 106.6m-2.1 8.8c42.4 21.3 81.2-3.2 130 10.5 37.1 10.5 82.4 23.4 143.7 14.5 61.4-8.9 113.9-35.5 138.9-83.2 7.8-21.3 39.6 4.8 39.6 4.8s-23.1-9.7-22.6-5.1 34.7 20.5 34.7 20.5-31-9.7-29.1-2.4 38.8 36.3 38.8 36.3-41.7-31.8-45.2-27.5 17.8 21.8 17.8 21.8-35.3-21.8-47.6-15.4c-8.9 4.6 36.6 34.5 36.6 34.5s-29.6-22.6-36.6-16.7 33.4 54.4 33.4 54.4-45.8-49.5-50.3-47.1c-4.6 2.4 12.6 26.1 12.6 26.1s-22.6-24.8-28.8-20.5 32.3 68.6 32.3 68.6-41.7-65.9-59-54.9c27.1 59.4 17 67.8 17 67.8s-3.5-60.6-37.1-59c-17 .8 8.1 45.2 8.1 45.2s-23-40.6-38.4-39.8c28.3 53.5 18.2 75.3 18.2 75.3s4.7-45.7-33.7-71.1c14.5 12.9-9.1 71.1-9.1 71.1s20.8-85.8-15.3-69.4c-5.7 2.6-.4 42.8-.4 42.8s-7.3-46-18.2-43.6c-6.4 1.4-40.4 63.8-40.4 63.8s27.9-67.4 19.4-64.6c-6.2 2.1-17.8 29.9-17.8 29.9s5.7-27.5 0-29.1S156 350 156 350s23.4-27.5 19.4-33.1c-6.1-8.6-13.3-9-21.8-5.7-12.4 4.8-29.1 27.5-29.1 27.5s16.6-22.9 13.7-31.5c-4.7-13.8-52.5 26.7-52.5 26.7s28.3-26.7 21.8-32.3c-6.5-5.7-41.5-3.9-52.5-3.9-32.4.1-43.6-7.5-53.4-15.3" style="opacity:.35;fill:#373535"/><path d="m204.5 243.7 19-12.2c-1.9-.6-3.7-1.3-5.5-2.1l8 .6zm-4.4 11.3c2.3-2.2 3.8-5.4 3.8-8.8v-.4c-1.1 2.8-3 5.7-4.7 7.3.3.6.6 1.2.9 1.9m64.3-8.8.2.7c.1-.1.3-.2.4-.2zm-23.9 1.5c.1.1.3.1.4.2l.1-.9zm-53-35.6c-1.7 7.7-2 15.4-1.2 22.8.4-.2.9-.5 1.4-.7-.8-6.5-1.1-15.4 0-22.7-.1.1-.1.3-.2.6m139-18.5c0-11.4-5-19.8-12.7-26q-.15 1.95-.6 4.2c7.5 6.1 12.5 14.5 12.5 25.8 0 3.6-.2 7.2-.7 10.7 1-5 1.5-10 1.5-14.7m-146 47.7c-.6 1.5-1 3.1-1 4.8 0 6.7 5.5 12.2 12.2 12.2.6 0 1.2-.1 1.9-.2 2.9 5.5 6.5 10.6 10.8 15.1-4.1-5.3-7.2-13.7-10.1-19.2-.6.1-1.2.2-1.9.2-6.7 0-13.8-5.7-12.2-12.2.1-.2.2-.4.3-.7m20.2-63.5c-.5 1.1-.8 2.4-.8 3.7 0 1.1.2 2.1.6 3.1.5-.5.9-1.1 1.4-1.7-.4-.8-1.1-3.7-1.2-5.1m28.9 70.5 1.2-4.4c-8 7.8-15 19-18.9 28.8.3.3.5.6.8.9 3.8-9.6 9.5-18.3 16.9-25.3m51.1-24.6c.6.1 1.2.2 1.7.3.6-.4 1.1-.8 1.7-1.2zm32.2-50.5c-1.2 5.1-3.3 10.7-4.7 14.7l1.3 1.3c1.8-5.1 2.9-10.5 3.4-16M296.3 192c-.5 1.1-.8 2.3-.8 3.5 0 2 .7 3.7 1.8 5.2.5-.5.9-1.1 1.4-1.6-1.1-1.4-2.2-5-2.4-7.1m-10.7 40.5c9.3 2 18.2 5.8 26.1 11.3l1.2-1.8c-4.4-3-9.1-6-14.1-8.5l-20.2-1.6zm-86.5-25.3c-.5-.5-1.1-1-1.6-1.6 1.4-3.7 3.1-7.1 5.1-10.4l8.6 6.4-8.7-6.5 24.9 9.2-24.7-9.1c1-1.7 2.1-3.4 3.3-4.9q1.5.6 3.3.6c3.1 0 5.9-1.6 7.6-4l-1-1.2c-1.5.8-3.4 1.1-5.9 1.1q-1.8 0-3.3-.6c-3.5 4.7-7.7 13.6-9.8 19.1.7.7 1.4 1.3 2.2 1.9m-3.3 2.5c-.3 1.3-.5 2.6-.7 3.8 0-.2.1-.4.1-.6 4.2 4.6 8.9 8.5 14.2 11.8l5.7-1.2c-4.7-2.4-9-5.3-13-8.7l-6.3-1.6 4.4-.1q-2.25-1.95-4.2-4.2c-.1.3-.1.5-.2.8m93.1 7.5 2.3.1c4.3-4 8.1-8.5 11.3-13.5.5.1.9.1 1.4.1 4.7 0 8.4-3.8 8.4-8.4 0-.5-.1-.9-.2-1.4.1 3.2-3.6 5.8-7.5 5.8-.5 0-.9-.1-1.4-.1-3.4 5.5-8.7 12-14.3 17.4m134.6 61.4c6.7 4.8 12.1 8.4 12.1 8.4s-5.4-4.1-12.1-8.4m50.5-5.1s-36.9-29.1-38.8-36.3c-1.9-7.3 29.1 2.4 29.1 2.4s-34.2-15.9-34.7-20.5 22.6 5.1 22.6 5.1-31.8-26.1-39.6-4.8c-25 47.6-77.5 74.3-138.9 83.2s-106.6-4-143.7-14.5c-48.9-13.8-87.6 10.7-130-10.5 9.8 7.8 21 15.3 53.3 15.4 11 0 46-1.7 52.5 3.9 6.5 5.7-21.8 32.3-21.8 32.3s47.8-40.4 52.5-26.6c2.9 8.6-13.7 31.5-13.7 31.5s16.7-22.6 29.1-27.5c8.5-3.3 15.7-2.9 21.8 5.6 4 5.7-19.4 33.1-19.4 33.1s31.5-30.7 37.1-29.1c5.7 1.6 0 29.1 0 29.1s11.6-27.8 17.8-29.9c8.5-2.8-19.4 64.6-19.4 64.6s34-62.4 40.4-63.8c10.9-2.4 18.2 43.6 18.2 43.6s-5.3-40.2.4-42.8c36.2-16.4 15.3 69.4 15.3 69.4s23.7-58.2 9.1-71.2c38.4 25.4 33.7 71.2 33.7 71.2s10.1-21.8-18.2-75.3c15.3-.8 38.4 39.8 38.4 39.8s-25-44.4-8.1-45.2c33.7-1.6 37.1 59 37.1 59s10.1-8.5-17-67.8c17.2-11 59 54.9 59 54.9s-38.5-64.3-32.3-68.6 28.8 20.5 28.8 20.5-17.2-23.7-12.6-26.1 50.3 47.1 50.3 47.1-40.4-48.5-33.4-54.4c4-3.4 15.5 2.6 24.5 8.3-12.8-9.2-30.4-23.1-24.5-26.1 12.4-6.4 47.6 15.4 47.6 15.4s-21.3-17.5-17.8-21.8c3.6-4.3 45.3 27.4 45.3 27.4m-16.9-85.4c20.7-12.1 36.6-41.7 36.6-41.7s-40.4 41.7-68.4 35.5c25.3-19.9 37.7-54.4 37.7-54.4s-32.1 49.6-52.2 51.7c23.2-20.5 32.8-49.5 32.8-49.5s-26.4 38.8-46.8 41.5c27.5-24.8 28.5-40.4 28.5-40.4s-38 49.1-53.3 41.5c18.3-19.9 30.7-45.2 30.7-45.2s-31.8 43.1-40.4 36.1c-5.9-1.1 9.7-20.5 9.7-20.5s-19.4 17.2-24.8 12.9c9.7-5.9 26.4-35 26.4-35s-32.3 37.1-40.4 32.8l15.6-31.6s-15.6 31.6-36.6 26.2c9.7-12.4 13.4-23.7 13.4-23.7s-16.1 25.9-36 18.9c-4.7-1.6 5.8-13.5 5.8-13.5s-13.4 13-22.5 11.4c-9.2-1.6.5-18.3.5-18.3S257.2 148.1 254 147s1.6-17.8 1.6-17.8-11.8 19.4-18.3 18.3c-6.2-1-.5-18.5 0-19.8-.5 1.4-7.2 20.9-12.4 19.3-5.4-1.6-6.5-14-6.5-14s-1.5 16.8-9.2 18.3c-57.9 11.3-122 36-202.2 116.2 55.4-29.9 86.5-70.1 154.5-91.7-2.5 3.8-4.2 8.1-4.8 13.1 1.5-5.6 4.3-10.3 8.1-14.2q6.3-1.95 12.9-3.6c.7 12.6 4.9 24.3 11.6 34.2.4-.9.9-1.7 1.3-2.8-6.1-8.9-10.4-20.1-11.8-31.6 18-4.5 38.5-7.7 62.3-9.3-9.1 3-17.5 7.6-24.5 13.2.3.6.8 1.8 1.2 3 15.4-12.4 36.1-18.6 56.2-15.8-1.7-.5-3.4-1-5.2-1.4 8.9 0 17.4.4 25.5 1.1 6.2 2.1 12.2 4.9 17.1 8.6.4-1.3.7-2.6 1-3.9-1.5-1.1-3.2-2.2-4.9-3.2 72.1 9.7 108.5 43.3 122.1 43.9 50.6 2.2 82.4-46.8 82.4-46.8s-31.8 36.7-54.9 27.8m-219.7-60.4q0-.15 0 0 0-.15 0 0" style="fill:#373535"/></svg>