<svg xmlns="http://www.w3.org/2000/svg" xml:space="preserve" viewBox="0 0 512 512"><path d="M0 117c0-41 0-61.4 8-77.1 7-13.8 18.2-25 32-32C55.6 0 76.1 0 117 0h278c41 0 61.4 0 77.1 8 13.8 7 25 18.2 32 32 8 15.6 8 36.1 8 77.1v177.2c0 52.5 0 78.8-8 101.9-7.1 20.5-18.6 39.2-33.8 54.7-17.2 17.5-40.6 29.3-87.6 52.7l-16.9 8.5V439H117c-41 0-61.4 0-77.1-8-13.8-7-25-18.2-32-32-8-15.6-8-36.1-8-77.1V117zm365.7 102.4c0 60.6-49.1 109.7-109.7 109.7-60.4 0-109.4-48.9-109.7-109.2v-.5z" style="fill-rule:evenodd;clip-rule:evenodd;fill:#03f"/></svg>