<svg xmlns="http://www.w3.org/2000/svg" xml:space="preserve" viewBox="0 0 512 512"><path d="M380.4 128.9c-43.9 0-84.3 24.7-123.4 67.9L205.9 258l-1.9-1.3c.5.6.9 1.2 1.4 1.7-22.7 27.4-46.6 48-73.3 48-32.2 0-51.4-21.2-51.4-49.3s19.2-49.9 51.4-49.9c5.8 0 11.4 1 16.8 2.9h-.1l51.2-61.7c9.8 5.9 19.1 12.6 27.9 19.9-30-25.4-61.9-39.1-96.5-39.1C55.5 128.9 0 183.2 0 256.3S55.5 383 131.6 383c46.7 0 83-21.9 123.4-65.6l49.8-60.7c0 .1.1.1.1.2 24.6-29.4 45.8-49.8 73.2-49.8 32.2 0 51.2 22.1 51.2 49.9s-19 49.3-51.2 49.3c-5.1 0-10.1-.8-14.9-2.2l-50.9 60.8c-14-8.1-27.1-17.7-39-28.7 33.3 31.3 67.8 46.9 107.2 46.9 76.1-.1 131.6-53.5 131.6-126.8s-55.6-127.4-131.7-127.4"/><path d="m312.2 364.8 51.2-61.1c-20.4-6.1-39.1-24.4-58.6-47.2L255 317.3c16.3 19 35.6 35 57.2 47.5M257 196.7c-16.2-19.2-35.4-35.6-56.9-48.6l-51.2 61.7c19.5 6.8 36.7 24.3 55 46.6l2 1.4z" style="opacity:.6"/></svg>