<?xml version="1.0" encoding="utf-8"?>
<!-- Generator: Adobe Illustrator 28.2.0, SVG Export Plug-In . SVG Version: 6.00 Build 0)  -->
<svg version="1.1"
	 id="Layer_1" xmlns:rdf="http://www.w3.org/1999/02/22-rdf-syntax-ns#" xmlns:sodipodi="http://sodipodi.sourceforge.net/DTD/sodipodi-0.dtd" xmlns:dc="http://purl.org/dc/elements/1.1/" xmlns:inkscape="http://www.inkscape.org/namespaces/inkscape" xmlns:cc="http://creativecommons.org/ns#" sodipodi:docname="Apache_Tika_logo.svg"
	 xmlns="http://www.w3.org/2000/svg" xmlns:xlink="http://www.w3.org/1999/xlink" x="0px" y="0px" viewBox="0 0 512 512"
	 style="enable-background:new 0 0 512 512;" xml:space="preserve">
<style type="text/css">
	.st0{fill:url(#SVGID_1_);}
	.st1{fill:url(#SVGID_00000034798555565571132760000007572364055940919444_);}
	.st2{fill:url(#SVGID_00000127728807612969545940000008125084499411441033_);}
	.st3{fill:url(#SVGID_00000074427354407513622080000008973955390687913378_);}
	.st4{fill:url(#SVGID_00000026156271694352470600000008908658391858111928_);}
	.st5{fill:url(#SVGID_00000074439161205641011730000012149500522749092031_);}
	.st6{fill:url(#SVGID_00000133529991699547580870000017053812791831749008_);}
</style>
<linearGradient id="SVGID_1_" gradientUnits="userSpaceOnUse" x1="-10737.6582" y1="5728.3589" x2="-9718.3486" y2="6914.6982" gradientTransform="matrix(3.014327e-02 -6.288684e-02 6.129557e-02 2.791247e-02 296.4806 -790.5994)">
	<stop  offset="0" style="stop-color:#F59723"/>
	<stop  offset="0.312" style="stop-color:#F69822"/>
	<stop  offset="0.838" style="stop-color:#E87726"/>
	<stop  offset="1" style="stop-color:#E87726"/>
</linearGradient>
<path class="st0" d="M348.4,2.5c-8.2,4.7-21.9,18.2-38.2,37.7l15,27.6c10.6-14.7,21.2-27.9,32.1-39.2c0.9-0.9,1.3-1.3,1.3-1.3
	c-0.4,0.4-0.9,0.9-1.3,1.3c-3.5,3.8-14.1,15.8-30.1,39.8c15.4-0.8,39-3.9,58.5-7c5.8-31.4-5.6-45.7-5.6-45.7S365.6-7.3,348.6,2.5
	L348.4,2.5z"/>
<linearGradient id="SVGID_00000054250631721586611430000013980334219754537892_" gradientUnits="userSpaceOnUse" x1="-18398.0449" y1="5566.9619" x2="-11142.957" y2="5566.9619" gradientTransform="matrix(3.014327e-02 -6.288684e-02 6.129557e-02 2.791247e-02 296.4806 -790.5994)">
	<stop  offset="0" style="stop-color:#9C2063"/>
	<stop  offset="0.323" style="stop-color:#9C2063"/>
	<stop  offset="0.63" style="stop-color:#C82037"/>
	<stop  offset="0.751" style="stop-color:#CC2135"/>
	<stop  offset="1" style="stop-color:#E87726"/>
</linearGradient>
<path style="fill:url(#SVGID_00000054250631721586611430000013980334219754537892_);" d="M280.9,139.2c4.5-8.4,9.2-16.5,13.8-24.4
	c4.8-8.2,9.8-16.2,14.7-23.9c0.3-0.4,0.6-0.9,0.9-1.3c4.9-7.6,9.9-14.8,14.8-21.8l-15-27.6c-1.1,1.3-2.3,2.7-3.5,4.1
	c-4.3,5.3-8.8,10.9-13.4,16.9c-5.2,6.7-10.6,14-16,21.6c-4.9,6.9-10.2,14.3-15.2,22c-4.3,6.5-8.7,13.1-13,19.9
	c-0.2,0.2-0.3,0.5-0.4,0.8l19.6,37.7C272.3,154.8,276.6,146.9,280.9,139.2L280.9,139.2z"/>
<linearGradient id="SVGID_00000048483996876119937430000014966147326861570994_" gradientUnits="userSpaceOnUse" x1="-17498.6113" y1="6349.6909" x2="-13177.252" y2="6349.6909" gradientTransform="matrix(3.014327e-02 -6.288684e-02 6.129557e-02 2.791247e-02 296.4806 -790.5994)">
	<stop  offset="0" style="stop-color:#282661"/>
	<stop  offset="9.550000e-02" style="stop-color:#662E8C"/>
	<stop  offset="0.788" style="stop-color:#9E2064"/>
	<stop  offset="0.949" style="stop-color:#CC2032"/>
	<stop  offset="1" style="stop-color:#CC2032"/>
</linearGradient>
<path style="fill:url(#SVGID_00000048483996876119937430000014966147326861570994_);" d="M192,350.9c-2.6,6.9-5.2,14-7.8,21.2
	c0,0.1,0,0.2-0.1,0.3c-0.4,1-0.8,2-1.1,3.1c-1.8,4.9-3.3,9.2-6.7,19.2c5.7,2.5,10.4,9.3,14.7,16.9c-0.5-7.9-3.9-15.3-10.3-21.1
	c28.4,1.3,52.8-5.8,65.3-25.9c1.1-1.8,2.2-3.7,3.1-5.7c-5.7,7.1-12.8,10.1-26.4,9.3c0,0,0,0-0.1,0h0.1c19.8-8.6,29.6-16.9,38.4-30.5
	c2.1-3.3,4.1-6.8,6.1-10.8c-17.3,17.2-37.2,22.2-58.5,18.5l-15.8,1.7c-0.5,1.3-1,2.6-1.5,3.9L192,350.9z"/>
<linearGradient id="SVGID_00000016041441081913580840000016879863209509661336_" gradientUnits="userSpaceOnUse" x1="-17981.2344" y1="5495.7246" x2="-10726.1465" y2="5495.7246" gradientTransform="matrix(3.014327e-02 -6.288684e-02 6.129557e-02 2.791247e-02 296.4806 -790.5994)">
	<stop  offset="0" style="stop-color:#9C2063"/>
	<stop  offset="0.323" style="stop-color:#9C2063"/>
	<stop  offset="0.63" style="stop-color:#C82037"/>
	<stop  offset="0.751" style="stop-color:#CC2135"/>
	<stop  offset="1" style="stop-color:#E87726"/>
</linearGradient>
<path style="fill:url(#SVGID_00000016041441081913580840000016879863209509661336_);" d="M199.3,316.4c3.5-8.6,6.9-17.2,10.6-26.1
	c3.5-8.5,7-16.9,10.7-25.4c3.7-8.5,7.4-17,11.2-25.5c3.9-8.8,7.8-17.3,11.9-25.9c4-8.6,8-17,12.1-25.3c1.5-3,3-6.1,4.4-9.1
	c2.6-5.2,5.2-10.4,7.8-15.4c0.2-0.3,0.3-0.6,0.4-0.9l-19.6-37.7c-0.3,0.5-0.6,1.1-1,1.5c-4.5,7.2-9.1,14.6-13.5,22.2
	c-4.5,7.6-9,15.5-13.2,23.4c-3.7,6.6-7.2,13.4-10.7,20.2c-0.7,1.3-1.4,2.8-2.1,4.1c-4.2,8.6-8.1,16.8-11.6,24.7
	c-4,9-7.4,17.5-10.4,25.7c-2,5.4-3.9,10.5-5.4,15.5c-1.4,4.2-2.7,8.5-4,12.7c-3,10-5.4,19.9-7.5,29.8l19.7,37.7
	c2.6-6.8,5.2-13.6,8-20.6C197.7,320.2,198.5,318.2,199.3,316.4L199.3,316.4z"/>
<linearGradient id="SVGID_00000175309071555480305430000008169764681047063452_" gradientUnits="userSpaceOnUse" x1="-17437.1875" y1="5600.5288" x2="-13625.4814" y2="5600.5288" gradientTransform="matrix(3.014327e-02 -6.288684e-02 6.129557e-02 2.791247e-02 296.4806 -790.5994)">
	<stop  offset="0" style="stop-color:#282661"/>
	<stop  offset="9.550000e-02" style="stop-color:#662E8C"/>
	<stop  offset="0.788" style="stop-color:#9E2064"/>
	<stop  offset="0.949" style="stop-color:#CC2032"/>
	<stop  offset="1" style="stop-color:#CC2032"/>
</linearGradient>
<path style="fill:url(#SVGID_00000175309071555480305430000008169764681047063452_);" d="M168.9,306.5c-2.5,12-4.2,24.2-5.1,36.1
	c0,0.4-0.1,0.9-0.1,1.3c-6.1-9.5-22.5-18.9-22.5-18.8c11.8,16.7,20.7,33,22,49.3c-6.3,1.3-14.9-0.6-24.8-4.1
	c10.4,9.3,18.2,11.8,21.2,12.5c-9.6,0.6-19.5,6.9-29.4,14.3c14.6-5.8,26.5-8.1,34.9-6.3c-13.4,37-26.9,77.9-40.3,121.2
	c4.1-1.2,6.6-3.9,7.9-7.6c2.4-7.8,18.3-59.2,43.3-127.3c0.8-1.9,1.4-3.9,2.2-5.8c0.2-0.6,0.4-1.1,0.6-1.6c2.6-7.1,5.4-14.3,8.2-21.8
	c0.6-1.6,1.3-3.4,2-5.1v-0.1L169.2,305c0,0.4-0.2,0.9-0.2,1.3L168.9,306.5z"/>
<linearGradient id="SVGID_00000057148269061765442760000004992557918347454619_" gradientUnits="userSpaceOnUse" x1="-17981.2344" y1="6303.9902" x2="-10726.1465" y2="6303.9902" gradientTransform="matrix(3.014327e-02 -6.288684e-02 6.129557e-02 2.791247e-02 296.4806 -790.5994)">
	<stop  offset="0" style="stop-color:#9C2063"/>
	<stop  offset="0.323" style="stop-color:#9C2063"/>
	<stop  offset="0.63" style="stop-color:#C82037"/>
	<stop  offset="0.751" style="stop-color:#CC2135"/>
	<stop  offset="1" style="stop-color:#E87726"/>
</linearGradient>
<path style="fill:url(#SVGID_00000057148269061765442760000004992557918347454619_);" d="M271.4,166.1c-0.6,1.2-1.1,2.3-1.7,3.4
	c-1.7,3.4-3.4,6.8-5.1,10.4c-1.9,3.9-3.8,7.7-5.7,11.7c-1,2-2,4-3,6.2c-3,6.2-5.8,12.6-8.9,19.2c-3.7,8.1-7.5,16.6-11.3,25.3
	c-3.7,8.4-7.4,17-11.1,25.9c-3.6,8.5-7.1,17.2-10.8,26.3c-3.3,8-6.5,16.4-9.8,24.8c-0.2,0.4-0.3,0.9-0.5,1.3
	c-3.3,8.5-6.6,17.1-9.9,26c-0.1,0.2-0.2,0.4-0.2,0.6l15.8-1.7c-0.3,0-0.6-0.1-1-0.2c18.9-2.3,44-16.1,60.2-33
	c7.5-7.8,14.2-17,20.5-27.8c4.6-8,9.1-17,13.2-26.9c3.7-8.7,7.1-18,10.6-28.1c-4.3,2.2-9.3,3.9-14.7,5c-1,0.2-2,0.4-3,0.6
	c-1,0.2-2,0.4-3.1,0.5l0,0c17.6-6.6,28.8-19.4,36.9-35c-4.6,3.1-12.2,7.1-21.2,9c-1.2,0.3-2.5,0.5-3.8,0.7c-0.3,0-0.6,0.1-1,0.2h0.1
	c6.1-2.5,11.3-5.3,15.7-8.6c1-0.7,2-1.4,2.8-2.2c1.4-1.2,2.7-2.4,4-3.7c0.8-0.9,1.6-1.6,2.3-2.5c1.8-2,3.5-4.2,4.9-6.5
	c0.5-0.8,1-1.4,1.4-2.2c0.6-1.1,1.2-2.2,1.7-3.3c2.5-4.8,4.4-9.1,5.9-12.9c0.8-1.9,1.5-3.7,2.1-5.3c0.2-0.7,0.5-1.3,0.7-1.9
	c0.6-1.8,1.1-3.4,1.5-4.8c0.6-2.1,1-3.9,1.2-5c-0.6,0.4-1.3,0.9-2.1,1.3c-5.3,3.1-14.4,5.9-21.8,7.2l14.5-1.5l-14.5,1.5
	c-0.1,0-0.2,0-0.3,0c-0.8,0.1-1.5,0.2-2.2,0.4c0.1-0.1,0.2-0.1,0.4-0.2l-49.6,5.3C271.6,165.7,271.5,165.9,271.4,166.1L271.4,166.1z
	"/>
<linearGradient id="SVGID_00000114046345544876293580000007326578882609576368_" gradientUnits="userSpaceOnUse" x1="-18441.9199" y1="6262.2832" x2="-11186.832" y2="6262.2832" gradientTransform="matrix(3.014327e-02 -6.288684e-02 6.129557e-02 2.791247e-02 296.4806 -790.5994)">
	<stop  offset="0" style="stop-color:#9C2063"/>
	<stop  offset="0.323" style="stop-color:#9C2063"/>
	<stop  offset="0.63" style="stop-color:#C82037"/>
	<stop  offset="0.751" style="stop-color:#CC2135"/>
	<stop  offset="1" style="stop-color:#E87726"/>
</linearGradient>
<path style="fill:url(#SVGID_00000114046345544876293580000007326578882609576368_);" d="M327.1,68.4c-4.3,6.5-9.2,14.1-14.4,22.6
	c-0.3,0.4-0.6,1-0.8,1.3c-4.4,7.3-9.2,15.4-14.3,24.3c-4.3,7.6-8.8,15.9-13.5,24.7c-4.1,7.7-8.3,15.8-12.6,24.5l49.6-5.3
	c14.4-6.5,20.8-12.3,27.2-20.8c1.7-2.3,3.4-4.8,4.9-7.3c5.1-7.7,10.1-16.3,14.6-24.7c4.3-8.2,8.1-16.4,11.1-23.7
	c1.9-4.7,3.4-9,4.3-12.8c0.9-3.4,1.6-6.5,2.2-9.6c-19.3,3.3-43,6.4-58.5,7L327.1,68.4z"/>
</svg>
