<svg xmlns="http://www.w3.org/2000/svg" xml:space="preserve" viewBox="0 0 512 512"><path d="M409.9 239.5c15.1-39.4-39.6-44.6-65.3-53.8-27-9.6 28.2-35.5 46.2-62.9 2.3-3.5 4.7-8 5.3-12.8 1.4-10.5-5.6-22-40.8-25.9-23-2.5 27.6-54.8-9-79.6-1.2-.8-2.3-1.5-3.5-2.1q-1.8-.6-3.9-1.2c-42.7-11.2-48.7 61.3-65.7 45.7-27.6-25.2-45-19.3-53.8-9.2-3.3 3.8-5.5 8.2-6.5 11.7-8.7 31.6 22.4 69.7-2.7 55.8-20.9-11.6-68-37-85.9-11.8-3.6 5-6 12.1-6.9 21.7-4.4 51.7 49 90 38.4 97-14.1 9.3-42.1-22.2-53.1-2.2-.8 1.4-1.5 3-2.1 5-10.3 33.4 62.4 78.3 52.5 88.1-8.9 8.8-20.5-11.3-34.9-3-1.6.9-3.2 2.1-4.8 3.7-16.2 16.6-.3 64.4 45.7 89.9-10.7 36-21.4 76.3-31.9 118.3 3.8-1.3 8.3-2.7 9.5-6.2 1.7-7 12.2-49.4 29.2-107 0 0 3.1-11.8 8.8-31.2 5.3-18 12.7-42.5 22-70.3 9.7-28.9 21.3-61.4 34.4-93.8 13.2-32.6 27.9-65.1 43.6-93.9 15.3-27.9 31.6-52.4 48.4-70 0 0-16.8 24.4-40.9 73.1-12.4 25.2-26.8 57-41.8 95.3-11 28-22.2 59.4-33.3 94.5-7.1 22.5-14.2 46.6-21 72.1q-3.6 13.5-7.2 27.6c53 17.5 101.9 0 103.5-21.6v-.5c1.3-22.9-33.1-10.2-32.3-24 .8-13.9 60-.1 78.3-29.9 1.4-2.3 2.3-4.3 3-6.2 7.5-20.3-20.6-22.3-22.8-38.6-1.8-12.6 73.9 10.6 98.2-35.3 1.3-2.2 2.3-4.4 3.1-6.5" style="fill:#fff"/></svg>