<svg xmlns="http://www.w3.org/2000/svg" xml:space="preserve" viewBox="0 0 512 512"><path d="M512 438.7v-3.5c-.9-10.4-7.3-18-7.3-18-9.7-11-28.8-16.1-44.8-15.8-10.2-12.2-64.4-69.8-75.1-81.2 22.5-16 42-36.7 56.9-61.3h32.4v-6.5h-28.6c1.7-3 3.3-6 4.8-9.1h23.8v-6.5h-20.8c13.2-29.1 20.5-62.4 19.8-98.8h.1l-.1-.1c0-10.1-3.2-52.6-8.9-64.3-15.5 5.9-43.8 25.2-50.1 44.8-30.6-4.6-65.1-4-95.4 1.2-5-21.2-30.4-37.3-49.5-46.4-8.1 13.7-11.7 45.4-10.7 68 0 0-.1 0-.1.1.8 20.3 3.5 39 7.9 56.2-65.8 16.7-137.2 60-177.2 102C70.3 274 62.7 253 60.6 237.1c-2.8-20 2-38.5 13.8-53.4 18.5-23.2 44.8-24.8 72-20.2-.5 4.3 0 8.4 1.7 11 7.2 10.6 45.6 14.4 68.6 4.1-17-23.8-51.3-35.5-60.7-30.9-3.2 1.5-5.5 4.4-7.2 7.7-9.4-1.7-18.7-2.9-25.4-2.9-23.9.2-42.2 8.6-55.8 25.6-13.4 16.8-18.8 37.5-15.7 60.1 3 21.4 13.5 44.2 31.2 67.8l-8.5 9.4C31.6 363.7 0 415.9 0 424.4v4.5h56.8l-1-5.3c-3.2-17.1 3.2-38.5 16.3-54.4 8.2-10 21.9-21.4 43.4-26.8 19 18.7 43.4 38.5 70.4 57.7h42.2v-4.5c0-5-2.5-9.4-7-12.4-6.7-4.4-17-5-26.4-1.8-9-10.1-14.1-23.6-15.2-40.3 91.7 8.2 179.2 45.4 278 97.4H512zM272.7 86.3c4.5 24.8 12.7 40.3 30.4 47.8 16.4-4.7 35.5-7.6 55-8.5l14.1 32.5 10.4-32.6c18 .7 35.6 3.2 51 7.4 16.3-11.9 22.7-30.2 26-46 4.3 18.5 3.8 58.5 3.8 58.5l.1-.7c.3 15.2-.9 29.8-3.5 43.7l-14.2 5.9 12.6 2c-1.3 5.6-2.8 11.2-4.5 16.6l-12 3.6 9.6 3.4c-2.1 5.8-4.5 11.4-7.1 16.9H422v6.5h19.2c-1.6 3.1-3.3 6.1-5.1 9.1H422v6.5h10.2c-16.3 25-38 45.3-62.8 59.6-28.8-14.5-50.4-35.5-66.2-59.6h11.6v-6.5h-15.7c-1.8-3-3.5-6-5.1-9.1h20.8v-6.5h-24.1c-3.7-7.5-6.9-15.3-9.6-23.1l13.3-3.6-16.8-6.9c-1.3-4.2-2.4-8.4-3.4-12.7l24.2-1.6L271 175c-5.6-32.8-4.4-64.7 1.7-88.7m-208 277.6h.3c-13.4 16.3-20.5 37.9-18.9 56.3h-36c7.2-15.7 35.9-60.9 78.1-106.7 5.8 7.3 12.3 14.6 19.5 22-20.7 6.4-34.5 18-43 28.4m114.6-31.4c.2-13 2.5-27.8 6.9-44.2l-8.6-2.3c-4.6 16.9-6.9 32.1-7.2 45.8-9.8-.7-19.6-1-29.4-1-8.4 0-16 .8-22.9 2.1-9.1-9.1-16.8-17.8-23.3-26 11.6-12.1 25.2-24 40.1-35.1l19.6 13.8-6.7-23c6.6-4.5 13.5-8.9 20.5-13.1l30.5 16.2-14.4-25.4c4.5-2.5 9.1-4.9 13.7-7.2l42.6 28.6-15.2-41.1c14.6-6 29.1-10.9 43.2-14.5 3.2 10.8 7.2 21 11.7 30.6h-17.8v6.5h21c1.6 3.1 3.3 6.1 5 9.1h-26v6.5h30c19.5 30.7 45.9 54.1 75.9 71.8 3.5-2 7-4.2 10.4-6.4l9.4 10.1-12 18.9 20.2-10.1 14 15.2-22.3 14.9 29.3-7.3 40.4 43.7 3.4-.3c21.5-1.9 33.7 9.9 37.1 13.5 2.4 2.7 3.8 5.1 4.6 7h-43.6c-99.9-52.2-187.7-89.2-280.1-97.3m158.6-178c3.3 0 5.6 1.3 7.3 4.2 3.9 6.8 3.3 20.1 0 34.1h-26.5v5.8h25.2c-2.7 9.5-6.5 19-10.7 26.5l-1.4 2.4 33.3 20.9-18.7 12.3 3.2 4.9 20.9-13.8 22.5 14.7 3.1-4.9-20.9-12.9 32.9-21.3-.1-.1c-6.9-10.2-9.1-18.8-6.2-28.7H429l.1-5.8h-25.3c4.8-11 11.4-20.9 34.7-20.9v-5.8c-21.6 0-34.5 8.5-40.6 26.7h-46.6c3.3-14.5 3.8-28.8-1-37-2.7-4.6-7-7.1-12.3-7.1-19.2 0-26.8 19.7-27.1 20.5l5.4 2c.1-.7 6.5-16.7 21.6-16.7m32.5 90.3-24.5-15.4h48zm25.5-46.2c-2.1 6.6-1.2 16.5 3.8 24.9h-59.2c3.6-7.2 6.9-16 9.4-24.9z"/></svg>