<?xml version="1.0" encoding="utf-8"?>
<!-- Generator: Adobe Illustrator 28.2.0, SVG Export Plug-In . SVG Version: 6.00 Build 0)  -->
<svg version="1.1"
	 id="Layer_1" xmlns:rdf="http://www.w3.org/1999/02/22-rdf-syntax-ns#" xmlns:sodipodi="http://sodipodi.sourceforge.net/DTD/sodipodi-0.dtd" xmlns:dc="http://purl.org/dc/elements/1.1/" xmlns:inkscape="http://www.inkscape.org/namespaces/inkscape" xmlns:cc="http://creativecommons.org/ns#"
	 xmlns="http://www.w3.org/2000/svg" xmlns:xlink="http://www.w3.org/1999/xlink" x="0px" y="0px" viewBox="0 0 512 512"
	 style="enable-background:new 0 0 512 512;" xml:space="preserve">
<style type="text/css">
	.st0{fill:url(#SVGID_1_);}
	.st1{fill:url(#SVGID_00000062906412339437820210000008684088051200391611_);}
	.st2{fill:url(#SVGID_00000051352782262596398620000017586916083666268578_);}
	.st3{fill:url(#SVGID_00000058579037309508080700000000662642779510655399_);}
	.st4{fill:url(#SVGID_00000116194390781628458960000014904852433873805221_);}
	.st5{fill:url(#SVGID_00000107589287753613202220000001250039564264653970_);}
	.st6{fill:url(#SVGID_00000030476229634785122780000004113000915845601724_);}
</style>
<path d="M175.1,274.9c4.2,0,7.4-1.6,9.6-4.8c2.2-3.2,3.3-7.9,3.3-14s-1.1-10.8-3.3-14c-2.3-3.2-5.4-4.8-9.6-4.8
	c-4.2,0-7.4,1.6-9.6,4.8c-2.2,3.2-3.3,7.9-3.3,14s1.1,10.8,3.3,14C167.8,273.3,170.9,274.9,175.1,274.9z M169.3,244.9
	c1.3-2.5,3.3-3.8,5.8-3.8s4.5,1.3,5.8,3.8c1.3,2.5,2,6.2,2,11.2s-0.7,8.7-2,11.2c-1.3,2.5-3.3,3.8-5.8,3.8s-4.5-1.3-5.8-3.8
	c-1.3-2.5-2-6.2-2-11.2C167.3,251.2,168,247.4,169.3,244.9z M142.2,447.3c4.2,0,7.4-1.6,9.6-4.8c2.2-3.2,3.3-7.9,3.3-14
	s-1.1-10.8-3.3-14c-2.3-3.2-5.4-4.8-9.6-4.8s-7.3,1.6-9.6,4.8c-2.2,3.2-3.3,7.9-3.3,14s1.1,10.8,3.3,14
	C134.9,445.6,138.1,447.3,142.2,447.3z M136.4,417.3c1.3-2.5,3.3-3.8,5.8-3.8c2.7,0,4.5,1.3,5.8,3.8c1.3,2.5,2,6.2,2,11.2
	c0,5-0.7,8.7-2,11.2c-1.3,2.5-3.3,3.8-5.8,3.8s-4.5-1.3-5.8-3.8c-1.3-2.5-2-6.2-2-11.2C134.4,423.5,135.1,419.8,136.4,417.3z
	 M238.1,12l-8.9,1.7V9.3l8.9-1.7h5v32.1h8.2v4.1h-21.4v-4.1h8.2V12z M142.2,332.2c4.2,0,7.4-1.6,9.6-4.8c2.2-3.2,3.3-7.9,3.3-14
	c0-6.1-1.1-10.8-3.3-14c-2.3-3.2-5.4-4.8-9.6-4.8s-7.3,1.6-9.6,4.8c-2.2,3.2-3.3,7.9-3.3,14c0,6.1,1.1,10.8,3.3,14
	C134.9,330.5,138.1,332.2,142.2,332.2z M136.4,302.2c1.3-2.5,3.3-3.8,5.8-3.8c2.7,0,4.5,1.3,5.8,3.8c1.3,2.5,2,6.2,2,11.2
	c0,5-0.7,8.7-2,11.2c-1.3,2.5-3.3,3.8-5.8,3.8s-4.5-1.3-5.8-3.8c-1.3-2.5-2-6.2-2-11.2C134.4,308.4,135.1,304.7,136.4,302.2z
	 M239.7,101.9c4.2,0,7.4-1.6,9.6-4.8c2.2-3.2,3.3-7.9,3.3-14c0-6.1-1.1-10.8-3.3-14c-2.3-3.2-5.4-4.8-9.6-4.8
	c-4.2,0-7.4,1.6-9.6,4.8c-2.2,3.2-3.3,7.9-3.3,14c0,6.1,1,10.8,3.3,14C232.4,100.3,235.5,101.9,239.7,101.9z M233.9,72.1
	c1.3-2.5,3.3-3.8,5.8-3.8c2.6,0,4.5,1.3,5.8,3.8c1.3,2.5,2,6.2,2,11.2c0,5-0.7,8.7-2,11.2c-1.3,2.5-3.3,3.8-5.8,3.8
	c-2.6,0-4.5-1.3-5.8-3.8c-1.3-2.5-2-6.2-2-11.2C231.9,78.3,232.6,74.6,233.9,72.1z M142.2,101.9c4.2,0,7.4-1.6,9.6-4.8
	c2.2-3.2,3.3-7.9,3.3-14c0-6.1-1.1-10.8-3.3-14c-2.3-3.2-5.4-4.8-9.6-4.8s-7.3,1.6-9.6,4.8c-2.2,3.2-3.3,7.9-3.3,14
	c0,6.1,1.1,10.8,3.3,14C134.9,100.3,138.1,101.9,142.2,101.9z M136.4,72.1c1.3-2.5,3.3-3.8,5.8-3.8c2.7,0,4.5,1.3,5.8,3.8
	c1.3,2.5,2,6.2,2,11.2c0,5-0.7,8.7-2,11.2c-1.3,2.5-3.3,3.8-5.8,3.8s-4.5-1.3-5.8-3.8c-1.3-2.5-2-6.2-2-11.2
	C134.4,78.3,135.1,74.6,136.4,72.1z M175.1,101.9c4.2,0,7.4-1.6,9.6-4.8c2.2-3.2,3.3-7.9,3.3-14c0-6.1-1.1-10.8-3.3-14
	c-2.3-3.2-5.4-4.8-9.6-4.8c-4.2,0-7.4,1.6-9.6,4.8c-2.2,3.2-3.3,7.9-3.3,14c0,6.1,1,10.8,3.3,14
	C167.8,100.3,170.9,101.9,175.1,101.9z M169.3,72.1c1.3-2.5,3.3-3.8,5.8-3.8s4.5,1.3,5.8,3.8c1.3,2.5,2,6.2,2,11.2
	c0,5-0.7,8.7-2,11.2c-1.3,2.5-3.3,3.8-5.8,3.8s-4.5-1.3-5.8-3.8c-1.3-2.5-2-6.2-2-11.2C167.3,78.3,168,74.6,169.3,72.1z
	 M142.2,274.9c4.2,0,7.4-1.6,9.6-4.8c2.2-3.2,3.3-7.9,3.3-14s-1.1-10.8-3.3-14c-2.3-3.2-5.4-4.8-9.6-4.8s-7.3,1.6-9.6,4.8
	c-2.2,3.2-3.3,7.9-3.3,14s1.1,10.8,3.3,14C134.9,273.3,138.1,274.9,142.2,274.9z M136.4,244.9c1.3-2.5,3.3-3.8,5.8-3.8
	c2.7,0,4.5,1.3,5.8,3.8c1.3,2.5,2,6.2,2,11.2s-0.7,8.7-2,11.2c-1.3,2.5-3.3,3.8-5.8,3.8s-4.5-1.3-5.8-3.8c-1.3-2.5-2-6.2-2-11.2
	C134.4,251.2,135.1,247.4,136.4,244.9z M175.1,217.1c4.2,0,7.4-1.6,9.6-4.8c2.2-3.2,3.3-7.9,3.3-14s-1.1-10.8-3.3-14
	c-2.3-3.2-5.4-4.8-9.6-4.8c-4.2,0-7.4,1.5-9.6,4.8c-2.2,3.2-3.3,7.9-3.3,14s1,10.8,3.3,14C167.8,215.5,170.9,217.1,175.1,217.1z
	 M169.3,187.2c1.3-2.5,3.3-3.8,5.8-3.8s4.5,1.3,5.8,3.8c1.3,2.5,2,6.2,2,11.2c0,5-0.7,8.7-2,11.2c-1.3,2.5-3.3,3.8-5.8,3.8
	s-4.5-1.3-5.8-3.8c-1.3-2.5-2-6.2-2-11.2C167.3,193.4,168,189.7,169.3,187.2z M175.8,332.2c2.6-0.1,4.7-0.9,6.5-2.2
	c0.9-8.8,2.3-17.5,4.1-26.4h-0.1v-0.3c0.1-0.1,0.1-0.2,0.1-0.3c-0.5-1.3-1-2.5-1.7-3.5c-2.3-3.2-5.4-4.8-9.6-4.8
	c-4.2,0-7.4,1.6-9.6,4.8c-2.2,3.2-3.3,7.9-3.3,14c0,3.6,0.4,6.8,1.2,9.4C166.6,324.8,171.6,328.2,175.8,332.2z M169.3,302.2
	c1.3-2.5,3.3-3.8,5.8-3.8s4.5,1.3,5.8,3.8c1.3,2.5,2,6.2,2,11.2c0,5-0.7,8.7-2,11.2c-1.3,2.5-3.3,3.8-5.8,3.8s-4.5-1.3-5.8-3.8
	c-1.3-2.5-2-6.2-2-11.2C167.3,308.4,168,304.7,169.3,302.2z M173.4,12l-8.9,1.7V9.3l8.9-1.7h5v32.1h8.2v4.1h-21.4v-4.1h8.2V12z
	 M140.5,12l-8.9,1.7V9.3l8.9-1.7h5v32.1h8.2v4.1h-21.4v-4.1h8.2V12z M175.1,159.8c4.2,0,7.4-1.6,9.6-4.8c2.2-3.2,3.3-7.9,3.3-14
	s-1.1-10.8-3.3-14c-2.3-3.2-5.4-4.8-9.6-4.8c-4.2,0-7.4,1.5-9.6,4.8c-2.2,3.2-3.3,7.9-3.3,14s1,10.8,3.3,14
	C167.8,158.2,170.9,159.8,175.1,159.8z M169.3,129.9c1.3-2.5,3.3-3.8,5.8-3.8s4.5,1.3,5.8,3.8c1.3,2.5,2,6.2,2,11.2
	c0,5-0.7,8.7-2,11.2c-1.3,2.5-3.3,3.8-5.8,3.8s-4.5-1.3-5.8-3.8c-1.3-2.5-2-6.2-2-11.2C167.3,136.1,168,132.4,169.3,129.9z
	 M142.2,217.1c4.2,0,7.4-1.6,9.6-4.8c2.2-3.2,3.3-7.9,3.3-14s-1.1-10.8-3.3-14c-2.3-3.2-5.4-4.8-9.6-4.8s-7.3,1.5-9.6,4.8
	c-2.2,3.2-3.3,7.9-3.3,14s1.1,10.8,3.3,14C134.9,215.5,138.1,217.1,142.2,217.1z M136.4,187.2c1.3-2.5,3.3-3.8,5.8-3.8
	c2.7,0,4.5,1.3,5.8,3.8c1.3,2.5,2,6.2,2,11.2c0,5-0.7,8.7-2,11.2c-1.3,2.5-3.3,3.8-5.8,3.8s-4.5-1.3-5.8-3.8c-1.3-2.5-2-6.2-2-11.2
	C134.4,193.4,135.1,189.7,136.4,187.2z M142.2,159.8c4.2,0,7.4-1.6,9.6-4.8c2.2-3.2,3.3-7.9,3.3-14s-1.1-10.8-3.3-14
	c-2.3-3.2-5.4-4.8-9.6-4.8s-7.3,1.5-9.6,4.8c-2.2,3.2-3.3,7.9-3.3,14s1.1,10.8,3.3,14C134.9,158.2,138.1,159.8,142.2,159.8z
	 M136.4,129.9c1.3-2.5,3.3-3.8,5.8-3.8c2.7,0,4.5,1.3,5.8,3.8c1.3,2.5,2,6.2,2,11.2c0,5-0.7,8.7-2,11.2c-1.3,2.5-3.3,3.8-5.8,3.8
	s-4.5-1.3-5.8-3.8c-1.3-2.5-2-6.2-2-11.2C134.4,136.1,135.1,132.4,136.4,129.9z M205.8,12l-8.9,1.7V9.3l8.9-1.7h5v32.1h8.2v4.1
	h-21.4v-4.1h8.2V12z M239.7,159.8c2.7,0,4.9-0.7,6.8-1.9c0.5-0.8,1-1.7,1.5-2.5c1.3-2.1,2.5-4.2,3.8-6.4c0.5-2.3,0.8-5,0.8-8
	c0-6.1-1.1-10.8-3.3-14c-2.3-3.2-5.4-4.8-9.6-4.8c-4.2,0-7.4,1.5-9.6,4.8c-2.2,3.2-3.3,7.9-3.3,14s1,10.8,3.3,14
	C232.4,158.2,235.5,159.8,239.7,159.8z M233.9,129.9c1.3-2.5,3.3-3.8,5.8-3.8c2.6,0,4.5,1.3,5.8,3.8c1.3,2.5,2,6.2,2,11.2
	c0,5-0.7,8.7-2,11.2c-1.3,2.5-3.3,3.8-5.8,3.8c-2.6,0-4.5-1.3-5.8-3.8c-1.3-2.5-2-6.2-2-11.2C231.9,136.1,232.6,132.4,233.9,129.9z
	 M207.4,217.1c4.2,0,7.4-1.6,9.6-4.8c2.2-3.2,3.3-7.9,3.3-14s-1.1-10.8-3.3-14c-2.3-3.2-5.4-4.8-9.6-4.8c-4.2,0-7.4,1.5-9.6,4.8
	c-2.2,3.2-3.3,7.9-3.3,14s1,10.8,3.3,14C200.1,215.5,203.3,217.1,207.4,217.1z M201.6,187.2c1.3-2.5,3.3-3.8,5.8-3.8
	c2.6,0,4.5,1.3,5.8,3.8s2,6.2,2,11.2c0,5-0.7,8.7-2,11.2c-1.3,2.5-3.3,3.8-5.8,3.8s-4.5-1.3-5.8-3.8c-1.3-2.5-2-6.2-2-11.2
	C199.6,193.4,200.3,189.7,201.6,187.2z M205.8,69.6l-8.9,1.7v-4.4l8.9-1.7h5v32.1h8.2v4.1h-21.4v-4.2h8.2V69.6z M205.8,127.4
	l-8.9,1.7v-4.4l8.9-1.7h5V155h8.2v4.1h-21.4V155h8.2V127.4z M233.5,181.1c-0.9,1.6-1.8,3.3-2.7,5l-1.7,0.3V182L233.5,181.1z
	 M173.4,375.7v-1.9c1.8,0.7,3.2,1.1,4.2,1.3C176.2,375.2,174.8,375.4,173.4,375.7z M173.4,367.4v-9.9l-8.9,1.7v-4.4l8.9-1.7h4.5
	c0.2,0.5,0.3,1,0.5,1.6v12.9C176.9,367.7,175.2,367.6,173.4,367.4z M173.4,385.2v-2.9c1.8-0.1,3.5-0.2,5-0.1v3h3.3
	c-0.5,1.4-1,2.8-1.5,4.1h-15.1v-4.1H173.4z M140.5,385.2v-27.6l-8.9,1.7v-4.4l8.9-1.7h5v32.1h8.2v0.7c-1.3,0.9-2.6,1.9-3.9,2.8
	c1.3-0.5,2.6-1,3.9-1.5v2.2h-21.4v-4.1H140.5z M172.8,410.5c-0.5,1.6-1.1,3.2-1.6,4.7l-6.6,1.3v-4.4L172.8,410.5z M186.7,446.6
	h-20.6c0.5-1.4,0.9-2.7,1.4-4.1h6v-17.6c1.6-4.6,3.3-9.5,5-14.5h0v32.1h8.2V446.6z M275.4,65.1v32.1h8.2v2.8
	c-0.3,0.4-0.6,0.9-0.9,1.3h-20.5v-4.2h8.2V69.6l-8.9,1.7v-4.4l8.9-1.7H275.4z M364.8,40.7c-0.4,0.4-0.8,0.9-1.2,1.3
	C364.5,41.1,364.8,40.7,364.8,40.7z M303.2,73.4v-3.8l-8.9,1.7v-4.4l8.9-1.7h5v1.7c-1.5,1.9-3.1,3.9-4.6,6
	C303.5,73,303.3,73.2,303.2,73.4z M363,42.7C363,42.7,363,42.7,363,42.7c0.2-0.2,0.4-0.5,0.7-0.7C363.5,42.1,363.2,42.4,363,42.7z
	 M186.7,389.3h-0.8c0.3-0.7,0.5-1.4,0.8-2.1V389.3z M76,12l-8.9,1.7V9.3L76,7.6h5v32.1h8.2v4.1H67.8v-4.1H76V12z M199.7,368.4
	c-1.2,3.4-2.3,6.5-4.1,11.6c-0.7-2.5-1-5.4-1-8.8c0-2.9,0.3-5.5,0.8-7.7c0.1-0.2,0.1-0.4,0.2-0.5c0.6-1.6,1.2-3.1,1.8-4.7
	c0.2-0.3,0.4-0.6,0.6-0.9c1.8-2.7,4.4-4.2,7.7-4.7c-0.6,1.6-1.2,3.3-1.8,4.9c-0.8,0.6-1.5,1.5-2.1,2.6c-1,2-1.6,4.7-1.9,8.2
	C199.7,368.3,199.7,368.3,199.7,368.4z M432.9,127.4l-8.9,1.7v-4.4l8.9-1.7h5V155h8.2v4.1h-21.4V155h8.2V127.4z M340.5,238v32.1h8.2
	v4.1h-21.4v-4.1h8.2v-27.6l-8.9,1.7v-4.4l8.9-1.7H340.5z M432.9,69.6l-8.9,1.7v-4.4l8.9-1.7h5v32.1h8.2v4.1h-21.4v-4.2h8.2V69.6z
	 M400.1,12l-8.9,1.7V9.3l8.9-1.7h5v32.1h8.2v4.1h-21.4v-4.1h8.2V12z M499.2,44.4c4.2,0,7.4-1.6,9.6-4.8c2.2-3.2,3.3-7.9,3.3-14
	s-1.1-10.8-3.3-14c-2.3-3.2-5.4-4.8-9.6-4.8c-4.1,0-7.4,1.6-9.6,4.8c-2.2,3.2-3.3,7.9-3.3,14s1.1,10.8,3.3,14
	C491.9,42.8,495,44.4,499.2,44.4z M493.4,14.6c1.3-2.5,3.3-3.8,5.8-3.8c2.6,0,4.5,1.3,5.8,3.8c1.3,2.5,2,6.2,2,11.2
	c0,5-0.7,8.7-2,11.2c-1.3,2.5-3.3,3.8-5.8,3.8c-2.6,0-4.5-1.3-5.8-3.8c-1.3-2.5-2-6.2-2-11.2C491.4,20.8,492.1,17.1,493.4,14.6z
	 M432.9,12l-8.9,1.7V9.3l8.9-1.7h5v32.1h8.2v4.1h-21.4v-4.1h8.2V12z M303.2,385.2v-27.6l-8.9,1.7v-4.4l8.9-1.7h5v32.1h8.2v4.1H295
	v-4.1H303.2z M330.6,207.8c-1.4,0.7-2.8,1.3-4.4,2c-0.4-0.9-0.7-1.9-1-3c0.7-0.5,1.4-1,2.1-1.5c0.8-0.6,1.6-1.1,2.4-1.7
	C329.9,205.1,330.2,206.5,330.6,207.8z M243.1,373.7v11.4h8.2v4.1h-21.4v-4.1h8.2v-8.8C239.8,375.5,241.5,374.7,243.1,373.7z
	 M271.9,44.4c4.2,0,7.4-1.6,9.6-4.8c2.2-3.2,3.3-7.9,3.3-14s-1.1-10.8-3.3-14c-2.3-3.2-5.4-4.8-9.6-4.8c-4.1,0-7.3,1.6-9.6,4.8
	c-2.2,3.2-3.3,7.9-3.3,14s1.1,10.8,3.3,14C264.6,42.8,267.8,44.4,271.9,44.4z M266.1,14.6c1.3-2.5,3.3-3.8,5.8-3.8
	c2.7,0,4.6,1.3,5.8,3.8c1.3,2.5,2,6.2,2,11.2c0,5-0.7,8.7-2,11.2c-1.3,2.5-3.3,3.8-5.8,3.8c-2.6,0-4.5-1.3-5.8-3.8
	c-1.3-2.5-2-6.2-2-11.2C264.1,20.8,264.8,17.1,266.1,14.6z M238.1,442.4v-27.6l-8.9,1.7v-4.4l8.9-1.7h5v32.1h8.2v4.1h-21.4v-4.1
	H238.1z M308.2,295.3v32.1h8.2v4.1H295v-4.1h8.2v-27.6l-8.9,1.7V297l8.9-1.7H308.2z M270.4,385.2v-27.6l-8.9,1.7v-4.4l8.9-1.7h5
	v32.1h8.2v4.1h-21.4v-4.1H270.4z M207.4,390c-1.5,0-2.9-0.2-4.2-0.7c-1.5-2.4-3.3-4.6-5.5-6.6c1.4,0.1,2.8,0.1,4.2,0.1
	c1.3,2.2,3.2,3.4,5.6,3.4c2.6,0,4.5-1.2,5.8-3.7c1.8-0.2,3.7-0.4,5.5-0.6c-0.5,1.3-1,2.4-1.7,3.4C214.8,388.3,211.7,390,207.4,390z
	 M245.4,240.3c0.2-0.4,0.4-0.9,0.6-1.3c1.3,0.8,2.4,1.8,3.3,3.2c0.1,0.1,0.1,0.2,0.2,0.3c-0.1,0.3-0.2,0.6-0.4,0.8
	c-0.8,1.7-1.5,3.5-2.3,5.3c-0.3-1.4-0.7-2.6-1.3-3.7c-0.4-0.8-0.8-1.4-1.4-1.9C244.6,242.1,245,241.2,245.4,240.3z M243.1,358.9v2.8
	c-1.6,0.1-3.2,0.1-5,0v-0.5C239.8,360.4,241.5,359.7,243.1,358.9z M205.8,238h0.8c-0.6,1.6-1.3,3.1-1.9,4.6l-7.9,1.5v-4.4L205.8,238
	z M231.8,271.9c0.7-1.6,1.4-3.2,2-4.9c0,0.1,0.1,0.1,0.1,0.2c0.9,1.7,2.1,2.9,3.7,3.4c-0.5,1.2-1,2.5-1.5,3.7
	C234.4,273.9,233,273.1,231.8,271.9z M283.6,331.5h-9.4c0.8-1.3,1.6-2.7,2.5-4.1h7V331.5z M201.8,331.5l-2.1-4.1h0.2l2.2,4.1H201.8z
	 M304.8,44.4c4.2,0,7.4-1.6,9.6-4.8c2.2-3.2,3.3-7.9,3.3-14s-1.1-10.8-3.3-14c-2.3-3.2-5.4-4.8-9.6-4.8c-4.1,0-7.4,1.6-9.6,4.8
	c-2.2,3.2-3.3,7.9-3.3,14s1.1,10.8,3.3,14C297.5,42.8,300.7,44.4,304.8,44.4z M299,14.6c1.3-2.5,3.3-3.8,5.8-3.8
	c2.6,0,4.5,1.3,5.8,3.8c1.3,2.5,2,6.2,2,11.2c0,5-0.7,8.7-2,11.2c-1.3,2.5-3.3,3.8-5.8,3.8c-2.6,0-4.5-1.3-5.8-3.8
	c-1.3-2.5-2-6.2-2-11.2C297,20.8,297.7,17.1,299,14.6z M327.6,39.6c-2.2-3.2-3.3-7.9-3.3-14s1.1-10.8,3.3-14
	c2.2-3.2,5.4-4.8,9.6-4.8s7.3,1.6,9.6,4.8c1.6,2.4,2.7,5.7,3.1,9.7c-1.5,1.2-3.1,2.6-4.8,4.1c0-4.9-0.7-8.5-2-11
	c-1.3-2.5-3.3-3.8-5.8-3.8c-2.6,0-4.5,1.3-5.8,3.8c-1.3,2.5-2,6.3-2,11.2c0,5,0.7,8.7,2,11.2c0.3,0.5,0.6,0.9,0.9,1.3
	c-1,1-2,2.1-3,3.2C328.6,41,328.1,40.3,327.6,39.6z M340.5,79v0.4c-1.8,0.1-3.4,0.2-5,0.3v-0.4C337.1,79.2,338.8,79.1,340.5,79z
	 M367.8,76c1.7-0.2,3.4-0.4,5-0.7v0.3c-1.7,0.2-3.4,0.5-5,0.7V76z M357.8,16.3c0.5-1.8,1.2-3.3,2.1-4.6c2.2-3.2,5.4-4.8,9.6-4.8
	s7.3,1.6,9.6,4.8c2.2,3.2,3.3,7.9,3.3,14c0,0.1,0,0.2,0,0.3c-1.4-1.6-3.2-3.5-5.3-5.3c-0.3-2.5-0.9-4.5-1.7-6.1
	c-1.3-2.5-3.3-3.8-5.8-3.8c-2.6,0-4.5,1.3-5.8,3.8c-0.1,0.2-0.2,0.4-0.3,0.6C361.6,15.2,359.7,15.6,357.8,16.3z M262.2,212.3h1
	c-0.3,0.7-0.7,1.4-1,2.2V212.3z M275.4,314v12.2c-2.2,1.9-4.5,3.7-6.8,5.2h-6.4v-4.1h8.2v-9C272.1,317,273.8,315.5,275.4,314z
	 M261.5,124.7l6.4-1.2c-1.1,1.7-2.2,3.4-3.3,5.1l-3.1,0.6V124.7z M213.6,331.5h-5.7c1-2.5,1.9-4.9,2.9-7.4v3.3h4.4
	C214.6,328.7,214.1,330.1,213.6,331.5z M312.5,213.4c0.9-0.3,1.7-0.7,2.5-1.1h1.4v0.4c-1,0.2-2,0.4-3,0.6
	C313.1,213.3,312.7,213.4,312.5,213.4z M342.3,159.1c2-1.3,3.7-2.7,5.3-4.1h1.1v4.1H342.3z M251.3,331.5h-1.1
	c0.4-0.2,0.7-0.4,1.1-0.6V331.5z M293.3,150.8c-0.5-1.6-0.8-3.3-1.1-5.3c1.7-3,3.4-6,5-9c-0.1,1.4-0.2,2.9-0.2,4.5
	c0,0.9,0,1.8,0.1,2.6c-0.8,1.5-1.6,3-2.4,4.5C294.2,149,293.8,149.9,293.3,150.8z M326.8,66.8L326.8,66.8l2.3,4l-0.1,0L326.8,66.8z
	 M270.4,196.9v-9.7c0.6-1.2,1.3-2.5,1.9-3.7c0.6-1.1,1.1-2.2,1.7-3.4h1.4v6.4c-1.4,2.9-2.9,6-4.4,9
	C270.8,196.1,270.6,196.5,270.4,196.9z M305.5,122.3c1.1,0,2.2,0.2,3.2,0.5c-0.4,0.7-0.8,1.4-1.2,2.1c-0.3,0.5-0.5,0.9-0.8,1.4
	c-0.6-0.2-1.2-0.2-1.8-0.2c-0.6,0-1.2,0.1-1.7,0.2c0.6-1,1.2-2,1.7-3C305.1,123,305.3,122.6,305.5,122.3z M335.5,76
	c1.7-2.3,3.4-4.6,5-6.8v2.4c-1.6,2.3-3.3,4.8-5,7.4V76z M381,101.4h-0.3c0.1-0.2,0.2-0.4,0.3-0.6V101.4z M401.8,352.4
	c-4.2,0-7.4,1.6-9.6,4.8s-3.3,7.9-3.3,14s1.1,10.8,3.3,14c2.3,3.2,5.4,4.8,9.6,4.8c4.2,0,7.4-1.6,9.6-4.8s3.3-7.9,3.3-14
	s-1.1-10.8-3.3-14C409.1,354,405.9,352.4,401.8,352.4z M407.6,382.4c-1.3,2.5-3.3,3.8-5.8,3.8c-2.6,0-4.5-1.3-5.8-3.8
	c-1.3-2.5-2-6.2-2-11.2s0.7-8.7,2-11.2c1.3-2.5,3.3-3.8,5.8-3.8c2.6,0,4.5,1.3,5.8,3.8c1.3,2.5,2,6.2,2,11.2
	S408.9,379.9,407.6,382.4z M434.6,409.7c-4.1,0-7.3,1.6-9.6,4.8c-2.2,3.2-3.3,7.9-3.3,14s1.1,10.8,3.3,14c2.3,3.2,5.4,4.8,9.6,4.8
	c4.2,0,7.4-1.6,9.6-4.8c2.2-3.2,3.3-7.9,3.3-14s-1.1-10.8-3.3-14C441.9,411.3,438.7,409.7,434.6,409.7z M440.4,439.7
	c-1.3,2.5-3.3,3.8-5.8,3.8s-4.5-1.3-5.8-3.8c-1.3-2.5-2-6.2-2-11.2c0-5,0.7-8.7,2-11.2c1.3-2.5,3.3-3.8,5.8-3.8s4.5,1.3,5.8,3.8
	c1.3,2.5,2,6.2,2,11.2C442.4,433.5,441.7,437.2,440.4,439.7z M379,127.1c2.2,3.2,3.3,7.9,3.3,14s-1.1,10.8-3.3,14
	c-2.2,3.2-5.3,4.8-9.6,4.8c-4.1,0-7.3-1.6-9.6-4.8c-1.8-2.6-2.8-6.2-3.1-10.8c1-1.5,2-3,3.1-4.5c0.7-1.1,1.4-2.1,2.1-3.2
	c-0.2,1.4-0.2,2.9-0.2,4.6c0,5,0.7,8.7,2,11.2c1.3,2.5,3.3,3.8,5.8,3.8c2.6,0,4.5-1.3,5.8-3.8c1.3-2.5,2-6.2,2-11.2
	c0-5-0.7-8.7-2-11.2c-1.3-2.5-3.3-3.8-5.8-3.8c-0.5,0-1,0.1-1.4,0.2c0.8-1.3,1.5-2.6,2.2-4C374,122.5,376.9,124.1,379,127.1z
	 M401.8,294.6c-4.2,0-7.4,1.6-9.6,4.8c-2.2,3.2-3.3,7.9-3.3,14c0,6.1,1.1,10.8,3.3,14c2.3,3.2,5.4,4.8,9.6,4.8
	c4.2,0,7.4-1.6,9.6-4.8c2.2-3.2,3.3-7.9,3.3-14c0-6.1-1.1-10.8-3.3-14C409.1,296.3,405.9,294.6,401.8,294.6z M407.6,324.6
	c-1.3,2.5-3.3,3.8-5.8,3.8c-2.6,0-4.5-1.3-5.8-3.8s-2-6.2-2-11.2c0-5,0.7-8.7,2-11.2s3.3-3.8,5.8-3.8c2.6,0,4.5,1.3,5.8,3.8
	s2,6.2,2,11.2C409.6,318.4,408.9,322.1,407.6,324.6z M405.1,500.2h8.2v4.1h-21.4v-4.1h8.2v-27.6l-8.9,1.7v-4.4l8.9-1.7h5V500.2z
	 M401.8,64.4c-4.2,0-7.4,1.6-9.6,4.8c-2.2,3.2-3.3,7.9-3.3,14c0,6.1,1.1,10.8,3.3,14c2.3,3.2,5.4,4.8,9.6,4.8c4.2,0,7.4-1.6,9.6-4.8
	c2.2-3.2,3.3-7.9,3.3-14c0-6.1-1.1-10.8-3.3-14C409.1,66,405.9,64.4,401.8,64.4z M407.6,94.4c-1.3,2.5-3.3,3.8-5.8,3.8
	c-2.6,0-4.5-1.3-5.8-3.8c-1.3-2.5-2-6.2-2-11.2c0-4.9,0.7-8.7,2-11.2s3.3-3.8,5.8-3.8c2.6,0,4.5,1.3,5.8,3.8s2,6.2,2,11.2
	C409.6,88.3,408.9,91.9,407.6,94.4z M405.1,180.2v32.1h8.2v4.1h-21.4v-4.1h8.2v-27.6l-8.9,1.7V182l8.9-1.7H405.1z M372.8,180.2v32.1
	h8.2v4.1h-21.4v-4.1h0h8.2v-27.6l-8.9,1.7V182l8.9-1.7H372.8z M316.5,246.5c0.8,2.7,1.2,5.9,1.2,9.6c0,6.1-1.1,10.8-3.3,14
	c-2.2,3.2-5.3,4.8-9.6,4.8c-0.3,0-0.6,0-0.9,0c0.7-1.3,1.3-2.6,2-3.9c2-0.3,3.6-1.5,4.7-3.7c1.3-2.5,2-6.2,2-11.2c0,0,0,0,0,0
	C313.9,253,315.2,249.8,316.5,246.5z M391.2,239.7l8.9-1.7h5v32.1h8.2v4.1h-21.4v-4.1h8.2v-27.6l-8.9,1.7V239.7z M401.8,122.3
	c-4.2,0-7.4,1.5-9.6,4.8c-2.2,3.2-3.3,7.9-3.3,14s1.1,10.8,3.3,14c2.3,3.2,5.4,4.8,9.6,4.8c4.2,0,7.4-1.6,9.6-4.8
	c2.2-3.2,3.3-7.9,3.3-14s-1.1-10.8-3.3-14C409.1,123.9,405.9,122.3,401.8,122.3z M407.6,152.2c-1.3,2.5-3.3,3.8-5.8,3.8
	c-2.6,0-4.5-1.3-5.8-3.8c-1.3-2.5-2-6.2-2-11.2c0-4.9,0.7-8.7,2-11.2c1.3-2.5,3.3-3.8,5.8-3.8c2.6,0,4.5,1.3,5.8,3.8
	c1.3,2.5,2,6.2,2,11.2C409.6,146,408.9,149.7,407.6,152.2z M405.1,442.4h8.2v4.1h-21.4v-4.1h8.2v-27.6l-8.9,1.7v-4.4l8.9-1.7h5
	V442.4z M337.2,294.6c-4.1,0-7.4,1.6-9.6,4.8c-2.2,3.2-3.3,7.9-3.3,14c0,6.1,1.1,10.8,3.3,14c2.3,3.2,5.4,4.8,9.6,4.8
	c4.2,0,7.4-1.6,9.6-4.8c2.2-3.2,3.3-7.9,3.3-14c0-6.1-1.1-10.8-3.3-14C344.5,296.3,341.3,294.6,337.2,294.6z M343,324.6
	c-1.3,2.5-3.3,3.8-5.8,3.8c-2.6,0-4.5-1.3-5.8-3.8c-1.3-2.5-2-6.2-2-11.2c0-5,0.7-8.7,2-11.2c1.3-2.5,3.3-3.8,5.8-3.8
	c2.6,0,4.5,1.3,5.8,3.8c1.3,2.5,2,6.2,2,11.2C345,318.4,344.3,322.1,343,324.6z M337.2,352.4c-4.1,0-7.4,1.6-9.6,4.8
	c-2.2,3.2-3.3,7.9-3.3,14s1.1,10.8,3.3,14c2.3,3.2,5.4,4.8,9.6,4.8c4.2,0,7.4-1.6,9.6-4.8s3.3-7.9,3.3-14s-1.1-10.8-3.3-14
	C344.5,354,341.3,352.4,337.2,352.4z M343,382.4c-1.3,2.5-3.3,3.8-5.8,3.8c-2.6,0-4.5-1.3-5.8-3.8c-1.3-2.5-2-6.2-2-11.2
	s0.7-8.7,2-11.2c1.3-2.5,3.3-3.8,5.8-3.8c2.6,0,4.5,1.3,5.8,3.8c1.3,2.5,2,6.2,2,11.2S344.3,379.9,343,382.4z M369.5,237.3
	c-4.1,0-7.4,1.6-9.6,4.8s-3.3,7.9-3.3,14s1.1,10.8,3.3,14c2.3,3.2,5.4,4.8,9.6,4.8c4.2,0,7.4-1.6,9.6-4.8c2.2-3.2,3.3-7.9,3.3-14
	s-1.1-10.8-3.3-14C376.8,239,373.6,237.3,369.5,237.3z M375.3,267.3c-1.3,2.5-3.3,3.8-5.8,3.8c-2.6,0-4.5-1.3-5.8-3.8
	c-1.3-2.5-2-6.2-2-11.2c0-4.9,0.7-8.7,2-11.2c1.3-2.5,3.3-3.8,5.8-3.8c2.6,0,4.5,1.3,5.8,3.8c1.3,2.5,2,6.2,2,11.2
	S376.6,264.8,375.3,267.3z M337.2,467.5c-4.1,0-7.4,1.6-9.6,4.8c-2.2,3.2-3.3,7.9-3.3,14s1.1,10.8,3.3,14c2.3,3.2,5.4,4.8,9.6,4.8
	c4.2,0,7.4-1.6,9.6-4.8c2.2-3.2,3.3-7.9,3.3-14s-1.1-10.8-3.3-14C344.5,469.1,341.3,467.5,337.2,467.5z M343,497.5
	c-1.3,2.5-3.3,3.8-5.8,3.8c-2.6,0-4.5-1.3-5.8-3.8c-1.3-2.5-2-6.2-2-11.2s0.7-8.7,2-11.2c1.3-2.5,3.3-3.8,5.8-3.8
	c2.6,0,4.5,1.3,5.8,3.8c1.3,2.5,2,6.2,2,11.2S344.3,495,343,497.5z M346.7,184.4c2.2,3.2,3.3,7.9,3.3,14s-1.1,10.8-3.3,14
	c-2.2,3.2-5.3,4.8-9.6,4.8c-2.7,0-5-0.7-6.9-2.1c0.8-1.2,1.6-2.4,2.4-3.6c1.2,1.2,2.7,1.8,4.5,1.8c2.6,0,4.5-1.3,5.8-3.8
	c1.3-2.5,2-6.2,2-11.2c0-5-0.7-8.7-2-11.2c0,0,0-0.1-0.1-0.1c0.2-0.3,0.3-0.6,0.5-0.9c0.6-1.2,1.2-2.4,1.8-3.5
	C345.7,183.1,346.3,183.7,346.7,184.4z M337.2,409.7c-4.1,0-7.4,1.6-9.6,4.8c-2.2,3.2-3.3,7.9-3.3,14s1.1,10.8,3.3,14
	c2.3,3.2,5.4,4.8,9.6,4.8c4.2,0,7.4-1.6,9.6-4.8c2.2-3.2,3.3-7.9,3.3-14s-1.1-10.8-3.3-14C344.5,411.3,341.3,409.7,337.2,409.7z
	 M343,439.7c-1.3,2.5-3.3,3.8-5.8,3.8c-2.6,0-4.5-1.3-5.8-3.8c-1.3-2.5-2-6.2-2-11.2c0-5,0.7-8.7,2-11.2c1.3-2.5,3.3-3.8,5.8-3.8
	c2.6,0,4.5,1.3,5.8,3.8c1.3,2.5,2,6.2,2,11.2C345,433.5,344.3,437.2,343,439.7z M372.8,327.4h8.2v4.1h-21.4v-4.1h0h8.2v-27.6
	l-8.9,1.7V297l8.9-1.7h5V327.4z M372.8,500.2h8.2v4.1h-21.4v-4.1h0h8.2v-27.6l-8.9,1.7v-4.4l8.9-1.7h5V500.2z M372.8,385.2h8.2v4.1
	h-21.4v-4.1h0h8.2v-27.6l-8.9,1.7v-4.4l8.9-1.7h5V385.2z M372.8,442.4h8.2v4.1h-21.4v-4.1h0h8.2v-27.6l-8.9,1.7v-4.4l8.9-1.7h5
	V442.4z M434.6,467.5c-4.1,0-7.3,1.6-9.6,4.8c-2.2,3.2-3.3,7.9-3.3,14s1.1,10.8,3.3,14c2.3,3.2,5.4,4.8,9.6,4.8
	c4.2,0,7.4-1.6,9.6-4.8c2.2-3.2,3.3-7.9,3.3-14s-1.1-10.8-3.3-14C441.9,469.1,438.7,467.5,434.6,467.5z M440.4,497.5
	c-1.3,2.5-3.3,3.8-5.8,3.8s-4.5-1.3-5.8-3.8c-1.3-2.5-2-6.2-2-11.2s0.7-8.7,2-11.2c1.3-2.5,3.3-3.8,5.8-3.8s4.5,1.3,5.8,3.8
	c1.3,2.5,2,6.2,2,11.2S441.7,495,440.4,497.5z M499.2,409.7c-4.1,0-7.4,1.6-9.6,4.8c-2.2,3.2-3.3,7.9-3.3,14s1.1,10.8,3.3,14
	c2.3,3.2,5.4,4.8,9.6,4.8c4.2,0,7.4-1.6,9.6-4.8c2.2-3.2,3.3-7.9,3.3-14s-1.1-10.8-3.3-14C506.5,411.3,503.3,409.7,499.2,409.7z
	 M505,439.7c-1.3,2.5-3.3,3.8-5.8,3.8c-2.6,0-4.5-1.3-5.8-3.8s-2-6.2-2-11.2c0-5,0.7-8.7,2-11.2s3.3-3.8,5.8-3.8
	c2.6,0,4.5,1.3,5.8,3.8s2,6.2,2,11.2C507,433.5,506.3,437.2,505,439.7z M499.2,294.6c-4.1,0-7.4,1.6-9.6,4.8
	c-2.2,3.2-3.3,7.9-3.3,14c0,6.1,1.1,10.8,3.3,14c2.3,3.2,5.4,4.8,9.6,4.8c4.2,0,7.4-1.6,9.6-4.8c2.2-3.2,3.3-7.9,3.3-14
	c0-6.1-1.1-10.8-3.3-14C506.5,296.3,503.3,294.6,499.2,294.6z M505,324.6c-1.3,2.5-3.3,3.8-5.8,3.8c-2.6,0-4.5-1.3-5.8-3.8
	s-2-6.2-2-11.2c0-5,0.7-8.7,2-11.2s3.3-3.8,5.8-3.8c2.6,0,4.5,1.3,5.8,3.8s2,6.2,2,11.2C507,318.4,506.3,322.1,505,324.6z
	 M502.5,353.1v32.1h8.2v4.1h-21.4v-4.1h0h8.2v-27.6l-8.9,1.7v-4.4l8.9-1.7H502.5z M499.2,467.5c-4.1,0-7.4,1.6-9.6,4.8
	c-2.2,3.2-3.3,7.9-3.3,14s1.1,10.8,3.3,14c2.3,3.2,5.4,4.8,9.6,4.8c4.2,0,7.4-1.6,9.6-4.8c2.2-3.2,3.3-7.9,3.3-14s-1.1-10.8-3.3-14
	C506.5,469.1,503.3,467.5,499.2,467.5z M505,497.5c-1.3,2.5-3.3,3.8-5.8,3.8c-2.6,0-4.5-1.3-5.8-3.8s-2-6.2-2-11.2s0.7-8.7,2-11.2
	c1.3-2.5,3.3-3.8,5.8-3.8c2.6,0,4.5,1.3,5.8,3.8c1.3,2.5,2,6.2,2,11.2S506.3,495,505,497.5z M466.9,6.9c-4.1,0-7.3,1.6-9.6,4.8
	c-2.2,3.2-3.3,7.9-3.3,14s1.1,10.8,3.3,14c2.3,3.2,5.4,4.8,9.6,4.8c4.2,0,7.4-1.6,9.6-4.8c2.2-3.2,3.3-7.9,3.3-14s-1.1-10.8-3.3-14
	C474.2,8.5,471,6.9,466.9,6.9z M472.7,36.9c-1.3,2.5-3.3,3.8-5.8,3.8c-2.6,0-4.5-1.3-5.8-3.8c-1.3-2.5-2-6.2-2-11.2
	c0-4.9,0.7-8.7,2-11.2c1.3-2.5,3.3-3.8,5.8-3.8c2.6,0,4.5,1.3,5.8,3.8c1.3,2.5,2,6.2,2,11.2C474.7,30.8,474,34.4,472.7,36.9z
	 M499.2,64.4c-4.1,0-7.4,1.6-9.6,4.8c-2.2,3.2-3.3,7.9-3.3,14c0,6.1,1.1,10.8,3.3,14c2.3,3.2,5.4,4.8,9.6,4.8c4.2,0,7.4-1.6,9.6-4.8
	c2.2-3.2,3.3-7.9,3.3-14c0-6.1-1.1-10.8-3.3-14C506.5,66,503.3,64.4,499.2,64.4z M505,94.4c-1.3,2.5-3.3,3.8-5.8,3.8
	c-2.6,0-4.5-1.3-5.8-3.8c-1.3-2.5-2-6.2-2-11.2c0-4.9,0.7-8.7,2-11.2s3.3-3.8,5.8-3.8c2.6,0,4.5,1.3,5.8,3.8s2,6.2,2,11.2
	C507,88.3,506.3,91.9,505,94.4z M502.5,180.2v32.1h8.2v4.1h-21.4v-4.1h0h8.2v-27.6l-8.9,1.7V182l8.9-1.7H502.5z M470.2,65.1v32.1
	h8.2v4.1H457v-4.2h0h8.2V69.6l-8.9,1.7v-4.4l8.9-1.7H470.2z M499.2,122.3c-4.1,0-7.4,1.5-9.6,4.8c-2.2,3.2-3.3,7.9-3.3,14
	s1.1,10.8,3.3,14c2.3,3.2,5.4,4.8,9.6,4.8c4.2,0,7.4-1.6,9.6-4.8c2.2-3.2,3.3-7.9,3.3-14s-1.1-10.8-3.3-14
	C506.5,123.9,503.3,122.3,499.2,122.3z M505,152.2c-1.3,2.5-3.3,3.8-5.8,3.8c-2.6,0-4.5-1.3-5.8-3.8c-1.3-2.5-2-6.2-2-11.2
	c0-4.9,0.7-8.7,2-11.2c1.3-2.5,3.3-3.8,5.8-3.8c2.6,0,4.5,1.3,5.8,3.8c1.3,2.5,2,6.2,2,11.2C507,146,506.3,149.7,505,152.2z
	 M488.6,239.7l8.9-1.7h5v32.1h8.2v4.1h-21.4v-4.1h0h8.2v-27.6l-8.9,1.7V239.7z M466.9,237.3c-4.1,0-7.3,1.6-9.6,4.8
	c-2.2,3.2-3.3,7.9-3.3,14s1.1,10.8,3.3,14c2.3,3.2,5.4,4.8,9.6,4.8c4.2,0,7.4-1.6,9.6-4.8c2.2-3.2,3.3-7.9,3.3-14s-1.1-10.8-3.3-14
	C474.2,239,471,237.3,466.9,237.3z M472.7,267.3c-1.3,2.5-3.3,3.8-5.8,3.8c-2.6,0-4.5-1.3-5.8-3.8c-1.3-2.5-2-6.2-2-11.2
	c0-4.9,0.7-8.7,2-11.2c1.3-2.5,3.3-3.8,5.8-3.8c2.6,0,4.5,1.3,5.8,3.8c1.3,2.5,2,6.2,2,11.2S474,264.8,472.7,267.3z M466.9,122.3
	c-4.1,0-7.3,1.5-9.6,4.8c-2.2,3.2-3.3,7.9-3.3,14s1.1,10.8,3.3,14c2.3,3.2,5.4,4.8,9.6,4.8c4.2,0,7.4-1.6,9.6-4.8
	c2.2-3.2,3.3-7.9,3.3-14s-1.1-10.8-3.3-14C474.2,123.9,471,122.3,466.9,122.3z M472.7,152.2c-1.3,2.5-3.3,3.8-5.8,3.8
	c-2.6,0-4.5-1.3-5.8-3.8c-1.3-2.5-2-6.2-2-11.2c0-4.9,0.7-8.7,2-11.2c1.3-2.5,3.3-3.8,5.8-3.8c2.6,0,4.5,1.3,5.8,3.8
	c1.3,2.5,2,6.2,2,11.2C474.7,146,474,149.7,472.7,152.2z M434.6,179.6c-4.1,0-7.3,1.5-9.6,4.8c-2.2,3.2-3.3,7.9-3.3,14
	s1.1,10.8,3.3,14c2.3,3.2,5.4,4.8,9.6,4.8c4.2,0,7.4-1.6,9.6-4.8c2.2-3.2,3.3-7.9,3.3-14s-1.1-10.8-3.3-14
	C441.9,181.2,438.7,179.6,434.6,179.6z M440.4,209.5c-1.3,2.5-3.3,3.8-5.8,3.8s-4.5-1.3-5.8-3.8c-1.3-2.5-2-6.2-2-11.2
	c0-4.9,0.7-8.7,2-11.2c1.3-2.5,3.3-3.8,5.8-3.8s4.5,1.3,5.8,3.8c1.3,2.5,2,6.2,2,11.2C442.4,203.3,441.7,207,440.4,209.5z
	 M470.2,500.2h8.2v4.1H457v-4.1h0h8.2v-27.6l-8.9,1.7v-4.4l8.9-1.7h5V500.2z M424,354.8l8.9-1.7h5v32.1h8.2v4.1h-21.4v-4.1h8.2
	v-27.6l-8.9,1.7V354.8z M424,297l8.9-1.7h5v32.1h8.2v4.1h-21.4v-4.1h8.2v-27.6l-8.9,1.7V297z M470.2,442.4h8.2v4.1H457v-4.1h0h8.2
	v-27.6l-8.9,1.7v-4.4l8.9-1.7h5V442.4z M470.2,180.2v32.1h8.2v4.1H457v-4.1h0h8.2v-27.6l-8.9,1.7V182l8.9-1.7H470.2z M437.9,238
	v32.1h8.2v4.1h-21.4v-4.1h8.2v-27.6l-8.9,1.7v-4.4l8.9-1.7H437.9z M466.9,352.4c-4.1,0-7.3,1.6-9.6,4.8c-2.2,3.2-3.3,7.9-3.3,14
	s1.1,10.8,3.3,14c2.3,3.2,5.4,4.8,9.6,4.8c4.2,0,7.4-1.6,9.6-4.8s3.3-7.9,3.3-14s-1.1-10.8-3.3-14C474.2,354,471,352.4,466.9,352.4z
	 M472.7,382.4c-1.3,2.5-3.3,3.8-5.8,3.8c-2.6,0-4.5-1.3-5.8-3.8c-1.3-2.5-2-6.2-2-11.2s0.7-8.7,2-11.2c1.3-2.5,3.3-3.8,5.8-3.8
	c2.6,0,4.5,1.3,5.8,3.8c1.3,2.5,2,6.2,2,11.2S474,379.9,472.7,382.4z M466.9,294.6c-4.1,0-7.3,1.6-9.6,4.8c-2.2,3.2-3.3,7.9-3.3,14
	c0,6.1,1.1,10.8,3.3,14c2.3,3.2,5.4,4.8,9.6,4.8c4.2,0,7.4-1.6,9.6-4.8c2.2-3.2,3.3-7.9,3.3-14c0-6.1-1.1-10.8-3.3-14
	C474.2,296.3,471,294.6,466.9,294.6z M472.7,324.6c-1.3,2.5-3.3,3.8-5.8,3.8c-2.6,0-4.5-1.3-5.8-3.8s-2-6.2-2-11.2
	c0-5,0.7-8.7,2-11.2s3.3-3.8,5.8-3.8c2.6,0,4.5,1.3,5.8,3.8s2,6.2,2,11.2C474.7,318.4,474,322.1,472.7,324.6z M48.6,500.2h8.2v4.1
	H35.3v-4.1h8.2v-27.6l-8.9,1.7v-4.4l8.9-1.7h5V500.2z M34.6,239.7l8.9-1.7h5v32.1h8.2v4.1H35.3v-4.1h8.2v-27.6l-8.9,1.7V239.7z
	 M34.6,182l8.9-1.7h5v32.1h8.2v4.1H35.3v-4.1h8.2v-27.6l-8.9,1.7V182z M34.6,124.7l8.9-1.7h5V155h8.2v4.1H35.3V155h8.2v-27.6
	l-8.9,1.7V124.7z M48.6,65.1v32.1h8.2v4.1H35.3v-4.2h8.2V69.6l-8.9,1.7v-4.4l8.9-1.7H48.6z M67.1,354.8l8.9-1.7h5v32.1h8.2v4.1H67.8
	v-4.1H76v-27.6l-8.9,1.7V354.8z M45.2,352.4c-4.1,0-7.3,1.6-9.6,4.8c-2.2,3.2-3.3,7.9-3.3,14s1.1,10.8,3.3,14
	c2.3,3.2,5.3,4.8,9.6,4.8s7.4-1.6,9.6-4.8c2.2-3.2,3.3-7.9,3.3-14s-1.1-10.8-3.3-14C52.5,354,49.4,352.4,45.2,352.4z M51,382.4
	c-1.3,2.5-3.3,3.8-5.8,3.8s-4.5-1.3-5.8-3.8c-1.3-2.5-2-6.2-2-11.2s0.7-8.7,2-11.2c1.3-2.5,3.3-3.8,5.8-3.8c2.7,0,4.6,1.3,5.8,3.8
	c1.3,2.5,2,6.2,2,11.2S52.3,379.9,51,382.4z M81.1,295.3v32.1h8.2v4.1H67.8v-4.1H76v-27.6l-8.9,1.7V297l8.9-1.7H81.1z M77.6,409.7
	c-4.1,0-7.3,1.6-9.5,4.8c-2.2,3.2-3.3,7.9-3.3,14c0,6.2,0.9,10.8,3.2,14c2.3,3.2,5.3,4.8,9.6,4.8c4.2,0,7.4-1.6,9.6-4.8
	c2.2-3.2,3.3-7.9,3.3-14s-1.1-10.8-3.3-14C84.9,411.3,81.8,409.7,77.6,409.7z M83.4,439.7c-1.3,2.5-3.3,3.8-5.8,3.8
	c-2.6,0-4.5-1.3-5.8-3.8c-1.3-2.5-2-6.2-2-11.2c0-5,0.7-8.7,2-11.2c1.3-2.5,3.3-3.8,5.8-3.8c2.7,0,4.6,1.3,5.8,3.8
	c1.3,2.5,2,6.2,2,11.2C85.4,433.5,84.7,437.2,83.4,439.7z M81.1,500.2h8.2v4.1H67.8v-4.1H76v-27.6l-8.9,1.7v-4.4l8.9-1.7h5V500.2z
	 M45.2,6.9c-4.1,0-7.3,1.6-9.6,4.8c-2.2,3.2-3.3,7.9-3.3,14s1,10.8,3.3,14c2.3,3.2,5.3,4.8,9.6,4.8s7.4-1.6,9.6-4.8
	c2.2-3.2,3.3-7.9,3.3-14s-1.1-10.8-3.3-14C52.5,8.5,49.4,6.9,45.2,6.9z M51,36.9c-1.3,2.5-3.3,3.8-5.8,3.8s-4.5-1.3-5.8-3.8
	c-1.3-2.5-2-6.2-2-11.2c0-4.9,0.7-8.7,2-11.2c1.3-2.5,3.3-3.8,5.8-3.8c2.7,0,4.6,1.3,5.8,3.8c1.3,2.5,2,6.2,2,11.2
	C53,30.8,52.3,34.4,51,36.9z M34.6,297l8.9-1.7h5v32.1h8.2v4.1H35.3v-4.1h8.2v-27.6l-8.9,1.7V297z M12.8,294.6
	c-4.1,0-7.3,1.6-9.6,4.8c-2.2,3.2-3.3,7.9-3.3,14c0,6.1,1.1,10.8,3.3,14c2.3,3.2,5.3,4.8,9.6,4.8c4.2,0,7.4-1.6,9.6-4.8
	c2.2-3.2,3.3-7.9,3.3-14c0-6.1-1.1-10.8-3.3-14C20.1,296.3,16.9,294.6,12.8,294.6z M18.6,324.6c-1.3,2.5-3.3,3.8-5.8,3.8
	c-2.6,0-4.5-1.3-5.8-3.8c-1.3-2.5-2-6.2-2-11.2c0-5,0.7-8.7,2-11.2c1.3-2.5,3.3-3.8,5.8-3.8c2.7,0,4.6,1.3,5.8,3.8
	c1.3,2.5,2,6.2,2,11.2C20.6,318.4,19.9,322.1,18.6,324.6z M16.2,180.2v32.1h8.2v4.1H2.9v-4.1h8.2v-27.6l-8.9,1.7V182l8.9-1.7H16.2z
	 M16.2,353.1v32.1h8.2v4.1H2.9v-4.1h8.2v-27.6l-8.9,1.7v-4.4l8.9-1.7H16.2z M2.2,239.7l8.9-1.7h5v32.1h8.2v4.1H2.9v-4.1h8.2v-27.6
	l-8.9,1.7V239.7z M12.8,409.7c-4.1,0-7.3,1.6-9.6,4.8c-2.2,3.2-3.3,7.9-3.3,14s1,10.8,3.3,14c2.3,3.2,5.3,4.8,9.6,4.8
	c4.2,0,7.4-1.6,9.6-4.8c2.2-3.2,3.3-7.9,3.3-14s-1.1-10.8-3.3-14C20.1,411.3,16.9,409.7,12.8,409.7z M18.6,439.7
	c-1.3,2.5-3.3,3.8-5.8,3.8c-2.6,0-4.5-1.3-5.8-3.8c-1.3-2.5-2-6.2-2-11.2c0-5,0.7-8.7,2-11.2c1.3-2.5,3.3-3.8,5.8-3.8
	c2.7,0,4.6,1.3,5.8,3.8c1.3,2.5,2,6.2,2,11.2C20.6,433.5,19.9,437.2,18.6,439.7z M12.8,122.3c-4.1,0-7.3,1.5-9.6,4.8
	C1,130.2,0,135,0,141s1,10.8,3.3,14c2.3,3.2,5.3,4.8,9.6,4.8c4.2,0,7.4-1.6,9.6-4.8c2.2-3.2,3.3-7.9,3.3-14s-1.1-10.8-3.3-14
	C20.1,123.9,16.9,122.3,12.8,122.3z M18.6,152.2c-1.3,2.5-3.3,3.8-5.8,3.8c-2.6,0-4.5-1.3-5.8-3.8c-1.3-2.5-2-6.2-2-11.2
	c0-4.9,0.7-8.7,2-11.2c1.3-2.5,3.3-3.8,5.8-3.8c2.7,0,4.6,1.3,5.8,3.8c1.3,2.5,2,6.2,2,11.2C20.6,146,19.9,149.7,18.6,152.2z
	 M12.8,6.9c-4.1,0-7.3,1.6-9.6,4.8C1,14.9,0,19.6,0,25.7s1,10.8,3.3,14c2.3,3.2,5.3,4.8,9.6,4.8c4.2,0,7.4-1.6,9.6-4.8
	c2.2-3.2,3.3-7.9,3.3-14s-1.1-10.8-3.3-14C20.1,8.5,16.9,6.9,12.8,6.9z M18.6,36.9c-1.3,2.5-3.3,3.8-5.8,3.8c-2.6,0-4.5-1.3-5.8-3.8
	c-1.3-2.5-2-6.2-2-11.2c0-4.9,0.7-8.7,2-11.2c1.3-2.5,3.3-3.8,5.8-3.8c2.7,0,4.6,1.3,5.8,3.8c1.3,2.5,2,6.2,2,11.2
	C20.6,30.8,19.9,34.4,18.6,36.9z M48.6,442.4h8.2v4.1H35.3v-4.1h8.2v-27.6l-8.9,1.7v-4.4l8.9-1.7h5V442.4z M12.8,467.5
	c-4.1,0-7.3,1.6-9.6,4.8c-2.2,3.2-3.3,7.9-3.3,14s1,10.8,3.3,14c2.3,3.2,5.3,4.8,9.6,4.8c4.2,0,7.4-1.6,9.6-4.8
	c2.2-3.2,3.3-7.9,3.3-14s-1.1-10.8-3.3-14C20.1,469.1,16.9,467.5,12.8,467.5z M18.6,497.5c-1.3,2.5-3.3,3.8-5.8,3.8
	c-2.6,0-4.5-1.3-5.8-3.8c-1.3-2.5-2-6.2-2-11.2s0.7-8.7,2-11.2c1.3-2.5,3.3-3.8,5.8-3.8c2.7,0,4.6,1.3,5.8,3.8c1.3,2.5,2,6.2,2,11.2
	S19.9,495,18.6,497.5z M16.2,65.1v32.1h8.2v4.1H2.9v-4.2h8.2V69.6l-8.9,1.7v-4.4l8.9-1.7H16.2z M271.9,409.7c-4.1,0-7.3,1.6-9.6,4.8
	c-2.2,3.2-3.3,7.9-3.3,14s1.1,10.8,3.3,14c2.3,3.2,5.4,4.8,9.6,4.8c4.2,0,7.4-1.6,9.6-4.8c2.2-3.2,3.3-7.9,3.3-14s-1.1-10.8-3.3-14
	C279.3,411.3,276.1,409.7,271.9,409.7z M277.8,439.7c-1.3,2.5-3.3,3.8-5.8,3.8c-2.6,0-4.5-1.3-5.8-3.8c-1.3-2.5-2-6.2-2-11.2
	c0-5,0.7-8.7,2-11.2c1.3-2.5,3.3-3.8,5.8-3.8c2.7,0,4.6,1.3,5.8,3.8c1.3,2.5,2,6.2,2,11.2C279.8,433.5,279.1,437.2,277.8,439.7z
	 M175.1,467.5c-4.2,0-7.4,1.6-9.6,4.8c-2.2,3.2-3.3,7.9-3.3,14s1,10.8,3.3,14c2.3,3.2,5.3,4.8,9.6,4.8s7.4-1.6,9.6-4.8
	c2.2-3.2,3.3-7.9,3.3-14s-1.1-10.8-3.3-14C182.4,469.1,179.3,467.5,175.1,467.5z M181,497.5c-1.3,2.5-3.3,3.8-5.8,3.8
	s-4.5-1.3-5.8-3.8c-1.3-2.5-2-6.2-2-11.2s0.7-8.7,2-11.2c1.3-2.5,3.3-3.8,5.8-3.8s4.5,1.3,5.8,3.8c1.3,2.5,2,6.2,2,11.2
	S182.2,495,181,497.5z M109.9,64.4c-4.1,0-7.3,1.6-9.6,4.8c-2.2,3.2-3.3,7.9-3.3,14c0,6.1,1,10.8,3.3,14c2.3,3.2,5.4,4.8,9.6,4.8
	c4.2,0,7.4-1.6,9.6-4.8c2.2-3.2,3.3-7.9,3.3-14c0-6.1-1.1-10.8-3.3-14C117.2,66,114.1,64.4,109.9,64.4z M115.7,94.4
	c-1.3,2.5-3.3,3.8-5.8,3.8s-4.5-1.3-5.8-3.8c-1.3-2.5-2-6.2-2-11.2c0-4.9,0.7-8.7,2-11.2c1.3-2.5,3.3-3.8,5.8-3.8
	c2.7,0,4.5,1.3,5.8,3.8c1.3,2.5,2,6.2,2,11.2C117.7,88.3,117,91.9,115.7,94.4z M109.9,6.9c-4.1,0-7.3,1.6-9.6,4.8
	c-2.2,3.2-3.3,7.9-3.3,14s1,10.8,3.3,14c2.3,3.2,5.4,4.8,9.6,4.8c4.2,0,7.4-1.6,9.6-4.8c2.2-3.2,3.3-7.9,3.3-14s-1.1-10.8-3.3-14
	C117.2,8.5,114.1,6.9,109.9,6.9z M115.7,36.9c-1.3,2.5-3.3,3.8-5.8,3.8s-4.5-1.3-5.8-3.8c-1.3-2.5-2-6.2-2-11.2
	c0-4.9,0.7-8.7,2-11.2c1.3-2.5,3.3-3.8,5.8-3.8c2.7,0,4.5,1.3,5.8,3.8c1.3,2.5,2,6.2,2,11.2C117.7,30.8,117,34.4,115.7,36.9z
	 M154.8,481.5c0.2,1.5,0.3,3.1,0.3,4.8c0,6.1-1.1,10.8-3.3,14c-2.2,3.2-5.3,4.8-9.6,4.8c-4.1,0-7.3-1.6-9.6-4.8
	c-2.2-3.2-3.3-7.9-3.3-14s1.1-10.8,3.3-14c2.3-3.2,5.4-4.8,9.6-4.8s7.3,1.6,9.6,4.8c0.1,0.2,0.3,0.4,0.4,0.6c-0.8,2.6-1.7,5.3-2.5,8
	c-0.3-2.3-0.9-4.2-1.6-5.7c-1.3-2.5-3.2-3.8-5.8-3.8c-2.6,0-4.5,1.3-5.8,3.8c-1.3,2.5-2,6.2-2,11.2s0.7,8.7,2,11.2
	c1.3,2.5,3.3,3.8,5.8,3.8s4.5-1.3,5.8-3.8c0.5-0.9,0.8-2,1.1-3.2c1.4-1.3,2.3-2.8,3-4.6C152.7,488.4,153.5,485.5,154.8,481.5z
	 M207.4,409.7c-4.2,0-7.4,1.6-9.6,4.8c-2.2,3.2-3.3,7.9-3.3,14s1,10.8,3.3,14c2.3,3.2,5.4,4.8,9.6,4.8c4.2,0,7.4-1.6,9.6-4.8
	c2.2-3.2,3.3-7.9,3.3-14s-1.1-10.8-3.3-14C214.7,411.3,211.6,409.7,207.4,409.7z M213.3,439.7c-1.3,2.5-3.3,3.8-5.8,3.8
	s-4.5-1.3-5.8-3.8s-2-6.2-2-11.2c0-5,0.7-8.7,2-11.2s3.3-3.8,5.8-3.8c2.6,0,4.5,1.3,5.8,3.8s2,6.2,2,11.2
	C215.2,433.5,214.5,437.2,213.3,439.7z M207.4,467.5c-4.2,0-7.4,1.6-9.6,4.8c-2.2,3.2-3.3,7.9-3.3,14s1,10.8,3.3,14
	c2.3,3.2,5.4,4.8,9.6,4.8c4.2,0,7.4-1.6,9.6-4.8c2.2-3.2,3.3-7.9,3.3-14s-1.1-10.8-3.3-14C214.7,469.1,211.6,467.5,207.4,467.5z
	 M213.3,497.5c-1.3,2.5-3.3,3.8-5.8,3.8s-4.5-1.3-5.8-3.8s-2-6.2-2-11.2s0.7-8.7,2-11.2c1.3-2.5,3.3-3.8,5.8-3.8
	c2.6,0,4.5,1.3,5.8,3.8c1.3,2.5,2,6.2,2,11.2S214.5,495,213.3,497.5z M239.7,467.5c-4.2,0-7.4,1.6-9.6,4.8c-2.2,3.2-3.3,7.9-3.3,14
	s1,10.8,3.3,14c2.3,3.2,5.3,4.8,9.6,4.8s7.4-1.6,9.6-4.8c2.2-3.2,3.3-7.9,3.3-14s-1.1-10.8-3.3-14
	C247,469.1,243.9,467.5,239.7,467.5z M245.6,497.5c-1.3,2.5-3.3,3.8-5.8,3.8c-2.6,0-4.5-1.3-5.8-3.8c-1.3-2.5-2-6.2-2-11.2
	s0.7-8.7,2-11.2c1.3-2.5,3.3-3.8,5.8-3.8c2.6,0,4.5,1.3,5.8,3.8c1.3,2.5,2,6.2,2,11.2S246.9,495,245.6,497.5z M304.8,467.5
	c-4.1,0-7.4,1.6-9.6,4.8c-2.2,3.2-3.3,7.9-3.3,14s1.1,10.8,3.3,14c2.3,3.2,5.4,4.8,9.6,4.8c4.2,0,7.4-1.6,9.6-4.8
	c2.2-3.2,3.3-7.9,3.3-14s-1.1-10.8-3.3-14C312.2,469.1,309,467.5,304.8,467.5z M310.7,497.5c-1.3,2.5-3.3,3.8-5.8,3.8
	c-2.6,0-4.5-1.3-5.8-3.8c-1.3-2.5-2-6.2-2-11.2s0.7-8.7,2-11.2c1.3-2.5,3.3-3.8,5.8-3.8c2.6,0,4.5,1.3,5.8,3.8c1.3,2.5,2,6.2,2,11.2
	S312,495,310.7,497.5z M304.8,409.7c-4.1,0-7.4,1.6-9.6,4.8c-2.2,3.2-3.3,7.9-3.3,14s1.1,10.8,3.3,14c2.3,3.2,5.4,4.8,9.6,4.8
	c4.2,0,7.4-1.6,9.6-4.8c2.2-3.2,3.3-7.9,3.3-14s-1.1-10.8-3.3-14C312.2,411.3,309,409.7,304.8,409.7z M310.7,439.7
	c-1.3,2.5-3.3,3.8-5.8,3.8c-2.6,0-4.5-1.3-5.8-3.8c-1.3-2.5-2-6.2-2-11.2c0-5,0.7-8.7,2-11.2c1.3-2.5,3.3-3.8,5.8-3.8
	c2.6,0,4.5,1.3,5.8,3.8c1.3,2.5,2,6.2,2,11.2C312.7,433.5,312,437.2,310.7,439.7z M271.9,467.5c-4.1,0-7.3,1.6-9.6,4.8
	c-2.2,3.2-3.3,7.9-3.3,14s1.1,10.8,3.3,14c2.3,3.2,5.4,4.8,9.6,4.8c4.2,0,7.4-1.6,9.6-4.8c2.2-3.2,3.3-7.9,3.3-14s-1.1-10.8-3.3-14
	C279.3,469.1,276.1,467.5,271.9,467.5z M277.8,497.5c-1.3,2.5-3.3,3.8-5.8,3.8c-2.6,0-4.5-1.3-5.8-3.8c-1.3-2.5-2-6.2-2-11.2
	s0.7-8.7,2-11.2c1.3-2.5,3.3-3.8,5.8-3.8c2.7,0,4.6,1.3,5.8,3.8c1.3,2.5,2,6.2,2,11.2S279.1,495,277.8,497.5z M77.6,64.4
	c-4.1,0-7.3,1.6-9.5,4.9c-2.2,3.2-3.3,7.9-3.3,14s0.9,10.7,3.2,13.9c2.3,3.2,5.3,4.8,9.6,4.8c4.2,0,7.4-1.6,9.6-4.8
	c2.2-3.2,3.3-7.9,3.3-14c0-6.1-1.1-10.8-3.3-14C84.9,66,81.8,64.4,77.6,64.4z M83.4,94.4c-1.3,2.5-3.3,3.8-5.8,3.8
	c-2.6,0-4.5-1.3-5.8-3.8c-1.3-2.5-2-6.2-2-11.2c0-4.9,0.7-8.7,2-11.2c1.3-2.5,3.3-3.8,5.8-3.8c2.7,0,4.6,1.3,5.8,3.8
	c1.3,2.5,2,6.2,2,11.2C85.4,88.3,84.7,91.9,83.4,94.4z M113.3,442.4h8.2v4.1H100v-4.1h8.2v-27.6l-8.9,1.7v-4.4l8.9-1.7h5V442.4z
	 M113.3,500.2h8.2v4.1H100v-4.1h8.2v-27.6l-8.9,1.7v-4.4l8.9-1.7h5V500.2z M77.6,237.3c-4.1,0-7.3,1.6-9.6,4.8
	c-2.2,3.2-3.3,7.9-3.3,14s1.1,10.8,3.3,14c2.3,3.2,5.3,4.8,9.6,4.8c4.2,0,7.4-1.6,9.6-4.8c2.2-3.2,3.3-7.9,3.3-14s-1.1-10.8-3.3-14
	C84.9,239,81.8,237.3,77.6,237.3z M83.4,267.3c-1.3,2.5-3.3,3.8-5.8,3.8c-2.6,0-4.5-1.3-5.8-3.8c-1.3-2.5-2-6.2-2-11.2
	c0-4.9,0.7-8.7,2-11.2c1.3-2.5,3.3-3.8,5.8-3.8c2.7,0,4.6,1.3,5.8,3.8c1.3,2.5,2,6.2,2,11.2S84.7,264.8,83.4,267.3z M67.1,182
	l8.9-1.7h5v32.1h8.2v4.1H67.8v-4.1H76v-27.6l-8.9,1.7V182z M81.1,122.9V155h8.2v4.1H67.8V155H76v-27.6l-8.9,1.7v-4.4l8.9-1.7H81.1z
	 M109.9,179.6c-4.1,0-7.3,1.5-9.6,4.8c-2.2,3.2-3.3,7.9-3.3,14s1,10.8,3.3,14c2.3,3.2,5.4,4.8,9.6,4.8c4.2,0,7.4-1.6,9.6-4.8
	c2.2-3.2,3.3-7.9,3.3-14s-1.1-10.8-3.3-14C117.2,181.2,114.1,179.6,109.9,179.6z M115.7,209.5c-1.3,2.5-3.3,3.8-5.8,3.8
	s-4.5-1.3-5.8-3.8c-1.3-2.5-2-6.2-2-11.2c0-4.9,0.7-8.7,2-11.2c1.3-2.5,3.3-3.8,5.8-3.8c2.7,0,4.5,1.3,5.8,3.8c1.3,2.5,2,6.2,2,11.2
	C117.7,203.3,117,207,115.7,209.5z M109.9,237.3c-4.1,0-7.3,1.6-9.6,4.8c-2.2,3.2-3.3,7.9-3.3,14s1.1,10.8,3.3,14
	c2.3,3.2,5.4,4.8,9.6,4.8c4.2,0,7.4-1.6,9.6-4.8c2.2-3.2,3.3-7.9,3.3-14s-1.1-10.8-3.3-14C117.2,239,114.1,237.3,109.9,237.3z
	 M115.7,267.3c-1.3,2.5-3.3,3.8-5.8,3.8s-4.5-1.3-5.8-3.8c-1.3-2.5-2-6.2-2-11.2c0-4.9,0.7-8.7,2-11.2c1.3-2.5,3.3-3.8,5.8-3.8
	c2.7,0,4.5,1.3,5.8,3.8c1.3,2.5,2,6.2,2,11.2S117,264.8,115.7,267.3z M109.9,122.3c-4.1,0-7.3,1.5-9.6,4.8c-2.2,3.2-3.3,7.9-3.3,14
	s1,10.8,3.3,14c2.3,3.2,5.4,4.8,9.6,4.8c4.2,0,7.4-1.6,9.6-4.8c2.2-3.2,3.3-7.9,3.3-14s-1.1-10.8-3.3-14
	C117.2,123.9,114.1,122.3,109.9,122.3z M115.7,152.2c-1.3,2.5-3.3,3.8-5.8,3.8s-4.5-1.3-5.8-3.8c-1.3-2.5-2-6.2-2-11.2
	c0-4.9,0.7-8.7,2-11.2c1.3-2.5,3.3-3.8,5.8-3.8c2.7,0,4.5,1.3,5.8,3.8c1.3,2.5,2,6.2,2,11.2C117.7,146,117,149.7,115.7,152.2z
	 M109.9,294.6c-4.1,0-7.3,1.6-9.6,4.8c-2.2,3.2-3.3,7.9-3.3,14c0,6.1,1.1,10.8,3.3,14c2.3,3.2,5.4,4.8,9.6,4.8
	c4.2,0,7.4-1.6,9.6-4.8c2.2-3.2,3.3-7.9,3.3-14c0-6.1-1.1-10.8-3.3-14C117.2,296.3,114.1,294.6,109.9,294.6z M115.7,324.6
	c-1.3,2.5-3.3,3.8-5.8,3.8s-4.5-1.3-5.8-3.8c-1.3-2.5-2-6.2-2-11.2c0-5,0.7-8.7,2-11.2c1.3-2.5,3.3-3.8,5.8-3.8
	c2.7,0,4.5,1.3,5.8,3.8c1.3,2.5,2,6.2,2,11.2C117.7,318.4,117,322.1,115.7,324.6z M113.3,385.2h8.2v4.1H100v-4.1h8.2v-27.6l-8.9,1.7
	v-4.4l8.9-1.7h5V385.2z"/>
<linearGradient id="SVGID_1_" gradientUnits="userSpaceOnUse" x1="-8183.5327" y1="4444.2246" x2="-7224.4238" y2="5560.498" gradientTransform="matrix(4.009055e-02 -8.363950e-02 8.152311e-02 3.712358e-02 298.0042 -792.4822)">
	<stop  offset="0" style="stop-color:#F59723"/>
	<stop  offset="0.312" style="stop-color:#F69822"/>
	<stop  offset="0.838" style="stop-color:#E87726"/>
	<stop  offset="1" style="stop-color:#E87726"/>
</linearGradient>
<path class="st0" d="M355.3,17.5c-7.7,4.5-20.6,17-36,35.3l14,26c10-13.9,20-26.3,30.2-36.9c0.8-0.9,1.2-1.3,1.2-1.3
	c-0.4,0.4-0.8,0.9-1.2,1.3c-3.3,3.5-13.2,14.8-28.4,37.4c14.4-0.8,36.8-3.6,55-6.6c5.5-29.6-5.2-43-5.2-43S371.4,8.2,355.3,17.5
	L355.3,17.5z"/>
<linearGradient id="SVGID_00000042716553799546632010000018428439422047146670_" gradientUnits="userSpaceOnUse" x1="-13604.4404" y1="4331.3525" x2="-6777.8418" y2="4331.3525" gradientTransform="matrix(4.009055e-02 -8.363950e-02 8.152311e-02 3.712358e-02 298.0042 -792.4822)">
	<stop  offset="0" style="stop-color:#9C2063"/>
	<stop  offset="0.323" style="stop-color:#9C2063"/>
	<stop  offset="0.63" style="stop-color:#C82037"/>
	<stop  offset="0.751" style="stop-color:#CC2135"/>
	<stop  offset="1" style="stop-color:#E87726"/>
</linearGradient>
<path style="fill:url(#SVGID_00000042716553799546632010000018428439422047146670_);" d="M291.8,146.2c4.3-7.8,8.7-15.5,13-22.9
	c4.6-7.7,9.2-15.2,13.8-22.5c0.3-0.4,0.5-0.9,0.8-1.3c4.6-7.1,9.3-14,13.9-20.5l-14-26c-1.1,1.3-2.1,2.6-3.2,3.9
	c-4.1,5-8.3,10.2-12.6,16c-4.8,6.5-9.9,13.2-15,20.2c-4.7,6.5-9.6,13.5-14.3,20.6c-4.1,6.2-8.1,12.3-12.3,18.7
	c-0.1,0.3-0.3,0.5-0.4,0.8l18.4,35.3C283.8,161,287.8,153.4,291.8,146.2L291.8,146.2z"/>
<linearGradient id="SVGID_00000085955945009446803890000017583523247817919398_" gradientUnits="userSpaceOnUse" x1="-12968.1152" y1="4886.1719" x2="-8901.9766" y2="4886.1719" gradientTransform="matrix(4.009055e-02 -8.363950e-02 8.152311e-02 3.712358e-02 298.0042 -792.4822)">
	<stop  offset="0" style="stop-color:#282661"/>
	<stop  offset="9.550000e-02" style="stop-color:#662E8C"/>
	<stop  offset="0.788" style="stop-color:#9E2064"/>
	<stop  offset="0.949" style="stop-color:#CC2032"/>
	<stop  offset="1" style="stop-color:#CC2032"/>
</linearGradient>
<path style="fill:url(#SVGID_00000085955945009446803890000017583523247817919398_);" d="M208.1,345.4c-2.5,6.5-4.8,13.2-7.3,19.9
	c0,0.1,0,0.3-0.1,0.3c-0.4,0.9-0.8,1.9-1.1,2.8c-1.7,4.6-3.1,8.7-6.3,18.1c5.4,2.4,9.7,8.9,13.9,16c-0.4-7.4-3.6-14.4-9.6-19.8
	c26.7,1.2,49.7-5.4,61.4-24.5c1.1-1.6,2-3.5,2.9-5.4c-5.4,6.6-12.1,9.4-24.8,8.9c0,0,0,0-0.1,0c0,0,0,0,0.1,0
	c18.6-8.1,27.9-15.9,36.2-28.7c2-3.1,3.9-6.4,5.8-10.1c-16.3,16.3-35.1,20.9-55,17.4l-14.8,1.5c-0.5,1.3-0.9,2.4-1.5,3.6
	L208.1,345.4z"/>
<linearGradient id="SVGID_00000150088191670889129440000008177226319848531361_" gradientUnits="userSpaceOnUse" x1="-13309.5566" y1="4281.4609" x2="-6482.959" y2="4281.4609" gradientTransform="matrix(4.009055e-02 -8.363950e-02 8.152311e-02 3.712358e-02 298.0042 -792.4822)">
	<stop  offset="0" style="stop-color:#9C2063"/>
	<stop  offset="0.323" style="stop-color:#9C2063"/>
	<stop  offset="0.63" style="stop-color:#C82037"/>
	<stop  offset="0.751" style="stop-color:#CC2135"/>
	<stop  offset="1" style="stop-color:#E87726"/>
</linearGradient>
<path style="fill:url(#SVGID_00000150088191670889129440000008177226319848531361_);" d="M215,312.8c3.2-8.1,6.5-16.3,9.9-24.5
	c3.3-7.9,6.6-15.9,10-24c3.5-7.9,6.9-16,10.5-24.1c3.6-8.2,7.3-16.3,11.2-24.5c3.7-8.1,7.5-16,11.5-23.8c1.3-2.8,2.8-5.7,4.2-8.5
	c2.5-4.9,4.8-9.7,7.3-14.4c0.1-0.3,0.3-0.5,0.4-0.8L261.6,133c-0.3,0.5-0.7,1.1-0.9,1.4c-4.3,6.7-8.5,13.9-12.7,20.9
	c-4.2,7.1-8.4,14.6-12.4,22.1c-3.5,6.3-6.8,12.5-10.1,19c-0.7,1.3-1.3,2.6-2,3.9c-4,8.1-7.6,15.8-10.9,23.3
	c-3.7,8.5-6.9,16.6-9.9,24.2c-1.9,5-3.6,9.8-5.1,14.6c-1.3,3.9-2.5,7.9-3.7,11.9c-2.8,9.3-5.1,18.7-7.1,28l18.6,35.6
	c2.5-6.4,5-12.8,7.5-19.4C213.6,316.6,214.2,314.7,215,312.8L215,312.8z"/>
<linearGradient id="SVGID_00000158739911582989096830000002722178990053548212_" gradientUnits="userSpaceOnUse" x1="-12924.6582" y1="4353.8921" x2="-9338.0742" y2="4353.8921" gradientTransform="matrix(4.009055e-02 -8.363950e-02 8.152311e-02 3.712358e-02 298.0042 -792.4822)">
	<stop  offset="0" style="stop-color:#282661"/>
	<stop  offset="9.550000e-02" style="stop-color:#662E8C"/>
	<stop  offset="0.788" style="stop-color:#9E2064"/>
	<stop  offset="0.949" style="stop-color:#CC2032"/>
	<stop  offset="1" style="stop-color:#CC2032"/>
</linearGradient>
<path style="fill:url(#SVGID_00000158739911582989096830000002722178990053548212_);" d="M186.4,303.6c-2.4,11.4-4,22.6-4.8,33.9
	c0,0.4,0,0.8-0.1,1.2c-5.8-9-21.1-17.8-21.1-17.7c11.1,15.6,19.5,31.1,20.7,46.3c-5.9,1.2-14-0.5-23.4-3.9
	c9.7,8.9,17.1,11.2,20,11.7c-9.1,0.5-18.3,6.5-27.8,13.5c13.8-5.5,24.8-7.7,32.8-5.9c-12.6,34.9-25.4,73.3-37.9,114.1
	c4-1.2,6.2-3.8,7.5-7.1c2.3-7.4,17.2-55.8,40.7-119.8c0.7-1.8,1.3-3.8,2.1-5.5c0.1-0.5,0.4-1.1,0.5-1.5c2.5-6.6,5.1-13.6,7.6-20.5
	c0.7-1.5,1.2-3.2,1.9-4.7c0,0,0,0,0-0.1l-18.4-35.4c0,0.4-0.1,0.8-0.3,1.2L186.4,303.6L186.4,303.6z"/>
<linearGradient id="SVGID_00000093156677565195938430000016634629093074871715_" gradientUnits="userSpaceOnUse" x1="-13309.5566" y1="4854.2603" x2="-6482.959" y2="4854.2603" gradientTransform="matrix(4.009055e-02 -8.363950e-02 8.152311e-02 3.712358e-02 298.0042 -792.4822)">
	<stop  offset="0" style="stop-color:#9C2063"/>
	<stop  offset="0.323" style="stop-color:#9C2063"/>
	<stop  offset="0.63" style="stop-color:#C82037"/>
	<stop  offset="0.751" style="stop-color:#CC2135"/>
	<stop  offset="1" style="stop-color:#E87726"/>
</linearGradient>
<path style="fill:url(#SVGID_00000093156677565195938430000016634629093074871715_);" d="M282.8,171.5c-0.5,1.1-1.1,2.2-1.6,3.2
	c-1.6,3.2-3.2,6.4-4.8,9.8c-1.7,3.6-3.6,7.3-5.4,11.2c-0.9,1.9-1.9,3.9-2.8,5.8c-2.8,5.9-5.5,11.9-8.4,18.1
	c-3.5,7.7-7.1,15.6-10.7,23.8c-3.5,7.8-6.9,16-10.4,24.5c-3.3,7.9-6.7,16.3-10.1,24.7c-3.1,7.5-6.2,15.4-9.2,23.4
	c-0.1,0.4-0.3,0.8-0.4,1.2c-3.1,7.9-6.2,16.2-9.3,24.5c0,0.3-0.1,0.4-0.3,0.7l14.8-1.5c-0.3,0-0.7-0.1-0.9-0.1
	c17.8-2.2,41.4-15.1,56.6-31.1c7.1-7.4,13.4-16,19.4-26.3c4.3-7.5,8.5-16,12.4-25.2c3.5-8.2,6.7-16.9,9.9-26.5
	c-4.1,2-8.7,3.8-13.9,4.7c-0.9,0.3-1.9,0.4-2.8,0.5c-0.9,0.1-1.9,0.4-2.9,0.4l0,0c16.6-6.3,27.1-18.2,34.7-32.9
	c-4.3,3-11.5,6.6-20,8.5c-1.2,0.3-2.4,0.5-3.6,0.7c-0.3,0-0.7,0.1-0.9,0.1l0,0c5.8-2.3,10.7-5,14.8-8.1c0.9-0.7,1.9-1.3,2.7-2
	c1.3-1.2,2.5-2.2,3.7-3.5c0.8-0.8,1.5-1.5,2.3-2.4c1.7-1.9,3.2-3.9,4.6-6.2c0.4-0.8,0.9-1.4,1.3-2c0.5-1.1,1.1-2,1.6-3.1
	c2.4-4.5,4.2-8.6,5.6-12.1c0.8-1.8,1.3-3.5,2-5c0.3-0.7,0.4-1.2,0.7-1.8c0.7-1.6,1.1-3.2,1.5-4.5c0.5-2,0.9-3.6,1.1-4.7
	c-0.5,0.4-1.2,0.9-2,1.3c-5,3-13.6,5.5-20.5,6.7l13.6-1.4l-13.6,1.4c-0.1,0-0.1,0-0.3,0c-0.7,0.1-1.3,0.3-2.1,0.4
	c0.1,0,0.3-0.1,0.4-0.1l-46.6,5C283,171.1,282.8,171.3,282.8,171.5L282.8,171.5z"/>
<linearGradient id="SVGID_00000077309535686391706160000009443486148831629699_" gradientUnits="userSpaceOnUse" x1="-13635.4795" y1="4822.749" x2="-6808.8818" y2="4822.749" gradientTransform="matrix(4.009055e-02 -8.363950e-02 8.152311e-02 3.712358e-02 298.0042 -792.4822)">
	<stop  offset="0" style="stop-color:#9C2063"/>
	<stop  offset="0.323" style="stop-color:#9C2063"/>
	<stop  offset="0.63" style="stop-color:#C82037"/>
	<stop  offset="0.751" style="stop-color:#CC2135"/>
	<stop  offset="1" style="stop-color:#E87726"/>
</linearGradient>
<path style="fill:url(#SVGID_00000077309535686391706160000009443486148831629699_);" d="M335.3,79.6c-4.1,6.2-8.7,13.3-13.6,21.3
	c-0.3,0.4-0.5,0.9-0.8,1.3c-4.2,6.9-8.7,14.4-13.4,22.8c-4.1,7.1-8.3,14.8-12.7,23.2c-3.9,7.1-7.7,14.8-11.9,23l46.6-5
	c13.6-6.2,19.8-11.7,25.6-19.5c1.6-2.2,3.2-4.5,4.7-6.9c4.8-7.3,9.5-15.4,13.6-23.3c4.1-7.7,7.6-15.4,10.4-22.2
	c1.7-4.3,3.2-8.5,4.1-12c0.8-3.2,1.5-6.2,2-9.1c-18.2,3.1-40.3,5.9-55,6.6L335.3,79.6z"/>
</svg>
