<?xml version="1.0" encoding="utf-8"?>
<!-- Generator: Adobe Illustrator 28.2.0, SVG Export Plug-In . SVG Version: 6.00 Build 0)  -->
<svg version="1.1"
	 id="Layer_1" xmlns:rdf="http://www.w3.org/1999/02/22-rdf-syntax-ns#" xmlns:inkscape="http://www.inkscape.org/namespaces/inkscape" xmlns:dc="http://purl.org/dc/elements/1.1/" xmlns:sodipodi="http://sodipodi.sourceforge.net/DTD/sodipodi-0.dtd" xmlns:cc="http://creativecommons.org/ns#"
	 xmlns="http://www.w3.org/2000/svg" xmlns:xlink="http://www.w3.org/1999/xlink" x="0px" y="0px" viewBox="0 0 512 512"
	 style="enable-background:new 0 0 512 512;" xml:space="preserve">
<style type="text/css">
	.st0{enable-background:new    ;}
	.st1{fill:none;stroke:#000000;stroke-width:0.393;}
	.st2{fill:url(#SVGID_1_);}
	.st3{fill:#BD202E;}
	.st4{fill:url(#SVGID_00000094608746920737695910000007066664667213718952_);}
	.st5{fill:url(#SVGID_00000150819809346878409880000016902057815018032567_);}
	.st6{fill:url(#SVGID_00000030445343619096045250000015717919151679767976_);}
	.st7{fill:url(#SVGID_00000101796807831951750900000017908867092599004033_);}
	.st8{fill:url(#SVGID_00000145739469663806029650000012354772104867659710_);}
	.st9{fill:url(#SVGID_00000114074096921335711830000009231756954726480804_);}
	.st10{fill:url(#SVGID_00000096029144839019819220000016343123999290944182_);}
	.st11{fill:url(#SVGID_00000068644482477144956640000015762717171252930466_);}
	.st12{fill:url(#SVGID_00000131342141518527782600000015683870313991671424_);}
</style>
<g transform="matrix(.988 0 0 .963 1.63 2.84)">
	<g>
		<g class="st0">
			<path d="M11.3,4.2c4.2,0,7.4,1.7,9.7,5c2.2,3.3,3.3,8.2,3.3,14.5c0,6.3-1.1,11.2-3.3,14.5s-5.4,5-9.7,5s-7.4-1.7-9.7-5
				s-3.3-8.2-3.3-14.5c0-6.3,1.1-11.2,3.3-14.5C3.9,5.9,7.1,4.2,11.3,4.2z M11.3,8.3c-2.6,0-4.6,1.3-5.9,3.9c-1.3,2.6-2,6.5-2,11.6
				c0,5.2,0.7,9,2,11.6c1.3,2.6,3.3,3.9,5.9,3.9c2.6,0,4.6-1.3,5.9-3.9c1.3-2.6,2-6.4,2-11.6c0-5.2-0.7-9-2-11.6
				C16,9.6,14,8.3,11.3,8.3z"/>
		</g>
		<path class="st1" d="M11.3,8.3c-2.5,0-4.5,1.3-5.9,3.9s-2,6.4-2,11.6s0.7,9,2,11.6s3.3,3.9,5.9,3.9c2.7,0,4.7-1.3,6-3.9
			c1.3-2.7,2-6.5,2-11.6c0-5.2-0.7-9-2-11.6C16,9.6,14,8.3,11.3,8.3z M11.3,4.3c4.3,0,7.4,1.7,9.7,5.1s3.3,8.1,3.3,14.4
			s-1.2,11.2-3.5,14.5c-2.1,3.3-5.5,5.1-9.7,5.1s-7.4-1.7-9.7-5.1c-2.1-3.3-3.3-8.1-3.3-14.5s1.1-11,3.3-14.4
			C3.9,6,7.1,4.3,11.3,4.3z"/>
		<g class="st0">
			<path d="M44.1,4.2c4.2,0,7.4,1.7,9.7,5c2.2,3.3,3.3,8.2,3.3,14.5c0,6.3-1.1,11.2-3.3,14.5s-5.4,5-9.7,5s-7.4-1.7-9.7-5
				s-3.3-8.2-3.3-14.5c0-6.3,1.1-11.2,3.3-14.5C36.7,5.9,39.9,4.2,44.1,4.2z M44.1,8.3c-2.6,0-4.6,1.3-5.9,3.9
				c-1.3,2.6-2,6.5-2,11.6c0,5.2,0.7,9,2,11.6c1.3,2.6,3.3,3.9,5.9,3.9c2.6,0,4.6-1.3,5.9-3.9c1.3-2.6,2-6.4,2-11.6
				c0-5.2-0.7-9-2-11.6C48.8,9.6,46.8,8.3,44.1,8.3z"/>
		</g>
		<path class="st1" d="M44,8.3c-2.5,0-4.5,1.3-5.9,3.9c-1.3,2.5-2,6.4-2,11.6s0.7,9,2,11.6c1.3,2.5,3.3,3.9,5.9,3.9
			c2.7,0,4.7-1.3,6-3.9c1.3-2.7,2-6.5,2-11.6c0-5.2-0.7-9-2-11.6C48.7,9.6,46.8,8.3,44,8.3z M44,4.3c4.3,0,7.4,1.7,9.7,5.1
			s3.3,8.1,3.3,14.4S56,34.9,53.7,38.2c-2.1,3.3-5.5,5.1-9.7,5.1s-7.4-1.7-9.7-5.1c-2.1-3.3-3.3-8.1-3.3-14.5s1.1-11,3.3-14.4
			C36.7,6,39.9,4.3,44,4.3z"/>
		<g class="st0">
			<path d="M67,38.2h8.3V9.5l-9,1.8V6.7l9-1.8h5.1v33.3h8.3v4.3H67V38.2z"/>
		</g>
		<path class="st1" d="M67,38.2h8.2V9.6l-8.9,1.9V6.7L75.3,5h5.1v33.2h8.4v4.3H66.9L67,38.2z"/>
		<g class="st0">
			<path d="M109.6,4.2c4.2,0,7.4,1.7,9.7,5c2.2,3.3,3.3,8.2,3.3,14.5c0,6.3-1.1,11.2-3.3,14.5s-5.4,5-9.7,5c-4.2,0-7.4-1.7-9.7-5
				s-3.3-8.2-3.3-14.5c0-6.3,1.1-11.2,3.3-14.5C102.2,5.9,105.4,4.2,109.6,4.2z M109.6,8.3c-2.6,0-4.6,1.3-5.9,3.9
				c-1.3,2.6-2,6.5-2,11.6c0,5.2,0.7,9,2,11.6c1.3,2.6,3.3,3.9,5.9,3.9c2.6,0,4.6-1.3,5.9-3.9c1.3-2.6,2-6.4,2-11.6
				c0-5.2-0.7-9-2-11.6C114.2,9.6,112.3,8.3,109.6,8.3z"/>
		</g>
		<path class="st1" d="M109.9,8.3c-2.5,0-4.5,1.3-5.9,3.9c-1.3,2.5-2,6.4-2,11.6s0.7,9,2,11.6c1.3,2.5,3.3,3.9,5.9,3.9
			c2.7,0,4.7-1.3,6-3.9c1.3-2.7,2-6.5,2-11.6c0-5.2-0.7-9-2-11.6C114.5,9.6,112.5,8.3,109.9,8.3z M109.9,4.3c4.3,0,7.4,1.7,9.7,5.1
			c2.3,3.3,3.3,8.1,3.3,14.4s-1.2,11.2-3.3,14.5s-5.5,5.1-9.7,5.1c-4.1,0-7.4-1.7-9.7-5.1c-2.1-3.3-3.3-8.1-3.3-14.5
			s1.1-11,3.3-14.4C102.4,6,105.7,4.3,109.9,4.3z"/>
		<g class="st0">
			<path d="M132.3,38.2h8.3V9.5l-9,1.8V6.7l9-1.8h5.1v33.3h8.3v4.3h-21.7V38.2z"/>
		</g>
		<path class="st1" d="M132.3,38.2h8.2V9.6l-8.9,1.9V6.7l8.9-1.7h5.1v33.2h8.4v4.3h-21.7V38.2z"/>
		<g class="st0">
			<path d="M165.6,38.2h8.3V9.5l-9,1.8V6.7l9-1.8h5.1v33.3h8.3v4.3h-21.7V38.2z"/>
		</g>
		<path class="st1" d="M165.6,38.2h8.2V9.6l-8.9,1.9V6.7l8.9-1.7h5.1v33.2h8.4v4.3h-21.7L165.6,38.2z"/>
		<g class="st0">
			<path d="M198.3,38.2h8.3V9.5l-9,1.8V6.7l9-1.8h5.1v33.3h8.3v4.3h-21.7V38.2z"/>
		</g>
		<path class="st1" d="M198.3,38.2h8.2V9.6l-8.9,1.9V6.7l8.9-1.7h5.1v33.2h8.4v4.3h-21.7V38.2z"/>
		<g class="st0">
			<path d="M231,38.2h8.3V9.5l-9,1.8V6.7l9-1.8h5.1v33.3h8.3v4.3H231V38.2z"/>
		</g>
		<path class="st1" d="M231,38.2h8.2V9.6l-8.9,1.9V6.7l8.9-1.7h5.1v33.2h8.4v4.3H231V38.2z"/>
		<g class="st0">
			<path d="M273.6,4.2c4.2,0,7.4,1.7,9.7,5c2.2,3.3,3.3,8.2,3.3,14.5c0,6.3-1.1,11.2-3.3,14.5c-2.2,3.3-5.4,5-9.7,5
				c-4.2,0-7.4-1.7-9.7-5c-2.2-3.3-3.3-8.2-3.3-14.5c0-6.3,1.1-11.2,3.3-14.5C266.2,5.9,269.4,4.2,273.6,4.2z M273.6,8.3
				c-2.6,0-4.6,1.3-5.9,3.9c-1.3,2.6-2,6.5-2,11.6c0,5.2,0.7,9,2,11.6c1.3,2.6,3.3,3.9,5.9,3.9c2.6,0,4.6-1.3,5.9-3.9
				c1.3-2.6,2-6.4,2-11.6c0-5.2-0.7-9-2-11.6C278.3,9.6,276.3,8.3,273.6,8.3z"/>
		</g>
		<path class="st1" d="M273.9,8.3c-2.5,0-4.5,1.3-5.9,3.9c-1.3,2.5-2,6.4-2,11.6s0.7,9,2,11.6c1.3,2.5,3.3,3.9,5.9,3.9
			c2.7,0,4.7-1.3,6-3.9c1.3-2.7,2-6.5,2-11.6c0-5.2-0.7-9-2-11.6C278.5,9.6,276.5,8.3,273.9,8.3z M273.9,4.3c4.3,0,7.4,1.7,9.7,5.1
			c2.3,3.3,3.3,8.1,3.3,14.4s-1.2,11.2-3.3,14.5c-2.1,3.3-5.5,5.1-9.7,5.1c-4.1,0-7.4-1.7-9.7-5.1c-2.1-3.3-3.3-8.1-3.3-14.5
			s1.1-11,3.3-14.4C266.4,6,269.7,4.3,273.9,4.3z"/>
		<g class="st0">
			<path d="M306.9,4.2c4.2,0,7.4,1.7,9.7,5c2.2,3.3,3.3,8.2,3.3,14.5c0,6.3-1.1,11.2-3.3,14.5c-2.2,3.3-5.4,5-9.7,5
				c-4.2,0-7.4-1.7-9.7-5c-2.2-3.3-3.3-8.2-3.3-14.5c0-6.3,1.1-11.2,3.3-14.5C299.4,5.9,302.7,4.2,306.9,4.2z M306.9,8.3
				c-2.6,0-4.6,1.3-5.9,3.9c-1.3,2.6-2,6.5-2,11.6c0,5.2,0.7,9,2,11.6c1.3,2.6,3.3,3.9,5.9,3.9c2.6,0,4.6-1.3,5.9-3.9
				c1.3-2.6,2-6.4,2-11.6c0-5.2-0.7-9-2-11.6C311.5,9.6,309.5,8.3,306.9,8.3z"/>
		</g>
		<path class="st1" d="M306.6,8.3c-2.5,0-4.5,1.3-5.9,3.9c-1.3,2.5-2,6.4-2,11.6s0.7,9,2,11.6c1.3,2.5,3.3,3.9,5.9,3.9
			c2.7,0,4.7-1.3,6-3.9c1.3-2.7,2-6.5,2-11.6c0-5.2-0.7-9-2-11.6C311.2,9.6,309.2,8.3,306.6,8.3z M306.6,4.3c4.3,0,7.4,1.7,9.7,5.1
			c2.3,3.3,3.3,8.1,3.3,14.4s-1.2,11.2-3.3,14.5c-2.1,3.3-5.5,5.1-9.7,5.1c-4.1,0-7.4-1.7-9.7-5.1c-2.1-3.3-3.3-8.1-3.3-14.5
			s1.1-11,3.3-14.4S302.3,4.3,306.6,4.3z"/>
		<g class="st0">
			<path d="M339.6,4.2c4.2,0,7.4,1.7,9.7,5c2.2,3.3,3.3,8.2,3.3,14.5c0,6.3-1.1,11.2-3.3,14.5c-2.2,3.3-5.4,5-9.7,5
				c-4.2,0-7.4-1.7-9.7-5c-2.2-3.3-3.3-8.2-3.3-14.5c0-6.3,1.1-11.2,3.3-14.5C332.1,5.9,335.4,4.2,339.6,4.2z M339.6,8.3
				c-2.6,0-4.6,1.3-5.9,3.9c-1.3,2.6-2,6.5-2,11.6c0,5.2,0.7,9,2,11.6c1.3,2.6,3.3,3.9,5.9,3.9c2.6,0,4.6-1.3,5.9-3.9
				c1.3-2.6,2-6.4,2-11.6c0-5.2-0.7-9-2-11.6C344.2,9.6,342.2,8.3,339.6,8.3z"/>
		</g>
		<path class="st1" d="M339.3,8.3c-2.5,0-4.5,1.3-5.9,3.9c-1.3,2.5-2,6.4-2,11.6s0.7,9,2,11.6c1.3,2.5,3.3,3.9,5.9,3.9
			c2.7,0,4.7-1.3,6-3.9c1.3-2.7,2-6.5,2-11.6c0-5.2-0.7-9-2-11.6C344,9.6,342,8.3,339.3,8.3z M339.3,4.3c4.3,0,7.4,1.7,9.7,5.1
			s3.3,8.1,3.3,14.4s-1.2,11.2-3.3,14.5c-2.1,3.3-5.5,5.1-9.7,5.1c-4.1,0-7.4-1.7-9.7-5.1c-2.1-3.3-3.3-8.1-3.3-14.5
			s1.1-11,3.3-14.4C331.8,6,335,4.3,339.3,4.3z"/>
		<g class="st0">
			<path d="M372.3,4.2c4.2,0,7.4,1.7,9.7,5c2.2,3.3,3.3,8.2,3.3,14.5c0,6.3-1.1,11.2-3.3,14.5c-2.2,3.3-5.4,5-9.7,5
				c-4.2,0-7.4-1.7-9.7-5c-2.2-3.3-3.3-8.2-3.3-14.5c0-6.3,1.1-11.2,3.3-14.5C364.8,5.9,368.1,4.2,372.3,4.2z M372.3,8.3
				c-2.6,0-4.6,1.3-5.9,3.9c-1.3,2.6-2,6.5-2,11.6c0,5.2,0.7,9,2,11.6c1.3,2.6,3.3,3.9,5.9,3.9c2.6,0,4.6-1.3,5.9-3.9
				c1.3-2.6,2-6.4,2-11.6c0-5.2-0.7-9-2-11.6C376.9,9.6,374.9,8.3,372.3,8.3z"/>
		</g>
		<path class="st1" d="M372.5,8.3c-2.5,0-4.5,1.3-5.9,3.9c-1.3,2.5-2,6.4-2,11.6s0.7,9,2,11.6c1.3,2.5,3.3,3.9,5.9,3.9
			c2.7,0,4.7-1.3,6-3.9c1.3-2.7,2-6.5,2-11.6c0-5.2-0.7-9-2-11.6C377.2,9.6,375.2,8.3,372.5,8.3z M372.5,4.3c4.3,0,7.4,1.7,9.7,5.1
			c2.3,3.3,3.3,8.1,3.3,14.4s-1.2,11.2-3.3,14.5c-2.1,3.3-5.5,5.1-9.7,5.1c-4.1,0-7.4-1.7-9.7-5.1c-2.1-3.3-3.3-8.1-3.3-14.5
			s1.1-11,3.3-14.4C365.1,6,368.3,4.3,372.5,4.3z"/>
		<g class="st0">
			<path d="M395,38.2h8.3V9.5l-9,1.8V6.7l9-1.8h5.1v33.3h8.3v4.3H395V38.2z"/>
		</g>
		<path class="st1" d="M395,38.2h8.2V9.6l-8.9,1.9V6.7l8.9-1.7h5.1v33.2h8.4v4.3H395V38.2z"/>
		<g class="st0">
			<path d="M428.2,38.2h8.3V9.5l-9,1.8V6.7l9-1.8h5.1v33.3h8.3v4.3h-21.7V38.2z"/>
		</g>
		<path class="st1" d="M427.7,38.2h8.2V9.6l-8.9,1.9V6.7L436,5h5.1v33.2h8.4v4.3h-21.7V38.2z"/>
		<g class="st0">
			<path d="M470.9,4.2c4.2,0,7.4,1.7,9.7,5c2.2,3.3,3.3,8.2,3.3,14.5c0,6.3-1.1,11.2-3.3,14.5c-2.2,3.3-5.4,5-9.7,5
				c-4.2,0-7.4-1.7-9.7-5c-2.2-3.3-3.3-8.2-3.3-14.5c0-6.3,1.1-11.2,3.3-14.5C463.5,5.9,466.7,4.2,470.9,4.2z M470.9,8.3
				c-2.6,0-4.6,1.3-5.9,3.9c-1.3,2.6-2,6.5-2,11.6c0,5.2,0.7,9,2,11.6c1.3,2.6,3.3,3.9,5.9,3.9c2.6,0,4.6-1.3,5.9-3.9
				c1.3-2.6,2-6.4,2-11.6c0-5.2-0.7-9-2-11.6C475.5,9.6,473.5,8.3,470.9,8.3z"/>
		</g>
		<path class="st1" d="M470.6,8.3c-2.5,0-4.5,1.3-5.9,3.9c-1.3,2.5-2,6.4-2,11.6s0.7,9,2,11.6c1.3,2.5,3.3,3.9,5.9,3.9
			c2.7,0,4.7-1.3,6-3.9c1.3-2.7,2-6.5,2-11.6c0-5.2-0.7-9-2-11.6C475.2,9.6,473.2,8.3,470.6,8.3z M470.6,4.3c4.3,0,7.4,1.7,9.7,5.1
			c2.3,3.3,3.3,8.1,3.3,14.4s-1.2,11.2-3.3,14.5c-2.1,3.3-5.5,5.1-9.7,5.1c-4.3,0-7.4-1.7-9.7-5.1c-2.1-3.3-3.3-8.1-3.3-14.5
			s1.1-11,3.3-14.4C463.1,6,466.4,4.3,470.6,4.3z"/>
		<g class="st0">
			<path d="M503.6,4.2c4.2,0,7.4,1.7,9.7,5c2.2,3.3,3.3,8.2,3.3,14.5c0,6.3-1.1,11.2-3.3,14.5c-2.2,3.3-5.4,5-9.7,5
				c-4.2,0-7.4-1.7-9.7-5c-2.2-3.3-3.3-8.2-3.3-14.5c0-6.3,1.1-11.2,3.3-14.5C496.1,5.9,499.4,4.2,503.6,4.2z M503.6,8.3
				c-2.6,0-4.6,1.3-5.9,3.9c-1.3,2.6-2,6.5-2,11.6c0,5.2,0.7,9,2,11.6c1.3,2.6,3.3,3.9,5.9,3.9c2.6,0,4.6-1.3,5.9-3.9
				c1.3-2.6,2-6.4,2-11.6c0-5.2-0.7-9-2-11.6C508.2,9.6,506.2,8.3,503.6,8.3z"/>
		</g>
		<path class="st1" d="M503.3,8.3c-2.5,0-4.5,1.3-5.9,3.9c-1.3,2.5-2,6.4-2,11.6s0.7,9,2,11.6c1.3,2.5,3.3,3.9,5.9,3.9
			c2.7,0,4.7-1.3,6-3.9c1.3-2.7,2-6.5,2-11.6c0-5.2-0.7-9-2-11.6C507.9,9.6,505.9,8.3,503.3,8.3z M503.3,4.3c4.3,0,7.4,1.7,9.7,5.1
			c2.3,3.3,3.3,8.1,3.3,14.4s-1.2,11.2-3.3,14.5s-5.5,5.1-9.7,5.1c-4.3,0-7.4-1.7-9.7-5.1c-2.1-3.3-3.3-8.1-3.3-14.5
			s1.1-11,3.3-14.4C495.8,6,499,4.3,503.3,4.3z"/>
		<g class="st0">
			<path d="M1.3,97.9h8.3V69.3l-9,1.8v-4.6l9-1.8h5.1v33.3H23v4.3H1.3V97.9z"/>
		</g>
		<path class="st1" d="M1.3,97.9h8.2V69.3l-8.9,1.9v-4.7l8.9-1.7h5.1v33.2H23v4.3H1.3V97.9z"/>
		<g class="st0">
			<path d="M34.1,97.9h8.3V69.3l-9,1.8v-4.6l9-1.8h5.1v33.3h8.3v4.3H34.1V97.9z"/>
		</g>
		<path class="st1" d="M34.2,97.9h8.2V69.3l-8.9,1.9v-4.7l8.9-1.7h5.1v33.2h8.4v4.3H34.1L34.2,97.9z"/>
		<g class="st0">
			<path d="M76.9,63.9c4.2,0,7.4,1.7,9.7,5c2.2,3.3,3.3,8.2,3.3,14.5c0,6.3-1.1,11.2-3.3,14.5s-5.4,5-9.7,5s-7.4-1.7-9.7-5
				S64,89.8,64,83.5c0-6.3,1.1-11.2,3.3-14.5C69.5,65.6,72.7,63.9,76.9,63.9z M76.9,68c-2.6,0-4.6,1.3-5.9,3.9
				c-1.3,2.6-2,6.5-2,11.6c0,5.2,0.7,9,2,11.6c1.3,2.6,3.3,3.9,5.9,3.9c2.6,0,4.6-1.3,5.9-3.9c1.3-2.6,2-6.4,2-11.6
				c0-5.2-0.7-9-2-11.6C81.6,69.3,79.6,68,76.9,68z"/>
		</g>
		<path class="st1" d="M76.6,67.9c-2.5,0-4.5,1.3-5.9,3.9c-1.3,2.5-2,6.4-2,11.6c0,5.2,0.7,9,2,11.6c1.3,2.5,3.3,3.9,5.9,3.9
			c2.7,0,4.7-1.3,6-3.9c1.3-2.7,2-6.5,2-11.6c0-5.2-0.7-9-2-11.6C81.3,69.2,79.3,67.9,76.6,67.9z M76.6,63.9c4.3,0,7.4,1.7,9.7,5.1
			c2.3,3.3,3.3,8.1,3.3,14.4s-1.2,11.2-3.3,14.5c-2.1,3.3-5.5,5.1-9.7,5.1c-4.1,0-7.4-1.7-9.7-5.1c-2.1-3.3-3.3-8.1-3.3-14.5
			c0-6.4,1.1-11,3.3-14.4C69.2,65.6,72.5,63.9,76.6,63.9z"/>
		<g class="st0">
			<path d="M109.6,63.9c4.2,0,7.4,1.7,9.7,5c2.2,3.3,3.3,8.2,3.3,14.5c0,6.3-1.1,11.2-3.3,14.5s-5.4,5-9.7,5c-4.2,0-7.4-1.7-9.7-5
				s-3.3-8.2-3.3-14.5c0-6.3,1.1-11.2,3.3-14.5C102.2,65.6,105.4,63.9,109.6,63.9z M109.6,68c-2.6,0-4.6,1.3-5.9,3.9
				c-1.3,2.6-2,6.5-2,11.6c0,5.2,0.7,9,2,11.6c1.3,2.6,3.3,3.9,5.9,3.9c2.6,0,4.6-1.3,5.9-3.9c1.3-2.6,2-6.4,2-11.6
				c0-5.2-0.7-9-2-11.6C114.2,69.3,112.3,68,109.6,68z"/>
		</g>
		<path class="st1" d="M109.9,67.9c-2.5,0-4.5,1.3-5.9,3.9c-1.3,2.5-2,6.4-2,11.6c0,5.2,0.7,9,2,11.6c1.3,2.5,3.3,3.9,5.9,3.9
			c2.7,0,4.7-1.3,6-3.9c1.3-2.7,2-6.5,2-11.6c0-5.2-0.7-9-2-11.6S112.5,67.9,109.9,67.9z M109.9,63.9c4.3,0,7.4,1.7,9.7,5.1
			c2.3,3.3,3.3,8.1,3.3,14.4s-1.2,11.2-3.3,14.5c-2.1,3.3-5.5,5.1-9.7,5.1c-4.1,0-7.4-1.7-9.7-5.1c-2.1-3.3-3.3-8.1-3.3-14.5
			c0-6.4,1.1-11,3.3-14.4C102.4,65.6,105.7,63.9,109.9,63.9z"/>
		<g class="st0">
			<path d="M142.3,63.9c4.2,0,7.4,1.7,9.7,5c2.2,3.3,3.3,8.2,3.3,14.5c0,6.3-1.1,11.2-3.3,14.5s-5.4,5-9.7,5c-4.2,0-7.4-1.7-9.7-5
				c-2.2-3.3-3.3-8.2-3.3-14.5c0-6.3,1.1-11.2,3.3-14.5C134.9,65.6,138.1,63.9,142.3,63.9z M142.3,68c-2.6,0-4.6,1.3-5.9,3.9
				c-1.3,2.6-2,6.5-2,11.6c0,5.2,0.7,9,2,11.6c1.3,2.6,3.3,3.9,5.9,3.9c2.6,0,4.6-1.3,5.9-3.9c1.3-2.6,2-6.4,2-11.6
				c0-5.2-0.7-9-2-11.6C146.9,69.3,145,68,142.3,68z"/>
		</g>
		<path class="st1" d="M142.6,67.9c-2.5,0-4.5,1.3-5.9,3.9c-1.3,2.5-2,6.4-2,11.6c0,5.2,0.7,9,2,11.6c1.3,2.5,3.3,3.9,5.9,3.9
			c2.7,0,4.7-1.3,6-3.9c1.3-2.7,2-6.5,2-11.6c0-5.2-0.7-9-2-11.6S145.2,67.9,142.6,67.9z M142.6,63.9c4.3,0,7.4,1.7,9.7,5.1
			c2.3,3.3,3.3,8.1,3.3,14.4s-1.2,11.2-3.3,14.5c-2.1,3.3-5.5,5.1-9.7,5.1c-4.1,0-7.4-1.7-9.7-5.1c-2.1-3.3-3.3-8.1-3.3-14.5
			c0-6.4,1.1-11,3.3-14.4C135.1,65.6,138.3,63.9,142.6,63.9z"/>
		<g class="st0">
			<path d="M175.6,63.9c4.2,0,7.4,1.7,9.7,5c2.2,3.3,3.3,8.2,3.3,14.5c0,6.3-1.1,11.2-3.3,14.5s-5.4,5-9.7,5s-7.4-1.7-9.7-5
				s-3.3-8.2-3.3-14.5c0-6.3,1.1-11.2,3.3-14.5C168.1,65.6,171.3,63.9,175.6,63.9z M175.6,68c-2.6,0-4.6,1.3-5.9,3.9
				c-1.3,2.6-2,6.5-2,11.6c0,5.2,0.7,9,2,11.6c1.3,2.6,3.3,3.9,5.9,3.9c2.6,0,4.6-1.3,5.9-3.9c1.3-2.6,2-6.4,2-11.6
				c0-5.2-0.7-9-2-11.6C180.2,69.3,178.2,68,175.6,68z"/>
		</g>
		<path class="st1" d="M175.3,67.9c-2.5,0-4.5,1.3-5.9,3.9c-1.3,2.5-2,6.4-2,11.6c0,5.2,0.7,9,2,11.6c1.3,2.5,3.3,3.9,5.9,3.9
			c2.7,0,4.7-1.3,6-3.9c1.3-2.7,2-6.5,2-11.6c0-5.2-0.7-9-2-11.6S178,67.9,175.3,67.9z M175.3,63.9c4.3,0,7.4,1.7,9.7,5.1
			c2.3,3.3,3.3,8.1,3.3,14.4s-1.2,11.2-3.3,14.5c-2.1,3.3-5.5,5.1-9.7,5.1c-4.1,0-7.4-1.7-9.7-5.1c-2.1-3.3-3.3-8.1-3.3-14.5
			c0-6.4,1.1-11,3.3-14.4C167.9,65.6,171.1,63.9,175.3,63.9z"/>
		<g class="st0">
			<path d="M198.3,97.9h8.3V69.3l-9,1.8v-4.6l9-1.8h5.1v33.3h8.3v4.3h-21.7V97.9z"/>
		</g>
		<path class="st1" d="M198.3,97.9h8.2V69.3l-8.9,1.9v-4.7l8.9-1.7h5.1v33.2h8.4v4.3h-21.7V97.9z"/>
		<g class="st0">
			<path d="M241,63.9c4.2,0,7.4,1.7,9.7,5c2.2,3.3,3.3,8.2,3.3,14.5c0,6.3-1.1,11.2-3.3,14.5s-5.4,5-9.7,5s-7.4-1.7-9.7-5
				s-3.3-8.2-3.3-14.5c0-6.3,1.1-11.2,3.3-14.5C233.5,65.6,236.7,63.9,241,63.9z M241,68c-2.6,0-4.6,1.3-5.9,3.9
				c-1.3,2.6-2,6.5-2,11.6c0,5.2,0.7,9,2,11.6c1.3,2.6,3.3,3.9,5.9,3.9c2.6,0,4.6-1.3,5.9-3.9c1.3-2.6,2-6.4,2-11.6
				c0-5.2-0.7-9-2-11.6C245.6,69.3,243.6,68,241,68z"/>
		</g>
		<path class="st1" d="M241.1,67.9c-2.5,0-4.5,1.3-5.9,3.9c-1.3,2.5-2,6.4-2,11.6c0,5.2,0.7,9,2,11.6c1.3,2.5,3.3,3.9,5.9,3.9
			c2.7,0,4.7-1.3,6-3.9c1.3-2.7,2-6.5,2-11.6c0-5.2-0.7-9-2-11.6C245.8,69.2,243.8,67.9,241.1,67.9z M241.1,63.9
			c4.3,0,7.4,1.7,9.7,5.1c2.3,3.3,3.3,8.1,3.3,14.4s-1.2,11.2-3.3,14.5c-2.1,3.3-5.5,5.1-9.7,5.1c-4.1,0-7.4-1.7-9.7-5.1
			c-2.1-3.3-3.3-8.1-3.3-14.5c0-6.4,1.1-11,3.3-14.4C233.7,65.6,237,63.9,241.1,63.9z"/>
		<g class="st0">
			<path d="M263.7,97.9h8.3V69.3l-9,1.8v-4.6l9-1.8h5.1v33.3h8.3v4.3h-21.7V97.9z"/>
		</g>
		<path class="st1" d="M263.8,97.9h8.2V69.3l-8.9,1.9v-4.7l8.9-1.7h5.1v33.2h8.4v4.3h-21.7V97.9z"/>
		<g class="st0">
			<path d="M296.9,97.9h8.3V69.3l-9,1.8v-4.6l9-1.8h5.1v33.3h8.3v4.3h-21.7V97.9z"/>
		</g>
		<path class="st1" d="M296.3,97.9h8.2V69.3l-8.9,1.9v-4.7l8.9-1.7h5.1v33.2h8.4v4.3h-21.7V97.9z"/>
		<g class="st0">
			<path d="M329.6,97.9h8.3V69.3l-9,1.8v-4.6l9-1.8h5.1v33.3h8.3v4.3h-21.7V97.9z"/>
		</g>
		<path class="st1" d="M329.6,97.9h8.2V69.3l-8.9,1.9v-4.7l8.9-1.7h5.1v33.2h8.4v4.3h-21.7L329.6,97.9z"/>
		<g class="st0">
			<path d="M362.3,97.9h8.3V69.3l-9,1.8v-4.6l9-1.8h5.1v33.3h8.3v4.3h-21.7V97.9z"/>
		</g>
		<path class="st1" d="M362.3,97.9h8.2V69.3l-8.9,1.9v-4.7l8.9-1.7h5.1v33.2h8.4v4.3h-21.7V97.9z"/>
		<g class="st0">
			<path d="M405,63.9c4.2,0,7.4,1.7,9.7,5c2.2,3.3,3.3,8.2,3.3,14.5c0,6.3-1.1,11.2-3.3,14.5c-2.2,3.3-5.4,5-9.7,5
				c-4.2,0-7.4-1.7-9.7-5c-2.2-3.3-3.3-8.2-3.3-14.5c0-6.3,1.1-11.2,3.3-14.5C397.5,65.6,400.7,63.9,405,63.9z M405,68
				c-2.6,0-4.6,1.3-5.9,3.9c-1.3,2.6-2,6.5-2,11.6c0,5.2,0.7,9,2,11.6c1.3,2.6,3.3,3.9,5.9,3.9c2.6,0,4.6-1.3,5.9-3.9
				c1.3-2.6,2-6.4,2-11.6c0-5.2-0.7-9-2-11.6C409.6,69.3,407.6,68,405,68z"/>
		</g>
		<path class="st1" d="M405.1,67.9c-2.5,0-4.5,1.3-5.9,3.9c-1.3,2.5-2,6.4-2,11.6c0,5.2,0.7,9,2,11.6c1.3,2.5,3.3,3.9,5.9,3.9
			c2.7,0,4.7-1.3,6-3.9c1.3-2.7,2-6.5,2-11.6c0-5.2-0.7-9-2-11.6C409.8,69.2,407.9,67.9,405.1,67.9z M405.1,63.9
			c4.3,0,7.4,1.7,9.7,5.1c2.3,3.3,3.3,8.1,3.3,14.4s-1.2,11.2-3.3,14.5c-2.1,3.3-5.5,5.1-9.7,5.1c-4.1,0-7.4-1.7-9.7-5.1
			c-2.1-3.3-3.3-8.1-3.3-14.5c0-6.4,1.1-11,3.3-14.4C397.8,65.6,401,63.9,405.1,63.9z"/>
		<g class="st0">
			<path d="M428.2,97.9h8.3V69.3l-9,1.8v-4.6l9-1.8h5.1v33.3h8.3v4.3h-21.7V97.9z"/>
		</g>
		<path class="st1" d="M427.7,97.9h8.2V69.3l-8.9,1.9v-4.7l8.9-1.7h5.1v33.2h8.4v4.3h-21.7V97.9z"/>
		<g class="st0">
			<path d="M460.9,97.9h8.3V69.3l-9,1.8v-4.6l9-1.8h5.1v33.3h8.3v4.3h-21.7V97.9z"/>
		</g>
		<path class="st1" d="M461,97.9h8.2V69.3l-8.9,1.9v-4.7l8.9-1.7h5.1v33.2h8.4v4.3H461V97.9z"/>
		<g class="st0">
			<path d="M503.6,63.9c4.2,0,7.4,1.7,9.7,5c2.2,3.3,3.3,8.2,3.3,14.5c0,6.3-1.1,11.2-3.3,14.5c-2.2,3.3-5.4,5-9.7,5
				c-4.2,0-7.4-1.7-9.7-5c-2.2-3.3-3.3-8.2-3.3-14.5c0-6.3,1.1-11.2,3.3-14.5C496.1,65.6,499.4,63.9,503.6,63.9z M503.6,68
				c-2.6,0-4.6,1.3-5.9,3.9c-1.3,2.6-2,6.5-2,11.6c0,5.2,0.7,9,2,11.6c1.3,2.6,3.3,3.9,5.9,3.9c2.6,0,4.6-1.3,5.9-3.9
				c1.3-2.6,2-6.4,2-11.6c0-5.2-0.7-9-2-11.6C508.2,69.3,506.2,68,503.6,68z"/>
		</g>
		<path class="st1" d="M503.3,67.9c-2.5,0-4.5,1.3-5.9,3.9c-1.3,2.5-2,6.4-2,11.6c0,5.2,0.7,9,2,11.6c1.3,2.5,3.3,3.9,5.9,3.9
			c2.7,0,4.7-1.3,6-3.9c1.3-2.7,2-6.5,2-11.6c0-5.2-0.7-9-2-11.6C507.9,69.2,505.9,67.9,503.3,67.9z M503.3,63.9
			c4.3,0,7.4,1.7,9.7,5.1c2.3,3.3,3.3,8.1,3.3,14.4s-1.2,11.2-3.3,14.5c-2.1,3.3-5.5,5.1-9.7,5.1c-4.3,0-7.4-1.7-9.7-5.1
			c-2.1-3.3-3.3-8.1-3.3-14.5c0-6.4,1.1-11,3.3-14.4C495.8,65.6,499,63.9,503.3,63.9z"/>
		<g class="st0">
			<path d="M11.3,124c4.2,0,7.4,1.7,9.7,5c2.2,3.3,3.3,8.2,3.3,14.5c0,6.3-1.1,11.2-3.3,14.5s-5.4,5-9.7,5s-7.4-1.7-9.7-5
				s-3.3-8.2-3.3-14.5c0-6.3,1.1-11.2,3.3-14.5C3.9,125.6,7.1,124,11.3,124z M11.3,128c-2.6,0-4.6,1.3-5.9,3.9
				c-1.3,2.6-2,6.5-2,11.6c0,5.2,0.7,9,2,11.6c1.3,2.6,3.3,3.9,5.9,3.9c2.6,0,4.6-1.3,5.9-3.9c1.3-2.6,2-6.4,2-11.6
				c0-5.2-0.7-9-2-11.6C16,129.3,14,128,11.3,128z"/>
		</g>
		<path class="st1" d="M11.3,128c-2.5,0-4.5,1.3-5.9,3.9c-1.3,2.5-2,6.4-2,11.6c0,5.2,0.7,9,2,11.6c1.3,2.5,3.3,3.9,5.9,3.9
			c2.7,0,4.7-1.3,6-3.9c1.3-2.7,2-6.5,2-11.6c0-5.2-0.7-9-2-11.6C16,129.2,14,128,11.3,128z M11.3,123.9c4.3,0,7.4,1.7,9.7,5.1
			c2.3,3.3,3.3,8.1,3.3,14.4c0,6.4-1.1,11.2-3.3,14.5c-2.1,3.3-5.5,5.1-9.7,5.1s-7.4-1.7-9.7-5.1c-2.1-3.3-3.3-8.1-3.3-14.5
			s1.1-11,3.3-14.4C3.9,125.6,7.1,123.9,11.3,123.9z"/>
		<g class="st0">
			<path d="M34.1,158h8.3v-28.7l-9,1.8v-4.6l9-1.8h5.1V158h8.3v4.3H34.1V158z"/>
		</g>
		<path class="st1" d="M34.2,157.9h8.2v-28.6l-8.9,1.9v-4.7l8.9-1.7h5.1V158h8.4v4.3H34.1L34.2,157.9z"/>
		<g class="st0">
			<path d="M67,158h8.3v-28.7l-9,1.8v-4.6l9-1.8h5.1V158h8.3v4.3H67V158z"/>
		</g>
		<path class="st1" d="M67,157.9h8.2v-28.6l-8.9,1.9v-4.7l8.9-1.7h5.1V158h8.4v4.3H66.9L67,157.9z"/>
		<g class="st0">
			<path d="M109.6,124c4.2,0,7.4,1.7,9.7,5c2.2,3.3,3.3,8.2,3.3,14.5c0,6.3-1.1,11.2-3.3,14.5s-5.4,5-9.7,5c-4.2,0-7.4-1.7-9.7-5
				s-3.3-8.2-3.3-14.5c0-6.3,1.1-11.2,3.3-14.5C102.2,125.6,105.4,124,109.6,124z M109.6,128c-2.6,0-4.6,1.3-5.9,3.9
				c-1.3,2.6-2,6.5-2,11.6c0,5.2,0.7,9,2,11.6c1.3,2.6,3.3,3.9,5.9,3.9c2.6,0,4.6-1.3,5.9-3.9c1.3-2.6,2-6.4,2-11.6
				c0-5.2-0.7-9-2-11.6C114.2,129.3,112.3,128,109.6,128z"/>
		</g>
		<path class="st1" d="M109.9,128c-2.5,0-4.5,1.3-5.9,3.9c-1.3,2.5-2,6.4-2,11.6c0,5.2,0.7,9,2,11.6c1.3,2.5,3.3,3.9,5.9,3.9
			c2.7,0,4.7-1.3,6-3.9c1.3-2.7,2-6.5,2-11.6c0-5.2-0.7-9-2-11.6C114.5,129.2,112.5,128,109.9,128z M109.9,123.9
			c4.3,0,7.4,1.7,9.7,5.1c2.3,3.3,3.3,8.1,3.3,14.4c0,6.4-1.2,11.2-3.3,14.5c-2.1,3.3-5.5,5.1-9.7,5.1c-4.1,0-7.4-1.7-9.7-5.1
			c-2.1-3.3-3.3-8.1-3.3-14.5s1.1-11,3.3-14.4C102.4,125.6,105.7,123.9,109.9,123.9z"/>
		<g class="st0">
			<path d="M142.3,124c4.2,0,7.4,1.7,9.7,5c2.2,3.3,3.3,8.2,3.3,14.5c0,6.3-1.1,11.2-3.3,14.5s-5.4,5-9.7,5c-4.2,0-7.4-1.7-9.7-5
				c-2.2-3.3-3.3-8.2-3.3-14.5c0-6.3,1.1-11.2,3.3-14.5C134.9,125.6,138.1,124,142.3,124z M142.3,128c-2.6,0-4.6,1.3-5.9,3.9
				c-1.3,2.6-2,6.5-2,11.6c0,5.2,0.7,9,2,11.6c1.3,2.6,3.3,3.9,5.9,3.9c2.6,0,4.6-1.3,5.9-3.9c1.3-2.6,2-6.4,2-11.6
				c0-5.2-0.7-9-2-11.6C146.9,129.3,145,128,142.3,128z"/>
		</g>
		<path class="st1" d="M142.6,128c-2.5,0-4.5,1.3-5.9,3.9c-1.3,2.5-2,6.4-2,11.6c0,5.2,0.7,9,2,11.6c1.3,2.5,3.3,3.9,5.9,3.9
			c2.7,0,4.7-1.3,6-3.9c1.3-2.7,2-6.5,2-11.6c0-5.2-0.7-9-2-11.6C147.2,129.2,145.2,128,142.6,128z M142.6,123.9
			c4.3,0,7.4,1.7,9.7,5.1c2.3,3.3,3.3,8.1,3.3,14.4c0,6.4-1.2,11.2-3.3,14.5c-2.1,3.3-5.5,5.1-9.7,5.1c-4.1,0-7.4-1.7-9.7-5.1
			c-2.1-3.3-3.3-8.1-3.3-14.5s1.1-11,3.3-14.4C135.1,125.6,138.3,123.9,142.6,123.9z"/>
		<g class="st0">
			<path d="M175.6,124c4.2,0,7.4,1.7,9.7,5c2.2,3.3,3.3,8.2,3.3,14.5c0,6.3-1.1,11.2-3.3,14.5s-5.4,5-9.7,5s-7.4-1.7-9.7-5
				s-3.3-8.2-3.3-14.5c0-6.3,1.1-11.2,3.3-14.5C168.1,125.6,171.3,124,175.6,124z M175.6,128c-2.6,0-4.6,1.3-5.9,3.9
				c-1.3,2.6-2,6.5-2,11.6c0,5.2,0.7,9,2,11.6c1.3,2.6,3.3,3.9,5.9,3.9c2.6,0,4.6-1.3,5.9-3.9c1.3-2.6,2-6.4,2-11.6
				c0-5.2-0.7-9-2-11.6C180.2,129.3,178.2,128,175.6,128z"/>
		</g>
		<path class="st1" d="M175.3,128c-2.5,0-4.5,1.3-5.9,3.9c-1.3,2.5-2,6.4-2,11.6c0,5.2,0.7,9,2,11.6c1.3,2.5,3.3,3.9,5.9,3.9
			c2.7,0,4.7-1.3,6-3.9c1.3-2.7,2-6.5,2-11.6c0-5.2-0.7-9-2-11.6C180,129.2,178,128,175.3,128z M175.3,123.9c4.3,0,7.4,1.7,9.7,5.1
			c2.3,3.3,3.3,8.1,3.3,14.4c0,6.4-1.2,11.2-3.3,14.5c-2.1,3.3-5.5,5.1-9.7,5.1c-4.1,0-7.4-1.7-9.7-5.1c-2.1-3.3-3.3-8.1-3.3-14.5
			s1.1-11,3.3-14.4C167.9,125.6,171.1,123.9,175.3,123.9z"/>
		<g class="st0">
			<path d="M198.3,158h8.3v-28.7l-9,1.8v-4.6l9-1.8h5.1V158h8.3v4.3h-21.7V158z"/>
		</g>
		<path class="st1" d="M198.3,157.9h8.2v-28.6l-8.9,1.9v-4.7l8.9-1.7h5.1V158h8.4v4.3h-21.7V157.9z"/>
		<g class="st0">
			<path d="M241,124c4.2,0,7.4,1.7,9.7,5c2.2,3.3,3.3,8.2,3.3,14.5c0,6.3-1.1,11.2-3.3,14.5s-5.4,5-9.7,5s-7.4-1.7-9.7-5
				s-3.3-8.2-3.3-14.5c0-6.3,1.1-11.2,3.3-14.5C233.5,125.6,236.7,124,241,124z M241,128c-2.6,0-4.6,1.3-5.9,3.9
				c-1.3,2.6-2,6.5-2,11.6c0,5.2,0.7,9,2,11.6c1.3,2.6,3.3,3.9,5.9,3.9c2.6,0,4.6-1.3,5.9-3.9c1.3-2.6,2-6.4,2-11.6
				c0-5.2-0.7-9-2-11.6C245.6,129.3,243.6,128,241,128z"/>
		</g>
		<path class="st1" d="M241.1,128c-2.5,0-4.5,1.3-5.9,3.9c-1.3,2.5-2,6.4-2,11.6c0,5.2,0.7,9,2,11.6c1.3,2.5,3.3,3.9,5.9,3.9
			c2.7,0,4.7-1.3,6-3.9c1.3-2.7,2-6.5,2-11.6c0-5.2-0.7-9-2-11.6C245.8,129.2,243.8,128,241.1,128z M241.1,123.9
			c4.3,0,7.4,1.7,9.7,5.1c2.3,3.3,3.3,8.1,3.3,14.4c0,6.4-1.2,11.2-3.3,14.5c-2.1,3.3-5.5,5.1-9.7,5.1c-4.1,0-7.4-1.7-9.7-5.1
			c-2.1-3.3-3.3-8.1-3.3-14.5s1.1-11,3.3-14.4C233.7,125.6,237,123.9,241.1,123.9z"/>
		<g class="st0">
			<path d="M263.7,158h8.3v-28.7l-9,1.8v-4.6l9-1.8h5.1V158h8.3v4.3h-21.7V158z"/>
		</g>
		<path class="st1" d="M263.8,157.9h8.2v-28.6l-8.9,1.9v-4.7l8.9-1.7h5.1V158h8.4v4.3h-21.7V157.9z"/>
		<g class="st0">
			<path d="M306.9,124c4.2,0,7.4,1.7,9.7,5c2.2,3.3,3.3,8.2,3.3,14.5c0,6.3-1.1,11.2-3.3,14.5c-2.2,3.3-5.4,5-9.7,5
				c-4.2,0-7.4-1.7-9.7-5c-2.2-3.3-3.3-8.2-3.3-14.5c0-6.3,1.1-11.2,3.3-14.5C299.4,125.6,302.7,124,306.9,124z M306.9,128
				c-2.6,0-4.6,1.3-5.9,3.9c-1.3,2.6-2,6.5-2,11.6c0,5.2,0.7,9,2,11.6c1.3,2.6,3.3,3.9,5.9,3.9c2.6,0,4.6-1.3,5.9-3.9
				c1.3-2.6,2-6.4,2-11.6c0-5.2-0.7-9-2-11.6C311.5,129.3,309.5,128,306.9,128z"/>
		</g>
		<path class="st1" d="M306.6,128c-2.5,0-4.5,1.3-5.9,3.9c-1.3,2.5-2,6.4-2,11.6c0,5.2,0.7,9,2,11.6c1.3,2.5,3.3,3.9,5.9,3.9
			c2.7,0,4.7-1.3,6-3.9c1.3-2.7,2-6.5,2-11.6c0-5.2-0.7-9-2-11.6C311.2,129.2,309.2,128,306.6,128z M306.6,123.9
			c4.3,0,7.4,1.7,9.7,5.1c2.3,3.3,3.3,8.1,3.3,14.4c0,6.4-1.2,11.2-3.3,14.5c-2.1,3.3-5.5,5.1-9.7,5.1c-4.1,0-7.4-1.7-9.7-5.1
			c-2.1-3.3-3.3-8.1-3.3-14.5s1.1-11,3.3-14.4C299.1,125.6,302.3,123.9,306.6,123.9z"/>
		<g class="st0">
			<path d="M329.6,158h8.3v-28.7l-9,1.8v-4.6l9-1.8h5.1V158h8.3v4.3h-21.7V158z"/>
		</g>
		<path class="st1" d="M329.6,157.9h8.2v-28.6l-8.9,1.9v-4.7l8.9-1.7h5.1V158h8.4v4.3h-21.7L329.6,157.9z"/>
		<g class="st0">
			<path d="M372.3,124c4.2,0,7.4,1.7,9.7,5c2.2,3.3,3.3,8.2,3.3,14.5c0,6.3-1.1,11.2-3.3,14.5c-2.2,3.3-5.4,5-9.7,5
				c-4.2,0-7.4-1.7-9.7-5c-2.2-3.3-3.3-8.2-3.3-14.5c0-6.3,1.1-11.2,3.3-14.5C364.8,125.6,368.1,124,372.3,124z M372.3,128
				c-2.6,0-4.6,1.3-5.9,3.9c-1.3,2.6-2,6.5-2,11.6c0,5.2,0.7,9,2,11.6c1.3,2.6,3.3,3.9,5.9,3.9c2.6,0,4.6-1.3,5.9-3.9
				c1.3-2.6,2-6.4,2-11.6c0-5.2-0.7-9-2-11.6C376.9,129.3,374.9,128,372.3,128z"/>
		</g>
		<path class="st1" d="M372.5,128c-2.5,0-4.5,1.3-5.9,3.9c-1.3,2.5-2,6.4-2,11.6c0,5.2,0.7,9,2,11.6c1.3,2.5,3.3,3.9,5.9,3.9
			c2.7,0,4.7-1.3,6-3.9c1.3-2.7,2-6.5,2-11.6c0-5.2-0.7-9-2-11.6C377.2,129.2,375.2,128,372.5,128z M372.5,123.9
			c4.3,0,7.4,1.7,9.7,5.1c2.3,3.3,3.3,8.1,3.3,14.4c0,6.4-1.2,11.2-3.3,14.5c-2.1,3.3-5.5,5.1-9.7,5.1c-4.1,0-7.4-1.7-9.7-5.1
			c-2.1-3.3-3.3-8.1-3.3-14.5s1.1-11,3.3-14.4C365.1,125.6,368.3,123.9,372.5,123.9z"/>
		<g class="st0">
			<path d="M405,124c4.2,0,7.4,1.7,9.7,5c2.2,3.3,3.3,8.2,3.3,14.5c0,6.3-1.1,11.2-3.3,14.5c-2.2,3.3-5.4,5-9.7,5
				c-4.2,0-7.4-1.7-9.7-5c-2.2-3.3-3.3-8.2-3.3-14.5c0-6.3,1.1-11.2,3.3-14.5C397.5,125.6,400.7,124,405,124z M405,128
				c-2.6,0-4.6,1.3-5.9,3.9c-1.3,2.6-2,6.5-2,11.6c0,5.2,0.7,9,2,11.6c1.3,2.6,3.3,3.9,5.9,3.9c2.6,0,4.6-1.3,5.9-3.9
				c1.3-2.6,2-6.4,2-11.6c0-5.2-0.7-9-2-11.6C409.6,129.3,407.6,128,405,128z"/>
		</g>
		<path class="st1" d="M405.1,128c-2.5,0-4.5,1.3-5.9,3.9c-1.3,2.5-2,6.4-2,11.6c0,5.2,0.7,9,2,11.6c1.3,2.5,3.3,3.9,5.9,3.9
			c2.7,0,4.7-1.3,6-3.9c1.3-2.7,2-6.5,2-11.6c0-5.2-0.7-9-2-11.6C409.8,129.2,407.9,128,405.1,128z M405.1,123.9
			c4.3,0,7.4,1.7,9.7,5.1c2.3,3.3,3.3,8.1,3.3,14.4c0,6.4-1.2,11.2-3.3,14.5c-2.1,3.3-5.5,5.1-9.7,5.1c-4.1,0-7.4-1.7-9.7-5.1
			c-2.1-3.3-3.3-8.1-3.3-14.5s1.1-11,3.3-14.4C397.8,125.6,401,123.9,405.1,123.9z"/>
		<g class="st0">
			<path d="M428.2,158h8.3v-28.7l-9,1.8v-4.6l9-1.8h5.1V158h8.3v4.3h-21.7V158z"/>
		</g>
		<path class="st1" d="M427.7,157.9h8.2v-28.6l-8.9,1.9v-4.7l8.9-1.7h5.1V158h8.4v4.3h-21.7V157.9z"/>
		<g class="st0">
			<path d="M470.9,124c4.2,0,7.4,1.7,9.7,5c2.2,3.3,3.3,8.2,3.3,14.5c0,6.3-1.1,11.2-3.3,14.5c-2.2,3.3-5.4,5-9.7,5
				c-4.2,0-7.4-1.7-9.7-5c-2.2-3.3-3.3-8.2-3.3-14.5c0-6.3,1.1-11.2,3.3-14.5C463.5,125.6,466.7,124,470.9,124z M470.9,128
				c-2.6,0-4.6,1.3-5.9,3.9c-1.3,2.6-2,6.5-2,11.6c0,5.2,0.7,9,2,11.6c1.3,2.6,3.3,3.9,5.9,3.9c2.6,0,4.6-1.3,5.9-3.9
				c1.3-2.6,2-6.4,2-11.6c0-5.2-0.7-9-2-11.6C475.5,129.3,473.5,128,470.9,128z"/>
		</g>
		<path class="st1" d="M470.6,128c-2.5,0-4.5,1.3-5.9,3.9c-1.3,2.5-2,6.4-2,11.6c0,5.2,0.7,9,2,11.6c1.3,2.5,3.3,3.9,5.9,3.9
			c2.7,0,4.7-1.3,6-3.9c1.3-2.7,2-6.5,2-11.6c0-5.2-0.7-9-2-11.6C475.2,129.2,473.2,128,470.6,128z M470.6,123.9
			c4.3,0,7.4,1.7,9.7,5.1c2.3,3.3,3.3,8.1,3.3,14.4c0,6.4-1.2,11.2-3.3,14.5c-2.1,3.3-5.5,5.1-9.7,5.1c-4.3,0-7.4-1.7-9.7-5.1
			c-2.1-3.3-3.3-8.1-3.3-14.5s1.1-11,3.3-14.4C463.1,125.6,466.4,123.9,470.6,123.9z"/>
		<g class="st0">
			<path d="M503.6,124c4.2,0,7.4,1.7,9.7,5c2.2,3.3,3.3,8.2,3.3,14.5c0,6.3-1.1,11.2-3.3,14.5c-2.2,3.3-5.4,5-9.7,5
				c-4.2,0-7.4-1.7-9.7-5c-2.2-3.3-3.3-8.2-3.3-14.5c0-6.3,1.1-11.2,3.3-14.5C496.1,125.6,499.4,124,503.6,124z M503.6,128
				c-2.6,0-4.6,1.3-5.9,3.9c-1.3,2.6-2,6.5-2,11.6c0,5.2,0.7,9,2,11.6c1.3,2.6,3.3,3.9,5.9,3.9c2.6,0,4.6-1.3,5.9-3.9
				c1.3-2.6,2-6.4,2-11.6c0-5.2-0.7-9-2-11.6C508.2,129.3,506.2,128,503.6,128z"/>
		</g>
		<path class="st1" d="M503.3,128c-2.5,0-4.5,1.3-5.9,3.9c-1.3,2.5-2,6.4-2,11.6c0,5.2,0.7,9,2,11.6c1.3,2.5,3.3,3.9,5.9,3.9
			c2.7,0,4.7-1.3,6-3.9c1.3-2.7,2-6.5,2-11.6c0-5.2-0.7-9-2-11.6C507.9,129.2,505.9,128,503.3,128z M503.3,123.9
			c4.3,0,7.4,1.7,9.7,5.1c2.3,3.3,3.3,8.1,3.3,14.4c0,6.4-1.2,11.2-3.3,14.5c-2.1,3.3-5.5,5.1-9.7,5.1c-4.3,0-7.4-1.7-9.7-5.1
			c-2.1-3.3-3.3-8.1-3.3-14.5s1.1-11,3.3-14.4C495.8,125.6,499,123.9,503.3,123.9z"/>
		<g class="st0">
			<path d="M1.3,217.5h8.3v-28.7l-9,1.8V186l9-1.8h5.1v33.3H23v4.3H1.3V217.5z"/>
		</g>
		<path class="st1" d="M1.3,217.5h8.2v-28.6l-8.9,1.9v-4.7l8.9-1.7h5.1v33.2H23v4.3H1.3V217.5z"/>
		<g class="st0">
			<path d="M34.1,217.5h8.3v-28.7l-9,1.8V186l9-1.8h5.1v33.3h8.3v4.3H34.1V217.5z"/>
		</g>
		<path class="st1" d="M34.2,217.5h8.2v-28.6l-8.9,1.9v-4.7l8.9-1.7h5.1v33.2h8.4v4.3H34.1L34.2,217.5z"/>
		<g class="st0">
			<path d="M67,217.5h8.3v-28.7l-9,1.8V186l9-1.8h5.1v33.3h8.3v4.3H67V217.5z"/>
		</g>
		<path class="st1" d="M67,217.5h8.2v-28.6l-8.9,1.9v-4.7l8.9-1.7h5.1v33.2h8.4v4.3H66.9L67,217.5z"/>
		<g class="st0">
			<path d="M109.6,183.5c4.2,0,7.4,1.7,9.7,5c2.2,3.3,3.3,8.2,3.3,14.5c0,6.3-1.1,11.2-3.3,14.5s-5.4,5-9.7,5c-4.2,0-7.4-1.7-9.7-5
				s-3.3-8.2-3.3-14.5c0-6.3,1.1-11.2,3.3-14.5C102.2,185.1,105.4,183.5,109.6,183.5z M109.6,187.5c-2.6,0-4.6,1.3-5.9,3.9
				c-1.3,2.6-2,6.5-2,11.6c0,5.2,0.7,9,2,11.6c1.3,2.6,3.3,3.9,5.9,3.9c2.6,0,4.6-1.3,5.9-3.9c1.3-2.6,2-6.4,2-11.6
				c0-5.2-0.7-9-2-11.6C114.2,188.8,112.3,187.5,109.6,187.5z"/>
		</g>
		<path class="st1" d="M109.9,187.4c-2.5,0-4.5,1.3-5.9,3.9c-1.3,2.5-2,6.4-2,11.6c0,5.2,0.7,9,2,11.6c1.3,2.5,3.3,3.9,5.9,3.9
			c2.7,0,4.7-1.3,6-3.9c1.3-2.7,2-6.5,2-11.6c0-5.2-0.7-9-2-11.6C114.5,188.8,112.5,187.4,109.9,187.4z M109.9,183.4
			c4.3,0,7.4,1.7,9.7,5.1c2.3,3.3,3.3,8.1,3.3,14.4c0,6.3-1.2,11.2-3.3,14.5c-2.1,3.3-5.5,5.1-9.7,5.1c-4.1,0-7.4-1.7-9.7-5.1
			c-2.1-3.3-3.3-8.1-3.3-14.5c0-6.4,1.1-11,3.3-14.4C102.4,185,105.7,183.4,109.9,183.4z"/>
		<g class="st0">
			<path d="M142.3,183.5c4.2,0,7.4,1.7,9.7,5c2.2,3.3,3.3,8.2,3.3,14.5c0,6.3-1.1,11.2-3.3,14.5s-5.4,5-9.7,5c-4.2,0-7.4-1.7-9.7-5
				c-2.2-3.3-3.3-8.2-3.3-14.5c0-6.3,1.1-11.2,3.3-14.5C134.9,185.1,138.1,183.5,142.3,183.5z M142.3,187.5c-2.6,0-4.6,1.3-5.9,3.9
				c-1.3,2.6-2,6.5-2,11.6c0,5.2,0.7,9,2,11.6c1.3,2.6,3.3,3.9,5.9,3.9c2.6,0,4.6-1.3,5.9-3.9c1.3-2.6,2-6.4,2-11.6
				c0-5.2-0.7-9-2-11.6C146.9,188.8,145,187.5,142.3,187.5z"/>
		</g>
		<path class="st1" d="M142.6,187.4c-2.5,0-4.5,1.3-5.9,3.9c-1.3,2.5-2,6.4-2,11.6c0,5.2,0.7,9,2,11.6s3.3,3.9,5.9,3.9
			c2.7,0,4.7-1.3,6-3.9c1.3-2.7,2-6.5,2-11.6c0-5.2-0.7-9-2-11.6C147.2,188.8,145.2,187.4,142.6,187.4z M142.6,183.4
			c4.3,0,7.4,1.7,9.7,5.1s3.3,8.1,3.3,14.4c0,6.3-1.2,11.2-3.3,14.5c-2.1,3.3-5.5,5.1-9.7,5.1c-4.1,0-7.4-1.7-9.7-5.1
			c-2.1-3.3-3.3-8.1-3.3-14.5c0-6.4,1.1-11,3.3-14.4C135.1,185,138.3,183.4,142.6,183.4z"/>
		<g class="st0">
			<path d="M175.6,183.5c4.2,0,7.4,1.7,9.7,5c2.2,3.3,3.3,8.2,3.3,14.5c0,6.3-1.1,11.2-3.3,14.5s-5.4,5-9.7,5s-7.4-1.7-9.7-5
				s-3.3-8.2-3.3-14.5c0-6.3,1.1-11.2,3.3-14.5C168.1,185.1,171.3,183.5,175.6,183.5z M175.6,187.5c-2.6,0-4.6,1.3-5.9,3.9
				c-1.3,2.6-2,6.5-2,11.6c0,5.2,0.7,9,2,11.6c1.3,2.6,3.3,3.9,5.9,3.9c2.6,0,4.6-1.3,5.9-3.9c1.3-2.6,2-6.4,2-11.6
				c0-5.2-0.7-9-2-11.6C180.2,188.8,178.2,187.5,175.6,187.5z"/>
		</g>
		<path class="st1" d="M175.3,187.4c-2.5,0-4.5,1.3-5.9,3.9c-1.3,2.5-2,6.4-2,11.6c0,5.2,0.7,9,2,11.6s3.3,3.9,5.9,3.9
			c2.7,0,4.7-1.3,6-3.9c1.3-2.7,2-6.5,2-11.6c0-5.2-0.7-9-2-11.6C180,188.8,178,187.4,175.3,187.4z M175.3,183.4
			c4.3,0,7.4,1.7,9.7,5.1c2.3,3.3,3.3,8.1,3.3,14.4c0,6.3-1.2,11.2-3.3,14.5c-2.1,3.3-5.5,5.1-9.7,5.1c-4.1,0-7.4-1.7-9.7-5.1
			c-2.1-3.3-3.3-8.1-3.3-14.5c0-6.4,1.1-11,3.3-14.4C167.9,185,171.1,183.4,175.3,183.4z"/>
		<g class="st0">
			<path d="M208.3,183.5c4.2,0,7.4,1.7,9.7,5c2.2,3.3,3.3,8.2,3.3,14.5c0,6.3-1.1,11.2-3.3,14.5s-5.4,5-9.7,5c-4.2,0-7.4-1.7-9.7-5
				s-3.3-8.2-3.3-14.5c0-6.3,1.1-11.2,3.3-14.5C200.8,185.1,204,183.5,208.3,183.5z M208.3,187.5c-2.6,0-4.6,1.3-5.9,3.9
				c-1.3,2.6-2,6.5-2,11.6c0,5.2,0.7,9,2,11.6c1.3,2.6,3.3,3.9,5.9,3.9c2.6,0,4.6-1.3,5.9-3.9c1.3-2.6,2-6.4,2-11.6
				c0-5.2-0.7-9-2-11.6C212.9,188.8,210.9,187.5,208.3,187.5z"/>
		</g>
		<path class="st1" d="M207.9,187.4c-2.5,0-4.5,1.3-5.9,3.9c-1.3,2.5-2,6.4-2,11.6c0,5.2,0.7,9,2,11.6c1.3,2.5,3.3,3.9,5.9,3.9
			c2.7,0,4.7-1.3,6-3.9c1.3-2.7,2-6.5,2-11.6c0-5.2-0.7-9-2-11.6C212.5,188.8,210.7,187.4,207.9,187.4z M207.9,183.4
			c4.3,0,7.4,1.7,9.7,5.1c2.3,3.3,3.3,8.1,3.3,14.4c0,6.3-1.2,11.2-3.3,14.5c-2.1,3.3-5.5,5.1-9.7,5.1c-4.1,0-7.4-1.7-9.7-5.1
			c-2.1-3.3-3.3-8.1-3.3-14.5c0-6.4,1.1-11,3.3-14.4C200.6,185,203.8,183.4,207.9,183.4z"/>
		<g class="st0">
			<path d="M231,217.5h8.3v-28.7l-9,1.8V186l9-1.8h5.1v33.3h8.3v4.3H231V217.5z"/>
		</g>
		<path class="st1" d="M231,217.5h8.2v-28.6l-8.9,1.9v-4.7l8.9-1.7h5.1v33.2h8.4v4.3H231V217.5z"/>
		<g class="st0">
			<path d="M263.7,217.5h8.3v-28.7l-9,1.8V186l9-1.8h5.1v33.3h8.3v4.3h-21.7V217.5z"/>
		</g>
		<path class="st1" d="M263.8,217.5h8.2v-28.6l-8.9,1.9v-4.7l8.9-1.7h5.1v33.2h8.4v4.3h-21.7V217.5z"/>
		<g class="st0">
			<path d="M296.9,217.5h8.3v-28.7l-9,1.8V186l9-1.8h5.1v33.3h8.3v4.3h-21.7V217.5z"/>
		</g>
		<path class="st1" d="M296.3,217.5h8.2v-28.6l-8.9,1.9v-4.7l8.9-1.7h5.1v33.2h8.4v4.3h-21.7V217.5z"/>
		<g class="st0">
			<path d="M339.6,183.5c4.2,0,7.4,1.7,9.7,5c2.2,3.3,3.3,8.2,3.3,14.5c0,6.3-1.1,11.2-3.3,14.5c-2.2,3.3-5.4,5-9.7,5
				c-4.2,0-7.4-1.7-9.7-5c-2.2-3.3-3.3-8.2-3.3-14.5c0-6.3,1.1-11.2,3.3-14.5C332.1,185.1,335.4,183.5,339.6,183.5z M339.6,187.5
				c-2.6,0-4.6,1.3-5.9,3.9c-1.3,2.6-2,6.5-2,11.6c0,5.2,0.7,9,2,11.6c1.3,2.6,3.3,3.9,5.9,3.9c2.6,0,4.6-1.3,5.9-3.9
				c1.3-2.6,2-6.4,2-11.6c0-5.2-0.7-9-2-11.6C344.2,188.8,342.2,187.5,339.6,187.5z"/>
		</g>
		<path class="st1" d="M339.3,187.4c-2.5,0-4.5,1.3-5.9,3.9c-1.3,2.5-2,6.4-2,11.6c0,5.2,0.7,9,2,11.6c1.3,2.5,3.3,3.9,5.9,3.9
			c2.7,0,4.7-1.3,6-3.9c1.3-2.7,2-6.5,2-11.6c0-5.2-0.7-9-2-11.6C344,188.8,342,187.4,339.3,187.4z M339.3,183.4
			c4.3,0,7.4,1.7,9.7,5.1s3.3,8.1,3.3,14.4c0,6.3-1.2,11.2-3.3,14.5c-2.1,3.3-5.5,5.1-9.7,5.1c-4.1,0-7.4-1.7-9.7-5.1
			c-2.1-3.3-3.3-8.1-3.3-14.5c0-6.4,1.1-11,3.3-14.4C331.8,185,335,183.4,339.3,183.4z"/>
		<g class="st0">
			<path d="M362.3,217.5h8.3v-28.7l-9,1.8V186l9-1.8h5.1v33.3h8.3v4.3h-21.7V217.5z"/>
		</g>
		<path class="st1" d="M362.3,217.5h8.2v-28.6l-8.9,1.9v-4.7l8.9-1.7h5.1v33.2h8.4v4.3h-21.7V217.5z"/>
		<g class="st0">
			<path d="M395,217.5h8.3v-28.7l-9,1.8V186l9-1.8h5.1v33.3h8.3v4.3H395V217.5z"/>
		</g>
		<path class="st1" d="M395,217.5h8.2v-28.6l-8.9,1.9v-4.7l8.9-1.7h5.1v33.2h8.4v4.3H395V217.5z"/>
		<g class="st0">
			<path d="M438.2,183.5c4.2,0,7.4,1.7,9.7,5c2.2,3.3,3.3,8.2,3.3,14.5c0,6.3-1.1,11.2-3.3,14.5c-2.2,3.3-5.4,5-9.7,5
				c-4.2,0-7.4-1.7-9.7-5c-2.2-3.3-3.3-8.2-3.3-14.5c0-6.3,1.1-11.2,3.3-14.5C430.8,185.1,434,183.5,438.2,183.5z M438.2,187.5
				c-2.6,0-4.6,1.3-5.9,3.9c-1.3,2.6-2,6.5-2,11.6c0,5.2,0.7,9,2,11.6c1.3,2.6,3.3,3.9,5.9,3.9c2.6,0,4.6-1.3,5.9-3.9
				c1.3-2.6,2-6.4,2-11.6c0-5.2-0.7-9-2-11.6C442.8,188.8,440.8,187.5,438.2,187.5z"/>
		</g>
		<path class="st1" d="M437.8,187.4c-2.5,0-4.5,1.3-5.9,3.9c-1.3,2.5-2,6.4-2,11.6c0,5.2,0.7,9,2,11.6s3.3,3.9,5.9,3.9
			c2.7,0,4.7-1.3,6-3.9c1.3-2.7,2-6.5,2-11.6c0-5.2-0.7-9-2-11.6C442.5,188.8,440.5,187.4,437.8,187.4z M437.8,183.4
			c4.3,0,7.4,1.7,9.7,5.1c2.3,3.3,3.3,8.1,3.3,14.4c0,6.3-1.2,11.2-3.3,14.5c-2.1,3.3-5.5,5.1-9.7,5.1c-4.3,0-7.4-1.7-9.7-5.1
			c-2.1-3.3-3.3-8.1-3.3-14.5c0-6.4,1.1-11,3.3-14.4C430.4,185,433.7,183.4,437.8,183.4z"/>
		<g class="st0">
			<path d="M460.9,217.5h8.3v-28.7l-9,1.8V186l9-1.8h5.1v33.3h8.3v4.3h-21.7V217.5z"/>
		</g>
		<path class="st1" d="M461,217.5h8.2v-28.6l-8.9,1.9v-4.7l8.9-1.7h5.1v33.2h8.4v4.3H461V217.5z"/>
		<g class="st0">
			<path d="M493.6,217.5h8.3v-28.7l-9,1.8V186l9-1.8h5.1v33.3h8.3v4.3h-21.7V217.5z"/>
		</g>
		<path class="st1" d="M493.6,217.5h8.2v-28.6l-8.9,1.9v-4.7l8.9-1.7h5.1v33.2h8.4v4.3h-21.7V217.5z"/>
		<g class="st0">
			<path d="M1.3,277.5h8.3v-28.7l-9,1.8V246l9-1.8h5.1v33.3H23v4.3H1.3V277.5z"/>
		</g>
		<path class="st1" d="M1.3,277.5h8.2v-28.6l-8.9,1.9v-4.7l8.9-1.7h5.1v33.3H23v4.3H1.3V277.5z"/>
		<g class="st0">
			<path d="M34.1,277.5h8.3v-28.7l-9,1.8V246l9-1.8h5.1v33.3h8.3v4.3H34.1V277.5z"/>
		</g>
		<path class="st1" d="M34.2,277.5h8.2v-28.6l-8.9,1.9v-4.7l8.9-1.7h5.1v33.3h8.4v4.3H34.1L34.2,277.5z"/>
		<g class="st0">
			<path d="M76.9,243.5c4.2,0,7.4,1.7,9.7,5c2.2,3.3,3.3,8.2,3.3,14.5c0,6.3-1.1,11.2-3.3,14.5c-2.2,3.3-5.4,5-9.7,5s-7.4-1.7-9.7-5
				c-2.2-3.3-3.3-8.2-3.3-14.5c0-6.3,1.1-11.2,3.3-14.5C69.5,245.2,72.7,243.5,76.9,243.5z M76.9,247.5c-2.6,0-4.6,1.3-5.9,3.9
				c-1.3,2.6-2,6.5-2,11.6c0,5.2,0.7,9,2,11.6c1.3,2.6,3.3,3.9,5.9,3.9c2.6,0,4.6-1.3,5.9-3.9c1.3-2.6,2-6.4,2-11.6
				c0-5.2-0.7-9-2-11.6C81.6,248.8,79.6,247.5,76.9,247.5z"/>
		</g>
		<path class="st1" d="M76.6,247.4c-2.5,0-4.5,1.3-5.9,3.9s-2,6.4-2,11.6s0.7,9,2,11.6c1.3,2.5,3.3,3.9,5.9,3.9c2.7,0,4.7-1.3,6-3.9
			c1.3-2.7,2-6.5,2-11.6c0-5.2-0.7-9-2-11.6C81.3,248.8,79.3,247.4,76.6,247.4z M76.6,243.4c4.3,0,7.4,1.7,9.7,5.1
			c2.3,3.3,3.3,8.1,3.3,14.4c0,6.3-1.2,11.2-3.3,14.5s-5.5,5.1-9.7,5.1c-4.1,0-7.4-1.7-9.7-5.1c-2.1-3.3-3.3-8.1-3.3-14.5
			c0-6.4,1.1-11,3.3-14.4C69.2,245.2,72.5,243.4,76.6,243.4z"/>
		<g class="st0">
			<path d="M109.6,243.5c4.2,0,7.4,1.7,9.7,5c2.2,3.3,3.3,8.2,3.3,14.5c0,6.3-1.1,11.2-3.3,14.5c-2.2,3.3-5.4,5-9.7,5
				c-4.2,0-7.4-1.7-9.7-5c-2.2-3.3-3.3-8.2-3.3-14.5c0-6.3,1.1-11.2,3.3-14.5C102.2,245.2,105.4,243.5,109.6,243.5z M109.6,247.5
				c-2.6,0-4.6,1.3-5.9,3.9c-1.3,2.6-2,6.5-2,11.6c0,5.2,0.7,9,2,11.6c1.3,2.6,3.3,3.9,5.9,3.9c2.6,0,4.6-1.3,5.9-3.9
				c1.3-2.6,2-6.4,2-11.6c0-5.2-0.7-9-2-11.6C114.2,248.8,112.3,247.5,109.6,247.5z"/>
		</g>
		<path class="st1" d="M109.9,247.4c-2.5,0-4.5,1.3-5.9,3.9c-1.3,2.5-2,6.4-2,11.6s0.7,9,2,11.6c1.3,2.5,3.3,3.9,5.9,3.9
			c2.7,0,4.7-1.3,6-3.9c1.3-2.7,2-6.5,2-11.6c0-5.2-0.7-9-2-11.6S112.5,247.4,109.9,247.4z M109.9,243.4c4.3,0,7.4,1.7,9.7,5.1
			c2.3,3.3,3.3,8.1,3.3,14.4c0,6.3-1.2,11.2-3.3,14.5s-5.5,5.1-9.7,5.1c-4.1,0-7.4-1.7-9.7-5.1c-2.1-3.3-3.3-8.1-3.3-14.5
			c0-6.4,1.1-11,3.3-14.4C102.4,245.2,105.7,243.4,109.9,243.4z"/>
		<g class="st0">
			<path d="M142.3,243.5c4.2,0,7.4,1.7,9.7,5c2.2,3.3,3.3,8.2,3.3,14.5c0,6.3-1.1,11.2-3.3,14.5c-2.2,3.3-5.4,5-9.7,5
				c-4.2,0-7.4-1.7-9.7-5c-2.2-3.3-3.3-8.2-3.3-14.5c0-6.3,1.1-11.2,3.3-14.5C134.9,245.2,138.1,243.5,142.3,243.5z M142.3,247.5
				c-2.6,0-4.6,1.3-5.9,3.9c-1.3,2.6-2,6.5-2,11.6c0,5.2,0.7,9,2,11.6c1.3,2.6,3.3,3.9,5.9,3.9c2.6,0,4.6-1.3,5.9-3.9
				c1.3-2.6,2-6.4,2-11.6c0-5.2-0.7-9-2-11.6C146.9,248.8,145,247.5,142.3,247.5z"/>
		</g>
		<path class="st1" d="M142.6,247.4c-2.5,0-4.5,1.3-5.9,3.9s-2,6.4-2,11.6s0.7,9,2,11.6c1.3,2.5,3.3,3.9,5.9,3.9
			c2.7,0,4.7-1.3,6-3.9c1.3-2.7,2-6.5,2-11.6c0-5.2-0.7-9-2-11.6S145.2,247.4,142.6,247.4z M142.6,243.4c4.3,0,7.4,1.7,9.7,5.1
			s3.3,8.1,3.3,14.4c0,6.3-1.2,11.2-3.3,14.5c-2.1,3.3-5.5,5.1-9.7,5.1c-4.1,0-7.4-1.7-9.7-5.1c-2.1-3.3-3.3-8.1-3.3-14.5
			c0-6.4,1.1-11,3.3-14.4C135.1,245.2,138.3,243.4,142.6,243.4z"/>
		<g class="st0">
			<path d="M175.6,243.5c4.2,0,7.4,1.7,9.7,5c2.2,3.3,3.3,8.2,3.3,14.5c0,6.3-1.1,11.2-3.3,14.5c-2.2,3.3-5.4,5-9.7,5
				s-7.4-1.7-9.7-5c-2.2-3.3-3.3-8.2-3.3-14.5c0-6.3,1.1-11.2,3.3-14.5C168.1,245.2,171.3,243.5,175.6,243.5z M175.6,247.5
				c-2.6,0-4.6,1.3-5.9,3.9c-1.3,2.6-2,6.5-2,11.6c0,5.2,0.7,9,2,11.6c1.3,2.6,3.3,3.9,5.9,3.9c2.6,0,4.6-1.3,5.9-3.9
				c1.3-2.6,2-6.4,2-11.6c0-5.2-0.7-9-2-11.6C180.2,248.8,178.2,247.5,175.6,247.5z"/>
		</g>
		<path class="st1" d="M175.3,247.4c-2.5,0-4.5,1.3-5.9,3.9s-2,6.4-2,11.6s0.7,9,2,11.6c1.3,2.5,3.3,3.9,5.9,3.9
			c2.7,0,4.7-1.3,6-3.9c1.3-2.7,2-6.5,2-11.6c0-5.2-0.7-9-2-11.6S178,247.4,175.3,247.4z M175.3,243.4c4.3,0,7.4,1.7,9.7,5.1
			c2.3,3.3,3.3,8.1,3.3,14.4c0,6.3-1.2,11.2-3.3,14.5s-5.5,5.1-9.7,5.1c-4.1,0-7.4-1.7-9.7-5.1c-2.1-3.3-3.3-8.1-3.3-14.5
			c0-6.4,1.1-11,3.3-14.4C167.9,245.2,171.1,243.4,175.3,243.4z"/>
		<g class="st0">
			<path d="M198.3,277.5h8.3v-28.7l-9,1.8V246l9-1.8h5.1v33.3h8.3v4.3h-21.7V277.5z"/>
		</g>
		<path class="st1" d="M198.3,277.5h8.2v-28.6l-8.9,1.9v-4.7l8.9-1.7h5.1v33.3h8.4v4.3h-21.7V277.5z"/>
		<g class="st0">
			<path d="M241,243.5c4.2,0,7.4,1.7,9.7,5c2.2,3.3,3.3,8.2,3.3,14.5c0,6.3-1.1,11.2-3.3,14.5c-2.2,3.3-5.4,5-9.7,5s-7.4-1.7-9.7-5
				c-2.2-3.3-3.3-8.2-3.3-14.5c0-6.3,1.1-11.2,3.3-14.5C233.5,245.2,236.7,243.5,241,243.5z M241,247.5c-2.6,0-4.6,1.3-5.9,3.9
				c-1.3,2.6-2,6.5-2,11.6c0,5.2,0.7,9,2,11.6c1.3,2.6,3.3,3.9,5.9,3.9c2.6,0,4.6-1.3,5.9-3.9c1.3-2.6,2-6.4,2-11.6
				c0-5.2-0.7-9-2-11.6C245.6,248.8,243.6,247.5,241,247.5z"/>
		</g>
		<path class="st1" d="M241.1,247.4c-2.5,0-4.5,1.3-5.9,3.9c-1.3,2.5-2,6.4-2,11.6s0.7,9,2,11.6c1.3,2.5,3.3,3.9,5.9,3.9
			c2.7,0,4.7-1.3,6-3.9c1.3-2.7,2-6.5,2-11.6c0-5.2-0.7-9-2-11.6C245.8,248.8,243.8,247.4,241.1,247.4z M241.1,243.4
			c4.3,0,7.4,1.7,9.7,5.1c2.3,3.3,3.3,8.1,3.3,14.4c0,6.3-1.2,11.2-3.3,14.5s-5.5,5.1-9.7,5.1c-4.1,0-7.4-1.7-9.7-5.1
			c-2.1-3.3-3.3-8.1-3.3-14.5c0-6.4,1.1-11,3.3-14.4C233.7,245.2,237,243.4,241.1,243.4z"/>
		<g class="st0">
			<path d="M273.6,243.5c4.2,0,7.4,1.7,9.7,5c2.2,3.3,3.3,8.2,3.3,14.5c0,6.3-1.1,11.2-3.3,14.5c-2.2,3.3-5.4,5-9.7,5
				c-4.2,0-7.4-1.7-9.7-5c-2.2-3.3-3.3-8.2-3.3-14.5c0-6.3,1.1-11.2,3.3-14.5C266.2,245.2,269.4,243.5,273.6,243.5z M273.6,247.5
				c-2.6,0-4.6,1.3-5.9,3.9c-1.3,2.6-2,6.5-2,11.6c0,5.2,0.7,9,2,11.6c1.3,2.6,3.3,3.9,5.9,3.9c2.6,0,4.6-1.3,5.9-3.9
				c1.3-2.6,2-6.4,2-11.6c0-5.2-0.7-9-2-11.6C278.3,248.8,276.3,247.5,273.6,247.5z"/>
		</g>
		<path class="st1" d="M273.9,247.4c-2.5,0-4.5,1.3-5.9,3.9c-1.3,2.5-2,6.4-2,11.6s0.7,9,2,11.6c1.3,2.5,3.3,3.9,5.9,3.9
			c2.7,0,4.7-1.3,6-3.9c1.3-2.7,2-6.5,2-11.6c0-5.2-0.7-9-2-11.6C278.5,248.8,276.5,247.4,273.9,247.4z M273.9,243.4
			c4.3,0,7.4,1.7,9.7,5.1c2.3,3.3,3.3,8.1,3.3,14.4c0,6.3-1.2,11.2-3.3,14.5c-2.1,3.3-5.5,5.1-9.7,5.1c-4.1,0-7.4-1.7-9.7-5.1
			c-2.1-3.3-3.3-8.1-3.3-14.5c0-6.4,1.1-11,3.3-14.4C266.4,245.2,269.7,243.4,273.9,243.4z"/>
		<g class="st0">
			<path d="M306.9,243.5c4.2,0,7.4,1.7,9.7,5c2.2,3.3,3.3,8.2,3.3,14.5c0,6.3-1.1,11.2-3.3,14.5c-2.2,3.3-5.4,5-9.7,5
				c-4.2,0-7.4-1.7-9.7-5c-2.2-3.3-3.3-8.2-3.3-14.5c0-6.3,1.1-11.2,3.3-14.5C299.4,245.2,302.7,243.5,306.9,243.5z M306.9,247.5
				c-2.6,0-4.6,1.3-5.9,3.9c-1.3,2.6-2,6.5-2,11.6c0,5.2,0.7,9,2,11.6c1.3,2.6,3.3,3.9,5.9,3.9c2.6,0,4.6-1.3,5.9-3.9
				c1.3-2.6,2-6.4,2-11.6c0-5.2-0.7-9-2-11.6C311.5,248.8,309.5,247.5,306.9,247.5z"/>
		</g>
		<path class="st1" d="M306.6,247.4c-2.5,0-4.5,1.3-5.9,3.9c-1.3,2.5-2,6.4-2,11.6s0.7,9,2,11.6c1.3,2.5,3.3,3.9,5.9,3.9
			c2.7,0,4.7-1.3,6-3.9c1.3-2.7,2-6.5,2-11.6c0-5.2-0.7-9-2-11.6C311.2,248.8,309.2,247.4,306.6,247.4z M306.6,243.4
			c4.3,0,7.4,1.7,9.7,5.1c2.3,3.3,3.3,8.1,3.3,14.4c0,6.3-1.2,11.2-3.3,14.5c-2.1,3.3-5.5,5.1-9.7,5.1c-4.1,0-7.4-1.7-9.7-5.1
			c-2.1-3.3-3.3-8.1-3.3-14.5c0-6.4,1.1-11,3.3-14.4S302.3,243.4,306.6,243.4z"/>
		<g class="st0">
			<path d="M329.6,277.5h8.3v-28.7l-9,1.8V246l9-1.8h5.1v33.3h8.3v4.3h-21.7V277.5z"/>
		</g>
		<path class="st1" d="M329.6,277.5h8.2v-28.6l-8.9,1.9v-4.7l8.9-1.7h5.1v33.3h8.4v4.3h-21.7L329.6,277.5z"/>
		<g class="st0">
			<path d="M372.3,243.5c4.2,0,7.4,1.7,9.7,5c2.2,3.3,3.3,8.2,3.3,14.5c0,6.3-1.1,11.2-3.3,14.5c-2.2,3.3-5.4,5-9.7,5
				c-4.2,0-7.4-1.7-9.7-5c-2.2-3.3-3.3-8.2-3.3-14.5c0-6.3,1.1-11.2,3.3-14.5C364.8,245.2,368.1,243.5,372.3,243.5z M372.3,247.5
				c-2.6,0-4.6,1.3-5.9,3.9c-1.3,2.6-2,6.5-2,11.6c0,5.2,0.7,9,2,11.6c1.3,2.6,3.3,3.9,5.9,3.9c2.6,0,4.6-1.3,5.9-3.9
				c1.3-2.6,2-6.4,2-11.6c0-5.2-0.7-9-2-11.6C376.9,248.8,374.9,247.5,372.3,247.5z"/>
		</g>
		<path class="st1" d="M372.5,247.4c-2.5,0-4.5,1.3-5.9,3.9c-1.3,2.5-2,6.4-2,11.6s0.7,9,2,11.6c1.3,2.5,3.3,3.9,5.9,3.9
			c2.7,0,4.7-1.3,6-3.9c1.3-2.7,2-6.5,2-11.6c0-5.2-0.7-9-2-11.6C377.2,248.8,375.2,247.4,372.5,247.4z M372.5,243.4
			c4.3,0,7.4,1.7,9.7,5.1c2.3,3.3,3.3,8.1,3.3,14.4c0,6.3-1.2,11.2-3.3,14.5c-2.1,3.3-5.5,5.1-9.7,5.1c-4.1,0-7.4-1.7-9.7-5.1
			c-2.1-3.3-3.3-8.1-3.3-14.5c0-6.4,1.1-11,3.3-14.4C365.1,245.2,368.3,243.4,372.5,243.4z"/>
		<g class="st0">
			<path d="M395,277.5h8.3v-28.7l-9,1.8V246l9-1.8h5.1v33.3h8.3v4.3H395V277.5z"/>
		</g>
		<path class="st1" d="M395,277.5h8.2v-28.6l-8.9,1.9v-4.7l8.9-1.7h5.1v33.3h8.4v4.3H395V277.5z"/>
		<g class="st0">
			<path d="M428.2,277.5h8.3v-28.7l-9,1.8V246l9-1.8h5.1v33.3h8.3v4.3h-21.7V277.5z"/>
		</g>
		<path class="st1" d="M427.7,277.5h8.2v-28.6l-8.9,1.9v-4.7l8.9-1.7h5.1v33.3h8.4v4.3h-21.7V277.5z"/>
		<g class="st0">
			<path d="M470.9,243.5c4.2,0,7.4,1.7,9.7,5c2.2,3.3,3.3,8.2,3.3,14.5c0,6.3-1.1,11.2-3.3,14.5c-2.2,3.3-5.4,5-9.7,5
				c-4.2,0-7.4-1.7-9.7-5c-2.2-3.3-3.3-8.2-3.3-14.5c0-6.3,1.1-11.2,3.3-14.5C463.5,245.2,466.7,243.5,470.9,243.5z M470.9,247.5
				c-2.6,0-4.6,1.3-5.9,3.9c-1.3,2.6-2,6.5-2,11.6c0,5.2,0.7,9,2,11.6c1.3,2.6,3.3,3.9,5.9,3.9c2.6,0,4.6-1.3,5.9-3.9
				c1.3-2.6,2-6.4,2-11.6c0-5.2-0.7-9-2-11.6C475.5,248.8,473.5,247.5,470.9,247.5z"/>
		</g>
		<path class="st1" d="M470.6,247.4c-2.5,0-4.5,1.3-5.9,3.9c-1.3,2.5-2,6.4-2,11.6s0.7,9,2,11.6c1.3,2.5,3.3,3.9,5.9,3.9
			c2.7,0,4.7-1.3,6-3.9c1.3-2.7,2-6.5,2-11.6c0-5.2-0.7-9-2-11.6C475.2,248.8,473.2,247.4,470.6,247.4z M470.6,243.4
			c4.3,0,7.4,1.7,9.7,5.1c2.3,3.3,3.3,8.1,3.3,14.4c0,6.3-1.2,11.2-3.3,14.5c-2.1,3.3-5.5,5.1-9.7,5.1c-4.3,0-7.4-1.7-9.7-5.1
			c-2.1-3.3-3.3-8.1-3.3-14.5c0-6.4,1.1-11,3.3-14.4C463.1,245.2,466.4,243.4,470.6,243.4z"/>
		<g class="st0">
			<path d="M493.6,277.5h8.3v-28.7l-9,1.8V246l9-1.8h5.1v33.3h8.3v4.3h-21.7V277.5z"/>
		</g>
		<path class="st1" d="M493.6,277.5h8.2v-28.6l-8.9,1.9v-4.7l8.9-1.7h5.1v33.3h8.4v4.3h-21.7V277.5z"/>
		<g class="st0">
			<path d="M11.3,303c4.2,0,7.4,1.7,9.7,5c2.2,3.3,3.3,8.2,3.3,14.5c0,6.3-1.1,11.2-3.3,14.5c-2.2,3.3-5.4,5-9.7,5s-7.4-1.7-9.7-5
				c-2.2-3.3-3.3-8.2-3.3-14.5c0-6.3,1.1-11.2,3.3-14.5C3.9,304.7,7.1,303,11.3,303z M11.3,307c-2.6,0-4.6,1.3-5.9,3.9
				c-1.3,2.6-2,6.4-2,11.6c0,5.2,0.7,9,2,11.6c1.3,2.6,3.3,3.9,5.9,3.9c2.6,0,4.6-1.3,5.9-3.9c1.3-2.6,2-6.4,2-11.6
				c0-5.2-0.7-9-2-11.6C16,308.3,14,307,11.3,307z"/>
		</g>
		<path class="st1" d="M11.3,307.5c-2.5,0-4.5,1.3-5.9,3.9c-1.3,2.5-2,6.4-2,11.6s0.7,9,2,11.6c1.3,2.5,3.3,3.9,5.9,3.9
			c2.7,0,4.7-1.3,6-3.9c1.3-2.7,2-6.5,2-11.6c0-5.2-0.7-9-2-11.6C16,308.7,14,307.5,11.3,307.5z M11.3,303.4c4.3,0,7.4,1.7,9.7,5.1
			c2.3,3.3,3.3,8.1,3.3,14.4c0,6.3-1.1,11.2-3.3,14.5c-2.1,3.3-5.5,5.1-9.7,5.1s-7.4-1.7-9.7-5.1c-2.1-3.3-3.3-8.1-3.3-14.5
			c0-6.4,1.1-11,3.3-14.4S7.1,303.4,11.3,303.4z"/>
		<g class="st0">
			<path d="M34.1,337h8.3v-28.7l-9,1.8v-4.6l9-1.8h5.1V337h8.3v4.3H34.1V337z"/>
		</g>
		<path class="st1" d="M34.2,336.9h8.2v-28.6l-8.9,1.9v-4.7l8.9-1.7h5.1v33.2h8.4v4.3H34.1L34.2,336.9z"/>
		<g class="st0">
			<path d="M67,337h8.3v-28.7l-9,1.8v-4.6l9-1.8h5.1V337h8.3v4.3H67V337z"/>
		</g>
		<path class="st1" d="M67,336.9h8.2v-28.6l-8.9,1.9v-4.7l8.9-1.7h5.1v33.2h8.4v4.3H66.9L67,336.9z"/>
		<g class="st0">
			<path d="M109.6,303c4.2,0,7.4,1.7,9.7,5c2.2,3.3,3.3,8.2,3.3,14.5c0,6.3-1.1,11.2-3.3,14.5c-2.2,3.3-5.4,5-9.7,5
				c-4.2,0-7.4-1.7-9.7-5c-2.2-3.3-3.3-8.2-3.3-14.5c0-6.3,1.1-11.2,3.3-14.5C102.2,304.7,105.4,303,109.6,303z M109.6,307
				c-2.6,0-4.6,1.3-5.9,3.9c-1.3,2.6-2,6.4-2,11.6c0,5.2,0.7,9,2,11.6c1.3,2.6,3.3,3.9,5.9,3.9c2.6,0,4.6-1.3,5.9-3.9
				c1.3-2.6,2-6.4,2-11.6c0-5.2-0.7-9-2-11.6C114.2,308.3,112.3,307,109.6,307z"/>
		</g>
		<path class="st1" d="M109.9,307.5c-2.5,0-4.5,1.3-5.9,3.9c-1.3,2.5-2,6.4-2,11.6s0.7,9,2,11.6c1.3,2.5,3.3,3.9,5.9,3.9
			c2.7,0,4.7-1.3,6-3.9c1.3-2.7,2-6.5,2-11.6c0-5.2-0.7-9-2-11.6C114.5,308.7,112.5,307.5,109.9,307.5z M109.9,303.4
			c4.3,0,7.4,1.7,9.7,5.1c2.3,3.3,3.3,8.1,3.3,14.4c0,6.3-1.2,11.2-3.3,14.5c-2.1,3.3-5.5,5.1-9.7,5.1c-4.1,0-7.4-1.7-9.7-5.1
			c-2.1-3.3-3.3-8.1-3.3-14.5c0-6.4,1.1-11,3.3-14.4C102.4,305.1,105.7,303.4,109.9,303.4z"/>
		<g class="st0">
			<path d="M142.3,303c4.2,0,7.4,1.7,9.7,5c2.2,3.3,3.3,8.2,3.3,14.5c0,6.3-1.1,11.2-3.3,14.5c-2.2,3.3-5.4,5-9.7,5
				c-4.2,0-7.4-1.7-9.7-5c-2.2-3.3-3.3-8.2-3.3-14.5c0-6.3,1.1-11.2,3.3-14.5C134.9,304.7,138.1,303,142.3,303z M142.3,307
				c-2.6,0-4.6,1.3-5.9,3.9c-1.3,2.6-2,6.4-2,11.6c0,5.2,0.7,9,2,11.6c1.3,2.6,3.3,3.9,5.9,3.9c2.6,0,4.6-1.3,5.9-3.9
				c1.3-2.6,2-6.4,2-11.6c0-5.2-0.7-9-2-11.6C146.9,308.3,145,307,142.3,307z"/>
		</g>
		<path class="st1" d="M142.6,307.5c-2.5,0-4.5,1.3-5.9,3.9c-1.3,2.5-2,6.4-2,11.6s0.7,9,2,11.6c1.3,2.5,3.3,3.9,5.9,3.9
			c2.7,0,4.7-1.3,6-3.9c1.3-2.7,2-6.5,2-11.6c0-5.2-0.7-9-2-11.6C147.2,308.7,145.2,307.5,142.6,307.5z M142.6,303.4
			c4.3,0,7.4,1.7,9.7,5.1c2.3,3.3,3.3,8.1,3.3,14.4c0,6.3-1.2,11.2-3.3,14.5c-2.1,3.3-5.5,5.1-9.7,5.1c-4.1,0-7.4-1.7-9.7-5.1
			c-2.1-3.3-3.3-8.1-3.3-14.5c0-6.4,1.1-11,3.3-14.4C135.1,305.1,138.3,303.4,142.6,303.4z"/>
		<g class="st0">
			<path d="M175.6,303c4.2,0,7.4,1.7,9.7,5c2.2,3.3,3.3,8.2,3.3,14.5c0,6.3-1.1,11.2-3.3,14.5c-2.2,3.3-5.4,5-9.7,5s-7.4-1.7-9.7-5
				c-2.2-3.3-3.3-8.2-3.3-14.5c0-6.3,1.1-11.2,3.3-14.5C168.1,304.7,171.3,303,175.6,303z M175.6,307c-2.6,0-4.6,1.3-5.9,3.9
				c-1.3,2.6-2,6.4-2,11.6c0,5.2,0.7,9,2,11.6c1.3,2.6,3.3,3.9,5.9,3.9c2.6,0,4.6-1.3,5.9-3.9c1.3-2.6,2-6.4,2-11.6
				c0-5.2-0.7-9-2-11.6C180.2,308.3,178.2,307,175.6,307z"/>
		</g>
		<path class="st1" d="M175.3,307.5c-2.5,0-4.5,1.3-5.9,3.9c-1.3,2.5-2,6.4-2,11.6s0.7,9,2,11.6c1.3,2.5,3.3,3.9,5.9,3.9
			c2.7,0,4.7-1.3,6-3.9c1.3-2.7,2-6.5,2-11.6c0-5.2-0.7-9-2-11.6C180,308.7,178,307.5,175.3,307.5z M175.3,303.4
			c4.3,0,7.4,1.7,9.7,5.1c2.3,3.3,3.3,8.1,3.3,14.4c0,6.3-1.2,11.2-3.3,14.5c-2.1,3.3-5.5,5.1-9.7,5.1c-4.1,0-7.4-1.7-9.7-5.1
			c-2.1-3.3-3.3-8.1-3.3-14.5c0-6.4,1.1-11,3.3-14.4C167.9,305.1,171.1,303.4,175.3,303.4z"/>
		<g class="st0">
			<path d="M198.3,337h8.3v-28.7l-9,1.8v-4.6l9-1.8h5.1V337h8.3v4.3h-21.7V337z"/>
		</g>
		<path class="st1" d="M198.3,336.9h8.2v-28.6l-8.9,1.9v-4.7l8.9-1.7h5.1v33.2h8.4v4.3h-21.7V336.9z"/>
		<g class="st0">
			<path d="M231,337h8.3v-28.7l-9,1.8v-4.6l9-1.8h5.1V337h8.3v4.3H231V337z"/>
		</g>
		<path class="st1" d="M231,336.9h8.2v-28.6l-8.9,1.9v-4.7l8.9-1.7h5.1v33.2h8.4v4.3H231V336.9z"/>
		<g class="st0">
			<path d="M263.7,337h8.3v-28.7l-9,1.8v-4.6l9-1.8h5.1V337h8.3v4.3h-21.7V337z"/>
		</g>
		<path class="st1" d="M263.8,336.9h8.2v-28.6l-8.9,1.9v-4.7l8.9-1.7h5.1v33.2h8.4v4.3h-21.7V336.9z"/>
		<g class="st0">
			<path d="M296.9,337h8.3v-28.7l-9,1.8v-4.6l9-1.8h5.1V337h8.3v4.3h-21.7V337z"/>
		</g>
		<path class="st1" d="M296.3,336.9h8.2v-28.6l-8.9,1.9v-4.7l8.9-1.7h5.1v33.2h8.4v4.3h-21.7V336.9z"/>
		<g class="st0">
			<path d="M339.6,303c4.2,0,7.4,1.7,9.7,5c2.2,3.3,3.3,8.2,3.3,14.5c0,6.3-1.1,11.2-3.3,14.5c-2.2,3.3-5.4,5-9.7,5
				c-4.2,0-7.4-1.7-9.7-5c-2.2-3.3-3.3-8.2-3.3-14.5c0-6.3,1.1-11.2,3.3-14.5C332.1,304.7,335.4,303,339.6,303z M339.6,307
				c-2.6,0-4.6,1.3-5.9,3.9c-1.3,2.6-2,6.4-2,11.6c0,5.2,0.7,9,2,11.6c1.3,2.6,3.3,3.9,5.9,3.9c2.6,0,4.6-1.3,5.9-3.9
				c1.3-2.6,2-6.4,2-11.6c0-5.2-0.7-9-2-11.6C344.2,308.3,342.2,307,339.6,307z"/>
		</g>
		<path class="st1" d="M339.3,307.5c-2.5,0-4.5,1.3-5.9,3.9c-1.3,2.5-2,6.4-2,11.6s0.7,9,2,11.6c1.3,2.5,3.3,3.9,5.9,3.9
			c2.7,0,4.7-1.3,6-3.9c1.3-2.7,2-6.5,2-11.6c0-5.2-0.7-9-2-11.6C344,308.7,342,307.5,339.3,307.5z M339.3,303.4
			c4.3,0,7.4,1.7,9.7,5.1c2.3,3.3,3.3,8.1,3.3,14.4c0,6.3-1.2,11.2-3.3,14.5c-2.1,3.3-5.5,5.1-9.7,5.1c-4.1,0-7.4-1.7-9.7-5.1
			c-2.1-3.3-3.3-8.1-3.3-14.5c0-6.4,1.1-11,3.3-14.4C331.8,305.1,335,303.4,339.3,303.4z"/>
		<g class="st0">
			<path d="M362.3,337h8.3v-28.7l-9,1.8v-4.6l9-1.8h5.1V337h8.3v4.3h-21.7V337z"/>
		</g>
		<path class="st1" d="M362.3,336.9h8.2v-28.6l-8.9,1.9v-4.7l8.9-1.7h5.1v33.2h8.4v4.3h-21.7V336.9z"/>
		<g class="st0">
			<path d="M405,303c4.2,0,7.4,1.7,9.7,5c2.2,3.3,3.3,8.2,3.3,14.5c0,6.3-1.1,11.2-3.3,14.5c-2.2,3.3-5.4,5-9.7,5
				c-4.2,0-7.4-1.7-9.7-5c-2.2-3.3-3.3-8.2-3.3-14.5c0-6.3,1.1-11.2,3.3-14.5C397.5,304.7,400.7,303,405,303z M405,307
				c-2.6,0-4.6,1.3-5.9,3.9c-1.3,2.6-2,6.4-2,11.6c0,5.2,0.7,9,2,11.6c1.3,2.6,3.3,3.9,5.9,3.9c2.6,0,4.6-1.3,5.9-3.9
				c1.3-2.6,2-6.4,2-11.6c0-5.2-0.7-9-2-11.6C409.6,308.3,407.6,307,405,307z"/>
		</g>
		<path class="st1" d="M405.1,307.5c-2.5,0-4.5,1.3-5.9,3.9c-1.3,2.5-2,6.4-2,11.6s0.7,9,2,11.6c1.3,2.5,3.3,3.9,5.9,3.9
			c2.7,0,4.7-1.3,6-3.9c1.3-2.7,2-6.5,2-11.6c0-5.2-0.7-9-2-11.6C409.8,308.7,407.9,307.5,405.1,307.5z M405.1,303.4
			c4.3,0,7.4,1.7,9.7,5.1c2.3,3.3,3.3,8.1,3.3,14.4c0,6.3-1.2,11.2-3.3,14.5c-2.1,3.3-5.5,5.1-9.7,5.1c-4.1,0-7.4-1.7-9.7-5.1
			c-2.1-3.3-3.3-8.1-3.3-14.5c0-6.4,1.1-11,3.3-14.4C397.8,305.1,401,303.4,405.1,303.4z"/>
		<g class="st0">
			<path d="M428.2,337h8.3v-28.7l-9,1.8v-4.6l9-1.8h5.1V337h8.3v4.3h-21.7V337z"/>
		</g>
		<path class="st1" d="M427.7,336.9h8.2v-28.6l-8.9,1.9v-4.7l8.9-1.7h5.1v33.2h8.4v4.3h-21.7V336.9z"/>
		<g class="st0">
			<path d="M470.9,303c4.2,0,7.4,1.7,9.7,5c2.2,3.3,3.3,8.2,3.3,14.5c0,6.3-1.1,11.2-3.3,14.5c-2.2,3.3-5.4,5-9.7,5
				c-4.2,0-7.4-1.7-9.7-5c-2.2-3.3-3.3-8.2-3.3-14.5c0-6.3,1.1-11.2,3.3-14.5C463.5,304.7,466.7,303,470.9,303z M470.9,307
				c-2.6,0-4.6,1.3-5.9,3.9c-1.3,2.6-2,6.4-2,11.6c0,5.2,0.7,9,2,11.6c1.3,2.6,3.3,3.9,5.9,3.9c2.6,0,4.6-1.3,5.9-3.9
				c1.3-2.6,2-6.4,2-11.6c0-5.2-0.7-9-2-11.6C475.5,308.3,473.5,307,470.9,307z"/>
		</g>
		<path class="st1" d="M470.6,307.5c-2.5,0-4.5,1.3-5.9,3.9c-1.3,2.5-2,6.4-2,11.6s0.7,9,2,11.6c1.3,2.5,3.3,3.9,5.9,3.9
			c2.7,0,4.7-1.3,6-3.9c1.3-2.7,2-6.5,2-11.6c0-5.2-0.7-9-2-11.6C475.2,308.7,473.2,307.5,470.6,307.5z M470.6,303.4
			c4.3,0,7.4,1.7,9.7,5.1c2.3,3.3,3.3,8.1,3.3,14.4c0,6.3-1.2,11.2-3.3,14.5c-2.1,3.3-5.5,5.1-9.7,5.1c-4.3,0-7.4-1.7-9.7-5.1
			c-2.1-3.3-3.3-8.1-3.3-14.5c0-6.4,1.1-11,3.3-14.4C463.1,305.1,466.4,303.4,470.6,303.4z"/>
		<g class="st0">
			<path d="M503.6,303c4.2,0,7.4,1.7,9.7,5c2.2,3.3,3.3,8.2,3.3,14.5c0,6.3-1.1,11.2-3.3,14.5c-2.2,3.3-5.4,5-9.7,5
				c-4.2,0-7.4-1.7-9.7-5c-2.2-3.3-3.3-8.2-3.3-14.5c0-6.3,1.1-11.2,3.3-14.5C496.1,304.7,499.4,303,503.6,303z M503.6,307
				c-2.6,0-4.6,1.3-5.9,3.9c-1.3,2.6-2,6.4-2,11.6c0,5.2,0.7,9,2,11.6c1.3,2.6,3.3,3.9,5.9,3.9c2.6,0,4.6-1.3,5.9-3.9
				c1.3-2.6,2-6.4,2-11.6c0-5.2-0.7-9-2-11.6C508.2,308.3,506.2,307,503.6,307z"/>
		</g>
		<path class="st1" d="M503.3,307.5c-2.5,0-4.5,1.3-5.9,3.9c-1.3,2.5-2,6.4-2,11.6s0.7,9,2,11.6c1.3,2.5,3.3,3.9,5.9,3.9
			c2.7,0,4.7-1.3,6-3.9c1.3-2.7,2-6.5,2-11.6c0-5.2-0.7-9-2-11.6C507.9,308.7,505.9,307.5,503.3,307.5z M503.3,303.4
			c4.3,0,7.4,1.7,9.7,5.1c2.3,3.3,3.3,8.1,3.3,14.4c0,6.3-1.2,11.2-3.3,14.5c-2.1,3.3-5.5,5.1-9.7,5.1c-4.3,0-7.4-1.7-9.7-5.1
			c-2.1-3.3-3.3-8.1-3.3-14.5c0-6.4,1.1-11,3.3-14.4C495.8,305.1,499,303.4,503.3,303.4z"/>
		<g class="st0">
			<path d="M1.3,397h8.3v-28.7l-9,1.8v-4.6l9-1.8h5.1V397H23v4.3H1.3V397z"/>
		</g>
		<path class="st1" d="M1.3,397h8.2v-28.6l-8.9,1.9v-4.7l8.9-1.7h5.1v33.2H23v4.3H1.3V397z"/>
		<g class="st0">
			<path d="M44.1,363c4.2,0,7.4,1.7,9.7,5c2.2,3.3,3.3,8.2,3.3,14.5c0,6.3-1.1,11.2-3.3,14.5c-2.2,3.3-5.4,5-9.7,5s-7.4-1.7-9.7-5
				c-2.2-3.3-3.3-8.2-3.3-14.5c0-6.3,1.1-11.2,3.3-14.5C36.7,364.7,39.9,363,44.1,363z M44.1,367c-2.6,0-4.6,1.3-5.9,3.9
				c-1.3,2.6-2,6.4-2,11.6c0,5.2,0.7,9,2,11.6c1.3,2.6,3.3,3.9,5.9,3.9c2.6,0,4.6-1.3,5.9-3.9c1.3-2.6,2-6.4,2-11.6
				c0-5.2-0.7-9-2-11.6C48.8,368.3,46.8,367,44.1,367z"/>
		</g>
		<path class="st1" d="M44,367c-2.5,0-4.5,1.3-5.9,3.9c-1.3,2.5-2,6.4-2,11.6c0,5.2,0.7,9,2,11.6c1.3,2.5,3.3,3.9,5.9,3.9
			c2.7,0,4.7-1.3,6-3.9c1.3-2.7,2-6.5,2-11.6c0-5.2-0.7-9-2-11.6C48.7,368.3,46.8,367,44,367z M44,363c4.3,0,7.4,1.7,9.7,5.1
			c2.3,3.3,3.3,8.1,3.3,14.4s-1.2,11.2-3.3,14.5c-2.1,3.3-5.5,5.1-9.7,5.1s-7.4-1.7-9.7-5.1c-2.1-3.3-3.3-8.1-3.3-14.5
			c0-6.4,1.1-11,3.3-14.4C36.7,364.6,39.9,363,44,363z"/>
		<g class="st0">
			<path d="M67,397h8.3v-28.7l-9,1.8v-4.6l9-1.8h5.1V397h8.3v4.3H67V397z"/>
		</g>
		<path class="st1" d="M67,397h8.2v-28.6l-8.9,1.9v-4.7l8.9-1.7h5.1v33.2h8.4v4.3H66.9L67,397z"/>
		<g class="st0">
			<path d="M99.6,397h8.3v-28.7l-9,1.8v-4.6l9-1.8h5.1V397h8.3v4.3H99.6V397z"/>
		</g>
		<path class="st1" d="M99.6,397h8.2v-28.6l-8.9,1.9v-4.7l8.9-1.7h5.1v33.2h8.4v4.3H99.6V397z"/>
		<g class="st0">
			<path d="M132.3,397h8.3v-28.7l-9,1.8v-4.6l9-1.8h5.1V397h8.3v4.3h-21.7V397z"/>
		</g>
		<path class="st1" d="M132.3,397h8.2v-28.6l-8.9,1.9v-4.7l8.9-1.7h5.1v33.2h8.4v4.3h-21.7V397z"/>
		<g class="st0">
			<path d="M165.6,397h8.3v-28.7l-9,1.8v-4.6l9-1.8h5.1V397h8.3v4.3h-21.7V397z"/>
		</g>
		<path class="st1" d="M165.6,397h8.2v-28.6l-8.9,1.9v-4.7l8.9-1.7h5.1v33.2h8.4v4.3h-21.7L165.6,397z"/>
		<g class="st0">
			<path d="M208.3,363c4.2,0,7.4,1.7,9.7,5c2.2,3.3,3.3,8.2,3.3,14.5c0,6.3-1.1,11.2-3.3,14.5c-2.2,3.3-5.4,5-9.7,5
				c-4.2,0-7.4-1.7-9.7-5c-2.2-3.3-3.3-8.2-3.3-14.5c0-6.3,1.1-11.2,3.3-14.5C200.8,364.7,204,363,208.3,363z M208.3,367
				c-2.6,0-4.6,1.3-5.9,3.9c-1.3,2.6-2,6.4-2,11.6c0,5.2,0.7,9,2,11.6c1.3,2.6,3.3,3.9,5.9,3.9c2.6,0,4.6-1.3,5.9-3.9
				c1.3-2.6,2-6.4,2-11.6c0-5.2-0.7-9-2-11.6C212.9,368.3,210.9,367,208.3,367z"/>
		</g>
		<path class="st1" d="M207.9,367c-2.5,0-4.5,1.3-5.9,3.9c-1.3,2.5-2,6.4-2,11.6c0,5.2,0.7,9,2,11.6c1.3,2.5,3.3,3.9,5.9,3.9
			c2.7,0,4.7-1.3,6-3.9c1.3-2.7,2-6.5,2-11.6c0-5.2-0.7-9-2-11.6C212.5,368.3,210.7,367,207.9,367z M207.9,363
			c4.3,0,7.4,1.7,9.7,5.1c2.3,3.3,3.3,8.1,3.3,14.4s-1.2,11.2-3.3,14.5c-2.1,3.3-5.5,5.1-9.7,5.1c-4.1,0-7.4-1.7-9.7-5.1
			c-2.1-3.3-3.3-8.1-3.3-14.5c0-6.4,1.1-11,3.3-14.4C200.6,364.6,203.8,363,207.9,363z"/>
		<g class="st0">
			<path d="M231,397h8.3v-28.7l-9,1.8v-4.6l9-1.8h5.1V397h8.3v4.3H231V397z"/>
		</g>
		<path class="st1" d="M231,397h8.2v-28.6l-8.9,1.9v-4.7l8.9-1.7h5.1v33.2h8.4v4.3H231V397z"/>
		<g class="st0">
			<path d="M263.7,397h8.3v-28.7l-9,1.8v-4.6l9-1.8h5.1V397h8.3v4.3h-21.7V397z"/>
		</g>
		<path class="st1" d="M263.8,397h8.2v-28.6l-8.9,1.9v-4.7l8.9-1.7h5.1v33.2h8.4v4.3h-21.7V397z"/>
		<g class="st0">
			<path d="M296.9,397h8.3v-28.7l-9,1.8v-4.6l9-1.8h5.1V397h8.3v4.3h-21.7V397z"/>
		</g>
		<path class="st1" d="M296.3,397h8.2v-28.6l-8.9,1.9v-4.7l8.9-1.7h5.1v33.2h8.4v4.3h-21.7V397z"/>
		<g class="st0">
			<path d="M339.6,363c4.2,0,7.4,1.7,9.7,5c2.2,3.3,3.3,8.2,3.3,14.5c0,6.3-1.1,11.2-3.3,14.5c-2.2,3.3-5.4,5-9.7,5
				c-4.2,0-7.4-1.7-9.7-5c-2.2-3.3-3.3-8.2-3.3-14.5c0-6.3,1.1-11.2,3.3-14.5C332.1,364.7,335.4,363,339.6,363z M339.6,367
				c-2.6,0-4.6,1.3-5.9,3.9c-1.3,2.6-2,6.4-2,11.6c0,5.2,0.7,9,2,11.6c1.3,2.6,3.3,3.9,5.9,3.9c2.6,0,4.6-1.3,5.9-3.9
				c1.3-2.6,2-6.4,2-11.6c0-5.2-0.7-9-2-11.6C344.2,368.3,342.2,367,339.6,367z"/>
		</g>
		<path class="st1" d="M339.3,367c-2.5,0-4.5,1.3-5.9,3.9c-1.3,2.5-2,6.4-2,11.6c0,5.2,0.7,9,2,11.6c1.3,2.5,3.3,3.9,5.9,3.9
			c2.7,0,4.7-1.3,6-3.9c1.3-2.7,2-6.5,2-11.6c0-5.2-0.7-9-2-11.6C344,368.3,342,367,339.3,367z M339.3,363c4.3,0,7.4,1.7,9.7,5.1
			c2.3,3.3,3.3,8.1,3.3,14.4s-1.2,11.2-3.3,14.5c-2.1,3.3-5.5,5.1-9.7,5.1c-4.1,0-7.4-1.7-9.7-5.1c-2.1-3.3-3.3-8.1-3.3-14.5
			c0-6.4,1.1-11,3.3-14.4C331.8,364.6,335,363,339.3,363z"/>
		<g class="st0">
			<path d="M362.3,397h8.3v-28.7l-9,1.8v-4.6l9-1.8h5.1V397h8.3v4.3h-21.7V397z"/>
		</g>
		<path class="st1" d="M362.3,397h8.2v-28.6l-8.9,1.9v-4.7l8.9-1.7h5.1v33.2h8.4v4.3h-21.7V397z"/>
		<g class="st0">
			<path d="M405,363c4.2,0,7.4,1.7,9.7,5c2.2,3.3,3.3,8.2,3.3,14.5c0,6.3-1.1,11.2-3.3,14.5c-2.2,3.3-5.4,5-9.7,5
				c-4.2,0-7.4-1.7-9.7-5c-2.2-3.3-3.3-8.2-3.3-14.5c0-6.3,1.1-11.2,3.3-14.5C397.5,364.7,400.7,363,405,363z M405,367
				c-2.6,0-4.6,1.3-5.9,3.9c-1.3,2.6-2,6.4-2,11.6c0,5.2,0.7,9,2,11.6c1.3,2.6,3.3,3.9,5.9,3.9c2.6,0,4.6-1.3,5.9-3.9
				c1.3-2.6,2-6.4,2-11.6c0-5.2-0.7-9-2-11.6C409.6,368.3,407.6,367,405,367z"/>
		</g>
		<path class="st1" d="M405.1,367c-2.5,0-4.5,1.3-5.9,3.9c-1.3,2.5-2,6.4-2,11.6c0,5.2,0.7,9,2,11.6c1.3,2.5,3.3,3.9,5.9,3.9
			c2.7,0,4.7-1.3,6-3.9c1.3-2.7,2-6.5,2-11.6c0-5.2-0.7-9-2-11.6C409.8,368.3,407.9,367,405.1,367z M405.1,363
			c4.3,0,7.4,1.7,9.7,5.1c2.3,3.3,3.3,8.1,3.3,14.4s-1.2,11.2-3.3,14.5c-2.1,3.3-5.5,5.1-9.7,5.1c-4.1,0-7.4-1.7-9.7-5.1
			c-2.1-3.3-3.3-8.1-3.3-14.5c0-6.4,1.1-11,3.3-14.4C397.8,364.6,401,363,405.1,363z"/>
		<g class="st0">
			<path d="M428.2,397h8.3v-28.7l-9,1.8v-4.6l9-1.8h5.1V397h8.3v4.3h-21.7V397z"/>
		</g>
		<path class="st1" d="M427.7,397h8.2v-28.6l-8.9,1.9v-4.7l8.9-1.7h5.1v33.2h8.4v4.3h-21.7V397z"/>
		<g class="st0">
			<path d="M470.9,363c4.2,0,7.4,1.7,9.7,5c2.2,3.3,3.3,8.2,3.3,14.5c0,6.3-1.1,11.2-3.3,14.5c-2.2,3.3-5.4,5-9.7,5
				c-4.2,0-7.4-1.7-9.7-5c-2.2-3.3-3.3-8.2-3.3-14.5c0-6.3,1.1-11.2,3.3-14.5C463.5,364.7,466.7,363,470.9,363z M470.9,367
				c-2.6,0-4.6,1.3-5.9,3.9c-1.3,2.6-2,6.4-2,11.6c0,5.2,0.7,9,2,11.6c1.3,2.6,3.3,3.9,5.9,3.9c2.6,0,4.6-1.3,5.9-3.9
				c1.3-2.6,2-6.4,2-11.6c0-5.2-0.7-9-2-11.6C475.5,368.3,473.5,367,470.9,367z"/>
		</g>
		<path class="st1" d="M470.6,367c-2.5,0-4.5,1.3-5.9,3.9c-1.3,2.5-2,6.4-2,11.6c0,5.2,0.7,9,2,11.6c1.3,2.5,3.3,3.9,5.9,3.9
			c2.7,0,4.7-1.3,6-3.9c1.3-2.7,2-6.5,2-11.6c0-5.2-0.7-9-2-11.6C475.2,368.3,473.2,367,470.6,367z M470.6,363
			c4.3,0,7.4,1.7,9.7,5.1c2.3,3.3,3.3,8.1,3.3,14.4s-1.2,11.2-3.3,14.5c-2.1,3.3-5.5,5.1-9.7,5.1c-4.3,0-7.4-1.7-9.7-5.1
			c-2.1-3.3-3.3-8.1-3.3-14.5c0-6.4,1.1-11,3.3-14.4C463.1,364.6,466.4,363,470.6,363z"/>
		<g class="st0">
			<path d="M493.6,397h8.3v-28.7l-9,1.8v-4.6l9-1.8h5.1V397h8.3v4.3h-21.7V397z"/>
		</g>
		<path class="st1" d="M493.6,397h8.2v-28.6l-8.9,1.9v-4.7l8.9-1.7h5.1v33.2h8.4v4.3h-21.7V397z"/>
		<g class="st0">
			<path d="M11.3,422.5c4.2,0,7.4,1.7,9.7,5c2.2,3.3,3.3,8.2,3.3,14.5c0,6.3-1.1,11.2-3.3,14.5s-5.4,5-9.7,5s-7.4-1.7-9.7-5
				s-3.3-8.2-3.3-14.5c0-6.3,1.1-11.2,3.3-14.5C3.9,424.2,7.1,422.5,11.3,422.5z M11.3,426.5c-2.6,0-4.6,1.3-5.9,3.9s-2,6.4-2,11.6
				c0,5.2,0.7,9,2,11.6s3.3,3.9,5.9,3.9c2.6,0,4.6-1.3,5.9-3.9c1.3-2.6,2-6.4,2-11.6c0-5.2-0.7-9-2-11.6
				C16,427.8,14,426.5,11.3,426.5z"/>
		</g>
		<path class="st1" d="M11.3,427c-2.5,0-4.5,1.3-5.9,3.9c-1.3,2.5-2,6.4-2,11.6c0,5.2,0.7,9,2,11.6c1.3,2.5,3.3,3.9,5.9,3.9
			c2.7,0,4.7-1.3,6-3.9c1.3-2.7,2-6.5,2-11.6c0-5.2-0.7-9-2-11.6C16,428.3,14,427,11.3,427z M11.3,423c4.3,0,7.4,1.7,9.7,5.1
			c2.3,3.3,3.3,8.1,3.3,14.4s-1.1,11.2-3.3,14.5c-2.1,3.3-5.5,5.1-9.7,5.1s-7.4-1.7-9.7-5.1c-2.1-3.3-3.3-8.1-3.3-14.5
			c0-6.4,1.1-11,3.3-14.4C3.9,424.7,7.1,423,11.3,423z"/>
		<g class="st0">
			<path d="M34.1,456.5h8.3v-28.7l-9,1.8V425l9-1.8h5.1v33.3h8.3v4.3H34.1V456.5z"/>
		</g>
		<path class="st1" d="M34.2,456.5h8.2v-28.6l-8.9,1.9v-4.7l8.9-1.7h5.1v33.2h8.4v4.3H34.1L34.2,456.5z"/>
		<g class="st0">
			<path d="M76.9,422.5c4.2,0,7.4,1.7,9.7,5c2.2,3.3,3.3,8.2,3.3,14.5c0,6.3-1.1,11.2-3.3,14.5s-5.4,5-9.7,5s-7.4-1.7-9.7-5
				S64,448.4,64,442c0-6.3,1.1-11.2,3.3-14.5C69.5,424.2,72.7,422.5,76.9,422.5z M76.9,426.5c-2.6,0-4.6,1.3-5.9,3.9s-2,6.4-2,11.6
				c0,5.2,0.7,9,2,11.6s3.3,3.9,5.9,3.9c2.6,0,4.6-1.3,5.9-3.9c1.3-2.6,2-6.4,2-11.6c0-5.2-0.7-9-2-11.6
				C81.6,427.8,79.6,426.5,76.9,426.5z"/>
		</g>
		<path class="st1" d="M76.6,427c-2.5,0-4.5,1.3-5.9,3.9c-1.3,2.5-2,6.4-2,11.6c0,5.2,0.7,9,2,11.6c1.3,2.5,3.3,3.9,5.9,3.9
			c2.7,0,4.7-1.3,6-3.9c1.3-2.7,2-6.5,2-11.6c0-5.2-0.7-9-2-11.6C81.3,428.3,79.3,427,76.6,427z M76.6,423c4.3,0,7.4,1.7,9.7,5.1
			c2.3,3.3,3.3,8.1,3.3,14.4s-1.2,11.2-3.3,14.5c-2.1,3.3-5.5,5.1-9.7,5.1c-4.1,0-7.4-1.7-9.7-5.1c-2.1-3.3-3.3-8.1-3.3-14.5
			c0-6.4,1.1-11,3.3-14.4C69.2,424.7,72.5,423,76.6,423z"/>
		<g class="st0">
			<path d="M99.6,456.5h8.3v-28.7l-9,1.8V425l9-1.8h5.1v33.3h8.3v4.3H99.6V456.5z"/>
		</g>
		<path class="st1" d="M99.6,456.5h8.2v-28.6l-8.9,1.9v-4.7l8.9-1.7h5.1v33.2h8.4v4.3H99.6V456.5z"/>
		<g class="st0">
			<path d="M142.3,422.5c4.2,0,7.4,1.7,9.7,5c2.2,3.3,3.3,8.2,3.3,14.5c0,6.3-1.1,11.2-3.3,14.5s-5.4,5-9.7,5c-4.2,0-7.4-1.7-9.7-5
				c-2.2-3.3-3.3-8.2-3.3-14.5c0-6.3,1.1-11.2,3.3-14.5C134.9,424.2,138.1,422.5,142.3,422.5z M142.3,426.5c-2.6,0-4.6,1.3-5.9,3.9
				s-2,6.4-2,11.6c0,5.2,0.7,9,2,11.6s3.3,3.9,5.9,3.9c2.6,0,4.6-1.3,5.9-3.9c1.3-2.6,2-6.4,2-11.6c0-5.2-0.7-9-2-11.6
				C146.9,427.8,145,426.5,142.3,426.5z"/>
		</g>
		<path class="st1" d="M142.6,427c-2.5,0-4.5,1.3-5.9,3.9c-1.3,2.5-2,6.4-2,11.6c0,5.2,0.7,9,2,11.6c1.3,2.5,3.3,3.9,5.9,3.9
			c2.7,0,4.7-1.3,6-3.9c1.3-2.7,2-6.5,2-11.6c0-5.2-0.7-9-2-11.6C147.2,428.3,145.2,427,142.6,427z M142.6,423
			c4.3,0,7.4,1.7,9.7,5.1c2.3,3.3,3.3,8.1,3.3,14.4s-1.2,11.2-3.3,14.5c-2.1,3.3-5.5,5.1-9.7,5.1c-4.1,0-7.4-1.7-9.7-5.1
			c-2.1-3.3-3.3-8.1-3.3-14.5c0-6.4,1.1-11,3.3-14.4C135.1,424.7,138.3,423,142.6,423z"/>
		<g class="st0">
			<path d="M165.6,456.5h8.3v-28.7l-9,1.8V425l9-1.8h5.1v33.3h8.3v4.3h-21.7V456.5z"/>
		</g>
		<path class="st1" d="M165.6,456.5h8.2v-28.6l-8.9,1.9v-4.7l8.9-1.7h5.1v33.2h8.4v4.3h-21.7L165.6,456.5z"/>
		<g class="st0">
			<path d="M208.3,422.5c4.2,0,7.4,1.7,9.7,5c2.2,3.3,3.3,8.2,3.3,14.5c0,6.3-1.1,11.2-3.3,14.5s-5.4,5-9.7,5c-4.2,0-7.4-1.7-9.7-5
				s-3.3-8.2-3.3-14.5c0-6.3,1.1-11.2,3.3-14.5C200.8,424.2,204,422.5,208.3,422.5z M208.3,426.5c-2.6,0-4.6,1.3-5.9,3.9
				c-1.3,2.6-2,6.4-2,11.6c0,5.2,0.7,9,2,11.6c1.3,2.6,3.3,3.9,5.9,3.9c2.6,0,4.6-1.3,5.9-3.9c1.3-2.6,2-6.4,2-11.6
				c0-5.2-0.7-9-2-11.6C212.9,427.8,210.9,426.5,208.3,426.5z"/>
		</g>
		<path class="st1" d="M207.9,427c-2.5,0-4.5,1.3-5.9,3.9c-1.3,2.5-2,6.4-2,11.6c0,5.2,0.7,9,2,11.6c1.3,2.5,3.3,3.9,5.9,3.9
			c2.7,0,4.7-1.3,6-3.9c1.3-2.7,2-6.5,2-11.6c0-5.2-0.7-9-2-11.6C212.5,428.3,210.7,427,207.9,427z M207.9,423
			c4.3,0,7.4,1.7,9.7,5.1c2.3,3.3,3.3,8.1,3.3,14.4s-1.2,11.2-3.3,14.5c-2.1,3.3-5.5,5.1-9.7,5.1c-4.1,0-7.4-1.7-9.7-5.1
			c-2.1-3.3-3.3-8.1-3.3-14.5c0-6.4,1.1-11,3.3-14.4C200.6,424.7,203.8,423,207.9,423z"/>
		<g class="st0">
			<path d="M231,456.5h8.3v-28.7l-9,1.8V425l9-1.8h5.1v33.3h8.3v4.3H231V456.5z"/>
		</g>
		<path class="st1" d="M231,456.5h8.2v-28.6l-8.9,1.9v-4.7l8.9-1.7h5.1v33.2h8.4v4.3H231V456.5z"/>
		<g class="st0">
			<path d="M273.6,422.5c4.2,0,7.4,1.7,9.7,5c2.2,3.3,3.3,8.2,3.3,14.5c0,6.3-1.1,11.2-3.3,14.5c-2.2,3.3-5.4,5-9.7,5
				c-4.2,0-7.4-1.7-9.7-5c-2.2-3.3-3.3-8.2-3.3-14.5c0-6.3,1.1-11.2,3.3-14.5C266.2,424.2,269.4,422.5,273.6,422.5z M273.6,426.5
				c-2.6,0-4.6,1.3-5.9,3.9c-1.3,2.6-2,6.4-2,11.6c0,5.2,0.7,9,2,11.6c1.3,2.6,3.3,3.9,5.9,3.9c2.6,0,4.6-1.3,5.9-3.9
				c1.3-2.6,2-6.4,2-11.6c0-5.2-0.7-9-2-11.6C278.3,427.8,276.3,426.5,273.6,426.5z"/>
		</g>
		<path class="st1" d="M273.9,427c-2.5,0-4.5,1.3-5.9,3.9c-1.3,2.5-2,6.4-2,11.6c0,5.2,0.7,9,2,11.6c1.3,2.5,3.3,3.9,5.9,3.9
			c2.7,0,4.7-1.3,6-3.9c1.3-2.7,2-6.5,2-11.6c0-5.2-0.7-9-2-11.6C278.5,428.3,276.5,427,273.9,427z M273.9,423
			c4.3,0,7.4,1.7,9.7,5.1c2.3,3.3,3.3,8.1,3.3,14.4s-1.2,11.2-3.3,14.5c-2.1,3.3-5.5,5.1-9.7,5.1c-4.1,0-7.4-1.7-9.7-5.1
			c-2.1-3.3-3.3-8.1-3.3-14.5c0-6.4,1.1-11,3.3-14.4C266.4,424.7,269.7,423,273.9,423z"/>
		<g class="st0">
			<path d="M306.9,422.5c4.2,0,7.4,1.7,9.7,5c2.2,3.3,3.3,8.2,3.3,14.5c0,6.3-1.1,11.2-3.3,14.5c-2.2,3.3-5.4,5-9.7,5
				c-4.2,0-7.4-1.7-9.7-5c-2.2-3.3-3.3-8.2-3.3-14.5c0-6.3,1.1-11.2,3.3-14.5C299.4,424.2,302.7,422.5,306.9,422.5z M306.9,426.5
				c-2.6,0-4.6,1.3-5.9,3.9c-1.3,2.6-2,6.4-2,11.6c0,5.2,0.7,9,2,11.6c1.3,2.6,3.3,3.9,5.9,3.9c2.6,0,4.6-1.3,5.9-3.9
				c1.3-2.6,2-6.4,2-11.6c0-5.2-0.7-9-2-11.6C311.5,427.8,309.5,426.5,306.9,426.5z"/>
		</g>
		<path class="st1" d="M306.6,427c-2.5,0-4.5,1.3-5.9,3.9c-1.3,2.5-2,6.4-2,11.6c0,5.2,0.7,9,2,11.6c1.3,2.5,3.3,3.9,5.9,3.9
			c2.7,0,4.7-1.3,6-3.9c1.3-2.7,2-6.5,2-11.6c0-5.2-0.7-9-2-11.6C311.2,428.3,309.2,427,306.6,427z M306.6,423
			c4.3,0,7.4,1.7,9.7,5.1c2.3,3.3,3.3,8.1,3.3,14.4s-1.2,11.2-3.3,14.5c-2.1,3.3-5.5,5.1-9.7,5.1c-4.1,0-7.4-1.7-9.7-5.1
			c-2.1-3.3-3.3-8.1-3.3-14.5c0-6.4,1.1-11,3.3-14.4C299.1,424.7,302.3,423,306.6,423z"/>
		<g class="st0">
			<path d="M339.6,422.5c4.2,0,7.4,1.7,9.7,5c2.2,3.3,3.3,8.2,3.3,14.5c0,6.3-1.1,11.2-3.3,14.5c-2.2,3.3-5.4,5-9.7,5
				c-4.2,0-7.4-1.7-9.7-5c-2.2-3.3-3.3-8.2-3.3-14.5c0-6.3,1.1-11.2,3.3-14.5C332.1,424.2,335.4,422.5,339.6,422.5z M339.6,426.5
				c-2.6,0-4.6,1.3-5.9,3.9c-1.3,2.6-2,6.4-2,11.6c0,5.2,0.7,9,2,11.6c1.3,2.6,3.3,3.9,5.9,3.9c2.6,0,4.6-1.3,5.9-3.9s2-6.4,2-11.6
				c0-5.2-0.7-9-2-11.6S342.2,426.5,339.6,426.5z"/>
		</g>
		<path class="st1" d="M339.3,427c-2.5,0-4.5,1.3-5.9,3.9c-1.3,2.5-2,6.4-2,11.6c0,5.2,0.7,9,2,11.6c1.3,2.5,3.3,3.9,5.9,3.9
			c2.7,0,4.7-1.3,6-3.9c1.3-2.7,2-6.5,2-11.6c0-5.2-0.7-9-2-11.6C344,428.3,342,427,339.3,427z M339.3,423c4.3,0,7.4,1.7,9.7,5.1
			c2.3,3.3,3.3,8.1,3.3,14.4s-1.2,11.2-3.3,14.5c-2.1,3.3-5.5,5.1-9.7,5.1c-4.1,0-7.4-1.7-9.7-5.1c-2.1-3.3-3.3-8.1-3.3-14.5
			c0-6.4,1.1-11,3.3-14.4C331.8,424.7,335,423,339.3,423z"/>
		<g class="st0">
			<path d="M362.3,456.5h8.3v-28.7l-9,1.8V425l9-1.8h5.1v33.3h8.3v4.3h-21.7V456.5z"/>
		</g>
		<path class="st1" d="M362.3,456.5h8.2v-28.6l-8.9,1.9v-4.7l8.9-1.7h5.1v33.2h8.4v4.3h-21.7V456.5z"/>
		<g class="st0">
			<path d="M395,456.5h8.3v-28.7l-9,1.8V425l9-1.8h5.1v33.3h8.3v4.3H395V456.5z"/>
		</g>
		<path class="st1" d="M395,456.5h8.2v-28.6l-8.9,1.9v-4.7l8.9-1.7h5.1v33.2h8.4v4.3H395V456.5z"/>
		<g class="st0">
			<path d="M438.2,422.5c4.2,0,7.4,1.7,9.7,5c2.2,3.3,3.3,8.2,3.3,14.5c0,6.3-1.1,11.2-3.3,14.5c-2.2,3.3-5.4,5-9.7,5
				c-4.2,0-7.4-1.7-9.7-5c-2.2-3.3-3.3-8.2-3.3-14.5c0-6.3,1.1-11.2,3.3-14.5C430.8,424.2,434,422.5,438.2,422.5z M438.2,426.5
				c-2.6,0-4.6,1.3-5.9,3.9s-2,6.4-2,11.6c0,5.2,0.7,9,2,11.6s3.3,3.9,5.9,3.9c2.6,0,4.6-1.3,5.9-3.9s2-6.4,2-11.6
				c0-5.2-0.7-9-2-11.6S440.8,426.5,438.2,426.5z"/>
		</g>
		<path class="st1" d="M437.8,427c-2.5,0-4.5,1.3-5.9,3.9c-1.3,2.5-2,6.4-2,11.6c0,5.2,0.7,9,2,11.6c1.3,2.5,3.3,3.9,5.9,3.9
			c2.7,0,4.7-1.3,6-3.9c1.3-2.7,2-6.5,2-11.6c0-5.2-0.7-9-2-11.6C442.5,428.3,440.5,427,437.8,427z M437.8,423
			c4.3,0,7.4,1.7,9.7,5.1c2.3,3.3,3.3,8.1,3.3,14.4s-1.2,11.2-3.3,14.5c-2.1,3.3-5.5,5.1-9.7,5.1c-4.3,0-7.4-1.7-9.7-5.1
			c-2.1-3.3-3.3-8.1-3.3-14.5c0-6.4,1.1-11,3.3-14.4C430.4,424.7,433.7,423,437.8,423z"/>
		<g class="st0">
			<path d="M460.9,456.5h8.3v-28.7l-9,1.8V425l9-1.8h5.1v33.3h8.3v4.3h-21.7V456.5z"/>
		</g>
		<path class="st1" d="M461,456.5h8.2v-28.6l-8.9,1.9v-4.7l8.9-1.7h5.1v33.2h8.4v4.3H461V456.5z"/>
		<g class="st0">
			<path d="M503.6,422.5c4.2,0,7.4,1.7,9.7,5c2.2,3.3,3.3,8.2,3.3,14.5c0,6.3-1.1,11.2-3.3,14.5c-2.2,3.3-5.4,5-9.7,5
				c-4.2,0-7.4-1.7-9.7-5c-2.2-3.3-3.3-8.2-3.3-14.5c0-6.3,1.1-11.2,3.3-14.5C496.1,424.2,499.4,422.5,503.6,422.5z M503.6,426.5
				c-2.6,0-4.6,1.3-5.9,3.9c-1.3,2.6-2,6.4-2,11.6c0,5.2,0.7,9,2,11.6c1.3,2.6,3.3,3.9,5.9,3.9c2.6,0,4.6-1.3,5.9-3.9s2-6.4,2-11.6
				c0-5.2-0.7-9-2-11.6S506.2,426.5,503.6,426.5z"/>
		</g>
		<path class="st1" d="M503.3,427c-2.5,0-4.5,1.3-5.9,3.9c-1.3,2.5-2,6.4-2,11.6c0,5.2,0.7,9,2,11.6c1.3,2.5,3.3,3.9,5.9,3.9
			c2.7,0,4.7-1.3,6-3.9c1.3-2.7,2-6.5,2-11.6c0-5.2-0.7-9-2-11.6C507.9,428.3,505.9,427,503.3,427z M503.3,423
			c4.3,0,7.4,1.7,9.7,5.1c2.3,3.3,3.3,8.1,3.3,14.4s-1.2,11.2-3.3,14.5c-2.1,3.3-5.5,5.1-9.7,5.1c-4.3,0-7.4-1.7-9.7-5.1
			c-2.1-3.3-3.3-8.1-3.3-14.5c0-6.4,1.1-11,3.3-14.4C495.8,424.7,499,423,503.3,423z"/>
		<g class="st0">
			<path d="M11.3,482.5c4.2,0,7.4,1.7,9.7,5c2.2,3.3,3.3,8.2,3.3,14.5c0,6.3-1.1,11.2-3.3,14.5s-5.4,5-9.7,5s-7.4-1.7-9.7-5
				s-3.3-8.2-3.3-14.5c0-6.3,1.1-11.2,3.3-14.5C3.9,484.2,7.1,482.5,11.3,482.5z M11.3,486.6c-2.6,0-4.6,1.3-5.9,3.9s-2,6.4-2,11.6
				c0,5.2,0.7,9,2,11.6c1.3,2.6,3.3,3.9,5.9,3.9c2.6,0,4.6-1.3,5.9-3.9c1.3-2.6,2-6.4,2-11.6c0-5.2-0.7-9-2-11.6
				C16,487.9,14,486.6,11.3,486.6z"/>
		</g>
		<path class="st1" d="M11.3,486.6c-2.5,0-4.5,1.3-5.9,3.9c-1.3,2.5-2,6.4-2,11.6c0,5.2,0.7,9,2,11.6c1.3,2.5,3.3,3.9,5.9,3.9
			c2.7,0,4.7-1.3,6-3.9c1.3-2.7,2-6.5,2-11.6c0-5.2-0.7-9-2-11.6C16,487.8,14,486.6,11.3,486.6z M11.3,482.4c4.3,0,7.4,1.7,9.7,5.1
			s3.3,8.1,3.3,14.4S23.3,513,21,516.3c-2.1,3.3-5.5,5.1-9.7,5.1s-7.4-1.7-9.7-5.1c-2.1-3.3-3.3-8.1-3.3-14.5c0-6.4,1.1-11,3.3-14.4
			S7.1,482.4,11.3,482.4z"/>
		<g class="st0">
			<path d="M34.1,516.5h8.3v-28.7l-9,1.8V485l9-1.8h5.1v33.3h8.3v4.3H34.1V516.5z"/>
		</g>
		<path class="st1" d="M34.2,516.5h8.2v-28.6l-8.9,1.9v-4.7l8.9-1.7h5.1v33.2h8.4v4.3H34.1L34.2,516.5z"/>
		<g class="st0">
			<path d="M67,516.5h8.3v-28.7l-9,1.8V485l9-1.8h5.1v33.3h8.3v4.3H67V516.5z"/>
		</g>
		<path class="st1" d="M67,516.5h8.2v-28.6l-8.9,1.9v-4.7l8.9-1.7h5.1v33.2h8.4v4.3H66.9L67,516.5z"/>
		<g class="st0">
			<path d="M99.6,516.5h8.3v-28.7l-9,1.8V485l9-1.8h5.1v33.3h8.3v4.3H99.6V516.5z"/>
		</g>
		<path class="st1" d="M99.6,516.5h8.2v-28.6l-8.9,1.9v-4.7l8.9-1.7h5.1v33.2h8.4v4.3H99.6V516.5z"/>
		<g class="st0">
			<path d="M142.3,482.5c4.2,0,7.4,1.7,9.7,5c2.2,3.3,3.3,8.2,3.3,14.5c0,6.3-1.1,11.2-3.3,14.5s-5.4,5-9.7,5c-4.2,0-7.4-1.7-9.7-5
				c-2.2-3.3-3.3-8.2-3.3-14.5c0-6.3,1.1-11.2,3.3-14.5C134.9,484.2,138.1,482.5,142.3,482.5z M142.3,486.6c-2.6,0-4.6,1.3-5.9,3.9
				s-2,6.4-2,11.6c0,5.2,0.7,9,2,11.6c1.3,2.6,3.3,3.9,5.9,3.9c2.6,0,4.6-1.3,5.9-3.9c1.3-2.6,2-6.4,2-11.6c0-5.2-0.7-9-2-11.6
				C146.9,487.9,145,486.6,142.3,486.6z"/>
		</g>
		<path class="st1" d="M142.6,486.6c-2.5,0-4.5,1.3-5.9,3.9c-1.3,2.5-2,6.4-2,11.6c0,5.2,0.7,9,2,11.6c1.3,2.5,3.3,3.9,5.9,3.9
			c2.7,0,4.7-1.3,6-3.9c1.3-2.7,2-6.5,2-11.6c0-5.2-0.7-9-2-11.6C147.2,487.8,145.2,486.6,142.6,486.6z M142.6,482.4
			c4.3,0,7.4,1.7,9.7,5.1s3.3,8.1,3.3,14.4s-1.2,11.2-3.3,14.5c-2.1,3.3-5.5,5.1-9.7,5.1c-4.1,0-7.4-1.7-9.7-5.1
			c-2.1-3.3-3.3-8.1-3.3-14.5c0-6.4,1.1-11,3.3-14.4C135.1,484.2,138.3,482.4,142.6,482.4z"/>
		<g class="st0">
			<path d="M175.6,482.5c4.2,0,7.4,1.7,9.7,5c2.2,3.3,3.3,8.2,3.3,14.5c0,6.3-1.1,11.2-3.3,14.5s-5.4,5-9.7,5s-7.4-1.7-9.7-5
				s-3.3-8.2-3.3-14.5c0-6.3,1.1-11.2,3.3-14.5C168.1,484.2,171.3,482.5,175.6,482.5z M175.6,486.6c-2.6,0-4.6,1.3-5.9,3.9
				s-2,6.4-2,11.6c0,5.2,0.7,9,2,11.6c1.3,2.6,3.3,3.9,5.9,3.9c2.6,0,4.6-1.3,5.9-3.9c1.3-2.6,2-6.4,2-11.6c0-5.2-0.7-9-2-11.6
				C180.2,487.9,178.2,486.6,175.6,486.6z"/>
		</g>
		<path class="st1" d="M175.3,486.6c-2.5,0-4.5,1.3-5.9,3.9c-1.3,2.5-2,6.4-2,11.6c0,5.2,0.7,9,2,11.6c1.3,2.5,3.3,3.9,5.9,3.9
			c2.7,0,4.7-1.3,6-3.9c1.3-2.7,2-6.5,2-11.6c0-5.2-0.7-9-2-11.6C180,487.8,178,486.6,175.3,486.6z M175.3,482.4
			c4.3,0,7.4,1.7,9.7,5.1c2.3,3.3,3.3,8.1,3.3,14.4s-1.2,11.2-3.3,14.5s-5.5,5.1-9.7,5.1c-4.1,0-7.4-1.7-9.7-5.1
			c-2.1-3.3-3.3-8.1-3.3-14.5c0-6.4,1.1-11,3.3-14.4C167.9,484.2,171.1,482.4,175.3,482.4z"/>
		<g class="st0">
			<path d="M208.3,482.5c4.2,0,7.4,1.7,9.7,5c2.2,3.3,3.3,8.2,3.3,14.5c0,6.3-1.1,11.2-3.3,14.5s-5.4,5-9.7,5c-4.2,0-7.4-1.7-9.7-5
				s-3.3-8.2-3.3-14.5c0-6.3,1.1-11.2,3.3-14.5C200.8,484.2,204,482.5,208.3,482.5z M208.3,486.6c-2.6,0-4.6,1.3-5.9,3.9
				c-1.3,2.6-2,6.4-2,11.6c0,5.2,0.7,9,2,11.6c1.3,2.6,3.3,3.9,5.9,3.9c2.6,0,4.6-1.3,5.9-3.9c1.3-2.6,2-6.4,2-11.6
				c0-5.2-0.7-9-2-11.6C212.9,487.9,210.9,486.6,208.3,486.6z"/>
		</g>
		<path class="st1" d="M207.9,486.6c-2.5,0-4.5,1.3-5.9,3.9c-1.3,2.5-2,6.4-2,11.6c0,5.2,0.7,9,2,11.6c1.3,2.5,3.3,3.9,5.9,3.9
			c2.7,0,4.7-1.3,6-3.9c1.3-2.7,2-6.5,2-11.6c0-5.2-0.7-9-2-11.6C212.5,487.8,210.7,486.6,207.9,486.6z M207.9,482.4
			c4.3,0,7.4,1.7,9.7,5.1c2.3,3.3,3.3,8.1,3.3,14.4s-1.2,11.2-3.3,14.5s-5.5,5.1-9.7,5.1c-4.1,0-7.4-1.7-9.7-5.1
			c-2.1-3.3-3.3-8.1-3.3-14.5c0-6.4,1.1-11,3.3-14.4C200.6,484.2,203.8,482.4,207.9,482.4z"/>
		<g class="st0">
			<path d="M241,482.5c4.2,0,7.4,1.7,9.7,5c2.2,3.3,3.3,8.2,3.3,14.5c0,6.3-1.1,11.2-3.3,14.5s-5.4,5-9.7,5s-7.4-1.7-9.7-5
				s-3.3-8.2-3.3-14.5c0-6.3,1.1-11.2,3.3-14.5C233.5,484.2,236.7,482.5,241,482.5z M241,486.6c-2.6,0-4.6,1.3-5.9,3.9
				s-2,6.4-2,11.6c0,5.2,0.7,9,2,11.6c1.3,2.6,3.3,3.9,5.9,3.9c2.6,0,4.6-1.3,5.9-3.9c1.3-2.6,2-6.4,2-11.6c0-5.2-0.7-9-2-11.6
				C245.6,487.9,243.6,486.6,241,486.6z"/>
		</g>
		<path class="st1" d="M241.1,486.6c-2.5,0-4.5,1.3-5.9,3.9c-1.3,2.5-2,6.4-2,11.6c0,5.2,0.7,9,2,11.6c1.3,2.5,3.3,3.9,5.9,3.9
			c2.7,0,4.7-1.3,6-3.9c1.3-2.7,2-6.5,2-11.6c0-5.2-0.7-9-2-11.6C245.8,487.8,243.8,486.6,241.1,486.6z M241.1,482.4
			c4.3,0,7.4,1.7,9.7,5.1c2.3,3.3,3.3,8.1,3.3,14.4s-1.2,11.2-3.3,14.5s-5.5,5.1-9.7,5.1c-4.1,0-7.4-1.7-9.7-5.1
			c-2.1-3.3-3.3-8.1-3.3-14.5c0-6.4,1.1-11,3.3-14.4C233.7,484.2,237,482.4,241.1,482.4z"/>
		<g class="st0">
			<path d="M273.6,482.5c4.2,0,7.4,1.7,9.7,5c2.2,3.3,3.3,8.2,3.3,14.5c0,6.3-1.1,11.2-3.3,14.5c-2.2,3.3-5.4,5-9.7,5
				c-4.2,0-7.4-1.7-9.7-5c-2.2-3.3-3.3-8.2-3.3-14.5c0-6.3,1.1-11.2,3.3-14.5C266.2,484.2,269.4,482.5,273.6,482.5z M273.6,486.6
				c-2.6,0-4.6,1.3-5.9,3.9c-1.3,2.6-2,6.4-2,11.6c0,5.2,0.7,9,2,11.6c1.3,2.6,3.3,3.9,5.9,3.9c2.6,0,4.6-1.3,5.9-3.9
				c1.3-2.6,2-6.4,2-11.6c0-5.2-0.7-9-2-11.6C278.3,487.9,276.3,486.6,273.6,486.6z"/>
		</g>
		<path class="st1" d="M273.9,486.6c-2.5,0-4.5,1.3-5.9,3.9c-1.3,2.5-2,6.4-2,11.6c0,5.2,0.7,9,2,11.6c1.3,2.5,3.3,3.9,5.9,3.9
			c2.7,0,4.7-1.3,6-3.9c1.3-2.7,2-6.5,2-11.6c0-5.2-0.7-9-2-11.6C278.5,487.8,276.5,486.6,273.9,486.6z M273.9,482.4
			c4.3,0,7.4,1.7,9.7,5.1c2.3,3.3,3.3,8.1,3.3,14.4s-1.2,11.2-3.3,14.5c-2.1,3.3-5.5,5.1-9.7,5.1c-4.1,0-7.4-1.7-9.7-5.1
			c-2.1-3.3-3.3-8.1-3.3-14.5c0-6.4,1.1-11,3.3-14.4C266.4,484.2,269.7,482.4,273.9,482.4z"/>
		<g class="st0">
			<path d="M306.9,482.5c4.2,0,7.4,1.7,9.7,5c2.2,3.3,3.3,8.2,3.3,14.5c0,6.3-1.1,11.2-3.3,14.5c-2.2,3.3-5.4,5-9.7,5
				c-4.2,0-7.4-1.7-9.7-5c-2.2-3.3-3.3-8.2-3.3-14.5c0-6.3,1.1-11.2,3.3-14.5C299.4,484.2,302.7,482.5,306.9,482.5z M306.9,486.6
				c-2.6,0-4.6,1.3-5.9,3.9c-1.3,2.6-2,6.4-2,11.6c0,5.2,0.7,9,2,11.6c1.3,2.6,3.3,3.9,5.9,3.9c2.6,0,4.6-1.3,5.9-3.9
				c1.3-2.6,2-6.4,2-11.6c0-5.2-0.7-9-2-11.6C311.5,487.9,309.5,486.6,306.9,486.6z"/>
		</g>
		<path class="st1" d="M306.6,486.6c-2.5,0-4.5,1.3-5.9,3.9c-1.3,2.5-2,6.4-2,11.6c0,5.2,0.7,9,2,11.6c1.3,2.5,3.3,3.9,5.9,3.9
			c2.7,0,4.7-1.3,6-3.9c1.3-2.7,2-6.5,2-11.6c0-5.2-0.7-9-2-11.6C311.2,487.8,309.2,486.6,306.6,486.6z M306.6,482.4
			c4.3,0,7.4,1.7,9.7,5.1c2.3,3.3,3.3,8.1,3.3,14.4s-1.2,11.2-3.3,14.5c-2.1,3.3-5.5,5.1-9.7,5.1c-4.1,0-7.4-1.7-9.7-5.1
			c-2.1-3.3-3.3-8.1-3.3-14.5c0-6.4,1.1-11,3.3-14.4S302.3,482.4,306.6,482.4z"/>
		<g class="st0">
			<path d="M339.6,482.5c4.2,0,7.4,1.7,9.7,5c2.2,3.3,3.3,8.2,3.3,14.5c0,6.3-1.1,11.2-3.3,14.5c-2.2,3.3-5.4,5-9.7,5
				c-4.2,0-7.4-1.7-9.7-5c-2.2-3.3-3.3-8.2-3.3-14.5c0-6.3,1.1-11.2,3.3-14.5C332.1,484.2,335.4,482.5,339.6,482.5z M339.6,486.6
				c-2.6,0-4.6,1.3-5.9,3.9c-1.3,2.6-2,6.4-2,11.6c0,5.2,0.7,9,2,11.6c1.3,2.6,3.3,3.9,5.9,3.9c2.6,0,4.6-1.3,5.9-3.9
				c1.3-2.6,2-6.4,2-11.6c0-5.2-0.7-9-2-11.6S342.2,486.6,339.6,486.6z"/>
		</g>
		<path class="st1" d="M339.3,486.6c-2.5,0-4.5,1.3-5.9,3.9c-1.3,2.5-2,6.4-2,11.6c0,5.2,0.7,9,2,11.6c1.3,2.5,3.3,3.9,5.9,3.9
			c2.7,0,4.7-1.3,6-3.9c1.3-2.7,2-6.5,2-11.6c0-5.2-0.7-9-2-11.6C344,487.8,342,486.6,339.3,486.6z M339.3,482.4
			c4.3,0,7.4,1.7,9.7,5.1s3.3,8.1,3.3,14.4s-1.2,11.2-3.3,14.5c-2.1,3.3-5.5,5.1-9.7,5.1c-4.1,0-7.4-1.7-9.7-5.1
			c-2.1-3.3-3.3-8.1-3.3-14.5c0-6.4,1.1-11,3.3-14.4C331.8,484.2,335,482.4,339.3,482.4z"/>
		<g class="st0">
			<path d="M362.3,516.5h8.3v-28.7l-9,1.8V485l9-1.8h5.1v33.3h8.3v4.3h-21.7V516.5z"/>
		</g>
		<path class="st1" d="M362.3,516.5h8.2v-28.6l-8.9,1.9v-4.7l8.9-1.7h5.1v33.2h8.4v4.3h-21.7V516.5z"/>
		<g class="st0">
			<path d="M395,516.5h8.3v-28.7l-9,1.8V485l9-1.8h5.1v33.3h8.3v4.3H395V516.5z"/>
		</g>
		<path class="st1" d="M395,516.5h8.2v-28.6l-8.9,1.9v-4.7l8.9-1.7h5.1v33.2h8.4v4.3H395V516.5z"/>
		<g class="st0">
			<path d="M438.2,482.5c4.2,0,7.4,1.7,9.7,5c2.2,3.3,3.3,8.2,3.3,14.5c0,6.3-1.1,11.2-3.3,14.5c-2.2,3.3-5.4,5-9.7,5
				c-4.2,0-7.4-1.7-9.7-5c-2.2-3.3-3.3-8.2-3.3-14.5c0-6.3,1.1-11.2,3.3-14.5C430.8,484.2,434,482.5,438.2,482.5z M438.2,486.6
				c-2.6,0-4.6,1.3-5.9,3.9s-2,6.4-2,11.6c0,5.2,0.7,9,2,11.6c1.3,2.6,3.3,3.9,5.9,3.9c2.6,0,4.6-1.3,5.9-3.9c1.3-2.6,2-6.4,2-11.6
				c0-5.2-0.7-9-2-11.6S440.8,486.6,438.2,486.6z"/>
		</g>
		<path class="st1" d="M437.8,486.6c-2.5,0-4.5,1.3-5.9,3.9c-1.3,2.5-2,6.4-2,11.6c0,5.2,0.7,9,2,11.6c1.3,2.5,3.3,3.9,5.9,3.9
			c2.7,0,4.7-1.3,6-3.9c1.3-2.7,2-6.5,2-11.6c0-5.2-0.7-9-2-11.6C442.5,487.8,440.5,486.6,437.8,486.6z M437.8,482.4
			c4.3,0,7.4,1.7,9.7,5.1c2.3,3.3,3.3,8.1,3.3,14.4s-1.2,11.2-3.3,14.5s-5.5,5.1-9.7,5.1c-4.3,0-7.4-1.7-9.7-5.1
			c-2.1-3.3-3.3-8.1-3.3-14.5c0-6.4,1.1-11,3.3-14.4S433.7,482.4,437.8,482.4z"/>
		<g class="st0">
			<path d="M460.9,516.5h8.3v-28.7l-9,1.8V485l9-1.8h5.1v33.3h8.3v4.3h-21.7V516.5z"/>
		</g>
		<path class="st1" d="M461,516.5h8.2v-28.6l-8.9,1.9v-4.7l8.9-1.7h5.1v33.2h8.4v4.3H461V516.5z"/>
		<g class="st0">
			<path d="M503.6,482.5c4.2,0,7.4,1.7,9.7,5c2.2,3.3,3.3,8.2,3.3,14.5c0,6.3-1.1,11.2-3.3,14.5c-2.2,3.3-5.4,5-9.7,5
				c-4.2,0-7.4-1.7-9.7-5c-2.2-3.3-3.3-8.2-3.3-14.5c0-6.3,1.1-11.2,3.3-14.5C496.1,484.2,499.4,482.5,503.6,482.5z M503.6,486.6
				c-2.6,0-4.6,1.3-5.9,3.9c-1.3,2.6-2,6.4-2,11.6c0,5.2,0.7,9,2,11.6c1.3,2.6,3.3,3.9,5.9,3.9c2.6,0,4.6-1.3,5.9-3.9
				c1.3-2.6,2-6.4,2-11.6c0-5.2-0.7-9-2-11.6S506.2,486.6,503.6,486.6z"/>
		</g>
		<path class="st1" d="M503.3,486.6c-2.5,0-4.5,1.3-5.9,3.9c-1.3,2.5-2,6.4-2,11.6c0,5.2,0.7,9,2,11.6c1.3,2.5,3.3,3.9,5.9,3.9
			c2.7,0,4.7-1.3,6-3.9c1.3-2.7,2-6.5,2-11.6c0-5.2-0.7-9-2-11.6C507.9,487.8,505.9,486.6,503.3,486.6z M503.3,482.4
			c4.3,0,7.4,1.7,9.7,5.1c2.3,3.3,3.3,8.1,3.3,14.4s-1.2,11.2-3.3,14.5s-5.5,5.1-9.7,5.1c-4.3,0-7.4-1.7-9.7-5.1
			c-2.1-3.3-3.3-8.1-3.3-14.5c0-6.4,1.1-11,3.3-14.4C495.8,484.2,499,482.4,503.3,482.4z"/>
	</g>
	
		<linearGradient id="SVGID_1_" gradientUnits="userSpaceOnUse" x1="-6984.9478" y1="-2623.2104" x2="-6025.8389" y2="-3739.4841" gradientTransform="matrix(4.057748e-02 -8.685306e-02 -8.251327e-02 -3.854993e-02 401.4619 -652.1103)">
		<stop  offset="0" style="stop-color:#F59723"/>
		<stop  offset="0.312" style="stop-color:#F69822"/>
		<stop  offset="0.838" style="stop-color:#E87726"/>
		<stop  offset="1" style="stop-color:#E87726"/>
	</linearGradient>
	<path class="st2" d="M358,15.2c-7.8,4.7-20.9,17.7-36.4,36.7l14.2,27c10.1-14.4,20.2-27.3,30.6-38.3c0.8-0.9,1.2-1.3,1.2-1.3
		c-0.4,0.4-0.8,0.9-1.2,1.3c-3.3,3.6-13.4,15.4-28.7,38.8c14.6-0.8,37.2-3.7,55.7-6.9c5.6-30.7-5.3-44.7-5.3-44.7
		S374.3,5.6,358,15.2L358,15.2z"/>
	<path class="st3" d="M309.8,242.1c-1.9,0.3-3.7,0.7-5.6,0.9l0,0c0.9-0.1,2-0.3,2.9-0.4C307.9,242.5,308.8,242.2,309.8,242.1z"/>
	<path class="st3" d="M314.6,218.6L314.6,218.6c0.3,0,0.5,0,0.8-0.1c1.2-0.1,2.4-0.4,3.6-0.7C317.6,218,316.2,218.3,314.6,218.6z"/>
	
		<linearGradient id="SVGID_00000132056738394163596450000017397410736151810458_" gradientUnits="userSpaceOnUse" x1="-12410.2832" y1="-2513.5234" x2="-5583.6846" y2="-2513.5234" gradientTransform="matrix(4.057748e-02 -8.685306e-02 -8.251327e-02 -3.854993e-02 401.4619 -652.1103)">
		<stop  offset="0" style="stop-color:#9C2063"/>
		<stop  offset="0.323" style="stop-color:#9C2063"/>
		<stop  offset="0.63" style="stop-color:#C82037"/>
		<stop  offset="0.751" style="stop-color:#CC2135"/>
		<stop  offset="1" style="stop-color:#E87726"/>
	</linearGradient>
	<path style="fill:url(#SVGID_00000132056738394163596450000017397410736151810458_);" d="M293.7,148.9c4.4-8.1,8.8-16.1,13.2-23.8
		c4.7-8,9.3-15.8,14-23.4c0.3-0.4,0.5-0.9,0.8-1.3c4.7-7.4,9.4-14.5,14.1-21.3l-14.2-27c-1.1,1.3-2.1,2.7-3.2,4
		c-4.1,5.2-8.4,10.6-12.8,16.6c-4.9,6.7-10,13.7-15.2,21c-4.8,6.8-9.7,14-14.5,21.4c-4.1,6.4-8.2,12.8-12.4,19.4
		c-0.1,0.3-0.3,0.5-0.4,0.8l18.6,36.7C285.6,164.2,289.6,156.3,293.7,148.9L293.7,148.9z"/>
	
		<linearGradient id="SVGID_00000089531760113681911110000013100481855456648872_" gradientUnits="userSpaceOnUse" x1="-11773.958" y1="-3066.9685" x2="-7707.8188" y2="-3066.9685" gradientTransform="matrix(4.057748e-02 -8.685306e-02 -8.251327e-02 -3.854993e-02 401.4619 -652.1103)">
		<stop  offset="0" style="stop-color:#282661"/>
		<stop  offset="9.550000e-02" style="stop-color:#662E8C"/>
		<stop  offset="0.788" style="stop-color:#9E2064"/>
		<stop  offset="0.949" style="stop-color:#CC2032"/>
		<stop  offset="1" style="stop-color:#CC2032"/>
	</linearGradient>
	<path style="fill:url(#SVGID_00000089531760113681911110000013100481855456648872_);" d="M209,355.7c-2.5,6.8-4.9,13.7-7.4,20.7
		c0,0.1,0,0.3-0.1,0.3c-0.4,0.9-0.8,2-1.1,2.9c-1.7,4.8-3.1,9-6.4,18.8c5.5,2.5,9.8,9.2,14.1,16.6c-0.4-7.7-3.6-15-9.7-20.6
		c27,1.2,50.3-5.6,62.1-25.4c1.1-1.7,2-3.6,2.9-5.6c-5.5,6.9-12.2,9.8-25.1,9.2c0,0,0,0-0.1,0c0,0,0,0,0.1,0
		c18.8-8.4,28.2-16.5,36.6-29.8c2-3.2,3.9-6.6,5.9-10.5c-16.5,16.9-35.5,21.7-55.7,18.1l-15,1.6c-0.5,1.3-0.9,2.5-1.5,3.7L209,355.7
		z"/>
	
		<linearGradient id="SVGID_00000034795516371711170110000000099373188148071611_" gradientUnits="userSpaceOnUse" x1="-12115.3994" y1="-2462.0906" x2="-5288.8018" y2="-2462.0906" gradientTransform="matrix(4.057748e-02 -8.685306e-02 -8.251327e-02 -3.854993e-02 401.4619 -652.1103)">
		<stop  offset="0" style="stop-color:#9C2063"/>
		<stop  offset="0.323" style="stop-color:#9C2063"/>
		<stop  offset="0.63" style="stop-color:#C82037"/>
		<stop  offset="0.751" style="stop-color:#CC2135"/>
		<stop  offset="1" style="stop-color:#E87726"/>
	</linearGradient>
	<path style="fill:url(#SVGID_00000034795516371711170110000000099373188148071611_);" d="M216,321.9c3.2-8.4,6.6-16.9,10-25.4
		c3.3-8.2,6.7-16.5,10.1-24.9c3.5-8.2,7-16.6,10.6-25c3.6-8.5,7.4-16.9,11.3-25.4c3.7-8.4,7.6-16.6,11.6-24.7
		c1.3-2.9,2.8-5.9,4.3-8.8c2.5-5.1,4.9-10.1,7.4-15c0.1-0.3,0.3-0.5,0.4-0.8l-18.6-36.7c-0.3,0.5-0.7,1.1-0.9,1.5
		c-4.4,7-8.6,14.4-12.9,21.7c-4.3,7.4-8.5,15.2-12.6,22.9c-3.5,6.5-6.9,13-10.2,19.7c-0.7,1.3-1.3,2.7-2,4c-4,8.4-7.7,16.4-11,24.2
		c-3.7,8.8-7,17.2-10,25.1c-1.9,5.2-3.6,10.2-5.2,15.2c-1.3,4.1-2.5,8.2-3.7,12.4c-2.8,9.7-5.2,19.4-7.2,29.1l18.8,37
		c2.5-6.6,5.1-13.3,7.6-20.1C214.5,325.8,215.2,323.8,216,321.9L216,321.9z"/>
	
		<linearGradient id="SVGID_00000114772190732853806140000018131393720787434939_" gradientUnits="userSpaceOnUse" x1="-11730.501" y1="-2537.0928" x2="-8143.917" y2="-2537.0928" gradientTransform="matrix(4.057748e-02 -8.685306e-02 -8.251327e-02 -3.854993e-02 401.4619 -652.1103)">
		<stop  offset="0" style="stop-color:#282661"/>
		<stop  offset="9.550000e-02" style="stop-color:#662E8C"/>
		<stop  offset="0.788" style="stop-color:#9E2064"/>
		<stop  offset="0.949" style="stop-color:#CC2032"/>
		<stop  offset="1" style="stop-color:#CC2032"/>
	</linearGradient>
	<path style="fill:url(#SVGID_00000114772190732853806140000018131393720787434939_);" d="M187,312.3c-2.4,11.8-4,23.5-4.9,35.2
		c0,0.4,0,0.8-0.1,1.2c-5.9-9.3-21.4-18.5-21.4-18.4c11.2,16.2,19.7,32.3,21,48.1c-6,1.2-14.2-0.5-23.7-4
		c9.8,9.2,17.3,11.6,20.2,12.2c-9.2,0.5-18.5,6.8-28.1,14c14-5.7,25.1-8,33.2-6.1c-12.8,36.2-25.7,76.1-38.4,118.5
		c4-1.2,6.3-3.9,7.6-7.4c2.3-7.7,17.4-57.9,41.2-124.4c0.7-1.9,1.3-3.9,2.1-5.7c0.1-0.5,0.4-1.1,0.5-1.6c2.5-6.9,5.2-14.1,7.7-21.3
		c0.7-1.6,1.2-3.3,1.9-4.9c0,0,0,0,0-0.1l-18.6-36.8c0,0.4-0.1,0.8-0.3,1.2V312.3z"/>
	
		<linearGradient id="SVGID_00000135686107399403031160000018404005638636920987_" gradientUnits="userSpaceOnUse" x1="-12115.3994" y1="-3037.3025" x2="-5288.8018" y2="-3037.3025" gradientTransform="matrix(4.057748e-02 -8.685306e-02 -8.251327e-02 -3.854993e-02 401.4619 -652.1103)">
		<stop  offset="0" style="stop-color:#9C2063"/>
		<stop  offset="0.323" style="stop-color:#9C2063"/>
		<stop  offset="0.63" style="stop-color:#C82037"/>
		<stop  offset="0.751" style="stop-color:#CC2135"/>
		<stop  offset="1" style="stop-color:#E87726"/>
	</linearGradient>
	<path style="fill:url(#SVGID_00000135686107399403031160000018404005638636920987_);" d="M284.6,175.1c-0.5,1.1-1.1,2.3-1.6,3.3
		c-1.6,3.3-3.2,6.6-4.9,10.2c-1.7,3.7-3.6,7.6-5.5,11.6c-0.9,2-1.9,4-2.8,6c-2.8,6.1-5.6,12.4-8.5,18.8c-3.5,8-7.2,16.2-10.8,24.7
		c-3.5,8.1-7,16.6-10.5,25.4c-3.3,8.2-6.8,16.9-10.2,25.7c-3.1,7.8-6.3,16-9.3,24.3c-0.1,0.4-0.3,0.8-0.4,1.2
		c-3.1,8.2-6.3,16.8-9.4,25.4c0,0.3-0.1,0.4-0.3,0.7l15-1.6c-0.3,0-0.7-0.1-0.9-0.1c18-2.3,41.9-15.7,57.3-32.3
		c7.2-7.7,13.6-16.6,19.6-27.3c4.4-7.8,8.6-16.6,12.6-26.2c3.5-8.5,6.8-17.6,10-27.5c-4.1,2.1-8.8,3.9-14.1,4.9
		c-0.9,0.3-1.9,0.4-2.8,0.5c-0.9,0.1-1.9,0.4-2.9,0.4l0,0c16.8-6.5,27.4-18.9,35.1-34.2c-4.4,3.1-11.6,6.9-20.2,8.8
		c-1.2,0.3-2.4,0.5-3.6,0.7c-0.3,0-0.7,0.1-0.9,0.1l0,0c5.9-2.4,10.8-5.2,15-8.4c0.9-0.7,1.9-1.3,2.7-2.1c1.3-1.2,2.5-2.3,3.7-3.6
		c0.8-0.8,1.5-1.6,2.3-2.5c1.7-2,3.2-4.1,4.7-6.4c0.4-0.8,0.9-1.5,1.3-2.1c0.5-1.1,1.1-2.1,1.6-3.2c2.4-4.7,4.3-8.9,5.7-12.6
		c0.8-1.9,1.3-3.6,2-5.2c0.3-0.7,0.4-1.2,0.7-1.9c0.7-1.7,1.1-3.3,1.5-4.7c0.5-2.1,0.9-3.7,1.1-4.9c-0.5,0.4-1.2,0.9-2,1.3
		c-5.1,3.1-13.8,5.7-20.7,7l13.8-1.5l-13.8,1.5c-0.1,0-0.1,0-0.3,0c-0.7,0.1-1.3,0.3-2.1,0.4c0.1,0,0.3-0.1,0.4-0.1l-47.2,5.2
		C284.8,174.7,284.6,174.9,284.6,175.1L284.6,175.1z"/>
	
		<linearGradient id="SVGID_00000167380330032441483650000003162508937854533034_" gradientUnits="userSpaceOnUse" x1="-12441.3223" y1="-3006.2847" x2="-5614.7246" y2="-3006.2847" gradientTransform="matrix(4.057748e-02 -8.685306e-02 -8.251327e-02 -3.854993e-02 401.4619 -652.1103)">
		<stop  offset="0" style="stop-color:#9C2063"/>
		<stop  offset="0.323" style="stop-color:#9C2063"/>
		<stop  offset="0.63" style="stop-color:#C82037"/>
		<stop  offset="0.751" style="stop-color:#CC2135"/>
		<stop  offset="1" style="stop-color:#E87726"/>
	</linearGradient>
	<path style="fill:url(#SVGID_00000167380330032441483650000003162508937854533034_);" d="M337.7,79.7c-4.1,6.4-8.8,13.8-13.8,22.1
		c-0.3,0.4-0.5,0.9-0.8,1.3c-4.3,7.2-8.8,15-13.6,23.7c-4.1,7.4-8.4,15.4-12.9,24.1c-3.9,7.4-7.8,15.4-12,23.9l47.2-5.2
		c13.8-6.4,20-12.1,25.9-20.3c1.6-2.3,3.2-4.7,4.8-7.2c4.9-7.6,9.6-16,13.8-24.2c4.1-8,7.7-16,10.5-23.1c1.7-4.5,3.2-8.8,4.1-12.5
		c0.8-3.3,1.5-6.4,2-9.4c-18.4,3.2-40.8,6.1-55.7,6.9L337.7,79.7z"/>
	<path class="st3" d="M307.1,242.6c-0.9,0.1-1.9,0.3-2.9,0.4C305.1,243,306.2,242.8,307.1,242.6z"/>
	
		<linearGradient id="SVGID_00000121980481343973861540000016913554883923633829_" gradientUnits="userSpaceOnUse" x1="-12115.3994" y1="-3206.2053" x2="-5288.8018" y2="-3206.2053" gradientTransform="matrix(4.057748e-02 -8.685306e-02 -8.251327e-02 -3.854993e-02 401.4619 -652.1103)">
		<stop  offset="0" style="stop-color:#9C2063"/>
		<stop  offset="0.323" style="stop-color:#9C2063"/>
		<stop  offset="0.63" style="stop-color:#C82037"/>
		<stop  offset="0.751" style="stop-color:#CC2135"/>
		<stop  offset="1" style="stop-color:#E87726"/>
	</linearGradient>
	<path style="fill:url(#SVGID_00000121980481343973861540000016913554883923633829_);" d="M307.1,242.6c-0.9,0.1-1.9,0.3-2.9,0.4
		C305.1,243,306.2,242.8,307.1,242.6z"/>
	<path class="st3" d="M314.6,218.6c0.3,0,0.7-0.1,0.9-0.1C315.2,218.4,315,218.4,314.6,218.6z"/>
	
		<linearGradient id="SVGID_00000161615310660039488290000006053183441714231686_" gradientUnits="userSpaceOnUse" x1="-12115.3994" y1="-3186.3633" x2="-5288.8018" y2="-3186.3633" gradientTransform="matrix(4.057748e-02 -8.685306e-02 -8.251327e-02 -3.854993e-02 401.4619 -652.1103)">
		<stop  offset="0" style="stop-color:#9C2063"/>
		<stop  offset="0.323" style="stop-color:#9C2063"/>
		<stop  offset="0.63" style="stop-color:#C82037"/>
		<stop  offset="0.751" style="stop-color:#CC2135"/>
		<stop  offset="1" style="stop-color:#E87726"/>
	</linearGradient>
	<path style="fill:url(#SVGID_00000161615310660039488290000006053183441714231686_);" d="M314.6,218.6c0.3,0,0.7-0.1,0.9-0.1
		C315.2,218.4,315,218.4,314.6,218.6z"/>
	<path class="st3" d="M314.6,218.6C314.7,218.6,314.7,218.4,314.6,218.6C314.7,218.4,314.7,218.6,314.6,218.6z"/>
	
		<linearGradient id="SVGID_00000154400821027264629190000008226065801352664503_" gradientUnits="userSpaceOnUse" x1="-9160.3672" y1="-3182.4302" x2="-7653.1958" y2="-3182.4302" gradientTransform="matrix(4.057748e-02 -8.685306e-02 -8.251327e-02 -3.854993e-02 401.4619 -652.1103)">
		<stop  offset="0" style="stop-color:#9C2063"/>
		<stop  offset="0.323" style="stop-color:#9C2063"/>
		<stop  offset="0.63" style="stop-color:#C82037"/>
		<stop  offset="0.751" style="stop-color:#CC2135"/>
		<stop  offset="1" style="stop-color:#E87726"/>
	</linearGradient>
	<path style="fill:url(#SVGID_00000154400821027264629190000008226065801352664503_);" d="M314.6,218.6
		C314.7,218.6,314.7,218.4,314.6,218.6C314.7,218.4,314.7,218.6,314.6,218.6z"/>
</g>
</svg>
