<svg xmlns="http://www.w3.org/2000/svg" xml:space="preserve" viewBox="0 0 512 512"><path d="M274.7 109.6c15.3-27.9 31.6-52.4 48.4-70 0 0-16.8 24.4-40.9 73.1 14.6 4 56 12.2 113.8-2.7 1.4-10.5-5.6-22-40.8-25.9-23-2.5 27.6-54.8-9-79.6-1.2-.8-2.3-1.5-3.5-2.1q-1.8-.6-3.9-1.2c-42.7-11.2-48.7 61.3-65.7 45.7-27.6-25.2-45-19.3-53.8-9.2 9.3 16.7 31.9 54.4 55.4 71.9" style="fill:#f79a23"/><path d="M231.1 203.5c13.2-32.6 27.9-65.1 43.6-93.9-23.5-17.5-46.1-55.2-55.4-71.9-3.3 3.8-5.5 8.2-6.5 11.7-8.7 31.6 22.4 69.7-2.7 55.8-20.9-11.6-68-37-85.9-11.8 20.1 25.8 72.7 90.8 106.9 110.1m113.5-17.8c-27-9.6 28.2-35.5 46.2-62.9 2.3-3.5 4.7-8 5.3-12.8-57.8 14.9-99.3 6.7-113.8 2.7-12.4 25.2-26.8 57-41.8 95.3 15.6 6.7 79.4 31.3 169.4 31.5 15.1-39.4-39.7-44.6-65.3-53.8" style="fill:#dd552c"/><path d="M196.7 297.3c9.7-28.9 21.3-61.4 34.4-93.8-34.2-19.2-86.8-84.2-106.9-110-3.6 5-6 12.1-6.9 21.7-4.4 51.7 49 90 38.4 97-14.1 9.3-42.1-22.2-53.1-2.2 16 20.5 48.6 57.7 94.1 87.3m10.4 5.2c15.9 4.9 68.5 19.7 124.4 17.5 7.5-20.3-20.6-22.3-22.8-38.6-1.8-12.6 73.9 10.6 98.2-35.3q1.8-3.45 3-6.6c-90.1-.1-153.8-24.8-169.4-31.5-11 28-22.3 59.5-33.4 94.5" style="fill:#d22128"/><path d="M207.1 302.5c-7.1 22.5-14.2 46.6-21 72.1q-3.6 13.5-7.2 27.6c53 17.5 101.9 0 103.5-21.6v-.5c1.3-22.9-33.1-10.2-32.3-24 .8-13.9 60-.1 78.3-29.9 1.4-2.3 2.3-4.3 3-6.2-55.8 2.2-108.4-12.6-124.3-17.5M102.6 210c-.8 1.4-1.5 3-2.1 5-10.3 33.4 62.4 78.3 52.5 88.1-8.9 8.8-20.5-11.3-34.9-3-1.6.9-3.2 2.1-4.8 3.7-16.2 16.6-.3 64.4 45.7 89.9-10.7 36-21.4 76.3-31.9 118.3 3.8-1.3 8.3-2.7 9.5-6.2 1.7-7 12.2-49.4 29.2-107 0 0 3.1-11.8 8.8-31.2 5.3-18 12.7-42.5 22-70.3-45.4-29.6-78-66.8-94-87.3" style="fill:#7c297d"/></svg>