<svg xmlns="http://www.w3.org/2000/svg" xml:space="preserve" viewBox="0 0 512 512"><circle cx="256" cy="256" r="256"/><path d="M104.4 140.5c-33.5 17.2-53.8 38.8-53.8 58.4 0 7.7-1.9 32 6.4 40 .8 11.6 2.1 22.5 3.9 32.8 18.3 23.5 95.1 66.2 194.1 66.2 97.1 0 174.7-40.3 195.3-63.8 2.6-11 4.6-22 6-33.2 5.8-8.7 5.2-27.5 5.2-41.9 0-14.5-12.2-29-20.7-33.5-3.2 2.3-8 6.2-11.4 8.4 4.8 6.4 6.2 14.6 6.5 22.5 0 24.6-20.9 46-53.3 61.2s-76.8 24.7-125.8 24.7-93.1-9.5-125.5-24.7C98.9 242.3 78 220.9 78 196.3c0-14.1 8.5-23.5 17.1-36.2 1.7-2.5 2.8-6.6 4.5-10.8 1.2-3.2 2.8-6.1 4.8-8.8M76.9 323.3c32.9 71.3 102 97.8 183.2 97.8 74.3 0 136.1-30.2 170.1-93.5-26.1 25.2-92.5 53.3-175.1 53.3-85.6 0-155.6-32-178.2-57.6" style="fill:#fff"/><path d="M383.5 90.9c-.6.1-.9.2-1 .3-3.3 3.4-7.7 10.9-12.2 20.5-4.2 9.1-8.5 20.4-12.5 32.1 1.1.4 2 .7 3.2 1.1 1.8.6 3.8 1.5 5.6 3.5 2 2.1 2.6 4.7 3.2 6.7s1.1 3.5 2.6 4.7c.7.5 2.5 1.4 4.2 2.3 1.8 1 3.7 2.1 4.8 4.1 1.2 2.1 3 5.1 4.2 8.2 5.3-2.9 17.8-9.6 30.9-18.1 6.9-4.5 13.8-9.2 19.1-14s9-9.6 10.2-13.4c.2-.5.1-1.6-1.1-3.5-1.8-2.4-3.8-4.6-6.1-6.6-5.4-4.7-13.1-10-21.1-14.6-8-4.7-16.4-8.8-23.1-11.2-2.8-1-5.6-1.7-8.6-2.1-.6-.1-1.5-.1-2.3 0" style="fill:#e4c548"/><path d="M257.9 96.9c-.5 0-1 0-1.5.1-11.1 1.4-19.5 2.5-21.7 4.2-10.7 8.5-23.3 11.7-35.6 10.5-4.5-.4-18.5 2.3-24.6 4.9-5.2 2.2-12.3 12.5-24.1 20.2-5.4 3.4-11.2 5.6-16.2 7.9-5 2.2-10 4.7-11 5.5-1.1.9-2 2.4-3.2 5.5-1.2 3-2.3 8-6 13.3-4.4 6.4-8.2 11.3-10.5 15.4-2.4 4.1-3.4 7.2-3.4 10.8 0 14.8 14.3 31.8 42.7 45.1 28.5 13.3 69.2 21.9 114.4 21.9s86.2-8.7 114.7-21.9c28.5-13.3 42.6-30.3 42.6-45 0-4.6-.4-6.1-2.3-11.2-.2-.7-.8-1.7-1.1-2.4-7.5 4.3-15 8.6-22.6 12.8h-.2l-2.7 1.6-11.2 6.8c-1.5-5.8-.8-13.1-3.7-18.1-.6-1-1.4-2.7-2.3-4.2-.6-.3-1.2-.5-1.6-.7q-3.3-1.8-6.3-4.2c-4.8-3.8-6.5-8.9-7.3-11.6-.5-1.5-.9-2.3-1-2.6-.1 0-.2-.1-.8-.3-6.3-2-10.3-4.7-15.7-8.4l2.3-6.5.5-1.3v-.3c2.7-7.9 5.8-15.1 8.6-22.2-9.9-5.9-15.5-12.6-20.7-14.4-6.8-2.4-22.1-2.2-35.1-2.9-9-.4-16.2-3.4-21.8-5.4-4.2-1.5-7.6-2.5-10.4-2.7-.2-.2-.7-.2-1.2-.2" style="fill:#598d36"/></svg>