<svg xmlns="http://www.w3.org/2000/svg" xml:space="preserve" viewBox="0 0 512 512"><path d="M380.4 128.9c-43.9 0-84.3 24.7-123.4 67.9-38.4-43.8-79.5-67.9-125.5-67.9C55.5 128.9 0 183.2 0 256.3S55.5 383 131.6 383c46.7 0 83-21.9 123.4-65.6 39.1 43.8 78.8 65.7 125.5 65.7 76.1-.1 131.6-53.5 131.6-126.8s-55.6-127.4-131.7-127.4M132.1 306.3c-32.2 0-51.4-21.2-51.4-49.3s19.2-49.9 51.4-49.9c27.1 0 49.3 21.8 73.3 51.3-22.6 27.3-46.6 47.9-73.3 47.9m246 0c-26.7 0-49.3-21.2-73.3-49.3 24.7-29.4 45.9-49.9 73.3-49.9 32.2 0 51.2 22.1 51.2 49.9.1 27.8-18.9 49.3-51.2 49.3" style="fill:#484848"/><path d="m312.2 364.8 51.2-61.1c-20.4-6.1-39.1-24.4-58.6-47.2L255 317.3c16.3 19 35.6 35 57.2 47.5M257 196.7c-16.2-19.2-35.4-35.6-56.9-48.6l-51.2 61.7c19.5 6.8 36.7 24.3 55 46.6l2 1.4z" style="fill:#20a7c9"/></svg>