<?xml version="1.0" encoding="utf-8"?>
<!-- Generator: Adobe Illustrator 28.2.0, SVG Export Plug-In . SVG Version: 6.00 Build 0)  -->
<svg version="1.1" id="Artwork" xmlns="http://www.w3.org/2000/svg" xmlns:xlink="http://www.w3.org/1999/xlink" x="0px" y="0px"
	 viewBox="0 0 512 512" style="enable-background:new 0 0 512 512;" xml:space="preserve">
<style type="text/css">
	.st0{fill-rule:evenodd;clip-rule:evenodd;}
</style>
<path class="st0" d="M511.8,126.5c-0.3-11.2-1-22.5-3-33.6c-2-11.3-5.3-21.7-10.5-32c-5.1-10.1-11.8-19.2-19.8-27.2
	S461.3,19,451.3,13.9c-10.2-5.2-20.7-8.5-32-10.5c-11.1-2-22.4-2.7-33.6-3c-5.1-0.1-10.3-0.2-15.4-0.2c-6.1,0-12.2,0-18.3,0H160.2
	c-6.1,0-12.2,0-18.3,0c-5.1,0-10.3,0.1-15.4,0.2c-11.2,0.3-22.5,1-33.6,3c-11.3,2-21.7,5.3-32,10.5C50.8,19,41.6,25.7,33.7,33.7
	s-14.8,17-19.9,27.1C8.5,71,5.2,81.5,3.2,92.8c-2,11.1-2.7,22.4-3,33.6C0.1,131.5,0,136.7,0,141.8c0,6.1,0,12.2,0,18.3v191.7
	c0,6.1,0,12.2,0,18.3c0,5.1,0.1,10.3,0.2,15.4c0.3,11.2,1,22.5,3,33.6c2,11.3,5.3,21.7,10.5,32c5.1,10.1,11.8,19.2,19.8,27.2
	s17.2,14.7,27.2,19.8c10.2,5.2,20.7,8.5,32,10.5c11.1,2,22.4,2.7,33.6,3c5.1,0.1,10.3,0.2,15.4,0.2c6.1,0,12.2,0,18.3,0h191.7
	c6.1,0,12.2,0,18.3,0c5.1,0,10.3-0.1,15.4-0.2c11.2-0.3,22.5-1,33.6-3c11.3-2,21.7-5.3,32-10.5c10.1-5.1,19.3-11.8,27.2-19.8
	s14.7-17.2,19.8-27.2c5.2-10.2,8.5-20.7,10.5-32c2-11.1,2.7-22.4,3-33.6c0.1-5.1,0.2-10.3,0.2-15.4c0-6.1,0-12.2,0-18.3l0.3-191.6
	c0-6.1,0-12.2,0-18.3C512,136.8,511.9,131.6,511.8,126.5z M374.9,333c0,6.5,0,12.4-1.4,18.9c-1.4,6.3-3.8,12.3-7.5,17.6
	c-3.7,5.4-8.5,9.7-14,13c-5.6,3.3-11.5,5.2-17.8,6.5c-11.8,2.4-19.9,2.9-27.5,1.4c-7.3-1.5-13.5-4.8-18.5-9.4
	c-7.3-6.7-11.9-15.8-12.9-25.3c-1.2-11.1,2.5-23,10.9-31.8c4.2-4.5,9.5-8,16.6-10.7c7.4-2.8,15.6-4.6,28.2-7.1
	c3.3-0.7,6.6-1.3,9.9-2c4.4-0.9,8.1-2,11.1-5.7c3.1-3.7,3.1-8.2,3.1-12.7V172.9c0-8.6-3.9-11-12.1-9.4
	c-5.9,1.2-132.4,26.7-132.4,26.7c-7.1,1.7-9.6,4.1-9.6,12.9v165c0,6.5-0.3,12.4-1.7,18.9c-1.4,6.3-3.8,12.3-7.5,17.6
	c-3.7,5.4-8.5,9.7-14,13c-5.6,3.4-11.5,5.3-17.8,6.6c-11.8,2.4-19.9,2.9-27.5,1.4c-7.3-1.5-13.5-4.9-18.5-9.5
	c-7.3-6.7-11.6-15.8-12.6-25.3c-1.2-11.1,2.2-23,10.6-31.8c4.2-4.5,9.5-8,16.6-10.7c7.4-2.8,15.6-4.6,28.2-7.1
	c3.3-0.7,6.6-1.3,9.9-2c4.4-0.9,8.1-2,11.1-5.7s3.4-8,3.4-12.5c0-35,0-190.5,0-190.5c0-2.5,0.2-4.2,0.3-5.1c0.6-4,2.2-7.5,5.1-9.9
	c2.4-2.1,5.5-3.5,9.5-4.3h0.1l152.2-30.7c1.4-0.2,12.4-2.2,13.6-2.3c8.2-0.7,12.8,4.7,12.9,13.5L374.9,333L374.9,333z"/>
</svg>
