<?xml version="1.0" encoding="utf-8"?>
<!-- Generator: Adobe Illustrator 28.2.0, SVG Export Plug-In . SVG Version: 6.00 Build 0)  -->
<svg version="1.1" id="Layer_1" xmlns="http://www.w3.org/2000/svg" xmlns:xlink="http://www.w3.org/1999/xlink" x="0px" y="0px"
	 viewBox="0 0 512 512" style="enable-background:new 0 0 512 512;" xml:space="preserve">
<style type="text/css">
	.st0{fill:#F2F2F2;}
	.st1{fill:#F7931E;}
	.st2{fill:#F15A24;}
	.st3{fill:#EF8031;}
	.st4{fill:#8C6239;}
	.st5{fill:#25C77E;}
	.st6{fill:#22B573;}
	.st7{fill:#1D995E;}
	.st8{fill:#39B54A;}
	.st9{fill:#2CE58C;}
	.st10{fill:#FDE92B;}
	.st11{fill:#91BE4A;}
	.st12{fill:#FFFFFF;}
</style>
<path class="st0" d="M256.8,502.9C120.4,502.9,9.9,392.3,9.9,256c0-136.4,110.6-246.9,247-246.8C393.3,9.3,503.7,119.7,503.7,256
	c0,65.5-26.1,128.3-72.4,174.6C385.2,477,322.3,503.1,256.8,502.9z"/>
<path class="st1" d="M324.8,211.4l59.8,49l78.4-15.6L324.8,211.4z"/>
<path class="st2" d="M384.5,260.4l-5.1,67.4l83.5-83L384.5,260.4z"/>
<path class="st3" d="M324.5,211.1l138.5,33.7l-58.6-113.4L324.5,211.1z M324.8,211.4l-0.4-0.3l-34.6,34.5l94.7,14.8l-60.2-49.1
	L324.8,211.4z"/>
<path class="st4" d="M303.1,247.7l37.1,22l44.4-9.2L303.1,247.7z"/>
<path class="st5" d="M111.2,467c14,9.6,28.9,17.6,44.5,24.1l157.6-56.3l-23.3-189.2l-140.1,82.3L111.2,467z"/>
<path class="st6" d="M256.8,17.4c131.4,0.2,237.7,106.8,237.6,238.1c-0.1,131.3-106.8,237.7-238.2,237.5
	C124.8,492.7,18.4,386.2,18.6,254.9c0.1-95.4,57.3-181.6,145.2-218.8C193.2,23.7,224.8,17.3,256.8,17.4 M256.8,0.9
	C115.9,0.9,1.5,115.1,1.5,256s114.3,255.1,255.2,255.1S512,396.9,512,256S397.7,0.9,256.8,0.9z M82.2,207.9l-46-81.7
	C12.4,165.7-0.1,210.9,0,256.8C0,344,44,420.9,111,466.8l38.8-139L80.7,211.1L82.2,207.9z"/>
<path class="st7" d="M36.2,126.2l46,81.7l24.2-54.1L83.1,69.1C64.7,85.7,49,104.9,36.2,126.2L36.2,126.2z"/>
<path class="st8" d="M149.7,327.8l140.1-82.3l-183.4-91.8L149.7,327.8z M82.2,207.9l-1.4,3.2l69,116.8L82.2,207.9z M82.2,207.8
	l67.6,120l-43.3-174.1L82.2,207.8z"/>
<path class="st9" d="M155.7,491.1c31.1,13,64.5,19.7,98.3,19.7c10.7,0,21.4-0.6,32-2l27.2-74.1L155.7,491.1z"/>
<path d="M289.8,245.6l34.6-34.5l79.8-79.7l-90.4-2.1L289.8,245.6z M318.6,151l10.7-3.6l8.4,7.4l-2.2,11l-10.7,3.6l-8.4-7.4
	L318.6,151z"/>
<path class="st10" d="M289.8,245.6l24-116.2l-91.7-62L289.8,245.6z"/>
<path class="st11" d="M360.4,90.9L222.2,67.3l91.7,62l90.3,2L360.4,90.9z M289.8,245.6L222.2,67.3l-115.8,86.4L289.8,245.6z"/>
<path class="st12" d="M324.9,169.5l10.7-3.6l2.2-11l-8.4-7.4l-10.7,3.6l-2.2,11L324.9,169.5z"/>
</svg>
