<?xml version="1.0" encoding="utf-8"?>
<!-- Generator: Adobe Illustrator 28.2.0, SVG Export Plug-In . SVG Version: 6.00 Build 0)  -->
<svg version="1.1" id="Layer_1" xmlns="http://www.w3.org/2000/svg" xmlns:xlink="http://www.w3.org/1999/xlink" x="0px" y="0px"
	 viewBox="0 0 512 512" style="enable-background:new 0 0 512 512;" xml:space="preserve">
<style type="text/css">
	.st0{fill:#FFFFFF;}
</style>
<path class="st0" d="M256,0.1C114.7,0.1,0,114.7,0,256s114.7,255.9,256,255.9S512,397.3,512,256S397.3,0.1,256,0.1z M255.4,493.7
	c-131.8-0.2-238.5-107-238.3-238.8c0.1-95.7,57.5-182.1,145.7-219.4C192.2,23,224,16.6,256,16.7c131.8,0.2,238.4,107.1,238.3,238.8
	C494.2,387.1,387.1,493.9,255.4,493.7z M295.1,234.6l26.2-26.1l74.1-74l-79.2-1.8L295.1,234.6z M328.7,147.1l8.4,7.4l-2.2,11
	l-10.7,3.6l-8.4-7.4l2.2-11L328.7,147.1z M288.1,232.7L228.7,76.3l80.5,54.4L288.1,232.7z M80.5,199.7l-31.6-56.1
	c9.8-18.2,21.9-34.9,36.1-49.9l16.1,58.3v1.2l-0.6,1.9l-16.9,37.8L80.5,199.7z M193.6,481.7l113.1-40.4l-17,46.3
	c-11.2,1.6-22.5,2.4-33.9,2.4c-0.1,0-0.2,0-0.4,0C234.4,490,213.6,487.2,193.6,481.7z M286.6,253.3l22.1,179.7l-126.8,45.3
	c-22.2-7.3-43.2-18-62.3-31.6l30.3-109.1l3-7.6l131.1-77l2.4-1.5L286.6,253.3z M151,322.5l-40.4-162.3l171,85.7L151,322.5z
	 M458.3,244.1l-75,74.5l4.7-61.2l-91.3-14.2L403,137.1L458.3,244.1z M144.8,328.7l-31.6,113.2C55.1,397.6,20.6,328,20.7,254.9
	c0-35.8,8.4-71.4,24.2-103.5l30.9,58.8L144.8,328.7z M282.5,238.1L112,152.8l107.6-80.3L282.5,238.1z M314.4,125.4l-77.3-52.3
	l121.2,20.7l36.1,33.3L314.4,125.4z M84.9,207.5l19.3-43.1L138.7,303L84.9,207.5z"/>
</svg>
