<?xml version="1.0" encoding="utf-8"?>
<!-- Generator: Adobe Illustrator 28.2.0, SVG Export Plug-In . SVG Version: 6.00 Build 0)  -->
<svg version="1.1" id="Layer_1" xmlns="http://www.w3.org/2000/svg" xmlns:xlink="http://www.w3.org/1999/xlink" x="0px" y="0px"
	 viewBox="0 0 512 512" style="enable-background:new 0 0 512 512;" xml:space="preserve">
<style type="text/css">
	.st0{fill:#F2F2F2;}
	.st1{fill:#F7931E;}
	.st2{fill:#F15A24;}
	.st3{fill:#EF8031;}
	.st4{fill:#8C6239;}
	.st5{fill:#25C77E;}
	.st6{fill:#22B573;}
	.st7{fill:#1D995E;}
	.st8{fill:#39B54A;}
	.st9{fill:#2CE58C;}
	.st10{fill:#FDE92B;}
	.st11{fill:#91BE4A;}
	.st12{fill:#FFFFFF;}
</style>
<path class="st0" d="M257.5,496.4C124.7,496.4,17.1,388.7,17.1,256c0-132.8,107.7-240.4,240.5-240.3S497.9,123.3,497.9,256
	c0,63.8-25.4,124.9-70.5,170C382.5,471.2,321.3,496.6,257.5,496.4z"/>
<path class="st1" d="M323.7,212.6l58.2,47.7l76.3-15.2L323.7,212.6z"/>
<path class="st2" d="M381.9,260.3l-5,65.6l81.3-80.8L381.9,260.3z"/>
<path class="st3" d="M323.4,212.3l134.8,32.8l-57.1-110.4L323.4,212.3z M323.7,212.6l-0.4-0.3l-33.7,33.6l92.2,14.4l-58.6-47.8
	L323.7,212.6z"/>
<path class="st4" d="M302.6,247.9l36.1,21.4l43.2-9L302.6,247.9z"/>
<path class="st5" d="M115.8,461.4c13.6,9.3,28.1,17.1,43.3,23.5l153.4-54.8l-22.7-184.2L153.4,326L115.8,461.4z"/>
<path class="st6" d="M257.5,23.7c127.9,0.2,231.4,104,231.3,231.8s-104,231.4-231.9,231.2S25.4,382.8,25.6,254.9
	C25.7,162,81.4,78.1,167,41.9C195.6,29.8,226.4,23.6,257.5,23.7 M257.5,7.6C120.3,7.6,9,118.8,9,256s111.3,248.4,248.5,248.4
	S506,393.2,506,256S394.7,7.6,257.5,7.6z M87.5,209.2l-44.8-79.5C19.6,168.1,7.4,212.1,7.5,256.8c0,84.9,42.8,159.8,108.1,204.4
	l37.8-135.3L86.1,212.3L87.5,209.2z"/>
<path class="st7" d="M42.7,129.6l44.8,79.5l23.6-52.7L88.4,74C70.5,90.2,55.2,108.9,42.7,129.6L42.7,129.6z"/>
<path class="st8" d="M153.3,325.9l136.4-80.1l-178.6-89.4L153.3,325.9z M87.5,209.2l-1.4,3.1L153.3,326L87.5,209.2z M87.5,209.1
	l65.8,116.8l-42.2-169.5L87.5,209.1z"/>
<path class="st9" d="M159.1,484.9c30.3,12.7,62.8,19.2,95.7,19.2c10.4,0,20.8-0.6,31.2-1.9l26.5-72.1L159.1,484.9z"/>
<path d="M289.7,245.9l33.7-33.6l77.7-77.6l-88-2L289.7,245.9z M317.7,153.8l10.4-3.5l8.2,7.2l-2.1,10.7l-10.4,3.5l-8.2-7.2
	L317.7,153.8z"/>
<path class="st10" d="M289.7,245.9l23.4-113.1l-89.3-60.4L289.7,245.9z"/>
<path class="st11" d="M358.4,95.3l-134.6-23l89.3,60.4l87.9,1.9L358.4,95.3z M289.7,245.9L223.8,72.3l-112.7,84.1L289.7,245.9z"/>
<path class="st12" d="M323.8,171.8l10.4-3.5l2.1-10.7l-8.2-7.2l-10.4,3.5l-2.1,10.7L323.8,171.8z"/>
</svg>
