<svg xmlns="http://www.w3.org/2000/svg" xml:space="preserve" viewBox="0 0 512 512"><path d="m492 251.3 9.8-55.3v133.1c0 4.3-3.5 7.7-7.7 7.7H477l13.1-74.2 1.9-1.9c2.4-2.5 2.5-6.7 0-9.4m2-159.1H333l9.3 9.3 159.5 28.2V100c-.1-4.4-3.6-7.8-7.8-7.8" style="opacity:.2"/><path d="m490 262.7-23 130.1c-.6 3.7-4.2 6.2-7.9 5.4l-29.2-5.1 40.2-110.4zm1.8-11.5.1.1 6.9-39.4-9.8 17 1.2-2.1-6.1 16.7zm8.2-50.9c.3.3.6.7.8 1.1l1.1-6.4zm6.3-69.8-164.1-29 9.5 9.5L505 166.8c.6.3 1.2.6 1.8 1l5.2-29.4c.5-3.7-1.9-7.3-5.7-7.9" style="opacity:.4;fill-rule:evenodd;clip-rule:evenodd"/><path d="m482 241.3 8.3-14.5-6.1 16.7zm-40 69.4-72.2 125.1 33 12c3.5 1.2 7.4-.5 8.6-4L470 282.5zm63-143.9L351.7 111l7.8 7.9 139 80.1c.6.4 1.1.8 1.5 1.3l9-24.7c1.4-3.6-.5-7.4-4-8.8" style="opacity:.6;fill-rule:evenodd;clip-rule:evenodd"/><path d="m500.9 208.5-19 32.9-122.3-122.5L498.5 199c3.2 2.1 4.3 6.2 2.4 9.5M294.7 458.1l40.8 23.6c3.2 1.9 7.4.8 9.3-2.5L442 310.7z" style="opacity:.8;fill-rule:evenodd;clip-rule:evenodd"/><path d="M491.8 251.2 251.7 10.9c-2.6-2.6-6.9-2.6-9.6 0L2 251.2c-2.6 2.6-2.6 6.9 0 9.6l240.2 240.3c2.6 2.6 6.9 2.6 9.6 0L492 260.8c2.5-2.6 2.5-7-.2-9.6m-215-140.3c0-1.7 1.4-3.1 3.1-3.1h8.3c1.7 0 3.1 1.4 3.1 3.1v66.4c0 1.7-1.4 3.1-3.1 3.1h-8.3c-1.7 0-3.1-1.4-3.1-3.1zm-39.2-29c0-1.7 1.4-3.1 3.1-3.1h8.3c1.7 0 3.1 1.4 3.1 3.1v66.4c0 1.7-1.4 3.1-3.1 3.1h-8.3c-1.7 0-3.1-1.4-3.1-3.1zm-39.2 29c0-1.7 1.4-3.1 3.1-3.1h8.3c1.7 0 3.1 1.4 3.1 3.1v66.4c0 1.7-1.4 3.1-3.1 3.1h-8.3c-1.7 0-3.1-1.4-3.1-3.1zm91.4 257.5c-1.6 3.8-3.4 6.4-4.5 7.9-9.3 12.9-25 19.3-31.9 21.8l-1.3-.2V443c0 1.7-1.4 3.1-3.1 3.1h-8.3c-1.7 0-3.1-1.4-3.1-3.1v-45.1l-1 .1c-6.9-2.5-22.6-8.9-31.9-21.8-1.1-1.5-2.9-4.1-4.5-7.9-3.5-8.3-3.2-15.9-2.8-23.5.1-3.1.5-7.4 1.5-12.6 10.4 4.2 18.5 8.9 24.2 12.8 14.4 9.7 18.1 16.3 19.7 19.8 1 2.2 1.9 4.5 2.3 5.9.4-1.4 1-3.7 2-5.9 1.6-3.5 5.3-10.1 19.7-19.8 5.7-3.8 13.8-8.6 24.2-12.8 1 5.2 1.4 9.6 1.5 12.6.5 7.7.8 15.3-2.7 23.6m0-65.8c-1.6 3.8-3.4 6.3-4.5 7.9-8.9 12.4-23.2 18.7-30.4 21.3l-9.5 3.9-8.7-3.3c-6.9-2.5-22.6-8.9-31.9-21.8-1.1-1.5-2.9-4.1-4.5-7.9-3.5-8.3-3.2-15.9-2.8-23.5.1-3.1.5-7.4 1.5-12.6 10.4 4.2 18.5 8.9 24.2 12.8 14.4 9.7 18.1 16.3 19.7 19.8l2.1 4.7 2.1-4.7c1.6-3.5 5.3-10.1 19.7-19.8 5.7-3.8 13.8-8.6 24.2-12.8 1 5.2 1.4 9.6 1.5 12.6.5 7.6.8 15.2-2.7 23.4m0-66.8c-1.6 3.8-3.4 6.3-4.5 7.9-8.9 12.4-23.2 18.7-30.4 21.3l-9.5 3.9-8.7-3.3c-6.9-2.5-22.6-8.9-31.9-21.8-1.1-1.5-2.9-4.1-4.5-7.9-3.5-8.3-3.2-15.9-2.8-23.5.1-3.1.5-7.4 1.5-12.6 10.4 4.2 18.5 8.9 24.2 12.8 1.7 1.1 3.3 2.3 4.7 3.3 0-.2 0-.5-.1-.7-.3-2.5-.8-4.7-.6-8.7.4-8.1 3.5-13.9 7.6-21.4 2.1-3.8 5.2-9 9.6-14.7.3-.4.9-.4 1.2 0 4.5 5.7 7.8 10.8 10.1 14.7 7.6 12.6 8.3 18.5 8.5 20.8.4 4-.2 6.4-.4 8.8q1.35-1.05 3-2.1c5.7-3.8 13.8-8.6 24.2-12.8 1 5.2 1.4 9.6 1.5 12.6.5 7.6.8 15.2-2.7 23.4" style="fill-rule:evenodd;clip-rule:evenodd"/></svg>