<svg xmlns="http://www.w3.org/2000/svg" xml:space="preserve" viewBox="0 0 512 512"><linearGradient id="argo-cd_svg__a" x1="216.983" x2="300.476" y1="457.022" y2="170.118" gradientTransform="matrix(1 0 0 -1 0 514)" gradientUnits="userSpaceOnUse"><stop offset="0" style="stop-color:#5e6294"/><stop offset="1" style="stop-color:#878bb2"/></linearGradient><circle cx="256" cy="191" r="145.4" style="opacity:.2;fill:url(#argo-cd_svg__a)"/><path d="M256 372.6c100.3 0 181.5-81.3 181.5-181.5C437.5 90.8 356.3 9.5 256 9.5S74.5 90.8 74.5 191c0 100.3 81.2 181.6 181.5 181.6m0-36.1c80.3 0 145.4-65.1 145.4-145.4S336.3 45.7 256 45.7s-145.4 65.1-145.4 145.4S175.7 336.5 256 336.5" style="opacity:.14;fill-rule:evenodd;clip-rule:evenodd;fill:#5e6294"/><path d="M172.9 267.2c-19.9-8.6-33.8-28.4-33.8-51.5 0-21.6 12.2-40.3 30-49.7-1.2-49.2 38.4-90 87.9-90s89.1 40.8 87.8 90.1c17.8 9.4 30 28.1 30 49.7 0 23.1-13.9 42.9-33.8 51.5l-3.2 86.3c.9 22.3 7.7 24.2 33 31.2 2.4.7 5.1 1.4 7.9 2.2-20.9 4.8-34 5.4-42.2 2.9l-1.5 39.8c-3.3 37.7-3 37.7 22.4 44.4 3.5.9 7.4 1.9 11.8 3.2-54.7 12.5-55.4-12.3-56.1-34.7-.1-4.5-.3-8.9-.8-12.8h-2c-.1 1.5-.2 3-.4 4.4-2.6 31.3-3.4 42.1 1.5 46.9 2.6 2.5 6.7 3.3 13.1 4.6 6.6 1.3 15.6 3.1 27.6 7.8-64.5 9-64.5-11.5-64.4-46.4 0-5.4 0-11.2-.2-17.3h-1.9c-3 67.3.5 68.1 23.4 73.7 6.2 1.5 13.9 3.4 23.2 7.1-65.8 7.3-68.4-11.4-72.4-40.2-.7-5.1-1.5-10.5-2.6-16.2-1.2 5.6-1.9 11.1-2.6 16.2-4.1 28.8-6.7 47.5-72.4 40.2 9.3-3.7 17-5.5 23.2-7.1 22.9-5.6 26.4-6.5 23.4-73.7h-1.9c-.2 6.1-.2 11.8-.2 17.3.1 34.9.1 55.4-64.4 46.4 12-4.7 21-6.5 27.6-7.8 6.3-1.3 10.5-2.1 13.1-4.6 4.9-4.7 4-15.5 1.5-46.9-.1-1.4-.2-2.9-.4-4.4h-2c-.6 4-.7 8.4-.8 12.8-.6 22.4-1.4 47.2-56.1 34.7 4.4-1.3 8.4-2.3 11.8-3.2 25.4-6.6 25.8-6.7 22.4-44.4l-1.5-39.8c-8.3 2.5-21.4 1.8-42.2-2.9 2.8-.8 5.4-1.5 7.9-2.2 25.3-7 32.1-8.8 33-31.2z" style="fill:#ef7b4d"/><path d="M192.3 174.9c23.1 0 41.8 18.7 41.8 41.8s-18.7 41.8-41.8 41.8-41.8-18.7-41.8-41.8 18.7-41.8 41.8-41.8m123.6 0c23.1 0 41.8 18.7 41.8 41.8s-18.7 41.8-41.8 41.8-41.8-18.7-41.8-41.8 18.7-41.8 41.8-41.8m-91.3 119.8s15.2 15.2 32.3 15.2 32.3-15.2 32.3-15.2v19c0 17.8-14.5 32.3-32.3 32.3s-32.3-14.5-32.3-32.3z" style="fill:#fefefe"/><path d="M191.4 195.8c7.9 0 14.3 6.4 14.3 14.3s-6.4 14.3-14.3 14.3-14.3-6.4-14.3-14.3 6.4-14.3 14.3-14.3m123.5 0c7.9 0 14.3 6.4 14.3 14.3s-6.4 14.3-14.3 14.3-14.3-6.4-14.3-14.3 6.5-14.3 14.3-14.3m-90.3 114.1s15.2 15.2 32.3 15.2 32.3-15.2 32.3-15.2v3.8c0 17.8-14.5 32.3-32.3 32.3s-32.3-14.5-32.3-32.3z"/><path d="M135.3 287.7c-1.7 0-3.4-.8-4.6-2.3-20.4-27.1-31.3-59.5-31.4-93.6-.2-55 27.6-105.1 74.4-134.1 2.7-1.7 6.2-.8 7.9 1.8 1.7 2.7.8 6.2-1.8 7.9-43.4 26.9-69.2 73.4-69 124.4.1 31.6 10.2 61.6 29.2 86.8 1.9 2.5 1.4 6.1-1.1 8-1.2.7-2.4 1.1-3.6 1.1" style="opacity:.16;fill:#5e6294"/><circle cx="196.1" cy="49.4" r="7.6" style="opacity:.45;fill:#5e6294"/><path d="M65 148.3h1.9c4.2 0 7.6 3.4 7.6 7.6v72.2c0 4.2-3.4 7.6-7.6 7.6H65c-4.2 0-7.6-3.4-7.6-7.6v-72.2c-.1-4.2 3.4-7.6 7.6-7.6m380.1 0h1.9c4.2 0 7.6 3.4 7.6 7.6v72.2c0 4.2-3.4 7.6-7.6 7.6h-1.9c-4.2 0-7.6-3.4-7.6-7.6v-72.2c0-4.2 3.4-7.6 7.6-7.6" style="fill:#5e6294"/><path d="M256 382.1c105.5 0 191-85.5 191-191C447 85.5 361.5 0 256 0S65 85.5 65 191c0 105.6 85.5 191.1 191 191.1m0-9.5c100.3 0 181.5-81.3 181.5-181.5C437.5 90.8 356.3 9.5 256 9.5S74.5 90.8 74.5 191c0 100.3 81.2 181.6 181.5 181.6" style="fill-rule:evenodd;clip-rule:evenodd;fill:#5e6294;fill-opacity:.2"/><path d="M236.9 119c-1.9 8.9-9.7 14.9-17.3 13.2-7.7-1.6-12.6-8.8-10.7-17.7s13.6-18.4 21.3-16.8c7.6 1.6 8.6 12.3 6.7 21.3" style="fill:#f77f4f"/></svg>