<svg xmlns="http://www.w3.org/2000/svg" xml:space="preserve" viewBox="0 0 512 512"><path d="M307.2 383.8h9.7c12.4 0 22.5 10.1 22.5 22.5v83.2c0 12.4-10.1 22.5-22.5 22.5h-9.7c-12.4 0-22.5-10.1-22.5-22.5v-83.2c0-12.4 10.1-22.5 22.5-22.5m-112.1 0h9.7c12.4 0 22.5 10.1 22.5 22.5v83.2c0 12.4-10.1 22.5-22.5 22.5h-9.7c-12.4 0-22.5-10.1-22.5-22.5v-83.2c0-12.4 10.1-22.5 22.5-22.5" style="fill:#0082c7"/><ellipse cx="256" cy="221.2" rx="222" ry="221.2" style="fill:#0eabff"/><ellipse cx="256" cy="221.2" rx="211.3" ry="145.3" style="fill:#0081c7"/><ellipse cx="256" cy="221.2" rx="196.8" ry="113.8" style="fill:#fff"/><ellipse cx="256" cy="221.2" rx="36.5" ry="36.3" style="fill:#004970"/></svg>