<svg xmlns="http://www.w3.org/2000/svg" xml:space="preserve" viewBox="0 0 512 512"><path d="M0 0h512v512H0z" style="fill:#4d4d4d"/><linearGradient id="aria2_svg__a" x1="256" x2="256" y1="478.968" y2="33.032" gradientUnits="userSpaceOnUse"><stop offset="0" style="stop-color:#b0b0b0"/><stop offset=".93" style="stop-color:#dadada"/><stop offset="1" style="stop-color:#ddd"/></linearGradient><path d="M33 33h445.9v445.9H33z" style="fill:url(#aria2_svg__a)"/><linearGradient id="aria2_svg__b" x1="255.946" x2="255.946" y1="408.172" y2="104.516" gradientUnits="userSpaceOnUse"><stop offset="0" style="stop-color:#434343"/><stop offset="1" style="stop-color:#242424"/></linearGradient><path d="M255.9 104.5c-69.9 0-126.5 68-126.5 151.8 0 83.9 56.6 151.8 126.5 151.8s126.5-68 126.5-151.8-56.6-151.8-126.5-151.8m0 246.3c-34 0-61.5-42.3-61.5-94.5s27.5-94.5 61.5-94.5 61.5 42.3 61.5 94.5-27.5 94.5-61.5 94.5" style="fill:url(#aria2_svg__b)"/></svg>