<svg xmlns="http://www.w3.org/2000/svg" xml:space="preserve" viewBox="0 0 512 512"><path d="M159.6 254.6v36.5c-13.1 13.5-31.6 22-46.4 22s-23.4-4.6-23.4-20.9 12-31.9 69.8-37.6M512 256c0 141.4-114.6 256-256 256S0 397.4 0 256 114.6 0 256 0s256 114.6 256 256m-323.4-31.6c0-35.1-18.4-50.3-56.4-50.3-24.1 0-41.8 5.7-60.6 13.1l3.9 25.2c17-7.4 36.2-13.5 54.2-13.5s29.8 6.7 29.8 26.6v6.7C94 239 60.6 254.6 60.6 293.6c0 26.6 17.7 43.6 46.1 43.6 21 .2 41.2-8.6 55.3-24.1l3.2 20.9h23.4zm127-21.9-4.6-28c-25.9 1.4-44 17.4-55 35.1l-5-31.9h-23.4V334h29.1v-92.5c10.6-20.6 32.6-38 58.9-39M451 290.4c0-29.8-17.4-40.8-56-50.7-24.8-6.4-32.6-11.3-32.6-22.7 0-11.3 9.2-18.1 26.9-18.1 16.7.4 33.1 5.1 47.5 13.5l4.6-27.7c-16.2-7.1-33.7-10.7-51.4-10.6-34.4 0-55.3 15.2-55.3 43.3 0 28 14.5 39 51.4 48.2 28.4 6.7 37.2 13.5 37.2 26.6s-12.1 20.6-31.9 20.6c-19.8-.3-39.1-6.6-55.3-18.1l-4.3 27.7c17.6 9.3 37.2 14.4 57.1 14.9 40.5-.1 62.1-17.1 62.1-46.9"/></svg>