<svg xmlns="http://www.w3.org/2000/svg" xml:space="preserve" viewBox="0 0 512 512"><path d="M0 300.1c-.2-.2.3-1.5 1.1-3 1.6-3 35.5-68.2 37.8-72.6 2.2-4.3 6.8-9 10.8-10.9l3.4-1.7 21.7-.2 21.7-.2-.4 35.1-.4 35.1 31.7-.3c35.1-.4 33.7-.2 36.7-3.8 2.9-3.5 1.9-8.7-2.2-10.7-2-1-2.9-1.1-20.4-1.1-20.2 0-22.8-.3-28.7-3-6.1-2.9-11.9-9.7-14.1-16.4-1.3-4.1-1.4-11.2-.2-15.6 2.4-9 9.2-15.4 19.2-18 2.9-.8 7.1-.9 34.9-1.1l31.6-.2v19H156c-31.9 0-30.9-.1-33.3 3.6-1.9 2.8-2.1 5.5-.7 8.4 2.1 4.4 1.8 4.3 23.3 4.6 15.5.2 19.6.4 22.3 1.1 10.8 2.8 18.6 9.9 20.7 18.8 1 4.1 1 6.4 0 11-2 9.6-8.8 17.2-18.4 20.7l-3.6 1.3-47.5.1-47.5.1-.1-34-.1-34-1.8-.2c-5.4-.5-8.1 1.7-12.3 10.3-1.7 3.4-8.5 17.5-15.1 31.3S29.6 298.8 29.4 299c-.5.8-28.9 1.6-29.4 1.1m192.2-44.4v-44.1l29.1.2 29.1.2 4.3 1.5c6.1 2.1 11.2 5.7 13.8 9.5 2.6 3.9 3.3 7.2 3.1 13.4-.2 4.2-.4 5.3-1.9 8.3-2.9 5.9-7.8 9.4-16.6 11.7l-2.5.7 3.9 2.6c5.5 3.6 9.7 8.2 12.1 13.3 2.5 5.4 3.6 10.7 3.9 19.4l.3 7h-28.2l-.3-5.5c-.5-9.3-2.8-15.4-7.5-20.1-4.3-4.3-9.3-6.3-17.5-7l-4-.3v33.4h-21v-44.2zm47.9-11c3.8-1.9 4.9-6.9 2.1-9.7-2-2-4.4-2.3-17.1-2.3h-11.9v13.4l12.4-.2c11.2-.1 12.7-.2 14.5-1.2m66.8 54.6c-10.5-1.2-20-5.4-26.9-11.8-20.1-18.8-7.7-46.5 23.4-52.4 5.7-1.1 15.4-1 21.1.2 15 3.1 26.8 12.1 30.8 23.4 1.2 3.3 1.5 10 .8 13.7-3.5 17.2-26.1 29.6-49.2 26.9m11.6-14.6c8.1-2.1 13.2-7.4 14.7-15.2.5-2.8.5-3.8-.2-6.6-1.5-5.8-5.1-10-11-12.7-2.6-1.2-3.5-1.4-8.6-1.4s-5.9.1-8.5 1.4c-4.2 2.1-7.3 5.1-9.2 8.8-5.2 10.6.9 22.7 13.1 25.7 3.5.9 6.1.9 9.7 0m-9.1-4.5c-12.7-3.6-14.5-19.6-2.9-25.5 3-1.5 8.6-1.9 12.1-.7 3.1 1 6.9 4.2 8.4 7.1 1.8 3.3 1.6 8.5-.4 12.1-3.1 5.7-10.7 8.8-17.2 7m94.8 19c-19.1-1.5-34.6-8.6-41.6-19.3-3.3-5-4.2-7.8-4.2-12.9s.9-7.9 4.2-12.8c5-7.6 13.6-13.4 24.8-16.7 8.1-2.4 12.7-2.9 28.1-3.1l14.5-.3v15.4l-9.9.3c-5.5.2-11.5.7-13.4 1.1-7.4 1.6-14.4 6.1-16.6 10.7-1.4 2.9-1.4 7.4 0 10.4 2.2 4.5 8.7 8.9 15.9 10.7 2.2.5 6.8.9 13.7 1.1l10.4.3v15.8l-10.1-.1c-5.8-.1-12.8-.3-15.8-.6m28.8-43.4v-44.1h27.2v39h4.5c10.7 0 18-4.2 22.1-12.6l1.8-3.7h10.9c12.5 0 11.6-.4 11.6 5.1-.1 7-5 13.7-13.4 18.3l-2.6 1.4 3.5 2.8c9.2 7.2 12.6 14.9 13.2 29.9l.3 8.1h-25.6l-.4-5.5c-.9-13.2-4.3-20.3-11.6-23.9-3.2-1.6-7.1-2.4-11.3-2.4h-3V300H433z" style="fill:#79bd28"/></svg>