<svg xmlns="http://www.w3.org/2000/svg" xml:space="preserve" viewBox="0 0 512 512"><path d="M510.8 176.5c-1.2-10.1-4.5-24.9-7.3-32.8-2.7-7.9-9.2-21.7-14.2-30.7-11.5-20.5-36.1-45.5-53.9-54.9-7.1-3.8-13.6-6.9-14.4-6.9s3.3 3.8 9.3 8.5c11.9 9.4 26.6 27.1 33.8 40.8l4.8 8.9-4.8-6.3c-2.6-3.5-11.9-13.6-20.8-22.4-12.2-12.2-20.3-18.1-34-24.9-11.7-5.8-25.3-10.4-39.1-13.3-15.6-3.3-29.2-4.5-51.8-4.6-33.9-.1-58.2 3.4-85.5 12.3-9.2 3-23.9 8.8-32.7 12.8-8.8 4.1-25 13.4-36.2 20.8-11.1 7.4-28 20.3-37.6 28.6s-24.2 22.9-32.5 32.5-20 24.7-25.9 33.7-11.1 16-11.6 15.5c-1.8-1.8 14.5-33.1 25.8-49.8l12.2-18L81.5 139c-7.2 7-20 21.9-28.5 33.1s-19.8 28.4-25.1 38.1-12.8 26.7-16.6 37.7L4.4 268v4C1.3 282.2 0 289.6 0 301.4c.1 12.9 1.3 23.1 4.4 34.4v4.2l5.8 16.9c3.1 9.3 9.3 23.1 13.7 30.6s14.6 20.6 22.6 29.1 20.9 19.7 28.6 24.8c22.9 15.2 46.1 24.3 75.3 29.5 9.3 1.7 28.7 3.1 43.1 3.2s36.2-1.3 48.4-3.1 33.4-6.5 47-10.4 34.6-11.4 46.6-16.7l21.9-9.6 13.9 4.2c15.8 4.8 87.6 21.1 88.6 20.1.4-.4-7.8-17.6-18.2-38.4l-18.8-37.8 16.7-20.1c9.2-11.1 22.1-28.1 28.6-37.9s16.3-27.4 21.9-39.1c5.6-11.8 12.1-28.5 14.5-37.2s5.4-24.2 6.5-34.5c1.3-13 1.3-24.5-.3-37.1m-68.7 110.6c-3.9 8.1-11.2 21-16.2 28.6s-16.5 21.4-25.5 30.9S384 364.3 384 365s7.6 12.9 16.9 27.1 16.9 26.7 16.9 27.6-.5 1.7-1.1 1.7-14.8-5.2-31.4-11.6-32.7-11.6-35.6-11.6c-3 0-10.5 2.3-16.7 5-20.6 9.1-59.1 20.5-79.8 23.6-11.2 1.7-28 3-37.3 2.8-33.6-.5-58.9-6.3-87.8-20.2-16.9-8.2-22.9-12.5-38.3-27.9-13.9-13.9-20-22-25.9-34.1-4.2-8.7-9.1-21.6-10.9-28.5-4.5-17.9-4.1-47.6 1-67.9 2.3-9.2 9-26.4 14.9-38.3s16.3-29.1 23.2-38.3 21.1-24.8 31.6-34.8c20.3-19.3 44.9-36.7 68.9-48.7 20.8-10.4 48.4-19.8 73.6-25 16.2-3.4 28.9-4.5 51.2-4.5 23.2 0 33.2 1.1 46.1 4.5 9.1 2.4 22.9 7.4 30.7 11.1 10 4.8 18.9 11.4 30.3 22.8 12.3 12.3 18.1 20.2 24.9 34 4.9 9.9 10.3 24.6 12 32.8 1.7 8.1 3.1 22.1 3.1 31-.2 28-8 59.6-22.4 89.5m-125.6-48.2-5 3.2 33.6 19c18.5 10.4 34.7 19.6 36.2 20.5 1.8 1-1.8 8.8-12.3 26.3-12.6 21-15.4 24.5-18.5 22.8-2-1.1-16.5-9.9-32.1-19.7-15.7-9.7-29.7-18.5-31.3-19.4-2.3-1.4-2.5 5.5-1.3 38.7l1.5 40.4h-59l.9-40.3.9-40.3-34.3 21.3c-18.9 11.7-34.6 21.1-34.9 20.7-1.8-1.9-28.5-47.4-28.5-48.5 0-.7 15.7-10.3 34.9-21.1 19.2-10.9 34.9-20.3 34.9-20.9s-15.7-10-34.9-20.9-34.9-20.4-34.9-21.1c0-1.1 26.8-46.6 28.5-48.5.3-.3 14.7 8.5 31.9 19.8 17.2 11.2 32.7 20.9 34.4 21.6 2.7 1 3-4.5 2.2-39.3l-.9-40.5h59L286 154l-1.5 41.3 14.4-9.3c7.9-5.1 22.5-14.5 32.4-20.8 9.9-6.4 19.1-12.2 20.5-13.1 1.6-1 7.7 7.1 17.4 23.3 8.2 13.6 14.7 24.9 14.4 25.1-.2.2-14.3 8.2-31.1 17.8-17.1 9.6-33.2 18.9-36 20.6" style="fill-rule:evenodd;clip-rule:evenodd;fill:#f68f1e"/></svg>