<svg xmlns="http://www.w3.org/2000/svg" xml:space="preserve" viewBox="0 0 512 512"><path d="M264.7 0c3.9 1.9 3.9 1.9 5.9 7 1.1 3.4 1.1 3.4 2.3 7 .6 1.9.6 1.9 1.3 3.9 1.4 4.3 2.8 8.7 4.2 13 2.1 6.3 4.1 12.6 6.2 19 .6 1.7 1.1 3.4 1.7 5.2 4.7 14.3 9.5 28.5 14.4 42.8 1.1 3.3 1.1 3.3 2.3 6.7 3 8.8 6 17.6 9.1 26.4 2.1 6.2 4.3 12.4 6.4 18.6.6 1.9 1.3 3.7 2 5.7l1.8 5.2c.5 1.5 1 3 1.6 4.5 1.1 3.9 1.1 3.9 1.1 9.7h7.7c49.8-.2 99.6-.1 149.4 2v1.9c-57.6 9-115.2 17.9-174.5 27.2-3.5-5.3-5.3-9.3-7.3-15.2l-2-5.8c-.7-2.1-1.4-4.1-2.1-6.2l-2.2-6.4c-1.5-4.5-3-9-4.6-13.4-2.3-6.8-4.7-13.7-7-20.5-1.5-4.4-3-8.7-4.4-13.1-.7-2-1.4-4.1-2.1-6.2-3.1-9.2-6-17.9-7.1-27.6h-3.9c-.2 1.1-.4 2.1-.7 3.2-2.2 10.4-5 20.4-8.3 30.4l-1.5 4.5c-1 3.1-2 6.3-3.1 9.4-1.5 4.7-3.1 9.4-4.6 14-2.5 7.7-5 15.3-7.6 23l-4.5 14.1c-1 3-1.9 6-2.9 9l-1.2 4.2c-2 6.2-3.4 9.6-9.2 12.7-2.3.4-4.6.9-6.9 1.3-1.7.3-3.3.7-5 1-6.3 1.3-12.5 2.4-18.8 3.5-3.4.6-3.4.6-7 1.3-7.3 1.3-14.6 2.7-21.9 4s-14.7 2.7-22 4c-4.6.8-9.1 1.7-13.7 2.5-2.1.4-4.1.8-6.2 1.1-1.8.3-3.6.7-5.5 1-4.9.9-4.9.9-10.4 2.9 3.3 2.4 6.7 4.7 10 7.1 3 2.1 5.9 4.2 8.9 6.3 7.5 5.3 15 10.6 22.6 15.9 1.4 1 2.8 1.9 4.2 2.9 2.6 1.8 5.1 3.6 7.7 5.4 14.1 9.9 27.9 20.1 41.7 30.3-.4 1.4-.7 2.9-1.1 4.4-3.4 13.6-6.9 27.2-10.3 40.8-1.8 7-3.5 14-5.3 21-1.7 6.8-3.4 13.5-5.1 20.3-.6 2.6-1.3 5.2-1.9 7.7l-2.7 10.8c-.5 2.1-1 4.1-1.6 6.2-1.3 5.2-1.3 5.2-1.1 10.9 11-8.8 21.7-17.6 32-27.2 8.7-8 17.6-15.4 26.8-22.8 6.9-5.7 13.6-11.7 20.2-17.8 4.6-4.1 9.3-7.9 14.1-11.7 7.2 2.7 13.6 5.9 20.2 9.8 2 1.2 4.1 2.4 6.2 3.6 2.2 1.3 4.3 2.5 6.6 3.8 3.4 2 6.8 3.9 10.1 5.9 2.3 1.3 4.6 2.7 6.9 4 11.2 6.5 22.4 12.9 33.7 19.3 1.7 1 3.5 2 5.3 3 4 2.3 7.9 4.5 11.9 6.8-5.2-20-10.5-39.9-16.2-59.8-.6-1.9-1.1-3.9-1.7-5.9-2.3-8-4.6-15.9-6.8-23.9l-5.1-17.7c-.5-1.8-1-3.6-1.6-5.5-.5-1.7-.9-3.3-1.4-5.1-.4-1.5-.8-2.9-1.3-4.4-.9-3.8-.9-3.8-.9-9.7 1.4-.7 2.7-1.5 4.1-2.3 23.6-13.1 47.1-26.1 70.6-39.4 5.4-3.1 10.9-6.1 16.3-9.2 4.3-2.4 8.6-4.9 13-7.3 6.1-3.4 12.1-6.9 18.2-10.3 2.4-1.3 4.7-2.7 7.1-4 3.3-1.9 6.6-3.7 9.9-5.6 1.9-1.1 3.8-2.1 5.7-3.2l4.5-2.1c1.3.6 2.6 1.3 3.9 1.9-14 11.7-28.3 22.9-42.7 34.1-9.9 7.7-19.6 15.5-29.3 23.4-15.1 12.4-30.6 24.1-46.3 35.6 2.8 15.4 6.8 30.3 11.1 45.3 1 3.7 1 3.7 2.1 7.5 1.9 6.5 3.7 13 5.6 19.5s3.7 13 5.5 19.5l16.2 56.6c.5 1.9 1.1 3.8 1.7 5.7 1 3.5 2 7 3 10.4 1.8 6.1 3.3 11.4 3.3 17.8-9-3.2-17-7.9-25.2-12.7-1.6-.9-3.1-1.8-4.8-2.8-5.5-3.2-11.1-6.5-16.6-9.7-2.2-1.3-4.3-2.5-6.6-3.9-1.1-.7-2.3-1.3-3.4-2-4.7-2.8-9.5-5.6-14.3-8.4-2.4-1.4-4.8-2.8-7.3-4.3-21.7-12.8-43.5-25.3-65.5-37.7-7.5 4.2-13.4 8.9-19.6 14.8-8.9 8.2-18.1 16-27.5 23.6-5.1 4.2-10 8.6-14.9 13-8.3 7.6-17 14.7-25.8 21.8-5.1 4.2-10.1 8.6-15 13.1-8.4 7.7-17.1 14.9-25.9 22-7 5.7-13.8 11.7-20.6 17.8-2.1-6.4-1.7-10.5 0-17 .5-1.8 1-3.7 1.5-5.6.5-2 1.1-4 1.6-6.1.6-2.1 1.1-4.2 1.7-6.4 1.2-4.5 2.4-9.1 3.6-13.6 2.5-9.5 5-19 7.5-28.4L141 413c4.7-17.9 9.3-35.8 13.9-53.8.8-3.3 1.7-6.7 2.6-10 1.2-4.6 2.3-9.2 3.5-13.8.3-1.3.7-2.7 1.1-4 1.6-6.3 2.2-9.3.1-15.6-3.2-2.8-3.2-2.8-7.2-5.3-2.2-1.5-2.2-1.5-4.5-3-1.6-1.1-3.2-2.1-4.9-3.2C133 296.4 121 288 109.2 279 96.7 269.5 84 260.6 71 251.8c-8.9-6-17.7-12.2-26.4-18.4-1.5-1-2.9-2.1-4.4-3.1-3.4-2.4-6.8-4.8-10.1-7.2 5.2-5.2 10.7-5.5 17.7-6.8 1.4-.3 2.9-.5 4.3-.8 4.7-.9 9.5-1.7 14.2-2.5l9.9-1.8c8.7-1.6 17.4-3.1 26.1-4.7 10.5-1.9 21-3.8 31.5-5.6 8.2-1.5 16.4-2.9 24.6-4.4 14.8-2.6 29.5-5.3 44.3-8.4 1-3 1-3 1.9-6 14.5-44.7 29.1-89.3 44-133.8 3.6-10.7 7.2-21.5 10.8-32.3 1.1-3.2 2.1-6.4 3.2-9.5.7-2.2 1.4-4.3 2.1-6.5m149.4 120.2h3.9c.7 2.3.7 2.3 1.3 4.6 2.1 5.5 2.1 5.5 7.6 7.6 2.3.7 2.3.7 4.6 1.3-3.9 3.9-3.9 3.9-9.7 5.8-3.3 5.8-3.3 5.8-5.8 11.6-1.9-3.9-3.9-7.8-5.8-11.6-3.2-1.4-6.4-2.7-9.7-3.9 3.9-3.9 3.9-3.9 9.7-5.8 2.3-4.7 2.3-4.7 3.9-9.6m-66-36.8c2.6 3.9 5.2 7.8 7.8 11.6 4 2.3 4 2.3 7.8 3.9l-3.9 3.9H354c-1.3 3.8-2.6 7.7-3.9 11.6-3.9-1.9-3.9-1.9-5.5-5.7-3.1-5.3-6.3-6.1-12-7.9 3.9-3.9 3.9-3.9 7.8-5.5 5.2-3 5.9-6.3 7.7-11.9M191 60.1c5.8 7.3 5.8 7.3 5.8 11.6 3.2.6 6.4 1.3 9.7 1.9v3.9c-3.2.6-6.4 1.3-9.7 1.9-1.3 3.8-2.6 7.7-3.9 11.6-1.3-1.9-2.6-3.8-3.9-5.8-4-4.5-5.7-5.8-11.6-7.8v-3.9c2.3-.7 2.3-.7 4.6-1.3 5.5-2.1 5.5-2.1 7.6-7.6.5-1.4 1-2.9 1.4-4.5M82.4 139.6h3.9c.7 2.3.7 2.3 1.3 4.6 2.1 5.5 2.1 5.5 7.6 7.6 2.3.7 2.3.7 4.6 1.3-3.9 2.6-7.8 5.2-11.6 7.8-1.4 4-1.4 4-1.9 7.8h-3.9c-.7-2.3-.7-2.3-1.3-4.6-2.1-5.5-2.1-5.5-7.6-7.6-1.5-.4-3-.9-4.6-1.3 7.3-5.8 7.3-5.8 11.6-5.8.6-3.3 1.3-6.5 1.9-9.8m27.2-77.5c3.9 3.9 3.9 3.9 5.5 7.8 3.1 5.2 6.4 6 12 7.8-3.9 2.6-7.8 5.2-11.6 7.8-2.3 4-2.3 4-3.9 7.8-1.3-1.9-2.6-3.8-3.9-5.8-4.1-4.6-8-7.2-13.6-9.7 4.5-1.3 9-2.6 13.6-3.9.6-4 1.2-7.9 1.9-11.8m368.5 128c1.3.6 2.6 1.3 3.9 1.9-8.6 6.7-8.6 6.7-17.5 13.6-2.6-1.3-5.1-2.6-7.8-3.9 3.5-2 6.9-4 10.4-5.9 1.9-1.1 3.9-2.2 5.9-3.3 1.7-.9 3.3-1.6 5.1-2.4"/></svg>