<svg xmlns="http://www.w3.org/2000/svg" xml:space="preserve" viewBox="0 0 512 512"><path d="M453.5 124.3h-395c-12.1 0-21.9 9.8-21.9 21.9V212c0 12.1 9.8 21.9 21.9 21.9h395c12.1 0 21.9-9.8 21.9-21.9v-65.8c0-12-9.8-21.9-21.9-21.9M95.1 193.8c-8.1 0-14.6-6.5-14.6-14.6s6.5-14.6 14.6-14.6 14.6 6.5 14.6 14.6-6.5 14.6-14.6 14.6m51.2 0c-8.1 0-14.6-6.5-14.6-14.6s6.5-14.6 14.6-14.6 14.6 6.5 14.6 14.6-6.5 14.6-14.6 14.6m307.2 54.9h-395c-12.1 0-21.9 9.8-21.9 21.9v65.8c0 12.1 9.8 21.9 21.9 21.9h395c12.1 0 21.9-9.8 21.9-21.9v-65.8c0-12.1-9.8-21.9-21.9-21.9M95.1 318.2c-8.1 0-14.6-6.5-14.6-14.6S87 289 95.1 289s14.6 6.5 14.6 14.6-6.5 14.6-14.6 14.6m51.2 0c-8.1 0-14.6-6.5-14.6-14.6s6.5-14.6 14.6-14.6 14.6 6.5 14.6 14.6-6.5 14.6-14.6 14.6m131.6 171.9c0 12.1-9.8 21.9-21.9 21.9s-21.9-9.8-21.9-21.9c0-9.5 6.1-17.6 14.6-20.6v-67.2h14.6v67.2c8.5 3 14.6 11 14.6 20.6M453.5 0h-395C46.4 0 36.6 9.8 36.6 21.9v65.8c0 12.1 9.8 21.9 21.9 21.9h395c12.1 0 21.9-9.8 21.9-21.9V21.9c0-12.1-9.8-21.9-21.9-21.9M95.1 69.5c-8.1 0-14.6-6.5-14.6-14.6S87 40.3 95.1 40.3s14.6 6.5 14.6 14.6c0 8-6.5 14.6-14.6 14.6m51.2 0c-8.1 0-14.6-6.5-14.6-14.6s6.5-14.6 14.6-14.6 14.6 6.5 14.6 14.6c0 8-6.5 14.6-14.6 14.6"/></svg>