<?xml version="1.0" encoding="utf-8"?>
<!-- Generator: Adobe Illustrator 28.2.0, SVG Export Plug-In . SVG Version: 6.00 Build 0)  -->
<svg version="1.1" id="Layer_1" xmlns="http://www.w3.org/2000/svg" xmlns:xlink="http://www.w3.org/1999/xlink" x="0px" y="0px"
	 viewBox="0 0 512 512" style="enable-background:new 0 0 512 512;" xml:space="preserve">
<style type="text/css">
	.st0{fill:#FFFFFF;}
</style>
<path class="st0" d="M502.7,119c-0.6-0.7-1.3-1.4-2-2.1c-11.3-13.1-13.9-15.3-31.3-28.2c-32.5-24.2-67-41.1-102.5-50.2
	c-7.5-1.9-15-4-22.6-5.2L321.4,28c-35.8-8.1-142.2-24.2-296-27.5L1.9,0H0v1.9l0.5,23.4c3.3,153.8,19.4,260.3,27.5,296l1.8-0.4l0,0
	l-1.8,0.4l5.2,22.8l1.1-0.3c1.9,7.2,4.1,14.4,6.7,21.4c11.3,30.1,29.4,57.8,53.9,82.3c24.3,24.3,51.7,42,81.5,52.7
	c21.8,7.8,44.4,11.7,67.6,11.7c5.8,0,11.5-0.2,17.4-0.7c51.4-4.3,101.7-27.5,137.8-63.7c33.9-33.9,51.6-74.1,51.3-116.2
	c-0.2-20.7-4.8-41.1-13.7-60.6c-8.7-19.1-21.4-37.1-37.6-53.3c-39.9-39.9-80-47.3-106.6-46.6c-33.5,0.9-65.8,15.2-90.8,40.3
	c-17.8,17.8-27.3,44.5-25.6,71.5c1.7,26.2,13.9,49.8,33.4,64.8c11.3,8.7,28.6,20,48.8,18c11-1.1,19.1-5.7,24.7-10.2
	c3.9-2.1,7.6-4.7,10.8-7.9c8.4-8.4,13-19.6,13-31.5c0-11.9-4.7-23.2-13.2-31.6h0c-14.4-14.4-36.3-17-53.2-7.6
	c-0.1-7.9,2.5-15.6,6.9-19.9c13.3-13.3,30.1-20.9,47.1-21.4c20.3-0.6,40.3,8.8,59.2,27.7c21,21,32.2,44.8,32.4,69
	c0.2,24.5-11,48.7-32.4,70.1c-25.2,25.2-61.7,42-97.6,45c-29.7,2.5-73.9-3.3-115.6-45c-34.6-34.6-51.1-76.5-47.9-121.4
	c3-42.1,23.1-83.7,56.5-117.1C213.6,99,321.6,59,430.9,140.3c4.9,3.7,8.1,6.1,10.4,7.9c3.4,3.3,6.8,6.8,10.2,10.3
	c0.7,0.8,1.5,1.8,2.4,2.8l0.2,0.2l0.2-0.1c8.2,8.6,16.3,17.4,23.5,24.9C499,208.3,526.7,147.6,502.7,119z M103.5,118
	c-12,12-22.7,24.9-32,38.4c-2.1-27.1-4-57.3-5.3-90.2c35.2,1.4,67.3,3.4,95.8,5.7C141.1,84.7,121.4,100.1,103.5,118z"/>
</svg>
