<svg xmlns="http://www.w3.org/2000/svg" xml:space="preserve" viewBox="0 0 512 512"><path d="M131.6 475.2c14.6-23.2 28.9-46.1 44.2-70.6-7-2.3-12.3-4.7-17.8-5.8-6.5-1.3-13.2-1.4-19.8-2.2-14.1-1.6-27.9-4.5-40.8-10.9-19.1-9.5-33.4-24.3-45.2-41.5-9-13.2-17.3-27-25.6-40.7-3.9-6.5-8.8-11.7-15.9-14.8-2-.9-3.9-2.1-5.4-3.6-2.9-2.9-1.2-9.1 2.9-9.4 5.9-.5 12-.9 17.7.2 11.4 2.3 22.8 5 33.7 9 19 6.8 37.9 14.2 56.4 22.4 13.1 5.8 23.4 15.5 32.8 26.5 12.8 15.1 21.2 32.6 30.1 49.9.9 1.7.9 3.9 1.4 6.9 6.4-7.3 8.7-14.1 6.1-22.8-3.1-10.4-4.6-21.2-7.3-31.7-4.1-16-8.1-32.1-15.5-47.1-3.6-7.3-7.5-14.5-10.9-21.9-2.5-5.3-6.8-7.8-12-10-18.3-7.7-34.8-18.2-49.5-31.8-11.1-10.4-20.5-21.8-27.6-35.2-7.2-13.5-12.4-27.6-15.1-42.8-2.1-11.5-1.7-22.8-1.6-34.2.1-11.8 2.6-23.3 6.6-34.3 5.6-15 11.2-29.9 16.7-44.8 1.8-4.7 2.8-9.9 5.3-14.1 1.9-3.3 5.4-6.8 8.8-7.8 4.5-1.3 8 2.5 10.5 6.4 3.9 6.2 6.9 13.4 11.8 18.7 10.1 10.7 21 20.7 31.9 30.6 10.3 9.3 20.7 18.7 28.2 30.5 8.8 14 16.4 28.8 18.6 45.6 1 7.2 3.2 14.5 2.7 21.6-.8 11.5-2.8 23-5.2 34.3-3.8 17.6-9.9 34.7-9.7 52.9.1 6.6 2 12.7 5.2 18.7 4.7 8.8 8.4 18.2 11.9 27.6 3.4 9 6.1 18.3 8.8 27.5 1.5 4.9 2.3 9.9 3.6 14.9.5 1.9 1.3 3.6 2 5.7 3.8-6.6 7.3-12.7 10.9-18.8 5.9-10 11.5-20.2 17.7-30.1 6.7-10.5 13.8-20.8 20.9-31.1 5.6-8.1 11.1-16.2 17.1-23.9 7.5-9.7 15.5-19 23.3-28.5 1.8-2.2 3.8-4.2 5.4-6.6 2.9-4.4-1.5-7.1-3.3-9.6-7.2-10.4-12.6-21.7-16.5-33.6-2.9-8.7-5.3-17.7-6.5-26.7-1.2-9.3-.9-18.9-.7-28.4.1-5.9 1.1-11.9 2-17.8 2.1-13.6 7.4-26.1 15-37.5 7.1-10.6 15.7-20.1 25.7-28.2 10.6-8.5 21.1-16.9 31.9-25.2 3.3-2.6 9.9.1 11.1 4.3.6 2 1 4.3.8 6.4-1.1 15.4 2.3 30 6.5 44.6 4.3 15.2 9 30.2 10.3 46.3 1 13.2.9 26.3-1.8 38.9-3.1 14.8-9.5 28.5-18.6 41.1-9.3 12.8-21.2 22.2-33.4 31.8-4.6 3.6-8.1 8.7-11.5 13.6-9.2 13.5-18.5 26.9-26.7 41-12.7 21.7-24.6 44-36.9 66-6.1 10.9-12.2 21.8-18.2 32.7-4.7 8.6-9.3 17.2-13.7 26-.8 1.7-.9 4.2-.3 6 6.6 20.3 15.2 39.7 29.1 56 12.8 15.1 28.6 26.4 47.7 32.5 7.1 2.3 8.5 4.4 8.5 10.4 0 4.5-2.7 7-6.5 6.7-6.4-.4-13.1-.8-18.9-3.2-9-3.7-17.7-8.5-25.9-13.9-16.3-10.6-29.1-24.7-37.6-42.4-3.4-7.2-7.1-14.3-10.9-22-4.5 8.3-8.9 16.5-13.3 24.7-8.9 16.6-17.4 33.5-29.6 48-7.2 8.7-17.1 13.7-28.5 14.9-3.3.4-7.1.9-9.9-.4-7.4-3.5-8.5-9.3-3.4-16.3 3.9-5.3 8.3-10.3 12.4-15.5 1.1-1.1 2.1-2.5 3.3-4.1m29.9-326.9c-3.1-8.9-5.9-18-9.5-26.7-5.3-12.7-14.9-22.6-24.7-31.6C114 77.7 99.5 66.7 88.9 51.8c-3 7.6-5.6 15.4-8.9 22.8-5.6 12.4-9.7 25.2-10.6 38.7-1 13.8.4 27.5 4.7 41 4 12.8 9 24.8 16.2 36.1 9.1 14.2 20.3 26.1 34.5 35.1 6.3 4 12.8 7.6 19.7 11.8-5.4-10.8-10.8-20.6-15.3-30.7-3.3-7.4-8.1-11.4-16.1-12.9-3.4-.6-6.5-4.4-9.1-7.3-2.6-3.1-.9-6.5 3.1-6.5 3.5 0 7 1 10.7 1.5-1.6-4.1-3.1-8.2-4.6-12.3-.8-2-1.7-3-4.3-3.8-7.6-2.4-15.6-5.1-19.7-12.9-1.2-2.3-1.2-5.7-.6-8.4.2-.8 4.5-1.6 6.3-.9 4 1.4 7.6 3.8 11.9 6-3.1-8.3-6.3-16.1-8.9-24.1-1.3-4.2-1.6-8.8-2.2-13.2-.4-2.8 0-6.2 3.4-6 2 .1 4.8 2.5 5.6 4.4 3.7 10.1 6.9 20.5 10.3 30.7 1.6 5 3.2 10 4.9 14.9 2.6 7.3 5 14.7 7.9 21.9 3.7 9 7.6 18 11.8 26.8 2.9 6.1 6.3 11.9 10.3 19.3 4.1-17.1 8.6-32.8 11.5-48.7 1.5-8.4.3-17.2.1-26.8m191.8-9.5c1.3-4.9 3.4-9.7 3.9-14.7 1.5-16.6-1.5-32.8-5.9-48.8-2.9-10.4-5.6-20.9-8.2-31.4-1-3.9-1.5-7.9-2.4-12.8-28.5 19.1-46.4 44.3-50.1 77.9-3 27.4 2.9 53.3 18.2 77.5 1.7-9.2 3.2-17.5 4.8-25.7.9-5 1.8-9.2-3.5-13.2-3.4-2.7-5-8.2-6.5-12.7-1-2.9 1.1-4.6 4.3-3.2 2.6 1.1 5.2 2.4 8.5 4-.3-4.7 2.1-8.9-.8-13.6-3.6-5.8-6.2-12.2-9.2-18.3-1.9-4-1.6-7.9 2.4-10 3.7-1.9 6.1.9 7.9 4 1.1 1.9 2.3 3.7 3.9 6.3.9-6 1.1-11.1 2.4-15.8s3.4-9.2 5.8-13.4c.7-1.2 3.5-1.8 5.2-1.7.7 0 1.6 2.4 1.9 3.9.3 1.4.1 3-.2 4.5-1.9 9.3-4.4 18.6-5.8 27.9-1.8 12.5-2.9 25.1-4.1 37.7-.8 8.5-1.2 17-2.1 25.5-.6 5.4-1.7 10.8-2.6 16.2.5.3.9.6 1.4.9 7.4-9.4 15.4-18.4 21.9-28.4 4.1-6.6 6-14.5 8.9-22.6M105.5 321.2c-20.1-7.9-40.2-15.7-60.2-23.6.2 2.2.9 3.3 1.6 4.4 11.4 17.2 20.7 35.9 35.6 50.7 10.6 10.6 22.8 18.7 37.4 22.4 7.5 1.9 15.2 2.9 22.8 4.2 5.8 1 11.7 1.6 18.3 2.5-.9-1.9-1.3-3-2-3.9-6.2-9.1-12.5-18.1-18.5-27.3-8.6-13.1-20.5-22.3-35-29.4M494 266c8.6 10.8 11.1 23.2 13.1 36 2.6 16.9.1 33.3-4.4 49.3-4.5 16.2-11.8 31.3-23.9 43.7-8.7 8.9-19.8 13-30.6 17.9-5.9 2.7-11.3 6.6-16.9 10-8.3 4.9-17.2 7.9-26.8 9.4-8.1 1.3-15.8 2.5-24.1.4-13.3-3.3-23.8-9.9-30.3-22.2-.1-.3-.5-.4-.9-.8-4.8 4.4-9.3 9.1-14.3 13.3-11.4 9.5-25.1 13.8-39.4 10.8-12.9-2.7-21.9-12.3-25.5-25.2-4.8-17.3-1.9-33.6 6.2-49.9 7.9-15.8 19.5-27.8 32.1-39.4 7.5-6.9 14.7-14.2 22.9-20.2 2.5-1.9 8-1.1 11.5.2 4.6 1.8 6.3 7.9 3.5 12.2-3.5 5.3-7.9 10.1-12.2 14.8-11.1 11.9-21.9 24.2-30.4 38.2-6.4 10.5-11.2 21.6-12.3 34-.9 10.1 8.4 20.1 18.9 16 4.8-1.9 9.6-4.8 13.5-8.3 7.1-6.3 13.9-13.3 17.1-22.5 1.8-5 1.3-10.8 2.4-16.1 1.7-8.2 3.5-16.3 5.9-24.3 5.5-18.7 14.9-35.6 26.1-51.4 10-14.1 21.9-26.5 37.1-35.4 12.9-7.6 26.7-11.6 41.5-10.4 15.7 1.2 30.2 5.8 40.2 19.9m-79.2 22.6c-3.2 3.2-6.9 6.1-9.5 9.8-7.1 10.4-14.3 20.7-20.2 31.7-4.7 8.9-7.7 18.7-11.3 28.2-4 10.6-6.8 21.4-6.4 32.9.4 12 9.5 22 21.7 21.6 5.6-.2 11.4-.6 16.7-2.2 6-1.8 11.5-5.1 17.5-7.9-10.2-11.7-11.8-24.7-9.7-37.6 2.4-14.3 8.7-27.4 19.5-37.8 4.7-4.5 16.6-7.7 21.6-4.7 6.4 3.8 10.3 12 1.2 19.6-7.9 6.5-14.1 14.1-17.3 24.1-2.5 7.8-5.1 15.5-1 23.5 1.3 2.6 2 4.3 5.9 3 11.4-3.8 20.1-11 26.7-20.6 7.5-11 11.2-23.3 13.7-36.5 2.7-14.5 3.4-28.5-.3-42.8-3.1-11.9-12.5-21.5-23.5-22.5-17.9-1.7-32.5 5-45.3 18.2" style="fill:#fff"/></svg>