<svg xmlns="http://www.w3.org/2000/svg" xml:space="preserve" viewBox="0 0 512 512"><path d="M193 237.4c0-7 5.6-12.6 12.6-12.6s12.6 5.6 12.6 12.6v214c0 7-5.6 12.6-12.6 12.6s-12.6-5.6-12.6-12.6zm-31.4 58.7c0-7 5.6-12.6 12.6-12.6s12.6 5.6 12.6 12.6v96.5c0 7-5.6 12.6-12.6 12.6s-12.6-5.6-12.6-12.6zm-31.5 42c0-7 5.6-12.6 12.6-12.6s12.6 5.6 12.6 12.6v16.8c0 7-5.6 12.6-12.6 12.6s-12.6-5.6-12.6-12.6zm94.4-58.8c0-7 5.6-12.6 12.6-12.6s12.6 5.6 12.6 12.6v134.3c0 7-5.6 12.6-12.6 12.6s-12.6-5.6-12.6-12.6zm31.5 37.8c0-7 5.6-12.6 12.6-12.6s12.6 5.6 12.6 12.6v54.6c0 7-5.6 12.6-12.6 12.6s-12.6-5.6-12.6-12.6zm31.5-37.8c0-7 5.6-12.6 12.6-12.6s12.6 5.6 12.6 12.6v134.3c0 7-5.6 12.6-12.6 12.6s-12.6-5.6-12.6-12.6zm31.5 29.4c0-7 5.6-12.6 12.6-12.6s12.6 5.6 12.6 12.6V380c0 7-5.6 12.6-12.6 12.6S319 387 319 380zm31.4 29.4c0-7 5.6-12.6 12.6-12.6s12.6 5.6 12.6 12.6v16.8c0 7-5.6 12.6-12.6 12.6s-12.6-5.6-12.6-12.6zm161.6 6.3c0 62.7-39.1 115.6-92.3 131.5v-39.2h-4V208c0-31.3-16.2-61.2-45.7-84.1-31.3-24.4-73.3-37.8-118.2-37.8s-86.9 13.4-118.2 37.8C104.2 146.8 88 176.7 88 208v228.7h-4.1V473C35 454.3 0 403.8 0 344.4c0-38.3 14.6-72.9 38-97.6V208c0-47.1 23.1-91 64.9-123.6 40-31.2 92.9-48.3 148.9-48.3s108.9 17.2 148.9 48.3c41.9 32.6 65 76.5 65 123.6v30.7c28.3 25 46.3 63.1 46.3 105.7m-394.6-128h-25v256h25zm293.8 256h-25v-256h25z"/></svg>