<?xml version="1.0" encoding="utf-8"?>
<!-- Generator: Adobe Illustrator 28.2.0, SVG Export Plug-In . SVG Version: 6.00 Build 0)  -->
<svg version="1.1" id="Layer_1" xmlns="http://www.w3.org/2000/svg" xmlns:xlink="http://www.w3.org/1999/xlink" x="0px" y="0px"
	 viewBox="0 0 512 512" style="enable-background:new 0 0 512 512;" xml:space="preserve">
<style type="text/css">
	.st0{fill:#FFFFFF;}
</style>
<path class="st0" d="M193.5,237.9c0-7,5.6-12.6,12.6-12.6s12.6,5.6,12.6,12.6v214c0,7-5.6,12.6-12.6,12.6s-12.6-5.6-12.6-12.6V237.9
	z M162.1,296.6c0-7,5.6-12.6,12.6-12.6s12.6,5.6,12.6,12.6v96.5c0,7-5.6,12.6-12.6,12.6s-12.6-5.6-12.6-12.6V296.6z M130.6,338.6
	c0-7,5.6-12.6,12.6-12.6s12.6,5.6,12.6,12.6v16.8c0,7-5.6,12.6-12.6,12.6s-12.6-5.6-12.6-12.6V338.6z M225,279.8
	c0-7,5.6-12.6,12.6-12.6s12.6,5.6,12.6,12.6v134.3c0,7-5.6,12.6-12.6,12.6s-12.6-5.6-12.6-12.6V279.8z M256.5,317.6
	c0-7,5.6-12.6,12.6-12.6s12.6,5.6,12.6,12.6v54.6c0,7-5.6,12.6-12.6,12.6s-12.6-5.6-12.6-12.6V317.6z M288,279.8
	c0-7,5.6-12.6,12.6-12.6s12.6,5.6,12.6,12.6v134.3c0,7-5.6,12.6-12.6,12.6s-12.6-5.6-12.6-12.6V279.8z M319.5,309.2
	c0-7,5.6-12.6,12.6-12.6s12.6,5.6,12.6,12.6v71.3c0,7-5.6,12.6-12.6,12.6s-12.6-5.6-12.6-12.6V309.2z M350.9,338.6
	c0-7,5.6-12.6,12.6-12.6s12.6,5.6,12.6,12.6v16.8c0,7-5.6,12.6-12.6,12.6s-12.6-5.6-12.6-12.6V338.6z M512.5,344.9
	c0,62.7-39.1,115.6-92.3,131.5v-39.2h-4V208.5c0-31.3-16.2-61.2-45.7-84.1c-31.3-24.4-73.3-37.8-118.2-37.8
	c-44.9,0-86.9,13.4-118.2,37.8c-29.4,22.9-45.6,52.8-45.6,84.1v228.7h-4.1v36.3C35.5,454.8,0.5,404.3,0.5,344.9
	c0-38.3,14.6-72.9,38-97.6v-38.8c0-47.1,23.1-91,64.9-123.6c40-31.2,92.9-48.3,148.9-48.3c56,0,108.9,17.2,148.9,48.3
	c41.9,32.6,65,76.5,65,123.6v30.7C494.5,264.2,512.5,302.3,512.5,344.9z M117.9,216.9h-25v256h25V216.9z M411.7,472.9h-25v-256h25
	V472.9z"/>
</svg>
