<?xml version="1.0" encoding="utf-8"?>
<!-- Generator: Adobe Illustrator 28.2.0, SVG Export Plug-In . SVG Version: 6.00 Build 0)  -->
<svg version="1.1" id="Layer_1" xmlns="http://www.w3.org/2000/svg" xmlns:xlink="http://www.w3.org/1999/xlink" x="0px" y="0px"
	 viewBox="0 0 512 512" style="enable-background:new 0 0 512 512;" xml:space="preserve">
<style type="text/css">
	.st0{fill:url(#SVGID_1_);}
	.st1{fill:url(#SVGID_00000078740693972529072730000003245841807661434497_);}
	.st2{fill:url(#SVGID_00000016764778820759669100000007729522653241984406_);}
	.st3{fill:url(#SVGID_00000052105163505620592860000004069264817057522062_);}
	.st4{fill:url(#SVGID_00000076604731112862782570000011104329828832663936_);}
	.st5{fill:url(#SVGID_00000168813688805976003590000002565049608667868037_);}
	.st6{fill:url(#SVGID_00000124863770579354221910000016929170915844072598_);}
	.st7{fill:url(#SVGID_00000150824037561169633830000011505105714145414298_);}
	.st8{fill:#2B29CE;}
</style>
<g>
	
		<linearGradient id="SVGID_1_" gradientUnits="userSpaceOnUse" x1="205.6" y1="504.8" x2="205.6" y2="744" gradientTransform="matrix(1 0 0 1 0 -280)">
		<stop  offset="0" style="stop-color:#F94807"/>
		<stop  offset="1" style="stop-color:#FAC522"/>
	</linearGradient>
	<path class="st0" d="M193,237.4c0-7,5.6-12.6,12.6-12.6s12.6,5.6,12.6,12.6v214c0,7-5.6,12.6-12.6,12.6s-12.6-5.6-12.6-12.6V237.4z
		"/>
	
		<linearGradient id="SVGID_00000029021726512719342260000003656731299008084390_" gradientUnits="userSpaceOnUse" x1="174.2" y1="504.7878" x2="174.2" y2="744.0009" gradientTransform="matrix(1 0 0 1 0 -280)">
		<stop  offset="0" style="stop-color:#F94807"/>
		<stop  offset="1" style="stop-color:#FAC522"/>
	</linearGradient>
	<path style="fill:url(#SVGID_00000029021726512719342260000003656731299008084390_);" d="M161.6,296.1c0-7,5.6-12.6,12.6-12.6
		s12.6,5.6,12.6,12.6v96.5c0,7-5.6,12.6-12.6,12.6s-12.6-5.6-12.6-12.6V296.1z"/>
	
		<linearGradient id="SVGID_00000169542814682293015850000017287773418059851138_" gradientUnits="userSpaceOnUse" x1="142.7" y1="504.7878" x2="142.7" y2="744.0009" gradientTransform="matrix(1 0 0 1 0 -280)">
		<stop  offset="0" style="stop-color:#F94807"/>
		<stop  offset="1" style="stop-color:#FAC522"/>
	</linearGradient>
	<path style="fill:url(#SVGID_00000169542814682293015850000017287773418059851138_);" d="M130.1,338.1c0-7,5.6-12.6,12.6-12.6
		s12.6,5.6,12.6,12.6v16.8c0,7-5.6,12.6-12.6,12.6s-12.6-5.6-12.6-12.6V338.1z"/>
	
		<linearGradient id="SVGID_00000049212623379614969210000017358180713782932098_" gradientUnits="userSpaceOnUse" x1="237.1" y1="504.7878" x2="237.1" y2="744.0009" gradientTransform="matrix(1 0 0 1 0 -280)">
		<stop  offset="0" style="stop-color:#F94807"/>
		<stop  offset="1" style="stop-color:#FAC522"/>
	</linearGradient>
	<path style="fill:url(#SVGID_00000049212623379614969210000017358180713782932098_);" d="M224.5,279.3c0-7,5.6-12.6,12.6-12.6
		s12.6,5.6,12.6,12.6v134.3c0,7-5.6,12.6-12.6,12.6s-12.6-5.6-12.6-12.6V279.3z"/>
	
		<linearGradient id="SVGID_00000182496449834981725720000011759473758834262436_" gradientUnits="userSpaceOnUse" x1="268.6" y1="504.7878" x2="268.6" y2="744.0009" gradientTransform="matrix(1 0 0 1 0 -280)">
		<stop  offset="0" style="stop-color:#F94807"/>
		<stop  offset="1" style="stop-color:#FAC522"/>
	</linearGradient>
	<path style="fill:url(#SVGID_00000182496449834981725720000011759473758834262436_);" d="M256,317.1c0-7,5.6-12.6,12.6-12.6
		s12.6,5.6,12.6,12.6v54.6c0,7-5.6,12.6-12.6,12.6s-12.6-5.6-12.6-12.6V317.1z"/>
	
		<linearGradient id="SVGID_00000016061676482549704680000001941706417950660265_" gradientUnits="userSpaceOnUse" x1="300.1" y1="504.7878" x2="300.1" y2="744.0009" gradientTransform="matrix(1 0 0 1 0 -280)">
		<stop  offset="0" style="stop-color:#F94807"/>
		<stop  offset="1" style="stop-color:#FAC522"/>
	</linearGradient>
	<path style="fill:url(#SVGID_00000016061676482549704680000001941706417950660265_);" d="M287.5,279.3c0-7,5.6-12.6,12.6-12.6
		s12.6,5.6,12.6,12.6v134.3c0,7-5.6,12.6-12.6,12.6s-12.6-5.6-12.6-12.6V279.3z"/>
	
		<linearGradient id="SVGID_00000065065904293395023710000006110387838799024792_" gradientUnits="userSpaceOnUse" x1="331.6" y1="504.7878" x2="331.6" y2="744.0009" gradientTransform="matrix(1 0 0 1 0 -280)">
		<stop  offset="0" style="stop-color:#F94807"/>
		<stop  offset="1" style="stop-color:#FAC522"/>
	</linearGradient>
	<path style="fill:url(#SVGID_00000065065904293395023710000006110387838799024792_);" d="M319,308.7c0-7,5.6-12.6,12.6-12.6
		s12.6,5.6,12.6,12.6V380c0,7-5.6,12.6-12.6,12.6S319,387,319,380V308.7z"/>
	
		<linearGradient id="SVGID_00000175314417500499424440000015767164745789922456_" gradientUnits="userSpaceOnUse" x1="363" y1="504.7878" x2="363" y2="744.0009" gradientTransform="matrix(1 0 0 1 0 -280)">
		<stop  offset="0" style="stop-color:#F94807"/>
		<stop  offset="1" style="stop-color:#FAC522"/>
	</linearGradient>
	<path style="fill:url(#SVGID_00000175314417500499424440000015767164745789922456_);" d="M350.4,338.1c0-7,5.6-12.6,12.6-12.6
		s12.6,5.6,12.6,12.6v16.8c0,7-5.6,12.6-12.6,12.6s-12.6-5.6-12.6-12.6V338.1z"/>
	<path class="st8" d="M512,344.4c0,62.7-39.1,115.6-92.3,131.5v-39.2h-4V208c0-31.3-16.2-61.2-45.7-84.1
		c-31.3-24.4-73.3-37.8-118.2-37.8c-44.9,0-86.9,13.4-118.2,37.8C104.2,146.8,88,176.7,88,208v228.7h-4.1V473
		C35,454.3,0,403.8,0,344.4c0-38.3,14.6-72.9,38-97.6V208c0-47.1,23.1-91,64.9-123.6c40-31.2,92.9-48.3,148.9-48.3
		c56,0,108.9,17.2,148.9,48.3c41.9,32.6,65,76.5,65,123.6v30.7C494,263.7,512,301.8,512,344.4z M117.4,216.4h-25v256h25V216.4z
		 M411.2,472.4h-25v-256h25V472.4z"/>
</g>
</svg>
