<svg xmlns="http://www.w3.org/2000/svg" xml:space="preserve" viewBox="0 0 512 512"><path d="M213.9 217.3h-40.8V213h40.8zm62-4.3h-40.8v4.3h40.8zm62 0h-40.8v4.3h40.8zM512 256c0 141.4-114.6 256-256 256S0 397.4 0 256 114.6 0 256 0s256 114.6 256 256M389.1 421c0-7.5-6.1-13.5-13.5-13.5H135.4c-7.5 0-13.5 6-13.5 13.5s6.1 13.5 13.5 13.5h240.2c7.5 0 13.5-6.1 13.5-13.5m-204.9-19.7h18.5c9.9 0 17.9-8 17.9-17.9V182.8c0-9.9-8-17.9-17.9-17.9h-18.5c-9.9 0-17.9 8-17.9 17.9v200.6c0 9.9 8 17.9 17.9 17.9m62 0h18.5c9.9 0 17.9-8 17.9-17.9V182.8c0-9.9-8-17.9-17.9-17.9h-18.5c-9.9 0-17.9 8-17.9 17.9v200.6c0 9.9 8 17.9 17.9 17.9m62.1 0h18.5c9.9 0 17.9-8 17.9-17.9V182.8c0-9.9-8-17.9-17.9-17.9h-18.5c-9.9 0-17.9 8-17.9 17.9v200.6c0 9.9 8 17.9 17.9 17.9m110.6-157.9c-.1-2.3-1-4.4-2.7-5.8-2-1.7-5.1-4.1-9.4-7v-32.8c0-83.6-67.7-151.3-151.3-151.3s-151.3 67.7-151.3 151.3v32.8c-4.2 2.9-7.3 5.4-9.4 7-1.7 1.4-2.7 3.5-2.7 5.8v39.3c0 2.2 1 4.3 2.7 5.8 4.7 3.9 15.4 12 32.1 20.4v3.8c0 10.3 6.6 18.6 14.8 18.6s14.8-8.4 14.8-18.6v-94.2c0-10.3-6.6-18.6-14.8-18.6-7.9 0-14.3 7.7-14.8 17.3v-19.4c0-71 57.6-128.6 128.6-128.6 71.1 0 128.6 57.6 128.6 128.6v19.4c-.5-9.7-7-17.3-14.8-17.3-8.2 0-14.8 8.4-14.8 18.6v94.2c0 10.3 6.6 18.6 14.8 18.6s14.8-8.4 14.8-18.6v-3.8c16.7-8.4 27.4-16.5 32.1-20.4 1.7-1.4 2.7-3.6 2.7-5.8z"/></svg>