<svg xmlns="http://www.w3.org/2000/svg" xml:space="preserve" viewBox="0 0 512 512"><linearGradient id="aureus_svg__a" x1="772.475" x2="237.918" y1="302.011" y2="542.316" gradientTransform="matrix(1 0 0 -1 0 514)" gradientUnits="userSpaceOnUse"><stop offset="0" style="stop-color:#cf8ea3"/><stop offset=".295" style="stop-color:#a365c8"/><stop offset=".397" style="stop-color:#8660d5"/><stop offset=".716" style="stop-color:#4956f0"/><stop offset="1" style="stop-color:#3cade8"/></linearGradient><path d="M511.7 71.8c0 28.3-22.9 51.2-51.2 51.2s-51.2-22.9-51.2-51.2 22.9-51.2 51.2-51.2 51.2 22.9 51.2 51.2" style="fill:url(#aureus_svg__a)"/><linearGradient id="aureus_svg__b" x1="656.023" x2="121.467" y1="42.967" y2="283.272" gradientTransform="matrix(1 0 0 -1 0 514)" gradientUnits="userSpaceOnUse"><stop offset="0" style="stop-color:#cf8ea3"/><stop offset=".295" style="stop-color:#a365c8"/><stop offset=".397" style="stop-color:#8660d5"/><stop offset=".716" style="stop-color:#4956f0"/><stop offset="1" style="stop-color:#3cade8"/></linearGradient><path d="M413.4 490.9h.4c75.4-.2 122.6-81.8 84.9-147.3L341.2 69.8c-37.8-65.7-132.5-65.7-170.3 0L13.2 343.7c-37.5 65.2 9.2 146.6 84.3 147.3h.8l-.1.5h94.5c10 0 13.6-13.3 4.9-18.3l-55.2-31.8c-12.2-7-19.7-20-19.7-34V297.1c0-14 7.5-27 19.7-34l95.9-55.2c12.1-7 27-7 39.2 0l95.9 55.2c12.2 7 19.7 20 19.7 34v110.2c0 14-7.5 27-19.7 34l-55.2 31.8c-8.7 5-5.1 18.3 4.9 18.3h86.3v-.6c.9.1 1.7.1 2.4.1z" style="fill:url(#aureus_svg__b)"/><linearGradient id="aureus_svg__c" x1="633.532" x2="98.976" y1="-7.066" y2="233.239" gradientTransform="matrix(1 0 0 -1 0 514)" gradientUnits="userSpaceOnUse"><stop offset="0" style="stop-color:#cf8ea3"/><stop offset=".295" style="stop-color:#a365c8"/><stop offset=".397" style="stop-color:#8660d5"/><stop offset=".716" style="stop-color:#4956f0"/><stop offset="1" style="stop-color:#3cade8"/></linearGradient><path d="M257.9 401.3c27.1 0 49.1-22 49.1-49.1s-22-49.1-49.1-49.1-49.1 22-49.1 49.1 22 49.1 49.1 49.1" style="fill:url(#aureus_svg__c)"/></svg>