<svg xmlns="http://www.w3.org/2000/svg" xml:space="preserve" viewBox="0 0 512 512"><path d="M371.3 65.3c-1.1.2-5.7 1-10.3 1.9-4.5.9-11.6 2.9-15.8 4.4s-10.7 4.4-14.6 6.3c-3.9 2-9.1 4.9-11.4 6.5-2.4 1.6-6.5 4.8-9.1 7s-7.4 7-10.6 10.6-7.6 9.1-9.7 12.4-5.2 8.8-6.9 12.2c-1.7 3.5-4.1 9.5-5.5 13.4s-3.6 11.4-4.9 16.6c-2 8.1-2.4 11.5-2.8 23.3-.3 10.4-.2 14.6.6 16.9.7 2 2 3.8 3.8 5 1.7 1.1 3.9 1.8 5.9 1.8 2.2 0 4.1-.7 6.3-2.3 1.7-1.2 6.4-5.1 10.4-8.5s9.1-7.4 11.4-8.8 8.2-4.3 13.2-6.5 10-4.6 11-5.4c1.2-.9 3.2-4.4 5.1-8.9 1.7-4.1 4-9 5-11s4.8-6.4 8.3-9.9 8-7.1 9.9-8c2-.9 5.9-2.4 8.7-3.4 3.5-1.2 7.9-1.9 13.8-2.2 5.3-.3 11.1-.1 15 .5 3.5.5 8.8 2 11.8 3.3 3.5 1.4 7.7 4.1 11.4 7.2 3.2 2.7 7.7 7.4 10.1 10.4s5.4 8 6.9 11 3.6 8.4 4.7 11.8 2.7 9.1 3.4 12.6c1 4.7 1.4 10.2 1.4 21.7 0 12-.3 16.9-1.4 22.1-.8 3.7-2.3 9.4-3.4 12.6-1.1 3.3-3.7 9.5-5.9 13.8s-6.2 11.1-9 15-10.8 14-17.8 22.5-14.6 18-16.9 21.3-5.8 8.9-7.8 12.6-4.6 9.5-5.9 13-2.9 9-3.6 12.2c-.7 3.3-1.8 9.8-2.4 14.6s-1.6 9.7-2.3 11c-.6 1.3-2.1 3-3.2 3.7-1.1.8-3 1.4-4 1.4-1.1 0-4.1-.9-6.7-2-2.9-1.2-6.3-2-8.9-2-2.9 0-4.7.4-6.1 1.5-1.1.8-4.5 5.2-7.7 9.7-3.1 4.5-8.9 11.8-12.8 16.3-3.9 4.4-7.3 9.1-7.6 10.3s-.3 4.3-.1 6.9c.4 4.4.6 4.9 3.8 7.8 1.9 1.7 7.4 5 12.1 7.3 4.8 2.3 11.5 4.9 15 5.8s10.2 1.8 15 2.1c6.3.3 10.7.1 16-.8 4-.7 10.4-2.4 14.2-3.8s9.9-4.3 13.5-6.5c4.3-2.6 8.6-6.1 12.6-10.3 3.3-3.5 7.5-8.8 9.3-11.8s4.4-8.5 5.8-12.2 3.1-9.2 3.7-12.2 1.6-9.2 2.2-13.8c.6-4.5 1.6-9.7 2.2-11.4s2.7-5.6 4.7-8.7c2-3 6.8-9.2 10.6-13.8 3.8-4.5 10.5-12.7 14.9-18.1s10.3-13.4 13.2-17.7 7-11.3 9.2-15.4 5.6-11.2 7.5-15.8 4.7-12.9 6.3-18.5c1.5-5.6 3.5-13.6 4.2-17.7 1.2-6.2 1.4-11.6 1.4-30.4s-.3-24.2-1.4-30.4c-.8-4.1-2.1-10.3-3-13.8s-2.5-9.1-3.6-12.6-3.5-9.7-5.3-13.8-5.3-10.9-7.7-15-6.7-10.3-9.5-13.8-8.2-9.3-12.1-12.9c-3.9-3.7-8.8-7.9-11-9.6-2.2-1.6-7-4.5-10.6-6.5s-9.9-4.8-13.8-6.4-10.6-3.7-15-4.8c-4.3-1.1-11.6-2.4-16.2-2.8-4.5-.4-13.1-.7-18.9-.7-5.6.3-11.3.5-12.3.6m-211.8 62.1c-3 .6-8.7 2.3-12.6 3.9s-9.2 4.4-11.8 6.3-6.9 5.7-9.5 8.4c-2.6 2.8-6.6 8-8.8 11.7s-5.4 9.7-7 13.4-3.9 10.4-5.2 15c-1.3 4.5-3 12.4-3.8 17.3-.8 5-1.9 12.6-2.4 17-.5 4.3-1.6 10.5-2.5 13.8-.9 3.2-2.9 8.4-4.5 11.4s-5 7.8-7.6 10.6-7.2 6.7-10.3 8.7c-3 2-8.3 4.8-11.6 6.2-3.4 1.4-7.6 2.8-9.5 3-2.6.4-4.5 0-8.5-1.6-2.8-1.2-6.9-3.4-9.1-5.1-2.2-1.6-5-4.1-6.3-5.3s-4.1-3.7-6.1-5.3c-2.4-1.9-4.6-2.9-6.1-2.9-1.3 0-4 1-5.9 2.2-2.2 1.4-4.1 3.3-5.1 5.3-.9 1.7-2.3 7.2-3.2 12.2s-1.9 13-2.1 17.7c-.3 5.1-.1 11.6.5 15.8.5 3.9 1.5 9.1 2.2 11.4.9 2.9 2.3 5.3 4.3 7.3 1.7 1.6 5.6 4.2 8.7 5.7s8.9 3.7 12.8 4.8 9.8 2.3 13 2.7c3.8.4 8.6.3 13.4-.3 4.1-.5 9.8-1.6 12.6-2.3s8-2.2 11.4-3.3c3.5-1.1 9.3-3.4 13-5.1s9.5-4.8 13-6.7c3.5-2 9.1-5.8 12.6-8.5s9.4-8.1 13.2-12.1 8.8-10.1 11.1-13.7 5.8-9.5 7.6-13.2 4.2-8.9 5.2-11.6 2.5-7.9 3.4-11.4c.8-3.6 2.6-14.1 3.9-23.5 1.3-9.3 3.1-19.3 3.9-22.1s2.2-6.8 3.2-8.9c.9-2.1 2.3-4 3-4.3.9-.4 1.7 0 2.7 1.4.8 1.1 2.3 4.6 3.5 7.9 1.1 3.2 2.7 9.5 3.5 13.8s1.7 13 2 19.3.8 25.8 1.3 43.4c.4 18.2 1.3 36.5 2 42.6.7 5.9 1.9 14.2 2.8 18.5s2.1 10 2.8 12.6 2.5 8.1 4 12.2 5 11.4 7.6 16.1c3.8 6.7 6.4 10.3 11.9 15.9 5.9 6 8.3 7.8 14.2 10.8 3.9 1.9 9.4 4.3 12.2 5.3 3.8 1.3 7.8 1.8 15.4 2.1 7.5.3 11.8.1 15.8-.8 3-.6 8-2.2 11-3.4s7.6-3.5 10.3-5c2.6-1.5 7.2-5.3 10.3-8.3 3-3.1 7.4-8.4 9.7-11.9s5.2-8.4 6.5-11 3.6-8.6 5.1-13.4c1.6-4.8 3.9-13.8 5.1-20.1 1.3-6.3 2.8-18.2 3.5-26.4s1.6-19.4 2.1-24.8 1.7-13 2.7-17c1-3.9 2.7-9.1 3.7-11.4 1.1-2.4 3.1-5.7 4.6-7.4s3.5-3.4 4.5-3.7c1.2-.4 2.7-.3 4.3.4 1.4.6 3.5 2.3 4.6 3.7 1.1 1.5 3.1 4.8 4.4 7.4s3.5 8.4 4.8 12.8c1.9 6.3 3 8.5 4.8 10.1 1.8 1.5 3.3 2 6.3 2 2.2 0 4.9-.5 6.1-1.1s4.5-3.5 7.3-6.5 7.1-8.1 9.6-11.3c2.4-3.3 6-8.8 8-12.2 2-3.5 4.7-9.2 6-12.8s2.4-7.9 2.4-9.7-.6-4.7-1.3-6.5-2.6-5.3-4.1-7.7c-1.6-2.4-5.5-7.1-8.7-10.6-3.2-3.4-8-7.7-10.6-9.4-2.6-1.8-7.6-4.5-11-6.1-3.5-1.6-8.3-3.5-10.6-4.2-2.7-.8-8.4-1.5-15.4-1.8-6.4-.3-14-.1-18.1.5-5.3.7-9 1.8-14.6 4.2-4.1 1.8-10 5-13 7s-7.5 5.8-10 8.3-6.4 7.2-8.7 10.5c-2.3 3.2-6 9.6-8.3 14.2-2.2 4.5-5 11.3-6.1 15-1.2 3.7-2.9 10.6-4 15.4-1 4.8-2.2 11.5-2.7 15s-1.4 13.9-2 23.3c-.7 9.3-1.8 20.3-2.4 24.4s-2.3 10.7-3.5 14.6c-1.3 3.9-2.9 7.9-3.7 8.9-1.3 1.7-1.4 1.8-2.7.4-.7-.8-2.4-4.4-3.7-8.1s-3.1-10.6-3.9-15.4c-.9-4.8-1.8-13.1-2-18.5-.3-5.4-.8-25.5-1.3-44.6-.5-21.6-1.3-38.3-2-44.2-.7-5.2-2.1-13.7-3.2-18.9s-3.2-13-4.6-17.3-4.4-11.4-6.5-15.8-6.1-10.6-8.6-13.8c-2.6-3.3-6.6-7.6-9-9.7s-6.1-4.8-8.2-6.1c-2.2-1.2-6.4-3.2-9.5-4.3-3-1.2-8.2-2.6-11.4-3.2-3.3-.6-9.3-1.1-13.4-1-4.2-.2-10 .3-13.1.8" style="opacity:.99"/></svg>