<svg xmlns="http://www.w3.org/2000/svg" xml:space="preserve" viewBox="0 0 512 512"><path d="M448.2 112.7V334c0 17.9-4.9 47.1-28.2 84.5-14.9 24.1-34.4 45.9-50.8 56.9-20.3 13.7-62 36.6-113.2 36.6s-92.9-22.9-113.2-36.6c-16.3-11-35.8-32.8-50.8-56.9C68.7 381 63.8 351.9 63.8 334V112.6c0-20.3 14-28.4 20.8-32.3.8-.4 1.5-.8 2-1.1 3.6-2.2 22.8-12.4 52.3-21.8 12.1-3.9 24.4-7.1 36.8-9.8-.3 1.6-.6 3.2-.8 4.9v.1q-.15 1.65-.3 4.8c-47.7 10.8-79.1 27.4-83 29.8-5.8 3.6-18.4 8.7-18.4 25.6V334c0 53.1 46.4 114.6 74.9 133.7s66.8 35 108 35 79.6-15.8 108-35S439 387.1 439 334V112.7c0-16.9-12.6-22-18.4-25.6-3.8-2.4-34.7-18.7-81.7-29.5-.1-2.3-.2-4.1-.3-5.3-.2-1.5-.5-3-.8-4.5 12 2.6 23.9 5.8 35.4 9.6 29.4 9.5 48.7 19.7 52.2 21.9.6.3 1.3.7 2 1.1 6.8 3.9 20.8 11.9 20.8 32.3M375 410.6h-20c-6.1 7-12 12.6-17.2 16.2-4.7 3.3-9.8 6.6-15.1 9.5-1.5.9-3.1 1.7-4.7 2.5l-2.4 1.2c-8 4-16.6 7.3-25.6 9.9-.9.3-1.8.5-2.7.7-3.5.9-7.2 1.7-10.8 2.3l-3.8 13.5-14.5 5.9-14.5-5.9-3.6-12.8c-25-3.4-47.9-14.2-65.7-26.8-21.5-15.2-56.7-64.1-56.7-106.4V144.2c0-13.5 9.5-17.5 13.9-20.4 2.3-1.5 17.1-9.8 40.6-17.5.6-.8 1.4-1.8 2.4-2.9-.1-4.5-.2-12.3-.2-20.4-35.1 9.4-57.9 21.7-61 23.7-5.1 3.2-16 7.7-16 22.7v196.3c0 47.1 40.3 101.5 65 118.6s57.9 31.1 93.7 31.1 69-14.1 93.7-31.1c10-6.9 22.6-20 34-36.2-2.6 1.6-5.6 2.5-8.8 2.5m23.8-303.9c-3-1.9-25.3-14-59.7-23.3 0 8-.1 15.5-.2 20 1.2 1.4 2.2 2.6 2.9 3.5 22.5 7.5 36.6 15.5 38.9 16.9 4.4 2.9 13.9 6.9 13.9 20.4v176.2c0 11.1-2.4 22.6-6.4 33.9 2.4 2.9 3.9 6.7 3.9 10.8v28.5c0 .8-.1 1.5-.2 2.2 13-21.5 23-46.7 23-70.1V129.4c-.1-15-11.1-19.5-16.1-22.7m-25.2 210.7c0 1-1 3.2-1 3.2l-28.7 28-12.6-11.4 21.4-18.7 2.2-3.9-32.9-59.8-57.2 204.6-6.6 2.7-6.6-2.7-57.2-204.6-32.9 59.8 2.3 3.9 21.4 18.7-12.6 11.4-28.7-28s-1-2.2-1-3.2 1-2.7 1-2.7l42.8-86.1s3.2-11.4 4.4-13.6c.5-1 2.2-3.3 4-5.7-.5-.8-.7-1.2-.7-1.2l-1-48.1s-12.2-7.8-15.2-13.7c.2-3-.5-30.3 0-31.9s5.9-7.4 5.9-7.4-.7-45.3.2-53.4c1-8.1 4.6-22.3 24.5-38.6S254.3.6 256.7 0c2.4.6 28-1.5 47.9 14.9s23.5 30.6 24.5 38.6c1 8.1.2 53.4.2 53.4s5.4 5.8 5.9 7.4-.2 28.9 0 31.9c-3 6-15.2 13.7-15.2 13.7l-.9 46.1.1.1c2.3 3 5.6 7.5 6.4 8.9 1.2 2.2 4.4 13.6 4.4 13.6l42.8 86.1c-.2.1.8 1.8.8 2.7M201.4 92.9c0 2.6 2.6.9 2.6.9s28.6-14.6 37-16.9c6.4-1.7 14.7-1.8 17.1-1.7-.5 0-.5.1.1.1.7 0 .6 0-.1-.1 1.9-.1 10.7-.2 17.3 1.6 8.4 2.4 37 17 37 17s2.6 1.7 2.6-.9c0-2.7.1-30.5-.5-35.3s-2-19-19.7-32.9-36.6-12.1-36.6-12.1-19-1.9-36.6 12.1-19.1 28.1-19.7 32.9-.5 32.7-.5 35.3m99.8 11s-27.7-12.6-30.9-13.6-12.1-1.7-12.1-1.7-8.9.7-12.1 1.7c-3.1.9-30.9 13.6-30.9 13.6l38.2 19.2c1.5.7 3.2 1.1 4.8 1 1.7 0 3.3-.3 4.8-1zm-93.4 23.9s-.3 4.1 0 17 5.9 32.3 9.5 42.3 11.4 21.9 17.5 26.3 14.8 5.1 23.3 5.1 11.6 0 18.8-4.4 13.4-9.4 19.1-30.8 5.5-48.5 5.5-48.5-12.6 3.9-20.4 4.1c-4.1.1-10.1.1-15 .1v41h-16.7v-41.5c-6.2-.4-14.2-1-19.2-2.2-9-2.2-22.4-8.5-22.4-8.5m108.4 97.5-.7-3.9-3.2-4.1-.1-.1-.1.1c-3.9 4.3-9.9 9.8-18.7 16-20.6 14.5-36.7 13.5-36.7 13.5s-16 1-36.7-13.5c-6-4.1-11.7-8.9-16.9-14.1l-1.7 2.2-.8 3.9 36.5 133.3 13.9-66.4s-9-5.3-9.7-15.3 5.6-12.9 7.8-14.4 9.3-2.2 9.3-2.2 7.1.7 9.3 2.2 8.5 4.4 7.8 14.4-9.7 15.3-9.7 15.3l13.9 66.4zm-50.1-35.6h-16.7v3.9h16.7zM383 365.1v28.5c0 4.4-3.6 8-8 8h-46.5c-4.4 0-8-3.6-8-8v-28.5c0-4.4 3.6-8 8-8H375c4.4 0 8 3.6 8 8m-10.4 4.9c0-.7-.6-1.3-1.3-1.3h-37.8c-.8 0-1.4.6-1.3 1.3v18.4c0 .7.6 1.3 1.3 1.3h37.8c.7 0 1.3-.6 1.3-1.3zm-35.9 5.6v7.9c0 .4.3.7.7.7h28.5c.4 0 .7-.3.7-.7v-7.9c0-.4-.3-.7-.7-.7h-28.5c-.3 0-.6.3-.7.7"/></svg>