<svg xmlns="http://www.w3.org/2000/svg" xml:space="preserve" viewBox="0 0 512 512"><path d="M467.7 38.8c-76.8-.5-153.6-.6-230.3-.5-60 6.5-109.7 32.5-149.2 78C38 180.3 25.4 251 50.6 328.5c-3.3 7.2-7.1 14.2-11.3 20.9-10.8 16.6-22 32.9-33.6 49-2.4 4.9-4.2 10.1-5.4 15.4-2.3 31 11.5 50.8 41.3 59.4 76.8.6 153.6.6 230.3 0 69.7-6.8 124.6-38.7 164.6-95.7 38.7-59.7 47-123.3 24.9-190.9 13-25.3 28-49.3 44.9-72.1 2.6-4.9 4.4-10 5.4-15.4 2.7-32.9-12-53-44-60.3m3.2 58.5c-3.3 4.8-6.6 9.7-10 14.5-12.8 22.7-26.1 45-39.9 67.1-.6 3-.6 6 0 9.1 25.6 70.1 14.1 133.3-34.5 189.5-32.3 33.6-71.7 52.5-118.3 56.7-73.5.6-146.9.6-220.4 0-7.1-3-9.6-8.3-7.7-15.9 16.2-22.5 31.3-45.8 45.3-69.8 1.8-4.2 3.6-8.5 5.4-12.7.6-4.2.6-8.5 0-12.7-25.5-69-14.6-131.5 32.6-187.7 32.4-33.8 71.8-53.1 118.3-58 74.1-.2 148.1 0 222.2.5 9.4 3.9 11.7 10.4 7 19.4M235.6 110c19.8.9 27.2 10.9 22.2 29.9-3.3 5.8-8.3 9.3-15 10.4-19.8 2.5-37.7 9.8-53.5 21.8-4.8 4.2-9.7 8.5-14.5 12.7-9.8 4.3-18.4 2.6-25.8-5-5.7-9-5.4-17.8.9-26.3 23.9-23.5 52.5-38 85.7-43.5m57.1 7.3c8-.9 15.5.5 22.7 4.1 58.9 28.4 88.7 75.4 89.3 141-5.4 15.2-15.6 19.6-30.4 13.1-3.9-3-6.8-6.8-8.6-11.3-1.4-54.6-27.5-91.6-78.4-111.1-12.3-14.1-10.5-26.1 5.4-35.8m-166 82.5c15.5-2.2 24.2 4.3 26.3 19.5-1.4 8.3-3.1 16.6-5 24.9-.3 9.4-.6 18.7-.9 28.1q-6.15 18.9-25.8 15-12.15-4.8-14.1-17.7c-1.5-19.8.9-39.2 7.3-58 2.8-5.4 6.9-9.3 12.2-11.8m200.9 32.7c-16.2-35.5-43.8-51.8-83-49q-40.2 8.7-57.6 46.2c-10 28.4-5.8 54.4 12.7 78q41.4 42 94.8 15.9c32.7-22.3 43.8-52.7 33.1-91.1m-77.5 60.3c-20.3-6.2-29.6-19.9-27.7-41.3 3.6-14 12.2-23.1 25.8-27.2 20.8-2.5 34.9 5.9 42.2 25.4 2.5 29.3-11 43.6-40.3 43.1m112.4 11.3c14.2-.6 22.3 6 24.5 20-.1 2.8-.6 5.5-1.4 8.2-8.4 14.4-18.8 27.3-31.3 38.5-10.7 6.5-20.2 5.1-28.6-4.1-4.5-8.7-4.2-17.2.9-25.4 9.2-7.7 16.8-16.8 22.7-27.2 3.6-4.7 8-8 13.2-10m-166.8 51.7c3.9-.2 7.9 0 11.8.5 20.1 9.6 41.3 13.1 63.5 10.4 12.6.4 19.6 6.9 20.9 19.5-.7 10.1-5.8 16.7-15.4 20-29.8 4.2-58.2-.4-85.2-13.6-9.7-8.5-11.4-18.3-5-29.5 2.8-2.8 6-5.3 9.4-7.3" style="fill-rule:evenodd;clip-rule:evenodd;fill:#fff"/></svg>