<?xml version="1.0" encoding="utf-8"?>
<!-- Generator: Adobe Illustrator 28.2.0, SVG Export Plug-In . SVG Version: 6.00 Build 0)  -->
<svg version="1.1" id="Layer_1" xmlns="http://www.w3.org/2000/svg" xmlns:xlink="http://www.w3.org/1999/xlink" x="0px" y="0px"
	 viewBox="0 0 512 512" style="enable-background:new 0 0 512 512;" xml:space="preserve">
<style type="text/css">
	.st0{fill:#FFFFFF;}
</style>
<path class="st0" d="M228.9,490c-1.4,0-2.7,0-3.9-0.1c-1.7-0.1-3.4-0.9-4.7-2.1c-41.9-40.3-70.4-60.5-138.3-80.6
	c-5.8-1.3-12.8-3.5-16.5-9.5c-3.7-6.1-2.4-13.2-0.5-20c0.1-0.5,0.3-0.9,0.5-1.4c12.5-24.4,19-46.7,19.3-66.2
	c0.2-10.5-1.4-18.7-3.6-24.9c-10.6,9-27.2,19.7-44.2,17c-12.7-2-23-10.9-30.6-26.3c-8.3-16.8-8.6-31.3-0.8-43
	c12.2-18.4,41.1-23.4,60.3-23.5c1.8-7.8,5.3-16.8,9.8-25.3c8.5-15.8,20.2-29.7,34.9-41.4l4.7,5.9l-4.7-5.9
	c8.6-6.8,22.1-11.5,41.5-14.3c15.7-2.3,35.2-3.3,58-2.9c45.1,0.7,88.5,6.1,107.7,8.8c2.4-7.1,5.4-12.8,10.1-19.2
	c-20.7-4.1-49.2-4.5-108.7-2c-0.5,0-1,0-1.5-0.1c-10.2-1.6-18.6-7.3-24.5-16.5c-4.9-7.8-7.6-17.8-7.7-28.2
	c-0.1-10.6,2.6-20.8,7.4-28.8c5.8-9.5,14.3-15.5,24.6-17.3c0.4-0.1,0.9-0.1,1.3-0.1c38.1,0,75.5,4.2,111.2,12.5
	c31.8,7.4,61.4,17.8,88.1,31c48.5,24,82.2,55.2,88,81.5c7.2,33,7.1,36.8,3,45.2c-0.9,1.9-2,4.2-3.1,8.4c-0.1,0.3-0.2,0.6-0.3,0.9
	c-12.4,30.8-45.6,55.9-57.1,59.8c-8.6,2.9-33.7,1.8-47.6,0.8c-16.2,69.3-37.2,101-90.3,138.3c-0.5,0.3-1,0.6-1.6,0.9
	c-14.2,5.5-32.2,10.8-45.8,2.8c-9.9-5.8-15.9-17.5-18.4-35.8c-0.2-1.7,0.1-3.3,0.9-4.8l11-19c0.8-1.3,1.9-2.4,3.4-3.1l13.8-6.4
	c5-9.5,4.7-14.1,0.5-21.8c-7.3-1.6-11.5-1.5-16.9-0.2c-9.1,17.4-17.2,28.5-26.8,36.8c-9.3,8-20.3,13.6-35.9,18.1v2l42.7,23.4
	c0.6,0.3,1.2,0.8,1.7,1.3l38,38c1.4,1.4,2.1,3.2,2.2,5.1c0.5,16.3-4.2,29.3-14,38.7C255,486.5,240.4,490,228.9,490z M228.7,475
	c0.1,0,0.1,0,0.2,0c8.1,0,18.9-2.4,26.4-9.6c6-5.8,9.2-14,9.4-24.4l-35.1-35.1l-45.6-25c-2.4-1.3-3.9-3.8-3.9-6.6v-12.2
	c0-3.4,2.3-6.4,5.6-7.3c31.1-8,43.5-18.6,60.1-51.6c0.9-1.8,2.6-3.2,4.6-3.8c11.1-3.3,18.4-3.3,31-0.1c1.9,0.5,3.6,1.7,4.6,3.4
	c9.1,15.3,9.1,25.4,0.1,41.6c-0.8,1.4-2,2.5-3.4,3.2l-13.9,6.4l-8.5,14.7c1.9,11.8,5.5,19.3,10.7,22.3c6.1,3.6,16.2,2.5,31.9-3.5
	c51.1-36,69.4-65.2,85-135c0.8-3.7,4.2-6.2,7.9-5.9c19.2,1.5,43,2.1,48,0.4c7.9-2.7,37.2-24.9,47.8-50.8c1.4-5.4,2.9-8.4,4-10.7
	c1.9-3.8,2.5-5.1-4.2-35.5c-2.1-9.7-10.4-21.6-23.3-33.6c-14.4-13.4-34-26.4-56.7-37.6C357,52,288.9,37.1,219.6,37
	c-13.3,2.7-19.1,17.5-19,31.1c0.1,13.2,6,27.4,18.8,29.8c73.1-3,99.8-1.8,123.9,5.4c2.4,0.7,4.4,2.6,5.1,5.1c0.7,2.5,0.1,5.1-1.5,7
	c-10.5,12.2-13.5,18.2-16.5,29.1c-1,3.7-4.6,6-8.4,5.4c-13.6-2.1-61.8-8.9-112.1-9.6c-61.8-0.9-82.9,8.4-89.9,14v0
	c-12.9,10.3-23.6,23-31,36.8c-6,11.2-8.7,21.1-9.3,26.6c-0.4,4-3.9,7-7.9,6.8c-16.5-0.9-44.5,2.7-53.7,16.7c-4.6,6.9-4,16.3,1.8,28
	c5.3,10.8,11.9,16.9,19.5,18.1c15.7,2.5,33.8-14.7,39-20c1.6-1.7,4-2.5,6.3-2.2c2.3,0.3,4.4,1.7,5.6,3.7c4.6,7.9,9.9,21.5,9.6,41.5
	c-0.4,21.6-7.3,45.9-20.6,72.1c-1.6,6-1,7.3-0.9,7.5c0,0.1,0.9,1.3,7,2.7c0.2,0,0.4,0.1,0.6,0.1c34.8,10.3,58.9,20.2,80.6,33.1
	C186.4,437.5,204.5,451.9,228.7,475z M70.2,150h-41c-11.6,0-21.1-9.4-21.1-21.1s9.4-21.1,21.1-21.1h41c11.6,0,21.1,9.4,21.1,21.1
	S81.8,150,70.2,150z M132.5,89.4H66.6C55,89.4,45.6,80,45.6,68.3S55,47.3,66.6,47.3h65.9c11.6,0,21.1,9.4,21.1,21.1
	S144.1,89.4,132.5,89.4z M438.3,129.8c12.6,0,22.9,10.2,22.9,22.9c0,12.6-10.2,22.9-22.9,22.9c-12.6,0-22.9-10.2-22.9-22.9
	C415.4,140.1,425.6,129.8,438.3,129.8z"/>
</svg>
