<svg xmlns="http://www.w3.org/2000/svg" xml:space="preserve" viewBox="0 0 512 512"><path d="M228.9 490c-1.4 0-2.7 0-3.9-.1-1.7-.1-3.4-.9-4.7-2.1-41.9-40.3-70.4-60.5-138.3-80.6-5.8-1.3-12.8-3.5-16.5-9.5-3.7-6.1-2.4-13.2-.5-20 .1-.5.3-.9.5-1.4 12.5-24.4 19-46.7 19.3-66.2.2-10.5-1.4-18.7-3.6-24.9-10.6 9-27.2 19.7-44.2 17-12.7-2-23-10.9-30.6-26.3-8.3-16.8-8.6-31.3-.8-43 12.2-18.4 41.1-23.4 60.3-23.5 1.8-7.8 5.3-16.8 9.8-25.3 8.5-15.8 20.2-29.7 34.9-41.4l4.7 5.9-4.7-5.9c8.6-6.8 22.1-11.5 41.5-14.3 15.7-2.3 35.2-3.3 58-2.9 45.1.7 88.5 6.1 107.7 8.8 2.4-7.1 5.4-12.8 10.1-19.2-20.7-4.1-49.2-4.5-108.7-2-.5 0-1 0-1.5-.1-10.2-1.6-18.6-7.3-24.5-16.5-4.9-7.8-7.6-17.8-7.7-28.2-.1-10.6 2.6-20.8 7.4-28.8 5.8-9.5 14.3-15.5 24.6-17.3.4-.1.9-.1 1.3-.1 38.1 0 75.5 4.2 111.2 12.5 31.8 7.4 61.4 17.8 88.1 31 48.5 24 82.2 55.2 88 81.5 7.2 33 7.1 36.8 3 45.2-.9 1.9-2 4.2-3.1 8.4l-.3.9c-12.4 30.8-45.6 55.9-57.1 59.8-8.6 2.9-33.7 1.8-47.6.8-16.2 69.3-37.2 101-90.3 138.3-.5.3-1 .6-1.6.9-14.2 5.5-32.2 10.8-45.8 2.8-9.9-5.8-15.9-17.5-18.4-35.8q-.3-2.55.9-4.8l11-19c.8-1.3 1.9-2.4 3.4-3.1l13.8-6.4c5-9.5 4.7-14.1.5-21.8-7.3-1.6-11.5-1.5-16.9-.2-9.1 17.4-17.2 28.5-26.8 36.8-9.3 8-20.3 13.6-35.9 18.1v2l42.7 23.4c.6.3 1.2.8 1.7 1.3l38 38c1.4 1.4 2.1 3.2 2.2 5.1.5 16.3-4.2 29.3-14 38.7-10.5 10-25.1 13.5-36.6 13.5m-.2-15h.2c8.1 0 18.9-2.4 26.4-9.6 6-5.8 9.2-14 9.4-24.4l-35.1-35.1-45.6-25c-2.4-1.3-3.9-3.8-3.9-6.6v-12.2c0-3.4 2.3-6.4 5.6-7.3 31.1-8 43.5-18.6 60.1-51.6.9-1.8 2.6-3.2 4.6-3.8 11.1-3.3 18.4-3.3 31-.1 1.9.5 3.6 1.7 4.6 3.4 9.1 15.3 9.1 25.4.1 41.6-.8 1.4-2 2.5-3.4 3.2l-13.9 6.4-8.5 14.7c1.9 11.8 5.5 19.3 10.7 22.3 6.1 3.6 16.2 2.5 31.9-3.5 51.1-36 69.4-65.2 85-135 .8-3.7 4.2-6.2 7.9-5.9 19.2 1.5 43 2.1 48 .4 7.9-2.7 37.2-24.9 47.8-50.8 1.4-5.4 2.9-8.4 4-10.7 1.9-3.8 2.5-5.1-4.2-35.5-2.1-9.7-10.4-21.6-23.3-33.6-14.4-13.4-34-26.4-56.7-37.6C357 52 288.9 37.1 219.6 37c-13.3 2.7-19.1 17.5-19 31.1.1 13.2 6 27.4 18.8 29.8 73.1-3 99.8-1.8 123.9 5.4 2.4.7 4.4 2.6 5.1 5.1s.1 5.1-1.5 7c-10.5 12.2-13.5 18.2-16.5 29.1-1 3.7-4.6 6-8.4 5.4-13.6-2.1-61.8-8.9-112.1-9.6-61.8-.9-82.9 8.4-89.9 14-12.9 10.3-23.6 23-31 36.8-6 11.2-8.7 21.1-9.3 26.6-.4 4-3.9 7-7.9 6.8-16.5-.9-44.5 2.7-53.7 16.7-4.6 6.9-4 16.3 1.8 28 5.3 10.8 11.9 16.9 19.5 18.1 15.7 2.5 33.8-14.7 39-20 1.6-1.7 4-2.5 6.3-2.2s4.4 1.7 5.6 3.7c4.6 7.9 9.9 21.5 9.6 41.5-.4 21.6-7.3 45.9-20.6 72.1-1.6 6-1 7.3-.9 7.5 0 .1.9 1.3 7 2.7.2 0 .4.1.6.1 34.8 10.3 58.9 20.2 80.6 33.1 19.8 11.7 37.9 26.1 62.1 49.2M70.2 150h-41c-11.6 0-21.1-9.4-21.1-21.1s9.4-21.1 21.1-21.1h41c11.6 0 21.1 9.4 21.1 21.1S81.8 150 70.2 150m62.3-60.6H66.6c-11.6 0-21-9.4-21-21.1s9.4-21 21-21h65.9c11.6 0 21.1 9.4 21.1 21.1s-9.5 21-21.1 21m305.8 40.4c12.6 0 22.9 10.2 22.9 22.9 0 12.6-10.2 22.9-22.9 22.9-12.6 0-22.9-10.2-22.9-22.9 0-12.6 10.2-22.9 22.9-22.9" style="fill:#fff"/></svg>