<svg xmlns="http://www.w3.org/2000/svg" xml:space="preserve" viewBox="0 0 512 512"><path d="M512 305.2v-98.3c-50.7 0-76-61.3-40.2-97.1l-69.5-69.5C366.4 76 305.2 50.7 305.2 0h-98.3c0 50.7-61.3 76-97.1 40.2l-69.5 69.5C76 145.5 50.7 206.8 0 206.8v98.3c50.7 0 76 61.3 40.2 97.1l69.5 69.5c35.8-35.8 97.1-10.5 97.1 40.2h98.3c0-50.7 61.3-76 97.1-40.2l69.5-69.5c-35.8-35.8-10.4-97 40.3-97M295.3 134.3c-5.1-11-13.8-16.3-26.2-15.7-24.8 4.1-44.8 16.4-60.2 36.6-35.8 52.7-47.2 110.3-34 172.7 14.6 49.8 46.4 66 95.5 48.5 13.4-6.9 25.6-15.1 36.6-24.9 14.9 6.3 18.8 16.7 11.8 31.4-40.8 35.7-85.7 42.2-134.8 19.6-28.7-23-44.8-53.1-48.4-90.3-7.8-67.1 8.7-127.3 49.7-180.6 19.9-22 43.9-36.8 72-44.5 45.2-6.2 70.5 12.9 75.9 57.6-10.1 50.3-39.8 82.9-89 98.1-12 3.7-24.2 4.6-36.6 2.6-3.7-1.2-6.8-3.4-9.2-6.5-1.8-7.8-1.8-15.7 0-23.5 37.3 4.1 66.9-9.9 89-41.9 8-12 10.6-25.1 7.9-39.2"/></svg>