<svg xmlns="http://www.w3.org/2000/svg" xml:space="preserve" viewBox="0 0 512 512"><path d="M115.3 148.5c31.6-25.2 151.7-14.4 207.8-5.9 3.5-12.4 7.2-19.4 18.1-32.1-23.2-6.9-49.9-8-122.3-5-34.4-5.3-34.4-70.1 0-76 159.1 0 270.1 74.2 279.9 119s4.8 31.5 0 50.2c-11.5 28.7-43 52.2-52.5 55.5s-51.1 0-51.1 0c-16.1 72.1-35.9 103-88.8 140.1-29.8 11.6-49 10.1-54-27l11-19 16-7.4c8-14.3 7.4-21.7 0-34.1-11.5-2.9-17.4-2.9-27 0-17.4 34.5-31.5 46.9-65 55.5v12.2L234 400l38 38c1.2 38.5-30.6 45.7-46.6 44.5-45-43.5-74.9-62.7-141.6-82.5-13.3-2.9-15.1-7.7-11.6-20.2 29.5-57.7 20.4-91.9 11.6-107.2-14.8 15.3-49.9 42-70.7 0-23.2-47 30.9-57.1 59.1-55.5 1.3-12.4 11.5-43.4 43.1-68.6" style="fill:#dff0fe"/><path d="M228.8 490.1c-1.3 0-2.6 0-3.9-.1-1.8-.1-3.4-.9-4.7-2.1-41.7-40.4-70.2-60.5-138.2-80.7-5.8-1.3-12.8-3.5-16.4-9.6-3.7-6.1-2.4-13.2-.5-20 .1-.5.3-.9.5-1.4 12.5-24.4 19-46.7 19.3-66.2.2-10.5-1.4-18.7-3.6-24.9-10.6 9-27.2 19.7-44.2 17-12.7-2-23-10.9-30.7-26.3-8.3-16.8-8.6-31.3-.9-43 6.1-9.2 16.7-15.9 31.7-19.9 8.8-2.3 18.9-3.6 28.7-3.7 1.8-7.8 5.2-16.8 9.8-25.4 8.4-15.8 20.2-29.7 34.9-41.4 8.6-6.8 22.1-11.5 41.5-14.3 15.7-2.3 35.2-3.3 58-2.9 45.1.7 88.5 6.1 107.7 8.8 2.5-7.1 5.4-12.8 10.1-19.2-20.8-4.1-49.2-4.5-108.7-2-.5 0-1 0-1.5-.1-10.2-1.6-18.6-7.3-24.5-16.5-4.9-7.8-7.6-17.8-7.7-28.2-.1-10.6 2.6-20.8 7.4-28.8 5.8-9.5 14.3-15.5 24.6-17.3.4-.1.8-.1 1.3-.1 38.1 0 75.5 4.2 111.2 12.5 31.8 7.4 61.5 17.8 88.1 31 48.5 24 82.2 55.2 88 81.5 7.2 33 7.1 36.8 3 45.2-.9 2-2 4.2-3.1 8.4l-.3.9c-12.4 30.8-45.6 55.9-57.1 59.8-8.6 2.9-33.8 1.8-47.6.9-16.2 69.3-37.2 101-90.3 138.3-.5.3-1 .6-1.6.9-14.2 5.5-32.2 10.8-45.8 2.8-9.9-5.8-15.9-17.5-18.4-35.8q-.3-2.55.9-4.8l11-19c.8-1.3 1.9-2.4 3.4-3.1l13.8-6.4c5-9.5 4.7-14.1.5-21.8-6.9-1.6-11.1-1.6-16.9-.2-9.1 17.4-17.2 28.5-26.8 36.8-9.3 8-20.3 13.6-35.9 18.1v2l42.7 23.4c.6.3 1.2.8 1.7 1.3l38 38c1.4 1.4 2.1 3.2 2.2 5.1.5 16.3-4.2 29.3-14 38.7-10.5 10.2-25.2 13.8-36.7 13.8m-.2-15.1h.2c8.1 0 19-2.4 26.4-9.6 6-5.8 9.1-14 9.3-24.4l-35-35-45.7-25c-2.4-1.3-3.9-3.8-3.9-6.6v-12.2c0-3.4 2.3-6.4 5.6-7.3 31.1-8 43.5-18.6 60.2-51.6.9-1.8 2.6-3.2 4.5-3.8 11-3.3 18.3-3.3 31-.1 1.9.5 3.6 1.7 4.6 3.4 9.1 15.3 9.1 25.4.1 41.6-.8 1.4-2 2.5-3.4 3.2l-13.9 6.4-8.5 14.7c1.9 11.8 5.5 19.3 10.7 22.4 6.1 3.6 16.2 2.5 31.9-3.5 51.1-36 69.4-65.2 85-135.1.8-3.7 4.2-6.2 7.9-5.9 19.2 1.5 43.1 2.1 48 .4 7.9-2.7 37.3-25 47.8-50.8 1.4-5.4 2.9-8.4 4-10.7 1.8-3.9 2.5-5.2-4.2-35.5-2.1-9.7-10.4-21.6-23.3-33.6-14.4-13.4-34-26.4-56.7-37.6C357 51.9 288.9 37.1 219.6 37c-13.3 2.7-19.1 17.5-19 31.1.1 13.2 6 27.4 18.8 29.8 73-3 99.7-1.8 124 5.4 2.4.7 4.4 2.6 5.1 5.1.7 2.4.1 5.1-1.5 7-10.5 12.2-13.5 18.3-16.6 29.2-1 3.7-4.6 6-8.4 5.4-13.6-2.1-61.8-8.8-112.1-9.6-61.8-.9-82.9 8.4-89.9 14-12.9 10.3-23.6 23-31 36.8-6 11.3-8.7 21.2-9.3 26.7-.4 4-3.9 7-7.9 6.8-20.5-1.2-45.5 4.2-53.7 16.7-4.6 6.9-4 16.3 1.8 28 5.3 10.8 11.9 16.9 19.5 18.1 15.7 2.5 33.8-14.7 39-20 1.6-1.7 4-2.5 6.3-2.2s4.4 1.7 5.6 3.7c4.6 7.9 9.9 21.5 9.6 41.5-.4 21.6-7.3 45.9-20.6 72.1-1.6 6-1 7.3-.9 7.4 0 .1.9 1.3 7 2.7.2 0 .4.1.5.1 34.8 10.3 58.9 20.2 80.6 33.1 19.9 11.7 38 26 62.1 49.1M70.2 149.9h-41c-11.6 0-21.1-9.4-21.1-21.1s9.4-21.1 21.1-21.1h41c11.6 0 21.1 9.4 21.1 21.1s-9.5 21.1-21.1 21.1m62.3-60.5H66.6c-11.6 0-21-9.4-21-21.1s9.4-21 21-21h65.9c11.6 0 21.1 9.4 21.1 21.1s-9.4 21-21.1 21m305.8 40.4c12.6 0 22.9 10.2 22.9 22.9s-10.2 22.9-22.9 22.9c-12.6 0-22.9-10.2-22.9-22.9s10.3-22.9 22.9-22.9" style="fill:#4788c7"/></svg>