<svg xmlns="http://www.w3.org/2000/svg" xml:space="preserve" viewBox="0 0 512 512"><path d="M256 0C114.6 0 0 114.6 0 256s114.6 256 256 256 256-114.6 256-256S397.4 0 256 0m95.1 421c-8 3.3-17.9-2.4-22.2-12.7s-1.3-21.3 6.7-24.6 17.9 2.4 22.2 12.7 1.3 21.3-6.7 24.6m56.3-31.6c-8 3.3-17.9-2.4-22.2-12.7s-1.3-21.3 6.7-24.6 17.9 2.4 22.2 12.7 1.3 21.3-6.7 24.6m-25.3-184.8-14 86.3c-41.2 3.2-74.1 38.2-75.8 40l-.1.1.1-.1-86.6-36.7 92.1 188.5c-13.3 2.6-27.3 3.9-41.6 3.9C128.9 486.5 25.7 383.3 25.7 256S128.5 25.5 255.8 25.5 486.3 128.8 486.3 256c0 26.4-4.6 52.1-12.7 75.9z"/></svg>