<?xml version="1.0" encoding="utf-8"?>
<!-- Generator: Adobe Illustrator 28.2.0, SVG Export Plug-In . SVG Version: 6.00 Build 0)  -->
<svg version="1.1" id="Layer_1" xmlns="http://www.w3.org/2000/svg" xmlns:xlink="http://www.w3.org/1999/xlink" x="0px" y="0px"
	 viewBox="0 0 1024 1024" style="enable-background:new 0 0 1024 1024;" xml:space="preserve">
<style type="text/css">
	.st0{fill:none;stroke:#FFFFFF;stroke-width:30;stroke-linejoin:round;}
	.st1{fill:none;stroke:#FFFFFF;stroke-width:84;stroke-linecap:round;}
	.st2{fill:#FFFFFF;}
</style>
<path class="st0" d="M231.4,297.6c63-50.2,302.5-28.8,414.4-11.8c6.9-24.7,14.3-38.7,36.1-63.9c-46.3-13.8-99.6-16-243.9-10.1
	c-68.7-10.7-68.7-139.7,0-151.6c317.3,0,538.7,148,558.3,237.4s9.6,62.9,0,100c-23,57.3-85.8,104.2-104.8,110.7s-101.8,0-101.8,0
	c-32.1,143.9-71.6,205.4-177,279.4c-59.4,23.1-97.7,20.1-107.7-53.9l21.9-37.9l32-14.8c15.9-28.6,14.7-43.4,0-68.1
	c-23-5.9-34.8-5.7-53.9,0c-34.8,68.8-62.9,93.5-129.6,110.7v24.3l92.9,50.9l75.8,75.8c2.4,76.7-61,91.2-92.9,88.8
	C361.2,876.9,301.6,838.4,168.6,799c-26.5-5.7-30.1-15.4-23.1-40.3c58.8-115.1,40.6-183.3,23.1-213.7c-29.6,30.4-99.6,83.7-140.9,0
	c-46.2-93.6,61.6-113.9,117.8-110.7C147.9,409.7,168.4,347.8,231.4,297.6L231.4,297.6z"/>
<path class="st1" d="M59.7,258.5h81.7 M134.3,137.7h131.4"/>
<circle class="st2" cx="875.5" cy="305.9" r="45.6"/>
</svg>
