<svg xmlns="http://www.w3.org/2000/svg" xml:space="preserve" viewBox="0 0 512 512"><linearGradient id="azirevpn_svg__a" x1="462.173" x2="462.173" y1="442.916" y2="-195.655" gradientTransform="matrix(.8018 0 0 -.8018 -114.565 355.126)" gradientUnits="userSpaceOnUse"><stop offset="0" style="stop-color:#8b2dff"/><stop offset="1" style="stop-color:#4a118f"/></linearGradient><path d="M413.1 110C363 49.4 285.7 0 257 0c-.4 0-.8.1-1.1.3-.4-.2-.7-.3-1.1-.3-28.5 0-105.8 49.4-156 110C48.6 170.5 9.6 226.5 9.6 311.2c0 64 82.5 130 98.4 141.9 27.2 21.3 58.4 34.4 111 53.8 17.2 5.7 33.3 5.1 36.9 4.9 3.6.3 19.7.9 36.9-4.9 52.6-19.5 83.8-32.6 111-53.8 15.9-11.9 98.4-78 98.4-141.9.2-84.7-38.8-140.7-89.1-201.2" style="fill:url(#azirevpn_svg__a)"/><path d="M25.9 288.4c-.8 9.4-.4 15.5-.4 16.1 0 0-1.6-5.7.4-16.1m457.7 0c.8 9.4.4 15.5.4 16.1-.1 0 1.5-5.7-.4-16.1m-50-101.8c-55-49.1-149.6-92.4-178.3-92.4h-1.2c-28.6 0-123.2 43.2-178.4 92.4-39.2 34.8-48.1 78.6-49.9 101.8 3.7-20.1 20.5-57.7 87.2-104.9 101.2-71.7 104.1-59.8 141-66.2.2 0 .4-.1.6-.2.2 0 .4.1.6.2 36.8 6.4 39.8-5.5 141 66.2 66.7 47.3 83.5 84.9 87.2 104.9-1.7-23.2-10.6-66.9-49.8-101.8" style="fill:#430d85"/><linearGradient id="azirevpn_svg__b" x1="460.625" x2="460.625" y1="-167.828" y2="298.861" gradientTransform="matrix(.8018 0 0 -.8018 -114.565 355.126)" gradientUnits="userSpaceOnUse"><stop offset="0" style="stop-color:#140c18"/><stop offset="1" style="stop-color:#251231"/></linearGradient><path d="M255.9 115.5h-2.4c-70.8 0-228.5 97.9-228.5 176 0 61.4 36.2 105.8 103.9 152s103.2 46.2 124.8 46.2c.4 0 .8-.1 1.2-.4.4.3.9.4 1.2.4 21.5 0 57 0 124.8-46.2 67.7-46.2 103.9-90.6 103.9-152-.2-78.1-157.9-176-228.9-176" style="fill:url(#azirevpn_svg__b)"/><path d="M450.8 123.4c8.9 13.3 23.1-94 5.5-109.1S366.1 35 373.5 40.6c35 26.3 56.5 51.7 77.3 82.8m-389.4 0c-8.9 13.3-23.1-94-5.5-109.1s90.3 20.7 82.9 26.3c-35.1 26.3-56.6 51.7-77.4 82.8" style="fill:#8b2dff"/><path d="M418.8 81.7c3.2 3.4 9.2-25.6 3.9-30.1s-29.4 5-27.3 6.9c9.9 9.1 14.7 13.9 23.4 23.2M87.4 87.6c-3.2 3.5-4.3-28.7.9-33.3 5.4-4.8 30.1 2.9 26.3 6.1-8.4 7.3-17.5 16.3-27.2 27.2" style="fill:#180d1d"/><path d="M223.9 294.8c5.6-6-.8-31.3-12.2-43.7s-29.5-24.9-48.1-26.7c-10.7-1.1-26.3-1.2-28.8 2.5-2.6 3.7-.5 19.1 4.5 29.8 8.8 18.7 27.1 29.8 40.7 34.2 8 2.5 38.1 10.1 43.9 3.9m65.1.5c-5.6-6 .8-31.3 12.2-43.7s29.5-24.9 48.1-26.7c10.7-1.1 26.3-1.2 28.8 2.5 2.6 3.7.5 19.1-4.5 29.8-8.8 18.7-27.1 29.8-40.7 34.2-8 2.6-38 10.1-43.9 3.9" style="fill:#f5eeff"/></svg>