<svg xmlns="http://www.w3.org/2000/svg" xml:space="preserve" viewBox="0 0 512 512"><path d="M87.4 87.6c-3.2 3.5-4.3-28.7.9-33.3 5.3-4.7 28.9 2.5 26.6 5.9 7.2-6.5 15.1-13 23.8-19.6 7.4-5.5-65.3-41.3-82.9-26.3s-3.3 122.4 5.5 109.1h.1m312.1-82.8c8 6 15.2 11.9 21.9 17.9-1.6-2 22.1-11.3 27.3-6.8 5.3 4.5-.7 33.5-3.9 30.1 0 0 .6.4.6.3 11.8 13.1 21.3 26.3 31.3 41.4h.1c8.9 13.3 23.1-94 5.5-109.1S366.1 35 373.5 40.6m104.1 250.9c0-6.2-1.1-12.7-3.4-19.5l-.1-.4-.1-.4c-2.1-10.5-5.8-23.2-12.4-36.5-46.4-61.9-151.4-119.2-205.6-119.2h-2.5c-54.4 0-159.9 57.7-206 119.8-6.6 13.6-10.3 26.6-12.3 37.3l-.2.8c-2 6.3-2.9 12.4-2.9 18.1 0 1.2 0 2.3.1 3.5v1c-.1 2.5.3 6.8.3 6.8v-.1l.2 1.1c4.2 48.8 34.2 88.9 100.3 133.9 64.5 44 98.8 45 119.5 45h5.4c20.7 0 54.9-1.2 119.2-45 66.3-45.2 96.3-85.5 100.3-134.6l.1-.7c.1-.6.4-2.3.3-5.1v-.4c-.2-1.7-.2-3.6-.2-5.4m-253.7 3.3c-5.8 6.2-35.9-1.3-44-4-13.6-4.4-31.9-15.5-40.7-34.2-5-10.7-7.1-26.1-4.5-29.8s18.1-3.5 28.8-2.5c18.6 1.8 36.7 14.3 48.1 26.7s18 37.8 12.3 43.8m149.8-37.6c-8.8 18.7-27.1 29.8-40.7 34.2-8.1 2.7-38.2 10.2-44 4.1v-.1c-5.6-6 .8-31.3 12.2-43.7s29.5-24.9 48.1-26.7c10.7-1.1 26.3-1.2 28.8 2.5s.6 19-4.4 29.7M413.2 110C363 49.4 285.7 0 257.1 0c-.4 0-.8.1-1.1.3-.4-.2-.7-.3-1-.3-28.7 0-106 49.4-156.2 110C48.6 170.5 9.6 226.5 9.6 311.2c0 64 82.5 130 98.4 141.9 27.2 21.3 58.4 34.4 111 53.8 17.2 5.7 33.3 5.1 36.9 4.9 3.6.3 19.7.9 36.9-4.9 52.6-19.5 83.8-32.6 111-53.8 15.9-11.9 98.4-78 98.4-141.9.2-84.7-38.8-140.7-89-201.2m70.9 193.7c-4.5 55.2-40.2 96.7-103.3 139.8-67.8 46.2-103.3 46.2-124.8 46.2h-2.5c-21.6 0-57.1 0-124.8-46.2-62.9-42.9-98.5-84.3-103.3-139.1v.1s-.8-3.1-.5-8.9c0-1.3-.1-2.7-.1-4.1 0-6.6 1.1-13.4 3.3-20.2 4.6-24.1 16.6-57.2 47.6-84.7 55.2-49.2 149.8-92.4 178.4-92.4h1.2c28.6 0 123.2 43.2 178.4 92.4h-.1c30.3 27 42.4 59.2 47.2 83.2 2.4 7.3 3.7 14.6 3.7 21.7 0 1.9 0 3.8-.1 5.7.2 3.2-.1 5.4-.3 6.5"/></svg>