<?xml version="1.0" encoding="utf-8"?>
<!-- Generator: Adobe Illustrator 28.2.0, SVG Export Plug-In . SVG Version: 6.00 Build 0)  -->
<svg version="1.1" id="Layer_1" xmlns:serif="http://www.serif.com/"
	 xmlns="http://www.w3.org/2000/svg" xmlns:xlink="http://www.w3.org/1999/xlink" x="0px" y="0px" viewBox="0 0 512 512"
	 style="enable-background:new 0 0 512 512;" xml:space="preserve">
<style type="text/css">
	.st0{fill-rule:evenodd;clip-rule:evenodd;}
</style>
<path class="st0" d="M55.2,396.1L34.3,384V128L256,0l71.7,41.4l-30.9,7.8l-39.5-22.8L58.9,141v229.1l2.9,1.7
	C57.9,379.4,55.6,387.6,55.2,396.1z M446.6,110v25.7l9.2,5.3v229.1L426.6,387c-1.9,1.8-3.9,3.5-6,5.2c-8.2,6.4-17.8,11.3-28.2,14.6
	l-135.1,78l-58.6-33.8c-7.8,5.6-16.7,9.9-26.4,12.8L256,512l221.7-128V128L446.6,110z M435.6,64.8v277.5c0,32.2-33,58.3-75.1,58.3
	s-75.1-26.1-75.1-58.3c0-32.2,33-58.3,75.1-58.3c13.8,0,26.1,2.3,36.8,6.9V135.3l-180.9,46V399c0,32.2-33,58.3-75.1,58.3
	S66.1,431.2,66.1,399c0-32.2,33-58.3,75.1-58.3c13.8,0,26.1,2.3,36.8,6.9v-233c0-13.8,10-26.1,23.8-29.9L398,34.9
	c9.2-2.3,19.2-0.8,26.8,5.4C432.5,45.6,437.1,54.8,435.6,64.8z"/>
</svg>
