<svg xmlns="http://www.w3.org/2000/svg" xml:space="preserve" viewBox="0 0 512 512"><linearGradient id="azure-devops_svg__a" x1="58.027" x2="58.027" y1="356.668" y2="100.668" gradientTransform="matrix(1 0 0 -1 0 514)" gradientUnits="userSpaceOnUse"><stop offset="0" style="stop-color:#163697"/><stop offset=".276" style="stop-color:#2052cb"/><stop offset=".518" style="stop-color:#2764e7"/><stop offset=".879" style="stop-color:#367af2"/></linearGradient><path d="M116.1 73.4c-5.8 5.8-13.7 13.8-13.7 22.6v216.4c0 8.9-3.3 17.3-9 23.4s-13.3 9.2-21.1 8.5l-42.7-3.1c-7.9-.5-15-3.9-20.3-9.3-5.7-5.7-9.3-13.7-9.3-22.6V202.7c0-8.9 3.6-16.9 9.4-22.6l2-1.9z" style="fill:url(#azure-devops_svg__a)"/><linearGradient id="azure-devops_svg__b" x1="58.027" x2="58.027" y1="351.334" y2="292.668" gradientTransform="matrix(1 0 0 -1 0 514)" gradientUnits="userSpaceOnUse"><stop offset="0" style="stop-color:#102784"/><stop offset="1" style="stop-color:#2052cb;stop-opacity:0"/></linearGradient><path d="M116.1 73.4c-5.8 5.8-13.7 13.8-13.7 22.6v216.4c0 8.9-3.3 17.3-9 23.4s-13.3 9.2-21.1 8.5l-42.7-3.1c-7.9-.5-15-3.9-20.3-9.3-5.7-5.7-9.3-13.7-9.3-22.6V202.7c0-8.9 3.6-16.9 9.4-22.6l2-1.9z" style="fill:url(#azure-devops_svg__b)"/><linearGradient id="azure-devops_svg__c" x1="389.98" x2="107.314" y1="57.935" y2="193.935" gradientTransform="matrix(1 0 0 -1 0 514)" gradientUnits="userSpaceOnUse"><stop offset="0" style="stop-color:#163697"/><stop offset=".301" style="stop-color:#2052cb"/><stop offset=".626" style="stop-color:#2764e7"/><stop offset=".926" style="stop-color:#367af2"/></linearGradient><path d="m500.5 366-128 106.7c-5.5 4.6-12.7 7.4-20.5 7.4q-2.4 0-4.8-.3l-112.5-16.9v27.8c0 11.7-9.6 21.3-21.3 21.3-7.3 0-13.5-3.6-17.5-9.1l-36.2-51.4-5.4-7.6-36.6-51.9-7-10c-2.6-3.5-3.9-7.8-3.9-12.3 0-6 2.5-11.6 6.8-15.7 3.8-3.7 9.1-5.8 14.5-5.8.4 0 1 .1 1.5.1l105.2 7.5L384 366.5l93.7 6.7c.7.1 1.6.1 2.3.1 7.8 0 14.9-2.7 20.5-7.3" style="fill:url(#azure-devops_svg__c)"/><linearGradient id="azure-devops_svg__d" x1="391.996" x2="341.385" y1="76.552" y2="78.224" gradientTransform="matrix(1 0 0 -1 0 514)" gradientUnits="userSpaceOnUse"><stop offset="0" style="stop-color:#102784"/><stop offset="1" style="stop-color:#2052cb;stop-opacity:0"/></linearGradient><path d="m500.5 366-128 106.7c-5.5 4.6-12.7 7.4-20.5 7.4q-2.4 0-4.8-.3l-112.5-16.9v27.8c0 11.7-9.6 21.3-21.3 21.3-7.3 0-13.5-3.6-17.5-9.1l-36.2-51.4-5.4-7.6-36.6-51.9-7-10c-2.6-3.5-3.9-7.8-3.9-12.3 0-6 2.5-11.6 6.8-15.7 3.8-3.7 9.1-5.8 14.5-5.8.4 0 1 .1 1.5.1l105.2 7.5L384 366.5l93.7 6.7c.7.1 1.6.1 2.3.1 7.8 0 14.9-2.7 20.5-7.3" style="fill:url(#azure-devops_svg__d)"/><linearGradient id="azure-devops_svg__e" x1="442.24" x2="442.24" y1="54.769" y2="419.38" gradientTransform="matrix(1 0 0 -1 0 514)" gradientUnits="userSpaceOnUse"><stop offset=".043" style="stop-color:#2052cb"/><stop offset=".489" style="stop-color:#367af2"/><stop offset=".943" style="stop-color:#16bbda"/></linearGradient><path d="M512 170.7v170.7c0 9.9-4.5 18.8-11.5 24.6l-128 106.7c7-5.9 11.5-14.7 11.5-24.6V175.3c0-16.7 13-30.7 29.8-31.9l63.9-4.6c.7-.1 1.6-.1 2.3-.1 7.8 0 14.9 2.8 20.5 7.4 7 5.8 11.5 14.6 11.5 24.6" style="fill:url(#azure-devops_svg__e)"/><linearGradient id="azure-devops_svg__f" x1="435.596" x2="425.732" y1="270.413" y2="385.266" gradientTransform="matrix(1 0 0 -1 0 514)" gradientUnits="userSpaceOnUse"><stop offset=".134" style="stop-color:#16bbda;stop-opacity:0"/><stop offset=".932" style="stop-color:#6be7a0;stop-opacity:.8629"/></linearGradient><path d="M512 170.7v170.7c0 9.9-4.5 18.8-11.5 24.6l-128 106.7c7-5.9 11.5-14.7 11.5-24.6V175.3c0-16.7 13-30.7 29.8-31.9l63.9-4.6c.7-.1 1.6-.1 2.3-.1 7.8 0 14.9 2.8 20.5 7.4 7 5.8 11.5 14.6 11.5 24.6" style="fill:url(#azure-devops_svg__f);fill-opacity:.7"/><linearGradient id="azure-devops_svg__g" x1="437.081" x2="507.893" y1="204.362" y2="119.081" gradientTransform="matrix(1 0 0 -1 0 514)" gradientUnits="userSpaceOnUse"><stop offset="0" style="stop-color:#2c68e0;stop-opacity:0"/><stop offset=".898" style="stop-color:#66c0ff;stop-opacity:.5"/></linearGradient><path d="M512 170.7v170.7c0 9.9-4.5 18.8-11.5 24.6l-128 106.7c7-5.9 11.5-14.7 11.5-24.6V175.3c0-16.7 13-30.7 29.8-31.9l63.9-4.6c.7-.1 1.6-.1 2.3-.1 7.8 0 14.9 2.8 20.5 7.4 7 5.8 11.5 14.6 11.5 24.6" style="fill:url(#azure-devops_svg__g)"/><linearGradient id="azure-devops_svg__h" x1="99.399" x2="352.75" y1="279.26" y2="498.676" gradientTransform="matrix(1 0 0 -1 0 514)" gradientUnits="userSpaceOnUse"><stop offset=".005" style="stop-color:#367af2"/><stop offset=".507" style="stop-color:#0fafff"/><stop offset="1" style="stop-color:#26cfe8"/></linearGradient><path d="M384 125.5c0 11.2-8.6 20.5-19.8 21.3-.5 0-1.1.1-1.6.1l-127.9 9.2-132.3 9.1-72.7 5.5c-6.9.4-13.2 3.1-18.2 7.4L116.1 73.4c4.7-4.7 10.9-8 17.8-9.1l100.8-15.1V21.3C234.7 9.6 244.3 0 256 0c5.8 0 11.1 2.3 14.9 6.1l33.4 32.6 16.9 16.5 40.3 39.3 16.1 15.8c4.1 3.9 6.4 9.4 6.4 15.2" style="fill:url(#azure-devops_svg__h)"/><linearGradient id="azure-devops_svg__i" x1="184.342" x2="338.581" y1="356.795" y2="480.642" gradientTransform="matrix(1 0 0 -1 0 514)" gradientUnits="userSpaceOnUse"><stop offset=".443" style="stop-color:#26cfe8;stop-opacity:0"/><stop offset=".897" style="stop-color:#6be7a0;stop-opacity:.8629"/></linearGradient><path d="M384 125.5c0 11.2-8.6 20.5-19.8 21.3-.5 0-1.1.1-1.6.1l-127.9 9.2-132.3 9.1-72.7 5.5c-6.9.4-13.2 3.1-18.2 7.4L116.1 73.4c4.7-4.7 10.9-8 17.8-9.1l100.8-15.1V21.3C234.7 9.6 244.3 0 256 0c5.8 0 11.1 2.3 14.9 6.1l33.4 32.6 16.9 16.5 40.3 39.3 16.1 15.8c4.1 3.9 6.4 9.4 6.4 15.2" style="fill:url(#azure-devops_svg__i);fill-opacity:.5"/></svg>