<svg xmlns="http://www.w3.org/2000/svg" xml:space="preserve" viewBox="0 0 512 512"><path d="M428.7 278.4c0 19.8 8.5 40.8 30.5 40.8 14.7 0 24.9-10.1 27.4-27.2H512c-4.7 30.9-23.1 47.9-52.8 47.9-36.1 0-55.9-26.5-55.9-61.5 0-35.9 18.9-64 56.8-64 26.7 0 49.4 13.8 51.9 43.1l-25.4-.1c-2-14.5-12.2-22.3-26.3-22.3-13.1 0-31.6 7.1-31.6 43.3m-35.6-.8c0 32-15.6 62.2-49.6 62.2-15.6 0-32.3-3.9-39.8-19.6h-.4v16.4h-24l-.2-164.4h25.4V233h.4c6.9-11.5 21.4-18.7 34.3-18.7 36.3 0 53.9 28.6 53.9 63.3m-25.5-.5c0-21.6-10.9-42.1-31.8-42.1-21.4 0-32.3 16.8-32.3 42.1 0 23.9 11.8 41.9 32.3 41.9 23.2 0 31.8-21.2 31.8-41.9"/><path d="M0 336.3h190.3l88.9-164.1H88.9z" style="fill:#60909a"/></svg>