<svg xmlns="http://www.w3.org/2000/svg" xml:space="preserve" viewBox="0 0 512 512"><linearGradient id="barcodebuddy_svg__a" x1="386.25" x2="125.75" y1="481.599" y2="30.401" gradientUnits="userSpaceOnUse"><stop offset="0" style="stop-color:#1536ef"/><stop offset=".1" style="stop-color:#1e34ed"/><stop offset=".264" style="stop-color:#362fe9"/><stop offset=".47" style="stop-color:#5e28e1"/><stop offset=".71" style="stop-color:#951dd7"/><stop offset=".977" style="stop-color:#da0fca"/><stop offset="1" style="stop-color:#e00ec9"/></linearGradient><path d="M74.7 359.6h-19V153.8h19zm54.2-205.8h-34v176.7h34zm25 0H138v176.7h15.9zm54 0h-34.4v176.7h34.4zm29.5 0h-19.2v176.7h19.2zm37.6 0h-17.8v176.7H275zm26.4 0h-17.5v176.7h17.5zm54 0h-33.8v176.7h33.8zm29.3 0h-14.5v176.7h14.5zm34.7 0h-14.7v176.7h14.7zm39 0h-14.5V359h14.5zM21.5 124.6h53.2V103H0v74.7h21.5zm.1 262.9v-53.2H0V409h74.7v-21.5zm468.9-.1h-53.2V409H512v-74.7h-21.5zm-.1-262.9v53.2H512V103h-74.7v21.5z" style="fill:url(#barcodebuddy_svg__a)"/></svg>