<svg xmlns="http://www.w3.org/2000/svg" xml:space="preserve" viewBox="0 0 512 512"><linearGradient id="barkeep_svg__a" x1="-701.627" x2="-700.627" y1="796.447" y2="795.447" gradientTransform="matrix(512 0 0 -512 359233 407781)" gradientUnits="userSpaceOnUse"><stop offset="0" style="stop-color:#2c2c2c"/><stop offset="1" style="stop-color:#1a1a1a"/></linearGradient><path d="M100 0h312c55.2 0 100 44.8 100 100v312c0 55.2-44.8 100-100 100H100C44.8 512 0 467.2 0 412V100C0 44.8 44.8 0 100 0" style="fill:url(#barkeep_svg__a)"/><path d="M382.7 120.4c1.6-2.5 1.8-5.6.4-8.2S379 108 376 108H136c-3 0-5.7 1.6-7.1 4.2s-1.2 5.8.4 8.2l118.7 178V388h-52c-4.4 0-8 3.6-8 8s3.6 8 8 8h120c4.4 0 8-3.6 8-8s-3.6-8-8-8h-52v-89.6zm-21.6 3.6L256 281.6 150.9 124z" style="fill:#e0e0e0"/><path d="M176 156h160l-80 120z" style="opacity:.6;fill:#6ea8fe"/><circle cx="256" cy="176" r="20" style="fill:#7cb342"/><circle cx="256" cy="176" r="8" style="fill:#d32f2f"/></svg>