<svg xmlns="http://www.w3.org/2000/svg" xml:space="preserve" viewBox="0 0 512 512"><path d="M459.5 162.2c-3.1-25.5-27.9-48.3-53.3-50-100.2-6.4-200.6-6.4-300.8 0-25.4 1.7-50.2 24.6-53.3 50q-10.2 90.15 0 180.3c3.1 25.5 27.9 48.3 53.3 50 100.2 6.4 200.6 6.4 300.8 0 25.4-1.7 50.2-24.6 53.3-50q10.35-90.15 0-180.3M358.3 356.8c0 5.5-4.5 9.9-9.9 9.9H163.2c-5.5 0-9.9-4.5-9.9-9.9 0-5.5 4.5-9.9 9.9-9.9h185.1c5.5 0 10 4.4 10 9.9m38.2-29.9H115c-5.5 0-10-4.5-10-10s4.5-10 10-10h281.5c5.5 0 10 4.5 10 10s-4.5 10-10 10M256 0C114.8 0 0 114.8 0 256s114.8 256 256 256 256-114.8 256-256S397.2 0 256 0m0 500C121.5 500 12 390.5 12 256S121.5 12 256 12s244 109.5 244 244-109.5 244-244 244"/></svg>