<svg xmlns="http://www.w3.org/2000/svg" xml:space="preserve" id="bazarr_svg__Layer_1" x="0" y="0" version="1.1" viewBox="0 0 512 512"><style>.bazarr_svg__st0{fill:#fff}</style><path d="M506 256c0 138.1-111.9 250-250 250S6 394.1 6 256 117.9 6 256 6s250 111.9 250 250" class="bazarr_svg__st0"/><path d="M256 512C114.8 512 0 397.2 0 256S114.8 0 256 0s256 114.8 256 256-114.8 256-256 256m0-500C121.5 12 12 121.5 12 256s109.5 244 244 244 244-109.5 244-244S390.5 12 256 12m150.2 380.5c-100.2 6.4-200.6 6.4-300.8 0-25.4-1.7-50.2-24.6-53.3-50q-10.2-90.15 0-180.3c3.1-25.5 27.9-48.3 53.3-50 100.2-6.4 200.6-6.4 300.8 0 25.4 1.7 50.2 24.6 53.3 50q10.2 90.15 0 180.3c-3.1 25.5-27.9 48.3-53.3 50"/><path d="M348.4 366.7H163.2c-5.5 0-9.9-4.5-9.9-9.9 0-5.5 4.5-9.9 9.9-9.9h185.1c5.5 0 9.9 4.5 9.9 9.9.1 5.4-4.4 9.9-9.8 9.9m48.1-39.8H115c-5.5 0-10-4.5-10-10s4.5-10 10-10h281.5c5.5 0 10 4.5 10 10s-4.5 10-10 10" class="bazarr_svg__st0"/></svg>