<svg xmlns="http://www.w3.org/2000/svg" xml:space="preserve" viewBox="0 0 512 512"><path d="M228.1 281.3v-83.9c7.6-1.3 15.5-2 23.5-2.3 14.9-.7 28.4.3 40.6 2.6-13.9 30-38 60.4-64.1 83.6M124 253.5c-9.9 15.2-11.6 31.4-5 47.3 5.9 13.9 15.2 20.5 29.1 20.8 1.7 0 3.3-.3 5-.3v-95.8c-12.3 8.2-22.2 17.4-29.1 28m47.9 63.5c11.9-4.3 24.5-11.6 37.3-20.8V201c-13.2 3.3-25.8 7.9-37.3 13.5zm89.2-141.1c14.2 0 26.8 1.3 38 3.6 5.6-19.2 7.3-40.6-7.3-56.2-24.8-26.4-53.9-11.6-63.8-5v59.8c7.3-1 14.9-1.7 22.5-2 3.7.1 7 .1 10.6-.2m49.3 26.4c0 .3-.3.7-.3 1-15.5 35.4-47.3 74.3-81.9 101.8v97.8C314.1 383.4 365 315.3 359 260.8c-3-27.8-20.6-47.9-48.6-58.5m179.7-27.4v162.2c0 33.4-17.8 64.1-46.9 81l-140.4 81.3c-28.7 16.9-64.4 16.9-93.5 0L68.8 418.1c-29.1-16.5-46.9-47.6-46.9-81V174.9c0-33.4 17.8-64.4 46.9-81l140.4-81.3c28.7-16.9 64.4-16.9 93.5 0l140.8 81.3c28.8 16.5 46.6 47.6 46.6 81M377.8 393.6c0-7.7-6.2-13.9-13.9-13.9s-13.9 6.2-13.9 13.9 6.2 13.9 13.9 13.9c7.6 0 13.9-6.2 13.9-13.9m-.4-134.8c-3-29.1-21.1-59.1-60.5-73.7 8.9-30.4 5-56.5-11.6-74.3-33.7-36-75.3-18.5-92.9-4.3l-3.3 2.6v72.7c-44.3 10.2-82.3 32.7-100.8 61.5-13.2 20.5-15.5 43-6.6 64.4 8.6 20.8 24.5 32.1 45.9 32.4 18.8.3 40.3-7.9 61.5-21.5v107.1l10.9-2c106.5-18.5 164.4-99.8 157.4-164.9" style="fill:#fff"/></svg>