<?xml version="1.0" encoding="utf-8"?>
<!-- Generator: Adobe Illustrator 28.2.0, SVG Export Plug-In . SVG Version: 6.00 Build 0)  -->
<svg version="1.1" id="Layer_1" xmlns="http://www.w3.org/2000/svg" xmlns:xlink="http://www.w3.org/1999/xlink" x="0px" y="0px"
	 viewBox="0 0 512 512" style="enable-background:new 0 0 512 512;" xml:space="preserve">
<style type="text/css">
	.st0{fill:#0E0D0B;stroke:#0E0D0B;stroke-width:12;stroke-miterlimit:10;}
	.st1{fill:none;}
</style>
<g>
	<path class="st0" d="M247.1,111.5c10.6-9,20.5-17.3,30.2-25.8c13.7-12,27.2-24.2,41-36c1.3-1.1,4.9-1.4,6.2-0.4
		c1.2,0.9,1.6,4.5,0.7,6c-13.5,24.3-27.4,48.5-41,72.8c-2,3.6-3.6,7.6-5.9,12.7c5.8-1.4,10.5-2.4,15-3.6c25.4-7,50.3-6.2,73.9,6.1
		c19.4,10.1,33.4,25.9,44.7,44.5c11.1,18.2,19,37.7,24,58.3c3.1,12.8,0,25.3-3.5,37.5c-7.8,27.4-16,54.7-23.9,82.1
		c-0.6,2.2-0.8,4.6-0.8,6.9c1.1,39.7-5,78.4-16.4,116.4c-1.2,4-2.2,8.1-3.5,12.8c-8.1-10-15-19.8-23.3-28.5
		c-15.9-16.7-32.2-33-49.1-48.8c-8.4-7.9-17.7-15.3-27.8-20.9c-9.8-5.5-20.7-9.5-31.6-12.1c-15.8-3.8-31.9-6-48-8.5
		c-19.1-3-31.9-14.5-42-30c-11-16.7-20-34.3-23.1-54.4c-2.8-18.3-0.1-35.9,7.2-52.8c8.8-20.5,23.5-36.5,39.7-51.3
		c1.7-1.5,3.8-2.6,5.7-3.9c-0.3-0.9-0.7-1.8-1-2.6c-6.6-1.3-13.2-2.7-19.9-3.8c-29.6-4.9-59.2-9.8-88.8-14.6
		c-2.5-0.4-5.2-0.1-7.6-0.9c-1.6-0.5-3.8-2.4-3.7-3.7c0-1.6,1.9-3.3,3.3-4.5c0.6-0.6,2-0.3,3.1-0.4c17.1-0.9,34.3-1.8,51.4-2.8
		c22-1.3,44-2.8,65.9-4.2c1.4-0.1,2.7-0.7,4.9-1.2c-4.3-13.2-8.4-26-12.7-38.7c-10.4-31.1-20.8-62.2-31.4-93.2
		c-1.6-4.8-1.2-7.6,4.5-9.6C191.2,43.6,218.9,77.2,247.1,111.5z M262.2,158.6c0.3-2.7-0.3-5.9,0.9-8.1c11.5-21,23.2-41.8,34.9-62.6
		c2.5-4.5,5-9,7.5-13.5c-0.5-0.4-1-0.8-1.5-1.2c-19.1,16.5-38.1,32.9-57.7,49.8c-23.9-29-47.1-57.2-70.4-85.4
		c-0.6,0.3-1.2,0.7-1.8,1c13.4,40.1,26.8,80.1,40.5,121.1c-31.8,2.1-62.3,4.1-92.7,6c0,0.6,0,1.2,0.1,1.9c9.9,1.7,19.9,3.5,29.8,5.1
		c21.7,3.5,43.4,6.8,65,10.5c1.4,0.2,2.4,2.6,3.6,4c-0.4,4.7-3.5,4.7-7.3,4.6c-3.1-0.1-7,0.3-9.3,2.1
		c-14.7,11.6-28.2,24.5-38.2,40.5c-13.4,21.3-19,44.2-13.4,69.2c5,22.2,16.9,41,31.4,58.2c2.6,3.1,6.2,6.5,10,7.5
		c13.8,3.9,27.7,7.4,41.7,10.1c17.2,3.3,35.6,3.6,50.6,13.4c17.3,11.3,34,23.9,49.2,37.9c15.9,14.6,29.7,31.4,44.4,47.2
		c1.6,1.7,3.4,3.2,5.7,5.3c0.6-2.9,0.8-4.6,1.2-6.2c9.3-33.2,14-67.1,13.6-101.6c0-3.4-0.2-6.9,0.7-10.1
		c7.3-25.8,14.6-51.7,22.3-77.4c5.6-18.4,9.4-36.7,0.9-55.1c-7.2-15.7-14-31.9-22.9-46.7c-11.4-18.9-27.5-33.2-49-40.5
		c-23-7.9-45.5-5.4-67.7,3c-4.7,1.8-10,3.3-13.5,6.6C268,157.9,265.7,159,262.2,158.6z"/>
	<path class="st1" d="M262.2,158.6c3.5,0.4,5.8-0.7,8.7-3.4c3.5-3.3,8.8-4.8,13.5-6.6c22.2-8.4,44.7-10.9,67.7-3
		c21.4,7.4,37.6,21.6,49,40.5c8.9,14.8,15.6,30.9,22.9,46.7c8.5,18.4,4.6,36.8-0.9,55.1c-7.8,25.7-15.1,51.5-22.3,77.4
		c-0.9,3.2-0.7,6.7-0.7,10.1c0.4,34.5-4.2,68.4-13.6,101.6c-0.5,1.6-0.7,3.3-1.2,6.2c-2.3-2.1-4.1-3.6-5.7-5.3
		c-14.7-15.8-28.5-32.7-44.4-47.2c-15.2-14-31.9-26.5-49.2-37.9c-14.9-9.8-33.3-10.1-50.6-13.4c-14-2.7-28-6.2-41.7-10.1
		c-3.8-1.1-7.3-4.4-10-7.5c-14.4-17.2-26.3-36-31.4-58.2c-5.7-24.9,0-47.9,13.4-69.2c10.1-16,23.5-28.9,38.2-40.5
		c2.3-1.8,6.2-2.1,9.3-2.1c3.8,0.1,6.9,0.1,7.3-4.6C234.3,177.7,248.2,168.1,262.2,158.6z"/>
	<path class="st1" d="M262.2,158.6c-13.9,9.5-27.9,19.1-41.8,28.6c-1.2-1.4-2.2-3.8-3.6-4c-21.6-3.7-43.3-7-65-10.5
		c-10-1.6-19.9-3.4-29.8-5.1c0-0.6,0-1.2-0.1-1.9c30.5-2,60.9-4,92.7-6c-13.7-41-27.1-81-40.5-121.1c0.6-0.3,1.2-0.7,1.8-1
		c23.2,28.2,46.5,56.4,70.4,85.4c19.6-16.9,38.6-33.4,57.7-49.8c0.5,0.4,1,0.8,1.5,1.2c-2.5,4.5-5,9-7.5,13.5
		c-11.7,20.9-23.4,41.7-34.9,62.6C261.9,152.7,262.4,155.9,262.2,158.6z"/>
</g>
</svg>
