<svg xmlns="http://www.w3.org/2000/svg" xml:space="preserve" viewBox="0 0 512 512"><path d="M441.7 244.7c-5.2-21.5-13.5-41.7-24.7-60-13.3-21.9-28.7-37.1-47.1-46.7-23.4-12.2-49.8-14.4-78.2-6.6-1 .3-1.9.5-2.9.7.2-.4.4-.8.6-1.1 6-10.7 12.1-21.5 18-31.9 7.6-13.4 15.4-27.2 23-40.8 2.2-3.8 1.6-10.8-2.3-13.7-3.9-3-10.5-2.1-13.8.6-8.8 7.6-17.7 15.4-26.3 23-4.9 4.4-9.8 8.7-14.8 13.1-7.5 6.6-15.1 13-23.1 19.8-.8.7-1.6 1.4-2.4 2-25.3-30.7-52.3-63.5-79.8-96.4l-2.7-3.2-3.9 1.4c-8.3 2.9-11 8.7-8.2 17.2 10.6 31 21.2 62.6 31.4 93.2 3.3 9.7 6.4 19.3 9.7 29.5.3.9.6 1.7.9 2.6-6.1.4-12.3.8-18.4 1.2-14.7 1-29.9 2-44.9 2.8-16.3 1-33 1.8-49.1 2.7l-2.2.1h-.7c-1.3 0-4-.1-6.2 1.9-1.9 1.6-5.2 4.5-5.3 8.8-.2 4.8 4.5 8.5 7.8 9.6 2.2.7 4.3.8 6.2.9.9 0 1.7.1 2.3.2 29.7 4.8 59.8 9.8 88.8 14.6 3.3.5 6.7 1.2 10.1 1.8-14.3 13.2-29.8 29.7-39.1 51.5-7.9 18.4-10.5 37.3-7.6 56.1 2.8 18.4 10.2 35.9 24 56.8 12.6 19.3 27.2 29.7 46.1 32.7 2.5.4 5 .8 7.5 1.1 13.2 2 26.9 4.1 40.1 7.3 10.9 2.6 21.3 6.6 30.1 11.5 8.7 4.8 17.4 11.4 26.6 20 16.1 15 32 30.9 48.9 48.6 5.5 5.7 10.3 12 15.5 18.6 2.4 3.1 4.9 6.3 7.5 9.5l7.3 9.1 3.1-11.2c.5-1.8 1-3.6 1.4-5.2.7-2.6 1.3-5.1 2.1-7.4 12.3-40.9 17.7-79.6 16.7-118.2 0-2.1.2-3.8.6-5.2 3.4-11.9 7-23.9 10.4-35.6 4.5-15.2 9.1-31 13.5-46.5 3.8-13.6 6.9-26.7 3.5-40.8M394 373.9v1.6c.4 31.9-3.8 64.2-12.3 96-3.7-4.1-7.4-8.2-11.1-12.2-9.9-11.1-20.2-22.6-31.5-32.9-14.5-13.4-31.3-26.3-50-38.5-12.5-8.2-26.7-10.2-40.4-12.3-4.1-.6-8.3-1.2-12.3-2-12.5-2.4-25.9-5.7-41.2-10h-.1c-1.8-.5-4.4-2.6-6.9-5.6-16.4-19.4-26-37.1-30.1-55.6-5-22.1-.8-43.3 12.6-64.7 8.3-13.3 20-25.7 36.8-39 .3-.2 1.8-.8 4.7-.8h.7c3.1.1 12.5.3 13.4-10.1l.2-2.5-1.6-1.9c-.1-.2-.4-.6-.7-.9-1.1-1.7-3-4.5-6.5-5.1-14.6-2.5-29.5-4.9-43.9-7.1l-7.8-1.2c16.7-1.1 33.1-2.2 49-3.2l7.8-.5-2.5-7.4c-6.9-20.7-13.8-41.2-20.6-61.6-3.8-11.4-7.6-22.8-11.5-34.2 10.9 13.2 21.8 26.4 32.7 39.7l24.6 29.8 4.6-4c12.2-10.5 24.2-20.9 36.1-31.2-9.5 16.9-19.1 34.1-28.5 51.3-1.5 2.8-1.5 5.8-1.5 8.2 0 .8 0 1.6-.1 2.1l-.7 5.9 5.9.7c6.5.7 10.4-2.1 13.4-5 2-1.9 5.5-3.2 8.9-4.4.9-.3 1.7-.6 2.6-1 23.1-8.7 43.9-9.7 63.6-2.9 19.1 6.5 34.5 19.3 45.8 37.9 7.1 11.7 12.9 24.7 18.6 37.3 1.3 3 2.7 5.9 4 8.9 7.2 15.5 4.9 31-1.2 50.9-7.3 24.2-14.3 49-21 73l-1.3 4.5c-.8 3.3-.7 6.9-.7 10" style="fill:#0e0d0b"/></svg>