<svg xmlns="http://www.w3.org/2000/svg" xml:space="preserve" viewBox="0 0 512 512"><linearGradient id="beszel_svg__a" x1="433.391" x2="-10.605" y1="446.179" y2="73.621" gradientUnits="userSpaceOnUse"><stop offset="0" style="stop-color:#52cf83"/><stop offset=".63" style="stop-color:#6d98d2"/><stop offset="1" style="stop-color:#7b7bfc"/></linearGradient><path d="M307.2 512h-256V0h256c21.5 0 41.4 4.1 60 12.4 18 7.8 34.4 19 48.3 32.9C429.6 59 440.6 75 448.4 93.6c8.3 19 12.4 39 12.4 60 .1 7.9-.6 15.7-2.2 23.4-.4 2-.9 3.9-1.5 5.9-2.6 10.1-6.2 19.9-11 29.3-4.8 9-10.7 17.3-17.6 24.9-5.6 6.4-12 12.1-19 16.8-1 .8-1.9 1.5-2.9 2.2q12.45 7.35 21.9 18.3c6.8 7.8 12.7 16.3 17.6 25.6 4.8 9.3 8.5 19.1 11 29.3 1.9 7.2 3.1 14.5 3.7 21.9.1 2.4.1 4.9 0 7.3 0 21.5-4.1 41.4-12.4 60-7.8 18-19 34.4-32.9 48.3-13.7 14.1-29.7 25.4-48.3 33.6-18.6 7.7-38.6 11.6-60 11.6M153.6 102.4v102.4h153.6c5.7.2 11.4-.5 16.8-2.2 1-.5 2-.9 2.9-1.5 6.3-2.4 11.9-6.1 16.8-11 4.7-4.6 8.4-10.1 11-16.1 2.4-6.3 3.7-13.2 3.7-20.5 0-5.7-1-11.4-2.9-16.8-.2-1-.5-2-.7-2.9-2.9-6.3-6.6-11.9-11-16.8-4.9-4.5-10.6-7.9-16.8-10.2-5.8-2.6-12-4.1-18.3-4.4zm0 204.8v102.4h153.6c5.7 0 11.4-1 16.8-2.9 1-.2 2-.5 2.9-.7 6.3-2.9 11.9-6.6 16.8-11 4.7-4.6 8.4-10.1 11-16.1 2.4-6 3.7-12.5 3.7-19v-1.5c0-5.7-1-11.4-2.9-16.8-.2-1-.5-2-.7-2.9-2.9-6.3-6.6-11.9-11-16.8-4.8-4.7-10.5-8.5-16.8-11-5.8-2.6-12-4.1-18.3-4.4H153.6z" style="fill:url(#beszel_svg__a)"/></svg>