<svg xmlns="http://www.w3.org/2000/svg" xml:space="preserve" viewBox="0 0 512 512"><path d="M248.4 314.8v-.1c.1 0 .2-.1.2-.1 0 .1-.1.1-.2.2m-1.1 14c-.4.3-.9.6-1.5 1v.1c.6-.5 1.1-.8 1.5-1.1m-30.4-87c0 .6-.1 1.2-.1 1.8h1.3-1.2zM512 72.4v367.2c0 40-32.4 72.4-72.4 72.4H72.4C32.4 512 0 479.6 0 439.6V72.4C0 32.4 32.4 0 72.4 0h367.2c40 0 72.4 32.4 72.4 72.4M56.5 357.9c0 29.7.1 59.4.1 89.1.7 0 .7 0 1.8-.9 2.1-1.9 4.3-3.9 6.5-5.7 3-2.4 5.9-4.8 8.8-7.4 1.5-1.3 3-2.7 4.5-4 1.8-1.6 3.7-3.2 5.5-4.9 2.9-2.6 5.8-5.3 8.8-7.8.4-.3.7-.6 1.1-.9s.7-.6 1.1-.9c3.5-3 6.9-6 10.3-9.1 3.5-3.3 7-6.6 10.8-9.6 2.3-1.8 4.5-3.7 6.6-5.6 2.2-2 4.5-4 6.8-6 .4-.3.8-.7 1.2-1 .8-.6 1.6-1.3 2.4-2 2.8-2.3 5.6-4.7 8.3-7.2 3.7-3.5 7.4-6.9 11.4-10.1 2-1.6 3.8-3.2 5.6-5 1.3-1.3 2.6-2.5 4-3.7 2.7-2.1 5.4-4.2 7.8-6.7 1.9-1.9 3.9-3.6 6.1-5.3 2.3-1.7 3.5-2.6 4-5.4-1.2-1.1-2.3-2.2-3.5-3.3-.5-.5-.9-1-1.4-1.4-2.7-2.6-5.5-5.1-8.3-7.6-7.7-6.9-7.7-6.9-15.2-13.9-3-2.9-6-5.7-9.1-8.5-2.8-2.6-5.6-5.1-8.3-7.7-4.7-4.4-9.4-8.9-14.3-13.1-2.4-2-4.6-4.1-6.8-6.3-1.8-1.8-3.6-3.6-5.6-5.3-1.3-1-2.5-2.1-3.7-3.3-1.5-1.5-3-3.1-4.6-4.5-3.2-2.6-6.1-5.5-9-8.4l-3.4-3.4-1.4-1.4c7 5.7 13.9 11.4 21.1 16.8 2.6 1.9 5.1 3.8 7.5 5.8 1.7 1.3 3.3 2.6 4.9 3.9 4.2 3.2 8.2 6.4 12.2 9.7 1.8 1.5 3.7 3 5.5 4.5l13.2 10.8c4.6 3.8 9.2 7.6 13.8 11.3l9.9 8.1c3.2 2.7 6.5 5.3 9.8 7.9 2.4 1.8 4.7 3.7 7 5.7 2.5 2.1 5 4.2 7.6 6.2s5.1 4.1 7.6 6.2c1.9 1.6 3.8 3.2 5.8 4.8 2 1.5 3.9 3 5.7 4.6 3.4 3.1 6.8 5.9 10.5 8.7q6.75 5.1 13.2 10.8c.5.5 1.1.9 1.6 1.4q3.45-1.95 7.2-3.3c3.9-.4 7.5-.6 10.9 1.3 1.1.7 2.3 1.3 3.4 2 4.1-2.3 4.1-2.3 15.1-11.8 2-1.8 4.1-3.6 6.2-5.3 2.7-2.1 5.4-4.3 8-6.5 3.3-2.9 6.7-5.8 10.1-8.6 3.5-3 7.1-5.9 10.6-8.9 3-2.6 6.1-5.2 9.2-7.8 1.1-.9 2.3-1.9 3.4-2.8 2.8-2.6 4.9-5.2 8.9-5.3 2.3.6 4.4.9 6.7 1 .9.1 1.8.1 2.7.2.5 0 .9.1 1.3.1.7 0 1.4.1 2 .1-.5.4-.9.7-1.3 1-.9.6-.9.6-1.7 1.2-1.6 1.3-1.6 1.3-2.9 2.4v1.1c-.7 0-1.1.1-1.8.6-.8.5-2 1.5-4.5 3.8-.6.6-1.2 1.2-1.8 1.7-2.4 2.2-4.7 4.3-6.9 6.6 1.1 1 2.1 1.9 3.2 2.8.4.4.9.8 1.3 1.2 2.1 1.9 4.3 3.7 6.3 5.7 1.6 1.7 3.2 3.3 5 4.8 3.1 2.5 6.1 5 9 7.7 3.1 2.9 6.1 5.8 9.4 8.4 3 2.4 5.7 4.9 8.5 7.4 3.5 3.3 7.1 6.5 10.7 9.7 1.8 1.7 3.7 3.3 5.6 5 2.7 2.5 5.4 4.9 8.1 7.3 2.5 2.2 4.9 4.4 7.4 6.6 3.6 3.3 7.1 6.5 10.8 9.7 2 1.7 4 3.4 5.9 5.2 1.5 1.3 3 2.7 4.5 4 2.6 2.3 5.1 4.6 7.6 6.9 5.2 4.9 10.6 9.6 16 14.3v-.5l.3.3V271.8c-2.2 0-4.3.2-6.3.2-.4.4-.5.5-.8 1-.4.5-.7.9-2 3.6-2.1 4.4-4.4 8.7-6.8 12.9-1.3 2.2-2.5 4.4-3.5 6.7-.1.2-.2.4-.2.6H426c0-1.3 0-1.3-1-2.7-1.6-2.1-3.1-4-3.8-6.5.1-.3.2-.7.3-1.1.8-1.8 1.4-3.4 1.8-5.3.1-1 .1-1 .3-2 .1-.9.1-.9.3-1.8.1-.4.1-.9.2-1.3.7 1.9.7 1.9 2 3.9 1.8-4.4 2.1-8.2 2-13-.1-1.3-.1-2.6-.1-3.9h1.3c-.2-3.5-.6-6.7-1.6-10-.7-2.1-1.2-4.1-1.6-6.3.9 1.1 1.7 2.2 2.6 3.3.1-.3.3-.7.4-1 .6-3.7.6-3.7-4.5-13.9-.6-1-.6-1-1.1-2l4.6 4.6c.1-2-.1-3.5-.6-5.4-.2-.9-.5-1.7-.7-2.5-2-6.9-4.5-13.4-7.5-20-.3-.7-.7-1.5-1-2.2 9.5 11.4 12 24.7 13.7 39.1.2 1.4.3 2.7.5 4.1.1.4.1.9.2 1.3.4 3.5.9 5.8 3.1 8.5 2 1.7 2 1.7 7.6 1.5 7.2-.9 14-4.5 18.9-9.8.6-.8.6-.8 1.1-1.6 2.5-3.1 3.1-5.9 3.7-9.7.1-.5.1-.9.2-1.4.4 1.1.9 2.2 1.3 3.3h1.3v-13.1c2 3.9 2 3.9 3.3 5.2.2-6.5.3-12.8-2.3-18.8l-.9-2.1c.6 1 1.3 2.1 2 3.2.3.4.5.9.8 1.3.9 1.6 1.9 3.1 3 4.6h1.3c0-6.3-3.9-13-8-17.7-1.5-1.6-2.2-2.6-3.1-4.5 4.2 3.3 7.3 7.1 10.5 11.4.4.6.8 1.1 1.2 1.7.3-.7.5-1.4.7-2-3.6-11.5-12.6-19.6-22.1-26.4-.5-.4-.9-.7-1.4-1h2c-2.1-6-2.1-6-15.6-13.3-.7-.4-1.4-.7-2.1-1.1 2.5.4 4.8.9 7.2 1.3-1.2-2.4-2.6-4-4.7-5.7l-1.2-.9c-3.8-2.9-7.7-4.8-12.2-6.6-.8-.3-.8-.3-1.5-.6 2.2-.3 4.3-.5 6.5-.7-1.4-1.9-1.4-1.9-3.2-3.1-.7-.4-1.5-.8-2.2-1.2-2.2-1.3-4.1-2.2-6.6-2.7-.9-.1-.9-.1-1.7-.2v-1.3h7.8v-1.3c-3.8-2.6-3.8-2.6-12.4-5.3-.7-.2-1.3-.4-2-.6 2.2-.4 4.3-.9 6.5-1.3v-.7c-2.9-1.8-5.4-3-8.7-3.8-.5-.1-.9-.2-1.4-.3-.9-.3-1.9-.5-2.8-.7-.7-.2-1.4-.3-2.1-.5 2.5-.7 4.2-1.3 5.9-3.3-5.5-2.8-10.3-3.7-16.3-3.9h-2c3-1.7 3-1.7 5.9-3.3v-1.3c-4-.4-7.9-.9-11.8-1.3.4-.7.9-1.4 1.3-2-.3-.4-.5-.9-.7-1.3-.6 0-1.1.1-1.7.1-.8 0-1.5.1-2.3.1-2.4.2-4.4.4-6.7 1.1-.6.2-1.1.4-1.7.6 1.3-1.6 2.6-3.1 3.9-4.6h-3.7c-3.2 0-5.5.2-8.4 1.5-.5.3-1.1.6-1.7.9l-1.8.9c-.4.2-.9.5-1.3.7 1.6-2.3 3-4.5 3.9-7.2-5.2-.4-5.2-.4-13.1 6.1-.4.4-.9.7-1.3 1.1 1-2.9 1.6-5.5 2-8.5h-1.3c-2.7 1.9-4.9 3.7-6.2 6.8-.1.6-.2 1.1-.3 1.7h-1.3c0-2.5-.1-3.1-1.3-5.2-1.6-2.3-2.4-3.4-5.2-3.9-.1 3.1-.2 6.1.7 9.2.3.7.5 1.3.7 1.9h-1.3c0-2.3 0-2.3-2.2-4.8-2.7-2.7-5.7-5.4-9.6-5.6 0 1.3 0 1.3.6 2.9.2.6.5 1.2.7 1.8s.5 1.2.7 1.8l.6 1.4c-.4-.3-.9-.5-1.3-.7-.6-.3-1.1-.6-1.7-.9-.7-.4-1.4-.7-2.1-1.1-2.7-1.4-5-2.2-8-2.6 0 1.3 0 1.3.9 2.6 1.2 1.3 1.2 1.3 1.7 3.3-.8-.5-.8-.5-1.6-.9-.7-.4-1.4-.7-2.1-1.1-2.9-1.6-4.8-2.2-8.1-2 0 .7 0 .7.9 2 .6.8.6.8 1.1 1.6.6.8.6.8 1.1 1.6.3.5.6.9.9 1.3-3.9-1.7-6.9-2.3-11.1-2 .4.9.9 1.7 1.3 2.6-.6-.1-1.2-.1-1.8-.1-.8-.1-1.5-.1-2.3-.1-.8-.1-1.5-.1-2.3-.1-2.2.3-3.1.7-4.7 2.2 1.8.9 3.5 1.7 5.2 2.6-6.3.3-13.6-.1-18.3 4.6 1.8.9 3.5 1.7 5.2 2.6-.6 0-1.2.1-1.8.1-.8.1-1.5.1-2.3.2-2.2.1-4.1.3-6.3 1 .3.4.5.9.7 1.3.6.1 1.1.3 1.7.4l1.6.2v1.3c-3.3-.2-5.9.4-9.1 1.3 1.3 1.3 1.3 1.3 2.7 1.7.5.1 1.1.2 1.6.3.8.1.8.1 1.6.3.4 0 .8.1 1.2.2-4.9.9-9.2 2.6-13.7 4.6v1.3c2.5.4 4.8.9 7.2 1.3-5 1.4-9.4 3.5-13.7 6.5v1.3c1.8.3 3.5.5 5.2.7-.5.2-.9.3-1.4.5-6.4 2.7-13.3 6.6-16.2 13.2 1.3-.7 1.3-.7 2.9-1l1.8-.3c1.1-.2 2.1-.4 3.2-.6-3 1.4-5.9 3-8.7 4.7-.4.3-.8.5-1.2.8-4 2.5-7.1 5.2-9 9.6 1.3-.4 2.6-.9 3.9-1.3-1 .7-1 .7-2 1.3-10.3 6.5-17.9 14.6-22.5 26.1-.4 1.3-.4 1.3.3 2.6 3.6-5.4 7.8-9.4 13.1-13.1-1.3 1.4-2.5 2.8-3.8 4.2-5.1 6.1-8.4 12.4-7.9 20.6h.7l.1-.1c0 .2-.1.5-.1.7h-1.3v-3.3c-14.4-.1-28.7-.1-43.1-.2-6.9 0-13.9-.1-20.9-.1-6.1 0-12.3-.1-18.4-.1H98.6c-1.5 0-3 0-4.5-.1-.4-.3-.9-.5-1.3-.7-.4.3-.8.5-1.2.7-1.9-1.5-3.7-3-5.4-4.8-1.9-2.7-2.3-5-2.1-8.3.4-3 .9-4.2 3.2-6.2l5.7-5.1c2.2-2 4.4-4 6.7-5.9 3.3-2.6 6.4-5.2 9.4-8 2.5-2.3 5-4.5 7.6-6.6 2.4-2 4.8-4.1 7.1-6.2 1.8-1.6 3.6-3.2 5.4-4.7 2.8-2.3 5.6-4.6 8.3-7.1 2.8-2.6 5.6-5.1 8.6-7.5 2.3-1.9 4.6-3.8 6.8-5.8 1.7-1.4 3.3-2.9 5-4.3 3.3-2.7 6.6-5.5 9.7-8.4 2.6-2.4 5.2-4.7 7.9-6.9 1.8-1.5 3.6-3 5.3-4.5 2.4-2.2 4.7-4.3 7.2-6.4 2.4-2 4.9-3.9 7.2-6 2.9-2.7 5.9-5.4 9-7.9 1.8-1.5 3.5-2.9 5.2-4.4 2.2-2 4.4-4 6.7-5.9 3-2.3 5.9-4.7 8.7-7.3 2.3-2.1 4.6-4 6.9-5.9 1.9-1.5 3.7-2.9 5.4-4.5l3.3-3c.7-.7.7-.7 1.4-1.3 2.1-1.9 3.2-2.6 6-2.8 13.1 3.8 13.1 3.8 23.5 13.9 2.2 2 4.4 3.9 6.7 5.8 3 2.5 5.9 5.1 8.9 7.6.4.4.7.7 1.1 1 2 1.7 4 3.5 6 5.2.4.4.9.8 1.3 1.2.9.7 1.7 1.5 2.6 2.3 1.4 1.3 2.9 2.7 4.5 3.8 2.1.7 2.9.7 5 .1 3.9-1.7 7.9-3.2 12-4.4.6-.1 1.2-.3 1.8-.5 1.6-.4 3.3-.9 4.9-1.4.4-.1.7-.2 1.1-.3-1.8-1.8-3.6-3.5-5.6-5.2-.8-.7-1.6-1.3-2.4-2-.6-.6-.6-.6-1.2-1.1l-6-5.1c-2.2-2-4.5-3.9-6.8-5.9-5.6-4.8-11.1-9.5-16.6-14.3-.8-.7-1.7-1.4-2.5-2.1-.6-.6-.6-.6-1.2-1.1-.9-.7-1.7-1.4-2.5-2.1-2-1.8-4-3.5-6-5.3-7.5-6.8-15-12.2-25.5-12.2h-1.5c-2.8 0-5.2 0-8.1.3-.9.3-.9.3-1.8.7-4.6 1.8-8.3 3.9-12.1 7.1-1.1 1-2.2 2-3.4 2.9-3 2.4-5.9 4.8-8.7 7.4-1.6 1.5-3.3 3-5 4.4-3.1 2.5-6.1 5-9 7.7q-2.7 2.55-5.4 4.8c-2.4 2-4.9 3.9-7.2 6-2.9 2.7-5.9 5.4-9 7.9-2.3 1.9-4.5 3.8-6.7 5.8-2.8 2.5-5.6 5-8.5 7.4-6.7 5.6-13.2 11.3-19.8 17-2 1.7-4.1 3.5-6.1 5.3-2.5 2.1-4.9 4.3-7.4 6.4-7 6.1-14 12.1-21.1 18.1-4 3.4-8.1 6.8-12 10.4-3 2.7-6 5.4-9.2 7.9-1.6 1.3-1.6 1.3-2.8 2.3v1.3c-1.3 0-1.3 0-2.2.7-.6.5-.6.5-1.1 1-.4.4-.8.7-1.2 1.1-.8.7-1.7 1.5-2.5 2.2-.9.7-1.7 1.5-2.6 2.2-.8.7-.8.7-1.5 1.3-3 2.7-6 5.4-8.8 8.2-7.9 8.4-9.8 17.9-9.7 29.2zM481.4 458c-6.4-3.7-7.4-4.3-37.8-4.3-.3-.3-.7-.6-1-.9l-1.8-1.5c-1-.9-2-1.7-3-2.5-5.7-4.6-11.2-9.3-16.7-14.1-4.3-3.8-8.6-7.6-13-11.2-3-2.4-5.9-4.9-8.8-7.5-2.3-2.1-4.7-4.2-7.2-6.2-1.8-1.5-3.5-2.9-5.2-4.4-2.8-2.5-5.6-4.9-8.5-7.3-1.7-1.4-3.5-2.9-5.2-4.4-2.7-2.5-5.5-4.9-8.3-7.2-2.5-2-5-4.1-7.4-6.2-3.3-2.8-6.5-5.6-9.8-8.3-2.4-2-4.8-4-7.2-6.1-3.2-2.8-6.5-5.6-9.8-8.3-1.6-1.3-3.2-2.5-4.7-3.9-.4-.4-.8-.7-1.2-1.1-.9-.7-1.7-1.5-2.5-2.2-1.4-1.3-2.7-2.4-4.3-3.5-2 0-2.8.3-4.4 1.4-.6.5-.6.5-1.1 1-.4.4-.9.8-1.3 1.2-1.7 1.6-3.5 3.1-5.2 4.6-.7.6-.7.6-1.3 1.1-2.8 2.5-5.7 4.9-8.6 7.3s-5.7 4.8-8.5 7.2c-2.3 2-4.6 4-6.9 5.9l-1.8 1.5-3.3 2.7c-1.7 1.2-3.3 2.4-4.8 3.8-1.4 1.8-1.5 3-1.6 5.3-.1 3.6-.7 6-2.5 9.1-2.6 3.9-6.2 5.7-10.7 6.6-5.1.6-8.8-.4-13.1-3.4-3-2.7-5-5.3-5.4-9.4-.2-1.7-.3-3.4-.5-5.1-.9-3.4-.9-3.4-5.6-6.7-2.1-1.4-3.9-2.9-5.8-4.6-3.3-2.9-6.6-5.7-10-8.5-2.2-1.7-4.2-3.5-6.3-5.3-2.1-1.9-4.2-3.7-6.4-5.5q-3.9-3.15-7.5-6.6c-1.6-1.6-2.9-2.8-5-3.6-1.7 0-1.7 0-3.3 1l-1.6 1.4c-1 .8-1 .8-1.9 1.6l-4.5 3.9c-.8.8-1.7 1.5-2.5 2.2-2.9 2.5-5.7 4.9-8.6 7.3-2.3 1.8-4.5 3.6-6.7 5.5-2.3 2-4.7 4-7.1 6-3.7 3-7.4 6.1-11 9.2-4.6 4-9.1 7.9-13.8 11.7-5.4 4.3-10.6 8.8-15.8 13.3-4 3.5-8.1 7-12.2 10.4-4 3.2-4 3.2-12.7 10.7-1.1 1-2.3 2-3.5 3l-1.2 1c-2.1 1.8-4.3 3.6-6.4 5.4-5 4-9.8 8.3-14.4 12.8-10.9.1-21.7 1-31.6 3.9-.3.7-.5 1.4-.7 2 4.7 2.3 4.7 2.3 18.4 3 1.7 0 3.4.1 5.1.2 2 .3 4 .6 6.1.8.8 0 1.6.1 2.4.1 1.4 0 2.8.1 4.2.2.5 0 1 .1 1.5.1 11.4.6 22.7 1.2 34.1 1.6.5.1 1.1.1 1.6.1 138.7 2.8 191.5 2.7 244.3 1.7h2.3c7.3-.1 14.7-.3 22-.5 2.5-.1 5.1-.1 7.6-.2 23.6-.6 47-1.4 70.5-3.1.6 0 1.1-.1 1.7-.1 3.3-.2 6.5-.4 9.8-.7 1 0 1.9-.1 2.9-.2 5.5-.4 10.7-1 16-2.9z"/><path d="M357.2 244.6c2.5 2.1 2.5 2.1 3.3 4.3.2 2.2.2 2.2.1 4.6v2.4c-.1 2.1-.1 2.1-.8 4.1.8-.3 1.5-.6 2.3-1 5-1.8 8.8-1.1 13.7.9 7.5 3.5 10.7 11.4 14.1 18.4.1-2.9-.1-5.3-1-8.1-.3-.8-.3-.8-.6-1.7-.1-.4-.3-.8-.4-1.3 5.6 4.5 10.3 9.2 11.3 16.7.1 3.8-.7 6.6-2.2 10.1h-.7v-6.5H395c-.1.6-.1.6-.2 1.3-.8 5-2.5 8.4-6.3 11.8h-1.3v1.3c-4.7 3.3-11 7.2-17 7.2v-2h-1.3v1.3c-7.4 6.1-15.8 8.1-25.1 8h-1.7c-3.7 0-6.8-.6-10.3-1.8-1.5-.5-1.5-.5-3.3-.4-5.6-.4-8.9-2.8-13.1-6.5-.3 1-.3 1-.7 2-5 0-8-2.9-11.8-5.9-1-.6-1-.6-2-1.3v-1.3c-.4-.1-.9-.2-1.3-.3-4-2.1-6.4-5.5-8.1-9.7-2-6.3-1.5-11 1.6-16.8 2.6-4.7 5.6-7.1 10.5-9.1-.4 3-.9 6-1.3 9.1.4-1.4.4-1.4.7-2.9 1.6-5.4 4.2-9.3 9.1-12.2 5.3-2.4 10.4-1.1 15.6.7-.1-.4-.2-.7-.3-1.1-1.8-7.7-1.8-7.7-.3-10.7 2.7-4 5.9-5.5 10.3-6.9 6.9-1.3 14.1-.5 19.8 3.3m13.7-53.2c-1.6 1.3-1.6 1.3-3.3 2.6.7-.1 1.4-.3 2.1-.4l2.7-.6c.5-.1.9-.2 1.4-.3 1.9-.4 3.7-.7 5.6-.7v1.3c3.4.6 6.9 1.3 10.4 2-.9.2-1.7.4-2.6.7v1.3c.6.2 1.1.3 1.7.5 6.5 2.3 12 5.9 15.3 12 .7 1.4.7 1.4 2.2 3.1 5.1 7 7 16.2 7.2 24.7-.3 1.8-1 2.7-2.2 4-3.4 1.3-6.1.1-9.3-1.1-2.5-1.1-4.9-2.3-7-4.1v-1.3c-.4-.2-.9-.3-1.3-.5-2.3-1-4.5-2-6.7-3.2-.4-.2-.8-.4-1.3-.6-1-.5-2.1-1-3.1-1.6v-.7l-1.6-.2c-3.7-.6-7.3-1.2-10.9-2.4v-1.3c-1.7-.2-3.4-.4-5.2-.7v-1.3h-5.2c.1-.4.3-.8.4-1.2l.2-1.4-1.3-1.3c-.4.3-.8.6-1.1 1-1.5 1-1.5 1-4.1 1 .9-1.7 1.7-3.5 2.6-5.2l-7.8 3.9c.3-3.2.3-3.2.7-6.5-.5.5-1 1.1-1.6 1.6-1.7 1.6-1.7 1.6-3 1.6-.6-1.3-.6-1.3-1.3-2.6-.2 1.5-.4 3-.7 4.6l-1.5-1.5c-1.9-1.9-1.9-1.9-4.4-3.7.6 2.4 1.3 4.7 2 7.2-1.3-1-2.6-2-3.9-3.1-1.3-1-1.3-1-3.3-.9.6 1.9.6 1.9 1.3 3.9-3.1-.6-3.1-.6-4.6-1.3.6 1.3 1.3 2.6 2 3.9-2.2-.4-4.3-.9-6.5-1.3.2.6.4 1.3.7 2h-2v1.3c-3.2.3-3.2.3-6.5.7l1.3 1.3c-1.2.3-2.4.7-3.7 1l-2.1.6c-2.1.4-3.9.5-6 .4-.2.6-.4 1.3-.7 2-1.3.5-1.3.5-3 .8-.8.2-.8.2-1.6.3-.4.1-.8.1-1.3.2l1.3 1.3c-.4.1-.7.2-1.1.4-3.2 1.2-6 2.6-8.8 4.5-3.8 2.7-6.7 4.2-11.5 3.9-1.4-.3-1.4-.3-3.4-1.6-1.6-7.5 1.9-16.9 5.2-23.5.8 2.4.4 4.1 0 6.5.2-.5.4-.9.5-1.4 2.3-5.7 5-10.9 8-16.3h1.3c.3-.6.3-.6.5-1.1 3-5.5 8.7-9.2 14.5-11.1 4.8-1.3 8.8-.8 13.6.2 1.4.3 1.4.3 2.7.3-.6-1-.6-1-1.3-2 4.5 1.2 8 3.1 11.8 5.9v-2.6c.2-.4.4-.9.7-1.3.9.7 1.7 1.5 2.6 2.2.5.4 1 .8 1.4 1.3.6.6 1.3 1.1 1.9 1.7.4-1.1.9-2.2 1.3-3.3 1.5 1.3 2 2 2.6 3.9.6.3.6.3 1.3.7.1-.5.1-1 .2-1.5.6-2.1 1.5-3 3.1-4.4.3 2.3.3 2.3.7 4.6l4.6-5.2c1.1 2.1.3 4.2 0 6.5.4-.5.4-.5.9-1.1.4-.5.8-.9 1.2-1.4s.8-.9 1.2-1.4c1.2-1.3 2.4-2.3 3.9-3.3.6.3.6.3 1.3.7-.2.6-.4 1.3-.7 2 .7-.5 1.3-1 2-1.5 5.6-4 5.6-4 8.4-3.1m91.5 34.6c3.1 2.7 4.3 6.6 5.2 10.4 0 5.3-.7 9.4-3.9 13.7-.4.5-.7 1.1-1.1 1.6-4.9 5.3-11.8 9.1-19 9.7-2 0-4 0-6.1-.2l1-1c1.4-2.3 1.2-4.4 1.1-7v-1.5c0-1.2-.1-2.4-.1-3.6 1.8 2.1 3 3.9 3.9 6.5.7-1.5.8-2.4.9-4 0-.5.1-1.1.1-1.6s.1-1.1.1-1.7.1-1.1.1-1.7c.1-1.4.1-2.7.2-4.1 2 1.9 3.7 3.7 5.1 6.1.3.5.5.9.8 1.4.2.3.4.7.6 1 1-2 .7-4.1.7-6.3v-1.4c0-2.9-.3-5.7-.7-8.6 2.6 1 3.4 2.3 4.7 4.7l1 1.8c.3.5.5.9.8 1.4 1.9-2.4 2.3-4.1 2.6-7.2 1.6 1.9 2.3 3.4 2.6 5.9h1.3l-.6-5.7-.2-1.6-.2-1.6c-.1-.5-.1-1-.2-1.5-.1-1.2-.4-2.5-.7-3.9M222 232.6c.2.4.4.9.7 1.3-.2.6-.4 1.3-.7 2 0 1.8-.1 3.6 0 5.3v5.1c1.9-1 2.2-2.4 3.1-4.4 1.5-3.1 3-5.5 5.3-8 1 2.1 0 3.7-.7 5.9v2.6c1.1-1.7 2.2-3.4 3.3-5.2.6 2.6.9 5 1 7.7 0 .5.1.9.1 1.4.1 1.1.1 2.2.2 3.4.3-.5.5-1 .8-1.5.4-.7.7-1.3 1.1-2 .3-.7.7-1.3 1.1-2 1-1.6 1-1.6 2.3-2.3v1.2c.1 1.8.2 3.5.2 5.3 0 .6.1 1.2.1 1.9 0 .6.1 1.2.1 1.8 0 .5 0 1.1.1 1.6 0 1.3 0 1.3.8 1.9.9-2.2 1.7-4.3 2.6-6.5h.7c0 .6.1 1.2.1 1.8.1.8.1 1.5.2 2.3s.1 1.5.2 2.3c.2 1.7.4 3.1.9 4.7 1.1.2 2.2.4 3.3.7v.7c-8.5.4-14.7-1.2-21.6-6.5-4.4-4.2-7.2-7.8-7.4-14 0-3.6.3-5.8 2.1-8.5m197.3 51.6h1.3v2.2c.4 3.3 2.1 5.3 4 7.9 1.6 2.3 3 4.8 3.8 7.5-.2.6-.4 1.3-.7 2-1.5-.9-3-1.7-4.6-2.6.3.3.6.5.9.8 2.9 2.8 4.8 5.2 6.3 9-.2.4-.4.9-.7 1.3-.9-.6-1.7-1.3-2.6-2 .2.3.5.7.7 1 .3.5.6.9.9 1.4.3.4.6.9.9 1.4.8 1.7.8 2.9.7 4.7-.5-.3-1-.6-1.5-1-.7-.4-1.3-.8-2-1.3-1-.6-1-.6-2-1.3-1.6-1-1.6-1-3-1.7-.2 2.2-.4 4.3-.7 6.5-.2-.4-.4-.9-.7-1.3H419c-.2.6-.3 1.2-.5 1.8-.2.8-.5 1.6-.7 2.4s-.5 1.5-.7 2.3c-.7 2-.7 2-2 3.3-.4-.6-.9-1.3-1.3-2l-.6 1.4c-1.8 4.2-3.8 8.1-6.6 11.7h-.7c-.3-2.9-.3-2.9-.7-5.9-.2.4-.5.9-.7 1.3-3.2 5.4-7.1 9.5-11.7 13.7-.7-1.3-.7-1.3-.1-2.9.3-.6.5-1.2.8-1.8.2-.6.5-1.2.8-1.8.2-.5.4-.9.6-1.4-.5.5-1 1-1.5 1.6-5.2 5.4-10.5 10.6-18.1 12.2.6-1.3 1.3-2.6 2-3.9-.5.2-.9.4-1.4.6-5.3 2.4-10.3 4.7-16.1 5.6-2.1.3-2.1.3-4.5.9-3.4.7-6.4 1.1-9.4-.8-2.9-2.3-5.3-4.9-7.8-7.6-2-2.1-4.2-4-6.5-5.9-.9-.7-1.7-1.5-2.6-2.2-.6-.6-1.3-1.1-2-1.7 2.2-2.3 4.5-4.4 6.9-6.6.6-.5 1.2-1.1 1.8-1.7 4.7-4.2 4.7-4.2 6.3-4.2v-1.3c1.9-1.6 3.9-3.1 5.9-4.6-3.2-.2-6.5-.4-9.8-.7v-.7c.8 0 1.5 0 2.3-.1 11.7-.4 21.2-2.8 31.7-7.9 1.3-.5 2.5-.9 3.8-1.2v2c5.2-1.5 9.3-3.3 13.7-6.5.4-.2.9-.4 1.3-.7.3 1.3.3 1.3.7 2.6.9-.5 1.9-1 2.8-1.5.5-.3 1-.6 1.6-.8 1.5-.8 1.5-.8 2.6-2l.9-.9h1.3v1.3c3.1-1.8 5.2-3.9 7.5-6.7 1-1.2 1-1.2 2.3-2.5.6 1 .6 1 1.3 2 3.7-3.5 6.7-7.4 7.4-12.7m-150.9 5.2c2.1 2.1 4.1 4.1 5.9 6.5v1.3h1.3v-3.9h1.3c.4.7.9 1.5 1.3 2.2 2.2 3.6 5.3 6.2 8.5 8.9.2-1.1.4-2.2.7-3.3 1.4 1.4 2.9 2.9 4.3 4.4s1.4 1.5 2.9 2.2v-2.6h1.3v1.3c.4.2.7.4 1.1.5 1.5.8 1.5.8 3 1.8 1.8 1 3.3 1.4 5.3 1.8.7.1 1.4.3 2 .4 1.4.3 2.8.5 4.2.8 4 .8 6.9 1.7 10.4 3.9 1.2.5 2.4 1 3.6 1.4.6.2 1.2.4 1.9.6 2.8 1 2.8 1 5.6 1.9-2.4 2.5-4.9 4.6-7.6 6.7-3.4 2.6-6.6 5.3-9.7 8.2-2.3 2.1-4.7 4-7.1 5.9-1.4 1.2-2.8 2.4-4.1 3.7-1.5 1.3-2.1 1.6-4.1 2-2.3-.5-3.5-1.4-5.1-3 .2 1.1.4 2.2.7 3.3-3.2-.9-4.7-2.8-6.6-5.4-.3-.4-.5-.7-.8-1.1-1.8-2.4-3.4-4.8-5-7.2-.2 1.5-.4 3-.7 4.6-2.8-2.5-4.4-5.1-6.1-8.5-.2-.5-.5-.9-.7-1.4-1.2-2.4-1.7-3.6-1.7-6.4h-1.3c-.2.6-.4 1.3-.7 2-.4-2.2-.9-4.3-1.3-6.5-.4.6-.9 1.3-1.3 2-1.7-5.7-2.2-11-2.1-16.9v-2.4c-.1-3.5 0-6.5.7-9.7" style="opacity:.25"/><path d="M268.4 205.8c.2.4.4.9.7 1.3-.6 1.3-1.2 2.5-1.9 3.8-2.2 4.1-3.9 8.4-5.5 12.8-.2.6-.4 1.2-.7 1.8-1.3 3.6-2.3 7.2-3 11l5.9-5.9c0 2.2-.2 2.5-1.4 4.2-3.2 4.9-5.4 10.2-5.8 16l3.3-3.3c.4.2.9.4 1.3.7-.2.5-.5 1-.7 1.5-.3.6-.6 1.3-.9 1.9-.4 1-.4 1-.9 1.9-1.3 3.1-1.5 5.6-1.4 9l2.6-2.6-.3 1.8c-1 7-.3 13.6 1.6 20.4l.7.7c1-3.2 1-3.2 2-6.5h.7c1.3 9.1 1.3 9.1-.2 12.2-1.2 1.3-2.4 2.4-3.7 3.5-1 1.3-1.8 2.6-2.6 3.9 1.5-.2 3-.4 4.6-.7-1.3 1.7-2.5 3.1-4.2 4.5-4.8 3.9-8 9.4-10.2 15.1 1.9-1.3 3.9-2.6 5.9-3.9.4.2.9.4 1.3.7-.3.4-.7.8-1 1.2-4.4 5.3-7.4 10.3-8.8 17.1 2.6-1.9 2.6-1.9 5.2-3.9.4.2.9.4 1.3.7-.5.5-1 1.1-1.5 1.6-2 2.4-3.3 5-4.6 7.8-.2.5-.5 1-.7 1.5-.6 1.2-1.1 2.3-1.7 3.5.6-.4 1.3-.9 2-1.3 1.6-.6 1.6-.6 3.3-1.3-1.5 2.8-3 5.6-4.6 8.5-2.2-1.3-3.9-2.4-5.8-3.9-.5-.4-.9-.8-1.4-1.1-.5-.4-.9-.8-1.4-1.2-1-.8-2-1.7-3-2.5l-1.5-1.2c-1.7-1.4-3.4-2.8-5.2-4.3-.6-.5-1.1-.9-1.7-1.4-.5-.4-1.1-.9-1.7-1.4-1.2-1-2.4-2-3.6-2.9-.9-.7-.9-.7-1.8-1.5-1.8-1.5-3.6-2.9-5.4-4.4-.9-.7-.9-.7-1.8-1.5-1.2-.9-2.3-1.9-3.5-2.8-3.5-2.9-7-5.7-10.5-8.6-.4-.4-.9-.7-1.3-1.1-2.3-1.8-4.5-3.7-6.8-5.5-4.1-3.3-8.1-6.6-12.1-10-3.2-2.8-6.5-5.4-9.9-8-3-2.3-5.8-4.7-8.7-7.2-2.6-2.2-5.3-4.4-8-6.5-2.8-2.2-5.6-4.5-8.3-6.9-2.8-2.4-5.6-4.7-8.5-7-.8-.7-1.6-1.3-2.4-2-3.6-2.9-7.1-5.8-10.7-8.7-4.5-3.6-8.9-7.3-13.3-11-2.6-2.2-5.3-4.4-8-6.5-2.3-1.9-4.5-3.8-6.7-5.8.4-.2.9-.4 1.3-.7.4.2.9.4 1.3.7 1.5.1 3 .1 4.5.1h28.6c6.1 0 12.3.1 18.4.1 7 0 14 .1 20.9.1 14.4.1 28.7.1 43.1.2v3.3h1.3c0-.4.1-.9.1-1.3.8-2.9 2.6-4.9 4.5-7.2.9 1.9.3 2.9-.3 4.9-1.1 4-1.2 7.4-1 11.5 1.6-2.9 1.6-2.9 3.3-5.9.6 2.5.7 3 0 5.2-.1 1.8-.3 3.6-.4 5.4 0 .7 0 .7-.1 1.5-.1 1.2-.1 2.4-.2 3.6h1.3l.2-2.2c.1-.8.3-1.5.4-2.3.4-.2.9-.4 1.3-.7v1.2c.3 6 2.7 10.3 7 14.4 5.8 4.7 12.5 7.1 20 6.9 1.9-.1 1.9-.1 3.5-1.5 2.1-4.7 2.4-9.6 2.7-14.7 1.2-14.1 6.1-27.9 15.2-38.9M93.8 453.7h329c51-.1 51-.1 58.6 4.3v1.3c-5.3 1.9-10.5 2.5-16 2.9-1 .1-1.9.2-2.9.2-3.3.3-6.5.5-9.8.7-.6 0-1.1.1-1.7.1-23.5 1.7-46.9 2.5-70.5 3.1-2.5.1-5.1.1-7.6.2-7.3.2-14.7.4-22 .5h-2.3c-52.8 1-105.6 1.1-244.3-1.7-.5 0-1.1 0-1.6-.1-11.4-.4-22.7-1-34.1-1.6-.5 0-1-.1-1.5-.1-1.4-.1-2.8-.2-4.2-.2-.8 0-1.6-.1-2.4-.1-2.1-.2-4.1-.5-6.1-.8-1.7-.1-3.4-.2-5.1-.2-13.7-.7-13.7-.7-18.4-3 .2-.6.4-1.3.7-2 19.3-5.7 42.2-3.5 62.2-3.5" style="opacity:.75"/><path d="M316.1 225.5c2-.3 4-.5 5.9-.7l-1.3-1.3c.3-.4.5-.9.7-1.3.3-3.6-.6-6.6-2-9.8-1.8-2.8-4-4.8-7.2-5.9-6.5-.7-9.7.8-14 5.7-1.6 3.2-1.6 6-1.1 9.4 1.4 3.2 3.5 4.9 6.5 6.6 3.4 1.5 3.4 1.5 13.8-1.4zm-3.9-9.8h-3.3c-.2-1.1-.5-2.2-.7-3.3l.7-.7c1.1.2 2.2.4 3.3.7zm78.7.6c-1-3.6-3.3-6.8-6.4-8.9-6.2-3.1-11.8-.4-16.1 4.2-2.4 3.7-2.4 3.7-2 12.4 1.3.3 2.6.5 3.9.7v1.3c1.3.2 2.6.4 3.9.7 1.5.8 2.6 1.3 4.2 1.5 3.7.1 6-.1 8.9-2.8 2.2-2.7 3.9-5.4 3.6-9.1m-12.1-.6c-.6.2-1.3.4-2 .7-.4-.2-.9-.4-1.3-.7v-3.3c.2-.3.4-.5.7-.7 1.1.2 2.2.4 3.3.7-.2 1.1-.4 2.2-.7 3.3m-26.3 61.4c-.6-.3-.6-.3-1.2-.5-2.3-.9-4.6-1.7-6.5-3.3-.4-1-.6-1.6-.7-2.1v-2.5h4.4c.5 0 .9-.1 1.3-.2 1.3-.3 2.4-.9 3.5-1.7.4-.2.7-.5 1-.8 1-.8 2-1.8 2.9-2.7 3.3-3.6 3.6-6.9 3.5-11.4v-.9c-.4-3.2-1.1-4.3-3.5-6.4-2.6-1.8-5.8-2.9-9-3.5l.6 1.2c-.6.2-1.3.4-2 .7.5.1.9.2 1.4.4.6.2 1.2.3 1.8.5s1.2.3 1.8.5c1.6.6 1.6.6 2.9 2.6h-21.6c1.7-1.7 3.1-2.7 5.2-3.9-.6-.4-1.3-.9-2-1.3.1 0 .2 0 .2-.1-2.7.8-5.3 2.1-7.4 3.9-1.9 2-2.6 3.5-2.8 6.3.3 5.9 2 9.9 6 14.2 0 0 0 .1.1.1 3.2 2.4 6.1 2.9 10 2.7.4 0 .7-.1 1-.1v.8c-.2 1.4-.4 2.4-1.2 3.7-7.2 6-18.4 7.7-27.5 7.3-1 0-1 0-1.9-.1 4.3 3.4 6.9 6.4 9.5 11.2 2.2 4.1 4.1 7.4 8 10.1 6.5 3.9 13.4 4.7 20.8 2.9 6.9-2.4 9.9-5.6 13.2-12.1 2.5-4.9 5.4-8.2 9.7-11.6l1.5-1.2c-8.2.5-15.3.2-23-2.7m2.9 18.9c-4.3 3.8-8.4 4.2-14.1 4.1-4.1-.3-6.9-1.1-9.7-4.2-2.6-3.4-4.4-6.6-4.8-10.8-.1-.5-.1-1-.2-1.6 0-.4-.1-.8-.1-1.2.8-.2 1.7-.5 2.5-.7l3.3-.9c.5-.2 1.1-.3 1.6-.5.5-.1 1-.3 1.6-.4.5-.1 1-.3 1.5-.4 1.1-.4 2.2-.8 3.2-1.1.4.2.9.4 1.3.7.4 1.4.8 2.8 1.1 4.3.2.8.3 1.6.5 2.4.1.6.3 1.2.4 1.8h.7c.1-.5.2-1 .2-1.5.1-.6.2-1.3.3-2 .1-.6.2-1.3.3-2 .4-1.8.4-1.8 1.7-3.7l1.2.4q6.6 1.95 13.2 3.6c-.2 5-2.4 9.9-5.7 13.7m-17-54.8c3-.6 6-.7 9-.2h-3.8c-1.7 0-3.4 0-5.2.2"/><path d="M340.2 278.3c.4.2.9.4 1.3.7.4 1.4.8 2.8 1.1 4.3.2.8.3 1.6.5 2.4.1.6.3 1.2.4 1.8h.7c.1-.5.2-1 .2-1.5.1-.6.2-1.3.3-2 .1-.6.2-1.3.3-2 .4-1.8.4-1.8 1.7-3.7l1.2.4q6.6 1.95 13.2 3.6c-.2 5-2.4 9.9-5.7 13.7-4.3 3.8-8.4 4.2-14.1 4.1-4.1-.3-6.9-1.1-9.7-4.2-2.6-3.4-4.4-6.6-4.8-10.8-.1-.5-.1-1-.2-1.6 0-.4-.1-.8-.1-1.2.8-.2 1.7-.5 2.5-.7l3.3-.9c.5-.2 1.1-.3 1.6-.5.5-.1 1-.3 1.6-.4.5-.1 1-.3 1.5-.4 1.1-.4 2.2-.8 3.2-1.1m3.5-37.3h4.4c.2.4.4.9.7 1.3-.6.2-1.3.4-2 .7.5.1.9.2 1.4.4.6.2 1.2.3 1.8.5s1.2.3 1.8.5c1.6.6 1.6.6 2.9 2.6h-21.6c1.7-1.7 3.1-2.7 5.2-3.9-.6-.4-1.3-.9-2-1.3 2.5-.9 4.8-.8 7.4-.8" style="opacity:.5"/></svg>