<?xml version="1.0" encoding="utf-8"?>
<!-- Generator: Adobe Illustrator 28.2.0, SVG Export Plug-In . SVG Version: 6.00 Build 0)  -->
<svg version="1.1" id="Layer_1" xmlns="http://www.w3.org/2000/svg" xmlns:xlink="http://www.w3.org/1999/xlink" x="0px" y="0px"
	 viewBox="0 0 512 512" style="enable-background:new 0 0 512 512;" xml:space="preserve">
<path d="M256,509.9c-67.8,0-131.6-26.4-179.5-74.4S2.1,323.8,2.1,256c0-67.8,26.4-131.6,74.4-179.5S188.2,2.1,256,2.1
	c67.8,0,131.6,26.4,179.5,74.4s74.4,111.7,74.4,179.5c0,67.8-26.4,131.6-74.4,179.5S323.8,509.9,256,509.9z M256,20.1
	C125.9,20.1,20.1,125.9,20.1,256c0,130.1,105.8,235.9,235.9,235.9c130.1,0,235.9-105.8,235.9-235.9C491.9,125.9,386.1,20.1,256,20.1
	z M384.3,319.8c0,20.7-7.3,38.2-21.8,52.8c-14.6,14.6-32.2,21.8-52.8,21.8h-89.1c-20.7,0-38.2-7.3-52.8-21.8
	C153.2,358,146,340.4,146,319.8V96.4c15.9,0,29.4,7.8,40.6,23.3s16.8,34.2,16.8,56v144.1c0,11.5,5.8,17.3,17.3,17.3h89.1
	c11.5,0,17.3-5.8,17.3-17.3v-68.3c0-11.1-5.8-16.9-17.3-17.3h-17.3c-22.2-0.7-41-6.5-56.3-17.4c-15.3-10.9-22.9-24.2-22.9-40.1h96.5
	c20.7,0,38.2,7.3,52.8,21.8c14.6,14.7,21.8,32.3,21.8,52.9V319.8z"/>
</svg>
