<svg xmlns="http://www.w3.org/2000/svg" xml:space="preserve" viewBox="0 0 512 512"><path d="M504.3 317.9C470.1 455 331.2 538.5 194 504.3 57 470.1-26.5 331.2 7.7 194.1 41.9 56.9 180.8-26.5 317.9 7.7s220.6 173.1 186.4 310.2" style="fill:#f7931a"/><path d="M368.9 219.5c5.1-34.1-20.8-52.4-56.3-64.6l11.5-46.1-28.1-7-11.2 44.9c-7.4-1.8-15-3.6-22.5-5.3l11.3-45.2-28.1-7-11.5 46.1c-6.1-1.4-12.1-2.8-17.9-4.2v-.1l-38.7-9.7-7.5 30s20.8 4.8 20.4 5.1c11.4 2.8 13.4 10.4 13.1 16.3l-13.1 52.6c.8.2 1.8.5 2.9.9-.9-.2-1.9-.5-3-.7l-18.4 73.6c-1.4 3.5-4.9 8.6-12.9 6.7.3.4-20.4-5.1-20.4-5.1l-13.9 32.2 36.6 9.1c6.8 1.7 13.5 3.5 20 5.2l-11.6 46.7 28.1 7 11.5-46.2c7.7 2.1 15.1 4 22.4 5.8l-11.5 46 28.1 7 11.6-46.6c47.9 9.1 83.9 5.4 99.1-37.9 12.2-34.9-.6-55-25.8-68.1 18.3-4.4 32.1-16.4 35.8-41.4m-64.2 90c-8.7 34.9-67.4 16-86.4 11.3l15.4-61.8c19 4.7 80.1 14.1 71 50.5m8.7-90.5c-7.9 31.7-56.8 15.6-72.7 11.7l14-56.1c15.9 4 66.9 11.3 58.7 44.4" style="fill:#fff"/></svg>