<?xml version="1.0" encoding="utf-8"?>
<!-- Generator: Adobe Illustrator 27.7.0, SVG Export Plug-In . SVG Version: 6.00 Build 0)  -->
<svg version="1.1" id="Layer_1" xmlns="http://www.w3.org/2000/svg" xmlns:xlink="http://www.w3.org/1999/xlink" x="0px" y="0px"
	 viewBox="0 0 512 512" style="enable-background:new 0 0 512 512;" xml:space="preserve">
<style type="text/css">
	.st0{fill:#175DDC;}
</style>
<g>
	<path class="st0" d="M463,6.3c-4.2-4.2-9.3-6.3-15-6.3H64c-5.7,0-10.9,2.2-15,6.3s-6.3,9.3-6.3,15v256c0,19.2,3.8,38,11.1,56.7
		c7.5,18.8,16.6,35.4,27.7,50c11.1,14.6,24.1,28.7,39.3,42.5s29.3,25.3,42.1,34.4c12.8,9.1,26.3,17.8,40.3,25.9
		c14,8.1,23.9,13.6,29.9,16.4c5.9,3,10.7,5.1,14.2,6.7c2.6,1.4,5.5,2,8.7,2c3.2,0,5.9-0.6,8.7-2c3.6-1.6,8.3-3.8,14.2-6.7
		c5.9-3,15.8-8.3,29.9-16.4c14-8.1,27.5-16.8,40.3-25.9s26.9-20.6,42.1-34.4c15.2-13.8,28.3-27.9,39.3-42.5
		c11.1-14.6,20.2-31.2,27.7-50c7.5-18.8,11.1-37.8,11.1-56.7v-256C469.3,15.6,467.1,10.7,463,6.3z M413.6,279.7
		c0,92.7-157.4,172.4-157.4,172.4V54.8h157.4C413.6,55,413.6,187,413.6,279.7z"/>
</g>
</svg>
