<svg xmlns="http://www.w3.org/2000/svg" xml:space="preserve" id="bitwarden-portal_svg__Layer_1" x="0" y="0" version="1.1" viewBox="0 0 512 512"><style>.bitwarden-portal_svg__st0{fill:#fff}</style><path d="M331.7 294.3V263h50.9V23.2H239.7v271.1z" class="bitwarden-portal_svg__st0"/><path d="M256.1 294.3V45.6H364V200c-.7 36.6-34.4 69.2-69.5 94.2h71.9c24.4-26.3 43.2-58.4 43.2-94.2V15.8C409.6 0 393.8 0 393.8 0H118.4c-15.8 0-15.8 15.8-15.8 15.8V200c0 35.9 18.7 68 43.2 94.2z" style="fill:#165ddb"/><path d="M154.9 495.5h-21.2c-4.3 0-7.8-3.5-7.8-7.8v-47.9c0-4.3 3.5-7.8 7.8-7.8h21.2c4.3 0 7.8 3.5 7.8 7.8v47.9c0 4.3-3.5 7.8-7.8 7.8m107 16.5h-21.2c-4.3 0-7.8-3.5-7.8-7.8v-142c0-4.3 3.5-7.8 7.8-7.8h21.2c4.3 0 7.8 3.5 7.8 7.8v141.9c0 4.4-3.5 7.9-7.8 7.9m147.7-365.3v44c18.3 9.9 28.3 20.7 28.3 29.9 0 24.6-70.9 60.4-182 60.4S74 245.2 74 220.6c0-9.3 10.1-20.1 28.6-30.1v-44c-44.2 18.4-68.5 44.6-68.5 74.1 0 30.2 25.5 57 71.7 75.4 6.4 2.5 13.1 4.9 20.1 7.1v81.6c0 4.3 3.5 7.8 7.8 7.8h21.2c4.3 0 7.8-3.6 7.8-7.8v-72.4c28.8 5.6 60.5 8.6 93.3 8.6 29.3 0 57.7-2.4 83.9-6.9v154.3c0 4.3 3.5 7.8 7.8 7.8h21.2c4.3 0 7.8-3.5 7.8-7.9V305.8c10.4-2.9 20.3-6.1 29.5-9.8 46.3-18.4 71.7-45.2 71.7-75.4 0-29.4-24.2-55.6-68.3-73.9" class="bitwarden-portal_svg__st0"/></svg>