<svg xmlns="http://www.w3.org/2000/svg" xml:space="preserve" viewBox="0 0 512 512"><path d="M291 204.6c9.4 11.8 14.1 27 14.1 45.8 0 19.9-4.7 36-14.1 48.1s-22.1 18.1-38.3 18.1c-16 0-28.9-6-38.7-17.9q-14.7-18-14.7-48.3c0-19 4.9-34.4 14.7-46 9.8-11.7 22.7-17.5 38.7-17.5 16.2 0 29 6 38.3 17.7m179.5-76.9c22.2 37.6 35 81.4 35 128.3 0 139.6-113.3 252.7-252.8 252.7S0 395.6 0 256 113.2 3.3 252.7 3.3c52.5 0 101.4 16 141.8 43.5l-1.4 3.7-34.5 12.7c-10.8 4-18 14.4-18 25.9s7.2 21.9 18 25.9l34.5 12.7 12.7 34.5c4 10.8 14.4 18 25.9 18s21.9-7.2 25.9-18zm-90.6 122.8c0-24.8-5.3-46.5-16-65.1s-25.5-33.1-44.6-43.7c-19.1-10.5-41.2-15.8-66.5-15.8s-47.5 5.3-66.6 15.8c-19 10.5-33.9 25.1-44.6 43.7s-16 40.4-16 65.1c0 25.6 5.3 48 16 67.2 10.6 19.2 25.6 34.1 44.8 44.6s41.3 15.7 66.4 15.7q38.25 0 66.9-15.9c19.1-10.7 33.8-25.5 44.4-44.6 10.5-19.1 15.8-41.4 15.8-67M512 89.1c0 7-4.3 13.2-10.8 15.6l-39.3 14.5-14.5 39.3c-2.4 6.5-8.6 10.8-15.6 10.8s-13.2-4.3-15.6-10.8l-14.5-39.3-39.3-14.5c-6.5-2.4-10.8-8.7-10.8-15.6 0-7 4.3-13.2 10.8-15.6L401.7 59l14.5-39.3c2.5-6.5 8.7-10.8 15.6-10.8 7 0 13.2 4.3 15.6 10.8L461.9 59l39.3 14.5c6.5 2.4 10.8 8.6 10.8 15.6"/></svg>