<svg xmlns="http://www.w3.org/2000/svg" xml:space="preserve" viewBox="0 0 512 512"><path d="M252.7 186.9c-16 0-28.9 5.8-38.7 17.5-9.8 11.6-14.7 27-14.7 46q0 30.3 14.7 48.3c9.8 11.9 22.7 17.9 38.7 17.9 16.2 0 28.9-6 38.3-18.1s14.1-28.2 14.1-48.1c0-18.8-4.7-34-14.1-45.8-9.3-11.7-22.1-17.7-38.3-17.7m0-183.6C113.2 3.3 0 116.4 0 256s113.2 252.7 252.7 252.7S505.5 395.6 505.5 256 392.3 3.3 252.7 3.3m111.4 314.2c-10.6 19.1-25.3 33.9-44.4 44.6Q291.05 378 252.8 378c-25.1 0-47.2-5.2-66.4-15.7s-34.2-25.4-44.8-44.6c-10.7-19.2-16-41.6-16-67.2 0-24.7 5.3-46.5 16-65.1s25.6-33.2 44.6-43.7c19.1-10.5 41.3-15.8 66.6-15.8s47.4 5.3 66.5 15.8c19.1 10.6 33.9 25.1 44.6 43.7s16 40.3 16 65.1c0 25.6-5.3 47.9-15.8 67" style="fill:#fc0"/><path d="M501.2 73.5 461.9 59l-14.5-39.3c-2.4-6.5-8.6-10.8-15.6-10.8-6.9 0-13.1 4.3-15.6 10.8L401.7 59l-39.3 14.5c-6.5 2.4-10.8 8.6-10.8 15.6 0 6.9 4.3 13.2 10.8 15.6l39.3 14.5 14.5 39.3c2.4 6.5 8.6 10.8 15.6 10.8s13.2-4.3 15.6-10.8l14.5-39.3 39.3-14.5c6.5-2.4 10.8-8.6 10.8-15.6s-4.3-13.2-10.8-15.6" style="fill:#8600ef"/></svg>