<?xml version="1.0" encoding="utf-8"?>
<!-- Generator: Adobe Illustrator 28.2.0, SVG Export Plug-In . SVG Version: 6.00 Build 0)  -->
<svg version="1.1" id="Layer_1" xmlns="http://www.w3.org/2000/svg" xmlns:xlink="http://www.w3.org/1999/xlink" x="0px" y="0px"
	 viewBox="0 0 512 512" style="enable-background:new 0 0 512 512;" xml:space="preserve">
<style type="text/css">
	.st0{fill:#FFFFFF;}
</style>
<path class="st0" d="M291,204.6c9.4,11.8,14.1,27,14.1,45.8c0,19.9-4.7,36-14.1,48.1c-9.4,12.1-22.1,18.1-38.3,18.1
	c-16,0-28.9-6-38.7-17.9c-9.8-12-14.7-28.1-14.7-48.3c0-19,4.9-34.4,14.7-46c9.8-11.7,22.7-17.5,38.7-17.5
	C268.9,186.9,281.7,192.9,291,204.6z M470.5,127.7c22.2,37.6,35,81.4,35,128.3c0,139.6-113.3,252.7-252.8,252.7S0,395.6,0,256
	S113.2,3.3,252.7,3.3c52.5,0,101.4,16,141.8,43.5l-1.4,3.7l-34.5,12.7c-10.8,4-18,14.4-18,25.9c0,11.5,7.2,21.9,18,25.9l34.5,12.7
	l12.7,34.5c4,10.8,14.4,18,25.9,18c11.5,0,21.9-7.2,25.9-18L470.5,127.7L470.5,127.7z M379.9,250.5c0-24.8-5.3-46.5-16-65.1
	c-10.7-18.6-25.5-33.1-44.6-43.7c-19.1-10.5-41.2-15.8-66.5-15.8c-25.3,0-47.5,5.3-66.6,15.8c-19,10.5-33.9,25.1-44.6,43.7
	c-10.7,18.6-16,40.4-16,65.1c0,25.6,5.3,48,16,67.2c10.6,19.2,25.6,34.1,44.8,44.6s41.3,15.7,66.4,15.7c25.5,0,47.8-5.3,66.9-15.9
	c19.1-10.7,33.8-25.5,44.4-44.6C374.6,298.4,379.9,276.1,379.9,250.5z M512,89.1c0,7-4.3,13.2-10.8,15.6l-39.3,14.5l-14.5,39.3
	c-2.4,6.5-8.6,10.8-15.6,10.8s-13.2-4.3-15.6-10.8l-14.5-39.3l-39.3-14.5c-6.5-2.4-10.8-8.7-10.8-15.6c0-7,4.3-13.2,10.8-15.6
	L401.7,59l14.5-39.3c2.5-6.5,8.7-10.8,15.6-10.8c7,0,13.2,4.3,15.6,10.8L461.9,59l39.3,14.5C507.7,75.9,512,82.1,512,89.1z"/>
</svg>
