<?xml version="1.0" encoding="utf-8"?>
<!-- Generator: Adobe Illustrator 28.2.0, SVG Export Plug-In . SVG Version: 6.00 Build 0)  -->
<svg version="1.1"
	 id="Layer_1" xmlns:dc="http://purl.org/dc/elements/1.1/" xmlns:sodipodi="http://sodipodi.sourceforge.net/DTD/sodipodi-0.dtd" xmlns:cc="http://creativecommons.org/ns#" xmlns:rdf="http://www.w3.org/1999/02/22-rdf-syntax-ns#" xmlns:svg="http://www.w3.org/2000/svg" xmlns:inkscape="http://www.inkscape.org/namespaces/inkscape"
	 xmlns="http://www.w3.org/2000/svg" xmlns:xlink="http://www.w3.org/1999/xlink" x="0px" y="0px" viewBox="0 0 512 512"
	 style="enable-background:new 0 0 512 512;" xml:space="preserve">
<style type="text/css">
	.st0{fill:#394655;}
	.st1{fill:#E1D6B9;}
	.st2{fill:#96D6FF;}
	.st3{fill:#8DC9F0;}
	.st4{fill:#FFFFFF;}
	.st5{fill:#394455;}
	.st6{fill:#B3B3B3;}
	.st7{fill:#AEECE6;}
	.st8{fill:#D3F5F1;}
	.st9{fill:#616161;}
	.st10{fill:#7D7D7D;}
	.st11{fill:#2E3436;}
	.st12{fill:#E1D0CB;}
	.st13{fill:#1F8179;}
	.st14{fill:#30CABD;}
	.st15{fill:#27A49A;}
</style>
<path id="path4642" inkscape:connector-curvature="0" sodipodi:nodetypes="sssssssssssssssss" class="st0" d="M301.3,456.2
	c4.7,8.9,3,19.3,3.9,26.9c0.9,7.6,4.3,12.6,7.1,16.5s5.1,6.4,7.6,7.2c2.5,0.8,4.9-0.1,7.7-3.1s3.8-6.5,3.7-10.4
	c0-3.9-1.2-8.3-2.9-13.7c-1.5-5.3-3.3-11.5-7-18.4c-3.7-6.9-8.7-14.9-16.7-22.8s-18.2-14.1-27-19.3c-8.9-5.1-16.4-9.1-22.4-12
	c-5.9-2.9-10.4-4.8-13.6-5.6s-5.2-0.6-5.9,0.7c-0.7,1.3,0.4,3.4,3.2,6.2c2.9,2.8,7.7,6.4,14.6,10.6c6.8,4.2,15.8,9.1,24.8,15.2
	C287.4,440.2,296.6,447.3,301.3,456.2L301.3,456.2z"/>
<path id="path4644" inkscape:connector-curvature="0" sodipodi:nodetypes="sssssssssssssssss" class="st1" d="M303,453.7
	c4.7,7.4,5,15.9,5.1,23.3c0.1,7.5,1.8,13,4.2,17.1c2.4,4,4.7,6.7,6.9,7.9c2.1,1.2,4.3,0.9,6.5-1.6c2.3-2.5,2.9-5.5,2.4-9.1
	c-0.4-3.6-1.9-7.7-3.3-12.8c-1.5-5.1-3.1-11.2-6.3-17.5c-3.3-6.4-7.9-13.5-14.6-20.3c-6.7-6.9-14.9-12.3-22.3-16.7
	c-7.4-4.5-14.1-8-19.4-10.7c-5.3-2.7-9.3-4.5-12.1-5.4c-2.8-0.9-4.4-1-4.9-0.2c-0.4,0.9,0.9,2.5,3.8,4.8c2.9,2.3,7.5,5.3,13.5,9
	c6,3.6,13.6,8,21.1,13.2C291.2,440.1,298.4,446.3,303,453.7L303,453.7z"/>
<path id="path4406" inkscape:connector-curvature="0" sodipodi:nodetypes="sssssssssssssssss" class="st2" d="M307.5,46.2
	c1.7,3.9,4.9,7.1,8.6,9.4c3.8,2.3,8,3.7,12.2,4.3c4.1,0.7,8.2,0.6,12.3-0.5c4-1,8.9-2.7,12.3-5.6c3.4-2.9,4.6-6.5,5.4-9.9
	c0.7-3.3,1.3-7.1,3.5-11.6c2.2-4.5,4.2-9.1,4-12.5c-0.2-3.3-1-6.4-2.4-9.1c-1.5-2.7-3.5-4.6-5.8-6c-2.4-1.4-5.2-2.2-8.3-2.4
	c-3.1-0.3-6.5,0-10,0.8c-3.6,0.8-7.3,2.1-11.1,3.9c-3.8,1.9-7.4,4.2-10.4,6.8c-3.1,2.6-5.8,5.6-7.7,9c-2,3.3-3.3,6.9-3.6,10.6
	C305.9,37,305.8,42.2,307.5,46.2z"/>
<path id="path4408" inkscape:connector-curvature="0" sodipodi:nodetypes="csssccscsccscscccsccscsssscscscc" class="st0" d="
	M329.9,3.6c3.1-1.2,6.2-2.2,9.1-2.8c4-0.8,7.6-1.1,11.1-0.8c3.4,0.3,6.5,1.1,9.2,2.6c2.7,1.5,4.9,3.6,6.6,6.5
	c1.7,2.9,2.6,6.2,2.9,9.8s-1.2,8.3-3.7,13.2c-2.5,4.9-3.2,9.1-4,12.7c-0.7,3.6-3.2,6.9-7.5,9.7c-0.5,0.3-1.6-1-1.2-1.4
	c3.4-3,4.2-6.6,5.4-9.6c0.7-3.2,1.3-6.9,3.5-11.3c2.2-4.4,4.2-8.9,4-12.2c-0.2-3.3-0.9-6.3-2.3-8.8s-3.4-4.5-5.7-5.8
	c-2.3-1.3-5.1-2.1-8.1-2.4c-3-0.3-6.3,0-9.8,0.7c-1.8,0.4-3.5,0.9-5.4,1.5c-1.8,0.6-3.7,1.4-5.6,2.3c-3.7,1.8-7.2,4-10.2,6.6
	c-3,2.6-5.7,5.5-7.6,8.8c-1.9,3.2-3.2,6.7-3.5,10.3c-0.3,3.6-0.4,8.6,1.2,12.5c1.3,3.1,3.6,5.8,6.5,7.8c0.5,0.4-1.6,2.7-3.3,1.7
	c-3.1-1.9-5.1-4.9-6.5-8.1c-1.8-4.3-2-9.8-1.7-13.8c0.3-4,1.7-7.9,3.8-11.5c2.1-3.6,5-6.8,8.4-9.6c3.4-2.8,7.2-5.2,11.4-7.2
	C327.8,4.5,328.8,4.1,329.9,3.6L329.9,3.6z"/>
<path id="path4365-1-2" inkscape:connector-curvature="0" sodipodi:nodetypes="cssscsssc" class="st0" d="M357.4,24.5
	c-0.5-0.9-2-1.2-4.1-0.6c-3.3,0.9-7.1,4.6-9.1,7.3c-1.1,1.5-2.4,3-3.1,4.8c-0.2,0.6-0.4,1.2-0.2,2.1c0.8-0.1,1.3-1.1,1.7-1.8
	c1.5-2.9,3.6-5.5,6.4-7.4c2.3-1.6,2.6-2.7,4.9-3.7C355.3,24.6,356.2,24.9,357.4,24.5L357.4,24.5z"/>
<path id="path4367-9-2" inkscape:connector-curvature="0" sodipodi:nodetypes="sssssssss" class="st0" d="M344.6,30.7
	c-0.6-0.7,0.6,1.4,1.4,1.7c3,1,5.9,2.4,8.8,3.5c1,0.3,1.2-0.6,0.4-1.2c-0.8-0.5-1.7-0.9-2.6-1.2c-0.8-0.3-1.8-0.4-2.6-0.8
	c-1.5-0.7-2.4-1.7-3.9-2.5C345.6,30,344.9,31.1,344.6,30.7L344.6,30.7z"/>
<path id="path4188" inkscape:connector-curvature="0" sodipodi:nodetypes="sssssssssss" class="st0" d="M418.7,300
	c-7.3,60.1-20.2,118.5-65.8,158.3c-57.5,50.3-146.2,51.3-221,3.5c-21.6-13.8-38.8-52.1-41.6-76.9c-5.7-51.8-1.4-81.3-6.4-129
	c-3.9-38.1-23.3-69.5-21.4-114.9c1.2-30.4,8.7-65.8,31.8-84.6c30.2-24.7,65.6-38.8,105.6-37.7c57,1.4,118.5,5.3,166.4,41.9
	c34.2,26.1,53.7,69.2,57.2,113.5C427,219.4,423.3,261.6,418.7,300L418.7,300z"/>
<path id="ellipse4190" inkscape:connector-curvature="0" sodipodi:nodetypes="sssssssssss" class="st3" d="M404.4,355.5
	c-12.2,55.3-45.8,106.8-105.4,127.2c-55.4,19-111.2,8.9-165.1-27.1c-20.5-13.7-36.1-51.5-38.4-75c-4.8-49.5-2-80-6.5-125.6
	c-3.7-38.1-22-65.7-21.4-110.9c0.3-29.5,7-64.5,29.7-82.8c28.6-23.2,61.4-37.9,99.1-37.7c59.8,0.3,127.1,4.7,174.7,47.5
	c43.5,39.2,49.7,108.2,47.7,162C417.1,277.5,412.8,317.5,404.4,355.5L404.4,355.5z"/>
<path id="path4398" inkscape:connector-curvature="0" sodipodi:nodetypes="sssssssssssssssss" class="st2" d="M111.3,45.4
	c2.8,4.8,3.6,10.1,3.2,15.2c-0.4,5.1-2,9.8-4.3,13.8c-2.3,4-5.2,7.4-9.1,10c-3.9,2.6-8.9,5.3-14.1,5.8c-5.3,0.5-9.8-1.6-13.7-4.1
	c-3.9-2.4-8.2-5.6-14.5-8c-6.2-2.4-12.3-4.8-15.7-8.3c-3.4-3.5-6.1-7.3-7.9-11.3s-2.6-7.9-2.5-11.7c0.1-3.7,1.1-7.2,2.9-10.4
	c1.8-3.2,4.3-6.1,7.6-8.4c3.3-2.4,7.3-4.3,12-5.4S65,21,70.1,21.4c5.1,0.4,10.3,1.5,15.3,3.4c5,1.8,9.7,4.4,13.8,7.7
	C103.1,35.9,108.4,40.6,111.3,45.4L111.3,45.4z"/>
<path id="path4369" inkscape:connector-curvature="0" sodipodi:nodetypes="csssccscsccscscccsccscsssscscscc" class="st0" d="
	M50.4,21.2c-3.5,1.3-6.6,3-9.3,5c-3.6,2.7-6.3,5.9-8.3,9.4c-2,3.5-3.1,7.4-3.2,11.5c-0.2,4.1,0.6,8.4,2.5,12.8
	c1.9,4.4,4.8,8.6,8.4,12.3c3.6,3.7,9.4,6.8,16.1,9.2c6.8,2.3,11.5,5.7,15.7,8.3c4.2,2.6,9.1,3.3,14.9,1.9c0.7-0.2,0.1-2.2-0.5-2.2
	c-5.4,0.3-9.6-2.2-13.5-4c-3.8-2.4-8-5.5-14.2-7.8c-6.1-2.3-12.1-4.7-15.4-8.1c-3.3-3.4-6-7.1-7.8-11c-1.8-3.9-2.5-7.7-2.4-11.4
	s1.1-7.1,2.8-10.2c1.8-3.1,4.2-5.9,7.5-8.2c1.6-1.2,3.4-2.2,5.3-3.1c1.9-0.9,4.1-1.7,6.4-2.2c4.6-1.2,9.5-1.5,14.5-1.2
	c5,0.4,10.1,1.5,14.9,3.3c4.8,1.8,9.5,4.3,13.4,7.5c4,3.2,9.2,7.8,12,12.5c2.3,3.8,3.3,8,3.2,12.2c0,0.8,3.8,0.9,4-1.4
	c0.3-4.1-1.2-8.4-3.5-12.2c-3-5.2-8.4-10.3-12.8-13.9c-4.4-3.6-9.5-6.3-14.9-8.3c-5.3-2-10.9-3.2-16.4-3.5c-5.5-0.4-10.9,0.1-16,1.5
	C52.8,20.3,51.6,20.7,50.4,21.2L50.4,21.2z"/>
<path id="path4365-1" inkscape:connector-curvature="0" sodipodi:nodetypes="cssscsssc" class="st0" d="M61.1,53
	c0.4-1.5,2.3-2.6,5.8-2.8c5.3-0.2,12.6,3.3,16.9,6.4c2.4,1.7,5,3.3,6.8,5.6c0.6,0.8,1.2,1.6,1.4,2.9c-1.2,0.1-2.5-1-3.4-1.9
	c-3.6-3.6-8-6.4-12.9-7.9c-4.2-1.3-5.1-2.8-9-3.2C64.2,52.1,63.1,53,61.1,53z"/>
<path id="path4367-9" inkscape:connector-curvature="0" sodipodi:nodetypes="sssssssss" class="st0" d="M82.9,56.1
	c0.6-1.3-0.2,2.4-1.2,3.1c-3.9,2.9-7.5,6.3-11.4,9.3c-1.2,1-2.1-0.3-1.2-1.5c0.9-1.2,2.1-2.1,3.2-3c1.1-0.9,2.4-1.5,3.4-2.4
	c1.9-1.8,2.8-3.6,4.6-5.5C81.1,55.4,82.6,56.7,82.9,56.1L82.9,56.1z"/>
<path id="path4636" inkscape:connector-curvature="0" sodipodi:nodetypes="sssssssssssssssss" class="st1" d="M183.8,471.3
	c-3-0.6-5.4-0.4-7.3,0.4c-1.8,0.8-3.2,2.2-4.4,3.9c-1.2,1.7-2.2,3.8-3.2,6.1s-2,4.7-3,7.1c-0.9,2.4-1.7,4.8-2.2,7
	c-0.5,2.2-0.7,4.3-0.6,6c0.1,1.8,0.6,3.4,1.6,4.6c1,1.2,2.5,2.1,4.7,2.5s3.9,0.2,5.3-0.5c1.4-0.7,2.4-2,3.1-3.6
	c0.7-1.6,1.3-3.6,1.9-5.7c0.6-2.2,1.2-4.5,2.2-7c1-2.4,2.6-4.8,4-7c1.4-2.2,2.8-4.4,3.6-6.3c0.7-1.9,0.8-3.6,0-4.8
	C188.7,472.8,186.8,471.8,183.8,471.3z"/>
<path id="path4638" inkscape:connector-curvature="0" sodipodi:nodetypes="csscsscssssssssssssssssssssccsssc" class="st0" d="
	M191.3,478.6c-0.6,1.8-1.6,3.9-2.8,6c-1.4,2.5-3,5.1-4.1,8c-1.2,2.8-1.9,5.5-2.7,7.9c-0.7,2.4-1.5,4.6-2.6,6.4
	c-1.1,1.8-2.4,3.2-4.1,4.1c-1.7,0.9-3.8,1.2-6.2,0.7c-2.4-0.4-4.2-1.4-5.4-2.8c-1.2-1.4-1.9-3.3-2.2-5.4c-0.3-2.1-0.1-4.6,0.3-7.2
	c0.5-2.6,1.2-5.3,2.3-8.2c1.1-2.8,2.2-5.5,3.4-7.9c1.1-2.4,2.3-4.6,3.7-6.4c0.5-0.7,1.1-1.3,1.6-1.8c1.2-1.1,4.6-0.2,3.2,0.6
	c-1.3,0.8-1.8,1.8-2.7,3.2c-1.1,1.7-1.9,3.9-2.8,6c-0.9,2.1-2.5,4.1-3.4,6.2c-0.9,2.2-1.6,4.3-2,6.3c-0.4,2-0.6,3.9-0.5,5.6
	c0.1,1.7,0.6,3.2,1.4,4.3c0.9,1.1,2.3,1.9,4.2,2.3s3.5,0.2,4.6-0.5c1.2-0.7,1.3-2.7,1.8-4.1s1.4-3.3,1.9-5.2
	c0.5-1.9,1.3-3.1,2.5-5.2c1.2-2.1,3-4.2,4.6-6.3c1.7-2.1,3-4.2,3.7-6c0.1-0.2,0.1-0.5,0.3-0.7c0.2-0.6,0.3-1.1,0.3-1.6
	c0-0.6,2.3-0.8,1.9,0.8C191.4,478.1,191.3,478.4,191.3,478.6L191.3,478.6z"/>
<path id="path4812" inkscape:connector-curvature="0" sodipodi:nodetypes="sssssssssssssssss" class="st0" d="M126,154.3
	c0.3,11,3.1,21.7,7.7,31.5c4.7,9.8,11.2,19,19.2,26.8c8,7.9,17.4,14.6,27.7,19.4c10.3,4.9,21.5,8.1,33.1,8.9
	c11.7,0.8,22.7-0.9,32.7-4.6c10-3.7,18.9-9.5,26.3-17c7.4-7.5,13.3-16.5,17.3-26.8s6-21.6,5.7-33.5c-0.3-11.9-3-23.3-7.5-33.6
	s-11-19.4-18.8-27c-7.8-7.6-17-13.6-27.2-17.6c-10.2-4.1-21.3-6.2-32.9-6c-11.7,0.1-22.8,2.6-32.9,6.7s-19.2,9.9-26.8,17.1
	c-7.6,7.2-13.7,15.6-17.8,25C127.7,133,125.6,143.3,126,154.3L126,154.3z"/>
<path id="ellipse4814" inkscape:connector-curvature="0" sodipodi:nodetypes="sssssssssssssssss" class="st4" d="M131.7,151.8
	c0,10.4,2.2,20.5,6.4,30c4.1,9.6,10,18.5,17.5,26.2c7.3,7.8,16.2,14.4,25.9,19.3c9.8,4.9,20.4,8,31.6,8.8
	c11.2,0.8,21.7-0.9,31.2-4.4c9.5-3.6,18-9.2,25.1-16.2c7.1-7.1,12.7-15.7,16.6-25.3c3.8-9.6,5.8-20.3,5.6-31.4
	c-0.3-11.2-2.7-21.7-6.9-31.2c-4.2-9.5-10.2-18-17.5-24.9c-7.3-7-15.9-12.5-25.3-16.3c-9.5-3.8-19.9-5.8-30.8-5.9
	c-10.9-0.1-21.3,1.9-30.8,5.4c-9.4,3.5-18,8.6-25.2,15c-7.2,6.4-13.1,13.9-17.1,22.5C134,131.8,131.7,141.4,131.7,151.8L131.7,151.8
	z"/>
<circle id="path4828" class="st5" cx="248.3" cy="147.5" r="23"/>
<circle id="circle4830" class="st4" cx="258.4" cy="137" r="11.3"/>
<path id="path4824" inkscape:connector-curvature="0" sodipodi:nodetypes="sssssssssssssssss" class="st0" d="M352.7,104.3
	c-0.2,8.7,1.6,18.1,4.2,27.9c2.6,9.7,6.1,19.8,9.6,29.4c3.5,9.6,7,18.7,10.9,26.5c3.8,7.8,8,14.3,13.2,18.9
	c5.2,4.6,10.9,7.1,17.1,7.6s13.9,1.6,20.5-1.4c6.6-3,13.1-7.7,18.9-13.9c5.8-6.2,10.9-13.9,14.7-23c3.7-9.1,5.8-18.7,6-28.2
	c0.3-9.5-1.2-19-4.3-27.8c-3.1-8.9-10.2-19.7-16.4-26.9c-6.2-7.2-13.8-13.3-22.5-17.8c-8.7-4.6-17.5-7.2-25.9-8
	c-8.4-0.8-16.3,0.1-23.1,2.7c-6.8,2.6-12.5,6.8-16.5,12.5C355.1,88.4,352.9,95.6,352.7,104.3L352.7,104.3z"/>
<path id="path4826" inkscape:connector-curvature="0" sodipodi:nodetypes="sssssssssssssssss" class="st4" d="M356.5,105.3
	c-0.4,8.1,0.8,16.9,3,26.2c2.2,9.2,5.3,18.8,8.8,27.9c3.5,9.2,7.2,17.8,11.3,25.2c4,7.4,8.4,13.5,13.4,17.9
	c5.1,4.4,10.4,6.6,16.1,7.1c5.7,0.5,12.8,1.6,18.8-1.2c5.9-2.8,11.8-7.2,16.9-13c5.2-5.8,9.7-13,13-21.5s5-17.4,5.1-26.3
	s-1.3-17.7-4.3-25.9c-2.9-8.2-9.8-18.6-15.5-25.3c-5.8-6.7-12.8-12.4-20.8-16.7c-7.9-4.3-16.1-6.8-23.7-7.7
	c-7.6-0.8-14.8-0.1-21,2.2c-6.2,2.3-11.3,6.1-15,11.3C359.1,90.6,356.9,97.2,356.5,105.3L356.5,105.3z"/>
<ellipse id="path4828-0" class="st5" cx="441" cy="137.8" rx="9.9" ry="9.9"/>
<ellipse id="circle4830-3" transform="matrix(0.1644 -0.9864 0.9864 0.1644 244.9912 551.6337)" class="st4" cx="448.1" cy="131.2" rx="4.9" ry="4.9"/>
<rect id="rect4964" x="103.8" y="370.4" transform="matrix(0.8713 -0.4908 0.4908 0.8713 -169.0418 115.1564)" class="st6" width="62.5" height="18.9"/>
<path id="path4949" inkscape:connector-curvature="0" sodipodi:nodetypes="cccccc" class="st7" d="M159.2,350.6l14.3,25.6l172-84
	l34.8-33.3l-50,11.6L159.2,350.6z"/>
<path id="path4974" inkscape:connector-curvature="0" class="st8" d="M380.4,259l-50.1,11.5l-171.1,80l1.3,2.4l169.9-80.6l44.2-10.2
	l-29.8,28.7l-172.5,83.1l1,1.8l0.3,0.4l171.9-83.9L380.4,259z"/>
<path id="path4972" inkscape:connector-curvature="0" sodipodi:nodetypes="cccccc" class="st8" d="M164.4,355.3l168.5-78.8l31.1-9.1
	l-24.8,17.8l-169.6,80.9L164.4,355.3z"/>
<path id="path4953" inkscape:connector-curvature="0" class="st9" d="M144.7,347.1l1.4-8.7l10.1,1.8l25.3,43.4l-3.3,8.3l-9.8-5.1
	L144.7,347.1z"/>
<path id="path4955" inkscape:connector-curvature="0" sodipodi:nodetypes="ccccccc" class="st10" d="M154.9,341.6l-7.2-0.9
	l25.8,43.9l7.5-0.8l-5.2-2.6l-23.4-38L154.9,341.6z"/>
<path id="path4966" inkscape:connector-curvature="0" class="st6" d="M101,376.8L98.6,390l10.5,16.9l12.4,0.8l-0.9-6.8l-12-21.1
	L101,376.8z"/>
<path id="path4968" inkscape:connector-curvature="0" class="st9" d="M102,379.7c0.2,1.7,10.4,18.1,10.4,18.1l-2.1,6.6l-10-15.2
	L102,379.7z"/>
<path id="path4970" inkscape:connector-curvature="0" class="st6" d="M151.9,343.1l23.3,38.6l1.3,0.8l0.4-1.2L154,343.5L151.9,343.1
	z"/>
<path id="rect4659" inkscape:connector-curvature="0" sodipodi:nodetypes="scssscssscssscsss" class="st11" d="M342,213.4l-7.2,0.1
	l-4.2-0.1c-1.3,0-2.5,0.6-3.4,1.5s-1.3,2.2-1.5,3.7l-1.2,8l-1.6,8.1c-0.3,1.5,0.1,2.7,0.8,3.7c0.7,0.9,1.8,1.5,3.1,1.5l4.3,0.1
	l8.4-0.2c1.6,0,3.1-0.7,4.2-1.6c1.1-1,1.7-2.3,1.9-3.7l0.7-8l0.6-8c0.1-1.4-0.5-2.7-1.4-3.6C344.5,213.9,343.3,213.4,342,213.4
	L342,213.4z"/>
<path id="rect4661" inkscape:connector-curvature="0" sodipodi:nodetypes="scssscssscssscsss" class="st4" d="M340.7,215.8l-5.9,0.1
	l-2.8-0.1c-1.1,0-2.1,0.5-2.8,1.3s-1.2,1.8-1.4,3l-1.1,6.6l-1.4,6.6c-0.3,1.2,0,2.2,0.6,3s1.4,1.2,2.5,1.2l2.9,0.1l6.7-0.1
	c1.3,0,2.5-0.5,3.4-1.3s1.5-1.9,1.6-3l0.8-6.6l0.7-6.5c0.1-1.2-0.3-2.2-1-3C342.7,216.3,341.7,215.8,340.7,215.8L340.7,215.8z"/>
<path id="ellipse4650" inkscape:connector-curvature="0" sodipodi:nodetypes="sssssssssssssssss" class="st0" d="M307.8,206.6
	c0.2,2.6,1.8,4.9,4,7c2.3,2.1,5.4,4,9,5.5c3.6,1.5,7.7,2.7,11.8,3.3c4.1,0.6,8.3,0.7,12.4,0.2c4.1-0.5,7.8-1.5,11-2.7s5.9-2.7,8-4.3
	c2.1-1.6,3.7-3.4,4.7-5.4s1.4-4.2,1-6.5c-0.4-2.4-1.5-4.7-3.2-6.8c-1.7-2.1-4-4-6.7-5.7c-2.7-1.6-5.8-2.9-9.2-3.7
	c-3.4-0.8-7.2-1.2-11.3-1.1s-8.2,0.8-12.1,1.9c-3.9,1.1-7.6,2.6-10.6,4.4c-3.1,1.8-5.6,4-7,6.4C308.1,201.6,307.6,204.4,307.8,206.6
	L307.8,206.6z"/>
<path id="ellipse4652" inkscape:connector-curvature="0" sodipodi:nodetypes="sssssssssssssssss" class="st12" d="M316.4,206
	c0.4,2,1.6,4,3.4,5.7s4.3,3.2,7.1,4.4c2.8,1.2,6,2.1,9.2,2.6s6.5,0.5,9.7,0.1s6.1-1.2,8.6-2.2s4.6-2.2,6.2-3.5
	c1.6-1.3,2.8-2.8,3.6-4.5c0.7-1.6,0.9-3.4,0.6-5.3c-0.4-1.9-1.3-3.7-2.7-5.3c-1.4-1.6-3.2-3.1-5.3-4.3c-2.1-1.2-4.6-2.2-7.3-2.8
	c-2.7-0.6-5.6-0.9-8.8-0.8s-6.3,0.7-9.3,1.5c-3,0.9-5.8,2-8.1,3.5c-2.4,1.4-4.3,3.1-5.5,5C316.6,201.9,316.1,203.9,316.4,206
	L316.4,206z"/>
<path id="path4648" inkscape:connector-curvature="0" sodipodi:nodetypes="sssssssssssssssss" class="st0" d="M327.8,193.5
	c0.5,1.5,1.6,2.8,3.2,3.9c1.5,1.1,3.5,2,5.6,2.7s4.4,1.2,6.7,1.4c2.2,0.3,4.4,0.3,6.5,0.1c2.1-0.2,3.8-0.7,5.3-1.3
	c1.5-0.6,2.7-1.5,3.6-2.4c0.9-1,1.6-2.1,2-3.3c0.4-1.2,0.5-2.6,0.2-4s-0.9-2.8-1.9-4.1c-1-1.2-2.3-2.4-3.8-3.3
	c-1.6-0.9-3.4-1.6-5.4-2s-4.3-0.5-6.6-0.3c-2.4,0.2-4.6,0.7-6.6,1.5s-3.9,1.8-5.3,3c-1.5,1.2-2.6,2.5-3.2,3.9
	C327.5,190.5,327.3,192,327.8,193.5L327.8,193.5z"/>
<path id="ellipse4523" inkscape:connector-curvature="0" sodipodi:nodetypes="sssssssssssssssss" class="st1" d="M127.9,351
	c-2.7,1.6-4.3,3.3-5.3,5.1c-0.9,1.8-1,3.8-0.8,5.8c0.2,2.1,0.9,4.3,1.6,6.7s1.6,4.9,2.4,7.3c0.8,2.5,1.8,4.7,2.9,6.7
	c1.1,2,2.2,3.7,3.5,5c1.2,1.3,2.6,2.2,4.2,2.4c1.5,0.3,3.3-0.1,5.2-1.2c1.9-1.1,3.1-2.4,3.7-3.9s0.5-3.1,0-4.8
	c-0.5-1.7-1.4-3.5-2.3-5.5s-2.1-4.2-2.9-6.7c-0.8-2.5-1.2-5.3-1.6-7.9c-0.4-2.7-0.7-5.1-1.4-7.1c-0.7-1.9-1.7-3.2-3.2-3.7
	C132.5,348.9,130.5,349.4,127.9,351z"/>
<path id="path4521" inkscape:connector-curvature="0" sodipodi:nodetypes="ssscsscssssssssssssssssssssccsss" class="st0" d="
	M138.3,351.6c0.8,1.8,1.3,4,1.8,6.4c0.6,2.8,1.1,5.8,2.1,8.7c0.9,2.9,2.1,5.4,3.1,7.8s1.9,4.5,2.2,6.6c0.4,2.1,0.3,4-0.5,5.8
	c-0.8,1.8-2.1,3.4-4.2,4.6c-2.1,1.3-4.1,1.7-5.9,1.4c-1.9-0.2-3.6-1.2-5.2-2.7c-1.6-1.4-3.1-3.4-4.5-5.6c-1.3-2.3-2.5-4.8-3.6-7.7
	c-1.1-2.8-1.9-5.6-2.6-8.2c-0.7-2.6-1.3-5-1.4-7.2c0-0.9,0-1.7,0.1-2.5c0.2-1.6,3.3-3.1,2.8-1.6c-0.5,1.5-0.5,3-0.4,4.6
	c0.2,2,0.8,4.2,1.5,6.5c0.7,2.3,1.5,4.7,2.3,7c0.9,2.4,1.8,4.6,2.8,6.5c1,1.9,2.2,3.5,3.4,4.8c1.2,1.2,2.5,2.1,4,2.3
	c1.5,0.2,3.1,0,5-1.1c1.9-1.1,3-2.3,3.5-3.7c0.5-1.4,0.5-2.9,0.1-4.6c-0.5-1.6-1.3-3.4-2.2-5.3s-2-4-2.8-6.5
	c-0.8-2.4-1.2-5.1-1.5-7.7c-0.3-2.5-0.7-4.9-1.3-6.8c-0.1-0.2-0.2-0.4-0.2-0.7c-0.2-0.5-0.5-1-0.8-1.4c-0.4-0.4,1.2-2.1,1.9-0.6
	C138.1,351.1,138.2,351.4,138.3,351.6z"/>
<path id="path4926" inkscape:connector-curvature="0" sodipodi:nodetypes="ccccc" class="st13" d="M350.9,316.1
	c30.4-12.5,57.1-27.6,74.5-49.3c20.7,22.3,36.1,26.4,56.5,29.7c3.1,34.7-6.1,138.5-73.2,170.3C335.2,420.3,354.9,366.6,350.9,316.1
	L350.9,316.1z"/>
<path id="path4912" inkscape:connector-curvature="0" sodipodi:nodetypes="ccccc" class="st14" d="M357.9,317.4
	c28.2-11.5,52.9-25.6,69.1-45.7c19.2,20.7,33.5,24.5,52.4,27.6c2.9,32.1-5.7,128.4-67.9,157.9C343.4,414.1,361.6,364.3,357.9,317.4
	L357.9,317.4z"/>
<path id="path4378" inkscape:connector-curvature="0" sodipodi:nodetypes="ccccccccccccccc" class="st8" d="M387.9,325.4l-6.4,4.8
	l-3.8,7.2l4.4,9.9l-2.7,23l43.8,31.9l43.8-49.6l-2.7-21.9l4.4-11.7l-3.8-5.7l-6.4-2.2l-10.4,10.3l-24.8,0.1l-24.8,10L387.9,325.4z"
	/>
<path id="path4938" inkscape:connector-curvature="0" sodipodi:nodetypes="ccccccccccccccc" class="st7" d="M389.9,328.5l-5.9,4.4
	l-3.5,6.6l4.1,9.2l-2.5,21.2l40.4,29.5l40.4-45.8l-2.5-20.2l4.1-10.8l-3.5-5.2l-5.9-2l-9.6,9.5l-22.9,0.1l-22.9,9.2L389.9,328.5z"/>
<path id="path4940" inkscape:connector-curvature="0" class="st8" d="M427,271.7c-0.6,0.8-1.3,1.6-2,2.4c-0.1,0.1-0.3,0.3-0.4,0.4
	c-0.7,0.8-1.3,1.5-2,2.3l0,0l3.6,7.7c16.1,7.4,31.7,16.5,49.1,18.9c3,5.2,3.2,17.4,2.5,37.8c2.2-17,2.4-31.8,1.6-41.3
	c-0.1-0.2-0.1-0.4-0.2-0.6c-1.2-0.2-2.3-0.4-3.5-0.6c-1.1-0.2-2.3-0.4-3.4-0.6c-0.1,0-0.1,0-0.2,0c-1-0.2-2.1-0.4-3.1-0.7
	c-1.1-0.2-2.2-0.5-3.2-0.8c-0.1,0-0.3-0.1-0.4-0.1c-0.9-0.2-1.9-0.5-2.8-0.8c-0.2-0.1-0.4-0.1-0.7-0.2c-0.8-0.3-1.7-0.5-2.5-0.8
	c-0.1,0-0.2-0.1-0.3-0.1c-0.9-0.3-1.9-0.7-2.8-1.1c-0.3-0.1-0.6-0.2-0.8-0.4c-0.8-0.3-1.5-0.7-2.3-1c-0.1,0-0.1-0.1-0.2-0.1
	c-1-0.5-1.9-0.9-2.9-1.5c-0.3-0.2-0.6-0.3-0.9-0.5c-0.8-0.4-1.5-0.8-2.3-1.3c-0.3-0.2-0.5-0.3-0.8-0.5c-0.8-0.5-1.6-1-2.4-1.6
	c-1.1-0.7-2.1-1.5-3.2-2.3l-0.1-0.1c-1-0.8-2.1-1.7-3.2-2.6s-2.2-1.9-3.3-3c-1.1-1-2.3-2.1-3.4-3.3l0,0
	C429.3,274.2,428.2,273,427,271.7L427,271.7z"/>
<path id="path4928" inkscape:connector-curvature="0" sodipodi:nodetypes="cccccccccc" class="st15" d="M427,271.7
	c-16.2,20.2-40.9,34.2-69.1,45.7c3.7,46.9-14.5,96.6,53.6,139.8l0,0c-0.2-0.2-0.4-0.4-0.6-0.7c-46-34-51.6-93.5-46.9-135.6
	c14.2-4.9,62.9-35.9,62.9-35.9s0.5-7.4,0.2-11C426.6,273.5,427.5,272.2,427,271.7L427,271.7z"/>
</svg>
