<svg xmlns="http://www.w3.org/2000/svg" xml:space="preserve" id="bookwyrm_svg__Layer_1" x="0" y="0" version="1.1" viewBox="0 0 512 512"><style>.bookwyrm_svg__st0,.bookwyrm_svg__st1{fill-rule:evenodd;clip-rule:evenodd;fill:#fff}.bookwyrm_svg__st1{fill:#d4e1f4}.bookwyrm_svg__st2{fill:#0f38c9}.bookwyrm_svg__st5{fill:#061855}</style><path d="M86.8 334.2c14.9 1.4 206.2 88.4 252.9 85.4 12.8-.8 20.7-12.6 28.6-21.6 28.5-32.5 10.8-89.5-26-107.6-5.5-2.7-11.7-4.8-17.8-4.9-50.5-1.5-101 .7-151.5 0-23.2-.3-69.3-43.2-82.1-56.7-49.4-51.9-31-182.4 36.2-202.2 31.1-9.2 83.2-7.1 89.2-6.1C252.4 26.6 296 39.6 317.9 53c17.8 10.9 32.5 36.4 29.2 57.5-.6 3.7-3.7 58.9-29.2 46.3-22.9-11.3-18.8-19.7-37.8-25.5-2.1-.6-4.6 1-6.5 0-3.6-1.9-6.6-4.9-9-8.2-13.4-19.1-4.8-22.8-29.7-30.6-6.2-1.9-6.6-11-65.7-5.1-52.9 5.3-58.4 82.1-41.7 117.6 10.1 21.5 36.1 7.5 50.9 5.2 12.5-1.9 25.2-2.1 37.8-2.2 40.4-.6 80.8-1.3 121.2 0 8 .3 14.6 6.1 21.1 10.8 36.5 26.2 72.7 56.9 83.3 101.1 3.2 13.3 8.2 26.8 7.3 40.5-1.2 18.9-18.4 62.8-22.5 69-3.4 5.2-13.5 15.1-18.1 19.3-11.3 10.4-57 37.3-128.5 37.3-21.9 0-39.6-13.2-60.6-16.9-10.1-1.8-23.1-4.2-31.7-13.5-16.1-17.4-54.1-33.5-69.1-51.8-13.1-16-27.7-23.9-43.5-23.9z" class="bookwyrm_svg__st0"/><path d="M345.4 476.8c-22 8.4-75.7-9.6-161.1-53.9-19-10.7-79-58.9-97.3-46.6-2.8 0 30.8 26.4 100.6 79.2l69.2 30.4h80.4zm-14.9-53.9c47.9-5.7 73-29.4 75.4-71 0-26.3-14.5-48-43.6-64.9l-2.5 22.6 17.4 20 4.4 40.4-15.9 29.5-26.1 12.8z" class="bookwyrm_svg__st1"/><path d="M340.8 222.1c20.4 0 47.2 9.8 68 27.5 27 22.9 42.8 56.8 42.8 101.1 0 45.6-16.4 81.9-45.4 106.9-25 21.6-58.3 33.2-90.6 33.2-62.2 0-119.9-17.9-160.7-51.9-2.1-1.7-2.4-4.8-.7-6.9s4.8-2.4 6.9-.7l.1.1C200 463.7 255.5 481 315.5 481c29.9 0 61-10.9 84.2-30.9 26.8-23.1 42-56.7 42-99.4 0-41.5-14.5-72.6-39.3-93.7-19-16.1-43.6-25.1-61.6-25.1-2.7 0-4.9-2.2-4.9-4.9s2.2-4.9 4.9-4.9" class="bookwyrm_svg__st2"/><path d="M332.4 298.6c34.6 0 54.2 17.2 54.2 60.5 0 33.6-22.3 56.2-65.4 67.3-2.6.7-5.3-.9-6-3.5s.9-5.3 3.5-6c39.2-10.1 58.1-29.3 58.1-57.9 0-20.5-4.8-33.9-13.6-41.6-7.3-6.4-17.4-9.1-30.8-9.1-2.7 0-4.9-2.2-4.9-4.9 0-2.6 2.2-4.8 4.9-4.8" class="bookwyrm_svg__st2"/><path d="M184.2 20.5C116 20.5 74.7 80.3 74.7 149.4s60.8 103.1 83.1 122.1c2 3.1 2 8.3 0 15.4-72.1-27.3-108.2-73.2-108.2-137.5 0-96.4 68.8-128.9 134.6-128.9m152.7 66.9c-4.8 2.7-6.1 6.7-3.6 12 2.4 5.3 7.1 7.9 13.9 7.9V95.6l-7.6-10.5z" class="bookwyrm_svg__st1"/><path d="M184.2 12.5c85.4 0 140.1 28 169.6 75.4 1.4 2.3.7 5.3-1.7 6.7-2.3 1.4-5.2.7-6.7-1.6-27.7-44.5-79.1-70.8-161.3-70.8-86.9 0-129.7 47.5-129.7 132.5 0 75 50 124.1 117.7 123.4 2.7-26.2 26.1-45.2 52.2-42.5 26.2 2.7 45.2 26.1 42.5 52.2-73.2.7-127.6-52.8-127.6-133.2-94.5-90-47.5-142.1 45-142.1m-97 316.8q24.6 0 57 19.5c2.3 1.3 3.2 4.3 1.8 6.7-1.3 2.3-4.3 3.2-6.7 1.8l-.1-.1c-20.3-12.1-37.6-18.1-52-18.1-13.7 0-32 5.5-46.1 15.7-18.8 13.6-29.7 34.1-29.7 62.6 0 27.9 11.8 47.3 32.2 59.8 14.2 8.7 32.2 13.3 43.6 13.3s22.1-2.4 33-9.2c15.4-9.7 28.2-27.1 37.2-54.2l.4-1.2c7.1-21.8 17.8-41.8 30.8-58.2 4.9-6.2 12.3-13 22.4-20.6l1.1-.8-.7.1c-20 4.4-39.1 15.7-57.4 34.2l-.9.9c-8.6 8.8-15.7 17.1-23.8 27.5l-2 2.6-2 2.6-10.6 14-3.1 4-1.8 2.3-1.3 1.6-.9 1-.5.6-.8.9-.7.8-.9.9-.9.9-1 1-.5.5c-7.1 6.7-14.1 10.1-22.3 10.1-2.7 0-4.9-2.2-4.9-4.9s2.2-4.9 4.9-4.9c5.4 0 10.1-2.3 15.5-7.4l.9-.9.3-.3c.6-.6 1.2-1.2 1.8-1.9l.6-.6.9-1 1-1.1 1.5-1.8 2-2.5 2.2-2.8 8.2-10.9.5-.7c.7-1 1.4-1.9 2.1-2.8l2.1-2.7 2-2.6 2-2.5c3.7-4.7 7.5-9.3 11.5-13.9l1.9-2.2c3-3.3 6-6.6 9.1-9.7 26-26.6 54.1-40.1 84.3-40.1 4.9 0 6.8 6.3 2.7 9l-2 1.3-2 1.3-1 .7-1.9 1.3-.9.6-1.8 1.3-1.8 1.3c-.6.4-1.2.8-1.7 1.2l-1.7 1.2-1.6 1.2-.8.6-1.5 1.2-1.5 1.2-1.4 1.2c-.2.2-.5.4-.7.6l-1.4 1.1-1.3 1.1c-.7.6-1.3 1.1-1.9 1.7l-1.2 1.1-1.2 1.1c-.2.2-.4.4-.6.5l-1.1 1-2.5 2.5-.9 1c-.9 1-1.7 1.9-2.4 2.9-11.9 15.2-21.9 33.6-28.6 53.7l-.5 1.5c-9.7 29.9-24 49.5-41.7 60.6-12.7 8-25.1 10.7-38.2 10.7s-32.8-5-48.7-14.7c-23.2-14.2-36.9-36.7-36.9-68.1 0-31.6 12.4-55.2 33.7-70.5 15.8-11.6 36.1-17.7 51.8-17.7" class="bookwyrm_svg__st2"/><path d="M375.9 262.7q17.85 24.3 30 24.3c12.1 0 47.3-15.4 56.1-15.4 5.9 0 14.3 7.8 25.2 23.3l-3.1 8.4-10.3-4.7v12.3c-5.2-8.2-12.7-12.3-22.4-12.3q-14.55 0-39.3 12.3L363 291.7z" class="bookwyrm_svg__st0"/><path d="M161.5 223.8c1.7-2.1 4.8-2.4 6.9-.7s2.4 4.8.7 6.9v.1c-9.5 11.4-22 18.3-37.3 20.6-2.7.4-5.2-1.5-5.6-4.1-.4-2.7 1.5-5.2 4.1-5.6 13-1.9 23.3-7.6 31.2-17.2" style="fill:#20e5bf"/><path d="m178.1 159.4-42.6 227.8 21.4 25 169.4 27.2v-63.2H349l32.7-193.8-156-32.2z" class="bookwyrm_svg__st0"/><path d="m217.4 151.5 25.7 4.5-36 204.2-25.7-4.5z" style="fill-rule:evenodd;clip-rule:evenodd;fill:#93d825"/><path d="m208.9 139.8.6.1-3.4 19.3c-10.5-1.8-20.5 5-22.6 15.4l-.1.5-29.1 165c2.2-.2 4.4-.2 6.5.2l165.6 29.2c12.4 2.2 20.7 14 18.5 26.5l-6.5 37c-2.2 12.4-14 20.7-26.5 18.5l-165.6-29.2c-4.3-.8-8.3-2.7-11.5-5.7-7.2-4.8-11.3-13.5-9.9-22.5l.1-.5 39.1-221.9c3.8-21.1 23.7-35.3 44.8-31.9m-51.4 219.8c-1.8-.3-3.5.9-3.8 2.6l-6.5 37c-.3 1.8.9 3.5 2.6 3.8l165.6 29.2c1.8.3 3.5-.9 3.8-2.6l6.5-37c.3-1.8-.9-3.5-2.6-3.8z" class="bookwyrm_svg__st5"/><path d="M380.8 170c9.6 1.7 16.1 10.7 14.7 20.3l-.1.5-33.5 189.8c-1.4 7.8-8.7 13.1-16.6 12l-.4-.1L160 359.9l3.4-19.3 180.1 31.8L375.8 189l-169.6-29.8 2.8-19.4z" class="bookwyrm_svg__st5"/><path d="M98.4 336.4c-13.9-.1-27.7-.3-41.3 2.5-23.3 4.7-53.2 50.7-48.5 72.3 12.6 57.1 63 104 112.4 74.8 38.7-23 34.1-58.1 53.6-93.3 16.5-29.9 22.7-23.5 36.8-46.8.5-.9-44.5 22.4-56.2 34.3-22.2 22.6-43.1 46.7-67.9 66.3-13.7 10.9-53.9-13.7-41.3-42.9s22.6-23.4 41.4-26c11-1.5 7-18.3 10.5-27.4z" class="bookwyrm_svg__st0"/><path d="M41.1 354.8c-18.8 13.6-29.7 34.1-29.7 62.6 0 27.9 11.8 47.3 32.2 59.8 14.2 8.7 32.2 13.3 43.6 13.3s22.1-2.4 33-9.2c15.4-9.7 28.2-27.1 37.2-54.2l.4-1.2c5.2-20.4 60-77.4 54.4-80.7-7.2-4.4-81 45.8-77.2 41.4l1.9-2.2c1.7-1.9 86.5-51.9 80.5-39.2-2.7 5.7-60 63.1-49.8 82.3l-.5 1.5c-9.7 29.9-24 49.5-41.7 60.6-12.7 8-25.1 10.7-38.2 10.7s-32.8-5-48.7-14.7c-23.2-14.2-36.9-36.7-36.9-68.1 0-31.6 12.4-55.2 33.7-70.5 22.2-16.1 19.9-2.4 5.8 7.8" class="bookwyrm_svg__st2"/><path d="M80.7 451.6c44.4 0 43.5-17.9 68.9-48.8s23.9-31.7 56.5-53.2c6.1-4.6-37.5 2.5-40.8 13.6-3.4 11.1-51.1 51.3-59.5 66.2s-32.5 20.8-25.1 22.2" class="bookwyrm_svg__st1"/><path d="M95 339.2c-45.7 9.1-68.5 34.3-68.5 75.6 0 62 49.5 74.9 79.2 74.9 0 5.2-2.7 7.1-8 5.6l-43.8-5.6-30.6-24.1-16.8-42.7v-27l20-36.9 48.6-24.8z" class="bookwyrm_svg__st1"/><path d="m119.5 393.6 5 5.5c6.8-8.6 13.1-15.8 20.4-23.4l1.1-1.1c20.2-20.7 48.9-33 86.2-41.1l2.8-.6c2.4-.5 4.8-1 7.2-1.4 5.7-1.1 8.2 6.8 3 9.3l-.8.4-1.7.8-1.7.8-.8.4-1.7.9-1.7.9c-.6.3-1.1.6-1.7.9l-1.7.9-1.7 1-1.7 1-1.7 1-1.7 1-1.7 1-1.7 1-.8.5-1.6 1-1.6 1-.8.5-1.6 1-1.5 1-1.5 1-1.5 1c-.2.2-.5.3-.7.5l-1.4 1-1.4 1c-.2.2-.4.3-.7.5l-1.3 1-1.3 1-1.2 1c-1 .8-1.9 1.6-2.8 2.3l-1 .9c-1.8 1.6-3.2 3.1-4.2 4.4-11.9 15.2-21.9 33.6-28.6 53.7l-.5 1.5c-9.7 29.9-24 49.5-41.7 60.6-12.7 8-25.1 10.7-38.2 10.7s-32.8-5-48.7-14.7C15.4 471 1.7 448.5 1.7 417.1c0-31.6 12.4-55.2 33.7-70.5 15.9-11.5 36.2-17.5 51.9-17.5 9.3 0 26.1 4.3 34.7 7.9 2.5 1 3.7 3.8 2.8 6.4-1 2.5-3.8 3.7-6.4 2.8-.1 0-.1 0-.2-.1-7.5-3.1-23.1-7.2-30.9-7.2-13.7 0-32 5.5-46.1 15.7-18.8 13.6-29.7 34.1-29.7 62.6 0 27.9 11.8 47.3 32.2 59.8 14.2 8.7 32.2 13.3 43.6 13.3s22.1-2.4 33-9.2c15.4-9.7 28.2-27.1 37.2-54.2l.4-1.2c7.1-21.8 17.8-41.8 30.8-58.2 1.6-2.1 4-4.5 7-7.1l1.2-1c.6-.5 1.3-1.1 1.9-1.6l1.4-1.1.7-.5 1.4-1.1c.2-.2.5-.4.7-.6l1.5-1.1 1.5-1.1c.5-.4 1-.7 1.6-1.1l1.6-1.1 1.4-.9-.7.2c-23.4 7.3-42 17.2-56 31.2l-.7.7c-8.6 8.8-15.7 17.1-23.8 27.5l-2 2.6-2 2.6-10.6 14-3.1 4-1.8 2.3-1.3 1.6-.9 1-.5.6-.8.9-.7.8-.9.9-.9.9-1 1-.5.5c-7.1 6.7-14.1 10.1-22.3 10.1-24.8 0-42.8-16.1-42.8-38 0-22 19.2-41.7 42.1-41.7 15.8 0 25.8 5.4 37.7 17.9l1 1zm-1.7 12.7-.2-.2-4.9-5.4-1.1-1.2-1-1.1-.6-.6-1.1-1.2c-9.7-9.8-17.3-13.7-29.5-13.7-17.5 0-31.7 15.2-31.7 31.9C47.6 431 60.4 443 80 443c5.4 0 10.1-2.3 15.5-7.4l.9-.9.3-.3c.6-.6 1.2-1.2 1.8-1.9l.6-.6.9-1 1-1.1 1.5-1.8 2-2.5 2.2-2.8 8.2-10.9 1.2-1.6 1.4-1.9 1-1.3-.2-.2z" class="bookwyrm_svg__st2"/><path d="M187.6 81c23.3-6.5 53.8-.2 91.5 19 8.5 4.7 5 10.6-10.7 17.6l5.4 8c7.7-8.2 13.8-12.2 18.2-12.2q6.75 0 2.4 15.6l14.2 9q-3.75-8.25 0-12.3c3.75-4.05 6-2.7 10.3 0l7.9 12.3v6.4l-25.1-2.2-7.3-2.8-26.1 8.4v-22.1l-16 3.3-15.4-.2 15.4-19.2v-7.1z" class="bookwyrm_svg__st1"/><path d="M264.5 132.3c-3.7 1.6-8.1 2.5-13 2.8-9 .5-18.4-1.2-23-4.6-3.7-2.7-1.9-8.6 2.6-8.8h.3c6.4 0 11.9-4.7 16.3-14.9l.3-.6h-.1c-23.7-11.7-44.6-17.6-62.6-17.8h-1c-13.6 0-29.5 5.9-41.6 16.1-13.8 11.5-21.8 27.3-21.8 45.8 0 7.7.8 15.2 2.5 22.6.6 2.6-1.1 5.3-3.7 5.9s-5.3-1.1-5.9-3.7c-1.8-8.1-2.8-16.4-2.8-24.8 0-21.5 9.3-40 25.3-53.3 13.9-11.6 31.9-18.3 47.9-18.3 21 0 45 7 72.1 20.9 2.2 1.1 3.2 3.7 2.4 6-3.1 8.7-7 15.4-11.7 19.8l-.2.2h4.1c7.3-.4 12.4-2.6 13.7-5.5l.1-.2c1.6-4.1 7.4-4.2 9.1-.1 1.4 3.5 1.7 7.4 1.2 11.7-.4 3.4-1.4 6.9-2.7 10.5l-.1.3h.6c6.3-.2 12.9-2.6 18.8-6.4l.6-.4c2.2-1.5 5.3-1 6.8 1.3 1.5 2.2 1 5.3-1.3 6.8-10.1 7-22.4 10.3-33.7 7.8-2.6-.6-4.3-3.2-3.7-5.8l.3-.9 1-2.3.5-1.2.5-1.2c0-.1.1-.2.1-.3.8-2.2 1.5-4.3 2-6.3l.2-.9z" class="bookwyrm_svg__st2"/><path d="M111.1 168.8c22.4 9.2 38.8 13.8 49.3 13.8 15.7 0 48.3-8.7 59.8-8.7 7.7 0 23.2 8.7 46.5 26.2l-4.1 8.4-13.3-4.7v12.3c-9.5-8.2-20.5-12.3-33.1-12.3s-37.2 6.1-74 18.2l-37.9-18.2c0 .1 6.8-35 6.8-35" class="bookwyrm_svg__st0"/><path d="M108.6 164.4c1.6-2.2 4.7-2.7 6.8-1.1 15.4 11.2 29.7 16.7 43.2 16.7 5.4 0 10.4-.7 16.6-2.3l1.6-.4 1.6-.4 2.3-.7 5.9-1.7c14.2-4.1 24.5-5.9 38.7-5.9 23.5 0 44.4 14.1 62.5 41.7 2.6 4-1.4 8.9-5.7 7.3l-.2-.1-5.9-2.5-1.4 6.1c-.7 3.2-4.4 4.8-7.2 3.2l-.3-.2-9.7-6.4-4.1 5.3c-1.6 2.1-4.7 2.6-6.9.9-.3-.2-.5-.4-.7-.7l-.2-.2c-8.8-11.5-18.2-17-28.1-17h-1.9l-.6.1h-.3l-.6.1-.6.1-.6.1-1 .2-.7.1-1 .2-1.1.3-1.2.3-1.2.4-.9.3-1.3.4-1.4.5-2 .7-2.2.8-2.4.9-3.2 1.2-3.6 1.4-6.5 2.6-3.7 1.5-2.8 1.1-1.8.7-2.6 1-2.4.9-2.3.8-1.5.5-1.4.5-1.4.5-.7.2-1.3.4-1.3.4c-.2.1-.4.1-.6.2l-1.2.4c-.2.1-.4.1-.6.2l-1.2.3-.6.1-1.1.3-.6.1-1.1.2c-.7.2-1.4.3-2.1.4l-1 .2c-.3.1-.7.1-1 .1l-1 .1-1 .1c-1.1.1-2.2.1-3.3.1-14.7 0-27.6-6.5-38.3-19.1-1.8-2.1-1.5-5.1.5-6.9 2.1-1.8 5.1-1.5 6.9.5 8.9 10.5 19.1 15.6 30.8 15.6h1.9l.8-.1.8-.1.9-.1.9-.1c.3 0 .6-.1.9-.2l.9-.2 1-.2 1-.2 1-.3 1.1-.3.5-.2 1.1-.3 1.2-.3 1.2-.4.6-.2 1.9-.6 1.3-.5 1.4-.5 1.4-.5 1.5-.5 2.3-.9 1.6-.6 2.5-1 3.9-1.6 7.4-2.9 3.8-1.5 2.8-1.1 2-.8 2.5-.9 1.7-.6 2.2-.8 1.5-.5 1.5-.5.9-.3.9-.3.9-.3 1.3-.3.8-.2.8-.2.8-.2.7-.2.7-.1.7-.1 1-.2.7-.1.7-.1.7-.1.7-.1 1-.1h1.6c11.5 0 21.9 5.2 31.4 15.4l.5.5 3.2-4.1c1.5-2 4.2-2.5 6.3-1.3l.3.2 7.6 5 1.1-4.9c.3-1.6 1.4-2.8 2.9-3.4l.2-.1-.5-.6c-13.7-16.3-28.5-24.4-44.3-24.6h-.7c-12.7 0-21.9 1.5-34.6 5.1l-7.3 2.1-2.4.7-1.6.4-.5.1c-7.4 2-13.5 2.9-20.2 2.9-15.7 0-32-6.2-48.9-18.5-2.3-.9-2.8-4-1.2-6.2" style="fill:#4fe8c7"/><path d="M294.4 135.5c12.7 7.3 18.7 9.7 35.2 9.7-8.7-16.3-11.9-31.8-9.7-46.5 8 5.2 18.5 7.9 31.5 7.9q-4.8-11.55-1.8-27.3 21.45 19.5 35.7 19.5c4.2-6.5 4.2-11.8 12-14.6 5.2-1.9 10.7-2.4 16.6-1.6 2.8-5.2 5.7-10.4 8.6-15.8 6.8 15.1 23.5 29.6 33 37.7s22.2 20.9 31.3 20.9c0-3.6 3.3-9.6 10.3-9.6 6.9 0 10 5.1 10 11.5 0 6.3-3.7 12-10 12-6.4 0-16.5-3.6-29.1-3.6s-36.3 6.7-36.3 11.7 28.1 7 36.3 7c5.5 0 15.2-.7 29-2.1V168h-14c2.1 13 2.1 20.7 0 23.2-1.6-5.2-5.3-10.5-11.3-16-2.7 9.4-6.5 14.7-11.2 16-2.8-9.3-2.8-27.4-31.2-27.4S396.1 177 358 177s-57.9-29.8-63.6-41.5" class="bookwyrm_svg__st0"/><path d="M372.5 173.9c-24.3-8.5-37.4-16.4-39.2-23.7-1.9-5.6 6.4-4.3 24.7 4-11.1-23.4-13.9-39.1-8.3-46.9 2.1 0 3.1.8 3.1 2.5 14.5 4.1 23.5 3.2 27.2-2.5 3.6-5.8 1.9-9.7-5.3-11.7 18.5 6 28.7 8.4 30.7 7.2 3-1.8 15.2-7.6 15.2-13.4 0-3.9 5-3.9 14.9 0l-9-14.6-4-6.6-6.8 15.3c-6-1.4-10.9-1.4-14.8 0s-8.3 4.3-13.2 8.7l-5.9 3.5-15.5-6.2-13.4-8.8h-7.4l4.3 18.9-6.4 7.9-20.7-7.9-3.8 5 3.8 22.2 4.4 17.6H304l1.9 9.9 32.6 19.7h34z" class="bookwyrm_svg__st1"/><path d="M418.7 65.7c-1.8 3.8-4 7.5-6.5 10.9l-.5.7h-.6c-5.4-.3-10.6.4-15.5 2.2-5.6 2-8.4 4.9-11.1 10.3l-1.6 3.3-.3.5-.4-.1c-6.7-1.1-15-5.8-24.9-14l-1.5-1.2c-1-.9-2-1.7-3-2.6-2.8-2.6-7.4-1-8.1 2.7l-.2 1c-1.4 7.9-1.4 15.1 0 21.7l.1.4h-.2c-8.9-.8-16.1-3-21.9-6.8-3-1.9-7-.2-7.5 3.4l-.1.9c-1.8 13 .4 26.5 6.4 40.6l.3.6h-.3c-7.1-.5-12-2.1-19.1-5.8l-1.5-.8-1.5-.8c-.3-.1-.5-.3-.8-.4l-1.6-.9c-4.2-2.4-9 2.1-6.8 6.4 4.4 8.9 11.5 18.7 20.9 26.7 13 11.1 28.7 17.6 47.1 17.6 14.5 0 24.2-1.5 35.6-5.2l2-.7c.7-.2 1.4-.5 2.1-.7l6.5-2.2 1.7-.6c8.1-2.7 14.6-3.9 23.3-3.9 14.4 0 20.6 4.4 23.7 13.2.3 1 .6 2 .9 3.1l.4 1.4.9 3.7.2.9.2.8c.1.3.1.5.2.8.8 2.5 3.4 4 6 3.3l.4-.1c4.7-1.4 8.4-5.2 11.2-11l.2-.5.1.1c2.3 2.9 3.9 5.6 4.6 8.2 1.1 3.7 6 4.7 8.5 1.7l.2-.2c1.9-2.5 2.6-6.3 2.5-12v-1.2l-.1-1.3c0-.7-.1-1.3-.2-2l-.1-1.4c0-.2-.1-.5-.1-.7l-.2-1.5-.1-1.2h8.4c2.7 0 4.9-2.2 4.9-4.9v-15.8c0-2.7-2.2-4.9-4.9-4.9h-.5l-3.8.4-5.3.5-3.2.3-3 .2-2.8.2-2.6.2-2.3.1-1.6.1-1.5.1h-4.6l-.8-.1-.8-.1-1.3-.2-1.4-.2-1-.2-1.6-.3-1.7-.3-1.9-.4-1.3-.3-2.8-.6-3-.7-4.3-1h.1l2.7-.9c7.3-2.2 15.9-3.8 21.4-3.8 4.4 0 8.6.4 13.9 1.4l3.4.6 3.1.6 1.3.2 1.1.2.7.1 1.3.2c1.6.2 3 .3 4.3.3 9 0 14.9-7.6 14.9-16.9 0-9.4-5.5-16.4-14.9-16.4h-.5c-5.8.1-11 3.6-13.5 8.9l-.1.2-.5-.1c-5.1-1.2-11.1-4.6-17.5-9.6l-1.3-1.1c-3.4-2.7-6.8-5.9-10.3-9.5-.5-.5-1-1-1.4-1.5l-1.4-1.5c-10-10.8-18.7-23.4-22.3-31.9-1.7-3.9-7.2-4-9-.1zM308 147.5l-.1-.1c5.8 1.9 11.5 2.6 19.7 2.7h1.9c3.7 0 6.1-3.9 4.3-7.2l-.5-1q-9.45-18.3-9.3-34.8v-.7l.6.3c7.5 3.1 16.4 4.7 26.6 4.7 3.5 0 5.9-3.5 4.5-6.8l-.3-.7c-1.7-4.3-2.4-9.2-2.3-14.7v-.4l.7.5c11.8 9.4 22.2 14.1 31.3 14.1 1.7 0 3.2-.9 4.1-2.3.6-.9 1.1-1.9 1.7-2.9l.5-1 1.4-2.9c1.8-3.6 2.9-4.8 5.9-5.9 4.4-1.6 9.2-2.1 14.2-1.3 1.7.2 3.4-.4 4.5-1.7l.8-1c1.8-2.3 3.5-4.7 5-7.1l.2-.3.2.4c5.5 9.2 13.7 19.8 22.5 28.9 14.3 14.7 28.5 23.6 40.4 23.6 2.6 0 4.7-2 4.9-4.6v-.3c0-2.1 2.2-4.7 5.4-4.7 3.5 0 5.1 2.1 5.1 6.6 0 4.3-2.1 7.1-5.1 7.1h-1.4l-.6-.1-.8.1-1.9-.3-6.3-1.2c-6.9-1.3-12-1.9-17.7-1.9-6.6 0-16.1 1.7-24.3 4.2l-1.2.4-1.2.4-.6.2-1.1.4c-1.5.5-2.9 1.1-4.1 1.6l-.9.4c-5 2.4-7.7 5.2-7.7 9 0 2.3 1.6 4.2 3.8 4.8l10.3 2.5 3.5.8 3.2.7 2.3.5 2.1.5 1.4.3 1.9.4 1.8.3 1.2.2 1.6.3 1 .2 1 .1 1 .1.5.1.9.1.9.1.9.1h5.5l1.8-.1 1.9-.1 2.1-.1 3-.2 1.6-.1 3.4-.3 3.7-.3 3.3-.3v5.5H483c-2.7 0-4.9 2.2-4.9 4.9 0 .3 0 .5.1.8l.3 1.9.3 1.9c.1.9.2 1.9.3 2.7v.4l-.2-.2a72 72 0 0 0-3.9-3.9c-2.7-2.5-7-1.3-8 2.2l-.2.6c-1 3.3-2.1 5.9-3.2 7.8l-.2.3-.3-1-.9-3c-4.5-12.7-14.3-19.7-32.9-19.7-9.9 0-17.3 1.4-26.4 4.4l-1.8.6-5.4 1.9c-13 4.5-22.2 6.3-37.6 6.3-15.9 0-29.4-5.5-40.7-15.2-3.5-2.9-6.6-6.1-9.4-9.5" class="bookwyrm_svg__st2"/><path d="M406.7 98.8c-7.4 5.6-7.9 16.7-1.7 24.8 6.1 8.1 17 10.7 24.3 5.2 7.4-5.6 7.9-16.7 1.7-24.8-6.1-8.2-16.9-10.8-24.3-5.2m5.9 7.8c2.7-2 7.5-.9 10.6 3.2s2.9 9.1.2 11.1-7.5.9-10.6-3.2-2.9-9-.2-11.1" class="bookwyrm_svg__st2"/><ellipse cx="422.4" cy="109.9" rx="6.5" ry="8.2" style="fill-rule:evenodd;clip-rule:evenodd;fill:#0f38c9" transform="rotate(-37.001 422.408 109.912)"/><path d="M407.5 91c7.6-1.4 15.1 2.1 22.3 9.7l.5.5.5.6.9 1 1.2 1.4 2.9 3.4 3.1 3.7.7.8.2.2c1.5 1.5 2.6 1.9 4.8 1.9 2.7 0 4.9 2.2 4.9 4.9s-2.2 4.9-4.9 4.9c-4.9 0-8.4-1.5-11.7-4.8l-.3-.3-.6-.6-1.3-1.5-4.8-5.6-1.3-1.6-1.2-1.4-.5-.6-.2-.2c-5-5.3-9.3-7.3-13.1-6.8l-.4.1c-2.7.5-5.2-1.3-5.7-4-.4-2.7 1.4-5.2 4-5.7" class="bookwyrm_svg__st2"/></svg>