<?xml version="1.0" encoding="utf-8"?>
<!-- Generator: Adobe Illustrator 28.2.0, SVG Export Plug-In . SVG Version: 6.00 Build 0)  -->
<svg version="1.1" id="Layer_1" xmlns="http://www.w3.org/2000/svg" xmlns:xlink="http://www.w3.org/1999/xlink" x="0px" y="0px"
	 viewBox="0 0 512 512" style="enable-background:new 0 0 512 512;" xml:space="preserve">
<style type="text/css">
	.st0{fill-rule:evenodd;clip-rule:evenodd;fill:#FFFFFF;}
	.st1{fill:#0288D1;}
</style>
<path class="st0" d="M218.5,367l288.3-166.5v-63.4L403.9,77.7l0,0l-9.4-5.4l-93.7-54.1L12.5,184.7c-13.6,24,0,63.4,0,63.4
	c-16.8,25.5,0,63.4,0,63.4l206,118.9l182.8-105.5L218.5,430.5l-206-118.9c-16.8,25.5,0,63.4,0,63.4l206,118.9l288.3-166.5V264
	l0.1-0.1v-63.4L218.5,367z"/>
<path class="st1" d="M218.5,496.3c-0.4,0-0.8-0.1-1.2-0.3L11.3,377c-0.4-0.3-0.8-0.6-1-1.1c-0.7-1.6-17.1-39.4,0.2-65.7
	c0.7-1.1,2.1-1.4,3.2-0.8l204.8,118.2l287.1-165.8c0.7-0.4,1.7-0.4,2.4,0c0.7,0.4,1.2,1.2,1.2,2.1v63.4c0,0.9-0.5,1.6-1.2,2.1
	L219.7,495.9C219.4,496.2,218.9,496.3,218.5,496.3z M14.4,373.3l204.1,117.8L504.4,326v-57.9L219.7,432.5c-0.7,0.4-1.7,0.4-2.4,0
	l-204-117.7C0.6,337,12.4,368.2,14.4,373.3z M218.5,306c-0.4,0-0.8-0.1-1.2-0.3l-206-118.9c-0.7-0.4-1.2-1.2-1.2-2.1
	s0.5-1.6,1.2-2.1L299.6,16.1c0.7-0.4,1.7-0.4,2.4,0L508,135c0.7,0.4,1.2,1.2,1.2,2.1c0,0.9-0.5,1.6-1.2,2.1L219.7,305.6
	C219.4,305.9,218.9,306,218.5,306z M17.3,184.7l201.2,116.1L502,137.1L300.8,20.9L17.3,184.7z M218.5,369.4c-0.4,0-0.8-0.1-1.2-0.3
	l-206-118.9c-0.5-0.3-0.9-0.7-1.1-1.3c-0.6-1.7-13.8-40.7,0.2-65.4c0.3-0.6,0.8-1,1.5-1.1c0.6-0.2,1.3-0.1,1.8,0.2l204.8,118.2
	L505.6,135c0.7-0.4,1.7-0.4,2.4,0c0.7,0.4,1.2,1.2,1.2,2.1v63.4c0,0.9-0.5,1.6-1.2,2.1L219.7,369
	C219.4,369.3,218.9,369.4,218.5,369.4z M14.5,246.4l204,117.7l285.9-165.1v-57.9L219.7,305.6c-0.7,0.4-1.7,0.4-2.4,0L13.5,188
	C3.4,209,12.8,240.9,14.5,246.4z M218.5,432.8c-0.4,0-0.8-0.1-1.2-0.3l-206-118.9c-0.4-0.3-0.8-0.6-1-1.1
	c-0.7-1.6-17.1-39.4,0.2-65.7c0.7-1.1,2.1-1.4,3.2-0.8l204.8,118.2l287.2-165.7c0.7-0.4,1.7-0.4,2.4,0c0.7,0.4,1.2,1.2,1.2,2.1V264
	c0,0.9-0.5,1.7-1.2,2.1L219.7,432.4C219.4,432.7,218.9,432.8,218.5,432.8z M14.4,309.8l204.1,117.8l286-165v-57.9L219.7,369
	c-0.7,0.4-1.7,0.4-2.4,0l-204-117.7C0.6,273.5,12.4,304.7,14.4,309.8z M280.3,151.4c-0.3,0-0.6-0.1-0.9-0.2
	c-0.7-0.3-1.2-0.9-1.4-1.6l-6.5-26l-46.4-3.9c-1-0.1-1.9-0.8-2.1-1.9c-0.2-1,0.2-2.1,1.1-2.6l123.6-71.3c0.7-0.4,1.7-0.4,2.4,0
	l55,31.7c0.7,0.4,1.2,1.2,1.2,2.1c0,0.9-0.5,1.7-1.2,2.1L281.5,151C281.2,151.3,280.7,151.4,280.3,151.4z M233.2,115.5l40.5,3.4
	c1,0.1,1.9,0.8,2.1,1.8l6.1,24.6l117.2-67.6l-50.2-28.9L233.2,115.5z"/>
</svg>
