<svg xmlns="http://www.w3.org/2000/svg" xml:space="preserve" viewBox="0 0 512 512"><path d="M218.7 499c-1 0-2.1-.3-2.9-.8L10.4 379.7c-1.1-.6-1.9-1.6-2.4-2.7-.7-1.6-16.8-38.6-1.2-66.2-3.6-9.4-13.4-40 .1-63.5C4 237.6-4.5 204.4 8.2 182c.2-.3.4-.6.7-.9.4-.5.9-.9 1.5-1.3l287.4-166c1.8-1 4.1-1 5.9 0l102.8 59.3c.1 0 .2.1.2.1L509 132.3c.6.4 1.2.8 1.6 1.4.8 1 1.3 2.3 1.3 3.7v62.2c.1.4.1.7.1 1.1v63.2c0 .4 0 .7-.1 1.1v62.1c0 2.1-1.1 4-2.9 5.1l-287.4 166c-.9.5-1.9.8-2.9.8M18 370.5l200.6 115.8 281.5-162.6v-49.6l-97.4 56.2L221.6 435c-1.8 1-4.1 1-5.9 0L15.6 319.5c-8.7 19.2.1 44.8 2.4 51m0-63.3L218.7 423l179-103.3 102.6-59.2v-49.6L221.6 371.7c-.1 0-.1.1-.2.1-1.7.9-3.8.9-5.4 0-.1 0-.1-.1-.2-.1L15.6 256.2c-8.7 19.2.1 44.8 2.4 51m.3-63.1 200.4 115.7 281.5-162.6v-49.6L221.6 308.5c-1.6.9-3.6 1-5.3.3-.2-.1-.4-.2-.5-.3L16 193.2c-6.5 18.5.3 44.3 2.3 50.9m6.8-59.2 193.6 111.7 275.6-159.2L403.4 85l-120.2 69.4c-1.6.9-3.6 1-5.2.3-1.7-.7-3-2.2-3.4-4l-5.9-23.5-43.7-3.6c-2.6-.2-4.7-2.1-5.3-4.6s.6-5.1 2.8-6.4l114.4-66-36.2-20.9zm219.6-71.5 29.2 2.4c2.5.2 4.6 2 5.2 4.4l5 20 107.6-62.1-43-24.8z" style="fill:#fff"/></svg>