<?xml version="1.0" encoding="utf-8"?>
<!-- Generator: Adobe Illustrator 28.2.0, SVG Export Plug-In . SVG Version: 6.00 Build 0)  -->
<svg version="1.1" id="Layer_1" xmlns="http://www.w3.org/2000/svg" xmlns:xlink="http://www.w3.org/1999/xlink" x="0px" y="0px"
	 viewBox="0 0 512 512" style="enable-background:new 0 0 512 512;" xml:space="preserve">
<style type="text/css">
	.st0{fill-rule:evenodd;clip-rule:evenodd;fill:#A3E636;}
</style>
<path class="st0" d="M162.7,251.5c-0.1,1.5-0.1,3-0.1,4.5c0,53.4,43.3,96.7,96.7,96.7c53.4,0,96.7-43.3,96.7-96.7
	c0-1.5,0-3.1-0.1-4.6c9.6-1.5,19.3-3.2,28.8-5.1l1-0.2c0.3,3.3,0.4,6.6,0.4,9.9c0,70.1-56.8,126.8-126.8,126.8
	c-70.1,0-126.8-56.8-126.8-126.8c0-3.3,0.1-6.5,0.4-9.7l0.3,0.1C143,248.3,152.9,250,162.7,251.5z M316,177.6
	c-15.9-11.5-35.5-18.3-56.6-18.3c-21.2,0-40.8,6.8-56.7,18.4c-12.9-1.3-25.8-3.1-38.7-5.2c23.2-26.5,57.4-43.2,95.4-43.2
	c38,0,72.1,16.7,95.3,43.1C341.8,174.5,328.9,176.3,316,177.6z M415.5,240.2c0.5,5.2,0.8,10.5,0.8,15.8c0,86.7-70.3,157-157,157
	c-86.7,0-157-70.3-157-157c0-5.3,0.3-10.5,0.8-15.7l-29.7-5.9c-0.8,7.1-1.2,14.3-1.2,21.6c0,103.3,83.8,187.1,187.1,187.1
	S446.4,359.3,446.4,256c0-7.4-0.4-14.6-1.3-21.8L415.5,240.2z M419.7,159.5l-31.8,6.4C359.5,125.4,312.5,99,259.4,99
	c-53.2,0-100.2,26.5-128.6,66.9L99,159.6c32.7-54.3,92.3-90.7,160.4-90.7C327.4,68.9,386.9,105.2,419.7,159.5z M256,243.3
	C99.7,251.2,0,153.4,0,153.4s156.6,54.1,256,54.1s256-54.1,256-54.1S412.3,235.4,256,243.3z"/>
</svg>
