<?xml version="1.0" encoding="utf-8"?>
<!-- Generator: Adobe Illustrator 28.2.0, SVG Export Plug-In . SVG Version: 6.00 Build 0)  -->
<svg version="1.1" id="svg10" xmlns:svg="http://www.w3.org/2000/svg"
	 xmlns="http://www.w3.org/2000/svg" xmlns:xlink="http://www.w3.org/1999/xlink" x="0px" y="0px" viewBox="0 0 512 512"
	 style="enable-background:new 0 0 512 512;" xml:space="preserve">
<style type="text/css">
	.st0{fill:#FFFFFF;}
	.st1{fill:#0891B2;}
	.st2{fill:#E0E0E0;}
	.st3{fill:#262626;}
</style>
<path id="rect959" class="st0" d="M39.9,102.9h433.7c15.1,0,27.3,12.2,27.3,27.3v261.9c0,15.1-12.2,27.3-27.3,27.3H39.9
	c-15.1,0-27.3-12.2-27.3-27.3V130.3C12.6,115.2,24.8,102.9,39.9,102.9z"/>
<path id="rect961" class="st0" d="M58.2,59.1l138.5,9.5l29.5-12.3l32.1,29.3l61.6-35.8L450.3,59v59H58.2V59.1z"/>
<path id="path4" class="st1" d="M94.9,130.3h113.6v19.4H94.9V130.3z M94.9,173.2h113.6v18.7H94.9V173.2z M94.9,215.5h113.6v19.4
	H94.9V215.5z M303.4,130.3H417v19.4H303.4V130.3z M303.4,173.2H417v18.7H303.4V173.2z M303.4,215.5H417v19.4H303.4V215.5z"/>
<path id="path8" class="st2" d="M208.5,305.8c0,5.2-4.2,9.5-9.5,9.5h-94.6c-5.2,0-9.5-4.2-9.5-9.5v-37.9c0-5.2,4.2-9.5,9.5-9.5h94.7
	c5.2,0,9.5,4.2,9.5,9.5v37.9H208.5z M417.1,305.8c0,5.2-4.2,9.5-9.5,9.5h-94.7c-5.2,0-9.5-4.2-9.5-9.5v-37.9c0-5.2,4.2-9.5,9.5-9.5
	h94.7c5.2,0,9.5,4.2,9.5,9.5V305.8z"/>
<path id="path6" class="st3" d="M481.1,92.8h-12v-3.4c0-20.9-14.5-39.6-35.4-39.6H319.9c-26.3,0-49.3,14.4-61.6,35.8
	C246,64.3,223,49.8,196.7,49.8H83c-20.9,0-40,18.7-40,39.6v3.4h-7.4C17.3,92.8,0,111.2,0,132.1V388c0,26.1,22.6,45.7,47.4,45.7h173
	c15.7,0,28.4,13.9,28.4,28.4h19c0-14.5,12.8-28.4,28.4-28.4h173c24.8,0,42.8-19.6,42.8-45.7V132.1C512,111.2,499.3,92.8,481.1,92.8z
	 M319.9,68.6h113.7c10.5,0,16.7,10.4,16.7,20.9v270.1c0,10.5-6.2,17.3-16.7,17.3H319.9c-20.6,0-40,10.5-54.6,24.6V122.6
	C265.3,93.9,291.2,68.6,319.9,68.6z M61.6,89.4c0-10.5,10.9-20.9,21.3-20.9h113.7c28.7,0,49.9,25.3,49.9,54v278.7
	c-9.7-14-29.3-24.4-49.9-24.4H83c-10.5,0-21.3-6.9-21.3-17.3L61.6,89.4L61.6,89.4z M47.4,415c-14.4,0-28.7-11.3-28.7-27V132.1
	c0-10.3,9.2-20.5,16.9-20.5H43v248c0,20.9,19.1,36,40,36h113.7c18.1,0,34,9.5,43.4,23.5c-6-2.8-12.7-4.1-19.7-4.1H47.4z M492.6,388
	c0,15.7-9,27-23.4,27h-173c-7,0-13.7,1.4-19.7,4.1c9.4-14,25.3-23.5,43.4-23.5h113.7c20.9,0,35.4-15.1,35.4-36V111.5h12
	c7.7,0,11.5,10.3,11.5,20.5L492.6,388L492.6,388z"/>
</svg>
