<svg xmlns="http://www.w3.org/2000/svg" xml:space="preserve" viewBox="0 0 512 512"><path d="M90.7 250.9c13.1-10.1 30.8-12.3 52.8-6.5v-93.5H66.1v158.9c.4-.1.9-.1 1.3-.2.1-11.6 2.5-42.6 23.3-58.7M66.1 141.3h77.4V90.7c0-6.4-5.2-11.6-11.6-11.6H77.7c-6.4 0-11.6 5.2-11.6 11.6zm87.1-40.2h84.2v-43c0-6.4-5.2-11.6-11.6-11.6h-61.1c-6.4 0-11.6 5.2-11.6 11.6v43zm84.2 71.2v-61.8h-84.2v136.8c1.4.5 2.9 1 4.4 1.6 5.2-15.1 24.5-58.8 79.8-76.6m11-70.7h95.7V58.8c0-6.4-5.2-11.6-11.6-11.6h-72.6c-6.4 0-11.6 5.2-11.6 11.6v42.8zm39.4 63.3c21.3 0 40.2 4.3 56.3 12.7v-66.4h-95.7v58.1c11.7-2.8 24.2-4.2 37.4-4.4zm139.4-67.2c-1-6.3-6.9-10.7-13.2-9.7l-49.6 7.5c-6.3 1-10.7 6.9-9.7 13.2l7.7 50.3 72.4-11zm-25.7 169c8.8.9 30.7 3.9 53.5 13.6l-18.7-122.8-72.4 11 4.1 26.7c25.5 25.7 32 59.7 33.5 71.5m57.4 25.8c-29.9-14.8-61.7-16.7-62-16.7l-4.2-.2-.3-4.2c0-.4-3.1-42.2-32.3-70.6-4.2-4.1-8.9-7.8-13.8-10.9-16-10.3-35.7-15.5-58.5-15.5h-2c-14.6.2-28.4 2.1-40.9 5.6h-.2c-.4.1-.8.2-1.2.4-63.5 18.7-78.1 75.5-78.3 76l-1.3 5.4-5.1-2.1c-4.2-1.8-8.2-3.2-11.8-4.4l-.1-.1c-21.6-7-38.5-5.9-50.2 3.1-21.4 16.5-19.6 54.8-19.6 55.2l.2 4.5-4.5.5c-3.7.4-7.2.9-10.5 1.6C-9.9 333.8.3 401.3.8 404.2l.1.6c2.4 53.8 77.2 60.4 81 60.7h308.8c96.4 0 117.1-58.5 118.1-61.8 11-51.8-5.7-89.2-49.9-111.2" style="fill:#fff"/></svg>