<?xml version="1.0" encoding="utf-8"?>
<!-- Generator: Adobe Illustrator 28.2.0, SVG Export Plug-In . SVG Version: 6.00 Build 0)  -->
<svg version="1.1" id="Layer_1" xmlns="http://www.w3.org/2000/svg" xmlns:xlink="http://www.w3.org/1999/xlink" x="0px" y="0px"
	 viewBox="0 0 512 512" style="enable-background:new 0 0 512 512;" xml:space="preserve">
<path d="M401.6,278.4c0,18.1-14.6,32.7-32.7,32.7s-32.7-14.6-32.7-32.7s14.6-32.7,32.7-32.7S401.6,260.3,401.6,278.4z M512.1,283.6
	c0,36.8-34.5,68.7-62.2,79.7c-16.8,101.8-120.2,147.6-159.2,147.6c-29.9,0-115.2-32.6-148.1-108.2h-8.4c-27.6,0-58.4-39.2-63.4-96
	c-12.8-4.1-26.6-11.5-38.7-22.8C10.8,264.1,0,235.9,0,200.1c0-67,47.2-147.3,179.8-171.5c2.5-0.4,4.9-0.3,7.3,0
	C216,10.7,251.5,1.1,290.6,1.1c57.7,0,107.3,20.3,139.7,57c32.9,37.2,47.6,89.7,43.1,152.8C496.4,221.6,512,249.4,512.1,283.6z
	 M130.4,89.2c-78.5,33-85.7,91.2-85.7,110.9c0,22.9,6,40.1,17.9,51.2c2.8,2.6,5.8,4.8,8.9,6.6c4.6-47,19.2-77.6,37-92.3
	C111.2,137.1,118.5,111.4,130.4,89.2z M212.4,313.9c19.6,0,35.5-15.9,35.5-35.5s-15.9-35.5-35.5-35.5s-35.5,15.9-35.5,35.5
	S192.8,313.9,212.4,313.9z M471.7,283.3c0-22.1-10.4-37-20.1-37c-5.8,0-11.3-2.6-15.1-6.9s-5.6-10.2-4.9-15.9
	c7.4-59.2-3.5-107.4-31.5-139.2c-25-28.4-62.9-43.7-109.5-43.7c-45.8,0-83.3,14.3-108.4,42.6c-16.4,18.5-27.1,46.1-31.8,69.4h6.1
	c12.3,0,23.5,23.3,44.7,23.3c21.3,0,22.4,0,22.4,0c12.3,0,44.7,24.6,44.7,90.1c0,89.9-32.3,113.3-44.7,113.3c0,0-0.3,0-22.4,0
	c-8.6,0-15.4,3.2-21.2,7.3c25.7,57.3,91.6,83.3,110.6,83.3c22.8,0,114-38.6,120.8-124.6c0.9-10.4,9.6-18.5,20.1-18.5
	C440.4,326,471.8,303.9,471.7,283.3z"/>
</svg>
