<svg xmlns="http://www.w3.org/2000/svg" xml:space="preserve" viewBox="0 0 512 512"><path d="M342.4 148H169.6c-1.3 0-2.4 1.1-2.4 2.4v211.1c0 1.3 1.1 2.4 2.4 2.4h172.7c1.3 0 2.4-1.1 2.4-2.4V150.4c.1-1.3-1-2.4-2.3-2.4m-28.8 192H198.4c-4 0-7.2-3.2-7.2-7.2s3.2-7.2 7.2-7.2h115.2c4 0 7.2 3.2 7.2 7.2 0 3.9-3.2 7.2-7.2 7.2m-86.4-84c0-15.9 12.9-28.8 28.8-28.8s28.8 12.9 28.8 28.8c0 12.5-8 23.1-19.2 27v6.6c0 2.6-2.1 4.8-4.8 4.8h-9.6c-2.6 0-4.8-2.1-4.8-4.8V283c-11.2-3.9-19.2-14.5-19.2-27m86.4-69.6H198.4c-4 0-7.2-3.2-7.2-7.2s3.2-7.2 7.2-7.2h115.2c4 0 7.2 3.2 7.2 7.2s-3.2 7.2-7.2 7.2M256 0C114.6 0 0 114.6 0 256s114.6 256 256 256 256-114.6 256-256S397.4 0 256 0m124.8 371.2c0 15.9-12.9 28.8-28.8 28.8H160c-15.9 0-28.8-12.9-28.8-28.8V140.8c0-15.9 12.9-28.8 28.8-28.8h192c15.9 0 28.8 12.9 28.8 28.8z" style="fill:#fff"/></svg>