<svg xmlns="http://www.w3.org/2000/svg" xml:space="preserve" viewBox="0 0 512 512"><path d="M145.7 243.3c23.3 0 42.1 18.4 42.1 41.2s-18.8 41.2-42.1 41.2-42.1-18.4-42.1-41.2 18.8-41.2 42.1-41.2m123.5 0c-23.3 0-42.1 18.8-42.1 41.2 0 23.3 18.8 41.2 42.1 41.2 22.4 0 41.1-17.9 42.1-41.2 0-22.4-18.8-41.2-42.1-41.2M435.3 0H76.8C34.4 0 0 34.4 0 76.8v358.4C0 477.6 34.4 512 76.8 512h358.4c42.4 0 76.8-34.4 76.8-76.7V76.8C512 34.4 477.6 0 435.3 0m-167 352.4c-25.9 0-49.2-15.2-60.8-36.7-11.6 21.5-34.9 36.7-61.7 36.7-37.6 0-68-29.5-68.9-67.1V172.6c0-7.1 6.2-13.4 14.3-13.4 7.1 0 13.4 6.2 13.4 13.4v57.3c11.7-8 26-13.4 42.1-13.4 26.8 0 50.1 14.3 61.7 35.8 11.6-21.5 34.9-35.8 60.8-35.8 38.5 0 69.8 30.5 68.9 67 0 38.5-31.3 68.9-69.8 68.9M432 331.1c4.5 6.3 3.6 14.3-1.8 18.8-6.3 4.5-15.2 3.6-19.7-1.8l-31.3-40.3-30.4 39.4c-4.5 6.3-13.4 6.3-19.7 1.8s-7.2-12.5-2.7-18.8l35.8-46.5-35.8-46.5c-4.5-6.3-2.7-15.2 2.7-19.7 6.3-4.5 15.2-2.7 19.7 2.7l30.4 40.3 31.3-38.5c4.5-6.3 12.5-7.2 19.7-2.7 6.3 4.5 6.3 13.4 1.8 19.7l-34.9 45.6z"/></svg>