<?xml version="1.0" encoding="utf-8"?>
<!-- Generator: Adobe Illustrator 28.2.0, SVG Export Plug-In . SVG Version: 6.00 Build 0)  -->
<svg version="1.1" id="Layer_1" xmlns="http://www.w3.org/2000/svg" xmlns:xlink="http://www.w3.org/1999/xlink" x="0px" y="0px"
	 viewBox="0 0 512 512" style="enable-background:new 0 0 512 512;" xml:space="preserve">
<path d="M145.7,243.3c23.3,0,42.1,18.4,42.1,41.2s-18.8,41.2-42.1,41.2s-42.1-18.4-42.1-41.2S122.4,243.3,145.7,243.3z M269.2,243.3
	c-23.3,0-42.1,18.8-42.1,41.2c0,23.3,18.8,41.2,42.1,41.2c22.4,0,41.1-17.9,42.1-41.2C311.3,262.1,292.5,243.3,269.2,243.3z
	 M435.3,0H76.8C34.4,0,0,34.4,0,76.8v358.4C0,477.6,34.4,512,76.8,512h358.4c42.4,0,76.8-34.4,76.8-76.7V76.8
	C512,34.4,477.6,0,435.3,0z M268.3,352.4c-25.9,0-49.2-15.2-60.8-36.7c-11.6,21.5-34.9,36.7-61.7,36.7c-37.6,0-68-29.5-68.9-67.1
	V172.6c0-7.1,6.2-13.4,14.3-13.4c7.1,0,13.4,6.2,13.4,13.4v57.3c11.7-8,26-13.4,42.1-13.4c26.8,0,50.1,14.3,61.7,35.8
	c11.6-21.5,34.9-35.8,60.8-35.8c38.5,0,69.8,30.5,68.9,67C338.1,322,306.8,352.4,268.3,352.4z M432,331.1c4.5,6.3,3.6,14.3-1.8,18.8
	c-6.3,4.5-15.2,3.6-19.7-1.8l-31.3-40.3l-30.4,39.4c-4.5,6.3-13.4,6.3-19.7,1.8s-7.2-12.5-2.7-18.8l35.8-46.5l-35.8-46.5
	c-4.5-6.3-2.7-15.2,2.7-19.7c6.3-4.5,15.2-2.7,19.7,2.7l30.4,40.3l31.3-38.5c4.5-6.3,12.5-7.2,19.7-2.7c6.3,4.5,6.3,13.4,1.8,19.7
	l-34.9,45.6L432,331.1z"/>
</svg>
