<svg xmlns="http://www.w3.org/2000/svg" xml:space="preserve" viewBox="0 0 512 512"><path d="M403.7 512H108.3C48.5 512 0 463.5 0 403.7V108.3C0 48.5 48.5 0 108.3 0h295.5C463.5 0 512 48.5 512 108.3v295.5c0 59.7-48.5 108.2-108.3 108.2" style="fill:#272727"/><path d="M232.4 404.2c26.8-99.5 53.4-198.2 79.9-297H369c-3.4 12.7-6.7 25.2-10.1 37.6-22.9 85-45.8 169.9-68.5 254.9-1 3.7-2.5 4.6-6.1 4.6-16.9-.2-33.9-.1-51.9-.1M143.1 337c0-18.4 15.2-33.6 33.8-33.7 18.2 0 34.1 15.7 34.1 33.7 0 18.4-15.8 34-34.3 33.9-18.6-.1-33.5-15.2-33.6-33.9" style="fill:#5ca3fd"/></svg>