<svg xmlns="http://www.w3.org/2000/svg" xml:space="preserve" viewBox="0 0 512 512"><path d="M388 240.8c-9 0-16.7 5.7-19.7 15h39.4c-1.3-5.8-8.2-15-19.7-15m-303.9 2.3c-12.1 0-21.2 9.4-21.2 21.2 0 11.9 9.2 21.2 21.2 21.2s21.2-9.3 21.2-21.2-9.1-21.2-21.2-21.2m107.7 0c-12.1 0-21.2 9.4-21.2 21.2 0 11.9 9.2 21.2 21.2 21.2s21.2-9.3 21.2-21.2c.1-11.9-9.1-21.2-21.2-21.2M397.2 0H114.8C51.4 0 0 51.4 0 114.8v282.4C0 460.6 51.4 512 114.8 512h282.4c63.4 0 114.8-51.4 114.8-114.8V114.8C512 51.4 460.6 0 397.2 0m69 243.3h-2c-11.5 0-18.8 6.5-19.2 17.4-.1 1.7-.2 3.4-.2 5.1v35.4h-18.2v-31.1h-59.2c2.1 11 10.6 17.8 20.5 17.8 11 0 17.3-7.8 18.9-12.9h17.8c-3.2 14.3-15.3 28-36.7 28-18.8 0-34.6-12-38.1-30.7v28.9h-18.4v-38c0-1.2 0-1.9-.1-3-.3-12.3-7.1-17.7-15-17.7-8 0-15.2 5.4-15.7 17.8 0 .7-.1 1.5-.1 2.4v38.6h-18.2v-6.6c-5.1 5.3-11.9 8.6-19.5 8.6-18.1 0-33.1-12.7-33.1-31.4-3.5 17.9-19.2 31.4-38.2 31.4-21.5 0-38.9-17.4-38.9-38.9 0-7.7 2.3-15 6.2-21-11.2.2-18.3 6.6-18.7 17.4-.1 1.7-.1 3.4-.1 5.1v35.4h-18.2v-28.4c-3.6 17.3-18.1 30.2-38 30.2-23.1 0-37.9-17.5-38.2-38.7 0-3.1-.1-6.3-.1-9.7v-46h17.8v26.5c5.8-5.8 13.2-9.2 22.7-9.2 18.1 0 32.5 12.8 35.9 30.2.9-17.1 13.7-30.2 37.5-30.2h2v13.9c7.1-8.8 18-14.4 30.2-14.4 18.9 0 34.7 13.5 38.2 31.4v-48h18.4v17.9h28.3v17.1h-28.3v20.4c0 1.6.1 2.5.1 4.7.2 12.8 8 16.9 16.7 16.9 8.3 0 15.9-5.6 17-16.9.3-2.7.3-3.8.3-5.6v-54.5h18.2v24.5c5.1-5 11.6-7.8 19-7.8 17.1 0 30.2 14.5 30.2 31.3 3.5-18.9 19.4-31.3 38.1-31.3 18.8 0 35.3 12.5 38.7 31.6.5-17.6 13.3-31.1 37.5-31.1h2v17.2z" style="fill:#fff"/></svg>