<svg xmlns="http://www.w3.org/2000/svg" xml:space="preserve" viewBox="0 0 512 512"><path d="M160.1 106.1q.75.6.9 1.5c3.2 13.9-4.9 15.5-13.7 9.8-35.1-22.7-51.7-23.8-88.7-3.7-.7.4-1.4.5-2.2.3-5.9-1.6-8.2-4.8-6.9-9.8 2.1-7.6 15.2-14 21.8-16.5 32.4-12 62-6 88.8 18.4m16.1 21.8c4.3-2.8 9.8-1.8 12.3 2.1 2.6 3.9 1.2 9.4-3.1 12.1-4.3 2.8-9.8 1.8-12.3-2.1s-1.2-9.3 3.1-12.1m309.7-26.8c-13.3 3-25.7-.7-36.8.9-10.6 1.5-20.7 4.7-30.2 9.5-8.9 4.5-16.8 2.2-15.8-9.2 0-.6.2-1.1.6-1.6 11.8-14.8 17.2-31.9 16.3-51.1-.3-5.6 2.2-13.6 7.5-24.1.4-.7.4-1.5.2-2.2-6.2-19.7-18.6-24.6-37.2-14.6q-.75.45-1.2 1.2c-9.3 16.6-5 28.3 12.8 35 1.1.4 1.8 1.4 1.9 2.6 1 17.5-4.5 32.5-16.3 44.9-.9 1-2.3 1.2-3.4.7-49.9-22.2-100.7-3.4-117.9 48.5-.3.7-.8 1.3-1.4 1.7-3.2 1.8-5.8 1.8-7.8.1-35.8-30.8-76-68.6-118.1-86.6C45 16.6-44 124.6 23.8 204.7c15.1 17.8 35.9 28.6 62.5 32.5q5.25.75 1.8 4.8c-14.8 17.4-29.9 36.9-39.4 56.8-35.3 73.6-17.9 161.2 82.5 151.6 36.3-3.5 68.5-15.9 96.8-37.1 1.3-.9 6.2-2.7 7.1-2.3 2.2 1 3.7 3 4.1 5.4 9.1 52 37.8 92.2 95.5 92 65.6-.2 107.3-63 92.3-124.6-2.4-9.6-8.1-22.3-17.3-38-17.8-30.7-36-61.1-54.5-91.4-2.5-4.3-1.4-7 3.4-8.2 52.3-13.1 77.7-61 62.9-111.6-.3-1.1 0-2.2.8-3 12.5-11.6 27.2-15.5 43.9-11.5.6.2 1.2.6 1.6 1.1 4.2 5.4 6.3 12.3 11.2 16.3 8.1 6.6 17.7 7.7 28.6 3.2.7-.3 1.3-.9 1.6-1.6 6.9-16.9 1.8-43.7-23.3-38m-84.2-76c0-2 1.6-3.6 3.6-3.6s3.6 1.6 3.6 3.6-1.6 3.6-3.6 3.6-3.6-1.6-3.6-3.6M73.1 216c-39.5-13.1-60.6-51.9-52.1-92.9 13.8-65.9 92.1-68.7 136.4-36.6q48.6 35.25 95.1 73.2c3.8 3.2 7.2 7 9.9 11.6 3.1 4.9 1.9 8.3-3.7 10.1-40 13-80.2 24.4-120.7 34.3-21.8 5.4-43.4 7.4-64.9.3m109.7 212.5c-2.1 2.4-5.9 3-11.8.8-.9-.4-1.5-1.1-1.8-2-3.6-13.3-6.3-28.5-11.3-40.2-18-42.3-50.2-69.4-96.7-81.1-1.3-.4-2.2-1.5-2.2-2.9 0-4.9 1-8.5 3.1-10.6 2.5-2.8 6.8-3.3 12.6-1.5 40.4 12.5 76.3 40 94.6 77.6 2.4 4.8 22.9 49.8 13.5 59.9m47.3-30.4q-1.5.6-2.7.6c-2.4.1-3.8-1.2-4.3-4-12.9-75.7-42.2-124.3-123.2-138.3-2.9-.5-3.7-2.4-2.5-5.7v-.1c-3.6-7.4 6.8-13.6 8.9-8.3 2.3-.9 3.9-1.2 4.6-1 33.6 7.7 60.8 21.6 81.4 41.7 23.4 22.8 38.4 53.5 45 92.2.2 1.2.4 2.5.5 3.8.3 3.8.1 7.5-.6 11.2 2.4 7 0 9.7-7.1 7.9m-11.2-160.7c-7.8-5.3-15.8-10.3-23.8-15-1.3-.8-2.1-1.5-2.4-2.2-.1-.2-.1-.5-.1-.7 0-.1 0-.2.1-.3.3-.8 1.2-1.5 2.9-2.1 8.1-3.2 15.4-5.2 23.8-.6 1 .6 2.1 1.2 3.3 1.9q2.25 1.5 4.8 3.3c.8.6 1.7 1.3 2.6 1.9 4.8 3.7 10.2 8.3 15.4 13.5.5.5 1 .9 1.4 1.4 2.9 2.9 5.7 5.9 8.4 9.1 1.4 1.6 2.7 3.2 4 4.8 3.4 4.3 6.6 8.8 9.3 13.3.3.6.7 1.1 1 1.7 1.3 2.3 2.4 4.5 3.4 6.8 5.2 11.8 6.3 23.3-.4 32.3-.7 1-1.4 1.6-2 1.9-1.3.7-2.4-.2-3.1-2.7-9-25.9-25.2-52.5-48.6-68.3m172.7 107.5c10.7 17.4 17.2 36.2 19.7 56.4 5.4 44.5-26 90.1-73.7 90.5-47.2.5-84.9-42.2-80.5-88.4 1.9-20.7 8.6-43.8 20-69.4 13.7-30.5 27.7-60.8 42.1-91.1 3-6.2 6.2-6.4 9.8-.5 20.6 34 41.4 68.2 62.6 102.5M491 125.3c-2.2 0-4-1.8-4-4s1.8-4 4-4 4 1.8 4 4-1.8 4-4 4M344.4 326.1l4.5-4.4c2.1-2.1 5.5-2.1 7.6 0l5.2 5.2c2.1 2.1 2.1 5.5 0 7.6l-4.5 4.4c-2.1 2.1-5.5 2.1-7.6 0l-5.2-5.2c-2.2-2.1-2.1-5.5 0-7.6m34.8 28.3q.6.3.9.9c22.8 33.5 23.2 77.2-7 106.7-3.8 3.7-8.9 3.8-15.4.2-1.4-.8-2-2.6-1.2-4 0-.1.1-.2.2-.2 4-5.9 8.1-12.3 12.1-19 14.8-24.3 7.1-48.6-1.6-73.1-3.3-9.2-3.7-21.2 12-11.5"/></svg>