<svg xmlns="http://www.w3.org/2000/svg" xml:space="preserve" viewBox="0 0 512 512"><path d="M235.1 411c-.9-.4-5.8 1.4-7.1 2.3-28.3 21.2-60.5 33.6-96.8 37.1-100.4 9.6-117.8-78-82.5-151.6 9.5-19.9 24.6-39.4 39.4-56.8q3.45-4.05-1.8-4.8c-26.6-3.9-47.4-14.7-62.5-32.5C-44 124.6 45 16.6 139.1 56.8c42.1 18 82.3 55.8 118.1 86.6 2 1.7 4.6 1.7 7.8-.1.6-.4 1.1-1 1.4-1.7 17.2-51.9 68-70.7 117.9-48.5 1.1.5 2.5.3 3.4-.7C399.5 80 405 65 404 47.5c-.1-1.2-.8-2.2-1.9-2.6-17.8-6.7-22.1-18.4-12.8-35q.45-.75 1.2-1.2c18.6-10 31-5.1 37.2 14.6.2.7.2 1.5-.2 2.2-5.3 10.5-7.8 18.5-7.5 24.1.9 19.2-4.5 36.3-16.3 51.1-.4.5-.6 1-.6 1.6-1 11.4 6.9 13.7 15.8 9.2 9.5-4.8 19.6-8 30.2-9.5 11.1-1.6 23.5 2.1 36.8-.9 25.1-5.7 30.2 21.1 23.3 38-.3.7-.9 1.3-1.6 1.6-10.9 4.5-20.5 3.4-28.6-3.2-4.9-4-7-10.9-11.2-16.3-.4-.5-1-.9-1.6-1.1-16.7-4-31.4-.1-43.9 11.5-.8.8-1.1 1.9-.8 3 14.8 50.6-10.6 98.5-62.9 111.6-4.8 1.2-5.9 3.9-3.4 8.2 18.5 30.3 36.7 60.7 54.5 91.4 9.2 15.7 14.9 28.4 17.3 38 15 61.6-26.7 124.4-92.3 124.6-57.7.2-86.4-40-95.5-92-.4-2.4-1.9-4.4-4.1-5.4M408.9 25.1c0-2-1.6-3.6-3.6-3.6s-3.6 1.6-3.6 3.6 1.6 3.6 3.6 3.6 3.6-1.6 3.6-3.6M252.5 159.7q-46.5-37.95-95.1-73.2C113.1 54.4 34.8 57.2 21 123.1c-8.5 41 12.6 79.8 52.1 92.9 21.5 7.1 43.1 5.1 64.9-.3 40.5-9.9 80.7-21.3 120.7-34.3 5.6-1.8 6.8-5.2 3.7-10.1-2.7-4.6-6.1-8.4-9.9-11.6M495 121.3c0-2.2-1.8-4-4-4s-4 1.8-4 4 1.8 4 4 4 4-1.8 4-4M272.4 306.6c20.5-27.4-31.3-78.2-53.1-90.1-8.4-4.6-15.7-2.6-23.8.6-3.8 1.5-3.9 3.3-.4 5.3 8.1 4.7 16 9.7 23.8 15 23.4 15.8 39.6 42.4 48.4 68.4 1.1 3.6 2.8 3.8 5.1.8m-15.3 96.8c-4.4 46.2 33.3 88.9 80.5 88.4 47.7-.4 79.1-46 73.7-90.5-2.5-20.2-9-39-19.7-56.4-21.2-34.3-42-68.5-62.6-102.5-3.6-5.9-6.8-5.7-9.8.5-14.4 30.3-28.4 60.6-42.1 91.1-11.4 25.6-18.1 48.7-20 69.4M97.5 250.7c-1.2 3.3-.4 5.2 2.5 5.7 80.9 14 110.3 62.6 123.1 138.3.6 3.7 3 4.9 7 3.4 7.1 1.8 9.5-.9 7.1-7.9.9-5 1-10 .1-15-12.5-72.8-54.6-117.4-126.4-133.9-.7-.2-2.3.1-4.6 1-2.1-5.3-12.6 1-8.8 8.4m71.8 118c-18.3-37.6-54.1-65.1-94.6-77.6-10.5-3.2-15.7.8-15.7 12 0 1.4.9 2.5 2.2 2.9 46.5 11.7 78.7 38.8 96.7 81.1 5 11.7 7.7 26.9 11.3 40.2.3.9.9 1.6 1.8 2 31.5 11.5 1.2-54.8-1.7-60.6m-9.2-262.6q.75.6.9 1.5c3.2 13.9-4.9 15.5-13.7 9.8-35.1-22.7-51.7-23.8-88.7-3.7-.7.4-1.4.5-2.2.3-5.9-1.6-8.2-4.8-6.9-9.8 2.1-7.6 15.2-14 21.8-16.5 32.4-12 62-6 88.8 18.4m16.1 21.8c4.3-2.8 9.8-1.8 12.3 2.1 2.6 3.9 1.2 9.4-3.1 12.1-4.3 2.8-9.8 1.8-12.3-2.1s-1.2-9.3 3.1-12.1m168.2 198.2 4.5-4.4c2.1-2.1 5.5-2.1 7.6 0l5.2 5.2c2.1 2.1 2.1 5.5 0 7.6l-4.5 4.4c-2.1 2.1-5.5 2.1-7.6 0l-5.2-5.2c-2.2-2.1-2.1-5.5 0-7.6m34.8 28.3q.6.3.9.9c22.8 33.5 23.2 77.2-7 106.7-3.8 3.7-8.9 3.8-15.4.2-1.4-.8-2-2.6-1.2-4 0-.1.1-.2.2-.2 4-5.9 8.1-12.3 12.1-19 14.8-24.3 7.1-48.6-1.6-73.1-3.3-9.2-3.7-21.2 12-11.5"/><path d="M219.3 216.5c21.8 11.9 73.6 62.7 53.1 90.1-2.2 3-4 2.7-5.1-.8-8.7-26-25-52.6-48.4-68.4-7.8-5.3-15.8-10.3-23.8-15-3.5-2-3.4-3.8.4-5.3 8.1-3.2 15.4-5.1 23.8-.6m17.9 173.7c-1.3 3-3.7 5.6-7.1 7.9-4.1 1.5-6.4.3-7-3.4-12.9-75.7-42.2-124.3-123.2-138.3-2.9-.5-3.7-2.4-2.5-5.7 1.6-4.3 4.6-7.1 8.9-8.4 2.3-.8 3.9-1.2 4.6-1 71.7 16.4 113.9 61.1 126.4 133.9.9 5 .8 10-.1 15M74.7 291c40.4 12.5 76.3 40 94.6 77.6 2.9 5.9 33.2 72.2 1.9 60.5-.9-.3-1.6-1.1-1.8-2-3.7-13.3-6.3-28.5-11.3-40.2-18-42.4-50.2-69.4-96.7-81.1-1.3-.3-2.2-1.5-2.2-2.9-.1-11.1 5.1-15.1 15.5-11.9" style="fill:#f2d720"/></svg>