<svg xmlns="http://www.w3.org/2000/svg" xml:space="preserve" viewBox="0 0 512 512"><path d="M305.7 16.6v208.7c0 9.1 7.3 16.6 16.6 16.6h90.8c8.1 0 15.8-3.9 20.9-10.4l74-98.3c5.4-7.1 5.4-17 0-24.2l-74-98.5C428.9 3.9 421.2 0 413.1 0h-90.8c-9.3 0-16.6 7.3-16.6 16.6" style="fill:#ff4e4e"/><path d="M305.7 286.7v208.7c0 9.1 7.3 16.6 16.6 16.6h90.8c8.1 0 15.8-3.9 20.9-10.4l74-98.3c5.4-7.1 5.4-17 0-24.2l-74-98.3c-4.8-6.6-12.6-10.4-20.9-10.4h-90.8c-9.3-.3-16.6 7.2-16.6 16.3" style="fill:#6e56ff"/><path d="M0 16.6v208.7c0 9.1 7.3 16.6 16.6 16.6h195.1c8.1 0 15.8-3.9 20.9-10.4l68.6-91.4c8.5-11.4 8.5-27 0-38.4l-68.8-91.2C227.6 3.9 219.9 0 211.6 0h-195C7.3 0 0 7.3 0 16.6" style="fill:#f97777"/><path d="M0 286.7v208.7c0 9.1 7.3 16.6 16.6 16.6h195.1c8.1 0 15.8-3.9 20.9-10.4l68.6-91.4c8.5-11.4 8.5-27 0-38.4l-68.6-91.4c-4.8-6.6-12.6-10.4-20.9-10.4H16.6c-9.3.1-16.6 7.6-16.6 16.7" style="fill:#9f8fff"/></svg>