<?xml version="1.0" encoding="utf-8"?>
<!-- Generator: Adobe Illustrator 28.2.0, SVG Export Plug-In . SVG Version: 6.00 Build 0)  -->
<svg version="1.1" id="Layer_1" xmlns="http://www.w3.org/2000/svg" xmlns:xlink="http://www.w3.org/1999/xlink" x="0px" y="0px"
	 viewBox="0 0 512 512" style="enable-background:new 0 0 512 512;" xml:space="preserve">
<style type="text/css">
	.st0{fill:#FFFFFF;}
</style>
<g>
	<path class="st0" d="M305.7,16.6v208.7c0,9.1,7.3,16.6,16.6,16.6h90.8c8.1,0,15.8-3.9,20.9-10.4l74-98.3c5.4-7.1,5.4-17,0-24.2
		l-74-98.5C428.9,3.9,421.2,0,413.1,0h-90.8C313,0,305.7,7.3,305.7,16.6z"/>
	<path class="st0" d="M305.7,286.7v208.7c0,9.1,7.3,16.6,16.6,16.6h90.8c8.1,0,15.8-3.9,20.9-10.4l74-98.3c5.4-7.1,5.4-17,0-24.2
		l-74-98.3c-4.8-6.6-12.6-10.4-20.9-10.4h-90.8C313,270.1,305.7,277.6,305.7,286.7z"/>
	<path class="st0" d="M0,16.6v208.7c0,9.1,7.3,16.6,16.6,16.6h195.1c8.1,0,15.8-3.9,20.9-10.4l68.6-91.4c8.5-11.4,8.5-27,0-38.4
		l-68.8-91.2C227.6,3.9,219.9,0,211.6,0h-195C7.3,0,0,7.3,0,16.6z"/>
	<path class="st0" d="M0,286.7v208.7c0,9.1,7.3,16.6,16.6,16.6h195.1c8.1,0,15.8-3.9,20.9-10.4l68.6-91.4c8.5-11.4,8.5-27,0-38.4
		l-68.6-91.4c-4.8-6.6-12.6-10.4-20.9-10.4H16.6C7.3,270.1,0,277.6,0,286.7z"/>
</g>
</svg>
