<?xml version="1.0" encoding="utf-8"?>
<!-- Generator: Adobe Illustrator 28.2.0, SVG Export Plug-In . SVG Version: 6.00 Build 0)  -->
<svg version="1.1" id="Layer_1" xmlns="http://www.w3.org/2000/svg" xmlns:xlink="http://www.w3.org/1999/xlink" x="0px" y="0px"
	 viewBox="0 0 512 512" style="enable-background:new 0 0 512 512;" xml:space="preserve">
<style type="text/css">
	.st0{fill:#FFFFFF;}
</style>
<path class="st0" d="M508,133.2l-74,98.3c-5.1,6.5-12.8,10.4-20.9,10.4h-90.8c-9.3,0-16.6-7.5-16.6-16.6v-93.7
	c-1.1,3-2.5,5.8-4.5,8.5l-68.6,91.4c-5.1,6.5-12.8,10.4-20.9,10.4H16.6c-9.3,0-16.6-7.5-16.6-16.6V16.6C0,7.3,7.3,0,16.6,0h195
	c8.3,0,16,3.9,20.8,10.5l68.8,91.2c2,2.6,3.4,5.5,4.5,8.5V16.6C305.7,7.3,313,0,322.3,0h90.8c8.1,0,15.8,3.9,20.9,10.5l74,98.5
	C513.4,116.2,513.4,126.1,508,133.2z M508,379.1l-74-98.3c-4.8-6.6-12.6-10.4-20.9-10.4h-90.8c-9.3-0.3-16.6,7.2-16.6,16.3v93.6
	c-1.1-3-2.5-5.8-4.5-8.5l-68.6-91.4c-4.8-6.6-12.6-10.4-20.9-10.4H16.6C7.3,270.1,0,277.6,0,286.7v208.7c0,9.1,7.3,16.6,16.6,16.6
	h195.1c8.1,0,15.8-3.9,20.9-10.4l68.6-91.4c2-2.6,3.4-5.5,4.5-8.5v93.7c0,9.1,7.3,16.6,16.6,16.6h90.8c8.1,0,15.8-3.9,20.9-10.4
	l74-98.3C513.4,396.2,513.4,386.3,508,379.1z"/>
</svg>
