<svg xmlns="http://www.w3.org/2000/svg" xml:space="preserve" viewBox="0 0 512 512"><path d="M16.8 350.3v-73.9L192 433.7v73z" style="opacity:.75;fill-rule:evenodd;clip-rule:evenodd;fill:#fff"/><path d="M192.1 433.9 431 376v74.2l-238.9 57.6z" style="opacity:.65;fill-rule:evenodd;clip-rule:evenodd;fill:#fff"/><path d="M431.2 376v74.2l63.9-214.8v-73.9z" style="opacity:.85;fill-rule:evenodd;clip-rule:evenodd;fill:#fff"/><path d="m320.2 4.2 175 157.3-64 214.5L192 433.5 17 276.4 81 61.8zm-6 124.8c55 28.6 74 92.1 42 141.8-31.7 49.5-102.4 66.5-157.8 37.8-55-28.3-73.9-92.1-41.9-141.6 31.5-49.7 102.1-66.9 157.6-38.2z" style="opacity:.4;fill-rule:evenodd;clip-rule:evenodd;fill:#fff"/><path d="M145.4 248.3c-9.2-27.3-5.4-57.2 10.3-81.3 32.3-49.7 103.1-66.7 158.1-37.8 47.2 24.6 68.1 74.6 52.8 119.4-9-26.1-27.9-47.7-52.6-60.2-55.4-28.5-126.1-11.5-158.1 38.2-4.3 6.9-7.8 14.3-10.3 22z" style="opacity:.55;fill-rule:evenodd;clip-rule:evenodd;fill:#fff"/><path d="M498 158.4 323 1.1c-1-.9-2.5-1.3-3.8-1L80 57.7c-1.5.4-2.6 1.5-3.1 2.9L13.2 274.3c-.4.6-.6 1.4-.6 2.2v73.9c0 1.2.5 2.3 1.4 3.1L188.2 509c.3.8.6 1.5 1.3 2.1.8.6 1.7.9 2.6.9.3 0 .7 0 1-.1L432 454.3c1.5-.3 2.8-1.4 3.2-2.9L499 236.6c.1-.4.2-.8.2-1.2v-73.1c.4-1.5-.1-3-1.2-3.9m-413.6-93L319 8.8l171.3 153.9-62.4 209.6-23.7 5.7-211.1 50.8L21.8 275.1zm103.4 431.9L21.1 348.5v-62.6l166.7 149.7zm8.6 5.1v-65.2L407.5 386l19.3-4.6v65.5zm239.1-81.2v-44.6l55.4-185.8v44zm-179.4-94.5c41.4 0 81.6-19.3 103.6-53.7 9.9-15.4 15.3-32.6 16.1-50 .1-2.1.1-4.2 0-6.4v-2.7c-.2-3.4-.5-6.8-1-10.1v-.1c-.5-3.3-1.2-6.5-2-9.7 0-.1-.1-.3-.1-.4-.1-.3-.2-.5-.3-.8q-1.2-4.2-2.7-8.4c-.4-1-.7-1.9-1.1-2.9-.8-1.9-1.6-3.7-2.5-5.6-.7-1.6-1.5-3.1-2.3-4.7-.2-.4-.5-.8-.7-1.2-10.2-18.4-26-33.8-46.2-44.5-.3-.2-.5-.4-.8-.6-40.5-20.9-88.9-18.1-125.3 3.5-15.3 8.9-28.6 21-38.4 36.1-16.5 25.3-20.4 56.3-10.8 84.9.1.2.3.7.4.9 0 .1.1.1.1.2 8.9 26 28.4 48.2 54.5 61.7 18.6 9.9 39.2 14.5 59.5 14.5M160 169.2c6.3-10 14.3-18.7 23.5-25.8.1-.1.3-.2.4-.3 2.2-1.7 4.4-3.2 6.7-4.7 2.1-1.4 4.3-2.7 6.5-4 .4-.2.8-.5 1.3-.7 33.8-18.2 77.3-19.8 113.5-.8 21.8 11.3 37.9 28.3 47 47.8.6 1.3 1.3 2.7 1.8 4 .4 1 .8 2.1 1.2 3.2q1.2 3.3 2.1 6.6l.6 2.1q1.05 4.2 1.8 8.4v.2q.6 4.2.9 8.4c.1 1.3.1 2.6.1 3.9v4c-.1 1.9-.2 3.8-.4 5.6 0 .5-.1 1-.2 1.6-.3 2.3-.6 4.5-1 6.8-10.5-21.9-27.9-39.7-49.8-50.8-18.7-9.6-39.1-14.2-59.3-14.2-41.5 0-82 19.3-104.3 53.9-2.1 3.4-4 6.9-5.7 10.4-4.2-22.6.4-45.6 13.3-65.6m-9.8 79.1c2.4-6.8 5.5-13.4 9.3-19.4 30.8-47.7 99.2-64.2 152.7-36.7 23.5 11.8 41.2 31.9 50.1 56.7-2.4 6.8-5.5 13.4-9.6 19.6-30.5 47.7-98.9 64-152.3 36.3-24.5-12.5-42-32.5-50.2-56.5" style="fill:#fff"/></svg>