<svg xmlns="http://www.w3.org/2000/svg" xml:space="preserve" viewBox="0 0 512 512"><path d="M189.9 285.9 23.6 136.6v59.6c0 6.6 3.8 15.7 8.4 20.3l19 19c4.7 4.7 8.4 13.8 8.4 20.3v95.3c0 19 5.1 35.5 14.8 50.5zm132.2 0 166.3-149.3v65.5c0 3.3-1.9 7.8-4.2 10.2l-27.3 27.3c-2.3 2.3-4.2 6.9-4.2 10.2v101.3c0 19-5.1 35.5-14.8 50.5zM256 328.5c-17.7 0-26.7-7-39.5-18.7L98.1 428.2c33.2 28.8 87 53.4 157.9 83.8 70.9-30.4 124.7-55 157.9-83.8L295.5 309.8c-12.8 11.7-21.8 18.7-39.5 18.7m-8.9-39.2L28.1 92.6c-2.4-2.2-4.4-6.7-4.4-9.9V58.8c0-3.3 2.6-6.6 5.8-7.3l77.8-17.9c3.2-.7 5.8 1.3 5.8 4.6v49L178.7 72c3.2-.7 5.8-4 5.8-7.3v-43c0-3.3 2.6-6.6 5.8-7.3L250.2.6c3.2-.7 8.4-.7 11.6 0l59.9 13.8c3.2.7 5.8 4 5.8 7.3v43.1c0 3.3 2.6 6.6 5.8 7.3L399 87.2v-49c0-3.3 2.6-5.4 5.8-4.6l77.8 17.9c3.2.7 5.8 4 5.8 7.3v23.8c0 3.3-2 7.7-4.4 9.9L264.9 289.3c-4.9 4.3-12.9 4.3-17.8 0" style="fill:#db2d54"/></svg>