<svg xmlns="http://www.w3.org/2000/svg" xml:space="preserve" viewBox="0 0 512 512"><ellipse cx="55.7" cy="256" rx="44.5" ry="103.9" style="fill:#fff;fill-opacity:8.000000e-02"/><path d="M512 256c0-39.3-16.8-69.1-39.3-70.4-.1 0-.2 0-.3-.1l-203.8-21.8c-.4-.1-.8-.1-1.2-.1L56.8 141h-.5c-.2 0-.4-.1-.6-.1s-.4.1-.7.1-.5 0-.7.1C23.2 142.6 0 191.4 0 256c0 65.6 23.9 115 55.6 115 .4 0 .8 0 1.2-.1l210.4-22.5c.5-.1.9-.1 1.4-.2l203.8-21.8c.1 0 .2 0 .2-.1 22.6-1.2 39.4-31 39.4-70.3m-248.8 70.5c-10.6-.4-25.7-27.7-25.7-70.5 0-42.7 15.1-70 25.7-70.5l1.6.2c10.5 2.1 24.6 29 24.6 70.3 0 41.4-14.2 68.3-24.7 70.3zm-29.7 3.1L91.8 344.8c12.1-20.8 19.5-52.3 19.5-88.8s-7.4-68.1-19.5-88.8l141.7 15.2c-11.2 16.7-18.3 42.9-18.3 73.6s7 57 18.3 73.6m64-140.4 145.1 15.5c-7.6 12.7-12.3 30.6-12.3 51.2s4.6 38.6 12.3 51.2l-145.1 15.5c8.8-16.6 14.1-40 14.1-66.8.1-26.6-5.3-50-14.1-66.6M22.3 256c0-56.3 19.5-92.3 33.1-92.7l1.5.2C70.4 165.5 89 201 89 256s-18.7 90.6-32.2 92.6l-1.4.1c-13.6-.4-33.1-36.4-33.1-92.7m448.9 48.2c-7.4 0-18.6-19.2-18.6-48.2s11.2-48.2 18.6-48.2 18.6 19.2 18.6 48.2c-.1 29-11.2 48.2-18.6 48.2M55.7 274.6c-10.2 0-18.6-8.3-18.6-18.6 0-10.2 8.3-18.6 18.6-18.6s18.6 8.3 18.6 18.6c-.1 10.2-8.4 18.6-18.6 18.6" style="fill:#fff"/></svg>