<svg xmlns="http://www.w3.org/2000/svg" xml:space="preserve" viewBox="0 0 512 512"><path d="M510.7 382.6c-4.1-37.2-11.5-78-47.1-98.1-15-8.5-20.7-28.9-10.6-42.8 21.4-32.1 20.6-69.6 16.5-106C459.8 47.9 386 11.3 249.1 29.4c-87.4 11.5-131 17.7-218 31.2C10.9 63.5-2.6 81 .4 99.9 20.9 229 41.3 358.2 61.8 487.2h422.8c22-27.2 30.9-61.9 26.2-104.7zm-291.4 26.5c-1.8-38-2.7-57-4.4-94.9-15.9-8.9-27.7-24.2-30.3-43.1-4.6-32.5 19.2-62.9 53.3-67.6s65.2 18.3 69.4 51c2.5 18.9-4.7 36.8-17.7 49.6 8.5 37.1 12.7 55.6 21.1 92.7-36.6 4.8-54.7 7.2-91.4 12.3"/></svg>