<svg xmlns="http://www.w3.org/2000/svg" xml:space="preserve" viewBox="0 0 512 512"><path d="M256.4 0h152.3c28.2 0 50.5 21.3 50.8 49.6q.6 71.1 0 142.2c-.2 28.3-21.6 49.6-50.1 50-34.3.5-68.6.2-102.9 0-7 0-12.7 1.9-17.9 6.4-6.1 5.1-12.5 9.8-18.9 14.6-9.6 7.2-17.6 7.2-27.2.1-6.9-5.2-13.9-10.4-20.7-15.8-4.5-3.6-9.5-5-15.2-5-34.5.1-69 .4-103.5-.2-29.6-.6-50.3-21.6-50.6-51.1-.5-46.7-.4-93.4 0-140.1C52.7 24.5 69.7 5.2 95.7.3c1.9-.4 3.9-.3 5.8-.3zm-.5 40.2h-147c-2.5 0-5 .1-7.4.3-4.9.5-7.6 3.5-8.5 8.1-.4 2.2-.4 4.6-.4 6.9V186c0 12.6 3.1 15.7 15.6 15.7 36.4 0 72.9.1 109.3-.1 7.8 0 14.6 1.9 20.5 7 4.6 3.9 9.5 7.3 14.2 11.1 2.7 2.2 4.9 2.1 7.5-.1 4.4-3.6 9.2-6.7 13.4-10.4 6.3-5.7 13.5-7.7 21.9-7.7 36.4.2 72.9.1 109.3.1 11.5 0 14.9-3.4 14.9-14.8V55.7c0-13.2-2.5-15.7-15.9-15.7-49 .2-98.2.2-147.4.2m-148.6 345c-3.9 4.5-6.5 7.9-9.5 11-10.5 10.8-26.4 9-33-4-4-7.9-2.6-15.7 2.8-22.4 14.6-18.2 29.5-36.2 44.3-54.3 4.9-5.9 11.4-8 18.8-7.9 16.8.1 33.6.2 50.4.2H344c12.4 0 24.8 0 37.1-.2 8.6-.2 15.2 3.1 20.6 9.9 13.8 17.3 27.9 34.3 41.9 51.4 6.5 8 7.3 17.7 2.1 25.6-4.8 7.2-14 10.8-22.3 7.7-3.8-1.4-7.1-4.5-10.2-7.2-2.9-2.5-5.2-5.5-9-7.8v5.5c-.2 23.9.4 47.8-.7 71.6-1.3 27.4-24 47.7-51.5 47.7h-9c-9.8 0-18.5-7.5-19.9-17.1-1.4-10 4.8-19.7 14.9-22.1 4.2-1 8.8-.8 13.2-1 8.8-.5 12.5-4.2 12.5-12.9v-31.4c-3.3.6-5.9 1.4-8.6 1.5-13.1.5-26.1 1.1-39.2 1.1-47.4.1-94.8.2-142.2 0-8.4 0-16.8-1.3-25.5-2 0 11.1-.4 22.1.2 33 .4 7.2 4.3 10.4 12.2 10.5 15 .3 30.1.2 45.1.2 12.4 0 24.8-.2 37.1.1 10.9.2 18.8 7 20.4 17.2 1.5 9.4-4.5 18.8-14.4 22.1-1.9.7-4.1.8-6.2.8h-84.9c-24.7 0-48.2-21.2-49.2-46-1-24.4-.6-48.8-.8-73.2 0-2-.2-4-.4-7.6m40.6-36.6v17.7c.1 15.8 7.8 23.5 23.5 23.5h135.7c12.2 0 24.4.1 36.6 0 9.8-.1 17.7-5.2 18.8-13.9 1.1-8.9.3-18.2.3-27.3zM339 119.3c-5.6-5.5-11.4-11.1-17.1-16.8-6.1-6.2-8.3-13.6-5.4-21.9 2.5-7.3 7.9-11.6 15.5-12.9 7-1.2 13 1.3 17.9 6 10.5 10.2 21 20.6 31.1 31.1 9.4 9.7 9.2 20.8-.3 30.6q-14.85 15.15-30 30c-9.2 9-21.2 9.4-29.4 1.5-8.3-8.1-7.9-20.4 1-29.9 5.3-5.8 10.8-11.5 16.7-17.7m-166.4-.1c6.4 6.6 11.9 12.3 17.4 18 7.2 7.5 8.8 17.7 4.2 25.3-6.6 10.9-20.6 13.8-30.2 5-12.3-11.2-23.9-23.1-35.2-35.3-6.8-7.3-6.5-17.8.3-25.2 10.9-11.8 22.3-23.2 34-34.2 8.6-8 20.1-7.3 27.7.4 7.6 7.8 8.2 19.1.4 27.7-5.6 6.5-12.2 12.2-18.6 18.3m53.5 30.9c2-7 4.7-16.5 7.5-25.9 4.2-13.8 8.6-27.6 12.9-41.4 3.6-11.7 13.9-17.9 24.8-14.8 11.3 3.3 17 14 13.4 25.9-6.5 21.5-13 42.9-19.7 64.3-3.2 10.2-12.4 15.6-22.7 13.8-9.5-1.6-16.2-9.6-16.2-21.9"/></svg>