<svg xmlns="http://www.w3.org/2000/svg" xml:space="preserve" id="cachyos_svg__svg13595" x="0" y="0" version="1.1" viewBox="0 0 512 512"><style>.cachyos_svg__st0{fill:#0a8}.cachyos_svg__st1{fill:#0cf}</style><path id="cachyos_svg__path6337" d="m109 66.1 181.4 101.7 58.2-100.7z" class="cachyos_svg__st0"/><path id="cachyos_svg__path6372" d="m166.5 348.9-52.6 103.3H350l59.6-103.3z" class="cachyos_svg__st0"/><path id="cachyos_svg__path6473" d="m109 66.1 181.4 101.7H165.8l-51.9 89.9 52.6 91.2-52.6 103.3L0 255z" class="cachyos_svg__st1"/><linearGradient id="cachyos_svg__path5111_00000146495015780301282550000018430223835079232927_" x1="1828.449" x2="1723.143" y1="-1644.072" y2="-1842.479" gradientTransform="matrix(.2742 0 0 -.2742 -282.666 -370.143)" gradientUnits="userSpaceOnUse"><stop offset="0" style="stop-color:#020202"/><stop offset="1" style="stop-color:#020202;stop-opacity:0"/></linearGradient><path id="cachyos_svg__path5111" d="M290.4 167.8 109 66.1 95.2 91l137.5 76.3z" style="fill:url(#cachyos_svg__path5111_00000146495015780301282550000018430223835079232927_)"/><linearGradient id="cachyos_svg__path8399-8_00000144321869300716544580000008974861430359190156_" x1="2072.713" x2="1965.01" y1="-1971.78" y2="-1776.069" gradientTransform="matrix(.2742 0 0 -.2742 -284.784 -375.954)" gradientUnits="userSpaceOnUse"><stop offset="0" style="stop-color:#020202"/><stop offset="1" style="stop-color:#020202;stop-opacity:0"/></linearGradient><path id="cachyos_svg__path8399-8" d="M162.1 160.5 344.9 59.8l-58.2 100.7z" style="fill:url(#cachyos_svg__path8399-8_00000144321869300716544580000008974861430359190156_)"/><path id="cachyos_svg__path8399" d="M165.8 167.8 348.6 67.1l-58.2 100.7z" class="cachyos_svg__st0"/><path id="cachyos_svg__path8568" d="m0 255 165.8-87.1-51.9 89.9z" class="cachyos_svg__st0"/><linearGradient id="cachyos_svg__path11882_00000095314360108717523780000003882730430328665220_" x1="1395.75" x2="1312.594" y1="-2235.237" y2="-2083.206" gradientTransform="matrix(.2742 0 0 -.2742 -282.666 -370.143)" gradientUnits="userSpaceOnUse"><stop offset="0" style="stop-color:#020202"/><stop offset="1" style="stop-color:#020202;stop-opacity:0"/></linearGradient><path id="cachyos_svg__path11882" d="m0 255 165.8-87.1-11.2-17.5-142.9 82.8z" style="fill:url(#cachyos_svg__path11882_00000095314360108717523780000003882730430328665220_)"/><path id="cachyos_svg__path8467" d="M165.8 167.8 109 66.1l4.9 191.6z" class="cachyos_svg__st0"/><path id="cachyos_svg__path8916" d="m166.5 348.9 183.4 103.3 59.6-103.3z" class="cachyos_svg__st1"/><linearGradient id="cachyos_svg__path11629_00000129923436934646037080000010514639110217542322_" x1="1523.059" x2="1405.27" y1="-1941.005" y2="-1940.311" gradientTransform="matrix(.2742 0 0 -.2742 -282.666 -370.143)" gradientUnits="userSpaceOnUse"><stop offset="0" style="stop-color:#020202"/><stop offset="1" style="stop-color:#020202;stop-opacity:0"/></linearGradient><path id="cachyos_svg__path11629" d="M109 66.1 95.2 91l1.4 166 17.3.8z" style="fill:url(#cachyos_svg__path11629_00000129923436934646037080000010514639110217542322_)"/><path id="cachyos_svg__path12053" d="m113.9 257.8-87 43.6 86.9 150.9z" class="cachyos_svg__st0"/><linearGradient id="cachyos_svg__path13729_00000167364336771217619920000016262189774548740031_" x1="1359.453" x2="1487.342" y1="-2644.657" y2="-2644.502" gradientTransform="matrix(.2742 0 0 -.2742 -282.666 -370.143)" gradientUnits="userSpaceOnUse"><stop offset="0" style="stop-color:#020202"/><stop offset="1" style="stop-color:#020202;stop-opacity:0"/></linearGradient><path id="cachyos_svg__path13729" d="M113.9 257.8v194.5l21.3-41.6 1.6-114z" style="fill:url(#cachyos_svg__path13729_00000167364336771217619920000016262189774548740031_)"/><linearGradient id="cachyos_svg__path12347_00000131355495201358866580000014119265207526548889_" x1="1303.298" x2="1278.312" y1="-2405.634" y2="-2356.67" gradientTransform="matrix(.2742 0 0 -.2742 -282.666 -370.143)" gradientUnits="userSpaceOnUse"><stop offset="0" style="stop-color:#020202"/><stop offset="1" style="stop-color:#020202;stop-opacity:0"/></linearGradient><path id="cachyos_svg__path12347" d="m26.9 301.4 87-43.6-17.3-.8-75.4 36z" style="fill:url(#cachyos_svg__path12347_00000131355495201358866580000014119265207526548889_)"/><path id="cachyos_svg__path13027" d="M26.9 301.4 166.5 349l-52.6-91.2z" class="cachyos_svg__st0"/><linearGradient id="cachyos_svg__path13350_00000040546229063058984380000015938802277447058357_" x1="1441.321" x2="1370.702" y1="-2348.393" y2="-2577.752" gradientTransform="matrix(.2742 0 0 -.2742 -282.666 -370.143)" gradientUnits="userSpaceOnUse"><stop offset="0" style="stop-color:#020202"/><stop offset="1" style="stop-color:#020202;stop-opacity:0"/></linearGradient><path id="cachyos_svg__path13350" d="M166.5 348.9 26.9 301.4l15.2 26.2 114.7 41.7z" style="fill:url(#cachyos_svg__path13350_00000040546229063058984380000015938802277447058357_)"/><linearGradient id="cachyos_svg__path13525_00000116934592008954077970000004141245117371035790_" x1="1927.039" x2="1990.649" y1="-2889.25" y2="-2779.809" gradientTransform="matrix(.2742 0 0 -.2742 -282.666 -370.143)" gradientUnits="userSpaceOnUse"><stop offset="0" style="stop-color:#020202"/><stop offset="1" style="stop-color:#020202;stop-opacity:0"/></linearGradient><path id="cachyos_svg__path13525" d="m166.5 348.9 183.4 103.3 22-39.1-118-65.2z" style="fill:url(#cachyos_svg__path13525_00000116934592008954077970000004141245117371035790_)"/><circle id="cachyos_svg__path14992-9" cx="472.3" cy="310.3" r="39.2" class="cachyos_svg__st1"/><linearGradient id="cachyos_svg__path14992-9-0_00000022518824614120852700000001806637558037797812_" x1="3885.035" x2="3860.497" y1="-3121.827" y2="-3497.463" gradientTransform="matrix(.1676 0 0 -.1676 -175.186 -262.77)" gradientUnits="userSpaceOnUse"><stop offset="0" style="stop-color:#008066;stop-opacity:0"/><stop offset="1" style="stop-color:#0fc"/></linearGradient><circle id="cachyos_svg__path14992-9-0" cx="472.8" cy="309.9" r="39.2" style="fill:url(#cachyos_svg__path14992-9-0_00000022518824614120852700000001806637558037797812_)"/><circle id="cachyos_svg__path14992-9-7" cx="371.8" cy="227.8" r="29.8" class="cachyos_svg__st1"/><linearGradient id="cachyos_svg__path14992-9-0-5_00000028305147916287021010000011958049431672427684_" x1="4066.877" x2="4042.338" y1="-3327.64" y2="-3703.276" gradientTransform="matrix(.1273 0 0 -.1273 -142.81 -233.477)" gradientUnits="userSpaceOnUse"><stop offset="0" style="stop-color:#008066;stop-opacity:0"/><stop offset="1" style="stop-color:#0fc"/></linearGradient><circle id="cachyos_svg__path14992-9-0-5" cx="372.3" cy="227.5" r="29.8" style="fill:url(#cachyos_svg__path14992-9-0-5_00000028305147916287021010000011958049431672427684_)"/><circle id="cachyos_svg__path14992-9-28" cx="412" cy="112.9" r="15.3" class="cachyos_svg__st1"/><linearGradient id="cachyos_svg__path14992-9-0-9_00000018953009759954195480000004163428388715571879_" x1="7384.279" x2="7359.74" y1="-4285.117" y2="-4660.752" gradientTransform="matrix(.06552 0 0 -.06552 -70.377 -187.345)" gradientUnits="userSpaceOnUse"><stop offset="0" style="stop-color:#008066;stop-opacity:0"/><stop offset="1" style="stop-color:#0fc"/></linearGradient><circle id="cachyos_svg__path14992-9-0-9" cx="412.2" cy="112.7" r="15.3" style="fill:url(#cachyos_svg__path14992-9-0-9_00000018953009759954195480000004163428388715571879_)"/></svg>