<svg xmlns="http://www.w3.org/2000/svg" xml:space="preserve" viewBox="0 0 512 512"><path d="M460.8 0H51.2C22.9 0 0 22.9 0 51.2v409.6C0 489.1 22.9 512 51.2 512h409.6c28.3 0 51.2-22.9 51.2-51.2V51.2C512 22.9 489.1 0 460.8 0m-35.5 369-41 41c-1.5 1.5-3.5 2.2-5.4 2.2-2 0-3.9-.8-5.4-2.2l-.3-.3-20.2-20.3c-3-3-3-7.9 0-10.9s7.9-3 10.9 0l15 15 5.1-5.1 30.4-30.4c3-3 7.9-3 10.9 0s3 8 0 11M128 102.4h256v204.8c-42.4 0-76.8 34.4-76.8 76.8 0 9 1.6 17.6 4.4 25.6H128zM145.9 215c0-4.2 3.4-7.7 7.7-7.7h204.8c4.2 0 7.7 3.4 7.7 7.7s-3.4 7.7-7.7 7.7H153.6c-4.2 0-7.7-3.4-7.7-7.7m0-61.4c0-4.2 3.4-7.7 7.7-7.7h204.8c4.2 0 7.7 3.4 7.7 7.7 0 4.2-3.4 7.7-7.7 7.7H153.6c-4.2 0-7.7-3.5-7.7-7.7m0 122.9c0-4.2 3.4-7.7 7.7-7.7h204.8c4.2 0 7.7 3.4 7.7 7.7s-3.4 7.7-7.7 7.7H153.6c-4.2 0-7.7-3.5-7.7-7.7m143.4 61.4c0 4.2-3.4 7.7-7.7 7.7h-128c-4.2 0-7.7-3.4-7.7-7.7s3.4-7.7 7.7-7.7h128c4.2 0 7.7 3.5 7.7 7.7"/></svg>