<svg xmlns="http://www.w3.org/2000/svg" xml:space="preserve" viewBox="0 0 512 512"><path d="M458 512H56c-30.4 0-55-24.6-55-55V55C1 24.6 25.6 0 56 0h402c30.4 0 55 24.6 55 55v402c0 30.4-24.6 55-55 55" style="fill:#292929"/><path d="M162.8 347.3c-50.4 0-88.4-39.9-88.4-89.3s35.9-89.6 88.4-89.6c27.9 0 47 8.6 62.1 28l-24.3 20.1c-10.1-10.8-22.5-16.2-37.8-16.2-34.1 0-52.8 26.1-52.8 57.6s20.5 57.1 52.8 57.1c15.1 0 28-5.3 38.4-16.2l23.9 21c-14.5 18.9-34.3 27.5-62.3 27.5m166.4-131.2h32.7v128.1h-32.7v-18.7c-6.7 13.2-18.1 22.2-39.7 22.2-34.6 0-62.3-30.1-62.3-66.9 0-37 27.7-66.9 62.3-66.9 21.5 0 33 8.9 39.7 22.2zm1.1 64.5c0-20-13.8-36.6-35.4-36.6-20.8 0-34.4 16.7-34.4 36.6 0 19.4 13.6 36.6 34.4 36.6 21.4 0 35.4-16.7 35.4-36.6M385 164.3h32.7v179.6H385z" style="fill:#fff"/></svg>