<svg xmlns="http://www.w3.org/2000/svg" xml:space="preserve" viewBox="0 0 512 512"><path d="M300.9 71.4c.2.8-.6 1.5-1.4 1.2l-7-2.8c-.7-.3-1.4.2-1.4 1 .2 5 1.2 8 3.5 12 .3.5.1 1.2-.4 1.5-4.8 2.6-7.3 4.6-9.2 8.3-.4.7-1.3.8-1.8.2-7.9-10.3-10.4-21.9-10.9-31.4-.5-9.9-1-28.6 4.2-30.7 5-2 19.2 22.7 24.4 40.7m46.4 52.2c-1.3-.3-5.2-1.2-7.4-2.5-2.6-1.6 9.9-4.7 9.9-4.7 6.3-1.8 9.7-2.2 15.4-2.1.1 0 .3 0 .4.1 7.5 3.1 12.2 10.1 13.6 20.1.1.9-.8 1.5-1.6 1-1.5-.9-3.5-2-4.4-2h-14.4c-.1 0-.2 0-.4-.1-5.6-2.2-7.4-4.8-10.5-9.4-.1-.1-.3-.3-.6-.4m6.6-1.4c0 2.3 1.9 4.2 4.2 4.2s4.2-1.9 4.2-4.2-1.9-4.2-4.2-4.2-4.2 1.9-4.2 4.2m43.6 81.9c7.9 24.5 7.3 52.9 4.7 65.6-2.6 12.9-10.8 38.2-21.1 51.7-.1.2-.2.3-.2.5-6.6 60.3-5.8 80.9 2 98.2.1.2.2.3.4.4 16 11.1 23.4 17.6 28.3 30l7 20.4c.2.5-.1 1.1-.6 1.3-67 30.1-104.1 38.2-172.4 28.7h-.4C185 516 128.4 516.5 97.8 497.3c-30.7-19.2-38.4-40.5-37.4-57.1 1-16.5 9.7-37.3 29.7-53.2.2-.2.4-.5.4-.8.1-58.7 28.2-116.5 64.4-153.3s42.4-36.8 74-67.8c.2-.2.3-.5.3-.7.5-29.8 4.6-44.3 17-66.8.1-.2.1-.4.1-.6-4.2-47.1 10.4-95.3 22.9-96.8 12.4-1.5 41.7 21.1 59.4 40.7.2.2.5.4.9.3 11.9-1.1 18.7-1.3 29.4 0 .5.1.9-.2 1.1-.6 2.1-5.2 1.8-7.1 14.8-19.5C388.3 8.1 406 .8 415.3 4c9.4 3.1 11.9 20.3 10.9 42.6-1 22.1-2.9 30-7.2 43.8-.1.2-.1.5.1.8 6.5 14.1 2.4 30.3 3.5 37 1 6.8 27.3 18.5 29.1 34.3s-30.1 35.8-33.3 37.4c-2.9 1.5-11.7 3-19.8 3.1-.8-.3-1.3.4-1.1 1.1M377.6 50l14 10.7c.4.3 1.1.3 1.4-.2l6.4-7.8c.7-.8 2.1-.2 1.9.9-1 5.3-1.1 9.2-.7 15.1 0 .2.1.5.3.6l4.1 4.5c.6.6 1.6.3 1.8-.5 5.3-23.6 8.2-54.3 2.2-56.8-6.1-2.6-21.6 16.9-31.7 31.9-.3.7-.2 1.3.3 1.6m-3.9 378.2c-4.1-3.2-3.6-11.4-5.2-17.7-1.5-6.1-8-41.4-4.5-73.4.1-.9-.9-1.5-1.7-1-6.7 5.1-28 21.6-29.7 25.5-2.1 4.7 7.8 64.4 10.9 70.7 3.1 6.2 9.9 12.5 14.5 18.2 4.4 5.3 5.3 8 6.1 11.7.1.5.5.8 1 .8 9 .3 12.6-.1 17.4-1.3.6-.1.9-.7.8-1.2L381 451c-.3-1.2 1.5-1.8 2-.6l4 9.5q.3.6.9.6c3.4 0 5.7-.1 9.5-2 .1-.1.3-.2.4-.3 2.5-3.6-1.1-10.1-2.7-13.3-1.8-3.3-17.3-13.5-21.4-16.7m-29.9-242.1c18.9-2.9 39 2 68.6 7.1 1.2.2 1.7-1.5.5-1.9L384.6 181c-1.2-.4-.7-2.2.5-2l22.3 4c12 2.1 17.2.9 23-5.7.4-.5.3-1.3-.3-1.6-6.5-3.3-8.7-6.2-9.2-12.8v-.2c.7-5.3 2.8-7.6 9.1-9.2.9-.2 1.2-1.5.3-2.1-13.5-8.7-24.1-24.7-24.1-28.7 0-4.2 2.6-7.3 4.2-21.3 1.5-13.9-36-53.1-76.5-52.5-.7 0-1.2.7-.9 1.4 3.6 10.6 4 14.7 2.3 20.6-.2.8-1.3 1-1.8.3C316 45.7 289.2 18.8 277 15.3c-12.3-3.6-28.5 54.7-10.2 89.9.4.7-.1 1.6-.9 1.6h-6.5c-.3 0-.7.2-.9.5-13.6 19.8-15 35.4-13.2 65.5 0 .3-.1.7-.4.9-57 44.6-86.9 64.7-114.4 114-27.4 49.1-25.3 64.1-25.5 110 0 .4-.2.8-.6 1-7 3.1-9 4.6-17.6 12.2-8.8 7.8-16.6 37.4-1 56.1s39.5 30.7 66.5 32.2c27 1.6 23.9 1 34.3.5s65.5-16.6 75.3-18.7c9.9-2.1 14.5-2.6 28.6-2.6s-30.1-45.7-56.6-57.7c-22.8-10.3-80.6-19.8-111.9-16.3-1.3.1-2.2-2.5-1-3 27.2-11.2 62.7-11.7 111.8 6 .6.2 1.2-.1 1.4-.7 11.4-36.9 15.6-57.2-13.3-81.1-15.8-11.9-37.8-8.2-67.6 6.4-1.1.5-2.1-.9-1.1-1.7 33.6-27.5 59.6-29.6 90.3-5.8.6.5 1.5.2 1.7-.6l9.1-36.9c.3-1.2 2.1-1 2.1.3-.5 14.9-1.1 41.2.4 46 2.1 6.8 31.2 100.3 36.4 107 5.2 6.8 11.4 14.6 15.1 24.4 1.6 3.5 3 4.9 6.1 6.7.1.1.2.1.3.1 7.5 1.4 11.7 1.4 18.4.2.6-.1 1-.7.8-1.3l-2.3-6.8c-.4-1.2 1.2-1.9 1.9-.9l4.7 7.9c.2.3.4.5.8.5 3.6.5 5.9.3 9.5-1.2.5-.2.8-.8.5-1.4l-2.9-6.6c-.5-1.1.9-2 1.7-1.1l3.6 3.8c.7.7 1.9.2 1.7-.8-1.9-9.8-7.8-16.2-25.7-26.8-.2-.1-.4-.3-.5-.6-1.4-4.3-14.9-48.5-14.4-77.6.5-28.7 16.4-40.4 21.9-67.4.2-1.1 1.9-1.2 2.1 0 2.3 15.2.3 28.7-8.3 51.1-.4.9.6 1.8 1.5 1.3 30.6-18.9 54.7-54.4 57.2-65.5 2.6-11.4 6-45.7-5.6-79.1-.1-.2-.3-.4-.5-.6-9.6-5.4-18.3-7.8-35.7-10.4-1.4-.5-1.4-2-.3-2.1" style="fill:#fff"/><path d="M362.3 122.2c0 2.3-1.9 4.2-4.2 4.2s-4.2-1.9-4.2-4.2 1.9-4.2 4.2-4.2 4.2 1.9 4.2 4.2m68.2 55c-5.8 6.6-11.1 7.9-23 5.7l-22.3-4c-1.3-.2-1.7 1.6-.5 2l28.3 10.3c1.2.4.7 2.1-.5 1.9-29.6-5.1-49.7-9.9-68.6-7.1-1.1.2-1.1 1.7 0 1.8 17.4 2.6 26.1 5 35.7 10.4.2.1.4.3.5.6 11.6 33.4 8.2 67.7 5.6 79.1-2.5 11.1-26.6 46.6-57.2 65.5-.8.5-1.8-.3-1.5-1.3 8.6-22.4 10.7-35.9 8.3-51.1-.2-1.2-1.8-1.1-2.1 0-5.5 27-21.4 38.7-21.9 67.4-.5 29.1 13.1 73.3 14.4 77.6.1.2.2.4.5.6 17.9 10.7 23.7 17.1 25.7 26.8.2 1-1 1.5-1.7.8l-3.6-3.8c-.8-.8-2.2.1-1.7 1.1l2.9 6.6c.2.5 0 1.1-.5 1.4-3.6 1.5-5.9 1.7-9.5 1.2-.3 0-.6-.2-.8-.5l-4.7-7.9c-.6-1.1-2.3-.3-1.9.9l2.3 6.8c.2.6-.2 1.2-.8 1.3-6.7 1.2-10.9 1.2-18.4-.2-.1 0-.2-.1-.3-.1-3-1.8-4.4-3.2-6.1-6.7-3.7-9.9-9.9-17.7-15.1-24.4-5.2-6.8-34.3-100.3-36.4-107-1.5-4.8-.9-31-.4-46 0-1.3-1.8-1.5-2.1-.3l-9.1 36.9c-.2.7-1.1 1-1.7.6-30.7-23.8-56.7-21.8-90.3 5.8-1 .8 0 2.2 1.1 1.7 29.8-14.7 51.8-18.4 67.6-6.4 28.9 23.9 24.7 44.2 13.3 81.1-.2.6-.8.9-1.4.7-49.1-17.7-84.6-17.2-111.8-6-1.2.5-.3 3.2 1 3 31.3-3.5 89.1 6 111.9 16.3 26.5 11.9 70.7 57.7 56.6 57.7-14 0-18.7.5-28.6 2.6s-64.9 18.2-75.3 18.7-7.3 1-34.3-.5c-27-1.6-50.9-13.5-66.5-32.2s-7.8-48.3 1-56.1c8.6-7.6 10.6-9.1 17.6-12.2.4-.2.6-.5.6-1 .2-45.9-1.9-60.9 25.5-110 27.5-49.2 57.4-69.4 114.4-114 .3-.2.4-.6.4-.9-1.8-30.1-.4-45.7 13.2-65.5.2-.3.5-.5.9-.5h6.5c.8 0 1.3-.9.9-1.6-18.3-35.2-2.1-93.5 10.2-89.9 12.2 3.6 39 30.4 56.5 55.9.5.7 1.6.6 1.8-.3 1.7-5.9 1.3-10-2.3-20.6-.2-.7.3-1.4.9-1.4 40.5-.6 78.1 38.6 76.5 52.5-1.6 14-4.2 17.1-4.2 21.3 0 3.9 10.6 20 24.1 28.7.8.5.6 1.8-.3 2.1-6.3 1.6-8.5 3.8-9.1 9.2v.2c.5 6.6 2.7 9.5 9.2 12.8.9.6 1 1.4.6 1.9M300.9 71.4c-5.2-17.9-19.4-42.6-24.4-40.6-5.2 2.1-4.7 20.8-4.2 30.7.5 9.5 3 21 10.9 31.4.5.6 1.4.5 1.8-.2 1.9-3.7 4.3-5.8 9.2-8.3.5-.3.7-1 .4-1.5-2.4-4.1-3.3-7-3.5-12 0-.7.7-1.3 1.4-1l7 2.8c.9.2 1.7-.5 1.4-1.3m78.3 63.2c-1.4-10-6.1-17-13.6-20.1-.1 0-.2-.1-.4-.1-5.7-.1-9.1.3-15.4 2.1 0 0-12.5 3.1-9.9 4.7 2.1 1.3 6.1 2.2 7.4 2.5.3.1.5.2.7.5 3 4.6 4.9 7.3 10.5 9.4.1 0 .2.1.4.1h14.4c.9 0 2.9 1.1 4.4 2 .6.3 1.6-.3 1.5-1.1m12.4-73.8c.4.3 1.1.3 1.4-.2l6.4-7.8c.7-.8 2.1-.2 1.9.9-1 5.3-1.1 9.2-.7 15.1 0 .2.1.5.3.6l4.1 4.5c.6.6 1.6.3 1.8-.5 5.3-23.6 8.2-54.3 2.2-56.8-6.1-2.6-21.6 16.9-31.7 31.9-.3.5-.2 1.1.2 1.4zm-17.9 367.4c-4.1-3.2-3.6-11.4-5.2-17.7-1.5-6.1-8-41.4-4.5-73.4.1-.9-.9-1.5-1.7-1-6.7 5.1-28 21.6-29.7 25.5-2.1 4.7 7.8 64.4 10.9 70.7 3.1 6.2 9.9 12.5 14.5 18.2 4.4 5.3 5.3 8 6.1 11.7.1.5.5.8 1 .8 9 .3 12.6-.1 17.4-1.3.6-.1.9-.7.8-1.2L381 451c-.3-1.2 1.5-1.8 2-.6l4 9.5q.3.6.9.6c3.4 0 5.7-.1 9.5-2 .1-.1.3-.2.4-.3 2.5-3.6-1.1-10.1-2.7-13.3-1.8-3.3-17.3-13.5-21.4-16.7" style="opacity:.3;fill:#fff"/></svg>