<?xml version="1.0" encoding="utf-8"?>
<!-- Generator: Adobe Illustrator 28.2.0, SVG Export Plug-In . SVG Version: 6.00 Build 0)  -->
<svg version="1.1" id="Layer_1" xmlns="http://www.w3.org/2000/svg" xmlns:xlink="http://www.w3.org/1999/xlink" x="0px" y="0px"
	 viewBox="0 0 512 512" style="enable-background:new 0 0 512 512;" xml:space="preserve">
<style type="text/css">
	.st0{fill-rule:evenodd;clip-rule:evenodd;fill:#5B757B;}
	.st1{fill-rule:evenodd;clip-rule:evenodd;fill:#4D1E00;}
	.st2{fill-rule:evenodd;clip-rule:evenodd;fill:url(#rect5967_00000134245202438652978230000017404838283604710797_);}
	.st3{fill-rule:evenodd;clip-rule:evenodd;fill:url(#rect5979_00000053530585474911673500000015406062435785460888_);}
	.st4{fill-rule:evenodd;clip-rule:evenodd;fill:url(#rect6739_00000018221149486555413880000013998014077617257864_);}
	.st5{fill-rule:evenodd;clip-rule:evenodd;fill:url(#rect6749_00000038391400251738417850000014156578547675751837_);}
	.st6{fill-rule:evenodd;clip-rule:evenodd;fill:#79ABFF;}
	.st7{fill-rule:evenodd;clip-rule:evenodd;fill:#0C13BA;stroke:#000000;stroke-width:1.126;}
	.st8{fill-rule:evenodd;clip-rule:evenodd;fill:#D6B865;}
	
		.st9{fill-rule:evenodd;clip-rule:evenodd;fill:url(#yellow_book_bottom_cap_00000060745778570205320830000003126673336150187907_);}
	.st10{fill-rule:evenodd;clip-rule:evenodd;fill:url(#yellow_book_top_cap_00000089551783521932352030000008227305444715929262_);}
</style>
<path id="rect6055" class="st0" d="M134.7,60.2h94.7c4.2,0,7.6,3.4,7.6,7.6V501c0,4.2-3.4,7.6-7.6,7.6h-94.7c-4.2,0-7.6-3.4-7.6-7.6
	V67.9C127.1,63.7,130.5,60.2,134.7,60.2z"/>
<path id="rect4136" class="st1" d="M11,13.6h103c5.7,0,10.4,4.7,10.4,10.4v474.2c0,5.7-4.7,10.4-10.4,10.4H11
	c-5.7,0-10.4-4.7-10.4-10.4V24C0.6,18.3,5.3,13.6,11,13.6z"/>
<linearGradient id="rect5967_00000019653476257659540340000006757949180192083611_" gradientUnits="userSpaceOnUse" x1="62.4792" y1="422.1023" x2="62.4792" y2="441.1637" gradientTransform="matrix(1.0109 0 0 -0.9972 -0.6339 484.2354)">
	<stop  offset="0" style="stop-color:#000001;stop-opacity:0"/>
	<stop  offset="0.5" style="stop-color:#000000"/>
	<stop  offset="1" style="stop-color:#000000;stop-opacity:0"/>
</linearGradient>
<rect id="rect5967" x="0.1" y="43.9" style="fill-rule:evenodd;clip-rule:evenodd;fill:url(#rect5967_00000019653476257659540340000006757949180192083611_);" width="124.8" height="19.8"/>
<linearGradient id="rect5979_00000065044305636110184350000011399874124008204722_" gradientUnits="userSpaceOnUse" x1="62.4649" y1="749.9398" x2="62.4649" y2="769.0012" gradientTransform="matrix(1 0 0 -1 -0.7143 1223.495)">
	<stop  offset="0" style="stop-color:#000001;stop-opacity:0"/>
	<stop  offset="0.5" style="stop-color:#000000"/>
	<stop  offset="1" style="stop-color:#000000;stop-opacity:0"/>
</linearGradient>
<rect id="rect5979" y="454.1" style="fill-rule:evenodd;clip-rule:evenodd;fill:url(#rect5979_00000065044305636110184350000011399874124008204722_);" width="123.5" height="19.9"/>
<radialGradient id="rect6739_00000035507997346135961000000002051256797639153831_" cx="256.4919" cy="123.0544" r="62.1472" gradientTransform="matrix(1.7457 -4.363750e-03 -3.809488e-04 -8.945640e-02 -265.6426 121.9295)" gradientUnits="userSpaceOnUse">
	<stop  offset="0" style="stop-color:#FFFFFF"/>
	<stop  offset="1" style="stop-color:#5B757B;stop-opacity:0"/>
</radialGradient>
<rect id="rect6739" x="126.7" y="104.2" style="fill-rule:evenodd;clip-rule:evenodd;fill:url(#rect6739_00000035507997346135961000000002051256797639153831_);" width="110.8" height="11.1"/>
<radialGradient id="rect6749_00000145755880940686965740000015702691209696535169_" cx="256.5386" cy="3260.8979" r="62.1479" gradientTransform="matrix(1.7332 -4.363750e-03 -3.782180e-04 -8.945640e-02 -261.3272 754.0723)" gradientUnits="userSpaceOnUse">
	<stop  offset="0" style="stop-color:#FFFFFF"/>
	<stop  offset="1" style="stop-color:#5B757B;stop-opacity:0"/>
</radialGradient>
<rect id="rect6749" x="127.1" y="455.7" style="fill-rule:evenodd;clip-rule:evenodd;fill:url(#rect6749_00000145755880940686965740000015702691209696535169_);" width="110" height="11.1"/>
<path id="rect6835" class="st6" d="M335.5,184.6l106.2-19.1c4.1-0.7,8,2,8.8,6l61.3,309.2c0.8,4.1-1.8,7.9-5.9,8.7l-106.2,19.1
	c-4.1,0.7-8-2-8.8-6l-61.3-309.2C328.8,189.2,331.5,185.3,335.5,184.6z"/>
<path id="path7563" class="st7" d="M404.5,337.7l10.3-22.3l17.1,17.7l-27.5-160.4l-27.3,4.7L404.5,337.7z"/>
<path id="yellow_book" class="st8" d="M298.3,3.4c-0.5,0-0.9,0-1.4,0l-59,7.6c-3.8,0.5-6.5,4-6.1,7.8l62,483.6
	c0.5,3.8,4,6.5,7.8,6.1l59-7.6c3.8-0.5,6.5-4,6.1-7.8l-62-483.6C304.2,6.2,301.5,3.7,298.3,3.4z"/>
<radialGradient id="yellow_book_bottom_cap_00000067210203405045575870000003941346658015701174_" cx="552.6803" cy="-34.3835" r="22.8391" gradientTransform="matrix(11.8987 -1.7401 -0.1084 -0.7412 -6250.3247 1426.9666)" gradientUnits="userSpaceOnUse">
	<stop  offset="0" style="stop-color:#601A22"/>
	<stop  offset="0.867" style="stop-color:#45181D"/>
	<stop  offset="1" style="stop-color:#A13642;stop-opacity:0"/>
</radialGradient>
<path id="yellow_book_bottom_cap" style="fill-rule:evenodd;clip-rule:evenodd;fill:url(#yellow_book_bottom_cap_00000067210203405045575870000003941346658015701174_);" d="
	M298.3,3.4c-0.5,0-0.9,0-1.4,0l-59,7.6c-3.8,0.5-6.5,4-6.1,7.8l62,483.6c0.5,3.8,4,6.5,7.8,6.1l59-7.6c3.8-0.5,6.5-4,6.1-7.8
	l-62-483.6C304.2,6.2,301.5,3.7,298.3,3.4z"/>
<radialGradient id="yellow_book_top_cap_00000035530360213313751620000007186379020522021790_" cx="549.8525" cy="596.8152" r="22.8391" gradientTransform="matrix(10.9003 -1.568 -0.1067 -0.7415 -5659.7622 1325.807)" gradientUnits="userSpaceOnUse">
	<stop  offset="0" style="stop-color:#601A22"/>
	<stop  offset="0.867" style="stop-color:#45181D"/>
	<stop  offset="1" style="stop-color:#A13642;stop-opacity:0"/>
</radialGradient>
<path id="yellow_book_top_cap" style="fill-rule:evenodd;clip-rule:evenodd;fill:url(#yellow_book_top_cap_00000035530360213313751620000007186379020522021790_);" d="
	M298.3,3.4c-0.5,0-0.9,0-1.4,0l-59,7.6c-3.8,0.5-6.5,4-6.1,7.8l62,483.6c0.5,3.8,4,6.5,7.8,6.1l59-7.6c3.8-0.5,6.5-4,6.1-7.8
	l-62-483.6C304.2,6.2,301.5,3.7,298.3,3.4z"/>
</svg>
