<svg xmlns="http://www.w3.org/2000/svg" xml:space="preserve" viewBox="0 0 512 512"><path d="M174.4 33.6c45.1-44.8 118.1-44.8 163.2 0 2.6 2.5 5 5.2 7.2 7.9 3.5-.3 7.1-.5 10.7-.5 63.6.2 115.2 51.8 115.4 115.4 0 3.6-.1 7.2-.5 10.7 2.7 2.3 5.3 4.7 7.9 7.2 44.8 45.1 44.8 118.1 0 163.2-2.5 2.6-5.2 5-7.9 7.2.3 3.5.5 7.1.5 10.7-.2 63.6-51.8 115.2-115.4 115.4-3.6 0-7.2-.1-10.7-.5-2.3 2.7-4.7 5.3-7.2 7.9-45.1 44.8-118.1 44.8-163.2 0-2.6-2.5-5-5.2-7.2-7.9-3.5.3-7.1.5-10.7.5-63.6 0-115.3-51.7-115.5-115.2 0-3.6.1-7.2.5-10.7-2.7-2.3-5.3-4.7-7.9-7.2-44.8-45.1-44.8-118.1 0-163.2 2.5-2.6 5.2-5 7.9-7.2-.3-3.5-.5-7.1-.5-10.7C41.2 92.9 92.9 41.2 156.5 41c3.6 0 7.2.1 10.7.5 2.2-2.7 4.6-5.3 7.2-7.9m-25.3 37.9c-41 3.7-73.9 36.5-77.5 77.5 23.2-9.5 48.9-11 72.9-4.6-6.5-24-4.9-49.7 4.6-72.9m41.2 97.4c-22.5-26.9-25.6-64.4-9.4-94.3 32.6 9.6 56.9 38.4 60 73.3-.2 2.6-.3 5.3-.3 8l.2 63.4-44.7-45c-1.9-1.8-3.8-3.6-5.8-5.4m-21.4 21.4c-26.9-22.5-64.4-25.6-94.3-9.4 9.6 32.6 38.4 56.9 73.3 60 2.6-.2 5.3-.3 8-.3l63.4.2-45-44.7c-1.8-1.9-3.6-3.8-5.4-5.8M98.2 256c-21.5-12.5-38.6-31.7-48.3-54.8-26.4 31.6-26.4 78 0 109.7 9.7-23.2 26.8-42.4 48.3-54.9m-23.6 75.1c9.6-32.6 38.4-56.9 73.3-60 2.6.2 5.3.3 8 .3l63.4-.2-45 44.7c-1.9 1.9-3.7 3.8-5.5 5.8-26.8 22.5-64.3 25.7-94.2 9.4m-3.1 31.8c3.7 41 36.5 73.9 77.5 77.5-9.5-23.2-11-48.9-4.6-72.9-24 6.5-49.7 4.9-72.9-4.6m118.8-19.8c-22.5 26.9-25.6 64.4-9.4 94.3 32.6-9.6 56.9-38.4 60-73.3-.2-2.6-.3-5.3-.3-8l.2-63.4-44.7 45c-1.9 1.8-3.8 3.6-5.8 5.4m65.7 70.7c-12.5 21.5-31.7 38.6-54.8 48.3 31.6 26.4 78 26.4 109.7 0-23.2-9.7-42.4-26.8-54.9-48.3m75.1 23.6c-32.6-9.6-56.9-38.4-60-73.3.2-2.6.3-5.3.3-8l-.2-63.4 44.7 45c1.9 1.9 3.8 3.7 5.8 5.5 22.5 26.8 25.7 64.3 9.4 94.2m31.8 3.1c41-3.7 73.9-36.5 77.5-77.5-23.2 9.5-48.9 11-72.9 4.6 6.5 24 4.9 49.7-4.6 72.9m-19.8-118.8c26.9 22.5 64.4 25.6 94.3 9.4-9.6-32.6-38.4-56.9-73.3-60-2.6.2-5.3.3-8 .3l-63.4-.2 45 44.7c1.8 1.9 3.6 3.8 5.4 5.8m70.7-65.7c21.5 12.5 38.6 31.7 48.3 54.8 26.4-31.6 26.4-78 0-109.7-9.7 23.2-26.8 42.4-48.3 54.9m23.6-75.1c-9.6 32.6-38.4 56.9-73.3 60-2.6-.2-5.3-.3-8-.3l-63.4.2 45-44.7c1.9-1.9 3.7-3.8 5.5-5.8 26.8-22.5 64.3-25.7 94.2-9.4m3.1-31.8c-3.7-41-36.5-73.9-77.5-77.5 9.5 23.2 11 48.9 4.6 72.9 24-6.5 49.7-4.9 72.9 4.6m-118.8 19.8c22.5-26.9 25.6-64.4 9.4-94.3-32.6 9.6-56.9 38.4-60 73.3.2 2.6.3 5.3.3 8l-.2 63.4 44.7-45c1.9-1.8 3.8-3.6 5.8-5.4M256 98.2c-12.5-21.5-31.7-38.6-54.8-48.3 31.6-26.4 78-26.4 109.7 0-23.2 9.7-42.4 26.8-54.9 48.3" style="fill-rule:evenodd;clip-rule:evenodd;fill:#fff"/></svg>