<svg xmlns="http://www.w3.org/2000/svg" xml:space="preserve" id="capacitor-runtime-dark_svg__Layer_1" x="0" y="0" version="1.1" viewBox="0 0 512 512"><style>.capacitor-runtime-dark_svg__st0{opacity:.6}</style><path d="m281 309.8 122 122.1-79.1 79.2L201.7 389 78.9 512 0 432.8l122.6-123L.6 187.4l79.1-79.2zL201.7 389l30.5 30.4zM512 79 432.9 0 310 122.8 187.8.6l-79.1 79.2 122 122.1 48.8-109.6 30.5 30.4-79.3 79.3L432 403.5l79.1-79.2-122-122.3z" class="capacitor-runtime-dark_svg__st0"/><path d="m230.7 202-122-122.1L187.8.7 310 122.8l-30.5-30.4zl79.3-79.2zM281 309.8l-48.8 109.6-30.5-30.4 122.2 122.1 79.1-79.2z" class="capacitor-runtime-dark_svg__st0"/><path d="M281 309.8 201.7 389l30.5 30.4zM230.7 202l79.3-79.2-30.5-30.4z"/></svg>