<svg xmlns="http://www.w3.org/2000/svg" xml:space="preserve" viewBox="0 0 512 512"><path d="M57 34.8c67.4-4.4 135-7.1 202.6-5.3 48.2 1.6 96.6 4.8 143.9 14.5 26.7 5.9 53.7 13.4 77 28.1 14 9 27.6 21.7 30.6 38.8 3.7 19.9-4.5 39.4-14.5 56.2-18.7 30.1-44.1 55.3-70.2 78.9-32.9 29.2-68 55.9-103.9 81.3-35.3 24.5-70.7 48.9-106.6 72.4-45.8 29.4-92.7 57.2-140.4 83.4H10.6c33.1-23 64.3-48.7 94.8-75.1 37.6-32.5 74.1-66.3 109.8-100.9 7-6.7 14.5-13 19.7-21.2 17-23.8 32.7-51.3 31.9-81.5-.5-20.7-11.7-39.7-27-52.9-25.2-21.6-57.3-32.6-88.9-41-31.9-8.1-64.6-12.6-97.3-16.1-17.9-1-35.7-3.5-53.6-3.6V39.3c18.9-2.3 38-3.1 57-4.5" style="fill:#fff"/></svg>