<svg xmlns="http://www.w3.org/2000/svg" xml:space="preserve" viewBox="0 0 512 512"><path d="M220.2 512c0-.2 3.1-5 7-10.3 16.5-22.9 22.1-34.1 26.8-54.2 4.9-20.2 6.2-45.3 3.1-61.1-5.7-30.8-25.5-63.8-60.7-101.6-39.2-42.1-69.9-84.6-87.1-120.5-6.8-14.4-10.4-24.6-12.5-36.7-1.9-11.6-1.9-16.3 0-26.4 5.1-24.7 21-40 49.4-47.6 22-5.7 26.8-6.2 79.2-6.3 52.6-.1 54.2-.2 54.9-5.6.9-5.9-15.9-18.4-43.2-32.6-9.2-4.7-16.9-8.8-17.2-9.2-1.3-1.2 50.2 6.2 63.6 9.2 27.8 6.2 64.8 22.2 90 38.8 16.5 10.8 33.2 28 39.3 40.3 4.5 9.2 5.3 20.1 1.5 27-4.1 7.9-12 11.5-26.2 11.5-14.6 0-41-5.7-69-15-48.8-16.1-65.4-20.1-83.2-20.1-13.4 0-19.9 1.4-26.2 5.5-15.9 10.8-15.1 42.3 1.9 73.6 6.8 12.7 13.5 22.3 25.2 36.1 17.7 21.2 45.9 60.5 56.6 78.9 6.1 10.4 11.2 22.3 14.7 34.3 5.2 17.2 5.9 23.1 5.9 47.4 0 20.1-.2 23.4-2.4 31.7-9.6 35.9-36.4 70.1-84.9 107.9-3.4 3.1-6.5 5.3-6.5 5" style="fill:#ed5b26"/><path d="M314.4 437.4c.6-1.1 3.5-7.2 6.4-13.5 12.7-26.6 15.5-34.2 19.4-54.1 2.5-12.4 2.8-15.9 2.8-38.5.1-24.2 0-25.3-2.8-35.2-5-17.6-15-36.3-29.3-53.8-3.5-4.3-14.6-16.2-24.7-26.5-33.2-34.1-42.9-47.7-47.9-66.8-3.8-14.7-2.1-22.2 6.6-30.1 6.2-5.6 10.9-7 24.2-6.4 12 .4 16.5 2.3 29.6 12 33.3 24.8 65.1 76.1 75.2 121.6 3.2 15 3.2 42.3 0 61.8-5.2 30.4-13.1 55.8-24 76.6-6.2 11.7-27.7 45-33.3 51.6-1.8 1.9-2.6 2.6-2.2 1.3" style="fill:#f59120"/><path d="M394.7 284.3c1.9-6.7 4-26.8 4-38.8 0-10.4-.4-15.6-2.2-21.7-3.1-11.7-13.2-31.2-23.1-44.8-14.7-20-18-27-14.9-32.9 1-1.9 3.1-3.9 5.3-4.9 3.4-1.4 4-1.3 9.2 1.1 10.5 4.9 20.6 12.5 25.3 19.3 5.9 8.4 13 23.8 15.5 33.3 2.6 10.4 2.5 30 0 39.6-2.6 9.6-12.9 40.1-15.8 46.6-2.7 5.6-4.5 7.5-3.3 3.2" style="fill:#f2e713"/></svg>