<?xml version="1.0" encoding="utf-8"?>
<!-- Generator: Adobe Illustrator 28.2.0, SVG Export Plug-In . SVG Version: 6.00 Build 0)  -->
<svg version="1.1"
	 id="svg8" xmlns:dc="http://purl.org/dc/elements/1.1/" xmlns:sodipodi="http://sodipodi.sourceforge.net/DTD/sodipodi-0.dtd" xmlns:cc="http://creativecommons.org/ns#" xmlns:rdf="http://www.w3.org/1999/02/22-rdf-syntax-ns#" xmlns:svg="http://www.w3.org/2000/svg" xmlns:inkscape="http://www.inkscape.org/namespaces/inkscape" sodipodi:docname="drawing.svg"
	 xmlns="http://www.w3.org/2000/svg" xmlns:xlink="http://www.w3.org/1999/xlink" x="0px" y="0px" viewBox="0 0 512 512"
	 style="enable-background:new 0 0 512 512;" xml:space="preserve">
<style type="text/css">
	.st0{fill:#ED5B26;}
	.st1{fill:#F59120;}
	.st2{fill:#F2E713;}
</style>
<path id="path848" inkscape:connector-curvature="0" class="st0" d="M235.5,511.5c0.7-0.2,1.7-0.2,2.4,0c0.7,0.2,0.1,0.5-1.2,0.5
	C235.4,511.9,234.8,511.7,235.5,511.5L235.5,511.5z M225.1,510.5c0.7-0.2,1.5-0.2,1.7,0.1c0.3,0.3-0.2,0.5-1.3,0.5
	C224.7,511,224.4,510.7,225.1,510.5L225.1,510.5z M217.7,509.5c0.7-0.2,1.5-0.2,1.7,0.1c0.3,0.3-0.2,0.5-1.3,0.5
	C217.1,510,217,509.8,217.7,509.5L217.7,509.5z M211.1,508.5c0.7-0.2,1.5-0.2,1.7,0.1c0.3,0.3-0.2,0.5-1.3,0.5
	C210.5,509.2,210.3,508.8,211.1,508.5L211.1,508.5z M223.5,463.6c0-0.2,2.8-4.5,6.3-9.3c14.9-20.7,20-30.9,24.3-49.1
	c4.4-18.3,5.6-41,2.8-55.3c-5.2-27.9-23.1-57.8-55-92c-35.5-38.1-63.3-76.6-78.9-109.1c-6.2-13-9.4-22.3-11.3-33.2
	c-1.7-10.5-1.7-14.8,0-23.9c4.6-22.4,19-36.2,44.7-43.1c19.9-5.2,24.3-5.6,71.7-5.7c47.6-0.1,49.1-0.2,49.7-5.1
	c0.8-5.3-14.4-16.7-39.1-29.5c-8.3-4.3-15.3-8-15.6-8.3c-1.2-1.1,45.5,5.6,57.6,8.3c25.2,5.6,58.7,20.1,81.5,35.1
	c14.9,9.8,30.1,25.4,35.6,36.5c4.1,8.3,4.8,18.2,1.4,24.5c-3.7,7.2-10.9,10.4-23.7,10.4c-13.2,0-37.1-5.2-62.5-13.6
	C268.8,86.6,253.8,83,237.6,83c-12.1,0-18,1.3-23.7,5c-14.4,9.8-13.7,38.3,1.7,66.7c6.2,11.5,12.2,20.2,22.8,32.7
	c16,19.2,41.6,54.8,51.3,71.5c5.5,9.4,10.1,20.2,13.3,31.1c4.7,15.6,5.3,20.9,5.3,42.9c0,18.2-0.2,21.2-2.2,28.7
	c-8.5,32.3-32.8,63.3-76.7,97.5C226.3,461.9,223.5,463.9,223.5,463.6L223.5,463.6z"/>
<path id="path850" inkscape:connector-curvature="0" class="st1" d="M308.8,396.1c0.5-1,3.2-6.5,5.8-12.2c11.5-24.1,14-31,17.6-49
	c2.3-11.2,2.5-14.4,2.5-34.9c0.1-21.9,0-22.9-2.5-31.9c-4.5-15.9-13.6-32.9-26.5-48.7c-3.2-3.9-13.2-14.7-22.4-24
	c-30.1-30.9-38.9-43.2-43.4-60.5c-3.4-13.3-1.9-20.1,6-27.3c5.6-5.1,9.9-6.3,21.9-5.8c10.9,0.4,14.9,2.1,26.8,10.9
	c30.2,22.5,59,68.9,68.1,110.1c2.9,13.6,2.9,38.3,0,56c-4.7,27.5-11.9,50.5-21.7,69.4c-5.6,10.6-25.1,40.8-30.2,46.7
	C309.2,396.6,308.4,397.2,308.8,396.1L308.8,396.1z"/>
<path id="path852" inkscape:connector-curvature="0" class="st2" d="M381.5,257.4c1.7-6.1,3.6-24.3,3.6-35.1c0-9.4-0.4-14.1-2-19.7
	c-2.8-10.6-12-28.3-20.9-40.6c-13.3-18.1-16.3-24.5-13.5-29.8c0.9-1.7,2.8-3.5,4.8-4.4c3.1-1.3,3.6-1.2,8.3,1
	c9.5,4.4,18.7,11.3,22.9,17.5c5.3,7.6,11.8,21.6,14,30.2c2.4,9.4,2.3,27.2,0,35.9c-2.4,8.7-11.7,36.3-14.3,42.2
	C382.1,259.6,380.4,261.3,381.5,257.4L381.5,257.4z"/>
</svg>
