<?xml version="1.0" encoding="utf-8"?>
<!-- Generator: Adobe Illustrator 28.2.0, SVG Export Plug-In . SVG Version: 6.00 Build 0)  -->
<svg version="1.1"
	 id="svg8" xmlns:rdf="http://www.w3.org/1999/02/22-rdf-syntax-ns#" xmlns:dc="http://purl.org/dc/elements/1.1/" xmlns:cc="http://creativecommons.org/ns#" xmlns:svg="http://www.w3.org/2000/svg" xmlns:inkscape="http://www.inkscape.org/namespaces/inkscape" xmlns:sodipodi="http://sodipodi.sourceforge.net/DTD/sodipodi-0.dtd"
	 xmlns="http://www.w3.org/2000/svg" xmlns:xlink="http://www.w3.org/1999/xlink" x="0px" y="0px" viewBox="0 0 512 512"
	 style="enable-background:new 0 0 512 512;" xml:space="preserve">
<g id="g890" transform="matrix(0.77084685,0,0,0.77084685,46.981668,-18.105653)">
	<path d="M269.9,684.2c-87.6,0-169.9-34.1-231.8-96s-96-144.2-96-231.8s34.1-169.9,96-231.8c61.9-61.9,144.2-96,231.8-96
		s169.9,34.1,231.8,96c61.9,61.9,96,144.2,96,231.8s-34.1,169.9-96,231.8S357.5,684.2,269.9,684.2z M269.9,34.2
		C92.2,34.2-52.3,178.7-52.3,356.4c0,177.7,144.5,322.2,322.2,322.2c177.7,0,322.2-144.5,322.2-322.2
		C592.1,178.7,447.6,34.2,269.9,34.2z"/>
	<path id="path848" inkscape:connector-curvature="0" d="M242.2,681.8c0.8-0.3,2-0.3,2.8,0s0.1,0.6-1.4,0.6
		C242,682.3,241.4,682.1,242.2,681.8L242.2,681.8z M230,680.7c0.8-0.3,1.8-0.3,2.1,0.1c0.4,0.4-0.3,0.6-1.5,0.6
		C229.4,681.3,229.1,681,230,680.7L230,680.7z M221.2,679.5c0.8-0.3,1.8-0.3,2.1,0.1c0.4,0.4-0.3,0.6-1.5,0.6
		C220.5,680.2,220.3,679.9,221.2,679.5L221.2,679.5z M213.4,678.4c0.8-0.3,1.8-0.3,2.1,0.1c0.4,0.4-0.3,0.6-1.5,0.6
		S212.5,678.8,213.4,678.4L213.4,678.4z M228,625.5c0-0.3,3.4-5.2,7.4-10.9c17.6-24.4,23.5-36.3,28.6-57.8
		c5.1-21.6,6.5-48.3,3.3-65.1c-6.2-32.9-27.2-68-64.7-108.2c-41.7-44.8-74.4-90.1-92.8-128.4c-7.3-15.3-11-26.2-13.3-39
		c-2.1-12.3-2.1-17.4,0-28.1c5.4-26.3,22.3-42.6,52.6-50.7c23.4-6.2,28.6-6.6,84.3-6.7c56-0.1,57.8-0.2,58.6-6
		c0.9-6.3-16.9-19.7-45.9-34.6c-9.8-5-18-9.4-18.3-9.7c-1.4-1.3,53.5,6.6,67.8,9.8c29.6,6.6,69.1,23.6,95.9,41.3
		c17.6,11.6,35.4,29.9,41.9,43c4.9,9.8,5.6,21.4,1.7,28.9c-4.4,8.5-12.9,12.2-27.9,12.2c-15.5,0-43.7-6.2-73.5-16.1
		c-52.2-17.3-69.8-21.6-89-21.6c-14.2,0-21.2,1.5-27.8,5.9c-17,11.5-16.2,45,2,78.4c7.3,13.5,14.4,23.7,26.8,38.5
		c18.9,22.6,48.9,64.4,60.4,84.1c6.4,11,11.9,23.7,15.7,36.6c5.5,18.4,6.3,24.6,6.3,50.5c0,21.4-0.3,24.9-2.6,33.8
		c-10,38-38.6,74.5-90.3,114.8C231.4,623.5,228,625.9,228,625.5L228,625.5z"/>
	<path id="path850" inkscape:connector-curvature="0" d="M328.5,546.1c0.6-1.2,3.7-7.7,6.8-14.4c13.5-28.4,16.4-36.5,20.7-57.6
		c2.7-13.2,3-16.9,3-41.1c0.1-25.8,0-27-3-37.5c-5.2-18.8-16.1-38.8-31.2-57.3c-3.7-4.6-15.5-17.3-26.3-28.3
		c-35.4-36.3-45.8-50.8-51.1-71.3c-4-15.6-2.2-23.6,7-32.1c6.5-6,11.7-7.4,25.8-6.8c12.9,0.5,17.6,2.5,31.6,12.8
		c35.6,26.4,69.4,81.1,80.1,129.6c3.5,16,3.5,45.1,0,65.8c-5.5,32.4-14,59.5-25.5,81.7c-6.5,12.5-29.5,48-35.6,54.9
		C329,546.6,327.9,547.4,328.5,546.1L328.5,546.1z"/>
	<path id="path852" inkscape:connector-curvature="0" d="M413.9,382.8c2.1-7.2,4.3-28.6,4.3-41.3c0-11.1-0.5-16.5-2.3-23.3
		c-3.3-12.4-14.1-33.3-24.7-47.7c-15.7-21.3-19.1-28.9-15.9-35c1-2,3.4-4.1,5.7-5.1c3.6-1.5,4.3-1.4,9.8,1.1
		c11.2,5.1,22,13.3,27,20.5c6.3,9,13.9,25.4,16.4,35.6c2.8,11.1,2.7,32,0,42.2c-2.8,10.3-13.8,42.8-16.8,49.7
		C414.7,385.4,412.6,387.5,413.9,382.8L413.9,382.8z"/>
</g>
</svg>
