<?xml version="1.0" encoding="utf-8"?>
<!-- Generator: Adobe Illustrator 28.2.0, SVG Export Plug-In . SVG Version: 6.00 Build 0)  -->
<svg version="1.1"
	 id="svg8" xmlns:dc="http://purl.org/dc/elements/1.1/" xmlns:sodipodi="http://sodipodi.sourceforge.net/DTD/sodipodi-0.dtd" xmlns:cc="http://creativecommons.org/ns#" xmlns:rdf="http://www.w3.org/1999/02/22-rdf-syntax-ns#" xmlns:svg="http://www.w3.org/2000/svg" xmlns:inkscape="http://www.inkscape.org/namespaces/inkscape"
	 xmlns="http://www.w3.org/2000/svg" xmlns:xlink="http://www.w3.org/1999/xlink" x="0px" y="0px" viewBox="0 0 512 512"
	 style="enable-background:new 0 0 512 512;" xml:space="preserve">
<path d="M220.1,512c0-0.2,3.1-4.9,7-10.2c16.5-22.9,22-34.1,26.9-54.2c4.8-20.2,6.1-45.3,3.1-61.1c-5.8-30.8-25.5-63.9-60.7-101.6
	c-39.2-42-69.9-84.6-87.1-120.5c-6.9-14.3-10.4-24.6-12.5-36.6c-1.9-11.6-1.9-16.4,0-26.4c5.1-24.7,21-40,49.4-47.6
	c21.9-5.8,26.9-6.1,79.2-6.3c52.5-0.1,54.2-0.2,54.9-5.7c0.8-5.9-15.9-18.4-43.1-32.5c-9.2-4.7-16.9-8.8-17.2-9.2
	c-1.3-1.2,50.2,6.1,63.6,9.2c27.8,6.1,64.8,22.2,90,38.8c16.5,10.8,33.3,28.1,39.3,40.4c4.6,9.2,5.3,20.1,1.6,27.1
	c-4.1,8-12,11.4-26.1,11.4c-14.6,0-41-5.8-69-15.1c-49-16.3-65.5-20.2-83.5-20.2c-13.4,0-19.9,1.4-26.1,5.5
	c-15.9,10.8-15.2,42.3,1.9,73.6c6.9,12.7,13.5,22.3,25.2,36.1c17.7,21.2,45.9,60.5,56.6,78.9c6,10.4,11.2,22.3,14.7,34.3
	c5.2,17.2,5.9,23.1,5.9,47.4c0,20.1-0.2,23.4-2.4,31.7C302,435,275.2,469.2,226.7,507C223.2,510.2,220.1,512.3,220.1,512L220.1,512z
	 M314.3,437.5c0.6-1.1,3.5-7.2,6.4-13.5c12.7-26.6,15.4-34.2,19.4-54.1c2.5-12.4,2.8-15.9,2.8-38.6c0.1-24.2,0-25.3-2.8-35.2
	c-4.9-17.6-15.1-36.4-29.3-53.7c-3.5-4.3-14.6-16.3-24.7-26.5c-33.3-34.1-43-47.7-48-66.9c-3.7-14.7-2-22.2,6.6-30.1
	c6.1-5.7,11-7,24.2-6.4c12,0.5,16.5,2.3,29.6,12c33.4,24.8,65.2,76.1,75.2,121.6c3.3,15.1,3.3,42.3,0,61.8
	c-5.2,30.4-13.1,55.8-24,76.6c-6.1,11.7-27.7,45.1-33.4,51.6C314.8,438,313.8,438.7,314.3,437.5L314.3,437.5z M394.6,284.2
	c1.9-6.7,4-26.9,4-38.8c0-10.4-0.5-15.5-2.2-21.8c-3.1-11.7-13.3-31.2-23.1-44.8c-14.7-20-18-27.1-14.9-32.9c1-1.9,3.1-3.9,5.3-4.8
	c3.4-1.4,4-1.3,9.2,1.1c10.5,4.8,20.6,12.5,25.3,19.3c5.9,8.4,13,23.9,15.4,33.4c2.7,10.4,2.5,30,0,39.6
	c-2.7,9.6-12.9,40.1-15.8,46.6C395.3,286.7,393.4,288.6,394.6,284.2L394.6,284.2z"/>
</svg>
