<svg xmlns="http://www.w3.org/2000/svg" xml:space="preserve" viewBox="0 0 512 512"><path d="M11.3 270.8c.1-28.1 8.9-49.1 24.2-67.8 9.4-11.4 21-20.2 32.2-29.6 22.8-19.1 45.6-38 68.5-56.9 21.7-17.9 43.4-35.6 65.2-53.3 19.1-15.5 38.3-30.8 57.5-46.1 16-12.8 34.5-18.1 54.8-17 27.1 1.5 49.7 13 66.8 33.8 20 24.3 39.1 49.5 58.5 74.3 5.4 6.9 8.7 14.9 9.1 23.8.7 17.1-8.2 28.4-22.7 36-7.3 3.8-15.4 4.9-23.4 5.9-16.8 2-33.6 3.9-50.4 6-22.4 2.8-44.4 7.5-65.8 14.3-25.5 8.1-50.2 18.1-72.4 33.5-4.9 3.4-9.5 7.4-13.4 11.9-12 14.1-9.7 30.5 5.7 40.8 7.5 5 15.8 9 23.6 13.7 3.3 2 6.4 4.4 9.1 7.1 3.5 3.4 3.7 7.1.2 10.5-4.4 4.4-9.2 8.4-14 12.3-18.5 14.9-37 29.6-55.5 44.5-16.1 12.9-33.9 21-55 19.8-19.7-1.1-37-8.7-52-21.4-24.2-20.8-41-46.5-48.1-77.9-1.6-7.2-2.2-14.5-2.7-18.2" style="fill:#fd720d"/><path d="M347.2 311.2c21.7 1.2 43.4 2 65 3.7 16.6 1.3 32.9 4.8 47.3 13.8 23.1 14.3 37.1 34.6 40.6 61.8 2.4 18.5-1.9 35.6-11.1 51.3-16.1 27.4-38.6 47.8-67.7 60.7-12.1 5.3-24.9 7.5-38 8.7-18 1.7-36 .5-53.7-1.8-39.7-5.1-78.7-13.6-115.3-30.5-14.3-6.6-28.1-14.2-39.3-25.6-1.7-1.8-3.4-3.7-4.7-5.8-6.2-9.6-5.1-19.1 3.8-26.3 10.4-8.4 21.4-16 31.9-24.3 28.6-22.5 57.3-45 85.6-67.9 9.1-7.3 18.2-14.2 30-15.9 8.4-1.2 17.3-1.9 25.6-1.9" style="fill:#01a6fd"/></svg>