<svg xmlns="http://www.w3.org/2000/svg" xml:space="preserve" viewBox="0 0 512 512"><path d="M107.7 102.7h24.1c9-16.5 24.4-29 42.8-34.2-3.7-9-12.6-15.4-22.9-15.4-2.6 0-5.1.4-7.4 1.1v-1.1c0-18.4-14.9-33.3-33.3-33.3-15.9 0-29.1 11.1-32.5 26-2-.7-4.1-1-6.3-1-6.8 0-12.8 3.4-16.4 8.6-2-.5-4.1-.8-6.3-.8-13.8 0-25.1 11.2-25.1 25.1 0 13.8 11.2 25.1 25.1 25.1h40.1" style="fill:#91cee9"/><path d="M244.7 87.5c-12.9-13.8-31.2-22.4-51.6-22.4-33.6 0-61.7 23.5-68.8 55-4.2-1.4-8.7-2.2-13.4-2.2-14.4 0-27.2 7.2-34.8 18.3-4.3-1.1-8.7-1.7-13.4-1.7-29.3 0-53.1 23.8-53.1 53.1s23.8 53.1 53.1 53.1h58.5c.1-18 14.8-32.6 32.9-32.6 3.4 0 6.7.5 9.8 1.5v-1.5c0-24.4 19.8-44.2 44.2-44.2 21 0 38.6 14.7 43.1 34.4 2.6-.9 5.5-1.4 8.4-1.4 9 0 17 4.5 21.8 11.4 2.7-.7 5.5-1.1 8.4-1.1 12.1 0 22.7 6.5 28.5 16.1 8.4-9.3 13.6-21.7 13.6-35.2 0-29-23.5-52.5-52.5-52.5-5.5 0-10.7.8-15.7 2.4 0-.8.1-1.6.1-2.4 0-11.9-2.9-23-8.1-32.8" style="fill:#85c9e7"/><path d="M65.9 134.6c-1.1-.1-2.1-.1-3.2-.1-29.3 0-53.1 23.8-53.1 53.1s23.8 53.1 53.1 53.1h58.5c0-5.7 1.5-11 4.1-15.6-29-22.4-50.3-54-59.4-90.5" style="fill:#6db5d5"/><path d="M61 94.5c0-17.2 2.6-33.8 7.6-49.4-5.3 1-9.8 4-12.8 8.3-2-.5-4.1-.8-6.3-.8-13.8 0-25.1 11.2-25.1 25.1 0 13.8 11.2 25.1 25.1 25.1h11.8c-.3-2.9-.3-5.6-.3-8.3" style="fill:#79c1e0"/><path d="M289.7 205.8c-2.9 0-5.7.4-8.4 1.1-4.8-6.9-12.8-11.4-21.8-11.4-2.9 0-5.8.5-8.4 1.4-4.5-19.7-22-34.4-43.1-34.4-24.4 0-44.2 19.8-44.2 44.2v1.5c-3.1-1-6.4-1.5-9.8-1.5-18.1 0-32.9 14.7-32.9 32.9 0 18.1 14.7 32.9 32.9 32.9h135.7c18.4 0 33.2-14.9 33.2-33.2.1-18.6-14.8-33.5-33.2-33.5" style="fill:#8ccce8"/><path d="M189.1 197.3c0-11.9 2.5-23.1 7-33.3-18.6 5.2-32.3 22.3-32.3 42.6v1.5c-3.1-1-6.4-1.5-9.8-1.5-18.1 0-32.9 14.7-32.9 32.9 0 18.1 14.7 32.9 32.9 32.9h83.5c-28.5-13-48.4-41.7-48.4-75.1" style="fill:#73b7d5"/><path d="M242.3 369.8c-2.3-3.6-1.2-8.4 2.5-10.7 3.6-2.3 8.4-1.2 10.7 2.5l28.6 45.8 19.2 30.7v.1L312 452h18.4c4.3 0 7.8 3.5 7.8 7.8s-3.5 7.8-7.8 7.8h-22.7c-2.7 0-5.2-1.4-6.6-3.6l-4.8-7.6-5.7 8c-1.5 2.1-3.8 3.3-6.3 3.3h-17.1c-4.3 0-7.8-3.5-7.8-7.8s3.5-7.8 7.8-7.8h13l7.1-10-16.5-26.3z" style="fill:gray"/><path d="M195.1 342.6c3.7-2.2 8.5-.9 10.6 2.8l31.1 53.1 48.7 78.1h18.4c4.3 0 7.8 3.5 7.8 7.8s-3.5 7.8-7.8 7.8h-22.7c-2.7 0-5.2-1.4-6.6-3.7l-4.8-7.6-5.7 8c-1.5 2.1-3.8 3.3-6.3 3.3h-17.1c-4.3 0-7.8-3.5-7.8-7.8s3.5-7.8 7.8-7.8h13l7.1-10.1-37.4-59.9c0-.1-.1-.1-.1-.2l-31.2-53.2c-2-3.7-.7-8.5 3-10.6" style="fill:#707070"/><path d="M176.2 374 51.7 474.4c-5.8 4.7-14.3 3.8-19.1-1.9-4.2-5.1-4.2-12.5 0-17.6l26.6-31.7 134.1-127 34.5 23.1z" style="fill:#e95e5e"/><path d="m166.4 366.7-155.6 82c-2.3 1.2-5 1.1-7.2-.2-4.6-2.7-4.9-9.4-.4-12.4l133.4-92 61.3-37.7 27.7 28z" style="fill:#cb5555"/><path d="m469.1 205.8 40.4-9.6c2.2-.5 3.2-3.1 1.9-5l-1.8-2.6c-10.4-14.5-25.8-24.6-43.3-28.5l-49.4-9.8-4.6 64.9z" style="fill:#e47f69"/><path d="m283.7 286.2 71-113.9 19.1-18.3c-4-4.4-7.3-9.3-10.1-14.4-2.8-5.2-5-10.7-6.5-16.4l-4.2-15.5c-.2-.9.3-1.8 1.2-2l14.6-3.2-8.5-17.6c-.6-1.2.5-2.6 1.8-2.3l8.3 1.6c30.3 5.8 57.2 23 75.4 47.9l10.3 14.1-13.3 64.1 19.8 28.8-7.9 40.4c-15.9 81.1-89.6 137.9-172.1 132.5-20.1-1.3-39.8-5.5-58.5-12.5-18.7-6.9-36.4-16.6-52.4-28.8l-49.1-37.1z" style="fill:#ff7474"/><path d="m414.9 279.5 11.5-48.3c6.7-28.3 2.6-58-11.6-83.4l-8.8-15.7c-10.7-14.6-24.4-26.6-40-35.1l-5.8-12.1c-.6-1.2.5-2.6 1.8-2.3l8.3 1.6c30.3 5.8 57.2 23 75.4 47.9l10.3 14.1-16.2 41.1 22.8 51.8-7.9 40.4c-15.9 81.1-89.6 137.9-172.1 132.5-3.1-.2-6.2-.5-9.3-.8 69.6-8.5 127.7-60.8 141.6-131.7" style="fill:#e86767"/><path d="M403 182.7c0 6.4 1.7 12.6 4.7 18 3.1 5.4 7.5 10 13 13.3l41.8 25.1 6.5-33.2-2.6-3.9c-7-10.6-8.1-24.1-2.9-35.8l2.6-5.9-10.2-14h-16.4c-20.1-.1-36.5 16.3-36.5 36.4" style="fill:#5e5e5e"/><path d="M417.7 153.4c6.1-4.5 13.6-7.2 21.8-7.2h16.4l10.2 14-2.6 5.9c-5.2 11.6-4.1 25.1 2.9 35.8l2.6 3.9-6.5 33.2-33.9-20.3c2.9-22.3-.9-45-10.9-65.3" style="fill:#464546"/><path d="M434.9 187.3c4.3 0 7.8-3.5 7.8-7.8v-4.9c0-4.3-3.5-7.8-7.8-7.8s-7.8 3.5-7.8 7.8v4.9c.1 4.3 3.5 7.8 7.8 7.8"/><path d="m301.1 225.7 16.5-19.9c12.7-10.8 25-21.9 37.1-33.5l19.2 24.3c11.5 14.6 15.6 33.7 11.2 51.8-14 57-65.1 96.4-122.9 96.4-1.1 0-2.1 0-3.2-.1l-10-35.8z" style="fill:#be5252"/><path d="m188.7 299.9 19.6-15.5c20.4-12.3 40.3-25.5 59.5-39.5l11.9-4.5-36.4 84-29.6 16.9-43-3.6-3.6-10.3z" style="fill:#a54949"/><path d="m267.9 245-54.1 96.3 37.7 3.1c2.5.2 5 .3 7.5.4l58.7-139c-16.2 13.7-32.8 26.8-49.8 39.2" style="fill:#b34f4f"/><path d="M121.9 329.8c-1.9.8-1.4 3.6.7 3.8l48.2 4 37.6-53.2c-26.6 16.1-54.2 30.6-82.5 43.7z" style="fill:#934343"/></svg>