<svg xmlns="http://www.w3.org/2000/svg" xml:space="preserve" viewBox="0 0 512 512"><path d="M175.6 424.8c-14.7 6-30.8 9.3-47.6 9.3-70.7 0-128-58.5-128-130.7 0-57.9 36.9-107 88-124.2-10.3 23.5-16 49.5-16 76.8 0 74.1 42.3 138.3 103.6 168.8M256 303.5c0-72.2 57.3-130.7 128-130.7s128 58.5 128 130.7-57.3 130.7-128 130.7-128-58.6-128-130.7m-9 0c0-77 61.5-139.7 137-139.7 7.9 0 15.6.7 23.1 2-30.4-52.9-86.7-88.5-151.1-88.5-96.7 0-175 80-175 178.7s78.4 178.7 175 178.7c20.8 0 40.7-3.7 59.2-10.5C274.4 400 247 354.9 247 303.5" style="opacity:.95;fill:#fff"/></svg>