<svg xmlns="http://www.w3.org/2000/svg" xml:space="preserve" id="casaos_svg__Layer_1" x="0" y="0" version="1.1" viewBox="0 0 512 512"><style>.casaos_svg__st0{opacity:.95;fill:#4ce7ff;enable-background:new}</style><path d="M128 434.1c70.7 0 128-58.5 128-130.7s-57.3-130.7-128-130.7S0 231.2 0 303.4s57.3 130.7 128 130.7" class="casaos_svg__st0"/><path d="M256 434.7c96.7 0 175-80 175-178.7S352.6 77.3 256 77.3 81 157.3 81 256s78.3 178.7 175 178.7" style="opacity:.95;fill:#0067c2"/><path d="M384 434.1c70.7 0 128-58.5 128-130.7s-57.3-130.7-128-130.7-128 58.5-128 130.7 57.3 130.7 128 130.7" class="casaos_svg__st0"/></svg>