<svg xmlns="http://www.w3.org/2000/svg" xml:space="preserve" viewBox="0 0 512 512"><path d="M281 241.4c-1.1 1.6-1.1 1.9-1.9 4.6-4.7 16.4-23.1 15.3-23.1 15.3s-18.4.8-23.1-15.3c-.8-3-.8-3-1.9-4.6-2.2-3-8.5-1.3-8 3.6 0 0-1.3 26.3 33 26.3s33-26.2 33-26.3c.5-5-5.8-6.3-8-3.6m-140.1-38.5c-17.3 0-31.3 13.9-31.3 31.2.1 6.5 2.1 12.8 5.8 18.1 0 0 13.1-6.8 24.4-6.8 15.1 0 25.8 7.9 25.8 7.9 4.2-5.2 6.6-11.8 6.6-19.2 0-17.3-14-31.2-31.3-31.2m229.9.3c-17.3 0-31.3 13.9-31.3 31.2 0 6.9 2.3 13.7 6.6 19.1 0 0 10.7-7.9 25.8-7.9 11.3 0 24.5 6.8 24.5 6.8 3.9-5.1 5.9-11.5 5.7-18 0-17.3-14-31.2-31.3-31.2M477.4 86.4H34.3C15.4 86.4 0 102 0 120.9v270.5c0 18.9 15.7 34.2 34.6 34.2h87.9c2.1-4.6 4.5-9.1 7.1-13.4 4.2-7.4 12.4-6.3 12.4-6.3h227.4s8.5-.3 12.1 6.3 6.9 13.4 6.9 13.4h89.3c18.9 0 34.6-15.6 34.3-34.5V120.6c0-18.9-15.7-34.2-34.6-34.2M67 149.1c8.3-14.3 23.1-24.6 40.4-20 3.3.8 6.3 2.4 5.5 5.8-1.1 5.2-9.1 2.7-9.1 2.7-11.5-2.2-21.7 3.8-27.7 14.5-3 4.4-4.9 4.9-7.7 4.1-2-1.1-3.3-3.8-1.4-7.1M372.8 305H139c-40.1 0-72.8-32.5-72.8-72.5s32.7-72.8 72.8-72.8h235.1c39.8.4 71.9 33 71.5 72.8 0 40-32.7 72.5-72.8 72.5m80.1-135.5c-3 0-4.7-.8-6.3-6-2.7-12-9.9-17.2-21.4-18.3 0 0-8.3 0-8-5.2.3-3.5 3.6-4.4 6.9-4.2 18.1.3 28.3 11.2 32.1 27.1 1.1 3.9-1.1 6.3-3.3 6.6m-81.8 33.7c-17.3 0-31.3 13.9-31.3 31.2 0 7.1 2.5 13.7 6.6 19.1 0 0 10.7-7.9 25.8-7.9 11.3 0 24.4 6.8 24.4 6.8 3.6-5.2 5.8-11.2 5.8-18.1 0-17.2-14-31.1-31.3-31.1m-230.2 0c-17.3 0-31.3 13.9-31.3 31.2 0 6.8 2.2 12.9 5.8 18.1 0 0 13.2-6.8 24.4-6.8 15.1 0 25.8 7.9 25.8 7.9 4.1-5.2 6.6-11.8 6.6-19.1 0-17.4-14-31.3-31.3-31.3" style="fill:#fff"/></svg>