<svg xmlns="http://www.w3.org/2000/svg" xml:space="preserve" viewBox="0 0 512 512"><path d="M191.2 296.4h24.3v24.3L172.3 364 148 339.7zm6.3-40.4-17.2-17.2h-61.2v34.4h61.2zm41.3 74.4v61.2h34.4v-61.2L256 313.2zm-24.2-115.8v-24.3L171.3 147 147 171.3l43.3 43.3zm24.2-34.4 17.2 17.2 17.2-17.2V119h-34.4zm83.4 323c-136.5 36.6-276.9-44.4-313.5-181S53.2 45.4 189.8 8.8c136.5-36.6 276.9 44.4 313.5 181s-44.5 276.8-181.1 313.4M449.7 256 393 199.3V119l-80.2.1-.1-.1L256 62.3 199.3 119h-80.2v80.2L62.3 256l56.7 56.7V393h80.2l56.7 56.7 56.7-56.7H393v-80.2zm-136.5 0 17.2 17.2h61.2v-34.4h-61.2zm-16.8 40.4v24.3l43.3 43.3 24.3-24.3-43.3-43.3z"/><path d="M273.2 216.4 256 231.7l-17.2-15.2v22.3h-22.3l15.2 17.2-15.2 17.2h22.4v22.3l17.2-15.2 17.2 15.2v-22.3h22.4L280.4 256l15.2-17.2h-22.4zm39.6-97.3 27.9 27.9-43.3 43.3v24.3h24.3l43.3-43.3 28 28V119z" style="opacity:.5"/></svg>