<svg xmlns="http://www.w3.org/2000/svg" xml:space="preserve" viewBox="0 0 512 512"><path d="M450 372.9c-2.9-8.7-10.4-15.9-15-23.4-8.6-14-5.4-30.6-2.1-45.7 3.8-17.7 3.9-26.5 5.4-44.6 2.9-34.3 1.5-68.9-4-102.9-5.5-33.4-16.2-65.5-22.5-98.7-3.7-19.3-10.4-35.9-18-53.8-2.2-5.4-3.9-4.6-6.7-.6-12.1 17.4-22.2 36.2-31.5 55.4-2.4 5-26.2 56.5-23.7 57.2-13.6-4-33.5-10.6-73.9-10.6-37.6 0-56.3 5.4-70.1 10.6.1 0-5.8-14.1-6.2-15-13.5-27.1-27.1-54.2-42.8-79.9C137 17.7 130 .8 125.1 3.4c-9 5-12.5 25.9-15 35.1C99.5 77.2 89 117.9 83.8 157.8c-6.5 50.7-9.3 101.7-3.5 152.6.9 7.8 2.3 17.1.3 24.7-3.1 12-14.6 19.9-18.7 31.5-4 11.2 3.4 20.4 14.1 21.1 2.7.2 25.9-6.1 25.1-10 1.2 5.6 1.9 9.7 2.9 13.9 6.2 26.1 31 104.8 52.7 117.3 14 8 25.5-.1 25.7-17 0-2.8-.3-5.5-.5-9 0 0 34.5 13.8 76 13.8 44.1 0 79.8-13.8 79.8-13.8-.2 3.5-.5 6.3-.5 9 .2 16.9 11.7 25.1 25.7 17 13-7.4 19.8-25.9 25-39.6 7.5-20 15.4-50.1 20.4-70.9 1-4.1 1.7-8.2 2.9-13.9-.5 2.2 19.5 9.3 21.7 9.7 7.9 1.1 16.5-1.4 18-10.9.6-3.5.2-7-.9-10.4M199.4 225.1c12.2.1 21.9 10 21.8 22.2 0 12.3-9.7 22.2-21.8 22.2-12.3-.2-22-10.3-21.8-22.6.3-11.9 9.9-21.6 21.8-21.8M146.9 341l-7-2.8s2.7-9.4 3.6-12.9l9.9-30.4 17.8 51.8c-10.6-1.9-16.6-3.3-24.3-5.7m29 6.5c7.5-14.7 22-36.2 28.7-48.1l4.9 13.3c4.2 12.5 9.7 26.8 13.3 39.7-17-.9-32.9-2.7-46.9-4.9m87.1 6.2c-11.6 0-22.9-.3-33.7-.9l31.4-53.2c8.5 17.8 16.7 35.8 25 53.7-7.4.3-15 .4-22.7.4m29.7-.6c8.8-18.7 15.6-37.6 23.7-53.4 8.2 19 12.6 30.4 21.4 49.6-13.7 1.7-28.9 3.1-45.1 3.8m29.9-83.7c-12.1 0-21.8-9.9-21.8-22.2.2-12.1 10.1-21.7 22.2-21.4 12.1.2 21.7 10.1 21.4 22.2-.2 11.9-9.9 21.4-21.8 21.4m60 70.8c-10.1 3.2-22.8 5.9-37.6 8.1l30.9-53.4 7.2 44.3c0 .3-.2.7-.5 1" style="fill:#fff"/></svg>