<svg xmlns="http://www.w3.org/2000/svg" xml:space="preserve" viewBox="0 0 512 512"><circle cx="256" cy="256" r="256" style="fill:#f97317"/><path d="M350.4 229.8h-10.5v-41.9c0-46.3-37.5-83.9-83.9-83.9s-83.9 37.6-83.9 83.9v41.9h-10.5c-5.8 0-10.5 4.7-10.5 10.5v157.3c0 5.8 4.7 10.5 10.5 10.5h188.7c5.8 0 10.5-4.7 10.5-10.5V240.3c.1-5.8-4.6-10.5-10.4-10.5m-83.9 92.4v54.4h-21v-54.4c-12.2-4.3-21-15.8-21-29.5.3-17.4 14.6-31.2 31.9-31 17 .3 30.7 14 31 31 .1 13.7-8.7 25.2-20.9 29.5m41.9-92.4H203.6v-41.9c0-28.9 23.5-52.4 52.4-52.4s52.4 23.5 52.4 52.4z" style="fill:#fff"/></svg>