<svg xmlns="http://www.w3.org/2000/svg" xml:space="preserve" viewBox="0 0 512 512"><path d="M255.4 200.3c-6.8-.2-12.1-6-11.9-12.8v-.1c.3-7.3 6.4-12.7 13.2-12.1 7.2.6 12.2 6.3 11.8 13-.4 7.2-6.3 12.5-13.1 12m4.8 204c-.9 2.8-1.5 5-2.3 7.2-.6 1.8-.3 2.4 1.8 2.4 4.2 0 4.2.1 2.8-3.8-.7-1.7-1.4-3.4-2.3-5.8m114.3-60.8c-1.2 0-5.5 4.1-5.6 5.3 0 .5 3.7 3.7 4.2 3.6.8-.1 4.3-5 4.3-6.1-.1-1.7-1.3-2.5-2.9-2.8m-86.9-238c2.4-.1 3.6-1.1 3.6-3.2s-3.4-4.1-6.9-3.8c-2.8.3-2.3 3.2-2.1 4.5.6 3.3 3.9 1.3 5.4 2.5m-115 284.7c1.1-2.9 1.8-6 2.1-9.1-1.3 1-2.2 1.7-3.1 2.4-4.4 3.5-4.4 3.5 1 6.7M512 256c0 26.9-16.5 51-24.4 75.2-8.2 25.2-9.2 54.3-24.5 75.2-15.4 21.2-42.8 31.1-64 46.5-21 15.3-38.8 38.4-64 46.6-24.3 7.9-52.2-.1-79.1-.1s-54.8 8-79.1.1c-25.2-8.2-43-31.3-64-46.6-21.2-15.4-48.6-25.3-64-46.5-15.3-21-16.3-50-24.5-75.2C16.5 306.9 0 282.9 0 256s16.5-51 24.4-75.2c8.2-25.2 9.2-54.3 24.5-75.2 15.4-21.2 42.8-31.1 64-46.5 21-15.3 38.8-38.4 64-46.6 24.3-7.9 52.2.1 79.1.1s54.8-8 79.1-.1c25.2 8.2 43 31.3 64 46.6 21.2 15.4 48.6 25.3 64 46.5 15.3 21 16.3 50 24.5 75.2C495.5 205 512 229.1 512 256m-38.6 0c0-120.1-97.4-217.5-217.5-217.5-120 0-217.4 97.4-217.4 217.5S135.9 473.5 256 473.5 473.4 376.1 473.4 256m-18.9.2c-.1 109.7-88.9 198.4-198.6 198.3-109.7 0-198.5-88.8-198.5-198.5 0-109.8 89-198.7 198.8-198.5s198.4 89 198.3 198.7M328.3 140.4c1.6.9 3.2 3.3 5.1.1 2.5-4.2 5.2-8.2 7.8-12.3 3.1-4.9 3.2-5.1 8.2-1.9 2.7 1.7 3.4-.1 4.5-1.8 1.2-1.7 1.7-3.1-.7-4.5-5.6-3.3-11-6.8-16.4-10.4-2.3-1.5-3.4-1.1-4.9 1.1-1.6 2.5-1.3 3.8 1.2 5.1 1.5.8 3.1 1.5 4.1 2.9-.5.8-.9 1.5-1.4 2.2-3.2 5-6.2 10-9.5 14.9-1.8 3 .3 3.7 2 4.6m-56.2-20.2c4.6 1.9 6.4 1 7.3-3.7.2-1 .4-2 .6-3.1.2-.8 0-2.2 1.3-2s2.9-.1 3.3 1.8c.5 1.9 1 3.5 1.5 5.3 1.4 4.9 2.4 5.6 7.4 5.9 1.9.1 2.3-.5 1.8-2.2-.8-2.7-1.5-5.3-2.3-8-.4-1.2-.7-1.9 1-2.6 4-1.7 5.1-5.4 5.4-9.1 0-4.6-2.8-8-8-9.4-4.2-1.1-8.6-1.8-12.9-2.8-1.6-.3-2.4.3-2.7 1.8-1.6 8.4-3.3 16.8-4.9 25.2-.2 1.2-.3 2.3 1.2 2.9m-55.4-23.7c1.4 8.1 2.8 16.3 4.2 24.3.2 1.4.7 2.5 2.4 2.2 6.3-1.1 12.6-2 18.8-3.3 3.3-.7 1-3.2 1.1-4.9 0-1.8-1-2.4-2.7-2-3.4.7-6.9 1.1-10.3 1.8-1.8.3-2.2-.5-2.4-2-.1-1.3-.3-2.4 1.6-2.6 2.9-.3 5.7-1.1 8.6-1.4 3.1-.3 2.5-2.3 2.2-4.3s-.8-3.6-3.5-2.8c-2.6.7-5.3.8-7.8 1.5-1.8.5-2.7.3-3.1-1.8-.4-2.3.9-2.5 2.5-2.7 2.9-.4 5.7-1 8.6-1.4 1.8-.3 3.2-.8 2.5-3.1-.6-1.9.3-4.8-3.6-4-5.4 1.1-10.9 2.1-16.4 2.8-2.8.4-3.1 1.6-2.7 3.7m-54.4 28.9c.6 4.4 3.3 7.9 5.7 11.4 3.5 4.8 8.8 6.3 14.5 4.2 5.9-2.1 10.4-7.9 10.2-13.1-.1-1.3-.4-2.5-.9-3.7-.1-.7-.8-1.2-1.5-1.2-2 0-5.7 3.6-5.8 5.8 0 2.9-1.9 4.4-4.2 5.3-2.2.9-4.2 0-5.5-1.8-1.6-2.2-2.9-4.4-4.1-6.8-1-2-.8-4.2 1-5.7 1.8-1.6 4.1-2.6 6.7-1.2 1.8 1 6.7-.7 7.7-2.5.7-1.1-.2-1.8-.8-2.4-1.9-2.1-4.7-3.3-7.5-3.3-9.2-.1-16.4 7.1-15.5 15m-26.9 246.9c6.4-5.2 12.8-10.3 19.2-15.5.7-.5 1.5-1 1.1-2.3-.7-2.4-4-4.8-6.6-4.5-3.7.5-7.3 1.1-11.7 1.7 1.6-4.3 3-7.9 4.4-11.6 1.2-3.2-1.4-4.7-3-6.4s-2.9.4-4 1.3c-5.9 4.7-11.6 9.6-17.6 14.2-2.8 2.2-.7 3.4.4 5s2.3 3.3 4.6 1.3c2.7-2.4 5.5-4.6 8.4-6.8.1.3.2.4.2.5-.6 1.6-1.2 3.2-1.7 4.8-1.1 3.4 1.1 5.9 4.7 5.4 1.5-.2 3-.7 4.8.1-2.9 2.4-5.4 4.6-8.1 6.6-2.2 1.6-1.1 3 .2 4.2 1.3 1.1 1.8 4.3 4.7 2m48.2 4.7c-.8-3-4.2-3.6-6.6-5.4-1-.7-2-.4-2.9.3-7 5.5-14.1 11-21.1 16.5-.9.7-1.6 1.7-.3 2.5 2.5 1.4 4.7 4.9 8 1.2.3-.5 1-.7 1.5-.3 2.6 1.7 5.3 3.4 7.9 5.1.7.5.5 1.2.4 1.9-.4 3 1.7 6.4 4.7 6.5 3.1.2 1.6-3.1 2.6-4.7.1-.2.2-.4.2-.7 1.9-7.5 3.7-14.9 5.6-22.9m42.6 15.7c-2-.6-4-1.5-4.7 1.8-.8 3.6-1.9 7.1-3.1 11.5-1.8-5.4-3.5-10.1-4.9-14.9-.9-3.1-3.6-3.1-5.8-3.5-2.5-.4-2 2.1-2.4 3.5-2.1 7.2-3.9 14.5-6.1 21.7-1.1 3.5 1.5 3.2 3.3 3.8 1.9.6 3.8 1.4 4.5-1.7.8-3.7 2-7.3 3.1-11.4.5 1.1.8 1.7 1 2.3 1.4 4.2 2.8 8.3 4.2 12.5 1 3.1 3.7 2.9 6 3.2 2.2.3 1.8-2.1 2.1-3.4 2.1-7.2 3.9-14.6 6.1-21.7.9-3.3-1.5-3.1-3.3-3.7m48.1 27.7c-2.4-6.4-4.9-12.8-7.3-19.1-2.4-6.1-4-7-10.3-5.6-1.1.1-1.9.8-2.3 1.8-2.6 8.5-5.3 17-7.9 25.5-.2.7-.6 1.6.3 2.2 1.9 1.3 6.9-.5 7.8-2.7.4-.9.4-2 1.9-2 2.8.1 5.6 0 8.4-.1 1 0 1.6.3 1.8 1.2.5 2.8 2.2 3.6 4.5 3 4.7-.1 4.7-.1 3.1-4.2m43.5-22.3c-.8-2.2-1.6-3.1-4-2.1-2 .8-4.1 1.5-6.2 2.1-1.7.6-3 1.3-2 3.5.8 1.7.6 4.6 3.9 3.2.6-.2 1.3-.8 1.8-.1s.2 1.6-.1 2.3c-.8 2-2.6 2.9-4.6 3.2s-3.7-.6-4.6-2.3c-1.4-2.4-2.3-5.1-2.8-7.8-.6-4.1 3.2-7.6 6.9-5.8 3 1.5 5.3.3 7.9-.5 1.8-.5 1.8-1.6.8-2.8-2.4-3-5.6-3.9-9.2-4.1-3.8 0-7.6 1.4-10.4 3.9-3.5 3.1-4.9 7.1-3.5 11.6 1.8 5.9 2.8 12.5 10.1 14.5 5.6 1.5 10.6-.3 14.6-4.3 4.3-4.3 3.3-9.3 1.4-14.5m12-102.9c.5.2.9.3 1.4.4 1.5.5 3.1-.4 3.6-1.9.2-.5.2-1.1 0-1.6l-5.4-21.9c-.3-1.2-1.5-1.9-2.7-1.6-.4.1-.7.3-1 .6l-17.2 16.5c-.8.8-.9 2.2-.1 3q.45.45.9.6c.6.2 1.3.4 1.9.5 1.4.3 1.3.8.6 1.7-3.6 5.5-8.4 10.1-13.9 13.6l-.1.1c-4.8 2.3-9.9 3.9-15.1 4.9-5.4 1-10.9 1.7-16.4 1.9-.7 0-1.3-.5-1.3-1.2v-77c0-.4.3-.8.8-.8.7 0 1.5.1 3.6.1 4 0 8.2 0 12.2-.3 1.3-.1 2 0 2.9.6 3.5 2.8 8.6 2.4 11.6-.9s3-8.3.1-11.7c-3-3.3-8-3.8-11.6-1.1-.5.4-1.1.7-1.8.8H266c-.3 0-.7 0-1-.3v-8.8c0-.3.1-.6.3-.8.4-.4.9-.7 1.4-1 9.1-4.6 13.8-12.1 13.8-22.2 0-15.9-15.5-27.5-30.9-23.3-12.2 3.3-20.1 15.4-17.8 27.7 1.7 9.1 7 15.4 15.7 18.8.3.1.6.3.9.5s.5.6.5 1v7.2c0 .7-.6 1.2-1.2 1.2-6-.1-12.1 0-18.1 0-.8 0-1.6-.3-2.3-.8-3.6-2.7-8.6-2.2-11.6 1.2-3.2 3.6-2.9 9 .7 12.2 3.1 2.7 7.7 2.9 11 .4.7-.5 1.5-.8 2.3-.8 5.8 0 11.7.1 17.5 0 .5-.1 1.1 0 1.5.3.1.1.2.3.2.5V310c0 .7-.6 1.3-1.3 1.3h-.1c-7.1-.6-14.1-1.8-21.1-3.5-4.2-1-8.4-2.5-12.3-4.3-.1 0-.1-.1-.2-.1-5.6-3.9-10.2-9-13.6-14.9-.3-.4-.2-1 .2-1.3.1-.1.3-.2.5-.2l1.8-.4c1.2-.3 1.9-1.4 1.6-2.6-.1-.4-.3-.7-.5-1l-16.2-17.7c-.8-.9-2.1-.9-2.9-.2-.3.3-.5.6-.6 1-2.4 7.6-4.7 15-7.1 22.5-.4 1.2.3 2.5 1.5 2.9.4.1.8.1 1.2.1l1.3-.3c1.6-.4 3.2.4 4 1.8 9.3 18.1 23.3 31.2 41.9 39.5 7.2 3.2 10.1 4.2 16.4 5.1.3 0 .5.2.7.4l9.5 9.4c1.3 1.3 3.4 1.3 4.8 0l9.3-9.1c.2-.2.5-.3.8-.4 9.3-.9 13.4-3.2 23.4-7.7 15.4-7.1 27.7-19.3 35.6-34.4.5-1 1.1-1.1 2.3-.7m31.2 89c-1-1.4-1.9-3-4.1-1.3-2.5 2-5.3 3.7-7.9 5.7-1.4 1.1-2.1.7-3-.6s-1.2-2.1.3-3.1c2.3-1.5 4.5-3.2 6.8-4.8.7-.5 1.6-1 1.5-2.2-.6-1.6-1.6-3-2.9-4-1.3-.9-2.3.5-3.3 1.2-2.1 1.4-4.3 2.8-6.2 4.4-1.6 1.4-2.1.1-2.9-.8-1-1.1-1-1.8.4-2.7 2.6-1.7 5-3.7 7.7-5.4 2.2-1.4 1.7-2.7.4-4.2-1.1-1.4-1.8-3.5-4.3-1.6-4.5 3.4-9.2 6.6-13.9 9.9-1.5 1-1.5 2-.5 3.5 4.8 6.7 9.6 13.4 14.3 20.1.9 1.2 1.7 1.7 3.1.7 4.8-3.5 9.6-6.9 14.4-10.3 2.5-1.8 1.1-3.1.1-4.5m33-35.5c-2.3-.3-4.5-1-6.8-1.2-1.9-.2-2.4-.8-2.4-2.8-.2-4.9-4.6-8.9-9.4-8.9-3.3-.1-5.8 1.6-7.8 3.9-2.5 2.9-4.7 6.1-7.2 8.9-1.7 2-1.5 3.2.5 4.7 6.1 4.6 12.2 9.3 18.1 14.1 2.1 1.7 3.1 1.5 4.7-.6 2.8-3.8 2.9-3.7-.9-6.6-.8-.6-1.7-1.2-2.4-2-.6-.6-2-.8-1.2-2 .7-1 1.2-2.3 2.9-2s3.5.4 5.1 1c3.7 1.4 6.1-.1 8.1-3.2 1.3-2 1.4-3-1.3-3.3"/></svg>