<?xml version="1.0" encoding="utf-8"?>
<!-- Generator: Adobe Illustrator 28.2.0, SVG Export Plug-In . SVG Version: 6.00 Build 0)  -->
<svg version="1.1" id="Layer_1" xmlns="http://www.w3.org/2000/svg" xmlns:xlink="http://www.w3.org/1999/xlink" x="0px" y="0px"
	 viewBox="0 0 512 512" style="enable-background:new 0 0 512 512;" xml:space="preserve">
<style type="text/css">
	.st0{fill:#EDDA6F;}
	.st1{fill:#A4C45E;}
	.st2{fill:#4851A3;}
	.st3{fill:#65BBC5;}
	.st4{fill:#C683A0;}
	.st5{fill:#544A9E;}
	.st6{fill:#65BAC4;}
	.st7{fill:#60429A;}
	.st8{fill:#E46D62;}
	.st9{fill:#7592CA;}
	.st10{fill:#FFFFFF;}
</style>
<path class="st0" d="M101.1,158.2H21.6v223.5h79.6L101.1,158.2L101.1,158.2z"/>
<path class="st1" d="M180.3,158.2h-79.6v223.5h79.6V158.2z"/>
<path class="st2" d="M180.3,380.7h-79.6v30.8h79.6V380.7z"/>
<path class="st3" d="M259.4,158.2h-79.6v223.5h79.6V158.2z"/>
<path class="st4" d="M338.6,158.2H259v223.5h79.6V158.2z"/>
<path class="st5" d="M338.6,380.7H259v30.8h79.6V380.7z"/>
<path class="st6" d="M417.7,380.7h-79.6v30.8h79.6V380.7z"/>
<path class="st7" d="M496.9,380.7h-79.6v30.8h79.6V380.7z"/>
<path class="st8" d="M259.4,380.7h-79.6v30.8h79.6V380.7z M417.7,158.2h-79.6v223.5h79.6V158.2z"/>
<path class="st9" d="M101.1,380.7H21.6v30.8h79.6L101.1,380.7L101.1,380.7z M496.9,158.2h-79.6v223.5h79.6V158.2z"/>
<path class="st10" d="M498.5,142.4H288c13.5-14.2,41.2-43.1,44.8-47.1c2.7-3.1,1.9-6.5-0.2-8.5c-2.3-2.1-6.2-2.9-8.5-0.6
	c-2.5,2.5-54.2,50.6-60.2,56.2h-15.2c-6-5.6-57.9-53.7-60.2-56.2c-2.3-2.3-6.2-1.5-8.5,0.6c-2.1,2.1-2.9,5.4-0.2,8.3
	c3.5,3.7,31.2,32.9,44.8,47.1h-211c-4.6,0-8.3,3.7-8.3,8.3v268.1c0,4.6,3.7,8.3,8.3,8.3h485.1c4.6,0,8.3-3.7,8.3-8.3V150.7
	C506.9,146.1,503.1,142.4,498.5,142.4z M490.2,410.4H21.8V159h468.4L490.2,410.4L490.2,410.4z"/>
</svg>
