<svg xmlns="http://www.w3.org/2000/svg" xml:space="preserve" viewBox="0 0 512 512"><path d="M364.2 298.2c.1.3 7.8 21.9 8 22.4h-16c.2-.5 7.9-22.2 8-22.4m-162.9-53.7c14 0 36.4-39.2 36.4-47.8 0-5.5-3.1-8.6-8.4-8.6-16.2 0-32.6 28.7-32.6 49.4 0 5.8 1.7 7 4.6 7M403 192.7c0-3.6-2.5-6-6.1-6-8.7 0-18.3 14.3-21.5 20.2 17.5-.4 27.6-5.5 27.6-14.2M512 0v512H0V0zM350 235.4c0 11.8 7.7 20 18.7 20 13 0 26.7-12.4 30-16.7.2-.2.1-.5-.1-.7l-2.1-2.6c-.3-.2-.6-.2-.8-.1l-1.8 1.3c-4.3 3.2-12.3 9.2-18.1 9.2-7.3 0-11.8-4.6-11.8-12.1 0-9 4.4-15.8 7.6-20.7 0 0 .3-.5.4-.6.2 0 1.2.1 1.2.1l6.8.2c11.8 0 33.9-5.6 33.9-19.2 0-5.6-5.2-11.5-14.8-11.5-20.2.1-49.1 27.7-49.1 53.4m-4.4-84.8c-.1 3-13.8 37-13.8 37-7.4 18.3-19.8 50.2-20.2 57.7-.2 3.3.6 6 2.3 7.8 1.5 1.5 3.6 2.3 6.3 2.3 8.7 0 17.3-10.8 23-17.9l1-1.2c.2-.3.1-.5 0-.6 0-.1-2.5-3.2-2.5-3.2-.1-.1-.3-.2-.4-.2-.2 0-.3.1-.4.2l-.8.9c-6.2 6.8-9.6 10.6-12.4 10.7-.3 0-.8 0-1.2-.4q-.6-.6-.6-2.1c.2-3.8 6.4-21.6 18.9-54.6l9.1-23.6c4.8-12.3 7.2-18.5 7.2-19.3 0-.5-.1-1-.4-1.3-.4-.5-1.3-.7-2.5-.7H337c-.3 0-.6.2-.6.6l-.1 3.4c0 .3.2.5.4.6l4.7.4c3 .5 4.2 1.6 4.2 3.5m-83.7 51.1c0 .1.1.3.2.4l2.3 2.3c.1.1.2.2.4.2s.4-.1.5-.3l.7-.7.6-.7c2.6-3.2 7.9-9.9 10.6-9.9 1.5 0 2.3 1.5 2.3 4.2 0 6.7-7.3 27-12.2 40.5-2.8 7.6-4.7 13.1-4.7 14.2 0 1.5.6 2.1 1.8 2.1h6.3c1.3 0 1.8-.8 2.7-2.8 0-.1 3.1-7.4 4.9-11 12.5-25.6 19.4-38.7 24.7-43.8 3.5-3.4 6-4.9 7.8-4.8 1.4.1 2.3 1.1 3.2 2.2 1 1.2 2 2.5 3.9 2.6 1.3.1 2.5-.4 3.5-1.3 1.6-1.5 2.5-4 2.5-6.8 0-4.7-3.3-6.3-6.1-6.3-11.5 0-19.9 8.4-31.3 31.1-.3.6-1.1 2.2-1.3 2.1h-.2v-.5c0-.7.8-3.6 1.6-7.3 1.7-7 4-16.6 4-19.4 0-3.6-2-5.6-5.6-5.6-7.5 0-18.9 12.4-22.9 19-.1 0-.2.2-.2.3M184 240.8c0 10 5.5 14.5 10.9 14.5 6.8 0 16-2.3 27.6-20.1 0 0 2.6-4.3 2.9-4.3.1 0 .2 0 .3.1s.1.4 0 .8l-.9 2.1c-1.5 3.2-4.2 9-4.2 14.4 0 2.6.6 4.5 1.9 5.7 1.1 1.1 2.6 1.6 4.5 1.6 11-.2 20.5-14.4 24.1-19.7l.1-.3-.1-.4-2.4-2.8c-.3-.3-.6-.2-.9 0l-2.5 3c-3.2 4.1-7.3 9.1-9.8 9.1-.6 0-.9-.1-1.1-.3-.3-.3-.4-.9-.3-2.1.2-3.4 6.9-21 12.2-35.1 4-10.4 7.4-19.4 7.5-20.9 0-.3 0-1.4-1-1.9l-4.3-2.9-.2-.1c-.5-.3-1.1-.6-1.6-.4-1 .3-1.6 1.2-2.2 2.1-.7 1-1.3 2-2.5 2-1 0-2.1-.2-3.3-.5-1.7-.3-3.8-.8-6.6-.8-31.5-.1-48.1 42.5-48.1 57.2M141.4 150c0 2.9-3.3 12.1-7.8 24.9l-4.1 11.5c-3.5 10.1-8.9 24.3-13.7 36.8-5.7 14.9-10.2 26.7-10.2 28.3 0 1.9 1 2.4 5.2 2.4 4.6 0 6.7-.7 7.2-2.5 8-26.4 30.1-56.6 41.5-56.6 3.6 0 4.9 1.3 4.9 4.8 0 5.9-5 16.9-9.8 27.6-4.2 9.4-8.3 18.3-8.3 22.5 0 3.9 1.7 5.8 5.2 5.8 11.3 0 19.9-10.2 26.7-18.4l1-1.2.2-.4-.2-.4-2.3-2.8c0-.1-.2-.2-.3-.2-.2 0-.4 0-.5.2-3.9 4.1-10.4 10.2-12.3 10.5-.5 0-.9 0-1.1-.2-.3-.3-.3-.8-.2-1.8.1-.9 1.3-3.8 3-7.8 4.3-10.4 11.5-27.7 11.5-38 0-8.2-3.9-13-10.8-13-13.8 0-25 15.8-30.3 23.4-1.2 1.8-2.4 3.4-2.7 3.5-.1 0-.2 0-.2-.1-.2-.3.5-2.1 2-5.4 1.5-3.5 3.8-8.7 6.9-16.8 10.4-27.1 14.8-41.6 14.8-42.8 0-1.6-1.5-1.8-3-1.8h-21.2c-.3 0-.6.3-.6.6v3.4c0 .2.2.5.4.6l2.1.2 2.7.2c3.4.6 4.3 1.2 4.3 3M94.7 329.9c0-11.7-8.9-17-15.7-20.1l-2.7-1.2c-8.6-3.9-12.1-7.7-12.1-13.1 0-5.3 3.2-10.7 10.4-10.7 8.4 0 11.6 6.6 13.6 13.1v.2l3.6-.7v-.2c-.9-5.1-1.6-9.7-2-13.9v-.1l-2.4-.8-2.1-.6c-2.6-.9-6.2-1.5-9.5-1.5-13 0-22.2 8.2-22.2 19.9 0 9.9 7.9 15.4 15.6 19.4l3.3 1.6c7.7 3.8 10.9 7.8 10.9 13.8 0 6.8-4.4 11.6-10.7 11.6-10.1 0-15.7-10.5-18.2-16.8l-.1-.2-3.4 1.2v.2c1.1 6.4 2.3 13.3 3.1 16v.1l1.7.6 4.4 1.6c3 1.1 6.8 1.7 10.4 1.7 14.3.1 24.1-8.6 24.1-21.1m7.3-91.8-2.4-2.5c0-.1-.2-.2-.4-.2-.1 0-.3 0-.3.1l-.3.3c-4.3 4-12.6 10.7-20.1 11.2-2.9.2-5.5-.7-7.5-2.4-2.5-2.1-3.9-5.6-4.1-9.9-.5-11.2 9-28.1 18.5-38 5.1-5.3 9.8-8.3 13.2-8.3 4 0 6.4 2.9 8.8 5.8 2.1 2.5 4.1 4.8 6.9 4.8 1.1 0 2.3-.6 3.2-1.5 1-1.1 1.5-2.4 1.5-3.8-.2-4.4-4.2-11.3-14.2-11.5-11.4-.2-25.6 6.7-36.2 17.7-10.1 10.4-15.4 22.8-14.8 34.7.4 10.1 5.9 20.8 19.8 20.8 14.1 0 26.5-12.6 28.6-16.6 0-.2-.1-.5-.2-.7m63.4 92.4-3.2-.7-.1.1c-5.3 10.8-10.3 16.7-21.6 16.7-14.6 0-24.4-13-24.4-32.4 0-13.5 6.4-29.3 24.4-29.3 10.6 0 16.4 4.5 19.3 15.2v.1l3.3-.4-.5-4.6-1.5-12.1h-.1l-1.8-.4c-3.5-.8-9.4-2.2-16.8-2.2-23.6 0-40.1 15-40.1 36.6 0 17 11.8 34.2 38.3 34.2 6.8 0 15.8-2 19.5-3.1 1.9-4.2 4.2-12.9 5.3-17.3zm77.5-48.6h-29.8v3.2h.2c7.6.6 8.5 1.1 8.5 12.5v13.7h-31.1v-13.7c0-11.4.9-11.9 8.4-12.5h.2v-3.2h-30v3.2h.2c8.8.6 9.4 1.4 9.4 12.5v36.2c0 10.9-.7 11.8-9 12.5h-.1v3.2h30v-3.2h-.2c-7.8-.6-8.8-1.1-8.8-12.5v-17.4h31.1v17.4c0 11-.6 11.8-9.4 12.5h-.2v3.2h30.4v-3.2h-.2c-7.9-.6-8.7-1.1-8.7-12.5v-36.2c0-11 .6-11.8 8.9-12.5h.2zm75.3 68.3c9.5-32 17.4-54.4 17.5-54.6 3.4-9.4 4.2-9.8 10.7-10.4h.2V282h-24.2v3.2l3.8.3c2.1.2 3.1.6 3.7 1.4.3.5.5 1.1.5 2 0 1.1-.2 2.6-.8 4.6-.2 1-5.9 23.4-10.4 38.4-.9-2.1-18-49-18-49v-.1h-4.3s-15.4 48.4-15.7 49.1c-.7-2.2-12-40.1-12-40.1-.4-1.5-.6-2.6-.6-3.4 0-.7.1-1.1.4-1.5.5-.8 1.7-1.1 3.6-1.4l3.3-.2v-3.4h-28.3v3.2h.2c5.5.6 7.2 1.2 10 10l17.1 55.2h4.9l16.1-48.3c.8 2 17.6 48.2 17.6 48.2l.1.1h4.8zm83.1-3.9h-.2c-5.8-.6-7.3-1.1-10.8-10.5L377.2 300l-7-18.9h-.1l-4.4.5-21.1 54.2c-3.5 9.3-4.7 9.7-11 10.5h-.2v3.2h23.3v-3.2l-3-.4c-2.3-.3-3.4-.7-3.9-1.5-.3-.4-.4-.9-.4-1.5 0-1 .3-2.3.9-4.1l.6-1.7c1.3-4.1 2.9-8.7 4.1-11.4h18.9c2.2 5.6 4.6 11.7 5.6 14.7.4 1.3.7 2.3.7 3 0 .4-.1.7-.2 1-.4.6-1.3 1-3.2 1.3l-3 .5v3.2h27.6v-3.1zm17-90.9c11.8 0 26.7-11 26.7-23.4 0-7-4.3-12.8-8.2-17.9-3.3-4.4-6.4-8.5-6.4-12.7 0-5.7 3.2-9.4 8.2-9.4 2.5 0 4.5.9 6.5 1.9 2 .9 4.1 1.9 6.7 1.9 3.5 0 6.6-3.7 6.6-6.6 0-3.5-3.7-7.2-10-7.2-14.3 0-27.1 16.2-27.1 29 0 7 4.2 12.4 8 17.2 3 3.9 5.6 7.2 5.6 10.6 0 5.7-5.3 9.2-10.4 9.2s-8.7-3.2-11.5-5.8c-2.1-1.9-4-3.6-5.9-3.6-2.8 0-3.4 5.9-3.4 7.9 0 3.4 6.8 8.9 14.6 8.9m42.5 74.2c0-9.4-6.8-15.8-18.3-17.4 5.1-1.1 14.4-5.5 14.4-15 0-5.4-1.9-9.3-5.9-11.9-4-2.5-8.2-3.4-16-3.4h-28.8v3.2h.2c7.2.6 8.1 1.1 8.1 12.5v36.2c0 11.3-1 11.9-8.8 12.5h-.2v3.2h25.9c8.3 0 15.3-1.5 19.9-4.1 6.4-3.8 9.5-9 9.5-15.8m-31.2-14.2h-3.3v18.3c0 5.2.3 8.5 2 10.1 1.1 1 2.7 1.4 5.7 1.3 6.6 0 13.7-3.7 13.7-14.3-.1-9.8-6.7-15.4-18.1-15.4m14.9-16.8c0-11.5-9.9-12.4-12.9-12.4-3.4 0-4.4.3-4.7.5-.8.4-.8 2.2-.8 4.5v20.1h4c9.3 0 14.4-4.5 14.4-12.7" style="fill-rule:evenodd;clip-rule:evenodd;fill:#fff"/></svg>