<svg xmlns="http://www.w3.org/2000/svg" xml:space="preserve" viewBox="0 0 512 512"><path d="M287.2 331.6c61.6 0 111.6-49.8 111.6-111.2 0-61.5-50-111.3-111.6-111.3-34.1 0-64.6 15.2-85 39.2h-36.7c24.7-41.3 69.9-69 121.7-69 78.2 0 141.5 63.2 141.5 141.1 0 69.2-50 126.8-116 138.8l-137.1 55.4 65.6-92.9c14 6.4 29.6 9.9 46 9.9" style="fill:#d9d9d9"/><path d="M187.4 363.4c-51.7-29.2-86.7-84.5-86.7-148 0-93.8 76.3-169.9 170.4-169.9 52 0 98.6 23.2 129.8 59.9h56C419.3 42.3 350.2 0 271.1 0 151.8 0 55 96.4 55 215.4c0 78.9 42.5 147.8 106 185.4zm134.2 14.3c-1.9.6-3.8 1.1-5.7 1.7l-105.8 42.8c7.2 2.1 14.6 3.9 22.1 5.2L441.5 512l-99.2-140.3q-10.05 3.6-20.7 6m-76.8-162.3c0 10.1-8.2 18.3-18.3 18.3s-18.3-8.2-18.3-18.3 8.2-18.3 18.3-18.3 18.3 8.2 18.3 18.3m55.2 0c0 10.1-8.2 18.3-18.3 18.3s-18.3-8.2-18.3-18.3 8.2-18.3 18.3-18.3 18.3 8.2 18.3 18.3m55.3 0c0 10.1-8.2 18.3-18.3 18.3s-18.3-8.2-18.3-18.3 8.2-18.3 18.3-18.3c10 0 18.3 8.2 18.3 18.3" style="fill:#1976d2"/></svg>