<svg xmlns="http://www.w3.org/2000/svg" xml:space="preserve" viewBox="0 0 512 512"><path d="M122.3 429.5c-6.3 0-18.8-6.3-48.8-32.9-14.1-12.5-18.5-11.2-19.3-10.8-4 2.1-2.4 17.1-1.8 22.7.7 6.3 1.1 9.8-2.7 10.8-4.2 1.1-5.7-2.2-12.7-17.9-20.7-46.8-18.2-52.3.9-95.1 3.7-8.3 8.1-18.1 13-29.9 3.1-7.4 5.9-17.2 1.6-22.5-7.3-8.8-31.3-3.9-41.5-1.8-6.4 1.3-8.2 1.7-9.9-.3-.9-1-1.2-2.4-.9-3.8 4-13.4 25.4-43.9 56.8-53.6 2.6-.8 6.6-1.8 11.6-3 20.7-5.1 63.7-15.7 74.8-33.1 2.2-3.5 1.7-5.4 1.1-6.5-4.2-8-29.2-12-44-12.7-1.3-.1-2.6-.8-3.2-1.9-.7-1.2-.7-2.6-.1-3.8 22.9-45.4 100.7-29.7 133.1-20.8-70.3-75-70.2-75.1-67.5-78.6 1.2-1.5 3.5-1.9 5.2-1 141.7 81 201.7 96.3 224.2 102 10.3 2.6 15 3.8 16.9 8.7 10.8 27.7 41 45.5 52.4 44.4 2.9-.3 3.4-1.7 3.6-2.9 1-6.3 3.8-10.6 8.2-12.6 7.8-3.7 17.3 1.5 18.3 2.1.9.5 1.5 1.3 1.8 2.2l5.1 16c3.4-2.6 7.1-4.2 10.2-2.5 4.7 2.6 3.4 9.7 1.6 16.4-7 25.3-50.9 35.7-52.8 36.1-1 .2-2.1.1-3-.5s-1.5-1.4-1.7-2.5l-2-9c-29.6 7.9-31.8 1.8-32.7-.5-3-8.1-8.2-13.6-15.8-16.7-19.5-7.9-49.1 2.2-61.7 7.4l46.8 34.4c35.8-7.2 36.9-6 38.6-4.1.9 1.1 1.3 2.7.8 4-16.9 50-54.7 59.3-61.9 60.6-.8.5-1.8.7-2.7.5-4-.9-3.6-3.6-2.3-14.8 1.7-13.6-.9-23.4-7.7-30.1-17-16.5-57.4-10.4-84.1-6.4-19.9 3-29 4.4-31.7-1.3-5.7-12.1 29.4-37.8 50.9-52.1 1.8-1.2 4.3-.7 5.5 1.1s.7 4.3-1.1 5.5c-25 16.6-46.6 35.3-48 41.4 3.7.5 14.5-1.1 23.3-2.4 28.3-4.3 71-10.7 90.8 8.6 8.6 8.4 12 20.8 10.1 36.7-.2 2-.4 3.5-.5 4.7 10.4-2.9 36.1-13.5 50.2-49.3-6.7.9-19 3.1-30.1 5.4-1.1.2-2.2 0-3.1-.7l-53.7-39.5c-1.1-.8-1.7-2.2-1.6-3.5.1-1.4 1-2.6 2.2-3.2 1.8-.9 45.8-21.8 74.3-10.3 9.4 3.8 16.1 10.7 19.9 20.4 3.4.8 15.7-1.2 27.4-4.6 1-.3 2.2-.2 3.1.4s1.6 1.5 1.8 2.5l2 9.1c10.3-3 38.4-12.5 43.1-29.5.8-2.8 1.1-4.7 1.3-5.9-1.4 1-3 2.5-4.4 4-1 1-2.4 1.5-3.8 1.2s-2.5-1.3-2.9-2.6l-6.5-20.4c-2.5-1.1-6.9-2.5-9.7-1.2-1.9.9-3.2 3.2-3.8 6.8-.9 5.4-4.7 8.9-10.5 9.5-15.7 1.6-48.7-18.8-60.6-49.3-.4-1.1-5.6-2.4-11.5-3.9-21.8-5.5-77.8-19.9-206.4-91.4 16.2 17.7 42.5 45.9 62 66.8 1.2 1.3 1.4 3.3.4 4.8s-2.9 2.2-4.6 1.6c-1.1-.4-104.2-35.1-134.5 7.4 12.5 1.1 38 4.8 44.1 16.4 1.6 3 2.6 8-1.4 14.4-12.7 20-56.2 30.7-79.5 36.5-4.8 1.2-8.6 2.1-11.2 2.9-23.5 7.2-41.9 28.3-49 42.2 12.9-2.6 38.3-7.5 48.3 4.7 5.5 6.7 5.3 16.9-.4 30.6-5 11.9-9.4 21.7-13.1 30.1-18.4 41.3-20.1 45-1.4 87.4-.1-7.7 1.3-15.2 6.9-18.2 6.3-3.3 15.3.5 28.1 11.9 35.3 31.3 42.9 31 43.7 30.8-.4.1-1 .7-1 1l7.8-1.2c.4 2.4-.4 5.6-3.2 7.2-1.1.4-2.3.8-3.8.8m207.4-245.8c-10.5 0-22.6-8.1-36-24.1-1.3-1.6-1.2-3.8.2-5.3-.7-.9-.9-2-.7-3.2.4-2.1 2.5-3.5 4.7-3l51.1 10.7c1.1.2 2 .9 2.6 1.8s.7 2.1.4 3.1c-.2.7-4.7 16.6-18.1 19.5-1.4.4-2.8.5-4.2.5m-27.9-26.6c12.1 13.8 22.5 20.2 30.3 18.5 5.4-1.2 8.8-6.3 10.6-10z" style="opacity:.4157"/><path d="M121.8 426.3c-1.7 0-3.4-.8-4.5-2.2-1.7-2.2-41.4-55.5-29.2-109.7 5.9-26.5 23.2-48.4 51.4-65.2-5.2-1-11.4-2-14.5-2.5-8.5-1.3-10.8-1.6-11.6-5.7l-.8-3.8 3.3-2.1c103.7-65.5 175.8-26.9 178.8-25.2 2.7 1.5 3.7 4.9 2.2 7.6s-4.9 3.7-7.6 2.2c-.9-.5-63.9-33.6-154.5 17.2 16.5 2.8 21.8 4.9 22.7 10 .2 1.1.4 5-4.2 7.4C123 270 104.8 291.1 99 316.8c-11 49.2 26.8 100 27.2 100.5 1.9 2.5 1.4 6-1.1 7.8q-1.5 1.2-3.3 1.2m228.7 6.6c2.3-2.1 2.5-5.6.4-7.9s-5.6-2.5-7.9-.4c-89.1 80.8-167.3 26.3-170.6 23.9-2.5-1.8-6-1.2-7.8 1.3s-1.2 6 1.3 7.8c.5.4 31 21.8 75.6 21.8 31.2 0 69.4-10.6 109-46.5"/><path d="M293.3 438.5c-58.2 0-89.3-17.8-105.8-34.8-20-20.6-28.3-50.5-22.7-81.9 8.2-46.4 53.9-74.5 55.9-75.7 2.6-1.6 6.1-.8 7.7 1.9 1.6 2.6.8 6.1-1.9 7.7-.4.3-43.3 26.7-50.7 68.1-2.9 16.3-4.2 47.4 19.7 72.1 27.2 28 78.2 37.5 147.7 27.5 3.1-.4 5.9 1.7 6.3 4.7.4 3.1-1.7 5.9-4.7 6.4-19.1 2.7-36.2 4-51.5 4" style="opacity:.5647"/></svg>