<?xml version="1.0" encoding="utf-8"?>
<!-- Generator: Adobe Illustrator 28.2.0, SVG Export Plug-In . SVG Version: 6.00 Build 0)  -->
<svg version="1.1" id="svg44" xmlns:svg="http://www.w3.org/2000/svg"
	 xmlns="http://www.w3.org/2000/svg" xmlns:xlink="http://www.w3.org/1999/xlink" x="0px" y="0px" viewBox="0 0 512 512"
	 style="enable-background:new 0 0 512 512;" xml:space="preserve">
<path d="M28.7,138.3L136.4,325l3.4,5.8l0.1-0.1c25.3,39.2,69.2,63.2,116,63.2c28.4,0,55.8-8.9,78.5-24.6l-57.1,98.8L252.2,512
	C112.8,509.9,0,395.9,0,256C0,215,9.9,174.5,28.7,138.3z M256,0C166.2,0,82.4,47.7,36.2,124.7l82.2,142.4c-0.3-3.7-0.4-7.4-0.4-11.1
	c0-76.1,61.9-138,138-138h215.6C424.7,44.9,343.1,0,256,0z M512,256c0-43.7-11.2-86.7-32.4-124.7H315.2
	C361.7,153.5,394,201.1,394,256c0,22-5.3,43.7-15.3,63.1l0.1,0.1l-3.3,5.8L267.7,511.7C403.5,505.6,512,393.3,512,256z M362.7,256
	c0-58.9-47.8-106.7-106.7-106.7S149.3,197.1,149.3,256S197.1,362.7,256,362.7S362.7,314.9,362.7,256"/>
</svg>
