<?xml version="1.0" encoding="utf-8"?>
<!-- Generator: Adobe Illustrator 28.2.0, SVG Export Plug-In . SVG Version: 6.00 Build 0)  -->
<svg version="1.1" id="Layer_1" xmlns="http://www.w3.org/2000/svg" xmlns:xlink="http://www.w3.org/1999/xlink" x="0px" y="0px"
	 viewBox="0 0 512 512" style="enable-background:new 0 0 512 512;" xml:space="preserve">
<style type="text/css">
	.st0{fill:#FFFFFF;}
</style>
<path class="st0" d="M509.6,151.1c-3.5-9.9-10.6-19.9-20.1-28.1c-9.5-8.3-20.3-14-30.6-16.1c-12-2.5-22.1,0.1-28.4,7.3
	c-6.3,7.2-7.5,17.5-3.4,29.1c1.2,3.5,3,7.1,5.1,10.5l-101.8,39.6c-0.3-0.7-0.6-1.4-0.9-2.1c-4.1-9.1-11.7-18.5-21.4-26.4
	c-9.6-7.9-20.8-13.3-31.6-15.3c-12.2-2.2-22.4,0.4-28.1,7.3l0,0l-38.7,44.9L194,190.6l29-36.6L117.1,93.1l-55.3,69.5l93.5,76.8
	l27.9-35.2l15.3,10.8l-20.7,24.1c-6.2,0.2-11.6,2-16,5.4l-0.1-0.1l-39.4,31.3l-68.6,27.2c-1-1-2-2-3.1-2.9
	c-7.1-6.2-15.3-10.5-23.1-12.1c-9.4-2-17.7,0.2-22.7,6c-5,5.8-6.1,14.3-2.9,23.3c2.6,7.5,8,15,15.1,21.3C24,344.7,32.2,349,40,350.6
	c4.5,0.9,8.7,0.9,12.5,0c4.1-1,7.6-3,10.2-6c5-5.8,6.1-14.3,2.9-23.3c-0.4-1.3-1-2.5-1.6-3.8l41.4-16.4c0.4,5.4,2.5,12.2,7.2,20.7
	c7.1,12.7,18.9,26.5,33.2,39.1c14.3,12.6,29.6,22.5,43,27.9c11.7,4.7,20.1,5.3,26,3.9c4.6-1.1,7.7-3.4,9.8-5.7
	c1.2-1.4,2.4-3.2,3.2-5.3l28.1-58.2c1.9-3.5,3.3-8.2,3-14.1l26.6-34.3l15.4,10.9l-34.8,44l109,89.2l93.9-118.7l-123.6-70.8
	l-33.7,42.6l-15.5-11l33.3-43l-0.1-0.1c1.4-2,2.4-4.3,3-6.8L443.7,168c1.2,1.1,2.4,2.3,3.6,3.4c9.5,8.3,20.3,14,30.6,16.1
	c5.8,1.2,11.2,1.2,15.9,0.1c5-1.2,9.2-3.7,12.5-7.4C512.5,173,513.7,162.7,509.6,151.1L509.6,151.1z M49.7,333.2
	c-0.5,0.6-2.5,1.2-6.1,0.4c-4.8-1-10.4-4-15.2-8.2c-4.8-4.2-8.5-9.3-10.2-13.9c-1.2-3.4-0.9-5.5-0.4-6.1c0.2-0.2,0.6-0.4,1.2-0.6
	c1-0.2,2.7-0.3,4.9,0.2c4.8,1,10.4,4,15.2,8.2c4.8,4.2,8.5,9.3,10.2,13.9C50.5,330.5,50.2,332.6,49.7,333.2z M442.9,305.3l-70.4,89
	l-35.6-29.1l65.7-83L442.9,305.3L442.9,305.3z M349.8,252l37.5,21.4l-63.9,80.7l-33-27L349.8,252L349.8,252z M86.1,160l35.4-44.4
	l25.4,14.6l-38.2,48.3L86.1,160L86.1,160z M152.6,214.7l-30.6-25.1l40-50.6l34.7,20L152.6,214.7L152.6,214.7z M211.6,375.4
	c-0.7,0.5-5.7,1.7-17.2-3.1c-11.5-4.8-24.6-13.5-37.1-24.4c-12.5-11-22.8-22.9-29-33.7c-6.3-10.8-5.8-16-5.3-16.6
	c0.1-0.1,0.4-0.2,0.8-0.3c1.9-0.4,6.9-0.5,16.4,3.4c2.9,1.2,6,2.7,9.1,4.4c-1.7,6.9,5.4,19.4,17.6,30.1c12.5,11,26.1,16.3,32.6,13.4
	c2.6,3.5,4.9,6.9,6.8,10.2C212.6,369.6,212.1,374.7,211.6,375.4L211.6,375.4z M185.9,309.5c-13.4-11.4-27.5-20.3-40.1-25.3
	c-1.5-0.6-2.9-1.1-4.2-1.6l30.4-24.2l0.1,0.1c2.8-2.4,8.4-2.6,15.2-0.6c8.5,2.5,18.3,8.3,27.8,16.2L185.9,309.5L185.9,309.5z
	 M216.9,253.6c-6.7-4.7-13.3-8.2-19.6-10.6l23-26.7c1.6-1.3,5.8-2.1,11.9-1c4.1,0.7,8.4,2.2,12.6,4.3L216.9,253.6L216.9,253.6z
	 M235.9,198.2l26.2-30.4l0,0c1-1.1,4.8-2.4,11.4-1.2c4.3,0.8,8.9,2.5,13.4,4.8L257,206.3C250.1,202.3,242.9,199.6,235.9,198.2z
	 M493.1,168.8c-4,4.5-19.3,2.7-34.4-10.5c-15.1-13.2-19-28.2-15-32.7c0.8-0.9,1.9-1.5,3.5-1.9c6.4-1.5,18.8,1.7,31,12.4
	C493.2,149.3,497.1,164.2,493.1,168.8z"/>
</svg>
