<?xml version="1.0" encoding="utf-8"?>
<!-- Generator: Adobe Illustrator 28.2.0, SVG Export Plug-In . SVG Version: 6.00 Build 0)  -->
<svg version="1.1" id="Layer_1" xmlns="http://www.w3.org/2000/svg" xmlns:xlink="http://www.w3.org/1999/xlink" x="0px" y="0px"
	 viewBox="0 0 512 512" style="enable-background:new 0 0 512 512;" xml:space="preserve">
<g>
	<path d="M464.5,271.6c-5,25.2-12.7,48.8-23,70.4c-32.6,1.4-65.3,2.4-97.6,3c0.2-22.8,0.4-46.5,0.5-70.9
		C384.2,273.7,424.5,272.8,464.5,271.6 M485,253.7c-52.5,1.8-105.2,2.9-157.8,3.4c-0.1,32.4-0.4,68.6-0.8,105.6
		c42-0.6,84-1.9,126-3.8C471.3,322.5,480.6,285.7,485,253.7L485,253.7z"/>
	<path d="M344.6,149.6c41.8,0.8,84.1,2.1,126.2,4c0.1,4.2,0.1,8.2,0.2,11.9c0,2.4,0.1,5.2,0.2,8.4c0.3,11.3,0.9,28.7-0.5,49.9
		c-42,1.3-84.3,2.2-126.1,2.8C344.7,194.3,344.7,167.5,344.6,149.6 M327.3,132.1c0,15.7,0.1,57.8-0.1,112
		c53.1-0.5,106.3-1.7,159.4-3.5c3.7-35.5,1.8-63.3,1.6-75.2c-0.1-8.6-0.3-18.2-0.5-28.2C434.4,134.5,380.8,132.8,327.3,132.1z"/>
	<path d="M411.6,390.8c-18.8,24.3-41.9,45.3-69.2,62.9c0.4-19.2,0.7-39.6,0.9-61C366,392.3,388.8,391.7,411.6,390.8 M445,372.3
		c-39.6,1.7-79.2,2.9-118.7,3.5c-0.4,36.5-1,73.5-1.8,108.4C382.9,453.7,420.6,413.7,445,372.3z"/>
	<path d="M165.3,149.8c0,17.9,0,44.6,0.1,76.7c-40.9-0.6-82.5-1.5-124.1-2.8c-1.4-21.1-0.8-38.5-0.5-49.7c0.1-3.3,0.2-6.1,0.2-8.4
		c0-3.7,0.1-7.6,0.2-11.7C82.8,151.9,124.4,150.6,165.3,149.8z M182.6,132.2c-52.4,0.8-105.3,2.5-158.4,5.1c-0.2,10-0.4,19.5-0.5,28
		c-0.1,11.9-2.1,39.7,1.6,75.1c52.8,1.8,105.3,3,157.3,3.5C182.5,189.9,182.6,147.9,182.6,132.2z"/>
	<path d="M47.5,271.5c39.5,1.2,79.1,2.1,118.1,2.6c0.1,24.4,0.3,48.1,0.5,70.8c-31.5-0.7-63.6-1.7-95.7-3.1
		C60.2,320.2,52.5,296.6,47.5,271.5 M27,253.5c4.4,31.9,13.7,68.8,32.5,105.1c41.6,1.9,83,3.2,124.1,3.9c-0.4-37-0.6-73.1-0.8-105.5
		C131.2,256.4,79.2,255.3,27,253.5L27,253.5z"/>
	<path d="M100.2,390.7c22.3,0.8,44.5,1.4,66.4,1.9c0.3,21,0.6,41,0.9,59.9C141.1,435.1,118.5,414.4,100.2,390.7z M66.8,372
		c24.1,41.1,61.3,80.7,118.6,111c-0.8-34.6-1.3-71.3-1.7-107.5C145,374.9,106,373.7,66.8,372z"/>
	<path d="M256.1,17.3c78.3,0,152.5,6.7,210.8,18.9c1,21.2,2,45.8,2.7,69.7c-49.6-2.2-99.5-3.6-148.5-4.2l-6.6-0.1l-17.6-0.2L297,119
		v6.6c0,2,0.7,197.2-2.7,353.9c-12.2,5.3-25,10.1-38.3,14.5c-14-4.5-27.6-9.7-40.3-15.4c-3.3-155.3-2.7-350.9-2.7-352.9v-6.6
		l0.1-17.6l-17.6,0.3l-6.6,0.1c-48,0.7-97.2,2.1-146.5,4.3c0.7-24,1.7-48.6,2.7-69.9C103.5,23.9,177.8,17.3,256.1,17.3 M256.1,0
		C174,0,92,7.4,28.5,22.1c-1.5,29.1-3,67.6-3.9,102.1c55.2-2.6,110.1-4.4,164.5-5.1l6.6-0.1v6.6c0,2.6-0.7,206.8,2.9,364.1
		c17.2,8.3,36.1,15.7,56.9,22.1l0.5,0.2l0.5-0.2c19.9-6.2,38.2-13.3,54.8-21.2c3.6-157.5,2.9-362.6,2.9-365.2v-6.6l6.6,0.1
		c55.5,0.7,111.1,2.4,166.6,5.1c-0.9-34.4-2.4-72.9-3.9-101.9C420.1,7.4,338.1,0,256.1,0L256.1,0z"/>
</g>
</svg>
