<svg xmlns="http://www.w3.org/2000/svg" xml:space="preserve" viewBox="0 0 512 512"><path d="M215.5 327.9 174.9 256l40.6-71.9h80.9L337 256l-40.6 71.9z" style="fill:#e83030"/><path d="m215.5 501.7-40.6-71.9 40.6-71.9h80.9l40.6 71.9-40.6 71.9z" style="fill:#6b91c7"/><path d="m215.5 154-40.6-71.9 40.6-71.9h80.9L337 82.1 296.4 154z" style="fill:#f9c31f"/><path d="m365.7 414.8-40.6-71.9 40.6-71.9h80.9l40.6 71.9-40.6 71.9z" style="fill:#795aa5"/><path d="M365.7 240.9 325.1 169l40.6-71.9h80.9l40.6 71.9-40.6 71.9z" style="fill:#f17423"/><path d="m65.4 414.8-40.6-71.9L65.4 271h80.9l40.6 71.9-40.6 71.9z" style="fill:#97c639"/><path d="M65.4 240.9 24.8 169l40.6-71.9h80.9l40.6 71.9-40.6 71.9z" style="fill:#c9db70"/><path d="M302.4 338.1h-92.9L163.1 256l46.4-82.1h92.9l46.4 82.1zm-80.9-20.5h68.9l34.8-61.6-34.8-61.6h-68.9L186.7 256zM302.4 512h-92.9l-46.4-82.1 46.4-82.1h92.9l46.4 82.1zm-80.9-20.6h68.9l34.8-61.6-34.8-61.6h-68.9l-34.8 61.6zm80.9-327.1h-92.9l-46.4-82.1L209.5 0h92.9l46.4 82.1zm-80.9-20.6h68.9l34.8-61.6-34.8-61.6h-68.9l-34.8 61.6zm231.1 281.4h-92.9L313.3 343l46.4-82.1h92.9L499 343zm-80.9-20.6h68.9l34.8-61.6-34.8-61.6h-68.9l-34.8 61.6zm80.9-153.3h-92.9l-46.4-82.1L359.7 87h92.9l46.4 82.1zm-80.9-20.6h68.9l34.8-61.6-34.8-61.6h-68.9L336.9 169zM152.3 425.1H59.4L13 342.9l46.4-82.1h92.9l46.4 82.1zm-80.9-20.6h68.9l34.8-61.6-34.8-61.6H71.4l-34.8 61.6zm80.9-153.3H59.4L13 169.1 59.4 87h92.9l46.4 82.1zm-80.9-20.6h68.9l34.8-61.6-34.8-61.6H71.4L36.6 169z" style="fill:#141a1f"/></svg>