<svg xmlns="http://www.w3.org/2000/svg" xml:space="preserve" viewBox="0 0 512 512"><path d="M405.1 460.4c-42 29.6-93.5 47-149.1 47C114.6 507.5 0 394.9 0 256S114.6 4.5 256 4.5 512 117.1 512 256c0 21.4-3.7 49.2-7.9 62-13.6 41.3-50.6 62.2-117.8 61.1-6.4-.1-132.5 0-132.5 0-78.3 0-126.4-53.8-126.4-121.4s49.8-120.3 128.1-120.3 129.7 52.7 129.2 120.3l-64.9-.5c.6-30.8-19-62.6-64.9-62.6s-62.6 31.9-62.6 62.6c0 30.8 20.7 60.4 66.5 60.4 0 0 162.5 6.9 172.4 0s10.9-40 10.9-61.6c0-101-83.3-182.8-186.1-182.8S69.9 155 69.9 256 153.2 438.8 256 438.8c33.7 0 65.2-8.8 92.5-24.1 45.3 35.6 56.7 45.8 56.6 45.7" style="fill-rule:evenodd;clip-rule:evenodd"/></svg>