<?xml version="1.0" encoding="utf-8"?>
<!-- Generator: Adobe Illustrator 28.2.0, SVG Export Plug-In . SVG Version: 6.00 Build 0)  -->
<svg version="1.1"
	 id="Layer_1" xmlns:cc="http://creativecommons.org/ns#" xmlns:dc="http://purl.org/dc/elements/1.1/" xmlns:rdf="http://www.w3.org/1999/02/22-rdf-syntax-ns#"
	 xmlns="http://www.w3.org/2000/svg" xmlns:xlink="http://www.w3.org/1999/xlink" x="0px" y="0px" viewBox="0 0 512 512"
	 style="enable-background:new 0 0 512 512;" xml:space="preserve">
<style type="text/css">
	.st0{fill:#004685;}
	.st1{fill:#EE1C25;}
</style>
<g transform="translate(-109.82969,-563.50386)">
	<g transform="matrix(8.5031131,0,0,-8.5031131,-3071.7606,1310.7362)">
		<g>
			<g transform="translate(385.01691,69.543594)">
				<path class="st0" d="M7.5-23.7l-0.1-0.1c-1.7-1.8-3.8-2.7-5.8-2.7c-4.3,0-7.5,3.2-7.5,7.7c0,4.5,3.1,7.7,7.5,7.7
					c2.1,0,4.1-0.9,5.8-2.7l0.1-0.1l2.8,3.4l-0.1,0.1C7.9-7.7,5.1-6.3,1.7-6.3c-3.4,0-6.6-1.2-8.8-3.2c-2.5-2.3-3.7-5.4-3.7-9.2
					s1.3-6.9,3.7-9.2c2.3-2.1,5.4-3.2,8.8-3.2c3.4,0,6.2,1.3,8.5,4.1l0.1,0.1L7.5-23.7"/>
			</g>
		</g>
		<path class="st0" d="M398.1,38.8h4.9v24h-4.9V38.8"/>
		<g>
			<g transform="translate(402.22749,68.4785)">
				<path class="st0" d="M20.1-24.4c-1.3-0.8-2.5-1.2-3.6-1.2c-1.6,0-2.3,0.8-2.3,2.7v12.7h5v4.5h-5v7.5L9.3-0.8v-4.9H5.2v-4.5h4.2
					v-13.5c0-3.7,2.2-6.2,5.5-6.3c2.2,0,3.6,0.6,4.4,1.1l0.1,0l1.2,4.6L20.1-24.4"/>
			</g>
		</g>
		<path class="st0" d="M426.4,38.8h4.9v24h-4.9V38.8"/>
		<g transform="translate(409.08369,81.770294)">
			<path class="st1" d="M25.1-14.7C20.6-8.4,13.1-4.6,5.5-4.6c-7.6,0-15-3.8-19.5-10.2l-0.2-0.3h5.7l0.1,0.1c3.8,4,8.9,6.1,14,6.1
				s10.2-2.1,14-6.1l0.1-0.1h5.7L25.1-14.7"/>
		</g>
	</g>
</g>
</svg>
