<?xml version="1.0" encoding="utf-8"?>
<!-- Generator: Adobe Illustrator 28.2.0, SVG Export Plug-In . SVG Version: 6.00 Build 0)  -->
<svg version="1.1"
	 id="Layer_1" xmlns:dc="http://purl.org/dc/elements/1.1/" xmlns:cc="http://creativecommons.org/ns#" xmlns:rdf="http://www.w3.org/1999/02/22-rdf-syntax-ns#"
	 xmlns="http://www.w3.org/2000/svg" xmlns:xlink="http://www.w3.org/1999/xlink" x="0px" y="0px" viewBox="0 0 512 512"
	 style="enable-background:new 0 0 512 512;" xml:space="preserve">
<style type="text/css">
	.st0{fill:#FFFFFF;}
</style>
<path class="st0" d="M156,357.4l-0.9,0.9c-14.5,15.3-32.3,23-49.3,23c-36.6,0-63.8-27.2-63.8-65.5s26.4-65.5,63.8-65.5
	c17.9,0,34.9,7.7,49.3,23l0.9,0.9l23.8-28.9l-0.9-0.9c-19.6-23-43.4-34.9-72.3-34.9s-56.1,10.2-74.8,27.2
	c-21.3,19.6-31.5,45.9-31.5,78.2s11.1,58.7,31.5,78.2c19.6,17.9,45.9,27.2,74.8,27.2s52.7-11.1,72.3-34.9l0.9-0.9L156,357.4
	 M203.5,417.3h41.7V213.2h-41.7V417.3 M409.5,372.4c-11.1,6.8-21.3,10.2-30.6,10.2c-13.6,0-19.6-6.8-19.6-23v-108h42.5v-38.3h-42.5
	v-63.8l-41.7,22.1v41.7h-34.9v38.3h35.7v114.8c0,31.5,18.7,52.7,46.8,53.6c18.7,0,30.6-5.1,37.4-9.4h0.9l10.2-39.1L409.5,372.4
	 M444.1,417.3h41.7V213.2h-41.7V417.3 M510.3,176.9C472.1,123.4,408.3,91,343.7,91s-127.5,32.3-165.8,86.7l-1.7,2.6h48.5l0.9-0.9
	c32.3-34,75.7-51.9,119-51.9s86.7,17.9,119,51.9l0.9,0.9h48.5L510.3,176.9"/>
</svg>
