<svg xmlns="http://www.w3.org/2000/svg" xml:space="preserve" viewBox="0 0 512 512"><path d="m156 357.4-.9.9c-14.5 15.3-32.3 23-49.3 23-36.6 0-63.8-27.2-63.8-65.5s26.4-65.5 63.8-65.5c17.9 0 34.9 7.7 49.3 23l.9.9 23.8-28.9-.9-.9c-19.6-23-43.4-34.9-72.3-34.9s-56.1 10.2-74.8 27.2C10.5 256.3.3 282.6.3 314.9s11.1 58.7 31.5 78.2c19.6 17.9 45.9 27.2 74.8 27.2s52.7-11.1 72.3-34.9l.9-.9zm47.5 59.9h41.7V213.2h-41.7zm206-44.9q-16.65 10.2-30.6 10.2c-13.6 0-19.6-6.8-19.6-23v-108h42.5v-38.3h-42.5v-63.8l-41.7 22.1v41.7h-34.9v38.3h35.7v114.8c0 31.5 18.7 52.7 46.8 53.6 18.7 0 30.6-5.1 37.4-9.4h.9l10.2-39.1zm34.6 44.9h41.7V213.2h-41.7zm66.2-240.4C472.1 123.4 408.3 91 343.7 91s-127.5 32.3-165.8 86.7l-1.7 2.6h48.5l.9-.9c32.3-34 75.7-51.9 119-51.9s86.7 17.9 119 51.9l.9.9H513z" style="fill:#fff"/></svg>