<svg xmlns="http://www.w3.org/2000/svg" xml:space="preserve" id="clamav_svg__Layer_1" x="0" y="0" version="1.1" viewBox="0 0 512 512"><style>.clamav_svg__st1{fill:#232323}</style><radialGradient id="clamav_svg__SVGID_1_" cx="2125.972" cy="2185.093" r="737.591" fx="2125.705" fy="1559.037" gradientTransform="translate(-448.685 -469.342)scale(.3317)" gradientUnits="userSpaceOnUse"><stop offset=".2" style="stop-color:#e03c3b"/><stop offset=".652" style="stop-color:#e03c3b"/><stop offset=".722" style="stop-color:#dd3c3b"/><stop offset=".775" style="stop-color:#d33b3a"/><stop offset=".822" style="stop-color:#c33938"/><stop offset=".866" style="stop-color:#ac3736"/><stop offset=".908" style="stop-color:#8e3434"/><stop offset=".949" style="stop-color:#6a3030"/><stop offset=".987" style="stop-color:#3f2c2c"/><stop offset="1" style="stop-color:#2f2a2b"/></radialGradient><path d="M15.9 267.8c0-132.9 107.7-240.6 240.6-240.6s240.6 107.7 240.6 240.6-107.7 240.6-240.6 240.6c-132.8 0-240.6-107.7-240.6-240.6" style="fill:url(#clamav_svg__SVGID_1_)"/><path d="M256.5 510.6c-64.9 0-125.8-25.3-171.7-71.1C39 393.6 13.7 332.7 13.7 267.8S39 142 84.8 96.1C130.7 50.2 191.7 25 256.5 25s125.8 25.3 171.7 71.1c45.9 45.9 71.1 106.8 71.1 171.7S474 393.6 428.2 439.5s-106.8 71.1-171.7 71.1m0-481.2c-131.4 0-238.4 106.9-238.4 238.4 0 131.4 106.9 238.4 238.4 238.4 63.7 0 123.5-24.8 168.6-69.8s69.8-104.9 69.8-168.6c0-131.5-106.9-238.4-238.4-238.4" class="clamav_svg__st1"/><path d="M81.7 330.5c-4-25.4 6.2-43.2 16.3-53.1 4.6-4.5 10-8.6 14.9-8.4 7.2-.6 44.7 26.8 94.9 57.3 26.1 18.9 38.3 21.1 38.2 29.5v-1.3c-3.3 21-20.5 46.3-44.4 52.3-57.6 17.4-107.9-18.7-119.9-76.3m349.6 0c4-25.4-6.2-43.2-16.3-53.1-4.6-4.5-10-8.6-14.9-8.4-7.2-.6-44.7 26.8-94.9 57.3-26.1 18.9-38.3 21.1-38.2 29.5v-1.3c3.3 21 20.5 46.3 44.4 52.3 57.7 17.4 108-18.7 119.9-76.3" class="clamav_svg__st1"/><path d="M274.4 348.7c-4.2 2.3-5 4.3-3.7 8.8 3.5 11.9 8.6 21.3 15.3 28.6 16 17.5 40.5 22.2 70.5 18.9 25.6-4.1 38-12 57-35.7 8.4-16.7 19.4-40.5 6.9-68.1-3.5-7.7-8.9-14-15.3-19.5-2.4-2-4.3-2.1-7-.6-11.7 6.4-100.8 55.3-123.7 67.6m-35.2 0c4.2 2.3 5 4.3 3.7 8.8-3.5 11.9-8.6 21.3-15.3 28.6-16 17.5-40.5 22.2-70.5 18.9-25.6-4.1-38-12-57-35.7-8.4-16.7-19.4-40.5-6.9-68.1 3.5-7.7 8.9-14 15.3-19.5 2.4-2 4.3-2.1 7-.6 11.8 6.4 100.8 55.3 123.7 67.6" style="fill:#fff"/><path d="M358.1 379.3c-41 12-79.4-3-79.4-3s18 31.9 62.2 31.7c50.8-3.9 70.5-32.1 79.3-50.5 8.7-18.4 6.4-35.3 5-41.8-1.5-6.5-6.9 46.3-67.1 63.6m-202.6 0c41 12 79.4-3 79.4-3s-18 31.9-62.2 31.7c-50.8-3.9-70.5-32.1-79.3-50.5-8.7-18.4-6.4-35.3-5-41.8 1.5-6.5 6.9 46.3 67.1 63.6" style="fill:#dadada"/><path d="M6.5 34.3c-.6-6.7-1.1-13.4-1.3-20C25 57.2 58.4 95.2 86.5 113.5c7.3 4.7 16.2 7.2 23.4 9 15.9 4 22.1.7 23.5-1.6 1.3-2.1 1-5.1-.8-8.6-2.4-4.6-6.8-6.8-13.4-6.8-5.3 0-11.3 1.5-16.7 2.7-11.4 2.6-12.8 1.2-12.8 1.2C65 93.2 30.5 62.2 6.2 5.7c-1.5-3.6-2-4.6-3.9-4.2C.4 1.8.5 3.7.5 3.7c-2.6 26.9 4.6 102.7 45.2 160.9 2.7 3.9 5 6.9 6 9.7 3.5 9.7-2.4 20-2.4 20-7.2 14.4-1.8 47 12.1 48.1 8.1.6 13-12.2 16.9-18.2 3.8-5.9 17.3-21.4 25.5-30.3 8.3-8.9 10.5-15.1 1.7-21.2-5.2-3.6-9.8-5.8-9.8-5.8S70 151.4 44.1 117.4C13.7 77.6 6.5 34.3 6.5 34.3m499.1 0c.6-6.7 1.1-13.4 1.3-20-19.8 42.9-53.2 80.9-81.3 99.2-7.3 4.7-16.2 7.2-23.4 9-15.9 4-22.1.7-23.5-1.6-1.3-2.1-1-5.1.8-8.6 2.4-4.6 6.8-6.8 13.4-6.8 5.3 0 11.3 1.5 16.7 2.7 11.4 2.6 12.8 1.2 12.8 1.2C447 93.2 481.5 62.2 505.8 5.7c1.5-3.6 2-4.6 3.9-4.3 1.9.4 1.8 2.3 1.8 2.3 2.6 26.9-4.6 102.7-45.2 160.9-2.7 3.9-5 6.9-6 9.7-3.5 9.7 2.4 20 2.4 20 7.2 14.4 1.8 47-12.1 48.1-8.1.6-13-12.2-16.9-18.2-3.8-5.9-17.3-21.4-25.5-30.3-8.3-8.9-10.5-15.1-1.7-21.2 5.2-3.6 9.8-5.8 9.8-5.8s25.6-15.5 51.6-49.6c30.4-39.7 37.7-83 37.7-83" class="clamav_svg__st1"/><path d="M353.6 349.6c5.1 23.6 4.4 52.4 4.4 52.4 0 1.5 0 1.5 1 4.8 7.5-14.2 11.7-29.1 13.3-44.7 2-20.2-.9-36.8-10.4-61.3-6.3-11.5-12.7-22.9-21.6-32.9-13.5-15-19.3-10.5-34.9-1.9-1.5 1.1-4.6 4.2-4.6 4.2 17 10.8 40.9 28.2 52.8 79.4m-194.2 0c-5.1 23.6-4.4 52.4-4.4 52.4 0 1.5 0 1.5-1 4.8-7.5-14.2-11.7-29.1-13.2-44.7-2-20.2.9-36.8 10.4-61.3 6.3-11.5 12.7-22.9 21.6-32.9 13.5-15 19.3-10.5 34.9-1.9 1.5 1.1 4.6 4.2 4.6 4.2-17.1 10.8-41 28.2-52.9 79.4" style="fill:#020202"/><path d="M111 181.9c7.3-4.6 15.2-13 19.8-26.8 7-22.2 1.2-32.8 1.2-32.8s-6.2 4.8-22.2.2c-16.6-4.9-24.1-5.7-53.7-34.6-34.5-35.2-51-73.6-51-73.6s0 10 1.3 20c0 0 7.3 44 38.5 84.1 20.3 26.1 41.3 42.7 50.7 48.5 11.3 7 15.4 8.6 15.4 15m290 0c-7.3-4.6-15.2-13-19.8-26.8-7-22.2-1.2-32.8-1.2-32.8s6.2 4.8 22.2.2c16.6-4.9 24.1-5.7 53.7-34.6 34.5-35.2 51-73.6 51-73.6s0 10-1.3 20c0 0-7.3 44-38.5 84.1-20.3 26.1-41.3 42.7-50.7 48.5-11.3 7-15.4 8.6-15.4 15" style="fill:#e03a36"/></svg>