<svg xmlns="http://www.w3.org/2000/svg" xml:space="preserve" viewBox="0 0 512 512"><path d="M470.1 115.6C422.8 43.4 342.3 0 256 0S89.2 43.4 41.9 115.6s-55 163.4-20.6 242.5c0 0 0 .1.1.1C62 451.6 154.2 512 256 512s194-60.4 234.6-153.7c0 0 0-.1.1-.1 34.5-79.2 26.7-170.4-20.6-242.6M256 494.9c-92.8-.1-177.1-53.8-216.4-137.8 54-31.7 132.3-49.9 216.4-49.9s162.4 18.1 216.4 49.9c-39.3 84-123.6 137.7-216.4 137.8m-85.8-252.1c18.9-29 51.2-46.6 85.8-46.5 4.7 0 8.5 3.8 8.5 8.5s-3.8 8.5-8.5 8.5c-28.9 0-55.8 14.6-71.5 38.8-1.7 2.6-4.6 4-7.6 3.9-1.5-.1-3-.6-4.2-1.4-4-2.6-5.1-7.9-2.5-11.8m309 98.4c-27.3-15.2-56.5-26.8-86.9-34.4.2-2.7.2-5.4.2-8.2 0-75.4-61.1-136.5-136.5-136.5s-136.5 61.1-136.5 136.5c0 2.8.1 5.5.2 8.2-30.3 7.6-59.6 19.1-86.9 34.4-34.2-89.5-11.6-190.8 57.4-257.3S261.3-1.4 349.5 36.1 494.9 160.2 494.9 256c0 29.1-5.3 58-15.7 85.2M256 93.9c-4.7 0-8.5 3.8-8.5 8.5v34.1c0 4.7 3.8 8.5 8.5 8.5s8.5-3.8 8.5-8.5v-34.1c0-4.7-3.8-8.5-8.5-8.5m-59.1 17.4c-1.6-4.4-6.5-6.7-10.9-5.1s-6.7 6.5-5.1 10.9l11.7 32.1c1.2 3.4 4.4 5.6 8 5.6 1 0 2-.2 2.9-.5 4.4-1.6 6.7-6.5 5.1-10.9zm-60.5 31.5c-3-3.6-8.4-4.1-12-1.1s-4.1 8.4-1.1 12l21.9 26.2c3 3.6 8.4 4.1 12 1.1s4.1-8.4 1.1-12zm-16.5 67.4-29.6-17.1c-4.1-2.4-9.3-1-11.7 3.1s-1 9.3 3.1 11.7h.1l29.6 17.1c4.1 2.4 9.3 1 11.7-3.1 2.3-4 .9-9.3-3.2-11.7m-22.1 51.9-33.6-5.9c-4.6-.8-9.1 2.3-9.9 6.9s2.3 9.1 6.9 9.9l33.6 5.9c4.6.8 9.1-2.3 9.8-7 .9-4.6-2.2-9-6.8-9.8m309.5 9.9c.8 4.6 5.2 7.7 9.9 6.9l33.6-5.9c4.6-.8 7.7-5.3 6.9-9.9s-5.2-7.7-9.8-6.9l-33.6 5.9c-4.8.8-7.9 5.3-7 9.9m-15.2-61.8c-4.1 2.4-5.5 7.6-3.1 11.7s7.6 5.5 11.7 3.1l29.6-17.1c4.1-2.4 5.5-7.6 3.1-11.7s-7.6-5.5-11.7-3.1zm-4.5-68.4c-3.6-3-9-2.6-12 1L353.7 169c-3.1 3.6-2.6 9 .9 12 3.6 3.1 9 2.6 12-.9l.1-.1 21.9-26.2c3.1-3.6 2.7-9-1-12M326 106.2c-4.4-1.6-9.3.7-10.9 5.1l-11.7 32.1c-1.6 4.4.7 9.3 5.1 10.9.9.3 1.9.5 2.9.5 3.6 0 6.8-2.2 8-5.6l11.7-32.1c1.7-4.4-.6-9.3-5.1-10.9.1 0 0 0 0 0" style="fill:#fff"/></svg>