<?xml version="1.0" encoding="utf-8"?>
<!-- Generator: Adobe Illustrator 28.2.0, SVG Export Plug-In . SVG Version: 6.00 Build 0)  -->
<svg version="1.1" id="Layer_1" xmlns="http://www.w3.org/2000/svg" xmlns:xlink="http://www.w3.org/1999/xlink" x="0px" y="0px"
	 viewBox="0 0 512 512" style="enable-background:new 0 0 512 512;" xml:space="preserve">
<style type="text/css">
	.st0{fill:#FFFFFF;}
</style>
<path class="st0" d="M251.3,45.6c-4.6,0.8-9.1,3.4-13.2,7.5c-6.1,6.1-8.1,11.8-8.1,23.1v5.3l-2.5,0.1c-1.4,0-6,0.1-10.2,0.1
	c-9.3,0.1-9.6,0.3-14.1,8.5c-7.3,13.3-14.5,21.4-25.6,28.5c-2.1,1.3-3.8,2.6-3.8,3c0,1.4,2.7,5.3,4.1,5.9c1.1,0.4,24.6,0.6,78.7,0.5
	c76.5-0.2,77.1-0.2,79.2-1.4c1.7-1,2.1-1.7,2.3-3.4c0.2-2.6-0.7-3.6-6.3-6.9c-8.1-4.7-18-16.2-24.6-28.5c-1.4-2.6-3.2-5.1-3.9-5.6
	c-1.1-0.8-3.1-0.9-10.6-0.7c-5.1,0.1-9.5-0.1-9.8-0.3c-0.2-0.3-0.5-3-0.6-6c-0.3-10.6-2.3-15.8-8.6-22.1
	C267.4,47,259.1,44.1,251.3,45.6z M259.1,60.2c5.3,1.5,8.4,6.7,7.6,12.4c-0.5,3.4-4.2,7-8.1,8.1c-1.6,0.4-3.2,0.7-3.6,0.5
	c-0.4-0.2-1.5-0.4-2.4-0.6c-0.8-0.2-2.4-1.1-3.5-1.9c-3.5-3-4.6-6.9-3.2-11.5c1.2-4.1,3.1-6.1,6.5-7
	C256.2,59.2,255.6,59.2,259.1,60.2z M127.4,90.9c-1.8,0.8-2.8,1.8-3.8,3.8c-1.3,2.7-1.3,3.1-1.1,27.3l0.2,24.6l2.8,2.6
	c2.6,2.4,3,2.6,7.4,3c4.8,0.5,5.7,0.2,4.7-1c-0.8-1-0.9-4.1-0.8-26.6c0.1-16.1,0.2-18.8,1-19.6c0.8-0.8,3.6-1,21.6-1
	c24.5,0,23.9,0.1,28.1-6.3c3-4.5,2.9-5.9-0.2-7.2c-1.6-0.7-7.2-0.8-29.6-0.8C131.9,89.8,129.7,89.9,127.4,90.9z M325.2,90.7
	c-1.1,0.7-1.4,1.6-1.4,3.4c0,2.2,0.4,2.8,3.9,6.4l3.8,3.9l20.3-0.2c18.7-0.1,20.4-0.1,21.5,0.9c1.2,1.1,1.3,1.3,1.4,55.5
	c0.2,45,0.4,54.7,1,55.5c0.7,0.8,1.9,1,6.6,0.8c5.5-0.2,5.7-0.2,6.1-1.7c0.2-0.8,0.5-23.6,0.5-50.5c0.1-27,0.3-50.2,0.5-51.7
	c0.3-1.8,0.7-2.7,1.3-2.7c0.9,0,2.1,2.5,7.7,16.7c1.9,4.9,5.6,13.8,8.1,19.7C414,164,428.3,197.8,431,204l2.3,5.7l-1.4,0.9
	c-3.7,2.4-7.3,6.5-8.9,10l-1.7,3.8h-36.5h-36.5l-2-4.4c-2.4-5.1-5.6-8.6-10.1-10.9c-2.8-1.4-3.9-1.6-8.5-1.7c-4.4,0-5.9,0.2-8.2,1.4
	c-5.5,2.8-9.4,7.2-11.8,13.4l-0.7,1.7h-23.2c-12.8,0-24.5-0.2-26-0.4c-2.5-0.4-2.8-0.5-3.1-2.4c-0.2-1.4-1.5-3.2-3.8-5.6
	c-2.8-2.9-4.1-3.8-6.9-4.5c-6.1-1.8-11.3-0.4-16.1,4.3c-5.7,5.6-6,14.4-0.7,21.2c3.6,4.7,6.9,6.1,12.8,5.9c3.9-0.2,5.1-0.5,7.5-2
	c3.3-2,6.8-6.2,7.3-8.8l0.4-1.7l21.3,0.2c11.7,0.1,23.3,0.2,25.8,0.4l4.5,0.2l1,3.2c1.9,6,5.9,10,12.2,12.7l3.5,1.4v24v24.1l-4,2
	c-4.5,2.3-7.2,5.1-8.8,9.6l-1.1,2.8l-27,0.2l-27,0.1l-1.1-2.7c-2.9-6.7-7.9-10.5-14.1-10.5c-5.3,0-7.6,0.9-11.3,4.2
	c-4.1,3.7-5.4,7.2-5,12.7c0.4,4.4,2,7.8,5,10.4c7.9,7,19.7,4.7,24.9-4.8l1.9-3.6l4.5,0.4c2.5,0.2,14.5,0.4,26.8,0.4h22.4l1.3,2.8
	c1.8,4,6.1,8,9.7,9.3c7.5,2.6,14.5,0.2,19.4-6.8l2.1-3.1l5.1,0.1c4.8,0.1,16.6,1.1,28.4,2.5c3,0.4,11.3,1.1,18.5,1.9
	c21,1.9,27.7,2.6,28,2.9c0.1,0.2,0.4,1.9,0.6,3.9c0.4,3.3,0.2,3.6-1,4.2c-0.7,0.4-4.5,2.3-8.5,4.2c-9.7,5-21,10.3-23.9,11.3
	c-1.3,0.5-3.4,0.8-4.6,0.8h-2.3v-2.6c0-2.9,0.9-4,2-2.5c0.7,0.9,1,0.8,3-1.2l2.2-2.1v-5.9c0-5.6-0.1-6-1.3-6.7
	c-1.7-0.9-10.9-1-11.8-0.1c-0.4,0.4-0.7,9.3-0.8,26.4c-0.1,14.2-0.2,25.9-0.4,26.1c-0.2,0.1-42.5,0.4-94,0.5
	c-79.6,0.2-93.8,0.4-94.3,1.1c-0.5,0.8-1,3.2-2.1,10.6l-0.4,2.6h98.3c94.2,0,98.3-0.1,100.6-1.1c2.8-1.3,4.7-3.2,5.6-5.6
	c0.4-1,0.7-7.6,0.7-16.9v-15.2l2-1.5c1-0.8,9.7-5.1,19.1-9.7c14.5-6.9,17.4-8.1,18.2-7.5c2.8,2,5.4,2.8,9.4,2.8
	c4.8,0,8.4-1.3,11.8-4.4l2.2-1.9l1.7,1.4c2.3,1.9,7,5.2,20.3,14.2l11.1,7.5l0.1,4.5c0.1,3.9,0.4,5,1.9,7.5c4.7,7.6,16,8.5,21.6,1.7
	c3.8-4.5,4-11.9,0.5-16.6c-3.8-5-11.1-6.7-17.1-4c-1.4,0.7-2.9,1.2-3.3,1.2c-0.7,0-15.5-9.7-25.5-16.7c-2.4-1.7-5.3-3.7-6.3-4.4
	c-1.8-1.3-1.9-1.4-2.1-6.7c-0.2-3.9-0.6-6-1.5-7.8c-1.9-3.6-5.3-6.8-8.6-7.9l-2.9-1.1v-33.2v-33.2l3.2-1.4
	c6.1-2.8,10.6-9.3,10.6-15.3c0-7.5-7.5-16.3-14.1-16.4c-2.6,0-3-0.5-4.7-5.1c-1.6-4.6-7.6-19.1-15.5-37.7
	c-11.5-26.9-19.2-45.7-25.3-61.2c-4-10.2-4.4-10.9-8-13.4l-2.8-1.9L356.1,90C329.9,89.8,326.4,89.9,325.2,90.7z M422.8,232.3
	c0.7,0.8,2,2.6,2.9,3.9c1.3,1.9,2.7,3,6.2,4.5l4.4,2.1v32.8v32.8l-3.8,1.9c-3.8,1.9-6.9,4.8-8.9,8.3c-1,1.9-1.1,1.9-4.5,1.6
	c-4.9-0.5-12.7-1.3-29.2-3c-7.9-0.8-17.1-1.7-20.6-2.1c-13.9-1.3-23.3-2.4-24.8-2.8c-1.2-0.3-1.7-1-2.6-3.7c-1.2-3.8-5-8.4-8.7-10.4
	c-1.5-0.8-2.6-2-2.9-2.9c-0.5-1.9-0.7-40.5-0.2-44.7c0.4-2.8,0.6-3.2,2-3.5c2.6-0.5,7.5-3.2,9.6-5.2c2.4-2.3,4.7-5.8,5.6-8.7
	l0.8-2.1l9.2-0.3c5.1-0.2,21.6-0.3,36.7-0.2l27.5,0.1L422.8,232.3z M375.6,237.9c-0.5,0.8-1,68.5-0.5,69.2c0.7,1,12.2,2.7,13.1,1.9
	c0.6-0.5,0.8-8.2,0.8-35.7c0-31.5-0.1-35.1-1-35.5C386.6,237.3,376,237.4,375.6,237.9z M251.8,147.2c-5.4,3-8.6,9.7-7.4,15.5
	c0.3,1.5,0.5,2.9,0.6,3.2c0,0.7-8.7,4.7-18,8.2c-9.4,3.6-22.6,8.3-23.1,8.3c-0.2,0-0.9-1.4-1.6-3.1c-2.4-6.4-8.9-11.1-15.8-11.7
	c-6.7-0.6-14,3.8-16.9,10.2c-1.9,4.4-2,11.6,0,15.2c2,3.9,6,7.5,9.7,9l3.2,1.2l0.2,20l0.1,20l-2.5,1.5c-6.5,3.8-8.9,9.4-7,16.3
	c0.7,2.3,4.2,6.3,7.6,8.7c1.3,0.8,1.3,1.4,1.4,10.8c0.1,5.4,0.1,15.5,0,22.5l-0.1,12.6l-3.8,1.9c-10.2,5-12.5,17.2-4.8,24.8
	c1.6,1.5,4,3.4,5.4,4.1c2.3,1.1,2.6,1.4,2.3,2.9c-2.2,11.2-8.3,39-11.4,51.8c-1.4,5.9-3.5,14.5-4.5,19.1c-1,4.6-2.1,8.8-2.4,9.3
	c-0.2,0.5-0.7,2.6-0.9,4.6l-0.4,3.6l-3.1,0.2c-3.1,0.3-5.9,1.3-9,3.3c-1.1,0.7-1.9,0.9-2.5,0.5c-0.5-0.4-5.3-3.7-10.6-7.5
	c-5.4-3.8-11.4-7.9-13.3-9.3c-7.5-5.1-19.8-14-20.9-15.2c-0.8-0.8-1.1-2.2-1.1-4.9c-0.1-6.9-4.5-11.9-11.4-13
	c-7.6-1.3-13.4,2.8-14.9,10.3c-1.3,6.5,0.8,11.5,6,14.9c2.3,1.4,3.4,1.7,6.5,1.7c3.2,0,4.1-0.2,6.8-2.1c1.7-1.1,3.3-2.1,3.6-2.1
	c0.3,0,3.4,2.2,7,4.8c7.8,5.9,10.9,8.2,17.3,12.5c8.7,5.9,21.5,15.1,22.2,16.1c0.5,0.6,0.7,1.7,0.4,2.9c-0.8,4.5,2.7,11.2,7.5,14.2
	c5.1,3.2,12.4,2.3,17-2.3c5.9-5.9,5.8-14.6-0.3-20.7l-1.9-1.9l3.9-16c3.5-14.1,5.9-24.6,14.5-64.1c1.2-5.4,2.4-10.5,2.7-11.2
	c0.2-0.7,1.7-1.9,3.1-2.6c4-2,6.3-3.9,7.9-6.8c4.5-7.8,1.1-18.3-7.3-22.1l-3.5-1.6l0.1-22.5c0.1-12.4,0.2-22.8,0.2-23.1
	c0-0.2,0.5-0.4,1-0.4c1.1,0,4.2-2.1,5.8-3.9c3.9-4.4,4.4-11.9,1.3-16.5c-1-1.4-3.1-3.2-4.8-4.2l-3.2-1.8l0.1-20.1l0.2-20l2.2-0.8
	c5.3-1.8,10.5-7,11.7-11.5c0.5-1.9,0.8-2.2,5.3-3.7c17.5-6,26.4-9.3,33.1-12.4l7.8-3.5l3.1,1.6c2.4,1.1,4.1,1.5,6.8,1.5
	c4.6,0,7.7-1.6,11.2-5.6l2.6-3l13.5,1.7c7.4,0.9,15.4,1.9,17.8,2.1c4.9,0.5,5.1,0.7,5.7,5.5c0.8,6.6,5.4,13.1,11.7,16.1
	c2.9,1.4,4.1,1.6,9,1.7c5,0,6-0.2,9.1-1.7c4.8-2.3,9-6.3,10.7-10.1c1.1-2.6,1.4-4.2,1.4-9.1c0.1-5.2-0.2-6.4-1.5-9.3
	c-3.3-7-9.8-11.3-17.7-11.8c-8.7-0.5-15.4,2.6-19.7,9.4c-1.9,2.9-2.6,3.6-3.9,3.6c-2.1,0-34.6-4.1-35.2-4.5
	c-0.2-0.1-0.6-1.3-0.8-2.5c-0.5-3.3-4.2-7.9-8.1-9.9C260.2,144.7,255.9,144.7,251.8,147.2z M101.7,150.8c-5.8,2.9-9.3,9.6-8.1,15.6
	c0.3,1.7,0.5,3.3,0.3,3.6c-0.2,0.4-6.9,5.6-17.8,13.9c-5.6,4.2-26.4,20.3-31.6,24.4c-7.5,5.9-7,5.7-10,3.5
	c-8.1-5.7-20.1-4.5-27.5,2.9c-3.9,3.9-5.5,6.7-6.5,11.7c-1.5,7.3,0.5,14.5,5.7,20c4,4.3,8.1,6.1,14.7,6.5l5.3,0.4l2.3,6.9
	c1.3,3.8,3.3,9.6,4.5,12.8c2.2,6.1,8.2,22.7,13.5,37.5l2.9,8.1l-2.1,2c-4.2,4.1-5.4,9.2-3.5,14.9c2.2,6.2,9.4,10,15.7,8.4
	c6.4-1.7,10.7-7.9,10-14.4c-0.7-6.3-5.4-11.2-11.6-11.9l-2.7-0.4l-3.1-9c-1.7-5-6.3-17.7-10.1-28.4c-3.8-10.7-7.6-21.5-8.5-24.2
	c-1.5-4.5-1.5-4.7-0.4-5.3c2.6-1.4,8-7.3,9.7-10.6c1.9-3.5,1.9-3.5,4.1-3.2c2.9,0.4,15.4,2.6,30.3,5.3c18.1,3.2,35.4,6.1,39.5,6.6
	c2,0.2,4.1,0.5,4.7,0.7c1,0.3,1,1.9,1,23.5c0,12.7-0.2,23.3-0.4,23.5c-0.2,0.2-1.5-0.3-2.8-1.1c-1.4-0.8-7.2-4.1-13-7.3l-10.5-5.9
	l0.2-2.5c0.5-6.2-5.3-12.4-11.5-12.6c-6.3-0.2-12.3,5.9-12.3,12.5c0,0.8,0.7,2.9,1.4,4.5c2,4.2,5.7,6.5,10.8,6.5
	c3.1,0,3.9-0.2,5.8-1.7l2.2-1.7l7.9,4.4c4.4,2.5,11.1,6.2,14.8,8.4l6.9,3.8l0.3,43.7c0.3,42.9,0.3,43.7,1.6,45.3
	c0.7,0.9,2,2.2,2.9,2.9c1.6,1.2,2.6,1.3,19.1,1.4c16,0.2,17.5,0.1,18.2-0.8c1.1-1.4,1.1-12.7,0.1-12.9c-0.4-0.1-6.8-0.1-14.2-0.1
	l-13.4-0.1l-0.1-97.7v-97.7l-6.5,0.1c-4.6,0.1-6.7,0.4-7,0.9c-0.3,0.4-0.5,12.8-0.5,27.5v26.8h-2.3c-2.3,0-15.1-2-33.9-5.4
	c-5.6-1-14.6-2.6-20-3.6s-12.3-2.3-15.2-2.9l-5.3-1.1l-1.7-4.7c-1-2.6-1.9-5.1-2-5.7c-0.4-1.3,1.8-3.1,39.3-31.4l16.7-12.6l2.3,1.1
	c10.3,5.1,21.6-2,21.6-13.5c0-5-3.9-10.6-8.7-12.7C110.1,149.2,104.7,149.3,101.7,150.8z M488.5,196.2c-7.2,2.2-10.9,11.9-7.4,19
	c4.9,9.7,18.5,10.1,23.8,0.7c2.2-3.9,2.1-10-0.2-13.9c-2.4-4.2-5.6-6-10.5-6.2C492.1,195.7,489.5,195.9,488.5,196.2z M493,263.2
	c-3.4,0.6-5.3,1.6-7.5,3.8c-2.6,2.6-3.7,5.1-4.2,9.5c-0.4,3-0.2,3.8,1.4,7.1c2.9,5.7,6.8,8.2,12.9,8.2c8.1-0.1,14.1-6.2,14.1-14.5
	c0-5.7-2.6-10.1-7.5-12.6C499.4,263.3,495.8,262.7,493,263.2z"/>
</svg>
