<svg xmlns="http://www.w3.org/2000/svg" xml:space="preserve" viewBox="0 0 512 512"><path d="M251.3 45.6c-4.6.8-9.1 3.4-13.2 7.5-6.1 6.1-8.1 11.8-8.1 23.1v5.3l-2.5.1c-1.4 0-6 .1-10.2.1-9.3.1-9.6.3-14.1 8.5-7.3 13.3-14.5 21.4-25.6 28.5-2.1 1.3-3.8 2.6-3.8 3 0 1.4 2.7 5.3 4.1 5.9 1.1.4 24.6.6 78.7.5 76.5-.2 77.1-.2 79.2-1.4 1.7-1 2.1-1.7 2.3-3.4.2-2.6-.7-3.6-6.3-6.9-8.1-4.7-18-16.2-24.6-28.5-1.4-2.6-3.2-5.1-3.9-5.6-1.1-.8-3.1-.9-10.6-.7-5.1.1-9.5-.1-9.8-.3-.2-.3-.5-3-.6-6-.3-10.6-2.3-15.8-8.6-22.1-6.3-6.2-14.6-9.1-22.4-7.6m7.8 14.6c5.3 1.5 8.4 6.7 7.6 12.4-.5 3.4-4.2 7-8.1 8.1-1.6.4-3.2.7-3.6.5s-1.5-.4-2.4-.6c-.8-.2-2.4-1.1-3.5-1.9-3.5-3-4.6-6.9-3.2-11.5 1.2-4.1 3.1-6.1 6.5-7 3.8-1 3.2-1 6.7 0M127.4 90.9c-1.8.8-2.8 1.8-3.8 3.8-1.3 2.7-1.3 3.1-1.1 27.3l.2 24.6 2.8 2.6c2.6 2.4 3 2.6 7.4 3 4.8.5 5.7.2 4.7-1-.8-1-.9-4.1-.8-26.6.1-16.1.2-18.8 1-19.6s3.6-1 21.6-1c24.5 0 23.9.1 28.1-6.3 3-4.5 2.9-5.9-.2-7.2-1.6-.7-7.2-.8-29.6-.8-25.8.1-28 .2-30.3 1.2m197.8-.2c-1.1.7-1.4 1.6-1.4 3.4 0 2.2.4 2.8 3.9 6.4l3.8 3.9 20.3-.2c18.7-.1 20.4-.1 21.5.9 1.2 1.1 1.3 1.3 1.4 55.5.2 45 .4 54.7 1 55.5.7.8 1.9 1 6.6.8 5.5-.2 5.7-.2 6.1-1.7.2-.8.5-23.6.5-50.5.1-27 .3-50.2.5-51.7.3-1.8.7-2.7 1.3-2.7.9 0 2.1 2.5 7.7 16.7 1.9 4.9 5.6 13.8 8.1 19.7C414 164 428.3 197.8 431 204l2.3 5.7-1.4.9c-3.7 2.4-7.3 6.5-8.9 10l-1.7 3.8h-73l-2-4.4c-2.4-5.1-5.6-8.6-10.1-10.9-2.8-1.4-3.9-1.6-8.5-1.7-4.4 0-5.9.2-8.2 1.4-5.5 2.8-9.4 7.2-11.8 13.4l-.7 1.7h-23.2c-12.8 0-24.5-.2-26-.4-2.5-.4-2.8-.5-3.1-2.4-.2-1.4-1.5-3.2-3.8-5.6-2.8-2.9-4.1-3.8-6.9-4.5-6.1-1.8-11.3-.4-16.1 4.3-5.7 5.6-6 14.4-.7 21.2 3.6 4.7 6.9 6.1 12.8 5.9 3.9-.2 5.1-.5 7.5-2 3.3-2 6.8-6.2 7.3-8.8l.4-1.7 21.3.2c11.7.1 23.3.2 25.8.4l4.5.2 1 3.2c1.9 6 5.9 10 12.2 12.7l3.5 1.4v48.1l-4 2c-4.5 2.3-7.2 5.1-8.8 9.6l-1.1 2.8-27 .2-27 .1-1.1-2.7c-2.9-6.7-7.9-10.5-14.1-10.5-5.3 0-7.6.9-11.3 4.2-4.1 3.7-5.4 7.2-5 12.7.4 4.4 2 7.8 5 10.4 7.9 7 19.7 4.7 24.9-4.8l1.9-3.6 4.5.4c2.5.2 14.5.4 26.8.4h22.4l1.3 2.8c1.8 4 6.1 8 9.7 9.3 7.5 2.6 14.5.2 19.4-6.8l2.1-3.1 5.1.1c4.8.1 16.6 1.1 28.4 2.5 3 .4 11.3 1.1 18.5 1.9 21 1.9 27.7 2.6 28 2.9.1.2.4 1.9.6 3.9.4 3.3.2 3.6-1 4.2-.7.4-4.5 2.3-8.5 4.2-9.7 5-21 10.3-23.9 11.3-1.3.5-3.4.8-4.6.8h-2.3v-2.6c0-2.9.9-4 2-2.5.7.9 1 .8 3-1.2l2.2-2.1V337c0-5.6-.1-6-1.3-6.7-1.7-.9-10.9-1-11.8-.1-.4.4-.7 9.3-.8 26.4-.1 14.2-.2 25.9-.4 26.1-.2.1-42.5.4-94 .5-79.6.2-93.8.4-94.3 1.1-.5.8-1 3.2-2.1 10.6l-.4 2.6h98.3c94.2 0 98.3-.1 100.6-1.1 2.8-1.3 4.7-3.2 5.6-5.6.4-1 .7-7.6.7-16.9v-15.2l2-1.5c1-.8 9.7-5.1 19.1-9.7 14.5-6.9 17.4-8.1 18.2-7.5 2.8 2 5.4 2.8 9.4 2.8 4.8 0 8.4-1.3 11.8-4.4l2.2-1.9 1.7 1.4c2.3 1.9 7 5.2 20.3 14.2l11.1 7.5.1 4.5c.1 3.9.4 5 1.9 7.5 4.7 7.6 16 8.5 21.6 1.7 3.8-4.5 4-11.9.5-16.6-3.8-5-11.1-6.7-17.1-4-1.4.7-2.9 1.2-3.3 1.2-.7 0-15.5-9.7-25.5-16.7-2.4-1.7-5.3-3.7-6.3-4.4-1.8-1.3-1.9-1.4-2.1-6.7-.2-3.9-.6-6-1.5-7.8-1.9-3.6-5.3-6.8-8.6-7.9l-2.9-1.1v-66.4l3.2-1.4c6.1-2.8 10.6-9.3 10.6-15.3 0-7.5-7.5-16.3-14.1-16.4-2.6 0-3-.5-4.7-5.1-1.6-4.6-7.6-19.1-15.5-37.7-11.5-26.9-19.2-45.7-25.3-61.2-4-10.2-4.4-10.9-8-13.4l-2.8-1.9-29.6-.5c-26.2-.2-29.7-.1-30.9.7m97.6 141.6c.7.8 2 2.6 2.9 3.9 1.3 1.9 2.7 3 6.2 4.5l4.4 2.1v65.6l-3.8 1.9c-3.8 1.9-6.9 4.8-8.9 8.3-1 1.9-1.1 1.9-4.5 1.6-4.9-.5-12.7-1.3-29.2-3-7.9-.8-17.1-1.7-20.6-2.1-13.9-1.3-23.3-2.4-24.8-2.8-1.2-.3-1.7-1-2.6-3.7-1.2-3.8-5-8.4-8.7-10.4-1.5-.8-2.6-2-2.9-2.9-.5-1.9-.7-40.5-.2-44.7.4-2.8.6-3.2 2-3.5 2.6-.5 7.5-3.2 9.6-5.2 2.4-2.3 4.7-5.8 5.6-8.7l.8-2.1 9.2-.3c5.1-.2 21.6-.3 36.7-.2l27.5.1zm-47.2 5.6c-.5.8-1 68.5-.5 69.2.7 1 12.2 2.7 13.1 1.9.6-.5.8-8.2.8-35.7 0-31.5-.1-35.1-1-35.5-1.4-.5-12-.4-12.4.1m-123.8-90.7c-5.4 3-8.6 9.7-7.4 15.5.3 1.5.5 2.9.6 3.2 0 .7-8.7 4.7-18 8.2-9.4 3.6-22.6 8.3-23.1 8.3-.2 0-.9-1.4-1.6-3.1-2.4-6.4-8.9-11.1-15.8-11.7-6.7-.6-14 3.8-16.9 10.2-1.9 4.4-2 11.6 0 15.2 2 3.9 6 7.5 9.7 9l3.2 1.2.2 20 .1 20-2.5 1.5c-6.5 3.8-8.9 9.4-7 16.3.7 2.3 4.2 6.3 7.6 8.7 1.3.8 1.3 1.4 1.4 10.8.1 5.4.1 15.5 0 22.5l-.1 12.6-3.8 1.9c-10.2 5-12.5 17.2-4.8 24.8 1.6 1.5 4 3.4 5.4 4.1 2.3 1.1 2.6 1.4 2.3 2.9-2.2 11.2-8.3 39-11.4 51.8-1.4 5.9-3.5 14.5-4.5 19.1s-2.1 8.8-2.4 9.3c-.2.5-.7 2.6-.9 4.6l-.4 3.6-3.1.2c-3.1.3-5.9 1.3-9 3.3-1.1.7-1.9.9-2.5.5-.5-.4-5.3-3.7-10.6-7.5-5.4-3.8-11.4-7.9-13.3-9.3-7.5-5.1-19.8-14-20.9-15.2-.8-.8-1.1-2.2-1.1-4.9-.1-6.9-4.5-11.9-11.4-13-7.6-1.3-13.4 2.8-14.9 10.3-1.3 6.5.8 11.5 6 14.9 2.3 1.4 3.4 1.7 6.5 1.7 3.2 0 4.1-.2 6.8-2.1 1.7-1.1 3.3-2.1 3.6-2.1s3.4 2.2 7 4.8c7.8 5.9 10.9 8.2 17.3 12.5 8.7 5.9 21.5 15.1 22.2 16.1.5.6.7 1.7.4 2.9-.8 4.5 2.7 11.2 7.5 14.2 5.1 3.2 12.4 2.3 17-2.3 5.9-5.9 5.8-14.6-.3-20.7l-1.9-1.9 3.9-16c3.5-14.1 5.9-24.6 14.5-64.1 1.2-5.4 2.4-10.5 2.7-11.2.2-.7 1.7-1.9 3.1-2.6 4-2 6.3-3.9 7.9-6.8 4.5-7.8 1.1-18.3-7.3-22.1l-3.5-1.6.1-22.5c.1-12.4.2-22.8.2-23.1 0-.2.5-.4 1-.4 1.1 0 4.2-2.1 5.8-3.9 3.9-4.4 4.4-11.9 1.3-16.5-1-1.4-3.1-3.2-4.8-4.2l-3.2-1.8.1-20.1.2-20 2.2-.8c5.3-1.8 10.5-7 11.7-11.5.5-1.9.8-2.2 5.3-3.7 17.5-6 26.4-9.3 33.1-12.4l7.8-3.5 3.1 1.6c2.4 1.1 4.1 1.5 6.8 1.5 4.6 0 7.7-1.6 11.2-5.6l2.6-3 13.5 1.7c7.4.9 15.4 1.9 17.8 2.1 4.9.5 5.1.7 5.7 5.5.8 6.6 5.4 13.1 11.7 16.1 2.9 1.4 4.1 1.6 9 1.7 5 0 6-.2 9.1-1.7 4.8-2.3 9-6.3 10.7-10.1 1.1-2.6 1.4-4.2 1.4-9.1.1-5.2-.2-6.4-1.5-9.3-3.3-7-9.8-11.3-17.7-11.8-8.7-.5-15.4 2.6-19.7 9.4-1.9 2.9-2.6 3.6-3.9 3.6-2.1 0-34.6-4.1-35.2-4.5-.2-.1-.6-1.3-.8-2.5-.5-3.3-4.2-7.9-8.1-9.9-4.6-2.3-8.9-2.3-13 .2m-150.1 3.6c-5.8 2.9-9.3 9.6-8.1 15.6.3 1.7.5 3.3.3 3.6-.2.4-6.9 5.6-17.8 13.9-5.6 4.2-26.4 20.3-31.6 24.4-7.5 5.9-7 5.7-10 3.5-8.1-5.7-20.1-4.5-27.5 2.9-3.9 3.9-5.5 6.7-6.5 11.7-1.5 7.3.5 14.5 5.7 20 4 4.3 8.1 6.1 14.7 6.5l5.3.4 2.3 6.9c1.3 3.8 3.3 9.6 4.5 12.8 2.2 6.1 8.2 22.7 13.5 37.5l2.9 8.1-2.1 2c-4.2 4.1-5.4 9.2-3.5 14.9 2.2 6.2 9.4 10 15.7 8.4 6.4-1.7 10.7-7.9 10-14.4-.7-6.3-5.4-11.2-11.6-11.9l-2.7-.4-3.1-9c-1.7-5-6.3-17.7-10.1-28.4s-7.6-21.5-8.5-24.2c-1.5-4.5-1.5-4.7-.4-5.3 2.6-1.4 8-7.3 9.7-10.6 1.9-3.5 1.9-3.5 4.1-3.2 2.9.4 15.4 2.6 30.3 5.3 18.1 3.2 35.4 6.1 39.5 6.6 2 .2 4.1.5 4.7.7 1 .3 1 1.9 1 23.5 0 12.7-.2 23.3-.4 23.5s-1.5-.3-2.8-1.1c-1.4-.8-7.2-4.1-13-7.3l-10.5-5.9.2-2.5c.5-6.2-5.3-12.4-11.5-12.6-6.3-.2-12.3 5.9-12.3 12.5 0 .8.7 2.9 1.4 4.5 2 4.2 5.7 6.5 10.8 6.5 3.1 0 3.9-.2 5.8-1.7l2.2-1.7 7.9 4.4c4.4 2.5 11.1 6.2 14.8 8.4l6.9 3.8.3 43.7c.3 42.9.3 43.7 1.6 45.3.7.9 2 2.2 2.9 2.9 1.6 1.2 2.6 1.3 19.1 1.4 16 .2 17.5.1 18.2-.8 1.1-1.4 1.1-12.7.1-12.9-.4-.1-6.8-.1-14.2-.1l-13.4-.1-.1-97.7v-97.7l-6.5.1c-4.6.1-6.7.4-7 .9-.3.4-.5 12.8-.5 27.5v26.8h-2.3c-2.3 0-15.1-2-33.9-5.4-5.6-1-14.6-2.6-20-3.6s-12.3-2.3-15.2-2.9l-5.3-1.1L44 225c-1-2.6-1.9-5.1-2-5.7-.4-1.3 1.8-3.1 39.3-31.4L98 175.3l2.3 1.1c10.3 5.1 21.6-2 21.6-13.5 0-5-3.9-10.6-8.7-12.7-3.1-1-8.5-.9-11.5.6m386.8 45.4c-7.2 2.2-10.9 11.9-7.4 19 4.9 9.7 18.5 10.1 23.8.7 2.2-3.9 2.1-10-.2-13.9-2.4-4.2-5.6-6-10.5-6.2-2.1-.1-4.7.1-5.7.4m4.5 67c-3.4.6-5.3 1.6-7.5 3.8-2.6 2.6-3.7 5.1-4.2 9.5-.4 3-.2 3.8 1.4 7.1 2.9 5.7 6.8 8.2 12.9 8.2 8.1-.1 14.1-6.2 14.1-14.5 0-5.7-2.6-10.1-7.5-12.6-2.8-1.4-6.4-2-9.2-1.5" style="fill:#fff"/></svg>