<svg xmlns="http://www.w3.org/2000/svg" xml:space="preserve" viewBox="0 0 512 512"><radialGradient id="cloudnativepg_svg__a" cx="-465.83" cy="987.621" r="1643.002" gradientTransform="matrix(1 0 0 -1 0 512)" gradientUnits="userSpaceOnUse"><stop offset="0" style="stop-color:#732dd9"/><stop offset=".118" style="stop-color:#6a2bcb"/><stop offset=".343" style="stop-color:#5125a5"/><stop offset=".649" style="stop-color:#291c69"/><stop offset=".814" style="stop-color:#121646"/><stop offset="1" style="stop-color:#121646"/></radialGradient><path d="M457.5 464.4c-4.9-11.8-8.5-24.2-12.1-36.5-4.2-14-7.6-28.2-11.7-42.3-1.2-4.1-3.3-8.1-5.6-11.8-2.4-3.6-4.8-3.1-6 1-3.3 10.9-6.2 22-9.9 32.7-6.7 19.4-15.9 37.5-28.5 54-6.3 8.2-13.3 15.9-20.6 23.3-3.6 3.7-7.3 7.3-11 10.9-3.2 3.2-6.6 6.5-4.4 11.3 1.8 3.7 5.7 4.1 9.4 4.1h1.6c18.8-.3 37.5.2 56.3.4 13.1.1 26.2.7 39.3.4 5.5-.1 11.6.1 16.1-4.5 5-5.1 5.9-9 2.2-15.2-5.5-9-11.1-18.1-15.1-27.8" style="fill:url(#cloudnativepg_svg__a)"/><radialGradient id="cloudnativepg_svg__b" cx="-465.83" cy="987.621" r="1643.002" gradientTransform="matrix(1 0 0 -1 0 512)" gradientUnits="userSpaceOnUse"><stop offset="0" style="stop-color:#732dd9"/><stop offset=".118" style="stop-color:#6a2bcb"/><stop offset=".343" style="stop-color:#5125a5"/><stop offset=".649" style="stop-color:#291c69"/><stop offset=".814" style="stop-color:#121646"/><stop offset="1" style="stop-color:#121646"/></radialGradient><path d="M494.2 309.1c-2.4-.6-4.8-1.3-7.1-2-24-7.7-40.6-23.3-58.9-40.8-2.8-2.7-3.7-5.8-3.5-9.6 1-17.9-1.1-35.7-4.3-53.3-4.5-24.5-11.8-48.3-21.8-71.2-2.3-5.1-5.3-9.7-6.8-15.1-.2-.6-.3-1.3.1-1.8s1.3-.4 2-.2c5.8 2.4 15.1 28.7 22.6 22 1.6-1.4 2.2-3.6 2.6-5.7 6.4-31.4-1.7-79.7-29.7-99.1-12.9-8.9-27-17.6-42.4-21.1-7.9-1.8-16.5-1.7-23.7 1.9-3.6 1.8-6.9 4.3-10.8 5.3-7 1.7-13.9-2.2-20.8-4.3-8.4-2.5-17.5-2.4-25.7.4-6.6 2.2-13.3 6.2-20.2 4.9-9.6-1.8-16.4-12.8-26.3-16.2-11.9-4.1-25-4.1-37.2-1.3-34.9 7.8-67.6 32.3-92 57.5-26.9 27.7-37.6 64.2-13.9 97.6 8.5 11.9 20.9 21.2 35.1 24.9 2.8.7 5.7 1.3 8 3 9 6.7-10 24.6-14.1 30.5-8.8 12.6-16.9 25.7-23 39.9-11.3 26.2-16.2 52.6-20.1 80.6-6.8 48.5-16 98.4-38.7 142.3-3.7 7-8.2 14.1-11.1 21.5-.7 1.8-.9 3.8 0 5.5.5.9 1.4 1.7 2.3 2.2 5.1 2.8 12.8 2.2 18.4 2.2 16.9.1 33.8.1 50.8.2 8.6 0 17.2.1 25.8.1 6.2 0 15.3 1.6 20.9-1.4 3.6-1.9 5.6-6 6.6-10 1.5-5.9 2.4-11.9 4-17.8 4.8-18 11.7-35.1 20.5-51.6 14-26.1 28.6-55.7 2.6-79.6-6.8-6.3-14.7-11.2-22-16.9-1.4-1.1-2.8-3.3-1.3-4.3.6-.4 1.3-.3 2.1-.2 28.3 5.9 54.4 36.3 52.7 65.4-.9 15.2-7 28.8-11.7 42.9-4.7 14.3-10.2 28.5-11.5 43.7-.5 6-1.2 12.1-1.2 18.1-.1 7.8 2.9 11.9 11.7 11.9 32.5.1 65.1.6 97.6.9 8.3.1 25.2 2.8 28.6-7.9 1.2-3.9-.3-8.2-2.4-11.7s-4.6-6.9-5.7-10.9c-2-7.1 1.1-14.6 4.5-21.2 3.9-7.6 8.6-14.8 12.5-22.5 4.5-8.1 9.7-15.6 13.8-24 4.3-8.7 7.7-17.8 10.6-27.1 3.9-12.4 6.6-25.2 8.8-38 .5-2.8.8-5.6 1.1-8.4.2-1.4.3-2.8.5-4.2.2-1.6.6-3.4 2.6-3.3 12.1.9-6.1 70.3-7.7 74.6-3.7 10-8.2 19.6-13.5 28.9-6.6 11.6-18.8 22.2-15.8 36.9 1.1 5.2 2.3 12.7 7 15.9 6.4 4.5 14.7-3 19.3-7.1 7.2-6.5 13-14.2 19.1-21.7 16.7-20.7 29.6-44.2 38.9-69 10.2-27.1 14.7-54.1 18.3-82.6.2-1.6.6-3.5 1.9-4.3 1.6-1 3.6-.2 5.3.5 20.7 9.1 43 16.5 65.5 14.4 2.8-.3 6.2-1.4 6.3-4.2-.1-3.1-3.4-4.4-6.1-5M384.3 295c-.2.8-.8 1.5-1.5 1.9-1.3.8-3.1 1-4.6 1.2-10 1-19.9-2-28.9-6.1-1.4-.6-2.9-1.3-4.3-2-13.7-6.8-26.5-16.6-37.1-27.7-9-9.5-16-20.7-20.9-32.8-1-2.6-2.3-5.3-2.9-8-.5-2.3-.2-5 1.6-6.6 1.1-1 2.7-1.4 4.1-1.7 4.9-1 10.1-1.5 15.1-1.1 2 .1 4.2.7 5.6 2.1 1.3 1.2 1.9 2.9 2.5 4.6 2.4 7.3 4.5 14.9 8 21.8 3.5 7 8.1 13.7 13 19.9 1.8 2.3 3.6 4.4 5.5 6.6 9.3 10.7 21.5 20.2 35.8 23 .6.1 1.1.2 1.7.3 2 .3 4 .5 5.7 1.6.8.5 1.5 1.4 1.6 2.3.1.2.1.4 0 .7" style="fill:url(#cloudnativepg_svg__b)"/></svg>