<svg xmlns="http://www.w3.org/2000/svg" xml:space="preserve" viewBox="0 0 512 512"><path d="M415.3 207.7C392.8 137.1 327.5 89 253.4 88.5c-62.2-.4-119.5 33.7-149 88.5C35.5 189.3-10.3 255.2 2 324.1c7.3 40.8 34.1 75.5 71.8 92.8l3.2 1.4h.2v-36c-44.5-27.3-58.4-85.5-31.1-130 15.3-25 41.4-41.4 70.5-44.5l8.9-.9 3.9-8c22.6-47.9 71-78.4 124-78.2 63.6.4 118.8 44.2 133.8 106l3.1 12.1H403c42.7.9 76.8 35.6 77 78.3 0 29.9-17.3 54.4-46.7 66.8v34.2l2.1-.7c47.3-15.6 76.6-54 76.6-100.4-.4-55.5-41.7-102.1-96.7-109.3M191.2 414.1l7 7c.5.6.5 1.4 0 2-.3.2-.6.4-.9.4h-55.6c-14.1 0-25.4-11.4-25.4-25.4V290.2c0-.8-.6-1.4-1.4-1.4H103c-.8 0-1.4-.6-1.4-1.4 0-.4.1-.7.4-1l47.2-47.2c.5-.6 1.4-.6 2 0l47.1 47.2c.5.6.5 1.4 0 2-.3.2-.6.4-.9.4h-12c-.8 0-1.4.6-1.4 1.4v106c-.2 6.7 2.5 13.2 7.2 17.9m104.2 0 7.1 7c.5.6.5 1.4 0 2-.3.3-.6.4-1 .4H246c-14.1 0-25.4-11.4-25.4-25.4v-80.6c0-.8-.6-1.4-1.4-1.4h-12c-.8 0-1.4-.7-1.4-1.4 0-.4.1-.7.4-.9l47.1-47.1c.5-.6 1.4-.6 2 0l47.2 47c.5.6.5 1.4 0 2-.3.3-.6.4-1 .4h-12c-.8 0-1.4.7-1.4 1.4v78.8c-.1 6.6 2.6 13.1 7.3 17.8m104.3 0 7 7c.5.6.5 1.4 0 2-.3.2-.6.4-.9.4h-55.6c-14.1 0-25.4-11.4-25.4-25.4v-53.6c0-.8-.6-1.4-1.4-1.4h-11.9c-.8 0-1.4-.6-1.4-1.4 0-.4.2-.8.4-1l47.2-47.1c.5-.5 1.4-.6 1.9 0l47.2 47.1c.6.5.6 1.4.1 2-.3.3-.6.4-1 .4h-12.1c-.8 0-1.4.6-1.4 1.4v51.7c-.2 6.7 2.5 13.2 7.3 17.9"/></svg>