<?xml version="1.0" encoding="utf-8"?>
<!-- Generator: Adobe Illustrator 28.2.0, SVG Export Plug-In . SVG Version: 6.00 Build 0)  -->
<svg version="1.1"
	 id="svg4519" xmlns:rdf="http://www.w3.org/1999/02/22-rdf-syntax-ns#" xmlns:dc="http://purl.org/dc/elements/1.1/" xmlns:svg="http://www.w3.org/2000/svg" xmlns:cc="http://creativecommons.org/ns#" xmlns:inkscape="http://www.inkscape.org/namespaces/inkscape" xmlns:sodipodi="http://sodipodi.sourceforge.net/DTD/sodipodi-0.dtd" inkscape:export-filename="cloudron-logo.png"
	 xmlns="http://www.w3.org/2000/svg" xmlns:xlink="http://www.w3.org/1999/xlink" x="0px" y="0px" viewBox="0 0 512 512"
	 style="enable-background:new 0 0 512 512;" xml:space="preserve">
<style type="text/css">
	.st0{fill:#03A9F4;}
	.st1{fill:#FFFFFF;}
</style>
<sodipodi:namedview  bordercolor="#666666" borderopacity="1.0" id="base" inkscape:current-layer="g4496" inkscape:cx="318.70313" inkscape:cy="288.90363" inkscape:deskcolor="#d1d1d1" inkscape:document-units="px" inkscape:pagecheckerboard="0" inkscape:pageopacity="0.0" inkscape:pageshadow="2" inkscape:showpageshadow="2" inkscape:window-height="1048" inkscape:window-maximized="1" inkscape:window-width="1920" inkscape:window-x="0" inkscape:window-y="0" inkscape:zoom="0.98994949" pagecolor="#ffffff" showgrid="false" units="px">
	</sodipodi:namedview>
<g id="layer1" transform="translate(0,-540.36216)" inkscape:groupmode="layer" inkscape:label="Layer 1">
	<g id="g4467" transform="matrix(20.50952,0,0,20.859456,-526.58031,-94.042799)">
		
			<g id="g4382" transform="matrix(0.59473169,0,0,0.59473169,31.04719,102.48374)" inkscape:export-xdpi="67.349998" inkscape:export-ydpi="67.349998">
			<g id="g4496">
				<g id="g9516" transform="translate(-1.3117278,-1.2897223)">
					
						<path id="path4162" inkscape:export-xdpi="67.349998" inkscape:export-ydpi="67.349998" inkscape:flatsided="true" inkscape:randomized="0" inkscape:rounded="0.12490573" sodipodi:arg1="-0.52224059" sodipodi:arg2="0.0013581913" sodipodi:cx="12.46875" sodipodi:cy="-99.893143" sodipodi:r1="19.266006" sodipodi:r2="16.307295" sodipodi:sides="6" sodipodi:type="star" class="st0" d="
						M23.8-117.4c2.3,1.3,10.5,15.6,10.5,18.2c0,2.6-8.2,16.9-10.5,18.2c-2.3,1.3-18.7,1.3-21,0C0.5-82.4-7.7-96.7-7.7-99.3
						c0-2.6,8.2-16.9,10.5-18.2C5.1-118.8,21.5-118.7,23.8-117.4L23.8-117.4z"/>
					<path id="rect4168-1-1" inkscape:transform-center-x="0.40624986" class="st1" d="M5.3-104h4.3c1.5,0,2.6,1.2,2.6,2.6v4.3
						c0,1.5-1.2,2.6-2.6,2.6H5.3c-1.5,0-2.6-1.2-2.6-2.6v-4.3C2.7-102.8,3.8-104,5.3-104z"/>
					<g id="g4491" transform="translate(0,0.14463441)">
						<path id="rect4168-1-1-7" class="st1" d="M12.8-97.3H17c1.5,0,2.6,1.2,2.6,2.6v4.3c0,1.5-1.2,2.6-2.6,2.6h-4.3
							c-1.5,0-2.6-1.2-2.6-2.6v-4.3C10.1-96.1,11.3-97.3,12.8-97.3z"/>
						<path id="rect4168-1-1-7-2" class="st1" d="M12.8-111.1H17c1.5,0,2.6,1.2,2.6,2.6v4.3c0,1.5-1.2,2.6-2.6,2.6h-4.3
							c-1.5,0-2.6-1.2-2.6-2.6v-4.3C10.1-109.9,11.3-111.1,12.8-111.1z"/>
					</g>
				</g>
			</g>
		</g>
	</g>
</g>
</svg>
