<svg xmlns="http://www.w3.org/2000/svg" xml:space="preserve" viewBox="0 0 512 512"><path d="M35.8 221.6c10.2 0 18.3 2.6 24.3 7.7 5.9 5.1 8.9 12.4 8.9 21.9H47.8c0-4-1.1-7.2-3.2-9.5s-5.1-3.5-9-3.5q-6.75 0-9.9 4.2c-2.1 2.8-3.2 6.7-3.2 11.7v6.4c0 4.9 1 8.9 3.2 11.7 2.1 2.8 5.4 4.3 9.7 4.3s7.5-1.1 9.7-3.3q3.3-3.3 3.3-9.3H69c0 9.4-2.9 16.7-8.7 21.7s-14 7.5-24.5 7.5c-11.8 0-20.7-3-26.8-9-6-6.1-9-15-9-26.8s3-20.7 9.1-26.7q9-9 26.7-9m38.7 70.2v-72.7h20v72.7zm54.4-54.2c9.3 0 16.6 2.4 21.9 7.1s8 11.6 8 20.6-2.7 15.9-8 20.6-12.6 7.1-21.9 7.1-16.6-2.3-21.9-7-7.9-11.6-7.9-20.7 2.6-16 7.9-20.6c5.3-4.7 12.6-7.1 21.9-7.1m0 13.6c-6.5 0-9.8 3.8-9.8 11.3v5.7c0 7.5 3.3 11.2 9.8 11.2 6.6 0 9.9-3.7 9.9-11.2v-5.7c0-7.5-3.3-11.3-9.9-11.3m47.8 40.6-20.1-53h21.5l9.7 33h.7l9.7-33h19.6l-20.3 53zm67.7-54.2c8.1 0 14.7 1.4 19.7 4.1 5.1 2.7 7.6 7.1 7.6 13.2v20.7c0 1.1.3 2.1.8 2.8s1.3 1.1 2.4 1.1h3.6V291c-.2.1-.7.4-1.6.7q-1.2.45-3.6.9c-1.5.3-3.3.5-5.3.5-3.9 0-7.1-.6-9.6-1.7-2.5-1.2-4.2-2.8-5.1-4.9-2.5 2-5.4 3.6-8.5 4.8s-6.8 1.8-11 1.8c-12.4 0-18.7-4.9-18.7-14.8 0-5.1 1.4-9.1 4.2-11.8s6.8-4.5 12-5.5 12-1.5 20.5-1.5v-2.6c0-2.1-.7-3.6-2.2-4.7-1.4-1.1-3.3-1.6-5.5-1.6-2.1 0-3.9.4-5.4 1.1s-2.3 1.9-2.3 3.5v.4h-19.6c-.1-.3-.1-.8-.1-1.4 0-5 2.4-9 7.2-11.9 4.8-3.2 11.6-4.7 20.5-4.7m7.4 31.1q-8.55 0-12.6 1.8c-2.7 1.2-4.1 2.9-4.1 5 0 3.3 2.3 5 6.8 5q3.9 0 6.9-2.1c2-1.4 3-3.2 3-5.2zm29-45.9H303v51.3h35.4v17.7h-57.6zm60.5 9.8v-13.5h20v13.5zm0 59.2v-53h20v53zm63.5-54.2q9.15 0 13.8 5.1c3.1 3.4 4.6 8.3 4.6 14.7v34.3h-20v-31.9q0-3.45-1.8-5.4c-1.2-1.4-2.8-2.1-4.9-2.1q-3.75 0-6 2.4c-1.5 1.6-2.3 3.6-2.3 5.9v31.1h-20v-53h16.3l1.3 8c2.1-2.8 4.8-5 8.2-6.7 3.5-1.5 7-2.4 10.8-2.4m61.6 1.3h23.3l-19.6 21.3 20.1 31.6h-22.7l-11.1-18.2-6.9 6.7v11.4h-20V219h20v40.1zm24.3 52.9v-20H512v20z" style="fill:#004aad"/></svg>