<svg xmlns="http://www.w3.org/2000/svg" xml:space="preserve" viewBox="0 0 512 512"><path d="M511.8 339.1c-4-43-43.3-59.5-64.8-56 17.9-10 41.9-57 5.5-94-28.9-27.5-65.8-17.5-78.8-5.5 7-23-4.5-70.5-51.4-78-3.2-.4-6.4-.6-9.3-.6-35.8 0-51.9 26.2-57 39.1-8-19.9-27.4-41.5-63.8-38.5-46.4 5-60.8 49.5-53.8 76-18.5-12.5-49.9-18-77.3 5.5-35.4 35.5-16.5 83.5 3 95-21.5-2-55.4 12.5-62.9 50.4C-6.9 379.6 29 407 64 407h387.5c40.4 0 62.8-35 60.3-67.9M67.4 194.5c28.9-24.5 69.8-16 84.8 22.5l71.3 163.4L76.4 279.6c-36.9-24.6-29.4-66.5-9-85.1M63.5 398c-34.9 0-62.3-32-51.4-71 13-34 48.9-46 80.8-25.5L231 398zM250 178.5l-25.9 183-73.8-174c-16-43.5 19.9-72 43.8-72.5 27.4-2.9 61.9 18 55.9 63.5m158.4 2.7c15.5 0 30.1 6.9 38 15.9 19 19 24.4 57.5-9.5 81.5L289.9 380l69.3-161.5c11.4-27.6 30.9-37.3 49.2-37.3m-124.5-6.1c-1-3.5-8.5-3.5-8.5-3.5h-14c-1.4-38.9 27.3-57.1 52.4-57.1 1.4 0 2.7.1 4 .2 27.9 1 59.4 33.5 44.4 72.5l-73.3 174.5-23.5-157.5c-1.9-24.1 13-24.7 18.5-29.1M452.5 398H282.4l138.1-96.5c10.1-6.7 20.3-9.6 29.9-9.6 22.9 0 42.7 16.3 49.4 37.1 10 33-12.4 69-47.3 69m0-9.5H312.6l113.3-79.1c8-5.3 16.2-7.9 24.6-7.9 17.9 0 34.5 12.5 40.3 30.4 4.2 13.9 1.6 29.1-7 40.7-7.7 10.2-18.8 15.9-31.3 15.9m-12.8-184.7c8.6 8.6 13.3 21.6 12.2 34-1.1 12.9-8.1 24.3-20.4 33l-119.9 82.7L368 222.3l.1-.1c10.7-26 27.8-31.5 40.4-31.5 13.6 0 25.3 6.4 30.9 12.7zm-125.9-79.9c1.1 0 2.2.1 3.3.1h.3c11.8.4 24.4 8.1 32 19.6 7.8 11.8 9.2 26 3.9 39.8l-60.1 143L274.9 203c-.9-12.1 2.9-14 8.6-16.8 2.1-1 4.4-2.1 6.4-3.8l4.9-4-1.7-6c-2.2-7.7-10.5-10.4-17.6-10.4h-4.1c1.2-10.1 5-18.7 11.3-25.2 7.8-8.1 19.4-12.9 31.1-12.9m-119.5.7.8-.1c12.4-1.4 25.5 3.3 34.2 12.2 9.5 9.8 13.4 23.8 11.2 40.4l-21.1 149.2L159.1 184c-6.9-18.9-1.7-32.5 3.8-40.5 8.3-12.2 22.1-18.7 31.4-18.9M63.5 388.5c-14.2 0-27.2-6.3-35.5-17.3-8.6-11.4-11-26-6.8-41.2 5.2-13.4 14.7-23 26.8-27 12.5-4.1 26.6-1.8 39.6 6.5l113.3 79.1H63.5zm10.2-186.8c11.8-9.9 26.1-13.6 39.4-10.2 13.6 3.5 24.3 13.8 30.2 29l.1.2 58.2 133.2-119.8-82.2-.1-.1c-16.6-11-20.9-24.7-21.6-34.3-1-13.1 4.3-27.1 13.6-35.6"/></svg>