<svg xmlns="http://www.w3.org/2000/svg" xml:space="preserve" viewBox="0 0 512 512"><path d="M262.7 465.1c-5 0-9.8-19.3-9.9-24.4-.1-7.6.8-16.1 10.1-16.1s10 8.5 10.1 16.1c.1 6.9-5.3 24.4-10.3 24.4m39.4 46.6c15.6.1 78.4 3.2 79.3-18.1s-29.9-32.5-47.7-33.3c-17.9-.8-45.7 10-51.9 4.5-8-7.2 6-40.2 11.3-46.7 3.7-4.4 9.7-11.2 12.9-14.2 12.7-11.8 20.6-28.2 20.6-46.5-.1-20-6-27.3 14-11.3 6.9 5.5 16.4 12.6 28.5 18.2 24.3 11.2-28.1-35.8-38.2-44.8-16.8-14.9-22.3-23-13-28.9 7.4-4.6 14.3-9.8 20.8-15.4 25.5-22.1 43.7-55.6 40.1-104.5-3-44.6-87-170.2-109.5-170.7-18.1-.4-55 45-75.2 69.5-21.9 26.6-56.2 72.7-63.1 99.8-2 8-2.8 16.5-2.8 25.2 0 30.7 16 59.4 40.5 79.9 15 12.5 31.6 22.2 5.1 49.3-15.8 16.2-51.9 50.4-31 40.7 12.2-5.6 21.3-13.1 28.6-18.2 15.1-10.8 21.1-14.3 17.8-.7-.7 2.9-.6 5.8-.6 8.8 0 19 7.9 36.1 20.3 48.6 3.2 3.3 12.5 10.4 17.8 14.9 12.5 10.8 25.5 39.8 17.4 47-6.1 5.5-34-5.2-51.8-4.5-17.8.8-48.5 12.1-47.7 33.3s67.6 18.2 83.2 18.3c35.1.3 23.3-13.7 35.1-13.5 11.6.4-.2 13.1 39.2 13.3M118.8 370.3c-3.5 0-36 .4-46.1 4.8-10.1 4.5 6.1 10.8 19.8 11.6 6.9.4 4.7 5.5 1.6 9.6-24.6 33.7-5.6 26.9 11 12.1 4.1-3.6 5.6 1.2 6.1 5.7.4 4.4 10.9 37.3 14.2-4.5 1.3-17.3 2.4-26.5 1.6-32.5-.9-6-4.1-6.8-8.2-6.8m274.4 0c3.4 0 36 .4 46.1 4.8 10.1 4.5-6.1 10.8-19.9 11.6-6.8.4-4.6 5.5-1.6 9.6 24.7 33.7 5.7 26.9-10.9 12.1-4.1-3.6-5.6 1.2-6.1 5.7-.4 4.4-11 37.3-14.2-4.5-1.3-17.3-2.4-26.5-1.6-32.5.9-6 4.1-6.8 8.2-6.8"/><path d="M278.4 292.4c24.6 0 45.5-12.9 62.7-29.2 19.9-18.9 34.1-47.6 31.4-89.5-2.7-38-76.3-147.9-93.8-148.4-14.3-.4-36 40.1-51.8 61.1-17.2 22.7-43.1 63-48.5 86.2-1.6 6.9-2.2 14.1-2.2 21.5 0 53.5 52.9 98.3 102.2 98.3m-31.5-175.6c12.6 0 24.7 7 32.2 19.7 8 13.6 14.2 9.8 17.6 4.9 6.9-9.9 15.3-16.5 25-16.5 19.6 0 35.5 25.3 35.5 56.5s-15.9 56.5-35.5 56.5c-9.7 0-17.8-6.8-25-16.5-3.8-5.2-8.7-6.5-12.1.4-8.5 17.7-22 29.6-37.7 29.6-25.1 0-45.5-30.1-45.5-67.3s20.3-67.3 45.5-67.3M347 495.2c-4.8 8.4-23.5 9.2-37.7 3.2-14-6-31.7 1.9-24.6-11.2 6.1-11.2 22.7-9.6 30.4-8.4s36.9 8 31.9 16.4m-106-8c7.1 13.1-10.5 5.2-24.6 11.2-14.2 6-32.8 5.2-37.7-3.2-4.8-8.4 24.3-15.2 32-16.4 7.6-1.2 24.2-2.8 30.3 8.4m75.2-128.5c0-25.9-21.1-47-47.3-47s-47.4 21-47.4 47 21.2 47 47.4 47 47.3-21 47.3-47m-44.8 22.2c-4.9 0-8.9-4-8.9-8.9s4-8.8 8.9-8.8 8.9 3.8 8.9 8.8c0 4.9-4 8.9-8.9 8.9" style="fill:#c3de6c"/><path d="M247 136.9c-17.7 0-32 21.2-32 47.3s14.4 47.2 32 47.2 31.9-21.2 31.9-47.2c0-26.1-14.3-47.3-31.9-47.3m1.5 68.9c-6.1 0-11.1-10.5-11.1-23.5s5-23.5 11.1-23.5c6.2.1 11.2 10.6 11.2 23.5 0 13-5 23.5-11.2 23.5m73.2-63.9c-13.7 0-24.8 17.6-24.8 39.6 0 21.9 11.1 39.6 24.8 39.6 13.8 0 24.9-17.7 24.9-39.6 0-22-11.1-39.7-24.9-39.6m1.2 57.2c-4.9 0-8.9-8.4-8.9-18.7 0-10.4 4-18.8 8.9-18.8 4.8 0 8.9 8.4 8.9 18.8 0 10.3-4 18.7-8.9 18.7" style="fill:#fff"/></svg>