<svg xmlns="http://www.w3.org/2000/svg" xml:space="preserve" viewBox="0 0 512 512"><path d="M256 511.9c-5.1 0-9.8-1.6-13.7-4.2l-231-153.3c-2.6-1.6-5-3.8-6.9-6.5l-.1-.1-.1-.1c-.1-.1-.1-.2-.2-.3v-.1s.1.2 0-.1v-.1c-2.7-4.2-4-8.9-4-13.6V178.3c-.1-4.5 1.1-9.1 3.7-13.2v-.1c.2-.4.5-.7.7-1.1 1.9-2.6 4.2-4.8 6.8-6.4l231-153.3c7.8-5.3 19.6-5.3 27.4 0l231 153.3c2.6 1.6 4.9 3.8 6.8 6.5.3.4.5.7.7 1.1v.1c2.6 4.1 3.8 8.7 3.7 13.2v155.3c.1 4.7-1.2 9.4-4 13.6 0 .1 0 .1-.1.1 0 0 .2-.1-.1.1-.1.1-.1.2-.2.3l-.1.1v.2c-1.9 2.7-4.2 4.9-6.8 6.5l-231 153.3c-3.7 2.4-8.4 4-13.5 4m24.2-167.2v97.8l163.9-108.8-73.1-49.2zm-212.4-11 163.9 108.8v-97.8L141 284.5zm116.7-78.5 71.5 47.4 71.5-47.4-71.5-48.1zm230.2.3 48.8 32.8v-65.2zM48.5 223.1v65.2l48.8-32.8zM280.2 165l91 61.2 72.8-48.3L280.2 69.3zM68 177.9l72.8 48.3 91-61.2V69.3z" style="fill:#fff"/></svg>