<?xml version="1.0" encoding="utf-8"?>
<!-- Generator: Adobe Illustrator 28.2.0, SVG Export Plug-In . SVG Version: 6.00 Build 0)  -->
<svg version="1.1" id="Layer_1" xmlns="http://www.w3.org/2000/svg" xmlns:xlink="http://www.w3.org/1999/xlink" x="0px" y="0px"
	 viewBox="0 0 512 512" style="enable-background:new 0 0 512 512;" xml:space="preserve">
<style type="text/css">
	.st0{fill:#C3DE6C;}
	.st1{fill:#FFFFFF;}
</style>
<g>
	<path id="svg_2" d="M262.7,465.1c-5,0-9.8-19.3-9.9-24.4c-0.1-7.6,0.8-16.1,10.1-16.1c9.3,0,10,8.5,10.1,16.1
		C273.1,447.6,267.7,465.1,262.7,465.1z M302.1,511.7c15.6,0.1,78.4,3.2,79.3-18.1c0.9-21.3-29.9-32.5-47.7-33.3
		c-17.9-0.8-45.7,10-51.9,4.5c-8-7.2,6-40.2,11.3-46.7c3.7-4.4,9.7-11.2,12.9-14.2c12.7-11.8,20.6-28.2,20.6-46.5
		c-0.1-20-6-27.3,14-11.3c6.9,5.5,16.4,12.6,28.5,18.2c24.3,11.2-28.1-35.8-38.2-44.8c-16.8-14.9-22.3-23-13-28.9
		c7.4-4.6,14.3-9.8,20.8-15.4c25.5-22.1,43.7-55.6,40.1-104.5C375.8,126.1,291.8,0.5,269.3,0c-18.1-0.4-55,45-75.2,69.5
		c-21.9,26.6-56.2,72.7-63.1,99.8c-2,8-2.8,16.5-2.8,25.2c0,30.7,16,59.4,40.5,79.9c15,12.5,31.6,22.2,5.1,49.3
		c-15.8,16.2-51.9,50.4-31,40.7c12.2-5.6,21.3-13.1,28.6-18.2c15.1-10.8,21.1-14.3,17.8-0.7c-0.7,2.9-0.6,5.8-0.6,8.8
		c0,19,7.9,36.1,20.3,48.6c3.2,3.3,12.5,10.4,17.8,14.9c12.5,10.8,25.5,39.8,17.4,47c-6.1,5.5-34-5.2-51.8-4.5
		c-17.8,0.8-48.5,12.1-47.7,33.3s67.6,18.2,83.2,18.3c35.1,0.3,23.3-13.7,35.1-13.5C274.5,498.8,262.7,511.5,302.1,511.7z"/>
	<path id="svg_3" class="st0" d="M278.7,25.3c-14.3-0.4-36,40.1-51.8,61.1c-17.2,22.7-43.1,63-48.5,86.2c-1.6,6.9-2.2,14.1-2.2,21.5
		c0,53.5,52.9,98.3,102.2,98.3c24.6,0,45.5-12.9,62.7-29.2c19.9-18.9,34.1-47.6,31.4-89.5C369.8,135.7,296.2,25.8,278.7,25.3z"/>
	<path id="svg_4" d="M296.7,221.4c7.2,9.7,15.3,16.5,25,16.5c19.6,0,35.5-25.3,35.5-56.5c0-31.2-15.9-56.5-35.5-56.5
		c-9.7,0-18.1,6.6-25,16.5c-3.4,4.9-9.6,8.7-17.6-4.9c-7.5-12.7-19.6-19.7-32.2-19.7c-25.2,0-45.5,30.1-45.5,67.3
		s20.4,67.3,45.5,67.3c15.7,0,29.2-11.9,37.7-29.6C288,214.9,292.9,216.2,296.7,221.4z"/>
	<path id="svg_5" class="st1" d="M278.9,184.2c0,26-14.3,47.2-31.9,47.2s-32-21.1-32-47.2c0-26.1,14.3-47.3,32-47.3
		C264.6,136.9,278.9,158.1,278.9,184.2z"/>
	<path id="svg_6" class="st1" d="M346.6,181.5c0,21.9-11.1,39.6-24.9,39.6c-13.7,0-24.8-17.7-24.8-39.6c0-22,11.1-39.6,24.8-39.6
		C335.5,141.8,346.6,159.5,346.6,181.5z"/>
	<path id="svg_7" class="st0" d="M316.2,358.7c0,26-21.1,47-47.3,47c-26.2,0-47.4-21-47.4-47c0-26,21.2-47,47.4-47
		C295.1,311.7,316.2,332.8,316.2,358.7z"/>
	<path id="svg_8" d="M280.3,372c0,4.9-4,8.9-8.9,8.9s-8.9-4-8.9-8.9c0-4.9,4-8.8,8.9-8.8S280.3,367,280.3,372z"/>
	<path id="svg_9" d="M118.8,370.3c-3.5,0-36,0.4-46.1,4.8c-10.1,4.5,6.1,10.8,19.8,11.6c6.9,0.4,4.7,5.5,1.6,9.6
		c-24.6,33.7-5.6,26.9,11,12.1c4.1-3.6,5.6,1.2,6.1,5.7c0.4,4.4,10.9,37.3,14.2-4.5c1.3-17.3,2.4-26.5,1.6-32.5
		C126.1,371.1,122.9,370.3,118.8,370.3z"/>
	<path id="svg_10" class="st0" d="M241,487.2c-6.1-11.2-22.7-9.6-30.3-8.4c-7.7,1.2-36.8,8-32,16.4c4.9,8.4,23.5,9.2,37.7,3.2
		C230.5,492.4,248.1,500.3,241,487.2z"/>
	<path id="svg_11" d="M393.2,370.3c3.4,0,36,0.4,46.1,4.8c10.1,4.5-6.1,10.8-19.9,11.6c-6.8,0.4-4.6,5.5-1.6,9.6
		c24.7,33.7,5.7,26.9-10.9,12.1c-4.1-3.6-5.6,1.2-6.1,5.7c-0.4,4.4-11,37.3-14.2-4.5c-1.3-17.3-2.4-26.5-1.6-32.5
		C385.9,371.1,389.1,370.3,393.2,370.3z"/>
	<path id="svg_12" class="st0" d="M284.7,487.2c6.1-11.2,22.7-9.6,30.4-8.4c7.7,1.2,36.9,8,31.9,16.4c-4.8,8.4-23.5,9.2-37.7,3.2
		C295.3,492.4,277.6,500.3,284.7,487.2z"/>
	<path id="svg_13" d="M259.7,182.3c0,13-5,23.5-11.2,23.5c-6.1,0-11.1-10.5-11.1-23.5s5-23.5,11.1-23.5
		C254.7,158.9,259.7,169.4,259.7,182.3z"/>
	<path id="svg_14" d="M331.8,180.4c0,10.3-4,18.7-8.9,18.7c-4.9,0-8.9-8.4-8.9-18.7c0-10.4,4-18.8,8.9-18.8
		C327.7,161.6,331.8,170,331.8,180.4z"/>
</g>
</svg>
