<svg xmlns="http://www.w3.org/2000/svg" xml:space="preserve" viewBox="0 0 512 512"><path d="M499.6 232.4c-10.2 0-17-5.9-17-18V145c0-44.3-18.6-68.8-66.5-68.8h-22.3V123h6.8c18.9 0 27.8 10.2 27.8 28.5v61.4c0 26.7 8 37.5 25.7 43.1-17.6 5.3-25.7 16.4-25.7 43.1v45.6c0 12.7 0 25.1-3.4 37.8-3.4 11.8-9 22.9-16.7 32.5-4.3 5.6-9.3 10.2-14.8 14.6v6.2h22.3c47.9 0 66.5-24.5 66.5-68.8v-69.4c0-12.4 6.5-18 17-18H512v-46.8h-12.4zm-151.5-85.5h-68.6c-1.5 0-2.8-1.2-2.8-2.8v-5.3c0-1.5 1.2-2.8 2.8-2.8h68.9c1.5 0 2.8 1.2 2.8 2.8v5.3c0 1.6-1.5 2.8-3.1 2.8m11.8 67h-50.1c-1.5 0-2.8-1.2-2.8-2.8v-5.3c0-1.5 1.2-2.8 2.8-2.8h50.1c1.5 0 2.8 1.2 2.8 2.8v5.3c0 1.2-1.3 2.8-2.8 2.8m19.8-33.5H279.5c-1.5 0-2.8-1.2-2.8-2.8v-5.3c0-1.5 1.2-2.8 2.8-2.8h99.9c1.5 0 2.8 1.2 2.8 2.8v5.3c-.1 1.2-1 2.8-2.5 2.8M200 162.1c6.8 0 13.6.6 20.1 2.2v-12.7c0-18 9.3-28.5 27.8-28.5h6.8V76.3h-22.3c-47.9 0-66.5 24.5-66.5 68.8V168c10.9-3.7 22.4-5.9 34.1-5.9m200.7 168.6c-4.9-39.4-35.2-72.2-74.2-79.6-10.8-2.2-21.6-2.5-32.2-.6-.3 0-.3-.3-.6-.3-17-35.6-53.5-59.2-93.1-59.2s-75.7 22.9-93.1 58.6c-.3 0-.3.3-.6.3-11.1-1.2-22.3-.6-33.4 2.2-38.3 9.3-67.4 41.5-72.7 80.6-.6 4-.9 8.1-.9 11.8 0 11.8 8 22.6 19.8 24.2 14.5 2.2 27.2-9 26.9-23.2 0-2.2 0-4.6.3-6.8 2.5-19.8 17.6-36.6 37.4-41.2 6.2-1.5 12.4-1.9 18.2-.9 18.9 2.5 37.4-7.1 45.4-23.9 5.9-12.4 15.2-23.2 27.5-29.1 13.6-6.5 29.1-7.4 43.3-2.5 14.8 5.3 26 16.4 32.8 30.4 7.1 13.6 10.5 23.2 25.7 25.1 6.2.9 23.5.6 30 .3 12.7 0 25.4 4.3 34.3 13.3 5.9 6.2 10.2 13.9 12.1 22.6 2.8 13.9-.6 27.9-9 38.4-5.9 7.4-13.9 13-22.9 15.5-4.3 1.2-8.7 1.5-13 1.5h-68.3c-13.6 0-24.4-10.8-24.4-24.5v-90.8c0-3.7-3.1-6.8-6.8-6.8h-9.6c-18.9.3-34 21.4-34 43.7v81.5c0 24.2 19.5 43.7 43.6 43.7 0 0 107.3-.3 108.8-.3 24.7-2.5 47.6-15.2 63.1-34.7 15.6-19.1 22.7-43.9 19.6-69.3" style="fill:#fff"/></svg>