<svg xmlns="http://www.w3.org/2000/svg" xml:space="preserve" viewBox="0 0 512 512"><path d="M179.6 104.8C89.8 104.8 24 170.7 24 260.5 24 374.3 179.6 512 179.6 512s155.7-137.7 155.7-251.5c0-89.8-65.8-155.7-155.7-155.7m0 209.6c-29.8 0-53.9-24.1-53.9-53.9s24.1-53.9 53.9-53.9 53.9 24.1 53.9 53.9-24.1 53.9-53.9 53.9" style="fill:#fff"/><path d="M431.2 320.4c-6.6 0-12-5.4-12-12 0-132.1-107.5-239.5-239.5-239.5-6.6 0-12-5.4-12-12s5.4-12 12-12c145.3 0 263.5 118.2 263.5 263.5-.1 6.6-5.4 12-12 12" style="opacity:.6;fill:#fff"/><path d="M479.1 317.4c-5 0-9-4-9-9C470.1 148.3 339.8 18 179.6 18c-5 0-9-4-9-9s4-9 9-9C349.7 0 488 138.3 488 308.4c0 5-4 9-8.9 9" style="opacity:.4;fill:#fff"/></svg>