<svg xmlns="http://www.w3.org/2000/svg" xml:space="preserve" viewBox="0 0 512 512"><path d="M405.3 0H106.7C47.8 0 0 47.8 0 106.7v298.6C0 464.2 47.8 512 106.7 512h298.6c58.9 0 106.7-47.8 106.7-106.7V106.7C512 47.8 464.2 0 405.3 0M404 123.5l-14 49.1c-4.6 16.2-21.5 29.4-37.6 29.4l-66.9.1h-31.2c-3.7 0-7 2.5-8 6.1l-26 90.9c-.7 2.5-.2 5.3 1.4 7.4s4 3.3 6.7 3.3l44.2-.1h48.7c7.7 0 13.9 2.8 17.9 8.2 4.1 5.5 5.2 13.3 3 21.2l-14 49.1c-4.6 16.2-21.5 29.4-37.6 29.4l-66.9.1H175c-7.7 0-13.9-2.8-17.9-8.2-4.1-5.5-5.2-13.3-3-21.2l9.1-31.9c.7-2.5.2-5.3-1.4-7.4s-4-3.3-6.7-3.3H129c-7.7 0-13.9-2.8-17.9-8.2-4.1-5.5-5.2-13.3-3-21.2l31.2-109 3.4-12c4.6-16.2 21.5-29.5 37.6-29.5h31.2c3.7 0 7-2.5 8-6.1l10.3-36.2c4.6-16.2 21.5-29.4 37.6-29.4l66.8-.1h48.9c7.7 0 13.9 2.8 17.9 8.2 4.2 5.7 5.2 13.4 3 21.3" style="fill:#fff"/></svg>