<?xml version="1.0" encoding="utf-8"?>
<!-- Generator: Adobe Illustrator 28.2.0, SVG Export Plug-In . SVG Version: 6.00 Build 0)  -->
<svg version="1.1" id="Layer_1" xmlns="http://www.w3.org/2000/svg" xmlns:xlink="http://www.w3.org/1999/xlink" x="0px" y="0px"
	 viewBox="0 0 512 512" style="enable-background:new 0 0 512 512;" xml:space="preserve">
<path d="M240.4,376.2c0-0.4-0.6-37.3-18.8-72c-21.9-42-59.7-62.2-115.3-61.9c-24.6,0.2-44.6-19.7-44.8-44.2
	c-0.1-24.6,19.7-44.6,44.3-44.8c65-0.4,118,19.3,157.4,58.6C328.6,277,329.4,372,329.4,376h-89V376.2z M481.8,376
	c0-3.8-0.5-94.4-46-185.6C392.5,103.5,300.3,0,106.8,0C82.3,0,62.3,19.9,62.3,44.5S82.3,89,106.8,89c117.7,0,201.2,46.6,248.1,138.6
	c37,72.6,37.9,147.8,37.9,148.4c0,24.6,19.9,44.5,44.5,44.5C461.9,420.5,481.8,400.6,481.8,376z M184.4,372.3
	c0,24.4-10.3,51.7-28.2,74.9c-20.5,26.3-65,64.2-79.3,64.7l-1.3,0l0.7-1.1c4.3-7.2,26.3-56.2,28.9-63.3c-41.4-0.5-75-34-75-75.2
	c0-41.5,34.1-75.2,75.9-75.2C148.5,297.1,184.4,331.6,184.4,372.3z"/>
</svg>
