<?xml version="1.0" encoding="utf-8"?>
<!-- Generator: Adobe Illustrator 28.2.0, SVG Export Plug-In . SVG Version: 6.00 Build 0)  -->
<svg version="1.1" id="Layer_1" xmlns="http://www.w3.org/2000/svg" xmlns:xlink="http://www.w3.org/1999/xlink" x="0px" y="0px"
	 viewBox="0 0 512 512" style="enable-background:new 0 0 512 512;" xml:space="preserve">
<style type="text/css">
	.st0{fill:#FFFFFF;}
</style>
<path class="st0" d="M256,0.4C114.6,0.4-0.1,115.1-0.1,256.5S114.6,512.6,256,512.6s256.1-114.7,256.1-256.1S397.4,0.4,256,0.4z
	 M263.6,321.9c9,0,17.6-1.7,25.4-4.9h26.9c-14.2,12.3-32.7,19.8-53,19.8c-44.7,0-80.9-36.2-80.9-80.9s36.2-80.9,80.9-80.9
	c20.9,0,39.9,7.9,54.2,20.9h-26.4c-8.3-3.6-17.4-5.6-27.1-5.6c-37.1,0-67.2,29.4-67.2,65.7C196.4,292.5,226.5,321.9,263.6,321.9z
	 M263.2,162.6c-51.9,0-94,42.1-94,94s42.1,94,94,94c28.9,0,54.7-13,71.9-33.5h48.2c-22.2,44.1-67.9,74.3-120.6,74.3
	c-74.6,0-135-60.4-135-135s60.4-135,135-135c52.9,0,98.6,30.4,120.8,74.7h-48.5C317.8,175.6,292.1,162.6,263.2,162.6z"/>
</svg>
