<svg xmlns="http://www.w3.org/2000/svg" xml:space="preserve" viewBox="0 0 512 512"><path d="m304 256 59.8 97.8 88.4 144.5 59.8-97.8L423.6 256 512 111.5l-59.8-97.8-88.4 144.6zm-211.8 0 46.1 75.4 68.1 111.4 46.1-75.4L184.3 256l68.1-111.4-46.1-75.4-68.1 111.4z" style="fill:#1c96f7"/><path d="M184.3 256H304l59.8-97.8 88.4-144.6H332.5L304 60.3l-59.8 97.8zM0 256h92.2l46.1-75.4 68.1-111.4h-92.2l-22 36-46.1 75.4z" style="fill:#96d2f6"/><path d="m184.3 256 59.8 97.8 59.8 97.8 28.6 46.7h119.6l-88.4-144.5L304 256zM0 256l46.1 75.4 46.1 75.4 22 36h92.2l-68.1-111.4L92.2 256z" style="fill:#46b1f7"/></svg>