<svg xmlns="http://www.w3.org/2000/svg" xml:space="preserve" viewBox="0 0 512 512"><linearGradient id="composr-dark_svg__a" x1="19.179" x2="492.821" y1="256" y2="256" gradientUnits="userSpaceOnUse"><stop offset="0" style="stop-color:#000"/><stop offset="1" style="stop-color:#000;stop-opacity:.7"/></linearGradient><path d="M459.8 142.4H52.2c-18.3 0-33.1-14.8-33.1-33.1V33.1C19.2 14.8 34 0 52.2 0h407.5c18.3 0 33.1 14.8 33.1 33.1v76.3c0 18.2-14.8 33-33 33M353.6 294.1v-76.3c0-18.3-14.8-33.1-33.1-33.1H52.2c-18.3 0-33.1 14.8-33.1 33.1v76.3c0 18.3 14.8 33.1 33.1 33.1h268.3c18.3 0 33.1-14.8 33.1-33.1m81.8 184.8v-76.3c0-18.3-14.8-33.1-33.1-33.1H52.2c-18.3 0-33.1 14.8-33.1 33.1v76.3c0 18.3 14.8 33.1 33.1 33.1h350.1c18.3 0 33.1-14.8 33.1-33.1" style="fill:url(#composr-dark_svg__a)"/></svg>