<svg xmlns="http://www.w3.org/2000/svg" xml:space="preserve" viewBox="0 0 24 24"><path d="m11.2 13.9 1.5-.9v4.4l-1.5.9zm2.6-8.6c-.1 0-.2-.1-.2-.1-.1 0-.2 0-.3.1L5.8 9.7l4.7 2.9 7.8-4.5zM24 6.7v10.7c0 3.7-3 6.7-6.7 6.7H6.7C3 24 0 21 0 17.3V6.7C0 3 3 0 6.7 0h10.7C21 0 24 3 24 6.7m-3.7 2.1c0-.2 0-.4-.1-.5 0-.1 0-.2-.1-.3l-.1-.1c-.2-.4-.4-.7-.7-.9l-4.8-3c-.6-.4-1.4-.4-2 0L4.8 8.5c-.3.2-.6.5-.8.8 0 0-.1 0-.1.1-.1.1-.1.2-.1.3-.1.2-.1.4-.1.5v5c0 .7.5 1.4 1 1.8l4.8 3c.3.2.7.3 1 .3.4 0 .7-.1 1-.3l7.8-4.5c.6-.4 1-1.1 1-1.8zM5.2 15.2c0 .1.2.4.3.5l4.2 2.6v-4.4l-4.5-2.8zm9.1 1.4 1.5-.9v-4.4l-1.5.9zm3-1.8 1.2-.7c.1-.1.3-.4.3-.5v-4l-1.5.9z"/></svg>