<svg xmlns="http://www.w3.org/2000/svg" xml:space="preserve" viewBox="0 0 512 512"><path d="M487.4 140.5c8.9 8.7 16.2 18.4 20.4 30.4 10.1 29.1.8 60.6-23.5 79.7-.8.6-1.7 1.3-2.6 2 29.1 24.4 38.4 54.2 22.9 89.5-11.4 26-40.4 42.3-67.7 40-32.3-2.8-55.5-21.9-64.8-53.5H141.2c-.4 1.7-.8 3.6-1.2 5.4-11.6 49.4-70.7 70.9-111.3 40.6-1.3-1-2.7-1.8-4.1-2.6-4-4.7-8.4-9-11.8-14-21.6-31.5-15.1-72.9 15-96.4.8-.6 1.6-1.3 2.8-2.2-15.3-11.2-25.3-25.8-29-44.3-3-14.9-1.3-29.3 4.8-43.2 11.5-26.1 39.3-43.2 67.6-41.8 28.6 1.4 60.5 21.4 67.5 60.1h228.6c.4-2.8.7-5.7 1.3-8.4 11-53.2 70.8-75.4 113.9-42.4.6.2 1.3.6 2.1 1.1M54.3 259.2c-15.7 6.6-28.2 15.4-35.9 29.8-7.6 14.3-9.4 29.4-5 45 7.3 25.7 30.7 43.3 57.3 43.4 13.4.1 25.5-3.9 36.1-12 15.7-11.9 23.3-28.2 24.2-47.7h249.9c10 35.2 29.5 52.9 58.6 53.4 26.7.4 50.2-16.2 58.3-41.4 4-12.4 4-24.9-.2-37.2-6.5-19.5-20.7-31.5-40.1-39.5 15.9-6.8 28.6-15.7 36.2-30.6 7.7-14.9 9.1-30.4 3.9-46.3-8.6-26.5-33.5-43-62-41-13.2.9-24.8 6.1-34.6 14.9-15 13.6-21.4 30.8-19.9 50.9H130.7c-.5-16.1-5.9-30.2-17.1-41.6-11.3-11.6-25.2-17.8-41.5-18.1-27.5-.5-51.5 17.2-59 43.6-3.7 13-2.9 25.9 2.1 38.5 7.3 17.4 20.8 28.3 39.1 35.9" style="fill:#fdfafb"/><path d="M131 200.7c-.5-16.1-5.9-30.2-17.1-41.6-11.3-11.6-25.2-17.8-41.5-18.1-27.5-.5-51.5 17.2-59 43.6-3.7 13-2.9 25.9 2.1 38.5 7 17.6 20.5 28.5 38.9 36.1-15.7 6.6-28.2 15.4-35.9 29.8-7.6 14.3-9.4 29.4-5 45 7.3 25.7 30.7 43.3 57.3 43.4 13.4.1 25.5-3.9 36.1-12 15.7-11.9 23.3-28.2 24.2-47.7h63.4l116.9-116.9c-60.2-.1-120.2-.1-180.4-.1" style="fill:#eb008c"/><path d="M194.4 317.6h186.5c10 35.2 29.5 52.9 58.6 53.4 26.7.4 50.2-16.2 58.3-41.4 4-12.4 4-24.9-.2-37.2-6.5-19.5-20.7-31.5-40.1-39.5 15.9-6.8 28.6-15.7 36.2-30.6 7.7-14.9 9.1-30.4 3.9-46.3-8.6-26.5-33.5-43-62-41-13.2.9-24.8 6.1-34.6 14.9-15 13.6-21.4 30.8-19.9 50.9H311z"/></svg>