<svg xmlns="http://www.w3.org/2000/svg" xml:space="preserve" viewBox="0 0 512 512"><path d="M402.3 0H109.7C49.1 0 0 49.1 0 109.7v292.6C0 462.9 49.1 512 109.7 512h292.6c60.6 0 109.7-49.1 109.7-109.7V109.7C512 49.1 462.9 0 402.3 0m-11.7 264c-16 0-30-8.4-37.9-21l-30.8 10.5c.5 3.3.8 6.7.8 10.2 0 17-6.4 32.6-16.9 44.4l21.1 26.5c5.6-2.6 11.9-4 18.5-4 24.7 0 44.8 20 44.8 44.8 0 24.7-20 44.8-44.8 44.8-24.7 0-44.8-20-44.8-44.8 0-10.1 3.3-19.4 8.9-26.8l-21.1-26.5c-9.7 5.4-20.8 8.5-32.6 8.5-11.9 0-23.1-3.1-32.8-8.6l-21 26.3c5.7 7.5 9.1 16.9 9.1 27 0 24.7-20 44.8-44.8 44.8s-44.8-20-44.8-44.8c0-24.7 20-44.8 44.8-44.8 6.5 0 12.7 1.4 18.3 3.9l21.1-26.5c-10.4-11.8-16.8-27.3-16.8-44.3 0-3.6.3-7.1.8-10.5l-30.8-10.5c-8 12.2-21.8 20.3-37.5 20.3-24.7 0-44.8-20-44.8-44.8 0-24.7 20-44.8 44.8-44.8s44.8 20 44.8 44.8c0 1.2-.1 2.3-.1 3.4l30.7 10.5c9.6-18 27.2-31 48.1-34.4V165c-19.5-4.9-33.9-22.5-33.9-43.4 0-24.7 20-44.8 44.8-44.8s44.8 20 44.8 44.8c0 20.8-14.2 38.3-33.4 43.3v32.8c20.7 3.6 38.1 16.6 47.7 34.5l31.1-10.6c0-.8-.1-1.7-.1-2.5 0-24.7 20-44.8 44.8-44.8 24.7 0 44.8 20 44.8 44.8-.2 24.9-20.2 44.9-44.9 44.9"/></svg>