<svg xmlns="http://www.w3.org/2000/svg" xml:space="preserve" shape-rendering="geometricPrecision" text-rendering="geometricPrecision" viewBox="0 0 512 512"><path d="M247.3.1C291-1 332.7 6.2 373.9 16.9c27.1 7 53.6 15.9 79.5 26.6 14.1 5.8 17.7 11.3 17.7 26.3 0 59.2.4 118.5-.1 177.7-.5 53.6-20.2 100.3-54.3 141.1-41.8 50.2-94.4 87-150.1 119.8-5.8 3.4-11.9 5.1-18.3 1.5-68.2-39.5-132.5-83.6-175.6-151.9-20.7-32.7-31.3-69-31.6-107.8-.5-60.2-.2-120.4-.2-180.6 0-15.4 4-21.3 18.4-26.9 60.2-23.5 122-40.1 188-42.6m-91.1 282.7c-8.1 22.7-16.4 45.3-24.3 68.1-4.1 11.9-1 21.7 9 29.8 6.5 5.3 13.8 9.4 21.6 12.6 51.4 20.7 104.2 19.4 157.4 9.7 17.2-3.1 33.5-9.2 48-19.2 13.8-9.6 17.1-19.8 12-35.7-1.2-3.7-2.5-7.3-3.8-10.9-20.9-58.4-41.9-116.8-62.9-175.2-10.4-29-21-58-31.4-87.1-4.2-11.7-11.6-19.2-24.6-19.6-12-.4-20.4 6-25.9 19.3-1.3 3.3-2.5 6.6-3.7 9.9-23.6 65.7-47.2 131.3-71.4 198.3m24.2 96c-31.4-11.3-32.5-14.5-21.4-45.1 25.9-71.3 51.4-142.7 77.1-214.1 1.2-3.3 2.6-6.6 3.7-9.9 2.7-7.9 8.3-12.2 16.6-12.1s13.7 4.6 16.5 12.5c5.8 16.4 11.8 32.6 17.6 49L358 346.9c4.5 12.6 1.2 20.8-11.3 26.5-18.3 8.3-37.8 13.3-57.7 14.3-36.2 1.7-72.7 3.2-108.6-8.9m123.3-84.7c-.8-7.2 3.4-17-2.9-21.1-8.1-5.1-6.6-11.3-6.8-18-.7-22.1-15.6-39.4-35-40.6-22.8-1.3-39.3 15.1-39.7 39.7-.1 6.9 1.6 14.1-7.2 18-3.5 1.6-3.7 6.4-3.7 10.4 0 17.7-.1 35.4.1 53.1.1 10.4 4.5 14.5 14.8 14.6 21.9.1 43.8.1 65.6 0 10.2-.1 14.6-4.5 14.7-14.8.2-13 .1-26.2.1-41.3m-27.3-44c.2 2.1.4 3.4.5 4.6.7 14.7.1 15.4-14.3 15.4-2.6 0-5.3.6-7.7-.1-6.6-2.2-18 6.6-19-8.4-1.4-21.9 4.5-28.4 17.9-30.8 11.4-2 20.2 5.8 22.6 19.3m-7.7 46c4.5 6.6 4.4 12.7.1 18.5-2 2.7-3 5.6-3 8.9 0 6.4-3 8.9-9.5 9-6.9.1-9.2-2.9-8.6-9.3.3-3.1-1.3-5.5-3-7.9-5-7.2-5.5-14.3 1.2-20.7 6.1-5.9 13.9-5.5 22.8 1.5"/></svg>