<svg xmlns="http://www.w3.org/2000/svg" xml:space="preserve" viewBox="0 0 512 512"><path d="M432 0H80C35.8 0 0 35.8 0 80v352c0 44.2 35.8 80 80 80h352c44.2 0 80-35.8 80-80V80c0-44.2-35.8-80-80-80M148.9 397.1c-1.6.6-3.3.9-4.9.9-5.7 0-11-3.5-13.1-9.1l-48-128c-1.2-3.2-1.2-6.7 0-9.8l48-128c2.7-7.2 10.8-10.9 18-8.2s10.9 10.8 8.2 18L111 256l46.2 123.1c2.6 7.2-1 15.3-8.3 18M304 266c-3.1 0-6.1-1.5-8-4l-11.4-15.2-18.9 75.6c-1.1 4.5-5.1 7.6-9.7 7.6h-.3c-4.7-.1-8.7-3.5-9.5-8.1l-17.4-92.8-11.4 30.4c-1.5 3.9-5.2 6.5-9.4 6.5h-48c-5.5 0-10-4.5-10-10s4.5-10 10-10h41.1l21.6-57.5c1.6-4.2 5.7-6.8 10.2-6.4s8.1 3.7 9 8.1l15.6 83 12.9-51.6c.9-3.7 3.9-6.6 7.7-7.4s7.7.7 10 3.8l21 28h43c5.5 0 10 4.5 10 10s-4.5 10-10 10zm125.1-5.1-48 128c-2.1 5.6-7.4 9.1-13.1 9.1-1.6 0-3.3-.3-4.9-.9-7.2-2.7-10.9-10.8-8.2-18L401 256l-46.2-123.1c-2.7-7.2 1-15.3 8.2-18s15.3 1 18 8.2l48 128c1.3 3.2 1.3 6.6.1 9.8" style="fill:#fff"/></svg>