<?xml version="1.0" encoding="utf-8"?>
<!-- Generator: Adobe Illustrator 28.2.0, SVG Export Plug-In . SVG Version: 6.00 Build 0)  -->
<svg version="1.1" id="Layer_1" xmlns="http://www.w3.org/2000/svg" xmlns:xlink="http://www.w3.org/1999/xlink" x="0px" y="0px"
	 viewBox="0 0 512 512" style="enable-background:new 0 0 512 512;" xml:space="preserve">
<path d="M18.6,385.6c-5.3,8.6-11.2,18.7-16.3,26.6c-4.5,7.6-2.1,17.5,5.5,22.2l105.9,65.2c7.7,4.7,17.7,2.4,22.4-5.3
	c0-0.1,0.1-0.2,0.1-0.2c4.2-7.1,9.7-16.3,15.6-26.2c42-69.2,84.2-60.8,160.2-24.4l105,49.9c8.1,3.9,17.8,0.4,21.7-7.7
	c0.1-0.1,0.1-0.3,0.2-0.4l50.4-114.1c3.6-8.1-0.1-17.6-8.1-21.3c-22.2-10.4-66.2-31.2-105.9-50.3
	C232.7,230.1,111.4,234.6,18.6,385.6z M493.4,126.8c5.3-8.6,11.2-18.7,16.3-26.6c4.5-7.6,2.1-17.5-5.5-22.2L398.4,12.8
	c-7.5-5-17.6-3.1-22.6,4.4c-0.2,0.3-0.4,0.6-0.6,1c-4.2,7.1-9.7,16.3-15.6,26.2c-42,69.2-84.2,60.8-160.2,24.4L94.6,19.1
	c-8.1-3.9-17.8-0.4-21.7,7.7c-0.1,0.1-0.1,0.3-0.2,0.4L22.2,141.3c-3.6,8.1,0.1,17.6,8.1,21.3c22.2,10.4,66.3,31.2,106,50.4
	C279.3,282.2,400.6,277.6,493.4,126.8z"/>
</svg>
