<svg xmlns="http://www.w3.org/2000/svg" xml:space="preserve" viewBox="0 0 512 512"><path d="M238.6 0C172.7 5.1 113 32.7 67 75.4L238.6 247z" style="opacity:.75"/><path d="M411.1 105.7 271.3 245.5V46c53.5 3.7 102.1 25.6 139.8 59.7M218.2 269.8 86.1 129.3c-33 37.8-53.8 86.7-56.6 140.5zm10.5 26.6h-199c3.3 54 24.9 102.9 58.5 140.5zm59.3 0 138 138c32.4-37.2 53.1-85.2 56.3-138zm-43.2 17.4L104.9 453.7c37.5 34.1 86.2 55.7 139.9 58.3zm43.9-44h193.7c-2.7-52.9-23-101.2-55-138.8zm-17.4 43.3v198.7c53.2-3.6 101.4-25.9 138.3-60.4z"/></svg>