<svg xmlns="http://www.w3.org/2000/svg" xml:space="preserve" viewBox="0 0 512 512"><path d="M442.8 274.7c-2 0-9.3 2.7-15.9 6-6.8 3.3-15.9 7.1-20.5 8.4-41.4 13.1-85.2 7.3-121.7-15.8-10.5-6.7-30.6-26.4-37.5-36.6-30.9-46.4-29.9-105.7 2.4-152.3 16.7-24 44-44.8 73.6-55.9 3.9-1.5 5.5-2.8 6.1-5.3 1.1-4.6-.8-9.5-4.5-11.3-6-2.8-25.8-7.8-37.6-9.7C272 0 243-.9 230.1.5 164.2 8 110 40 74.3 93.1 42 141.3 32.9 202.3 50 258.8c22.1 73.5 84.4 129.1 163.1 145.2 14.1 2.9 18.7 3.3 41.5 3.3 26.2.1 34.6-.7 54.5-5.6 42.4-10.3 81.3-33 108.3-63.4 16.1-18 34.3-46.5 34.3-53.5-.1-5.2-4.4-10.1-8.9-10.1m-271-71.8c-8.4 9.4-26.7 12.8-39 7.5-6.6-3.1-13.8-9.8-16.9-16.1-3.4-6.6-3.9-20.9-1.1-28.1 5.1-12.8 18.8-22.3 32.6-22.3 5.3 0 9.4.9 13.8 2.9 22 9.9 27.3 37.6 10.6 56.1m-2.4-33.9c7.7 7.1 7.9 18.6.5 25.8-7.5 7.3-20.6 5.1-25.8-4.5-4.6-8.3-2.3-18.6 5.5-23.4 5.8-3.6 14.8-2.7 19.8 2.1m301-98.3V81l-29.5 31.3-29.5 31.4H438c32.5 0 31.1-.6 31.1 14.8 0 9.4-.3 11-2.4 12.1-1.6.7-18.7 1.2-46.8 1.2-38.1 0-44.8-.2-47.2-2-2.5-1.7-2.8-2.9-2.8-12.1v-10.3l28.9-31.6 28.9-31.6-25.3-.4c-22.2-.2-25.7-.5-27-2.3-2.5-3.2-2.1-21.7.4-24.1 1.6-1.7 7.7-2 45.8-2 52.3.3 48.8-.8 48.8 15.3m-147 50.1 34.8.4.4 9.5.4 9.5-20.8 21.9c-11.4 12-20.7 22.1-20.7 22.5 0 .5 8.7.7 19.3.7 23.7 0 23.6 0 23.1 12.7l-.4 8.7h-74l-.4-9.2-.3-9.2 17.8-19.5c9.9-10.6 19.2-21 20.8-22.9l2.9-3.5h-18.8c-17.3 0-18.9-.2-20.2-2.3-1.6-3.1-1.6-14.3 0-17.4 1.2-2.2 2.7-2.2 36.1-1.9m84.3 324.9c0 6.6-.6 10.3-2 12.2l-1.9 2.7H257.9c-111.7 0-146.2-.4-147.3-1.5-1-1-1.5-5.6-1.5-12.7 0-10.4.3-11.5 2.8-13.2s18.6-2 146.8-2c167.2.1 149-1.7 149 14.5m-38.7 39c3.1 2.8 3.4 21.7.1 25.1-1.9 2.1-7 2.2-111.5 2.2H148.1l-1.9-2.7c-1.4-2-2-5.6-2-12.2 0-8 .4-9.9 2.5-12 2.5-2.4 4.1-2.4 111.3-2.4 99.4-.1 108.9.1 111 2" style="fill:#763cad"/></svg>