<?xml version="1.0" encoding="utf-8"?>
<!-- Generator: Adobe Illustrator 28.2.0, SVG Export Plug-In . SVG Version: 6.00 Build 0)  -->
<svg version="1.1" id="Layer_1" xmlns="http://www.w3.org/2000/svg" xmlns:xlink="http://www.w3.org/1999/xlink" x="0px" y="0px"
	 viewBox="0 0 512 512" style="enable-background:new 0 0 512 512;" xml:space="preserve">
<path d="M16.8,244.3c-10.2,0-18.3-8.6-16.6-18.6C15,136.5,93.2,68.4,189.6,68.4h39.6c8.3,0,15.1,6.7,15.1,15.1
	c0,88.8-72,160.8-160.8,160.8H16.8z M16.8,267.7c-10.2,0-18.3,8.6-16.6,18.6c14.8,89.2,93,157.2,189.4,157.2h39.6
	c8.3,0,15.1-6.7,15.1-15.1c0-88.8-72-160.8-160.8-160.8H16.8V267.7z M428.5,267.7c-88.8,0-160.8,72-160.8,160.8
	c0,8.3,6.7,15.1,15.1,15.1h39.6c96.4,0,174.6-68.1,189.4-157.2c1.7-10-6.5-18.6-16.6-18.6h-66.7V267.7z M495.2,244.3
	c10.2,0,18.3-8.6,16.6-18.6c-14.8-89.2-93-157.2-189.4-157.2h-39.6c-8.3,0-15.1,6.7-15.1,15.1c0,88.8,72,160.8,160.8,160.8
	L495.2,244.3L495.2,244.3z"/>
</svg>
