<svg xmlns="http://www.w3.org/2000/svg" xml:space="preserve" viewBox="0 0 512 512"><path d="m455.9 278.7.1.2 50.3-78.9-34.3 17.1c-2.3-107.4-48-157.7-120-206.9h-2.3l-28.8 55.3c-13.5-4.6-27.6-7.8-42.2-9.4l.2-.1L200 5.7 217.1 40C109.7 42.3 59.4 88 10.3 160v2.3l55.3 28.8c-4.6 13.5-7.8 27.6-9.4 42.2l-.1-.2L5.7 312 40 294.9c2.3 107.4 48 157.7 120 206.9h2.3l28.8-55.3c13.5 4.6 27.6 7.8 42.2 9.4l-.2.1 78.9 50.3-17.1-34.3c107.4-2.3 157.7-48 206.9-120v-2.3l-55.3-28.8c4.5-13.5 7.7-27.6 9.4-42.2" style="opacity:.5"/><path d="M511.1 203.1c1.4-2.2 1.1-5-.6-6.9s-4.5-2.4-6.8-1.3L477.4 208c-2.1-48.1-13.2-86.2-34.5-119.3-18.8-29.2-45-54.1-87.7-83.2-.9-.6-2.1-1-3.2-1h-2.3c-2.1 0-4.1 1.2-5.1 3.1l-26.6 51c-11.9-3.7-24.2-6.4-36.8-8L203.1.9c-2.2-1.4-5-1.1-6.9.6s-2.4 4.5-1.3 6.8L208 34.6c-48.1 2.1-86.2 13.2-119.3 34.5-29.2 18.8-54.1 45-83.2 87.7-.6.9-1 2.1-1 3.2v2.3c0 2.1 1.2 4.1 3.1 5.1l51 26.6c-3.7 11.9-6.4 24.2-8 36.8L.9 308.9c-1.4 2.2-1.1 5 .6 6.9s4.5 2.4 6.8 1.3L34.6 304c2.1 48.1 13.2 86.2 34.5 119.3 18.8 29.2 45 54.1 87.7 83.2.9.6 2.1 1 3.2 1h2.3c2.1 0 4.1-1.2 5.1-3.1l26.6-51c11.9 3.7 24.2 6.4 36.8 8l78.1 49.8c.9.6 2 .9 3.1.9 1.4 0 2.7-.5 3.8-1.5 1.9-1.7 2.4-4.5 1.3-6.8L304 477.4c48.1-2.1 86.2-13.2 119.3-34.5 29.2-18.8 54.1-45 83.2-87.7.6-.9 1-2.1 1-3.2v-2.3c0-2.1-1.2-4.1-3.1-5.1l-51-26.6c3.7-11.9 6.4-24.2 8-36.8zM352.4 17.5c70.5 48.8 111.7 97.9 113.9 199.8 0 2 1.1 3.8 2.8 4.8s3.8 1.1 5.5.2l15.8-7.9-34.6 54.3-34.4-48.4 17.7 6.9c1.9.7 4.1.4 5.6-.9 1.6-1.3 2.4-3.3 2.1-5.3-5.3-34.1-16.5-59.6-35.1-80.4-20.9-23.2-51.9-41.2-94.9-54.8zM217.3 45.7c2 0 3.8-1.1 4.8-2.8s1.1-3.8.2-5.5l-7.9-15.8 54.3 34.6-48.4 34.4 6.9-17.7c.7-1.9.4-4.1-.9-5.6-1.3-1.6-3.3-2.4-5.3-2.1-34.1 5.3-59.6 16.5-80.4 35.1-23.2 20.9-41.2 51.9-54.8 94.9l-68.2-35.6C66.3 89.1 115.4 47.9 217.3 45.7m-57.7 448.8C89.1 445.7 47.9 396.6 45.7 294.7c0-2-1.1-3.8-2.8-4.8-.9-.5-1.9-.8-3-.8-.9 0-1.7.2-2.6.6l-15.8 7.9 34.6-54.3 34.4 48.4-17.6-6.7c-1.9-.7-4.1-.4-5.6.9-1.6 1.3-2.4 3.3-2.1 5.3 5.3 34.1 16.5 59.6 35.1 80.4 20.9 23.2 51.9 41.2 94.9 54.8zm135.1-28.2c-2 0-3.8 1.1-4.8 2.8s-1.1 3.8-.2 5.5l7.9 15.8-54.3-34.6 48.4-34.4-6.9 17.7c-.7 1.9-.4 4.1.9 5.6 1.3 1.6 3.3 2.4 5.3 2.1 34.1-5.3 59.6-16.5 80.4-35.1 23.2-20.9 41.2-51.9 54.8-94.9l68.2 35.6c-48.7 70.5-97.8 111.7-199.7 113.9m130.8-162.8c-1.5-.8-3.3-.9-4.9-.2s-2.8 2-3.2 3.6C391 395.8 351 423.4 299.3 433.7l10.1-26c.9-2.4.2-5-1.8-6.6s-4.8-1.6-6.8-.2L232 449.8c-11.1-1.4-22-3.7-32.5-6.9l9.2-17.5c.8-1.5.9-3.3.2-4.9s-2-2.8-3.6-3.2c-89.1-26.4-116.7-66.3-127-118l26 10.1c2.4.9 5 .2 6.6-1.8 1.5-2 1.6-4.8.2-6.8L62.2 232c1.4-11.1 3.7-22 6.9-32.5l17.5 9.2c.8.4 1.7.6 2.6.6.8 0 1.5-.2 2.2-.5 1.6-.7 2.8-2 3.2-3.6 26.5-89 66.4-116.6 118.1-126.9l-10.1 26c-.9 2.4-.2 5 1.8 6.6 2 1.5 4.8 1.6 6.8.2L280 62.2c11.1 1.4 22 3.7 32.5 6.9l-9.2 17.5c-.8 1.5-.9 3.3-.2 4.9s2 2.8 3.6 3.2c88.9 26.4 116.5 66.4 126.8 118.1l-26-10.1c-2.3-.9-5-.2-6.6 1.8-1.5 2-1.6 4.8-.2 6.8l48.9 68.8c-1.4 11.1-3.7 22-6.9 32.5zm-117.4-24.6c2 11.9-.1 22.8-5.8 30.7-4.3 6-10.4 9.7-17.4 10.8-.3 0-.6.1-.9.1-.1 0-.4.1-.8.1-1.2.1-3 .3-5.1.3-4.2 0-9.6-.8-14.2-4.8-1.5-1.3-2.7-2.7-3.8-4.4-.9 1-2 1.8-3.1 2.7-6.9 5.1-15.7 7-23 4.8-17.1-5.3-22.6-18.1-26-37-.5-3.1 1.5-6.1 4.6-6.6s6.1 1.5 6.6 4.6c3.6 20.3 8.6 25.2 18 28.1 3.7 1.1 8.9-.1 12.8-3 2.1-1.5 5.5-4.9 5.5-10 0-3.1 2.5-5.6 5.6-5.7s5.7 2.4 5.8 5.5c.2 4.2 1 9.8 4.2 12.5 3.1 2.6 7.9 2.1 10.5 1.8.6-.1 1.1-.1 1.6-.2 3.9-.7 7.2-2.8 9.6-6.2 3.9-5.4 5.3-13.4 3.8-22.1-.5-3.1 1.6-6.1 4.7-6.6 3.4-.6 6.3 1.5 6.8 4.6m68.1-60.8c.8 1.3 8.1 13.6 8.1 43.2 0 10.8-6.2 31.5-29.4 40.3-.1 0-.1 0-.2.1-.3.1-3.8 1.3-8.9 1.3-3.8 0-8.6-.7-13.3-3.1-8.4-4.3-14.5-12.5-18.1-24.5-.5-1.5-5.4-17.3-7.4-47.6-.2-3.1 2.2-5.9 5.3-6.1 3.2-.2 5.9 2.2 6.1 5.3 2 29.6 6.9 44.7 6.9 44.9v.2c2.6 8.8 6.8 14.7 12.2 17.6 6.2 3.3 12.6 1.5 13.3 1.3 21.6-8.3 21.9-29.4 21.9-29.6 0-26.4-6.2-36.9-6.3-37-1.7-2.7-.9-6.2 1.8-7.9 2.8-1.8 6.3-1 8 1.6m-170.3 7.4c-1 28.4-6 46-6.4 47.6-2.7 10.4-12.9 28.2-32.7 28.3-1.9 0-3.8-.2-5.8-.5-15.9-2.4-31.5-19.1-32.8-35-1-15.2-1.2-31.3 7.9-48.4 1.5-2.8 5-3.8 7.7-2.3 2.8 1.5 3.8 5 2.3 7.7-7.7 14.4-7.5 28.1-6.6 42.2.8 10.7 12.3 22.9 23.2 24.6 19.6 3.2 25.5-18.5 25.8-19.4 0-.1 0-.1.1-.2 0-.2 5-17.2 6-44.9.1-3.2 2.8-5.6 5.9-5.5 3.1 0 5.5 2.7 5.4 5.8"/></svg>