<svg xmlns="http://www.w3.org/2000/svg" xml:space="preserve" viewBox="0 0 512 512"><path d="M15 15h482v482H15z" style="opacity:.3;fill:#fff"/><path d="M482 30v452H30V30zm30-30H0v512h512zM188.2 195.8 86.4 139.4c-5.1-2.9-8.5-5.4-10.2-7.7-1.7-2.2-2.5-5.1-2.5-8.6q0-6.6 4.8-11.4c3.2-3.2 6.9-4.8 11.2-4.8 2.7 0 6.7 1.5 12.3 4.4l151.7 84.4L102 280.1c-5.5 3.1-9.6 4.6-12.3 4.6-4.3 0-8-1.6-11.2-4.8s-4.8-7-4.8-11.5c0-3.5.8-6.3 2.5-8.6 1.7-2.2 5.1-4.8 10.2-7.7zm242.4 184H257.9c-7.6 0-13-1.4-16.2-4.3s-4.8-6.6-4.8-11.4q0-7.05 4.8-11.4c3.2-2.9 8.6-4.4 16.2-4.4h172.7c7.5 0 12.8 1.5 16 4.4q4.8 4.35 4.8 11.4c0 4.6-1.6 8.4-4.8 11.3-3.1 2.9-8.4 4.4-16 4.4" style="fill:#fff"/></svg>