<?xml version="1.0" encoding="utf-8"?>
<!-- Generator: Adobe Illustrator 28.2.0, SVG Export Plug-In . SVG Version: 6.00 Build 0)  -->
<svg version="1.1" id="Layer_1" xmlns="http://www.w3.org/2000/svg" xmlns:xlink="http://www.w3.org/1999/xlink" x="0px" y="0px"
	 viewBox="0 0 512 512" style="enable-background:new 0 0 512 512;" xml:space="preserve">
<style type="text/css">
	.st0{fill:#477DB3;}
	.st1{opacity:0.1;}
	.st2{fill:#FFFFFF;}
	.st3{opacity:0.2;}
	.st4{opacity:0.5;}
	.st5{opacity:0.3;}
</style>
<g>
	<path class="st0" d="M14.9,255.9c-0.5,41.3,9,81.9,27.6,118.4c9.5,18.6,31.8,27.2,49.3,15.9c38.8-25.1,65.4-75.8,65.4-134.3
		c0-58.5-26.5-109.1-65.2-134.2c-17.5-11.3-39.9-2.8-49.4,15.8C24,174,14.4,214.6,14.9,255.9z"/>
	<g class="st1">
		<path class="st2" d="M81.5,161.1c-17.3-19.6-46.7-9.2-54.4,15.7C19.1,202.3,15,229,15,255.9c0,27,4.1,53.7,12.1,79.2
			c7.8,24.9,37.2,35.3,54.4,15.7c20.7-23.4,33.7-57.2,33.7-94.9C115.2,218.3,102.1,184.5,81.5,161.1z"/>
	</g>
	<g class="st3">
		<path class="st0" d="M154,221.2c-4.4-23.1-19.6-8.7-17.2,14.7c0.6,6.6,1,13.2,1,20c0,6.5-0.3,13-0.9,19.3
			c-2.2,23.4,13,37.9,17.3,14.7c2-10.9,3.1-22.3,3.1-34C157.2,244,156.1,232.3,154,221.2z"/>
	</g>
	<path class="st0" d="M442.2,305.3l-4.9-1.1c-13.6-2.9-27.7-1.7-40.6,3.5c-12.9,5.2-23.9,14.2-31.6,25.7
		c-20.3,30.2-51,43.9-86.7,43.9c-14.2,0.1-28.4-2.2-41.9-6.8c-15.9-5.8-33.3-5.5-48.9,0.9c-15.6,6.3-28.4,18.2-35.8,33.4
		c-4.2,8.7-6.6,18.3-6.8,28c-0.2,9.7,1.6,19.4,5.4,28.3c3.8,8.9,9.5,16.9,16.7,23.5c7.2,6.5,15.7,11.5,24.9,14.4
		c27.9,8.7,57.1,13.1,86.3,13c84.2,0,159-36.1,204.9-97c7-9.3,11.5-20.3,13.2-31.8c1.7-11.6,0.4-23.3-3.7-34.3
		c-4.1-10.9-10.9-20.6-19.7-28.3C464.2,313,453.6,307.8,442.2,305.3z"/>
	<path class="st0" d="M151.8,107.4c7.4,15.2,20.2,27.1,35.9,33.5c15.7,6.3,33.2,6.6,49.1,0.8c13.4-4.7,27.4-7,41.6-6.9
		c34.5,0,64.3,13.4,83.6,41.8c7.9,12.1,19.3,21.4,32.7,26.8s28.1,6.6,42.1,3.4l5.6-1.4c11.3-2.7,21.7-8.2,30.3-15.9
		c8.6-7.8,15.2-17.5,19-28.5c3.9-10.9,4.9-22.7,3.1-34.1c-1.8-11.5-6.5-22.3-13.5-31.5C434.8,35.4,360.2,0,278.2,0
		C249,0.1,219.9,4.6,192,13.5c-9.2,3-17.7,7.9-24.9,14.5s-12.8,14.5-16.6,23.5s-5.7,18.6-5.4,28.2c0.2,9.7,2.5,19.2,6.8,28V107.4z"
		/>
	<g class="st4">
		<g class="st4">
			<path class="st0" d="M441.1,305.3l-3.8-0.8c-13.6-3-27.7-1.8-40.6,3.4c-12.9,5.2-23.9,14-31.7,25.5c-20.3,30.2-51,43.9-86.7,43.9
				c-14.2,0.1-28.4-2.2-41.9-6.8c-12-4.3-24.9-5.2-37.4-2.6c-12.5,2.6-24,8.7-33.2,17.5c21.5,18.7,47.4,31.6,75.2,37.7
				c27.8,6.1,56.7,5.1,84.1-2.9c27.3-8,52.3-22.6,72.5-42.7c20.2-20.1,35.1-44.9,43.2-72.2H441.1z"/>
		</g>
		<g class="st4">
			<path class="st0" d="M166.3,127.2c9.3,8.7,20.8,14.6,33.2,17.2c12.4,2.6,25.3,1.6,37.3-2.7c13.4-4.7,27.4-7,41.6-6.9
				c34.5,0,64.3,13.4,83.6,41.8c7.9,12.1,19.3,21.4,32.7,26.8s28.1,6.6,42.1,3.4l3.8-0.9c-8.4-27-23.4-51.6-43.6-71.4
				c-20.2-19.8-45.1-34.3-72.3-42.1c-27.2-7.8-56-8.7-83.6-2.6c-27.7,6.1-53.4,19-74.8,37.5V127.2z"/>
		</g>
	</g>
	<g class="st5">
		<g class="st5">
			<path class="st2" d="M277.8,493c-46,0.1-91-13.3-129.5-38.6c3.2,10.4,8.8,19.8,16.5,27.5c7.6,7.7,17.1,13.4,27.4,16.7
				c27.9,8.7,57.1,13.1,86.3,13c84.2,0,159-36.1,204.9-97c6.6-8.7,11-18.8,12.8-29.6c1.8-10.7,1.1-21.8-2.2-32.2
				c-18.7,41.7-49,77.1-87.4,102C368.2,479.8,323.5,493,277.8,493z"/>
		</g>
		<g class="st5">
			<path class="st2" d="M277.8,19.5c45.3,0,89.7,13,127.9,37.5s68.5,59.4,87.4,100.7c3.3-10.5,4-21.7,2.1-32.5
				c-2-10.9-6.5-21.1-13.3-29.8C435.2,35.4,360.7,0,278.7,0C249.3,0,220,4.5,192,13.5c-10.5,3.3-19.9,9.1-27.6,17
				c-7.7,7.8-13.3,17.4-16.4,28C186.5,33,231.6,19.5,277.8,19.5z"/>
		</g>
	</g>
</g>
</svg>
