<?xml version="1.0" encoding="utf-8"?>
<!-- Generator: Adobe Illustrator 28.2.0, SVG Export Plug-In . SVG Version: 6.00 Build 0)  -->
<svg version="1.1" id="Layer_1" xmlns:svg="http://www.w3.org/2000/svg"
	 xmlns="http://www.w3.org/2000/svg" xmlns:xlink="http://www.w3.org/1999/xlink" x="0px" y="0px" viewBox="0 0 512 512"
	 style="enable-background:new 0 0 512 512;" xml:space="preserve">
<path d="M311.5,145.9c0,26.5-41.3,26.5-41,0C270.2,119.4,311.5,119.4,311.5,145.9z M499.9,252.7c0,136.3-110.6,246.8-246.9,246.8
	S6.2,389.1,6.2,252.7S116.7,5.8,253,5.8C389.4,5.8,499.9,116.4,499.9,252.7z M234.5,377.9c0-25.1-39.1-25.1-38.8,0
	C195.3,403,234.5,402.9,234.5,377.9z M368.6,124.5c-7.7-81.1-108-102.1-174-88.4C48.5,66.5-5.4,256.4,61.7,377.9
	c30.1,46,75.8,79.6,128.7,94.6c-64-38.6-77.2-133.8-22.6-187.3c17.6-17.2,38.4-23.8,60.1-28c0.3-0.1,0.5-0.1,0.7-0.1
	c2,0,3.6,1.6,3.6,3.6v50.4c0,0.6,0.3,1.1,0.8,1.5c0.9,0.6,2.1,0.5,2.7-0.4l44.1-61c2.1-3,5.2-5.3,8.8-6.5c6.5-2.1,12.9-4.8,18.9-8.1
	C346.8,215.1,373,169.7,368.6,124.5z"/>
</svg>
