<?xml version="1.0" encoding="utf-8"?>
<!-- Generator: Adobe Illustrator 28.2.0, SVG Export Plug-In . SVG Version: 6.00 Build 0)  -->
<svg version="1.1" id="Layer_1" xmlns="http://www.w3.org/2000/svg" xmlns:xlink="http://www.w3.org/1999/xlink" x="0px" y="0px"
	 viewBox="0 0 512 512" style="enable-background:new 0 0 512 512;" xml:space="preserve">
<style type="text/css">
	.st0{fill-opacity:0.302;}
	.st1{fill-opacity:0.502;}
</style>
<path class="st0" d="M148.4,148.3H57.5v272.8h90.9V148.3z M148.4,512h363.7v-90.9H148.4V512z M148.4,148.3h363.7V57.4H148.4V148.3z"
	/>
<path class="st1" d="M119.6,119.7H28.7v272.7h90.9C119.6,392.4,119.6,119.7,119.6,119.7z M119.6,483.3h363.7v-90.9H119.6V483.3z
	 M119.6,119.7h363.7V28.8H119.6V119.7z"/>
<path d="M90.9,90.9H0v272.8h90.9V90.9z M90.9,454.6h363.7v-90.9H90.9V454.6z M90.9,90.9h363.7V0H90.9V90.9z"/>
</svg>
