<svg xmlns="http://www.w3.org/2000/svg" xml:space="preserve" viewBox="0 0 512 512"><linearGradient id="cooler-control_svg__a" x1="-544.697" x2="-427.784" y1="677.626" y2="677.626" gradientTransform="matrix(4.3793 0 0 -4.3793 2385.399 3223.534)" gradientUnits="userSpaceOnUse"><stop offset="0" style="stop-color:#4d8cff"/><stop offset="1" style="stop-color:#ff21ff"/></linearGradient><path d="M0 97.3c0-44.8 36.7-81.5 81.5-81.5 10.9 0 20.1 9.2 20.1 20.1S92.4 56 81.5 56c-23 0-41.3 18.4-41.3 41.3s18.4 41.3 41.3 41.3c22.7.1 41.2-18.2 41.3-41v-.4c0-10.9 9.2-20.1 20.1-20.1S163 86.3 163 97.2c0 37.9-26.4 70-61.4 79.2V476c0 10.9-9.2 20.1-20.1 20.1s-20.1-9.2-20.1-20.1V176.5C26.4 167.3 0 135.2 0 97.3m235.3-61.4v299.6c-36.1 9.3-61.4 41.9-61.4 79.2 0 44.8 36.7 81.5 81.5 81.5s81.5-36.7 81.5-81.5c0-10.9-9.2-20.1-20.1-20.1s-20.1 9.2-20.1 20.1c0 23-18.4 41.3-41.3 41.3s-41.3-18.4-41.3-41.3 18.4-41.3 41.3-41.3c10.9 0 20.1-9.2 20.1-20.1V35.9c0-10.9-9.2-20.1-20.1-20.1s-20.1 8.6-20.1 20.1M429.9 56c10.9 0 20.1-9.2 20.1-20.1s-9.2-20.1-20.1-20.1c-44.8 0-81.5 36.7-81.5 81.5 0 37.9 26.4 70 61.4 79.2v299.6c0 10.9 9.2 20.1 20.1 20.1S450 487 450 476.1V176.5c35.6-9.2 62-41.3 62-79.2 0-10.9-9.2-20.1-20.1-20.1s-20.1 9.2-20.1 20.1c0 23-18.4 41.3-41.3 41.3-23 0-41.3-18.4-41.3-41.3S407.5 56 429.9 56" style="fill:url(#cooler-control_svg__a)"/></svg>