<svg xmlns="http://www.w3.org/2000/svg" xml:space="preserve" viewBox="0 0 512 512"><path d="M491.5 79.4h-471C9.2 79.4 0 88.5 0 99.8v308.9c0 11.4 9.2 20.5 20.5 20.6h53l16.9-65.7c5-17.1 18-19.8 28.8-20.2h.2c102.2-1.7 171.2-1.7 273.4 0 11.3.3 23.5 2.9 28.9 20l.1.5 16.8 65.4h52.9c11.3 0 20.5-9.2 20.5-20.5V99.9c0-11.3-9.2-20.5-20.5-20.5m-5 230.4c0 7.5-6.1 13.7-13.7 13.7H39.3c-7.5 0-13.7-6.1-13.7-13.7V118.6c0-7.5 6.1-13.6 13.7-13.6h433.5c7.5 0 13.7 6.1 13.7 13.7zM81.9 432.6 99 366.1c3.1-10.6 9.6-13.3 20.5-13.7 102.4-1.7 170.7-1.7 273.1 0 10.9.3 17.1 3.1 20.5 13.7l17.1 66.6H81.9zm276.5-230.4H153.6c-24.5 0-44.4 19.9-44.4 44.4s19.9 44.4 44.4 44.4h204.8c24.5 0 44.4-19.9 44.4-44.4s-19.9-44.4-44.4-44.4m-174.6 55.9-5.6-3.2-4.3 7.4 5.6 3.2c-4.8 6.1-11.9 10.4-20 11.5v-6.5H151v6.5c-8-1.1-15.1-5.4-19.8-11.4l5.6-3.3-4.3-7.4-5.6 3.3c-1.5-3.6-2.3-7.5-2.3-11.6s.8-7.9 2.2-11.5l5.7 3.3 4.3-7.4-5.7-3.3c4.8-6.1 11.8-10.4 19.9-11.5v6.5h8.5v-6.5c8.1 1.1 15.2 5.4 20 11.5l-5.7 3.3 4.3 7.4 5.7-3.3c1.4 3.5 2.2 7.4 2.2 11.5s-.8 8-2.2 11.5m203.2-7.4c-1.1 8.1-5.4 15.1-11.5 19.9l-3.2-5.6-7.4 4.3 3.2 5.6c-3.4 1.6-7.3 2.4-11.4 2.4s-8-.8-11.6-2.3l3.3-5.7-7.4-4.2-3.3 5.7c-6.1-4.8-10.3-11.8-11.5-19.9h6.5v-8.6h-6.5c1.1-8.1 5.4-15.1 11.5-19.9l3.3 5.6 7.4-4.3-3.3-5.7c3.5-1.4 7.4-2.2 11.5-2.2s7.9.8 11.5 2.2l-3.3 5.7 7.4 4.2 3.3-5.7c6.2 4.8 10.4 11.9 11.6 19.9h-6.6v8.6z" style="fill:#fff"/></svg>