<?xml version="1.0" encoding="utf-8"?>
<!-- Generator: Adobe Illustrator 28.2.0, SVG Export Plug-In . SVG Version: 6.00 Build 0)  -->
<svg version="1.1"
	 id="svg1" xmlns:dc="http://purl.org/dc/elements/1.1/" xmlns:sodipodi="http://sodipodi.sourceforge.net/DTD/sodipodi-0.dtd" xmlns:svg="http://www.w3.org/2000/svg" xmlns:inkscape="http://www.inkscape.org/namespaces/inkscape" xmlns:cc="http://creativecommons.org/ns#" xmlns:rdf="http://www.w3.org/1999/02/22-rdf-syntax-ns#"
	 xmlns="http://www.w3.org/2000/svg" xmlns:xlink="http://www.w3.org/1999/xlink" x="0px" y="0px" viewBox="0 0 512 512"
	 style="enable-background:new 0 0 512 512;" xml:space="preserve">
<style type="text/css">
	.st0{fill:#333333;}
	.st1{fill:url(#rect2_00000067927766343369304870000011686592658425217173_);}
	.st2{fill:#CCCCCC;}
	.st3{fill:#737373;}
</style>
<g>
	<g id="layer1" inkscape:groupmode="layer" inkscape:label="kassett">
		<path id="rect1" class="st0" d="M20.5,79.4h471c11.3,0,20.5,9.2,20.5,20.5v308.9c0,11.3-9.2,20.5-20.5,20.5h-471
			C9.2,429.2,0,420.1,0,408.7V99.8C0,88.5,9.2,79.4,20.5,79.4z"/>
		
			<linearGradient id="rect2_00000056420900147513519950000003953971383793614218_" gradientUnits="userSpaceOnUse" x1="57.8226" y1="566.4144" x2="57.8226" y2="489.3489" gradientTransform="matrix(2.8346 0 0 -2.8346 92.0934 1710.5441)">
			<stop  offset="0" style="stop-color:#FFCC55"/>
			<stop  offset="0.2" style="stop-color:#FFCC00"/>
			<stop  offset="1" style="stop-color:#FF8800"/>
		</linearGradient>
		<path id="rect2" style="fill:url(#rect2_00000056420900147513519950000003953971383793614218_);" d="M39.3,105h433.5
			c7.5,0,13.7,6.1,13.7,13.7v191.1c0,7.5-6.1,13.7-13.7,13.7H39.3c-7.5,0-13.7-6.1-13.7-13.7V118.6C25.6,111.1,31.7,105,39.3,105z"
			/>
		<path id="rect3" class="st0" d="M153.6,202.2h204.8c24.5,0,44.4,19.9,44.4,44.4l0,0c0,24.5-19.9,44.4-44.4,44.4H153.6
			c-24.5,0-44.4-19.9-44.4-44.4l0,0C109.2,222.1,129.1,202.2,153.6,202.2z"/>
		<circle id="circle1" class="st2" cx="155.3" cy="246.6" r="30.7"/>
		<circle id="circle2" class="st2" cx="356.7" cy="246.6" r="30.7"/>
		<path id="path1" sodipodi:nodetypes="ccccccc" class="st3" d="M81.9,432.6L99,366.1c3.1-10.6,9.6-13.3,20.5-13.7
			c102.4-1.7,170.7-1.7,273.1,0c10.9,0.3,17.1,3.1,20.5,13.7l17.1,66.6H81.9z"/>
	</g>
	<g id="layer4" inkscape:groupmode="layer" inkscape:label="stensatt">
		<path id="path11" class="st0" d="M108.4,166.2c-1,1.1-3.7,2.4-8.1,3.9c-4.1,1.5-6.6,2.2-7.5,2.2c-3.8,0-6.7-1.2-8.7-3.6
			c-2-2.3-3-5.3-3-9.1c0-5.2,2.1-9.6,6.4-13c3.8-3.1,7.9-4.6,12.5-4.6c0.5,0,1,0.4,1.6,1.3c0.6,0.8,0.9,1.5,0.9,2
			c0,2.3-1.3,3.9-3.8,4.6c-1.5,0.5-3.8,1.1-6.9,2c-2.5,1.3-3.8,3.8-3.8,7.5c0,3.6,1.6,5.5,4.9,5.5c1,0,1.5,0,1.5,0
			c0.6,0,1.4-0.1,2.5-0.3c1.3-0.3,2.9-0.7,4.9-1.3c2-0.6,3.3-0.9,3.6-0.9c0.5,0,1.5,0.3,3,1L108.4,166.2z"/>
		<path id="path12" class="st0" d="M149.5,156.2c0,4.8-2.1,8.7-6.3,11.9c-3.6,2.6-7.5,3.9-11.7,3.9c-3.9,0-7.3-1.5-10.2-4.4
			c-2.8-3-4.3-6.4-4.3-10.2c0-4.1,1.8-7.9,5.4-11.3c3.6-3.4,7.5-5.1,11.6-5.1c4,0,7.6,1.6,10.8,4.7
			C147.9,148.7,149.5,152.2,149.5,156.2L149.5,156.2z M143.7,156.4c0-2.6-1-4.7-3-6.3c-1.9-1.7-4.2-2.6-6.8-2.6
			c-0.1,0-1,0.9-2.7,2.7c-1.6,1.8-3,2.6-4.2,2.6c-0.7,0-1.1-0.2-1.4-0.5c-1.3,2.6-2,4.3-2,5.1c0,2.6,1.2,4.5,3.6,5.8
			c1.8,1,3.9,1.5,6.1,1.5s4.4-0.6,6.4-1.9C142.4,161.4,143.7,159.2,143.7,156.4L143.7,156.4z"/>
		<path id="path13" class="st0" d="M192.5,159.2c0,3.2-1.1,5.7-3.2,7.5c-2,1.7-4.7,2.6-8,2.6c-0.8,0-2.3-0.2-4.6-0.7
			c-2.2-0.5-3.6-0.7-4.4-0.7c-2.4,0-3.6,1.5-3.6,4.5c0,1,0.1,2.4,0.4,4.4c0.2,2,0.3,3.5,0.3,4.4c0,2.2-0.4,3.8-1.3,4.8
			c-1.6,0-3.3-0.5-5.1-1.5c-1.7-10.8-2.5-17.6-2.5-20.5c0-4.2,1-8.8,3-13.8c2.7-6.9,6.4-10.3,11-10.3c4.2,0,8.4,2.3,12.5,7
			C190.6,151.4,192.5,155.5,192.5,159.2L192.5,159.2z M186,159.6c-0.7-2.5-2.2-5-4.4-7.5c-2.6-2.8-5.1-4.3-7.3-4.3
			c-1.5,0-2.8,1.3-4,3.8c-1,2-1.5,3.9-1.5,5.6c0,0.5,0.2,1.2,0.6,2.1c0.5,0.9,1,1.4,1.5,1.4c1.3,0,3.1,0.2,5.5,0.5
			c2.4,0.3,4.2,0.5,5.5,0.5c0.3,0,1.1-0.2,2.2-0.7c1.1-0.5,1.9-1,2.2-1.3L186,159.6z"/>
		<path id="path14" class="st0" d="M227,147.6c-2.4,4.7-4.2,8.6-5.5,11.9c-0.1,0.3-1,2.9-2.7,7.7c-0.5,1.5-1,3.9-1.7,7.2
			c-0.6,3.2-1.1,5.6-1.7,7.2c-1.1,3.2-2.4,4.7-3.9,4.5c-1.6-0.2-2.5-1.1-2.7-2.7c0-0.2,0-0.5,0-0.9c0-0.2,0.2-1,0.5-2.6
			c1.1-5.7,1.7-9.4,1.7-11c0-0.6-0.1-1-0.2-1.3c-1.6-2.8-3.9-7-7-12.6c-3.1-5.7-4.4-10-4.1-13.1c1.7-1.5,2.9-2.3,3.6-2.3
			c0.5,0,1.1,0.3,1.9,1c0.7,0.7,1.1,1.3,1.2,1.9c0.9,7.1,3.7,13.4,8.4,18.9c1.1-2,2.2-4.3,3.1-6.9c0.6-1.6,1.5-4,2.7-7.1
			c2.2-5.1,4.1-7.6,5.8-7.6c0.2,0,0.5,0.1,0.7,0.2c1,0.3,1.8,1.9,2.2,4.8L227,147.6z"/>
		<path id="path15" class="st0" d="M268.8,161.3c0,3.2-1.1,5.7-3.2,7.5c-2,1.7-4.7,2.6-8,2.6c-0.8,0-2.3-0.2-4.6-0.7
			c-2.2-0.5-3.6-0.7-4.4-0.7c-2.3,0-3.4,1.5-3.4,4.5c0,1,0.1,2.4,0.3,4.4s0.3,3.5,0.3,4.4c0,2.2-0.4,3.8-1.2,4.8
			c-1.7,0-3.4-0.5-5.1-1.5c-1.7-10.8-2.6-17.6-2.6-20.4c0-4.2,1-8.8,3.1-13.8c2.6-6.9,6.3-10.3,10.9-10.3c4.2,0,8.3,2.3,12.3,7
			c3.8,4.4,5.6,8.4,5.6,12.2V161.3z M262.3,161.6c-0.7-2.5-2.2-5-4.4-7.5c-2.6-2.8-5.1-4.3-7.3-4.3c-1.5,0-2.8,1.3-3.9,3.8
			c-1,2-1.5,3.9-1.5,5.6c0,0.5,0.2,1.2,0.7,2.1c0.5,0.9,0.9,1.4,1.4,1.4c1.3,0,3.1,0.2,5.5,0.5s4.2,0.5,5.5,0.5
			c0.3,0,1.1-0.2,2.2-0.7c1.1-0.5,1.9-1,2.2-1.3L262.3,161.6z"/>
		<path id="path16" class="st0" d="M310.6,170.3c0,1-0.3,1.9-1,2.6c-0.7,0.7-1.5,1-2.4,1c-1.8,0-3.5-0.5-5.1-1.5
			c-1.6-1.1-2.8-2.4-3.6-3.9c-0.8-0.1-1.6,0.4-2.6,1.5c-1,1.3-1.6,2-1.9,2.1c-1.4,0.6-3.6,0.9-6.7,0.9c-2.5,0-4.7-1.4-6.7-4.2
			c-1.7-2.4-2.6-4.7-2.6-6.8c0-3.9,1.9-7.5,5.8-10.9c3.6-3.3,7.5-4.9,11.4-4.9c1,0,2,0.3,2.9,1c0.9,0.7,1.4,1.5,1.4,2.5
			c0,0.6-0.2,1.2-0.7,1.9c2.7,1,4.1,2.6,4.1,4.8c0,0.4-0.1,1-0.2,1.8c-0.1,0.8-0.2,1.4-0.2,1.8c0,0.5,0.1,0.8,0.2,1
			c0.6,1.5,2,3.4,4.3,5.8c2.2,2.2,3.2,3.4,3.2,3.8L310.6,170.3z M296.8,153.1c-0.5,0-1.1-0.1-1.9-0.2c-0.9-0.2-1.5-0.3-1.9-0.3
			c-1.5,0-3.3,1.1-5.5,3.3c-2.2,2.2-3.2,4.1-3.2,5.6c0,0.9,0.4,1.9,1.2,3.1c1,1.5,2.3,2.2,3.8,2.2c3,0,4.9-1.6,6-4.9
			c0.6-3,1.1-5.9,1.7-8.8L296.8,153.1z"/>
		<path id="path17" class="st0" d="M347.8,151.7c-0.5,0.5-1.3,0.7-2.6,0.7c-1,0-2.4-0.2-4.3-0.5c-1.9-0.3-3.4-0.5-4.3-0.5
			c-5.3,0-8.5,3.9-9.4,11.8c-0.3,3.5-0.6,5.4-0.7,5.6c-0.5,1.1-1.4,2.4-2.9,3.9h-1.9c-0.8-1.4-1.5-3.7-2.2-7c-0.7-3.1-1-5.6-1-7.3
			c0-1.3,0.1-2.2,0.2-2.6c0.2-0.6,0.8-0.9,1.7-0.9c0.3,0,0.7,0.2,1,0.5c0.5,0.3,0.7,0.5,0.7,0.5c2.2-4,3.9-6.6,5.3-7.9
			c2-1.9,4.9-2.9,8.7-2.9c1.6,0,3.6,0.5,6.1,1.5c3.2,1.3,5.1,2.9,5.6,4.8L347.8,151.7z"/>
		<path id="path18" class="st0" d="M391.7,142.8c0.3,0.9,0.5,1.7,0.5,2.5c0,2.1-1.4,3.2-4.1,3.2c-1.1,0-3.1-0.3-6-0.9
			c-2.8-0.6-4.8-0.9-5.8-0.9c-1.5,0-2.3,0.1-2.6,0.2c-0.5,0.2-0.7,0.9-0.7,2c0,2.5,0.3,6.4,1,11.8c0.8,6.7,1.7,10.2,2.7,10.5
			c-0.5,0.4-0.7,1-0.7,1.9c-1.4,0.8-2.8,1.2-4.4,1.2s-2.7-2.2-3.4-6.7c-0.2-1.5-0.5-6-0.9-13.2c-0.2-5.2-0.7-8.4-1.4-9.4
			c-0.3-0.5-2.8-0.7-7.3-0.6c-1.1,0-2,0.1-2.7,0.2c-0.6,0-0.7,0-0.5,0c-0.9,0-1.6-0.4-2-1.2c-0.6-1.5-0.9-2.3-0.9-2.4
			c0-1.6,2.3-2.8,7-3.4c1.8-0.2,4.5-0.5,8-0.9c0-1-0.1-2.4-0.2-4.4c0-2,0-3.5,0-4.4c0-4.9,1.2-7.4,3.6-7.4c0.6,0,1.2,0.3,1.9,1
			s1,1.3,1,1.9v13.5c1.3,1.4,4.1,2.3,8.5,2.9s7.5,1.6,9,3.2L391.7,142.8z"/>
		<path id="path19" class="st0" d="M428.7,148c-2.3,4.7-4.1,8.6-5.5,11.9c-0.1,0.3-1,2.9-2.6,7.7c-0.6,1.5-1.1,3.9-1.7,7.2
			c-0.6,3.2-1.1,5.6-1.7,7.2c-1.1,3.2-2.5,4.7-4.1,4.5c-1.6-0.2-2.4-1.1-2.6-2.7c-0.1-0.2-0.2-0.5-0.2-0.9c0-0.2,0.2-1,0.5-2.6
			c1.3-5.7,1.9-9.4,1.9-11c0-0.6-0.1-1-0.2-1.3c-1.6-2.8-3.9-7-7-12.6c-3.1-5.7-4.4-10-4.1-13.1c1.6-1.5,2.8-2.3,3.6-2.3
			c0.5,0,1,0.3,1.7,1c0.7,0.7,1.1,1.3,1.2,1.9c1,7.1,3.8,13.4,8.4,18.9c1.1-2,2.2-4.3,3.2-6.9c0.6-1.6,1.5-4,2.7-7.1
			c2-5.1,4-7.6,5.8-7.6c0.2,0,0.5,0.1,0.7,0.2c0.9,0.3,1.6,1.9,2,4.8L428.7,148z"/>
	</g>
	<g id="layer5" inkscape:groupmode="layer" inkscape:label="tagger">
		<g id="g1">
			<path id="path4" sodipodi:nodetypes="cccccccccc" class="st0" d="M190.1,221.6l-16.3,9.4l4.3,7.4l16.3-9.4L190.1,221.6z
				 M132.5,254.9l-16.3,9.4l4.3,7.4l16.3-9.4L132.5,254.9z"/>
			<path id="path5" sodipodi:nodetypes="cccccccccc" class="st0" d="M151,203.9v18.8h8.5v-18.8H151z M151,270.5v18.8h8.5v-18.8H151z
				"/>
			<path id="path6" sodipodi:nodetypes="cccccccccc" class="st0" d="M116.2,229l16.3,9.4l4.3-7.4l-16.3-9.4L116.2,229z M173.9,262.3
				l16.3,9.4l4.3-7.4l-16.3-9.4L173.9,262.3z"/>
		</g>
		<g id="g2" transform="rotate(30,150,318.19)">
			<path id="path7" sodipodi:nodetypes="cccccccccc" class="st0" d="M328,127.8l-16.3,9.4l4.3,7.4l16.3-9.4L328,127.8z M270.4,161.1
				l-16.3,9.4l4.3,7.4l16.3-9.4L270.4,161.1z"/>
			<path id="path8" sodipodi:nodetypes="cccccccccc" class="st0" d="M288.9,110.2V129h8.5l0-18.8H288.9z M288.9,176.7l0,18.8l8.5,0
				v-18.8H288.9z"/>
			<path id="path9" sodipodi:nodetypes="cccccccccc" class="st0" d="M254.1,135.2l16.3,9.4l4.3-7.4l-16.3-9.4L254.1,135.2z
				 M311.8,168.5l16.3,9.4l4.3-7.4l-16.3-9.4L311.8,168.5z"/>
		</g>
	</g>
</g>
</svg>
