<?xml version="1.0" encoding="utf-8"?>
<!-- Generator: Adobe Illustrator 28.2.0, SVG Export Plug-In . SVG Version: 6.00 Build 0)  -->
<svg version="1.1"
	 id="svg1" xmlns:dc="http://purl.org/dc/elements/1.1/" xmlns:cc="http://creativecommons.org/ns#" xmlns:rdf="http://www.w3.org/1999/02/22-rdf-syntax-ns#" xmlns:inkscape="http://www.inkscape.org/namespaces/inkscape" xmlns:svg="http://www.w3.org/2000/svg" xmlns:sodipodi="http://sodipodi.sourceforge.net/DTD/sodipodi-0.dtd"
	 xmlns="http://www.w3.org/2000/svg" xmlns:xlink="http://www.w3.org/1999/xlink" x="0px" y="0px" viewBox="0 0 512 512"
	 style="enable-background:new 0 0 512 512;" xml:space="preserve">
<path d="M491.5,79.4h-471C9.2,79.4,0,88.4,0,99.7v308.9c0,11.4,9.2,20.5,20.5,20.6h53l16.9-65.7c5-17.1,18-19.8,28.8-20.2l0.2,0
	c102.2-1.7,171.2-1.7,273.4,0c11.3,0.3,23.5,2.9,28.9,20l0.1,0.5l16.8,65.4h52.9c11.3,0,20.5-9.2,20.5-20.5V99.9
	C512,88.5,502.8,79.4,491.5,79.4z M486.5,309.7c0,7.5-6.1,13.7-13.7,13.7H39.3c-7.5,0-13.7-6.1-13.7-13.7V118.5
	c0-7.5,6.1-13.6,13.7-13.6h433.5c7.5,0,13.7,6.1,13.7,13.7V309.7z M81.9,432.5L99,366c3.1-10.6,9.6-13.3,20.5-13.7
	c102.4-1.7,170.7-1.7,273.1,0c10.9,0.3,17.1,3.1,20.5,13.7l17.1,66.6H81.9V432.5z M358.4,202.1H153.6c-24.5,0-44.4,19.9-44.4,44.4
	c0,24.5,19.9,44.4,44.4,44.4h204.8c24.5,0,44.4-19.9,44.4-44.4S382.9,202.1,358.4,202.1z M183.8,258l-5.6-3.2l-4.3,7.4l5.6,3.2
	c-4.8,6.1-11.9,10.4-20,11.5v-6.5H151v6.5c-8-1.1-15.1-5.4-19.8-11.4l5.6-3.3l-4.3-7.4l-5.6,3.3c-1.5-3.6-2.3-7.5-2.3-11.6
	c0-4.1,0.8-7.9,2.2-11.5l5.7,3.3l4.3-7.4l-5.7-3.3c4.8-6.1,11.8-10.4,19.9-11.5v6.5h8.5v-6.5c8.1,1.1,15.2,5.4,20,11.5l-5.7,3.3
	l4.3,7.4l5.7-3.3c1.4,3.5,2.2,7.4,2.2,11.5C186,250.6,185.2,254.5,183.8,258z M387,250.6c-1.1,8.1-5.4,15.1-11.5,19.9l-3.2-5.6
	l-7.4,4.3l3.2,5.6c-3.4,1.6-7.3,2.4-11.4,2.4s-8-0.8-11.6-2.3l3.3-5.7L341,265l-3.3,5.7c-6.1-4.8-10.3-11.8-11.5-19.9h6.5v-8.6h-6.5
	c1.1-8.1,5.4-15.1,11.5-19.9l3.3,5.6l7.4-4.3l-3.3-5.7c3.5-1.4,7.4-2.2,11.5-2.2c4.1,0,7.9,0.8,11.5,2.2l-3.3,5.7l7.4,4.2l3.3-5.7
	c6.2,4.8,10.4,11.9,11.6,19.9h-6.6v8.6H387z"/>
</svg>
