<svg xmlns="http://www.w3.org/2000/svg" xml:space="preserve" viewBox="0 0 512 512"><linearGradient id="coredns-light_svg__a" x1="118.5" x2="377.85" y1="385.7" y2="126.35" gradientUnits="userSpaceOnUse"><stop offset="0" style="stop-color:#fff;stop-opacity:.2"/><stop offset=".21" style="stop-color:#fff;stop-opacity:.4"/><stop offset=".52" style="stop-color:#fff;stop-opacity:.6"/><stop offset=".906" style="stop-color:#fff;stop-opacity:.8"/><stop offset="1" style="stop-color:#fff"/></linearGradient><path d="M458.1 292.9 285 465.9c-23.8 23.8-62.5 23.8-86.3 0l-77.4-77.4 37.3-37.3 13.6 13.6c19.1 19.1 50.1 19.1 69.2 0l114.5-114.5c19.1-19.1 19.1-50.1 0-69.2l-28.5-28.5c-19.1-19.1-50.1-19.1-69.2 0l-40.5 40.5-13.3-13.3c-17-17-44.6-17-61.7 0L29.1 293.6c-14.1-23.5-11-54.2 9.2-74.4l173-173.1c23.8-23.8 62.5-23.8 86.3 0l160.5 160.5c23.8 23.8 23.8 62.4 0 86.3m-283.3 42.2 13 13c10.4 10.4 27.3 10.4 37.6 0l113.9-113.9c10.4-10.4 10.4-27.3 0-37.6l-27.4-27.4c-10.4-10.4-27.3-10.4-37.6 0l-40.4 40.4 2.5 2.5c17 17 17 44.6 0 61.7z" style="fill:url(#coredns-light_svg__a)"/><path d="m326.8 183.9 15.9-15.9 13.2 13.2c19.1 19.1 19.1 50.1 0 69.2l-64.1 64.1-16.3-16.3 63.9-63.9c10.4-10.4 10.4-27.3 0-37.6z" style="opacity:.5;fill:#fff"/><path d="M29.1 293.6 142.7 180c17-17 44.6-17 61.7 0l13.3 13.3-73.9 73.9c-19.1 19.1-19.1 50.1 0 69.2l14.9 14.9-37.3 37.3-83.1-83.1c-3.7-3.7-6.7-7.7-9.2-11.9m207.2-81.7-2.5-2.5-73.4 73.6c-10.4 10.4-10.4 27.3 0 37.6l14.5 14.5 61.5-61.5c17-17 17-44.6-.1-61.7m262.9-74.8-32-32c-17-17-44.6-17-61.7 0L381 129.6l77 77c5.9 5.9 10.3 12.7 13.3 20l27.8-27.8c17.2-17.1 17.2-44.7.1-61.7" style="opacity:.55;fill:#fff"/><path d="m121.4 388.6-15 15c-17 17-44.6 17-61.7 0l-32-32c-17-17-17-44.6 0-61.7L29 293.6c2.5 4.2 5.5 8.2 9.2 11.9zm336.7-182-77-77-38.4 38.4 13.2 13.2c19.1 19.1 19.1 50.1 0 69.2l-64.1 64.1 15.1 15.1c17 17 44.6 17 61.7 0l102.9-102.9c-3.1-7.4-7.5-14.2-13.4-20.1m-183.2 29.2 51.9-51.9 12.6 12.6c10.4 10.4 10.4 27.3 0 37.6L275.5 298l-.6-.6c-17-17-17-44.6 0-61.6" style="fill:#fff"/></svg>