<svg xmlns="http://www.w3.org/2000/svg" xml:space="preserve" viewBox="0 0 512 512"><linearGradient id="coredns_svg__a" x1="118.49" x2="377.85" y1="385.68" y2="126.32" gradientUnits="userSpaceOnUse"><stop offset="0" style="stop-color:#754fa0"/><stop offset=".21" style="stop-color:#6d4b9b"/><stop offset=".52" style="stop-color:#583e8b"/><stop offset=".9" style="stop-color:#362b73"/><stop offset="1" style="stop-color:#2c256c"/></linearGradient><path d="M458.1 206.6 297.6 46.1c-23.8-23.8-62.5-23.8-86.3 0l-173.1 173c-23.8 23.8-23.8 62.5 0 86.3l160.5 160.5c23.8 23.8 62.5 23.8 86.3 0l173.1-173.1c23.8-23.8 23.8-62.4 0-86.2m-102.2 43.8L241.4 364.8c-19.1 19.1-50.1 19.1-69.2 0l-28.5-28.5c-19.1-19.1-19.1-50.1 0-69.2l114.5-114.5c19.1-19.1 50.1-19.1 69.2 0l28.5 28.5c19.1 19.1 19.1 50.1 0 69.3m-168.1 97.7-27.4-27.4c-10.4-10.4-10.4-27.3 0-37.6l113.9-113.9c10.4-10.4 27.3-10.4 37.6 0l27.4 27.4c10.4 10.4 10.4 27.3 0 37.6L225.5 348.1c-10.4 10.4-27.3 10.4-37.7 0" style="fill:url(#coredns_svg__a)"/><path d="M29.1 293.6 142.7 180c17-17 44.6-17 61.7 0l13.3 13.3-73.9 73.9c-19.1 19.1-19.1 50.1 0 69.2l14.9 14.9-37.3 37.3-83.1-83.1c-3.7-3.7-6.7-7.7-9.2-11.9m207.2-81.7-2.5-2.5-73.4 73.6c-10.4 10.4-10.4 27.3 0 37.6l14.5 14.5 61.5-61.5c17-17 17-44.6-.1-61.7" style="fill:#5b2d82"/><path d="m326.8 183.9 15.9-15.9 13.2 13.2c19.1 19.1 19.1 50.1 0 69.2l-64.1 64.1-16.3-16.3 63.9-63.9c10.4-10.4 10.4-27.3 0-37.6zm172.4-46.8-32-32c-17-17-44.6-17-61.7 0L381 129.6l77 77c5.9 5.9 10.3 12.7 13.3 20l27.8-27.8c17.2-17.1 17.2-44.7.1-61.7" style="fill:#623393"/><path d="m121.4 388.6-15 15c-17 17-44.6 17-61.7 0l-32-32c-17-17-17-44.6 0-61.7L29 293.6c2.5 4.2 5.5 8.2 9.2 11.9zm336.7-182-77-77-38.4 38.4 13.2 13.2c19.1 19.1 19.1 50.1 0 69.2l-64.1 64.1 15.1 15.1c17 17 44.6 17 61.7 0l102.9-102.9c-3.1-7.4-7.5-14.2-13.4-20.1m-183.2 29.2 51.9-51.9 12.6 12.6c10.4 10.4 10.4 27.3 0 37.6L275.5 298l-.6-.6c-17-17-17-44.6 0-61.6" style="fill:#2c256c"/></svg>