<svg xmlns="http://www.w3.org/2000/svg" xml:space="preserve" viewBox="0 0 512 512"><path d="M256 0C114.6 0 0 114.6 0 256s114.6 256 256 256 256-114.6 256-256S397.4 0 256 0m0 481.3C131.6 481.3 30.7 380.4 30.7 256S131.6 30.7 256 30.7 481.3 131.6 481.3 256 380.4 481.3 256 481.3m151-317.1c0 8.8-7.1 15.9-15.9 15.9H239.5c-6.5 17.5-23.3 30.1-43.1 30.1s-36.6-12.5-43.1-30.1h-31.5c-8.8 0-15.9-7.1-15.9-15.9s7.1-15.9 15.9-15.9h31.5c6.5-17.5 23.3-30.1 43.1-30.1s36.6 12.5 43.1 30.1h151.6c8.8.1 15.9 7.2 15.9 15.9m0 90.9c0 8.8-7.1 15.9-15.9 15.9H360c-6.5 17.5-23.3 30.1-43.1 30.1s-36.6-12.5-43.1-30.1h-152c-8.8 0-15.9-7.1-15.9-15.9s7.1-15.9 15.9-15.9h152.1c6.5-17.5 23.3-30.1 43.1-30.1s36.6 12.5 43.1 30.1h31.1c8.7.1 15.8 7.2 15.8 15.9m0 105.5c0 8.8-7.1 15.9-15.9 15.9H239.5c-6.5 17.5-23.3 30.1-43.1 30.1s-36.6-12.5-43.1-30.1h-31.5c-8.8 0-15.9-7.1-15.9-15.9s7.1-15.9 15.9-15.9h31.5c6.5-17.5 23.3-30.1 43.1-30.1s36.6 12.5 43.1 30.1h151.6c8.8 0 15.9 7.1 15.9 15.9" style="fill:#fff"/></svg>