<svg xmlns="http://www.w3.org/2000/svg" xml:space="preserve" viewBox="0 0 512 512"><path d="M265.7 225.2V24.5C266 10.7 277.3-.2 291.1 0c40.3.7 74.7 3.3 103.4 7.6h.1c.6.1 1.1.2 1.7.4 5.1 1.1 8.7 2.5 10.8 3.9.2.2.4.3.6.5s.4.3.5.5l.1.1.4.4c0 .1.1.1.1.2.1.1.2.2.2.3s.1.2.1.2c0 .1.1.2.1.3.1.2.1.3.2.5 2.5 11.9-6 17.6-27.4 42-5.2 5.9-11.7 12.8-19.4 20.5l-1.5 1.5c-12 12-27 26.2-44.9 42.4-3.1 2.8-4.9 6.9-4.9 11.1v32.5c0 2.8 2.2 5 5 5H456c2.8 0 5-2.2 5-5v-40c0-2.8-2.2-5-5-5h-59.8c33.5-34.5 53.9-61.7 61.3-81.4.4-1.1.8-2.2 1.1-3.3 1-3.3 1.8-6.6 2.2-9.9v-.2c5.1 2.3 9.8 4.7 13.9 7.4 15.5 9.8 27.2 71.8 35.1 186.1 0 .6.1 1.3.1 1.9 0 15.2-12.3 27.5-27.5 27.4l-194.5-.3c-12.2 0-22.2-10-22.2-22.4m217 38.9-194.5.3c-12.4 0-22.4 10.1-22.4 22.5v200.6c.3 13.8 11.6 24.8 25.4 24.5 48.8-.9 89-4.4 120.7-10.6.5-13.9-3.5-24.3-12.2-31.1q-14.7-11.7-57.6-1.5c-.4.1-.8.1-1.1.1-2.8 0-5-2.2-5-5v-31.6c0-1.5.6-2.8 1.7-3.8l42-36.2h-65c-2.8 0-5-2.2-5-5v-40.6c0-2.8 2.2-5 5-5h141.9c2.8 0 5 2.2 5 5V390c0 1.5-.7 2.9-1.9 3.9L428 419.3c-.6.5-1.1 1.1-1.4 1.8-1.2 2.5-.1 5.5 2.4 6.6 15.9 7.3 26.7 16.2 32.3 26.5 4.5 8.2 6.9 17.9 7.3 29q3.3-1.8 6.3-3.6c15.5-9.8 27.2-71.8 35.1-186.1 0-.6.1-1.3.1-1.9 0-15.3-12.3-27.5-27.4-27.5M248.1 24.5v458.2c0 15.2-12.3 27.5-27.5 27.5h-.9c-92.1-3-152.4-13.7-180.9-32-47-30.2-51.6-413.1 0-445.8Q86.2 2.55 222.7 0c13.8-.2 25.2 10.7 25.4 24.5m-70.8 130.3c0-.9-.1-1.7-.3-2.6-1.4-6.7-8-11.1-14.8-9.7L80 159.7c-5.8 1.2-9.9 6.3-9.9 12.2v31.8c0 .9.1 1.7.3 2.6 1.4 6.7 8 11.1 14.8 9.7l32.3-6.8v152c0 6.9 5.6 12.5 12.5 12.5h34.8c6.9 0 12.5-5.6 12.5-12.5z"/></svg>