<svg xmlns="http://www.w3.org/2000/svg" xml:space="preserve" viewBox="0 0 512 512"><path d="M126.5 0h259C455.4 0 512 56.6 512 126.5v259c0 69.9-56.6 126.5-126.5 126.5h-259C56.6 512 0 455.4 0 385.5v-259C0 56.6 56.6 0 126.5 0" style="fill:#22283a"/><path d="m195.8 219.9 45.8-18.1c0-32.1-16.1-48.2-48.2-48.2H78.9c-32.1 0-48.2 16.1-48.2 48.2v108.4c0 32.1 16.1 48.2 48.2 48.2h114.4c32.1 0 48.2-16.1 48.2-48.2l-45.8-24.1v33.7H75.3V189.7h120.5z" style="fill:#48b48a"/><path d="m316.2 219.9-45.8-18.1c0-32.1 16.1-48.2 48.2-48.2H433c32.1 0 48.2 16.1 48.2 48.2v108.4c0 32.1-16.1 48.2-48.2 48.2H318.6c-32.1 0-48.2-16.1-48.2-48.2l45.8-24.1v33.7h120.5V189.7H316.2z" style="fill:#42b5e2"/><path d="M171.7 230.7q-12 0-12 12v22.9q0 12 12 12h168.7q12 0 12-12v-22.9q0-12-12-12z" style="fill:#8746dd"/></svg>