<svg xmlns="http://www.w3.org/2000/svg" xml:space="preserve" viewBox="0 0 512 512"><path d="M0 255.9C.6 191.4 22.2 135 66.2 87.7c36.1-38.9 80.5-63.3 132.5-73.9 16.5-3.4 33.2-4.9 50-4.6 12.4.2 22.1 9.5 23.6 22.4 1.4 11.8-6.4 23.2-18 26.1-2.6.6-5.3.8-8 .8-28.1.1-55.1 5.5-80.5 17.3C114.7 99.5 79.4 138 60.2 191c-9 24.9-12.7 50.7-10.5 76.9 6.4 75.7 43.8 131 111.3 165.7 22.2 11.4 46.2 17.4 71.2 19q71.7 4.8 130.2-36.9c4-2.9 7.9-5.8 12.9-6.7 11-2.1 22.1 3.5 27 13.8 4.9 10.2 2.4 22.4-6.3 29.4-13.5 10.8-28.4 19.5-44 26.9-26.3 12.5-54 20-83 22.6-42 3.6-82.6-2.3-121.1-19.7-67.7-30.3-113.2-81.1-136.6-151.5-7-21-10.5-42.6-11.2-64.7-.2-3.3-.1-6.6-.1-9.9m462-136.2c-19.8 11.4-39.6 22.8-59.4 34.3-5.6 3.3-7.4 9-4.5 14 3 5.1 8.9 6.3 14.5 3.1 8.4-4.9 16.9-9.7 25.3-14.6 11.5-6.7 23-13.3 34.5-20 4.3-2.5 6-7 4.8-11.4-1.2-4.3-5.1-7.1-9.8-7.5-1.8.7-3.8 1.2-5.4 2.1m15.2 266.8c1.3-4.5-.6-8.9-4.9-11.4L412 340.3c-2.6-1.5-5.4-1.9-8.3-1-4 1.2-6.3 4.1-6.9 8.1-.6 4.4 1.3 7.8 5.1 10.1l60.3 34.8c1.6.9 3.4 1.3 5.2 1.9 4.8-.5 8.6-3.3 9.8-7.7M347.9 100.1c5.1-8.9 10.2-17.8 15.4-26.6 6.5-11.3 13-22.5 19.5-33.8 2-3.6 2-7.2-.3-10.6-2.2-3.4-5.5-4.7-9.5-4.3-3.6.4-6 2.4-7.7 5.5-6.2 10.7-12.4 21.5-18.6 32.2-5.3 9.3-10.8 18.5-16 27.8-4 7 .6 15.1 8.5 15.1 3.7-.1 6.7-1.8 8.7-5.3m119.2 145.6h-34.8c-6 0-10.5 4.3-10.5 9.8 0 5.7 4.5 10 10.6 10h68.9c3.7 0 6.9-1.2 9-4.4 2.2-3.2 2.5-6.7.6-10.1-1.8-3.4-4.7-5.3-8.6-5.3-11.9-.1-23.5 0-35.2 0m-169.5 98.8c-6.8-.1-11.5-2.4-14.9-7-17.1-22.7-34.2-45.5-51.3-68.3-5.7-7.6-5.9-14.4-1-22.6 22.9-38.5 45.7-77 68.6-115.5 3.8-6.4 9.4-9.6 16.7-8.9 7.4.7 12.5 4.9 14.8 12.1 1.7 5.3.5 10.2-2.2 14.8-10.3 17.3-20.6 34.7-30.9 52-10.4 17.6-20.8 35.2-31.3 52.7-1.2 1.9-1 3.2.3 4.9l43.8 58.2c4.2 5.6 4.9 11.9 1.7 18.2-3.2 6.1-8.5 9.2-14.3 9.4m-82-108.3c-23.7-13.9-47.4-27.8-71.1-41.8-6.4-3.8-12.8-7.5-19.2-11.2-2.2-1.3-4.4-.6-5.5 1.4-1 1.9-.4 3.9 1.7 5.3.4.2.8.4 1.2.7 25.5 15 51 29.9 76.4 44.9 4.7 2.8 9.4 5.6 14.1 8.2 3 1.7 6.2.1 6.2-3.5-.1-2-2-2.9-3.8-4"/></svg>