<?xml version="1.0" encoding="utf-8"?>
<!-- Generator: Adobe Illustrator 28.2.0, SVG Export Plug-In . SVG Version: 6.00 Build 0)  -->
<svg version="1.1" id="Layer_1" xmlns="http://www.w3.org/2000/svg" xmlns:xlink="http://www.w3.org/1999/xlink" x="0px" y="0px"
	 viewBox="0 0 512 512" style="enable-background:new 0 0 512 512;" xml:space="preserve">
<style type="text/css">
	.st0{fill:#39A652;}
	.st1{fill:#227733;}
	.st2{fill:#C0ECB5;}
</style>
<g>
	<g id="Layer_2_00000093170512460411829950000018066473140524298881_">
		<g>
			<path class="st0" d="M511.9,13.8c0.6-3.3-0.6-6.3-2.6-8.4c-31.3,10.5-131.8,46.9-183,97.1c-43.5,42.7-31.9,95.7-36.2,107.9
				c1.5,1.7,3.1,3.4,4.7,5.1c32.7,33.3,80.6,40.9,141.1-18.5C485,148.8,505.7,49.6,511.9,13.8L511.9,13.8z"/>
			<path class="st1" d="M509.2,5.3c-2.1-2.2-5.2-3.4-8.6-2.9C465,8.3,366.5,28.1,317.5,76.2c-57.5,56.4-55.7,101.2-27.4,134.1
				c4.3-12.2-7.3-65.2,36.2-107.9C377.4,52.2,477.9,15.8,509.2,5.3z"/>
		</g>
		<g>
			<path class="st0" d="M13.9,1.2c-3.3-0.6-6.3,0.6-8.4,2.6c10.5,31.3,46.9,131.8,97.1,183c42.7,43.5,95.7,31.9,107.9,36.2
				c1.7-1.5,3.4-3.1,5.1-4.7c33.3-32.7,40.9-80.6-18.5-141.1C148.9,28.1,49.7,7.3,13.9,1.2z"/>
			<path class="st1" d="M5.4,3.8C3.2,6,2,9.1,2.6,12.4c5.8,35.7,25.7,134.1,73.8,183.2c56.4,57.5,101.2,55.7,134.1,27.4
				c-12.2-4.3-65.2,7.3-107.9-36.2C52.4,135.7,16,35.2,5.4,3.8z"/>
		</g>
		<g>
			<path class="st0" d="M0.1,498c-0.6,3.3,0.6,6.3,2.6,8.4c31.3-10.5,131.8-46.9,183-97.1c43.5-42.7,31.9-95.7,36.2-107.9
				c-1.5-1.7-3.1-3.4-4.7-5.1c-32.7-33.3-80.6-40.9-141.1,18.5C27,362.9,6.3,462.1,0.1,498z"/>
			<path class="st1" d="M2.8,506.4c2.1,2.2,5.2,3.4,8.6,2.9c35.7-5.8,134.1-25.7,183.2-73.8c57.5-56.4,55.7-101.2,27.4-134.1
				c-4.3,12.2,7.3,65.2-36.2,107.9C134.6,459.5,34.1,495.9,2.8,506.4z"/>
		</g>
		<g>
			<path class="st0" d="M497.2,510.8c3.3,0.6,6.3-0.6,8.4-2.6c-10.5-31.3-46.9-131.8-97.1-183c-42.7-43.5-95.7-31.9-107.9-36.2
				c-1.7,1.5-3.4,3.1-5.1,4.7c-33.3,32.7-40.9,80.6,18.5,141.1C362.1,483.9,461.4,504.7,497.2,510.8z"/>
			<path class="st1" d="M505.6,508.2c2.2-2.1,3.4-5.2,2.9-8.6c-5.8-35.7-25.7-134.1-73.8-183.2c-56.4-57.5-101.2-55.7-134.1-27.4
				c12.2,4.3,65.2-7.3,107.9,36.2C458.7,376.3,495.1,476.8,505.6,508.2L505.6,508.2z"/>
		</g>
	</g>
	<g id="Layer_1_00000182521097122078321400000000038781129847487880_">
		<path class="st2" d="M72.2,422L423.4,77.6c2.4-2.4,6.4-2.4,8.7,0.1l4.3,4.4c2.4,2.4,2.4,6.4-0.1,8.7L85.2,435.2
			c-2.4,2.4-6.4,2.4-8.7-0.1l-4.3-4.4C69.8,428.3,69.8,424.4,72.2,422z"/>
		<ellipse transform="matrix(0.714 -0.7002 0.7002 0.714 0.4601 297.6509)" class="st2" cx="364.6" cy="148.3" rx="107.1" ry="21"/>
		<ellipse transform="matrix(0.714 -0.7002 0.7002 0.714 -211.6768 205.7631)" class="st2" cx="146" cy="362" rx="107.1" ry="21"/>
		<path class="st2" d="M77.8,78.2l4.4-4.3c2.4-2.4,6.4-2.4,8.7,0.1l344.3,351.1c2.4,2.4,2.4,6.4-0.1,8.7l-4.4,4.3
			c-2.4,2.4-6.4,2.4-8.7-0.1L77.7,86.9C75.3,84.5,75.4,80.6,77.8,78.2z"/>
		
			<ellipse transform="matrix(0.714 -0.7002 0.7002 0.714 -59.6971 146.2636)" class="st2" cx="149.2" cy="146.2" rx="21" ry="107.1"/>
		
			<ellipse transform="matrix(0.714 -0.7002 0.7002 0.714 -151.1954 357.4928)" class="st2" cx="362" cy="363.8" rx="21" ry="107.1"/>
	</g>
</g>
</svg>
