<svg xmlns="http://www.w3.org/2000/svg" xml:space="preserve" id="crow-ci_svg__Layer_1" x="0" y="0" style="enable-background:new 0 0 512 512" version="1.1" viewBox="0 0 512 512"><style>.crow-ci_svg__st2{fill-rule:evenodd;clip-rule:evenodd;fill:#fff}</style><path d="M173.1 194.8s56.3 14.4 37.3 89.7c-17.1 67.8 18 83.7 37.9 96 3.8 2.3 7.3 3.9 10.3 4.7.1 0 84-154-85.5-190.4" style="fill-rule:evenodd;clip-rule:evenodd;fill:#272727"/><defs><filter id="crow-ci_svg__Adobe_OpacityMaskFilter" width="106.3" height="187.9" x="170.7" y="194.8" filterUnits="userSpaceOnUse"><feColorMatrix values="1 0 0 0 0 0 1 0 0 0 0 0 1 0 0 0 0 0 1 0"/></filter></defs><mask id="crow-ci_svg__mask-2_00000123413183320565884610000011300936406024791185_" width="106.3" height="187.9" x="170.7" y="194.8" maskUnits="userSpaceOnUse"><g style="filter:url(#crow-ci_svg__Adobe_OpacityMaskFilter)"><path id="crow-ci_svg__path-1_00000058557495133026390580000015460241177738517420_" d="M210.8 285.6c-16.8 67.2 17 82.4 34.9 92.5 3.7 2.3 7.2 3.9 10.2 4.7 0 0 83.9-154.3-83.2-190.4l-4.6.9s62.2 15 43.5 89.7z" class="crow-ci_svg__st2"/></g></mask><linearGradient id="crow-ci_svg__SVGID_1_" x1="-666.148" x2="-660.557" y1="771.858" y2="776.017" gradientTransform="matrix(4.5998 0 0 -8.1301 3277.149 6564.632)" gradientUnits="userSpaceOnUse"><stop offset="0" style="stop-color:#000;stop-opacity:0"/><stop offset="1" style="stop-color:#000"/></linearGradient><path d="M209.6 288.8c-17.1 66.9 26.4 85.4 36.4 89.3 3.8 2.3 7.3 3.8 10.3 4.6 0 0 83.9-152-85.6-187.9 0 0 58.8 16.9 39.8 91.3z" style="mask:url(#crow-ci_svg__mask-2_00000123413183320565884610000011300936406024791185_);fill-rule:evenodd;clip-rule:evenodd;fill:url(#crow-ci_svg__SVGID_1_)"/><defs><filter id="crow-ci_svg__Adobe_OpacityMaskFilter_00000115487825284994916730000013367374405820900762_" width="511.9" height="436" x="0" y="37.4" filterUnits="userSpaceOnUse"><feColorMatrix values="1 0 0 0 0 0 1 0 0 0 0 0 1 0 0 0 0 0 1 0"/></filter></defs><mask id="crow-ci_svg__mask-5_00000061449697188350731900000017719923222715095450_" width="511.9" height="436" x="0" y="37.4" maskUnits="userSpaceOnUse"><g style="filter:url(#crow-ci_svg__Adobe_OpacityMaskFilter_00000115487825284994916730000013367374405820900762_)"><path id="crow-ci_svg__path-4_00000090979842028476561450000013603478209987247544_" d="M160 69.1c-13.1 11.2-25.7 47.3-28.1 58.5C25.9 164.6 0 223.5 0 223.5s59.4-37.6 160-25.3c96 11.8 96 107.7 96 107.7.3 3.7.4 7.3.4 10.9.1 103.9-113.2 155.8-113.2 155.8 198.7 10.1 261.6-106.1 266.5-118.3-4.9 58.8-33.3 95.5-33.3 95.5C458 390.8 479 330.2 479 283.4c0-49.8-23.8-84-23.8-84 40.4 15.7 56.7 52.8 56.7 52.8S488.4 115.8 367.1 58.5c-.2-.1-.5-.2-.7-.3-.3-.1-.6-.3-.9-.4-32.3-15-63-20.5-90.5-20.5-5.2 0-10.2.2-15.1.6-35.2 2.6-86.7 19.9-99.9 31.2m15.6 52.6c0-4.9 4-8.8 8.8-8.8 4.9 0 8.8 4 8.8 8.8 0 4.9-4 8.8-8.8 8.8-4.9 0-8.8-3.9-8.8-8.8" class="crow-ci_svg__st2"/></g></mask><linearGradient id="crow-ci_svg__SVGID_00000003811966209310518480000016346462707503572385_" x1="-608.245" x2="-609.829" y1="708.426" y2="673.643" gradientTransform="matrix(6.6264 0 0 -5.6433 4288.064 4206.003)" gradientUnits="userSpaceOnUse"><stop offset="0" style="stop-color:#3a3a3a"/><stop offset="1" style="stop-color:#000"/></linearGradient><path d="M160 68.5c-18.7-4.5-28.1-6.8-28.1-6.8s5.1 42.2 0 65.8C25.9 164.6 0 223.5 0 223.5s59.4-37.6 160-25.3c96 11.8 96 107.7 96 107.7.3 3.7.4 7.3.4 10.9.1 103.9-113.2 155.8-113.2 155.8 198.7 10.1 261.6-106.1 266.5-118.3-4.9 58.8-33.3 95.5-33.3 95.5C458 390.8 479 330.2 479 283.4c0-49.8-23.8-84-23.8-84 40.4 15.7 56.7 52.8 56.7 52.8S488.4 115.8 367.1 58.5c-.2-.1-.5-.2-.7-.3-.3-.1-.6-.3-.9-.4-32.3-15-63-20.5-90.5-20.5-5.2 0-10.2.2-15.1.6-67 4.9-99.9 30.6-99.9 30.6m15.6 53.2c0-4.9 4-8.8 8.8-8.8 4.9 0 8.8 4 8.8 8.8 0 4.9-4 8.8-8.8 8.8-4.9 0-8.8-3.9-8.8-8.8" style="mask:url(#crow-ci_svg__mask-5_00000061449697188350731900000017719923222715095450_);fill-rule:evenodd;clip-rule:evenodd;fill:url(#crow-ci_svg__SVGID_00000003811966209310518480000016346462707503572385_)"/><defs><filter id="crow-ci_svg__Adobe_OpacityMaskFilter_00000041254355998177316090000007526288904158251655_" width="269.3" height="281.4" x="141.5" y="193.2" filterUnits="userSpaceOnUse"><feColorMatrix values="1 0 0 0 0 0 1 0 0 0 0 0 1 0 0 0 0 0 1 0"/></filter></defs><mask id="crow-ci_svg__mask-8_00000082338483046006344490000012518453298325017499_" width="269.3" height="281.4" x="141.5" y="193.2" maskUnits="userSpaceOnUse"><g style="filter:url(#crow-ci_svg__Adobe_OpacityMaskFilter_00000041254355998177316090000007526288904158251655_)"><path id="crow-ci_svg__path-7_00000003063992631152609100000014559169647131955634_" d="M131.9 127.6C25.9 164.6 0 223.5 0 223.5s59.4-37.6 160-25.3c96 11.8 96 107.7 96 107.7 8.4 111.1-112.8 166.7-112.8 166.7 198.7 10.1 261.6-106.1 266.5-118.3-4.9 58.8-33.3 95.5-33.3 95.5 168.4-122.1 78.9-250.6 78.9-250.6C495.7 214.9 512 252 512 252S488.4 115.8 367.1 58.5C334.2 43 303 37.3 275 37.3c-75.2.1-138 66.7-143.1 90.3" class="crow-ci_svg__st2"/></g></mask><path d="M141.5 472.7s227.3-60.6 166.7-279.5c37 16.8 74.1 60.6 74.1 89.2 0 0 1.1-2.2 1.7-45.5 20.2 26.9 33.1 79.1 23.6 117.8-18 73.1-143.2 131.5-266.1 118" style="mask:url(#crow-ci_svg__mask-8_00000082338483046006344490000012518453298325017499_);fill-rule:evenodd;clip-rule:evenodd"/><defs><filter id="crow-ci_svg__Adobe_OpacityMaskFilter_00000078737387024728900920000003148958311969231764_" width="267.7" height="279.2" x="143.5" y="194.9" filterUnits="userSpaceOnUse"><feColorMatrix values="1 0 0 0 0 0 1 0 0 0 0 0 1 0 0 0 0 0 1 0"/></filter></defs><mask id="crow-ci_svg__mask-10_00000052068586505706508210000001462967496352615852_" width="267.7" height="279.2" x="143.5" y="194.9" maskUnits="userSpaceOnUse"><g style="filter:url(#crow-ci_svg__Adobe_OpacityMaskFilter_00000078737387024728900920000003148958311969231764_)"><path id="crow-ci_svg__path-9_00000085210498987631182540000002879695629338026943_" d="M146.1 472.2c-1.7.8-2.6 1.3-2.6 1.3 173.8 8.8 243.7-78.5 261.8-108.8 1.1-2.9 1.9-5.7 2.7-8.7 9.5-38.6-3.4-90.6-23.6-117.5-.6 43.1-1.7 45.3-1.7 45.3 0-28.5-37.1-72.2-74.1-88.9 55.7 200.3-131.5 267.6-162.5 277.3" class="crow-ci_svg__st2"/></g></mask><path d="M146.1 472.2c-1.7.8-2.6 1.3-2.6 1.3 173.8 8.8 243.7-78.5 261.8-108.8 1.1-2.9 1.9-5.7 2.7-8.7 9.5-38.6-3.4-90.6-23.6-117.5-.6 43.1-1.7 45.3-1.7 45.3 0-28.5-37.1-72.2-74.1-88.9 55.7 200.3-131.5 267.6-162.5 277.3" style="mask:url(#crow-ci_svg__mask-10_00000052068586505706508210000001462967496352615852_);fill-rule:evenodd;clip-rule:evenodd;fill:#0f0f0f"/><defs><filter id="crow-ci_svg__Adobe_OpacityMaskFilter_00000083088335292006606810000015079980730339471259_" width="248.7" height="98" x="208.9" y="101" filterUnits="userSpaceOnUse"><feColorMatrix values="1 0 0 0 0 0 1 0 0 0 0 0 1 0 0 0 0 0 1 0"/></filter></defs><mask id="crow-ci_svg__mask-12_00000077283175797875188520000001603612267124788112_" width="248.7" height="98" x="208.9" y="101" maskUnits="userSpaceOnUse"><g style="filter:url(#crow-ci_svg__Adobe_OpacityMaskFilter_00000083088335292006606810000015079980730339471259_)"><path id="crow-ci_svg__path-11_00000031171371974795533850000005947033780319339930_" d="M361.9 125.7c-8.6-4.9-55.1-37.2-153-10.1L457.6 199S434 138.2 344 101c9.5 8.7 14.8 15.6 17.9 24.7" class="crow-ci_svg__st2"/></g></mask><linearGradient id="crow-ci_svg__SVGID_00000142868545954494144670000011215802727047727004_" x1="-681.819" x2="-679.863" y1="725.531" y2="729.035" gradientTransform="matrix(9.7402 0 0 -3.8393 6993.884 2929.034)" gradientUnits="userSpaceOnUse"><stop offset="0" style="stop-color:#000;stop-opacity:0"/><stop offset="1" style="stop-color:#000"/></linearGradient><path d="M361.9 125.7c-8.6-4.9-55.1-37.2-153-10.1L457.6 199S434 138.2 344 101c9.5 8.7 14.8 15.6 17.9 24.7" style="mask:url(#crow-ci_svg__mask-12_00000077283175797875188520000001603612267124788112_);fill-rule:evenodd;clip-rule:evenodd;fill:url(#crow-ci_svg__SVGID_00000142868545954494144670000011215802727047727004_)"/></svg>