<svg xmlns="http://www.w3.org/2000/svg" xml:space="preserve" viewBox="0 0 512 512"><path d="M452.5 153.7h-393C26.7 153.7 0 180.3 0 213.2v85.5c0 32.9 26.7 59.5 59.5 59.5h392.9c32.9 0 59.5-26.7 59.5-59.5v-85.5c.1-32.9-26.6-59.5-59.4-59.5M63.2 296.5c2.9 4.1 7.3 6.2 13.2 6.2 4.5 0 8.2-1.2 11-3.7s4.3-5.8 4.4-9.9h23q-.15 9.3-5.1 17.1c-3.3 5.2-7.9 9.2-13.7 12.1s-12.2 4.3-19.2 4.3c-13.1 0-23.5-4.2-31.1-12.5-7.6-8.4-11.4-19.9-11.4-34.6v-1.6c0-14.2 3.8-25.5 11.3-33.9s17.9-12.7 31-12.7c11.5 0 20.7 3.3 27.7 9.8 6.9 6.5 10.5 15.2 10.6 26.1h-23c-.1-4.8-1.6-8.7-4.4-11.7s-6.6-4.5-11.2-4.5c-5.7 0-10 2.1-13 6.3-2.9 4.2-4.4 10.9-4.4 20.3v2.6c-.1 9.4 1.4 16.2 4.3 20.3m117.3-44.6c-3.3-.5-6.3-.7-8.8-.7-9.3 0-15.4 3.1-18.3 9.4v60.2h-24.6v-91.9H152l.7 11c4.9-8.4 11.8-12.7 20.5-12.7 2.7 0 5.3.4 7.6 1.1zm62.1 68.4c-4.8 1.5-9.8 2.2-14.9 2.2-17.2 0-26-8.7-26.3-26.1v-49.5H188v-18h13.4v-22.6H226v22.6h15.7v18H226v45.9c0 3.4.7 5.8 2 7.3s3.8 2.2 7.5 2.2q4.05 0 7.2-.6v18.6zm37.9-2.1c-2.6 2.4-5.9 3.6-10 3.6q-6 0-9.9-3.6c-2.6-2.4-3.9-5.5-3.9-9.4s1.3-7.1 4-9.5c2.6-2.4 5.9-3.7 9.9-3.7s7.3 1.2 10 3.7c2.6 2.4 4 5.6 4 9.5-.2 3.8-1.5 7-4.1 9.4m88.3-3.4q-10.8 7.8-27.9 7.8c-7.7 0-14.5-1.4-20.5-4.1s-10.7-6.5-14.1-11.3-5.1-10-5.1-15.5h23.3c.2 4.4 1.8 7.7 4.8 10s7 3.5 12.1 3.5c4.7 0 8.3-.9 10.7-2.7s3.6-4.1 3.6-7c0-3-1.5-5.4-4.5-7.1s-7.7-3.3-14.3-4.6c-21.9-4.6-32.8-13.9-32.8-27.9q0-12.3 10.2-20.4c6.8-5.5 15.6-8.2 26.6-8.2 11.7 0 21 2.7 28 8.2s10.5 12.6 10.5 21.4h-24.6c0-3.5-1.1-6.4-3.4-8.7s-5.8-3.4-10.6-3.4c-4.1 0-7.3.9-9.6 2.8s-3.4 4.2-3.4 7.1q0 4.05 3.9 6.6c2.6 1.7 6.9 3.1 13 4.3s11.3 2.6 15.5 4.1c13 4.8 19.5 13 19.5 24.7-.1 8.4-3.7 15.2-10.9 20.4m105.4 6h-24.6v-58.2c0-5.3-1.1-9.2-3.4-11.7s-6-3.8-11.3-3.8c-7.2 0-12.4 2.8-15.6 8.3v65.3h-24.6V190.3h24.6v48.6q9.75-11.7 24.6-11.7c19.9 0 30 11.6 30.3 34.7z"/></svg>