<svg xmlns="http://www.w3.org/2000/svg" xml:space="preserve" viewBox="0 0 512 512"><path d="M507.6 358.6c-2.6 4.9-7.5 7-12.3 4.8s-6.8-7.7-4.3-12.7c2.6-5.3 3.3-10.7 1.4-16.2-3.1-9.2-12.6-14.7-22.1-13s-16.4 10.1-16.3 19.7 7.1 17.7 16.8 19.3c5.5.9 8.7 4 8.9 8.7.2 4.8-2.7 8.9-7.9 10-2.1.4-4.4-.3-6.6-.8-15.8-3.8-25.2-14.2-29.2-29.5-.9-3.5-.3-7.3-.5-11 .7-6.7 2.9-12.9 6.6-18.5-5.5-1.9-10.3-5.9-13.2-11.5l-9.6-19.2c-3.6-7-3.3-15.1.1-21.6v-.1c-.4-3.3-3.2-6.2-4.4-9.4-1.8-4.7-4.4-7.7-9.9-6.7-.4.1-.8.1-1.1-.1-.6-.4-1.4-.8-1.5-1.3-2.2-7.4-4-14.7-1.8-22.5 1.2-4.4 1.8-9.1 2.6-13.6.4-8.4.9-16.8 1.3-25.2.1-1.9-.2-3.8-.3-5.9 4.6-.7 9-.4 13.3.7 19.5 5.1 30.4 25 24.4 44.2-.2.7-.4 1.5-.6 2.2-1.2 2.1-2.5 4.2-3.5 6.4-.4.9-.4 2.2 0 3 2.4 4.9 4.9 9.7 7.4 14.5.1.1.2.2.3.4 7.2 1.1 13.7 5.5 17.2 12.5l9.6 19.2c.7 1.4 1.3 2.9 1.7 4.3 1.2 4.2 1.1 8.6 0 12.6v.1c3.7.8 7.5 1.3 11.1 2.5 14.9 5 23.6 15.4 26.1 30.9.1.5.3 1.1.5 1.6.4 7.4-.7 14.5-4.2 21.2m-78.7 39.8c.8 6 .9 12 1.3 18.1-.3 12.2-2.4 24.1-7.5 35.3-3 6.5-6.9 12.4-12.6 17-4.8 3.8-10.3 5.9-16.5 5.8-15.2-.1-30.3-.1-45.5 0-3 0-5.5-.9-7.8-2.9-7.4-6.5-14.8-13-22.2-19.6-4.9-4.3-6.8-10.3-7.9-16.3-1.4-7.8-2.1-15.7-3.1-23.9-.7.3-1.7.8-2.8 1.3-15 7.7-30.6 14.1-46.9 18.7-1.4.4-3.2.4-4.7 0-16.4-4.6-32-11.2-47.1-18.9-.8-.4-1.5-.8-2.3-1.1-.2-.1-.4 0-.7 0-.3 4.5-.3 9-.8 13.4-.6 4.6-1.4 9.2-2.5 13.7-1.5 6.2-4.7 11.4-9.8 15.6-6.5 5.3-12.6 10.9-18.8 16.5-2.7 2.4-5.6 3.6-9.2 3.5-14.5-.1-29-.2-43.5 0-9 .2-16.2-3.4-22-9.9-6.8-7.6-10.5-16.8-13.1-26.5-.2-.6-.4-1.3-.6-1.9-.8-8.1-1.9-16.1-2.2-24.2-.4-11.2 2-22.2 5.8-32.7 2.5-7 6.5-13.4 12-18.6 6.4-5.9 14-8.2 22.7-7.6 4.6.3 9.2.1 14.2.1-.7-1.2-1.1-2-1.6-2.8-6.6-10.4-11.9-21.4-14.8-33.3-2.1-8.5-3.2-17.3-4.7-25.9 0-.3.1-.6.1-.8-.9-15.7.8-31.1 5-46.3 2-7.3 1.8-14.6-.7-21.7-.6-3.4-1.5-6.7-1.7-10.1-.5-9.3-.8-18.7-1.2-28.1.2-2.9.3-5.8.6-8.6.2-1.6.7-3.1 2.8-3.6 11.3-2.5 22.6-5.1 33.9-7.7.3-.1.2 0 .1 0 9-.8 19.9-2.5 28.9-2.9 24.7-1.1 49 1.6 72.2 10.9.8.3 1.9.4 2.6.1 22.2-8.9 45.4-11.5 69.1-11 21.3.5 42.7 4 62.6 10l6.1 2.7c1.5 12.4 1.5 24.9.3 37.4-1.1 5.2-2.6 10.3-3.2 15.5-.6 5.1-1.1 10.5 0 15.4 2.7 11.6 4.9 23.2 5.6 35.1-.7 9-1 18.1-2.1 27.1-1.3 10.8-5.2 20.9-9.3 30.8-3 5.5-6.1 10.9-9.1 16.4 0 .4.1.8.1 1.2 5 0 10.1.2 15.1 0 11-.4 19.1 4.7 25.3 13.3 7.1 9.7 10.6 20.5 12.1 32m-235.5 10.3c0-2-.8-3-2.3-4.1-8.5-5.9-16.9-11.8-25.2-17.9-3.3-2.4-6.3-5.4-9.7-8.4-.4 1.6-.7 2.7-1 3.8-3.8 16.1-4.2 32.5-2.5 48.9.9 9.2 2.7 18.2 6.4 26.7 2.6 5.8 5.8 6.5 10.5 2.3 5.2-4.7 10.4-9.4 15.8-13.9 2.5-2.1 3.9-4.5 4.7-7.5 2.6-9.9 3.2-19.9 3.3-29.9m68.4-123.6c12.1-2.8 20.7-13.5 20.7-25.9 0-14.7-11.8-26.6-26.5-26.6s-26.6 11.8-26.6 26.5c0 12.4 8.6 23.2 20.7 26l-14.9 62.6 20.6 5.9 20.7-5.9zm95.8 109.7c-.6-5.4-1.9-10.7-2.9-16.7-11.5 10.9-23.5 19.7-36.3 27.5-.6.3-1 1.4-1 2.1-.3 10.5.4 20.8 3.2 30.9.6 2.1 1.6 4.4 3.1 5.9 5.9 5.6 12.1 10.9 18.3 16.2 3.4 3 7.1 2.2 8.9-2 1.6-3.7 3.1-7.6 4.1-11.5 4.3-17.2 4.6-34.8 2.6-52.4M147.3 156c-4.1.5-8.2 1.6-12.9 2.6.5-11.6 2.8-22.2 5.8-32.7 4.9-15.6 12-30.2 21.9-43.3 2.7-3.6 5.9-6.8 8.8-10.1 9-8.8 18.7-16.6 30-22.2 42.7-21.6 100.1-17.7 139.3 25 1 1.1 2.1 2.2 3.1 3.3 8.5 10.2 15.7 21.3 20.9 33.5 2.9 6.7 5.1 13.7 7.6 20.5 2 8.5 3.9 17 4.3 25.9-7.9-1.4-15.5-2.9-23.1-4-32.4-4.4-64.4-3.3-95.6 7.7-1.1.4-2.6.3-3.8-.1-24.1-8.6-49-11.4-74.4-9.8-10.7.7-21.3 2.3-31.9 3.7m145.9-23.5c.1-3-2.4-5.5-5.3-5.5-2.8 0-5.2 2.3-5.2 5.2-.1 3 2.3 5.4 5.3 5.4 2.8.1 5.1-2.2 5.2-5.1m-22.5-17.7h56c-.5-10.5-4.9-18.6-13.8-23.9-9.7-5.7-19.8-5.5-29.3.5-8.4 5.3-12.6 13.2-12.9 23.4m-9 17.3c-.1 3 2.2 5.5 5.2 5.6 2.9.1 5.5-2.4 5.5-5.3 0-2.8-2.4-5.2-5.2-5.3-2.9-.1-5.4 2.2-5.5 5m-36.3-5c-2.8-.1-5.3 2.1-5.5 5s2.1 5.5 5.1 5.7c2.8.1 5.3-2.1 5.5-4.9.1-3.1-2.2-5.7-5.1-5.8m15.3 5.6c.2 2.8 2.6 5.1 5.5 5 3-.1 5.4-2.7 5.2-5.6-.2-2.8-2.7-5.1-5.5-5.1-2.9.1-5.4 2.8-5.2 5.7m-56.6-17.9h56.1c-.6-10.3-4.8-18.4-13.5-23.7-9.7-5.8-19.7-5.8-29.3.1-8.7 5.3-13 13.3-13.3 23.6M82.7 307.2c2.2-4.2 4.4-8.3 6.6-12.5 1-2 1.9-4.1 2.9-6.1 3-6.3 3.2-12.7.7-19.2-.4-1.1-.4-2.8.1-3.9 1.9-4.1 4.1-8.1 6.1-12.2.8-1.7 1.8-2.4 3.7-2.2 1.6.2 3.2-.2 4.7-.3 3.3-9 4.9-18 1.8-27.3-3.1-12.7-3.6-25.7-2.9-38.7-.1-.9-.2-1.8-.3-3-3.2.1-6.2.1-9.2.5-9 1.1-15.9 6-21.7 12.8-1.8 3.4-4 6.7-5.3 10.3-3.6 10.3-2 20.1 3.3 29.4 1.4 1.1 1.4 2.3.5 3.9-2.5 4.6-4.7 9.3-7.2 13.9-.5.9-1.7 1.8-2.7 2-6.6 1.6-11.6 5.2-14.8 11.3-2.5 4.8-5 9.6-7.5 14.3-.2.5-.3 1.1-.6 1.5-4.3 7.4-5.4 15-2.2 23.2-3 .4-5.8.6-8.5 1.2-9.2 1.8-16.4 6.8-22.4 13.8-2.6 4.5-5.7 8.7-6.9 13.9-2 9.2-1.2 18 2.9 26.5 1.8 3.7 4.5 6 8.6 6.4h1.1c7-.9 10.4-8.1 7-14.6-4.1-7.7-2.4-16.5 3.5-22.5 5.6-5.7 14.4-7.5 21.8-4.4 7.6 3.2 12.4 10.8 12.1 19.2-.4 9.2-7.1 17-16.6 18.5-4.3.7-7.1 2.7-8.9 6.5-1.4 3.4-.3 6.3 2 8.8 3.8 4.3 8.5 3.4 13.2 2.2 12.4-3.2 20.8-11.1 26.1-22.5 3.8-10.8 3.7-21.5-1.5-31.9-1.2-2.4-2.8-4.7-4.3-7.2.5-.2 1-.5 1.6-.7 5.9-1.6 10.3-5.3 13.2-10.9"/></svg>