<?xml version="1.0" encoding="utf-8"?>
<!-- Generator: Adobe Illustrator 28.2.0, SVG Export Plug-In . SVG Version: 6.00 Build 0)  -->
<svg version="1.1" id="Layer_1" xmlns:osb="http://www.openswatchbook.org/uri/2009/osb"
	 xmlns="http://www.w3.org/2000/svg" xmlns:xlink="http://www.w3.org/1999/xlink" x="0px" y="0px" viewBox="0 0 512 512"
	 style="enable-background:new 0 0 512 512;" xml:space="preserve">
<style type="text/css">
	.st0{fill:#FFFFFF;}
</style>
<g transform="translate(-125.38 -26.449)">
	<path class="st0" d="M383.4,538.4l-4.6-2.1c-6.3-2.9-12.9-5.8-19.9-8.9c-74.9-33.2-177.4-78.6-179.1-224.1l-3.5-276.9h273
		l136.9,127.1v149.6c0,61.4-19.1,110.1-58.4,148.9c-33.3,32.9-75.9,53.1-110.2,69.3c-10.7,5.1-20.9,9.9-29.9,14.7L383.4,538.4z
		 M197,46.8l3.2,256.3c1.6,132.5,93.3,173.2,167,205.8c5.4,2.4,10.6,4.7,15.6,7c8.2-4.2,17-8.4,26.2-12.7
		c69.9-33.1,157-74.4,157-199.9V162.4L441.5,46.8H197z"/>
	<polygon class="st0" points="576.9,177.8 423.4,177.8 423.4,33.4 443.7,33.4 443.7,157.5 576.9,157.5 	"/>
	<g transform="matrix(1.1107 0 0 1.1107 18.926 21.932)">
		<path class="st0" d="M373.5,218c0,26.2-21.2,47.3-47.3,47.3c-26.2,0-47.3-21.2-47.3-47.3s21.2-47.3,47.3-47.3
			C352.2,170.7,373.5,191.9,373.5,218z"/>
		<path class="st0" d="M313.8,217.6h24.7L363.1,348h-74L313.8,217.6z"/>
	</g>
</g>
</svg>
