<svg xmlns="http://www.w3.org/2000/svg" xml:space="preserve" viewBox="0 0 512 512"><path d="M324.6.5h-273l3.5 276.9c1.7 145.5 104.2 190.9 179.1 224.1 7 3.1 13.6 6 19.9 8.9l4.6 2.1 4.3-2.4c9-4.8 19.2-9.6 29.9-14.7 34.3-16.2 76.9-36.4 110.2-69.3 39.3-38.8 58.4-87.5 58.4-148.9V127.6zM319 22.9l117 108.7H319zm-34.7 454.4c-9.2 4.3-18 8.5-26.2 12.7-5-2.3-10.2-4.6-15.6-7-73.7-32.6-165.4-73.3-167-205.8L72.3 20.9h226.4v131h142.6v125.5c0 125.5-87.1 166.8-157 199.9m-5.1-191.7 18.3 97h-82.2l18.4-97C216.1 277 204 259 204 238.2c0-29 23.5-52.5 52.5-52.5 28.9 0 52.5 23.5 52.5 52.5 0 20.9-12.2 38.9-29.8 47.4" style="fill:#fff"/></svg>