<svg xmlns="http://www.w3.org/2000/svg" xml:space="preserve" id="cryptpad_svg__Layer_1" x="0" y="0" version="1.1" viewBox="0 0 512 512"><style>.cryptpad_svg__st2{fill:#0087ff}</style><path d="M61.3 10.1H320l130.7 121.4v145.2c0 152.6-124.9 187.9-193.1 223.9-74.7-34.4-191.3-71.9-193.1-223.9z" style="fill:#fff"/><path d="m61.3 10.2 3.2 231.2h193.3V10.2zm196.5 231.1v256.2c74.8-34.3 191.1-99.6 193.2-251.7l.1-4.6H257.8z" style="fill:#0087ff;fill-opacity:.3961"/><path d="M324.1 0H51l3.5 276.9c1.7 145.6 104.3 191 179.1 224.1 7 3.1 13.5 6 19.9 8.9l4.6 2.1 4.4-2.3c9-4.8 19.2-9.6 29.9-14.7 34.3-16.2 76.9-36.5 110.2-69.3 39.3-38.9 58.4-87.6 58.4-148.9V127.1zm-5.8 22.4 117 108.7h-117zm-34.6 454.3c-9.2 4.4-18.1 8.6-26.2 12.7-5-2.3-10.2-4.6-15.6-7-73.7-32.6-165.5-73.3-167-205.8L71.6 20.3H298v131.1h142.6v125.4c.1 125.5-87 166.7-156.9 199.9" class="cryptpad_svg__st2"/><path d="M308.3 237.7c0-29-23.6-52.5-52.5-52.5-29 0-52.5 23.6-52.5 52.5 0 20.8 12.1 38.9 29.7 47.4l-18.4 97h82.2l-18.3-96.9c17.6-8.6 29.8-26.6 29.8-47.5" class="cryptpad_svg__st2"/></svg>