<svg xmlns="http://www.w3.org/2000/svg" xml:space="preserve" viewBox="0 0 512 512"><path d="m481.7 0-41.1 460.7L255.7 512 71.4 460.8 30.3 0z" style="fill:#264de4"/><path d="m405.4 431.4 35.1-393.7H256v435.1z" style="fill:#2965f1"/><path d="m124.5 208.6 5.1 56.5H256v-56.5zM256 94.2H114.3l5.1 56.5H256zm0 320v-58.8l-.2.1-62.9-17-4-45.1H132l7.9 88.7 115.8 32.1z" style="fill:#ebebeb"/><path d="m325.4 265.1-6.6 73.3-63 17v58.8l115.9-32.1.8-9.5 13.3-148.8 1.4-15.2 10.2-114.4H255.8v56.5h79.6l-5.1 57.9h-74.5v56.5z" style="fill:#fff"/></svg>