<svg xmlns="http://www.w3.org/2000/svg" xml:space="preserve" viewBox="0 0 512 512"><path d="M224.6 59.7c-74.5-2.2-147.2 23.7-147.5 60.8-.2 22 5.8 78.8 15.3 206.2s9.5 142.2 14.8 148S149.6 512 216.3 512s109.8-27.2 114.1-34.1c2-3.3 7.8-75.8 14.8-157 7.7-88.3 16.6-185.9 16.9-190.9 1-14.8-14.3-66.6-137.5-70.3" style="fill:#a6cfd6"/><path d="M124.1 177.2c-.5 2.6 5.2 102.3 9.8 118.3 8.4 29.3 39.4 31.3 43.3 17.6 3.8-13-1.6-124.1-1.6-124.1s-15.5-1.3-27.2-3.6c-13.2-2.6-24.3-8.2-24.3-8.2" style="fill:#dcedf6"/><path d="M91.7 123.5c-1.1 37.4 84.8 52 127.9 51.8 57.4-.4 124.9-18.2 126.2-49.6s-60.1-51-128.7-51c-58.2 0-124.5 17.3-125.4 48.8" style="fill:#6ca4ae"/><path d="M308.2 40.8c-2.5 2.7-41 130.2-41 130.2s8.5-1.4 16.9-3.3c11.1-2.6 15.9-4.5 15.9-4.5s30.5-94 32.4-97.8 91.5-32.2 94.5-33.6 5.9-1.7 6.2-3.3S423.2 0 420 0c-3.3 0-106.6 35.1-111.8 40.8" style="fill:#dc0d27"/><path d="M417 18.3c4.4 11.6 11.9 13.1 15 11.7 1.9-.8 5.3-7.8 0-18.9-4.2-8.9-9.2-11.6-12.4-11.1-3.1.6-6.2 8.8-2.6 18.3M338.2 63c-.9 0-1.9-.5-2.5-1.3l-16.9-24.4c-.9-1.4-.6-3.2.8-4.1s3.2-.6 4.1.8l16.9 24.4c.9 1.4.6 3.2-.8 4.1-.4.3-1 .5-1.6.5m-7 4.6c-.8 0-1.5-.3-2.1-.8l-22.3-21.7c-1.2-1.1-1.2-3 0-4.2 1.1-1.2 3-1.2 4.2 0l22.3 21.7c1.2 1.1 1.2 3 0 4.2-.6.5-1.4.8-2.1.8m-4 7.6c-.5 0-1.1-.1-1.5-.4L302 60.4c-1.4-.8-1.9-2.7-1-4.1.8-1.4 2.7-1.9 4.1-1l23.7 14.4c1.4.8 1.9 2.7 1 4.1-.6.9-1.5 1.4-2.6 1.4" style="fill:#8a1f0f"/></svg>