<svg xmlns="http://www.w3.org/2000/svg" xml:space="preserve" viewBox="0 0 512 512"><path d="M172.8 454h320.6v28.5C459.1 502.1 409.7 512 345 512c-69.7 0-127.1-19.4-172.2-58m109.3-94.1c-.3-.3-.6-.7-.9-1H106.4c10.7 29.6 27.5 56.5 49.4 79.1h337.6v-76.5c-36.2 23.6-73.2 35.4-110.9 35.4-42.6-.1-76.1-12.4-100.4-37m-36.4-96.4H91.5v4.4c-.2 25.3 3.1 50.5 9.7 74.9h167.1c-14.3-21.4-21.8-47.8-22.6-79.3M92 247.5h153.9c1.5-31.6 9.9-58 25.1-79.3H106.2c-8.2 25.7-13 52.3-14.2 79.3m20-95.3H18.5c12-29.9 30.1-56.9 53.3-79.3h421.6v77.7c-30.5-23.1-67.8-35.6-106.1-35.4-12.5-.1-24.9 1.1-37.2 3.5-11.9 2.4-23.3 6.2-34.2 11.6h.1c-11.4 5.6-21.8 13-30.9 21.8H112zM493.4 22.9C467.5 7.6 425.5 0 367.6 0c-74.7 0-136.1 19-184 57h309.8z" style="fill:#80b441"/></svg>