<?xml version="1.0" encoding="utf-8"?>
<!-- Generator: Adobe Illustrator 28.2.0, SVG Export Plug-In . SVG Version: 6.00 Build 0)  -->
<svg version="1.1" id="Layer_1" xmlns="http://www.w3.org/2000/svg" xmlns:xlink="http://www.w3.org/1999/xlink" x="0px" y="0px"
	 viewBox="0 0 512 512" style="enable-background:new 0 0 512 512;" xml:space="preserve">
<style type="text/css">
	.st0{fill:#DEDDDA;}
	.st1{fill:#C0BFBC;}
	.st2{fill:url(#SVGID_1_);}
	.st3{fill:#F6F5F4;}
	.st4{fill:url(#SVGID_00000080922831196671841900000013202445689500614325_);}
</style>
<path class="st0" d="M30.7,67.3h191.6l112,115.4v282c0,17-10.7,31.8-27.6,31.8h-276c-17,0-30.7-13.7-30.7-30.7v-368
	C0,81,13.7,67.3,30.7,67.3z"/>
<path class="st1" d="M52.2,417.7h114.9v20.9H52.2V417.7z M52.2,375.9h250.7v20.9H52.2V375.9z M52.2,334.1h250.7V355H52.2V334.1z
	 M52.2,114.7h114.9v20.9H52.2V114.7z M52.2,156.5h125.3v20.9H52.2V156.5z M52.2,292.4h125.3v20.9H52.2V292.4z"/>
<linearGradient id="SVGID_1_" gradientUnits="userSpaceOnUse" x1="52.2142" y1="476.3243" x2="156.6624" y2="549.438" gradientTransform="matrix(1 0 0 1 0 -278)">
	<stop  offset="0" style="stop-color:#9141AC"/>
	<stop  offset="1" style="stop-color:#1C71D8"/>
</linearGradient>
<path class="st2" d="M52.2,198.3h104.4v73.1H52.2V198.3z"/>
<path class="st3" d="M396.9,15.5H205.3c-17,0-27.7,14.4-27.7,31.3V449h31.3V281.8h31.4v125.3h31.3V281.8h31.3v62.7h31.3v-62.7h26.2
	V449h31.3V281.8h26.2V449v31.3h31.3V449V281.8h31.3V449h31.3V281.8l0.2-151.7L396.9,15.5z"/>
<path class="st0" d="M396.9,15.5v84.3c0,17,13.9,30.4,30.8,30.4H512L396.9,15.5z"/>
<path class="st1" d="M219.4,52.1h114.9V73H219.4V52.1z M219.4,93.9h135.7v20.9H219.4V93.9z M344.7,187.8h125.3v20.9H344.7V187.8z
	 M344.7,146.1h83.5V167h-83.5V146.1z M219.4,229.6h250.7v20.9H219.4V229.6z M417.9,459.4h31.3v20.9h-31.3V459.4z M480.5,428.1h31.3
	V449h-31.3V428.1z M360.4,428.1h31.3V449h-31.3V428.1z M302.9,323.7h31.3v20.9h-31.3V323.7z M240.3,386.3h31.3v20.9h-31.3V386.3z
	 M177.6,428.1h31.3V449h-31.3V428.1z"/>
<linearGradient id="SVGID_00000029730547506698419540000004774576559409809322_" gradientUnits="userSpaceOnUse" x1="219.3786" y1="413.5983" x2="323.8268" y2="486.712" gradientTransform="matrix(1 0 0 1 0 -278)">
	<stop  offset="0" style="stop-color:#C061CB"/>
	<stop  offset="1" style="stop-color:#3584E4"/>
</linearGradient>
<path style="fill:url(#SVGID_00000029730547506698419540000004774576559409809322_);" d="M219.4,135.6h104.4v73.1H219.4V135.6z"/>
</svg>
