<svg xmlns="http://www.w3.org/2000/svg" xml:space="preserve" id="czkawka_svg__Layer_1" x="0" y="0" version="1.1" viewBox="0 0 512 512"><style>.czkawka_svg__st0{fill:#deddda}.czkawka_svg__st1{fill:#c0bfbc}</style><path d="M30.7 67.3h191.6l112 115.4v282c0 17-10.7 31.8-27.6 31.8h-276c-17 0-30.7-13.7-30.7-30.7v-368C0 81 13.7 67.3 30.7 67.3" class="czkawka_svg__st0"/><path d="M52.2 417.7h114.9v20.9H52.2zm0-41.8h250.7v20.9H52.2zm0-41.8h250.7V355H52.2zm0-219.4h114.9v20.9H52.2zm0 41.8h125.3v20.9H52.2zm0 135.9h125.3v20.9H52.2z" class="czkawka_svg__st1"/><linearGradient id="czkawka_svg__SVGID_1_" x1="52.214" x2="156.662" y1="476.324" y2="549.438" gradientTransform="translate(0 -278)" gradientUnits="userSpaceOnUse"><stop offset="0" style="stop-color:#9141ac"/><stop offset="1" style="stop-color:#1c71d8"/></linearGradient><path d="M52.2 198.3h104.4v73.1H52.2z" style="fill:url(#czkawka_svg__SVGID_1_)"/><path d="M396.9 15.5H205.3c-17 0-27.7 14.4-27.7 31.3V449h31.3V281.8h31.4v125.3h31.3V281.8h31.3v62.7h31.3v-62.7h26.2V449h31.3V281.8h26.2v198.5h31.3V281.8h31.3V449h31.3V281.8l.2-151.7z" style="fill:#f6f5f4"/><path d="M396.9 15.5v84.3c0 17 13.9 30.4 30.8 30.4H512z" class="czkawka_svg__st0"/><path d="M219.4 52.1h114.9V73H219.4zm0 41.8h135.7v20.9H219.4zm125.3 93.9H470v20.9H344.7zm0-41.7h83.5V167h-83.5zm-125.3 83.5h250.7v20.9H219.4zm198.5 229.8h31.3v20.9h-31.3zm62.6-31.3h31.3V449h-31.3zm-120.1 0h31.3V449h-31.3zm-57.5-104.4h31.3v20.9h-31.3zm-62.6 62.6h31.3v20.9h-31.3zm-62.7 41.8h31.3V449h-31.3z" class="czkawka_svg__st1"/><linearGradient id="czkawka_svg__SVGID_00000029730547506698419540000004774576559409809322_" x1="219.379" x2="323.827" y1="413.598" y2="486.712" gradientTransform="translate(0 -278)" gradientUnits="userSpaceOnUse"><stop offset="0" style="stop-color:#c061cb"/><stop offset="1" style="stop-color:#3584e4"/></linearGradient><path d="M219.4 135.6h104.4v73.1H219.4z" style="fill:url(#czkawka_svg__SVGID_00000029730547506698419540000004774576559409809322_)"/></svg>