<svg xmlns="http://www.w3.org/2000/svg" xml:space="preserve" viewBox="0 0 512 512"><path d="M455.7 454.4c-15.9 25.9-80.6 14-129.5-5.5-39-15.6-66.7-35.9-52.6-47.9 1.6-1.4 5.9-3.4 8.1-3.4 33.7.4 60.4-6.5 82.5-20.8 6.1-3.9 13.7-4.3 20.2-1.1 42.9 21.9 83.5 58.7 71.3 78.7m-221.6-36.5c18.2 25.6 13.2 55.1-5.7 75.9-26 28.7-81.1 22.4-98.9-10.3-17.7-32.5 4.3-90.6 28.8-104 29.6-16.4 50.6 3.1 75.8 38.4M447 5c-11.8-9.6-32-3.6-45.9 4.2-29.9 16.7-59.5 34.2-88 53.3-32.5 21.9-60.6 23.2-99.1 5.8l-69.8-32.6C117.8 24.2 80-.2 61.3 16.2c-19.2 16.5 5 58 16.2 85.7 15.9 39.1 40.1 74.1 39.3 119.8-1.7 97.7 49.5 151.4 148.3 160.4 80.9 7.5 154.9-67.7 149-159.3-2.9-44.6 6.9-83.9 20.4-124.2 5.7-16.9 11.5-33.8 16.2-51 4-14.5 6.7-34.1-3.7-42.6M276.5 299.2c-19.7 15.3-54 3.9-76.8-25.4-22.7-29.3-25.2-65.5-5.5-80.8 19.7-15.2 54-3.9 76.8 25.4 22.7 29.3 25.2 65.5 5.5 80.8m126.7-62.1c-5 30.3-20.1 53-33.8 50.8-13.7-2.3-20.7-28.6-15.6-58.9 5-30.2 20.1-52.9 33.8-50.7 13.6 2.2 20.6 28.5 15.6 58.8" style="fill:#fff"/></svg>