<?xml version="1.0" encoding="utf-8"?>
<!-- Generator: Adobe Illustrator 28.2.0, SVG Export Plug-In . SVG Version: 6.00 Build 0)  -->
<svg version="1.1" id="Layer_1" xmlns="http://www.w3.org/2000/svg" xmlns:xlink="http://www.w3.org/1999/xlink" x="0px" y="0px"
	 viewBox="0 0 512 512" style="enable-background:new 0 0 512 512;" xml:space="preserve">
<path d="M252.2,0C131.7,0,25.7,87.8,4.2,197.3c-0.1,1.1-0.3,2.2-0.5,3.5c-18.2,103.4,56.4,154.3,129,154.3
	c69.9,0,97.6-36.2,112.7-69.6c14.5-32.2,21.4-62.3,55.9-62.3c19.7,0,33.5,13,33.5,32.8c0,12.8-2.7,25.4-7.8,37.1
	c-0.3,0.6-0.6,1.2-0.9,1.7c-15.5,41.7-71,115.6-167.5,115.6c-27.5,0-61.9-7.8-86-21.6c-3.2-1.6-6.7-2.4-10.3-2.6
	c-2.7-0.1-5.5,0.4-8,1.4c-2.6,1-4.9,2.5-6.8,4.5c-1.9,1.9-3.5,4.3-4.5,6.8c-1,2.6-1.5,5.3-1.3,8c0.1,3.5,1.1,6.9,2.9,10
	c1.8,3,4.4,5.5,7.4,7.3c31.8,18.2,69.7,27.6,108.4,27.6c96.3,0,184.1-65.5,209.9-162c1.7-6.9,2.4-14.8,3.8-20.7
	c0.8-3.2,2.6-6,5.1-8.1c2.6-2.1,5.7-3.2,9-3.3c3.5,0,6.9,1.4,9.4,3.8c2.5,2.4,4,5.7,4.2,9.2c0,7.4-1.9,18.3-6.1,33.5
	c-10.2,48.1-79.9,157.1-205.1,166.6c-5.3,0.4-10.2,2.7-13.8,6.5c-4,3.7-6.1,8.7-6.3,13.9c0,2.9,0.6,5.7,1.8,8.3
	c1.1,2.6,2.8,5,4.9,6.9c2.1,1.9,4.6,3.4,7.3,4.4c2.7,0.9,5.6,1.3,8.4,1.1c108.4-7.8,208-76.3,240.7-196.1c1-4.3,0,1.2-1.5,5.7H432
	c3.1-10.2,6.2-26.4,7.7-32.5c0.7-3.2,2.5-6,5-8.1c2.6-2.1,5.7-3.2,9-3.3c3.5,0,6.9,1.4,9.4,3.8c2.5,2.4,4,5.7,4.2,9.2
	c0,6.7-1.6,16.4-5.3,29.7c-6,31.1-38.2,91.3-82.4,127.8c-2.5,2.1-4.5,4.7-5.8,7.7s-2,6.2-1.9,9.5c0,2.7,0.6,5.3,1.7,7.7
	c1.1,2.4,2.6,4.6,4.5,6.5c1.9,1.8,4.2,3.3,6.7,4.3s5.1,1.4,7.8,1.4c4.3,0,11.2-2.6,19.8-10.3c34.3-31,99.8-118.1,99.8-213.8
	C512,120.9,403.6,0,252.2,0z M60.8,270.6c-11.2,0-20.2-9-20.2-20.2c0-11.2,9-20.2,20.2-20.2s20.2,9,20.2,20.2
	C81,261.6,72,270.6,60.8,270.6z M101.2,311C90,311,81,302,81,290.8s9-20.2,20.2-20.2s20.2,9,20.2,20.2S112.4,311,101.2,311z
	 M101.2,230.2C90,230.2,81,221.1,81,210c0-11.2,9-20.2,20.2-20.2s20.2,9,20.2,20.2S112.4,230.2,101.2,230.2z M357.7,176
	c-7.9-4.9-16.3-8.6-25.2-11.1c4.7-6.4,7-14.1,6.6-22c-0.4-7.9-3.5-15.4-8.8-21.3c-5.3-5.9-12.4-9.7-20.2-11
	c-7.8-1.2-15.8,0.3-22.6,4.3l14.1,23.3l-26.5-11.5c-3.6,5.8-5.4,12.5-5.2,19.3s2.4,13.4,6.4,18.9c1.6-0.4,3.2-0.8,4.8-1.1
	c-7.5,1.7-14.8,4.2-21.8,7.5c-10.6-12.4-16.3-28.3-16.2-44.6c0-30.2,18.5-54.7,48-54.7c38,0,69.2,36.7,69.2,77.6
	C360.2,158.5,359.3,167.3,357.7,176z M283.5,163.2c-0.1,0-0.2,0.1-0.4,0.1C283.3,163.3,283.4,163.3,283.5,163.2z"/>
</svg>
