<svg xmlns="http://www.w3.org/2000/svg" xml:space="preserve" viewBox="0 0 512 512"><path d="M251.6 0C131.2 0 25.2 87.8 3.6 197.3c-.1 1.1-.3 2.2-.5 3.5-18.2 103.4 56.4 154.3 129 154.3 69.9 0 97.6-36.2 112.7-69.6 14.5-32.2 21.4-62.3 55.9-62.3 19.7 0 33.5 13 33.5 32.8 0 12.8-2.7 25.4-7.8 37.1-.3.6-.6 1.2-.9 1.7-15.5 41.7-71 115.6-167.5 115.6-27.5 0-61.9-7.8-86-21.6-3.2-1.6-6.7-2.4-10.3-2.6-2.7-.1-5.5.4-8 1.4-2.6 1-4.9 2.5-6.8 4.5-1.9 1.9-3.5 4.3-4.5 6.8-1 2.6-1.5 5.3-1.3 8 .1 3.5 1.1 6.9 2.9 10 1.8 3 4.4 5.5 7.4 7.3 31.8 18.2 69.7 27.6 108.4 27.6 96.3 0 184.1-65.5 209.9-162 1.7-6.9 2.4-14.8 3.8-20.7.8-3.2 2.6-6 5.1-8.1 2.6-2.1 5.7-3.2 9-3.3 3.5 0 6.9 1.4 9.4 3.8s4 5.7 4.2 9.2c0 7.4-1.9 18.3-6.1 33.5-10.2 48.1-79.9 157.1-205.1 166.6-5.3.4-10.2 2.7-13.8 6.5-4 3.7-6.1 8.7-6.3 13.9 0 2.9.6 5.7 1.8 8.3 1.1 2.6 2.8 5 4.9 6.9s4.6 3.4 7.3 4.4c2.7.9 5.6 1.3 8.4 1.1 108.4-7.8 208-76.3 240.7-196.1 1-4.3 0 1.2-1.5 5.7h-.1c3.1-10.2 6.2-26.4 7.7-32.5.7-3.2 2.5-6 5-8.1 2.6-2.1 5.7-3.2 9-3.3 3.5 0 6.9 1.4 9.4 3.8s4 5.7 4.2 9.2c0 6.7-1.6 16.4-5.3 29.7-6 31.1-38.2 91.3-82.4 127.8-2.5 2.1-4.5 4.7-5.8 7.7s-2 6.2-1.9 9.5c0 2.7.6 5.3 1.7 7.7s2.6 4.6 4.5 6.5c1.9 1.8 4.2 3.3 6.7 4.3s5.1 1.4 7.8 1.4c4.3 0 11.2-2.6 19.8-10.3 34.3-31 99.8-118.1 99.8-213.8C511.4 120.9 403 0 251.6 0M60.2 270.6c-11.2 0-20.2-9-20.2-20.2s9-20.2 20.2-20.2 20.2 9 20.2 20.2-9 20.2-20.2 20.2m40.4 40.4c-11.2 0-20.2-9-20.2-20.2s9-20.2 20.2-20.2 20.2 9 20.2 20.2-9 20.2-20.2 20.2m0-80.8c-11.2 0-20.2-9.1-20.2-20.2 0-11.2 9-20.2 20.2-20.2s20.2 9 20.2 20.2-9 20.2-20.2 20.2M357.1 176q-11.85-7.35-25.2-11.1c4.7-6.4 7-14.1 6.6-22s-3.5-15.4-8.8-21.3-12.4-9.7-20.2-11c-7.8-1.2-15.8.3-22.6 4.3l14.1 23.3-26.5-11.5c-3.6 5.8-5.4 12.5-5.2 19.3s2.4 13.4 6.4 18.9c1.6-.4 3.2-.8 4.8-1.1-7.5 1.7-14.8 4.2-21.8 7.5-10.6-12.4-16.3-28.3-16.2-44.6 0-30.2 18.5-54.7 48-54.7 38 0 69.2 36.7 69.2 77.6-.1 8.9-1 17.7-2.6 26.4M283 163.3c-.1 0-.2.1-.4.1.1-.1.3-.1.4-.1" style="fill:#fff"/></svg>