<svg xmlns="http://www.w3.org/2000/svg" xml:space="preserve" viewBox="0 0 512 512"><path d="M300.2 107.4v1.3c.6-.2 1.3-.4 1.9-.6 11.9 4.9 22.4 14 31.8 22.7.6.6.6.6 1.3 1.2 10.6 10.1 18.3 23.2 24.8 36.1 3.9 7.7 7.7 15.1 13.4 21.7.4.5.8 1.1 1.3 1.6 7.1 8.4 18.1 11.9 28.2 15.3 3.1 1 6.1 2.1 9.2 3.2 2 .7 4 1.3 6.1 1.9 1.8.6 3.5 1.1 5.3 1.7.5.2 1 .3 1.6.5 1.7.6 3.4 1.1 5.1 1.7l1.8.6c9.6 3.1 19.1 6.4 28.6 9.9l6.3 2.1c2 .7 3.9 1.4 5.9 2.2.7.3 1.5.6 2.2.9.5.2 1.1.4 1.6.6v1.3c.6-.2 1.3-.4 1.9-.6 1.3.4 1.3.4 2.8 1.1.5.2 1.1.5 1.7.7.6.3 1.2.5 1.7.8.6.3 1.2.5 1.8.8 4 1.9 7.8 3.8 11.5 6.3.6.4 1.3.8 1.9 1.2 5.9 4.3 10.8 8.6 12 16-1.2 7.3-5.2 11.9-10.1 17.2-.4.5-.9.9-1.3 1.4-23.1 24.3-59.1 39.4-90.1 49.8-16.7 5.9-28.8 14-40 28-2 2.5-4.2 4.9-6.4 7.3-2.6 2.8-5.1 5.6-7.4 8.6-19.1 23.5-51.3 39.3-81 42.6-40.3 4-80.1-5.4-111.8-30.9-2.4-2-4.7-4-7-6.2-10.9-10-20.6-15-35.6-16.7l-4.5-.6c-.8-.1-1.5-.2-2.3-.3C25.6 349 25.6 349 5.2 326.5c-.6-.6-.6-.6-1.2-1.3-2.6-3.1-3.9-6.3-4-10.4 1.1-10.4 8.6-18.6 16.4-25 1.2-1 2.5-1.9 3.7-2.9.7-.5 1.3-1 2-1.6C35.7 274.5 51 266 66.2 257.7c38.3-20.9 61.2-48.2 79.3-87.9 5.7-12.5 12.6-23.4 21.7-33.7.8-.9 1.6-1.8 2.3-2.7 3.5-4 7.3-7.3 11.5-10.6.5-.4 1-.8 1.5-1.3 14.8-12.5 34-20.3 53-23.4.5-.1 1-.2 1.5-.2 20.3-3 44.7-.2 63.2 9.5m-79.8 69.1c-2.7 3.7-4.7 7.7-6.4 12-.3.7-.3.7-.6 1.5-3.7 10.6-2.1 22.2 2.6 32.2 5.5 10.4 14.2 17 25.3 20.8 10.9 3.1 22.3 1.5 32.4-3.2 2.3-1.4 4.4-2.9 6.5-4.5.5-.4.9-.7 1.4-1.1 3.5-2.8 6-6.1 8.3-10 .3-.4.5-.8.8-1.2 5-8.9 5.8-20.2 3.7-30.1-3.4-11.5-10.7-20.9-20.9-27-18.7-10.1-39.6-5.6-53.1 10.6" style="fill:#131314"/></svg>