<svg xmlns="http://www.w3.org/2000/svg" xml:space="preserve" viewBox="0 0 512 512"><path d="M414.6 375.2c4.5-8.6 9.2-16.5 12.9-24.9 9-20.6 11.6-42.2 8.5-64.5-3.5-25.4-14.1-47.7-31.4-66.5-17.5-18.9-38.9-31.7-64.3-36.7-40.2-8-77.3 0-107.5 28.2-35 32.6-68.3 67-102.1 100.9-11.6 11.7-22.7 24-33.4 36.6-4.5 5.3-7.5 12-11.3 18.3-13-5.3-24.9-12.6-35.6-21.6C22 321.3 5.4 290.6 1 254c-3.1-26 .5-51.5 12.2-75.4 21.5-44 56.6-70 104.4-78.9 5.5-1 11.2-1.3 16.8-1.3 3.6 0 5.6-1.2 7.1-4.5 8-18 19.2-33.8 33.5-47.3 23.4-22.1 51.1-35.7 83-40 42.8-5.8 81.6 4.5 115.5 31.2 30.3 23.9 48.5 55.5 55 93.6.8 4.6 1.3 9.3 1.7 14 .3 3.3 1.7 4.9 5 6.1 25.6 9.5 45.9 25.6 60 49.1 9.8 16.3 15.5 33.9 16.5 53 2 36.5-10.4 67.3-36.7 92.5-16.4 15.7-36.2 25.2-58.5 29.5-.4 0-.9-.2-1.9-.4" style="fill:#8fbef9"/><path d="M341.2 401.8c-9.9-10-20.7-20.7-32.1-32.2 8.2-8 16.7-15.9 24.5-24.3 6.2-6.6 12.7-13.2 17.1-20.9 9.7-16.8 4.6-40.2-10.3-52.4-17.1-14-39.8-15.2-55.6-1.5-12.2 10.6-23.3 22.4-34.8 33.8-1 1-1.8 2.3-2.6 3.4-11.5-11.4-22.4-22.3-31.8-31.7 12.9-13.7 24.6-29 39.1-41 52.7-43.8 133.8-13.7 146 53.7 5.2 28.5-1.6 54.4-21.2 76-11.9 13.1-25.5 24.7-38.3 37.1m-207-47.1c-26.5 28.7-31.8 67.6-14.6 102.7 18.1 36.9 62 57.1 101.9 47.1 15.1-3.8 28.7-10.5 39.9-21.3 12.3-12 24.1-24.5 36.1-36.7l-33.3-33.3c-11.7 12.3-23 25.2-35.5 36.7-12.9 11.8-28.6 14.1-44.8 7.4-15.6-6.4-25-18.5-27.1-35.4-1.8-14.9 3.2-27.5 13.8-38 10.8-10.7 21.7-21.4 32.3-31.9-11.3-11.3-22-22.1-32.8-32.9-12 11.8-24.5 23.2-35.9 35.6m72.7 23.2c10.6 10.6 21.4 21.4 31.7 31.8 21.7-21.7 43.9-43.7 65.8-65.6-10.4-10.5-21-21.2-31.8-32-22.3 22.3-44.3 44.3-65.7 65.8" style="fill:#2a5ac5"/></svg>