<svg xmlns="http://www.w3.org/2000/svg" xml:space="preserve" viewBox="0 0 512 512"><linearGradient id="databasement-light_svg__a" x1="256" x2="256" y1="506.703" y2="5.298" gradientUnits="userSpaceOnUse"><stop offset="0" style="stop-color:#fff"/><stop offset=".5" style="stop-color:#fff;stop-opacity:.75"/><stop offset="1" style="stop-color:#fff;stop-opacity:.5"/></linearGradient><path d="M503.2 146.5 256 5.3 8.8 146.5V196l30.9 17.6-30.9 17.7v49.4l30.9 17.7L8.8 316v49.5L256 506.7l247.2-141.2V316l-30.9-17.6 30.9-17.7v-49.4l-30.9-17.7 30.9-17.6z" style="fill:url(#databasement-light_svg__a)"/><path d="M508.5 196v-49.4c0-1.9-1-3.7-2.7-4.6L258.6.7c-1.6-.9-3.6-.9-5.3 0L6.2 141.9c-1.7.9-2.7 2.7-2.7 4.6V196c0 1.9 1 3.7 2.7 4.6l22.8 13-22.8 13.1c-1.7.9-2.7 2.7-2.7 4.6v49.4c0 1.9 1 3.7 2.7 4.6L29 298.4l-22.8 13c-1.7.9-2.7 2.7-2.7 4.6v49.4c0 1.9 1 3.7 2.7 4.6l247.2 141.2c.8.5 1.7.7 2.6.7s1.8-.2 2.6-.7L505.8 370c1.6-.9 2.7-2.7 2.7-4.6V316c0-1.9-1-3.7-2.7-4.6l-22.8-13 22.8-13.1c1.6-.9 2.7-2.7 2.7-4.6v-49.4c0-1.9-1-3.7-2.7-4.6L483 213.6l22.8-13.1c1.6-.9 2.7-2.6 2.7-4.5M256 11.4l236.5 135.1L256 281.7 19.5 146.5zm241.9 351L256 500.6 14.1 362.4v-37.2l239.2 136.7c.8.5 1.7.7 2.6.7s1.8-.2 2.6-.7l239.2-136.7v37.2zm-5.4-46.4L256 451.2 19.5 316l20.2-11.6 213.6 122.1c.8.5 1.7.7 2.6.7s1.8-.2 2.6-.7l213.6-122.1zm5.4-38.4L256 415.9 14.1 277.6v-37.2l239.2 136.7c.8.5 1.7.7 2.6.7s1.8-.2 2.6-.7l239.2-136.7v37.2zm-5.4-46.3L256 366.4 19.5 231.3l20.2-11.6 213.6 122.1c.8.5 1.7.7 2.6.7s1.8-.2 2.6-.7l213.6-122.1zm5.4-38.4L256 331.1 14.1 192.9v-37.2l239.2 136.7c.8.5 1.7.7 2.6.7s1.8-.2 2.6-.7l239.2-136.7v37.2z" style="fill:#fff"/></svg>