<svg xmlns="http://www.w3.org/2000/svg" xml:space="preserve" viewBox="0 0 512 512"><path d="M403.6 512H108.4C48.5 512 0 463.5 0 403.6V108.4C0 48.5 48.5 0 108.4 0h295.2C463.5 0 512 48.5 512 108.4v295.2c0 59.9-48.5 108.4-108.4 108.4" style="fill:#aab2ff"/><path d="M238.5 81.1c19.3 0 35 15.7 35 35s-15.7 35-35 35-35-15.7-35-35 15.6-35 35-35m122.4 70c19.3 0 35 15.7 35 35s-15.7 35-35 35-35-15.7-35-35 15.7-35 35-35m35 139.9c19.3 0 35 15.7 35 35s-15.7 35-35 35-35-15.7-35-35c0-19.4 15.6-35 35-35m-192.4-70c48.3 0 87.4 39.2 87.4 87.4v61.2c0 33.8-27.4 61.2-61.2 61.2-26.8 0-50.4-17.4-58.4-42.9-7.5-24.1-23.2-39.8-47.2-47.3-32.3-10.1-50.2-44.4-40.1-76.7 8-25.5 31.6-42.9 58.3-42.9z" style="fill:#fff;fill-opacity:.9"/><path d="M238.5 170.3c-29.9 0-54.2-24.3-54.2-54.2s24.3-54.2 54.2-54.2 54.2 24.3 54.2 54.2-24.3 54.2-54.2 54.2m0-69.9c-8.7 0-15.7 7.1-15.7 15.7s7.1 15.7 15.7 15.7c8.7 0 15.7-7.1 15.7-15.7s-7.1-15.7-15.7-15.7m122.4 139.9c-29.9 0-54.2-24.3-54.2-54.2s24.3-54.2 54.2-54.2 54.2 24.3 54.2 54.2-24.3 54.2-54.2 54.2m0-70c-8.7 0-15.7 7.1-15.7 15.7 0 8.7 7.1 15.7 15.7 15.7s15.7-7.1 15.7-15.7-7-15.7-15.7-15.7m35 209.9c-29.9 0-54.2-24.3-54.2-54.2s24.3-54.2 54.2-54.2 54.2 24.3 54.2 54.2-24.3 54.2-54.2 54.2m0-70c-8.7 0-15.7 7.1-15.7 15.7s7.1 15.7 15.7 15.7 15.7-7.1 15.7-15.7-7.1-15.7-15.7-15.7M229.7 450.1c-35.4 0-66.2-22.7-76.8-56.4-5.6-18.1-16.6-29.1-34.6-34.7-42.4-13.3-66-58.5-52.8-100.8 10.5-33.7 41.3-56.3 76.6-56.4h61.2c58.8 0 106.7 47.9 106.7 106.7v61.2c0 21.5-8.4 41.7-23.6 56.9-15 15.2-35.2 23.5-56.7 23.5m-87.4-209.8c-18.4 0-34.4 11.9-39.9 29.4-6.9 22.1 5.4 45.7 27.5 52.6 29.9 9.3 50.6 30 59.8 60 5.5 17.5 21.6 29.4 40 29.4 11.2 0 21.7-4.4 29.7-12.3 7.9-7.9 12.3-18.5 12.3-29.7v-61.2c0-37.6-30.6-68.2-68.2-68.2z" style="fill:#222"/></svg>