<svg xmlns="http://www.w3.org/2000/svg" xml:space="preserve" viewBox="0 0 512 512"><linearGradient id="databasement_svg__a" x1="-689.514" x2="-689.514" y1="786.73" y2="779.668" gradientTransform="matrix(70 0 0 -40 48522 31644)" gradientUnits="userSpaceOnUse"><stop offset="0" style="stop-color:#045"/><stop offset=".5" style="stop-color:#4c1d95"/><stop offset="1" style="stop-color:#080812"/></linearGradient><path d="M256 174.8 8.8 316 256 457.3 503.2 316z" style="fill:url(#databasement_svg__a)"/><linearGradient id="databasement_svg__b" x1="-679.56" x2="-679.56" y1="777.295" y2="770.233" gradientTransform="matrix(35 0 0 -27 23917 21303)" gradientUnits="userSpaceOnUse"><stop offset="0" style="stop-color:#003040"/><stop offset=".5" style="stop-color:#2e1065"/><stop offset="1" style="stop-color:#05050a"/></linearGradient><path d="M8.8 316v49.4L256 506.7v-49.4z" style="fill:url(#databasement_svg__b)"/><linearGradient id="databasement_svg__c" x1="-673.498" x2="-673.498" y1="777.295" y2="770.233" gradientTransform="matrix(35 0 0 -27 23952 21303)" gradientUnits="userSpaceOnUse"><stop offset="0" style="stop-color:#002530"/><stop offset=".5" style="stop-color:#1e0a50"/><stop offset="1" style="stop-color:#030308"/></linearGradient><path d="M503.2 316v49.4L256 506.7v-49.4z" style="fill:url(#databasement_svg__c)"/><linearGradient id="databasement_svg__d" x1="-689.514" x2="-689.514" y1="788.549" y2="781.487" gradientTransform="matrix(70 0 0 -40 48522 31632)" gradientUnits="userSpaceOnUse"><stop offset="0" style="stop-color:#007a99"/><stop offset=".5" style="stop-color:#6b21a8"/><stop offset="1" style="stop-color:#0f0f1a"/></linearGradient><path d="M256 90 8.8 231.3 256 372.5l247.2-141.2z" style="fill:url(#databasement_svg__d)"/><linearGradient id="databasement_svg__e" x1="-679.56" x2="-679.56" y1="779.99" y2="772.927" gradientTransform="matrix(35 0 0 -27 23917 21291)" gradientUnits="userSpaceOnUse"><stop offset="0" style="stop-color:#005c73"/><stop offset=".5" style="stop-color:#4c1d95"/><stop offset="1" style="stop-color:#0a0a14"/></linearGradient><path d="M8.8 231.3v49.4L256 422v-49.4z" style="fill:url(#databasement_svg__e)"/><linearGradient id="databasement_svg__f" x1="-673.498" x2="-673.498" y1="779.99" y2="772.927" gradientTransform="matrix(35 0 0 -27 23952 21291)" gradientUnits="userSpaceOnUse"><stop offset="0" style="stop-color:#004d60"/><stop offset=".5" style="stop-color:#3b1580"/><stop offset="1" style="stop-color:#08080f"/></linearGradient><path d="M503.2 231.3v49.4L256 422v-49.4z" style="fill:url(#databasement_svg__f)"/><linearGradient id="databasement_svg__g" x1="-689.514" x2="-689.514" y1="790.368" y2="783.306" gradientTransform="matrix(70 0 0 -40 48522 31620)" gradientUnits="userSpaceOnUse"><stop offset="0" style="stop-color:#00d4ff"/><stop offset=".5" style="stop-color:#a855f7"/><stop offset="1" style="stop-color:#1a1a2e"/></linearGradient><path d="M256 5.3 8.8 146.5 256 287.8l247.2-141.2z" style="fill:url(#databasement_svg__g)"/><linearGradient id="databasement_svg__h" x1="-679.56" x2="-679.56" y1="782.684" y2="775.622" gradientTransform="matrix(35 0 0 -27 23917 21279)" gradientUnits="userSpaceOnUse"><stop offset="0" style="stop-color:#00a8cc"/><stop offset=".5" style="stop-color:#7c3aed"/><stop offset="1" style="stop-color:#15152a"/></linearGradient><path d="M8.8 146.5V196L256 337.2v-49.4z" style="fill:url(#databasement_svg__h)"/><linearGradient id="databasement_svg__i" x1="-673.498" x2="-673.498" y1="782.684" y2="775.622" gradientTransform="matrix(35 0 0 -27 23952 21279)" gradientUnits="userSpaceOnUse"><stop offset="0" style="stop-color:#0090b0"/><stop offset=".5" style="stop-color:#6d28d9"/><stop offset="1" style="stop-color:#0f0f1a"/></linearGradient><path d="M503.2 146.5V196L256 337.2v-49.4z" style="fill:url(#databasement_svg__i)"/><path d="M508.5 196v-49.4c0-1.9-1-3.7-2.7-4.6L258.6.7c-1.6-.9-3.6-.9-5.3 0L6.2 141.9c-1.7.9-2.7 2.7-2.7 4.6V196c0 1.9 1 3.7 2.7 4.6l22.8 13-22.8 13.1c-1.7.9-2.7 2.7-2.7 4.6v49.4c0 1.9 1 3.7 2.7 4.6L29 298.4l-22.8 13c-1.7.9-2.7 2.7-2.7 4.6v49.4c0 1.9 1 3.7 2.7 4.6l247.2 141.2c.8.5 1.7.7 2.6.7s1.8-.2 2.6-.7L505.8 370c1.6-.9 2.7-2.7 2.7-4.6V316c0-1.9-1-3.7-2.7-4.6l-22.8-13 22.8-13.1c1.6-.9 2.7-2.7 2.7-4.6v-49.4c0-1.9-1-3.7-2.7-4.6L483 213.6l22.8-13.1c1.6-.9 2.7-2.6 2.7-4.5M256 11.4l236.5 135.1L256 281.7 19.5 146.5zm241.9 351L256 500.6 14.1 362.4v-37.2l239.2 136.7c.8.5 1.7.7 2.6.7s1.8-.2 2.6-.7l239.2-136.7v37.2zm-5.4-46.4L256 451.2 19.5 316l20.2-11.6 213.6 122.1c.8.5 1.7.7 2.6.7s1.8-.2 2.6-.7l213.6-122.1zm5.4-38.4L256 415.9 14.1 277.6v-37.2l239.2 136.7c.8.5 1.7.7 2.6.7s1.8-.2 2.6-.7l239.2-136.7v37.2zm-5.4-46.3L256 366.4 19.5 231.3l20.2-11.6 213.6 122.1c.8.5 1.7.7 2.6.7s1.8-.2 2.6-.7l213.6-122.1zm5.4-38.4L256 331.1 14.1 192.9v-37.2l239.2 136.7c.8.5 1.7.7 2.6.7s1.8-.2 2.6-.7l239.2-136.7v37.2z" style="fill:#06b6d4"/></svg>