<svg xmlns="http://www.w3.org/2000/svg" xml:space="preserve" viewBox="0 0 512 512"><path d="m417.5 363.5-42.6-28.1-35.5 59.4-41.4-12.1-36.4 55.5 1.9 17.5 197.9-36.5-11.5-123.6zM233 310.2l31.7-4.4c5.1 2.3 8.7 3.2 14.9 4.8 9.6 2.5 20.7 4.9 37.1-3.4 3.8-1.9 11.8-9.2 15-13.3l130.1-23.6 13.3 160.6L252.3 471zm241.6-57.8-12.8 2.4L437.1 0 16.8 48.7l51.8 420.1 49.2-7.1c-3.9-5.6-10-12.4-20.5-21.1-14.5-12-9.4-32.5-.8-45.4 11.3-21.8 69.6-49.5 66.3-84.4-1.2-12.7-3.2-29.2-15-40.5-.4 4.7.4 9.2.4 9.2s-4.8-6.2-7.2-14.6c-2.4-3.2-4.3-4.3-6.8-8.6-1.8 5-1.6 10.8-1.6 10.8s-4-9.3-4.6-17.2c-2.3 3.5-2.9 10.2-2.9 10.2s-5.1-14.7-4-22.6c-2.3-6.9-9.3-20.6-7.3-51.7 12.8 9 41.1 6.9 52.1-9.4 3.7-5.4 6.2-20-1.8-48.9-5.1-18.5-17.8-46.1-22.8-56.6l-.6.4c2.6 8.4 8 26.1 10 34.7 6.2 26 7.9 35 5 47-2.5 10.4-8.5 17.2-23.6 24.8-15.2 7.6-35.3-11-36.5-12-14.7-11.7-26.1-30.9-27.4-40.2-1.3-10.2 5.9-16.3 9.5-24.6-5.2 1.5-11 4.1-11 4.1S73.5 98.2 82 92c3.5-2.3 5.6-3.8 9.3-6.9-5.4-.1-9.7.1-9.7.1s9-4.8 18.3-8.4c-6.8-.3-13.3 0-13.3 0s20-8.9 35.8-15.5c10.9-4.5 21.5-3.1 27.4 5.5 7.8 11.3 16 17.4 33.5 21.2 10.7-4.7 13.9-7.2 27.4-10.8 11.8-13 21.1-14.7 21.1-14.7s-4.6 4.2-5.8 10.9c6.7-5.3 14.1-9.7 14.1-9.7s-2.8 3.5-5.5 9.1l.6.9c7.8-4.7 17-8.4 17-8.4s-2.6 3.3-5.7 7.6c5.9 0 17.9.3 22.5.8 27.4.6 33.1-29.3 43.6-33 13.2-4.7 19.1-7.6 41.5 14.5 19.3 18.9 34.3 52.8 26.9 60.4-6.3 6.3-18.6-2.5-32.3-19.5-7.2-9-12.7-19.7-15.3-33.3-2.2-11.5-10.6-18.1-10.6-18.1s4.9 10.9 4.9 20.5c0 5.2.7 24.8 9.1 35.9-.8 1.6-1.2 8-2.1 9.2-9.8-11.8-30.8-20.3-34.2-22.8 11.6 9.5 38.2 31.3 48.5 52.2 9.7 19.8 4 37.9 8.9 42.6 1.4 1.3 20.8 25.5 24.6 37.7 6.5 21.2.4 43.5-8.1 57.3l-23.8 3.7c-3.5-1-5.8-1.5-9-3.3 1.7-3 5.1-10.7 5.2-12.2l-1.3-2.4c-7.4 10.5-19.8 20.7-30.2 26.6-13.5 7.7-29.1 6.5-39.2 3.3-28.8-8.9-56-28.3-62.5-33.4 0 0-.2 4.1 1 5 7.3 8.2 23.9 23 39.9 33.3l-34.2 3.8 16.2 126c-7.2 1-8.3 1.5-16.1 2.6-6.9-24.5-20.2-40.4-34.6-49.7-12.8-8.2-30.4-10.1-47.2-6.7L137 375c11.7-1.2 25.6.5 39.8 9.5 13.9 8.8 25.2 31.6 29.3 45.3 5.3 17.5 9 36.3-5.3 56.2-10.1 14.1-39.8 21.9-63.7 5 6.4 10.3 15 18.7 26.7 20.3 17.3 2.3 33.7-.7 44.9-12.2 9.6-9.9 14.7-30.6 13.4-52.4l15.2-2.2 5.5 39.1 252.3-30.4zM321.1 146.1c-.7 1.6-1.8 2.7-.1 7.9l.1.3.3.7.7 1.6c3 6.1 6.3 11.9 11.8 14.8 1.4-.2 2.9-.4 4.4-.5 5.2-.2 8.4.6 10.5 1.7.2-1 .2-2.5.1-4.8-.4-7.8 1.5-20.9-13.4-27.9-5.6-2.6-13.5-1.8-16.1 1.5q.75.15 1.2.3c3.9 1.4 1.2 2.7.5 4.4m41.8 72.3c-2-1.1-11.1-.7-17.5.1-12.2 1.4-25.4 5.7-28.3 7.9-5.3 4.1-2.9 11.2 1 14.1 10.9 8.1 20.5 13.6 30.5 12.3 6.2-.8 11.7-10.6 15.5-19.5 2.6-6.1 2.6-12.7-1.2-14.9m-108.3-62.7c3.4-3.3-17.2-7.6-33.2 3.3-11.8 8.1-12.2 25.3-.9 35.1 1.1 1 2.1 1.7 2.9 2.2q4.95-2.4 11.4-4.5c7.3-2.4 13.4-3.6 18.4-4.3 2.4-2.7 5.2-7.4 4.5-15.9-1-11.5-9.7-9.7-3.1-15.9" style="fill-rule:evenodd;clip-rule:evenodd;fill:#fff"/></svg>