<svg xmlns="http://www.w3.org/2000/svg" xml:space="preserve" viewBox="0 0 512 512"><path d="m415.2 325.2-3.3-3c-4.7-4.8-8.8-9.5-15.8-10.4-1.3 0-2.6-.1-3.9-.1v-2.6h3.9l2.6-2.6c1.5-8.7 1.5-8.7 1.5-42.5v-13.2c0-17.7-.3-35.4-1.3-53.1-.6-10.3-2.6-20.2 3.7-29 1.4-1.7 2.7-3.5 4-5.3 2.3-6.4 1.5-12.3-1.1-18.4-3.2-5.4-7.5-10.8-13.6-12.7-.8-.1-1.6-.3-2.3-.4v-5.3c-7.8-3.7-15.6-7.1-23.7-9.9-52.3-18-100.3-47.6-147-76.7 1.7-8.1 4.2-16.1.7-23.9-1.7-1.9-1.7-1.9-3.4-3.7-3.1-4-6-6.8-10.5-9.2-8.1-2-16.8-3.4-24.6.5-5.6 4.7-10.4 10.4-11.4 17.9 0 1.4 0 2.7.1 4 0 4 0 4 .4 7.9 2.8 8.5 7.7 17.9 15.8 22.3 6.4 1.2 11.6.5 17.4-2.5 3.8-2.2 7-3.5 11.5-4 1.1 4.3 1.8 7.2 5.2 10.1 1.2.6 2.3 1.3 3.5 1.9 2.3 1.2 4.5 2.5 6.8 3.6 1 .5 1.9 1 2.9 1.5 22.5 11.6 45.4 22.5 68.2 33.4 2.5 1.2 5 2.4 7.6 3.6 1.3.6 2.5 1.2 3.7 1.8 10.8 5.1 21.5 10.4 32.2 15.8 6.3 3.2 12.5 6.5 19.2 8.9l3 .9c-1.3 2-1.3 2-2.6 3.9-6.7 8.1-10.3 13.6-9.6 24.4 1 7.3 3 12.6 8.7 17.7l3.4 2.4c3.7 2.7 5.8 4.1 10.4 4.4 1-.1 1.9-.2 2.9-.3 0 2.1 0 4.3-.1 6.4v2.7c0 5.4 0 10.7.4 16.1 1.4 28.1 1.4 28.1 1.7 56.3.1 5 .1 10 .2 15 .2 10.7.3 21.5.4 32.2-3.9 0-3.9 0-7.9 2.6-5.9 5.9-8.3 11.7-8.6 19.9v2.8c0 3.5.2 6.6.7 10.1 2 3.5 3.3 4.9 6.8 6.9.8.3 1.6.7 2.4 1v2.6c-2.9 0-2.9 0-8.7 3.8-.9.6-1.7 1.1-2.5 1.7-9.9 6.6-19.5 13.6-29.1 20.5-10.3 7.5-20.6 15-31.2 22-11.3 7.5-22.4 15.3-33.4 23.4-1 .7-1.9 1.4-2.9 2.1-6.1 4.5-12.2 9-18.3 13.7l-2.7 2.1c-3.1 2.4-6.3 4.8-9.3 7.2l-3 2.4c-5.3 4-10.2 7-11.2 13.9v4h-6.6c-.7-2.8-.7-2.8-2.6-6.6-4.8-5-9.5-8.4-16.6-8.8-5 .4-8 1.9-11.7 5.5-1.9 2-1.9 2-4.3 3.8-5.4 4.3-9.9 8.5-12.1 15.2-1.1 7.7-.9 13.3 3.9 19.7 8.6 6.1 17.6 8.8 28 9.7 4.7-.7 6.7-2.5 10.1-5.8 7-8.4 10.3-15.3 9.5-26.2l-.3-2.7h3.9c2.4-2.6 2.4-2.6 4.8-4.2.9-.6 1.7-1.2 2.6-1.7 1-.7 2-1.3 3-2 13.1-8.8 25.7-18.1 38.2-27.8 5.1-3.9 10.2-7.8 15.3-11.6 5.3-4 10.7-7.9 15.9-12.1 22.6-18.4 47.9-33.5 73.9-46.7 3.6-1.8 7-3.6 10.5-5.6.4-1.3.9-2.6 1.3-3.9 5.5.6 10.8 1.1 15.9-1.3 4.7-3.6 7.1-7.3 9-12.8 2-7.9 3.6-16.3-.5-23.6M208 36.1c-3.1 4.3-5.7 7.3-10.1 10.3-3.8.6-3.8.6-7.9 0-5.1-4-8.3-8.3-10.5-14.4.1-7.4 2.2-12.5 6.6-18.4 4.8-1.6 8.4-1.7 13.1 0l4.8 1.6c4.4 2.3 4.4 2.3 6.4 5.3 1 5.9.7 10.4-2.4 15.6m-2.2 464.7c-4.5 3-6.5 2.8-11.6 2-6.3-1.6-11-4.4-14.6-9.9-.7-5-.2-7.5 2.1-12 6.2-7.5 10.5-10.3 19.9-7.6 4.8 2 7.4 3.7 10.8 7.7.2 7.2-2.7 13.9-6.6 19.8m173.3-327c-6.8-2.1-9.9-5.7-13.3-11.7-2.2-5.2-2-9.7-.1-15 2.4-3.4 4.9-4.7 8.9-5.7 5.4-.6 10.8-.6 16.3-.5.5 1.1.5 1.1 1.1 2.3.5 1 1 1.9 1.4 2.9.5 1 .9 1.9 1.4 2.9 1.1 2.4 1.1 2.4 2.6 3.7 0 7.8-2.7 12-8 17.6-3.4 3-5.7 3.8-10.3 3.5m25.8 175.5c-2.6 3.1-3.9 4.3-8 4.9-7.9-.6-13.6-2.6-18.9-8.5-2.5-6.5-1.6-13.5 1.1-19.9 3.9-6.3 13.6-3.4 19.8-2.3 4.1 1.8 7.1 3.8 9.2 7.9 1 6.7.4 12-3.2 17.9M195.2 104.5c-56.5 0-102.5 46-102.5 102.5 0 12.7 2.3 24.9 6.7 36.6l95.8 194.8c31.9-64.9 63.8-129.9 95.7-194.8 4.5-11.6 6.7-23.9 6.7-36.6.1-56.6-45.9-102.5-102.4-102.5m25.5 102.6c0 14-11.4 25.4-25.4 25.4s-25.4-11.4-25.4-25.4 11.4-25.4 25.4-25.4 25.4 11.4 25.4 25.4" style="fill:#fff"/></svg>