<?xml version="1.0" encoding="utf-8"?>
<!-- Generator: Adobe Illustrator 28.2.0, SVG Export Plug-In . SVG Version: 6.00 Build 0)  -->
<svg version="1.1" id="Layer_1" xmlns="http://www.w3.org/2000/svg" xmlns:xlink="http://www.w3.org/1999/xlink" x="0px" y="0px"
	 viewBox="0 0 512 512" style="enable-background:new 0 0 512 512;" xml:space="preserve">
<style type="text/css">
	.st0{fill:#4076BE;}
	.st1{fill:#508AC7;}
	.st2{fill:#436F99;}
</style>
<path class="st0" d="M415.4,324.1c-1.1-1-2.2-2-3.3-3c-4.7-4.8-8.8-9.5-15.8-10.4c-1.3,0-2.6-0.1-3.9-0.1c0-0.9,0-1.8,0-2.6
	c1.3,0,2.6,0,3.9,0c0.9-0.9,1.8-1.8,2.6-2.6c1.5-8.7,1.5-8.7,1.5-42.5c0-4.4,0-8.8,0-13.2c0-17.7-0.3-35.4-1.3-53.1
	c-0.6-10.3-2.6-20.2,3.7-29c1.4-1.7,2.7-3.5,4-5.3c2.3-6.4,1.5-12.3-1.1-18.4c-3.2-5.4-7.5-10.8-13.6-12.7c-0.8-0.1-1.6-0.3-2.3-0.4
	c0-1.8,0-3.5,0-5.3c-7.8-3.7-15.6-7.1-23.7-9.9c-52.3-18-100.3-47.6-147-76.7c1.7-8.1,4.2-16.1,0.7-23.9c-1.7-1.9-1.7-1.9-3.4-3.7
	c-3.1-4-6-6.8-10.5-9.2c-8.1-2-16.8-3.4-24.6,0.5c-5.6,4.7-10.4,10.4-11.4,17.9c0,1.4,0,2.7,0.1,4c0,4,0,4,0.4,7.9
	c2.8,8.5,7.7,17.9,15.8,22.3c6.4,1.2,11.6,0.5,17.4-2.5c3.8-2.2,7-3.5,11.5-4c1.1,4.3,1.8,7.2,5.2,10.1c1.2,0.6,2.3,1.3,3.5,1.9
	c2.3,1.2,4.5,2.5,6.8,3.6c1,0.5,1.9,1,2.9,1.5c22.5,11.6,45.4,22.5,68.2,33.4c2.5,1.2,5,2.4,7.6,3.6c1.3,0.6,2.5,1.2,3.7,1.8
	c10.8,5.1,21.5,10.4,32.2,15.8c6.3,3.2,12.5,6.5,19.2,8.9c1,0.3,2,0.6,3,0.9c-1.3,2-1.3,2-2.6,3.9c-6.7,8.1-10.3,13.6-9.6,24.4
	c1,7.3,3,12.6,8.7,17.7c1.7,1.2,1.7,1.2,3.4,2.4c3.7,2.7,5.8,4.1,10.4,4.4c1-0.1,1.9-0.2,2.9-0.3c0,2.1,0,4.3-0.1,6.4
	c0,0.9,0,1.8,0,2.7c0,5.4,0,10.7,0.4,16.1c1.4,28.1,1.4,28.1,1.7,56.3c0.1,5,0.1,10,0.2,15c0.2,10.7,0.3,21.5,0.4,32.2
	c-3.9,0-3.9,0-7.9,2.6c-5.9,5.9-8.3,11.7-8.6,19.9c0,1,0,1.9,0,2.8c0,3.5,0.2,6.6,0.7,10.1c2,3.5,3.3,4.9,6.8,6.9
	c0.8,0.3,1.6,0.7,2.4,1c0,0.9,0,1.8,0,2.6c-2.9,0-2.9,0-8.7,3.8c-0.9,0.6-1.7,1.1-2.5,1.7c-9.9,6.6-19.5,13.6-29.1,20.5
	c-10.3,7.5-20.6,15-31.2,22c-11.3,7.5-22.4,15.3-33.4,23.4c-1,0.7-1.9,1.4-2.9,2.1c-6.1,4.5-12.2,9-18.3,13.7
	c-0.9,0.7-1.8,1.4-2.7,2.1c-3.1,2.4-6.3,4.8-9.3,7.2c-1.5,1.2-1.5,1.2-3,2.4c-5.3,4-10.2,7-11.2,13.9c0,1.4,0,2.7,0,4
	c-2.2,0-4.4,0-6.6,0c-0.7-2.8-0.7-2.8-2.6-6.6c-4.8-5-9.5-8.4-16.6-8.8c-5,0.4-8,1.9-11.7,5.5c-1.9,2-1.9,2-4.3,3.8
	c-5.4,4.3-9.9,8.5-12.1,15.2c-1.1,7.7-0.9,13.3,3.9,19.7c8.6,6.1,17.6,8.8,28,9.7c4.7-0.7,6.7-2.5,10.1-5.8
	c7-8.4,10.3-15.3,9.5-26.2c-0.1-0.9-0.2-1.8-0.3-2.7c1.3,0,2.6,0,3.9,0c2.4-2.6,2.4-2.6,4.8-4.2c0.9-0.6,1.7-1.2,2.6-1.7
	c1-0.7,2-1.3,3-2c13.1-8.8,25.7-18.1,38.2-27.8c5.1-3.9,10.2-7.8,15.3-11.6c5.3-4,10.7-7.9,15.9-12.1c22.6-18.4,47.9-33.5,73.9-46.7
	c3.6-1.8,7-3.6,10.5-5.6c0.4-1.3,0.9-2.6,1.3-3.9c5.5,0.6,10.8,1.1,15.9-1.3c4.7-3.6,7.1-7.3,9-12.8
	C417.9,339.8,419.5,331.4,415.4,324.1z M208.2,35c-3.1,4.3-5.7,7.3-10.1,10.3c-3.8,0.6-3.8,0.6-7.9,0c-5.1-4-8.3-8.3-10.5-14.4
	c0.1-7.4,2.2-12.5,6.6-18.4c4.8-1.6,8.4-1.7,13.1,0c2.4,0.8,2.4,0.8,4.8,1.6c4.4,2.3,4.4,2.3,6.4,5.3
	C211.6,25.3,211.3,29.8,208.2,35z M206,499.7c-4.5,3-6.5,2.8-11.6,2c-6.3-1.6-11-4.4-14.6-9.9c-0.7-5-0.2-7.5,2.1-12
	c6.2-7.5,10.5-10.3,19.9-7.6c4.8,2,7.4,3.7,10.8,7.7C212.8,487.1,209.9,493.8,206,499.7z M379.3,172.7c-6.8-2.1-9.9-5.7-13.3-11.7
	c-2.2-5.2-2-9.7-0.1-15c2.4-3.4,4.9-4.7,8.9-5.7c5.4-0.6,10.8-0.6,16.3-0.5c0.5,1.1,0.5,1.1,1.1,2.3c0.5,1,1,1.9,1.4,2.9
	c0.5,1,0.9,1.9,1.4,2.9c1.1,2.4,1.1,2.4,2.6,3.7c0,7.8-2.7,12-8,17.6C386.2,172.2,383.9,173,379.3,172.7z M405.1,348.2
	c-2.6,3.1-3.9,4.3-8,4.9c-7.9-0.6-13.6-2.6-18.9-8.5c-2.5-6.5-1.6-13.5,1.1-19.9c3.9-6.3,13.6-3.4,19.8-2.3c4.1,1.8,7.1,3.8,9.2,7.9
	C409.3,337,408.7,342.3,405.1,348.2z"/>
<path class="st1" d="M292.9,205.8c0-53.8-43.6-97.5-97.5-97.5S97.9,152,97.9,205.8c0,14.9,3.3,29,9.3,41.6H107L195.5,426L284,247.4
	h-0.4C289.6,234.8,292.9,220.7,292.9,205.8z M195.5,236.4c-16.8,0-30.4-13.6-30.4-30.4s13.6-30.4,30.4-30.4
	c16.8,0,30.4,13.6,30.4,30.4S212.2,236.4,195.5,236.4z"/>
<path class="st2" d="M195.5,437.2L99.6,242.4c-4.5-11.6-6.7-23.9-6.7-36.6c0-56.5,46-102.5,102.5-102.5s102.5,46,102.5,102.5
	c0,12.7-2.3,24.9-6.7,36.6l0,0C259.3,307.3,227.4,372.3,195.5,437.2z M115,252.4l80.5,162.3L276,252.4h-0.2l3.4-7.1
	c5.8-12.4,8.8-25.6,8.8-39.4c0-51-41.5-92.5-92.5-92.5s-92.5,41.5-92.5,92.5c0,13.8,3,27,8.8,39.4L115,252.4L115,252.4z
	 M195.5,241.4c-19.5,0-35.4-15.9-35.4-35.4s15.9-35.4,35.4-35.4c19.5,0,35.4,15.9,35.4,35.4S215,241.4,195.5,241.4z M195.5,180.6
	c-14,0-25.4,11.4-25.4,25.4s11.4,25.4,25.4,25.4s25.4-11.4,25.4-25.4S209.5,180.6,195.5,180.6z"/>
</svg>
