<svg xmlns="http://www.w3.org/2000/svg" xml:space="preserve" viewBox="0 0 512 512"><path d="M367.2 275.9c2.3 3.4 3.5 7.4 3.5 12.2 0 5.7-1.5 10.2-4.5 13.6s-7 5.5-11.8 6.4c-3.1.7-10.5 1-22.2 1h-30v-42.9h26.1c14.7 0 24.3.8 28.7 2.3 4.5 1.6 7.8 4 10.2 7.4M196.3 212q-5.85-5.55-15-7.5c-4.5-1-13.4-1.5-26.6-1.5h-14.5v106.2h24.2c9 0 15.6-.5 19.6-1.5 5.2-1.3 9.6-3.5 13.1-6.7s6.3-8.3 8.5-15.5q3.3-10.8 3.3-29.4c0-18.6-1.1-21.9-3.3-28.5s-5.3-11.8-9.3-15.6m150.6 27c5.5-.7 9.9-2.6 13.1-5.8s4.8-7.3 4.8-12.5c0-5-1.4-9-4.1-12.1-2.8-3.1-6.8-5-12.2-5.6-3.2-.4-12.4-.5-27.7-.5h-18.6v37.1h21.2c12.7 0 20.5-.2 23.5-.6M512 0v512H0V0zM242.3 257.5c0-15-1.8-27.7-5.2-37.9-3.5-10.2-8.6-18.9-15.3-26s-14.8-12-24.2-14.8c-7-2-17.2-3.1-30.5-3.1h-59.2V336h60.9c12 0 21.5-1.1 28.7-3.4 9.6-3.1 17.1-7.3 22.8-12.8 7.4-7.2 13.2-16.7 17.2-28.3 3.1-9.4 4.8-20.8 4.8-34m161.8 32.2c0-9.3-2.6-17.3-7.9-24.2s-12.8-11.7-22.5-14.5q10.35-4.65 16.5-14.1c4-6.3 6.1-13.2 6.1-20.7 0-6.9-1.6-13.2-4.9-18.8s-7.4-10-12.3-13.4q-7.35-5.1-16.8-6.6c-6.2-1.1-15.7-1.6-28.4-1.6h-64.1v160.3h54.6c20.6-.1 33.6-.5 39-1.1 8.6-1 15.8-3.5 21.7-7.6s10.5-9.6 13.9-16.5c3.5-6.8 5.1-13.9 5.1-21.2"/></svg>