<svg xmlns="http://www.w3.org/2000/svg" xml:space="preserve" viewBox="0 0 512 512"><linearGradient id="ddclient_svg__a" x1="-98.914" x2="-98.647" y1="1.044" y2="1.217" gradientTransform="matrix(1309.1953 0 0 1747.5149 129511.477 -1636.475)" gradientUnits="userSpaceOnUse"><stop offset="0" style="stop-color:#000"/><stop offset="1" style="stop-color:#e6e7e8"/></linearGradient><path d="M179.1 439.6c32-1.4 62.2-8.6 90-20.6C161.7 388.6 83.2 289.9 83.2 172.9c0-32.6 6.2-63.8 17.2-92.4-24.6 7.8-46.6 20.6-61.8 40.2C14.2 159.9 0 206.3 0 255.9c0 49.4 14 95.4 38.2 134.5 21.6 29.6 95.1 51.2 140.9 49.2" style="fill:url(#ddclient_svg__a)"/><linearGradient id="ddclient_svg__b" x1="-99.004" x2="-98.81" y1="1.225" y2="1.341" gradientTransform="matrix(1971.5742 0 0 1340.3203 195271.781 -1619.29)" gradientUnits="userSpaceOnUse"><stop offset="0" style="stop-color:#939598"/><stop offset="1" style="stop-color:#000"/></linearGradient><path d="M420.4 275.9c14.6-30.6 22.8-64.4 22.8-100.2 0-49.4-21-110.8-53.4-137.1-39-24.2-85-38.2-134.3-38.2C163.5.4 81.6 49 38 121.8c39.2-24.2 85.2-38.4 134.5-38.4 119.4 0 219.7 81.9 247.9 192.5" style="fill:url(#ddclient_svg__b)"/><linearGradient id="ddclient_svg__c" x1="-98.934" x2="-98.846" y1="1.145" y2="1.227" gradientTransform="matrix(2305.1956 0 0 2302.2773 228301.266 -2396.356)" gradientUnits="userSpaceOnUse"><stop offset="0" style="stop-color:#fefad8"/><stop offset="1" style="stop-color:#fcee21"/></linearGradient><path d="M389.8 38.4c26 37.4 39 84.6 39 133.9 0 141.3-114.6 256.1-256.1 256.1-49.4 0-95.6-13.8-134.5-38.2C83 463.4 163.9 511.6 255.9 511.6 397.2 511.6 512 397 512 255.5c-.2-92-49.4-175.9-122.2-217.1" style="fill:url(#ddclient_svg__c)"/></svg>