<svg xmlns="http://www.w3.org/2000/svg" xml:space="preserve" viewBox="0 0 512 512"><path d="M256 27.7c-63 0-120.1 25.6-161.4 66.9C53.2 135.9 27.7 193 27.7 256s25.6 120.1 66.9 161.4S193 484.3 256 484.3s120.2-25.6 161.4-66.9c41.3-41.3 66.8-98.4 66.8-161.4 0-63.1-25.5-120.2-66.8-161.4-41.2-41.4-98.3-66.9-161.4-66.9M256 0c141.4 0 256 114.6 256 256 0 141.3-114.6 256-256 256C114.7 512 0 397.4 0 256S114.7 0 256 0M134.9 253.9c0-14.9-9.9-23.4-23.9-23.4h-8.6v46.8h8.3c13.1.1 24.2-7 24.2-23.4m152.6 16.9-63.2 49.8-57.8-45.5c-8.3 20-28.5 33.9-51.7 33.9H65.5V198.9h49.4c25.9 0 44.6 16.5 51.6 34l57.8-45.4 21.4 16.8-52.9 41.7 10.2 8 52.9-41.6 21.4 16.8-52.9 41.7 10.2 8 53-41.7V199H326v78h38.3v32.3h-76.7c-.1-.2-.1-38.5-.1-38.5m125.4 6.1h38.3v32.3h-76.7V198.9h38.4z"/></svg>