<svg xmlns="http://www.w3.org/2000/svg" xml:space="preserve" id="delta-chat_svg__svg2985" x="0" y="0" version="1.1" viewBox="0 0 512 512"><style>.delta-chat_svg__st0{fill:#fff}</style><path id="delta-chat_svg__path3769_00000034068590215293361520000014455700318402152630_" d="M250.7 3.1C114 3.1 3.1 114 3.1 250.7S114 498.3 250.7 498.3c156.2-3.7 104.7-51.2 258.2 10.6-82.2-141.6-11.8-145.2-10.6-258.2C498.3 114 387.4 3.1 250.7 3.1" class="delta-chat_svg__st0"/><path d="M508.9 512c-.4 0-.8-.1-1.2-.2-94.9-38.2-110-34.4-146.3-25-21.8 5.6-51.6 13.3-110.6 14.7C112.5 501.4 0 389 0 250.7 0 112.5 112.5 0 250.7 0 389 0 501.4 112.5 501.4 250.7c-.4 39.8-9.4 66.2-17.2 89.5-14.3 42.4-25.6 75.9 27.3 167.1.7 1.2.5 2.6-.3 3.6-.6.7-1.4 1.1-2.3 1.1m-110.4-37.7c21.2 0 48.8 6.9 103.2 28.4-49.2-87.8-37.8-121.8-23.4-164.4 7.7-22.9 16.4-48.8 16.9-87.5C495.2 116 385.5 6.4 250.7 6.4 115.9 6.3 6.3 115.9 6.3 250.7S116 495.2 250.8 495.2c58.1-1.4 87.6-9 109.1-14.5 13.9-3.6 24.9-6.4 38.6-6.4" style="opacity:.4392"/><linearGradient id="delta-chat_svg__path3799_00000098193380400566169780000011782189603969101758_" x1="385.527" x2="-453.267" y1="181.959" y2="708.591" gradientTransform="matrix(.9377 0 0 -.9377 -25.013 475.762)" gradientUnits="userSpaceOnUse"><stop offset="0" style="stop-color:#364e59"/><stop offset="1" style="stop-color:#364e59;stop-opacity:0"/></linearGradient><path id="delta-chat_svg__path3799" d="M250.4 47c-112.6 1.3-204 93.9-204 206.6s91.3 203 203.9 201.6c107.1-.4 81.9-59.8 200.2-4.8-64.8-101.3 2.2-114.7 3.7-201.8.1-112.7-91.2-203-203.8-201.6" style="fill:url(#delta-chat_svg__path3799_00000098193380400566169780000011782189603969101758_)"/><path id="delta-chat_svg__path4161" d="M251.9 220.6c-8.3-7.5-19.8-16.5-34.6-27-16.3-11.5-27.3-20.6-32.9-27.2-5.6-6.7-8.5-14-8.5-21.9 0-11.8 6.8-21.1 20.4-27.8 13.6-6.8 31.4-10.3 53.3-10.3s41 3 57.3 9.1c16.4 6 24.7 14.4 24.7 25 0 5.1-2 9.3-6 12.7s-8.6 5-13.9 5c-7.6 0-16.6-4.6-26.9-13.9-10.5-9.4-19.3-16-26.7-19.7-7.1-3.9-15.5-5.8-25.2-5.8-12.3 0-22.4 2.2-30.4 6.6-7.8 4.4-11.7 10.1-11.7 16.9 0 6.4 3.2 12.5 9.7 18.1s23.2 15.9 50.1 30.8c28.7 16 49 28.5 60.8 37.5 12 9 21.7 19.9 29.1 32.8 7.5 12.9 11.2 26.5 11.2 40.9 0 25.2-11 47.5-33.1 66.9-21.9 19.2-47.6 28.8-77 28.8-26.7 0-49.3-7.7-67.8-23.2-18.4-15.4-27.7-36-27.7-61.8 0-24.8 10.1-45.6 30.4-62.2 20.6-16.7 45.7-26.8 75.4-30.3m11 9.3c-47.7 6.3-71.5 32.8-71.5 79.3 0 24 5.9 42.7 17.7 56 12 13.3 25.8 19.9 41.6 19.9 16.4 0 30-6.4 40.6-19.1q15.9-19.35 15.9-52.2c0-31.6-14.8-59.6-44.3-83.9" class="delta-chat_svg__st0"/></svg>