<svg xmlns="http://www.w3.org/2000/svg" xml:space="preserve" viewBox="0 0 512 512"><path d="M214.3 216.6c5.9-9.2 11.9-18.4 17.8-27.7 17.3-26.8 34.8-53.6 51.9-80.5 7.6-12 5.7-27.8-3.8-38.2-15.9-17.2-43-15-56.3 4.8-5 7.4-9.5 15.2-14.3 22.8-33.3 51.6-66.6 103.3-99.9 154.8-27.8 43-55.8 86-83.7 129-8 12.4-16.3 24.7-23.4 37.6-5.9 10.6-1.3 23.3 9.1 29.6 6.3 3.8 13.2 4.5 20.2 4.5 30.2-.1 60.3-.5 90.5-.5 15.2 0 30.3-.6 45.5.4 15.5 1.1 27.7-4.4 34.7-19.1 2.1-4.3 5.1-8.1 7.7-12.1 30.4-47.1 60.9-94.2 91.3-141.3 15.3-23.6 30.5-47.3 45.9-70.8 14.3-21.7-1.3-46-19.7-50.5-14.6-3.5-29.1.9-37.5 13.3-11.4 16.8-22.2 34.1-33.3 51.2l-73.8 114c-8.5 13.1-16.8 26.2-25.4 39.2-6.3 9.5-18.4 12.3-27.3 6.7-10.1-6.4-12.5-17.5-6-28.1 1.2-2 2.6-4 3.9-6 28.5-44.2 57-88.2 85.9-133.1M413.8 276c-6.7-10.4-13.3-20.9-20-31.3-8.2-12.7-12.6-12.6-20.9.3-13.7 21.3-27.3 42.7-41 64-19.8 30.7-39.6 61.3-59.4 92-3.4 5.3-5.3 11.1-5.6 17.5-.6 14.9 9.5 28.4 24.5 33.1 13.5 4.2 30.7-1.9 38.6-13.8 12.9-19.2 24.2-39.4 38-58 5.1-6.8 13.7-9.4 21.3-6.7 9 3.2 14.7 11.3 14.1 20-.4 5.2-3.3 9.3-6 13.5-7.6 11.7-15.3 23.3-22.9 35.1-4.5 6.9-2.8 10 5.2 11.2 6.6 1 13.2-.2 19.7-.1 30.3.3 60.7.4 91.1.5 15.6.1 28.2-16.2 17.5-32-15.7-23.3-30.6-47.2-45.9-70.8-15.9-24.6-31.9-49.2-48.3-74.5"/></svg>