<svg xmlns="http://www.w3.org/2000/svg" xml:space="preserve" id="digikam_svg__Layer_1" x="0" y="0" version="1.1" viewBox="0 0 512 512"><style>.digikam_svg__st0{fill-rule:evenodd;clip-rule:evenodd}.digikam_svg__st2{fill:#1a1a1a}.digikam_svg__st5{opacity:.5232;enable-background:new}</style><path d="M486.9 255.8c0 127.1-103.1 230.2-230.2 230.2S26.4 382.9 26.4 255.8 129.6 25.5 256.7 25.5s230.2 103.2 230.2 230.3" class="digikam_svg__st0"/><path d="M256.7 486.8c-127.4 0-231-103.6-231-231s103.6-231 231-231 231 103.6 231 231-103.6 231-231 231m0-460.5c-126.5 0-229.5 102.9-229.5 229.5 0 126.5 102.9 229.5 229.5 229.5s229.5-102.9 229.5-229.5c-.1-126.5-103-229.5-229.5-229.5"/><radialGradient id="digikam_svg__SVGID_1_" cx="1502.405" cy="156.123" r="624.507" gradientTransform="matrix(.151 .4451 -.3503 .1188 86.076 -423.567)" gradientUnits="userSpaceOnUse"><stop offset="0" style="stop-color:#000"/><stop offset=".5" style="stop-color:#666"/><stop offset="1" style="stop-color:#7f7f7f;stop-opacity:0"/></radialGradient><path d="M486.9 255.8c0 127.1-103.1 230.2-230.2 230.2S26.4 382.9 26.4 255.8 129.6 25.5 256.7 25.5s230.2 103.2 230.2 230.3" style="fill-rule:evenodd;clip-rule:evenodd;fill:url(#digikam_svg__SVGID_1_)"/><path d="M256.7 486.8c-127.4 0-231-103.6-231-231s103.6-231 231-231 231 103.6 231 231-103.6 231-231 231m0-460.5c-126.5 0-229.5 102.9-229.5 229.5 0 126.5 102.9 229.5 229.5 229.5s229.5-102.9 229.5-229.5c-.1-126.5-103-229.5-229.5-229.5"/><path d="M256.7 489.9c-129.1 0-234.1-105-234.1-234.1s105-234.1 234.1-234.1 234.1 105 234.1 234.1-105 234.1-234.1 234.1m0-460.7c-124.9 0-226.6 101.6-226.6 226.6 0 124.9 101.6 226.6 226.6 226.6 124.9 0 226.6-101.6 226.6-226.6 0-124.9-101.7-226.6-226.6-226.6" class="digikam_svg__st2"/><path d="M256.7 508.9C117.1 508.9 3.6 395.3 3.6 255.8 3.6 116.2 117.1 2.7 256.7 2.7s253.1 113.5 253.1 253.1c-.1 139.5-113.6 253.1-253.1 253.1m0-485.8C128.4 23.1 24 127.5 24 255.8s104.4 232.6 232.6 232.6S489.3 384 489.3 255.8 384.9 23.1 256.7 23.1" style="fill:#404040"/><path d="M256.7 490.8c-129.6 0-235-105.4-235-235s105.4-235 235-235 235 105.4 235 235-105.4 235-235 235m0-466.9c-127.9 0-231.9 104-231.9 231.9s104 231.9 231.9 231.9 231.9-104.1 231.9-231.9c0-127.9-104-231.9-231.9-231.9"/><linearGradient id="digikam_svg__SVGID_00000029764112997753155570000000683764201875315840_" x1="1301.925" x2="1317.026" y1="2611.591" y2="1375.784" gradientTransform="translate(-137.659 -360.148)scale(.3013)" gradientUnits="userSpaceOnUse"><stop offset="0" style="stop-color:#000"/><stop offset="1" style="stop-color:#000;stop-opacity:0"/></linearGradient><path d="M444.2 255.8c0 103.5-84 187.5-187.5 187.5s-187.5-84-187.5-187.5 84-187.5 187.5-187.5 187.5 84 187.5 187.5" style="fill-rule:evenodd;clip-rule:evenodd;fill:url(#digikam_svg__SVGID_00000029764112997753155570000000683764201875315840_)"/><path d="M256.8 444.9c-8.2 0-16.4-.5-24.7-1.6C128.7 429.7 55.6 334.6 69.2 231.2c6.6-50.1 32.3-94.6 72.3-125.3 40.1-30.8 89.7-44.1 139.8-37.5s94.6 32.3 125.3 72.3c30.8 40.1 44.1 89.7 37.5 139.8-12.4 95-93.9 164.4-187.3 164.4m-.3-375.1c-91.9 0-172 68.3-184.2 161.8C59 333.2 130.8 426.8 232.5 440.2c8.2 1.1 16.3 1.6 24.3 1.6 91.9 0 172-68.3 184.2-161.8 6.5-49.2-6.6-98-36.9-137.4s-74-64.7-123.3-71.1c-8.1-1.1-16.2-1.7-24.3-1.7" class="digikam_svg__st5"/><path d="M256.7 488.5C128.4 488.5 24 384.1 24 255.8S128.4 23.1 256.7 23.1s232.7 104.4 232.7 232.7-104.5 232.7-232.7 232.7m0-459.2c-124.9 0-226.5 101.6-226.5 226.5s101.6 226.5 226.5 226.5 226.5-101.6 226.5-226.5S381.6 29.3 256.7 29.3"/><path d="M257.1 483.1c-10 0-20-.7-30-2C102.8 464.8 15 350.4 31.4 226.2c7.9-60.1 38.8-113.6 86.9-150.6 48.2-37 107.8-53 168-45.1s113.6 38.8 150.6 86.9c37 48.2 53 107.8 45.1 168-7.9 60.1-38.8 113.6-87 150.6-40.1 30.8-88.2 47.1-137.9 47.1m-.9-450.8c-48.9 0-96.2 16-135.7 46.3-47.4 36.4-77.7 89-85.5 148.1-16 122.2 70.3 234.6 192.5 250.6 59.1 7.8 117.8-8 165.2-44.4s77.7-89 85.5-148.1-8-117.8-44.4-165.2-89-77.7-148.1-85.5c-9.8-1.2-19.7-1.8-29.5-1.8" class="digikam_svg__st5"/><radialGradient id="digikam_svg__SVGID_00000163789185151938005530000006830917160476584880_" cx="-105.704" cy="1308.756" r="660.635" gradientTransform="matrix(.1675 -.8926 .4448 .08349 -307.746 52.175)" gradientUnits="userSpaceOnUse"><stop offset="0" style="stop-color:#afb5ba;stop-opacity:.9608"/><stop offset="1" style="stop-color:#000;stop-opacity:.9608"/></radialGradient><path d="M256.7 508.9C117.1 508.9 3.6 395.3 3.6 255.8 3.6 116.2 117.1 2.7 256.7 2.7s253.1 113.5 253.1 253.1c-.1 139.5-113.6 253.1-253.1 253.1m0-485.8C128.4 23.1 24 127.5 24 255.8s104.4 232.6 232.6 232.6S489.3 384 489.3 255.8 384.9 23.1 256.7 23.1" style="fill:url(#digikam_svg__SVGID_00000163789185151938005530000006830917160476584880_)"/><path d="M256.8 446.9c-8.3 0-16.6-.5-25-1.6-50.6-6.6-95.6-32.6-126.7-73.1s-44.6-90.7-37.9-141.3c6.6-50.6 32.6-95.6 73.1-126.7S231 59.6 281.6 66.3c50.6 6.6 95.6 32.6 126.7 73.1s44.6 90.7 37.9 141.3c-12.7 96.1-95 166.2-189.4 166.2m-.5-379.1c-41.1 0-80.9 13.4-114.1 38.9-39.8 30.6-65.4 74.8-71.9 124.6s6.7 99.1 37.3 138.9 74.8 65.4 124.6 71.9c8.3 1.1 16.5 1.6 24.6 1.6 92.9 0 173.8-69 186.2-163.5 6.5-49.7-6.7-99.1-37.3-138.9s-74.8-65.4-124.6-71.9c-8.3-1-16.6-1.6-24.8-1.6"/><path d="M256 512C114.8 512 0 397.2 0 256S114.8 0 256 0s256 114.8 256 256-114.8 256-256 256m0-509.6C116.1 2.4 2.4 116.1 2.4 256c0 139.8 113.8 253.6 253.6 253.6S509.6 395.8 509.6 256C509.6 116.1 395.8 2.4 256 2.4" style="opacity:.5924"/><path d="M258.1 398.6c-6.3 0-12.7-.4-19-1.2-78.9-10.4-134.6-82.9-124.3-161.8 10.4-78.9 82.9-134.6 161.8-124.3 78.9 10.4 134.6 82.9 124.2 161.8-5 38.2-24.6 72.1-55.2 95.6-25.4 19.6-56 29.9-87.5 29.9m-.4-284.8c-69.4 0-130 51.6-139.3 122.3-10.1 76.8 44.2 147.6 121.1 157.6 37.2 4.9 74.1-5 103.9-27.9s48.9-56 53.8-93.2C407.3 195.8 353 125 276.1 115c-6.2-.8-12.3-1.2-18.4-1.2"/><path d="M258.2 442.5c-8.2 0-16.5-.5-24.8-1.6-102.8-13.5-175.5-108.2-162-211s108.2-175.5 211-162 175.5 108.2 162 211c-6.5 49.8-32.1 94.1-72 124.7-33.2 25.4-73.1 38.9-114.2 38.9m-.5-368.9c-89.3 0-167.1 66.3-179 157.2-6.3 47.8 6.5 95.3 35.9 133.6s71.9 62.8 119.8 69.1c47.8 6.3 95.3-6.5 133.6-35.9s62.8-71.9 69.1-119.8c13-98.8-56.9-189.7-155.6-202.7-8.1-1-16-1.5-23.8-1.5" style="fill:#4d4d4d"/><path d="M257.9 408.6c-6.7 0-13.4-.4-20.2-1.3-40.9-5.4-77.2-26.3-102.3-59s-36-73.2-30.6-114.1 26.3-77.2 59-102.3 73.2-36 114.1-30.6c84.4 11.1 144 88.7 132.9 173.1-10.2 77.6-76.6 134.2-152.9 134.2m-.4-304.9c-33 0-64.8 10.8-91.4 31.2-31.9 24.5-52.4 60-57.6 99.8s5.4 79.4 29.9 111.3 60 52.4 99.8 57.6c6.6.9 13.2 1.3 19.7 1.3 74.4 0 139.3-55.3 149.2-131C418 191.6 359.8 115.8 277.4 105c-6.6-.9-13.3-1.3-19.9-1.3" class="digikam_svg__st2"/><path d="M258.2 436c-8 0-16-.5-24-1.6-99.4-13-169.6-104.4-156.5-203.7 6.3-48.1 31-90.9 69.5-120.4 38.5-29.6 86.2-42.4 134.3-36.1s90.9 31 120.4 69.5c29.6 38.5 42.4 86.2 36.1 134.3s-31 90.9-69.5 120.4C336.4 423 297.9 436 258.2 436m-.7-359.7c-38.9 0-76.6 12.7-108 36.9-37.7 29-61.9 70.9-68.1 118-12.8 97.3 56 186.8 153.3 199.6 47.1 6.2 93.8-6.4 131.5-35.3 37.7-29 61.9-70.9 68.1-118S427.9 183.7 399 146c-29-37.7-70.9-61.9-118-68.1-7.9-1.1-15.7-1.6-23.5-1.6" class="digikam_svg__st2"/><path d="M258.1 429.1q-11.55 0-23.1-1.5c-46.3-6.1-87.4-29.8-115.8-66.9s-40.8-82.9-34.7-129.2C97.1 136 185 68.5 280.6 81c95.5 12.5 163.1 100.5 150.5 196-6.1 46.3-29.8 87.4-66.9 115.8-30.8 23.8-67.8 36.3-106.1 36.3m-.4-345.9C173.2 83.2 99.5 146 88.2 232 75.9 325.6 142 411.6 235.5 423.9c45.3 6 90.2-6.1 126.4-34 36.3-27.8 59.5-68.1 65.4-113.4C439.7 183.1 373.6 97 280.1 84.7c-7.5-1-15-1.5-22.4-1.5" class="digikam_svg__st2"/><path d="M257.9 422.2c-7.3 0-14.6-.5-22-1.4-91.8-12.1-156.6-96.5-144.6-188.3 5.8-44.4 28.6-83.9 64.2-111.3 35.6-27.3 79.6-39.2 124.1-33.3 44.4 5.8 83.9 28.6 111.3 64.2 27.3 35.6 39.1 79.6 33.3 124.1-11 84.3-83.4 146-166.3 146m-.2-332.1c-81.1 0-151.8 60.3-162.6 142.8-11.8 89.7 51.6 172.3 141.4 184.1 43.5 5.7 86.5-5.9 121.3-32.6s57.1-65.4 62.8-108.8c5.7-43.5-5.9-86.5-32.6-121.3s-65.4-57.1-108.8-62.8c-7.2-.9-14.4-1.4-21.5-1.4" class="digikam_svg__st2"/><linearGradient id="digikam_svg__SVGID_00000111179820770394706300000011366916310371944625_" x1="1176.373" x2="1176.373" y1="2976.633" y2="3380.11" gradientTransform="translate(49.905 -283.839)scale(.1746)" gradientUnits="userSpaceOnUse"><stop offset="0" style="stop-color:#fff;stop-opacity:0"/><stop offset="1" style="stop-color:#c8c8c8"/></linearGradient><path d="M297.4 257.3c0 22.3-18.8 40.4-42.1 40.4s-42.1-18.1-42.1-40.4 18.8-40.4 42.1-40.4 42.1 18.1 42.1 40.4" style="fill:url(#digikam_svg__SVGID_00000111179820770394706300000011366916310371944625_)"/><path d="M257.5 140.7c-63.5 0-115.1 51.6-115.1 115.1S193.9 371 257.5 371c63.5 0 115.1-51.6 115.1-115.1 0-63.7-51.6-115.2-115.1-115.2m1.9 81.5 24.7 12.7 8.3 26.6-12.8 24.7-26.6 8.3-24.7-12.7-8.3-26.6 12.7-24.7z" class="digikam_svg__st0"/><path d="M257.5 372.8c-64.5 0-117-52.4-117-117s52.5-117 117-117 117 52.5 117 117c-.1 64.5-52.5 117-117 117m0-230.3c-62.4 0-113.2 50.8-113.2 113.2S195.1 369 257.5 369s113.2-50.8 113.2-113.2-50.8-113.3-113.2-113.3m-4.5 154-26.1-13.4-8.7-28 13.4-26.1 28-8.7 26.1 13.4 8.7 28-13.4 26.2zm-23.1-16.1 23.3 12 25.1-7.8 12.1-23.3-7.8-25.1-23.3-12-25.1 7.8-12 23.3z"/><linearGradient id="digikam_svg__SVGID_00000096026398790563644390000016890949723520300420_" x1="2364.912" x2="2366.619" y1="1163.195" y2="861.067" gradientTransform="translate(-912.703 -207.882)scale(.4942)" gradientUnits="userSpaceOnUse"><stop offset="0" style="stop-color:#1a1a1a"/><stop offset="1" style="stop-color:#5c5c5c"/></linearGradient><path d="M256.6 142.9c-62.3 0-112.8 50.5-112.8 112.8 0 37.3 18.2 70.4 46.2 91l60.3-53.7-20.9-10.2-83.4-7-.7-3.4 82.2 6.8-7.7-22.1-55.6-65.5 1.7-2.6 55.1 64.3 10.2-21 6.6-87.7 3.2-.3-6.3 86 23.9-8.2.2.1 63.3-59.8c-18.7-13.5-40-19.5-65.5-19.5m68.6 22-62.7 58.8 19.2 10.4 86.2 3c-4.5-28.5-21.1-55.7-42.7-72.2m-41.5 72.9 6.7 23.5 57.6 60.5c14.1-18.8 21.4-40.6 21.4-65.9 0-5-.4-9.9-1-14.7zm5.3 26.9-9.1 20.4-6 82.2c29.4-4.5 54.6-19.3 72-41.8zm-12.7 21.5-22.1 8-61.5 54.6c18.6 13.6 39.2 19.8 63.9 19.8 4.7 0 9.3-.3 13.8-.8z" style="fill-rule:evenodd;clip-rule:evenodd;fill:url(#digikam_svg__SVGID_00000096026398790563644390000016890949723520300420_)"/><path d="M256.6 371.8c-64 0-116.1-52-116.1-116.1s52-116.1 116.1-116.1c64 0 116.1 52 116.1 116.1s-52 116.1-116.1 116.1m0-224.6c-59.9 0-108.6 48.7-108.6 108.6s48.7 108.6 108.6 108.6 108.6-48.7 108.6-108.6-48.7-108.6-108.6-108.6"/><linearGradient id="digikam_svg__SVGID_00000041997845625962643670000002964489571470092722_" x1="2357.052" x2="2369.977" y1="1162.284" y2="841.405" gradientTransform="translate(-912.703 -207.882)scale(.4942)" gradientUnits="userSpaceOnUse"><stop offset="0" style="stop-color:#1a1a1a"/><stop offset="1" style="stop-color:#ccc;stop-opacity:0"/></linearGradient><path d="M256.6 141.5c-62.3 0-112.8 50.5-112.8 112.8 0 37.3 18.2 70.4 46.2 91l60.3-53.7-20.9-10.2-83.4-7-.7-3.4 82.2 6.8-7.7-22.1-55.6-65.5 1.7-2.6L221 252l10.2-21 6.6-87.7 3.2-.3-6.3 86 23.9-8.2.2.1 63.3-59.8c-18.7-13.7-40-19.6-65.5-19.6m68.6 21.9-62.7 58.8 19.2 10.4 86.2 3c-4.5-28.5-21.1-55.7-42.7-72.2m-41.5 72.9 6.7 23.5 57.6 60.5c14.1-18.8 21.4-40.6 21.4-65.9 0-5-.4-9.9-1-14.7zm5.3 26.9-9.1 20.4-6 82.2c29.4-4.5 54.6-19.3 72-41.8zm-12.7 21.5-22.1 8-61.5 54.6c18.6 13.6 39.2 19.8 63.9 19.8 4.7 0 9.3-.3 13.8-.8z" style="fill-rule:evenodd;clip-rule:evenodd;fill:url(#digikam_svg__SVGID_00000041997845625962643670000002964489571470092722_)"/><radialGradient id="digikam_svg__SVGID_00000168826834166109198310000008295284603194231478_" cx="2366.183" cy="935.149" r="160.613" gradientTransform="translate(-912.703 -207.882)scale(.4942)" gradientUnits="userSpaceOnUse"><stop offset="0" style="stop-color:#fff"/><stop offset="1" style="stop-color:#000;stop-opacity:0"/></radialGradient><path d="M256.6 141.5c-62.3 0-112.8 50.5-112.8 112.8 0 37.3 18.2 70.4 46.2 91l60.3-53.7-20.9-10.2-83.4-7-.7-3.4 82.2 6.8-7.7-22.1-55.6-65.5 1.7-2.6L221 252l10.2-21 6.6-87.7 3.2-.3-6.3 86 23.9-8.2.2.1 63.3-59.8c-18.7-13.7-40-19.6-65.5-19.6m68.6 21.9-62.7 58.8 19.2 10.4 86.2 3c-4.5-28.5-21.1-55.7-42.7-72.2m-41.5 72.9 6.7 23.5 57.6 60.5c14.1-18.8 21.4-40.6 21.4-65.9 0-5-.4-9.9-1-14.7zm5.3 26.9-9.1 20.4-6 82.2c29.4-4.5 54.6-19.3 72-41.8zm-12.7 21.5-22.1 8-61.5 54.6c18.6 13.6 39.2 19.8 63.9 19.8 4.7 0 9.3-.3 13.8-.8z" style="fill-rule:evenodd;clip-rule:evenodd;fill:url(#digikam_svg__SVGID_00000168826834166109198310000008295284603194231478_)"/><path d="M257.9 415.3c-7 0-14-.5-21.1-1.4-88-11.6-150.2-92.5-138.6-180.5S190.7 83.2 278.7 94.8s150.2 92.5 138.6 180.5c-10.5 80.9-79.9 140-159.4 140m-.2-318.2c-77.7 0-145.4 57.7-155.8 136.8-11.3 86 49.5 165.1 135.4 176.4 86 11.3 165.1-49.5 176.4-135.4 11.3-86-49.5-165.1-135.4-176.4-6.9-1-13.8-1.4-20.6-1.4" class="digikam_svg__st2"/><radialGradient id="digikam_svg__SVGID_00000005243561244514246670000008653083997538454402_" cx="73.571" cy="-141.634" r="622.382" gradientTransform="matrix(.2113 -.1964 -.4434 -.4771 100.039 107.304)" gradientUnits="userSpaceOnUse"><stop offset="0" style="stop-color:#fff"/><stop offset=".5" style="stop-color:#7fccff;stop-opacity:.4153"/><stop offset="1" style="stop-color:#009aff;stop-opacity:0"/></radialGradient><path d="M247.3 74.5c-98.9 5.8-174.5 90.8-168.8 189.7S169.3 438.7 268.2 433 442.8 342.2 437 243.2c-5.7-98.9-90.7-174.5-189.7-168.7" style="fill-rule:evenodd;clip-rule:evenodd;fill:url(#digikam_svg__SVGID_00000005243561244514246670000008653083997538454402_)"/><path d="M255.4 512C115.1 512 .9 398 .9 257.9c0-140 114.2-254 254.5-254s254.5 114 254.5 254.1c0 140-114.2 254-254.5 254m0-505.8c-139 0-252.1 113-252.1 251.7s113.1 251.7 252.2 251.7c139 0 252.2-112.9 252.2-251.7S394.4 6.2 255.4 6.2" style="fill:#fff"/><radialGradient id="digikam_svg__SVGID_00000147925418820588924660000017399514745947583882_" cx="2314.001" cy="528.557" r="622.382" gradientTransform="matrix(.1964 .2113 .4771 -.4434 -355.53 -80.358)" gradientUnits="userSpaceOnUse"><stop offset="0" style="stop-color:#fff"/><stop offset=".5" style="stop-color:#7fccff;stop-opacity:.4153"/><stop offset="1" style="stop-color:#009aff;stop-opacity:0"/></radialGradient><path d="M437 243.2c-5.8-98.9-90.8-174.5-189.7-168.8S72.8 165.2 78.6 264.2 169.4 438.7 268.3 433c98.9-5.9 174.5-90.8 168.7-189.8" style="opacity:.6;fill-rule:evenodd;clip-rule:evenodd;fill:url(#digikam_svg__SVGID_00000147925418820588924660000017399514745947583882_)"/></svg>