<svg xmlns="http://www.w3.org/2000/svg" xml:space="preserve" viewBox="0 0 512 512"><path d="M409.4 297c-2.4-.6-4.4-1.2-6.1-2-1.3-.6-2.3-1.2-3.3-2-.7-.6-1-1.5-.9-2.4.9-9.9-.1-18.6.8-28.5 4-40 29.1-27.3 51.7-33.9 12.8-3.6 25.7-10.7 30.5-24.6.9-2.6.1-5.4-1.7-7.4-14.7-16.7-31-31.5-48.7-44.1-59.5-42.4-136.8-60-207.8-49.9-3 .4-4.6 3.7-2.9 6.3 8.7 13.4 20.1 24.5 33.1 32.7 2.7 1.7 1.6 5.4-1.5 4.6-6.4-1.6-14.4-4.5-21.9-9.7-.9-.6-2-.8-3-.4-3.4 1.4-8.3 3.3-12.4 5.1-2.8 1.2-3.3 4.7-1 6.7 35.4 30.4 86.6 35.1 127 11.2 2.8-1.6 7.3 1.9 6.4 5-1.2 4.3-2.6 10.1-4 17.7-10.1 51.1-39.2 47.2-75.3 34.3-71.7-26-112.6-4-148.8-47.4-2.8-3.4-7.8-4.6-11.1-1.6-7.2 6.5-11.4 15.7-11.4 25.6 0 11.9 6.1 22.1 15.2 28.3 1.3.9 3 .5 3.9-.7 1.8-2.3 3.4-3.9 5.2-5.1 2.6-1.7 4 2.2 1.8 4.3-7 6.7-9.3 14.8-14.1 30.3-7.9 25.2-4.6 50.9-41.6 57.7-19.6 1-19.2 14.3-26.4 34.1-8.2 23.7-18.9 34.3-38.7 54.9-3.1 3.2-3.3 8.3.1 11 7.8 6.4 15.9 6.6 24.1 3.3 20.8-8.7 36.9-35.7 51.9-53.1 16.8-19.4 57.3-11.1 87.8-30.1 15.9-9.7 25.6-22.1 23.5-40.3-.4-3.5 3.5-5.5 4.9-2.3 2 4.8 3.3 9.9 3.9 15.1.2 1.8 1.8 3 3.5 3 32.8-1.6 75 34.1 114.5 44.2 2.7.7 4.6-2.4 3.1-4.8-2.3-3.6-4.3-7.4-6-11.3-1.4-3.5-2.6-6.9-3.5-10.1-.9-3.4 4.1-4.4 5.9-1.4 10.6 17.7 30.6 33.9 58 35.9 9.7.8 20.4-.4 31.5-3.8 13.3-4 25.6-9.1 40.2-6.3 10.9 2 21 7.5 27.3 16.8 8.8 12.9 27.4 16.4 37.4 3.2 1.5-2 1.7-4.8.7-7.1-22-51.2-77.8-54.8-101.8-61" style="fill-rule:evenodd;clip-rule:evenodd;fill:#fff"/></svg>