<?xml version="1.0" encoding="utf-8"?>
<!-- Generator: Adobe Illustrator 28.2.0, SVG Export Plug-In . SVG Version: 6.00 Build 0)  -->
<svg version="1.1" id="Mark" xmlns="http://www.w3.org/2000/svg" xmlns:xlink="http://www.w3.org/1999/xlink" x="0px" y="0px"
	 viewBox="0 0 512 512" style="enable-background:new 0 0 512 512;" xml:space="preserve">
<style type="text/css">
	.st0{fill:#FFFFFF;}
</style>
<path class="st0" d="M75,296.5h16v-82.1H75V296.5z M130.1,245.9c-9.6-3.6-12.4-5.9-12.4-10.3c0-5.2,5-9.1,11.9-9.1
	c4.8,0,8.7,2,12.9,6.7l8.4-11c-6.9-6-15.1-9.1-24.1-9.1c-14.5,0-25.6,10.1-25.6,23.5c0,11.3,5.2,17.1,20.2,22.5
	c6.3,2.2,9.5,3.7,11.1,4.7c3.2,2.1,4.8,5,4.8,8.5c0,6.7-5.3,11.6-12.4,11.6c-7.6,0-13.8-3.8-17.5-11l-10.3,10
	c7.4,10.8,16.2,15.6,28.4,15.6c16.6,0,28.3-11.1,28.3-27C153.8,258.5,148.4,252.6,130.1,245.9 M158.8,255.5
	c0,24.1,19,42.9,43.3,42.9c6.9,0,12.8-1.4,20.1-4.8v-18.9c-6.4,6.4-12.1,9-19.3,9c-16.1,0-27.6-11.7-27.6-28.3
	c0-15.8,11.8-28.2,26.8-28.2c7.6,0,13.4,2.7,20.1,9.2v-18.8c-7-3.6-12.8-5-19.7-5C178.3,212.5,158.8,231.6,158.8,255.5 M349.2,269.5
	l-21.9-55.2h-17.5l34.8,84.2h8.6l35.5-84.2h-17.4L349.2,269.5 M396,296.5h45.4v-13.9H412v-22.2h28.3v-13.9H412v-18.2h29.4v-13.9H396
	V296.5 M42.2,276.1c-5,4.5-11.6,6.5-21.9,6.5H16v-54.3h4.3c10.3,0,16.6,1.9,21.9,6.6c5.5,4.9,8.9,12.6,8.9,20.4
	C51.1,263.3,47.8,271.1,42.2,276.1z M23.5,214.4H0v82.1h23.4c12.4,0,21.4-2.9,29.3-9.5c9.4-7.8,14.9-19.4,14.9-31.5
	C67.6,231.3,49.5,214.4,23.5,214.4 M472.7,252.2H468v-24.9h4.9c10,0,15.4,4.2,15.4,12.2C488.4,247.7,483,252.2,472.7,252.2z
	 M504.9,238.6c0-15.4-10.6-24.2-29.1-24.2H452v82.1h16v-33h2.1l22.2,33H512l-25.8-34.6C498.2,259.5,504.9,251.2,504.9,238.6"/>
<circle class="st0" cx="271.1" cy="256.5" r="44.7"/>
</svg>
