<svg xmlns="http://www.w3.org/2000/svg" xml:space="preserve" viewBox="0 0 512 512"><path d="M258.2 0C119.3 0 2.3 112.6 2.3 251.5V512l255.8-.2c138.9 0 251.5-116.9 251.5-255.8S396.9 0 258.2 0m110.4 145.1c37.1 51.1 39.9 120.6 5.4 175-38.2 60.2-112.4 86.8-180.1 64.6l-98.3 33.6L133 331c-28.2-68.1-5-146.6 55.8-188.3 55-37.7 127.1-36 179.8 2.4m33.4 220c-47.5 63.4-135 81-203.4 41L96.4 418.2l-.9.2v-.1l18.5-93.2C68.1 258 81.4 166.9 144.6 115.8c62.6-50.7 153.3-45 209.5 12.3C303 89.8 231.8 85.7 175.8 122c-68.4 44.4-91.1 133.9-52 205.5l-28.2 90.8 101.3-22.9c72.2 32.6 157.3 5.9 197.9-62 33.2-55.7 28.1-124.4-9.3-174 56.6 54.5 63.7 142.7 16.5 205.7"/></svg>