<svg xmlns="http://www.w3.org/2000/svg" xml:space="preserve" viewBox="0 0 512 512"><path d="M361.9 296.9c-7.1 1.6-25.7 2.6-25.7 2.6l-2.4 7.4s9.3-.8 16.1-.1c0 0 2.2-.2 2.5 2.5.1 2.6-.2 5.3-.2 5.3s-.1 1.7-2.5 2.1c-2.6.4-20.1 1.1-20.1 1.1l-2.9 9.6s-1 2.2 1.3 1.6c2.2-.6 20.6-4 23-3.5 2.6.6 5.4 4 4.6 7.2-1 3.8-19.3 15.6-30.5 14.7 0 0-5.9.4-10.8-7.5-4.6-7.5 1.8-21.8 1.8-21.8s-2.9-6.7-.8-8.9c0 0 1.3-1.1 4.9-1.4l4.5-9.3s-5.1.3-8.2-3.4c-2.9-3.6-3.1-5.2-.9-6.2 2.3-1.1 23.6-5 38.3-4.5 0 0 5.1-.5 9.5 8.4-.1-.3 2.1 3.3-1.5 4.1m-55.2 35.8c-1.9 4.4-6.8 9.2-13 6.2-6.1-3-15.8-22.8-15.8-22.8s-3.7-7.4-4.4-7.2c0 0-.8-1.4-1.3 6.6s.1 23.8-3.1 26.2c-3.1 2.5-6.7 1.5-8.7-1.4-1.7-2.9-2.5-9.6-1.5-21.6 1.1-11.9 3.9-24.6 7.4-28.6 3.5-3.9 6.4-1.1 7.5 0 0 0 4.7 4.3 12.5 16.9l1.4 2.3s7.1 11.9 7.8 11.9c0 0 .6.5 1.1.1.7-.2.4-4 .4-4s-1.5-12.9-7.9-34.9c0 0-1-2.8-.3-5.3.6-2.6 3.2-1.4 3.2-1.4s10 5 14.9 21.4 1.7 31.1-.2 35.6m-49.3-42c-.8 1.7-1.3 4.1-5.6 4.7 0 0-40.5 2.8-42.4 5.6 0 0-1.4 1.7.8 2.2 2.2.4 11.4 1.7 15.8 1.9 4.7 0 20.7.2 26.4 7.3 0 0 3.4 3.4 3.2 11.1-.1 7.9-1.5 10.6-4.6 13.5-3.2 2.7-30.7 15-48.4-3.9 0 0-8.2-9.1 2.8-16 0 0 7.9-4.8 28 .8 0 0 6.1 2.2 5.8 4.4-.3 2.4-5 4.9-11.8 4.7-6.6-.2-11.4-3.3-10.5-2.9.9.3-7.1-3.8-9.5-1-2.5 2.6-1.9 4.2.5 5.9 6.2 3.5 29.9 2.3 37-5.6 0 0 2.8-3.2-1.5-5.8-4.3-2.5-16.5-3.9-21.3-4.2-4.6-.2-21.6 0-24.1-4.5 0 0-2.5-3.1.2-11.7 2.9-9.1 22.7-12.5 31.2-13.3 0 0 23.6-.8 27.9 4 .2 0 .8 1.2.1 2.8m-66.9 53.1c-2.9 2.1-8.9 1.2-10.6-1.2-1.7-2.1-2.3-10.5-2-23.7.3-13.3.6-29.9 3.5-32.5 3.1-2.7 4.9-.3 6.1 1.5 1.3 1.8 2.8 3.7 3.1 7.9s1.3 26.1 1.3 26.1 1.3 19.8-1.4 21.9m6.1-70.8c-8.3 2.8-14 1.8-18.8-.2-2.1 3.7-3.3 4.8-5 5.1-2.4.2-4.5-3.5-4.9-4.8-.4-.9-1.5-2.5-.1-6.2-4.7-4.2-5.1-9.9-4.3-13.8 1.2-4.4 9.2-21.3 33.4-23.2 0 0 11.9-.9 13.9 5.5h.3s11.5 0 11.3 10.3c-.1 10.1-12.8 22.9-25.8 27.3M174 250.2c-2.5 3.9-2.6 6.3-1.4 7.9 2.8-4.3 7.9-11 15.5-16.1-5.9.5-10.8 3-14.1 8.2m33.5-6.6c-7.6 1.1-19.4 11.4-25 19.7 8.6 1.6 23.8 1 30.6-12.7-.2 0 3.1-8.5-5.6-7m207.1 79.3c-4.6 8-17.4 24.6-34.5 20.7-5.7 13.7-10.4 27.6-13.1 48.3 0 0-.6 4-3.9 2.6-3.3-1.2-8.8-6.7-9.9-14.3-1.2-10 3.3-27 12.4-46.5-2.7-4.3-4.5-10.5-2.9-19.3 0 0 2.3-16.3 18.7-31.1 0 0 2-1.7 3.1-1.2 1.3.5.7 5.9-.3 8.4-1 2.6-8.4 15.3-8.4 15.3s-4.6 8.6-3.3 15.3c8.6-13.2 28.2-40 40.4-31.5 4.1 2.9 6 9.3 6 16.1-.3 6.1-1.7 12.4-4.3 17.2M411 302s-.7-5.3-5.8.5c-4.4 4.9-12.4 14.1-18.8 26.5 6.7-.7 13.2-4.4 15.2-6.3 3.2-2.8 10.6-10.5 9.4-20.7m-238.9 6.6c-.9 11.9-5.5 31.9-37.9 41.8-21.4 6.4-41.6 3.3-52.7.5-.2 4.4-.7 6.2-1.4 7-.9.9-7.9 5-11.8-.7-1.7-2.7-2.6-7.6-3.1-12-24.8-11.4-36.2-27.9-36.7-28.6-.5-.5-6.2-6.4-.5-13.7 5.3-6.5 22.7-13.1 38.3-15.7.5-13.4 2.1-23.5 4-28.1 2.3-5.4 5.1-.5 7.6 3.1 2.1 2.7 3.3 14.4 3.4 23.7 10.2-.5 16.3.2 27.7 2.3 14.9 2.7 24.8 10.3 23.9 18.9-.6 8.5-8.4 12-11.4 12.2-3.1.2-7.9-2-7.9-2-3.3-1.6-.2-3 3.7-4.7 4.3-2.1 3.3-4.3 3.3-4.3-1.6-4.7-20.9-8-40.1-8-.1 10.6.4 28.1.7 38.4 13.4 2.6 23.5 2.1 23.5 2.1s49-1.4 50.5-32.7-48.9-61.4-86.1-71c-37.2-9.7-58.3-3-60.1-2-2 1-.1 1.3-.1 1.3s2 .3 5.5 1.5c3.7 1.2.8 3.1.8 3.1-6.3 2-13.5.7-14.9-2.2s.9-5.5 3.6-9.3c2.7-3.9 5.6-3.8 5.6-3.8 46-15.9 102.1 12.9 102.1 12.9 52.5 26.7 61.5 57.9 60.5 70M33.2 307c-5.2 2.6-1.6 6.2-1.6 6.2 9.8 10.5 21.8 17.1 33.3 21.2 1.3-18.2 1.1-24.6 1.3-33.7-17.9 1.3-28.2 4.2-33 6.3m478.8-3.7v6.5c0 1.4-1.1 2.6-2.6 2.6h-31v4.4c0 9.6-.4 17.4-1.3 26.2-.1 1.3-1.2 2.3-2.5 2.3H468c-.7 0-1.3-.3-1.8-.8-.4-.5-.7-1.2-.6-1.9.9-8.8 1.4-16.5 1.4-25.9v-4.4h-30.6c-1.4 0-2.6-1.1-2.6-2.6v-6.5c0-1.4 1.1-2.6 2.6-2.6h30.2c-.6-10.6-1.9-20.8-4-31.1-.1-.6 0-1.3.4-1.8s1-.8 1.6-.8h7.2c1.1 0 2.1.8 2.3 1.9 2 10.7 3.3 21.1 3.9 31.7h31.3c1.5.2 2.7 1.4 2.7 2.8" style="fill:#01147c"/><radialGradient id="disney-plus_svg__a" cx="463.589" cy="533.713" r="374.058" gradientTransform="translate(0 -279)" gradientUnits="userSpaceOnUse"><stop offset=".007" style="stop-color:#021192"/><stop offset=".03" style="stop-color:#021096"/><stop offset=".057" style="stop-color:#010cb4"/><stop offset=".084" style="stop-color:#0008ce"/><stop offset=".111" style="stop-color:#0006d7"/><stop offset=".138" style="stop-color:#0004e1"/><stop offset=".165" style="stop-color:#0001fa"/><stop offset=".191" style="stop-color:#0000fe"/><stop offset=".216" style="stop-color:#0f1eff"/><stop offset="1" style="stop-color:#0ff;stop-opacity:0"/></radialGradient><path d="M469.9 251.8c-16-39.3-43-72.8-78.1-96.9-36-24.7-78.1-37.7-121.9-37.7-72.4 0-139.7 36-179.8 96.3-.4.6-.5 1.5-.3 2.2.2.8.8 1.3 1.6 1.6l5.6 1.9c.3.1.7.1 1 .1 1 0 2-.5 2.6-1.4 18.4-27.1 43.3-49.6 72-65.1 29.7-16 63.3-24.6 97.2-24.6 41 0 80.5 12.1 114.4 34.9 33 22.3 58.7 53.4 74.2 90 .4 1.1 1.5 1.8 2.7 1.8h6.7c.8 0 1.5-.4 1.9-1s.5-1.4.2-2.1m-372-34.2c-.1 0-.3 0-.4-.1.1 0 .2.1.4.1.1 0 0 0 0 0m361.7 36.5c.1.1.3.2.4.2-.1-.1-.3-.1-.4-.2" style="fill:url(#disney-plus_svg__a)"/></svg>