<svg xmlns="http://www.w3.org/2000/svg" xml:space="preserve" viewBox="0 0 512 512"><linearGradient id="dispatch-tasks_svg__a" x1="-690.518" x2="-681.375" y1="792.018" y2="782.875" gradientTransform="matrix(56 0 0 -56 38669 44353)" gradientUnits="userSpaceOnUse"><stop offset="0" style="stop-color:#3b82f6"/><stop offset=".55" style="stop-color:#06b6d4"/><stop offset="1" style="stop-color:#10b981"/></linearGradient><path d="M146.3 0h219.4C446.5 0 512 65.5 512 146.3v219.4c0 80.8-65.5 146.3-146.3 146.3H146.3C65.5 512 0 446.5 0 365.7V146.3C0 65.5 65.5 0 146.3 0" style="fill:url(#dispatch-tasks_svg__a)"/><path d="M456.3 151.6c-1.5-3.2-4.7-5.3-8.3-5.3H286.3l24.3-89c.8-2.8.2-5.7-1.6-8s-4.4-3.6-7.3-3.6h-128c-3.5 0-6.6 2-8.2 5.1L55.8 270.2c-1.4 2.8-1.3 6.2.4 8.9s4.6 4.3 7.8 4.3h136.2l-17.3 172.8c-.4 4 1.8 7.8 5.5 9.3 1.2.5 2.4.7 3.6.7 2.6 0 5.2-1.1 7-3.2l256-301.7c2.3-2.7 2.8-6.5 1.3-9.7" style="fill:#fff"/></svg>