<svg xmlns="http://www.w3.org/2000/svg" xml:space="preserve" viewBox="0 0 512 512"><linearGradient id="dispatch-tasks-light_svg__a" x1="0" x2="512" y1="0" y2="512" gradientUnits="userSpaceOnUse"><stop offset="0" style="stop-color:#fff"/><stop offset="1" style="stop-color:#fff;stop-opacity:.5"/></linearGradient><path d="M365.7 0H146.3C65.5 0 0 65.5 0 146.3v219.4C0 446.5 65.5 512 146.3 512h219.4c80.8 0 146.3-65.5 146.3-146.3V146.3C512 65.5 446.5 0 365.7 0M455 161.3 199 463.1c-1.8 2.1-4.3 3.2-7 3.2-1.2 0-2.4-.2-3.6-.7-3.7-1.6-5.9-5.3-5.5-9.3l17.3-172.8H64c-3.2 0-6.1-1.6-7.8-4.3s-1.8-6.1-.4-8.9L165.5 50.8c1.5-3.1 4.7-5.1 8.2-5.1h128c2.8 0 5.5 1.3 7.3 3.6 1.7 2.3 2.3 5.2 1.6 8l-24.3 89H448c3.6 0 6.8 2.1 8.3 5.3s1 7-1.3 9.7" style="fill:url(#dispatch-tasks-light_svg__a)"/></svg>