<svg xmlns="http://www.w3.org/2000/svg" xml:space="preserve" id="diun-dash_svg__Layer_1" x="0" y="0" version="1.1" viewBox="0 0 512 512"><style>.diun-dash_svg__st0{fill:#2496ed}</style><circle cx="256" cy="256" r="256" class="diun-dash_svg__st0"/><path d="M144 192h224c8.8 0 16 7.2 16 16v128c0 8.8-7.2 16-16 16H144c-8.8 0-16-7.2-16-16V208c0-8.8 7.2-16 16-16" style="fill:#e9f4fd"/><path d="M360 340H152c-6.6 0-12-5.4-12-12V216c0-6.6 5.4-12 12-12h208c6.6 0 12 5.4 12 12v112c0 6.6-5.4 12-12 12M152 212c-2.2 0-4 1.8-4 4v112c0 2.2 1.8 4 4 4h208c2.2 0 4-1.8 4-4V216c0-2.2-1.8-4-4-4z" class="diun-dash_svg__st0"/><path d="M160 224h192v16H160zm0 32h192v16H160zm0 32h192v16H160z" style="fill:#73bcf3"/><path d="m384 128 32 32-32 32 16-32h-80v-32z" style="fill:gold"/></svg>