<svg xmlns="http://www.w3.org/2000/svg" xml:space="preserve" viewBox="0 0 512 512"><path d="M508.8 188.9c-3.1-3.6-16.6-11-19.3-19.6-7.5-27.2-39.3-37.1-39.3-37.1l3.4-49.6c-14.1 4.3-33.7 20.5-54.2 41.1-3.2-.4-6.5-.7-9.8-.7-23.5 0-44.5 11-58.1 28-29.7-24.3-61.9-41.3-114.4-39.4-111 4-171.9 79-191.8 182.7-25.5 20.3-26.7 43-24.7 55.5 5.9 38.1 51 65.8 81.2 73.2 90.4 22.4 183.4-15 236.8-95.3 7.2-10.8 4.2-25.3-6.5-32.5-10.8-7.2-25.3-4.2-32.5 6.5-42.3 63.6-115.5 93.4-186.5 75.8-19.7-4.9-42.3-21.6-45.8-33.5l5.9 1.5h161.4c20.6-12.5 38.9-29.9 53.3-51.5 11.4-17.2 34.7-21.9 51.9-10.5s21.9 34.7 10.5 51.9c-2.3 3.4-4.7 6.8-7.1 10.1h97.4c-.4-.8.4-.3.4-.3-.8-1.2-9.9-15.3-10.9-31.3-1.9-30.3 18.4-55.4 18.4-55.4l.2-.3c63.5 11.1 77.3-28.8 80.8-48.2 1.7-9 4.9-17.3-.7-21.1m-53.4-7c-4.8 0-8.8-3.9-8.8-8.8 0-4.8 3.9-8.8 8.8-8.8 4.8 0 8.8 3.9 8.8 8.8s-4 8.8-8.8 8.8"/></svg>