<?xml version="1.0" encoding="utf-8"?>
<!-- Generator: Adobe Illustrator 28.2.0, SVG Export Plug-In . SVG Version: 6.00 Build 0)  -->
<svg version="1.1" id="Layer_1" xmlns="http://www.w3.org/2000/svg" xmlns:xlink="http://www.w3.org/1999/xlink" x="0px" y="0px"
	 viewBox="0 0 512 512" style="enable-background:new 0 0 512 512;" xml:space="preserve">
<style type="text/css">
	.st0{fill:#18181B;}
	.st1{fill:#FFFFFF;}
</style>
<path class="st0" d="M424.8,512H87.2C39.1,512,0,472.9,0,424.8V87.2C0,39.1,39.1,0,87.2,0h337.5C472.9,0,512,39.1,512,87.2v337.5
	C512,472.9,472.9,512,424.8,512z"/>
<path class="st1" d="M220.1,115.7c1.6,0,3.5,1.2,4.9,1.9c9.2,4.4,18.3,9.1,27.5,13.6l80.3,39.1l68.3,33.1
	c8.3,4.1,16.7,7.9,24.9,12.2c-0.5,5-0.2,10.3-0.2,15.3v26.6v88.6c12.9,1.1,25.8,3.8,38.7,5.2c-17.1,2.5-34,6.3-51,9.3
	c-44.4,7.6-88.6,15.8-132.8,24.6c-14.5,2.6-29,5.4-43.5,8.1c-5.4,1-11.2,3.1-16.7,3.1c-6.2,0-15.1-3.3-21.3-5l-27.9-7.6l-75.1-20
	c-16.3-4.4-32.5-9-48.9-13.1c6-0.1,11.9,0.1,17.9,0.2c7.3,0,14.6,0,21.9,0.4l0.1-179.4c4.6-2.2,9.6-3.9,14.3-5.9l25.8-10.8
	L220.1,115.7z M215.5,146.6c-12,4.7-24.2,9-36.3,13.6l0.1,107.9c0.2,27.2,0.2,54.3,0,81.5c2.3,0.5,4.6,1,6.9,1.6
	c9.8,2.1,19.7,4.4,29.5,6.5l0.2-142.7v-45.5v-14.7c0-2.7,0.1-5.4-0.1-8.1L215.5,146.6z M118.7,183.2c-8.5,2.9-17,6.2-25.3,9.6v139.6
	l5.2,1c6.9,1.4,13.8,2.5,20.6,4.2l0.1-107.1l-0.1-31.9c0-5,0.5-10.4-0.2-15.4L118.7,183.2z M175.8,161.6c-5,1.8-10,4.1-15.1,5.7
	l0.1,178.8c1.3,0.2,2.6,0.4,3.8,0.6c3.8,0.9,7.7,1.8,11.6,2.5c0.3-32,0-64.1,0-96.2c0.2-28.8,0.2-57.5,0.1-86.3
	C176.2,165.5,176.5,162.6,175.8,161.6L175.8,161.6z M223.4,147.8l0.1,210.3c3.4-0.5,6.9-1,10.3-1.3c0.6-0.6,0.4-3,0.4-4
	c0.1-10.8,0.1-21.6,0-32.5v-34.1V152.1C230.7,150.6,226.9,149.4,223.4,147.8z M241.3,154.8l0.4,201.1c3.5-0.5,7-1,10.5-1.5
	c0.4-0.2,0.4-0.1,0.5-0.4c0.6-1.8,0.2-14.1,0.2-16.9c0.1-14.2,0.1-28.4,0-42.5l-0.1-82.7c0-17.5,0.1-35-0.1-52.5
	C249,157.9,244.8,156.6,241.3,154.8z M134.6,177.2c-4.2,1.7-8.4,3.3-12.6,4.8v156.2l3,0.5l10.1,2.1c0.4-36.4-0.2-72.9,0-109.3
	c0.1-13.6,0.2-27.2,0.1-40.7c0-3,0.4-11.3-0.3-13.5L134.6,177.2z M259.6,162.1l0.1,106.2l-0.1,51.5c-0.1,11.3-0.1,22.5,0.1,33.8
	c3.4-0.3,6.7-0.8,10-1.5l0.5-0.3c0.8-4,0.3-14.2,0.3-18.8c0-14.6-0.1-29.3-0.3-43.9l-0.1-122.4C266.9,164.9,263.1,163.8,259.6,162.1
	z M419.6,335.3L279.3,358c-12.3,1.8-24.6,3.6-36.9,5.2c-6.3,0.8-12.6,1.5-18.9,2.5c-0.1,4-0.7,13.5,0.2,17
	c9.7-2.4,19.4-4.5,29.1-6.7c19.5-4.6,39-9,58.6-13.2l43.5-8.6c14.9-3.1,29.8-6.1,44.8-9l12.6-2.6c2.5-0.5,5.1-1.2,7.6-1.4
	C420,339.8,420.4,336.5,419.6,335.3z M277.3,169.5V284c0,22.4-0.3,44.8,0,67.2c3.2-0.6,6.4-1.1,9.7-1.6l0.6-0.2
	c0.9-2.8,0.3-13.2,0.3-16.7l0.1-26l-0.1-132.9C284.4,172.2,280.9,170.7,277.3,169.5z M223.2,124.3c0,5.2-0.1,10.4,0,15.6l196.9,82.4
	V219c-47.2-23.2-94.6-46-142.2-68.4c-11.6-5.5-23.2-11.1-34.7-16.8C236.6,130.6,230.1,126.9,223.2,124.3z M92.8,339.1
	c0,3.8-0.1,7.6,0,11.4c29.8,8,59.8,15.6,89.8,22.9c6.3,1.5,12.6,3.1,18.8,4.8c5,1.4,9.9,3.1,15,4.1c0.3-5.4,0.1-10.9,0.1-16.3
	c-7.2-1.9-14.5-3.3-21.8-4.9c-9.7-2.2-19.4-4.4-29.1-6.5C141.4,349.1,117.2,344,92.8,339.1z M294.5,176.2v172c3-0.6,6.1-0.9,9.1-1.4
	l0.3-0.2c0.6-5.5,0.3-12.4,0.2-18.1c-0.1-10.8-0.1-21.7-0.1-32.5l0.1-115.9C301,178.9,297.6,177.8,294.5,176.2z M310.2,182.9
	c-0.1,22-0.1,44.1,0.1,66.1v96.8c2.8-0.4,5.7-0.6,8.5-1.2l0.4-0.2c0.9-4.3,0.2-9.9,0.1-14.4v-27.1l-0.1-116.4
	C316.2,185.4,313,184.4,310.2,182.9z M215.4,125.1c-22.9,9.8-45.9,19.3-69,28.6c-17.7,7.3-35.7,14.2-53,22.5c0,3.3-0.1,6.6,0,9.9
	c6.4-2.4,12.9-4.7,19.2-7.4l6.7-2.7c-0.1-1.8-0.4-4.4,1-5.8c0.3-0.3,0.4-0.3,0.7-0.3c0.6,0.4,0.9,1.1,1,1.9c0.2,1,0,2.3,0,3.3
	l13.2-5c-0.1-1.8-0.5-4,0.8-5.5c0.3-0.4,0.5-0.5,0.9-0.6c0.6,0.4,0.9,0.8,1,1.5c0.3,1,0,2.4-0.1,3.4c3-1.1,5.9-2.2,8.9-3.2l-0.2-4.5
	c1.1-0.2,2.2-0.5,3.3-0.6c0.1,1.2,0.1,2.4,0.1,3.6c2.5-0.8,5-1.7,7.5-2.6c-0.1-1.8-0.5-5,0.9-6.5c0.5-0.5,0.5-0.5,1.1-0.4
	c0.7,0.6,1,1.6,1.1,2.5c0.1,1,0,2.1,0,3.1c5.1-2.1,10.4-3.8,15.5-5.9c-0.2-2-0.6-4.8,0.8-6.5c0.3-0.4,0.5-0.5,1-0.6
	c0.6,0.3,0.9,0.6,1.2,1.2c0.6,1.5,0.4,3.2,0.3,4.7c12.1-4.8,24.3-9.3,36.4-14.2c0.1-4.5,0.5-9.3-0.1-13.7
	C215.4,125.1,215.6,125.1,215.4,125.1z M324.9,188.9v93.4c0,20.5-0.2,41,0,61.5c2.6-0.5,5.3-0.9,7.9-1.2l0.5-0.2
	c0.6-2.8,0.2-7.8,0.2-10.9l0.1-24.5l-0.1-78.2c0-12-0.4-24.1-0.1-36.2C330.7,191.3,327.7,190.3,324.9,188.9z M157.3,168.5l-6.4,2.6
	l-0.2,170.5c0,0.8-0.1,1.9,0.4,2.5l0.7,0.1l5.9,1.2l0.1-171.4c0-1.1,0.3-4.6-0.3-5.4L157.3,168.5z M144.5,173.4
	c-2.2,0.8-4.4,1.7-6.6,2.4c-0.3,6.7-0.1,13.4-0.1,20l0.1,34.5l0.1,70.2c0,11.2-0.3,22.4-0.2,33.5c0,1.5-0.3,6.4,0.6,7.5
	c0.5,0.1,1,0.3,1.5,0.3l5,0.9V209v-21.8c0-3.2,0.6-11.2-0.1-13.7L144.5,173.4z M339.4,194.7v146.9c2.4-0.4,4.8-0.9,7.1-1.2l0.5-0.3
	c0.7-2.6,0.2-7.6,0.2-10.5l-0.1-23.1L347,197.8C344.5,196.9,341.8,195.9,339.4,194.7z M352.6,200l-0.1,87.3
	c-0.1,17.4-0.1,34.8,0,52.2l6.9-1c0.7-1,0.6-3.8,0.6-5c0.1-4.5-0.1-9.1-0.1-13.6L360,290c0.2-28.8,0.2-57.7,0.1-86.5
	C357.7,202.3,355.2,201.1,352.6,200z M365.1,205.6V292c0,15.2-0.2,30.5,0,45.7c2.2-0.3,4.5-0.6,6.7-1c0.4-6.1,0.1-12.5,0.1-18.6
	l0.1-36.5l0.1-50.2c0-7.7,0.1-15.4-0.1-23.1C369.7,207.4,367.4,206.4,365.1,205.6z M376.7,210.2l-0.2,74.6
	c-0.1,17-0.5,34.1,0.1,51.1c1.9-0.3,3.9-0.6,5.8-0.9c0.6-0.7,0.4-2.9,0.5-3.9c0.2-6.9,0-13.8,0-20.7l0.1-41.2
	c0-18.8,0.5-37.7,0-56.6C380.9,211.9,378.8,211,376.7,210.2z M387.4,214.8c-0.2,20.8,0,41.5,0,62.3c0,19.1-0.2,38.2,0.1,57.3
	c1.8-0.2,3.7-0.6,5.5-0.7c0.4-0.6,0.4-1.2,0.4-1.9c0.1-3.1-0.1-6.2-0.1-9.2v-25.3v-79.9C391.3,216.6,389.4,215.7,387.4,214.8z
	 M397.6,219.4l-0.1,113.5c1.5-0.2,3.1-0.4,4.6-0.7l0.4-0.3c0.7-3.3,0.3-7.4,0.3-10.8v-18.2c0.1-27.2,0-54.3-0.2-81.5
	C401,220.7,399.3,220.1,397.6,219.4z M406.8,222.9c0,9.1,0,18.2-0.1,27.3l0.1,51.6c0,9.9-0.3,20,0.1,29.9c1.4-0.3,2.8-0.5,4.2-0.7
	l0.4-0.2c0.7-2.7,0.2-6.3,0.2-9.1l-0.1-16.8c0.2-26.6,0.2-53.2,0-79.8C410,224.3,408.4,223.6,406.8,222.9z M416,226.9
	c-0.1,18.9-0.1,37.9,0,56.8c0,15.4-0.1,30.9,0.1,46.3c1.3-0.2,2.6-0.3,3.9-0.6c0.4-3.8,0.3-7.7,0.3-11.4l-0.1-19.2v-45.5
	c0-8.2-0.1-16.5,0-24.8C418.8,228,417.4,227.5,416,226.9z M109.9,173.3c0.3,0,0.9,0.1,1.2,0.2c0.3,0.2,0.6,0.4,0.7,0.7
	c0.3,0.8-0.3,1.6-0.7,2.3c-0.4,0-0.8-0.1-1.2-0.1c-0.3-0.2-0.6-0.3-0.7-0.7C109,174.8,109.5,174.1,109.9,173.3z M104.9,174.6
	c0.3,0.2,0.7,0.4,0.9,0.6c0.3,0.3,0.5,0.8,0.5,1.3c-0.1,1.1-0.8,1.6-1.5,2.3c-0.3-0.2-0.6-0.3-0.9-0.6c-0.4-0.4-0.6-0.9-0.6-1.4
	C103.5,175.9,104.2,175.2,104.9,174.6z M98.3,177.2c0.6,0.2,1.3,0.4,1.6,1c0.2,0.3,0.3,0.7,0.2,1c-0.2,1-0.8,1.4-1.6,2
	c-0.5-0.2-1-0.3-1.3-0.7c-0.4-0.5-0.6-0.8-0.5-1.4C96.9,178,97.6,177.6,98.3,177.2z M198.5,136.3c0.5,0.2,0.9,0.4,1.2,0.8
	c0.1,0.1,0.1,0.1,0.2,0.2c0,0.1,0.1,0.1,0.1,0.2s0.1,0.2,0.1,0.2c0,0.1,0.1,0.2,0.1,0.2c0,0.1,0,0.2,0.1,0.2c0,0.1,0,0.2,0,0.3
	s0,0.2,0,0.3s0,0.2,0,0.3c-0.2,1.2-0.9,1.8-1.8,2.4c-0.7-0.2-1.4-0.4-1.9-1c-0.3-0.5-0.4-0.9-0.3-1.5
	C196.6,137.6,197.5,136.9,198.5,136.3z M190.2,139.6c0.5,0.1,1,0.2,1.4,0.6c0.5,0.4,0.7,1,0.7,1.6c0,1.4-0.7,2.2-1.6,3.1
	c-0.7-0.1-1.3-0.1-1.8-0.7c-0.4-0.5-0.5-1.1-0.4-1.7C188.7,141.1,189.2,140.4,190.2,139.6z M208.1,130.3c0.7,0,1.3,0,2,0.1
	c0.8,0.2,1.6,0.8,2,1.6c0.7,1.2,0.5,2.8,0.1,4c-0.7,2.1-2.1,3.6-4.1,4.6l-0.3-0.1c-1.4-0.3-2.7-0.7-3.5-2c-0.7-1.1-0.7-2.5-0.3-3.7
	C204.7,132.5,206.1,131.3,208.1,130.3z M96.3,342.5c0.3,0.1,0.6,0.2,0.8,0.4c0.6,0.4,0.9,1.2,1,1.8c0.2,1.4-0.3,2.7-1.1,3.8
	c-0.4-0.2-0.3-0.1-0.7-0.4c-0.6-0.4-0.9-1.2-1.1-1.9C94.9,344.7,95.4,343.6,96.3,342.5z M205.2,366.8c2.6,0.4,5,1.1,7.5,1.8v9.3
	c-2.5-0.4-5.1-1.2-7.5-1.8C205.1,373,205.1,369.9,205.2,366.8z M229.6,130.9c1.3,0.2,2.2,0.5,3.1,1.4c0.1,0.1,0.2,0.2,0.3,0.3
	s0.2,0.2,0.3,0.4c0.1,0.1,0.2,0.3,0.2,0.4c0.1,0.1,0.1,0.3,0.2,0.4c0.1,0.1,0.1,0.3,0.1,0.4c0,0.1,0.1,0.3,0.1,0.4
	c0,0.1,0,0.3,0,0.5s0,0.3,0,0.5c-0.1,1.6-0.8,2.5-1.9,3.5c-1.1,0-1.9-0.2-2.7-1c-1-1-1.4-2.4-1.4-3.7
	C228,132.9,228.5,132,229.6,130.9z M230.8,370.1c0.5,0,1.1,0,1.6,0.3c0.6,0.3,0.9,1,1.1,1.6c0.4,1.2,0.2,2.7-0.5,3.8
	c-0.5,0.8-1,1-1.9,1.2c-0.8,0-1.7,0.1-2.3-0.6c-1.2-1.2-0.6-4-0.5-5.5C229.2,370.5,230,370.3,230.8,370.1z M130.9,255
	c0.2-0.1,0.4,0,0.7,0c0.8,1.4,0.3,5,0.3,6.7c-1.8,0.3-3.6,0.6-5.4,0.8c-0.6,0-0.3,0.1-0.8-0.2c-0.8-1.8-0.4-4.5-0.3-6.4L130.9,255z
	 M131.2,233.3l0.3,0.2c0.8,1.4,0.3,5.1,0.3,6.8c-2,0.2-4,0.8-6,1.2l-0.4-0.1c-0.5-2-0.3-4.5-0.2-6.6
	C127.2,234.2,129.2,233.8,131.2,233.3z M170.7,248.5c0.6-0.1,0.9-0.2,1.4,0.1c0.9,1.6,0.4,4.8,0.3,6.6c-2.1,0.3-4.2,0.7-6.2,1.1
	c-0.5,0.1-0.6,0.2-1.1,0c-0.9-1.8-0.4-4.8-0.3-6.8L170.7,248.5z M172.1,224.8l0.1,0.1c1,1.2,0.4,5.6,0.3,7.1l-7.4,1.6
	c-0.1-0.1-0.2-0.2-0.3-0.3c-0.9-1.1-0.3-5.1-0.3-6.6C167,226.1,169.6,225.5,172.1,224.8z M115.9,237.2c0.2,0,0.5,0.1,0.7,0.1
	c0.9,1.3,0.4,4.6,0.3,6.1c-5,1.5-10.3,2.4-15.5,3.5h-0.7l-0.4-0.4c-0.6-1.9-0.2-4,0-5.9C105.4,239.3,110.7,238,115.9,237.2z
	 M115.4,257.9c0.4-0.1,0.7-0.1,1.1,0c1,1.1,0.5,4.9,0.5,6.3c-4.8,1.5-10.3,1.9-15.3,2.8c-0.5,0.1-0.7,0.2-1.2,0
	c-1-1.5-0.4-4.6-0.2-6.4C105.3,259.5,110.4,258.8,115.4,257.9z M204.3,242.7c0.6,0,0.6-0.1,1.1,0.2c0.8,2,0.3,5,0.2,7.1
	c-6.8,1.5-13.8,2.3-20.7,3.5c-0.4,0.1-0.7,0-1.1-0.1c-1.1-1.5-0.6-5-0.5-6.9C190.2,245,197.3,244,204.3,242.7z M204.9,217.2l0.5,0.2
	c0.8,2,0.3,5.3,0.2,7.5c-7.1,1.7-14.4,3.1-21.5,4.7l-0.5-0.3c-0.9-1.9-0.4-4.8-0.4-6.9C190.4,220.5,197.7,218.8,204.9,217.2z"/>
</svg>
