<?xml version="1.0" encoding="utf-8"?>
<!-- Generator: Adobe Illustrator 28.2.0, SVG Export Plug-In . SVG Version: 6.00 Build 0)  -->
<svg version="1.1" id="Layer_1" xmlns="http://www.w3.org/2000/svg" xmlns:xlink="http://www.w3.org/1999/xlink" x="0px" y="0px"
	 viewBox="0 0 640 640" style="enable-background:new 0 0 640 640;" xml:space="preserve">
<style type="text/css">
	.st0{fill:#FFFFFF;}
</style>
<path class="st0" d="M639.8,356c-2.8-63.3-31.5-113.6-48.4-138.1c-35.6-51.5-49.7-66.6-78.5-96.1c-26-26.7-77.7-65-137.8-85
	C282.5,5.9,191.9,23.6,120.2,86.7c-39.8,35.1-71.8,78.4-92.4,125.6C7.4,258.7-2.1,308.7,0.4,356.9c2,40.5,12.1,78.6,30,113.3
	c19.1,37,46.1,68.1,80.2,92.5c51.1,36.5,114.2,55.3,184.4,55.3c10.4,0,21-0.4,31.7-1.2c64.9-5.1,131.5-25.4,187.7-57.2
	c15.5-8.8,29.8-18.3,42.7-28.3C613.5,487.5,642.9,425.2,639.8,356z M500.8,459.1c-9.3,7.2-19.9,14.3-31.5,20.8
	c-81.8,46.4-215.5,72.5-305.4,8.3C61.2,414.9,69,253.8,180.7,155.5S421,159,447.2,185.8c26.2,26.9,36.9,38.2,68.7,84.3
	C547.9,316.2,575.2,401.1,500.8,459.1z M312.4,434.7c37.6-2.9,79.3-15.7,111.6-34c7.8-4.3,14.6-8.9,20.4-13.4
	c11.8-9.2,12.5-15.4,12.2-22.5c-0.5-12.1-6.9-28.6-16.1-42c-28.3-40.9-35.4-48.2-58.9-72.4l0,0c-5.4-5.5-32-28.3-64.6-39.1
	c-11-3.6-20.8-5.6-29.9-5.6c-16.7,0-31,6.3-45.8,19.2c-38.4,33.8-60,79.9-57.8,123.3c1,19.8,7.7,47.3,33.7,65.9
	C246.3,435,285,436.8,312.4,434.7z"/>
</svg>
