<svg xmlns="http://www.w3.org/2000/svg" xml:space="preserve" viewBox="0 0 512 512"><path d="M424.8 512H87.2C39.1 512 0 472.9 0 424.8V87.2C0 39.1 39.1 0 87.2 0h337.5C472.9 0 512 39.1 512 87.2v337.5c0 48.2-39.1 87.3-87.2 87.3" style="fill:#18181b"/><path d="M220.1 115.7c1.6 0 3.5 1.2 4.9 1.9 9.2 4.4 18.3 9.1 27.5 13.6l80.3 39.1 68.3 33.1c8.3 4.1 16.7 7.9 24.9 12.2-.5 5-.2 10.3-.2 15.3v115.2c12.9 1.1 25.8 3.8 38.7 5.2-17.1 2.5-34 6.3-51 9.3-44.4 7.6-88.6 15.8-132.8 24.6-14.5 2.6-29 5.4-43.5 8.1-5.4 1-11.2 3.1-16.7 3.1-6.2 0-15.1-3.3-21.3-5l-27.9-7.6-75.1-20c-16.3-4.4-32.5-9-48.9-13.1 6-.1 11.9.1 17.9.2 7.3 0 14.6 0 21.9.4l.1-179.4c4.6-2.2 9.6-3.9 14.3-5.9l25.8-10.8zm-4.6 30.9c-12 4.7-24.2 9-36.3 13.6l.1 107.9c.2 27.2.2 54.3 0 81.5 2.3.5 4.6 1 6.9 1.6 9.8 2.1 19.7 4.4 29.5 6.5l.2-142.7v-60.2c0-2.7.1-5.4-.1-8.1zm-96.8 36.6c-8.5 2.9-17 6.2-25.3 9.6v139.6l5.2 1c6.9 1.4 13.8 2.5 20.6 4.2l.1-107.1-.1-31.9c0-5 .5-10.4-.2-15.4zm57.1-21.6c-5 1.8-10 4.1-15.1 5.7l.1 178.8c1.3.2 2.6.4 3.8.6 3.8.9 7.7 1.8 11.6 2.5.3-32 0-64.1 0-96.2.2-28.8.2-57.5.1-86.3-.1-1.2.2-4.1-.5-5.1m47.6-13.8.1 210.3c3.4-.5 6.9-1 10.3-1.3.6-.6.4-3 .4-4 .1-10.8.1-21.6 0-32.5V152.1c-3.5-1.5-7.3-2.7-10.8-4.3m17.9 7 .4 201.1 10.5-1.5c.4-.2.4-.1.5-.4.6-1.8.2-14.1.2-16.9.1-14.2.1-28.4 0-42.5l-.1-82.7c0-17.5.1-35-.1-52.5-3.7-1.5-7.9-2.8-11.4-4.6m-106.7 22.4q-6.3 2.55-12.6 4.8v156.2l3 .5 10.1 2.1c.4-36.4-.2-72.9 0-109.3.1-13.6.2-27.2.1-40.7 0-3 .4-11.3-.3-13.5zm125-15.1.1 106.2-.1 51.5c-.1 11.3-.1 22.5.1 33.8 3.4-.3 6.7-.8 10-1.5l.5-.3c.8-4 .3-14.2.3-18.8 0-14.6-.1-29.3-.3-43.9l-.1-122.4c-3.2-1.8-7-2.9-10.5-4.6m160 173.2L279.3 358c-12.3 1.8-24.6 3.6-36.9 5.2-6.3.8-12.6 1.5-18.9 2.5-.1 4-.7 13.5.2 17 9.7-2.4 19.4-4.5 29.1-6.7 19.5-4.6 39-9 58.6-13.2l43.5-8.6c14.9-3.1 29.8-6.1 44.8-9l12.6-2.6c2.5-.5 5.1-1.2 7.6-1.4.1-1.4.5-4.7-.3-5.9M277.3 169.5V284c0 22.4-.3 44.8 0 67.2 3.2-.6 6.4-1.1 9.7-1.6l.6-.2c.9-2.8.3-13.2.3-16.7l.1-26-.1-132.9c-3.5-1.6-7-3.1-10.6-4.3m-54.1-45.2c0 5.2-.1 10.4 0 15.6l196.9 82.4V219q-70.8-34.8-142.2-68.4c-11.6-5.5-23.2-11.1-34.7-16.8-6.6-3.2-13.1-6.9-20-9.5M92.8 339.1c0 3.8-.1 7.6 0 11.4 29.8 8 59.8 15.6 89.8 22.9 6.3 1.5 12.6 3.1 18.8 4.8 5 1.4 9.9 3.1 15 4.1.3-5.4.1-10.9.1-16.3-7.2-1.9-14.5-3.3-21.8-4.9-9.7-2.2-19.4-4.4-29.1-6.5-24.2-5.5-48.4-10.6-72.8-15.5m201.7-162.9v172c3-.6 6.1-.9 9.1-1.4l.3-.2c.6-5.5.3-12.4.2-18.1-.1-10.8-.1-21.7-.1-32.5l.1-115.9c-3.1-1.2-6.5-2.3-9.6-3.9m15.7 6.7c-.1 22-.1 44.1.1 66.1v96.8c2.8-.4 5.7-.6 8.5-1.2l.4-.2c.9-4.3.2-9.9.1-14.4v-27.1l-.1-116.4c-3-1.1-6.2-2.1-9-3.6m-94.8-57.8c-22.9 9.8-45.9 19.3-69 28.6-17.7 7.3-35.7 14.2-53 22.5 0 3.3-.1 6.6 0 9.9 6.4-2.4 12.9-4.7 19.2-7.4l6.7-2.7c-.1-1.8-.4-4.4 1-5.8.3-.3.4-.3.7-.3.6.4.9 1.1 1 1.9.2 1 0 2.3 0 3.3l13.2-5c-.1-1.8-.5-4 .8-5.5.3-.4.5-.5.9-.6.6.4.9.8 1 1.5.3 1 0 2.4-.1 3.4 3-1.1 5.9-2.2 8.9-3.2l-.2-4.5c1.1-.2 2.2-.5 3.3-.6.1 1.2.1 2.4.1 3.6 2.5-.8 5-1.7 7.5-2.6-.1-1.8-.5-5 .9-6.5.5-.5.5-.5 1.1-.4.7.6 1 1.6 1.1 2.5.1 1 0 2.1 0 3.1 5.1-2.1 10.4-3.8 15.5-5.9-.2-2-.6-4.8.8-6.5.3-.4.5-.5 1-.6.6.3.9.6 1.2 1.2.6 1.5.4 3.2.3 4.7 12.1-4.8 24.3-9.3 36.4-14.2.1-4.5.5-9.3-.1-13.7-.2-.2 0-.2-.2-.2m109.5 63.8v93.4c0 20.5-.2 41 0 61.5 2.6-.5 5.3-.9 7.9-1.2l.5-.2c.6-2.8.2-7.8.2-10.9l.1-24.5-.1-78.2c0-12-.4-24.1-.1-36.2-2.7-1.3-5.7-2.3-8.5-3.7m-167.6-20.4-6.4 2.6-.2 170.5c0 .8-.1 1.9.4 2.5l.7.1 5.9 1.2.1-171.4c0-1.1.3-4.6-.3-5.4zm-12.8 4.9c-2.2.8-4.4 1.7-6.6 2.4-.3 6.7-.1 13.4-.1 20l.1 34.5.1 70.2c0 11.2-.3 22.4-.2 33.5 0 1.5-.3 6.4.6 7.5.5.1 1 .3 1.5.3l5 .9V187.2c0-3.2.6-11.2-.1-13.7zm194.9 21.3v146.9c2.4-.4 4.8-.9 7.1-1.2l.5-.3c.7-2.6.2-7.6.2-10.5l-.1-23.1-.1-108.7c-2.5-.9-5.2-1.9-7.6-3.1m13.2 5.3-.1 87.3q-.15 26.1 0 52.2l6.9-1c.7-1 .6-3.8.6-5 .1-4.5-.1-9.1-.1-13.6l.1-29.9c.2-28.8.2-57.7.1-86.5-2.4-1.2-4.9-2.4-7.5-3.5m12.5 5.6V292c0 15.2-.2 30.5 0 45.7 2.2-.3 4.5-.6 6.7-1 .4-6.1.1-12.5.1-18.6l.1-36.5.1-50.2c0-7.7.1-15.4-.1-23.1-2.3-.9-4.6-1.9-6.9-2.7m11.6 4.6-.2 74.6c-.1 17-.5 34.1.1 51.1 1.9-.3 3.9-.6 5.8-.9.6-.7.4-2.9.5-3.9.2-6.9 0-13.8 0-20.7l.1-41.2c0-18.8.5-37.7 0-56.6-2.1-.7-4.2-1.6-6.3-2.4m10.7 4.6c-.2 20.8 0 41.5 0 62.3 0 19.1-.2 38.2.1 57.3 1.8-.2 3.7-.6 5.5-.7.4-.6.4-1.2.4-1.9.1-3.1-.1-6.2-.1-9.2V217.4c-2-.8-3.9-1.7-5.9-2.6m10.2 4.6-.1 113.5c1.5-.2 3.1-.4 4.6-.7l.4-.3c.7-3.3.3-7.4.3-10.8v-18.2c.1-27.2 0-54.3-.2-81.5-1.6-.7-3.3-1.3-5-2m9.2 3.5c0 9.1 0 18.2-.1 27.3l.1 51.6c0 9.9-.3 20 .1 29.9 1.4-.3 2.8-.5 4.2-.7l.4-.2c.7-2.7.2-6.3.2-9.1l-.1-16.8q.3-39.9 0-79.8c-1.6-.8-3.2-1.5-4.8-2.2m9.2 4c-.1 18.9-.1 37.9 0 56.8 0 15.4-.1 30.9.1 46.3 1.3-.2 2.6-.3 3.9-.6.4-3.8.3-7.7.3-11.4l-.1-19.2v-45.5c0-8.2-.1-16.5 0-24.8-1.4-.5-2.8-1-4.2-1.6m-306.1-53.6c.3 0 .9.1 1.2.2.3.2.6.4.7.7.3.8-.3 1.6-.7 2.3-.4 0-.8-.1-1.2-.1-.3-.2-.6-.3-.7-.7-.2-.9.3-1.6.7-2.4m-5 1.3c.3.2.7.4.9.6.3.3.5.8.5 1.3-.1 1.1-.8 1.6-1.5 2.3-.3-.2-.6-.3-.9-.6-.4-.4-.6-.9-.6-1.4.2-.9.9-1.6 1.6-2.2m-6.6 2.6c.6.2 1.3.4 1.6 1 .2.3.3.7.2 1-.2 1-.8 1.4-1.6 2-.5-.2-1-.3-1.3-.7-.4-.5-.6-.8-.5-1.4.2-1.1.9-1.5 1.6-1.9m100.2-40.9c.5.2.9.4 1.2.8l.2.2c0 .1.1.1.1.2s.1.2.1.2c0 .1.1.2.1.2 0 .1 0 .2.1.2v.9c-.2 1.2-.9 1.8-1.8 2.4-.7-.2-1.4-.4-1.9-1-.3-.5-.4-.9-.3-1.5.3-1.3 1.2-2 2.2-2.6m-8.3 3.3c.5.1 1 .2 1.4.6.5.4.7 1 .7 1.6 0 1.4-.7 2.2-1.6 3.1-.7-.1-1.3-.1-1.8-.7-.4-.5-.5-1.1-.4-1.7.2-1.4.7-2.1 1.7-2.9m17.9-9.3c.7 0 1.3 0 2 .1.8.2 1.6.8 2 1.6.7 1.2.5 2.8.1 4-.7 2.1-2.1 3.6-4.1 4.6l-.3-.1c-1.4-.3-2.7-.7-3.5-2-.7-1.1-.7-2.5-.3-3.7.7-2.3 2.1-3.5 4.1-4.5M96.3 342.5c.3.1.6.2.8.4.6.4.9 1.2 1 1.8.2 1.4-.3 2.7-1.1 3.8-.4-.2-.3-.1-.7-.4-.6-.4-.9-1.2-1.1-1.9-.3-1.5.2-2.6 1.1-3.7m108.9 24.3c2.6.4 5 1.1 7.5 1.8v9.3c-2.5-.4-5.1-1.2-7.5-1.8q-.15-4.65 0-9.3m24.4-235.9c1.3.2 2.2.5 3.1 1.4l.3.3c.1.1.2.2.3.4.1.1.2.3.2.4.1.1.1.3.2.4s.1.3.1.4.1.3.1.4v1c-.1 1.6-.8 2.5-1.9 3.5-1.1 0-1.9-.2-2.7-1-1-1-1.4-2.4-1.4-3.7.1-1.5.6-2.4 1.7-3.5m1.2 239.2c.5 0 1.1 0 1.6.3.6.3.9 1 1.1 1.6.4 1.2.2 2.7-.5 3.8-.5.8-1 1-1.9 1.2-.8 0-1.7.1-2.3-.6-1.2-1.2-.6-4-.5-5.5.9-.4 1.7-.6 2.5-.8M130.9 255c.2-.1.4 0 .7 0 .8 1.4.3 5 .3 6.7-1.8.3-3.6.6-5.4.8-.6 0-.3.1-.8-.2-.8-1.8-.4-4.5-.3-6.4zm.3-21.7.3.2c.8 1.4.3 5.1.3 6.8-2 .2-4 .8-6 1.2l-.4-.1c-.5-2-.3-4.5-.2-6.6 2-.6 4-1 6-1.5m39.5 15.2c.6-.1.9-.2 1.4.1.9 1.6.4 4.8.3 6.6-2.1.3-4.2.7-6.2 1.1-.5.1-.6.2-1.1 0-.9-1.8-.4-4.8-.3-6.8zm1.4-23.7.1.1c1 1.2.4 5.6.3 7.1l-7.4 1.6-.3-.3c-.9-1.1-.3-5.1-.3-6.6 2.5-.6 5.1-1.2 7.6-1.9m-56.2 12.4c.2 0 .5.1.7.1.9 1.3.4 4.6.3 6.1-5 1.5-10.3 2.4-15.5 3.5h-.7l-.4-.4c-.6-1.9-.2-4 0-5.9 5.1-1.3 10.4-2.6 15.6-3.4m-.5 20.7c.4-.1.7-.1 1.1 0 1 1.1.5 4.9.5 6.3-4.8 1.5-10.3 1.9-15.3 2.8-.5.1-.7.2-1.2 0-1-1.5-.4-4.6-.2-6.4 5-1.1 10.1-1.8 15.1-2.7m88.9-15.2c.6 0 .6-.1 1.1.2.8 2 .3 5 .2 7.1-6.8 1.5-13.8 2.3-20.7 3.5-.4.1-.7 0-1.1-.1-1.1-1.5-.6-5-.5-6.9 6.9-1.5 14-2.5 21-3.8m.6-25.5.5.2c.8 2 .3 5.3.2 7.5-7.1 1.7-14.4 3.1-21.5 4.7l-.5-.3c-.9-1.9-.4-4.8-.4-6.9 7.2-1.9 14.5-3.6 21.7-5.2" style="fill:#fff"/></svg>