<svg xmlns="http://www.w3.org/2000/svg" xml:space="preserve" viewBox="0 0 512 512"><linearGradient id="dockprobe_svg__a" x1="11.497" x2="500.503" y1="256" y2="256" gradientUnits="userSpaceOnUse"><stop offset="0" style="stop-color:#4e984d"/><stop offset="1" style="stop-color:#4e984d"/></linearGradient><path d="M422.9 512H89.1c-42.9 0-77.6-34.7-77.6-77.6V77.6C11.5 34.7 46.2 0 89.1 0h333.8c42.9 0 77.6 34.7 77.6 77.6v356.8c0 42.9-34.7 77.6-77.6 77.6" style="fill:url(#dockprobe_svg__a)"/><path d="M455.3 302.3v-92.6c0-42.6-22.7-81.9-59.6-103.2l-80.2-46.3c-36.9-21.3-82.3-21.3-119.1 0l-80.2 46.3c-36.9 21.3-59.6 60.6-59.6 103.2v92.6c0 42.6 22.7 81.9 59.6 103.2l80.2 46.3c36.9 21.3 82.3 21.3 119.1 0l80.2-46.3c36.9-21.3 59.6-60.7 59.6-103.2" style="fill:#fff"/><path d="M283.5 164.4H181.1c-24.4 0-44.2 19.8-44.2 44.2v94.7c0 24.4 19.8 44.2 44.2 44.2h102.5c50.6 0 91.6-41 91.6-91.6-.1-50.5-41.1-91.5-91.7-91.5m2.3 130.3h-98.4v-77.4h98.4c21.4 0 38.7 17.3 38.7 38.7s-17.3 38.7-38.7 38.7" style="fill:#24d489"/></svg>