<svg xmlns="http://www.w3.org/2000/svg" xml:space="preserve" viewBox="0 0 640 640"><linearGradient id="dockge_svg__a" x1="-68.923" x2="140.067" y1="744.781" y2="944.831" gradientTransform="translate(401.442 -308.253)scale(.9111)" gradientUnits="userSpaceOnUse"><stop offset="0" style="stop-color:#74c2ff"/><stop offset="1" style="stop-color:#86e6a9"/></linearGradient><path d="M448.9 184.1c26.5 27.2 37.4 38.7 69.7 85.3s59.9 132.6-15.4 191.4c-9.4 7.3-20.1 14.5-32 21.1-82.9 47-218.3 73.4-309.4 8.4-104-74.3-96.1-237.4 17-337s243.5 3.6 270.1 30.8" style="fill:url(#dockge_svg__a)"/><path d="M294.8 617.8c-70.2 0-133.4-18.9-184.4-55.3-34-24.3-60.9-55.3-79.9-92.2-17.8-34.6-27.9-72.6-30-113.1C-2 309 7.5 259 27.8 212.5c20.6-47.2 52.6-90.6 92.5-125.8 71.5-63 161.8-80.6 254.2-49.7 60 20.1 111.7 58.3 137.8 85l.1.1c29.1 29.8 43.4 45.2 79.1 96.8 16.8 24.3 45.5 74.6 48.3 137.7 3 68.6-26.1 130.4-82.1 174-12.9 10.1-27.4 19.7-42.9 28.4-56.3 31.9-123.2 52.3-188.3 57.4-10.7 1-21.3 1.4-31.7 1.4m-8.3-418.3c-22.2 0-37.1 9.8-49.1 20.3-39.9 35.1-62.3 83.1-60 128.4 1.1 21 8.2 50.2 35.9 70 30.6 21.8 70.9 23.8 99.3 21.6 38.6-3 81.5-16.1 114.8-34.9l.3-.2c7.8-4.4 14.8-9 20.8-13.7 24.9-19.4 12.2-49.4-2.9-71.1-28.7-41.5-36-49-60.2-73.8-5.7-5.8-33.6-29.5-67.3-40.8-12-4.1-22.4-5.8-31.6-5.8" style="opacity:.51;fill:#f2f2f2"/></svg>