<?xml version="1.0" encoding="utf-8"?>
<!-- Generator: Adobe Illustrator 28.2.0, SVG Export Plug-In . SVG Version: 6.00 Build 0)  -->
<svg version="1.1" id="Layer_1" xmlns="http://www.w3.org/2000/svg" xmlns:xlink="http://www.w3.org/1999/xlink" x="0px" y="0px"
	 viewBox="0 0 640 640" style="enable-background:new 0 0 640 640;" xml:space="preserve">
<style type="text/css">
	.st0{fill:url(#SVGID_1_);}
	.st1{opacity:0.51;fill:#F2F2F2;}
</style>
<linearGradient id="SVGID_1_" gradientUnits="userSpaceOnUse" x1="-68.9229" y1="744.781" x2="140.0672" y2="944.8306" gradientTransform="matrix(0.9111 0 0 0.9111 401.4419 -308.2532)">
	<stop  offset="0" style="stop-color:#74C2FF"/>
	<stop  offset="1" style="stop-color:#86E6A9"/>
</linearGradient>
<path class="st0" d="M448.9,184.1c26.5,27.2,37.4,38.7,69.7,85.3s59.9,132.6-15.4,191.4c-9.4,7.3-20.1,14.5-32,21.1
	c-82.9,47-218.3,73.4-309.4,8.4c-104-74.3-96.1-237.4,17-337S422.3,156.9,448.9,184.1z"/>
<path class="st1" d="M294.8,617.8c-70.2,0-133.4-18.9-184.4-55.3c-34-24.3-60.9-55.3-79.9-92.2c-17.8-34.6-27.9-72.6-30-113.1
	c-2.5-48.2,7-98.2,27.3-144.7c20.6-47.2,52.6-90.6,92.5-125.8c71.5-63,161.8-80.6,254.2-49.7c60,20.1,111.7,58.3,137.8,85l0.1,0.1
	c29.1,29.8,43.4,45.2,79.1,96.8c16.8,24.3,45.5,74.6,48.3,137.7c3,68.6-26.1,130.4-82.1,174c-12.9,10.1-27.4,19.7-42.9,28.4
	c-56.3,31.9-123.2,52.3-188.3,57.4C315.8,617.4,305.2,617.8,294.8,617.8z M286.5,199.5c-22.2,0-37.1,9.8-49.1,20.3
	c-39.9,35.1-62.3,83.1-60,128.4c1.1,21,8.2,50.2,35.9,70c30.6,21.8,70.9,23.8,99.3,21.6c38.6-3,81.5-16.1,114.8-34.9l0.3-0.2
	c7.8-4.4,14.8-9,20.8-13.7c24.9-19.4,12.2-49.4-2.9-71.1c-28.7-41.5-36-49-60.2-73.8c-5.7-5.8-33.6-29.5-67.3-40.8
	C306.1,201.2,295.7,199.5,286.5,199.5z"/>
</svg>
