<svg xmlns="http://www.w3.org/2000/svg" xml:space="preserve" viewBox="0 0 512 512"><path d="M434 0H71.8C32.2 0 0 32.2 0 71.8V434c0 43.1 34.9 78 78 78h356c43.1 0 78-34.9 78-78V78c0-43.1-34.9-78-78-78M264.5 437.4 121.1 434c-11.5-.3-20.6-10-20.6-21.8V110.6c0-12.3 9.7-22.3 21.6-22.3h52.7c13 0 23.6 10.9 23.7 24.3l.8 204.1q0 2.7.9 5.1c2.7 7.8 10.3 14.5 23 14.2h15c12.8 0 15.6 2.2 21.1 9.8.5.6.9 1.3 1.3 2l31 54.8c10.1 17.3-7.6 35.3-27.1 34.8m147-102.4c-4.3 12-18.4 17-28.3 8.9L331.4 304c-1.6-1-4.9-3.2-7.3-7.3-3.2-5.5-2.7-10.9-2.5-12.7.3-5 2-11.8 1.8-20.4-.2-13.7-1.8-22.8-4.3-33.4-2.6-11.1-4.7-19.7-11.8-27.5-10.1-10.9-23.8-13.2-30-13.8l-45.7-.7c-14.2-1.1-23-15.7-17.1-28.5 8.7-19.1 18.6-38.4 26.4-57.4 3-7.4 10-12.5 18-13.3 24.6-2.3 75.8-1.6 115.3 32.7 33.4 29 39.7 69.9 44 93.9 7.9 44 3.6 91.2-6.7 119.4"/></svg>