<svg xmlns="http://www.w3.org/2000/svg" xml:space="preserve" viewBox="0 0 512 512"><path d="M504.2 193.5c34.5 137-48.6 276.1-185.6 310.7S42.5 455.7 7.9 318.7 56.3 42.5 193.3 7.9c137-34.7 276.2 48.3 310.9 185.3" style="fill:#1c2d61"/><path d="M437.5 210.5c25.1 99.7-35.3 200.8-135 225.9s-200.8-35.3-226-134.9 35.2-200.8 134.8-226c99.7-25.2 201 35.2 226.2 134.8" style="fill:#f0f8ff"/><path d="m398.5 29.5-7.8-.9c-13.5-1.5-26 8.1-27.7 21.6l-14.5 110.9c-31.6-34.1-79.3-50.2-126.4-37.7-70 18.5-112.5 92.9-94.8 166.3s88.8 117.7 159 99.3c12.5-3.3 24.1-8.3 34.6-14.8.4 11.9 9.3 22 21.5 23.4l7.8.9c13.5 1.6 25.9-8.1 27.7-21.6l41.9-320c1.8-13.6-7.8-25.8-21.3-27.4" style="fill:#9c0011"/></svg>