<svg xmlns="http://www.w3.org/2000/svg" xml:space="preserve" viewBox="0 0 512 512"><path d="M256 512C114.8 512 0 397.2 0 256S114.8 0 256 0s256 114.8 256 256-114.8 256-256 256m0-505.7C118.3 6.3 6.3 118.3 6.3 256s112 249.7 249.7 249.7 249.7-112 249.7-249.7S393.7 6.3 256 6.3" style="opacity:.3;fill:#fff"/><path d="M256 428.8c-95.3 0-172.8-77.5-172.8-172.8S160.7 83.2 256 83.2 428.8 160.7 428.8 256 351.3 428.8 256 428.8m0-337.1c-90.6 0-164.3 73.7-164.3 164.3S165.4 420.3 256 420.3 420.3 346.6 420.3 256 346.6 91.7 256 91.7" style="opacity:.6;fill:#fff"/><path d="M256 345.5c-49.4 0-89.5-40.2-89.5-89.5s40.2-89.5 89.5-89.5 89.5 40.2 89.5 89.5-40.1 89.5-89.5 89.5m0-168.5c-43.6 0-79 35.4-79 79s35.4 79 79 79 79-35.4 79-79-35.4-79-79-79" style="opacity:.9;fill:#fff"/><circle cx="256" cy="256" r="31.6" style="fill:#fff"/></svg>