<svg xmlns="http://www.w3.org/2000/svg" xml:space="preserve" viewBox="0 0 512 512"><path d="M356.9 491.1c20.9-5.9 41-16.6 54.1-35.5 13-18.5 16.6-42 16.6-64.7V59.4c0-5.9-.3-11.7-1-17.6 10.4 4.1 18.4 10.8 24 20.3 6.6 10.7 10 24.8 10 42.3v336.7c0 23.7-5.8 41.4-17.4 53.2Q425.8 512 390.7 512H263.5c3-.5 6-1.1 9.1-1.6 26.5-4.7 54.6-11.2 84.1-19.3z" style="fill:#c9191e"/><path d="M51.3 434.1V97c0-20.5 5.5-36.1 16.5-46.6C79 39.8 93.8 34 112.2 32.9c27.2-1.7 52.9-3.9 77.2-6.8 24.3-3 47.5-6.5 69.7-10.4 22.3-3.9 44.1-8.3 65.2-13.1 21.7-5.1 38.4-2.6 50 7.7s17.4 26.6 17.4 49.1v331.5c0 19.8-3.4 34.5-10.2 44.2-6.8 9.8-18.3 17-34.4 21.5-28.7 7.8-55.7 14-81.1 18.6-25.4 4.7-50.1 8.2-74.3 10.6s-48.9 4.3-74.3 5.7c-21 1.2-37.3-3.2-48.9-13.1-11.4-9.9-17.2-24.7-17.2-44.3m83-275.9c33.2-2.1 63.7-5.4 91.4-9.8 6.7-1.1 13.4-2.2 20.1-3.4 7-1.2 12-7.3 12-14.4 0-9.2-8.3-16.1-17.3-14.5-5.2.9-10.4 1.7-15.6 2.6-27.4 4.4-57.7 7.6-90.9 9.7-5 .3-8.9 1.9-11.5 5-2.4 2.9-3.6 6.4-3.6 10.4 0 4.1 1.4 7.6 4.1 10.5 3.1 2.9 6.9 4.2 11.3 3.9m-.1 75.2c33.3-2.1 63.7-5.4 91.4-9.8q41.7-6.75 82.5-15.9c5.5-1.2 9.7-3.2 11.7-6.2q3-4.35 3-9.9c0-4.1-1.6-7.7-4.6-10.6-3.3-3.1-7.9-3.8-13.4-2.7-25.9 5.9-52.6 11-80 15.4s-57.7 7.6-90.9 9.7c-5 .3-8.9 1.9-11.5 5q-3.6 4.35-3.6 10.2c0 4.2 1.4 7.8 4.1 10.7l.1.1c3.1 2.9 6.9 4.1 11.2 4m.1 75.1c33.3-2.3 63.7-5.6 91.4-10q41.7-6.6 82.5-15.6c5.5-1.2 9.7-3.2 11.7-6.4q3-4.35 3-9.6c0-4.1-1.6-7.7-4.6-10.6-3.3-3.1-7.9-3.8-13.4-2.7-25.9 5.7-52.6 10.8-80 15.2q-41.1 6.6-90.9 9.9c-5 .3-8.9 1.9-11.5 5q-3.6 4.35-3.6 10.2c0 4.2 1.4 7.8 4.1 10.7l.1.1c3 2.7 6.8 4 11.2 3.8m91.4 64.7c-27.7 4.4-58.2 7.6-91.4 9.8-4.4.3-8.2-1-11.1-3.9-2.7-2.9-4.1-6.4-4.1-10.5 0-4 1.2-7.5 3.6-10.4 2.5-3.1 6.5-4.6 11.5-5 33.2-2.1 63.4-5.3 90.9-9.7 5.2-.8 10.4-1.7 15.6-2.6 9-1.5 17.3 5.4 17.3 14.5 0 7.1-5.1 13.2-12 14.4s-13.6 2.3-20.3 3.4" style="fill-rule:evenodd;clip-rule:evenodd;fill:#000091"/></svg>