<svg xmlns="http://www.w3.org/2000/svg" xml:space="preserve" viewBox="0 0 512 512"><path d="M444 512H68c-37.6 0-68-30.4-68-68V68C0 30.4 30.4 0 68 0h376c37.6 0 68 30.4 68 68v376c0 37.6-30.4 68-68 68" style="fill:#a7e575"/><path d="M398.9 197c-.3-37.3-2.6-56-15.3-68.7s-31.4-15-68.5-15.3c-26.4-26-41.3-37.6-59.2-37.6s-32.8 11.6-59.3 37.7c-37.2.3-55.9 2.6-68.5 15.3-12.7 12.7-15 31.4-15.3 68.5-25.9 26.4-37.5 41.2-37.5 59 0 18 11.6 32.8 37.6 59.1.3 37.2 2.6 55.9 15.2 68.5s31.4 14.9 68.6 15.2c26.4 25.9 41.2 37.5 59.1 37.5s32.7-11.6 59.1-37.5c37.2-.3 55.9-2.6 68.6-15.2 12.6-12.6 14.9-31.3 15.2-68.4 25.9-26.4 37.5-41.2 37.5-59.1.2-17.8-11.4-32.6-37.3-59m-20.6 119.2-.4 20.1.1-.1c-.3 4.7-.6 9-1.1 12.8-1.7 12.8-4.8 17.4-7.7 20.1-2.8 2.8-7.4 6-20.1 7.7-4 .5-8.2.9-12.9 1.1l.1-.1-20.1.4c-5.4.1-10.6 2.2-14.6 5.9l-11.1 10.3c-.8.8-1.6 1.5-2.3 2.1l-1.2 1.1-.5.1-.1.1c-4 3.7-7.5 6.6-10.8 9.2-10.2 7.8-15.6 8.9-19.6 8.9-3.9 0-9.3-1.1-19.6-8.9-4.9-3.8-10.5-8.7-18.2-16l-7.6-7c-4-3.7-9.2-5.7-14.6-5.8l-20.1-.4.1.1c-4.8-.3-9.1-.6-12.9-1.1-12.8-1.7-17.4-4.8-20.1-7.7-2.8-2.8-6-7.4-7.7-20.1-.6-4.1-.9-8.7-1.2-14v-.3l-.4-18.8c-.1-5.4-2.2-10.6-5.9-14.6L114 286.6c-3.7-4.1-6.7-7.7-9.2-11.1-7.8-10.2-8.9-15.6-8.9-19.6 0-3.9 1.1-9.3 8.9-19.6 2.2-3 5-6.3 9-10.6l.6-.6c1-1 2-2.1 3-3.2l4.5-5 5.8-6.2c3.2-3.6 5.3-8.1 5.8-12.8v-.5c0-.5.1-.9.1-1.4l.4-18v-1.3c.3-4.8.6-9.5 1.2-13.7 1.7-12.8 4.8-17.4 7.7-20.1 2.8-2.8 7.4-6 20.1-7.7 4.1-.6 8.7-.9 13.9-1.2h.3c1.9-.1 3.9-.2 6-.2l9.9-.2c1.7 0 3.4 0 5.2-.1 5-.5 9.7-2.7 13.2-6.1l13.9-13.5c4.1-3.7 7.6-6.6 11.2-9.3 10.2-7.8 15.6-8.9 19.6-8.9 3.9 0 9.3 1.1 19.6 8.9 2.8 2.1 5.9 4.7 9.9 8.3h-.2l15.8 14.7c3.6 3.2 8.1 5.3 12.8 5.8h.5c.5 0 .9.1 1.4.1l17.8.4h1.7c4.7.3 9.3.6 13.4 1.2 12.8 1.7 17.4 4.8 20.1 7.7 2.8 2.8 6 7.4 7.7 20.1.6 4.2.9 8.8 1.2 13.9l.4 19.1c.1 5.4 2.2 10.6 5.9 14.6l10.5 11.3c1 1 2 2.1 2.8 3l.7 1.1c4 4.4 6.7 7.7 9 10.7 7.8 10.2 8.9 15.6 8.9 19.6 0 3.9-1.1 9.3-8.9 19.6-2.2 3-5 6.3-9 10.6l-.6.6c-.5.5-.9 1-1.4 1.5s-1 1-1.5 1.6l-10.5 11.3c-3.7 4.2-5.8 9.4-5.9 14.8m-30.6-98.1c-.2-23.8-1.7-35.8-9.8-44-8.1-8.1-20.1-9.6-43.8-9.8-16.9-16.6-26.4-24-37.9-24s-21 7.4-37.8 23.9c-23.9.2-35.9 1.7-44.1 9.8-8.2 8.2-9.6 20.2-9.8 44v.1c-16.5 16.8-23.9 26.2-23.9 37.8 0 11.5 7.4 21 24.1 38 .2 23.7 1.7 35.6 9.8 43.6 8.1 8.1 20.1 9.6 43.6 9.8l.1.1h.1c16.9 16.5 26.3 23.9 37.8 23.9s21-7.4 37.9-24c23.7-.2 35.7-1.7 43.7-9.8 8.2-8.2 9.6-20.1 9.8-43.9 16.5-16.9 23.9-26.3 23.9-37.8.2-11.4-7.2-20.9-23.7-37.7m-66.3 113.1-.4.3c-7.5 7.4-12.1 11.8-16.4 15.1-.1.1-.1.1-.4.3-5.5 4.2-7.5 4.2-8.2 4.2-.6 0-2.6 0-8-4.2l-.1-.1-.4-.4h-.2c-.1-.1-.2-.1-.3-.3-4-3.2-8.6-7.5-15.5-14.3l-1.1-1c-2.5-2.3-5.7-3.6-9-3.7l-2.9-.1c-8.3-.1-15-.3-20.3-.9l-.1-.1h-.2l-.1-.1h-.2c-7-.9-8.3-2.4-8.7-2.9-.5-.5-1.8-1.9-2.9-8.6v-.5l-.1-.1v-.1l-.1-.1v-.2c-.6-5.3-.8-12-.9-20.4l-.1-2.3c0-.6-.1-1.3-.2-1.9-.5-2.2-1.6-4.3-3.2-6.1l-7.8-9c-3.8-4-6.2-6.7-8.1-9.2l-.1-.1-.1-.1-.1-.2c-4.2-5.5-4.2-7.5-4.2-8.2s0-2.7 4.2-8.1c.1-.1.3-.3.4-.5l14.9-16.4c2.2-2.4 3.5-5.5 3.7-8.8l.8-12.9c.1-4.5.3-7.8.7-10.6l.1-.7.1-.1v-.4c.9-7 2.4-8.3 2.9-8.7.4-.4 1.7-1.7 7.9-2.7l23.2-1.1c2.7-.2 5.2-1 7.4-2.5 1.7-.7 3.3-1.6 4.5-2.8l14-12.8 1.8-1.5.1-.1c.1 0 .2-.1.2-.1 5.5-4.2 7.5-4.2 8.2-4.2s2.5 0 7.4 3.6h-.1l17.2 15.6c1.3 1.2 2.9 2.2 4.6 2.8 2.1 1.3 4.5 2 6.9 2.1l23.5 1.1c6.3.9 7.4 2.3 7.8 2.7s1.8 1.8 2.8 8l-.1-.1 1.1 25c.1 2.6.9 5 2.2 7.1l1.5 1.5.4.4c.1.2.3.3.4.5l15 16.3c.1.2.2.3.3.4 4.2 5.5 4.2 7.5 4.2 8.2s0 2.7-4.2 8.2l-.1.1v.1l-.1.1-1 1.3c-1.8 2.3-4 4.7-6.6 7.5l-8.3 9.4c-2.1 2.3-3.4 5.5-3.6 8.8l-1.1 23.3c-.9 6.8-2.3 8-2.8 8.5s-1.9 1.8-8.7 2.9l-.4.1h-.9c-3.2.4-6.9.6-12.1.7l-11.1.7c-3.2-.1-6.3 1.2-8.8 3.4"/></svg>