<?xml version="1.0" encoding="utf-8"?>
<!-- Generator: Adobe Illustrator 28.2.0, SVG Export Plug-In . SVG Version: 6.00 Build 0)  -->
<svg version="1.1" id="Layer_1" xmlns="http://www.w3.org/2000/svg" xmlns:xlink="http://www.w3.org/1999/xlink" x="0px" y="0px"
	 viewBox="0 0 512 512" style="enable-background:new 0 0 512 512;" xml:space="preserve">
<style type="text/css">
	.st0{fill:#AA968C;}
	.st1{fill:#C8AF9B;}
	.st2{fill:#464655;}
	.st3{fill:#8C7873;}
</style>
<path class="st0" d="M492.6,318.3c0.2-0.5,0.3-1,0.5-1.5c0.4-1.2,0.7-2.3,1.1-3.5c0.2-0.6,0.4-1.2,0.6-1.9c0.4-1.2,0.7-2.5,1.1-3.7
	c0.2-0.8,0.5-1.7,0.7-2.5c0.3-1.2,0.6-2.4,0.9-3.6c0.2-0.8,0.4-1.6,0.6-2.3c0.2-0.9,0.4-1.9,0.6-2.8c0.2-0.8,0.4-1.6,0.5-2.4
	c0.2-1,0.4-2,0.6-3.1c0.1-0.7,0.3-1.4,0.4-2.1c0.3-1.6,0.6-3.2,0.8-4.8c0.1-0.7,0.2-1.4,0.3-2.1c0.2-1.1,0.3-2.2,0.5-3.3
	c0.1-0.7,0.2-1.4,0.3-2.1c0.1-1.2,0.3-2.3,0.4-3.5c0.1-0.6,0.1-1.2,0.2-1.8c0.2-1.7,0.3-3.4,0.5-5.2c0-0.4,0.1-0.8,0.1-1.2
	c0.1-1.4,0.2-2.8,0.3-4.2c0-0.6,0.1-1.2,0.1-1.8c0.1-1.3,0.1-2.6,0.2-3.8c0-0.6,0-1.1,0.1-1.7c0-1.8,0.1-3.6,0.1-5.4
	c0-128.1-111-224-248-224c-36.4,0-70.9,6.8-102.1,19.1c-3.7,1.5-7.3,3-10.8,4.6c-1.8,0.8-3.6,1.6-5.3,2.5c-3.5,1.7-7,3.4-10.4,5.3
	c-13.6,7.3-26.4,15.8-38.2,25.2c-4.4,3.6-8.7,7.3-12.8,11.1c-2.7,2.6-5.4,5.2-8,7.9c-2.6,2.7-5.1,5.4-7.6,8.2
	c-4.9,5.6-9.5,11.4-13.8,17.5c-2.2,3-4.2,6.1-6.2,9.2c-1,1.6-2,3.1-2.9,4.7c-1.9,3.2-3.7,6.4-5.5,9.7c-1.7,3.3-3.4,6.6-5,10
	c-1.6,3.4-3,6.8-4.4,10.3c-0.7,1.7-1.4,3.5-2,5.2c-5.2,14-8.9,28.8-11,44.1C8.7,228.2,8,238,8,248c0,1.8,0,3.6,0.1,5.4
	c0,0.6,0,1.1,0.1,1.7c0,1.3,0.1,2.6,0.2,3.8c0,0.6,0.1,1.2,0.1,1.8c0.1,1.4,0.2,2.8,0.3,4.2c0,0.4,0.1,0.8,0.1,1.2
	c0.1,1.7,0.3,3.5,0.5,5.2c0.1,0.6,0.1,1.2,0.2,1.8c0.1,1.2,0.3,2.3,0.4,3.5c0.1,0.7,0.2,1.4,0.3,2.1c0.2,1.1,0.3,2.2,0.5,3.3
	c0.1,0.7,0.2,1.4,0.3,2c0.3,1.6,0.5,3.2,0.8,4.8c0.1,0.7,0.3,1.4,0.4,2.1c0.2,1,0.4,2,0.6,3.1c0.2,0.8,0.3,1.6,0.5,2.4
	c0.2,0.9,0.4,1.9,0.6,2.8c0.2,0.8,0.4,1.6,0.6,2.3c0.3,1.2,0.6,2.4,0.9,3.6c0.2,0.8,0.4,1.7,0.7,2.5c0.3,1.2,0.7,2.5,1.1,3.7
	c0.2,0.6,0.4,1.2,0.6,1.9c0.4,1.2,0.7,2.3,1.1,3.5c0.2,0.5,0.3,1,0.5,1.5c0.1,0.4,0.2,0.7,0.3,1.1c0,0,0,0,0,0
	C51.7,415,145.4,488,256,488s204.3-73,236.3-168.6c0,0,0,0,0,0C492.4,319,492.5,318.7,492.6,318.3z"/>
<path class="st1" d="M160.8,400c34.4,0,52-48,95.1-48c43.2,0,60.8,48,95.1,48c14.7,0,27.7-5.4,38.6-22.6c1.6-8.2,2.4-16.7,2.4-25.4
	c0-75.1-60.9-136-136-136s-136,60.9-136,136c0,8.9,0.9,17.5,2.5,25.9C133.2,394.7,146.3,400,160.8,400z"/>
<path class="st2" d="M269.9,284.5c-7.7,10.7-20.2,10.7-27.9,0l-12.1-16.9c-7.7-10.7-3.2-19.5,10.1-19.5h32
	c13.2,0,17.7,8.8,10.1,19.5L269.9,284.5z"/>
<circle class="st2" cx="132" cy="204" r="28"/>
<circle class="st2" cx="380" cy="204" r="28"/>
<path class="st3" d="M32,424c-3.2,0-6.2-1.9-7.4-5c-1.6-4.1,0.4-8.8,4.5-10.4l160-64c4.1-1.6,8.8,0.4,10.4,4.5
	c1.6,4.1-0.4,8.8-4.5,10.4l-160,64C34,423.8,33,424,32,424z M16,376c-3.5,0-6.8-2.4-7.7-6c-1.1-4.3,1.4-8.6,5.7-9.8l152-40
	c4.3-1.1,8.6,1.4,9.8,5.7c1.1,4.3-1.4,8.6-5.7,9.8l-152,40C17.4,375.9,16.7,376,16,376z M8,336c-3.8,0-7.2-2.7-7.9-6.6
	c-0.8-4.4,2.1-8.5,6.5-9.3l136-24c4.3-0.8,8.5,2.1,9.3,6.5s-2.1,8.5-6.5,9.3l-136,24C8.9,336,8.5,336,8,336z M480,424
	c3.2,0,6.2-1.9,7.4-5c1.6-4.1-0.4-8.8-4.5-10.4l-160-64c-4.1-1.6-8.8,0.4-10.4,4.5s0.4,8.8,4.5,10.4l160,64
	C478,423.8,479,424,480,424z M496,376c3.5,0,6.8-2.4,7.7-6c1.1-4.3-1.4-8.6-5.7-9.8l-152-40c-4.3-1.1-8.6,1.4-9.8,5.7
	c-1.1,4.3,1.4,8.6,5.7,9.8l152,40C494.6,375.9,495.3,376,496,376z M504,336c3.8,0,7.2-2.7,7.9-6.6c0.8-4.4-2.1-8.5-6.5-9.3l-136-24
	c-4.3-0.8-8.5,2.1-9.3,6.5s2.1,8.5,6.5,9.3l136,24C503.1,336,503.5,336,504,336z"/>
</svg>
