<?xml version="1.0" encoding="utf-8"?>
<!-- Generator: Adobe Illustrator 28.2.0, SVG Export Plug-In . SVG Version: 6.00 Build 0)  -->
<svg version="1.1" id="Layer_1" xmlns="http://www.w3.org/2000/svg" xmlns:xlink="http://www.w3.org/1999/xlink" x="0px" y="0px"
	 viewBox="0 0 512 512" style="enable-background:new 0 0 512 512;" xml:space="preserve">
<style type="text/css">
	.st0{fill:#FFFFFF;}
</style>
<path class="st0" d="M482.5,350.4l-93-24.5c-0.3-1.5-0.6-3.1-1-4.6l99.1,17.5C486.1,342.8,484.4,346.6,482.5,350.4z M469,374.8
	l-77-20.3c-0.1,3.9-0.3,7.7-0.7,11.5l65.4,26.2C461.1,386.6,465.2,380.8,469,374.8z M15.6,312.9C10.7,294.7,8,275.6,8,256
	c0-128.1,111-232,248-232s248,103.9,248,232c0,19.6-2.6,38.7-7.5,56.9L378.1,292c-22.2-45-68.5-76-122.1-76
	c-53.6,0-99.9,31-122.1,76L15.6,312.9z M352,204c0,15.5,12.5,28,28,28c15.5,0,28-12.5,28-28s-12.5-28-28-28
	C364.5,176,352,188.5,352,204z M104,204c0,15.5,12.5,28,28,28s28-12.5,28-28s-12.5-28-28-28S104,188.5,104,204z M120,354.6l-77,20.3
	c3.8,6,7.9,11.8,12.3,17.4l65.5-26.2C120.4,362.2,120.1,358.4,120,354.6z M378.9,390.2c-8.4,7.3-17.7,9.8-27.9,9.8
	c-34.3,0-51.9-48-95.1-48c-43.1,0-60.7,48-95.1,48c-10.1,0-19.5-2.6-27.9-9.8l-58.7,23.5c45.3,45.7,110,74.3,181.8,74.3
	c71.8,0,136.5-28.6,181.8-74.3L378.9,390.2z M24.3,338.8c1.6,3.9,3.3,7.8,5.1,11.6l93-24.5c0.3-1.5,0.6-3.1,1-4.6L24.3,338.8z
	 M282.1,267.6c7.6-10.7,3.1-19.5-10.1-19.5h-32c-13.3,0-17.8,8.8-10.1,19.5l12.1,16.9c7.7,10.7,20.2,10.7,27.9,0L282.1,267.6z
	 M35,423.5l160-64c4.1-1.6,6.1-6.3,4.5-10.4c-1.6-4.1-6.3-6.1-10.4-4.5l-160,64c-4.1,1.6-6.1,6.3-4.5,10.4c1.2,3.1,4.2,5,7.4,5
	C33,424,34,423.8,35,423.5z M18.1,375.7l152-40c4.3-1.2,6.8-5.5,5.7-9.8c-1.2-4.3-5.5-6.8-9.8-5.7l-152,40c-4.3,1.2-6.8,5.5-5.7,9.8
	c0.9,3.6,4.2,6,7.7,6C16.7,376,17.4,375.9,18.1,375.7z M9.4,335.9l136-24c4.4-0.8,7.3-4.9,6.5-9.3s-5-7.3-9.3-6.5l-136,24
	c-4.4,0.8-7.3,4.9-6.5,9.3c0.7,3.9,4.1,6.6,7.9,6.6C8.5,336,8.9,336,9.4,335.9z M477,423.5l-160-64c-4.1-1.6-6.1-6.3-4.5-10.4
	s6.3-6.1,10.4-4.5l160,64c4.1,1.6,6.1,6.3,4.5,10.4c-1.2,3.1-4.2,5-7.4,5C479,424,478,423.8,477,423.5z M493.9,375.7l-152-40
	c-4.3-1.2-6.8-5.5-5.7-9.8c1.2-4.3,5.5-6.8,9.8-5.7l152,40c4.3,1.2,6.8,5.5,5.7,9.8c-0.9,3.6-4.2,6-7.7,6
	C495.3,376,494.6,375.9,493.9,375.7z M502.6,335.9l-136-24c-4.4-0.8-7.3-4.9-6.5-9.3s5-7.3,9.3-6.5l136,24c4.4,0.8,7.3,4.9,6.5,9.3
	c-0.7,3.9-4.1,6.6-7.9,6.6C503.5,336,503.1,336,502.6,335.9z"/>
</svg>
