<svg xmlns="http://www.w3.org/2000/svg" xml:space="preserve" id="dokku_svg__Layer_1" x="0" y="0" version="1.1" viewBox="0 0 512 512"><style>.dokku_svg__st3{fill:#07cbcf}.dokku_svg__st4{fill:#05b7bf}</style><path d="M452.2 184.3c36.4 23.1 45 20.8 53.7 16.2 4.6-2.3 6.9-8.7 4-13.3C498.3 164.7 451 85.6 343 85.6c-90.7 0-145 76.2-161.7 104-3.5 5.2-.6 12.1 5.2 14.4 9.8 2.9 20.2 4 42.7-9.8 74-41.1 223-9.9 223-9.9" style="fill:#f15b55"/><path d="M261.5 217.3c-43.2-30.1-29.3-52.3-16.9-71.8 9.1-14.3 16.9-26.7 4.4-42.9l6.9-5.3c16.1 21 5.5 37.9-4 52.8-12.2 19.4-21.9 34.6 14.6 60zm52.3-20.9c-19.7-30.5-5.8-47.9 9-66.3 13.2-16.4 26.8-33.5 8.1-57l-6.8 5.4c13.7 17.3 6.3 28.3-8.1 46.2-14.5 18.1-32.6 40.7-9.5 76.4zm62.4-8.1c-16.3-26.1 1.2-40 21.4-56.1 17.6-14 37.6-29.9 23.8-54.6l-7.6 4.2c9.7 17.4-1.9 27.9-21.6 43.7-19.5 15.5-43.7 34.8-23.3 67.4zm45.7 10.1c-1.8-24.2 13.8-29.3 31.9-35.3 17.3-5.7 36.8-12.1 36.8-37.7H482c0 19.4-14.3 24.1-30.9 29.5-18.8 6.2-40.2 13.2-37.8 44.2z" style="fill:#ff9580"/><path d="M180.8 192.9c-.6 4.6 1.7 8.7 6.4 10.4 9.8 2.9 20.2 4 42.7-9.8 73.3-41 222.9-9.8 222.9-9.8 36.4 23.1 45 20.8 53.7 16.2 4-2.3 6.4-6.9 5.2-11-60.6-41.6-196.9-82-330.9 4" style="opacity:7.000000e-02"/><path d="M388.1 170.4h-62.4c-68.1 0-104 20.2-130.5 54.3l-25.4 32.9-10.4 13.3c-7.5 10.4-19.6 16.2-32.9 16.2-19.6 0-35.8-13.3-40.4-31.8v-1.2c-.6-4.6 2.9-8.7 7.5-8.7h12.7c21.4 0 38.7-17.3 38.7-38.7v-2.9c0-4-3.5-6.9-6.9-6.9h-37c-15 0-24.8 7.5-28.3 16.2-3.5-8.7-13.9-16.2-28.3-16.2h-37c-4 0-6.9 3.5-6.9 6.9v2.9c0 21.4 17.3 38.7 38.7 38.7H52c4 0 7.5 2.9 8.1 6.9l1.2 9.2C76.2 363.3 164 439 267.4 439h75.1c71 0 132.3-51.4 143.8-121.3l8.7-53.1c8.6-49.7-26-94.2-106.9-94.2" class="dokku_svg__st3"/><path d="M470.1 363.9c-12.1.6-22.5 4.6-35.8 17.9-17.3 17.3-46.2 37-91.3 37h-83.2c-33.5 0-57.2-24.8-57.2-24.8s-19.6 1.2-61.8-23.1C71.5 327 68.6 253.7 68 244.4c-1.2-9.2-5.8-13.9-15.6-13.9H38.1c-25.4 0-31.8-12.1-33.5-34.1-2.9 1.2-4.6 3.5-4.6 6.9v2.9c0 21.4 17.3 38.7 38.7 38.7h12.7c4 0 7.5 2.9 8.1 6.9l1.2 9.2c15 101.6 102.8 177.3 206.2 177.3H342c54.8.1 103.3-29.4 128.1-74.4" class="dokku_svg__st4"/><path d="M86.6 254.2c-.6-4.6 2.9-8.7 7.5-8.7h12.7c21.4 0 38.7-17.3 38.7-38.7v-2.9c0-2.9-1.7-5.8-4.6-6.9-1.7 21.4-8.1 34.1-33.5 34.1H97c-13.8-.6-12.1 15-10.4 23.1" class="dokku_svg__st4"/><path d="M140.9 370.8c15.6 15 7.5 21.4-18.5 21.4H82.6c-6.4 0-9.2 7.5-5.2 12.1l5.2 5.2c15.6 15 35.8 23.7 57.8 23.7h3.5c43.3 0 75.1-43.3 75.1-43.3z" class="dokku_svg__st3"/><path d="M202.7 393.9c-12.1 11.6-32.9 26.6-57.2 26.6H142c-20.2 0-39.3-8.1-53.7-21.9l-4.6-4.6c-.6-.6-1.2-1.2-1.2-1.7-6.4 0-9.2 7.5-5.2 12.1l5.2 5.2c15.6 15 35.8 23.7 57.8 23.7h3.5c27.7 0 51.4-18.5 64.1-31.2l1.7-1.7z" class="dokku_svg__st4"/><path d="M490.3 347.7c0 2.3-1.7 4-4 4h-9.2c-32.3 0-46.2 9.8-61.2 20.8-13.9 11.6-28.9 21.9-60.1 21.9-35.4 0-67.4-23-80.3-57.2h-4c-2.3 0-4-1.7-4-4s1.7-4 4-4h5.2c.8-.2 1.5-.1 2.2 0h10.5c2.3 0 4 1.7 4 4s-1.7 4-4 4h-5.2c12.8 29.1 40.7 48.5 71.6 48.5 28.3 0 41.6-9.2 55.4-19.6 15-11 31.2-22.5 65.8-22.5h9.2c2.4.1 4.1 1.8 4.1 4.1m-108-16.1c0-11.6-9.8-21.4-21.4-21.4s-21.4 9.8-21.4 21.4c0 2.3 1.7 4 4 4s4-1.7 4-4c0-6.9 5.8-12.7 12.7-12.7s12.7 5.8 12.7 12.7c0 2.3 1.7 4 4 4s4.3-1.7 5.4-4" style="fill:#00576c"/><path d="M447 199.3c19.1 12.7 26.6 21.4 43.9 23.1-12.7-30-46.2-52-102.8-52h-62.4c-65.3 0-101.1 18.5-127.1 50.2 16.7 0 34.7-13.9 50.2-21.9 17.9-9.8 42.2-19.1 94.7-19.1s79.3 3.5 103.5 19.7" class="dokku_svg__st4"/></svg>