<svg xmlns="http://www.w3.org/2000/svg" xml:space="preserve" viewBox="0 0 512 512"><linearGradient id="dokuwiki_svg__a" x1="196.304" x2="180.179" y1="964.771" y2="531.886" gradientTransform="matrix(.9899 -.1407 .2011 .9756 -159.115 -449.587)" gradientUnits="userSpaceOnUse"><stop offset="0" style="stop-color:#fbf6f0"/><stop offset="1" style="stop-color:#e9dac7"/></linearGradient><path d="m.9 66.5 280.9-43.2 78.4 428.1-284.5 42z" style="fill-rule:evenodd;clip-rule:evenodd;fill:url(#dokuwiki_svg__a)"/><path d="M75.5 493.8.5 66.2l.4-.1 281.2-43.2.1.3 78.5 428.5-.4.1zM1.3 66.8 76 493l283.8-41.9-78.3-427.4z"/><linearGradient id="dokuwiki_svg__b" x1="648.507" x2="245.987" y1="877.719" y2="516.835" gradientTransform="matrix(.9999 0 0 .996 -158.103 -435.827)" gradientUnits="userSpaceOnUse"><stop offset="0" style="stop-color:#fbfaf9"/><stop offset="1" style="stop-color:#e9dac7"/></linearGradient><path d="m83.8 92.9 320.3-78 106.8 406.4L180 507.6z" style="fill-rule:evenodd;clip-rule:evenodd;fill:url(#dokuwiki_svg__b)"/><path d="m179.6 508.2-.1-.5L83.2 92.6l.5-.1 320.7-78.1.1.5 106.9 406.9-.5.1zM84.4 93.3 180.3 507l330-86.1L403.7 15.5z"/><linearGradient id="dokuwiki_svg__c" x1="196.661" x2="509.892" y1="505.796" y2="925.002" gradientTransform="matrix(.9956 -.09253 .08102 .9927 -158.528 -444.89)" gradientUnits="userSpaceOnUse"><stop offset="0" style="stop-color:#ede1ae"/><stop offset="1" style="stop-color:#fefdfa"/></linearGradient><path d="M59.2 30.2 401.1.5 437 440.4 98.6 461.8z" style="fill-rule:evenodd;clip-rule:evenodd;fill:url(#dokuwiki_svg__c)"/><path d="M98.2 462.3 58.6 29.8h.5L401.6 0l35.9 440.8zM59.7 30.7l39.4 430.6L436.4 440 400.6 1.1z"/><linearGradient id="dokuwiki_svg__d" x1="272.923" x2="287.524" y1="671.858" y2="624.967" gradientTransform="matrix(.9999 0 0 .996 -158.103 -435.827)" gradientUnits="userSpaceOnUse"><stop offset="0" style="stop-color:#e32525;stop-opacity:.816"/><stop offset="1" style="stop-color:#e32525;stop-opacity:.571"/></linearGradient><path d="M66.1 171c-24.3 9.9-40.8 17.7-51.6 25.4-10.9 7.7-12.8 18.4-13 25.1-.1 3.3.3 7.1 2.5 9.8 2.2 2.6 7.3 7.5 11.1 9.5 7.6 4.1 30.3 9.7 42.2 12.3 47.7 10.3 107.5 6.7 107.5 6.7 6.8 5 11.4 11.3 13.1 17.1 18.4-7.5 47.3-26.3 52.7-34.3-21.9-16.8-43.4-25.3-66.2-33.2-6.4-2.9-11.6-4.9-2.9 10.2 4 9.9 3.4 20.2 2.3 29.7 0 0-66.3 1.6-113.3-8.5-11.8-2.5-22-3.8-29-7.6-3.5-1.9-6-3.3-7.7-5.4s-.9-5.2-.8-7.4c.1-4.5 1-6.7 11.5-14.1s22.7-13.4 46.8-23.2c-.4-5.3-1.2-10.2-5.2-12.1" style="fill-rule:evenodd;clip-rule:evenodd;fill:url(#dokuwiki_svg__d)"/><linearGradient id="dokuwiki_svg__e" x1="440.499" x2="452.613" y1="729.961" y2="644.122" gradientTransform="matrix(.9999 0 0 .996 -158.103 -435.827)" gradientUnits="userSpaceOnUse"><stop offset="0" style="stop-color:#25901b;stop-opacity:.837"/><stop offset="1" style="stop-color:#25901b;stop-opacity:.378"/></linearGradient><path d="M446.6 247.5c-5.8-.6-10.4 1.2-10.3 6 3.8 3.4 5.4 9.7 6 12.6.5 2.8.1 4.9-2 7.6-4.2 5.4-12.5 6.3-26.1 10.9-27.1 9.2-67.7 10.1-112 15.4-88.3 10.6-156.5 15-156.5 15 8-18.6 25.4-17.6 25.5-32.8 1.1-3.6-12.6-5.3-20.5-.4-17.1 14.8-30.5 27-42.9 42l7.6 12.3s104.8-11.6 193.3-22.1c44.3-5.3 84-8 111.6-17.3 13.8-4.7 23.9-6 30.7-14.1 2.5-3 5.4-12.2 4.3-18.9-1-5.4-4.7-12.6-8.7-16.2" style="fill-rule:evenodd;clip-rule:evenodd;fill:url(#dokuwiki_svg__e)"/><linearGradient id="dokuwiki_svg__f" x1="607.744" x2="527.36" y1="822.334" y2="687.479" gradientTransform="matrix(.9999 0 0 .996 -158.103 -435.827)" gradientUnits="userSpaceOnUse"><stop offset="0" style="stop-color:#3a9030;stop-opacity:.837"/><stop offset="1" style="stop-color:#3d9c32;stop-opacity:.796"/></linearGradient><path d="M385.3 245.8c-27.5 13-28.7 34.4-23.9 51.1 4.8 16.8 21.1 35 37.4 49.5 32.6 29.2 48.3 37.3 48.3 37.3-14.9-.4-31.7-5.6-32.7 2-3.8 11.9 46.1 13.9 69.9 10.8-5.6-30.3-15.2-52.8-31-59.5-6.8-.6 1.3 18.9 3.1 37.6 0 0-14.6-6.9-46.6-35.6-16-14.3-29.6-29.4-34-44.8s.3-24.5 19.9-38.1c3.9-3.9-5-9.8-10.4-10.3" style="fill-rule:evenodd;clip-rule:evenodd;fill:url(#dokuwiki_svg__f)"/><linearGradient id="dokuwiki_svg__g" x1="384.199" x2="507.822" y1="681.4" y2="863.225" gradientTransform="matrix(.9999 0 0 .996 -158.103 -435.827)" gradientUnits="userSpaceOnUse"><stop offset="0" style="stop-color:#000;stop-opacity:.173"/><stop offset="1" style="stop-color:#c7cec2;stop-opacity:0"/></linearGradient><path d="m223.3 302.7 8.8-57.6 61 24.3L379.3 389l-81.8 36.9z" style="fill:url(#dokuwiki_svg__g)"/><radialGradient id="dokuwiki_svg__h" cx="423.312" cy="661.218" r="34.821" gradientTransform="matrix(.9999 0 0 .9802 -158.103 -432.445)" gradientUnits="userSpaceOnUse"><stop offset="0" style="stop-color:#d69c00"/><stop offset="1" style="stop-color:#ffe658"/></radialGradient><path d="m297.9 242.6-63.9 1.3 12.4-60.5z" style="fill-rule:evenodd;clip-rule:evenodd;fill:url(#dokuwiki_svg__h)"/><path d="M234 244.4c-.1 0-.3-.1-.4-.2s-.1-.3-.1-.4l12.4-60.5c0-.2.2-.3.4-.4.2 0 .4 0 .5.2l51.5 59.2c.1.1.2.4.1.5-.1.2-.3.3-.4.3zm12.7-60-12.1 58.9 62.2-1.3z"/><path d="m254 241.6-17.7.3 3.4-15.9z" style="fill-rule:evenodd;clip-rule:evenodd;fill:#812310"/><linearGradient id="dokuwiki_svg__i" x1="402.454" x2="671.282" y1="560.282" y2="560.282" gradientTransform="matrix(.9999 0 0 .996 -158.103 -435.827)" gradientUnits="userSpaceOnUse"><stop offset="0" style="stop-color:#8f2a15"/><stop offset="1" style="stop-color:#c8381b"/></linearGradient><path d="m445.8 1.8.4 35.7 32.4 34.9 31.1 3.1-211.9 167.1-26.8-13.2-20.4-22.5-4.4-23.6z" style="fill-rule:evenodd;clip-rule:evenodd;fill:url(#dokuwiki_svg__i)"/><path d="M297.8 243.1c-.1 0-.2 0-.2-.1l-26.8-13.2c-.1 0-.1-.1-.1-.1l-20.4-22.5c-.1-.1-.1-.2-.1-.2l-4.4-23.6c0-.2 0-.3.2-.5L445.4 1.5c.1-.1.4-.2.5-.1.2.1.3.3.3.5l.4 35.5L478.7 72l30.9 3.1c.2 0 .4.2.4.4.1.2 0 .4-.2.5L298.1 243c-.1 0-.2.1-.3.1M271.3 229l26.4 13L508.3 75.8l-29.8-3c-.1 0-.2-.1-.3-.2l-32.4-34.9c-.1-.1-.1-.2-.1-.3L445.3 3 246.8 183.5l4.3 23.2z"/><linearGradient id="dokuwiki_svg__j" x1="404.259" x2="637.789" y1="571.014" y2="571.014" gradientTransform="matrix(.9999 0 0 .996 -158.103 -435.827)" gradientUnits="userSpaceOnUse"><stop offset="0" style="stop-color:#ce411e"/><stop offset="1" style="stop-color:#ecad8d"/></linearGradient><path d="m443.9 38 33.5 35.3-205 154.5-19.8-21.8z" style="fill-rule:evenodd;clip-rule:evenodd;fill:url(#dokuwiki_svg__j)"/><path d="m509.6 75.6-32.8-3.5-31.1-34.7.1-36.6 33.6 3 28.9 38.3z" style="fill-rule:evenodd;clip-rule:evenodd;fill:#ffe965"/><path d="M509.6 76.1s-.1 0 0 0l-32.8-3.5c-.1 0-.2-.1-.3-.2l-31.1-34.7c-.1-.1-.1-.2-.1-.3l.1-36.6c0-.1.1-.3.2-.4s.2-.1.4-.1l33.6 3c.1 0 .3.1.4.2l28.9 38.3c.1.1.1.2.1.3l1.3 33.5c0 .1-.1.3-.2.4-.3 0-.4.1-.5.1m-32.5-4.5 32 3.4-1.3-32.7-28.6-38-32.8-2.9-.1 35.8z"/><path d="m491 38.5.7 16.2-15.3-2.9L464.9 39l-1.1-14.1 15.5-.7c-.1.1 11.7 14.3 11.7 14.3" style="fill-rule:evenodd;clip-rule:evenodd;fill:#cb391c"/><linearGradient id="dokuwiki_svg__k" x1="267.765" x2="429.656" y1="766.116" y2="1030.853" gradientTransform="matrix(.9999 0 0 .996 -158.103 -435.827)" gradientUnits="userSpaceOnUse"><stop offset="0" style="stop-color:#000;stop-opacity:.173"/><stop offset="1" style="stop-color:#c7cec2;stop-opacity:0"/></linearGradient><path d="m102.6 391.5 4-65.1 69.3 33.8L280.4 512 163 507.5z" style="fill:url(#dokuwiki_svg__k)"/><linearGradient id="dokuwiki_svg__l" x1="261.502" x2="331.055" y1="788.604" y2="788.604" gradientTransform="matrix(.9999 0 0 .996 -158.103 -435.827)" gradientUnits="userSpaceOnUse"><stop offset="0" style="stop-color:#d69c00"/><stop offset="1" style="stop-color:#ffe658"/></linearGradient><path d="m170.9 318.1-32.3 63-28.3-54.2z" style="fill:url(#dokuwiki_svg__l)"/><path d="M138.7 381.6c-.2 0-.4-.1-.4-.3L110 327.1c-.1-.1-.1-.3 0-.5.1-.1.2-.2.4-.3l60.5-8.8c.2 0 .4.1.5.2.1.2.1.4 0 .5l-32.3 63c-.1.3-.2.4-.4.4m-27.5-54.3 27.5 52.8 31.4-61.3z"/><linearGradient id="dokuwiki_svg__m" x1="293.471" x2="580.79" y1="852.442" y2="852.442" gradientTransform="matrix(.9999 0 0 .996 -158.103 -435.827)" gradientUnits="userSpaceOnUse"><stop offset="0" style="stop-color:#00a423"/><stop offset="1" style="stop-color:#00b427"/></linearGradient><path d="m171.4 318.5 249.1 99.6-31.6 12.9-17.5 37.2 4.7 39.8-237.7-126.9-2-29.5 12.4-23.3z" style="fill:url(#dokuwiki_svg__m)"/><path d="M376.1 508.4c-.1 0-.2 0-.2-.1L138.1 381.6c-.2-.1-.3-.2-.3-.4l-2-29.5c0-.1 0-.2.1-.3l12.4-23.3c.1-.1.1-.2.2-.2l22.7-9.9c.1-.1.3-.1.4 0l249.1 99.6c.2.1.3.3.3.5s-.1.4-.3.5l-31.5 12.8-17.3 36.9 4.7 39.6c0 .2-.1.4-.2.5zM138.9 380.8 375.5 507l-4.6-38.8v-.3l17.5-37.2c.1-.1.1-.2.3-.2l30.5-12.4L171.5 319l-22.3 9.7-12.2 23z"/><radialGradient id="dokuwiki_svg__n" cx="555.663" cy="659.346" r="28.65" gradientTransform="matrix(.9999 0 0 1.6248 -158.103 -608.502)" gradientUnits="userSpaceOnUse"><stop offset="0" style="stop-color:#d69c00"/><stop offset="1" style="stop-color:#ffe658"/></radialGradient><path d="m389 430.4 31.8-12.2 3.4 41-15.7 33.2-32.3 15.1-5.4-38.5z" style="fill:url(#dokuwiki_svg__n)"/><path d="M376.2 507.9c-.1 0-.2 0-.2-.1-.1-.1-.2-.2-.3-.4l-5.4-38.5v-.3l18.2-38.6.3-.3 31.8-12.2c.1-.1.3 0 .4 0 .1.1.2.2.2.4l3.4 41v.3l-15.7 33.2c0 .1-.1.2-.2.2l-32.3 15.1c0 .2-.1.2-.2.2m-4.9-38.9 5.3 37.6 31.5-14.7 15.5-32.9-3.3-40.2-31 11.9z"/><linearGradient id="dokuwiki_svg__o" x1="292.308" x2="548.661" y1="838.2" y2="838.2" gradientTransform="matrix(.9999 0 0 .996 -158.103 -435.827)" gradientUnits="userSpaceOnUse"><stop offset="0" style="stop-color:#00b62b"/><stop offset="1" style="stop-color:#a1d784"/></linearGradient><path d="m150.3 330 237.1 99.1-18.5 39-230.5-115.9z" style="fill:url(#dokuwiki_svg__o)"/><path d="m387.9 465 8.4-16.4 11.9-4.3 2.8 13.5-7.1 15.4-12.7 5.5z" style="fill:#00b527"/><path d="m113.4 328.3 14.3-1.9-8.1 14.2c-.1 0-6.2-12.3-6.2-12.3" style="fill:#258209"/></svg>