<?xml version="1.0" encoding="utf-8"?>
<!-- Generator: Adobe Illustrator 28.2.0, SVG Export Plug-In . SVG Version: 6.00 Build 0)  -->
<svg version="1.1" id="Layer_1" xmlns="http://www.w3.org/2000/svg" xmlns:xlink="http://www.w3.org/1999/xlink" x="0px" y="0px"
	 viewBox="0 0 512 512" style="enable-background:new 0 0 512 512;" xml:space="preserve">
<style type="text/css">
	.st0{fill:#F5F3B5;}
	.st1{fill:#777777;}
	.st2{fill:#E5E5E5;}
	.st3{fill:#27A34A;}
</style>
<rect y="82.1" class="st0" width="511.5" height="329.2"/>
<path class="st1" d="M0,375c102.7,0,205.7-0.1,308.4-0.1c67.7,0,135.2,0,202.9,0c0.2,6.1,0.5,12.2,0.7,18.4
	c-0.2,0.1-0.7,0.3-0.9,0.4c-4.4-0.1-8.9-0.2-13.3-0.2c-161.1,0-322.2,0-483.3,0c-4.9,0-9.6-0.1-14.5-0.2C0,387.2,0,381.1,0,375z
	 M512,411.5c0,5.9,0,11.9,0,18c-3.5,0.2-5.6,0.5-7.9,0.5c-168,0-336.1,0-504.1,0c0.2-6.1,0.5-12.3,0.7-18.3
	c4.9-0.1,9.6-0.2,14.4-0.2c160.6,0,320.9,0,481.5,0c4.9,0,9.6-0.2,14.4-0.2C511.3,411.3,511.8,411.4,512,411.5z"/>
<path class="st2" d="M292.6,411.7c-0.1,6.1-0.2,12.2-0.3,18.2c-24.2,0-48.5,0-72.7,0c-0.1-6.1-0.2-12.2-0.3-18.2
	c0-6.1,0-12.3,0-18.4s-0.1-12.2-0.1-18.3c0.1,0,0.3-0.1,0.4-0.2c24.2,0,48.5,0,72.7,0l0.4,0.2c0,6.1,0,12.2,0,18.3
	C292.6,399.4,292.6,405.5,292.6,411.7z M219.2,118.9c0-6.1,0-12.2,0-18.3c0.1-4.6,0.3-9.1,0.2-13.7c-0.1-2.9,0.6-4.3,3.9-4.2
	c23,0.2,46,0.1,69,0.2c0.1,5.9,0.2,11.8,0.3,17.7c0,6.1,0,12.2,0,18.3c0,14.9,0,29.8,0,44.7c0,64.2,0,128.4-0.1,192.6
	c-0.1,6.2-0.2,12.4-0.3,18.5c-24.2,0-48.5,0-72.7,0c-0.1-6.2-0.2-12.4-0.3-18.6c0-64.2,0-128.4,0-192.6
	C219.2,148.7,219.2,133.8,219.2,118.9z"/>
<path class="st1" d="M219.3,356.3c-1.6,0.1-3.2,0.3-4.9,0.3c-63.6,0-127.2,0-190.8,0c-1.6,0-3.2,0-5.2,0c0-85.4,0-170.4,0-255.7
	c1.1-0.1,2.2-0.4,3.3-0.4c65.1,0,130.2,0,195.2,0c0.7,0,1.5,0.1,2.2,0.1c0,6.1,0,12.2,0,18.3c-1.9,0.1-3.8,0.2-5.8,0.2
	c-45,0-89.9,0-134.9,0c-1.7,0-3.5,0-5.1,0c-2.9,22-15.1,34.1-36.6,36.9c0,48.7,0,97.3,0,145.9c10.1,0.4,18.5,3.9,25.4,10.9
	s10.3,15.6,11,25.3c24.5,0,48.5,0,73,0c0-4,0-7.7,0-11.4c0-7.4-0.7-6.5,6.8-6.6C167,320,181,320,195.1,320c1.4,0,2.8-0.1,4.3-0.2
	c-5.3-5.6-10.8-10.6-15.2-16.3c-16.5-21.5-23-45.9-17.9-72.6c6-31.4,23.9-53.7,52.9-67.2C219.3,227.9,219.3,292.1,219.3,356.3z
	 M292.7,118.9c0-6.1,0-12.2,0-18.3c4,0,8-0.1,12-0.1c61.1,0,122.2,0,183.3,0c1.8,0,3.5,0,5.6,0c0,85.4,0,170.4,0,255.8
	c-1.3,0.1-2.6,0.4-3.9,0.4c-64.4,0-128.7,0-193.1,0c-1.3,0-2.6-0.2-4-0.3c0-64.2,0-128.4,0.1-192.6c7.3,4.5,15.3,8.1,21.7,13.5
	c37.6,31.7,43.8,84.9,14.7,124.5c-4.8,6.5-10.7,12-16.3,18.2c1.3,0.1,2.7,0.2,4.1,0.2c14.9,0.1,29.9,0.2,44.8,0.1
	c3.1,0,4.2,0.9,4.1,4c-0.2,4.6-0.1,9.3-0.1,13.9c24.9,0,48.9,0,73.1,0c0.2-10.1,3.9-18.5,10.7-25.4c6.9-7,15.5-10.5,25.3-10.8
	c0-49,0-97.6,0-145.9c-21.9-2.9-33.9-15.2-36.4-36.9c-1.9,0-3.5,0-5.1,0c-26.9,0-53.9,0-80.8,0C332.6,119,312.6,119,292.7,118.9z"/>
<path class="st3" d="M109.7,301.9c-6.4,0-12.2,0-18.6,0c0-5.5-0.1-11,0-16.4c0.1-2.3-0.6-3.7-2.9-4.7c-6.7-3.2-11-8.7-13.8-16
	c5.8-1.5,11.4-2.9,16.9-4.1c0.7-0.1,1.7,0.9,2.4,1.5c3.2,3,7.8,3.8,11.3,1.8c3.4-1.9,5.1-6.2,4.2-9.9c-1.1-4.1-4.4-6.7-9.2-6.9
	c-22-1.3-34.6-24.6-22.6-42.3c2.6-3.8,6.5-6.9,10.3-9.4c2.5-1.6,3.4-3.1,3.3-5.9c-0.2-5-0.1-10-0.1-15.4c6.2,0,12.2,0,18.6,0
	c0,5.3,0.2,10.5-0.1,15.6c-0.2,3,0.9,4.5,3.5,5.8c6.5,3.2,10.7,8.4,13.3,15.5c-5.5,1.4-10.6,2.8-15.7,3.8c-1.1,0.2-2.7-0.5-3.7-1.3
	c-3.3-3-7.4-3.8-10.9-1.8c-3.8,2.2-5,5.6-4.4,9.8c0.6,4,3.8,6.7,8.5,7.1c12.8,1.1,22.1,6.9,26.3,19.5c4.3,12.9-1.2,26.5-13.4,32.7
	c-2.7,1.4-3.6,2.8-3.5,5.7C109.9,291.3,109.7,296.3,109.7,301.9z M438.9,237.9c0,14.9-12.4,27.3-27.4,27.4
	c-15.1,0.1-27.7-12.5-27.6-27.6c0.1-14.8,12.6-27.3,27.5-27.4C426.4,210.3,438.9,222.7,438.9,237.9z"/>
</svg>
