<?xml version="1.0" encoding="utf-8"?>
<!-- Generator: Adobe Illustrator 28.2.0, SVG Export Plug-In . SVG Version: 6.00 Build 0)  -->
<svg version="1.1" id="Layer_1" xmlns="http://www.w3.org/2000/svg" xmlns:xlink="http://www.w3.org/1999/xlink" x="0px" y="0px"
	 viewBox="0 0 512 512" style="enable-background:new 0 0 512 512;" xml:space="preserve">
<style type="text/css">
	.st0{fill:#F0EDB1;}
	.st1{fill:#F5F2B4;}
	.st2{fill:#777777;}
	.st3{fill:#787777;}
	.st4{fill:#E5E5E5;}
	.st5{fill:#F6F4B5;}
	.st6{fill:#F3F3F3;}
	.st7{fill:#F5F3B5;}
	.st8{fill:#27A34A;}
	.st9{fill:#23A24A;}
</style>
<path class="st0" d="M0.3,374.9c-0.1-1.3-0.2-2.6-0.2-4C0,276.2,0,181.5,0,86.8c0-1.3,0-2.6,0-4.7c1.9,0,3.6,0,5.3,0
	c65.7,0,131.4,0.1,197.1,0.1c29,0,58-0.2,87-0.2c72.8,0,145.6,0,218.4,0.1c1.3,0,2.5,0.4,3.8,0.6c-63.3,0-126.6,0-189.8,0
	c-9.8,0-19.5,0.1-29.3,0.1c-23,0-46,0-69-0.2c-3.3,0-4,1.3-3.9,4.2c0.1,4.6-0.1,9.1-0.2,13.7c-0.7,0-1.5-0.1-2.2-0.1
	c-65.1,0-130.2,0-195.2,0c-1.1,0-2.2,0.2-3.3,0.4c0,85.3,0,170.3,0,255.7c1.9,0,3.6,0,5.2,0c63.6,0,127.2,0,190.8,0
	c1.6,0,3.2-0.2,4.9-0.3c0.1,6.2,0.2,12.4,0.3,18.6c-0.1,0.1-0.3,0.1-0.4,0.2C146.2,375,73.2,374.9,0.3,374.9z"/>
<path class="st1" d="M292.4,82.8c9.8,0,19.5-0.1,29.3-0.1c63.3,0,126.6,0,189.8,0c0.2,1.3,0.4,2.6,0.4,3.9c0,94.9,0,189.9,0,284.8
	c0,1.2-0.1,2.3-0.2,3.5c-29,0-57.9,0-86.9,0c-44,0-88.1,0.1-132.1,0.1c0,0-0.4-0.2-0.4-0.2c0.1-6.2,0.2-12.4,0.3-18.5
	c1.3,0.1,2.6,0.3,4,0.3c64.4,0,128.7,0,193.1,0c1.3,0,2.5-0.2,3.9-0.4c0-85.4,0-170.4,0-255.8c-2.1,0-3.8,0-5.6,0
	c-61.1,0-122.2,0-183.3,0c-4,0-8,0.1-12,0.1C292.6,94.7,292.5,88.8,292.4,82.8z"/>
<path class="st2" d="M0.3,374.9c73,0,145.9,0,218.9,0.1c0,6.1,0.1,12.2,0.1,18.3c-2.1,0.1-4.1,0.2-6.2,0.2
	c-70.9,0-141.9,0-212.8,0.1C0.3,387.3,0.3,381.1,0.3,374.9z"/>
<path class="st2" d="M292.7,375c44,0,88.1-0.1,132.1-0.1c29,0,57.9,0,86.9,0c0.1,6.1,0.2,12.2,0.3,18.4c-0.1,0.1-0.3,0.3-0.4,0.4
	c-1.9-0.1-3.8-0.2-5.7-0.2c-69,0-138,0-207,0c-2.1,0-4.1-0.1-6.2-0.2C292.7,387.2,292.7,381.1,292.7,375z"/>
<path class="st3" d="M219.6,429.9c-72,0-144,0-215.9,0c-1,0-2-0.1-3.5-0.2c0-6.2,0-12.2,0-18.3c71,0,141.9,0,212.9,0
	c2.1,0,4.1,0.1,6.2,0.2C219.4,417.7,219.5,423.8,219.6,429.9z"/>
<path class="st3" d="M512,411.6c0,5.9,0,11.8,0,17.9c-1.5,0.2-2.4,0.5-3.4,0.5c-72.1,0-144.2,0-216.3,0c0.1-6.1,0.2-12.2,0.3-18.2
	c2.1-0.1,4.1-0.2,6.2-0.2c68.9,0,137.7,0,206.6,0c2.1,0,4.1-0.2,6.2-0.2C511.7,411.4,511.9,411.5,512,411.6z"/>
<path class="st4" d="M292.6,411.7c-0.1,6.1-0.2,12.2-0.3,18.2c-24.2,0-48.5,0-72.7,0c-0.1-6.1-0.2-12.2-0.3-18.2
	c0-6.1,0-12.3,0-18.4c0-6.1-0.1-12.2-0.1-18.3c0.1,0,0.3-0.1,0.4-0.2c24.2,0,48.5,0,72.7,0c0,0,0.4,0.2,0.4,0.2c0,6.1,0,12.2,0,18.3
	C292.6,399.4,292.6,405.5,292.6,411.7z"/>
<path class="st5" d="M219.3,393.3c0,6.1,0,12.3,0,18.4c-2.1-0.1-4.1-0.2-6.2-0.2c-71,0-141.9,0-212.9,0c-0.1-1.9-0.1-3.8-0.2-5.6
	c0.1-4.1,0.1-8.2,0.2-12.3c0,0,0-0.1,0-0.1c70.9,0,141.9,0,212.8-0.1C215.2,393.4,217.2,393.3,219.3,393.3z"/>
<path class="st2" d="M219.3,356.3c-1.6,0.1-3.2,0.3-4.9,0.3c-63.6,0-127.2,0-190.8,0c-1.6,0-3.2,0-5.2,0c0-85.4,0-170.4,0-255.7
	c1.1-0.1,2.2-0.4,3.3-0.4c65.1,0,130.2,0,195.2,0c0.7,0,1.5,0.1,2.2,0.1c0,6.1,0,12.2,0,18.3c-1.9,0.1-3.8,0.2-5.8,0.2
	c-45,0-89.9,0-134.9,0c-1.7,0-3.5,0-5.1,0c-2.9,22-15.1,34.1-36.6,36.9c0,48.7,0,97.3,0,145.9c10.1,0.4,18.5,3.9,25.4,10.9
	c6.9,7,10.3,15.6,11,25.3c24.5,0,48.5,0,73,0c0-4,0-7.7,0-11.4c0-7.4-0.7-6.5,6.8-6.6c14.1-0.1,28.1-0.1,42.2-0.1
	c1.4,0,2.8-0.1,4.3-0.2c-5.3-5.6-10.8-10.6-15.2-16.3c-16.5-21.5-23-45.9-17.9-72.6c6-31.4,23.9-53.7,52.9-67.2
	C219.3,227.9,219.3,292.1,219.3,356.3z"/>
<path class="st6" d="M219.2,118.9c0-6.1,0-12.2,0-18.3c0.1-4.6,0.3-9.1,0.2-13.7c-0.1-2.9,0.6-4.3,3.9-4.2c23,0.2,46,0.1,69,0.2
	c0.1,5.9,0.2,11.8,0.3,17.7c0,6.1,0,12.2,0,18.3c0,14.9,0,29.8,0,44.7c0,64.2,0,128.4-0.1,192.6c-0.1,6.2-0.2,12.4-0.3,18.5
	c-24.2,0-48.5,0-72.7,0c-0.1-6.2-0.2-12.4-0.3-18.6c0-64.2,0-128.4,0-192.6C219.2,148.7,219.2,133.8,219.2,118.9z"/>
<path class="st2" d="M292.7,118.9c0-6.1,0-12.2,0-18.3c4,0,8-0.1,12-0.1c61.1,0,122.2,0,183.3,0c1.8,0,3.5,0,5.6,0
	c0,85.4,0,170.4,0,255.8c-1.3,0.1-2.6,0.4-3.9,0.4c-64.4,0-128.7,0-193.1,0c-1.3,0-2.6-0.2-4-0.3c0-64.2,0-128.4,0.1-192.6
	c7.3,4.5,15.3,8.1,21.7,13.5c37.6,31.7,43.8,84.9,14.7,124.5c-4.8,6.5-10.7,12-16.3,18.2c1.3,0.1,2.7,0.2,4.1,0.2
	c14.9,0.1,29.9,0.2,44.8,0.1c3.1,0,4.2,0.9,4.1,4c-0.2,4.6-0.1,9.3-0.1,13.9c24.9,0,48.9,0,73.1,0c0.2-10.1,3.9-18.5,10.7-25.4
	c6.9-7,15.5-10.5,25.3-10.8c0-49,0-97.6,0-145.9c-21.9-2.9-33.9-15.2-36.4-36.9c-1.9,0-3.5,0-5.1,0c-26.9,0-53.9,0-80.8,0
	C332.6,119,312.6,119,292.7,118.9z"/>
<path class="st5" d="M511.5,393.7c0,5.9,0,11.7,0,17.6c-2.1,0.1-4.1,0.2-6.2,0.2c-68.9,0-137.7,0-206.6,0c-2.1,0-4.1,0.1-6.2,0.2
	c0-6.1,0-12.3,0-18.4c2.1,0.1,4.1,0.2,6.2,0.2c69,0,138,0,207,0C507.7,393.5,509.6,393.6,511.5,393.7z"/>
<path class="st7" d="M219.2,118.9c0,14.9,0,29.8,0,44.8c-29,13.4-47,35.8-52.9,67.2c-5.1,26.7,1.3,51.1,17.9,72.6
	c4.4,5.8,10,10.7,15.2,16.3c-1.5,0.1-2.9,0.2-4.3,0.2c-14.1,0.1-28.1,0.1-42.2,0.1c-7.5,0-6.7-0.8-6.8,6.6c0,3.7,0,7.4,0,11.4
	c-24.5,0-48.5,0-73,0c-0.7-9.7-4.1-18.4-11-25.3c-6.8-6.9-15.3-10.4-25.4-10.9c0-48.7,0-97.2,0-145.9c21.4-2.8,33.6-14.9,36.6-36.9
	c1.7,0,3.4,0,5.1,0c45,0,89.9,0,134.9,0C215.4,119.1,217.3,119,219.2,118.9z M109.7,301.9c0-5.5,0.2-10.6-0.1-15.6
	c-0.1-2.9,0.8-4.3,3.5-5.7c12.1-6.2,17.7-19.8,13.4-32.7c-4.2-12.5-13.6-18.4-26.3-19.5c-4.6-0.4-7.8-3.1-8.5-7.1
	c-0.6-4.2,0.6-7.6,4.4-9.8c3.5-2,7.6-1.2,10.9,1.8c0.9,0.8,2.6,1.5,3.7,1.3c5.2-1,10.2-2.4,15.7-3.8c-2.6-7-6.9-12.3-13.3-15.5
	c-2.6-1.3-3.7-2.8-3.5-5.8c0.3-5.1,0.1-10.3,0.1-15.6c-6.4,0-12.4,0-18.6,0c0,5.4-0.1,10.4,0.1,15.4c0.1,2.8-0.8,4.2-3.3,5.9
	c-3.9,2.5-7.8,5.6-10.3,9.4c-12,17.7,0.6,40.9,22.6,42.3c4.8,0.3,8.1,2.8,9.2,6.9c1,3.7-0.8,8-4.2,9.9c-3.5,2-8.1,1.3-11.3-1.8
	c-0.7-0.6-1.7-1.6-2.4-1.5c-5.6,1.2-11.1,2.7-16.9,4.1c2.8,7.3,7.1,12.8,13.8,16c2.3,1.1,2.9,2.4,2.9,4.7c-0.1,5.4,0,10.9,0,16.4
	C97.5,301.9,103.3,301.9,109.7,301.9z"/>
<path class="st7" d="M292.7,118.9c20,0,39.9,0.1,59.9,0.1c26.9,0,53.9,0,80.8,0c1.6,0,3.2,0,5.1,0c2.5,21.7,14.5,34,36.4,36.9
	c0,48.4,0,97,0,145.9c-9.8,0.3-18.5,3.7-25.3,10.8c-6.7,6.9-10.5,15.3-10.7,25.4c-24.3,0-48.3,0-73.1,0c0-4.6-0.2-9.3,0.1-13.9
	c0.2-3.2-1-4-4.1-4c-14.9,0.1-29.9,0-44.8-0.1c-1.4,0-2.8-0.1-4.1-0.2c5.6-6.2,11.5-11.7,16.3-18.2c29.1-39.5,22.9-92.7-14.7-124.5
	c-6.4-5.4-14.4-9.1-21.7-13.5C292.7,148.7,292.7,133.8,292.7,118.9z M438.9,237.9c0-15.2-12.4-27.7-27.5-27.6
	c-14.8,0.1-27.4,12.6-27.5,27.4c-0.1,15.1,12.6,27.8,27.6,27.6C426.4,265.2,438.8,252.8,438.9,237.9z"/>
<path class="st8" d="M109.7,301.9c-6.4,0-12.2,0-18.6,0c0-5.5-0.1-11,0-16.4c0.1-2.3-0.6-3.7-2.9-4.7c-6.7-3.2-11-8.7-13.8-16
	c5.8-1.5,11.4-2.9,16.9-4.1c0.7-0.1,1.7,0.9,2.4,1.5c3.2,3,7.8,3.8,11.3,1.8c3.4-1.9,5.1-6.2,4.2-9.9c-1.1-4.1-4.4-6.7-9.2-6.9
	c-22-1.3-34.6-24.6-22.6-42.3c2.6-3.8,6.5-6.9,10.3-9.4c2.5-1.6,3.4-3.1,3.3-5.9c-0.2-5-0.1-10-0.1-15.4c6.2,0,12.2,0,18.6,0
	c0,5.3,0.2,10.5-0.1,15.6c-0.2,3,0.9,4.5,3.5,5.8c6.5,3.2,10.7,8.4,13.3,15.5c-5.5,1.4-10.6,2.8-15.7,3.8c-1.1,0.2-2.7-0.5-3.7-1.3
	c-3.3-3-7.4-3.8-10.9-1.8c-3.8,2.2-5,5.6-4.4,9.8c0.6,4,3.8,6.7,8.5,7.1c12.8,1.1,22.1,6.9,26.3,19.5c4.3,12.9-1.2,26.5-13.4,32.7
	c-2.7,1.4-3.6,2.8-3.5,5.7C109.9,291.3,109.7,296.3,109.7,301.9z"/>
<path class="st9" d="M438.9,237.9c0,14.9-12.4,27.3-27.4,27.4c-15.1,0.1-27.7-12.5-27.6-27.6c0.1-14.8,12.6-27.3,27.5-27.4
	C426.4,210.3,438.9,222.7,438.9,237.9z"/>
</svg>
