<svg xmlns="http://www.w3.org/2000/svg" xml:space="preserve" viewBox="0 0 512 512"><path d="M404.8 69.7c35.2 40.5 56.6 95.7 56.6 158.3 0 135.9-101.1 254.6-225.8 265.1-.9.1-225.8 18.9-225.8 18.9l246.1.1C391.8 512.1 502 401.9 502 266c.2-80.2-38-151.3-97.2-196.3m-127 107.6-108.4 9.1c-7.5.6-13.6 7.7-13.6 16 0 8.2 6.1 14.3 13.6 13.6l108.4-9.1c7.5-.6 13.6-7.7 13.6-16 0-8.2-6.1-14.3-13.6-13.6M291.3 294c0-8.2-6.1-14.3-13.6-13.6l-108.3 9c-7.5.6-13.6 7.7-13.6 16s6.1 14.3 13.6 13.6l108.4-9.1c7.5-.6 13.5-7.7 13.5-15.9m-13.5-65.2-108.4 9.1c-7.5.6-13.6 7.7-13.6 16 0 8.2 6.1 14.3 13.6 13.6l108.4-9.1c7.5-.6 13.6-7.7 13.6-16 0-8.1-6.1-14.2-13.6-13.6" style="opacity:.66;fill:#fff"/><path d="M461.4 228c0-62.5-21.4-117.8-56.6-158.3C363.5 22.2 303-4.9 235.6.7L9.9 19.7V512s224.9-18.8 225.8-18.9C360.3 482.6 461.4 363.9 461.4 228m-183.6-21.1L169.4 216c-7.5.6-13.6-5.5-13.6-13.6 0-8.2 6.1-15.3 13.6-16l108.4-9.1c7.5-.6 13.6 5.5 13.6 13.6s-6.1 15.3-13.6 16m13.5 35.6c0 8.2-6.1 15.3-13.6 16l-108.3 9.1c-7.5.6-13.6-5.5-13.6-13.6 0-8.2 6.1-15.3 13.6-16l108.4-9.1c7.5-.7 13.5 5.4 13.5 13.6m-135.5 62.9c0-8.2 6.1-15.3 13.6-16l108.4-9.1c7.5-.6 13.6 5.5 13.6 13.6s-6.1 15.3-13.6 16L169.4 319c-7.5.7-13.6-5.5-13.6-13.6" style="fill:#fff"/></svg>