<?xml version="1.0" encoding="utf-8"?>
<!-- Generator: Adobe Illustrator 28.2.0, SVG Export Plug-In . SVG Version: 6.00 Build 0)  -->
<svg version="1.1" id="Layer_1" xmlns="http://www.w3.org/2000/svg" xmlns:xlink="http://www.w3.org/1999/xlink" x="0px" y="0px"
	 viewBox="0 0 512 512" style="enable-background:new 0 0 512 512;" xml:space="preserve">
<style type="text/css">
	.st0{fill:#FFFFFF;}
</style>
<path class="st0" d="M299.2,239.7c3.8-8.5,10.5-13.8,19.3-16.5c13.2-4.1,27.7,0.9,35.1,12c1.3,2,2.3,4.3,2.8,6.5
	c0.9,3.9-1.2,7.7-4.7,9.6c-3.5,1.8-7.4,1.3-10.3-1.7c-2.2-2.2-4.2-4.6-6.5-6.7c-5.7-4.9-8.5-5-14.6-0.3c-2.2,2.3-4.2,4.4-6.2,6.6
	c-3.6,3.8-7.7,4.7-11.4,2.3C298.8,249.1,297.2,244.3,299.2,239.7z M228.2,301.9c9.4,11.8,26.6,16.8,41.8,11.8
	c13.3-4.3,21.9-13.2,24.7-27.2c0.7-3.6-0.3-6.5-3.5-8.8c-5.6-2.6-10.5-0.2-11.6,5.8c-1,5.2-3.5,9.3-7.8,12.3
	c-13,9-33.7,2.7-35.2-12.8c-0.2-2.9-2-4.9-4.8-5.9c-6-2.2-11.3,2.9-10.2,9.8C222.5,292.4,224.7,297.5,228.2,301.9z M174,249.8
	c2.8-2.7,5.4-5.8,8.4-8.2c4.1-3.4,6.7-3.4,10.8-0.2c3,2.4,5.6,5.5,8.3,8.3c3.2,3.3,7.2,4.1,10.9,2.1c3.8-2.1,5.8-6.6,4.4-10.8
	c-0.8-2.4-2-4.8-3.5-6.8c-11.4-15.3-33.4-16.6-47.8-2.9c-2.1,3.2-4.4,6.1-5.8,9.4c-1.3,2.9-0.6,6.1,1.7,8.7
	C164.8,253.2,170.3,253.4,174,249.8z M155.5,301c2.5,1.5,5.3,2.6,8.1,3.4c7.9,2.1,16.1,2.4,24.2,1.9c6.3-0.4,12.6-1.2,18.4-4
	c9.1-4.4,12.6-13.8,8.1-22.7c-3.3-5.4-8.3-7.9-13.8-9.4c-10.1-2.6-20.2-2.8-30.4-1.3c-5.6,0.8-10.9,2.3-15.5,5.6
	C144.8,281.6,145.2,294.7,155.5,301z M356.9,271.1c-11.2-3.9-22.7-3.8-34.2-2.3c-5.3,0.7-10.4,2.1-14.8,5.2
	c-6.9,4.7-9.1,11.6-6.1,19.4c2.9,5.9,7.8,8.8,13.6,10.4c8.4,2.5,17,2.9,25.7,2.4c6.4-0.4,12.7-1.2,18.5-4
	c8.5-4.1,12.4-13.2,8.9-21.1C366.3,276,362.1,272.9,356.9,271.1z M350.6,399.8h-85.7c-5.6,0-10.1,4.5-10.1,10.1
	c0,5.6,4.5,10.1,10.1,10.1h85.7c5.6,0,10.1-4.5,10.1-10.1C360.7,404.3,356.2,399.8,350.6,399.8z M275.1,362.5
	c1.8-2.6,1.9-5.4,0.3-8.1c-1.5-2.7-4.1-4.4-7.1-3.7c-2.2,0.5-4.5,1.7-6.1,3.3c-17.7,17.7-35.3,35.6-52.9,53.4
	c-5.1,5.1-10.2,10.1-15.4,15.2c-6.3-4.6-12.6-9.3-18.9-13.9c-5.2-3.8-10.3-7.7-15.6-11.3c-5.2-3.5-11.9-0.4-12.4,5.7
	c-0.3,3.5,1.6,6,4.4,8c12.1,8.7,24.1,17.4,36.1,26.1c6.4,4.7,9.8,4.4,15.4-1.2c12.3-12.5,24.6-24.8,37-37.3
	c11-11,21.8-21.9,32.2-32.8C273.2,364.9,274.3,363.8,275.1,362.5z M442.9,135.8v302.3c0,40.8-33.1,73.9-73.9,73.9H143
	c-40.8,0-73.9-33.1-73.9-73.9V135.8c0-40.8,33.1-73.9,73.9-73.9h24.4c-10.4,10.3-16.8,24.6-16.8,40.4h0.2c-0.2,3.7-0.3,7.2-0.3,10.5
	c-0.1,6.2,0.6,13.3,5.6,18.3c5,5.1,12,5.7,18.2,5.7H348c2,0,4.1,0,6.3-0.1c10.1-0.4,18.4-8.8,18.6-18.8c0.1-5.4,0-10.9-0.3-16.3
	l-0.5-8.5h-0.3c-1.8-11.8-7.3-22.6-15.9-31.2c0,0-0.1-0.1-0.1-0.1H369C409.8,61.9,442.9,95,442.9,135.8z M401.3,226
	c0-33.2-26.9-60.2-60.2-60.2H173.8c-33.2,0-60.2,26.9-60.2,60.2v184.8c0,33.2,26.9,60.2,60.2,60.2h167.3c33.3,0,60.2-26.9,60.2-60.2
	V226z M159.6,102.3c0-26.5,21.5-48,48-48H244c-7.5-5.5-12.4-14.3-12.4-24.3c0-16.6,13.4-30,30-30c16.6,0,30,13.4,30,30
	c0,10-4.9,18.8-12.4,24.3h36.4c26.5,0,47.9,21.3,47.9,47.9c0,0,0.1,0,0.1,0c0.3,5.2,0.4,10.4,0.3,15.6c-0.1,5.3-4.7,9.8-10,10
	c-2,0.1-3.9,0.1-5.9,0.1c-57.9,0-115.8,0-173.7,0c-11.7,0-14.9-3.2-14.8-15c0-3.4,0.1-6.8,0.3-10.4 M251.3,29.2
	c0,5.9,4.8,10.7,10.7,10.7c5.9,0,10.7-4.8,10.7-10.7c0-5.9-4.8-10.7-10.7-10.7C256.1,18.5,251.3,23.3,251.3,29.2z"/>
</svg>
