<svg xmlns="http://www.w3.org/2000/svg" xml:space="preserve" id="donetick_svg__Layer_1" x="0" y="0" version="1.1" viewBox="0 0 512 512"><style>.donetick_svg__st4{fill:#2e2b2b}</style><path d="M369 512H143c-40.8 0-73.9-33.1-73.9-73.9V135.8c0-40.8 33.1-73.9 73.9-73.9h226c40.8 0 73.9 33.1 73.9 73.9v302.3c0 40.8-33.1 73.9-73.9 73.9" style="fill:#fbbf74"/><path d="M202.7 171.1h155.5c42 0 76.1 34.1 76.1 76.1v176.5c0 42-34.1 76.1-76.1 76.1H202.7c-42 0-76.1-34.1-76.1-76.1V247.2c0-42 34-76.1 76.1-76.1" style="fill:#fda836"/><path d="M341.1 471H173.8c-33.3 0-60.2-27-60.2-60.2V226c0-33.3 27-60.2 60.2-60.2h167.3c33.3 0 60.2 27 60.2 60.2v184.8c0 33.3-26.9 60.2-60.2 60.2" style="fill:#fffefd"/><path d="M315.6 54.3h-36.4c7.5-5.5 12.4-14.3 12.4-24.3 0-16.6-13.4-30-30-30s-30 13.4-30 30c0 10 4.9 18.8 12.4 24.3h-36.4c-26.5 0-48 21.5-48 48h203.9c.1-26.6-21.4-48-47.9-48" style="fill:#b5befb"/><path d="M363.6 102.2q.45 7.8.3 15.6c-.1 5.3-4.7 9.8-10 10-2 .1-3.9.1-5.9.1H174.3c-11.7 0-14.9-3.2-14.8-15 0-3.4.1-6.8.3-10.4 53.8-.2 107.6-.3 161.3-.3 14 .1 28.1 0 42.5 0" class="donetick_svg__st4"/><circle cx="262" cy="29.2" r="10.7" class="donetick_svg__st4"/><path d="M239.9 398.7c-12.4 12.5-24.7 24.8-37 37.3-5.6 5.6-9 5.9-15.4 1.2-12-8.7-24-17.4-36.1-26.1-2.8-2-4.7-4.5-4.4-8 .5-6.1 7.2-9.2 12.4-5.7 5.3 3.6 10.4 7.5 15.6 11.3 6.3 4.6 12.6 9.3 18.9 13.9 5.2-5.1 10.3-10.1 15.4-15.2 17.6-17.8 35.2-35.7 52.9-53.4 1.6-1.6 3.9-2.8 6.1-3.3 3-.7 5.6 1 7.1 3.7 1.6 2.7 1.5 5.5-.3 8.1-.8 1.3-1.9 2.4-3 3.4-10.4 10.9-21.2 21.8-32.2 32.8" style="fill:#2e2c2a"/><path d="M301.8 293.4c-3-7.8-.8-14.7 6.1-19.4 4.4-3.1 9.5-4.5 14.8-5.2 11.5-1.5 23-1.6 34.2 2.3 5.2 1.8 9.4 4.9 11.6 10 3.5 7.9-.4 17-8.9 21.1-5.8 2.8-12.1 3.6-18.5 4-8.7.5-17.3.1-25.7-2.4-5.8-1.6-10.7-4.5-13.6-10.4m-87.5-13.8c4.5 8.9 1 18.3-8.1 22.7-5.8 2.8-12.1 3.6-18.4 4-8.1.5-16.3.2-24.2-1.9-2.8-.8-5.6-1.9-8.1-3.4-10.3-6.3-10.7-19.4-.9-26.5 4.6-3.3 9.9-4.8 15.5-5.6 10.2-1.5 20.3-1.3 30.4 1.3 5.5 1.5 10.5 4 13.8 9.4" style="fill:#fa6874"/><path d="M291.2 277.7c3.2 2.3 4.2 5.2 3.5 8.8-2.8 14-11.4 22.9-24.7 27.2-15.2 5-32.4 0-41.8-11.8-3.5-4.4-5.7-9.5-6.6-15-1.1-6.9 4.2-12 10.2-9.8 2.8 1 4.6 3 4.8 5.9 1.5 15.5 22.2 21.8 35.2 12.8 4.3-3 6.8-7.1 7.8-12.3 1.1-6 6-8.4 11.6-5.8m-125.7-46.4c14.4-13.7 36.4-12.4 47.8 2.9 1.5 2 2.7 4.4 3.5 6.8 1.4 4.2-.6 8.7-4.4 10.8-3.7 2-7.7 1.2-10.9-2.1-2.7-2.8-5.3-5.9-8.3-8.3-4.1-3.2-6.7-3.2-10.8.2-3 2.4-5.6 5.5-8.4 8.2-3.7 3.6-9.2 3.4-12.6-.4-2.3-2.6-3-5.8-1.7-8.7 1.4-3.3 3.7-6.2 5.8-9.4m154.8 11.3c-2.2 2.3-4.2 4.4-6.2 6.6-3.6 3.8-7.7 4.7-11.4 2.3-3.9-2.4-5.5-7.2-3.5-11.8 3.8-8.5 10.5-13.8 19.3-16.5 13.2-4.1 27.7.9 35.1 12 1.3 2 2.3 4.3 2.8 6.5.9 3.9-1.2 7.7-4.7 9.6-3.5 1.8-7.4 1.3-10.3-1.7-2.2-2.2-4.2-4.6-6.5-6.7-5.7-4.9-8.5-5-14.6-.3" style="fill:#2e2c2b"/><path d="M350.6 420h-85.7c-5.6 0-10.1-4.5-10.1-10.1s4.5-10.1 10.1-10.1h85.7c5.6 0 10.1 4.5 10.1 10.1s-4.5 10.1-10.1 10.1" style="fill:#54e6dd"/></svg>