<svg xmlns="http://www.w3.org/2000/svg" xml:space="preserve" viewBox="0 0 512 512"><path d="M363.8 206.6c11.2 0 21.5 3.8 29.8 10.1 2-1.1 3.4-3.2 3.4-5.6V85.3c0-3.5-2.8-6.3-6.3-6.3H121.3c-3.5 0-6.3 2.8-6.3 6.3v125.8c0 3.5 2.8 6.3 6.3 6.3H333c8.5-6.8 19.2-10.8 30.8-10.8m-215.6-76.4c-9.9 0-18-8-18-18s8-18 18-18c9.9 0 18 8 18 18s-8.1 18-18 18m9-17.9c0 5-4 9-9 9s-9-4-9-9 4-9 9-9 9 4 9 9M435.6 0H76.4C54.1 0 35.9 18.1 35.9 40.4v431.2c0 22.3 18.1 40.4 40.4 40.4h359.3c22.3 0 40.4-18.1 40.4-40.4V40.4C476.1 18.1 457.9 0 435.6 0m31.5 471.6c0 17.3-14.1 31.4-31.4 31.4H76.4C59.1 503 45 488.9 45 471.6V40.4C44.9 23.1 59 9 76.4 9h359.3c17.3 0 31.4 14.1 31.4 31.4zM397 300.9v125.8c0 3.5-2.8 6.3-6.3 6.3H121.3c-3.5 0-6.3-2.8-6.3-6.3V300.9c0-3.5 2.8-6.3 6.3-6.3H333c8.4 6.7 19.1 10.8 30.7 10.8 11.2 0 21.5-3.8 29.8-10.1 2.1 1.1 3.5 3.2 3.5 5.6m20.7-265H94.3c-12.4 0-22.5 10.1-22.5 22.5v395.2c0 12.4 10.1 22.5 22.5 22.5h323.4c12.4 0 22.5-10.1 22.5-22.5V58.4c-.1-12.4-10.1-22.5-22.5-22.5m-15.3 265v125.8c0 6.4-5.2 11.7-11.7 11.7H121.3c-6.4 0-11.7-5.2-11.7-11.7V300.9c0-6.4 5.2-11.7 11.7-11.7h206c-8-8.8-12.9-20.4-12.9-33.2s4.9-24.5 12.9-33.2h-206c-6.4 0-11.7-5.2-11.7-11.7V85.3c0-6.4 5.2-11.7 11.7-11.7h269.5c6.4 0 11.7 5.2 11.7 11.7v125.8c0 3.7-1.8 7.1-4.5 9.2 9.4 9 15.3 21.7 15.3 35.7s-5.9 26.7-15.3 35.7c2.6 2.1 4.4 5.5 4.4 9.2m-38.6-89.8c-24.8 0-44.9 20.1-44.9 44.9s20.1 44.9 44.9 44.9 44.9-20.1 44.9-44.9-20.1-44.9-44.9-44.9m9 57.5c3 0 5.4 2.4 5.4 5.4s-2.4 5.4-5.4 5.4-5.4-2.4-5.4-5.4 2.4-5.4 5.4-5.4m-5.4-12.6c0-3 2.4-5.4 5.4-5.4s5.4 2.4 5.4 5.4-2.4 5.4-5.4 5.4-5.4-2.4-5.4-5.4m5.4-12.6c-3 0-5.4-2.4-5.4-5.4s2.4-5.4 5.4-5.4 5.4 2.4 5.4 5.4-2.5 5.4-5.4 5.4m-18 25.2c3 0 5.4 2.4 5.4 5.4s-2.4 5.4-5.4 5.4-5.4-2.4-5.4-5.4 2.4-5.4 5.4-5.4m-5.4-12.6c0-3 2.4-5.4 5.4-5.4s5.4 2.4 5.4 5.4-2.4 5.4-5.4 5.4-5.4-2.4-5.4-5.4m5.4-12.6c-3 0-5.4-2.4-5.4-5.4s2.4-5.4 5.4-5.4 5.4 2.4 5.4 5.4-2.4 5.4-5.4 5.4" style="fill:#fff"/></svg>