<svg xmlns="http://www.w3.org/2000/svg" xml:space="preserve" id="dozzle_svg__Layer_1" x="0" y="0" version="1.1" viewBox="0 0 512 512"><style>.dozzle_svg__st3{fill:#eb8b00}.dozzle_svg__st7{fill:#f79900}.dozzle_svg__st12{fill:#fea200}.dozzle_svg__st17{fill:#ea8c00}.dozzle_svg__st18{fill:#f59b00}.dozzle_svg__st19{fill:#fea500}.dozzle_svg__st50{fill:#ffbb14}.dozzle_svg__st51{fill:#ffa901}.dozzle_svg__st56{fill:#ffbd11}.dozzle_svg__st58{fill:#ffce2c}.dozzle_svg__st81{fill:#ffaa03}.dozzle_svg__st91{fill:#ffc620}.dozzle_svg__st96{fill:#ffde3f}.dozzle_svg__st97{fill:#ffd935}.dozzle_svg__st98{fill:#ffbc11}.dozzle_svg__st102{fill:#ffb811}.dozzle_svg__st103{fill:#ffb208}</style><path d="m406.3 340.1 47.9 28.4-72.8 28.4-26.2-1.5z" style="fill:#b60"/><path d="m481.8 286.1-29.4 84 59.3-73.9z" style="fill:#b25b00"/><path d="m405.5 343.1 7.5-66.9 71.2 10.6z" style="fill:#e08000"/><path d="m378.6 286.7 35.4-10-6.6 64.9z" class="dozzle_svg__st3"/><path d="m334.7 310.1 45.2-23.3 28.8 56.4z" style="fill:#ef9100"/><path d="m483.4 286.8-29.9 81.7-46.5-27z" style="fill:#c76e00"/><path d="m308.9 357.4 46.9 37.7 51.9-54.5z" style="fill:#ce6e00"/><path d="m308.9 358.8 25.7-53 73.7 35.7z" class="dozzle_svg__st3"/><path d="m254 327.9 55.7 31.2 25-50.4z" class="dozzle_svg__st7"/><path d="M255.9 244.6v84.5l78.7-19.7z" style="fill:#ffa902"/><path d="m332.7 311.9 17.8-33.2 31.2 8z" style="fill:#f59900"/><path d="m327.2 263.3 6.7 48.5 18.3-32.4z" style="fill:#fea400"/><path d="m252.7 242.5 81.8 67.8-.4-6-5.8-40.5z" style="fill:#ffaf06"/><path d="m329 243-3.7 20.3 25.4 16.2z" class="dozzle_svg__st7"/><path d="m335.4 209.6-8.7 54.5-70.8-20.2z" class="dozzle_svg__st12"/><path d="m510.2 215.7-27.4 71.6 28.3 8.9z" style="fill:#be6800"/><path d="m483.5 287.5 27.5-71.8-44.5 26.5z" style="fill:#dd7c00"/><path d="m467.3 241.6 16.8 46-71.6-9.8z" style="fill:#c96b00"/><path d="m450 218.7-37 60.1 55-36.9z" style="fill:#dd8200"/><path d="m448.5 217.8 18.7 24.5 43.8-25.8-57.5-7.2z" class="dozzle_svg__st17"/><path d="m450.6 218.3 13.7-18.9 46.4 17.4z" class="dozzle_svg__st17"/><path d="m420 207.3 8.7 48.6 21.7-36.8z" class="dozzle_svg__st18"/><path d="m410.5 196.4 30.3 34.7 9.8-12.1z" class="dozzle_svg__st18"/><path d="m383.2 181.9 82 17.5-15.2 20.2z" class="dozzle_svg__st19"/><path d="M463.7 128.6V200l46.8 17.2z" style="fill:#ca7000"/><path d="m425.1 155.7 39.2 44.4-.6-72.1z" style="fill:#e28100"/><path d="m382.6 182.4 43.6-27.6 38.9 45.5z" style="fill:#f49900"/><path d="m314.9 169.1 69.4 13.9 43.2-27.9z" style="fill:#ffb10b"/><path d="m316.8 169.3 18.4 39.9 18.5-16.5 31.5-10.4z" style="fill:#ffbb13"/><path d="m317.3 169.3 18.5 40.6-79.9 35.7.6-4.1z" style="fill:#ffa905"/><path d="m391.1 65.4 34.7 90.3 37.9-27z" style="fill:#faa100"/><path d="M255.8 133.1v112.4l62.1-76.1z" style="fill:#ffb812"/><path d="m255.9 133.7 78-39.4-16.7 75.1z" style="fill:#ffcb24"/><path d="m332.7 93.1-16.3 76.4 110.8-13.8z" style="fill:#ffc31c"/><path d="m334 94.4 57.8-29 34.8 91z" style="fill:#ffb10a"/><path d="m255.3 19.1 78 76.8L393 66z" style="fill:#ffc119"/><path d="m255.9 393.9 101.5 1.3-47.5-37.7z" style="fill:#bf6700"/><path d="m255.9 394.2.1-65.3 54.3 29.1z" style="fill:#e68d00"/><path d="m256.1 19.5-.2 114.9L334 95.1z" style="fill:#ffd027"/><path d="m398.1 442.9 40.1-5.6-57.6-19z" style="fill:#cd7500"/><path d="m396.7 442.2 6.9 30.3 34.2-35.4z" style="fill:#c06900"/><path d="m336.2 492 61.8-50.3 5.9 30.4z" style="fill:#d47b00"/><path d="m298.3 451.8 49.6 32.4 51-42.6z" style="fill:#eb8e00"/><path d="m300.6 452.1 80-34.1 18.9 24.3z" style="fill:#c66d00"/><path d="m300.2 452.4 35-36.4 45.1 2.4-71.4 31.2z" style="fill:#bd6200"/><path d="m255.9 415 44.2 38.6 37.6-37.7z" style="fill:#cf7100"/><path d="m253.4 511.8 86.5-20.6 9.2-8.4-90.2 24.5z" style="fill:#d57500"/><path d="m256.2 511.9 44.3-60.5 47.6 32.3-89.9 28.1z" style="fill:#e08400"/><path d="m220.2 442.6 80.2 10.7-44.3-38.5z" style="fill:#d87a00"/><path d="m221 442.3 34.2 69.5 1.8-.1 43.4-59.3z" style="fill:#f49f00"/><path d="m256.2 511.9-34.7-70-42.8 44.4 73.9 25.3z" style="fill:#ffb308"/><path d="m175.6 490 3.6-5 74.6 26.9z" style="fill:#ffa600"/><path d="m135.4 417.1 8.7 39L222 443l-4.9-2.5z" style="fill:#ffc61d"/><path d="m135.8 417.4 86.2 25.7 6.8-6.1 27.4-22.1z" style="fill:#ec9300"/><path d="m143.6 454.9 32.3 35.2 46.1-47.9z" class="dozzle_svg__st50"/><path d="m113 472.3 31.5-17.1 34.1 35.7z" class="dozzle_svg__st51"/><path d="m109.5 445.1 4.3 27.3 32.8-17.3z" style="fill:#ffc319"/><path d="m75.6 437.6 39.2 35.1-4.8-28.9z" class="dozzle_svg__st51"/><path d="m135.2 417.5 2.6 1.8 6.7 35.9-36.5-10.1z" style="fill:#ffd832"/><path d="m75.2 437.6 60.5-20.3-3.5 5.5-22.9 22.8z" style="fill:#ffc721"/><path d="m197.6 222 58.8 23.4V131.5z" style="fill:#ffc823"/><path d="m164.9 197.1 15.3 24h19.7z" class="dozzle_svg__st56"/><path d="m179.4 257.3.9-36.8 20.7-.2z" style="fill:#ffc524"/><path d="m176.7 259.4-2.6 30.4 26.5-69.5z" class="dozzle_svg__st58"/><path d="m173.4 289.2 82.5-45.1-56.8-22.9z" style="fill:#ffc016"/><path d="m217.7 309.5 38.7 21.1V242z" style="fill:#ffb708"/><path d="m172.3 289.1 46.6 21 37.6-66.9z" style="fill:#ffc011"/><path d="m256.5 328.2.2 65.5-1.9-.3-62-42.5c-.7.1 63.7-22.7 63.7-22.7" style="fill:#f59f00"/><path d="m193.9 352.7 25-44.7 37.3 20.5-.2 1.3z" style="fill:#ffb609"/><path d="M194.4 355.5 172.9 289l47.1 19.3z" style="fill:#ffc01a"/><path d="m131.8 396.5 56.3-42.3 7.7-2.3 60.6 42z" style="fill:#d57900"/><path d="m128.5 367.3 4.6 29 62.7-45.8z" style="fill:#e08500"/><path d="m143.5 313 52.4 39.2-2.5 1-65.2 14.6z" style="fill:#f89f00"/><path d="m174.3 288.8 21.5 63.9-53.1-38.9z" style="fill:#ffba0c"/><path d="m149.5 286.3 25.8 3.5 3.8-32.5z" class="dozzle_svg__st58"/><path d="m143.3 314.4 33.2-25.2-26.2-4.3z" style="fill:#ffc41f"/><path d="m.9 295.5 57.6 72.9 12.4-16.8-65.7-54.4z" style="fill:#da7f00"/><path d="m69.4 351.6 64.9 45.2-76.5-28.4z" style="fill:#d07700"/><path d="M68.9 351.8v1.4l64.6 43.2-4.3-29.5z" style="fill:#f09600"/><path d="m145 313.1-15.9 54.8-59.6-15.4 73.2-39.4z" style="fill:#ffae05"/><path d="m102.7 280.6-34.3 73 76.1-39.8z" style="fill:#ffbe1a"/><path d="m101.5 280 42.4 34.4 7.5-30z" style="fill:#ffcd29"/><path d="m38.8 272.2 65.1 7.5-33.7 72.7z" style="fill:#fb9c00"/><path d="m39.4 272.5 32.1 82L.2 295.2z" style="fill:#e38500"/><path d="m82.5 244.6 21 36.5-66.6-8.2z" style="fill:#ffae07"/><path d="m2 215.7-1.4 80 41.3-23.1z" class="dozzle_svg__st12"/><path d="m62.2 206.8-21.9 65.4L1.6 216z" style="fill:#ffad02"/><path d="m61.1 207.8 21.4 38.1L38.7 273z" class="dozzle_svg__st19"/><path d="m60.5 207.8 29.9 4.4-8 34.5z" style="fill:#ffaf0a"/><path d="m60.5 207.9 50.2-16.5-20.9 21-28.8-3.6z" class="dozzle_svg__st81"/><path d="M183 91.7 256.4 19l.2 114.3-2.4.2z" style="fill:#ffda35"/><path d="m163.3 173.7 18.4-84 74.3 44.1z" style="fill:#ffcd23"/><path d="m136.6 164.1 27.9 9.9 18.8-83.6z" style="fill:#ffce28"/><path d="m162.7 172.6 93.7-39.9-58.1 89.6z" style="fill:#ffd834"/><path d="m162.7 171.1 1.8 26.7 33.2 22.8z" style="fill:#ffc21b"/><path d="m163.4 172.3 1.9 25.6-32.7-14.6z" class="dozzle_svg__st50"/><path d="m136 163.2-1.7 20.9 30.6-11z" style="fill:#ffae08"/><path d="m73.5 150.3 109.9-59.4.6.9-47.4 73.4z" style="fill:#ffd331"/><path d="m74.5 149.8 62.8 14.5-77 45 .6-5.2z" style="fill:#ffc722"/><path d="m75.5 147.6-14.9 60.5-59.4 8.5z" style="fill:#ffb806"/><path d="m1.6 217.5 46.6-87.4 27 18.9z" class="dozzle_svg__st91"/><path d="m120.1 65.7 2.4.3L75 150.1l-27-19.5z" style="fill:#ffce26"/><path d="M256.2 19.5v2.6l-72.3 69.4L121.2 66z" style="fill:#ffe350"/><path d="M122.2 65.7 184.4 91 73.2 151.1z" style="fill:#ffd839"/><path d="M136.9 163.3 135 184l-74.2 24.4z" style="fill:#ffb40f"/><path d="m72.5 31.2 26.8 17.3 7.8-10.2z" class="dozzle_svg__st91"/><path d="m106.4 23.6.5 15.1-35.3-6.9z" class="dozzle_svg__st58"/><path d="m102.8 12.6 3.8 11.9L72 32z" class="dozzle_svg__st96"/><path d="M73 32.3 89.2.7l14.4 13z" class="dozzle_svg__st97"/><path d="M73.4 32.3 66 .2l23.8.6z" class="dozzle_svg__st97"/><path d="M74.1 31.8 66.4 0 49.1 19.8z" class="dozzle_svg__st98"/><path d="M75.7 32.1 49 19l-.4 14.7z" style="fill:#ffc420"/><path d="M76 30.9 52 44.1l-3.7-10.9z" style="fill:#ffb910"/><path d="M73.9 31.2 71 58.9l-19.4-15z" style="fill:#ffad09"/><path d="M86.9 58 73.5 31.1l-2.8 27.7z" class="dozzle_svg__st102"/><path d="M99.6 48.2 72.8 30.6l12.7 28z" class="dozzle_svg__st103"/><path d="m98.1 86.3.9-38.1 22 18z" class="dozzle_svg__st103"/><path d="m99.5 87.8-13.3-30 13.4-9.9z" class="dozzle_svg__st56"/><path d="m441.7 31.4-28.4 17.8-7-10.5z" class="dozzle_svg__st91"/><path d="m405.9 24.8.2 15 35-7.6z" class="dozzle_svg__st58"/><path d="M409 13.7 405.8 26l34.8 6.6z" class="dozzle_svg__st96"/><path d="M439.6 33 423.4 1.4l-14.2 13z" class="dozzle_svg__st97"/><path d="M439.1 33.8 447.4.7l-24.8.8z" class="dozzle_svg__st97"/><path d="m437.7 34.2 8.4-34 18.2 20z" class="dozzle_svg__st98"/><path d="m438.6 32.7 25.3-12.9.1 14.9z" class="dozzle_svg__st81"/><path d="m437.7 32.1 23 12.8 3.7-10.9z" style="fill:#fca400"/><path d="m438.7 32 2.9 27.6 19.6-15.7z" style="fill:#fb9e00"/><path d="m425.7 58.7 13.6-26.8 2.6 27.7z" class="dozzle_svg__st102"/><path d="m412.7 48.8 27.8-17.3-14.1 27.2z" class="dozzle_svg__st103"/><path d="m389.9 65.4 38.1-6.7-15.4 26.4z" style="fill:#e88e00"/><path d="M388.5 66.5 415.3 48l14.1 11.1z" style="fill:#fca500"/></svg>