<?xml version="1.0" encoding="utf-8"?>
<!-- Generator: Adobe Illustrator 27.7.0, SVG Export Plug-In . SVG Version: 6.00 Build 0)  -->
<svg version="1.1" id="Layer_1" xmlns="http://www.w3.org/2000/svg" xmlns:xlink="http://www.w3.org/1999/xlink" x="0px" y="0px"
	 viewBox="0 0 512 512" style="enable-background:new 0 0 512 512;" xml:space="preserve">
<style type="text/css">
	.st0{fill:#222222;}
	.st1{fill:#FFDD57;}
</style>
<g>
	<path class="st0" d="M24,0h464c13.3,0,24,10.7,24,24v464c0,13.3-10.7,24-24,24H24c-13.3,0-24-10.7-24-24V24C0,10.7,10.7,0,24,0z"/>
	<path class="st1" d="M329.3,377.5H492v38.8H271.2v-35l153.4-203.9H273.5v-39.3h210.8v33.7L329.3,377.5z"/>
	<path class="st1" d="M32,428.4L70.3,56l105.1,10.8c32.4,3.3,60.3,13.4,83.7,30.3c23.4,16.9,40.5,39.2,51.2,67
		c10.9,27.8,14.7,58.9,11.4,93.2l-2.4,23.8c-3.6,35.1-13.6,65.2-29.9,90.2c-16.2,25-37.6,43.3-64.3,54.9
		c-26.5,11.6-56.5,15.8-89.9,12.7L32,428.4z M115.2,101.5l-30,291.9l51.6,5.3c37.8,3.9,68.5-4.9,91.8-26.2
		c23.6-21.4,37.6-53.8,42-97.3l2.2-21.7c4.3-42.3-2.3-76.1-19.8-101.6c-17.4-25.6-44.3-40.4-80.7-44.5L115.2,101.5z"/>
</g>
</svg>
