<?xml version="1.0" encoding="utf-8"?>
<!-- Generator: Adobe Illustrator 28.2.0, SVG Export Plug-In . SVG Version: 6.00 Build 0)  -->
<svg version="1.1" id="Layer_1" xmlns="http://www.w3.org/2000/svg" xmlns:xlink="http://www.w3.org/1999/xlink" x="0px" y="0px"
	 viewBox="0 0 512 512" style="enable-background:new 0 0 512 512;" xml:space="preserve">
<style type="text/css">
	.st0{fill:#F08705;}
	.st1{fill-rule:evenodd;clip-rule:evenodd;fill:#DF6C0C;}
	.st2{fill:#FFFFFF;}
</style>
<path id="Rectangle-path" class="st0" d="M21.2,0h469.6c11.2,0,20.3,9.1,20.3,20.3v471.3c0,11.2-9.1,20.3-20.3,20.3H21.2
	c-11.2,0-20.3-9.1-20.3-20.3V20.3C0.9,9.1,10,0,21.2,0z"/>
<path id="Shape" class="st1" d="M271.7,131.1l55-58.3l184.4,184.9v233.8c0,11.3-9.1,20.5-20.4,20.5H170.6l-98.1-98.9L271.7,131.1z"
	/>
<path class="st2" d="M424.4,291.8h-60l-56.2-97.3h4c11.2,0,20.3-9.1,20.3-20.3V86.9c0-11.2-9.1-20.3-20.3-20.3H199.8
	c-11.2,0-20.3,9.1-20.3,20.3v87.3c0,11.2,9.1,20.3,20.3,20.3h3.9l-56.2,97.3h-60c-11.2,0-20.3,9.1-20.3,20.3v87.3
	c0,11.2,9.1,20.3,20.3,20.3H200c11.2,0,20.3-9.1,20.3-20.3v-87.3c0-11.2-9.1-20.3-20.3-20.3h-17l56.2-97.3h33.7l56.2,97.3H312
	c-11.2,0-20.3,9.1-20.3,20.3v87.3c0,11.2,9.1,20.3,20.3,20.3h112.4c11.2,0,20.3-9.1,20.3-20.3v-87.3
	C444.7,300.9,435.6,291.8,424.4,291.8z"/>
</svg>
