<svg xmlns="http://www.w3.org/2000/svg" xml:space="preserve" viewBox="0 0 512 512"><path d="M21.2 0h469.6c11.2 0 20.3 9.1 20.3 20.3v471.3c0 11.2-9.1 20.3-20.3 20.3H21.2C10 511.9.9 502.8.9 491.6V20.3C.9 9.1 10 0 21.2 0" style="fill:#f08705"/><path d="m271.7 131.1 55-58.3 184.4 184.9v233.8c0 11.3-9.1 20.5-20.4 20.5H170.6l-98.1-98.9z" style="fill-rule:evenodd;clip-rule:evenodd;fill:#df6c0c"/><path d="M424.4 291.8h-60l-56.2-97.3h4c11.2 0 20.3-9.1 20.3-20.3V86.9c0-11.2-9.1-20.3-20.3-20.3H199.8c-11.2 0-20.3 9.1-20.3 20.3v87.3c0 11.2 9.1 20.3 20.3 20.3h3.9l-56.2 97.3h-60c-11.2 0-20.3 9.1-20.3 20.3v87.3c0 11.2 9.1 20.3 20.3 20.3H200c11.2 0 20.3-9.1 20.3-20.3v-87.3c0-11.2-9.1-20.3-20.3-20.3h-17l56.2-97.3h33.7l56.2 97.3H312c-11.2 0-20.3 9.1-20.3 20.3v87.3c0 11.2 9.1 20.3 20.3 20.3h112.4c11.2 0 20.3-9.1 20.3-20.3v-87.3c0-11.2-9.1-20.3-20.3-20.3" style="fill:#fff"/></svg>