<?xml version="1.0" encoding="utf-8"?>
<!-- Generator: Adobe Illustrator 28.2.0, SVG Export Plug-In . SVG Version: 6.00 Build 0)  -->
<svg version="1.1"
	 id="svg9140" xmlns:sodipodi="http://sodipodi.sourceforge.net/DTD/sodipodi-0.dtd" xmlns:svg="http://www.w3.org/2000/svg" xmlns:inkscape="http://www.inkscape.org/namespaces/inkscape" inkscape:export-filename="logo11_swi.png" sodipodi:docname="logo13.svg"
	 xmlns="http://www.w3.org/2000/svg" xmlns:xlink="http://www.w3.org/1999/xlink" x="0px" y="0px" viewBox="0 0 512 512"
	 style="enable-background:new 0 0 512 512;" xml:space="preserve">
<style type="text/css">
	.st0{fill:#FF6600;}
	.st1{fill:#FF0000;}
	.st2{fill:#FFFFFF;}
</style>
<path class="st0" d="M370.8,32.3H141.2c-9.5,0-18.4,5.1-23.2,13.3L3.5,242.5c-4.9,8.3-4.9,18.6,0,27l114.6,196.9
	c4.8,8.3,13.6,13.3,23.2,13.3h229.5c9.5,0,18.4-5.1,23.2-13.3l114.6-196.9c4.9-8.3,4.9-18.6,0-27L393.9,45.6
	C389.1,37.4,380.3,32.3,370.8,32.3z"/>
<path class="st1" d="M244.9,259.7c-15.9,18.5-35.3,38.8-43.1,45c-24,19.4-51.5,10.3-87.2-28.5c-9.5-10.4-21.3-24.1-26-30.5
	l-8.7-11.7l27.6-43.7c23.9-37.8,28.7-43.4,36.5-41.6c13.1,3.1,59.2-14.8,78.1-30.2c19.6-16.1,28.8-15.2,37.2,3.3
	c5.5,12.1,4.7,16.1-6.4,30.1c-7,8.9-16.2,18.6-20.6,21.5c-6.9,4.6-5.3,6.9,12.7,18.2c11.3,7.1,22.4,17.7,24.7,23.6
	C273.6,225.6,272.1,228.1,244.9,259.7z M127.2,141.1L102,125.3l-22.1-14l-53.8,92.4c3.9,3.6,11.6,8.9,20.2,13.6l21.8,12.1l29.5-44.1
	L127.2,141.1z"/>
<path d="M376.9,365.8l-26.5,42.1l-31-8.8C280,388,246,370.3,238,356.9c-7.1-12.1-0.5-41.8,20.2-90.9c18.2-43.2,28.3-47.7,60-27.7
	c19.7,12.4,21,12.5,23.7,1.8c7.5-29,15.4-40.3,30.2-43.7c23.5-5.3,32.3,6.7,24.6,33.1c-4.3,14.5-4.3,35,0,58.3l6.7,35.9L376.9,365.8
	z M460.8,351.8l-18.1-11.4l-23-14.5l-29.1,46.1L361.6,418l23,14.5L406,446L460.8,351.8z"/>
<path class="st2" d="M353.8,454.8H158.2c-10.5,0-20.3-5.6-25.5-14.7L34.9,270.7c-5.3-9.1-5.3-20.4,0-29.5l97.8-169.3
	c5.2-9.1,15-14.7,25.5-14.7h195.6c10.5,0,20.3,5.6,25.5,14.7l97.8,169.3c5.3,9.1,5.3,20.4,0,29.5l-97.8,169.3
	C374.1,449.2,364.3,454.8,353.8,454.8z M158.2,60.3c-9.4,0-18.1,5-22.8,13.2L37.6,242.8c-4.7,8.1-4.7,18.2,0,26.4l97.8,169.3
	c4.7,8.1,13.4,13.2,22.8,13.2h195.6c9.4,0,18.1-5,22.8-13.2l97.8-169.3c4.7-8.1,4.7-18.2,0-26.4L376.6,73.5
	c-4.7-8.1-13.4-13.2-22.8-13.2H158.2z"/>
</svg>
