<svg xmlns="http://www.w3.org/2000/svg" xml:space="preserve" viewBox="0 0 512 512"><path d="m384.6 432.5 21.3 13.4-11.9 20.5c-4.8 8.3-13.6 13.3-23.2 13.3H141.2c-9.5 0-18.4-5.1-23.2-13.3L3.5 269.5c-4.9-8.3-4.9-18.6 0-27l22.2-38.2 4.5 2.8c4.2 3.1 9.9 6.8 16.1 10.2l1.9 1L35 241.2c-5.3 9.1-5.3 20.4 0 29.5L132.8 440c5.2 9.1 15 14.7 25.5 14.7h195.6c10.5 0 20.3-5.6 25.5-14.7l4.6-8zm89.8-163.3L435.8 336l-16.1-10.2-29.1 46.1-29 46.1 19.7 12.5-4.7 8.1c-4.7 8.1-13.4 13.2-22.8 13.2H158.2c-9.4 0-18.1-5-22.8-13.2L37.6 269.2c-4.7-8.1-4.7-18.2 0-26.4l13.3-23 17.2 9.5 29.5-44.1 29.5-44.1-22.6-14.3 30.8-53.4c4.7-8.1 13.4-13.2 22.8-13.2h195.6c9.4 0 18.1 5 22.8 13.2l97.8 169.3c4.8 8.2 4.8 18.4.1 26.5m-229.5-9.5c27.2-31.6 28.7-34.1 24.7-44.2-2.4-5.9-13.5-16.5-24.7-23.6-18-11.3-19.5-13.6-12.7-18.2 4.4-2.9 13.6-12.6 20.6-21.5 11.1-14.1 11.9-18.1 6.4-30.1-8.4-18.5-17.6-19.4-37.2-3.3-18.9 15.5-65 33.3-78.1 30.2-7.7-1.8-12.6 3.8-36.5 41.6l-27.6 43.7 8.7 11.7c4.7 6.4 16.4 20.1 26 30.5 35.7 38.8 63.2 47.8 87.2 28.5 7.9-6.5 27.3-26.8 43.2-45.3m158.6 64-6.7-35.9c-4.4-23.3-4.3-43.8 0-58.3 7.8-26.4-1.1-38.4-24.6-33.1-14.8 3.4-22.8 14.7-30.2 43.7-2.7 10.7-4 10.6-23.7-1.8-31.8-20-41.8-15.5-60 27.7-20.7 49.1-27.4 78.8-20.2 90.9 8 13.4 42 31.1 81.3 42.2l31 8.8 26.5-42.1zm105-81.2L393.9 45.6c-4.8-8.3-13.6-13.3-23.2-13.3H141.2c-9.5 0-18.4 5.1-23.2 13.3l-38.3 65.8h.1l.1-.1 10.4 6.6.3.2 11.3 7.1 30.8-53.3c5.2-9.1 15-14.7 25.5-14.7h195.6c10.5 0 20.3 5.6 25.5 14.7l97.8 169.3c5.3 9.1 5.3 20.4 0 29.5l-38.7 66.9 4.3 2.7 18 11.3 47.8-82.2c4.9-8.3 4.9-18.5 0-26.9" style="fill:#fff"/></svg>