<svg xmlns="http://www.w3.org/2000/svg" xml:space="preserve" viewBox="0 0 512 512"><linearGradient id="drivebase-dark_svg__a" x1="395.125" x2="134.809" y1="15.027" y2="465.91" gradientUnits="userSpaceOnUse"><stop offset="0" style="stop-color:#000;stop-opacity:.6"/><stop offset="1" style="stop-color:#000"/></linearGradient><path d="M368 0H144C64.5 0 0 64.5 0 144v224c0 79.5 64.5 144 144 144h224c79.5 0 144-64.5 144-144V144C512 64.5 447.5 0 368 0m-8 307.8c0 61.2-49.5 110.9-110.7 110.9S138.7 369 138.7 307.8s49.5-110.9 110.7-110.9c12.6 0 24.6 2.1 35.9 6v-32.1c0-40.9 32.8-74.1 73.5-74.8h1.2zm-55.5 0c0 30.5-24.7 55.2-55.1 55.2s-55.1-24.7-55.1-55.2 24.7-55.2 55.1-55.2 55.1 24.7 55.1 55.2" style="fill-rule:evenodd;clip-rule:evenodd;fill:url(#drivebase-dark_svg__a)"/></svg>