<?xml version="1.0" encoding="utf-8"?>
<!-- Generator: Adobe Illustrator 28.2.0, SVG Export Plug-In . SVG Version: 6.00 Build 0)  -->
<svg version="1.1" id="Layer_1" xmlns="http://www.w3.org/2000/svg" xmlns:xlink="http://www.w3.org/1999/xlink" x="0px" y="0px"
	 viewBox="0 0 512 512" style="enable-background:new 0 0 512 512;" xml:space="preserve">
<style type="text/css">
	.st0{fill-rule:evenodd;clip-rule:evenodd;fill:#FFFFFF;}
</style>
<path id="drone-logo-vector-dark" class="st0" d="M103.1,49.6l-2.2,2.2l89.7,89.7c-12.7,19.8-20,44.1-20,71.8
	c0,76.9,56.5,128,128,128c26.7,0,51.4-7.1,71.7-20.1l90.2,90.2C413.8,473.1,339.6,512,256,512C114.6,512,0,400.9,0,256
	C0,169.8,40.5,95.6,103.1,49.6z M145.8,24.3C179.2,8.7,216.6,0,256,0c141.4,0,256,111.1,256,256c0,39.8-8.7,77.1-24.2,110.3
	l-81.1-81.1c12.7-19.8,20-44.1,20-71.8c0-76.9-56.5-128-128-128c-26.7,0-51.4,7.1-71.7,20.1L145.8,24.3z M298.7,290.1
	c-42.9,0-76.8-30.6-76.8-76.8s33.9-76.8,76.8-76.8c42.9,0,76.8,30.6,76.8,76.8S341.6,290.1,298.7,290.1z"/>
</svg>
