<svg xmlns="http://www.w3.org/2000/svg" xml:space="preserve" viewBox="0 0 512 512"><path d="M256 512C130.2 512 27.8 409.6 27.8 283.8c0-60.9 27.9-122.1 82.9-182 37.2-40.5 78.8-71.4 107-90.3 23.2-15.4 53.2-15.4 76.4 0 28.3 18.8 69.8 49.8 107 90.3 55 59.8 82.9 121.1 82.9 182C484.2 409.6 381.8 512 256 512m0-461.3c-3.5 0-7 1-10.1 3.1-25.9 17.3-64 45.6-97.8 82.4-46.2 50.2-69.6 99.9-69.6 147.6 0 97.9 79.6 177.5 177.5 177.5s177.5-79.6 177.5-177.5c0-47.8-23.4-97.4-69.6-147.6-33.8-36.8-71.8-65.1-97.8-82.4-3.1-2.1-6.6-3.1-10.1-3.1" style="fill:#fff"/></svg>