<svg xmlns="http://www.w3.org/2000/svg" xml:space="preserve" viewBox="0 0 512 512"><path d="M387.5 512h-263C55.7 512 0 456.3 0 387.5v-263C0 55.7 55.7 0 124.5 0h263C456.3 0 512 55.7 512 124.5v263c0 68.8-55.7 124.5-124.5 124.5" style="fill:#feea3b"/><path d="M66.6 154h73.2v73H66.6zm0 132.9h73.2v73H66.6zm118.9 109.9V115.2h112c32.3 0 59.3 6.3 81 18.8 44.2 25.2 65.9 71.3 65.8 121.6.3 53.8-23.1 99.2-69.5 123.8-22 11.6-47.8 17.5-77.3 17.5-.1-.1-112-.1-112-.1m177.6-141.2c0-26.3-8.7-50.3-30.4-63.9-9.8-6.1-21.6-9.1-35.3-9.1h-32v146.8h32c14 0 25.8-3.2 35.5-9.5 21.1-13.7 30.2-38.7 30.2-64.3"/></svg>