<svg xmlns="http://www.w3.org/2000/svg" xml:space="preserve" viewBox="0 0 512 512"><path d="M332.7 191.7c-9.8-6.1-21.6-9.1-35.3-9.1h-32v146.8h32c14 0 25.8-3.2 35.5-9.5 21.1-13.7 30.2-38.7 30.2-64.3 0-26.3-8.7-50.3-30.4-63.9M387.5 0h-263C55.7 0 0 55.7 0 124.5v263C0 456.3 55.7 512 124.5 512h263c68.8 0 124.5-55.7 124.5-124.5v-263C512 55.7 456.3 0 387.5 0M139.8 359.9H66.6v-73h73.2zm0-132.9H66.6v-73h73.2zm235 152.4c-22 11.6-47.8 17.5-77.3 17.5-.1-.1-112-.1-112-.1V115.2h112c32.3 0 59.3 6.3 81 18.8 44.2 25.2 65.9 71.3 65.8 121.6.3 53.8-23.1 99.2-69.5 123.8" style="fill:#fff"/></svg>