<svg xmlns="http://www.w3.org/2000/svg" xml:space="preserve" id="duckduckgo_svg__Layer_1" x="0" y="0" version="1.1" viewBox="0 0 512 512"><style>.duckduckgo_svg__st0{fill:#fff}</style><path d="M497.7 254.3c0 138.2-108.7 250.2-242.7 250.2S12.3 392.5 12.3 254.3 121 4.1 255.1 4.1c134 0 242.6 112 242.6 250.2" class="duckduckgo_svg__st0"/><linearGradient id="duckduckgo_svg__SVGID_1_" x1="-944.952" x2="-944.952" y1="2327.79" y2="2285.832" gradientTransform="translate(11786.965 -27893.326)scale(12.2027)" gradientUnits="userSpaceOnUse"><stop offset="0" style="stop-color:#d14427"/><stop offset="1" style="stop-color:#e55225"/></linearGradient><path d="M480 256c0 123.7-100.3 224-224 224S32 379.7 32 256 132.3 32 256 32s224 100.3 224 224m32 0c0 141.4-114.6 256-256 256S0 397.4 0 256 114.6 0 256 0s256 114.6 256 256m-21.1 0c0-129.7-105.2-234.9-234.9-234.9S21.1 126.3 21.1 256 126.3 490.9 256 490.9 490.9 385.7 490.9 256" style="fill:url(#duckduckgo_svg__SVGID_1_)"/><path d="M168.1 96.8c-7.5-3-19.6-8.7-22.9-9 3.2-.6 5.4-2.2 10-2.5-.8.1-1.6.3-2.4.4 4.2.4 14 9.2 17.9 9.8-.7.5-1.6.9-2.6 1.3m27.7 374.4c-11-53.5-44.6-209.7-52.4-252.8-7.6-43-.1-73.7 28.7-89.3-1.3.5-2.5 1-3.5 1.5-29.4 15.5-42.4 51.6-34.6 95 7.2 40.6 37.7 182.1 50.4 242.9 3.8 1.3 7.6 2.5 11.5 3.5zm13-352.9c1.3-.2 2.7-.4 4-.5-19.5-8.7-42.6-12-63.7-9.9 0-3.8 2.8-5.9 6.6-7.3-1.7.3-3.4.7-4.9 1.3-3.7 1.7-6.5 8.1-6.5 11.1 18.1-1.8 45-.6 64.5 5.3" style="fill:#d5d7d8"/><path d="M291.9 134.8c-8.1-8.1-20.5-13.1-34.4-15.8-5.4-7.4-14-14.4-26.3-20.9-23.1-12.3-51.8-17.2-78.4-12.4 4.2.4 14 9.2 17.9 9.8-5.9 4-21.7 3.5-21.6 12.4 21.1-2.1 44.2 1.2 63.7 9.9-15.5 1.8-29.8 5.6-40 10.9-29.4 15.5-37.1 46.4-29.4 89.7 7.8 43.1 41.4 199.3 52.4 252.8l.2 1.8c19 5.1 38.6 7.7 58.3 7.7 19.4 0 38.1-2.5 56.1-7.1v-.1h.1c-9.8-19-18.9-36.2-24.8-47.9-17-34-34-82-26.3-112.9 1.4-5.6 1.5-28.6 6.1-31.7 36.1-23.6 33.5-.8 48-11.3 7.5-5.4 13.4-12 16-21.1 9.3-32.5-12.9-89.1-37.6-113.8" class="duckduckgo_svg__st0"/><path d="M193.6 204.3c-8.9 0-16.2 7.2-16.2 16.2.1 9 7.3 16.3 16.2 16.2 8.9 0 16.2-7.2 16.2-16.2 0-8.9-7.2-16.2-16.2-16.2m7.3 15c-2.3 0-4.2-1.9-4.2-4.2s1.9-4.2 4.2-4.2 4.2 1.9 4.2 4.2-1.9 4.2-4.2 4.2M302.3 197c-7.7 0-14 6.2-14 13.9.1 7.7 6.3 13.9 14 14.1 7.8 0 14-6.3 14-14 0-7.8-6.3-14-14-14m6.3 12.8h-.1c-2 0-3.6-1.6-3.6-3.6s1.6-3.6 3.6-3.6 3.6 1.6 3.6 3.6-1.6 3.6-3.5 3.6m-110.3-36.4s-12.2-5.5-24.2 1.9c-11.9 7.5-11.4 15.1-11.4 15.1s-6.3-14.1 10.5-21c16.9-6.8 25.1 4 25.1 4m112.4-1.1s-8.8-5-15.6-4.9c-14 .2-17.9 6.4-17.9 6.4s2.4-14.8 20.3-11.8c9.8 1.5 13.2 10.3 13.2 10.3" style="fill:#2d4f8e"/><path d="M243.4 283.2c1.6-9.8 27-28.4 45-29.6 18-1.1 23.6-.9 38.7-4.5s53.8-13.3 64.5-18.2c10.7-5 56.2 2.5 24.2 20.3-13.9 7.8-51.3 22-78 30s-42.9-7.6-51.7 5.5c-7.1 10.4-1.4 24.7 30.5 27.7 43.1 4 84.4-19.4 88.9-7 4.6 12.4-37 27.9-62.3 28.4s-76.3-16.7-83.9-22c-7.8-5.3-18-17.7-15.9-30.6" style="fill:#fdd20a"/><path d="M248.3 420.9c0 21.2-3 30.2 6.1 32.3 9.1 2 26.2 0 32.3-4s1-31.2-1-36.3c-2.2-5.1-37.4-1.1-37.4 8" style="fill:#43a244"/><path d="M336.5 386.2c-7.3-1.7-34.9 17.8-45.9 25.9-.4-1.7-.8-3.1-1.1-3.9-1.8-4.4-28.6-2-35.7 4.7-16.9-8.4-51.7-24.5-52.4-14.6-1 13.1 0 66.5 7.1 70.6 4.5 2.6 26.8-8.9 42.2-17.4-4.5-3.8-2.4-13-2.4-30.6 0-1.9 1.5-3.5 3.8-4.9v.2c0 21.2-3 30.3 6.1 32.3 9 2 26.2 0 32.3-4 .6-.4 1.1-1.1 1.5-2 13.8 5.4 41.4 15.5 47.5 13.2 8.1-2.9 6.1-67.4-3-69.5" style="fill:#65bc46"/></svg>