<svg xmlns="http://www.w3.org/2000/svg" xml:space="preserve" viewBox="0 0 512 512"><path d="M505 110c-12.6-17.4-53.4 3.4-70.3-7.4-9.9-6.3-15.3-24.1-22.7-33.3-16.5-20.7-39.3-33.4-64.9-39.1C276.2 14.3 211 69.5 207 140.4c-1.5 27 9.5 49.4 19.8 73.4-15.5 0-51 7.5-63.8-.1-9.4-5.6-15.6-18.7-23.2-26.5-14.1-14.4-30.6-26.3-48.7-35.1-8.1-4-19.6-10.8-28.9-7.7-17.5 5.8-30.6 34.2-38.6 49.4-31.6 59.6-29.4 136.1-5.7 198 17.1 44.7 47.5 59.6 91.1 74.1 64.5 21.5 143.6 25.7 209.1 6.4 40.2-11.9 69.3-19.2 90.5-58.3 20.3-37.5 30.3-84.3 24.2-126.8-2.6-18.1-19.6-50-16.5-66.6 2.5-13.2 29.8-8.9 39.7-12.6 29.2-11.1 73.4-64.3 49-98m-147 28.1c-27.7 11.5-47-31.6-17.7-42.8 27.8-10.6 46.6 31 17.7 42.8m71.2 57.9c3.8-25.8 11.6-46.7 6.7-73.4h55.6c-.1 39.3-21.3 69.8-62.3 73.4"/></svg>