<svg xmlns="http://www.w3.org/2000/svg" xml:space="preserve" viewBox="0 0 512 512"><path d="M256 512C114.8 512 0 397.2 0 256S114.8 0 256 0s256 114.8 256 256-114.8 256-256 256m0-465.4c-115.5 0-209.5 94-209.5 209.5s94 209.5 209.5 209.5 209.5-94 209.5-209.5c0-115.6-94-209.5-209.5-209.5M150.8 330.2h120.3c8.4 0 15.1 6.7 15.1 15.1s-6.7 15.1-15.1 15.1H150.8c-8.4 0-15.1-6.7-15.1-15.1.3-8.1 6.9-15.1 15.1-15.1m0-59.5h180.3c8.4 0 15.1 6.7 15.1 15.1s-6.7 15.1-15.1 15.1H150.8c-8.4 0-15.1-6.7-15.1-15.1.3-8.4 6.9-15.1 15.1-15.1m0-59.5h150.5c8.4 0 15.1 6.7 15.1 15.1s-6.7 15.1-15.1 15.1H150.8c-8.4 0-15.1-6.7-15.1-15.1.3-8.5 6.9-15.1 15.1-15.1m0-59.6h210.5c8.4 0 15.1 6.7 15.1 15.1s-6.7 15.1-15.1 15.1H150.8c-8.4 0-15.1-6.7-15.1-15.1.3-8.1 6.9-15.1 15.1-15.1"/></svg>