<?xml version="1.0" encoding="utf-8"?>
<!-- Generator: Adobe Illustrator 28.2.0, SVG Export Plug-In . SVG Version: 6.00 Build 0)  -->
<svg version="1.1" id="Layer_1" xmlns="http://www.w3.org/2000/svg" xmlns:xlink="http://www.w3.org/1999/xlink" x="0px" y="0px"
	 viewBox="0 0 512 512" style="enable-background:new 0 0 512 512;" xml:space="preserve">
<path d="M256,512C114.8,512,0,397.2,0,256S114.8,0,256,0s256,114.8,256,256S397.2,512,256,512z M256,46.6
	c-115.5,0-209.5,94-209.5,209.5s94,209.5,209.5,209.5s209.5-94,209.5-209.5C465.5,140.5,371.5,46.6,256,46.6z M230.1,346.5
	c-6.7,0-13.2-2.6-18.3-7.6l-77.6-77.6c-10.1-10.1-10.1-26.5,0-36.6s26.5-10.1,36.6,0l59.4,59.4L341.3,173
	c10.1-10.1,26.5-10.1,36.6,0s10.1,26.5,0,36.6L248.5,339C243.4,344,236.8,346.5,230.1,346.5z"/>
</svg>
