<?xml version="1.0" encoding="utf-8"?>
<!-- Generator: Adobe Illustrator 28.2.0, SVG Export Plug-In . SVG Version: 6.00 Build 0)  -->
<svg version="1.1" id="Layer_1" xmlns="http://www.w3.org/2000/svg" xmlns:xlink="http://www.w3.org/1999/xlink" x="0px" y="0px"
	 viewBox="0 0 512 512" style="enable-background:new 0 0 512 512;" xml:space="preserve">
<style type="text/css">
	.st0{fill:#FFFFFF;}
</style>
<path class="st0" d="M256,512C114.8,512,0,397.2,0,256S114.8,0,256,0s256,114.8,256,256S397.2,512,256,512z M256,46.6
	c-115.5,0-209.5,94-209.5,209.5s94,209.5,209.5,209.5s209.5-94,209.5-209.5C465.5,140.5,371.5,46.6,256,46.6z M175.9,353H336
	c3.3,0,5.9,2.9,5.9,6.5V377c0,3.6-2.6,6.5-5.9,6.5H175.9c-3.3,0-5.9-2.9-5.9-6.5v-17.5C170,356,172.7,353,175.9,353z M251.2,114.4
	l-79.3,81.1c-4.1,4.2-1.1,11.3,4.8,11.3h36.9c3.7,0,6.7,3,6.7,6.7v108.4c0,3.7,3,6.7,6.7,6.7h58c3.7,0,6.7-3,6.7-6.7V213.5
	c0-3.7,3-6.7,6.7-6.7h36.9c5.9,0,8.9-7.1,4.8-11.3l-79.3-81.1C258.2,111.8,253.8,111.8,251.2,114.4z"/>
</svg>
