<?xml version="1.0" encoding="utf-8"?>
<!-- Generator: Adobe Illustrator 28.2.0, SVG Export Plug-In . SVG Version: 6.00 Build 0)  -->
<svg version="1.1" id="Layer_1" xmlns="http://www.w3.org/2000/svg" xmlns:xlink="http://www.w3.org/1999/xlink" x="0px" y="0px"
	 viewBox="0 0 512 512" style="enable-background:new 0 0 512 512;" xml:space="preserve">
<style type="text/css">
	.st0{fill:#FFFFFF;}
</style>
<g>
	<path class="st0" d="M256,512C114.8,512,0,397.2,0,256S114.8,0,256,0s256,114.8,256,256S397.2,512,256,512z M256,46.6
		c-115.5,0-209.5,94-209.5,209.5s94,209.5,209.5,209.5s209.5-94,209.5-209.5C465.5,140.5,371.5,46.6,256,46.6z"/>
	<g>
		<path class="st0" d="M281.1,240.4c-11.2-4.7-52.5-11.2-52.5-29.3c0-13.3,15.4-17.2,24.7-17.2c8.4,0,18.5,2.7,23.9,8
			c3.4,3.2,4.8,5.6,5.9,8.9c1.4,3.8,2.3,8,7.6,8h27.5c6.5,0,8.1-1.2,8.1-8.3c0-30.4-23.9-47.6-51.1-53.5v-23.7
			c0-5.3-1.7-8.6-8.1-8.6h-21.9c-6.5,0-8.1,3.2-8.1,8.6V156c-29.2,5.6-53.6,23.9-53.6,57.1c0,37.5,26.1,49.4,54.4,58.8
			c23.9,8,48.8,8.3,48.8,24.8c0,16.6-12.3,20.1-27.5,20.1c-10.4,0-21.9-2.7-27.5-9.8c-3.6-4.4-5-8.3-5.3-12.1
			c-0.6-7.4-3.6-8.3-10.1-8.3h-27.2c-6.5,0-8.1,1.5-8.1,8.3c0,33.7,27,54.1,56.1,60.6v23.1c0,5.3,1.7,8.6,8.1,8.6h21.9
			c6.5,0,8.1-3.3,8.1-8.6v-22.4c33.1-5,55.8-25.1,55.8-60.6C331.1,255.4,301.4,246.8,281.1,240.4z"/>
	</g>
</g>
</svg>
