<?xml version="1.0" encoding="utf-8"?>
<!-- Generator: Adobe Illustrator 28.2.0, SVG Export Plug-In . SVG Version: 6.00 Build 0)  -->
<svg version="1.1" id="Layer_1" xmlns="http://www.w3.org/2000/svg" xmlns:xlink="http://www.w3.org/1999/xlink" x="0px" y="0px"
	 viewBox="0 0 512 512" style="enable-background:new 0 0 512 512;" xml:space="preserve">
<path d="M256,512C114.8,512,0,397.2,0,256S114.8,0,256,0s256,114.8,256,256S397.2,512,256,512z M256,46.6
	c-115.5,0-209.5,94-209.5,209.5s94,209.5,209.5,209.5s209.5-94,209.5-209.5C465.5,140.5,371.5,46.6,256,46.6z M150.8,330.2h120.3
	c8.4,0,15.1,6.7,15.1,15.1l0,0c0,8.4-6.7,15.1-15.1,15.1H150.8c-8.4,0-15.1-6.7-15.1-15.1l0,0C136,337.2,142.6,330.2,150.8,330.2z
	 M150.8,270.7h180.3c8.4,0,15.1,6.7,15.1,15.1l0,0c0,8.4-6.7,15.1-15.1,15.1H150.8c-8.4,0-15.1-6.7-15.1-15.1l0,0
	C136,277.4,142.6,270.7,150.8,270.7z M150.8,211.2h150.5c8.4,0,15.1,6.7,15.1,15.1l0,0c0,8.4-6.7,15.1-15.1,15.1H150.8
	c-8.4,0-15.1-6.7-15.1-15.1l0,0C136,217.8,142.6,211.2,150.8,211.2z M150.8,151.6h210.5c8.4,0,15.1,6.7,15.1,15.1l0,0
	c0,8.4-6.7,15.1-15.1,15.1H150.8c-8.4,0-15.1-6.7-15.1-15.1l0,0C136,158.6,142.6,151.6,150.8,151.6z"/>
</svg>
