<svg xmlns="http://www.w3.org/2000/svg" xml:space="preserve" viewBox="0 0 512 512"><path d="M252.6 0c-2.5 1.5-3.2 5-4.9 7.4-3.8 6.9-6.9 14.3-11.4 20.9-5.3 5.2-13.2 5.8-19.9 8.4-27.8 8.6-55.6 17.5-83.5 25.7-11-5.3-21.4-11.9-32.6-16.5-2 .3-.7 3.2-.8 4.5 1.4 11.3 3.7 22.5 4 33.9C83.9 111 64.6 138 44.7 164.5c-2.7 3.2-7.6 2.4-11.3 3.4-8.5 1.3-17.2 1.7-25.6 3.7-1.7 1.2 1.2 2.9 1.7 4.1 7.1 8 14.7 15.6 22.1 23.4.4 34.9 1.1 69.7 1.2 104.6-8.6 9.2-17.8 17.8-25.5 27.6.3 1.8 3.3 1.3 4.6 1.8 9.7 1.7 19.7 1.7 29.1 4.5 2.9 1.8 4.3 5.4 6.7 7.9 20 26.4 40 52.9 59.6 79.6-1.1 12-4 23.9-4.7 36 .6 2 3.2 0 4.3-.3 9.3-4.2 18-9.6 27.3-13.9 34.6 11.1 69.2 22.3 103.6 34 2.6 1 5.9 1.6 6.6 4.8 4.7 8.5 8.7 17.5 14 25.7.7 1.5 2.1.9 2.4-.5 5.4-9.4 10.2-19.2 15.2-28.8l102.6-31.8c10.5 5.4 20.5 11.8 31.4 16.5 1.6 1 2.4-.8 2-2.2-.8-11.3-3.7-22.5-4.1-33.8.9-3.7 4.1-6.4 5.9-9.7 17.9-25.2 36.1-50.2 54.6-74.9 4.1-2.7 9.4-2.4 14.1-3.3 7.3-1.2 14.8-1.5 22-3.4 1-1.4-1.6-2.8-2.1-4-6.4-7.9-14.4-14.6-20-23.1-3.2-6.4-2-13.8-2.6-20.7-.7-28.3-1-56.6-1.2-84.9 8.4-8.9 17.2-17.3 24.7-27 .4-1.8-2.7-1.5-3.8-2-10.7-1.9-21.6-2.5-32.1-4.9-5.7-5.7-9.9-12.7-14.9-19-15.8-21.6-32.1-42.9-47-65.2-2.7-2.9-.3-6.9-.3-10.3 1.2-9.5 3.3-19 3.4-28.6-1.6-.7-3.8 1.2-5.5 1.7-9.3 4.5-18.5 9.4-27.6 14.3-35.3-11.5-70.5-23-105.8-34.6C264.2 21 259.5 10.3 253.2.5c0-.4-.3-.5-.6-.5m4.1 87.7c12 .1 23.2 5.9 33.2 12.1 10.1 7.4 19.4 16.4 25.7 27.3 6.3 11.6 10.7 24.5 10.1 37.7.1 22.2-.6 45.1-9.3 65.9-.6.9-1.2 3.5.7 2.4 12.9-6.8 23.7-17.1 32.8-28.3 4.8-7.1 9.6-14.8 11.3-23.4.3-4.2-.1-8.9-3.6-11.8-5.4-6.6-12.1-12.3-16.1-19.9-1.6-5.3-.4-11.1-.8-16.5.2-3.4 2.5-6.5 4.3-9.4 5.1-7.4 14.9-8.9 23.1-8 7.5.4 15 3.5 19.3 9.8 4.5 6.2 6.7 14.3 5.4 21.9-1 1.7-4 4.2-5.5 1.5-3.5-5.8-3.5-14-9.7-18-6-3.5-14.6-2.6-19.1 2.9-3.4 3-4.5 7.9-2.9 12.2 2.6 6.3 8.5 10.5 12.9 15.5 4 4.2 8.9 8.9 8.5 15.2.4 3.2-.8 6.4-.6 9.5 1.7.4 3.3-1.7 4.9-2.3 6.2-3.9 12.5-8.3 19.7-10.2 7.4-.5 15.3-1.3 22.4 1.5 5.7 2.3 11.1 7.3 11.4 13.9.8 7.8.2 16.2-4 23.1-2.2 2.7-6.1 5.7-9.6 3.3-3-1.5-4.9-5.1-3.3-8.3 2.2-5.3 5.1-11.8 1.4-17.1-2.3-4-7.3-5.8-11.7-4.4-16.1 4.8-29.6 15.8-40.6 28.2-9.4 11.9-15.5 26-21.3 39.9-2.7 7.4-6.1 14.9-6.7 22.9.8 8.7 8.2 15.1 15.6 18.8 9.2 4.4 19.2 7.2 29.4 8.1 7.4-.1 15.2 1 22.3-1.3 5.3-1.9 10.4-5.3 12.3-11 2.3-6.8 2-14.3.8-21.3-1.8-7.9-6.5-16.1-14.4-19.1-4.5-.7-9.2-.6-13.8-.1-6.5 2.1-10.7 7.9-13.4 13.9-2.2 3.4-3 8.5-7.1 10.3-4.4 1.6-8.1-3.1-7.7-7.2-1.3-12.8 5.8-26.1 17.7-31.4 10.5-5.3 23.1-5.9 34.2-2.2 15.2 6 26.3 21.5 26.8 37.9.8 11.6 0 23.5-4.8 34.2-5 12.5-17.3 20.7-30.2 23.1-15.1 3.3-30.8 1.1-45.8-1.6-9.8-1.8-19.1-5.6-28.5-8.9-1.2 1 1.4 2.4 1.8 3.5 11.6 13.4 23 28.4 25.3 46.4 1.4 12.8-.2 27.2-8.7 37.6-7.5 8.7-19.4 13.1-30.8 12.5-9.6.4-19.4-.5-28.2-4.9-12.4-5.8-20.3-18.7-22.3-31.9-.1-6.4-.8-12.9.7-19.1.9-3.8 5.3-7 9-4.8 5.6 3.2 5.4 10.5 6.5 16 1.4 8.9 4.6 18.4 12.7 23.4 6.7 4.6 15.4 6 23.2 3.9 7.5-3.2 11.8-11.4 11.1-19.4-.9-10.2-4.5-20.2-10.3-28.7-7.1-9.9-17.5-16.9-28.6-21.6-11.4-4.8-23-9-34.1-14.3-2.4-1.3-5.1-1.3-7.4 0-12.2 5.8-24.9 10.4-37.2 15.9-11.5 5.1-21.5 13.7-28 24.5-4.7 8.8-8.5 19-7.3 29.1 1.2 8 8.1 15.9 16.8 15.2 9.5.9 19.1-3.8 24.4-11.7 5.6-8 5-18.3 7.9-27.3 1.4-3 4-6.7 7.7-5.7 5.2 1.2 6.1 7.7 6.5 12.2 1.2 15.2-4.1 31.8-17 40.9-9.3 7.1-21.3 8.3-32.6 8.3-11.3.8-23.1-3.2-31.1-11.4-8.4-9.3-10.4-22.5-10.1-34.5 1.3-18.3 11.7-34.3 23.4-47.8 1.5-2 3.7-3.7 4.7-6-1.4-.8-3.3 1-4.9 1.2-18.4 7.1-38.2 11.1-58 10.6-13.5-.7-28-4.8-36.7-15.8C70.4 302.1 69 284.1 71 268c1.2-10.7 7.3-20.3 15.5-27.1 7.5-6.4 17.5-9.7 27.3-8.9 9 .2 17.6 3.9 24.8 9.1 8 7.4 12.2 19.1 10 29.7-.9 3.8-6.2 6.6-9.1 3.2-5.5-7.1-7.5-17.7-16.3-22-4.7-1.9-9.9-.9-14.8-1-6.4.7-10 6.9-12.9 12-4.7 7.4-3.4 16.4-3.2 24.6.6 6.7 6 12.1 12.2 14.4 7.2 3.1 15.2 1.7 22.7 1.9 10.1-.6 19.9-3.5 29.1-7.6 7.5-3.6 15.5-9.6 16.5-18.6 0-8.8-4-17.1-7-25.2-5.4-12.5-11-25.1-19-36.2-11-13.1-24.8-24.6-41.1-30.1-4-1.6-9-1-11.8 2.6-3.5 3.6-4 9.2-1.8 13.6 1.1 3.3 4.4 7.4 1.5 10.7-1.8 2.7-5.5 5-8.5 2.6-6.9-4.3-8.1-13.3-8.3-20.7-.4-7.8 3.2-16.6 11-19.2 6.7-2.2 14.1-3.4 21.2-2.3 9.6 2.1 17.6 8.2 25.9 13.1 1.8.2.3-2.5.4-3.4-2.1-6.9 1-14 5.7-18.9 4.8-5.9 11.5-10.4 15.1-17.2 1.9-5.3.4-12-4.6-15.1-6-4.1-15.6-4.1-20.3 1.9-3.4 4.9-3.7 11.4-7.2 16.2-2.8 1.3-5.4-2.1-5.1-4.8-.7-11 5-23.2 15.7-27.3 7.4-2.8 15.6-2.8 23.1-.9 6.7 2.3 11.9 8.6 13.3 15.5.5 5.9 1.1 12.1-.8 17.8-4.7 9.4-14.5 15.2-18.9 24.7-2.3 6.4 1.5 12.9 4 18.6 8.8 16.8 23 30.6 39.6 39.5 1.3.9 1.9-.6 1.1-1.6-8-17.9-9-37.7-9.8-57-.4-11.5-.2-23.2 4-34 7.3-21.3 24.4-38.5 44.7-47.7 6.9-3.1 14.3-5.3 21.8-5.2m-29.1 122.9c-8.8.1-16.7 9.3-14.3 18.1 1.5 6.4 4.3 14.3 11.4 16.2 5.6 1.8 11.7-1 14.6-6 2.5-4.2 4.6-9.1 4.5-14.1-1.1-7.7-8.2-14.7-16.2-14.2m56.1-.2c-4.1-.2-8.2 1.8-10.7 5.1-4.9 4.5-5 11.9-2.7 17.7 2.2 6.2 7.4 12.7 14.6 12.3 8.3-1.2 13.1-9.9 14.2-17.5 1-5.4-1.5-10.7-5.7-14.1-2.5-2.7-6.2-3.6-9.7-3.5" style="fill:#3d66af"/></svg>