<svg xmlns="http://www.w3.org/2000/svg" xml:space="preserve" viewBox="0 0 512 512"><linearGradient id="easypanel_svg__a" x1="395.338" x2="116.737" y1="293.742" y2="776.302" gradientTransform="translate(0 -279)" gradientUnits="userSpaceOnUse"><stop offset="0" style="stop-color:#12cd87"/><stop offset="1" style="stop-color:#12abcd"/></linearGradient><path d="M507.8 232.6c5.6-9.7 5.6-21.7 0-31.5l-101-174.9c-5.6-9.7-16-15.7-27.3-15.7H177.7c-11.3 0-21.7 6-27.3 15.7L85.3 139l-81 140.4c-5.6 9.7-5.6 21.7 0 31.5l100.9 174.9c5.6 9.7 16 15.7 27.3 15.7h201.9c11.3 0 21.7-6 27.3-15.7l65-112.8zM426.7 373l6.8-11.9c5.6-9.7 5.6-21.7 0-31.5L332.6 154.8c-5.6-9.8-16-15.8-27.3-15.7h-220L78.5 151c-5.6 9.7-5.6 21.7 0 31.5l100.9 174.8c5.6 9.8 16 15.8 27.3 15.7z" style="fill-rule:evenodd;clip-rule:evenodd;fill:url(#easypanel_svg__a)"/></svg>