<?xml version="1.0" encoding="utf-8"?>
<!-- Generator: Adobe Illustrator 28.2.0, SVG Export Plug-In . SVG Version: 6.00 Build 0)  -->
<svg version="1.1" id="Layer_1" xmlns="http://www.w3.org/2000/svg" xmlns:xlink="http://www.w3.org/1999/xlink" x="0px" y="0px"
	 viewBox="0 0 512 512" style="enable-background:new 0 0 512 512;" xml:space="preserve">
<style type="text/css">
	.st0{fill:#FFFFFF;}
</style>
<path class="st0" d="M404.9,125.9C404.9,125.9,404.9,125.9,404.9,125.9C404.9,125.9,404.9,125.9,404.9,125.9h-19h0
	C384.3,56.1,327.2,0,257,0c-70.4,0-127.6,56.5-128.9,126.6h0v-0.7H30.6v73.4c-0.1,1.3-0.1,2.6-0.1,3.9v232.2
	c0,42.3,34.3,76.6,76.6,76.6h21.1h17.1h111.9v-0.1h33.7v0.1h114c42.2,0,76.5-34.2,76.5-76.5v-1.6V202.4v-76.5H404.9z M257.2,30.3
	c53.3,0,96.8,42.6,98.2,95.6h-64.5h-33.7H159C160.4,72.9,203.9,30.3,257.2,30.3z"/>
</svg>
