<svg xmlns="http://www.w3.org/2000/svg" xml:space="preserve" viewBox="0 0 512 512"><circle cx="256" cy="256" r="256" style="fill:#8192aa"/><path d="M443.9 294.9c-.5-.2-1.1-.5-1.6-.5-4.8-.5-9.6-1.3-14.5-1.3-4.8-.1-9.5.7-14.3.9-8 .2-16.1 1-24.1-.3-2.6-.4-2.8-1.6-2.8-3.5-.1-5.2-.1-10.5-.2-15.7 0-1.3.2-2 1.7-2.2 2.2-.2 3.5-1.6 4.2-3.8 1-3.3 2.3-6.5 3.4-9.7 2.1-6.3 5-12.4 6.2-18.9 1.5-8.3 1.5-16.8 2.4-25.2.7-6.5-.5-12.4-4.1-17.8-1.2-1.8-2.4-4.1-2.6-6.2-.6-5.4-.6-10.8-.7-16.2 0-.6.6-1.3 1.1-1.7.9-.9 1.9-1.6 2.8-2.4-.1-.6.1-.6.3-.6 2.2.2 4.4.4 6.5.6 4.9.5 4.8.6 6.2 5.3.7 2.3 1.9 4.7 3.4 6.6 2.8 3.8 8.5 5.6 12.9 4.3 7.4-2.3 12-6.9 13-14.9 1-7.9-3.9-15-11.9-16.9-8.1-1.9-14.6 1.8-17.2 9.8-.1.4-.1 1-.4 1.3-.4.5-1 1.1-1.5 1-3.8-.4-7.6-.9-11.4-1.3-.8-2.6.9-5.8-2.1-7.6-.3-.2-.1-1-.1-1.6 0-3.1 0-6.3-.1-9.4 0-1.6-.8-2.3-2.5-2.1-6.3.5-11.6 5-13.3 11.3-.2.7-.7 1.8-1.3 1.9-1.8.5-2 1.6-2 3.2 0 2.8-.5 3.3-3.4 3.4-3.8.2-7.7.2-11.5.5-1.6.1-2.2-.5-2.9-1.9-1.5-2.9-3-6.2-5.4-8.4-5.6-5.2-15.3-3.6-20.6 3-5.6 6.9-4.8 18 1.7 22.6 7.2 5 19.3 4 23.3-6.6 1.5-3.9 3.2-5.6 7.3-5.3 3.6.3 7.3.1 10.4.1.7 1.4 1 3.1 1.8 3.4 1.9.7 1.9 1.7 1.6 3.2-.2 1-.3 2-.5 3-1.8 12.3-1.8 12.3-8.8 22.7 0 .1-.1.1-.1.2-.6 1.5-1.4 3-1.7 4.5-.5 2.7-.8 5.4-1 8.1-.1 2.1-.4 3.3-2.9 2.1-.4-.2-1.1.3-1.7.5-.7.2-1.4.6-2.2.8-5.1 1.1-10.3 2-15.3 3.2-4.6 1.1-9.1 2.6-14 4-.1-1.7-.2-3.1-.3-4.5-.1-2-.1-4.1-.4-6.1-.4-2.6-2.6-2.6-4.6-2.6-1.8 0-3.5.3-3.6 2.7-.2 3.4-.6 6.9-.8 10.3-.1 1.6-.7 2.2-2.4 2.1-3-.2-5.9-.5-8.9-.3-5.2.3-10.3.8-15.4 1.4-1.9.2-2.4-.2-2.5-2.1-.2-6.5-.5-13-1-19.5-.1-1-1-2.6-1.8-2.8-4.3-1.3-8.7-1.7-13.2-.3-1.5.4-2.2 1.3-2.3 2.8-.1 3.1-.3 6.3-.5 9.4-.3 4.8-.7 9.6-1.1 14.4-.4.1-.6.3-.8.3-10.7 1.3-21.4 2.5-32.1 3.8-13 1.6-25.9 3.3-38.9 4.9-4.5.5-9 .4-13.5.9-2.9.3-5.7 1.2-8.6 1.8-.6.1-1.5.8-1.8.5-.5-.4-.8-1.2-.9-1.9-.3-4.1-.2-8.2-.8-12.2-.4-2.8.3-4.4 2.7-6 3.5-2.3 6-5.5 5.1-10.2-.2-1 0-2 0-3.1 0-6.2-.8-7.4-6.7-9.6-1-.4-2.1-.7-3.1-1-12.3-3.1-24.8-4.1-37.4-4.3-14.1-.2-28.2.3-42.2 2.1-7.8 1-15.5 2.2-22.8 5.3-5.1 2.2-6.1 3.6-5.3 9.1 1.7 11.1-1 8.4 8.9 15.2.9.6 1.6 2 1.7 3 .3 3 .2 6.1.3 9.2.6 18.5 1.4 37.1 1.7 55.6.1 6.1 2.4 10.2 8 12.1 4.9 1.7 9.9 2.8 14.8 4.3.7.2 1.7.6 2 1.2.9 1.8 1.4 3.7 2.2 5.7-2 2.5-2.1 4.5-.5 7.6.4.7.8 1.9.5 2.4-1.7 2.6-1.1 5 .2 7.5.3.5.5 1.3.2 1.6-1.8 2.6-1.1 5 .3 7.5.3.6.4 1.7 0 2.3-1.3 2.3-.7 4.3.2 6.5.5 1.1.8 2.3.7 3.5-.2 2.2.5 3.9 2.3 5 1.3.8 2.7 1.6 4.2 2.1 9.2 3.3 18.6 3.4 28 1.6 4.8-.9 9.5-2.5 13.9-4.6 4.3-2 5.1-6.3 2.9-10.5-.3-.5-.1-1.5.2-2.1 1.4-2.4 1.5-4.7-.1-7-.4-.5-.5-1.6-.3-2.1 1.6-3.1 1.6-6-.8-8.7 2.3-3.4 2.9-6.7.1-9.2.5-2.6 1.6-4.8 1.2-6.7s-2.2-3.6-3.5-5.6c1.7-.5 3.5-.9 5.3-1.5 5.9-1.8 11.8-3.8 16.7-7.7 1.5-1.2 2.5-2.6 2.8-4.6 1.2-6.7 3.9-12.7 8.5-17.7 8.7-9.5 19.7-12.9 32.2-12.1 1.1.1 2.2 1 3.4 1.5-.6.7-.9.8-1.3.9-6.1 1.1-12.2 2.1-18.2 3.3-.7.1-1.8.7-1.9 1.3-.2.9 0 2.4.6 2.8.8.6 2.2.6 3.3.4 5.6-.8 11.2-2 16.9-2.6 1.4-.2 3.6.7 4.3 1.8.8 1.4.5 3.5.4 5.3 0 .5-1.2.9-1.9 1.4-.4.3-.7.6-1 .9-.7.5-1.3 1.2-2.1 1.4-5.6.9-11.1 1.7-16.7 2.5-1.8.3-2.7 1-2.3 3 .4 1.8 1.3 2.1 3.1 1.9 6.7-.6 13.1-2.8 20.1-1.5 3.4.7 6.3 1.4 9 3.6 1.5 1.2 3.2 2.3 4.7 3.5.4.3.7.8 1.3 1.5-3.1.4-5.7.8-8.3 1.1-3.7.5-7.4 1-11.2 1.5-1.8.2-2.6 1.1-2.2 3 .3 1.6.6 2.5 2.6 2.2 4.5-.8 9-1.3 13.5-1.9 2.1-.3 4.2-.5 7-.7 0 8.4-.1 16.3 0 24.2.1 12.7.3 25.4.4 38.1 0 1.9.8 2.6 2.5 2.9 6.8 1.2 13.5 1.2 20.3 0 4.3-.8 4.3-.7 4.3-5-.2-20.6-.3-41.2-.5-61.8 0-2 .5-3 2.3-3.9 4.6-2.3 5.2-6.9 1.7-10.7-.7-.7-1.5-1.3-2.4-1.9-2.1-1.5-2-2.8.1-4.2 1.6-1.1 3-2.4 4.4-3.6.2-.2.5-.5.7-.5 2.5.1 2.4-1.6 2.3-3.3-.1-1.6 0-3.1 0-4.7 0-5.5 0-5.5 5.4-6.1 3-.4 5.8-.6 8.5 1.3.9.6 2.4.7 3.6.5 8.1-1 16.3-2.2 24.4-3.3 2.3-.3 3.5-1.7 4.2-3.8.3-.8 1.2-1.9 2-2 8-1.3 14.9-5 21.9-8.8 3.9-2.1 8.2-3.5 12.3-5 1.4-.5 3-.4 4.4-.6 1.8 9.1 3.6 17.7 5.1 26.4.7 4 2.3 6.5 6.5 6.9.1 0 .2.2.5.4-.6 2.9 1.2 6.2-1.3 9.1-.3.4-.2 1.7.1 2.2 1.9 2.5.9 5.2 1 7.8-4.7-.5-6.3-1.5-9.1-4.7-4.6-5.3-9.3-10.6-14.1-15.8-.7-.7-2-1.4-2.9-1.3-4.1.5-8.2 1.3-12.3 2-3.3.6-3.5 1.2-2.1 4.2 2.8 6 5.6 12.1 8.5 18 .7 1.5.7 2.4-1 3.1-.7.3-1.2 1-1.9 1.6 1 .6 1.6.9 2.3 1.3-.3.6-.5 1.1-.8 1.6-1.5 2.9-1.2 3.7 1.9 4.4 4 .9 7.9 1.8 11.9 2.8 1.5.4 2.5.1 3.4-1.2 1.5-2.2 3.1-4.3 4.7-6.5 1.2-1.6 2.5-2.8 4.9-2.7 4.3.1 8.7-.2 13-.3 10.3-.2 20.7-.6 31-.4 7.7.2 15.3.4 22.8-1.5 1.1-.3 2.1-.7 3.1-1.1.6-.4.6-.6.5-.8m-170.3-8.1c.5.8 1.3 1.5 1.3 2.3 0 .7-.8 1.4-1.3 2.1l-.6-.3v-3.7c.2-.2.4-.3.6-.4" style="fill:#fefefe"/></svg>