<svg xmlns="http://www.w3.org/2000/svg" xml:space="preserve" viewBox="0 0 512 512"><path d="M476.8 249.9c13.6 78.4-15.1 172-100.2 226.7-82 52.7-187.9 45.9-263.3-16.1-71.8-59-91.9-148.8-76.6-215 13.5 54.7 42.1 99.5 87.6 132.7s97 48.6 152.8 42c103.6-12.2 168.6-71.7 199.7-170.3M178.8 67c-37.9 56.6-34.1 134.7 16.5 189.2 31.9 34.4 104.4 58.1 135 42.7-77.9-99.5-70.1-197.6 4.8-295.2C278.9-9.7 214.6 13.6 178.8 67m10.6 232.1c-74.2-68.8-83.8-148.5-40.5-236.6-38.6 22.5-81.8 84-77.3 159.3 4.6 76.9 60.7 145.4 135.1 164.3 79.3 20.1 154.9-14 193.2-70.5-73.7 37.9-143.9 34-210.5-16.5" style="fill:#fff"/></svg>