<svg xmlns="http://www.w3.org/2000/svg" xml:space="preserve" viewBox="0 0 512 512"><path d="M493.1 256.4c0 53.9-7.3 99.2-22 136.1s-36.6 65.3-65.9 85.2c-29.3 19.3-65.3 30.4-108 33.4-13.5.6-27.2.9-41.3.9-14.6 0-28.4-.3-41.3-.9q-64.95-4.35-108-36C77.3 454 55.4 425 40.7 388.2c-14.6-36.9-22-80.8-22-131.7s7.3-94.8 22-131.7c14.6-36.9 36.6-65.9 65.9-86.9q43.05-31.65 108-36C227.6.6 241.4 0 256 0c14.1 0 27.8.6 41.3 1.8q64.05 4.35 108 34.2c29.3 19.3 51.2 47.4 65.9 84.3 14.6 36.9 21.9 82.3 21.9 136.1m-140.5 0c0-17-4.7-27.5-14.1-31.6-10-4.1-25.2-6.7-45.7-7.9q-13.2-.9-36.9-.9c-23.7 0-28.1.3-36.9.9-19.3 1.2-34 3.8-43.9 7.9-10.5 4.1-15.8 14.6-15.8 31.6 0 16.4 5.3 26.9 15.8 31.6 10 4.1 24.6 6.7 43.9 7.9q13.2.9 36.9.9c23.7 0 28.1-.3 36.9-.9 20.5-1.2 35.7-3.8 45.7-7.9 9.4-4.6 14.1-15.2 14.1-31.6" style="fill:#4f76f6;fill-opacity:.6"/><path d="M446.3 256.4c0 43.2-5.9 79.5-17.6 109.1s-29.3 52.3-52.8 68.3c-23.5 15.5-52.3 24.4-86.6 26.7-10.8.5-21.8.7-33.1.7-11.7 0-22.8-.2-33.1-.7-34.7-2.3-63.6-12-86.6-28.9-23.5-16.9-41-40.1-52.8-69.7-11.7-29.6-17.6-64.7-17.6-105.6 0-40.8 5.9-76 17.6-105.6S113 97.9 136.5 81c23-16.9 51.8-26.5 86.6-28.9 10.3-.9 21.3-1.4 33.1-1.4 11.3 0 22.3.5 33.1 1.4 34.2 2.3 63.1 11.5 86.6 27.4 23.5 15.5 41 38 52.8 67.6 11.8 29.8 17.6 66.2 17.6 109.3m-112.5 0c0-13.6-3.8-22-11.3-25.3q-12-4.95-36.6-6.3c-7-.5-16.9-.7-29.6-.7s-22.5.2-29.6.7c-15.5.9-27.2 3-35.2 6.3-8.4 3.3-12.7 11.7-12.7 25.3 0 13.1 4.2 21.6 12.7 25.3 8 3.3 19.7 5.4 35.2 6.3 7 .5 16.9.7 29.6.7s22.5-.2 29.6-.7q24.6-1.35 36.6-6.3c7.5-3.7 11.3-12.1 11.3-25.3" style="fill:#4f76f6;fill-opacity:.4"/><path d="M418.3 256.7c0 36.6-5 67.4-14.9 92.4s-24.8 44.3-44.7 57.8c-19.9 13.1-44.3 20.7-73.3 22.7-9.1.4-18.5.6-28 .6-9.9 0-19.3-.2-28-.6-29.4-2-53.9-10.1-73.3-24.4-19.9-14.3-34.8-34-44.7-59s-14.9-54.9-14.9-89.4c0-34.6 5-64.4 14.9-89.4s24.8-44.7 44.7-59C175.6 94.1 200 85.9 229.4 84c8.7-.8 18.1-1.2 28-1.2 9.5 0 18.9.4 28 1.2 29 2 53.5 9.7 73.3 23.3 19.9 13.1 34.8 32.2 44.7 57.2 10 24.8 14.9 55.6 14.9 92.2m-95.4 0c0-11.5-3.2-18.7-9.5-21.5-6.8-2.8-17.1-4.6-31-5.4-6-.4-14.3-.6-25-.6s-19.1.2-25 .6c-13.1.8-23.1 2.6-29.8 5.4-7.2 2.8-10.7 9.9-10.7 21.5 0 11.1 3.6 18.3 10.7 21.5 6.8 2.8 16.7 4.6 29.8 5.4 6 .4 14.3.6 25 .6s19.1-.2 25-.6c13.9-.8 24.2-2.6 31-5.4 6.4-3.2 9.5-10.3 9.5-21.5" style="fill:#4f76f6;fill-opacity:.8"/></svg>