<?xml version="1.0" encoding="utf-8"?>
<!-- Generator: Adobe Illustrator 28.2.0, SVG Export Plug-In . SVG Version: 6.00 Build 0)  -->
<svg version="1.1" id="Layer_1" xmlns="http://www.w3.org/2000/svg" xmlns:xlink="http://www.w3.org/1999/xlink" x="0px" y="0px"
	 viewBox="0 0 512 512" style="enable-background:new 0 0 512 512;" xml:space="preserve">
<style type="text/css">
	.st0{fill:#00A9E5;}
	.st1{fill:#353535;}
	.st2{fill:#00BFB3;}
	.st3{fill:#019B8F;}
	.st4{fill:#F9B110;}
	.st5{fill:#FED10A;}
</style>
<g>
	<path class="st0" d="M373.8,179.2H240c0.6,3.2,1.9,6.4,2.6,9c4.5,15.4,7,31.4,8.3,48c0.6,6.4,0.6,13.4,0.6,19.8s0,13.4-0.6,19.8
		c-1.3,16.6-3.8,32.6-8.3,48c-0.6,3.2-1.9,6.4-2.6,9h133.8c42.2,0,76.2-34.6,76.2-76.8S416,179.2,373.8,179.2z"/>
	<path class="st1" d="M250.9,275.8c0.6-6.4,0.6-13.4,0.6-19.8c0-6.4,0-13.4-0.6-19.8c-1.3-16.6-3.8-32.6-8.3-48
		c-0.6-3.2-1.9-6.4-2.6-9H33.3c-7.7,24.3-11.5,49.9-11.5,76.8c0,26.9,3.8,52.5,11.5,76.8H240c0.6-3.2,1.9-6.4,2.6-9
		C247,308.5,249.6,292.5,250.9,275.8z"/>
	<path class="st2" d="M396.8,358.4H230.4c-5.1,11.5-10.9,22.4-17.3,32.6c-9.6,16-21.1,30.1-33.9,43.5c-4.5,4.5-9,8.3-13.4,12.8
		c-9,8.3-19.2,15.4-29.4,22.4c40.3,26.9,89,42.2,140.8,42.2c89,0,167-45.4,213.1-113.9C466.6,373.8,433.3,358.4,396.8,358.4
		L396.8,358.4z"/>
	<path class="st3" d="M213.1,391c6.4-10.2,12.2-21.1,17.3-32.6H42.9c19.8,45.4,52.5,84.5,94.1,111.4c10.2-7,19.8-14.1,29.4-22.4
		c4.5-3.8,9-8.3,13.4-12.8C192,421.8,203.5,407,213.1,391L213.1,391z"/>
	<path class="st4" d="M179.2,77.4c-4.5-4.5-9-8.3-13.4-12.8c-9-8.3-19.2-15.4-29.4-22.4c-41,26.9-73.6,65.9-94.1,111.4h187.5
		c-5.1-11.5-10.9-22.4-17.3-32.6C203.5,105,192,90.2,179.2,77.4z"/>
	<path class="st5" d="M277.1,0c-51.8,0-100.5,15.4-140.8,42.2c10.2,7,19.8,14.1,29.4,22.4c4.5,3.8,9,8.3,13.4,12.8
		C192,90.9,203.5,105,213.1,121c6.4,10.2,12.2,21.1,17.3,32.6h166.4c36.5,0,69.8-15.4,93.4-39.7C444.2,45.4,366.1,0,277.1,0z"/>
</g>
</svg>
