<svg xmlns="http://www.w3.org/2000/svg" xml:space="preserve" viewBox="0 0 512 512"><path d="M373.8 179.2H240c.6 3.2 1.9 6.4 2.6 9 4.5 15.4 7 31.4 8.3 48 .6 6.4.6 13.4.6 19.8s0 13.4-.6 19.8c-1.3 16.6-3.8 32.6-8.3 48-.6 3.2-1.9 6.4-2.6 9h133.8c42.2 0 76.2-34.6 76.2-76.8s-34-76.8-76.2-76.8" style="fill:#00a9e5"/><path d="M250.9 275.8c.6-6.4.6-13.4.6-19.8s0-13.4-.6-19.8c-1.3-16.6-3.8-32.6-8.3-48-.6-3.2-1.9-6.4-2.6-9H33.3c-7.7 24.3-11.5 49.9-11.5 76.8s3.8 52.5 11.5 76.8H240c.6-3.2 1.9-6.4 2.6-9 4.4-15.3 7-31.3 8.3-48" style="fill:#353535"/><path d="M396.8 358.4H230.4c-5.1 11.5-10.9 22.4-17.3 32.6-9.6 16-21.1 30.1-33.9 43.5-4.5 4.5-9 8.3-13.4 12.8-9 8.3-19.2 15.4-29.4 22.4 40.3 26.9 89 42.2 140.8 42.2 89 0 167-45.4 213.1-113.9-23.7-24.2-57-39.6-93.5-39.6" style="fill:#00bfb3"/><path d="M213.1 391c6.4-10.2 12.2-21.1 17.3-32.6H42.9c19.8 45.4 52.5 84.5 94.1 111.4 10.2-7 19.8-14.1 29.4-22.4 4.5-3.8 9-8.3 13.4-12.8 12.2-12.8 23.7-27.6 33.3-43.6" style="fill:#019b8f"/><path d="M179.2 77.4c-4.5-4.5-9-8.3-13.4-12.8-9-8.3-19.2-15.4-29.4-22.4-41 26.9-73.6 65.9-94.1 111.4h187.5c-5.1-11.5-10.9-22.4-17.3-32.6-9-16-20.5-30.8-33.3-43.6" style="fill:#f9b110"/><path d="M277.1 0c-51.8 0-100.5 15.4-140.8 42.2 10.2 7 19.8 14.1 29.4 22.4 4.5 3.8 9 8.3 13.4 12.8 12.9 13.5 24.4 27.6 34 43.6 6.4 10.2 12.2 21.1 17.3 32.6h166.4c36.5 0 69.8-15.4 93.4-39.7C444.2 45.4 366.1 0 277.1 0" style="fill:#fed10a"/></svg>