<svg xmlns="http://www.w3.org/2000/svg" xml:space="preserve" viewBox="0 0 512 512"><path d="M256 512c141.4 0 256-114.6 256-256S397.4 0 256 0 0 114.6 0 256s114.6 256 256 256" style="fill-rule:evenodd;clip-rule:evenodd;fill:#0dbd8b"/><path d="M209.2 119.3c0-10.3 8.4-18.7 18.8-18.7 70.2 0 127.1 56.8 127.1 126.8 0 10.3-8.4 18.7-18.7 18.7-10.4 0-18.8-8.4-18.8-18.7 0-49.4-40.1-89.4-89.6-89.4-10.4 0-18.8-8.4-18.8-18.7m183.5 89.4c10.4 0 18.7 8.4 18.7 18.7 0 70-56.9 126.8-127.1 126.8-10.4 0-18.7-8.4-18.7-18.7s8.4-18.7 18.7-18.7c49.5 0 89.6-40 89.6-89.4.1-10.3 8.4-18.7 18.8-18.7m-89.6 184c0 10.3-8.4 18.7-18.7 18.7-70.2 0-127.1-56.8-127.1-126.8 0-10.3 8.4-18.7 18.8-18.7s18.7 8.4 18.7 18.7c0 49.4 40.1 89.4 89.6 89.4 10.3 0 18.7 8.4 18.7 18.7m-183.7-89.4c-10.4 0-18.7-8.4-18.7-18.7 0-70 56.9-126.8 127.1-126.8 10.4 0 18.7 8.4 18.7 18.7s-8.4 18.7-18.7 18.7c-49.5 0-89.6 40-89.6 89.4-.1 10.4-8.5 18.7-18.8 18.7" style="fill-rule:evenodd;clip-rule:evenodd;fill:#fff"/></svg>