<svg xmlns="http://www.w3.org/2000/svg" xml:space="preserve" viewBox="0 0 512 512"><path d="M256 0C114.6 0 0 114.6 0 256s114.6 256 256 256 256-114.6 256-256S397.4 0 256 0m-28 100.6c70.2 0 127.1 56.8 127.1 126.8 0 10.3-8.4 18.7-18.7 18.7-10.4 0-18.8-8.4-18.8-18.7 0-49.4-40.1-89.4-89.6-89.4-10.4 0-18.8-8.4-18.8-18.7 0-10.4 8.4-18.7 18.8-18.7M119.4 303.3c-10.4 0-18.7-8.4-18.7-18.7 0-70 56.9-126.8 127.1-126.8 10.4 0 18.7 8.4 18.7 18.7s-8.4 18.7-18.7 18.7c-49.5 0-89.6 40-89.6 89.4-.1 10.4-8.5 18.7-18.8 18.7m164.9 108.1c-70.2 0-127.1-56.8-127.1-126.8 0-10.3 8.4-18.7 18.8-18.7s18.7 8.4 18.7 18.7c0 49.4 40.1 89.4 89.6 89.4 10.4 0 18.7 8.4 18.7 18.7.1 10.3-8.3 18.7-18.7 18.7m.1-57.2c-10.4 0-18.7-8.4-18.7-18.7s8.4-18.7 18.7-18.7c49.5 0 89.6-40 89.6-89.4 0-10.3 8.4-18.7 18.7-18.7 10.4 0 18.7 8.4 18.7 18.7.1 70-56.8 126.8-127 126.8" style="fill-rule:evenodd;clip-rule:evenodd;fill:#fff"/></svg>