<svg xmlns="http://www.w3.org/2000/svg" xml:space="preserve" viewBox="0 0 512 512"><path d="M440.3 394.5c-3.8-5.8-4.3-4.6 16-35.1 43.1-64.6 43.1-151.8 0-218-5.3-8.1-16.6-21.9-25.2-30.8s-16.2-17.9-16.9-20.1c-1.7-5.5 5.3-14.1 11.5-14.1 6.3 0 25.6 18.5 41.8 39.9 43.4 57.5 56.1 134.8 33.6 204.3-6.6 20.4-19.8 45.8-33.3 64-10.1 13.6-11.6 14.9-17.7 14.9-5 0-7.3-1.2-9.8-5M401 361.8c-4.8-5.4-3.8-10.1 4.6-21.4 9.9-13.2 21.4-37.3 25.4-53.1 12.7-50.5-2.1-103.3-39.8-142.1-6.8-7-12.4-14.3-12.4-16.2 0-4.3 8.3-12.8 12.4-12.8 4.3 0 26.2 21.4 36 35.2 11.1 15.6 19 31.9 25 51.7 4.6 15 5.1 19.8 5.2 46.2.1 31.7-1.3 40.7-10.5 64-6.1 15.5-19 37.8-26.7 46.2-5.9 6.7-14.3 7.7-19.2 2.3m-40.1-33.7c-4.7-4.7-3.5-12.4 3.4-22.2 15.3-21.6 21-47.4 15.8-72.6-4.1-19.8-10-31.5-24-47.3-12.1-13.6-13.3-16.9-8.5-23.7 5.3-7.5 13.1-5.7 24.3 5.9 4.8 4.9 9.1 10.2 12.8 15.7 12.2 17.8 19 38.5 20.2 61.6 1.1 21.7-2.2 38.3-11.8 57.9-11.9 24.8-23.4 33.5-32.2 24.7M147.1 433.6c-19.2-2.2-45.4-10.9-63.7-21.2-18.8-10.5-47.8-39-58.8-57.8C-16 285.4-5.4 201.8 51 146.9c71.5-69.5 189.5-61 249.6 18.1 26.7 35.2 38.9 78.7 33.8 120.6-8 65.9-51.2 119.4-114 141-11.6 4-42.6 9.4-52 9-3.4-.2-13-1-21.3-2m102.1-73.3c36-16.8 56.6-56.7 54.1-104.8-2.4-46.7-27.7-87.8-65-105.9-14.4-7-16.2-7.4-33.3-7.4-26 0-41.7 6.7-60.5 25.9-15.5 15.8-28.8 51.5-28.8 77.1 0 22.4 7.9 51.2 19.3 70.5 8.8 14.9 29 35 41.5 41.3 16 8.1 25.9 10.3 43.8 9.8 13.5-.4 18.2-1.5 28.9-6.5m-50.2-6.8c-22.4-6.3-47.5-28.7-59.5-53-25.3-51.3-10.2-115.7 32.3-138.7 40.2-21.6 86.5-1.9 110.9 47.2 8 16.2 11.5 32.5 11.5 54.1.1 51.3-30.4 89.3-74.1 92.1-6.9.4-16.1-.3-21.1-1.7m41.6-18.8c13.6-6.4 24.5-17.6 32.2-33 6.4-12.9 7.1-15.9 7.9-33.7 1-21.9-1.5-33.8-11.1-52.7-11-21.8-34.7-39.6-56.6-42.5-20.1-2.7-46.2 11.6-57.9 31.8-11.7 20.3-15 49.3-8.2 72.6 14.1 47.9 57.3 74.5 93.7 57.5M204 291.1c-16.2-8.9-24.9-30.6-19.9-49.2 2.6-9.5 13.7-21.8 21.5-23.8 12.9-3.2 28 5.5 35.9 20.8 8.7 16.9 3.3 41.8-11 50.6-6.7 4.2-20.3 4.9-26.5 1.6" style="fill:#fff"/></svg>