<svg xmlns="http://www.w3.org/2000/svg" xml:space="preserve" viewBox="0 0 512 512"><path d="M404.2 415.3c3.8-30.4 5.9-64.6 6.5-103.6l-40.1-14.2h123.2l11.9-30.4c-11.6.6-25.5-6.3-25.5-6.3l2.8-14.7h25.8L369 164.6c-15.5 6.6-31.9 15.3-43.4 25.8-9.2-7.4-40.9-30.4-85.1-31.3-28.6 3.7-43.8-4.8-53 25.4 0 0 30.8 51.3 112.7 50.1-4.6 21-2.5 36.4-2.5 55 0 61.8-44.2 115.8-141.5 115.8-24.7 0-52.2 2.5-79.1 8.5 8.8 15.2 19.6 28.7 32.1 40.3l.4-.2.3.9c41.7 38.4 103.1 57.2 180.5 57.2 37.6 0 71.5-6.8 101.1-19.4q3.9-16.2 7.2-34.8c3.1-16.7 4.7-30.7 5.5-42.6" style="fill:#ea9e44"/><path d="M3.1 8.3 29.4 0C42.2 51.2 58.1 79.1 78 93.3c18 12.1 42.4 12.4 68.2 10.9-7.5-2.8-14.6-6.6-21.1-12-14.6-12-27-31.8-36.3-67.9l26.2-8.7c7 27.2 15.2 42.9 26.2 51.9 11 8.8 24.2 11 39.9 12.9 29.4 3.7 66.3 5.2 112.2 29.1 6.2 2.6 12.6 5.9 18.8 9.6-.8-1.8-1.6-3.7-2.8-5.7-7.9-13.8-23.2-28.3-51.7-40.1l9.2-28.7c46.3 18.8 64.6 45.5 72 66.6 8.5 24.1 3.3 43 3.3 43-6.5 2.4-13.1 5.7-20.6 8.3-14.2-10.9-27.6-19-40.4-25.5-47.1-19.7-93.2-6.3-134.1-2-30.8 3.1-58.9 1.7-83.3-15.6C39.6 102.3 18.5 69.9 3.1 8.3M183 57.6c-5.4-13.6-8.7-30.4-7.2-51L203 8.8c-1.6 25 6.2 42 15 53-11.4-2.2-22.4-2.4-35-4.2m171.8-3.1 17.8-23c46.3 45.3 17.5 110.1 17.5 110.1l-25.4-3.1c-.8-14.8-2.5-42.3-14.2-57.8 7.7 4.4 14.2 9.2 21.4 16.4.1-13.5-3.7-29.4-17.1-42.6" style="fill:#c16929"/></svg>