<svg xmlns="http://www.w3.org/2000/svg" xml:space="preserve" viewBox="0 0 512 512"><path d="M487.1 396.7s0-.1 0 0v-.1c-.1-2.4-.3-4.6-1-6.9-.1-.5-.3-1-.5-1.4-1.9-3.9-3.3-8.1-4.6-12.3-.2-.5-.3-1.1-.5-1.7-1.1-3.6-2-7.1-2.6-10.8-.2-1.3-.1-2.6-1.1-3.6h-.1l-.3-.3c-2.5-.1-4.9.2-7.4.6q-6.45 1.05-12.9 1.8c-.5.1-1 .1-1.5.2-.9.1-1.9.2-2.8.3-1.1 0-1.9 0-2.5-.2-.9-.6-1.1-.8-2.1-1.7-2.6-2.4-5.2-4.6-8-6.7-1.7-1.3-3.4-2.5-5-3.8-3.6-3-7.3-5.7-11.6-7.5-.1 0-.1-.1-.2-.1s-.3-.1-.4-.1c-.3-.1-.5-.2-.7-.3V341c-.8-.8-1.5-1.2-2.4-1.6l-.1-.1h-.2c-.3-.1-.5-.2-.8-.3s-.5-.2-.8-.2v-.1c-.2 0-.3 0-.5-.1-.5-.1-1.1-.2-1.7-.3-.7-.1-.7-.1-1.3-.2-.8-.1-1.7-.3-2.5-.4-.2 0-.4-.1-.6-.1 2 0 3.9 0 5.9-.1.9-.1 1.8-.1 2.7-.1 2.1 0 4.1-.1 6.1-.3 1.3 0 2.7-.1 4-.1v-.2c1.3-.1 2.5-.3 3.8-.4 1.6-.1 3.3-.2 4.9-.5v-.2c3.3-.5 6.7-1.1 10-1.7 1.8-.3 3.5-.7 5.3-1 1.2-.2 2.3-.5 3.5-.7.9-.1.9-.1 1.7-.3 5.5-1.1 10.5-1.9 14.3-5.8.1 0 .1-.1.2-.1.1-.2.2-.3.3-.4.3-.3.5-.6.8-1 .1-.2.1-.5.2-.7.2-.3.3-.7.3-1.1 1.9-6.2 1.3-7.7-5.5-25.3-1.1-2.8-2.2-5.6-3.2-8.5-.6-1.6-1.1-3.1-1.7-4.7-.4-1-.7-2-1.1-3-.5-1.5-1.1-2.9-1.6-4.4-.3-.7-.3-.7-.5-1.4-.3-.8-.5-1.5-.8-2.2v-.1c-.3-1.1-.3-1.1-1.1-2.3-.4-.4-.8-.7-1.1-1l-.6-.6c-.9-.6-1.7-1-2.6-1.3l-1.5-.6c-2.8-.1-5.4 0-7.8 1.4-1.4 1-1.4 1-2.9 1.5-4.8 1.6-9.4 3.5-13.8 6-1.3.8-2.6 1.5-4 2.1-2.3 1-4.5 2-6.6 3.3-3.2 2.1-6.3 3.9-9.9 5.4-1.3.5-2.6 1-3.8 1.6-2 1.4-3.9 2.5-6.1 3.4-1.6.6-3.2 1.2-4.8 1.9-.6.2-1.1.5-1.7.7-1.1.5-2.3 1-3.5 1.5-3.1 1.3-6.1 2.7-9.4 3.5-1.2.3-2.3.6-3.4.9-.5.2-.5.2-1.1.4l-2.7.9c-.9.4-1.8.7-2.7 1-.1 0-.2.1-.3.1-2.3.8-4.6 1.4-7.1 1.7h-.6c-.2 0-.3-.1-.5-.1-.3-.1-.6-.3-.8-.4h-.1c-.6-.3-1.3-.5-3.4-1.3-.4-.2-.9-.3-1.3-.5-.8-.4-1.7-.7-2.5-1-.8-.2-1-.3-1.5-.5.1 0 .1-.1.2-.1 2-.6 4-1.2 5.8-2.3h.1l.2-.2c.3-.1.6-.3 1.1-.5.3-.3.5-.5.7-.8.1-.1.2-.1.3-.2q.3-.6.3-.9l.3-.3c0-.1-.1-.2-.1-.3.1-.4.1-.7.1-1.4h-.4c-.1-.4-.2-.7-.3-1.1.3-1 .4-2 .4-3.1.1-1 .1-1.3-.2-2-.1-.4-.1-.8-.2-1.3-.1.1-.3.2-.4.2l-.1-.1-.1-.1c.1-.2.1-.6.2-1.1v-.1c-1.2-1.6-2.1-2.9-3.7-3.9-.2-.2-.5-.3-.8-.5-.3-.1-.5-.2-.7-.3v-1c-.1 0-.1 0-.2-.1l-.1-.1c-.3-.3-.6-.4-1.6-.6-.1 0-.2 0-.3-.1-.5-.2-1-.4-1.6-.5-1.2-.4-2.1-.7-2.9-1.1-.4-.3-.8-.6-1.1-1-.2-.7-.5-1.4-.8-2-.1 0-.3-.1-.4-.1-.1-.2-.1-.4-.2-.6l-.6-.6c.3-1 .6-1.9 1-2.9.2-.4.3-.8.5-1.2s.3-.8.5-1.2c.2-.3.3-.6.4-.9-.1-.1-.2-.1-.3-.2-.3-.2-.7-.4-1.1-.6 0 .2-.1.3-.2.5 0 0-.1 0-.1-.1-.4 1.3-.4 1.5-.9 2.5h-1.1v.6c-.2.1-.5.1-.7.2h-.1c-.3-1.8-.7-3.6-1-5.4h.5l.2-.2h.4c.6-.8.7-.9 1.3-1.4.2 0 .4-.1.6-.1.9 0 1.6 0 2.3-.3.5-.1 1-.3 1.6-.8.1-.1.1-.2.2-.3h.1v-.1c.8-1.1.8-1.2.9-3-.1-.8-.1-1.5-.2-2.2-.1-1.5.1-3.4-1-4.5-.5-.2-.9-.4-1.4-.6-.3-.1-.6-.3-.9-.4.1 0 .2-.1.4-.1-.2 0-.4-.1-.7-.1-1.8-1-3.2-2.2-4.7-4.1-.7-2.7-.7-2.8-.1-5.4.5 0 .9-.1 1.4-.3.7-.1 1.4-.5 3.2-1.6 1.7-1.7 2.2-2.4 2.4-4.8 0-.4-.1-.9-.1-1.3 1.9 0 3.8-.2 5.5-.8.5-.1.9-.3 1.3-.5h.3v-.1c.4-.2.8-.3 1.2-.6v-.1c.7-.4 1.4-.8 2.1-1.3 1.8-2.4 1.8-2.4 1.1-9.5-.6-1.8-.6-1.8-2.1-2.9-.7-.4-1.3-.8-1.9-1.2-.7-.4-1.3-.8-1.9-1.2-1.2-.7-2.2-1.5-3.3-2.1 1.5-.3 3-.6 4.5-1v1.1c.3.2.7.4 1.1.6.2.6.4 1.1.6 1.7h1.1v-.2h.6c-.1-.5-.1-1-.2-1.5 0-.7-.1-1.3-.2-1.9-.1-.7-.1-1.4-.2-2.1.3 0 .6-.1 1-.2.5-.1 1-.4 2.4-1.1.9-.5 1.2-.7 1.7-.9 4 2 8.3 3.4 12.7 4.6 9.9 2.6 19.4 6.4 28.5 11.1 1.5.8 3 1.5 4.6 2.2 2.2.8 4.2 1.6 6.2 2.9 4.3 2.8 9 4.9 13.7 7 1.5.7 3 1.4 4.4 2.2 3 1.7 6 3.2 9.2 4.5l1.5.6c4.4 1.9 8.5 3.1 13.2 1.5.2-.1.4-.1.6-.2 1.9-1.3 2.8-2.1 3.7-4.1.2-.8.5-1.6.7-2.3 0 .1 0 .2.1.2.3-1 .6-2 .8-3 .3-.9.7-1.8 1.1-2.7 1.5-3 2.7-6.1 3.8-9.3.1-.3.3-.6.4-.9.2-.4.3-.8.5-1.2.4-1 .7-1.8.7-2.6.5-1.4 1-2.9 1.6-4.2q1.8-3.9 3-8.1c.2-.8.4-1.6.7-2.4.1-.6.3-1.1.4-1.7 1.3-5 2.3-10-.4-14.7-2.5-3.5-2.5-3.5-15.7-6.4-1.8-.4-3.7-.8-5.5-1.2-5.6-1.3-11.1-2.2-16.7-2.8-.7 0-1.5-.1-2.2-.2-5.7-.6-11.3-.9-17-.6-.5.1-1 .1-1.5.2-.6.1-1.1.1-1.6.2h-.6l.6-.3c.6-.2 1.3-.5 1.8-.7l-.1-.1 2.1-1.2.6-.3c.1 0 .1-.1.2-.1 4.5-2.2 9-4.6 12.7-8 1.8-1.6 3.8-2.9 5.8-4.1.7-.3 1.3-.7 1.8-1.1.8-.5 1.6-1 2.3-1.6h.6c.5-.5.6-.6.7-1.2.4-.4.9-.8 1.2-1.2 2.3-2.1 4-3.8 5-6.3 0 .2-.1.5-.1.7.8-.7 1.5-1.1 2.3-1.5h.3c1.5.3 1.5.3 3.1.6.6.1 1.1.2 1.7.3 1 .2 1 .2 1.9.3l3.9.6c.6.1 1.3.2 1.9.3 1.2.2 2.5.4 3.8.6.6.1 1.3.3 1.9.4s1.2.3 1.8.4c1.6.4 1.6.4 3.1.4l.2-.2h.7l.1-.1c.5-.1.9-.4 1.6-.9.8-1.2 1.3-2.3 1.7-3.5.7-1.5 1.2-3.2 1.5-4.8.3-.6.4-1.1.4-2.1.7-3.6 1.9-7.1 3.3-10.5.1-.5.3-.9.5-1.4.4-1 .7-1.9 1.1-2.9 1.5-3.7 2.2-6.5 1.9-10.5-.6-.6-.6-.6-2.1-.7-7-.3-13.6-1.6-20.4-3.2-.6-.2-1.3-.3-1.9-.5-1.2-.3-2.5-.6-3.8-.9-2.2-.6-6.9-2.2-9.9-1.7-.4 0-.7.1-1 .2-.1 0-.2 0-.3.1h-.8c-1.1.5-1.1.5-1.7 1.7-.5 1.6-1.1 3.1-1.7 4.6-1.3 2.7-2 5.2-2.6 8.1-.2 1.4-.5 2.7-.8 4-.7 2.1-1.1 3.5-1.2 5.7.1.8.1.9.1 1.5-.4 0-.6.1-1 .2-5 .8-10.6 3.7-14.9 6.7-.1.1-.2.1-.4.2-3.9 1.9-7.7 3.9-11.3 6.2-2.4 1.6-4.8 3.1-7.5 4.4v-.5c.4-1.1.7-2 .9-2.9 1.3-4.2 2.2-8.4 3.1-12.6.3-1.3.6-2.7.9-4.1 1.2-5.1 2.2-10.2 3-15.4.1-.7.2-1.3.3-2 1-6.4 2-12.1-1.3-18-2-2.3-2-2.3-8-3.9-3.2-.8-6.2-1.8-9.2-3-.7-.3-1.4-.5-2-.7-3.9-1.5-7.8-2.9-11.8-4.1-.5-.2-.9-.3-1.4-.4-3.1-.9-6.1-1.5-9.6-.8l-1.5.3c-.4.2-.9.4-1.4.6-1.5.5-1.5.5-2.7 1.3-4.2 9.2-4.2 9.2-7.8 39.9-.3 2.7-.6 5.4-1.1 8.1-.7 3-1.1 5.9-1.3 8.9-.4 6.5-1.3 12.9-2.4 19.4-1.5 8.7-2.4 17.4-3.3 26.2 0 .5-.1 1-.1 1.4-.4.1-.7.2-.9.2-.7.2-1.3.4-1.9.7-.6.2-1.3.7-3.2 2-1.4.9-2.7 1.7-4.1 2.5-1.3.7-2.6 1.4-4 2.1q-2.1 1.05-4.2 1.8V184c-.3-.1-.5-.2-.8-.3v-.2c-.2 0-.3.1-.5.1-.5-.1-.8 0-1.4.2-.7.1-1.4.3-2 .7-1.6.7-3.1 1.6-4.3 2.8-.5.5-1 1.1-1.4 1.8-.2.4-.2.5-.3.8h-.5c-.2.1-.3.2-.5.3s-.4.1-.5.2l-.6-.6c.1-.1.1-.2.2-.3.2-.2.4-.3.5-.5.2-.2.4-.5.6-.7l.3-.3c.8-.9 1.3-1.4 1.5-2 .1-.1.3-.1.4-.2v-2.3h-2c-5.1.2-13.6 3.3-18.1 6.9l-.1.1c-.3.3-.7.6-.9.8-.9.9-.9.9-1.8 1.6-.3.2-.6.5-.9.7s-.6.5-.9.7c-.1 0-.1.1-.2.1-.3.3-.7.5-1 .8-1.5 1.2-2.9 2.3-4.2 3.6l-.2.2c-1.4 1.3-2.6 2.8-3.6 4.6-.1.2-.1.3-.2.4h-.8s0 .1-.1.1c0 0 0 .1-.1.1v.1c0 .1-.1.1-.1.2h-.2c0 .2-.1.3-.1.5 0 .1-.1.1-.1.2v.3c-.1.3-.1.6-.2.9-.3.1-.6.3-1.2.7h-.3v.1h-.1v.3h-.3c-.2 1.8-.3 3.1-1.3 4.6-.7.8-.8 1-1.4 1.9-.1.1-.2.3-.3.4-.1.2-.3.4-.5.7-.2.4-.4.8-.7 1.1 0-.3.1-.6.1-.9.1-.2.1-.4.2-.7h.3v-1.9h.8c0-.1.1-.2.1-.3h.2v-.1h.1c.4-1.1.8-2.1 1.2-3.2.3-.8.3-.8.7-1.7.5-1.3 1-2.5 1.5-3.7v-.1c.2-.2.3-.5.6-.9l.6-1.4c.5-1.1.8-1.8.9-2.4q.75-1.95 1.2-4.2c.1-.5.2-1 .3-1.4q.6-3.3.9-6.6c.3-3.7.4-7.4.2-11.1 0-.8 0-1.5-.1-2.3h-.2c-.1-.1-.2-.2-.3-.2v-.3c-1.1-.1-2.2-.1-3.3-.2-.5-.1-1-.1-1.4-.1-1.2 0-2.5-.1-3.7-.2s-2.3-.4-3.5-.7c.7-.4 1.3-.7 1.7-1.2l.1-.1c1.2-1.1 1.8-2.9 3.8-8.6.1-.3.1-.6.2-.9.2-.5.3-1 .3-1.7.1-1 .1-2-.1-2.9v-.7h-.2c-.1-.4-.3-.7-.4-1.1-.1-.1-.2-.1-.3-.2-.7-.6-.9-.8-1.7-.8-.4-.2-.7-.2-1.6-.2-.8.1-.8.1-1.7.2-1 .1-2.1.2-3.1.3-.1.2-.2.3-.2.5h-.2c-1.4 2.6-2.3 5-3.1 7.6h-.1v.6c-.2.9-.4 1.7-.6 2.7-.3 1.8-.5 3.1-1.2 4.2-.2.2-.4.5-.7.8-.2-1.7-.4-3.5-.6-5.2h-.2v-.3c-.2-1.9-.4-3.7-.6-5.6h-.3c0-.6.1-1.2.1-1.7h.2c.1-.5.1-1 .2-1.4q.3-.9 1.2-1.8c1.3 1.3 1.3 1.3 4.6 1.7v-.3c.1 0 .2 0 .3.1-.2-1-.4-2-.6-2.9h-.6l-.2-.2c-.3-.3-.6-.6-1-.9.2-.3.3-.6.5-.9l-.1-.1c0-.1.1-.1.1-.2l-.9-.9.5-.5c2.3-2.9 4.8-5.4 7.6-7.8 1.2-1 1.2-1 2.2-2 .3-.8.7-1.5 1.1-2.3 2.3-.7 3.7-1.3 5.4-3.1.7-.7 1.3-1.4 2-2.1 1.9-1.2 3.3-2.1 4.7-3.9.9-1.1 1.7-1.9 2.9-2.8 1.6-1.1 3-2 4.3-3.2.1 0 .1-.1.2-.1.5-.4.9-.9 1.3-1.4 2.1-2.4 2.1-2.4 4.6-4.4 1.6-1.3 3.1-2.6 4.6-4l1.4-1.4 1.3-1.3 1.3-1.3 2.6-2.6c1.3-1.3 2.4-2.6 3.9-3.6 1.6-1.1 2.9-2 4.1-3.5 1.1-1.6 1.1-1.6 2.4-2.6 2-1.8 4.1-3.5 5.7-5.7 2.6-4.6 3-5.4-.7-19.1-.2-1.2-.5-2.5-1-3.6-.6-2-1.2-4.2-1.9-6.6-.3-.8-.5-1.6-.7-2.4-1.5-5.2-2.9-10.9-6.1-15.4-1.1-.6-2.2-1.2-3.4-1.6.1-.1.1-.2.2-.3-.4 0-.7-.1-1.1-.1-.5-.1-.9-.1-1.4-.2-.7-.1-1.2-.1-1.7-.1-4.3-.3-5.1.3-12.7 6.3l-4.2 3.3c-1.9 1.4-3.7 2.8-5.4 4.5-.6.7-.6.7-1.3 1.4-1.6 1.4-3.2 2.6-4.7 4.1l-.1.1c-.1-.1-.1-.2-.2-.3-.5.6-.5.6-1.4 1.5-.3.5-.6.9-.9 1.3l-.2.2-2.6 2.6c-.5.5-.9 1-1.4 1.4-2.5 2.5-5.1 5-7.4 7.7-1 1.2-2.1 2.4-3.2 3.6-.3.4-.7.7-1.1 1.1-.6.7-1.3 1.3-2 2V79h.1c.1-.3.1-.6.2-.9.7-3.4 1.4-7.3 1.3-11v-.4h.2v-5.4c.1-2.6.1-5.3.1-7.9.2-1.9.7-3.7 1.4-5.4h.4c1-2.8 2.3-5 4.2-7.4l.9-1.2c.9-1.1 1.8-2.3 2.7-3.4.3-.3.5-.7.8-1 1.6-2.1 3-4 3.8-6.5-1.9-2.3-3.8-4.5-6.1-6.4-1.1-1-2-1.8-3-3-1.1-1.5-1.1-1.5-2-2.5-1.5-1.6-2.9-3.2-4.1-5.1-2.1-3.4-4.5-8.1-8-10.3-.4-.3-.9-.6-1.6-.8h-.1c-1.8-.1-2.7.6-4.7 2.1-1 1.7-2 3.3-3.2 4.9-.6.8-1.3 1.7-1.9 2.5-3.5 4.8-7.1 9.2-11.2 13.5l-1.2 1.2c-.5.6-.5.6-1.1 1.2-1.1 1-1.8 1.8-2.3 3.2-.1 1-.1 1 .5 2 4.3 4.4 8.2 9.2 11.1 14.7.8 1.5.8 1.5 1.5 2.7.1 0 .2.1.3.1 1.3 2.8 1.3 5 1.1 8.3-.4 5.1-.7 9.9.4 14.9.8 3.1 1.1 6 .9 9.2-1.5-2-3.2-3.9-4.9-5.8-.3-.4-.7-.7-1-1.1-1.9-2-3.8-4-5.9-5.9.1 0 .1 0 .2-.1-1.1-.9-2.2-1.8-3.2-2.7-1.4-2.1-2.7-3.8-4.8-5.4-1.5-1.1-2.9-2.2-4.3-3.4-2.4-2.1-4.8-4.2-7.3-6.1l-1.2-.9c-1.1-.9-2.2-1.6-3.5-2.3-.3-.2-.7-.3-1-.5v-1.1c-1.3-1.1-2.6-2-4.1-2.8h.1c-.5-.3-1.1-.5-1.6-.8-1.1-.5-2.3-.9-3.4-1.2-.1 0-.2 0-.3-.1h-.1c-2.2-.5-4.4-.6-6.6 0-1.9 1.4-3.1 2.8-4 4.5-.3.5-.6 1-.8 1.5-.6 1.3-1.1 2.7-1.6 4.4l-.6 2-1.8 6c-.3 1-.6 2.1-.9 3.1-1 3.5-2 6.9-2.8 10.4-.2 1.3-.5 2.5-.8 3.8-.7 2.9-1.4 5.6-1.7 8.6.6 3.8 2.7 6.5 5.3 9.3l1 1c1.7 1.8 3.4 3.3 5.2 4.9 1.1.9 2.2 1.9 3.2 2.9.7.7 1.3 1.4 2 2h1.1v1.1c.5.5.5.5 1 .9 1.9 1.4 3.7 2.7 5.3 4.6 1.8 2.2 3.9 4.2 6.4 5.5.3.2.7.3 1 .5v1.1c.8.6 1.5 1.3 2.3 1.9 4.2 3.3 8.2 6.6 12.1 10.1 1.9 1.7 3.8 3.5 5.9 4.9 1.3.8 2.6 1.6 3.8 2.5 1.8 2.2 3.2 3.8 5.6 5.3 1.3.8 1.3.8 2.4 1.6.6 1.7.6 1.7 1.6 2.8l1.3 1.3c1.4 1.7 2.1 3.4 2.4 5.1V165c-.1 1.3-.1 2.6-.2 3.9-.4-.9-.9-1.8-1.3-2.7 0-.1-.1-.2-.1-.3h-1c0-.6 0-.8-.2-1.2-.1-.3-.2-.6-.5-1.2-.2-.3-.3-.6-.5-.9l-.1-.1s0-.1-.1-.1c-.1-.3-.3-.7-.6-1.5l-.6-.9h1.3v-.1h.2l-.6-5.7h-.1v-.3h-1.1v.1h-.2c-.2.5-.5.9-.8 1.3-.2.1-.4.1-.8.2-.1.1-.2.1-.3.1-.5 0-.8-.1-1.3-.3-.2-.1-.4-.2-.7-.4l-1-1.4c-.6-.6-.9-1-1.3-1.3v-.1h-.2c-.7-.4-1.6-.5-3.8-.6h-.1c0 .1-.1.1-.1.2-.1.2-.1.3-.2.5-.1 0-.1.1-.2.1v.9c0 .8.1 1.1.6 2.5 2.5 4.4 4 8.5 5.2 13.3v1.5c-1-.1-1.2-.2-2.4-.5-.2-.3-.4-.6-.6-1v-.1c-.2 0-.3 0-.4-.1-1.3-.3-1.5-.3-2.8-.5h-.3c0 .1 0 .1-.1.2-.5 1.6-1.1 3.2-1.6 4.8-.3.7-.5 1.3-.7 2-1.9 5.5-3.6 11.3-1.8 17.1.6 1.6 1.1 3.3 1.5 5l.6 2.4v.1c.3 1.3.7 2.7 1 4 .4 1.9.9 3.7 1.6 5.5v.2c.1.1.2.3.2.4.1.3.3.7.5 1 .2.4.2.6.5 1 .6 1.4 1.3 2.7 2.1 4.1 0 .1.1.2.1.3h-3.2c-.4-2.4-1-4.8-1.7-7.2l-.6-1.8v-.1c-.5-2-.7-2.7-2.4-4.6-2.3-3.7-5.6-6.8-9.3-9.2-.3-.3-.6-.5-.9-.7l-1.2-.9h-.3c-.2-.1-.5-.2-.8-.3v-.9c-.6-.2-1.1-.4-1.7-.6-1.1-.8-2.2-1.5-3.4-2.3-1.7-.7-3.5-1.2-4.9-2.4-1.2-1.1-2.3-1.7-3.5-2.1-1-.3-2-.4-3.4-.5-1.3 0-2.5 0-3.7-.1-1.6-.4-1.6-.4-2.9-.6h-.2l-1.6 1.4c-.5.5-.9 1-1.2 1.4q-1.65-.9-3.3-1.5c-1.1-.5-2.3-.9-3.5-1.3v.1c-.1 0-.1 0-.2-.1v1.1l.1.1v.1c1 .8 1 .8 2.3 1.7 1.2.4 1.2.4 2.3 1.1.7 1.6 1.2 3.2 1.6 4.9-.6.2-1 .3-1.4.5-.1 0-.1 0-.2.1-.2.1-.3.2-.5.3-.3.2-.6.4-1 .7 0 .1-.1.1-.1.2-.7.7-1 1.6-1.7 4.1-.1.4-.2.7-.3 1.1-.1 0-.2-.1-.3-.1-.3-.2-.6-.3-1.1-.6-1.6-.6-2.9-1.3-4.3-2.1-.4-.3-.8-.6-1.1-.8-.5-.3-.9-.6-1.4-.9-.3-.2-.5-.3-.8-.5-1.7-1.1-3.3-2.1-5.3-2.6-.6-.1-1.1-.3-1.7-.4-.3-3.1-.6-6.2-1.1-9.3-.3-2.1-.6-4.1-.8-6.2-.4-3.6-.9-7.3-1.5-10.9-1.3-8.2-2.5-16.4-3.5-24.6-.1-.5-.1-1-.2-1.5-.2-1.8-.4-3.7-.6-5.5 0-.3 0-.7-.1-1-.3-3.2-.7-6.3-1.1-9.5-.1-2.6-.4-5.2-.8-7.9l-.3-2.1-.3-2.1c-.2-1-.2-1-.3-2-.3-1.7-.5-2.6-1.1-3.8-.2-.9-.4-1.9-.6-2.8-.1-.5-.2-.9-.3-1.4l-.6-2.7-.4-2c0-.1 0-.2-.1-.3-.1-.5-.1-1-.2-1.5s-.2-1-.4-1.5c0-.2-.1-.4-.1-.6-.2-.6-.3-1.2-.4-1.8-.1-.3-.2-.5-.3-.8s-.1-.5-.2-.8h-.2l-.9-1.2c-.3-.4-.7-.7-1.2-1-.1 0-.1-.1-.2-.1-.3-.2-.7-.4-1-.6-.4-.1-.6-.2-.8-.3-1.3-.6-2.1-1-3.3-1-1.4-.1-3.1.3-7.2 1.4-.3 0-.6.1-.9.1-.5.2-1.1.3-1.6.5-.4.1-.8.2-1.2.4h-.2c-3.3 1-6.6 1.9-9.8 3.3-.8.3-1.5.6-2.2.8-.3 0-.7.1-1.2.2-.9.4-.9.4-1.7.7-.6.3-1.3.5-1.9.8-.9.3-2.1.6-3.7 1-.6.2-1.2.3-1.8.5-.9.3-.9.3-1.8.5-1.3.3-2.4.7-3.3 1.3h-.1c-1.2.7-2.2 1.7-3.3 3.2-3.7 7.9-3.7 7.9 7.2 53.7.1.5.2 1 .3 1.4-1.7-1.1-3.3-2.2-5-3.5-.4-.5-.9-.9-1.3-1.4h.1c-.3-.2-.4-.2-.5-.3-2.3-2-5.1-3.6-8-4.8l-.6-.3c-.2-.1-.3-.2-.6-.3-.6-.3-.6-.3-1.3-.6s-1.4-.6-2-.9c-.7-.3-1.3-.6-2-.9q-2.4-1.5-4.8-2.7c-1.8-1-3.7-1.6-5.8-1.8-.4-.1-.8-.2-1.2-.4-.8-1.3-1.4-2.4-2-3.3-.3-.7-.7-1.4-1.1-2.1-.2-.4-.4-.7-.5-1.1-.4-2.8-1-5.6-1.6-8.3 0-.2-.1-.3-.1-.5-.1-.4-.2-.8-.3-1.3 0-.1-.1-.3-.1-.4s-.1-.3-.1-.4c-.2-.8-.3-1.5-.5-2.3-.1-1-.4-2.4-1.1-5.2h-.2c-.1-.6-.3-1.1-.4-1.7-3.5-.1-6.7-.2-9.8.6-.7.2-1.4.4-2 .6-.2 0-.3.1-.5.1-1.3.3-2.4.6-3.5 1-6.6 1.8-13.5 3.1-20.3 3.6-1.8.2-3.3.3-5 .9v.1h-.2c0 .8-.1 1.6 0 2.3v2.6c.3.7.7 1.4 1 2.1.1.3.3.7.4 1 .1.2.2.5.3.7 1 2.3 1.9 4.6 2.6 6.9.3 1 .6 1.9.9 2.9 0 .7.1 1.1.2 2.2.2.7.3 1.3.5 1.9l.9 3.3h.1c.6 3.4 1.3 6.8 2.9 9.9.3.3.6.5.9.7 0 0 0 .1.1.1h.1c1 .7 1.9.9 3.5.9.7-.1 1.3-.2 1.9-.3.7-.2 1.4-.3 2.1-.4l3.6-.6c.9-.1 1.7-.3 2.6-.4.5-.1.9-.1 1.3-.2 1.5-.3 3.1-.6 4.6-.9 1.9-.6 3.4-1.2 5.4-1 .3.2.7.3 1.1.4.5.1.9.3 1.4.4l.6.9v.4c.9 1.4 1.6 2.2 3 3 .2.1.5.2.7.3v.6c.1.1.2.2.3.2v.4c.5.3.5.3.9.7.6.5.6.5 1.3.9.8.6 1.7 1.1 2.5 1.7.7.5 1.5 1 2.2 1.5 3.8 2.6 7.6 5.2 11.5 7.6.7.5 1.5.9 2.2 1.4 2.3 1.5 4.5 2.9 7 4.1l1.2.6c.1.1.2.1.3.2.1 0 .1.1.2.1h.1c.3.2.6.3 1 .5-3.7-1-5.6-.8-16.8.2-.4 0-.8.1-1.2.1-5.5.6-11.1 1.1-16.6 2.2-1.3.3-2.7.5-4.1.8-1.3.2-2.5.5-3.8.7-.6.2-1.3.3-1.9.4-4.1.8-8.1 1.8-12 3.2-2.6 1.2-3.5 3.2-4.6 5.7-2.7 6.8-2.7 6.8 4.8 25.2 1.7 4.2 3.4 8.4 4.8 12.7.2.6.4 1.1.6 1.7.4 1.1.7 2.3 1.1 3.4.6 2 1.3 3.7 2.1 5.3 1.2 2.6 2.8 4.8 5.3 6.9 3 1.1 6.1 1.2 9-.1 1.7-1.1 1.7-1.1 3.2-1.5 3.5-1 6.6-2.3 9.8-4.1 1.9-1 3.7-2.1 5.7-2.9 3-1.1 5.8-2.5 8.6-4.1 3.1-1.7 6.2-3.3 9.4-4.8 1.8-.7 3.5-1.5 5.1-2.5 2.6-1.6 5.1-2.9 7.9-4.1.6-.3 1.1-.5 1.7-.7 6.2-2.5 12.5-4.6 18.9-6.7.6-.2 1.1-.3 1.6-.5l4.5-1.5c.7-.3.7-.3 1.4-.5 2.6-.9 5.5-2.3 8.2-1.7 1 .5 1.9.9 2.9 1.4.8.3 1.7.7 2.5 1.1l.3.3h.2c.3.2.7.3 1 .5 2.3 1 4 2.1 5.4 3.9 0 .1 0 .2.1.3-2.1-1.3-3.6-2-6.3-2-.4 0-.8.1-1.2.1-.5 0-.9 0-1.4.1v.1h-.1c-.1.1-.2.3-.3.4h-.2c-.1.2-.3.5-.4.7-.9.9-1.5 2.3-2.3 4 .1 2.2.5 3.7 1.4 5.7.9 1.6.9 1.6 1.4 2.9.6 1.7 1.2 3.2 2 4.8 1.1 1 1.8 1.6 2.8 1.9.6.2 1.3.3 2.4.4.9.1 1.8.1 2.7.1.5-.1 1-.1 1.5-.1-.2.2-.4.4-.7.8-.1 1-.1 1.8 0 2.6 0 .3.1.7.1 1.1.5 1.3 1 2.2 1.7 3 .2.4.4.8.8 1.3.4.2.8.3 1 .4 1.1.8 2.4 1.4 4 2.2 2 .9 3 1.4 4.2 3-2.2-.1-4.3-.1-6.5 0-1.7.3-2.9.8-4 1.7-.2.1-.4.1-.6.2 0 .1-.1.2-.1.3l-.9.9c0-.1-.1-.1-.1-.2-.1.2-.2.4-.2.6-.1.2-.2.3-.4.5 0 .1 0 .2-.1.3-.1.4-.2.7-.3 1.1v.1c-.2.9-.3 1.7-.3 2.6 0 1.2.2 2.5.6 3.7.4.7.7 1.1.9 1.4.1.1.1.2.2.3s.3.1.4.2c.3.2.8.4 1.5.8 2.3.9 3.6 1.7 5.3 3.4.2.4.3.9.3 1.6 0 .4-.1.8-.1 1.2h-.9c-.1.2-.2.3-.2.5l-.3.6c0-.1-.1-.2-.1-.4-.1.4-.2.7-.3 1-.1.1-.1.2-.2.3q-.45.9-.9 1.5c-.4.5-.8.9-1.3 1.4-1.1.8-2 1.6-2.9 2.5-.6.4-1.1.7-1.6 1.1-.6.4-.6.4-1.1.8l-.1.1c-.1 0-.1-.1-.2-.1-.9.7-1.9 1.3-2.9 2.1-.4.3-.8.7-1.2 1-.7.6-1 .8-1.3 1.1s-.5.5-1 1.1v.8c-.1.2-.2.5-.3.7 0-.1-.1-.3-.1-.4-1.3 3.3-1.6 6.2-.7 9.6 0 .1.1.1.1.1v.1c1 1.8 2 2.9 3.5 3.7v.1c.1 0 .3.1.4.1.3.1.6.3 1 .4.8.2.8.2 1.5.4v.4s.1 0 .1.1c-.4.2-.7.3-1.1.4-.6.1-1 .2-1.8.5-.9.3-.9.3-1.7.7-.6.2-1.1.5-1.7.7-1.1.7-1.6 1.3-2 2.1-.1.1-.3.2-.4.2-.2-.1-.3-.2-.5-.3-.7.4-1.4.7-2.1 1-.8.1-1.4.1-2.5 0h-.2c-.2 0-.3 0-.5-.1l-.9-.3c-.4-.2-.7-.3-1.1-.4v-.3c-1.2-.5-1.2-.5-3.2-1.2-5.4-1.7-10.7-3.6-16-5.7-1.4-.5-2.8-1.1-4.2-1.6-4.5-1.8-9.1-3.3-13.2-5.9-1.3-.9-2.5-1.6-3.9-2.2-3.7-1.3-6.8-3-10.1-5.1-2.4-1.5-4.6-2.9-7.3-3.9-1.7-.7-3.2-1.4-4.8-2.2-3.1-1.7-6.2-3.3-9.6-4.6-1.6-.6-3.2-1.2-4.8-2-1-.5-2-1-3.1-1.4l-.2-.2q-1.65-.45-3.3-.6h-1.3c-1.1.1-2.2.3-3.3.7-.7.4-1.2.7-1.6 1h-.2c-.1.2-.2.4-.3.5-.2.2-.4.5-.5.8-.6.9-1 1.9-1.4 3.2-.4 1.2-.8 2.3-1.2 3.4-.2.4-.3.8-.5 1.2 0-.2-.1-.3-.1-.5-.7 1.6-1.2 3.2-1.5 4.9-.3.8-.6 1.5-.8 2.3-.3.9-.7 1.8-1 2.7 0-.1-.1-.1-.1-.2-.5 1-.8 2-.9 3.1-.6 1.7-1.3 3.4-2 5-.9 2.4-1.8 4.7-2.7 7.1-1.7 4.6-3.9 9.9-4.1 15.1-.1 2.3.3 4.6 1.3 6.8 1 1.5 2 2.6 3.2 3.5v.1h.2c1.6 1.2 3.5 2 5.8 2.6 2.7.5 5.5 1.1 8.2 1.7 14 3.1 28.8 6.4 43.2 4.4.3-.1.6-.1 1-.2-.9.4-1.7.9-2.6 1.3 0 0-.1 0-.1.1 0 0-.1 0-.1-.1-.2.1-.4.1-.6.2-1.6.2-3 .9-3.9 2.3-1.2.7-2.5 1.4-3.7 2.1-2.6.4-5.1 2.4-7.1 4.4-.7.5-1.5 1-2.2 1.5-.1 0-.1-.1-.2-.1v1c-.3 0-.5.1-.8.2-.5 0-.7.2-1.4.7-2 1.4-2.3 1.6-3.8 2.5-.1.1-.2.1-.4.2s-.3.2-.5.4c-.1.1-.2.1-.3.2s-.3.2-.4.2c-1.3.8-1.3.8-2.2 1.5v.9h-.4c0 .1-.1.1-.1.2h-.6c-.2.3-.4.7-.6 1.1-1 .7-2 1.5-2.9 2.3-.2.4-.4.9-.6 1.3-.2 0-.3 0-.5-.1-.2.6-.4 1-.5 1.5-1.9.1-3.7 0-5.5-.2l-2.1-.3c-1.2-.2-2.4-.3-3.6-.5-1.6-.2-3.3-.4-4.9-.6l-1.2-.2c-3.6-.4-7.2-.8-10.8-1.1 0 .1 0 .2-.1.4-.2 0-.4 0-.6-.1-1.7 9.9-4.6 19.2-8.2 28.6-.4 1.1-.8 2.2-1.1 3.2-.5 1.5-.9 3-1.1 4.6 0 0 .1 0 .1.1v.3c1.1.6 1.1.6 2.2.7.4 0 .9.1 1.3.1.5 0 1 .1 1.5.1 6.3.5 12.4 1.5 18.5 2.9.6.2 1.3.3 1.9.5 1.3.4 2.7.7 4 1 3.8.9 7.3 1.9 11.2 1.6 0-.1.1-.1.1-.2 0 0 0-.1.1-.1h.5c2.4-5.3 4.3-10.6 5.9-16.2.2-.6.3-1.1.5-1.7.9-2.9 1.6-5.8 2-8.8h1.1v.4c2.3 0 2.3 0 8.9-3.3.8-.5 1.6-.9 2.5-1.3.4-.1.9-.3 1.5-.7 4-1.9 7.8-3.8 11.3-6.6 2.7-2.1 5.4-3.9 8.4-5.4.1 1.1.1 1.5-.1 2.1-.1.2-.1.5-.2.9-.4 1.4-.7 2.8-1.1 4.1-1 3.8-1.9 7.6-2.6 11.6 0 .5-.1.9-.2 1.3-2 10-7 23.9-3.7 33.9 2.3 3.7 2.3 3.7 14.5 7.8 1.8.5 3.6 1.1 5.3 1.8 5.2 2 10.3 3.9 15.8 4.9l1.8.3c3.5.7 6.4 1 9.7-.8 2.2-1.6 3.1-2.4 4.1-6.6.8-3.2 1.7-8.5 3.2-18.2l.3-1.8q1.35-9.6 2.4-19.2c.1-1.2.3-2.3.4-3.5h.1v-1c1.1-9.7 2.3-19.3 3.9-28.8.5-2.9.9-5.9 1.3-8.9.1-.6.2-1.3.2-1.9h.2v-.1h.1v-.2h.2c.2-2.9.6-5.8 1.1-8.7.1-.3.1-.6.2-.9h.2c.1-1.4.1-2.6.5-3.6.1-.3.2-.5.3-.8q.3-.6.9-1.2c.4-.2.9-.5 1.3-.7 2.4-1.5 4.8-3.1 7.3-4.4 1.2-.6 1.2-.6 2.4-1 .5-.2.9-.3 1.4-.5s.9-.3 1.4-.5c.4-.1.6-.2.8-.3.1 0 .2-.1.4-.1-.1 0-.2-.1-.4-.1.3-.1.6-.2 1-.3 1.9-.5 3.7-1.1 5.4-1.9h.2c.2-.1.3-.2.5-.3s.4-.2.5-.3c.6-.5.8-.6 1.3-.9-.2.3-.3.6-.5.9-.3.4-.5.9-.7 1.4l-.9.9h-.2c-.5.5-.5.5-1.2 1.7-.1.1-.1.3-.2.4-.5.7-.9 1.4-1.2 2.2-.9 2-1.4 4.1-1.6 6.5v.2c0 .4.1.7.1 1v.1c.2 1.1.7 1.9 1.7 2.9 1.3.3 1.4.3 2.6.1.1 0 .3 0 .4-.1v-.1c1.2-.7 2.2-1.3 3-2.1.3-.2.5-.4.8-.6.7-.8.8-.9.9-1.8h2.7v1.5s0-.1.1-.1v.4-.1c.1.2.2.5.4.8v.2-.1s0 .1.1.1v.4c1 .9 1.6 1 2.9 1.1 1.7-.5 2.9-1 4-2v.1l.2-.2c.3-.3.7-.7 1-1.1 1-1.5 1-1.5 2.4-2 1.1-.4 2.1-.7 3.1-1.1l1.5-.6c1.5-.6 1.5-.6 2.7-1.2.2-.6.4-1.1.6-1.7h1.1c6.3-3.6 11.4-10.7 13.4-17.5.1-.5.3-1 .4-1.5.7-2 1.3-4 1.6-6 0-.1 0-.2.1-.2.3-1.9.4-3.5 0-5.1v-.2c-.2-.8-.5-1.6-1.1-2.5-.3-.4-.6-.9-1-1.3l.3-.6c.6-.6 1.3-1.2 1.9-1.9.2-.3.3-.5.5-.8l.5-.5c1-.9 1.7-1.6 2.2-2.4q1.05-.75 2.4-1.5c.4-.1.8-.2 1.9-.4 1.9-.9 3.4-1.7 5.5-1.8h1.5c.9.1 1.7.1 2.6.1.1 1.5.1 3 .1 4.5v1.9c.1 2.2.1 4.4-.1 6.5-.2 1.2-.5 2.3-1 3.5-4 .4-7.5 1-11.2 2.6-5.5 3.3-7.2 9.6-8.6 15.5-.1.5-.2.9-.3 1.4-.5 2-.9 3.9-1.2 5.8h-.2c-1.7 7.4-1.5 13.9.5 20.4.2.7.4 1.4.7 2.1.6 1.8 1.4 3.7 2.3 5.6h.3v.1h1.7c.3-.2.6-.4.8-.6.5-.2.8-.5 1.4-1.1.8-.8 1.6-1.6 2.3-2.4.5-.5.8-1 1.2-1.5-.3 2.5-.7 4.5-2.6 6.5-.5.5-1 .9-1.4 1.3v.6h-.1c-.1.6-.1 1.1-.2 1.6-.2.7-.2 1.4-.3 2.4-.2.5-.5 1.1-.7 1.7-1.4 2.4-1.1 4.2-.6 6.9h.4l.3.6h.1v.1c.2 0 .3-.1.4-.1 1.1.1 2.1 0 3.1-.2.5-.1.8-.1 1.7-.3l.3-.3c.2-.1.4-.2.7-.3.1-.3.3-.5.4-.7 2.2-2.5 3.4-5.9 4.1-9.1.6-2.9 1.5-5 3.1-7.4.3 1 .5 1.6.7 2.2v13.2c-.7 4-2.9 7.6-6 10.3-2.6 1.8-4.9 3.7-7.2 5.7-2.6 2.2-5.1 4.3-7.8 6.3-1.3 1-2 1.6-2.8 3-.4 1.1-.4 1.1-1.5 1.6-3.4 1.5-6.6 3.9-8.4 7.1l-.4 1c-1.3 0-1.3 0-3.4 1.7-1.2 1.2-2.4 2.4-3.7 3.6-1.5 1.3-2.9 2.7-4.4 4-.4.3-.7.7-1.1 1l-3.9 3.6c-.4.4-.9.8-1.3 1.2s-.9.8-1.3 1.2-.8.7-1.2 1.1c-1.1 1-1.1 1-2 2-.3.8-.7 1.5-1.1 2.3-3.7 1.4-5.8 3.5-7.9 6.8-1.8 3.3-2.5 6-2.4 8.9-.1 2.7.6 5.5 1.5 8.8l1.2 4.2c1.6 6 3.3 12 5.4 17.9.2.6.4 1.1.6 1.6.1.3.2.6.4 1 .1.5.2.9.4 1.6.2.5.4.9.6 1.4.3.8.7 1.6 1.1 2.4.1-.2.1-.4.2-.7.2.3.5.6.7 1 2.3 1.8 3.9 2.5 6.8 2.7 6.6-1 13.7-6.9 18.2-11.4 1.3-1.4 1.3-1.4 3.1-2.5.6-.4 1.1-.7 1.7-1.1 1.8-1.8 3.8-3.5 5.8-5.1 1.8-1.3 3.2-2.5 4.2-4.5.2-.5.3-.9.4-1.3h1.1c1.7-1.3 3.1-2.3 4.2-4.2l.4-1h1.1c.2-.3.3-.5.4-.7.3-.2.5-.4 1-.8.5-.6.5-.6.9-1.1.3-.4.6-.7.8-1.1.2-.2.4-.4.7-.5.5-.5 1-.9 1.5-1.4s1-1 1.5-1.4l.1-.1c.2-.2.5-.4.9-.7.4-.4.8-.7 1.2-1.1.4-.3.7-.6 1-.9-.1.5-.2 1.1-.3 1.7-.1.5-.2 1-.3 1.6-.8 2.7-1.2 5.5-1.4 8.3h-.3v14.9h.4c.2.9.5 1.9.9 2.8-.1.9-.4 1.5-1.3 2.6-1 1.2-2 2.4-2.9 3.7-2.1 3.1-4.5 5.9-7.1 8.6-1.7 1.7-3.3 3.3-4.5 5.4 0 .2-.1.4-.1.6l-.1.1c0 .1.1.1.1.2v.4c-.1.7 0 .9.5 1.8l1.1 1.1c.4.4.7.9 1.1 1.3s.8.9 1.2 1.3c1.1 1.3 1.1 1.3 2.3 2.5 1.6.8 2.2.9 2.9 2.5.4 1 .5 1.4.9 1.9.2.3.3.5.6.8.1.1.1.2.2.3 1.8 2.1 3.6 4.3 5.3 6.5.3.5.7 1.1 1.1 1.6.7 1 1.5 2.1 2.2 3.1.5 1.1.7 1.4 1.7 2.2.2.2.4.4.5.7 1 1.3 1 1.3 1.9 2.2 1.6 0 2.1 0 2.7-.4l.1-.1c.3-.2.6-.5 1.1-1 .6-.9.6-.9 1.3-1.7.5-.6.9-1.2 1.3-1.8.5-.6.9-1.1 1.4-1.7-.1 0-.1-.1-.2-.1.2-.4.5-.9.7-1.4.1-.3.2-.7.3-1h.9l.2-.2h.1c.3-.3.5-.6.8-.9.9-1.3 1.9-2.5 2.8-3.8h.1c.2-.3.5-.7.7-1 0-.1.1-.1.1-.2 1.7-2.2 3.5-4.4 5.3-6.4 1-1 1.7-1.9 2.4-3.2.2-.4.3-.5.4-.8h.2v.1l.1-.1h.6c.1-.1.2-.1.3-.2 1.2-.9 1.7-1.6 2.3-3 0-1.3 0-1.7-.7-2.6-.3-.4-.7-.9-1.5-1.7-1.6-1.8-3.1-3.6-4.5-5.5-1.5-2-2.8-4.1-4.1-6.4l-2.4-4.2h-.1c-.1-.1-.1-.2-.2-.4-.5-.2-.9-.3-1.4-.5v-5.4c1.1-2.2 1.1-2.2 0-13.4-.5-4.3-.8-8.5-.6-12.9l1.8 2.4c.8 1 1.6 2 2.5 3 .8.8 1.6 1.6 2.3 2.4 1.8 2.2 3.7 4.2 5.7 6.2l.9.9c1.4 1.5 2.8 2.9 4.4 4.2 1.1.9 2.1 1.8 3.1 2.8 1.8 1.9 3.5 3.6 5.7 5.1 1.6.9 1.6.9 2.5 2 1.4 1.7 2.5 3 4.3 4.3.6.4 1.1.7 1.7 1.1 1.5 1.4 3 2.7 4.8 3.8.4.3.9.5 1.3.7v.1c.9.5 1.7.9 2.6 1.2 3 1.3 6.1 1.9 9.5 1.1 3.7-2.5 5.1-6 6.5-10.1.2-.6.4-1.3.6-1.9 1.9-5.7 3.5-11.5 5-17.3l.3-1.2c1.2-4.6 2.3-8.9 2-13.7-.3-2.2-.9-4-2.1-5.5-.4-.6-.9-1.2-1.6-1.7-1.7-1.4-3.3-2.8-4.8-4.3-3.5-3.6-7.1-7.9-11.5-10.3-.2-.1-.5-.2-.7-.3v-.8l-.3-.3v-.1c-.8-.8-1.6-1.5-2.4-2.3-.3-.3-.7-.6-1-.9-2.2-2-4.4-4-6.6-5.9-.7-.6-1.3-1.2-2-1.8q-3-3-6.3-5.7c-1-.8-1.9-1.5-2.9-2.3-.4-.3-.7-.7-1.1-1-.4-.4-.8-.7-1.2-1.1-1.1-1.1-1.9-1.8-3.5-2.3-.4-.1-.5-.1-.7-.1v-.8h-.3v-.4h-.9c-.3-.8-.4-1.2-.8-1.6-.2-.4-.5-.6-1.1-1.2l-1.5-1.2c-1.2-1-2.4-2-3.6-2.9-1.1-.8-2.1-1.6-3.1-2.4-.3-.3-.7-.5-1-.8-.2-.2-.4-.3-.6-.5l-.8-.8c-.3-.3-.6-.5-.9-.8-.1-.1-.1-.2-.2-.2-.6-.8-1-1.7-1.2-2.8-.1-.7-.3-1.5-.4-2.2-2.9-6-2.9-6-2.9-12.9v-6.2l.2.2c.2.2.3.4.6.7l.3.3c.3.3.4.6.6.8.1.1.1.2.2.3.2.4.3.9.4 1.6.1.6.2 1.1.3 1.7 1 4.4 3.3 7.8 7 10.4.1.1.2.1.3.1 0 0 .1 0 .1.1 2 1 3.3.6 5.4.1.9-1.7.8-2.8.6-4.6l-.3-.3v-.1c-1.1-1.1-2-2.1-2.9-3.3-.3-.4-.5-.7-.8-1.1-.3-.7-.7-1.3-1-2-.6-1-.6-1-1.1-2-.3-.5-.5-1-.8-1.5h-.1c-.1-.1-.1-.3-.2-.4h-.8c0-1.4 0-1.5-.6-2.9-.3-.6-.3-.6-.6-1.3h1.9c.1 1.4.2 2.6.7 3.7v.2h.1c.1.3.3.7.5 1 .3.2.6.3.9.5l.6.3c.2.1.5.3 1 .4h.4c.4.1.9.1 1.4.2 2.7-.9 3.7-2.9 5-5.4.2-.5.5-1 .7-1.5s.5-1.1.7-1.6c.9-1.5 1.3-2.8 1.5-4.9 1.2-6.8 0-14.3-2.2-21.1-.2-1.4-.8-2.8-2.3-6.1-.5-1.2-1-2.4-1.7-3.6-.4-.8-.8-1.7-1.2-2.4 0-.1-.1-.2-.1-.2-.1-.1-.1-.2-.2-.3-.3-.4-.5-.8-.8-1.2-.8-1.1-1.8-2.1-3.2-2.6-.6-.1-1.3-.3-1.9-.4-2.6-.5-5.2-1-7.9-1.3.1.1.1.2.2.3h-.1c.6 1.2.8 1.4 1.2 2.1.1.1.1.2.2.3.3 1.1.4 2.2.4 3.7v1.4c-.1 7.3-.1 14.6-1.3 21.8-.4-1.1-.8-2.1-.9-3.4v-5c0-1.9-.1-3.8-.1-5.7s-.1-3.9-.1-5.9c-.1-1.3-.1-2.5-.1-3.8v-3.5c0-1.6-.1-2.9-.4-4.4-1.1-8.1-1.1-8.1-.9-16.3h.6c3.5.3 5.5.5 7.3.9h-.1c1.8.9 3.5 1.8 5.4 2.2.3.1.6.3.9.4 0 .1 0 .2-.1.3.5.2.9.5 1.4.7.7.3 1.3.6 1.9.9.4.2.9.4 1.3.6 1.1.6 2.2 1.2 3.3 1.9-.4 0-.6 0-1.3-.1-.6-.1-1.2-.1-1.8-.2s-1.2-.1-1.8-.2c-.5 0-1-.1-1.4-.1-.9 1.7-.9 1.7-1.4 2.8-.4 1.6-.4 3.2-.2 4.8v.3c.1.8.3 1.5.5 2.2v.1c.4 1.4.9 2.3 1.6 3.3.1.2.2.5.3.7.4 1.2 1 2.4 1.5 3.6 1.2 3.1 2.8 6.6 4.8 9.6 1.8 2.8 4 5.4 6.4 7 .6.3 1.2.7 1.8 1.1 1.7 1.6 3.2 2.7 5.3 3.7-.1.1-.3.2-.4.3 1 .3 1.9.7 2.9 1.1 1.1.6 2 1.1 3.1 1.5.1 0 .2.1.3.1 0 .1 0 .1.1.2.2 0 .4.1.5.1.4.2.9.5 1.4.7l3 1.5c.8.5 1.6.9 2.4 1.4 2 1.1 3.4 1.1 5.6.4.1-.3.2-.5.3-.7 0 0 .1 0 .1-.1v-.2c.1-.5.2-.9.2-1.9l-.1-.1v-.1c-.2-.2-.3-.4-.5-.6 0-.1-.1-.2-.2-.3v-.1c-.1 0-.1 0-.2-.1-1.5-2-2.3-2.5-9.8-6.8-.9-.5-1.9-1.1-2.8-1.6-1.7-1.1-3.2-2.2-5.1-3-.3-.1-.5-.2-.8-.3v-.6s-.1 0-.1-.1v-.1s-.1 0-.1-.1c-.1 0-.1-.1-.2-.1v-.1c.3.2.7.3 1 .5.1.1.2.1.4.2v.2c1.1.5 2.1 1.1 3.2 1.6 1.1.9 2.1 1.5 3.5 2 2.5.8 5 1.5 7.3 2.7 0 .4.1.6.2.9v.3c.1 0 .2.1.2.1.1.1.2.3.3.4.2.3.5.6.9 1.1.1.2.2.4.2.6h.9v.5c.1 0 .1.1.2.1v.5c.6.3.6.3 1.2.7 1.4.9 2.5 1.7 3.7 2.8.4.4.7.7 1.1.9.2.2.4.4.9.7v-.1c.6.3 1.3.5 2.3.7h.1c.2-.6.3-1.2.4-1.7.5-2.3.3-3.4-1.2-10.2-.1-.5-.2-.9-.3-1.3-.3-1.5-.7-2.9-1.2-4.3-.1 0-.1 0-.2-.1 0-.1-.1-.2-.1-.3-.5-.2-.9-.3-1.4-.5v-.5c.7.5 1.2.8 1.5 1.1l.2.2c.8 1 1.7 2 2.6 2.9 1.8 1.2 3.7 1.7 5.7 1.8.5.2 1 .3 1.5.5h.1c.6.2 1.2.5 1.8.8.8.5 1.6 1 2.5 1.4 2.6.9 5.1 1.9 7.3 3.6.5 1.2.8 2.1 1.1 2.9 0 .2 0 .4.1.8 0 .5.1 1 .1 1.5s.1 1.1.1 1.6c.1.8.1 1.6.2 2.4q0 3 .6 6c.6 3.1 1 6.2 1.5 9.3.1.7.2 1.3.3 2 .7 4.5 1.2 9.1 1.7 13.6.5 5 1.1 10 1.7 15 .1.5.1.9.2 1.4l2.1 15.3c1 7.1 1.3 24.5 6.4 31.1.5.8 1.1 1.4 1.8 1.9.2.1.4.2.5.3s.3.1.6.3c.5.3.5.3 1.1.6 5.3 1.6 5.3 1.6 20.5-3.7.1.1.3.1.4.2 1.2-.5 2.3-1 3.4-1.5.5-.2 1-.4 1.5-.5l4.5-1.5c.8-.3 1.5-.5 2.3-.8.7-.2 1.5-.5 2.2-.7s1.4-.5 2.1-.7c2.5-.9 4.3-1.9 5.9-3.4.1-.1.1-.2.2-.2.2-.2.4-.3.6-.5.8-.9 1.1-1.3 1.3-1.8.2-.2.3-.5.5-.8 4.2-9 4.2-9-8.8-52.1-.1-.3-.2-.6-.3-.8v-.1c.2 0 .3.1.5.1.7.2 1.4.5 2.1.7.8.4 1.4.8 2.8 2 2.4 1.8 4.7 3.6 7.3 5 .9.4 1.8.9 2.7 1.4 2.5 1.6 5.1 2.9 7.7 4.1 1 .6 1.2.6 2.2 1.1.1 0 .1-.1.2-.1.3.1.6.2.8.3v.1h.1c0 .1-.1.2-.1.3.9.2 1.5.3 2 .4 1.3.5 2.5.9 3.8 1.3 1 .3 2.1.6 3.1.9.3.2.6.3 1.1.4h.1c.5.2.9.4 1.4.6v.3c-.1 0-.1.1-.2.1 1.3.5 2.6 1 3.9 1.6.4.2.8.4 1.1.6v.7c-1.8-.3-3.5-.7-5.2-1.1-.1 2.3.1 4.4.7 6.6.1.5.1.5.3 1.1.4 1.3.7 2.5 1 3.7.1.6.1.6.3 1.2.9 3.5 1.3 7.7 4 10.3.1 0 .1.1.2.1l.2.2c2.2.9 2.2.9 6.3-.3 8.6-2.5 17.5-4.9 26.5-5.3 2.5 0 4.5-.3 6.8-1.1-.5-.4-.3-.5-.1-.5m-180.2 18.8c.3.4.5.9.7 1.3h-.1c.1.3.1.5.2.7.1.5.1 1.1.2 1.6 0 1.4-.4 2.8-.9 4.4 0 .1-.1.1-.1.2h-1c.3.2.5.4.6.5l-.3.3c-.3-.1-.5-.1-.8-.2-.5.4-.9.8-1.4 1.4-.5.5-.8.9-1.1 1.2-.8.5-1.7 1-2.7 1.3-1.6.2-2.8.2-4-.1-1.5-.5-2.8-1.2-4.4-2.1l-.9-.6c-.2-.2-.4-.3-.6-.4-.8-1.5-1.3-2.9-1.5-4.4.1-1.1.3-2.1.5-3.2 3-4.8 3-4.8 8.2-7.7l1.5-.9c-.1 0-.3-.1-.4-.1.1 0 .2 0 .3-.1 3.6 1.3 5.8 3.9 8 6.9m-80.7-18.2c1.5-1.4 3-2.9 4.6-4.4v.4c1.3-.6 1.3-.6 4-3.4h-.7c1.7-1.4 3.5-2.7 5.4-3.6 1-.5 1-.5 1.6-1.5 1-2.2 2.1-3.9 3.8-5.7 1.1-1.3 1.1-1.3 1.9-1.1.1 1.1.1 2.3.1 3.4 0 .6 0 1.2-.1 1.8-.2-.1-.3-.2-.5-.3-.5 4.2-1 8.5-1.8 12.7-.1.6-.1.6-.2 1.1-.8 4.2-2.1 7.1-5.3 10-.3.3-.7.6-1 .9-1.7 1.6-3.3 3.1-5.3 4.3-1.7.9-3.3 2-4.8 3.2l-.1.1c-1 .9-1.9 1.9-2.6 3.1 0 .1-.1.2-.1.3h-.1c-.1.4-.2.6-.3.9-.3.8-.5 1.1-1.1 2.1-.1.2-.2.4-.4.6-.2.3-.3.4-.6 1-.3.5-.5.8-.7 1.1-.5.6-1 1.2-1.6 1.6-2.6 1-4.9 1.2-7.7 1.2-1.6-.1-3.1-.1-4.6-.1-.5-1.3-.9-2.6-1-4.1-.1-5.2.6-8.3 3.9-12.1.5-.4.9-.9 1.4-1.4-.2 0-.3-.1-.5-.1.2-.1.3-.2.6-.5 2.2-2 4.4-3.9 6.7-5.7 2.5-1.8 4.8-3.8 7.1-5.8m14.5-269.7-1.4-1c-.5-.6-1.1-1.1-1.6-1.6v-.6c-1-.8-1.9-1.6-2.9-2.3v.6c-2-1.2-3.5-2.4-5-4.2-1-1.2-1.6-1.8-2.6-2.5.2-.1.4-.1.7-.2-1.6-.9-3.1-1.8-4.6-2.6l-.1-.1c-1.1-1.4-1.1-1.4-2.4-2.5-.2-.1-.3-.2-.4-.3.2-.1.4-.1.6-.2-2.6-1.8-5-3.7-7.3-5.7-.3-.4-.3-.4-.7-.7 0 .2.1.4.1.6-.8-.6-1.4-1.1-2.1-1.7h.2c-.7-.9-1.3-1.8-2-2.7-.4-.4-.6-.6-1.1-.7 0-.1-.1-.1-.1-.2 0-2 0-2-.5-3.4-1.1-2.7-1.9-5-1.9-7.9 0-.8.1-1.4.1-2.1 0 0 0-.1.1-.1h.5c.6-.3 1.1-.7 1.7-1.1.6.2 1.1.3 1.7.5 1.3.6 2.5 1.1 4 1.3 1.6-1.3 1.6-1.3 3.4-1.1 3.9 2.2 3.9 2.2 6.4 6.1.9 1.5 1.4 2.3 2.9 3.2.3.1.6.3.9.4l.1.1v1c1.7 3.1 3.7 5.1 6.9 6.5.4.1.7.3 1.1.4.1 0 .2.1.3.1.2.1.6.3 1.1.5.2.1.3.1.5.2l.9.3v1.1c.8.7 1.7 1.5 2.5 2.3.6.8 1.2 1.7 1.7 2.6s.9 2 1.3 3.1c.3.9.6 1.9.8 2.8.3 1.5.6 3.1.9 4.7 0 .2.1.4.1.7s.1.5.1.8c.5 4.4.6 8.7.6 12.2l-.1.1c-.6-.3-.8-.5-1.3-1.4-1.2-2-2.3-3.7-4.1-5.3m36 90c0 .1-.1.1-.1.2h.2v.1h.5c.5.1 1.1.3 1.6.4v6h1.2c.1.2.3.3.5.5-.1 1.4.1 2.4.7 3.9.3.7.3.7.6 1.2v.2l-1.6 1.6c-.4.2-.8.3-1.1.5s-.6.5-.9.7c-.1 0-.1-.1-.2-.1h-.2c-.9 1-1.7 1.7-3 2.4l-1.2.6-1.2.6c-.4.2-.4.2-.9.4l.3.3c-.8.4-1.5.7-2.4.8h-.5l-1.2-.4c-1.3-.2-2.5-.4-3.7-.6-.1 0-.2-.1-.3-.1v-17.7h1.7c-.3-.1-.5-.1-.8-.2h.8c0-.1 0-.1.1-.2h4.5c.8 0 1.1 0 1.4-.1h.3l.6-.6c1.4.1 1.6.1 2.9 0 .1 0 .3 0 .4.1l.1-.1c.3-.3.5-.5.7-.8-.1.1 0 .3.2.4m152.8 5c-1.8-1-3.6-2-5.5-3-2-.9-3.8-1.7-5.6-2.8.2 0 .3-.1.5-.1-1.8-1-3.5-2-5.2-2.9v.3c-1.3-.7-2.7-1.3-4-1.9v-.1h-.2c-4.2-1.7-8.7-2.8-13.6-3.3-.6 0-1.1-.1-1.7-.1v-.6c3.3-.4 6.6-.7 10-.8 4.2-.1 8.4-.2 12.6-.8 4-.6 7.8-.8 11.9-.7h3.9c1.6 0 4-.5 5.2.7-.1 9.2-.1 9.2-2.3 18.3-2.3-.3-4-1.1-6-2.2M152 339.5c0 .4 0 .7-.1 1-.3 1.8-.5 3.7-.8 5.5 0-.1 0-.2-.1-.3h-.6c-.2 2.7-.4 5.4-.5 8.1h.2c-.3 2.4-.5 4.7-.7 7.1-.3 3.1-.5 6.2-1.1 9.2-.3 1.3-.5 2.5-.7 3.8v-.7h-.6c-.2 1.1-.4 2.3-.8 3.3-.1.5-.1.9-.2 1.4-.3 2.6-.7 4.6-2 6.8-.3.3-.4.5-.6.7-.3.3-.8.5-1.3.6h-2c-.5 0-1 .1-1.5.2h-.2c-.6.1-.6.1-1.2.1v.3c-.4.1-.7.3-1.1.4 0 0-.1 0-.1.1-1.9.9-3.6 2.4-5.3 3.9v1.1l-.6.3c-.1-.1-.2-.1-.3-.2l-1.2.9c-1.8.9-3.6 1.9-5.2 3.3-.4.4-.8.7-1.1 1-.2.1-.4.3-.8.6-.4.4-.7.6-1 .9-.9.7-1.8 1.3-2.7 2l-.2.2c-1.1.7-1.4.9-1.9 1.3-1.2.8-2.4 1.5-3.6 2.2 0-1.7.2-3.4.4-5 .1-.5.1-.9.2-1.4 1.1-9.6 2.2-19.3 4-28.8l.9-4.8c.2-1.2.5-2.5.7-3.8.1-.7.2-1.3.3-1.9l.3-1.8c.2-1.1.4-2 .7-2.9.3-.5.6-1 1-1.5.5-.3.5-.3 1.1-.6.3-.8.3-1 .4-1.4.1-.1.2-.2.4-.3l1-.6c.7-.4 1.3-.8 1.9-1.2 1.2.2 1.5 0 3.7-1.6-.1-.2-.1-.3-.2-.5.3-.2.7-.4 1-.6.5-.3.9-.5 1.4-.8 1.4-.9 2.9-1.9 4.4-2.8 2.4-1.5 4.7-3 7.3-4.2h.1c.7.1.9 0 2.1-.5.5-.3.9-.6 1.4-.9.2-.1.4-.3.6-.4.1-.1.2-.1.3-.2.2-.1.4-.3.6-.4.5-.3.9-.6 1.4-.9 1.1-.7 2.2-1.3 3.3-2.2h.2c-.1 1.3-.3 2.7-.5 4-.2.9-.4 1.9-.5 2.9m120.9-235c0 .1-.1.3-.1.4-.1.1-.1.2-.2.2v-.8c.1.1.2.1.3.2m-2 1c.4.1.8.2 1.1.3-.1.1-.1.2-.2.3-.6.9-.6.9-1.1 1.6l-.3-.3c.2-.6.4-1.3.5-1.9m93.2 38.6c.2-.9.4-1.6.4-2.9.2-1.3.3-2.7.5-4 .1-.9.2-1.9.3-2.9.2-1.5.3-3 .5-4.5.1-.5.1-.9.2-1.4 0-.2 0-.5.1-.7v.1h.6v-3.4c.1-.2.2-.4.4-.7.7 0 .9-.1 2.1-.9.6-.4 1.1-.7 1.6-1.1.9-.7 1.9-1.3 2.8-2-.1-.1-.2-.1-.3-.1 1.7-1.3 3.3-2.7 5.3-3.7 1.8-.9 1.8-.9 2.8-1.5 2.4-1.5 4.7-2.8 7-3.9.8-.1 1.4-.3 2.8-1.2 2.9-1.2 5.9-2.1 9.3-2.8 0 .1.1.1.1.2-1.2 12.8-2.2 25.8-5.2 38.3v.2c-.2.7-.3 1.4-.5 2.1h-.6c-.6 2.4-.6 2.6-1 7-.1.3-.1.6-.2.9v.1h-.5c-.5 2.1-.6 3.6-2.3 4.8-.4.1-.7.2-1.1.3.2.1.5.2.7.3-.3.1-.5.3-.9.5-.7.4-1.4.9-2.1 1.3l-.6-.3c-1.7 1.4-3.4 2.9-5.2 4.3-3.6 2.7-7.4 5.2-11.3 7.3-.1 0-.2-.1-.2-.1-4 1.5-7 4.2-10.2 7.3-.1-.2-.1-.4-.2-.5.1-.1.1-.3.2-.5.1-.7.3-1.4.4-2.1.4-2.2.7-4.2.8-6.4-.1-.6-.1-.9-.2-1.3.8-4.2 1.6-8.4 2-12.6.2-2.1.4-4.1.7-6.2.3-2.4.6-4.9 1-7.3m52.1 153.2c2-1.1 4.1-2.2 6.1-3.3 4.3-2.4 8.4-4.5 13.1-6v.9c.1-.2.2-.4.2-.7l.6 2.1c.1.7.3 1.5.3 2.2.2.9.2.9.3 1.9.1 1.1.1 1.1.3 2.1.1 1.1.1 1.1.3 2.2.3 2.1.6 4 .9 6v1.4c-.6.1-1.1.2-1.6.2-4.9.1-9.8 0-14.7-.4-4.9-.5-9.7-.8-14.6-.9h-1.9c-4.1 0-7.8.3-11.8 1.3v.3c-.4.1-.7.2-1.1.3h-4c1.8-.3 3.5-.7 5.2-1.1v-.3c6.8-1 13.5-3 19.3-6.5 1.1-.6 2.1-1.1 3.1-1.7M276 158.2c.2-.6.4-1.1.6-1.7h1.7v2.3c-.8-.2-1.5-.4-2.3-.6m22 148.4c-.5-.5-.9-1.1-1.2-1.9-.1-.2-.1-.3-.1-.4s-.1-.3-.1-.4c-.1-.2-.1-.4-.2-.6 0-.1-.1-.2-.1-.3s-.1-.2-.1-.3l-.3-.6c-.3-.6-.6-1.2-1-1.8-1.1-1.5-1.6-2.5-2.2-4.4-.1-.2-.1-.3-.1-.5-.1-.2-.1-.4-.2-.7-.1-.7-.2-1.5-.2-2.4 0 0 .1 0 .1.1l1.2.6c.6.3 1.1.5 1.6.8 1.5.8 1.5.8 2.9 1.4.1 0 .1 0 .1-.1 1.7.9 3.3 1.8 4.9 2.8 1.2 1 2.1 1.9 2.7 2.9.5.9.8 1.8 1 3.1v.2c.3 2.4 1 4.3 2.1 6.6 0 0 0 .1.1.1l.2-.2c.1.4.2.9.3 1.3.1.1.1.2.2.4h-.1c-.4-.1-.8-.1-1.1-.2-.1-.1-.1-.2-.2-.3-.5-.2-1-.4-1.6-.6-.6-.3-1.1-.5-1.7-.7-.1-.1-.2-.1-.3-.2-.8-.5-.8-.5-1.6-.9-.5-.3-1.1-.6-1.6-.9-.5-.2-1-.5-1.5-.8q-.9-.45-1.5-.9c-.2 0-.3-.1-.4-.2M266.9 215h-1.1v-.2c-.1-2.5-.1-5.1.1-7.6.4-4 .5-4.7.4-11 .1-.8.1-1.6.2-2.4h.3c.2-1 .4-2 .6-2.9.2-.1.3-.1.5-.2 0 .1.1.1.1.2 1.5 4.2 1.7 8.7 1.2 13.2v-.6h-.6c-.4 3.9-1 7.7-1.7 11.5m24.1 76.3-.9.3c-1.2-.3-1.5-.3-3.1-.4l-.6.6c-1.1-1.7-1.2-1.8-2.2-2.8 0 0 0-.1-.1-.1-.2-.5-.3-1-.5-1.4 1.5.9 2.9 1.8 4.5 2.5.9.4.9.4 1.7.8.5.1.8.3 1.2.5m21-16.2c-2.2-1.2-3.9-2.2-6.5-2.3h-.3c-1.2-.6-2.5-1.3-3.7-1.9l-1.8-.9c.1-.3.3-.7.5-1 .2-.2.3-.3.5-.4 1.3-.5 2.6-.9 3.9-1.5-.2-.1-.3-.2-.5-.3l.9-.3c.9-.1 1.9-.3 2.8-.4v-.3c2-.5 3.8-.7 5.7-.8.4.1.8.1 1.2.2.6.1 1.1.1 1.7.2.3 0 .5.1.7.1v.1c.2 0 .4.1.6.1-.1.1-.3.1-.4.2.1 0 .2 0 .3.1h-.1c1 .2 1.9.4 2.9.6l-.1.1c.3.1.6.1.8.2.3.1.5.2.8.2.5.2 1.1.4 1.6.6.4.2.8.3 1.3.5 2.1.9 4 2.1 5.9 3.6 1.1.9 2.3 1.9 3.5 2.7l-.1.1c.4.3.7.5 1.1.8.3.2.6.5 1 .7.5.3.5.3 1 .7.6.4 1.2.9 1.8 1.3.2.2.5.4.7.6-3.7.4-7.2.6-10.8.4-.6 0-1.1-.1-1.7-.1-5.8-.2-10.2-1.2-15.2-3.9m-21.8-63.3c-.1.6-.2 1.1-.2 1.7l-.3.3c-.1 1-.1 1.8 0 2.6.1 1.6.6 2.7 1.7 4 .2-.3.3-.6.5-.9l.2.2.1.1v.4h-.1c0 .2 0 .4.1.5l-.2.2c-.4.2-.7.3-1 .5-1.3-.3-2.5-.7-3.7-1 .2-1.3.5-2.5.8-3.8.1-.7.1-.7.3-1.4.1-.6.2-1.1.4-1.6.3-.8.8-1.3 1.4-1.8m2.3-1.9.2.3c-.1-.1-.1-.2-.2-.3m-6.1 12.6c.2.2.4.5.7.7.8.5.8.5 1.5 1h-1.1c.1.1.2.1.4.2-.5.1-1 .3-1.5.4zm27.5-15.5c0-.7.1-.9.4-1.8.2-.4.3-.8.5-1.2.1-.3.3-.7.4-1.1v.2l-.4 1.6c-.3 1.3-.4 1.6-.7 2.3zm-5.5-7c-.3.6-.6 1.1-.9 1.7-.5 1.1-.6 1.4-.5 2.1l-.3.9h-.3c-.6 1.7-.6 1.7-.6 3.1v4.4c-1 .5-1.2.6-2.4 2.1-.1.1-.3.1-.4.2-1 .5-2.1 1-3.1 1.6-.1 0-.3.1-.4.1-1.3.8-1.6 1-1.9 1.8-.2.1-.3.2-.5.3h-3.4c-.4-.1-.8-.2-1.1-.3-.1-.2-.1-.3-.1-.4l-.3-1.5v-.8c.3-1.2.5-2 .7-2.6.2-.4.4-.8.7-1.2.4-.4.8-.9 1.2-1.4.2-.2.4-.5.6-.7.2-.3.5-.5.7-.8.7-.8 1.5-1.7 2.3-2.5q2.4-2.4 4.5-5.1c.1-.3.2-.6.3-.8.2-.3.3-.6.5-.9.1-.2.3-.5.4-.7.7-1.1 1.6-1.9 2.8-2.9.8-.6 1.6-1.3 2.3-1.9.3-.2.4-.3.5-.5.2-.1.5-.3 1.3-.8.3-.2.6-.4.8-.7-.9 2.8-2 5.5-3.4 8.2m-24.5 23.5c.1.4.2.9.3 1.3 0-.1.1-.2.2-.4.1.5.1 1 .2 1.6v.5h-1c-.2-1.3-.5-2.5-.8-3.7.2-.5.3-.7.8-1.4q0 1.05.3 2.1m-2.6 36.9v-.7c-.3-.1-.6-.1-.9-.2-.8-1-1.4-2.1-1.9-3.4.9-1 1.8-2.2 2.7-3.3.3-.3.6-.5.9-.8.3.1.5.2.8.3l.8-.8c.4-.1.8-.4 1.5-.8.6-.5 1.1-.9 1.7-1.4 1.7-1.4 1.7-1.4 3-2.8h1.1c.1-.1.2-.2.2-.3h.1c0 .2-.1.4-.1.6 2.2 1.2 4.4 2.3 6.7 3.3.2.1.3.2.5.4 0 0 .1 0 .1-.1 1.5.8 3.2 1.3 4.9 1.7 1.5.4 3.1.7 4.7.9.2 0 .4 0 .6.1-.6 1.1-1.1 2.1-1.6 3.3-.1.3-.1.6-.2.9l-.1.1h-1c-1.4 1.1-2.7 1.9-4.2 2.7l-1.8.9c-.3.1-.6.3-.9.4.3.1.5.2.7.3-1.6.3-3.1 1.1-4.7 2.5.2 0 .4.1.5.1-.2.2-.3.4-.5.6h.3c-.6.5-.9.6-2 1.2-1.4.4-2.4.6-3.5.4-1.1-1.6-1.2-1.6-4.5-2.8 0 .1.1.3.1.4-.3-.2-.6-.5-.9-.7.3-.1.5-.1.8-.2-1.4-1-2.6-1.9-3.9-2.8m6.3 28.4s0 .1 0 0c.1.1.2.2.3.2h-.3zm67.3-78.5.3.5c-.1-.1-.2-.2-.3-.5m-113.3-51c-.5-.8-.5-.8-1.1-1.7h1.1zm97.5 73.3c-2.9 1.8-2.9 1.8-3.8 2.7-.8 1.1-1.6 2.1-2.5 3.1l-.3.3c-.3.1-.5.2-.8.4-.9.9-1 1-1.5 1.9l-.3.3v.5l-.3.3-.3-.3c-1.8 1.2-3.5 2.3-5.1 3.6l.1.1-.1.1.1.1h-.1c-1.6 0-3.1.2-4.7.6-.4.1-.7.2-1.1.3-2.2.3-4.4.3-6.8 0q-1.35-.3-2.7-.3c-.3-.1-.5-.1-.8-.2-.7-.1-.7-.1-1.5-.3-.9-.2-1.8-.3-2.7-.5.1 0 .1-.1.2-.1-1-.2-2-.4-2.9-.6.1-.2.1-.5.1-.7v-.2c.4-.5.8-.9 1.2-1.3h.5c.7-.6.9-.8 1.3-1.3 1.4-.9 2.9-1.7 4.4-2.5.5-.2 1-.5 1.4-.7 1.3-.7 2.6-1.3 3.9-2 .3-.1.6-.3.9-.4l-.1-.1c8.2-2.6 11-3.4 16.8-3.5 3.5.4 3.7.4 7.5.7m-24.8-39.9.2.3c-.1-.1-.1-.2-.2-.3m-42.6-25.3h-.2c0-.2.1-.3.1-.5.4-.6.7-1 1-1.3v.1l.5-.5h.1l2.3-2.3h.1v-.1l.2-.2c.2.3.4.5.7.7-.1.5-.1.9-.2 1.4-.8 1.1-1 1.3-2.4 2.7zm-42.8 94.7c-3.2 2.2-6 4.3-9.7 4.1l-.9-.3c-.1-.2-.2-.3-.3-.5v-.4c0 .1-.1.2-.1.2-.1-.1-.1-.3-.2-.4h-.1v-.6c-3.1 0-5.2-.3-7.6-2.3-.4-.3-.7-.6-1.1-.9s-.9-.5-1.3-.6c-.2-.2-.4-.3-.6-.5 0 0 0-.1-.1-.1-.3-.5-.6-.8-.8-1s-.4-.4-.7-.6c-1-.8-2.1-1.4-3.4-2 2.2-.6 3-.9 5.6-2.4 1.2-.5 2.3-1.2 3.6-2 1.7-1.2 3.3-2.2 5.1-3.1.6-.3 1.2-.5 1.8-.8 1.4-.6 2.2-1 3.2-1 .6 0 1.2.1 2.1.3l1.5.6v.8c1.1.4 1.1.4 2.3 1.1 1.4 1.4 2 2.2 3.9 2.7h.1c.5 1.4.8 2.5 1 3.8q0 1.5-.6 3c-.6 1.1-1.6 2-2.7 2.9M179 239.8c-.4-.3-.8-.5-1.2-.8-.5-.4-1-.8-1.4-1.1s-.8-.6-1.1-.9c0 0 0-.1.1-.1h2.7v1.1c.8.2 1.5.4 2.3.6V234c.6-.2.8-.4 1.1-.5s.7-.1 1.2-.2v-.2c.4 0 .9 0 1.3.1.5.1 1 .1 1.4.1 3.1.1 6.1.3 9 1.4.5.3 1 .5 1.5.7.8.3.8.3 1.6.7.6.3 1.1.5 1.7.8 2.6 1.2 5.1 2.3 7.6 3.7 1.3.7 2.5 1.4 4 1.8.2.3.4.6.5 1h-1.7c-3.9 1.7-7.7 2.2-11.9 2.7l-1.8.2c-.5 0-1.1-.1-1.6-.1-.1 0-.2-.1-.3-.1-1-.3-1-.3-1.9-.5-1.1-.3-2.2-.6-3.3-.8-1.1-.4-2.2-.7-3.2-1v-.1h-.3c-.4-.1-.7-.1-.9-.2-.7-.2-1.5-.4-2.2-.6-.1 0-.3-.1-.4-.1-.2-.2-.4-.3-.6-.5l-.2-.2v-.6c-.3-.2-.5-.4-.6-.5-.4-.4-.7-.7-1.4-1.2m12.3-37.4.4-.4c1.5 1.1 1.7 1.2 2.4 2.6-.3-.1-.5-.1-.9-.2-.2 0-.4-.1-.6-.1-.4-.1-.7-.2-1.1-.4-.1-.3-.3-.7-.4-1 .1-.1.1-.3.2-.5m-5.6-4.2c.2.2.4.4.8.6.3.1.5.1.8.2l-1.6 1.6zM170 232.8c.3-.1.6-.2.8-.3h.1c.1 0 .2.1.3.1l-.1.1c.1 0 .1.1.2.1-.3.1-.7.1-1 .2-.2-.1-.2-.1-.3-.2m3.4 0 1.9.5c-.4-.1-.9-.2-1.9-.5m2.1.5h.2c-.1.1-.2.1-.2 0m14.6 46.4h-7.8c-1 0-2.1 0-3.1-.1-.1-.2-.1-.4-.2-.5v-.4l-.1-.1-.2-.2c-.2-.5-.5-.6-1.2-1-.2-.1-.4-.3-.6-.4.5-.5.5-.5.9-1 .6-1 .9-1.6 1-2.4l.2-.2c.1.2.1.4.2.6 0-.1.1-.2.1-.3 0 .1.1.2.1.3.2-.5.3-.9.5-1.4l.3-.3c.8 0 1-.1 2.5-1h.1c.2 0 .4-.1.6-.2v-.2c1.8-1 3.7-1.8 5.6-2.6h.6c.5-.3.8-.4 1-.6h.1c.4-.1.8-.3 1.2-.4.2-.1.4-.1.6-.2.5-.1 1.1-.3 1.6-.5v-.6h4.6c2.7.2 5.4.8 8.2 1.8.3.2.6.3.9.4 0-.1-.1-.2-.1-.4.8.3 1.7.6 2.5 1v2.3c-1.3.2-2.2.5-3.3 1.3-1.4 1.1-2.7 1.9-4.2 2.7-.4.2-.7.4-1.1.6-3.8 2-7.5 3.4-11.5 4m28.7 12.1v-.5c.2-.1.5-.1.7-.1.1 0 .1.1.2.1-.3 1-.3 1-.6 2.3.2 1 .4 1.9.6 2.9-.3 3.9-2.4 7.3-5 10.1-1.7.7-3.1 1.2-4.2 2.7-.1.1-.1.2-.2.3-.1.2-.3.4-.4.6-.8 1.1-1.5 1.8-2.4 2.3-.3.1-.6.3-1 .4h-.9c0-.3 0-.6.1-1 0-.4.1-.9.1-1.3s.1-.7.1-1.1h.2v-3.4h-.1v-1.9c-.1-1.8-.2-3.3.1-5 1-1.1 1.9-1.7 3.3-2.3 1.3-.6 1.3-.6 2.5-1.3.6-.3.6-.3 1.2-.7.4.1.8.3 1.2.4.9-.6.9-.6 3.4-2.9-.2-.1-.3-.2-.5-.2.2-.1.4-.3.6-.4zm-11.5 24.1v-1.1c.2-.1.3-.2.4-.2.3-.1.6-.2 1-.3.2.1.3.2.5.2l-.7.7c-.4.3-.8.5-1.2.7m16-92.9c-1.9-2.2-3.7-3.4-6.3-4.5-2.3-.9-4.9-1.6-6.7-3.3l-.1-.1v-.2c-.1 0-.2-.1-.3-.1-.4-.4-.7-.5-1.7-1.1-.3-.2-.6-.3-.9-.4 0-.1-.1-.1-.1-.2 0-1.1 0-1.2-.5-2.8l-.6-2.1-.6-2.1c-.2-.5-.3-.9-.4-1.4 2.3.4 2.5.5 4.6 1 .1 0 .2.1.3.1h.2v-1.3c-1.4-1.2-2.5-1.8-4.2-2.4-.6-.2-1.1-.3-1.6-.5v-3.4c-2.7-.9-5.1-1.4-6.7-3.8-.6-1.1-.7-1.3-1.4-1.6 0-.1-.1-.2-.1-.4.1-.1.1-.3.2-.4 0 0 .1 0 .1-.1 1.5.4 2.7.8 3.7 1.1.9.4 1.8.8 2.6 1.1.3.2.5.3.8.5.4.2.7.4 1.1.6.3.2.5.4.8.6v.1c.6.5 1.1 1 1.7 1.5.4.4.8.7 1.3 1v.1H206v.4h-.1v1.1c1.2.3 2.1.6 2.9.9.3.1.5.3.8.5v.3c1.1.7 1.4.8 2.2 1.2.3.2.5.3 1.1.6h.2c.3.3.6.5.8.8.7.8 1.3 1.7 2 2.5.6.2.7.3 1.1.4l.4.4.1.1c0 .2 0 .3.1.5v.3c1.5 1.6 2.5 2.9 3.3 4.5.3.7.5 1.4.7 2.2.2.9.2.9.5 1.8.2.6.3 1.2.5 1.8 0 .1.1.2.1.3v.3c.3 1.2.8 2.1 1.3 2.8q.3.6.9 1.2c.7.6.7.6 1.3 1.2-.8-.3-.8-.3-1.7-.6-.1.2-.1.4-.1.5-.2-.1-.3-.3-.5-.4v-.7c-.2 0-.4-.2-.6-.4m-2.9 82.5v-1c.4-.7.7-1.4 1.1-2.1-.2 1-.4 2.1-.6 3.1zm-29.1-118H190c-.1.1-.1.2-.2.3l-.3-.3v-.1h.1c0-.1-.1-.1-.1-.2-.1-.1-.1-.2-.2-.3.1 0 .1 0 .2-.1-.1-.1-.2-.1-.3-.1-.1-.1-.1-.2-.2-.4 1.1-.5 1.2-.5 2.1-1 .1.2.1.4.2.6zm30.3 114.7s0-.1 0 0c0-.1 0 0 0 0m-106.2 2.5c-4.6-.5-9.2-.5-13.8-.4v.3c-2.7 0-5.3.1-8 .4h-.4c-.5.1-1.1.2-1.7.2-.1 0-.3 0-.4.1-1.7.2-3.4.4-5.2.5-.4.1-.9.1-1.3.2h-2.5c-1.4 0-2.7 0-4.1-.1-1.3-.6-2-1.2-2.9-2.3-.6-3.1.1-6.3 1-9.3.1-.5.3-1 .4-1.4.4-1.5.8-3 1.3-4.5l.4-.4c2-.2 2.1-.1 3.9 1 1.7 1 3.4 1.9 5.2 2.8 1.4.7 2.9 1.5 4.3 2.2h-.2v.5c.4.3.9.5 1.4.8.7.4 1.3.7 1.9 1 1 .5 1 .5 1.9 1 1.1.5 1.5.6 2.1.5 4.9 2.5 9.8 4.6 14.9 6 .7.4 1.2.6 1.8.9m37.9 27.6c0 .1 0 0 0 0m84.3-96.4c-.3-.4-.6-1-1.2-1.8 0-.1.1-.1.1-.2-.6-.8-1.2-1.2-1.8-1.5-.2-.1-.3-.2-.5-.3-.2-.2-.4-.3-.6-.5h-.1c-.1-.1-.2-.1-.3-.2.1 0 .3 0 .4.1-.6-.3-1.1-.7-1.7-1.1-.8-1-1.1-1.3-1.1-1.8.1-.3.1-.6.2-.9 0-.1.1-.2.1-.3.2-.6.5-1.1.6-1.6l.2.2c.1-.6.2-1.1.3-1.7.1-.2.2-.4.3-.7v-4c.6-.3 1.1-.7 1.7-1.1v-1.2c.2-.1.3-.2.5-.2 3.8 1.8 7.5 1.7 11.5 1.1v-.1h.1v-.2c0-2.3 0-2.3-.2-3.6l-.3-1.8c-.7-6.1-1-9.5-1-12.8 0-.9.1-1.7.1-2.6.1.1.1.2.1.2V195c.1-1.3.2-2.7.4-4h.1c0-.4.1-.9.1-1.3.2.3.3.5.4.7.1.3.1.6.1 1.1 0 .3 0 .6.1.9 0 1.1.1 2.3.1 3.4 0 .8 0 .8.1 1.7 0 1.2.1 2.5.2 3.7 0 .5.1.9.1 1.4l.3 5.7c.1 1.3.1 2.5.2 3.8 0 .6.1 1.2.1 1.8.1.9.1.9.1 1.7.1 1.4.2 2.6.5 4 .1.2.1.3.1.4.1 1 .2 2 .4 2.9 0 .5.1.9.1 1.3.1.7.2 1.4.2 2.1.1.8.2 1.5.2 2.2.1 2.5.3 5.1.5 7.6h-1.7c-1.4.7-2.4 1.2-4 1.5-1 .2-1 .2-1.9.3-.7.1-1.3.2-1.9.3-.8-.3-1.3-.6-1.8-1.1v-.3c-.1-.3-.3-.6-.5-.9m76.3-47.9h1.2c-.2.3-.4.7-.6 1.1-.2-.3-.4-.7-.6-1.1m-47.8-37.3c-.1-.4-.2-.7-.3-1.1h1.1c-.2.6-.4 1.1-.6 1.7-.1-.2-.1-.4-.2-.6m1.3-17.7c-1.1.9-1.1.9-2.3 1.7.1-1.3.3-2.5.4-3.6v-.1l.3-.6c.1-.2.2-.4.4-.5l.3-.3c.2-.2.4-.3.6-.4.1 0 .1-.1.2-.1.5-.2.5-.2 1.1-.4.8-.3 1.7-.6 2.5-.8.5-.1.9-.2 1.4-.3-1.2.8-2 1.8-3.1 3.2.1 0 .2.1.3.1-.3.4-.7.8-1 1.1h-1.1zM95 214.9c-2 1-3.8 2.1-5.7 3.3-3.5 2.3-6.7 4.1-10.7 5.2 0-.1-.1-.2-.2-.3l-.6-1.2c-.5-.8-.9-1.5-1.3-2.3-.7-1.4-1.4-2.7-2-4.2-.6-2.7-.2-5.1 1.1-7.5v-.1c.9-1.1 1.4-1.6 2.9-1.9h4.3c2.1 0 4.2 0 6.3.2v.2c3.7.5 7.2.7 10.9.6v-.1h.1v.6c5.7.7 11.3.4 17.1.1v.1c-.4.2-.9.4-1.3.6-6.5.4-12.3 1.7-18.2 5.1-.9.6-1.8 1.1-2.7 1.6m170.2 162.9c.3.2.5.3.7.5.1.4.3.9.4 1.2h.6c-.2 1.4-.4 2.7-.5 4.1-.2.6-.3 1.2-.4 1.7-.2-.6-.3-1.2-.5-1.9-.6-2.3-1-3.4-.3-5.6m35.2-275.4c-1.4 1.4-2.8 2.7-4.3 4-.7.7-1.4 1.3-2.1 1.9-.1-.2-.1-.4-.2-.6-1.7 1.2-1.7 1.2-2.6 2.1-.3.4-.6.7-.9 1.1-.5.6-1.1 1.3-1.6 1.9.1 0 .1.1.2.1-.4.3-.7.5-1.1.8-.1-.1-.2-.1-.3-.2-.9 1-1.9 1.9-2.9 2.9h.1c-.4.4-.8.8-1.1 1.3-1 1.3-1.5 1.9-2.7 2.4v-.1c0-.1-.1-.2-.2-.4.2-.3.3-.7.5-1 .1-.2.1-.4.2-.6.2-.5.5-1 .7-1.6.1-.4.2-.8.2-1.2s.1-.8.1-1.2c0-2.3-.7-4.6-1.9-6.7-.2-.2-.3-.4-.5-.6-.3-.4-.6-.7-.9-1-.7-.7-1.6-1.2-2.9-1.3h-.1c-.4.1-.7.2-1.1.3v-1s.1 0 .1-.1c.4 0 .7 0 1-.1.2.1.3.1.5.2 1-.6 1.9-1.2 2.8-1.8.3-.2.4-.3.8-.6 1.2-.8 2.2-1.6 3.2-2.4.4-.3.8-.7 1.1-1.1.5-.5.9-1 1.3-1.6 0-.1.1-.1.1-.2l.6-.9c.5-.8 1-1.7 1.4-2.5.2-.3.4-.6.7-.9.3-.6.7-1.1 1-1.7.1-.2.2-.3.3-.5.7-1.1 1.5-2.1 2.3-3.1 2.5-2.2 4.5-2.7 7.7-2.9.2.1.4.2.5.3s.1.2.2.4c.1 0 .2 0 .2-.1.7.7.9.9 1.7 1.9.3.4.6.8 1.1 1.5 0 0 .1 0 .1.1.2.2.4.5.6.7.3.4.6.7.9 1.1l3 3.9c-.4.9-.8 1.6-1.3 2.4-.3.4-.4.5-.8.8-.3.4-.6.7-.9 1.1s-.6.7-.9 1.1c-1.3 1.2-2.6 2.4-3.9 3.7"/></svg>