<?xml version="1.0" encoding="utf-8"?>
<!-- Generator: Adobe Illustrator 28.2.0, SVG Export Plug-In . SVG Version: 6.00 Build 0)  -->
<svg version="1.1" id="Layer_1" xmlns="http://www.w3.org/2000/svg" xmlns:xlink="http://www.w3.org/1999/xlink" x="0px" y="0px"
	 viewBox="0 0 512 512" style="enable-background:new 0 0 512 512;" xml:space="preserve">
<style type="text/css">
	.st0{fill-rule:evenodd;clip-rule:evenodd;fill:#FFFFFF;}
</style>
<path class="st0" d="M357.3,157.3H168.2l0,0c-0.3,0-0.5,0-0.8,0c-9.8,0-17.8,7.9-17.8,17.7c0,9.8,8,17.7,17.8,17.7
	c0.3,0,0.5,0,0.8,0l0,0h189.1c9.8,0,17.8-7.9,17.8-17.7C375,165.2,367.1,157.3,357.3,157.3 M357.3,326.1H168.2l0,0
	c-0.3,0-0.5,0-0.8,0c-9.8,0-17.8,7.9-17.8,17.7s8,17.7,17.8,17.7c0.3,0,0.5,0,0.8,0l0,0h189.1c9.8,0,17.8-7.9,17.8-17.7
	C375,334.1,367.1,326.1,357.3,326.1 M307.6,259.4c0-9.2-7.1-16.8-16.2-17.6v-0.1H129.3l0,0c-0.3,0-0.5,0-0.8,0
	c-9.8,0-17.8,7.9-17.8,17.7c0,9.8,8,17.7,17.8,17.7c0.3,0,0.5,0,0.8,0l0,0h162.1v0C300.5,276.2,307.6,268.7,307.6,259.4 M477.8,128
	L256,0L34.2,128v256L256,512l221.8-128V128z M256,38.3l188.6,108.9v217.7L256,473.7L67.4,364.8V147.1L256,38.3z"/>
</svg>
