<?xml version="1.0" encoding="utf-8"?>
<!-- Generator: Adobe Illustrator 28.2.0, SVG Export Plug-In . SVG Version: 6.00 Build 0)  -->
<svg version="1.1" id="Layer_1" xmlns:v="https://svgstorm.com"
	 xmlns="http://www.w3.org/2000/svg" xmlns:xlink="http://www.w3.org/1999/xlink" x="0px" y="0px" viewBox="0 0 512 512"
	 style="enable-background:new 0 0 512 512;" xml:space="preserve">
<style type="text/css">
	.st0{fill-opacity:0.98;}
</style>
<path class="st0" d="M463.5,113.3h-59C367.1,73,314.1,47.9,255.5,47.9S143.8,73,106.4,113.3H48.5C21.8,113.3,0,135,0,161.8v189.5
	c0,26.8,21.8,48.5,48.5,48.5h58.8c37.4,39.6,90,64.4,148.1,64.4s110.8-24.7,148.1-64.4h59.9c26.8,0,48.5-21.8,48.5-48.5V161.8
	C512,135,490.2,113.3,463.5,113.3z M255.5,61.9c49.9,0,95.3,19.5,129.4,51.4H126.1C160.1,81.4,205.6,61.9,255.5,61.9z M255.5,450.1
	c-49.3,0-94.3-19.1-128.3-50.4h256.6C349.8,431,304.8,450.1,255.5,450.1z M497,351.2c0,18.5-15,33.5-33.5,33.5h-47h-18.1H112.6H94.5
	H48.5c-18.5,0-33.5-15-33.5-33.5V161.8c0-18.5,15-33.5,33.5-33.5h45.2h18h287.5h18h46.3c18.5,0,33.5,15,33.5,33.5V351.2z
	 M428.5,212.1c-2.2,0-4.5,0.2-6.6,0.5c0.8-3.3,1.3-6.7,1.3-10.2c0-23.8-20.1-43.1-44.8-43.1c-24.8,0-44.8,19.3-44.8,43.1
	c0,3.6,0.5,7.2,1.4,10.5c-2.8-0.5-5.7-0.8-8.7-0.8c-24.8,0-44.8,19.3-44.8,43.1c0,23.8,20.1,43.1,44.8,43.1c2.7,0,5.3-0.2,7.8-0.7
	c-0.9,3.5-1.4,7.1-1.4,10.8c0,23.8,20.1,43.1,44.8,43.1c24.8,0,44.8-19.3,44.8-43.1c0-3.7-0.5-7.3-1.4-10.8c2.5,0.4,5.1,0.6,7.7,0.6
	c24.8,0,44.8-19.3,44.8-43.1C473.3,231.4,453.3,212.1,428.5,212.1z M378.4,172.6c16.6,0,30,13.4,30,30s-13.4,30-30,30
	c-16.6,0-30-13.4-30-30S361.8,172.6,378.4,172.6z M325.8,285c-16.6,0-30-13.4-30-30c0-16.6,13.4-30,30-30c16.6,0,30,13.4,30,30
	C355.8,271.6,342.3,285,325.8,285z M378.4,338c-16.6,0-30-13.4-30-30c0-16.6,13.4-30,30-30c16.6,0,30,13.4,30,30
	C408.4,324.5,395,338,378.4,338z M430.5,285c-16.6,0-30-13.4-30-30c0-16.6,13.4-30,30-30c16.6,0,30,13.4,30,30
	C460.5,271.6,447.1,285,430.5,285z M181.6,210.9v-43.2H95.4v43.2H51.3v87.1h44.1v44.3h86.2v-44.3h44v-87.1H181.6z M209.8,282.2h-44
	v44h-54.6v-44H67.4v-54.4h43.8v-44h54.6v44h44V282.2z"/>
</svg>
