<svg xmlns="http://www.w3.org/2000/svg" xml:space="preserve" viewBox="0 0 512 512"><path d="M508.6 197c-13.2-64.2-46.5-115.4-100.9-152C357.2 11 300.8 1 241.1 8.1c-26.1 3.1-51 10.4-74.8 21.4-2.6 1.2-4.7 1.1-7.3-.3-24.2-13-47.6-11-70 4.4-2 1.3-3.6 1.7-5.9 1-9.9-3.1-20-4.1-30.3-2.3C8.5 39.9-13.7 87 8.7 126c7.8 13.5 18.9 23.9 31.2 33.2 2.5 1.9 2.9 3.3 1.9 6.2-9.7 26.7-14.3 54.4-14.8 82.8-.4 20.1 1.6 40.1 5.9 59.8 11.4 52.8 35.6 98.4 76.2 134.6 25.3 22.6 54.2 39.3 86.5 49.8 36.7 11.9 74.3 16.5 112.8 12.7 19.1-1.9 37.8-5.2 56.1-10.9 28.9-9 56.1-21.4 78.9-41.7 22.7-20.2 32.4-45.3 26.9-75.6-3.1-17.6-9.9-33.4-23.1-46.6 1.6-.8 2.6-1.3 3.5-1.5 28.4-13.6 46.9-35.7 56-65.8 6.6-21.8 6.4-43.9 1.9-66M46.7 78.1c.4-.6 1-1.2 1.5-1.7.3-.3.6-.5.9-.8 2.1-1.7 4.9-2.7 7.9-2.7.4 0 .8 0 1.2.1 2.3.2 4.5 1.2 6.2 2.6 0 0 .1 0 .1.1.2.2.4.3.6.5l.3.3c.1.1.2.2.3.4l.5.5s.1.1.1.2c1.4 1.7 2.3 3.9 2.5 6.2 0 .4.1.8.1 1.2-.1 6.9-5.1 11.7-12.2 11.7-6.5 0-12-5.4-12-11.8-.1-2.6.7-4.9 2-6.8M460 290.7c-12.8 12.4-28.7 18.7-46 21.1-9.6 1.3-19.4 1.8-29.1 1.8-58.2.2-116.4.2-174.6.3-3.9 0-7.9.3-11.7 1.1-9.3 2.1-12.3 9.3-7.5 17.5 7.5 12.8 19.1 20.6 32.6 25.8 19.8 7.7 40.5 9.7 61.5 8.9 22.4-.9 44-5.6 64.2-15.8 7-3.5 13.8-7.3 20.8-10.8 23.5-11.8 52.3-4.3 67.7 17.4 15.1 21.3 12.2 51.2-6.4 69.4-20.4 19.9-45.1 32.2-71.9 40.4-58.6 18-116.8 16.5-173.4-7.7-60.1-25.7-100-70.7-120.5-132.8-7.3-22-11-44.6-11.9-67.7 0-1 .1-2 .2-3 .4-10.5.2-21.2 1.3-31.7 2.1-20.7 7.2-40.7 15-60 .2-.6.5-1.1.6-1.2 11 6 21.9 11.9 32.8 17.8 10.3.8 17.8-3.6 23.8-11.9 11.2-15.5 23.2-30.5 34.1-46.3 4.5-6.5 7.8-14.2 10.5-21.7 5.4-14.8 4.7-29.5-3.7-44.1 6.3-2.7 12.3-5.7 18.6-8.2 55.9-21.9 112.4-23.7 168.6-2.1C407 67 443.2 103.8 467 153.1c9.9 20.6 16.3 42.4 18 65.3 2.1 27.6-4.5 52.4-25 72.3m-101.5-98.1c3.1 8.7-.7 15.1-9.9 16.4-3.3.5-6.8.4-10.2.4h-64.3c-23 0-46 .1-69 0-2.6 0-5.3-.2-7.9-.7-6.5-1.3-10.2-6.5-8.8-13.1 2-9.3 7.5-16.8 13.8-23.6 14.8-16.1 33.6-24.4 54.8-27.4 23.6-3.3 46.4-.8 67.6 11 14 7.8 25 18.7 32.2 33.2.6 1.2 1.2 2.5 1.7 3.8" style="fill:#fff"/></svg>