<svg xmlns="http://www.w3.org/2000/svg" xml:space="preserve" viewBox="0 0 512 512"><path d="M358.4 192.2q1.35 3.45 1.2 6.3c0 1.4-.3 2.8-.8 3.9-1.5 3.6-5 5.9-10.4 6.7-1.6.2-3.3.3-4.9.3h-69.2c-23.1 0-46.3 0-69.4-.1-3.1 0-6.3-.4-9.3-1.2-2.4-.7-4.3-2-5.6-3.7-.9-1.2-1.5-2.7-1.8-4.2-.2-1.3-.2-2.6.1-4 .6-3 1.5-5.7 2.8-8.4.7-1.6 1.6-3.1 2.5-4.6l.9-1.5c.6-1 1.3-1.9 2-2.8 1.4-1.9 2.9-3.7 4.4-5.4.4-.4.8-.9 1.2-1.3 3.8-4.1 7.8-7.7 12.1-10.9 1.1-.8 2.2-1.5 3.3-2.3 2.2-1.5 4.5-2.8 6.8-4 1.2-.6 2.3-1.2 3.5-1.8 2.4-1.1 4.8-2.1 7.2-3.1 3.7-1.4 7.5-2.5 11.4-3.5 3.9-.9 7.9-1.7 12-2.2 1.4-.2 2.9-.4 4.3-.5q8.55-.9 17.1-.6c1.4.1 2.8.1 4.2.2 4.2.3 8.4.9 12.5 1.7 1.4.3 2.7.6 4.1.9 8.2 2 16.2 5.1 23.9 9.4 14.1 7.8 25 18.6 32.3 33.1.6 1.3 1.1 2.4 1.6 3.6m141.5 88.5C489 303 472 319.1 449.3 329.3c-.6.2-1.1.6-2 1 17.3 18.4 24.7 40.1 24.4 64.6-.3 22.1-9.8 40.2-25.5 55.2-17.2 16.5-38 27.5-59.8 36.4-25.1 10.3-51.2 16.2-78.2 18.6-51.3 4.5-100.5-3.7-146.5-26.9-59.8-30.3-100.1-77.9-120.9-141.6-18.6-57.2-18.5-114.5 1.2-171.5.9-2.6.6-4-1.8-5.8-11.4-8.5-21.7-18.1-29.5-30.2C-9.8 97-.2 57.3 33 39c15.9-8.8 33-9.8 50.3-4.4 2.4.7 3.9.4 5.8-1 22.9-15.8 46.7-17.4 71.3-4 1.3.7 3.4.8 4.7.2C205.6 11.4 248 3.3 292.3 6.4c51.8 3.6 98.6 20.9 138 55.4 43.2 37.8 70 84.9 79.5 141.7 4.6 26.7 2.2 52.6-9.9 77.2M43.1 132.5c17.4 15.6 37.5 27.4 57.2 39.6 6 3.7 13.7 1.9 18.1-3.6 5.8-7.2 11.6-14.4 17.2-21.7 10.2-13.2 20.4-26.4 27.1-41.9 4.6-10.6 6.5-21.5 3.4-32.9-7.3-26.8-39.3-37.8-62.6-21.2-4.8 3.4-8.7 7.9-13.2 12.2-.3-.2-.9-.5-1.5-.9-10.4-7.1-21.7-9.7-34.2-7.4C33.7 58.5 19.4 79.1 23 99.8c2.5 13.6 10.3 23.9 20.1 32.7M485 218.3c-2.2-27.3-10.7-52.8-23.9-76.8-4.3-7.8-9-15.3-14-22.4-3.3-4.7-6.8-9.3-10.5-13.7-1.8-2.2-3.7-4.4-5.6-6.5-1-1.1-1.9-2.1-2.9-3.1-2-2.1-3.9-4.1-6-6.1-2-2-4.1-3.9-6.2-5.8s-4.3-3.7-6.5-5.5q-4.95-4.05-10.2-7.8c-2.3-1.7-4.7-3.3-7.1-4.8-9.7-6.2-20-11.7-31.1-16.3-32.8-13.6-65.9-19.1-99.2-17-7 .4-14 1.2-21 2.3-1.8.3-3.5.6-5.3.9-5.3.9-10.5 2.1-15.8 3.4-1.8.4-3.5.9-5.3 1.4q-10.5 2.85-21 6.6l-6.3 2.4c-4.2 1.7-8.3 3.5-12.6 5.4-2.1.9-4.2 1.8-6.4 2.7 1.8 3.1 3.3 6.1 4.4 9.2 1.9 5.4 2.8 10.9 2.8 16.4 0 .8 0 1.6-.1 2.4-.1 3.2-.6 6.4-1.3 9.6-2.1 9.8-6 19.1-11.8 27.3-11.5 16.3-23.5 32.2-35.5 48.1-1.1 1.4-2.1 2.6-3.1 3.7-4.6 5-9.3 7.3-15.1 7.4-3.2.1-6.8-.6-11-1.8-8.8-5.5-17.5-11.1-27-17-3.2 10-6.5 19.2-9.1 28.7-4.1 14.9-6.7 30-7.1 45.5-.3 3.9-.5 7.7-.6 11.6-.4 13.5.5 26.8 2.6 40 .3 1.9.6 3.8.9 5.6 1.7 9.4 3.9 18.7 6.8 27.9.6 1.8 1.1 3.7 1.8 5.5 20.7 62.8 61.3 107.9 122.4 133.4 40.2 16.8 81.3 22.2 122.6 17.3 12.6-1.5 25.2-3.9 37.8-7.3l5.4-1.5c1.8-.5 3.6-1.1 5.4-1.6 5-1.5 9.9-3.2 14.7-5 16.1-6.1 31.2-14 44.8-24.6 4.1-3.2 8-6.6 11.9-10.3 4.9-4.8 8.8-10.2 11.5-16.1.7-1.5 1.3-3 1.9-4.5 1.1-3 1.9-6.1 2.5-9.3 1.1-6.3 1.1-12.7 0-19-1.4-7.9-4.6-15.5-9.7-22.3-2.1-2.8-4.3-5.3-6.8-7.5-.6-.6-1.2-1.1-1.9-1.6q-1.95-1.65-3.9-3c-5.3-3.7-11.2-6.4-17.4-8-1.5-.4-3.1-.7-4.7-1-4.7-.8-9.5-.9-14.4-.4-4 .4-8 1.3-11.9 2.7-3.1 1.1-6.2 2.5-9.2 4.2-3.1 1.8-6.2 3.4-9.3 5.1-9.3 4.8-18.9 8.9-28.7 12.2-3.3 1.1-6.6 2-9.9 2.9-6.7 1.7-13.5 3-20.5 3.8-3.5.4-7 .7-10.6.8-21.9.9-43.5-.8-64.1-8.8-6.1-2.3-11.8-5.2-16.9-8.8-2.2-1.5-4.3-3.2-6.2-5-1.3-1.2-2.6-2.5-3.7-3.9-2.4-2.7-4.5-5.7-6.4-9.1-2.5-4.6-2.3-9.1.2-12.3q.75-.9 1.8-1.8 2.1-1.65 5.1-2.4c2-.5 4.1-.8 6.1-1 1.6-.1 3.1-.2 4.7-.3h1.6c14.5 0 29.1-.1 43.6-.1 43.6 0 87.3-.1 130.9-.2h3.6c4.9-.1 9.7-.3 14.6-.6 3.6-.3 7.3-.6 10.9-1.1 17.5-2.4 33.4-8.8 46.3-21.3 3.2-3.1 6-6.3 8.6-9.7 1-1.3 2-2.7 2.9-4.1 2.7-4.1 5-8.4 6.9-12.8 6.3-13.7 8.1-29.2 6.8-45.5"/><path d="M166.2 72.1c-7.3-26.8-39.3-37.8-62.6-21.2-4.8 3.4-8.7 7.9-13.2 12.2-.3-.2-.9-.5-1.5-.9-10.4-7.1-21.7-9.7-34.2-7.4-20.9 3.8-35.2 24.4-31.6 45.1 2.4 13.6 10.2 23.8 20 32.6 17.4 15.6 37.5 27.4 57.2 39.6 6 3.7 13.7 1.9 18.1-3.6 5.8-7.2 11.6-14.4 17.2-21.7 10.2-13.2 20.4-26.4 27.1-41.9 4.7-10.5 6.6-21.4 3.5-32.8M56.8 96.5c-6.6 0-12.3-5.5-12.1-11.9 0-6.4 5.6-11.7 12.3-11.6 6.4 0 11.7 5.4 11.7 11.8.1 6.9-4.8 11.7-11.9 11.7" style="opacity:.6"/><path d="M97.7 179.8c-8.8-5.5-17.5-11.1-27-17-3.2 10-6.5 19.2-9.1 28.7-4.1 14.9-6.7 30-7.1 45.5 7.7-15.1 18.9-33.6 30.6-45.4 4-4.2 8.3-7.9 12.6-11.8" style="opacity:.16"/><path d="M56.8 96.5c-6.6 0-12.3-5.5-12.1-11.9 0-6.4 5.6-11.7 12.3-11.6 6.4 0 11.7 5.4 11.7 11.8.1 6.9-4.8 11.7-11.9 11.7" style="opacity:.3"/></svg>