<svg xmlns="http://www.w3.org/2000/svg" xml:space="preserve" viewBox="0 0 512 512"><path d="M359.9 198.8c1 2.6 1.7 5.4 1.4 8.1-1 7-7.4 9.5-13.7 9.5-39.9.2-100 .1-141.5 0-2.4-.1-5.1-.3-7.4-1.3-4.2-1.6-7-5.6-6.8-10.1.1-3.9 1.8-7.6 3.7-11.1 15.6-29.4 50.3-43.9 84.7-42.7 32.1.2 65.9 16.3 79.6 47.6m150.7 54.5c-2.1 13.9-6.5 26.8-13 38.4-6.8 12.1-15.7 22.4-26.5 30.7-7.1 5.4-14.9 9.9-23.3 13.4 9.7 9.5 16.7 21.5 20.4 35 4.3 14.2 5.3 27.9 2.9 40.6-2.3 12.1-7.5 23.4-15.7 33.7-14 17.6-34.2 29.3-52.1 38.4l-.5.3c-28.5 13.8-61 26.4-105.7 26.4-3.8 0-7.8-.1-11.8-.3-55.7 0-109.1-16.5-150.4-46.2-25.4-17.4-46.9-40.1-63.8-67.3-16-25.8-27.3-54.6-33.4-85.5-6.1-30.6-6.8-61.5-2.2-91.9.7-4.9 1.6-9.7 2.6-14.5-13.5-11.5-22-22-27.5-30.3l-.1-.1v-.2C2.8 161.7-.8 147.7.2 133.4L6 43.9v-.8c.7-5.8 4.6-10.6 10.1-12.3l83-27.4 4.4-1.4 1-.3.5.5 3.9 1.6 71.5 29.9C211.1 21.5 244.1 15 277.5 15c24.7 0 48.8 3.5 71.8 10.5 20.6 5.9 40.5 15.1 58.9 27.3 17.8 11.8 34 26.1 48.2 42.7 14 16.4 25.8 34.6 34.9 54 9.3 19.8 15.6 40.6 18.9 61.7l.2 1.3c2.1 14 2.1 27.7.2 40.8m-415-29.2c44.3-19.3 66-39.2 76.3-52.6 6.6-8.8 10.2-19.4 10.4-30.3l1.3-89.1-71.4-29.9c-.1 1.4-.3 2.9-.4 4.3-4.2 47.4-8.4 94.8-12.6 142.3-.2 2.6-.5 5.3-.7 7.9-.1.9-.5 1.7-1.2 2.3s-1.5.9-2.4.8c-.9 0-1.7-.4-2.3-1.1s-1-1.5-.9-2.4c0-2.6.1-5.3.1-7.9.8-47.6 1.6-95.2 2.3-142.8 0-1.3 0-2.6.1-3.9L21.6 45.6l-5.8 88.9c-.7 10.9 2.1 21.8 7.9 31.1 9.3 14.1 29.3 35.7 71.9 58.5m388.7-8.7C472.6 139.5 416 71.9 341.9 50.6c-46.4-14.1-97.3-12.1-142.6 4.1l-1.2 86.6c-.2 14.4-4.9 28-13.5 39.6l-.1.1-.1.1c-11.7 15-35.6 37.1-83.3 57.7l-5.4 2.3-.7.3-.7-.4-5.2-2.8c-10.3-5.5-19.4-10.9-27.5-16.2-12.7 82.5 18.8 172.5 88.5 220.2 67.6 49 166.8 54 241.4 18 14.9-7.5 29.2-16 39.5-26.8 10.8-9.7 17.6-23.8 17.6-39.5 0-25.9-18.5-47.5-43-52.2-3.2-.7-6.5-1-9.8-1h-.4c-10 0-19.4 2.8-27.4 7.6-4.3 2.1-8.5 4.3-12.7 6.5-12.1 6.4-14.3 7-27.4 11.2-38.1 12.1-115.1 10.6-134.8-31.2-2.8-12 8.1-15 17.7-15 56.5-.2 115 0 171.3-.1 14.9-.1 30.1-.1 44.5-4.3 43.8-11.3 65.3-52.7 57.7-100"/><path d="M112.2 22.2c-.1 1.4-.3 2.9-.4 4.3-4.2 47.4-8.4 94.8-12.6 142.3-.2 2.6-.5 5.3-.7 7.9-.1.9-.5 1.7-1.2 2.3s-1.5.9-2.4.8c-.9 0-1.7-.4-2.3-1.1s-1-1.5-.9-2.4c0-2.6.1-5.3.1-7.9.8-47.6 1.6-95.2 2.3-142.8 0-1.3 0-2.6.1-3.9L21.6 45.6l-5.8 88.9c-.7 10.9 2.1 21.8 7.9 31.1 9.3 14.1 29.3 35.8 71.9 58.5 44.3-19.3 66-39.2 76.3-52.6 6.6-8.8 10.2-19.4 10.4-30.3l1.3-89.1zM67.3 66.4l-4.4 51c-.9 9.5-9.3 16.6-18.9 15.8s-16.7-9.3-15.8-18.8l4.4-51c.8-9.6 9.3-16.7 18.8-15.8 9.6.8 16.7 9.3 15.9 18.8" style="fill-opacity:.6"/><path d="m32.6 63.4-4.4 51c-.8 9.6 6.3 18 15.8 18.8 9.6.8 18-6.3 18.8-15.8l4.4-51c.8-9.6-6.3-18-15.8-18.8s-18 6.3-18.8 15.8" style="fill-opacity:.3"/><path d="m95 241.5-.8-.4-5.2-2.8c-10.3-5.5-19.4-10.9-27.5-16.2-1.8 11.7-2.7 23.5-2.8 35.3z" style="fill-opacity:.14"/></svg>