<?xml version="1.0" encoding="utf-8"?>
<!-- Generator: Adobe Illustrator 28.2.0, SVG Export Plug-In . SVG Version: 6.00 Build 0)  -->
<svg version="1.1"
	 id="svg2" xmlns:dc="http://purl.org/dc/elements/1.1/" xmlns:rdf="http://www.w3.org/1999/02/22-rdf-syntax-ns#" xmlns:cc="http://creativecommons.org/ns#" xmlns:svg="http://www.w3.org/2000/svg"
	 xmlns="http://www.w3.org/2000/svg" xmlns:xlink="http://www.w3.org/1999/xlink" x="0px" y="0px" viewBox="0 0 512 512"
	 style="enable-background:new 0 0 512 512;" xml:space="preserve">
<style type="text/css">
	.st0{fill-rule:evenodd;clip-rule:evenodd;fill:#FFFFFF;}
</style>
<path class="st0" d="M235.2,155.3v-49.4c0-7.9-3.6-11.5-11.2-11.5h-12.3v72.4H224C231.6,166.8,235.2,163.1,235.2,155.3z
	 M190.3,347.8h0.8h0.8h0.8h0.8h0.8h0.8h0.8h0.8h0.8h0.8h0.8h0.8h0.8h0.9h0.8l-0.4-0.7l-0.2-0.8l-0.3-0.8l-0.4-0.7l-0.2-0.8l-0.3-0.7
	l-0.3-0.8l-0.3-0.7l-0.3-0.8l-0.3-0.7l-0.3-0.7l-0.3-0.9l-0.2-0.7l-0.4-0.7l-0.3-0.8l-0.2-0.7l-0.4-0.8l-0.3-0.8l-0.2-0.7l-0.4-0.7
	l-0.3-0.8l-0.2-0.8l-0.4-0.7l-0.3,0.7L195,332l-0.3,0.8l-0.4,0.7l-0.2,0.7l-0.3,0.8l-0.4,0.8l-0.3,0.7l-0.2,0.8l-0.4,0.7l-0.3,0.7
	l-0.2,0.9l-0.3,0.7l-0.4,0.7l-0.2,0.8l-0.3,0.7l-0.4,0.8l-0.3,0.7l-0.2,0.8l-0.4,0.7l-0.3,0.8l-0.2,0.8l-0.3,0.7h0.8H190.3z
	 M436.5,0h-361C46.2,0,35.4,10.8,35.4,40.1v353.3c0,3.3,0.1,6.4,0.4,9.2c0.7,6.4,0.8,12.6,6.7,19.6c0.6,0.7,6.6,5.2,6.6,5.2
	c3.3,1.6,5.5,2.8,9.2,4.3l177.8,74.5c9.2,4.2,13.1,5.9,19.8,5.7l0,0l0,0l0,0l0,0c6.7,0.1,10.6-1.5,19.8-5.7l177.8-74.5
	c3.7-1.5,5.9-2.7,9.2-4.3c0,0,6.1-4.5,6.6-5.2c5.9-7.1,6.1-13.2,6.7-19.6c0.3-2.9,0.4-5.9,0.4-9.2V40.1C476.6,10.8,465.8,0,436.5,0z
	 M278.5,68h29.9v196.3h-29.9V68z M265.5,334.9l0.4,0.7l0.4-0.7l0.4-0.7l0.5-0.7l0.4-0.7l0.4-0.6l0.4-0.7l0.5-0.7l0.4-0.7l0.4-0.7
	l0.4-0.6l0.5-0.7l0.4-0.7l0.4-0.7l0.4-0.7l0.5-0.7l0.4-0.7l0.4-0.7l0.4-0.7l0.4-0.7l0.5-0.7l0.4-0.7l0.4-0.7l0.4-0.7l0.5-0.7
	l0.4-0.7l0.4-0.7l0.4-0.7l0.5-0.6l0.4-0.7l0.4-0.7l0.4-0.7l0.5-0.6l0.4-0.7l0.4-0.7h0.8h0.8h0.7h0.8h0.8h0.8h0.7h0.8h0.8h0.8h0.7
	h0.8h0.8h0.8h0.7h0.8h0.8h0.8h0.7h0.8h0.8v0.8v0.8v0.8v0.8v0.8v0.8v0.8v0.8v0.8v0.8v0.8v0.8v0.8v0.8v0.8v0.8v0.8v0.8v0.7v0.8v0.8
	v0.8v0.8v0.8v0.8v0.8v0.8v0.8v0.8v0.8v0.8v0.8v0.8v0.8v0.8v0.8v0.8v0.8v0.8v0.8v0.8v0.8v0.8v0.8v0.8v0.8v0.8v0.8v0.8v0.8v0.8v0.8
	v0.8v0.8v0.7v0.8v0.8v0.8v0.8v0.8v0.8v0.8v0.8v0.8v0.8v0.8v0.8v0.8v0.8v0.8v0.8v0.8v0.8h-0.8H295h-0.8h-0.9h-0.8H292h-0.8h-0.8h-0.8
	h-0.9h-0.8h-0.8h-0.8h-0.8h-0.8h-0.9H283h-0.8h-0.8v-0.8v-0.8V368v-0.8v-0.8v-0.8v-0.8v0.2v-0.8v-0.8v-0.8v-0.8V361v-0.8v-0.8v-0.8
	v-0.8V357v-1v-0.8v-0.8v-0.8v-0.8V352v-0.8v-0.8v-0.8v-0.8V348v-1v-0.8v-0.8v-0.8v-0.8V343v-0.8v-0.8v-0.8v-0.8V339v-0.8v-0.8v-0.8
	l-0.4,0.7l-0.5,0.7l-0.4,0.7l-0.5,0.7l-0.4,0.7l-0.5,0.7l-0.4,0.7l-0.4,0.7l-0.5,0.7l-0.4,0.7l-0.5,0.7l-0.4,0.7l-0.5,0.7l-0.4,0.7
	l-0.4,0.7l-0.5,0.7l-0.4,0.7l-0.5,0.7l-0.4,0.7l-0.5,0.7l-0.4,0.7l-0.4,0.7l-0.5,0.7l-0.4,0.7l-0.5,0.7l-0.4,0.7l-0.5,0.7l-0.4,0.7
	l-0.4,0.7l-0.5,0.7l-0.4,0.7l-0.5,0.7l-0.4,0.7l-0.5,0.7l-0.4,0.7h-0.3l-0.5-0.7l-0.4-0.7l-0.5-0.7l-0.4-0.7l-0.5-0.7l-0.4-0.7
	l-0.5-0.7l-0.4-0.7l-0.5-0.7l-0.4-0.7l-0.5-0.7l-0.4-0.7l-0.5-0.7l-0.4-0.7l-0.5-0.7l-0.4-0.7l-0.5-0.7l-0.5-0.7l-0.4-0.7l-0.5-0.7
	l-0.4-0.7l-0.5-0.7l-0.4-0.7l-0.5-0.7l-0.4-0.7l-0.5-0.7l-0.4-0.7l-0.5-0.7l-0.4-0.7l-0.5-0.7l-0.4-0.7l-0.5-0.7l-0.4-0.7l-0.5-0.7
	v0.8v0.8v0.8v0.8v0.8v0.8v0.8v0.8v0.8v0.8v0.7v0.8v0.8v0.8v0.8v0.8v0.8v0.8v0.8v0.8v0.8v0.8v0.8v0.8v0.8v0.8v0.8v0.8v0.8v0.8v0.8
	v0.8v0.7v0.8v0.8v0.8v0.8v0.8v0.8v0.8v0.8v0.8v0.8h-0.8h-0.8h-0.8H247h-0.8h-0.8h-0.8h-0.8H243h-0.8h-0.8h-0.8h-0.8H239h-0.8h-0.8
	h-0.8h-0.8H235v-0.8v-0.8v-0.8v-0.8v-0.8v-0.8v-0.8V365v-0.8v-0.8v-0.8v-0.8V361v-0.8v-0.8v-0.8v-0.8V357v-0.7v-0.8v-0.8v-0.8v-0.8
	V352v-0.8v-0.8v-0.8v-0.8V348v-0.8v-0.8v-0.8v-0.8V344v-0.8v-0.8v-0.8v-0.8V340v-1v-0.8v-0.8v-0.8v-0.8V335v-0.8v-0.8v-0.8v-0.8V331
	v-1v-0.8v-0.8v-0.8v-0.7V326v-0.8v-0.8v-0.8v-0.8V322v-0.8v-0.8v-0.8v-0.8V318v-0.8v-0.8v-0.8v-0.8V314v-1v-0.8h0.8h0.8h0.7h0.8h0.8
	h0.8h0.7h0.8h0.8h0.8h0.7h0.8h0.8h0.8h0.7h0.8h0.8h0.8h0.7h0.8h0.8l0.4,0.7l0.4,0.7l0.5,0.6l0.4,0.7l0.4,0.7l0.4,0.7l0.4,0.6
	l0.5,0.7l0.4,0.7l0.4,0.7l0.4,0.7l0.4,0.7l0.5,0.7l0.4,0.7l0.4,0.7l0.4,0.7l0.5,0.7l0.4,0.7l0.4,0.7l0.4,0.7l0.4,0.7l0.5,0.7
	l0.4,0.7l0.4,0.7l0.4,0.6l0.4,0.7l0.5,0.7l0.4,0.7l0.4,0.7l0.4,0.6l0.4,0.7l0.5,0.7L265.5,334.9z M181.9,68h46.9
	C253,68,265,80.1,265,104.5v52.2c0,24.4-12,36.5-36.3,36.5h-17v71.2h-29.9L181.9,68L181.9,68z M100.5,68h66.4v27.2h-36.6v55.5h35.2
	V178h-35.2v59.2h37.1v27.2h-67V68H100.5z M157,337.8v0.8v0.8v0.7v0.8v0.8v0.8v0.8v0.8v0.7v0.8v0.8v0.8v0.8v0.8v0.8v0.7v0.8v0.8v0.8
	v0.8v0.8v0.8v0.7v0.8v0.8v0.8v0.8v0.8v0.7v0.8v0.8v0.8l-0.6,0.5l-0.7,0.5l-0.6,0.4l-0.7,0.5l-0.6,0.4l-0.6,0.5l-0.7,0.4L152,367
	l-0.7,0.4l-0.7,0.4l-0.7,0.4l-0.7,0.3l-0.7,0.4l-0.8,0.3l-0.7,0.3l-1,0.5l-0.7,0.3l-0.7,0.2l-0.7,0.2L143,371l-0.8,0.2l-0.7,0.2
	l-0.8,0.2l-0.7,0.2l-0.8,0.2l-0.8,0.2l-0.8,0.1l-0.9,0.1l-0.8,0.1l-0.9,0.1l-0.8,0.1l-0.9,0.1h-0.9h-0.9h-0.9h-0.8l-0.8-0.1
	l-0.9-0.1l-0.8-0.1l-0.8-0.1l-0.8-0.1l-0.8-0.2l-0.8-0.2l-0.7-0.2l-0.8-0.2l-0.7-0.2l-0.8-0.2l-0.7-0.2l-0.7-0.3l-0.7-0.2l-0.8-0.3
	l-0.7-0.3l-0.7-0.3l-0.7-0.3l-0.7-0.4l-0.6-0.4l-0.7-0.4l-0.7-0.4l-0.6-0.4l-0.7-0.5l-0.6-0.5l-0.6-0.5l-0.6-0.5l-0.6-0.5l-0.6-0.6
	l-0.6-0.5l-0.6-0.6l-0.6-0.6l-0.5-0.6l-0.5-0.7l-0.5-0.6l-0.4-0.7l-0.5-0.7l-0.4-0.7l-0.4-0.7l-0.4-0.7l-0.4-0.7l-0.3-0.7l-0.3-0.7
	l-0.3-0.7l-0.3-0.7l-0.2-0.7l-0.3-0.7l-0.2-0.7l-0.2-0.7l-0.2-0.8l-0.2-0.7l-0.2-0.8l-0.1-0.7l-0.2-0.8l-0.1-0.7l-0.1-0.8l-0.1-0.8
	l-0.1-0.8v-0.9V342v-0.2V341l0.1-0.9v-0.8l0.1-0.8l0.1-0.9l0.2-0.8l0.1-0.8l0.2-0.7l0.2-0.8l0.2-0.8l0.2-0.7l0.2-0.8l0.2-0.7
	l0.3-0.8l0.3-0.7l0.3-0.7l0.3-0.7l0.3-0.7l0.4-0.7l0.4-0.7l0.4-0.7l0.4-0.7l0.4-0.7l0.5-0.7l0.5-0.7l0.5-0.7l0.5-0.6l0.6-0.6
	l0.5-0.6l0.6-0.6l0.6-0.6l0.6-0.5l0.7-0.6l0.6-0.5l0.6-0.5l0.7-0.4l0.6-0.5l0.7-0.4l0.6-0.4l0.7-0.4l0.7-0.4l0.7-0.4l0.7-0.3
	l0.7-0.3l0.8-0.4l0.6-0.2l0.8-0.2l0.7-0.3l0.7-0.2l0.7-0.2l0.8-0.2l0.7-0.2l0.8-0.2l0.8-0.1l0.8-0.2l0.8-0.1l0.8-0.1l0.8-0.1
	l0.8-0.1h0.9h0.8h0.9h0.9l0.9,0.1l0.9,0.1h0.8l0.8,0.1l0.9,0.2l0.7,0.1l0.8,0.2l0.8,0.2l0.7,0.2l0.7,0.2l0.7,0.2l0.7,0.2l0.7,0.2
	l0.6,0.2l0.7,0.2l0.7,0.3l0.7,0.3l0.7,0.3l0.7,0.4l0.7,0.3l0.7,0.4l0.7,0.4l0.6,0.4l0.7,0.4l0.6,0.5l0.6,0.4l0.7,0.5l0.6,0.5
	l0.7,0.6l0.6,0.5l-0.5,0.7l-0.6,0.6l-0.5,0.7l-0.6,0.7l-0.5,0.7l-0.5,0.6l-0.6,0.7l-0.5,0.7l-0.5,0.6l-0.6,0.7l-0.5,0.7l-0.6,0.7
	l-0.5,0.6l-0.5,0.7l-0.6,0.7l-0.5,0.7l-0.6,0.6l-0.5,0.7l-0.7-0.5l-0.6-0.6l-0.7-0.4l-0.6-0.5l-0.6-0.4l-0.7-0.4l-0.6-0.4l-0.7-0.4
	l-0.7-0.3l-0.6-0.3l-0.7-0.2l-0.7-0.2l-0.7-0.2l-0.7-0.2l-0.8-0.2l-0.8-0.2l-0.8-0.1l-0.9-0.1l-0.9-0.1h-0.9h-0.8l-0.8,0.1l-0.7,0.1
	l-0.8,0.2l-0.7,0.2l-0.7,0.2l-0.7,0.2l-0.7,0.3l-0.7,0.3l-0.7,0.4l-0.6,0.4l-0.7,0.4l-0.6,0.5l-0.6,0.5l-0.6,0.5l-0.5,0.6l-0.6,0.6
	l-0.5,0.7l-0.4,0.6l-0.4,0.7l-0.4,0.7l-0.4,0.7l-0.3,0.7l-0.2,0.7l-0.3,0.7l-0.2,0.8l-0.2,0.8l-0.2,0.7l-0.2,0.9l-0.1,0.8l-0.1,0.8
	v0.9v0.2v0.8l0.1,0.8l0.1,0.7l0.1,0.8l0.2,0.7l0.2,0.7l0.2,0.7l0.2,0.7l0.2,0.7l0.3,0.8l0.3,0.7l0.4,0.7l0.4,0.7l0.4,0.7l0.5,0.7
	l0.5,0.6l0.6,0.6l0.5,0.6l0.6,0.5l0.7,0.5l0.6,0.5l0.6,0.4l0.7,0.4l0.7,0.3l0.7,0.3l0.7,0.3l0.8,0.2l0.8,0.2l0.8,0.2l0.8,0.2
	l0.8,0.1l0.9,0.1h0.9h1l0.9-0.1l0.9-0.1l0.8-0.1l0.8-0.2l0.8-0.2l0.8-0.2l0.7-0.2l0.7-0.3l0.7-0.3l0.7-0.3l0.6-0.3l0.6-0.4v-0.8
	v-0.8v-0.8V353v-0.9v-0.8v-0.8v-0.8v-0.8h-0.8h-0.7h-0.8h-0.8h-0.8h-0.7h-0.8H135h-0.8h-0.7h-0.8h-0.8h-0.8H131h-0.8V348v-0.7v-0.8
	v-0.8v-0.8v-0.7v-0.8v-0.8v-0.8V341v-0.8v-0.8v-0.8v-0.7V337h0.8h0.8h0.8h0.8h0.8h0.8h0.8h0.8h0.8h0.8h0.8h0.8h0.8h0.8h0.8h0.8h0.8
	h0.8h0.8h0.8h0.8h0.8h0.8h0.8h0.8h0.8h0.8h0.8h0.8h0.8h0.8h0.8h0.8v0.8H157z M169.6,371.5h-0.8H168h-0.8h-0.9h-0.8h-0.8h-0.8H163
	l0.3-0.7l0.3-0.7l0.3-0.7l0.3-0.8l0.2-0.7l0.3-0.7l0.3-0.7l0.3-0.7l0.3-0.7l0.3-0.8l0.3-0.7l0.3-0.7l0.2-0.7l0.3-0.7l0.3-0.7
	l0.3-0.8l0.3-0.7l0.3-0.7l0.3-0.7l0.3-0.7l0.2-0.7l0.3-0.8l0.3-0.7l0.3-0.7l0.3-0.7l0.3-0.7l0.3-0.7l0.3-0.8l0.2-0.7l0.3-0.7
	l0.3-0.7l0.3-0.7l0.3-0.7l0.3-0.8l0.3-0.7l0.3-0.7l0.2-0.7l0.3-0.7l0.3-0.7l0.3-0.8l0.3-0.7l0.3-0.7l0.3-0.7l0.3-0.7l0.2-0.7
	l0.3-0.7l0.3-0.8l0.3-0.7l0.3-0.7l0.3-0.7l0.3-0.7l0.3-0.7l0.2-0.8l0.3-0.7l0.3-0.7l0.3-0.7l0.3-0.7l0.3-0.7l0.3-0.8l0.3-0.7
	l0.2-0.7l0.3-0.7l0.3-0.7l0.3-0.7l0.3-0.8l0.3-0.7l0.3-0.7l0.3-0.7l0.2-0.7l0.3-0.7l0.3-0.8l0.3-0.7l0.3-0.7l0.3-0.7l0.3-0.7
	l0.3-0.7l0.2-0.8l0.3-0.7l0.3-0.7l0.3-0.7h0.8h0.7h0.8h0.8h0.8h0.7h0.8h0.8h0.8h0.7h0.8h0.8h0.8h0.7h0.8h0.8h0.8h0.7h0.8l0.3,0.7
	l0.3,0.7l0.3,0.7l0.3,0.8l0.2,0.7l0.3,0.7l0.3,0.7l0.3,0.7l0.3,0.7l0.3,0.8l0.3,0.7l0.3,0.7l0.2,0.7l0.3,0.7l0.3,0.7l0.3,0.8
	l0.3,0.7l0.3,0.7l0.3,0.7l0.3,0.7l0.2,0.7l0.3,0.8l0.3,0.7l0.3,0.7l0.3,0.7l0.3,0.7l0.3,0.7l0.3,0.8l0.2,0.7l0.3,0.7l0.3,0.7
	l0.3,0.7l0.3,0.7l0.3,0.8l0.3,0.7l0.3,0.7l0.2,0.7l0.3,0.7l0.3,0.7l0.3,0.7l0.3,0.8l0.3,0.7l0.3,0.7l0.3,0.7l0.2,0.7l0.3,0.7
	l0.3,0.8l0.3,0.7l0.3,0.7l0.3,0.7l0.3,0.7l0.3,0.7l0.2,0.8l0.3,0.7l0.3,0.7l0.3,0.7l0.3,0.7l0.3,0.7l0.3,0.8l0.3,0.7l0.2,0.7
	l0.3,0.7l0.3,0.7l0.3,0.7l0.3,0.8l0.3,0.7l0.3,0.7l0.3,0.7l0.2,0.7l0.3,0.7l0.3,0.8l0.3,0.7l0.3,0.7l0.3,0.7l0.3,0.7l0.3,0.7
	l0.2,0.8l0.3,0.7l0.3,0.7l0.3,0.7h-0.8h-0.8h3.9h-0.8h-0.8h-0.8h-0.8H222h-0.8h-0.8h-0.8h-0.8H218h-0.7h-0.8h-0.8h-0.8H214h-0.7
	h-0.8h-0.8l-0.3-0.7L211,370l-0.3-0.7l-0.3-0.8l-0.2-0.7l-0.3-0.7l-0.3-0.7l-0.2-0.7l-0.3-0.7l-0.3-0.7l-0.2-0.7l-0.3-0.8l-0.3-0.7
	l-0.2-0.7l-0.3-0.7h-0.8h-0.8h-0.8h-0.8h-0.7h-0.8H202h-0.8h-0.8h-0.8h-0.8H198h-0.8h-0.8h-0.7h-0.8h-0.8h-0.8h-0.8h-0.8h-0.8h-0.8
	h-0.8h-0.8h-0.7H187h-0.8h-0.8h-0.8l-0.3,0.7l-0.2,0.7l-0.3,0.7l-0.3,0.8l-0.2,0.7L183,365l-0.3,0.7l-0.2,0.7l-0.3,0.7l-0.3,0.7
	l-0.2,0.7l-0.3,0.8L180,370l-0.2,0.7l-0.3,0.7h-0.8h-0.8H177h-0.8h-0.8h-0.9h-0.8h-0.8H172h-0.8h-0.8L169.6,371.5L169.6,371.5z
	 M254.6,470.6l-83.7-28.8h170.9L254.6,470.6z M356.3,358.9v0.7v0.8v0.8v0.8v0.7v0.8v0.8v0.7v0.8v0.8v0.7v0.8v0.8v0.8v0.7v0.8h-0.8
	h-0.8h-0.8H353h-0.8h-0.8h-0.8h-0.8H349h-0.9h-0.8h-0.8h-0.8h-0.8H344h-0.8h-0.8h-0.8h-0.8H340h-0.8h-0.8h-0.8h-0.8H336h-0.8h-0.8
	h-0.8h-0.8h-0.9H331h-0.8h-0.8h-0.8h-0.8H327h-0.8h-0.8h-0.8h-0.8H323h-1h-0.8h-0.8h-0.8h-0.8H318h-0.8h-0.9h-0.8h-0.8h-0.8H313
	h-0.8h-0.8h-0.8h-0.8H309v-0.8v-0.8v-0.8V368v-0.8v-0.8v-0.8V365v-0.8v-0.8v-0.8v-0.8V361v-0.8v-0.8v-0.8v-0.8V357v-0.7v-0.8v-0.8
	v-0.8v-0.8V352v-0.8v-0.8v-0.8v-0.8V348v-0.8v-0.8v-0.8v-0.8V344v-0.8v-0.8v-0.8v-0.8V340v-1v-0.8v-0.8v-0.8v-0.8V335v-0.8v-0.8
	v-0.8v-0.8V331v-1v-0.8v-0.8v-0.8v-0.7V326v-0.8v-0.8v-0.8v-0.8V322v-0.8v-0.8v-0.8v-0.8V318v-0.8v-0.8v-0.8v-0.8V314v-1v-0.8h0.8
	h0.8h0.8h0.8h0.8h0.8h0.8h0.8h0.8h0.8h0.8h0.8h0.8h0.8h0.7h0.8h0.8h0.8h0.8h0.8h0.8h0.8h0.8h0.8h0.8h0.8h0.8h0.8h0.8h0.8h0.8h0.8
	h0.8h0.8h0.8h0.8h0.8h0.8h0.8h0.8h0.8h0.8h0.8h0.7h0.8h0.8h0.8h0.8h0.8h0.8h0.8h0.8h0.8h0.8h0.8h0.8h0.8h0.8v0.8v0.7v0.8v0.8v0.8
	v0.7v0.8v0.8v0.7v0.8v0.8v0.7v0.8v0.8v0.8v0.7v0.8h-0.8h-0.8h-0.8H352h-0.8H351h-0.7h-0.8h-0.8h-0.8H347h-0.8h-0.8h-0.8h-0.8H343
	h-0.8h-0.8h-0.8h-0.7H339h-0.8h-0.8h-0.8h-0.8H335h-0.8h-0.8h-0.8h-0.8H331h-0.8h-0.7h-0.8h-0.8h-0.8h-0.8h-0.8h-0.8v0.8v0.8v0.8
	v0.8v0.8v0.7v0.8v0.8v0.8v0.8v0.8v0.8h0.8h0.8h0.8h0.8h0.8h0.8h0.8h0.8h0.7h0.8h0.8h0.8h0.8h0.8h0.8h0.8h0.8h0.8h0.8h0.8h0.8h0.8
	h0.8h0.8h0.8h0.8h0.7h0.8h0.8h0.8h0.8h0.8h0.8h0.8h0.8v0.8v0.7v0.8v0.8v0.7v0.8v0.8v0.7v0.8v0.8v0.8v0.7v0.8v0.8v0.7v0.8h-0.8h-0.8
	h-0.8h-0.8h-0.8h-0.8H347h-0.8h-0.7h-0.8h-0.8H343h-0.8h-0.8h-0.8h-0.8H339h-0.8h-0.8h-0.8h-0.8H335h-0.8h-0.8h-0.8h-0.8H331h-0.8
	h-0.8h-0.8h-0.8H327h-0.8h-0.8h-0.8v0.8v0.9v0.8v0.8v0.9v0.8v0.8v0.9v0.8v0.8v0.9v0.8h0.8h0.8h0.8h0.8h0.8h0.8h0.8h0.8h0.8h0.9h0.8
	h0.8h0.8h0.8h0.8h0.8h0.8h0.8h0.8h0.8h0.8h0.8h0.8h0.8h0.8h0.8h0.8h0.8h0.8h0.9h0.8h0.8h0.8h0.8h0.8h0.8h0.8h0.8h0.8v1.8H356.3z
	 M324.2,229.6V102.8c0-24.4,12-36.5,36.3-36.5H375c24.3,0,36,11.8,36,36.2v40.1h-29.3v-38.4c0-7.9-3.6-11.5-11.2-11.5h-5
	c-7.8,0-11.4,3.6-11.4,11.5v124c0,7.9,3.6,11.5,11.4,11.5h5.6c7.5,0,11.2-3.6,11.2-11.5v-44.3h29.3v45.7c0,24.4-12,36.5-36.3,36.5
	h-14.8C336.2,266,324.2,254,324.2,229.6z M412.4,353.3v0.2v0.9l-0.1,0.9l-0.1,0.8l-0.1,0.9l-0.2,0.8l-0.2,0.8l-0.2,0.7l-0.2,0.8
	l-0.3,0.7l-0.3,0.7l-0.3,0.7l-0.4,0.7l-0.4,0.7l-0.5,0.7l-0.4,0.7l-0.5,0.6l-0.6,0.6l-0.5,0.5l-0.7,0.6l-0.6,0.5l-0.7,0.5l-0.6,0.4
	l-0.6,0.5l-0.7,0.4l-0.7,0.3l-0.7,0.4l-0.8,0.3l-0.8,0.3l-0.8,0.2l-0.8,0.2l-0.7,0.2l-0.8,0.2l-0.7,0.2l-0.7,0.2l-0.8,0.2l-0.8,0.1
	l-0.7,0.1l-0.8,0.1l-0.9,0.1l-0.8,0.1h-0.8H389h-0.9h-0.8l-0.8-0.1h-0.9l-0.8-0.1l-0.8-0.1l-0.9-0.1l-0.8-0.2l-0.8-0.1l-0.8-0.2
	l-0.8-0.2l-0.8-0.2l-0.8-0.2l-0.8-0.2l-0.7-0.2l-0.8-0.2l-0.8-0.2l-0.7-0.3l-0.8-0.2l-0.7-0.2l-0.8-0.3l-0.7-0.3l-0.7-0.3l-0.7-0.4
	l-0.7-0.3l-0.7-0.4l-0.6-0.4l-0.7-0.4l-0.6-0.4l-0.7-0.4l-0.6-0.5l-0.6-0.5l-0.7-0.5l-0.6-0.5l-0.6-0.5l-0.6-0.6l0.5-0.7l0.6-0.6
	l0.5-0.7l0.6-0.7l0.5-0.6l0.5-0.7l0.6-0.7l0.5-0.6l0.6-0.7l0.5-0.6l0.6-0.7l0.5-0.7l0.5-0.6l0.6-0.7l0.5-0.7l0.6-0.6l0.5-0.7
	l0.6,0.5l0.7,0.5l0.7,0.5l0.7,0.5l0.7,0.4l0.7,0.5l0.6,0.4l0.7,0.3l0.6,0.4l0.7,0.3l0.7,0.3l0.7,0.3l0.7,0.2l0.7,0.3l0.8,0.2
	l0.8,0.2l0.7,0.2l0.8,0.2l0.8,0.2l0.8,0.2l0.9,0.1l0.8,0.2h0.8l0.9,0.1h0.8h1l0.9-0.1l0.8-0.2l0.7-0.2l0.7-0.2l0.7-0.2l0.6-0.3
	l0.7-0.5l0.5-0.6l0.3-0.7l0.2-0.7l0.1-0.8v-0.2l-0.1-1l-0.3-0.8l-0.4-0.6l-0.6-0.5l-0.7-0.5l-0.6-0.3l-0.7-0.3l-0.8-0.3l-1-0.4
	l-0.6-0.2l-0.6-0.2l-0.7-0.2l-0.7-0.2l-0.8-0.2l-0.8-0.2l-0.9-0.2l-0.8-0.2l-0.9-0.2l-0.8-0.2l-0.8-0.2l-0.8-0.2l-0.8-0.2l-0.7-0.2
	l-0.8-0.2l-0.7-0.2l-0.7-0.2l-0.7-0.2l-0.9-0.3l-0.8-0.3l-0.8-0.3l-0.8-0.3l-0.7-0.4l-0.8-0.4l-0.7-0.4l-0.7-0.4l-0.6-0.5l-0.7-0.4
	l-0.6-0.5l-0.6-0.6l-0.6-0.6l-0.5-0.6l-0.5-0.6l-0.4-0.6l-0.4-0.7l-0.4-0.7l-0.3-0.6l-0.2-0.7l-0.2-0.7l-0.2-0.7l-0.2-0.8l-0.2-0.7
	l-0.1-0.8l-0.1-0.8l-0.1-0.9v-0.9v0.4v-0.8l0.1-0.8l0.1-0.7l0.1-0.8l0.2-0.7l0.2-0.7l0.2-0.7l0.2-0.7l0.3-0.7l0.3-0.7l0.3-0.7
	l0.4-0.7l0.4-0.7l0.5-0.7l0.5-0.7l0.6-0.7l0.6-0.6l0.6-0.7l0.7-0.6l0.6-0.4l0.7-0.5l0.6-0.5l0.6-0.4l0.7-0.4l0.7-0.3l0.7-0.4
	l0.7-0.3l0.8-0.2l0.8-0.3l0.7-0.2l0.6-0.2l0.7-0.2l0.7-0.2l0.8-0.2l0.7-0.2l0.8-0.1l0.8-0.1l0.8-0.1l0.8-0.1h0.8h0.9h0.9h0.9
	l0.9,0.1l0.9,0.1h0.8l0.9,0.1l0.8,0.2l0.9,0.1l0.8,0.2l0.7,0.2l0.8,0.2l0.8,0.2l0.7,0.2l0.8,0.2l0.7,0.2l0.7,0.2l0.8,0.3l0.7,0.2
	l0.7,0.3l0.7,0.3l0.8,0.3l0.7,0.4l0.6,0.3l0.7,0.4l0.7,0.4l0.6,0.4l0.7,0.5l0.6,0.4l0.7,0.5l0.6,0.5l0.6,0.5l-0.5,0.7l-0.4,0.7
	l-0.5,0.7l-0.5,0.7l-0.5,0.7L408,323l-0.5,0.7l-0.5,0.7l-0.4,0.7l-0.5,0.7l-0.5,0.7l-0.4,0.7l-0.5,0.7l-0.5,0.7l-0.5,0.7l-0.4,0.7
	l-0.5,0.7l-0.7-0.5l-0.7-0.4l-0.6-0.4l-0.7-0.5l-0.7-0.3l-0.7-0.4l-0.7-0.3l-0.6-0.3l-0.7-0.3l-0.6-0.3l-0.7-0.2l-0.7-0.3l-0.9-0.2
	l-0.8-0.2l-0.8-0.2l-0.8-0.2l-0.8-0.2l-0.8-0.2l-0.8-0.1l-0.8-0.1l-0.7-0.1h-0.8h-1l-0.9,0.2l-0.8,0.2l-0.7,0.2l-0.6,0.3l-0.6,0.3
	l-0.7,0.7l-0.5,0.7l-0.3,0.7l-0.1,0.8v0.2l0.1,1.1l0.4,0.9l0.3,0.5l0.6,0.6l0.7,0.4l0.6,0.4l0.8,0.3l0.9,0.3l1,0.3l0.6,0.2l0.6,0.2
	l0.7,0.2l0.7,0.2l0.8,0.2l0.9,0.2l0.9,0.2l0.9,0.2l0.9,0.2l0.8,0.2l0.9,0.2l0.8,0.2l0.8,0.2l0.8,0.2l0.7,0.2l0.8,0.2l0.7,0.2
	l0.7,0.2l0.9,0.3l0.8,0.4l0.8,0.3l0.8,0.4l0.7,0.4l0.7,0.4l0.6,0.4l0.7,0.5l0.6,0.4l0.6,0.6l0.7,0.6l0.6,0.7l0.6,0.6l0.5,0.7
	l0.5,0.7l0.4,0.7l0.4,0.7l0.3,0.7l0.2,0.7l0.2,0.7l0.2,0.7l0.2,0.8l0.2,0.8l0.1,0.8l0.1,0.9L412.4,353.3L412.4,353.3z"/>
</svg>
