<svg xmlns="http://www.w3.org/2000/svg" xml:space="preserve" viewBox="0 0 512 512"><path d="M436.5 0H75.4C46.1 0 35.3 10.8 35.3 40.1v353.3c0 3.3.1 6.4.4 9.2.7 6.4.8 12.6 6.7 19.6.6.7 6.6 5.2 6.6 5.2 3.3 1.6 5.5 2.8 9.2 4.3L236 506.2c9.2 4.2 13.1 5.9 19.8 5.7 6.7.1 10.6-1.5 19.8-5.7l177.8-74.5c3.7-1.5 5.9-2.7 9.2-4.3 0 0 6.1-4.5 6.6-5.2 5.9-7.1 6.1-13.2 6.7-19.6.3-2.9.4-5.9.4-9.2V40.1C476.6 10.8 465.8 0 436.5 0" style="fill-rule:evenodd;clip-rule:evenodd;fill:#2f2d2e"/><path d="m412.3 355.2-.1.8-.1.9-.2.8-.2.8-.2.7-.2.8-.3.7-.3.7-.3.7-.4.7-.4.7-.5.7-.4.7-.5.6-.6.6-.5.5-.7.6-.6.5-.7.5-.6.4-.6.5-.7.4-.7.3-.7.4-.8.3-.8.3-.8.2-.8.2-.7.2-.8.2-.7.2-.7.2-.8.2-.8.1-.7.1-.8.1-.9.1-.8.1h-3.4l-.8-.1h-.9l-.8-.1-.8-.1-.9-.1-.8-.2-.8-.1-.8-.2-.8-.2-.8-.2-.8-.2-.8-.2-.7-.2-.8-.2-.8-.2-.7-.3-.8-.2-.7-.2-.8-.3-.7-.3-.7-.3-.7-.4-.7-.3-.7-.4-.6-.4-.7-.4-1.4-.7-.7-.4-.6-.5-.6-.5-.7-.5-.6-.5-.6-.5-.6-.6.5-.7.6-.6.5-.7.6-.7.5-.6.5-.7.6-.7.5-.6.6-.7.5-.6.6-.7.5-.7.5-.6.6-.7.5-.7.6-.6.5-.7.6.5.7.5.7.5.7.5.7.4.7.5.6.4.7.3.6.4.7.3.7.3.7.3.7.2.7.3.8.2.8.2.7.2.8.2.8.2.8.2.9.1.8.2h.8l.9.1h1.8l.9-.1.8-.2.7-.2.7-.2.7-.2.6-.3.7-.5.5-.6.3-.7.2-.7.1-.8v-.2l-.1-1-.3-.8-.4-.6-.6-.5-.7-.5-.6-.3-.7-.3-.8-.3-1-.4-.6-.2-.6-.2-.7-.2-.7-.2-.8-.2-.8-.2-.9-.2-.8-.2-.9-.2-.8-.2-.8-.2-.8-.2-.8-.2-.7-.2-.8-.2-.7-.2-.7-.2-.7-.2-.9-.3-.8-.3-.8-.3-.8-.3-.7-.4-.8-.4-.7-.4-.7-.4-.6-.5-.7-.4-.6-.5-.6-.6-.6-.6-.5-.6-.5-.6-.4-.6-.4-.7-.4-.7-.3-.6-.2-.7-.2-.7-.2-.7-.2-.8-.2-.7-.1-.8-.1-.8-.1-.9V329v.2l.1-.8.1-.7.1-.8.2-.7.2-.7.2-.7.2-.7.3-.7.3-.7.3-.7.4-.7.4-.7.5-.7.5-.7.6-.7.6-.6.6-.7.7-.6.6-.4.7-.5.6-.5.6-.4.7-.4.7-.3.7-.4.7-.3.8-.2.8-.3.7-.2.6-.2.7-.2.7-.2.8-.2.7-.2.8-.1.8-.1.8-.1.8-.1h3.5l.9.1.9.1h.8l.9.1.8.2.9.1.8.2.7.2.8.2.8.2.7.2.8.2.7.2.7.2.8.3.7.2.7.3.7.3.8.3.7.4.6.3.7.4.7.4.6.4.7.5.6.4.7.5.6.5.6.5-.5.7-.4.7-.5.7-.5.7-.5.7-.4.7-.5.7-.5.7-.4.7-.5.7-.5.7-.4.7-.5.7-.5.7-.5.7-.4.7-.5.7-.7-.5-.7-.4-.6-.4-.7-.5-.7-.3-.7-.4-.7-.3-.6-.3-.7-.3-.6-.3-.7-.2-.7-.3-.9-.2-.8-.2-.8-.2-.8-.2-.8-.2-.8-.2-.8-.1-.8-.1-.7-.1h-1.8l-.9.2-.8.2-.7.2-.6.3-.6.3-.3-.4-.5.7-.3.7-.1.8v.2l.1 1.1.4.9.3.5.6.6.7.4.6.4.8.3.9.3 1 .3.6.2.6.2.7.2.7.2.8.2.9.2.9.2.9.2.9.2.8.2.9.2.8.2.8.2.8.2.7.2.8.2.7.2.7.2.9.3.8.4.8.3.8.4.7.4.7.4.6.4.7.5.6.4.6.6.7.6.6.7.6.6.5.7.5.7.4.7.4.7.3.7.2.7.2.7.2.7.2.8.2.8.1.8.1.9v2zm-56.9 16.3h-45.9v-59.3h46.2v13.2h-30.9v9.5h27.8V348h-27.8v10h31.4v13.5zm-59.3 0h-14.7v-34.9l-.4.7-.5.7-.4.7-.5.7-.4.7-.5.7-.5.4-.4.7-.5.7-.4.7-.5.7-.4.7-.5.7-.4.7-.4.7-.5.7-.4.7-.5.7-.4.7-.5.7-.4.7-.4.7-.5.7-.4.7-.5.7-.4.7-.5.7-.4.7-.4.7-.5.7-.4.7-.4.2-.4.7-.5.7-.4.7h-.3l-.5-.7-.4-.7-.5-.7-.4-.7-.5-.7-.4-.7-.5-.7-.4-.7-.5-.7-.4-.7-.5-.7-.4-.7-.5-.7-.4-.7-.5-.7-.4-.7-.5-.7-.5-.7-.4-.7-.5-.7-.4-.7-.5-.7-.4-.7-.5-.7-.4-.7-.5-.7-.4-.7-.5-.7-.4-.7-.5-.7-.4-.7-.5-.7-.4-.7-.5-.7v34.9H235v-59.2h16.3l.4.7.4.7.5.6.4.7.4.7.4.7.4.6.5.7.4.7.4.7.4.7.4.7.5.7.4.7.4.7.4.7.5.7.4.7.4.7.4.7.4.7.5.7.4.7.4.7.4.6.4.7.5.7.4.7.4.7.4.6.4.7.5.7.4.7.4.7.4-.7.4-.7.5-.7.4-.7.4-.6.4-.7.5-.7.4-.7.4-.7.4-.6.5-.7.4-.7.4-.7.4-.7.5-.7.4-.7.4-.7.4-.7.4-.7.5-.7.4-.7.4-.7.4-.7.5-.7.4-.7.4-.7.4-.7.5-.6.4-.7.4-.7.4-.7.5-.6.4-.7.4-.7h16.3v59.2zM202 347.1l-.2-.7-.3-.8-.3-.7-.2-.7-.3-.7-.3-.8-.2-.7-.3-.7-.3-.7-.2-.7-.3-.8-.2-.7-.3-.7-.3-.7-.2-.7-.3-.8-.3-.7-.2-.7-.3-.7-.3-.8-.2-.7-.3-.7h-1l-.2.7-.3.8-.3.7-.2.7-.3.7-.3.8-.3.7-.2.7-.3.7-.3.7-.2.8-.3.7-.3.7-.2.7-.3.7-.3.8-.3.7-.2.7-.3.7-.3.8-.2.7-.3.7h13.5zm25.5 24.4h-15.6l-.3-.7-.2-.7-.3-.7-.3-.8-.2-.7-.3-.7-.3-.7-.2-.7-.3-.7-.3-.7-.2-.7-.3-.8-.3-.7-.2-.7-.3-.7H185l-.3.7-.2.7-.3.7-.3.8-.2.7-.3.7-.3.7-.2.7-.3.7-.3.7-.2.7-.3.8-.3.7-.2.7-.3.7h-16.2l.3-.7.3-.7.3-.7.3-.8.2-.7.3-.7.3-.7.3-.7.3-.7.3-.8.3-.7.3-.7.2-.7.3-.7.3-.7.3-.8.3-.7.3-.7.3-.7.3-.7.2-.7.3-.8.3-.7.3-.7.3-.7.3-.7.3-.7.3-.8.2-.7.3-.7.3-.7.3-.7.3-.7.3-.8.3-.7.3-.7.2-.7.3-.7.3-.7.3-.8.3-.7.3-.7.3-.7.3-.7.2-.7.3-.7.3-.8.3-.7.3-.7.3-.7.3-.7.3-.7.2-.8.3-.7.3-.7.3-.7.3-.7.3-.7.3-.8.3-.7.2-.7.3-.7.3-.7.3-.7.3-.8.3-.7.3-.7.3-.7.2-.7.3-.7.3-.8.3-.7.3-.7.3-.7.3-.7.3-.7.2-.8.3-.7.3-.7.3-.7h14.7l.3.7.3.7.3.7.3.8.2.7.3.7.3.7.3.7.3.7.3.8.3.7.3.7.2.7.3.7.3.7.3.8.3.7.3.7.3.7.3.7.2.7.3.8.3.7.3.7.3.7.3.7.3.7.3.8.2.7.3.7.3.7.3.7.3.7.3.8.3.7.3.7.2.7.3.7.3.7.3.7.3.8.3.7.3.7.3.7.2.7.3.7.3.8.3.7.3.7.3.7.3.7.3.7.2.8.3.7.3.7.3.7.3.7.3.7.3.8.3.7.2.7.3.7.3.7.3.7.3.8.3.7.3.7.3.7.2.7.3.7.3.8.3.7.3.7.3.7.3.7.3.7.2.8.3.7.3.7.3.7zm-71.1-7.5-.7.5-.6.4-.7.5-.6.4-.6.4-.7.4-.6.4-.7.4-.7.4-.7.4-.7.3-.7.4-.8.3-.7.3-.8.3-.7.3-.7.2-.7.2-.7.2-.8.2-.7.2-.8.2-.7.2-.8.2-.8.2-.8.1-.9.1-.8.1-.9.1-.8.1-.9.1h-3.5l-.8-.1-.9-.1-.8-.1-.8-.1-.8-.1-.8-.2-.8-.2-.7-.2-.8-.2-.7-.2-.8-.2-.7-.2-.7-.3-.7-.2-.8-.3-.7-.3-.7-.3-.7-.3-.7-.4-.6-.4-.7-.4-.7-.4-.6-.4-.7-.5-.6-.5-.6-.5-.6-.5-.6-.5-.6-.6-.6-.5-.6-.6-.6-.6-.5-.6-.5-.7-.5-.6-.4-.7-.5-.7-.4-.7-.4-.7-.4-.7-.4-.7-.3-.7-.3-.7-.3-.7-.3-.7-.2-.7-.3-.7-.2-.7-.2-.7-.2-.8-.2-.7-.2-.8-.1-.7-.2-.8-.1-.7-.1-.8-.1-.8-.1-.8v-2.7l.1-.9v-.8l.1-.8.1-.9.2-.8.1-.8.2-.7.2-.8.2-.8.2-.7.2-.8.2-.7.3-.8.3-.7.3-.7.3-.7.3-.7.4-.7.4-.7.4-.7.4-.7.4-.7.5-.7.5-.7.5-.7.5-.6.6-.6.5-.6.6-.6.6-.6.6-.5.7-.6.6-.5.6-.5.7-.4.6-.5.7-.4.6-.4.7-.4.7-.4.7-.4.7-.3.7-.3.8-.4.6-.2.8-.2.7-.3.7-.2.7-.2.8-.2.7-.2.8-.2.8-.1.8-.2.8-.1.8-.1.8-.1.8-.1h3.5l.9.1.9.1h.8l.8.1.9.2.7.1.8.2.8.2.7.2.7.2.7.2.7.2.7.2.6.2.7.2.7.3.7.3.7.3.7.4.7.3.7.4.7.4.6.4.7.4.6.5.6.4.7.5.6.5.7.6.6.5-.5.7-.6.6-.5.7-.6.7-.5.7-.5.6-.6.7-.5.7-.5.6-.6.7-.5.7-.6.7-.5.6-.5.7-.6.7-.5.7-.6.6-.5.7-.7-.5-.6-.6-.7-.4-.6-.5-.6-.4-.7-.4-.6-.4-.7-.4-.7-.3-.6-.3-.7-.2-.7-.2-.7-.2-.7-.2-.8-.2-.8-.2-.8-.1-.9-.1-.9-.1h-1.7l-.8.1-.7.1-.8.2-.7.2-.7.2-.7.2-.7.3-.7.3-.7.4-.6.4-.7.4-.6.5-.6.5-.6.5-.5.6-.6.6-.5.7-.4.6-.4.7-.4.7-.4.7-.3.7-.2.7-.3.7-.2.8-.2.8-.2.7-.2.9-.1.8-.1.8v1.9l.1.8.1.7.1.8.2.7.2.7.2.7.2.7.2.7.3.8.3.7.4.7.4.7.4.7.5.7.5.6.6.6.5.6.6.5.7.5.6.5.6.4.7.4.7.3.7.3.7.3.8.2.8.2.8.2.8.2.8.1.9.1h1.9l.9-.1.9-.1.8-.1.8-.2.8-.2.8-.2.7-.2.7-.3.7-.3.7-.3.6-.3.6-.4v-7.3h-11.6v-12.4h26.4v26.2zm-26.1-186h35.2v-27.2h-35.2V95.3h36.6V68.1h-66.4v196.3h67v-27.2h-37.1zm251.9 5.9v44.3c0 7.9-3.6 11.5-11.2 11.5h-5.6c-7.8 0-11.4-3.6-11.4-11.5v-124c0-7.9 3.6-11.5 11.4-11.5h5c7.5 0 11.2 3.6 11.2 11.5v38.4h29.3v-40.1c0-24.4-11.7-36.2-36-36.2h-14.5c-24.3 0-36.3 12.1-36.3 36.5v126.8c0 24.4 12 36.5 36.3 36.5h14.8c24.3 0 36.3-12.1 36.3-36.5v-45.7zm-103.7 80.4h29.9V68h-29.9zm-43.3-109.1c0 7.9-3.6 11.5-11.2 11.5h-12.3V94.3H224c7.5 0 11.2 3.6 11.2 11.5zM228.7 68h-46.9v196.3h29.9v-71.2h17c24.3 0 36.3-12.1 36.3-36.5v-52.2c0-24.3-12-36.4-36.3-36.4m-57.8 373.9h170.9l-87.3 28.8z" style="fill:#fff"/></svg>