<svg xmlns="http://www.w3.org/2000/svg" xml:space="preserve" viewBox="0 0 512 512"><path d="M235.2 155.3v-49.4c0-7.9-3.6-11.5-11.2-11.5h-12.3v72.4H224c7.6 0 11.2-3.7 11.2-11.5m-44.9 192.5h12.1l-.4-.7-.2-.8-.3-.8-.4-.7-.2-.8-.3-.7-.3-.8-.3-.7-.3-.8-.3-.7-.3-.7-.3-.9-.2-.7-.4-.7-.3-.8-.2-.7-.4-.8-.3-.8-.2-.7-.4-.7-.3-.8-.2-.8-.4-.7-.3.7-.2.8-.3.8-.4.7-.2.7-.3.8-.4.8-.3.7-.2.8-.4.7-.3.7-.2.9-.3.7-.4.7-.2.8-.3.7-.4.8-.3.7-.2.8-.4.7-.3.8-.2.8-.3.7zM436.5 0h-361C46.2 0 35.4 10.8 35.4 40.1v353.3c0 3.3.1 6.4.4 9.2.7 6.4.8 12.6 6.7 19.6.6.7 6.6 5.2 6.6 5.2 3.3 1.6 5.5 2.8 9.2 4.3l177.8 74.5c9.2 4.2 13.1 5.9 19.8 5.7 6.7.1 10.6-1.5 19.8-5.7l177.8-74.5c3.7-1.5 5.9-2.7 9.2-4.3 0 0 6.1-4.5 6.6-5.2 5.9-7.1 6.1-13.2 6.7-19.6.3-2.9.4-5.9.4-9.2V40.1C476.6 10.8 465.8 0 436.5 0m-158 68h29.9v196.3h-29.9zm-13 266.9.4.7.4-.7.4-.7.5-.7.4-.7.4-.6.4-.7.5-.7.4-.7.4-.7.4-.6.5-.7.4-.7.4-.7.4-.7.5-.7.4-.7.4-.7.4-.7.4-.7.5-.7.4-.7.4-.7.4-.7.5-.7.4-.7.4-.7.4-.7.5-.6.4-.7.4-.7.4-.7.5-.6.4-.7.4-.7h16.3v58.2h-15.2v-5.6.2-28.4l-.4.7-.5.7-.4.7-.5.7-.4.7-.5.7-.4.7-.4.7-.5.7-.4.7-.5.7-.4.7-.5.7-.4.7-.4.7-.5.7-.4.7-.5.7-.4.7-.5.7-.4.7-.4.7-.5.7-.4.7-.5.7-.4.7-.5.7-.4.7-.4.7-.5.7-.4.7-.5.7-.4.7-.5.7-.4.7h-.3l-.5-.7-.4-.7-.5-.7-.4-.7-.5-.7-.4-.7-.5-.7-.4-.7-.5-.7-.4-.7-.5-.7-.4-.7-.5-.7-.4-.7-.5-.7-.4-.7-.5-.7-.5-.7-.4-.7-.5-.7-.4-.7-.5-.7-.4-.7-.5-.7-.4-.7-.5-.7-.4-.7-.5-.7-.4-.7-.5-.7-.4-.7-.5-.7-.4-.7-.5-.7v34.2H235v-59.3h16.3l.4.7.4.7.5.6.4.7.4.7.4.7.4.6.5.7.4.7.4.7.4.7.4.7.5.7.4.7.4.7.4.7.5.7.4.7.4.7.4.7.4.7.5.7.4.7.4.7.4.6.4.7.5.7.4.7.4.7.4.6.4.7.5.7zM181.9 68h46.9C253 68 265 80.1 265 104.5v52.2c0 24.4-12 36.5-36.3 36.5h-17v71.2h-29.9zm-81.4 0h66.4v27.2h-36.6v55.5h35.2V178h-35.2v59.2h37.1v27.2h-67V68zM157 337.8v25.1l-.6.5-.7.5-.6.4-.7.5-.6.4-.6.5-.7.4-.5.9-.7.4-.7.4-.7.4-.7.3-.7.4-.8.3-.7.3-1 .5-.7.3-.7.2-.7.2-.9.3-.8.2-.7.2-.8.2-.7.2-.8.2-.8.2-.8.1-.9.1-.8.1-.9.1-.8.1-.9.1h-3.5l-.8-.1-.9-.1-.8-.1-.8-.1-.8-.1-.8-.2-.8-.2-.7-.2-.8-.2-.7-.2-.8-.2-.7-.2-.7-.3-.7-.2-.8-.3-.7-.3-.7-.3-.7-.3-.7-.4-.6-.4-.7-.4-.7-.4-.6-.4-.7-.5-.6-.5-.6-.5-.6-.5-.6-.5-.6-.6-.6-.5-.6-.6-.6-.6-.5-.6-.5-.7-.5-.6-.4-.7-.5-.7-.4-.7-.4-.7-.4-.7-.4-.7-.3-.7-.3-.7-.3-.7-.3-.7-.2-.7-.3-.7-.2-.7-.2-.7-.2-.8-.2-.7-.2-.8-.1-.7-.2-.8-.1-.7-.1-.8-.1-.8-.1-.8V341l.1-.9v-.8l.1-.8.1-.9.2-.8.1-.8.2-.7.2-.8.2-.8.2-.7.2-.8.2-.7.3-.8.3-.7.3-.7.3-.7.3-.7.4-.7.4-.7.4-.7.4-.7.4-.7.5-.7.5-.7.5-.7.5-.6.6-.6.5-.6.6-.6.6-.6.6-.5.7-.6.6-.5.6-.5.7-.4.6-.5.7-.4.6-.4.7-.4.7-.4.7-.4.7-.3.7-.3.8-.4.6-.2.8-.2.7-.3.7-.2.7-.2.8-.2.7-.2.8-.2.8-.1.8-.2.8-.1.8-.1.8-.1.8-.1h3.5l.9.1.9.1h.8l.8.1.9.2.7.1.8.2.8.2.7.2.7.2.7.2.7.2.7.2.6.2.7.2.7.3.7.3.7.3.7.4.7.3.7.4.7.4.6.4.7.4.6.5.6.4.7.5.6.5.7.6.6.5-.5.7-.6.6-.5.7-.6.7-.5.7-.5.6-.6.7-.5.7-.5.6-.6.7-.5.7-.6.7-.5.6-.5.7-.6.7-.5.7-.6.6-.5.7-.7-.5-.6-.6-.7-.4-.6-.5-.6-.4-.7-.4-.6-.4-.7-.4-.7-.3-.6-.3-.7-.2-.7-.2-.7-.2-.7-.2-.8-.2-.8-.2-.8-.1-.9-.1-.9-.1h-1.7l-.8.1-.7.1-.8.2-.7.2-.7.2-.7.2-.7.3-.7.3-.7.4-.6.4-.7.4-.6.5-.6.5-.6.5-.5.6-.6.6-.5.7-.4.6-.4.7-.4.7-.4.7-.3.7-.2.7-.3.7-.2.8-.2.8-.2.7-.2.9-.1.8-.1.8v1.9l.1.8.1.7.1.8.2.7.2.7.2.7.2.7.2.7.3.8.3.7.4.7.4.7.4.7.5.7.5.6.6.6.5.6.6.5.7.5.6.5.6.4.7.4.7.3.7.3.7.3.8.2.8.2.8.2.8.2.8.1.9.1h1.9l.9-.1.9-.1.8-.1.8-.2.8-.2.8-.2.7-.2.7-.3.7-.3.7-.3.6-.3.6-.4v-8.1h-11V337h26.4v.8zm12.6 33.7H163l.3-.7.3-.7.3-.7.3-.8.2-.7.3-.7.3-.7.3-.7.3-.7.3-.8.3-.7.3-.7.2-.7.3-.7.3-.7.3-.8.3-.7.3-.7.3-.7.3-.7.2-.7.3-.8.3-.7.3-.7.3-.7.3-.7.3-.7.3-.8.2-.7.3-.7.3-.7.3-.7.3-.7.3-.8.3-.7.3-.7.2-.7.3-.7.3-.7.3-.8.3-.7.3-.7.3-.7.3-.7.2-.7.3-.7.3-.8.3-.7.3-.7.3-.7.3-.7.3-.7.2-.8.3-.7.3-.7.3-.7.3-.7.3-.7.3-.8.3-.7.2-.7.3-.7.3-.7.3-.7.3-.8.3-.7.3-.7.3-.7.2-.7.3-.7.3-.8.3-.7.3-.7.3-.7.3-.7.3-.7.2-.8.3-.7.3-.7.3-.7h14.7l.3.7.3.7.3.7.3.8.2.7.3.7.3.7.3.7.3.7.3.8.3.7.3.7.2.7.3.7.3.7.3.8.3.7.3.7.3.7.3.7.2.7.3.8.3.7.3.7.3.7.3.7.3.7.3.8.2.7.3.7.3.7.3.7.3.7.3.8.3.7.3.7.2.7.3.7.3.7.3.7.3.8.3.7.3.7.3.7.2.7.3.7.3.8.3.7.3.7.3.7.3.7.3.7.2.8.3.7.3.7.3.7.3.7.3.7.3.8.3.7.2.7.3.7.3.7.3.7.3.8.3.7.3.7.3.7.2.7.3.7.3.8.3.7.3.7.3.7.3.7.3.7.2.8.3.7.3.7.3.7h-1.6 3.9-14.3l-.3-.7-.4-.8-.3-.7-.3-.8-.2-.7-.3-.7-.3-.7-.2-.7-.3-.7-.3-.7-.2-.7-.3-.8-.3-.7-.2-.7-.3-.7h-22.9l-.3.7-.2.7-.3.7-.3.8-.2.7-.3.7-.3.7-.2.7-.3.7-.3.7-.2.7-.3.8-1.4.7-.2.7-.3.7h-9.1zm85 99.1-83.7-28.8h170.9zm101.7-111.7v12.3H309v-59h46.2v13.1h-30.5v9.5h27.8v12.3h-27.9v10H356v1.8zm-32.1-129.3V102.8c0-24.4 12-36.5 36.3-36.5H375c24.3 0 36 11.8 36 36.2v40.1h-29.3v-38.4c0-7.9-3.6-11.5-11.2-11.5h-5c-7.8 0-11.4 3.6-11.4 11.5v124c0 7.9 3.6 11.5 11.4 11.5h5.6c7.5 0 11.2-3.6 11.2-11.5v-44.3h29.3v45.7c0 24.4-12 36.5-36.3 36.5h-14.8c-24.3-.1-36.3-12.1-36.3-36.5m88.2 123.7v1.1l-.1.9-.1.8-.1.9-.2.8-.2.8-.2.7-.2.8-.3.7-.3.7-.3.7-.4.7-.4.7-.5.7-.4.7-.5.6-.6.6-.5.5-.7.6-.6.5-.7.5-.6.4-.6.5-.7.4-.7.3-.7.4-.8.3-.8.3-.8.2-.8.2-.7.2-.8.2-.7.2-.7.2-.8.2-.8.1-.7.1-.8.1-.9.1-.8.1h-3.6l-.8-.1h-.9l-.8-.1-.8-.1-.9-.1-.8-.2-.8-.1-.8-.2-.8-.2-.8-.2-.8-.2-.8-.2-.7-.2-.8-.2-.8-.2-.7-.3-.8-.2-.7-.2-.8-.3-.7-.3-.7-.3-.7-.4-.7-.3-.7-.4-.6-.4-.7-.4-.6-.4-.7-.4-.6-.5-.6-.5-.7-.5-.6-.5-.6-.5-.6-.6.5-.7.6-.6.5-.7.6-.7.5-.6.5-.7.6-.7.5-.6.6-.7.5-.6.6-.7.5-.7.5-.6.6-.7.5-.7.6-.6.5-.7.6.5.7.5.7.5.7.5.7.4.7.5.6.4.7.3.6.4.7.3.7.3.7.3.7.2.7.3.8.2.8.2.7.2.8.2.8.2.8.2.9.1.8.2h.8l.9.1h1.8l.9-.1.8-.2.7-.2.7-.2.7-.2.6-.3.7-.5.5-.6.3-.7.2-.7.1-.8v-.2l-.1-1-.3-.8-.4-.6-.6-.5-.7-.5-.6-.3-.7-.3-.8-.3-1-.4-.6-.2-.6-.2-.7-.2-.7-.2-.8-.2-.8-.2-.9-.2-.8-.2-.9-.2-.8-.2-.8-.2-.8-.2-.8-.2-.7-.2-.8-.2-.7-.2-.7-.2-.7-.2-.9-.3-.8-.3-.8-.3-.8-.3-.7-.4-.8-.4-.7-.4-.7-.4-.6-.5-.7-.4-.6-.5-.6-.6-.6-.6-.5-.6-.5-.6-.4-.6-.4-.7-.4-.7-.3-.6-.2-.7-.2-.7-.2-.7-.2-.8-.2-.7-.1-.8-.1-.8-.1-.9v-.9.4-.8l.1-.8.1-.7.1-.8.2-.7.2-.7.2-.7.2-.7.3-.7.3-.7.3-.7.4-.7.4-.7.5-.7.5-.7.6-.7.6-.6.6-.7.7-.6.6-.4.7-.5.6-.5.6-.4.7-.4.7-.3.7-.4.7-.3.8-.2.8-.3.7-.2.6-.2.7-.2.7-.2.8-.2.7-.2.8-.1.8-.1.8-.1.8-.1h3.5l.9.1.9.1h.8l.9.1.8.2.9.1.8.2.7.2.8.2.8.2.7.2.8.2.7.2.7.2.8.3.7.2.7.3.7.3.8.3.7.4.6.3.7.4.7.4.6.4.7.5.6.4.7.5.6.5.6.5-.5.7-.4.7-.5.7-.5.7-.5.7-.4.3-.5.7-.5.7-.4.7-.5.7-.5.7-.4.7-.5.7-.5.7-.5.7-.4.7-.5.7-.7-.5-.7-.4-.6-.4-.7-.5-.7-.3-.7-.4-.7-.3-.6-.3-.7-.3-.6-.3-.7-.2-.7-.3-.9-.2-.8-.2-.8-.2-.8-.2-.8-.2-.8-.2-.8-.1-.8-.1-.7-.1h-1.8l-.9.2-.8.2-.7.2-.6.3-.6.3-.7.7-.5.7-.3.7-.1.8v.2l.1 1.1.4.9.3.5.6.6.7.4.6.4.8.3.9.3 1 .3.6.2.6.2.7.2.7.2.8.2.9.2.9.2.9.2.9.2.8.2.9.2.8.2.8.2.8.2.7.2.8.2.7.2.7.2.9.3.8.4.8.3.8.4.7.4.7.4.6.4.7.5.6.4.6.6.7.6.6.7.6.6.5.7.5.7.4.7.4.7.3.7.2.7.2.7.2.7.2.8.2.8.1.8.1.9z" style="fill-rule:evenodd;clip-rule:evenodd;fill:#fff"/></svg>