<svg xmlns="http://www.w3.org/2000/svg" xml:space="preserve" viewBox="0 0 512 512"><path d="M427.8 289.3c1.6 22.6-3.3 45.4-14.1 65.3-8.1 14.8-20.5 28.4-33.9 38.5-2.5 1.9-4.9 3.7-7.5 5.5-1.7 1.2-5.2 3.2-6.4 4.5-14.4 8.5-32.5 17.7-48.4 23.3-51.2 16.8-109.4 23-160.6 1.7-19.3-8.1-37.9-22.8-45.5-42.8-5.3-14.3-4.9-30.1 1.2-44.1 1.2 1.4.5 4.5.8 6.5.2 1.6.6 3.1 1.1 4.6 5 13.3 26.4 22.4 39.4 26.3 1.2.3 2.3.7 3.5.5.6-.5.4-.3.8-.9l.3-.1c3 3 12.4 4.9 16.7 5.5 40.8 7.4 79.4.3 118.6-11 4.5-1.2 13.2-4.1 17.9-6.1 37.6-15.8 83.3-38.6 103.8-75.4 2.8-5 5.6-14.1 6.7-19.6.4-2.1-.1-5.6.6-7.3 1.3 1.5.3 2.5 2 4 1.8 6.7 2.5 14.2 3 21.1m28-159.6c-1.9-12.2-4-24.4-6-36.6l-8.7-53.2-3.7-22.6c-.8-4.6-1.4-9-2.7-13.6-.8-2.7-4.8-4.4-6.9-3.3-5.4 2.9-10.5 7.1-15.5 10.7l-24 17.6L351 56.2c-8.6 6.2-17.1 12.4-25.6 18.7-3.6 2.7-3.9 7.5.1 10 3.1 1.6 6.6 3 9.9 4.1 8.6 3 17.6 7.2 26.2 9.8-2.6 6.7-5.1 13.5-8.3 19.9-8.3 17-21 34.8-35 47.6-16.1 14.1-31.2 24.5-50.7 33.8-2.9 1.4-8.7 4.5-11.7 5.3-37.5 14.7-77.6 21.8-117.9 18.7-9.6-.7-21.6-2.5-30.7-5.5-1.9.1-6.6-1.9-8.6-2.7C87 211.6 74 205.2 67.5 194c-1.8-3-1.6-9.2-2.1-12.5l-.6-.6c-8.6 13.4-10.5 30.9-7.5 46.3 3.1 15.8 14.6 29.3 28.3 37.6 42.9 26.1 108.7 24.5 155.6 13.7 27.8-6.2 54.5-16.3 79.4-30.2 3.9-2.2 12.5-7.2 15.8-9.8 16.4-11.5 30.3-23.4 43.6-38.2 15.9-16.4 30-41.3 38.3-62.5 1.4-3.7 3.3-8.4 4.3-12.1 3.7 2 8.6 3.6 12.5 5.2 4 1.7 8.2 3.4 12.3 4.6 3.8 1.2 9.3-1.3 8.4-5.8" style="fill:#fff"/><path d="M64.9 181.1c2.1-3.6 6.5-8.5 9.7-11.2 36.2-29.6 99.6-30.3 143.1-27.5l15.7 1.6c24.5 3 48.6 8.7 71.8 17.2 3.2 1.2 10.2 3.7 13.1 5.2-16.1 14.1-31.2 24.5-50.7 33.8-2.9 1.4-8.7 4.5-11.7 5.3-22.3-5.9-44.9-10.1-68.1-10.1-23.8 0-50.1 1.2-71.6 12.4-4 2.1-8.7 6.1-8.9 10.9-1.9.1-6.6-1.9-8.6-2.7-11.7-4.3-24.7-10.7-31.2-21.9-1.8-3-1.6-9.2-2.1-12.5 0-.1-.3-.3-.5-.5m271.6 57.5c16.4-11.5 30.3-23.4 43.6-38.2 21.1 17.2 38.4 41 44.5 67.9-1.7-1.5-.7-2.5-2-4-.7 1.7-.2 5.2-.6 7.3-1.1 5.5-3.9 14.6-6.7 19.6-20.5 36.8-66.3 59.6-103.8 75.4-4.7 2-13.4 4.9-17.9 6.1-25.2-19.5-68-24.4-98.9-20.6-12 1.4-29.5 6-37.8 15.4-3.1 3.5-2 7.8 1.2 10.8-.4.6-.2.4-.8.9-1.2.2-2.4-.2-3.5-.5-13-3.9-34.4-13.1-39.4-26.3-.6-1.5-.9-3-1.1-4.6-.3-2.1.4-5.1-.8-6.5 1.8-4 5.2-8.8 8.3-11.9 23.1-22.3 60.8-27.4 91.2-27.9 45.4-.8 99.1 14.2 131.9 46.9 7.2-6.1 12.9-10.7 19-18.3 9-11.3 13.8-22.8 12.2-37.4-2-18.3-14.2-33.5-27.6-45.2-3.5-3.2-7.4-6-11-8.9m-19.1 187.8c15.9-5.5 34-14.8 48.4-23.3-.4 27-11.5 52.8-30.7 71.7-26.6 25.8-68.1 37.4-104.4 37.2-9.4-.1-28.6-.7-34.4-7.8-10.7-13.1-2.4-30.1 15.7-26.9 33.9 6 100.7-10.9 105.4-50.9" style="opacity:.7;fill:#fff"/></svg>