<svg xmlns="http://www.w3.org/2000/svg" xml:space="preserve" viewBox="0 0 512 512"><linearGradient id="espconnect_svg__a" x1="-703.737" x2="-703.263" y1="796" y2="796" gradientTransform="matrix(0 1080 1080 0 -859424 760036)" gradientUnits="userSpaceOnUse"><stop offset="0" style="stop-color:#248cff"/><stop offset="1" style="stop-color:#0a4bbe"/></linearGradient><path d="M79 0h354c43.6 0 79 35.4 79 79v354c0 43.6-35.4 79-79 79H79c-43.6 0-79-35.4-79-79V79C0 35.4 35.4 0 79 0" style="fill:url(#espconnect_svg__a)"/><path d="M296.4 103.7h-15.9v64.1h103.7v40H280.5v155.3c20.4 6.8 35.1 26 35.1 48.7 0 28.3-22.9 51.2-51.2 51.2s-51.2-22.9-51.2-51.2c0-22.7 14.7-41.9 35.1-48.7V256h-88.2v23.7H88.2v-80h71.9v24.1h88.2v-120h-15.9V55.5h64.1v48.2zM463.8 188c0 19.7-16 35.7-35.7 35.7s-35.7-16-35.7-35.7 16-35.7 35.7-35.7 35.7 16 35.7 35.7"/><path d="M288.3 95.9h-15.9V160H376v40H272.3v155.3c20.4 6.8 35.1 26 35.1 48.7 0 28.3-22.9 51.2-51.2 51.2S205 432.3 205 404c0-22.7 14.7-41.9 35.1-48.7V248.2h-88.2v23.7H80v-80h71.9V216h88.2V96h-15.9V47.8h64.1zm167.4 84.4c0 19.7-16 35.7-35.7 35.7s-35.7-16-35.7-35.7 16-35.7 35.7-35.7c19.7-.1 35.7 15.9 35.7 35.7" style="fill:#fff"/></svg>