<svg xmlns="http://www.w3.org/2000/svg" xml:space="preserve" viewBox="0 0 512 512"><path d="M433 0H79C35.4 0 0 35.4 0 79v354c0 43.6 35.4 79 79 79h354c43.6 0 79-35.4 79-79V79c0-43.6-35.4-79-79-79m-4.9 223.7c-11.6 0-21.8-5.5-28.4-14-9.4-6.4-15.5-17.2-15.5-29.5v27.6H280.5v151.1c5.7 3.1 10.7 7.2 14.9 12.1 12.3 9.4 20.2 24.1 20.2 40.8 0 28.3-22.9 51.2-51.2 51.2-15.7 0-29.7-7.1-39.1-18.2C213 435.4 205 420.6 205 404c0-22.7 14.7-41.9 35.1-48.7V256h-80v23.7H88.2v-7.8H80v-80h71.9v7.8h8.2V216h80V103.7h-7.8v-7.8h-8.2V47.8h64.1v7.8h8.2v48.2h-15.9v56.3H376v7.8h8.2v12.5c0-19.7 16-35.7 35.7-35.7 11.6 0 21.8 5.5 28.4 14 9.4 6.4 15.5 17.2 15.5 29.5 0 19.6-16 35.5-35.7 35.5"/><path d="M240.1 256h-80v23.7H88.2v-7.8h63.7v-23.7h88.2zm-88.2-40h8.2v-16.3h-8.2zm88.2-120.1h-7.8v7.8h7.8zm48.2 0h-15.9V160h8.2v-56.3h15.9V55.5h-8.2zm7.1 275.1c7.5 8.9 12.1 20.4 12.1 33 0 28.3-22.9 51.2-51.2 51.2-11.6 0-22.4-3.9-31-10.4 9.4 11.1 23.4 18.2 39.1 18.2 28.3 0 51.2-22.9 51.2-51.2 0-16.7-7.9-31.5-20.2-40.8m152.9-212.4c4.6 6 7.4 13.5 7.4 21.7 0 19.7-16 35.7-35.7 35.7-7.5 0-14.5-2.3-20.2-6.3 6.5 8.5 16.8 14 28.4 14 19.7 0 35.7-16 35.7-35.7-.1-12.2-6.2-23-15.6-29.4m-72.3 9.2v32.3H272.3v155.3c2.8.9 5.6 2.1 8.2 3.5V207.8h103.7v-40z" style="opacity:.6"/></svg>