<?xml version="1.0" encoding="utf-8"?>
<!-- Generator: Adobe Illustrator 28.2.0, SVG Export Plug-In . SVG Version: 6.00 Build 0)  -->
<svg version="1.1" id="Layer_1" xmlns="http://www.w3.org/2000/svg" xmlns:xlink="http://www.w3.org/1999/xlink" x="0px" y="0px"
	 viewBox="0 0 512 512" style="enable-background:new 0 0 512 512;" xml:space="preserve">
<style type="text/css">
	.st0{fill:#FFFFFF;}
</style>
<path class="st0" d="M489.4,226.7L278.6,16c-12.4-12.4-32.8-12.4-45.2,0L22.6,226.7C10.2,239.2,0,263.8,0,281.4v192
	c0,17.6,14.4,32,32,32h125.8V186.8c0-7.1,5.7-12.8,12.8-12.8h170.7c7.1,0,12.8,5.7,12.8,12.8V238c0,7.1-5.7,12.8-12.8,12.8H234.6
	v25.6h106.7c7.1,0,12.8,5.7,12.8,12.8v51.2c0,7.1-5.7,12.8-12.8,12.8H234.6v25.6h106.7c7.1,0,12.8,5.7,12.8,12.8v51.2
	c0,7.1-5.7,12.8-12.8,12.8H221.8c-7.1,0-12.8-5.7-12.8-12.8c0-7.1,5.7-12.8,12.8-12.8h106.7v-25.6H221.8c-7.1,0-12.8-5.7-12.8-12.8
	v-51.2c0-7.1,5.7-12.8,12.8-12.8h106.7V302H221.8c-7.1,0-12.8-5.7-12.8-12.8V238c0-7.1,5.7-12.8,12.8-12.8h106.7v-25.6H183.4v305.8
	H480c17.6,0,32-14.4,32-32v-192C512,263.8,501.8,239.2,489.4,226.7z"/>
</svg>
