<svg xmlns="http://www.w3.org/2000/svg" xml:space="preserve" viewBox="0 0 512 512"><path d="M512 473.4c0 17.6-14.4 32-32 32H32c-17.6 0-32-14.4-32-32v-192c0-17.6 10.2-42.2 22.6-54.6L233.4 16c12.4-12.4 32.8-12.4 45.2 0l210.8 210.8c12.4 12.4 22.6 37 22.6 54.6z" style="fill:#18bcf2"/><path d="M341.3 174H170.6c-7.1 0-12.8 5.7-12.8 12.8v318.6h25.6V199.6h145.1v25.6H221.8c-7.1 0-12.8 5.7-12.8 12.8v51.2c0 7.1 5.7 12.8 12.8 12.8h106.7v25.6H221.8c-7.1 0-12.8 5.7-12.8 12.8v51.2c0 7.1 5.7 12.8 12.8 12.8h106.7V430H221.8c-7.1 0-12.8 5.7-12.8 12.8s5.7 12.8 12.8 12.8h119.5c7.1 0 12.8-5.7 12.8-12.8v-51.2c0-7.1-5.7-12.8-12.8-12.8H234.6v-25.6h106.7c7.1 0 12.8-5.7 12.8-12.8v-51.2c0-7.1-5.7-12.8-12.8-12.8H234.6v-25.6h106.7c7.1 0 12.8-5.7 12.8-12.8v-51.2c0-7.1-5.7-12.8-12.8-12.8" style="fill:#f2f4f9"/></svg>