<svg xmlns="http://www.w3.org/2000/svg" xml:space="preserve" viewBox="0 0 512 512"><path d="M81.7 57.8V22.6H46.5v35.2zm383.8 0V22.6h-35.2v35.2zM430.3 61v92.7l-61.7-30.9V61h-17.4v2c-78.5-79.5-103.5-88.2-190.6 0v-2h-17.4v61.8l-61.7 30.8V61h-35v415.9c38.4 0 38.4 0 38.4 35.2h342.3c0-35.2 0-35.2 38.4-35.2V61zm-103.6 1.9H185.4c63.5-62.1 81.9-58.7 141.3 0m-166 70.6v-20.1h190.6v20.1l59.6 29.8H101.1zM92.5 307H301v48.5H92.5zm296.6 135.8H92.5v-47.1h296.6zm33.6-178.3H92.5v-48.7h330.2zm7.6-101.2" style="fill:#fff"/></svg>