<svg xmlns="http://www.w3.org/2000/svg" xml:space="preserve" viewBox="0 0 512 512"><linearGradient id="etherpad_svg__a" x1="-700.179" x2="-700.179" y1="796.513" y2="794.059" gradientTransform="matrix(340 0 0 -340 238317 270541.5)" gradientUnits="userSpaceOnUse"><stop offset="0" style="stop-color:#65d09b"/><stop offset="1" style="stop-color:#4db38e"/></linearGradient><path d="M105.4 0h301.2C464.8 0 512 47.2 512 105.4v301.2c0 58.2-47.2 105.4-105.4 105.4H105.4C47.2 512 0 464.8 0 406.6V105.4C0 47.2 47.2 0 105.4 0" style="fill-rule:evenodd;clip-rule:evenodd;fill:url(#etherpad_svg__a)"/><path d="M357.8 208c-4.3-4.3-11.4-4.3-15.7 0s-4.3 11.4 0 15.7c11.7 11.7 18.2 27.1 18.2 43.6 0 16.4-6.4 31.9-18.2 43.6-4.3 4.3-4.3 11.4 0 15.7 2.2 2.2 5 3.3 7.9 3.3 2.8 0 5.7-1.1 7.9-3.3 15.9-15.9 24.7-36.9 24.7-59.2-.1-22.4-8.9-43.5-24.8-59.4m44.8-37.6c-4.3-4.3-11.1-4.3-15.4 0s-4.3 11.4 0 15.7c43 43.9 43 115.4 0 159.4-4.3 4.3-4.3 11.4 0 15.7 2.1 2.2 4.9 3.3 7.7 3.3s5.6-1.1 7.7-3.3c51.5-52.6 51.5-138.2 0-190.8" style="opacity:.7541;fill-opacity:.2005"/><path d="M83.6 251.5h212.3c11.2 0 20.3 9.1 20.3 20.3s-9.1 20.3-20.3 20.3H83.6c-11.2 0-20.3-9.1-20.3-20.3-.1-11.2 9-20.3 20.3-20.3m-3-85.9h176.2c10.4 0 18.8 8.4 18.8 18.8s-8.4 18.8-18.8 18.8H80.6c-10.4 0-18.8-8.4-18.8-18.8-.1-10.3 8.4-18.8 18.8-18.8m0 174.7H201c10.4 0 18.8 8.4 18.8 18.8s-8.4 18.8-18.8 18.8H80.6c-10.4 0-18.8-8.4-18.8-18.8-.1-10.3 8.4-18.8 18.8-18.8" style="fill-rule:evenodd;clip-rule:evenodd;fill:#fff"/></svg>