<svg xmlns="http://www.w3.org/2000/svg" xml:space="preserve" viewBox="0 0 512 512"><path d="M70.6 422.8c-39.8-44.2-64-102.7-64-166.8C6.6 144.8 79.4 50.6 180 18.4c-1 2.2-1.8 4.7-2.7 7.4zM340 486.9c-.2.6-.3 1.1-.5 1.6.2-.5.3-1 .5-1.6M444.5 92.7c-3.4.8-7.2 1.1-11.4 1.1h-140L264 202.9h112.1c6.3 0 14.2 0 18.4 5.7 3.9 5.3 2.2 12.5.6 17.5l-12.8 48c-4.7 18.9-15.1 20.4-28.2 20.4H239.4l-32.8 122H345c6.9 0 13.8.7 17.8 6 4.3 5.6 2.8 13.6 1.3 19.1L352.3 486c90-37.7 153.2-126.5 153.2-230.1-.1-62.3-23.1-119.4-61-163.2M339.2 489.6c0-.1.1-.2.1-.3-.1.1-.1.2-.1.3m113-421.4L465 19.9c1.6-5.6.7-7 .7-7-.9-1.2-8.3-1.2-10.7-1.2H209.2c-13.6.9-16.5 4.3-20.8 17.4L64.5 490.5c-1.8 6.5-.7 8.1-.6 8.3.8 1 4.2 1.6 10 1.6h248c12.1 0 15-2.1 18-13.4l12.9-48.3c2-7.1.8-8.8.7-9-.3-.4-1.8-1.4-8.5-1.4H191.4L230.5 283h123.6c11.1 0 14.1-.5 16.9-11.7l12.9-48.4c1.9-5.9 1.2-7.4 1.2-7.4-1-.9-6.8-.9-8.9-.9H248.9l35.3-132.4h148.9c11.1-.1 15.7-1.3 19.1-14" style="fill:#fff"/></svg>