<svg xmlns="http://www.w3.org/2000/svg" xml:space="preserve" viewBox="0 0 512 512"><path d="M244.3 0h134.1c.5.2 1 .5 1.6.6 4.4 1.1 7.7 3.6 9.4 7.8.5 1.1.7 2.4 1.1 3.6v3.8c-.1.5-.1 1-.3 1.5-1.2 2.8-2.3 5.6-3.6 8.3-9.7 19.6-19.5 39.1-29.3 58.7L312 174.9c-.2.4-.3.8-.5 1.4h63.3c2.1 0 4.2.1 6.2.7 5.2 1.6 8.8 5.6 9.5 11.5v3.5c-.6 1.8-1.1 3.6-1.9 5.3-1.1 2.4-2.4 4.7-3.7 7.1-2.1 4-4.2 8-6.4 12-2.8 5.3-5.7 10.5-8.5 15.8-2.1 4-4.2 8-6.4 12-2 3.8-4.1 7.6-6.2 11.5-2 3.8-4 7.6-6.1 11.4-2.9 5.3-5.8 10.6-8.6 15.9-2.5 4.6-4.9 9.2-7.3 13.8-3 5.6-5.9 11.1-8.9 16.7-.9 1.7-1.9 3.5-2.8 5.2-2 3.7-4.1 7.4-6.1 11.1-2.1 3.9-4.1 7.8-6.2 11.7-2 3.8-4.1 7.6-6.2 11.4-2.1 4-4.2 8-6.4 12-2.8 5.3-5.7 10.5-8.5 15.8-2.2 4-4.3 8.1-6.4 12.1-2 3.8-4.1 7.6-6.2 11.5-2.1 4-4.2 8-6.4 12-2.8 5.1-5.5 10.2-8.3 15.3-2.2 4.1-4.3 8.2-6.5 12.3-2.1 3.9-4.2 7.7-6.3 11.6-2 3.8-4 7.6-6.1 11.3-2.9 5.3-5.8 10.6-8.6 15.9-2.3 4.3-4.5 8.6-6.8 12.8-1.5 2.8-3.2 5.6-4.6 8.4-2.1 4-5.2 6.7-9.6 7.8-4.1 1-7.9.2-11.3-2.5-1.6-1.3-2.8-2.9-3.9-4.7-1.6-2.7-1.6-5.7-1.4-8.6.2-3.5 1-7 1.6-10.5l.6-3.6c.3-1.6.5-3.2.7-4.8.3-2 .4-4 .7-6 .4-2.8.9-5.5 1.4-8.2.2-1.1.3-2.2.4-3.3.4-2.4.8-4.8 1.2-7.3.3-1.9.6-3.8.9-5.6.1-.4.1-.9.2-1.3.2-1.2.3-2.4.5-3.6l.9-5.4c.3-1.9.4-3.8.7-5.7.4-2.5 1-5 1.3-7.6.4-2.8.7-5.6 1.1-8.3.1-.9.3-1.9.4-2.8.3-1.7.7-3.5 1-5.2.3-1.8.5-3.7.7-5.5.3-1.9.6-3.8.9-5.8.3-1.9.4-3.8.7-5.7s.8-3.7 1-5.6c.4-2.5.7-5.1 1-7.7.1-1 .4-2 .5-3 .3-1.7.6-3.4.8-5.1.3-1.9.4-3.9.7-5.8.3-2.1.7-4.3 1-6.4.3-1.7.5-3.4.8-5.1s.7-3.4.9-5.1c.3-2 .4-4 .7-6 .4-2.6.9-5.3 1.4-7.9.3-1.7.5-3.3.7-5 .2-1.3.5-2.7.6-4 .3-1.9.4-3.9.7-5.8.3-2 .7-4 1-5.9.3-1.8.5-3.5.8-5.3l.9-5.4c.3-2 .7-3.9 1-5.9.1-.7.2-1.5.3-2.2-.3-.1-.4-.1-.5-.1h-91.9c-2.8 0-5.5-.2-8-1.7-3-1.8-5.3-4.1-6.4-7.3-1.3-3.5-1-7.2.4-10.6 2.2-5.5 4.5-10.9 6.8-16.4 1.5-3.6 3-7.1 4.5-10.6 1.4-3.2 2.7-6.5 4-9.7l3.6-8.7c1.3-3.1 2.5-6.2 3.8-9.3l4.2-9.9c2.1-5 4.1-9.9 6.2-14.9 1.6-3.8 3.2-7.6 4.7-11.4a756 756 0 0 0 5.5-13.4c1-2.4 2-4.8 3.1-7.3.9-2.3 1.9-4.5 2.8-6.8 1.4-3.3 2.8-6.6 4.1-9.9 1.5-3.5 2.9-7.1 4.3-10.6 1.6-3.8 3.2-7.6 4.8-11.3 1.9-4.6 3.8-9.1 5.7-13.7 1-2.4 2-4.7 3-7.1 1.5-3.7 3-7.3 4.5-11 1.4-3.3 2.8-6.6 4.1-9.9.9-2.1 1.7-4.2 2.6-6.4l4.2-9.9c2.1-5 4.1-10.1 6.2-15.1 1.6-3.7 3.1-7.5 4.7-11.2 1.9-4.5 3.7-8.9 5.6-13.4 1.2-3 2.4-5.9 3.7-8.9 1.3-2.9 2.5-5.7 3.9-8.5 2-3.9 5.4-6.1 9.8-6.7 1.1-.1 1.7.1 1.7-.8" style="fill:#0fde41"/></svg>