<svg xmlns="http://www.w3.org/2000/svg" xml:space="preserve" viewBox="0 0 512 512"><path d="M15.4 8.3C7.6 8.1 1.1 14.2.9 22c-.1 3.3 1 6.6 3.1 9.2l40.5 52.5c-1.4 3.7-2.3 7.8-2.3 12v78.7c0 18.7 15.1 33.8 33.8 33.8h360.1c18.7 0 33.8-15.1 33.8-33.8V95.7c0-4.3-.9-8.3-2.3-12.1L508 31.2c4.8-6.1 3.8-14.9-2.2-19.8-2.7-2.2-6.1-3.2-9.6-3-4.1.2-8 2.3-10.5 5.6l-38.6 50c-3.5-1.2-7.2-2-11.1-2H76c-3.9 0-7.6.8-11.1 2L26.3 14c-2.6-3.5-6.6-5.6-10.9-5.7M76 219.4c-2.3 0-4.6.2-6.8.7-15.4 3.1-26.9 16.5-26.9 32.7v225.4c0 18.7 15.1 33.8 33.8 33.8h360.1c18.7 0 33.8-15.1 33.8-33.8V252.9c0-16.2-11.5-29.6-26.9-32.7-2.2-.4-4.5-.7-6.8-.7z" style="fill-rule:evenodd;clip-rule:evenodd;fill:#263238;fill-opacity:.4"/><path d="M507.8 5.2c1.4 1.7 6.3 9.1.3 17.5l-47.8 61.9c-11.5 14.8-12.9-6.9-12.9-6.9s41.9-50.8 60.4-72.5M4.2 5.2c-1.4 1.7-6.3 9-.2 17.5l47.8 61.9c11.5 14.8 12.9-6.9 12.9-6.9S22.7 26.9 4.2 5.2" style="fill-rule:evenodd;clip-rule:evenodd;fill:#263238;fill-opacity:.2"/><path d="M449.1 90c-3 0-6-1-8.6-2.9-6.1-4.8-7.3-13.6-2.5-19.7l47.8-61.9c4.8-6.1 13.6-7.3 19.7-2.5s7.3 13.6 2.5 19.7l-47.8 61.9c-2.7 3.6-6.9 5.4-11.1 5.4M71.5 87.1c6.1-4.8 7.3-13.6 2.5-19.7L26.2 5.5C21.5-.6 12.6-1.8 6.5 3 .3 7.7-.8 16.6 4 22.7l47.8 61.9c2.8 3.6 6.9 5.5 11.1 5.5 3-.1 6-1 8.6-3" style="fill:#769616"/><path d="M496.7 0c5.1.1 8.6 2.1 11 5-22.8 27.1-26.6 31.4-57.8 70-11.5 14.8-23.4 7.2-12-7.7l47.8-61.9c2.7-3.3 6.7-5.3 11-5.4M15.3 0c-5.1.1-8.6 2.1-11 5 22.8 27.1 26.6 31.4 57.8 70 11.5 14.8 23.4 7.2 12-7.7L26.2 5.5C23.6 2.1 19.6.1 15.3 0" style="fill-rule:evenodd;clip-rule:evenodd;fill:#a8bc6a"/><path d="M499.7 2.6c4.9 0 10.8 1.6 9.3 9-1.2 5.6-52.4 68.3-52.4 68.3-11.5 14.8-28.1 7.6-16.6-7.2l47.6-61.6c3-3.2 6.9-8.3 12.1-8.5m-487.4 0c-4.9 0-10.8 1.6-9.3 9C4.1 17.3 55.4 80 55.4 80c11.5 14.8 28.1 7.6 16.6-7.2L24.4 11.2c-3-3.3-6.9-8.4-12.1-8.6" style="fill-rule:evenodd;clip-rule:evenodd;fill:#8ab000"/><path d="M436 188.5H76c-18.6 0-33.8-12.8-33.8-28.6v6.1c0 18.6 15.1 33.8 33.8 33.8h360c18.6 0 33.8-15.1 33.8-33.8v-6.1c0 15.8-15.1 28.6-33.8 28.6" style="fill:#98c816"/><path d="M436 53.5H76c-18.6 0-33.8 15.1-33.8 33.8v6.1c0-15.8 15.1-28.6 33.8-28.6h360c18.6 0 33.8 12.8 33.8 28.6v-6.1c0-18.7-15.1-33.8-33.8-33.8" style="fill:#c9f156"/><path d="M76 64.7h360c18.6 0 33.8 12.8 33.8 28.6v66.6c0 15.8-15.1 28.6-33.8 28.6H76c-18.6 0-33.8-12.8-33.8-28.6V93.3c0-15.8 15.1-28.6 33.8-28.6" style="fill:#b2eb0c"/><path d="M436 492.3H76c-18.6 0-33.8-14-33.8-31.2v8.7c0 18.6 15.1 33.8 33.8 33.8h360c18.6 0 33.8-15.1 33.8-33.8v-8.7c0 17.3-15.1 31.2-33.8 31.2" style="fill:#1c68b3"/><path d="M436 211H76c-18.6 0-33.8 15.1-33.8 33.8v8.7c0-17.2 15.1-31.2 33.8-31.2h360c18.6 0 33.8 14 33.8 31.2v-8.7c0-18.7-15.1-33.8-33.8-33.8" style="fill:#4d94dc"/><path d="M76 222.3h360c18.6 0 33.8 14 33.8 31.2v207.7c0 17.2-15.1 31.2-33.8 31.2H76c-18.6 0-33.8-14-33.8-31.2V253.4c0-17.2 15.1-31.1 33.8-31.1" style="fill:#227bd4"/><path d="M256 287c-32.4 0-59.9 22.3-67.9 52.3h36.2c6.2-11.1 17.9-18.6 31.7-18.6 20.4 0 36.6 16.2 36.6 36.6s-16.2 36.6-36.6 36.6c-14.7 0-27.1-8.5-33-20.8h-35.5c7.2 31.1 35.2 54.6 68.5 54.6 38.6 0 70.3-31.7 70.3-70.3S294.6 287 256 287m0 188.4c-65.1 0-118.1-53-118.1-118.1s53-118.1 118.1-118.1 118.1 53 118.1 118.1-53 118.1-118.1 118.1m0-214.9c-53.4 0-96.8 43.4-96.8 96.8S202.6 454 256 454s96.8-43.4 96.8-96.8-43.4-96.7-96.8-96.7" style="fill:#0d47a1"/><path d="M185.7 128c0 1-.2 2-.3 3-1.4-19.7-17.6-35.4-37.7-35.4S111.4 111.3 110 131c-.1-1-.3-2-.3-3 0-24.1 17-43.6 38-43.6s38 19.5 38 43.6m181.4-32.3c20.1 0 36.3 15.6 37.7 35.4.1-1 .3-2 .3-3 0-24.1-17-43.6-38-43.6s-38 19.5-38 43.6c0 1 .2 2 .3 3 1.4-19.8 17.6-35.4 37.7-35.4" style="fill:#263238;fill-opacity:.2"/><path d="M147.7 95.7c21 0 38 17 38 38s-17 38-38 38-38-17-38-38 17-38 38-38m219.4 0c21 0 38 17 38 38s-17 38-38 38-38-17-38-38 17-38 38-38" style="fill:#fff"/></svg>