<svg xmlns="http://www.w3.org/2000/svg" xml:space="preserve" viewBox="0 0 512 512"><linearGradient id="facebook_svg__a" x1="-367.025" x2="-367.025" y1="388.16" y2="400.586" gradientTransform="matrix(40 0 0 -39.7778 14937.001 15934.334)" gradientUnits="userSpaceOnUse"><stop offset="0" style="stop-color:#0062e0"/><stop offset="1" style="stop-color:#19afff"/></linearGradient><path d="M213.8 509.4C92.2 487.7 0 382.7 0 256 0 115.2 115.2 0 256 0s256 115.2 256 256c0 126.7-92.2 231.7-213.8 253.4l-14.1-11.5h-56.3z" style="fill:url(#facebook_svg__a)"/><path d="m355.8 327.7 11.5-71.7h-67.8v-49.9c0-20.5 7.7-35.8 38.4-35.8h33.3V105c-17.9-2.6-38.4-5.1-56.3-5.1-58.9 0-99.8 35.8-99.8 99.8V256h-64v71.7h64v180.5c14.1 2.6 28.2 3.8 42.2 3.8 14.1 0 28.2-1.3 42.2-3.8V327.7z" style="fill:#fff"/></svg>