<svg xmlns="http://www.w3.org/2000/svg" xml:space="preserve" viewBox="0 0 512 512"><path d="M378.7 0H133.3C59.7 0 0 59.7 0 133.3v245.3C0 452.3 59.7 512 133.3 512h245.3c73.6 0 133.3-59.7 133.3-133.3V133.3C512 59.7 452.3 0 378.7 0m42 162.8-9.5 47.2c-.4 1.6-1.8 2.8-3.4 2.8h-.2c-1.5-.1-2.7-1.4-2.6-2.9.7-34.6-24.3-59.7-59.5-59.7H218c-10.2.4-18.9 7.7-21.2 17.6L185.9 222h111.8c17.6-.5 34.5 6.9 46.1 20.1 11.2 13.8 15.7 31.9 12.4 49.4-.2 1.3-1.1 2.4-2.4 2.8-1.2.4-2.5.1-3.3-.8-6.3-7.5-15.8-11.7-25.6-11.4H173.8l-13.1 65.1c-6.5 32.1 9.5 60.2 38.9 68.4 1.5.4 2.3 2 1.9 3.4-.4 1.6-1.8 2.7-3.4 2.7h-48.8c-18.1.5-35.4-7.3-46.9-21.2-11.2-14.6-15.3-33.5-11.1-51.4l37.6-187c8-39.7 46.8-72 86.5-72h147.3c18.1-.6 35.4 7.2 47 21.2 11.2 14.7 15.2 33.5 11 51.5" style="fill:#fff"/></svg>