<?xml version="1.0" encoding="utf-8"?>
<!-- Generator: Adobe Illustrator 28.2.0, SVG Export Plug-In . SVG Version: 6.00 Build 0)  -->
<svg version="1.1"
	 id="svg1" xmlns:dc="http://purl.org/dc/elements/1.1/" xmlns:rdf="http://www.w3.org/1999/02/22-rdf-syntax-ns#" xmlns:cc="http://creativecommons.org/ns#" xmlns:svg="http://www.w3.org/2000/svg" xmlns:sodipodi="http://sodipodi.sourceforge.net/DTD/sodipodi-0.dtd" xmlns:inkscape="http://www.inkscape.org/namespaces/inkscape" inkscape:export-filename="faridoon.png"
	 xmlns="http://www.w3.org/2000/svg" xmlns:xlink="http://www.w3.org/1999/xlink" x="0px" y="0px" viewBox="0 0 512 512"
	 style="enable-background:new 0 0 512 512;" xml:space="preserve">
<style type="text/css">
	.st0{fill:#FFFFFF;}
</style>
<path class="st0" d="M512,482.5l-37.8-30.1c-18.8-14.9-29.3-23.3-35.2-29l-0.2,0.2c-1.3-1.1-6.7-5.3-27.9-21.8H93.1
	C41.8,401.9,0,360.1,0,308.8V122.6c0-51.3,41.8-93.1,93.1-93.1l349.1,0.6c42.2,5,69.8,40.9,69.8,92.5v241.9c0,6.3,0,24.9,0,43.4
	V482.5z M93.1,76c-25.7,0-46.5,20.9-46.5,46.5v186.2c0,25.7,20.9,46.5,46.5,46.5h333.8l6.3,4.9c15.8,12.2,25.8,20.1,32.2,25.6
	c0-9.8,0-17.8,0-21.5V122.6c0-17.4-4.4-46.5-33.6-46.5L93.1,76L93.1,76z M253,312.3c-77.5,0-104.6-54.1-105.8-56.4
	c-4.2-8.7-0.6-19.1,8.1-23.3c8.6-4.2,19-0.6,23.3,7.9c1,1.9,20.6,39,77.1,36.9c58.7-1.2,77.1-35.4,77.8-36.9
	c4.4-8.5,14.8-12,23.4-7.7c8.5,4.3,12.1,14.5,8,23.1c-1.1,2.2-27.4,54.7-108.4,56.4C255.2,312.3,254.1,312.3,253,312.3z M174.5,111
	c19.3,0,34.9,15.6,34.9,34.9s-15.6,34.9-34.9,34.9s-34.9-15.6-34.9-34.9S155.2,111,174.5,111z M337.5,111
	c19.3,0,34.9,15.6,34.9,34.9s-15.6,34.9-34.9,34.9s-34.9-15.6-34.9-34.9S318.2,111,337.5,111z"/>
</svg>
