<svg xmlns="http://www.w3.org/2000/svg" xml:space="preserve" viewBox="0 0 512 512"><path d="m512 482.5-37.8-30.1c-18.8-14.9-29.3-23.3-35.2-29l-.2.2c-1.3-1.1-6.7-5.3-27.9-21.8H93.1c-51.3.1-93.1-41.7-93.1-93V122.6c0-51.3 41.8-93.1 93.1-93.1l349.1.6c42.2 5 69.8 40.9 69.8 92.5zM93.1 76c-25.7 0-46.5 20.9-46.5 46.5v186.2c0 25.7 20.9 46.5 46.5 46.5h333.8l6.3 4.9c15.8 12.2 25.8 20.1 32.2 25.6V122.6c0-17.4-4.4-46.5-33.6-46.5zM253 312.3c-77.5 0-104.6-54.1-105.8-56.4-4.2-8.7-.6-19.1 8.1-23.3 8.6-4.2 19-.6 23.3 7.9 1 1.9 20.6 39 77.1 36.9 58.7-1.2 77.1-35.4 77.8-36.9 4.4-8.5 14.8-12 23.4-7.7 8.5 4.3 12.1 14.5 8 23.1-1.1 2.2-27.4 54.7-108.4 56.4zM174.5 111c19.3 0 34.9 15.6 34.9 34.9s-15.6 34.9-34.9 34.9-34.9-15.6-34.9-34.9 15.6-34.9 34.9-34.9m163 0c19.3 0 34.9 15.6 34.9 34.9s-15.6 34.9-34.9 34.9-34.9-15.6-34.9-34.9 15.6-34.9 34.9-34.9"/></svg>