<?xml version="1.0" encoding="utf-8"?>
<!-- Generator: Adobe Illustrator 28.2.0, SVG Export Plug-In . SVG Version: 6.00 Build 0)  -->
<svg version="1.1" id="Layer_1" xmlns="http://www.w3.org/2000/svg" xmlns:xlink="http://www.w3.org/1999/xlink" x="0px" y="0px"
	 viewBox="0 0 512 512" style="enable-background:new 0 0 512 512;" xml:space="preserve">
<style type="text/css">
	.st0{fill:#FFFFFF;}
</style>
<path class="st0" d="M469.5,114.9c-0.2-0.2-0.4-0.4-0.6-0.7l0-0.3C423,45.3,344.8,0,256,0C114.7,0,0,114.7,0,256
	c0,52.6,15.8,101.3,43,142.1l0.2,0c0.3,0.3,0.5,0.8,0.5,1C89.8,467.2,167.7,512,256,512c141.3,0,256-114.7,256-256
	C512,203.9,496.4,155.4,469.5,114.9z M256,458.2c-69.7,0-131.3-35.2-167.5-89c-0.3-0.3-0.5-0.8-0.5-1l-0.2,0.2l0-0.3
	c-21.4-32.1-34-70.6-34-112.1c0-111.7,90.5-202.2,202.2-202.2c70.2,0,131.9,35.7,168.1,89.9l-0.1,0.1c0.3,0.3,0.5,0.5,0.8,1
	c21.1,31.9,33.4,70.2,33.4,111.2C458.2,367.7,367.7,458.2,256,458.2z M377.8,174.8v153.6c0,4.8-3.8,8.6-8.6,8.6H134.3V174.8L256,256
	L377.8,174.8z"/>
</svg>
