<svg xmlns="http://www.w3.org/2000/svg" xml:space="preserve" viewBox="0 0 512 512"><path d="M143.6 27.9c-36.8 3.4-62.8 14.3-80.7 33.8-17.9 19.1-25.8 44.4-25.8 81.6v15.1H0v68.2h37V485h83.4V226.5h57.2v-68.2h-57.2v-9.9c.1-29.9 6.7-42.8 24.8-48.7 5.4-1.8 8.9-2.3 17.9-2.7l11.1-.4V27l-11.5.1c-6.3 0-14.9.4-19.1.8m56.8 239V485h82.5l.3-97.9c.3-106.1.1-101.3 4.9-115.9 10.5-31.8 37.6-49 74.1-46.8 38.6 2.3 62.4 26.8 66.4 68.3.4 4.9.8 47.3.8 100.4v92H512l-.3-105.4c-.2-95.4-.4-106.3-1.8-114.7-5.4-34-17.8-59.4-38.1-78.9-17.3-16.4-39.7-26.9-65.2-30.7-13.4-1.9-38.7-1.3-51.5 1.3-25.8 5.2-48.7 17.5-65.2 35l-6.9 7.2V49h-82.6z"/></svg>