<svg xmlns="http://www.w3.org/2000/svg" xml:space="preserve" viewBox="0 0 512 512"><path d="M301.5 238.3c-4.7 2-11 4.8-19 8.8s-14.3 7.5-19 10.6c-2.6 1.8-5.3 3.9-8.3 6.3-2.9-2.4-5.7-4.5-8.3-6.3-4.5-3.2-10.8-6.7-18.8-10.6-8-4-14.3-6.8-19-8.8s-11.5-4.7-20.3-8c-7.8-3-13.6-5.3-17.5-6.8-3.8-1.7-8.9-3.8-15.1-6.8-6.3-3-11-5.5-14-7.8s-6.3-5-9.8-8.3-6-6.8-7.3-10.5c-1.5-3.7-2.2-7.7-2.2-12 0-11.5 5-20.6 15-27.9 10-7.1 23-10.8 38.8-10.8 7 0 14 1 21.3 2.8 7.2 2 13.5 4.2 18.6 6.5 5.2 2.5 10 5.2 14.6 8 4.7 3 7.8 5.2 9.8 6.6 2 1.5 3.2 2.5 3.7 3 2.2 1.7 4.5 2.3 6.8 1.7 1.6-.1 2.9-.7 4.1-1.7 1.1 1 2.4 1.6 4 1.7 2.3.7 4.7 0 6.8-1.7.5-.5 1.7-1.5 3.7-3s5.2-3.7 9.8-6.6c4.5-2.8 9.3-5.5 14.5-8 5.2-2.3 11.3-4.5 18.6-6.5 7.2-1.8 14.3-2.8 21.3-2.8 15.8 0 28.6 3.7 38.6 10.8 10 7.3 15 16.5 15 27.9 0 4.3-.7 8.3-2.2 12s-4 7.1-7.5 10.5c-3.5 3.3-6.8 6-10 8.3s-7.8 4.8-14 7.8c-6.3 3-11.3 5.2-15.1 6.8-3.8 1.5-9.6 3.8-17.5 6.8-8.6 3.4-15.4 6-20.1 8M512 29v454c0 16-13 29-29 29H29c-16 0-29-13-29-29V29C0 13 13 0 29 0h454c16 0 29 13 29 29m-56.4 344.6L430 339.9c-1.2-1.7-3-2.7-5.7-3-2.5-.3-4.5.5-6 2.3l-.5.5c-18.8 16.6-38.9 27.1-60.6 31.4-6.2 1.3-12.3 2-18.5 2-13.5 0-25.3-3.5-35.6-10.6-10.2-7.2-15.3-17.3-15.3-30.4 0-4.7 1.3-9.1 3.8-13.3s5.3-7.7 8.5-10.5 8-6 14.6-9.3c6.6-3.5 12.1-6.2 16.5-8 4.3-2 11-4.7 20-8.2l15.5-6.3c3.8-1.5 9-3.7 15.5-6.6 6.5-2.8 11.6-5.5 15.6-7.6s8.7-5.2 14.1-8.8c5.5-3.7 10-7.2 13.3-10.6 3.5-3.4 7-7.5 10.8-12.3 3.8-4.6 6.8-9.5 8.8-14.5 2.2-4.9 3.8-10.5 5.3-16.6s2.2-12.7 2.2-19.6c0-23-8.2-43.2-24.5-60.6-16.3-17.3-37.8-28.9-63.9-33.9V39.5c0-2.2-.8-4.1-2.3-5.7-2.3-1.7-4.2-2.5-6.3-2.5h-33.7c-2.3 0-4.2.7-5.7 2.3-1.5 1.5-2.2 3.4-2.2 5.8v44.1c-9.5 1-18.7 3-27.6 5.8S270 95 264.4 97.7c-2.9 1.4-5.8 3-8.5 4.6-2.8-1.6-5.6-3.2-8.5-4.6-5.5-2.7-12.8-5.6-21.6-8.4s-18-4.8-27.4-5.8V39.4c0-2.3-.7-4.3-2.2-5.8s-3.4-2.3-5.7-2.3h-33.8c-2.2 0-4 .8-5.7 2.3-1.5 1.6-2.4 3.5-2.4 5.7v45.2c-26.1 5-47.7 16.7-64 34.1-16.3 17.5-24.5 37.6-24.5 60.7 0 6.8.7 13.3 1.7 20 1.5 6.2 3.2 11.7 5.3 16.6 2 4.9 5 9.8 8.8 14.5 3.8 4.8 7.3 8.9 10.8 12.3 3.3 3.5 7.8 7 13.3 10.6 5.5 3.7 10.1 6.6 14.1 8.8s9.2 4.8 15.6 7.7c6.5 3 11.6 5.2 15.5 6.6l15.5 6.3c9 3.5 15.6 6.2 20 8.1 4.3 1.8 9.8 4.5 16.5 8 6.7 3.3 11.5 6.5 14.6 9.3s6 6.3 8.5 10.5c1.7 2.8 2.8 5.8 3.4 8.8v1.5l.2-.3c.1 1.1.2 2.1.2 3.2 0 13.1-5.2 23.3-15.3 30.4-10.3 7.1-22.1 10.6-35.6 10.6-6.2 0-12.3-.7-18.5-2-21.6-4.3-41.8-14.8-60.6-31.4l-.5-.5c-1.5-1.8-3.5-2.7-6-2.3-2.7.3-4.5 1.3-5.7 3l-25.6 33.8c-2.5 3.3-2.3 6.8.5 10.3.8 1 2.2 2.5 4.3 4.5 2 2 6 5.2 11.6 9.5 5.7 4.3 11.8 8.3 18.5 12 6.6 3.8 15.1 7.5 25.4 11.2 10.2 3.7 20.8 6.2 31.8 7.6v43.9c0 2.2.8 4.2 2.4 5.7 1.6 1.7 3.4 2.3 5.6 2.3h33.7c2.3 0 4.2-.8 5.7-2.3s2.2-3.5 2.2-5.8v-43.9c23-3.8 42.2-12.9 57.7-27.3 15.5 14.4 34.7 23.5 57.7 27.3v43.9c0 2.3.7 4.3 2.2 5.8s3.4 2.3 5.7 2.3H355c2.2 0 4-.7 5.6-2.3 1.6-1.5 2.4-3.5 2.4-5.7v-43.9c11-1.5 21.6-4 31.8-7.6 10.3-3.7 18.8-7.3 25.4-11.2 6.6-3.7 12.8-7.7 18.5-12s9.6-7.5 11.6-9.5c2.2-2 3.5-3.5 4.3-4.5 3.3-3.2 3.5-6.7 1-10.1" style="fill:#fff"/><path d="M224.4 328.3c0 25.6 8.3 47.6 24.8 66q24.9 27.75 64.5 34.2v43.9c0 2.3.7 4.3 2.2 5.8s3.4 2.3 5.7 2.3h33.7c2.2 0 4-.7 5.6-2.3 1.6-1.5 2.4-3.5 2.4-5.7v-43.9c11-1.5 21.6-4 31.8-7.6 10.3-3.7 18.8-7.3 25.4-11.2 6.6-3.7 12.8-7.7 18.5-12s9.6-7.5 11.6-9.5c2.2-2 3.5-3.5 4.3-4.5 2.8-3.5 3-7 .5-10.3L430 339.9c-1.2-1.7-3-2.7-5.7-3-2.5-.3-4.5.5-6 2.3l-.5.5c-18.8 16.6-38.9 27.1-60.6 31.4-6.2 1.3-12.3 2-18.5 2-13.5 0-25.3-3.5-35.6-10.6-10.2-7.2-15.3-17.3-15.3-30.4 0-4.7 1.3-9.1 3.8-13.3s5.3-7.7 8.5-10.5 8-6 14.6-9.3c6.6-3.5 12.1-6.2 16.5-8 4.3-2 11-4.7 20-8.2l15.5-6.3c3.8-1.5 9-3.7 15.5-6.6 6.5-2.8 11.6-5.5 15.6-7.6 4-2.2 8.7-5.2 14.1-8.8 5.5-3.7 10-7.2 13.3-10.6 3.5-3.4 7-7.5 10.8-12.3 3.8-4.6 6.8-9.5 8.8-14.5 2.2-4.9 3.8-10.5 5.3-16.6 1.5-6.2 2.2-12.7 2.2-19.6 0-23-8.2-43.2-24.5-60.6-16.3-17.3-37.8-28.9-63.9-33.9V39.5c0-2.2-.8-4.1-2.3-5.7-2.3-1.7-4.2-2.5-6.3-2.5h-33.7c-2.3 0-4.2.7-5.7 2.3-1.5 1.5-2.2 3.4-2.2 5.8v44.1c-9.5 1-18.7 3-27.6 5.8S270 95 264.4 97.7c-5.6 2.8-10.9 5.9-15.9 9.4s-8.2 5.9-9.7 7.3c-1.5 1.3-2.7 2.5-3.7 3.5q-4.2 4.5-1.2 9.6l20.2 36.6c1.3 2.5 3.2 3.8 5.7 4 2.3.7 4.7 0 6.8-1.7.5-.5 1.7-1.5 3.7-3s5.2-3.7 9.8-6.6c4.5-2.8 9.3-5.5 14.5-8 5.2-2.3 11.3-4.5 18.6-6.5 7.2-1.8 14.3-2.8 21.3-2.8 15.8 0 28.6 3.7 38.6 10.8 10 7.3 15 16.5 15 27.9 0 4.3-.7 8.3-2.2 12s-4 7.1-7.5 10.5c-3.5 3.3-6.8 6-10 8.3s-7.8 4.8-14 7.8c-6.3 3-11.3 5.2-15.1 6.8-3.8 1.5-9.6 3.8-17.5 6.8-8.8 3.3-15.6 6-20.3 8s-11 4.8-19 8.8-14.3 7.5-19 10.6c-4.7 3.2-9.6 7.3-15.5 12.6-5.7 5.2-10.1 10.5-13.1 15.8-3.2 5.5-5.8 11.8-8 19.3-2.2 7.3-3.3 15.3-3.3 23.6z" style="opacity:.5;fill:#fff"/></svg>