<?xml version="1.0" encoding="utf-8"?>
<!-- Generator: Adobe Illustrator 28.2.0, SVG Export Plug-In . SVG Version: 6.00 Build 0)  -->
<svg version="1.1"
	 id="svg2" xmlns:dc="http://purl.org/dc/elements/1.1/" xmlns:rdf="http://www.w3.org/1999/02/22-rdf-syntax-ns#" xmlns:cc="http://creativecommons.org/ns#" xmlns:svg="http://www.w3.org/2000/svg" xmlns:sodipodi="http://sodipodi.sourceforge.net/DTD/sodipodi-0.dtd" xmlns:inkscape="http://www.inkscape.org/namespaces/inkscape"
	 xmlns="http://www.w3.org/2000/svg" xmlns:xlink="http://www.w3.org/1999/xlink" x="0px" y="0px" viewBox="0 0 512 512"
	 style="enable-background:new 0 0 512 512;" xml:space="preserve">
<style type="text/css">
	.st0{fill:#FF5900;}
	.st1{fill:#2A007C;}
</style>
<path class="st0" d="M512,328.9h-45.3l-21-23.5L425,328.9h-43.8l42.8-48.1l-42.8-48h45.1l21.2,23.3l20.4-23.3h43.5l-42.5,47.8
	L512,328.9z M332.8,295v-29.7h48.4v-32.5h-48.4v-21.5h48.4v-33.8h-84v151.4h84V295H332.8z"/>
<path id="path14" inkscape:connector-curvature="0" class="st1" d="M261.8,177.5v61.9h-0.4c-7.9-9-17.7-12.2-29-12.2
	c-23.3,0-40.8,15.8-47,36.8c-7-23.1-25.2-37.2-52-37.2c-21.8,0-39,9.8-48,25.7v-19.8H40.2v-21.5h49.2v-33.7H0v151.3h40.2v-63.6h40.1
	c-1.2,4.7-1.8,9.7-1.8,15c0,31.6,24.1,53.7,54.9,53.7c25.9,0,42.9-12.2,52-34.3h-34.5c-4.7,6.7-8.2,8.6-17.5,8.6
	c-10.8,0-20.1-9.4-20.1-20.6h70.2c3,25.1,22.6,46.7,49.4,46.7c11.6,0,22.2-5.7,28.6-15.3h0.4v9.8h35.3V177.5H261.8z M114.4,265.7
	c2.2-9.6,9.7-15.9,19-15.9c10.2,0,17.3,6.1,19.2,15.9C153.3,265.7,114.4,265.7,114.4,265.7z M240.3,305.8
	c-13.1,0-21.2-12.2-21.2-24.9c0-13.6,7.1-26.6,21.2-26.6c14.6,0,20.5,13.1,20.5,26.6C260.7,293.8,254.6,305.8,240.3,305.8z"/>
</svg>
