<?xml version="1.0" encoding="utf-8"?>
<!-- Generator: Adobe Illustrator 28.2.0, SVG Export Plug-In . SVG Version: 6.00 Build 0)  -->
<svg version="1.1"
	 id="svg2" xmlns:dc="http://purl.org/dc/elements/1.1/" xmlns:rdf="http://www.w3.org/1999/02/22-rdf-syntax-ns#" xmlns:cc="http://creativecommons.org/ns#" xmlns:svg="http://www.w3.org/2000/svg" xmlns:sodipodi="http://sodipodi.sourceforge.net/DTD/sodipodi-0.dtd" xmlns:inkscape="http://www.inkscape.org/namespaces/inkscape"
	 xmlns="http://www.w3.org/2000/svg" xmlns:xlink="http://www.w3.org/1999/xlink" x="0px" y="0px" viewBox="0 0 512 512"
	 style="enable-background:new 0 0 512 512;" xml:space="preserve">
<path d="M512,328.9h-45.3l-21-23.5L425,328.9h-43.8l42.8-48.1l-42.8-48h45.1l21.2,23.3l20.4-23.3h43.5l-42.5,47.8L512,328.9z
	 M381.2,295v33.9h-84v-0.1h-35.3V319h-0.4c-6.4,9.6-17,15.3-28.6,15.3c-26.8,0-46.4-21.6-49.4-46.7h-70.2c0,11.2,9.3,20.6,20.1,20.6
	c9.3,0,12.8-1.9,17.5-8.6h34.5c-9.1,22.1-26.1,34.3-52,34.3c-30.8,0-54.9-22.1-54.9-53.7c0-5.3,0.6-10.3,1.8-15H40.2v63.6H0V177.5
	h89.4v33.7H40.2v21.5h45.2v19.8c9-15.9,26.2-25.7,48-25.7c26.8,0,45,14.1,52,37.2c6.2-21,23.7-36.8,47-36.8c11.3,0,21.1,3.2,29,12.2
	h0.4v-61.9h35.4h84v33.8h-48.4v21.5h48.4v32.5h-48.4V295H381.2z M152.6,265.7c-1.9-9.8-9-15.9-19.2-15.9c-9.3,0-16.8,6.3-19,15.9
	C114.4,265.7,152,265.7,152.6,265.7z M260.8,280.9c0-13.5-5.9-26.6-20.5-26.6c-14.1,0-21.2,13-21.2,26.6c0,12.7,8.1,24.9,21.2,24.9
	C254.6,305.8,260.7,293.8,260.8,280.9z"/>
</svg>
