<?xml version="1.0" encoding="utf-8"?>
<!-- Generator: Adobe Illustrator 28.2.0, SVG Export Plug-In . SVG Version: 6.00 Build 0)  -->
<svg version="1.1" id="Layer_1" xmlns="http://www.w3.org/2000/svg" xmlns:xlink="http://www.w3.org/1999/xlink" x="0px" y="0px"
	 viewBox="0 0 512 512" style="enable-background:new 0 0 512 512;" xml:space="preserve">
<path d="M255.9,5l0.2-0.2C114.8,4.8,0.3,117.2,0,255.9l0,0v194.4l0,0c0.1,31.5,26.1,56.9,58.2,56.9h197.9
	C397.6,507.1,512,394.8,512,256.1S397.4,5,255.9,5z M391.1,198c-1.2,11.8-12.2,20.4-24.3,18.7c-12-1.7-20.2-12.9-18-24.6
	c0.2-1.3,0.3-3.4,0.3-7c0-25.3-21.1-35-41-35s-37.9,16.4-37.9,35c0.3,21.5,0,42.8,0,64.3l37-0.3c28.9-0.6,29.2,42,0.3,41.8
	l-37.3,0.3c-0.1,17.3,0.1,14.2,0,22.9c0,0,0.3,21.1-0.3,37.2c-4.5,47.1-45.3,84.7-94.4,84.7c-52,0-94.9-41.7-94.9-92.9
	c1.6-52.6,44.3-94,98.2-93.5l30.1-0.2V291l-30.1,0.3h-0.2c-29.6,0.9-55,20.6-55.5,51.7c0,28.3,23.3,51,52.3,51
	c28.9,0,52.1-20.7,52.1-51V184.8c0-2.9,0.1-5.3,0.4-8.5c4.9-38.7,40.2-68.2,80.1-68.2v0.1c43,0,83.6,32.3,83.6,76.8
	C391.7,189.1,391.8,193.3,391.1,198z"/>
</svg>
