<svg xmlns="http://www.w3.org/2000/svg" xml:space="preserve" viewBox="0 0 512 512"><path d="m255.9 5 .2-.2C114.8 4.8.3 117.2 0 255.9v194.4c.1 31.5 26.1 56.9 58.2 56.9h197.9C397.6 507.1 512 394.8 512 256.1S397.4 5 255.9 5m135.2 193c-1.2 11.8-12.2 20.4-24.3 18.7-12-1.7-20.2-12.9-18-24.6.2-1.3.3-3.4.3-7 0-25.3-21.1-35-41-35s-37.9 16.4-37.9 35c.3 21.5 0 42.8 0 64.3l37-.3c28.9-.6 29.2 42 .3 41.8l-37.3.3c-.1 17.3.1 14.2 0 22.9 0 0 .3 21.1-.3 37.2-4.5 47.1-45.3 84.7-94.4 84.7-52 0-94.9-41.7-94.9-92.9 1.6-52.6 44.3-94 98.2-93.5l30.1-.2V291l-30.1.3h-.2c-29.6.9-55 20.6-55.5 51.7 0 28.3 23.3 51 52.3 51 28.9 0 52.1-20.7 52.1-51V184.8c0-2.9.1-5.3.4-8.5 4.9-38.7 40.2-68.2 80.1-68.2v.1c43 0 83.6 32.3 83.6 76.8.1 4.1.2 8.3-.5 13"/></svg>