<?xml version="1.0" encoding="utf-8"?>
<!-- Generator: Adobe Illustrator 28.2.0, SVG Export Plug-In . SVG Version: 6.00 Build 0)  -->
<svg version="1.1" id="Layer_1" xmlns="http://www.w3.org/2000/svg" xmlns:xlink="http://www.w3.org/1999/xlink" x="0px" y="0px"
	 viewBox="0 0 512 512" style="enable-background:new 0 0 512 512;" xml:space="preserve">
<style type="text/css">
	.st0{fill:#FFFFFF;}
	.st1{fill:#F5844E;}
</style>
<g>
	<path class="st0" d="M475.7,452.7C517.9,281.1,332.7,301.1,349.2,284c16.5-35.3,9.7-78.7,4-103.7l-46.7-52.4
		c-33.1-18.8-114-4-126-4s-21.7-10.3-21.7-10.3l-37.1,65.6c4,8,4,42.8,4,60.4l0,0c0,23.9,12,47.3,23.9,59.3
		c3.4,3.4,14.3,12,29.6,19.4c-4,12-4,40.5-17.7,54.7c-9.1,9.7-30.2,22.2-30.2,39.9c-10.8,3.4-20.5,7.4-23.4,10.3
		c-5.7,5.7-23.9,23.9-17.7,47.3c5.7,23.9,41.6,23.9,53.6,23.9h1.1c12.5,12,37.1,12,46.2,12c5.7,0,20.5,0,35.3-5.7h0.6
		c35.3,5.7,61.6,6.3,77.5-1.7c3.4,1.1,7.4,1.7,11.4,1.7c47.3,1.7,122.6,0,136.8,0c17.7,0,32.5,1.1,35.9-12
		C493.4,464.1,475.7,467,475.7,452.7z"/>
	<path d="M494,473.2c-1.1-4.6-3.4-8-5.7-10.3c-4.6-5.1-6.3-5.1-6.3-9.1c10.8-43.9,7.4-76.4-4.6-100.3c-12-23.9-31.9-38.8-51.9-48.5
		c-20-9.7-41-14.3-55.3-17.7l-14.2-3.7l-0.1,0c16.1-36.5,9-80.1,2.9-105.1c0-1.1-0.6-1.7-1.1-2.9l-47.3-52.4l0,0l-1.1-1.2
		c-9.1-5.1-21.7-8-34.2-9.1c-13.1-1.1-26.8-1.1-39.9-0.6c-13.1,0.6-25.7,1.7-35.3,2.9c-10.3,1.1-16.5,1.7-19.4,1.7
		c-4.6,0-8.6-1.7-12.5-4c-1.7-1.1-3.4-2.3-4-2.9c-0.6-0.6-0.6-0.6-1.1-1.1c-1.1-1.1-3.4-1.7-5.1-1.7c-1.7,0-2.9,1.1-4,2.9
		l-37.1,65.6l-0.6,2.8l0.2,2.3l-0.2,0.1c0.6,1.1,1.1,3.4,1.7,8.6c0.6,4.6,1.1,9.7,1.1,16c0.6,12,0.6,24.5,0.6,33.1
		c0,25.5,12.7,50.6,25.7,63.8l0,0c0.1,0.1,0.1,0.1,0.2,0.2c0,0,0.1,0.1,0.1,0.1l0,0c3.8,3.7,13.3,10.8,26.5,17.9
		c-0.5,2.5-1,5.3-1.7,8.1c-0.6,4.6-1.7,9.7-2.9,14.8c-2.3,10.3-5.7,19.4-11.4,25.6c-2.1,2.1-4.3,4.2-7.4,6.9
		c-3.4,2.9-6.8,5.7-10.3,9.7c-6.1,6.1-11.8,14.1-12.9,23.9c-4.6,1.4-8.8,2.9-12.2,4.1c-2.5,1-1.1,0.3-3,1.3
		c-1.6,0.4-5.6,2.2-7.5,3.7l0,0c-5.5,5.7-25.2,25.8-18.6,53.2l0.1,0c4.1,14.7,17.1,21.5,28.4,24.9c11.4,3.3,23.3,3.4,29.3,3.4
		c7.4,6.1,17.2,8.7,25.7,10.3c9.2,1.7,18.4,1.7,23.1,1.7c5.6,0,21.1,0,36.8-6c17.3,2.7,32.1,4.3,45.3,4.3c12.3,0,22.7-2,31.3-5.7
		c3.4,0.9,7.1,1.7,10.9,1.7c47.9,1.7,123.1,0,136.8,0c8.6,0,17.7,0.6,24.5-1.1c3.4-0.6,7.4-2.3,10.3-4.6c3.4-2.9,5.1-6.3,6.3-10.3
		C494.5,483.5,495.1,477.8,494,473.2z M482,486.9c-0.6,2.3-1.1,3.4-2.3,4c-1.1,1.1-2.9,1.7-5.7,2.3c-5.7,1.1-12.5,1.1-22.2,1.1
		c-14.8,0-88.9,1.7-136.2,0c-3.4,0-6.8-0.6-9.7-1.7v0c-5.1-1.7-9.7-5.1-11.4-12c-0.6-2.3-0.6-4-0.6-5.7c0.6-1.7,1.1-3.4,2.9-5.1
		c3.4-4,9.6-8.1,20.8-12c8.5-2.8,18.1-3.9,29.4-3.9c11.4,0,22.8,1.7,34.2,3.4c11.4,1.7,22.2,3.4,31.9,4c4.6,0,9.1,0,13.1,0
		c4-0.6,8-1.7,11.4-4c2.9-1.7,3.4-5.7,1.7-8c-1.7-2.8-6.2-3.3-8.5-1.7l0,0c-0.1,0-0.1,0.1-0.2,0.1c0,0,0,0,0,0l0,0
		c-1.1,0.6-2.8,1.6-6.1,1.6c-2.9,0.6-6.8,0.6-10.8,0c-8.6-0.6-19.4-2.3-30.8-3.4c-11.4-1.7-23.9-3.4-35.3-3.4
		c-11.9-0.6-23.7,0.6-33.9,4.5l0,0c-0.1,0-0.1,0.1-0.2,0.1c0,0,0,0,0,0l0,0c-11.3,4-19.4,9.2-25.1,14.8c-2.9,2.9-4.6,6.8-5.7,10.3
		c-0.6,4-0.6,8,0.6,12c1.7,5,4.2,9.1,7.3,12.3c-5.2,1.2-11.2,2-18.2,2c-8.2,0-17.6-0.6-27.9-1.7c1.6-1.2,3.1-2.5,4.6-4
		c2.3-2.3,2.3-6.3,0-8.6c-2.3-2.3-6.3-2.3-8.6,0c-4.6,4.6-10.3,8-16.5,10.8c-13.7,5.7-27.4,5.7-33.1,5.7c-4.6,0-12.7-0.6-21.3-1.7
		c-8.6-1.1-16.7-4-21.3-9.1l-3.5,3.7v-0.1l3.4-3.7c-2.3-2.3-4.6-5.1-5.1-9.1c-2.3-10.3,0-16.5,2.9-20c3.2-4.3,7.4-6.9,11.2-8.6l0,0
		c0.6-0.6,3-1.1,7-1.1c3.4-0.6,8-0.6,12.5-1.1c9-0.6,19.7-1.1,27.1-3.4l0,0c0,0,0.1,0,0.1,0c0,0,0.1,0,0.1,0l0,0
		c3.7-1.2,5.8-4,4.5-7.4c-1.2-3.2-3.9-4.6-7.3-3.9l0-0.1c-6.3,1.7-15.4,2.3-25.1,2.9c-4.6,0-9.1,0.6-13.1,1.1
		c-3.3,0.6-7.4,1.3-10.2,2.3l0,0c-0.1,0-0.2,0.1-0.3,0.1h0c-3.5,1.8-10.7,5.2-15.7,11.8c-5.7,6.8-8.6,17.1-5.1,30.2
		c0.4,1.5,0.9,3,1.5,4.3c-5.3-0.3-11.6-1-17.4-2.6c-10.2-2.8-18.1-7.9-20.5-16.3c-4.8-19.7,9.4-35.5,15.6-41.5l23.8-8.7
		c8.4-2.9,17.1-5.7,22.7-7.5l0-0.1c3.3-1.3,4.9-4.2,3.8-7.7c-1.2-3.6-4.2-5.5-7.7-4.3l0,0.1c-3.7,1.1-8.4,2.5-13.3,4.1
		c1.7-3.1,4.1-6.3,7-9.4c2.9-2.9,6.3-5.7,9.7-8.6c3.3-2.7,5.3-6.3,8-8.6l0,0c0.1-0.1,0.1-0.1,0.1-0.2c0,0,0.1-0.1,0.1-0.1l0,0
		c7.8-8.5,11.7-20.3,14-31c1.1-5.1,2.3-10.8,2.9-15.4c0.2-1.6,0.5-3,0.8-4.3c26.8,12.3,65.3,21.9,105.3,7.1l-4-11.4
		c-38.8,14.3-77,2.9-102-9.7c-14.8-7.4-25.1-15.4-27.9-18.2c-10.8-10.8-22.2-33.1-22.2-55.3c0-8.6,0-21.7-0.6-33.6
		c0-6.3-0.6-12-1.1-16.5c-0.4-3.2-0.8-6.4-1.6-9l32.4-57.4c0.4,0.3,0.7,0.5,1.1,0.8c4.6,2.9,10.8,5.7,18.8,5.7
		c3.4,0,11.4-0.6,20.5-1.7c9.7-1.1,21.7-2.3,34.8-2.9c12.5-0.6,26.2-0.6,38.2,0.6c11.4,1.1,21.2,3.8,28.5,7.4l45.5,51.1
		c5.6,25.6,11.6,65.1-3.7,97.8c-0.5,0.8-1,1.6-1.3,2.8c-0.6,1.7-0.6,4,0.6,5.7c0.6,1.7,2.3,2.9,2.9,3.4c1.1,0.6,2.3,1.1,3.4,1.7
		c4,1.7,10.3,3.4,17.1,4.6c14.3,3.4,34.2,7.4,53,16.5c18.8,9.1,35.9,22.2,46.7,43.3c10.3,21.1,14.3,50.2,4,92.3
		c0,10.3,6.3,17.1,9.1,20c1.7,1.7,2.3,3.4,2.9,5.1C483.1,478.4,483.1,481.2,482,486.9z"/>
	<path class="st1" d="M31.1,293.7l52.4-21.1c7.4-2.9,15.4,0.6,18.2,8l21.1,52.4c2.9,7.4-0.6,15.4-8,18.2l-52.4,21.1
		c-7.4,2.9-15.4-0.6-18.2-8l-21.1-52.4C20.3,305.1,23.7,296.5,31.1,293.7z"/>
	<path class="st0" d="M149.1,78.8c-15.4-21.1-22.2-39.9-23.9-47.9c-16-62.7-4.6,10.3-9.1,29.6c-5.1,20-10.8,38.2-12,63.8
		c-1.7,37.6,12.5,55.3,26.2,55.9c13.7-1.1,18.2-12,23.4-28.5C158.2,136.4,161.7,96.5,149.1,78.8z M325.3,81.6
		c9.1-10.3,16-26.8,18.8-34.2c18.2-55.9,6.8-56.4,13.7,9.7c1.1,13.1,5.7,23.4,9.7,56.4c5.7,50.7-15.4,77.5-33.6,75.2
		c-13.1-1.7-22.2-13.7-25.1-42.2C305.9,117.6,312.1,96.5,325.3,81.6z"/>
	<path d="M91,341c0.6,1.7,0,4-2.3,5.1c-1.7,0.6-4,0-5.1-2.3l-1.1-3.4c-4-10.8-17.1-16.5-29.1-12l-3.4,1.1c-1.7,0.6-4,0-5.1-2.3
		c-0.6-1.7,0-4,2.3-5.1l3.4-1.1c15.4-6.3,33.1,1.1,39.3,16.5L91,341z M63.1,338c-5.1,0-9.3,4.2-9.3,9.3c0,5.1,4.2,9.3,9.3,9.3
		c5.1,0,9.3-4.2,9.3-9.3C72.3,342.1,68.2,338,63.1,338z M109.2,334.7c0.6,2.3,0,4.6-2.3,5.1c-2.3,0.6-4.6,0-5.1-2.3l-1.7-4
		c-8.6-20-33.1-30.2-53-22.2l-4,1.7c-2.3,0.6-4.6,0-5.1-2.3c-0.6-2.3,0-4.6,2.3-5.1l4-1.7c23.9-9.7,53.6,2.9,63.3,26.8L109.2,334.7z
		 M300,310c-9.5-5.8-20.3-9.8-32.3-12.1c1.2-1.5,1.4-3.6,0.5-5.4c-1.3-2.5-4.3-3.4-6.8-2.2c-14.2,7.4-26.9,7.1-38.8-0.9
		c-2.3-1.5-5.4-0.9-7,1.4c-1.1,1.6-1,3.6-0.2,5.2c-33.8,2.9-68.8,12.4-93.6,21.6l-15.6-38.8c-1.8-4.8-5.4-8.5-9.9-10.5
		c-4.5-2-9.7-2.1-14.5-0.2l-52.4,21.1c-4.7,1.8-8.4,5.4-10.4,10.1c-2,4.6-2,9.8-0.2,14.3l21.1,52.4c2.9,7.5,9.8,12,17.4,12
		c2.3,0,4.7-0.4,7.1-1.3l52.4-21.1c9.8-3.8,14.5-14.5,10.7-24.4l-3.2-8c26.3-9.7,64.1-19.7,99.6-21.6c5.9,2.8,11.9,4.2,18.2,4.2
		c5.4,0,11-1.1,16.7-3.2c14.6,1.8,27.6,5.8,38.4,12.5c0.5,0.3,1,0.4,1.5,0.4c1,0,2-0.5,2.5-1.4C301.9,312.6,301.4,310.8,300,310z
		 M113.2,346.9l-52.4,21.1c-5,1.9-10.2-0.3-12.2-5.3l-21.1-52.5c-0.9-2.1-0.8-4.7,0.1-7c1-2.4,2.8-4.1,5.2-5L85.3,277
		c1.2-0.5,2.4-0.7,3.6-0.7c3.7,0,7.1,2.2,8.6,6l15.6,38.8c-0.5,0.2-1,0.4-1.5,0.6c-1.5,0.6-2.2,2.4-1.6,3.9c0.5,1.1,1.6,1.8,2.7,1.8
		c0.4,0,0.8-0.1,1.1-0.2c0.5-0.2,1-0.4,1.5-0.6l3.3,8.1C120.4,339.7,118.2,344.9,113.2,346.9z M300.9,259.3c-1,0-2.1-0.1-3.1-0.2
		c-10.6-1.3-15.1-6.3-17-10.2c-4.6-9.5,1.5-20.7,3.5-23.9l1.7-2.8h3.3c3.1,0,7.2,0.1,11.6,0.2c6,0.2,14.4,0.4,19.2,0.2
		c0.2-0.9,0.3-1.7,0.3-2.5c0-3.3,2.7-5.9,5.9-5.9s5.9,2.7,5.9,5.9c0,0.1,0,0.1,0,0.2l0.8-0.2l-1.2,4.2c-0.3,1.9-0.9,3.8-1.6,5.6
		C324.8,249,314.5,259.3,300.9,259.3z M292.9,234.1c-1.6,3.4-2.5,7.3-1.4,9.6c1.1,2.3,4.8,3.2,7.7,3.6c8.2,0.9,13.5-5.3,16.9-12.7
		c-4.2,0-9.3-0.1-15.4-0.3C297.9,234.2,295.2,234.2,292.9,234.1z M190.7,256.9c-18,0-26.9-16.9-29.2-32.9c-0.2-1-0.3-2.1-0.4-3.1
		l-0.8-5.4l0.6,0.1c0-0.2,0-0.4,0-0.6c0-3.3,2.7-5.9,5.9-5.9s5.9,2.7,5.9,5.9c0,0.9,0,1.8,0,2.8c4.6,0.6,11.5,1.3,17.7,1.9
		c4.9,0.5,9.5,1,12.9,1.4l3.2,0.4l1.4,2.9c3.4,6.9,5.5,16.8,0.9,24.2C206.6,252.3,201.5,256.9,190.7,256.9z M175.1,230.1
		c2.2,6.9,6.7,14.9,15.7,14.9c2.9,0,6.7-0.5,8.1-2.7c1.4-2.2,1-6.2-0.3-9.7c-2.8-0.3-6-0.6-9.3-1
		C184.3,231.1,179.3,230.5,175.1,230.1z M336,194.9c-1,0-1.9-0.1-2.9-0.2c-17.4-2.3-27.3-17.8-30.2-47.5c-2.9-29.4,3.2-52.8,18-69.5
		l0,0c6-6.7,12.3-18.2,17.7-32.4c6.3-19.3,9-31.8,10.1-37.2c0.6-3,1.7-8.2,7.2-7.5c5.4,0.6,5.4,5.9,5.4,9c0,5.9-0.1,21.5,2.5,46.9
		c0.5,5.3,1.5,10.2,2.9,16.4c1.9,8.7,4.5,20.6,6.8,40c3.6,32-2.7,58.5-17.2,72.9C350.1,191.7,343,194.9,336,194.9z M329.7,85.6
		c-12.5,14.2-17.6,34.5-15.1,60.5c3.5,34.7,15.9,36.3,19.9,36.9c4.3,0.5,9-1.5,13.2-5.6c11.7-11.6,16.9-35.2,13.7-63.1
		c-2.3-18.8-4.7-29.9-6.6-38.8c-1.4-6.6-2.6-11.9-3.1-17.8c-0.4-4.1-0.8-8-1.1-11.6c-0.3,1.1-0.7,2.1-1,3.2
		C345.4,60.5,338.5,75.6,329.7,85.6L329.7,85.6z M130.4,186.2l-0.4,0c-6.7-0.3-13-3.4-18.2-9.1c-9.9-10.8-14.8-29.6-13.7-52.9
		c1-22.8,5.6-40.2,10.1-57l2.1-8c1.5-6.6,0.9-22.3,0.5-33.8c-0.8-19.5-1-24.2,5.5-25.1c6.7-1,8.4,4.8,14.7,29.3
		c1.7,7.7,8.3,25.7,23,45.8l0,0.1c14.1,19.8,10.4,61.3,5.4,78.1c-4.3,13.9-9.7,31.2-28.6,32.7L130.4,186.2z M123.2,44.3
		c0,7-0.3,13.2-1.3,17.6l-2.1,8.2c-4.5,17-8.7,33-9.7,54.5c-0.9,19.9,3,36,10.6,44.4c2.9,3.2,6.2,5,9.6,5.3
		c9-0.9,12.5-7.3,17.8-24.3c4.4-14.9,7.1-52.4-3.7-67.7C134.1,68.3,127.2,54.8,123.2,44.3z"/>
</g>
</svg>
