<?xml version="1.0" encoding="utf-8"?>
<!-- Generator: Adobe Illustrator 28.2.0, SVG Export Plug-In . SVG Version: 6.00 Build 0)  -->
<svg version="1.1" id="Layer_1" xmlns="http://www.w3.org/2000/svg" xmlns:xlink="http://www.w3.org/1999/xlink" x="0px" y="0px"
	 viewBox="0 0 512 512" style="enable-background:new 0 0 512 512;" xml:space="preserve">
<path d="M122.2,0h267.6c36.7,0,66.4,29.7,66.4,66.4l0,0c0,36.7-29.7,66.4-66.4,66.4H122.2c-36.7,0-66.4-29.7-66.4-66.4l0,0
	C55.8,29.7,85.6,0,122.2,0z M301.3,200.1H122.2c-36.7,0-66.4,29.7-66.4,66.4v179.1c0,36.7,29.7,66.4,66.4,66.4s66.4-29.7,66.4-66.4
	V332.9h112.7c36.7,0,66.4-29.7,66.4-66.4S338,200.1,301.3,200.1z"/>
</svg>
