<?xml version="1.0" encoding="utf-8"?>
<!-- Generator: Adobe Illustrator 28.2.0, SVG Export Plug-In . SVG Version: 6.00 Build 0)  -->
<svg version="1.1" id="Layer_1" xmlns="http://www.w3.org/2000/svg" xmlns:xlink="http://www.w3.org/1999/xlink" x="0px" y="0px"
	 viewBox="0 0 512 512" style="enable-background:new 0 0 512 512;" xml:space="preserve">
<style type="text/css">
	.st0{fill-rule:evenodd;clip-rule:evenodd;fill:#020002;}
	.st1{fill-rule:evenodd;clip-rule:evenodd;fill:#FF0090;}
	.st2{fill-rule:evenodd;clip-rule:evenodd;fill:#FCFCFC;}
</style>
<path class="st0" d="M256,0c-35.3,0-69,7.2-99.6,20.1c-0.9-0.6-1.7-1.2-2.6-1.8c-2-2.1-3.9-4.1-5.7-6.2c-1.6,4.5-3,9.1-4.3,13.7
	C58.6,67.4,0,154.8,0,256c0,141.4,114.6,256,256,256s256-114.6,256-256S397.4,0,256,0z"/>
<path class="st1" d="M93.6,453.9C72.7,437.2,55,417.7,41,395.1c-13.8-46.2-8.2-90.9,15.7-132.8c5-8.6,10.2-17.1,15.6-25.4
	c17.9-23.2,36.3-46.2,55-68.9c3-3.9,5.7-8,8.2-12.3c0.5-1.4,0.5-2.7,0-4.1c-6-6.9-10.1-14.8-12.3-23.8c-5.1-31.2-2.8-61.9,7-91.9
	c4.3-11.7,8.4-23.5,12.3-35.3c7-1.3,13.8-0.6,20.5,2.1c7,3.5,14.1,6.9,21.2,10.3c25.2,13.2,49.8,27.6,73.9,43
	c5.1,4,10.1,8,15.2,11.9c2.1,3.7,3.7,7.5,4.9,11.5c6.1,6.3,12.8,11.8,20.1,16.4c-0.6,0.8-1.4,1-2.5,0.8c-4.9,0-9.8,0-14.8,0
	c0.8,4.6,2.5,9,4.9,13.1c-1,0.8-2.1,0.6-3.3-0.4c-23.1-16.1-44.1-34.7-63.2-55.8c-12-9.8-24.1-19.7-36.1-29.5
	c-10-6.7-20.3-12.7-31.2-18c-1-0.5-2-0.4-2.9,0.4c-1,1.8-1.4,3.7-1.2,5.7c-8.3,24-13,48.7-13.9,74.2c0.1,13.6,2.1,26.8,6.2,39.8
	c4.2,13.1,9,25.9,14.4,38.6c0,0.3,0,0.5,0,0.8c-16.2,22.8-33,45.2-50.4,67.3c-13.5,17.6-24.4,36.8-32.8,57.4
	c-7.2,19.6-9.6,39.9-7.4,60.7c2.9,49.8,23,90.8,60.3,123c-0.8,0,3.1,3,2.2,3c-2.1,0-18.2-11.2-19.8-12.8 M354.2,35.1
	c-5,9.9-9.3,18.6-14.2,28.4c-2.3,3.9-2.1,5-4,9.3c-0.4,1.4-3.2,6.8-3.1,8.2c-3.2,8.9-6.8,17.6-10.7,26.3c-6.1-2.4-12.1-4.9-18-7.8
	c-0.4-0.8-1-1.5-1.6-2.1c0-0.3,0-0.5,0-0.8c2.4-8.2,5.6-16.1,9.4-23.8c10.3-18.8,21.7-36.8,34-54.1c2.7-5.5,7.1-8.8,13.1-9.8
	c2,0.3,5.1,2.7,6.4,4.1c-1.4,3.2-4.3,4.9-5.6,8.2 M203.1,124.5c0,1.9,0,3.8,0,5.7c-0.9,0.1-1.7,0-2.5-0.4
	c-4.8-4.3-9.6-8.5-14.4-12.7c-4.5-5.3-8.2-11-11.1-17.2c-0.5-4.4-0.7-8.8-0.4-13.1c1.8,3.6,4,6.8,6.6,9.8c5.7,4,10.9,8.7,15.6,13.9
	C199.9,114.8,201.9,119.5,203.1,124.5z M335.2,187.7c0.4,2.1,1,4.1,1.6,6.2c0,0.9-0.3,1.6-0.8,2.1c-9.7-12.5-21.7-22.2-36.1-29.1
	c-11.5-6.1-23.7-9.2-36.5-9.4c-0.3,1.6-0.5,3.3-0.8,4.9c-9.8-3.9-19.6-8-29.1-12.3c4.2-4.5,9.4-7.4,15.6-8.6
	c7.4-0.5,14.8-0.5,22.1,0C301,145.3,322.3,160.8,335.2,187.7z M461.4,198.8c-4.2-0.6-8.3-0.3-12.3,0.8c-4.4,2.2-8.5,4.8-12.3,7.8
	c-0.5,1.1-1.1,2.2-1.6,3.3c-4.6,12.5-2.9,23.9,4.9,34.4c-1.7,0.6-4.2,1.3-5.7,1.8c-9,1.2-17.9,1.6-27,1.1c-16.7-1.6-33.4-3.8-50-6.6
	c-51.6-8.6-100,0.2-145.2,26.3c-38.8,26-63.8,61.7-75.1,107.1c-9,43.1-0.2,81.9,26.3,116.5c2.5,1.8,4.8,3.7,7,5.7
	c39.4,14.3,79.9,18.4,121.4,12.3c-1.3-1.2-3-1.9-4.9-2.1c-13.3-2.2-26.4-5-39.4-8.2c-19.9-6.5-37-17.3-51.3-32.4
	c-15.7-17.1-24.7-37.3-27.1-60.7c-0.9-23,4.3-44.6,15.6-64.8c10.5-16.8,23.2-32,38.1-45.5c16.7-12.1,34.5-22.4,53.3-31.2
	c19.3-8.7,39.5-13.9,60.7-15.6c8.9-0.7,17.6-0.4,26.3,0.8c17.2,2.9,34.4,5.4,51.7,7.4c9.3,0.6,18.6,0.4,27.9-0.4
	c12.9-1.1,24-6,33.2-14.7C492.7,220,487.9,205.6,461.4,198.8z M440.9,246C440.9,246,440.9,246,440.9,246
	C440.9,246,440.9,246,440.9,246C440.9,246,440.9,246,440.9,246z"/>
<path class="st2" d="M295.8,96.6c2,0.8,4.2,1.1,6.6,0.8c0.7,0.5,1.2,1.2,1.6,2.1c5.9,2.8,11.9,5.4,18,7.8
	c3.9-8.6,7.4-17.4,10.7-26.3c3-5.1,5.1-10.6,6.6-16.4c4.9-9.8,9.8-19.6,14.8-29.5c1.8-1.7,2.4-3.6,1.6-5.7c0.5-0.8,1.1-1.6,1.6-2.5
	c0.8-0.7,1.3-1.5,1.6-2.5c0-0.3,0-0.5,0-0.8s0-0.5,0-0.8c0.5,0,0.8-0.3,0.8-0.8c0-0.3,0-0.5,0-0.8c1.9-2.7,3.8-5.5,5.7-8.2
	c4.5,6.5,8.4,13.3,11.5,20.5c6,15.6,9.6,31.7,10.7,48.4c0,5.4-1.5,10.3-4.5,14.8c-4.7,5.9-9.2,11.9-13.5,18c-0.8-1.1-1-2.5-0.8-4.1
	c0.4-10.4,0.9-20.8,1.6-31.2c-0.3-1.9-0.5-3.8-0.8-5.7c-5.6,6.4-9.6,13.8-11.9,22.1c-4.2,14.5-6.9,29.3-8.2,44.3
	c4.5,5.6,8.3,11.6,11.5,18c8.1,7.3,16.4,14.2,25,20.9c16.4,8.2,32.8,16.4,49.2,24.6c1.3,0.9,1.8,2.2,1.6,3.7
	c-0.5,1.1-1.1,2.2-1.6,3.3c-25.6,0.1-50.5-4.1-74.6-12.7c-7.5-3-15.2-5.7-23-8.2c-0.7-0.9-1.5-1.6-2.5-2.1
	c-12.9-26.9-34.2-42.4-64-46.3c-7.4-0.5-14.8-0.5-22.1,0c-6.2,1.2-11.4,4.1-15.6,8.6c9.6,4.3,19.3,8.4,29.1,12.3
	c0.3-1.6,0.5-3.3,0.8-4.9c12.8,0.2,25,3.4,36.5,9.4c14.4,6.9,26.4,16.6,36.1,29.1c4.5,4.9,6.9,10.6,7.4,17.2
	c-23.1-5.7-46.4-11.1-69.7-16c-41.4-3.6-77.4,8.6-107.9,36.5c-12.5,15.6-21.5,33.1-27.1,52.5c-0.3,1.1-1,2-2.1,2.5
	c-4.5-10.1-7.1-20.8-7.8-32c-2-32.6,6.5-62.2,25.4-88.6c0.4-0.8,0.5-1.6,0.4-2.5c0-0.3,0-0.5,0-0.8c9.2-8,18.1-16.5,26.7-25.4
	c-1.6-8.8-3.6-17.5-5.7-26.3c-0.4-4.4-0.5-8.8-0.4-13.1c2.8,6.2,6.5,12,11.1,17.2c4.8,4.3,9.6,8.5,14.4,12.7
	c0.8,0.4,1.6,0.5,2.5,0.4c0-1.9,0-3.8,0-5.7c6.2-3.7,12.4-7.5,18.5-11.5c0.5-1.4,0.5-2.7,0-4.1C209,79,191.3,52.6,168.7,29.6
	c-4.6-4.2-9.6-8-14.8-11.5c-2-2-3.9-4.1-5.7-6.2c-0.2-2,0.2-3.9,1.2-5.7c0.9-0.8,1.8-1,2.9-0.4c10.8,5.4,21.2,11.4,31.2,18
	c12,9.8,24.1,19.7,36.1,29.5c19,21.1,40.1,39.7,63.2,55.8c1.1,1,2.2,1.2,3.3,0.4c-2.5-4.1-4.1-8.5-4.9-13.1
	C285.9,96.6,290.9,96.6,295.8,96.6z M414.6,257c-17.3-2-34.5-4.5-51.7-7.4c-8.7-1.2-17.5-1.5-26.3-0.8c-21.2,1.7-41.4,6.9-60.7,15.6
	c-18.8,8.8-36.6,19.2-53.3,31.2c-14.8,13.5-27.5,28.7-38.1,45.5c-11.3,20.2-16.5,41.8-15.6,64.8c2.4,23.3,11.5,43.6,27.1,60.7
	c14.4,15.1,31.4,25.9,51.3,32.4c13,3.2,26.2,6,39.4,8.2c1.9,0.3,3.5,1,4.9,2.1c50.1-6.7,93.8-26.7,131.3-59.9
	c2.8-5.9,4.2-12.2,4.1-18.9c-3.5-35.8-19.3-64.6-47.6-86.5c-13.1-8.6-27.3-14.7-42.7-18c-7-1.5-14.1-2.9-21.3-4.1
	c17.9-14.5,37.6-26,59.1-34.5c22.4-6.2,43.8-15,64-26.3c1.6-1.4,3-2.9,4.1-4.5C433.3,257.4,424,257.5,414.6,257z M337.2,437.1
	c9.4,11,12.6,23.6,9.8,37.7c-3.7-12-8.9-23.2-15.6-33.6c-13.8-16.4-31.5-23.1-52.9-20.1c-8.1,2.5-15.7,6.2-22.6,11.1
	c-0.9-11.7,4.1-19,15.3-22.2C297.8,407.8,319.8,416.8,337.2,437.1z"/>
</svg>
