<svg xmlns="http://www.w3.org/2000/svg" xml:space="preserve" viewBox="0 0 512 512"><path d="M230.8 10.3C174.7 22.8 116.9 64.6 90.7 111.7L82.5 127l23.5-13.4c63.2-36 136.8-41.2 195.1-13.1 23.8 11 52.2 40.9 65 67.5 12.2 25.6 23.8 66.8 26.6 93.7 1.8 21.4 2.1 21.7 7.9 16.5 9.2-8.2 26.6-47 31.5-70.2 12.5-59.2-2.1-111.4-42.4-149.9C345 15.2 287-2.2 230.8 10.3M102.6 148.6c-11.9 11.6-27.8 26.3-34.8 32.7C29 215.2 0 278.4 0 329c0 24.1 9.2 62 20.5 85.2 24.7 51 89.8 85.8 168.5 90.4 28.7 1.8 29 1.8 21.7-3.7-21.1-15-43.7-40-52.5-58.3-8.6-17.4-10.1-23.8-11-49.5-1.2-26-.3-31.8 6.1-47.9 13.4-33 30.2-47.6 66.9-58.9 33-10.1 45.8-23.5 57.7-61.7 6.7-22 4.6-29-10.1-31.1-62.6-9.2-79.7-16.2-109.9-46.1-12.2-12.2-22.9-19.9-26.9-19.9s-15 8.3-28.4 21.1m69.9 25.9c5.2 3.7 5.2 5.5 1.8 22.9-3.4 16.5-3 20.1 1.2 26.6 7.6 11.9 19.9 9.8 35.4-6.4 13.4-13.7 17.1-15.3 35.4-14.4 7 .6 9.5 1.8 8.2 4.9-1.8 4.9 6.4 14 12.8 14 5.5 0 5.5 1.5-.9 11.6-16.5 26.6-39.7 40.3-68.7 40.3-43.1-.3-70.5-33.9-62.3-77.3 4.4-22.2 22.2-33.1 37.1-22.2m291.6 38.2c0 3.4-4 18-8.9 32.4-23.5 70.5-78.5 128.5-137.7 146.6-31.5 9.2-106 9.2-138-.3-15.6-4.6 2.4 31.5 29.3 58.6 43.7 44 98 58.9 160 44 112-26.9 167.3-121.5 133.1-229-10.3-33.1-37.8-70.9-37.8-52.3" style="fill:#fff"/></svg>