<svg xmlns="http://www.w3.org/2000/svg" xml:space="preserve" viewBox="0 0 512 512"><linearGradient id="ferron_svg__a" x1="-432.024" x2="-300.454" y1="625.096" y2="548.928" gradientTransform="matrix(2.8943 -.00777 -.00777 -2.8943 1320.526 1952.143)" gradientUnits="userSpaceOnUse"><stop offset="0" style="stop-color:#f47825"/><stop offset="1" style="stop-color:#da5e0b"/></linearGradient><path d="M128 34.3 0 256l128 221.7h256L512 256 384 34.3zm128 41.9c99.3 0 179.8 80.5 179.8 179.8S355.3 435.8 256 435.8 76.2 355.3 76.2 256 156.7 76.2 256 76.2m0 23.5c-86.3 0-156.3 70-156.3 156.3s70 156.3 156.3 156.3 156.3-70 156.3-156.3S342.3 99.7 256 99.7m0 15.3c77.8 0 141 63.1 141 140.9s-63.1 140.9-140.9 141c-77.8 0-141-63.1-141-140.9-.1-77.8 63-140.9 140.9-141m5.2 32.4-99 133.9 88.6-8v91.3l99-133.9-88.6 8z" style="fill:url(#ferron_svg__a)"/></svg>