<svg xmlns="http://www.w3.org/2000/svg" xml:space="preserve" viewBox="0 0 512 512"><path d="M488 168c-10.9-29.9-27.8-56.8-48.4-80h30.3c23.2 0 42.1 18.9 42.1 42.1 0 16.8-10.1 31.2-24 37.9m-.4 0c10.5 27.4 16 57.3 16 88 0 138.9-112.8 251.8-251.8 251.8S0 394.9 0 256 112.8 4.2 251.8 4.2c74.5 0 141.5 32.4 187.8 83.8H201.7c-23.2 0-42.1 18.9-42.1 42.1 0 10 3.6 19.3 9.5 26.5 7.7 9.5 19.5 15.6 32.6 15.6h268.2c6.3 0 12.2-1.3 17.7-4.2M280.4 381.9v-.4c-.2-18.3-14.9-33.3-33.3-33.3h-67.4c-18.5 0-33.7 15.2-33.7 33.7 0 13.7 8.3 25.6 20.2 30.8.4.2.9.4 1.4.6.3.1.5.2.8.3 3.6 1.3 7.4 2 11.4 2h67.4c18.5 0 33.2-15.2 33.2-33.7m107.4-121.7c0-21-17.2-37.8-37.7-37.9H188.4c-9 .5-17 4-23.3 9.6l-.2.2c-.3.3-.6.5-.8.8-.2.2-.4.3-.5.5-.1.1-.3.3-.4.5l-.9.9s0 .1-.1.1c-6 6.7-9.7 15.5-9.7 25.3 0 .6 0 1.3.1 1.9.5 9 4 17.1 9.6 23.3 0 .1.1.1.1.2.3.3.5.6.8.9.2.2.3.4.5.5l.5.5.9.9.1.1c6.2 5.6 14.4 9.2 23.3 9.7h161.7c20.3-.1 37.3-16.5 37.7-37.1z"/></svg>