<svg xmlns="http://www.w3.org/2000/svg" xml:space="preserve" id="fider_svg__Layer_1" x="0" y="0" version="1.1" viewBox="0 0 512 512"><style>.fider_svg__st0{fill:#fdbc3d}.fider_svg__st1{fill:#8ec63f}.fider_svg__st5{fill:#ffc951}.fider_svg__st6{fill:#f6cc18}.fider_svg__st8{fill:#0d77b3}.fider_svg__st11{fill:#f8a561}.fider_svg__st12{fill:#fad412}.fider_svg__st19{fill:#981c20}.fider_svg__st26{fill:#12827f}.fider_svg__st27{fill:#0c6355}.fider_svg__st29{fill:#16669f}</style><path d="m270.3 226.8-2.3.9-48.5 19.4 14.9 15.4z" class="fider_svg__st0"/><path d="m200.8 157.1-34.2 35.5 24.2 24.8c20.4-16.9 42-24.7 43.9-25.4z" class="fider_svg__st1"/><path d="M200.8 157.1 166 122.6l-33.5 34.9 34.1 35.2z" style="fill:#208ecb"/><path d="m152.8 109-16.3 6.6c-10.2 4.1-19.6 10-27.6 17.5l23.7 24.4 33.5-34.9z" style="fill:#273c8b"/><path d="m297.2 327.1 8.7-4.4c6.1-3.1 11.9-6.8 17.4-11l13.3-13.4-33.7-36-34.1 35.5z" style="fill:#f6944e"/><path d="m269.4 227.8-34.9 34.7 34.4 35.3 34.1-35.5z" class="fider_svg__st5"/><path d="M219.5 247.1 193 257.7c-7.8 2.3-14.4 6.7-19.9 12l27.2 28 34.1-35.1z" class="fider_svg__st6"/><path d="m190.7 217.5-24.1-24.9-34.5 35.1 27.7 28.2c7.9-16.1 19.3-28.7 30.9-38.4" style="fill:#c5d82d"/><path d="m132.5 157.5-34.2 35.2 33.8 35.2 34.5-35.1z" class="fider_svg__st8"/><path d="m132.5 157.5-23.7-24.4c-12.7 11.7-21.7 26.8-26.1 43.5l15.6 16.1z" style="fill:#2a377e"/><path d="M280.1 356.2 268.6 368l34.9 36.3c-1.5-4.6-3.8-10.5-6.1-14.9z" style="fill:#da2128"/><path d="m271.6 340 25.5-12.9-28.4-29.3-34.1 35.2 34 35 11.5-11.8z" class="fider_svg__st11"/><path d="m234.4 262.5-34.1 35.1 34.3 35.4 34.2-35.2z" class="fider_svg__st0"/><path d="M173.1 269.7c-15.8 15.2-22.8 37.8-22.8 37.8-.7-10.8.1-20.8 2.1-29.9l-20 20.6 33.7 34.7 34.2-35.2z" class="fider_svg__st12"/><path d="m159.9 256.1-27.8-28.2-31.3 32.1 8.7 14.5 22.9 23.5 20.1-20.7c1.6-7.2 4.1-14.4 7.4-21.2" style="fill:#c4d52d"/><path d="m98.3 192.6-18 18.2c1.5 12 5.5 24.3 12.2 35.4l8.3 13.8 31.3-32.2z" style="fill:#1b80c1"/><path d="M82.7 176.5c-2.9 11-3.8 22.8-2.3 34.3l18-18.2c-.1 0-15.7-16.1-15.7-16.1" style="fill:#1a4685"/><path d="m268.6 438.4 29.4 30.7c9.8-19.7 12.1-43 5.4-64.8l-.7-.7c.1 0-34.1 34.8-34.1 34.8" style="fill:#b12026"/><path d="m268.6 368-34 35.4 34 35 34.2-34.8z" style="fill:#e42028"/><path d="m234.6 333-34.3 35 34.3 35.3 34-35.3z" style="fill:#f16b4e"/><path d="m200.3 297.7-34.2 35.2 34.2 35.2 34.3-35z" class="fider_svg__st12"/><path d="m132.4 298.1-5.4 5.6 25.7 42.9 13.4-13.8z" class="fider_svg__st5"/><path d="m109.6 274.6 17.5 29.1 5.4-5.6z" class="fider_svg__st5"/><path d="m298 469.1-29.4-30.7-34.2 35.2 30.4 31.3c14.3-8.5 25.8-21 33.2-35.8" class="fider_svg__st19"/><path d="M234.6 403.4 205 433.6l15.1 25.2 14.4 14.8 34.2-35.2z" style="fill:#c92039"/><path d="m200.3 368-21.4 22.1 26.1 43.5 29.6-30.2z" style="fill:#f05b41"/><path d="m166.1 332.9-13.4 13.8 26.1 43.5 21.4-22.1z" class="fider_svg__st6"/><path d="m231.1 477.1 21 34.9 9.7-5.3c1-.5 2.2-1.3 3.2-1.8l-30.4-31.3z" style="fill:#7a1319"/><path d="m220.1 458.8 11 18.3 3.4-3.5z" class="fider_svg__st19"/><path d="M404.9 86.9 430 61.1c1.2-5.4 1.9-10.8 2.2-16.3l-26.9-27.7-34.1 35.2z" style="fill:#15796e"/><path d="m371.2 52.2 34.1-35.1-6.4-7-49.3 19.8z" style="fill:#29b364"/><path d="M414.3 96.6c7.2-10.2 12.8-23.4 15.7-35.5l-25.1 25.8z" style="fill:#21a29f"/><path d="M432.2 44.8c.7-14.8-1.8-30.3-8.2-44.8l-3.3 1.3L405.4 17zM420.7 1.3l-21.8 8.8 6.4 7z" class="fider_svg__st26"/><path d="M370.8 122.1 405 86.9l-33.7-34.6-34.1 35.1z" class="fider_svg__st27"/><path d="m302.9 52.3 34.2 35.2 34.1-35.2L349.5 30l-40.9 16.4z" style="fill:#1b974d"/><path d="m308.6 46.4-8.2 3.3 2.5 2.6z" class="fider_svg__st29"/><path d="M376.8 128.3c15-7.2 27.9-18.2 37.5-31.8l-9.4-9.6-34.2 35.2z" style="fill:#44bfbd"/><path d="m329.3 149.7 26-11.7 15.5-15.9-33.7-34.7-34.2 35.2z" style="fill:#0d5650"/><path d="m337.1 87.4-34.2-35.2-34.3 35 34.3 35.3z" style="fill:#3faf49"/><path d="m302.9 52.3-2.5-2.6L251 69.6l17.6 17.7z" class="fider_svg__st8"/><path d="M374.1 129.6c.8-.4 1.9-.9 2.7-1.3l-6-6.2-15.5 15.9z" class="fider_svg__st27"/><path d="M329.3 149.7 303 122.6l-34.2 35.2 12.9 13.3z" class="fider_svg__st26"/><path d="m302.9 122.6-34.3-35.3-34 35.3 34.1 35.1z" style="fill:#4eb648"/><path d="M268.6 87.3 251 69.6l-49.1 19.8 32.7 33.3z" class="fider_svg__st29"/><path d="M361.8 253.9c4.5-16.8 5-35.4.8-53.1l-26 26.8z" style="fill:#fbb139"/><path d="m317.3 208.1 19.3 19.6 26-26.8c-.8-3.3-1.7-6.6-2.8-9.8z" style="fill:#e2b523"/><path d="M268.8 157.8 236 191.5l45.6-20.4z" style="fill:#189590"/><path d="m235.9 191.5 32.8-33.8-34.2-35.2-33.9 34.5 33.9 35z" class="fider_svg__st1"/><path d="m234.6 122.6-32.7-33.3-5.3 2.1-30.6 31.2 34.8 34.5z" class="fider_svg__st8"/><path d="M196.6 91.4 152.8 109l13.2 13.6z" style="fill:#1953a2"/><path d="m336.6 298.3 8.1-8.7c7.8-10.8 13.6-22.9 17.1-35.7l-25.2-26.3-33.7 34.7z" class="fider_svg__st11"/><path d="m269.4 227.8 33.5 34.5 33.7-34.7-19.3-19.6-46.9 18.7z" style="fill:#e9b520"/></svg>