<?xml version="1.0" encoding="utf-8"?>
<!-- Generator: Adobe Illustrator 28.2.0, SVG Export Plug-In . SVG Version: 6.00 Build 0)  -->
<svg version="1.1" id="Layer_1" xmlns="http://www.w3.org/2000/svg" xmlns:xlink="http://www.w3.org/1999/xlink" x="0px" y="0px"
	 viewBox="0 0 512 512" style="enable-background:new 0 0 512 512;" xml:space="preserve">
<path d="M219.1,313.8h91.8l26.9,17.4H215.1l-55,170.3c-31.3-12.5-59.7-31.2-83.7-54.8c-24-23.6-43.1-51.8-56.1-82.8
	s-19.9-64.5-20-98.2s6.6-67.1,19.5-98.2C45.2,106.9,93,58.4,153.3,32s128.4-28.5,190.2-5.9c61.8,22.5,112.6,68,141.7,126.9
	c29.2,59,34.5,126.9,15,189.7c-14.7,47.7-43.3,89.9-82.1,121.3l-67.8-113l94.4,52.7c0,0,0.8-0.6,0-1.2l-123-106.7l159.6,24.4
	c0.6,0,0.8,0,0.8,0l-1-0.9L330.3,266L487,228.1c0,0,0,0,0-0.8l-160.4,10.5l125.8-95.3c0,0-0.8-0.8-1.1,0l-141.4,71.7l77.9-137.8
	c0,0,0-0.8-0.5,0l-101.7,119l19.7-157.5c0,0-0.6-0.6-1.1,0l-47,152.7l-41-157.5c0,0-0.9-0.5-1.2,0l11.3,163.4l-96.8-126
	c0,0-0.6,0-0.9,0L201.8,210L63.5,134.5c0,0-0.8,0-0.8,0.6l123.1,101.1L28.3,219.6c-0.6,0-0.6,0.8,0,1.1l152.8,44.6L29.4,309.7
	c-0.1,0.1-0.1,0.1-0.2,0.2c0,0.1-0.1,0.2-0.1,0.3s0,0.2,0.1,0.3c0,0.1,0.1,0.2,0.2,0.2L185.8,293L63,396.8c0,0-0.6,0.6,0,0.9
	l1.6-0.6l98.4-51.5l23-36.7h26.3L194.1,296l60.8-97.6L219.1,313.8z"/>
</svg>
