<?xml version="1.0" encoding="utf-8"?>
<!-- Generator: Adobe Illustrator 28.2.0, SVG Export Plug-In . SVG Version: 6.00 Build 0)  -->
<svg version="1.1" id="Layer_1" xmlns="http://www.w3.org/2000/svg" xmlns:xlink="http://www.w3.org/1999/xlink" x="0px" y="0px"
	 viewBox="0 0 512 512" style="enable-background:new 0 0 512 512;" xml:space="preserve">
<path d="M218.8,304.4h91.8l26.9,17.4H214.8l-55,170.3c-31.3-12.5-59.7-31.2-83.7-54.8c-24-23.6-43.1-51.8-56.1-82.8S0.1,290,0,256.3
	c-0.1-33.7,6.6-67.1,19.5-98.2C44.9,97.5,92.7,49,153,22.6s128.4-28.5,190.2-5.9c61.8,22.5,112.6,68,141.7,126.9
	c29.2,59,34.5,126.9,15,189.7c-14.7,47.7-43.3,89.9-82.1,121.3l-67.8-113l94.4,52.7c0,0,0.8-0.6,0-1.2l-123-106.7L481,310.8
	c0.6,0,0.8,0,0.8,0l-1-0.9L330,256.6l156.7-37.9c0,0,0,0,0-0.8l-160.4,10.5l125.8-95.3c0,0-0.8-0.8-1.1,0l-141.4,71.7L387.5,67
	c0,0,0-0.8-0.5,0L285.3,186l19.7-157.5c0,0-0.6-0.6-1.1,0l-47,152.7l-41-157.5c0,0-0.9-0.5-1.2,0L226,187.1l-96.8-126
	c0,0-0.6,0-0.9,0l73.2,139.5L63.2,125.1c0,0-0.8,0-0.8,0.6l123.1,101.1L28,210.2c-0.6,0-0.6,0.8,0,1.1l152.8,44.6L29.1,300.3
	c-0.1,0.1-0.1,0.1-0.2,0.2c0,0.1-0.1,0.2-0.1,0.3s0,0.2,0.1,0.3c0,0.1,0.1,0.2,0.2,0.2l156.4-17.7L62.7,387.4c0,0-0.6,0.6,0,0.9
	l1.6-0.6l98.4-51.5l23-36.7H212l-18.2-12.9l60.8-97.6L218.8,304.4z"/>
</svg>
