<svg xmlns="http://www.w3.org/2000/svg" xml:space="preserve" viewBox="0 0 512 512"><path d="M420 34.8c33.8 28.1 57.5 62.9 72.4 103.7 17.6 48.3 22.5 98.2 18.2 149.2-3.2 38.4-12.7 75.1-29.6 109.8-16 32.9-38.4 60.7-67.6 82.9-34.2 26-72.4 35.9-114.7 28.9-28.4-4.7-53-17.8-75.1-35.9-22.8-18.7-39.6-42.2-53.2-68.1-18-34.1-28.5-70.7-32.9-108.8-4.3-36.4-2.9-72.7 4.5-108.7 6-29.3 15.2-57.4 29.8-83.5 20.1-36 46.4-66.6 83.6-85.7C307.2-8 358.3-4.8 407.7 26c4.1 2.6 8 5.7 12.3 8.8M258.3 193.5c-17.3 42.1-17.5 84.2.4 126.1 7 16.4 18.1 29.9 33.5 39.2 22.1 13.3 47.3 12.9 69.6-3.8 17.9-13.4 28.1-31.9 34.6-52.7 8.7-27.9 9.3-56.4 3.2-84.9-5-23.2-15.6-43.5-33.8-59.5-20.6-18.1-51.3-20.2-74.2-5.1-15.2 10.1-25.4 24-33.3 40.7M35.7 345.4c9.5 31.2 24.2 59.3 45.3 83.9 19.6 22.9 43.4 39.9 72.5 48.7 18.6 5.6 37.4 6 56.4 2.9 3-.5 5.2-.1 7.6 1.8 4.9 3.9 10 7.6 16.1 12.2-8.1 2.3-15.1 4.8-22.4 6.3-35.1 7.1-67.7.3-98.5-17.6-29.3-17-51.9-40.8-69.6-69.3-20.9-33.7-33.2-70.7-39.2-109.8-5.5-36.3-5.4-72.6 1.3-108.7 8.6-45.9 25.4-88.3 56.1-124 39-45.4 88.2-66.9 148.6-59.4 7.6.9 15 3.5 22.5 5.4l.1 1.6c-5.4 4.1-10.7 8.2-16.2 12.2-.6.5-1.8.4-2.7.3-21.7-1.8-43.3-.6-64.3 5.5C130.5 42.7 114 52.7 99 65.2 77.3 83.3 61.4 105.6 49.4 131c-26 54.6-32.3 112-23.5 171.3 2.1 14.4 6.4 28.5 9.8 43.1m83.9-279.2 1.6-.8c2.6-1.7 4.8-3.2 7-4.8.4-.2.8-.4 1.6-.7.8-.4 1.6-.9 2.4-1.4.3-.1.6-.3 1.5-.5 7.5-3 14.3-6.7 23.2-6.6l-8.2 6-.3.1c-3.2 2.4-6.2 4.7-9.2 7.1l-.3.1c-1.2 1-2.1 2-3.1 2.9 0 0 .2.2-.1.2-.9.5-1.4 1.1-2 1.7-.3.1-.5.2-.9.7-.4.4-.6.6-.7.9-6.6 7.5-13.7 14.7-19.6 22.6-23.3 31.2-36 67-42.9 104.9-6.8 37.4-7 75.1-.7 112.6C75 347.5 86.5 382 107 413.1c11.2 16.9 24.6 31.6 40.2 44.4 1.8 1.5 3.5 3 5.2 4.5l-.6 1.2c-3.4-1-7-1.7-10.3-3.1-17.2-6.9-30.8-18.7-42.8-32.4-18.7-21.2-31.1-45.9-40-72.6C46.4 318.3 42.2 280.5 44 242c.8-17.2 3.8-34.3 6-52 2.1-8.1 4.1-15.7 6-23.2l.4-.6c.8-2.4 1.4-4.4 2-6.5.1-.3.2-.5.5-1.2 1.3-3.8 2.4-7.3 3.5-10.7.2-.2.3-.4.6-1.1 2.7-6.2 5.4-12.5 8.1-18.7 0 0 .2-.2.4-.6 3.3-5.7 6-11.2 9.4-16.4 5-7.7 10.4-15.1 15.6-22.6.2-.1.4-.3.8-.8.5-.4.6-.6.6-.9 0 0 .2-.2.5-.4 4.1-4.2 7.8-8.2 11.5-12.2.2-.1.4-.2.9-.7.8-.8 1.7-1.5 2.5-2.4.6-.5 1.2-.9 2.2-1.6 1.1-.9 1.8-1.6 2.5-2.3h.2c.7-.2 1-.5 1.4-.9m-13.5 263.5c.1.3.1.7.2 1.6 1.9 7.2 3.7 13.8 5.5 20.4.1.5.3.9.5 1.9 4.1 10.3 8 20.2 12 30 .1.4.2.9.5 1.7.3.6.5.9.7 1.1l.2.5c.4.7.6 1.1.9 1.5l.2.7c.5 1.1.9 1.8 1.4 2.5.1.4.3.7.5 1.4.1.5.2.6.4.6 0 0 0 .2.1.4.2.5.3.7.6.8 0 0 .1-.1.1.2 3.4 5.8 6.7 11.2 10.1 16.7 0 0 .1.2.2.6 2.7 3.9 5.3 7.4 7.8 11 0 0 .1 0 .1.2 2.5 3.4 5 6.4 7.6 9.5l.1.3c1.7 1.9 3.2 3.6 4.8 5.3.3.3.5.7 1.1 1.4l3.9 3.9c.2.2.3.4.7.9s.6.6.9.6c.4.5.8.9 1.5 1.7.5.5.7.6.9.7l.1.3c1.1 1 2.1 1.8 3.2 2.6l.4.6c3.4 3 6.6 5.7 9.8 8.3l.1.3c2.9 2.7 5.7 5.1 8.5 7.5 0 .2 0 .3-.4.6-3-.2-5.7-.5-8.3-.8-.5-.2-.9-.4-1.4-.6-3.8-2-7.1-3.7-10.4-5.4l-.4-.4c-1-.7-1.7-1.1-2.5-1.5-.1-.2-.3-.3-.8-.7-.8-.6-1.3-.9-1.9-1.2 0 0-.2-.2-.4-.5-.8-.6-1.3-.9-1.9-1.2l-.1-.2c-.3-.4-.5-.4-.7-.4 0 0-.2-.2-.5-.6-1.3-1-2.3-1.7-3.3-2.3-.1-.2-.3-.4-.8-.8-2.4-1.9-4.4-3.6-6.5-5.2l-1.2-1.2-3-2.4s0-.1-.2-.3c-1-.9-1.9-1.6-2.7-2.4l-5.4-5.7c-.5-.5-.7-.6-.9-.8l-.1-.2c-.2-.4-.5-.5-.7-.7-28.5-31.4-44.8-68.8-53.9-109.7-4.3-18.2-6.3-36.8-6.9-56.3.4-13.2.5-25.7 1.4-38.1.7-10.3 2.4-20.6 3.7-30.9.2-.6.3-1.3.6-2.4 1.1-4.8 2-9.2 2.9-13.5.1-.3.2-.6.5-1.4.1-.6.1-.7.1-.9 0 0 .1-.3.3-.6.2-.5.2-.8.2-1.1.1-.3.2-.6.5-1.4 2.7-8.5 5.5-17 8.2-25.5.1-.3.2-.6.6-1.3 2.5-5.8 4.8-11.2 7.1-16.6l.2-.2c.3-.6.4-1.1.5-1.5 0 0-.1 0 .2-.1.5-.9.8-1.6 1.1-2.4.2-.2.3-.4.7-1 1.8-3.3 3.4-6.3 4.9-9.2.1-.2.3-.4.7-1 4.2-6.2 8.1-12.1 12-18l.2-.1c.4-.3.5-.5.5-.7l.9-.9c.4-.4.4-.5.3-.7.1-.1.2-.2.7-.6 4.1-4.7 7.9-9.2 11.7-13.6l.5-.3c.4-.4.8-.8 1.2-1.3l.2-.1c4.1-3.7 7.8-7.4 11.6-11 .2-.1.4-.3.9-.7 1-.8 2-1.7 2.9-2.5 1.2-.9 2.5-1.8 4.1-3 .5-.4.7-.6.9-.9.4-.2.7-.4 1.5-.8 1.1-.9 1.9-1.6 2.6-2.2 0 0 .3-.1.6-.3.5-.2.7-.4.8-.7l2.4-1.5c.5-.4.7-.6.9-.8l1.6-.8c2.2-1.4 4-2.6 5.7-3.8l.6-.2c.7-.4 1-.7 1.3-1h.3c4.3-1.6 8.4-3.2 12.4-4.7h1.5c.6 0 .7 0 .9-.1.5.2.9.5 1.6 1.2-.7 2-1.6 3.6-2.6 5.1 0 0 .2.2-.2.1-1.7.8-3 1.7-4.3 2.5h-.3c-1.1.8-2 1.6-2.9 2.3l-.3.1c-2 1.6-3.8 3.1-5.5 4.7-1.5 1.3-3.1 2.5-4.6 3.7-.9.8-1.7 1.6-2.6 2.4-.9.9-1.9 1.7-2.8 2.6-.6.4-.7.6-.7.9l-.2.1c-.4.2-.6.4-.6.7-.3.1-.5.2-.9.7s-.5.7-.7.9c-.2.1-.4.3-.9.7-.4.4-.6.7-.7.9l-3.2 3.2c-1.8 2.1-3.2 3.8-4.6 5.6l-1.2 1.2c-.9 1.1-1.5 1.9-2 2.8l-.2.1c-.4.3-.5.5-.5.8 0 0-.1 0-.3.2-3 4-5.8 7.8-8.6 11.6-.3.3-.6.6-1.1 1.3-1.4 2-2.4 3.6-3.5 5.2 0 0-.2.2-.4.5-.3.5-.4.8-.4 1.1-.3.3-.5.7-1.1 1.3-2.2 3.7-4.1 7.1-6.1 10.5-.2.2-.3.4-.6 1-.4.7-.7 1.4-1 2.1 0 0 .1.1-.2.2-1.9 3.7-3.6 7.3-5.3 11l-.2.2c-.6 1.1-.9 2.1-1.3 3 0 0-.2.2-.4.5-.2.5-.3.8-.3 1.1-.4.8-.7 1.5-1.3 2.8-1.3 3.6-2.4 6.7-3.5 9.9-.2.2-.3.4-.6 1.1-4 14.1-8.5 27.6-11.5 41.4-2.4 11-3 22.3-4.4 33.5-.1.6-.1 1.2-.3 2.3-.2 16.6-.4 32.7-.3 48.8 0 3.8.8 7.6 1.2 11.4v1.6c.3 2.2.5 3.9.8 5.5 0 .6.1 1.2.1 2.4 1.5 9.7 3.3 19.3 5.1 28.8m18.1-81.5c0 4.3 0 8.5-.1 13.4-1.9 18 .6 35.2 3.1 52.2 1.8 12 5 23.9 8.2 35.7 2.8 10.2 6.4 20.2 9.9 30.3 1.6 4.6 3.5 9.1 5.6 13.5 3.2 6.8 6.6 13.4 10 20.1 2 4.1 4.1 8.2 6.2 12.2l-.9.6c-.8-1-1.7-1.9-2.4-2.9-6.8-10.6-14.1-21-20.2-32-5.5-9.9-10.2-20.4-14.5-31-3-7.4-4.7-15.3-6.8-23-2.4-8.6-5.2-17.1-6.7-25.9-1.9-11.1-3.5-22.5-3.9-33.7-1.1-29.7.2-59.2 6.8-88.4 4.3-18.9 11.2-36.7 18.2-54.6.4-1.1 1.1-2.1 1.7-3.1 4-6.7 7.8-13.4 12-19.9 2.4-3.8 5.4-7.3 8.1-10.9l1.5.8c-1.5 3.3-3 6.7-4.6 9.9-10.3 21.1-18.2 43.1-23.3 66.1-2.4 11-5.2 22.1-6.6 33.2-1.4 11.5-1.4 23.1-1.9 34.7 0 .9.4 1.8.6 2.7m.1-.3c-.3-.6-.7-1.5-.7-2.4.5-11.6.4-23.2 1.9-34.7 1.4-11.2 4.2-22.2 6.6-33.2 5.1-23 13-44.9 23.3-66.1 1.6-3.3 3.1-6.6 4.6-9.9l-1.5-.8c-2.7 3.6-5.6 7.1-8.1 10.9-4.2 6.5-8 13.3-12 19.9-.6 1-1.3 2-1.7 3.1-6.9 17.9-13.8 35.7-18.2 54.6-6.7 29.2-7.9 58.7-6.8 88.4.4 11.3 1.9 22.6 3.9 33.7 1.5 8.7 4.3 17.3 6.7 25.9 2.1 7.7 3.9 15.6 6.8 23 4.3 10.6 9 21 14.5 31 6.1 11 13.4 21.4 20.2 32 .7 1 1.6 1.9 2.4 2.9l.9-.6c-2.1-4.1-4.2-8.1-6.2-12.2-3.4-6.7-6.8-13.3-10-20.1-2.1-4.4-4-8.9-5.6-13.5-3.5-10-7.1-20-9.9-30.3-3.2-11.8-6.4-23.7-8.2-35.7-2.6-17-5.1-34.2-3.2-51.8 1.8 16.6 3.1 33.6 5.3 50.4 2.7 20.7 8.3 40.8 15.4 60.4 7 19.4 15.9 37.9 26.2 55.7 1 1.7 1.5 3.6 2.2 5.5l-1.1.7c-1.1-1-2.4-1.8-3.3-2.9-15.4-17.8-27.5-37.6-36.7-59.2-19-44.7-25-91.5-21.6-139.7 2.5-35.4 10.8-69.2 26.3-101.1 7.8-15.9 17.9-30.4 29.9-43.5.9-1 2-1.9 3.6-2.5-13 25.2-25.7 50.5-32.9 78-7.2 27.4-12.1 55.3-13 84.1"/></svg>