<svg xmlns="http://www.w3.org/2000/svg" xml:space="preserve" viewBox="0 0 512 512"><path d="M129.6 452.2c-32.7 0-64.1-13.4-88.6-37.8-26.1-25.9-41-62-41-98.9 0-36.4 14.1-70.7 39.7-96.6 21.7-21.9 49.5-35.5 79.6-39.3 3.7-30.2 17.3-58.2 39.1-80 25.8-25.8 60-40 96.5-40 69.5 0 127.1 52.4 135.6 119.8C458.7 187 512 245.1 512 315.5c0 36.5-14.2 70.7-40.1 96.3-25.7 25.4-60 39.5-96.5 39.5l-244.5.9zm-.4-237.8c-52.3 3.8-93.8 47.9-93.8 101.2 0 27.5 11.1 54.4 30.6 73.8 17.8 17.7 40.4 27.4 63.6 27.4h.4c21.5-.1 40-3.8 55.4-11.1 9.2-4.4 17.3-10.2 24.2-17.2 22.6-22.9 28.2-54.4 28.6-78.2 0-1.6 0-2.9-.1-4-.4-10.3-3.2-21.1-8-31.5-5.1-10.6-12.4-20.8-21.3-29.7-9.8-9.8-21-17.5-32.9-22.7-11.2-4.7-24.6-7.8-40.2-7.9zm144.5 95.8c0 22.4-4.5 67.4-37.7 102l-4.2 4.2 143.5-.5c55.9 0 101.3-45 101.3-100.3 0-54.6-43.3-99.3-97.2-101.4l-4.6.2c-18.3.8-33.3 5.3-45.5 11.4-10.6 5.6-20.6 13-29.3 22.1-.6.6-1.2 1.3-1.8 1.9-.3.3-.5.6-.8.9-14.3 16.5-21.6 35.3-23.3 48.8-.2 1.8-.2 3.6-.2 5.4v.6h-.2c.1 1.6.1 3.2 0 4.7m-77-117.4c14.5 7 27.8 16.6 39.3 28.5 7.6 7.9 14.3 16.7 19.8 26 4.5-7.4 9.9-14.5 16.1-21.3 10.6-12 26-25.3 47.1-34.7 11.5-5.3 23.6-9.1 35.9-11.1C347.1 132 305.2 95 255 95c-50 0-91.7 36.7-99.8 84.7 14.3 2.1 28.3 6.5 41.5 13.1"/></svg>