<svg xmlns="http://www.w3.org/2000/svg" xml:space="preserve" id="filepizza_svg__Layer_1" x="0" y="0" version="1.1" viewBox="0 0 512 512"><style>.filepizza_svg__st4{fill:#521e11}</style><path d="M250.4 3c20.8 0 53.6.7 72.9 5.5 13.4 3.3 41.8 22.1 54.1 27.4 17.3 7.6 42.8 18.6 56.6 29 14.1 10.5 23.2 30.1 32.8 43.2 11.2 15.2 25.8 32.7 32.4 49.9 5.9 15.5 5.7 35.6 6.6 53.6.7 14.4 3.2 26.1 3.2 43.4 0 16.4 1.4 33-1.6 48.6-2.4 12.7-20.5 42.7-24.8 54.7-8.2 22.5-15.9 48.3-28.7 65.8-11.6 15.9-40.2 31.2-55.6 42.3-14.2 10.2-25.5 25.4-40.1 31.6-9.4 4-37.9 4.4-48.5 5.9-21.1 2.8-43.3 5.3-70.1 5.3-15.7 0-61.8-15.5-76.3-18.2-26.3-5-46.8-13.3-66-25-15.3-9.4-32.3-38-43.6-51.2-12.8-14.9-30.1-38.4-37.6-54.8-14-30.6-9.5-42.8-12.8-95.1-1.1-17-.7-37.7 1.5-56.9 1.4-12.1 3.5-23.7 6.5-33.3 8.4-27.3 15.1-48.8 32.8-71C58.2 85.8 85 65.8 104.8 52.9c16.3-10.7 29.5-27.2 46.4-34.9 31.5-14.4 62-15 99.2-15" style="fill-rule:evenodd;clip-rule:evenodd;fill:#a9652e"/><path d="M250.6 10c20.2 0 51.9.7 70.6 5.3 13 3.2 40.5 21.4 52.4 26.5 16.8 7.3 41.4 18.1 54.8 28C442 80 450.8 99 460.2 111.6c10.9 14.7 25 31.6 31.3 48.3 5.7 15 5.5 34.4 6.4 51.9.7 13.9 3.1 25.3 3.1 42 0 15.9 1.3 32-1.6 47-2.4 12.3-19.9 41.4-24 52.9-7.9 21.8-15.4 46.7-27.8 63.7-11.2 15.4-38.9 30.2-53.8 40.9-13.7 9.9-24.7 24.6-38.8 30.6-9.1 3.9-36.7 4.3-47 5.7-20.4 2.7-41.9 5.1-67.9 5.1-15.2 0-59.8-15-73.9-17.7-25.5-4.9-45.3-12.8-64-24.3-14.8-8.8-31.2-36.4-42.2-49.3-12.4-14.4-29.1-37.1-36.4-53.1-13.5-29.6-9.2-41.5-12.4-92.1-1-16.4-.7-36.5 1.4-55.1 1.3-11.7 3.4-22.9 6.3-32.3 8.2-26.4 14.7-47.3 31.8-68.7 13.7-17.1 39.6-36.4 58.8-49 15.8-10.3 28.5-26.4 44.9-33.8C185 10.6 214.5 10 250.6 10" style="fill-rule:evenodd;clip-rule:evenodd;fill:#c3783a"/><path d="M256.5 25.2c30.3 0 48.5 2.1 71.3 12.6 12.9 6 31.2 17.9 44.3 25.6 14 8.2 39.6 12.7 50.8 23.6 10.7 10.4 15.7 23.1 24.2 35.5 12.4 18 28.2 28.3 33.8 52.1 1.6 7.1.4 25.8 1.3 38.9 1.2 18 4.2 31.2 4.2 41.6 0 13.2-.1 22.4-3.4 34.5-4.8 18.2-14.3 38.8-21.8 56.4-9.4 22-16.2 46-31.8 63.3-12 13.4-27.9 20.7-42.4 31.5-15.3 11.3-28.7 27.1-46.4 34.1-11.5 4.5-23.4 3-35.7 4.4-15.6 1.7-31.7 5.7-48.3 5.7-25.4 0-53.2-11.5-78-19.2-21-6.5-39.7-8.4-54.9-18.2-22.3-14.4-29-29.2-44.9-51.2-13.1-18.1-30.4-34.3-36.9-57.8-5.5-20.2-7.5-56.9-7.5-79.2 0-26-3.3-55.1 4.7-78.4 10-29.3 17.2-53 38.2-74.4 12.4-12.7 36.4-25.2 50.6-35.7 16-11.9 27-27.6 46.4-34.5 14.5-5.2 27.8-5.7 45-7.1 11.2-1.4 26.4-4.1 37.2-4.1" style="fill-rule:evenodd;clip-rule:evenodd;fill:#b52720"/><path d="M256.6 32.2c29.4 0 47 2 69.1 12.2 12.5 5.8 30.2 17.3 43 24.8 13.6 8 38.4 12.3 49.3 22.8 10.4 10.1 15.2 22.4 23.4 34.4 12 17.4 27.4 27.4 32.8 50.5 1.6 6.9.4 25 1.2 37.7 1.2 17.5 4 30.2 4 40.3 0 12.8-.1 21.7-3.3 33.5-4.7 17.6-13.9 37.6-21.2 54.6-9.1 21.3-15.8 44.6-30.8 61.3-11.7 13-27 20.1-41.1 30.6-14.8 11-27.8 26.3-45 33-11.1 4.4-22.7 2.9-34.7 4.2-15.1 1.7-30.7 5.5-46.8 5.5-24.6 0-51.6-11.2-75.6-18.6-20.4-6.3-38.5-8.1-53.2-17.7-21.6-14-28.1-28.4-43.5-49.7-12.7-17.5-29.5-33.2-35.7-56-5.4-19.6-7.2-55.1-7.2-76.7 0-25.2-3.2-53.4 4.5-76 9.7-28.4 16.7-51.4 37-72.1 12.1-12.3 35.3-24.4 49-34.6 15.5-11.5 26.2-26.7 45-33.5 14.1-5 27-5.5 43.6-6.9 11-1 25.7-3.6 36.2-3.6" style="fill-rule:evenodd;clip-rule:evenodd;fill:#e03c32"/><path d="M239.6 511.7c-10.5 0-32.8-6.3-52.5-11.9-10.4-2.9-19.3-5.5-24.3-6.4-25.3-4.8-46.5-12.9-66.9-25.4-11-6.7-22.3-22.3-32.4-36.1-4.3-6-8.4-11.6-11.9-15.6-13.5-15.7-30.5-38.9-38-55.4C3.2 338 2.8 325.1 2.1 299.4c-.3-9.6-.6-20.6-1.5-34.6-1.1-18.2-.6-39.1 1.5-57.4 1.5-13.1 3.7-24.5 6.6-33.8 8.5-27.5 15.2-49.1 33.3-71.9 16.6-20.7 48.4-42.6 61.3-51 6.6-4.3 12.8-9.8 18.9-15.1 8.7-7.6 17.6-15.4 27.8-20C181.2 1.4 210 .3 250.4.3c23.2 0 54.8 1 73.6 5.6 8.7 2.1 22.9 10.2 35.5 17.4 7.4 4.2 14.5 8.2 19 10.2l.3.1c17.1 7.4 42.9 18.7 56.9 29.1 10.2 7.6 17.9 19.8 24.7 30.6 3 4.7 5.8 9.2 8.7 13.1 1.9 2.6 4 5.3 6 8 9.9 13.1 21.1 27.9 26.7 42.5 5.1 13.4 5.8 29.7 6.4 45.5.1 3 .2 6 .4 9 .3 5.6.8 10.7 1.4 16.2.9 8.2 1.8 16.8 1.8 27.4 0 3.9.1 7.9.2 11.7.2 12.4.5 25.3-1.8 37.4-1.5 8-8.8 22.2-15.2 34.8-4.1 8.1-8 15.7-9.7 20.3-1.4 3.8-2.7 7.6-4.1 11.5-6.9 19.7-14.1 40-25 55-8.7 11.9-26 23.1-41.3 32.9-5.5 3.6-10.7 6.9-14.9 9.9-5.3 3.9-10.4 8.5-15.2 13.1-7.9 7.3-16 14.9-25.4 18.8-6.9 2.9-22 4-35.3 4.9-5.7.4-10.7.7-13.9 1.2-20.7 2.6-43.5 5.2-70.6 5.2m10.8-506c-39.7 0-68 1-98.2 14.7-9.5 4.3-17.8 11.6-26.5 19.2-6.2 5.4-12.5 11-19.5 15.5-9.9 6.5-43.5 29.2-60.1 50C28.6 127 22 148.3 13.7 175.2c-2.8 9-4.9 20-6.4 32.8-2.1 18-2.6 38.5-1.5 56.4.9 14.2 1.2 25.6 1.5 34.8.7 25.7 1.1 37.5 11 59.3 7.3 15.9 24.4 39.2 37.2 54.2 3.6 4.2 7.8 9.9 12.2 16 9.7 13.4 20.7 28.5 30.8 34.7 19.8 12.2 40.5 20 65.2 24.7 5.2 1 14.3 3.6 24.8 6.5 18.4 5.2 41.3 11.7 51 11.7 25.3 0 46.2-2.1 69.8-5.2 3.4-.5 8.4-.8 14.3-1.2 11.6-.8 27.5-1.9 33.6-4.5 8.5-3.6 16-10.5 23.8-17.8 5-4.6 10.1-9.4 15.7-13.5 4.3-3.1 9.5-6.5 15.1-10.1 14.9-9.6 31.7-20.5 39.9-31.6 10.4-14.3 17.4-34.3 24.2-53.6 1.4-3.9 2.7-7.8 4.1-11.6 1.8-4.9 5.8-12.7 10-20.9 6.3-12.2 13.3-26.1 14.7-33.3 2.2-11.6 2-24.1 1.7-36.3-.1-3.9-.2-7.9-.2-11.8 0-10.3-.9-18.7-1.7-26.8-.6-5.5-1.1-10.7-1.4-16.4-.2-3-.3-6-.4-9-.6-15.3-1.2-31.2-6.1-43.8-5.3-13.9-16.3-28.4-25.9-41.2-2.1-2.8-4.1-5.4-6.1-8.1-3-4-5.8-8.6-8.9-13.4C449 85.3 441.9 74 432.5 67c-13.5-10.1-39-21.2-55.8-28.5l-.3-.1c-4.8-2.1-11.9-6.1-19.5-10.4-12.3-7-26.2-14.9-34.2-16.8-14.4-3.7-39.4-5.5-72.3-5.5m6.1 481.7c-20.6 0-42.2-7.2-63.1-14.2-5.5-1.8-10.6-3.5-15.7-5.1-6.6-2-12.9-3.6-19-5.1-13.2-3.3-25.8-6.4-36.6-13.4-18-11.6-26.2-23.6-36.5-38.8-2.8-4.2-5.7-8.5-9.1-13.1-3.3-4.6-7-9.2-10.6-13.6-10.7-13.3-21.7-27-26.7-45-6-21.7-7.6-60.4-7.6-79.9 0-5.8-.2-11.9-.3-17.8-.6-21.1-1.2-42.9 5.1-61.5l1.8-5.3c9-26.6 16.9-49.6 37-70.1 8.1-8.3 20.6-16.2 32.7-23.9 6.7-4.3 13.1-8.3 18.2-12.1 5.3-3.9 10.1-8.3 14.7-12.6 9.3-8.6 19-17.5 32.4-22.3 13-4.6 25.2-5.6 39.3-6.8 2.1-.2 4.2-.3 6.4-.5 4.2-.4 8.8-.9 13.7-1.6 8.3-1.1 16.9-2.2 23.9-2.2 30.2 0 48.7 1.9 72.4 12.9 9.3 4.3 21.4 11.7 32.1 18.2 4.4 2.7 8.7 5.3 12.4 7.5 5.5 3.2 12.8 5.8 20.6 8.6 11.6 4.2 23.7 8.5 30.7 15.3 7.3 7 11.8 14.9 16.7 23.2 2.4 4.2 4.9 8.5 7.8 12.7 3.8 5.5 8 10.4 12.1 15.1 9.3 10.8 18.1 20.9 22.1 37.9 1 4.4 1 12.2 1 21.2 0 6.2 0 12.7.3 18.1.6 8.6 1.5 16 2.4 22.6 1 7.3 1.8 13.5 1.8 19.1 0 13.8-.2 23.1-3.5 35.2-4.2 15.7-11.8 33.4-18.6 48.9-1.2 2.7-2.3 5.3-3.4 7.8-2.2 5-4.2 10.3-6.2 15.4-6.8 17.2-13.7 35-26 48.6-8.2 9.2-18.3 15.7-28.1 21.9-4.9 3.1-9.9 6.4-14.8 10s-9.7 7.8-14.3 11.9c-10 8.7-20.3 17.7-32.6 22.5-8.2 3.2-16.7 3.5-24.8 3.8-3.8.1-7.7.3-11.6.7-5.3.6-10.6 1.4-16.3 2.3-10.4 1.8-21.2 3.5-32.2 3.5m0-459.6c-6.6 0-15 1.1-23.2 2.1-4.9.6-9.6 1.2-13.9 1.6-2.2.2-4.3.4-6.4.5-14.3 1.2-25.6 2.1-37.9 6.5-12.4 4.4-21.2 12.6-30.6 21.2-4.8 4.4-9.7 8.9-15.1 13-5.2 3.9-11.7 8-18.5 12.3-11.8 7.5-24.1 15.3-31.8 23.1-19.3 19.6-26.6 41-35.8 68.1l-1.8 5.3c-6 17.6-5.4 39-4.9 59.6.2 5.9.3 12.1.3 18 0 19.2 1.6 57.2 7.4 78.4 4.6 16.9 15.4 30.2 25.7 43.1 3.6 4.5 7.4 9.1 10.8 13.9 3.4 4.7 6.4 9.1 9.2 13.3 10.4 15.2 17.9 26.3 35 37.3 10.1 6.5 21.6 9.4 35 12.7 6.2 1.5 12.6 3.1 19.3 5.2 5.2 1.6 10.4 3.3 15.8 5.2 20.5 6.8 41.7 13.9 61.4 13.9 10.6 0 21.2-1.7 31.5-3.3 5.4-.9 11.1-1.8 16.5-2.4 4.1-.5 8.1-.6 12-.7 8.1-.3 15.7-.6 23.1-3.5 11.5-4.5 21.5-13.2 31.1-21.6 4.7-4.1 9.6-8.4 14.7-12.1 5-3.7 10.1-7 15.1-10.2 9.9-6.4 19.2-12.4 27-21 11.6-12.9 18.4-30.2 25-47 2-5.1 4.1-10.4 6.3-15.5 1.1-2.6 2.2-5.2 3.4-7.8 6.7-15.4 14.2-32.8 18.3-48.2 3.1-11.7 3.3-20.5 3.3-33.8 0-5.2-.8-11.4-1.7-18.4-.9-6.7-1.9-14.3-2.4-23-.4-5.6-.4-12.1-.4-18.5 0-8.3 0-16.2-.9-20-3.7-15.7-12-25.4-20.9-35.6-4.2-4.8-8.5-9.8-12.5-15.6-3-4.4-5.6-8.8-8.1-13-4.6-8-9-15.5-15.8-22-6.3-6.1-17.7-10.2-28.8-14.2-8-2.9-15.6-5.6-21.5-9-3.8-2.2-8.1-4.8-12.5-7.5-10.6-6.4-22.5-13.7-31.5-17.9-23-10.6-41-12.5-70.3-12.5" class="filepizza_svg__st4"/><path d="M256.5 42.6c35.3 0 62.1 7.4 91.6 24.7 41.5 24.3 29.1 22.6 54.3 46.5 20.8 19.7 36.5 24.5 44.6 40.6 11.3 22.5 16.9 75.9 19.7 100.6 2 17.1-13.6 46.3-19.7 59.2-15.6 32.7-12.1 58.5-26.3 76.7-17.7 22.9-52.2 35-62.5 45.9-27.7 29-36.1 25.5-91.5 21.2-17.2-1.3-49.7 3.1-63.4-3.7-33.5-16.5-38-23.6-50.7-31-19.2-11.2-42.4-21.8-57-36.9-24-24.9-44.6-61.5-41.7-102.4 2.4-34.7 7.8-94.1 14.4-117.5 4.6-16.2 18-41.8 35-56.3 7-6 35.3-25.4 43.1-30.5 9.1-5.9 40.9-23.5 50.8-27.5 18.5-7.7 38.7-9.6 59.3-9.6" style="fill-rule:evenodd;clip-rule:evenodd;fill:#eba900"/><path d="M256.6 51c33.9 0 59.6 7.1 88 23.7 39.8 23.3 27.9 21.7 52.2 44.6 20 18.9 35 23.5 42.8 39 10.9 21.6 16.2 72.8 18.9 96.5 1.9 16.4-13.1 44.4-18.9 56.8-15 31.4-11.6 56.1-25.2 73.6-17 21.9-50.1 33.6-60 44-26.6 27.9-34.7 24.5-87.8 20.4-16.5-1.3-47.7 3-60.9-3.5-32.2-15.9-36.5-22.7-48.7-29.8-18.4-10.8-40.7-20.9-54.7-35.4-23.1-23.9-42.8-59-40.1-98.3 2.3-33.3 7.5-90.3 13.8-112.8 4.4-15.6 17.3-40.1 33.6-54 6.7-5.8 33.9-24.4 41.4-29.3 8.7-5.7 39.3-22.5 48.8-26.4 17.7-7.3 37.1-9.1 56.8-9.1" style="fill-rule:evenodd;clip-rule:evenodd;fill:#fcc534"/><path d="M309.8 463.4c-8.2 0-18-.8-30.4-1.8-4-.3-8.3-.7-12.9-1-5.6-.4-12.9-.2-20.7 0-15.9.4-33.9.9-43.7-3.9-22.9-11.3-32.4-18.2-40.1-23.8-3.6-2.7-6.8-4.9-10.8-7.3-4.6-2.7-9.3-5.3-14.2-8-15.7-8.6-32-17.6-43.3-29.3-29.5-30.5-45-68.6-42.5-104.4 2.8-40.7 8.3-96 14.5-118 5-17.7 18.8-43.1 35.8-57.6 7.1-6.1 35.3-25.4 43.4-30.7 8.9-5.8 40.8-23.5 51.3-27.8 16.3-6.7 34.9-9.7 60.4-9.7 35.6 0 62.6 7.3 93 25.1 27.9 16.3 32 21.3 38.8 29.6 3.4 4.1 7.6 9.2 16 17.2 8.1 7.7 15.5 13.1 21.9 17.8 10.1 7.4 18 13.2 23.2 23.5 10.9 21.8 16.5 71 19.5 97.5l.5 4c1.8 15.9-10.4 40.9-17.6 55.8-.9 1.8-1.7 3.4-2.3 4.8-7.3 15.3-10.4 29.2-13.1 41.4-3.1 13.8-5.7 25.8-13.5 35.8-11.2 14.5-28.9 24.7-43 32.9-8.6 5-16 9.3-19.7 13.2-19 19.6-29.7 24.7-50.5 24.7m-51.5-8.4c3.1 0 6.1.1 8.7.3 4.6.4 8.9.7 12.9 1 44 3.6 52 4.2 76.4-21.5 4.2-4.5 12-8.9 20.9-14.1 13.8-8 30.9-17.9 41.5-31.6 7-9.1 9.6-20.5 12.5-33.7 2.8-12.5 5.9-26.6 13.5-42.5.7-1.4 1.5-3.1 2.4-4.9 6.6-13.4 18.8-38.4 17.1-52.8l-.5-4c-3-26.1-8.5-74.8-19-95.7-4.6-9.1-11.7-14.4-21.6-21.6-6.6-4.8-14.1-10.3-22.4-18.3-8.6-8.2-13-13.4-16.5-17.7-6.7-8.1-10.4-12.6-37.4-28.4-29.5-17.3-55.7-24.4-90.3-24.4-24.7 0-42.7 2.9-58.3 9.3-9.4 3.9-41.1 21.2-50.4 27.3-7.8 5.1-36 24.5-42.8 30.3-16 13.7-29.5 38.5-34.1 55-6.1 21.6-11.5 76.5-14.3 117-2.4 34.4 12.6 70.9 41 100.4 10.8 11.2 26.7 19.9 42.1 28.4 4.8 2.6 9.7 5.4 14.4 8.1 4.2 2.5 7.5 4.8 11.2 7.6 7.5 5.5 16.8 12.3 39.3 23.4 8.6 4.2 25.9 3.8 41.2 3.4 4.3-.2 8.6-.3 12.5-.3" class="filepizza_svg__st4"/><path d="M134.2 197.2c-16.9 0-30.6-13.7-30.6-30.6s13.7-30.6 30.6-30.6 30.6 13.7 30.6 30.6-13.7 30.6-30.6 30.6m191.9 72.1c-14.5 0-26.3-11.8-26.3-26.3s11.8-26.3 26.3-26.3 26.3 11.8 26.3 26.3-11.8 26.3-26.3 26.3m-10.8-135.2c-17.6 0-31.8-14.2-31.8-31.8s14.2-31.8 31.8-31.8 31.8 14.2 31.8 31.8-14.2 31.8-31.8 31.8M106.7 287.7c-16 0-29-13-29-29s13-29 29-29 29 13 29 29-13 29-29 29M213 319.5c-17.6 0-31.8-14.2-31.8-31.8s14.2-31.8 31.8-31.8 31.8 14.2 31.8 31.8c0 17.5-14.2 31.8-31.8 31.8m162.2 28.4c-17.6 0-31.8-14.2-31.8-31.8s14.2-31.8 31.8-31.8 31.8 14.2 31.8 31.8-14.2 31.8-31.8 31.8m44.6-74.6c-10.8 0-19.5-8.7-19.5-19.5s8.7-19.5 19.5-19.5 19.5 8.7 19.5 19.5c.1 10.7-8.7 19.5-19.5 19.5M213 422.2c-20.5 0-37.1-16.6-37.1-37.1S192.5 348 213 348s37.1 16.6 37.1 37.1-16.6 37.1-37.1 37.1" style="fill:#d53b1c"/><path d="M115.3 190.7c-3.8-5.2-6.1-11.7-6.1-18.7 0-17.3 13.8-31.3 30.8-31.3 6 0 11.6 1.7 16.3 4.7 5.3 5.5 8.5 13 8.5 21.2 0 16.9-13.7 30.6-30.6 30.6-7.1 0-13.7-2.4-18.9-6.5m194.6 73c-3.3-4.5-5.2-10-5.2-16.1 0-14.9 11.8-26.9 26.4-26.9 5.1 0 9.9 1.5 14 4.1 4.5 4.7 7.3 11.1 7.3 18.2 0 14.5-11.8 26.3-26.3 26.3-6.1 0-11.8-2.1-16.2-5.6m-14.2-136.4c-4-5.4-6.3-12.1-6.3-19.4 0-18 14.3-32.5 32-32.5 6.2 0 12 1.8 16.9 4.9 5.5 5.7 8.8 13.5 8.8 22 0 17.5-14.2 31.8-31.8 31.8-7.4 0-14.2-2.5-19.6-6.8M88.8 281.5c-3.6-5-5.8-11.1-5.8-17.7 0-16.4 13.1-29.7 29.2-29.7 5.7 0 11 1.6 15.4 4.5 5 5.2 8.1 12.3 8.1 20.1 0 16-13 29-29 29-6.7 0-13-2.3-17.9-6.2m104.6 31.2c-4-5.4-6.3-12.1-6.3-19.4 0-18 14.3-32.5 32-32.5 6.2 0 12 1.8 16.9 4.9 5.5 5.7 8.8 13.5 8.8 22 0 17.5-14.2 31.8-31.8 31.8-7.4 0-14.2-2.6-19.6-6.8m162.2 28.4c-4-5.4-6.3-12.1-6.3-19.4 0-18 14.3-32.5 32-32.5 6.2 0 12 1.8 16.9 4.9 5.5 5.7 8.8 13.5 8.8 22 0 17.5-14.2 31.8-31.8 31.8-7.4 0-14.2-2.5-19.6-6.8m52.2-72c-2.4-3.3-3.9-7.5-3.9-11.9 0-11 8.8-20 19.6-20 3.8 0 7.4 1.1 10.4 3 3.4 3.5 5.4 8.3 5.4 13.5 0 10.8-8.8 19.5-19.5 19.5-4.5 0-8.7-1.5-12-4.1M190.2 414.4c-4.6-6.3-7.4-14.2-7.4-22.7 0-20.9 16.7-37.9 37.3-37.9 7.2 0 14 2.1 19.7 5.7 6.4 6.7 10.3 15.7 10.3 25.7 0 20.5-16.6 37.1-37.1 37.1-8.6-.1-16.5-3-22.8-7.9" style="fill-rule:evenodd;clip-rule:evenodd;fill:#e84827"/><path d="M134.2 199.9c-18.4 0-33.3-14.9-33.3-33.3s14.9-33.3 33.3-33.3 33.3 14.9 33.3 33.3-14.9 33.3-33.3 33.3m0-61.3c-15.4 0-28 12.5-28 28s12.5 28 28 28 28-12.5 28-28-12.6-28-28-28m191.9 133.3c-16 0-29-13-29-29s13-29 29-29 29 13 29 29-13 29-29 29m0-52.6c-13 0-23.6 10.6-23.6 23.6s10.6 23.6 23.6 23.6 23.6-10.6 23.6-23.6-10.6-23.6-23.6-23.6m-10.8-82.5c-19 0-34.5-15.5-34.5-34.5s15.5-34.5 34.5-34.5 34.5 15.5 34.5 34.5-15.5 34.5-34.5 34.5m0-63.6c-16.1 0-29.1 13.1-29.1 29.1 0 16.1 13.1 29.1 29.1 29.1 16.1 0 29.1-13.1 29.1-29.1 0-16.1-13-29.1-29.1-29.1M106.7 290.3c-17.5 0-31.7-14.2-31.7-31.7s14.2-31.7 31.7-31.7 31.7 14.2 31.7 31.7-14.2 31.7-31.7 31.7m0-58c-14.5 0-26.4 11.8-26.4 26.4 0 14.5 11.8 26.4 26.4 26.4 14.5 0 26.4-11.8 26.4-26.4s-11.9-26.4-26.4-26.4M213 322.1c-19 0-34.5-15.5-34.5-34.5s15.5-34.5 34.5-34.5 34.5 15.5 34.5 34.5c0 19.1-15.5 34.5-34.5 34.5m0-63.6c-16.1 0-29.1 13.1-29.1 29.1s13.1 29.1 29.1 29.1 29.1-13.1 29.1-29.1-13-29.1-29.1-29.1m162.2 92c-19 0-34.5-15.5-34.5-34.5s15.5-34.5 34.5-34.5 34.5 15.5 34.5 34.5-15.5 34.5-34.5 34.5m0-63.5c-16.1 0-29.1 13.1-29.1 29.1 0 16.1 13.1 29.1 29.1 29.1 16.1 0 29.1-13.1 29.1-29.1.1-16.1-13-29.1-29.1-29.1m44.6-11.1c-12.2 0-22.2-10-22.2-22.2s10-22.2 22.2-22.2 22.2 10 22.2 22.2c0 12.3-9.9 22.2-22.2 22.2m0-39.1c-9.3 0-16.9 7.6-16.9 16.9s7.6 16.9 16.9 16.9 16.9-7.6 16.9-16.9-7.6-16.9-16.9-16.9M213 424.9c-21.9 0-39.7-17.8-39.7-39.7s17.8-39.7 39.7-39.7 39.7 17.8 39.7 39.7-17.7 39.7-39.7 39.7m0-74.2c-19 0-34.4 15.4-34.4 34.4s15.4 34.4 34.4 34.4 34.4-15.4 34.4-34.4c.1-18.9-15.4-34.4-34.4-34.4" style="fill:#8d3a2b"/><path d="M130.8 154.1c-2.4 0-4.3-1.9-4.3-4.3s1.9-4.3 4.3-4.3 4.3 1.9 4.3 4.3-1.9 4.3-4.3 4.3m13.7 32c-3.7 0-6.6-3-6.6-6.6 0-3.7 3-6.6 6.6-6.6s6.6 3 6.6 6.6-3 6.6-6.6 6.6m4.3-25.6c-3.6 0-6.5-2.9-6.5-6.5s2.9-6.5 6.5-6.5 6.5 2.9 6.5 6.5c-.1 3.7-3 6.5-6.5 6.5m-33.1 2.8c-1.8 0-3.2-1.4-3.2-3.2s1.4-3.2 3.2-3.2 3.2 1.4 3.2 3.2c.1 1.7-1.4 3.2-3.2 3.2m16.5 26.3c-1.2 0-2.1-1-2.1-2.1s1-2.1 2.1-2.1c1.2 0 2.1 1 2.1 2.1s-.9 2.1-2.1 2.1m4.3-29.8c-1.2 0-2.1-1-2.1-2.1 0-1.2 1-2.1 2.1-2.1 1.2 0 2.1 1 2.1 2.1.1 1.1-.9 2.1-2.1 2.1m-12.3 25.5c-4.4 0-8.1-3.6-8.1-8.1 0-4.4 3.6-8.1 8.1-8.1 4.4 0 8.1 3.6 8.1 8.1-.1 4.5-3.7 8.1-8.1 8.1m198.9 47c-2 0-3.7-1.7-3.7-3.7s1.7-3.7 3.7-3.7 3.7 1.7 3.7 3.7-1.6 3.7-3.7 3.7m11.8 27.4c-3.1 0-5.7-2.6-5.7-5.7s2.6-5.7 5.7-5.7 5.7 2.6 5.7 5.7c0 3.2-2.6 5.7-5.7 5.7m3.7-21.9c-3.1 0-5.5-2.5-5.5-5.5s2.5-5.5 5.5-5.5c3.1 0 5.5 2.5 5.5 5.5s-2.4 5.5-5.5 5.5m-28.4 2.3c-1.5 0-2.8-1.2-2.8-2.8s1.2-2.8 2.8-2.8 2.8 1.2 2.8 2.8-1.3 2.8-2.8 2.8m14.2 22.7c-1 0-1.8-.8-1.8-1.8s.8-1.8 1.8-1.8 1.8.8 1.8 1.8c0 .9-.8 1.8-1.8 1.8m3.7-25.7c-1 0-1.8-.8-1.8-1.8s.8-1.8 1.8-1.8 1.8.8 1.8 1.8-.8 1.8-1.8 1.8m-10.6 22c-3.8 0-6.9-3.1-6.9-6.9s3.1-6.9 6.9-6.9 6.9 3.1 6.9 6.9-3.1 6.9-6.9 6.9m-5.8-169.7c-2.5 0-4.5-2-4.5-4.5s2-4.5 4.5-4.5 4.5 2 4.5 4.5c0 2.4-2 4.5-4.5 4.5m14.2 33.2c-3.8 0-6.9-3.1-6.9-6.9s3.1-6.9 6.9-6.9 6.9 3.1 6.9 6.9-3.1 6.9-6.9 6.9m4.5-26.5a6.7 6.7 0 1 1 0-13.4 6.7 6.7 0 0 1 0 13.4m-34.3 2.8c-1.9 0-3.4-1.5-3.4-3.4s1.5-3.4 3.4-3.4 3.4 1.5 3.4 3.4-1.5 3.4-3.4 3.4m17.2 27.3c-1.2 0-2.2-1-2.2-2.2s1-2.2 2.2-2.2 2.2 1 2.2 2.2-1 2.2-2.2 2.2m4.4-31c-1.2 0-2.2-1-2.2-2.2s1-2.2 2.2-2.2 2.2 1 2.2 2.2-.9 2.2-2.2 2.2m-12.8 26.6c-4.6 0-8.4-3.7-8.4-8.4 0-4.6 3.7-8.4 8.4-8.4 4.6 0 8.4 3.7 8.4 8.4 0 4.6-3.8 8.4-8.4 8.4m-201.5 125c-2.3 0-4.1-1.8-4.1-4.1s1.8-4.1 4.1-4.1 4.1 1.8 4.1 4.1-1.8 4.1-4.1 4.1m13 30.3c-3.5 0-6.3-2.8-6.3-6.3s2.8-6.3 6.3-6.3 6.3 2.8 6.3 6.3-2.8 6.3-6.3 6.3m4.1-24.2c-3.4 0-6.1-2.7-6.1-6.1s2.7-6.1 6.1-6.1 6.1 2.7 6.1 6.1-2.7 6.1-6.1 6.1m-31.3 2.6c-1.7 0-3.1-1.4-3.1-3.1s1.4-3.1 3.1-3.1 3.1 1.4 3.1 3.1c-.1 1.7-1.4 3.1-3.1 3.1m15.6 25c-1.1 0-2-.9-2-2s.9-2 2-2 2 .9 2 2c.1 1.1-.8 2-2 2m4.1-28.3c-1.1 0-2-.9-2-2s.9-2 2-2 2 .9 2 2c.1 1.1-.9 2-2 2m-11.7 24.2c-4.2 0-7.6-3.4-7.6-7.6s3.4-7.6 7.6-7.6 7.6 3.4 7.6 7.6-3.4 7.6-7.6 7.6m112.3-1.7c-2.5 0-4.5-2-4.5-4.5s2-4.5 4.5-4.5 4.5 2 4.5 4.5-2.1 4.5-4.5 4.5m14.2 33.2c-3.8 0-6.9-3.1-6.9-6.9s3.1-6.9 6.9-6.9 6.9 3.1 6.9 6.9-3.1 6.9-6.9 6.9m4.5-26.5a6.7 6.7 0 1 1 0-13.4 6.7 6.7 0 0 1 0 13.4m-34.4 2.8c-1.9 0-3.4-1.5-3.4-3.4s1.5-3.4 3.4-3.4 3.4 1.5 3.4 3.4-1.5 3.4-3.4 3.4m17.2 27.4c-1.2 0-2.2-1-2.2-2.2s1-2.2 2.2-2.2 2.2 1 2.2 2.2-1 2.2-2.2 2.2m4.5-31c-1.2 0-2.2-1-2.2-2.2s1-2.2 2.2-2.2 2.2 1 2.2 2.2-1 2.2-2.2 2.2m-12.9 26.5c-4.6 0-8.4-3.7-8.4-8.4 0-4.6 3.7-8.4 8.4-8.4s8.4 3.7 8.4 8.4-3.7 8.4-8.4 8.4m169.1-4c-2.5 0-4.5-2-4.5-4.5s2-4.5 4.5-4.5 4.5 2 4.5 4.5-2.1 4.5-4.5 4.5m14.2 33.3c-3.8 0-6.9-3.1-6.9-6.9s3.1-6.9 6.9-6.9 6.9 3.1 6.9 6.9-3.1 6.9-6.9 6.9m4.5-26.6a6.7 6.7 0 1 1 0-13.4 6.7 6.7 0 0 1 0 13.4m-34.4 2.9c-1.9 0-3.4-1.5-3.4-3.4s1.5-3.4 3.4-3.4 3.4 1.5 3.4 3.4-1.5 3.4-3.4 3.4m17.2 27.3c-1.2 0-2.2-1-2.2-2.2s1-2.2 2.2-2.2 2.2 1 2.2 2.2-1 2.2-2.2 2.2m4.5-31c-1.2 0-2.2-1-2.2-2.2s1-2.2 2.2-2.2 2.2 1 2.2 2.2-1 2.2-2.2 2.2m-12.9 26.6c-4.6 0-8.4-3.7-8.4-8.4s3.7-8.4 8.4-8.4c4.6 0 8.4 3.7 8.4 8.4s-3.8 8.4-8.4 8.4m52.8-89.8c-1.5 0-2.8-1.2-2.8-2.8 0-1.5 1.2-2.8 2.8-2.8 1.5 0 2.8 1.2 2.8 2.8 0 1.5-1.2 2.8-2.8 2.8m8.8 20.4c-2.3 0-4.2-1.9-4.2-4.2s1.9-4.2 4.2-4.2 4.2 1.9 4.2 4.2-1.9 4.2-4.2 4.2m2.7-16.3c-2.3 0-4.1-1.8-4.1-4.1s1.8-4.1 4.1-4.1 4.1 1.8 4.1 4.1c0 2.2-1.8 4.1-4.1 4.1m-21.1 1.7c-1.1 0-2.1-.9-2.1-2.1 0-1.1.9-2.1 2.1-2.1 1.1 0 2.1.9 2.1 2.1s-.9 2.1-2.1 2.1m10.6 16.8c-.8 0-1.4-.6-1.4-1.4s.6-1.4 1.4-1.4 1.4.6 1.4 1.4-.7 1.4-1.4 1.4m2.7-19c-.8 0-1.4-.6-1.4-1.4s.6-1.4 1.4-1.4 1.4.6 1.4 1.4-.6 1.4-1.4 1.4m-7.9 16.3c-2.8 0-5.1-2.3-5.1-5.1s2.3-5.1 5.1-5.1 5.1 2.3 5.1 5.1c.1 2.8-2.2 5.1-5.1 5.1M208.9 370.1c-2.9 0-5.2-2.3-5.2-5.2s2.3-5.2 5.2-5.2 5.2 2.3 5.2 5.2c0 2.8-2.3 5.2-5.2 5.2m16.5 38.7c-4.4 0-8-3.6-8-8s3.6-8 8-8 8 3.6 8 8c.1 4.4-3.5 8-8 8m5.3-30.9c-4.3 0-7.8-3.5-7.8-7.8s3.5-7.8 7.8-7.8 7.8 3.5 7.8 7.8-3.5 7.8-7.8 7.8m-40.1 3.3c-2.2 0-3.9-1.8-3.9-3.9 0-2.2 1.8-3.9 3.9-3.9 2.2 0 3.9 1.8 3.9 3.9.1 2.1-1.7 3.9-3.9 3.9m20.1 31.9c-1.4 0-2.6-1.2-2.6-2.6s1.2-2.6 2.6-2.6 2.6 1.2 2.6 2.6-1.2 2.6-2.6 2.6m5.2-36.2c-1.4 0-2.6-1.2-2.6-2.6s1.2-2.6 2.6-2.6 2.6 1.2 2.6 2.6-1.2 2.6-2.6 2.6m-15 31c-5.4 0-9.8-4.4-9.8-9.8s4.4-9.8 9.8-9.8 9.8 4.4 9.8 9.8-4.4 9.8-9.8 9.8" style="fill:#f5a27f"/><path d="M139.3 168.6c-1.1 0-2-.9-2-2s.9-2 2-2 2 .9 2 2-.9 2-2 2m16.9-4c-1.1 0-2-.9-2-2s.9-2 2-2 2 .9 2 2-.9 2-2 2m-30.4-4c-1.1 0-2-.9-2-2s.9-2 2-2 2 .9 2 2-.9 2-2 2m-12.3 9.9c-1.1 0-2-.9-2-2s.9-2 2-2 2 .9 2 2-.9 2-2 2m40.7 4c-1.1 0-2-.9-2-2s.9-2 2-2 2 .9 2 2-.9 2-2 2m176.3 70.2c-.9 0-1.7-.8-1.7-1.7s.8-1.7 1.7-1.7 1.7.8 1.7 1.7-.8 1.7-1.7 1.7m14.5-3.4c-.9 0-1.7-.8-1.7-1.7s.8-1.7 1.7-1.7 1.7.8 1.7 1.7-.8 1.7-1.7 1.7m-26.1-3.4c-.9 0-1.7-.8-1.7-1.7s.8-1.7 1.7-1.7 1.7.8 1.7 1.7-.8 1.7-1.7 1.7m-10.6 8.5c-.9 0-1.7-.8-1.7-1.7s.8-1.7 1.7-1.7 1.7.8 1.7 1.7-.8 1.7-1.7 1.7m35 3.4c-.9 0-1.7-.8-1.7-1.7s.8-1.7 1.7-1.7 1.7.8 1.7 1.7-.8 1.7-1.7 1.7m-22.7-145.4c-1.1 0-2.1-.9-2.1-2.1s.9-2.1 2.1-2.1 2.1.9 2.1 2.1-.9 2.1-2.1 2.1m17.5-4.2c-1.1 0-2.1-.9-2.1-2.1 0-1.1.9-2.1 2.1-2.1s2.1.9 2.1 2.1-.9 2.1-2.1 2.1m-31.5-4.1c-1.1 0-2.1-.9-2.1-2.1 0-1.1.9-2.1 2.1-2.1 1.1 0 2.1.9 2.1 2.1-.1 1.2-1 2.1-2.1 2.1m-12.8 10.3c-1.1 0-2.1-.9-2.1-2.1 0-1.1.9-2.1 2.1-2.1 1.1 0 2.1.9 2.1 2.1s-.9 2.1-2.1 2.1m42.3 4.1c-1.1 0-2.1-.9-2.1-2.1 0-1.1.9-2.1 2.1-2.1s2.1.9 2.1 2.1c-.1 1.2-1 2.1-2.1 2.1m-224.5 150c-1 0-1.9-.8-1.9-1.9s.8-1.9 1.9-1.9 1.9.8 1.9 1.9-.9 1.9-1.9 1.9m16-3.8c-1 0-1.9-.8-1.9-1.9 0-1 .8-1.9 1.9-1.9 1 0 1.9.8 1.9 1.9-.1 1.1-.9 1.9-1.9 1.9M98.7 253c-1 0-1.9-.8-1.9-1.9 0-1 .8-1.9 1.9-1.9s1.9.8 1.9 1.9c0 1-.8 1.9-1.9 1.9m-11.6 9.4c-1 0-1.9-.8-1.9-1.9s.8-1.9 1.9-1.9c1 0 1.9.8 1.9 1.9s-.9 1.9-1.9 1.9m38.6 3.8c-1 0-1.9-.8-1.9-1.9 0-1 .8-1.9 1.9-1.9 1 0 1.9.8 1.9 1.9 0 1-.9 1.9-1.9 1.9m92.7 23.5c-1.1 0-2.1-.9-2.1-2.1 0-1.1.9-2.1 2.1-2.1 1.1 0 2.1.9 2.1 2.1-.1 1.2-1 2.1-2.1 2.1m17.5-4.1c-1.1 0-2.1-.9-2.1-2.1 0-1.1.9-2.1 2.1-2.1 1.1 0 2.1.9 2.1 2.1-.1 1.2-1 2.1-2.1 2.1m-31.6-4.1c-1.1 0-2.1-.9-2.1-2.1 0-1.1.9-2.1 2.1-2.1 1.1 0 2.1.9 2.1 2.1s-1 2.1-2.1 2.1m-12.8 10.3c-1.1 0-2.1-.9-2.1-2.1 0-1.1.9-2.1 2.1-2.1s2.1.9 2.1 2.1-.9 2.1-2.1 2.1m42.3 4.1c-1.1 0-2.1-.9-2.1-2.1 0-1.1.9-2.1 2.1-2.1 1.1 0 2.1.9 2.1 2.1s-1 2.1-2.1 2.1m146.8 22.2c-1.1 0-2.1-.9-2.1-2.1 0-1.1.9-2.1 2.1-2.1s2.1.9 2.1 2.1c-.1 1.2-1 2.1-2.1 2.1m17.5-4.1c-1.1 0-2.1-.9-2.1-2.1 0-1.1.9-2.1 2.1-2.1s2.1.9 2.1 2.1c-.1 1.2-1 2.1-2.1 2.1m-31.6-4.1c-1.1 0-2.1-.9-2.1-2.1 0-1.1.9-2.1 2.1-2.1s2.1.9 2.1 2.1c-.1 1.2-1 2.1-2.1 2.1m-12.8 10.3c-1.1 0-2.1-.9-2.1-2.1 0-1.1.9-2.1 2.1-2.1 1.1 0 2.1.9 2.1 2.1s-.9 2.1-2.1 2.1m42.3 4.1c-1.1 0-2.1-.9-2.1-2.1 0-1.1.9-2.1 2.1-2.1 1.1 0 2.1.9 2.1 2.1s-1 2.1-2.1 2.1m27.1-69.3c-.7 0-1.3-.6-1.3-1.3s.6-1.3 1.3-1.3 1.3.6 1.3 1.3-.6 1.3-1.3 1.3m10.8-2.6c-.7 0-1.3-.6-1.3-1.3s.6-1.3 1.3-1.3 1.3.6 1.3 1.3c-.1.8-.6 1.3-1.3 1.3m-19.4-2.5c-.7 0-1.3-.6-1.3-1.3s.6-1.3 1.3-1.3 1.3.6 1.3 1.3-.6 1.3-1.3 1.3m-7.9 6.3c-.7 0-1.3-.6-1.3-1.3s.6-1.3 1.3-1.3 1.3.6 1.3 1.3-.6 1.3-1.3 1.3m26 2.6c-.7 0-1.3-.6-1.3-1.3s.6-1.3 1.3-1.3 1.3.6 1.3 1.3-.6 1.3-1.3 1.3M219.2 387.6c-1.3 0-2.4-1.1-2.4-2.4s1.1-2.4 2.4-2.4 2.4 1.1 2.4 2.4-1 2.4-2.4 2.4m20.5-4.8c-1.3 0-2.4-1.1-2.4-2.4s1.1-2.4 2.4-2.4 2.4 1.1 2.4 2.4-1.1 2.4-2.4 2.4m-36.9-4.9c-1.3 0-2.4-1.1-2.4-2.4s1.1-2.4 2.4-2.4 2.4 1.1 2.4 2.4-1 2.4-2.4 2.4M188 390c-1.3 0-2.4-1.1-2.4-2.4s1.1-2.4 2.4-2.4 2.4 1.1 2.4 2.4-1.1 2.4-2.4 2.4m49.3 4.8c-1.3 0-2.4-1.1-2.4-2.4s1.1-2.4 2.4-2.4 2.4 1.1 2.4 2.4-1.1 2.4-2.4 2.4" style="fill:#b73d2d"/><path d="M73.9 167.6s7.1 25.3 14.3 31.2c6.3 5.3 15.7 4.4 21-1.9s4.4-15.7-1.9-21c-7.3-5.9-33.4-8.3-33.4-8.3M288 132.3s-26.5 19.8-30.3 30.9c-3.3 9.8 1.9 20.5 11.7 23.8s20.5-1.9 23.8-11.7c3.8-11.1-5.2-43-5.2-43M461.5 193s-28.8-5.9-38.3-1.8c-8.5 3.6-12.4 13.4-8.8 21.8 3.6 8.5 13.4 12.4 21.8 8.8 9.6-4 25.3-28.8 25.3-28.8M236.9 452.9s18.7-17.2 20.6-25.9c1.8-7.7-3.1-15.4-10.8-17.2s-15.5 3.1-17.2 10.8c-2 8.8 7.4 32.3 7.4 32.3" style="fill-rule:evenodd;clip-rule:evenodd;fill:#94e281"/><path d="M73.9 167.8c0-.2-.1-.3-.1-.3s26.2 2.4 33.3 8.3c6.3 5.3 7.2 14.7 1.9 21l-.1.1zm213.9-35.3c.2-.1.3-.2.3-.2s9 31.9 5.2 42.9c-3.3 9.8-14 15.1-23.8 11.7-.1 0-.1 0-.2-.1zM461.2 193c.2 0 .3.1.3.1s-15.8 24.7-25.3 28.8c-8.5 3.6-18.2-.4-21.8-8.8 0-.1 0-.1-.1-.2zM237.1 452.8l-.2.2s-9.4-23.6-7.4-32.3c1.8-7.7 9.5-12.6 17.2-10.8h.1z" style="fill-rule:evenodd;clip-rule:evenodd;fill:#4bb74c"/><path d="m119.5 202.5-7.3-6.1c2-3.2 2.9-6.9 2.6-10.7-.4-4.6-2.6-8.7-6.1-11.6-7.5-6.2-31.8-8.6-34.6-8.8-.8-.1-1.5.2-2 .8s-.7 1.4-.4 2.1c.7 2.7 7.5 26.2 15 32.4 3.1 2.6 7 4 11 4 .5 0 1.1 0 1.6-.1 3.8-.3 7.3-1.9 10-4.5l7.3 6.1c.4.4 1 .5 1.5.5.7 0 1.3-.3 1.8-.8.7-1 .6-2.4-.4-3.3m-20.7-2.6c-3.3.3-6.6-.7-9.2-2.9-4.7-3.9-10-18.5-12.5-26.8 8.6 1 24 3.5 28.6 7.4 2.6 2.2 4.2 5.2 4.5 8.5.2 2.6-.3 5.1-1.6 7.3l-.5-.4-.8-8.5c-.1-1.3-1.2-2.2-2.5-2.1s-2.2 1.2-2.1 2.5l.4 3.9-1.8-1.5-.8-8.5c-.1-1.3-1.2-2.2-2.5-2.1s-2.2 1.2-2.1 2.5l.4 3.9-5.1-4.2c-1-.8-2.4-.7-3.2.3s-.7 2.4.3 3.2l5.1 4.2-3.9.4c-1.3.1-2.2 1.2-2.1 2.5.1 1.2 1.1 2.1 2.3 2.1h.2l8.5-.8 1.8 1.5-3.9.4c-1.3.1-2.2 1.2-2.1 2.5.1 1.2 1.1 2.1 2.3 2.1h.2l8.5-.8.5.4q-3 2.7-6.9 3m191.5-68.2c-.2-.7-.8-1.3-1.5-1.6-.7-.2-1.5-.1-2.1.3-1.1.8-27.2 20.4-31.1 32-3.5 10.3 1.4 21.4 11 25.9l-4 11.8c-.4 1.2.2 2.5 1.4 2.9.2.1.5.1.7.1 1 0 1.9-.6 2.2-1.6l4-11.8c1.5.3 3 .5 4.6.5 3.2 0 6.4-.7 9.3-2.2 5-2.5 8.8-6.8 10.6-12.1 4-11.5-4.8-42.9-5.1-44.2m.8 42.8c-1.4 4.2-4.4 7.5-8.3 9.5-3.2 1.6-6.8 2.1-10.3 1.4l.6-1.7 9.8-4.8c1.1-.6 1.6-1.9 1-3.1-.6-1.1-1.9-1.6-3.1-1l-5.7 2.8 1.5-4.4 9.8-4.8c1.1-.6 1.6-1.9 1-3.1s-1.9-1.6-3.1-1l-5.7 2.8 3.1-9.2c.4-1.2-.2-2.5-1.4-2.9s-2.5.2-2.9 1.4l-3.1 9.2-2.8-5.7c-.6-1.1-1.9-1.6-3.1-1-1.1.6-1.6 1.9-1 3.1l4.8 9.8-1.5 4.4-2.8-5.7c-.6-1.1-1.9-1.6-3.1-1-1.1.6-1.6 1.9-1 3.1l4.8 9.8-.6 1.7c-7.2-3.6-10.8-12.1-8.2-20 2.6-7.6 18.3-21.1 26.8-27.7 2.8 10.2 7.1 30.5 4.5 38.1m172.6 17.7c-.3-.7-.9-1.2-1.7-1.4-3-.6-29.7-5.9-39.6-1.7-4.7 2-8.3 5.6-10.2 10.3-1.6 4-1.8 8.3-.6 12.3l-10 4.2c-1.2.5-1.7 1.8-1.2 3 .4.9 1.2 1.4 2.1 1.4.3 0 .6-.1.9-.2l10-4.2c2.1 3.7 5.3 6.5 9.3 8.1 2.3.9 4.7 1.4 7.1 1.4 2.5 0 5-.5 7.4-1.5 9.9-4.2 24.7-27.1 26.4-29.7.3-.6.4-1.4.1-2m-28.4 27.5c-3.5 1.5-7.4 1.5-11 .1-2.8-1.1-5.2-3.1-6.7-5.7l1.1-.4 8.9 3.6c.3.1.6.2.9.2.9 0 1.8-.5 2.1-1.4.5-1.2-.1-2.5-1.3-3l-4.6-1.9 3.1-1.3 8.9 3.6c.3.1.6.2.9.2.9 0 1.8-.5 2.1-1.4.5-1.2-.1-2.5-1.3-3l-4.6-1.9 7.4-3.1c1.2-.5 1.7-1.8 1.2-3s-1.8-1.7-3-1.2l-7.4 3.1 1.9-4.6c.5-1.2-.1-2.5-1.3-3s-2.5.1-3 1.3l-3.6 8.9-3.1 1.3 1.9-4.6c.5-1.2-.1-2.5-1.3-3s-2.5.1-3 1.3l-3.6 8.9-1.1.4c-.7-2.9-.5-5.9.6-8.8 1.4-3.6 4.2-6.3 7.7-7.8 2.1-.9 5.4-1.2 9.3-1.2 7.9 0 17.9 1.4 24.3 2.6-5.3 7.7-16 22.1-22.4 24.8M249.4 408.3l2-8.9c.3-1.2-.5-2.5-1.7-2.8s-2.5.5-2.8 1.7l-2 8.9c-8.2-.7-15.8 4.7-17.7 12.9-2.1 9.2 6.5 31.2 7.5 33.7.3.7.9 1.2 1.6 1.4.2 0 .3.1.5.1.6 0 1.1-.2 1.6-.6 2-1.8 19.2-17.9 21.3-27.1 2-8.3-2.6-16.4-10.3-19.3m5.9 18.2c-1.3 5.7-11.5 16.5-17.5 22.4-2.9-7.9-7.4-22.1-6.1-27.7s6.3-9.4 11.8-9.4h.4l-.1.5-6.9 4.3c-1.1.7-1.4 2.1-.7 3.2.4.7 1.2 1.1 1.9 1.1.4 0 .8-.1 1.2-.4l3-1.9-.4 2-6.9 4.3c-1.1.7-1.4 2.1-.7 3.2.4.7 1.2 1.1 1.9 1.1.4 0 .8-.1 1.2-.4l3-1.9-1.4 6c-.3 1.2.5 2.5 1.7 2.8.2 0 .3.1.5.1 1 0 2-.7 2.2-1.8l1.4-6 1.9 3c.4.7 1.2 1.1 1.9 1.1.4 0 .8-.1 1.2-.4 1.1-.7 1.4-2.1.7-3.2l-4.3-6.9.4-2 1.9 3c.4.7 1.2 1.1 1.9 1.1.4 0 .8-.1 1.2-.4 1.1-.7 1.4-2.1.7-3.2l-4.3-6.9.1-.5c5.5 2.4 8.5 8.1 7.2 13.8" style="fill:#3f6b29"/><path d="M237.4 156.6c-21.9 4.1-43-10.3-47.1-32.3-4.1-21.9 10.3-43 32.3-47.1 21.9-4.1 43 10.3 47.1 32.3 4.1 21.9-10.4 43-32.3 47.1m82 262.4c-21.9 4.1-43-10.3-47.1-32.3-4.1-21.9 10.3-43 32.3-47.1 21.9-4.1 43 10.3 47.1 32.3 4.1 21.9-10.4 43-32.3 47.1m38.4-217.4c-13.7-11.4-15.5-31.8-4-45.4 11.4-13.7 31.8-15.5 45.4-4 13.7 11.4 15.5 31.8 4 45.4-11.4 13.6-31.8 15.4-45.4 4M147.4 376.3c-19.2-4.8-31-24.3-26.2-43.5s24.3-31 43.5-26.2 31 24.3 26.2 43.5c-4.8 19.3-24.3 31-43.5 26.2m76.8-100.9c-21.9 4.1-43-10.3-47.1-32.3-4.1-21.9 10.3-43 32.3-47.1 21.9-4.1 43 10.3 47.1 32.3 4 21.9-10.4 43-32.3 47.1" style="fill:#f16a65"/><path d="M229.9 160c-8.6 0-17-2.6-24.2-7.5-9.5-6.5-15.9-16.3-18-27.6s.3-22.8 6.8-32.2c6.5-9.5 16.3-15.9 27.6-18 23.3-4.4 45.9 11.1 50.2 34.4 4.4 23.3-11.1 45.9-34.4 50.2-2.7.4-5.4.7-8 .7m.1-80.8c-2.3 0-4.7.2-7 .7-9.9 1.9-18.5 7.5-24.2 15.8S191 114 192.9 124c1.9 9.9 7.5 18.5 15.8 24.2s18.4 7.8 28.3 5.9c20.4-3.8 34-23.6 30.1-44-1.9-9.9-7.5-18.5-15.8-24.2-6.4-4.5-13.7-6.7-21.3-6.7m.4 44.8c.1-.3.4-.6.8-.6.3-.1.7.1.9.3 3.4 3.6 13.8 14.6 17.4 18.5.3.3.3.7.2 1-.1.4-.4.6-.8.7-5.5 1-21.5 4-27 5.1-.4.1-.8-.1-1-.4s-.3-.7-.2-1c2.1-5 7.8-19 9.7-23.6m-6.8-4.1c.3 0 .7.1.9.4s.3.6.2 1c-1.4 4.8-5.7 19.2-7.3 24.3-.1.4-.4.6-.8.7s-.8-.1-1-.3c-3.6-4.2-14.3-16.6-17.9-20.9-.2-.3-.3-.7-.2-1 .1-.4.5-.6.8-.7 5.5-.8 20.4-2.8 25.3-3.5m5.8-10.6c-.1.3-.4.6-.8.6-.3.1-.7-.1-.9-.3-3.4-3.6-13.8-14.6-17.4-18.5-.3-.3-.3-.7-.2-1 .1-.4.4-.6.8-.7 5.5-1 21.5-4 27-5.1.4-.1.8.1 1 .4s.3.7.2 1c-2.1 5.1-7.8 19-9.7 23.6m6.5 2.4c-.3 0-.7-.1-.9-.4s-.3-.6-.2-1c1.4-4.8 5.7-19.2 7.3-24.3.1-.4.4-.6.8-.7s.8.1 1 .3c3.6 4.2 14.3 16.6 17.9 20.9.2.3.3.7.2 1-.1.4-.5.6-.8.7-5.5.8-20.4 2.8-25.3 3.5m-12.8.9c.2.3.3.6.2 1-.1.3-.4.6-.7.7-4.8 1.1-19.5 4.6-24.7 5.9-.4.1-.8 0-1-.3-.3-.3-.3-.7-.2-1 1.9-5.3 7.3-20.7 9.1-25.9.1-.4.4-.6.8-.7s.8.1 1 .4c3.2 4 12.5 15.9 15.5 19.9m13.3 6.5c-.2-.3-.3-.6-.2-1 .1-.3.4-.6.7-.7 4.8-1.1 19.5-4.6 24.7-5.9.4-.1.8 0 1 .3.3.3.3.7.2 1-1.9 5.3-7.3 20.7-9.1 25.9-.1.4-.4.6-.8.7s-.8-.1-1-.4c-3.2-4.1-12.5-16-15.5-19.9m75.5 303.3c-8.6 0-17-2.6-24.2-7.5-9.5-6.5-15.9-16.3-18-27.6-4.4-23.3 11.1-45.9 34.4-50.2 23.3-4.4 45.9 11.1 50.2 34.4 4.4 23.3-11.1 45.9-34.4 50.2-2.7.5-5.4.7-8 .7m.1-80.8c-2.3 0-4.6.2-7 .6-9.9 1.9-18.5 7.5-24.2 15.8s-7.8 18.3-5.9 28.3c1.9 9.9 7.5 18.5 15.8 24.2s18.3 7.8 28.3 5.9c20.4-3.8 34-23.6 30.1-44-3.4-18.1-19.3-30.8-37.1-30.8m.4 44.8c.1-.3.4-.6.8-.6.3-.1.7.1.9.3 3.4 3.6 13.8 14.6 17.4 18.5.3.3.3.7.2 1-.1.4-.4.6-.8.7-5.5 1-21.5 4-27 5.1-.4.1-.8-.1-1-.4s-.3-.7-.2-1c2.2-5 7.8-19 9.7-23.6m-6.7-4.1c.3 0 .7.1.9.4s.3.6.2 1c-1.4 4.8-5.7 19.2-7.3 24.3-.1.4-.4.6-.8.7s-.8-.1-1-.3c-3.6-4.2-14.3-16.6-17.9-20.9-.2-.3-.3-.7-.2-1 .1-.4.5-.6.8-.7 5.4-.7 20.3-2.8 25.3-3.5m5.7-10.5c-.1.3-.4.6-.8.6-.3.1-.7-.1-.9-.3-3.4-3.6-13.8-14.6-17.4-18.5-.3-.3-.3-.7-.2-1 .1-.4.4-.6.8-.7 5.5-1 21.5-4 27-5.1.4-.1.8.1 1 .4s.3.7.2 1c-2.1 5-7.8 19-9.7 23.6m6.5 2.3c-.3 0-.7-.1-.9-.4s-.3-.6-.2-1c1.4-4.8 5.7-19.2 7.3-24.3.1-.4.4-.6.8-.7s.8.1 1 .3c3.6 4.2 14.3 16.6 17.9 20.9.2.3.3.7.2 1-.1.4-.5.6-.8.7-5.4.8-20.4 2.8-25.3 3.5m-12.7.9c.2.3.3.6.2 1-.1.3-.4.6-.7.7-4.8 1.2-19.5 4.6-24.7 5.9-.4.1-.8 0-1-.3-.3-.3-.3-.7-.2-1 1.9-5.3 7.3-20.7 9.1-25.9.1-.4.4-.6.8-.7s.8.1 1 .4c3.2 4 12.4 16 15.5 19.9m13.2 6.5c-.2-.3-.3-.6-.2-1 .1-.3.4-.6.7-.7 4.8-1.2 19.5-4.6 24.7-5.9.4-.1.8 0 1 .3.3.3.3.7.2 1-1.9 5.3-7.3 20.7-9.1 25.9-.1.4-.4.6-.8.7s-.8-.1-1-.4c-3.2-4.1-12.5-16-15.5-19.9m60-169.8c-8.2 0-16-2.8-22.4-8.1-14.8-12.4-16.7-34.4-4.3-49.2s34.4-16.7 49.2-4.3c7.1 6 11.5 14.4 12.4 23.7.8 9.3-2 18.3-8 25.5-6 7.1-14.4 11.5-23.7 12.4zm-18.9-12.2c6.1 5.1 13.7 7.5 21.6 6.8s15-4.4 20.1-10.5 7.5-13.7 6.8-21.6-4.4-15-10.5-20.1c-12.5-10.5-31.2-8.8-41.7 3.7s-8.8 31.2 3.7 41.7m14.5-18.7c.3-.1.7 0 1 .2s.4.6.4.9c-.5 4.1-1.9 15-2.4 19.4 0 .4-.3.7-.6.8-.4.1-.8.1-1-.2-3.6-3-12.7-10.6-16.2-13.6-.3-.2-.4-.6-.4-1 .1-.4.3-.7.7-.8 4.1-1.2 14.6-4.5 18.5-5.7m-.8-6.6c.3.2.4.6.3.9s-.3.6-.6.8c-3.8 1.6-13.9 5.9-18 7.6-.3.1-.8.1-1-.1-.3-.2-.4-.6-.4-1 .8-4.6 2.9-16.3 3.7-20.9.1-.4.3-.7.7-.8s.8 0 1 .2c3.2 3.1 11.3 10.5 14.3 13.3m10-1.6c-.3.1-.7 0-1-.2s-.4-.6-.4-.9c.5-4.1 1.9-15 2.4-19.4 0-.4.3-.7.6-.8.4-.1.8-.1 1 .2 3.6 3 12.7 10.6 16.2 13.6.3.2.4.6.4 1s-.3.7-.7.8c-4 1.2-14.5 4.4-18.5 5.7m1.7 5.5c-.3-.2-.4-.6-.3-.9s.3-.6.6-.8c3.8-1.6 13.9-5.9 18-7.6.3-.1.8-.1 1 .1.3.2.4.6.4 1-.8 4.6-2.9 16.3-3.7 20.9-.1.4-.3.7-.7.8s-.8 0-1-.2c-3.1-3.1-11.2-10.5-14.3-13.3m-7.1-8c-.1.3-.3.6-.7.7-.3.1-.7.1-1-.1-3.3-2.5-12.1-9.1-15.6-11.8-.3-.2-.5-.6-.4-1s.3-.7.7-.8c4.4-1.6 15.5-5.7 19.9-7.3.4-.1.8-.1 1 .2.3.2.4.6.3 1-.9 4.3-3.3 15.1-4.2 19.1m2.6 12.1c.1-.3.3-.6.7-.7.3-.1.7-.1 1 .1 3.3 2.5 12.1 9.1 15.6 11.8.3.2.5.6.4 1s-.3.7-.7.8c-4.4 1.6-15.5 5.7-19.9 7.3-.4.1-.8.1-1-.2-.3-.3-.4-.6-.3-1 .8-4.4 3.2-15.1 4.2-19.1M156.1 380c-3.1 0-6.3-.4-9.4-1.2-10-2.5-18.4-8.7-23.7-17.6-5.3-8.8-6.9-19.2-4.4-29.2 5.1-20.6 26.1-33.3 46.7-28.1 10 2.5 18.4 8.7 23.7 17.6 5.3 8.8 6.9 19.2 4.4 29.2s-8.7 18.4-17.6 23.7c-6 3.8-12.8 5.6-19.7 5.6m-.1-71.8c-14.9 0-28.5 10.1-32.3 25.2-2.1 8.6-.8 17.6 3.8 25.2s11.8 13 20.5 15.1c8.6 2.1 17.6.8 25.2-3.8s13-11.8 15.1-20.5c4.4-17.8-6.4-35.9-24.2-40.3q-4.05-.9-8.1-.9m-2.4 39.3c.3-.2.6-.3 1-.3.3.1.6.3.7.7 1.5 4.3 5.6 16.4 7.2 21 .1.4 0 .8-.2 1-.3.3-.6.4-1 .3-4.9-1.2-18.4-4.6-23.3-5.8-.4-.1-.7-.4-.8-.7-.1-.4 0-.8.3-1 3.5-3.3 12.8-12.1 16.1-15.2m-4-6c.3.1.6.4.7.7s0 .7-.2 1c-3 3.4-11.4 13-14.6 16.7-.2.3-.6.4-1 .3s-.7-.4-.8-.7l-6.6-23.1c-.1-.4 0-.8.3-1 .3-.3.7-.4 1-.3 4.6 1.4 16.9 5.1 21.2 6.4m8.9-6.5c-.3.2-.6.3-1 .3-.3-.1-.6-.3-.7-.7-1.5-4.3-5.6-16.4-7.2-21-.1-.4 0-.8.2-1 .3-.3.6-.4 1-.3 4.9 1.2 18.4 4.6 23.3 5.8.4.1.7.4.8.7.1.4 0 .8-.3 1-3.4 3.3-12.8 12.1-16.1 15.2m4.4 4.5c-.3-.1-.6-.4-.7-.7s0-.7.2-1c3-3.4 11.4-13 14.6-16.7.2-.3.6-.4 1-.3s.7.4.8.7l6.6 23.1c.1.4 0 .8-.3 1-.3.3-.7.4-1 .3-4.6-1.4-16.9-5.1-21.2-6.4m-10.8-4.3c.1.3 0 .7-.3 1-.2.3-.6.4-.9.3-4.4-.9-17-3.4-21.8-4.3-.4-.1-.7-.3-.8-.7s0-.8.2-1c3.5-3.7 13.2-13.6 16.7-17.3.3-.3.7-.4 1-.3.4.1.6.4.7.8 1.2 4.7 4.2 17.1 5.2 21.5m8.4 10.5c-.1-.3 0-.7.3-1 .2-.3.6-.4.9-.3 4.4.9 17 3.4 21.8 4.3.4.1.7.3.8.7s0 .8-.2 1c-3.5 3.7-13.2 13.6-16.7 17.3-.3.3-.7.4-1 .3-.4-.1-.6-.4-.7-.8-1.3-4.6-4.2-17.1-5.2-21.5m56.1-66.9c-8.6 0-17-2.6-24.2-7.5-9.5-6.5-15.9-16.3-18-27.6-4.4-23.3 11.1-45.9 34.4-50.2 11.3-2.1 22.8.3 32.2 6.8 9.5 6.5 15.9 16.3 18 27.6 4.4 23.3-11.1 45.9-34.4 50.2-2.6.4-5.3.7-8 .7m.1-80.8c-2.3 0-4.6.2-7 .6-20.4 3.8-34 23.6-30.1 44 1.9 9.9 7.5 18.5 15.8 24.2s18.3 7.8 28.3 5.9c20.4-3.8 34-23.6 30.1-44-3.4-18-19.3-30.7-37.1-30.7m.5 44.8c.1-.3.4-.6.8-.6.3-.1.7.1.9.3 3.4 3.6 13.8 14.6 17.4 18.5.3.3.3.7.2 1-.1.4-.4.6-.8.7-5.5 1-21.5 4-27 5.1-.4.1-.8-.1-1-.4s-.3-.7-.2-1c2.1-5 7.8-19 9.7-23.6m-6.8-4.1c.3 0 .7.1.9.4s.3.6.2 1c-1.4 4.8-5.7 19.2-7.3 24.3-.1.4-.4.6-.8.7s-.8-.1-1-.3c-3.6-4.2-14.3-16.6-17.9-20.9-.2-.3-.3-.7-.2-1 .1-.4.5-.6.8-.7 5.4-.8 20.4-2.8 25.3-3.5m5.8-10.6c-.1.3-.4.6-.8.6-.3.1-.7-.1-.9-.3-3.4-3.6-13.8-14.6-17.4-18.5-.3-.3-.3-.7-.2-1 .1-.4.4-.6.8-.7 5.5-1 21.5-4 27-5.1.4-.1.8.1 1 .4s.3.7.2 1c-2.1 5.1-7.8 19-9.7 23.6m6.4 2.4c-.3 0-.7-.1-.9-.4s-.3-.6-.2-1c1.4-4.8 5.7-19.2 7.3-24.3.1-.4.4-.6.8-.7s.8.1 1 .3c3.6 4.2 14.3 16.6 17.9 20.9.2.3.3.7.2 1-.1.4-.5.6-.8.7-5.4.8-20.3 2.8-25.3 3.5m-12.7.9c.2.3.3.6.2 1-.1.3-.4.6-.7.7-4.8 1.1-19.5 4.6-24.7 5.9-.4.1-.8 0-1-.3-.3-.3-.3-.7-.2-1 1.9-5.3 7.3-20.7 9.1-25.9.1-.4.4-.6.8-.7s.8.1 1 .4c3.2 4 12.5 15.9 15.5 19.9m13.2 6.5c-.2-.3-.3-.6-.2-1 .1-.3.4-.6.7-.7 4.8-1.1 19.5-4.6 24.7-5.9.4-.1.8 0 1 .3.3.3.3.7.2 1-1.9 5.3-7.3 20.7-9.1 25.9-.1.4-.4.6-.8.7s-.8-.1-1-.4c-3.2-4.1-12.4-16-15.5-19.9" style="fill:#c72828"/><path d="M227.9 106c-1.4.3-3-1.4-3.4-3.7s.4-4.4 1.8-4.7 3 1.4 3.4 3.7c.5 2.4-.3 4.5-1.8 4.7m5.3 28c-1.4.3-3-1.4-3.4-3.7s.4-4.4 1.8-4.7 3 1.4 3.4 3.7-.4 4.4-1.8 4.7m5.2-25.5c-1-1.1-.3-3.3 1.5-4.8s4-1.9 5-.8.3 3.3-1.5 4.8c-1.8 1.6-4.1 1.9-5 .8m-23.3 19.9c-1-1.1-.3-3.3 1.5-4.8s4-1.9 5-.8.3 3.3-1.5 4.8c-1.8 1.6-4 1.9-5 .8m-3.6-19.2c.5-1.4 2.7-1.9 4.9-1.1s3.6 2.5 3.1 3.9-2.7 1.9-4.9 1.1-3.6-2.5-3.1-3.9m28.9 10.1c.5-1.4 2.7-1.9 4.9-1.1s3.6 2.5 3.1 3.9-2.7 1.9-4.9 1.1c-2.2-.7-3.6-2.5-3.1-3.9m69.5 249.2c-1.4.3-3-1.4-3.4-3.7s.4-4.4 1.8-4.7 3 1.4 3.4 3.7c.5 2.3-.3 4.4-1.8 4.7m5.3 27.9c-1.4.3-3-1.4-3.4-3.7s.4-4.4 1.8-4.7 3 1.4 3.4 3.7-.4 4.4-1.8 4.7m5.2-25.5c-1-1.1-.3-3.3 1.5-4.8s4-1.9 5-.8.3 3.3-1.5 4.8c-1.8 1.6-4 1.9-5 .8m-23.3 19.9c-1-1.1-.3-3.3 1.5-4.8s4-1.9 5-.8.3 3.3-1.5 4.8c-1.8 1.6-4 2-5 .8m-3.6-19.2c.5-1.4 2.7-1.9 4.9-1.1s3.6 2.5 3.1 3.9-2.7 1.9-4.9 1.1-3.6-2.5-3.1-3.9m28.9 10.2c.5-1.4 2.7-1.9 4.9-1.1s3.6 2.5 3.1 3.9-2.7 1.9-4.9 1.1c-2.1-.8-3.6-2.5-3.1-3.9m61.8-211.7c-.9-.8-.6-2.5.6-4s2.9-2 3.8-1.3c.9.8.6 2.5-.6 4-1.2 1.4-2.9 2-3.8 1.3m-14.6 17.4c-.9-.8-.6-2.5.6-4 1.2-1.4 2.9-2 3.8-1.3s.6 2.5-.6 4c-1.2 1.4-2.9 2-3.8 1.3m18.4-9.7c.2-1.2 1.9-1.8 3.7-1.5 1.9.3 3.2 1.5 3 2.7s-1.9 1.8-3.7 1.5c-1.9-.4-3.2-1.6-3-2.7m-24.1-4.3c.2-1.2 1.9-1.8 3.7-1.5 1.9.3 3.2 1.5 3 2.7s-1.9 1.8-3.7 1.5c-1.9-.3-3.2-1.5-3-2.7m10-12c1.1-.4 2.5.7 3.2 2.5.6 1.8.3 3.5-.8 3.9s-2.5-.7-3.2-2.5c-.7-1.7-.3-3.5.8-3.9m8.4 23c1.1-.4 2.5.7 3.2 2.5.6 1.8.3 3.5-.8 3.9s-2.5-.7-3.2-2.5c-.7-1.7-.3-3.5.8-3.9M158.4 331.9c-1.3-.3-1.9-2.2-1.4-4.3.5-2 1.9-3.4 3.2-3.1s1.9 2.2 1.4 4.3c-.5 2-1.9 3.4-3.2 3.1m-6.1 24.5c-1.3-.3-1.9-2.2-1.4-4.3.5-2 1.9-3.4 3.2-3.1s1.9 2.2 1.4 4.3c-.5 2-1.9 3.4-3.2 3.1m13.7-18.6c-.4-1.3 1-2.7 3-3.3s3.9 0 4.3 1.2c.4 1.3-1 2.7-3 3.3s-4 0-4.3-1.2m-26.2 7.5c-.4-1.3 1-2.7 3-3.3s3.9 0 4.3 1.2c.4 1.3-1 2.7-3 3.3s-4 0-4.3-1.2m4.2-16.9c.9-.9 2.9-.5 4.4.9 1.5 1.5 2 3.4 1.1 4.3s-2.9.5-4.4-.9-2-3.4-1.1-4.3m19.6 18.9c.9-.9 2.9-.5 4.4.9 1.5 1.5 2 3.4 1.1 4.3s-2.9.5-4.4-.9-2-3.4-1.1-4.3m51.1-122.5c-1.4.3-3-1.4-3.4-3.7s.4-4.4 1.8-4.7 3 1.4 3.4 3.7c.5 2.4-.4 4.5-1.8 4.7m5.2 28c-1.4.3-3-1.4-3.4-3.7s.4-4.4 1.8-4.7 3 1.4 3.4 3.7c.5 2.3-.3 4.4-1.8 4.7m5.3-25.5c-1-1.1-.3-3.3 1.5-4.8s4-1.9 5-.8.3 3.3-1.5 4.8c-1.9 1.6-4.1 1.9-5 .8m-23.3 19.9c-1-1.1-.3-3.3 1.5-4.8s4-1.9 5-.8.3 3.3-1.5 4.8c-1.8 1.6-4.1 1.9-5 .8m-3.6-19.2c.5-1.4 2.7-1.9 4.9-1.1s3.6 2.5 3.1 3.9-2.7 1.9-4.9 1.1-3.6-2.5-3.1-3.9m28.9 10.1c.5-1.4 2.7-1.9 4.9-1.1s3.6 2.5 3.1 3.9-2.7 1.9-4.9 1.1c-2.2-.7-3.6-2.5-3.1-3.9" style="fill:#f3c553"/><path d="m144 117.1 5.3 16.5s2.1 6.7 8.2 4.3c4.6-1.8 5-5.6 3.9-8.8-1.2-3.5-5.5-16-5.5-16s8.6 3.6 11.8 3.6c2.9 0 6.4-2 7.1-4.2 1.9-5.8-9.1-13.5-20.6-13.9s-22.6 6.5-26 16.1c-3.8 10.7.3 15.2 5.1 13.9 4.7-1.3 9.8-9.6 10.7-11.5m174.6 33.1L307.8 165s-4.5 6 1.5 9.7c4.5 2.8 8 .8 10-2.1 2.2-3.2 10.2-14.8 10.2-14.8s2.3 9.6 4.3 12.3c1.8 2.5 5.7 4.2 8.1 3.4 6.2-2 5.9-16.3-1-26.4S321 131.9 310.6 135c-11.6 3.5-12.8 9.8-8.7 13.1 4.2 3.3 14.6 2.5 16.7 2.1m-167.3 69.5 10.9 13.8s4.3 5.7 9.3 1.2c3.8-3.4 2.8-7.1.6-9.7-2.4-2.9-10.9-13.3-10.9-13.3s9.4.4 12.5-.7c2.8-1 5.4-4.1 5.3-6.5-.2-6.3-13.5-9.7-24.6-6s-19.3 14.2-19.1 24.6c.2 11.6 5.6 14.4 9.8 11.4 4.1-3 6-12.8 6.2-14.8M85.2 322l14.1-5.8s5.8-2.3 3.2-7.5c-1.9-4-5.3-4-8-2.8-3 1.3-13.7 6-13.7 6s2.6-7.8 2.4-10.6c-.2-2.6-2.2-5.5-4.2-6-5.3-1.3-11.3 8.9-10.8 19.1.4 10.2 7.3 19.5 16 21.8 9.7 2.6 13.3-1.3 11.9-5.4-1.5-4.2-9.2-8.2-10.9-8.8m298.9 54.9-17-14s-6.8-5.8-11.1.3c-3.3 4.6-.9 8.7 2.4 11.3 3.7 2.9 16.9 13.4 16.9 13.4s-11 1.2-14.2 3c-2.9 1.7-4.9 5.7-4 8.4 2.3 7.2 18.7 8.8 30.3 2.6 11.7-6.2 17.7-19.8 14.1-31.7-3.9-13.3-11.1-15.6-15-11.5-3.7 4.1-2.8 15.8-2.4 18.2m-114.6-52.7-4.2-21.7s-1.6-8.8-8.8-6.9c-5.4 1.4-6.3 6.1-5.4 10.3 1 4.6 4.5 21.1 4.5 21.1s-9.3-6.1-12.9-6.7c-3.3-.6-7.4 1.3-8.5 4-2.8 7 8.8 18.7 21.7 21.3s26.2-4 31.1-15.5c5.4-12.7 1.3-19.1-4.2-18.4-5.4.8-12.1 10.3-13.3 12.5" style="fill-rule:evenodd;clip-rule:evenodd;fill:#e2bc9b"/><path d="M128.6 127.8c.1-1.9.5-4.3 1.5-7 3.4-9.6 14.5-16.5 26-16.1 7.6.3 15 3.7 18.6 7.7v.2c-.7 2.2-4.2 4.2-7.1 4.2-3.2 0-11.8-3.6-11.8-3.6s1 2.8 2.1 6.1c0 0 2 5.9 3.7 10.7.7 2.9.1 6.3-4.2 7.9-4.5 1.8-6.8-1.3-7.7-3.1l-3.7-11.5s0 .1-.1.1l-2-6.2c-.9 1.8-6 10.2-10.9 11.5-1.5.4-3.2.1-4.4-.9m171.2 15.9c1.7-1.2 4-2.2 6.9-3.1 10.4-3.1 23.3 2 30.2 12.2 4.5 6.7 6.2 15.2 5.1 20.8-.1 0-.1 0-.2.1-2.4.8-6.2-.9-8.1-3.4-2-2.7-4.3-12.3-4.3-12.3s-1.8 2.6-3.9 5.6c0 0-3.8 5.5-6.9 9.9-2.1 2.5-5.3 4-9.4 1.4-4.3-2.7-3.1-6.7-2.1-8.6l7.6-10.4h-.2l4.1-5.6c-2.1.4-12.6 1.2-16.7-2.1-1.4-1.3-2.2-2.8-2.1-4.5m-159.4 91.6c-.6-1.9-1-4.2-1.1-7.2-.2-10.4 8-20.9 19.1-24.6 7.4-2.4 15.6-1.7 20.5.8v.2c.1 2.4-2.5 5.5-5.3 6.5-3 1.1-12.5.7-12.5.7s1.9 2.3 4.2 5.1c0 0 4 4.9 7.3 8.9 1.8 2.5 2.3 5.9-1.2 9-3.6 3.3-6.9 1.1-8.4-.3l-7.6-9.7v.2l-4.1-5.2c-.2 2.1-2.1 11.9-6.3 14.8-1.4 1-3.1 1.3-4.6.8m-61.5 59.9h.1c2 .5 4 3.4 4.2 6 .2 2.8-2.4 10.6-2.4 10.6s2.4-1 5.2-2.3c0 0 5.1-2.2 9.2-4 2.5-.9 5.5-.5 7.3 3.1 1.9 3.8-.7 6.1-2.2 7l-9.9 4.1s.1 0 .1.1l-5.3 2.2c1.7.6 9.4 4.6 10.9 8.7.5 1.5.4 2.9-.4 4-1.7.1-3.8-.2-6.3-.8-8.7-2.3-15.6-11.6-16-21.8-.3-6.7 2.3-13.4 5.5-16.9m298.8 76.4 6.4 5.3c-.5-2.4-1.4-14.1 2.5-18.2 1.4-1.4 3.1-2.1 5-1.8 1.3 2 2.5 4.7 3.5 8.1 3.5 11.9-2.5 25.5-14.1 31.7-7.7 4.1-17.5 4.8-23.9 2.7 0-.1 0-.1-.1-.2-.9-2.7 1.1-6.8 4-8.4 3.2-1.8 14.2-3 14.2-3s-2.9-2.3-6.4-5.1c0 0-6.3-5-11.4-9-2.8-2.6-4.5-6.5-1.6-10.6 3.1-4.4 7.7-2.5 9.8-1.2l11.9 9.8c.2 0 .2 0 .2-.1M267.9 316l1.6 8.2c1.2-2.1 7.9-11.7 13.5-12.4 2-.3 3.7.4 5 1.8-.3 2.4-1 5.3-2.4 8.5-4.9 11.5-18.2 18.1-31.1 15.5-8.5-1.7-16.5-7.5-20.1-13.1 0-.1 0-.1.1-.2 1.1-2.6 5.2-4.5 8.5-4 3.6.6 12.9 6.7 12.9 6.7s-.8-3.7-1.7-8c0 0-1.7-7.8-3-14.2-.5-3.8.6-7.9 5.6-9.2 5.2-1.4 7.5 2.9 8.3 5.4l2.9 15.2c-.1-.1-.1-.1-.1-.2" style="fill-rule:evenodd;clip-rule:evenodd;fill:#eccfb5"/><path d="M154.9 141.1c-1.4 0-2.5-.4-3.3-.7-3.5-1.7-4.8-5.5-4.9-6l-3.5-11c-2.3 3.2-5.7 6.9-9.4 7.8-2.9.8-5.7.1-7.6-2-1.7-1.8-3.9-6.2-.7-15.4 3.8-10.7 16.1-18.4 28.6-17.9 8.7.3 17.8 4.5 21.6 10 2.2 3.2 2 5.8 1.4 7.4-1.2 3.6-6 6.1-9.6 6-1.8 0-4.7-.9-7.4-1.8 1.3 3.8 3 8.6 3.7 10.6 1.9 5.3-.3 10.1-5.5 12.1-1.2.7-2.3.9-3.4.9M144 114.5h.2c1.1.1 2 .8 2.4 1.8l5.3 16.5c.2.6.9 2.2 2.1 2.8.3.1 1 .5 2.5-.1.9-.4 3.8-1.5 2.4-5.4-1.2-3.5-5.5-16-5.5-16-.3-1-.1-2.1.7-2.8s1.9-.9 2.9-.5c3.4 1.4 8.9 3.4 10.7 3.4 2.1 0 4.3-1.5 4.6-2.4s-.2-2-.8-2.7c-2.5-3.6-9.7-7.5-17.4-7.7-10.3-.4-20.4 5.8-23.4 14.4-2 5.5-1.5 8.8-.4 10 .5.6 1.3.7 2.3.5 3.3-.9 8.1-7.8 9.1-10 .3-1.2 1.3-1.8 2.3-1.8m169.5 64.3c-1.8 0-3.7-.6-5.6-1.8-2.9-1.8-3.9-4.1-4.2-5.7-.7-4 1.7-7.4 2-7.8l7.4-10.2c-4.3 0-9.6-.5-12.8-3.1-2.5-2-3.6-4.7-3-7.6.5-2.5 2.8-7.2 12.6-10.1 11.5-3.4 25.7 2.2 33.2 13.2 5.2 7.6 7.3 18 5 24.7-1.3 3.8-3.6 5.2-5.4 5.8-3.8 1.2-8.8-1.3-11-4.4-1.2-1.6-2.3-4.8-3.2-7.7-2.5 3.6-5.7 8.2-7 10.1-2.2 3-5 4.6-8 4.6m5.1-31.3c.9 0 1.7.5 2.2 1.2.6.9.6 2.1-.1 3L310 166.6c-.4.5-1.3 2.2-1.1 3.7.2.8.7 1.5 1.8 2.2.9.6 3.8 2.4 6.4-1.4 2.2-3.2 10.2-14.8 10.2-14.8.6-.9 1.6-1.3 2.7-1.1 1 .2 1.9 1 2.1 2 .9 3.8 2.7 9.8 3.9 11.4 1.3 1.8 4.1 2.8 5.1 2.5s1.6-1.5 2-2.5c1.5-4.4.3-13.1-4.3-19.9-6.2-9.1-17.9-13.9-27.2-11.1-6.1 1.8-8.6 4.3-8.9 6-.2.9.2 1.7 1.1 2.4 3 2.4 12.1 2 14.5 1.5zm-151.1 91.6h-.7c-3.9-.4-6.5-3.6-6.7-3.9l-7.3-9.3c-1.1 3.9-3 8.6-6.2 10.9-2.5 1.8-5.4 2.1-7.9.8-2.2-1.1-5.9-4.5-6.1-14.4-.2-11.5 8.8-23.2 20.9-27.2 8.4-2.8 18.5-2 24.1 1.9 3.2 2.2 3.9 4.8 4 6.5.1 3.9-3.5 7.8-7 9.1-1.8.6-4.9.9-7.7.9 2.6 3.2 5.9 7.2 7.3 8.9 3.6 4.4 3.3 9.7-.9 13.4-2.2 1.9-4.2 2.4-5.8 2.4M151.3 217c.8 0 1.6.4 2.1 1l10.9 13.8c.4.5 1.7 1.8 3 1.9.3 0 1.1.1 2.4-1 .8-.7 3.1-2.8.4-6.1-2.4-2.9-10.9-13.3-10.9-13.3-.7-.8-.8-1.9-.3-2.9.5-.9 1.4-1.5 2.5-1.5 3.7.2 9.7.1 11.5-.6 1.9-.7 3.6-2.9 3.5-3.9 0-1-.9-1.8-1.7-2.4-3.6-2.5-11.9-3.7-19.4-1.2-10 3.3-17.4 12.8-17.3 22 .1 6 1.7 8.9 3.2 9.7.7.4 1.5.2 2.4-.4 2.9-2 5-10.3 5.2-12.8.1-1.1.8-2 1.9-2.3zM89.9 339.7q-2.55 0-6.3-.9c-9.9-2.7-17.5-12.9-18-24.2-.3-7.8 2.8-16.2 7.4-20 2.7-2.2 5.2-2.2 6.7-1.8 3.4.8 6 5 6.2 8.3.1 1.5-.3 3.9-.9 6.1 3.2-1.4 6.9-3 8.5-3.7 4.7-2.1 9.2-.5 11.4 4.1 1.3 2.7 1 4.9.4 6.2-1.3 3.3-4.7 4.7-5.1 4.9l-8.9 3.6c2.9 1.8 6.1 4.5 7.2 7.5.9 2.6.5 5.2-1.3 7.1-.9 1.2-3.2 2.8-7.3 2.8m-11.7-41.9c-.7 0-1.4.5-1.8.8-2.9 2.4-5.8 8.9-5.5 15.6.4 9 6.4 17.3 14 19.3 4.9 1.3 7.6.7 8.5-.2.4-.4.4-1 .2-1.7-1-2.8-7.3-6.4-9.3-7.1-1-.4-1.7-1.4-1.7-2.5s.6-2.1 1.7-2.5l14.1-5.8c.4-.2 1.7-.9 2.1-1.9.1-.2.3-.8-.3-2-.7-1.4-1.8-2.8-4.5-1.6-3 1.3-13.7 6-13.7 6-1 .4-2.1.2-2.9-.5s-1.1-1.8-.7-2.8c1.2-3.5 2.3-8.2 2.2-9.6-.1-1.7-1.5-3.4-2.2-3.6-.1.1-.1.1-.2.1m293.3 110.6c-3.7 0-7.2-.6-10.1-1.8-3.6-1.5-5.9-3.7-6.8-6.5-1.2-3.9 1.2-9.3 5.2-11.6 1.9-1.1 5.6-1.9 9-2.5-4.2-3.3-9.8-7.8-12-9.5-5.4-4.2-6.5-10-2.9-15 1.6-2.2 3.6-3.5 6-3.8 4.5-.6 8.6 2.7 9 3.1l12.2 10.1c0-4.7.6-10.7 3.6-14 2.1-2.3 5-3.2 7.9-2.5s8.2 3.5 11.6 15c3.9 13.1-2.8 28.1-15.4 34.8-5.2 2.8-11.5 4.2-17.3 4.2M360.9 363h-.4c-.6.1-1.4.3-2.3 1.6-1.9 2.6-1.3 5.2 1.9 7.7 3.7 2.9 16.9 13.4 16.9 13.4.8.7 1.2 1.8.9 2.8s-1.2 1.8-2.3 1.9c-4.4.5-11.3 1.6-13.1 2.7-1.9 1.1-3.2 4-2.8 5.3.4 1.2 1.7 2.4 3.7 3.2 5.1 2.1 14.9 2.1 22.8-2.1 10.5-5.6 16-17.9 12.8-28.6-2.2-7.5-5.4-10.8-7.7-11.3-1.1-.3-2 .1-2.8.9-2.7 2.9-2.4 12.9-1.8 15.8.2 1.1-.3 2.2-1.2 2.8-1 .6-2.2.5-3.1-.2l-17-14c-.6-.5-2.7-1.9-4.5-1.9m-99.2-14.2c-2.1 0-4.1-.2-6.2-.6-9.3-1.9-18.8-8.4-22.6-15.6-1.8-3.4-2.2-6.6-1.1-9.4 1.5-3.7 6.8-6.4 11.4-5.6 2.1.4 5.6 2.1 8.5 3.8-1.1-5.2-2.6-12.2-3.2-15-1.4-6.7 1.4-11.8 7.3-13.4 2.6-.7 5-.4 7.1.9 3.9 2.5 4.9 7.5 5 8.1l3 15.5c3-3.6 7.3-7.9 11.7-8.5 3.1-.4 5.8.7 7.7 3.1 1.8 2.4 4.1 7.9-.6 18.9-4.6 10.9-16 17.8-28 17.8m-20.1-25.9c-2 0-4.3 1.2-4.8 2.4s-.2 2.9.8 4.8c2.6 4.9 10.2 11.1 19 12.9 11.6 2.4 23.7-3.6 28.1-13.9 3.1-7.2 2.7-11.8 1.3-13.6-.6-.9-1.6-1.2-2.7-1.1-3.9.5-10 8.4-11.5 11.1-.5 1-1.6 1.5-2.7 1.4-1.1-.2-2-1-2.2-2.1l-4.2-21.7c-.2-.9-1-3.5-2.6-4.6-.5-.3-1.3-.7-2.8-.3-3.1.8-4.3 3.2-3.5 7.1 1 4.6 4.5 21.1 4.5 21.1.2 1.1-.2 2.1-1.1 2.8-.9.6-2.1.6-3 0-3.7-2.4-9.8-5.9-11.8-6.3z" style="fill:#9a7451"/><path d="M324.6 210.6c-6.1 0-11-6-11-13.5 0-7.4 4.9-13.5 11-13.5s11 6 11 13.5c-.1 7.5-5 13.5-11 13.5m39.7 24.5c4.9-6 14.8-6 22.2 0s9.3 15.7 4.4 21.7-14.8 6-22.2 0c-7.3-5.9-9.3-15.7-4.4-21.7m-90.8 188.4c4.9-6 14.8-6 22.2 0s9.3 15.7 4.4 21.7-14.8 6-22.2 0c-7.3-6-9.3-15.7-4.4-21.7M211 165.7c7-3.4 16 .8 20.2 9.3s1.9 18.2-5.1 21.6-16-.8-20.2-9.3-1.9-18.2 5.1-21.6M108.6 343.9c6.1 4.7 6.4 14.7.6 22.2s-15.5 9.7-21.6 5-6.4-14.7-.6-22.2 15.5-9.7 21.6-5m169-93c7.8-.1 14.2 7.5 14.3 17 .2 9.5-6 17.3-13.8 17.4s-14.2-7.5-14.3-17 6.1-17.3 13.8-17.4" style="fill:#6a895b"/><path d="M327.6 184.3c4.6 1.6 8 6.8 8 12.9 0 7-4.4 12.8-10 13.4-3.8-2.3-6.3-7.1-6.3-12.7-.1-6.5 3.5-12 8.3-13.6m35.9 51.8c5.3-1.8 12.2-.5 17.7 4 6.4 5.3 9 13.2 6.7 19.3-5.3 3.2-13.2 2.4-19.2-2.6-6.9-5.6-9.1-14.6-5.2-20.7m-90.7 188.4c5.3-1.8 12.2-.5 17.7 4 6.4 5.3 9 13.2 6.7 19.3-5.3 3.2-13.2 2.4-19.2-2.6-7-5.7-9.1-14.7-5.2-20.7m-62.9-258.2c5.6.6 11.3 4.6 14.4 11 3.6 7.5 2.6 15.8-2 20.4-6.2.7-12.9-3.3-16.4-10.4-3.9-8-2.1-17.1 4-21m-125 201.9c-3.4-5.2-2.7-13.1 2.1-19.3 5.5-7.1 14.4-9.5 20.6-5.7 2 5.3.8 12.2-3.5 17.8-5.1 6.6-13 9.3-19.2 7.2m191.5-117.3c4.8 2.9 8.2 9 8.4 16.1.1 8.3-4.3 15.4-10.4 17.6-5.9-2-10.3-8.5-10.4-16.4-.3-8.9 5.2-16.4 12.4-17.3" style="fill-rule:evenodd;clip-rule:evenodd;fill:#5c784d"/><path d="M324.6 213.3c-7.5 0-13.7-7.2-13.7-16.1s6.1-16.1 13.7-16.1c7.5 0 13.7 7.2 13.7 16.1-.1 8.9-6.2 16.1-13.7 16.1m0-26.9c-4.6 0-8.3 4.8-8.3 10.8s3.7 10.8 8.3 10.8 8.3-4.8 8.3-10.8-3.7-10.8-8.3-10.8m56.1 77.6c-4.6 0-9.5-1.7-13.7-5.1-8.5-6.9-10.6-18.4-4.8-25.5s17.5-7.3 25.9-.4c4 3.3 6.8 7.7 7.7 12.4 1 4.9 0 9.6-2.9 13.1-2.9 3.7-7.4 5.5-12.2 5.5m-14.4-27.2c-4 4.9-2.1 12.9 4.1 18s14.5 5.2 18.4.4c1.9-2.3 2.5-5.3 1.8-8.7-.7-3.5-2.8-6.8-5.9-9.3-6.1-5.1-14.4-5.2-18.4-.4M290 452.4c-4.6 0-9.5-1.7-13.7-5.1-4-3.3-6.8-7.7-7.7-12.4-1-4.9 0-9.6 2.9-13.1s7.2-5.5 12.2-5.5c4.8 0 9.7 1.8 13.7 5.1s6.8 7.7 7.7 12.4c1 4.9 0 9.6-2.9 13.1-3 3.6-7.4 5.5-12.2 5.5m-6.3-30.8c-3.4 0-6.3 1.3-8.1 3.5-1.9 2.3-2.5 5.3-1.8 8.7.7 3.5 2.8 6.8 5.9 9.3 6.2 5.1 14.5 5.2 18.4.4 1.9-2.3 2.5-5.3 1.8-8.7-.7-3.5-2.8-6.8-5.9-9.3s-6.7-3.9-10.3-3.9m-62.8-221.1c-2.3 0-4.7-.5-7-1.6-4.4-2-8-5.7-10.3-10.4s-2.9-9.8-1.8-14.5c1.1-4.9 4-8.7 8.1-10.7s8.9-2 13.4.1c4.4 2 8 5.7 10.3 10.4 4.8 9.8 2 21.1-6.3 25.2-2.1 1-4.2 1.5-6.4 1.5m-4.7-33.3c-1.4 0-2.8.3-4 .9-2.6 1.3-4.5 3.8-5.3 7.1-.8 3.5-.3 7.4 1.4 11s4.5 6.4 7.7 7.9c3.1 1.4 6.2 1.5 8.8.2 5.6-2.8 7.4-10.8 3.8-18-1.7-3.6-4.5-6.4-7.7-7.9-1.5-.8-3.1-1.2-4.7-1.2M95.1 376.3c-3.4 0-6.5-1-9.1-3.1-3.6-2.8-5.7-7.1-5.8-12.1-.1-4.8 1.6-9.7 4.7-13.8 3.2-4.1 7.5-7 12.2-8.1 4.9-1.1 9.6-.2 13.2 2.6s5.7 7.1 5.8 12.1c.1 4.8-1.6 9.7-4.7 13.8-3.2 4.1-7.5 7-12.2 8.1-1.5.3-2.8.5-4.1.5m6-32.2c-.9 0-1.8.1-2.8.3-3.5.8-6.8 3-9.2 6.1s-3.7 6.9-3.6 10.4c.1 3.4 1.4 6.2 3.7 8s5.4 2.4 8.7 1.6c3.5-.8 6.7-3 9.2-6.1 2.4-3.1 3.7-6.9 3.6-10.4-.1-3.4-1.4-6.2-3.7-8-1.7-1.2-3.7-1.9-5.9-1.9M278 287.9c-9.1 0-16.6-8.7-16.8-19.6-.1-5.2 1.5-10.1 4.5-13.9 3.1-3.9 7.3-6.1 11.9-6.2h.2c4.5 0 8.7 2.1 11.8 5.8s4.8 8.6 4.9 13.8c.2 10.9-7.2 20-16.4 20.1zm-.3-34.4c-2.9 0-5.7 1.5-7.8 4.2-2.2 2.8-3.4 6.5-3.3 10.5.1 8 5.4 14.4 11.6 14.3 6.3-.1 11.3-6.7 11.1-14.7-.1-4-1.4-7.7-3.7-10.4-2.1-2.5-4.9-3.9-7.8-3.9zm-.1-2.6" style="fill:#374536"/><path d="M434.1 172.3c1.9-4.1.1-9-4-10.9-1.1-.5-2.2-1-3.2-1.5-4.1-1.9-9-.1-10.9 4-2.4 5.3-5.3 11.4-5.3 11.4l18.1 8.4s2.9-6.1 5.3-11.4M192 163.6c0-4.5-3.7-8.2-8.2-8.2h-3.6c-4.5 0-8.2 3.7-8.2 8.2v12.6h20zm-35.1 108c-4.2-1.7-9 .2-10.7 4.4-.5 1.1-.9 2.2-1.4 3.3-1.7 4.2.2 9 4.4 10.7 5.4 2.2 11.6 4.8 11.6 4.8l7.7-18.4s-6.2-2.6-11.6-4.8m267 34.7c4.1 2 9 .2 10.9-3.8.5-1.1 1-2.1 1.5-3.2 2-4.1.2-9-3.8-10.9-5.2-2.5-11.3-5.4-11.3-5.4l-8.6 18c0-.1 6.1 2.8 11.3 5.3m-272.2 87.9c-3.3 3.1-3.5 8.3-.4 11.6.8.9 1.6 1.7 2.4 2.6 3.1 3.3 8.3 3.5 11.6.4 4.2-4 9.2-8.6 9.2-8.6l-13.6-14.6c0 .1-5 4.7-9.2 8.6m150.9-79.4c1.9 4.1 6.8 5.8 10.9 3.9 1.1-.5 2.1-1 3.2-1.5 4.1-1.9 5.8-6.8 3.9-10.9-2.5-5.2-5.4-11.3-5.4-11.3l-18 8.6c-.1-.2 2.9 5.9 5.4 11.2M187.8 76c-1.5-4.3-6.2-6.5-10.5-5-1.1.4-2.2.8-3.4 1.2-4.3 1.5-6.5 6.2-5 10.5 1.9 5.5 4.2 11.9 4.2 11.9l18.8-6.6c.1-.2-2.2-6.5-4.1-12m187.1 50c3.5-2.9 3.9-8.1 1-11.6-.8-.9-1.5-1.8-2.3-2.7-2.9-3.5-8.1-3.9-11.6-1-4.4 3.8-9.6 8.1-9.6 8.1l12.9 15.2c0 .1 5.1-4.2 9.6-8m-94.7-57.7c0-4.5-3.7-8.2-8.2-8.2h-3.6c-4.5 0-8.2 3.7-8.2 8.2v12.6h19.9V68.3zm-2.5 163.9c4.4 1 8.8-1.8 9.8-6.2.3-1.1.5-2.3.8-3.5 1-4.4-1.8-8.8-6.2-9.8-5.7-1.3-12.3-2.8-12.3-2.8l-4.4 19.5s6.6 1.5 12.3 2.8" style="fill-rule:evenodd;clip-rule:evenodd;fill:#f5da70"/><path d="M417 178.3s2.9-6.1 5.3-11.4c1.7-3.6 5.6-5.4 9.3-4.5 3 2.3 4.2 6.4 2.5 10-2.4 5.3-5.3 11.4-5.3 11.4zm-231.5-22.7c3.7.8 6.5 4.1 6.5 8v12.6h-13v-12.6c0-3.9 2.7-7.2 6.5-8M147 274.5c2.2-3.1 6.3-4.4 9.9-2.9l11.6 4.8-3.5 8.6-1.5 3.5s-6.3-2.6-11.6-4.8c-3.6-1.6-5.6-5.5-4.9-9.2m265.6 26.4 5.6-11.7s6.1 2.9 11.3 5.4c3.6 1.7 5.3 5.6 4.4 9.3-2.3 3-6.5 4.1-10 2.4-5.2-2.5-11.3-5.4-11.3-5.4m-251.7 84.8 8.9 9.5s-4.9 4.6-9.2 8.6c-2.9 2.7-7.2 2.9-10.3.7-2-3.2-1.5-7.5 1.4-10.2 4.2-4 9.1-8.6 9.2-8.6m148-87.9 5.4 11.3c1.7 3.6.6 7.7-2.4 10-3.7.9-7.6-.9-9.3-4.4-2.5-5.2-5.4-11.3-5.4-11.3zM179 70.6c3.8-.5 7.5 1.7 8.8 5.4 1.9 5.5 4.2 11.9 4.2 11.9l-9.1 3.2-3.2 1.1s-2.2-6.4-4.2-11.9c-1.3-3.7.2-7.8 3.5-9.7m186.3 63.5-8.4-9.9s5.2-4.4 9.6-8.1c3-2.5 7.3-2.5 10.3-.2 1.8 3.3 1.1 7.6-1.9 10.1zm-91.6-73.8c3.7.8 6.5 4.1 6.5 8v12.6h-13V68.3c0-3.9 2.8-7.2 6.5-8m-5.4 156.4 12.3 2.8c3.8.9 6.4 4.3 6.4 8.1-1.6 3.4-5.4 5.4-9.3 4.6-5.7-1.3-12.3-2.8-12.3-2.8z" style="fill-rule:evenodd;clip-rule:evenodd;fill:#efc415"/><path d="M160.8 297.2c-.3 0-.6-.1-.9-.2l-11.6-4.8c-5.4-2.2-7.9-8.4-5.7-13.8l1.4-3.3c2.2-5.4 8.4-7.9 13.8-5.7l11.6 4.8c.6.2 1 .7 1.3 1.3q.3.9 0 1.8l-7.7 18.4c-.4.9-1.3 1.5-2.2 1.5m-7-23.9c-2.3 0-4.5 1.4-5.4 3.6l-1.4 3.3c-1.2 3 .2 6.4 3.2 7.7l9.5 3.9 5.9-14.1-9.5-3.9c-.8-.4-1.6-.5-2.3-.5M310 321.8c-3.9 0-7.7-2.2-9.5-6l-5.4-11.3c-.6-1.2-.1-2.6 1.1-3.1l18-8.6c1.2-.6 2.6-.1 3.1 1.1l5.4 11.3c2.5 5.2.3 11.5-5 14l-3.2 1.5c-1.5.8-3 1.1-4.5 1.1m-9.8-17.3 4.4 9.2c1.4 2.9 4.9 4.2 7.8 2.8l3.2-1.5c1.4-.7 2.5-1.9 3-3.3.5-1.5.4-3.1-.2-4.5L314 298zm128.6-118.4c-.3 0-.7-.1-1-.2l-18.1-8.4c-1.2-.5-1.7-1.9-1.1-3.1l5.3-11.4c1.2-2.6 3.3-4.5 5.9-5.5s5.5-.8 8.1.3l3.2 1.5c2.6 1.2 4.5 3.3 5.5 5.9s.8 5.5-.3 8.1l-5.3 11.4c-.3.6-.7 1-1.3 1.2-.3.1-.6.2-.9.2m-15-11.9 13.9 6.4 4.3-9.3c.7-1.4.7-3 .2-4.5s-1.6-2.6-3-3.3L426 162c-1.4-.7-3-.7-4.5-.2s-2.6 1.6-3.3 3zM192 178.5h-20c-1.3 0-2.3-1-2.3-2.3v-12.6c0-5.8 4.7-10.5 10.5-10.5h3.6c5.8 0 10.5 4.7 10.5 10.5v12.6c0 1.3-1.1 2.3-2.3 2.3m-17.7-4.6h15.3v-10.2c0-3.2-2.6-5.9-5.9-5.9h-3.6c-3.2 0-5.9 2.6-5.9 5.9v10.2zm253.1 135.6c-1.5 0-3.1-.3-4.5-1l-11.3-5.5c-1.2-.6-1.6-1.9-1.1-3.1l8.6-18c.6-1.2 1.9-1.6 3.1-1.1l11.3 5.5c2.5 1.2 4.4 3.4 5.4 6s.8 5.5-.4 8l-1.5 3.2c-1.9 3.8-5.7 6-9.6 6m-2.5-5.3c1.4.7 3 .8 4.5.3s2.7-1.6 3.3-3l1.5-3.2c.7-1.4.8-3 .2-4.5-.5-1.5-1.6-2.7-3-3.3l-9.2-4.4-6.6 13.8zM159.7 413.4h-.4c-2.8-.1-5.4-1.3-7.3-3.3l-2.4-2.6c-4-4.2-3.7-10.9.5-14.9l9.2-8.6c.5-.4 1.1-.6 1.7-.6s1.2.3 1.6.7l13.6 14.6c.9.9.8 2.4-.1 3.3l-9.2 8.6c-2 1.8-4.5 2.8-7.2 2.8m-6.4-17.5c-2.4 2.2-2.5 5.9-.3 8.3l2.4 2.6c1.1 1.1 2.5 1.8 4.1 1.9 1.5 0 3.1-.5 4.2-1.6l7.5-7-10.4-11.1zm19.8-299.1c-.3 0-.7-.1-1-.2-.6-.3-1-.7-1.2-1.3l-4.2-11.9c-.9-2.7-.8-5.5.4-8s3.3-4.4 6-5.4l3.3-1.2c5.5-1.9 11.5 1 13.4 6.4l4.2 11.9c.4 1.2-.2 2.5-1.4 3l-18.8 6.6c-.1.1-.4.1-.7.1m6.9-24c-.6 0-1.3.1-1.9.3l-3.3 1.2c-1.5.5-2.7 1.6-3.3 3-.7 1.4-.8 3-.2 4.5l3.4 9.7 14.4-5.1-3.4-9.7c-1-2.3-3.2-3.9-5.7-3.9m185.3 63.7h-.2c-.6-.1-1.2-.3-1.6-.8l-12.9-15.2c-.8-1-.7-2.5.3-3.3l9.6-8.1c2.1-1.8 4.9-2.7 7.7-2.5s5.3 1.5 7.2 3.7l2.3 2.7c1.8 2.1 2.7 4.9 2.5 7.7s-1.5 5.3-3.7 7.2l-9.6 8.1c-.6.3-1.1.5-1.6.5m-9.6-17.3 9.9 11.7 7.8-6.6c1.2-1 1.9-2.4 2.1-4 .1-1.6-.4-3.1-1.4-4.3l-2.3-2.7c-1-1.2-2.4-1.9-4-2.1-1.5-.1-3.1.4-4.3 1.4zm-75.5-36h-19.9c-1.3 0-2.3-1-2.3-2.3V68.3c0-5.8 4.7-10.5 10.5-10.5h3.6c5.8 0 10.5 4.7 10.5 10.5v12.6c-.1 1.3-1.1 2.3-2.4 2.3m-17.6-4.6h15.3V68.3c0-3.2-2.6-5.9-5.9-5.9h-3.6c-3.2 0-5.9 2.6-5.9 5.9v10.3zm16.9 156.1c-.8 0-1.6-.1-2.3-.3l-12.3-2.8c-1.3-.3-2-1.5-1.8-2.8l4.4-19.5c.1-.6.5-1.1 1-1.5.5-.3 1.2-.4 1.8-.3l12.3 2.8c2.7.6 5.1 2.3 6.6 4.6 1.5 2.4 2 5.2 1.4 7.9l-.8 3.5c-.6 2.7-2.3 5.1-4.6 6.6-1.8 1.3-3.7 1.8-5.7 1.8m-1.3-4.8c1.5.3 3.1.1 4.4-.8 1.3-.8 2.2-2.1 2.6-3.7l.8-3.5c.3-1.5.1-3.1-.8-4.4-.8-1.3-2.1-2.2-3.7-2.6l-10-2.3-3.4 14.9z" style="fill:#c19607"/></svg>