<?xml version="1.0" encoding="utf-8"?>
<!-- Generator: Adobe Illustrator 28.2.0, SVG Export Plug-In . SVG Version: 6.00 Build 0)  -->
<svg version="1.1" id="logo" xmlns="http://www.w3.org/2000/svg" xmlns:xlink="http://www.w3.org/1999/xlink" x="0px" y="0px"
	 viewBox="0 0 512 512" style="enable-background:new 0 0 512 512;" xml:space="preserve">
<style type="text/css">
	.st0{fill:#FFFFFF;}
</style>
<path class="st0" d="M129.6,452.2c-32.7,0-64.1-13.4-88.6-37.8c-26.1-25.9-41-62-41-98.9c0-36.4,14.1-70.7,39.7-96.6
	c21.7-21.9,49.5-35.5,79.6-39.3c3.7-30.2,17.3-58.2,39.1-80c25.8-25.8,60-40,96.5-40c69.5,0,127.1,52.4,135.6,119.8
	C458.7,187,512,245.1,512,315.5c0,36.5-14.2,70.7-40.1,96.3c-25.7,25.4-60,39.5-96.5,39.5l-244.5,0.9l0,0l0,0
	C130.4,452.2,130,452.2,129.6,452.2z M129.2,214.4c-52.3,3.8-93.8,47.9-93.8,101.2c0,27.5,11.1,54.4,30.6,73.8
	c17.8,17.7,40.4,27.4,63.6,27.4c0.1,0,0.3,0,0.4,0c21.5-0.1,40-3.8,55.4-11.1c9.2-4.4,17.3-10.2,24.2-17.2
	c22.6-22.9,28.2-54.4,28.6-78.2c0-1.6,0-2.9-0.1-4c-0.4-10.3-3.2-21.1-8-31.5c-5.1-10.6-12.4-20.8-21.3-29.7
	c-9.8-9.8-21-17.5-32.9-22.7c-11.2-4.7-24.6-7.8-40.2-7.9L129.2,214.4z M273.7,310.2c0,22.4-4.5,67.4-37.7,102
	c-1.4,1.4-2.8,2.8-4.2,4.2l143.5-0.5c55.9,0,101.3-45,101.3-100.3c0-54.6-43.3-99.3-97.2-101.4l-4.6,0.2
	c-18.3,0.8-33.3,5.3-45.5,11.4c-10.6,5.6-20.6,13-29.3,22.1c-0.6,0.6-1.2,1.3-1.8,1.9c-0.3,0.3-0.5,0.6-0.8,0.9
	c-14.3,16.5-21.6,35.3-23.3,48.8c-0.2,1.8-0.2,3.6-0.2,5.4c0,0.2,0,0.4,0,0.6h-0.2C273.8,307.1,273.8,308.7,273.7,310.2z
	 M196.7,192.8c14.5,7,27.8,16.6,39.3,28.5c7.6,7.9,14.3,16.7,19.8,26c4.5-7.4,9.9-14.5,16.1-21.3c10.6-12,26-25.3,47.1-34.7
	c11.5-5.3,23.6-9.1,35.9-11.1C347.1,132,305.2,95,255,95c-50,0-91.7,36.7-99.8,84.7C169.5,181.8,183.5,186.2,196.7,192.8z"/>
</svg>
