<svg xmlns="http://www.w3.org/2000/svg" xml:space="preserve" viewBox="0 0 512 512"><linearGradient id="file-portal_svg__a" x1="-48.217" x2="-39.683" y1="650.717" y2="642.183" gradientTransform="matrix(60 0 0 -60 2893 39043)" gradientUnits="userSpaceOnUse"><stop offset="0" style="stop-color:#1f2a5a"/><stop offset="1" style="stop-color:#2d3b8b"/></linearGradient><path d="M102.4 0h307.2C466.2 0 512 45.8 512 102.4v307.2c0 56.6-45.8 102.4-102.4 102.4H102.4C45.8 512 0 466.2 0 409.6V102.4C0 45.8 45.8 0 102.4 0" style="fill:url(#file-portal_svg__a)"/><linearGradient id="file-portal_svg__b" x1="-46.562" x2="-38.029" y1="637.383" y2="637.383" gradientTransform="matrix(44 0 0 -28 2117 18171)" gradientUnits="userSpaceOnUse"><stop offset="0" style="stop-color:#60a5fa"/><stop offset="1" style="stop-color:#93c5fd"/></linearGradient><path d="M68.3 204.8H239l34.1 34.1h170.7v153.6c0 28.3-22.9 51.2-51.2 51.2H119.5c-28.3 0-51.2-22.9-51.2-51.2z" style="fill:url(#file-portal_svg__b)"/><path d="M392.5 448.9h-273c-31.1 0-56.3-25.3-56.3-56.3V199.7h177.9l34.1 34.1h173.7v158.7c0 31.1-25.3 56.4-56.4 56.4m-319.1-239v182.6c0 25.4 20.7 46.1 46.1 46.1h273.1c25.4 0 46.1-20.7 46.1-46.1V244.1H271L236.9 210H73.4z" style="fill:#e5efff"/><path d="M391.2 175.3c-14.6-20.8-38.4-33.7-64-34.5-.8-.4-1.6-.7-2.4-1-38.6-16.4-83-.4-102.7 35.6-36.1 4.1-64.3 34.9-64.3 72.1 0 40 32.5 72.5 72.5 72.5h29c-4.6 5-4.5 12.7.3 17.6 5 5 13.1 5 18.1 0l16.5-16.6v37.4c0 7.1 5.7 12.8 12.8 12.8s12.8-5.7 12.8-12.8V321l16.5 16.6c2.5 2.5 5.8 3.8 9.1 3.8s6.5-1.2 9-3.8c4.8-4.8 4.9-12.6.3-17.6h29c40 0 72.5-32.5 72.5-72.5.3-37.6-28.4-68.6-65-72.2M384 294.4h-54.4l-13.3-13.3c-1.2-1.2-2.6-2.1-4.2-2.8-.1 0-.1 0-.2-.1-1.4-.6-3-.9-4.7-.9s-3.2.3-4.7.9c-.1 0-.1 0-.2.1-1.6.6-3 1.6-4.2 2.8l-13.3 13.3h-54.4c-25.9 0-46.9-21.1-46.9-46.9 0-25.9 21.1-46.9 46.9-46.9 5.1 0 9.8-3.1 11.8-7.8 9-21.1 29.5-33.8 51.1-33.8 7.2 0 14.5 1.4 21.6 4.4 1.2.5 2.4 1 3.5 1.6 1.8.9 3.9 1.3 6 1.4 19.9-.1 38.6 10.4 48.5 27.7 2.3 4 6.5 6.4 11.1 6.4 25.9 0 46.9 21.1 46.9 46.9 0 25.9-21 47-46.9 47" style="fill:#fff"/></svg>