<?xml version="1.0" encoding="utf-8"?>
<!-- Generator: Adobe Illustrator 28.2.0, SVG Export Plug-In . SVG Version: 6.00 Build 0)  -->
<svg version="1.1" id="Layer_1" xmlns="http://www.w3.org/2000/svg" xmlns:xlink="http://www.w3.org/1999/xlink" x="0px" y="0px"
	 viewBox="0 0 512 512" style="enable-background:new 0 0 512 512;" xml:space="preserve">
<style type="text/css">
	.st0{fill:#FFFFFF;}
</style>
<path class="st0" d="M437,75C388.7,26.6,324.4,0,256,0S123.4,26.7,75,75S0,187.6,0,256s26.6,132.7,75,181c48.3,48.4,112.6,75,181,75
	s132.7-26.6,181-75c48.4-48.3,75-112.6,75-181S485.4,123.4,437,75z M98.4,149.2v-11c0-10.5,8.6-19.1,19.1-19.1h41.8
	c10.5,0,19.1,8.6,19.1,19.1v11c0,10.5-8.6,19.1-19.1,19.1h-41.8C107,168.3,98.4,159.7,98.4,149.2z M327.9,378.1v-11
	c0-10.5,8.6-19.1,19.1-19.1h41.8c10.5,0,19.1,8.6,19.1,19.1v11c0,10.5-8.6,19.1-19.1,19.1H347C336.5,397.2,327.9,388.6,327.9,378.1z
	 M33.5,256c0-45.9,14-88.7,37.9-124.1c-0.2,1.8-0.3,3.6-0.3,5.4v11c0,25.6,20.8,46.4,46.4,46.4h41.8c19.6,0,37.2-12.5,43.7-30.7
	h126.2c21.6,0,39.9,18.3,39.9,39.9c0,21.6-18.3,39.9-39.9,39.9H177.3c-37.2,0-67.4,30.2-67.4,67.4c0,37.2,30.3,67.4,67.4,67.4h123.4
	c0.3,25.3,21,45.8,46.4,45.8h41.8c5.4,0,10.5-0.9,15.3-2.6c-39.4,35.2-91.3,56.7-148.2,56.7C133.3,478.5,33.5,378.7,33.5,256z
	 M433.8,389.6c1-3.7,1.5-7.6,1.5-11.6v-11c0-12.3-4.9-24-13.8-32.8c-8.8-8.8-20.5-13.6-32.7-13.6H347c-19.6,0-37.2,12.5-43.7,30.7
	h-126c-21.6,0-39.9-18.3-39.9-39.9c0-21.6,18.3-39.9,39.9-39.9h151.8c37.2,0,67.4-30.3,67.4-67.4c0-37.2-30.3-67.4-67.4-67.4H205.7
	c-0.3-25.3-21-45.8-46.4-45.8h-41.8c-4.3,0-8.4,0.6-12.3,1.7c39.7-36.6,92.7-59.1,150.8-59.1c122.7,0,222.5,99.8,222.5,222.5
	C478.5,306.1,461.9,352.3,433.8,389.6z"/>
</svg>
