<svg xmlns="http://www.w3.org/2000/svg" xml:space="preserve" viewBox="0 0 512 512"><path d="M53 450.2h406c4.9 0 8.8-4 8.8-8.8v-35.3c0-4.9-4-8.8-8.8-8.8H53c-4.9 0-8.8 4-8.8 8.8v35.3c-.1 4.9 3.9 8.8 8.8 8.8m397.2-39.7c7.3 0 13.2 5.9 13.2 13.2s-5.9 13.2-13.2 13.2S437 431 437 423.7s5.9-13.2 13.2-13.2M53 344.3h406c4.9 0 8.8-4 8.8-8.8v-35.3c0-4.9-4-8.8-8.8-8.8H53c-4.9 0-8.8 4-8.8 8.8v35.3c-.1 4.8 3.9 8.8 8.8 8.8m397.2-39.7c7.3 0 13.2 5.9 13.2 13.2s-5.9 13.2-13.2 13.2-13.2-5.9-13.2-13.2 5.9-13.2 13.2-13.2M53 238.3h406c4.9 0 8.8-4 8.8-8.8v-35.3c0-4.9-4-8.8-8.8-8.8H53c-4.9 0-8.8 4-8.8 8.8v35.3c-.1 4.9 3.9 8.8 8.8 8.8m397.2-39.7c7.3 0 13.2 5.9 13.2 13.2s-5.9 13.2-13.2 13.2-13.2-5.9-13.2-13.2 5.9-13.2 13.2-13.2m0-198.6H61.8C27.7 0 0 27.7 0 61.8v388.4C0 484.3 27.7 512 61.8 512h388.4c34.1 0 61.8-27.7 61.8-61.8V61.8C512 27.7 484.3 0 450.2 0m44.1 450.2c0 24.3-19.8 44.1-44.1 44.1H61.8c-24.3 0-44.1-19.8-44.1-44.1V280.3h476.7v169.9zm0-183.2H17.7v-92.7h476.7V267zm0-105.9H17.7V61.8c0-24.3 19.8-44.1 44.1-44.1h388.4c24.3 0 44.1 19.8 44.1 44.1zm-203-90.5v17.7c0 4.9-4 8.8-8.8 8.8h-53c-4.9 0-8.8-4-8.8-8.8V70.6c0-4.9 4-8.8 8.8-8.8h53c4.9 0 8.8 3.9 8.8 8.8" style="fill:#fff"/></svg>