<svg xmlns="http://www.w3.org/2000/svg" xml:space="preserve" viewBox="0 0 512 512"><path d="M201.7 83.1c-5.9 4.8-30 20.3-39.5 20.3H23.9c-9.2 0-17.5 3.9-23.4 10V54.2C.5 41.9 10.4 32 22.7 32h133c12.3 0 25 9.5 51.7 47.6m282.5 9.1c-69.9-.1-282.1-.3-281.8 0s-31 23.1-45.9 23.1H23.9c-13.2.1-23.9 10.8-23.9 24v320.4c0 12.9 10.5 23.4 23.4 23.4h55.7V394c0-37.1 30.2-67.3 67.3-67.3h218.8c37.1 0 67.3 30.2 67.3 67.3v85.6h56.6c12.7 0 22.9-10.3 22.9-22.9V110.8c0-12.2-9.9-22.1-22.1-22.1m-124.8 247H146.4c-32.2 0-58.3 26.1-58.3 58.3v86h335.4v-86c0-32.2-26.2-58.3-58.4-58.3m-14.7 74.2H159.8c-1.7 0-3-1.3-3-3s1.3-3 3-3h190.6c1.7 0 3 1.3 3 3s-1.3 3-3 3" style="fill:#fff"/></svg>