<?xml version="1.0" encoding="utf-8"?>
<!-- Generator: Adobe Illustrator 28.2.0, SVG Export Plug-In . SVG Version: 6.00 Build 0)  -->
<svg version="1.1"
	 id="svg44" xmlns:dc="http://purl.org/dc/elements/1.1/" xmlns:rdf="http://www.w3.org/1999/02/22-rdf-syntax-ns#" xmlns:cc="http://creativecommons.org/ns#" xmlns:svg="http://www.w3.org/2000/svg" xmlns:sodipodi="http://sodipodi.sourceforge.net/DTD/sodipodi-0.dtd" xmlns:inkscape="http://www.inkscape.org/namespaces/inkscape" inkscape:export-filename="/home/umarcor/filebrowser/logo/icon_raw.svg.png"
	 xmlns="http://www.w3.org/2000/svg" xmlns:xlink="http://www.w3.org/1999/xlink" x="0px" y="0px" viewBox="0 0 512 512"
	 style="enable-background:new 0 0 512 512;" xml:space="preserve">
<style type="text/css">
	.st0{fill-rule:evenodd;clip-rule:evenodd;fill:#FEFEFE;}
	.st1{fill-rule:evenodd;clip-rule:evenodd;fill:#332C2B;fill-opacity:0.149;}
	.st2{fill-rule:evenodd;clip-rule:evenodd;fill:#006498;}
	.st3{fill-rule:evenodd;clip-rule:evenodd;fill:#2BBCFF;}
	.st4{fill-rule:evenodd;clip-rule:evenodd;fill:#BDEAFF;}
	.st5{fill-rule:evenodd;clip-rule:evenodd;fill:#0EA5EB;}
	.st6{fill-rule:evenodd;clip-rule:evenodd;fill:#2979FF;}
</style>
<path id="path9" inkscape:connector-curvature="0" class="st0" d="M256,0.9c140.8,0,255.1,114.3,255.1,255.1S396.8,511.1,256,511.1
	S0.9,396.8,0.9,256S115.2,0.9,256,0.9z"/>
<path class="st1" d="M478.2,289.9L370.3,151.8c1.8-0.9-124.4,85.9-124.4,86l-94.8,129.8c0.2,0,0.5-0.1,0.7-0.1
	c2.7,0,4.6,1.8,4.6,4.6c0,1.8-1.8,3.7-4.6,3.7c-2.5,0-4.2-1.4-4.5-3l-5.6,7.6l69.5,90.5C342,520.3,480.9,396,478.2,289.9z
	 M359.3,375.8c-2.7,0-4.6-1.8-4.6-3.7c0-2.7,1.9-4.6,4.6-4.6c2.7,0,4.6,1.8,4.6,4.6C363.9,373.9,362.1,375.8,359.3,375.8z"/>
<path class="st2" d="M337.4,128.9H147.2c-4.6,0-7.3,2.8-7.3,7.3v239.5c0,4.6,2.7,7.3,7.3,7.3h217.6c4.6,0,7.3-2.7,7.3-7.3V150.8
	L337.4,128.9z M151.8,375.8c-2.8,0-4.6-1.8-4.6-3.7c0-2.7,1.8-4.6,4.6-4.6c2.7,0,4.6,1.8,4.6,4.6
	C156.4,373.9,154.6,375.8,151.8,375.8z M168.2,172.7c-8.2,0-15.5-6.4-15.5-14.6c0-9.1,7.3-15.5,15.5-15.5c9.1,0,15.5,6.4,15.5,15.5
	C183.7,166.3,177.3,172.7,168.2,172.7z M359.3,375.8c-2.7,0-4.6-1.8-4.6-3.7c0-2.7,1.9-4.6,4.6-4.6c2.7,0,4.6,1.8,4.6,4.6
	C363.9,373.9,362.1,375.8,359.3,375.8z"/>
<path class="st3" d="M337.4,128.9H147.2c-4.6,0-7.3,2.8-7.3,7.3v239.5c0,4.6,2.7,7.3,7.3,7.3h217.6c4.6,0,7.3-2.7,7.3-7.3V150.8
	L337.4,128.9z M333.7,287c0,1.8-0.9,2.7-2.7,2.7H180.1c-1.8,0-2.7-0.9-2.7-2.7c0-0.8,0.9-2.7,2.7-2.7H331
	C332.8,284.3,333.7,286.1,333.7,287z M331,319.9H180.1c-1.8,0-2.7-0.9-2.7-1.8c0-1.8,0.9-2.7,2.7-2.7H331c1.8,0,2.7,0.9,2.7,2.7
	C333.7,319,332.8,319.9,331,319.9z M333.7,348.3c0,0.9-0.9,2.7-2.7,2.7H180.1c-1.8,0-2.7-1.8-2.7-2.7c0-1.8,0.9-2.7,2.7-2.7H331
	C332.8,345.6,333.7,346.5,333.7,348.3z M277.9,147.2c0-2.7,2.8-4.6,5.5-4.6h9.1c2.7,0,5.5,1.8,5.5,4.6v36.6c0,2.7-2.7,5.5-5.5,5.5
	h-9.1c-2.7,0-5.5-2.7-5.5-5.5V147.2z M195.7,129.8h19.2v89.6h-19.2V129.8z M151.8,375.8c-2.8,0-4.6-1.8-4.6-3.7
	c0-2.7,1.8-4.6,4.6-4.6c2.7,0,4.6,1.8,4.6,4.6C156.4,373.9,154.6,375.8,151.8,375.8z M152.7,158.1c0-9.1,7.3-15.5,15.5-15.5
	c9.1,0,15.5,6.4,15.5,15.5c0,8.2-6.4,14.6-15.5,14.6C160,172.7,152.7,166.3,152.7,158.1z M346.5,377.6H164.6v-11.9h181.9V377.6z
	 M359.3,375.8c-2.7,0-4.6-1.8-4.6-3.7c0-2.7,1.9-4.6,4.6-4.6c2.7,0,4.6,1.8,4.6,4.6C363.9,373.9,362.1,375.8,359.3,375.8z"/>
<path class="st4" d="M214.9,129.8v89.6h103.3v-89.6H214.9z M298,183.8c0,2.7-2.7,5.5-5.5,5.5h-9.1c-2.7,0-5.5-2.7-5.5-5.5v-36.6
	c0-2.7,2.8-4.6,5.5-4.6h9.1c2.7,0,5.5,1.8,5.5,4.6V183.8z"/>
<path class="st4" d="M341.9,267.9H169.1c-2.7,0-4.5,1.8-4.5,3.6v94.2h181.9v11.9H164.6v0.1h181.9V271.6
	C346.5,269.7,344.6,267.9,341.9,267.9z M331,351H180.1c-1.8,0-2.7-1.8-2.7-2.7c0-1.8,0.9-2.7,2.7-2.7H331c1.8,0,2.7,0.9,2.7,2.7
	C333.7,349.2,332.8,351,331,351z M331,319.9H180.1c-1.8,0-2.7-0.9-2.7-1.8c0-1.8,0.9-2.7,2.7-2.7H331c1.8,0,2.7,0.9,2.7,2.7
	C333.7,319,332.8,319.9,331,319.9z M331,289.7H180.1c-1.8,0-2.7-0.9-2.7-2.7c0-0.8,0.9-2.7,2.7-2.7H331c1.8,0,2.7,1.8,2.7,2.7
	C333.7,288.8,332.8,289.7,331,289.7z"/>
<path id="path39" inkscape:connector-curvature="0" class="st5" d="M372.1,373.9v1.8c0,4.6-2.7,7.3-7.3,7.3H147.2
	c-4.6,0-7.3-2.7-7.3-7.3v-1.8c0,3.7,2.7,7.3,7.3,7.3h217.6C369.4,381.3,372.1,377.6,372.1,373.9z"/>
<path id="path41" inkscape:connector-curvature="0" class="st6" d="M256,0c141.7,0,256,114.3,256,256S397.7,512,256,512
	S0,397.7,0,256S114.3,0,256,0z M256,42.1c117.9,0,213.9,96,213.9,213.9s-96,213.9-213.9,213.9S42.1,373.9,42.1,256
	S138.1,42.1,256,42.1z"/>
</svg>
