<svg xmlns="http://www.w3.org/2000/svg" xml:space="preserve" id="filegator_svg__svg163" x="0" y="0" version="1.1" viewBox="0 0 512 512"><style>.filegator_svg__st0{fill:#353535}</style><path id="filegator_svg__path76" d="M500.9 129.7H328c-16.2 0-30.7-4.9-41.6-13.9L232.3 71H99.5c-7.8 0-16.3 6.6-18.4 14.5L1.5 422.1h36v16.1H437c4.5-2.7 8.3-6.8 9.6-11.7l64.9-282.3c2.1-7.8-2.8-14.5-10.6-14.5" class="filegator_svg__st0"/><path id="filegator_svg__path78" d="M14.5 441C6.6 441 0 434.4 0 426.5V125.7c0-7.9 6.6-14.5 14.5-14.5h132.9l66.1 44.9c13.4 9.1 29.2 13.9 45.4 13.9h172.8c7.9 0 14.5 6.6 14.5 14.5v242.1c0 7.8-6.6 14.5-14.5 14.5H14.5z" style="fill:#33b88f"/><path d="m42.7 339.2 60.5 60.5 57.3-57.3 57.3 57.3 57.3-57.3 57.3 57.3 57.3-57.3 56.5 56.4v-59.6zm126-104.1c2.5-7 4-14.5 4-22.3 0-36.1-29.3-65.4-65.3-65.4S42 176.7 42 212.8c0 7.8 1.5 15.3 4 22.3z" style="fill:#fff"/><path d="M402.3 202.8c-9 0-16.3 7.3-16.3 16.4s7.3 16.4 16.3 16.4c9.1 0 16.3-7.3 16.3-16.4.1-9.1-7.2-16.4-16.3-16.4m-52.2 0c-9 0-16.3 7.3-16.3 16.4s7.3 16.4 16.3 16.4 16.3-7.3 16.3-16.4c.1-9.1-7.2-16.4-16.3-16.4m-215.9 32.3c5-6 8.1-13.8 8.1-22.3 0-5.4-1.4-10.5-3.5-15.1-1.2 5.5-5.9 9.7-11.7 9.7-6.7 0-12.2-5.5-12.2-12.2 0-6.3 4.8-11.3 10.9-12-5.3-3.3-11.6-5.3-18.3-5.3-19.2 0-34.9 15.6-34.9 34.9 0 8.5 3 16.2 8.1 22.3z" class="filegator_svg__st0"/></svg>