<svg xmlns="http://www.w3.org/2000/svg" xml:space="preserve" viewBox="0 0 512 512"><path d="M500.9 129.7H328c-16.2 0-30.7-4.9-41.6-13.9L232.3 71H99.5c-7.8 0-16.3 6.6-18.4 14.5L75 111.2h72.3l66.1 44.9c13.4 9.1 29.2 13.9 45.4 13.9h172.8c7.9 0 14.5 6.6 14.5 14.5v154.7h.1v59.6l-56.5-56.4 56.4 56.4v27.9c0 .7-.1 1.3-.2 2 .3-.6.5-1.3.7-2l64.9-282.3c2.1-8-2.8-14.7-10.6-14.7" style="opacity:.6"/><path d="M446.1 184.4c0-7.8-6.6-14.5-14.5-14.5H258.8c-16.2 0-32-4.8-45.4-13.9l-66.1-44.9H14.5c-7.8 0-14.5 6.6-14.5 14.5v300.9c0 7.9 6.6 14.5 14.5 14.5h417.2c7.9 0 14.5-6.6 14.5-14.5v-27.9l-56.4-56.4-57.3 57.3-57.3-57.3-57.3 57.3-57.3-57.3-57.3 57.3L42.8 339h403.4V184.4zm-277.4 50.7h-34.6c5-6 8.1-13.8 8.1-22.3 0-5.4-1.4-10.5-3.5-15.1-1.2 5.5-5.9 9.7-11.7 9.7-6.7 0-12.2-5.5-12.2-12.2 0-6.3 4.8-11.3 10.9-12-5.3-3.3-11.6-5.3-18.3-5.3-19.2 0-34.9 15.6-34.9 34.9 0 8.5 3 16.2 8.1 22.3H46c-2.5-7-4-14.5-4-22.3 0-36.1 29.3-65.4 65.3-65.4 36.1 0 65.3 29.2 65.3 65.4.1 7.8-1.3 15.3-3.9 22.3m181.4.4c-9 0-16.3-7.3-16.3-16.4s7.3-16.4 16.3-16.4 16.3 7.3 16.3 16.4-7.2 16.4-16.3 16.4m52.2 0c-9 0-16.3-7.3-16.3-16.4s7.3-16.4 16.3-16.4c9.1 0 16.3 7.3 16.3 16.4s-7.2 16.4-16.3 16.4"/></svg>