<svg xmlns="http://www.w3.org/2000/svg" xml:space="preserve" viewBox="0 0 512 512"><path d="M437 75C388.7 26.6 324.4 0 256 0S123.4 26.7 75 75 0 187.6 0 256s26.6 132.7 75 181c48.3 48.4 112.6 75 181 75s132.7-26.6 181-75c48.4-48.3 75-112.6 75-181s-26.6-132.6-75-181M98.4 149.2v-11c0-10.5 8.6-19.1 19.1-19.1h41.8c10.5 0 19.1 8.6 19.1 19.1v11c0 10.5-8.6 19.1-19.1 19.1h-41.8c-10.5 0-19.1-8.6-19.1-19.1m229.5 228.9v-11c0-10.5 8.6-19.1 19.1-19.1h41.8c10.5 0 19.1 8.6 19.1 19.1v11c0 10.5-8.6 19.1-19.1 19.1H347c-10.5 0-19.1-8.6-19.1-19.1M33.5 256c0-45.9 14-88.7 37.9-124.1q-.3 2.7-.3 5.4v11c0 25.6 20.8 46.4 46.4 46.4h41.8c19.6 0 37.2-12.5 43.7-30.7h126.2c21.6 0 39.9 18.3 39.9 39.9s-18.3 39.9-39.9 39.9H177.3c-37.2 0-67.4 30.2-67.4 67.4s30.3 67.4 67.4 67.4h123.4c.3 25.3 21 45.8 46.4 45.8h41.8c5.4 0 10.5-.9 15.3-2.6-39.4 35.2-91.3 56.7-148.2 56.7-122.7 0-222.5-99.8-222.5-222.5m400.3 133.6c1-3.7 1.5-7.6 1.5-11.6v-11c0-12.3-4.9-24-13.8-32.8-8.8-8.8-20.5-13.6-32.7-13.6H347c-19.6 0-37.2 12.5-43.7 30.7h-126c-21.6 0-39.9-18.3-39.9-39.9s18.3-39.9 39.9-39.9h151.8c37.2 0 67.4-30.3 67.4-67.4 0-37.2-30.3-67.4-67.4-67.4H205.7c-.3-25.3-21-45.8-46.4-45.8h-41.8c-4.3 0-8.4.6-12.3 1.7C144.9 56 197.9 33.5 256 33.5c122.7 0 222.5 99.8 222.5 222.5 0 50.1-16.6 96.3-44.7 133.6" style="fill:#fff"/></svg>