<svg xmlns="http://www.w3.org/2000/svg" xml:space="preserve" viewBox="0 0 512 512"><path d="M494.7 363.4V148.6c0-4.1-3.3-7.8-7.8-7.8H272.5c-4.1 0-7.8 3.3-7.8 7.8v222.1h222.6c4.1.1 7.4-3.2 7.4-7.3" style="opacity:.5"/><path d="M92.9 141.2H24.8c-4.1 0-7.4 3.3-7.4 7.4v214.7c0 4.1 3.3 7.8 7.8 7.8h222.6v-76c-.5-84.9-69.4-153.9-154.9-153.9" style="opacity:.75"/><path d="M487.2 123.9H272.5c-13.6 0-24.8 11.1-24.8 24.8v71.8c-28.1-57-87.1-96.6-154.8-96.6H24.8C11.1 123.9 0 135 0 148.6v214.7c0 13.6 11.1 24.8 24.8 24.8h462.5c13.6 0 24.8-11.1 24.8-24.8V148.6c-.1-13.6-11.2-24.7-24.9-24.7m7.5 239.5c0 4.1-3.3 7.8-7.8 7.8H264.7V148.6c0-4.1 3.3-7.8 7.8-7.8h214.7c4.1 0 7.8 3.3 7.8 7.8v214.7h-.3zm-477.4 0V148.6c0-4.1 3.3-7.4 7.4-7.4h68.1c85.1 0 154.4 69.4 154.4 154.4v75.6H24.8c-4.2-.4-7.5-3.7-7.5-7.8"/></svg>