<?xml version="1.0" encoding="utf-8"?>
<!-- Generator: Adobe Illustrator 28.2.0, SVG Export Plug-In . SVG Version: 6.00 Build 0)  -->
<svg version="1.1" id="Layer_1" xmlns="http://www.w3.org/2000/svg" xmlns:xlink="http://www.w3.org/1999/xlink" x="0px" y="0px"
	 viewBox="0 0 512 512" style="enable-background:new 0 0 512 512;" xml:space="preserve">
<style type="text/css">
	.st0{fill:url(#SVGID_1_);}
</style>
<linearGradient id="SVGID_1_" gradientUnits="userSpaceOnUse" x1="256" y1="512" x2="256" y2="-1.818989e-12">
	<stop  offset="0" style="stop-color:#EA8E27"/>
	<stop  offset="0.3603" style="stop-color:#DF6D4E"/>
	<stop  offset="0.5894" style="stop-color:#CD3F6D"/>
	<stop  offset="1" style="stop-color:#B71F87"/>
</linearGradient>
<path class="st0" d="M240.9,1.3c-0.7,14.7,4.5,31.4,14,44.6c2,2.8,2.5,4.5,1.6,5.1c-0.3,0.2-2.9,0.5-5.9,0.6
	c-33.4,2.2-63.9,9.6-88.5,21.6c-37.1,18.1-59.6,45-65.8,78.6c-3.3,17.9-0.1,42.1,7.8,58.8c1.9,3.9,3.2,5,2.8,2.2
	c-1.4-8.8-1.3-21.4,0.3-28.8c2.4-12.1,7-21,16.5-32.1c4.4-5.1,4.4-5.1,7.9-7.7c4.5-3.2,4.3-2-1,7.6c-3.7,6.7-7.9,16.9-9.5,23.1
	c-3.5,13.9-3,29.1,1.4,43c1.4,4.2,1.1,4.6-4,8.4c-9.6,7.2-21.4,18.8-28.1,27.9c-15.4,20.5-19.8,43-12.1,62.4
	c3.4,8.5,8.1,15.1,16.7,23.3c9.7,9.3,28.5,20.6,42.1,25.1c7.2,2.4,7.2,1.9,0.4-3.2c-12.1-8.9-19-17.1-22.3-26.7
	c-1.7-4.8-1.7-14.1,0-19.1c4.8-14.5,18.5-28,41.2-40.7c22.1-12.4,56-22.9,80.3-25c2.5-0.2,4.7-0.5,5-0.6c0.6-0.3,25.3-0.3,25.9,0
	c0.2,0.2,2.6,0.5,5.3,0.7c10.7,0.9,26.4,4.1,39.3,8.1c40.6,12.5,67.4,33.3,75.3,58.3c1.2,3.8,1.3,5.4,1.3,14.5
	c0,10.1-0.1,10.4-1.8,15.5c-2.3,6.7-5.2,12.6-6.5,13.3c-1.4,0.7-1.9-0.4-2.7-5.5c-5-29.4-27.6-51.4-62.2-60.1
	c-19.5-5-44.9-6.3-63.6-3.5c-17.8,2.7-34.2,8.8-46,17c-6.1,4.3-15.7,13.7-19.1,18.6c-11.6,17.2-12.8,34.3-3.4,50.2
	c2.4,4,10.6,12.4,15,15.4c18.3,12.2,44,16.3,72,11.6c13.7-2.4,33.1-8,42.5-12.2c2.2-1,4.2-2.1,4.4-2.5c0.5-0.8-3.4-0.9-9.6-0.1
	c-2.5,0.3-6.2,0.7-8.3,0.9c-4.4,0.4-26.5,0.4-30.2,0c-17.9-2-28.6-6-35.7-13.2c-6.7-6.8-6.4-15.5,0.9-22.8
	c11.6-11.6,41.9-14.5,65-6.1c9.5,3.4,16.6,7.9,23.2,14.5c6.2,6.3,10.2,13.3,11.6,20.6c0.8,4.3,0.7,13.3-0.3,17.8
	c-2.4,11.4-11.2,26.8-22.5,39.4c-20.5,22.9-48.7,44.2-89.2,67.4c-5,2.8-7.3,4.6-6,4.6c1.9,0,14.9-5.4,27.8-11.7
	c31.5-15.1,54.8-31,74-50.1c16.3-16.3,26.7-32.1,34.1-51.9c1.5-4,3.1-6.3,3.2-4.7c0.6,5.9-2.8,19.8-7.7,31.1
	c-2.2,5.1-7.3,14.4-11.2,20c-5,7.2-9.9,13.1-17.9,21.5c-4,4.2-7.1,7.7-6.9,7.9c0.6,0.6,6.4-3.1,13.2-8.6
	c17.4-13.9,31.7-31.1,40.9-49.3c6.5-12.8,9.5-21.5,11.7-34.8c0.6-3.4,1.3-6.5,1.5-6.9c0.2-0.5,2.4-2.6,4.7-4.7
	c11.5-10.5,19-19.8,23.9-29.6c3.2-6.4,4.7-11.4,5.7-19c1.3-9.2-1-20.8-6-30.9c-5.4-10.9-10.6-17.8-23.6-30.7
	c-6.5-6.5-8.5-8.9-7.8-9.1c2.4-0.5,18.4,9.3,25.8,15.9c15.3,13.7,23,29.5,23,47.5c0,6.8-0.7,12-2.9,19.7c-1,3.4-1.7,6.4-1.5,6.8
	c0.7,2.3,10-15.6,13.2-25.5c3.1-9.6,4.6-22.6,3.4-30.2c-2.8-19.1-10.1-32.6-25.7-47.5c-16.1-15.4-42.3-29.8-71.6-39.5
	c-19.3-6.3-46.9-12.2-64.7-13.7c-2.3-0.2-5.3-0.5-6.5-0.7c-4.1-0.6-26-0.3-33,0.3c-33.7,3.2-60.8,10.8-88.1,24.7
	c-5.6,2.8-10.5,5-11.1,4.9c-0.9-0.2-1-0.8-1-5.3c0.3-18.2,15.9-37.1,40.1-48.3c25.4-11.8,55.9-18.2,97.1-20.4
	c18.6-1,42-0.6,55.8,0.9c1.3,0.1,4.1,0.4,6.3,0.6c32.1,2.7,63.5,13.2,79.5,26.5c4.6,3.8,6.9,6.5,10,11.4c1.1,1.8,2.3,3.4,2.8,3.5
	c1.1,0.4,2.6-2,4.7-7.6c6.7-17.3,2.1-34.1-13.7-50.1c-5.9-5.9-11.4-10.5-18.8-15.5c-2.7-1.9-5.4-3.9-5.8-4.7c-0.5-0.7-1.3-3.4-2-6.1
	c-3.8-16.2-13.5-30.3-27.2-39.5c-1.8-1.2-5.8-3.5-8.9-5c-11.5-5.9-21.4-8.8-40.7-11.9c-14.9-2.5-19.7-3.5-27.4-6.1
	c-19-6.4-33.5-17.3-41.7-31.1C242.4-0.1,241-1.2,240.9,1.3z M342.4,79c7.6,2.3,14.3,6.2,18.9,10.8c6,5.9,8.9,11.6,6.3,12.6
	c-1.4,0.6-9.5-0.9-13.9-2.3c-8.9-3-15.3-9.2-18.6-18.1c-0.8-2.2-0.9-2.9-0.3-3.6C335.9,77.2,337,77.3,342.4,79z"/>
</svg>
