<svg xmlns="http://www.w3.org/2000/svg" xml:space="preserve" viewBox="0 0 512 512"><path d="M304.3 478c56.2-98.7 41.4-167.1 10.7-224.3 28.7-58.4 40.6-115.1 4.8-191.9l.4-.4c68.2 66.3 105.4 100.4 102.8 192.3 0 0 6.4 118.2-118.7 224.3M190.5 294.1c22.3 23.8 46.6 42.3 64.7 63.3 29.3 34 42.3 74.5 3.5 154.6 0 0-169.6-105.2-169.6-258.3 0 0-5.7-60.5 43.2-125.8-3.2 84 25.2 131 58.2 166.2" style="fill:#db3731"/><path d="M315 253.7c30.7 57.2 45.4 125.6-10.7 224.3-14.5 12.3-29.7 23.6-45.6 34 38.8-80.1 25.8-120.6-3.5-154.6l1.5-.5c21.1-37.5 42.3-70.6 58.3-103.2m0 0c-47.3-88-132.5-149.4-55.7-253.7 22.3 23.9 42.7 43.8 60.8 61.4l-.4.4c36 76.8 24 133.5-4.7 191.9M173.2 84.8s72.8 86 17.2 209.3c-33-35.3-61.4-82.2-58.1-166.2 12-15.8 25.7-30.3 40.9-43.1" style="fill:#f5c300"/></svg>