<svg xmlns="http://www.w3.org/2000/svg" xml:space="preserve" viewBox="0 0 512 512"><path d="M320.1 61.4C302 43.8 281.6 23.9 259.3 0c-76.8 104.3 8.4 165.7 55.7 253.7-16 32.6-37.2 65.7-58.3 103.2l-1.5.5c-18.1-21-42.4-39.5-64.7-63.3l-.1-.1C246 170.8 173.2 84.8 173.2 84.8c-15.2 12.8-28.9 27.3-40.9 43.1-48.9 65.3-43.2 125.8-43.2 125.8C89.1 406.8 258.7 512 258.7 512c15.8-10.4 31-21.6 45.4-33.8 0 0 .1 0 .1-.1l.1-.1C429.2 371.9 423 253.7 423 253.7c2.6-91.9-34.7-126-102.9-192.3" style="fill:#fff"/></svg>