<?xml version="1.0" encoding="utf-8"?>
<!-- Generator: Adobe Illustrator 28.2.0, SVG Export Plug-In . SVG Version: 6.00 Build 0)  -->
<svg version="1.1" id="Capa_1" xmlns="http://www.w3.org/2000/svg" xmlns:xlink="http://www.w3.org/1999/xlink" x="0px" y="0px"
	 viewBox="0 0 512 512" style="enable-background:new 0 0 512 512;" xml:space="preserve">
<style type="text/css">
	.st0{fill:#73D4FF;}
	.st1{fill:#249FD3;}
	.st2{fill:#324A97;}
	.st3{fill:#E8509A;}
	.st4{fill:#4E62B1;}
	.st5{fill:#36539C;}
</style>
<path class="st0" d="M512,256c0,6.2-0.2,12.3-0.6,18.3C501.9,407.2,391.2,512,256,512c-85.8,0-161.7-42.2-208.2-107
	C34.1,386,23,364.9,15,342.5c-9.7-27-15-56.1-15-86.5C0,114.6,114.6,0,256,0c99.9,0,186.4,57.2,228.6,140.6
	C502.1,175.2,512,214.5,512,256z"/>
<path class="st1" d="M512,256c0,6.2-0.2,12.3-0.6,18.3C501.9,407.2,391.2,512,256,512c-85.8,0-161.7-42.2-208.2-107
	C34.1,386,23,364.9,15,342.5l93.3-230L171,212.8L272.9,40.4L421,204.1l63.6-63.6C502.1,175.2,512,214.5,512,256z"/>
<path class="st2" d="M147.1,349.5c-54,15.2-110.3-16.3-125.5-70.3S37.9,169,91.8,153.7S202.1,170,217.4,224S201.1,334.3,147.1,349.5
	z M97,172c-44,12.3-69.6,58.2-57.2,102.1S98,343.7,142,331.3s69.6-58.2,57.2-102.2S140.9,159.6,97,172z"/>
<path class="st2" d="M407.3,276.1c-54,15.2-110.3-16.3-125.5-70.3s16.3-110.3,70.3-125.5s110.3,16.3,125.5,70.3
	S461.3,260.9,407.3,276.1z M357.2,98.5c-43.9,12.4-69.6,58.2-57.2,102.2s58.2,69.6,102.2,57.2c43.9-12.4,69.6-58.2,57.2-102.2
	C447,111.8,401.2,86.2,357.2,98.5z"/>
<path class="st3" d="M297.9,34.1l16.6-5.9l25.6-9.1c5-1.8,10.5,0.2,13.2,4.8c1.6,2.8,1.9,6.2,0.8,9.3c-0.5,1.5-1.4,2.9-2.5,4
	c1.1-1.1,2-2.5,2.6-4.1c1.1-3.1,0.8-6.4-0.8-9.3c-2.7-4.6-8.2-6.6-13.2-4.8l-18,6.4c-4.1,1.5-8.6-0.9-9.8-5.1
	c-1.1-3.8,1-7.8,4.7-9.2l14.2-5.3l-25.3,9l-22.3,8c-2.2,0.8-3.9,2.5-4.7,4.7c-0.8,2.2-0.5,4.6,0.8,6.6l14.3,22.7
	c-0.3,0-0.6,0.1-0.9,0.2L150.8,97.2l-7.6-8l-16.7,4.7l13.5,14.2L107.8,241c2.9-3.2,7-5.2,11.7-5.2c1.8,0,3.5,0.3,5.1,0.9l28-115.4
	l84.6,89.1l-106.5,30.1c2.8,2.9,4.6,6.8,4.6,11.1c0,1.3-0.2,2.6-0.5,3.8l118-33.4c0.2,0,0.4-0.1,0.5-0.1l0.3-0.1
	c2.6-0.7,4.5-2.7,5.3-5.2l43-147.4l63.9,101.5c2.5-4.7,7.4-7.9,13-8.2L297.9,34.1z M247.9,199.4l-85.1-89.6L284,75.6L247.9,199.4z"
	/>
<path class="st2" d="M119.5,235.8c8.7,0,15.8,7.1,15.8,15.8s-7.1,15.8-15.8,15.8s-15.8-7.1-15.8-15.8S110.8,235.8,119.5,235.8z
	 M379.7,162.4c8.7,0,15.8,7.1,15.8,15.8s-7.1,15.8-15.8,15.8s-15.8-7.1-15.8-15.8S371,162.4,379.7,162.4z M368.6,38.3
	c-2.7,7.4-8.4,13.1-15.8,15.8l-10.2,3.7c-4,1.4-8.4-0.6-9.8-4.6s0.6-8.4,4.6-9.8l10.2-3.7c3.1-1.1,5.5-3.5,6.6-6.6s0.8-6.4-0.8-9.3
	c-2.7-4.6-8.2-6.6-13.2-4.8l-18,6.4c-4.1,1.5-8.6-0.9-9.8-5.1l0,0c-1.1-3.8,1-7.8,4.7-9.2l18-6.7C347,0.1,360.3,5,366.7,15.9
	C370.5,22.9,371.3,31,368.6,38.3z M174.1,57.4l-61,7.2c-6.4,0.8-10.6,7-8.8,13.2l3.6,12.8c1.2,4.3,5.7,6.9,10.1,5.7l60.5-17.1
	c5.9-1.7,9.4-7.8,7.7-13.8l0,0C184.7,60.2,179.5,56.7,174.1,57.4z"/>
<path class="st4" d="M511.4,274.3c-3.3,46.7-19.1,89.9-44.1,126.3c-14.1,20.6-31.2,39-50.6,54.7c-22,17.8-47.1,32-74.3,41.7
	c-27,9.7-56,14.9-86.3,14.9c-45.6,0-88.5-11.9-125.6-32.9c-32.7-18.4-60.9-43.8-82.6-74.1l99.2-57.6l102.3,20.5l50.2-84.6
	L511.4,274.3z"/>
<path class="st5" d="M467.2,400.7c-14.1,20.6-31.2,39-50.6,54.7c-22,17.8-47.1,32-74.3,41.7c-27,9.7-56,14.9-86.3,14.9
	c-45.6,0-88.5-11.9-125.6-32.9l42.1-67.3l142.6,25.1l76.8-76.8L467.2,400.7z"/>
</svg>
