<?xml version="1.0" encoding="utf-8"?>
<!-- Generator: Adobe Illustrator 28.2.0, SVG Export Plug-In . SVG Version: 6.00 Build 0)  -->
<svg version="1.1" id="Layer_1" xmlns:serif="http://www.serif.com/"
	 xmlns="http://www.w3.org/2000/svg" xmlns:xlink="http://www.w3.org/1999/xlink" x="0px" y="0px" viewBox="0 0 512 512"
	 style="enable-background:new 0 0 512 512;" xml:space="preserve">
<style type="text/css">
	.st0{fill:url(#SVGID_1_);}
	.st1{fill:url(#SVGID_00000042735779632407905860000007845026700044375963_);}
</style>
<linearGradient id="SVGID_1_" gradientUnits="userSpaceOnUse" x1="96.1723" y1="-61.0046" x2="97.0193" y2="-61.0046" gradientTransform="matrix(1736.0128 1002.2705 -1002.2705 1736.0128 -227893.8594 9785.1738)">
	<stop  offset="0" style="stop-color:#F2364D"/>
	<stop  offset="1" style="stop-color:#FDC92F"/>
</linearGradient>
<path class="st0" d="M315.9,256.1c0-22.5-131.3-94.9-153.4-83.8s-21.8,156.9,0,167.6C184.3,350.7,315.9,278.6,315.9,256.1z"/>
<linearGradient id="SVGID_00000160884741004007248120000014092099364960340409_" gradientUnits="userSpaceOnUse" x1="96.169" y1="-60.9851" x2="97.016" y2="-60.9851" gradientTransform="matrix(1736.0128 1002.2705 -1002.2705 1736.0128 -227893.8594 9785.1738)">
	<stop  offset="0" style="stop-color:#F2364D"/>
	<stop  offset="1" style="stop-color:#FDC92F"/>
</linearGradient>
<path style="fill:url(#SVGID_00000160884741004007248120000014092099364960340409_);" d="M511.9,256.1c0-67.9-395.5-285.7-462-252.5
	s-66.2,472.4,0,505.3C115.7,541.5,511.9,323.7,511.9,256.1z M107.7,421.7c-43.3-21.5-43.6-309.3,0-331.1s302.7,121.2,302.7,165.6
	S151,443.2,107.7,421.7z"/>
</svg>
