<?xml version="1.0" encoding="utf-8"?>
<!-- Generator: Adobe Illustrator 28.2.0, SVG Export Plug-In . SVG Version: 6.00 Build 0)  -->
<svg version="1.1" id="Layer_1" xmlns="http://www.w3.org/2000/svg" xmlns:xlink="http://www.w3.org/1999/xlink" x="0px" y="0px"
	 viewBox="0 0 512 512" style="enable-background:new 0 0 512 512;" xml:space="preserve">
<style type="text/css">
	.st0{fill-rule:evenodd;clip-rule:evenodd;fill:url(#Path_00000167372041899641799180000001591551748963447738_);}
	.st1{fill-rule:evenodd;clip-rule:evenodd;fill:url(#Path_00000168807086797236817200000013883552918732133518_);}
</style>
<linearGradient id="Path_00000101816738541250554450000015777401701025557660_" gradientUnits="userSpaceOnUse" x1="-90.9184" y1="32.3164" x2="-90.9184" y2="25.3262" gradientTransform="matrix(34.6579 0 0 23.0954 3315.9426 -240.4846)">
	<stop  offset="0" style="stop-color:#D22929"/>
	<stop  offset="1" style="stop-color:#B71717"/>
</linearGradient>
<path id="Path_00000116934834784064897100000002544142183639192714_" style="fill-rule:evenodd;clip-rule:evenodd;fill:url(#Path_00000101816738541250554450000015777401701025557660_);" d="
	M287.1,349.1V512L77.4,374.8l-8.4-5.5l-18.3-12l0,0c-3.2-2.1-5.9-4.9-8-8.1L287.1,349.1z"/>
<linearGradient id="Path_00000092442152962704159740000016163064856741784488_" gradientUnits="userSpaceOnUse" x1="-92.7623" y1="5.7712" x2="-92.7623" y2="12.8151" gradientTransform="matrix(61.7757 0 0 53.1283 5986.4048 -305.0102)">
	<stop  offset="0" style="stop-color:#E7762E"/>
	<stop  offset="1" style="stop-color:#E7562E"/>
</linearGradient>
<path id="Path_00000064314617900701738850000006324772000434766766_" style="fill-rule:evenodd;clip-rule:evenodd;fill:url(#Path_00000092442152962704159740000016163064856741784488_);" d="
	M48.5,0c-5.7,0-10.4,4.6-10.4,10.4v323.8c0,5.3,1.5,10.5,4.4,15l0,0c2.1,3.2,4.8,6,8,8.1l0,0l18.3,12l8.4,5.5
	c0,0-34.8-25.7,7.5-25.7h389.1V0H48.5z"/>
</svg>
