<svg xmlns="http://www.w3.org/2000/svg" xml:space="preserve" viewBox="0 0 512 512"><path d="M298.3 242.4c-13.2 1.1-23.1 12.8-21.9 26 1.1 13.2 12.8 23.1 26 21.9 13.2-1.1 23.1-12.8 21.9-26s-12.8-23-26-21.9m-98.5 72.3c-10.8-.1-19.7 8.5-19.8 19.3s8.5 19.7 19.3 19.8 19.7-8.5 19.8-19.3-8.5-19.7-19.3-19.8M512 300.1c-1-60.2-44.5-107.8-96.5-105.7-7.6.3-14.8-4.5-18.5-12.2-22.6-47.9-66.5-80.3-116.9-80.3-51.8 0-96.6 34.2-118.6 84-6.4 14.5-19.2 12.6-24.7 12.6-40.1 0-74.2 29.9-86.5 71.5-2.1 6.9-6.9 12.1-12.9 14.5C14.9 293.7-.9 318.8.1 348.1c1.2 34.9 26.9 62 57 62h359.8c52.3 0 96.1-49.5 95.1-110m-257.9 38.8c0 3.8-2.9 6.9-6.7 7.3l-4.9.5c-1 3.7-2.6 7.2-4.5 10.4l3.2 4.1c2.3 3 2 7.2-.7 9.9l-5.4 5.3c-2.7 2.7-6.9 2.8-9.9.5l-4.2-3.4c-3.4 1.8-7 3.3-10.7 4.2l-.7 5.4c-.5 3.7-3.7 6.5-7.5 6.5l-7.5-.1c-3.8 0-6.9-2.9-7.3-6.7l-.6-5.7c-3.5-1-6.8-2.5-9.9-4.3l-4.4 3.4c-3 2.3-7.2 2-9.9-.7l-5.3-5.4c-2.7-2.7-2.8-6.9-.5-9.9l3.6-4.4q-2.55-4.5-3.9-9.6l-5.5-.7c-3.7-.5-6.5-3.7-6.5-7.5l.1-7.5c0-3.8 2.9-6.9 6.7-7.3 0 0 5.2-.5 5.2-.6 1-3.7 2.4-7.2 4.3-10.4l-3.2-4.1c-2.3-3-2-7.2.7-9.9l5.4-5.3c2.7-2.6 6.9-2.8 9.9-.5l3.7 3c3.5-2 7.3-3.6 11.2-4.6l.6-4.6c.5-3.7 3.7-6.5 7.5-6.5l7.5.1c3.8 0 6.9 2.9 7.3 6.7l.5 4.7c3.8 1.1 7.4 2.6 10.8 4.7l3.6-2.8c3-2.3 7.2-2 9.9.7l5.3 5.4c2.7 2.7 2.8 6.9.5 9.9l-3 3.7c1.8 3.3 3.2 6.8 4.1 10.4l4.8.6c3.7.5 6.5 3.7 6.5 7.5zm107.5-63.8-7.4 1.5c-.8 4.6-2.3 9-4.3 13.3l5.5 5.8c2.6 2.7 2.7 7 .3 9.9l-7.9 9.4c-2.4 2.9-6.6 3.5-9.8 1.4l-6.8-4.5c-3.9 2.6-8.1 4.8-12.6 6.4l-.3 8.2c-.1 3.8-3.1 6.8-6.8 7.2l-12.2 1c-3.7.3-7.2-2.3-7.9-5.9l-1.7-8.4c-4.3-.8-8.6-2.2-12.6-4.1L271 322c-2.7 2.6-7 2.7-9.9.3l-9.4-7.9c-2.9-2.4-3.5-6.6-1.4-9.8l4.7-7c-2.4-3.5-4.4-7.3-5.9-11.3l-8.4-.3c-3.8-.1-6.8-3.1-7.2-6.8l-1-12.2c-.3-3.7 2.3-7.2 5.9-7.9l7.7-1.6c.8-4.5 2.1-9 4-13.2l-5.4-5.8c-2.6-2.7-2.7-7-.3-9.9l7.9-9.4c2.4-2.9 6.6-3.5 9.8-1.4l6.2 4.1c4-2.9 8.5-5.2 13.2-6.9l.2-7.3c.1-3.8 3.1-6.8 6.8-7.2l12.2-1c3.7-.3 7.2 2.3 7.9 5.9l1.5 7.1q7.2 1.35 13.8 4.5l5.2-4.9c2.7-2.6 7-2.7 9.9-.3l9.4 7.9c2.9 2.4 3.5 6.7 1.4 9.8l-4.1 6.1c2.6 3.8 4.7 7.9 6.2 12.3l7.5.2c3.8.1 6.8 3.1 7.2 6.8l1 12.2c.3 3.8-2.3 7.2-6 8"/></svg>