<?xml version="1.0" encoding="utf-8"?>
<!-- Generator: Adobe Illustrator 28.2.0, SVG Export Plug-In . SVG Version: 6.00 Build 0)  -->
<svg version="1.1"
	 id="svg2" xmlns:svg="http://www.w3.org/2000/svg" xmlns:sodipodi="http://sodipodi.sourceforge.net/DTD/sodipodi-0.dtd" xmlns:inkscape="http://www.inkscape.org/namespaces/inkscape"
	 xmlns="http://www.w3.org/2000/svg" xmlns:xlink="http://www.w3.org/1999/xlink" x="0px" y="0px" viewBox="0 0 512 512"
	 style="enable-background:new 0 0 512 512;" xml:space="preserve">
<style type="text/css">
	.st0{fill:#FFFFFF;}
</style>
<path id="path32" class="st0" d="M511.7,41.8l-88.7,435c-2.3,11.3-15.2,16.7-24.9,10.5L267,403.2l-35.8,39.5
	c-10.5,11.5-29.7,5.5-31.6-10l-9.3-66.3c-1.2-8.6,1.7-17.3,7.8-23.5l186.1-193c4-4.1-1.3-10.5-6.1-7.4L137.8,300.7
	c-9.2,6-21,6.1-30.3,0.2l-100-64.2c-11.3-7.2-9.6-24.2,3-29L489.8,23.2C501.8,18.6,514.2,29.1,511.7,41.8"/>
</svg>
