<?xml version="1.0" encoding="utf-8"?>
<!-- Generator: Adobe Illustrator 28.2.0, SVG Export Plug-In . SVG Version: 6.00 Build 0)  -->
<svg version="1.1" id="Layer_1" xmlns="http://www.w3.org/2000/svg" xmlns:xlink="http://www.w3.org/1999/xlink" x="0px" y="0px"
	 viewBox="0 0 512 512" style="enable-background:new 0 0 512 512;" xml:space="preserve">
<path d="M455.1,0H56.9C25.5,0,0,25.5,0,56.9v398.2C0,486.5,25.5,512,56.9,512h398.2c31.4,0,56.9-25.5,56.9-56.9V56.9
	C512,25.5,486.5,0,455.1,0z M169,286.5c-9.1,70.4-16.9,110.6-23.2,120.6c-1.5,2.4-3.2,3.6-5.1,3.6c-2.1,0-4.4-1.5-6.9-4.5
	c-2.1-3-3.9-6.6-5.5-10.5c-1.2-3.9-1.8-7.2-1.8-9.6c0.6-11.8,3.3-25.2,8.2-40c1.5-4.2,3.8-6.1,6.9-5.5c0.6-5.2,1.2-11.7,1.8-19.6
	c0.9-7.9,2-17,3.2-27.3c-1.5-4.2-4.7-6.4-9.6-6.4c-1.2,0-5.8,0.8-13.6,2.3c-7.6,1.5-18.8,3.8-33.6,6.9c-0.3,0-0.6,0.2-0.9,0.5
	c-0.3,0-0.8-0.2-1.4-0.5c-3,0-4.5-1.8-4.5-5.5c0-4.2,2-7.3,6-9.1l-0.5,0.5c4.5-2.1,15.7-5.4,33.2-9.6c13-3.3,23.5-7.6,31.4-12.7
	l2.7-23.2c1.2-11.2,3.2-22.7,6-34.6c2.7-12.1,6.6-24.4,11.4-36.9c10-27,21.8-48.7,35.5-65.1c11.5-13.3,23-20,34.6-20
	c10,0,18.8,4.7,26.4,14.1c1.2,1.2,1.8,2.6,1.8,4.1c0,3.3-1.8,5.1-5.5,5.1c-2.1,0-3.9-0.9-5.5-2.7c-4.8-5.8-10.2-8.7-16-8.7
	c-13.6,0-28.1,15.1-43.2,45.1c-6.1,12.1-11.4,26.6-16,43.2c-4.5,16.4-8.1,34.9-10.5,55.6l-0.5,7.8l-0.9,12.3
	c8.8,2.7,18.5,4.1,29.1,4.1l29.1-0.9c9.1,0.3,13.6,3.3,13.6,9.1c0,5.2-2.4,7.8-7.3,7.8h-35.5C190,276.9,178.8,280.4,169,286.5z
	 M393,390.8c-2.7,0.9-6.1,1.4-10,1.4c-7,0-16.1,0.2-27.3,0.5c-11.2,0.6-23.2,1.1-36,1.4c-12.7,0.6-25.1,1.1-36.9,1.4
	c-11.5,0.6-21.2,0.9-29.1,0.9c-7,0-12.4-0.9-16.4-2.7c-3.6-1.8-5.5-3.8-5.5-6c0-1.8,0.9-3.5,2.7-5.1c2.1-1.5,5.7-2.4,10.5-2.7
	c6.1-0.3,14.5-0.6,25.5-0.9s22.9-0.6,36-0.9c13.3-0.3,26.4-0.5,39.1-0.5c6.7,0,13.2,0,19.6,0c6.4,0,12,0.2,16.9,0.5
	c5.2,0.3,9,0.8,11.4,1.4s3.6,2.3,3.6,5.1C397.1,387.7,395.7,389.9,393,390.8z"/>
</svg>
