<svg xmlns="http://www.w3.org/2000/svg" xml:space="preserve" viewBox="0 0 512 512"><path d="M455.1 0H56.9C25.5 0 0 25.5 0 56.9v398.2C0 486.5 25.5 512 56.9 512h398.2c31.4 0 56.9-25.5 56.9-56.9V56.9C512 25.5 486.5 0 455.1 0M169 286.5c-9.1 70.4-16.9 110.6-23.2 120.6q-2.25 3.6-5.1 3.6-3.15 0-6.9-4.5c-2.1-3-3.9-6.6-5.5-10.5-1.2-3.9-1.8-7.2-1.8-9.6.6-11.8 3.3-25.2 8.2-40 1.5-4.2 3.8-6.1 6.9-5.5.6-5.2 1.2-11.7 1.8-19.6.9-7.9 2-17 3.2-27.3-1.5-4.2-4.7-6.4-9.6-6.4-1.2 0-5.8.8-13.6 2.3q-11.4 2.25-33.6 6.9c-.3 0-.6.2-.9.5-.3 0-.8-.2-1.4-.5-3 0-4.5-1.8-4.5-5.5 0-4.2 2-7.3 6-9.1l-.5.5c4.5-2.1 15.7-5.4 33.2-9.6 13-3.3 23.5-7.6 31.4-12.7l2.7-23.2c1.2-11.2 3.2-22.7 6-34.6 2.7-12.1 6.6-24.4 11.4-36.9 10-27 21.8-48.7 35.5-65.1 11.5-13.3 23-20 34.6-20q15 0 26.4 14.1c1.2 1.2 1.8 2.6 1.8 4.1 0 3.3-1.8 5.1-5.5 5.1-2.1 0-3.9-.9-5.5-2.7-4.8-5.8-10.2-8.7-16-8.7-13.6 0-28.1 15.1-43.2 45.1-6.1 12.1-11.4 26.6-16 43.2-4.5 16.4-8.1 34.9-10.5 55.6l-.5 7.8-.9 12.3c8.8 2.7 18.5 4.1 29.1 4.1l29.1-.9c9.1.3 13.6 3.3 13.6 9.1 0 5.2-2.4 7.8-7.3 7.8h-35.5c-12.4.6-23.6 4.1-33.4 10.2m224 104.3c-2.7.9-6.1 1.4-10 1.4-7 0-16.1.2-27.3.5-11.2.6-23.2 1.1-36 1.4-12.7.6-25.1 1.1-36.9 1.4q-17.25.9-29.1.9c-7 0-12.4-.9-16.4-2.7-3.6-1.8-5.5-3.8-5.5-6q0-2.7 2.7-5.1c2.1-1.5 5.7-2.4 10.5-2.7 6.1-.3 14.5-.6 25.5-.9s22.9-.6 36-.9c13.3-.3 26.4-.5 39.1-.5h19.6c6.4 0 12 .2 16.9.5 5.2.3 9 .8 11.4 1.4s3.6 2.3 3.6 5.1c0 3.1-1.4 5.3-4.1 6.2" style="fill:#fff"/></svg>