<svg xmlns="http://www.w3.org/2000/svg" xml:space="preserve" viewBox="0 0 512 512"><path d="M256 0C114.6 0 0 114.6 0 256s114.6 256 256 256 256-114.6 256-256S397.4 0 256 0m125.7 285-28.4 28.4c-.2.3-.5.6-.7.8-.3.3-.5.5-.8.7L285 381.7c-42.7 42.7-112 42.7-154.7 0s-42.7-112 0-154.7l96.7-96.7c42.7-42.7 112-42.7 154.7 0s42.7 112 0 154.7m-25.6 23.1c-.5 2-1.5 3.8-2.8 5.3l-1.5 1.5c-1.5 1.3-3.3 2.3-5.3 2.9l-1.5.3-183.7 29c-13.1 2.1-21.1-13.8-11.8-23.2l58-58-48.3-48.3c-1.7-1.7-2.9-3.8-3.5-6.1s-.6-4.8 0-7.1 1.8-4.4 3.5-6.1 3.8-2.9 6.1-3.6l1.5-.3 183.7-29h.2l.4-.1h2.9c2.1.2 4 .9 5.8 2l.1.1.3.2.8.6.1.1.4.4.8.3.2.2.1.2.8.9.1.1.1.1.3.5.4.6.1.2.1.1.2.4.4.6.1.3.1.2.1.4.2.6.1.3.1.3.1.4.1.5.1.6.1.3v.2l.1.4v2.9c-.3 2.6-1.2 5-2.9 7.1l-.1.1-.4.4-.6.7-58 58 48.3 48.3c1.7 1.7 2.9 3.8 3.5 6.1s.6 4.8 0 7.1"/></svg>