<?xml version="1.0" encoding="utf-8"?>
<!-- Generator: Adobe Illustrator 28.2.0, SVG Export Plug-In . SVG Version: 6.00 Build 0)  -->
<svg version="1.1" id="Layer_1" xmlns="http://www.w3.org/2000/svg" xmlns:xlink="http://www.w3.org/1999/xlink" x="0px" y="0px"
	 viewBox="0 0 512 512" style="enable-background:new 0 0 512 512;" xml:space="preserve">
<style type="text/css">
	.st0{fill:#FFFFFF;}
</style>
<path class="st0" d="M256,0C114.6,0,0,114.6,0,256s114.6,256,256,256s256-114.6,256-256S397.4,0,256,0z M381.7,285L285,381.7
	c-42.7,42.7-112,42.7-154.7,0s-42.7-112,0-154.7l96.7-96.7c42.7-42.7,112-42.7,154.7,0S424.4,242.3,381.7,285z M362.3,169l0.2,0.2
	l0.1,0.2l0.8,0.9l0.1,0.1l0.1,0.1l0.3,0.5l0.4,0.6l0.1,0.2l0.1,0.1l0.2,0.4l0.4,0.6l0.1,0.3l0.1,0.2l0.1,0.4l0.2,0.6l0.1,0.3
	l0.1,0.3l0.1,0.4l0.1,0.5l0.1,0.6l0.1,0.3v0.2l0.1,0.4v0.7v0.4v0.2v0.3v0.7v0.5v0.1c-0.3,2.6-1.2,5-2.9,7.1l-0.1,0.1l-0.4,0.4
	l-0.6,0.7l-58,58l48.3,48.3c1.7,1.7,2.9,3.8,3.5,6.1c0.6,2.3,0.6,4.8,0,7.1c-0.6,2.3-1.8,4.4-3.5,6.1s-3.8,2.9-6.1,3.6l-1.5,0.3
	l-183.7,29c-13.1,2.1-21.1-13.8-11.8-23.2l58-58l-48.3-48.3c-1.7-1.7-2.9-3.8-3.5-6.1s-0.6-4.8,0-7.1s1.8-4.4,3.5-6.1
	c1.7-1.7,3.8-2.9,6.1-3.6l1.5-0.3l183.7-29h0.2l0.4-0.1h0.7h0.4h0.2h0.3h0.7h0.5h0.1c2.1,0.2,4,0.9,5.8,2l0.1,0.1l0.3,0.2l0.8,0.6
	l0.1,0.1l0.4,0.4L362.3,169z"/>
</svg>
