<svg xmlns="http://www.w3.org/2000/svg" xml:space="preserve" viewBox="0 0 512 512"><circle cx="256" cy="256" r="256" style="fill:#0e2437"/><path d="m429.2 109.5-29 73.4h-91.6l-8.4 44.8H389l-29 73-72.4.2-24 118-142.9-9.6 146.4-9.6-160.9-9.6 164.4-9.7-227.5-9.7 231.4-9.6-187.6-9.7 191.2-9.6-221.8-9.6 225.6-9.7-196.1-9.6 199.6-9.6L16.7 293l272.5-9.6-201.8-9.6 205.6-9.6-161-9.7 164.4-9.6-244-9.6 247.5-7.4L154 216l149.7-9.6-263.1-9.6 266.6-13.9-174.3-6 178.1-9.6-225.2-9.6 228.7-9.6-197.8-9.6 201.6-9.6-160.8-9.7L267 113c49.6-3.3 145.8-4.3 162.2-3.5" style="fill:#00d07b"/></svg>