<svg xmlns="http://www.w3.org/2000/svg" xml:space="preserve" viewBox="0 0 512 512"><path d="M476.9 270.6c5.5-1.1 10.2-3.6 13.8-7.3 14.6-19.3 2.9-43-16.4-45.9-2.9 0-5.5-2.9-5.5-5.5v-1.8c2.9-2.9 5.5-6.6 9.1-12 29.5-39.4 43-184.4 13.8-195.7-35.7-12-108.2 23-139.6 63.4-1.8-1.1-3.6-3.6-3.6-6.6 1.1-10.9-4.7-20-12.8-24.8-16.4-8.4-32.1 0-38.6 12-1.8 2.9-4.7 4.7-7.3 3.6-2.9 0-5.5-2.9-5.5-5.5-1.8-9.1-7.3-16.4-15.7-20-17.5-7.3-35.7 2.9-38.6 19.3-1.1 2.9-2.9 5.5-5.5 5.5-2.9 1.1-5.5-1.1-7.3-3.6-5.5-8.4-14.6-13.8-23.7-13.8-14.6 0-27.7 12-28.4 26.6v2.2c0 2.9-1.8 5.5-3.6 6.6h-1.1C130.3 27.9 56.7-8.2 20.3 3.9-9.2 14.1 4.6 159.1 34.9 198.5c5.5 7.3 10.2 12.8 13.8 16.4-1.1 2.9-3.6 5.5-6.6 5.5-4.7 0-9.1 1.8-12.8 4.7-19.3 18.2-8.4 44.1 10.9 48.8 2.9 1.1 5.5 3.6 5.5 6.6 0 2.9-1.8 6.6-4.7 7.3-3.6 1.8-7.3 3.6-10.2 7.3-14.6 21.1 0 44.8 20 44.8 2.9 0 5.5 1.8 6.6 4.7s1.1 5.5-1.8 7.3c-5.5 5.5-8.4 12.8-7.3 20 1.1 10.2 7.3 19.3 17.5 23.7 5.5 2.9 10.9 2.9 16.4 1.8 2.9-1.1 5.5 0 7.3 2.9 1.8 1.8 1.8 5.5 1.1 7.3-2.9 5.5-3.6 12-1.8 18.2 2.9 10.2 10.2 17.5 20 20 9.1 1.8 15.7-1.1 20-2.9 1.8-1.1-12 33.2-21.9 56.1-2.9 7.3 4.7 15.7 12.8 12 30.2-13.8 80.9-37.5 80.9-35.7 1.8 19.3 23.7 33.2 44.8 19.3 4.7-2.9 7.3-8.4 8.4-12.8 1.1-2.9 3.6-5.5 7.3-5.5s6.6 1.8 7.3 5.5c1.1 4.7 2.9 8.4 6.6 10.9 21.1 16.4 44.8 2.9 46.6-17.5 0-2.9 1.8-5.5 4.7-6.6s5.5 0 7.3 1.8c5.5 5.5 12 9.1 19.3 9.1 9.1 0 18.2-4.7 23.7-13.8 3.6-5.5 4.7-10.9 3.6-18.2 0-2.9 1.1-5.5 2.9-7.3s5.5-1.8 7.3 0c5.5 2.9 12 4.7 18.2 2.9 10.2-1.8 18.2-10.2 21.1-19.3 1.8-6.6 1.1-12.8-1.8-19.3-1.1-2.9-1.1-5.5 1.1-7.3s4.7-2.9 7.3-2.9c6.6 1.1 12 1.1 17.5-1.8 8.4-3.6 13.8-10.9 15.7-20s-1.1-17.5-7.3-23.7c-1.8-1.8-2.9-4.7-1.8-7.3s3.6-4.7 6.6-4.7c6.6 0 13.8-1.8 18.2-7.3 15.7-16.4 8.4-38.6-9.1-45.9-2.9-1.1-4.7-3.6-4.7-7.3 0-3.1 2.6-5.7 5.5-5.7" style="fill:#4d3f92"/><path d="M403.3 77.8c1.8 5.5 1.8 10.9 0 16.4-1.1 2.9 0 5.5 1.8 7.3s4.7 2.9 7.3 1.8c3.6-1.8 7.3-1.8 10.9-1.8 8.4 0 15.7 3.6 21.1 10.9 3.6 4.7 6.6 10.9 5.5 17.5 0 5.5-1.8 10.2-4.7 14.6-1.8 1.8-1.8 5.5 0 7.3 1.1 1.1 1.8 2.9 3.6 2.9 3.6-1.1 7.3-3.6 10.2-7.3 16.4-23 19.3-95.5 2.9-100.9s-44.8 5.5-65.2 21.9c4 1.8 5.9 4.7 6.6 9.4m-336.7 78 2.9-2.9c1.8-2.9 1.1-5.5 0-7.3-4.7-6.6-5.8-13.8-4.7-21.1 1.8-10.2 10.2-18.2 20-21.1 5.5-1.8 10.9-1.1 16.4 1.1 2.9 1.1 5.5 0 7.3-1.8s2.9-4.7 1.8-7.3c-1.8-5.5-1.8-10.9 0-16.4 1.1-3.6 2.9-7.3 5.5-10.2-20-16.4-50.7-28.4-67.1-23s-13.5 78 3.3 100.9c3.6 5.5 8 8 14.6 9.1m79.8 79.1c18.7 0 33.9 15.2 33.9 33.9s-15.2 33.9-33.9 33.9-33.9-15.2-33.9-33.9 15.2-33.9 33.9-33.9m145 33.9c0 19.3-15.7 33.9-33.9 33.9-19.3 0-33.9-15.7-33.9-33.9s67.8-19.3 67.8 0m42.7-5.5c3-18.5 20.4-31 38.9-28s31 20.4 28 38.9-20.4 31-38.9 28-31-20.4-28-38.9" style="fill:#fff"/></svg>