<?xml version="1.0" encoding="utf-8"?>
<!-- Generator: Adobe Illustrator 28.2.0, SVG Export Plug-In . SVG Version: 6.00 Build 0)  -->
<svg version="1.1" id="Layer_1" xmlns="http://www.w3.org/2000/svg" xmlns:xlink="http://www.w3.org/1999/xlink" x="0px" y="0px"
	 viewBox="0 0 512 512" style="enable-background:new 0 0 512 512;" xml:space="preserve">
<style type="text/css">
	.st0{fill:#FFFFFF;}
</style>
<path class="st0" d="M256,225.8L32.7,82.2L256,0l223.3,82.2L256,225.8z M369.4,314.3l-20.2,16.8L269.9,397c-1.2,1-2.5,1.9-3.8,2.6
	l-0.4,0.2l-0.1,0.1l-0.1,0l-0.3,0.1l0,0l-0.2,0.1l-0.1,0.1l-0.2,0.1h-0.1c-2.4,1-5,1.6-7.5,1.7H257h-0.4h-0.2h-0.3h-0.3h-0.2h-0.4
	h-0.1c-2.6-0.1-5.1-0.7-7.5-1.7h-0.1l-0.3-0.1l-0.2-0.1l-0.3-0.1l-0.3-0.1l-0.2-0.1l-0.4-0.2c-1.3-0.7-2.6-1.6-3.8-2.6l-106.2-88.4
	l-51.3,33.3L256,512l79.7-79l85.2-84.5l0,0l0.1-0.1L369.4,314.3z M268,243.7c-0.4,0.3-0.8,0.5-1.3,0.8c-0.1,0-0.2,0.1-0.2,0.1
	c-0.4,0.2-0.8,0.5-1.3,0.7c0,0-0.1,0-0.1,0.1c-2.9,1.4-6,2-9.1,2c-4.1,0-8.3-1.3-12-3.7l-104.5-67.2l-79.8,40.8L256,380.6
	l196.4-163.3l-79.9-40.8L268,243.7z"/>
</svg>
