<?xml version="1.0" encoding="utf-8"?>
<!-- Generator: Adobe Illustrator 28.2.0, SVG Export Plug-In . SVG Version: 6.00 Build 0)  -->
<svg version="1.1" id="Layer_1" xmlns="http://www.w3.org/2000/svg" xmlns:xlink="http://www.w3.org/1999/xlink" x="0px" y="0px"
	 viewBox="0 0 512 512" style="enable-background:new 0 0 512 512;" xml:space="preserve">
<path d="M421,348.4l-0.1,0.1l0,0L335.7,433L256,512L84.5,341.9l51.3-33.3L242,397c1.2,1,2.5,1.9,3.8,2.6l0.4,0.2l0.2,0.1l0.3,0.1
	l0.3,0.1l0.2,0.1l0.3,0.1h0.1c2.4,1,4.9,1.6,7.5,1.7h0.1h0.4h0.2h0.3h0.3h0.2h0.4h0.1c2.5-0.1,5.1-0.7,7.5-1.7h0.1l0.2-0.1l0.1-0.1
	l0.2-0.1l0,0l0.3-0.1l0.1,0l0.1-0.1l0.4-0.2c1.3-0.7,2.6-1.6,3.8-2.6l79.3-65.9l20.2-16.8L421,348.4z M479.3,82.2L256,0L32.7,82.2
	L256,225.8L479.3,82.2z M268,243.7c-0.4,0.3-0.8,0.5-1.3,0.8c-0.1,0-0.2,0.1-0.2,0.1c-0.4,0.2-0.8,0.5-1.3,0.7c0,0-0.1,0-0.1,0.1
	c-2.9,1.4-6,2-9.1,2c-4.1,0-8.3-1.3-12-3.7l-104.5-67.2l-79.8,40.8L256,380.6l196.4-163.3l-79.9-40.8L268,243.7z"/>
</svg>
