<svg xmlns="http://www.w3.org/2000/svg" xml:space="preserve" viewBox="0 0 512 512"><path d="m421 348.4-.1.1-85.2 84.5-79.7 79L84.5 341.9l51.3-33.3L242 397c1.2 1 2.5 1.9 3.8 2.6l.4.2.2.1.3.1.3.1.2.1.3.1h.1c2.4 1 4.9 1.6 7.5 1.7h2c2.5-.1 5.1-.7 7.5-1.7h.1l.2-.1.1-.1.2-.1.3-.1h.1l.1-.1.4-.2c1.3-.7 2.6-1.6 3.8-2.6l79.3-65.9 20.2-16.8zm58.3-266.2L256 0 32.7 82.2 256 225.8zM268 243.7c-.4.3-.8.5-1.3.8-.1 0-.2.1-.2.1-.4.2-.8.5-1.3.7 0 0-.1 0-.1.1-2.9 1.4-6 2-9.1 2-4.1 0-8.3-1.3-12-3.7l-104.5-67.2-79.8 40.8L256 380.6l196.4-163.3-79.9-40.8z"/></svg>