<svg xmlns="http://www.w3.org/2000/svg" xml:space="preserve" viewBox="0 0 512 512"><path d="M472.1 177.1c-55.9 10.8-92.4 46.7-111.9 66.4-20.8 21-23.1 29.2-45.3 57.7-51.3 65.9-104.2 105.4-114.2 112.8-39.5 29.1-88 63.9-156.6 69.1-12.6 1-23.2.7-30.6.3 11.3 16.4 29.7 27.4 50.8 28.5h.3c1.1.1 2.1.1 3.2.1h376.4c36.5 0 66-29.6 66-66V174.1c-8.9-.3-22.3 0-38.1 3" style="fill:#6be898"/><path d="M444.2 54.2H67.8c-36.5 0-66 29.6-66 66v192.6c.1-.4.3-.7.4-1.1 14.1-11.6 35.3-25.1 61.5-25.9 66.2-2 96 79 155.8 80 19.6.3 45.6-7.9 76.9-42 6.1-7.1 12.3-14.7 18.5-22.6 22.2-28.5 24.5-36.7 45.3-57.7 19.5-19.7 56-55.6 111.9-66.4 15.9-3.1 29.3-3.3 38.2-3v-53.9c-.1-36.5-29.6-66-66.1-66" style="fill:#2adac1"/><path d="M44 483.1s.1 0 0 0c68.6-5.2 117.1-40 156.6-69.1 8.8-6.5 50.8-37.9 95.7-90.1-31.2 34.2-57.2 42.4-76.9 42-59.9-1-89.6-82-155.8-80-26.2.8-47.4 14.3-61.5 25.9-.1.4-.3.7-.4 1.1V446c0 1.1 0 2.1.1 3.2v.6c.1.9.1 1.8.2 2.7v.4c1.2 11.2 5.2 21.7 11.3 30.5 9 .3 19.3.4 30.7-.3" style="fill:#1bbce0"/><linearGradient id="fluidcalendar_svg__a" x1="33.773" x2="478.227" y1="505.318" y2="60.865" gradientUnits="userSpaceOnUse"><stop offset=".006" style="stop-color:#16c2ed"/><stop offset=".788" style="stop-color:#19c8eb;stop-opacity:0"/></linearGradient><path d="M444.2 512H67.8c-36.5 0-66-29.6-66-66V120.2c0-36.5 29.6-66 66-66h376.4c36.5 0 66 29.6 66 66V446c0 36.4-29.5 66-66 66" style="fill:url(#fluidcalendar_svg__a)"/><path d="M120 101.1c-14.3 0-25.9-11.6-25.9-25.9V25.9C94.1 11.6 105.7 0 120 0s25.9 11.6 25.9 25.9v49.3c0 14.3-11.6 25.9-25.9 25.9m298-25.9V25.9C418 11.6 406.4 0 392.1 0s-25.9 11.6-25.9 25.9v49.3c0 14.3 11.6 25.9 25.9 25.9S418 89.5 418 75.2" style="fill:#3c4f5d"/></svg>