<?xml version="1.0" encoding="utf-8"?>
<!-- Generator: Adobe Illustrator 28.2.0, SVG Export Plug-In . SVG Version: 6.00 Build 0)  -->
<svg version="1.1" id="Layer_1" xmlns="http://www.w3.org/2000/svg" xmlns:xlink="http://www.w3.org/1999/xlink" x="0px" y="0px"
	 viewBox="0 0 512 512" style="enable-background:new 0 0 512 512;" xml:space="preserve">
<style type="text/css">
	.st0{fill:#FFFFFF;}
</style>
<path class="st0" d="M346,92l-5.7-25.8L374.6,0l21,35.4l41.1-1.4l-37.1,64.6l-26.4,9.8l-74,135.4c8.4,9.7,12.4,23.1,7.7,36.9
	c-6.9,20.3-29.5,30.9-50.5,23.8c-21-7.1-32.5-29.3-25.7-49.6c4.6-13.6,16.3-22.9,29.9-25.4c3.4-0.7,6.9-0.8,10.3-0.5L346,92z
	 M383.9,133.6l-3.7,39.1c37.2,39.3,53.9,95.9,34.7,152.5c-27,79.8-116,121.7-198.9,93.7c-82.8-28-128.1-115.4-101.1-195.2
	c23.9-70.6,96.4-110.2,166.6-101.4L310.4,97C208.7,69.2,93.1,123.5,56,233.1C18.6,343.6,77.8,463.4,188.3,500.8
	C298.7,538.2,418.6,479,456,368.5C486.5,278.3,452.2,186.2,383.9,133.6z M158.3,231.9c-10,29.4-6.6,60.2,6.8,86.2
	c13.4,25.8,36.7,46.9,66.9,57.1c30.2,10.2,61.5,7.7,87.8-4.7c26.5-12.5,47.8-34.9,57.8-64.3c6.3-18.7,7.2-37.2,3.9-54.5
	c-4-20.8-14.1-39.8-28.2-55.2c-1.4-1.6-2.9-3.1-4.4-4.6l-8.2,41c4.5,7.7,7.7,16,9.4,24.8c2.3,12.1,1.7,25.1-2.8,38.2
	c-7.1,20.9-22.3,36.8-41.2,45.7c-19.1,9-41.9,10.8-63.9,3.3c-22-7.5-39.1-22.8-48.8-41.5c-9.6-18.5-12-40.4-5-61.3
	c4.7-13.8,12.8-25.4,23.3-34.2c10.9-9.3,24.3-15.5,38.6-18.1l0.2,0c2.4-0.5,4.7-0.8,7.1-1l28.8-30.2c-13.6-2.6-27.7-2.9-41.9-0.1
	l0,0c-19.9,3.6-38.4,12.3-53.5,25.1C176.5,196,164.9,212.4,158.3,231.9z"/>
</svg>
