<svg xmlns="http://www.w3.org/2000/svg" xml:space="preserve" viewBox="0 0 512 512"><linearGradient id="foldergram_svg__a" x1="80" x2="432" y1="450" y2="66" gradientTransform="matrix(1 0 0 -1 0 514)" gradientUnits="userSpaceOnUse"><stop offset="0" style="stop-color:#4f46e5"/><stop offset="1" style="stop-color:#ec4899"/></linearGradient><path d="M144 0h224c79.5 0 144 64.5 144 144v224c0 79.5-64.5 144-144 144H144C64.5 512 0 447.5 0 368V144C0 64.5 64.5 0 144 0" style="fill:url(#foldergram_svg__a)"/><path d="M368 504H144C69 504 8 443 8 368V144C8 69 69 8 144 8h224c75 0 136 61 136 136v224c0 75-61 136-136 136M144 16C73.4 16 16 73.4 16 144v224c0 70.6 57.4 128 128 128h224c70.6 0 128-57.4 128-128V144c0-70.6-57.4-128-128-128z" style="opacity:.18;fill:#fff"/><path d="M128 168c0-22.1 17.9-40 40-40h176c22.1 0 40 17.9 40 40v176c0 22.1-17.9 40-40 40H168c-22.1 0-40-17.9-40-40zm40-24c-13.3 0-24 10.7-24 24v176c0 13.3 10.7 24 24 24h176c13.3 0 24-10.7 24-24V168c0-13.3-10.7-24-24-24zm8 48c0-8.8 7.2-16 16-16h32c8.8 0 16 7.2 16 16v32c0 8.8-7.2 16-16 16h-32c-8.8 0-16-7.2-16-16zm48 0h-32v32h32zm-48 96c0-8.8 7.2-16 16-16h32c8.8 0 16 7.2 16 16v32c0 8.8-7.2 16-16 16h-32c-8.8 0-16-7.2-16-16zm48 0h-32v32h32zm48-96c0-8.8 7.2-16 16-16h32c8.8 0 16 7.2 16 16v32c0 8.8-7.2 16-16 16h-32c-8.8 0-16-7.2-16-16zm48 0h-32v32h32zm-48 96c0-8.8 7.2-16 16-16h32c8.8 0 16 7.2 16 16v32c0 8.8-7.2 16-16 16h-32c-8.8 0-16-7.2-16-16zm48 0h-32v32h32z" style="fill:#fff"/></svg>