<svg xmlns="http://www.w3.org/2000/svg" xml:space="preserve" viewBox="0 0 512 512"><path d="M230.8 234.2c-.3-2.3.4-5.3 2.9-7.5.8-.7 1.7-1 2.5-1 .5 0 1 .2 1.4.5 1.1 1 .6 3.4-.6 5-1.3 1.8-3.4 3.4-5.3 3.8-.4.2-.8.1-.9-.8m128.4 28.7c-.9-.4-1.8-.6-2.8-.6-4.3 0-9.9 3.8-15 10-5.2 6.3-7.9 12.6-8 18.9 0 2.2.8 4.9 2.8 5.9 4.4 2.3 9.8-1.1 13.7-4.3 2.6-2.1 4.7-4.2 6.5-7 2-3 3.5-5 5.2-8.4.2-.5.1-.6-.1-.7-.6-.2-1.2-.6-1.2-1.1-.1-.3-.1-.6.1-.9 2.1-4.2 3.6-9.6-1.2-11.8M512 256c0 50.9-114.5 92.1-256 92.1-141.4 0-256-41.2-256-92.1 0-51 114.6-92.1 256-92.1 141.5 0 256 41.1 256 92.1m-8.1-.9c0-46.9-110.4-85-246.6-85s-246.6 38-246.6 85c0 46.9 110.4 85 246.6 85s246.6-38.1 246.6-85m-8.7 0c0 42.9-106.5 77.6-237.9 77.6S19.4 297.9 19.4 255.1c0-42.9 106.5-77.6 237.9-77.6 131.4-.1 237.9 34.7 237.9 77.6m-327.1 37c12-12.1 22.9-30.1 33.2-46.8.3-.5.5-.8 2.1-1 6.4-.8 15.9-1.7 22-2 1.4-.1 1.6-.1 2.2.6 1.6 2 4 3.7 5.9 4.7.9.5 1.4.7 2.1.8.9 0 1.6-.5 2.1-1 .6-.7.8-1.6.5-2.2-.4-.6-4.6-2.9-4.7-3.9-.1-.6.6-.7.6-.7 3.1-1 6.4-3 8.3-6.7s2.2-8.6-1.3-11.3c-3.1-2.4-7.8-2-11.5 1.3-3.7 3.2-4.9 7.9-4.4 12 .1.7.1 1-.9 1-5.6.4-11 .6-17 .9-.4 0-.5-.2-.3-.5 6.9-11.9 17.3-20.4 28.7-28.8.8-.6.5-1.6.5-2.5 20.7 4.4 40.6 12.7 62.1 12.5 8.9-.1 17.4-1.4 25.5-5.8 7.1-3.9 10-7.4 10.2-11.1.2-2.6-1.6-4.2-4.2-3.6-21.7 4.9-42.3 4.9-63.9 2.3-24.6-3-48.2-9-72.7-9-3.5 0-7 .1-10.6.4-23.5 2-45.9 15.1-46 35 0 10.1 7.2 18.3 18.5 17.9 13.2-.4 24-10.9 29.7-24.1 2.2-5-1.8-7.1-3.7-4.2-3.3 5-7.9 9.1-13.3 11.7-6.2 3-12.8 2.2-14.9-2.8-2.8-7 3.1-17.6 16.5-22.5 19.4-7.1 39.7-2.4 59.2 1.2.3 0 1.3.6.4 1-3.5 1.9-6.9 3.4-12.3 8-3.8 3.3-8.9 7.6-12.8 12.3s-6.6 8.8-10.2 13.4c-.5.7-1.1.6-1.1.6-8.8 1.5-17.5 2.5-25.4 7.9-1.6 1.1-2.3 3.1-1.4 4.6.9 1.3 2.9 1.5 4.3.5 4.9-3.6 10-5.4 15.8-5.5.3 0 .4.1.4.2s0 .3-.1.4c-8.7 11.9-10.9 14.6-17.4 22.1-3.3 3.8-6.6 7-10.3 10.4-14.9 13.7-30.8 13.4-36.6 4.9-3.4-5.1-3-10.5-.7-15 2.8-5.5 8.3-9.5 13-11.9 1.7-.9 2.2-3.1.5-5-1.1-1.3-3.8-1.5-5.7-1.2-6.1 1.1-13.3 5.7-17.5 11.1-4.8 6.1-7.2 13.6-6.4 22 1.4 15.1 14 23.9 28.3 23.8 11.2-.1 21.9-3.5 34.7-16.4m242-65.9h-13.2c-1 0-1.5.1-1.9 1-1.5 2.9-20 30.3-23.4 35.6-.6.8-1.3.7-1.4-.2-.3-3.2-3.1-6.8-7.4-8.5-3.3-1.3-6.5-1.6-9.9-1.1-6.1.8-11.5 4-16.2 7.6-7.2 5.4-13.3 12.4-21.3 17.6-4.4 2.8-10.3 5.3-14.3 1.6-3.6-3.3-3.2-10.7 2.3-16.4.6-.6 1.3-.1 1.2.4-.5 2.6.1 5.1 2.1 6.9 2.4 2.1 5.9 2.4 8.8 1 3.5-1.7 5.5-5 6.1-8.8.9-5.8-3.6-10.9-9.3-11.4-4.6-.3-9 1.3-13.3 4.8-2.2 1.8-3.4 3.1-5.2 5.7-.5.6-1.2.7-1.1-.2.2-7.4-2.9-11.6-9.1-11.8-4.8-.1-10 2.5-14 5.6-4.4 3.5-8.3 8.1-12.4 12.5-.5.5-1 .5-1.1-.5-.1-4.9-1.4-9.7-3.7-13.1-.8-1.2-2.5-1.8-4-1-.7.4-3 1.4-4.7 2.8-.8.7-1.2 1.7-.8 2.9 2.2 7.4 1.7 15.7-1.3 22.8-2.8 6.5-8.2 12.3-14.5 14.3-4.2 1.3-8.5.7-11.2-3-3.7-5.1-2.2-13.8 3.3-21.1 4.9-6.4 11.9-10.5 18.9-13.1.8-.3 1-.8.8-1.5-.4-1.1-1-2.7-1.2-3.4-.6-1.7-2.4-2-4.6-1.7-5.1.6-9.7 2.3-14.2 4.7-11.9 6.3-17.8 18.5-20.4 25-1.3 3.1-2.3 5.1-3.7 6.8-1.9 2.3-4.2 4.4-8.5 8.2-.4.3-.7 1.1-.4 1.7.4.9 2.7 4 3.3 4.3.7.3 1.5-.1 1.8-.4 3-2 6.6-5.2 8.4-7.4.6-.7 1.3-.4 1.6.7 1.6 5.8 5.9 10.5 11.9 12.5 10.9 3.6 22.2-1.6 30.7-10.8 5.4-5.8 7.4-9.6 9.4-12.1 3.5-4.3 10.4-14 18.7-20.2 3-2.3 6.6-4 8.4-2.9 1.4.9 1.9 3.1-.4 7.3-8.4 15.2-20.8 33.1-23.1 37.5-.4.8-.1 1.3.7 1.3h12.8c.7 0 1-.3 1.3-.8 6.5-10 12.5-19.6 19.1-29.4.4-.6.7-.1.7.1.1 2.3.7 5.4 2.1 7.5 2.5 3.8 6 5.4 9.8 5.5 3.1 0 4.6-.4 8-1.7 2.3-.9 4.5-2 6.5-3.5 1-.7 1.1.5 1.1.6-1.5 8 .4 17.4 8.3 21.3 9.6 4.7 20-1.9 26.1-7.8.6-.6 1.2-.5 1.3.7.1 2.3 1.2 4.9 3 6.8 5.1 5 15.3 3 25.5-4.8 6.6-5 13.5-12.1 19.7-19.7.2-.3.4-.8 0-1.2-.9-1-2.3-2.1-3.3-3-.4-.4-1.1-.3-1.4 0-6.4 6-12.1 12.8-20.4 18.5-2.8 1.9-7.3 3.5-9.3.8-.8-1-.7-2.5.1-4.4 2.4-6 40.7-63.7 42.7-67.1.2-.4-.2-.9-.9-.9"/></svg>