<?xml version="1.0" encoding="utf-8"?>
<!-- Generator: Adobe Illustrator 28.2.0, SVG Export Plug-In . SVG Version: 6.00 Build 0)  -->
<svg version="1.1" id="logo" xmlns="http://www.w3.org/2000/svg" xmlns:xlink="http://www.w3.org/1999/xlink" x="0px" y="0px"
	 viewBox="0 0 512 512" style="enable-background:new 0 0 512 512;" xml:space="preserve">
<style type="text/css">
	.st0{fill:#DA291C;}
</style>
<g>
	<path class="st0" d="M512,210.1v92.5l0,0H367.9v-92.5l0,0H512L512,210.1L512,210.1z M184.3,434.6L184.3,434.6h144.1l0,0v-92.5
		H184.3V434.6z M512,155.1c0-42.9-34.8-77.7-77.7-77.7h-66.3v92.5H512V155.1z M184.3,77.4v92.5l0,0h144.1l0,0V77.4l0,0H184.3
		L184.3,77.4z M0,210.1L0,210.1v92.5l0,0h144.1v-92.5l0,0H0L0,210.1z M367.9,434.6h66.3c42.9,0,77.7-34.8,77.7-77.7v-14.7H367.9
		V434.6z M0,356.9c0,42.9,34.8,77.7,77.7,77.7h66.3v-92.5H0V356.9z M0,155.1v14.7h144.1V77.4H77.7C34.8,77.4,0,112.3,0,155.1z"/>
</g>
</svg>
