<?xml version="1.0" encoding="utf-8"?>
<!-- Generator: Adobe Illustrator 28.2.0, SVG Export Plug-In . SVG Version: 6.00 Build 0)  -->
<svg version="1.1"
	 id="svg2" xmlns:svg="http://www.w3.org/2000/svg" xmlns:sodipodi="http://sodipodi.sourceforge.net/DTD/sodipodi-0.dtd" xmlns:inkscape="http://www.inkscape.org/namespaces/inkscape" inkscape:export-filename="forte_512x512.png" inkscape:version="1.2.1 (9c6d41e410, 2022-07-14, custom)"
	 xmlns="http://www.w3.org/2000/svg" xmlns:xlink="http://www.w3.org/1999/xlink" x="0px" y="0px" viewBox="0 0 512 512"
	 style="enable-background:new 0 0 512 512;" xml:space="preserve">
<style type="text/css">
	.st0{fill-rule:evenodd;clip-rule:evenodd;}
	.st1{fill:#FFFFFF;}
</style>
<path id="rect341" class="st0" d="M256,0L256,0c141.4,0,256,114.6,256,256l0,0c0,141.4-114.6,256-256,256l0,0
	C114.6,512,0,397.4,0,256l0,0C0,114.6,114.6,0,256,0z"/>
<path id="text2502" class="st1" d="M288.3,223h23.1c3.2-0.1,5.9-1.2,8-3.3s3.2-4.8,3.3-8c-0.1-3.2-1.2-5.9-3.3-8
	c-2.1-2.1-4.8-3.2-8-3.3H295c2.6-11.8,6.2-22.6,10.8-32.6c4.6-10,11.8-15.3,21.6-15.9h2.7c2.2-0.1,4.2,0.2,5.9,0.6
	c1.7,0.5,2.6,1.6,2.7,3.3c-0.6,5.5-3.1,9.1-7.4,10.9c-4.3,1.8-6.8,5.3-7.4,10.6c0.1,4.8,1.8,8.9,5.1,12.1c3.3,3.3,7.3,5,12.1,5.1
	c6.8-0.3,11.9-3.5,15.3-9.5s5-12.9,5-20.6c-0.2-9.8-3.6-18-10-24.6s-14.4-10-24-10.2c-18.2,0.7-34.6,7.9-49.4,21.7
	s-25.7,30.2-32.7,49h-20.7c-3.2,0.1-5.9,1.2-8,3.3s-3.2,4.8-3.3,8c0.1,3.2,1.2,5.9,3.3,8s4.8,3.2,8,3.3H239l-25.8,102.8
	c-2,8.8-5.3,16.7-9.7,23.7s-10.7,10.7-18.8,11.1h-2.3c-2.4,0.1-4.5-0.2-6.3-0.7c-1.7-0.5-2.7-1.7-2.7-3.6c0.6-5.3,3.1-8.8,7.4-10.6
	c4.3-1.8,6.8-5.4,7.4-10.9c-0.1-4.8-1.8-8.8-4.9-11.9c-3.2-3.1-7.3-4.8-12.3-4.9c-6.7,0.3-11.7,3.4-15.1,9.3
	c-3.4,5.9-5.2,12.8-5.2,20.8c0.2,9.8,3.6,17.9,10,24.4c6.4,6.4,14.4,9.8,24,10c12.9-0.5,25.1-6.3,36.5-17.2
	c11.4-11,21.4-24.1,29.9-39.4s14.8-29.6,18.8-43L288.3,223z"/>
</svg>
