<svg xmlns="http://www.w3.org/2000/svg" xml:space="preserve" viewBox="0 0 512 512"><path d="m494.6 193.5-37.8-22.4c-17.7-10.5-28.7-30-28.7-51v-45c0-9.2-4.1-17.9-11-23.6-20.6-17.1-43.9-31-69-41-8.4-3.3-17.7-2.7-25.5 1.9L284.7 35a56.05 56.05 0 0 1-57.3 0l-37.9-22.5c-7.7-4.6-17.1-5.3-25.5-1.9-25.2 10-48.3 23.9-68.9 40.9-6.9 5.8-11 14.4-11 23.6V120c0 21-10.9 40.5-28.7 51l-37.8 22.4C9.8 198 4.5 206 3.2 215.1 1 228.4 0 242.1 0 256s1 27.6 3.1 40.9c1.4 9.1 6.7 17.1 14.4 21.7L55.3 341C73.1 351.6 84 371 84 392v44.9c0 9.2 4.1 17.8 11 23.6 20.6 17.1 43.8 31 68.9 40.9 8.4 3.3 17.7 2.7 25.5-1.9l37.9-22.5c17.7-10.5 39.6-10.5 57.3 0l37.9 22.5c7.7 4.6 17.1 5.2 25.5 1.9 25.1-10 48.3-23.9 68.9-40.9 6.9-5.8 11-14.4 11-23.6V392c0-21 11-40.5 28.7-51l37.8-22.4c7.7-4.6 13-12.5 14.4-21.7 2-13.3 3.1-27 3.1-40.9s-1-27.6-3.1-40.9c-1.2-9-6.4-17-14.2-21.6M256.1 414.1c-84.9 0-153.8-70.8-153.8-158 0-87.3 68.9-158 153.8-158s153.8 70.8 153.8 158-68.9 158-153.8 158"/></svg>