<svg xmlns="http://www.w3.org/2000/svg" xml:space="preserve" viewBox="0 0 512 512"><path d="M179.7 77.6c-20.4.8-39.5 4.4-57.8 11.4-21 7.9-39.4 19.8-55.2 35.8-5.2 5.2-10.5 10.4-16.1 15.1-8.7 7.2-14.9 5.8-20-4.4-5.4-10.8-4.8-22.3-2.7-33.6 3.3-17.4 12.7-31.4 25.7-43.1 25.3-22.6 55.9-34.7 87.8-43.9C182.7 3.1 225.2-.4 268 0c64.3.7 128.6 2 192.9 3.2 4.8.1 9.7.3 14.4 1.2 8 1.6 12.4 8.4 9.5 16-5.4 13.9-11.1 27.8-17.7 41.2-4.8 9.8-14 14.9-24.7 15.6-13.9.9-27.9.9-41.9.9-40.7-.1-81.3-.5-122-.7-2.3 0-4.5.2-5.7.2-11 41.8-21.8 82.9-32.9 124.7 2.3.1 4.9.3 7.6.3 36.1.6 72.2 1.6 108.3 1.7 17.7.1 17.9 8.8 15.1 20.3-2.6 10.6-5.8 21-9.2 31.4-4.3 13.5-11.1 18.3-25.5 17.7-33.8-1.4-67.5-3.2-101.3-4.4-14.8-.5-14.9-.1-18.6 14.1-12 46.7-23.1 93.7-28.2 141.8-1.6 14.9-2.5 29.9-2.7 44.9-.2 16.6-7.9 27.5-22.7 33.7-19 7.9-39 8.9-59.2 7.8-8.4-.5-13.7-7.2-15.2-17.5-3.9-26.1-3.6-52.2-.9-78.3 4.4-42.8 14-84.6 24.8-126.1.6-2.4 1-4.8 1.7-8-11.6 1.2-22.6 2.5-33.7 3.4-9.9.8-19.8 1.2-29.7 1.3-8.4.1-11.4-3.1-8.4-10.8 2.8-7.1 6.7-14.4 11.8-20 14.3-15.7 33.1-25.3 53.1-29.8 19.2-4.4 26.6-14.7 32-32.9 10.6-36 24.7-70.9 37.3-106.2 1-2.7 2-5.5 3.4-9.1"/></svg>