<svg xmlns="http://www.w3.org/2000/svg" xml:space="preserve" viewBox="0 0 512 512"><path d="M171.2 293.3h66.6v53.4h-66.6zm103.1 53.4h66.6v-53.4h-66.6zM512 146.3v219.4c0 80.8-65.5 146.3-146.3 146.3H146.3C65.5 512 0 446.5 0 365.7V146.3C0 65.5 65.5 0 146.3 0h219.4C446.5 0 512 65.5 512 146.3m-109.7 66.5c0-20.7-13-39.5-32.2-46.8l-96.2-36.6c-11.5-4.4-24.1-4.4-35.7 0l-99.7 38c-9.1 3.5-18.8 5.3-28.7 5.3v36.6c14.3 0 28.2-2.6 41.3-7.5l82.5-31.5 17.6-6.8 4.8-1.8 4.8 1.8 17.2 6.6 87.8 33.5v53.2h-256v36.6h24.9v53.4h-24.9v36.6h292.6v-36.6h-24.9v-53.4h2.2v-.2c12.4 0 22.7-10.2 22.7-22.7v-57.7z"/></svg>