<svg xmlns="http://www.w3.org/2000/svg" xml:space="preserve" viewBox="0 0 512 512"><path d="M365.7 0H146.3C65.5 0 0 65.5 0 146.3v219.4C0 446.5 65.5 512 146.3 512h219.4c80.8 0 146.3-65.5 146.3-146.3V146.3C512 65.5 446.5 0 365.7 0m27.1 385.8-11.7 8c-14.8 10.2-34.6 10.1-49.2-.5-14.4-10.4-33.8-10.8-48.6-.9l-3.7 2.6c-14.4 9.7-33.1 9.7-47.5 0l-3.7-2.6c-14.8-9.9-34.2-9.5-48.6.9-14.6 10.6-34.4 10.8-49.2.5l-11.7-8v-192h36.6v166.6h201.1V146.3H118.9v-36.6h273.9zm-145.9-62v-36.6H320v36.6z" style="fill:#fff"/></svg>