<svg xmlns="http://www.w3.org/2000/svg" xml:space="preserve" viewBox="0 0 512 512"><path d="M405.3 0H106.7C47.8 0 0 47.8 0 106.7v298.7C0 464.2 47.8 512 106.7 512h298.7c58.9 0 106.7-47.8 106.7-106.7V106.7C512 47.8 464.2 0 405.3 0m26.2 317c-13.8 37.5-56 66.8-96.1 66.8H173c-47.8 0-86.7-38.5-89.8-87h46.6c2.8 21.9 21 39 43.1 39h162.3c20.8 0 45.7-17.1 52.5-35.8 7.5-20.2 5.4-40.6-5.8-57.2-1.2-1.9-2.6-3.6-4-5.3-8.6-10.3-20.5-17.3-33.3-19.5-15.6-2.6-31.9 1-46.9 5.3-2.6-14.2-7-28.4-14.9-37.5-7.5-9.9-19.4-17.8-36.1-19-11.2-.7-23.1 3.6-32.2 11.8-7 6.3-11.7 12.7-14.5 20.2-10.3 27.2-34.7 44.7-62 44.7H83.2v-48.1H138c7.9 0 15.4-5.5 18.7-14.2q8.4-22.05 27.3-39c18.4-16.4 42.2-24.8 65.7-23.3 33.8 2.2 62.7 21.4 78.3 50.5 36.4-2.4 71.3 15.4 92.1 46.2l.2-.2c19.9 29.5 24.1 66.5 11.2 101.6"/></svg>