<svg xmlns="http://www.w3.org/2000/svg" xml:space="preserve" id="freeresend_svg__Layer_1" x="0" y="0" version="1.1" viewBox="0 0 512 512"><style>.freeresend_svg__st0{fill:#3b82f6}</style><path d="M96 0h320c53 0 96 43 96 96v320c0 53-43 96-96 96H96c-53 0-96-43-96-96V96C0 43 43 0 96 0" class="freeresend_svg__st0"/><path d="M128 160h256c17.7 0 32 14.3 32 32v128c0 17.7-14.3 32-32 32H128c-17.7 0-32-14.3-32-32V192c0-17.7 14.3-32 32-32" style="fill:#fff"/><path d="M256 288c-3.1 0-6.2-.9-8.9-2.7l-144-96c-7.4-4.9-9.3-14.8-4.4-22.2 4.9-7.3 14.8-9.3 22.2-4.4L256 252.8l135.1-90.1c7.2-4.9 17.2-3 22.2 4.4 4.9 7.4 2.9 17.3-4.4 22.2l-144 96c-2.7 1.8-5.8 2.7-8.9 2.7" class="freeresend_svg__st0"/></svg>