<svg xmlns="http://www.w3.org/2000/svg" xml:space="preserve" viewBox="0 0 512 512"><path d="m416.8 216.3 46.4-33.7c3.9-2.8 6.2-7.3 6.2-12.1l-.1-85.2V0H128L42.7 85.3V512h171.7c6.5 0 12.2-4.2 14.2-10.3l15.4-47.5c1.5-4.5 5-8.1 9.6-9.6l11.9-3.9c4.5-1.5 9.5-.7 13.4 2.1l40.4 29.4c5.2 3.8 12.3 3.8 17.6 0l36.2-26.3c5.2-3.8 7.4-10.5 5.4-16.7l-15.4-47.5c-1.5-4.5-.7-9.5 2.1-13.4l7.3-10.1c2.8-3.9 7.3-6.2 12.1-6.2h50c6.5 0 12.2-4.2 14.2-10.3l13.8-42.6c2-6.2-.2-12.9-5.4-16.7L416.8 253c-3.9-2.8-6.2-7.3-6.2-12.1v-12.5c0-4.8 2.3-9.3 6.2-12.1M384 170.7H213.3v64h85.3V320h-85.3v106.7H128V85.3h256z" style="fill-rule:evenodd;clip-rule:evenodd"/></svg>