<?xml version="1.0" encoding="utf-8"?>
<!-- Generator: Adobe Illustrator 28.2.0, SVG Export Plug-In . SVG Version: 6.00 Build 0)  -->
<svg version="1.1"
	 id="Layer_1" image-rendering="optimizeQuality" text-rendering="geometricPrecision" shape-rendering="geometricPrecision"
	 xmlns="http://www.w3.org/2000/svg" xmlns:xlink="http://www.w3.org/1999/xlink" x="0px" y="0px" viewBox="0 0 512 512"
	 style="enable-background:new 0 0 512 512;" xml:space="preserve">
<style type="text/css">
	.st0{fill:#FFFFFF;}
</style>
<path class="st0" d="M452.4,413.6L452.4,413.6l-14.9-15c-16.6-16.7-33.2-33.4-49.8-50.1l62.2-62.2c17.3-17.4,14.8-43.3,1.8-58.9
	l-95.7-95.7l-0.1,0.1l-96.4-96.4c-17.9-15-44.3-12.6-58.9,2L13.2,224.5l-0.1,0.2l0,0c-18.3,18.6-16.6,45.6,0.3,62.5l186.5,186.5
	c13.7,13.8,41.6,20.6,62.3,0.1l0,0c0,0,0.1-0.1,0.1-0.1c0,0,0,0,0,0l0,0l0,0l62.8-62.8l-31.2-31.2l-47.3,47.2
	c-8.3,8.3-19.3,8.7-27.6,3.1c-0.4-0.3-0.8-0.5-1.1-0.8c-0.8-0.8-1.3-1.3-1.3-1.3c-0.3-0.2-0.6-0.5-0.9-0.8L135,346.4l-76-76
	c-7.4-8.4-7.6-21.6,0.9-30.2L216.1,83.9c7.4-7.3,21.6-9.2,31.1,0.3l78.1,78.1l-62.4,62.4c-16.7,16.6-15.8,41.3-3.8,57.4c0,0,0,0,0,0
	c0.3,0.4,0.6,0.8,0.9,1.2l84.6,84.6c-28.5-28.6-57.1-57.3-85.5-85.8c63.6,63.5,127.7,128.3,190.7,191.3c19.6,19.6,48.9,14.3,62.2,0
	C492,453.4,472.2,433.5,452.4,413.6z M371.7,302.1c-8.5,8.4-22.4,8.4-30.9-0.1l-30.9-30.9c-8-8-9.2-21.9,0-31.1l46.5-46.5l46.4,46.4
	c8.4,8.4,9.3,21.8,0.1,31.1c-10.2,10.1-20.3,20.3-30.5,30.4L371.7,302.1z"/>
</svg>
