<?xml version="1.0" encoding="utf-8"?>
<!-- Generator: Adobe Illustrator 28.2.0, SVG Export Plug-In . SVG Version: 6.00 Build 0)  -->
<svg version="1.1" id="Layer_1" xmlns="http://www.w3.org/2000/svg" xmlns:xlink="http://www.w3.org/1999/xlink" x="0px" y="0px"
	 viewBox="0 0 512 512" style="enable-background:new 0 0 512 512;" xml:space="preserve">
<path d="M465.6,255.6c0-56,0-114-0.1-149.4V81.6c0-14.3-8.2-33.9-21-50.1C430,13.1,412.3,2.1,395.9,1.3C384,0.6,355,0.3,322.3,0.2
	l0,0c0,0,0,0,0,0C261.6-0.2,188.1,0.1,187,0.1l-4.1,0l0,0c-31.4,0.2-59,0.5-70.6,1C78.3,2.9,46.5,51.2,46.5,78.8
	c0,2.3,0,10.8,0,23.7c-0.1,36.2-0.2,95-0.1,153.2c0,31.7,0,63.6,0,92v36.8h0.1c0,9.1,0,17.5,0.1,24.9c0,12.9,0,21.4,0,23.7
	c0,27.5,32.7,76.8,66.6,78.6c7,0.3,18.8,0.3,33.8,0.2c5.2,0,11.1,0,17.6,0c6.1,0,12.7,0,19.6,0c1,0,2,0,3.1,0v0
	c12.8,0,26.5-0.1,40.1-0.1c39.9-0.1,81.1-0.3,93,0.1l0.2,0c9.2-0.1,17.9-0.1,26.1-0.1c22.3-0.1,40-0.1,49.2-0.6
	c16.4-0.8,34.1-11.8,48.6-30.2c12.8-16.2,21-35.9,21-50.1v-24.3c0-3.3,0-6.8,0-10.6c0-2.9,0-5.9,0-9h0.1v-40.3
	C465.7,318.7,465.7,287,465.6,255.6z M457.7,379.1h-0.1v3.9c0,4.5,0,8.8-0.1,12.9c0,3.7,0,7.3,0,10.6v24.3c0,25.5-30.6,70.9-62,72.4
	c-9,0.4-26.5,0.5-48.8,0.6c-8.2,0-16.9,0.1-26.1,0.1c-12.1-0.4-51.5-0.2-93.2-0.1c-13.5,0-27.2,0.1-40,0.1l0.2-126h134.2V254.8
	H187.6V127h134.2l0.5-119c32.6,0.2,61.5,0.6,73.2,1.2c31.4,1.5,62,46.9,62,72.4v24.6c0.1,35.5,0.1,93.4,0.1,149.4v0
	c0.1,31.3,0.1,63,0.1,91V379.1z"/>
</svg>
