<?xml version="1.0" encoding="utf-8"?>
<!-- Generator: Adobe Illustrator 28.2.0, SVG Export Plug-In . SVG Version: 6.00 Build 0)  -->
<svg version="1.1" id="Layer_1" xmlns="http://www.w3.org/2000/svg" xmlns:xlink="http://www.w3.org/1999/xlink" x="0px" y="0px"
	 viewBox="0 0 512 512" style="enable-background:new 0 0 512 512;" xml:space="preserve">
<style type="text/css">
	.st0{fill-rule:evenodd;clip-rule:evenodd;fill:#FFFFFF;}
</style>
<path class="st0" d="M416.7,216.3l46.4-33.7c3.9-2.8,6.2-7.3,6.2-12.1l-0.1-85.2V0h-85.3h-256L42.6,85.3v341.3V512h85.3h86.4
	c6.5,0,12.2-4.2,14.2-10.3l15.4-47.5c1.5-4.5,5-8.1,9.6-9.6l11.9-3.9c4.5-1.5,9.5-0.7,13.4,2.1l40.4,29.4c5.2,3.8,12.3,3.8,17.6,0
	l36.2-26.3c5.2-3.8,7.4-10.5,5.4-16.7l-15.4-47.5c-1.5-4.5-0.7-9.5,2.1-13.4l7.3-10.1c2.8-3.9,7.3-6.2,12.1-6.2h50
	c6.5,0,12.2-4.2,14.2-10.3l13.8-42.6c2-6.2-0.2-12.9-5.4-16.7L416.7,253c-3.9-2.8-6.2-7.3-6.2-12.1v-12.5
	C410.5,223.6,412.8,219.1,416.7,216.3z M383.9,170.7H213.2v64h85.3V320h-85.3v106.7h-85.3v-85.4v-256h170.7h85.3V170.7z"/>
</svg>
