<svg xmlns="http://www.w3.org/2000/svg" xml:space="preserve" viewBox="0 0 512 512"><path d="M494.2 176.1c-12.8-53.7-42.5-96.1-87-128C352.9 9 291.8-5.5 225.6 1.8 166.8 8.3 115.8 32 74.2 74.3 37.2 111.9 15.8 157.1 13 210c-3.2 61.4 17.6 114.5 60.6 157.9 59 59.5 131.6 81.5 214.1 73.3 3-.3 6-.7 9.4-1.1V512c1.4-.4 2-.5 2.7-.8 57.4-20.9 105.8-54.5 143.1-103.1 31.8-41.3 50.8-87.9 55.3-140.1 1.1-12.6.5-25.3 1-37.9.7-18.2-.7-36.3-5-54" style="fill:#019d9d"/><path d="M255.5 377.3c-33.8-.5-64.4-11.3-92.9-28.6-22.3-13.5-42.8-29.1-58.2-50.5-7.1-9.9-12.7-20.6-16.1-32.3-4.5-15.4-2.3-29.8 7.1-42.9 9.8-13.9 22.8-24.6 36.8-33.7 6.8-4.4 9.5-9 9.1-17.1-.6-12.3 2.1-24.3 6.7-35.8 11.9-29.5 39.1-46.1 71-43.6 10.8.9 21.1 3.4 30.4 9 2.6 1.6 4 .4 5.9-.9 26.6-18 64.3-16.1 88.5 4.5 15.7 13.4 23.2 31.1 25.8 51.1 1 7.9 1.1 16 1.2 24 0 3.2 1 5 3.6 6.9 12.9 9.7 26.1 19.1 38.2 29.8 14.1 12.3 16.4 25.7 9.3 43-26.9 65.7-76.6 102.5-145.5 115.2-6.8 1.2-13.9 1.2-20.9 1.9m2.7-251.1c-10.5-13.3-24.2-18.7-40.3-18.5-25.5.5-42.6 14.7-49 40-3.1 12.3-2.7 24.8-2.6 37.3 0 2.8-.8 4.5-3.3 6.1-8.6 5.7-17.3 11.2-25.2 17.6-7 5.7-13.6 12.2-19.6 19-7.4 8.4-8.6 18.3-5.1 28.9 3.8 11.4 9.5 21.7 17.4 30.6 24.7 27.9 55.2 47.2 90.7 58.3 24 7.5 48.3 8.1 72.8 1.5 55.2-14.8 94.1-48 115.1-101.6 2.6-6.7 1.6-12.4-3.5-17.3-3.4-3.3-6.9-6.7-10.7-9.5-11.9-8.8-23.8-17.4-35.9-25.9-2.5-1.8-3.3-3.5-3.4-6.5-.5-12.9.1-26-2.2-38.6-6-33.2-35.5-51.1-67.5-42-11.5 3.5-20.5 10.4-27.7 20.6" style="fill:#fafcfc"/><path d="M315.7 323.6c-33.5 15.5-67.6 17.5-102.1 3.7-24.9-10-47-24.5-66.1-43.4-7.9-7.9-13.8-17.2-18.5-27.4-4.3-9.3-2.3-16.9 4.7-24 12.2-12.3 26.1-22.2 41-30.7 5.2-3 7.1-6.1 6.9-12.1-.3-10.9-.4-22 1-32.8 1.7-13.5 7.1-25.7 21-31.3 14.3-5.8 33.8-3.7 43.6 11.4 5.9 9.1 16.5 9.1 22.2-.3 5.5-8.9 12.8-15 23.1-16.8 21.9-3.8 39.2 4.6 45.3 27.1 1.6 5.9 2.2 12.1 2.5 18.2.4 9.8.2 19.7.1 29.5 0 2.8.8 4.9 3.2 6.4.3.3.7.6 1 .9.3.7.6 1.6 1 2.2 5.9 8.2 12.1 16.1 17.5 24.6 4.3 6.8 8.1 13.7 5.2 22.7-6 18.6-13.2 36.4-27.7 50.2-7.7 7.3-15.9 14.1-23.9 21.1-.4.2-.7.5-1 .8m13.7-85.9c-3.2 7.8-8.5 13.3-14.7 17.5-14.7 10-31.5 11.9-48.8 10.5-5-.4-10-1.5-15-2-3.9-.4-6.5 2.3-5 5.5.6 1.3 2.7 2.9 4.1 2.8 9.3 0 13.5 6 17.7 13.2 6.5 11.4 14.4 21.9 25.7 29 5.5 3.4 11.3 5.5 18 3.1 10-3.7 15.5-11.7 19.5-21 5.2-12.4 7.1-25.6 7.8-39 .2-3.9.6-7.9.9-11.8.3-.1.7-.2 1-.3 1.8 2.6 3.8 5.1 5.3 7.9 1.6 2.8 3.9 4 6.6 2.5 2.6-1.5 2.8-4.3 1-6.6-3.6-4.8-7.1-9.8-11.4-13.9-4.5-4.4-10.3-6.8-16.8-6.9-2.9 0-5.1 1-5.2 4.2-.1 2.9 1.9 4.1 4.6 4.4 1.5 0 2.9.5 4.7.9M293 207.2h9.3c5.5 0 7.5-1.8 7.4-7.2-.1-8.3-.2-16.6-.7-24.8-.5-8.8-5.9-14-14.5-14.4-9.3-.4-15.7 4.1-16.6 13-.9 9.3-.8 18.8-.8 28.2 0 3.4 2.1 5.4 5.7 5.3 3.4-.2 6.8-.2 10.2-.1M213.3 191h.3v9.7c0 4.9 1.4 6.3 6.2 6.4h14.8c5.9 0 7.4-1.1 7.5-7 .1-7.4-.2-14.9-.7-22.3-.5-6.4-5-10.9-10.6-11.3-10-.7-14.8 2-16.4 9.8-.8 4.8-.7 9.8-1.1 14.7" style="fill:#4eb47f"/><path d="M316.6 322.8c8-7 16.2-13.7 23.9-21.1 14.5-13.8 21.7-31.6 27.7-50.2 2.9-9-.8-16-5.2-22.7-5.4-8.5-11.7-16.4-17.5-24.6-.5-.7-.7-1.5-1-2.2 7.1 4.5 14.4 8.6 21.2 13.5 8.9 6.4 17.3 13.3 26 20 2.5 1.9 3.9 3.9 2.4 7.4-8.2 19.4-19 37-34 51.8-11.8 11.6-25.5 20.7-40.6 27.4-.9.4-1.9.5-2.9.7" style="fill:#019c9b"/><path d="M329.4 237.7c-1.8-.4-3.3-.9-4.7-1-2.8-.2-4.7-1.5-4.6-4.4.1-3.2 2.3-4.2 5.2-4.2 6.5.1 12.3 2.5 16.8 6.9 4.3 4.2 7.8 9.2 11.4 13.9 1.8 2.3 1.6 5.1-1 6.6-2.7 1.5-5 .4-6.6-2.5-1.6-2.7-3.5-5.3-5.3-7.9-.3.1-.7.2-1 .3-.3 3.9-.7 7.9-.9 11.8-.7 13.4-2.5 26.5-7.8 39-3.9 9.3-9.4 17.2-19.5 21-6.6 2.5-12.5.4-18-3.1-11.4-7.1-19.2-17.7-25.7-29-4.2-7.3-8.3-13.2-17.7-13.2-1.4 0-3.5-1.5-4.1-2.8-1.5-3.2 1.1-5.9 5-5.5 5 .6 10 1.6 15 2 17.3 1.4 34-.5 48.8-10.5 6.3-4.2 11.5-9.7 14.7-17.4m-2.1 40.8c-7.8-.8-14.3 2-15.9 7.2-.8 2.6-2.3 3.5-4.4 4.4-4.9 2-9.3 4.7-11.9 9.6-1.5 2.8-1.2 4.8 1.7 6.7 7.4 4.8 13.1 4.4 19.1-2 6.8-7.3 9.3-16.5 11.4-25.9m-25.1-71.4c5.5 0 7.5-1.8 7.4-7.2-.1-8.3-.2-16.6-.7-24.8-.5-8.8-5.9-14-14.5-14.4-9.3-.4-15.7 4.1-16.6 13-.9 9.3-.8 18.8-.8 28.2 0 3.4 2.1 5.4 5.7 5.3 3.4-.1 6.7 0 10.1 0 3.3 0 6.4 0 9.4-.1M213.6 191v9.7c0 4.9 1.4 6.3 6.2 6.4h14.8c5.9 0 7.4-1.1 7.5-7 .1-7.4-.2-14.9-.7-22.3-.5-6.4-5-10.9-10.6-11.3-10-.7-14.8 2-16.4 9.8-.9 4.8-.8 9.8-1.2 14.6.2.1.3.1.4.1m44.6-64.8c7.2-10.2 16.3-17.1 27.8-20.4 32-9.1 61.5 8.8 67.5 42 2.3 12.6 1.7 25.7 2.2 38.6.1 3 .9 4.7 3.4 6.5 12.1 8.5 24.1 17.1 35.9 25.9 3.8 2.8 7.3 6.2 10.7 9.5 5.1 4.9 6.1 10.6 3.5 17.3-21.1 53.5-59.9 86.8-115.1 101.6-24.5 6.5-48.8 6-72.8-1.5-35.5-11.1-66-30.4-90.7-58.3-7.9-8.9-13.6-19.2-17.4-30.6-3.5-10.6-2.3-20.5 5.1-28.9 6-6.8 12.5-13.3 19.6-19 7.9-6.4 16.6-12 25.2-17.6 2.4-1.6 3.3-3.2 3.3-6.1-.1-12.5-.5-25 2.6-37.3 6.4-25.3 23.6-39.6 49-40 16-.5 29.6 5 40.2 18.3m86.3 75.8c-.3-.3-.7-.6-1-.9-2.4-1.4-3.2-3.5-3.2-6.4.1-9.8.3-19.7-.1-29.5-.3-6.1-.9-12.4-2.5-18.2-6.1-22.5-23.4-31-45.3-27.1-10.2 1.8-17.6 8-23.1 16.8-5.8 9.4-16.3 9.4-22.2.3-9.8-15.1-29.4-17.2-43.6-11.4-13.9 5.6-19.2 17.8-21 31.3-1.4 10.8-1.3 21.9-1 32.8.2 6-1.7 9.2-6.9 12.1-14.9 8.5-28.8 18.4-41 30.7-7 7.1-9.1 14.7-4.7 24 4.7 10.2 10.6 19.6 18.5 27.4 19.1 18.9 41.2 33.4 66.1 43.4 34.5 13.8 68.6 11.8 102.1-3.7.3-.3.6-.5 1-.8.9-.2 2-.3 2.8-.7 15.2-6.8 28.8-15.8 40.6-27.4 15-14.8 25.8-32.4 34-51.8 1.5-3.6.1-5.5-2.4-7.4-8.7-6.7-17.1-13.6-26-20-6.7-4.9-14.1-9-21.1-13.5" style="fill:#115b59"/><path d="M327.3 278.5c-2.1 9.4-4.6 18.5-11.4 25.8-6.1 6.5-11.7 6.8-19.1 2-2.9-1.9-3.2-3.9-1.7-6.7 2.6-4.9 7.1-7.5 11.9-9.6 2.2-.9 3.6-1.8 4.4-4.4 1.6-5.1 8.1-7.9 15.9-7.1" style="fill:#ec9f5e"/></svg>