<svg xmlns="http://www.w3.org/2000/svg" xml:space="preserve" viewBox="0 0 512 512"><path d="M465.6 255.6c0-56 0-114-.1-149.4V81.6c0-14.3-8.2-33.9-21-50.1C430 13.1 412.3 2.1 395.9 1.3 384 .6 355 .3 322.3.2 261.6-.2 188.1.1 187 .1h-4.1c-31.4.2-59 .5-70.6 1-34 1.8-65.8 50.1-65.8 77.7v23.7c-.1 36.2-.2 95-.1 153.2v128.8h.1c0 9.1 0 17.5.1 24.9v23.7c0 27.5 32.7 76.8 66.6 78.6 7 .3 18.8.3 33.8.2h40.3c12.8 0 26.5-.1 40.1-.1 39.9-.1 81.1-.3 93 .1h.2c9.2-.1 17.9-.1 26.1-.1 22.3-.1 40-.1 49.2-.6 16.4-.8 34.1-11.8 48.6-30.2 12.8-16.2 21-35.9 21-50.1V387h.1v-40.3c.1-28 .1-59.7 0-91.1m-7.9 123.5h-.1v3.9c0 4.5 0 8.8-.1 12.9v34.9c0 25.5-30.6 70.9-62 72.4-9 .4-26.5.5-48.8.6-8.2 0-16.9.1-26.1.1-12.1-.4-51.5-.2-93.2-.1-13.5 0-27.2.1-40 .1l.2-126h134.2V254.8H187.6V127h134.2l.5-119c32.6.2 61.5.6 73.2 1.2 31.4 1.5 62 46.9 62 72.4v24.6c.1 35.5.1 93.4.1 149.4.1 31.3.1 63 .1 91z" style="fill:#fff"/></svg>