<svg xmlns="http://www.w3.org/2000/svg" xml:space="preserve" viewBox="0 0 512 512"><path d="M474.9 361c-21.2 0-39.5-14.4-44.8-34.2 13.5 4.8 27.5 7.7 42.4 7.7 21.2 0 38-16.9 38-38 0-21.2-16.9-38-38-38-25.5 0-47.7-20.7-47.7-46.2v-39.5c0-93.4-75.6-169.5-169.5-169.5-93.4 0-169.5 75.6-169.5 169.5v39.5c0 25.5-22.2 46.2-47.7 46.2-21.2 0-38 16.9-38 38 0 21.2 16.9 38 38 38 16.9 0 32.8-3.4 47.2-9.6C80.4 345.6 62.1 361 40 361c-21.2 0-38 16.9-38 38s16.9 38 38 38c33.2 0 63.6-13.5 85.7-35.2V452c0 21.2 16.9 38 38 38s38-16.9 38-38v-71.3h14.9v90.1c0 21.2 16.9 38 38 38s38-16.9 38-38v-90.1h14.9V452c0 21.2 16.9 38 38 38s38-16.9 38-38v-54.9c22.6 24.6 54.4 39.5 90.1 39.5 21.2 0 38-16.9 38-38 1.3-20.8-16-37.6-36.7-37.6" style="fill:#00a6e2"/><circle cx="252.4" cy="184.2" r="84.3" style="fill:#fff"/><path d="M294.2 152.5c-31.6-8.4-63.6 10.5-71.9 41.7s10.5 63.6 41.7 71.9c1.4.4 2.7.7 4.1 1 35.6-6.7 63.4-35.9 68-72.2-5.2-20-20.7-36.8-41.9-42.4" style="fill:#303030"/></svg>