<svg xmlns="http://www.w3.org/2000/svg" xml:space="preserve" viewBox="0 0 512 512"><path d="M463.3 255.6c0-57.7 0-115.8-.1-151.9v-25c0-27.5-31.8-75.9-65.8-77.6-34-1.8-208.2-.9-208.2-.9C250.3-.2 323.6 0 323.6 0l-.1 127.1H189.4V255h134.1v123.2H189.4V509h-.2v3c51-.1 117.2-.6 133.1-.1 33.9-.2 62.7-.1 75.1-.7 33.9-1.7 65.8-50.1 65.8-77.6v-24.7c0-7.1.1-15.2.1-23.9h.1v-36.9c0-28.6 0-60.7-.1-92.5" style="fill:#5b738c"/><path d="M189.8 378.2h134.1V254.9H189.8V127.1h134.1l.4-127S149.2-.3 114.5 1.4C80.6 3.1 48.7 51.4 48.7 79v23.7c-.1 36.1-.2 95-.1 153.2v128.7h.1c0 9.1 0 17.5.1 24.9v23.7c0 27.5 33 76.8 67 78.5 12.4.6 40 0 73.8.3" style="fill:#0d151f"/></svg>