<?xml version="1.0" encoding="utf-8"?>
<!-- Generator: Adobe Illustrator 28.2.0, SVG Export Plug-In . SVG Version: 6.00 Build 0)  -->
<svg version="1.1" id="Layer_1" xmlns="http://www.w3.org/2000/svg" xmlns:xlink="http://www.w3.org/1999/xlink" x="0px" y="0px"
	 viewBox="0 0 512 512" style="enable-background:new 0 0 512 512;" xml:space="preserve">
<style type="text/css">
	.st0{fill-rule:evenodd;clip-rule:evenodd;fill:#418FDE;}
	.st1{fill-rule:evenodd;clip-rule:evenodd;fill:#FF585D;}
	.st2{fill-rule:evenodd;clip-rule:evenodd;fill:#CB333B;}
	.st3{fill-rule:evenodd;clip-rule:evenodd;fill:#FFFFFF;}
</style>
<path id="path8-4-4" class="st0" d="M469.3,85.3L384,170.7H213.3v64h85.3V320h-85.3v106.7L128,512h86.4c6.5,0,12.2-4.2,14.2-10.3
	l15.4-47.5c1.5-4.5,5-8.1,9.6-9.6l11.9-3.9c4.5-1.5,9.5-0.7,13.4,2.1l40.4,29.4c5.2,3.8,12.3,3.8,17.6,0l36.2-26.3
	c5.2-3.8,7.4-10.5,5.4-16.7l-15.4-47.5c-1.5-4.5-0.7-9.5,2.1-13.4l7.3-10.1c2.8-3.9,7.3-6.2,12.1-6.2h50c6.5,0,12.2-4.2,14.2-10.3
	l13.8-42.6c2-6.2-0.2-12.9-5.4-16.7L416.8,253c-3.9-2.8-6.2-7.3-6.2-12.1v-12.5c0-4.8,2.3-9.3,6.2-12.1l46.4-33.7
	c3.9-2.8,6.2-7.3,6.2-12.1V85.3H469.3z"/>
<path id="path7-7-2" class="st1" d="M384,0l-85.3,85.3H384v85.3l85.3-85.3V0H384z M128,341.3l-85.3,85.3V512H128l85.3-85.3H128
	V341.3z"/>
<path id="path3-1-7" class="st2" d="M128,0L42.7,85.3v341.3l85.3-85.3v-256h170.7L384,0H128z"/>
<path id="path9-4-0" class="st3" d="M128,426.7h85.3V320h85.3v-85.3h-85.3v-64H384V85.3H128V426.7z"/>
</svg>
