<?xml version="1.0" encoding="utf-8"?>
<!-- Generator: Adobe Illustrator 28.2.0, SVG Export Plug-In . SVG Version: 6.00 Build 0)  -->
<svg version="1.1" id="Layer_1" xmlns="http://www.w3.org/2000/svg" xmlns:xlink="http://www.w3.org/1999/xlink" x="0px" y="0px"
	 viewBox="0 0 512 512" style="enable-background:new 0 0 512 512;" xml:space="preserve">
<style type="text/css">
	.st0{fill:#5B738C;}
	.st1{fill:#0D151F;}
</style>
<g>
	<path class="st0" d="M463.3,255.6c0-57.7,0-115.8-0.1-151.9c0-13.6,0-22.7,0-25c0-27.5-31.8-75.9-65.8-77.6
		c-34-1.8-208.2-0.9-208.2-0.9l0,0c61.1-0.4,134.4-0.2,134.4-0.2l-0.1,127.1H189.4V255h134.1v123.2H189.4V509c-0.1,0-0.1,0-0.2,0v3
		c51-0.1,117.2-0.6,133.1-0.1c33.9-0.2,62.7-0.1,75.1-0.7c33.9-1.7,65.8-50.1,65.8-77.6c0-2.3,0-11.2,0-24.7
		c0-7.1,0.1-15.2,0.1-23.9h0.1v-36.9C463.4,319.5,463.4,287.4,463.3,255.6z"/>
	<path class="st1" d="M189.8,378.2h134.1V254.9H189.8V127.1h134.1l0.4-127c0,0-175.1-0.4-209.8,1.3C80.6,3.1,48.7,51.4,48.7,79
		c0,2.3,0,10.8,0,23.7c-0.1,36.1-0.2,95-0.1,153.2c0,31.7,0,63.6,0,92v36.7h0.1c0,9.1,0,17.5,0.1,24.9c0,12.9,0,21.4,0,23.7
		c0,27.5,33,76.8,67,78.5c12.4,0.6,40,0,73.8,0.3"/>
</g>
</svg>
