<svg xmlns="http://www.w3.org/2000/svg" xml:space="preserve" viewBox="0 0 512 512"><path d="m69.3 509.7-3.7-1.3c-4.4-1.5-8.5-3.1-12.6-5-9-4-20.2-11.1-24.7-15.6C23 482.5 5.9 465.5 0 455.7c0 0 .9-267.8.8-387.2C4.1 54 13.5 41.4 20.6 31.4c12.5-12.2 32.2-28 40.3-30 0 0 264.4-.3 382.9-1.2 17.4 6.9 32.1 18.1 43.3 28.5 10.1 8.3 15 20.5 20.3 31.1 1.6 131.9 5.8 264.6 4.1 370.5-7 38.8-28.5 62.3-60.9 76.2-1.9.5-5.7 1.4-8.4 2-128.2 5.2-261.5 3.2-372.9 1.2M433 487.8c15.6-1.6 26.7-9.9 36.9-18.1 7.5-7.4 18-17.9 20-26.4 5.8-128.7-.1-256.7-.7-374.3-2-5.5-6.4-13-11.3-19.2-11.7-15.4-30.9-23-45.8-28.9-34.3-2.4-55.7-2.1-84-2.5 0 45.2.2 90.4-.2 135.6-52.7.8-105.6.9-163.6 1.6-.1 34.9-.1 61.4-.1 99 54.1.4 108.3.9 162.3 2.1 1.7 40.8 2.5 80.9.6 121.2-57.3 1.1-102 1.6-162.9 2.6 0 38.6-.3 68.9.3 109.7 86.9-1.6 172.9 1 248.5-2.4" style="fill:#f7c130"/></svg>