<svg xmlns="http://www.w3.org/2000/svg" xml:space="preserve" viewBox="0 0 512 512"><path d="M389.2 512h-30.7c-11.3 0-20.5-9.2-20.5-20.5v-10.2H174.1v10.2c0 11.3-9.2 20.5-20.5 20.5h-30.7c-11.3 0-20.5-9.2-20.5-20.5v-10.2c-16.9 0-30.7-13.8-30.7-30.7V30.7C71.7 13.8 85.5 0 102.4 0h307.2c16.9 0 30.7 13.8 30.7 30.7v419.9c0 16.9-13.8 30.7-30.7 30.7v10.2c.2 11.3-9.2 20.5-20.4 20.5m-30.7-30.7v10.2h30.7v-10.2zm-235.6 0v10.2h30.7v-10.2zM92.2 204.8v245.8c0 5.6 4.6 10.2 10.2 10.2h307.2c5.6 0 10.2-4.6 10.2-10.2V204.8zm0-20.5h327.7V30.7c0-5.6-4.6-10.2-10.2-10.2H102.4c-5.6 0-10.2 4.6-10.2 10.2zm51.2 143.4c-5.6 0-10.2-4.6-10.2-10.2v-71.7c0-5.6 4.6-10.2 10.2-10.2s10.2 4.6 10.2 10.2v71.7c0 5.7-4.6 10.2-10.2 10.2m0-174.2c-5.6 0-10.2-4.6-10.2-10.2V71.6c0-5.6 4.6-10.2 10.2-10.2s10.2 4.6 10.2 10.2v71.7c0 5.7-4.6 10.2-10.2 10.2M256.1 256c-38.3 0-69.3 31-69.3 69.3s31 69.3 69.3 69.3 69.3-31 69.3-69.3-31-69.3-69.3-69.3m5.1 88.8-21.4 21.4c-3 3-7.9 3-10.9 0L215 352.3c-3-3-3-7.9 0-10.9l21.4-21.4c3-3 7.9-3 10.9 0l2.7 2.6-5.9 5.9c-1.7-1.4-4.3-1.3-5.9.3l-14.1 14.1c-1.7 1.7-1.7 4.6 0 6.3l8 8.2c1.7 1.7 4.6 1.7 6.3 0l14.2-14.1c1.7-1.7 1.7-4.4 0-6.2l5.9-5.9 2.6 2.7c3.2 3 3.2 7.9.1 10.9m3.9-34.8c1.4-1.4 3.9-1.4 5.5 0l.7.7c1.4 1.4 1.4 3.9 0 5.5l-24.4 24.4c-1.4 1.4-3.9 1.4-5.5 0l-.7-.7c-1.4-1.4-1.4-3.9 0-5.5zm31.9-.8-21.4 21.4c-3 3-7.9 3-10.9 0l-2.7-2.7 6-6c1.7 1.6 4.4 1.6 6.2-.1l14.1-14.1c1.7-1.7 1.7-4.6 0-6.3l-8.2-8.2c-1.7-1.7-4.6-1.7-6.3 0l-14.1 14.1c-1.7 1.7-1.7 4.3-.3 6l-6 6-2.6-2.6c-3-3-3-7.9 0-10.9l21.4-21.4c3-3 7.9-3 10.9 0l13.9 13.9c3 3 3 7.8 0 10.9"/></svg>