<svg xmlns="http://www.w3.org/2000/svg" xml:space="preserve" id="frigoligo_svg__Layer_1" x="0" y="0" version="1.1" viewBox="0 0 512 512"><style>.frigoligo_svg__st0{fill:#fff}</style><path d="M348.2 481.3v10.2c0 5.6 4.6 10.2 10.2 10.2h30.7c5.6 0 10.2-4.6 10.2-10.2v-10.2m-286.6 0v10.2c0 5.6 4.6 10.2 10.2 10.2h30.7c5.6 0 10.2-4.6 10.2-10.2v-10.2m246-471.1H102.4c-11.3 0-20.5 9.2-20.5 20.5v419.9c0 11.3 9.2 20.5 20.5 20.5h307.2c11.3 0 20.5-9.2 20.5-20.5V30.7c0-11.3-9.1-20.5-20.3-20.5M82 194.6h348.1m-286.7-123v71.7m0 102.5v71.7" class="frigoligo_svg__st0"/><path d="M389.2 512h-30.7c-11.3 0-20.5-9.2-20.5-20.5v-10.2H174.1v10.2c0 11.3-9.2 20.5-20.5 20.5h-30.7c-11.3 0-20.5-9.2-20.5-20.5v-10.2c-16.9 0-30.7-13.8-30.7-30.7V30.7C71.7 13.8 85.5 0 102.4 0h307.2c16.9 0 30.7 13.8 30.7 30.7v419.9c0 16.9-13.8 30.7-30.7 30.7v10.2c.2 11.3-9.2 20.5-20.4 20.5m-30.7-30.7v10.2h30.7v-10.2zm-235.6 0v10.2h30.7v-10.2zM92.2 204.8v245.8c0 5.6 4.6 10.2 10.2 10.2h307.2c5.6 0 10.2-4.6 10.2-10.2V204.8zm0-20.5h327.7V30.7c0-5.6-4.6-10.2-10.2-10.2H102.4c-5.6 0-10.2 4.6-10.2 10.2zm51.2 143.4c-5.6 0-10.2-4.6-10.2-10.2v-71.7c0-5.6 4.6-10.2 10.2-10.2s10.2 4.6 10.2 10.2v71.7c0 5.7-4.6 10.2-10.2 10.2m0-174.2c-5.6 0-10.2-4.6-10.2-10.2V71.6c0-5.6 4.6-10.2 10.2-10.2s10.2 4.6 10.2 10.2v71.7c0 5.7-4.6 10.2-10.2 10.2"/><path d="M186.8 325.3c0-38.3 31-69.3 69.3-69.3s69.3 31 69.3 69.3-31 69.3-69.3 69.3-69.3-31-69.3-69.3" style="fill:#28a1c7"/><path d="M261.2 333.9c3 3 3 7.9 0 10.9l-21.4 21.4c-3 3-7.9 3-10.9 0L215 352.3c-3-3-3-7.9 0-10.9l21.4-21.4c3-3 7.9-3 10.9 0l2.7 2.6-5.9 5.9c-1.7-1.4-4.3-1.3-5.9.3l-14.1 14.1c-1.7 1.7-1.7 4.6 0 6.3l8 8.2c1.7 1.7 4.6 1.7 6.3 0l14.2-14.1c1.7-1.7 1.7-4.4 0-6.2l5.9-5.9zm35.8-35.6-14-13.9c-3-3-7.9-3-10.9 0l-21.4 21.4c-3 3-3 7.9 0 10.9l2.6 2.6 6-6c-1.4-1.7-1.4-4.3.3-6l14.1-14.1c1.7-1.7 4.6-1.7 6.3 0l8.2 8.2c1.7 1.7 1.7 4.6 0 6.3l-14.1 14.1c-1.7 1.7-4.4 1.7-6.2.1l-6 6 2.7 2.7c3 3 7.9 3 10.9 0l21.4-21.4c3.1-3.1 3.1-7.9.1-10.9m-25.7 17.8c1.4-1.6 1.4-4 0-5.5l-.7-.7c-1.6-1.4-4-1.4-5.5 0l-24.4 24.4c-1.4 1.6-1.4 4 0 5.5l.7.7c1.6 1.4 4 1.4 5.5 0z" class="frigoligo_svg__st0"/></svg>