<svg xmlns="http://www.w3.org/2000/svg" xml:space="preserve" viewBox="0 0 512 512"><path d="m404.7 268.1 19.8-35.9c-15-15.7-39.8-40.1-81.7-78.8-97.3-90.2-103.1-89.8-105.4-89.8-2.5 0-7.1-1.7-104 89.5-108.7 102.7-104.9 106-104.9 106S25 264.7 134.7 366c98.4 91 100.2 88.5 102.9 88.5s8.6 1.4 105.6-89.8c52.4-49.3 78.5-75.5 91.2-89.5zm0 0 19.8-35.9c-15-15.7-39.8-40.1-81.7-78.8-97.3-90.2-103.1-89.8-105.4-89.8-2.5 0-7.1-1.7-104 89.5-108.7 102.7-104.9 106-104.9 106S25 264.7 134.7 366c98.4 91 100.2 88.5 102.9 88.5s8.6 1.4 105.6-89.8c52.4-49.3 78.5-75.5 91.2-89.5z"/><path d="m404.7 268.1 16.9-30.9c-12.8-14.2-38.8-40.5-91.6-89.3C233.3 58.4 228 58 224.5 58s-6.8-1.9-104 89.5c-108.7 102.6-105 105.9-105 105.9s-3.3 5.6 106.3 106.9c97.7 90.4 100 88.5 102.9 88.5s8.6 1.5 105.6-89.8c49.9-47 75.7-73 89.1-87.5z" style="fill:#fae52c"/><path d="M224.3 449.5c-3.1 0-9.1-1.8-102.9-88.7C23.8 270.6 15.2 255.9 14.9 253.5v-.1c0-3.3 27.6-33 105.2-106.3 95.4-89.8 100.5-89.7 104.2-89.7h.2c3.8 0 8.5 0 105.8 90 44.2 40.8 75 70.9 91.7 89.4l.1.7-16.5 30.2 14 3.3.3 1c-16.9 18.3-46.9 47.8-89.2 87.5-95.7 90.1-102.6 90-105.9 90zm-208.2-196c.1.9 3.7 11.8 106.1 106.4 95.6 88.5 99.8 88.4 102.3 88.4h.3c2.7 0 9.7.1 105.1-89.7 41.6-39.2 71.4-68.4 88.4-86.8l-13.8-3.3-.4-.8 16.7-30.5c-16.7-18.5-47.4-48.4-91.3-89-96.9-89.7-101.8-89.7-105-89.7h-.2c-3.3 0-8.3-.1-103.4 89.4C20.2 243 16.2 252.6 16.1 253.4c0-.1 0-.2-.2-.4l.1.7c.1-.1.1-.2.1-.2" style="fill:#1a171b"/><path d="m201.9 309.4-24.2-28.3c15.8-12.8 19.5-22.7 18.7-34.2-.7-9.9-4.9-16.5-10.7-21.1-7.1-18-28.1-21.8-42.7-23.6-14-1.4-36.1-.6-51.1 0l-2.4.2.1-18.9h-8.3V173l-1.1-3s-39.6-.2-77.3 1.5l-2.9.3v143.4h14.7v7.3h37.5v-49.9h34.3V243h-8.3v-13.9l-26.6.2v-14.8H89v121h14v7.3h35.9v-51.9l29.3 48.5 2.7-2.3c1-.8 1.9-1.5 2.9-2.3l5.5 9.1c10.5-8.6 29.5-26.6 29.5-26.6-2.4-2.6-4.7-5.2-6.9-7.9m-63-49.5v-20.7h5.8c.7 1.5 1.2 3.3 1.2 5.3.1 5.6-2.9 10.8-7 15.4m349.1 2.4 18.4 23-18.8 15.2-5.1-6.3-7.1 5.8-14.6-18.2v29.3H361l3.7-7H344l46.6-90c-6.8.1-15.1.4-25.8.9v30h-35.1v97.3h-36.9v-7.1h-14.5v-90.1h-20.6v-6.6c-2.8.1-5.4.1-7.3.2v73.7h-36.3v-7.1h-14.6l-.2-106.5 15-3.7-4.8-19.2h32.6v13.4l8.3-.1v11.2h103.2v-30.8h1.9c12.3 0 48-.6 96.5 2.1l5.4.4-6.7 12.4c4.3.2 8.8.4 13.4.7L420 267c8 0 17.4-.2 28.4-1l3.9-.2V276h3.7l20.1-16.3-12.1-.4 4.2-70.6 36.7 2.9-1.2 8 8.4.7-9.6 62.5z"/><path d="M238.7 178.7v122.9h-36.3V201.1l15.7-3.7-4.8-18.6h25.4zM91.9 205.5c15.1-.6 36.9-1.7 50.7 0 17.5 2.1 40.5 6.7 42.3 31.3.8 11.7-3.1 21.7-19.6 34.9l32.2 37.6c-8.6 8.8-18.4 17.3-28.6 25.7l-38.2-63.5c8.3-6.4 18.4-15.9 18.4-27 0-10.7-10.1-15.7-13.6-15.7h-7.7v103.6H91.9zM281 331.9v-97.3l-35.1.8v-32.2H353v32.2l-35.1-.8v97.3zm75.5-127.5v-31.9c12.3 0 47.4-.6 95.9 2.1l-51.2 95c11.1.2 26.8.6 48-.8v31.9h-99.8l50.5-97.3c-11.5.2-25.3.2-43.4 1M78.2 192.7v11.5h-38V233l34.9-.2v29.7H40.5v49.9H3.2V175l74.9-1.4v19.1zm389.1 63.5 24.2.8 9.6-62.5-29.9-2.5zm-6.9 20.2 18.8-15.2 15.5 19-19 15.2z" style="fill-rule:evenodd;clip-rule:evenodd;fill:#e2001a"/></svg>