<?xml version="1.0" encoding="utf-8"?>
<!-- Generator: Adobe Illustrator 28.2.0, SVG Export Plug-In . SVG Version: 6.00 Build 0)  -->
<svg version="1.1"
	 id="Calque_1" xmlns:dc="http://purl.org/dc/elements/1.1/" xmlns:rdf="http://www.w3.org/1999/02/22-rdf-syntax-ns#" xmlns:cc="http://creativecommons.org/ns#" xmlns:svg="http://www.w3.org/2000/svg" xmlns:sodipodi="http://sodipodi.sourceforge.net/DTD/sodipodi-0.dtd" xmlns:inkscape="http://www.inkscape.org/namespaces/inkscape" inkscape:export-filename="/home/lx/Deuxfleurs/garage/doc/logo/garage.png" inkscape:version="1.0.2 (e86c870879, 2021-01-15)"
	 xmlns="http://www.w3.org/2000/svg" xmlns:xlink="http://www.w3.org/1999/xlink" x="0px" y="0px" viewBox="0 0 512 512"
	 style="enable-background:new 0 0 512 512;" xml:space="preserve">
<style type="text/css">
	.st0{fill:#FF9329;}
	.st1{fill:#4E4E4E;}
</style>
<path class="st0" d="M0.7,197.6c-1.7-4.1,0.2-9.1,4.4-10.8L233,85.9c7.2-3.1,14.7-4.8,22.4-4.8c8,0,16.1,1.5,23.8,4.8l227.9,100.9
	c3.2,1.4,5.3,4.6,5.1,8.2c0,1,0,1.9-0.3,2.7v0.2l-0.3,0.9l-0.3,0.7l-15.2,30l-216.9-96c-7.7-3.1-15.7-4.6-23.8-4.6
	c-7.7,0-15.2,1.7-22.4,4.8L16.6,229.4L1.2,198.6c-0.2-0.2-0.3-0.5-0.3-0.9C0.7,197.7,0.7,197.6,0.7,197.6z M506.5,283.1L278.5,182.2
	c-14.5-6.5-31.3-6.5-45.8,0L4.8,283.1c0,0.2-0.2,0.2-0.2,0.2c-4.1,1.9-6,6.8-4.1,10.9c0,0.3,0.2,0.5,0.3,0.9l55.6,109.8
	c7.7,15,21.9,14.7,19.5-0.7l-11.1-62.1c-0.3-2.1-3.8-16.4-6.8-26.8l106.7,33.3c23.4,110.5,166.2,108.6,183,0l106.5-33.2
	c-3.2,10.3-6.5,24.6-6.8,26.7l-11.1,62.1c-2.2,15.4,11.8,15.9,19.5,0.7l55.2-109.1l0.3-0.7l0,0l0.3-0.9V294c0.3-0.9,0.3-1.9,0.3-2.7
	C512.3,287.9,510.2,284.4,506.5,283.1z"/>
<path class="st1" d="M0.7,245.3c-1.7-4.1,0.2-9.1,4.4-10.8L233,133.6c7.2-3.1,14.7-4.8,22.4-4.8c8,0,16.1,1.5,23.8,4.6l227.9,100.9
	c3.2,1.4,5.3,4.6,5.1,8.2c0,1,0,1.9-0.3,2.7v0.2l-0.3,0.9l-0.3,0.7l-15.8,31.2l-216.9-96c-14.5-6.5-31.3-6.5-45.8,0L17,277.6
	L1.2,246.3c-0.2-0.2-0.3-0.5-0.3-0.9C0.7,245.4,0.7,245.3,0.7,245.3z M429.7,265.3c-0.3-1-1.2-1.9-2.4-2.4
	c-11.5-4.8-25.6-10.3-39.5-16.1c-2.6-1-26.7,16.2-28.9,18l-34.3,27.8c-1.6-1.9-3.3-3.8-5.1-5.6c-34.3-34.3-90-34.3-124.3,0
	c-34.3,34.3-34.3,90,0,124.3s90,34.3,124.3,0c28-28,33.1-70.1,15.5-103.3l92.3-37.2C429.5,269.9,430.5,267.5,429.7,265.3z"/>
</svg>
