<svg xmlns="http://www.w3.org/2000/svg" xml:space="preserve" id="geopulse-dark_svg__Layer_1" x="0" y="0" version="1.1" viewBox="0 0 512 512"><style>.geopulse-dark_svg__st0{opacity:.6;enable-background:new}.geopulse-dark_svg__st1{enable-background:new;opacity:.8}</style><path d="M256 512C114.8 512 0 397.2 0 256S114.8 0 256 0s256 114.8 256 256-114.8 256-256 256m0-500.9C121 11.1 11.1 121 11.1 256S121 500.9 256 500.9 500.9 391 500.9 256 391 11.1 256 11.1" class="geopulse-dark_svg__st0"/><path d="M256 456.3c-110.5 0-200.3-89.9-200.3-200.3S145.5 55.7 256 55.7 456.3 145.5 456.3 256 366.5 456.3 256 456.3m0-389.5C151.7 66.8 66.8 151.7 66.8 256S151.7 445.2 256 445.2 445.2 360.3 445.2 256 360.3 66.8 256 66.8" class="geopulse-dark_svg__st1"/><radialGradient id="geopulse-dark_svg__SVGID_1_" cx="256" cy="311.652" r="194.783" fx="430.114" fy="398.97" gradientUnits="userSpaceOnUse"><stop offset="0" style="stop-color:#000;stop-opacity:.9"/><stop offset=".5" style="stop-color:#000;stop-opacity:.8"/><stop offset="1" style="stop-color:#000"/></radialGradient><path d="M256 116.9c-76.8 0-139.1 62.3-139.1 139.1S179.2 395.1 256 395.1 395.1 332.8 395.1 256 332.8 116.9 256 116.9m0 222.6s-55.7-72.3-55.7-111.3c0-27.8 27.8-55.7 55.7-55.7s55.7 27.8 55.7 55.7c0 38.9-55.7 111.3-55.7 111.3" style="fill:url(#geopulse-dark_svg__SVGID_1_)"/><circle cx="256" cy="228.2" r="22.3"/><path d="M61.2 459.1c-2.1 0-4.3-.8-5.9-2.4-3.3-3.3-3.3-8.5 0-11.8 39.7-39.8 80.4-49.6 120.9-29.4 33.8 16.9 67.1 8.3 101.7-26.3 18.1-18.1 36.8-26.3 55.7-24.5 23.6 2.3 46 19.9 68.5 53.5 2.6 3.8 1.5 9-2.3 11.6s-9 1.5-11.6-2.3C369 398.6 350 383.1 332 381.3c-13.6-1.4-27.8 5.3-42.2 19.6-39.8 39.8-80.4 49.6-120.9 29.4-33.8-16.9-67.1-8.3-101.7 26.3-1.7 1.7-3.8 2.5-6 2.5" class="geopulse-dark_svg__st0"/><path d="M89 423c6.1 0 11.1 5 11.1 11.1s-5 11.1-11.1 11.1-11.1-5-11.1-11.1c0-6.2 5-11.1 11.1-11.1m222.7-27.9c6.1 0 11.1 5 11.1 11.1s-5 11.1-11.1 11.1-11.1-5-11.1-11.1 4.9-11.1 11.1-11.1m-111.4 5.6c6.1 0 11.1 5 11.1 11.1s-5 11.1-11.1 11.1-11.1-5-11.1-11.1 5-11.1 11.1-11.1m194.8 11.1c6.1 0 11.1 5 11.1 11.1s-5 11.1-11.1 11.1-11.1-5-11.1-11.1 5-11.1 11.1-11.1" class="geopulse-dark_svg__st1"/></svg>