<svg xmlns="http://www.w3.org/2000/svg" xml:space="preserve" id="geopulse_svg__Layer_1" x="0" y="0" version="1.1" viewBox="0 0 512 512"><style>.geopulse_svg__st5{opacity:.6;fill:#1a56db;enable-background:new}</style><radialGradient id="geopulse_svg__SVGID_1_" cx="-692.511" cy="791.178" r=".948" gradientTransform="matrix(90 0 0 -90 62582 71462)" gradientUnits="userSpaceOnUse"><stop offset="0" style="stop-color:#3b82f6;stop-opacity:.6"/><stop offset=".7" style="stop-color:#1a56db;stop-opacity:.3"/><stop offset="1" style="stop-color:#1a56db;stop-opacity:.1"/></radialGradient><path d="M256 512C114.8 512 0 397.2 0 256S114.8 0 256 0s256 114.8 256 256-114.8 256-256 256m0-500.9C121 11.1 11.1 121 11.1 256S121 500.9 256 500.9 500.9 391 500.9 256 391 11.1 256 11.1" style="opacity:.6;fill:url(#geopulse_svg__SVGID_1_)"/><radialGradient id="geopulse_svg__SVGID_00000170267690997203389700000018406804957501135798_" cx="-689.657" cy="789.657" r=".954" gradientTransform="matrix(70 0 0 -70 48532 55532)" gradientUnits="userSpaceOnUse"><stop offset="0" style="stop-color:#3b82f6;stop-opacity:.6"/><stop offset=".7" style="stop-color:#1a56db;stop-opacity:.3"/><stop offset="1" style="stop-color:#1a56db;stop-opacity:.1"/></radialGradient><path d="M256 456.3c-110.5 0-200.3-89.9-200.3-200.3S145.5 55.7 256 55.7 456.3 145.5 456.3 256 366.5 456.3 256 456.3m0-389.5C151.7 66.8 66.8 151.7 66.8 256S151.7 445.2 256 445.2 445.2 360.3 445.2 256 360.3 66.8 256 66.8" style="opacity:.8;fill:url(#geopulse_svg__SVGID_00000170267690997203389700000018406804957501135798_)"/><radialGradient id="geopulse_svg__SVGID_00000003807724070922746190000015715492411512045489_" cx="-684.52" cy="788.033" r="3.896" gradientTransform="matrix(50 0 0 -50 34482 39602)" gradientUnits="userSpaceOnUse"><stop offset="0" style="stop-color:#3b82f6;stop-opacity:.9"/><stop offset=".5" style="stop-color:#1a56db;stop-opacity:.8"/><stop offset="1" style="stop-color:#1e40af"/></radialGradient><circle cx="256" cy="256" r="139.1" style="fill:url(#geopulse_svg__SVGID_00000003807724070922746190000015715492411512045489_)"/><path d="M256 172.5c27.8 0 55.7 27.8 55.7 55.7 0 39-55.7 111.3-55.7 111.3s-55.7-72.3-55.7-111.3c0-27.9 27.9-55.7 55.7-55.7" style="opacity:.9;fill:#fff"/><circle cx="256" cy="228.2" r="22.3" style="fill:#1e40af"/><path d="M61.2 459.1c-2.1 0-4.3-.8-5.9-2.4-3.3-3.3-3.3-8.5 0-11.8 39.7-39.8 80.4-49.6 120.9-29.4 33.8 16.9 67.1 8.3 101.7-26.3 18.1-18.1 36.8-26.3 55.7-24.5 23.6 2.3 46 19.9 68.5 53.5 2.6 3.8 1.5 9-2.3 11.6s-9 1.5-11.6-2.3C369 398.6 350 383.1 332 381.3c-13.6-1.4-27.8 5.3-42.2 19.6-39.8 39.8-80.4 49.6-120.9 29.4-33.8-16.9-67.1-8.3-101.7 26.3-1.7 1.7-3.8 2.5-6 2.5" class="geopulse_svg__st5"/><path d="M89 423c6.1 0 11.1 5 11.1 11.1s-5 11.1-11.1 11.1-11.1-5-11.1-11.1c0-6.2 5-11.1 11.1-11.1m222.7-27.9c6.1 0 11.1 5 11.1 11.1s-5 11.1-11.1 11.1-11.1-5-11.1-11.1 4.9-11.1 11.1-11.1" style="opacity:.8;fill:#1a56db"/><path d="M200.3 400.7c6.1 0 11.1 5 11.1 11.1s-5 11.1-11.1 11.1-11.1-5-11.1-11.1 5-11.1 11.1-11.1m194.8 11.1c6.1 0 11.1 5 11.1 11.1s-5 11.1-11.1 11.1-11.1-5-11.1-11.1 5-11.1 11.1-11.1" class="geopulse_svg__st5"/></svg>