<?xml version="1.0" encoding="utf-8"?>
<!-- Generator: Adobe Illustrator 28.2.0, SVG Export Plug-In . SVG Version: 6.00 Build 0)  -->
<svg version="1.1" id="Layer_1" xmlns="http://www.w3.org/2000/svg" xmlns:xlink="http://www.w3.org/1999/xlink" x="0px" y="0px"
	 viewBox="0 0 512 512" style="enable-background:new 0 0 512 512;" xml:space="preserve">
<style type="text/css">
	.st0{fill:#FFFFFF;}
</style>
<path class="st0" d="M357.8,13.5h-204C68.8,13.5,0,82.3,0,167.3v177c0,84.9,68.8,153.8,153.8,153.8h204
	c84.9,0,153.8-68.8,153.8-153.8v-177C511.5,82.3,442.7,13.5,357.8,13.5z M460.3,334.8c-3.5,9-8.7,16.7-17.3,21.6
	c-11.6,6.6-23.7,8.6-36.7,5c-10-2.8-20.2-3.7-30.5-1.9c-16.1,2.8-28.6,11.3-38.2,24.2c-6,8-11.2,16.6-17.3,24.5
	c-12.3,15.8-28.3,26.6-47.5,32c-15.9,4.5-31.5,2.8-46.8-3.6c-18.1-7.5-31.8-19.7-42.6-35.7c-5.8-8.5-11.7-16.9-19.2-24.1
	c-17-16.5-36.7-21.6-59.6-15.1c-22.5,6.4-45.3-4.1-55.1-24.8c-3.2-6.8-3.5-13.4,1.9-19.3c8.8-9.5,17.5-19.1,26.6-28.3
	c13.5-13.7,27.4-27.1,41.1-40.7c5.9-5.8,11.8-11.7,19.1-15.8c0.8-0.5,1.6-1.7,1.7-2.7c0.5-2.8,0.8-5.7,0.8-8.5
	c0.2-12.6,0.3-25.2,0.2-37.9c-0.1-12.7,2.8-24.8,5.9-37c6.4-25,21-44.3,40.9-60.1c15.8-12.6,34-18.9,54-21
	c13.4-1.4,26.7-1.5,39.9,1.4c17.5,3.8,33.1,11.7,46.9,23.1c15.9,13.1,26.8,29.8,35,48.5c4.2,9.6,8.1,19.4,9,29.9
	c0.7,8.3,0.6,16.7,0.9,25.1c0.1,2.4,0,4.8,0,7.3c-0.1,0-0.2,0-0.4,0c0,9.1,0.2,18.2-0.1,27.2c-0.2,4.8,1.4,8.5,4.7,11.8
	c16.5,16.4,32.9,32.8,49.3,49.3c9.8,9.9,19.4,19.9,29,30C460.1,323.7,462.6,328.8,460.3,334.8z M299.5,138.5
	c-12.4-0.5-25.9,10.5-28.4,22.8c-2.2,10.7,1.7,19.7,8.4,27.7c4.3,5.2,10,7.8,16.9,7.9c2.8-0.5,5.7-0.6,8.4-1.5
	c17.6-5.5,26-27.9,16.3-43.6C316.2,143.9,309.1,138.8,299.5,138.5z M233.2,147.8c-0.9-1-1.9-1.9-2.9-2.7c-0.6-0.5-1.3-1-1.9-1.5
	c-1.8-1.2-3.7-2.3-5.7-3.2c-10.1-4.3-20.3-2.3-27.6,5.8s-10,17.7-7.2,28.3c2.1,8,6.6,14.7,14,18.5c9.5,4.8,18.9,3.4,27.2-3
	c1.4-1.1,2.8-2.2,4-3.5c5.3-5.3,8.3-11.8,8.3-19.9C241,159.6,238.1,153,233.2,147.8L233.2,147.8z"/>
</svg>
