<svg xmlns="http://www.w3.org/2000/svg" xml:space="preserve" viewBox="0 0 512 512"><path d="M314.3 193.5c19.3 0 35 15.7 35 35s-15.7 35-35 35-35-15.7-35-35 15.7-35 35-35m-116.6 0c19.3 0 35 15.7 35 35s-15.7 35-35 35-35-15.7-35-35 15.7-35 35-35M431.6 0H80.5C36 0 0 36 0 80.5v351.1c0 44.4 36 80.5 80.5 80.5h351.1c44.4 0 80.5-36.1 80.5-80.5V80.5c0-44.5-36-80.5-80.5-80.5m-35.7 411.9c0 10.5-12.6 15.7-20 8.3l-26.7-27.5-38.4 39.2c-4.5 4.6-11.9 4.6-16.5 0l-38.4-39.2-38.4 39.2c-4.5 4.6-11.9 4.6-16.5 0l-38.4-39.2-26.7 27.5c-7.3 7.3-19.9 2.1-19.9-8.3V216.8c0-77.2 62.5-139.8 139.8-140 77.1-.1 140.2 64.1 140.1 141.2z" style="fill:#fff"/></svg>