<?xml version="1.0" encoding="utf-8"?>
<!-- Generator: Adobe Illustrator 27.7.0, SVG Export Plug-In . SVG Version: 6.00 Build 0)  -->
<svg version="1.1" id="Layer_1" xmlns="http://www.w3.org/2000/svg" xmlns:xlink="http://www.w3.org/1999/xlink" x="0px" y="0px"
	 viewBox="0 0 512 512" style="enable-background:new 0 0 512 512;" xml:space="preserve">
<style type="text/css">
	.st0{fill:#FFFFFF;}
</style>
<g>
	<g>
		<path class="st0" d="M255.6,0C145.3,0.2,56,89.7,56,200v278.7c0,14.8,18,22.3,28.5,11.8l38.2-39.3l54.9,56
			c6.5,6.5,17.1,6.5,23.6,0l54.9-56l54.9,56c6.5,6.5,17.1,6.5,23.6,0l54.9-56l38.2,39.3c10.5,10.5,28.5,3.1,28.5-11.8V201.7
			C456,91.5,365.8-0.2,255.6,0z M172.7,266.7c-27.6,0-50-22.4-50-50s22.4-50,50-50s50,22.4,50,50S200.2,266.7,172.7,266.7z
			 M339.3,266.7c-27.6,0-50-22.4-50-50s22.4-50,50-50s50,22.4,50,50S366.9,266.7,339.3,266.7z"/>
	</g>
</g>
</svg>
