<?xml version="1.0" encoding="utf-8"?>
<!-- Generator: Adobe Illustrator 28.2.0, SVG Export Plug-In . SVG Version: 6.00 Build 0)  -->
<svg version="1.1" id="Layer_1" xmlns="http://www.w3.org/2000/svg" xmlns:xlink="http://www.w3.org/1999/xlink" x="0px" y="0px"
	 viewBox="0 0 512 512" style="enable-background:new 0 0 512 512;" xml:space="preserve">
<path d="M314.3,193.5c19.3,0,35,15.7,35,35s-15.7,35-35,35s-35-15.7-35-35S295,193.5,314.3,193.5z M197.7,193.5
	c19.3,0,35,15.7,35,35s-15.7,35-35,35s-35-15.7-35-35S178.4,193.5,197.7,193.5z M431.6,0H80.5C36,0,0,36,0,80.5v351.1
	c0,44.4,36,80.5,80.5,80.5h351.1c44.4,0,80.5-36.1,80.5-80.5V80.5C512.1,36,476.1,0,431.6,0z M395.9,411.9c0,10.5-12.6,15.7-20,8.3
	l-26.7-27.5l-38.4,39.2c-4.5,4.6-11.9,4.6-16.5,0l-38.4-39.2l-38.4,39.2c-4.5,4.6-11.9,4.6-16.5,0l-38.4-39.2l-26.7,27.5
	c-7.3,7.3-19.9,2.1-19.9-8.3V216.8c0-77.2,62.5-139.8,139.8-140C332.9,76.7,396,140.9,395.9,218V411.9z"/>
</svg>
