<?xml version="1.0" encoding="utf-8"?>
<!-- Generator: Adobe Illustrator 28.2.0, SVG Export Plug-In . SVG Version: 6.00 Build 0)  -->
<svg version="1.1" id="Layer_1" xmlns="http://www.w3.org/2000/svg" xmlns:xlink="http://www.w3.org/1999/xlink" x="0px" y="0px"
	 viewBox="0 0 512 512" style="enable-background:new 0 0 512 512;" xml:space="preserve">
<style type="text/css">
	.st0{fill:#8C8073;}
	.st1{fill:#FFFFFF;}
	.st2{fill:#F2840D;}
	.st3{fill:#BBBBBB;}
</style>
<path id="path429-0" class="st0" d="M493.4,33.7c0.6,0,1.1,0,1.6,0c2,0.3,4.3,2.4,5.2,4.8C501,41,533.6,205.9,487,300.8
	C440.5,395.7,337.6,424.4,278.4,424c-99.6,1.5-186.1-34.1-225.9-115.1c43.2-1.5,57.6-43.3,58.3-78.1c0.2-10.8,17-127.8,20.9-132.9
	c1.1-1.3,2.6-0.6,3.4,0.5c16.2,25.3,31.1,38.4,52.9,50.3c34.7,15,57.3,20.5,108.6,11.4c51.2-9.1,135.6-39.5,190.9-122.5
	C489.6,34.9,491.6,33.9,493.4,33.7L493.4,33.7z"/>
<path class="st1" d="M312.5,155.2c-34.2,0-62.9,23.3-72,55.2c-7.8-24.9-28.9-42.8-53.8-42.8c-31.5,0-57.1,28.6-57.1,64
	c0,35.3,25.6,64,57.1,64c24.9,0,46-17.8,53.8-42.7c9,32,37.8,55.4,72,55.4c41.4,0,75-34.3,75-76.5
	C387.5,189.4,353.9,155.2,312.5,155.2z"/>
<path d="M406.6,342.3c-1.7,0.8-5.6-1.1-9.4-3.3c-34.7,44.7-84.4,61.3-141.7,58.9c-47.3-1.9-39.4-15.6-29-14.2
	c76.3,10.8,124.2-13.3,156.1-54.4c-3.6-2.4-8.1-5.4-11.8-8c-3.5-2.4,0.7-6.2,8.2-6.5c4.5-0.2,10.2,1,16.3,4.4
	C411.3,328.5,411.9,339.9,406.6,342.3z M1.7,247.2c7,33.9,34,57,60.3,51.5s41.9-37.4,34.9-71.3s-34-57-60.3-51.5
	C10.3,181.3-5.3,213.3,1.7,247.2z M233.4,233.9c0,23.1-15.4,41.8-34.4,41.8s-34.4-18.7-34.4-41.8s15.4-41.8,34.4-41.8
	S233.4,210.9,233.4,233.9z M214.8,210.8c0-8.6-7-15.7-15.7-15.7c-8.6,0-15.7,7-15.7,15.7c0,8.6,7,15.7,15.7,15.7
	S214.8,219.5,214.8,210.8z M377,234.5c0,28.1-20.8,50.9-46.4,50.9s-46.4-22.8-46.4-50.9s20.8-50.9,46.4-50.9
	C356.3,183.6,377,206.4,377,234.5z M350.6,206.8c0-11-8.9-19.9-19.9-19.9s-19.9,8.9-19.9,19.9s8.9,19.9,19.9,19.9
	C341.6,226.7,350.6,217.8,350.6,206.8z M504.5,477.6c-3.5-6.4-10.7-12.4-20.4-14.6c-9.7-2.2-24.8-2.5-34.7-14.5
	c-10-12-12.8-32.1-0.2-45.3c14.8-15.8,57.1-4.3,61.9,35.7C513.2,457,507.4,483,504.5,477.6L504.5,477.6z"/>
<ellipse id="circle432-2" class="st1" cx="43.3" cy="205.4" rx="26.5" ry="26.5"/>
<path id="path379" class="st0" d="M477.1,404.3c2.5-4.1,16.4,1.5,19.4,3.6c-6-9.7-37.3-22.1-51.2-6.7c-14,15.4-1.1,41.8,4.1,48.6
	c-1.5-4.2-4.6-16.3-1.4-18.6c3.2-2.3,10.6,10.8,16.8,7c6.1-3.8-5.8-14.2,0.2-19.2c6.2-4.9,14.7,8.9,19.9,2.7
	C489.4,416.3,474.8,408.1,477.1,404.3L477.1,404.3z"/>
<path id="path434-77" class="st2" d="M379.7,358c-13.2-5.5-31.4,13.2-24.5,18.3c10.5,6.8,47.3,30.2,55,34.4c9,4.8,21.8-3.8,21.8-3.8
	l4-7.5c0,0-0.2-15.4-9.1-20.2C421.1,376.1,396.8,365.5,379.7,358L379.7,358L379.7,358z"/>
<path id="path435-5" class="st3" d="M421.2,410c1.7,5.9,7.6,3.2,11.2,5.2s4.4,8.4,10.3,6.7c5.9-1.7,13.7-15.7,12-21.6
	s-7.6-3.2-11.2-5.2s-4.4-8.4-10.3-6.7C427.3,390.1,419.6,404.1,421.2,410z"/>
</svg>
