<?xml version="1.0" encoding="utf-8"?>
<!-- Generator: Adobe Illustrator 28.2.0, SVG Export Plug-In . SVG Version: 6.00 Build 0)  -->
<svg version="1.1" id="main_outline" xmlns="http://www.w3.org/2000/svg" xmlns:xlink="http://www.w3.org/1999/xlink" x="0px"
	 y="0px" viewBox="0 0 512 512" style="enable-background:new 0 0 512 512;" xml:space="preserve">
<path d="M502.6,103.7c-3.3-3.3-7.8-3.3-7.8-3.3s-95.5,5.4-144.9,6.5c-10.8,0.2-21.6,0.5-32.3,0.6c0,31.8,0,63.7,0,95.5
	c-4.5-2.1-9-4.3-13.5-6.4c0-29.6-0.1-88.9-0.1-88.9c-23.6,0.3-72.7-1.8-72.7-1.8s-115.2-5.8-127.7-6.9c-8-0.5-18.3-1.7-31.8,1.2
	c-7.1,1.5-27.3,6-43.8,21.9c-36.7,32.7-27.3,84.6-26.1,92.4c1.4,9.5,5.6,36,25.8,59c37.3,45.7,117.6,44.6,117.6,44.6
	s9.9,23.5,24.9,45.2c20.4,27,41.3,48,61.7,50.5c51.3,0,153.9-0.1,153.9-0.1s9.8,0.1,23-8.4c11.4-6.9,21.6-19.1,21.6-19.1
	s10.5-11.2,25.2-36.9c4.5-7.9,8.2-15.6,11.5-22.8c0,0,45-95.4,45-188.2C511.1,110.3,504.2,105.3,502.6,103.7z M97.7,269.9
	c-21.1-6.9-30.1-15.2-30.1-15.2S52,243.8,44.2,222.3c-13.4-36-1.1-58-1.1-58s6.8-18.3,31.4-24.4c11.2-3,25.2-2.5,25.2-2.5
	s5.8,48.4,12.8,76.7c5.9,23.8,20.2,63.3,20.2,63.3S111.4,274.8,97.7,269.9z M387.1,265.4c-5.2,12.6-44.8,92.1-44.8,92.1
	s-5,11.8-16,12.5c-4.7,0.3-8.4-1-8.4-1s-0.2-0.1-4.3-1.7l-92-44.8c0,0-8.9-4.6-10.4-12.7c-1.8-6.6,2.2-14.7,2.2-14.7l44.2-91.1
	c0,0,3.9-7.9,9.9-10.6c0.5-0.2,1.9-0.8,3.7-1.2c6.6-1.7,14.7,2.3,14.7,2.3l18.4,8.9c-3.7,7.6-7.5,15.2-11.2,22.9
	c-5.5-0.1-10.5,2.9-13.1,7.7c-2.8,5.1-2.2,11.5,1.5,16.1c-6.6,13.8-13.3,27.5-19.9,41.1c-6.7,0.1-12.5,4.7-14.1,11.2
	c-1.5,6.5,1.6,13.3,7.4,16.3c6.3,3.3,14.3,1.5,18.5-4.4c4.2-5.8,3.5-13.8-1.5-18.8l19.5-40c1.2,0.1,3,0.2,5-0.4
	c3.3-0.7,5.8-2.9,5.8-2.9c3.4,1.5,7,3.1,10.8,5c3.9,2,7.6,4,10.9,5.9c0.7,0.4,1.5,0.9,2.3,1.5c1.3,1.1,2.8,2.5,3.8,4.5
	c1.5,4.5-1.5,12.1-1.5,12.1c-1.9,6.2-15,33.1-15,33.1c-6.6-0.2-12.5,4.1-14.4,10.2c-2.1,6.6,0.9,14.1,7.2,17.3
	c6.4,3.3,14.2,1.4,18.3-4.3c4.1-5.5,3.7-13.3-0.9-18.4c1.5-3,3-6,4.6-9.2c4.1-8.5,11-24.8,11-24.8c0.7-1.4,4.6-8.4,2.2-17.3
	c-2-9.3-10.3-13.6-10.3-13.6c-9.9-6.4-23.8-12.4-23.8-12.4s0-3.3-0.9-5.8c-0.9-2.5-2.3-4.2-3.2-5.1c3.6-7.6,7.4-15.1,11-22.6
	l61.8,29.9c0,0,10.3,4.6,12.5,13.2C390.1,257.4,388.2,262.8,387.1,265.4z"/>
</svg>
