<svg xmlns="http://www.w3.org/2000/svg" xml:space="preserve" viewBox="0 0 512 512"><path d="M401.1 0H110.9C49.7 0 0 49.7 0 110.9V401c0 61.3 49.7 111 110.9 111H401c61.3 0 110.9-49.7 110.9-110.9V110.9C512 49.7 462.3 0 401.1 0M256 405.3c-106.7 0-192-64-192-149.3s85.3-149.3 192-149.3 192 64 192 149.3-85.3 149.3-192 149.3m0-200.5c-28.3 0-51.2 22.9-51.2 51.2s22.9 51.2 51.2 51.2 51.2-22.9 51.2-51.2-22.9-51.2-51.2-51.2m17.1 46.9c-9.4 0-17.1-7.6-17.1-17.1s7.6-17.1 17.1-17.1 17.1 7.6 17.1 17.1-7.7 17.1-17.1 17.1" style="fill:#fff"/></svg>