<?xml version="1.0" encoding="utf-8"?>
<!-- Generator: Adobe Illustrator 28.2.0, SVG Export Plug-In . SVG Version: 6.00 Build 0)  -->
<svg version="1.1" id="Layer_1" xmlns="http://www.w3.org/2000/svg" xmlns:xlink="http://www.w3.org/1999/xlink" x="0px" y="0px"
	 viewBox="0 0 512 512" style="enable-background:new 0 0 512 512;" xml:space="preserve">
<style type="text/css">
	.st0{fill:#FFFFFF;}
</style>
<path class="st0" d="M503.5,204.6l-0.7-1.8L433.1,21c-1.4-3.6-3.9-6.6-7.2-8.6c-8.6-5.5-19.9-3-25.4,5.6c-1,1.5-1.7,3.2-2.2,4.9
	l-47,144H160.8l-47-144c-2.8-9.8-13-15.5-22.8-12.7c-1.7,0.5-3.4,1.2-4.9,2.2c-3.2,2-5.8,5.1-7.2,8.6L9.3,202.8l-0.7,1.8
	C-12,258.5,5.5,319.4,51.5,354.2l0.3,0.2l0.6,0.5l105.9,79.4l0,0l52.6,39.7l31.9,24.2c3.9,2.9,8.5,4.4,13.1,4.3
	c4.6,0,9.2-1.4,13-4.3l31.9-24.2l52.6-39.7l106.8-79.9l0.3-0.2c2.5-1.9,4.8-3.8,7.1-5.8C508.3,313,522.9,255.7,503.5,204.6z"/>
</svg>
