<svg xmlns="http://www.w3.org/2000/svg" xml:space="preserve" viewBox="0 0 512 512"><path d="m460.6 354.1-.3.2-106.8 79.9-97.4-73.6 153-115.7c27.8-20.7 59.8-35.1 93.7-42.1L433.1 21c-1.4-3.6-3.9-6.6-7.2-8.6-8.6-5.5-19.9-3-25.4 5.6-1 1.5-1.7 3.2-2.2 4.9l-47 144H160.8l-47-144c-2.8-9.8-13-15.5-22.8-12.7-1.7.5-3.4 1.2-4.9 2.2-3.2 2-5.8 5.1-7.2 8.6L9.3 202.8c33.9 7 65.9 21.3 93.6 42.1l153 115.8.1-.1 97.3 73.7-52.6 39.7-31.9 24.2c-3.8 2.9-8.4 4.3-12.9 4.3 4.6 0 9.2-1.4 13-4.3l31.9-24.2 52.6-39.7 106.8-79.9.3-.2c2.5-1.9 4.8-3.8 7.1-5.8-2.3 2-4.6 3.9-7 5.7" style="fill:#e24329"/><path d="m158.3 434.3 52.6 39.7 31.9 24.2a21.6 21.6 0 0 0 26 0l31.9-24.2 52.6-39.7-97.3-73.7z" style="fill:#fca326"/><path d="m460.6 354.1-.3.2-106.8 79.9-97.4-73.6 153-115.7c27.8-20.7 59.8-35.1 93.7-42.1l.7 1.8c20.5 53.9 3.1 114.8-42.9 149.5M9.3 202.8l-.7 1.8C-12 258.5 5.5 319.4 51.5 354.2l.3.2.6.5 106 79.4 97.5-73.6-153-115.8c-27.7-20.8-59.7-35.1-93.6-42.1" style="fill:#fc6d26"/></svg>