<?xml version="1.0" encoding="utf-8"?>
<!-- Generator: Adobe Illustrator 28.2.0, SVG Export Plug-In . SVG Version: 6.00 Build 0)  -->
<svg version="1.1" id="Layer_1" xmlns="http://www.w3.org/2000/svg" xmlns:xlink="http://www.w3.org/1999/xlink" x="0px" y="0px"
	 viewBox="0 0 512 512" style="enable-background:new 0 0 512 512;" xml:space="preserve">
<path d="M344.8,439l-47,35.4l-32.7,24.8c-1,0.8-2.1,1.4-3.3,1.9c0,0,0,0,0,0c-0.3,0.1-0.7,0.3-1,0.4c-1.5,0.5-3.2,0.8-4.9,0.8v0
	c-3.3,0-6.6-1-9.4-3.1l-32.8-24.9l-46.9-35.4l89.1-67.2l0.6,0.5l0.1-0.1L344.8,439z M153.4,171.2L103.6,18.5c-0.9-3.2-3-5.8-5.8-7.4
	c-2.9-1.6-6.2-2-9.3-1.1c-1.3,0.4-2.3,0.8-3.2,1.4l-0.2,0.1c-2.1,1.3-3.8,3.4-4.7,5.6L11.7,196.6c1.3,0.3,2.5,0.6,3.8,1
	c0.7,0.2,1.4,0.4,2.2,0.5c2.1,0.5,4.1,1.1,6.2,1.7c0.1,0,0.1,0,0.2,0.1c2.1,0.6,4.2,1.3,6.3,2c0.7,0.2,1.4,0.5,2.1,0.7
	c1.4,0.5,2.8,0.9,4.1,1.4c0.8,0.3,1.7,0.6,2.5,0.9c1.2,0.5,2.5,0.9,3.7,1.4c0.9,0.3,1.7,0.7,2.6,1c1.2,0.5,2.3,0.9,3.5,1.4
	c0.9,0.4,1.8,0.8,2.7,1.1c1.1,0.5,2.3,1,3.4,1.5c0.9,0.4,1.8,0.8,2.7,1.2c1.1,0.5,2.2,1,3.3,1.5c0.9,0.4,1.8,0.9,2.7,1.3
	c1.1,0.5,2.2,1.1,3.3,1.6c0.9,0.4,1.8,0.9,2.6,1.4c1.1,0.6,2.2,1.1,3.2,1.7c0.9,0.5,1.7,0.9,2.6,1.4c1.1,0.6,2.2,1.2,3.2,1.8
	c0.8,0.5,1.7,1,2.5,1.4c1.1,0.6,2.2,1.3,3.2,2c0.8,0.5,1.6,1,2.4,1.5c1.1,0.7,2.2,1.4,3.3,2.1c0.7,0.5,1.5,0.9,2.2,1.4
	c1.2,0.8,2.4,1.7,3.6,2.5c0.6,0.4,1.2,0.8,1.8,1.2c1.8,1.3,3.5,2.5,5.3,3.9l152.4,115.4l0.1-0.1l0.7,0.5l153.1-115.8
	c1.8-1.3,3.5-2.6,5.3-3.9c0.6-0.4,1.2-0.8,1.8-1.3c1.2-0.8,2.4-1.7,3.6-2.5c0.7-0.5,1.5-1,2.2-1.4c1.1-0.7,2.2-1.4,3.3-2.1
	c0.8-0.5,1.6-1,2.4-1.5c1.1-0.7,2.2-1.3,3.2-2c0.8-0.5,1.7-1,2.5-1.5c1.1-0.6,2.1-1.2,3.2-1.8c0.9-0.5,1.7-0.9,2.6-1.4
	c1.1-0.6,2.1-1.2,3.2-1.7c0.9-0.5,1.8-0.9,2.6-1.4c1.1-0.6,2.2-1.1,3.3-1.6c0.9-0.4,1.8-0.9,2.7-1.3c1.1-0.5,2.2-1,3.3-1.5
	c0.9-0.4,1.8-0.8,2.7-1.2c1.1-0.5,2.3-1,3.4-1.5c0.9-0.4,1.8-0.8,2.7-1.1c1.2-0.5,2.3-0.9,3.5-1.4c0.9-0.3,1.7-0.7,2.6-1
	c1.2-0.5,2.5-0.9,3.7-1.4c0.8-0.3,1.7-0.6,2.5-0.9c1.4-0.5,2.8-1,4.2-1.4c0.7-0.2,1.4-0.5,2.1-0.7c2.1-0.7,4.2-1.3,6.3-1.9
	c0.3-0.1,0.6-0.2,0.8-0.2c1.8-0.5,3.7-1,5.5-1.5c0.8-0.2,1.5-0.4,2.3-0.6c1.2-0.3,2.4-0.6,3.6-0.9L431.5,17.1
	c-0.9-2.3-2.5-4.2-4.6-5.5l-0.1-0.1c-5.8-3.7-13.2-2-16.9,3.7l-0.1,0.1c-0.6,0.8-1,1.9-1.4,3.2l-0.1,0.2l-49.8,152.4H153.4z
	 M505.1,209.2c-0.1,0-0.2,0.1-0.4,0.1c-0.8,0.2-1.6,0.4-2.4,0.6c-1.2,0.3-2.5,0.6-3.7,0.9c-0.9,0.2-1.7,0.5-2.6,0.7
	c-1.2,0.3-2.3,0.6-3.5,1c-0.9,0.3-1.8,0.5-2.6,0.8c-1.1,0.3-2.2,0.7-3.4,1c-0.9,0.3-1.8,0.6-2.7,0.9c-1.1,0.4-2.2,0.7-3.3,1.1
	c-0.9,0.3-1.8,0.6-2.7,1c-1.1,0.4-2.1,0.8-3.2,1.2c-0.9,0.3-1.8,0.7-2.7,1c-1.1,0.4-2.1,0.8-3.2,1.3c-0.9,0.4-1.8,0.7-2.7,1.1
	c-1,0.4-2.1,0.9-3.1,1.3c-0.9,0.4-1.8,0.8-2.7,1.2c-1,0.5-2.1,0.9-3.1,1.4c-0.9,0.4-1.7,0.8-2.6,1.3c-1,0.5-2,1-3.1,1.5
	c-0.9,0.4-1.7,0.9-2.6,1.3c-1,0.5-2,1.1-3,1.6c-0.8,0.5-1.7,0.9-2.5,1.4c-1,0.6-2,1.1-3,1.7c-0.8,0.5-1.6,0.9-2.4,1.4
	c-1,0.6-2,1.2-3.1,1.9c-0.8,0.5-1.5,0.9-2.3,1.4c-1.1,0.7-2.1,1.3-3.2,2c-0.7,0.5-1.4,0.9-2.1,1.4c-1.2,0.8-2.3,1.6-3.4,2.3
	c-0.6,0.4-1.2,0.8-1.8,1.2c-1.7,1.2-3.4,2.4-5.1,3.7l-150,113.4l88.9,67.2l105.8-79.1l0.3-0.2c1.2-0.9,2.4-1.9,3.6-2.8
	c0.3-0.3,0.6-0.5,1-0.8C506.7,314.3,522.2,258.7,505.1,209.2z M94.8,249.9c-1.7-1.2-3.3-2.5-5-3.7c-0.6-0.4-1.1-0.8-1.7-1.2
	c-1.1-0.8-2.3-1.6-3.5-2.4c-0.7-0.5-1.4-0.9-2.1-1.4c-1.1-0.7-2.1-1.4-3.2-2.1c-0.7-0.5-1.5-0.9-2.3-1.4c-1-0.6-2.1-1.3-3.1-1.9
	c-0.8-0.5-1.6-0.9-2.4-1.4c-1-0.6-2-1.2-3.1-1.7c-0.8-0.5-1.6-0.9-2.5-1.3c-1-0.6-2-1.1-3.1-1.6c-0.8-0.4-1.7-0.9-2.5-1.3
	c-1-0.5-2-1-3.1-1.5c-0.9-0.4-1.7-0.8-2.6-1.2c-1-0.5-2.1-1-3.1-1.4c-0.9-0.4-1.7-0.8-2.6-1.2c-1-0.5-2.1-0.9-3.1-1.4
	c-0.9-0.4-1.8-0.7-2.7-1.1c-1.1-0.4-2.1-0.9-3.2-1.3c-0.9-0.4-1.8-0.7-2.7-1c-1.1-0.4-2.2-0.8-3.2-1.2c-0.9-0.3-1.8-0.7-2.7-1
	c-1.1-0.4-2.2-0.8-3.3-1.1c-0.9-0.3-1.8-0.6-2.7-0.9c-1.1-0.4-2.2-0.7-3.4-1c-0.9-0.3-1.8-0.5-2.7-0.8c-1.2-0.3-2.3-0.7-3.5-1
	c-0.9-0.2-1.7-0.5-2.6-0.7c-1.2-0.3-2.5-0.6-3.7-0.9c-0.8-0.2-1.6-0.4-2.4-0.6c-0.1,0-0.3-0.1-0.4-0.1
	c-17.8,51.2-0.5,109.2,43,142.2l0.7,0.5l0.5,0.4l104.6,78.4l89.1-67.2L94.8,249.9z"/>
</svg>
