<svg xmlns="http://www.w3.org/2000/svg" xml:space="preserve" viewBox="0 0 512 512"><path d="M102.4 0h307.2C466.2 0 512 45.8 512 102.4v307.2c0 56.6-45.8 102.4-102.4 102.4H102.4C45.8 512 0 466.2 0 409.6V102.4C0 45.8 45.8 0 102.4 0" style="fill:#0f0f0f"/><path d="M405.9 241.9 270.2 104.1c-4.4-2.2-8.8-4.4-15.3-4.4-4.4 0-10.9 2.2-15.3 6.6l-26.2 26.2 35 35c19.7-6.6 37.2 10.9 30.6 30.6l35 35c24.1-8.8 43.8 21.9 24.1 39.4-17.5 19.7-48.1 0-37.2-24.1l-32.8-32.8v85.3c17.5 8.8 15.3 28.4 6.6 39.4-2.2 2.2-6.6 4.4-8.8 4.4-2.2 2.2-6.6 2.2-8.8 2.2-4.4 0-6.6 0-8.8-2.2-4.4 0-6.6-2.2-8.8-4.4-13.1-13.1-8.8-32.8 8.8-39.4v-85.3c-15.3-6.6-17.5-21.9-13.1-32.8l-37.2-35-91.9 94.1c-4.4 4.4-6.6 8.8-6.6 15.3 0 4.4 2.2 10.9 6.6 15.3L244 410.3c2.2 0 6.6 2.2 13.1 2.2 4.4 0 10.9-2.2 15.3-6.6L408 270.3c2.2-4.4 4.4-8.8 4.4-13.1 0-6.6-2.2-10.9-6.5-15.3" style="fill:#fff"/></svg>