<?xml version="1.0" encoding="utf-8"?>
<!-- Generator: Adobe Illustrator 28.2.0, SVG Export Plug-In . SVG Version: 6.00 Build 0)  -->
<svg version="1.1" id="Layer_1" xmlns="http://www.w3.org/2000/svg" xmlns:xlink="http://www.w3.org/1999/xlink" x="0px" y="0px"
	 viewBox="0 0 512 512" style="enable-background:new 0 0 512 512;" xml:space="preserve">
<style type="text/css">
	.st0{fill:#FFFFFF;}
</style>
<path class="st0" d="M444.4,0H67.6C30.3,0,0,30.3,0,67.6v376.8C0,481.7,30.3,512,67.6,512h376.8c37.3,0,67.6-30.3,67.6-67.6V67.6
	C512,30.3,481.7,0,444.4,0z M271.8,61.5c66.9,0,117,29.6,145,87.3L350,187c-11.3-29.1-34.4-52.8-78.1-52.8
	c-50.6,0-83.5,29.1-83.5,91.6v3l-13.5,0.9v0l-73.5,3.5l1-0.1C110.7,122.1,176.6,61.5,271.8,61.5z M262.2,303v-68.4h148.2v74.3
	l-78.1,5.4V303H262.2z M88.2,257.6c0-7.6,0.3-15,0.7-22.1l86-4.1v54.8c0,14.7,1.8,27.6,5.3,38.7L97,330.8
	C91.2,309.1,88.2,284.8,88.2,257.6z M193.8,325.2C205,361,233.2,378,272,378c40.9,0,73.8-19.5,73.8-56.1v-7.4l78.1-5.5V373
	l-284.2,20c-12.6-17-22.4-37.7-29-62L193.8,325.2z M339.8,444v-59.8h-2.7c-5.4,37.7-39.6,66.3-95.8,66.3
	c-45.1,0-85.1-18.5-112.9-54.5l279.9-19.7V444H339.8z"/>
</svg>
