<svg xmlns="http://www.w3.org/2000/svg" xml:space="preserve" viewBox="0 0 512 512"><path d="M444.4 0H67.6C30.3 0 0 30.3 0 67.6v376.8C0 481.7 30.3 512 67.6 512h376.8c37.3 0 67.6-30.3 67.6-67.6V67.6C512 30.3 481.7 0 444.4 0M271.8 61.5c66.9 0 117 29.6 145 87.3L350 187c-11.3-29.1-34.4-52.8-78.1-52.8-50.6 0-83.5 29.1-83.5 91.6v3l-13.5.9-73.5 3.5 1-.1c8.3-111 74.2-171.6 169.4-171.6M262.2 303v-68.4h148.2v74.3l-78.1 5.4V303zm-174-45.4c0-7.6.3-15 .7-22.1l86-4.1v54.8c0 14.7 1.8 27.6 5.3 38.7L97 330.8c-5.8-21.7-8.8-46-8.8-73.2m105.6 67.6C205 361 233.2 378 272 378c40.9 0 73.8-19.5 73.8-56.1v-7.4l78.1-5.5v64l-284.2 20c-12.6-17-22.4-37.7-29-62zm146 118.8v-59.8h-2.7c-5.4 37.7-39.6 66.3-95.8 66.3-45.1 0-85.1-18.5-112.9-54.5l279.9-19.7V444z"/></svg>