<svg xmlns="http://www.w3.org/2000/svg" xml:space="preserve" viewBox="0 0 512 512"><linearGradient id="global-threat-map_svg__a" x1="0" x2="512" y1="514" y2="2" gradientTransform="matrix(1 0 0 -1 0 514)" gradientUnits="userSpaceOnUse"><stop offset="0" style="stop-color:#1a1a2e"/><stop offset="1" style="stop-color:#16213e"/></linearGradient><path d="M96 0h320c53 0 96 43 96 96v320c0 53-43 96-96 96H96c-53 0-96-43-96-96V96C0 43 43 0 96 0" style="fill:url(#global-threat-map_svg__a)"/><path d="M256 100c-86 0-156 70-156 156s70 156 156 156 156-70 156-156-70-156-156-156m143.9 152h-73c-.5-39.1-7.5-75.8-19.9-103.7-6.4-14.3-13.9-25.6-22.2-33.4 64.4 13.2 113.3 69.4 115.1 137.1M267.3 399.6c-3.7.3-7.5.4-11.3.4s-7.6-.2-11.3-.4c-12-5.2-23.2-18.6-32.4-39.1-12-26.9-18.8-62.4-19.2-100.4H319c-.4 38-7.2 73.5-19.2 100.4-9.2 20.4-20.4 33.8-32.5 39.1M193 252c.4-38 7.2-73.5 19.2-100.4 9.1-20.5 20.4-33.9 32.4-39.1 3.7-.3 7.5-.4 11.3-.4s7.6.2 11.3.4c12 5.2 23.2 18.6 32.4 39.1 12 26.9 18.8 62.4 19.2 100.4zm34.1-137.1c-8.2 7.8-15.8 19.1-22.2 33.4-12.5 27.9-19.5 64.6-19.9 103.7h-73c1.9-67.7 50.8-123.9 115.1-137.1M112.1 260h73c.5 39.1 7.5 75.8 19.9 103.7 6.4 14.3 13.9 25.6 22.2 33.4-64.4-13.2-113.3-69.4-115.1-137.1m172.8 137.1c8.2-7.8 15.8-19.1 22.2-33.4 12.5-27.9 19.5-64.6 19.9-103.7h73c-1.9 67.7-50.8 123.9-115.1 137.1" style="fill:#60a5fa"/><circle cx="370" cy="140" r="60" style="fill:#ef4444"/><circle cx="370" cy="140" r="30" style="fill:#fca5a5"/></svg>