<svg xmlns="http://www.w3.org/2000/svg" xml:space="preserve" viewBox="0 0 512 512"><path d="M299.7 360.4c-9.1 20.5-20.4 33.9-32.4 39.1-3.7.3-7.5.4-11.3.4s-7.6-.2-11.3-.4c-12-5.2-23.2-18.6-32.4-39.1-12-26.9-18.8-62.4-19.2-100.4H319c-.5 38-7.3 73.5-19.3 100.4m-94.7 3.3c-12.5-27.9-19.5-64.6-19.9-103.7h-73c1.9 67.7 50.7 123.9 115.1 137.1-8.3-7.8-15.8-19.1-22.2-33.4M193 252h126c-.4-38-7.2-73.5-19.2-100.4-9.1-20.5-20.4-33.9-32.4-39.1-3.7-.3-7.5-.4-11.3-.4s-7.6.2-11.3.4c-12 5.2-23.2 18.6-32.4 39.1C200.3 178.5 193.5 214 193 252m12-103.7c6.4-14.3 13.9-25.6 22.2-33.4C162.8 128 114 184.3 112.1 252h73c.4-39.1 7.4-75.8 19.9-103.7M512 96v320c0 53-43 96-96 96H96c-53 0-96-43-96-96V96C0 43 43 0 96 0h320c53 0 96 43 96 96m-82 44c0-33.1-26.9-60-60-60-23.2 0-43.2 13.1-53.2 32.3-18.7-7.9-39.2-12.3-60.8-12.3-86 0-156 70-156 156s70 156 156 156 156-70 156-156c0-22.5-4.8-43.9-13.4-63.2 18.7-10.2 31.4-30 31.4-52.8m-120 0c0-5.7.8-11.3 2.3-16.5-8.7-3.7-17.9-6.6-27.5-8.6 8.2 7.8 15.8 19.1 22.2 33.4 12.5 27.9 19.5 64.6 19.9 103.7h73c-.5-19.4-4.9-37.8-12.4-54.6-5.5 1.7-11.4 2.6-17.5 2.6-33.1 0-60-26.9-60-60m-3 223.7c-6.4 14.3-13.9 25.6-22.2 33.4C349.2 384 398 327.7 399.9 260h-73c-.4 39.1-7.4 75.8-19.9 103.7" style="fill:#fff"/><circle cx="370" cy="140" r="60" style="opacity:.7;fill:#fff"/><circle cx="370" cy="140" r="30" style="opacity:.5;fill:#fff"/></svg>