<svg xmlns="http://www.w3.org/2000/svg" xml:space="preserve" viewBox="0 0 512 512"><path d="M34.3 128v256L256 512l221.7-128V128L256 0z" style="fill:#f4f4f4"/><path d="M48.8 136.6v239.3L256 495.5l207.2-119.6V136.6L256 17z" style="fill:#ef982f"/><path d="M325.6 165.3c-6 6.3-10.3 12-15.8 17.7-8.2-7.3-17.1-13.1-27.8-15.7-35.7-8.6-63.9 8.2-73.7 44.7-7.9 29.3-7.4 59 .5 88.2 8.1 29.6 28.4 43.1 59 40.3 10.7-1 21.2-3.4 30.8-8.6 1.4-.7 2.9-2.7 2.9-4.1.2-20.4.1-40.8.1-61.7h-42.5c-1.1-7.7-2.1-15-3.2-22.7h72.4c.1 1.5.3 3 .3 4.5 0 30.8-.1 61.6.1 92.4 0 3.7-1.2 5.4-4.4 7.1-25.2 13.5-51.9 18.8-80.2 15.1-25.1-3.2-44.7-16-55.3-38.8-18-44.5-18.8-89.9-1.1-133.3C214 135.9 274.5 133 307 151.9c10.3 6 11.5 7.9 18.6 13.4" style="fill:#fefdfd"/></svg>