<?xml version="1.0" encoding="utf-8"?>
<!-- Generator: Adobe Illustrator 28.2.0, SVG Export Plug-In . SVG Version: 6.00 Build 0)  -->
<svg version="1.1"
	 id="svg8" xmlns:rdf="http://www.w3.org/1999/02/22-rdf-syntax-ns#" xmlns:osb="http://www.openswatchbook.org/uri/2009/osb" xmlns:sodipodi="http://sodipodi.sourceforge.net/DTD/sodipodi-0.dtd" xmlns:inkscape="http://www.inkscape.org/namespaces/inkscape" xmlns:cc="http://creativecommons.org/ns#" xmlns:dc="http://purl.org/dc/elements/1.1/" xmlns:svg="http://www.w3.org/2000/svg" inkscape:version="0.92.4 (5da689c313, 2019-01-14)" sodipodi:docname="logo.svg"
	 xmlns="http://www.w3.org/2000/svg" xmlns:xlink="http://www.w3.org/1999/xlink" x="0px" y="0px" viewBox="0 0 512 512"
	 style="enable-background:new 0 0 512 512;" xml:space="preserve">
<style type="text/css">
	.st0{fill:#2CA02C;}
	.st1{fill:#0066FF;}
	.st2{fill:#13C9FE;fill-opacity:0.6583;}
	.st3{fill:#0081FF;}
</style>
<path class="st0" d="M390.3,164.5c0,23.1-68,42.6-148.5,42.6S93.3,187.6,93.3,164.5c0-15.7,31.7-29.8,77.3-37.1
	c1,1.8,2.7,2.9,3.7,3.5c0.2,0.2,0.5,0.3,0.7,0.5c1.9,1.4,4.3,2.1,6.7,2.1c2.6,0,5.3-0.8,7.6-2.3c2.6-1.7,4.8-4.1,6.7-6.9
	c6.2-0.6,12.6-1.1,19.1-1.4c-0.3,4.2-0.6,8.4-1,12.4c-54.2,2.5-103,12.7-103,28.2c0,18,66,28.8,129.9,28.8s129.9-10.8,129.9-28.8
	s-66-28.8-129.9-28.8c-2.3,0-4.6,0-6.9,0.1c0.4-4,0.8-8.2,1.4-12.5c2.2,0,4.4-0.1,6.6-0.1C322.3,121.9,390.3,141.4,390.3,164.5z
	 M390.1,251.3l0.2-1.7v-71.7c-18.3,20.5-78,34.9-148.4,34.9c-70.3,0-130.1-14.3-148.4-34.8v73.6c3.2,22.3,69.8,40.7,148.4,40.7
	C320.3,292.2,386.8,273.9,390.1,251.3z M307.8,425.2c-14.2,10.9-30.3,23.3-60.7,29.8c-45.7,9.7-79.9-9.2-110.1-26
	c-5.7-3.2-11.3-6.2-16.9-9.1v27.9h-2.7c4,23.8,58,42.7,124,42.7s120-18.9,124-42.7h-2.6v-44.6C335.9,403.6,323,413.4,307.8,425.2z
	 M140.9,421.9c30.4,16.8,61.8,34.2,104.5,25.1c28.6-6.1,43.2-17.4,57.4-28.3c16-12.3,30.4-23.3,60.1-23.6V279.8
	c-29.3,11.6-73.4,18.2-121.1,18.2c-47.9,0-92.2-6.7-121.5-18.3H120l0.1,131.2C126.9,414.2,133.8,418,140.9,421.9z"/>
<path class="st1" d="M318.9,170.1c-8.7-3-16.6-5.8-24.5-10.3c-13.5-7.7-28.1-9-42.5-12c-6.2-1.3-12.6-2-19-2.4
	c-0.3,4-0.6,7.9-0.7,11.7l-1.9-0.1c-0.2,0.1-0.3,0.1-0.5,0.2v0.3h-0.7c-1.8,0.5-4.5,0.9-7.4,0.9c-1.8,0-3.5-0.1-5-0.4v0.2l-3.3-0.6
	l0.1-0.4c-0.1,0-0.2-0.1-0.3-0.1l-2.1-0.3c0.6-3.7,1.2-7.5,1.7-11.3c-7.1,0.5-14.1,1.3-21.1,2c-9.1,0.9-17.5,4.4-26.3,6.5
	c-13,3.1-25,11.2-34.1,21.4l0,0l0,0l0,0c31,8.4,32.8,8.1,32.9,8c14.6,1.3,28.5,3.5,44,3.8c10.6,0.8,21.3,1.2,32.1,1.1
	c17.6,0.3,34.7-0.3,51.5-2.4l18.5-2.1l15.2-2.3C337.4,181.4,323.4,171.7,318.9,170.1z"/>
<path class="st2" d="M215.1,157.4c2.1-12.3,3.3-24.5,4.1-37.1c0.2-2.8,0-9.9,0.2-11.1c1.6-8,0.2-26.3,1.8-38.1
	c1.6-12.3-11.2-31.2-20.3-23.8c-10.3,8.4-13.7,22.2-22.5,31.4c-8.4,8.8-17.7,31.9-27.8,24.3c-10.9-8.2,7-24.9,11.1-34.7
	c3.1-7.4,20.9-29.4,13-25.5c-15.5,7.7-31.2,15.6-45.4,25.8c-9.2,6.5-34.7,6.4-24.8-10.3c8.2-13.9,21.8-22.7,35.1-30.4
	c14.6-8.5,29.9-17.9,46.6-19.4c17.3-1.6,33.6-7.6,51.2-8.3c17-0.7,32.2,8.6,48.8,11c14.9,2.2,23.7,15.1,33.6,25
	c8.5,8.6,11.6,20.1,17.2,30.7c4.1,7.8,13.5,22.8-3.9,19.5c-10.7-2-17.5-13.9-26.3-20.2c-8-5.7-38.6-22.6-31.6-11
	c7.6,12.6,22.2,17.5,27.8,33.4c5.8,16.6-15.2,13-22.3,5.2c-7.8-8.5-16.6-13.5-24.8-23.2c-6.8-8-14.4-6.2-15.9,5.2
	c-1.6,12-6.1,23.4-7.7,35.2c-2,15.2-3.6,30.6-4.4,46 M368.7,95.4c0.8,1.8,2.4,3,3,4.9c1.3,4.2,2.2,8.6,1.6,13
	c-0.2,1.5-0.2,3.8-1.8,4.1c-1.6,0.3-2.9-0.8-4.2-1.6c-3.1-1.9-7.3-3.7-8.3-7.2c-0.6-1.9,0.8-3.9-0.2-5.8c-1.3-2.8-1.3-6.5,1-8.8
	c1.2-1.2,2.9-2,4.7-2 M86.2,101.9c2.3-2.9,6.3-4.7,10-3.3c2,0.8,2.9,3,2.5,5c-1,4.5-4,8.2-7.3,11.2c-3.1,2.9-6.7,5.6-10.9,6.4
	c-2.1,0.4-4.3-0.8-5.1-2.9c-1.3-3.2,0.6-6.4,2.5-8.9 M320.1,98.8c3.3,2.2,6.3,5,8.1,8.6c1.8,3.5,3.9,6.8,4.9,10.7
	c0.3,1.2,0.6,3.3-1,3.6c-2.4,0.5-5,0.4-7.1-0.6c-4.9-2.3-8.9-7.2-9.1-12.8C315.8,104.7,317.6,101.3,320.1,98.8L320.1,98.8z
	 M174.9,120.2c2-4.1,3.7-8.5,7.2-11.7c3.1-2.8,6.3-5.7,10.4-7.1c1.8-0.6,4,0.3,4.6,2.2c1.2,3.6,0.3,7.6-0.9,11
	c-1.8,5-4.7,10-9.2,13.1c-2.8,1.9-6.8,2.4-9.6,0.3c-1.4-1-3.6-1.9-3.5-3.9"/>
<path class="st3" d="M246.2,455.1c-71.9,15.3-114.5-42.8-161.7-47.4c-36.7-3.6-50.3,12.4-84.2,42.7C12.3,486.2,46,512,85.8,512
	h340.9c39.2,0,72.6-25.1,85-60c-33.8-13.1-52.4-34.5-117.2-45.8C306.9,390.9,318.1,439.8,246.2,455.1z"/>
</svg>
