<svg xmlns="http://www.w3.org/2000/svg" xml:space="preserve" viewBox="0 0 512 512"><path d="M390.9 164.8c0 23-68 42.6-148.8 42.6S93.3 187.8 93.3 164.8c0-15.6 31.6-29.9 77.5-37.3.8 1.6 2.9 2.9 3.7 3.7.4 0 .4.4.8.4 2 1.2 4.1 2 6.6 2s5.3-.8 7.4-2.5c2.5-1.6 4.9-4.1 6.6-7 6.1-.4 12.7-1.2 19.3-1.6-.4 4.1-.8 8.2-.8 12.3-54.1 2.5-103.3 12.7-103.3 28.3 0 18 66 28.7 129.9 28.7s129.9-10.7 129.9-28.7-66-28.7-129.9-28.7h-7l1.2-12.3h6.6c81 .1 149.1 19.4 149.1 42.7m-.5 86.9v-73.3c-18.4 20.5-78.3 34.8-148.4 34.8-70.5 0-130.3-14.3-148.4-34.8v73.8c3.3 22.1 69.7 40.6 148.4 40.6s145.6-18.5 148.4-41.1M141.2 422.2c30.3 16.8 61.9 34.4 104.5 25 28.7-6.1 43.4-17.2 57.4-28.3 16-12.3 30.3-23.4 60.3-23.8V279.6c-29.5 11.5-73.4 18-121.3 18s-92.2-6.6-121.7-18.4h-.4v131.2c7.3 4 14.3 8.1 21.2 11.8m178.3-252c-8.6-2.9-16.8-5.7-24.6-10.2-13.5-7.8-28.3-9-42.6-11.9-6.1-1.2-12.7-2-18.9-2.5-.4 4.1-.4 7.8-.8 11.5h-2s-.4 0-.4.4v.4h-.8c-2 .4-4.5.8-7.4.8-1.6 0-3.7 0-4.9-.4l-3.3-.4v-.4h-.4l-2-.4c.8-3.7 1.2-7.4 1.6-11.5-7 .4-13.9 1.2-20.9 2-9 .8-17.6 4.5-26.2 6.6-13.1 2.9-25 11.1-34 21.3 31.2 8.6 32.8 8.2 32.8 8.2 14.8 1.2 28.7 3.7 43.9 3.7 10.7.8 21.3 1.2 32 1.2 17.6.4 34.8-.4 51.6-2.5l18.4-2 15.2-2.5c12.2 0-1.8-9.8-6.3-11.4m14-52.1c.4 1.2.4 3.3-.8 3.7-2.5.4-4.9.4-7-.4-4.9-2.5-9-7.4-9-12.7 0-3.7 1.6-7 4.1-9.4 3.3 2 6.1 4.9 8.2 8.6 1.6 3.2 3.6 6.5 4.5 10.2m4.1-51.2c-5.7-10.7-8.6-22.1-17.2-30.7-9.8-9.8-18.9-23-33.6-25C270 8.7 254.8-.7 238 .1c-17.6.8-34 6.6-51.2 8.2-16.8 1.6-32 11.1-46.7 19.3-13.5 7.8-27.1 16.4-35.3 30.3-9.8 16.8 15.6 16.8 25 10.2 14.3-10.2 29.9-18 45.5-25.8 7.8-4.1-9.8 18-13.1 25.4-4.1 9.8-22.1 26.6-11.1 34.8 10.2 7.8 19.3-15.6 27.9-24.2 9-9.4 12.3-23 22.5-31.6 9-7.4 21.7 11.5 20.1 23.8-1.6 11.9 0 30.3-1.6 38.1-.4 1.2 0 8.2-.4 11.1-.8 12.7-2 25-4.1 37.3l13.1-.4c.8-15.6 2.5-30.7 4.5-45.9 1.6-11.9 6.1-23.4 7.8-35.3 1.6-11.5 9-13.1 16-5.3 8.2 9.8 16.8 14.8 24.6 23.4 7 7.8 28.3 11.5 22.1-5.3-5.7-16-20.1-20.9-27.9-33.6-7-11.5 23.8 5.3 31.6 11.1 9 6.1 15.6 18 26.2 20.1 17.6 4 8.2-11.2 4.1-18.9m-257 54.5c4.1-.8 7.8-3.7 11.1-6.6s6.1-6.6 7.4-11.1c.4-2-.4-4.1-2.5-4.9-3.7-1.2-7.8.4-9.8 3.3l-8.2 7.4c-2 2.5-3.7 5.7-2.5 9 .4 2.1 2.4 3.3 4.5 2.9m288.5-25.8-4.1-3.3c-1.6 0-3.3.8-4.5 2-2.5 2.5-2.5 6.1-.8 8.6.8 2-.4 4.1 0 5.7 1.2 3.7 5.3 5.3 8.2 7.4 1.2.8 2.5 2 4.1 1.6s1.6-2.5 1.6-4.1c.4-4.5-.4-8.6-1.6-13.1-.4-2-2.1-3.2-2.9-4.8m-176.2 6.1c-4.1 1.2-7.4 4.1-10.2 7-3.7 3.3-5.3 7.8-7.4 11.9l-1.2 4.1c0 2 2 2.9 3.7 4.1 2.9 2 7 1.6 9.4-.4 4.5-3.3 7.4-8.2 9-13.1 1.2-3.3 2-7.4.8-11.1-.4-2.5-2.5-3.3-4.1-2.5m53.7 353.7c-71.7 15.2-114.8-43-161.9-47.5-36.9-3.7-50.4 12.3-84.4 42.6C12.1 486.2 46.1 512 85.9 512h341c39.3 0 72.6-25 84.8-60.3-34-13.1-52.5-34.4-117.2-45.9-87.3-14.7-75.8 34.5-147.9 49.6"/></svg>