<svg xmlns="http://www.w3.org/2000/svg" xml:space="preserve" viewBox="0 0 512 512"><path d="M0 0v512h512V0zm128.9 439H70.6v-27.4h58.3zm0-56H70.6v-27.4h58.3zm0-56H70.6v-27.4h58.3zm85.8 112h-58.3v-27.4h58.3zm0-56h-58.3v-27.4h58.3zm0-56h-58.3v-27.4h58.3zm85.7 112h-58.3v-27.4h58.3zm0-56h-58.3v-27.4h58.3zm0-56h-58.3v-27.4h58.3zm85.7 112h-58.3v-27.4h58.3zm53.4-56H327.8v-27.4h111.7zm-111.7-56v-27.4H411V327zm140.5-55.2H43.7v-56.3h424.6zM70.6 187.7v-31.2h85.7v31.2zm114.9 0v-31.2h111.8v31.2zm282.8-58.3H43.7V73h424.6z" style="fill:#fff"/></svg>