<svg xmlns="http://www.w3.org/2000/svg" xml:space="preserve" viewBox="0 0 512 512"><path d="M0 0h512v512H0z" style="fill:#1c1c1c"/><path d="M70.6 411.6h58.3V439H70.6zm0-56h58.3V383H70.6zm0-56h58.3V327H70.6z" style="fill:#fc1262"/><path d="M242.1 411.6h58.3V439h-58.3zm0-56h58.3V383h-58.3zm0-56h58.3V327h-58.3z" style="fill:#65d8fd"/><path d="M327.8 411.6h58.3V439h-58.3zm0-56h111.7V383H327.8zm0-56H411V327h-83.2zM70.6 156.5h85.7v31.2H70.6z" style="fill:#c6c6c6"/><path d="M156.3 411.6h58.3V439h-58.3zm0-56h58.3V383h-58.3zm0-56h58.3V327h-58.3zm29.2-143.1h111.8v31.2H185.5z" style="fill:#b0d52b"/><path d="M43.7 73h424.6v56.3H43.7zm0 142.5h424.6v56.3H43.7z" style="fill:#585858"/></svg>