<?xml version="1.0" encoding="utf-8"?>
<!-- Generator: Adobe Illustrator 28.2.0, SVG Export Plug-In . SVG Version: 6.00 Build 0)  -->
<svg version="1.1" id="Layer_1" xmlns="http://www.w3.org/2000/svg" xmlns:xlink="http://www.w3.org/1999/xlink" x="0px" y="0px"
	 viewBox="0 0 512 512" style="enable-background:new 0 0 512 512;" xml:space="preserve">
<style type="text/css">
	.st0{fill:#1C1C1C;}
	.st1{fill:#FC1262;}
	.st2{fill:#65D8FD;}
	.st3{fill:#C6C6C6;}
	.st4{fill:#B0D52B;}
	.st5{fill:#585858;}
</style>
<rect class="st0" width="512" height="512"/>
<path class="st1" d="M70.6,411.6h58.3V439H70.6V411.6z M70.6,355.6h58.3V383H70.6V355.6z M70.6,299.6h58.3V327H70.6V299.6z"/>
<path class="st2" d="M242.1,411.6h58.3V439h-58.3V411.6z M242.1,355.6h58.3V383h-58.3V355.6z M242.1,299.6h58.3V327h-58.3V299.6z"/>
<path class="st3" d="M327.8,411.6h58.3V439h-58.3V411.6z M327.8,355.6h111.7V383H327.8V355.6z M327.8,299.6H411V327h-83.2V299.6z
	 M70.6,156.5h85.7v31.2H70.6V156.5z"/>
<path class="st4" d="M156.3,411.6h58.3V439h-58.3V411.6z M156.3,355.6h58.3V383h-58.3V355.6z M156.3,299.6h58.3V327h-58.3V299.6z
	 M185.5,156.5h111.8v31.2H185.5V156.5z"/>
<path class="st5" d="M43.7,73h424.6v56.3H43.7V73z M43.7,215.5h424.6v56.3H43.7V215.5z"/>
</svg>
