<?xml version="1.0" encoding="utf-8"?>
<!-- Generator: Adobe Illustrator 28.2.0, SVG Export Plug-In . SVG Version: 6.00 Build 0)  -->
<svg version="1.1"
	 id="svg1" xmlns:svg="http://www.w3.org/2000/svg" xmlns:sodipodi="http://sodipodi.sourceforge.net/DTD/sodipodi-0.dtd" xmlns:inkscape="http://www.inkscape.org/namespaces/inkscape" sodipodi:docname="gomft_golpher.svg"
	 xmlns="http://www.w3.org/2000/svg" xmlns:xlink="http://www.w3.org/1999/xlink" x="0px" y="0px" viewBox="0 0 512 512"
	 style="enable-background:new 0 0 512 512;" xml:space="preserve">
<style type="text/css">
	.st0{fill:#96D6FF;}
	.st1{fill:#394655;}
	.st2{fill:#E1D6B9;}
	.st3{opacity:7.000000e-02;fill:#1E1E1E;}
	.st4{fill:#FFFFFF;}
	.st5{fill:#394455;}
	.st6{fill:#1E1E1E;fill-opacity:8.542710e-02;}
	.st7{fill:#2E3436;}
	.st8{fill:#E1D0CB;}
	.st9{fill:#FFC36E;}
	.st10{fill:#EFF2FA;}
	.st11{fill:#E1E6F2;}
	.st12{fill:#FFD782;}
	.st13{fill:#C7CFE2;}
	.st14{fill:#D7DEED;}
</style>
<path id="path4806" inkscape:connector-curvature="0" sodipodi:nodetypes="sssssssssssssssss" class="st0" d="M258,43.3
	c1.6,3.7,4.6,6.7,8.1,8.8c3.5,2.1,7.5,3.4,11.4,4.1c3.9,0.6,7.7,0.5,11.5-0.4c3.8-1,8.3-2.5,11.5-5.3c3.2-2.7,4.4-6.1,5-9.3
	c0.7-3.1,1.2-6.7,3.3-10.9c2.1-4.3,4-8.6,3.8-11.7c-0.2-3.1-0.9-6-2.3-8.5c-1.4-2.5-3.3-4.3-5.5-5.6c-2.3-1.3-4.9-2-7.8-2.3
	c-2.9-0.2-6.1,0-9.4,0.7c-3.4,0.7-6.9,1.9-10.5,3.7c-3.6,1.8-6.9,3.9-9.8,6.4c-2.9,2.5-5.4,5.3-7.3,8.4c-1.9,3.1-3.1,6.5-3.4,9.9
	C256.6,34.7,256.5,39.6,258,43.3z"/>
<path class="st1" d="M279.1,3.4c2.9-1.2,5.8-2,8.6-2.6c3.7-0.8,7.2-1,10.4-0.7c3.2,0.3,6.1,1.1,8.6,2.5c2.5,1.4,4.6,3.4,6.2,6.1
	s2.4,5.8,2.7,9.2c0.2,3.4-1.1,7.8-3.4,12.4c-2.4,4.6-3,8.5-3.7,11.9c-0.7,3.4-3,6.5-7.1,9.1c-0.5,0.3-1.5-1-1.1-1.3
	c3.2-2.8,4-6.2,5-9.1c0.7-3,1.2-6.5,3.3-10.6s3.9-8.4,3.8-11.4c-0.1-3.1-0.9-5.9-2.2-8.3c-1.3-2.4-3.2-4.2-5.4-5.5s-4.8-2-7.6-2.2
	c-2.8-0.2-5.9,0-9.2,0.7c-1.6,0.4-3.3,0.8-5,1.4c-1.7,0.6-3.5,1.3-5.2,2.2c-3.5,1.7-6.8,3.8-9.6,6.2c-2.8,2.4-5.3,5.2-7.1,8.2
	c-1.8,3-3,6.3-3.3,9.7c-0.3,3.4-0.4,8.1,1.1,11.7c1.2,3,3.4,5.5,6.1,7.3c0.5,0.3-1.5,2.5-3.1,1.6c-2.9-1.8-4.8-4.6-6.1-7.6
	c-1.7-4-1.9-9.2-1.6-13s1.6-7.5,3.6-10.8c2-3.4,4.7-6.4,7.9-9.1c3.2-2.7,6.8-4.9,10.7-6.8C277.1,4.2,278.1,3.8,279.1,3.4L279.1,3.4z
	 M304.9,23c-0.5-0.8-1.8-1.1-3.9-0.5c-3.1,0.8-6.6,4.3-8.6,6.9c-1.1,1.4-2.3,2.8-2.9,4.5c-0.2,0.6-0.4,1.2-0.2,2
	c0.7-0.1,1.2-1,1.6-1.7c1.4-2.7,3.4-5.2,6-7c2.2-1.5,2.4-2.6,4.6-3.5C303,23.1,303.8,23.4,304.9,23L304.9,23z M292.9,28.8
	c-0.6-0.6,0.5,1.3,1.3,1.6c2.8,0.9,5.5,2.2,8.3,3.2c0.9,0.3,1.2-0.6,0.4-1.1c-0.8-0.5-1.6-0.8-2.4-1.1c-0.8-0.3-1.6-0.4-2.4-0.7
	c-1.5-0.7-2.3-1.6-3.7-2.3C293.8,28.1,293.2,29.2,292.9,28.8L292.9,28.8z"/>
<path id="path4706" inkscape:connector-curvature="0" sodipodi:nodetypes="sssssssssssssssss" class="st2" d="M397.2,300.4
	c2,4.3,4.3,7.2,6.9,8.9c2.6,1.7,5.5,2.2,8.8,2.2s6.8-0.6,10.5-1.3c3.7-0.7,7.7-1.6,11.6-2.5s7.5-2,10.7-3.3s6-2.8,8.2-4.5
	c2.2-1.7,3.7-3.7,4.4-6c0.7-2.3,0.4-5-0.9-8.2c-1.4-3.1-3.2-5.2-5.3-6.3c-2.1-1.1-4.6-1.3-7.3-0.9s-5.6,1.5-8.8,2.6
	c-3.2,1.2-6.7,2.4-10.7,3.3c-4,0.9-8.3,1-12.4,1.1c-4.1,0.1-8,0.2-11,1c-3,0.7-5.2,2-6.1,4.2C394.8,293,395.2,296.1,397.2,300.4z"/>
<path id="path4708" inkscape:connector-curvature="0" sodipodi:nodetypes="ssscsscssssssssssssssssssssccsss" class="st1" d="
	M399.9,284.6c2.8-0.9,6.3-1.4,10.1-1.8c4.4-0.4,9.1-0.8,13.7-1.8c4.6-1,8.7-2.3,12.4-3.5c3.8-1.2,7.2-2.1,10.4-2.4
	c3.2-0.2,6.2,0.2,8.8,1.7c2.6,1.4,4.8,3.8,6.4,7.2c1.6,3.4,1.9,6.5,1.2,9.3c-0.7,2.8-2.5,5.3-4.9,7.5c-2.5,2.2-5.6,4.2-9.3,5.9
	c-3.7,1.7-7.8,3.1-12.3,4.2c-4.5,1.1-8.9,2-12.9,2.6c-4.1,0.7-7.8,1.1-11.2,1c-1.3-0.1-2.5-0.2-3.7-0.5c-2.4-0.6-4.3-5.6-1.9-4.5
	c2.2,1,4.5,1.4,7.1,1.4c3.1,0,6.5-0.6,10.1-1.2c3.6-0.7,7.4-1.5,11.2-2.4c3.8-0.9,7.3-1.9,10.3-3.2c3.1-1.3,5.8-2.7,7.8-4.4
	c2.1-1.7,3.6-3.5,4.2-5.8c0.6-2.2,0.4-4.8-0.9-7.8c-1.3-3-3.1-5-5.1-6c-2.1-1.1-4.4-1.3-7-0.8s-5.4,1.4-8.5,2.5s-6.5,2.3-10.3,3.2
	c-3.8,0.8-8,1-11.9,1.1s-7.7,0.2-10.6,0.9c-0.4,0.1-0.7,0.2-1.1,0.3c-0.9,0.3-1.7,0.6-2.3,1c-0.8,0.5-3-2.3-0.7-3.1
	C399.1,284.9,399.5,284.8,399.9,284.6z"/>
<path id="path4678" inkscape:connector-curvature="0" sodipodi:nodetypes="sssssssssssssssss" class="st1" d="M411.7,404.8
	c10.1,9.8,12.3,24.2,16.9,33.9c4.5,9.7,11.3,14.8,16.6,18.6c5.3,3.9,9.6,6.2,13.2,6.2c3.6,0,6.5-2.2,8.8-7.4
	c2.3-5.2,2.2-10.2,0.4-15.4c-1.8-5.2-5.3-10.5-9.7-16.8c-4.4-6.3-9.5-13.8-17.3-21.3c-7.8-7.5-17.9-15.9-32.1-22.8
	c-14.1-6.9-30.2-10.8-44.1-13.6c-13.9-2.9-25.7-4.8-34.8-6.1c-9.1-1.3-15.8-1.8-20.4-1.4c-4.6,0.3-7.2,1.5-7.5,3.5
	c-0.4,2,1.9,4.3,7,6.7s13,5,23.9,7.6c10.9,2.6,24.9,5.2,39.4,9.2C386.5,389.6,401.6,395,411.7,404.8L411.7,404.8z"/>
<path id="path4680" inkscape:connector-curvature="0" sodipodi:nodetypes="sssssssssssssssss" class="st2" d="M413,400.7
	c9.4,7.8,13.5,18.8,16.9,28.6c3.4,9.9,8.1,16.5,13,20.7c4.9,4.2,9.2,6.8,12.6,7.5s6-0.7,7.9-4.9c1.9-4.2,1.4-8.5-0.7-13.1
	c-2.1-4.6-5.8-9.4-10-15.5c-4.2-6.1-8.9-13.4-16-20.4c-7.1-7-16.3-14.3-28.2-20.4c-11.8-6.1-25.1-9.7-36.8-12.4
	c-11.8-2.7-22.1-4.4-30.2-5.6c-8.1-1.2-14.2-1.9-18.3-1.9c-4.1,0-6.3,0.6-6.5,1.9s2.2,2.9,7.1,4.7c4.8,1.8,12.2,3.7,21.8,5.9
	c9.6,2.2,21.5,4.6,33.6,8.3C391.3,387.8,403.5,392.9,413,400.7L413,400.7z"/>
<path id="path4609" inkscape:connector-curvature="0" sodipodi:nodetypes="cssssccscscsssssc" class="st1" d="M244.3,36
	c1.4,0,2.7,0,4.1,0.1c45.6,1.2,96.7,6.1,130.2,43.2c35,38.9,54.2,93.5,45.3,143.7c-4,22.1-11.7,52.7-18.9,66.5
	c-7.6,14.5-21.1,13.5-21.4,15.6c-1,8.8,30.6,0,49,18.7c15,15.2,19.7,43.4,20.1,63.6c0.1,4.9,0,9.9-0.4,15
	c-15.5,37.9-50.8,60.9-111.8,77c-17.4,4.6-35.2,7.3-52.6,8.5c-36.2-1.5-72.3-6.5-106.8-18.4c-34.8-12-59.9-43.6-79.7-78.8
	c-31.4-55.6-38.1-123.9-29.1-188.1c7.5-53.8,12.4-92.7,55.7-124.5C162.4,52.8,202.3,36,244.3,36L244.3,36z"/>
<path id="path4611" inkscape:connector-curvature="0" sodipodi:nodetypes="sssscssccscsssss" class="st0" d="M244.5,42.1
	c45.8,0.3,97.5,4.9,131.1,42.4c31.3,34.9,46.6,82.3,43.2,127.6c-2,25.9-4.5,50-16.4,73.1c-7.9,15.4-27.4,18.1-27.5,22.9
	c-0.1,3.2,13.7,2.4,38.9,10c19.4,5.8,22.5,16.5,29.8,37.2c3.8,10.7,3.9,22.8,4.1,34.2c0.1,4.9-0.2,9.9-0.8,14.9
	c-16.8,33.9-51.5,55.1-108.7,70.3c-21.2,5.6-42.9,8.4-63.9,9.2c-25-1.7-49.8-5.5-73.9-12.2c-38.9-10.8-69.8-42-92.2-80.8
	C76.7,336.2,69.7,269.5,76.9,206c6.2-54,11.8-92.7,55.4-123.7C165.9,58.5,204,41.8,244.5,42.1L244.5,42.1z"/>
<path id="path4629" inkscape:connector-curvature="0" sodipodi:nodetypes="cscscccccsccccc" class="st1" d="M439.2,339.8
	c-8.5-19.1-35.5-31.5-63.9-28.1c-38.8,4.7-114.1,31.1-116,29.3c35.1-16.3,86-28,120.1-37.8c11.9-3.4,20.6-10.3,25.7-22.3
	c0,0-4.7,10.7-5.1,10.9c-0.4,0.3-8.3,6.4-8.3,6.4s-7.2,3.7-7.8,4c-0.5,0.3-5.1,3.6-5.1,3.6s2.3,1.7,3.2,1.9c0.9,0.3,3.2,1.8,4.9,1.9
	c1.8,0.2,7.6,0.7,12.7,1.5c5.1,0.8,16.1,3.4,18.6,4.7c2.6,1.2,8.1,4.3,8.4,4.8S439.2,339.8,439.2,339.8L439.2,339.8z"/>
<path id="path4670" inkscape:connector-curvature="0" sodipodi:nodetypes="sssssssssssssssss" class="st2" d="M302.5,454.2
	c4.3-0.8,7.7-0.5,10.4,0.6c2.7,1.1,4.6,3,6.3,5.5c1.7,2.5,3.1,5.5,4.6,8.7c1.4,3.2,2.9,6.7,4.2,10.1c1.4,3.5,2.4,6.8,3.1,9.9
	c0.7,3.1,1,6,0.8,8.6c-0.2,2.6-0.8,4.8-2.3,6.5c-1.4,1.7-3.6,3-6.7,3.6s-5.6,0.3-7.6-0.8c-2-1-3.4-2.8-4.5-5.1
	c-1.1-2.3-1.8-5-2.6-8.1c-0.8-3.1-1.7-6.4-3.1-9.9s-3.6-6.8-5.7-10s-4-6.2-5.1-8.9c-1-2.7-1.2-5,0-6.9
	C295.6,456.3,298.1,455,302.5,454.2z"/>
<path id="path4672" inkscape:connector-curvature="0" sodipodi:nodetypes="csscsscssssssssssssssssssssccsssc" class="st1" d="
	M291.9,464.6c0.8,2.6,2.2,5.5,4,8.6c2,3.5,4.2,7.3,5.9,11.3c1.6,4,2.8,7.8,3.9,11.3c1.1,3.5,2.2,6.6,3.7,9.2
	c1.5,2.6,3.4,4.6,5.9,5.8c2.4,1.2,5.4,1.6,8.8,1.1c3.4-0.6,5.9-2,7.7-4c1.7-2,2.7-4.6,3.1-7.7c0.4-3,0.2-6.5-0.4-10.2
	c-0.6-3.7-1.7-7.6-3.3-11.6c-1.6-4-3.2-7.8-4.8-11.2c-1.6-3.4-3.3-6.5-5.2-9c-0.7-1-1.5-1.8-2.4-2.6c-1.7-1.5-6.5-0.3-4.4,0.9
	c1.9,1.1,2.5,2.6,3.8,4.5c1.6,2.4,2.7,5.5,4,8.4s3.6,5.7,4.8,8.8c1.2,3.1,2.2,6.1,2.8,8.9c0.6,2.9,0.9,5.6,0.7,8
	c-0.2,2.4-0.8,4.5-2.1,6.1c-1.3,1.6-3.3,2.7-6,3.3c-2.8,0.5-4.9,0.2-6.6-0.7c-1.6-1-1.8-3.8-2.5-5.9c-0.8-2.1-2-4.7-2.7-7.4
	c-0.7-2.7-1.9-4.4-3.5-7.4c-1.7-3-4.2-5.9-6.6-8.9c-2.3-3-4.2-5.9-5.2-8.5c-0.1-0.3-0.2-0.6-0.3-1c-0.3-0.8-0.4-1.6-0.5-2.3
	c0-0.8-3.3-1.1-2.7,1.1C291.7,463.8,291.8,464.2,291.9,464.6L291.9,464.6z"/>
<path id="path4796" inkscape:connector-curvature="0" sodipodi:nodetypes="sssssssssssssssss" class="st0" d="M117.7,79.8
	c3.1,4.2,4.5,9.1,4.6,13.8c0.1,4.8-0.8,9.4-2.5,13.4c-1.7,4-4.1,7.5-7.4,10.3c-3.3,2.8-7.7,5.9-12.6,6.9c-4.9,1-9.3-0.5-13.2-2.4
	c-3.9-1.9-8.3-4.4-14.4-5.9c-6.1-1.5-12-3.2-15.5-6.1c-3.5-2.9-6.5-6.1-8.6-9.7c-2.1-3.6-3.3-7.1-3.6-10.6c-0.3-3.5,0.3-6.9,1.6-10
	c1.3-3.2,3.4-6.1,6.2-8.7c2.8-2.6,6.3-4.8,10.6-6.4c4.3-1.6,8.9-2.5,13.7-2.7c4.8-0.2,9.8,0.3,14.6,1.5c4.8,1.2,9.5,3.1,13.6,5.8
	C109.1,71.7,114.6,75.6,117.7,79.8L117.7,79.8z"/>
<path class="st1" d="M58.4,63.6c-3.1,1.6-5.9,3.5-8.1,5.7c-3,2.9-5.3,6.2-6.7,9.7c-1.4,3.5-2.1,7.2-1.8,11.1
	c0.3,3.8,1.5,7.7,3.7,11.7c2.2,3.9,5.4,7.5,9.1,10.6c3.8,3.1,9.4,5.4,16,6.8c6.6,1.5,11.4,4.1,15.6,6.1c4.2,2,8.9,2.1,14.1,0.2
	c0.6-0.2-0.1-2.1-0.7-2c-5,0.9-9.2-1-13-2.3c-3.8-1.8-8.1-4.2-14-5.7c-5.9-1.5-11.7-3.1-15.2-5.9c-3.5-2.8-6.3-6-8.4-9.4
	c-2.1-3.5-3.2-7-3.5-10.4c-0.3-3.4,0.3-6.7,1.5-9.8s3.3-6,6.1-8.5c1.4-1.3,2.9-2.4,4.7-3.5c1.7-1,3.6-2,5.7-2.8
	c4.2-1.6,8.7-2.4,13.4-2.6c4.7-0.2,9.5,0.3,14.3,1.5s9.3,3,13.3,5.6c4,2.6,9.4,6.3,12.5,10.4c2.5,3.4,3.9,7.2,4.3,11
	c0.1,0.7,3.6,0.4,3.6-1.7c-0.2-3.9-2-7.7-4.5-11c-3.4-4.5-8.9-8.7-13.4-11.6c-4.5-2.8-9.5-4.9-14.7-6.2C87,59.3,81.6,58.8,76.5,59
	c-5.2,0.3-10.2,1.3-14.8,3.1C60.6,62.6,59.5,63.1,58.4,63.6L58.4,63.6z M71.7,92.2c0.2-1.5,1.9-2.7,5.1-3.2
	c4.9-0.8,12.1,1.8,16.5,4.2c2.4,1.3,5,2.5,7,4.5c0.7,0.7,1.3,1.4,1.6,2.6c-1.1,0.3-2.4-0.7-3.4-1.4c-3.7-2.9-8.1-5.1-12.9-6
	c-4-0.7-5.1-2.1-8.8-2C74.5,91,73.6,92,71.7,92.2z M92.5,92.7c0.4-1.3,0.1,2.2-0.8,3.1c-3.4,3.1-6.4,6.6-9.6,9.9
	c-1.1,1.1-2-0.1-1.3-1.3c0.8-1.2,1.7-2.2,2.7-3.2c0.9-0.9,2.1-1.6,2.9-2.6c1.6-1.9,2.2-3.6,3.7-5.6C90.6,92.3,92.2,93.4,92.5,92.7
	L92.5,92.7z"/>
<path id="path4829" inkscape:connector-curvature="0" class="st3" d="M409.5,268.7c-22.1,5.9-47.2,11.6-70.6,16.4
	c-48.8,9.9-67.2,36.1-78.5,54.4l6.9-1.7c36.6-15.3,75.8-23.2,113.5-35.3c12.1-3.5,21.1-13.5,25.5-25
	C407.4,274.6,408.5,271.6,409.5,268.7z"/>
<path id="path4834" inkscape:connector-curvature="0" sodipodi:nodetypes="ccccssccccccccccccccccccccccsssc" class="st3" d="
	M175.5,57.2c-12,5.4-23.6,11.9-34.4,19.1c-5.4,4.1-12,7.1-16.5,12.3c0.1,0.6-0.2,1.2-0.7,1.5c-0.7,4.2-1.4,8.4-2.1,12.5
	c-5.7,32.5-33.9,3.5-50.9,0c-10.5-2.2-19.7-11.2-16.2-32.7c-1.6,1.2-3.1,2.6-4.4,4.2c-5.3,6-6.1,15.3-3.2,22.6
	c4.2,7.6,10.5,15.2,19.4,17.1c7.9,2,15.3,5.4,22.8,8.4c3.4,1.5,7.8,0.6,10.8,2.4c-2.4,1.6-6.5,1.2-7.3,4.9
	c-9.5,22.5-12.5,47-15.6,71c-3.6,29.3-3.8,59.1-1.2,88.5c5.1,45.9,20.8,91.2,49.4,127.8c20,26.4,47.4,48.6,80.1,56.2
	c22.5,5.5,45.4,9.5,68.6,10.7c8.5-0.4,17.2-0.5,25.6-2c0.4-2.8-2.6-5.6-3.5-8.2c-1.4-3.4-4.2-6.9-4.2-10.6c2.1-1.5,1.8-4.8,4.7-5.9
	c5.6-3.6,12.8-2.4,18.9-1.8c5.8,0.5,7.1,7.2,9.9,11.2c2.1,3.1,2.4,7.9,5.6,10.1c26.2-6.5,52.4-14.9,75.5-29
	c17.1-10.5,31.7-25.3,40.9-43.2c-0.3-7.9,0.1-15.8,0-23.7c-36.5,9.9-97.7,26.5-128.4,31.9c-44.5,7.8-96.9,9.2-150.6-30.4
	c-65.7-48.4-44.5-229.8-35.4-265.2C137.9,98.3,151,78.1,175.5,57.2L175.5,57.2z"/>
<path id="path4842" inkscape:connector-curvature="0" class="st3" d="M234.7,353.9c0,0,16,16.2,23.5,19.2c7.5,3,22.2,11.7,30,15.7
	s8.2,10.8,24.5,4.5s21.7-10.7,33-12.5s19.2-1,26.8-4.2s25.5-11.5,30.5-14.2s10.2-2.8,14.7-4.2c4.5-1.5,18.2-0.2,20.8-4s4-4.2,3.2-7
	s-7.5-16-16-18s-15.7-2.5-39-2s-20-1.2-41.8,4.8c-21.7,6-15.7,11.5-39.7,13.8s-18.2,2.2-31.5,1.8s-12.5-0.2-21-1.8
	C244.2,344.2,234.7,353.9,234.7,353.9z"/>
<path id="path4844" inkscape:connector-curvature="0" sodipodi:nodetypes="ccccc" class="st3" d="M388,362.2c16,6.2,18,42.2,18,42.2
	s4.2,3.5,4.5-0.8c5.7-7.8-8.9-48-14.8-44.2L388,362.2z"/>
<path id="path4846" inkscape:connector-curvature="0" class="st3" d="M278.8,6c-3.3,1.5-6.5,3.4-9.3,5.5
	c-5.8,4.4-10.9,10.6-12.2,17.9c-0.3,2.3-0.4,4.6-0.3,6.8c0.5,0.7,1.8,0.3,2.6,0.5c3.6,0.2,7.2,0.4,10.8,0.6
	C267.3,30.3,268,19.1,278.8,6z"/>
<path id="path4631" inkscape:connector-curvature="0" sodipodi:nodetypes="sssssssssssssssss" class="st1" d="M137.5,188.2
	c0.3,11.1,3.1,21.8,7.8,31.8s11.4,19.1,19.4,27.1c8.1,8,17.5,14.7,27.9,19.6c10.4,5,21.7,8.1,33.5,8.9c11.8,0.8,22.9-0.9,33-4.6
	c10.1-3.8,19.1-9.6,26.6-17.2c7.5-7.5,13.5-16.7,17.5-27c4-10.3,6.1-21.8,5.8-33.8s-3-23.5-7.6-33.9c-4.6-10.4-11.1-19.6-18.9-27.3
	c-7.9-7.7-17.2-13.7-27.4-17.8c-10.3-4.1-21.5-6.2-33.3-6c-11.8,0.2-23,2.6-33.2,6.7c-10.2,4.1-19.4,10-27,17.2
	c-7.7,7.2-13.8,15.7-18,25.2C139.4,166.6,137.2,177,137.5,188.2L137.5,188.2z"/>
<path id="path4633" inkscape:connector-curvature="0" sodipodi:nodetypes="sssssssssssssssss" class="st4" d="M143.3,185.6
	c0,10.5,2.3,20.7,6.4,30.4c4.1,9.6,10.1,18.7,17.6,26.5c7.4,7.9,16.3,14.6,26.2,19.5c9.8,4.9,20.6,8.1,31.9,8.9
	c11.3,0.8,21.9-0.8,31.5-4.5s18.2-9.2,25.3-16.4c7.1-7.2,12.9-15.8,16.7-25.6c3.9-9.7,5.9-20.5,5.7-31.7s-2.7-21.9-6.9-31.5
	c-4.2-9.6-10.3-18.1-17.6-25.2c-7.3-7.1-16-12.7-25.6-16.5c-9.6-3.8-20.1-5.9-31.1-6c-11-0.1-21.5,1.9-31,5.5
	c-9.6,3.5-18.2,8.7-25.4,15.1c-7.3,6.4-13.2,14.1-17.2,22.7C145.6,165.5,143.3,175.2,143.3,185.6L143.3,185.6z"/>
<path class="st5" d="M254.6,176.5c-0.9,5.4-5.6,9.5-11.2,9.5c-6.3,0-11.4-5.1-11.4-11.4c0-5.5,3.9-10.1,9-11.2
	c-2.5-0.9-5.1-1.4-7.9-1.4c-12.8,0-23.2,10.4-23.2,23.2s10.4,23.2,23.2,23.2c12.8,0,23.2-10.4,23.2-23.2
	C256.2,182.1,255.6,179.2,254.6,176.5z"/>
<path id="path4643" inkscape:connector-curvature="0" sodipodi:nodetypes="sssssssssssssssss" class="st1" d="M381,125
	c-3.3,6.8-5.7,14.4-7.2,22.6c-1.4,8.1-1.8,16.8-0.9,25.3c0.9,8.5,3,16.8,5.8,24.1c2.8,7.3,6.3,13.7,10.6,18.7
	c4.3,5,9.2,8.3,14.5,10.1c5.4,1.8,12.3,4.4,18.3,3.4c6-1.1,12.2-3.5,18.2-7.3c6-3.8,11.7-9,16.6-15.6c4.9-6.6,8.5-13.9,10.7-21.5
	s3-15.6,2.3-23.4c-0.7-7.8-4.1-18.1-7.6-25.1s-8.4-13.6-14.4-19.1c-6-5.5-12.6-9.4-19.2-11.9c-6.6-2.4-13.2-3.3-19.2-2.6
	c-6,0.7-11.6,2.9-16.4,6.6C388.3,113,384.3,118.2,381,125z"/>
<path id="path4645" inkscape:connector-curvature="0" sodipodi:nodetypes="sssssssssssssssss" class="st4" d="M383.5,126.5
	c-3.4,6.2-5.9,13.3-7.5,21c-1.6,7.7-2.1,15.9-1.2,24c0.9,8.1,3.1,16.1,6.1,23.1c3,7,6.6,13.1,10.9,17.8s8.9,7.8,13.9,9.5
	s11.9,4.3,17.3,3.2c5.4-1.1,11-3.4,16.4-7c5.4-3.6,10.5-8.5,15-14.7c4.4-6.2,7.7-13,9.6-20.2c2-7.1,2.6-14.5,1.9-21.8
	c-0.7-7.3-4-17.1-7.2-23.7c-3.3-6.6-7.7-12.7-13.3-17.8c-5.5-5.1-11.6-8.8-17.6-11.1c-6-2.3-11.9-3.1-17.5-2.6
	c-5.5,0.6-10.6,2.5-15.1,5.9C390.7,115.6,386.9,120.3,383.5,126.5L383.5,126.5z"/>
<path class="st5" d="M462.7,157.5c-0.1,1.1-0.4,2.2-1.1,3.3c-2.1,3.4-6.6,4.4-10,2.3c-3.4-2.1-4.4-6.6-2.3-10c2-3.2,6.2-4.3,9.5-2.5
	c-0.8-0.8-1.7-1.5-2.7-2.2c-6.9-4.3-16-2.3-20.3,4.6c-4.3,6.9-2.3,16,4.6,20.3c6.9,4.3,16,2.3,20.3-4.6
	C463,165.2,463.5,161.2,462.7,157.5z"/>
<path id="path4853" inkscape:connector-curvature="0" sodipodi:nodetypes="cccccccssc" class="st3" d="M182.7,123.1
	c-13,6.8-24.1,17-31.2,29.9c-6.6,11.8-9.2,25.6-8,39c1.7,22.7,14.5,43.6,31.5,58.1c14.1,11.7,31.7,19.7,50.1,20.8
	c11.7,0.5,23.7-0.5,34.6-5.4c7-3,13.4-7.2,19.1-12.2c-12.4,1.6-17.5,5-41.6,5.1c-34,0.2-53-11.5-68.5-36.5
	C154.6,199,145.5,161.1,182.7,123.1z"/>
<path id="path4855" inkscape:connector-curvature="0" sodipodi:nodetypes="ccccccssc" class="st3" d="M405.7,106.9
	c-9.3,2.4-17,9.8-21.6,18.1c-9.1,16-11.9,35.4-8.5,53.5c3.2,14.4,9.5,29,21,38.7c5.7,4.4,12.9,6.4,19.8,8.1
	c6.8,1.1,13.4-1.5,19.4-4.8c-10.6,0.2-18.1-0.6-29.8-7c-16.9-9.2-20.9-23.5-24.2-43.5C378.8,152.6,377.9,130.2,405.7,106.9z"/>
<path id="path4863" inkscape:connector-curvature="0" class="st6" d="M363.7,212.3c-0.6,0-1.2,0-1.8,0.1c-2.5,0.2-4.8,0.8-6.9,1.6
	c-2.1,0.8-4,1.9-5.6,3.1c-1.1,0.9-2,1.8-2.7,2.9c-0.5,0.1-1.1,0.2-1.6,0.4c-4.1,1.1-7.9,2.7-11.1,4.6s-5.8,4.2-7.4,6.7
	c-1.6,2.6-2.1,5.5-1.9,7.8c0.2,2.7,1.9,5.1,4.2,7.3c2.4,2.2,5.6,4.1,9.4,5.7c1.5,0.6,3.1,1.2,4.7,1.7l-0.9,6.2l-1.7,8.5
	c-0.3,1.5,0.1,2.9,0.8,3.8c0.7,1,1.9,1.5,3.2,1.6l4.4,0.1l8.8-0.2c1.7,0,3.3-0.7,4.4-1.7c1.2-1,1.8-2.4,2-3.9l0.8-8.4l0.3-4.2
	c3.7-0.6,7-1.5,9.9-2.6c3.3-1.3,6.2-2.8,8.4-4.5c2.2-1.7,3.8-3.5,4.9-5.6c1-2.1,1.5-4.4,1.1-6.8c-0.4-2.5-1.5-4.9-3.3-7.1
	c-1.5-1.8-3.4-3.5-5.7-5c0-0.6,0-1.2-0.1-1.8c-0.3-1.5-1-2.9-2-4.3c-1-1.3-2.4-2.5-4-3.4c-1.6-0.9-3.5-1.7-5.7-2.1
	C367.2,212.4,365.5,212.2,363.7,212.3L363.7,212.3z"/>
<path id="path4686" inkscape:connector-curvature="0" sodipodi:nodetypes="scssscssscssscsss" class="st7" d="M364.5,242.4l-7.6,0.1
	l-4.4-0.1c-1.4,0-2.7,0.6-3.6,1.6c-0.9,1-1.4,2.3-1.6,3.8l-1.2,8.4l-1.7,8.5c-0.3,1.5,0.1,2.9,0.8,3.8c0.7,1,1.9,1.5,3.2,1.6
	l4.5,0.1l8.8-0.2c1.7,0,3.3-0.7,4.4-1.7c1.2-1,1.8-2.4,2-3.9l0.8-8.4l0.6-8.4c0.1-1.5-0.6-2.8-1.5-3.8
	C367.1,243,365.9,242.4,364.5,242.4L364.5,242.4z"/>
<path id="path4688" inkscape:connector-curvature="0" sodipodi:nodetypes="scssscssscssscsss" class="st4" d="M363.1,245l-6.2,0.1
	l-2.9-0.1c-1.1,0-2.1,0.5-2.9,1.3c-0.8,0.8-1.2,1.9-1.4,3.1l-1.2,6.9l-1.5,6.9c-0.3,1.2,0,2.3,0.6,3.1c0.6,0.8,1.5,1.2,2.6,1.3
	l3,0.1l7-0.2c1.3,0,2.6-0.6,3.5-1.4s1.6-1.9,1.7-3.2l0.9-6.9l0.7-6.8c0.1-1.2-0.3-2.3-1.1-3.1C365.2,245.4,364.2,244.9,363.1,245
	L363.1,245z"/>
<path id="path4690" inkscape:connector-curvature="0" sodipodi:nodetypes="sssssssssssssssss" class="st1" d="M328.7,235.3
	c0.2,2.7,1.9,5.1,4.2,7.3c2.4,2.2,5.6,4.1,9.4,5.7c3.8,1.6,8,2.8,12.4,3.5c4.3,0.7,8.7,0.7,13,0.2c4.3-0.5,8.2-1.6,11.5-2.8
	c3.3-1.3,6.2-2.8,8.4-4.5c2.2-1.7,3.8-3.5,4.9-5.6s1.5-4.4,1.1-6.8c-0.4-2.5-1.5-4.9-3.3-7.1c-1.8-2.2-4.2-4.2-7-5.9
	c-2.8-1.7-6.1-3-9.7-3.9c-3.6-0.9-7.5-1.3-11.8-1.2c-4.3,0.1-8.6,0.8-12.6,2c-4.1,1.1-7.9,2.7-11.1,4.6c-3.2,1.9-5.8,4.2-7.4,6.7
	C329,230.1,328.5,233,328.7,235.3L328.7,235.3z"/>
<path id="path4692" inkscape:connector-curvature="0" sodipodi:nodetypes="sssssssssssssssss" class="st8" d="M337.8,234.7
	c0.4,2.1,1.6,4.1,3.5,5.9s4.5,3.4,7.5,4.7c2.9,1.3,6.2,2.2,9.6,2.7c3.4,0.5,6.8,0.5,10.1,0.1c3.4-0.4,6.4-1.2,9-2.3
	c2.6-1,4.8-2.3,6.5-3.7c1.7-1.4,3-3,3.7-4.7c0.7-1.7,1-3.5,0.6-5.5s-1.4-3.8-2.8-5.5c-1.4-1.7-3.3-3.3-5.5-4.5
	c-2.2-1.3-4.8-2.3-7.6-2.9c-2.8-0.7-5.9-1-9.2-0.8c-3.3,0.1-6.6,0.7-9.7,1.6c-3.1,0.9-6,2.1-8.5,3.6c-2.5,1.5-4.5,3.3-5.7,5.2
	C337.9,230.4,337.4,232.5,337.8,234.7L337.8,234.7z"/>
<path id="path4694" inkscape:connector-curvature="0" sodipodi:nodetypes="sssssssssssssssss" class="st1" d="M349.7,221.6
	c0.5,1.5,1.7,2.9,3.3,4.1c1.6,1.2,3.7,2.1,5.9,2.8c2.2,0.7,4.6,1.2,7,1.5c2.3,0.3,4.6,0.3,6.8,0.1c2.2-0.2,4-0.7,5.5-1.4
	c1.5-0.7,2.8-1.5,3.8-2.6c1-1,1.7-2.2,2.1-3.5c0.4-1.3,0.5-2.7,0.3-4.2c-0.3-1.5-1-2.9-2-4.3c-1-1.3-2.4-2.5-4-3.4
	c-1.6-0.9-3.5-1.7-5.7-2.1c-2.1-0.4-4.5-0.6-6.9-0.3c-2.5,0.2-4.8,0.8-6.9,1.6c-2.1,0.8-4,1.9-5.6,3.1c-1.5,1.2-2.7,2.6-3.4,4.1
	C349.3,218.5,349.2,220,349.7,221.6L349.7,221.6z"/>
<path id="SVGCleanerId_0_1_" class="st9" d="M332.1,289.6l-40.9,10.1c-2.1,0.5-4.4,0-5.9-1.3l-6.3-5.6l1.9-7.6
	c0.4-1.8,2.1-3.2,4.2-3.8l40.9-10.1c2.1-0.5,4.4,0,5.9,1.3l6.3,5.6l-1.9,7.6C335.8,287.6,334.2,289,332.1,289.6z"/>
<path id="path1" class="st10" d="M423.9,252.2l-146.4,36c-1.6,0.4-2.5,1.7-2,3l3.8,11.4l152.1-37.4l-3.8-11.4
	C427,252.5,425.4,251.8,423.9,252.2z"/>
<polygon id="rect1" class="st11" points="277.7,298 429.8,260.6 431.3,265.2 279.2,302.5 "/>
<path id="path2" class="st12" d="M428.2,256l-88.4,21.7c-1.1,0.3-1.9,1-2.1,1.9l-1.5,6.2c-0.4,1.8-2.1,3.2-4.2,3.8l-40.9,10.1
	c-2.1,0.5-4.4,0-5.9-1.3l-5.1-4.5c-0.7-0.7-1.9-0.9-2.9-0.6l-1.1,0.3c-3.1,0.8-4.9,3.4-4.1,5.9l29.2,86.7c0.8,2.5,4.1,3.9,7.2,3.2
	l152.1-37.4c3.1-0.8,4.9-3.4,4.1-5.9l-29.2-86.7C434.5,256.7,431.3,255.3,428.2,256z"/>
<path id="path3" class="st9" d="M456.1,348l-146.4,36c-1.6,0.4-3.2-0.3-3.6-1.6l0,0c-0.4-1.3,0.5-2.6,2-3l146.4-36
	c1.6-0.4,3.2,0.3,3.6,1.6l0,0C458.6,346.3,457.7,347.6,456.1,348z"/>
<path id="path4" class="st10" d="M386.2,303.4l42.2-10.4c1.6-0.4,2.5-1.7,2-3l-6.1-18.3c-0.4-1.3-2-2-3.6-1.6l-42.2,10.4
	c-1.6,0.4-2.5,1.7-2,3l6.1,18.3C383.1,303.1,384.7,303.8,386.2,303.4z"/>
<path id="path5" class="st13" d="M418.2,280.7l-31,7.6c-1.6,0.4-3.2-0.3-3.6-1.6l0,0c-0.4-1.3,0.5-2.6,2-3l31-7.6
	c1.6-0.4,3.2,0.3,3.6,1.6l0,0C420.7,279,419.8,280.4,418.2,280.7z"/>
<path id="path6" class="st14" d="M421.3,289.9l-31,7.6c-1.6,0.4-3.2-0.3-3.6-1.6l0,0c-0.4-1.3,0.5-2.6,2-3l31-7.6
	c1.6-0.4,3.2,0.3,3.6,1.6l0,0C423.8,288.1,422.9,289.5,421.3,289.9z"/>
<path id="path4698" inkscape:connector-curvature="0" sodipodi:nodetypes="sssssssssssssssss" class="st2" d="M230.8,334.3
	c0.2,4.7,1.3,8.2,3.1,10.8c1.8,2.5,4.3,4.1,7.3,5.3c3,1.2,6.5,1.9,10.3,2.7c3.7,0.7,7.7,1.4,11.7,2c4,0.6,7.8,0.9,11.2,0.9
	c3.5,0,6.6-0.4,9.3-1.2c2.7-0.8,4.8-2,6.3-4c1.5-1.9,2.3-4.5,2.2-7.9c-0.1-3.4-1.1-6-2.6-7.8c-1.6-1.8-3.8-2.9-6.5-3.5
	c-2.7-0.6-5.8-0.7-9.2-0.8s-7.2-0.2-11.2-0.9c-4-0.7-8.1-2.1-11.9-3.6c-3.9-1.4-7.5-2.7-10.6-3.2c-3.1-0.4-5.6,0-7.2,1.7
	C231.3,326.5,230.5,329.5,230.8,334.3z"/>
<path id="path4700" inkscape:connector-curvature="0" sodipodi:nodetypes="ssscsscssssssssssssssssssssccsss" class="st1" d="
	M239.1,320.6c2.9,0.2,6.3,1,10,2.1c4.2,1.2,8.7,2.7,13.4,3.4c4.6,0.8,8.9,1,12.8,1.3c3.9,0.3,7.5,0.7,10.6,1.7
	c3.1,1,5.7,2.5,7.5,4.8c1.9,2.3,3,5.3,3.3,9c0.2,3.7-0.6,6.7-2.3,9.1c-1.7,2.3-4.2,4-7.3,5.1c-3.1,1.2-6.8,1.8-10.8,2s-8.4,0-13-0.7
	c-4.6-0.7-9-1.5-13-2.3c-4-0.9-7.7-1.8-10.8-3.3c-1.2-0.5-2.3-1.2-3.3-1.9c-2-1.4-1.9-6.8-0.2-4.9c1.6,1.7,3.7,2.9,6.1,3.9
	c2.9,1.1,6.3,1.9,9.9,2.6c3.6,0.7,7.4,1.3,11.3,1.9c3.8,0.6,7.5,0.9,10.8,0.8c3.3,0,6.3-0.4,8.9-1.2c2.6-0.8,4.6-2,6.1-3.8
	c1.4-1.8,2.2-4.3,2.1-7.6c-0.1-3.3-1-5.7-2.5-7.5c-1.5-1.8-3.6-2.8-6.2-3.4s-5.5-0.7-8.8-0.8c-3.3-0.1-6.9-0.2-10.7-0.9
	s-7.8-2.1-11.5-3.4c-3.7-1.4-7.2-2.6-10.2-3c-0.4-0.1-0.7-0.1-1.1-0.1c-0.9-0.1-1.8-0.1-2.5,0.1c-0.9,0.2-1.9-3.2,0.5-3.1
	C238.3,320.5,238.7,320.5,239.1,320.6z"/>
</svg>
