<svg xmlns="http://www.w3.org/2000/svg" xml:space="preserve" viewBox="0 0 512 512"><circle cx="67" cy="465.7" r="46.3" style="fill:#ea4335"/><path d="M298.7 153.6H74.4c-29.3 0-53.6 24.4-53.6 53.6s24.4 53.6 53.6 53.6h221.9c29.3 0 53.6-24.4 53.6-53.6 2.4-29.2-22-53.6-51.2-53.6" style="fill:#34a853"/><circle cx="74.4" cy="207.2" r="53.6" style="fill:#137333"/><path d="M176.8 295H71.9c-26.8 0-51.2 21.9-51.2 48.8 0 26.8 21.9 51.2 51.2 51.2h104.8c26.8 0 51.2-21.9 51.2-51.2-2.4-26.8-24.3-48.8-51.1-48.8" style="fill:#fbbc04"/><circle cx="176.8" cy="343.8" r="51.2" style="fill:#ea8600"/><path d="M432.8 0H79.2C47.5 0 20.7 26.8 20.7 58.5S47.5 117 79.2 117h353.5c31.7 0 58.5-26.8 58.5-58.5S464.5 0 432.8 0" style="fill:#4285f4"/><circle cx="432.8" cy="58.5" r="58.5" style="fill:#185abc"/></svg>