<svg xmlns="http://www.w3.org/2000/svg" xml:space="preserve" viewBox="0 0 512 512"><path d="M20.7 58.5C20.7 26.8 47.5 0 79.2 0h316.1c-19.3 12.4-32 34-32 58.5s12.8 46.1 32 58.5H79.2c-31.7 0-58.5-26.8-58.5-58.5m278 95.1H110.4c17.2 11.6 28.6 31.3 28.6 53.6s-11.4 42-28.6 53.6h185.9c29.3 0 53.6-24.4 53.6-53.6 2.4-29.2-22-53.6-51.2-53.6m-278 190.2c0 26.8 21.9 51.2 51.2 51.2h69.6c-16.3-11.2-26.9-30-26.9-51.2 0-19.8 9.3-37.4 23.7-48.8H71.9c-26.8 0-51.2 21.9-51.2 48.8m0 121.9c0 25.6 20.7 46.3 46.3 46.3s46.3-20.7 46.3-46.3-20.7-46.3-46.3-46.3-46.3 20.7-46.3 46.3m.1-258.5c0 29.6 24 53.6 53.6 53.6s53.6-24 53.6-53.6-24-53.6-53.6-53.6-53.6 24-53.6 53.6m104.8 136.6c0 28.3 22.9 51.2 51.2 51.2s51.2-22.9 51.2-51.2-22.9-51.2-51.2-51.2-51.2 22.9-51.2 51.2M374.3 58.5c0 32.3 26.2 58.5 58.5 58.5s58.5-26.2 58.5-58.5S465.1 0 432.8 0s-58.5 26.2-58.5 58.5"/></svg>