<svg xmlns="http://www.w3.org/2000/svg" xml:space="preserve" viewBox="0 0 512 512"><path d="M383.1 401.4v53.7c0 31.4-25.4 56.9-56.7 56.9s-56.7-25.5-56.7-56.9V314.5z" style="fill:#34a853"/><linearGradient id="google-one_svg__a" x1="368.522" x2="368.522" y1="102.911" y2="450.228" gradientTransform="matrix(1 0 0 -1 -42.14 506.99)" gradientUnits="userSpaceOnUse"><stop offset="0" style="stop-color:#1a73e8"/><stop offset="1" style="stop-color:#4285f4"/></linearGradient><path d="M383.1 56.9v344.5l-113.4-86.9v-137l92.8-76.7c13.6-11.3 20.6-27.5 20.6-43.9" style="fill:url(#google-one_svg__a)"/><path d="M383.1 54.9v1.9c0 16.4-7 32.6-20.6 43.9l-92.8 76.7V56.9c0-18.6 8.9-35.2 22.8-45.6 1-.8 2-1.5 3.1-2.1l1.5-.9c.9-.6 1.9-1.1 2.7-1.6l2.5-1.3 2.1-1c.8-.3 1.7-.7 2.6-1 .8-.3 1.7-.6 2.6-.9 1.6-.5 3.3-1 5-1.3.5-.1 1-.2 1.6-.3.4-.1.8-.1 1.1-.2.7-.1 1.3-.2 2-.3l2.4-.3c.6-.1 1.3-.1 1.9-.1.9 0 1.9-.1 2.9-.1 2.1 0 4.1.1 6.1.3 1 .1 2 .3 3.1.4q1.5.15 3 .6c1 .2 2 .5 3 .8.8.2 1.7.5 2.5.8 1.6.5 3.2 1.1 4.7 1.8.8.3 1.5.7 2.3 1 1 .5 1.9 1 2.9 1.5 1.4.8 2.7 1.6 4.1 2.5.1.1.3.2.4.3 1.4 1 2.8 2.1 4.2 3.2.7.6 1.3 1.1 2 1.7l.1.1c.6.6 1.3 1.2 1.9 1.9l1.9 1.9c1.3 1.3 2.4 2.8 3.5 4.2.8 1 1.5 2 2.1 3.1l.9 1.5c.6.9 1.1 1.9 1.6 2.7.3.7.9 1.8 1.3 2.5l.9 2.1c.3.8.7 1.7 1 2.6.3.8.6 1.7.9 2.6.4 1.3.7 2.5 1 3.7.2.6.3 1.1.4 1.7.2.8.3 1.6.5 2.4.1.6.2 1.3.3 1.9l.3 2.4c.1.6.1 1.3.1 1.9-.5.3-.4.6-.4.9" style="fill:#ea4335"/><path d="M290.3 13c.7-.6 1.4-1.1 2.2-1.7-13.8 10.4-22.7 26.9-22.7 45.6v120.6l-48.2 39.9c-10.5 8.8-23.3 13-36 13-16.3 0-32.5-7-43.7-20.7-19.9-24.3-16.4-60.1 7.7-80.1z" style="fill:#fbbc04"/></svg>