<?xml version="1.0" encoding="utf-8"?>
<!-- Generator: Adobe Illustrator 28.2.0, SVG Export Plug-In . SVG Version: 6.00 Build 0)  -->
<svg version="1.1" id="Layer_1" xmlns="http://www.w3.org/2000/svg" xmlns:xlink="http://www.w3.org/1999/xlink" x="0px" y="0px"
	 viewBox="0 0 512 512" style="enable-background:new 0 0 512 512;" xml:space="preserve">
<style type="text/css">
	.st0{opacity:0.5;fill:#FFFFFF;}
	.st1{fill:#FFFFFF;}
</style>
<path class="st0" d="M206.9,393.6l40.4-41.2l-93-97.8l93.1-93.1L203,117c-19.1-19.1-25.7-46.1-19.8-70.6L18.7,209.3
	c-25,25-25,65.4,0,90.4l163.9,165c-1-4.9-1.6-10-1.6-15.2C181,427.1,191.1,407,206.9,393.6z"/>
<path class="st1" d="M493.3,301.2c-1.6,1.5-3.2,3-4.9,4.4L326.2,465.7c1.2-5.2,1.8-10.6,1.8-16.2c0-40.5-33-73.5-73.5-73.5
	c-5.8,0-11.5,0.7-16.9,2l119.7-122.3L210.8,109.2c-25-25-25-65.5,0-90.5s65.5-25,90.5,0l192,192
	C518.2,235.7,518.2,276.3,493.3,301.2z M192,449.5c0,34.5,28,62.5,62.5,62.5s62.5-28,62.5-62.5S289,387,254.5,387S192,415,192,449.5
	z"/>
</svg>
