<svg xmlns="http://www.w3.org/2000/svg" xml:space="preserve" viewBox="0 0 512 512"><circle cx="256" cy="255.9" r="128" style="fill:#fff"/><linearGradient id="google-chrome_svg__a" x1="34.4" x2="477.6" y1="438.005" y2="438.005" gradientTransform="translate(0 -278)" gradientUnits="userSpaceOnUse"><stop offset="0" style="stop-color:#d93025"/><stop offset="1" style="stop-color:#ea4335"/></linearGradient><path d="M256 128h221.6C407 5.6 250.5-36.3 128.1 34.3 89.2 56.8 56.8 89.1 34.4 128l110.8 192h.1c-35.4-61.1-14.6-139.3 46.5-174.7 19.4-11.4 41.6-17.3 64.2-17.3" style="fill:url(#google-chrome_svg__a)"/><circle cx="256" cy="256" r="101.3" style="fill:#1a73e8"/><linearGradient id="google-chrome_svg__b" x1="221.07" x2="442.704" y1="786.553" y2="402.672" gradientTransform="translate(0 -278)" gradientUnits="userSpaceOnUse"><stop offset="0" style="stop-color:#fcc934"/><stop offset="1" style="stop-color:#fbbc04"/></linearGradient><path d="M366.8 320 256 512c141.3 0 255.9-114.5 255.9-255.9 0-45-11.8-89.1-34.3-128H256v.1c70.6-.1 127.9 57 128.1 127.6 0 22.5-6 44.7-17.3 64.2" style="fill:url(#google-chrome_svg__b)"/><linearGradient id="google-chrome_svg__c" x1="283.689" x2="62.056" y1="774.014" y2="390.133" gradientTransform="translate(0 -278)" gradientUnits="userSpaceOnUse"><stop offset="0" style="stop-color:#1e8e3e"/><stop offset="1" style="stop-color:#34a853"/></linearGradient><path d="M145.2 320 34.4 128.1C-36.3 250.5 5.6 407 128 477.7c38.9 22.4 83.1 34.3 128 34.3l110.8-192-.1-.1c-35.2 61.2-113.3 82.3-174.5 47.1-19.5-11.2-35.8-27.4-47-47" style="fill:url(#google-chrome_svg__c)"/></svg>