<?xml version="1.0" encoding="utf-8"?>
<!-- Generator: Adobe Illustrator 28.2.0, SVG Export Plug-In . SVG Version: 6.00 Build 0)  -->
<svg version="1.1" id="Layer_1" xmlns="http://www.w3.org/2000/svg" xmlns:xlink="http://www.w3.org/1999/xlink" x="0px" y="0px"
	 viewBox="0 0 512 512" style="enable-background:new 0 0 512 512;" xml:space="preserve">
<style type="text/css">
	.st0{fill:#FFFFFF;}
</style>
<path class="st0" d="M442.1,128L442.1,128h0.1L314.2,0v128H442.1z M303.2,139V0H104.7C85.4,0,69.8,15.6,69.8,34.9v442.2
	c0,19.3,15.6,34.9,34.9,34.9h302.5c19.3,0,34.9-15.6,34.9-34.9V139H303.2z M296.7,372.4h-81.5v-29.1h81.5V372.4z M296.3,314.2h-80.6
	c-21.2-13.4-35.3-37-35.3-64c0-41.8,33.9-75.6,75.6-75.6c41.7,0,75.6,33.9,75.6,75.6C331.6,277.1,317.5,300.8,296.3,314.2z"/>
</svg>
