<svg xmlns="http://www.w3.org/2000/svg" xml:space="preserve" viewBox="0 0 512 512"><path d="M255.6 0c14.6 0 29.7 1.9 44.1 5.6L201.2 122l-71.1-59.7L125 58c33.6-36.9 80.8-58 130.6-58m58.2 9.7-78.6 92.8c6.7-1.9 13.7-2.8 20.8-2.8 20.6 0 39.9 8 54.4 22.5s22.5 33.8 22.5 54.4c0 2.5-.1 5-.4 7.5l3.3-4c20.2-24 47.6-56.7 74.8-89-20.9-37.9-55.9-67.2-96.8-81.4M79.3 176.3c0 27.5 4.3 51.5 13.4 74.7l44-52.2 55.9-66.5-43.5-36.5-32.7-27.5c-23.9 30.9-37.1 69-37.1 108m95.1 195.2 102-121.1c-6.5 1.8-13.4 2.7-20.4 2.7-20.6 0-39.9-8-54.4-22.5s-22.5-33.8-22.5-54.4c0-2.6.1-5.1.4-7.6l-32.8 38.9-48 57.1c14.2 29.8 35.4 56.3 57.8 84.4 5.9 7.3 11.9 14.7 17.9 22.5m67.1 118.2c5.9 18.4 7.8 22.3 14.8 22.3s9-4 14.9-22.5c5.2-16.3 12.3-38.5 30.4-66.4 18-28.2 36.6-51.5 54.5-73.9 42.8-53.7 76.6-96.1 76.6-172.4 0-25.2-5.2-49.5-15.5-72.4l-71 84.2c-18.8 22.4-31.3 37.3-31.6 37.6l-.1-.1-131.7 156.3c8.8 11.7 18.4 25.5 28.4 41 18 27.9 25.1 50.1 30.3 66.3"/></svg>