<svg xmlns="http://www.w3.org/2000/svg" xml:space="preserve" viewBox="0 0 512 512"><path d="M464.5 0H298.1c-12.6 0-24.6 4.9-33.5 13.8L152.3 126l44.1 44.1c18.9-18 44.1-28.9 72-28.9 25.9.1 50.8 9.8 69.8 27.4h.1l44.8-44.8c-12-14.5-11-35.8 2.4-49.1s34.6-14.3 49.1-2.4l60.8-60.7C486.9 4.1 475.9 0 464.5 0" style="fill-rule:evenodd;clip-rule:evenodd;fill:#ea4335"/><path d="m495.5 11.6-60.7 60.7c12 9.8 16.5 26.1 11.2 40.6s-19.1 24.3-34.6 24.2c-11.1 0-21.3-4.7-28.2-13.3L313.9 194h-.1l-6.3 6.5c-10.8-9.3-24.7-14.4-39-14.4-34.1 1.3-61.6 28.6-62.7 62.7-1.2 35.9 26.9 65.9 62.7 67.1 29.4 0 51.5-15.5 56.8-42.4h-56.8v-42.4h98.8c1.5 6.6 2.3 13.2 2.4 19.7 0 29.1-8.4 53.1-22.1 71.1l.4-.1 38 38 112-112.1c9-8.8 14.1-20.9 14-33.5V47.7c0-13.9-6-27-16.5-36.1" style="fill:#4285f4"/><path d="M162.4 250.8c0-31.9 13-60.6 33.9-80.6l-44-44.2L14 264.3c-9 8.9-14 21.1-14 33.8-.1 12.6 5 24.7 14 33.5l80.8 80.8 91.7-91.7v-.1c-15.1-19-24.1-43.2-24.1-69.8" style="fill:#fbbc05"/><path d="m348 321.6-.3.1c-19 25.1-48.3 38.7-79.2 38.7-33.1 0-62.6-15.5-82-39.9l-91.6 91.8 85.6 85.6c8.9 8.9 20.9 14 33.5 14 12.7-.1 24.8-5.1 33.8-14L386 359.6z" style="fill-rule:evenodd;clip-rule:evenodd;fill:#34a853"/><path d="M367.3 231.1h-98.8v42.4h56.8c-5.3 26.9-27.4 42.4-56.8 42.4-35.8-1.2-63.9-31.2-62.7-67.1 1.1-34.1 28.6-61.4 62.7-62.7 14.3 0 28.2 5.1 39 14.4l30.8-31.9c-19-17.6-43.9-27.3-69.8-27.4-58.8 0-106 48.8-106 109.6s47.2 109.6 106 109.6c53 0 101.2-39.9 101.2-109.6-.1-6.5-.9-13.1-2.4-19.7" style="fill-rule:evenodd;clip-rule:evenodd;fill:#fff"/></svg>