<svg xmlns="http://www.w3.org/2000/svg" xml:space="preserve" viewBox="0 0 512 512"><path d="M495.5 11.6C486.9 4.1 475.9 0 464.5 0H298.1c-12.6 0-24.6 4.9-33.5 13.8L152.3 126l44 44.2c18.9-18 44.2-29 72.1-29 25.9.1 50.8 9.8 69.8 27.4l.4.4-24.7 25h-.1l-6.3 6.5c-10.8-9.3-24.7-14.4-39-14.4-34.1 1.3-61.6 28.6-62.7 62.7-1.2 35.9 26.9 65.9 62.7 67.1 29.4 0 51.5-15.5 56.8-42.4h-56.8v-42.4h98.8c1.5 6.6 2.3 13.2 2.4 19.7 0 29.1-8.4 53-22 71-19 25.1-48.3 38.6-79.2 38.6-33.1 0-62.6-15.5-82-39.9-15-18.9-24-43.2-24-69.7 0-31.9 13-60.6 33.9-80.6l-44-44.2L14 264.3c-9 8.9-14 21.1-14 33.8-.1 12.6 5 24.7 14 33.5l80.8 80.8 85.6 85.6c8.9 8.9 20.9 14 33.5 14 12.7-.1 24.8-5.1 33.8-14l138.1-138.2.1.1 112-112.1c9-8.8 14.1-20.9 14-33.5V47.7c.1-13.9-5.9-27-16.4-36.1M446 112.9c-5.3 14.5-19.1 24.3-34.6 24.2-11.1 0-21.3-4.7-28.2-13.3-12-14.5-11-35.8 2.4-49.1s34.7-14.3 49.2-2.4c12 9.8 16.5 26.1 11.2 40.6" style="fill-rule:evenodd;clip-rule:evenodd"/></svg>