<?xml version="1.0" encoding="utf-8"?>
<!-- Generator: Adobe Illustrator 28.2.0, SVG Export Plug-In . SVG Version: 6.00 Build 0)  -->
<svg version="1.1" id="Layer_1" xmlns="http://www.w3.org/2000/svg" xmlns:xlink="http://www.w3.org/1999/xlink" x="0px" y="0px"
	 viewBox="0 0 512 512" style="enable-background:new 0 0 512 512;" xml:space="preserve">
<style type="text/css">
	.st0{fill:#FFFFFF;}
</style>
<path class="st0" d="M508.5,217.5c0,7.9-6.4,14.4-14.4,14.4h-77.5c-3.4-75.7-64.3-136.6-140-140V14.4C276.6,6.4,283.1,0,291,0
	C410.9,0,508.5,97.6,508.5,217.5z M113.5,231.3L4.3,122.3c-4.7,52.4,11.3,114.4,45.1,173.3L113.5,231.3z M123,222l49.4-47.8
	l11.5-11.1c5.3-5.3,8.2-12.5,8.2-20.1c0-7.7-2.9-14.8-8.3-20.2L88.7,27.7c-11.1-11.1-29.2-11.1-40.3,0l-0.4,0.4l-3.4,2.4
	C25.2,49.9,12.5,75.2,6.6,105.8L123,222z M208.2,458.8l66.5-66.3l-0.1-0.1l0,0L123,240.8l-66.4,66.6c17.7,28.5,40.9,57.3,67.3,83.7
	C150.4,417.6,179.4,440.9,208.2,458.8z M393.3,511.2L284.2,401.9l-64.4,64.2C279,499.9,341,515.9,393.3,511.2z M276.7,105.2v119.2
	c0,4.1,3.2,7.4,7.4,7.4h119.1C399.9,163.6,345,108.7,276.7,105.2z M409.7,508.6c28.7-4.8,51.6-17,74-39.4l0.2-0.2l6.7-6.2
	c8.5-8.2,8.9-21.3,0.7-29.9L390.3,325.1c-8.5-7.8-21.5-7.7-29.7,0.4l-67,66.8l0.1,0.1l-0.1,0.1L409.7,508.6z"/>
</svg>
