<svg xmlns="http://www.w3.org/2000/svg" xml:space="preserve" viewBox="0 0 512 512"><path d="M291.4 60.2c-5.2-2.7-11.2-3.1-16.6-1.2l-170.1 61.9V59.5c0-7.1 5.9-13 13.1-13h276.4c7.2 0 13.1 5.8 13.1 13v62l-96.8-26-8.3-22.9c-2-5.4-5.8-9.8-10.8-12.4m211.8 96.4-188.9-50.8 16.8 46.2h109.6c11.6 0 21.1 9.5 21.1 21.1v184.7l49.7-185.4c1.9-7-1.8-14.1-8.3-15.8m-453 16.5c0-11.6 9.5-21.1 21.1-21.1h250.3l-27.8-76.3c-2.5-6.8-9.6-10.5-15.8-8.2L7.7 165.8c-6.2 2.3-9.3 9.7-6.9 16.5l49.3 135.5V173.1zm403.6 0v279.3c0 7.2-5.9 13.1-13.1 13.1H71.3c-7.2 0-13.1-5.9-13.1-13.1V173.1c0-7.2 5.9-13.1 13.1-13.1h369.5c7.1 0 13 5.9 13 13.1m-181.1 97.4h110.6c3.2 0 5.8-2.6 5.8-5.8v-17.5c0-3.2-2.6-5.8-5.8-5.8H272.7zm-32 42.4c0-4.6-.4-9-1.1-13.2h-65.7v26.2h37.7c-3.1 16-17.2 27.6-37.7 27.6-22.9 0-41.4-19.3-41.4-42.2s18.5-42.2 41.4-42.2c10.3 0 19.5 3.5 26.8 10.5l19.9-19.9c-12.1-11.3-27.9-18.2-46.7-18.2-38.6 0-69.8 31.3-69.8 69.8 0 38.6 31.3 69.8 69.8 69.8 40.2 0 66.8-28.3 66.8-68.2m148.4 44.9c0-3.2-2.6-5.8-5.8-5.8H272.7v29.1h110.6c3.2 0 5.8-2.6 5.8-5.8zm17.4-55.3c0-3.2-2.6-5.8-5.8-5.8h-128v29.1h128c3.2 0 5.8-2.6 5.8-5.8z" style="fill:#fff"/></svg>