<svg xmlns="http://www.w3.org/2000/svg" xml:space="preserve" viewBox="0 0 512 512"><path d="M381.6 96.3 326.7 151c-23.2-16.8-51.5-24.7-80.6-22.2-29.7 2.6-57.2 15.7-77.7 37-2.7-.5-5.4-.9-7.7-1.1l-1-.1c-.8-.1-1.6-.2-2.6-.3-.6-.1-1.1-.1-1.7-.2h-1c-.4 0-.8-.1-1.2-.1-.7-.1-1.4-.1-2.2-.1h-.3c-.4 0-.7 0-1.1-.1h-.6c-.7 0-1.4-.1-2.3-.1-.5 0-1 0-1.5-.1h-4.4c-1 0-2.1 0-3.1.1-4.5.1-9 .4-13.4.9-.2 0-.4 0-.5.1-1.2.1-2.5.3-3.7.5-.4.1-.7.1-1.1.2-1 .1-2.1.3-3.1.5-.5.1-.9.2-1.4.2-.9.2-1.7.3-2.7.5-.5.1-1.1.2-1.6.3-.7.1-1.4.3-2.2.5-.7.1-1.3.3-2.1.5-.1 0-.2.1-.3.1-12.9 3.1-25.3 7.8-37 14.2 8.6-23.8 21.4-45.6 37.5-63.7 35.1-39.7 83.7-63.4 136.9-66.7 4.2-.3 8.4-.4 12.5-.4 46.2-.3 90.4 15.4 126.1 44.9M0 319.4c.2 42.1 18.7 81.1 50.8 107.8l55.6-55.6c-26.1-16.8-36.7-50.7-23.6-79.8 14.5-32 52.2-46.3 84.3-31.8 11.3 5.1 20.7 13.3 27.3 23.6L250 228c-23.4-28-57-46.1-93.2-50.1-1.1-.1-2.4-.2-3.5-.3-.3 0-.5 0-.8-.1-.9-.1-1.8-.1-2.8-.2-.4 0-.8 0-1.1-.1-.6 0-1.2-.1-1.7-.1h-6c-.9 0-1.8 0-2.8.1-3.4.1-6.9.3-10.3.6h-.3c-3.3.3-6.5.7-9.6 1.3-.3 0-.6.1-.9.1-1.5.3-3.1.5-4.6.9-.1 0-.2 0-.3.1-1.3.3-2.7.6-3.9.9-.6.1-1.1.3-1.7.4-.8.2-1.6.4-2.6.7-1.2.3-2.5.7-3.7 1.1-.5.2-1 .3-1.5.5-.9.3-1.8.6-2.9.9-.2.1-.4.2-.7.2C39.5 204.2-.4 257.3 0 319.4m370.3 141c37.5 0 72.6-14.5 99.4-40.7 27-26.6 42-62 42.3-99.8.4-47.5-22.9-91.8-62.3-118.5l-2.1-1.4-.6-2.4c-9.6-35.5-28.7-67.3-55.4-92.5L364 132.6l-27 27c25.3 23.4 39.4 56 38.7 90.8v5c32 3.4 57 30.5 57 63.4 0 35.1-28.6 63.7-63.7 63.7H261.7l-.1 38.7-.1 38.7 107.6.6c.5-.1.8-.1 1.2-.1m-229.5-.6h107.4l.1-77.4-107.6-.6q-11.25 0-21.9-3.9l-57.7 57.7c23.2 15.7 50.9 24.2 78.9 24.2z"/></svg>