<svg xmlns="http://www.w3.org/2000/svg" xml:space="preserve" viewBox="0 0 512 512"><path d="M128 116.4c70.7 0 128 57.3 128 128V256H11.6C5.2 256 0 250.7 0 244.4c0-70.7 57.3-128 128-128" style="fill:#fbbc04"/><path d="M395.6 128c0 70.7-57.3 128-128 128H256V11.6C256 5.2 261.3 0 267.6 0c70.7 0 128 57.3 128 128" style="fill:#ea4335"/><path d="M384 395.6c-70.7 0-128-57.3-128-128V256h244.4c6.5 0 11.6 5.3 11.6 11.6 0 70.7-57.3 128-128 128" style="fill:#4285f4"/><path d="M116.4 384c0-70.7 57.3-128 128-128H256v244.4c0 6.5-5.3 11.6-11.6 11.6-70.7 0-128-57.3-128-128" style="fill:#34a853"/></svg>