<svg xmlns="http://www.w3.org/2000/svg" xml:space="preserve" viewBox="0 0 512 512"><path d="M25.9 469.5c8.7 31 40.9 49 71.9 40.2 4.7-1.3 9.2-3.2 13.4-5.7l241.7-137.6-110.7-110.3z" style="fill:#ea4335"/><path d="m235.8 249.6 117.1 116.9L457.5 307c27.8-14.6 38.5-48.9 24-76.7-5.4-10.2-14.3-17.6-24-24l-104.2-59.9" style="fill:#fbbc04"/><path d="M24 57.3v397.5c0 5 .7 9.9 1.9 14.7L242.2 256 25.9 42.4c-1.3 4.8-1.9 9.9-1.9 14.9" style="fill:#4285f4"/><path d="m242.2 256.1 111.1-109.6L112 8.2C102.9 2.8 92.6 0 82.1 0 56-.1 33 17.3 25.9 42.4z" style="fill:#34a853"/></svg>