<?xml version="1.0" encoding="utf-8"?>
<!-- Generator: Adobe Illustrator 28.2.0, SVG Export Plug-In . SVG Version: 6.00 Build 0)  -->
<svg version="1.1" id="Layer_1" xmlns="http://www.w3.org/2000/svg" xmlns:xlink="http://www.w3.org/1999/xlink" x="0px" y="0px"
	 viewBox="0 0 512 512" style="enable-background:new 0 0 512 512;" xml:space="preserve">
<style type="text/css">
	.st0{fill:#FFFFFF;}
</style>
<path class="st0" d="M497.1,209.4H256v99.1h137.8c-6.1,31.9-24.2,58.9-51.4,77v0.2l-0.1-0.1c-22.8,15.4-51.9,24.7-86.3,24.7
	c-66.6,0-123.1-44.9-143.4-105.4h-0.4c0.2-0.2,0.4-0.3,0.4-0.3c-5.1-15.4-8.1-31.7-8.1-48.6s3-33.3,8.1-48.6v-0.1l0.1,0.1
	c20.2-60.5,76.7-105.5,143.3-105.5c37.7,0,71.2,13,98,38.2l73.3-73.3C382.8,25.4,325.1,0,256,0C155.9,0,69.6,57.5,27.5,141.3
	C10,175.7,0,214.6,0,256s10,80.3,27.5,114.7v0.3C69.6,454.5,155.9,512,256,512c69.1,0,127.1-22.8,169.4-61.9l-0.1-0.1h0.2
	c48.3-44.6,76.3-110.2,76.3-188.2C501.8,243.6,500.2,226.2,497.1,209.4z"/>
</svg>
