<?xml version="1.0" encoding="utf-8"?>
<!-- Generator: Adobe Illustrator 28.2.0, SVG Export Plug-In . SVG Version: 6.00 Build 0)  -->
<svg version="1.1" id="Layer_1" xmlns="http://www.w3.org/2000/svg" xmlns:xlink="http://www.w3.org/1999/xlink" x="0px" y="0px"
	 viewBox="0 0 512 512" style="enable-background:new 0 0 512 512;" xml:space="preserve">
<style type="text/css">
	.st0{fill:#FFFFFF;}
</style>
<path class="st0" d="M257.5,126.8H477C407.1,5.5,252.1-36,130.8,34C92.3,56.3,60.2,88.3,38,126.8l109.7,190.1h0.1
	c-35.1-60.5-14.5-138,46.1-173C213.1,132.6,235.1,126.8,257.5,126.8z M257.5,156.2c55.4,0,100.3,44.9,100.3,100.3
	s-44.9,100.3-100.3,100.3s-100.3-44.9-100.3-100.3S202.1,156.2,257.5,156.2z M368.2,321.9L258.5,512
	c139.9,0,253.4-113.4,253.4-253.4c0-44.6-11.7-88.2-34-126.8H258.5v0.1c69.9-0.1,126.7,56.4,126.9,126.4
	C385.4,280.6,379.4,302.5,368.2,321.9z M143.8,321.9l-109.7-190C-35.9,253,5.6,408,126.8,478c38.5,22.2,82.3,34,126.8,34
	l109.7-190.1l-0.1-0.1c-34.9,60.6-112.2,81.5-172.8,46.6C171.1,357.3,154.9,341.3,143.8,321.9z"/>
</svg>
