<svg xmlns="http://www.w3.org/2000/svg" xml:space="preserve" viewBox="0 0 512 512"><path d="M203.5 249.4c-90.7 0-164.1 73.4-164.1 164.1v68.9c0 16.3 13.2 29.5 29.5 29.5h78.8l78.8-262.6h-23z" style="opacity:.6;fill:#fff"/><path d="M472.6 357.7c0-59.9-48.4-108.3-108.3-108.3h-78.8V512h78.8c59.9 0 108.3-48.4 108.3-108.3" style="opacity:.8;fill:#fff"/><path d="M118.2 357.7c0-59.9 48.4-108.3 108.3-108.3h59.1c59.9 0 108.3 48.4 108.3 108.3v45.9c0 59.9-48.4 108.3-108.3 108.3H147.7c-16.3 0-29.5-13.2-29.5-29.5zM256 0c56.2 0 101.7 45.6 101.7 101.7S312.2 203.5 256 203.5s-101.7-45.6-101.7-101.7S199.8 0 256 0" style="fill:#fff"/></svg>