<?xml version="1.0" encoding="utf-8"?>
<!-- Generator: Adobe Illustrator 28.2.0, SVG Export Plug-In . SVG Version: 6.00 Build 0)  -->
<svg version="1.1" id="Layer_1" xmlns="http://www.w3.org/2000/svg" xmlns:xlink="http://www.w3.org/1999/xlink" x="0px" y="0px"
	 viewBox="0 0 512 512" style="enable-background:new 0 0 512 512;" xml:space="preserve">
<style type="text/css">
	.st0{fill:#00832D;}
	.st1{fill:#34A853;}
</style>
<path class="st0" d="M269.7,225.3V102.4c75.4,0.1,136.5,61.2,136.5,136.6H283.4C275.8,239,269.7,232.9,269.7,225.3z M283.9,389.5
	l-0.6-0.3l-72.9,72.7l-0.2,0.4c66.5,39.7,136,56.7,193.3,47.3l-0.4-0.7L283.9,389.5z M126.3,232L5.9,111.8
	c-9.4,57.3,7.4,126.8,47.3,193.3l0.4-0.2L126.3,232z"/>
<path class="st1" d="M290.1,0c-11.3,0-20.5,9.2-20.5,20.5v81.9c75.4,0,136.6,61.2,136.6,136.6h81.9c11.3,0,20.5-9.2,20.5-20.5
	C508.6,97.9,410.8,0,290.1,0z M489.2,462.4c10.9-10.4,11.3-27.4,1-38.3l-98.7-105.3c-10.9-10.2-27.6-10-38.1,0.4l-70,69.8
	l120.2,120.2c32.6-4.7,56.9-18.6,79-40.7L489.2,462.4z M53.4,305.1c18,29.9,42,60,69.2,87.2s57.9,51.6,87.8,69.6l73.1-72.9
	L126.3,232 M179,181L179,181l11.3-10.9c13.3-13.3,13.3-35.2,0-48.5L97.5,28.9c-13.3-13.3-35.2-13.3-48.5,0l-3.3,2.3
	C24.2,52.6,11.3,80.5,5.9,111.8L126.3,232L179,181z"/>
</svg>
