<?xml version="1.0" encoding="utf-8"?>
<!-- Generator: Adobe Illustrator 28.2.0, SVG Export Plug-In . SVG Version: 6.00 Build 0)  -->
<svg version="1.1" id="Layer_1" xmlns="http://www.w3.org/2000/svg" xmlns:xlink="http://www.w3.org/1999/xlink" x="0px" y="0px"
	 viewBox="0 0 512 512" style="enable-background:new 0 0 512 512;" xml:space="preserve">
<path d="M403.9,436.1c0,16.2-13.2,29.3-29.3,29.3H123V355.7h174.1v-85.3l48,40.9l58.8,50.2v0.1V436.1z M403.9,170.8l-103,85.3
	l103,88V170.8z M493.4,97.2l-76.2,62.4v0.1v195.6l76.5,62.7c3.5,2.7,7.9,3.1,11.9,1.2c4-2,6.4-5.8,6.4-10.3V105.9
	c0-4.5-2.4-8.3-6.4-10.2C501.5,93.8,497,94.3,493.4,97.2z M0,436.1c0,16.2,13.2,29.3,29.3,29.3h80.3V355.7H0V436.1z M109.7,56
	L9.4,156.3h100.3V56z M403.9,153.3V75.9c0-16.2-13.2-29.3-29.3-29.3H123v109.7h174.1v85.5l106.7-88.4V153.3z M109.7,169.6H0v172.8
	h109.7V169.6z"/>
</svg>
