<svg xmlns="http://www.w3.org/2000/svg" xml:space="preserve" id="gotify_svg__Layer_2_00000057140494615132436820000001909255501179968656_" x="0" y="0" version="1.1" viewBox="0 0 512 512"><style>.gotify_svg__st0{fill:#ddcba2}</style><path d="M367.9 403.7c8.4-2.3 21.4 0 26.5 4.3 7.5 6.5 6.6 28.3 1.4 39.4-1.1 2.3-2.4 4.5-4.4 5.9s-4.6 1.6-6.4.1c-1.8-1.6-2.4-4.4-2.6-7.1-.3-4.2-.2-8.4.4-12.5.2-1.8.2-4-.2-5.7-.8-3-3.4-4.2-6-4.8-4.6-1.1-19.5-1-26.4-.9-1 0 2-12.3 2.7-13.1 3.6-4 10.2-4.3 15-5.6M423 207.6c-.5 3 .2 6.4 2.3 10 3.5 6 9.5 8.3 16.2 7.8 12.1-.8 34.3-7.3 37.3-21.3.8-4-.4-8.3-3-11.5-8.4-10.6-24.2-7.8-34.8-2.7-7.8 3.8-16.7 9.6-18 17.7" class="gotify_svg__st0"/><path d="M441.5 225.4c-6.7.5-12.7-1.8-16.2-7.8-2.1-3.6-2.8-7-2.3-10 1.3-8.1 10.2-13.9 18-17.7 4.7-2.3 10.4-4.1 16.1-4.5-.9-19.2-4.6-38.2-12.1-55.8-13.4-31.7-39.4-57.2-72.4-67.9-26.6-8.5-58.2-11.4-88.8-7.5-2.7-.8-5.3-1.6-8-2.4-6.2-1.9-12.6-3.8-19-3.4-3.9.2-8.2 1.8-9.4 5.4-.7 2-1.6 6.7-1.8 9.1-8.4 2.9-16.6 6.4-24.3 10.6-11.1 6-21.3 13.4-30.1 22.3-6.6-5.5-14.3-9.4-22.7-11.2-3-.6-6.4-1-9.4.9-2.5 1.6-4.2 4.5-5.6 7.3-2.1 4.1-4.1 8.4-5.6 12.8-.5 1.6-.8 3.5 0 4.7.5.8 1.2 1.2 2 1.6 7.3 3.7 14.8 6.7 22.4 9.4-1.2 2.2-2.3 4.4-3.3 6.7-14.1 31-9.6 61.4-2 93.2 2.7 11.5 5.9 23.1 4.9 34.9-2.4 29.7-26.9 47.6-45.7 68.7-2-.8-3.8-2.8-5.1-4.6-3.4-4.5-6.7-8.9-10-13.4-.8-1-1.6-2.1-2.8-2.5-2.8-.9-5.2 1.9-6.7 4.4-1.1 1.9-2.3 3.7-3.4 5.6-.8 1.3-1.6 2.7-1.6 4.3 0 2.3 1.9 4.2 3.6 5.8 5.1 4.6 10.6 8.7 16.4 12.5a85.4 85.4 0 0 0-6.6 11.3c-7.8 16.9-8.6 36.9-2.1 54.3 10.2 27.2 37.1 43.7 64.1 50.7 56 14.5 124.4 17.8 174.3-15.7 25.4-17 40-40 55-65.9 26.6-46 47.8-95.8 54.2-148.9-5 1.6-10.1 2.4-14 2.7" style="fill:#71caee"/><path d="M445 129.6q-5.1-12.15-12.6-22.8c7.1-2 15.4-.6 21.9 3.3 14.8 8.9 21.2 27.1 23.3 44.2.9 7.1 1.2 14.4-.7 21.2-1.1 4.2-3.2 8.2-6 11.4-.9-.5-1.9-1-2.9-1.3-.3-4.4-2.5-8.2-6-10.5-1.8-1.2-3.8-1.9-5.9-2.3-1.7-14.8-5.3-29.4-11.1-43.2m-72.1-17c36.7 15.1 52.1 77.5 19 106.9-22.9 20.3-66.6 21.8-92.8 2-9.9-7.5-15.5-19.6-17.8-31.8-3.6-19.4.4-41.5 12.7-57.2l1.8-2.1c18-20.1 53.4-27.7 77.1-17.8m85.8 126.5c1-.2 2-.4 3-.5.3-.4.6-.7.8-1.2.5-1 .7-2.3.8-3.5.4-4.2.8-8.5.5-12.7-2.7 1.2-5.4 2.2-8.2 3 .1 5.1.2 10.1 0 15v.4c1.1-.2 2.1-.4 3.1-.6zm-3.1.6c-2.9.5-5.8 1.1-8.8 1.7-.4-.7-.5-1.9-.6-2.9-.1-4-.1-8.1.2-12.2 2.8-.4 5.9-1.1 9-2 0 1.9.1 3.9.1 5.7.1 2.8.1 7.5.1 9.7" style="fill:#fff"/><path d="M495.7 236.4c-4.6-6.1-193.3 36.9-196.4 43-.3.5-.3 2-.1 4.1 2.2 22.1 28.6 120.4 37 123.2 9.2 3 162.6-44.5 171.8-47.6 9.2-3-7.7-116.6-12.3-122.7" style="fill:#f0f0f0"/><path d="M298.4 222.6c12.8 9.7 29.6 14.5 46.3 14.5 18 0 35.9-5.6 48.1-16.7 14.9-13.2 21.5-34.7 17.6-57.5-4.1-23.7-18.6-44-37-51.6-24.7-10.2-60.8-1.9-78.7 18.2-.6.7-1.2 1.5-1.8 2.2-11.8 15.2-16.8 37.5-12.9 58.3 2.7 14 9.2 25.6 18.4 32.6m-3.3-89.2c.5-.7 1.1-1.4 1.7-2.1 12.3-13.7 33.3-21.7 52.9-21.7 8.1 0 15.9 1.4 22.8 4.2 17.6 7.3 31.4 26.7 35.3 49.6 3.7 21.9-2.5 42.5-16.7 55.1-22.6 20.1-66 21-91.1 2-8.6-6.6-14.8-17.6-17.3-31-3.7-20 1-41.5 12.4-56.1m-133.2-31.2c-.4 1.5.6 4.2 1.7 5.1.6.5.6 1.3.2 1.9-.5.6-1.3.6-1.9.2-1.8-1.5-3.2-5.2-2.5-7.9.5-2 1.8-3.5 3.6-4.1 5.7-2 16.2 4.2 23.9 9.8.6.4.7 1.3.3 1.9-.3.5-.7.7-1.2.7-.3 0-.6-.1-.8-.3-10-7.2-18-10.7-21.4-9.5-1 .3-1.5 1-1.9 2.2m201.6 87.1c4.7 1.1 11.2.9 14.2-3.4 1.4-2 1.9-4.5 2.1-7 .7-7.6-2.5-15.4-10.9-16.5-2.7-.4-5.6.1-8 1.7-4.3 2.8-6.4 8.4-6.4 13.4 0 2.5.5 5.1 1.9 7.2 1.6 2.4 4.3 3.9 7.1 4.6m3.9-19.8c1.4-.7 2.9-.9 4.2-.5 1.2.4 2.2 1.1 2.8 2.3.5 1 .6 2.2.4 3.4-.2 1.4-.8 2.8-2 3.6-1 .7-2.4 1-3.6.7s-2.3-1.1-3-2.1c-1.5-2.2-1.3-6 1.2-7.4M504 267.1q1.2-.75 2.1-1.8c2.7-2.8 3.8-7 2.5-10.4-1.2-3.3-4.2-5.7-8.2-6.8-1.4-6.7-2.7-11.3-3.7-12.6-.7-1-2.5-1.5-9-.9-5.8.5-14.2 1.8-24.1 3.5.1-.1.1-.2.2-.3.6-1.3.8-2.8.9-4 .5-4.2.9-8.9.5-13.4 7.3-3.6 13.3-8.9 14.8-16 .9-4.2-.4-8.9-3.3-12.6-1.4-1.7-3-3.2-4.7-4.3 2.8-3.2 4.9-7.2 6.2-11.8 2.1-7.7 1.5-15.7.7-21.8 0-.3-.1-.7-.1-1 .9-.2 1.7-.5 2.3-1.1.9-.9 1.1-2.2 1.2-3.4.3-3.1-.1-6.4-1.2-9.3-.5-1.5-1.3-3.1-2.4-4.3-1.3-1.4-3.1-2.2-4.9-2.1-3.7-9.4-9.5-18.3-18.8-24-6.3-3.8-14.8-5.6-22.3-3.7C417.9 84 397 68.3 373 60.5c-28-9.1-59.3-11.5-89-7.8l-7.8-2.3c-6-1.8-12.7-3.8-19.5-3.4-5.4.3-9.4 2.7-10.6 6.4-.3 1-1.4 5.5-1.8 8.6-8.3 2.9-16.3 6.4-23.7 10.4-11.2 6-21 13.2-29.4 21.4-6.7-5.3-14.3-8.9-22.3-10.7-3-.7-7-1.1-10.4 1.1-2.7 1.8-4.5 4.8-6.1 7.8-2.5 4.7-4.3 9-5.7 13-.5 1.4-1.1 4 .1 5.9.7 1.1 1.7 1.7 2.5 2.1 10.6 5.4 21.6 9.3 34.9 13.4.1.1.3.1.4.1.6 0 1.1-.3 1.4-1.1.2-.7-.2-1.5-.9-1.7-13.1-4.1-24-8-34.4-13.3-.7-.4-1.2-.7-1.5-1.1-.5-.7-.4-2 .1-3.5 1.3-3.9 3.1-8 5.5-12.6 1.4-2.6 3-5.3 5.2-6.7 2.5-1.7 5.6-1.4 8.3-.8 9.3 1.9 18 6.6 25.2 13.6.5.6 1.4.5 1.9 0 .6-.5.5-1.4 0-1.9-.7-.6-1.4-1.3-2.1-1.9 8.1-7.9 17.6-14.9 28.5-20.8v.1c42.3-23 101.3-27.5 150.3-11.7 31.8 10.2 57.8 34.7 71.5 67 5.5 13.1 9.2 27.3 11 42.6-3.2-.3-6.5.3-9.6 1.7-3 1.4-5.4 3.5-6.9 6.1-1.7 2.9-2.1 6.4-1.1 9.4.1.2.1.3.2.5-9.3 5-14.6 10.7-15.6 17-.5 3.5.3 7.2 2.5 10.9 3.2 5.6 8.8 8.6 15.7 8.6h1.7c1.1-.1 2.3-.2 3.6-.4-.3 4.1-.4 8.1-.2 12.2 0 1 .1 2.1.5 3-20.9 4.1-44.8 9.3-64.8 13.9-24.1 5.6-80.5 19-82.6 23.2-.3.7-.4 2.2-.2 4.5-.1.3 0 .6.1.8 0 .3.1.6.1.8-2.6-1.6-4.5-4.1-4.4-7.1 0-.8-.6-1.4-1.3-1.4-.8-.1-1.4.5-1.4 1.3-.1 6.6 6.5 11.2 12.7 11.7 5 .4 9.8-1.2 14.4-2.7.9-.2 1.7-.5 2.6-.8 2-.6 3.5-.9 4.7-.3.7.4 1.4 1.3 1.8 2.5.5 1.4.5 2.8 0 3.7-1 2-4.1 4.2-6.5 5.3-8.4 3.9-16.7 4.7-26.1 2.6s-14.8-7.7-16.7-17.2c-.2-.8-.9-1.2-1.6-1.1-.8.2-1.2.9-1.1 1.6 2 10.5 8.3 17 18.7 19.3 2.6.6 5.1.9 7.6 1.1 6.2 28.3 18.6 73 26.9 92.9 3.7 9 5.8 11 7.1 11.5.2.1.4.2.6.2.3.1.6.1 1 .1 5.8 0 23.8-4.4 46.2-10.5-10.3 14.8-22 28-37.9 38.6-56.4 37.8-132.7 25.9-173.2 15.5-19-4.9-35-13.5-46.6-24.9 2.6-2.3 4.6-5 5.7-8.2.2-.7-.2-1.5-.9-1.7s-1.5.2-1.7.9c-.9 2.7-2.7 5-5 7.1-4.5-4.8-8.3-10-11.3-15.6 2.1-1.9 4-3.9 5.6-5.7.5-.5.5-1.4-.1-1.9-.5-.5-1.4-.5-1.9.1-1.6 1.8-3.2 3.4-4.9 4.9-.7-1.6-1.4-3.2-2-4.8-6.4-17.2-5.6-36.6 2.1-53.2 6.4-13.6 17.5-24.9 28.2-35.9 15.6-16 31.9-32.6 33.8-56.6.9-11-1.8-21.9-4.3-32.4l-.7-2.9c-6.9-29.3-12.5-60.5 1.9-92.4.9-2 1.9-3.9 2.9-5.8-.9-.3-1.8-.6-2.6-.9-1 1.8-1.9 3.7-2.8 5.6-14.7 32.7-9.1 64.4-2 94.1l.7 3c2.5 10.3 5.1 21 4.2 31.5-1.9 23.1-17.1 38.6-33.1 55-3.8 3.9-7.7 7.9-11.4 12-1.2-.7-2.5-2-3.8-3.8l-10-13.4c-.7-1.1-1.8-2.4-3.4-3-2.8-.9-5.8.8-8.3 5l-3.4 5.6c-.8 1.4-1.8 3.1-1.8 5.1 0 2.8 1.9 4.9 4 6.8 4.8 4.3 10 8.3 15.4 11.9q-3.45 5.1-6 10.5c-8 17.3-8.8 37.4-2.1 55.3.7 1.9 1.5 3.8 2.4 5.6-3 2.4-6.1 4.3-10 5.3-5.9 1.5-12.7.4-17.3-2.9-.8-.6-1.6-1.2-2.4-1.9-1-.8-2-1.6-3.1-2.4-2.6-1.7-5.6-2.5-8.1-2-2 .4-3.8 1.5-4.9 3.2-1.1 1.6-1.5 3.6-1.1 5.5 2.8 12.3 23.3 22.1 38.5 22.1h.4c7.5-.1 16.1-2.4 22.4-6.9 11.9 11.8 28.5 20.9 48.2 25.9s47.7 10.4 77.8 10.4c32.7 0 67.9-6.3 97.6-26.3 6.9-4.6 12.9-9.6 18.4-15 5.4.1 9.1.4 10.9.9 3.1.7 4.6 1.8 5.1 3.8.4 1.4.4 3.4.2 5.2-.6 4.2-.7 8.5-.4 12.8.2 2.7.7 6 3 8 1.1.9 2.5 1.4 3.9 1.4s2.9-.5 4.2-1.3c2.3-1.6 3.8-4.3 4.8-6.4 5.2-11.1 6.5-33.9-1.8-41-2.6-2.3-6.9-3.9-11.7-4.8 1.4-1.9 2.7-3.8 4-5.8 50.6-14 119.7-35.7 120.8-36.1 1.1-.3 1.9-1.4 2.5-3.2 3.6-11.1-1.5-57.8-6.8-90M247.2 61c.4-2.3 1-5.3 1.5-6.8 1-3 4.9-4.3 8.2-4.5 6.3-.4 12.5 1.5 18.5 3.3l2.2.7c-10.5 1.6-20.7 4.1-30.4 7.3M101.1 323.3c-1.6-1.5-3.1-3.1-3.1-4.8 0-1.1.7-2.2 1.5-3.6l3.4-5.6c.9-1.4 3-4.5 5.1-3.8.7.3 1.4 1.1 2.1 2l10 13.4c.7.9 2.1 2.9 4.1 4.2-2.8 3.2-5.5 6.5-7.9 9.9-5.3-3.5-10.5-7.4-15.2-11.7m-.2 109.6h-.2c-14.1 0-33.4-9.2-35.8-20-.2-1.2 0-2.5.7-3.5s1.8-1.8 3.1-2c1.8-.3 4.1.3 6.1 1.6 1 .6 1.9 1.4 2.8 2.2.8.7 1.7 1.4 2.6 2.1 5.2 3.7 12.8 5 19.5 3.3 4.1-1 7.6-3.1 10.6-5.4 3 5.5 6.7 10.7 11.2 15.5-5.7 3.9-13.6 6.1-20.6 6.2m292.6-24c6.7 5.8 6.3 26.9 1.1 37.8-.8 1.7-2 4.1-3.9 5.4-1.3.9-3.4 1.3-4.8.1-1.6-1.3-1.9-4.1-2.1-6.1-.3-4-.2-8.2.4-12.2.2-1.6.2-4.1-.3-6.2-1-3.9-4.5-5.2-7-5.8-1.7-.4-4.6-.7-8.8-.8 5-5.2 9.6-10.7 13.9-16.5 4.7.7 9.1 2.2 11.5 4.3m107.6-157.6c2.1.8 4.1 2.4 5 4.6.9 2.4.1 5.6-1.9 7.6l-.7.7c-.8-4.7-1.6-9.1-2.4-12.9m-54.9-122.1c-3.2-7.7-7.1-14.9-11.6-21.6 1.4-.3 2.9-.4 4.4-.4 5.1 0 10.4 1.6 14.7 4.4 15.5 9.4 20.9 28.7 22.7 43.2.8 5.8 1.3 13.5-.6 20.7-1.2 4.3-3.2 8-5.8 10.9-.7-.3-1.3-.6-2-.9-.3-4.4-2.5-8.2-6-10.5-1.4-.9-2.9-1.6-4.5-2-1.8-15.6-5.6-30.3-11.3-43.8m-4.8 94.9c-4.7.3-11.1-.7-14.9-7.2-1.8-3.1-2.5-6.2-2.1-9.1.8-5.4 5.6-10.5 14.2-15.1 2.2 2.9 5.6 4.7 8.5 5.7 2.8 1 5.5 1.5 7.9 1.5 1.9 0 3.7-.3 5.4-.8 4.7-1.8 7.1-6.4 7.6-10.7 2.6 1.1 4.9 2.7 6.7 5.1 2.4 3.1 3.4 7 2.7 10.4-2.8 13.6-25.5 19.5-36 20.2M457 230c0-.6-.1-1.3-.1-1.9 0-1.4 0-2.8-.1-4.2 1.8-.6 3.7-1.3 5.5-2 .2 3.9-.2 8.1-.5 11.8-.1 1-.2 2.2-.6 3-.6 1.3-1.6 2-2.5 2.5-.5.1-1 .2-1.6.3 0-2.4 0-6.8-.1-9.5m-2.9 9.9h-.1c-.5.1-1 .3-1.5.4-.2 0-.5.1-.7.1-.1 0-.3.1-.4.1-.7.1-1.3.3-2 .4h-1.1c-.2-.1-.3-.1-.3-.1-.1-.2-.3-.7-.4-2.4-.1-4.1-.1-8.2.2-12.3 2-.4 4.1-.8 6.2-1.4.1 1.8.1 3.6.2 5.3 0 1 .1 2.3.1 3.5 0 1.9-.1 3.9-.2 5.8zm-153.2 46.4c0-.2-.1-.3-.1-.5.7.3 1.5.7 2.3 1-.7-.1-1.4-.3-2.2-.5m25.7-3.1c-2.1-1-4.5-.5-6.7.2-.9.3-1.7.6-2.6.9-2.7.9-5.4 1.7-8.1 2.2-3-1.3-5.9-2.7-8.7-3.9-.1-1.2-.1-2.1 0-2.5 3-2.6 39.6-12.7 96.4-25.3 57.9-13 89.6-18.1 96.7-17.6-25.8 37.5-65.2 92.6-70.5 94.7-4.6 1.5-52.9-18.5-94.8-36.9.5-.6 1-1.2 1.3-1.9.8-1.6.9-3.7.2-5.8-.6-1.9-1.8-3.4-3.2-4.1m9.2 121.6c-.6-.7-1.5-2-2.8-4.7-8.5-17.5-22-66.7-28.6-96.5h-.2c6 0 11.7-1.3 17.6-4 1.4-.6 2.9-1.5 4.3-2.6 20.9 9.2 48.3 21 68.9 28.9-21.7 27.5-52.2 69.3-59.2 78.9m2.7.8c18.2-25.1 42.2-57.3 59.1-78.7 12.3 4.7 21.8 7.7 25.5 7.7.4 0 .8-.1 1.1-.2 2.3-.9 8.8-8.6 17-19.4 17.5 10.6 42.1 27 65.2 43.3-18.7 6.1-149.2 46.1-167.9 47.3m170.1-50c-.1.4-.2.6-.3.9-4.7-3.3-22.9-16.1-41.6-28.4-9.8-6.5-17.7-11.4-23.9-15.2 18.8-24.7 45.5-63.1 52.7-73.7 2 6.4 5.9 26.9 9.3 52.1 4.3 32.2 5.7 56.3 3.8 64.3"/><linearGradient id="gotify_svg__SVGID_1_" x1="114.789" x2="78.112" y1="400.174" y2="430.95" gradientUnits="userSpaceOnUse"><stop offset="0" style="stop-color:#71caee"/><stop offset=".041" style="stop-color:#83cae2"/><stop offset=".121" style="stop-color:#9fcace"/><stop offset=".211" style="stop-color:#b6cbbe"/><stop offset=".314" style="stop-color:#c7cbb1"/><stop offset=".438" style="stop-color:#d4cba8"/><stop offset=".606" style="stop-color:#dbcba3"/><stop offset="1" style="stop-color:#ddcba2"/></linearGradient><path d="M99.7 416.6c-6.7 1.7-14.3.4-19.5-3.3-.9-.7-1.8-1.4-2.6-2.1-.9-.8-1.8-1.6-2.8-2.2-2-1.3-4.3-1.9-6.1-1.6-1.3.2-2.4 1-3.1 2s-.9 2.3-.7 3.5c2.4 10.8 21.7 20 35.8 20h.2c11.2-.1 24.6-5.7 27.8-15 .1-.2.2-.4.4-.6l-11.2-13.5c-4.2 4.6-9.9 10.7-18.2 12.8" style="fill:url(#gotify_svg__SVGID_1_)"/><linearGradient id="gotify_svg__SVGID_00000050641528747663049770000009784490564186308008_" x1="296.629" x2="309.938" y1="273.618" y2="302.159" gradientUnits="userSpaceOnUse"><stop offset="0" style="stop-color:#71caee"/><stop offset=".041" style="stop-color:#83cae2"/><stop offset=".121" style="stop-color:#9fcace"/><stop offset=".211" style="stop-color:#b6cbbe"/><stop offset=".314" style="stop-color:#c7cbb1"/><stop offset=".438" style="stop-color:#d4cba8"/><stop offset=".606" style="stop-color:#dbcba3"/><stop offset="1" style="stop-color:#ddcba2"/></linearGradient><path d="M277.9 282.6c1.9 9.5 7.3 15.1 16.7 17.2s17.7 1.3 26.1-2.6c2.4-1.1 5.5-3.3 6.5-5.3.5-.9.5-2.3 0-3.7-.4-1.2-1.1-2.1-1.8-2.5-1.2-.6-2.7-.3-4.7.3-.9.3-1.7.6-2.6.8-4.6 1.5-9.4 3.1-14.4 2.7-6-.5-12.4-4.9-12.7-11.2l-13.2 4.1c0 .1.1.1.1.2" style="fill:url(#gotify_svg__SVGID_00000050641528747663049770000009784490564186308008_)"/><path d="M504.2 263.5c2-2 2.8-5.2 1.9-7.6-.9-2.3-2.9-3.8-5-4.6v.1c.2.8.3 1.6.5 2.5 0 .2.1.5.1.7.2.9.3 1.8.5 2.8v.1c.2 1 .4 2.1.6 3.2v.1c.2 1.1.4 2.3.6 3.4.3-.2.6-.5.8-.7" class="gotify_svg__st0"/><linearGradient id="gotify_svg__SVGID_00000096020458228278409580000002360172779484014002_" x1="-75.374" x2="99.497" y1="515.794" y2="515.794" gradientTransform="rotate(-5.297 -3124.01 -989.753)scale(.99997)" gradientUnits="userSpaceOnUse"><stop offset="0" style="stop-color:#333;stop-opacity:0"/><stop offset=".477" style="stop-color:#575756;stop-opacity:.2"/><stop offset=".995" style="stop-color:#333;stop-opacity:1.912072e-03"/><stop offset="1" style="stop-color:#333;stop-opacity:0"/></linearGradient><path d="M47.5 194.9s76.7 92.8 168.2 57.5l9-40.4c-84.2 50.3-175.6-28.2-175.6-28.2z" style="fill:url(#gotify_svg__SVGID_00000096020458228278409580000002360172779484014002_)"/><linearGradient id="gotify_svg__SVGID_00000168094455312706965050000011434034299155910572_" x1="80.204" x2="315.791" y1="526.93" y2="526.93" gradientTransform="matrix(.9991 .04164 -.04164 .9991 -36.156 -273.113)" gradientUnits="userSpaceOnUse"><stop offset="0" style="stop-color:#333;stop-opacity:0"/><stop offset=".477" style="stop-color:#575756;stop-opacity:.2"/><stop offset=".995" style="stop-color:#333;stop-opacity:1.912072e-03"/><stop offset="1" style="stop-color:#333;stop-opacity:0"/></linearGradient><path d="M23.9 211.9S109.6 349.6 238.1 319l19.3-52.3c-121.5 52-229.3-69.2-229.3-69.2z" style="fill:url(#gotify_svg__SVGID_00000168094455312706965050000011434034299155910572_)"/><linearGradient id="gotify_svg__SVGID_00000082368823939424192330000008184367141489339547_" x1="212.831" x2="497.614" y1="528.139" y2="528.139" gradientTransform="rotate(9.265 1584.61 -959.04)" gradientUnits="userSpaceOnUse"><stop offset="0" style="stop-color:#333;stop-opacity:0"/><stop offset=".477" style="stop-color:#575756;stop-opacity:.2"/><stop offset=".995" style="stop-color:#333;stop-opacity:1.912072e-03"/><stop offset="1" style="stop-color:#333;stop-opacity:0"/></linearGradient><path d="M0 234.4s82.9 177.7 241.6 159.5l30.7-60C118.9 378.8 7.1 217.7 7.1 217.7z" style="fill:url(#gotify_svg__SVGID_00000082368823939424192330000008184367141489339547_)"/></svg>