<?xml version="1.0" encoding="utf-8"?>
<!-- Generator: Adobe Illustrator 28.2.0, SVG Export Plug-In . SVG Version: 6.00 Build 0)  -->
<svg version="1.1" id="Layer_2_00000057140494615132436820000001909255501179968656_"
	 xmlns="http://www.w3.org/2000/svg" xmlns:xlink="http://www.w3.org/1999/xlink" x="0px" y="0px" viewBox="0 0 512 512"
	 style="enable-background:new 0 0 512 512;" xml:space="preserve">
<style type="text/css">
	.st0{fill:#DDCBA2;}
	.st1{fill:#71CAEE;}
	.st2{fill:#FFFFFF;}
	.st3{fill:#F0F0F0;}
	.st4{fill:url(#SVGID_1_);}
	.st5{fill:url(#SVGID_00000118387697960486290860000008794479754673284788_);}
	.st6{fill:url(#SVGID_00000124866343654111452050000001141053485910211491_);}
	.st7{fill:url(#SVGID_00000098941904783329147900000015072801180561103282_);}
	.st8{fill:url(#SVGID_00000090286241966571723540000011698921804992415895_);}
</style>
<path class="st0" d="M367.9,403.7c8.4-2.3,21.4,0,26.5,4.3c7.5,6.5,6.6,28.3,1.4,39.4c-1.1,2.3-2.4,4.5-4.4,5.9s-4.6,1.6-6.4,0.1
	c-1.8-1.6-2.4-4.4-2.6-7.1c-0.3-4.2-0.2-8.4,0.4-12.5c0.2-1.8,0.2-4-0.2-5.7c-0.8-3-3.4-4.2-6-4.8c-4.6-1.1-19.5-1-26.4-0.9
	c-1,0,2-12.3,2.7-13.1C356.5,405.3,363.1,405,367.9,403.7z"/>
<path class="st0" d="M423,207.6c-0.5,3,0.2,6.4,2.3,10c3.5,6,9.5,8.3,16.2,7.8c12.1-0.8,34.3-7.3,37.3-21.3c0.8-4-0.4-8.3-3-11.5
	c-8.4-10.6-24.2-7.8-34.8-2.7C433.2,193.7,424.3,199.5,423,207.6z"/>
<path class="st1" d="M441.5,225.4c-6.7,0.5-12.7-1.8-16.2-7.8c-2.1-3.6-2.8-7-2.3-10c1.3-8.1,10.2-13.9,18-17.7
	c4.7-2.3,10.4-4.1,16.1-4.5c-0.9-19.2-4.6-38.2-12.1-55.8c-13.4-31.7-39.4-57.2-72.4-67.9c-26.6-8.5-58.2-11.4-88.8-7.5
	c-2.7-0.8-5.3-1.6-8-2.4c-6.2-1.9-12.6-3.8-19-3.4c-3.9,0.2-8.2,1.8-9.4,5.4c-0.7,2-1.6,6.7-1.8,9.1c-8.4,2.9-16.6,6.4-24.3,10.6
	c-11.1,6-21.3,13.4-30.1,22.3c-6.6-5.5-14.3-9.4-22.7-11.2c-3-0.6-6.4-1-9.4,0.9c-2.5,1.6-4.2,4.5-5.6,7.3
	c-2.1,4.1-4.1,8.4-5.6,12.8c-0.5,1.6-0.8,3.5,0,4.7c0.5,0.8,1.2,1.2,2,1.6c7.3,3.7,14.8,6.7,22.4,9.4c-1.2,2.2-2.3,4.4-3.3,6.7
	c-14.1,31-9.6,61.4-2,93.2c2.7,11.5,5.9,23.1,4.9,34.9c-2.4,29.7-26.9,47.6-45.7,68.7c-2-0.8-3.8-2.8-5.1-4.6
	c-3.4-4.5-6.7-8.9-10-13.4c-0.8-1-1.6-2.1-2.8-2.5c-2.8-0.9-5.2,1.9-6.7,4.4c-1.1,1.9-2.3,3.7-3.4,5.6c-0.8,1.3-1.6,2.7-1.6,4.3
	c0,2.3,1.9,4.2,3.6,5.8c5.1,4.6,10.6,8.7,16.4,12.5c-2.5,3.6-4.7,7.4-6.6,11.3c-7.8,16.9-8.6,36.9-2.1,54.3
	c10.2,27.2,37.1,43.7,64.1,50.7c56,14.5,124.4,17.8,174.3-15.7c25.4-17,40-40,55-65.9c26.6-46,47.8-95.8,54.2-148.9
	C450.5,224.3,445.4,225.1,441.5,225.4z"/>
<path class="st2" d="M445,129.6c-3.4-8.1-7.6-15.7-12.6-22.8c7.1-2,15.4-0.6,21.9,3.3c14.8,8.9,21.2,27.1,23.3,44.2
	c0.9,7.1,1.2,14.4-0.7,21.2c-1.1,4.2-3.2,8.2-6,11.4c-0.9-0.5-1.9-1-2.9-1.3c-0.3-4.4-2.5-8.2-6-10.5c-1.8-1.2-3.8-1.9-5.9-2.3
	C454.4,158,450.8,143.4,445,129.6z M372.9,112.6c36.7,15.1,52.1,77.5,19,106.9c-22.9,20.3-66.6,21.8-92.8,2
	c-9.9-7.5-15.5-19.6-17.8-31.8c-3.6-19.4,0.4-41.5,12.7-57.2c0.6-0.7,1.2-1.4,1.8-2.1C313.8,110.3,349.2,102.7,372.9,112.6z
	 M458.7,239.1c1-0.2,2-0.4,3-0.5c0,0,0,0,0,0c0.3-0.4,0.6-0.7,0.8-1.2c0.5-1,0.7-2.3,0.8-3.5c0.4-4.2,0.8-8.5,0.5-12.7
	c-2.7,1.2-5.4,2.2-8.2,3c0.1,5.1,0.2,10.1,0,15c0,0.1,0,0.3,0,0.4c1.1-0.2,2.1-0.4,3.1-0.6C458.7,239.2,458.7,239.2,458.7,239.1z
	 M455.6,239.7c-2.9,0.5-5.8,1.1-8.8,1.7c0,0,0,0,0,0c-0.4-0.7-0.5-1.9-0.6-2.9c-0.1-4-0.1-8.1,0.2-12.2c2.8-0.4,5.9-1.1,9-2
	c0,1.9,0.1,3.9,0.1,5.7C455.6,232.8,455.6,237.5,455.6,239.7C455.6,239.7,455.6,239.7,455.6,239.7z"/>
<path class="st3" d="M495.7,236.4c-4.6-6.1-193.3,36.9-196.4,43c-0.3,0.5-0.3,2-0.1,4.1l0,0c0,0,0,0,0,0
	c2.2,22.1,28.6,120.4,37,123.2c9.2,3,162.6-44.5,171.8-47.6C517.2,356.1,500.3,242.5,495.7,236.4z"/>
<path d="M298.4,222.6c12.8,9.7,29.6,14.5,46.3,14.5c18,0,35.9-5.6,48.1-16.7c14.9-13.2,21.5-34.7,17.6-57.5
	c-4.1-23.7-18.6-44-37-51.6c-24.7-10.2-60.8-1.9-78.7,18.2c-0.6,0.7-1.2,1.5-1.8,2.2c-11.8,15.2-16.8,37.5-12.9,58.3
	C282.7,204,289.2,215.6,298.4,222.6z M295.1,133.4c0.5-0.7,1.1-1.4,1.7-2.1c12.3-13.7,33.3-21.7,52.9-21.7c8.1,0,15.9,1.4,22.8,4.2
	c17.6,7.3,31.4,26.7,35.3,49.6c3.7,21.9-2.5,42.5-16.7,55.1c-22.6,20.1-66,21-91.1,2c-8.6-6.6-14.8-17.6-17.3-31
	C279,169.5,283.7,148,295.1,133.4z M161.9,102.2c-0.4,1.5,0.6,4.2,1.7,5.1c0.6,0.5,0.6,1.3,0.2,1.9c-0.5,0.6-1.3,0.6-1.9,0.2
	c-1.8-1.5-3.2-5.2-2.5-7.9c0.5-2,1.8-3.5,3.6-4.1c5.7-2,16.2,4.2,23.9,9.8c0.6,0.4,0.7,1.3,0.3,1.9c-0.3,0.5-0.7,0.7-1.2,0.7
	c-0.3,0-0.6-0.1-0.8-0.3c-10-7.2-18-10.7-21.4-9.5C162.8,100.3,162.3,101,161.9,102.2z M363.5,189.3c4.7,1.1,11.2,0.9,14.2-3.4
	c1.4-2,1.9-4.5,2.1-7c0.7-7.6-2.5-15.4-10.9-16.5c-2.7-0.4-5.6,0.1-8,1.7c-4.3,2.8-6.4,8.4-6.4,13.4c0,2.5,0.5,5.1,1.9,7.2
	C358,187.1,360.7,188.6,363.5,189.3z M367.4,169.5c1.4-0.7,2.9-0.9,4.2-0.5c1.2,0.4,2.2,1.1,2.8,2.3c0.5,1,0.6,2.2,0.4,3.4
	c-0.2,1.4-0.8,2.8-2,3.6c-1,0.7-2.4,1-3.6,0.7s-2.3-1.1-3-2.1C364.7,174.7,364.9,170.9,367.4,169.5z M504,267.1
	c0.8-0.5,1.5-1.1,2.1-1.8c2.7-2.8,3.8-7,2.5-10.4c-1.2-3.3-4.2-5.7-8.2-6.8c0,0,0,0,0,0c-1.4-6.7-2.7-11.3-3.7-12.6
	c-0.7-1-2.5-1.5-9-0.9c-5.8,0.5-14.2,1.8-24.1,3.5c0.1-0.1,0.1-0.2,0.2-0.3c0.6-1.3,0.8-2.8,0.9-4c0.5-4.2,0.9-8.9,0.5-13.4
	c0,0,0,0,0,0c7.3-3.6,13.3-8.9,14.8-16c0.9-4.2-0.4-8.9-3.3-12.6c-1.4-1.7-3-3.2-4.7-4.3c2.8-3.2,4.9-7.2,6.2-11.8
	c2.1-7.7,1.5-15.7,0.7-21.8c0-0.3-0.1-0.7-0.1-1c0.9-0.2,1.7-0.5,2.3-1.1c0.9-0.9,1.1-2.2,1.2-3.4c0.3-3.1-0.1-6.4-1.2-9.3
	c-0.5-1.5-1.3-3.1-2.4-4.3c-1.3-1.4-3.1-2.2-4.9-2.1c0,0,0,0,0,0c-3.7-9.4-9.5-18.3-18.8-24c-6.3-3.8-14.8-5.6-22.3-3.7c0,0,0,0,0,0
	C417.9,84,397,68.3,373,60.5c-28-9.1-59.3-11.5-89-7.8l-7.8-2.3c-6-1.8-12.7-3.8-19.5-3.4c-5.4,0.3-9.4,2.7-10.6,6.4
	c-0.3,1-1.4,5.5-1.8,8.6c-8.3,2.9-16.3,6.4-23.7,10.4c-11.2,6-21,13.2-29.4,21.4c0,0,0,0,0,0c-6.7-5.3-14.3-8.9-22.3-10.7
	c-3-0.7-7-1.1-10.4,1.1c-2.7,1.8-4.5,4.8-6.1,7.8c-2.5,4.7-4.3,9-5.7,13c-0.5,1.4-1.1,4,0.1,5.9c0.7,1.1,1.7,1.7,2.5,2.1
	c10.6,5.4,21.6,9.3,34.9,13.4c0.1,0.1,0.3,0.1,0.4,0.1c0.6,0,1.1-0.3,1.4-1.1c0.2-0.7-0.2-1.5-0.9-1.7c-13.1-4.1-24-8-34.4-13.3
	c-0.7-0.4-1.2-0.7-1.5-1.1c-0.5-0.7-0.4-2,0.1-3.5c1.3-3.9,3.1-8,5.5-12.6c1.4-2.6,3-5.3,5.2-6.7c2.5-1.7,5.6-1.4,8.3-0.8
	c9.3,1.9,18,6.6,25.2,13.6c0.5,0.6,1.4,0.5,1.9,0c0.6-0.5,0.5-1.4,0-1.9c-0.7-0.6-1.4-1.3-2.1-1.9c0,0,0,0,0,0
	c8.1-7.9,17.6-14.9,28.5-20.8l0,0.1c42.3-23,101.3-27.5,150.3-11.7c31.8,10.2,57.8,34.7,71.5,67c5.5,13.1,9.2,27.3,11,42.6
	c-3.2-0.3-6.5,0.3-9.6,1.7c-3,1.4-5.4,3.5-6.9,6.1c-1.7,2.9-2.1,6.4-1.1,9.4c0.1,0.2,0.1,0.3,0.2,0.5c-9.3,5-14.6,10.7-15.6,17
	c-0.5,3.5,0.3,7.2,2.5,10.9c3.2,5.6,8.8,8.6,15.7,8.6c0.5,0,1.1,0,1.7,0c1.1-0.1,2.3-0.2,3.6-0.4c-0.3,4.1-0.4,8.1-0.2,12.2
	c0,1,0.1,2.1,0.5,3c0,0,0,0,0,0c-20.9,4.1-44.8,9.3-64.8,13.9c-24.1,5.6-80.5,19-82.6,23.2c-0.3,0.7-0.4,2.2-0.2,4.5
	c-0.1,0.3,0,0.6,0.1,0.8c0,0.3,0.1,0.6,0.1,0.8c-2.6-1.6-4.5-4.1-4.4-7.1c0-0.8-0.6-1.4-1.3-1.4c-0.8-0.1-1.4,0.5-1.4,1.3
	c-0.1,6.6,6.5,11.2,12.7,11.7c5,0.4,9.8-1.2,14.4-2.7c0.9-0.2,1.7-0.5,2.6-0.8c2-0.6,3.5-0.9,4.7-0.3c0.7,0.4,1.4,1.3,1.8,2.5
	c0.5,1.4,0.5,2.8,0,3.7c-1,2-4.1,4.2-6.5,5.3c-8.4,3.9-16.7,4.7-26.1,2.6c-9.4-2.1-14.8-7.7-16.7-17.2c-0.2-0.8-0.9-1.2-1.6-1.1
	c-0.8,0.2-1.2,0.9-1.1,1.6c2,10.5,8.3,17,18.7,19.3c2.6,0.6,5.1,0.9,7.6,1.1c0,0,0,0,0,0c6.2,28.3,18.6,73,26.9,92.9
	c3.7,9,5.8,11,7.1,11.5c0.2,0.1,0.4,0.2,0.6,0.2c0.3,0.1,0.6,0.1,1,0.1c5.8,0,23.8-4.4,46.2-10.5c-10.3,14.8-22,28-37.9,38.6
	c-56.4,37.8-132.7,25.9-173.2,15.5c-19-4.9-35-13.5-46.6-24.9c2.6-2.3,4.6-5,5.7-8.2c0.2-0.7-0.2-1.5-0.9-1.7
	c-0.7-0.2-1.5,0.2-1.7,0.9c-0.9,2.7-2.7,5-5,7.1c-4.5-4.8-8.3-10-11.3-15.6c2.1-1.9,4-3.9,5.6-5.7c0.5-0.5,0.5-1.4-0.1-1.9
	c-0.5-0.5-1.4-0.5-1.9,0.1c-1.6,1.8-3.2,3.4-4.9,4.9c-0.7-1.6-1.4-3.2-2-4.8c-6.4-17.2-5.6-36.6,2.1-53.2
	c6.4-13.6,17.5-24.9,28.2-35.9c15.6-16,31.9-32.6,33.8-56.6c0.9-11-1.8-21.9-4.3-32.4l-0.7-2.9c-6.9-29.3-12.5-60.5,1.9-92.4
	c0.9-2,1.9-3.9,2.9-5.8c-0.9-0.3-1.8-0.6-2.6-0.9c-1,1.8-1.9,3.7-2.8,5.6c-14.7,32.7-9.1,64.4-2,94.1l0.7,3
	c2.5,10.3,5.1,21,4.2,31.5c-1.9,23.1-17.1,38.6-33.1,55c-3.8,3.9-7.7,7.9-11.4,12c-1.2-0.7-2.5-2-3.8-3.8l-10-13.4
	c-0.7-1.1-1.8-2.4-3.4-3c-2.8-0.9-5.8,0.8-8.3,5l-3.4,5.6c-0.8,1.4-1.8,3.1-1.8,5.1c0,2.8,1.9,4.9,4,6.8c4.8,4.3,10,8.3,15.4,11.9
	c0,0,0,0,0,0c-2.3,3.4-4.3,6.9-6,10.5c-8,17.3-8.8,37.4-2.1,55.3c0.7,1.9,1.5,3.8,2.4,5.6c-3,2.4-6.1,4.3-10,5.3
	c-5.9,1.5-12.7,0.4-17.3-2.9c-0.8-0.6-1.6-1.2-2.4-1.9c-1-0.8-2-1.6-3.1-2.4c-2.6-1.7-5.6-2.5-8.1-2c-2,0.4-3.8,1.5-4.9,3.2
	c-1.1,1.6-1.5,3.6-1.1,5.5c2.8,12.3,23.3,22.1,38.5,22.1c0.1,0,0.1,0,0.4,0c7.5-0.1,16.1-2.4,22.4-6.9
	c11.9,11.8,28.5,20.9,48.2,25.9c19.7,5,47.7,10.4,77.8,10.4c32.7,0,67.9-6.3,97.6-26.3c6.9-4.6,12.9-9.6,18.4-15
	c5.4,0.1,9.1,0.4,10.9,0.9c3.1,0.7,4.6,1.8,5.1,3.8c0.4,1.4,0.4,3.4,0.2,5.2c-0.6,4.2-0.7,8.5-0.4,12.8c0.2,2.7,0.7,6,3,8
	c1.1,0.9,2.5,1.4,3.9,1.4c1.4,0,2.9-0.5,4.2-1.3c2.3-1.6,3.8-4.3,4.8-6.4c5.2-11.1,6.5-33.9-1.8-41c-2.6-2.3-6.9-3.9-11.7-4.8
	c1.4-1.9,2.7-3.8,4-5.8c50.6-14,119.7-35.7,120.8-36.1c1.1-0.3,1.9-1.4,2.5-3.2C514.4,346,509.3,299.3,504,267.1z M247.2,61
	C247.2,61,247.2,61,247.2,61c0.4-2.3,1-5.3,1.5-6.8c1-3,4.9-4.3,8.2-4.5c6.3-0.4,12.5,1.5,18.5,3.3l2.2,0.7
	C267.1,55.3,256.9,57.8,247.2,61z M101.1,323.3c-1.6-1.5-3.1-3.1-3.1-4.8c0-1.1,0.7-2.2,1.5-3.6l3.4-5.6c0.9-1.4,3-4.5,5.1-3.8
	c0.7,0.3,1.4,1.1,2.1,2l10,13.4c0.7,0.9,2.1,2.9,4.1,4.2c0,0,0,0,0,0c-2.8,3.2-5.5,6.5-7.9,9.9C111,331.5,105.8,327.6,101.1,323.3z
	 M100.9,432.9c-0.1,0-0.1,0-0.2,0c-14.1,0-33.4-9.2-35.8-20c-0.2-1.2,0-2.5,0.7-3.5c0.7-1,1.8-1.8,3.1-2c1.8-0.3,4.1,0.3,6.1,1.6
	c1,0.6,1.9,1.4,2.8,2.2c0.8,0.7,1.7,1.4,2.6,2.1c5.2,3.7,12.8,5,19.5,3.3c4.1-1,7.6-3.1,10.6-5.4c3,5.5,6.7,10.7,11.2,15.5
	C115.8,430.6,107.9,432.8,100.9,432.9z M393.5,408.9c6.7,5.8,6.3,26.9,1.1,37.8c-0.8,1.7-2,4.1-3.9,5.4c-1.3,0.9-3.4,1.3-4.8,0.1
	c-1.6-1.3-1.9-4.1-2.1-6.1c-0.3-4-0.2-8.2,0.4-12.2c0.2-1.6,0.2-4.1-0.3-6.2c-1-3.9-4.5-5.2-7-5.8c-1.7-0.4-4.6-0.7-8.8-0.8
	c5-5.2,9.6-10.7,13.9-16.5c0,0,0,0,0,0C386.7,405.3,391.1,406.8,393.5,408.9z M501.1,251.3c2.1,0.8,4.1,2.4,5,4.6
	c0.9,2.4,0.1,5.6-1.9,7.6c-0.2,0.2-0.5,0.5-0.7,0.7C502.7,259.5,501.9,255.1,501.1,251.3C501.1,251.3,501.1,251.3,501.1,251.3z
	 M446.2,129.2c-3.2-7.7-7.1-14.9-11.6-21.6c0,0,0,0,0,0c1.4-0.3,2.9-0.4,4.4-0.4c5.1,0,10.4,1.6,14.7,4.4
	c15.5,9.4,20.9,28.7,22.7,43.2c0.8,5.8,1.3,13.5-0.6,20.7c-1.2,4.3-3.2,8-5.8,10.9c-0.7-0.3-1.3-0.6-2-0.9c-0.3-4.4-2.5-8.2-6-10.5
	c-1.4-0.9-2.9-1.6-4.5-2C455.7,157.4,451.9,142.7,446.2,129.2z M471.1,187C471.1,187,471.1,187,471.1,187
	C471.1,187,471.1,187,471.1,187z M441.4,224.1c-4.7,0.3-11.1-0.7-14.9-7.2c-1.8-3.1-2.5-6.2-2.1-9.1c0.8-5.4,5.6-10.5,14.2-15.1
	c2.2,2.9,5.6,4.7,8.5,5.7c2.8,1,5.5,1.5,7.9,1.5c1.9,0,3.7-0.3,5.4-0.8c4.7-1.8,7.1-6.4,7.6-10.7c0,0,0,0,0,0
	c2.6,1.1,4.9,2.7,6.7,5.1c2.4,3.1,3.4,7,2.7,10.4C474.6,217.5,451.9,223.4,441.4,224.1z M457,230c0-0.6-0.1-1.3-0.1-1.9
	c0-1.4,0-2.8-0.1-4.2c0,0,0,0,0,0c1.8-0.6,3.7-1.3,5.5-2c0,0,0,0,0,0c0.2,3.9-0.2,8.1-0.5,11.8c-0.1,1-0.2,2.2-0.6,3
	c-0.6,1.3-1.6,2-2.5,2.5c-0.5,0.1-1,0.2-1.6,0.3c0,0,0,0,0,0C457.1,237.1,457.1,232.7,457,230z M454.1,239.9c0,0-0.1,0-0.1,0
	c-0.5,0.1-1,0.3-1.5,0.4c0,0,0,0,0,0c-0.2,0-0.5,0.1-0.7,0.1c-0.1,0-0.3,0.1-0.4,0.1c0,0,0,0,0,0c-0.7,0.1-1.3,0.3-2,0.4
	c0,0,0,0,0,0c0,0,0,0,0,0c-0.4,0-0.8,0-1.1,0c-0.2-0.1-0.3-0.1-0.3-0.1c-0.1-0.2-0.3-0.7-0.4-2.4c-0.1-4.1-0.1-8.2,0.2-12.3h0
	c2-0.4,4.1-0.8,6.2-1.4c0.1,1.8,0.1,3.6,0.2,5.3c0,1,0.1,2.3,0.1,3.5c0,1.9-0.1,3.9-0.2,5.8C454.1,239.4,454.1,239.6,454.1,239.9z
	 M300.9,286.3c0-0.2-0.1-0.3-0.1-0.5c0.7,0.3,1.5,0.7,2.3,1C302.4,286.7,301.7,286.5,300.9,286.3z M326.6,283.2
	c-2.1-1-4.5-0.5-6.7,0.2c-0.9,0.3-1.7,0.6-2.6,0.9c-2.7,0.9-5.4,1.7-8.1,2.2c-3-1.3-5.9-2.7-8.7-3.9c-0.1-1.2-0.1-2.1,0-2.5
	c3-2.6,39.6-12.7,96.4-25.3c57.9-13,89.6-18.1,96.7-17.6c-25.8,37.5-65.2,92.6-70.5,94.7c-4.6,1.5-52.9-18.5-94.8-36.9
	c0.5-0.6,1-1.2,1.3-1.9c0.8-1.6,0.9-3.7,0.2-5.8C329.2,285.4,328,283.9,326.6,283.2z M335.8,404.8c-0.6-0.7-1.5-2-2.8-4.7
	c-8.5-17.5-22-66.7-28.6-96.5c-0.1,0-0.1,0-0.2,0c6,0,11.7-1.3,17.6-4c1.4-0.6,2.9-1.5,4.3-2.6c0,0,0,0,0,0
	c20.9,9.2,48.3,21,68.9,28.9c0,0,0,0,0,0C373.3,353.4,342.8,395.2,335.8,404.8z M338.5,405.6c18.2-25.1,42.2-57.3,59.1-78.7
	c12.3,4.7,21.8,7.7,25.5,7.7c0.4,0,0.8-0.1,1.1-0.2c2.3-0.9,8.8-8.6,17-19.4c0,0,0,0,0,0c17.5,10.6,42.1,27,65.2,43.3
	C487.7,364.4,357.2,404.4,338.5,405.6z M508.6,355.6c-0.1,0.4-0.2,0.6-0.3,0.9c-4.7-3.3-22.9-16.1-41.6-28.4
	c-9.8-6.5-17.7-11.4-23.9-15.2c18.8-24.7,45.5-63.1,52.7-73.7c2,6.4,5.9,26.9,9.3,52.1C509.1,323.5,510.5,347.6,508.6,355.6z"/>
<linearGradient id="SVGID_1_" gradientUnits="userSpaceOnUse" x1="114.7892" y1="400.1737" x2="78.1115" y2="430.9497">
	<stop  offset="5.152266e-07" style="stop-color:#71CAEE"/>
	<stop  offset="4.104413e-02" style="stop-color:#83CAE2"/>
	<stop  offset="0.1206" style="stop-color:#9FCACE"/>
	<stop  offset="0.2107" style="stop-color:#B6CBBE"/>
	<stop  offset="0.3139" style="stop-color:#C7CBB1"/>
	<stop  offset="0.4384" style="stop-color:#D4CBA8"/>
	<stop  offset="0.6058" style="stop-color:#DBCBA3"/>
	<stop  offset="1" style="stop-color:#DDCBA2"/>
</linearGradient>
<path class="st4" d="M99.7,416.6c-6.7,1.7-14.3,0.4-19.5-3.3c-0.9-0.7-1.8-1.4-2.6-2.1c-0.9-0.8-1.8-1.6-2.8-2.2
	c-2-1.3-4.3-1.9-6.1-1.6c-1.3,0.2-2.4,1-3.1,2c-0.7,1-0.9,2.3-0.7,3.5c2.4,10.8,21.7,20,35.8,20c0.1,0,0.1,0,0.2,0
	c11.2-0.1,24.6-5.7,27.8-15c0.1-0.2,0.2-0.4,0.4-0.6l-11.2-13.5C113.7,408.4,108,414.5,99.7,416.6z"/>
<linearGradient id="SVGID_00000050641528747663049770000009784490564186308008_" gradientUnits="userSpaceOnUse" x1="296.6291" y1="273.6178" x2="309.9382" y2="302.1592">
	<stop  offset="5.152266e-07" style="stop-color:#71CAEE"/>
	<stop  offset="4.104413e-02" style="stop-color:#83CAE2"/>
	<stop  offset="0.1206" style="stop-color:#9FCACE"/>
	<stop  offset="0.2107" style="stop-color:#B6CBBE"/>
	<stop  offset="0.3139" style="stop-color:#C7CBB1"/>
	<stop  offset="0.4384" style="stop-color:#D4CBA8"/>
	<stop  offset="0.6058" style="stop-color:#DBCBA3"/>
	<stop  offset="1" style="stop-color:#DDCBA2"/>
</linearGradient>
<path style="fill:url(#SVGID_00000050641528747663049770000009784490564186308008_);" d="M277.9,282.6c1.9,9.5,7.3,15.1,16.7,17.2
	c9.4,2.1,17.7,1.3,26.1-2.6c2.4-1.1,5.5-3.3,6.5-5.3c0.5-0.9,0.5-2.3,0-3.7c-0.4-1.2-1.1-2.1-1.8-2.5c-1.2-0.6-2.7-0.3-4.7,0.3
	c-0.9,0.3-1.7,0.6-2.6,0.8c-4.6,1.5-9.4,3.1-14.4,2.7c-6-0.5-12.4-4.9-12.7-11.2l-13.2,4.1C277.8,282.5,277.9,282.5,277.9,282.6z"/>
<path class="st0" d="M504.2,263.5c2-2,2.8-5.2,1.9-7.6c-0.9-2.3-2.9-3.8-5-4.6c0,0,0,0,0,0c0,0,0,0.1,0,0.1c0.2,0.8,0.3,1.6,0.5,2.5
	c0,0.2,0.1,0.5,0.1,0.7c0.2,0.9,0.3,1.8,0.5,2.8c0,0,0,0.1,0,0.1c0.2,1,0.4,2.1,0.6,3.2c0,0,0,0.1,0,0.1c0.2,1.1,0.4,2.3,0.6,3.4
	c0,0,0,0,0,0C503.7,264,504,263.7,504.2,263.5z"/>
<linearGradient id="SVGID_00000096020458228278409580000002360172779484014002_" gradientUnits="userSpaceOnUse" x1="-75.3739" y1="515.7943" x2="99.497" y2="515.7943" gradientTransform="matrix(0.9957 -9.229364e-02 9.229364e-02 0.9957 78.0107 -292.5612)">
	<stop  offset="0" style="stop-color:#333333;stop-opacity:0"/>
	<stop  offset="0.4767" style="stop-color:#575756;stop-opacity:0.2"/>
	<stop  offset="0.995" style="stop-color:#333333;stop-opacity:1.912072e-03"/>
	<stop  offset="1" style="stop-color:#333333;stop-opacity:0"/>
</linearGradient>
<path style="fill:url(#SVGID_00000096020458228278409580000002360172779484014002_);" d="M47.5,194.9c0,0,76.7,92.8,168.2,57.5
	l9-40.4c-84.2,50.3-175.6-28.2-175.6-28.2L47.5,194.9z"/>
<linearGradient id="SVGID_00000168094455312706965050000011434034299155910572_" gradientUnits="userSpaceOnUse" x1="80.204" y1="526.9296" x2="315.7912" y2="526.9296" gradientTransform="matrix(0.9991 4.164194e-02 -4.164194e-02 0.9991 -36.156 -273.1126)">
	<stop  offset="0" style="stop-color:#333333;stop-opacity:0"/>
	<stop  offset="0.4767" style="stop-color:#575756;stop-opacity:0.2"/>
	<stop  offset="0.995" style="stop-color:#333333;stop-opacity:1.912072e-03"/>
	<stop  offset="1" style="stop-color:#333333;stop-opacity:0"/>
</linearGradient>
<path style="fill:url(#SVGID_00000168094455312706965050000011434034299155910572_);" d="M23.9,211.9c0,0,85.7,137.7,214.2,107.1
	l19.3-52.3c-121.5,52-229.3-69.2-229.3-69.2L23.9,211.9z"/>
<linearGradient id="SVGID_00000082368823939424192330000008184367141489339547_" gradientUnits="userSpaceOnUse" x1="212.8307" y1="528.1385" x2="497.6136" y2="528.1385" gradientTransform="matrix(0.9869 0.161 -0.161 0.9869 -133.7322 -267.6342)">
	<stop  offset="0" style="stop-color:#333333;stop-opacity:0"/>
	<stop  offset="0.4767" style="stop-color:#575756;stop-opacity:0.2"/>
	<stop  offset="0.995" style="stop-color:#333333;stop-opacity:1.912072e-03"/>
	<stop  offset="1" style="stop-color:#333333;stop-opacity:0"/>
</linearGradient>
<path style="fill:url(#SVGID_00000082368823939424192330000008184367141489339547_);" d="M0,234.4c0,0,82.9,177.7,241.6,159.5
	l30.7-60C118.9,378.8,7.1,217.7,7.1,217.7L0,234.4z"/>
</svg>
