<svg xmlns="http://www.w3.org/2000/svg" xml:space="preserve" viewBox="0 0 512 512"><path d="M237.8 316.6c-.3-1.9.2-3.8 1.3-5.3.8-1 1.9-1.7 3.1-2.2s2.5-.8 3.7-1c4.2-.7 8.4-.8 12.7-.8 4.2 0 8.5.1 12.7.8 1.3.2 2.5.5 3.7 1s2.3 1.2 3.1 2.2c1.1 1.5 1.5 3.5 1.3 5.3-.3 1.8-1.1 3.6-2.3 5-2.1 2.6-5 4.3-8.3 5.3s-6.7 1.2-10.1 1.2-6.8-.3-10.1-1.2-6.4-2.6-8.5-5.3c-1.2-1.5-2.1-3.2-2.3-5m58.8 30.6c-1.4-.7-3-.8-4.6-.5-1.1.2-2 .7-3 1.1-4 1.7-8.4 2.5-12.7 2.2-4.4-.3-8.6-1.7-12.2-4-2.2-1.4-4-3.2-5.5-5.2-1.5 2-3.4 3.8-5.5 5.2-3.5 2.3-7.8 3.7-12.2 4-4.4.2-8.8-.5-12.7-2.2-1-.4-2-.9-3-1.1-1.5-.4-3.2-.2-4.6.5s-2.4 1.9-2.8 3.3c-.4 1.5-.1 3.1.8 4.4s2.1 2.4 3.4 3.4c5.5 3.9 12.9 5.3 19.9 4.6 6-.6 11.9-2.7 16.8-6 4.7 3.4 10.6 5.4 16.6 6 7 .7 14.3-.7 19.9-4.6 1.3-.9 2.5-2.1 3.4-3.4.8-1.4 1.2-3 .8-4.4s-1.4-2.6-2.8-3.3m201 30.3c7.8 71.5-36.5 73.2-48.8 49.1-.8-1.6-1.5-3.3-2-5.1-24.9 32.8-42.9 21-45.9 18.9-30.7 21.7-80.7 42.6-142.5 42.6-53 0-101.8-15.8-140.9-42.5-19 12.7-38.7 5.1-49.8-12.4-22.5 23.7-38.3 18.8-45.8 4.7-5.9-10.9-6.7-27.5-1.7-40.6-7.2-3.6-12.4-8.4-15.8-14.3-10.1-17.7-2.9-44.9 23.1-76.4-1.3-8.9-2-18-2-27.1 0-80.3 55.2-169 125-184.9-18.1-11.8-21.5-24.5-16-33.2 8.4-13.5 37.4-17.9 66.4 3.7 16.6-40.3 57.8-40.4 58.9-5.3 63.2-1 98.4 22.4 129.9 38.9 17.2 9 38 18.6 62.3 19.7 29.3 1.4 44.5 32.9 13.3 57.5 1.2 2 2.5 4.2 3.6 6.3 15.8 28.9 22.3 60.4 22.5 124 28.9 24.5 23.8 60 6.2 76.4m-184-98.6c0 14.2 13.7 17.3 18.8 4.8 3.3-8 9.8-11.9 18.6-11.5 7.3.4 14 6.4 15.5 11.5 3.5 11.5 19.2 9.6 19.6-2.2.5-16.6-15.5-32.9-35.8-34-20.2-1-36.7 17.2-36.7 31.4m-107.5.1c0-14.2-16.4-32.5-36.6-31.5s-36.4 17.3-35.9 33.9c.3 11.7 16 13.7 19.6 2.2 1.5-5 8.2-11 15.5-11.4 8.8-.4 15.3 3.6 18.6 11.6 5 12.4 18.7 9.4 18.8-4.8m244.7 35c-30.4 6.6-46.2 10.9-71.9 11.3-10.2.2-47-1.5-64.6-11.2-15.2-8.6-23.6-20.2-23.3-40.4.2-9.5 5.6-25.5 18.8-38.5l.1-.1.9-.9c.1-.1.2-.2.4-.3.3-.2.5-.5.8-.7.2-.2.4-.3.6-.5l.6-.6c.3-.2.5-.4.8-.7.2-.1.3-.3.5-.4.4-.3.7-.6 1.1-.9l.2-.2c12.7-9.9 31-16.9 56.3-15.6 37 2 55.2 11.9 77.6 28-7.6-32.1-26-61.3-60.7-74-60-21.8-100.3 10.9-129.1 11.6-20.2-.4-46-16.6-80.3-18.8.1-.1.1-.1.2-.1-1.2 0-2.5-.1-3.7-.1-1.3-.1-2.6-.1-3.9-.1h-2.6c-.5.1-1.1.1-1.7.1h-.7c-.6 0-1.1.1-1.7.1h-.7c-.6 0-1.2.1-1.8.1h-.6c-.7.1-1.4.1-2.1.2h-.3c-9.1 1-18.9 3.1-29.2 6.9C96 181 77.6 210.1 70.1 242.1H70c0 .1-.1.3-.1.4-.5 2-.9 4-1.3 6v.1c-.4 1.6-.6 3.3-.9 4.9v.1c-1.2 7.7-1.8 15.4-2 23.1v1.6c.2-11.9 1.5-24 4.3-35.8 22.4-16.1 40.6-26 77.6-28 59.9-3.2 80.6 40.4 81 59.2v-.3c-.1-3.8-1-8.6-2.9-13.9 2 5.4 2.9 10.3 3 14.1.3 16.5-5.2 27.3-15.5 35.3-2.4 1.9-5 3.6-7.9 5.2-17.6 9.7-54.4 11.4-64.6 11.2-25.7-.4-41.4-4.7-71.8-11.3 16.7 83.9 96.5 135.4 191.2 135.3h8c.8 0 1.7-.1 2.6-.1.4-.1.8-.1 1.2-.1 1-.1 2-.1 3-.2h.7c1.1 0 2.3-.1 3.4-.2 43.6-3.3 83.1-17.8 113.5-41.4.3-.3.7-.5 1-.8.4-.3.9-.7 1.3-1 .6-.5 1.1-.9 1.7-1.4.2-.2.5-.5.8-.7.7-.6 1.5-1.3 2.2-1.9.1-.1.3-.2.4-.3 17.8-15.5 32-34.4 41.4-56.3l-.1.1c4.1-9.6 7.3-19.8 9.5-30.5h.1" style="fill:#fff"/></svg>