<svg xmlns="http://www.w3.org/2000/svg" xml:space="preserve" viewBox="0 0 512 512"><path d="M493.3 124.9v262.2c0 6.9-5.6 12.5-12.5 12.5h-70c15.4-2.9 29.6-9.5 41.4-18.8h16.1c3.4 0 6.2-2.8 6.2-6.2v-18.8c8.9-14.5 14.1-31.6 14.1-49.8s-5.2-35.3-14.1-49.8V137.3c0-3.4-2.8-6.2-6.2-6.2H43.7c-3.4 0-6.2 2.8-6.2 6.3v237.2c0 3.4 2.8 6.2 6.2 6.2h290.9c11.9 9.3 26 15.9 41.4 18.8H31.2c-6.9 0-12.5-5.6-12.5-12.5V124.9c0-6.9 5.6-12.5 12.5-12.5h449.6c6.9 0 12.5 5.6 12.5 12.5m18.7-6.3v274.8c0 13.8-11.2 25-25 25H25c-13.8 0-25-11.2-25-25V118.7c0-13.8 11.2-25 25-25h462c13.8 0 25 11.2 25 24.9m-12.5 0c0-6.9-5.6-12.5-12.5-12.5H25c-6.9 0-12.5 5.6-12.5 12.5v274.7c0 6.9 5.6 12.5 12.5 12.5h462c6.9 0 12.5-5.6 12.5-12.5zM393.4 226.3c-43.9 0-79.6 35.7-79.6 79.6s35.7 79.6 79.6 79.6S473 349.8 473 306s-35.7-79.7-79.6-79.7m44.8 48.1-50 62.4c-1.7 2.1-4.1 3.3-6.8 3.5h-.5c-2.5 0-4.9-1-6.6-2.7l-25-25c-3.7-3.7-3.7-9.6 0-13.2 3.7-3.7 9.6-3.7 13.2 0l17.6 17.6 43.4-54.3c3.2-4 9.1-4.7 13.2-1.5 4 3.2 4.7 9.1 1.5 13.2"/><path d="M337.2 224.8h-50v-56.2h50zm137.3 31.4v-3.3h-2.1zm-81.1-45.4c6.4 0 12.7.6 18.7 1.8v-25.3h-50v28.8c9.8-3.4 20.3-5.3 31.3-5.3m-199.8-29.7h-50v43.7h50zm-74.9-18.8h-50v62.4h50zm195.7 90.6h-55.3V131.1h-6.2v121.8H37.5v6.2h215.4v121.8h6.2V259.1h51.5c1.2-2.1 2.5-4.2 3.8-6.2" style="opacity:.3"/><path d="M393.4 401.2c-52.5 0-95.2-42.7-95.2-95.2s42.7-95.2 95.2-95.2 95.2 42.7 95.2 95.2-42.7 95.2-95.2 95.2m0-174.9c-43.9 0-79.6 35.7-79.6 79.6s35.7 79.6 79.6 79.6S473 349.8 473 306s-35.7-79.7-79.6-79.7" style="opacity:.5"/></svg>