<?xml version="1.0" encoding="utf-8"?>
<!-- Generator: Adobe Illustrator 28.2.0, SVG Export Plug-In . SVG Version: 6.00 Build 0)  -->
<svg version="1.1"
	 id="svg602" xmlns:sodipodi="http://sodipodi.sourceforge.net/DTD/sodipodi-0.dtd" sodipodi:docname="/home/digitect/gramps.svg"
	 xmlns="http://www.w3.org/2000/svg" xmlns:xlink="http://www.w3.org/1999/xlink" x="0px" y="0px" viewBox="0 0 512 512"
	 style="enable-background:new 0 0 512 512;" xml:space="preserve">
<style type="text/css">
	.st0{fill:#BABABA;}
	.st1{fill:#B8B8B8;}
	.st2{fill-rule:evenodd;clip-rule:evenodd;fill:#EAD4BC;}
	.st3{fill:#B39166;}
	.st4{fill-rule:evenodd;clip-rule:evenodd;fill:#D4B993;}
	.st5{fill-rule:evenodd;clip-rule:evenodd;fill:#B39A7D;}
	.st6{fill-rule:evenodd;clip-rule:evenodd;fill:#887058;}
	.st7{fill-rule:evenodd;clip-rule:evenodd;fill:#695144;}
</style>
<path class="st0" d="M164.7,263.7h-44.3v-1.1h44.3V263.7z M119.7,278.3h48.9v-13.4h-48.9V278.3z M377.9,337.5l25,0.1l0-12.7
	l-37.8-0.1l0.3,59.9h-54.3v13.9h54.4l0.3,60.7l37.4,0.2l0.1-12.7l-24.8-0.2L377.9,337.5z M364.1,70.3l0.4,72.2h-51.4V156h51.5
	l0.3,48.9h37v-12.7h-24.3L376.9,83h26.8V70.3H364.1z M207.8,143.3l-38,0.2l1.6,255.1h35.9v-12.7h-23.2l-1.4-229.7l25.2-0.2
	L207.8,143.3z"/>
<path d="M196.9,147.7l-25.7,0.2l1.4,229.7h23.2v12.7h-35.9l-0.8-120.1h-38.8v-12.7h38.7l-0.8-122.3l38.5-0.2L196.9,147.7z
	 M366.4,329.1l25,0.1l0-12.7l-37.8-0.1l0.3,61.3h-38.2v12.7h38.3l0.3,60.4l37.4,0.2l0.1-12.7l-24.8-0.2L366.4,329.1z M352.6,61.8
	l0.4,72.7h-36.8v12.7h36.9l0.3,49.2h37v-12.7H366l-0.6-109.2h26.8V61.8H352.6z"/>
<path class="st1" d="M170.6,379.1l25.7,0.1l0,1.9l-25.7-0.1L170.6,379.1z M162.6,269.5l0-1l-1.9,0l0.7,114c0,5.9,0,6,0.9,6
	c0,0,0,0,0.1,0l0.4,0l0.6-0.6l0-0.4C163.3,387.2,162.6,270.7,162.6,269.5z M159.9,136.8l0,1.9l0.1,0l0.7,115.3c0,2.7,0,4.2,0.1,5.1
	l-40.2,0.3l0,1.9l42.1-0.3l0-1.4l0,0l0-0.4c0-0.3-0.6-109.8-0.7-120.5l34.8-0.3l0-1.9L159.9,136.8z M316.3,138.4l40.6-0.3l0-1l0,0
	l0-0.4c0-0.3-0.6-62.6-0.7-71.2l36.2-0.3l0-1.9l-36.2,0.3l0,0l-1.9,0l0.7,70c0,1.2,0,2.1,0.1,2.7l-38.7,0.3L316.3,138.4z
	 M390.8,187.2l0-1.9l-27-0.1l0,1.9L390.8,187.2z M354.8,145.7l0.2,48.7l1.9,0l-0.2-48.7L354.8,145.7z M356.6,380.9l0.9,0l-0.2-60.8
	l34.5-0.1l0-1.9l-34.5,0.1v0l-1.9,0l0.2,61l-39.6,0.3l0,1.9L356.6,380.9L356.6,380.9z M364.7,441.6l27.1,0.1l0-1.9l-27.1-0.1
	L364.7,441.6z M356.1,388.4l0.2,60.6l1.9,0l-0.2-60.6L356.1,388.4z"/>
<path class="st2" d="M12.2,295l-5.8,5.8h0v-0.3l5.6-5.7v-62.7l0.1,0.1h97.1l5.7-5.7v0.2l-5.6,5.6V295H12.2z M304.7,172.1v-62.6
	l5.6-5.6v-0.2l-5.7,5.7h-97.1l-0.1-0.1V172l-5.6,5.7v0.3h0l5.8-5.8H304.7z M304.7,416.4v-62.6l5.6-5.6v-0.2l-5.7,5.7h-97.1l-0.1-0.1
	v62.7l-5.6,5.7v0.3h0l5.8-5.8H304.7z M499.2,98.2V35.6l5.6-5.6v-0.2l-5.7,5.7h-97.1l-0.1-0.1v62.7l-5.6,5.7v0.3h0l5.8-5.8H499.2z
	 M499.2,221.2v-62.6l5.6-5.6v-0.2l-5.7,5.7h-97.1l-0.1-0.1v62.7l-5.6,5.7v0.3h0l5.8-5.8H499.2z M499.2,354.3v-62.6l5.6-5.6V286
	l-5.7,5.7h-97.1l-0.1-0.1v62.7l-5.6,5.7v0.3h0l5.8-5.8H499.2z M500,476.4v-62.6l5.6-5.6V408l-5.7,5.7h-97.1l-0.1-0.1v62.7l-5.6,5.7
	v0.3h0l5.8-5.8H500z"/>
<path class="st3" d="M0,220.2v86.9h121.3v-86.9H0z M0.7,220.9h120l-11.4,11.4H12.1l-0.1-0.1v62.7L0.8,306.2L0.7,220.9z M108.6,233
	v61.5H12.7V233H108.6z M0.8,306.4L12.2,295h97.1v-62.6l11.3-11.3l-0.1,85.1l0.2,0.2H0.8z M195.3,97.4v86.9h121.3V97.4H195.3z
	 M196,98h120l-11.4,11.4h-97.1l-0.1-0.1V172l-11.2,11.3L196,98z M303.9,110.1v61.5h-95.8v-61.5H303.9z M196.1,183.6l11.4-11.4h97.1
	v-62.6L316,98.2l-0.1,85.1l0.2,0.2H196.1z M195.3,341.7v86.9h121.3v-86.9H195.3z M196,342.3h120l-11.4,11.4h-97.1l-0.1-0.1v62.7
	l-11.2,11.3L196,342.3z M303.9,354.4v61.5h-95.8v-61.5H303.9z M196.1,427.9l11.4-11.4h97.1v-62.6l11.3-11.3l-0.1,85.1l0.2,0.2H196.1
	z M389.9,23.4v86.9h121.3V23.4H389.9z M390.5,24.1h120l-11.4,11.4h-97.1l-0.1-0.1v62.7l-11.2,11.3L390.5,24.1z M498.4,36.2v61.5
	h-95.8V36.2H498.4z M390.6,109.6L402,98.2h97.1V35.6l11.3-11.3l-0.1,85.1l0.2,0.2H390.6z M389.9,146.4v86.9h121.3v-86.9H389.9z
	 M390.5,147.1h120l-11.4,11.4h-97.1l-0.1-0.1v62.7l-11.2,11.3L390.5,147.1z M498.4,159.1v61.5h-95.8v-61.5H498.4z M390.6,232.6
	l11.4-11.4h97.1v-62.6l11.3-11.3l-0.1,85.1l0.2,0.2H390.6z M389.9,279.6v86.9h121.3v-86.9H389.9z M390.5,280.2h120l-11.4,11.4h-97.1
	l-0.1-0.1v62.7l-11.2,11.3L390.5,280.2z M498.4,292.3v61.5h-95.8v-61.5H498.4z M390.6,365.8l11.4-11.4h97.1v-62.6l11.3-11.3
	l-0.1,85.1l0.2,0.2H390.6z M390.7,401.6v86.9H512v-86.9H390.7z M391.4,402.3h120l-11.4,11.4h-97.1l-0.1-0.1v62.7l-11.2,11.3
	L391.4,402.3z M499.3,414.4v61.5h-95.8v-61.5H499.3z M391.5,487.8l11.4-11.4H500v-62.6l11.3-11.3l-0.1,85.1l0.2,0.2H391.5z"/>
<path class="st4" d="M0.7,220.9h120l-11.4,11.4H12.1L0.7,220.9z M196,98h120l-11.4,11.4h-97.1L196,98z M196,342.3h120l-11.4,11.4
	h-97.1L196,342.3z M390.5,24.1h120l-11.4,11.4h-97.1L390.5,24.1z M390.5,147.1h120l-11.4,11.4h-97.1L390.5,147.1z M390.5,280.2h120
	l-11.4,11.4h-97.1L390.5,280.2z M391.4,402.3h120l-11.4,11.4h-97.1L391.4,402.3z"/>
<path class="st5" d="M0.7,220.9L12,232.2v62.7L0.8,306.2L0.7,220.9z M196,98l11.3,11.3V172l-11.2,11.3L196,98z M196,342.3l11.3,11.3
	v62.7l-11.2,11.3L196,342.3z M390.5,24.1l11.3,11.3v62.7l-11.2,11.3L390.5,24.1z M390.5,147.1l11.3,11.3v62.7l-11.2,11.3
	L390.5,147.1z M390.5,280.2l11.3,11.3v62.7l-11.2,11.3L390.5,280.2z M391.4,402.3l11.3,11.3v62.7l-11.2,11.3L391.4,402.3z"/>
<path class="st6" d="M120.6,221.1l-11.3,11.3v62.7l11.2,11.3L120.6,221.1z M316,98.2l-11.3,11.3v62.7l11.2,11.3L316,98.2z
	 M316,342.5l-11.3,11.3v62.7l11.2,11.3L316,342.5z M510.5,24.3l-11.3,11.3v62.7l11.2,11.3L510.5,24.3z M510.5,147.3l-11.3,11.3v62.7
	l11.2,11.3L510.5,147.3z M510.5,280.4l-11.3,11.3v62.7l11.2,11.3L510.5,280.4z M511.3,402.5L500,413.8v62.7l11.2,11.3L511.3,402.5z"
	/>
<path class="st7" d="M120.7,306.4H0.8L12.2,295h97.1L120.7,306.4z M316.1,183.6h-120l11.4-11.4h97.1L316.1,183.6z M316.1,427.9h-120
	l11.4-11.4h97.1L316.1,427.9z M510.6,109.6h-120L402,98.2h97.1L510.6,109.6z M510.6,232.6h-120l11.4-11.4h97.1L510.6,232.6z
	 M510.6,365.8h-120l11.4-11.4h97.1L510.6,365.8z M511.4,487.8h-120l11.4-11.4H500L511.4,487.8z"/>
</svg>
