<svg xmlns="http://www.w3.org/2000/svg" xml:space="preserve" viewBox="0 0 512 512"><path d="M496.3 39c-32.8.5-61.1 6.5-86 16.8-1.1-3.8-1.6-7.7-1.6-11.9 0-24.2 19.7-43.9 43.9-43.9 22.7 0 41.3 17.1 43.7 39m-83.1 24.3c7.2 14.5 22.1 24.5 39.4 24.5 23.2 0 42.2-18 43.8-40.8-31.7.5-59.2 6.3-83.2 16.3m-101.4 69.2v3c7.2-9.5 14.8-18.5 23-27 18.7-19.5 40-36 64.9-48V44.6c-48.5 0-87.9 39.4-87.9 87.9m28.8-18.5c-10.3 10.8-19.8 22.5-28.8 34.9v283.7c48.5 0 87.9-39.3 87.9-87.8V69.5c-22.6 11.4-42 26.6-59.1 44.5M236.9 265.8c1-2 2-4 3-6.1 14.8-29.9 29.9-60 47.1-87.9-15.6-24.3-42.9-40.4-74-40.4v181.7c8.1-15.5 16-31.3 23.9-47.3m10.2-2.5c-1.1 2.2-2.1 4.3-3.2 6.5-10.1 20.4-20.2 40.7-30.8 60.4v94c0 48.5 39.3 87.8 87.9 87.8V219.2c0-14.2-3.4-27.6-9.3-39.5-16.1 26.5-30.4 54.9-44.6 83.6m-132.8 33.3v145.3c13.2-9.4 25.1-20.5 36.1-32.8 19.6-22 36.3-47.9 51.8-75.8V208.7c-48.5 0-87.9 39.3-87.9 87.9m0 155v32c48.5 0 87.9-39.3 87.9-87.8v-46.3c-13.7 23.6-28.7 45.7-45.8 64.9-12.6 14.2-26.5 26.8-42.1 37.2m-98.8-5.8v29.8c32.6-1.8 59.9-10.4 83.5-23.9 2.9-8.7 4.4-18 4.4-27.6V358c-48.5 0-87.9 39.3-87.9 87.8m0 66.2c34.4 0 64.2-19.7 78.6-48.5-22.6 11.4-48.5 18.6-78.6 20.2z"/></svg>