<svg xmlns="http://www.w3.org/2000/svg" xml:space="preserve" viewBox="0 0 512 512"><linearGradient id="grayjay_svg__a" x1="256" x2="256" y1="754.393" y2="231.564" gradientTransform="translate(0 -278)" gradientUnits="userSpaceOnUse"><stop offset="0" style="stop-color:#01d6e6"/><stop offset="1" style="stop-color:#0182e7"/></linearGradient><path d="M256 476.4 512 84.2H0z" style="fill:url(#grayjay_svg__a)"/><path d="M60.8 354.8c10.4-11.2 36.3-36.6 56.3-49.4 20.1-12.7 44.1-49.4 53.6-66 28.9-42.6 93.9-131.8 121.7-146.8 5-3.9 12.3-9.9 15.3-12.5 10.4-23.2 45.9-62.6 104.4-34.8 5-1.7 17.3-2.1 23-2.1-4.4 3-13.6 11.8-15.3 23-4.5 30.6-21.3 48.5-29.3 53.6-5.5 35.5-13.2 66.8-29.9 77.9l15.3 27.2c23 24.3 70.5 76.9 77.2 92.5-22.3-7.2-36.7-14.1-41.1-16.7l41.1 56.3c-24.1-1.9-78.4-17.6-102.3-65.4 9.5 25.6 18.8 57.5 22.3 70.2-13-10.7-40.9-41.6-48.7-80 2.2 37.3 1.9 63.7 1.4 72.3-6.3-5.7-20.7-23.8-28.5-49.4V348c-9.3-13-28.1-44.5-29.9-68.3 1.6 27 .6 39.6-.1 42.6l-35.4-33.4c-9.5 5.1-35.1 16.7-61.2 22.3-17.8 15-39.4 52.7-48 69.6v-21.5l-23.6 23.6 8.4-25.1-15.3 13.3c-3.4 2.1-11.6 6.3-16 6.3 1.7-3.9 4.9-8.2 6.3-9.7l-20.3 7.6c2.3-6.7 9.6-21.5 20.2-27.2-14.5 5.2-20.4 6.7-21.6 6.7" style="fill:#fff"/></svg>