<?xml version="1.0" encoding="utf-8"?>
<!-- Generator: Adobe Illustrator 28.2.0, SVG Export Plug-In . SVG Version: 6.00 Build 0)  -->
<svg version="1.1"
	 id="svg2" xmlns:svg="http://www.w3.org/2000/svg" xmlns:sodipodi="http://sodipodi.sourceforge.net/DTD/sodipodi-0.dtd" xmlns:inkscape="http://www.inkscape.org/namespaces/inkscape" xmlns:rdf="http://www.w3.org/1999/02/22-rdf-syntax-ns#" xmlns:cc="http://creativecommons.org/ns#" xmlns:dc="http://purl.org/dc/elements/1.1/" sodipodi:docname="grist_icon.svg"
	 xmlns="http://www.w3.org/2000/svg" xmlns:xlink="http://www.w3.org/1999/xlink" x="0px" y="0px" viewBox="0 0 512 512"
	 style="enable-background:new 0 0 512 512;" xml:space="preserve">
<style type="text/css">
	.st0{fill:#42494B;}
	.st1{fill-rule:evenodd;clip-rule:evenodd;fill:#2CB0AF;}
	.st2{fill-rule:evenodd;clip-rule:evenodd;fill:#F9AE41;}
	.st3{fill-rule:evenodd;clip-rule:evenodd;fill:#D2D2D2;}
</style>
<path class="st0" d="M454.4,0H57.6C25.8,0,0,25.8,0,57.6v396.8C0,486.2,25.8,512,57.6,512h396.8c31.8,0,57.6-25.8,57.6-57.6V57.6
	C512,25.8,486.2,0,454.4,0z"/>
<path class="st1" d="M479.3,50h-68.9c-31.9,0-57.5,25.8-57.5,57.8V165h69.5c31.3,0,56.9-25.8,56.9-57.3
	C479.3,107.8,479.3,50,479.3,50z M192.6,50h68.9c31.9,0,57.5,25.8,57.5,57.8V165h-69.5c-31.3,0-56.9-25.8-56.9-57.3L192.6,50
	L192.6,50z"/>
<path class="st2" d="M32.7,198.4h68.9c31.9,0,57.5,25.8,57.5,57.8v57.3H89.6c-31.3,0-56.9-25.8-56.9-57.3V198.4z M32.7,346.8h68.9
	c31.9,0,57.5,25.8,57.5,57.8v57.3H89.6c-31.3,0-56.9-25.8-56.9-57.3V346.8z"/>
<path class="st3" d="M192.6,198.4h68.9c31.9,0,57.5,25.8,57.5,57.8v57.3h-69.5c-31.3,0-56.9-25.8-56.9-57.3L192.6,198.4L192.6,198.4
	z M479.3,198.4h-68.9c-31.9,0-57.5,25.8-57.5,57.8v57.3h69.5c31.3,0,56.9-25.8,56.9-57.3C479.3,256.2,479.3,198.4,479.3,198.4z
	 M192.6,346.8h68.9c31.9,0,57.5,25.8,57.5,57.8v57.3h-69.5c-31.3,0-56.9-25.8-56.9-57.3L192.6,346.8L192.6,346.8z M479.3,346.8
	h-68.9c-31.9,0-57.5,25.8-57.5,57.8v57.3h69.5c31.3,0,56.9-25.8,56.9-57.3C479.3,404.6,479.3,346.8,479.3,346.8z"/>
</svg>
