<svg xmlns="http://www.w3.org/2000/svg" xml:space="preserve" viewBox="0 0 512 512"><path d="M454.4 0H57.6C25.8 0 0 25.8 0 57.6v396.8C0 486.2 25.8 512 57.6 512h396.8c31.8 0 57.6-25.8 57.6-57.6V57.6C512 25.8 486.2 0 454.4 0" style="fill:#42494b"/><path d="M479.3 50h-68.9c-31.9 0-57.5 25.8-57.5 57.8V165h69.5c31.3 0 56.9-25.8 56.9-57.3zm-286.7 0h68.9c31.9 0 57.5 25.8 57.5 57.8V165h-69.5c-31.3 0-56.9-25.8-56.9-57.3z" style="fill-rule:evenodd;clip-rule:evenodd;fill:#2cb0af"/><path d="M32.7 198.4h68.9c31.9 0 57.5 25.8 57.5 57.8v57.3H89.6c-31.3 0-56.9-25.8-56.9-57.3zm0 148.4h68.9c31.9 0 57.5 25.8 57.5 57.8v57.3H89.6c-31.3 0-56.9-25.8-56.9-57.3z" style="fill-rule:evenodd;clip-rule:evenodd;fill:#f9ae41"/><path d="M192.6 198.4h68.9c31.9 0 57.5 25.8 57.5 57.8v57.3h-69.5c-31.3 0-56.9-25.8-56.9-57.3zm286.7 0h-68.9c-31.9 0-57.5 25.8-57.5 57.8v57.3h69.5c31.3 0 56.9-25.8 56.9-57.3zM192.6 346.8h68.9c31.9 0 57.5 25.8 57.5 57.8v57.3h-69.5c-31.3 0-56.9-25.8-56.9-57.3zm286.7 0h-68.9c-31.9 0-57.5 25.8-57.5 57.8v57.3h69.5c31.3 0 56.9-25.8 56.9-57.3z" style="fill-rule:evenodd;clip-rule:evenodd;fill:#d2d2d2"/></svg>