<svg xmlns="http://www.w3.org/2000/svg" xml:space="preserve" viewBox="0 0 512 512"><path d="M454.4 0H57.6C25.8 0 0 25.8 0 57.6v396.8C0 486.2 25.8 512 57.6 512h396.8c31.8 0 57.6-25.8 57.6-57.6V57.6C512 25.8 486.2 0 454.4 0M159.1 461.9H89.6c-31.3 0-56.9-25.8-56.9-57.3v-57.8h68.9c31.9 0 57.5 25.8 57.5 57.8zm0-148.5H89.6c-31.3 0-56.9-25.8-56.9-57.3v-57.8h68.9c31.9 0 57.5 25.8 57.5 57.8zM319 461.9h-69.5c-31.3 0-56.9-25.8-56.9-57.3v-57.8h68.9c31.9 0 57.5 25.8 57.5 57.8zm0-148.5h-69.5c-31.3 0-56.9-25.8-56.9-57.3v-57.8h68.9c31.9 0 57.5 25.8 57.5 57.8zm0-148.4h-69.5c-31.3 0-56.9-25.8-56.9-57.3V50h68.9c31.9 0 57.5 25.8 57.5 57.8zm160.3 239.6c0 31.4-25.6 57.3-56.9 57.3h-69.5v-57.3c0-31.9 25.6-57.8 57.5-57.8h68.9zm0-148.4c0 31.4-25.6 57.3-56.9 57.3h-69.5v-57.3c0-31.9 25.6-57.8 57.5-57.8h68.9zm0-148.4c0 31.4-25.6 57.3-56.9 57.3h-69.5v-57.3c0-31.9 25.6-57.8 57.5-57.8h68.9z" style="fill:#fff"/></svg>