<svg xmlns="http://www.w3.org/2000/svg" xml:space="preserve" viewBox="0 0 512 512"><path d="M197.7 325.7 368 199.9c8.3-6.2 20.3-3.8 24.2 5.8 20.9 50.5 11.6 111.2-30.1 152.9-41.6 41.7-99.6 50.8-152.5 30l-57.8 26.8c83 56.8 183.7 42.7 246.7-20.3 49.9-50 65.4-118.1 50.9-179.6l.1.1c-21-90.3 5.2-126.4 58.7-200.2 1.3-1.7 2.5-3.5 3.8-5.3l-70.4 70.5v-.2zm-35.1 30.6c-59.5-57-49.3-145.1 1.5-195.9 37.6-37.6 99.1-53 152.9-30.4l57.7-26.7c-10.4-7.5-23.7-15.6-39-21.3-69.1-28.5-151.9-14.3-208.1 41.9-54 54.1-71 137.3-41.9 208.3 21.8 53.1-13.9 90.6-49.9 128.5-12.7 13.4-25.5 26.8-35.8 41.1z" style="fill:#fff"/></svg>