<svg xmlns="http://www.w3.org/2000/svg" xml:space="preserve" viewBox="0 0 512 512"><path d="M331.8 180.1H180.2l16.2-21.7h119.1zm-162.5 21.7h173.3v140.8c0 6-4.9 10.8-10.8 10.8H180.1c-6 0-10.8-4.9-10.8-10.8zm32.5 32.5c0 29.9 24.3 54.2 54.1 54.2s54.2-24.3 54.2-54.2c0-6-4.8-10.8-10.8-10.8s-10.8 4.8-10.8 10.8c0 17.9-14.6 32.5-32.5 32.5s-32.5-14.6-32.5-32.5c0-6-4.8-10.8-10.8-10.8s-10.9 4.8-10.9 10.8M512 112v288c0 61.9-50.1 112-112 112H112C50.1 512 0 461.9 0 400V112C0 50.1 50.1 0 112 0h288c61.9 0 112 50.1 112 112m-147.7 79c0-.3 0-.7-.1-1v-.4c0-.2-.1-.4-.1-.6 0-.1-.1-.3-.1-.4 0-.2-.1-.4-.1-.5s-.1-.3-.1-.4c-.1-.2-.1-.4-.2-.6s-.1-.4-.2-.5l-.3-.6c-.1-.1-.1-.2-.2-.4s-.2-.3-.3-.5c-.1-.1-.2-.2-.2-.3-.1-.1-.1-.2-.2-.2l-32.5-43.3c-2-2.7-5.3-4.3-8.7-4.3H191c-3.4 0-6.6 1.6-8.7 4.3l-32.5 43.3c-.1.1-.1.2-.2.2-.1.1-.2.2-.2.3-.1.2-.2.3-.3.5-.1.1-.1.2-.2.4l-.3.6c-.1.2-.2.4-.2.6-.1.2-.1.4-.2.5 0 .1-.1.3-.1.4 0 .2-.1.3-.1.5 0 .1-.1.3-.1.4 0 .2-.1.4-.1.6v.4c0 .3-.1.7-.1 1v151.6c0 17.9 14.6 32.5 32.5 32.5h151.6c17.9 0 32.5-14.6 32.5-32.5z" style="fill:#fff"/></svg>