<svg xmlns="http://www.w3.org/2000/svg" xml:space="preserve" viewBox="0 0 512 512"><path d="M256 0c141.4 0 256 114.6 256 256S397.4 512 256 512 0 397.4 0 256 114.6 0 256 0" style="fill:#968ff8"/><path d="M144.6 196.1c41.2 0 74.6 56.4 74.6 125.9s-33.4 125.9-74.6 125.9S70 391.5 70 322s33.4-125.9 74.6-125.9m224 0c41.2 0 74.6 56.4 74.6 125.9s-33.4 125.9-74.6 125.9S294 391.5 294 322s33.4-125.9 74.6-125.9" style="fill:#2b303d"/><path d="M409 216.1c0-6.4-15.1-75.4-43.2-94.6S311.3 91.8 259.2 91s-65.7 5.6-92.2 24.1c-26.5 18.4-56.4 71.4-62.5 101 0 0 9.3 14.9 30.8 30.6-23.7 32.7-38 75.2-38 121.8 0 40.4 10.8 77.8 29.1 108.3 38 22.4 82.3 35.2 129.6 35.2 45.3 0 87.8-11.8 124.7-32.4 19.4-31.1 30.8-69.5 30.8-111.1 0-45-13.4-86.3-35.7-118.6 23-15.5 33.2-31.3 33.2-33.8" style="fill:#1a1d24"/><path d="M258.7 232c-.5 2-3.3 2-3.9 0l-7.8-29.8c-.3-1.3.6-2.5 1.9-2.5h15.6c1.3 0 2.3 1.2 1.9 2.5zm-55.6-70c13.9 0 18.9 7.7 19.7 12 .5 3.7.5 12.1-3.9 15.9-5.5 4.8-23.4 10.4-28.4-4.8-3.7-11.2-2.1-15.9-2.4-15.9 2.4-5.6 7.2-7.2 15-7.2m105-1.1c-14 0-19 7.8-19.8 12.1-.5 3.8-.5 12.2 4 16.1 5.6 4.8 23.5 10.6 28.6-4.8 3.7-11.3 2.1-16.1 2.4-16.1-2.5-5.7-7.3-7.3-15.2-7.3" style="fill:#cbcbce"/></svg>