<svg xmlns="http://www.w3.org/2000/svg" xml:space="preserve" viewBox="0 0 512 512"><path d="M379.7 138.9v305.9h-41.8V277.4H173v41.4h123.1v21.4c0 53.5-.1 106.9.1 160.4q0 4.95.6 8.1c46.7-7.6 89.2-27.9 123.8-57.2V236.3c0-32.4-7.2-68-40.9-97.4m-82.9 12.8h41.8V59.9c25.1 5.4 120.4 67.8 124.3 165.4v181.4C493.8 364.4 512 312.3 512 256c0-127.3-92.9-232.8-214.6-252.7-.4 2.1-.5 4.9-.5 8.3zM130.9 373.1v-306h41.8v167.4h164.8v-41.4h-123v-21.4c0-53.5.1-106.9-.1-160.4q0-4.95-.6-8.1c-46.7 7.7-89.2 28-123.8 57.3v215.2c0 32.4 7.2 68 40.9 97.4m84.3-12.8h-41.8v91.8C148.3 446.7 53 384.3 49.1 286.7V105.3C18.2 147.6 0 199.7 0 256c0 127.3 92.9 232.8 214.6 252.7.4-2.1.5-4.9.5-8.3z" style="fill:#fff"/></svg>