<svg xmlns="http://www.w3.org/2000/svg" xml:space="preserve" viewBox="0 0 512 512"><path d="m495.1 272.8-17.8-17.4 17.7-17.3v1.1l15.3.1.1-15-15.3-.1v6.7l-41.4-8.4-.1-11 33.9-22.9v3.4l15.3.1.1-15-15.3-.1v2.4L464 166.3l8.4-19.6 10.5.1.1-15-15.3-.1-.1 8.3-30.2 2.3-.1-12.8h-6.1l12.7-23 12.2.1.1-15-15.2-.1v5.7l-22.8-3.5 3.9 35.9-12.4.1.1 11.7-35-4.4-4-37.2 12.7-.1-.1-11.5 34.7 5.5v-.2l-34.7-5.3-.1-9.2 23.9-12.1v5.2l8.6.1 2.3 21.3h.1l-2.3-21.3h6.6l.1-15-15.3-.1-.1 9.7-23.9 12.1V72l-12.8.1 2.2-26.8 8.9.1.1-15-15.3-.1-.1 9.1-21.7 5.9 21.7-5.9v5.9h6.2l-2.2 26.8-9.4.1-16.2-26.9h.1-.1L332.4 25h3.2l.1-15-15.3-.1-.1 15h1.8l-16.2 19.9-15.2.1-8.5-29.9h5.7l.1-15h-15.4l-.1 14-17.8 14.2-16.5-12.7h.5L238.6.2l-15 .1.1 15.3h5L220.4 45l-15.2-.1-15.7-19.2h1.6l.1-15-15.2-.2-.1 15h2.3L166.5 45l-20.7-5.7-.1-9.6-15 .1.1 15.3 8.2-.1 2 27.7-12.7-.1v6.9L105 68.7l.1-11.5-15.3-.1-.1 15h6.8l-2.7 22.7-22 4 .1-7.8-15.3-.1-.1 15 10 .1L80 129.3h-5.7l-.1 12.9-29.7-2.3.1-8.1-15.3-.1-.1 15 10.3.1 8.8 19.8L26 179.7v-2.4l-15.3-.1-.1 15 15.3.1v-2.8l31.9 21.3-.1 12.1-40.6 7.8V225l-15.3-.1-.1 15 15 .1L34 256.2l-17.3 16.5-14.9-.1-.1 15 15.3.1v-5.9l40.9 7.2v11.2l-32.1 21.6v-.7l-15.3-.1-.1 15 15.3.1v-2.5l22 12.2L39 366l-10.5-.1-.1 15 15.3.1.1-8.4 30.3-3 .1 12.3h6L66 407.2l-10-.1-.1 15 15.3.1v-7.1l22.1 3.1 2.4 22.1h-5.9l-.1 15 15.3.1.1-10.2 23.3-12.9v6.3l12.2-.1-2.4 30.3h-7.3l-.1 15 15.3.1.1-10.2 20.8-6.4 11.8 19.6h-3.6l-.1 15 15.3.1.1-15H189l16.5-21.1 14.5-.1 8.3 31.1h-4.1l-.1 15 15.3.1.1-15h-.3l16.2-13-.2-.1-16.2 13-10.4-.1-8.3-31.1 10.1-.1v-2.4l25.1 20.6 18 14.7.1 13.4 15-.1-.1-15.3h-6.2l8.9-30.3 15.3.1 16.3 21h-2.3l-.1 15 15.3.1.1-15h-3.6l12.3-20.8 21.3 6.4.1 10.4 15-.1-.1-15.3-8.6.1-2-29.3 13.4.1v-6.7l23.6 11.9-.1 11 15.3.1.1-15h-7.6l2.6-22.4 23.5-3.5-.1 7.6 15.3.1.1-15-12.1-.1-13.4-24.9h6.3l.1-12.6 30.5 3.1-.1 8.8 15.3.1.1-15-10.9-.1-9.1-21-.4.2 9 20.7h-3.9v5.7l-30.5-3.1.1-9.1L463 345l-25.6 14.7v-5.6l-23.9-.2-17.5-23.3 7.5.1.2-26.4 22.1-7.5-.1 8.2 19.9.1 17.4 40-17.4-40 7.8.1v-4l34 23.1v6.8l-24.4 14h-.1l.1.2 24.4-13.9v4.5l15.3.1.1-15-15.3-.1v2.8l-34.1-22.6.1-11.7 41.5-7.7v5.9l15.3.1.1-15-15.3-.1zm0-41.6v6.9l-17.8 17.3-23.5-22.8-.1-9.8zm-65 46L417 257.3l14.9-23.1 21.8-.2v-1.3l23.5 22.8-23.6 23v-1.1zM356 411.1v4.2L329.6 396l.1-17.3 45.1-5.2-4.3 37.8zm-74.5 27.4v2.9L256 421.8l31.1-23.9v5.3l17.6.1-6.9 35.3zM101.7 157.2l.1-15.5 34.7-4.2-4.7 45.6-16.7-.1-17.7-25.8zm54.1-56.5V96l26.1 18.6-.1 17.2-45.1 5.5 3.8-36.7zm125-28 16.4-.1 7 35.3-16.3-.1v5.3l-32.2-24.5 25-19.2zm156.8 84.5v-5.9l26.3 15-17.2 40-21 .2.1 9.5-21.3-5.8.3-26.5-8.7-.1 17.9-26.1zm-75.7 63.5-9.6 8.1v-3l-35.5-.2-2.5-29.2 47.7 5.5zm-.7 92.5-46.6 3.8 2.6-30.7 34.8.2v-1.2l9.4 8.2zm-44.6-87.7-25-.2-.4 60.8 25.6.2-2.6 30.7-28.4 2.4.2-26.7-60.8-.4-.2 26.5-28.9-3-3-28.9 26.6.2.4-60.8-27.1-.2 3-29.6 29-3.3-.2 26.5 60.8.4.2-27.1 28.3 3.3zM291.2 361l-6.8-7.5h1.2l.2-33.9 28.4-2.3-3.7 43.9zm-189.4-7.1h-3.5l16-22.7 17.7.2 4.4 42.2-34.5-3.9zm-16.1-76.8h-4.8l14.2-21.2 21.5 33.2-8-.1-.1 13.6-22.6-6.9zm65.3 13.7 7.9-6.9v2.8l33.9.2 3 28.9-45-4.6zm8.3-64.9v3.8l-8.7-7.6.1-20.4 44.9-5.2-3 29.6zm-8.7-.5v-2.9l8.7 7.6-.4 53.4-7.9 6.9v-1l-34.2-.3-21.6-33.4 20.5-30.5zm-18.5 106 18.5.2.2-20.2 45 4.6 4.7 45.1-19.1-.1-.1 17.5-44.8-5zm68.6 29.7-4.7-45 29 2.9-.2 34.1h2.8l-7.3 8.2zM290 150l-8 9.3-53-.3-7.7-8.7h2.9l.3-37.4 31.3-24 32.3 24.5-.3 36.7zm-69.2.2 7.7 8.7h-3.3l-.2 34-29 3.3 4.7-46.2zm65 42.5.2-33.4h-3.8l8-9.3 19.9.1 4 45.8zm-5-123.4-25.1 19.2-25.3-19.3.2-21.7 24-19.2 26 19.9zm-50.4 3.5v-3.4l25.2 19.2-31.2 24V108l-17.4-.1 6.9-35.2zM181.8 132l-.1 17.9 18.7.1-4.6 46.3-45 5.2.1-18.3-19-.1 4.7-45.6zm-66.3 93.2-20.4 30.4-14-21.5h4l.1-17.6 23.1-6.5-.1 15zm-34.6 8.9 14 21.6-14.3 21.4-22.7.2v1.3l-23.7-22.4 23.4-22.3zm5 70.7-.1-9 22.6 6.9-.3 28.5 5.8.1-16 22.7-24 .2v6.2l-26-14.5L65.4 305zm16 65 34.5 3.9 3.9 37.1-12.1.1.1 12.1-34.8-4.8-4-36.5 12.5-.1zm54.1 40.9-15.5.1-3.9-37.1 44.7 5-.2 24.5 25.8.2 6.8 34.7-11.3.1.1 18-35.3 10.9-17.2-28.7h6.2zm74.2 27.3-16.3.1-6.8-34.7 16.4.1V397l32.3 24.8-25.6 19.6zm-6.7-41.1.3-35.6h-3.2l7.4-8.2 56.2.4 6.8 7.5h-3.6l-.3 36.8-31.2 23.9zm106.2-18.4.1-17.2-19-.1 3.7-43.9 46.7-3.9-.1 17 18.6.1-4.9 42.8zm31.7-90.3v5L352 285l.4-55.9 9.6-8.1v4.4l34.2.3 20.7 31.5-20.2 31.2zm34.8-62.5 8.1.1.1-15.5 21.3 5.8.1 18.1h5.8l-14.8 22.9zm91.3-45.9-.1 8.8-33.9 22.9v-5.2h-6.6l17.1-39.9zM467.6 140v6.7h4.7l-8.4 19.5-26.3-15-.1-8.9zm-49.4-46.2 22.8 3.5-.1 9.2h3l-12.7 23-9.1.1zm-8.5 47.8.1 15.8h3.9l-17.9 26.1-16.1-.2-5-46.2zm-30.1 41.8-17.3-.2-.2 18.4-47.7-5.5-4-45.9 19.7.1.1-18.7 44.3 5.6zm-5.1-46.3-44.3-5.6.1-18.1 25.2-17.7v4.3l14.9-.1zM322.2 24.9l10.1.1 12.2 20.2h-.1l16.2 26.9h-5.3l.2 23.2-25.2 17.7v-5.1l-26.1-.2-7-35.3 11.4-.1-.1-17.3 35.9-9.8-35.9 9.8-.1-10.2h-2.3zM272.5 14v1l9.5.1 8.5 29.9-9.9.1v3.2l-25.9-19.9zm-43.7 1.6 9.2-.1 16.5 12.7-24 19.2V45l-10.1-.1zm-50.4 9.9 11.1.1 15.7 19.2H203l-.2 10.2-36.1-9.9zm24.4 29.6-.1 17.5 11.1.1-6.9 35.2-24.8-.2v6.8L156 95.9l.2-23H150l16.7-27.7zM139.1 45h6.7v-5.6l20.7 5.7-16.7 27.8-8.7-.1zM96.6 72.1l8.4.1v-3.3l23.2 10.9-.1 8.8-34.3 6.3zM93.9 95l34.3-6.3-.1 11.8 12.2.1-3.8 36.8-34.7 4.2.1-12.2-12.1-.1zm-27.4 11h5.3v-7.1l21.9-4-4.1 34.4-9.7-.1zm-27.1 40.7h5V140l29.7 2.3-.1 9.2-25.7 15.1 25.7-15v5.4l23.4.2 17.7 25.8h-6.6l-.2 27-23.1 6.5.1-10.1-19.5-.1-17.5-39.5zm-13.6 42.6.1-9.4 22.3-13.1 17.4 39.4-7.8-.1v4.6zM17 239.9l.1-9.1 40.6-7.8-.1 10.8-23.4 22.3zm0 41.8.1-9H17l17.2-16.4 23.7 22.4v10.2zm8.8 51.8.1-11.5L58 300.3v4.7l7.4-.1-17.5 40.8zm18.1 39v-6.6h-4.5l8.6-20 26 14.5.1 9.1zM71.2 415l.1-7.8h-5.2l14.3-25.4 9-.1 3.9 36.4zm33.9 30.1v-4.7l-9.3-.1-2.4-22.1 34.9 4.8.1 9.2zm41.2 28.5v-4.7l-7.9-.1 2.4-30.3 9.1-.1 17.2 28.8zM189 487l-9.9-.1-11.8-19.7 35.3-10.9.1 9.6h2.9zm41.4-23.7-.2-21.7 25.7-19.7 25.6 19.6-.2 21.6-25.8 20.7zm51.7 33.3-8.7.1v1.8l-17.8-14.6 25.7-20.7v3.1l9.7.1zm49.9-9-9.1-.1-16.3-21h2.4l.1-10.3 35.3 10.5zm-22.9-31.5.1-17.4-11.3-.1 6.9-35.3 24.7.2.1-7.4 26.4 19.4-.2 23.5h5l-16.4 27.7zm62.9 12.2h-6.3v4.6l-21.2-6.3 16.4-27.7 9.1.1zm42.8-28h-7.6v3.9l-23.6-11.8.1-9.4 33.8-5zm29.3-33.2H441v7.3l-23.5 3.5v-.2l-33.9 5 .1-11.5-13-.1 4.3-37.8 34.5-4-.1 12.4 12.3.1-4.2 35.9h.3l4.1-35.8 8.8.1zM413.2 354h-3.6l-.1 15.3-34.6 4 4.9-42.8 16.1.1zm-9.5-49.9.1-15.6h-6.9l20-31.1 13 19.8h-4l-.1 19.3zm49.8-14.7.1-10.8 23.6-23 17.9 17.4-.1 8.7z"/></svg>