<?xml version="1.0" encoding="utf-8"?>
<!-- Generator: Adobe Illustrator 28.2.0, SVG Export Plug-In . SVG Version: 6.00 Build 0)  -->
<svg version="1.1" id="Layer_1" xmlns="http://www.w3.org/2000/svg" xmlns:xlink="http://www.w3.org/1999/xlink" x="0px" y="0px"
	 viewBox="0 0 512 512" style="enable-background:new 0 0 512 512;" xml:space="preserve">
<g>
	<g>
		<g>
			<rect x="229.1" y="119.3" transform="matrix(0.7488 -0.6628 0.6628 0.7488 -48.107 191.973)" width="0.3" height="80.3"/>
			<polygon points="129.5,204.1 87.9,143.3 88.1,143.3 129.7,204.1 			"/>
			<g>
				<path d="M308.9,381.1l-53.1-58.9l-53.1,58.9l-0.2-0.2l53.2-59l0.1,0.1l0.1-0.1l53.2,59L308.9,381.1z M381.8,311.6l-62.5-54.9
					l0,0l0,0l62.4-52.5l-125.8-14.5l0,0l-0.1,0l0,0L130,204.1l59.9,52.4l-0.1,0.1l0.1,0.1l-60.1,52.6l-0.2-0.2l60-52.5l-60-52.5
					l0.1-0.1l0-0.1l126.1-14.5l0,0l0,0l0,0l52.5-60.7l0.2,0.2l-52.4,60.5l125.8,14.5l0,0.2l0.1,0.1l-62.3,52.5l62.3,54.7
					L381.8,311.6z"/>
				<polygon points="309.1,381 308.9,381 319.3,256.6 308.3,128.8 308.5,128.8 319.5,256.6 319.4,256.6 319.5,256.6 				"/>
				<polygon points="255.8,322.1 255.8,322 255.8,322.1 129.7,309.3 129.7,309.1 255.8,321.9 381.8,311.5 381.8,311.7 				"/>
				<path d="M202.5,381l-12.8-124.3l0.3,0L202.7,381L202.5,381z M189.9,256.6l-0.3,0l12.8-127.2l0.3,0L189.9,256.6z"/>
			</g>
			<g>
				<path d="M71.9,220.3l0-0.1l57.8-16.2l0,0.1L71.9,220.3z M202.6,129.5l-60.8-43.4l0.1-0.1l60.7,43.3l13.9-70.5l0.1,0l0-0.1
					l91.9,70l-0.1,0.1l-91.8-69.9l-13.9,70.5L202.6,129.5L202.6,129.5z"/>
				<polygon points="440.8,220.3 381.8,204.1 381.8,204 381.7,204 423.2,143.3 308.4,128.9 308.4,128.8 308.3,128.9 308.3,128.7 
					308.3,128.7 294.4,58.8 294.6,58.8 308.4,128.6 369.1,85.9 369.1,86.1 308.5,128.7 423.3,143.2 423.3,143.2 423.4,143.2 
					423.5,143.2 423.5,143.4 423.4,143.3 381.9,204 440.8,220.1 				"/>
				<path d="M439.5,291.9L381.7,204l0.1-0.1l57.8,87.9L439.5,291.9z M202.5,129.5l-0.1-0.1l92-70.6l0.1,0.1L202.5,129.5z"/>
				<path d="M381.8,311.7l0-0.1l57.8-19.7l0,0.1L381.8,311.7z M381.7,204L368.9,86l0.1,0l12.8,118L381.7,204z"/>
				<polygon points="369.1,425.1 309,381.1 309,380.9 368.9,424.8 381.7,311.6 381.8,311.6 381.7,311.6 440.7,220.2 440.9,220.2 
					381.9,311.6 423.5,367.7 423.3,367.7 381.8,311.8 369.1,424.9 369.1,424.9 				"/>
				<polygon points="216.4,452.2 202.5,381 202.7,381 216.5,451.9 309,380.9 309,381 309,380.9 423.5,367.6 423.5,367.8 
					309.1,381.1 295.3,452 295.1,452 308.9,381.2 216.5,452.1 216.5,452 216.6,452.2 				"/>
				<polygon points="295.2,452.1 202.6,381.1 141.9,425.1 141.9,424.9 202.5,381 88,368.3 88,368.2 87.9,368.2 129.6,309.2 
					129.8,309.2 88.1,368.1 202.7,380.9 202.7,381 295.2,451.9 				"/>
				<polygon points="141.7,424.9 129.6,309.2 71.3,291.4 71.3,291.3 71.2,291.3 129.6,204 129.8,204 71.4,291.3 129.7,309.1 
					129.7,309.2 129.8,309.2 141.9,424.9 				"/>
				<path d="M129.6,309.2l-57.8-89.1l0.1-0.1l57.8,89.1L129.6,309.2z M129.8,204l-0.1,0l12.1-118l0.1,0L129.8,204z"/>
				<rect x="87.6" y="136.3" transform="matrix(0.9927 -0.1203 0.1203 0.9927 -15.3517 18.4689)" width="115.3" height="0.1"/>
			</g>
		</g>
		<g>
			<path d="M141.8,86L97.3,65.2l0-0.1l44.4,20.8l-3.5-48.5l0.1,0L141.8,86L141.8,86L141.8,86z M216.5,58.8l-78.1-21.4l0-0.1
				L216.5,58.8L216.5,58.8z"/>
			<path d="M141.8,86L141.8,86l41-68.3l0.1,0.1L141.8,86z M294.5,58.8L230.4,9.7l-13.9,49.1l0,0l0,0L183,17.7l0.1-0.1l33.4,41
				l13.8-49l-0.1,0l0.1-0.1l0,0l0.1,0l0,0L294.5,58.8L294.5,58.8z"/>
			<polygon points="369.1,86 328,17.8 294.5,58.8 294.5,58.8 294.5,58.8 280,8 216.4,58.8 216.4,58.8 280,7.9 280,7.9 280,7.9 
				294.5,58.7 328,17.7 328,17.7 328,17.8 328,17.8 369.1,86 			"/>
			<polygon points="448.3,98.1 369.1,86 369.1,86 369,86 373,37.5 294.5,58.8 294.5,58.8 373.1,37.4 373.1,37.4 373.2,37.4 
				369.2,85.9 414.7,62.9 414.7,62.9 369.3,86 448.3,98.1 			"/>
			<polygon points="494.7,183.8 423.5,143.3 423.5,143.3 423.5,143.3 414.8,62.9 414.8,62.9 423.5,143.1 448.4,98.2 448.4,98.2 
				423.6,143.2 475.5,139.2 475.5,139.4 423.7,143.3 494.7,183.8 			"/>
			<polygon points="439.7,291.9 439.7,291.9 500.9,232.3 440.8,220.2 440.8,220.2 440.8,220.2 475.5,139.2 475.5,139.2 440.9,220.1 
				494.6,183.8 494.6,183.8 440.9,220.2 500.9,232.3 500.9,232.3 501,232.3 501,232.3 			"/>
			<polygon points="423.5,367.6 423.5,367.6 493.3,327.7 439.7,291.9 439.7,291.9 439.7,291.9 502.6,280.3 440.8,220.2 440.8,220.2 
				502.7,280.3 502.7,280.3 502.7,280.3 439.8,291.9 493.4,327.7 493.5,327.7 493.5,327.7 493.5,327.7 493.5,327.8 493.5,327.8 
				493.4,327.8 			"/>
			<polygon points="414.3,447.4 414.2,447.4 423.5,367.7 423.5,367.6 423.5,367.5 474.9,372.7 439.8,291.9 439.8,291.9 475,372.7 
				475,372.8 475,372.8 475,372.9 475,372.9 474.9,372.8 423.7,367.7 447.9,413.2 447.9,413.2 423.6,367.8 			"/>
			<polygon points="328,494.3 328,494.3 369.1,424.9 369.1,424.9 369.1,424.9 447.7,413.2 447.7,413.3 369.3,424.9 414.2,447.5 
				414.2,447.5 369.2,425 372.7,475.3 372.5,475.3 369.1,425.1 			"/>
			<polygon points="230.4,504 230.4,504 295.2,452 295.2,452 295.2,452 372.7,475.1 372.7,475.1 295.3,452.1 328,494.2 328,494.2 
				295.2,452.1 280,504 280,504 295.1,452.1 			"/>
			<path d="M280,504l-63.4-51.9l13.9,51.8l-0.1,0l-13.9-51.9l-32.9,42.1l-0.1-0.1l33-42.2l0,0l0,0L280,504L280,504z M183.4,494.3
				l-41.6-69.4l0.1-0.1L183.4,494.3L183.4,494.3z"/>
			<path d="M137.9,476.4l-0.1,0l4-51.4l-45,24.9l0-0.1l45.1-24.9l0,0l0.1,0L137.9,476.4z M137.9,476.3L137.9,476.3l78.6-24.4l0,0.1
				L137.9,476.3z M96.6,449.7l-8.7-81.5l0.1,0l8.7,81.5L96.6,449.7z"/>
			<path d="M141.8,425l-79.2-11l0-0.1L141.8,425L141.8,425z M62.6,413.8L62.6,413.8l25.3-45.6L36,373.5l0-0.1l51.8-5.2l-71.5-39.8
				l0,0l0,0l54.8-36.9l-62.4-11l0-0.1l62.5,11l0,0l0,0l-54.8,37L88,368.2l0,0l0,0L62.6,413.8z"/>
			<path d="M36.1,373.4L36.1,373.4l35.1-82.1l0.1,0L36.1,373.4z M8.9,280.3L8.9,280.3l62.9-60.2l0.1,0.1L8.9,280.3z"/>
			<path d="M71.3,291.3l-62.5-59l0.1-0.1L71.3,291.3L71.3,291.3z M71.9,220.2l-53.8-35.9l0.1-0.1L71.9,220.2L71.9,220.2z"/>
			<polygon points="8.9,232.3 8.9,232.2 71.8,220.2 36,139.2 36,139.2 71.9,220.2 71.9,220.2 71.9,220.2 			"/>
			<polygon points="18.1,184.4 18.1,184.4 87.8,143.3 36,139.4 36,139.2 87.9,143.2 63.2,100.5 63.2,100.5 88,143.1 97.2,65.2 
				97.4,65.2 88.1,143.3 88,143.3 88,143.3 			"/>
			<polygon points="63.1,100.5 63.1,100.5 141.8,86 141.8,86 			"/>
		</g>
	</g>
	<path d="M158.9,286.7l0.4-60.8l60.8,0.4l-0.4,60.8L158.9,286.7z M224.7,219.7l0.4-60.8l60.8,0.4l-0.4,60.8L224.7,219.7z
		 M224.7,353.1l0.4-60.8l60.8,0.4l-0.4,60.8L224.7,353.1z M291.1,286.1l0.4-60.8l60.8,0.4l-0.4,60.8L291.1,286.1z"/>
	<path d="M287.6,150l0.3-42.2l42.4,0.3l-0.3,42.2L287.6,150z M181.6,149.9l0.3-42.2l42.4,0.3l-0.3,42.2L181.6,149.9z M108.2,225.1
		l0.3-42.2l42.4,0.3l-0.3,42.2L108.2,225.1z M108.2,331.2l0.4-42.2l42.4,0.4l-0.4,42.2L108.2,331.2z M361,330.4l0.3-42.2l42.4,0.3
		l-0.3,42.2L361,330.4z M361.8,225.4l0.4-42.2l42.4,0.4l-0.4,42.2L361.8,225.4z"/>
	<path d="M73.9,157l0.2-27.8l27.7,0.2l-0.2,27.8L73.9,157z M128,100.5l0.2-27.8l27.7,0.2l-0.2,27.8L128,100.5z M202.6,72.6l0.2-27.8
		l27.7,0.2l-0.2,27.8L202.6,72.6z M57.5,233.9l0.2-27.8l27.5,0.2L85,234.1L57.5,233.9z M409.5,129.7l27.8-0.2l0.2,27.7l-27.8,0.2
		L409.5,129.7z M355.3,72.2l27.8-0.2l0.2,27.7l-27.8,0.2L355.3,72.2z M280.5,45l27.8-0.2l0.2,27.7l-27.8,0.2L280.5,45z M425.6,206.5
		l27.8-0.2l0.2,27.7l-27.8,0.2L425.6,206.5z"/>
	<path d="M181,403.2l0.3-42.2l42.4,0.3l-0.3,42.2L181,403.2z M287,403.2l0.3-42.2l42.4,0.3l-0.3,42.2L287,403.2z"/>
	<path d="M409.3,381.8l0.2-27.8l27.7,0.2L437,382L409.3,381.8z M355.7,438.9l0.2-27.8l27.7,0.2l-0.2,27.8L355.7,438.9z M281.2,466.3
		l0.2-27.8l27.7,0.2l-0.2,27.8L281.2,466.3z M425.6,305l0.2-27.8l27.7,0.2l-0.2,27.8L425.6,305z M73.9,354.1l27.8-0.2l0.2,27.7
		l-27.8,0.2L73.9,354.1z M128.1,410.9l27.8-0.2l0.2,27.7l-27.8,0.2L128.1,410.9z M202.3,438.2l27.8-0.2l0.2,27.7l-27.8,0.2
		L202.3,438.2z M57.8,277.3l27.8-0.2l0.2,27.7L57.9,305L57.8,277.3z"/>
	<g>
		<g>
			<path id="B" d="M467.5,146.7l0.1-15l15.3,0.1l-0.1,15L467.5,146.7z"/>
		</g>
		<g>
			<path id="B_00000097501457920659881830000007613161561513566362_" d="M487.3,192.1l0.1-15l15.3,0.1l-0.1,15L487.3,192.1z"/>
		</g>
		<g>
			<path id="B_00000071547014281121237290000002545514919948145049_" d="M440.8,106.5l0.1-15l15.3,0.1l-0.1,15L440.8,106.5z"/>
		</g>
		<g>
			<path id="B_00000108309099993383869620000014834865271147237535_" d="M89.6,72.1l0.1-15l15.3,0.1l-0.1,15L89.6,72.1z"/>
		</g>
		<g>
			<path id="B_00000036253792323724161050000017025648922934108033_" d="M1.6,239.8l0.1-15l15.3,0.1l-0.1,15L1.6,239.8z"/>
		</g>
		<g>
			<path id="B_00000003079909837249441410000011739665190993049492_" d="M407,72.1l0.1-15l15.3,0.1l-0.1,15L407,72.1z"/>
		</g>
		<g>
			<path id="B_00000026124844826931063100000010440354873156949909_" d="M10.4,192.1l0.1-15l15.3,0.1l-0.1,15L10.4,192.1z"/>
		</g>
		<g>
			<path id="B_00000170984863259660582880000017542866024396890781_" d="M175.8,25.5l0.1-15l15.3,0.1l-0.1,15L175.8,25.5z"/>
		</g>
		<g>
			<path id="B_00000047038855529388422380000016917034070735864999_" d="M29,146.6l0.1-15l15.3,0.1l-0.1,15L29,146.6z"/>
		</g>
		<g>
			<path id="B_00000152972174886506039780000005477888439546508442_" d="M56.4,105.9l0.1-15L71.8,91l-0.1,15L56.4,105.9z"/>
		</g>
		<path d="M130.6,29.8l15-0.1l0.1,15.3l-15,0.1L130.6,29.8z M223.5,0.3l15-0.1l0.1,15.3l-15,0.1L223.5,0.3z"/>
		<g>
			<path id="B_00000057136687109295219670000015391813752341540739_" d="M366.2,45.3l0.1-15l15.3,0.1l-0.1,15L366.2,45.3z"/>
		</g>
		<g>
			<path id="B_00000052065239389821694060000018327473300432699039_" d="M494.9,239.2l0.1-15l15.3,0.1l-0.1,15L494.9,239.2z"/>
		</g>
		<path d="M272.4,15l0.1-15l15.3,0.1l-0.1,15L272.4,15z"/>
		<g>
			<path id="B_00000103242960986684411540000014521877990177126306_" d="M320.2,24.9l0.1-15l15.3,0.1l-0.1,15L320.2,24.9z"/>
		</g>
		<g>
			<path id="B_00000106830210758259549100000012271491575892626322_" d="M407,455.3l0.1-15l15.3,0.1l-0.1,15L407,455.3z"/>
		</g>
		<g>
			<path id="B_00000016756049568836926160000004593568279343019911_" d="M494.9,287.6l0.1-15l15.3,0.1l-0.1,15L494.9,287.6z"/>
		</g>
		<g>
			<path id="B_00000134928594214955112640000001735054422448489644_" d="M89.6,455.3l0.1-15l15.3,0.1l-0.1,15L89.6,455.3z"/>
		</g>
		<g>
			<path id="B_00000064341922540891846050000002759780245424861593_" d="M487.3,336l0.1-15l15.3,0.1l-0.1,15L487.3,336z"/>
		</g>
		<g>
			<path id="B_00000114756557076627815260000012139680473946634135_" d="M320.2,502.5l0.1-15l15.3,0.1l-0.1,15L320.2,502.5z"/>
		</g>
		<g>
			<path id="B_00000088852300520418550050000012981349405070857374_" d="M467.5,381.3l0.1-15l15.3,0.1l-0.1,15L467.5,381.3z"/>
		</g>
		<g>
			<path id="B_00000107565796560585250970000000771644178080779668_" d="M440.8,422.1l0.1-15l15.3,0.1l-0.1,15L440.8,422.1z"/>
		</g>
		<path d="M365.6,468.3l15-0.1l0.1,15.3l-15,0.1L365.6,468.3z M273.3,496.7l15-0.1l0.1,15.3l-15,0.1L273.3,496.7z"/>
		<g>
			<path id="B_00000046302001409149730030000001058363891885835174_" d="M130.9,483.8l0.1-15l15.3,0.1l-0.1,15L130.9,483.8z"/>
		</g>
		<g>
			<path id="B_00000007391695294084511430000001585176684106240930_" d="M28.4,380.8l0.1-15l15.3,0.1l-0.1,15L28.4,380.8z"/>
		</g>
		<g>
			<path id="B_00000106867634139900025310000010728328781746264241_" d="M10.4,335.9l0.1-15l15.3,0.1l-0.1,15L10.4,335.9z"/>
		</g>
		<g>
			<path id="B_00000160151161497024061790000009953166547806292877_" d="M55.8,422.1l0.1-15l15.3,0.1l-0.1,15L55.8,422.1z"/>
		</g>
		<g>
			<path id="B_00000058562238711190495490000006481508153496747946_" d="M1.6,287.6l0.1-15l15.3,0.1l-0.1,15L1.6,287.6z"/>
		</g>
		<g>
			<path id="B_00000022520615080886752770000012018997074303154580_" d="M224.1,511.8l0.1-15l15.3,0.1l-0.1,15L224.1,511.8z"/>
		</g>
		<g>
			<path id="B_00000112613330749112891540000009885944769618053561_" d="M175.2,501.9l0.1-15l15.3,0.1l-0.1,15L175.2,501.9z"/>
		</g>
	</g>
</g>
</svg>
