<?xml version="1.0" encoding="utf-8"?>
<!-- Generator: Adobe Illustrator 28.2.0, SVG Export Plug-In . SVG Version: 6.00 Build 0)  -->
<svg version="1.1" id="Layer_1" xmlns="http://www.w3.org/2000/svg" xmlns:xlink="http://www.w3.org/1999/xlink" x="0px" y="0px"
	 viewBox="0 0 512 512" style="enable-background:new 0 0 512 512;" xml:space="preserve">
<style type="text/css">
	.st0{fill:#FFFFFF;}
</style>
<path class="st0" d="M502.8,280.3L502.8,280.3L502.8,280.3l-25.5-24.9l23.8-23.2l-0.1-0.1l-0.1,0.1l0-0.1l-60-12.1l53.7-36.3l0,0
	l0.1,0l0.1-0.1L464,166.3l11.5-26.9l0,0l0,0l0-0.1l-0.1,0l0,0.1l-51.8,4l24.9-45l-0.1,0l-24.8,45l-5.4-49.6l30.1,4.6l0-0.1
	l-30.2-4.6l-3.3-30.5l-0.1,0l3.3,30.5L369.3,86l45.5-23l0-0.1l-45.5,23.1l4-48.5l-0.1,0l0,0l-28.6,7.8l-16.5-27.4l-0.1,0l0.1-0.1
	l-0.1-0.1l-33.4,41L280.1,7.9l0,0l0,0l-25.4,20.3L230.5,9.6l0,0l-0.1,0l0,0l-0.1,0.1l0.1,0l-13.8,49l0,0l-33.4-41l-0.1,0.1l33.4,41
	l-49.8-13.7L183,17.8l-0.1-0.1L166.5,45l-28-7.7l0,0.1l28,7.7l-24.5,40.7l-3.5-48.4l-0.1,0l3.5,48.5L97.4,65.2l0,0l-0.1,0l-3.5,29.6
	l-30.6,5.6l0,0.1l0.1,0L88,143.2l-51.8-4l0-0.1l-0.1,0l0,0.1l0,0l0,0l12.1,27.3l-29.9,17.6l-0.1,0l-0.1,0.1l0,0l0,0l0.1,0.1l0.1,0
	l53.6,35.8L8.9,232.2l0,0.1l-0.1-0.1l-0.1,0.1l25.3,23.9l-25.2,24l-0.1,0l0,0.1l62.4,11l-54.8,36.9l0,0l0,0l31.5,17.5l-11.8,27.5
	l-0.1,0l0,0.1l51.9-5.2l-25.4,45.5l0.1,0L88,368.4l5.3,49.7l-30.7-4.3l0,0.1l30.7,4.3l3.4,31.5l0.1,0l-3.4-31.5l48.3,6.7l-45,24.8
	l0,0.1l45-24.9l-4,51.4l0.1,0l4-51.3l25.3,42.2l-29.2,9l0,0.1l29.2-9l16.2,27l0.1-0.1l-16.2-27l49.1-15.2l-32.9,42.1l0.1,0.1
	l32.9-42.1l0,0l0.1,0l13.8,51.8l0,0l0,0l25-20.1L280,504l0,0l0,0l15.2-51.9l32.7,42.1l0,0l0,0.1l0.1,0.1l16.4-27.6l28.1,8.4l0,0.2
	l0.1,0l0-0.2l0,0l0-0.1l-0.1,0l-3.5-50l45,22.6l0-0.1l-45-22.5l48.4-7.1l-3.5,29.6l0.1,0l3.5-29.6l29.9-4.4l0-0.1l-29.9,4.4
	l5.8-49.9l24.2,45.5l0.1,0l-24.3-45.5l51.2,5.2l0,0.1l0.1,0l0-0.1l0,0l0,0l-12-27.6l30.4-17.3l0.1,0l0.1-0.1l0,0l0,0l-0.1-0.1
	l-0.1,0L439.9,292l0,0L502.8,280.3z M502.6,280.3l-62.7,11.6l37.3-36.3L502.6,280.3z M477.2,255.4L441,220.3l59.9,12.1L477.2,255.4z
	 M136.6,373.7l66,7.4l-60.6,43.9l0,0l0,0L136.6,373.7z M71.3,291.2l-37.1-35l37.7-36l0,0l0,0l23,35.5L71.3,291.2z M381.9,203.8
	l-7.2-66.6l48.6,6.1L381.9,203.8z M381.8,203.8l-67.4-7.7l-5.8-67.2l65.9,8.3L381.8,203.8z M295.2,451.9L256,421.8l53-40.7
	L295.2,451.9z M255.9,421.7L202.8,381l53.1-58.8l53.1,58.8L255.9,421.7z M202.7,380.7l-6.7-64.6l59.5,6L202.7,380.7z M308.9,380.7
	l-52.8-58.6l58.1-4.8L308.9,380.7z M255.9,321.9l-59.8-6.1l-6.1-59.1l0,0l-0.1-0.1l0.1,0l6-60.1l59.8-6.9l0,0l0.1,0l0,0l58.2,6.7
	l5.2,60.3l-5.1,60.4L255.9,321.9z M308.4,128.6l-52.6-40l38.7-29.7L308.4,128.6z M308.3,129.1l5.8,66.9l-57.9-6.7L308.3,129.1z
	 M308.3,128.8l-52.4,60.6l-53.1-60l52.9-40.6L308.3,128.8z M202.7,129.7l52.8,59.7l-59.5,6.8L202.7,129.7z M195.8,196.3l-66,7.6
	l6.8-66.4l65.9-8L195.8,196.3z M189.7,256.3l-59.7-52.2l65.7-7.6L189.7,256.3z M129.7,204.2l59.9,52.4L129.7,309l-34.5-53.3
	L129.7,204.2z M189.7,256.9l6.1,58.9l-65.7-6.7L189.7,256.9z M319.6,256.9l62.2,54.6l-67.2,5.5L319.6,256.9z M319.6,256.4l-5.2-60.1
	l67.3,7.7L319.6,256.4z M308.5,128.7L369,86.2l5.5,50.9L308.5,128.7z M369,86L369,86L369,86l-60.6,42.6l-13.9-69.8l49.9-13.6L369,86
	L369,86z M255.7,88.5l-39.1-29.8l0,0l38-30.4l39.8,30.5L255.7,88.5z M216.6,58.9l39,29.7l-52.8,40.5L216.6,58.9z M136.7,137.3
	l5.3-51.2l60.6,43.2L136.7,137.3z M136.5,137.4l-48.4,5.9l5.8-48.3l47.9-8.8L136.5,137.4z M136.5,137.5l-6.8,66.5l-0.1,0l-41.5-60.6
	L136.5,137.5z M129.6,204.1l-34.5,51.5l-23-35.4L129.6,204.1L129.6,204.1z M95.1,255.9l34.5,53.2l-58.1-17.8L95.1,255.9z
	 M129.7,309.4l6.7,64.2l-48.2-5.4L129.7,309.4z M129.8,309.3l66,6.7l6.7,64.9l-66-7.4L129.8,309.3z M255.8,421.8l-39.2,30.1
	l-13.8-70.8L255.8,421.8z M255.9,421.9l39.3,30.1l-39.7,31.8L216.6,452L255.9,421.9z M309.1,381.1L369,425l-24.6,41.6L295.3,452
	L309.1,381.1z M369,424.8L309.2,381l65.6-7.6L369,424.8z M309.2,380.9l5.3-63.6l67.3-5.6l-7,61.6L309.2,380.9z M381.9,311.8
	l41.4,55.9l-48.4,5.6L381.9,311.8z M416.9,257.4l22.6,34.4L382,311.5L416.9,257.4z M381.9,311.3l-62.2-54.7l62.2-52.4l34.9,53
	L381.9,311.3z M382,204.1l58.7,16.1l-23.8,36.9L382,204.1z M494.6,183.8L441,220.1l23-53.7L494.6,183.8z M475.4,139.4l-11.5,26.8
	l-40.2-22.9L475.4,139.4z M463.9,166.3l-23.1,53.8L382,204l41.5-60.6l0.1,0l0,0L463.9,166.3z M418.1,93.5l5.4,49.7l0,0l-0.1-0.1l0,0
	l-48.7-6.1l-5.5-51l0.1,0L418.1,93.5z M373.1,37.5l-4,48.4l-24.5-40.6L373.1,37.5z M344.5,45.2l-49.8,13.6L328,17.8L344.5,45.2z
	 M280,8l14.4,50.7l-39.7-30.4L280,8z M230.5,9.7l24.1,18.5l-37.9,30.3L230.5,9.7z M216.5,58.8L216.5,58.8l-13.9,70.4l0,0L141.9,86
	l24.6-40.8L216.5,58.8z M97.4,65.3L141.7,86l-47.8,8.8L97.4,65.3z M63.3,100.5l30.4-5.6L88,143.1L63.3,100.5z M88,143.4l41.5,60.6
	L72,220.1l0,0l0,0l-23.7-53.4L88,143.4z M36.2,139.4l51.7,4l-39.6,23.3L36.2,139.4z M48.2,166.8l23.6,53.3l-53.5-35.7L48.2,166.8z
	 M9,232.3l62.8-12.1l-37.6,35.9L9,232.3z M34.2,256.3l37,34.9L9,280.3L34.2,256.3z M16.5,328.3l54.7-36.9l-23.3,54.3L16.5,328.3z
	 M36.2,373.3L48,345.9l39.9,22.2L36.2,373.3z M48,345.8l23.3-54.5l58.3,17.9L88,368.1L48,345.8z M88.1,368.3l48.3,5.4l5.4,51.2
	l-48.3-6.7L88.1,368.3z M142,425l60.6-43.9l13.8,70.8l-49.2,15.2L142,425z M230.5,503.9l-13.8-51.8l38.8,31.8L230.5,503.9z
	 M280,503.9l-24.4-20l39.6-31.8L280,503.9z M328.1,494.2l-32.7-42.1l49,14.6L328.1,494.2z M372.6,475l-28.1-8.4l24.6-41.6L372.6,475
	z M417.8,417.7l-48.6,7.2l0,0l0,0l5.8-51.5l48.6-5.6l0-0.1l-0.1,0l-41.5-56l57.7-19.7l0-0.1l0.1,0L417,257.3l23.9-37l36.3,35.2
	l-37.4,36.4l0,0l0,0l0.1,0.1l23.1,53.1l-39.4,22.5l0,0l0,0l0,0L417.8,417.7z M474.9,372.7l-51.2-5.2l39.2-22.4L474.9,372.7z
	 M493.4,327.7L463,345.1l-23-52.9L493.4,327.7z"/>
<path class="st0" d="M158.9,286.7l0.4-60.8l60.8,0.4l-0.4,60.8L158.9,286.7z M224.8,219.7l0.4-60.8l60.8,0.4l-0.4,60.8L224.8,219.7z
	 M224.8,353.1l0.4-60.8l60.8,0.4l-0.4,60.8L224.8,353.1z M291.2,286.1l0.4-60.8l60.8,0.4l-0.4,60.8L291.2,286.1z"/>
<path class="st0" d="M287.7,150l0.3-42.2l42.4,0.3l-0.3,42.2L287.7,150z M181.7,149.9l0.3-42.2l42.4,0.3l-0.3,42.2L181.7,149.9z
	 M108.2,225.1l0.3-42.2l42.4,0.3l-0.3,42.2L108.2,225.1z M108.2,331.2l0.4-42.2l42.4,0.4l-0.4,42.2L108.2,331.2z M361.1,330.4
	l0.3-42.2l42.4,0.3l-0.3,42.2L361.1,330.4z M361.9,225.4l0.4-42.2l42.4,0.4l-0.4,42.2L361.9,225.4z"/>
<path class="st0" d="M74,157l0.2-27.8l27.7,0.2l-0.2,27.8L74,157z M128.1,100.5l0.2-27.8l27.7,0.2l-0.2,27.8L128.1,100.5z
	 M202.7,72.6l0.2-27.8l27.7,0.2l-0.2,27.8L202.7,72.6z M57.6,233.9l0.2-27.8l27.5,0.2l-0.2,27.8L57.6,233.9z M409.6,129.7l27.8-0.2
	l0.2,27.7l-27.8,0.2L409.6,129.7z M355.4,72.2l27.8-0.2l0.2,27.7l-27.8,0.2L355.4,72.2z M280.6,45l27.8-0.2l0.2,27.7l-27.8,0.2
	L280.6,45z M425.7,206.5l27.8-0.2l0.2,27.7l-27.8,0.2L425.7,206.5z"/>
<path class="st0" d="M181.1,403.2l0.3-42.2l42.4,0.3l-0.3,42.2L181.1,403.2z M287.1,403.2l0.3-42.2l42.4,0.3l-0.3,42.2L287.1,403.2z
	"/>
<path class="st0" d="M409.4,381.8l0.2-27.8l27.7,0.2l-0.2,27.8L409.4,381.8z M355.8,438.9l0.2-27.8l27.7,0.2l-0.2,27.8L355.8,438.9z
	 M281.3,466.3l0.2-27.8l27.7,0.2l-0.2,27.8L281.3,466.3z M425.7,305l0.2-27.8l27.7,0.2l-0.2,27.8L425.7,305z M74,354.1l27.8-0.2
	l0.2,27.7l-27.8,0.2L74,354.1z M128.2,410.9l27.8-0.2l0.2,27.7l-27.8,0.2L128.2,410.9z M202.4,438.2l27.8-0.2l0.2,27.7l-27.8,0.2
	L202.4,438.2z M57.9,277.3l27.8-0.2l0.2,27.7L58,305L57.9,277.3z"/>
<path class="st0" d="M467.6,146.7l0.1-15l15.3,0.1l-0.1,15L467.6,146.7z M487.4,192.1l0.1-15l15.3,0.1l-0.1,15L487.4,192.1z
	 M440.9,106.5l0.1-15l15.3,0.1l-0.1,15L440.9,106.5z M89.7,72.1l0.1-15l15.3,0.1l-0.1,15L89.7,72.1z M1.7,239.8l0.1-15l15.3,0.1
	l-0.1,15L1.7,239.8z M407.1,72.1l0.1-15l15.3,0.1l-0.1,15L407.1,72.1z M10.5,192.1l0.1-15l15.3,0.1l-0.1,15L10.5,192.1z M175.9,25.5
	l0.1-15l15.3,0.1l-0.1,15L175.9,25.5z M29.1,146.6l0.1-15l15.3,0.1l-0.1,15L29.1,146.6z M56.5,105.9l0.1-15L71.9,91l-0.1,15
	L56.5,105.9z M130.7,29.8l15-0.1l0.1,15.3l-15,0.1L130.7,29.8z M223.6,0.3l15-0.1l0.1,15.3l-15,0.1L223.6,0.3z M366.3,45.3l0.1-15
	l15.3,0.1l-0.1,15L366.3,45.3z M495,239.2l0.1-15l15.3,0.1l-0.1,15L495,239.2z M272.5,15l0.1-15l15.3,0.1l-0.1,15L272.5,15z
	 M320.3,24.9l0.1-15l15.3,0.1l-0.1,15L320.3,24.9z M407.1,455.3l0.1-15l15.3,0.1l-0.1,15L407.1,455.3z M495,287.6l0.1-15l15.3,0.1
	l-0.1,15L495,287.6z M89.7,455.3l0.1-15l15.3,0.1l-0.1,15L89.7,455.3z M487.4,336l0.1-15l15.3,0.1l-0.1,15L487.4,336z M320.3,502.5
	l0.1-15l15.3,0.1l-0.1,15L320.3,502.5z M467.6,381.3l0.1-15l15.3,0.1l-0.1,15L467.6,381.3z M440.9,422.1l0.1-15l15.3,0.1l-0.1,15
	L440.9,422.1z M365.7,468.3l15-0.1l0.1,15.3l-15,0.1L365.7,468.3z M273.4,496.7l15-0.1l0.1,15.3l-15,0.1L273.4,496.7z M130.9,483.8
	l0.1-15l15.3,0.1l-0.1,15L130.9,483.8z M28.5,380.8l0.1-15l15.3,0.1l-0.1,15L28.5,380.8z M10.5,335.9l0.1-15l15.3,0.1l-0.1,15
	L10.5,335.9z M55.9,422.1l0.1-15l15.3,0.1l-0.1,15L55.9,422.1z M1.7,287.6l0.1-15l15.3,0.1l-0.1,15L1.7,287.6z M224.2,511.8l0.1-15
	l15.3,0.1l-0.1,15L224.2,511.8z M175.2,501.9l0.1-15l15.3,0.1l-0.1,15L175.2,501.9z"/>
</svg>
