<?xml version="1.0" encoding="utf-8"?>
<!-- Generator: Adobe Illustrator 28.2.0, SVG Export Plug-In . SVG Version: 6.00 Build 0)  -->
<svg version="1.1" id="Layer_1" xmlns="http://www.w3.org/2000/svg" xmlns:xlink="http://www.w3.org/1999/xlink" x="0px" y="0px"
	 viewBox="0 0 512 512" style="enable-background:new 0 0 512 512;" xml:space="preserve">
<style type="text/css">
	.st0{fill:#24405D;}
	.st1{fill:#256EA5;}
	.st2{fill:#3378BC;}
	.st3{fill:#169BD6;}
	.st4{fill:#00A8DA;}
</style>
<path class="st0" d="M502.7,280.3L502.7,280.3L502.7,280.3l-25.5-24.9l23.8-23.2l-0.1-0.1l-0.1,0.1l0-0.1l-60-12.1l53.7-36.3l0,0
	l0.1,0l0.1-0.1L464,166.3l11.5-26.9l0,0l0,0l0-0.1l-0.1,0l0,0.1l-51.8,4l24.9-45l-0.1,0l-24.8,45l-5.4-49.6l30.1,4.6l0-0.1
	l-30.2-4.6l-3.3-30.5l-0.1,0l3.3,30.5L369.3,86l45.5-23l0-0.1l-45.5,23.1l4-48.5l-0.1,0l0,0l-28.6,7.8L328,17.8l-0.1,0l0.1-0.1
	l-0.1-0.1l-33.4,41L280,7.9l0,0l0,0l-25.4,20.3L230.4,9.6l0,0l-0.1,0l0,0l-0.1,0.1l0.1,0l-13.8,49l0,0l-33.4-41l-0.1,0.1l33.4,41
	l-49.8-13.7l16.4-27.2l-0.1-0.1L166.4,45l-28-7.7l0,0.1l28,7.7l-24.5,40.7l-3.5-48.4l-0.1,0l3.5,48.5L97.3,65.2l0,0l-0.1,0
	l-3.5,29.6l-30.6,5.6l0,0.1l0.1,0l24.7,42.7l-51.8-4l0-0.1l-0.1,0l0,0.1l0,0l0,0l12.1,27.3l-29.9,17.6l-0.1,0l-0.1,0.1l0,0l0,0
	l0.1,0.1l0.1,0l53.6,35.8L8.9,232.2l0,0.1l-0.1-0.1l-0.1,0.1l25.3,23.9l-25.2,24l-0.1,0l0,0.1l62.4,11l-54.8,36.9l0,0l0,0l31.5,17.5
	l-11.8,27.5l-0.1,0l0,0.1l51.9-5.2l-25.4,45.5l0.1,0L88,368.4l5.3,49.7l-30.7-4.3l0,0.1l30.7,4.3l3.4,31.5l0.1,0l-3.4-31.5l48.3,6.7
	l-45,24.8l0,0.1l45-24.9l-4,51.4l0.1,0l4-51.3l25.3,42.2l-29.2,9l0,0.1l29.2-9l16.2,27l0.1-0.1l-16.2-27l49.1-15.2l-32.9,42.1
	l0.1,0.1l32.9-42.1l0,0l0.1,0l13.8,51.8l0,0l0,0l25-20.1L280,504l0,0l0,0l15.2-51.9l32.7,42.1l0,0l0,0.1l0.1,0.1l16.4-27.6l28.1,8.4
	l0,0.2l0.1,0l0-0.2l0,0l0-0.1l-0.1,0l-3.5-50l45,22.6l0-0.1l-45-22.5l48.4-7.1l-3.5,29.6l0.1,0l3.5-29.6l29.9-4.4l0-0.1l-29.9,4.4
	l5.8-49.9l24.2,45.5l0.1,0l-24.3-45.5l51.2,5.2l0,0.1l0.1,0l0-0.1l0,0l0,0l-12-27.6l30.4-17.3l0.1,0l0.1-0.1l0,0l0,0l-0.1-0.1
	l-0.1,0L439.9,292l0,0L502.7,280.3z M502.6,280.3l-62.7,11.6l37.3-36.3L502.6,280.3z M477.1,255.4L441,220.3l59.9,12.1L477.1,255.4z
	 M136.5,373.7l66,7.4l-60.6,43.9l0,0l0,0L136.5,373.7z M71.3,291.2l-37.1-35l37.7-36l0,0l0,0l23,35.5L71.3,291.2z M381.8,203.8
	l-7.2-66.6l48.6,6.1L381.8,203.8z M381.7,203.8l-67.4-7.7l-5.8-67.2l65.9,8.3L381.7,203.8z M295.2,451.9l-39.2-30.1l53-40.7
	L295.2,451.9z M255.8,421.7L202.7,381l53.1-58.8l53.1,58.8L255.8,421.7z M202.7,380.7l-6.7-64.6l59.5,6L202.7,380.7z M308.9,380.7
	l-52.8-58.6l58.1-4.8L308.9,380.7z M255.8,321.9l-59.8-6.1l-6.1-59.1l0,0l-0.1-0.1l0.1,0l6-60.1l59.8-6.9l0,0l0.1,0l0,0l58.2,6.7
	l5.2,60.3l-5.1,60.4L255.8,321.9z M308.3,128.6l-52.6-40l38.7-29.7L308.3,128.6z M308.3,129.1l5.8,66.9l-57.9-6.7L308.3,129.1z
	 M308.3,128.8l-52.4,60.6l-53.1-60l52.9-40.6L308.3,128.8z M202.7,129.7l52.8,59.7l-59.5,6.8L202.7,129.7z M195.7,196.3l-66,7.6
	l6.8-66.4l65.9-8L195.7,196.3z M189.7,256.3L130,204.1l65.7-7.6L189.7,256.3z M129.7,204.2l59.9,52.4L129.7,309l-34.5-53.3
	L129.7,204.2z M189.7,256.9l6.1,58.9l-65.7-6.7L189.7,256.9z M319.5,256.9l62.2,54.6l-67.2,5.5L319.5,256.9z M319.5,256.4l-5.2-60.1
	l67.3,7.7L319.5,256.4z M308.5,128.7L369,86.2l5.5,50.9L308.5,128.7z M369,86L369,86L369,86l-60.6,42.6l-13.9-69.8l49.9-13.6L369,86
	L369,86z M255.6,88.5l-39.1-29.8l0,0l38-30.4l39.8,30.5L255.6,88.5z M216.5,58.9l39,29.7l-52.8,40.5L216.5,58.9z M136.6,137.3
	l5.3-51.2l60.6,43.2L136.6,137.3z M136.5,137.4l-48.4,5.9l5.8-48.3l47.9-8.8L136.5,137.4z M136.5,137.5l-6.8,66.5l-0.1,0l-41.5-60.6
	L136.5,137.5z M129.5,204.1l-34.5,51.5l-23-35.4L129.5,204.1L129.5,204.1z M95.1,255.9l34.5,53.2l-58.1-17.8L95.1,255.9z
	 M129.7,309.4l6.7,64.2l-48.2-5.4L129.7,309.4z M129.8,309.3l66,6.7l6.7,64.9l-66-7.4L129.8,309.3z M255.7,421.8l-39.2,30.1
	l-13.8-70.8L255.7,421.8z M255.8,421.9l39.3,30.1l-39.7,31.8L216.6,452L255.8,421.9z M309,381.1L369,425l-24.6,41.6L295.3,452
	L309,381.1z M368.9,424.8L309.2,381l65.6-7.6L368.9,424.8z M309.1,380.9l5.3-63.6l67.3-5.6l-7,61.6L309.1,380.9z M381.8,311.8
	l41.4,55.9l-48.4,5.6L381.8,311.8z M416.8,257.4l22.6,34.4L382,311.5L416.8,257.4z M381.9,311.3l-62.2-54.7l62.2-52.4l34.9,53
	L381.9,311.3z M381.9,204.1l58.7,16.1l-23.8,36.9L381.9,204.1z M494.5,183.8l-53.6,36.3l23-53.7L494.5,183.8z M475.4,139.4
	l-11.5,26.8l-40.2-22.9L475.4,139.4z M463.8,166.3l-23.1,53.8L381.9,204l41.5-60.6l0.1,0l0,0L463.8,166.3z M418.1,93.5l5.4,49.7l0,0
	l-0.1-0.1l0,0l-48.7-6.1l-5.5-51l0.1,0L418.1,93.5z M373,37.5l-4,48.4l-24.5-40.6L373,37.5z M344.4,45.2l-49.8,13.6L328,17.8
	L344.4,45.2z M280,8l14.4,50.7l-39.7-30.4L280,8z M230.4,9.7l24.1,18.5l-37.9,30.3L230.4,9.7z M216.4,58.8L216.4,58.8l-13.9,70.4
	l0,0L141.9,86l24.6-40.8L216.4,58.8z M97.3,65.3L141.6,86l-47.8,8.8L97.3,65.3z M63.3,100.5l30.4-5.6L88,143.1L63.3,100.5z
	 M88,143.4l41.5,60.6L72,220.1l0,0l0,0l-23.7-53.4L88,143.4z M36.1,139.4l51.7,4l-39.6,23.3L36.1,139.4z M48.2,166.8l23.6,53.3
	l-53.5-35.7L48.2,166.8z M8.9,232.3l62.8-12.1l-37.6,35.9L8.9,232.3z M34.1,256.3l37,34.9L9,280.3L34.1,256.3z M16.5,328.3
	l54.7-36.9l-23.3,54.3L16.5,328.3z M36.2,373.3l11.7-27.4l39.9,22.2L36.2,373.3z M48,345.8l23.3-54.5l58.3,17.9L88,368.1L48,345.8z
	 M88.1,368.3l48.3,5.4l5.4,51.2l-48.3-6.7L88.1,368.3z M141.9,425l60.6-43.9l13.8,70.8l-49.2,15.2L141.9,425z M230.4,503.9
	l-13.8-51.8l38.8,31.8L230.4,503.9z M280,503.9l-24.4-20l39.6-31.8L280,503.9z M328,494.2l-32.7-42.1l49,14.6L328,494.2z M372.5,475
	l-28.1-8.4l24.6-41.6L372.5,475z M417.7,417.7l-48.6,7.2l0,0l0,0l5.8-51.5l48.6-5.6l0-0.1l-0.1,0l-41.5-56l57.7-19.7l0-0.1l0.1,0
	l-22.7-34.6l23.9-37l36.3,35.2l-37.4,36.4l0,0l0,0l0.1,0.1l23.1,53.1l-39.4,22.5l0,0l0,0l0,0L417.7,417.7z M474.9,372.7l-51.2-5.2
	l39.2-22.4L474.9,372.7z M493.3,327.7L463,345.1l-23-52.9L493.3,327.7z"/>
<path class="st1" d="M158.9,286.7l0.4-60.8l60.8,0.4l-0.4,60.8L158.9,286.7z M224.7,219.7l0.4-60.8l60.8,0.4l-0.4,60.8L224.7,219.7z
	 M224.7,353.1l0.4-60.8l60.8,0.4l-0.4,60.8L224.7,353.1z M291.1,286.1l0.4-60.8l60.8,0.4l-0.4,60.8L291.1,286.1z"/>
<path class="st2" d="M287.6,150l0.3-42.2l42.4,0.3l-0.3,42.2L287.6,150z M181.6,149.9l0.3-42.2l42.4,0.3l-0.3,42.2L181.6,149.9z
	 M108.2,225.1l0.3-42.2l42.4,0.3l-0.3,42.2L108.2,225.1z M108.2,331.2l0.4-42.2l42.4,0.4l-0.4,42.2L108.2,331.2z M361,330.4
	l0.3-42.2l42.4,0.3l-0.3,42.2L361,330.4z M361.8,225.4l0.4-42.2l42.4,0.4l-0.4,42.2L361.8,225.4z"/>
<path class="st3" d="M73.9,157l0.2-27.8l27.7,0.2l-0.2,27.8L73.9,157z M128,100.5l0.2-27.8l27.7,0.2l-0.2,27.8L128,100.5z
	 M202.6,72.6l0.2-27.8l27.7,0.2l-0.2,27.8L202.6,72.6z M57.5,233.9l0.2-27.8l27.5,0.2L85,234.1L57.5,233.9z M409.5,129.7l27.8-0.2
	l0.2,27.7l-27.8,0.2L409.5,129.7z M355.3,72.2l27.8-0.2l0.2,27.7l-27.8,0.2L355.3,72.2z M280.5,45l27.8-0.2l0.2,27.7l-27.8,0.2
	L280.5,45z M425.6,206.5l27.8-0.2l0.2,27.7l-27.8,0.2L425.6,206.5z"/>
<path class="st2" d="M181,403.2l0.3-42.2l42.4,0.3l-0.3,42.2L181,403.2z M287,403.2l0.3-42.2l42.4,0.3l-0.3,42.2L287,403.2z"/>
<path class="st3" d="M409.3,381.8l0.2-27.8l27.7,0.2L437,382L409.3,381.8z M355.7,438.9l0.2-27.8l27.7,0.2l-0.2,27.8L355.7,438.9z
	 M281.2,466.3l0.2-27.8l27.7,0.2l-0.2,27.8L281.2,466.3z M425.6,305l0.2-27.8l27.7,0.2l-0.2,27.8L425.6,305z M73.9,354.1l27.8-0.2
	l0.2,27.7l-27.8,0.2L73.9,354.1z M128.1,410.9l27.8-0.2l0.2,27.7l-27.8,0.2L128.1,410.9z M202.3,438.2l27.8-0.2l0.2,27.7l-27.8,0.2
	L202.3,438.2z M57.8,277.3l27.8-0.2l0.2,27.7L57.9,305L57.8,277.3z"/>
<path class="st4" d="M467.5,146.7l0.1-15l15.3,0.1l-0.1,15L467.5,146.7z M487.3,192.1l0.1-15l15.3,0.1l-0.1,15L487.3,192.1z
	 M440.8,106.5l0.1-15l15.3,0.1l-0.1,15L440.8,106.5z M89.6,72.1l0.1-15l15.3,0.1l-0.1,15L89.6,72.1z M1.6,239.8l0.1-15l15.3,0.1
	l-0.1,15L1.6,239.8z M407,72.1l0.1-15l15.3,0.1l-0.1,15L407,72.1z M10.4,192.1l0.1-15l15.3,0.1l-0.1,15L10.4,192.1z M175.8,25.5
	l0.1-15l15.3,0.1l-0.1,15L175.8,25.5z M29,146.6l0.1-15l15.3,0.1l-0.1,15L29,146.6z M56.4,105.9l0.1-15L71.8,91l-0.1,15L56.4,105.9z
	 M130.6,29.8l15-0.1l0.1,15.3l-15,0.1L130.6,29.8z M223.5,0.3l15-0.1l0.1,15.3l-15,0.1L223.5,0.3z M366.2,45.3l0.1-15l15.3,0.1
	l-0.1,15L366.2,45.3z M494.9,239.2l0.1-15l15.3,0.1l-0.1,15L494.9,239.2z M272.4,15l0.1-15l15.3,0.1l-0.1,15L272.4,15z M320.2,24.9
	l0.1-15l15.3,0.1l-0.1,15L320.2,24.9z M407,455.3l0.1-15l15.3,0.1l-0.1,15L407,455.3z M494.9,287.6l0.1-15l15.3,0.1l-0.1,15
	L494.9,287.6z M89.6,455.3l0.1-15l15.3,0.1l-0.1,15L89.6,455.3z M487.3,336l0.1-15l15.3,0.1l-0.1,15L487.3,336z M320.2,502.5l0.1-15
	l15.3,0.1l-0.1,15L320.2,502.5z M467.5,381.3l0.1-15l15.3,0.1l-0.1,15L467.5,381.3z M440.8,422.1l0.1-15l15.3,0.1l-0.1,15
	L440.8,422.1z M365.6,468.3l15-0.1l0.1,15.3l-15,0.1L365.6,468.3z M273.3,496.7l15-0.1l0.1,15.3l-15,0.1L273.3,496.7z M130.9,483.8
	l0.1-15l15.3,0.1l-0.1,15L130.9,483.8z M28.4,380.8l0.1-15l15.3,0.1l-0.1,15L28.4,380.8z M10.4,335.9l0.1-15l15.3,0.1l-0.1,15
	L10.4,335.9z M55.8,422.1l0.1-15l15.3,0.1l-0.1,15L55.8,422.1z M1.6,287.6l0.1-15l15.3,0.1l-0.1,15L1.6,287.6z M224.1,511.8l0.1-15
	l15.3,0.1l-0.1,15L224.1,511.8z M175.2,501.9l0.1-15l15.3,0.1l-0.1,15L175.2,501.9z"/>
</svg>
