<?xml version="1.0" encoding="utf-8"?>
<!-- Generator: Adobe Illustrator 28.2.0, SVG Export Plug-In . SVG Version: 6.00 Build 0)  -->
<svg version="1.1" id="Layer_1" xmlns="http://www.w3.org/2000/svg" xmlns:xlink="http://www.w3.org/1999/xlink" x="0px" y="0px"
	 viewBox="0 0 512 512" style="enable-background:new 0 0 512 512;" xml:space="preserve">
<style type="text/css">
	.st0{fill:none;}
	.st1{fill:#FFFFFF;}
</style>
<g>
	<path class="st0" d="M164.3,239.1h13.4v-20.6c0-8.2,6.7-14.8,14.8-14.8c8.2,0,14.8,6.7,14.8,14.8v20.6h13.4v-48.2h-56.5V239.1z"/>
	<path class="st1" d="M242,190.9v-13.9l-45.2-44.2v-3.1c0-2.4-1.9-4.3-4.3-4.3c-2.4,0-4.3,1.9-4.3,4.3v3.1L143,177.1v13.9h8.1v48.2
		H143v23.6H156l-3,33.7l83.8,36.9l-5.8-70.7h11v-23.6h-8.1v-48.2H242L242,190.9z M220.7,239.1h-13.4v-20.6c0-8.2-6.7-14.8-14.8-14.8
		s-14.8,6.7-14.8,14.8v20.6h-13.4v-48.2h56.5V239.1z M148.1,352l93.6,41.3l-1.4-17.2l-90.8-40L148.1,352z M147,363.8l-1.4,15.9
		l98.5,43.4l-1.4-17.2L147,363.8z M151.9,308.3l-1.4,15.9l88.7,39.1l-1.4-17.2L151.9,308.3z"/>
	<path class="st1" d="M505.8,244l-35.2-2.5l-10.5-0.8l-216.1-15.5l212,73.5l3.1,1.1c-20.6,93-103.7,162.8-202.8,162.8
		c-3,0-6-0.1-9-0.2l-2.2-26.6l-100.6-44.3l-3.2,36.3c-55.9-37.3-92.8-100.9-92.8-173C48.5,140.2,141.7,47,256.3,47
		c40.2,0,77.8,11.6,109.7,31.4l-1.2,1.3L244.1,205.2l166.1-86c9.3,10.8,17.6,22.5,24.5,35c0.1,0.3,0.3,0.5,0.4,0.8l-187.8,60.3
		l208-7.1c2.4,10.7,4,21.5,4.8,32.5l10.5,0.8L505.8,244c-0.6-12.5-2.1-25-4.6-37.3c-4.6-22.8-12.3-44.9-23.1-65.5
		c-7.8-15.1-17.2-29.4-28-42.6c-15.3-18.8-33.2-35.3-53.1-49c-0.7-0.5-1.3-0.9-2-1.4C355.3,21.5,307.4,5.9,256,5.9
		C118.1,5.9,5.9,118.1,5.9,256S118.1,506.1,256,506.1c118,0,217.2-82.2,243.4-192.3c0.1-0.4,0.2-0.7,0.3-1.1
		C504.9,290.2,507,267.1,505.8,244L505.8,244z"/>
	<path class="st1" d="M256,0C114.8,0,0,114.8,0,256s114.8,256,256,256s256-114.8,256-256S397.2,0,256,0z M499.4,313.8
		C473.2,424,374,506.1,256,506.1C118.1,506.1,5.9,393.9,5.9,256S118.1,5.9,256,5.9c51.4,0,99.3,15.6,139.1,42.3
		c0.7,0.4,1.3,0.9,2,1.4c20,13.7,37.9,30.2,53.1,49c10.7,13.2,20.1,27.5,28,42.6c10.7,20.7,18.5,42.7,23.1,65.5
		c2.5,12.3,4,24.8,4.6,37.3c1.1,23.1-1,46.2-6.2,68.7C499.6,313.1,499.5,313.4,499.4,313.8z"/>
</g>
</svg>
