<svg xmlns="http://www.w3.org/2000/svg" xml:space="preserve" viewBox="0 0 512 512"><path d="m459.9 411.3-10.7-40.1c-3.6-13.4-17.4-21.4-30.8-17.8l-224.7 60.2-95-354.5c-34.4 9.2-54.8 44.5-45.6 78.9L138 454.6l2.1 7.7.1.3c9.7 35.6 46.3 56.7 82 47.1l214.1-57.4c17.8-4.8 28.4-23.1 23.6-41" style="fill:#4f46e5"/><path d="m402.9 323.1 31.1-8.3 17.6 65.6c4.6 17.2-5.6 34.8-22.8 39.5z" style="fill:#4338ca"/><path d="M356.3 24.8c-4.8-17.9-23.2-28.5-41-23.7L100 58.8c-17.9 4.8-28.5 23.2-23.7 41l95 354.4L295.1 421c8.9-2.4 14.2-11.5 11.8-20.4s2.9-18 11.8-20.4l91.6-24.5c17.9-4.8 28.5-23.2 23.7-41z" style="fill:#6366f1"/><path d="M270.2 111.3c.8-9.9 13.6-13.4 19.3-5.2l2.4 3.5c1.8 2.5 4.5 4.2 7.6 4.5l5.2.5c9.7 1 13 13.4 5.1 19.1l-4.2 3.1c-2.5 1.8-4.1 4.6-4.3 7.7l-.3 4.2c-.8 9.9-13.6 13.4-19.3 5.2l-2.4-3.5c-1.8-2.5-4.5-4.2-7.6-4.5l-5.2-.5c-9.7-1-13-13.4-5.1-19.1l4.2-3.1c2.5-1.8 4.1-4.6 4.3-7.7zm-45 81.1c.8-9.9 13.6-13.4 19.3-5.2l17.1 24.7c1.8 2.5 4.5 4.2 7.6 4.5l30.2 3.2c9.7 1 13 13.4 5.1 19.1l-24.5 18c-2.5 1.8-4.1 4.6-4.3 7.7l-2.4 30c-.8 9.9-13.6 13.4-19.3 5.2l-17.1-24.7c-1.8-2.5-4.5-4.2-7.6-4.5l-30.2-3.2c-9.7-1-13-13.4-5.1-19.1l24.6-17.9c2.5-1.8 4.1-4.6 4.3-7.7z" style="fill:#312e81"/><path d="M171.2 454.2c-4.8-17.8 5.8-36.1 23.6-40.9l216.7-58.1 17.3 64.5-216.7 58.1c-17.8 4.8-36.1-5.8-40.9-23.6" style="fill:#eef2ff"/></svg>