<svg xmlns="http://www.w3.org/2000/svg" xml:space="preserve" viewBox="0 0 512 512"><path d="M412 0H100C44.8 0 0 44.8 0 100v312c0 55.2 44.8 100 100 100h312c55.2 0 100-44.8 100-100V100C512 44.8 467.2 0 412 0M192 416h-85.3c-5.9 0-10.7-4.8-10.7-10.7V320c0-5.9 4.8-10.7 10.7-10.1 50.4 5 90.5 45.1 95.5 95.5.5 5.8-4.3 10.6-10.2 10.6m224-10.7c0 5.9-4.8 10.7-10.7 10.7H320c-5.9 0-10.7-4.8-10.7-10.7V320c0-5.9-4.8-10.7-10.7-10.7H207c-2.8 0-5.5-1.1-7.5-3.1L99.1 205.8c-2-2-3.1-4.7-3.1-7.5v-91.6c0-5.9 4.8-10.7 10.7-10.7H192c5.9 0 10.7 4.8 10.7 10.7V192c0 5.9 4.8 10.7 10.7 10.7H305c2.8 0 5.5 1.1 7.5 3.1l100.4 100.4c2 2 3.1 4.7 3.1 7.5zm0-213.3c0 5.9-4.8 10.7-10.7 10.1-50.4-5-90.5-45.1-95.5-95.5-.6-5.9 4.3-10.7 10.1-10.7h85.3c5.9 0 10.7 4.8 10.7 10.7V192z" style="fill:#fff"/></svg>