<svg xmlns="http://www.w3.org/2000/svg" xml:space="preserve" viewBox="0 0 512 512"><path d="M100 0h312c55.2 0 100 44.8 100 100v312c0 55.2-44.8 100-100 100H100C44.8 512 0 467.2 0 412V100C0 44.8 44.8 0 100 0" style="fill:#09090b"/><path d="M416 106.7c0-5.9-4.8-10.7-10.7-10.7H320c-5.9 0-10.7 4.8-10.1 10.7 5 50.4 45.1 90.5 95.5 95.5 5.9.6 10.7-4.3 10.7-10.1v-85.4zM96 405.3c0 5.9 4.8 10.7 10.7 10.7H192c5.9 0 10.7-4.8 10.1-10.7-5-50.4-45.1-90.5-95.5-95.5-5.9-.6-10.7 4.3-10.7 10.1v85.4zm216.5-199.5c-2-2-4.7-3.1-7.5-3.1h-91.6c-5.9 0-10.7-4.8-10.7-10.7v-85.3c0-5.9-4.8-10.7-10.7-10.7h-85.3c-5.9 0-10.7 4.8-10.7 10.7v91.6c0 2.8 1.1 5.5 3.1 7.5l100.4 100.4c2 2 4.7 3.1 7.5 3.1h91.6c5.9 0 10.7 4.8 10.7 10.7v85.3c0 5.9 4.8 10.7 10.7 10.7h85.3c5.9 0 10.7-4.8 10.7-10.7v-91.6c0-2.8-1.1-5.5-3.1-7.5z" style="fill:#fff"/></svg>