<svg xmlns="http://www.w3.org/2000/svg" xml:space="preserve" viewBox="0 0 512 512"><path d="m373.4 45.4-9.9 6.4-19 5.5-25.8 26.5-17.2 25.4-6.2 18.5-3.5 30.2-1.6 55.8-19 9.1-38.8 6.4-9.3-.9-2-9-.5-91.7L208 86.4l-27.6-30-12.6-5.7-28-5.1L111 61.3l-24.1 31-5.9 15.9-4.2 41.4-2.4 87.3 65.9-12.3-2.9-52.1 2-42.6 2.6-9.5 8.1-8.1 10.4 39.7-2 67.7-7.7 24.3-51 7.5-46.3 15.7-21.2 19.6-23.2 31.1L4.2 341l-.9 35.9 14.3 39.7 11.3 15 37.5 27.1 28.7 7.5 15.6 1.6 45.7-10.8 35.5-26.7 18.8-29.1 5.3-14.3 4.6-30 2.4-67.7 21.4-.9 44.8-8.2 3.5 106.3 5.3 25.1 17.6 34.6 32.2 15.7 45.7-7.9 20.9-13.4 13-28.2 7.9-30.7-1.5-108.1-56.2 11.2-7 6.4 1.3 75.8-6.6 30.4-5.7-1.6-2.9-5.9-4.9-35.1 1.6-76.5 24.5-11.7 38.4-7.3 28.4-10.1 11.2-5.3L483 222l10.4-14.3 12.6-28.9 2.9-14.6-.9-31.8-17.6-41.7-12.1-15-23.1-16.5-42.3-15zM157 308.3l.4 56.2-3.1 10.4-14.1 20.1-14.6 7-30.4-.4-15.4-9.3-11-16.7-3.5-19 1.3-9.3 9.9-20.1 16.1-11.5 35.3-10.8 22.7-.9zm253.9-202.5 19.8 12.1 11.3 15.6 2.6 8.6-2.4 29.8-4.9 8.4-18.7 15.7-56.7 11.5-6.4-4-2.9-24.7 5.3-42.6 17.4-22.7 19.9-6.4z" style="fill-rule:evenodd;clip-rule:evenodd;fill:#1f8a90"/><path d="M352.4 219.6c0-1.1.5-1.8 1.1-1.8 1.3 0 12.3 6 13.5 7.5.5.5 5.1 2.2 10.1 3.5 5.1 1.5 7.7 2.9 6 3.3-1.6.4-4.8-.4-6.8-1.5-2.6-1.3-3.8-1.3-3.8 0 0 3.3-3.8 1.8-9.5-3.7-2.9-3.1-6.6-5.5-8.1-5.5-1.4 0-2.5-.9-2.5-1.8m-237.9 58.6c-4.6-1.5-15.9-2.4-14.5-1.1.4.4 4.9 1.1 9.9 1.6 6.3.7 7.7.6 4.6-.5M378 237.9c-1.5 2.7-.9 3.5 3.3 4.8 2.7.7 6.2 1.1 7.7.9 1.5-.4 2 .2 1.3 1.1-.9.7-7.9 2-15.6 2.6l-14.1 1.1h17c15.7.2 21.4-1.3 16.8-4-1.1-.7-1.5-1.8-.9-2.6.4-.9-2.4-2.7-6.4-4.4-6.9-2.6-7.5-2.6-9.1.5m-35.5-14.6c4.8 0 6.2-.5 4.6-1.6-2-1.3-2-1.6 0-2.6 3.1-1.3.4-1.1-4.8 0-7.3 1.8-7.1 4.2.2 4.2m-6.8 9.8c1.1.7 2 .5 2-.5 0-.9 3.1-2.2 7-2.6l6.8-.7-6.4-.2c-3.5-.2-7.5.4-9 1.3-1.7 1.1-1.8 2-.4 2.7m40.5-9.8c3.7 2.4 7.3 2.4 7.3 0 0-1.1-2.2-1.8-4.9-1.8-4.1-.1-4.6.3-2.4 1.8m37.5-144.8c1.1 0-1.1-1.5-4.6-3.5s-7.1-3.5-8.2-3.5c-.9 0 1.1 1.5 4.6 3.5 3.4 2.1 7.3 3.5 8.2 3.5M365 221.4c1.1 0 2-.7 2-1.6s2.2-2.2 5.1-2.6l4.9-.7-4.8-.4c-2.7 0-5.9 1.1-7.1 2.6-1.6 1.8-1.6 2.7-.1 2.7m-210.6 51.3c-3.5 0-3.7.2-1.1 2.2 1.6 1.3 3.3 4 3.8 6 .5 2.4.9 1.5 1.1-2.4.2-4.9-.5-5.8-3.8-5.8m-5.1-9.2c-2.6-1.6-10.8-2.7-9-1.1.4.4 3.3 1.1 6.2 1.8 4.1 1 4.8.8 2.8-.7m197.6-25.4c0-.9-1.6-2-3.8-2.6-2.9-.7-3.3-.5-1.5 1.6 2.4 3 5.3 3.5 5.3 1m-20.7-92.8c-.4-.4-2 2.4-3.7 6-1.6 3.8-3.3 9-3.8 11.5l-1.1 4.6 2-4.6c5.7-12.9 7.3-16.9 6.6-17.5m120.4 55.8c2.7-2.6-1.3-1.8-6.4 1.3l-4.6 2.7 4.6-1.3c2.6-.5 5.3-1.8 6.4-2.7m-212.8 53.1c-3.7-.5-5.3-.4-4.2.7.9.9 3.5 1.3 5.9.9 3.6-.5 3.4-.9-1.7-1.6m192-17c-1.1-.7-2-.5-2 .4s-5.1 2.6-11.3 3.7l-11.5 2 11.7-.7c11.4-.7 17.1-3.1 13.1-5.4m-323 32.4c-.5-.7-5.3-1.1-10.2-.7-9.9.5-11.7-.7-4.9-3.5 2.2-.9 2.7-1.6 1.3-1.6-1.5 0-4.2.7-5.9 1.8-4.9 2.7-4 4.4 3.1 6.6 3.5 1.1 6 1.3 5.3.4-.5-.9 2.2-1.6 5.9-1.6 3.8-.2 6.1-.7 5.4-1.4m233.5-31.7c-2.4 0-2.2.5.7 2.7 4.6 3.5 7.3 3.5 4.4 0-1.3-1.4-3.7-2.7-5.1-2.7M47.7 284.6c-2.9 2.4-4.6 4.4-3.5 4.6 1.1 0 3.8-2 6.2-4.6 5.6-5.9 4.5-5.9-2.7 0m51.8 11.8c2.2 0 4-.9 4-1.8 0-2.4-2-2.4-5.5 0-2.1 1.5-2 1.8 1.5 1.8m248.9 145.5c-8.1-3.8-9-3.3-1.8 1.1 3.3 2.2 9.9 4.2 14.6 4.6l8.6.5-7.9-1.6c-4.4-.9-10.4-2.9-13.5-4.6m3.1-7.3 5.5 3.1-4.6-3.8c-2.6-2.2-6.4-6.2-8.6-9-2.4-2.7-4.2-4.2-4.2-3.1.2 2.9 6 9.3 11.9 12.8M204.2 256.2c-1.1 0-1.8 2.9-1.8 6.8 0 7.9.9 7.5 2.4-.9.7-3.3.3-5.9-.6-5.9M176 334c-.5 1.6-1.1 4.9-1.1 7.1s-1.1 5.1-2.2 6.4c-2 2-1.8 2.4.4 1.6 1.5-.5 3.3-4.2 4-8.8 1.5-8.4.9-11.5-1.1-6.3m137-63.2c-2 .7-5.3 1.1-7.5.5-2.6-.5-3.8.2-3.8 2.2 0 1.6 1.1 2.6 2.4 2 1.5-.5 2.9-.2 3.7.9.7 1.3 1.8 1.1 3.3 0 1.3-1.1 3.1-1.3 3.8-.5.9.7.9.4.2-.9-.5-1.1.4-2.9 2-4 3.8-2.2 1.1-2.4-4.1-.2m22.4 76c-.7-3.5-.7-3.5-1.1 0-.2 2-.7 5.7-1.1 8.2l-1.1 4.6 2-4.6c1.1-2.4 1.6-6 1.3-8.2M220.1 244.7c-.5-1.1-1.1-1.3-1.1-.4-.2 1.1 1.5 3.3 3.5 5.1 2 1.6 3.7 2.4 3.7 1.3 0-.9 4.8-2 10.6-2.4 10.2-.5 10.1-.5-2.7-.9-8.5-.2-13.5-1.1-14-2.7m75.4 24.7c-3.1-1.6-8.4-5.1-11.5-7.7s-7.3-5.9-9.3-7.3c-3.1-2.2-2.9-1.8.5 2 6.2 7 7 6.4-12.4 8.6-11.3 1.3-11.5 1.5-4.6 2.4 4 .5 10.2.4 13.7-.4 4.4-.9 7.1-.7 9.1.9 5.1 4.4 7.3 5.1 6.2 2.2-.5-1.6-2-2.9-3.1-2.9s-1.5-.5-.9-1.1c1.3-1.1 10.4 4.2 13.7 7.9 1.3 1.8 2.4 2 3.3.7.6-1.1-1.4-3.5-4.7-5.3m24.3 110.9c-1.3-1.3-2.6.4-4.2 4.8-3.1 8.8-5.7 4.8-4.2-6.8 1.1-9.7 0-11.7-1.8-2.9-.5 3.1-1.1 9.5-1.1 14.1v8.2l4.6-5.3c8.5-10 8.7-10.1 6.7-12.1m10.6-146.1c-3.8-1.3-4-1.5-.9-1.8 2.9-.2 2.7-.5-1.3-2.2-2.9-.9-5.1-2.6-5.1-3.3 0-2-11.9-5.5-18.8-5.5-3.1 0-4.8-.7-4-1.8.7-1.1 1.8-1.5 2.6-1.1.7.5 2.4.2 3.8-.9 2.2-1.3 2-1.6-.9-1.6-2.2 0-4.8.9-6 2.2-3.7 3.7-2.6 4.6 8.1 5.9 10.4 1.3 23.6 8.2 16.1 8.6-3.3 0-3.3.2.2 1.6 2 .9 5.3 1.5 7.3 1.5 2.8-.1 2.6-.5-1.1-1.6m-23.2 26.9c2.2-.4.4-.7-4.2-.7s-6.4.4-4 .7c2.1.4 5.8.4 8.2 0m-117.3 54.6c-1.3 2.6-2.2 6.2-2.2 7.9.2 1.6 1.3-.2 2.7-4.2 3-8.3 2.6-10.7-.5-3.7M354.4 258c-1.5 0-2.2.5-1.5 1.1.5.5 2.7.5 4.9-.2 3.7-1.1 3.5-1.5-2.6-4.8-3.7-1.8-6.8-3.3-7-3.3-.4.2-3.5.9-7 1.6l-6.4 1.3 8.2.4c7.7.3 18 3.7 11.4 3.9m-21.2 40.3c-2 1.6-2.7 1.8-2.7 0 0-1.1-2.2.5-4.8 3.7-2.7 3.1-4.2 6.2-3.5 7 .7.7 1.8.2 2.2-1.1.5-1.3 2.6-3.1 4.8-4.2 3.8-2 3.7-1.8-.4 2.7-7.9 8.4-2.9 7 6-1.8 8.8-8.8 9.9-11 4.2-7.9-1.6 1.1-3.1 1.3-3.1.5 0-.6-1.3-.2-2.7 1.1m1.4 8.2-.4 4.6c-.2 2.6-.7 6.6-1.1 9.1l-1.1 4.6 2-4.6c1.1-2.4 1.6-6.6 1.3-9.1zm-27.8-62.9c-2.6 0-2.4.4.4 2.2 2 1.3 7 5.3 11 9.1 4.2 3.7 9.1 7.3 11 7.9 1.6.5 3.1 1.8 3.1 2.7s1.8 1.6 4 1.6c3.5 0 3.7.4 1.1 2.2-1.6 1.3-3.3 5.7-3.8 9.7s-1.6 9.3-2.2 11.9l-1.1 4.6 2.2-4.6c1.1-2.6 2.6-7.9 3.3-11.9 1.1-6.8 1.6-7.3 6.6-6.8 3.1.4 4.9 0 4.2-.7-.9-.7-.5-2.4.5-3.8 1.6-1.8.9-2.4-4-2.4-6.8 0-15.4-4.9-26.3-15.6-3.9-3.4-8.3-6.3-10-6.1m-16.4-12.7c-1.1-1.6-2-2.2-2-1.1 0 3.7 5.1 6.6 10.4 5.7 4.9-.7 4.9-.7-.7-1.1-3.5 0-6.6-1.4-7.7-3.5m28.3-20.8c2.6-2.6 2.9-3.8 1.1-5.5-1.5-1.5-2.2-1.6-2.2-.2 0 1.1-.5 3.7-1.1 5.5-1.3 3.1-1.1 3.1 2.2.2m-9.7 4c1.3-1.1 5.1-22.3 4.2-23.2-.4-.4-1.1.5-1.6 2-1.7 4-3.9 22.3-2.6 21.2m12.3-15.2c1.1-1.8 1.6-5.1 1.3-7.3s-.9-2.7-1.1-1.3c-.2 1.5-.7 4.8-1.3 7.3-.9 4.1-.8 4.3 1.1 1.3m.2 127.4c-1.3 3.7-2 7.9-1.5 9.1.4 1.1 1.6-.9 2.9-4.8 1.3-3.7 2-7.9 1.5-9.1-.4-1.1-1.7.9-2.9 4.8m-140.9-82c7.3-6.8 8.8-9.1 7.1-11-1.6-2-1.6-4.2 0-9.1 1.3-3.7 1.8-7 1.3-7.5-.4-.4-1.8 2.9-3.1 7.3-1.3 4.6-3.8 9.7-6 11.5-3.7 3.3-3.7 3.3-2.6-4.9.7-5.5.5-7-.5-4.6-.9 2-1.6 5.9-1.6 8.4-.2 2.7-1.8 7-3.8 9.5-2 2.6-3.7 5.3-3.7 6.2 0 .7.9.2 1.8-1.3 1.3-2 1.8-2.2 1.8-.4 0 1.5-1.6 4.8-3.7 7.7-4.2 6-7.7 14.6-5.9 14.6.7 0 3.1-4 5.5-9s8.4-12.8 13.4-17.4m3.6-162.8c1.8-1.3.2-6.4-2-6.4-.9 0-1.1 1.6-.5 3.7.5 1.9 1.6 3 2.5 2.7m.4 21.9c0 4 .4 5.5.7 3.1.4-2.2.4-5.5 0-7.3-.5-1.6-.9.2-.7 4.2m-82.7-19.9c-2.2 2.7-3.8 6.2-3.7 7.9 0 2.4.2 2.6 1.1.2.5-1.5 2.7-4.9 4.6-7.9 4.6-6.5 2.9-6.5-2-.2m62.9-3.9c-4.4-4.2-6.4-5.5-6.4-4 0 .4 2.6 2.9 5.5 5.9 6.6 6.4 7.3 4.7.9-1.9M137 83.7c1.6.4 4.6.4 6.4 0 1.6-.5.2-.9-3.3-.9-3.4-.1-4.9.3-3.1.9m328.6 4.9c-1.1-.5 0 2.2 2.2 6.2 2.4 4 4.6 7.1 4.9 6.8 1-.9-4.9-11.5-7.1-13m-3.3 12.1c0 .5 1.1 5.5 2.6 11 1.8 7.3 2.4 8.6 2.6 4.6 0-4.5-4.8-19.3-5.2-15.6M93.5 203.5l.2-.1zM40 333.2c2.7-2.6 4.9-4.8 4.9-5.1 0-1.5-3.5-.4-4.9 1.6-4.3 5.9-4.3 7.6 0 3.5m437.9-205.1c-.4 0-1.1 2.9-1.5 6.4s0 6.4.7 6.4 1.5-2.9 1.5-6.4-.3-6.4-.7-6.4m33.3 29.7.2 6.5-3 15.2-3.1 7.2c-1.2 5.4-3.4 10.5-6.5 15l-3.2 7.2-10.8 14.7-.2.2-5.8 4.6c-4.1 5-9.5 9.3-15.3 12.2l-6.1 4.9-11.6 5.5-7.9 2.8c-3.5 2-7.4 3.3-11.6 4.1l-9.2 3.3-38.1 7.3-22.9 10.9-.5 25.2c.1 1.1 0 2.1-.1 3.2l-.7 30.4c.2 2.6.1 5.2-.2 7.7l-.2 8.4 4.9 34.6 2.3 4.6 2.2.6 6-27.6-1.3-76.5 2.9-2.6c.3-.8.9-1.3 1.8-1.7l3.5-3.3 59.6-11.8v2.8c.3.5.3 1.5 0 3.2l1.4 105.4-8.1 31.5-13.3 28.8-21.9 14-.5.1-3.5.6c-10.1 8.2-26.4 11-38.7 6.7l-4.3.7-33.6-16.4-18.1-35.6-5.4-25.8-3.3-103.8-42.4 7.8-19.2.8-2.3 65.6-1.3 8.1c.1 5-.7 10.2-2.3 14.8l-1.2 7.7-5.4 14.5-4.2 6.5c-2.4 6.3-6.4 12.5-11 17l-4 6.2-.3.3-12 9.1c-3.6 5.9-11.3 11.5-19 14.3l-4.9 3.7-.5.1-14.8 3.5c-7.8 5.1-17.7 7.4-26.2 6.2l-5.1 1.2-16.3-1.8-7.3-1.9c-5.1-.2-9.8-1.4-14.3-3.7l-7.6-2-13.8-10c-6.7-1.8-14.4-7.5-19.3-13.9l-5-3.6-11.8-15.6-2.4-6.7c-4.6-6.8-7.9-15.7-7.9-22.1L1 377.2l.2-5.8c-1.6-6.5-1.3-15.9.6-23.5l.2-7.4 5-23.6L30.6 285l21.6-19.9 24-8.1c4.6-2.5 10.3-4.5 15.6-5.3l7.6-2.6 49.6-7.3 7.1-22.6 1.4-47.6c-.2-1.4-.1-2.9.1-4.8l.4-14.7-9.3-35.4-4.7 4.7-2.3 8.7-2 42.3 3 54.1L72 239.7l2.5-90.4 1.8-17.8c-.2-4.6.4-10.3 1.5-15.1l.9-8.8 6.1-16.5 3.4-4.3c2.8-9.9 7.6-16 17.3-22.2l4-5.1 29.7-16.2 11 2c2.6.3 5.2.7 7.7 1.4l10.4 1.9 13.3 6 3.5 3.8c11.2 4.9 20.2 14.7 22.3 24.2l2.6 2.8 4.3 14.1c4.1 6.2 5.8 11.4 6.1 20l2.4 7.9.5 91.8 1.6 7 7.3.7 38.1-6.3 17.4-8.4 1.6-54.6.8-7.1c-.4-4.6.2-9.6 1.7-14.5l1-8.8 6.4-19 3.7-5.5c1.9-5.4 5.4-10.5 9.9-14.5l4.1-6 26.2-27 19.3-5.6 10.1-6.6 40.8-1.3 7.4 2.6c8.1.7 14.8 3.1 20.3 7.2l15.4 5.5 6.6 4.7c3.6 1.8 7.2 4.4 10.2 7.3l6.8 4.9 12.5 15.5 2.8 6.8c5.2 6.6 8 13.5 8.7 20.6l6.4 15.1.2 7.6c1.6 5.9 1.8 12.7.6 18.3m-157.9 88.9c7.3 6.8 21.4 13.2 28.7 13 5.7 0 21-4.8 17-5.1-.9-.2-.5-1.1.9-2.2 2.2-1.5 1.8-1.6-1.3-.7-2.4.7-4.2.4-4.2-.7 0-3.5 3.3-3.8 11-1.1 9.9 3.5 16.1 3.5 24.3 0 8.2-3.3 9.7-5.7 6-9.3-2.2-2.2-2.9-2.2-2.9-.4 0 1.5-.7 1.3-2-.7-.9-1.8-3.5-4.2-5.7-5.3-2.9-1.6-3.5-1.5-2.4.4 1.1 1.6.4 1.8-2.9 1.1-2.4-.7-9.3-1.5-15.4-1.5l-11-.4 10.1-1.3c5.5-.7 9.3-1.5 8.2-1.6-.9-.2-3.8-2-6.4-4-2.9-2.4-3.5-3.5-1.5-2.7 1.8.5 3.7.2 4.2-.7.7-1.1.2-1.8-1.1-1.8s-1.6-.5-1.1-1.3c.7-.5 3.1.5 5.5 2.6 12.8 11.7 34 17.9 45.9 13.4 6.2-2.4 18.8-13.9 19.9-18.3 1.3-5.3-.2-4.6-7.3 3.1-5.7 6.2-5.9 6.2-1.6.7 6.4-8.2 4.6-9.3-3.5-2.4-6.8 6-17.2 12.1-18.5 10.8-.4-.4 3.1-2.9 8.1-5.5 8.2-4.8 8.4-4.9 3.1-4.9-2.9 0-8.8 1.3-12.8 2.7-4 1.5-9 2.6-11 2.6-2-.2-.2-1.1 4-2.2 4.2-1.3 8.1-2.7 8.8-3.3 1.6-1.6-14.3-3.8-17.9-2.4-1.8.5-3.1.2-3.1-.9 0-2 5.3-2.9 15.6-2.4l5.5.2-5.5-2.6-5.5-2.6 6 .2c4.2.4 5.9 1.3 5.9 3.5 0 1.8 1.6 3.8 3.8 4.4 5.3 1.8 6.8-.5 1.5-2.6-3.5-1.5-2-1.8 7.7-1.8 19.4-.2 31.5-8.2 37.3-25.1 2.2-6.4 2.2-7.3-.4-9.3-3.8-2.9-6-1.1-11.5 9.3-2.2 4.6-6 10.1-8.4 12.3-6 5.7-5.5 3.5 1.1-4.8 2.9-3.7 4.9-7.5 4.6-8.4-1.6-2.4-7.7-1.1-7.5 1.6.2 1.5-.9 3.1-2.4 3.7-1.5.5-2 0-1.3-1.1.5-1.1.2-2.6-.9-3.3-1.3-.7-1.6-.5-1.1.5 2 3.1-3.3 4.2-19.4 4.2-15.4 0-19.8 1.6-27.6 9.5-2.4 2.6-2.6 3.3-.7 3.3 1.5 0 3.5-.9 4.6-2 1.6-1.6 2-1.3 1.3 1.6-.7 2.6 0 4 2.9 4.9 2.2.7 3.5 1.6 2.9 2.2-.4.5-5.5-.9-11.3-2.9-9.9-3.8-14.1-3.8-24.9-.9-1.6.5-3.5 2.2-4 3.7-.7 2.2-.2 2.6 2.6 1.6 2-.7 3.7-.4 3.7.7 0 1.3 4.9 2.2 12.4 2.4 12.1.4 12.1.4 2.2.9-5.5.5-10.6 1.6-11.3 2.9s-4 .4-10.6-3.1c-10.4-5.7-23.2-6.8-29.8-2.4-3.8 2.4-4.6 2.4-9.3-1.5-4.2-3.3-5.3-5.9-5.9-13-.7-12.6-1.3-15.2-2.9-14.3-.7.5-1.5 2.6-1.5 4.6 0 1.8-1.6 5.1-3.7 7.1-4.2 4.2-4.8 9.1-1.3 12.8 1.8 2.2 1.6 2.2-1.1 0-2.4-1.6-3.1-4.2-2.7-7.5.5-3.5 0-4.6-1.6-4-1.3.5-2 1.6-1.5 2.4.5.7-.7 1.8-2.7 2.4-2 .5-3.7.4-3.7-.2.2-2 4.8-7.7 6.2-7.7 2.7 0 10.8-10.4 14.1-17.9 3.7-8.4 4.2-12.8 2.4-17.6-2-4.9-5.9-3.5-4.9 2 .5 4 .4 4.4-.9 1.6-1.1-2.6-2-2.9-2.9-1.5-.7 1.3-2.4 1.6-3.5.9-1.6-.9-1.6-.5 0 1.5s1.6 4.4.5 8.2l-1.8 5.3.9-6c.4-3.1.2-5.9-.5-5.9-2.2 0-6.2 3.1-6.2 4.8-.2 1.8-.7 4.2-2.2 8.1-.5 1.5-.7.2-.4-2.7.4-3.1 1.3-7.1 2-9.1l1.5-3.7-2.9 3.7c-1.6 2-3.1 4.6-3.1 5.9s-2 5.1-4.2 8.6c-2.9 4.2-5.1 5.9-6.8 4.8-1.3-.7-3.5-1.1-4.6-.5-1.8.5-1.8-1.1-.5-7.1 3.8-16.8 4.8-19 3.8-9.3-1.3 11.9.2 16.5 4 13.4 1.5-1.3 2.7-3.1 2.7-4 0-1.1-1.3-.9-2.7.4-3.5 2.7-3.5 1.8-.4-4.4 1.5-2.6 2.9-4.2 3.5-3.8.5.5 3.5-1.8 6.6-5.5 3.3-3.5 6.4-6.4 7.1-6.4 6 .2 18.8-15.9 18.8-23.4 0-2.2-.7-4-1.8-4-.9 0-1.8 1.5-1.8 3.1 0 1.8-.9 4.6-1.8 6-1.5 2-1.6 1.3-.7-2.6 2.4-9.7-3.5-4.2-8.2 7.7-2.4 6.2-4.8 11-5.1 10.6-.4-.4.9-4.8 2.9-10.1 2.2-5.1 2.9-9.3 2-9.3-2.7 0-15.2 7.3-18.3 10.6-3.8 4-7.5 4.8-9.5 1.8-1.1-1.6-1.3-1.1-.5 1.6.5 2.2.2 4.4-.9 5.1-7.9 4.8-12.8 30.9-7.1 36.6 2.7 2.7 3.1 2.7 4.2 0 .5-1.6.4-2.4-.7-1.8-1.1.7-1.8-1.1-1.8-3.8 0-4.8.2-4.8 2.4-1.6 1.5 1.8 3.5 2.7 4.6 2 3.5-2 2.6.4-2 6.8-2.4 3.3-5.7 9.1-7.1 13.2-3.1 7.9-3.3 8.6-3.3 12.8 0 1.6-2 3.7-4.6 4.6s-4.6 2.6-4.6 3.7c0 .9-.5 1.6-1.3 1.6-6.4-1.1-1.5 3.7 7.1 6.8 1.6.5 3.5 2.2 4 3.7s1.8 2.6 2.9 2.6 1.5-.9.7-2.2c-.7-1.3-.5-1.5.7-.7 1.1.7 1.6 2.2 1.1 3.5-.4 1.3 2 3.8 5.5 5.7 3.5 1.8 8.6 5.9 11.5 8.8l5.1 5.5-5.5-2.6c-2.9-1.3-6.6-3.8-7.9-5.5-1.3-1.8-3.7-3.3-5.1-3.3s-2.6-.7-2.6-1.6-4.9-5.3-11.2-9.9c-13.4-10.1-25.8-13.7-35.3-10.4-9.9 3.1-10.2 5.9-.9 4.9 4.4-.4 6.4-.4 4.4 0-11.5 2.6-2.7 7.3 9.7 5.3 4.9-.9 6-.7 4 .5-1.5 1.1-5.1 2-8.2 2l-5.5.2 4.6 2.6c2.6 1.5 6.2 2.6 8.1 2.7 3.7 0 3.7 0 .2 2.6s-3.5 2.7 0 6.8c3.3 3.8 3.5 4 .4 2.9-1.8-.7-4.2-1.3-5.1-1.3-1.1 0-1.5-.7-.7-1.6.5-.9 0-2.4-1.1-3.1-1.5-.7-1.3-1.6.4-2.9 1.8-1.3 1.5-1.5-1.3-.7-2.4.7-5.3-.2-8.1-2.6-2.4-2-4.9-3.7-5.9-3.7s-1.1-1.8-.5-4.2c.7-2.6.5-3.1-.5-1.6-1.3 1.8-3.1 1.6-9.3-.5-4.4-1.5-11.5-2.7-16.1-2.7-6.6 0-8.2.7-9.5 4.2-2 5.1-13.9 15.9-17.7 15.9-1.5 0-3.1 1.3-3.7 2.7-.7 1.5-2.4 2.7-3.8 2.7-1.5 0-2 .9-1.3 2.2s.5 1.5-.7.7c-1.1-.5-2.9.4-4 2.4q-1.95 3.6 0 4.8c.9.5 1.8.2 1.8-1.1s.5-1.6 1.3-1.1c.5.7 2.4.2 3.8-1.1 2.4-1.8 2.6-1.6.4 1.5-1.3 2-6 6-10.4 9.1-6.8 4.6-10.1 8.4-14.6 17.2-.2.2-1.1 0-2.2-.7-1.3-.7-.2-2.9 2.6-6 4.6-4.9 6.2-9 2.7-6.8-.9.5-1.8.4-1.8-.5 0-2 5.5-4.8 7.9-4.2.9.2 1.1-.5.4-1.6-1.1-2 9.5-16.5 12.3-16.5.9 0 2.6-.9 3.8-1.8 1.3-1.1 5.7-4.4 10.1-7.5s9.1-8.4 10.6-11.7c3.5-8.6 3.3-19.9-.5-23.1-1.6-1.5-2.6-1.6-1.8-.4 1.5 2.4-3.7 8.4-5.9 7-.9-.4-1.1 2-.7 5.7.4 3.5-.2 7.7-1.3 9.5-1.6 2.6-1.8 2.2-1.3-2 1.1-7.1-1.8-8.1-5.5-1.6-3.1 5.3-3.1 5.5-5.1 1.5-1.6-3.1-1.3-4.8 1.6-9 2-2.7 4.4-4.9 5.3-4.9.7 0 2.7-1.3 4.4-2.7 1.5-1.5 3.5-2.4 4.4-1.6.9.5 1.6.4 1.5-.5-.2-.7 1.3-5.1 3.5-9.7 4.8-9.9 5.3-22.3 1.1-25.8-2.6-2.2-2.7-1.5-2 5.9.4 4.4.4 6.2 0 3.8-.9-4.4-3.8-5.5-4.9-1.8-.4 1.3-1.6 6-2.7 10.6l-1.8 8.2.7-8.2.9-8.2-4.6 4.9c-2.4 2.9-5.1 5.1-6.2 5.1-.9 0-3.7 2.4-6.2 5.3-2.6 3.1-4.9 5.1-5.5 4.6-1.3-1.3-10.6 10.4-13.5 17-1.3 3.3-2.4 8.4-2.4 11.3s-.7 6-1.8 6.6c-.9.5-1.8.2-1.8-.9 0-1.3-1.3-.9-2.9.7-1.5 1.6-3.7 2.9-4.6 2.9-1.1 0-1.3.7-.7 1.8.5.9 0 1.8-1.3 2-1.3 0-.5.9 1.8 2 2.2 1.1 4 2.6 4 3.5 0 .7-3.5-.4-7.7-2.4-12.8-6.2-37.7-2.7-33.1 4.6.5.9 1.5.9 2.2-.2s4.8.7 10.2 4.4c5.1 3.3 11.7 6.2 14.6 6.4 5.3.4 5.3.4-.9 1.5-4 .7-7.3.4-8.8-1.1-1.3-1.3-2.9-2.4-3.7-2.4-1.8.2 13 12.8 15 12.8.7 0-.4-1.6-2.7-3.7l-4.4-3.7 6.6 3.1c6.4 3.1 6.6 3.5 2.9 5.3-3.5 2-3.7 2.2-.2 4 2.7 1.6.7 2-9.3 1.8-10.2-.2-11-.4-4-.9 7.5-.7 8.6-1.1 6.8-3.5-1.3-1.5-5.3-2.7-9-2.7-6.6-.2-6.6-.2-1.1-1.5l5.5-1.3-6.8-4.2c-6.6-4-9.9-8.4-7.3-9.9.7-.4.2-.4-1.1 0-1.3.2-4.4-.7-6.8-2.4-2.4-1.5-8.6-3.3-14.1-3.7-7.9-.9-11.2-.2-17.7 3.3-4.6 2.4-8.6 5.5-9 7-.9 2.4-.5 2.4 2.4 0 1.8-1.5 2.9-1.8 2.2-.5-.9 1.3 1.1 2.9 5.1 4.2 3.5 1.1 6.4 2.9 6.4 3.7 0 1.6-4.9.5-8.2-1.8-8.1-5.9-26.9-1.8-36.8 7.7-3.3 3.3-6.2 6.6-6.2 7.1 0 1.5 20.1 5.9 21.4 4.6.7-.5-.5-1.1-2.7-1.1-2 0-4.2-.7-4.8-1.6-1.6-2.6 10.6-9.5 18.5-10.4 6.2-.7 6-.4-3.1 2.9-5.5 1.8-10.2 3.7-10.4 3.7-.4 0-.5.7-.5 1.5 0 .9 5.5.9 12.1 0s14.6-1.3 17.9-.9c3.8.5 2.7.7-3.7.9-4.9.2-10.8 1.6-12.8 3.1-4 3.1-7 3.7-5.3.9.5-1.1.2-1.8-.7-1.8-1.1 0-2 .9-2 1.8 0 1.8 4 3.8 12.8 6.2 4.2 1.1 4.2 1.1-.5-1.6-9.9-5.7-3.3-5.1 8.2.5 13.5 6.8 24.2 8.8 31.5 6 5.1-2 5.1-2.2 2-5.7-3.8-4.2-2-4.9 2.2-.9 1.5 1.6 3.3 2.4 3.8 1.8 1.6-1.6-5.7-6.2-9.9-6.4-2.2 0-4.9-1.3-6.2-2.7-1.3-1.5-3.5-2.7-4.8-2.7-1.5 0-2.6-.7-2.6-1.6s-1.8-2.4-4-3.1c-3.5-1.1-3.5-1.3-.7-2.9 1.6-.9 2.4-2.6 1.8-3.7-.9-1.3-.4-1.5.9-.7 1.3.9 1.8 2.7 1.3 4.2-.9 2-.4 2.4 1.8 1.6 3.3-1.3 13.5 3.5 13.5 6.4 0 2-6.4-.9-8.2-3.8-1.5-2.4-4.6-2.4-4.6 0 0 .9 1.1 1.8 2.6 1.8 1.3 0 3.5 1.3 4.8 2.7 1.3 1.6 3.5 2.6 4.9 2 1.5-.5 5.7.9 9.3 3.3 9.1 5.7 17 7.3 25.1 4.9 5.5-1.5 7.7-1.3 11.2 1.1 2.7 1.6 4.4 2 4.4.7 0-1.1.5-2 1.5-2 .7 0 .9 4.2.7 9.1-.5 5.3.2 10.4 1.5 11.9 1.1 1.5 1.5 3.7.7 4.9-1.1 1.6-.5 1.6 1.8-.2 1.6-1.5 2.4-3.1 1.6-3.7-.9-.5-1.6-4.4-1.8-8.4-.2-4.9.2-5.7.7-2.2 1.1 7.1 4.9 5.1 6.2-3.5l1.1-7.1.4 6.8c.2 4.9 1.1 7 2.9 7 1.5 0 2.7-.9 2.7-1.8 0-1.1-.9-1.8-2.2-1.8-1.1 0-.7-1.3.9-3.3 1.8-1.8 3.1-4.2 3.1-5.1s3.1-3.7 6.6-6.2c12.6-8.8 22.7-20.7 23.8-28 .7-3.7 1.8-7.3 2.6-7.7.9-.5 1.1.7.5 2.7-.7 2.7-.4 3.5 1.6 2.7 2.4-.9 2.6.2.7 8.6-1.3 6-2.2 8.2-2.6 5.7-.5-4-.9-3.8-7.7 2.6-4.4 4.4-6.4 7.7-5.5 8.8s.5 6.2-.9 11.9c-2.2 8.4-2.6 9-2.2 3.1.4-3.7-.2-6.8-1.1-6.8s-1.3-1.1-.7-2.4c.4-1.1 1.8-2 2.9-1.8 2.4.5 2.7-2.4.4-4-.9-.5-3.1.4-4.8 2-2.2 2.2-2.4 3.5-.7 5.5 1.6 2 1.5 2.6-.7 2.6-1.5 0-3.1-.5-3.7-1.5-.4-.7-.4-.2 0 1.3.4 1.6-.4 2-2.4 1.3-1.8-.7-4 .2-5.5 2-4 5.5-2.9 6 3.8 2.2 3.7-2.2 6.4-2.9 6.4-1.8s-.9 2-1.8 2c-3.7 0-23.6 21-26.3 27.8-3.7 8.6-3.7 18.7-.4 21.4 1.6 1.5 2.9 1.5 3.7.4.7-.9.4-2.2-.7-2.9-.9-.5-1.8-3.3-1.6-6 .2-4.8.2-4.8 1.8 1.1 1.5 5.1 2.2 5.7 5.3 4 2-1.1 3.7-2.9 3.7-4.2.2-2.4 6.2-10.4 8.1-10.4.5 0 6-4.9 12.1-11.2 12.3-12.3 16.1-19.6 16.7-31.8.4-4.4 1.1-7.7 2-7.1.7.5 2-.2 2.6-1.6.7-2 4-2.6 13.7-2.4 10.8.2 13.4-.4 15.4-3.3 3.7-4.9 1.3-7.5-3.1-3.5-3.7 3.3-3.8 3.3-1.6-.7 1.8-3.7 1.6-3.8-2.7-3.1-2.9.5-4.2.2-3.5-1.1.5-.9.5-1.8-.4-1.8-.7 0-3.5-1.8-6-3.8-4-3.1-4.2-3.5-.9-3.1 2 .4 3.5-.4 3.3-1.6-.4-1.3.7-1.8 2.4-1.1 2.7.9 2.7 1.3-.2 2.7-2.7 1.6-2.7 2 .4 4.2 1.8 1.3 3.8 2 4.6 1.6.9-.5 6.8 1.6 13.4 4.9 11.7 5.7 14.8 6 28.5 2.6 3.1-.9 5.7-.4 7.5 1.6.1.1.2.1.3.2l.7-.1v.7c1.3.9 2.4 1.3 3 .8.5-.7 1.3.2 1.3 1.8.2 1.6.5 3.8.7 4.9.2.9.5 2.9.7 4.4 0 1.5 1.3 2.9 2.7 3.5 1.8.7 2.6 0 2-2.4-.7-3.5 4.8-6.8 7.9-4.8.9.5 4.6-1.8 8.2-5.3 8.8-8.2 10.6-8.1 8.4.4-2.7 10.1-3.7 11.5-2.6 3.8.9-5.5.5-6.8-1.5-5.9-1.5.5-3.7 2.7-4.8 4.9-1.3 2.4-4 4.9-6.2 5.9-5.3 2.4-13.7 16.7-15.2 25.6-.9 6-.4 8.2 2.7 11.9l3.8 4.6-.9-7.3-1.1-7.3 2.9 5.5c1.5 2.9 2.4 4 1.8 2.4-.4-1.8 0-5.1.9-7.3 1.5-4 2.7-1.8 2 3.8-.4 2 0 2 2.2 0 1.3-1.3 2.6-3.3 2.6-4.4 0-.9 1.5-4.8 2.9-8.2 2.2-4.6 2.9-5.3 3.1-2.7 0 2.2.9 4.8 1.8 5.7 1.3 1.3-1.5 5.3-8.8 12.4-15.7 15.6-20.7 32.2-12.1 41 1.8 1.6 2.4 4.2 1.6 6.6-5.1 16.5-5.1 17.9-1.8 27.8 1.8 5.5 4 9.9 4.9 9.9s1.1 1.1.4 2.2c-.9 1.8-.5 1.8 1.3 0 2.6-2.4 2.7-2.9 3.3-8.2 0-1.5 1.8-4.4 3.8-6.8s3.7-4.9 3.7-5.9 1.6-3.3 3.7-5.5c3.8-4.2 4.9-8.1 1.8-6-5.1 3.1-.5-2.7 9.9-12.8 15.6-15 19.8-28.5 11.9-37.7l-3.8-4.4 1.3 5.1c1.1 4 .7 4.9-2 4.9-2.9 0-2.9-.4-.7-1.8 1.5-.9 2-2.2 1.3-3.1-2.2-2-4.6 2.9-3.7 7 .5 2.2 0 3.5-1.5 3.5s-6.6 3.8-11.7 8.6c-18.1 17-21.8 19.9-20.5 16.5.7-2 .5-2.9-.5-2.2-1.1.5-1.8.4-1.8-.7 0-.9.9-2 1.8-2.4 1.1-.4 3.5-6.8 5.5-14.3 3.1-12.6 3.3-13 2.4-4.2-1.1 9.7 1.6 13.7 4 6 .9-2.9 1.8-3.3 4.4-1.8 3.5 1.8 6.4.2 11-6 3.8-4.9.9-3.7-4.4 1.8-2.6 2.7-4.6 4.2-4.6 3.3 0-1.8 4.4-6.6 16.7-17.9 7.9-7.1 11.9-18.1 10.1-27.6-1.3-7-5.5-8.8-9.9-4.4-1.5 1.5-2.2 1.5-2.2.2 0-1.1 1.3-2.9 2.9-4.4 3.8-3.1 10.2-16.1 9.3-18.7-.9-3.1 2.7-6.2 11.3-9.7 6-2.4 7.1-3.5 5.5-5.5-1.1-1.5-3.3-2.6-4.8-2.6s-4.8-2.2-7.3-4.9c-2.7-2.6-5.1-4-5.5-2.9-.7 2.2-18.8-.7-21.6-3.7-1.3-1.1-.4-1.5 2.7-.5 11.5 2.9 18.8 3.5 17.6 1.5-2.9-5 1.1-3.3 6.6 1.8m28.8 206.7c3.9-2.3 4.7-4-.6-2.5-2.4.7-6 1.6-8.1 2.2-2.9.7-2.7.4.5-.9 2.2-1.1 4-2.4 4-2.7 0-.5-4.6-3.1-10.1-5.7-6-2.9-9.5-5.7-9-6.8.7-1.1-.2-3.1-2.2-4.6-2.7-2-3.5-5.1-3.7-19.8 0-11-1.1-18.3-2.6-20.1-2.9-3.5-5.5-3.5-5.5 0 0 1.5.9 2.7 1.8 2.7 1.1 0 1.8.7 1.8 1.8 0 .9-1.1 1.6-2.2 1.3-2.6-.4-3.1 7.5-.9 15.2.7 2.6 0 1.6-1.6-1.8-2.6-5.5-3.1-5.9-4.8-2.9-.9 1.8-1.5 4.8-.9 6.8.5 1.8.2 2.9-.7 2.4-3.3-2-1.3 20.9 2.2 26.7 4.1 6.6 10.5 11.1 17.7 12.9zm-50.9-75.5c-.7 2-1.8 7.3-2.4 11.9l-.9 8.2-1.1-7.3-.9-7.3-5.3 8.6c-2.7 4.9-5.7 8.8-6.6 8.8-2.2 0-4 16.1-2.7 24.2 1.6 9.5 14.5 22.5 23.2 23.8l6 .9-4.6-2.9c-2.6-1.6-6.6-4.9-9.1-7.5-3.1-2.9-3.3-3.3-.5-1.1 6.4 5.5 6.4 2.9-.4-8.1-3.3-5.5-6.6-13-7.1-16.5-1.1-6-.9-5.9 2.2 1.8 1.8 4.6 5.5 11.3 8.1 15l4.6 6.8-.2-10.4c-.2-5.7-.7-11.3-1.5-12.4-1.6-2.4.2-9.9 2.4-9.9.7 0 1.1-2.7.9-6-.4-3.1-.2-4.4.2-2.7.9 4 4.2 4.4 4.2.5 0-1.5.7-2.7 1.6-2.7 2.4 0 7.5-13.7 7.5-19.9 0-2.9-1.3-6.6-2.7-8.1-1.5-1.5-2-3.1-1.5-3.8.7-.5.7-1.1 0-1.1-2.2 0-3.1 3.3-1.8 6.6.7 2 .5 2.7-.9 1.8-2.9-1.8-4.8 2.4-4.6 11.5 0 7 0 7.3-.7 2-.5-3.5-1.6-7-2.7-7.5-2.9-1.8-7 .2-7 3.5 0 2.4.5 2.2 2.9-.7 2.6-3.7 2.8-3.7 1.4 0m43.1 12.8c0 3.3 5.5 2.4 16.5-2.4 3.5-1.5 6.8-2.9 7.3-3.1 3.5-.9 18.8-12.3 23.4-17.2 7.1-7.9 10.2-19.8 7.7-29.5-1.1-4-2.2-7.3-2.6-7.3-2 0-10.8 11.5-9.1 12.3 1.5.4 1.5 3.8.4 11-2.2 13.7-3.7 15.2-2.2 2 .7-6.8.5-10.6-.9-11.3-1.1-.7-2-.7-1.8.2.2.7-.9 4.4-2.6 7.9-1.6 3.5-2.9 5.3-3.1 4 0-2.6-3.5-.2-20.3 14.1-7.5 6.3-12.7 14.2-12.7 19.3m3.7-96.6c0 2.9.9 6.2 2.2 7.5s1.5 2.2.5 2.2c-1.1 0-.9.7.4 1.5 1.6 1.1 1.6 3.1-.4 8.6-2.9 8.1-3.3 18.1-1.1 23.8 1.3 3.3 1.8 3.1 5.5-2.7 2-3.5 3.8-8.4 4-11 0-4 .2-4.2 1.5-1.1 1.3 3.3 1.5 3.3 4.4-.9 1.6-2.4 3.1-5.5 3.1-7.1 0-2.2.4-2.2 1.6-.4 1.1 2 2.4 1.3 5.5-2.6 2-2.6 3.8-3.8 3.8-2.6 0 3.7 13-13.2 16.8-21.6 2-4.4 3.1-8.4 2.7-8.8-.5-.5-1.5-.2-2 .9-.7 1.1-2.4 1.5-3.7.9-2.7-1.1-5.9 2.2-7.1 7.5-.7 2.7-.9 2.4-1.1-1.5-.2-5.5-2.2-6.4-5.7-2.2-1.3 1.6-2.7 2.4-3.3 2-.4-.5-5.5 3.7-11.2 9.1-8.8 8.4-10.2 9.3-10.8 6.2-.4-2 .7-5.5 2.2-7.7 3.7-5.1 3.8-9 .2-7.7-1.5.7-2.7 2.4-2.7 3.8 0 2.4-.5 2.4-2.7.5-2.2-1.8-2.6-1.2-2.6 3.4m19.4 29.1c-3.3 4.8-3.3 4.8.5 2.7 2-1.3 3.8-3.3 3.8-4.8.1-3.6-.3-3.4-4.3 2.1M378 359.9c0 6.2 1.5 11.5 3.5 11.5s7-11.2 9-20.1l2-8.2-.9 7.7c-.7 5.1-.4 7.9.9 7.9 1.1 0 2-.9 2-1.8 0-1.1.9-1.8 2-1.8s1.5 1.6.5 4c-1.1 3.8-.7 3.7 2.7-.9 2.4-2.7 5.1-4.9 6.6-4.9 1.3 0 2.7-1.3 3.3-2.6 1.5-3.5-4.2-1.6-7.3 2.4-1.1 1.6-2.7 2.4-3.3 1.6-.7-.7 1.1-3.5 4-5.9 3.1-2.6 6.6-7.1 7.9-10.2s2.7-5.3 3.1-4.8c.5.4 0 2.6-1.3 4.6-2.7 5.5-1.1 4.8 5.5-2.2 7.7-8.1 10.2-13.4 11.3-23.8.7-6.6.2-9.7-2.2-12.6-3.1-4-3.1-3.8-2.7 4.9.2 5.1 0 6.6-.4 3.7-1.1-7.7-2.9-8.8-5.9-4-2.4 3.5-2.2 3.8.2 1.6 2.6-2 2.6-1.1.4 8.2-3.8 17.9-4.2 18.3-3.3 6 .4-6.6.2-10.6-.4-9.1-.7 1.5-1.8 3.1-2.6 3.7-.5.5-3.5 7.9-6.2 16.5-2.9 8.6-5.9 16.3-6.8 17.2-1.8 2.2.4-6 4.8-16.7 1.6-4.4 2.7-9.1 2.2-10.6-.7-1.5-.4-3.1.5-3.7 1.1-.7 1.8-2 1.8-3.1 0-3.1-5.5 2.4-5.5 5.7-.2 3.8-3.1 7.5-11.7 13.9-7.7 6-13.5 17-13.7 25.9m-4.7-56.7.1 8.1c.4-3.3.4-5.9-.1-8.1m-.8 72.2c.2-.6.3-1.3.4-1.9zm-12.8 29c-.9 0-2.2.7-2.7 1.8-.5.9-.4 1.8.5 1.8 2.2 0 2.4 10.6.2 11.9-2.7 1.8-1.8 7.5 1.5 10.2 2.7 2.2 2.9 2.2 1.5-.2-.9-1.5-1.8-4.4-2.2-6.4-.2-2 .9-.9 2.7 2.7 3.5 7 7.1 10.2 16.8 15 3.5 1.8 5.1 3.1 3.5 3.3-1.6 0-7-2.2-11.7-4.9-4.9-2.7-8.2-3.8-7.5-2.6.7 1.1 4.9 3.8 9.5 5.9 7.3 3.5 8.8 3.7 17.2 1.5 14.5-3.7 22.1-9 26.7-18.1 4.6-8.8 5.7-16.5 2.4-16.5-.9 0-1.5.7-.9 1.5.5.9-.9 1.5-3.1 1.5-2.2-.2-4 .5-4 1.6-.2 2.7-4.4 9.5-4.6 7 0-2.7-4.4-1.3-11.3 3.5-2.6 1.8-7.5 3.7-11 4.2-5.7.9-5.5.7 1.1-1.3 4-1.3 7.5-3.5 8.1-4.8.4-1.3 0-2-.9-1.8-1.6.5-2.4-.9-2.4-4.8 0-1.6 3.3-2.9 9.9-3.8 5.5-.5 12.8-2.9 16.1-5.1 7.7-5.1 14.3-18.1 14.3-28 0-4.8-.9-8.1-2.4-8.6-2-.7-2.4.9-2 6.6.2 4.2 0 5.9-.5 3.5-.4-2.2-1.6-4-2.6-4-1.1 0-1.3-.9-.5-2.2.7-1.3.5-1.5-.9-.7-1.1.7-1.6 2-1.1 2.9.5.7.2 3.5-.7 5.7l-1.5 4.2-2.4-3.7c-2.4-3.8-2.4-3.8-12.1 1.8-5.5 3.1-9.9 6.4-9.9 7.3s1.1.5 2.4-.5c1.5-1.1 3.1-1.5 3.7-.7.7.5 1.6-.2 2.4-1.8.5-1.6 2.2-2.4 3.7-1.8 1.5.5 2.6.2 2.6-.9 0-.9 1.3-2.2 2.7-2.9 2.2-.7 2.4-.4.4 2.6-1.1 2-3.1 3.7-4.2 3.7s-4.9 2-8.6 4.4c-5.1 3.7-6.8 4-7.5 1.8-.5-1.5-2-2.6-3.3-2.6-1.6 0-1.5.5.4 1.8 2.2 1.5 2.2 1.8-.9 1.8-7 0-17.4 3.8-17.4 6.2 0 1.5 1.3 3.5 2.7 4.8 2 1.6 3.5 1.5 6.8-.7 5.7-4 8.2-3.7 3.3.4-4.8 3.8-3.5 8.4 2 6.8 3.5-1.3 4.8 1.8 2 5.5-1.5 2-11.3 2.7-10.8.7.2-1.9-13.5-16.5-15.5-16.5m39.7 11.5c-4 .2-7.5.9-8.1 1.6-1.1 2 6.8 1.6 11.3-.4 2.8-1.2 2.1-1.4-3.2-1.2M66 300.1c.5-.7-.4-2-2-2.6-1.6-.5-8.4-1.1-15-1.1-10.8.2-13.2.7-19.6 5.5-7.5 5.7-15.6 18.1-15.6 24.2 0 5.9 3.5 3.5 5.5-4 1.1-3.8 2.7-7.7 3.8-8.4 1.5-.7 1.5-.2.2 2.2-.9 2-2.2 5.7-2.9 8.4-.9 4-.5 4.8 1.6 3.8 1.6-.5 2.6-1.5 2-2-1.8-1.6 14.3-22.3 17.4-22.3.9 0-1.6 3.5-5.5 7.7-4 4.2-6.8 8.8-6.2 10.1.5 1.3-.2 2.4-1.5 2.4s-1.8.4-1.3.9c1.5 1.5 7.1-1.1 6-2.7-2.2-3.5 5.1-5.1 24-5.1 15.2 0 21.8-.7 26-2.9 3.3-1.6 5.9-3.8 5.9-4.9s1.1-1.3 2.4-.5c1.5.9 1.5.4-.4-1.6-1.3-1.6-2.9-3.1-3.5-3.1-.5 0-.4.5.2 1.3.7.5-.2 2.2-2 3.5-4.8 3.7-6.8 3.1-3.3-.9 3.3-3.7 2.6-7.7-1.3-7.3-1.6 0-1.6.4.2 1.1 1.1.4 2.2 1.6 2.2 2.6 0 1.1-.7 1.3-1.8.7-.9-.5-5.1.7-9.3 2.7-4 2.2-7.9 3.5-8.4 2.9-.5-.5 2.6-2.4 6.8-4 6.4-2.6 7.1-3.5 4.6-4.8-1.6-1.1-4.6-1.5-6.6-.9-1.8.2-3.1 0-2.6-.9m108.9 80.3c0 1.1-1.5 2.2-3.1 2.4-5.9.4-7 .7-12.8 3.8-6 3.1-13.4 11.3-13.4 14.8 0 1.3.5 1.3 1.5.2.7-1.1 3.3-3.5 5.9-5.5s3.5-2.4 2.4-.9c-1.3 1.5-2.4 3.3-2.4 4 0 2.9 4.8 1.3 10.1-3.7 11.7-10.6 14.3-11.7 6.4-3.1-10.1 11-11.2 11.9-13.5 10.6-.9-.5-1.1-.2-.4.9.9 1.6-1.6 1.8-9.3 1.1-8.8-.9-12.1-.5-17.6 2.6-6.8 3.7-6.8 7 0 4.8 2.7-.9 2.7-.7.5.9s-2 2 1.5 2c2.4 0 5.5 1.3 7 2.7 1.6 1.5 2 2.7.9 2.7-.9 0-2.4-.9-2.9-1.8-.5-1.1-2-1.8-3.1-1.8s-1.1 1.1.4 2.7c1.6 2 4 2.6 8.8 1.6 4.6-.9 6-.7 5.1.9-.7 1.1-.9 2-.5 2 5.7 0 21 4.4 23.6 6.8 3.1 2.7 3.1 3.1.2 6.6-1.8 1.8-4.9 4.2-7 5.3-2 .9-1.1-.2 1.8-2.7 7.7-6.6 5.1-7.3-6.2-2.2-5.3 2.6-11 4.6-12.6 4.6-2.4-.2 9.5-5.3 12.3-5.5.4 0 0-1.3-.5-2.9-.9-2.4-.2-2.7 3.5-1.8 2.6.7 4.6.4 4.6-.5 0-2-7-3.8-10.2-2.6-1.5.5-2 1.6-1.5 2.6 1.3 2-3.5 2.2-5.7.2-1.1-.9-5.3-2.6-9.5-4-4.2-1.3-7.3-3.1-6.8-3.8.4-.9-2.4-3.8-6.6-7-8.6-6.2-19.9-9-22.1-5.3-2.4 3.7-2 5.1 1.5 3.8 1.8-.7 2.6-.4 1.6.9-1.3 2.2 9.3 5.9 16.8 5.9 2.2 0 4 .7 4 1.6s-4.9.5-11-.9c-6-1.3-11.9-2-13.2-1.6-1.5.5-3.8-2-6-5.9-2-3.7-6.4-8.4-9.5-10.2l-6-3.5.5 5.5c.2 3.8 2.7 7.3 8.6 12.3 12.4 10.4 11.7 11.2-1.3 1.3l-6-4.4v4.6c0 2.6.9 5.3 2 6 1.5.9 1.3 1.6-.7 2.7-1.5.9-2.6 3.1-2.2 4.9.4 1.6.7 3.7.7 4.4.2.9.9 1.5 2 1.5s1.1-1.6 0-4.6c-1.1-2.9-1.1-4.6 0-4.6s1.8 1.1 1.8 2.6c0 1.3 1.3 3.5 2.7 4.8 1.5 1.3 2.2 2.9 1.8 3.8-1.8 2.7 13.5 15.7 20.9 17.7 9.7 2.4 21.6 0 26.5-5.3 2-2.4 2.6-3.3 1.1-2-3.1 2.6-9.1 2.9-9.1.4 0-1.1-2.2-1.8-4.8-1.8s-4.2-.7-3.5-1.8 2-1.3 3.1-.7c1.3.9 1.6.2.9-1.6-.7-2-.2-3.1 1.5-3.1 1.5 0 2.7.7 2.7 1.6 0 2.7 15.7 6 22.1 4.8 11.2-2.4 24.9-11.9 22.7-15.7-.7-.9-.2-1.6.9-1.6s1.6-.7.9-1.8c-.5-.9-2.2-1.3-3.7-.5-1.5.5-2.7 0-2.7-1.1s2.4-2 5.1-2c5.9 0 18.8-8.6 23.2-15.4 1.6-2.4 3.5-6.8 4.4-9.7 1.3-4.4 1.1-5.3-1.5-5.1-4.6.5-18.5 4.6-18.5 5.5 0 1.5 11.7-1.3 14.3-3.3 1.1-.9 2.2-1.1 2.2-.4 0 2.7-8.1 15.4-10.4 16.3-1.5.5-.4-1.8 2.4-5.3 3.7-4.9 4.2-6.4 2-6.4-1.6 0-4.6 2.4-6.6 5.3-3.7 5.1-14.5 13-17.6 13-.7 0 1.8-2.4 5.7-5.1 3.8-2.9 8.4-6.8 9.9-8.6 2.6-3.1 2.4-3.3-2.7-1.8-6.4 1.6-6.6 1.6-17.2 1.3-8.1-.4-8.1-.4-4.8-4.2 2.2-2.2 5.3-3.5 8.2-3.3 18.1 1.6 35.1-6.8 41.9-20.7 4-8.6 5.1-20.5 2-22.5-1.1-.7-1.3-2-.7-3.1.7-1.1.4-1.5-.5-.9-1.1.7-1.5 3.5-.9 6 .5 3.1.2 4.6-.9 3.8-1.1-.7-2.9 0-4.2 1.5-1.8 2.2-2.9 2.4-4.8.7-2.7-2.2-8.1.5-8.1 4.4 0 .9 1.6.4 3.7-1.5 4.6-4 4.8-2.4.5 2.7-3.8 4.4-6 4.8-6 .7 0-1.5-.7-2.2-1.8-1.6-.9.5-1.8.5-1.8-.4 0-.7 3.1-3.5 7-6 14.8-9.9 20.5-19 20.5-33.8 0-4.9-1.1-9.5-2.6-11.2-3.7-3.7-5.1-.4-2.7 6.2 1.1 3.1 1.6 7.1 1.1 9-.5 2.2-.9 1.5-1.1-1.8-.2-6.4-5.7-7-5.7-.4 0 5.5-3.8 23.4-4.8 22.3-.4-.4.2-5.3 1.3-11 2.2-12.8.4-17.9-4.8-12.3-1.8 2-2.4 3.7-1.3 3.7s2.2-1.1 2.7-2.4c.4-1.1 1.5-1.6 2.2-.9 2 2-2.6 7-5.5 5.9-2.7-1.1-11.9 4.2-11.9 7 0 .9 2.4 0 5.3-2 2.7-2 5.7-3.3 6.4-2.6.5.5-1.5 2.6-4.4 4.4-3.1 2-5.5 4.4-5.5 5.3 0 1.1-.7 1.6-1.6.9-3.3-1.8-20.1 16.8-21.4 23.8-1.3 7.1.4 11 2.2 5.3.5-1.8 1.8-5.1 2.7-7.1 1.5-3.3 1.6-3.3.5.4-1.6 6.6 4.4 5.1 7.7-1.8 2.6-5.3 2.7-5.5 1.6-.9-1.1 5.7.4 6.4 5.7 2.6 2.4-1.8 4.2-2 5.7-.7 3.7 2.9 2.9 4.8-3.3 7.9-6.4 3.3-9.5 2.2-4.4-1.6 2.9-2.2 2.7-2.4-2.4-1.5-3.3.4-5.9 1.6-5.9 2.6s.9 1.1 1.8.5c1.3-1 2-.7 2 .2M58.3 415.7C57 438 61.6 448.6 76 456.3c7 3.7 16.7 5.1 19.4 2.7 2.9-2.4 3.5-6 .9-4.6-.9.7-2.2 0-2.6-1.1-.7-1.8-1.1-1.8-1.1-.2-.2 2.7-6.6 2.9-12.1.5-2.6-1.3-1.5-1.5 3.5-.5 9.5 1.5 7.5-1.5-5.5-8.1-5.5-2.7-11.5-6.6-13.2-8.6-1.6-1.8 1.5-.5 7 2.9 13.5 8.6 17.6 9.9 17.6 5.1 0-2.6-.9-3.3-3.3-2.7-2 .7-3.8-.2-5.1-2.7-1.1-2-1.5-3.7-.9-3.7s-.2-1.8-1.6-4.2c-2.9-4.4-3.7-9.3-3.1-19.6.2-4.8.7-5.7 2-3.7.9 1.5 2.2 2.2 2.7 1.5.5-.5-.2-2.2-1.6-3.8-1.6-1.5-4.2-6-5.9-10.2s-4-7.5-5.3-7.5-2.7-1.1-3.1-2.2c-.5-1.5-1.6-.7-3.1 1.6-1.8 3.5-1.6 4 .7 3.1 1.5-.7 2.7-.4 2.7.7s-.9 2.2-2 2.6c-1.6.5-1.6 1.6 0 4.8 1.6 3.3 1.6 3.8-.5 2.9-1.5-.5-2.9-2.4-3.3-4-.5-2.4-.9-2.2-1.8 1.1-.5 2.2-.4 3.7.4 3.1.9-.4 1.1 6 .5 14.2m-1.8-20.3c4.6-9.5 5.7-27.6 1.6-29.1-1.1-.4-1.8-1.5-1.1-2.4.5-.9.5-1.6 0-1.6-1.3 0-1.6 1.6-1.1 6.4.4 2.9 0 3.1-2.6 1.1-2.6-2.2-2.7-.9-2.2 12.8l.7 15.4-2-10.6c-1.8-8.6-2.6-10.2-4.4-8.4-1.3 1.3-2.4 3.5-2.4 4.8s-.9 2.4-1.8 2.4c-3.3 0-9.5 17-9.7 26.5-.2 11.2 5.3 22 14.1 28 3.3 2.2 6.4 4 7.1 4 2.6 0 1.3-4.2-1.8-6.6-3.1-2.2-3.1-2.4.4-1.8 3.7.7 3.8-.2 3.7-11.7 0-7-.5-13.2-1.5-13.9-2.1-2.3-1.4-6.7 3-15.3m-36.2 5c1.6 3.3 3.7 5.5 4.6 4.9 1.1-.5 1.8-.2 1.8.7 0 2.7 3.1 2.6 3.1-.4 0-1.1.5-4.8 1.3-7.7l1.1-5.5-2.6 5.3c-3.1 6.8-4.8 4-5.9-9.5-.7-11.3 0-11.2 2 .4 1.6 9.5 4.4 5.3 4.8-7.1.4-6.8.5-7.5 1.1-3.3.4 3.3 1.6 6 2.7 6s1.1 1.1-.4 2.7c-1.6 1.8-1.6 2.7-.2 2.7 2 0 2.7-2.4 2-7.1-.2-1.5 4.8-7.7 11-13.9 8.2-8.4 11.3-12.8 12.3-17.9.5-3.7.4-6.8-.5-6.6-5.3.4-9.7 4.8-12.3 12.3l-2.9 8.6 1.1-7.3c.7-6.8.5-7.3-3.8-7.5-2.6-.2-4.8.4-4.8 1.5 0 .9.9 1.1 2 .4 1.5-.7 1.6.2.7 3.1-3.1 9.7-6.2 17-6.2 15.2-.2-1.1.7-4.6 1.8-7.9s1.6-6.4 1.1-7c-1.6-1.6-18.1 16.3-20.9 22.7-3.5 8.4-2.9 14.8 2.2 25.6 3.3 7.5 5.3 9.7 8.4 9.7 4.2 0 4.2 0-.5-5.1-2.6-2.7-5.1-7-5.9-9.5-.6-3.1 0-2.7 1.8 1.5m-3.5-64.8c-8.6 6.8-12.4 24.7-8.1 37l2.2 6 2.4-4.8c2.9-5.5 2.9-6.6.5-5.1-2.2 1.5-4.2-6.4-3.1-13 .5-4 .7-3.5 1.1 2.4 0 4.4.9 7.9 2 7.9.9 0 2.6-3.5 3.7-7.9 4.2-17 5.7-21 8.2-23.2 2.2-1.8 2-.5-.7 5.7-7.5 17.6-6.4 24.7 1.5 9.9 2.4-4.6 4.8-7.9 5.3-7.3.5.5.2 1.8-.9 2.9s-1.6 3.3-1.1 4.6c.5 1.5.2 2.6-.9 2.6-.9 0-2.4 1.3-2.9 2.7-1.6 4.6 4.2.5 7-4.8 1.3-2.4 3.7-4.2 5.3-4.2 1.6.2 2.7-.4 2.2-1.1-.4-.7 2.7-2.4 7-3.8 10.2-3.1 19-9 21.2-13.7 1.5-3.5 1.1-4.2-3.1-4.9-3.8-.7-6 .4-11 5.7-5.3 6-5.7 6-2.6 1.3 6.4-10.1 6.8-11.2 3.8-9-3.5 2.7-10.8 4.4-10.8 2.6 0-.9.9-1.8 2.2-2.2 1.3-.5 1.5-1.3.5-1.8-1.1-.4-3.3.5-4.9 2.4-1.8 1.8-5.5 3.8-8.2 4.4-2.9.7-7.1 2-9.7 3.1-2.6 1.3-5.3 1.8-6.4 1.6-.9-.4-1.3.2-.5.9.6.5.1 2-1.2 3.1m63.9 85.3c.2-3.1-.4-5.5-1.3-5.5-1.5 0-.7 12.4.9 14.1.5.4 1.5 0 2.2-1.1.5-1.1.4-2-.5-2-1 0-1.5-2.6-1.3-5.5m74.3-56.7-.4-54.6-4.7-3.2-21.6.9-34.6 10.6-15.3 11-9.5 19.1-1.2 8.6 3.3 18.2 10.4 15.8 14.4 8.7 29.2.4 13.6-6.4 13.5-19.3zm-54.1 39.9c5.1 1.1 12.3 1.2 17.9.2zm58.5-80.8v5.7c.4-2.2.4-4 0-5.7m-2.3-17.7c0-3.3-1.2-4.1-4.2-2.9zM159.2 97c-.5 14.3 2 24.7 4.8 20.1.9-1.5 1.1-3.3.5-4.4-.5-.9-.2-1.1.9-.4 2.2 1.3 3.1-1.8 2.6-9-.2-2 .2-2.7.9-1.8 1.8 2.4 5.1 2.4 7.3.2.9-.9.5-1.1-.7-.4-3.1 1.6-3.3-7.3-.4-9.1 1.3-.7 1.6-4.4 1.1-9.3-.5-5.1-.2-7.5.9-6.4 2.2 2.2 2.4 7 .7 15-.9 4.8-.7 5.7.5 3.7 1.1-1.5 2-4.6 2-7 0-2.2.9-4 1.8-4 1.1 0 1.8 2.4 1.8 5.5 0 2.9-.7 5.5-1.6 5.5s-2.2 2-2.7 4.8c-1.3 4.8-11 19.4-12.3 18.1-.4-.4-.9 1.1-.9 3.3-.2 2.2-.9 8.8-1.6 14.8-1.3 9.9-1.3 10.6 2 9.9 1.8-.4 3.3-1.6 3.1-2.7s.7-3.1 2.2-4.2c1.6-1.5 2.9-5.9 3.1-11.7l.2-9.3 1.1 9.1c1.1 9.1 1.1 9.1 4 4.9 2-2.9 3.5-3.7 4.4-2.2 1.5 2.2 8.2-2.7 8.2-6 0-1.1-1.8-.4-3.8 1.6-3.8 3.3-3.8 3.1.4-4.8 2.4-4.4 5.3-9 6.6-10.1 1.3-.9 3.1-3.8 4.2-6.4 1.8-4.4 1.8-4.4.9.9-.9 4.4-.7 5.1 1.1 3.1 3.1-2.9 5.3-2.7 5.3.5 0 1.5-.9 2.6-2.2 2.4-1.6-.4-2.4 3.3-2.6 12.3-.2 7-1.1 14.6-2 17-1.1 2.7-1.5-.5-1.1-10.6.4-14.5-.4-16.7-4.6-12.4-3.1 3.1-2.7 6 .5 3.3 1.5-1.3 2.7-1.8 2.7-1.3 0 1.8-4.9 10.4-5.7 9.7-.4-.4-2.7 1.8-5.1 4.9-2.4 3.3-7 7.5-9.9 9.5-7.5 4.9-13.9 16.7-13.9 25.6 0 7.1 3.7 14.8 5.9 12.4 2-1.8 1.5-4.6-.5-3.3-1.1.7-1.6-1.6-1.6-5.9.4-5.5.5-5.9 1.1-2 .4 2.9 1.5 5.1 2.4 5.1 1.1 0 2.2-2.2 2.9-5.1.5-2.7 1.8-7.5 2.7-10.4 1.3-4.6 1.5-4 .7 2.7l-.9 8.2 3.1-4.4c1.8-2.4 4.8-8.2 6.6-12.8 1.6-4.6 2.7-6.2 2.2-3.5-.5 2.6-1.5 6.2-2.2 8.1-2.2 5.7 20.9-15.6 24-22.1 4-8.4 3.8-24.2-.5-32-2-3.5-4.4-6.2-5.5-5.9-1.1.2-2-2.2-2-5.7 0-3.8-1.6-8.5-3.9-12.9l-13.8-15c-1.1-.5-2.1-.8-3.1-.8-2.6 0-1.5 1.8 4.6 7.5 4.4 4.2 6.4 6.4 4.4 5.1-2-1.5-4-2.9-4.6-3.5-2.4-2.4-9.3-5.5-8.2-3.8.5 1.1.4 2-.5 2s-2.6-2-3.7-4.4-4.8-6.4-8.1-9c-6.4-4.9-19.9-7.5-26.2-5.1-2 .7-5.5 2-7.7 2.9-2.4.7-4.2 2.4-4.2 3.7s-1.1 2.9-2.2 3.3c-1.3.5.4 1.1 3.7 1.1 3.3.2 7.9 1.1 10.1 2.2 3.8 1.6 3.8 1.6.7-.9-5.9-4.6 16.5-2.6 24.3 2.4 8.1 4.9 6.6 4.9-4.4 0-4.8-2-10.4-3.5-12.6-3.1-3.5.5-3.1 1.1 3.1 4.4 4.4 2.4 6.4 4.4 5.1 5.1s-4-.4-6.2-2.6c-2.6-2.4-4.4-2.9-5.3-1.6-.7 1.5-2.9 1.1-6.8-.9-10.9-5.7-24.3-2.5-33.2 5.9l-6 7.7C96.1 85 95 88 94.4 91.2c-1.8 10.1.7 9.7 10.4-1.1 4.4-4.9 7.3-7.1 6.6-5.3-.9 2.9-.5 3.3 2.4 2.2 7.1-2.9 15.7-4.9 16.8-4 .5.5-.4 1.1-2 1.1s-2.9.9-2.6 2.2c.4 2.2-1.1 2.6-14.6 3.5-3.3.2-6.2 1.3-6.8 2.6-.5 1.6 1.3 1.6 7.7 0 7-1.8 10.1-1.6 16.5.5 4.4 1.5 8.2 2.2 8.8 1.6.5-.5-1.5-1.5-4.6-2.2-5.9-1.3-7.9-4.6-2.7-4.6 2.6 0 10.1 6.8 16.8 15.4 4.4 5.5 7.1 3.5 6.8-4.9-.2-4.2.5-8.4 1.6-9.1 1.3-1.1 1.1-1.3-.7-.7-2.9.9-7.9-3.1-6-4.8 1.8-1.8-1.5-8.6-4.2-8.6-1.5 0-2.2-.9-1.6-1.8 1.3-2 10.6 2.6 14.3 7.1 1.8 2 1.5 2.4-2 1.3-2.9-.9-4-.5-4 1.3 0 1.6 1.5 2.4 4.2 1.8 4-.9 4-.5 3.7 12.3M77.5 213.1l-.3 10c1.2-4.6 1.2-7.1.3-10m15.4-41.8c-.9-.5-1.6.2-1.6 1.5s-1.8 4.8-4 7.9c-4.6 6-6.8 17.7-4.9 25.1 1.3 5.1 4.8 6.6 4.8 1.8 0-2 1.1-2.6 3.7-1.6 2 .7 3.7.4 3.7-.7 0-.7-.3-1.4-.8-1.7l4-1.9c2.2-1.1 4-2.7 4-3.5 0-.7 1.6-2.4 3.7-3.7 3.3-2 3.5-1.8 1.5 2.4-1.1 2.6-2.7 4.6-3.5 4.6-.7 0-3.8 2-6.8 4.6-3.1 2.6-5.9 4-6.2 3.3-.5-.9-.5-.4-.4.9.4 1.3-.9 4.9-2.9 8.2-2 3.1-3.7 7.7-3.7 10.1 0 4 .2 4 5.5 1.3 3.5-1.8 5.5-4.4 5.7-7 0-2.2.7-5.7 1.6-7.7 1.1-2.4 1.3-.5.5 5.3-.9 7.1-.5 8.8 1.5 8.1 1.5-.4 3.5-3.7 4.8-7.1 1.8-4.9 2.2-5.3 2.2-2 .2 4 .9 3.7 10.6-4.6 5.7-4.8 11.7-12.1 13.5-16.1 3.7-7.9 4.6-22 1.6-23.8-1.1-.7-1.3-2-.7-3.1.7-1.3.4-1.5-.7-.7-1.3.7-1.8 4.2-1.5 8.1.4 3.7.2 4.9-.2 2.6-.5-2.4-1.6-3.7-2.7-2.9-1.5.9-1.6.2-.9-1.8s.5-2.7-.7-2c-1.1.7-1.5 2.2-1.1 3.5.5 1.1.2 5.3-.5 9.3-.7 4.2-1.5 5.5-1.6 3.1 0-2.4-1.3-5.5-2.7-7-2.4-2.2-3.1-1.8-6.4 2.2-2.2 2.7-3.8 3.8-3.8 2.7 0-1.3 4.6-6.4 10.2-11.7 11.2-10.4 15.4-18.3 15.4-28.9 0-3.8-.5-7.3-1.3-7.7-3.1-1.6-9 7.5-11 17l-2.2 10.1.9-11 .9-11-3.5 6.2c-1.8 3.5-4.6 6.4-6.2 6.8-1.5.2-5.7 3.3-9.3 7.1-3.9 3.4-7.6 5.9-8.5 5.4m9.5-9.9c.7-2 3.1-4.2 5.5-4.8 2.2-.5 5.1-3.1 6.2-5.7 2.6-5.7 2.4-5.7-3.1 0-2.4 2.6-5.3 4.6-6.6 4.6s-2.7 1.8-3.3 4c-1.4 5.2-.1 6.7 1.3 1.9m18.5 54.4c-1.5-2.2-6.4 1.3-6.4 4.4 0 1.3.7 1.3 2.2-.2 2.9-2.9 5.1-2.7 5.1.4 0 4.8 3.7 5.1 5.3.7 1.3-3.1 1.8-3.5 1.8-1.1.4 6 3.8 3.3 3.8-2.9 0-3.3-1.1-7.1-2.6-8.2-2.2-1.8-2.6-1.6-1.8 1.1 1.2 3.7-5.6 8.9-7.4 5.8m22-108.2c.7.7 1.1 0 .5-1.5-.5-1.5-2.2-2.6-3.7-2.6-1.8.2-2.6-.9-2-3.1 1.3-4.6-1.6-4.4-5.9.2-1.8 2-4.2 3.7-5.1 3.7-1.1 0-.2-2 2.2-4.4l4-4.2-7-1.3c-9.3-1.5-11.2-1.3-19.9 2.4-10.6 4.2-12.4 5.7-17.9 13.7-3.5 5.1-4.8 9.5-4.8 15.9 0 11.2 3.7 14.1 3.8 3.1.2-6 .5-6.8 1.5-3.3.7 3.3 2.2 4.6 5.3 4.4 4.4-.2 5.3 2 1.6 4.2-1.3.7-4.8 4.6-7.5 8.2-6.2 8.4-8.8 26.5-4.2 30.4 2.2 1.8 2.9 1.3 4.9-3.3 1.3-2.9 2.9-5.1 3.7-4.6.9.5 1.1-.7.5-2.6-.9-3.7 2.9-24.9 4.2-23.4.4.4 0 4.9-1.1 10.1-1.1 5.9-1.1 11.2 0 13.5 1.1 3.1 1.6 3.3 1.6 1.1.2-4.6 4.2-12.4 5.7-11.5.9.5 3.8-1.8 6.8-5.1s6.2-5.9 7.3-5.5c2.7.9 16.7-14.8 18.1-20.5 1.3-5.5-.5-8.4-2.9-4.6-1.3 2-1.8 2.2-1.8.4 0-4-3.5-.5-8.4 8.4-2.6 4.8-4 7-3.5 4.9 4.4-13.7 2.7-17.2-5.7-12.8-2.9 1.5-4 2.7-2.4 2.7 1.5 0 3.7-.9 4.9-2.2 1.6-1.6 2.2-1.6 2.2-.2 0 2.4-3.3 4.8-7.3 5.5-1.5.2-4.8 2.7-7.1 5.5-2.7 3.1-4 3.8-3.3 1.8.7-1.8.5-2.9-.4-2.4-2.2 1.5-.5-4.4 2.2-8.2 2.6-3.5 17.6-9 24.3-9 2.6 0 7-1.3 9.7-2.7 3.2-1.3 6.1-1.8 6.9-1.1m64.6 69c6-7.9 6.8-9.9 6.8-19.8 0-6.8-.9-11.3-2.2-11.7-1.3-.5-1.6.5-1.1 3.1.5 2 .4 3.7-.5 3.5-4.9-.9-6.2.7-6.2 7.5 0 4-.7 7.3-1.6 7.3s-1.5-2.2-1.3-5.1c0-2.7-.5-5.1-1.6-5.5-.9-.2-1.8.4-1.8 1.5 0 2.4-3.8 6.6-16.3 17.2-11.7 10.2-17.6 20.9-17.6 31.8 0 10.2 3.7 11.9 3.8 1.8.2-5.1.5-6.2 1.1-2.9.9 6 4.9 7.7 8.2 3.7 2.2-2.7 2-2.9-.7-.7-2.9 2.2-3.1 1.8-2-4.6 1.3-9.7 4.4-21.2 5.1-20.3.5.4 0 3.7-.9 7.1-1.1 3.3-1.8 8.2-1.8 10.8l.2 4.6 4.8-5.5c4.2-4.8 4.6-4.9 3.3-1.1-1.1 3.8-.9 4 3.1 1.8 5.7-3.1 9-7.7 6.6-9.1-3.1-2 .4-5.7 4.2-4.8 2 .5 3.1.4 2.6-.5-.6-.8 1.9-5.3 5.8-10.1m283.9-1.8c8.6-5.7 13.4-14.5 13.4-25.3.2-9.1-2.4-17.2-4.6-14.8-.7.5-.9 5.3-.5 10.4.2 5.3 0 6.4-.4 2.6-.4-3.7-1.5-6.8-2.2-6.8-1.8 0-3.8 6.6-3.8 13 0 4.8-4.8 18.1-6.4 18.1-.4 0 .5-4.2 2-9.3 1.6-5.3 2.4-11 2-12.8-.5-2-.2-4 .7-4.6.9-.5 1.6-1.8 1.6-3.1 0-1.1-2.9.7-6.4 4.2s-6.4 7.5-6.4 9.1-2.4 4.2-5.3 6c-6.6 3.8-7.5 3.8-7.5.2 0-1.5-.7-2.4-1.8-1.6-.9.5-1.3 2.2-.7 3.5.5 1.6-.7 3.1-3.3 3.8-6.8 2.2-14.1 8.1-17 13.9l-2.7 5.3 5.5-.5c3.7-.5 7.7-2.9 11.2-7l5.7-6.2-3.8 5.9c-4.8 7-4.8 7.7-.4 6.6 2-.5 3.8.2 4.4 1.6.4 1.3.5.9.2-.9-.4-2.4.4-3.1 2.2-2.4 1.5.5 5.9-.2 9.5-1.8 4.4-1.8 7-2 7.3-.7.4.9 1.5 1.8 2.4 1.8.7 0 1.1-1.1.7-2.4-.7-1.1 1.5-3.8 4.4-5.8M340.1 129c7.9-2 14.3-5.1 18.1-8.4 5.5-5.3 6-9.9.5-5.3-2.4 2-2.6 1.8-1.6-.7 1.6-4.4-1.3-3.5-9 2.7-7.1 5.9-9.3 6-2.9 0l3.8-3.5-3.8-3.8c-2.4-2.4-4.9-3.3-7-2.6-2.4.7-2.7.5-1.5-.9 2.7-2.9 9.5-3.1 18.3-.7 4 1.3 9.7 2.2 12.4 2.2 7 0 15.9-4.9 15.9-8.8 0-2.6-.4-2.6-1.6-.5-1.5 2.2-2.2 2.2-4.6-.2-2.6-2.6-3.8-2.7-11.3-.4-4.8 1.5-9 2.2-9.5 1.6-.4-.4 3.1-1.6 7.9-2.9 4.8-1.1 9-3.3 9.5-4.6.7-1.8 3.3-1.1 10.4 2.9 9.7 5.5 18.3 7 20.3 3.7.7-1.1 2-1.3 3.1-.7 1.1.7 1.5.5.9-.5-.5-.9-3.8-1.5-7.1-1.3-3.3.4-4.6.2-2.7-.4 1.6-.5 3.1-1.8 3.1-2.7 0-1.1.9-1.3 2.2-.5 1.5.9 1.6.4.9-1.6-.5-1.8-.4-3.1.5-3.1s2 1.5 2.6 3.1c2.9 9.1 16.1 18.3 21.4 15.2 1.8-1.3 1.5-2-2-3.7l-4.6-2 4.6.9 4.6.9-4.9-4c-2.7-2.2-7.3-6-10.1-8.2l-5.1-4.4 7.1 4.2c5.1 2.9 7.5 3.5 8.1 2 .4-1.3 1.6-1.6 2.7-.9 1.3.5 1.5.4.7-.5-.9-.9-2.2-1.6-2.9-1.6-.5 0-3.7-2.4-6.6-5.3-3.1-2.9-4-4.4-2.2-3.1 3.8 3.1 3.8 2.2 0-7.5-3.7-9.1-8.1-14.3-17-19.6-7.3-4.4-18.1-4.8-26.9-.9-7 2.9-7.5 5.3-2.6 8.1 5.3 2.7 7 2.2 2.7-1.1-3.3-2.7-3.3-2.7.5-.9 2.2 1.1 7.5 2 11.9 2 7.5 0 22.7 3.3 21.2 4.6-.2.2-5.3-.2-11.3-1.1-5.9-.9-11.2-1.5-11.5-.9-.5.5 1.6 2.6 4.9 4.4 3.1 2 5.7 4.4 5.7 5.1-.2.9 1.8 3.8 4.4 6.6 5.5 5.7 5.7 7 1.1 7-1.8 0-6.6-3.3-10.4-7.3-4-4-8.2-7.3-9.5-7.3-1.8 0-1.8-.9-.2-3.8 1.6-3.3 1.5-3.7-1.5-2.7-1.8.5-5.7-.2-8.6-1.6-11.9-6.2-35.7 3.3-40.1 15.9-1.5 4.4-.4 4.2 4.4-.9 2.2-2.2 3.5-2.9 2.7-1.8-1.1 1.8 2 2.4 13 2.4 8.1 0 13.2.7 11.9 1.5-3.3 2.2 8.2 5.7 25.3 7.7l13.7 1.6-14.1-.7c-11.7-.7-14.5-.4-15.7 2.2-1.1 1.6-2.6 2.4-4 1.5-1.6-1.1-1.6-1.6 0-2.7 1.3-.7 0-1.5-3.1-1.5-2.7-.2-11.2-1.3-18.7-2.6-13.2-2.2-13.7-2-22 2.4-6 3.5-9.9 7.3-13.5 14.1-2.9 5.3-4.6 10.2-4 11.3 1.5 2.2 10.2 2.4 9.7.2-1.1-3.7 16.1-24 19.9-24 1.1 0-2.2 4-7 9-8.8 8.6-13 16.8-4.9 9.3 2.2-2 5.3-3.7 6.8-3.7 2.2 0 2.2.4-.4 2.2-2.7 2-2.2 2.4 3.5 2.7 7.7.4 9.9 1.8 6.2 4.2-1.6 1.1-3.1.9-3.8-.4-.7-1.1-3.3-1.5-6.4-.7-2.9.7-6.6 1.5-8.1 1.8-15.6 3.3-28.7 22-26 36.8.5 3.7 7.7 6 7.7 2.6 0-.9-.7-1.6-1.8-1.6-.9 0-1.6-3.1-1.6-7l.4-6.8 1.1 6.4 1.3 6.4 2.6-5.5c1.3-3.1 4.2-9.9 6.6-15.2 2.4-5.1 4.6-9.5 5.1-9.5s-.9 4.4-3.3 9.5c-2.4 5.3-3.8 10.8-3.5 11.9.5 1.3 0 2.4-1.1 2.4s-2 .7-2 1.8c0 .9 1.8 1.5 4.2 1.1 2.7-.4 4.2-2 4.4-4.9.4-4 .4-4-1.1-.7-1.3 2.6-1.8 2.7-1.8.9-.2-1.6 1.5-4.2 3.3-5.9 3.3-2.7 3.7-2.7 5.5 1.1 1.1 2 1.6 2.4 1.3.7-1.3-4.7 1.5-6.3 15.9-10.2M386 70.5c4.2 3.3 6.6 3.5 6.6.7 0-.9-.7-1.5-1.6-.7-.9.5-2.2.2-2.9-.9-.5-.9-2.2-1.8-3.3-1.8-1.3-.1-.6 1.2 1.2 2.7m102.9 64.9c-.5 0-1.8-4.8-2.9-10.6-1.3-5.7-2.7-11.2-3.1-12.1-1.6-2.4-4.2 2.9-4.2 8.6 0 2.9-.7 4.8-1.5 4.2-.9-.5-2.7 1.3-4.2 4-1.5 2.6-5.3 7.3-8.6 10.2-10.1 8.8-16.1 24.7-8.8 23.4 2.2-.4 2.9.2 2 1.8-.9 1.3.2.7 2.2-1.3 2-2.2 4.9-8.8 6.6-14.6 1.8-7 2.7-8.4 2-4-.5 3.8-1.5 8.2-2 9.7s.2 2.6 1.8 2.6 3.5-1.8 4-3.8c.9-2.6 1.8-3.3 2.6-1.8 1.6 2.6 14.1-9.7 19-18.5 5.7-10.8 2.9-27.3-5.9-36-2.2-2.2-4.9-3.8-6-3.8-1.6 0-1.8.4-.4 1.5 1.1.7 3.8 4.9 6 9.5s2.7 6.6 1.1 4.8c-1.5-2-2.7-4.4-2.7-5.5 0-1.3-.5-1.3-1.8 0s-1.1 4.2.5 9.1c2.8 7.6 5.6 22.6 4.3 22.6m-12.5 20.2c-1.6 0-4 1.3-5.3 3.1-2.4 2.7-2.2 2.7 2 .5 2.6-1.3 4.9-2.6 5.3-2.9.4-.4-.5-.7-2-.7m-8-24.4c.4.4 2.7-3.5 5.5-8.6 2.7-4.9 4.4-9.1 3.5-9.1-1.5 0-9.9 16.8-9 17.7M479 90.4c-1.1.5-2.4-1.3-3.1-4.2-1.5-6.8-10.4-16.3-18.5-19.6-7.1-2.9-8.1-3.1-8.1-.9 0 .9 2.7 2.9 6.2 4.6 3.3 1.5 7.1 4.2 8.6 6 2.4 2.9 2.4 2.9-2 0-8.6-5.9-10.4-2-2.6 5.1 2.7 2.6 4.2 4.6 3.1 4.6-.9 0-3.5-1.6-5.5-3.7-3.3-2.9-4-3.1-4.9-.9-1.3 3.7.7 8.4 2.9 7.1 1.1-.7.9-1.8-.5-2.9-2-1.5-2-1.6.2-.9 3.7.9 4.8 10.4 1.3 10.4-1.5 0-3.3 1.3-3.8 2.9-1.8 4.8-1.3 5.3 1.6 1.5 2.6-3.3 2.6-3.1 2.7 2.2 0 3.3-1.6 9.3-3.7 13.7-4.9 11-4.8 22 .4 26.5 2.2 1.8 3.3 2.6 2.7 1.5-.7-1.3 0-3.1 1.5-4.4 1.6-1.5 2.4-4.9 2-10.6-.4-4.8-.2-5.9.2-2.7.4 3.3 1.3 6 2 6 3.1 0 11.3-15.9 13.4-25.4 1.3-5.7 2.9-11.7 4-13.7 1.2-2.2 1.2-2.9-.1-2.2m-32-23c-.2-1.6-.5-2.7-1.1-2.4-.4.5-2-.7-3.3-2.7-1.5-2-5.9-5.3-9.7-7.3-7.3-3.8-20.9-4.9-22.9-2-.5.9 1.1 3.3 3.7 5.5 2.7 2 4.8 4.2 4.8 5.1-.2 3.3 2 7.9 3.8 7.9 1.3 0 1.3-.7-.2-2.4-1.1-1.5-1.5-3.1-.7-3.7.5-.7.4-1.3-.7-1.3-.9 0-1.8-1.1-1.8-2.6 0-2.2.9-2 4.2.4 3.1 2.4 3.5 3.3 1.5 4-1.8.7.4 3.8 7.5 10.8 5.7 5.5 11.2 11.5 12.3 13.7s-2.2-.5-7.3-5.9c-5.1-5.5-10.2-9.3-11.2-8.6-1.3.7-1.5-.2-.7-2.2.7-2.4.5-2.7-1.1-1.3-2.6 2.4-.5 8.6 2.6 7.5 2.9-1.3 7.9 10.1 6.4 14.5-1.6 4.4 1.1 16.1 4.8 22 2.9 4.4 11.7 6.2 11.7 2.6 0-1.1-1.3-1.8-2.9-1.5s-4.2-1.5-5.7-4l-2.7-4.6 3.5 4.4c5.9 7 7.1 1.1 1.6-7.1-2.6-4-4.8-7.9-4.8-8.6 0-.9 1.8 1.3 3.8 4.4 2.2 3.3 4.6 6 5.5 6 2.4 0 2-8.1-.5-11-2-2.2-1.8-2.2.5-.4 2.6 1.8 3.1 1.6 4-1.3.4-2 .2-4.2-.7-5.1-1.7-1.4-2.6-7.1-4.2-22.8m-.5 80.5-1.5 18.5c1.7-5.4 2.3-13 1.5-18.5m-88.8 54.2 4.6 2.9 55.2-11.2 17.9-15.1 4.5-7.6 2.3-28.8-2.3-7.8-10.9-14.8-18.7-11.4-14.7 1.2-19 6.1-16.5 21.6-5.2 41.7zm2.6-73c-.4.4-.7.9-1 1.3zm-.9 79.7-4.3-2.7c-.5 4.6 0 4.8 4.3 2.7m-83.8 14.6c6.4.1 11.9-2.6 13.8-6.6zM146.5 112.3c-1.4.6-2.7 1.9-3.5 3.5zm12.6 25c-1.5-12.6-3.3-19.4-6-22.8zm-4.9 103.5c2.4-3.1 3.9-7.7 4.3-13.5zM360 398c.3.8.9 1 2.1.6zm12-131.5c-11 .7-15.8 3-17.7 8.5zm-4.1-196.4c-4 0-5.5.4-3.1.7 2.2.4 5.5.4 7.3 0 1.7-.5-.1-.9-4.2-.7m-14.6-4.2c-.9 0-4.2 1.6-7.3 3.7-7.1 4.8-4.6 4.8 3.1 0 3.3-2 5.3-3.7 4.2-3.7M103.7 189.6c-.7-.5-2.6 1.1-3.8 3.5-3.8 7.1-5.5 5.5-4.2-4.2.5-4.8.5-8.2 0-7.7-1.8 1.8-4.4 22-2.7 22 .2 0 .5.1.7.3l3.5-3.5c6.7-7.1 8.2-9.5 6.5-10.4m383.7-38.8c-.5-.4-1.8.4-2.9 1.5-1.3 1.3-2.2 3.3-2.2 4.8s-1.8 5.7-4 9.1c-2.2 3.7-2.9 5.9-1.8 5.1 2.5-1.5 11.8-19.4 10.9-20.5M98.8 109.1c-3.8 9.1-5.7 22-2.9 20.1 1.1-.7 1.6-2.4 1.1-3.7s.7-6.8 2.7-12.1c4.4-11.3 3.5-14.9-.9-4.3m214.6-5.3c-.7.5-1.3 3.3-1.1 5.9.2 4.8.2 4.6 1.8-.5 1.7-5.8 1.3-7.6-.7-5.4m-199.8 87.6c3.1-5.9 2.7-7.7-.5-4.4-1.3 1.3-2.2 3.8-2.2 5.9 0 3.1.5 2.9 2.7-1.5m213.2-66.9c-.9 0-2.7 1.8-3.8 4-2.2 4.2-2.2 4.2 1.8.7 4.2-3.8 4.7-4.7 2-4.7m22.8-31.2c-.9 0-5.1 2-9.1 4.6-4 2.4-6.4 4.4-5.5 4.4 1.1 0 5.1-2 9.1-4.4 4.1-2.5 6.6-4.6 5.5-4.6m-156.8 4.1c.5-1.6-4.8-15-6-15-.4 0 .7 3.7 2.4 8.2 1.6 4.8 3.3 7.7 3.6 6.8m220.9 298.8c1.6-3.7 2.7-7 2.4-7.5-.5-.4-2.2 2.4-4 5.9-1.6 3.7-2.7 7-2.4 7.5.5.3 2.1-2.5 4-5.9m.5 22.8c-.4 0-2 2.7-3.8 6l-3.1 5.9 3.7-4.4c3-3.6 4.7-7.5 3.2-7.5m-26.1 18.3c2.7 0 11.3-6 13.4-9.3 2.7-4.4 2.7-4.4-6.6 3.1-4.5 3.5-7.6 6.2-6.8 6.2M62.2 301.9c-.9.2-3.8 1.5-6.6 2.9-7.1 3.8-6.4 5.1.9 1.5 6.8-3.4 8.1-4.4 5.7-4.4M430.7 57.5c-.5-.4-4.8-1.5-9.5-2.4-5.9-1.1-8.1-.9-7 .2s5.3 2.2 9.5 2.4c4.2.3 7.4.3 7-.2M114.5 450.1c-2.6-.7-6.2-1.5-8.2-1.5-2.9 0-2.7.4.9 1.5 2.6.7 6.2 1.5 8.2 1.5 3 0 2.8-.4-.9-1.5M327.1 409c-.2 6.8 2.4 18.3 3.5 15.6.5-1.5 0-6.4-1.3-11-1.1-4.6-2.2-6.6-2.2-4.6m76.1-105.6c1.1-4.2 1.6-8.1 1.3-8.4-.4-.4-1.6 2.7-2.7 7-1.1 4.2-1.6 8.1-1.3 8.4.4.5 1.6-2.6 2.7-7m19.6 38.2c1.5 0 2.7-1.6 2.7-3.5 0-3.8-.2-4-3.1-.5-3.1 3.3-2.9 4 .4 4m-22.7 37.9c2.4-1.5 7.3-13.7 6.8-16.7-.4-1.5-2.4 2-4.6 7.7-2 5.5-3.1 9.6-2.2 9M142 413.6c-3.7 1.1-3.8 1.5-.9 1.5 2 0 5.3-.5 7.3-1.5 4.5-2.1-.2-2.1-6.4 0M434.4 68.8l-6-3.5 6.4 5.7c3.5 3.1 7.1 5.7 8.1 5.9 2.6 0-2.1-4.4-8.5-8.1M121.3 438.4c-3.1-2.2-5.9-4.8-5.9-5.7.2-1.8-8.8-10.1-10.8-10.1-.5 0-1.1.9-1.1 2 0 .9.7 1.5 1.6.7.9-.5 2.2-.2 2.7.7s-.2 2.2-1.8 2.7c-2.6.9-2.2 1.8 1.8 4.9 2.6 2 4.8 4.9 4.8 6.4 0 3.8 9 7 12.1 4.2 2.1-1.4 1.5-2.5-3.4-5.8m-71.4-11.3c-2.7-2.4-6.2-7-7.7-9.9-3.1-6-5.1-7.3-3.3-2.4 1.6 4.9 13.5 19.2 14.8 17.9.6-.5-1-3-3.8-5.6m.9-14.8c-2.2.2-3.3 1.1-2.7 2.6 1.1 2.9 4.6 2.4 5.7-.9.3-1.2-1.1-1.9-3-1.7m27.7 22.8c.2-.4-3.1-4.2-7.5-8.8l-7.9-8.2 3.8 7c3.5 5.8 10.7 12.1 11.6 10m58.9-.9c-4.9 0-7 .4-4 .7 2.7.4 6.8.4 9.1 0 2.2-.3 0-.7-5.1-.7m57.4-44.8c3.5-4.4 10.1-19.8 8.4-19.8-.4 0-2.9 4.8-5.7 10.4-7.1 14.9-7.1 14.9-2.7 9.4m-1.8-42.6c-.5-.4-2.6 4-4.8 9.5-2.4 5.7-3.8 10.6-3.5 11 .4.4 2.6-3.8 4.8-9.5s3.9-10.7 3.5-11M69.7 409.9c-2.6-4.9-4.6-7-4.6-4.6 0 .4 1.6 3.5 3.7 6.8 4.2 7.1 4.9 5.5.9-2.2" style="fill:#0e474b"/></svg>