<?xml version="1.0" encoding="utf-8"?>
<!-- Generator: Adobe Illustrator 28.2.0, SVG Export Plug-In . SVG Version: 6.00 Build 0)  -->
<svg version="1.1" id="Layer_1" xmlns="http://www.w3.org/2000/svg" xmlns:xlink="http://www.w3.org/1999/xlink" x="0px" y="0px"
	 viewBox="0 0 512 512" style="enable-background:new 0 0 512 512;" xml:space="preserve">
<path d="M330.3,165.2h-55.5v184.9h57.4c61.8,0,99.5-32,99.5-93.2S394.1,165.2,330.3,165.2z M327.9,323.5h-16.2V191.8h16.2
	c41.8,0,65.9,19.7,65.9,65.1C393.8,302.4,369.8,323.5,327.9,323.5z M450.9,0H61.1C27.4,0,0,27.4,0,61.1v389.8
	C0,484.6,27.4,512,61.1,512h389.8c33.7,0,61.1-27.4,61.1-61.1V61.1C512,27.4,484.6,0,450.9,0z M465.3,348c0,22.1-17.9,40-40,40H86.7
	c-22.1,0-40-17.9-40-40V164c0-22.1,17.9-40,40-40h338.6c22.1,0,40,17.9,40,40V348z M196.5,165.2h37v184.9h-37v-80.3H121v80.3H84.1
	V165.2H121v74.9h75.5V165.2z"/>
</svg>
