<?xml version="1.0" encoding="utf-8"?>
<!-- Generator: Adobe Illustrator 28.2.0, SVG Export Plug-In . SVG Version: 6.00 Build 0)  -->
<svg version="1.1"
	 id="svg2" xmlns:inkscape="http://www.inkscape.org/namespaces/inkscape" xmlns:cc="http://creativecommons.org/ns#" xmlns:dc="http://purl.org/dc/elements/1.1/" xmlns:svg="http://www.w3.org/2000/svg" xmlns:sodipodi="http://sodipodi.sourceforge.net/DTD/sodipodi-0.dtd" xmlns:rdf="http://www.w3.org/1999/02/22-rdf-syntax-ns#" inkscape:export-filename="/home/cepe/favicon.png" inkscape:export-xdpi="90"
	 xmlns="http://www.w3.org/2000/svg" xmlns:xlink="http://www.w3.org/1999/xlink" x="0px" y="0px" viewBox="0 0 512 512"
	 style="enable-background:new 0 0 512 512;" xml:space="preserve">
<style type="text/css">
	.st0{fill-rule:evenodd;clip-rule:evenodd;}
</style>
<sodipodi:namedview  bordercolor="#666666" borderopacity="1.0" id="base" inkscape:current-layer="layer1" inkscape:cx="183.77127" inkscape:cy="-36.769465" inkscape:document-units="px" inkscape:pageopacity="0.0" inkscape:pageshadow="2" inkscape:window-height="1134" inkscape:window-maximized="1" inkscape:window-width="1920" inkscape:window-x="1440" inkscape:window-y="27" inkscape:zoom="1" pagecolor="#ffffff" showgrid="false" units="px">
	</sodipodi:namedview>
<g id="layer1" transform="translate(0,-652.36216)" inkscape:groupmode="layer" inkscape:label="Layer 1">
	<g>
		
			<path id="path4136_00000020382187115720651110000018359078878299824054_" inkscape:connector-curvature="0" sodipodi:nodetypes="cccccccccc" class="st0" d="
			M309.2,899.8h-45.3l41.4,246.7h46.1l24-142.8h70.1l4.9-46.7H335.9l-7.5,44.6L309.2,899.8z"/>
		<path d="M364.1,1161.5h-71.5l-46.4-276.7h75.5l10.8,57.2h134.6l-8,76.7h-70.9L364.1,1161.5z M318,1131.5h20.7l24-142.8H432
			l1.8-16.7h-85.2l-5.4,32.1l-29.5,0.3l-16.9-89.6h-15.1L318,1131.5z"/>
	</g>
	<g>
		
			<path id="path4176_00000001637107568060956060000009602201405027771820_" inkscape:connector-curvature="0" sodipodi:nodetypes="cccccccccccc" class="st0" d="
			M218.9,670.3l-47.6,283.1H68.6l-7,46.7h74.3l14.4,85.9h46.1l20.7-115.8l22.8-135.4l52.7-0.1L265,670.3H218.9z"/>
		<path d="M209,1101h-71.4l-14.4-85.9h-79l11.5-76.7h102.9l47.6-283.1h71.5l32.6,194.4l-57.7,0.1l-20.7,123.1L209,1101z M163,1071
			h20.8l18.5-103.4l24.9-147.8l47.7-0.1l-22.6-134.4h-20.7L184,968.4H81.5L79,985.1h69.6L163,1071z"/>
	</g>
</g>
</svg>
