<?xml version="1.0" encoding="utf-8"?>
<!-- Generator: Adobe Illustrator 28.2.0, SVG Export Plug-In . SVG Version: 6.00 Build 0)  -->
<svg version="1.1" id="Layer_1" xmlns="http://www.w3.org/2000/svg" xmlns:xlink="http://www.w3.org/1999/xlink" x="0px" y="0px"
	 viewBox="0 0 512 512" style="enable-background:new 0 0 512 512;" xml:space="preserve">
<g>
	<path d="M486.1,282l25.9-25.9l-25.9-25.9l19.5-31l-31-19.5l12.1-34.6L452,132.9l4.1-36.4l-36.4-4.1L415.6,56l-36.4,4l-12.1-34.6
		l-34.6,12.1L313,6.5L282,26L256,0.1L230.1,26L199,6.5l-19.5,31l-34.6-12.1L132.8,60l-36.4-4.1l-4.1,36.4l-36.4,4.1l4.1,36.4
		L25.4,145l12.1,34.6l-31,19.5l19.5,31l-26,26L25.9,282L6.4,313l31,19.5l-12.1,34.6L60,379.3l-4.1,36.4l36.4,4.1l4.1,36.4l36.4-4.1
		l12.1,34.6l34.6-12.1l19.5,31l31-19.5l25.9,25.7l0.1,0l-149.1-149c-17.7-16.5-28.8-40.1-28.8-66.3c0-50.1,40.6-90.7,90.7-90.7
		c27.2,0,51.6,12,68.2,31l19,19l23.1-23.1c16.4-16.3,38.9-26.3,63.8-26.3c50.1,0,90.7,40.6,90.7,90.7c0,27.6-13.6,51.8-31.8,68.9
		L268.9,498.9l12.9-12.8l31,19.5l19.5-31l34.6,12.1l12.1-34.6l36.4,4.1l4.1-36.4l36.4-4.1l-4.1-36.4l34.6-12.1l-12.1-34.6l31-19.5
		L486.1,282z"/>
	<g>
		<path d="M205.8,309.5c-10.9,0-19.8,8.8-19.8,19.8c0,10.9,8.9,19.8,19.8,19.8c10.9,0,19.8-8.8,19.8-19.8S216.7,309.5,205.8,309.5z
			 M213.3,331.8c-3,0-5.5-2.5-5.5-5.5s2.5-5.5,5.5-5.5c3.1,0,5.5,2.5,5.5,5.5S216.3,331.8,213.3,331.8z"/>
		<path d="M256,475.3c-9.7,0-19.1,3.9-26,10.8c0.1,14.2,11.7,25.8,25.9,25.8c14.3,0,25.9-11.5,26-25.8
			C275,479.2,265.7,475.3,256,475.3z"/>
	</g>
	<path d="M306.4,309.5c-10.9,0-19.8,8.9-19.8,19.8c0,10.9,8.8,19.8,19.8,19.8c10.9,0,19.8-8.8,19.8-19.8S317.3,309.4,306.4,309.5z
		 M313.9,331.8c-3,0-5.5-2.5-5.5-5.5s2.5-5.5,5.5-5.5c3.1,0,5.5,2.5,5.5,5.5S316.9,331.8,313.9,331.8z"/>
</g>
</svg>
