<svg xmlns="http://www.w3.org/2000/svg" xml:space="preserve" viewBox="0 0 512 512"><path d="m486.1 282 25.9-25.9-25.9-25.9 19.5-31-31-19.5 12.1-34.6-34.7-12.2 4.1-36.4-36.4-4.1-4.1-36.4-36.4 4-12.1-34.6-34.6 12.1-19.5-31L282 26 256 .1 230.1 26 199 6.5l-19.5 31-34.6-12.1L132.8 60l-36.4-4.1-4.1 36.4-36.4 4.1 4.1 36.4L25.4 145l12.1 34.6-31 19.5 19.5 31-26 26L25.9 282 6.4 313l31 19.5-12.1 34.6L60 379.3l-4.1 36.4 36.4 4.1 4.1 36.4 36.4-4.1 12.1 34.6 34.6-12.1 19.5 31 31-19.5 25.9 25.7 25.9-25.7 31 19.5 19.5-31 34.6 12.1 12.1-34.6 36.4 4.1 4.1-36.4 36.4-4.1-4.1-36.4 34.6-12.1-12.1-34.6 31-19.5z" style="fill:#b51f08"/><path d="M342.9 206.4c-24.9 0-47.4 10-63.8 26.3L256 255.8l-19-19 18.9 18.9.1 256.1L401.8 366c18.2-17.1 31.8-41.3 31.8-68.9 0-50.1-40.6-90.7-90.7-90.7" style="fill:#fdd49a"/><linearGradient id="hedgedoc_svg__a" x1="-105.313" x2="-102.718" y1="6.085" y2="6.085" gradientTransform="rotate(-64.537 -3148.751 -4889.2)scale(61.7694)" gradientUnits="userSpaceOnUse"><stop offset="0" style="stop-color:#fdd49a"/><stop offset="1" style="stop-color:#dca055"/></linearGradient><path d="M255.9 255.7 237 236.8c-16.6-19-41-31-68.2-31-50.1 0-90.7 40.6-90.7 90.7 0 26.2 11.1 49.8 28.8 66.3l149.1 149" style="fill:url(#hedgedoc_svg__a)"/><path d="M281.9 486.1c-6.9-6.9-16.2-10.8-25.9-10.8s-19.1 3.9-26 10.8c.1 14.2 11.7 25.8 25.9 25.8 14.3 0 25.9-11.5 26-25.8m-56.3-156.8c0 11-8.9 19.8-19.8 19.8s-19.8-8.9-19.8-19.8c0-11 8.9-19.8 19.8-19.8s19.8 8.8 19.8 19.8m100.6 0c0 11-8.9 19.8-19.8 19.8-11 0-19.8-8.9-19.8-19.8s8.9-19.8 19.8-19.8c10.9-.1 19.8 8.8 19.8 19.8" style="fill:#010007"/><path d="M218.8 326.3c0 3-2.5 5.5-5.5 5.5s-5.5-2.5-5.5-5.5 2.5-5.5 5.5-5.5c3.1 0 5.5 2.5 5.5 5.5m100.6 0c0 3-2.5 5.5-5.5 5.5s-5.5-2.5-5.5-5.5 2.5-5.5 5.5-5.5c3.1 0 5.5 2.5 5.5 5.5" style="fill:#fffffa"/></svg>