<?xml version="1.0" encoding="utf-8"?>
<!-- Generator: Adobe Illustrator 28.2.0, SVG Export Plug-In . SVG Version: 6.00 Build 0)  -->
<svg version="1.1" id="Layer_1" xmlns="http://www.w3.org/2000/svg" xmlns:xlink="http://www.w3.org/1999/xlink" x="0px" y="0px"
	 viewBox="0 0 512 512" style="enable-background:new 0 0 512 512;" xml:space="preserve">
<style type="text/css">
	.st0{fill:#B51F08;}
	.st1{fill:#FDD49A;}
	.st2{fill:url(#SVGID_1_);}
	.st3{fill:#010007;}
	.st4{fill:#FFFFFA;}
</style>
<path class="st0" d="M486.1,282l25.9-25.9l-25.9-25.9l19.5-31l-31-19.5l12.1-34.6L452,132.9l4.1-36.4l-36.4-4.1L415.6,56l-36.4,4
	l-12.1-34.6l-34.6,12.1L313,6.5L282,26L256,0.1L230.1,26L199,6.5l-19.5,31l-34.6-12.1L132.8,60l-36.4-4.1l-4.1,36.4l-36.4,4.1
	l4.1,36.4L25.4,145l12.1,34.6l-31,19.5l19.5,31l-26,26L25.9,282L6.4,313l31,19.5l-12.1,34.6L60,379.3l-4.1,36.4l36.4,4.1l4.1,36.4
	l36.4-4.1l12.1,34.6l34.6-12.1l19.5,31l31-19.5l25.9,25.7l25.9-25.7l31,19.5l19.5-31l34.6,12.1l12.1-34.6l36.4,4.1l4.1-36.4
	l36.4-4.1l-4.1-36.4l34.6-12.1l-12.1-34.6l31-19.5L486.1,282z"/>
<path class="st1" d="M342.9,206.4c-24.9,0-47.4,10-63.8,26.3L256,255.8l-19-19l18.9,18.9l0.1,256.1L401.8,366
	c18.2-17.1,31.8-41.3,31.8-68.9C433.6,247,393,206.4,342.9,206.4z"/>
<linearGradient id="SVGID_1_" gradientUnits="userSpaceOnUse" x1="-105.3128" y1="6.0849" x2="-102.7183" y2="6.0849" gradientTransform="matrix(26.5564 -55.7693 55.7693 26.5564 2619.2632 -5630.0864)">
	<stop  offset="0" style="stop-color:#FDD49A"/>
	<stop  offset="1" style="stop-color:#DCA055"/>
</linearGradient>
<path class="st2" d="M255.9,255.7L237,236.8c-16.6-19-41-31-68.2-31c-50.1,0-90.7,40.6-90.7,90.7c0,26.2,11.1,49.8,28.8,66.3
	l149.1,149"/>
<path class="st3" d="M281.9,486.1c-6.9-6.9-16.2-10.8-25.9-10.8c-9.7,0-19.1,3.9-26,10.8c0.1,14.2,11.7,25.8,25.9,25.8
	C270.2,511.9,281.8,500.4,281.9,486.1 M225.6,329.3c0,11-8.9,19.8-19.8,19.8s-19.8-8.9-19.8-19.8c0-11,8.9-19.8,19.8-19.8
	S225.6,318.3,225.6,329.3L225.6,329.3 M326.2,329.3c0,11-8.9,19.8-19.8,19.8c-11,0-19.8-8.9-19.8-19.8s8.9-19.8,19.8-19.8
	C317.3,309.4,326.2,318.3,326.2,329.3"/>
<path class="st4" d="M218.8,326.3c0,3-2.5,5.5-5.5,5.5l0,0c-3,0-5.5-2.5-5.5-5.5s2.5-5.5,5.5-5.5
	C216.4,320.8,218.8,323.3,218.8,326.3 M319.4,326.3c0,3-2.5,5.5-5.5,5.5s-5.5-2.5-5.5-5.5s2.5-5.5,5.5-5.5
	C317,320.8,319.4,323.3,319.4,326.3"/>
</svg>
