<?xml version="1.0" encoding="utf-8"?>
<!-- Generator: Adobe Illustrator 28.2.0, SVG Export Plug-In . SVG Version: 6.00 Build 0)  -->
<svg version="1.1" id="Layer_1" xmlns="http://www.w3.org/2000/svg" xmlns:xlink="http://www.w3.org/1999/xlink" x="0px" y="0px"
	 viewBox="0 0 512 512" style="enable-background:new 0 0 512 512;" xml:space="preserve">
<style type="text/css">
	.st0{fill:#FFFFFF;}
</style>
<g>
	<path class="st0" d="M141.8,121.6c-0.8-0.4-1.2-1.2-2-1.6C127,107.6,117,92.8,111,75.6c-1.6-4.8-2.8-9.6-2.8-14.8v-1.6
		c0.4-6.8,4.8-10,11.2-8.4c2,0.4,4,1.2,5.6,2.4c7.2,3.6,12.8,8.8,18,14.8c9.2,10,16.8,22,22,34.8c0,0.4,0.4,0.8,0.4,0.8
		s0.4,0.4,0.8,0.4c24.8-15.2,53.2-24.4,82.4-26c-0.4-0.8-0.4-1.6-0.4-2.4c-2.8-12.4-4-25.6-2.8-38.4c0.4-7.6,2-15.2,4.4-22.8
		c1.2-4,3.2-7.2,5.6-10.4c0.8-1.2,2-2,3.2-2.8c2.4-1.6,5.6-1.6,8,0c2.4,1.6,4.4,4,6,6.8c2.4,4.8,4.4,10,5.2,15.2
		c2.4,11.2,3.2,22.8,2,34.4c-0.4,6.8-1.6,14-3.6,20.8c7.2,1.2,14.4,2.4,21.6,4s14,3.6,20.8,6.4c6.8,2.4,13.6,5.6,20,8.8
		c6.4,3.2,12.4,7.2,18.8,10.8c0.4-0.4,0.4-0.8,0.8-1.6C365,88,376.6,71.2,391.8,58c3.6-3.2,7.6-5.6,12-7.2c1.2-0.4,2.4-0.8,3.6-0.8
		c6.4-0.8,9.2,3.2,9.6,8.4c0.4,3.6,0,7.2-0.8,10.8c-2.4,9.2-6,17.6-10.8,25.6c-6.8,11.6-15.2,21.6-25.6,30c-0.4,0.4-0.8,0.4-1.2,1.2
		c10,9.6,19.2,20.4,27.2,32c-0.8,0-1.2,0.4-1.6,0.4h-32.4c-1.2,0-2.4-0.8-3.2-1.6c-23.6-26.4-55.2-43.2-89.6-48.4
		c-10-1.6-20.4-2-30.8-1.2c-30.4,2-60,13.6-83.6,33.2c-6,4.8-12,10.4-17.2,16.4c-0.8,1.2-2.4,2-4,2h-33.2c0.8-2.4,6.8-11.2,14-19.2
		C130.2,133.2,135.8,127.6,141.8,121.6z M403.4,357.1c-7.2,10.4-15.2,19.6-24.4,28.4c0.8,0.8,1.2,1.2,2,1.6
		c15.6,13.2,27.6,30.4,34.4,50c1.6,4.8,2.4,10,2.4,14.8c0,1.2-0.4,2.4-0.8,4c-1.2,3.6-4.8,6-8.4,5.2c-2.4-0.4-4.8-1.2-6.8-2
		c-3.2-1.6-6.4-3.6-9.2-6c-15.2-12.8-26.8-29.6-33.6-48.4c-0.4-0.4-0.4-1.2-0.8-2c-8,5.6-16.4,10.4-25.2,14.4c-8.8,4-18,7.6-27.2,10
		c-9.6,2.4-18.8,4.4-28.8,5.6c0.4,0.8,0.4,1.6,0.4,2.4c3.2,12.4,4,25.2,3.2,38c-0.4,8-2,15.6-4.4,23.2c-1.2,3.2-2.8,6-4.4,9.2
		c-0.8,1.2-1.6,2-2.4,3.2c-4,4.4-8.8,4.4-12.8,0c-1.6-1.6-2.8-3.6-4-6c-3.2-6-4.8-12.4-6-19.2c-1.6-9.2-2-18.4-1.6-27.6
		c0.4-6.8,1.2-13.6,2.8-20c0-0.4,0.4-1.2,0.4-1.6c0,0,0-0.4-0.4-0.8c-29.2-1.6-57.2-10.4-82.4-26l-1.2,2.4
		c-7.2,16.8-17.6,31.6-31.2,43.2c-3.6,3.2-7.6,5.6-12,7.2c-2,0.8-4.4,1.2-6.4,0.8c-2.4-0.4-4.4-2-5.6-4.8c-1.6-3.6-1.2-7.2-0.8-10.8
		c0.8-5.2,2.4-10,4.4-14.8c6-14.8,15.6-28,26.8-39.2c0.4-0.4,0.8-0.8,1.6-1.2c0-0.4,0.4-0.4,0.4-0.8c-10.8-9.6-20.8-20.4-28.8-32.4
		c1.2,0,1.6-0.4,2.4-0.4h32c1.6,0,2.8,0.8,3.6,1.6c11.6,12.4,25.2,22.4,40,30c15.6,8.4,32.8,13.6,50.4,15.2
		c48,4.8,89.2-10,123.6-44.4c1.6-1.6,3.6-2.8,6-2.4H403L403.4,357.1L403.4,357.1z M359,201.2c2.8,0,5.6,0.4,8.4,0
		c3.2-0.4,5.2,0.8,7.6,2.8c12.8,12,25.6,24,38.8,36l2,2c0.8-0.8,1.6-1.2,2.4-2c13.2-12.4,26.8-24.8,39.6-37.2
		c1.2-1.2,2.8-1.6,4.4-1.6h10v109.6c-1.6,0.4-25.2,0.8-28,0v-55.6l-0.4-0.4c-9.2,8.4-18.4,17.2-27.6,25.6
		c-9.2-8.8-18.4-17.2-28-25.6l-0.4,0.4v56h-28C359,309.1,358.6,207.6,359,201.2z M102.2,201.2h27.6c0.8,2,0.8,107.2,0,109.6h-27.6
		c-0.4-6.8,0-14,0-20.8v-20.8H67.8v41.2c-2,0.8-25.6,0.8-28,0V201.2h28V240c2,0.8,31.2,0.8,34.4,0
		C102.2,240,102.2,201.2,102.2,201.2z M163,310.7V201.6c1.6-0.4,62.4-0.8,66.4-0.4v23.2c-0.8,0-2,0.4-2.8,0.4H191v18h34v24h-33.6
		c-0.8,2-0.8,16.4-0.4,20.4c0.8,0,2,0.4,2.8,0.4h35.6v23.2C229.4,310.7,163,310.7,163,310.7z M261.4,310.7
		c-0.4-2.8-0.4-107.6,0-109.6H289v80.8c1.2,0,2,0,3.2,0.4h35.6v28.8C327.8,311.1,261.4,310.7,261.4,310.7z"/>
</g>
</svg>
