<svg xmlns="http://www.w3.org/2000/svg" xml:space="preserve" viewBox="0 0 512 512"><path d="M256.7 12.5c-4.1.2-8.6.5-9.9.8s-3.5.5-4.8.5-2.9.2-3.7.4-3.1.6-5.2.8c-4 .5-7.8 1-12.4 1.9-1.6.3-4 .8-5.4 1-1.4.3-3.8.7-5.4 1.1-1.6.3-3.8.7-4.8 1-1 .2-2.7.6-3.7.9s-2.9.7-4.3 1.1c-9.8 2.5-16.2 4.2-24 6.7-8.2 2.6-13.9 4.5-16.9 5.6-1.5.6-2.6 1-6.4 2.5-2 .7-5.9 2.3-7 2.7-.5.2-3.2 1.3-6 2.5-13.8 5.8-30.6 14.1-42.2 21-1.7 1-3.1 1.8-3.2 1.8s-1 .5-1.9 1.2c-1 .7-2.5 1.5-3.2 2-1.7.9-2 1.1-10.6 6.7-25.7 16.9-49.5 37-70 59.3-6.4 7-6.2 6.5-5.1 11.6.3 1.5.8 3.9 1.1 5.4.8 4.2 1.6 8.2 2.3 11.4.4 1.6.8 3.8 1 4.8s.6 2.6.8 3.5c.3.9.7 2.9 1.1 4.5.7 3 1.4 5.7 2.5 10.2 1.7 6.4 2.1 7 3.4 4.7 1-1.7 7.7-10.6 10.2-13.6 1-1.1 2.4-2.9 3.3-3.9 10.7-12.8 24.6-26.9 37.8-38.2 11.4-9.8 20.4-16.5 33.2-25 5.8-3.9 4.7-3.2 13.4-8.5 9.3-5.6 13.3-7.9 23-12.6 5.6-2.8 8.4-4.1 14.9-7.1 1.2-.5 3.1-1.4 4.4-1.9s2.9-1.1 3.5-1.5c.7-.3 2.3-1 3.5-1.4 1.3-.5 2.6-1.1 3.1-1.3 3.3-1.4 11.1-4.2 11.6-4.2.2 0 .9-.3 1.6-.5 4.4-1.9 25.6-8.1 32-9.4.9-.2 2.4-.5 3.3-.8s3.2-.7 5-1.1 4.1-.9 5.2-1.1c3.8-.9 15.6-2.7 20.7-3.3 2.2-.2 4.4-.5 5-.6s3.6-.4 6.6-.6c16.5-1.1 22.2-1.4 27.1-1.1 10.4.5 19.5 1.1 21.9 1.6 2.6.5 3.3 1.2 4.1 4.3.2.7.7 2.5 1.2 4.1s1.3 4.6 1.7 6.6c.5 2 1 4.5 1.3 5.4.2.9.6 2.8.7 4.1.2 1.4.5 3 .8 3.6.3.7.5 1.9.5 2.9s.2 2.4.4 3.2c.3.8.6 3.4.8 5.8.3 2.4.6 5.9.8 7.9.3 1.9.4 9.6.4 17s-.2 15-.4 17c-.2 1.9-.5 5.5-.8 7.9-.2 2.4-.6 5-.8 5.8s-.4 2-.4 2.7-.3 2.5-.6 4.1c-.4 1.6-.9 4.4-1.3 6.2-.7 3.3-1.2 5.6-2.5 10.6-1.4 5.5-1.9 7.3-2.5 8.7-.3.8-.9 2.6-1.4 4.1-1 3.1-1.7 5.2-2.2 6.4-.2.5-1 2.6-1.8 4.8s-1.8 4.6-2.2 5.4-.9 2-1.2 2.7c-10.1 24.3-28.8 51.8-50.5 74.8-6.7 7-17.6 17.6-24 23-9.6 8.2-13.8 11.6-22.4 18.1-7.7 5.8-24.1 17.2-26.1 18.1-.2.1-1.3.7-2.3 1.4-6.6 4.3-6.9 4.5-5.7 5.7.3.3 2.5 2.7 4.8 5.3 5.3 5.8 13.8 14.4 19 19.1 2.6 2.5 4.1 3.5 4.6 3.4.8-.3 8.9-5.6 16-10.5 11-7.6 31.6-23.7 40-31.2 11.6-10.5 19.2-17.9 27.1-26.6 9.3-10 14-15.6 22-26.1 5-6.5 13.3-18.9 17.7-26.2 1.5-2.6 2.9-4.8 3.1-4.9.4-.3 4.5.7 12.9 2.9 4 1 13.3 4 16.3 5.2.5.2 1.7.6 2.6.9 6.2 2.3 13.9 5.8 13.9 6.3 0 .2-3.1 6.1-5.3 10.1-2.2 4.1-8.1 13.7-11.7 19.1-5.6 8.5-19 26.1-24.7 32.3-.7.8-3.2 3.5-5.4 6-8.6 9.5-16.7 17.6-26.5 26.5-2.5 2.3-4.6 4.2-4.8 4.4-.3.3-9.1 7.8-11.2 9.6-1 .8-2.7 2.3-3.9 3.2-3.2 2.6-21 16-24.6 18.6-1.7 1.2-6 4.1-9.5 6.4-3.5 2.4-6.3 4.5-6.3 4.8s1.1 1.3 2.4 2.1c1.3.9 2.9 1.9 3.6 2.5 2 1.4 9.9 6.6 10.6 6.9s1.7.9 4 2.5c1 .6 2.5 1.5 3.3 2s2.2 1.3 3 1.7c4.8 2.9 9.6 5.3 10.2 5.3s3.5-1.8 5.7-3.6c.3-.2 1.4-1 2.5-1.7 2.9-1.9 15.3-11.5 21.8-16.8 12.6-10.2 23.4-19.9 35.4-31.9 8.6-8.7 16-16.5 20.1-21.5.5-.7 1.2-1.4 1.4-1.7 3.2-3.6 15.8-19.3 17.7-22.2.4-.6 1.8-2.5 3.1-4.4 3.4-4.7 12.6-18.6 12.6-19 0-.1.5-1 1.2-2 .6-1 1.7-2.7 2.3-3.8.6-1.2 1.6-2.8 2.1-3.7 4.1-7 12.1-23.3 14.7-29.6.5-1.3 1.2-2.9 1.5-3.6 1.1-2.5 1.7-4 2.5-5.9.4-1 .9-2.2 1.1-2.7s.5-1.4.7-2.1.8-2.3 1.3-3.5c.5-1.3 1.1-2.9 1.3-3.5.2-.7 1.1-3.5 2.1-6.2 1.9-5.7 2.9-9 4.8-15.8.4-1.4 1-3.4 1.3-4.4.3-1.1.6-2.2.6-2.6 0-.3.3-1.5.6-2.6s.9-3.5 1.3-5.4c.4-1.8 1-4.4 1.3-5.8 2.2-9.7 4.9-27.7 5.6-36.6.3-2.8.5-5.3.6-5.5s.5-4.9.7-10.5c.6-11.9.7-31.2.2-40-.3-4.7-.3-6.3.1-6.6s9.9 4.2 15.8 7.5c1.3.7 3.1 1.7 4.1 2.2s2.1 1.2 2.5 1.4c9.4 5.5 9.6 5.7 9.6 8.4 0 1.1.3 3.8.7 6.1.6 3.4.7 7.6.7 23.4 0 12.6-.2 20.3-.5 22.4-.3 1.7-.7 5.4-.9 8.3-.3 2.9-.6 6.2-.8 7.5-.4 2.3-1 6.9-1.6 11.4-.2 1.4-.5 2.9-.6 3.3-.2.5-.5 2-.7 3.5-.5 2.8-1.3 7.1-2.3 11.6-1.4 6.3-1.8 8.2-2.3 9.9-.3 1-.8 3-1.2 4.4-.8 3.4-2.8 10.4-3.6 13.3-.3.9-.8 2.7-1.2 3.9-.4 1.3-1.4 4.5-2.4 7.3-.9 2.7-1.8 5.5-2 6.2s-1 3.1-1.9 5.4-1.7 4.6-1.9 5.2c-1 3.1-2.3 6.2-7 17.4-4.8 11.4-8.9 19.9-12.8 27-.7 1.3-1.9 3.4-2.6 4.7s-1.9 3.3-2.6 4.4c-.7 1.2-1.9 3.1-2.6 4.2-2 3.3-7 10.7-9.4 14-3.9 5.4-12 15.8-13.2 16.9-.1.1-.7.9-1.4 1.7-5.9 7.3-22.2 23.5-31.7 31.7-6.9 5.9-15.5 12.8-18.2 14.7-.8.5-1.5 1.1-1.7 1.3-.3.4-14.1 9.9-16.8 11.6-4.8 3-7 4.4-7.6 4.8-.4.3-1.5.9-2.4 1.5s-1.9 1.2-2.3 1.3c-.3.2-1.2.7-1.9 1.1-.7.5-2.2 1.3-3.3 1.9-3.7 2-4.1 2.3-6.6 3.7-5 2.9-22.5 11.4-28.9 14-6.2 2.6-6.6 2.7-7.7 2.1-.7-.3-4.3-2.1-8-3.9-3.8-1.8-8-4-9.5-4.8s-3.9-2.1-5.3-2.9c-15.8-8.7-39.8-25.2-53-36.4-1.6-1.4-3.8-3.2-4.9-4.1s-3.1-2.6-4.4-3.7c-1.3-1.2-4-3.6-6-5.4s-7.8-7.4-12.8-12.4c-8.3-8.3-11.3-11.5-18-19.1-1.2-1.4-2.7-3.1-3.3-3.7-1.7-1.9-1.8-2.5-.8-4.9.9-2.3 1.2-2.9 3.2-7.5.7-1.5 1.3-2.9 1.3-3 0-.3 4.8-10.5 5.4-11.4.2-.3 1.1-2.1 2-3.9 2.5-4.8 4.1-7.8 8.2-14.6 2-3.3 3.8-6.3 4.1-6.7 3.6-6 13.6-19.1 18.6-24.4 1.3-1.3 2.6-2.9 3.1-3.5 1.1-1.4 10.6-9.9 13.3-12 2-1.5 5.5-3.9 7.5-5.2 1.8-1.1 8.2-4.4 9.7-4.9.9-.3 3.2-1.2 5.1-1.9 8.3-3.1 14.3-4.8 25.4-7.3 1.7-.4 3.2-.8 3.2-.9 0-.2.4-.7 1-1.3 3.5-3.8 14.1-19.8 18.9-28.4 2.8-5 6.2-11.9 6.2-12.6s-.3-.8-2.4-.8c-1.3 0-4.3.2-6.6.4-2.3.3-6.3.6-8.9.8-2.6.3-5.8.6-7 .8-1.3.2-4.1.7-6.2 1-9.2 1.5-17.4 3.5-28.2 6.8-5.4 1.7-5.9 1.8-15.5 5.6-4.5 1.8-6.8 2.9-11.6 5.6-16.2 9-31.8 22.9-45.8 40.6-3.8 4.8-6.5 8.3-8.1 10.8-.7 1-2.3 3.4-3.6 5.2s-3.1 4.7-4.1 6.3c-1 1.7-2.2 3.5-2.5 4.1-.4.6-.9 1.5-1.2 1.9-.2.5-.7 1.2-.9 1.7-1.9 2.9-9.5 16.8-10.1 18.4-.1.3-.4.9-.6 1.3-.2.3-.5 1-.8 1.5-.2.5-1 2.3-1.8 3.9-4.6 9.8-6.8 14.9-8.8 20.3-.3.9-.9 2.4-1.3 3.3-.4 1-1 2.5-1.3 3.4s-.9 2.3-1.2 3-.6 1.7-.6 2.2c0 .4-.2.9-.4 1s-.5.7-.6 1.4-.7 2.7-1.3 4.5c-.7 2-1 3.8-.9 4.4.3.8 10.2 14.6 13 17.8 11.8 13.9 15.1 17.4 26 28.4 15.2 15.2 24.5 23.5 39 34.7 1.8 1.4 3.5 2.7 3.7 2.9 7.9 6.1 24.9 18 31.8 22.1.4.2 2.9 1.7 5.6 3.4s5.6 3.4 6.6 3.9c.9.5 2.4 1.4 3.3 1.9 8.6 5 24.1 12.6 36.3 17.8l6.5 2.7 6.2-2c7.6-2.5 8.9-3 12-4.4 1.3-.6 2.6-1.1 2.8-1.1s1.6-.6 3-1.3c1.5-.7 2.8-1.3 2.9-1.3.2 0 1.6-.6 3.3-1.4 1.7-.7 4.4-2 5.9-2.7 22.6-10.5 47.7-25.6 68.8-41.4 7.9-5.9 8.2-6.2 16.2-13 16.4-13.9 28.3-25.9 41.7-41.8 11.2-13.3 24.4-32.5 31.7-46 1-1.7 2.4-4.3 3.2-5.8s2.7-5.1 4.1-8.1c2.4-4.9 3.4-6.9 5.6-12 .4-.9 1.2-2.7 1.8-3.9.6-1.3 1.5-3.3 1.9-4.6.5-1.3 1.2-2.9 1.5-3.5.3-.7 1.2-2.7 1.9-4.6.7-1.8 1.5-3.7 1.7-4.1.3-.5.6-1.3.7-1.9.2-.6.7-2.1 1.3-3.4 1.5-3.8 2.1-5.5 3.1-8.5.5-1.6 1.4-3.9 1.9-5.2s1-2.9 1.3-3.5c.2-.7 1.1-3.6 2-6.4 1.6-5 2.4-7.4 3.6-11.7.3-1.1.8-2.8 1.2-3.9.3-1.1.9-3.2 1.3-4.6.4-1.5 1-3.6 1.3-4.7s.6-2.3.6-2.6.3-1.5.6-2.5.9-3.4 1.3-5.3c.4-1.8 1-4.3 1.3-5.4.3-1.2.6-2.6.6-3.2s.2-1.6.5-2.2.6-2.3.8-3.6c.4-3 1.1-7.2 1.7-9.7.2-1 .6-3.3.8-5s.5-4.4.8-6c.7-5.4 1.7-14.1 2.2-20.3.7-8.4.7-41.6 0-49.1-1.1-11.5-3.2-23.9-4.8-29.2-.3-.9-.7-2.1-.8-2.7-.2-1.1-1.4-2-9.9-7.7-3.6-2.4-7.2-4.8-8.2-5.3-.3-.2-1.2-.7-1.9-1.1-.7-.5-1.5-1-1.9-1.1-.3-.2-1.8-1-3.3-1.9s-3.1-1.8-3.5-2c-.5-.2-1.5-.8-2.3-1.3-1.9-1.2-18.8-9.7-22.8-11.5-1.7-.8-4.4-2-6-2.7s-5.9-2.6-9.5-4.1-7.2-3-7.9-3.3-2-.8-2.9-1.2c-.9-.3-2.5-.9-3.5-1.3s-2.4-1-3.1-1.3c-1.2-.5-1.9-.7-6.2-2.4-.9-.3-3.2-1.2-5-1.9s-4.1-1.6-5-1.9c-.9-.4-2-.8-2.5-1s-2.6-1-4.8-1.8-4.7-1.8-5.6-2.1c-.9-.4-2.2-.9-2.8-1.3-.7-.3-1.4-.5-1.6-.3-.4.3-.2 2.6.5 4.9.2.7.7 2.7 1 4.6.4 1.8.9 4.4 1.3 5.8.3 1.4.8 4 1.3 5.8.4 1.8 1 4.4 1.3 5.8s.9 4 1.3 5.8.9 4.1 1.1 5.2c.5 2.5 1.5 9.2 2 13.9.2 2 .6 5.3.8 7.3.8 6.8 1.8 28.6 1.5 34.6-.6 14-1.2 24.7-1.6 27.2-.2 1.5-.6 4.6-.8 6.8-.6 6.4-2.3 18.1-3.3 22.6-.5 2.3-1.3 5.8-1.7 8.3-.2 1-.6 2.8-.9 3.9s-.7 3.2-1.1 4.4c-1.2 5-2.9 11.5-3.7 13.8-.3.9-1 3-1.5 4.6-.5 1.7-1 3-1 3-.4 0-3.8-1.4-5.9-2.3-1.3-.6-2.8-1.3-3.2-1.5-3.2-1.3-4.3-1.7-5.2-2-.6-.2-2.1-.7-3.3-1.3-1.3-.5-4.2-1.5-6.6-2.3s-4.9-1.6-5.6-1.9-1.9-.6-2.7-.8-2.9-.8-4.6-1.3-3.6-1-4.4-1.2c-1.6-.4-1.6-1.1.4-6.5.8-2.3 1.7-4.7 1.8-5.4.2-.7.5-1.7.8-2.3.2-.6.7-2.2 1.1-3.5.4-1.4 1-3.2 1.3-4.1s.8-2.9 1.2-4.4 1-3.6 1.3-4.7.6-2.3.6-2.6.3-1.6.6-2.7c.6-2 1.3-5.2 2.4-11 .5-2.6.7-3.7 1.6-11 .3-2.1.7-4.8.9-6 1.8-10.5 1.8-43.8 0-56.2-.6-4.1-1.3-9.5-1.7-12.4-.9-7.5-5.5-27.3-8.1-34.6-.3-.8-.9-2.6-1.4-4.1s-1.3-3.7-1.7-5c-.5-1.3-1-2.7-1.3-3.3-.2-.6-.8-2-1.4-3.2s-1.1-2.3-1.1-2.4-.7-1.6-1.5-3.3c-1.5-3.1-1.8-3.4-4.4-4-.8-.2-2.7-.7-4.4-1.2-5.2-1.5-13.3-3.1-19.5-3.8-2-.2-5-.6-6.6-.8-3.7-.4-35.5-.7-45.1-.2M248.4 114c-14.8.6-30.6 2.4-42.3 4.7-1.6.3-3.6.7-4.6.8-.9.1-2.2.4-2.9.6s-2.7.7-4.6 1c-1.8.4-4.1 1-5.2 1.3-1 .3-3.1.8-4.6 1.3-1.5.4-3.4 1-4.4 1.2-.9.3-2.8.9-4.1 1.3-1.4.4-2.9.9-3.5 1.1-.6.3-1.6.6-2.3.7-.7.2-2.3.7-3.5 1.3-1.3.5-2.8 1-3.5 1.3-1.3.3-12.8 5-14.2 5.8-.4.2-4.6 2.2-9.2 4.6-4.7 2.3-9.5 4.7-10.8 5.5-23.6 13.4-43.6 29.3-61.4 48.8-4.3 4.7-4.4 4.9-9.3 10.8-7.9 9.5-16.6 21.8-23.5 33.6-1.3 2.2-2.5 4.2-2.7 4.6-.2.3-.8 1.4-1.3 2.3-.8 1.6-.8 1.8-.3 2.9.3.7 1.9 4.2 3.4 7.8 4.6 10.9 5.1 12.1 12.4 26.9 2.9 5.9 5.5 10.6 5.7 10.6.5-.2 1.3-1.6 2.9-5.5 3.1-7.6 8.8-19.3 12.5-25.3.4-.7.9-1.5 1-1.9 1.5-3.2 11.4-18.1 16.5-24.7 2.7-3.5 8.9-10.9 10.1-12.2.1-.1 2.2-2.4 4.8-5.1 4.3-4.7 14.2-14 18.7-17.4 1.2-.9 2.2-1.8 2.3-1.9.5-.5 10.3-7.8 13.3-9.8 10.5-7.1 24.1-14.4 35.8-19.2 1.8-.7 3.8-1.5 4.4-1.8 1.7-.7 7.5-2.8 8.9-3.2.7-.2 1.7-.5 2.3-.7 1.5-.6 5.3-1.7 12.1-3.6 3.8-1.1 5.8-1.6 7.7-1.9 1-.2 2.7-.5 3.7-.8 7-1.7 20.6-3.6 29.8-4.2 14.9-1 22.8-1.3 30.7-.8 4.4.2 10.3.5 13 .6s6.3.5 7.8.7c3.5.6 3.8.3 4.4-3.6.3-1.6.6-4.1.8-5.6 1.1-7 1.7-14.2 1.8-22.2l.1-8.7-4.6-.5c-4.5-.5-16.2-1.1-29.4-1.5-3.4-.3-10.1-.2-14.7 0" style="fill:#409b8f"/></svg>