<svg xmlns="http://www.w3.org/2000/svg" xml:space="preserve" viewBox="0 0 512 512"><path d="m131.2 329.8-.2-42.7c0-26 13.9-49 34.8-61.6.7-.4 1.3-.8 2-1.1l97.1-55.9V35.9l-.3.1c-1.1-12.1-6.3-21.7-15.6-28.7-13.5-9-27.7-9.7-42.5-2.1-103 59.3-160 92.2-171 98.5-4.9 2.5-4.9 10.7 1.7 12.4 4.7 1.3 9.2 3.6 13.7 6.8q13.65 10.95 14.4 29.4v253.4c0 16.4 13.3 29.7 29.7 29.7h6.9c16.4 0 29.2-13.4 29.2-29.8m133.6-118.8c-.1-24.8-20.4-60.8-61.4-60.8-11.4 0-22 3-31.9 8.9l183-105.4c9.1-5.3 19.6-8.3 30.9-8.3 33.8 0 61.2 27.2 61.4 60.7v186.4c.2 12.8 5 23 14.4 30.5q6.75 4.8 13.8 6.9c6.7 2.2 6 10.1 1.6 12.4-25.4 14.6-76.6 44.2-153.5 88.6-14.8 7.6-29 7-42.5-2q-13.95-10.5-15.6-28.8l-.2.1z" style="fill:#fff"/><path d="M203.4 226c33.9 0 61.4 27.4 61.4 61.1v66.7s-105.6 60.8-120.9 69.6c-1.2.7-21 12-21 12 17.6-11.3 19.1-26.6 19.1-33.3v-115c0-33.7 27.5-61.1 61.4-61.1" style="opacity:.49;fill:#fff"/></svg>