<svg xmlns="http://www.w3.org/2000/svg" xml:space="preserve" viewBox="0 0 512 512"><path d="M335.9 129.6c-3-3-7.1-4.9-11.7-4.9s-8.7 1.9-11.8 4.9c-1.6 1.6-2.8 3.5-3.7 5.7-16 0-39.9 0-73.5.1-36.7.2-84.9.4-146.5.9h-3.6L0 256.2h16.7l75.8-106c59.9-.5 106.8-.7 142.8-.9 34.1-.1 58.2-.1 74.3-.1.8 1.5 1.7 2.8 2.8 4 3.1 3 7.2 4.9 11.8 4.9s8.7-1.9 11.7-4.9c3-3.1 4.8-7.2 4.8-11.7 0-4.7-1.8-8.9-4.8-11.9m-3.9 19.5c-2 2-4.8 3.3-7.8 3.3s-5.7-1.3-7.7-3.3c-2-1.9-3.3-4.6-3.3-7.7s1.3-5.8 3.3-7.8c2-1.9 4.8-3.2 7.7-3.2 3.1 0 5.8 1.3 7.8 3.2 1.9 2 3.2 4.8 3.2 7.8-.1 3-1.3 5.8-3.2 7.7m-64.3 7.1c-3-3-7.1-4.9-11.7-4.9-4.5 0-8.7 1.9-11.7 4.9-1.3 1.3-2.3 2.8-3.1 4.4-35.2.1-80 .4-136 .8l-3.6.1-67.9 94.6h16.7l58.4-81c54.1-.4 97.6-.7 131.9-.8.8 2 2.1 3.8 3.5 5.3 3.1 3 7.2 4.9 11.7 4.9 4.6 0 8.8-1.9 11.7-4.9 3-3.1 4.8-7.2 4.8-11.7.2-4.7-1.7-8.8-4.7-11.7m-3.9 19.4c-2 2-4.8 3.3-7.8 3.3s-5.7-1.3-7.7-3.3c-1.4-1.4-2.3-3.1-2.9-4.9V165c.5-1.9 1.5-3.6 2.9-5 2-1.9 4.8-3.2 7.7-3.2 3.1 0 5.8 1.3 7.8 3.2 1.9 2 3.2 4.8 3.2 7.8 0 3.1-1.3 5.8-3.2 7.8m56.8 5.1c-3-3.1-7.2-4.9-11.8-4.9-4.5 0-8.7 1.8-11.7 4.9-1.4 1.4-2.5 3-3.3 4.9-7.9.1-16.4.1-25.7.1-36.7.2-84.9.4-146.5.9H118l-50.6 69.6h16.7l41.1-55.8c59.9-.5 106.8-.7 142.8-.9h25.8c.8 1.7 1.9 3.3 3.2 4.6v.1c3.1 3 7.2 4.8 11.7 4.8 4.6 0 8.8-1.8 11.8-4.9 3-3 4.8-7.1 4.8-11.6.1-4.7-1.8-8.9-4.7-11.8m-4 19.4c-2 2-4.8 3.2-7.8 3.2-3.1 0-5.8-1.2-7.7-3.2-2-2-3.3-4.8-3.3-7.7 0-3.1 1.3-5.8 3.3-7.8 1.9-2 4.7-3.2 7.7-3.2 3.1 0 5.8 1.2 7.8 3.2 1.9 2 3.2 4.8 3.2 7.8s-1.2 5.7-3.2 7.7" style="fill:#d41813"/><path d="M415.8 333.6c-3.1-3-7.2-4.9-11.7-4.9-4.7 0-8.8 1.9-11.7 4.9-1.4 1.4-2.5 3.1-3.3 4.9l-281.3-.5-57.4-81.8H33.7l66.9 95.4 288.6.9c.8 1.7 1.9 3.3 3.2 4.5 3 3 7.1 4.9 11.7 4.9 4.5 0 8.7-1.9 11.7-4.9s4.8-7.2 4.8-11.7-1.8-8.6-4.8-11.7m-4 19.6c-2 1.9-4.8 3.2-7.7 3.2-3.1 0-5.8-1.3-7.8-3.2-2-2-3.2-4.8-3.2-7.8s1.2-5.7 3.2-7.7 4.8-3.3 7.8-3.3 5.7 1.3 7.7 3.3 3.3 4.8 3.3 7.7c0 3.1-1.3 5.8-3.3 7.8m95.3-44.8c-3.1-3-7.2-4.9-11.7-4.9s-8.7 1.9-11.7 4.9c-1.3 1.3-2.3 2.8-3.1 4.4H124.2l-40-56.6H67.4l49.6 70.4 363.7 1v-.1c.8 1.6 1.8 3.1 3 4.3 3.1 3 7.2 4.9 11.7 4.9s8.7-1.9 11.7-4.9c3-3.1 4.9-7.2 4.9-11.7s-1.9-8.7-4.9-11.7m-4 19.4c-1.9 2-4.7 3.3-7.7 3.3-3.1 0-5.8-1.3-7.8-3.3-1.9-1.9-3.2-4.7-3.2-7.7 0-3.1 1.3-5.8 3.2-7.8 2-1.9 4.8-3.2 7.8-3.2 3.1 0 5.8 1.3 7.7 3.2 2 2 3.3 4.8 3.3 7.8 0 3.1-1.3 5.8-3.3 7.7m-15 26.3c-4.7 0-8.8 1.9-11.7 4.8q-2.1 2.1-3.3 4.8v-.1L91.5 363 16.7 256.2H0l84.2 120.6 388.9 1v-.1c.8 1.8 1.9 3.4 3.3 4.7 3 3.1 7.1 4.9 11.7 4.9 4.5 0 8.7-1.8 11.7-4.9 3-3 4.8-7.1 4.8-11.7 0-4.5-1.8-8.7-4.8-11.7-3-3.1-7.1-4.9-11.7-4.9m7.7 24.4c-2 2-4.8 3.2-7.7 3.2-3.1 0-5.8-1.2-7.8-3.2s-3.2-4.8-3.2-7.8 1.2-5.7 3.2-7.7 4.8-3.3 7.8-3.3 5.7 1.3 7.7 3.3 3.2 4.8 3.2 7.7c0 3-1.2 5.7-3.2 7.8" style="fill:#1c4475"/></svg>