<svg xmlns="http://www.w3.org/2000/svg" xml:space="preserve" viewBox="0 0 512 512"><path d="M495.4 512H16.6C7.5 512 0 504.5 0 495.4V16.6C0 7.5 7.5 0 16.6 0h478.7c9.2 0 16.6 7.5 16.6 16.6v478.7c.1 9.2-7.4 16.7-16.5 16.7"/><path d="M480.4 31.7v167.2c-.8-.8-1.4-1.3-2-1.8-7.2-7.2-14.6-14.2-21.5-21.6-3.9-4.1-11.5-4.8-16.1-.1-35.3 35.6-70.8 71-106.3 106.5-.7.7-1.3 1.5-1.8 2.2-35-35-69.6-69.7-105-105 .5-.3 1.5-.7 2.2-1.4 35.4-35.4 70.8-70.8 106.3-106.2 3.6-3.6 4.9-7.6 3.1-12.4-.5-1.4-1.7-2.7-2.7-3.8-7.1-7.2-14.3-14.4-21.5-21.6-.6-.6-1.3-1-2-1.5.1-.2.2-.3.3-.5z" style="fill:#3497da"/><path d="M284 332.8c-.8.7-1.9 1.4-2.8 2.3L175.5 440.8c-3.2 3.2-5.1 6.6-3.4 11.1.6 1.6 1.7 3.2 3 4.4 7.2 7.4 14.6 14.6 21.9 21.9.6.6 1.3 1 2 1.5-.1.2-.2.3-.3.5H31.8V313.1c.7.7 1.3 1.2 1.9 1.7 7.2 7.2 14.5 14.2 21.5 21.6 5.4 5.7 11.5 4.6 16.2-.1 35.3-35.3 70.6-70.6 105.8-105.9.8-.8 1.5-1.8 2-2.6 35 35.3 69.7 69.9 104.8 105" style="fill:#9a59b5"/><path d="M31.7 241V31.7H241C171.3 101.4 101.5 171.1 31.7 241" style="fill:#1abb9b"/><path d="M270.6 480.3c70-70 139.8-139.7 209.7-209.7v209.7z" style="fill:#f0c30f"/></svg>