<svg xmlns="http://www.w3.org/2000/svg" xml:space="preserve" viewBox="0 0 512 512"><path d="M495.4 0H16.6C7.5 0 0 7.5 0 16.6v478.7c0 9.2 7.5 16.6 16.6 16.6h478.7c9.2 0 16.6-7.5 16.6-16.6V16.6C512 7.5 504.5 0 495.4 0M31.7 31.6H241C171.3 101.4 101.5 171.1 31.7 241zm166.9 448.7H31.7V313.2c.7.7 1.3 1.2 1.9 1.7 7.2 7.2 14.5 14.2 21.5 21.6 5.4 5.7 11.5 4.6 16.2-.1 35.3-35.3 70.6-70.6 105.8-105.9.8-.8 1.5-1.8 2-2.6l104.8 104.8c-.8.7-1.9 1.4-2.8 2.3L175.4 440.7c-3.2 3.2-5.1 6.6-3.4 11.1.6 1.6 1.7 3.2 3 4.4 7.2 7.4 14.6 14.6 21.9 21.9.6.6 1.3 1 2 1.5-.1.3-.2.5-.3.7m281.7 0H270.6c70-70 139.8-139.7 209.7-209.7zm.1-281.5c-.8-.8-1.4-1.3-2-1.8-7.2-7.2-14.6-14.2-21.5-21.6-3.9-4.1-11.5-4.8-16.1-.1-35.3 35.6-70.8 71-106.3 106.5-.7.7-1.3 1.5-1.8 2.2-35-35-69.6-69.7-105-105 .5-.3 1.5-.7 2.2-1.4 35.4-35.4 70.8-70.8 106.3-106.2 3.6-3.6 4.9-7.6 3.1-12.4-.5-1.4-1.7-2.7-2.7-3.8-7.1-7.2-14.3-14.4-21.5-21.6-.6-.6-1.3-1-2-1.5.1-.2.2-.3.3-.5h166.9c.1 55.8.1 111.3.1 167.2" style="fill:#fff"/><path d="M480.4 31.7v167.2c-.8-.8-1.4-1.3-2-1.8-7.2-7.2-14.6-14.2-21.5-21.6-3.9-4.1-11.5-4.8-16.1-.1-35.3 35.6-70.8 71-106.3 106.5-.7.7-1.3 1.5-1.8 2.2-35-35-69.6-69.7-105-105 .5-.3 1.5-.7 2.2-1.4 35.4-35.4 70.8-70.8 106.3-106.2 3.6-3.6 4.9-7.6 3.1-12.4-.5-1.4-1.7-2.7-2.7-3.8-7.1-7.2-14.3-14.4-21.5-21.6-.6-.6-1.3-1-2-1.5.1-.2.2-.3.3-.5zM179.1 228c-.6.7-1.2 1.7-2 2.6-35.3 35.3-70.6 70.6-105.8 105.9-4.6 4.6-10.8 5.7-16.2.1-7-7.4-14.3-14.4-21.5-21.6-.6-.6-1.2-1.1-1.9-1.7v167.1h166.9c.1-.2.2-.3.3-.5-.7-.5-1.4-.9-2-1.5-7.3-7.3-14.7-14.6-21.9-21.9-1.2-1.3-2.4-2.8-3-4.4-1.6-4.4.3-7.9 3.4-11.1 35.3-35.2 70.5-70.4 105.7-105.7.9-.9 1.9-1.6 2.8-2.3-35-35.3-69.7-69.9-104.8-105M241 31.6H31.7v209.3C101.5 171.1 171.3 101.4 241 31.6m239.3 448.7V270.6L270.6 480.3z" style="opacity:.4;fill:#fff"/></svg>