<svg xmlns="http://www.w3.org/2000/svg" xml:space="preserve" viewBox="0 0 512 512"><path d="M28.4 255.3c0-42.8 0-85.5-.1-128.3 0-3 1.2-5.3 2.8-7.5 1.4-1.8 3.1-3.2 5.1-4.3 9.1-4.8 18.3-9.8 27.4-14.6 15.6-8.3 31.1-16.7 46.7-24.9 38-20.1 75.9-40.2 113.9-60.3 7.8-4.1 15.5-8.6 23.4-12.6 2.6-1.3 5.6-1.9 8.4-2.7.5-.2 1.2-.1 1.7.1 3.2 1.3 6.4 2.6 9.4 4.2C289.1 16 311 27.6 333 39.3c21.1 11.2 42.2 22.5 63.3 33.8 21.9 11.6 43.9 23.1 65.8 34.8 5.3 2.8 10.5 6 15.7 9 1.7 1 2.8 2.4 3.7 4.1 1.3 2.4 1.9 4.8 1.9 7.5l.3 251.8c0 3.7-.5 7.4-2.4 10.7-.5.8-1.1 1.7-1.8 2.3-2.3 1.7-4.5 3.4-7 4.7-20.1 10.9-40.2 21.7-60.4 32.5-23.3 12.5-46.7 25.1-70 37.6-14.2 7.6-28.5 15.2-42.8 22.8-11.7 6.2-23.4 12.5-35 18.8-2.5 1.3-5.1 2-7.7 2.3-2.1.2-4.7-.2-6.6-1.2-18.2-9.5-36.3-19.3-54.4-28.9-14.2-7.6-28.3-15.2-42.5-22.7-13.5-7.2-27.1-14.3-40.6-21.6-25.5-13.7-51-27.4-76.5-41.3-2.3-1.3-4.4-3.3-6-5.5-1.1-1.4-1.3-3.6-1.8-5.4-.2-.9 0-1.8 0-2.7.2-42.6.2-85 .2-127.4m23.8-107.9v214.4c.3 0 .5.1.6.1 22.9-15.4 44.1-33.2 66.8-48.9 1.2.9 2.4 1.7 3.6 2.6 10.3 8 20.5 16 30.7 24 1.7 1.3 1.9 1.4 3.6-.1 3.4-3 6.8-6.1 10.2-9.2 9.6-8.9 19.1-17.9 28.7-26.8 1.9-1.8 2.1-1.7 3.8.1 4.2 4.4 8.3 8.8 12.5 13.2l40.5 43.5c.6.6 1.3 1.2 1.9 1.9.4-.4.7-.6.9-.8 2-2.7 4-5.5 5.9-8.3l27.9-39.3c6.3-8.9 12.5-17.8 18.7-26.6 1.3-1.9 2.8-3.6 4.3-5.4l1.2.8c9.7 8.1 19.4 16.1 29 24.2.8.7 1.7 1.2 2.7 1.9.8-1.1 1.4-2 2-2.8 15.3-22.8 30.6-45.7 45.9-68.5 1.8-2.7 1.8-2.7-1.1-4.4-4.9-2.9-9.8-5.9-14.7-8.9-.7-.4-1.4-1.1-2.3-1.8 21-10.2 41.7-20.2 62.9-30.5-.2 5.1-.5 9.6-.7 14.2-.3 4.7-.5 9.4-.8 14.1-.3 4.6-.6 9.3-.9 13.9l-.9 14.1c-.3 4.6-.4 9.1-1.1 14-.9-.6-1.4-1-1.9-1.4-3.9-3.1-7.8-6.2-11.6-9.3-1-.8-1.9-1.6-2.9-2.3-1.6-1.2-1.8-1.2-3 .3-.8 1-1.5 2-2.2 3-10.5 15.6-20.9 31.2-31.5 46.8-5.2 7.7-10.6 15.2-15.8 22.9-4.6 6.9-9.1 13.9-13.6 20.8-.4.6-.8 1.2-1.3 1.9-1-.9-1.9-1.6-2.8-2.3l-28.5-24c-2-1.7-2.1-1.7-3.6.4-5.8 8.1-11.7 16.3-17.5 24.5-12.5 17.8-25 35.7-37.4 53.6-.9 1.3-1.9 2.6-3.4 4.6-.7-1-1-1.7-1.6-2.3-4.4-4.9-8.8-9.7-13.2-14.5-6.7-7.3-13.5-14.6-20.2-21.9-7.4-8-14.8-15.9-22.1-23.9-3.3-3.6-2.8-3.2-5.9-.3-11.8 10.9-23.5 21.9-35.2 32.9-.6.6-1.3 1.2-2 1.8-12.8-9.9-24.9-20.4-37.8-29.8-.9.6-1.6 1.1-2.2 1.6-16.9 12.5-33.9 25-50.8 37.5-.2.1-.4.3-.6.4-.8.8-.8 1.3.1 1.9s1.9 1.1 2.8 1.6c25.9 13.9 51.8 27.7 77.7 41.6 31.6 16.9 63.2 33.9 94.8 50.9.8.4 1.6.7 2.4 1.1.1-.4.2-.4.2-.5l.6-74.6v-.7c0-.2.1-.3.1-.5 0-.1.1-.1.1-.2.1-.1.1-.1.4-.3.4.4.9.8 1.4 1.2 3.4 3.7 6.7 7.3 10.1 11 1.8 1.9 2 1.9 3.5-.1 2.2-2.9 4.3-5.9 6.5-8.8.3-.4.7-.7 1.3-1.3.1 25.3.3 50.2.4 75.3.8-.4 1.2-.6 1.7-.8 8.5-4.6 17-9.3 25.5-13.9 20.2-10.9 40.4-21.7 60.6-32.5 31.3-16.8 62.7-33.5 94-50.2 2.8-1.5 5.6-2.9 8.3-4.5.6-.3 1.2-1 1.3-1.6.3-2.2.5-4.4.5-6.6l-.3-220.5v-2.7c-.8.4-1.3.6-1.8.9-4.9 2.7-9.9 5.3-14.8 8-30 16.2-60 32.3-90.1 48.5-19.7 10.6-39.5 21.2-59.3 31.8-7.7 4.1-15.4 8.3-23.2 12.4-1.9 1-2.5 2.1-2.5 4.2.1 23.3 0 46.6.1 69.9 0 1.9-.4 3.6-1.5 5.1-3.7 5.3-7.5 10.6-11.2 15.8-.4.5-.9.9-1.5 1.6-2.7-3-5.2-5.8-7.8-8.6-1.4-1.5-1.9-3.1-1.9-5.1.1-26.3 0-52.5.1-78.8 0-1.8-.5-2.9-2.1-3.8-3.7-1.9-7.2-4-10.9-6-9.3-5-18.7-10-28-15-27.3-14.7-54.5-29.4-81.8-44-22-11.8-44.1-23.5-66.2-35.3-.8-.7-1.7-1.1-2.8-1.6M243.8 222c.6-7.5.3-188.3-.3-190.3-.6.3-1.2.5-1.7.9-1.4.8-2.7 1.6-4.1 2.4-21.4 11.4-42.9 22.7-64.3 34.1-8.3 4.4-16.6 8.9-24.9 13.4-12.5 6.7-24.9 13.3-37.4 20-13.7 7.3-27.5 14.6-41.2 21.9-1 .5-2 1.1-3.1 1.6-.8.4-.8.9-.5 1.6 1 .5 2 1 2.9 1.5 12.5 6.6 25 13.3 37.5 20 16.1 8.6 32.1 17.2 48.2 25.8 7.6 4.1 15.2 8 22.8 12.1 9.7 5.2 19.4 10.3 29.1 15.6 11.3 6.1 22.5 12.2 33.8 18.3.8.4 2 .7 3.2 1.1m24.1.3c1.8-.8 3.5-1.5 5-2.3 21.6-11.6 43.1-23.2 64.7-34.8 14.5-7.8 29-15.5 43.6-23.3 8.8-4.7 17.6-9.4 26.4-14.2 12.1-6.6 24.3-13.1 36.4-19.7.5-.3 1-.7 1.7-1.3-1.6-.9-2.8-1.6-4.1-2.3-38.4-20.5-76.8-41.1-115.2-61.6-18.6-9.9-37.3-19.8-55.9-29.7-.8-.4-1.6-.7-2.6-1.1z"/></svg>