<svg xmlns="http://www.w3.org/2000/svg" xmlns:xlink="http://www.w3.org/1999/xlink" xml:space="preserve" id="hivedav_svg__svg1" x="0" y="0" version="1.1" viewBox="0 0 512 512"><style>.hivedav_svg__st0{fill:none}.hivedav_svg__st4{fill:#fff}.hivedav_svg__st10{fill:#03ff5a}.hivedav_svg__st11{fill:#d602ff}.hivedav_svg__st15{fill:#ffef95;fill-opacity:.7686}</style><pattern id="hivedav_svg__path23_000001176495855395045813" width="595.3" height="841.9" y="512" patternUnits="userSpaceOnUse" style="overflow:visible" viewBox="0 -841.9 595.3 841.9"><path d="M0-841.9h595.3V0H0z" class="hivedav_svg__st0"/><path d="M0-841.9h595.3V0H0z" class="hivedav_svg__st0"/></pattern><pattern id="hivedav_svg__path35_000000146341095899303628" width="595.3" height="841.9" y="512" patternUnits="userSpaceOnUse" style="overflow:visible" viewBox="0 -841.9 595.3 841.9"><path d="M0-841.9h595.3V0H0z" class="hivedav_svg__st0"/><path d="M0-841.9h595.3V0H0z" class="hivedav_svg__st0"/></pattern><linearGradient id="hivedav_svg__path31_00000070104954545166232520000013642979716166196900_" x1="-1.643" x2="-28.387" y1="155.373" y2="119.581" gradientTransform="translate(179.129 -281.594)scale(2.8346)" gradientUnits="userSpaceOnUse"><stop offset="0" style="stop-color:#ffd90b"/><stop offset="1" style="stop-color:#ffed99"/></linearGradient><path id="hivedav_svg__path31" d="M103.1 160.5c16.9-53.6 70.7-68.6 70.7-68.6 46.8 14.5 64.3 59.9 64.3 59.9-33 37.6-119.4 20.6-135 8.7" style="fill:url(#hivedav_svg__path31_00000070104954545166232520000013642979716166196900_)"/><linearGradient id="hivedav_svg__path32_00000075134124619069460920000010186319095382821763_" x1="-33.264" x2="-45.675" y1="155.214" y2="133.155" gradientTransform="translate(179.129 -281.594)scale(2.8346)" gradientUnits="userSpaceOnUse"><stop offset="0" style="stop-color:#ffd90b"/><stop offset="1" style="stop-color:#ffed99"/></linearGradient><path id="hivedav_svg__path32" d="M21.6 152.8c27.7-48.4 55.2-56.9 55.2-56.9 22.9 4.6 47 24.9 47 24.9l-20.7 39.6c-13.5 12.1-48 10.1-81.5-7.6" style="fill:url(#hivedav_svg__path32_00000075134124619069460920000010186319095382821763_)"/><pattern xlink:href="#hivedav_svg__path35_000000146341095899303628" id="hivedav_svg__path35_00000028283866640779889060000018153748520613316760_" patternTransform="translate(-6727.311 9234.267)scale(.5803)"/><path id="hivedav_svg__path35" d="m244.8 172.5 1.5 52.4c53.7 13.7 69 24.1 108.2 60l23.2-41.2-46.4-71.1h-86.5z" style="fill:url(#hivedav_svg__path35_00000028283866640779889060000018153748520613316760_)"/><path id="hivedav_svg__path42" d="M21.6 152.8s55.4 31.2 81.5 7.7c0 0-17.6 54.9 3 112.9-49 29.4-75.2 20.4-75.2 20.4s-62.2-7.9-9.3-141" class="hivedav_svg__st4"/><path id="hivedav_svg__path43" d="M238.1 151.8c-6.7 13.1-85.2 37.5-135 8.7-7.9 68.6-17.5 105.3 28.8 128.1-8.1-113.7 82.6-103.3 114.4-104.3-2-15.8-8.2-32.5-8.2-32.5" class="hivedav_svg__st4"/><path id="hivedav_svg__path33" d="M96.2 187.4C-6.5 168.1 5.4 269.1 5.4 269.1c35.3 48.1 100.7 4.3 100.7 4.3-15.6-37.8-9.9-86-9.9-86"/><path id="hivedav_svg__path34" d="M246.3 184.3c-159-52.3-140.2 89.1-140.2 89.1 40.2 33.5 120.5-19.4 120.5-19.4 17-21.8 18.9-30.1 19.7-69.7"/><linearGradient id="hivedav_svg__path38_00000026139409544290628720000003097662791960963991_" x1="3.991" x2="-9.768" y1="215.238" y2="189.974" gradientTransform="translate(179.129 -281.594)scale(2.8346)" gradientUnits="userSpaceOnUse"><stop offset="0" style="stop-color:#ffd90b"/><stop offset="1" style="stop-color:#ffed99"/></linearGradient><path id="hivedav_svg__path38" d="m176.6 283.4 30-14.4c8.7 36.5-5.1 70.2-22 87.4l-30.6-5.6c16.6-14 20.5-46.6 22.6-67.4" style="fill:url(#hivedav_svg__path38_00000026139409544290628720000003097662791960963991_)"/><linearGradient id="hivedav_svg__path37_00000147219669659784474830000002848906643250515631_" x1="40.944" x2="23.783" y1="208.658" y2="183.358" gradientTransform="translate(179.129 -281.594)scale(2.8346)" gradientUnits="userSpaceOnUse"><stop offset="0" style="stop-color:#ffd90b"/><stop offset="1" style="stop-color:#ffed99"/></linearGradient><path id="hivedav_svg__path37" d="M262.3 227.4c5.1 41.2-6.7 77.8-13 98.6h36.3s27.1-46.1 25.4-76.6z" style="fill:url(#hivedav_svg__path37_00000147219669659784474830000002848906643250515631_)"/><path id="hivedav_svg__path27" d="m331.3 326 11.8 21.1c5.5-51.8 40.2-65 40.2-65l-11.1-28.8z" class="hivedav_svg__st4"/><path id="hivedav_svg__path21" d="M335.2 328.4c21-30.4 39.1-29.1 54.7-31.2l18.6 13.7-51.9 52.4z"/><path id="hivedav_svg__path22" d="M364.2 374.7c30.1-27.8 37.8-34.1 78-36.5l48.3 32.3-14.4 29.9h-98.4z"/><pattern xlink:href="#hivedav_svg__path23_000001176495855395045813" id="hivedav_svg__path23_00000013160376926567474590000016189164209337924492_" patternTransform="translate(-6727.311 9234.267)scale(.5803)"/><path id="hivedav_svg__path23" d="M377.7 243.6v11.2c49.2-11.2 51.6 51.1 51.6 51.1 41.3-4.1 74.4 37.3 74.4 37.3L512 326l-35.9-82.4z" style="fill:url(#hivedav_svg__path23_00000013160376926567474590000016189164209337924492_)"/><linearGradient id="hivedav_svg__path24_00000157302211683837211870000013479432987188856505_" x1="79.745" x2="64.697" y1="200.245" y2="187.805" gradientTransform="translate(179.129 -281.594)scale(2.8346)" gradientUnits="userSpaceOnUse"><stop offset="0" style="stop-color:#ffd90b"/><stop offset="1" style="stop-color:#ffed99"/></linearGradient><path id="hivedav_svg__path24" d="M372.2 253.3s13.1 32.9 36.2 57.5l20.9-4.9c7.9-39.7-57.1-52.6-57.1-52.6" style="fill:url(#hivedav_svg__path24_00000157302211683837211870000013479432987188856505_)"/><linearGradient id="hivedav_svg__path25_00000180361351011246748820000002390842300074108058_" x1="102.973" x2="92.185" y1="217.395" y2="203.695" gradientTransform="translate(179.129 -281.594)scale(2.8346)" gradientUnits="userSpaceOnUse"><stop offset="0" style="stop-color:#ffd90b"/><stop offset="1" style="stop-color:#ffed99"/></linearGradient><path id="hivedav_svg__path25" d="M429.3 305.9s12.1 46 61.2 64.7l13.2-27.4c-15.8-33.7-74.4-37.3-74.4-37.3" style="fill:url(#hivedav_svg__path25_00000180361351011246748820000002390842300074108058_)"/><path id="hivedav_svg__path26" d="m429.3 305.9 15.6 38.2s-32.3-17.1-80.6 30.6l-7.7-11.4c23.6-53.7 72.7-57.4 72.7-57.4" class="hivedav_svg__st4"/><path id="hivedav_svg__path28" d="M310.9 249.5c-3.3 42.2-22 65.2-32.1 76.6h52.6l23.2-41.2z"/><path id="hivedav_svg__path29" d="M251.5 322.2c10.7-20.1 17.6-63.9 10.8-94.7l-16-2.6-39.7 44.2c7.3 24.7-4.3 61.2-22 87.4l25.4-3.8 16.3-26.6z"/><path id="hivedav_svg__path30" d="M176.6 283.4c3.2 27.2-13.1 64.3-22.7 67.5l-26.2-24.5 37.3-39.1z"/><path id="hivedav_svg__path39" d="m226.2 326 105.1.3 46.4 74.2-46.4 85.1H227.5l-47.1-85.1z" class="hivedav_svg__st4"/><path id="hivedav_svg__path8_00000158721913683349302080000007681082479408674998_" d="m244.5 367.2 77.3 86.3" class="hivedav_svg__st10"/><path d="M321.8 459.2c-1.6 0-3.1-.6-4.2-1.9L240.3 371c-2.1-2.3-1.9-5.9.4-8s5.9-1.9 8 .4l77.3 86.3c2.1 2.3 1.9 5.9-.4 8-1.1 1-2.5 1.5-3.8 1.5" class="hivedav_svg__st11"/><path id="hivedav_svg__path9_00000088855818866066872900000015606484786813286073_" d="m237.7 453.7 76.6-86.6" class="hivedav_svg__st10"/><path d="M237.7 459.4c-1.3 0-2.7-.5-3.8-1.4-2.3-2.1-2.6-5.7-.5-8l76.6-86.6c2.1-2.3 5.7-2.6 8-.5s2.6 5.7.5 8l-76.6 86.6c-1.1 1.2-2.6 1.9-4.2 1.9" class="hivedav_svg__st11"/><linearGradient id="hivedav_svg__path41_00000174595458184497390610000007831904461093077926_" x1="-25.401" x2="-37.373" y1="222.696" y2="203.268" gradientTransform="translate(179.129 -281.594)scale(2.8346)" gradientUnits="userSpaceOnUse"><stop offset="0" style="stop-color:#ffd90b"/><stop offset="1" style="stop-color:#ffed99"/></linearGradient><path id="hivedav_svg__path41" d="m79.5 290.7 26.6-17.3c14.7 12.3 29.4 14 58.9 13.9 0 0-67.1 79.8-105.1 142z" style="fill:url(#hivedav_svg__path41_00000174595458184497390610000007831904461093077926_)"/><path id="hivedav_svg__path2" d="M50.8 264.4c-5.6 0-10.1 9.9-10.1 22 0 1.4.1 2.7.2 4h19.7c.1-1.3.2-2.7.2-4 .1-12.1-4.4-22-10-22" class="hivedav_svg__st11"/><path id="hivedav_svg__path2-6" d="M164.2 254.6c-5.6 0-10.1 9.9-10.1 22 0 1.4.1 2.7.2 4H174c.1-1.3.2-2.7.2-4 .1-12.2-4.4-22-10-22" class="hivedav_svg__st11"/><path id="hivedav_svg__path2-6-6" d="M367 336.2c-2.5-4.9-13.4-4.5-24.2 1.1-1.2.6-2.4 1.3-3.5 2l9 17.6c1.2-.5 2.5-1.1 3.7-1.7 10.8-5.6 17.5-14.1 15-19" class="hivedav_svg__st11"/><path id="hivedav_svg__path2-6-6-9-3" d="M400.5 380.8c-2.9-4.7-13.7-3.4-24 3-1.1.7-2.3 1.5-3.3 2.3l10.4 16.8c1.2-.6 2.4-1.2 3.5-2 10.3-6.3 16.3-15.3 13.4-20.1" class="hivedav_svg__st11"/><path d="M331.3 489.1H227.5c-1.3 0-2.4-.7-3.1-1.8l-47.1-85.1c-.6-1.1-.6-2.4.1-3.5l45.8-74.5c.6-1 1.8-1.7 3-1.7h103.1l44.4-78.8-44.3-67.7h-84.6c-1.9 0-3.5-1.6-3.5-3.5s1.6-3.5 3.5-3.5h86.5c1.2 0 2.3.6 2.9 1.6l45.4 69.5h96.5c1.4 0 2.6.8 3.2 2.1l35.9 82.4c.4.9.4 2-.1 2.9L479.2 402c-.6 1.2-1.8 2-3.1 2h-96.3l-45.4 83.3c-.6 1.1-1.8 1.8-3.1 1.8m-101.7-7h99.7l45.4-83.3c.6-1.1 1.8-1.8 3.1-1.8H474l34.3-71.1-34.3-78.8h-94.1l-45.4 80.6c-.6 1.1-1.8 1.8-3 1.8H228.2l-43.7 71.1z"/><path d="M381.6 404c-1.1 0-2.2-.5-2.9-1.5L328.4 328c-1.1-1.6-.7-3.8.9-4.9s3.8-.7 4.9.9l50.3 74.5c1.1 1.6.7 3.8-.9 4.9-.6.4-1.3.6-2 .6m-200.9-42.9h-1.8c-23.6-.5-41.6-11.1-52.3-30.6-.9-1.7-.3-3.8 1.4-4.7s3.8-.3 4.7 1.4c9.5 17.4 25 26.5 46.1 27 16.1.4 29.7-4.6 29.8-4.7 1.8-.7 3.8.2 4.5 2s-.2 3.8-2 4.5c-.5.2-13.8 5.1-30.4 5.1m173.8-72.8c-1 0-2-.4-2.7-1.3-43.8-54.5-105.1-58.7-105.7-58.7-1.9-.1-3.4-1.8-3.3-3.7s1.8-3.4 3.7-3.3c.7 0 16.5 1 38.1 9.1 19.9 7.4 48.7 22.5 72.6 52.2 1.2 1.5 1 3.7-.5 4.9-.7.5-1.4.8-2.2.8"/><path d="M144.7 293.4c-28.5 0-47-17.2-52.1-48.6-5.5-33.7-1.1-68.5 12.2-98 12.7-28.2 32.2-48.1 53.5-54.5 31.7-9.6 61.9 11.6 83 58 0 .1.1.1.1.2 14.3 38 8.7 72.6 8.3 74.9-3.7 26.4-60.1 67.5-104.1 68zM173.3 97c-4.3 0-8.6.7-12.9 2-19.3 5.8-37.2 24.3-49.1 50.7-12.8 28.3-16.9 61.7-11.7 94 4.6 28.4 19.8 42.8 45.2 42.8h.8c43.2-.5 94.4-40.7 97.3-62.1v-.1c.1-.5 5.8-34.7-7.9-71.2-10.5-23-22.8-39.2-36.6-48.2-8.2-5.3-16.6-7.9-25.1-7.9"/><path d="M44.6 300.2c-6.5 0-12.9-1.1-18.8-3.7-16.4-7.3-26.2-25-29.2-52.5v-.2c-1.1-18 5.3-54 19.8-87.8 9.6-22.6 30.4-60.8 60.9-63.6 16.3-1.5 32.8 7.3 49.2 26.2 1.3 1.5 1.1 3.7-.4 4.9-1.5 1.3-3.7 1.1-4.9-.4C106.4 106 91.9 98 78 99.3c-26.9 2.4-46.1 38.2-55.1 59.4-14 32.8-20.3 67.3-19.2 84.6 2.7 24.9 11.1 40.6 25.1 46.8 29.5 13.1 74.9-19.3 75.4-19.6 1.6-1.1 3.7-.8 4.9.8 1.1 1.6.8 3.7-.8 4.9-1.8 1.1-33.9 24-63.7 24"/><path d="M162.4 179.9q-.15 0 0 0c-15.9 0-43.6-1.9-58.7-14.2-3.2 3.5-8.2 5.8-14.7 6.9-22.3 3.6-60.9-8.5-69.8-17.3-1.4-1.4-1.4-3.6 0-4.9 1.4-1.4 3.6-1.4 4.9 0 7 7 43.2 18.8 63.8 15.4 6.3-1 10.4-3.3 12.1-6.8.5-1 1.5-1.7 2.6-1.9s2.3.2 3 1.1c20 21.1 91.1 17.6 119.5 3.7 6.5-3.2 9.9-6.6 9.5-9.4-.3-1.9 1-3.7 2.9-4s3.7 1 4 2.9c.7 4.3-1.1 10.8-13.3 16.8-14.7 7.1-40.6 11.7-65.8 11.7m-38.6-55.5h-.1c-1.8-.1-3.2-1.4-3.3-3.2-5.1-60 24-73.5 25.3-74.1 1.8-.8 3.8 0 4.6 1.8s0 3.8-1.8 4.6c-.2.1-18.1 8.8-21.2 43.7 5-10.8 12.1-19.1 21.2-24.8 23.7-14.7 52.2-6.4 53.4-6.1 1.8.6 2.9 2.5 2.3 4.4-.6 1.8-2.5 2.9-4.4 2.3-.4-.1-26.8-7.7-47.7 5.3-13.1 8.1-21.4 22.7-24.8 43.2-.3 1.7-1.8 2.9-3.5 2.9M59.9 432.8c-.4 0-.7-.1-1.1-.2-1.6-.5-2.6-2.1-2.4-3.8L76 290.2c.3-1.9 2-3.2 3.9-3 1.9.3 3.2 2 3 3.9l-17 120.5c17.1-29 55.9-90.6 96.8-127 1.4-1.3 3.6-1.2 4.9.3s1.2 3.6-.3 4.9C113.7 337.6 63.5 430 63 431c-.6 1.1-1.8 1.8-3.1 1.8"/><path d="M145.9 60.8c-5.5 0-9.9-4.4-9.9-9.9s4.4-9.9 9.9-9.9 9.9 4.4 9.9 9.9-4.4 9.9-9.9 9.9m0-12.8c-1.6 0-2.9 1.3-2.9 2.9s1.3 2.9 2.9 2.9 2.9-1.3 2.9-2.9-1.3-2.9-2.9-2.9m54.7 31.4c-5.5 0-9.9-4.4-9.9-9.9s4.4-9.9 9.9-9.9 9.9 4.4 9.9 9.9-4.4 9.9-9.9 9.9m0-12.8c-1.6 0-2.9 1.3-2.9 2.9s1.3 2.9 2.9 2.9 2.9-1.3 2.9-2.9-1.3-2.9-2.9-2.9m303 280.1c-1.1 0-2.3-.6-2.9-1.6-.3-.4-27-41-71-35.7-.9.1-1.8-.2-2.6-.7-.7-.6-1.2-1.4-1.3-2.3-4.6-38.7-20.3-46.5-53.8-49.5-1.9-.2-3.3-1.9-3.2-3.8.2-1.9 1.9-3.3 3.8-3.2 20.6 1.8 32.7 5.6 41.7 13.1 9.6 8 15.4 20.5 18 39.2 46.3-3.4 73.2 37.4 74.3 39.2 1 1.6.6 3.8-1 4.8-.7.3-1.4.5-2 .5"/><path d="M356.5 366.7q-.75 0-1.5-.3c-1.7-.8-2.5-2.9-1.7-4.7 14.4-30.3 34.1-44.8 48.2-51.6 15.4-7.5 27.3-7.7 27.8-7.7 1.9 0 3.5 1.5 3.5 3.5 0 1.9-1.5 3.5-3.5 3.5-.2 0-11.2.3-25.1 7.1-12.9 6.4-31.1 19.9-44.6 48.2-.5 1.3-1.8 2-3.1 2"/><path d="M490.5 374.1c-.3 0-.7 0-1-.1-46.3-13.6-59.7-48-63.6-67.4-.4-1.9.8-3.7 2.7-4.1s3.7.8 4.1 2.7c4.4 21.7 18.2 50.1 58.8 62 1.9.5 2.9 2.5 2.4 4.3-.5 1.6-1.9 2.6-3.4 2.6m-82.2-59.8c-.9 0-1.9-.4-2.5-1.1-8-8.5-14.2-15.1-19.4-21.1-10.2-11.8-16-21.5-17.6-38.4-.2-1.9 1.2-3.6 3.1-3.8s3.6 1.2 3.8 3.1c1.5 15.2 6.5 23.6 16 34.6 5 5.8 11.3 12.5 19.2 20.9 1.3 1.4 1.3 3.6-.2 4.9q-1.05.9-2.4.9"/><linearGradient id="hivedav_svg__path36_00000148656152071012711480000006183766959057599659_" x1="46.203" x2="39.834" y1="243.079" y2="235.268" gradientTransform="translate(179.129 -281.594)scale(2.8346)" gradientUnits="userSpaceOnUse"><stop offset="0" style="stop-color:#ffd90b"/><stop offset="1" style="stop-color:#ffed99"/></linearGradient><path id="hivedav_svg__path36_00000104702048771763516730000012395861034456945795_" d="M337.2 336.6c-26.4 3.8-84.2 54.6-100.5 84.9 72-21.3 134.2-33.9 134.2-33.9z" style="fill:url(#hivedav_svg__path36_00000148656152071012711480000006183766959057599659_)"/><path d="M236.7 425c-1 0-2-.5-2.7-1.3-.9-1.1-1-2.6-.4-3.9 16.5-30.8 74.7-82.6 103.1-86.7 1.3-.2 2.7.4 3.4 1.5l33.7 51c.6 1 .8 2.2.3 3.3-.4 1.1-1.4 1.9-2.5 2.1-.6.1-62.9 12.8-133.9 33.8-.3.1-.7.2-1 .2m98.9-84.5c-24.1 5.5-71.7 46.9-91.1 75.1 56.1-16.2 105.2-27.1 120.7-30.4zM168.5 39c-.2 0-.4-.1-.5-.3-3.1-8.5-8.7-12.3-17-11.8-.3 0-.5-.2-.6-.5 0-.3.2-.5.5-.6 8.8-.6 14.7 3.5 18 12.4.1.3 0 .6-.3.7 0 .1 0 .1-.1.1m-128 65.6c-.1 0-.2 0-.3-.1-.3-.2-.4-.6-.2-.9 4.3-6.9 22.3-18.5 37.4-19.8.4 0 .6.2.7.6s-.2.6-.6.7C63.2 86.3 45.2 97.6 41 104.3c-.1.2-.3.3-.5.3m17.1-17.7c-.1 0-.3-.1-.4-.2-.1-.2-.1-.5.1-.6 4.1-2.8 11.2-4.8 15.3-5 .2 0 .5.2.5.4s-.2.5-.4.5c-4.1.2-10.9 2.1-14.9 4.8 0 0-.1.1-.2.1M223.5 75c-.1 0-.2 0-.3-.1-.3-.2-.3-.5-.1-.8 2.9-4.1 2.5-7.7 2-9.5-.6-2.2-2-4-3.6-4.8-.3-.1-.4-.5-.3-.8s.5-.4.8-.3c2 .9 3.5 3 4.2 5.5.9 3.4.1 7.1-2.2 10.4-.1.3-.3.4-.5.4m-62.6-33.4c-.3 0-.5-.2-.5-.4-.3-2.2-1.9-4.7-4.1-6.2-1.8-1.3-3.9-1.9-5.7-1.5-.3.1-.6-.1-.6-.4s.1-.6.4-.6c2.2-.4 4.5.2 6.5 1.7 2.4 1.7 4.1 4.4 4.5 6.9.1.2-.1.5-.5.5m57.2 31.1c-.1 0-.2 0-.3-.1-.2-.2-.2-.5 0-.6 1.1-1.2 1.6-3 1.4-4.9-.2-1.7-.9-3.2-2-4-.2-.1-.2-.4-.1-.6s.4-.2.6-.1c1.3.9 2.2 2.6 2.3 4.6.2 2.2-.4 4.2-1.7 5.6 0 0-.1.1-.2.1M46.7 422.6c-.2 0-.4-.2-.4-.4-.5-5.4 3.2-32 4.5-37.3.1-.2.3-.4.5-.3s.4.3.3.5c-1.2 4.9-5 31.7-4.5 36.9.1.3-.1.5-.4.6m-4.2-1.8c-.3 0-.4-.2-.4-.4 0-.4 1-11 2-14.1.1-.2.3-.3.5-.3.2.1.3.3.3.5-1 3-2 13.8-2 13.9 0 .2-.2.4-.4.4m59.6-110.2c-.2 0-.5 0-.7-.1-1.9-.4-3.1-2.3-2.7-4.1.1-.6 3.1-14.2 9.4-25.6.9-1.7 3.1-2.3 4.7-1.4 1.7.9 2.3 3.1 1.4 4.8-5.8 10.4-8.6 23.5-8.6 23.6-.4 1.7-1.9 2.8-3.5 2.8"/><path d="M328.7 373.7c-.9 0-1.8-.4-2.5-1.1-1.3-1.4-1.3-3.6.1-4.9.2-.2 6.2-5.9 18.7-11.3 1.8-.8 3.8.1 4.6 1.8.8 1.8-.1 3.8-1.8 4.6-11.3 4.8-16.6 9.9-16.7 9.9-.7.7-1.5 1-2.4 1"/><path id="hivedav_svg__path90" d="M80.6 193.2c-47-6.1-64 33.6-64.4 59.3 2 1.7 8.3 3.5 13.5 3.8 1.9-21.6 9.7-58.1 50.9-63.1" style="fill:#fff;fill-opacity:.1843"/><path id="hivedav_svg__path90-2" d="M96.7 111.4c-27.4-19.4-55.9 27.7-58 36 1.3 1.6 12.1 2.1 17.2 1.5 3.2-8 16.2-41.7 40.8-37.5" class="hivedav_svg__st15"/><path id="hivedav_svg__path90-2-7" d="M183.4 110.7c-27.4-19.4-60.2 34.6-62.3 42.8 1.3 1.6 13.9 2.7 17.8 1.9 3.3-7.9 19.6-44.3 44.5-44.7" class="hivedav_svg__st15"/><path id="hivedav_svg__path90-5" d="M186.3 182.3c-57-1.4-71.1 42.8-70 78.9 3.9 5.6 8.7 5.5 20.2 5.8-1.4-27.6-1.1-74.1 49.8-84.7" style="fill:#fff;fill-opacity:.1857"/><path id="hivedav_svg__path7" d="m88.9 296.8-12.5 86.3s13.8-77.7 20.3-90.4c.1 0-4.3 1.1-7.8 4.1" class="hivedav_svg__st15"/><path id="hivedav_svg__path7-2" d="M331.7 348.7c-17.6 5.1-45.1 29.4-71 55.5 0 0 59-45.9 74.9-50.5.1 0-1.6-3.9-3.9-5" style="fill:#fff5b9;fill-opacity:.9283"/><path id="hivedav_svg__path40" d="M268.3 241.1c14.2 3.2 27.4 9.5 37.2 16.2-.1 7.4-2.6 15-4.5 18.2-5-7.1-28.8-12.8-32.5-12.6 1.2-5.7 2.3-13.2-.2-21.8" style="fill:#ffef95;fill-opacity:.7679"/><path id="hivedav_svg__path40-9" d="M206.5 280.6c-.1 7.4-.7 16-2.6 19.3-6.3 3.1-18.2 4-23.7 3.6.6-5.9.1-4.4.1-10.9 5.8-1.4 17.8-7.3 26.2-12" style="fill:#2a2300;fill-opacity:.1657"/><path id="hivedav_svg__path44" d="M382.7 263.7c2.5 5.8 9.8 15.7 9.8 15.7 4.8-4.1 5.5-7 6.4-10.7-4.5-2.3-11.1-4.2-16.2-5m60.5 52.4c2.5 5.8 7.1 13.4 9.8 17.2 4.4-.3 7.7-8.5 7.7-12.2-4.5-2.3-11.4-5.1-17.5-5" class="hivedav_svg__st15"/></svg>