<svg xmlns="http://www.w3.org/2000/svg" xml:space="preserve" viewBox="0 0 512 512"><path d="M423.1 173.7c-12.1-16.8-63-8.9-125.4 19.2 3.2-6.3 4.7-13.3 4.7-20.3 0-2.6-.2-5.1-.7-7.7-1.5-9-5.7-17.6-12.6-24.4-3.8-3.8-8.1-6.7-12.6-8.9l.2-.5 4.8-10.4c.8-1.7 0-3.7-1.6-4.4-1.7-.8-3.7 0-4.4 1.6l-5.2 11.3c-8.7-2.6-18-2.6-26.6 0l-5.2-11.3c-.8-1.7-2.7-2.4-4.4-1.6s-2.4 2.7-1.6 4.4l4.7 10.1.4.8c-4.6 2.2-8.9 5.1-12.6 8.9-9.1 9.1-13.5 21-13.2 33 .1 6.5 1.6 12.9 4.4 18.9-16.1-7.2-105.8-44.3-123.8-19-16.3 23 33.9 63.3 47.3 74.8l.9-1c.8-.8 1.3-1.8 1.5-2.9-.1-.1-.2-.2-.2-.3 0 0 .5-1.2.2-2.9-.3-1.1-.9-2.1-1.7-3-6.6-6.2-16.9-16.5-24.2-26.5q-1.5-2.1-2.7-3.9c0-.1-.1-.1-.1-.2-.1-.2-.3-.5-.4-.7-5.9-9.5-8-18.2 0-22.2 18.7-9.5 68.4 3.1 124.5 31.6.5.2.9.5 1.4.7 1 .5 2 1 3 1.6 1 .5 2.1 1.1 3.1 1.6-84.2 48.8-141.2 106.9-127.7 130.2 8.4 14.6 43.5 12.7 88.6-3.2l-1.6-2.7c-1.5-2.5-4.5-3.7-7.3-2.8-31.3 9.5-50.8 14-57.5 3.9-1-1.8-1.4-4.1-1.1-6.8 1.6-14.9 23.6-42.8 58.9-71.2 15.8-12.7 34.2-25.5 54.6-37.3l5.5-3.2c1.9 1 3.8 2.1 5.6 3.2 74.1 42.8 121.8 98.9 112.4 115.2l-.2.2v.1c-6.7 10.1-26.2 5.5-57.5-3.9-1.4-.4-2.8-.4-4.1.1.1-.1.1-.2.2-.3-1.3.5-2.4 1.4-3.2 2.7L309 347c45.1 15.9 80.2 17.8 88.6 3.2 9-15.7-13.8-47.1-55.3-80.9-.4-.3-.7-.6-1.1-.9-17.7-14.3-38.7-28.9-62-43-3-1.8-6-3.6-9.2-5.4 49.8-26.3 95.5-40.3 120.3-38 4.6.4 8.5 1.4 11.5 2.9 17.5 8.9-13.2 40-27.1 53.1-1.2 1.1-1.8 2.6-2 4.1 0 .5.1 1.1.1 1.8.2 1.1.7 2.2 1.6 3.1l.9 1c36.7-31 58.7-55.2 47.8-74.3M219 178.6c-2.8-16.9 6.1-33.8 21.7-41h.1c2.7 17-6.3 33.8-21.8 41m75.6 0s-.1 0 0 0c-.1 0-.1.1 0 0-15.5-7.2-24.5-24-21.8-40.9 15.5 7.2 24.5 24.1 21.8 40.9m14.5 142.7c-2.5 8.3-6.4 16.2-11.8 23h-80.6c-5.4-6.8-9.4-14.7-11.8-23zm-74.9 42.2h45.4c-6.9 7.3-12.3 13.7-22.7 32.4-10.4-18.7-15.8-25.1-22.7-32.4m73.9-89.2c3 8.8 4.4 18.3 4 27.7H201.7c-.3-9.4 1-18.8 4.1-27.7 15.4-11.3 32.6-22.6 51.1-33.4 18.6 10.8 35.8 22.1 51.2 33.4M256 0C114.8 0 0 114.8 0 256s114.8 256 256 256 256-114.8 256-256S397.2 0 256 0m0 490.4C126.8 490.4 21.6 385.2 21.6 256S126.8 21.6 256 21.6 490.4 126.8 490.4 256 385.2 490.4 256 490.4"/></svg>