<svg xmlns="http://www.w3.org/2000/svg" xml:space="preserve" viewBox="0 0 512 512"><path d="M256.2 491.5c130.5 0 236.3-105.8 236.3-236.3S386.7 18.8 256.2 18.8 19.9 124.6 19.9 255.1s105.7 236.4 236.3 236.4" style="fill:#ffc000"/><path d="M256 512C114.8 512 0 397.2 0 256S114.8 0 256 0s256 114.8 256 256-114.8 256-256 256m0-490.4C126.8 21.6 21.6 126.8 21.6 256S126.8 490.4 256 490.4 490.4 385.2 490.4 256 385.2 21.6 256 21.6m.9 374.3c10.4-18.7 15.8-25.1 22.7-32.4h-45.4c6.9 7.3 12.3 13.7 22.7 32.4m118-157.6c-2.5 2.4-2.7 6.4-.3 9l.9 1c36.6-31.2 58.6-55.4 47.6-74.5-12.1-16.8-63-8.9-125.4 19.2 3.2-6.3 4.7-13.3 4.7-20.3 0-2.6-.2-5.1-.7-7.7-1.5-9-5.7-17.6-12.6-24.4-3.8-3.8-8.1-6.7-12.6-8.9l.2-.5 4.8-10.4c.8-1.7 0-3.7-1.6-4.4-1.7-.8-3.7 0-4.4 1.6l-5.2 11.3c-8.7-2.6-18-2.6-26.6 0l-5.2-11.3c-.8-1.7-2.7-2.4-4.4-1.6s-2.4 2.7-1.6 4.4l4.7 10.1.4.8c-4.6 2.2-8.9 5.1-12.6 8.9-9.1 9.1-13.5 21-13.2 33 .1 6.5 1.6 12.9 4.4 18.9-16.1-7.2-105.8-44.3-123.8-19-16.3 23 33.9 63.3 47.3 74.8l.9-1c2.4-2.6 2.2-6.6-.3-9-6.6-6.2-16.9-16.5-24.2-26.5-9.5-13.1-9.7-20.9-5.1-25.2 14.3-13.4 67.2 4.3 83.6 10.6 15.8 6 32.8 13.8 50.3 23-84.1 48.7-141.1 106.8-127.6 130.1 8.4 14.6 43.5 12.7 88.6-3.2l-1.6-2.7c-1.5-2.5-4.5-3.7-7.3-2.8-31.3 9.5-50.8 14-57.5 3.9-9.4-16.3 38.3-72.4 112.4-115.2l5.5-3.2c1.9 1 3.8 2.1 5.6 3.2 74.1 42.8 121.8 98.9 112.4 115.2-6.7 10.1-26.2 5.5-57.5-3.9-2.8-.9-5.8.3-7.3 2.8l-1.6 2.7c45.1 15.9 80.2 17.8 88.6 3.2 13.4-23.3-43.5-81.4-127.5-130.1 59.1-31.1 112.3-45 131.8-35.1 17.6 9-13.1 40.1-27 53.2M219 178.6c-2.7-16.9 6.2-33.7 21.7-40.9 2.8 16.9-6.2 33.7-21.7 40.9m75.6 0c-15.5-7.2-24.4-24.1-21.7-40.9 15.4 7.2 24.4 24.1 21.7 40.9m-89.8 142.7c2.5 8.3 6.5 16.2 11.8 23h80.6c5.4-6.8 9.3-14.6 11.8-23zm103.3-47c-15.4-11.3-32.6-22.6-51.2-33.4-18.5 10.8-35.8 22.2-51.1 33.4-3.1 8.8-4.4 18.3-4.1 27.7h110.5c.2-9.4-1.1-18.9-4.1-27.7"/><path d="M294.5 178.7c-15.5-7.2-24.4-24.1-21.7-40.9 15.5 7.1 24.4 24 21.7 40.9m-75.5-.1c-2.7-16.9 6.2-33.7 21.7-40.9 2.7 16.9-6.2 33.7-21.7 40.9m-77.3 65.5s1.3-3.2-1.8-6.2c-13.9-13.1-44.6-44.2-27.1-53.1 19.5-9.9 72.9 4.3 131.9 35.4-29.8 17.3-50.2 31.5-71.8 48.9-23.9-17.4-28.1-21.3-31.2-25m233.6 101.8c-6.7 10.1-26.2 5.5-57.5-3.9-1.4-.4-2.8-.4-4.1.1 9.5-13.9 11.6-39.4 8.3-58v-.4c-1-7.3-2.6-13.1-4.4-15.6 41.4 33.4 64.5 66 57.7 77.8m-32.9-76.4c-21-17.7-42.4-32-72.2-49.2 59.1-31.1 112.3-45 131.8-35.1 17.5 8.9-13.2 40-27.1 53.1-2.5 2.3-1.9 3.4-1.8 6.2-3.2 3.6-6.9 7.5-30.7 25m-145-1.9c-1.8 2.6-3.4 8.3-4.4 15.6v.4c-3.3 18.6-1.2 44.1 8.3 58-1.3-.5-2.7-.6-4.1-.1-31.3 9.5-50.8 14-57.5 3.9-7.1-11.7 16.1-44.4 57.7-77.8" style="fill-rule:evenodd;clip-rule:evenodd;fill:#fff"/></svg>