<?xml version="1.0" encoding="utf-8"?>
<!-- Generator: Adobe Illustrator 28.2.0, SVG Export Plug-In . SVG Version: 6.00 Build 0)  -->
<svg version="1.1"
	 id="svg1" xmlns:svg="http://www.w3.org/2000/svg" xmlns:sodipodi="http://sodipodi.sourceforge.net/DTD/sodipodi-0.dtd" xmlns:inkscape="http://www.inkscape.org/namespaces/inkscape" inkscape:export-filename="hollo.png"
	 xmlns="http://www.w3.org/2000/svg" xmlns:xlink="http://www.w3.org/1999/xlink" x="0px" y="0px" viewBox="0 0 512 512"
	 style="enable-background:new 0 0 512 512;" xml:space="preserve">
<style type="text/css">
	.st0{fill:#FFFFFF;}
</style>
<path class="st0" d="M318.4,95.6c2-0.4,3.8-0.9,5.6-1.6c4.6-1.9,8.6-4.5,11.7-7.9c3.3-3.5,5.7-7.8,7.4-12.8c1.8-5,2.6-10.8,2.6-17.2
	c-0.1-8.6-1.8-15.8-4.9-21.6c-3.3-5.9-7.6-10.4-13.2-13.5c-5.6-3-12-4.5-19.2-4.5c-7.8,0-14.5,1.6-20.1,4.8c-5.7,3.1-10,7.6-13,13.6
	c-3,5.9-4.4,13.1-4.4,21.7c0,6.4,1,12,2.7,17.1c1.9,5,4.6,9.3,7.9,12.7c3.3,3.4,7.2,6,11.7,7.8c1.2,0.4,2.3,0.8,3.5,1.1
	c-14.8,0.5-29.2,2.5-43.1,5.9L220.3,0.2l-20.1,6.7l33.2,100.2c-7.1,2.5-14,5.4-20.7,8.7L160,25l-18.3,10.6l52.5,90.3
	c-10.3,6.4-20,13.6-29.1,21.6c0.7-3.2,1-6.3,0.7-9.5c-0.4-4.8-1.9-9.4-4.5-14.1c-2.5-4.6-6.1-9.1-10.9-13.4
	c-6.4-5.7-12.8-9.4-19.4-11.3c-6.7-1.5-13-1.2-19,0.8c-6.1,2-11.5,5.7-16.4,11.2c-5.2,5.9-8.5,11.9-10,18.1
	c-1.4,6.4-1,12.6,1.5,18.8c2.3,6.3,6.7,12.1,13.1,17.9c4.8,4.2,9.7,7.4,14.6,9.4c5,1.9,10,2.9,14.7,2.7c2.8-0.1,5.5-0.5,8.2-1.4
	c-7.7,10.1-14.6,21-20.4,32.5L21.2,184l-5.5,20.6l38.3,10.2l-10.2,38.8L5.5,243.4L0,264l95.6,25.4c-0.3,4.7-0.5,9.3-0.5,14.1
	c0,115.1,93.3,208.4,208.4,208.4c115.1,0,208.4-93.3,208.4-208.4C511.9,193.3,426.5,103.2,318.4,95.6z M292.3,56.3
	c-0.1-7.6,1.1-13.4,3.5-17.1c2.6-3.8,6.5-5.9,12.1-5.9c3.8,0,7,0.8,9.3,2.5c2.5,1.8,4.1,4.2,5.2,7.6c1.1,3.4,1.8,7.6,1.8,12.7
	c0,5-0.5,9.3-1.6,12.8c-1,3.4-2.7,6-5,7.8c-2.2,1.6-5.2,2.6-9,2.6c-3.8,0-7-0.8-9.3-2.5c-2.5-1.8-4.2-4.4-5.3-7.8
	C292.9,65.7,292.3,61.3,292.3,56.3z M125.6,157.8c-3.3-1.5-6.8-4-10.6-7.4c-5.7-5-9.1-9.8-10.5-14.3c-1.1-4.5,0.1-8.9,3.8-13
	c2.6-2.9,5.2-4.5,8.1-5.2c2.9-0.5,5.9-0.1,9.1,1.4c3.3,1.4,6.8,3.8,10.6,7.2c3.8,3.4,6.5,6.7,8.5,9.8c1.9,3,2.7,6,2.5,9
	c-0.1,2.9-1.6,5.6-4.1,8.5c-2.6,2.9-5.2,4.5-8.1,5.2C132,159.7,128.9,159.2,125.6,157.8z M61,258.1l10.2-38.8l37.5,9.9
	c-4.7,12.4-8.3,25.3-10.6,38.7L61,258.1z"/>
</svg>
