<?xml version="1.0" encoding="utf-8"?>
<!-- Generator: Adobe Illustrator 28.2.0, SVG Export Plug-In . SVG Version: 6.00 Build 0)  -->
<svg version="1.1" id="Layer_1" xmlns="http://www.w3.org/2000/svg" xmlns:xlink="http://www.w3.org/1999/xlink" x="0px" y="0px"
	 viewBox="0 0 512 512" style="enable-background:new 0 0 512 512;" xml:space="preserve">
<style type="text/css">
	.st0{fill-rule:evenodd;clip-rule:evenodd;fill:#DADADA;}
	.st1{fill-rule:evenodd;clip-rule:evenodd;fill:#808080;}
	.st2{fill-rule:evenodd;clip-rule:evenodd;fill:#567F67;}
	.st3{fill-rule:evenodd;clip-rule:evenodd;}
</style>
<path class="st0" d="M253,14.9c-7.2,0.3-14.3,2.3-20.9,5.8c-43,23.3-134.8,73-179.6,97.2c-7.8,4.2-14.1,10.3-18.5,17.6l222.9,119.4
	c0,0-14,23.4-26.5,44.3c-10.6,17.8-33.3,24.2-51.7,14.5L27,233.9v124.6c0,12.7,7.2,24.5,19,30.8c43,23.3,147.4,79.8,190.4,103.1
	c11.8,6.4,26.2,6.4,38,0c43-23.3,147.4-79.8,190.4-103.1c11.8-6.4,19-18.1,19-30.8V160.9c0-17.9-9.8-34.4-25.6-42.9
	c-44.7-24.2-136.5-73.9-179.6-97.2C270.6,16.4,261.7,14.5,253,14.9 M31.3,140.8l-21,40.2c-10,19.1-2.6,42.6,16.4,52.6l0.3,0.1
	 M27,233.9l151.8,79.8c18.4,9.7,41,3.3,51.7-14.5c12.5-20.8,26.5-44.3,26.5-44.3L34.1,135.5l-0.1,0.2l-2.7,5.1"/>
<path class="st1" d="M472.8,131.6c13.8,14.1,23.6,30.4,31.8,47.5c2.6,5.6,2,12.1-1.6,17.1c-3.6,5-9.7,7.6-15.8,6.8l0,0 M256.9,254.9
	v-239c-7.2,0.3-18.3,1.3-24.8,4.8c-43,23.3-134.8,73-179.6,97.2c-7.8,4.2-14.1,10.3-18.5,17.6L256.9,254.9L256.9,254.9z"/>
<path class="st2" d="M452.6,218.3c0-2.3-1.2-4.5-3.3-5.7c-2-1.2-4.5-1.2-6.6,0l-137.2,79.2c-2,1.2-3.3,3.3-3.3,5.7v87
	c0,2.3,1.2,4.5,3.3,5.7c2,1.2,4.5,1.2,6.6,0l137.2-79.2c2-1.2,3.3-3.3,3.3-5.7L452.6,218.3L452.6,218.3z"/>
<path class="st3" d="M452.6,218.3c0-2.3-1.2-4.5-3.3-5.7c-2-1.2-4.5-1.2-6.6,0l-137.2,79.2c-2,1.2-3.3,3.3-3.3,5.7v87
	c0,2.3,1.2,4.5,3.3,5.7c2,1.2,4.5,1.2,6.6,0l137.2-79.2c2-1.2,3.3-3.3,3.3-5.7L452.6,218.3L452.6,218.3z M312.7,299.7v78L442.2,303
	v-78L312.7,299.7z M509.8,176.6C509.8,176.6,509.8,176.6,509.8,176.6c-8.6-18.1-17.7-32.3-28.3-44.2c-5-8.2-12.1-15-20.6-19.6
	c-27.1-14.7-72-39-111.7-60.4c-26.3-14.2-50.9-27.6-67.9-36.8c-8.8-4.8-18.7-7-28.7-6.5v0c-4,0.2-8.1,0.8-11.9,1.9
	c-3.9,1.1-7.8,2.6-11.4,4.6c-17,9.2-41.6,22.5-67.9,36.7c-26.3,14.2-54.9,29.7-79.1,42.8c-12.3,6.6-23.4,12.6-32.6,17.6
	c-4,2.2-7.7,4.8-11,7.9c-3.7,3.4-6.9,7.3-9.5,11.6c0,0.1-0.1,0.1-0.1,0.2l-0.1,0.2c-0.1,0.1-0.1,0.2-0.2,0.4l-2.7,5.1
	c0,0.1-0.1,0.1-0.1,0.2L5.1,178.4c-2.8,5.4-4.5,11.1-5,17.1c-0.5,5.8,0.2,11.5,1.9,17.1c1.7,5.5,4.5,10.6,8.1,15.1
	c3.1,3.8,6.8,7,11,9.6v121.2c0,7.3,2.1,14.5,6,20.9c3.9,6.3,9.4,11.5,16.1,15.1c21.5,11.6,58.4,31.6,95.3,51.6
	c36.8,19.9,73.6,39.8,95.1,51.5c6.6,3.6,14.1,5.5,21.8,5.5c7.6,0,15.1-1.9,21.8-5.5c21.4-11.6,58-31.4,94.7-51.3
	c37-20,74.1-40.1,95.7-51.8c6.7-3.6,12.2-8.8,16.1-15.1c3.9-6.3,6-13.5,6-20.9V208.9c7.1,0,13.9-3.4,18.1-9.3
	C512.5,192.9,513.4,184.1,509.8,176.6z M262.7,21.3c4.6,0.8,9,2.3,13.1,4.5c17,9.2,41.6,22.5,67.9,36.8
	c39.7,21.5,84.6,45.8,111.7,60.4c3.6,2,6.9,4.4,9.8,7.3L262.7,246V21.3z M53.2,124.3c0.7-0.4,1.4-0.9,2.2-1.2
	c38.9-21.1,112-60.6,160.4-86.8l19.1-10.4c3.3-1.8,8.7-3,16.2-3.7v223l-69.6-37.3L42.6,133.5C45.6,129.9,49.1,126.8,53.2,124.3z
	 M15.4,183.8l21-40.2c0,0,0-0.1,0-0.1l212.3,113.7c-4.8,8.1-14.5,24.2-23.3,39c-9.1,15.1-28.4,20.6-44,12.4L29.8,228.8l-0.1-0.1
	c-0.1,0-0.1-0.1-0.2-0.1c0,0,0,0,0,0l0,0c0,0,0,0,0,0C13.2,220.1,6.9,200,15.4,183.8z M249.5,490.8c-3.6-0.6-7.2-1.8-10.4-3.6
	c-21.5-11.6-58.3-31.5-95.1-51.5c-36.9-20-73.8-39.9-95.3-51.6c-9.8-5.3-16-15.2-16-25.7v-115l143.3,75.4c6.6,3.5,13.8,5.2,20.8,5.2
	c15.3,0,30.2-7.8,38.5-21.8c4.8-8,9.8-16.3,14.1-23.6V490.8z M477.9,358.5c0,10.6-6.1,20.4-16,25.7c-21.6,11.7-58.7,31.7-95.7,51.8
	c-36.7,19.9-73.3,39.7-94.7,51.3c-3.3,1.8-6.8,3-10.4,3.6V260.3l211.2-120.7c3.6,6.4,5.6,13.7,5.6,21.3V358.5z M498.3,192.8
	c-2.1,2.8-5.3,4.5-8.8,4.5v-34.2c3.4,5.6,6.6,11.7,9.8,18.4C501.1,185.2,500.7,189.5,498.3,192.8z"/>
</svg>
