<svg xmlns="http://www.w3.org/2000/svg" xml:space="preserve" id="home-information_svg__Layer_1" x="0" y="0" version="1.1" viewBox="0 0 512 512"><style>.home-information_svg__st0{fill:#177072}</style><path d="M512 239.6 256 15.9 0 239.6h107.9v256.5h296.2V239.6z" class="home-information_svg__st0"/><path d="M424.7 207.2 256 59.7 87.3 207.2h53.2v262.4h231V207.2z" style="fill:#fff"/><path d="M295.2 209.6h-78.3c-1.1 0-2-.9-2-2v-39.1c0-1.1.9-2 2-2h78.3c1.1 0 2 .9 2 2v39.1c0 1.1-.9 2-2 2m2 196V243.3c0-1.5-1.2-2.6-2.6-2.6h-77.1c-1.5 0-2.6 1.2-2.6 2.6v162.3c0 1.5 1.2 2.6 2.6 2.6h77.1c1.4 0 2.6-1.1 2.6-2.6" class="home-information_svg__st0"/></svg>