<svg xmlns="http://www.w3.org/2000/svg" xml:space="preserve" id="homelable_svg__Layer_1" x="0" y="0" version="1.1" viewBox="0 0 512 512"><style>.homelable_svg__st0{fill:#0d1117}.homelable_svg__st2{fill:#00d4ff}</style><circle cx="256" cy="256" r="256" class="homelable_svg__st0"/><path d="m256 96 160 144h-32v176H128V240H96z" style="fill:#161b22"/><path d="m420 235.5-160-144c-2.3-2.1-5.7-2.1-8 0l-160 144c-1.8 1.7-2.5 4.3-1.6 6.6s3.1 3.9 5.6 3.9h26v170c0 3.3 2.7 6 6 6h256c3.3 0 6-2.7 6-6V246h26c2.5 0 4.7-1.5 5.6-3.9.9-2.3.3-4.9-1.6-6.6M292 408c0 2.2-1.8 4-4 4h-64c-2.2 0-4-1.8-4-4v-80c0-2.2 1.8-4 4-4h64c2.2 0 4 1.8 4 4zm92-174c-3.3 0-6 2.7-6 6v170h-78.2c.1-.7.2-1.3.2-2v-80c0-6.6-5.4-12-12-12h-64c-6.6 0-12 5.4-12 12v80c0 .7.1 1.3.2 2H134V240c0-3.3-2.7-6-6-6h-16.4L256 104.1 400.4 234z" class="homelable_svg__st2"/><path d="M224 412h64c2.2 0 4-1.8 4-4v-80c0-2.2-1.8-4-4-4h-64c-2.2 0-4 1.8-4 4v80c0 2.2 1.8 4 4 4" class="homelable_svg__st0"/><circle cx="256" cy="264" r="24" class="homelable_svg__st2"/><path d="m178.3 307.3-4.6-6.5 56-40 4.6 6.5zm160-6.6-56-40-4.7 6.5 56 40z" style="opacity:.7;fill:#39d353"/><path d="M176 288c8.8 0 16 7.2 16 16s-7.2 16-16 16-16-7.2-16-16 7.2-16 16-16m160 0c8.8 0 16 7.2 16 16s-7.2 16-16 16-16-7.2-16-16 7.2-16 16-16" style="fill:#39d353"/><circle cx="256" cy="192" r="16" style="fill:#a855f7"/><path d="M252 192h8v48h-8z" style="opacity:.7;fill:#a855f7"/><path d="M256 294c-16.5 0-30-13.5-30-30s13.5-30 30-30 30 13.5 30 30-13.5 30-30 30m0-48c-9.9 0-18 8.1-18 18s8.1 18 18 18 18-8.1 18-18-8.1-18-18-18" style="opacity:.4;fill:#00d4ff"/></svg>