<svg xmlns="http://www.w3.org/2000/svg" xmlns:xlink="http://www.w3.org/1999/xlink" xml:space="preserve" viewBox="0 0 512 512"><defs><path id="homey_svg__a" d="M482.1 375.9c27.4-51.5 37.4-112.6 24.1-174.1-.8-3.7-1.7-7.4-2.7-11C470.8 66.3 350.7-14 224.1 2.1c-7.4.9-14.8 2.1-22.2 3.7C128.7 21.6 69.6 67.4 34.7 127.4 3.7 180.6-8.2 245.2 5.8 310.1c7.7 35.5 22.4 67.7 42.4 95.4C91.4 465.4 159 504.4 233.4 511c25.1 2.2 50.9.7 76.8-4.9 76.6-16.6 137.7-65.9 171.9-130.2m-138.9-2.4c-85 61.2-206.6 21.4-232.8-80-.5-1.9-1-3.8-1.4-5.8-1-4.8-1.8-9.5-2.4-14.3-2.8-23.7.1-46.9 7.8-68.2 17-47.2 57.1-84.8 109.7-96.2 17.7-3.8 35.4-4.4 52.3-2 38.2 5.3 72.9 25.2 96.8 55.1 14.1 17.6 24.4 38.6 29.5 62.1 8.5 39.3.8 78.4-18.7 110.2-11.5 14.8-25.3 28-40.8 39.1"/></defs><clipPath id="homey_svg__b"><use xlink:href="#homey_svg__a" style="overflow:visible"/></clipPath><g style="clip-path:url(#homey_svg__b)"><image xlink:href="7F1D1CFF.png" width="531" height="531" style="overflow:visible" transform="translate(-9.602 -9.519)"/></g><linearGradient id="homey_svg__c" x1="3753.95" x2="4151.504" y1="-3241.64" y2="-3478.44" gradientTransform="scale(1 -1)rotate(-44.895 5954.968 2781.513)" gradientUnits="userSpaceOnUse"><stop offset="0" style="stop-color:#991915"/><stop offset=".924" style="stop-color:#fff"/></linearGradient><path d="M310.1 506.1c-25.9 5.6-51.7 7.1-76.8 4.9-74.3-6.6-142-45.6-185.1-105.5-9.5-17.1-16.7-35.9-21-56-6.3-28.9-6-57.7-.4-84.9C42.3 189.9 99 127.3 177.2 107.5c2.3-.6 4.6-1.2 7-1.7 31.6-6.8 63-6 92.3 1.3-17-2.3-34.6-1.8-52.3 2-52.6 11.4-92.7 49-109.7 96.2-7.7 21.3-10.6 44.6-7.8 68.2.6 10.7 2 21.5 4.3 32.3 8.1 37.6 26.1 70.5 50.7 96.7 47.6 50.8 120 76.1 193 60.3 2.4-.5 4.7-1.1 7-1.7 51.1-12.9 93-44.2 120.3-85.2-34.1 64.3-95.2 113.6-171.9 130.2" style="fill:url(#homey_svg__c)"/><linearGradient id="homey_svg__d" x1="4265.667" x2="3992.391" y1="-3189.655" y2="-3398.929" gradientTransform="scale(1 -1)rotate(-44.895 5954.968 2781.513)" gradientUnits="userSpaceOnUse"><stop offset="0" style="stop-color:#018e95"/><stop offset="1" style="stop-color:#fff"/></linearGradient><path d="M424.3 248.6c-6.5 31.5-20.4 60.8-40.1 85.7 19.5-31.8 27.2-70.9 18.7-110.2-5.1-23.5-15.4-44.5-29.5-62.1-23.9-29.8-58.6-49.8-96.8-55.1-29.4-7.3-60.8-8.1-92.3-1.3-2.4.5-4.7 1.1-7 1.7-78.2 19.9-135 82.5-150.5 157.2-5.7 27.2-5.9 56 .4 84.9 4.4 20.1 11.6 38.9 21 56-20-27.7-34.7-59.9-42.4-95.4-14.1-65-2.1-129.5 28.9-182.7 34.9-60 93.9-105.7 167.2-121.6 7.4-1.6 14.8-2.8 22.2-3.7 57.3.2 111.1 24.4 149.1 65 24.5 26.2 42.5 59.1 50.7 96.7 6.3 28.9 6 57.7.4 84.9" style="fill:url(#homey_svg__d)"/><radialGradient id="homey_svg__e" cx="10290.103" cy="452.288" r="282.076" gradientTransform="matrix(-1 0 0 1 10368.08 0)" gradientUnits="userSpaceOnUse"><stop offset="0" style="stop-color:#5c3b8e"/><stop offset=".102" style="stop-color:#70539c"/><stop offset=".423" style="stop-color:#ad9cc6"/><stop offset=".691" style="stop-color:#d9d2e5"/><stop offset=".891" style="stop-color:#f5f3f8"/><stop offset="1" style="stop-color:#fff"/></radialGradient><path d="M482.1 375.9c-27.3 41-69.2 72.2-120.3 85.2-2.3.6-4.6 1.2-7 1.7-73 15.8-145.4-9.5-193-60.3-24.5-26.2-42.5-59.1-50.7-96.7-2.3-10.8-3.8-21.6-4.3-32.3.6 4.8 1.3 9.5 2.4 14.3.4 1.9.9 3.9 1.4 5.8 26.1 101.4 147.7 141.1 232.8 80 15.5-11.2 29.3-24.4 41-39.2 19.7-24.9 33.5-54.3 40.1-85.7 5.7-27.2 5.9-56-.4-84.9-8.1-37.6-26.1-70.5-50.7-96.7-38-40.6-91.8-64.8-149.1-64.9C350.9-13.8 471 66.5 503.7 191c1 3.6 1.9 7.3 2.7 11 13.1 61.3 3 122.4-24.3 173.9" style="fill:url(#homey_svg__e)"/><linearGradient id="homey_svg__f" x1="477.287" x2="243.17" y1="273.103" y2="6.864" gradientUnits="userSpaceOnUse"><stop offset=".103" style="stop-color:#b9ddcd"/><stop offset="1" style="stop-color:#fae400"/></linearGradient><path d="M376.4 60.7c24.5 26.2 42.5 59.1 50.7 96.7 6.3 28.9 6 57.7.4 84.9-3.7 17.9-9.9 35.1-18.1 51.3 6.7-14.3 11.7-29.4 14.9-45 5.7-27.2 5.9-56-.4-84.9-8.1-37.6-26.1-70.5-50.7-96.7-38-40.6-91.8-64.8-149.1-64.9-3.7.5-7.4 1-11.1 1.6 3.7-.6 7.4-1.2 11.1-1.6C239.5.1 254.9-.4 270 .5c40.8 8.8 78 29.9 106.4 60.2" style="fill:url(#homey_svg__f)"/><linearGradient id="homey_svg__g" x1="147.44" x2="13.569" y1="152.811" y2="351.526" gradientUnits="userSpaceOnUse"><stop offset="0" style="stop-color:#f39b00"/><stop offset="1" style="stop-color:#e95478"/></linearGradient><path d="M17.4 267.7c14.8-71.4 67.4-131.8 140.3-154.2-68 24.5-116.7 82.7-130.9 151-5.7 27.2-5.9 56 .4 84.9 4.4 20.1 11.6 38.9 21 56-12.9-17.9-23.6-37.6-31.6-58.9-4.9-26.8-4.4-53.5.8-78.8" style="fill:url(#homey_svg__g)"/><linearGradient id="homey_svg__h" x1="182.495" x2="339.889" y1="415.793" y2="466.294" gradientUnits="userSpaceOnUse"><stop offset="0" style="stop-color:#a473ae"/><stop offset="1" style="stop-color:#4a84c4"/></linearGradient><path d="M386.2 453.2c-7.9 3.1-16 5.7-24.4 7.9-2.3.6-4.6 1.2-7 1.7-73 15.8-145.4-9.5-193-60.3-6.4-6.8-12.3-14.1-17.8-21.8 7 11.2 15.1 21.7 24 31.2 47.6 50.8 120 76.1 193 60.3 2.4-.5 4.7-1.1 7-1.7 6.8-1.7 13.5-3.8 19.9-6.2z" style="fill:url(#homey_svg__h)"/><radialGradient id="homey_svg__i" cx="9975.046" cy="264.053" r="326.577" gradientTransform="matrix(-1 0 0 1 10368.08 0)" gradientUnits="userSpaceOnUse"><stop offset="0" style="stop-color:#c9a802"/><stop offset="1" style="stop-color:#fff"/></radialGradient><path d="M220.2 52.6c104.3 0 188.8 84.5 188.8 188.8 0 20.9-3.5 41.1-9.8 59.9 7.7-24.1 9.4-50.6 3.6-77.1-3.5-16.2-9.5-31.1-17.5-44.6-3.6-6.1-7.6-12-12-17.5-3-3.7-6.1-7.3-9.5-10.7l-.2-.2c-2.9-3-5.9-5.8-9.1-8.6-1-.9-2.1-1.8-3.2-2.7-2.3-1.9-4.7-3.7-7.1-5.5-1.3-1-2.7-1.9-4-2.8-2.5-1.7-5-3.3-7.6-4.8-1.7-1-3.5-2-5.3-3-5.3-2.9-10.7-5.4-16.3-7.7-2.2-.9-4.4-1.7-6.7-2.5-4.5-1.5-9.1-2.9-13.7-4-4.7-1.1-9.4-2-14.2-2.7-29.4-7.3-60.8-8.1-92.3-1.3-2.4.5-4.7 1.1-7 1.7C105.5 125.4 51.9 179.6 31.5 246c0-1.6-.1-3.2-.1-4.8 0-104.1 84.6-188.6 188.8-188.6" style="fill:url(#homey_svg__i)"/><linearGradient id="homey_svg__j" x1="9970.272" x2="9970.579" y1="306.128" y2="306.128" gradientTransform="matrix(-1 0 0 1 10368.08 0)" gradientUnits="userSpaceOnUse"><stop offset="0" style="stop-color:#65874a"/><stop offset="1" style="stop-color:#fff"/></linearGradient><path d="m397.8 305.7-.3.9z" style="fill:url(#homey_svg__j)"/><linearGradient id="homey_svg__k" x1="9977.141" x2="9983.863" y1="328.249" y2="328.249" gradientTransform="matrix(-1 0 0 1 10368.08 0)" gradientUnits="userSpaceOnUse"><stop offset="0" style="stop-color:#65874a"/><stop offset="1" style="stop-color:#fff"/></linearGradient><path d="M390.9 322.1c-1.6 3.5-3.4 6.9-5.2 10.2-.5.7-1 1.4-1.5 2 2.4-3.9 4.7-8 6.7-12.2" style="fill:url(#homey_svg__k)"/><linearGradient id="homey_svg__l" x1="10255.065" x2="10019.792" y1="607.308" y2="242.742" gradientTransform="matrix(-1 0 0 1 10368.08 0)" gradientUnits="userSpaceOnUse"><stop offset="0" style="stop-color:#5c3b8e"/><stop offset=".188" style="stop-color:#8971ad"/><stop offset=".385" style="stop-color:#b3a4ca"/><stop offset=".572" style="stop-color:#d4cbe1"/><stop offset=".742" style="stop-color:#ece8f2"/><stop offset=".89" style="stop-color:#faf9fb"/><stop offset="1" style="stop-color:#fff"/></linearGradient><path d="M480.8 241.4c0 104.3-84.5 188.8-188.8 188.8-72.5 0-135.5-40.9-167.1-100.9l1.5 2.4c5.6 9.4 12.2 18.1 19.6 25.7 6.2 6.4 12.9 12.1 20 17.2 4.8 3.4 9.7 6.5 14.8 9.3 2.6 1.4 5.2 2.7 7.8 4q6.45 3 13.2 5.4 6.6 2.4 13.5 4.2c10.5 2.7 21.2 4.4 32.1 4.8h.7c32.5 1.2 66-7.9 95.2-28.9 13.6-9.8 25.8-21.1 36.5-33.7 1.5-1.8 3-3.6 4.5-5.5 19.7-24.9 33.5-54.3 40.1-85.7 5.7-27.2 5.9-56-.4-84.9-7.4-34.2-23-64.6-44.3-89.5 60.1 31.7 101.1 94.7 101.1 167.3" style="fill:url(#homey_svg__l)"/><radialGradient id="homey_svg__m" cx="10162.102" cy="106.68" r="333.935" gradientTransform="matrix(-1 0 0 1 10368.08 0)" gradientUnits="userSpaceOnUse"><stop offset="0" style="stop-color:#991915"/><stop offset=".924" style="stop-color:#fff"/></radialGradient><path d="M252 105.6c.7 0 1.3 0 2 .1-3.3 0-6.6.2-9.9.4-6.6.5-13.2 1.5-19.9 2.9-14.3 3.1-27.7 8.2-39.9 14.9-32.8 17.8-57.4 47-69.8 81.3-7.7 21.3-10.6 44.6-7.8 68.2.6 10.7 2 21.5 4.3 32.3 8.1 37.6 26.1 70.5 50.7 96.7 42.1 44.9 103.6 69.9 167.8 64.1-23.6 10.6-49.8 16.6-77.4 16.6-104.3 0-188.8-84.5-188.8-188.8S147.8 105.6 252 105.6" style="fill:url(#homey_svg__m)"/><radialGradient id="homey_svg__n" cx="141.368" cy="350.705" r="343.534" gradientUnits="userSpaceOnUse"><stop offset=".157" style="stop-color:#80529b"/><stop offset=".638" style="stop-color:#4489c8"/><stop offset=".999" style="stop-color:#4bb3e1"/></radialGradient><path d="M434.4 365.2c-34.6 39.8-85.6 65-142.5 65-63.4 0-119.6-31.3-153.8-79.3 33.4 53.3 92.6 88.7 160.1 88.7 58.4 0 110.7-26.6 145.3-68.3z" style="fill:url(#homey_svg__n)"/><linearGradient id="homey_svg__o" x1="394.323" x2="240.07" y1="171.741" y2="81.94" gradientUnits="userSpaceOnUse"><stop offset="0" style="stop-color:#63b673"/><stop offset=".524" style="stop-color:#a3c63b"/><stop offset="1" style="stop-color:#f9e603"/></linearGradient><path d="M220.2 43.2q-5.25 0-10.5.3v9.4q5.25-.3 10.5-.3c102.9 0 186.4 82.3 188.7 184.6 0-1.7.1-3.5.1-5.2.1-104.3-84.5-188.8-188.8-188.8" style="fill:url(#homey_svg__o)"/><linearGradient id="homey_svg__p" x1="179.82" x2="86.995" y1="116.372" y2="302.614" gradientUnits="userSpaceOnUse"><stop offset="0" style="stop-color:#d48024"/><stop offset=".378" style="stop-color:#d56545"/><stop offset=".773" style="stop-color:#d64e62"/><stop offset="1" style="stop-color:#d6456d"/></linearGradient><path d="M71 347.9c-5-17-7.7-34.9-7.7-53.5 0-88.1 60.3-162 141.9-182.9 3.2-.9 6.4-1.7 9.7-2.5 6.6-1.4 13.3-2.4 19.9-2.9 3.3-.3 6.6-.4 9.9-.4-.7 0-1.3-.1-2-.1-104.3 0-188.8 84.5-188.8 188.8 0 18.6 2.7 36.5 7.7 53.5z" style="fill:url(#homey_svg__p)"/></svg>