<?xml version="1.0" encoding="utf-8"?>
<!-- Generator: Adobe Illustrator 28.2.0, SVG Export Plug-In . SVG Version: 6.00 Build 0)  -->
<svg version="1.1" id="Layer_1" xmlns="http://www.w3.org/2000/svg" xmlns:xlink="http://www.w3.org/1999/xlink" x="0px" y="0px"
	 viewBox="0 0 512 512" style="enable-background:new 0 0 512 512;" xml:space="preserve">
<style type="text/css">
	.st0{fill:url(#SVGID_1_);}
	.st1{fill:#730713;}
	.st2{fill:#FF4B45;}
	.st3{fill:#510E1A;}
	.st4{fill:url(#SVGID_00000157999727167734397260000009356780628464612028_);}
	.st5{fill:#AF9F98;}
	.st6{fill:#CDBFBD;}
	.st7{fill:#D9C8BF;}
	.st8{fill:#301621;}
	.st9{fill:#EA4743;}
	.st10{fill:url(#SVGID_00000059997121206542374180000002192891308351863978_);}
	.st11{fill:#3A3B53;}
	.st12{fill:#937B6F;}
	.st13{fill:url(#SVGID_00000093164307621752926580000007642157736183004319_);}
	.st14{fill:url(#SVGID_00000178886183777954071980000003503267629073688983_);}
	.st15{fill:url(#SVGID_00000035488517235806744220000007064710395842005900_);}
	.st16{fill:#4A4155;}
	.st17{opacity:0.4;fill:#937B6F;}
	.st18{fill:url(#SVGID_00000170982730856852182780000014786205411479446401_);}
</style>
<linearGradient id="SVGID_1_" gradientUnits="userSpaceOnUse" x1="144.4969" y1="125.281" x2="374.5913" y2="125.281" gradientTransform="matrix(1 0 0 -1 0 514)">
	<stop  offset="0" style="stop-color:#FE7D6A"/>
	<stop  offset="1" style="stop-color:#D02A2E"/>
</linearGradient>
<path class="st0" d="M279.3,276.9c-39.4-19.9-73.2-7.5-87.7-0.2c0,0,0,0,0,0l-47.1,23.5c8.2-3.8,22.1-3.4,39.6,1.1
	c14,3.6,30.3-9.4,47.6-0.7c52.6,26.5,95.2,66.3,95.2,88.7v115.9l-3.6,5.9l44.8-22.4c3.9-2,6.4-6,6.4-10.4V365.6
	C374.6,343.2,332,303.5,279.3,276.9L279.3,276.9z"/>
<path class="st1" d="M327,389.5v115.9l-3.6,5.9l44.8-22.4c3.9-2,6.4-6,6.4-10.4V365.7L327,389.5z"/>
<path class="st2" d="M231.7,300.7c-52.6-26.5-95.2-17.3-95.2,5.1v107.8c0,4.4,2.5,8.5,6.4,10.4l174.4,87.2c4.4,2.2,9.6-1,9.6-6
	V389.5C327,367,284.3,327.3,231.7,300.7z"/>
<path class="st3" d="M290,282.5l-47.6,23.8c12.6,7,24.5,14.6,35.1,22.5l47.6-23.8C314.5,297.2,302.6,289.5,290,282.5z"/>
<linearGradient id="SVGID_00000018950036117535653670000000068967854649250215_" gradientUnits="userSpaceOnUse" x1="381.7499" y1="522.9462" x2="327.7127" y2="426.5173" gradientTransform="matrix(1 0 0 -1 0 514)">
	<stop  offset="0" style="stop-color:#FE7D6A"/>
	<stop  offset="1" style="stop-color:#D02A2E"/>
</linearGradient>
<path style="fill:url(#SVGID_00000018950036117535653670000000068967854649250215_);" d="M422,38.8c0.4-16.2-11.5-30.5-27.6-33
	c-5.5-0.8-10.9-0.2-15.8,1.5c-5.9,2.1-12.4,2-18.2-0.4c-8.9-3.7-18.5-6-28.6-6.7c-48.9-3.4-92.3,33-97.4,81.8
	c-5.4,51.4,32.8,97.1,84.4,100.9c48.9,3.6,92.4-32.7,97.7-81.5c1.1-10.1,0.5-20-1.6-29.4c-1.3-6.2-0.3-12.5,2.8-18
	C420.3,49.6,421.8,44.4,422,38.8z"/>
<path class="st5" d="M61.2,14.3c-2.2,11.8,4.2,20.9,22.5,58.1c18.4,37.1,28.9,58.9,67.6,81.4l19.4-81.4
	C170.7,72.4,114.7,36.1,61.2,14.3z"/>
<path class="st6" d="M170.7,72.4c0,0-56-36.4-109.6-58.1c0,0,6.1-2.9,19.3,0.5c49.6,18.4,97.2,44.8,97.2,44.8"/>
<path class="st7" d="M152.6,79.8L141.1,128c-23.7-22.3-41.7-57.4-49.8-74.6c-1.5-3.2,2-6.4,5.1-4.7L152.6,79.8L152.6,79.8z"/>
<path class="st8" d="M202.7,310.3c-51.8-27.5-93.8-91.9-93.8-143.7v-48.3c0-51.8,42-71.5,93.8-43.9s93.8,91.9,93.8,143.7v48.3
	C296.5,318.2,254.5,337.8,202.7,310.3z"/>
<path class="st9" d="M202.7,74.5C186.8,66,171.9,62,158.8,62c-29.6,0-49.8,20.5-49.8,56.4v43.3c5.5-4.2,12.6-6.2,17-7.2v-36.1
	c0-14.7,4.3-39.4,32.8-39.4c10.7,0,23.1,3.6,36,10.5c22.6,12,43.9,32.2,60.1,57c15.7,24.1,24.7,50.2,24.7,71.6v48.3
	c0,14.7-4.3,39.4-32.8,39.4c-10.7,0-23.1-3.6-36-10.5c-3.9-2.1-7.7-4.4-11.5-6.9l-11.3,12.9c4.8,3.3,9.8,6.4,14.8,9
	c15.9,8.5,30.8,12.5,44,12.5c29.6,0,49.8-20.5,49.8-56.4v-48.3C296.5,166.3,254.5,102,202.7,74.5L202.7,74.5z"/>
<linearGradient id="SVGID_00000121966263324187194180000002879313458837345707_" gradientUnits="userSpaceOnUse" x1="186.3136" y1="79.0203" x2="186.3136" y2="290.6677">
	<stop  offset="0" style="stop-color:#E0C7CE"/>
	<stop  offset="0.1912" style="stop-color:#DAC0C6"/>
	<stop  offset="0.4869" style="stop-color:#CAAEB0"/>
	<stop  offset="0.8482" style="stop-color:#B0918D"/>
	<stop  offset="1" style="stop-color:#A3837C"/>
</linearGradient>
<path style="fill:url(#SVGID_00000121966263324187194180000002879313458837345707_);" d="M248.2,143.1c-15.3-23.5-35.6-42.7-57-54.1
	c-12.2-6.5-24-9.9-34.1-9.9c-27.1,0-31.1,23.4-31.1,37.4v38.2c-8.1,1.7-25,7.1-25,22.4c0,15.3,16.2,44.8,24.5,58.9l38.7-28
	c1.8-1.3,4.5-0.5,5.2,1.7l21.6,63.1c4.9,14.4,21,21.8,35.1,16c12.3-5,25.2-10.3,29.5-12.4c14.3-6.9,16-32.7,16-32.7V211
	C271.7,190.6,263.1,165.9,248.2,143.1L248.2,143.1z"/>
<path class="st11" d="M127.7,221.8c6-2.3,7.1-14,2.5-26.1c-4.7-12.1-13.3-20-19.3-17.7c-6,2.3-7.1,14-2.5,26.1
	C113,216.1,121.6,224.1,127.7,221.8z"/>
<path class="st11" d="M207.4,233.7l23.1,14.6c4.1,2.6,6.6,7,6.6,11.8c0,3.6-1.3,7-3.7,9.6l-3.4,3.7c-4.3,4.7-10.9,6.6-17,4.5
	c-11.8-4.2-16.5-24.1-18-36.5C194.2,234.7,201.6,230.1,207.4,233.7L207.4,233.7z"/>
<path class="st12" d="M127,234.4c11.5-9.9,23.4-19.1,35.6-28c2.9-2.4,7.6-1.1,8.8,2.5c0.1,0.1,0.4,1.1,0.4,1.3
	c6.6,19.4,12.9,39.2,18.9,58.9c1.6,6.8,5,13.2,10.9,17.4c-4.9-3-8.6-7.7-10.7-13c-6-16.8-15.2-43.5-21.2-60.3c-0.4-1-0.9-3-1.4-3.8
	c-0.7-1.2-2.5-1.6-3.7-0.8c-0.5,0.3-2,1.4-2.6,1.8c-11.5,8.3-23.2,16.6-34.8,24.6c-0.1,0.1-0.3,0.1-0.4-0.1
	C126.9,234.7,126.9,234.5,127,234.4L127,234.4z"/>
<linearGradient id="SVGID_00000016070334646322064130000006652587673385268663_" gradientUnits="userSpaceOnUse" x1="228.7589" y1="492.6685" x2="322.4767" y2="316.8885" gradientTransform="matrix(1 0 0 -1 0 514)">
	<stop  offset="0" style="stop-color:#FE7D6A"/>
	<stop  offset="1" style="stop-color:#D02A2E"/>
</linearGradient>
<path style="fill:url(#SVGID_00000016070334646322064130000006652587673385268663_);" d="M312.3,19.6c-25.6-13.6-48.8-15.7-65.8-8
	c0,0-0.1,0-0.1,0L135.1,67.3c6.9-3.5,14.8-5.3,23.7-5.3c6.9,0,14.4,1.1,22.2,3.4c7,2.1,14.3,5,21.8,9c5.4,2.9,10.6,6.1,15.8,9.7
	c44.3,31,78,87.5,78,133.9v48.3c0,24.6-9.5,42-25,50.4l108.7-54.4c16-8.3,25.8-25.8,25.8-50.9v-48.3
	C406.1,111.5,364.1,47.2,312.3,19.6L312.3,19.6z"/>
<linearGradient id="SVGID_00000040535454770643610280000010441970410956208806_" gradientUnits="userSpaceOnUse" x1="324.4934" y1="310.5653" x2="352.3438" y2="241.9046" gradientTransform="matrix(1 0 0 -1 0 514)">
	<stop  offset="0" style="stop-color:#9F1E28;stop-opacity:0"/>
	<stop  offset="0.22" style="stop-color:#9E1D27;stop-opacity:3.000000e-02"/>
	<stop  offset="0.39" style="stop-color:#9B1D27;stop-opacity:0.1"/>
	<stop  offset="0.55" style="stop-color:#971B26;stop-opacity:0.24"/>
	<stop  offset="0.7" style="stop-color:#911A25;stop-opacity:0.42"/>
	<stop  offset="0.84" style="stop-color:#891824;stop-opacity:0.66"/>
	<stop  offset="0.98" style="stop-color:#801523;stop-opacity:0.96"/>
	<stop  offset="1" style="stop-color:#7F1523"/>
</linearGradient>
<path style="fill:url(#SVGID_00000040535454770643610280000010441970410956208806_);" d="M296.5,215.2c0,1,0.1,2,0.1,2.9v48.3
	c0,24.6-9.5,42-25,50.4l108.7-54.4c16-8.3,25.8-25.8,25.8-50.9v-48.3c0-1,0-1.9-0.1-2.9L296.5,215.2L296.5,215.2z"/>
<linearGradient id="SVGID_00000108292784798993018970000014052062760564443044_" gradientUnits="userSpaceOnUse" x1="126.1608" y1="294.6612" x2="200.1138" y2="251.9644">
	<stop  offset="0" style="stop-color:#F7F3E9"/>
	<stop  offset="0.1635" style="stop-color:#F0ECE4"/>
	<stop  offset="0.4005" style="stop-color:#DDD9D7"/>
	<stop  offset="0.6822" style="stop-color:#BEB9C2"/>
	<stop  offset="0.9961" style="stop-color:#938EA4"/>
	<stop  offset="1" style="stop-color:#928DA4"/>
</linearGradient>
<path style="fill:url(#SVGID_00000108292784798993018970000014052062760564443044_);" d="M191,272.7L191,272.7l-21.7-63.4
	c-0.7-2-3.1-2.8-4.9-1.6l-42.9,31c-6.9,5-11,13-11,21.6c0,10.7,6.4,20.4,16.3,24.5l64.3,27c14.7,6.2,31-4.6,31-20.6V290
	C209,293,195.5,285.8,191,272.7z"/>
<path class="st16" d="M159.1,274.7c3.6-7.7-2.2-18-13-23.1c-10.8-5.1-22.5-3-26.1,4.6c-3.6,7.7,2.2,18,13,23.1
	C143.8,284.4,155.5,282.3,159.1,274.7z"/>
<path class="st17" d="M215,215.2l49.2,27.8c1.6,0.9,1.9,3.1,0.5,4.4l-8.9,8.2c-2.6,2.4-6.8,1.8-8.8-1.2c-2.4-3.6-6.8-8.3-15.1-13.3
	c-12.4-7.5-23.7-14-29.3-17.3c-1.8-1-1.8-3.5-0.2-4.6l5.6-3.7C210.1,214.1,212.8,214,215,215.2z"/>
<path class="st17" d="M147.6,185.8c-11.5-7.7-21.8-22.7-25.2-28.1c-0.6-0.9-0.1-2.2,1-2.4c2.4-0.6,6.3-1.7,8.4-2.9
	c0.7-0.4,1.6-0.2,2.1,0.5c2.8,4.1,11.6,16.4,20.4,22.4c0.7,0.5,0.9,1.4,0.4,2.2l-4.8,7.9C149.4,186.1,148.3,186.3,147.6,185.8
	L147.6,185.8z"/>
<linearGradient id="SVGID_00000137118642672646441630000017336574890474438072_" gradientUnits="userSpaceOnUse" x1="250.3091" y1="260.7263" x2="262.8376" y2="246.9758" gradientTransform="matrix(1 0 0 -1 0 514)">
	<stop  offset="0" style="stop-color:#301621;stop-opacity:0"/>
	<stop  offset="1" style="stop-color:#301621"/>
</linearGradient>
<path style="fill:url(#SVGID_00000137118642672646441630000017336574890474438072_);" d="M264.8,247.2c2.5-2.3,6.5-0.1,5.9,3.2
	c-1.6,8.1-5.5,21.2-15.1,25.9c-1.4,0.7-3.7,1.7-6.6,2.9c0,0,5.4-3.3,4.2-17.5c-0.2-2.4,0.9-4.8,2.7-6.4l8.6-7.9
	C264.7,247.4,264.7,247.3,264.8,247.2z"/>
<path class="st5" d="M276.6,105.8c23.2,28.9,39.2,56.8,44.3,90.6c36.1,4.6,93.8-2.1,130.3-20.6C415.9,153.1,326.3,124.2,276.6,105.8
	z"/>
<path class="st7" d="M333.5,182.5c-3.6-15.9-9.5-31.2-18.3-47c30.7,10.9,65,23.2,92.1,34.9c2.4,1,2.1,4.5-0.5,5.2
	C383,181.2,360.7,182.4,333.5,182.5L333.5,182.5z"/>
<path class="st6" d="M281.1,103.8c-2.5,1.1-4.5,2-4.5,2c49.7,18.4,139.3,47.3,174.6,70c1.1-6.9-8.8-14.9-15.8-19.8
	c-23.8-16.8-92.1-39.8-142.4-57.5C293,98.5,285.9,101.6,281.1,103.8L281.1,103.8z"/>
</svg>
