<?xml version="1.0" encoding="utf-8"?>
<!-- Generator: Adobe Illustrator 28.2.0, SVG Export Plug-In . SVG Version: 6.00 Build 0)  -->
<svg version="1.1"
	 id="svg53" xmlns:svg="http://www.w3.org/2000/svg" xmlns:sodipodi="http://sodipodi.sourceforge.net/DTD/sodipodi-0.dtd" xmlns:inkscape="http://www.inkscape.org/namespaces/inkscape"
	 xmlns="http://www.w3.org/2000/svg" xmlns:xlink="http://www.w3.org/1999/xlink" x="0px" y="0px" viewBox="0 0 512 512"
	 style="enable-background:new 0 0 512 512;" xml:space="preserve">
<style type="text/css">
	.st0{fill:#FFFFFF;}
</style>
<path class="st0" d="M252.5,0c-0.6,0-0.9,0.3-0.9,0.9c0,13.4,0,26.8,0,40.2c0,7.7-2.7,12.3-8.7,16.5c-28.8,20.4-57.6,40.6-86.5,60.8
	c-3.3,2.3-7.1,5.9-7.1,9.5c0,22.8,0,45.8,0,69c0,1-1.2,1.6-2,1.1c-6.3-4.4-12.9-8.8-19.6-13.2c-5.3-3.5-9.6-3.7-15.2,0
	c-11.1,7.5-22.1,15-33.1,22.6c-4.8,3.3-7.2,7.2-7.2,11.6c0,28.3,0,56.6,0,84.9c0,7.3,1.7,9.9,7.3,13.8c11,7.7,22.2,15.3,33.4,22.8
	c3.8,2.6,8.8,2.1,12.6-0.6c7.4-5.4,15-10.6,22.8-15.8c0.6-0.4,0.9-0.2,0.9,0.5c0.2,19.6,0.2,39.1,0.1,58.7c0,4.4,1.2,9,4.7,11.3
	c29.6,20.3,59.1,40.6,88.6,60.9c6.3,4.4,9,8.4,9.1,16.6c0.1,13,0.3,25.9,0.6,38.9c0,0.5,0.4,0.8,0.8,0.8h5.6c0.6,0,1-0.3,0.9-1
	c0-12.6,0-25.3,0-37.9c0-7,1.6-12.2,7.1-16.1c17.8-12.6,47.1-33.1,87.8-61.3c4.8-3.3,6.6-5.8,6.5-12.1c-0.1-19.8-0.1-39.6,0.2-59.6
	c0-0.6,0.3-0.8,0.8-0.4c11.2,7.2,18.6,12.3,22.2,15.1c5.4,4.4,11,4.6,16.7,0.6c11.1-7.8,22.2-15.7,33.2-23.6c3.3-2.3,5-5,5.1-8.1
	c0.4-14.3,0.5-45.8,0.5-94.5c0-0.3-0.9-0.4-0.6-0.7l0.4-0.2c0.4-0.4,0.8-5.3,0.1-5.2c-5.7,1.4-14.4-3.1-18.4-5.9
	c-8-5.6-16.1-11.2-24.2-16.8c-4.7-3.2-9.3-3.1-13.8,0.2c-6.6,4.9-13.3,9.6-20.2,14c-0.6,0.4-0.9,0.2-0.9-0.5
	c-0.1-22.7-0.1-45.5-0.2-68.2c0-5.2-2.3-9.4-6.9-12.6c-16.1-11.1-45.1-31.5-87-61.3c-6.3-4.5-8.3-9.2-8.3-17.3c0-12.7,0-25.3,0-38
	c0-0.6-0.3-0.9-0.9-0.9h-6.3V0z M254.9,70.3c3.3-0.4,6.9,0.4,10.9,3.3c24.9,17.6,49.9,35.2,74.7,52.8c5.7,4,6.7,7.1,6.7,14.3
	c0,7.1,0,14.2-0.1,21.2l-0.4,40c1.4,12.4,11.4,17,21.5,10.3c6.4-4.3,12.8-8.6,19.2-13c5.7-3.8,24,11.4,28.9,15
	c5.8,4.2,6.6,7.1,6.6,14.5c0.1,23.7,0.1,47.4,0,71c0,3.6-1.9,6.8-5.6,9.4c-10.8,7.8-24.2,19.8-31.7,14.7c-7.6-5-19.7-16.1-29.1-14.3
	c-7.5,2-10.8,7.9-10.1,17.5c0.4,15.3,0.5,31.5,0.2,48.6c-0.1,5.7-0.6,8-5.5,11.4c-6.9,4.9-13.9,9.7-20.9,14.6
	c-15.5,10.8-31.1,21.6-46.8,32.3c-12.9,8.8-17.3,12.5-30.5,3.5c-23.9-16.2-47.7-32.5-71.5-48.8c-5.4-3.7-7.3-6.1-7.3-13.2
	c0-16,0-31.4,0-46.2c-0.1-5,0.2-10.4-2.6-14.4c-9.7-13.9-26.8,2.8-35.3,9c-4,2.9-8.3,2.2-12.5-0.6c-7.4-5-14.8-10.1-22.1-15.2
	c-1.9-1.3-3-4.9-3-7.4c0-25.6,0-51.3,0-77c0-7.9,18-17.6,24.1-21.8c5.5-3.8,8.2-4,14,0c8.6,6,26.2,22.4,35.4,7
	c2.3-3.8,1.4-9,1.5-13.4c0-18,0-36.1,0-54.1c0-7.9,1.9-12.1,8.6-15.6l47.2-33.1L239,78.9C244.4,75,249.3,70.9,254.9,70.3L254.9,70.3
	z M258.9,197v-34.5c0-0.7-0.3-1-1-1h-3.7c-0.7,0-1,0.3-1,1l-0.1,34.1c0,0.6-0.3,1.1-0.8,1.4l-6.2,4.4l-37.7,26.4c0,0,0,0,0,0
	L194,239c-0.4,0.3-0.7,0.8-0.7,1.4l-0.3,22.3c0,0.5-0.3,0.8-0.8,0.8h-44.3c-0.5,0-0.8,0.3-0.8,0.8l-0.2,4.2
	c-0.1,0.8,0.3,1.2,1.1,1.2h44.5c0.5,0,0.8,0.2,0.8,0.8v37.3c0,0.1,0,0.1,0,0.2c0.2,0.3,0.3,0.7,0.4,1.2c0,0.7,0.3,1.2,0.8,1.5
	l58.1,39.9c0.4,0.3,0.7,0.8,0.7,1.3l-0.1,36.1c0,0.5,0.2,0.7,0.6,0.7h4.1c0.7,0,1-0.3,1-1l0.3-35.7c0-0.6,0.3-1.1,0.8-1.4l5.6-3.4
	c17-11.8,34.1-23.5,51.1-35.1c0.9-0.6,1.6-1.5,2.1-2.6l-0.5-38.9c-0.1-0.7,0.3-1,0.9-1l13.8-0.1h30.1c0.7,0,1-0.3,1-0.9v-4.2
	c0-0.7-0.3-1-1-1h-43.7c-0.7,0-1-0.3-1-1c0.3-6.6,0.3-13.3,0.1-20c-0.2-4.6-9.2-9.2-12.9-11.8l0,0l-46-32.3
	C259.1,198,258.9,197.5,258.9,197z M312.6,305.5c0.1,0.7-0.2,1.3-0.8,1.7l-54.7,37.7c-0.5,0.4-1,0.4-1.5,0
	c-5.2-3.6-56.5-38.4-56.2-39.6c0.2-19.1,0.3-38.2,0.4-57.3c0.1-2.4-1.1-4.4,1.5-6.2c4.8-3.3,9-6.2,12.6-8.8l41.7-29.1
	c0.2-0.1,0.4-0.2,0.6-0.2s0.4,0.1,0.7,0.3l43.4,30.6l11.4,8.2c0.4,0.3,0.7,0.8,0.7,1.4"/>
</svg>
