<?xml version="1.0" encoding="utf-8"?>
<!-- Generator: Adobe Illustrator 28.2.0, SVG Export Plug-In . SVG Version: 6.00 Build 0)  -->
<svg version="1.1"
	 id="svg53" xmlns:svg="http://www.w3.org/2000/svg" xmlns:sodipodi="http://sodipodi.sourceforge.net/DTD/sodipodi-0.dtd" xmlns:inkscape="http://www.inkscape.org/namespaces/inkscape"
	 xmlns="http://www.w3.org/2000/svg" xmlns:xlink="http://www.w3.org/1999/xlink" x="0px" y="0px" viewBox="0 0 512 512"
	 style="enable-background:new 0 0 512 512;" xml:space="preserve">
<style type="text/css">
	.st0{fill:#30254B;}
	.st1{fill:#FE4F92;}
	.st2{fill:#65A1FA;}
	.st3{fill:#AE6CEC;}
	.st4{fill:#FE884E;}
</style>
<path id="path64" sodipodi:nodetypes="scccccccccccccccccccccccscccccccccccccccccccccccccssccccccccccccccccccccccccccccccccccccccc" class="st0" d="
	M252.5,0c-0.6,0-0.9,0.3-0.9,0.9c0,13.4,0,26.8,0,40.2c0,7.7-2.7,12.3-8.7,16.5c-28.8,20.4-57.6,40.6-86.5,60.8
	c-3.3,2.3-7.1,5.9-7.1,9.5c0,22.8,0,45.8,0,69c0,1-1.2,1.6-2,1.1c-6.3-4.4-12.9-8.8-19.6-13.2c-5.3-3.5-9.6-3.7-15.2,0
	c-11.1,7.5-22.1,15-33.1,22.6c-4.8,3.3-7.2,7.2-7.2,11.6c0,28.3,0,56.6,0,84.9c0,7.3,1.7,9.9,7.3,13.8c11,7.7,22.2,15.3,33.4,22.8
	c3.8,2.6,8.8,2.1,12.6-0.6c7.4-5.4,15-10.6,22.8-15.8c0.6-0.4,0.9-0.2,0.9,0.5c0.2,19.6,0.2,39.1,0.1,58.7c0,4.4,1.2,9,4.7,11.3
	c29.6,20.3,59.1,40.6,88.6,60.9c6.3,4.4,9,8.4,9.1,16.6c0.1,13,0.3,25.9,0.6,38.9c0,0.5,0.4,0.8,0.8,0.8h5.6c0.6,0,1-0.3,0.9-1
	c0-12.6,0-25.3,0-37.9c0-7,1.6-12.2,7.1-16.1c17.8-12.6,47.1-33.1,87.8-61.3c4.8-3.3,6.6-5.8,6.5-12.1c-0.1-19.8-0.1-39.6,0.2-59.6
	c0-0.6,0.3-0.8,0.8-0.4c11.2,7.2,18.6,12.3,22.2,15.1c5.4,4.4,11,4.6,16.7,0.6c11.1-7.8,22.2-15.7,33.2-23.6c3.3-2.3,5-5,5.1-8.1
	c0.4-14.3,0.5-45.8,0.5-94.5c0-0.3-0.9-0.4-0.6-0.7l0.4-0.2c0.4-0.4,0.8-5.3,0.1-5.2c-5.7,1.4-14.4-3.1-18.4-5.9
	c-8-5.6-16.1-11.2-24.2-16.8c-4.7-3.2-9.3-3.1-13.8,0.2c-6.6,4.9-13.3,9.6-20.2,14c-0.6,0.4-0.9,0.2-0.9-0.5
	c-0.1-22.7-0.1-45.5-0.2-68.2c0-5.2-2.3-9.4-6.9-12.6c-16.1-11.1-45.1-31.5-87-61.3c-6.3-4.5-8.3-9.2-8.3-17.3c0-12.7,0-25.3,0-38
	c0-0.6-0.3-0.9-0.9-0.9h-6.3V0z M254.9,70.3c3.3-0.4,6.9,0.4,10.9,3.3c24.9,17.6,49.9,35.2,74.7,52.8c5.7,4,6.7,7.1,6.7,14.3
	c0,7.1,0,14.2-0.1,21.2l-0.4,40c1.4,12.4,11.4,17,21.5,10.3c6.4-4.3,12.8-8.6,19.2-13c5.7-3.8,24,11.4,28.9,15
	c5.8,4.2,6.6,7.1,6.6,14.5c0.1,23.7,0.1,47.4,0,71c0,3.6-1.9,6.8-5.6,9.4c-10.8,7.8-24.2,19.8-31.7,14.7c-7.6-5-19.7-16.1-29.1-14.3
	c-7.5,2-10.8,7.9-10.1,17.5c0.4,15.3,0.5,31.5,0.2,48.6c-0.1,5.7-0.6,8-5.5,11.4c-6.9,4.9-13.9,9.7-20.9,14.6
	c-15.5,10.8-31.1,21.6-46.8,32.3c-12.9,8.8-17.3,12.5-30.5,3.5c-23.9-16.2-47.7-32.5-71.5-48.8c-5.4-3.7-7.3-6.1-7.3-13.2
	c0-16,0-31.4,0-46.2c-0.1-5,0.2-10.4-2.6-14.4c-9.7-13.9-26.8,2.8-35.3,9c-4,2.9-8.3,2.2-12.5-0.6c-7.4-5-14.8-10.1-22.1-15.2
	c-1.9-1.3-3-4.9-3-7.4c0-25.6,0-51.3,0-77c0-7.9,18-17.6,24.1-21.8c5.5-3.8,8.2-4,14,0c8.6,6,26.2,22.4,35.4,7
	c2.3-3.8,1.4-9,1.5-13.4c0-18,0-36.1,0-54.1c0-7.9,1.9-12.1,8.6-15.6l47.2-33.1L239,78.9C244.4,75,249.3,70.9,254.9,70.3L254.9,70.3
	z"/>
<path id="path62" class="st1" d="M163.8,195.5c-0.1,4.5,0.8,9.6-1.5,13.4c-9.2,15.4-26.7-1-35.4-7c-5.7-4-8.5-3.8-14,0
	c-6.1,4.2-24.1,14-24.1,21.8c0,25.7,0,51.3,0,77c0,2.5,1.1,6.1,3,7.4c7.3,5.1,14.7,10.2,22.1,15.2c4.2,2.8,8.4,3.5,12.5,0.6
	c8.5-6.2,25.6-22.8,35.3-9c2.8,4,2.4,9.4,2.6,14.4c8.3-5.3,16.2-10.8,23.7-16.4c1.7-1.3,5.8-2.2,5.3-5.1v-37.3
	c0-0.6-0.3-0.8-0.8-0.8H148c-0.8,0-1.2-0.4-1.1-1.2l0.2-4.2c0-0.5,0.3-0.8,0.8-0.8h44.3c0.5,0,0.8-0.3,0.8-0.8l0.3-22.3
	c0-0.6,0.3-1.1,0.7-1.4l14.4-10.2c-4.3-2.8-42.9-30.1-43.6-29.8c0.7-1.5-0.8,0.1-0.8-0.5C164.2,197.3,164.1,196.3,163.8,195.5
	L163.8,195.5z M213.9,233c-3.6,2.6-7.8,5.5-12.6,8.8c-2.6,1.8-1.4,3.8-1.5,6.2c-0.1,19.1-0.2,38.2-0.4,57.3
	c1.7,0.3,45.5-31.5,58.4-40.4L213.9,233z"/>
<path id="path60" class="st2" d="M390.1,198.6c-1.1-0.1-2,0.1-2.7,0.6c-6.4,4.3-12.8,8.7-19.2,13c-10,6.7-20.1,2.1-21.5-10.3
	l-9.4,6.2l-31.7,22.5c3.7,2.6,12.7,7.2,12.9,11.8c0.2,6.7,0.2,13.4-0.1,20c0,0.7,0.3,1,1,1h43.7c0.7,0,1,0.3,1,1v4.2
	c0,0.6-0.3,0.9-1,0.9H333l-13.8,0.1c-0.6,0-1,0.3-0.9,1l0.3,38.7h1.1c0.6,0,1.1,0.1,1.5,0.5c7.6,6.1,16,11.8,25.1,17.1
	c-0.4-5,0.3-9,2.2-11.9c1.7-2.7,4.3-4.6,7.9-5.6c9.3-1.8,21.5,9.3,29.1,14.3s20.9-6.9,31.7-14.7c3.7-2.7,5.5-5.8,5.6-9.4
	c0.1-23.7,0.1-47.4,0-71c0-7.5-0.8-10.4-6.6-14.5C412.1,211.1,397.5,199,390.1,198.6L390.1,198.6z M300.3,234.6l-41.8,29.6
	c0.5,0.6,0.8,1.3,1.4,1.7c14.9,11.1,30.1,21.9,45.3,32.5c1.8,1.3,4.4,4.4,7.2,4.7v-58.9c0-0.6-0.3-1.1-0.7-1.4L300.3,234.6z"/>
<path id="path63" class="st3" d="M258.5,264.2c-0.6,0.5-0.9,0.8-1.1,1c-13.2,9.1-56.3,40.4-58,40.1c-0.3,1.2,51,36,56.2,39.6
	c0.5,0.4,1,0.4,1.5,0l54.7-37.7c0.6-0.4,0.9-1,0.8-1.7l-0.3-2.4c-2.8-0.3-5.4-3.4-7.2-4.7c-15.3-10.6-30.4-21.5-45.3-32.5
	C259.3,265.5,259,264.8,258.5,264.2z M193.2,307.8c0.5,2.9-3.6,3.8-5.3,5.1c-7.5,5.6-15.3,11.1-23.7,16.4c-0.1,14.8-0.1,30.3,0,46.2
	c0,7.1,1.9,9.4,7.3,13.2c23.8,16.3,47.6,32.6,71.5,48.8c13.2,9,17.7,5.3,30.5-3.5c15.7-10.7,31.3-21.4,46.8-32.3
	c7-4.8,13.9-9.7,20.9-14.6c4.9-3.5,5.4-5.7,5.5-11.4c0.3-17.1,0.2-33.3-0.2-48.6c-9.2-5.3-17.6-11.1-25.1-17.1
	c-0.4-0.4-0.9-0.5-1.5-0.5h-1.1c-0.5,1.1-1.2,2-2.1,2.6c-17,11.6-34.1,23.3-51.1,35.1l-5.6,3.4c-0.5,0.3-0.8,0.8-0.8,1.4l-0.3,35.7
	c0,0.7-0.3,1-1,1h-4.1c-0.4,0-0.6-0.2-0.6-0.7l0.1-36.1c0-0.5-0.3-1-0.7-1.3l-58.1-39.9c-0.5-0.3-0.8-0.8-0.8-1.5
	C193.6,308.6,193.4,308.1,193.2,307.8L193.2,307.8z"/>
<path id="path61" class="st4" d="M256.5,70.2c-6.2-0.1-11.6,4.4-17.5,8.7l-19.4,13.7l-47.2,33.1c-6.7,3.5-8.6,7.8-8.6,15.6
	c0,18.1,0,36.1,0,54.1c0,0.9-0.1,2.5,0,2.8c0.9,0.6-0.1,0,1.1,0.6c0.7-0.3,39.4,27,43.6,29.8l37.6-26.2l6.2-4.4
	c0.5-0.3,0.8-0.8,0.8-1.4l0.1-34.1c0-0.7,0.3-1,1-1h3.7c0.7,0,1,0.3,1,1V197c0,0.5,0.2,1,0.7,1.3l46,32.3l31.7-22.5l9.4-6.2l0.4-40
	c0.1-7,0.1-14.1,0.1-21.2c0-7.3-1.1-10.3-6.7-14.3c-24.9-17.6-49.8-35.3-74.7-52.8C262.4,71.2,259.4,70.2,256.5,70.2z M256.2,203.7
	c-0.2,0-0.4,0.1-0.6,0.2L213.9,233l43.9,31.9c0.2-0.2,0.3-0.3,0.7-0.7l41.8-29.6L256.9,204C256.6,203.8,256.4,203.7,256.2,203.7z
	 M257.8,264.9C257.4,265.2,257.3,265.3,257.8,264.9L257.8,264.9z"/>
</svg>
