<?xml version="1.0" encoding="utf-8"?>
<!-- Generator: Adobe Illustrator 28.2.0, SVG Export Plug-In . SVG Version: 6.00 Build 0)  -->
<svg version="1.1" id="Layer_1" xmlns="http://www.w3.org/2000/svg" xmlns:xlink="http://www.w3.org/1999/xlink" x="0px" y="0px"
	 viewBox="0 0 512 512" style="enable-background:new 0 0 512 512;" xml:space="preserve">
<style type="text/css">
	.st0{fill:#08110F;}
	.st1{fill:url(#SVGID_1_);fill-opacity:0.5;}
	.st2{fill:url(#SVGID_00000146487737251287006270000011182183646207876794_);}
	.st3{fill:url(#SVGID_00000125581853398118442090000017393672476284371097_);}
	.st4{fill:url(#SVGID_00000039855741718949121590000005958820488517084320_);}
	.st5{fill:url(#SVGID_00000144305031388701847070000008958171321188928646_);}
	.st6{fill:url(#SVGID_00000060004874682307082210000005476605648943128238_);}
	.st7{fill:url(#SVGID_00000041985534329200182690000014833581482841583768_);}
	.st8{fill-rule:evenodd;clip-rule:evenodd;fill:url(#SVGID_00000176741327177602175390000000305622078184452260_);}
	.st9{fill-rule:evenodd;clip-rule:evenodd;fill:url(#SVGID_00000061430045400024710680000007266365236043294619_);}
</style>
<path class="st0" d="M114.3,0h283.3C460.8,0,512,51.2,512,114.3v283.3c0,63.1-51.2,114.3-114.3,114.3H114.3
	C51.2,512,0,460.8,0,397.7V114.3C0,51.2,51.2,0,114.3,0z"/>
<radialGradient id="SVGID_1_" cx="-98.6834" cy="1.0087" r="0.6214" gradientTransform="matrix(-634.4763 885.8025 -983.9684 -704.7899 -61113.6719 88132.6094)" gradientUnits="userSpaceOnUse">
	<stop  offset="0" style="stop-color:#00D196;stop-opacity:0.5"/>
	<stop  offset="0.9968" style="stop-color:#00D196;stop-opacity:0"/>
</radialGradient>
<path class="st1" d="M114.3,0h283.3C460.8,0,512,51.2,512,114.3v283.3c0,63.1-51.2,114.3-114.3,114.3H114.3
	C51.2,512,0,460.8,0,397.7V114.3C0,51.2,51.2,0,114.3,0z"/>
<linearGradient id="SVGID_00000165935934192055059520000017293208999392045995_" gradientUnits="userSpaceOnUse" x1="251.8" y1="411.7281" x2="251.8" y2="660.2719" gradientTransform="matrix(1 0 0 1 0 -280)">
	<stop  offset="0" style="stop-color:#00D196"/>
	<stop  offset="1" style="stop-color:#00B381"/>
</linearGradient>
<path style="fill:url(#SVGID_00000165935934192055059520000017293208999392045995_);" d="M270.6,287.8c-3.7,8.4-15.2,11.4-25.5,6.7
	c-10.4-4.6-15.8-15.1-12.1-23.5s15.2-11.4,25.5-6.7C268.9,269,274.3,279.5,270.6,287.8z"/>
<radialGradient id="SVGID_00000034055748846931245970000015268850261342599837_" cx="-98.7035" cy="0.7665" r="0.6214" gradientTransform="matrix(-593.2333 216.107 -131.825 -361.8717 -58052.5742 21821.9492)" gradientUnits="userSpaceOnUse">
	<stop  offset="0" style="stop-color:#FFFFFF"/>
	<stop  offset="1" style="stop-color:#FFFFFF;stop-opacity:0"/>
</radialGradient>
<path style="fill:url(#SVGID_00000034055748846931245970000015268850261342599837_);" d="M270.6,287.8c-3.7,8.4-15.2,11.4-25.5,6.7
	c-10.4-4.6-15.8-15.1-12.1-23.5s15.2-11.4,25.5-6.7C268.9,269,274.3,279.5,270.6,287.8z"/>
<linearGradient id="SVGID_00000062883498521803237880000012121291149435499923_" gradientUnits="userSpaceOnUse" x1="337.3" y1="411.7281" x2="337.3" y2="660.2719" gradientTransform="matrix(1 0 0 1 0 -280)">
	<stop  offset="0" style="stop-color:#00D196"/>
	<stop  offset="1" style="stop-color:#00B381"/>
</linearGradient>
<path style="fill:url(#SVGID_00000062883498521803237880000012121291149435499923_);" d="M332.8,323.8c10.9,3.1,21.7-1.4,24.2-10.2
	c2.5-8.7-4.3-18.4-15.2-21.5c-10.9-3.1-21.7,1.4-24.2,10.2C315.1,311.1,321.9,320.7,332.8,323.8z"/>
<radialGradient id="SVGID_00000052800073682569816770000007322058918423322762_" cx="-98.7035" cy="0.7665" r="0.6214" gradientTransform="matrix(-593.2333 216.107 -131.825 -361.8717 -58052.5742 21821.9492)" gradientUnits="userSpaceOnUse">
	<stop  offset="0" style="stop-color:#FFFFFF"/>
	<stop  offset="1" style="stop-color:#FFFFFF;stop-opacity:0"/>
</radialGradient>
<path style="fill:url(#SVGID_00000052800073682569816770000007322058918423322762_);" d="M332.8,323.8c10.9,3.1,21.7-1.4,24.2-10.2
	c2.5-8.7-4.3-18.4-15.2-21.5c-10.9-3.1-21.7,1.4-24.2,10.2C315.1,311.1,321.9,320.7,332.8,323.8z"/>
<linearGradient id="SVGID_00000026136301031141398500000011285312910980922533_" gradientUnits="userSpaceOnUse" x1="173.2" y1="411.7281" x2="173.2" y2="660.2719" gradientTransform="matrix(1 0 0 1 0 -280)">
	<stop  offset="0" style="stop-color:#00D196"/>
	<stop  offset="1" style="stop-color:#00B381"/>
</linearGradient>
<path style="fill:url(#SVGID_00000026136301031141398500000011285312910980922533_);" d="M181.9,221c9.6,6,13.5,17.1,8.7,24.8
	s-16.5,9.1-26.1,3.1s-13.5-17.1-8.7-24.8C160.6,216.4,172.3,215,181.9,221z"/>
<radialGradient id="SVGID_00000111891902992561135540000001332992448334235798_" cx="-98.7035" cy="0.7665" r="0.6214" gradientTransform="matrix(-593.2333 216.107 -131.825 -361.8717 -58052.5742 21821.9492)" gradientUnits="userSpaceOnUse">
	<stop  offset="0" style="stop-color:#FFFFFF"/>
	<stop  offset="1" style="stop-color:#FFFFFF;stop-opacity:0"/>
</radialGradient>
<path style="fill:url(#SVGID_00000111891902992561135540000001332992448334235798_);" d="M181.9,221c9.6,6,13.5,17.1,8.7,24.8
	s-16.5,9.1-26.1,3.1s-13.5-17.1-8.7-24.8C160.6,216.4,172.3,215,181.9,221z"/>
<linearGradient id="SVGID_00000179638070269515861130000003597195909804449676_" gradientUnits="userSpaceOnUse" x1="255.937" y1="411.7334" x2="255.937" y2="660.1485" gradientTransform="matrix(1 0 0 1 0 -280)">
	<stop  offset="0" style="stop-color:#00D196"/>
	<stop  offset="1" style="stop-color:#00B381"/>
</linearGradient>
<path style="fill-rule:evenodd;clip-rule:evenodd;fill:url(#SVGID_00000179638070269515861130000003597195909804449676_);" d="
	M312.1,143.7c49.1,21.9,80.6,69.6,81.9,122.8c28.9,22.7,57.6,54.6,44.3,84.6c-15,33.6-68.3,32.3-129,15.2
	c-29.2,16.2-65.5,18.9-98.2,4.3c-32.8-14.6-55-43.4-62.5-75.9c-53.2-33.7-90-72.4-75-106c13.4-30,56.2-30,92.5-23.7
	C206.5,130.4,263,121.9,312.1,143.7z M99,200.1c-7.3,16.3,31.8,62.7,138.9,110.4c107,47.7,167.7,45.7,174.9,29.3
	c6-13.5-18.8-39.5-47.1-59.7c-22.1-15.8-52.3-33.2-91.8-50.7c-10.7-4.8-14.9-17.5-10.4-27.7c4.5-10.1,14.4-16.9,35.3-17.9
	c9.8,0,11.1-2.8,11.6-5.1c0.6-3.6-4.4-7.3-9.6-9.6c-41-18.2-91.1-10.6-125.9,26C140.9,187.6,105.1,186.6,99,200.1z"/>
<radialGradient id="SVGID_00000097480725724731944710000007665637059935791518_" cx="-98.7035" cy="0.7665" r="0.6214" gradientTransform="matrix(-593.2333 216.107 -131.825 -361.8717 -58052.5742 21821.9492)" gradientUnits="userSpaceOnUse">
	<stop  offset="0" style="stop-color:#FFFFFF"/>
	<stop  offset="1" style="stop-color:#FFFFFF;stop-opacity:0"/>
</radialGradient>
<path style="fill-rule:evenodd;clip-rule:evenodd;fill:url(#SVGID_00000097480725724731944710000007665637059935791518_);" d="
	M312.1,143.7c49.1,21.9,80.6,69.6,81.9,122.8c28.9,22.7,57.6,54.6,44.3,84.6c-15,33.6-68.3,32.3-129,15.2
	c-29.2,16.2-65.5,18.9-98.2,4.3c-32.8-14.6-55-43.4-62.5-75.9c-53.2-33.7-90-72.4-75-106c13.4-30,56.2-30,92.5-23.7
	C206.5,130.4,263,121.9,312.1,143.7z M99,200.1c-7.3,16.3,31.8,62.7,138.9,110.4c107,47.7,167.7,45.7,174.9,29.3
	c6-13.5-18.8-39.5-47.1-59.7c-22.1-15.8-52.3-33.2-91.8-50.7c-10.7-4.8-14.9-17.5-10.4-27.7c4.5-10.1,14.4-16.9,35.3-17.9
	c9.8,0,11.1-2.8,11.6-5.1c0.6-3.6-4.4-7.3-9.6-9.6c-41-18.2-91.1-10.6-125.9,26C140.9,187.6,105.1,186.6,99,200.1z"/>
</svg>
