<?xml version="1.0" encoding="utf-8"?>
<!-- Generator: Adobe Illustrator 28.2.0, SVG Export Plug-In . SVG Version: 6.00 Build 0)  -->
<svg version="1.1" id="Layer_1" xmlns="http://www.w3.org/2000/svg" xmlns:xlink="http://www.w3.org/1999/xlink" x="0px" y="0px"
	 viewBox="0 0 512 512" style="enable-background:new 0 0 512 512;" xml:space="preserve">
<style type="text/css">
	.st0{fill:#42A544;}
</style>
<path d="M135.2,506.9l16.6,5.1l5.6-16.4c1.8-5.1,3.7-12.1,5.8-19.5c1.2-4.4,2.5-9.1,3.8-13.5c65.2,5.1,83.4,7.5,93.4,8.8
	c5.2,0.7,8.3,1.1,13.6,1.4l4.2,0.2c17.7,1,18.4,1,35.1-0.3l6.7-0.5c26.4-2.1,53.2-17.4,73.5-42.1c21-25.7,31.6-57.1,28.4-84.1
	l-0.8-7c9.3-5.4,18-12.5,25.8-21.1c21-23.4,30.7-53,26-79.2l-2.4-13.3l-13.4-1.4c-7.6-0.8-13.6-1.7-19.7-2.6
	c-12.6-1.9-25.6-3.8-50.5-4.7c-2.2-0.1-4.7-0.2-7.3-0.5c-6.3-0.6-18.7,0.9-30.1,1.8c36.1-20.1,59.8-57.9,68.8-98
	c9.1-40.6,0.9-81.8-22.1-110.3l-8-9.7l-11.9,4c-37,12.6-67.3,40.6-83.1,76.7c-9.5,21.8-15.6,41.9-15.8,62.8
	c-5.8-15.1-12.7-29.5-19.9-40.6c-7.6-11.7-13.2-23.7-17.3-35.2l-5.9-16.3l-16.5,5.3c-31,10-54.7,30.7-66.6,58.5
	c-4,9.4-8.6,24.6-6.5,42.4L131,133.8l-14.5,6.5C83.7,155,57.8,182,45.7,214.2C34,245.5,35.6,279,50.3,311
	c24.9,54.1,46.9,98.8,64.2,130.6c-2.2,8.1-6.1,19.5-11.6,34.3l-7.3,19.5"/>
<path class="st0" d="M230.4,319.1c42.3,3.8,57.9,7.8,145.3,14c42.8,3,87.3-47.8,79.5-91.2c-23.2-2.4-32.8-5.8-69.1-7.2
	c-24.5-1-80.2-14.6-101.6,68.4l-30.2-0.7c9.8-12.1,50.9-38.7,73.6-93.8c76.7-37.2,96.3-135.1,54.1-187.5
	c-68,23.1-103.2,101.3-70.7,173.8c-7.7,32.8-39.4,69.8-72.4,92.1c-2.1-3-3.9-5.6-4.9-7.6c-11.9-24.1-0.8-27.9,4.5-32.4
	c20.3-17.3,28.9-40.2,28.3-66.6C266,140.8,236,109,223.4,73.8c-54.6,17.5-76.5,72.3-52.7,121.4c15.1,31.2,35.3,71.6,50.8,102.7
	c-29.3,24.1-57.8,63.9-71.7,98.9c-1.8,4.6-3.7,9.1-6,14.6c-16.6-22.9-10.3-24.1,4.8-38.1c31.7-29.3,42.5-75,32.2-102.9
	c-11.9-32.3-37.5-78.8-54.3-113.3c-1-2.1,0.8-1.8-2.6-0.3c-52.9,23.7-86.2,84-57.3,146.9c41.6,90.3,63.1,128.6,67,135.5
	c-2.2,11.2-8.4,28.7-13.8,43.1c0.5,0.1,3.3,2.2,20.7,7.5c4.1-11.8,9.2-34.2,14-46c110.8,8.4,104.8,10.4,120.5,11.3
	c23.6,1.3,19.2,1.3,43.6-0.6c47.9-3.8,90.8-61.6,85.5-106.2c0,0-2.2,0.5-33.3-3.2c-24-2.9-27.6-3-51.6-4.8
	c-23.1-1.7-47.9-4.6-68.7,6.6c-21.5,11.5-57.1,32.5-58.4,77.6c0,1.6-20.2-0.8-28.9-2c8.8-35.6,33.4-76.2,58.5-96.7 M413,271.2
	c-3.7,18.4-12.3,36.6-94.1,23.7C343.6,253.8,374,267.7,413,271.2z M366.2,68.8c13.7,34.3-10.2,81.9-32.3,90.7
	C324.7,126.7,341.2,82.6,366.2,68.8z M220.9,220.8c-25.2-44.7-38.9-69.7-11.6-100.2C240.2,170.7,245.4,191.5,220.9,220.8z
	 M125.1,348.9c-11.4-26.4-25-48.5-33.4-75.1c-4.9-27.2,5.7-55,23.4-69.7c15.3,36.3,28.7,54.5,34.5,84.9
	C150.1,319.9,142.5,327.6,125.1,348.9z M229,415.8c4.4-21.7,29.2-43.9,54.2-44.4c26.2-0.5,52.5,3.6,80.3,5.7
	c-10.4,30.9-34.3,49-77.1,45.2C271.2,420.8,244.4,419.2,229,415.8"/>
</svg>
