<?xml version="1.0" encoding="utf-8"?>
<!-- Generator: Adobe Illustrator 28.2.0, SVG Export Plug-In . SVG Version: 6.00 Build 0)  -->
<svg version="1.1" id="Layer_1" xmlns="http://www.w3.org/2000/svg" xmlns:xlink="http://www.w3.org/1999/xlink" x="0px" y="0px"
	 viewBox="0 0 512 512" style="enable-background:new 0 0 512 512;" xml:space="preserve">
<path d="M352.2,220.1c-10.5,0-20.2,3.1-28.3,8.4v-7.8c-0.9-21-18-27.7-22.6-29.9h-0.5v130.5c0,0,15.4-1.6,21.1-10.1
	c8.5,6.1,18.8,9.8,30.3,9.8c28.4,0,51.4-22.6,51.4-50.3S380.5,220.1,352.2,220.1z M352.2,298.3c-15.8,0-28.5-12.5-28.5-27.9
	s12.7-27.9,28.5-27.9s28.4,12.5,28.4,27.9S367.7,298.3,352.2,298.3z M460.6,220.1c-28.4,0-51.4,22.6-51.4,50.3
	c0,27.7,23,50.3,51.4,50.3c11.7,0,22.6-3.8,31.2-10.4c5.3,8.8,20.2,10.4,20.2,10.4v-50.3C512.1,242.7,488.9,220.1,460.6,220.1z
	 M460.6,298.3c-15.8,0-28.5-12.5-28.5-27.9s12.7-27.9,28.5-27.9S489,255,489,270.4S476.3,298.3,460.6,298.3z M51.4,220.1
	C23.1,220.1,0,242.7,0,270.4s23,50.3,51.4,50.3c11.8,0,22.6-3.8,31.2-10.4c5.3,8.8,20.2,10.4,20.2,10.4v-50.3
	C102.6,242.7,79.6,220.1,51.4,220.1z M51.4,298.3c-15.7,0-28.4-12.5-28.4-27.9s12.7-27.9,28.4-27.9s28.5,12.5,28.5,27.9
	S66.9,298.3,51.4,298.3z M163.9,220.1c6.5,0,12.7,1.2,18.4,3.3V250c-4.9-4.2-11.4-6.8-18.4-6.8c-15.5,0-28,12.3-28,27.5v50h-23.6
	v-91.3c0,0,9.7,0.4,15.9,4.8C137.6,225.5,150.1,220,163.9,220.1 M290.5,270.3c-0.1,27.9-22.2,50.4-49.1,50.4s-49.1-22.6-49.2-50.4
	v-43c0,0,23.4,5.8,23.6,31.1V270c0,15.3,11.4,27.6,25.5,27.6s25.5-12.3,25.5-27.6v-24.4c0.9-21,18.6-27.7,23.1-29.9h0.5L290.5,270.3
	L290.5,270.3z"/>
</svg>
