<?xml version="1.0" encoding="utf-8"?>
<!-- Generator: Adobe Illustrator 28.2.0, SVG Export Plug-In . SVG Version: 6.00 Build 0)  -->
<svg version="1.1" id="Layer_1" xmlns="http://www.w3.org/2000/svg" xmlns:xlink="http://www.w3.org/1999/xlink" x="0px" y="0px"
	 viewBox="0 0 512 512" style="enable-background:new 0 0 512 512;" xml:space="preserve">
<style type="text/css">
	.st0{fill:#FFFFFF;}
</style>
<path class="st0" d="M21.5,359c12.1-8,19.9-10.4,19.9-10.4c-5,9.1-8.9,18-12,26.7C26.6,369.9,24,364.5,21.5,359z M398.3,189.9
	c-42.1-11.6-83.4-10.4-91.6-13.4c-8.4-3.3-6-11.3-13.7-21.9c-0.2,14.9-9.4,29.4-22.8,23.7c11.3,17.6-15.2,60-10.1,82
	c1.5,6.6,18.2-2,47.7-11.3c41.8-13.3,124.2-19.6,163.6-14.9C460.8,219.7,440.4,201.5,398.3,189.9z M256,0C128.1,0,22,93.9,3,216.5
	c11.6-9.7,24.3-19.1,38.3-28.4c0,0-5.5-3.4-16.1-2.4c10.5-7.9,33.7-21.7,51.6-31.9l-3.9-7.8c-0.1-0.1-0.1-0.2-0.1-0.2l-0.3-0.5
	c-1.8-3.5-2.8-7.4-2.8-11.5c0-14.1,11.4-25.5,25.5-25.5c9.9,0,18.5,5.7,22.8,14.1h0.1l0.3,0.7c19.9-4.6,44-8.8,67-9.1
	c1.6,0,3.2,0,4.6,0c49.8,0.6,88.6,17.6,100,26.5c11.4,8.9,13.1,18.7,17.1,25.9c3.9,7.2,48.6,5.9,72.2,10.7
	c23.6,4.9,62.4,15.2,84.8,35.9c22.4,20.7,22.2,36.3,22.2,36.3c-73.2-9.1-142.3,22.3-173.6,38.3c11.7,1.5,21.6,2.2,28.7,2.6
	c2.2-4.6,7-7.8,12.4-7.8c7.7,0,13.9,6.2,13.8,13.8c0,7.6-6.2,13.8-13.8,13.8c-5.8,0-10.7-3.6-12.8-8.6c-17.3,0.3-33.4-0.2-48.3-1.4
	c-56.6,44.5-58.9,135.4-89.3,206.6c17,3.5,34.6,5.4,52.6,5.4c141.4,0,256-114.6,256-256S397.4,0,256,0z M238.9,269.1
	c11,4.3,22.1,7.8,32.7,10.6c1.6-0.5,3.3-1.1,5.2-1.8c25.2-9.4,82.9-28.4,175.8-37.8c-61-0.6-121.3,11.4-155.6,23.1
	c-34.3,11.7-41,11.7-46,3.8c-4.9-7.9,1.8-22.3,1.8-22.3C242,250.6,237,260,238.9,269.1z M237.1,175c0.9-0.9,1.9-1.4,2.9-1.9
	c-7.2,2-12.7,8.4-12.7,16.3c0,9.5,7.7,17.2,17.2,17.2s17.2-7.7,17.2-17.2c0-7.2-4.4-13.3-10.7-15.9c0.8,0.5,1.6,0.8,2.2,1.5
	c0.3,0.3,0.5,0.5,0.7,0.8c1.8,1.1,3,3.1,3,5.4c0,0.8-0.2,1.5-0.4,2.2c0,1.5-0.3,2.8-0.9,4.1c-0.6,1.4-1.4,2.6-2.4,3.6
	s-2.2,1.9-3.6,2.4c-1.4,0.6-2.9,0.9-4.5,0.9c-1.6,0-3-0.3-4.4-0.9c-1.4-0.6-2.6-1.4-3.6-2.4s-1.9-2.2-2.4-3.6
	c-0.6-1.4-0.8-2.8-0.8-4.4c0-1.6,0.3-3.1,0.8-4.5C235.3,177.2,236.1,176,237.1,175z M181.3,274.2c5.3,2.3,11,4.5,17.1,6.7
	c-20.3,38-22.7,72.5-27.4,104.1c0,0,0,0.1-0.1,0.2c-8.7,52.8,5.1,79,2.7,113.4c-5.6-1.9-11.1-3.9-16.5-6.2c-2.4-9.2-5-14.3-5-14.3
	s-0.1,4.1-2.1,11.2c-9.3-4.3-18.2-9-26.9-14.3c-0.5-10.9-1.8-17.1-1.8-17.1s-4.8,3-11.5,8.4c-15.4-10.8-29.5-23.1-42.2-36.9
	c0.5-2.2,1-4.4,1.6-6.6c0,0-1.9,1.1-4.8,3c-2.4-2.7-4.6-5.4-6.9-8.1c20-14.4,38.5-21.2,38.5-21.2c-4.6,14.2-8.8,32.5-10.2,50.6
	c5,4.5,10.3,8.8,15.6,12.9c4.6-3.8,10.2-7.8,17.7-13c-12.1-58,12.7-118.8,44.8-162.7c-6.9,2.6-14.3,4-22.1,4
	c-34.4,0-62.2-27.8-62.2-62.2c0-11.4,3.1-22,8.4-31.2c-20.3,14.7-52.7,39.3-71.5,59.6c19.9-9.1,37.8-6.2,37.8-6.2
	c-21.8,17-38.3,33.4-50.9,49.6C1.2,284.3,0,270.3,0,256c0-5.6,0.2-11.1,0.5-16.5c21.5-20.2,46.6-38.4,73.6-56c0,0-5.2-6.2-19-5.6
	c8.7-5.6,17.8-10.5,26.6-14.6l5.8,11.4c-0.6,0.4-1.3,0.8-1.9,1.2c0.9,0,1.7,0,2.5,0l20.9,41.4c-0.8,2.8-1.2,5.8-1.2,8.8
	c0,18.8,15.2,34,34,34c18.8,0,34-15.2,34-34c0.1-14.3-8.7-26.4-21.2-31.5L139.1,164c0.9,0,1.8-0.1,2.7-0.1c10.1,0,19.6,2.4,28,6.7
	c11.6-5.1,23.8-9.2,36.5-12.2c47.9-11.2,66.4,10.3,71.8-1c4.3-9.5-17.5-15.9-49.9-16.3c-27.1-0.3-61.5,3.6-93.8,13.5l-4.4-8.7
	c7.5-2,12.1-2.9,12.1-2.9s-3-5.8-18.6-10l-1.6-3.1c23.4-3.4,44.3-5,62.6-5.1c60.9-0.3,94,14.5,99.1,24.4c3.3,6.1,2.2,16.2-5.2,19.7
	c-7.8,3.7-14.5-7.2-48.7-4.9c-18,1.2-32.9,5.1-50.1,12.7c12,9.2,20.6,22.7,23.4,38.3c14.3,4.6,28.3,8,43.1,5.2
	c0.1-0.1,0.2-0.1,0.3-0.2c-0.1,0.1-0.1,0.1-0.2,0.2c0,0,0,0,0,0c0,0,0,0,0,0c-13.4,12.7-24.2,25.1-32.9,37.1
	c-4.6-2.5-9.2-5.2-13.7-8.1C195.7,259,189.3,267.6,181.3,274.2z M201.7,242.7c8.2-7,16.2-12.6,23.6-16.3c-6,0.5-13.3-1.2-21.4-3.6
	c0.1,1.1,0.1,2.2,0.1,3.3C204,231.9,203.2,237.4,201.7,242.7z M137.1,433.9c4.9-2.8,9.9-8.5,14.6-15c-4.6,6.4-9.7,12-14.5,14.8
	c-6.4-31.6-3-93.7,44.9-154.5C134,340,130.6,402.2,137.1,433.9z"/>
</svg>
