<?xml version="1.0" encoding="utf-8"?>
<!-- Generator: Adobe Illustrator 28.2.0, SVG Export Plug-In . SVG Version: 6.00 Build 0)  -->
<svg version="1.1" id="Layer_1" xmlns="http://www.w3.org/2000/svg" xmlns:xlink="http://www.w3.org/1999/xlink" x="0px" y="0px"
	 viewBox="0 0 512 512" style="enable-background:new 0 0 512 512;" xml:space="preserve">
<style type="text/css">
	.st0{fill-rule:evenodd;clip-rule:evenodd;}
</style>
<g>
	<path d="M251.7,512c-14.3,0-28.5-3.6-41.2-10.9L72.1,421.5c-27.3-15.8-44.2-45-44.2-76.2V173.9c0-31.7,16.1-60.5,43-77.1l136-84
		c26.8-16.6,60.4-17,87.7-1.2l0,0l151.4,88.1c23.4,13.7,37.9,38.9,37.9,65.7V346c0,29.4-15.9,56.6-41.6,70.9l-150.2,84.5
		C279.7,508.5,265.7,512,251.7,512z M251.8,35.7c-9,0-18,2.5-26,7.4l-136.1,84c-16.3,10.1-26.1,27.5-26.1,46.7v171.4
		c0,18.5,10.1,35.9,26.3,45.3l138.2,79.5c14.3,8.2,32.1,8.3,46.5,0.2L425,385.7c14.4-8.1,23.3-23.3,23.3-39.7V165.5
		c0-14.2-7.7-27.6-20.1-34.9L276.8,42.5C269,38,260.4,35.7,251.8,35.7z"/>
	<polygon class="st0" points="150.9,392 150.9,117.8 208.4,117.8 208.4,217.7 303.5,217.7 303.5,117.8 361.1,117.8 361.1,392 
		303.5,392 303.5,272.1 208.4,272.1 208.4,392 	"/>
</g>
</svg>
