<svg xmlns="http://www.w3.org/2000/svg" xml:space="preserve" viewBox="0 0 512 512"><path d="m160.5 0 97.3 117.4.6 41.8 9.4-1.2 12.1 2.2 23.5 11 11.4 5.7 4.6 31.3 88.2 75.4 49.8 129.1L337.9 512H205.1L85.6 412.7l49.8-129.1 79.2-65.5 36.9 15.6 28.6-13.5-31.9.7-23.5-13.6 2.1-22.7-29-14.6-55.1-66.1zm23.7 190.6 17 6.5-5.7 20.2-83.4 22.7-60 22.6-18.7-7.3v-29.9l52.3-6.5zM451 146l27.6 21-9.7 23.6h-41.4l-84.3 9.6 6.5-14.8 21.1-9.6 24.3-7.1zM435.6 28.9 415 132.3l-75.2 42.1-14.8 1.4-7.2-7.3 33.5-23.4 20.6-45.8-44.7 24.1-21.9 34.8-22.3-5.1 19.5-49.3z" style="fill-rule:evenodd;clip-rule:evenodd;fill:#cb272c"/></svg>