<svg xmlns="http://www.w3.org/2000/svg" xml:space="preserve" viewBox="0 0 512 512"><path d="M.8 245.4c-1.7-25.5 12.4-43.9 27.9-61.9 26.1-30.5 51.9-61.3 77.8-92.1 18.5-21.8 36.2-44.5 55.8-65.1C188.6-1 221.3-6.1 256 6.8 323 32 389.6 58.4 456.4 84.4c37.7 13.7 60.3 52.2 53.8 91.8-1 7.2-.9 14.6-2.5 21.7-4 16.6-20.3 27.2-37.2 24.1-13.3-2-25.3-9.2-33.2-20-8.2-11.8-20.3-20.4-34.3-24.1-16.8-3.7-29.7 3.7-40.4 15-29.7 31.2-36.2 82-17.4 120.6 16.3 34.1 75.8 43.7 97.7 6.5 6-11.8 19.2-18.2 32.3-15.6 12.5 1.7 23.5 9.5 24.1 21.5.8 26.7 2.7 54.3-7.4 79.6-9.2 24.8-30.2 43.5-55.9 49.7-70.7 18.6-141.5 36.7-212.5 54.3-35.5 9-72.7-5.6-92.7-36.2C91.9 413.5 53.1 353.8 14.5 294 4.8 279.7-.1 262.6.8 245.4" style="fill:#47bbc7"/></svg>