<svg xmlns="http://www.w3.org/2000/svg" xml:space="preserve" viewBox="0 0 512 512"><path d="M247.1 1.1c9 .2 14.3.9 20 2.4 4.2 1.2 10.6 3.4 14.3 5.1s8.8 4.5 11.4 6.4c2.6 1.8 7.5 5.9 10.9 9.1s8.3 9 11 12.9 5.9 9.1 7.2 11.8c1.3 2.6 3.5 8.3 4.8 12.8 1.4 4.5 2.9 11.7 3.5 16.2.8 5.9.8 10.5.1 17.1-.6 5-2.7 14.3-4.8 20.9-2 6.5-4.2 15.1-4.7 19-.7 4.7-.7 10.1-.1 15.7.4 4.8 1.5 12 2.4 16.2.8 4.2 2.8 11.8 4.2 16.9 1.5 5.1 4.5 13.9 6.7 19.5 2.1 5.6 5.9 14.9 8.5 20.6 2.6 5.8 7.2 15.4 10.2 21.4 3.1 6 8.6 15.8 12.1 21.9 3.5 6 8.6 14.1 11.2 18s7.5 10.8 11 15.2c3.4 4.5 8.2 10.4 10.5 13.2 2.4 2.8 8.4 8.5 13.4 12.6 5 4.2 11.8 9 15.2 10.8s10.5 4.3 15.9 5.6 12.4 3.4 15.7 4.7c3.2 1.2 9.1 4.1 13 6.4s10.2 7 13.8 10.5c3.7 3.5 8.9 9.5 11.5 13.4 2.7 3.8 5.9 8.9 7 11.3 1.2 2.3 3 6.7 4 9.5 1 2.9 2.4 8.3 3.2 11.9.8 3.7 1.5 11.1 1.5 16.6 0 5.8-.7 13.2-1.5 17.6-.9 4.2-2.5 10-3.7 12.9s-4 8.6-6.4 12.7c-2.3 4.1-6.9 10.3-10 13.8-3.2 3.4-8.8 8.5-12.4 11.2-3.7 2.7-9.8 6.5-13.8 8.4-3.9 2-10.3 4.4-14.2 5.4s-12.1 2.1-18.1 2.4c-8.2.4-13.2.1-19.5-1.1-4.7-.9-11.8-2.9-15.7-4.4s-10.4-4.9-14.3-7.5-9.5-6.8-12.4-9.4c-2.9-2.5-8.3-8.8-12-14s-9.7-12.5-13.3-16.2-9.4-8.7-12.7-11.1c-3.4-2.4-10.2-6.6-15.2-9.3s-13.1-6.7-18.1-8.7-13.3-5.3-18.5-7.1c-5.3-1.8-15.3-5-22.4-6.9-7-2-19.9-5.2-28.5-7.1-8.6-1.8-21.9-4.3-29.5-5.5-11.4-1.8-17.8-2.1-37.1-2.1-21.2 0-23.9.1-30.9 2.1-4.2 1.2-10.2 3.4-13.3 4.9s-9.6 5.3-14.3 8.3c-5.4 3.5-11.6 6.5-17.1 8.3-7.7 2.6-9.7 2.9-20.9 2.9-10.4 0-13.4-.4-19-2.3-3.7-1.2-9.7-3.7-13.3-5.6-4.6-2.4-9.1-5.9-14.7-11.6-5.5-5.6-9.2-10.2-11.6-14.8-1.9-3.7-4.5-9.9-5.7-13.8-1.9-6-2.2-9.1-2.2-20 .1-11.5.3-13.6 2.7-20.4 1.4-4.2 4.4-10.6 6.5-14.3 2.2-3.7 6.8-9.4 10.3-12.9 3.5-3.4 8.6-7.5 11.5-9.2 2.8-1.7 7.6-4.2 10.8-5.4 3.1-1.3 11-3.3 17.6-4.4 6.5-1.1 13.8-2.8 16.2-3.7 2.3-.9 7.7-3.6 11.8-6 4.2-2.5 11-7.4 15.1-10.9 4.2-3.6 11.4-11 16-16.5 4.7-5.5 12.4-15.8 17-22.8 4.7-7.1 11.2-18.2 14.5-24.7 3.4-6.6 7.6-16.2 9.6-21.4 1.9-5.2 4.6-14 6-19.5 2.1-8.6 2.5-11.9 2.4-23.3-.1-12.2-.4-14.3-3.7-26.6-3.1-11.8-3.6-15-4-27.6-.4-12.4-.1-15.4 1.6-22.8 1.1-4.8 3.4-11.6 5.1-15.2 1.7-3.7 5.2-9.8 7.8-13.7s7.8-9.9 11.4-13.3c3.7-3.5 8.6-7.7 10.9-9.3s6.4-4 9.1-5.3c2.6-1.2 7.8-3.4 11.4-4.5 3.7-1.2 9-2.8 11.8-3.4 4-.8 10.6-1.2 18.3-.9m-30.4 182.6c-4.8 2.9-11.6 7.8-15.1 10.8-3.6 2.9-9.6 8.6-13.2 12.5-3.7 3.9-9.2 10.3-12.4 14.3-3.1 3.9-9.1 12.2-13.2 18.5-4.2 6.3-11.1 18.7-15.4 27.6-4.4 8.9-9.2 20-10.8 24.7-1.5 4.7-3.4 11.6-4 15.2s-1 10.1-.7 14.3c.3 5.3 1.1 9.1 2.8 12.8 1.3 2.9 4.2 7.3 6.6 9.9 2.3 2.6 6.6 6.3 9.4 8.2 2.9 2 8.3 5 11.9 6.9 3.7 1.9 9.4 4.5 12.8 6s10.5 4.1 15.7 5.9 15.3 4.7 22.3 6.4c7.1 1.8 17.3 4.1 22.8 5.2s14.9 2.6 20.9 3.4c6 .7 17.3 1.9 25.2 2.5 7.8.6 18.1.8 22.7.4 4.8-.3 11.3-1 14.8-1.6 3.4-.5 9.1-1.8 12.8-2.9s7.8-2.6 9.3-3.3 4.4-2.9 6.6-4.9c2.1-1.9 4.8-5.5 5.9-7.8 1.8-3.7 2-6 1.9-18.5-.1-13.2-.4-15.3-3.4-27.1-1.8-7-5.5-18.6-8.2-25.7-2.6-7-6.7-17-9-22.3-2.3-5.2-7.7-16.2-12-24.2-4.4-8.1-11.2-19.9-15.1-26.2-4-6.3-9.7-14.7-12.7-18.7-3-4.1-9.7-11.6-14.8-16.8-6.9-7.1-10.7-10.2-14.9-12.1-5-2.3-7-2.7-16.2-2.9-8.9-.2-11.6.1-17.6 2.1-3.9 1-11 4.5-15.7 7.4" style="opacity:.99;fill-rule:evenodd;clip-rule:evenodd;fill:#fff"/></svg>