<svg xmlns="http://www.w3.org/2000/svg" xml:space="preserve" viewBox="0 0 512 512"><path d="M196 208.1V29.7h-90.9v452.6H196V285.9h46V208zm18.7 15.1c6.7 0 12.2 5.5 12.2 12.2v23.3c0 6.7-5.5 12.2-12.2 12.2h-21.6c-6.7 0-12.2 5.5-12.2 12.2v172c0 6.7-5.5 12.2-12.2 12.2h-36.3c-6.7 0-12.2-5.5-12.2-12.2V57c0-6.7 5.5-12.2 12.2-12.2h36.3c6.7 0 12.2 5.5 12.2 12.2v154c0 6.7 5.5 12.2 12.2 12.2zm43.3-43.6h-18c-6.7 0-12.2-5.5-12.2-12.2V12.2c0-6.7-5.5-12.2-12.2-12.2H87.2C80.5 0 75 5.5 75 12.2v487.6c0 6.7 5.5 12.2 12.2 12.2h128.4c6.7 0 12.2-5.5 12.2-12.2v-172c0-6.7 5.5-12.2 12.2-12.2h18c6.7 0 12.2-5.5 12.2-12.2V191.8c0-6.8-5.5-12.2-12.2-12.2m-2.9 109c0 6.6-5.3 11.9-11.9 11.9h-18.6c-6.6 0-11.9 5.3-11.9 11.9V485c0 6.6-5.3 11.9-11.9 11.9H102c-6.6 0-11.9-5.3-11.9-11.9V27c0-6.6 5.3-11.9 11.9-11.9h98.9c6.6 0 11.9 5.3 11.9 11.9v155.8c0 6.6 5.3 11.9 11.9 11.9h18.6c6.6 0 11.9 5.3 11.9 11.9v82zM424.8 0H298.2C291.5 0 286 5.5 286 12.2v487.6c0 6.7 5.5 12.2 12.2 12.2h126.6c6.7 0 12.2-5.5 12.2-12.2V12.2C437 5.5 431.5 0 424.8 0m-2.9 484.5c0 6.9-5.6 12.4-12.4 12.4h-95.9c-6.9 0-12.4-5.6-12.4-12.4v-457c0-6.9 5.6-12.4 12.4-12.4h95.9c6.9 0 12.4 5.6 12.4 12.4zM317 482.3h90V29.7h-90zM332 57c0-6.7 5.5-12.2 12.2-12.2h35.4c6.7 0 12.2 5.5 12.2 12.2v398c0 6.7-5.5 12.2-12.2 12.2h-35.4c-6.7 0-12.2-5.5-12.2-12.2z"/></svg>