<svg xmlns="http://www.w3.org/2000/svg" xml:space="preserve" viewBox="0 0 512 512"><path d="M434.9 0H77.1C34.5 0 0 34.5 0 77.1v357.7C0 477.5 34.5 512 77.1 512h357.7c42.6 0 77.1-34.5 77.1-77.1V77.1C512 34.5 477.5 0 434.9 0M256 448c-38.5 0-69.6-31.2-69.7-69.7 1-38.5 33-68.9 71.5-67.8 37.1 1 66.9 30.8 67.8 67.8.1 38.5-31.1 69.7-69.6 69.7m139.3-34.1c-19.6 8.5-42.4-.4-51-20.1-8.5-19.6.4-42.4 20.1-51V226l-74.3 49.6V169.9l-33.7-50.2-34.4 52.4v103.4L147.6 226v116.9c13.7 6 23.2 19.6 23.2 35.5 0 15.4-9.1 29.4-23.3 35.5-19.6 8.5-42.4-.4-51-20.1-8.5-19.6.4-42.4 20.1-51V168.4l74.3 49.6v-55.1L255.7 64l65.4 96.3v57.6l74.3-49.6v174.5c13.7 6 23.2 19.6 23.2 35.5 0 15.5-9.1 29.4-23.3 35.6" style="fill:#fff"/></svg>