<svg xmlns="http://www.w3.org/2000/svg" xml:space="preserve" viewBox="0 0 512 512"><linearGradient id="icloud_svg__a" x1="8151.554" x2="2841.913" y1="-5021.914" y2="-4948.677" gradientTransform="matrix(.09676 0 0 -.09676 -274.314 -225.56)" gradientUnits="userSpaceOnUse"><stop offset="0" style="stop-color:#3e82f4"/><stop offset="1" style="stop-color:#93dcf7"/></linearGradient><path d="M293.6 91.5c-50.2.1-96.4 27.3-120.9 71.1-10.4-5-21.7-7.7-33.3-7.7-37.3.1-69 27.2-75 64C25.4 235.2 0 273.4 0 315.7c.1 57.9 47 104.8 105 104.8 4.4 0 8.8-.4 13.2-.9h291.7c1.5.1 3.1.2 4.6.2s2.9-.1 4.4-.2h7v-.6c49.2-5.8 86.2-47.7 86.2-97.4v-.2c-.1-47.1-33.5-87.4-79.5-96.2-2.9-74.6-64.3-133.8-139-133.7" style="fill:url(#icloud_svg__a)"/></svg>