<svg xmlns="http://www.w3.org/2000/svg" xml:space="preserve" viewBox="0 0 512 512"><path d="M359.1 512H152.9C68.5 512 0 443.5 0 359.1V152.9C0 68.5 68.5 0 152.9 0h206.2C443.5 0 512 68.5 512 152.9v206.2c0 84.4-68.5 152.9-152.9 152.9"/><path d="M168.5 257c-8.5.5-17.2-.1-25.7-2.4-14.2-3.9-26.5-10.9-34.8-23.4-9.4-14.1-10.6-29.5-5.3-45.3 6.1-18.2 18.3-31.8 33.7-42.7 18.2-12.9 38.7-20.2 60.5-24.5 16.9-3.3 33.8-4.2 51-3.4 36.1 1.7 70 10.9 100.9 30 23 14.2 41.5 32.7 53.7 57.1 6.9 13.8 10.6 28.3 9.8 43.8-.8 16.8-6.9 31.5-17.9 44.2-14.3 16.6-32.7 26.3-53.5 32.2-1.9.5-3.1 1.3-4.1 2.9-4.4 6.8-8.5 13.7-10.3 21.7-.1.5-.2 1-.3 1.6 1.7.7 3.3 1.2 4.9 1.9 10 4.5 15.5 14.4 14.2 25.3-1.2 9.9-9.7 18.8-19.7 20.7-10.5 2.1-21.1-2.7-26.5-11.8s-4.5-20.1 2.8-28.2c2.4-2.7 6-4.3 9.1-6.4.7-.5 1.6-1.1 1.7-1.7.8-7.5 3.4-14.3 6.8-21 .2-.4.3-.7.6-1.3-6 0-11.8.3-17.6-.1-14.9-1-28.8-5.7-41.6-13.2-2.3-1.3-4.5-2.9-6.7-4.2-.5-.3-1-.4-1.6-.5-32.2-2.6-58-17.1-78.2-42.1-2.2-2.9-3.9-6-5.9-9.2m183.3 47c.1.2.3.4.4.5 4.4-2.4 9-4.7 13.3-7.3 11.3-7 20.7-15.9 26.7-28 7.7-15.4 7.9-31.4 3.2-47.6-4.9-16.8-14.5-30.9-26.6-43.3-15.8-16.4-34.8-27.9-55.9-36.1-22.8-8.8-46.4-13.2-70.8-13.9-13.9-.4-27.6.6-41.2 3.2-21.1 4-40.9 10.9-58.3 23.8-10.7 7.9-19.7 17.5-25.1 29.8-4.8 10.8-6.1 21.9-1.2 33.1 4.4 9.9 12.3 16.4 22.1 20.6 8 3.4 16.4 5.1 25.3 4.8-.2-.7-.3-1.2-.4-1.6s-.3-.8-.4-1.2c-4.2-16-1.2-30.5 9.5-43.2 7.8-9.2 17.9-15.3 29-19.6 19.9-7.8 40.6-10.3 61.9-9.1 21.1 1.2 41 6.1 59.6 16.3 16.1 8.9 29.7 20.4 39 36.6 7.7 13.6 10.7 28.1 7.9 43.7-1.8 10.1-6 19.1-11.2 27.8-2.1 3.7-4.5 7.2-6.8 10.7m-174.9-61.8c.5 0 .9 0 1.2-.1 2-.4 4.1-.8 6.1-1.3 13.8-3.5 26.6-9.2 39.5-15.1 17.5-8 35.4-14.7 55-15.4 10.8-.3 21.2.9 31.1 5.7 11.5 5.7 19 14.4 20.7 27.4 1.7 13.8-3.1 25.7-11.6 36.3-9.3 11.6-21.2 19.5-35.4 23.9-1.2.4-2.4.7-3.6 1.1-1.1.3-2.2.7-3.7 1.1 16.9 7.5 34.1 8.9 51.7 6.1.7-.1 1.6-.6 2-1.2 6.9-9.5 14.3-18.8 19.9-29.3 9.9-18.6 10.5-37.1-1-55.3-6.9-11-16.4-19.4-27.3-26.2-17.6-10.9-37-16.2-57.5-17.5-18.8-1.2-37.2.7-55 7.2-9.4 3.4-18.1 8-24.9 15.6-9.8 10.9-11.3 23.4-7.2 37m6.2 12.6c.9 1.4 1.6 2.6 2.5 3.7 10.9 14.2 25 23.9 41.5 30.4 21 8.2 41.9 8 62.3-2.3 11.9-6.1 21-15.1 25.8-27.9 5.2-14.2 0-26.4-13.2-31.5-9.5-3.6-19.3-4.1-29.2-2.9-13.9 1.6-26.9 6.5-39.7 11.9-11.9 5-23.9 10-35.9 14.7-4.4 1.7-9.2 2.6-14.1 3.9m148.8 117.5c-.1-5.9-5.3-10.8-11.5-10.7-5.8.1-11 5.2-10.9 10.8 0 5.8 5.6 11.3 11.3 11.1 5.9-.1 11.2-5.5 11.1-11.2" style="fill:#fcf8f9"/></svg>