<svg xmlns="http://www.w3.org/2000/svg" xml:space="preserve" viewBox="0 0 512 512"><path d="M139.5 66.7C62.4 66.7 0 129.1 0 206.2c0 48.9 30.9 84.1 63.3 116.7l126.4 119.5c6.6 6.3 17.5 1.6 17.5-7.6v-93.1c0-26.9 21.8-48.8 48.8-48.8 26.9 0 48.8 21.9 48.8 48.8v93.1c0 9.1 10.9 13.8 17.5 7.6l126.4-119.5C481 290.3 512 255 512 206.2c0-77-62.4-139.4-139.4-139.4-48.3 0-91.5 25.6-116.5 63-25.1-37.5-68.3-63.1-116.6-63.1m-33.4 42.6c3.1.1 6.1 1.7 7.9 4.5 2.8 4.5 1.5 10.5-3.1 13.3-21.7 13.6-38.6 45.4-38.6 72.4v.5c0 33.3 18.9 67 56.2 100 4 3.5 4.4 9.7.8 13.6-1.9 2.2-4.6 3.2-7.2 3.2-2.3 0-4.6-.8-6.4-2.4C74.1 277.6 53 239.1 53 200v-.5c0-33.6 20.5-71.8 47.7-88.8 1.7-1 3.6-1.5 5.4-1.4m299.8 0c1.9-.1 3.8.4 5.5 1.5 27.2 17 47.7 55.2 47.7 88.8v.5c0 39.1-21.1 77.6-62.8 114.5-1.8 1.6-4.1 2.4-6.4 2.4-2.7 0-5.3-1.1-7.2-3.2-3.5-4-3.2-10.1.8-13.6 37.3-33.1 56.2-66.7 56.2-100v-.5c0-27-17-58.9-38.6-72.4-4.5-2.8-5.9-8.8-3-13.3 1.7-3 4.7-4.6 7.8-4.7M176.5 134c3.8-.3 7.5 1.6 9.4 5.1 2.5 4.7.7 10.6-4.1 13-19.4 10.2-31.4 30.1-31.5 51.9.1 23.8 15.1 48.1 37.5 60.6 4.7 2.6 6.3 8.5 3.7 13.1-1.8 3.2-5.1 4.9-8.4 4.9-1.6 0-3.2-.4-4.7-1.2-28.2-15.8-47.2-46.9-47.4-77.3v-.3c.1-29 16.1-55.4 41.8-68.9 1.2-.5 2.5-.8 3.7-.9m159 0c1.3.1 2.5.5 3.7 1.1 25.7 13.5 41.7 39.9 41.8 68.9v.3c-.1 30.5-19.1 61.5-47.4 77.3-1.5.8-3.1 1.2-4.7 1.2-3.4 0-6.7-1.8-8.4-4.9-2.6-4.7-.9-10.5 3.7-13.1 22.4-12.5 37.4-36.9 37.5-60.6 0-21.8-12.1-41.7-31.4-51.9-4.7-2.5-6.5-8.3-4.1-13 1.8-3.7 5.5-5.6 9.3-5.3M256 169.3c23.2 0 41.9 18.8 41.9 41.9s-18.8 41.9-41.9 41.9-41.9-18.8-41.9-41.9 18.7-41.9 41.9-41.9" style="fill:#c6002b"/></svg>