<svg xmlns="http://www.w3.org/2000/svg" xml:space="preserve" viewBox="0 0 512 512"><path d="M308.7 210.3c.4 2 .7 6.5.7 13.6v60.6c0 10.4-.7 16.8-2 19.1-1.4 2.4-5 3.5-10.8 3.5V204.4c4.4 0 7.4.5 9 1.4 1.6 1.1 2.7 2.5 3.1 4.5m98.3 28.5c-2.4 0-4 .9-4.7 2.6-.7 1.8-1.1 6.2-1.1 13.3V296q0 10.35 1.2 13.2c.8 1.9 2.4 2.9 4.9 2.9s5.8-1 6.5-3c.5-1.3.9-6.1 1.1-14.3v-40.1c0-6.6-.4-10.9-1.3-13-.8-1.9-4.1-2.9-6.6-2.9m105-89.7v213.4c-1.5 12.7-11.9 22.5-24.4 22.5h-463C11 385 0 373.5 0 359.2V152.4c0-12.9 9-23.5 20.8-25.5h470.7c10.7 1.8 19.1 10.9 20.5 22.2m-409.6 29.7H61.8v156.4h40.6zm139.2-1h-53.1l-9.4 73.1c-3.5-23.8-5.4-37.1-5.8-39.7-1.7-12.8-3.3-23.9-4.9-33.3h-52.7v156.4h35.6l.1-103.3 15 103.3h25.4L206 228.6l.1 105.6h35.5zm106.7 55.1c0-14.8-.6-24.7-1.5-29.8-.9-5-3.2-9.6-6.8-13.7s-8.9-7.1-15.8-8.9-18.2-2.7-37.9-2.7H256v156.4h49.2c11.3-.4 18.6-.9 21.9-1.6 4.8-1.1 8.9-2.9 12.2-5.6q4.95-4.05 6.9-11.1c1.3-4.7 2.1-14.1 2.1-28.1zM454.2 253c0-9.4-.2-15.6-.6-18.5s-1.7-5.8-3.7-8.9c-2.1-3-5.1-5.4-9-7-4-1.7-8.6-2.5-14-2.5-4.7 0-10.7.9-14.6 2.8q-6 2.7-10.8 8.4v-50.9h-39.1v156.4H399c1.5-6 2.4-9.3 2.5-10 3.3 4 7 7 11 9s9.9 3 14.5 3c6.4 0 12-1.7 16.6-5.1 4.7-3.4 7.6-7.4 8.9-11.9 1.3-4.6 1.9-11.6 1.9-21-.2-4.3-.2-39.4-.2-43.8"/></svg>