<?xml version="1.0" encoding="utf-8"?>
<!-- Generator: Adobe Illustrator 28.2.0, SVG Export Plug-In . SVG Version: 6.00 Build 0)  -->
<svg version="1.1" id="Layer_1" xmlns="http://www.w3.org/2000/svg" xmlns:xlink="http://www.w3.org/1999/xlink" x="0px" y="0px"
	 viewBox="0 0 512 512" style="enable-background:new 0 0 512 512;" xml:space="preserve">
<path d="M459.7,157.3H52.3c-15.5,0-28.1-12.6-28.1-28.1V28.1C24.2,12.6,36.8,0,52.3,0h407.5c15.5,0,28.1,12.6,28.1,28.1v101.2
	C487.8,144.8,475.2,157.3,459.7,157.3z M185.3,306.8V205.6c0-15.5-12.6-28.1-28.1-28.1h-105c-15.5,0-28.1,12.6-28.1,28.1v101.2
	c0,15.5,12.6,28.1,28.1,28.1h105C172.7,334.9,185.3,322.3,185.3,306.8z M487.8,306.6V205.4c0-15.5-12.6-28.1-28.1-28.1H235.4
	c-15.5,0-28.1,12.6-28.1,28.1v101.2c0,15.5,12.6,28.1,28.1,28.1h224.4C475.2,334.7,487.8,322.1,487.8,306.6z M487.5,483.9V382.7
	c0-15.5-12.6-28.1-28.1-28.1h-105c-15.5,0-28.1,12.6-28.1,28.1v101.2c0,15.5,12.6,28.1,28.1,28.1h105
	C474.9,512,487.5,499.4,487.5,483.9z M304.7,483.9V382.7c0-15.5-12.6-28.1-28.1-28.1H52.3c-15.5,0-28.1,12.6-28.1,28.1v101.2
	c0,15.5,12.6,28.1,28.1,28.1h224.4C292.1,512,304.7,499.4,304.7,483.9z"/>
</svg>
