<svg xmlns="http://www.w3.org/2000/svg" xml:space="preserve" viewBox="0 0 512 512"><path d="M459.7 157.3H52.3c-15.5 0-28.1-12.6-28.1-28.1V28.1C24.2 12.6 36.8 0 52.3 0h407.5c15.5 0 28.1 12.6 28.1 28.1v101.2c-.1 15.5-12.7 28-28.2 28" style="fill:#fa2921"/><path d="M157.2 334.9h-105c-15.5 0-28.1-12.6-28.1-28.1V205.6c0-15.5 12.6-28.1 28.1-28.1h105c15.5 0 28.1 12.6 28.1 28.1v101.2c0 15.5-12.6 28.1-28.1 28.1" style="fill:#ed79b5"/><path d="M459.7 334.7H235.4c-15.5 0-28.1-12.6-28.1-28.1V205.4c0-15.5 12.6-28.1 28.1-28.1h224.4c15.5 0 28.1 12.6 28.1 28.1v101.2c-.1 15.5-12.7 28.1-28.2 28.1" style="fill:#1e83f7"/><path d="M459.4 512h-105c-15.5 0-28.1-12.6-28.1-28.1V382.7c0-15.5 12.6-28.1 28.1-28.1h105c15.5 0 28.1 12.6 28.1 28.1v101.2c0 15.5-12.6 28.1-28.1 28.1" style="fill:#18c249"/><path d="M276.6 512H52.3c-15.5 0-28.1-12.6-28.1-28.1V382.7c0-15.5 12.6-28.1 28.1-28.1h224.4c15.5 0 28.1 12.6 28.1 28.1v101.2c-.1 15.5-12.7 28.1-28.2 28.1" style="fill:#ffb400"/></svg>