<?xml version="1.0" encoding="utf-8"?>
<!-- Generator: Adobe Illustrator 28.2.0, SVG Export Plug-In . SVG Version: 6.00 Build 0)  -->
<svg version="1.1" id="Layer_1" xmlns="http://www.w3.org/2000/svg" xmlns:xlink="http://www.w3.org/1999/xlink" x="0px" y="0px"
	 viewBox="0 0 512 512" style="enable-background:new 0 0 512 512;" xml:space="preserve">
<style type="text/css">
	.st0{fill:#FFFFFF;}
	.st1{fill-rule:evenodd;clip-rule:evenodd;fill:#FFFFFF;}
</style>
<g>
	<path class="st0" d="M255.5,512.4c-5.1,0-11.1-2.6-17.8-7.7c-6.4-4.8-13.1-11.5-20.1-20c-12.1-14.7-24.4-33.8-34.8-53.9
		c-7.4,2.3-15.1,4.5-22.6,6.4c-19.6,4.9-37.9,7.5-52.8,7.7c-7.9,0.1-14.7-0.5-20-1.7c-5.8-1.2-10.3-3.3-13.1-6.2
		c-3.6-3.5-6-9.5-7.1-18c-1.1-7.6-1.1-17.1,0-28.3c1.8-18.7,6.6-41,13.5-62.7c-7-3.6-13.9-7.4-20.5-11.4C42.8,306,28,295,17.4,284.7
		c-5.5-5.4-9.9-10.6-13-15.4c-3.2-5-4.9-9.6-4.9-13.7c0-5.1,2.5-10.9,7.7-17.8c4.8-6.4,11.5-13.2,20-20.1
		C41.8,205.6,61,193.3,81.1,183c-2.4-7.2-4.4-14.7-6.3-22.7c-4.8-19.6-7.5-37.9-7.7-52.8c-0.1-7.9,0.5-14.7,1.7-20
		c1.2-5.8,3.3-10.3,6.2-13.1c3.5-3.6,9.5-6,18-7.1c7.6-1.1,17.1-1.1,28.3,0c18.7,1.8,41,6.6,62.7,13.5c3.6-7,7.4-13.9,11.4-20.5
		C206,42.8,217,28,227.3,17.4c5.4-5.5,10.6-9.9,15.4-13c5-3.2,9.6-4.9,13.7-4.9c5.1,0,11,2.6,17.7,7.8c6.4,4.8,13.1,11.5,20.1,20
		C306.3,42,318.6,61.1,329,81.2c7.4-2.3,15.1-4.5,22.6-6.4c19.6-4.9,37.9-7.5,52.8-7.7c7.9-0.1,14.7,0.5,20,1.7
		c5.8,1.2,10.3,3.3,13.1,6.2c3.6,3.5,6,9.5,7.1,18c1.1,7.6,1.1,17.1,0,28.3c-1.8,18.7-6.6,41-13.5,62.7c7,3.6,13.9,7.4,20.5,11.4
		c17.3,10.5,32.1,21.5,42.8,31.9c5.5,5.4,9.9,10.6,13,15.4c3.2,5,4.9,9.6,4.9,13.7c0,5.1-2.6,11.1-7.7,17.8
		c-4.8,6.4-11.5,13.1-20,20.1c-14.7,12.1-33.8,24.4-53.9,34.8c2.3,7.5,4.5,15.1,6.4,22.6c4.9,19.6,7.5,37.9,7.7,52.8
		c0.1,7.9-0.5,14.7-1.7,20c-1.2,5.8-3.3,10.3-6.2,13.1c-3.5,3.6-9.5,6-18,7.1c-7.6,1.1-17.1,1.1-28.3,0c-18.7-1.8-41-6.6-62.7-13.5
		c-3.6,7-7.4,13.9-11.4,20.5c-10.5,17.3-21.5,32.1-31.9,42.8c-5.4,5.5-10.6,9.9-15.4,13C264.2,510.8,259.6,512.4,255.5,512.4z
		 M183.4,429.6l0.2,0.4c10.3,20.2,22.7,39.4,34.8,54.1c6.9,8.4,13.6,15.1,19.9,19.8c6.5,5,12.3,7.5,17.2,7.5c3.9,0,8.3-1.6,13.1-4.7
		c4.8-3.1,9.9-7.4,15.2-12.8c10.3-10.6,21.3-25.3,31.7-42.6c4.1-6.7,8-13.6,11.6-20.8l0.2-0.4l0.4,0.1c21.8,7,44.1,11.8,62.9,13.6
		c11.2,1,20.6,1,28.1,0c8.2-1.1,14.1-3.5,17.4-6.9c2.8-2.8,4.8-7,6-12.7c1.2-5.3,1.8-11.9,1.7-19.8c-0.2-14.9-2.9-33.1-7.7-52.6
		c-1.9-7.7-4.1-15.4-6.5-23l-0.1-0.4l0.4-0.2c20.2-10.3,39.4-22.7,54.1-34.8c8.4-6.9,15.1-13.6,19.8-19.9c5-6.5,7.5-12.3,7.5-17.2
		c0-3.9-1.6-8.3-4.7-13.1c-3.1-4.8-7.4-9.9-12.8-15.2c-10.6-10.3-25.3-21.3-42.6-31.7c-6.7-4.1-13.6-8-20.8-11.6l-0.4-0.2l0.1-0.4
		c7-21.8,11.8-44.1,13.6-62.9c1-11.2,1-20.6,0-28.1c-1.1-8.2-3.5-14.1-6.9-17.4c-2.8-2.8-7-4.8-12.7-6c-5.3-1.2-11.9-1.8-19.8-1.7
		c-14.9,0.2-33.1,2.9-52.6,7.7c-7.7,1.9-15.4,4.1-23,6.5l-0.4,0.1l-0.2-0.4c-10.3-20.2-22.7-39.4-34.8-54.1
		c-6.9-8.4-13.6-15.1-19.9-19.8c-6.5-5-12.2-7.6-17.1-7.6c-3.9,0-8.3,1.6-13.1,4.7c-4.8,3.1-9.9,7.4-15.2,12.8
		c-10.3,10.6-21.3,25.3-31.7,42.6c-4.1,6.7-8,13.6-11.6,20.8l-0.2,0.4l-0.4-0.1c-21.8-7-44.1-11.8-62.9-13.6c-11.2-1-20.6-1-28.1,0
		c-8.2,1.1-14.1,3.5-17.4,6.9c-2.8,2.8-4.8,7-6,12.7c-1.2,5.3-1.8,11.9-1.7,19.8c0.2,14.9,2.9,33.1,7.7,52.6
		c1.9,8.2,4,15.8,6.4,23.1l0.1,0.4l-0.4,0.2c-20.2,10.3-39.4,22.7-54.1,34.8c-8.4,6.9-15.1,13.6-19.8,19.9c-5,6.7-7.5,12.4-7.5,17.2
		c0,3.9,1.6,8.3,4.7,13.1c3.1,4.8,7.4,9.9,12.8,15.2c10.6,10.3,25.3,21.3,42.6,31.7c6.6,4.1,13.6,8,20.8,11.6l0.4,0.2l-0.1,0.4
		c-7,21.8-11.8,44.1-13.6,62.9c-1,11.2-1,20.6,0,28.1c1.1,8.2,3.5,14.1,6.9,17.4c2.8,2.8,7,4.8,12.7,6c5.3,1.2,11.9,1.8,19.8,1.7
		c14.9-0.2,33.1-2.9,52.6-7.7c7.7-1.9,15.4-4.1,23-6.5L183.4,429.6z"/>
	<path class="st1" d="M159.7,160.9c0-53.4,65.3-160.4,96.7-160.4c19.8,0,53.1,42.7,75,87.6l-11.2,3.8c-4.2-8.6-8.9-17-13.8-25.1
		c-9.8-16.2-20.4-30.5-30.2-40.5c-4.9-5-9.3-8.7-13-11.1c-3.9-2.5-6.1-2.9-6.9-2.9c-0.8,0-3,0.4-6.9,2.9c-3.7,2.4-8.2,6.1-13,11.1
		c-9.7,10-20.3,24.3-30.2,40.5c-9.8,16.2-18.6,33.9-24.9,50.7c-6.4,17-9.9,32.2-9.9,43.5c0,46.9,38,85,85,85v11.7
		C203,257.6,159.7,214.3,159.7,160.9z"/>
	<path class="st1" d="M255.2,120.7C292.9,83,414.8,53.5,436.9,75.6c14,14,7.4,67.8-8.9,115l-10.6-5.2c3.1-9,5.8-18.3,8-27.5
		c4.5-18.4,7.1-36,7.3-50c0.1-7-0.4-12.7-1.4-17.1c-1-4.5-2.3-6.4-2.8-6.9s-2.4-1.8-6.9-2.8c-4.3-1-10.1-1.5-17.1-1.4
		c-14,0.2-31.6,2.8-50,7.3s-37.1,10.8-53.5,18.2c-16.5,7.5-29.8,15.7-37.8,23.7c-28,28-32.4,70.6-13.2,103.1
		c1.7,2.8,3.5,5.6,5.5,8.2c2.3,3.1,4.9,6,7.7,8.8l-8.3,8.3C217.4,219.7,217.4,158.5,255.2,120.7z"/>
	<path class="st1" d="M120.7,256.8C83,219.1,53.5,97.2,75.6,75.1c14-14,67.8-7.4,115,8.9l-5.2,10.6c-9-3.1-18.3-5.8-27.5-8
		c-18.4-4.5-36-7.1-50-7.3c-7-0.1-12.7,0.4-17.1,1.4c-4.5,1-6.4,2.3-6.9,2.8s-1.8,2.4-2.8,6.9c-1,4.3-1.5,10.1-1.4,17.1
		c0.2,14,2.8,31.6,7.3,50s10.8,37.1,18.2,53.5c7.5,16.5,15.7,29.8,23.7,37.8c33.2,33.2,87,33.2,120.2,0l8.3,8.3
		C219.7,294.6,158.5,294.6,120.7,256.8z"/>
	<path class="st1" d="M351.1,159.7c53.4,0,160.4,65.3,160.4,96.7c0,19.8-42.7,53.1-87.6,75l-3.8-11.2c8.6-4.2,17-8.9,25.1-13.8
		c16.2-9.8,30.5-20.4,40.5-30.2c5-4.9,8.7-9.3,11.1-13c2.5-3.9,2.9-6.1,2.9-6.9c0-0.8-0.4-3-2.9-6.9c-2.4-3.7-6.1-8.2-11.1-13
		c-10-9.7-24.3-20.3-40.5-30.2c-16.2-9.8-33.9-18.6-50.7-24.9c-17-6.4-32.2-9.9-43.5-9.9c-46.9,0-85,38-85,85h-11.7
		c0-5.5,0.5-10.8,1.3-16.1c0.5-2.8,1.1-5.5,1.8-8.2C268.3,190.5,306.1,159.7,351.1,159.7z"/>
	<path class="st1" d="M391.3,255.2c37.7,37.7,67.2,159.6,45.1,181.8c-14,14-67.8,7.4-115-8.9l5.2-10.6c9,3.1,18.3,5.8,27.5,8
		c18.4,4.5,36,7.1,50,7.3c7,0.1,12.7-0.4,17.1-1.4c4.5-1,6.4-2.3,6.9-2.8s1.8-2.4,2.8-6.9c1-4.3,1.5-10.1,1.4-17.1
		c-0.2-14-2.8-31.6-7.3-50s-10.8-37.1-18.2-53.5c-7.5-16.5-15.7-29.8-23.7-37.8c-33.2-33.2-87-33.2-120.2,0l-8.3-8.3
		C292.3,217.4,353.5,217.4,391.3,255.2z"/>
	<path class="st1" d="M352.3,351.1c0,53.4-65.3,160.4-96.7,160.4c-19.8,0-53.1-42.7-75-87.6l11.2-3.8c4.2,8.6,8.9,17,13.8,25.1
		c9.8,16.2,20.4,30.5,30.2,40.5c4.9,5,9.3,8.7,13,11.1c3.9,2.5,6.1,2.9,6.9,2.9s3-0.4,6.9-2.9c3.7-2.4,8.2-6.1,13-11.1
		c9.7-10,20.3-24.3,30.2-40.5c9.8-16.2,18.6-33.9,24.9-50.7c6.4-17,9.9-32.2,9.9-43.5c0-46.9-38-85-85-85v-11.7
		C309,254.4,352.3,297.7,352.3,351.1z"/>
	<path class="st1" d="M256.8,391.3C219.1,429,97.2,458.5,75.1,436.4c-14-14-7.4-67.8,8.9-115l10.6,5.2c-3.1,9-5.8,18.3-8,27.5
		c-4.5,18.4-7.1,36-7.3,50c-0.1,7,0.4,12.7,1.4,17.1c1,4.5,2.3,6.4,2.8,6.9s2.4,1.8,6.9,2.8c4.3,1,10.1,1.5,17.1,1.4
		c14-0.2,31.6-2.8,50-7.3s37.1-10.8,53.5-18.2c16.5-7.5,29.8-15.7,37.8-23.7c33.2-33.2,33.2-87,0-120.2l8.3-8.3
		C294.6,292.3,294.6,353.5,256.8,391.3z"/>
	<path class="st1" d="M160.9,352.3c-53.4,0-160.4-65.3-160.4-96.7c0-19.8,42.7-53.1,87.6-75l3.8,11.2c-8.6,4.2-17,8.9-25.1,13.8
		c-16.2,9.8-30.5,20.4-40.5,30.2c-5,4.9-8.7,9.3-11.1,13c-2.5,3.9-2.9,6.1-2.9,6.9s0.4,3,2.9,6.9c2.4,3.7,6.1,8.2,11.1,13
		c10,9.7,24.3,20.3,40.5,30.2c16.2,9.8,33.9,18.6,50.7,24.9c17,6.4,32.2,9.9,43.5,9.9c46.9,0,85-38,85-85h11.7
		C257.6,309,214.3,352.3,160.9,352.3z"/>
	<path class="st0" d="M250.2,232.1c1.7,2.8,3.5,5.6,5.5,8.2c0.5-2.8,1.1-5.5,1.8-8.2c0,0-1,2.1-3.1,2.1
		C251.5,234.2,250.2,232.1,250.2,232.1z"/>
	<path class="st0" d="M268.7,235.3c-0.8,3.2-1.5,6.4-1.9,9.7c2.3-1.6,4.7-3.2,7.1-4.6c0,0-2.2,0.8-3.7-0.7
		C268.1,237.7,268.7,235.3,268.7,235.3z"/>
	<path class="st0" d="M276.9,268.7c-3.2-0.8-6.4-1.5-9.7-1.9c1.6,2.3,3.2,4.7,4.6,7.1c0,0-0.8-2.2,0.7-3.7
		C274.5,268.2,276.9,268.7,276.9,268.7z"/>
	<path class="st0" d="M261.8,279.8c-1.7-2.8-3.5-5.6-5.5-8.2c-0.5,2.8-1.1,5.5-1.8,8.2c0,0,1-2.1,3.1-2.1
		C260.5,277.7,261.8,279.8,261.8,279.8z"/>
	<path class="st0" d="M243.2,276.9c0.8-3.2,1.5-6.4,1.9-9.7c-2.3,1.6-4.7,3.2-7.1,4.6c0,0,2.2-0.8,3.7,0.7
		C243.8,274.5,243.2,276.9,243.2,276.9z"/>
	<path class="st0" d="M232.1,261.8c2.8-1.7,5.6-3.5,8.2-5.5c-2.8-0.5-5.5-1.1-8.2-1.8c0,0,2.1,1,2.1,3.1
		C234.2,260.5,232.1,261.8,232.1,261.8z"/>
	<path class="st0" d="M235.1,243.3c3.2,0.8,6.4,1.5,9.7,1.9c-1.6-2.3-3.2-4.7-4.6-7.1c0,0,0.8,2.2-0.7,3.7
		C237.5,243.8,235.1,243.3,235.1,243.3z"/>
	<path class="st0" d="M279.9,250.2c-2.8,1.7-5.6,3.5-8.2,5.5c2.8,0.5,5.5,1.1,8.2,1.8c0,0-2.1-1-2.1-3.1
		C277.8,251.5,279.9,250.2,279.9,250.2z"/>
</g>
</svg>
