<svg xmlns="http://www.w3.org/2000/svg" xml:space="preserve" viewBox="0 0 512 512"><path d="M255.2 120.7C292.9 83 414.8 53.5 436.9 75.6c14.1 14.1 7.3 68.6-9.3 116.1 0 0-53.2-38.2-106.3-19.7s-66.2 85.3-66.2 85.3c-37.7-37.6-37.7-98.8.1-136.6" style="fill:#8bbb25"/><path d="M351.1 159.7c53.4 0 160.4 65.3 160.4 96.7 0 19.9-43.4 53.7-88.6 75.5 0 0-10.6-64.7-61.3-89.1s-107.1 13.5-107.1 13.5c-.1-53.3 43.2-96.6 96.6-96.6" style="fill:#18c249"/><path d="M391.3 255.2c37.7 37.7 67.2 159.6 45.1 181.8-14.1 14.1-68.6 7.3-116.1-9.3 0 0 38.2-53.2 19.7-106.3-18.6-53.1-85.3-66.2-85.3-66.2 37.6-37.8 98.8-37.8 136.6 0" style="fill:#1ba3a0"/><path d="M352.3 351.1c0 53.4-65.3 160.4-96.7 160.4-19.9 0-53.7-43.4-75.5-88.6 0 0 64.7-10.6 89.1-61.3s-13.5-107.1-13.5-107.1c53.3-.1 96.6 43.2 96.6 96.6" style="fill:#1e83f7"/><path d="M256.8 391.3C219.1 429 97.2 458.5 75.1 436.4c-14.1-14.1-7.3-68.6 9.3-116.1 0 0 53.2 38.2 106.3 19.7 53.1-18.6 66.2-85.3 66.2-85.3 37.7 37.6 37.7 98.8-.1 136.6" style="fill:#857ed6"/><path d="M160.9 352.3C107.5 352.3.5 287 .5 255.6c0-19.9 43.4-53.7 88.6-75.5 0 0 10.6 64.7 61.3 89.1s107.1-13.5 107.1-13.5c.1 53.3-43.2 96.6-96.6 96.6" style="fill:#ed79b5"/><path d="M120.7 256.8C83 219.1 53.5 97.2 75.6 75.1c14.1-14.1 68.6-7.3 116.1 9.3 0 0-38.2 53.2-19.7 106.3s85.3 66.2 85.3 66.2c-37.6 37.7-98.8 37.7-136.6-.1" style="fill:#f3516b"/><path d="M159.7 160.9C159.7 107.5 225 .5 256.4.5c19.9 0 53.7 43.4 75.5 88.6 0 0-64.7 10.6-89.1 61.3s13.5 107.1 13.5 107.1c-53.3.1-96.6-43.2-96.6-96.6" style="fill:#fa2921"/><path d="M507.4 242.7c-3.1-4.8-7.5-10-13-15.4-10.6-10.3-25.4-21.3-42.7-31.8-6.6-4-13.4-7.9-20.5-11.4 6.9-21.7 11.7-44 13.5-62.7 1-11.2 1-20.8 0-28.3-1.2-8.5-3.6-14.5-7.1-18-2.9-2.9-7.3-5-13.1-6.2-5.4-1.2-12.1-1.8-20-1.7-14.9.2-33.2 2.9-52.8 7.7-7.6 1.9-15.2 4-22.6 6.4-10.3-20.1-22.7-39.2-34.8-53.9-6.9-8.5-13.7-15.2-20.1-20Q264.15-.4 256.5-.4c-4.1 0-8.7 1.6-13.7 4.9-4.8 3.1-10 7.5-15.4 13C217 28 206 42.8 195.5 60.1c-4 6.6-7.9 13.4-11.4 20.5-21.7-6.9-44-11.7-62.7-13.5-11.2-1-20.8-1-28.3 0-8.5 1.2-14.5 3.6-18 7.1-2.9 2.9-5 7.3-6.2 13.1-1.2 5.4-1.8 12.1-1.7 20 .2 14.9 2.9 33.2 7.7 52.8 1.9 8.1 3.9 15.5 6.3 22.7-20.1 10.3-39.2 22.7-53.9 34.8-8.5 6.9-15.2 13.7-20 20.1-5.2 6.9-7.7 12.7-7.7 17.8 0 4.1 1.6 8.7 4.9 13.7 3.1 4.8 7.5 10 13 15.4C28 295 42.8 306 60.1 316.5c6.6 4 13.4 7.9 20.5 11.4-6.9 21.7-11.7 44-13.5 62.7-1 11.2-1 20.8 0 28.3 1.2 8.5 3.6 14.5 7.1 18 2.9 2.9 7.3 5 13.1 6.2 5.4 1.2 12.1 1.8 20 1.7 14.9-.2 33.2-2.9 52.8-7.7 7.6-1.9 15.2-4 22.6-6.4 10.3 20.1 22.7 39.2 34.8 53.9 6.9 8.5 13.7 15.2 20.1 20 6.7 5.1 12.7 7.7 17.8 7.7 4.1 0 8.7-1.6 13.7-4.9 4.8-3.1 10-7.5 15.4-13 10.4-10.7 21.4-25.5 31.9-42.8 4-6.6 7.9-13.4 11.4-20.5 21.7 6.9 44 11.7 62.7 13.5 11.2 1 20.8 1 28.3 0 8.5-1.2 14.5-3.6 18-7.1 2.9-2.9 5-7.3 6.2-13.1 1.2-5.4 1.8-12.1 1.7-20-.2-14.9-2.9-33.2-7.7-52.8-1.9-7.6-4-15.2-6.4-22.6 20.1-10.3 39.2-22.7 53.9-34.8 8.5-6.9 15.2-13.7 20-20.1 5.1-6.7 7.7-12.7 7.7-17.8.1-4-1.5-8.6-4.8-13.6M354.5 87c18.4-4.5 36-7.1 50-7.3 7-.1 12.8.4 17.1 1.4 4.5 1 6.4 2.3 6.9 2.8s1.8 2.4 2.8 6.9c1 4.4 1.5 10.1 1.4 17.1-.2 14-2.8 31.6-7.3 50-1.7 7.1-3.7 14.3-5.9 21.3-24.8-11.6-49.8-19.5-68.4-19.5-45 0-82.8 30.8-93.7 72.4 0 .1 0 .2-.1.3-.4.6-1.3 1.8-2.9 1.8-2.9 0-4.2-2.1-4.2-2.1-19.2-32.5-15-75.2 13-103.2 8-8 21.3-16.2 37.8-23.7 16.4-7.4 35.1-13.7 53.5-18.2M256.4.5c-2.4 0-5.1.7-7.9 1.9 2.8-1.3 5.5-1.9 7.9-1.9m-50.2 66.3c9.9-16.2 20.5-30.5 30.2-40.5 4.8-5 9.3-8.7 13-11.1 3.9-2.5 6.1-2.9 6.9-2.9s3 .4 6.9 2.9c3.7 2.4 8.1 6.1 13 11.1 9.8 10 20.4 24.3 30.2 40.5 3.8 6.3 7.5 12.8 10.9 19.4-25.7 9.3-49 21.4-62.1 34.5-32 32-36.9 80.8-14.9 117.8.2.7.3 2.2-.8 3.3-2 2-4.4 1.5-4.4 1.5.4.1-.4-.1 0 0-37.3-9-63.7-42.3-63.7-82.3 0-11.3 3.5-26.5 9.9-43.5 6.3-16.8 15.1-34.5 24.9-50.7m26.4 194.6c-33.3 25.4-73.2 17.8-103.7-12.6-8-8-16.2-21.3-23.7-37.8-7.4-16.4-13.7-35.1-18.2-53.5s-7.1-36-7.3-50c-.1-7 .4-12.8 1.4-17.1 1-4.5 2.3-6.4 2.8-6.9s2.4-1.8 6.9-2.8c4.4-1 10.1-1.5 17.1-1.4 14 .2 31.6 2.8 50 7.3 7.1 1.7 14.3 3.7 21.3 5.9-11.6 24.8-19.5 49.8-19.5 68.4 0 45.1 30.9 83 72.7 93.7.6.3 1.8 1.3 1.8 3 0 2-1 3.2-1.6 3.8m0 0c-.3.2-.5.4-.5.4zM75.8 74.9c3.3-3.4 9.2-5.7 17.4-6.9 7.5-1 16.9-1 28.1 0 18.8 1.8 41.1 6.6 62.9 13.6l.3.1-.1.1C139 67.2 89.3 61.7 75.8 74.9c-.1.1 0 .1 0 0M.5 255.6c0 2.4.7 5.1 1.9 7.9-1.3-2.8-1.9-5.5-1.9-7.9m0 0c0-4.8 2.5-10.5 7.5-17.2 4.7-6.3 11.4-13 19.8-19.9 14.7-12.1 33.9-24.5 54.1-34.8l.4-.2-.1-.4c-1.7-5.1-3.2-10.4-4.7-15.9 1.5 5.5 3.1 10.9 4.8 16.4-42.7 21.7-81.8 53-81.8 72m66.3 50.2c-16.2-9.9-30.5-20.5-40.5-30.2-5-4.8-8.7-9.3-11.1-13-2.5-3.9-2.9-6.1-2.9-6.9s.4-3 2.9-6.9c2.4-3.7 6.1-8.1 11.1-13 10-9.8 24.3-20.4 40.5-30.2 6.3-3.8 12.8-7.5 19.4-10.9 9.3 25.7 21.4 49 34.5 62.1 32 32 80.8 36.9 117.9 14.9.8-.1 2.1-.2 3.1.8 2.1 2 1.5 4.4 1.5 4.4-5.7 41.4-39.3 63.7-82.2 63.7-11.3 0-26.5-3.5-43.5-9.9-16.8-6.3-34.5-15.1-50.7-24.9m8.1 130.4c-3.4-3.3-5.7-9.2-6.9-17.4-1-7.5-1-16.9 0-28.1 1.8-18.8 6.6-41.1 13.6-62.9l.1-.3.1.1c-14.6 45.4-20.1 95.1-6.9 108.6.1.1.1 0 0 0m82.6-11.2c-18.4 4.5-36 7.1-50 7.3-7 .1-12.8-.4-17.1-1.4-4.5-1-6.4-2.3-6.9-2.8s-1.8-2.4-2.8-6.9c-1-4.4-1.5-10.1-1.4-17.1.2-14 2.8-31.6 7.3-50 1.7-7.1 3.7-14.3 5.9-21.3 24.8 11.6 49.8 19.5 68.4 19.5 45.2 0 83.1-31 93.8-72.8.4-.6 1.3-1.8 2.9-1.8 2.9 0 4.2 2.1 4.2 2.1 25.4 33.3 17.4 72.9-13 103.3-8 8-21.3 16.2-37.8 23.7-16.4 7.4-35.1 13.7-53.5 18.2m60.9 59.1c-12.1-14.7-24.5-33.9-34.8-54.1l-.2-.3h.1c15.8 30.8 36.5 59.8 53.9 73.5-6.1-4.7-12.5-11.1-19-19.1m19.1 19.2c.7.6 1.4 1.1 2.1 1.6-.4-.3-.9-.6-1.3-1-.3-.2-.5-.4-.8-.6m2.3 1.7c.7.5 1.5 1 2.2 1.5-.7-.4-1.4-.9-2.2-1.5m88-74.8-.2-.1c.2.1.3.1.5.2-.2 0-.3 0-.3-.1m-22 15c-9.9 16.2-20.5 30.5-30.2 40.5-4.8 5-9.3 8.7-13 11.1-3.9 2.5-6.1 2.9-6.9 2.9s-3-.4-6.9-2.9c-3.7-2.4-8.1-6.1-13-11.1-9.8-10-20.4-24.3-30.2-40.5-3.8-6.3-7.5-12.8-10.9-19.4 25.7-9.3 49-21.4 62.1-34.5 32-32 36.9-80.8 14.9-117.9-.1-.7-.2-2.1.8-3.2 2-2 4.4-1.5 4.4-1.5-.4-.1.4.1 0 0 37.3 9 63.7 42.3 63.7 82.3 0 11.3-3.5 26.5-9.9 43.5-6.3 16.8-15.1 34.5-24.9 50.7m126.5-40.6c.1 7-.4 12.8-1.4 17.1-1 4.5-2.3 6.4-2.8 6.9s-2.4 1.8-6.9 2.8c-4.4 1-10.1 1.5-17.1 1.4-14-.2-31.6-2.8-50-7.3-7.1-1.7-14.3-3.7-21.3-6 11.6-24.8 19.5-49.9 19.5-68.4 0-45.1-30.9-83-72.7-93.7-.6-.3-1.8-1.3-1.8-3 0-2.9 2.1-4.2 2.1-4.2 33.3-25.3 72.8-17.3 103.2 13.1 8 8 16.2 21.3 23.7 37.8 7.4 16.4 13.7 35.1 18.2 53.5s7.1 36 7.3 50m64.5-141.4c-2.4 3.7-6.1 8.1-11.1 13-10 9.8-24.3 20.4-40.5 30.2-6.3 3.8-12.8 7.5-19.4 10.9-9.3-25.7-21.4-49-34.5-62.1-32.1-32.1-81.1-36.9-118.2-14.6-.8.1-2 .1-2.9-.9-1.9-1.8-1.6-4-1.5-4.3 5.7-41.4 39.4-64 82.3-64 11.3 0 26.5 3.5 43.5 9.9 16.8 6.3 34.5 15.1 50.7 24.9 16.2 9.9 30.5 20.5 40.5 30.2 5 4.8 8.7 9.3 11.1 13 2.5 3.9 2.9 6.1 2.9 6.9s-.4 3-2.9 6.9" style="fill:#0c1117"/></svg>