<?xml version="1.0" encoding="utf-8"?>
<!-- Generator: Adobe Illustrator 28.2.0, SVG Export Plug-In . SVG Version: 6.00 Build 0)  -->
<svg version="1.1"
	 id="svg1" xmlns:svg="http://www.w3.org/2000/svg" xmlns:sodipodi="http://sodipodi.sourceforge.net/DTD/sodipodi-0.dtd" xmlns:inkscape="http://www.inkscape.org/namespaces/inkscape" inkscape:export-filename="export shield logo.png"
	 xmlns="http://www.w3.org/2000/svg" xmlns:xlink="http://www.w3.org/1999/xlink" x="0px" y="0px" viewBox="0 0 512 512"
	 style="enable-background:new 0 0 512 512;" xml:space="preserve">
<style type="text/css">
	.st0{fill:#1E83F7;}
	.st1{fill:#ED79B5;}
	.st2{fill:#FA2921;}
	.st3{fill:#FFB400;}
	.st4{fill:#18C249;}
</style>
<path d="M467.9,76.2l-0.1-7.5l-7.5-0.5C355.1,60.5,260,7.3,258.9,6.7l-4.2-2.4l-4.1,2.5c-0.9,0.5-86.8,52.3-199.1,61.3l-7.5,0.6
	L44,76.2c-0.8,112.5,12,191.6,41.4,256.5c31.9,70.2,84.4,125,165.3,172.5l4.1,2.4l4.1-2.4c40-23.5,72.8-48.9,100.1-77.5
	c27.2-28.5,48.4-59.7,64.9-95.2C454.8,266.3,468.7,184.9,467.9,76.2z"/>
<path class="st0" d="M89.2,298.3c28.9,82.2,81.4,140,165.7,190.3c18.5-11.1,35.5-22.6,51.1-34.8c-88.6-49.4-99.2-140.2-100.7-241.7
	C157.4,236.4,122.3,261.8,89.2,298.3z"/>
<path class="st1" d="M109,76.5c-15.4,3.1-31.7,5.6-48.7,7.3c-0.1,77.3,6.7,140.7,22.3,194.1c38.4-35.2,69.8-70.7,170.1-102.4
	C213.9,127.8,161.5,102.1,109,76.5z"/>
<path class="st2" d="M300.9,213.6c27.5-45.3,48.1-94.5,53.2-149.7c-49.6-15.3-86.9-34.2-99.1-40.7c-13.5,7.7-58.1,31.4-120.2,47.4
	C202.4,99.7,259.9,144.8,300.9,213.6z"/>
<path class="st3" d="M372.1,69.1c-9.3,82.1-46,143.3-89.1,200.5c46.7,6.6,90.1,9.9,145.2,5.8c16.2-53.7,23.5-116.6,23.5-191.6
	C423.6,81.3,396.6,75.8,372.1,69.1z"/>
<path class="st4" d="M422.6,292.5c-65.4,6.2-131.4,2-198.5-19.3c12.3,65.9,22.7,132.6,94.2,170.7
	C367.2,402.6,401.2,353.7,422.6,292.5z"/>
</svg>
