<?xml version="1.0" encoding="utf-8"?>
<!-- Generator: Adobe Illustrator 28.2.0, SVG Export Plug-In . SVG Version: 6.00 Build 0)  -->
<svg version="1.1" id="Layer_1" xmlns="http://www.w3.org/2000/svg" xmlns:xlink="http://www.w3.org/1999/xlink" x="0px" y="0px"
	 viewBox="0 0 512 512" style="enable-background:new 0 0 512 512;" xml:space="preserve">
<style type="text/css">
	.st0{fill:#FA2921;}
	.st1{fill:#ED79B5;}
	.st2{fill:#1E83F7;}
	.st3{fill:#18C249;}
	.st4{fill:#FFB400;}
</style>
<path class="st0" d="M459.7,157.3H52.3c-15.5,0-28.1-12.6-28.1-28.1V28.1C24.2,12.6,36.8,0,52.3,0h407.5c15.5,0,28.1,12.6,28.1,28.1
	v101.2C487.8,144.8,475.2,157.3,459.7,157.3z"/>
<path class="st1" d="M157.2,334.9h-105c-15.5,0-28.1-12.6-28.1-28.1V205.6c0-15.5,12.6-28.1,28.1-28.1h105
	c15.5,0,28.1,12.6,28.1,28.1v101.2C185.3,322.3,172.7,334.9,157.2,334.9z"/>
<path class="st2" d="M459.7,334.7H235.4c-15.5,0-28.1-12.6-28.1-28.1V205.4c0-15.5,12.6-28.1,28.1-28.1h224.4
	c15.5,0,28.1,12.6,28.1,28.1v101.2C487.8,322.1,475.2,334.7,459.7,334.7z"/>
<path class="st3" d="M459.4,512h-105c-15.5,0-28.1-12.6-28.1-28.1V382.7c0-15.5,12.6-28.1,28.1-28.1h105c15.5,0,28.1,12.6,28.1,28.1
	v101.2C487.5,499.4,474.9,512,459.4,512z"/>
<path class="st4" d="M276.6,512H52.3c-15.5,0-28.1-12.6-28.1-28.1V382.7c0-15.5,12.6-28.1,28.1-28.1h224.4
	c15.5,0,28.1,12.6,28.1,28.1v101.2C304.7,499.4,292.1,512,276.6,512z"/>
</svg>
