<?xml version="1.0" encoding="utf-8"?>
<!-- Generator: Adobe Illustrator 28.2.0, SVG Export Plug-In . SVG Version: 6.00 Build 0)  -->
<svg version="1.1" id="Layer_1" xmlns="http://www.w3.org/2000/svg" xmlns:xlink="http://www.w3.org/1999/xlink" x="0px" y="0px"
	 viewBox="0 0 512 512" style="enable-background:new 0 0 512 512;" xml:space="preserve">
<style type="text/css">
	.st0{fill:#8BBB25;}
	.st1{fill:#18C249;}
	.st2{fill:#1BA3A0;}
	.st3{fill:#1E83F7;}
	.st4{fill:#857ED6;}
	.st5{fill:#ED79B5;}
	.st6{fill:#F3516B;}
	.st7{fill:#FA2921;}
	.st8{fill:#0C1117;}
</style>
<path class="st0" d="M255.2,120.7C292.9,83,414.8,53.5,436.9,75.6c14.1,14.1,7.3,68.6-9.3,116.1c0,0-53.2-38.2-106.3-19.7
	s-66.2,85.3-66.2,85.3C217.4,219.7,217.4,158.5,255.2,120.7z"/>
<path class="st1" d="M351.1,159.7c53.4,0,160.4,65.3,160.4,96.7c0,19.9-43.4,53.7-88.6,75.5c0,0-10.6-64.7-61.3-89.1
	c-50.7-24.4-107.1,13.5-107.1,13.5C254.4,203,297.7,159.7,351.1,159.7z"/>
<path class="st2" d="M391.3,255.2c37.7,37.7,67.2,159.6,45.1,181.8c-14.1,14.1-68.6,7.3-116.1-9.3c0,0,38.2-53.2,19.7-106.3
	c-18.6-53.1-85.3-66.2-85.3-66.2C292.3,217.4,353.5,217.4,391.3,255.2z"/>
<path class="st3" d="M352.3,351.1c0,53.4-65.3,160.4-96.7,160.4c-19.9,0-53.7-43.4-75.5-88.6c0,0,64.7-10.6,89.1-61.3
	s-13.5-107.1-13.5-107.1C309,254.4,352.3,297.7,352.3,351.1z"/>
<path class="st4" d="M256.8,391.3C219.1,429,97.2,458.5,75.1,436.4c-14.1-14.1-7.3-68.6,9.3-116.1c0,0,53.2,38.2,106.3,19.7
	c53.1-18.6,66.2-85.3,66.2-85.3C294.6,292.3,294.6,353.5,256.8,391.3z"/>
<path class="st5" d="M160.9,352.3c-53.4,0-160.4-65.3-160.4-96.7c0-19.9,43.4-53.7,88.6-75.5c0,0,10.6,64.7,61.3,89.1
	s107.1-13.5,107.1-13.5C257.6,309,214.3,352.3,160.9,352.3z"/>
<path class="st6" d="M120.7,256.8C83,219.1,53.5,97.2,75.6,75.1c14.1-14.1,68.6-7.3,116.1,9.3c0,0-38.2,53.2-19.7,106.3
	s85.3,66.2,85.3,66.2C219.7,294.6,158.5,294.6,120.7,256.8z"/>
<path class="st7" d="M159.7,160.9c0-53.4,65.3-160.4,96.7-160.4c19.9,0,53.7,43.4,75.5,88.6c0,0-64.7,10.6-89.1,61.3
	c-24.4,50.7,13.5,107.1,13.5,107.1C203,257.6,159.7,214.3,159.7,160.9z"/>
<path class="st8" d="M507.4,242.7c-3.1-4.8-7.5-10-13-15.4C483.8,217,469,206,451.7,195.5c-6.6-4-13.4-7.9-20.5-11.4
	c6.9-21.7,11.7-44,13.5-62.7c1-11.2,1-20.8,0-28.3c-1.2-8.5-3.6-14.5-7.1-18c-2.9-2.9-7.3-5-13.1-6.2c-5.4-1.2-12.1-1.8-20-1.7
	c-14.9,0.2-33.2,2.9-52.8,7.7c-7.6,1.9-15.2,4-22.6,6.4c-10.3-20.1-22.7-39.2-34.8-53.9c-6.9-8.5-13.7-15.2-20.1-20
	c-6.7-5.2-12.6-7.8-17.7-7.8c-4.1,0-8.7,1.6-13.7,4.9c-4.8,3.1-10,7.5-15.4,13C217,28,206,42.8,195.5,60.1
	c-4,6.6-7.9,13.4-11.4,20.5c-21.7-6.9-44-11.7-62.7-13.5c-11.2-1-20.8-1-28.3,0c-8.5,1.2-14.5,3.6-18,7.1c-2.9,2.9-5,7.3-6.2,13.1
	c-1.2,5.4-1.8,12.1-1.7,20c0.2,14.9,2.9,33.2,7.7,52.8c1.9,8.1,3.9,15.5,6.3,22.7c-20.1,10.3-39.2,22.7-53.9,34.8
	c-8.5,6.9-15.2,13.7-20,20.1c-5.2,6.9-7.7,12.7-7.7,17.8c0,4.1,1.6,8.7,4.9,13.7c3.1,4.8,7.5,10,13,15.4C28,295,42.8,306,60.1,316.5
	c6.6,4,13.4,7.9,20.5,11.4c-6.9,21.7-11.7,44-13.5,62.7c-1,11.2-1,20.8,0,28.3c1.2,8.5,3.6,14.5,7.1,18c2.9,2.9,7.3,5,13.1,6.2
	c5.4,1.2,12.1,1.8,20,1.7c14.9-0.2,33.2-2.9,52.8-7.7c7.6-1.9,15.2-4,22.6-6.4c10.3,20.1,22.7,39.2,34.8,53.9
	c6.9,8.5,13.7,15.2,20.1,20c6.7,5.1,12.7,7.7,17.8,7.7c4.1,0,8.7-1.6,13.7-4.9c4.8-3.1,10-7.5,15.4-13
	c10.4-10.7,21.4-25.5,31.9-42.8c4-6.6,7.9-13.4,11.4-20.5c21.7,6.9,44,11.7,62.7,13.5c11.2,1,20.8,1,28.3,0c8.5-1.2,14.5-3.6,18-7.1
	c2.9-2.9,5-7.3,6.2-13.1c1.2-5.4,1.8-12.1,1.7-20c-0.2-14.9-2.9-33.2-7.7-52.8c-1.9-7.6-4-15.2-6.4-22.6
	c20.1-10.3,39.2-22.7,53.9-34.8c8.5-6.9,15.2-13.7,20-20.1c5.1-6.7,7.7-12.7,7.7-17.8C512.3,252.3,510.7,247.7,507.4,242.7z
	 M354.5,87c18.4-4.5,36-7.1,50-7.3c7-0.1,12.8,0.4,17.1,1.4c4.5,1,6.4,2.3,6.9,2.8s1.8,2.4,2.8,6.9c1,4.4,1.5,10.1,1.4,17.1
	c-0.2,14-2.8,31.6-7.3,50c-1.7,7.1-3.7,14.3-5.9,21.3c-24.8-11.6-49.8-19.5-68.4-19.5c-45,0-82.8,30.8-93.7,72.4
	c0,0.1,0,0.2-0.1,0.3c-0.4,0.6-1.3,1.8-2.9,1.8c-2.9,0-4.2-2.1-4.2-2.1c-19.2-32.5-15-75.2,13-103.2c8-8,21.3-16.2,37.8-23.7
	C317.4,97.8,336.1,91.5,354.5,87z M256.4,0.5L256.4,0.5c-2.4,0-5.1,0.7-7.9,1.9C251.3,1.1,254,0.5,256.4,0.5z M221.9,24.8
	c-2.6,3-5.2,6.2-7.8,9.6C216.7,31,219.3,27.8,221.9,24.8z M206.2,66.8c9.9-16.2,20.5-30.5,30.2-40.5c4.8-5,9.3-8.7,13-11.1
	c3.9-2.5,6.1-2.9,6.9-2.9s3,0.4,6.9,2.9c3.7,2.4,8.1,6.1,13,11.1c9.8,10,20.4,24.3,30.2,40.5c3.8,6.3,7.5,12.8,10.9,19.4
	c-25.7,9.3-49,21.4-62.1,34.5c-32,32-36.9,80.8-14.9,117.8c0.2,0.7,0.3,2.2-0.8,3.3c-2,2-4.4,1.5-4.4,1.5c0.4,0.1-0.4-0.1,0,0
	c-37.3-9-63.7-42.3-63.7-82.3c0-11.3,3.5-26.5,9.9-43.5C187.6,100.7,196.4,83,206.2,66.8z M232.6,261.4
	c-33.3,25.4-73.2,17.8-103.7-12.6c-8-8-16.2-21.3-23.7-37.8c-7.4-16.4-13.7-35.1-18.2-53.5c-4.5-18.4-7.1-36-7.3-50
	c-0.1-7,0.4-12.8,1.4-17.1c1-4.5,2.3-6.4,2.8-6.9s2.4-1.8,6.9-2.8c4.4-1,10.1-1.5,17.1-1.4c14,0.2,31.6,2.8,50,7.3
	c7.1,1.7,14.3,3.7,21.3,5.9c-11.6,24.8-19.5,49.8-19.5,68.4c0,45.1,30.9,83,72.7,93.7c0.6,0.3,1.8,1.3,1.8,3
	C234.2,259.6,233.2,260.8,232.6,261.4z M232.6,261.4c-0.3,0.2-0.5,0.4-0.5,0.4L232.6,261.4z M75.8,74.9c3.3-3.4,9.2-5.7,17.4-6.9
	c7.5-1,16.9-1,28.1,0c18.8,1.8,41.1,6.6,62.9,13.6l0.3,0.1c0,0-0.1,0.1-0.1,0.1C139,67.2,89.3,61.7,75.8,74.9
	C75.7,75,75.8,75,75.8,74.9z M0.5,255.6L0.5,255.6c0,2.4,0.7,5.1,1.9,7.9C1.1,260.7,0.5,258,0.5,255.6z M0.5,255.6
	c0-4.8,2.5-10.5,7.5-17.2c4.7-6.3,11.4-13,19.8-19.9c14.7-12.1,33.9-24.5,54.1-34.8l0.4-0.2l-0.1-0.4c-1.7-5.1-3.2-10.4-4.7-15.9
	c1.5,5.5,3.1,10.9,4.8,16.4C39.6,205.3,0.5,236.6,0.5,255.6z M24.7,290c3,2.6,6.3,5.3,9.7,7.9C31,295.3,27.7,292.6,24.7,290z
	 M66.8,305.8c-16.2-9.9-30.5-20.5-40.5-30.2c-5-4.8-8.7-9.3-11.1-13c-2.5-3.9-2.9-6.1-2.9-6.9s0.4-3,2.9-6.9
	c2.4-3.7,6.1-8.1,11.1-13c10-9.8,24.3-20.4,40.5-30.2c6.3-3.8,12.8-7.5,19.4-10.9c9.3,25.7,21.4,49,34.5,62.1
	c32,32,80.8,36.9,117.9,14.9c0.8-0.1,2.1-0.2,3.1,0.8c2.1,2,1.5,4.4,1.5,4.4c-5.7,41.4-39.3,63.7-82.2,63.7
	c-11.3,0-26.5-3.5-43.5-9.9C100.7,324.4,83,315.6,66.8,305.8z M74.9,436.2c-3.4-3.3-5.7-9.2-6.9-17.4c-1-7.5-1-16.9,0-28.1
	c1.8-18.8,6.6-41.1,13.6-62.9l0.1-0.3c0,0,0.1,0.1,0.1,0.1C67.2,373,61.7,422.7,74.9,436.2C75,436.3,75,436.2,74.9,436.2z
	 M157.5,425c-18.4,4.5-36,7.1-50,7.3c-7,0.1-12.8-0.4-17.1-1.4c-4.5-1-6.4-2.3-6.9-2.8s-1.8-2.4-2.8-6.9c-1-4.4-1.5-10.1-1.4-17.1
	c0.2-14,2.8-31.6,7.3-50c1.7-7.1,3.7-14.3,5.9-21.3c24.8,11.6,49.8,19.5,68.4,19.5c45.2,0,83.1-31,93.8-72.8
	c0.4-0.6,1.3-1.8,2.9-1.8c2.9,0,4.2,2.1,4.2,2.1c25.4,33.3,17.4,72.9-13,103.3c-8,8-21.3,16.2-37.8,23.7
	C194.6,414.2,175.9,420.5,157.5,425z M218.4,484.1c-12.1-14.7-24.5-33.9-34.8-54.1l-0.2-0.3c0,0,0.1,0,0.1,0
	c15.8,30.8,36.5,59.8,53.9,73.5C231.3,498.5,224.9,492.1,218.4,484.1z M237.5,503.3c0.7,0.6,1.4,1.1,2.1,1.6c-0.4-0.3-0.9-0.6-1.3-1
	C238,503.7,237.8,503.5,237.5,503.3z M239.8,505c0.7,0.5,1.5,1,2.2,1.5C241.3,506.1,240.6,505.6,239.8,505z M327.8,430.2l-0.2-0.1
	c0,0,0,0,0,0c0.2,0.1,0.3,0.1,0.5,0.2C327.9,430.3,327.8,430.3,327.8,430.2z M305.8,445.2c-9.9,16.2-20.5,30.5-30.2,40.5
	c-4.8,5-9.3,8.7-13,11.1c-3.9,2.5-6.1,2.9-6.9,2.9s-3-0.4-6.9-2.9c-3.7-2.4-8.1-6.1-13-11.1c-9.8-10-20.4-24.3-30.2-40.5
	c-3.8-6.3-7.5-12.8-10.9-19.4c25.7-9.3,49-21.4,62.1-34.5c32-32,36.9-80.8,14.9-117.9c-0.1-0.7-0.2-2.1,0.8-3.2c2-2,4.4-1.5,4.4-1.5
	c-0.4-0.1,0.4,0.1,0,0c37.3,9,63.7,42.3,63.7,82.3c0,11.3-3.5,26.5-9.9,43.5C324.4,411.3,315.6,429,305.8,445.2z M432.3,404.6
	c0.1,7-0.4,12.8-1.4,17.1c-1,4.5-2.3,6.4-2.8,6.9s-2.4,1.8-6.9,2.8c-4.4,1-10.1,1.5-17.1,1.4c-14-0.2-31.6-2.8-50-7.3
	c-7.1-1.7-14.3-3.7-21.3-6c11.6-24.8,19.5-49.9,19.5-68.4c0-45.1-30.9-83-72.7-93.7c-0.6-0.3-1.8-1.3-1.8-3c0-2.9,2.1-4.2,2.1-4.2
	c33.3-25.3,72.8-17.3,103.2,13.1c8,8,16.2,21.3,23.7,37.8c7.4,16.4,13.7,35.1,18.2,53.5C429.5,373,432.1,390.6,432.3,404.6z
	 M496.8,263.2c-2.4,3.7-6.1,8.1-11.1,13c-10,9.8-24.3,20.4-40.5,30.2c-6.3,3.8-12.8,7.5-19.4,10.9c-9.3-25.7-21.4-49-34.5-62.1
	c-32.1-32.1-81.1-36.9-118.2-14.6c-0.8,0.1-2,0.1-2.9-0.9c-1.9-1.8-1.6-4-1.5-4.3l0,0c5.7-41.4,39.4-64,82.3-64
	c11.3,0,26.5,3.5,43.5,9.9c16.8,6.3,34.5,15.1,50.7,24.9c16.2,9.9,30.5,20.5,40.5,30.2c5,4.8,8.7,9.3,11.1,13
	c2.5,3.9,2.9,6.1,2.9,6.9S499.3,259.3,496.8,263.2z"/>
</svg>
