<svg xmlns="http://www.w3.org/2000/svg" xml:space="preserve" viewBox="0 0 512 512"><path d="M510.8 164.7a8.9 8.9 0 0 0 1.2-3.8c0-3.1-2.7-5-6.1-5l.2-.1h-43.5c-3.4 0-5.8 3.1-7.3 6.1l-53.1 113.2-52.9-113c-1.5-3.1-3.4-6.1-6.9-6.1h-22.9c.2-.3-.8-1.2-.6-.1-.8-.3-1.8-.4-2.7-.1H274c-4.3.6-8.1 3.4-10 7.3l-51.9 89.7-56.2-89.7c-2.3-3.4-5.8-7.3-10-7.3h-45.4c-3.1-.3-5.8 1.9-6.2 5 .1.8.4 1.6.8 2.3l84.3 134.4-82 136.6c-.5.8-.7 1.8-.8 2.7 0 2.7 1.9 5 6.1 5h42c4.2 0 7.3-2.7 10-7.7l53.1-90.9 56.6 90.8c3.1 4.6 5.8 7.7 10 7.7h45.5c4.2 0 6.1-2.3 6.1-4.6.1-1.1-.2-2.2-.8-3.1l-84.7-135.5 63.4-106.2L375.2 328v105.7c-.3 3.9 2.6 7.3 6.5 7.6h40c4.1-.1 7.3-3.5 7.2-7.6V328zm-189.7-7.2c-.1-.2-.3-.3-.4-.4zm.9 1.9c-.1-.3-.2-.6-.3-.8.1.2.2.5.3.8m-.4-1.1c-.1-.2-.3-.5-.4-.7.1.3.3.5.4.7m-2.1-2.1c-.1-.1-.2-.1-.3-.2.1.1.2.2.3.2m.9.6c-.2-.1-.4-.3-.5-.4.2.2.3.3.5.4M0 118.9V77.5c.1-4.1 3.4-7.4 7.5-7.3h38c4.1-.2 7.5 3 7.7 7v41.6c0 4.2-3.4 7.7-7.7 7.7H7.7c-4.2 0-7.7-3.4-7.7-7.6m53.5 43.6v271.4c-.1 4.3-3.6 7.7-7.9 7.6H7.7c-4.2 0-7.6-3.4-7.7-7.6v-271c.1-4.1 3.4-7.4 7.5-7.3h38c4.2-.3 7.7 2.8 8 6.9"/></svg>