<?xml version="1.0" encoding="utf-8"?>
<!-- Generator: Adobe Illustrator 28.2.0, SVG Export Plug-In . SVG Version: 6.00 Build 0)  -->
<svg version="1.1" id="Layer_1" xmlns="http://www.w3.org/2000/svg" xmlns:xlink="http://www.w3.org/1999/xlink" x="0px" y="0px"
	 viewBox="0 0 512 512" style="enable-background:new 0 0 512 512;" xml:space="preserve">
<path d="M477.8,173.6c-22.1-22.2-51.5-34.5-82.7-34.5c-29.5,0-59.5,12.8-89.4,38.1c-21.2,17.9-38,38.6-49.7,55.2
	c-10.2-13.7-26.2-33.2-46.6-51.3c-14.9-13.4-29.8-23.9-44.2-31.2c-16.7-8.5-32.9-12.8-48-12.8c-31.3,0-60.8,12.2-82.9,34.5
	C12.2,193.9,0,223.5,0,255s12.2,61.2,34.3,83.5c22.2,22.2,51.6,34.5,82.9,34.5c35.4,0,70.7-25.2,94.1-46.3
	c20.5-18.6,35.9-37.5,45-49.7c16.2,22.3,35,46.1,55.4,63.9c26.7,23.3,53.2,34.1,83.4,34.1c31.2,0,60.5-12.3,82.7-34.6
	c22.1-22.2,34.3-51.9,34.3-83.4S499.9,195.9,477.8,173.6z M180.8,293c-24.4,22-47.5,34.6-63.6,34.6c-39.6,0-71.8-32.6-71.8-72.6
	s32.2-72.6,71.8-72.6c16.5,0,38.5,11.6,62,32.5c12.6,11.2,25.5,25.3,36.9,40C205.6,268.3,193.1,281.9,180.8,293z M395,329.5
	c-18.8,0-35.4-7-53.6-22.9C328,295,314.1,279,296,254.5c12.1-16.6,25.4-31.2,39-42.9c21.1-17.8,41.9-27.3,60-27.3
	c39.5,0,71.6,32.6,71.6,72.6S434.5,329.5,395,329.5z"/>
</svg>
