<svg xmlns="http://www.w3.org/2000/svg" xml:space="preserve" viewBox="0 0 512 512"><path d="M477.8 173.6c-22.1-22.2-51.5-34.5-82.7-34.5-29.5 0-59.5 12.8-89.4 38.1-21.2 17.9-38 38.6-49.7 55.2-10.2-13.7-26.2-33.2-46.6-51.3-14.9-13.4-29.8-23.9-44.2-31.2-16.7-8.5-32.9-12.8-48-12.8-31.3 0-60.8 12.2-82.9 34.5S0 223.5 0 255s12.2 61.2 34.3 83.5c22.2 22.2 51.6 34.5 82.9 34.5 35.4 0 70.7-25.2 94.1-46.3 20.5-18.6 35.9-37.5 45-49.7 16.2 22.3 35 46.1 55.4 63.9 26.7 23.3 53.2 34.1 83.4 34.1 31.2 0 60.5-12.3 82.7-34.6 22.1-22.2 34.3-51.9 34.3-83.4s-12.2-61.1-34.3-83.4M180.8 293c-24.4 22-47.5 34.6-63.6 34.6-39.6 0-71.8-32.6-71.8-72.6s32.2-72.6 71.8-72.6c16.5 0 38.5 11.6 62 32.5 12.6 11.2 25.5 25.3 36.9 40-10.5 13.4-23 27-35.3 38.1M395 329.5c-18.8 0-35.4-7-53.6-22.9C328 295 314.1 279 296 254.5c12.1-16.6 25.4-31.2 39-42.9 21.1-17.8 41.9-27.3 60-27.3 39.5 0 71.6 32.6 71.6 72.6s-32.1 72.6-71.6 72.6" style="fill:#fff"/></svg>