<svg xmlns="http://www.w3.org/2000/svg" xml:space="preserve" viewBox="0 0 512 512"><path d="M440.7 439.7c-21.3 12.5-45.3-7.1-23.7-26.5 23.6 4.8 28.4 21.7 23.7 26.5m-83.1-95.1c-16.5 16.9 50.8 28.1 43.9 48.9-14 42.1-52.3 15.3-93.3 57.3-16.5 16.9 31.6 15.3 15.1 32.2-31.1 22.8-94.8 38.7-99.9 10.8-7.1-38.9-45.3-23-61.8-39.8-16.5-16.9 33.8-34.8 17.3-51.6C162.3 385.5 79 369.9 62.5 353s63.3-29.3 46.8-46.2C63.3 284-44 293.2 19.8 214.1l189-193.4c22.7-23.3 62.7-23 86.7 0L491.4 221c77.8 77.8-86.3 95.9-133.8 123.6m-93.9-5.6c-18.7-3.1-95.1-18.6-100.1-21.8-24.6 0 73 39.6 93.1 34.3 8.8-4.5 13.4-11.1 7-12.5m95.1-228.8L284 34.3c-16.2-16.4-45-16.9-61.6 0-16.5 16.8-46.8 45.9-73.1 74.4-15.1 15.1-13.2 36.2 3.5 36.2h40.8l26.7-46.2 16.4 66.2 49.7-31.4 31 16.4 7.3-44 37.1 29.7c4-4.1 4.1-18.1-3-25.4m67.1 283.3c0 9.6 70.7 15.9 70.7-2.3-10.1-29.1-62.4-27.1-70.7 2.3m-318.5 51c16.7 14.5 42.6-3.6 50.4-23.8-16.3-21.6-77 .8-50.4 23.8"/></svg>