<svg xmlns="http://www.w3.org/2000/svg" xml:space="preserve" viewBox="0 0 512 512"><path d="m170.7 187.3-65.5-88.8H67.8v146.7h34.7v-91.7l67.1 91.7h35.8V98.5h-34.7zm158.5-22.1q-9.45-4.2-20.4-7.5-10.95-3.15-20.4-4.8c-6.3-1.1-11.6-2.7-15.8-4.9s-6.3-5-6.3-8.4q0-6.45 6-10.5c4-2.8 9.5-4.1 16.3-4.1 7.4 0 15 1.4 23 4.3q12 4.35 20.1 11.7l16.3-24.5c-15.6-14-35.3-21.1-59.2-21.1-17.2 0-31.1 4.4-41.8 13.2s-16 19.6-16 32.4q0 15.45 8.7 25.2c5.8 6.5 12.8 11 21.2 13.6 8.3 2.6 16.7 4.7 25 6.4s15.4 3.8 21.2 6.4q8.7 3.9 8.7 10.5c0 4.6-2.1 8.4-6.4 11.5-4.3 3-10.7 4.5-19.3 4.5-9.1 0-18.1-1.9-26.8-5.6-8.8-3.7-15.8-8.3-21-13.6l-15.8 26.4c6.7 6.6 15.4 11.9 26.3 16s23 6.1 36.3 6.1c19.8 0 35.1-4.3 46-12.8s16.3-20 16.3-34.4c0-8.7-2.1-16.2-6.3-22.4-4.3-6.2-9.6-10.8-15.9-13.6m128-5.8c-3.4 3.3-8.2 4.9-14.3 4.9h-34.2v-35.2h34.2c6.1 0 10.9 1.6 14.3 4.8s5.1 7.4 5.1 12.5c0 5.4-1.7 9.7-5.1 13m27.1-47c-9-9.2-21.4-13.9-37.2-13.9H374v146.7h34.7v-50.4H447c16.1 0 28.6-4.6 37.5-13.7s13.3-20.7 13.3-34.5q0-20.4-13.5-34.2M0 141.3l34.7-31.9V98.5H0zm0 103.9h34.7v-96.7L0 176.5zm289 49.4c7.2 0 13.8 1.9 19.7 5.7 6 3.8 10.6 8.8 13.9 14.8l28.9-14.1c-6-11-14.2-20-24.7-26.9s-23.1-10.4-37.9-10.4c-22.6 0-41.4 7.2-56.3 21.5s-22.4 32.7-22.4 55.1 7.4 40.8 22.4 55.1c14.9 14.3 33.7 21.5 56.3 21.5 14.7 0 27.4-3.5 38-10.4s18.8-16 24.6-27.2l-28.9-13.6q-4.5 9-13.5 14.7c-6 3.7-12.7 5.6-20.1 5.6-12.4 0-22.8-4.3-31-12.9s-12.4-19.5-12.4-32.7 4.1-24 12.4-32.7c8.2-8.8 18.6-13.1 31-13.1m-137.8 33.2c-3.5 3.3-8.3 4.9-14.5 4.9h-34.2v-35.2h34.2c6 0 10.7 1.6 14.3 4.8s5.4 7.4 5.4 12.5c.1 5.4-1.7 9.7-5.2 13m30.6 17.4c6.6-7.8 9.9-18 9.9-30.4 0-13.7-4.6-25.1-13.7-34.3-9.1-9.1-21.5-13.7-37.1-13.7H67.8v146.7h34.7v-50.4h21.8l28.9 50.4H193l-34.7-53.9c9.1-1.7 17-6.5 23.5-14.4m283.3 25.5c-7.6 8.1-18.4 12.1-32.2 12.1h-25.8v-85.3h26c14.4 0 25.2 4 32.5 11.9s10.9 18.3 10.9 31.1c0 12-3.8 22.1-11.4 30.2m25.3-83.7q-21.6-20.1-57.6-20.1h-60.5v146.7H433c23.8 0 43-6.7 57.3-20q21.6-19.95 21.6-53.1c.1-22.3-7.1-40.1-21.5-53.5M0 310.7l34.7-31.9v-12H0zm0 102.8h34.7v-95.7L0 345.9z"/></svg>