<svg xmlns="http://www.w3.org/2000/svg" xml:space="preserve" viewBox="0 0 512 512"><ellipse cx="256.4" cy="256.4" rx="203.8" ry="202" style="fill:#fff"/><path d="M256.4 28.8C130 28.8 27.6 130.7 27.6 256.4S130 484 256.4 484s228.7-101.9 228.7-227.6S382.7 28.8 256.4 28.8m0 429.6c-36 0-69.7-9.2-99-25.4-.9-1.9-1.7-3.8-2.4-5.6-23.2-59.6 5.1-99.1 72.1-116.1l10.8-2.8v-27c-2.9 0-10.3 1-15.4 1.8-74.4 12-112.3 42.3-115.1 99.5-.2 3.4-.5 9.2 0 10.5.2.5.4 1 .7 1.5-34.3-36.2-55.4-84.8-55.4-138.4 0-111.6 91.3-202 203.8-202s203.8 90.4 203.8 202-91.3 202-203.9 202m105-234.7c-8 .1-17.3.2-29.4.2-9.4.1-18.4 0-25 .1v-20.1l32.7.7 33.4 1v-5.5c.1-1.6 0-4.6.1-3.9.1.6 9 5.1 15.2 9.1 10.3 6.6 13.6 8.3 14.3 8.9.6.5-6.7 3.5-16.7 10.2-6.7 4.5-12.3 7.8-12.3 7.3 0-.4.2-10.8.1-8.2z" style="fill:#4dbac4"/><path d="M256.4 10.5c-135.7 0-245.8 109.9-245.8 245.4s110 245.4 245.8 245.4 245.8-109.9 245.8-245.4S392.1 10.5 256.4 10.5m0 473.5C130 484 27.6 382.1 27.6 256.4S130 28.8 256.4 28.8s228.7 101.9 228.7 227.6S382.7 484 256.4 484M76.5 352.8C70.7 341.4 63.1 323 60 312.6l-1.7-6.1 2.2-2.7c17.9-22.2 39.9-37.3 72.4-48.2 27.3-9.2 57-13.3 94-13.9l10.9-.2v26.2l-2.8.2c-83.8 5.2-137.3 37-151.7 92.8l-.9 3.4zM359.6 302c-25.6.1-53.7.3-53.7.4v-19.5l33.1.1 33.1.1v-5.5c.1-1.6-.2-4.6.1-3.9.1.2 9 5.1 15.2 9.1 10.3 6.6 13.6 8.3 14.3 8.9.6.5-5.4 4-15.4 10.7-6.7 4.5-13.4 9.4-13.4 8.9 0-.4-.1-9-.1-9z" style="fill:#277fb1"/><path d="M388.2 35.1C295.1-19.2 167-11 86.6 63.1c-67.5 55-96.2 148.3-83.9 233.3C19.2 411.3 123 503.8 237.1 511.3c53.8 3.9 109.1-10.1 154.7-39.3 74.2-44.6 120.5-129.8 120-216.6 3.3-89.1-47.8-175.9-123.6-220.3M256.4 501.3c-135.7 0-245.8-109.9-245.8-245.4s110-245.4 245.8-245.4 245.8 109.9 245.8 245.4-110.1 245.4-245.8 245.4m-204.1-255c.5-9.6 2.6-21.9 2.8-22 8.2-3.1 19.5-8.7 40.2-14.5 22.7-6.3 57.3-14 123.6-11.4 15.8.6 19.2.2 19.2.6v27.7l-20.8.5c-88.2 2-132 22.9-162.8 55.5-.4.4-.8-2.1-1.3-7.2-.2-2.5-.6-7-.7-10.3-.5-9-.2-18.9-.2-18.9m361 14.7c-.1-.2-43.6 2-107.3 1.9v-20.5c1.6 0 95.8 1.5 101.5 1.9l5.8.4c.3-3.5.4-7.3.4-10.7 0-.2 14.3 8.7 29 18.9-25.7 15.5-24.9 16-28.9 18.5-.2.1-.2-5.8-.5-10.4m-165.5-5.7v-79.7c15.7 4.1 32.7 8.7 48.5 12.8.3 23.3-.3 46.3-.2 69.6l.1 63.9c-46 11.5-45 13-47.9 13-.3 0-.5-35.8-.5-79.6" style="fill:#1c3b57"/></svg>