<?xml version="1.0" encoding="utf-8"?>
<!-- Generator: Adobe Illustrator 28.2.0, SVG Export Plug-In . SVG Version: 6.00 Build 0)  -->
<svg version="1.1" id="Layer_1" xmlns="http://www.w3.org/2000/svg" xmlns:xlink="http://www.w3.org/1999/xlink" x="0px" y="0px"
	 viewBox="0 0 512 512" style="enable-background:new 0 0 512 512;" xml:space="preserve">
<style type="text/css">
	.st0{fill:#006E82;}
	.st1{fill:#00546D;}
	.st2{fill:#00FFFF;}
	.st3{fill:#FFFFFF;}
</style>
<path class="st0" d="M0,0v407c0,58,47,105,105,105h407V105C512,47,465,0,407,0H0z"/>
<path class="st1" d="M256,65.6L243.3,66l-12.6,1.3l-12.5,2.1l-12.2,3l-12.1,3.7L182,80.6L170.6,86l-11.2,6l-10.7,6.8l-10.2,7.5
	l-9.7,8.1l-9.1,8.8l-8.5,9.4l-7.9,9.9l-7.2,10.4l-6.5,10.9L83.9,175l-5,11.6l-4.2,11.9l-3.4,12.2l-2.6,12.4l62.8,65.6H68.7l2.6,12.4
	l3.4,12.2l4.2,11.9l5,11.6l5.8,11.3l6.5,10.9l7.2,10.4l7.9,9.9l8.5,9.4L237.6,512H512V248.4l-121.4-127l-9.1-8.5l-9.6-7.9l-10.1-7.3
	l-10.6-6.6l-11-5.9l-11.3-5.1l-11.7-4.4l-11.9-3.6l-12.1-2.8l-12.3-2L268.4,66L256,65.6z"/>
<path class="st2" d="M256,65.6c-4.2,0-8.5,0.1-12.7,0.4s-8.4,0.7-12.6,1.3c-4.2,0.6-8.4,1.3-12.5,2.1c-4.2,0.8-8.3,1.8-12.3,2.9
	c-4.1,1.1-8.1,2.4-12.1,3.7c-4,1.4-7.9,2.9-11.8,4.5c-3.9,1.6-7.7,3.4-11.5,5.3s-7.5,3.9-11.1,6.1c-3.6,2.1-7.2,4.4-10.7,6.8
	s-6.9,4.9-10.2,7.5s-6.6,5.3-9.7,8.1c-3.1,2.8-6.2,5.7-9.1,8.8c-2.9,3-5.8,6.1-8.5,9.4c-2.7,3.2-5.4,6.5-7.9,9.9s-4.9,6.9-7.2,10.4
	c-2.3,3.5-4.5,7.2-6.5,10.9s-4,7.4-5.8,11.3c-1.8,3.8-3.5,7.7-5,11.6c-1.5,3.9-2.9,7.9-4.2,11.9c-1.3,4-2.4,8.1-3.4,12.2
	c-1,4.1-1.9,8.2-2.6,12.4h12.5h12.5h12.5h12.5h12.5h12.5h12.5h12.5h12.5h12.5H206h12.5H231h12.5H256l0,0c4.4,0,8.7,0.9,12.6,2.5
	c4,1.7,7.6,4.1,10.6,7.1s5.5,6.6,7.1,10.6c1.6,3.9,2.5,8.1,2.5,12.6c0,4.4-0.9,8.7-2.5,12.6c-1.7,4-4.1,7.6-7.1,10.6
	s-6.6,5.5-10.6,7.1c-3.9,1.6-8.1,2.5-12.6,2.5l0,0h-12.5H231h-12.5H206h-12.5H181h-12.5H156h-12.5H131h-12.5H106H93.6H81.1H68.7
	c0.7,4.2,1.6,8.3,2.6,12.4s2.1,8.2,3.4,12.2s2.7,8,4.2,11.9s3.2,7.8,5,11.6c1.8,3.8,3.7,7.6,5.8,11.3c2.1,3.7,4.2,7.3,6.5,10.9
	s4.7,7,7.2,10.4s5.2,6.7,7.9,9.9c2.7,3.2,5.6,6.3,8.5,9.4c2.9,3,6,5.9,9.1,8.8c3.1,2.8,6.4,5.5,9.7,8.1s6.7,5.1,10.2,7.5
	s7,4.6,10.7,6.8c3.6,2.1,7.3,4.2,11.1,6.1s7.6,3.7,11.5,5.3c3.9,1.6,7.8,3.2,11.8,4.5c4,1.4,8,2.6,12.1,3.7s8.2,2.1,12.3,2.9
	s8.3,1.5,12.5,2.1s8.4,1,12.6,1.3c4.2,0.3,8.4,0.4,12.7,0.4c4.2,0,8.3-0.1,12.5-0.4s8.3-0.7,12.4-1.2s8.2-1.2,12.3-2
	c4.1-0.8,8.1-1.8,12.1-2.8c4-1.1,8-2.3,11.9-3.6c3.9-1.3,7.8-2.8,11.7-4.4c3.8-1.6,7.6-3.3,11.3-5.1c3.7-1.8,7.4-3.8,11-5.9
	s7.1-4.3,10.6-6.6c3.4-2.3,6.8-4.7,10.1-7.3c3.3-2.5,6.5-5.2,9.6-7.9c3.1-2.7,6.1-5.6,9.1-8.5c2.9-2.9,5.8-6,8.5-9.1
	s5.4-6.3,7.9-9.6c2.5-3.3,5-6.7,7.3-10.1c2.3-3.5,4.5-7,6.6-10.6s4-7.3,5.9-11c1.8-3.7,3.6-7.5,5.1-11.3c1.6-3.8,3.1-7.7,4.4-11.7
	c1.3-3.9,2.5-7.9,3.6-11.9s2-8.1,2.8-12.1c0.8-4.1,1.5-8.2,2-12.3c0.5-4.1,0.9-8.2,1.2-12.4c0.3-4.1,0.4-8.3,0.4-12.4
	c0-4.2-0.1-8.3-0.4-12.5s-0.7-8.3-1.2-12.4c-0.5-4.1-1.2-8.2-2-12.3s-1.8-8.1-2.8-12.1c-1.1-4-2.3-8-3.6-11.9
	c-1.3-3.9-2.8-7.8-4.4-11.7c-1.6-3.8-3.3-7.6-5.1-11.3c-1.8-3.7-3.8-7.4-5.9-11s-4.3-7.1-6.6-10.6c-2.3-3.4-4.7-6.8-7.3-10.1
	c-2.5-3.3-5.2-6.5-7.9-9.6c-2.7-3.1-5.6-6.1-8.5-9.1c-2.9-2.9-6-5.8-9.1-8.5s-6.3-5.4-9.6-7.9c-3.3-2.5-6.7-5-10.1-7.3
	c-3.5-2.3-7-4.5-10.6-6.6s-7.3-4-11-5.9c-3.7-1.8-7.5-3.6-11.3-5.1c-3.8-1.6-7.7-3.1-11.7-4.4c-3.9-1.3-7.9-2.5-11.9-3.6
	s-8.1-2-12.1-2.8c-4.1-0.8-8.2-1.5-12.3-2c-4.1-0.5-8.2-0.9-12.4-1.2C264.3,65.8,260.2,65.6,256,65.6"/>
<path class="st3" d="M250,76.3c-55.7,1.6-109.7,30.9-141.3,76.9c-12.6,17.9-22.2,38.8-27.1,59.5c60.1,0.2,120.2-0.4,180.3,0.4
	c26.4,2.6,44.9,33.3,34.8,57.9c-6.8,19.6-28.6,31-48.7,28.3H81.6c14.5,61,64.4,113.2,125.5,129.7c38.8,10.9,80.1,8.8,117.3-6.8
	c50.8-20.6,90.9-65.5,105-118.5c7-25.7,8.3-54.8,3.3-81.1c-6.3-34.1-22.6-65.5-46-90.2C351.7,95.4,300.5,74.1,250,76.3L250,76.3z"/>
</svg>
