<svg xmlns="http://www.w3.org/2000/svg" xml:space="preserve" viewBox="0 0 512 512"><path d="M0 0v407c0 58 47 105 105 105h407V105C512 47 465 0 407 0z" style="fill:#006e82"/><path d="m256 65.6-12.7.4-12.6 1.3-12.5 2.1-12.2 3-12.1 3.7-11.9 4.5-11.4 5.4-11.2 6-10.7 6.8-10.2 7.5-9.7 8.1-9.1 8.8-8.5 9.4-7.9 9.9-7.2 10.4-6.5 10.9-5.7 11.2-5 11.6-4.2 11.9-3.4 12.2-2.6 12.4 62.8 65.6H68.7l2.6 12.4 3.4 12.2 4.2 11.9 5 11.6 5.8 11.3 6.5 10.9 7.2 10.4 7.9 9.9 8.5 9.4L237.6 512H512V248.4l-121.4-127-9.1-8.5-9.6-7.9-10.1-7.3-10.6-6.6-11-5.9-11.3-5.1-11.7-4.4-11.9-3.6-12.1-2.8-12.3-2-12.5-1.3z" style="fill:#00546d"/><path d="M256 65.6c-4.2 0-8.5.1-12.7.4s-8.4.7-12.6 1.3-8.4 1.3-12.5 2.1c-4.2.8-8.3 1.8-12.3 2.9-4.1 1.1-8.1 2.4-12.1 3.7-4 1.4-7.9 2.9-11.8 4.5s-7.7 3.4-11.5 5.3-7.5 3.9-11.1 6.1c-3.6 2.1-7.2 4.4-10.7 6.8s-6.9 4.9-10.2 7.5-6.6 5.3-9.7 8.1-6.2 5.7-9.1 8.8c-2.9 3-5.8 6.1-8.5 9.4-2.7 3.2-5.4 6.5-7.9 9.9s-4.9 6.9-7.2 10.4-4.5 7.2-6.5 10.9-4 7.4-5.8 11.3c-1.8 3.8-3.5 7.7-5 11.6s-2.9 7.9-4.2 11.9-2.4 8.1-3.4 12.2-1.9 8.2-2.6 12.4H256c4.4 0 8.7.9 12.6 2.5 4 1.7 7.6 4.1 10.6 7.1s5.5 6.6 7.1 10.6c1.6 3.9 2.5 8.1 2.5 12.6 0 4.4-.9 8.7-2.5 12.6-1.7 4-4.1 7.6-7.1 10.6s-6.6 5.5-10.6 7.1c-3.9 1.6-8.1 2.5-12.6 2.5H68.7c.7 4.2 1.6 8.3 2.6 12.4s2.1 8.2 3.4 12.2 2.7 8 4.2 11.9 3.2 7.8 5 11.6 3.7 7.6 5.8 11.3 4.2 7.3 6.5 10.9 4.7 7 7.2 10.4 5.2 6.7 7.9 9.9 5.6 6.3 8.5 9.4c2.9 3 6 5.9 9.1 8.8 3.1 2.8 6.4 5.5 9.7 8.1s6.7 5.1 10.2 7.5 7 4.6 10.7 6.8c3.6 2.1 7.3 4.2 11.1 6.1s7.6 3.7 11.5 5.3 7.8 3.2 11.8 4.5c4 1.4 8 2.6 12.1 3.7s8.2 2.1 12.3 2.9 8.3 1.5 12.5 2.1 8.4 1 12.6 1.3 8.4.4 12.7.4c4.2 0 8.3-.1 12.5-.4s8.3-.7 12.4-1.2 8.2-1.2 12.3-2 8.1-1.8 12.1-2.8c4-1.1 8-2.3 11.9-3.6s7.8-2.8 11.7-4.4c3.8-1.6 7.6-3.3 11.3-5.1s7.4-3.8 11-5.9 7.1-4.3 10.6-6.6c3.4-2.3 6.8-4.7 10.1-7.3 3.3-2.5 6.5-5.2 9.6-7.9s6.1-5.6 9.1-8.5c2.9-2.9 5.8-6 8.5-9.1s5.4-6.3 7.9-9.6 5-6.7 7.3-10.1c2.3-3.5 4.5-7 6.6-10.6s4-7.3 5.9-11c1.8-3.7 3.6-7.5 5.1-11.3 1.6-3.8 3.1-7.7 4.4-11.7 1.3-3.9 2.5-7.9 3.6-11.9s2-8.1 2.8-12.1c.8-4.1 1.5-8.2 2-12.3s.9-8.2 1.2-12.4c.3-4.1.4-8.3.4-12.4 0-4.2-.1-8.3-.4-12.5s-.7-8.3-1.2-12.4-1.2-8.2-2-12.3-1.8-8.1-2.8-12.1c-1.1-4-2.3-8-3.6-11.9s-2.8-7.8-4.4-11.7c-1.6-3.8-3.3-7.6-5.1-11.3s-3.8-7.4-5.9-11-4.3-7.1-6.6-10.6c-2.3-3.4-4.7-6.8-7.3-10.1-2.5-3.3-5.2-6.5-7.9-9.6s-5.6-6.1-8.5-9.1c-2.9-2.9-6-5.8-9.1-8.5s-6.3-5.4-9.6-7.9-6.7-5-10.1-7.3c-3.5-2.3-7-4.5-10.6-6.6s-7.3-4-11-5.9c-3.7-1.8-7.5-3.6-11.3-5.1-3.8-1.6-7.7-3.1-11.7-4.4-3.9-1.3-7.9-2.5-11.9-3.6s-8.1-2-12.1-2.8c-4.1-.8-8.2-1.5-12.3-2s-8.2-.9-12.4-1.2c-4.3-.3-8.4-.5-12.6-.5" style="fill:#0ff"/><path d="M250 76.3c-55.7 1.6-109.7 30.9-141.3 76.9-12.6 17.9-22.2 38.8-27.1 59.5 60.1.2 120.2-.4 180.3.4 26.4 2.6 44.9 33.3 34.8 57.9-6.8 19.6-28.6 31-48.7 28.3H81.6c14.5 61 64.4 113.2 125.5 129.7 38.8 10.9 80.1 8.8 117.3-6.8 50.8-20.6 90.9-65.5 105-118.5 7-25.7 8.3-54.8 3.3-81.1-6.3-34.1-22.6-65.5-46-90.2-35-37-86.2-58.3-136.7-56.1" style="fill:#fff"/></svg>