<?xml version="1.0" encoding="utf-8"?>
<!-- Generator: Adobe Illustrator 28.2.0, SVG Export Plug-In . SVG Version: 6.00 Build 0)  -->
<svg version="1.1" id="Layer_1" xmlns="http://www.w3.org/2000/svg" xmlns:xlink="http://www.w3.org/1999/xlink" x="0px" y="0px"
	 viewBox="0 0 512 512" style="enable-background:new 0 0 512 512;" xml:space="preserve">
<style type="text/css">
	.st0{fill:url(#SVGID_1_);}
	.st1{fill:url(#SVGID_00000168831577842293866620000004317727276182760084_);}
	.st2{fill:#FFFFFF;}
</style>
<radialGradient id="SVGID_1_" cx="-286.8782" cy="685.7209" r="255.9519" gradientTransform="matrix(0 -1.982 1.8439 0 -1128.4 -17.235)" gradientUnits="userSpaceOnUse">
	<stop  offset="0" style="stop-color:#FFDD55"/>
	<stop  offset="0.1" style="stop-color:#FFDD55"/>
	<stop  offset="0.5" style="stop-color:#FF543E"/>
	<stop  offset="1" style="stop-color:#C837AB"/>
</radialGradient>
<path class="st0" d="M256.1,0.1C149.2,0.1,118,0.2,111.9,0.7C89.9,2.5,76.3,6,61.4,13.4C50,19.1,40.9,25.6,32,34.9
	C15.8,51.8,5.9,72.5,2.4,97.2c-1.7,12-2.2,14.4-2.3,75.6c0,20.4,0,47.2,0,83.2c0,106.8,0.1,138,0.6,144.1
	c1.8,21.3,5.1,34.8,12.2,49.5c13.5,28.1,39.4,49.2,69.9,57.1c10.6,2.7,22.2,4.2,37.2,4.9c6.3,0.3,71,0.5,135.6,0.5
	s129.3-0.1,135.5-0.4c17.3-0.8,27.4-2.2,38.5-5c30.7-7.9,56.1-28.7,69.9-57.2c7-14.3,10.5-28.3,12.1-48.5
	c0.3-4.4,0.5-74.7,0.5-144.9s-0.2-140.4-0.5-144.8c-1.6-20.6-5.1-34.4-12.3-49c-5.9-12-12.4-20.9-21.9-30
	c-16.9-16.2-37.6-26-62.3-29.6c-12-1.7-14.3-2.2-75.5-2.3h-83.5V0.1z"/>
<radialGradient id="SVGID_00000080183645804512481000000015556074076340680083_" cx="394.1067" cy="480.9602" r="255.9519" gradientTransform="matrix(0.1739 0.8687 -3.5818 0.7172 1568.3947 -650.3707)" gradientUnits="userSpaceOnUse">
	<stop  offset="0" style="stop-color:#3771C8"/>
	<stop  offset="0.128" style="stop-color:#3771C8"/>
	<stop  offset="1" style="stop-color:#6600FF;stop-opacity:0"/>
</radialGradient>
<path style="fill:url(#SVGID_00000080183645804512481000000015556074076340680083_);" d="M256.1,0.1C149.2,0.1,118,0.2,111.9,0.7
	C89.9,2.5,76.3,6,61.4,13.4C50,19.1,40.9,25.6,32,34.9C15.8,51.8,5.9,72.5,2.4,97.2c-1.7,12-2.2,14.4-2.3,75.6c0,20.4,0,47.2,0,83.2
	c0,106.8,0.1,138,0.6,144.1c1.8,21.3,5.1,34.8,12.2,49.5c13.5,28.1,39.4,49.2,69.9,57.1c10.6,2.7,22.2,4.2,37.2,4.9
	c6.3,0.3,71,0.5,135.6,0.5s129.3-0.1,135.5-0.4c17.3-0.8,27.4-2.2,38.5-5c30.7-7.9,56.1-28.7,69.9-57.2c7-14.3,10.5-28.3,12.1-48.5
	c0.3-4.4,0.5-74.7,0.5-144.9s-0.2-140.4-0.5-144.8c-1.6-20.6-5.1-34.4-12.3-49c-5.9-12-12.4-20.9-21.9-30
	c-16.9-16.2-37.6-26-62.3-29.6c-12-1.7-14.3-2.2-75.5-2.3h-83.5V0.1z"/>
<path class="st2" d="M256,67c-51.3,0-57.8,0.2-77.9,1.1s-33.9,4.1-45.9,8.8c-12.4,4.8-23,11.3-33.5,21.8s-17,21.1-21.8,33.5
	c-4.7,12-7.9,25.8-8.8,45.9C67.2,198.3,67,204.7,67,256s0.2,57.8,1.1,77.9s4.1,33.9,8.8,45.9c4.8,12.4,11.3,23,21.8,33.5
	s21,17,33.5,21.8c12,4.7,25.8,7.9,45.9,8.8c20.2,0.9,26.6,1.1,77.9,1.1s57.8-0.2,77.9-1.1s33.9-4.1,45.9-8.8
	c12.4-4.8,23-11.3,33.5-21.8s17-21.1,21.8-33.5c4.6-12,7.8-25.8,8.8-45.9c0.9-20.2,1.1-26.6,1.1-77.9s-0.2-57.8-1.1-77.9
	s-4.1-33.9-8.8-45.9c-4.8-12.4-11.3-23-21.8-33.5s-21-17-33.5-21.8c-12-4.7-25.8-7.9-45.9-8.8C313.7,67.2,307.3,67,256,67L256,67z
	 M239,101.1c5,0,10.6,0,17,0c50.5,0,56.4,0.2,76.4,1.1c18.4,0.8,28.4,3.9,35.1,6.5c8.8,3.4,15.1,7.5,21.7,14.1s10.7,12.9,14.1,21.7
	c2.6,6.7,5.7,16.7,6.5,35.1c0.9,19.9,1.1,25.9,1.1,76.4s-0.2,56.4-1.1,76.4c-0.8,18.4-3.9,28.4-6.5,35.1
	c-3.4,8.8-7.5,15.1-14.1,21.7s-12.9,10.7-21.7,14.1c-6.7,2.6-16.7,5.7-35.1,6.5c-19.9,0.9-25.9,1.1-76.4,1.1s-56.5-0.2-76.4-1.1
	c-18.4-0.9-28.4-3.9-35.1-6.5c-8.8-3.4-15.1-7.5-21.7-14.1s-10.7-12.9-14.1-21.7c-2.6-6.7-5.7-16.7-6.5-35.1
	c-0.9-19.9-1.1-25.9-1.1-76.4s0.2-56.4,1.1-76.4c0.8-18.4,3.9-28.4,6.5-35.1c3.4-8.8,7.5-15.1,14.1-21.7
	c6.6-6.6,12.9-10.7,21.7-14.1c6.7-2.6,16.7-5.7,35.1-6.5C197,101.3,203.8,101.1,239,101.1L239,101.1z M356.9,132.5
	c-12.5,0-22.7,10.1-22.7,22.7c0,12.5,10.2,22.7,22.7,22.7s22.7-10.2,22.7-22.7S369.4,132.4,356.9,132.5L356.9,132.5z M256,159
	c-53.6,0-97.1,43.5-97.1,97.1s43.5,97,97.1,97s97-43.4,97-97S309.6,159,256,159L256,159z M256,193c34.8,0,63,28.2,63,63
	s-28.2,63-63,63s-63-28.2-63-63S221.2,193,256,193z"/>
</svg>
