<svg xmlns="http://www.w3.org/2000/svg" xml:space="preserve" viewBox="0 0 512 512"><path d="M352.3 512c-7.4 0-14.9-.8-22.4-2.4l-244.5-52C27.3 445.3-10 388 2.4 329.8l52-244.5C66.7 27.3 124-10 182.2 2.4l244.5 52c58.1 12.4 95.4 69.7 83 127.8l-52 244.5c-10.8 50.5-55.6 85.3-105.4 85.3M159.7 40.6c-31 0-59 21.7-65.7 53.2L42 338.3c-7.7 36.2 15.5 72 51.7 79.7l244.5 52c36.2 7.7 72-15.5 79.7-51.7l52-244.5c7.7-36.2-15.5-72-51.7-79.7l-244.5-52c-4.7-1-9.4-1.5-14-1.5m165 237.3c25.9 0 46.9 21 46.9 46.9s-21 46.9-46.9 46.9-46.9-21-46.9-46.9c.1-26 21-46.9 46.9-46.9" style="fill:#fff"/></svg>