<svg xmlns="http://www.w3.org/2000/svg" xml:space="preserve" viewBox="0 0 462.9 462.9"><circle cx="231.4" cy="231.4" r="231.4" style="fill:#dd0447"/><path d="M438.7 258.5 347.9 246 312.7 89.8l-.1-.3c-1.7-7.3-7.3-13.4-15.1-15.2-10.9-2.6-21.8 4.1-24.4 15l-49.9 210.5-47.1-146.7-.1-.2c-1.9-5.7-6.5-10.3-12.6-12-9.7-2.6-19.8 3.2-22.4 12.9l-25.3 94.7-91.2 10.1c-2.7.3-4.9 2.4-5.2 5.2-.4 3.3 2 6.2 5.2 6.5l105 11.6c7.3.8 14.3-3.7 16.3-11l.5-1.9 13.5-47.7 49 149.8c1.8 5.5 6.4 10.1 12.4 11.7 9.5 2.4 19.2-3.3 21.6-12.8v-.1l48.4-188.3 19.2 87.2.6 2.6c2 8.9 10.5 14.9 19.7 13.7l107.9-14.8c2.6-.4 4.7-2.4 5.1-5.1.5-3.2-1.7-6.2-5-6.7" style="fill:#fff"/></svg>