<svg xmlns="http://www.w3.org/2000/svg" xml:space="preserve" viewBox="0 0 512 512"><path d="M482.2 488.2V512H29.8v-23.8zm-17.8-35.7v29.8H47.6v-29.8zM91.3 131l5 2.5 2.5 40.1 2.5 65.2v62.7l-2.5 78.2-.4 52.7-7 2.1h-25l-7.5-2.1-2.9-52.7-2.4-77.7v-62.7l2.5-65.7 2.3-40.4 5.2-2.3zm357.2 0 5 2.5 2.5 40.1 2.5 65.2v62.7l-2.5 78.2-.4 52.7-7 2.1h-24.8l-7.5-2.1-2.9-52.7-2.5-77.8v-62.7l2.5-65.7 2.3-40.4 5.2-2.3zm-250.1 0 5 2.5 2.5 40.1 2.5 65.2v62.7l-2.5 78.2-.4 52.7-7 2.1h-24.9l-7.5-2.1-2.9-52.7-2.5-77.8v-62.7l2.5-65.7 2.3-40.4 5.2-2.3zm137 0 5 2.5 2.5 40.1 2.5 65.2v62.7l-2.5 78.2-.4 52.7-7 2.1h-24.9l-7.5-2.1-2.9-52.7-2.5-77.8v-62.7l2.5-65.7 2.3-40.4 5.2-2.3zm129-53.6v41.7H47.6V77.4zM251.7 0l218.6 50.1-8.8 15.4H42.9L29.8 53z" style="fill-rule:evenodd;clip-rule:evenodd;fill:#2c2c2c"/></svg>