<svg xmlns="http://www.w3.org/2000/svg" xml:space="preserve" viewBox="0 0 512 512"><path d="M507.9 244.4c-2.2-4.6-6.7-10.6-13.3-15.5 11.4-8.3 16.7-21 15.8-37.9-1.7-30.5-21.5-53.9-54.5-64.6-4.7-19.3-22.6-44.7-59-56.3-4.9-1.6-10-2.7-15-3.4-23.4-3.1-43.2 3.9-54.7 11.9-8.2-8.9-22.3-18.8-45.7-21.9-6.4-.8-13.3-1.1-20.5-.8-14.2.6-27.4 4.8-39.2 12.5-9.5 6.1-15.8 13.1-19.6 18.1-5.6-3.1-15.1-7.4-27.5-9-17.6-2.3-34.8 1.2-51.3 10.4-27.5 15.4-31.8 35.8-31.8 47.1-16 .3-45.8 4.9-62.6 33.1-16.5 27.7-5.3 51.7 2.9 63.6C20.7 237.3 2.7 250.3.4 276c-2.4 26.6 6.2 51.9 22.8 67.4 11.2 10.5 25.9 17 43.5 19.3 2.3.3 4.7.5 7.1.7-1 7.6.4 15.8 3.9 23.1 5.2 10.7 14.7 19.3 27.7 25 6.1 2.7 12.4 4.5 18.7 5.3 20.5 2.7 39-5.1 49.5-13.3q4.5 1.35 9.9 2.1c5.7.8 11.8.9 17.6.4 12.3-1.1 29.5-5.4 41.8-19.9 1-1.1 1.9-2.3 2.8-3.5 3 .7 6.1 1.3 9.3 1.7 9.7 1.3 19.7 1.2 29-.2 5.9 5.7 14.1 10.5 24.3 14.4 18.9 7.2 20.8 15.1 22.9 23.4.5 2.1 1 4.1 1.8 6.1 3.9 10 8.1 16.9 15.3 24.6l2.1 2.2c.8.9 1.8 1.4 2.9 1.5.9.1 1.9 0 2.7-.4l36.6-17.3c1.2-.6 2.1-1.7 2.2-3s-.4-2.5-1.5-3.4l-4.1-3.3c-.3-.2-8-6.8-7.9-18.1.1-5 3.6-9.6 7.7-14.8 1.6-2.1 3.4-4.4 5-6.9 16.9-4.6 32.3-14.7 42.3-28.1 7.2-9.5 11.2-20 11.6-29.7 11.7-.6 23.5-4.5 35-11.7 20.7-12.8 27-30.9 28.6-43.8 1.7-13.9-1.3-26.6-3.6-31.4M104.7 109.2c-8.6 11.9-9 23.5-8.4 29.7h-.1c-.6-6.3-.1-17.9 8.5-29.7M32.4 336.1C18 322.7 10.7 300.6 12.8 277c2.6-29.6 30.7-38.5 33-39.2v.1c.4-.1 34.8-9.7 56.8 16.4 0 0-5.6-17.8-26.2-23.4-12.5-2.8-24.2-1.7-30.4-.3-5.4-6.2-22.5-29.5-5.9-57.5 19.4-32.5 58.7-27.4 60.4-27.2l1.1.1c6.3 1.4 37.9 12.2 38.6 34.7 0 0 9.8-16.9-14.3-31.7-8.2-5-16.6-8.1-21.5-9.3-1-6.5-1.9-27.3 26-42.9 34.6-19.4 64.2-4.2 71.9 2.6l.1.1-.2.2c1.7 1.4 17 14.5 17.1 36.7.2 25.5-10.9 32.5-11 32.6 0 0 11-5.2 16.2-18.1 8.1 10.3 22.6 11.1 22.6 11.1-5.2-1-17.8-11.5-20.3-20.3q.3-2.4.3-5.1c-.1-20.9-12.2-34.8-17.5-39.9 4.3-6.7 20.7-29 52.4-30.3 39.8-1.6 55.7 16.8 60.7 25h-.1c.3.5 27.1 46.5-8.4 68.3 0 0 11.8-1.9 19.4-10.5 6.7 11.8 22.4 15.9 22.4 15.9-6.6-2.9-15.3-12.9-18.1-23 .5-1.3 1-2.7 1.3-4.2 4.4-19.9-5.1-40.8-8.5-47.4 7.5-7.1 32.2-20.1 62.5-10.5 29.5 9.4 46.3 29.9 50.7 47.5-10.9-1.1-32.3-1-48.2 7-.1-.5-.2-1.1-.3-1.6-4.9-19.4-21.4-26.4-21.4-26.4 13.7 15.8 17.9 34 13.1 57.4-4.3 21.1-29.6 27.9-38.2 28.4-12.2-8.5-30.4-15.4-55.2-10.4-10.4-4.5-16.8-19-17.6-30.8-.8-11.7 4.7-35.1 21.5-39.2 0 0-14.6-4.8-23.3 11.2l-.6 1.2c-5.5-13.4-21.3-15.8-21.3-15.8.2.1 16.4 9.3 17.3 27.9-1.2 5.7-1.6 11-1.4 14.9.2 3.7.9 7.5 2 11.3.3 2.2 2.2 17.6-9.4 29.2-12 12.3-29.3 17.6-47.3 14.8-15.7-2.5-25.4-8.3-28.6-12 1.1-6.7.5-14.8-2.6-25-1.9-6.4-4.9-11.5-8.3-15.6-2.5-17.3 5.9-27.9 5.9-27.9s-11.5 6.2-12.7 21.3c-11.9-9.2-25.5-9.8-25.7-9.8 0 0 25.4 8.1 33.3 33.6 8.1 26.4-2.4 36.1-14.6 43.2l-1.5.9c-5.3 3-17.4 3-29.5-3-9.3-4.6-24.8-16.1-24.9-41.1 0 0-5.9 11.8-.1 26.3l-1.5-.3c-15.2-2.8-24.1 9.6-24.1 9.6.1-.1 14.5-8.5 30.1-1.5 4.5 5.3 10.2 9.7 16.9 13 5.8 2.9 12 4.7 17.8 5.5 1.5.2 2.9.3 4.4.3-15.2 15.9-21.5 40.9-15.2 62.2-13.2-5-27.5-5.5-41-1.4-14.6.3-28.2-11.9-29.3-15.3 0 0-1.5 11.3 13.4 17.8 1.9.8 4 1.5 6.1 2.1-12.7 8.9-11.5 21.1-11.5 21.1.8-5.3 8.1-13.2 20.2-17.9 14.9-5.8 31.4-4.7 45.7 2.8 0 .1.1.2.1.3 6.8 13.3 17 24.3 29.5 31.8.4.2.7.4 1.1.6 5.6 6.8 3.3 19.3.1 24.6 0 0 11-5.6 9.3-19.4-.1-.5-.3-1.1-.4-1.6 13.9 3.6 25.8-1.8 25.8-1.8-18.7 1.9-44.7-10.2-58.3-36.9-12.2-24-2.7-58.3 19.9-72.1 22.9-13.9 52.6-11.8 73 5.1-.9 3.5-1.3 6.8-1.4 10-.4 8.4 1.4 16.9 4.3 24.4 7.2 18.5 24 21.2 24 21.2-7.5-3.7-21.3-24.1-20.5-45.1.5-14.1 7.9-33.2 39.8-44.5 32.1-11.4 53.5-1.7 65.8 8.5 20.5 17 28.7 46 23.2 61.3-9.6 26.5-38.2 30.3-39.4 30.4 0 0 15.9 4 29.1-4.6 3.8 3.4 9.7 11 8 20.1 0 0 7.1-14.3-3.1-24 5.2-4.8 9.9-11.2 12.8-19.5.6-1.7 1.1-3.5 1.4-5.4.1.1.1.2.2.4 5.5 8.8 15.1 15.9 26.4 20.2 7.3 11.9 1.6 28.5.4 30.8h.1c-6.8 13.4-29.8 30.5-60 27.4-30.6-3.2-43.7-20.9-48.8-31.2l-1.3-2.6c-2.2-6.8-6-24.3 3-37.2 7.1-10.1 20.7-15.3 40.5-15.4 0 0-9.6-3.6-21.1-2.6 1.8-1.6 3.4-3.4 4.8-5.2 6.6-8.9 8.6-20 7.6-24.2 0 0-3.1 11.7-15.5 24.3.2-2 .2-4-.2-6.1-2.9-13.7-16.2-15.4-16.2-15.4 3.9 1.9 8.5 8.4 9.6 15.9.6 4.3.2 10.3-4.8 14.9-1.4.7-2.8 1.6-4.2 2.5-2.8 2.2-5.2 4.7-7.2 7.6-11.3 16.2-5.6 38-3 44.7-6.5 11.6-16.3 16.2-23.5 18.2-9.7 2.6-20.9 1.5-28.6-2.6l-4-2.1c-15.7-9.4-24.1-20.7-28.4-29-9.9-18.7-.3-38.6 6.1-45.4 0 0-13.7 5.1-17.3 20.4-14.8-9.4-30.1-2.6-30.1-2.6 8.2-.5 22.2 3.5 29.3 9.5-.1 6.6 1.2 13.8 5 20.9 5.2 9.7 15.4 23.4 35 34 6.1 7.6 16.5 29.7-1 50.3-15.9 18.8-44 17.3-55.4 14 .5-.7 1-1.4 1.5-2.2 7.2-13-2-22.1-2-22.1 1.5 13.8-8.1 23.1-8.2 23.2l.1.1-.3.4c-3.6 4.1-28.2 22.3-57.9 9.3-23.8-10.4-27.9-30.5-23.2-42.6 5.7-1.3 17.4-5.6 25.2-14.3 13.5-5.2 27.1 3.4 27.1 3.4-2.9-5-9.5-9.1-17.6-10.3-1.6-.2-3.3-.3-5-.3 5.6-13.5-5-24.1-5-24.1 2.5 9.9 1.1 18.4-4.3 25.3-7.4 9.3-20 13.1-23.4 13.8h-.4c-22.2.4-39.6-5.2-52-16.8m251.9-151.7c-1.6.4-3.1.9-4.7 1.5-2.2.8-4.3 1.6-6.3 2.5 2.2-3.8 3.5-7.6 4.3-11.1 1.9 2.7 4.2 5.1 6.7 7.1m-41.1 26.9c-1.8 2.6-3.2 5.2-4.3 7.9-2.6-1.9-5.3-3.7-8.1-5.2 4.3-.5 8.4-1.4 12.4-2.7m-55.3-5.8c-2.6.3-5.1.7-7.7 1.3 1-1.4 1.9-2.9 2.6-4.6q2.25 1.65 5.1 3.3m49.9 180.3c.6-.6 1.2-1.3 1.7-1.9-.6.7-1.2 1.3-1.7 1.9m8.5-12.4c7.5-15.4 3.9-30.3-.9-40.1 7.7 1.7 16.3 1.6 24.2-.5 7.7-2 17.8-6.7 25.4-17.3 5.3 8.2 14.5 18 29.8 24.1l-.1 1.1c-4.4 14.7-14.1 25-28.8 30.7-17.6 6.8-37.2 5.3-49.6 2m132.6 16.2c-4.5 5.8-9.6 12.4-9.7 20.7-.1 10.8 4.9 18.7 8.5 22.9l-22 10.4c-4.9-5.7-8.1-11.2-11-18.8-.5-1.4-1-3.1-1.4-4.9-2.3-9.2-5.5-21.8-30.4-31.3-7.1-2.8-14.1-6.8-18.2-9.4 1.5-.5 3-1 4.4-1.5 13.2-5.1 23.2-13.9 29.2-25.5 5.5 1.2 15.1 3.3 21.5 5 34.2 8.9 36.4 14.9 36.5 15.6 1.1 5.8-2.8 10.9-7.4 16.8m41.8-22.8c-3.4 2.8-17.6 14.3-27.2 13.5.8-2.7 1.1-5.5.5-8.6-1-4.7-6.4-11.9-42.2-21.2-7.3-1.9-14.5-3.5-20.7-4.8.4-1.1.8-2.2 1.1-3.3v-.3c4.4 1.2 9.2 2.2 14.5 2.7 29.7 3.1 54.9-11.3 65.6-27.5 5.5 3.8 16.1 9.5 30.1 10l.6.4c-3.1 21.4-9.4 28.7-22.3 39.1m55-56.1c-30.7 19-53 5.8-60 .2 1.9-5.6 4.7-17.4.9-28.4 1.9.4 3.7.7 5.6 1q4.8.6 9.6.6c6.8-.1 13.1-1.2 18.6-3.2q2.55-1.05 4.5-2.4c1.5.3 5.2 1.8 8.6 4.9 2.9 2.5 4.4 5.1 4.4 7.4 0 0 2.4-11.2-6.8-16.3-.5-.3-1-.5-1.5-.7 4.6-6.3 4.3-13.4 4.3-13.4-5.5 10.5-17.3 16.7-32.5 16.8-18.2.1-36.3-8.5-44-20.9-13.3-21.4 2-46.1 17.6-55 17-9.6 37.7-11.5 47.1-4.1 0 0-3.8-11.6-21-11.3-.5 0-1 .1-1.6.1 1.8-2.3 3.3-5 4.4-8v-.1c8.5-9.1 21.4-9.6 30.8-8.4 0 0-13.5-9.1-26.2-2.5-1.4.7-2.8 1.5-4.1 2.4-1.4-9.1-8.7-15-8.7-15 9 28.1-13 35.5-14.1 35.8v.1c-3.7 1.4-7.4 3.1-11 5.2-10.6 6.1-20.8 18-24.6 31.8-4.1-10.4-10.7-20.6-19.7-28.9 14-2.9 34.4-12.8 38.5-33 1.7-8.1 2.2-15.8 1.8-23.1 16.9-10.6 45.9-8.5 51-7.2v-.1c41.9 11.5 49.6 40 50.5 56 1.2 22.9-10.3 30.3-21.8 34.6-3.5 1.4-31.6 7.5-45.7-5.7 0 0 1.3 10 15.2 14-8.4 5.7-7.4 17.2-7.4 17.2 1.6-4.5 7.8-13.3 20.8-16 8.2-.2 15.3-1.6 18.8-2.6 9.5 3 16.3 11.1 18.7 15.9 2.8 5.9 11 42.4-21 62.3"/></svg>