<?xml version="1.0" encoding="utf-8"?>
<!-- Generator: Adobe Illustrator 28.2.0, SVG Export Plug-In . SVG Version: 6.00 Build 0)  -->
<svg version="1.1" id="Layer_1" xmlns="http://www.w3.org/2000/svg" xmlns:xlink="http://www.w3.org/1999/xlink" x="0px" y="0px"
	 viewBox="0 0 512 512" style="enable-background:new 0 0 512 512;" xml:space="preserve">
<style type="text/css">
	.st0{fill:#FFFFFF;}
</style>
<path class="st0" d="M508.7,212.6c-1.6-7.9-5.2-22.3-7.2-28.8c-5.3-16.8-14-36.2-23.2-51.3c-10.5-17.3-21.8-31.3-38.6-48.1
	c-15.4-15.3-25.8-23.7-43.8-35c-9.8-6.2-24.8-14.1-35.2-18.5c-29.5-12.5-60-19.4-92.9-21.1c-59-3-121.3,15.9-168.2,51
	c-23,17.2-44.7,40.1-60,63.3c-20,30.2-32.6,63.3-37.3,98.2c-4.8,35.7-2.1,71.8,8,104.3C33.6,401.9,94.2,462.9,171.6,489
	c23.4,7.9,47.5,12.3,72.6,13.3c24.2,0.9,48-1,69.3-5.8c36.3-8,70.8-23.8,99.8-45.5c49.9-37.4,83.3-89.8,95.1-149.4
	c3.1-15.7,3.7-23.2,3.7-46.7C512.1,232.6,511.7,227.7,508.7,212.6z M233.6,111.3c4.9-2.6,12.1-2.6,16.9,0c3.5,1.9,6.6,5.9,7.7,9.9
	c0.5,1.9,0.6,6.2,0.1,8.2c-1.3,5.4-6.5,10.5-12,11.7c-8.1,1.7-15.3-1.3-18.8-7.7C223.2,125.4,226,115.4,233.6,111.3z M363.5,403
	c-0.4,0.2-7.3,0.3-15.2,0.4l-14.4,0.1l-5.8-11.8c-6.9-14-33.2-67.2-55-111.3c-8.7-17.4-20-40.5-25.3-51.2
	c-5.2-10.7-9.8-19.8-10.1-20.1c-0.6-0.6-0.6-0.6-1.3,1.2c-1,2.7-5.1,16.3-11.4,37.9c-3.1,10.5-6.3,21.5-7.2,24.5
	c-0.9,3-3.4,11.5-5.5,18.8c-2.1,7.4-5.4,18.8-7.4,25.5c-2,6.6-5.9,19.8-8.6,29.3c-2.8,9.4-5.9,20.1-7,23.8
	c-4.8,15.7-5.5,21.5-2.9,23.4c0.7,0.6,1.7,0.7,6.8,1l6,0.3l0.2,3.1c0.1,1.7,0.2,3.6,0.2,4.3l-0.1,0.9l0,0.2l0,0l0,0.4l-10.9-0.1
	c-26.5-0.2-29.3-0.3-29.6-0.7c-0.3-0.5-0.3-2.7-0.2-4.5c0-0.8,0.1-1.5,0.2-2c0.1-0.2,0.1-0.4,0.2-0.5c0.1-0.2,0.3-0.3,0.5-0.5
	c1-0.8,2.8-1,6.1-1c1-0.1,2.2-0.2,2.9-0.3c3-0.6,3.6-1.3,6.3-8.6c1.6-4.3,3.9-11.9,9.4-30.8c2.5-8.6,5.9-20.3,7.6-26.1
	s5.2-17.8,7.8-26.6c7.4-25.2,9.8-33.4,18.2-62.1c4.3-14.8,10-34.3,12.6-43.3c6.7-23.1,10.4-34.2,11.9-35.9c0.9-1.1,1.9-0.9,3,0.3
	c1,1.2,3.8,6.9,9.8,20c8.5,18.6,24.4,51,86.5,176c9.7,19.4,18.6,37.6,20,40.5C364.2,402.6,364.2,402.7,363.5,403z"/>
</svg>
