<?xml version="1.0" encoding="utf-8"?>
<!-- Generator: Adobe Illustrator 28.2.0, SVG Export Plug-In . SVG Version: 6.00 Build 0)  -->
<svg version="1.1" id="Layer_1" xmlns="http://www.w3.org/2000/svg" xmlns:xlink="http://www.w3.org/1999/xlink" x="0px" y="0px"
	 viewBox="0 0 512 512" style="enable-background:new 0 0 512 512;" xml:space="preserve">
<style type="text/css">
	.st0{fill:#F0F0F0;}
	.st1{fill:#00B6F0;stroke:#00B6F0;stroke-width:2.075792e-02;stroke-miterlimit:10;}
	.st2{fill:#575757;}
</style>
<path class="st0" d="M244.2,502.3c-25.1-1-49.2-5.4-72.6-13.3c-77.4-26.1-138-87.1-161.3-162.4C0.2,294.1-2.5,258,2.3,222.3
	c4.7-34.9,17.3-68,37.3-98.2c15.3-23.2,37-46.1,60-63.3c46.9-35.1,109.2-54,168.2-51c32.9,1.7,63.4,8.6,92.9,21.1
	c10.4,4.4,25.4,12.3,35.2,18.5c18,11.3,28.4,19.7,43.8,35c16.8,16.8,28.1,30.8,38.6,48.1c9.2,15.1,17.9,34.5,23.2,51.3
	c2,6.5,5.6,20.9,7.2,28.8c3,15.1,3.4,20,3.4,42.3c0,23.5-0.6,31-3.7,46.7c-11.8,59.6-45.2,112-95.1,149.4
	c-29,21.7-63.5,37.5-99.8,45.5C292.2,501.3,268.4,503.2,244.2,502.3L244.2,502.3z M199.6,402.2c0-0.7-0.1-2.6-0.2-4.3l-0.2-3.1
	l-6-0.3c-5.1-0.3-6.1-0.4-6.8-1c-2.6-1.9-1.9-7.7,2.9-23.4c1.1-3.7,4.2-14.4,7-23.8c2.7-9.5,6.6-22.7,8.6-29.3
	c2-6.7,5.3-18.1,7.4-25.5c2.1-7.3,4.6-15.8,5.5-18.8s4.1-14,7.2-24.5c6.3-21.6,10.4-35.2,11.4-37.9c0.7-1.8,0.7-1.8,1.3-1.2
	c0.3,0.3,4.9,9.4,10.1,20.1c5.3,10.7,16.6,33.8,25.3,51.2c21.8,44.1,48.1,97.3,55,111.3l5.8,11.8l14.4-0.1
	c7.9-0.1,14.8-0.2,15.2-0.4c0.7-0.3,0.7-0.4-1.7-5.5c-1.4-2.9-10.3-21.1-20-40.5c-62.1-125-78-157.4-86.5-176
	c-6-13.1-8.8-18.8-9.8-20c-1.1-1.2-2.1-1.4-3-0.3c-1.5,1.7-5.2,12.8-11.9,35.9c-2.6,9-8.3,28.5-12.6,43.3
	c-8.4,28.7-10.8,36.9-18.2,62.1c-2.6,8.8-6.1,20.8-7.8,26.6c-1.7,5.8-5.1,17.5-7.6,26.1c-5.5,18.9-7.8,26.5-9.4,30.8
	c-2.7,7.3-3.3,8-6.3,8.6c-1.1,0.2-3.1,0.4-4.3,0.4c-2.8,0-4.5,0.5-5.2,1.4c-0.5,0.8-0.7,6.2-0.2,7c0.3,0.4,3.1,0.5,29.6,0.7
	l10.9,0.1L199.6,402.2L199.6,402.2z M246.3,141.1c5.5-1.2,10.7-6.3,12-11.7c0.5-2,0.4-6.3-0.1-8.2c-1.1-4-4.2-8-7.7-9.9
	c-4.8-2.6-12-2.6-16.9,0c-7.6,4.1-10.4,14.1-6.1,22.1C231,139.8,238.2,142.8,246.3,141.1L246.3,141.1z"/>
<path class="st1" d="M233.8,111.3c-11,5.8-10.9,22.6,0.3,28.3c7.6,3.9,17.4,1.4,21.9-5.5c5.2-7.7,2.3-18.7-5.9-22.9
	C245.6,108.9,238.4,108.9,233.8,111.3z"/>
<path class="st2" d="M242.3,161.1c-1.1,1.4-5.6,14.7-9.1,26.9c-2.7,9.2-9,31.1-14.6,50.2c-1.8,6.1-5.2,17.7-7.5,25.7
	c-2.3,8.1-5.7,19.6-7.5,25.7c-1.8,6.1-5.2,17.7-7.5,25.7c-2.3,8.1-5.7,19.6-7.5,25.7c-1.8,6.1-5.1,17.3-7.2,24.9
	c-5.2,18.4-8.3,26.5-10.2,27.5c-0.9,0.5-3.1,0.9-5,0.9c-6.5,0-7.5,0.7-7.2,4.8l0.3,3.6l20.2,0.3l20.2,0.2l-0.3-4.2l-0.3-4.3
	l-6.5-0.3c-5.9-0.3-6.6-0.4-7.5-2.4c-1.2-2.5,0-9.2,3.3-20c1.2-3.6,4.2-13.9,6.7-22.6c2.5-8.8,5.9-20.4,7.5-25.7
	c1.6-5.4,5-17,7.5-25.7c2.5-8.8,5.9-20.4,7.5-25.7c1.6-5.4,5-17,7.5-25.7c7.5-26.4,10.9-37.2,11.6-38.1c0.4-0.4,1.5,1,2.5,3.1
	c0.9,2.1,17,34.9,35.8,72.7c18.7,37.8,39.7,80.1,46.4,93.9l12.3,25h14.9c8.2,0,14.9-0.4,14.9-0.7c0-0.4-6.7-14-14.7-30.4
	c-52.2-105-86-173.8-91.7-186.4c-2.6-5.6-6.1-13.4-7.9-17.3C245.5,160,244.2,158.7,242.3,161.1z"/>
</svg>
