<svg xmlns="http://www.w3.org/2000/svg" xml:space="preserve" viewBox="0 0 512 512"><path d="M346.6 220.3c0 13.7-11.1 24.8-24.8 24.8S297 234 297 220.3s11.1-24.8 24.8-24.8 24.8 11.1 24.8 24.8m-134.1 0c0 13.7-11.1 24.8-24.8 24.8s-24.8-11.1-24.8-24.8 11.1-24.8 24.8-24.8c13.6-.1 24.8 11.1 24.8 24.8m-3 288.4C108.9 487.8 34 417.9 7.2 320.1c-9-32.8-9-95.8 0-128.6 24.9-91 93.7-159.8 184.7-184.8 32.8-9 95.8-9 128.6 0 91 24.9 159.8 93.7 184.7 184.7 5.1 18.6 6.3 30.5 6.3 64.3s-1.2 45.7-6.3 64.3c-25 91.1-94.7 160.8-184.8 184.5-29.5 7.9-83.4 9.9-110.9 4.2M351.1 310c-65-28.8-86.5-37.1-96-37.1s-30.6 8.1-93.4 35.9C117.1 328.6 80 346.4 79.3 347h355.5zm-210.6-7.7c34.6-15.6 65.3-29.6 68.2-31.2 5.5-3.1 7.2-1.9-112.7-78.6-11.9-7.6-21.8-14.9-21.9-13.9V332c22.1-9.8 44.3-19.7 66.4-29.7m300.3-46.8v-75.9c0-2.3-35.8 21.2-74.6 45.2-64 39.6-70 43.9-64.1 46.6 28.7 13 137 61.1 138.7 61.3zm-174.2 2.3c11.6 2.7 13.7 2.2 26.2-5.6 7.4-4.7 14-8.9 14.5-9.4.6-.5-1.1-3.9-3.6-7.5s-4.6-10.7-4.6-15.8v-9.2l-12.1 4.5c-15.5 5.7-48.6 5.8-64 .1l-11.9-4.4.3 9.6c.1 5.5-1.9 12-4.8 15.3-4.9 5.5-4.7 5.9 9.6 15.5 13.7 9.2 15.5 9.7 26.2 7 7.9-2 16.2-2 24.2-.1m-90.3-56.5c-2.2-2.4-63.4-20.4-64.7-19-.6.6 10.8 8.8 25.3 18.2l26.5 17.1 7.3-7.3c3.9-4.1 6.5-8.1 5.6-9m208.2-8c10.1-6.5 17.1-11.8 15.5-11.8-3.3 0-61.4 17.2-64.6 19.1-1.2.7.7 4.9 4.3 9.2l6.5 7.9 10-6.3c5.5-3.4 18.3-11.6 28.3-18.1m-34.9-11.8c45-12.6 82.5-23.5 83.3-24.3H76.6c4 4 166 46.8 177.6 47 8.7.1 42.9-8 95.4-22.7" style="fill:#fff"/></svg>