<svg xmlns="http://www.w3.org/2000/svg" xml:space="preserve" viewBox="0 0 512 512"><path d="m476.4 127.4-182.6 107-37.9 22.3v254l220.9-128.5z" style="fill:#51979d"/><path d="M293.7 250.9c1.8 16.7-7.3 32.6-22.6 39.4l.3 180.6c1.4.5 2.7 1.1 4 1.7l163.5-94.5c1-10.5 6.3-20.1 14.5-26.6V157.7z" style="fill:#73c1c9"/><path d="M35 127.5v255.6L218.3 489s0 .1-.1.1l37.6 21.6v-254z" style="fill:#4a8e95"/><path d="M240.4 470.5V290.3c-15.5-6.6-24.7-22.7-22.6-39.4L63 161.4c-1.5 1.2-3 2.3-4.6 3.3v182c2.7 1.7 5.1 3.6 7.4 5.9 7.5 7.5 11.8 17.7 12 28.4l158.1 91.4c1.5-.8 2.9-1.4 4.5-1.9" style="fill:#69b3bd"/><path d="M255.9 0 35 127.5l220.9 129.2 220.5-129.3z" style="fill:#549ca1"/><path d="M434.2 130.7 269.6 35.5c-8.8 3.3-18.5 3.3-27.3-.1L77.8 130.3c0 1.5 0 2.9-.1 4.3L233 224.3c13.5-10 32-10 45.5 0l155.9-90.1c-.1-1.2-.2-2.4-.2-3.5" style="fill:#78c8d0"/></svg>