<svg xmlns="http://www.w3.org/2000/svg" xml:space="preserve" viewBox="0 0 512 512"><path d="M453.4 157.7v193.8c-8.2 6.5-13.5 16.1-14.5 26.6l-163.5 94.5c-1.3-.6-2.6-1.2-4-1.7l-.3-180.6c15.3-6.9 24.4-22.8 22.6-39.4zm23.4 224.5L255.9 510.7v-254l37.9-22.2 182.6-107.1zm-16.9-235.8-173 101 .4 4.2c1.5 13.9-6.1 27.1-18.8 32.8l-3.8 1.7.3 189.3 4.2 1.6c1.2.4 2.3.9 3.4 1.4l3.1 1.5L445 382.1l.3-3.3c.9-8.6 5.2-16.7 12.1-22.1l2.5-2z" style="opacity:.82"/><path d="M235.9 472.3 77.8 381c-.2-10.6-4.5-20.8-12-28.4-2.2-2.2-4.7-4.2-7.4-5.9v-182c1.6-1 3.1-2.1 4.6-3.3l154.8 89.5c-2.1 16.7 7.1 32.8 22.6 39.4v180.2c-1.6.5-3 1.1-4.5 1.8m20-215.6v254l-37.6-21.6s0-.1.1-.1L35 383.1V127.5zm-9 29.3-3.9-1.7c-12.7-5.5-20.4-18.9-18.7-32.7l.5-4.3-162.5-93.8-3.5 2.9c-1.2 1-2.5 1.9-3.9 2.8l-3.1 1.9v189.3l3.1 1.9c2.3 1.4 4.4 3.1 6.2 4.9 6.4 6.4 10 14.9 10.1 23.9l.1 3.7 164.3 95 3.1-1.5c1.2-.6 2.4-1.1 3.7-1.6l4.3-1.5V286z"/><path d="m434.4 134.2-155.9 90.1c-13.5-10-32-10-45.5 0L77.7 134.6c.1-1.4.1-2.8.1-4.3l164.4-94.8c8.8 3.4 18.5 3.4 27.3.1l164.6 95.1c.1 1.1.2 2.3.3 3.5m42-6.8L255.9 256.7 35 127.5 255.9 0zM278 232.1l163.3-94.4-.5-4.2c-.1-.9-.2-1.9-.2-3l-.1-3.7-170.4-98.5-2.9 1.1c-7.3 2.8-15.3 2.7-22.6-.1l-2.9-1.1-170.4 98.3v3.7c0 1.4 0 2.7-.1 3.9l-.2 4L233.4 232l3.4-2.5c11.3-8.3 26.5-8.4 37.8 0z" style="opacity:.71"/></svg>