<?xml version="1.0" encoding="utf-8"?>
<!-- Generator: Adobe Illustrator 28.2.0, SVG Export Plug-In . SVG Version: 6.00 Build 0)  -->
<svg version="1.1" id="Layer_1" xmlns="http://www.w3.org/2000/svg" xmlns:xlink="http://www.w3.org/1999/xlink" x="0px" y="0px"
	 viewBox="0 0 512 512" style="enable-background:new 0 0 512 512;" xml:space="preserve">
<path d="M490.3,167.7c-15.6-20.4-37.3-30.6-64.9-30.6l-125-1.2l-0.6,67.3l113,1.2c7.8,0,14.4,3,19.2,9.6c4.2,5.4,6,12,6,19.8
	s-2.4,13.8-6.6,19.2c-4.8,5.4-10.8,8.4-19.2,8.4l-113.6-1.8l-0.6,68.5l125,1.2c27.6,0.6,49.9-9.6,66.1-29.4
	c14.4-18,22.2-39.7,22.8-66.1C511.3,208.6,504.7,186.4,490.3,167.7z"/>
<rect x="191.2" y="129.1" transform="matrix(6.167726e-03 -1 1 6.167726e-03 54.0638 393.1819)" width="67.3" height="80.5"/>
<rect x="118.6" y="69.2" transform="matrix(6.167726e-03 -1 1 6.167726e-03 44.3661 232.3795)" width="40.9" height="49.3"/>
<rect x="62.3" y="67.5" transform="matrix(6.167726e-03 -1 1 6.167726e-03 -8.6332 162.3066)" width="30" height="36"/>
<rect x="119" y="131.2" transform="matrix(6.167726e-03 -1 1 6.167726e-03 -17.3257 293.1643)" width="39.7" height="48.1"/>
<rect x="116.2" y="25.1" transform="matrix(6.167726e-03 -1 1 6.167726e-03 87.3377 174.0702)" width="30" height="36"/>
<rect x="63.2" y="27.8" transform="matrix(6.167726e-03 -1 1 6.167726e-03 32.8309 115.0159)" width="22.2" height="26.4"/>
<rect x="24.1" y="-2" transform="matrix(6.167726e-03 -1 1 6.167726e-03 23.7907 46.3808)" width="22.2" height="26.4"/>
<rect x="196.4" y="70.5" transform="matrix(6.167726e-03 -1 1 6.167726e-03 120.4143 310.1661)" width="39.7" height="48.1"/>
<path d="M264.4,261.5c-24,3-43.3,11.4-57.1,25.2c-15.6,15.6-24,36-24,61.3c0,16.8,0,32.4,0,47.5s0,27,0,36s0,16.2,0,21.6l79.9,0.6
	L264.4,261.5z"/>
<path d="M311.3,384.6c67.9,8.4,115.4,27,115.4,48.1c0,28.2-87.1,51.1-194.7,50.5s-194.1-24-194.1-52.9c0-21,48.1-39.1,116-46.3
	C64.3,392.4,0.1,415.9,0.1,444.7c0,36,103.3,66.1,231.9,67.3c128,0.6,232.5-28.2,232.5-64.3C464.5,418.9,400.2,394.2,311.3,384.6z"
	/>
</svg>
