<svg xmlns="http://www.w3.org/2000/svg" xml:space="preserve" viewBox="0 0 512 512"><path d="M293.3 372.4c-.3 14-.4 25.1-.8 36.2-.3 9.1 2.9 16.6 9 23.1 1.3 1.4 2.7 2.6 4.1 3.9 8.5 7.2 13.7 16.4 15.1 27.5 1.8 14.7-2.8 27.3-13.6 37.5-6.6 6.2-14.6 9.9-23.5 11-13.8 1.8-25.8-2.3-35.9-11.9-7.4-7.1-11.6-15.8-12.7-25.9-1.5-13.3 2.5-24.9 11.7-34.7 2.2-2.4 4.8-4.3 7.3-6.5 2.9-2.5 5.4-5.4 7.4-8.7 2.8-4.5 4.1-9.3 4.2-14.6.4-20.5.9-41 1.3-61.5l.3-13.8c.1-3.8-1.1-7.3-3.8-10-5.3-5.5-14.3-5.4-19.4.3-2.1 2.3-4 4.9-5.9 7.4-3.4 4.3-6.6 8.6-10 12.8-5.6 6.8-7.3 14.7-6.4 23.3.3 2.8 1 5.5 1.4 8.3 2 15.1-2.6 28-13.8 38.4-7.1 6.6-15.7 10.2-25.3 11-6.4.6-12.7-.3-18.7-2.6-15-5.8-24.1-16.7-27.4-32.4-2.2-10.7-.2-20.8 5.3-30.2 5.2-8.9 12.9-15 22.5-18.6 4.9-1.8 9.9-2.5 15.1-2.6 4.1-.1 8.2-.5 12.2-1.8 5.5-1.8 10.2-4.8 13.8-9.4 4.7-5.9 9.3-11.9 14-17.8 1.9-2.4 3.2-4.9 3.7-7.9 1.3-7.3-3.1-15-10.1-17.6-3.1-1.1-6.2-1.3-9.4-.7-33 6.6-65.9 13.2-98.9 19.7-7.2 1.4-12.8 5.1-17.5 10.7-1.8 2.2-3.3 4.5-4.6 7-2.8 5.3-6.4 10-11.1 13.8-5.8 4.7-12.3 7.7-19.7 9.1-14.8 2.9-31.9-2.9-41.8-15.9-4.8-6.2-7.9-13.2-8.8-21-1.3-11.2.9-21.5 7.6-30.7 9.1-12.4 21.5-18.5 36.8-18.1 8.9.2 16.9 3.2 24 8.4 2.6 1.9 5.1 4 7.8 5.8 4.7 3.1 10 4.9 15.7 5.1 2 0 4-.2 5.9-.5 30.9-6.1 61.8-12.3 92.7-18.4 2.9-.6 5.9-1.1 8.8-1.8 5.1-1.1 8.6-4.1 10.4-9 2.3-6.5-.5-13.6-6.6-16.8-7.2-3.8-14.4-7.5-21.6-11.3-6.7-3.5-13.4-6.9-20.1-10.5-6.8-3.6-14-4.4-21.4-2.5-2.7.7-5.3 1.6-7.8 2.6-3.5 1.4-7.1 2.6-10.8 3.3-6.2 1.1-12.4.8-18.4-.9-15.2-4.3-25.4-14.1-30.1-29.2-4.9-15.5-.6-33.2 12.5-44.7 8.6-7.6 18.7-11.4 30.2-11 13.1.5 23.9 5.9 32.2 16 4 4.8 6.6 10.3 8.2 16.4.9 3.6 1.6 7.2 3.1 10.6 1.9 4.5 4.6 8.4 8.3 11.6 1.1 1 2.4 1.9 3.7 2.5l42.6 22.2c10.9 5.7 24.4-2.5 23.8-15.5-.1-2.2-.7-4.2-1.5-6.2-5.5-13.4-11-26.8-16.5-40.3-5.6-13.6-11.2-27.1-16.7-40.7-2.2-5.4-5.4-9.8-10-13.2-3.4-2.5-7.1-4.3-11.1-5.5-3.2-1-6.4-2-9.3-3.6-12.1-6.7-19.7-16.8-22.3-30.4-1.5-7.9-.8-15.7 2.1-23.3 2.4-6.3 6.1-11.7 11.1-16.3C173.2 4.7 181.8.8 191.7.1c11.4-.9 21.7 2.2 30.6 9.4 8.8 7.1 14 16.3 15.7 27.4q1.95 13.5-4.2 25.8c-1.7 3.3-3.4 6.6-4.5 10.2-1.5 5.3-1.9 10.5-.5 15.9.3 1.3.8 2.6 1.3 3.8 11.4 27.7 22.8 55.4 34.1 83.1 1.9 4.7 5.3 8 10.3 9.2 7.6 1.9 14.5-2.2 17.1-8.5.6-1.5 1-3 1.5-4.5.8-2.6 1.6-5.2 2.2-7.8 1.1-5.4.4-10.6-1.5-15.7-1.2-3.4-3-6.5-5-9.5-5-7.2-7.6-15.2-7.7-24 0-16.2 6.8-28.9 20.5-37.4 13.9-8.6 28.5-8.9 42.9-1.4 11.9 6.2 19.3 16.3 22 29.4s-.2 25-8.4 35.5c-4.3 5.5-9.7 9.6-16.1 12.5-2.2 1-4.5 2-6.7 3.2-5.3 2.9-9.6 6.8-12.6 12.1-.7 1.2-1.3 2.5-1.7 3.8-1.3 4-2.5 7.9-3.6 11.9-2.2 8.1 4.3 15.8 12.6 15 2.4-.2 4.6-1.2 6.5-2.7 5-3.8 10-7.6 15-11.5 19.8-15.2 39.7-30.4 59.6-45.4 6.5-5 10.3-11.5 11.7-19.4.5-2.7.6-5.5.8-8.2 1.1-15.3 8.2-27 21.3-35 8.3-5 17.4-6.8 27.1-5.6 12 1.5 21.7 7.1 29.1 16.6 5 6.4 7.8 13.7 8.7 21.8.9 8.6-.6 16.7-4.6 24.3-4.4 8.5-10.9 14.8-19.5 19-6.8 3.3-14 4.7-21.5 4.2-3-.2-6-.9-9-1.5-3.4-.7-6.9-1.2-10.4-1.1-6.2.2-11.8 2-16.7 5.8-9.3 7.1-18.6 14.1-27.8 21.2l-43.8 33.3c-4.1 3.1-6.8 7.1-7.7 12.2-1.7 9.9 4.8 19.3 14.7 21.2 2.2.4 4.5.6 6.8.8 12.6 1.2 25.1 2.4 37.7 3.6 6.2.6 11.8-1 17.1-4 3.7-2.1 6.8-4.9 9.8-7.9 3.9-3.9 8.4-6.9 13.4-9 22.9-9.4 47.8 1.8 56.7 23.4 7.2 17.5 2.3 37.5-12.3 49.6-6.9 5.7-14.7 9.1-23.6 9.8-16 1.4-28.8-4.6-38.7-17.1-1.6-2.1-3-4.4-4.7-6.4-2.6-3.3-5.7-6-9.4-8.1-3.4-2-7.1-3.1-11-3.5-8.4-.8-16.8-1.7-25.3-2.5-6-.6-11.9-1.3-17.9-1.7-7.1-.5-13.8 2.9-17.2 9.4-3.4 6.6-2.6 14.4 2.2 19.8 6.7 7.5 13.6 15 20.4 22.5 3.8 4.2 8.6 6.7 14 8 4 .9 8 1.3 12.1 1 11.2-.8 21.3 2.1 30.1 9 8.7 6.8 14.2 15.7 15.9 26.7 2.6 16.1-2.5 29.6-14.6 40.4-5.3 4.7-11.5 7.7-18.4 9.1-13.6 2.9-26 .2-36.8-8.6-10.9-8.9-16-20.6-15.9-34.6 0-2.2.4-4.4.6-6.6.6-4.6.5-9.2-.6-13.7-1.1-4.8-3.3-9-6.7-12.7-6.1-6.7-12.1-13.5-18.2-20.2-5-5.5-11.3-7.9-18.6-6.5-8.4 1.6-13.7 6.8-15.9 15.1-.3 1.3-.5 2.7-.5 4-.3 12.9-.5 25.2-.7 34.6m14.8-140.5c.3 5.7 1.4 12 3.1 18.2q1.05 3.6 3 6.9c1.3 2.2 2.8 4.2 4.8 5.8 2.3 1.7 4.8 2.5 7.6 1.8 3.4-.9 5.9-2.8 7.7-5.7 2-3.1 2.7-6.5 2.6-10.1-.1-4.7-1.2-9.1-2.9-13.4-2.1-5.2-5.3-9.7-9.7-13.2-1.7-1.3-3.4-2.5-5.4-3.3-5-2-8.4-.3-9.9 4.9-.8 2.4-.9 4.8-.9 8.1m-238 52.5c.2 3.1.6 5.7 1.3 8.4.5 1.6 1.2 3.1 2.3 4.3 1.8 2.1 3.9 2.3 6.2.3 1.6-1.4 2.1-3.3 2.1-5.4-.1-3.3-1.2-6.3-3.2-8.9-1.1-1.4-2.4-2.5-4-3.3-2.1-1-3.7-.3-4.3 2-.3 1-.3 2-.4 2.6m136.3 88.5c.4 2.4.8 4.9 1.4 7.5.4 1.8 1.3 3.4 2.6 4.8 1.6 1.6 3.5 1.7 5.4.4 1-.7 1.8-1.6 2.1-2.7s.5-2.2.5-3.3c0-2.5-.8-4.8-2-6.9-1.3-2.2-3-4-5.4-5.1-2-.9-3.5-.2-4.1 1.8-.2 1-.3 2.1-.5 3.5m284.3-111.4c.4 2.2.8 4.8 1.4 7.3.4 1.8 1.2 3.4 2.5 4.7 1.9 1.9 4 2 6 .2 1.4-1.3 2-3 2-4.8.1-3.1-.8-5.9-2.4-8.5-1.2-1.8-2.7-3.2-4.6-4.2-2.3-1.2-4-.4-4.6 2.1-.1 1-.2 1.9-.3 3.2M361.8 109.3c-.2-3.4-1.2-6.5-3.4-9.2-1.1-1.4-2.5-2.5-4.1-3.1-1.9-.8-3.3-.1-3.9 1.8-.3 1-.5 2.2-.4 3.3.3 2.6.7 5.2 1.2 7.7.3 1.7 1.2 3.2 2.3 4.5 1.9 2.1 4.2 2.3 6.3.4 1.6-1.5 2-3.4 2-5.4m60.7 257.8c.2 3.3.6 6.2 1.6 8.9.6 1.7 1.4 3.3 2.9 4.4 1.6 1.3 3.5 1.3 5.1-.1 1.7-1.4 2.4-3.3 2.4-5.4 0-3.4-1.1-6.5-3.2-9.1-1.2-1.5-2.6-2.7-4.4-3.5-1.8-.7-3.3-.1-3.9 1.8-.3 1.2-.4 2.3-.5 3m-106.3 96.7c-.2-2.9-.9-5.6-2.5-8.1-1.2-1.8-2.7-3.3-4.7-4.2-2.2-1.1-3.8-.3-4.4 2.1-.2.9-.4 1.9-.3 2.9.3 2.5.6 5.1 1.2 7.6.4 1.8 1.2 3.5 2.5 4.8 1.8 1.9 3.8 2 5.8.4 1.8-1.5 2.2-3.4 2.4-5.5M152.8 161.3c-.2-3.4-1.2-6.6-3.4-9.2-1.1-1.3-2.3-2.3-3.8-3-2.1-1-3.7-.2-4.3 2-.2.8-.3 1.7-.3 2.6q0 4.5 1.5 8.7c.5 1.3 1.2 2.7 2.1 3.8 1.8 2.3 4.3 2.3 6.4.3 1.3-1.5 1.7-3.3 1.8-5.2m68.1-132.2c.2 3.2.6 6 1.6 8.8.6 1.7 1.5 3.3 2.9 4.4s2.8 1.2 4.3.4c1.2-.6 2.2-1.6 2.5-2.9.3-1.2.6-2.5.6-3.7q-.3-4.8-3.3-8.7c-1-1.3-2.3-2.3-3.8-3.1-2.2-1.1-3.8-.3-4.4 2-.2 1.2-.3 2.1-.4 2.8M504.1 110c-.3-3.1-1.1-5.9-2.9-8.4-1.3-1.7-2.8-3.2-4.9-4-1.7-.7-3.1-.1-3.7 1.7-.2.6-.4 1.2-.4 1.8q-.3 5.7 1.8 11.1c.5 1.4 1.3 2.6 2.5 3.5 1.4 1.1 2.9 1.2 4.4.3 1.1-.6 2-1.5 2.4-2.7.3-1.1.5-2.2.8-3.3" style="fill:#fff"/></svg>