<?xml version="1.0" encoding="utf-8"?>
<!-- Generator: Adobe Illustrator 28.2.0, SVG Export Plug-In . SVG Version: 6.00 Build 0)  -->
<svg version="1.1" id="Layer_1" xmlns="http://www.w3.org/2000/svg" xmlns:xlink="http://www.w3.org/1999/xlink" x="0px" y="0px"
	 viewBox="0 0 512 512" style="enable-background:new 0 0 512 512;" xml:space="preserve">
<style type="text/css">
	.st0{fill:#FFFFFF;}
</style>
<path class="st0" d="M460.9,97.2c0,0-45.7-37.7-126.8-45.3c-0.4,0.5,2.8-28.9,0.8-33.6c-1.7-3.9-31.2-19.5-78.9-18
	c-47.7-1.4-77.3,14.1-79,18c-1.9,4.7,1.3,34.1,0.9,33.6C96.8,59.5,51.1,97.2,51.1,97.2l-23.5,414l68,0.8c0,0,19.5-237.5,19.2-238.3
	c8.8-5.9,16.8,0.8,16.8,0.8l2.5,93.2l46.2,7.6l-0.8,16.8l-44.5-9.2c0,0,0.6,70.8,0,70.5c32.4,21.1,111.7,26.9,111.7,26.9L242.5,36
	c0,0-35.7,1.6-40.3-1.7c-4.5-3.2-3.9-13.6,0.8-16c9-4.5,29-7.4,49.6-7.5v0.1c1.1,0,2.2,0,3.4-0.1c1.1,0,2.2,0,3.3,0.1v-0.1
	c20.6,0.1,40.6,3,49.6,7.5c4.7,2.4,5.3,12.8,0.9,16c-4.6,3.3-40.3,1.7-40.3,1.7l-4.2,444.3c0,0,79.3-5.8,111.7-26.9
	c-0.6,0.3,0-70.5,0-70.5l-44.5,9.2l-0.8-16.8l46.2-7.6l2.5-93.2c0,0,8-6.7,16.8-0.8c-0.3,0.8,19.2,238.3,19.2,238.3l68-0.8
	L460.9,97.2z"/>
</svg>
