<svg xmlns="http://www.w3.org/2000/svg" xml:space="preserve" viewBox="0 0 512 512"><path d="M460.9 97.2s-45.7-37.7-126.8-45.3c-.4.5 2.8-28.9.8-33.6-1.7-3.9-31.2-19.5-78.9-18-47.7-1.4-77.3 14.1-79 18-1.9 4.7 1.3 34.1.9 33.6C96.8 59.5 51.1 97.2 51.1 97.2l-23.5 414 68 .8s19.5-237.5 19.2-238.3c8.8-5.9 16.8.8 16.8.8l2.5 93.2 46.2 7.6-.8 16.8-44.5-9.2s.6 70.8 0 70.5c32.4 21.1 111.7 26.9 111.7 26.9L242.5 36s-35.7 1.6-40.3-1.7c-4.5-3.2-3.9-13.6.8-16 9-4.5 29-7.4 49.6-7.5v.1c1.1 0 2.2 0 3.4-.1 1.1 0 2.2 0 3.3.1v-.1c20.6.1 40.6 3 49.6 7.5 4.7 2.4 5.3 12.8.9 16-4.6 3.3-40.3 1.7-40.3 1.7l-4.2 444.3s79.3-5.8 111.7-26.9c-.6.3 0-70.5 0-70.5l-44.5 9.2-.8-16.8 46.2-7.6 2.5-93.2s8-6.7 16.8-.8c-.3.8 19.2 238.3 19.2 238.3l68-.8z" style="fill:#fff"/></svg>