<svg xmlns="http://www.w3.org/2000/svg" xml:space="preserve" viewBox="0 0 512 512"><path d="M0 0v512h512V0zm278.8 399.3c0 49.8-29.2 72.5-71.8 72.5-38.5 0-60.8-19.9-72.2-43.9l39.2-23.7c7.6 13.4 14.4 24.7 31 24.7 15.8 0 25.8-6.2 25.8-30.2V235.1h48.1v164.2zm113.7 72.6c-44.7 0-73.5-21.3-87.7-49.2l39.1-22.7c10.3 16.8 23.7 29.2 47.5 29.2 19.9 0 32.7-10 32.7-23.7 0-16.5-13.1-22.3-35-31.9l-12-5.2c-34.7-14.8-57.8-33.3-57.8-72.5 0-36.1 27.5-63.6 70.5-63.6 30.6 0 52.6 10.6 68.4 38.5l-37.5 24.1c-8.2-14.8-17.1-20.6-31-20.6-14.1 0-23 8.9-23 20.6 0 14.4 8.9 20.3 29.6 29.2l12 5.2c40.9 17.5 64 35.4 64 75.6-.1 43.3-34.1 67-79.8 67" style="fill:#fff"/></svg>