<svg xmlns="http://www.w3.org/2000/svg" xml:space="preserve" viewBox="0 0 512 512"><path d="M460.2 0H51.8C23.2 0 0 23.2 0 51.8v408.4C0 488.8 23.2 512 51.8 512h408.4c28.6 0 51.8-23.2 51.8-51.8V51.8C512 23.2 488.8 0 460.2 0M273.4 426.8c0 6.6-5.4 12-12 12H110.3c-6.6 0-12-5.4-12-12v-19.2c0-6.6 5.4-12 12-12h151.1c6.6 0 12 5.4 12 12zm0-64.7c0 6.6-5.4 12-12 12H110.3c-6.6 0-12-5.4-12-12v-19.2c0-6.6 5.4-12 12-12h151.1c6.6 0 12 5.4 12 12zm172.7 64.8c0 6.6-5.4 12-12 12H307c-6.6 0-12-5.4-12-12V321.3c0-6.6 5.4-12 12-12h95.9V200.9c0-4.1-2.1-7.8-5.5-10.1l-73.9-62c-4.2-2.7-9.7-2.6-13.7.5L278.2 153c-3 2.3-4.8 5.8-4.8 9.6v134.8c0 6.6-5.4 12-12 12H110.3c-6.6 0-12-5.4-12-12v-57.3c-19.1-8.3-32.4-27.3-32.4-49.5 0-29.8 24.2-54 54-54s54 24.2 54 54c0 22.1-13.3 41.1-32.4 49.5v20.7h88.7V141c0-3.8 1.8-7.3 4.8-9.6l74.5-55.9c4.2-3.1 9.9-3.2 14.2-.2L441 174.6c3.1 2.2 5 5.9 5 9.8v242.5zM141.5 190.7c0 11.9-9.7 21.6-21.6 21.6s-21.6-9.7-21.6-21.6 9.7-21.6 21.6-21.6 21.6 9.7 21.6 21.6m261.4 161.8v43.2h-64.8v-43.2z"/></svg>