<?xml version="1.0" encoding="utf-8"?>
<!-- Generator: Adobe Illustrator 28.2.0, SVG Export Plug-In . SVG Version: 6.00 Build 0)  -->
<svg version="1.1" id="Layer_1" xmlns="http://www.w3.org/2000/svg" xmlns:xlink="http://www.w3.org/1999/xlink" x="0px" y="0px"
	 viewBox="0 0 512 512" style="enable-background:new 0 0 512 512;" xml:space="preserve">
<style type="text/css">
	.st0{opacity:0.3;enable-background:new    ;}
	.st1{fill:url(#SVGID_1_);}
	.st2{fill:url(#SVGID_00000098922642918558582890000009770490993206639754_);}
	.st3{fill:#333333;}
	.st4{fill:#BB4C4C;}
	.st5{fill:#BCBCBC;}
	.st6{fill:#D87F7F;}
</style>
<path class="st0" d="M272.3,10.2c-0.2,0.9-0.2,1.9,0,3c0,0,3.1,20.8-0.4,30L120.7,436.1l0,0c-10.8,28.9,3.7,61.1,32.5,72.2
	s61.1-3.2,72.5-31.8l0,0l151.1-393c3-7.7,19.8-22.6,19.8-22.6c0.8-0.6,1.5-1.4,1.9-2.2l0.1-0.2c0.1-0.2,0.2-0.3,0.2-0.5
	c3.9-10.1-21.2-29.2-56.1-42.6s-66.4-16.1-70.2-6c-0.1,0.2-0.1,0.4-0.2,0.5V10.2L272.3,10.2z"/>
<linearGradient id="SVGID_1_" gradientUnits="userSpaceOnUse" x1="55.714" y1="291.6414" x2="116.9769" y2="352.9035" gradientTransform="matrix(1.4278 -0.6346 0.6346 1.4278 -84.2575 -146.8494)">
	<stop  offset="0" style="stop-color:#919191"/>
	<stop  offset="1" style="stop-color:#FFFFFF"/>
</linearGradient>
<path class="st1" d="M267.9,6.8c-0.2,0.9-0.2,1.9,0,3c0,0,3.1,20.8-0.4,30L116.3,432.7l0,0c-10.8,28.9,3.7,61.1,32.5,72.2
	c28.8,11.1,61.1-3.2,72.5-31.8l0,0L372.4,80.2c3-7.7,19.8-22.6,19.8-22.6c0.8-0.6,1.5-1.4,1.9-2.2l0.1-0.2c0.1-0.2,0.2-0.3,0.2-0.5
	c3.9-10.1-21.2-29.2-56.1-42.6S272-4,268.1,6.1c-0.1,0.2-0.1,0.4-0.2,0.5V6.8z"/>
<linearGradient id="SVGID_00000178922338703001664080000010737977775935067276_" gradientUnits="userSpaceOnUse" x1="32.6818" y1="338.375" x2="69.7926" y2="375.4857" gradientTransform="matrix(1.4278 -0.6346 0.6346 1.4278 -84.2575 -146.8494)">
	<stop  offset="0" style="stop-color:#990000"/>
	<stop  offset="1" style="stop-color:#E80000"/>
</linearGradient>
<path style="fill:url(#SVGID_00000178922338703001664080000010737977775935067276_);" d="M315.3,184.6l-109,283.3h0.1
	c-8,20.3-31.4,30.9-52.2,22.9c-20.7-8-32-31.9-24.3-52.3l69.6-181.1c0,0,8.7-14,25.8-24s31.2-7.9,50.1-16.3
	C294.4,208.7,315.3,184.6,315.3,184.6L315.3,184.6z"/>
<ellipse transform="matrix(0.359 -0.9333 0.9333 0.359 182.7187 329.0305)" class="st3" cx="330.9" cy="31.5" rx="11.1" ry="42"/>
<path class="st4" d="M226.3,232.8c-0.3,0.2-0.7,0.4-1,0.6c-17.1,10-25.8,24-25.8,24l-69.6,181.1c-6.7,17.8,1,38.3,16.9,48.5
	c-6.1-13.2-7.1-28.6-1.6-43.2L226.3,232.8z"/>
<path class="st5" d="M146.8,487C146.8,487,146.8,487,146.8,487c-15.8-10.2-23.6-30.7-16.9-48.5l69.6-181.1c0,0,8.7-14,25.8-24
	c0.3-0.2,0.7-0.4,1-0.6l67-174.1c0,0-20.2-18.9-25.4-48.9c0,0,3.1,20.9-0.4,30L116.3,432.7c-10.8,28.9,3.7,61.1,32.5,72.2
	c4.9,1.9,10,3.1,15.2,3.5C156.5,502.7,150.6,495.3,146.8,487z"/>
<path class="st6" d="M219.2,258.9c2.4,0,4.4,2,4.4,4.4s-2,4.4-4.4,4.4s-4.4-2-4.4-4.4S216.8,258.9,219.2,258.9z M247.9,288.4
	c3.6,0,6.6,3,6.6,6.6s-3,6.6-6.6,6.6s-6.6-3-6.6-6.6S244.3,288.4,247.9,288.4z M204.1,320.3c6.8,0,12.4,5.6,12.4,12.4
	s-5.6,12.4-12.4,12.4s-12.4-5.6-12.4-12.4S197.3,320.3,204.1,320.3z M184,349c3.6,0,6.6,3,6.6,6.6s-3,6.6-6.6,6.6s-6.6-3-6.6-6.6
	S180.4,349,184,349z M210.3,400.2c2.4,0,4.4,2,4.4,4.4s-2,4.4-4.4,4.4s-4.4-2-4.4-4.4S207.9,400.2,210.3,400.2z"/>
</svg>
