<?xml version="1.0" encoding="utf-8"?>
<!-- Generator: Adobe Illustrator 28.2.0, SVG Export Plug-In . SVG Version: 6.00 Build 0)  -->
<svg version="1.1" id="Layer_1" xmlns="http://www.w3.org/2000/svg" xmlns:xlink="http://www.w3.org/1999/xlink" x="0px" y="0px"
	 viewBox="0 0 512 512" style="enable-background:new 0 0 512 512;" xml:space="preserve">
<style type="text/css">
	.st0{fill:#FFFFFF;}
	.st1{fill:#FFFFFF;enable-background:new    ;}
</style>
<g>
	<path class="st0" d="M382.6,36c-10.1-8.1-25.9-16.8-44.3-23.9C303.4-1.3,272-4,268.1,6.1c-0.1,0.2-0.1,0.4-0.2,0.5v0.2
		c-0.2,0.9-0.2,1.9,0,3c0,0,3.1,20.8-0.4,30L116.3,432.7c-9.2,24.6-0.1,51.5,20.5,65.8c4.7,4.1,10.2,7.4,16.4,9.8
		c28.8,11.1,61.1-3.2,72.5-31.8l151.1-393c3-7.7,19.8-22.6,19.8-22.6c0.8-0.6,1.5-1.4,1.9-2.2l0.1-0.2c0.1-0.2,0.2-0.3,0.2-0.5
		C400.9,52.5,394.5,44.4,382.6,36z M206.3,467.9h0.1c-8,20.3-31.4,30.9-52.2,22.9c-20.7-8-32-31.9-24.3-52.3l69.6-181.1
		c0,0,8.7-14,25.8-24c17.1-10,31.2-7.9,50.1-16.3c19-8.4,39.9-32.5,39.9-32.5L206.3,467.9z M370.1,46.6c-2.2,5.7-21.5,3.6-43.2-4.7
		c-21.6-8.3-37.4-19.7-35.2-25.4c2.2-5.7,21.5-3.6,43.2,4.7C356.5,29.5,372.3,40.8,370.1,46.6z"/>
	<circle class="st1" cx="219.2" cy="263.3" r="4.4"/>
	<circle class="st1" cx="247.9" cy="295" r="6.6"/>
	<circle class="st1" cx="204.1" cy="332.7" r="12.4"/>
	<circle class="st1" cx="184" cy="355.6" r="6.6"/>
	<circle class="st1" cx="210.3" cy="404.6" r="4.4"/>
</g>
</svg>
