<?xml version="1.0" encoding="utf-8"?>
<!-- Generator: Adobe Illustrator 28.2.0, SVG Export Plug-In . SVG Version: 6.00 Build 0)  -->
<svg version="1.1" id="Layer_1" xmlns="http://www.w3.org/2000/svg" xmlns:xlink="http://www.w3.org/1999/xlink" x="0px" y="0px"
	 viewBox="0 0 512 512" style="enable-background:new 0 0 512 512;" xml:space="preserve">
<style type="text/css">
	.st0{fill:#FFFFFF;}
</style>
<g>
	<path class="st0" d="M212.3,276.5l-24.2-5.4c0,0-5.6,35.5-7.7,53.4c-3.4,28.8-7.5,68.7-5.9,99.2c1.8,33.6,10.9,65.9,14,65.9
		c3.1,0-1.6-20.6,0.4-65.8c1.3-30.2,6.4-66.4,12.4-99.2c3-16.2,11.6-47.9,11.6-47.9h-0.5V276.5z"/>
	<path class="st0" d="M314.5,274h-13.3c0.9,53.7,9.3,91.3,11.3,131.2c2.8,60-3.3,87.1,0.6,87.1c3.9,0,16.2-42.8,18.5-87.2
		c2.2-40.4,0.3-94-9.7-131.1H314.5z"/>
	<path class="st0" d="M358.4,201.9c-6.5,15.8-19.3,29.6-36.3,39.6c6,45.7,14.1,85.2,16,126.3c4.4,96-5.5,139.6,1,139.6
		s25.9-68.5,29.7-139.7C371.5,317.7,367.7,255.2,358.4,201.9z"/>
	<path class="st0" d="M234.2,366.4c1.6-35.5,7.9-69.8,13.5-108c-14.5-0.8-28.2-3.7-40.6-8.4c-4.1,39.9-5.5,81.2-3.6,116.3
		c3.8,71.3,23.2,139.7,29.7,139.7C239.6,506.1,229.8,462.5,234.2,366.4z"/>
	<path class="st0" d="M178.7,122.2l-7.2-2.6c0,0-0.6,3.9-1.6,10.1C172.6,127.1,175.5,124.6,178.7,122.2z"/>
	<path class="st0" d="M168.6,392.1c2.2-46.8,14.9-91.5,21.9-149.7c-13.8-7.8-25-18.1-32.4-29.9c-0.1,0.8-0.2,1.7-0.3,2.5
		c-6,51.4-17.9,122.6-15,177.1c3.2,60,19.6,117.7,24.9,117.7C173.1,509.7,164.8,473,168.6,392.1z"/>
	<path class="st0" d="M267.1,258.4c0.4,36.7,1.6,73.8,1.5,112.2c-0.2,52.9,8.7,141.4,13.3,141.4s19.5-114,22.6-182.2
		c1.3-28.8-0.9-55.4-3-77.9C290.8,255.4,279.2,257.6,267.1,258.4z"/>
	<path class="st0" d="M395.4,263.8c17.1-26.1,27.6-29.9,27.6-91.6L423,165C423,77.9,350.3,0,260.5,0S86.8,85.5,89,186.8
		c0.7,31.5,24,62.6,30.7,74.5c10.7,18.7-17.9,26.7-9,37.2c4.7,5.5,35.6-11.2,61.3-18.1c21.6-5.8,38.6,8.3,54.8,8.3
		s42.9-14.2,53.8-11.2c7.3,2,34.7,17.2,43.7,15.5c9.1-1.8,31.5-4.8,41.8-2.1c23.8,6.4,20,17.6,31.9,11.4
		C408.1,297.1,383.1,282.5,395.4,263.8z M137.2,132c0,5.5-4.4,9.9-9.9,9.9s-9.9-4.4-9.9-9.9c0-60,77.4-119.5,137.4-119.5
		c5.5,0,9.9,4.4,9.9,9.9c0,5.5-4.5,9.8-9.9,9.8C205.8,32.1,137.2,82.9,137.2,132z M329.6,214c-0.6,1.3-1.3,2.4-2,3.6
		c0,0.1-0.1,0.1-0.1,0.1c-5.2,8.5-12.3,15.3-20.6,20c-3.6,2-7.4,3.5-11.3,4.7c-11.8,5.3-24.9,8.1-38.2,8.3
		c-45.6,0.8-83.5-28.4-85-65.3c-0.7-18.1,10.1-37,18.5-51.4c7.1-12.3,19.3-33.4,35.4-41.8c32.8-17.2,77,1,99.1,40.9
		c6.4,11.6,10.5,24.2,11.8,36.9c1,4.1,1.6,8.3,1.6,12.6C338.9,193.5,335.7,204.4,329.6,214z"/>
	<path id="path259-2-6-4-6-7-0-1-0-5-9-4-7-1-5-7-6-2" class="st0" d="M255.4,127c28.4,0,51.4,23.1,51.4,51.4s-23.1,51.4-51.4,51.4
		S204,206.8,204,178.4c0-5.3,0.8-10.3,2.2-15.2c4,9,13,15.2,23.4,15.2c14.2,0,25.7-11.6,25.7-25.7c0-10.4-6.2-19.5-15.2-23.4
		C245,127.8,250.1,127.1,255.4,127L255.4,127L255.4,127z"/>
</g>
</svg>
