<svg xmlns="http://www.w3.org/2000/svg" xml:space="preserve" viewBox="0 0 512 512"><linearGradient id="jellify-light_svg__a" x1="-423.973" x2="-301.184" y1="670.216" y2="547.427" gradientTransform="matrix(2.8346 0 0 -2.8346 1290.117 1975.458)" gradientUnits="userSpaceOnUse"><stop offset="0" style="stop-color:#fff;stop-opacity:.5"/><stop offset="1" style="stop-color:#fff"/></linearGradient><path d="M221.1 0c-27.6-.1-97.6 5.5-150.9 60.9-21 21.8-53.2 64-59.1 122.3-14.7 145.6 104.7 206.1 144.5 157.5-72.4 27.6-132.3-57.4-118.4-152.8C44 140.5 72.5 103.7 93 82.7c12-12.4 50.8-47.8 105.6-55.6C278.5 15.6 379.2 53 352.8 144.4 400.3 106.3 352.5.7 221.1 0m66.7 54.9c-.3 1.7 34.9 9.3 40.2 44.5 4.1 26.6-4.3 54.3-9.2 67.4-9.7 26.1-27 54.6-54 81.5s-55.1 45-83.5 55.3c-13 4.7-40.5 12.8-67 8.5-34.5-5.5-42.1-39.5-44.8-39.1-2.6.5 3.1 41.1 42 51.6 29.5 8 61.1.4 75.4-4.1 7.2-2.2 14.4-5 21.5-8.2 6.5 7.1 25.9 21.4 57.3 7.2 1.2 5.1 3.3 11.7 5.1 19.4 3.8 23.7 4.7 42.6 19.8 62.9 11 12 18.9 25.9 25.8 40.4 6.8 14.4 9 37.1 0 55.9-5.5 11.6 11.9 19.9 17.4 8.3 11.8-24.9 10.3-53.1-1-74.4-6.3-16.5-16.3-25.7-26.4-45.4-13.2-17.6-9.3-31.2-10.9-51.1-.9-13.2-4.4-24.1-8.1-29.3l1.2-.9c3.8 5.6 10.9 13 17.8 20.5 15 16.7 28.9 34.7 36.6 55.9 3 9.2 4.7 19.1 7.7 29.1 2.2 7.3 7.3 20.9 16.8 30.1 14.2 13.6 35.3 17.3 53.5 9.4 11-4.9 3.8-21.3-7.2-16.6-10.4 4.5-23.9 3.1-33.6-6-6.5-6.1-10.8-16.3-12.9-22.2-3.3-9.3-5.6-19.2-9.4-29.1-7.4-19.8-19.7-36-38.9-60.9-6.2-8.5-12.3-17-17.1-21.8 2.7-2.6 5.5-5.4 8.2-8.2 3.8 2 9 4.1 14.1 7.9 9.6 7.6 15.9 18.3 22.6 28.3 20 30.6 36 40.8 46 45.8 12.8 6.5 26.3 8.9 36 15.9 6.8 5.3 12.5 13.5 14.6 22 2.8 12.3 21.2 8.2 18.5-4.2-3.9-12.8-11.5-25.3-22.3-33.2-12.5-8.8-26.8-11.3-38.6-17.1-20.5-10.2-32.6-30.5-37.6-39.4-6.6-12.9-13.2-26-23.8-36.2-3.5-3.3-6.7-5.5-9.6-6.9 7.7.9 19 2 31.5 5.9 15 6.5 21 7.4 55.5 44.3 5.9 7.6 16.4 16.5 24.9 24.8 13 13 28.9 23 46.9 27.2 13.9 3.3 18.9-17.6 5-20.9-7.5-1.8-26.2-7.1-41.1-18.5-8.2-6.5-15.5-14.6-21.8-22.1-6.4-7.5-13.3-17.2-22.3-26.4-12-11.9-26.2-20.7-40.9-26.2-15.3-5.7-26.2-6.7-33.1-5.7 5.6-12.2 13.5-38.1-7.7-57.5 3.2-7.2 5.8-14.3 7.9-21.3 4.4-14.4 11.6-45.7 3.4-75-10.1-36.2-46.8-43.7-50.4-42.1m-84.2 11.8c-25.7 10.3-50.8 27.5-72.9 49.6S91.1 163.2 81.3 189c-16 42.1-14 151.3 103 99.2-76.2 7.9-90.2-43.9-71.3-97.2 6.9-19.5 20.2-38.5 37.1-55.4s36.1-29.7 55.4-37.1c70.2-25.8 103.3-8.5 97.2 71.3 56.5-134.5-69.6-114.9-99.1-103.1m35.7 88c-16.3-.5-36 12.5-51 29.5-20 22.6-31.8 52.2-16.6 66.2s44.7-1.6 65.9-24.1 34.3-52.2 16.6-66.2c-4.4-3.6-9.5-5.3-14.9-5.4" style="fill:url(#jellify-light_svg__a)"/></svg>