<svg xmlns="http://www.w3.org/2000/svg" xml:space="preserve" viewBox="0 0 512 512"><path d="M511.8 245C505.8 104.8 388.1-4.4 247.8.1S-2.9 121.2.1 261.5c2.6 119.2 86.3 217.8 197.5 243.8-1-.2-1.9-.4-2.9-.7-.9-9-1.6-18.2-2.1-27.4-.9-17.3-1.1-36-.7-55.4-.7 3.1-1.3 6.1-1.8 8.7-4.1 22.7-7.8 46.8-10.4 69.9-6.4-2-12.7-4.2-18.8-6.7 1.3-22.3 3.7-44.8 5.9-63.3 1.6-13.9 5.2-37.7 7.2-50.5-.6-.1-1.3-.1-1.9-.1-6.7 40.5-14.4 75.7-17.5 111.3-10.4-4.5-20.5-9.7-30.2-15.5.6-27.4 3.4-56.9 6.8-85.5-20.4 7.8-38.5 15.7-42.1 11.4-10-11.7 21.9-20.6 10-41.4-7.5-13.2-33.4-47.9-34.2-83C62.6 164.2 156 68.9 256.1 68.9s181.1 86.8 181.1 183.9l.1 7.8c0 68.8-11.7 73-30.8 102.1-13.8 20.9 14.1 37.1 2.9 42.9-12.9 6.7-9.4-4.8-33.1-12 1.7 29.7 1.9 58.8.5 84.9-.1 1.1-.1 2.1-.2 3.2-10.7 5.7-21.8 10.7-33.3 14.9-.2-5.8-.4-11.7-.7-17.9-1.3-28.2-5.2-55.6-9.6-84.5-1.4.2-2.7.4-3.8.6 5.8 32.1 7.6 70.5 6.9 104.2-7.5 2.5-15.2 4.6-23 6.4-1.8-23.2-5.2-46.2-7.9-72.1 0 1-.1 2-.1 3-1 21.2-3 46.5-5.5 71.8-11.1 1.9-22.4 3.1-33.9 3.5-.4-10.6-.6-20.7-.6-29.9.1-34.9-.7-69-1.3-102.6-8 2-17.5 5.4-26.6 8-4.7 30.9-9.1 60.1-10.5 90.1-.5 11.6-.9 22.6-1.1 32.8q-13.5-1.65-26.7-4.5c19.2 4.4 39.2 6.6 59.7 6.4C399 510.4 512 396.3 512 256z"/><linearGradient id="jellyseerr-dark_svg__a" x1="355.355" x2="355.355" y1="391.772" y2="496.645" gradientUnits="userSpaceOnUse"><stop offset="0" style="stop-color:#000;stop-opacity:.5"/><stop offset=".511" style="stop-color:#000;stop-opacity:.3"/><stop offset="1" style="stop-color:#000;stop-opacity:.2"/></linearGradient><path d="M373.8 393c-9.7-2.6-28.9-.6-40.8 1.3 4.4 28.8 8.3 56.3 9.6 84.5.3 6.2.5 12.1.7 17.9 11.5-4.2 22.6-9.2 33.3-14.9.1-1.1.1-2.1.2-3.2 1.4-26 1.2-55.2-.5-84.9-.8-.2-1.6-.5-2.5-.7" style="fill:url(#jellyseerr-dark_svg__a)"/><linearGradient id="jellyseerr-dark_svg__b" x1="214.467" x2="214.467" y1="384.512" y2="510.135" gradientUnits="userSpaceOnUse"><stop offset="0" style="stop-color:#000;stop-opacity:.5"/><stop offset=".511" style="stop-color:#000;stop-opacity:.3"/><stop offset="1" style="stop-color:#000;stop-opacity:.2"/></linearGradient><path d="M218.6 390.5c-8 0-16.3-3.1-25-6-2.1 32.4-2.5 64.3-.9 92.6.5 9.2 1.2 18.4 2.1 27.4 10.1 2.5 20.5 4.3 31 5.5.2-10.3.5-21.2 1.1-32.8 1.4-30 5.8-59.2 10.5-90.1-6.9 2-13.4 3.4-18.8 3.4" style="fill:url(#jellyseerr-dark_svg__b)"/><linearGradient id="jellyseerr-dark_svg__c" x1="180.674" x2="180.674" y1="379.891" y2="500.351" gradientUnits="userSpaceOnUse"><stop offset="0" style="stop-color:#000;stop-opacity:.5"/><stop offset=".511" style="stop-color:#000;stop-opacity:.3"/><stop offset="1" style="stop-color:#000;stop-opacity:.2"/></linearGradient><path d="M193.5 384.5c2.3.8 4.6 1.6 6.9 2.3-8.3-2.7-16.9-6-26.4-6.9-2 12.9-5.6 36.6-7.2 50.5-2.2 18.5-4.6 41-5.9 63.3 6.2 2.5 12.4 4.7 18.8 6.7 2.6-23.1 6.3-47.2 10.4-69.9q.75-3.9 1.8-8.7c.3-12.3.8-24.7 1.6-37.3" style="fill:url(#jellyseerr-dark_svg__c)"/><linearGradient id="jellyseerr-dark_svg__d" x1="148.297" x2="148.297" y1="379.662" y2="491.034" gradientUnits="userSpaceOnUse"><stop offset="0" style="stop-color:#000;stop-opacity:.5"/><stop offset=".511" style="stop-color:#000;stop-opacity:.3"/><stop offset="1" style="stop-color:#000;stop-opacity:.2"/></linearGradient><path d="M157.4 381.2c-8.5 2.3-17.6 5.5-26.2 8.8-3.4 28.7-6.2 58.1-6.8 85.5 9.7 5.8 19.7 11 30.2 15.5 3.1-35.5 10.9-70.8 17.5-111.3-4.7-.2-9.5.1-14.7 1.5" style="fill:url(#jellyseerr-dark_svg__d)"/><linearGradient id="jellyseerr-dark_svg__e" x1="284.672" x2="284.672" y1="377.566" y2="511.727" gradientUnits="userSpaceOnUse"><stop offset="0" style="stop-color:#000;stop-opacity:.5"/><stop offset=".511" style="stop-color:#000;stop-opacity:.3"/><stop offset="1" style="stop-color:#000;stop-opacity:.2"/></linearGradient><path d="M278.5 378c-3.6-1-8.7-.3-14.6 1.2.6 33.6 1.4 67.6 1.3 102.6 0 9.2.2 19.3.6 29.9 11.5-.4 22.8-1.6 33.9-3.5 2.5-25.3 4.5-50.6 5.5-71.8.8-16.4.5-32.2-.3-47.1-10.9-4.5-22-10.1-26.4-11.3" style="fill:url(#jellyseerr-dark_svg__e)"/><linearGradient id="jellyseerr-dark_svg__f" x1="320.428" x2="320.428" y1="389.244" y2="505.534" gradientUnits="userSpaceOnUse"><stop offset="0" style="stop-color:#000;stop-opacity:.5"/><stop offset=".511" style="stop-color:#000;stop-opacity:.3"/><stop offset="1" style="stop-color:#000;stop-opacity:.2"/></linearGradient><path d="M329.2 394.9c-.7.1-1.4.2-2 .4-4.6.9-13.5-2.2-22.6-6 .1 0 .1 0 .2.1.7 13.9 1 28.7.4 44 2.6 25.9 6 49 7.9 72.2 7.8-1.8 15.5-3.9 23-6.4.7-33.8-1.1-72.2-6.9-104.3" style="fill:url(#jellyseerr-dark_svg__f)"/><linearGradient id="jellyseerr-dark_svg__g" x1="173.219" x2="443.336" y1="371.234" y2="71.169" gradientUnits="userSpaceOnUse"><stop offset="0" style="stop-color:#000;stop-opacity:.3"/><stop offset="1" style="stop-color:#000;stop-opacity:.8"/></linearGradient><path d="M406.5 362.8c19.1-29.2 30.8-33.3 30.8-102.1l-.1-7.8c0-97.1-81-183.9-181.1-183.9S62.6 164.2 65 277c.7 35.1 26.7 69.8 34.2 83 11.8 20.8-20.1 29.7-10 41.4 5.2 6.1 39.7-12.5 68.3-20.2 24.1-6.5 43 9.3 61.1 9.3s47.8-15.8 59.9-12.5c8.2 2.2 38.7 19.2 48.7 17.3 10.1-2 35.1-5.3 46.6-2.3 26.5 7.1 22.2 19.6 35.6 12.7 11.1-5.8-16.7-22-2.9-42.9M118.8 215.9c0 6.1-4.9 11-11 11s-11-4.9-11-11c0-66.8 86.2-133.2 153.1-133.2 6.1 0 11 4.9 11 11s-4.9 11-11 11c-54.7 0-131.1 56.6-131.1 111.2m214.3 91.6c-.7 1.4-1.4 2.7-2.2 4h-.1c-5.8 9.5-13.7 17.1-23 22.3-4 2.2-8.2 3.9-12.6 5.2-13.1 5.9-27.7 9-42.6 9.3-50.8.9-93-31.6-94.7-72.8-.8-20.2 11.3-41.2 20.6-57.3 7.9-13.7 21.5-37.2 39.4-46.6 36.5-19.2 85.8 1.1 110.4 45.6 7.1 12.9 11.7 27 13.2 41.1 1.1 4.6 1.8 9.3 1.8 14 .2 12.3-3.4 24.4-10.2 35.2" style="fill:url(#jellyseerr-dark_svg__g)"/><linearGradient id="jellyseerr-dark_svg__h" x1="-964.125" x2="-899.433" y1="-3111.536" y2="-3177.563" gradientTransform="matrix(1.43 0 0 -1.43 1588.85 -4222.92)" gradientUnits="userSpaceOnUse"><stop offset="0" style="stop-color:#000;stop-opacity:.7"/><stop offset="1" style="stop-color:#000"/></linearGradient><path d="M250.5 210.4c31.7 0 57.3 25.7 57.3 57.3S282.1 325 250.5 325s-57.3-25.7-57.3-57.3c0-5.9.9-11.5 2.5-16.9 4.5 10 14.5 16.9 26.1 16.9 15.8 0 28.6-12.9 28.6-28.6 0-11.6-6.9-21.7-16.9-26.1 5.4-1.7 11-2.5 17-2.6" style="fill:url(#jellyseerr-dark_svg__h)"/></svg>