<svg xmlns="http://www.w3.org/2000/svg" xml:space="preserve" viewBox="0 0 512 512"><linearGradient id="jetbrains_svg__a" x1="6.785" x2="500.945" y1="12.255" y2="499.535" gradientTransform="matrix(1 0 0 -1 0 514)" gradientUnits="userSpaceOnUse"><stop offset="0" style="stop-color:#ff9419"/><stop offset=".43" style="stop-color:#ff021d"/><stop offset=".99" style="stop-color:#e600ff"/></linearGradient><path d="M162.7 29.3 29.3 162.7C10.6 181.4 0 206.9 0 233.4V472c0 22.1 17.9 40 40 40h238.6c26.6 0 51.9-10.6 70.7-29.3l133.4-133.4c18.7-18.7 29.3-44.2 29.3-70.7V40c0-22.1-17.9-40-40-40H233.4c-26.5 0-51.9 10.6-70.7 29.3" style="fill:url(#jetbrains_svg__a)"/><path d="M384 128H64v320h320z"/><path d="M240 376H104v32h136z" style="fill:#fff"/></svg>