<svg xmlns="http://www.w3.org/2000/svg" xml:space="preserve" viewBox="0 0 512 512"><path d="M433.7 512H78.3C35 512 0 477 0 433.7V78.3C0 35 35 0 78.3 0h355.4C477 0 512 35 512 78.3v355.4c0 43.3-35 78.3-78.3 78.3" style="fill:#00205b"/><path d="M172.7 189.5h41.1v220.1c0 34.2-25 57.2-59.6 57.2h-16.1v-38.7h11.7c14.1 0 23-6.5 23-21.8zm0-82.5h41.1v41h-41.1zm108.6 166.3c.8-31 18.9-47.5 43.1-47.5s41.9 16.5 43.1 47.5zm127.3 33.8v-33.8c0-52.8-39.1-86.2-84.1-86.2-39.5 0-84.2 25.8-84.2 105.1 0 83.8 48.7 103.9 90.6 103.9 27.4 0 53.6-9.7 73.7-33l-29.8-25.4c-12.1 12.5-29 19.7-44.7 19.7-28.2 0-48.7-16.9-48.7-50.4zm32.5-179.6h41.1v62H512v31.4h-29.8v118.8c0 11.3 4.4 15.3 14.5 15.3H512v38.7h-21.3c-28.6 0-49.5-18.2-49.5-50.3V220.9h-20.6v-31.4h20.6v-62z" style="fill:#fff"/></svg>