<svg xmlns="http://www.w3.org/2000/svg" xml:space="preserve" viewBox="0 0 512 512"><linearGradient id="jetbrains-light_svg__a" x1="8.509" x2="499.251" y1="503.491" y2="12.749" gradientUnits="userSpaceOnUse"><stop offset="0" style="stop-color:#fff;stop-opacity:.5"/><stop offset=".996" style="stop-color:#fff;stop-opacity:.8"/></linearGradient><path d="M64 448h320l-34.7 34.7c-18.8 18.7-44.2 29.3-70.7 29.3H40c-22.1 0-40-17.9-40-40V233.4c0-26.6 10.6-52 29.3-70.7L64 128zM472 0H233.4c-26.6 0-51.9 10.6-70.7 29.3L64 128h320v320l98.7-98.7c18.7-18.7 29.3-44.2 29.3-70.7V40c0-22.1-17.9-40-40-40" style="fill:url(#jetbrains-light_svg__a)"/><path d="M64 128v320h320V128zm176 280H104v-32h136z" style="fill:#fff"/></svg>