<?xml version="1.0" encoding="utf-8"?>
<!-- Generator: Adobe Illustrator 28.2.0, SVG Export Plug-In . SVG Version: 6.00 Build 0)  -->
<svg version="1.1"
	 id="Layer_1" xmlns:cc="http://creativecommons.org/ns#" xmlns:sodipodi="http://sodipodi.sourceforge.net/DTD/sodipodi-0.dtd" xmlns:inkscape="http://www.inkscape.org/namespaces/inkscape" xmlns:dc="http://purl.org/dc/elements/1.1/" xmlns:rdf="http://www.w3.org/1999/02/22-rdf-syntax-ns#" xmlns:svg="http://www.w3.org/2000/svg" sodipodi:docname="AJAX.svg"
	 xmlns="http://www.w3.org/2000/svg" xmlns:xlink="http://www.w3.org/1999/xlink" x="0px" y="0px" viewBox="0 0 512 512"
	 style="enable-background:new 0 0 512 512;" xml:space="preserve">
<style type="text/css">
	.st0{fill:#FFFFFF;}
</style>
<g>
	<path class="st0" d="M324.4,225.8c-24.2,0-42.3,16.5-43.1,47.5h86.2C366.3,242.3,348.6,225.8,324.4,225.8z"/>
	<path class="st0" d="M512,189.5V78.3C512,35,477,0,433.7,0H78.3C35,0,0,35,0,78.3v355.4C0,477,35,512,78.3,512h355.4
		c43.2,0,78.3-35,78.3-78.3V220.9h-29.8v118.8c0,11.3,4.4,15.3,14.5,15.3H512v38.7h-21.3c-28.6,0-49.5-18.2-49.5-50.3V220.9h-20.6
		v-31.4h20.6v-62h41.1v62H512z M213.8,409.6c0,34.2-25,57.2-59.6,57.2h-16.1v-38.7h11.7c14.1,0,23-6.5,23-21.8V189.5h41.1V409.6z
		 M213.8,148h-41.1V107h41.1V148z M408.6,307.1H281.3c0,33.4,20.5,50.4,48.7,50.4c15.7,0,32.6-7.3,44.7-19.7l29.8,25.4
		c-20.1,23.3-46.3,33-73.7,33c-41.9,0-90.6-20.1-90.6-103.9c0-79.3,44.7-105.1,84.2-105.1c45.1,0,84.1,33.4,84.1,86.2V307.1z"/>
</g>
</svg>
