<?xml version="1.0" encoding="utf-8"?>
<!-- Generator: Adobe Illustrator 28.2.0, SVG Export Plug-In . SVG Version: 6.00 Build 0)  -->
<svg version="1.1" id="Layer_1" xmlns="http://www.w3.org/2000/svg" xmlns:xlink="http://www.w3.org/1999/xlink" x="0px" y="0px"
	 viewBox="0 0 512 512" style="enable-background:new 0 0 512 512;" xml:space="preserve">
<g id="logo-gradient-blue-jira">
	<g id="Icon">
		<path id="Vector" d="M490.6,7.4H243.9c0,59.6,49.9,108,111.2,108h45.6v42.2c0,59.6,49.9,108,111.2,108V28.1
			C512,16.4,502.7,7.4,490.6,7.4z"/>
		<path id="Vector_2" d="M368.7,126.5H121.9c0,59.6,49.9,108,111.2,108h45.6v42.9c0,59.6,49.9,108,111.2,108V147.3
			C390.1,136.2,380.8,126.5,368.7,126.5z"/>
		<path id="Vector_3" d="M246.7,246.3H0c0,59.6,49.9,108,111.2,108h45.6v42.2c0,59.6,49.9,108,111.2,108V267.1
			C268.1,255.3,258.1,246.3,246.7,246.3z"/>
	</g>
</g>
</svg>
