<svg xmlns="http://www.w3.org/2000/svg" xml:space="preserve" viewBox="0 0 512 512"><linearGradient id="jitsi-meet_svg__a" x1="71.312" x2="86.837" y1="-109.808" y2="-56.69" gradientTransform="translate(-1068.014 2067.819)scale(17.6996)" gradientUnits="userSpaceOnUse"><stop offset="0" style="stop-color:#0f3060"/><stop offset=".271" style="stop-color:#0575ce"/><stop offset=".733" style="stop-color:#0575ce"/><stop offset="1" style="stop-color:#0f3060"/></linearGradient><path d="M99.5 504.9c-1.3-2.9-2.5-5.5-2.5-5.9s-4.6-24.4-5-30.3c-2.1-26.9-5.9-29.4-5-53.4.4-14.7-1.3-19.4 2.9-31.6 8.8-24.4 15.1-34.1 26.9-40 9.3-4.6 18.1-4.2 26.1 2.1 2.1 1.7 9.3 6.3 16 10.9s14.7 9.7 17.7 11.8c2.9 2.1 8 5 11.4 6.7 5.5 2.9 5.9 2.9 6.7 1.3 2.5-3.4 8.4-12.2 11.8-16.4 16-21.5.8-18.9-2.9-20.2-5.9-1.7-8.4-4.2-13.9-10.9-13-15.1-18.9-32-20.2-53-1.3-24.4 1.3-43.8 12.2-55.1 4.6-4.6 14.3-11.8 23.1-16.4 7.6-4.2 53.4-12.6 57.6-10.9 2.1.8-8-25.7-2.1-59.7 1.3-6.7 8.8-27.8 9.7-29.4 2.1-3.4 35.3-15.1 45-20.6 10.5-6.3 33.7-21 35.3-32.4 3.8-24.4 4.6-34.9 5.9-35.8 2.5-1.3 18.1 31.1 7.6 61.4-2.1 5.9-12.2 20.2-16.4 26.1-3.4 4.2 3.8 6.3 8 12.2 3.8 5.5 5.9 18.9 6.7 26.1.4 7.2-1.7 21.9-3.8 24.8-.8 1.3-1.3 2.5-.8 2.5.4.4 2.9 0 5.9-.8s9.3-1.7 14.3-2.1c8.8-1.3 8.8-1.3 14.7.8 8.8 2.5 51.7 13 24.4 132.5-8.8 39.5-51.3 91.7-56.4 87.9l-13-10.1-15.1 22.3c-7.6 8-16 15.6-21 19.4-7.6 5.9-23.1 14.7-25.2 14.7-.4 0-3.8 1.3-6.7 2.9-9.3 4.2-23.1 8-37.4 8.8-56.4 3.8-34.9-3.4-81.6-25.7-3.8-1.7-12.2 7.2-22.3 16.4-10.9 10.1-16.8 17.7-21 27.8-1.3 3.4-3.8 8.8-5 11.8-3.8 8.4-6.7 19.8-7.2 26.9-.4 3.4-.8 6.7-1.3 6.7-1.2 1-2.8-1.5-4.1-4.1M161.8 404c7.2-1.7 8-2.1 16-8 5.5-4.2 8.8-11.8 10.5-12.2 9.7-4.2-7.2-8-13.5-12.6-6.3-4.2-14.7-7.6-20.2-11.8s-10.5-7.6-10.9-7.6-.4 2.9-.4 6.3c0 9.7-1.3 19.4-2.9 23.6-.8 2.1-1.7 5.9-2.1 8.8-.4 6.3.8 9.7 6.3 13 3.7 3.4 5.8 3.4 17.2.5m262.1-183c-2.5-16-.4-37.4-12.6-45.4-28.6-18.1-31.6 0-33.2 3.8-2.9 6.7-4.6 11.8-2.5 19.4 6.7 22.3 15.1 42.1 19.4 57.6 4.6 18.1 9.7 29.4 10.5 43.8.4 10.1.4 11.4-1.3 13.5-2.1 3.4-34.1 11.4-50.1 16-5.5 1.7-.4 13.5-1.3 17.2-.8 3.8-9.3 25.7-6.3 29.9 26.9 43.6 87.5-87.7 77.4-155.8M365 327c4.2-.8 8.4-2.1 8.8-2.9.4-.4 2.1-.8 3.4-.8 2.1 0 11.4-2.5 12.2-3.8 0-.4 8.4-4.6 6.7-5.5-1.7-1.3-33.2-24.4-37.9-26.5-52.2-27.3-79.5-29-96.8-25.7-29.4 5.9-54.7 21-58.1 24.4-.8 1.3 46.3-14.7 79.5 2.1 6.3 2.9 18.9 8.4 28.6 18.5 8.8 9.3 16.8 19.4 23.1 21 6.9 1.7 20.8 1.3 30.5-.8m-63.1-112.3c16.4-2.9 42.1-37 40-40.4-.4-.4 5-9.3 4.2-9.3-30.7-6.3-30.3-37-30.7-37-.4-.4-45.4 21.5-56 25.7-8.8 3.8 1.3 26.5 6.7 40.8 2.5 6.3 15.6 14.7 20.6 18.1 6.3 4.2 13.9 2.5 15.2 2.1m35.7-104.4c8.8-7.2 32.8-42.1 30.3-56.4-10.1-58.1-14.7-22.3-15.1-16.8-.4 2.1-.8 6.7-1.7 10.5-.8 3.8-1.7 8.8-2.1 11.8-.4 2.9-1.3 7.6-2.5 10.9-.8 3.4-2.5 8.4-2.9 11.8-.8 3.4-3.8 11.4-6.3 18.1s-4.6 12.2-4.6 12.6c-.6 1.3 1.1.5 4.9-2.5" style="fill:url(#jitsi-meet_svg__a)"/><linearGradient id="jitsi-meet_svg__b" x1="68.693" x2="50.281" y1="-96.29" y2="-65.151" gradientTransform="translate(-1068.014 2067.819)scale(17.6996)" gradientUnits="userSpaceOnUse"><stop offset="0" style="stop-color:#092d61"/><stop offset="1" style="stop-color:#0575ce"/></linearGradient><path d="M102 502.8c13.9-57.6 26.5-63.9 59.7-85.4-7.2-4.2-25.2-17.7-25.2-25.2 0-21.5 3.8-58.5-19.8-42.9-45 29-28.6 122.4-14.7 153.5" style="fill-rule:evenodd;clip-rule:evenodd;fill:url(#jitsi-meet_svg__b)"/><linearGradient id="jitsi-meet_svg__c" x1="73.87" x2="84.567" y1="-91.207" y2="-160.811" gradientTransform="translate(-1068.014 2067.819)scale(17.6996)" gradientUnits="userSpaceOnUse"><stop offset="0" style="stop-color:#0f3060"/><stop offset=".457" style="stop-color:#0575ce"/><stop offset=".738" style="stop-color:#0575ce"/><stop offset="1" style="stop-color:#0f3060"/></linearGradient><path d="M150.8 409.9c19.8 14.7 37 28.2 49.2 34.9 120.3 5.9 150.6-60.6 152.7-114.9-10.5.4-29-2.1-38.7-16.8-24.4 8-98.9 30.7-100.1 35.8-6.7 26.5-26.9 47.5-63.1 61" style="fill-rule:evenodd;clip-rule:evenodd;fill:url(#jitsi-meet_svg__c)"/><linearGradient id="jitsi-meet_svg__d" x1="92.064" x2="50.09" y1="-78.774" y2="-257.531" gradientTransform="translate(-.705 699.891)scale(4.3493)" gradientUnits="userSpaceOnUse"><stop offset="0" style="stop-color:#ff8000"/><stop offset=".663" style="stop-color:#fff4e1"/><stop offset=".75" style="stop-color:#fff4e1"/><stop offset="1" style="stop-color:#ff8400"/></linearGradient><path d="M359.9 388c72.8-54.3 63.5-162.4 64.4-167.9 2.9-14.3-14.7-61.8-35.8-53-34.9 14.7 24.8 97.2 16.8 142.6-1.7 9.3-30.7 16.4-50.5 19.4-2.1.4-.4 30.7-10.1 45-1.2 1.7 13.9 14.7 15.2 13.9" style="fill-rule:evenodd;clip-rule:evenodd;fill:url(#jitsi-meet_svg__d)"/><linearGradient id="jitsi-meet_svg__e" x1="88.51" x2="51.877" y1="-102.86" y2="-94.846" gradientTransform="translate(-1068.014 2067.819)scale(17.6996)" gradientUnits="userSpaceOnUse"><stop offset="0" style="stop-color:#fff"/><stop offset="1" style="stop-color:#fff;stop-opacity:0"/></linearGradient><path d="M370 380.4c93-91.3 45.9-254.5 13.5-207 44.6-9.2 51.7 140.5-13.5 207" style="fill-rule:evenodd;clip-rule:evenodd;fill:url(#jitsi-meet_svg__e)"/><linearGradient id="jitsi-meet_svg__f" x1="39.785" x2="13.418" y1="-78.207" y2="-35.454" gradientTransform="translate(-.705 699.891)scale(4.3493)" gradientUnits="userSpaceOnUse"><stop offset="0" style="stop-color:#ffc768"/><stop offset=".378" style="stop-color:#ff8400"/><stop offset=".774" style="stop-color:#ff8400"/><stop offset="1" style="stop-color:#ffc768"/></linearGradient><path d="M193.3 381.7c1.7-2.5-30.3-13.5-49.6-30.7-2.1-2.1-2.5 28.2-4.6 40.8-1.3 8 12.2 15.6 15.1 16.8 2.1.8 32-17.2 39.1-26.9" style="fill-rule:evenodd;clip-rule:evenodd;fill:url(#jitsi-meet_svg__f)"/><linearGradient id="jitsi-meet_svg__g" x1="74.779" x2="79.93" y1="-108.2" y2="-78.398" gradientTransform="matrix(18.2906 0 0 17.9444 -1106.853 2095.822)" gradientUnits="userSpaceOnUse"><stop offset="0" style="stop-color:#fff"/><stop offset="1" style="stop-color:#fff;stop-opacity:0"/></linearGradient><path d="M167.6 294.6c-11.4-56.8 9.3-90 90.5-101.8.4 1.3 90.5-29 122.4-29.4-8.4 13.5 0 47.5 10.5 74.9 0 .3-76.1 20.5-223.4 56.3" style="fill-rule:evenodd;clip-rule:evenodd;fill:url(#jitsi-meet_svg__g)"/><linearGradient id="jitsi-meet_svg__h" x1="66.134" x2="96.435" y1="-97.742" y2="-36.989" gradientTransform="translate(-.705 699.891)scale(4.3493)" gradientUnits="userSpaceOnUse"><stop offset="0" style="stop-color:#ff8000"/><stop offset=".341" style="stop-color:#ffc768"/><stop offset=".712" style="stop-color:#ffc768"/><stop offset="1" style="stop-color:#ff8400"/></linearGradient><path d="M207.2 285.3c9.7-3.4 37.4-11.8 70.3-.4 22.7 8 35.3 27.8 45.4 35.3 23.1 18.1 65.2-2.1 73.2-1.7 2.9 0-56.8-53.9-102.2-56.8-61-3.3-99.3 28.3-86.7 23.6" style="fill-rule:evenodd;clip-rule:evenodd;fill:url(#jitsi-meet_svg__h)"/><linearGradient id="jitsi-meet_svg__i" x1="78.504" x2="111.465" y1="-146.161" y2="-150.107" gradientTransform="translate(-.705 699.891)scale(4.3493)" gradientUnits="userSpaceOnUse"><stop offset="0" style="stop-color:#ff8000"/><stop offset=".5" style="stop-color:#fff4e1"/><stop offset=".75" style="stop-color:#fff4e1"/><stop offset="1" style="stop-color:#ff8400"/></linearGradient><path d="M355.7 17.3c-.4 18.5-6.3 62.3-24.8 92.6-8.4 13.9 32-18.1 36.2-45.4 2.5-15.6-11-61.9-11.4-47.2" style="fill-rule:evenodd;clip-rule:evenodd;fill:url(#jitsi-meet_svg__i)"/><linearGradient id="jitsi-meet_svg__j" x1="73.996" x2="34.381" y1="-114.916" y2="-167.358" gradientTransform="translate(-.705 699.891)scale(4.3493)" gradientUnits="userSpaceOnUse"><stop offset="0" style="stop-color:#ff8000"/><stop offset=".341" style="stop-color:#ffc768"/><stop offset=".712" style="stop-color:#ffc768"/><stop offset="1" style="stop-color:#ff8400"/></linearGradient><path d="M295.1 218c20.2-10.5 38.7-24 50.5-49.2 2.1-4.2-9.7 0-18.5-12.6s-6.7-25.2-14.3-24.4c-23.6 3.4-55.1 25.7-55.1 25.7s1.7 24.4 8.4 34.5c12.6 20.1 29 26 29 26" style="fill-rule:evenodd;clip-rule:evenodd;fill:url(#jitsi-meet_svg__j)"/><linearGradient id="jitsi-meet_svg__k" x1="81.482" x2="73.462" y1="-106.253" y2="-117.701" gradientTransform="translate(-1068.014 2067.819)scale(17.6996)" gradientUnits="userSpaceOnUse"><stop offset="0" style="stop-color:#fff"/><stop offset="1" style="stop-color:#fff;stop-opacity:0"/></linearGradient><path d="M326.7 153.7c5.9 21.5 39.1 17.7 32.4-24.4-3.4 4.6-11 28.6-32.4 24.4" style="opacity:.5522;fill-rule:evenodd;clip-rule:evenodd;fill:url(#jitsi-meet_svg__k)"/><linearGradient id="jitsi-meet_svg__l" x1="71.294" x2="98.357" y1="-106.423" y2="-114.976" gradientTransform="translate(-1068.014 2067.819)scale(17.6996)" gradientUnits="userSpaceOnUse"><stop offset="0" style="stop-color:#fff"/><stop offset="1" style="stop-color:#fff;stop-opacity:0"/></linearGradient><path d="M292.2 216.3c-11.4-7.6-20.6-17.2-26.9-26.9s-8.8-61 1.7-73.6c5.9-13.9 26.1-27.3 48.4-33.2-42.9 49.6-29 124.5 8.8 117.4 1.6-.9-28.2 16.3-32 16.3" style="fill-rule:evenodd;clip-rule:evenodd;fill:url(#jitsi-meet_svg__l)"/><linearGradient id="jitsi-meet_svg__m" x1="71.291" x2="57.617" y1="-94.262" y2="-103.928" gradientTransform="translate(-1068.014 2067.819)scale(17.6996)" gradientUnits="userSpaceOnUse"><stop offset="0" style="stop-color:#fff"/><stop offset="1" style="stop-color:#fff;stop-opacity:0"/></linearGradient><path d="M142.8 349.3c8.4 6.3 44.2 34.1 52.2 29.4-18.1 45.5-66.5 7.2-52.2-29.4" style="fill-rule:evenodd;clip-rule:evenodd;fill:url(#jitsi-meet_svg__m)"/><path d="M291.3 96.4c-8.8 5-18.9 10.5-21 15.6-6.7 14.7-9.7 40.8-7.6 39.1 20.6-14.7 44.2-18.5 53-26.5 25.7-23.1 35.8-71.1 30.3-63.9-17.2 23.1-45.8 30.7-54.7 35.7M156.7 418.3s-24.4-16.8-24-22.3c3.8-44.6-4.2-47.5-8.4-46.7-4.6.4-29.9 16.4-34.9 61.4-3.4 32.4 9.3 83.3 11.4 86.3 10.5-27.4 6.7-49.3 55.9-78.7m265.5-198.2c-1.3-33.7-21.5-56.8-35.3-51.3-5.9 2.1-9.7 18.1-7.6 27.8 1.7 8.4 14.3 41.7 15.1 44.6 2.1 6.7 16.4 47.5 13.9 66.9-2.1 17.2-51.7 23.1-51.7 23.1s-.8 13.9-2.5 23.6c-2.1 11.8-6.3 20.6-6.3 20.6s10.9 10.1 11.4 10.1c-.1 0 67.6-36.6 63-165.4M370 324c3.4-.8 24-6.3 23.1-7.2-7.6-5-16.4-11.4-31.1-22.7-81.2-63.1-154.8-10.1-153.6-10.5 13.5-4.6 27.8-7.2 47.5-5.9 16 1.3 40.8 9.3 62.7 35.3 8.5 10.2 17.7 16.5 51.4 11m-36.2-137.1c2.5-2.1 10.9-18.1 9.3-18.5-21.5-5-23.6-14.7-25.7-25.2-2.1-9.7-1.7-10.9-5.9-9.7-32.8 10.9-42.1 16.8-47.1 21-8 6.7-2.5 24 .8 31.1 4.2 9.7 20.2 27.3 27.3 29 11.5 2.2 36.7-19.7 41.3-27.7m24-59.3c-1.7-7.2-7.6-16.8-9.3-16.8-1.3 0-16.8 11.8-20.6 16-8.8 9.3-4.6 26.1 5.5 32 16.8 10 29.5-11.9 24.4-31.2m-12.6-27.8c7.2-7.2 17.2-19.4 19.8-37.9.8-7.2 1.7-13.5-2.9-27.8-.8-3.4-4.2-12.6-4.2-11.4-2.5 24.4-5.9 51.7-21.9 80.8-5.1 9.3-2.2 7.7 9.2-3.7M173.1 246.2c-8.8 36.6 14.3 85 33.2 87.5 18.1 2.5 70.3-13 97.6-20.6 7.2-2.1 10.9-.8-4.6-14.3-24.8-16.8-45-18.9-64.8-16.8-21.9 2.5-38.7 8.8-37 7.6 10.1-8.4 28.2-23.6 62.7-30.3 15.1-2.9 38.3-3.4 66.5 7.6 34.9 13.5 53 33.7 67.7 40.8 5 2.5 7.2 1.3 9.3-4.6 3.4-10.1-17.7-74-25.2-92.6-11.8-28.2 2.1-42.1-.8-41.2-14.3 3.4-27.3 12.6-37.9 21.9-26.1 23.6-42.1 28.2-44.6 28.2-7.6-.8-21.5-13.9-26.5-20.6-3.4-4.2-61 6.7-78.3 21.9-.9.3-13.9 8.7-17.3 25.5m-18.5 159.9c18.9-8 37.9-25.2 36.2-25.2-10.1-1.7-46.7-26.9-46.7-26.5 1.3 13-1.7 24.4-2.9 37.4-.5 5 6.7 13.4 13.4 14.3m61.4-56.4c-3.8 8-7.6 40.4-60.2 60.6-1.7.4 44.2 32 46.7 32C354 449 352.8 333.7 350.7 330.8c-.4-.4-13 0-23.1-4.6-.8-.4-7.6-3.8-11.8-9.3-1.3-1.7-1.7-2.9-6.7-1.3-23.7 7.2-93.9 32.4-93.1 34.1m-47.1-56c-26.9-94.2 67.7-98.9 82.9-102.2 11.8-2.9 9.3-3.8 6.7-14.7-3.4-15.6-2.5-29 .4-43.3 2.9-13.5 4.2-20.6 10.1-27.3 4.6-5.5 31.6-18.1 38.3-21.5 28.2-13.5 39.1-28.6 42.1-40.4 2.1-8.4 5.5-28.6 4.2-43.3-.4-3.8 2.1 2.1 13.5 37.9 5.9 18 2.9 40.3-15.6 60.1-2.5 2.5-1.3 3.4 2.1 8.8 7.2 11.8 10.9 26.1 9.7 36.6-.8 8.8-4.6 16.8.8 16.4.8 0 24-3.8 40 6.7 10.9 6.7 26.5 20.2 22.3 75.3-8.8 120.7-67.7 147.2-68.2 147.2-.8 0-12.2-11.4-12.6-10.1-33.7 69.8-103.9 67.3-142.6 68.2-8 0-40.4-26.9-42.9-25.2-34.5 23.6-44.2 29.4-57.2 89.6-.4-.8-18.5-32.8-17.7-96.8.4-52.6 29.4-77 42.1-75.7 15.6 1.7 23.1 9.7 45 24 3.8 2.5 17.7 10.9 20.6 10.9 7.6 0 13-14.3 14.3-23.6s2.5-7.2-4.6-9.7c-9.7-3.7-25.3-20.9-33.7-47.9" style="fill:#2c3b54"/><linearGradient id="jitsi-meet_svg__n" x1="58.37" x2="65.348" y1="-85.853" y2="-61.532" gradientTransform="translate(-.705 699.891)scale(4.3493)" gradientUnits="userSpaceOnUse"><stop offset="0" style="stop-color:#212a3a"/><stop offset="1" style="stop-color:#404e67;stop-opacity:0"/></linearGradient><path d="M216.9 348.9c14.3-7.6 94.7-32.8 95.5-34.5.4-1.3-94.7 37.9-116.1 23.6-1.3-.8 5 3.8 10.9 5 .4 0 .4 15.1-5 23.6-1.7 2 11.7-16.1 14.7-17.7" style="fill-rule:evenodd;clip-rule:evenodd;fill:url(#jitsi-meet_svg__n)"/><linearGradient id="jitsi-meet_svg__o" x1="-12.663" x2="50.123" y1="-27.05" y2="-57.182" gradientTransform="matrix(1.6475 0 0 3.2929 343.546 217.395)" gradientUnits="userSpaceOnUse"><stop offset="0" style="stop-color:#212a3a"/><stop offset="1" style="stop-color:#404e67;stop-opacity:0"/></linearGradient><path d="M348.1 110.7c-8.8 6.3-21 14.7-23.6 21.5-1.3 3.8-2.5-10.9 7.6-19.8 5.9-5 18.1-2.9 16-1.7" style="fill-rule:evenodd;clip-rule:evenodd;fill:url(#jitsi-meet_svg__o)"/><linearGradient id="jitsi-meet_svg__p" x1="103.008" x2="137.842" y1="-106.631" y2="-102.037" gradientTransform="matrix(-1.6429 -.1246 .249 -3.2836 548.132 -183.234)" gradientUnits="userSpaceOnUse"><stop offset="0" style="stop-color:#212a3a"/><stop offset="1" style="stop-color:#404e67;stop-opacity:0"/></linearGradient><path d="M336.3 160.4c10.1 2.9 17.7-2.9 21.9-16.4.4-1.7-1.3 11.4-7.6 16.4-5.8 5-16.4-.4-14.3 0" style="fill-rule:evenodd;clip-rule:evenodd;fill:url(#jitsi-meet_svg__p)"/><linearGradient id="jitsi-meet_svg__q" x1="19.097" x2="74.799" y1="-42.712" y2="-53.485" gradientTransform="translate(268.372 361.63)scale(4.3493)" gradientUnits="userSpaceOnUse"><stop offset="0" style="stop-color:#212a3a"/><stop offset="1" style="stop-color:#404e67;stop-opacity:0"/></linearGradient><path d="M361.6 174.3c14.3-7.6 28.6-6.7 41.2-5.9 8.4.4-15.6-9.3-42.5-7.6-2.9 2.5-11.4 16.8-23.6 31.1-1.6 1.7 21.9-15.9 24.9-17.6" style="fill-rule:evenodd;clip-rule:evenodd;fill:url(#jitsi-meet_svg__q)"/><linearGradient id="jitsi-meet_svg__r" x1="60.73" x2="23.275" y1="-52.802" y2="-34.789" gradientTransform="translate(-37.734 437.917)scale(4.3493)" gradientUnits="userSpaceOnUse"><stop offset="0" style="stop-color:#212a3a"/><stop offset="1" style="stop-color:#404e67;stop-opacity:0"/></linearGradient><path d="M227 204.6c8.4-1.7 18.9-4.6 25.7-5 5.9-.4 13-3.8 18.5 2.1-2.9-4.2-8.8-12.6-10.9-18.5 1.7 6.7-5.9 7.6-7.6 8-42.1 6.7-66.9 18.1-79.9 38.7 23.9-18.6 52.5-24.9 54.2-25.3" style="fill-rule:evenodd;clip-rule:evenodd;fill:url(#jitsi-meet_svg__r)"/></svg>