<svg xmlns="http://www.w3.org/2000/svg" xml:space="preserve" viewBox="0 0 512 512"><path d="M387.4 0H124.6C56.1 0 0 56.1 0 124.6v262.8C0 455.9 56.1 512 124.6 512h262.8c68.5 0 124.6-56.1 124.6-124.6V124.6C512 56.1 455.9 0 387.4 0m11.1 115c0 1.5-1.2 2.7-2.7 2.7h-19.1c-8.1 0-14.6 6.4-14.8 14.5v46.2l-.2 169.8c-1.7 25.9-13.1 49.7-32.1 67-20.1 18.3-47.3 28.3-76.7 28.3-4.1 0-8.4-.2-12.6-.6-30.7-2.9-60.5-16.2-83.9-37.5-24-21.8-39-50-42.4-79.3-3.7-32.9 7.8-64.3 31.7-86 27.3-24.9 66.1-33.9 105.5-25.2 1.9.4 3.2 2.1 3.2 4v66.5c-.1.9-.5 2.2-2.7 1-.2-.1-.4-.2-.6-.2-7.3-3.5-15.1-5.9-22.9-6.6-.1 0-.3 0-.4-.1h-.5c-1.4-.1-2.7-.2-4.1-.2h-1.4c-.5 0-1 0-1.4.1-.9 0-1.8.1-2.7.1h-.3c-8.5.8-16 3.7-21.7 8.5-.3.3-.7.5-1 .8h-.1c-8 7.3-11.6 18-10.2 30.1 1.5 13.6 9 27.1 20.9 37.9 12 10.9 26.8 17.7 41.7 19.1 11.7 1.1 22.2-1.3 30-6.8 1.1-.8 2.1-1.6 3.1-2.5s1.9-1.8 2.7-2.8l.3-.3c2.8-3.3 4.7-7 6-11 .2-.7.4-1.4.5-2.1.1-.5.3-1 .4-1.6.2-.9.3-1.9.4-2.8 0-.2.1-.5.1-.7.2-1.6.2-3.3.2-5V131.2c-.7-7.5-6.9-13.5-14.6-13.5H257c-1.5 0-2.7-1.2-2.7-2.7V70.9c0-1.3 1.1-2.4 2.4-2.4h139.1c1.3 0 2.4 1.1 2.4 2.4V115z"/></svg>