<svg xmlns="http://www.w3.org/2000/svg" xml:space="preserve" viewBox="0 0 512 512"><circle cx="256" cy="256" r="256" style="fill:#0a7aff"/><path d="M183.9 238.1c-3.9-2.3-8.4-3.4-13.5-3.4-5 0-9.4 1.1-13.3 3.4s-6.9 5.4-9.1 9.4-3.3 8.7-3.3 14c0 5.2 1.1 9.9 3.2 13.9s5.1 7.2 9 9.5 8.3 3.4 13.4 3.4 9.5-1.1 13.4-3.4 6.9-5.4 9.1-9.4 3.3-8.7 3.3-13.9-1.1-9.9-3.2-13.9q-3.15-6.15-9-9.6m-4.2 34.1c-2 2.8-5.1 4.2-9.2 4.2-4 0-7-1.3-9-4-2.1-2.7-3.1-6.3-3.1-10.8 0-2.9.4-5.5 1.3-7.8.9-2.2 2.2-4 4-5.2 1.8-1.3 4.1-1.9 6.9-1.9 4 0 7.1 1.3 9.1 4 2.1 2.7 3.1 6.3 3.1 10.8-.1 4.3-1.1 7.9-3.1 10.7m-54.5-53h13v50.7c0 1.6-.2 3.1-.5 4.5s-.9 2.8-1.8 4.3q-2.85 4.95-7.5 7.2c-3.1 1.5-6.5 2.3-10.2 2.3-5.4 0-9.8-1.4-13.3-4.1-3.5-2.8-6-6.5-7.4-11.2l12.6-3q.45 2.55 2.7 4.5c1.5 1.3 3.2 1.9 4.9 1.9 1.2 0 2.5-.3 3.8-1s2.3-1.7 2.9-3.1c.4-.9.6-2 .7-3.3s.1-2.8.1-4.6zm110.5 16.9h12.9v50.8h-11.3v-5.2c-1.2 1.3-2.5 2.5-4.1 3.5-3.3 2.2-7.4 3.2-12.4 3.2-4 0-7.2-.7-9.7-2s-4.5-3.1-5.9-5.1c-1.4-2.1-2.4-4.2-3-6.5-.6-2.2-1-4.3-1.1-6.1s-.2-3.2-.2-4v-28.5h13v24c0 1.2.1 2.6.2 4.4q.15 2.7 1.2 5.4c.7 1.8 1.7 3.3 3.2 4.6q2.25 1.8 6.3 1.8c1.1 0 2.3-.2 3.5-.5 1.3-.3 2.4-1 3.5-2s2-2.4 2.7-4.4c.7-1.9 1.1-4.5 1.1-7.6v-25.8zm111.7 0h12.8v50.8h-12.8zm67.2 0-18.4 50.8h-12.8L365 236.1h12.8l12 35.2 12-35.2zm-127.7 0V248c-1.4-.4-3-.6-4.9-.4-1.9.1-3.5.6-5.1 1.3-1.5.7-2.8 1.6-3.8 2.7s-1.8 2.5-2.4 4c-.5 1.6-.8 3.3-.8 5.2v25.9H257v-50.8h11.3v8.2c.4-.8.9-1.5 1.4-2.2 1.1-1.4 2.4-2.6 4-3.6 1.2-.8 2.6-1.3 4-1.8 1.4-.4 2.9-.7 4.5-.8 1.7.2 3.2.2 4.7.4m74.2-13.4c0 4.1-3.3 7.4-7.4 7.4s-7.4-3.3-7.4-7.4 3.3-7.4 7.4-7.4 7.4 3.3 7.4 7.4m-22.5 31.6c.1 1.8.2 3.2.2 4v28.5h-13v-24c0-1.2-.1-2.6-.2-4.4q-.15-2.7-1.2-5.4c-.7-1.8-1.7-3.3-3.2-4.6q-2.25-1.8-6.3-1.8c-1.1 0-2.3.2-3.5.5-1.3.3-2.4 1-3.5 2s-2 2.4-2.7 4.3-1.1 4.4-1.1 7.6v25.8h-13V236h11.4v5.2c1.2-1.3 2.5-2.5 4.1-3.5 3.3-2.2 7.4-3.2 12.4-3.2 4 0 7.2.7 9.7 2s4.5 3.1 5.9 5.1c1.4 2.1 2.4 4.2 3 6.5.5 2.3.9 4.4 1 6.2" style="fill:#fff"/></svg>