<svg xmlns="http://www.w3.org/2000/svg" xml:space="preserve" viewBox="0 0 512 512"><path d="M499.6 123.9c-1.9-.5-3.8-.6-5.8-.6h-477c-7.2.1-13.4 4.7-15.8 11.5-.8 2.2-1 4.5-1 6.8v230c.3 9.6 7.6 17.1 16.9 17.1 19.5 0 59.7-.1 59.7-.1l-.1-17.8H18c-.3-1.9-.2-227 .1-228 1.8-.3 474.6-.2 475.6.1.3 1.7.2 226.8-.1 228H98.1v17.8h397c7.1-.1 13.4-4.6 15.8-11.4.8-2.2 1-4.4 1-6.7V140.2c0-7.6-5.1-14.3-12.3-16.3M98.2 321.6v-46c0-1 .3-1.8 1.1-2.4 3.5-2.8 6.9-5.7 10.4-8.6.3-.3.7-.5 1.1-.8.4.5.7.9 1 1.3 5.9 8.6 11.7 17.2 17.6 25.8 7.2 10.6 14.4 21.1 21.5 31.6.4.6.8 1.1 1.6 1.1h22.6c.2 0 .5-.1.9-.2-16.7-24.7-33.3-49.3-49.9-74 3.4-4 6.6-7.8 9.8-11.7 3.2-3.8 6.5-7.7 9.7-11.5s6.4-7.7 9.7-11.5c3.2-3.9 6.5-7.7 9.7-11.6 3.2-3.8 6.4-7.6 9.8-11.8h-22.4c-1.3 0-2 .4-2.9 1.4-16.8 20.2-33.6 40.5-50.4 60.7-.2.3-.5.5-1 .9V204c0-4.2.1-8.3 0-12.5h-21v132c1.7.3 20 .2 21.1-.1zm112.5 1.9c.2-.5.4-.9.5-1.4 3.4-9.9 6.8-19.7 10.2-29.6.6-1.6 1.1-3.2 1.6-4.8.2-.7.5-1 1.2-.9H273c4.3 12.3 8.7 24.5 13 36.6h22.5c-16.2-44.3-32.4-88.5-48.5-132.7h-23c-.1.3-.3.5-.3.7l-48 131.4c-.1.1-.1.2-.1.3v.1c0 .1.1.1.1.2zm19.4-56.9c4.4-13.1 8.9-26.1 13.2-39.2 1.7-5.3 3-10.7 4.5-16.1.1-.4.2-.8.4-1.4.2.3.4.6.5.8 3.5 13.4 8.3 26.4 12.7 39.5 1.8 5.5 3.7 10.9 5.5 16.4.1.5.3 1 .5 1.6h-37.8c.2-.6.4-1.1.5-1.6m114-65c0-3.4.1-6.8-.1-10.2h-20.8c-.4 1.6-.3 131 .1 132.1h75.8v-18.4h-45.8c-3 0-6 .1-9.2-.1zm90.5-9.4c0-.2 0-.4-.1-.6 0-.1-.1-.1-.1-.1l-.1-.1h-20.9v132h21c.1-.2.1-.3.1-.5z" style="fill-rule:evenodd;clip-rule:evenodd"/></svg>