<?xml version="1.0" encoding="utf-8"?>
<!-- Generator: Adobe Illustrator 28.2.0, SVG Export Plug-In . SVG Version: 6.00 Build 0)  -->
<svg version="1.1" id="Layer_1" xmlns="http://www.w3.org/2000/svg" xmlns:xlink="http://www.w3.org/1999/xlink" x="0px" y="0px"
	 viewBox="0 0 512 512" style="enable-background:new 0 0 512 512;" xml:space="preserve">
<style type="text/css">
	.st0{fill-rule:evenodd;clip-rule:evenodd;fill:#2777FF;}
</style>
<path class="st0" d="M499.6,123.9c-1.9-0.5-3.8-0.6-5.8-0.6h-477c-7.2,0.1-13.4,4.7-15.8,11.5c-0.8,2.2-1,4.5-1,6.8v230
	c0.3,9.6,7.6,17.1,16.9,17.1c19.5,0,59.7-0.1,59.7-0.1l-0.1-17.8H18c-0.3-1.9-0.2-227,0.1-228c1.8-0.3,474.6-0.2,475.6,0.1
	c0.3,1.7,0.2,226.8-0.1,228H98.1v17.8c0,0,1.5,0,2.2,0h394.8c7.1-0.1,13.4-4.6,15.8-11.4c0.8-2.2,1-4.4,1-6.7V140.2
	C511.9,132.6,506.8,125.9,499.6,123.9L499.6,123.9z M98.2,321.6v-46c0-1,0.3-1.8,1.1-2.4c3.5-2.8,6.9-5.7,10.4-8.6
	c0.3-0.3,0.7-0.5,1.1-0.8c0.4,0.5,0.7,0.9,1,1.3c5.9,8.6,11.7,17.2,17.6,25.8c7.2,10.6,14.4,21.1,21.5,31.6c0.4,0.6,0.8,1.1,1.6,1.1
	c7.5,0,15.1,0,22.6,0c0.2,0,0.5-0.1,0.9-0.2c-16.7-24.7-33.3-49.3-49.9-74c3.4-4,6.6-7.8,9.8-11.7c3.2-3.8,6.5-7.7,9.7-11.5
	c3.2-3.8,6.4-7.7,9.7-11.5c3.2-3.9,6.5-7.7,9.7-11.6c3.2-3.8,6.4-7.6,9.8-11.8h-1.9c-6.8,0-13.6,0-20.5,0c-1.3,0-2,0.4-2.9,1.4
	c-16.8,20.2-33.6,40.5-50.4,60.7c-0.2,0.3-0.5,0.5-1,0.9v-50.3c0-4.2,0.1-8.3,0-12.5H77.1v132c1.7,0.3,20,0.2,21.1-0.1L98.2,321.6
	L98.2,321.6z M210.7,323.5c0.2-0.5,0.4-0.9,0.5-1.4c3.4-9.9,6.8-19.7,10.2-29.6c0.6-1.6,1.1-3.2,1.6-4.8c0.2-0.7,0.5-1,1.2-0.9
	c0.2,0,0.5,0,0.7,0h48.1c4.3,12.3,8.7,24.5,13,36.6h22.5c-16.2-44.3-32.4-88.5-48.5-132.7h-23c-0.1,0.3-0.3,0.5-0.3,0.7
	c-16,43.8-32,87.6-48,131.4c-0.1,0.1-0.1,0.2-0.1,0.3v0.1c0,0.1,0.1,0.1,0.1,0.2L210.7,323.5L210.7,323.5z M230.1,266.6
	c4.4-13.1,8.9-26.1,13.2-39.2c1.7-5.3,3-10.7,4.5-16.1c0.1-0.4,0.2-0.8,0.4-1.4c0.2,0.3,0.4,0.6,0.5,0.8
	c3.5,13.4,8.3,26.4,12.7,39.5c1.8,5.5,3.7,10.9,5.5,16.4c0.1,0.5,0.3,1,0.5,1.6h-37.8C229.8,267.6,230,267.1,230.1,266.6
	L230.1,266.6z M344.1,201.6c0-3.4,0.1-6.8-0.1-10.2h-20.8c-0.4,1.6-0.3,131,0.1,132.1h75.8v-18.4h-36.6c-3.1,0-6.2,0-9.2,0
	c-3,0-6,0.1-9.2-0.1L344.1,201.6L344.1,201.6z M434.6,192.2c0-0.2,0-0.4-0.1-0.6c0-0.1-0.1-0.1-0.1-0.1c0,0-0.1-0.1-0.1-0.1h-20.9
	v132h21c0.1-0.2,0.1-0.3,0.1-0.5L434.6,192.2L434.6,192.2z"/>
</svg>
