<?xml version="1.0" encoding="utf-8"?>
<!-- Generator: Adobe Illustrator 28.2.0, SVG Export Plug-In . SVG Version: 6.00 Build 0)  -->
<svg version="1.1" id="Layer_1" xmlns="http://www.w3.org/2000/svg" xmlns:xlink="http://www.w3.org/1999/xlink" x="0px" y="0px"
	 viewBox="0 0 512 512" style="enable-background:new 0 0 512 512;" xml:space="preserve">
<path d="M255.8,455.6h-86.7L87.2,295.9l-16.6,29.2v130.5H0v-399h70.7v180.6l97.9-180.6h81.9L143.4,241.2L255.8,455.6z M512,332.9
	c0,19.9-3.1,37.4-9.2,52.6s-14.3,27.7-24.6,37.6c-12.2,11.8-25.6,20.2-40.3,25.2c-14.5,5-33,7.5-55.6,7.5h-115V56.1h96.1
	c23.7,0,41.4,1.1,53.2,3.2c11.8,2.1,23,6.6,33.8,13.4c11.9,7.7,20.6,17.6,25.9,29.8c5.4,12,8.1,26.4,8.1,43.2
	c0,19-3.9,35.2-11.8,48.6c-7.8,13.2-18.3,23.9-31.4,31.9v2.1c21.9,5.5,39.2,17.4,51.9,35.7C505.7,282.2,512,305.1,512,332.9
	L512,332.9z M439.4,152.7c0-9.7-1.3-17.8-3.9-24.4s-6.8-12-12.6-16.1c-6.8-4.8-15.1-7.8-24.8-8.9c-9.7-1.3-21.8-1.9-36.2-1.9h-51.4
	v115.4h55.8c13.5,0,24.3-0.8,32.2-2.4c8-1.8,15.4-5.4,22.2-10.7c6.8-5.4,11.6-12.3,14.4-20.7C438,174.5,439.4,164.4,439.4,152.7
	L439.4,152.7z M467.1,335c0-16.1-2-28.9-5.9-38.4s-11-17.5-21.4-24.2c-7-4.5-15.5-7.3-25.5-8.6c-9.9-1.4-21.9-2.1-36.2-2.1h-67.8
	v148.7h57.1c18.9,0,34.4-1.2,46.4-3.5c12.1-2.5,21.9-7,29.6-13.4c8.1-7,14.1-14.9,17.9-23.9C465.2,360.7,467.1,349.2,467.1,335
	L467.1,335z"/>
</svg>
