<svg xmlns="http://www.w3.org/2000/svg" xml:space="preserve" id="kanidm_svg__svg5800" x="0" y="0" version="1.1" viewBox="0 0 512 512"><style>.kanidm_svg__st4{fill:#fff}</style><path d="M55.6 303.2c-13.1 31.7 22.5 60.9 22.7 61.3-6.5-19.1-13.4-34.5-.7-47.9M351.4 301c13.1 31.7-22.5 60.9-22.7 61.3 6.5-19.1 13.4-34.5.7-47.9" style="fill:#803300"/><path d="M376.6 288.1c13-23.8 16.5-32 5.5-33.5 10.2-11.1 14.3-26.7 10-39.9L359.9 231c1.7-7.9.6-11.5-4.4-12.2l-10.3-17.9c-8.2 5.3-14.6 13.7-17.6 23.2-.1 0-.2.1-.3.1 9.7-41.8 8.4-41.9-30.4-26.5 3-44 1.8-43.9-34.6-22-9.8-42.2-10.9-42.1-38.7-11.4-10.3-19.1-15.8-28.8-21-28.9-5.1-.1-10 9.2-19 27.2-27.5-30.3-28.9-30.6-38.4 10.3-.4.2-.9.4-1.3.6-34.6-20.8-36.4-20.9-33.8 19.7-.8.6-1.7 1.2-2.5 1.9-35.4-14.1-37-13.1-28 25.8-.4.4-.8.9-1.2 1.3-36.2-9.8-37.2-8.4-23.7 29.8-.6.8-1.1 1.6-1.7 2.5-41-4.3-41.8-3.5-21.1 34.5-.1.2-.2.4-.3.5-16.7 7.9-22.2 17.7-30.1 30.8-.6 25.9 27.1 48.2 66.9 73.5-13.6-25.4-35.1-38.2-39.2-69.8 6-11.3 16.3-15.3 25.1-20.4q16.8 9.75 33.9 17.4c-3 14-1.1 30 15.5 41.8-5.6 11.1-3.4 25.5 5.6 36.8 10.2 12.7 26.8 19 41.1 15.5l-13.9-33.5 35.9 2.9c-1.1-15-12.2-28.9-27.4-34.7-9.4-3.6-19.1-3.6-27.3 0-4.4-3.2-10.1-9.6-9.9-20.7 79.7 28.9 162.4 20.5 244.8-27.4 8.8 5.1 19.1 9.1 25.2 20.4-4.1 31.5-25.6 44.3-39.2 69.8 39.8-25.4 67.6-47.7 66.9-73.5-7.8-13-13.2-22.5-28.9-30.3" style="fill:#f60"/><path id="kanidm_svg__path5399_00000121973870024274432130000004318530805324711302_" d="M187.9 317.8c-2.6-.2 17.4 39.6 31.4.7 1-2.6-14.4 11.3-31.4-.7" style="fill:#d45500"/><path d="M183.7 294.9c1.4 12.3-1.3 21.3-7.1 24.1-1.2.6-2.4.8-3.6.8-2.4 0-4.9-1.1-7-3.2-5.7-5.6-9.1-18.9-.2-38v-.1c2.4-3.6 5-5 7.6-4.3 5.4 1.5 9.5 11.7 10.3 20.7m53.7-20.6c-2.6-.7-5.2.8-7.6 4.3v.1c-8.9 19.2-5.5 32.5.2 38 2.1 2.1 4.6 3.2 7 3.2 1.2 0 2.5-.3 3.6-.8 5.8-2.8 8.5-11.9 7.1-24.1-.9-9.1-5-19.3-10.3-20.7m-17.1 42.8c.2.2.8.8.4 1.9q-6.45 18-15.9 18c-.9 0-1.8-.1-2.7-.4-8.7-2.3-16.2-16-15.7-18.9.1-.9.9-1.5 1.8-1.4h.4l.3.2c12.1 8.6 23.2 3.3 27.9 1 1.6-.7 2.6-1.2 3.5-.4m-3.4 3.6c-4.9 2.3-15.3 6.5-26.8.1 2.1 4.4 7.4 12.2 13.4 13.2s10.5-6.1 13.4-13.3m294.4-74.1-106.6 59.6c-.2.1-.5.2-.7.2-.1 0-.3 0-.4-.1-.4-.1-.7-.4-.9-.7l-17.3-31.1c-1.8 3.6-4 7.9-6.7 12.9 14.6 7.7 20.2 17 27.4 28.7l.7 1.2c.1.2.2.5.2.7.7 26-25.3 47.9-67.6 74.8-.6.4-1.3.3-1.8-.2-.5-.4-.6-1.2-.3-1.7 4.9-9.2 10.8-16.7 16.6-24 10.2-12.9 19.8-25.2 22.4-44.8-4.8-8.7-12.4-12.8-19.7-16.8-.8-.4-1.6-.9-2.5-1.4 8.3 27-15.9 51.8-23.8 58.9-.2.2-.3.3-.4.3-.3.3-.7.5-1.1.5-.2 0-.4 0-.6-.1-.7-.3-1.1-1.1-.8-1.8.5-1.6 1.1-3.2 1.6-4.7 5.8-16.6 10.4-29.8-.2-41.3-42.3 20.6-85 31.1-127.3 31.2h-1c-30.6 0-61.1-5.4-91.3-16.1.4 8.7 4.8 14 8.7 17.1 8.4-3.4 18.1-3.3 27.6.3 15.8 6 27.2 20.5 28.3 36 0 .4-.1.8-.4 1.1s-.7.4-1.1.4l-33.5-2.7 13 31.3c.2.4.1.8 0 1.2s-.5.6-.9.8c-2.8.7-5.7 1-8.6 1-12.5 0-25.4-6.3-34-17-9-11.4-11.4-25.8-6.3-37.2-9-6.7-14.3-15.2-15.9-25.4-.8-5.4-.5-10.9.5-16.1-2.7-1.2-5.5-2.5-8.2-3.8-10.5 11.5-5.9 24.6-.2 41.2.5 1.5 1.1 3.1 1.6 4.7.2.7-.1 1.5-.8 1.8-.2.1-.4.1-.6.1-.4 0-.8-.2-1.1-.5-.1-.1-.2-.2-.4-.3-10.2-9.2-32.1-32.9-23.8-59.1l-2.7 1.5c-7.3 4-14.9 8.1-19.7 16.9 2.7 19.7 12.3 32 22.5 44.9 5.7 7.3 11.6 14.8 16.5 23.9.3.6.2 1.3-.3 1.7-.3.3-.6.4-1 .4-.3 0-.5-.1-.8-.2C25.4 368.2-.6 346.3 0 320.2c0-.3.1-.5.2-.7l.9-1.4c7.4-12.1 13.2-21.7 29-29.5C19.7 269.5 14.9 260 18.2 255c3.3-4.9 13.3-4.1 33.9-1.9.3-.4.6-.8.8-1.3-7.3-20.8-9.9-29.7-6-33.9 3.7-4 12.3-2.3 30.8 2.7l.1-.1c-4.7-20.4-6.3-29.8-1.9-33.5 4.2-3.6 12.4-1 31.3 6.5l1.2-.9s.1 0 .1-.1c-1.3-20.8-1.3-30.3 3.5-33.3 5.1-3.1 13.5 1.6 31.8 12.7 5-21.7 7.7-30.7 13.3-32.2s12.5 5.6 26 20.4c8.9-17.7 13.7-26.2 19.4-26.1 5.9.1 11.2 9.1 21.3 27.9 13.9-15.3 20.5-22 26.1-20.5 5.8 1.5 8.5 11.5 13.3 32.2 18.4-11 26.9-15.7 31.9-12.7 5.1 3.1 4.8 13.5 3.4 34.8 19.4-7.7 28.3-10.8 32.7-7.1 3.7 3.2 3 10.6.1 24.5 3.4-5.3 7.9-9.9 13.1-13.3.1-.1.2-.1.3-.1-.1 0-.2.1-.3.1-.2.2-.5.3-.7.5l-24.5-44c-.4-.7-.1-1.6.6-2l106.6-59.6c.3-.2.7-.2 1.1-.1s.7.4.9.7l83.4 149.4c.4.6.2 1.5-.5 1.9m-182.6-21.2c-3.7 12.5-1 25.2 7.1 33.1.4.4.5 1 .3 1.5-7.3 20-17.8 26.1-25.3 27.8-8.7 1.9-15.5-1.3-16.6-2.1-.1-.1-.2-.1-.4-.1-.4 0-1 .2-1.7.6-2.7 1.5-5.4 5.4-5 9 .4 3.7 4.1 6.6 10.4 8.4 32.8 9.2 47.6-19.1 53.4-36.7.2-.6.8-1 1.5-1 9.2.7 18.8-3 26.4-10 11.1-10.3 16-25.9 12.4-39.1l-30.8 15.6c-.4.2-1 .2-1.4-.1s-.7-.7-.7-1.2v-4.6L344.7 203c-7.5 5.3-13.3 13.4-16 22.4m16.3-25.9c-.1 0-.2 0-.3.1.1-.1.2-.1.3-.1m.3-.1h.3-.5c0 .1.1 0 .2 0m34.5 59.4.3-.3zm-304.3 58c-6.5-3.2-13.1-6.7-19.5-10.4-7.3 22 8.5 42.4 19 53-5.6-16.2-10.2-30.3.5-42.6m40.7-16.4c1.4-2.3 1.7-4.2 1-5.5-1.5-2.6-7.1-3.6-11.8-3.6-1 0-1.7 0-2.2.1-2.2 3.1-17.7 25.2-14.5 46.1 1.5 9.7 6.7 17.8 15.7 24.2.6.4.8 1.2.5 1.8-5.3 10.5-3.2 24.4 5.4 35.2 9.5 11.9 24.6 17.9 38 15.3l-13.2-31.9c-.2-.5-.1-1 .2-1.4s.8-.6 1.3-.6l34.1 2.7c-1.7-13.7-12.1-26.4-26.3-31.8-9.1-3.4-18.4-3.5-26.2 0-.5.2-1 .1-1.4-.2-6.5-4.7-19.6-19.2-.6-50.4m234.8 3.7c-6.5 3.7-13 7.2-19.6 10.5 10.8 12.4 6.2 26.4.6 42.6 9.6-9.8 26.4-30.9 19-53.1m32.6-32.6-6-10.8c-7.3 5.6-15.9 8.5-24.3 8.2-4.6 13.5-17.1 39.5-43.6 39.5-4 0-8.3-.6-13-1.9-9.6-2.7-12.1-7.4-12.5-10.8-.6-4.8 2.8-9.8 6.5-11.9 2-1.2 4-1.2 5.3-.2.4.2 7.7 3.9 16.6.9 8.6-2.9 15.6-11.2 20.6-24.5-8.3-8.7-11.1-22.1-7.1-35.3-.1-.2-.1-.5 0-.7 4.4-18.8 6.8-30.4 3.5-33.2-3.4-2.9-15.3 1.8-31.9 8.4-.5.2-1 .1-1.4-.2s-.6-.8-.6-1.3c1.3-19.8 2-32.1-1.9-34.4-3.8-2.3-14.5 4-30.6 13.7-.4.2-.9.3-1.3.1s-.7-.6-.8-1c-4.4-19.1-7.4-30.9-11.6-32-4.1-1.1-11.7 6.9-24.6 21.2-.3.3-.8.5-1.2.5-.5-.1-.9-.3-1.1-.7-9.4-17.4-15.3-28.1-19.7-28.2-4.4 0-10.3 11.7-17.7 26.4-.2.4-.6.7-1.1.8s-.9-.1-1.3-.5c-12.5-13.8-20.4-22.2-24.6-21.1s-7.1 12.3-11.4 30.7c-.1.4-.4.8-.8 1-.2.1-.5.2-.7.3l-.6.3c-.4.2-1 .2-1.4-.1-16.4-9.8-25.9-15.3-29.5-13.1-3.7 2.2-3.2 13.9-2.1 31.4 0 .5-.2 1-.6 1.2-.2.2-.5.4-.8.6-.6.4-1.2.8-1.7 1.3-.4.4-1 .5-1.5.3-16-6.3-26-10-29.1-7.3-3.3 2.8-.9 14.3 3 31.4.1.5 0 1-.4 1.3l-.6.6c-.2.3-.4.5-.7.7-.4.4-.9.5-1.4.4-15.6-4.2-26-6.8-28.8-3.7-2.9 3.2.6 14.1 6.8 31.7.2.5.1 1-.2 1.3l-1.2 1.8-.5.7c-.3.4-.8.7-1.4.6-18.3-2-29.7-3-32 .6-2.5 3.7 3.2 14.5 12.6 31.7.2.4.2.9 0 1.3q-.15.45-.6.9c-.1.1-.3.2-.4.3-15.7 7.5-21.2 16.4-28.7 28.8l-.7 1.1c-.3 23.4 24.1 44.6 61.3 68.7-4.1-6.7-8.8-12.6-13.3-18.3-10.5-13.4-20.5-26-23.1-46.8 0-.3 0-.6.2-.9 5.2-9.8 13.3-14.2 21.1-18.4 1.6-.8 3-1.6 4.5-2.5.4-.3 1-.3 1.5 0 10.7 6.2 21.4 11.8 32.1 16.6 3.6-14.9 12.3-27.1 13.9-29.4.3-1 1.3-1.2 4.5-1.2 3.4 0 11.7.5 14.3 5 1.3 2.3 1 5.1-1 8.4-6.6 10.8-9.2 19.4-9.5 26.1 79.9 28.8 161.2 19.6 242.6-27.7.4-.3 1-.3 1.5 0 1.5.9 3 1.7 4.6 2.5 7.8 4.3 15.9 8.6 21.1 18.4.1.3.2.6.2.9-2.7 20.6-12.6 33.3-23.1 46.6-4.5 5.8-9.2 11.8-13.4 18.5 38.3-24.8 61.7-45.2 61.3-68.7l-.5-.9c-7.4-12.1-12.7-20.9-27.5-28.3-.4-.2-.6-.5-.7-.9s-.1-.8.1-1.1c3.2-6 6-11.3 8.1-15.7m125-26.7-82-146.9-104.1 58.2 40.1 71.9-1.5.7.1-.1 30.2-15.3q.6-.3 1.2 0c.4.2.7.5.8.9.2.7.4 1.4.6 2.2 0 .2.1.4.1.5.2.7.3 1.5.5 2.2v.2l.3 2.1c0 .2 0 .4.1.6.1.7.1 1.5.1 2.2v2.9c0 .7-.1 1.4-.1 2.2 0 .2 0 .3-.1.5-.1.6-.1 1.2-.2 1.8 0 .2-.1.5-.1.7-.1.7-.2 1.4-.4 2.1 0 .2-.1.4-.1.6-.1.6-.3 1.1-.4 1.7-.1.2-.1.5-.2.7-.2.7-.4 1.4-.7 2.1-.1.2-.2.4-.2.6-1.8 4.9-4.4 9.5-7.8 13.6l-.2.2c-1.5 1.9-3.1 3.7-5 5.5l24.9 43.7z"/><path d="M392.6 213.3c.4.2.7.5.8.9q.75 2.4 1.2 4.8v.5c.2 1.5.4 2.9.5 4.4v3.4c0 .5-.1 1-.1 1.5v.7c-.1.7-.1 1.3-.2 2v.1c0 .2-.1.5-.1.7v.2c-.1.5-.2 1.1-.3 1.6 0 .1 0 .2-.1.3 0 .2-.1.4-.1.6 0 .1 0 .2-.1.3l-.3 1.2c0 .1 0 .2-.1.2-.1.2-.1.5-.2.7v.1c-.1.5-.3.9-.4 1.4-.1.2-.1.3-.2.5s-.2.4-.2.6c-1.8 4.9-4.4 9.5-7.8 13.6l-.2.2c-1.5 1.9-3.1 3.7-5 5.5l24.9 43.7 104.1-58.2-82-146.9-104.1 58.2 40.1 71.9-1.3.7 30.2-15.3c.2-.2.6-.3 1-.1" style="fill:#2a3455"/><path d="M174.7 282.2c-4.6 5.9-.3 15-.4 15.6 6.5 6.3 6.3-18.6.4-15.6m63.8 0c-4.6 5.9-.3 15-.4 15.6 6.7 6.3 6.4-18.6.4-15.6" class="kanidm_svg__st4"/><path d="M420.4 204.4c-.2.1-.4.1-.6.1-1.4 0-3-1-3.2-1.4-.1-.1 0-.3.1-.3h.2c2.5.2 3.7-1.6 4.1-2.3.2-.3.2-.4.4-.3h.1v.2c.5 2.3.1 3.6-1.1 4m-6.2-4.3c4.2 5.5-3 6.9-3.8-.8.2-2.5 2.5-1 3.8.8m9.1-5.4c4.2 5.5-3 6.9-3.8-.8.1-2.5 2.6-1 3.8.8" style="fill:#b1b3b8"/><path d="M411.9 198.9c-.2 1.2 1.2 2.1 1.2 2.2 1.5.5-.6-3.1-1.2-2.2m9.1-5.4c-.2 1.2 1.2 2.1 1.2 2.2 1.5.5-.6-3.1-1.2-2.2" class="kanidm_svg__st4"/><path d="M401.9 227.3c.1.1.1.2.1.3s-.1.2-.2.2q-3.6-.15-6.6-.6v-.5c1.7.2 3.6.4 5.7.5q-1.95-1.05-3.9-1.8c-.6-.2-1.2-.5-1.7-.7v-.5c.6.3 1.3.5 1.9.8 1.5.6 3.1 1.2 4.7 2.3m43.3-24.6c0 .1-.2.1-.3.1s-.2-.1-.2-.2c0-1.9.2-3.6.5-5.3.5-3 .9-5.9-.5-9.3-1.6-1-3.1-.9-4.6-.9h-.9c-8.8 15.1-21.2 23.9-36.8 26.6.9 1.4 2.2 1.8 2.9 1.9 1.1-1.3 2.6-2.2 4.5-2.5 3.1-.5 6.2.8 7.8 3.2v.2c0 .1-.1.1-.1.1l-5.6 2.6 5 3.8c.1 0 .1.1.1.2s0 .1-.1.2c-1.3 1.3-3.2 1.9-5.1 1.9-1 0-2.1-.2-3.1-.6-2.5-1-4.1-3.1-4.3-5.4-2.1-.3-3.7-1.1-4.9-2.6-.6-.8-1-1.7-1.3-2.6l-4.5.3c0-.1-.1-.2-.1-.3s0-.1-.1-.2c1.5 0 3-.1 4.5-.2-.9-3-.5-6-.5-6.1s0-.1.1-.2l.5-.3c.7-.4 2-1 2.7-.5.4.2.5.7.4 1.4 0 2.4.4 4.1 1 5.2 15.6-2.6 27.9-11.5 36.7-26.5 0-.1.1-.1.2-.1h1.1c1.6 0 3.3 0 5 1l.1.1c1.5 3.6 1 6.5.6 9.6-.2 1.4-.4 2.8-.5 4.3 3.9-7.5 5.9-13 3.6-16.8l-.2-.1c-2.3-1.3-3.9-2.2-7-2-.1 0-.1 0-.2-.1 0 0-.1-.1-.1-.2 0-3.2-.1-5.4-.8-5.8-.2-.1-.6-.1-1 .1 0 .1-.1.3-.1.4-.7 1.9-2 3.5-3.5 4.2.6 2.9 1 9.5-5.6 11.1-.5.1-.8.2-1.2.2-.9 0-1.4-.4-1.7-.7-.5-.7-.4-1.8-.1-2.5.2-.4.5-.5.8-.5.2 0 1.6-.1 2.6-1.2q1.8-1.95 1.2-6c-2.1-.6-3.8-2.5-4.3-5v-.2c-1-3.4-1.7-5.4-2.5-5.6s-2.3 1.7-4.4 4.2c-.1.1-.1.1-.2.1s-.1-.1-.2-.1c-1.6-3.4-2.6-5.3-3.5-5.4-.9 0-2 2-3.7 5 0 .1-.1.1-.2.1s-.1 0-.2-.1c-2.5-2.7-4-4.3-4.8-4.1s-1.3 2.2-2.1 5.6c0 .1-.1.1-.1.2h-.2c-3-1.9-5-3.1-5.8-2.7-.7.4-.7 2.4-.5 5.9 0 .1 0 .1-.1.2-.1 0-.1.1-.2 0-3.1-1-5.3-1.7-5.9-1.2-.6.6-.1 2.7.9 6v.2l-.2.2c0 .1-.1.1-.2.1-3.5-.1-5.5-.1-5.9.6s.7 2.5 2.5 5.2v.2l-.2.6c0 .1-.1.1-.2.1-3.2.5-5.1.8-5.4 1.5-.3.8 1.1 2.3 3.4 4.7l.1.1v.4c0 .1-.1.2-.2.2-2.9.7-4.8 1.3-5 2-.2.8 1.4 2.3 4 4.5l.1.1v.5c0 .1 0 .2-.1.2-3.2 1.4-5 2.3-5.1 3.1s1.8 2 4.9 3.9c.1 0 .1.1.1.2v.3c-.6.8-1 1.6-1.2 2.3l-.6.3c.3-.9.7-1.8 1.4-2.7-3.4-2.1-5.1-3.2-5-4.3s1.7-1.8 5.2-3.4v-.2c-3.1-2.7-4.3-3.9-4.1-4.9s1.8-1.5 5.1-2.3v-.1c-2.6-2.8-3.7-4.2-3.4-5.1s1.9-1.3 5.6-1.8l.1-.3c-2.1-3.2-3-4.7-2.5-5.6s2.4-.9 6.2-.8c-1.1-4-1.5-5.7-.8-6.4.8-.7 2.4-.2 6 .9-.2-3.7-.2-5.5.7-6s2.5.4 6 2.5c.9-3.7 1.3-5.4 2.3-5.6 1.1-.3 2.4 1.1 5.1 4 2-3.4 2.9-5 4-5s2 1.7 3.7 5.3c2.4-3 3.6-4.3 4.6-4.1.9.2 1.4 1.3 2.2 4 .1-1.2.4-2.3.9-3.4 0-.1.1-.1.1-.1h.2l3.2 1.9c.3-.1.6-.1.8-.1.5.1.8.6 1.1 1.4l-.1.1 3.5-5.3c0-.1.1-.1.2-.1s.1 0 .2.1c1.9 1.7 2.7 4.7 2 7.5 0-.1.1-.2.1-.3.4-.1.8-.1 1.1 0 .9.5 1 2.2 1.1 5.9 3-.1 4.8.9 7 2.1l.3.2s.1 0 .1.1c2.6 4.5.4 10.3-3.9 18.5m-12.7-29.3.3.2c-.1-.1-.2-.2-.3-.2m4.9-3.7-3.5 5.4c0 .1-.1.1-.2.1s-.2 0-.2-.1l-.4-.8-4.4-2.6c-.7 1.6-.9 3.4-.6 5.1.5 2.3 2.1 4.1 4.1 4.6.1 0 .2.1.2.2.7 4.5-.8 6.4-2.2 7.2-.8.5-1.8.7-2.1.6q-.15 0-.3.3c-.3.5-.4 1.4 0 2s1.3.7 2.4.4c6.4-1.6 5.8-8.1 5.3-10.8 0-.1 0-.2.1-.3 1.5-.7 2.7-2.1 3.4-4 .8-2.6.2-5.6-1.6-7.3M400.7 208c.1-.5 0-.8-.2-1-.3-.2-1.2 0-2.2.5l-.4.3c-.1.8-.5 5.6 1.9 8.7 1.1 1.4 2.7 2.3 4.7 2.5.1 0 .2.1.2.2.1 2.2 1.7 4.2 4 5.2 2.7 1 5.7.6 7.6-1.1l-5.1-3.9c-.1 0-.1-.1-.1-.2s.1-.1.1-.2l5.7-2.6c-1.5-2.1-4.4-3.2-7.2-2.8-1.8.3-3.3 1.1-4.3 2.4 0 .1-.1.1-.2.1-1.3-.2-4.7-1.3-4.5-8.1m21 43 1.2-.6c1.2-.7 1.8-.7 2.5.5.4.7.6 1.5-.4 2l-.6.3 1 1.9-1.1.6zm2.2 1.4.3-.1c.3-.2.3-.4.1-.8-.3-.6-.5-.5-.9-.3l-.1.1zm1.4-3.4 1.4-.8 3.5 4.2-1.1.6-.6-.8-.8.4.3.9-1.1.6zm2.1 2.7.5-.3-1.5-2.1zm3.2-1.6.2.3c.1.3.3.5.6.3.2-.1.3-.4.2-.6-.2-.4-.8-.4-1.4-.5s-1.2-.1-1.6-.8c-.5-.9-.2-1.6.6-2.1.9-.5 1.6-.3 2 .4l.2.4-1 .6-.1-.3c-.1-.2-.3-.5-.6-.3-.2.1-.3.3-.2.6.2.3.8.4 1.4.4.6.1 1.2.1 1.7 1 .2.5.3 1.4-.8 2s-1.8.1-2-.4l-.3-.5zm3.2-1.8.2.3c.1.3.3.5.6.3.2-.1.3-.4.2-.6-.2-.4-.8-.4-1.4-.5s-1.2-.1-1.6-.8c-.5-.9-.2-1.6.6-2.1.9-.5 1.6-.3 2 .4l.2.4-1 .6-.1-.3c-.1-.2-.3-.5-.6-.3-.2.1-.3.3-.2.6.2.3.8.4 1.4.4.6.1 1.2.1 1.7 1 .2.5.3 1.4-.8 2s-1.8.1-2-.4l-.3-.5zm.5-4.3 1.2-.6c1.2-.7 1.8-.7 2.5.5.4.7.6 1.5-.4 2l-.6.3 1 1.9-1.1.6zm2.2 1.4.3-.1c.3-.2.3-.4.1-.8-.3-.6-.5-.5-.9-.3l-.1.1zm1.8-2c-.5-.9-.2-1.7.6-2.1s1.6-.3 2.1.6l1.2 2.1c.5.8.2 1.6-.6 2.1-.9.5-1.7.2-2.1-.6zm2.3 1.7c.1.1.2.4.5.3.3-.2.1-.5.1-.6l-1.3-2.3c-.1-.2-.2-.4-.5-.3-.3.2-.2.4-.1.6zm.3-4.7 1.4-.8c1-.5 1.5-.5 2 .4.3.5.4.9 0 1.4.4-.1.8 0 1 .4l.5.8c.2.3.4.7.6.8l-1.1.6c-.2-.1-.4-.5-.6-.8l-.4-.7c-.1-.3-.3-.3-.6-.2l-.2.1 1.1 2-1.1.6zm2.1 1.2.3-.1c.4-.2.2-.4.1-.8-.2-.3-.3-.5-.7-.3l-.2.1zm.8-2.9 2.5-1.4.5.9-.7.4 2.1 3.8-1.1.6-2.1-3.8-.7.4zm-33 12.9-.9-6 .7-.4 4.8 3.8-.7.4-1.4-1.2-2.1 1.2.3 1.8zm.3-2.8 1.7-.9-1.3-1.1c-.4-.3-.7-.6-.9-.8.1.4.2.7.3 1.1zm5.4-6.8.7-.4 1.6 2.9c.3.5.4.9.5 1.3 0 .4 0 .7-.2 1.1-.2.3-.5.7-1 .9-.5.3-.9.4-1.3.4s-.7-.1-1-.3-.6-.6-.9-1.1l-1.6-2.9.7-.4 1.6 2.9c.2.4.5.7.6.9.2.2.4.2.7.2s.5-.1.8-.2q.75-.45.9-.9c.1-.3 0-.8-.4-1.4zm5.8 3.3-2.4-4.4-1.6.9-.3-.6 3.9-2.2.3.6-1.6.9 2.4 4.4zm3-1.7-2.8-5 .7-.4 1.1 2 2.6-1.4-1.1-2 .7-.4 2.8 5-.7.4-1.3-2.3-2.6 1.4 1.3 2.3zm3.9-4.2.6-.4c.2.2.3.4.5.5s.4.1.7.1.6-.1.8-.3c.3-.1.5-.3.6-.5.2-.2.2-.4.3-.5s0-.3-.1-.5-.2-.3-.4-.3q-.3-.15-.6 0c-.2 0-.5.1-1 .2s-.9.2-1.1.2c-.3 0-.6 0-.8-.2-.2-.1-.4-.3-.5-.5-.1-.3-.2-.5-.2-.8s.1-.6.3-.8c.2-.3.5-.5.8-.7.4-.2.7-.3 1.1-.4.3 0 .7 0 .9.2.3.1.5.4.7.6l-.6.4c-.2-.3-.5-.5-.7-.5-.3-.1-.6 0-1 .2s-.6.5-.7.7-.1.5 0 .7.2.3.4.3.6 0 1.2-.2 1-.3 1.3-.3c.4 0 .7 0 .9.2q.45.15.6.6c.1.3.2.6.2.9q0 .45-.3.9c-.2.3-.5.5-.8.7-.5.2-.9.4-1.2.4-.4 0-.7 0-1-.2s-.8-.4-.9-.7m7-1.8-2.4-4.4-1.6.9-.3-.6 3.9-2.2.3.6-1.6.9 2.4 4.4zm2.9-1.7-2.8-5 2.2-1.2c.4-.2.8-.4 1.1-.4s.6 0 .8.2c.3.1.5.4.6.6.2.4.2.7.2 1.1s-.4.7-.8 1h.5c.3.1.6.2.9.4l1.6.9-.8.5-1.2-.7c-.4-.2-.6-.3-.9-.4-.2-.1-.4-.1-.5-.1h-.4c-.1 0-.2.1-.4.2l-.8.4 1.2 2.2zm-.8-3.1 1.4-.8c.3-.2.5-.3.7-.5.1-.2.2-.3.2-.5s0-.4-.1-.5c-.1-.2-.3-.4-.6-.4-.3-.1-.6 0-.9.2l-1.6.9zm5.3.6-.8-6 .7-.4 4.8 3.8-.7.4-1.4-1.2-2.1 1.2.3 1.8zm.3-2.8 1.7-.9-1.3-1.1c-.4-.3-.7-.6-.9-.8.1.4.2.7.3 1.1zm4.8 0-2.8-5 .7-.4 2.4 4.4 2.4-1.4.3.6zm4-2.2-2.8-5 .7-.4 2.8 5zm1.3-.7-.8-6 .7-.4 4.8 3.8-.7.4-1.4-1.2-2.1 1.2.3 1.8zm.3-2.9 1.7-.9-1.3-1.1c-.4-.3-.7-.6-.9-.8.1.4.2.7.3 1.1zm-91.8-72.5 1.6-.9 1.7 3-.6-3.6 1.8-1 .3 3.8 3.8 3.5-1.8 1-2.2-2.2-.1.8 1.1 2-1.6.9zm6.1-3.5 2.2-1.3 5.5 6.6-1.8 1-.9-1.2-1.2.7.6 1.4-1.7.9zm3.3 4.4.8-.5-2.4-3.4zm.8-6.6 1.9-1 3.8 3.6-2.4-4.3 1.6-.9 4.1 7.4-1.8 1-3.9-3.8 2.5 4.5-1.6.9zm5.7-3.2 1.7-.9 4.1 7.4-1.7.9zm2.5-1.4 2.5-1.4c1.4-.8 2.3-.2 2.9.9l2 3.5c.8 1.3.1 2.4-.8 2.9l-2.5 1.4zm5.1 5.1.3-.1c.5-.3.6-.6.4-1l-2-3.6c-.2-.4-.6-.5-1.1-.2l-.3.1zm0-8 2.7-1.5 2.5 3.4-1.6-3.9 2.7-1.5 4.1 7.4-1.6.9-3.2-5.7 2.2 6.2-1.1.6-4.1-5.2 3.2 5.7-1.6.9z" style="fill:#ccc"/></svg>