<?xml version="1.0" encoding="utf-8"?>
<!-- Generator: Adobe Illustrator 28.2.0, SVG Export Plug-In . SVG Version: 6.00 Build 0)  -->
<svg version="1.1"
	 id="svg5800" xmlns:svg="http://www.w3.org/2000/svg" xmlns:sodipodi="http://sodipodi.sourceforge.net/DTD/sodipodi-0.dtd" xmlns:inkscape="http://www.inkscape.org/namespaces/inkscape" xmlns:rdf="http://www.w3.org/1999/02/22-rdf-syntax-ns#" xmlns:cc="http://creativecommons.org/ns#" xmlns:dc="http://purl.org/dc/elements/1.1/" inkscape:export-filename="../94e4957b/kani-yellow-sign.png" sodipodi:docname="logo.svg"
	 xmlns="http://www.w3.org/2000/svg" xmlns:xlink="http://www.w3.org/1999/xlink" x="0px" y="0px" viewBox="0 0 512 512"
	 style="enable-background:new 0 0 512 512;" xml:space="preserve">
<path d="M511.8,244.6L428.4,95.2c-0.2-0.3-0.5-0.6-0.9-0.7c-0.4-0.1-0.8-0.1-1.1,0.1l-106.6,59.6c-0.7,0.4-0.9,1.3-0.6,2l24.5,44
	c0.2-0.2,0.5-0.3,0.7-0.5c-5.2,3.4-9.7,8-13.1,13.3c3-13.9,3.7-21.3-0.1-24.5c-4.4-3.8-13.3-0.6-32.7,7.1
	c1.4-21.2,1.7-31.7-3.4-34.8c-5-3-13.5,1.7-31.9,12.7c-4.8-20.6-7.5-30.7-13.3-32.2c-5.6-1.5-12.2,5.2-26.1,20.5
	c-10.1-18.7-15.4-27.8-21.3-27.9c-5.7-0.1-10.5,8.4-19.4,26.1c-13.5-14.8-20.4-21.8-26-20.4c-5.6,1.5-8.2,10.5-13.3,32.2
	c-18.4-11-26.8-15.7-31.8-12.7c-4.9,3-4.8,12.4-3.5,33.3c0,0-0.1,0-0.1,0.1c-0.4,0.3-0.8,0.6-1.2,0.9c-18.9-7.5-27-10.1-31.3-6.5
	c-4.3,3.7-2.8,13.1,1.9,33.5c0,0-0.1,0.1-0.1,0.1c-18.5-5-27.1-6.7-30.8-2.7c-3.9,4.2-1.3,13.1,6,33.9c-0.3,0.4-0.6,0.8-0.8,1.3
	c-20.5-2.2-30.6-3-33.9,1.9c-3.4,5,1.5,14.5,11.9,33.7c-15.8,7.8-21.6,17.4-29,29.5l-0.9,1.4C0.1,319.7,0,320,0,320.2
	c-0.6,26,25.4,47.9,67.6,74.8c0.2,0.2,0.5,0.2,0.8,0.2c0.4,0,0.7-0.1,1-0.4c0.5-0.4,0.6-1.2,0.3-1.7c-4.9-9.1-10.8-16.6-16.5-23.9
	c-10.2-13-19.8-25.2-22.5-44.9c4.8-8.7,12.4-12.9,19.7-16.9c0.9-0.5,1.8-1,2.7-1.5c-8.3,26.2,13.6,49.9,23.8,59.1
	c0.2,0.2,0.3,0.3,0.4,0.3c0.3,0.3,0.7,0.5,1.1,0.5c0.2,0,0.4,0,0.6-0.1c0.7-0.3,1.1-1.1,0.8-1.8c-0.5-1.6-1.1-3.2-1.6-4.7
	c-5.8-16.6-10.3-29.7,0.2-41.2c2.7,1.3,5.4,2.6,8.2,3.8c0,0,0,0,0,0c-1,5.2-1.3,10.6-0.5,16.1c1.5,10.1,6.9,18.7,15.9,25.4
	c-5.1,11.4-2.7,25.8,6.3,37.2c8.6,10.8,21.5,17,34,17c2.9,0,5.8-0.3,8.6-1c0.4-0.1,0.8-0.4,0.9-0.8s0.2-0.8,0-1.2l-13-31.3l33.5,2.7
	c0.4,0,0.8-0.1,1.1-0.4c0.3-0.3,0.5-0.7,0.4-1.1c-1.2-15.5-12.5-29.9-28.3-36c-9.5-3.6-19.2-3.7-27.6-0.3c-3.9-3.1-8.3-8.4-8.7-17.1
	c30.2,10.7,60.7,16.1,91.3,16.1c0.3,0,0.7,0,1,0c42.3-0.2,85-10.7,127.3-31.2c10.6,11.5,6,24.7,0.2,41.3c-0.5,1.5-1.1,3.1-1.6,4.7
	c-0.2,0.7,0.1,1.5,0.8,1.8c0.2,0.1,0.4,0.1,0.6,0.1c0.4,0,0.8-0.2,1.1-0.5c0.1-0.1,0.2-0.2,0.4-0.3c7.9-7.2,32.2-32,23.8-58.9
	c0.8,0.5,1.6,0.9,2.5,1.4c7.4,4,15,8.1,19.7,16.8c-2.7,19.6-12.3,31.8-22.4,44.8c-5.7,7.3-11.7,14.9-16.6,24
	c-0.3,0.6-0.2,1.3,0.3,1.7c0.5,0.4,1.2,0.5,1.8,0.2c42.3-26.9,68.3-48.8,67.6-74.8c0-0.3-0.1-0.5-0.2-0.7l-0.7-1.2
	c-7.1-11.7-12.8-21.1-27.4-28.7c2.7-5,5-9.3,6.7-12.9l17.3,31.1c0.2,0.3,0.5,0.6,0.9,0.7c0.1,0,0.3,0.1,0.4,0.1
	c0.2,0,0.5-0.1,0.7-0.2l106.6-59.6C512,246.2,512.2,245.3,511.8,244.6z M344.7,203l13.5,23.5v4.6c0,0.5,0.3,1,0.7,1.2
	c0.4,0.3,1,0.3,1.4,0.1l30.8-15.6c3.5,13.3-1.3,28.8-12.4,39.1c-7.6,7-17.3,10.7-26.4,10c-0.7-0.1-1.3,0.4-1.5,1
	c-5.9,17.7-20.6,46-53.4,36.7c-6.4-1.8-10-4.7-10.4-8.4c-0.4-3.6,2.3-7.5,5-9c0.7-0.4,1.3-0.6,1.7-0.6c0.2,0,0.4,0,0.4,0.1l0,0
	c1.1,0.8,8,4,16.6,2.1c7.5-1.7,18-7.8,25.3-27.8c0.2-0.5,0.1-1.1-0.3-1.5c-8.1-7.9-10.8-20.6-7.1-33.1
	C331.4,216.4,337.2,208.3,344.7,203z M345.3,199.4c0.1,0,0.2,0,0.3,0C345.5,199.5,345.4,199.5,345.3,199.4z M380.1,258.5
	c-0.1,0.1-0.2,0.2-0.3,0.3l0,0C379.9,258.7,380,258.6,380.1,258.5z M75,359.3c-10.5-10.6-26.3-31-19-53c6.5,3.7,13,7.2,19.5,10.4
	C64.8,329.1,69.4,343.2,75,359.3z M116.8,350.9c0.4,0.3,1,0.4,1.4,0.2c7.8-3.4,17.1-3.4,26.2,0c14.2,5.4,24.6,18.1,26.3,31.8
	l-34.1-2.7c-0.5,0-1,0.2-1.3,0.6s-0.4,0.9-0.2,1.4l13.2,31.9c-13.4,2.6-28.5-3.4-38-15.3c-8.6-10.9-10.8-24.7-5.4-35.2
	c0.3-0.6,0.1-1.4-0.5-1.8c-8.9-6.3-14.2-14.5-15.7-24.2c-3.2-20.9,12.3-43.1,14.5-46.1c0.4,0,1.2-0.1,2.2-0.1
	c4.7,0,10.3,0.9,11.8,3.6c0.8,1.3,0.4,3.2-1,5.5C97.2,331.6,110.3,346.1,116.8,350.9z M332,357.1c5.6-16.2,10.2-30.2-0.6-42.6
	c6.5-3.2,13.1-6.7,19.6-10.5C358.4,326.3,341.6,347.4,332,357.1z M375.3,287.4c-0.2,0.3-0.2,0.7-0.1,1.1c0.1,0.4,0.4,0.7,0.7,0.9
	c14.8,7.4,20.1,16.2,27.5,28.3l0.5,0.9c0.4,23.5-23,43.9-61.3,68.7c4.2-6.8,8.8-12.7,13.4-18.5c10.5-13.4,20.4-26,23.1-46.6
	c0-0.3,0-0.6-0.2-0.9c-5.2-9.8-13.3-14.2-21.1-18.4c-1.6-0.9-3.1-1.7-4.6-2.5c-0.4-0.3-1-0.3-1.5,0
	c-81.4,47.3-162.8,56.6-242.6,27.7c0.3-6.8,3-15.4,9.5-26.1c2-3.3,2.3-6.1,1-8.4c-2.6-4.6-10.9-5-14.3-5c-3.2,0-4.2,0.2-4.5,1.2
	c-1.7,2.3-10.3,14.5-13.9,29.4c-10.7-4.8-21.4-10.4-32.1-16.6c-0.5-0.3-1-0.3-1.5,0c-1.5,0.8-2.9,1.6-4.5,2.5
	c-7.8,4.3-15.9,8.7-21.1,18.4c-0.1,0.3-0.2,0.6-0.2,0.9c2.7,20.8,12.6,33.4,23.1,46.8c4.5,5.7,9.2,11.6,13.3,18.3
	C27,365.3,2.6,344.1,2.9,320.7l0.7-1.1c7.5-12.4,13-21.3,28.7-28.8c0.1-0.1,0.3-0.2,0.4-0.3c0.3-0.3,0.4-0.6,0.6-0.9
	c0.2-0.4,0.2-0.9,0-1.3c-9.4-17.3-15-28.1-12.6-31.7c2.4-3.5,13.7-2.5,32-0.6c0.5,0.1,1.1-0.2,1.4-0.6l0.5-0.7
	c0.4-0.6,0.8-1.2,1.2-1.8c0.3-0.4,0.4-0.9,0.2-1.3c-6.2-17.6-9.8-28.5-6.8-31.7c2.8-3,13.2-0.5,28.8,3.7c0.5,0.1,1,0,1.4-0.4
	c0.2-0.2,0.4-0.5,0.7-0.7c0.2-0.2,0.4-0.4,0.6-0.6c0.4-0.4,0.5-0.9,0.4-1.3c-4-17.1-6.3-28.6-3-31.4c3.2-2.7,13.1,0.9,29.1,7.3
	c0.5,0.2,1.1,0.1,1.5-0.3c0.5-0.5,1.1-0.9,1.7-1.3c0.3-0.2,0.5-0.4,0.8-0.6c0.4-0.3,0.6-0.8,0.6-1.2c-1.1-17.5-1.5-29.2,2.1-31.4
	c3.7-2.2,13.1,3.2,29.5,13.1c0.4,0.3,0.9,0.3,1.4,0.1c0.2-0.1,0.4-0.2,0.6-0.3c0.2-0.1,0.5-0.2,0.7-0.3c0.4-0.2,0.7-0.5,0.8-1
	c4.3-18.4,7.2-29.6,11.4-30.7c4.2-1.1,12,7.3,24.6,21.1c0.3,0.4,0.8,0.5,1.3,0.5c0.5-0.1,0.9-0.4,1.1-0.8
	c7.4-14.7,13.3-26.4,17.7-26.4c0,0,0,0,0,0h0c4.4,0.1,10.4,10.8,19.7,28.2c0.2,0.4,0.6,0.7,1.1,0.7c0.5,0.1,0.9-0.1,1.2-0.5
	c12.9-14.3,20.5-22.3,24.6-21.2c4.3,1.1,7.2,12.9,11.6,32c0.1,0.4,0.4,0.8,0.8,1c0.4,0.2,0.9,0.1,1.3-0.1
	c16.1-9.7,26.8-16.1,30.6-13.7c3.8,2.3,3.2,14.6,1.9,34.4c0,0.5,0.2,1,0.6,1.3c0.4,0.3,0.9,0.4,1.4,0.2c16.5-6.6,28.5-11.3,31.9-8.4
	c3.3,2.8,0.9,14.4-3.5,33.2c-0.1,0.2,0,0.5,0,0.7c0,0,0,0,0,0c-3.9,13.2-1.2,26.6,7.1,35.3c-5,13.3-12,21.5-20.6,24.5
	c-8.9,3-16.1-0.7-16.6-0.9c-1.3-1-3.2-0.9-5.3,0.2c-3.6,2-7,7-6.5,11.9c0.4,3.5,2.9,8.1,12.5,10.8c4.7,1.3,9,1.9,13,1.9
	c26.6,0,39-26,43.6-39.5c8.4,0.3,17-2.6,24.3-8.2c0,0,0,0,0,0l6,10.8C381.5,275.9,378.7,281.2,375.3,287.4z M404.5,303l-24.9-43.7
	c1.9-1.8,3.6-3.6,5-5.5l0.2-0.2c3.4-4.1,6-8.8,7.8-13.6c0.1-0.2,0.2-0.4,0.2-0.6c0.2-0.7,0.5-1.4,0.7-2.1c0.1-0.2,0.1-0.5,0.2-0.7
	c0.2-0.6,0.3-1.1,0.4-1.7c0-0.2,0.1-0.4,0.1-0.6c0.2-0.7,0.3-1.4,0.4-2.1c0-0.2,0.1-0.5,0.1-0.7c0.1-0.6,0.2-1.2,0.2-1.8
	c0-0.2,0-0.3,0.1-0.5c0.1-0.7,0.1-1.4,0.1-2.2c0-0.2,0-0.4,0-0.7c0-0.6,0-1.3,0-1.9c0-0.1,0-0.2,0-0.3c0-0.7-0.1-1.5-0.1-2.2
	c0-0.2,0-0.4-0.1-0.6c-0.1-0.7-0.2-1.4-0.3-2.1c0-0.1,0-0.1,0-0.2c-0.1-0.7-0.3-1.5-0.5-2.2c0-0.2-0.1-0.4-0.1-0.5
	c-0.2-0.7-0.4-1.5-0.6-2.2c-0.1-0.4-0.4-0.7-0.8-0.9c-0.4-0.2-0.8-0.1-1.2,0l-30.2,15.3l-0.1,0.1l1.5-0.7l-40.1-71.9l104.1-58.2
	l82,146.9L404.5,303z M173.4,274.3c-2.6-0.7-5.2,0.8-7.6,4.3l0,0.1c-8.9,19.2-5.5,32.5,0.2,38c2.1,2.1,4.6,3.2,7,3.2
	c1.2,0,2.5-0.3,3.6-0.8c5.8-2.8,8.5-11.9,7.1-24.1C182.9,285.9,178.8,275.7,173.4,274.3z M174.3,297.8c0.1-0.6-4.2-9.7,0.4-15.6
	C180.6,279.2,180.8,304.1,174.3,297.8z M237.4,274.3c-2.6-0.7-5.2,0.8-7.6,4.3l0,0.1c-8.9,19.2-5.5,32.5,0.2,38
	c2.1,2.1,4.6,3.2,7,3.2c1.2,0,2.5-0.3,3.6-0.8c5.8-2.8,8.5-11.9,7.1-24.1C246.8,285.9,242.7,275.7,237.4,274.3z M238.1,297.8
	c0.1-0.6-4.2-9.7,0.4-15.6C244.5,279.2,244.8,304.1,238.1,297.8z M216.7,317.6c-4.7,2.3-15.8,7.5-27.9-1l-0.3-0.2l-0.4,0
	c-0.9-0.1-1.6,0.5-1.8,1.4c-0.5,2.9,7,16.6,15.7,18.9c0.9,0.2,1.8,0.4,2.7,0.4c6.3,0,11.7-6,15.9-18c0.4-1.1-0.2-1.7-0.4-1.9
	C219.4,316.3,218.4,316.8,216.7,317.6z M203.4,334c-6-1-11.3-8.8-13.4-13.2c11.5,6.3,21.9,2.2,26.8-0.1
	C214,327.9,209.5,335,203.4,334z M401.9,227.3c0.1,0.1,0.1,0.2,0.1,0.3c0,0.1-0.1,0.2-0.2,0.2c0,0,0,0,0,0c-2.4-0.1-4.6-0.3-6.6-0.6
	c0-0.2,0-0.3,0-0.5c1.7,0.2,3.6,0.4,5.7,0.5c-1.3-0.7-2.6-1.3-3.9-1.8c-0.6-0.2-1.2-0.5-1.7-0.7c0-0.2,0-0.3,0-0.5
	c0.6,0.3,1.3,0.5,1.9,0.8C398.7,225.6,400.3,226.2,401.9,227.3z M445.2,202.7c0,0.1-0.2,0.1-0.3,0.1c-0.1,0-0.2-0.1-0.2-0.2
	c0-1.9,0.2-3.6,0.5-5.3c0.5-3,0.9-5.9-0.5-9.3c-1.6-1-3.1-0.9-4.6-0.9c-0.3,0-0.6,0-0.9,0c-8.8,15.1-21.2,23.9-36.8,26.6
	c0.9,1.4,2.2,1.8,2.9,1.9c1.1-1.3,2.6-2.2,4.5-2.5c3.1-0.5,6.2,0.8,7.8,3.2c0,0.1,0,0.1,0,0.2c0,0.1-0.1,0.1-0.1,0.1l-5.6,2.6l5,3.8
	c0.1,0,0.1,0.1,0.1,0.2c0,0.1,0,0.1-0.1,0.2c-1.3,1.3-3.2,1.9-5.1,1.9c-1,0-2.1-0.2-3.1-0.6c-2.5-1-4.1-3.1-4.3-5.4
	c-2.1-0.3-3.7-1.1-4.9-2.6c-0.6-0.8-1-1.7-1.3-2.6c0,0,0,0,0,0c-1.5,0.1-3,0.2-4.5,0.3c0-0.1-0.1-0.2-0.1-0.3c0-0.1,0-0.1-0.1-0.2
	c1.5,0,3-0.1,4.5-0.2c-0.9-3-0.5-6-0.5-6.1c0-0.1,0-0.1,0.1-0.2l0.5-0.3c0,0,0,0,0,0c0.7-0.4,2-1,2.7-0.5c0.4,0.2,0.5,0.7,0.4,1.4
	c0,2.4,0.4,4.1,1,5.2c15.6-2.6,27.9-11.5,36.7-26.5c0-0.1,0.1-0.1,0.2-0.1c0.3,0,0.7,0,1.1,0c1.6,0,3.3,0,5,1c0,0,0.1,0.1,0.1,0.1
	c1.5,3.6,1,6.5,0.6,9.6c-0.2,1.4-0.4,2.8-0.5,4.3c3.9-7.5,5.9-13,3.6-16.8l-0.2-0.1c-2.3-1.3-3.9-2.2-7-2c-0.1,0-0.1,0-0.2-0.1
	c0,0-0.1-0.1-0.1-0.2c0-3.2-0.1-5.4-0.8-5.8c-0.2-0.1-0.6-0.1-1,0.1c0,0.1-0.1,0.3-0.1,0.4c-0.7,1.9-2,3.5-3.5,4.2
	c0.6,2.9,1,9.5-5.6,11.1c-0.5,0.1-0.8,0.2-1.2,0.2c-0.9,0-1.4-0.4-1.7-0.7c-0.5-0.7-0.4-1.8-0.1-2.5c0.2-0.4,0.5-0.5,0.8-0.5
	c0,0,0,0,0,0c0.2,0,1.6-0.1,2.6-1.2c1.2-1.3,1.6-3.3,1.2-6c-2.1-0.6-3.8-2.5-4.3-5c0-0.1,0-0.2,0-0.2c-1-3.4-1.7-5.4-2.5-5.6
	c-0.8-0.2-2.3,1.7-4.4,4.2c-0.1,0.1-0.1,0.1-0.2,0.1c-0.1,0-0.1-0.1-0.2-0.1c-1.6-3.4-2.6-5.3-3.5-5.4c0,0,0,0,0,0c-0.9,0-2,2-3.7,5
	c0,0.1-0.1,0.1-0.2,0.1c-0.1,0-0.1,0-0.2-0.1c-2.5-2.7-4-4.3-4.8-4.1c-0.8,0.2-1.3,2.2-2.1,5.6c0,0.1-0.1,0.1-0.1,0.2
	c-0.1,0-0.1,0-0.2,0c-3-1.9-5-3.1-5.8-2.7c-0.7,0.4-0.7,2.4-0.5,5.9c0,0.1,0,0.1-0.1,0.2c-0.1,0-0.1,0.1-0.2,0
	c-3.1-1-5.3-1.7-5.9-1.2c-0.6,0.6-0.1,2.7,0.9,6c0,0.1,0,0.1,0,0.2l-0.2,0.2c0,0.1-0.1,0.1-0.2,0.1c-3.5-0.1-5.5-0.1-5.9,0.6
	c-0.4,0.7,0.7,2.5,2.5,5.2c0,0.1,0,0.1,0,0.2l-0.2,0.6c0,0.1-0.1,0.1-0.2,0.1c-3.2,0.5-5.1,0.8-5.4,1.5c-0.3,0.8,1.1,2.3,3.4,4.7
	c0,0,0.1,0.1,0.1,0.1c0,0.1,0,0.2,0,0.2c0,0.1,0,0.1,0,0.2c0,0.1-0.1,0.2-0.2,0.2c-2.9,0.7-4.8,1.3-5,2c-0.2,0.8,1.4,2.3,4,4.5
	c0,0,0.1,0.1,0.1,0.1c0,0.1,0,0.2,0,0.3c0,0.1,0,0.2,0,0.2c0,0.1,0,0.2-0.1,0.2c-3.2,1.4-5,2.3-5.1,3.1c-0.1,0.8,1.8,2,4.9,3.9
	c0.1,0,0.1,0.1,0.1,0.2l0,0.1c0,0.1,0,0.1,0,0.2c-0.6,0.8-1,1.6-1.2,2.3l-0.6,0.3c0.3-0.9,0.7-1.8,1.4-2.7c-3.4-2.1-5.1-3.2-5-4.3
	c0.1-1.1,1.7-1.8,5.2-3.4c0-0.1,0-0.1,0-0.1c0,0,0-0.1,0-0.1c-3.1-2.7-4.3-3.9-4.1-4.9c0.2-1,1.8-1.5,5.1-2.3c0,0,0-0.1,0-0.1
	c-2.6-2.8-3.7-4.2-3.4-5.1c0.3-0.9,1.9-1.3,5.6-1.8l0.1-0.3c-2.1-3.2-3-4.7-2.5-5.6c0.5-0.9,2.4-0.9,6.2-0.8l0,0
	c-1.1-4-1.5-5.7-0.8-6.4c0.8-0.7,2.4-0.2,6,0.9c-0.2-3.7-0.2-5.5,0.7-6c0.9-0.5,2.5,0.4,6,2.5c0.9-3.7,1.3-5.4,2.3-5.6
	c1.1-0.3,2.4,1.1,5.1,4c2-3.4,2.9-5,4-5c0,0,0,0,0,0c1.1,0,2,1.7,3.7,5.3c2.4-3,3.6-4.3,4.6-4.1c0.9,0.2,1.4,1.3,2.2,4
	c0.1-1.2,0.4-2.3,0.9-3.4c0-0.1,0.1-0.1,0.1-0.1c0.1,0,0.1,0,0.2,0l3.2,1.9c0.3-0.1,0.6-0.1,0.8-0.1c0.5,0.1,0.8,0.6,1.1,1.4
	l-0.1,0.1l3.5-5.3c0-0.1,0.1-0.1,0.2-0.1c0.1,0,0.1,0,0.2,0.1c1.9,1.7,2.7,4.7,2,7.5c0-0.1,0.1-0.2,0.1-0.3c0.4-0.1,0.8-0.1,1.1,0
	c0.9,0.5,1,2.2,1.1,5.9c3-0.1,4.8,0.9,7,2.1l0.3,0.2c0,0,0.1,0,0.1,0.1C451.7,188.7,449.5,194.5,445.2,202.7z M432.5,173.4l0.3,0.2
	C432.7,173.5,432.6,173.4,432.5,173.4C432.5,173.4,432.5,173.4,432.5,173.4z M437.4,169.7l-3.5,5.4c0,0.1-0.1,0.1-0.2,0.1
	c-0.1,0-0.2,0-0.2-0.1l-0.4-0.8l-4.4-2.6c-0.7,1.6-0.9,3.4-0.6,5.1c0.5,2.3,2.1,4.1,4.1,4.6c0.1,0,0.2,0.1,0.2,0.2
	c0.7,4.5-0.8,6.4-2.2,7.2c-0.8,0.5-1.8,0.7-2.1,0.6l0,0c0,0,0,0,0,0c-0.1,0-0.2,0.1-0.3,0.3c-0.3,0.5-0.4,1.4,0,2
	c0.4,0.6,1.3,0.7,2.4,0.4c6.4-1.6,5.8-8.1,5.3-10.8c0-0.1,0-0.2,0.1-0.3c1.5-0.7,2.7-2.1,3.4-4C439.8,174.4,439.2,171.4,437.4,169.7
	z M400.7,208c0.1-0.5,0-0.8-0.2-1c-0.3-0.2-1.2,0-2.2,0.5l-0.4,0.3c-0.1,0.8-0.5,5.6,1.9,8.7c1.1,1.4,2.7,2.3,4.7,2.5
	c0.1,0,0.2,0.1,0.2,0.2c0.1,2.2,1.7,4.2,4,5.2c2.7,1,5.7,0.6,7.6-1.1l-5.1-3.9c-0.1,0-0.1-0.1-0.1-0.2c0-0.1,0.1-0.1,0.1-0.2
	l5.7-2.6c-1.5-2.1-4.4-3.2-7.2-2.8c-1.8,0.3-3.3,1.1-4.3,2.4c0,0.1-0.1,0.1-0.2,0.1C403.9,215.9,400.5,214.8,400.7,208z
	 M420.4,204.4c-0.2,0.1-0.4,0.1-0.6,0.1c-1.4,0-3-1-3.2-1.4c-0.1-0.1,0-0.3,0.1-0.3l0.1,0l0.1,0c2.5,0.2,3.7-1.6,4.1-2.3
	c0.2-0.3,0.2-0.4,0.4-0.3l0.1,0l0,0.2C422,202.7,421.6,204,420.4,204.4z M414.2,200.1c4.2,5.5-3,6.9-3.8-0.8
	C410.6,196.8,412.9,198.3,414.2,200.1z M423.3,194.7c4.2,5.5-3,6.9-3.8-0.8C419.6,191.4,422.1,192.9,423.3,194.7z M411.9,198.9
	c-0.2,1.2,1.2,2.1,1.2,2.2C414.6,201.6,412.5,198,411.9,198.9z M421,193.5c-0.2,1.2,1.2,2.1,1.2,2.2
	C423.7,196.2,421.6,192.6,421,193.5z M421.7,251l1.2-0.6c1.2-0.7,1.8-0.7,2.5,0.5c0.4,0.7,0.6,1.5-0.4,2l-0.6,0.3l1,1.9l-1.1,0.6
	L421.7,251z M423.9,252.4l0.3-0.1c0.3-0.2,0.3-0.4,0.1-0.8c-0.3-0.6-0.5-0.5-0.9-0.3l-0.1,0.1L423.9,252.4z M425.3,249l1.4-0.8
	l3.5,4.2l-1.1,0.6l-0.6-0.8l-0.8,0.4l0.3,0.9l-1.1,0.6L425.3,249z M427.4,251.7l0.5-0.3l-1.5-2.1l0,0L427.4,251.7z M430.6,250.1
	l0.2,0.3c0.1,0.3,0.3,0.5,0.6,0.3c0.2-0.1,0.3-0.4,0.2-0.6c-0.2-0.4-0.8-0.4-1.4-0.5c-0.6-0.1-1.2-0.1-1.6-0.8
	c-0.5-0.9-0.2-1.6,0.6-2.1c0.9-0.5,1.6-0.3,2,0.4l0.2,0.4l-1,0.6l-0.1-0.3c-0.1-0.2-0.3-0.5-0.6-0.3c-0.2,0.1-0.3,0.3-0.2,0.6
	c0.2,0.3,0.8,0.3,1.4,0.4c0.6,0.1,1.2,0.1,1.7,1c0.2,0.5,0.3,1.4-0.8,2c-1.1,0.6-1.8,0.1-2-0.4l-0.3-0.5L430.6,250.1z M433.8,248.3
	l0.2,0.3c0.1,0.3,0.3,0.5,0.6,0.3c0.2-0.1,0.3-0.4,0.2-0.6c-0.2-0.4-0.8-0.4-1.4-0.5c-0.6-0.1-1.2-0.1-1.6-0.8
	c-0.5-0.9-0.2-1.6,0.6-2.1c0.9-0.5,1.6-0.3,2,0.4l0.2,0.4l-1,0.6l-0.1-0.3c-0.1-0.2-0.3-0.5-0.6-0.3c-0.2,0.1-0.3,0.3-0.2,0.6
	c0.2,0.3,0.8,0.4,1.4,0.4c0.6,0.1,1.2,0.1,1.7,1c0.2,0.5,0.3,1.4-0.8,2c-1.1,0.6-1.8,0.1-2-0.4l-0.3-0.5L433.8,248.3z M434.3,244
	l1.2-0.6c1.2-0.7,1.8-0.7,2.5,0.5c0.4,0.7,0.6,1.5-0.4,2l-0.6,0.3l1,1.9l-1.1,0.6L434.3,244z M436.5,245.4l0.3-0.1
	c0.3-0.2,0.3-0.4,0.1-0.8c-0.3-0.6-0.5-0.5-0.9-0.3l-0.1,0.1L436.5,245.4z M438.3,243.5c-0.5-0.9-0.2-1.7,0.6-2.1s1.6-0.3,2.1,0.6
	l1.2,2.1c0.5,0.8,0.2,1.6-0.6,2.1c-0.9,0.5-1.7,0.2-2.1-0.6L438.3,243.5z M440.6,245.1c0.1,0.1,0.2,0.4,0.5,0.3
	c0.3-0.2,0.1-0.5,0.1-0.6l-1.3-2.3c-0.1-0.2-0.2-0.4-0.5-0.3c-0.3,0.2-0.2,0.4-0.1,0.6L440.6,245.1z M440.9,240.4l1.4-0.8
	c1-0.5,1.5-0.5,2,0.4c0.3,0.5,0.4,0.9,0,1.4l0,0c0.4-0.1,0.8,0,1,0.4l0.5,0.8c0.2,0.3,0.4,0.7,0.6,0.8l-1.1,0.6
	c-0.2-0.1-0.4-0.5-0.6-0.8l-0.4-0.7c-0.1-0.3-0.3-0.3-0.6-0.2l-0.2,0.1l1.1,2l-1.1,0.6L440.9,240.4z M443,241.6l0.3-0.1
	c0.4-0.2,0.2-0.4,0.1-0.8c-0.2-0.3-0.3-0.5-0.7-0.3l-0.2,0.1L443,241.6z M443.8,238.7l2.5-1.4l0.5,0.9l-0.7,0.4l2.1,3.8l-1.1,0.6
	l-2.1-3.8l-0.7,0.4L443.8,238.7z M410.8,251.6l-0.8-6l0.7-0.4l4.8,3.8l-0.7,0.4l-1.4-1.2l-2.1,1.2l0.3,1.8L410.8,251.6z
	 M411.1,248.8l1.7-0.9l-1.3-1.1c-0.4-0.3-0.7-0.6-0.9-0.8c0.1,0.4,0.2,0.7,0.3,1.1L411.1,248.8z M416.5,242l0.7-0.4l1.6,2.9
	c0.3,0.5,0.4,0.9,0.5,1.3c0,0.4,0,0.7-0.2,1.1c-0.2,0.3-0.5,0.7-1,0.9c-0.5,0.3-0.9,0.4-1.3,0.4s-0.7-0.1-1-0.3
	c-0.3-0.2-0.6-0.6-0.9-1.1l-1.6-2.9l0.7-0.4l1.6,2.9c0.2,0.4,0.5,0.7,0.6,0.9c0.2,0.2,0.4,0.2,0.7,0.2c0.3,0,0.5-0.1,0.8-0.2
	c0.5-0.3,0.8-0.6,0.9-0.9c0.1-0.3,0-0.8-0.4-1.4L416.5,242z M422.3,245.3l-2.4-4.4l-1.6,0.9l-0.3-0.6l3.9-2.2l0.3,0.6l-1.6,0.9
	l2.4,4.4L422.3,245.3z M425.3,243.6l-2.8-5l0.7-0.4l1.1,2l2.6-1.4l-1.1-2l0.7-0.4l2.8,5l-0.7,0.4l-1.3-2.3l-2.6,1.4l1.3,2.3
	L425.3,243.6z M429.2,239.4l0.6-0.4c0.2,0.2,0.3,0.4,0.5,0.5c0.2,0.1,0.4,0.1,0.7,0.1c0.3,0,0.6-0.1,0.8-0.3
	c0.2-0.1,0.5-0.3,0.6-0.5s0.2-0.4,0.3-0.5c0-0.2,0-0.3-0.1-0.5c-0.1-0.2-0.2-0.3-0.4-0.3c-0.2-0.1-0.4-0.1-0.6,0
	c-0.2,0-0.5,0.1-1,0.2c-0.5,0.1-0.9,0.2-1.1,0.2c-0.3,0-0.6,0-0.8-0.2c-0.2-0.1-0.4-0.3-0.5-0.5c-0.1-0.3-0.2-0.5-0.2-0.8
	c0-0.3,0.1-0.6,0.3-0.8c0.2-0.3,0.5-0.5,0.8-0.7c0.4-0.2,0.7-0.3,1.1-0.4s0.7,0,0.9,0.2c0.3,0.1,0.5,0.4,0.7,0.6l-0.6,0.4
	c-0.2-0.3-0.5-0.5-0.7-0.5c-0.3-0.1-0.6,0-1,0.2c-0.4,0.2-0.6,0.5-0.7,0.7c-0.1,0.2-0.1,0.5,0,0.7c0.1,0.2,0.2,0.3,0.4,0.3
	c0.2,0,0.6,0,1.2-0.2c0.6-0.2,1-0.3,1.3-0.3c0.4,0,0.7,0,0.9,0.2c0.2,0.1,0.5,0.3,0.6,0.6c0.1,0.3,0.2,0.6,0.2,0.9
	c0,0.3-0.1,0.6-0.3,0.9c-0.2,0.3-0.5,0.5-0.8,0.7c-0.4,0.2-0.9,0.4-1.2,0.4c-0.4,0-0.7,0-1-0.2C429.6,239.9,429.3,239.7,429.2,239.4
	z M436.2,237.6l-2.4-4.4l-1.6,0.9l-0.3-0.6l3.9-2.2l0.3,0.6l-1.6,0.9l2.4,4.4L436.2,237.6z M439.1,235.9l-2.8-5l2.2-1.2
	c0.4-0.2,0.8-0.4,1.1-0.4c0.3,0,0.6,0,0.8,0.2c0.3,0.1,0.5,0.4,0.6,0.6c0.2,0.4,0.2,0.7,0.2,1.1s-0.4,0.7-0.8,1c0.2,0,0.4,0,0.5,0
	c0.3,0.1,0.6,0.2,0.9,0.4l1.6,0.9l-0.8,0.5l-1.2-0.7c-0.4-0.2-0.6-0.3-0.9-0.4c-0.2-0.1-0.4-0.1-0.5-0.1c-0.1,0-0.3,0-0.4,0
	c-0.1,0-0.2,0.1-0.4,0.2l-0.8,0.4l1.2,2.2L439.1,235.9z M438.3,232.8l1.4-0.8c0.3-0.2,0.5-0.3,0.7-0.5c0.1-0.2,0.2-0.3,0.2-0.5
	c0-0.2,0-0.4-0.1-0.5c-0.1-0.2-0.3-0.4-0.6-0.4c-0.3-0.1-0.6,0-0.9,0.2l-1.6,0.9L438.3,232.8z M443.6,233.4l-0.8-6l0.7-0.4l4.8,3.8
	l-0.7,0.4l-1.4-1.2l-2.1,1.2l0.3,1.8L443.6,233.4z M443.9,230.6l1.7-0.9l-1.3-1.1c-0.4-0.3-0.7-0.6-0.9-0.8c0.1,0.4,0.2,0.7,0.3,1.1
	L443.9,230.6z M448.7,230.6l-2.8-5l0.7-0.4l2.4,4.4l2.4-1.4l0.3,0.6L448.7,230.6z M452.7,228.4l-2.8-5l0.7-0.4l2.8,5L452.7,228.4z
	 M454,227.7l-0.8-6l0.7-0.4l4.8,3.8l-0.7,0.4l-1.4-1.2l-2.1,1.2l0.3,1.8L454,227.7z M454.3,224.8l1.7-0.9l-1.3-1.1
	c-0.4-0.3-0.7-0.6-0.9-0.8c0.1,0.4,0.2,0.7,0.3,1.1L454.3,224.8z M362.5,152.3l1.6-0.9l1.7,3l0,0l-0.6-3.6l1.8-1l0.3,3.8l3.8,3.5
	l-1.8,1l-2.2-2.2l-0.1,0.8l1.1,2l-1.6,0.9L362.5,152.3z M368.6,148.8l2.2-1.3l5.5,6.6l-1.8,1l-0.9-1.2l-1.2,0.7l0.6,1.4l-1.7,0.9
	L368.6,148.8z M371.9,153.2l0.8-0.5l-2.4-3.4l0,0L371.9,153.2z M372.7,146.6l1.9-1l3.8,3.6l0,0l-2.4-4.3l1.6-0.9l4.1,7.4l-1.8,1
	l-3.9-3.8l0,0l2.5,4.5l-1.6,0.9L372.7,146.6z M378.4,143.4l1.7-0.9l4.1,7.4l-1.7,0.9L378.4,143.4z M380.9,142l2.5-1.4
	c1.4-0.8,2.3-0.2,2.9,0.9l2,3.5c0.8,1.3,0.1,2.4-0.8,2.9l-2.5,1.4L380.9,142z M386,147.1l0.3-0.1c0.5-0.3,0.6-0.6,0.4-1l-2-3.6
	c-0.2-0.4-0.6-0.5-1.1-0.2l-0.3,0.1L386,147.1z M386,139.1l2.7-1.5l2.5,3.4l0,0l-1.6-3.9l2.7-1.5l4.1,7.4l-1.6,0.9l-3.2-5.7l0,0
	l2.2,6.2l-1.1,0.6l-4.1-5.2l0,0l3.2,5.7l-1.6,0.9L386,139.1z"/>
</svg>
