<?xml version="1.0" encoding="utf-8"?>
<!-- Generator: Adobe Illustrator 28.2.0, SVG Export Plug-In . SVG Version: 6.00 Build 0)  -->
<svg version="1.1"
	 id="svg1" xmlns:svg="http://www.w3.org/2000/svg" xmlns:sodipodi="http://sodipodi.sourceforge.net/DTD/sodipodi-0.dtd" xmlns:inkscape="http://www.inkscape.org/namespaces/inkscape" sodipodi:docname="Kapowarr.svg"
	 xmlns="http://www.w3.org/2000/svg" xmlns:xlink="http://www.w3.org/1999/xlink" x="0px" y="0px" viewBox="0 0 512 512"
	 style="enable-background:new 0 0 512 512;" xml:space="preserve">
<style type="text/css">
	.st0{fill:#E5E5E5;}
	.st1{fill:#EBC700;}
</style>
<circle class="st0" cx="256" cy="256" r="256"/>
<path d="M331.4,256c0,41.6-33.7,75.4-75.4,75.4c-41.6,0-75.4-33.7-75.4-75.4c0-41.6,33.7-75.4,75.4-75.4
	C297.6,180.6,331.4,214.4,331.4,256z M462,256c0,113.8-92.2,206-206,206S50,369.8,50,256S142.2,50,256,50S462,142.2,462,256z
	 M410.8,256c0-41.3-16.1-80.2-45.3-109.4c-29.2-29.2-68.1-45.3-109.4-45.3s-80.2,16.1-109.4,45.3c-29.2,29.2-45.3,68.1-45.3,109.4
	c0,41.3,16.1,80.2,45.3,109.4c29.2,29.2,68.1,45.3,109.4,45.3s80.2-16.1,109.4-45.3S410.8,297.3,410.8,256z"/>
<path class="st1" d="M256,465c-55.8,0-108.3-21.7-147.8-61.2C68.7,364.3,47,311.8,47,256c0-55.8,21.7-108.3,61.2-147.8
	C147.7,68.7,200.2,47,256,47c55.8,0,108.3,21.7,147.8,61.2c39.5,39.5,61.2,92,61.2,147.8c0,55.8-21.7,108.3-61.2,147.8
	C364.3,443.3,311.8,465,256,465z M256,53C144.1,53,53,144.1,53,256c0,111.9,91.1,203,203,203c111.9,0,203-91.1,203-203
	C459,144.1,367.9,53,256,53z"/>
<path id="path90_00000001636898211650362230000000291305208964288156_" sodipodi:insensitive="true" class="st1" d="M367.6,90.7
	c-0.2-0.1-13.2,16.1-31.1,32.8c-5.4,5-33.3,37.1-36.1,37.1c-12.3,0-5.5-58.3-8-59c-0.1,0-0.2,0-0.3,0.1c-5,5.1-21.5,29.2-24.4,35.5
	c-4,8.6-14.1,17.6-28.5,15c-7.6-1.4-18.4-8.8-22.4-23l-6.4-19.3c-2.8,1.9-10.4,31.3-14.1,37.7c-4.1,7-7.3,19.1-9.3,19.1
	c-0.7,0-7.6-6.1-15.3-13.5c-7.7-7.4-17.1-16-20.9-19.1c-3.8-3.1-8.3-7.4-10-9.7c-1.6-2-2.4-3-2.7-3.2s-0.2,0.6,0.1,2.1
	c0.3,1.7,0.2,4.4-0.3,6.1c-0.7,2.5-0.1,4.6,3.6,12.7c16.8,37.2,6.8,13,15.9,40.3c1.5,4.4-6.8,8.5-16.5,9.3c-9.3,0.8-18.6-1-32.7-6.3
	c-6.3-2.4-15.3-5.8-20.2-7.6c-4.8-1.8-11.8-4.4-15.4-5.8c-3.6-1.4-6.9-2.2-7.2-1.9c-0.3,0.3-0.1,0.9,0.5,1.3
	c1.6,1.1,17.4,12.8,18,13.5c0.3,0.3,6.8,5.6,14.5,11.8c16,12.9,22.1,19.6,25.5,27.7c2.9,6.9,2.9,7.5,0.8,11.5
	c-2.1,4-6.7,5.8-16.7,6.8c-11.2,1.1-44.4,0.6-62.7-0.8c-8.4-0.7-15.5-1-15.8-0.7c-0.9,0.9,15,6.9,29.3,11
	c20.5,5.9,52.8,16.1,58.5,18.5c2.7,1.1,4.9,2.5,4.9,3c0,2.3-5.7,9.1-17.1,20.2L93.5,305c-0.3,0.7,0.1,1.1,0.9,0.8
	c1.7-0.6,30-6.6,31.2-6.6l18.4,10.4c0.8,1.5,0.8,3.8-0.1,8.3c-0.7,3.4-1.4,7.8-1.6,9.8c-0.5,5.4-7.6,19.6-19.7,39.6
	c-6,9.9-11.5,18.9-12.3,20c-1.1,1.5-1.2,2.5-0.4,3.6c0.9,1.2,1,1.3,0.7,0.1c-0.4-1.6,15.3-17,16.9-16.6c0.5,0.1,0.8-0.1,0.7-0.5
	c-0.5-1.6,9.5-10.6,10.8-9.8c0.7,0.4,1,0.4,0.5-0.1c-1.1-1.2,2.3-4.7,3.8-3.9c0.6,0.4,0.8,0.3,0.4-0.2c-0.8-0.9,7.2-9.6,8.8-9.6
	c0.5,0,0,1.3-1.1,2.8c-2.4,3.5-15.8,27.2-15.8,28.1c0,0.3-1.8,3.5-4,7.1c-8.9,14.3-7.7,13.5,17.6-11.1c22.1-21.4,30-28.6,34.7-31.3
	c0.8-0.5,1.9,1,3,4.1c1,2.7,2,5,2.1,5.2s2.9-1.4,6.1-3.5c5.7-3.9,5.9-3.9,7.3-1.9c1.6,2.2,1.4,14.2-0.6,28.5
	c-4.3,31.7-5.5,44.3-6,63.2c-0.4,14-0.2,21,0.5,20.4c0.6-0.6,4.6-12,9-25.5c4.4-13.4,10.2-30.9,12.9-38.7
	c4.8-13.9,14.9-39.8,26.8-50.6l1.6,2.5c3.3,5,7,15.5,7.8,22.6c0.5,4,1.8,13.7,3,21.5c1.1,7.8,2.4,16.7,2.8,19.7c0.4,3,0.9,5.2,1.2,5
	c0.3-0.3,1.6-5.7,3-12c1.4-6.4,3.7-16.2,5-21.8c1.3-5.6,2.7-12,3.1-14.3c0.4-2.2,2.2-6.8,4.1-10c3.4-5.9,3.4-6,1.8-9.9
	c-0.9-2.2-2-4-2.5-4c-1.5,0-8.3,11.1-10.7,17.5c-1.7,4.5-2.4,5.6-2.5,3.8c-0.1-6.5-7.1-21.7-12.6-27.3c-3.8-3.9-10.5-7.2-14.7-7.2
	c-3.9,0-10.7,3.5-12.7,6.6l-1.7,2.5l-1.8-3.3c-2-3.7-6.5-6.7-12.2-8c-9.6-2.2-27.3,5.3-41,17.4c-2.2,2-3.9,3.2-3.6,2.6
	c0.3-0.6,1.5-3.1,2.7-5.7c4-8.3,5.8-17,4.4-21.5c-1.6-5.3-6.3-8.2-12-7.5l-4.2,0.5l0.4-5.3c0.5-6.8-2.7-13.3-8.7-17.4
	c-3.7-2.6-5.5-3-13.6-3.5l-9.3-0.5l4-5.2c4.5-5.9,7.1-12.5,7.1-17.9c0-4.7-4.5-13.6-7.9-15.8l-2.6-1.7l3.3-2.2
	c5.4-3.6,7.5-7.2,8-13.8c0.7-9.3-4.6-19.4-16-30.9c-5.6-5.7-5.7-5.8-2.3-4.4c5.3,2.2,20.3,3.9,26.8,3.1c7.5-0.9,14.5-3.9,18.4-8
	c3.1-3.2,6.4-11,6.4-15.1c0-1.6,0.4-1.9,1.8-1.4c1,0.4,4.2,1.2,7.1,1.8c4.9,1,5.7,0.9,10.9-1.6c6-2.9,10.5-8,13.7-15.5
	c3.3-7.3,6.5-11.7,11.1-19.2c11.4,16.4,19.8,27.8,29.8,27.8c3.7,0,10.4-3.6,13.6-7.3l2.6-3.1l2.6,4.9l2.6,4.9l7.2,0.7
	c4,0.4,9.5,1.6,12.4,2.7c3,1.2,6.7,1.9,9,1.7c6.2-0.6,20.6-10.5,33.2-23c6.1-6.1,11.1-10.9,11.1-10.7s-0.8,1.8-1.7,3.6
	c-1.9,3.7-5,15.3-6.1,22.7l-0.7,4.8h4.2c4,0,4.3-0.2,5.2-3.8c0.6-2.1,1.3-5.7,1.7-7.9c0.4-2.2,2.5-8.7,4.8-14.3l4.1-10.2L367.6,90.7
	z M391.6,141.2c-3.8-0.1-13.8,3-22.7,11.2L342.5,171l-3.3,1.9l5.3,3c10.2,5.7,16,16.9,17.4,33.5c0.7,7.8,0.8,8.1,3.9,9.4
	c3.5,1.5,18.8,1.8,26.8,0.6l4.9-0.7l-2.6,2.8c-4.2,4.4-7.8,12.4-7.8,17.2c0,5.9,1.5,9.3,5.9,13.8l3.7,3.8l-3.7,1.5
	c-8.9,3.6-14.9,12-14,19.4c0.3,2.3,1.3,5.8,2.2,7.7c1.9,3.9,8.8,11.5,13.4,14.7l2.9,2l-6.6,0c-11.6,0.1-18.5,5.7-19.3,15.7
	c-0.3,3.1-0.8,6.1-1.2,6.7c-0.4,0.6-0.5,2.7-0.3,4.8c0.5,3.7,0.6,3.8,6.1,4.5c3.1,0.4,5.8,0.5,6,0.3s0-2.4-0.6-4.8
	c-0.6-2.4-0.8-4.6-0.7-4.8c0.9-0.8,12.1,7,11.5,8c-0.4,0.7-0.2,0.8,0.5,0.4l61.1,41.7c1.8-1.1,24.5,21,10.9,3.6
	c-2-2.6-4.8-6.3-6.2-8.3l-20.7-23.5c0.3-0.5,0-0.7-0.8-0.4c-0.8,0.3-6.8-4.7-13.9-11.5c-6.9-6.6-14.9-14.2-17.8-16.9
	c-2.9-2.7-5.3-5.1-5.3-5.5c0-0.3,1.7-0.3,3.9,0.1c2.1,0.4,11.5,1.9,20.7,3.5c9.3,1.6,16.7,2.7,16.5,2.6c-1.7-1.7-14.4-9.4-32.8-20
	c-10.4-6-21.1-15.8-20.5-18.8c0.6-3.1,7.2-1.6,6.8-5.7c-0.2-1.5,6.7-9,0.4-3.4c-1.5,1.3-2.2,1.5-2.8,0.5c-0.5-0.8,0.1-2,1.5-3.1
	c2.3-1.9,17.6-8,20-8.1c0.7,0-0.5-1.6-2.8-3.4l-4.1-3.4l9.3-1.2c5.1-0.6,11.1-1.4,13.4-1.7c2.3-0.3,9.7-1,16.6-1.5
	c6.8-0.6,14.7-1.2,17.6-1.5c5.1-0.5,13.5-2.3,15.5-3.4c1.8-1-25.3-5.3-56.7-8.9c-11.8-1.4-22.2-2.8-23-3.3c-1.8-1,1.5-4.3,11.5-11.9
	c21.9-16.5,26-19.5,27.8-20.6c3.9-2.2,0-2.1-7.6,0.2c-33.4,10.3-42.4,12.8-45.2,12.4c-2.3-0.3-2.2-0.5,1.7-5.6
	c2.3-2.9,4.1-5.5,4.1-5.7c0-0.2-1.3-0.7-2.8-1c-1.6-0.3-4.2-1.1-5.9-1.8c-1.7-0.7-3.4-1.2-3.8-1.1c-1.4,0.3-6-6.1-6-8.3
	c0-5.5,6.5-19.8,14.5-31.9c3.2-4.1,3.5-9.5,4.6-14.4C392.5,141.3,392.1,141.2,391.6,141.2L391.6,141.2z M268.3,174.1
	c-1.9,0.1-3.9,0.3-5.9,0.8c-12.3,2.5-16.1,7.5-16.1,21.2l0,7.9l-2.2-4.3c-3.2-6.4-8.1-10-16.7-12.6c-10.1-3-17-2.4-22.3,1.8
	c-5.9,4.7-9.4,10.3-11.5,18.5c-1.5,5.9-2.1,7-2.6,5.1c-0.4-1.3-0.7-3.9-0.7-5.8c0-4.9-1.6-7.1-6-8.3c-12.7-3.5-20.5,0.2-26.9,12.7
	c-4.1,8-5.6,26.2-3.4,39.9c0.6,3.5,1.4,14.1,1.9,23.6c1,19.5,2.4,23.9,9.2,29.8c7.9,6.8,25.3,11.6,32.7,6.3l0.8-37.8
	c-0.3-28.3-0.5-31.7-2.3-35.8c-2.3-5.2-1.9-6.9,0.6-2.2c0.9,1.7,1.9,3.2,2.2,3.2c0.3,0,0.3-2.9,0-6.4c-0.5-5.2-0.4-5.8,0.5-3.3
	c0.6,1.7,1.5,19.3,2,39.2c0.6,23.7,1.4,37.5,2.2,40c3.7,11.2,23.9,17.4,38.1,11.6c9-3.6,9.8-5.4,10.3-22.4
	c0.4-13.9-0.4-23.1-4.4-52.9c-0.7-5.4-0.9-9.6-0.5-9.4s0.9,1.5,0.9,2.7c0,1.2,0.7-0.4,1.4-3.6c0.7-3.2,1.5-6,1.7-6.3
	c0.2-0.2,0.5,6.7,0.5,15.5c0.1,11.8,0.7,19.4,2.4,29.2c1.3,7.4,2.6,19.5,2.9,27.5c0.5,13.1,0.7,14.5,3,17.5
	c2.8,3.7,9.7,8.6,14.3,10.2c4.7,1.7,15.3,1.5,19.8-0.4c5.5-2.3,12.8-7.6,14.7-11.2l-0.1-34.4c-0.4-23.8-0.9-30.2-2.6-37.3
	c-2.7-11.2-3.8-19.4-2.3-17.3c0.6,0.8,1.1,2.8,1.1,4.3c0,5.2,2.1,2.8,2.2-2.5c0.1-2.9,0.4-6.5,0.9-7.9c0.4-1.4,0.7,3.4,0.7,10.7
	c-0.1,9.1,0.5,15.7,1.7,21.1c1,4.3,2.5,17.3,3.4,29c1.9,24.8,2,25.5,5.6,29.3c4.5,4.8,10.2,7.1,18.8,7.6c6.5,0.4,8.5,0.1,12.1-1.7
	c3.6-1.8,10.1-8.2,9.2-9l6.3-11.3c2.5-6.4,2.2-12.6-1.6-31.8c-1.7-8.7-3.9-23.4-4.8-32.6c-2.2-22.6-4.2-32.9-7.9-40.5
	c-5.1-10.5-14.3-15.7-27.9-15.8c-7,0-9.1,0.4-14.1,2.9l-5.9,2.9l0.3,8.7l0.3,8.7l-3.2-5.5C293.5,180.2,281.7,173.4,268.3,174.1
	L268.3,174.1z M344.5,188.6l0.1,2.7c0,1.5,0.8,5.9,1.7,9.7c1,4.2,1.4,8.6,1,11.2c-0.4,2.4-1,4.5-1.4,4.8c-0.4,0.3-0.6-0.8-0.4-2.3
	c0.2-1.5-0.3-6.7-1.2-11.6c-1-5.6-1.2-9.9-0.7-11.7L344.5,188.6z M285.9,189.6c0.4,0,0.9,1.7,1.5,5.1c0.8,4.4,0.9,8.6,0.4,11
	c-1.4,6.2-1.8,5.4-2.3-4C285.1,193.9,285.3,189.5,285.9,189.6z M311.3,191.7l2.2,2.7c2.9,3.5,5.2,9,7,16.5c0.8,3.3,1.2,6.2,1,6.4
	c-0.4,0.4-7.9-17.9-9.5-23.1L311.3,191.7z M230.8,192.7l2.1,2.4c1.2,1.3,2.1,3.8,2.1,5.7c0,1.8-0.7,4.1-1.6,5.2
	c-1.4,1.8-1.5,1.5-0.9-3.2c0.4-3.2,0.2-6.1-0.6-7.6L230.8,192.7z M256.3,193.4c0.7,0.4,1.9,1.8,3,3.8c0.8,1.6,2.7,5.9,4.1,9.6
	s2.4,6.7,2.1,6.7c-0.9,0-5.4-7.8-6.9-12.2c-0.9-2.5-2-5.5-2.4-6.5c-0.3-0.7-0.4-1.2-0.3-1.4C255.9,193.3,256.1,193.3,256.3,193.4
	L256.3,193.4z M203.1,201.1c0.7-0.2,3.4,3.8,5,7.4c2.3,5.3,2.5,8.4,0.4,5.9c-1-1.2-5.5-11.8-5.5-13
	C202.9,201.3,203,201.2,203.1,201.1z M318.2,319c-3.4,0.3-6.1,2-10.3,5.8c-4.8,4.4-11.4,7.5-17.8,8.5c-5.2,0.8-9.5,5.2-9.5,9.6
	c0,3.7,2.7,9.4,5.3,11c1.8,1.1,2,0.9,2-2.4c0-6.9,7.3-18,13.1-19.9c5.3-1.7,13.4-0.3,17.1,2.9c2.7,2.4,3.1,3.7,4.1,11.8
	c0.6,5,1.4,9.5,1.8,9.9c0.4,0.4,3.3,1.4,6.4,2.3c5.3,1.5,18,1.5,19.5,0.1c0.3-0.3,0.5-3.6,0.4-7.3c-0.1-5-0.8-8.1-2.7-12
	c-2.6-5.1-2.6-5.2-0.2-2.3c3.1,3.8,4.7,9.2,4.7,15.8c0,2.9,0.3,5.2,0.6,5.2c0.3,0,2-0.8,3.6-1.7c2.9-1.7,3-2.1,3-9.1
	c0-8.8-1-11.8-5.5-15.9c-2.1-2-2.5-2.7-1.1-1.9c5.9,3.1,10.7,13.8,9,20.4c-0.6,2.4-0.5,2.6,1,1.4c5.2-4.2,6.2-17.3,1.8-26
	c-3-6.1-6.1-7.3-12.9-5c-6.7,2.3-17.7,2.2-26.2-0.2C322.4,319.2,320.2,318.8,318.2,319z M306.4,333.6c-6.1-0.2-8.8,1.7-13.5,9.8
	c-3.2,5.4-3.7,8.6-1.9,11.8c1,1.8,2.3,2,11.9,2h10.8l5-0.2c1-0.2,1.7-1.2,1.6-2.2C318.5,334.8,318,334,306.4,333.6z M361.1,358.2
	c-0.5,0-2.4,0.9-4.4,2c-1.9,1.1-5.7,2.3-8.3,2.7c-2.6,0.4-4.8,0.9-4.8,1.1c0,0.5,13.8,20,22.3,31.5c3.7,5,8.4,11.6,10.4,14.5
	c2,2.9,3.9,5.3,4.2,5.3c0.8,0,0.9,0.3-8.5-26c-4.4-12.3-8.5-24.4-9.1-26.7C362.4,360.1,361.6,358.2,361.1,358.2z M317.1,360.3
	c-3.8,0-8.3,0.3-10.9,0.7l-3.8,0.7c5.9,9.1,5.5,11.6,11,18.8c2.5,3.5,7.5,16.5,6.8,17.6c-0.4,0.6-0.2,0.8,0.3,0.5
	c1.3-0.8,13.2,24.4,12.4,26.3c-0.3,0.8-0.2,1.3,0.3,1c0.5-0.3,1.7,1.4,2.7,3.8c3.9,9.4,2.6-1.9-3.1-27.3c-1.5-6.7-3.4-15.4-4.2-19.4
	c-0.8-3.9-2.1-10.3-3-14.3c-0.9-3.9-1.6-7.5-1.6-7.9C324,360.5,320.9,360.3,317.1,360.3z"/>
<path d="M196.4,463.5c-0.3,0-0.5-0.1-0.8-0.2c-1.4-0.6-2-0.9-1.5-22.2c0.5-19,1.7-31.5,6-63.4c2.1-15.3,1.9-25.6,0.9-27.1
	c-0.1-0.1-0.2-0.3-0.3-0.4c-0.8,0.4-2.6,1.6-4.4,2.8c-1.6,1.1-3.1,2-4.3,2.7c-1.5,0.9-3.2,1.9-4.4,0.4c-0.1-0.2-0.5-0.6-2.4-5.7
	c-0.5-1.4-0.9-2.2-1.2-2.6c-4.7,3.1-13,10.7-33.4,30.5c-7.9,7.7-13.2,12.8-16.8,16.1c-4.9,4.5-6.6,5.8-8.3,4.5
	c-1.8-1.5-0.8-3.3,4.5-11.8c2.2-3.5,3.6-6.1,3.8-6.6c0,0-0.1,0.2-0.1,0.5c0-1.3,5.4-11,10-18.9c-0.3,0-0.7-0.1-1-0.3
	c-0.4,0.2-1.1,0.8-1.4,1.3c0.7,1.2,0,2.1-0.1,2.3c-0.4,0.6-1.2,1-2.6,0.5c-2,1-7.6,6.1-8.6,7.9c0.1,0.7-0.2,1.3-0.6,1.8
	c-0.5,0.5-1.1,0.7-1.9,0.7c-2.6,1.4-13.4,12-15.1,14.8c0.2,0.8,0.2,2-1,2.5c-1.5,0.7-2.5-0.7-3.2-1.6c-1.8-2.6-0.2-5,0.4-5.8
	c0.7-1,5.8-9.2,12.2-19.9c16.8-27.8,19.2-36.4,19.4-38.8c0.2-2,0.9-6.5,1.6-10c0.7-3.4,0.8-5.5,0.5-6.6l-17.3-9.8
	c-4.1,0.7-28.5,5.8-30.2,6.4c-1.6,0.6-2.5-0.1-2.9-0.5c-0.3-0.3-1-1.2-0.5-2.7c0.1-0.3,0.3-0.5,0.5-0.7l11.6-10.9
	c12.6-12.3,15.6-16.7,16.3-18.3c-0.7-0.4-1.9-1.1-3.6-1.8c-5.7-2.4-37.9-12.6-58.3-18.5c-6.6-1.9-13.8-4.3-19.8-6.5
	c-10.3-3.8-10.5-4.7-10.8-5.7c-0.2-0.7,0-1.4,0.5-1.9c0.6-0.6,1.1-1.1,17.3,0.2c18.1,1.4,51.3,1.9,62.3,0.8c10.7-1,13.8-3,15.2-5.7
	c1.8-3.4,1.8-3.4-0.9-9.9c-3.3-7.8-9.3-14.4-24.9-27c-1.4-1.1-13.5-10.9-14.6-12l0,0c-1-0.9-16.2-12.3-17.7-13.2
	c-0.9-0.6-1.4-1.4-1.5-2.3c-0.1-0.7,0.2-1.5,0.7-2c0.6-0.6,1.5-1.5,9.2,1.5c3.6,1.4,10.5,4,15.4,5.8c4.8,1.8,13.9,5.2,20.2,7.6
	c13.9,5.2,22.8,7,31.8,6.2c7.6-0.6,13.1-3.2,14.5-5.4c0.4-0.7,0.4-1.1,0.3-1.4c-3.1-9.3-4-12.6-4.5-14.5c-0.5-2-0.5-2-2.9-7.1
	c-1.5-3.3-4.1-8.9-8.5-18.6c-3.8-8.4-4.6-10.8-3.7-14c0.4-1.4,0.5-3.8,0.2-5.2c-0.4-2.1-0.6-3.1,0.4-4c0.6-0.5,1.3-0.6,2-0.3
	c0.8,0.3,1.3,1,3.5,3.8c1.7,2.1,6.1,6.4,9.7,9.4c3.8,3.1,13.2,11.7,21,19.2c6.7,6.4,11.7,10.9,13.8,12.5c0.8-1.4,2-4.3,2.9-6.6
	c1.5-3.7,3.1-7.8,5-11.1c1.6-2.8,4.2-10.8,6.7-18.5c4.6-14.3,6.2-18.6,8-19.8c0.5-0.3,1.1-0.4,1.7-0.2c0.6,0.2,1,0.6,1.2,1.2
	l6.4,19.3c0,0,0,0.1,0,0.1c3.6,12.9,13.4,20.3,21,21.7c12.8,2.4,22.5-5.3,26.4-13.9c3-6.6,19.7-30.9,24.8-36
	c0.6-0.6,1.4-0.8,2.1-0.6c2.1,0.6,2.1,2.3,1.8,15.6c-0.3,14-0.8,37.5,4.1,42.6c0.5,0.5,0.9,0.6,1.2,0.7c2.8-1.6,15.6-15.6,23.3-24
	c5.3-5.7,9.8-10.7,11.7-12.5c13.8-12.9,24.9-25.7,29-30.5c2.4-2.8,2.4-2.8,3.3-2.8c0.5,0,1,0.1,1.4,0.5c0.6,0.5,0.8,1.4,0.5,2.2
	l-19.6,44.9l-4.1,10.2c-2.4,6-4.4,12-4.7,13.9c-0.4,2.3-1.2,5.9-1.7,8.1c-0.3,1.2-0.7,2.2-1,2.9c0,0,0.1,0,0.1-0.1l3.2-1.9
	l26.2-18.5c9.1-8.3,19.5-11.8,24-11.6c0,0,0,0,0,0c0.9,0,1.5,0.2,2.1,0.5c0.7,0.4,1.1,1.2,0.9,2.1c-0.2,1.1-0.4,2.1-0.6,3.3
	c-0.7,4.1-1.5,8.3-4.3,11.8c-8.4,12.8-14.1,26.2-14.1,30.8c0.1,1.2,3,5.5,4.3,6.4c0.9,0,2.4,0.5,4.3,1.3c1.6,0.6,4.2,1.4,5.6,1.7
	c2.7,0.5,4.4,1.2,4.4,2.9c0,0.6,0,1.1-4.5,6.9c-0.6,0.8-1.4,1.8-1.9,2.5c4.3-0.4,17.5-4.4,43.3-12.3c2.6-0.8,5-1.4,6.7-1.7
	c1.5-0.2,3.9-0.7,4.7,1.2c0.8,2-1.4,3.2-2.4,3.8c-1.7,0.9-6,4.2-27.6,20.4c-6.8,5.1-9.5,7.6-10.6,8.9c3,0.6,10.5,1.6,21.2,2.9
	c14.4,1.7,28.9,3.6,39.7,5.2c18.3,2.8,18.4,3.5,18.7,5c0.2,0.9-0.3,1.7-1,2.2c-2.4,1.3-11.3,3.1-16.2,3.6
	c-2.9,0.3-10.8,0.9-17.6,1.5c-6.8,0.5-14.2,1.2-16.5,1.5c-2.3,0.3-8.3,1.1-13.4,1.7l-4.9,0.6l0.7,0.6c3.9,3.2,3.9,4.5,3.5,5.4
	c-0.3,0.8-1.1,1.4-2,1.4c-1.6,0.1-9.5,3.1-14.6,5.5c1,1.2,0.1,2.5-1,4.1c-0.5,0.7-1.4,2-1.6,2.6c0.2,3.5-3,4.6-4.8,5.1
	c-0.6,0.2-1.8,0.6-2,0.8c0.4,2.1,8.9,10.7,19.6,16.9c7.1,4.1,30.5,17.6,33.2,20.3c0.6,0.6,0.7,1.5,0.4,2.2c-0.6,1.2-1.7,1.1-3.3,0.9
	c-0.8-0.1-2.1-0.3-3.6-0.5c-3.1-0.5-7.3-1.2-11.7-1.9c-8.3-1.4-16.6-2.8-19.8-3.4c0.6,0.6,1.3,1.3,2.1,2c2.9,2.7,11,10.3,17.9,16.9
	c6.6,6.3,11.2,10,12.6,10.9c1.3-0.2,2,0.4,2.3,0.7c0.2,0.3,0.4,0.6,0.5,1l20.1,22.9c0,0.1,0.1,0.1,0.1,0.2c1.4,2,4.1,5.6,6.1,8.2
	c4.6,5.9,5.6,7.7,4.1,9.2c-1.7,1.6-3.5,0.2-9.7-4.7c-2.3-1.8-5.6-4.4-6.8-5c-0.4,0-0.8-0.1-1.1-0.3l-60.3-41.2
	c-0.9,0.1-1.5-0.2-1.8-0.6c-0.3-0.3-0.7-0.9-0.5-1.8c-1.2-1.3-4.8-3.8-7.2-5.2c0.1,0.4,0.2,0.9,0.3,1.5c1.2,5.5,0.6,6.1,0.1,6.6
	c-0.6,0.5-1.1,1.1-7.6,0.2c-5.9-0.7-7.1-1-7.8-6.1c-0.1-0.7-0.5-4.4,0.6-6c0.2-0.5,0.7-2.7,0.9-5.8c0.9-11,8.6-17.3,21.2-17.4l0.7,0
	c-4.7-3.8-10.4-10.3-12.2-14c-1-2.2-2.1-5.8-2.4-8.4c-0.9-8.2,5.6-17.4,15.2-21.4l1.1-0.4l-1.8-1.8c-4.8-4.9-6.5-8.8-6.5-15.2
	c0-4.9,3.2-12.4,7.2-17.3c-7.9,1.1-23.3,0.9-27.4-0.8c-4.3-1.8-4.4-3.4-5.1-11c-1.3-15.9-6.9-26.6-16.4-32l-5.3-3
	c-0.6-0.3-1-1-1-1.6c0-0.2,0-0.4,0.1-0.6c-1,1-2.5,1.3-5.3,1.3h-4.2c-0.6,0-1.1-0.2-1.4-0.7c-0.4-0.4-0.5-1-0.4-1.5l0.7-4.8
	c0.8-5.5,2.7-13.1,4.4-18.4c-1.4,1.3-2.9,2.8-4.5,4.5c-11.3,11.2-26.7,22.8-34.3,23.5c-2,0.2-4.9-0.2-7.7-1.1
	c7,3.1,13,8.6,17.7,16.2l-0.3-9.9c0-0.7,0.4-1.4,1.1-1.8l5.9-2.9c5.3-2.6,7.7-3.1,15-3.1c14.3,0.1,24.2,5.7,29.6,16.8
	c3.8,7.8,5.8,18.2,8.1,41.1c0.9,9.2,3,23.8,4.7,32.4c3.9,19.6,4.2,26,1.5,32.8c0,0.1-0.1,0.2-0.1,0.2l-6,10.7c0,0.1,0,0.2,0,0.3
	c-0.4,2.5-6.6,8.1-10,10c7.1-2.2,11.1-0.5,14.4,6.2c4.8,9.7,3.6,23.5-2.3,28.4c-0.7,0.6-1.8,1.5-3,1.1c-0.3,1.4-0.9,2.4-2,3.2
	c0.9-0.4,1.8-0.7,2.4-0.7c0.7,0,2.3,0,3.8,5.8c0.6,2.3,4.7,14.5,9,26.6l0.3,0.8c3.9,10.9,6,16.9,7.2,20.5c1.4,4.2,1.7,5.3,1,6.3
	c-0.3,0.4-0.8,0.9-1.8,0.9c0,0,0,0,0,0c-0.9,0-1.6,0-5.8-6.2c-2-2.9-6.6-9.4-10.3-14.4c-3.9-5.3-9.4-13-14.4-19.9
	c-8.3-11.7-8.3-11.9-8.3-12.7c0-1.2,0.6-1.8,2.8-2.3c-5.3,0.3-12.1-0.4-14.8-1.1c-2.3-0.6-6.3-1.8-7.2-2.7c-0.1-0.1-0.4-0.4-0.7-1.2
	c-0.4,0.8-1,1.5-1.8,1.9c4.6,0.1,5.8,0.8,5.9,2.5c0.1,0.5,0.6,3.4,1.6,7.6c0.9,3.9,2.2,10.4,3,14.3c0.8,3.9,2.6,12.6,4.2,19.3
	c2.1,9.3,3.7,17.1,4.6,22.4c1.3,7.8,1.2,9.7-0.8,10.4c-2.2,0.7-3.3-2-4.3-4.4c-0.5-1.2-1-2-1.3-2.5c-0.5,0-0.9-0.2-1.3-0.5
	c-0.5-0.4-1.1-1.2-0.6-2.9c-0.4-3-8.4-20.4-11-23.9c-0.7,0-1.2-0.5-1.3-0.6c-0.2-0.3-0.9-1.1-0.3-2.5c-0.3-2.3-4.3-12.8-6.5-15.9
	c-3.1-4-4.4-6.7-5.9-9.7c-1.2-2.4-2.6-5.2-5.2-9.2c-0.3-0.5-0.4-1.2-0.1-1.8c0.3-0.6,0.8-1,1.4-1.1l3.8-0.7c0.2,0,0.4-0.1,0.7-0.1
	h-3.7c-9.7,0-12-0.1-13.6-3c-0.1-0.2-0.2-0.4-0.3-0.5c-0.2,0.2-0.4,0.4-0.7,0.6c-1.3,0.7-2.6-0.1-3.5-0.6c-1.3-0.8-2.6-2.3-3.6-4.1
	c0.9,2.9,0.2,4.3-2.7,9.4c-2,3.4-3.6,7.6-3.9,9.4c-0.4,2.3-1.8,8.8-3.1,14.4c-1.3,5.6-3.6,15.3-5,21.7c-2.7,12.1-3.2,12.6-3.6,13
	c-0.5,0.5-1.3,0.7-2,0.5c-0.9-0.3-1.6-0.6-2.4-6.5c-0.4-3-1.6-11.8-2.8-19.6c-1.2-7.9-2.5-17.5-3-21.6c-0.8-6.7-4.4-17.1-7.5-21.8
	l-0.4-0.6c-10.8,11.2-20,34.8-24.7,48.3c-2.7,7.9-8.5,25.2-12.9,38.7c-3.7,11.3-8.4,25.1-9.5,26.2
	C197.4,463.3,196.9,463.5,196.4,463.5z M201,346.3c1.1,0,2,0.6,3.1,2.1c3.1,4.2,0.4,25.6-0.2,29.9c-4.3,31.7-5.5,44.1-6,62.9
	c-0.1,5.2-0.2,9.1-0.2,11.9c1.5-4.3,3.6-10.3,6-17.6c4.4-13.5,10.2-30.9,12.9-38.7c5-14.5,15.2-40.4,27.3-51.4
	c0.4-0.4,1-0.5,1.5-0.5c0.5,0.1,1,0.4,1.3,0.8l1.6,2.5c3.4,5.2,7.2,16.1,8.1,23.4c0.5,4,1.8,13.6,3,21.5c0.9,5.9,1.8,12.3,2.3,16.4
	c0.3-1.2,0.6-2.5,0.9-4c1.4-6.4,3.7-16.2,5-21.8c1.3-5.5,2.7-11.9,3.1-14.1c0.4-2.5,2.3-7.2,4.3-10.7c1.5-2.6,2.4-4.2,2.6-5.1
	c0.1-0.7-0.1-1.3-0.9-3.1c-0.4-0.8-0.7-1.5-1-2c-2.2,2.8-6.7,10.4-8.6,15.5c-1.6,4.3-2.4,6.2-4.4,5.8c-0.8-0.1-1.8-0.7-1.8-2.7
	c-0.1-6-7-20.8-12-26c-3.5-3.6-9.6-6.6-13.3-6.7c0,0,0,0,0,0c-3.3,0-9.4,3.2-11.1,5.8l-1.7,2.5c-0.4,0.6-1,0.9-1.7,0.8
	c-0.7,0-1.3-0.4-1.6-1l-1.8-3.3c-1.8-3.2-5.9-5.9-11-7.1c-9-2.1-26.2,5.4-39.3,16.9c-3.3,2.9-4.6,3.9-6,2.8c-0.8-0.6-1-1.6-0.6-2.5
	c0.3-0.6,1.5-3.1,2.7-5.7c3.8-7.8,5.5-16.1,4.3-20.1c-1.3-4.4-5.2-6.8-10-6.2l-4.2,0.5c-0.6,0.1-1.1-0.1-1.5-0.5
	c-0.4-0.4-0.6-1-0.6-1.5l0.4-5.3c0.5-6.1-2.5-12-7.9-15.7c-3.2-2.2-4.6-2.7-12.6-3.1l-9.3-0.5c-0.7,0-1.3-0.5-1.6-1.1
	c-0.3-0.6-0.2-1.4,0.2-1.9l4-5.2c4.2-5.5,6.7-11.8,6.7-16.8c0-4-4.1-12.3-7-14.2l-2.6-1.7c-0.5-0.3-0.9-0.9-0.9-1.6s0.3-1.2,0.8-1.6
	l3.3-2.2c5-3.3,6.7-6.3,7.1-12.4c0.6-8.7-4.4-18.4-15.5-29.5c-1.7-1.7-2.9-2.9-3.7-3.8c-0.9-1-2.1-2.3-1.1-3.7c1-1.5,2.6-0.8,4.6,0
	c5,2,19.7,3.8,25.8,3c7.1-0.9,13.7-3.7,17.3-7.4c2.8-2.9,5.9-10.2,5.9-13.8c0-0.7,0-2.2,1.2-3.1c1.2-0.8,2.6-0.3,3.2-0.1
	c0.8,0.3,3.8,1.1,6.8,1.7c4.5,0.9,4.9,0.9,9.7-1.5c5.5-2.7,9.8-7.5,12.8-14.5c2.6-5.7,5-9.5,8-14.3c1-1.6,2-3.2,3.2-5.1
	c0.3-0.5,0.9-0.9,1.6-0.9c0.6,0,1.2,0.3,1.6,0.8c11.7,16.8,19.5,27,28.2,27c2.9,0,9.1-3.1,12.2-6.7l2.6-3.1c0.4-0.5,1-0.7,1.7-0.6
	c0.6,0.1,1.2,0.4,1.5,1l4.7,9l6.2,0.6c4.1,0.4,9.9,1.7,12.9,2.9c2.8,1.1,6.2,1.8,8.1,1.6c5.1-0.5,18.4-9,32-22.5
	c2.9-2.9,5.7-5.6,7.8-7.6c1-1,1.8-1.8,2.4-2.3c1.1-1,1.8-1.7,3-1.2c0.7,0.3,1.2,1,1.2,1.8c0,0.4,0,0.7-1.9,4.4
	c-1.8,3.5-4.8,14.9-5.9,22.2l-0.4,2.7h2c0.8,0,2.3,0,2.6-0.2c0.2-0.2,0.6-1.6,0.8-2.2c0.5-2.1,1.3-5.5,1.7-7.7
	c0.4-2.4,2.6-8.8,4.9-14.7l4.1-10.2l14.8-33.8c-5.6,6.2-13.7,15-23.2,23.9c-1.8,1.7-6.3,6.6-11.5,12.3c-20.2,22-23.8,25.3-25.9,25.3
	c-1.6,0-3-0.6-4.2-1.9c-5.6-5.8-5.7-24.7-5.2-45.4c0.1-3.3,0.2-6.9,0.1-9.5c-6.4,8-19.1,26.7-21.6,32.1c-4,8.7-13.1,16.6-25.2,16.6
	c-1.7,0-3.5-0.2-5.4-0.5c-8.6-1.6-19.8-9.9-23.9-24.3l-5-15.1c-1.5,3.7-3.4,9.8-5,14.7c-2.7,8.3-5.2,16.1-7,19.3
	c-1.7,3-3.3,7-4.8,10.6c-2.5,6.3-3.8,9.5-6.2,9.5c-0.7,0-2,0-16.6-14c-7.7-7.4-17-15.9-20.8-19c-3.3-2.7-7.1-6.3-9.3-8.8
	c-0.1,1.2-0.2,2.3-0.5,3.3c-0.5,1.9,0,3.7,3.5,11.4c4.4,9.7,6.9,15.2,8.5,18.6c2.4,5.2,2.5,5.3,3.1,7.7c0.5,1.8,1.4,5.1,4.4,14.3
	c0.5,1.6,0.3,3.2-0.7,4.7c-2.4,3.6-9.2,6.4-17.4,7.1c-9.5,0.8-19.2-1.1-33.5-6.4c-6.3-2.4-15.3-5.8-20.2-7.6
	c-4.5-1.7-10.8-4-14.6-5.5c5,3.7,11.6,8.7,12.4,9.4l0,0c0.5,0.5,6.4,5.3,14.4,11.7c16.2,13.1,22.5,20,26.1,28.5
	c3,7.1,3.2,8.4,0.8,13.1c-2.4,4.6-7.4,6.7-18.2,7.8c-11.2,1.1-44.7,0.6-63-0.8c-2.7-0.2-5-0.4-7.1-0.5c5.4,2.1,13.3,4.8,21.2,7.1
	c20.5,5.9,52.9,16.2,58.7,18.6c6.1,2.5,6.1,4,6.1,4.8c0,2.2-2.1,6.3-17.7,21.5l-7.8,7.4c8.6-1.9,25.5-5.6,27.1-5.6
	c0.3,0,0.7,0.1,0.9,0.2l18.4,10.4c0.3,0.2,0.6,0.4,0.7,0.7c1.1,2,1.1,4.5,0.1,9.6c-0.7,3.3-1.4,7.7-1.6,9.6
	c-0.8,7.7-12.8,28.6-20,40.4c-2.6,4.3-5.4,8.9-7.7,12.6c5.8-5.8,8.5-7.7,9.9-8.3c0.9-2.3,4.1-5.3,7-7.7c1.8-1.5,3.1-2.3,4.1-2.7
	c0.2-0.6,0.5-1.1,1-1.8c0.9-1.2,2.2-2.2,3.6-2.4c1.4-2.4,7.7-9.8,10.4-9.8c0.8,0,1.5,0.4,1.8,1.1c0.4,0.8,0.6,1.9-1.4,4.7
	c-2.4,3.4-14.7,25.4-15.5,27.5c-0.2,0.7-1,2.4-4.3,7.7c-0.3,0.4-0.6,1-1,1.7c4.3-4,10.2-9.7,15.7-15.1c22.3-21.7,30.1-28.8,35-31.6
	c0.6-0.4,1.4-0.4,2.1-0.2c1.4,0.5,2.4,2.1,3.7,5.3c0.5,1.4,1,2.5,1.3,3.4c1-0.6,2.4-1.4,4.1-2.6C197.5,347.7,199.4,346.3,201,346.3z
	 M334.8,424.6c0.2,0.2,0.4,0.4,0.7,0.6c-0.8-4.6-2.2-11.7-4.6-22.3c-1.5-6.8-3.4-15.5-4.2-19.4c-0.8-3.9-2.1-10.3-3-14.2
	c-0.2-0.9-1-4.7-1.4-6.9c-0.9-0.1-2.7-0.2-5.3-0.2l0,0c-4.1,0-8.3,0.3-10.5,0.7l-1.1,0.2c1.8,3,2.9,5.2,3.9,7.2
	c1.5,3,2.7,5.4,5.6,9.2c1.5,2.1,3.5,6.6,4.9,10.2c1.7,4.3,2.3,6.5,2.4,7.8c2,1.8,6.3,10.9,7.6,13.7
	C333.8,419.9,334.7,423.2,334.8,424.6z M331,424.8L331,424.8L331,424.8z M332.2,424.4C332.2,424.4,332.2,424.4,332.2,424.4
	C332.2,424.4,332.2,424.4,332.2,424.4z M379,415C379,415,379,415,379,415S379,415,379,415z M346.6,365c3.6,5.3,13.8,19.7,20.9,29.2
	c2.8,3.9,6.2,8.6,8.6,11.9c-1.3-3.7-3.1-8.7-5.5-15.4l-0.3-0.8c-4.4-12.4-8.5-24.5-9.1-26.9c-0.3-1.1-0.6-2-0.8-2.5
	c-0.7,0.3-1.6,0.8-2.7,1.4c-2.2,1.2-6.1,2.5-9,2.9C347.9,364.8,347.2,364.9,346.6,365z M137.5,381.4L137.5,381.4L137.5,381.4z
	 M454.8,372.1c1.4,0.2,3.5,1.7,7.6,5c-1.8-2.3-3.7-4.9-4.8-6.5l-20.4-23.2c-1.5-0.4-5-2.7-14.7-11.9c-6.9-6.6-14.9-14.2-17.8-16.8
	c-5.9-5.4-5.9-6.1-5.9-6.9c0-0.6,0.3-1.1,0.7-1.5c0.4-0.3,1.2-1,5.4-0.3c2.1,0.4,11.5,1.9,20.7,3.5c3.1,0.5,5.9,1,8.2,1.4
	c-5.4-3.3-13.9-8.4-25.8-15.3c-8.2-4.7-22.4-15.7-21.4-20.8c0.5-2.5,2.9-3.2,4.6-3.8c2.2-0.7,2.2-0.9,2.1-1.3c0-0.2,0-0.4,0-0.6
	c0,0,0,0,0,0c-0.9-0.1-1.6-0.6-2.1-1.5c-1-1.6-0.3-3.8,1.9-5.6c2-1.6,12.4-6.1,18.1-7.8c-0.3-0.2-0.5-0.5-0.9-0.8l-4.1-3.4
	c-0.6-0.5-0.8-1.3-0.6-2c0.2-0.7,0.8-1.3,1.6-1.4l9.3-1.2c5.1-0.6,11.1-1.4,13.4-1.7c2.3-0.3,9.8-1,16.6-1.5
	c6.8-0.5,14.7-1.2,17.6-1.5c2.6-0.2,6-0.8,8.9-1.5c-9.1-1.7-27.8-4.4-50.1-7c-3.7-0.4-22-2.6-23.7-3.5c-0.8-0.5-1.4-1.3-1.4-2.2
	c-0.2-2.1,1.7-4.6,12.7-12.9c12.7-9.6,19.4-14.6,23.2-17.4c-0.4,0.1-0.8,0.2-1.3,0.4c-36.6,11.3-43,12.9-46,12.5
	c-1-0.1-2.4-0.3-3-1.7c-0.7-1.6,0.3-2.8,3.5-7c1.1-1.5,2.1-2.7,2.7-3.6c-0.1,0-0.2,0-0.3-0.1c-1.7-0.3-4.5-1.2-6.3-1.9
	c-1.5-0.6-2.6-0.9-3-1c-1.2,0.1-2.1-0.7-2.5-1c-1.9-1.6-5.6-6.5-5.6-9.2c0-5.9,6.5-20.4,14.8-32.9c0,0,0.1-0.1,0.1-0.1
	c2.2-2.8,2.9-6.4,3.6-10.2c0.1-0.4,0.2-0.9,0.2-1.3c-3.9,0.4-12.6,3.5-20.4,10.7c-0.1,0.1-0.1,0.1-0.2,0.2l-26.4,18.6
	c0,0-0.1,0.1-0.1,0.1l-0.4,0.3l2.4,1.4c10.7,6,16.9,17.8,18.4,35c0.6,6.9,0.6,6.9,2.7,7.8c2.9,1.2,17.8,1.7,25.8,0.5l4.9-0.7
	c0.8-0.1,1.6,0.3,2,1c0.4,0.7,0.3,1.6-0.3,2.2l-2.6,2.8c-3.8,4-7.2,11.6-7.2,15.9c0,5.3,1.3,8.4,5.4,12.5l3.7,3.8
	c0.4,0.5,0.6,1.1,0.5,1.7c-0.1,0.6-0.6,1.1-1.1,1.4l-3.7,1.5c-8.1,3.3-13.6,10.8-12.9,17.4c0.2,2.1,1.2,5.4,2,7.1
	c1.8,3.6,8.5,10.9,12.8,14l2.9,2c0.7,0.5,1,1.3,0.7,2.1c-0.2,0.8-1,1.3-1.8,1.3l-6.6,0c-7.4,0-16.5,2.5-17.4,13.9
	c-0.1,1.4-0.5,6-1.5,7.5c-0.1,0.4-0.2,1.9,0,3.5c0.1,0.7,0.2,1.9,0.4,2.1c0.3,0.3,2.3,0.5,4.1,0.7c1.6,0.2,2.9,0.3,3.9,0.4
	c-0.1-0.7-0.3-1.6-0.5-2.6c-1.2-5.5-0.7-6-0.1-6.6c1.4-1.3,3.4-0.3,5.9,1.3c1.9,1.1,4.1,2.7,5.7,4c1.1,0.9,2.3,1.8,2.8,2.9
	L454.8,372.1z M126.4,374.3C126.4,374.3,126.4,374.3,126.4,374.3C126.4,374.3,126.4,374.3,126.4,374.3z M130,373.1
	C130,373.1,130,373.1,130,373.1C130,373.1,130,373.1,130,373.1z M235.7,330.9C235.7,330.9,235.7,330.9,235.7,330.9
	c4.8,0,11.9,3.5,16.1,7.8c4.6,4.7,10.1,15.6,12.2,23.4c1.2-3,3.3-7,5.5-10.7c4.4-7.3,5.7-7.3,6.6-7.3c0.6,0,1.6,0,3.1,2.9
	c-0.4-1.4-0.7-2.8-0.7-4c0-5.4,5-10.5,11.1-11.5c6-0.9,12.3-4,16.8-8.1c4.2-3.8,7.4-6,11.5-6.3h0c2.1-0.2,4.4,0.2,7.8,1.1
	c2.5,0.7,5.2,1.2,7.9,1.5c-6.6-1-11.5-3.5-15.4-7.7c-4.1-4.4-4.2-5.8-6.1-30.4c-0.4-5.5-1-11.3-1.6-16.3c0.1,4.3,0.3,9.6,0.4,16.2
	l0.1,34.5c0,0.3-0.1,0.6-0.2,0.9c-2.2,4.1-10,9.8-15.6,12c-4.9,2-16,2.2-21.1,0.4c-5-1.8-12.2-6.9-15.2-10.9
	c-2.7-3.5-2.9-5.6-3.4-18.6c-0.2-4.6-0.7-10.6-1.3-16.3c0.2,4.6,0.2,8.8,0.1,13.4c-0.5,17-1.3,20-11.5,24.1
	c-8.5,3.4-19.8,3-28.8-1.1c-6-2.8-10.2-6.9-11.8-11.6c-0.3-0.8-1-2.9-1.7-21.6l-0.5,24c0,0.6-0.3,1.2-0.8,1.5
	c-8.6,6.2-27.3,0.4-35.1-6.4c-7.4-6.4-8.8-11-9.9-31.1c-0.5-9.5-1.3-20-1.9-23.4c-2.3-14-0.7-32.8,3.6-41.1
	c6.8-13.3,15.5-17.4,29.1-13.6c4.8,1.3,7,3.9,7.3,8.7c2.3-7.8,5.9-13.3,11.7-17.9c5.7-4.6,13.4-5.2,24-2.1c7.9,2.3,13,5.7,16.4,11
	V196c0-14.5,4.4-20.3,17.6-23c2.1-0.4,4.1-0.7,6.1-0.8l0,0c2.5-0.1,4.8,0,7.2,0.3c-1.7-0.3-3.4-0.6-4.8-0.7l-7.2-0.7
	c-0.6-0.1-1.2-0.4-1.5-1l-3.9-7.4l-0.8,1c-3.6,4.2-10.8,8-15,8c-10.8,0-19.7-11.9-29.7-26.3c-0.6,0.9-1.1,1.8-1.7,2.6
	c-3,4.7-5.3,8.4-7.8,13.8c-3.3,7.8-8.3,13.3-14.6,16.4c-5.6,2.7-6.8,2.9-12.2,1.7c-2.2-0.5-5.1-1.2-6.7-1.6
	c-0.3,4.7-3.7,12.4-7,15.8c-4.2,4.3-11.6,7.6-19.5,8.5c-5.5,0.7-16.4-0.4-23.4-2c0,0,0,0,0,0c11.9,11.9,17.3,22.5,16.6,32.4
	c-0.5,7.3-2.8,11.3-8.8,15.3l-0.9,0.6l0.2,0.1c3.9,2.5,8.7,12.1,8.7,17.4c0,5.9-2.7,12.9-7.5,19.1l-1.8,2.4l5.7,0.3
	c8.4,0.5,10.5,1,14.6,3.8c6.5,4.5,10.1,11.6,9.5,19.1l-0.2,3l1.9-0.2c6.7-0.8,12.2,2.6,14.1,8.8c1.4,4.7-0.1,13-3.8,21.4
	c13.7-11.1,30.3-17.6,39.8-15.4c6.2,1.4,11.2,4.7,13.5,8.9l0.3,0.6C223.9,334.6,231.2,330.9,235.7,330.9z M322.1,361
	c0,0.1,0,0.1,0,0.2C322.1,361.2,322.1,361.1,322.1,361z M351.3,359.7c-0.1,0.2-0.2,0.3-0.3,0.4c-0.1,0.1-0.3,0.3-0.5,0.4
	c0.5-0.1,1-0.3,1.5-0.4C351.7,360,351.5,359.9,351.3,359.7z M325.3,355c0.9,0.4,2.9,1.1,5.4,1.8c4.6,1.3,14.6,1.3,17.3,0.6
	c0.1-1,0.2-3,0.2-5.9c-0.1-4.7-0.7-7.5-2.5-11.1c-0.7-1.5-1.2-2.5-1.6-3.2c-0.4-0.9-1.2-2.5,0.3-3.5c1.5-1,2.4,0.1,4.2,2.3
	c3.4,4.1,5.2,10,5.2,17c0,1,0,1.9,0.1,2.6c0.4-0.2,0.8-0.4,1.3-0.7c2.1-1.2,2.1-1.2,2.1-7.5c0-8.7-1.1-11-4.8-14.5
	c-1.8-1.6-3.3-3.1-2.2-4.7c0.5-0.7,1.4-1.3,3.2-0.3c5.6,2.9,10,11.3,10.3,18.4c2.2-5.3,1.9-14-1.1-20.2c-2.6-5.3-4.7-6.1-10.6-4
	c-7.1,2.4-18.4,2.4-27.4-0.2c-2.9-0.8-4.8-1.1-6.5-1l0,0c-2.7,0.2-5,1.6-9.2,5.3c-1.1,1-2.3,2-3.6,2.8c5.1-0.1,10.6,1.5,13.7,4.2
	c3.3,2.9,3.8,4.8,4.7,13.1C324.4,350.6,325,353.8,325.3,355z M352.2,356.3C352.2,356.3,352.2,356.3,352.2,356.3
	S352.2,356.3,352.2,356.3z M305.4,335.5c-4.4,0-6.6,1.5-11,8.9c-3.2,5.4-3.1,7.7-1.9,9.9c0.4,0.8,1.7,1,10.2,1h10.8l4.7-0.2
	c0,0,0-0.1,0-0.1c-1.6-19.1-1.6-19.1-12-19.4C306,335.5,305.7,335.5,305.4,335.5z M287.5,352.7L287.5,352.7L287.5,352.7z
	 M293.9,334.4c-1.2,0.3-2.4,0.6-3.6,0.8c-4.3,0.7-7.9,4.2-7.9,7.8c0,2.8,1.8,6.7,3.4,8.6C285.9,346.3,289.6,339.2,293.9,334.4z
	 M380.6,333.2L380.6,333.2C380.6,333.2,380.6,333.2,380.6,333.2z M251.7,225.5c0.2,0,0.5,0,0.7,0.1c1.4,0.6,1.6,0.7,1.7,17.3
	c0.1,11.7,0.7,19.2,2.4,28.9c1.3,7.5,2.6,19.7,2.9,27.8c0.5,13.2,0.7,14,2.6,16.5c2.6,3.4,9.1,8.1,13.5,9.6
	c4.3,1.5,14.3,1.3,18.5-0.3c5-2,11.6-6.9,13.5-9.9l-0.1-33.9c-0.4-23.7-0.9-29.9-2.5-36.9c-4.4-18.6-3-19.2-1.7-19.8
	c0.3-0.1,1.6-0.6,2.7,0.9c0.2-2.1,0.4-4.3,0.8-5.5c0.4-1.4,1.6-1.7,2.2-1.6c1.8,0.3,1.9,2,2,4.9c0.1,2,0.1,4.9,0.1,8
	c-0.1,8.9,0.5,15.4,1.6,20.6c1,4.4,2.5,17.5,3.4,29.2c1.9,24.7,2,24.9,5.1,28.1c4.1,4.4,9.4,6.5,17.5,7c6.5,0.4,8.1,0,11.1-1.5
	c2.9-1.4,7.3-5.7,8.2-7.2c0-0.4,0.1-0.7,0.2-1.1l6.2-11.2c2.3-5.9,1.9-12-1.8-30.6c-1.7-8.8-3.9-23.5-4.8-32.8
	c-2.2-22.4-4.1-32.4-7.7-39.8c-4.8-9.8-13.3-14.6-26.2-14.7c-6.7,0-8.5,0.3-13.3,2.7l-4.8,2.4l0.5,16.1c0,0.9-0.5,1.6-1.4,1.9
	c-0.8,0.2-1.7-0.1-2.2-0.9l-3.2-5.5c-7.3-12.4-18.3-18.9-31.1-18.3l-0.1-1.9l0.1,1.9c-1.8,0.1-3.7,0.3-5.6,0.7
	c-11.4,2.3-14.5,6.5-14.5,19.3l0,7.9c0,0.9-0.6,1.6-1.5,1.8c-0.9,0.2-1.7-0.2-2.1-1l-2.2-4.3c-3-5.9-7.4-9.2-15.5-11.6
	c-9.5-2.8-15.8-2.3-20.6,1.4c-5.6,4.4-8.8,9.6-10.8,17.5c-1.4,5.6-2,7.3-3.9,7.4c-1.1,0-1.9-0.7-2.3-2.2c-0.4-1.5-0.7-4.2-0.7-6.3
	c0-4-1-5.5-4.6-6.5c-11.8-3.2-18.7,0.1-24.7,11.7c-3.9,7.7-5.4,25.4-3.2,38.7c0.6,3.5,1.5,14.2,1.9,23.8c1,19,2.2,23,8.5,28.5
	c7.3,6.3,22.7,10.5,29.6,6.7l0.8-36.7c-0.3-27.7-0.5-31.3-2.2-35c-2.1-4.7-2.2-6.6-0.5-7.4c1.3-0.6,2.3,0.1,3.1,1.2
	c-0.1-1.7-0.2-2.7-0.3-3.5c0-1-0.1-2.7,1.6-3.1c1.8-0.4,2.4,1.4,2.9,2.7c0.9,2.4,1.7,25.1,2.1,39.8c0.8,32.4,1.8,38.4,2.1,39.5
	c1.2,3.7,4.7,7,9.8,9.4c8,3.7,18.2,4.1,25.8,1.1c7.9-3.2,8.6-4,9.1-20.7c0.4-13.7-0.4-23-4.4-52.6c-1.4-10.1-0.6-10.6,0.3-11.2
	c0.5-0.3,1.1-0.4,1.7-0.2c1.3-5.9,1.8-6.4,2.1-6.7C250.7,225.7,251.2,225.5,251.7,225.5z M369.1,322.9
	C369.1,322.9,369.1,322.9,369.1,322.9C369.1,322.9,369.1,322.9,369.1,322.9z M358.5,308.9C358.5,308.9,358.5,308.9,358.5,308.9
	C358.5,308.9,358.5,308.9,358.5,308.9z M390.2,279.3C390.2,279.3,390.2,279.3,390.2,279.3L390.2,279.3z M249.5,239.5
	c0.1,1.2,0.3,2.6,0.5,4.2c0.1,0.8,0.2,1.6,0.3,2.4c0-1,0-2,0-3.1c0-1.5,0-2.8,0-4.1C250,239.1,249.8,239.3,249.5,239.5z
	 M306.7,235.8c0.2,0.8,0.3,1.7,0.5,2.6c0-0.9-0.1-1.8-0.1-2.8C307.1,235.7,306.9,235.8,306.7,235.8z M253.3,228.4L253.3,228.4
	L253.3,228.4z M379.7,197.9L379.7,197.9L379.7,197.9z M379.3,194.2C379.3,194.2,379.3,194.2,379.3,194.2
	C379.3,194.2,379.3,194.2,379.3,194.2z M299.9,158.8L299.9,158.8L299.9,158.8z M321.5,219.2c-0.2,0-0.3,0-0.5-0.1
	c-1-0.3-1.4-0.4-5.7-10.8c-1.8-4.5-4.3-10.7-5.1-13.6l-0.8-2.5c-0.3-0.9,0.1-1.8,0.9-2.2c0.8-0.4,1.8-0.2,2.4,0.5l2.2,2.7
	c3.1,3.8,5.5,9.4,7.4,17.3c1.7,7,1.1,7.6,0.5,8.2C322.5,219,322,219.2,321.5,219.2z M345.7,219c-0.4,0-0.8-0.1-1.1-0.3
	c-1-0.7-1.3-2-1-4.1c0.2-1-0.2-5.7-1.1-11c-0.8-4.2-1.5-9.9-0.6-12.6l0.9-2.9c0.3-0.9,1.1-1.5,2.1-1.3c0.9,0.1,1.6,0.9,1.6,1.8
	l0.1,2.7c0,1.2,0.7,5.3,1.7,9.3c1.1,4.5,1.4,9.1,1,12c-0.8,5.2-2,5.9-2.3,6.1C346.5,218.9,346.1,219,345.7,219z M347.3,216.3
	L347.3,216.3L347.3,216.3z M344.4,215.8L344.4,215.8L344.4,215.8z M209.6,217.2c-0.7,0-1.6-0.4-2.6-1.6c-1.2-1.4-5.9-12.4-5.9-14.2
	c0-1.3,0.9-2,1.6-2.2c0,0,0,0,0,0c1.5-0.4,2.7,0.8,4.2,3.1c1.1,1.7,2.2,3.6,3,5.4c3.3,7.6,1.7,8.6,0.9,9.1
	C210.4,217.1,210,217.2,209.6,217.2z M265.5,215.5c-1.1,0-2-0.4-4.9-5.4c-1.3-2.2-2.9-5.5-3.8-8.1c-0.9-2.5-2-5.4-2.4-6.4
	c-0.4-0.9-0.7-2-0.2-3c0.3-0.5,0.7-0.9,1.2-1c0.4-0.1,1.1-0.2,1.8,0.2c0,0,0,0,0,0c1.4,0.8,2.9,2.9,3.7,4.6c0.9,1.6,2.7,6,4.2,9.8
	c2.8,7.3,2.5,7.7,1.9,8.5C266.7,215.1,266.1,215.5,265.5,215.5z M286.6,211.6c-0.1,0-0.1,0-0.2,0c-2.2-0.2-2.3-2.2-2.7-9.8
	c-0.6-12.1,0.2-12.9,0.9-13.5c0.5-0.4,1.1-0.6,1.7-0.5c0,0,0,0,0,0c1.7,0.2,2.2,1.9,3.1,6.6c0.8,4.7,1,9.1,0.4,11.8
	C288.9,209.5,288.4,211.6,286.6,211.6z M232.4,208.9c-0.3,0-0.5-0.1-0.8-0.2c-1.7-0.7-1.5-2.2-1-6.2c0.4-3.2,0.1-5.6-0.4-6.6
	l-1.2-2.4c-0.4-0.9-0.1-1.9,0.6-2.4c0.8-0.5,1.9-0.4,2.5,0.3l2.1,2.4c1.5,1.7,2.6,4.6,2.6,6.9c0,2.2-0.8,5-2,6.4
	C234.4,207.9,233.5,208.9,232.4,208.9z"/>
</svg>
