<svg xmlns="http://www.w3.org/2000/svg" xml:space="preserve" id="kapowarr_svg__svg1" x="0" y="0" version="1.1" viewBox="0 0 512 512"><style>.kapowarr_svg__st1{fill:#ebc700}</style><circle cx="256" cy="256" r="256" style="fill:#e5e5e5"/><path d="M331.4 256c0 41.6-33.7 75.4-75.4 75.4-41.6 0-75.4-33.7-75.4-75.4 0-41.6 33.7-75.4 75.4-75.4 41.6 0 75.4 33.8 75.4 75.4m130.6 0c0 113.8-92.2 206-206 206S50 369.8 50 256 142.2 50 256 50s206 92.2 206 206m-51.2 0c0-41.3-16.1-80.2-45.3-109.4s-68.1-45.3-109.4-45.3-80.2 16.1-109.4 45.3-45.3 68.1-45.3 109.4 16.1 80.2 45.3 109.4 68.1 45.3 109.4 45.3 80.2-16.1 109.4-45.3 45.3-68.1 45.3-109.4"/><path d="M256 465c-55.8 0-108.3-21.7-147.8-61.2S47 311.8 47 256s21.7-108.3 61.2-147.8S200.2 47 256 47s108.3 21.7 147.8 61.2S465 200.2 465 256s-21.7 108.3-61.2 147.8S311.8 465 256 465m0-412C144.1 53 53 144.1 53 256s91.1 203 203 203 203-91.1 203-203S367.9 53 256 53" class="kapowarr_svg__st1"/><path id="kapowarr_svg__path90_00000001636898211650362230000000291305208964288156_" d="M367.6 90.7c-.2-.1-13.2 16.1-31.1 32.8-5.4 5-33.3 37.1-36.1 37.1-12.3 0-5.5-58.3-8-59-.1 0-.2 0-.3.1-5 5.1-21.5 29.2-24.4 35.5-4 8.6-14.1 17.6-28.5 15-7.6-1.4-18.4-8.8-22.4-23l-6.4-19.3c-2.8 1.9-10.4 31.3-14.1 37.7-4.1 7-7.3 19.1-9.3 19.1-.7 0-7.6-6.1-15.3-13.5s-17.1-16-20.9-19.1-8.3-7.4-10-9.7c-1.6-2-2.4-3-2.7-3.2s-.2.6.1 2.1c.3 1.7.2 4.4-.3 6.1-.7 2.5-.1 4.6 3.6 12.7 16.8 37.2 6.8 13 15.9 40.3 1.5 4.4-6.8 8.5-16.5 9.3-9.3.8-18.6-1-32.7-6.3-6.3-2.4-15.3-5.8-20.2-7.6-4.8-1.8-11.8-4.4-15.4-5.8s-6.9-2.2-7.2-1.9-.1.9.5 1.3c1.6 1.1 17.4 12.8 18 13.5.3.3 6.8 5.6 14.5 11.8 16 12.9 22.1 19.6 25.5 27.7 2.9 6.9 2.9 7.5.8 11.5s-6.7 5.8-16.7 6.8c-11.2 1.1-44.4.6-62.7-.8-8.4-.7-15.5-1-15.8-.7-.9.9 15 6.9 29.3 11 20.5 5.9 52.8 16.1 58.5 18.5 2.7 1.1 4.9 2.5 4.9 3 0 2.3-5.7 9.1-17.1 20.2L93.5 305c-.3.7.1 1.1.9.8 1.7-.6 30-6.6 31.2-6.6l18.4 10.4c.8 1.5.8 3.8-.1 8.3-.7 3.4-1.4 7.8-1.6 9.8-.5 5.4-7.6 19.6-19.7 39.6-6 9.9-11.5 18.9-12.3 20-1.1 1.5-1.2 2.5-.4 3.6.9 1.2 1 1.3.7.1-.4-1.6 15.3-17 16.9-16.6.5.1.8-.1.7-.5-.5-1.6 9.5-10.6 10.8-9.8.7.4 1 .4.5-.1-1.1-1.2 2.3-4.7 3.8-3.9.6.4.8.3.4-.2-.8-.9 7.2-9.6 8.8-9.6.5 0 0 1.3-1.1 2.8-2.4 3.5-15.8 27.2-15.8 28.1 0 .3-1.8 3.5-4 7.1-8.9 14.3-7.7 13.5 17.6-11.1 22.1-21.4 30-28.6 34.7-31.3.8-.5 1.9 1 3 4.1 1 2.7 2 5 2.1 5.2s2.9-1.4 6.1-3.5c5.7-3.9 5.9-3.9 7.3-1.9 1.6 2.2 1.4 14.2-.6 28.5-4.3 31.7-5.5 44.3-6 63.2-.4 14-.2 21 .5 20.4.6-.6 4.6-12 9-25.5 4.4-13.4 10.2-30.9 12.9-38.7 4.8-13.9 14.9-39.8 26.8-50.6l1.6 2.5c3.3 5 7 15.5 7.8 22.6.5 4 1.8 13.7 3 21.5 1.1 7.8 2.4 16.7 2.8 19.7s.9 5.2 1.2 5c.3-.3 1.6-5.7 3-12 1.4-6.4 3.7-16.2 5-21.8s2.7-12 3.1-14.3c.4-2.2 2.2-6.8 4.1-10 3.4-5.9 3.4-6 1.8-9.9-.9-2.2-2-4-2.5-4-1.5 0-8.3 11.1-10.7 17.5-1.7 4.5-2.4 5.6-2.5 3.8-.1-6.5-7.1-21.7-12.6-27.3-3.8-3.9-10.5-7.2-14.7-7.2-3.9 0-10.7 3.5-12.7 6.6l-1.7 2.5-1.8-3.3c-2-3.7-6.5-6.7-12.2-8-9.6-2.2-27.3 5.3-41 17.4-2.2 2-3.9 3.2-3.6 2.6s1.5-3.1 2.7-5.7c4-8.3 5.8-17 4.4-21.5-1.6-5.3-6.3-8.2-12-7.5l-4.2.5.4-5.3c.5-6.8-2.7-13.3-8.7-17.4-3.7-2.6-5.5-3-13.6-3.5l-9.3-.5 4-5.2c4.5-5.9 7.1-12.5 7.1-17.9 0-4.7-4.5-13.6-7.9-15.8l-2.6-1.7 3.3-2.2c5.4-3.6 7.5-7.2 8-13.8.7-9.3-4.6-19.4-16-30.9-5.6-5.7-5.7-5.8-2.3-4.4 5.3 2.2 20.3 3.9 26.8 3.1 7.5-.9 14.5-3.9 18.4-8 3.1-3.2 6.4-11 6.4-15.1 0-1.6.4-1.9 1.8-1.4 1 .4 4.2 1.2 7.1 1.8 4.9 1 5.7.9 10.9-1.6 6-2.9 10.5-8 13.7-15.5 3.3-7.3 6.5-11.7 11.1-19.2 11.4 16.4 19.8 27.8 29.8 27.8 3.7 0 10.4-3.6 13.6-7.3l2.6-3.1 2.6 4.9 2.6 4.9 7.2.7c4 .4 9.5 1.6 12.4 2.7 3 1.2 6.7 1.9 9 1.7 6.2-.6 20.6-10.5 33.2-23 6.1-6.1 11.1-10.9 11.1-10.7s-.8 1.8-1.7 3.6c-1.9 3.7-5 15.3-6.1 22.7l-.7 4.8h4.2c4 0 4.3-.2 5.2-3.8.6-2.1 1.3-5.7 1.7-7.9s2.5-8.7 4.8-14.3l4.1-10.2zm24 50.5c-3.8-.1-13.8 3-22.7 11.2L342.5 171l-3.3 1.9 5.3 3c10.2 5.7 16 16.9 17.4 33.5.7 7.8.8 8.1 3.9 9.4 3.5 1.5 18.8 1.8 26.8.6l4.9-.7-2.6 2.8c-4.2 4.4-7.8 12.4-7.8 17.2 0 5.9 1.5 9.3 5.9 13.8l3.7 3.8-3.7 1.5c-8.9 3.6-14.9 12-14 19.4.3 2.3 1.3 5.8 2.2 7.7 1.9 3.9 8.8 11.5 13.4 14.7l2.9 2h-6.6c-11.6.1-18.5 5.7-19.3 15.7-.3 3.1-.8 6.1-1.2 6.7s-.5 2.7-.3 4.8c.5 3.7.6 3.8 6.1 4.5 3.1.4 5.8.5 6 .3s0-2.4-.6-4.8-.8-4.6-.7-4.8c.9-.8 12.1 7 11.5 8-.4.7-.2.8.5.4l61.1 41.7c1.8-1.1 24.5 21 10.9 3.6-2-2.6-4.8-6.3-6.2-8.3L438 345.9c.3-.5 0-.7-.8-.4s-6.8-4.7-13.9-11.5c-6.9-6.6-14.9-14.2-17.8-16.9s-5.3-5.1-5.3-5.5c0-.3 1.7-.3 3.9.1 2.1.4 11.5 1.9 20.7 3.5 9.3 1.6 16.7 2.7 16.5 2.6-1.7-1.7-14.4-9.4-32.8-20-10.4-6-21.1-15.8-20.5-18.8.6-3.1 7.2-1.6 6.8-5.7-.2-1.5 6.7-9 .4-3.4-1.5 1.3-2.2 1.5-2.8.5-.5-.8.1-2 1.5-3.1 2.3-1.9 17.6-8 20-8.1.7 0-.5-1.6-2.8-3.4l-4.1-3.4 9.3-1.2c5.1-.6 11.1-1.4 13.4-1.7s9.7-1 16.6-1.5c6.8-.6 14.7-1.2 17.6-1.5 5.1-.5 13.5-2.3 15.5-3.4 1.8-1-25.3-5.3-56.7-8.9-11.8-1.4-22.2-2.8-23-3.3-1.8-1 1.5-4.3 11.5-11.9 21.9-16.5 26-19.5 27.8-20.6 3.9-2.2 0-2.1-7.6.2-33.4 10.3-42.4 12.8-45.2 12.4-2.3-.3-2.2-.5 1.7-5.6 2.3-2.9 4.1-5.5 4.1-5.7s-1.3-.7-2.8-1c-1.6-.3-4.2-1.1-5.9-1.8s-3.4-1.2-3.8-1.1c-1.4.3-6-6.1-6-8.3 0-5.5 6.5-19.8 14.5-31.9 3.2-4.1 3.5-9.5 4.6-14.4-.1.1-.5 0-1 0m-123.3 32.9c-1.9.1-3.9.3-5.9.8-12.3 2.5-16.1 7.5-16.1 21.2v7.9l-2.2-4.3c-3.2-6.4-8.1-10-16.7-12.6-10.1-3-17-2.4-22.3 1.8-5.9 4.7-9.4 10.3-11.5 18.5-1.5 5.9-2.1 7-2.6 5.1-.4-1.3-.7-3.9-.7-5.8 0-4.9-1.6-7.1-6-8.3-12.7-3.5-20.5.2-26.9 12.7-4.1 8-5.6 26.2-3.4 39.9.6 3.5 1.4 14.1 1.9 23.6 1 19.5 2.4 23.9 9.2 29.8 7.9 6.8 25.3 11.6 32.7 6.3l.8-37.8c-.3-28.3-.5-31.7-2.3-35.8-2.3-5.2-1.9-6.9.6-2.2.9 1.7 1.9 3.2 2.2 3.2s.3-2.9 0-6.4c-.5-5.2-.4-5.8.5-3.3.6 1.7 1.5 19.3 2 39.2.6 23.7 1.4 37.5 2.2 40 3.7 11.2 23.9 17.4 38.1 11.6 9-3.6 9.8-5.4 10.3-22.4.4-13.9-.4-23.1-4.4-52.9-.7-5.4-.9-9.6-.5-9.4s.9 1.5.9 2.7.7-.4 1.4-3.6 1.5-6 1.7-6.3c.2-.2.5 6.7.5 15.5.1 11.8.7 19.4 2.4 29.2 1.3 7.4 2.6 19.5 2.9 27.5.5 13.1.7 14.5 3 17.5 2.8 3.7 9.7 8.6 14.3 10.2 4.7 1.7 15.3 1.5 19.8-.4 5.5-2.3 12.8-7.6 14.7-11.2l-.1-34.4c-.4-23.8-.9-30.2-2.6-37.3-2.7-11.2-3.8-19.4-2.3-17.3.6.8 1.1 2.8 1.1 4.3 0 5.2 2.1 2.8 2.2-2.5.1-2.9.4-6.5.9-7.9.4-1.4.7 3.4.7 10.7-.1 9.1.5 15.7 1.7 21.1 1 4.3 2.5 17.3 3.4 29 1.9 24.8 2 25.5 5.6 29.3 4.5 4.8 10.2 7.1 18.8 7.6 6.5.4 8.5.1 12.1-1.7s10.1-8.2 9.2-9l6.3-11.3c2.5-6.4 2.2-12.6-1.6-31.8-1.7-8.7-3.9-23.4-4.8-32.6-2.2-22.6-4.2-32.9-7.9-40.5-5.1-10.5-14.3-15.7-27.9-15.8-7 0-9.1.4-14.1 2.9l-5.9 2.9.3 8.7.3 8.7-3.2-5.5c-7.6-13-19.4-19.8-32.8-19.1m76.2 14.5.1 2.7c0 1.5.8 5.9 1.7 9.7 1 4.2 1.4 8.6 1 11.2-.4 2.4-1 4.5-1.4 4.8s-.6-.8-.4-2.3-.3-6.7-1.2-11.6c-1-5.6-1.2-9.9-.7-11.7zm-58.6 1q.6 0 1.5 5.1c.8 4.4.9 8.6.4 11-1.4 6.2-1.8 5.4-2.3-4-.4-7.8-.2-12.2.4-12.1m25.4 2.1 2.2 2.7c2.9 3.5 5.2 9 7 16.5.8 3.3 1.2 6.2 1 6.4-.4.4-7.9-17.9-9.5-23.1zm-80.5 1 2.1 2.4c1.2 1.3 2.1 3.8 2.1 5.7 0 1.8-.7 4.1-1.6 5.2-1.4 1.8-1.5 1.5-.9-3.2.4-3.2.2-6.1-.6-7.6zm25.5.7c.7.4 1.9 1.8 3 3.8.8 1.6 2.7 5.9 4.1 9.6s2.4 6.7 2.1 6.7c-.9 0-5.4-7.8-6.9-12.2-.9-2.5-2-5.5-2.4-6.5-.3-.7-.4-1.2-.3-1.4 0-.1.2-.1.4 0m-53.2 7.7c.7-.2 3.4 3.8 5 7.4 2.3 5.3 2.5 8.4.4 5.9-1-1.2-5.5-11.8-5.5-13-.1-.1 0-.2.1-.3M318.2 319c-3.4.3-6.1 2-10.3 5.8-4.8 4.4-11.4 7.5-17.8 8.5-5.2.8-9.5 5.2-9.5 9.6 0 3.7 2.7 9.4 5.3 11 1.8 1.1 2 .9 2-2.4 0-6.9 7.3-18 13.1-19.9 5.3-1.7 13.4-.3 17.1 2.9 2.7 2.4 3.1 3.7 4.1 11.8.6 5 1.4 9.5 1.8 9.9s3.3 1.4 6.4 2.3c5.3 1.5 18 1.5 19.5.1.3-.3.5-3.6.4-7.3-.1-5-.8-8.1-2.7-12-2.6-5.1-2.6-5.2-.2-2.3 3.1 3.8 4.7 9.2 4.7 15.8 0 2.9.3 5.2.6 5.2s2-.8 3.6-1.7c2.9-1.7 3-2.1 3-9.1 0-8.8-1-11.8-5.5-15.9-2.1-2-2.5-2.7-1.1-1.9 5.9 3.1 10.7 13.8 9 20.4-.6 2.4-.5 2.6 1 1.4 5.2-4.2 6.2-17.3 1.8-26-3-6.1-6.1-7.3-12.9-5-6.7 2.3-17.7 2.2-26.2-.2-3-.8-5.2-1.2-7.2-1m-11.8 14.6c-6.1-.2-8.8 1.7-13.5 9.8-3.2 5.4-3.7 8.6-1.9 11.8 1 1.8 2.3 2 11.9 2h10.8l5-.2c1-.2 1.7-1.2 1.6-2.2-1.8-20-2.3-20.8-13.9-21.2m54.7 24.6c-.5 0-2.4.9-4.4 2-1.9 1.1-5.7 2.3-8.3 2.7s-4.8.9-4.8 1.1c0 .5 13.8 20 22.3 31.5 3.7 5 8.4 11.6 10.4 14.5s3.9 5.3 4.2 5.3c.8 0 .9.3-8.5-26-4.4-12.3-8.5-24.4-9.1-26.7-.5-2.5-1.3-4.4-1.8-4.4m-44 2.1c-3.8 0-8.3.3-10.9.7l-3.8.7c5.9 9.1 5.5 11.6 11 18.8 2.5 3.5 7.5 16.5 6.8 17.6-.4.6-.2.8.3.5 1.3-.8 13.2 24.4 12.4 26.3-.3.8-.2 1.3.3 1s1.7 1.4 2.7 3.8c3.9 9.4 2.6-1.9-3.1-27.3-1.5-6.7-3.4-15.4-4.2-19.4-.8-3.9-2.1-10.3-3-14.3-.9-3.9-1.6-7.5-1.6-7.9 0-.3-3.1-.5-6.9-.5" class="kapowarr_svg__st1"/><path d="M196.4 463.5c-.3 0-.5-.1-.8-.2-1.4-.6-2-.9-1.5-22.2.5-19 1.7-31.5 6-63.4 2.1-15.3 1.9-25.6.9-27.1-.1-.1-.2-.3-.3-.4-.8.4-2.6 1.6-4.4 2.8-1.6 1.1-3.1 2-4.3 2.7-1.5.9-3.2 1.9-4.4.4-.1-.2-.5-.6-2.4-5.7-.5-1.4-.9-2.2-1.2-2.6-4.7 3.1-13 10.7-33.4 30.5-7.9 7.7-13.2 12.8-16.8 16.1-4.9 4.5-6.6 5.8-8.3 4.5-1.8-1.5-.8-3.3 4.5-11.8 2.2-3.5 3.6-6.1 3.8-6.6 0 0-.1.2-.1.5 0-1.3 5.4-11 10-18.9-.3 0-.7-.1-1-.3-.4.2-1.1.8-1.4 1.3.7 1.2 0 2.1-.1 2.3-.4.6-1.2 1-2.6.5-2 1-7.6 6.1-8.6 7.9.1.7-.2 1.3-.6 1.8-.5.5-1.1.7-1.9.7-2.6 1.4-13.4 12-15.1 14.8.2.8.2 2-1 2.5-1.5.7-2.5-.7-3.2-1.6-1.8-2.6-.2-5 .4-5.8.7-1 5.8-9.2 12.2-19.9 16.8-27.8 19.2-36.4 19.4-38.8.2-2 .9-6.5 1.6-10 .7-3.4.8-5.5.5-6.6l-17.3-9.8c-4.1.7-28.5 5.8-30.2 6.4-1.6.6-2.5-.1-2.9-.5-.3-.3-1-1.2-.5-2.7.1-.3.3-.5.5-.7l11.6-10.9c12.6-12.3 15.6-16.7 16.3-18.3-.7-.4-1.9-1.1-3.6-1.8-5.7-2.4-37.9-12.6-58.3-18.5-6.6-1.9-13.8-4.3-19.8-6.5-10.3-3.8-10.5-4.7-10.8-5.7-.2-.7 0-1.4.5-1.9.6-.6 1.1-1.1 17.3.2 18.1 1.4 51.3 1.9 62.3.8 10.7-1 13.8-3 15.2-5.7 1.8-3.4 1.8-3.4-.9-9.9-3.3-7.8-9.3-14.4-24.9-27-1.4-1.1-13.5-10.9-14.6-12-1-.9-16.2-12.3-17.7-13.2-.9-.6-1.4-1.4-1.5-2.3-.1-.7.2-1.5.7-2 .6-.6 1.5-1.5 9.2 1.5 3.6 1.4 10.5 4 15.4 5.8 4.8 1.8 13.9 5.2 20.2 7.6 13.9 5.2 22.8 7 31.8 6.2 7.6-.6 13.1-3.2 14.5-5.4.4-.7.4-1.1.3-1.4-3.1-9.3-4-12.6-4.5-14.5-.5-2-.5-2-2.9-7.1-1.5-3.3-4.1-8.9-8.5-18.6-3.8-8.4-4.6-10.8-3.7-14 .4-1.4.5-3.8.2-5.2-.4-2.1-.6-3.1.4-4 .6-.5 1.3-.6 2-.3.8.3 1.3 1 3.5 3.8 1.7 2.1 6.1 6.4 9.7 9.4 3.8 3.1 13.2 11.7 21 19.2 6.7 6.4 11.7 10.9 13.8 12.5.8-1.4 2-4.3 2.9-6.6 1.5-3.7 3.1-7.8 5-11.1 1.6-2.8 4.2-10.8 6.7-18.5 4.6-14.3 6.2-18.6 8-19.8.5-.3 1.1-.4 1.7-.2q.9.3 1.2 1.2l6.4 19.3v.1c3.6 12.9 13.4 20.3 21 21.7 12.8 2.4 22.5-5.3 26.4-13.9 3-6.6 19.7-30.9 24.8-36 .6-.6 1.4-.8 2.1-.6 2.1.6 2.1 2.3 1.8 15.6-.3 14-.8 37.5 4.1 42.6.5.5.9.6 1.2.7 2.8-1.6 15.6-15.6 23.3-24 5.3-5.7 9.8-10.7 11.7-12.5 13.8-12.9 24.9-25.7 29-30.5 2.4-2.8 2.4-2.8 3.3-2.8.5 0 1 .1 1.4.5.6.5.8 1.4.5 2.2L349 136.7l-4.1 10.2c-2.4 6-4.4 12-4.7 13.9-.4 2.3-1.2 5.9-1.7 8.1-.3 1.2-.7 2.2-1 2.9 0 0 .1 0 .1-.1l3.2-1.9 26.2-18.5c9.1-8.3 19.5-11.8 24-11.6.9 0 1.5.2 2.1.5.7.4 1.1 1.2.9 2.1-.2 1.1-.4 2.1-.6 3.3-.7 4.1-1.5 8.3-4.3 11.8-8.4 12.8-14.1 26.2-14.1 30.8.1 1.2 3 5.5 4.3 6.4.9 0 2.4.5 4.3 1.3 1.6.6 4.2 1.4 5.6 1.7 2.7.5 4.4 1.2 4.4 2.9 0 .6 0 1.1-4.5 6.9-.6.8-1.4 1.8-1.9 2.5 4.3-.4 17.5-4.4 43.3-12.3 2.6-.8 5-1.4 6.7-1.7 1.5-.2 3.9-.7 4.7 1.2.8 2-1.4 3.2-2.4 3.8-1.7.9-6 4.2-27.6 20.4-6.8 5.1-9.5 7.6-10.6 8.9 3 .6 10.5 1.6 21.2 2.9 14.4 1.7 28.9 3.6 39.7 5.2 18.3 2.8 18.4 3.5 18.7 5 .2.9-.3 1.7-1 2.2-2.4 1.3-11.3 3.1-16.2 3.6-2.9.3-10.8.9-17.6 1.5-6.8.5-14.2 1.2-16.5 1.5s-8.3 1.1-13.4 1.7l-4.9.6.7.6c3.9 3.2 3.9 4.5 3.5 5.4-.3.8-1.1 1.4-2 1.4-1.6.1-9.5 3.1-14.6 5.5 1 1.2.1 2.5-1 4.1-.5.7-1.4 2-1.6 2.6.2 3.5-3 4.6-4.8 5.1-.6.2-1.8.6-2 .8.4 2.1 8.9 10.7 19.6 16.9 7.1 4.1 30.5 17.6 33.2 20.3.6.6.7 1.5.4 2.2-.6 1.2-1.7 1.1-3.3.9-.8-.1-2.1-.3-3.6-.5-3.1-.5-7.3-1.2-11.7-1.9-8.3-1.4-16.6-2.8-19.8-3.4.6.6 1.3 1.3 2.1 2 2.9 2.7 11 10.3 17.9 16.9 6.6 6.3 11.2 10 12.6 10.9 1.3-.2 2 .4 2.3.7.2.3.4.6.5 1l20.1 22.9c0 .1.1.1.1.2 1.4 2 4.1 5.6 6.1 8.2 4.6 5.9 5.6 7.7 4.1 9.2-1.7 1.6-3.5.2-9.7-4.7-2.3-1.8-5.6-4.4-6.8-5-.4 0-.8-.1-1.1-.3l-60.3-41.2c-.9.1-1.5-.2-1.8-.6-.3-.3-.7-.9-.5-1.8-1.2-1.3-4.8-3.8-7.2-5.2q.15.6.3 1.5c1.2 5.5.6 6.1.1 6.6-.6.5-1.1 1.1-7.6.2-5.9-.7-7.1-1-7.8-6.1-.1-.7-.5-4.4.6-6 .2-.5.7-2.7.9-5.8.9-11 8.6-17.3 21.2-17.4h.7c-4.7-3.8-10.4-10.3-12.2-14-1-2.2-2.1-5.8-2.4-8.4-.9-8.2 5.6-17.4 15.2-21.4l1.1-.4-1.8-1.8c-4.8-4.9-6.5-8.8-6.5-15.2 0-4.9 3.2-12.4 7.2-17.3-7.9 1.1-23.3.9-27.4-.8-4.3-1.8-4.4-3.4-5.1-11-1.3-15.9-6.9-26.6-16.4-32l-5.3-3c-.6-.3-1-1-1-1.6 0-.2 0-.4.1-.6-1 1-2.5 1.3-5.3 1.3h-4.2c-.6 0-1.1-.2-1.4-.7-.4-.4-.5-1-.4-1.5l.7-4.8c.8-5.5 2.7-13.1 4.4-18.4q-2.1 1.95-4.5 4.5c-11.3 11.2-26.7 22.8-34.3 23.5-2 .2-4.9-.2-7.7-1.1 7 3.1 13 8.6 17.7 16.2l-.3-9.9c0-.7.4-1.4 1.1-1.8l5.9-2.9c5.3-2.6 7.7-3.1 15-3.1 14.3.1 24.2 5.7 29.6 16.8 3.8 7.8 5.8 18.2 8.1 41.1.9 9.2 3 23.8 4.7 32.4 3.9 19.6 4.2 26 1.5 32.8 0 .1-.1.2-.1.2l-6 10.7v.3c-.4 2.5-6.6 8.1-10 10 7.1-2.2 11.1-.5 14.4 6.2 4.8 9.7 3.6 23.5-2.3 28.4-.7.6-1.8 1.5-3 1.1-.3 1.4-.9 2.4-2 3.2.9-.4 1.8-.7 2.4-.7.7 0 2.3 0 3.8 5.8.6 2.3 4.7 14.5 9 26.6l.3.8c3.9 10.9 6 16.9 7.2 20.5 1.4 4.2 1.7 5.3 1 6.3-.3.4-.8.9-1.8.9-.9 0-1.6 0-5.8-6.2-2-2.9-6.6-9.4-10.3-14.4-3.9-5.3-9.4-13-14.4-19.9-8.3-11.7-8.3-11.9-8.3-12.7 0-1.2.6-1.8 2.8-2.3-5.3.3-12.1-.4-14.8-1.1-2.3-.6-6.3-1.8-7.2-2.7-.1-.1-.4-.4-.7-1.2-.4.8-1 1.5-1.8 1.9 4.6.1 5.8.8 5.9 2.5.1.5.6 3.4 1.6 7.6.9 3.9 2.2 10.4 3 14.3s2.6 12.6 4.2 19.3c2.1 9.3 3.7 17.1 4.6 22.4 1.3 7.8 1.2 9.7-.8 10.4-2.2.7-3.3-2-4.3-4.4-.5-1.2-1-2-1.3-2.5-.5 0-.9-.2-1.3-.5-.5-.4-1.1-1.2-.6-2.9-.4-3-8.4-20.4-11-23.9-.7 0-1.2-.5-1.3-.6-.2-.3-.9-1.1-.3-2.5-.3-2.3-4.3-12.8-6.5-15.9-3.1-4-4.4-6.7-5.9-9.7-1.2-2.4-2.6-5.2-5.2-9.2-.3-.5-.4-1.2-.1-1.8s.8-1 1.4-1.1l3.8-.7c.2 0 .4-.1.7-.1h-3.7c-9.7 0-12-.1-13.6-3-.1-.2-.2-.4-.3-.5-.2.2-.4.4-.7.6-1.3.7-2.6-.1-3.5-.6-1.3-.8-2.6-2.3-3.6-4.1.9 2.9.2 4.3-2.7 9.4-2 3.4-3.6 7.6-3.9 9.4-.4 2.3-1.8 8.8-3.1 14.4s-3.6 15.3-5 21.7c-2.7 12.1-3.2 12.6-3.6 13-.5.5-1.3.7-2 .5-.9-.3-1.6-.6-2.4-6.5-.4-3-1.6-11.8-2.8-19.6-1.2-7.9-2.5-17.5-3-21.6-.8-6.7-4.4-17.1-7.5-21.8l-.4-.6c-10.8 11.2-20 34.8-24.7 48.3-2.7 7.9-8.5 25.2-12.9 38.7-3.7 11.3-8.4 25.1-9.5 26.2.1-.5-.4-.3-.9-.3m4.6-117.2c1.1 0 2 .6 3.1 2.1 3.1 4.2.4 25.6-.2 29.9-4.3 31.7-5.5 44.1-6 62.9-.1 5.2-.2 9.1-.2 11.9 1.5-4.3 3.6-10.3 6-17.6 4.4-13.5 10.2-30.9 12.9-38.7 5-14.5 15.2-40.4 27.3-51.4.4-.4 1-.5 1.5-.5.5.1 1 .4 1.3.8l1.6 2.5c3.4 5.2 7.2 16.1 8.1 23.4.5 4 1.8 13.6 3 21.5.9 5.9 1.8 12.3 2.3 16.4.3-1.2.6-2.5.9-4 1.4-6.4 3.7-16.2 5-21.8 1.3-5.5 2.7-11.9 3.1-14.1.4-2.5 2.3-7.2 4.3-10.7 1.5-2.6 2.4-4.2 2.6-5.1.1-.7-.1-1.3-.9-3.1-.4-.8-.7-1.5-1-2-2.2 2.8-6.7 10.4-8.6 15.5-1.6 4.3-2.4 6.2-4.4 5.8-.8-.1-1.8-.7-1.8-2.7-.1-6-7-20.8-12-26-3.5-3.6-9.6-6.6-13.3-6.7-3.3 0-9.4 3.2-11.1 5.8l-1.7 2.5c-.4.6-1 .9-1.7.8-.7 0-1.3-.4-1.6-1l-1.8-3.3c-1.8-3.2-5.9-5.9-11-7.1-9-2.1-26.2 5.4-39.3 16.9-3.3 2.9-4.6 3.9-6 2.8-.8-.6-1-1.6-.6-2.5.3-.6 1.5-3.1 2.7-5.7 3.8-7.8 5.5-16.1 4.3-20.1-1.3-4.4-5.2-6.8-10-6.2l-4.2.5c-.6.1-1.1-.1-1.5-.5s-.6-1-.6-1.5l.4-5.3c.5-6.1-2.5-12-7.9-15.7-3.2-2.2-4.6-2.7-12.6-3.1l-9.3-.5c-.7 0-1.3-.5-1.6-1.1s-.2-1.4.2-1.9l4-5.2c4.2-5.5 6.7-11.8 6.7-16.8 0-4-4.1-12.3-7-14.2l-2.6-1.7c-.5-.3-.9-.9-.9-1.6s.3-1.2.8-1.6l3.3-2.2c5-3.3 6.7-6.3 7.1-12.4.6-8.7-4.4-18.4-15.5-29.5-1.7-1.7-2.9-2.9-3.7-3.8-.9-1-2.1-2.3-1.1-3.7 1-1.5 2.6-.8 4.6 0 5 2 19.7 3.8 25.8 3 7.1-.9 13.7-3.7 17.3-7.4 2.8-2.9 5.9-10.2 5.9-13.8 0-.7 0-2.2 1.2-3.1 1.2-.8 2.6-.3 3.2-.1.8.3 3.8 1.1 6.8 1.7 4.5.9 4.9.9 9.7-1.5 5.5-2.7 9.8-7.5 12.8-14.5 2.6-5.7 5-9.5 8-14.3 1-1.6 2-3.2 3.2-5.1.3-.5.9-.9 1.6-.9.6 0 1.2.3 1.6.8 11.7 16.8 19.5 27 28.2 27 2.9 0 9.1-3.1 12.2-6.7l2.6-3.1c.4-.5 1-.7 1.7-.6.6.1 1.2.4 1.5 1l4.7 9 6.2.6c4.1.4 9.9 1.7 12.9 2.9 2.8 1.1 6.2 1.8 8.1 1.6 5.1-.5 18.4-9 32-22.5 2.9-2.9 5.7-5.6 7.8-7.6 1-1 1.8-1.8 2.4-2.3 1.1-1 1.8-1.7 3-1.2.7.3 1.2 1 1.2 1.8 0 .4 0 .7-1.9 4.4-1.8 3.5-4.8 14.9-5.9 22.2l-.4 2.7h2c.8 0 2.3 0 2.6-.2.2-.2.6-1.6.8-2.2.5-2.1 1.3-5.5 1.7-7.7.4-2.4 2.6-8.8 4.9-14.7l4.1-10.2 14.8-33.8c-5.6 6.2-13.7 15-23.2 23.9-1.8 1.7-6.3 6.6-11.5 12.3-20.2 22-23.8 25.3-25.9 25.3-1.6 0-3-.6-4.2-1.9-5.6-5.8-5.7-24.7-5.2-45.4.1-3.3.2-6.9.1-9.5-6.4 8-19.1 26.7-21.6 32.1-4 8.7-13.1 16.6-25.2 16.6-1.7 0-3.5-.2-5.4-.5-8.6-1.6-19.8-9.9-23.9-24.3l-5-15.1c-1.5 3.7-3.4 9.8-5 14.7-2.7 8.3-5.2 16.1-7 19.3-1.7 3-3.3 7-4.8 10.6-2.5 6.3-3.8 9.5-6.2 9.5-.7 0-2 0-16.6-14-7.7-7.4-17-15.9-20.8-19-3.3-2.7-7.1-6.3-9.3-8.8-.1 1.2-.2 2.3-.5 3.3-.5 1.9 0 3.7 3.5 11.4 4.4 9.7 6.9 15.2 8.5 18.6 2.4 5.2 2.5 5.3 3.1 7.7.5 1.8 1.4 5.1 4.4 14.3.5 1.6.3 3.2-.7 4.7-2.4 3.6-9.2 6.4-17.4 7.1-9.5.8-19.2-1.1-33.5-6.4-6.3-2.4-15.3-5.8-20.2-7.6-4.5-1.7-10.8-4-14.6-5.5 5 3.7 11.6 8.7 12.4 9.4.5.5 6.4 5.3 14.4 11.7 16.2 13.1 22.5 20 26.1 28.5 3 7.1 3.2 8.4.8 13.1-2.4 4.6-7.4 6.7-18.2 7.8-11.2 1.1-44.7.6-63-.8-2.7-.2-5-.4-7.1-.5 5.4 2.1 13.3 4.8 21.2 7.1 20.5 5.9 52.9 16.2 58.7 18.6 6.1 2.5 6.1 4 6.1 4.8 0 2.2-2.1 6.3-17.7 21.5l-7.8 7.4c8.6-1.9 25.5-5.6 27.1-5.6.3 0 .7.1.9.2l18.4 10.4c.3.2.6.4.7.7 1.1 2 1.1 4.5.1 9.6-.7 3.3-1.4 7.7-1.6 9.6-.8 7.7-12.8 28.6-20 40.4-2.6 4.3-5.4 8.9-7.7 12.6 5.8-5.8 8.5-7.7 9.9-8.3.9-2.3 4.1-5.3 7-7.7 1.8-1.5 3.1-2.3 4.1-2.7.2-.6.5-1.1 1-1.8.9-1.2 2.2-2.2 3.6-2.4 1.4-2.4 7.7-9.8 10.4-9.8.8 0 1.5.4 1.8 1.1.4.8.6 1.9-1.4 4.7-2.4 3.4-14.7 25.4-15.5 27.5-.2.7-1 2.4-4.3 7.7-.3.4-.6 1-1 1.7 4.3-4 10.2-9.7 15.7-15.1 22.3-21.7 30.1-28.8 35-31.6.6-.4 1.4-.4 2.1-.2 1.4.5 2.4 2.1 3.7 5.3.5 1.4 1 2.5 1.3 3.4 1-.6 2.4-1.4 4.1-2.6 3.6-2.3 5.5-3.7 7.1-3.7m133.8 78.3c.2.2.4.4.7.6-.8-4.6-2.2-11.7-4.6-22.3-1.5-6.8-3.4-15.5-4.2-19.4s-2.1-10.3-3-14.2c-.2-.9-1-4.7-1.4-6.9-.9-.1-2.7-.2-5.3-.2-4.1 0-8.3.3-10.5.7l-1.1.2c1.8 3 2.9 5.2 3.9 7.2 1.5 3 2.7 5.4 5.6 9.2 1.5 2.1 3.5 6.6 4.9 10.2 1.7 4.3 2.3 6.5 2.4 7.8 2 1.8 6.3 10.9 7.6 13.7 4 8.7 4.9 12 5 13.4m11.8-59.6c3.6 5.3 13.8 19.7 20.9 29.2 2.8 3.9 6.2 8.6 8.6 11.9-1.3-3.7-3.1-8.7-5.5-15.4l-.3-.8c-4.4-12.4-8.5-24.5-9.1-26.9-.3-1.1-.6-2-.8-2.5-.7.3-1.6.8-2.7 1.4-2.2 1.2-6.1 2.5-9 2.9-.8 0-1.5.1-2.1.2m108.2 7.1c1.4.2 3.5 1.7 7.6 5-1.8-2.3-3.7-4.9-4.8-6.5l-20.4-23.2c-1.5-.4-5-2.7-14.7-11.9-6.9-6.6-14.9-14.2-17.8-16.8-5.9-5.4-5.9-6.1-5.9-6.9 0-.6.3-1.1.7-1.5.4-.3 1.2-1 5.4-.3 2.1.4 11.5 1.9 20.7 3.5 3.1.5 5.9 1 8.2 1.4-5.4-3.3-13.9-8.4-25.8-15.3-8.2-4.7-22.4-15.7-21.4-20.8.5-2.5 2.9-3.2 4.6-3.8 2.2-.7 2.2-.9 2.1-1.3v-.6q-1.35-.15-2.1-1.5c-1-1.6-.3-3.8 1.9-5.6 2-1.6 12.4-6.1 18.1-7.8-.3-.2-.5-.5-.9-.8l-4.1-3.4c-.6-.5-.8-1.3-.6-2s.8-1.3 1.6-1.4l9.3-1.2c5.1-.6 11.1-1.4 13.4-1.7s9.8-1 16.6-1.5 14.7-1.2 17.6-1.5c2.6-.2 6-.8 8.9-1.5-9.1-1.7-27.8-4.4-50.1-7-3.7-.4-22-2.6-23.7-3.5-.8-.5-1.4-1.3-1.4-2.2-.2-2.1 1.7-4.6 12.7-12.9 12.7-9.6 19.4-14.6 23.2-17.4-.4.1-.8.2-1.3.4-36.6 11.3-43 12.9-46 12.5-1-.1-2.4-.3-3-1.7-.7-1.6.3-2.8 3.5-7 1.1-1.5 2.1-2.7 2.7-3.6-.1 0-.2 0-.3-.1-1.7-.3-4.5-1.2-6.3-1.9-1.5-.6-2.6-.9-3-1-1.2.1-2.1-.7-2.5-1-1.9-1.6-5.6-6.5-5.6-9.2 0-5.9 6.5-20.4 14.8-32.9l.1-.1c2.2-2.8 2.9-6.4 3.6-10.2.1-.4.2-.9.2-1.3-3.9.4-12.6 3.5-20.4 10.7l-.2.2-26.4 18.6-.1.1-.4.3 2.4 1.4c10.7 6 16.9 17.8 18.4 35 .6 6.9.6 6.9 2.7 7.8 2.9 1.2 17.8 1.7 25.8.5l4.9-.7c.8-.1 1.6.3 2 1s.3 1.6-.3 2.2l-2.6 2.8c-3.8 4-7.2 11.6-7.2 15.9 0 5.3 1.3 8.4 5.4 12.5l3.7 3.8c.4.5.6 1.1.5 1.7s-.6 1.1-1.1 1.4l-3.7 1.5c-8.1 3.3-13.6 10.8-12.9 17.4.2 2.1 1.2 5.4 2 7.1 1.8 3.6 8.5 10.9 12.8 14l2.9 2c.7.5 1 1.3.7 2.1-.2.8-1 1.3-1.8 1.3h-6.6c-7.4 0-16.5 2.5-17.4 13.9-.1 1.4-.5 6-1.5 7.5-.1.4-.2 1.9 0 3.5.1.7.2 1.9.4 2.1.3.3 2.3.5 4.1.7 1.6.2 2.9.3 3.9.4-.1-.7-.3-1.6-.5-2.6-1.2-5.5-.7-6-.1-6.6 1.4-1.3 3.4-.3 5.9 1.3 1.9 1.1 4.1 2.7 5.7 4 1.1.9 2.3 1.8 2.8 2.9zm-219.1-41.2c4.8 0 11.9 3.5 16.1 7.8 4.6 4.7 10.1 15.6 12.2 23.4 1.2-3 3.3-7 5.5-10.7 4.4-7.3 5.7-7.3 6.6-7.3.6 0 1.6 0 3.1 2.9-.4-1.4-.7-2.8-.7-4 0-5.4 5-10.5 11.1-11.5 6-.9 12.3-4 16.8-8.1 4.2-3.8 7.4-6 11.5-6.3 2.1-.2 4.4.2 7.8 1.1 2.5.7 5.2 1.2 7.9 1.5-6.6-1-11.5-3.5-15.4-7.7-4.1-4.4-4.2-5.8-6.1-30.4-.4-5.5-1-11.3-1.6-16.3.1 4.3.3 9.6.4 16.2l.1 34.5c0 .3-.1.6-.2.9-2.2 4.1-10 9.8-15.6 12-4.9 2-16 2.2-21.1.4-5-1.8-12.2-6.9-15.2-10.9-2.7-3.5-2.9-5.6-3.4-18.6-.2-4.6-.7-10.6-1.3-16.3.2 4.6.2 8.8.1 13.4-.5 17-1.3 20-11.5 24.1-8.5 3.4-19.8 3-28.8-1.1-6-2.8-10.2-6.9-11.8-11.6-.3-.8-1-2.9-1.7-21.6l-.5 24c0 .6-.3 1.2-.8 1.5-8.6 6.2-27.3.4-35.1-6.4-7.4-6.4-8.8-11-9.9-31.1-.5-9.5-1.3-20-1.9-23.4-2.3-14-.7-32.8 3.6-41.1 6.8-13.3 15.5-17.4 29.1-13.6 4.8 1.3 7 3.9 7.3 8.7 2.3-7.8 5.9-13.3 11.7-17.9 5.7-4.6 13.4-5.2 24-2.1 7.9 2.3 13 5.7 16.4 11v-.3c0-14.5 4.4-20.3 17.6-23 2.1-.4 4.1-.7 6.1-.8 2.5-.1 4.8 0 7.2.3-1.7-.3-3.4-.6-4.8-.7l-7.2-.7c-.6-.1-1.2-.4-1.5-1l-3.9-7.4-.8 1c-3.6 4.2-10.8 8-15 8-10.8 0-19.7-11.9-29.7-26.3-.6.9-1.1 1.8-1.7 2.6-3 4.7-5.3 8.4-7.8 13.8-3.3 7.8-8.3 13.3-14.6 16.4-5.6 2.7-6.8 2.9-12.2 1.7-2.2-.5-5.1-1.2-6.7-1.6-.3 4.7-3.7 12.4-7 15.8-4.2 4.3-11.6 7.6-19.5 8.5-5.5.7-16.4-.4-23.4-2 11.9 11.9 17.3 22.5 16.6 32.4-.5 7.3-2.8 11.3-8.8 15.3l-.9.6.2.1c3.9 2.5 8.7 12.1 8.7 17.4 0 5.9-2.7 12.9-7.5 19.1l-1.8 2.4 5.7.3c8.4.5 10.5 1 14.6 3.8 6.5 4.5 10.1 11.6 9.5 19.1l-.2 3 1.9-.2c6.7-.8 12.2 2.6 14.1 8.8 1.4 4.7-.1 13-3.8 21.4 13.7-11.1 30.3-17.6 39.8-15.4 6.2 1.4 11.2 4.7 13.5 8.9l.3.6c2.5-3.6 9.8-7.3 14.3-7.3m86.4 30.1v.2zm29.2-1.3c-.1.2-.2.3-.3.4s-.3.3-.5.4c.5-.1 1-.3 1.5-.4-.3-.1-.5-.2-.7-.4m-26-4.7c.9.4 2.9 1.1 5.4 1.8 4.6 1.3 14.6 1.3 17.3.6.1-1 .2-3 .2-5.9-.1-4.7-.7-7.5-2.5-11.1-.7-1.5-1.2-2.5-1.6-3.2-.4-.9-1.2-2.5.3-3.5s2.4.1 4.2 2.3c3.4 4.1 5.2 10 5.2 17 0 1 0 1.9.1 2.6.4-.2.8-.4 1.3-.7 2.1-1.2 2.1-1.2 2.1-7.5 0-8.7-1.1-11-4.8-14.5-1.8-1.6-3.3-3.1-2.2-4.7.5-.7 1.4-1.3 3.2-.3 5.6 2.9 10 11.3 10.3 18.4 2.2-5.3 1.9-14-1.1-20.2-2.6-5.3-4.7-6.1-10.6-4-7.1 2.4-18.4 2.4-27.4-.2-2.9-.8-4.8-1.1-6.5-1-2.7.2-5 1.6-9.2 5.3-1.1 1-2.3 2-3.6 2.8 5.1-.1 10.6 1.5 13.7 4.2 3.3 2.9 3.8 4.8 4.7 13.1.6 4.3 1.2 7.5 1.5 8.7m-19.9-19.5c-4.4 0-6.6 1.5-11 8.9-3.2 5.4-3.1 7.7-1.9 9.9.4.8 1.7 1 10.2 1h10.8l4.7-.2v-.1c-1.6-19.1-1.6-19.1-12-19.4-.2-.1-.5-.1-.8-.1m-11.5-1.1c-1.2.3-2.4.6-3.6.8-4.3.7-7.9 4.2-7.9 7.8 0 2.8 1.8 6.7 3.4 8.6.1-5.3 3.8-12.4 8.1-17.2m-42.2-108.9c.2 0 .5 0 .7.1 1.4.6 1.6.7 1.7 17.3.1 11.7.7 19.2 2.4 28.9 1.3 7.5 2.6 19.7 2.9 27.8.5 13.2.7 14 2.6 16.5 2.6 3.4 9.1 8.1 13.5 9.6 4.3 1.5 14.3 1.3 18.5-.3 5-2 11.6-6.9 13.5-9.9l-.1-33.9c-.4-23.7-.9-29.9-2.5-36.9-4.4-18.6-3-19.2-1.7-19.8.3-.1 1.6-.6 2.7.9.2-2.1.4-4.3.8-5.5.4-1.4 1.6-1.7 2.2-1.6 1.8.3 1.9 2 2 4.9.1 2 .1 4.9.1 8-.1 8.9.5 15.4 1.6 20.6 1 4.4 2.5 17.5 3.4 29.2 1.9 24.7 2 24.9 5.1 28.1 4.1 4.4 9.4 6.5 17.5 7 6.5.4 8.1 0 11.1-1.5 2.9-1.4 7.3-5.7 8.2-7.2 0-.4.1-.7.2-1.1l6.2-11.2c2.3-5.9 1.9-12-1.8-30.6-1.7-8.8-3.9-23.5-4.8-32.8-2.2-22.4-4.1-32.4-7.7-39.8-4.8-9.8-13.3-14.6-26.2-14.7-6.7 0-8.5.3-13.3 2.7l-4.8 2.4.5 16.1c0 .9-.5 1.6-1.4 1.9-.8.2-1.7-.1-2.2-.9l-3.2-5.5c-7.3-12.4-18.3-18.9-31.1-18.3l-.1-1.9.1 1.9c-1.8.1-3.7.3-5.6.7-11.4 2.3-14.5 6.5-14.5 19.3v7.9c0 .9-.6 1.6-1.5 1.8s-1.7-.2-2.1-1l-2.2-4.3c-3-5.9-7.4-9.2-15.5-11.6-9.5-2.8-15.8-2.3-20.6 1.4-5.6 4.4-8.8 9.6-10.8 17.5-1.4 5.6-2 7.3-3.9 7.4-1.1 0-1.9-.7-2.3-2.2s-.7-4.2-.7-6.3c0-4-1-5.5-4.6-6.5-11.8-3.2-18.7.1-24.7 11.7-3.9 7.7-5.4 25.4-3.2 38.7.6 3.5 1.5 14.2 1.9 23.8 1 19 2.2 23 8.5 28.5 7.3 6.3 22.7 10.5 29.6 6.7l.8-36.7c-.3-27.7-.5-31.3-2.2-35-2.1-4.7-2.2-6.6-.5-7.4 1.3-.6 2.3.1 3.1 1.2-.1-1.7-.2-2.7-.3-3.5 0-1-.1-2.7 1.6-3.1 1.8-.4 2.4 1.4 2.9 2.7.9 2.4 1.7 25.1 2.1 39.8.8 32.4 1.8 38.4 2.1 39.5 1.2 3.7 4.7 7 9.8 9.4 8 3.7 18.2 4.1 25.8 1.1 7.9-3.2 8.6-4 9.1-20.7.4-13.7-.4-23-4.4-52.6-1.4-10.1-.6-10.6.3-11.2.5-.3 1.1-.4 1.7-.2 1.3-5.9 1.8-6.4 2.1-6.7.6-.4 1.1-.6 1.6-.6m-2.2 14c.1 1.2.3 2.6.5 4.2l.3 2.4v-7.2c-.3.2-.5.4-.8.6m57.2-3.7c.2.8.3 1.7.5 2.6 0-.9-.1-1.8-.1-2.8 0 .1-.2.2-.4.2m14.8-16.6c-.2 0-.3 0-.5-.1-1-.3-1.4-.4-5.7-10.8-1.8-4.5-4.3-10.7-5.1-13.6l-.8-2.5c-.3-.9.1-1.8.9-2.2s1.8-.2 2.4.5l2.2 2.7c3.1 3.8 5.5 9.4 7.4 17.3 1.7 7 1.1 7.6.5 8.2-.3.3-.8.5-1.3.5m24.2-.2c-.4 0-.8-.1-1.1-.3-1-.7-1.3-2-1-4.1.2-1-.2-5.7-1.1-11-.8-4.2-1.5-9.9-.6-12.6l.9-2.9c.3-.9 1.1-1.5 2.1-1.3.9.1 1.6.9 1.6 1.8l.1 2.7c0 1.2.7 5.3 1.7 9.3 1.1 4.5 1.4 9.1 1 12-.8 5.2-2 5.9-2.3 6.1-.5.2-.9.3-1.3.3m-136.1-1.8c-.7 0-1.6-.4-2.6-1.6-1.2-1.4-5.9-12.4-5.9-14.2 0-1.3.9-2 1.6-2.2 1.5-.4 2.7.8 4.2 3.1 1.1 1.7 2.2 3.6 3 5.4 3.3 7.6 1.7 8.6.9 9.1-.4.3-.8.4-1.2.4m55.9-1.7c-1.1 0-2-.4-4.9-5.4-1.3-2.2-2.9-5.5-3.8-8.1-.9-2.5-2-5.4-2.4-6.4-.4-.9-.7-2-.2-3 .3-.5.7-.9 1.2-1 .4-.1 1.1-.2 1.8.2 1.4.8 2.9 2.9 3.7 4.6.9 1.6 2.7 6 4.2 9.8 2.8 7.3 2.5 7.7 1.9 8.5-.3.4-.9.8-1.5.8m21.1-3.9h-.2c-2.2-.2-2.3-2.2-2.7-9.8-.6-12.1.2-12.9.9-13.5.5-.4 1.1-.6 1.7-.5 1.7.2 2.2 1.9 3.1 6.6.8 4.7 1 9.1.4 11.8-.9 3.3-1.4 5.4-3.2 5.4m-54.2-2.7c-.3 0-.5-.1-.8-.2-1.7-.7-1.5-2.2-1-6.2.4-3.2.1-5.6-.4-6.6l-1.2-2.4c-.4-.9-.1-1.9.6-2.4.8-.5 1.9-.4 2.5.3l2.1 2.4c1.5 1.7 2.6 4.6 2.6 6.9 0 2.2-.8 5-2 6.4-.4.8-1.3 1.8-2.4 1.8"/></svg>