<svg xmlns="http://www.w3.org/2000/svg" xml:space="preserve" viewBox="0 0 512 512"><path d="M145 401.2v46.9l70.5 40.3 17.1 10.2 23.2 13.4 16.3-29.3 6.9-31.4-23.2-20.3L145 366.6z" style="fill:#185f85"/><path d="m437.1 151.5-29.7 17.1-.1.1v174.8L255.8 431v81c74.1-42.8 147.9-85.5 222-127.9V127.9z" style="fill:#0d84be"/><path d="M104.3 215.5V87.1l-70.1 40.8v256.2l70.1 40.3V296.5l151.5 87.6v-81.5l-81-46.8 81-46.8v-81.1z" style="fill:#2a2d31"/><path d="M255.8 0c74.1 42.8 147.9 85.1 222 127.9l-40.7 23.6-29.7 17.1L255.8 81 145 145V64z" style="fill:#1a9bd7"/></svg>