<?xml version="1.0" encoding="utf-8"?>
<!-- Generator: Adobe Illustrator 28.2.0, SVG Export Plug-In . SVG Version: 6.00 Build 0)  -->
<svg version="1.1" id="Layer_1" xmlns="http://www.w3.org/2000/svg" xmlns:xlink="http://www.w3.org/1999/xlink" x="0px" y="0px"
	 viewBox="0 0 512 512" style="enable-background:new 0 0 512 512;" xml:space="preserve">
<style type="text/css">
	.st0{fill:#185F85;}
	.st1{fill:#0D84BE;}
	.st2{fill:#2A2D31;}
	.st3{fill:#1A9BD7;}
</style>
<polygon class="st0" points="145,401.2 145,421.2 145,448.1 215.5,488.4 232.6,498.6 255.8,512 272.1,482.7 279,451.3 255.8,431 
	145,366.6 "/>
<path class="st1" d="M437.1,151.5l-29.7,17.1l0,0l-0.1,0.1v174.8L255.8,431v34.2V512c74.1-42.8,147.9-85.5,222-127.9V255.8
	c0-42.4,0-85.1,0-127.9L437.1,151.5z"/>
<polygon class="st2" points="104.3,215.5 104.3,87.1 34.2,127.9 34.2,384.1 104.3,424.4 104.3,296.5 255.8,384.1 255.8,384.1 
	255.8,302.6 174.8,255.8 255.8,209 255.8,127.9 "/>
<path class="st3" d="M255.8,0c74.1,42.8,147.9,85.1,222,127.9l-40.7,23.6l-29.7,17.1L255.8,81L145,145c0-26.9,0-54.2,0-81L255.8,0z"
	/>
</svg>
