<svg xmlns="http://www.w3.org/2000/svg" xml:space="preserve" viewBox="0 0 512 512"><linearGradient id="kaunta_svg__a" x1="-.095" x2="51244.359" y1="507.833" y2="-49951.543" gradientUnits="userSpaceOnUse"><stop offset="0" style="stop-color:#3b82f6"/><stop offset="1" style="stop-color:#1e3a8a"/></linearGradient><path d="M39.6.4h429.3c8 0 16 0 24 .3h1.6c4.1.2 7 1.4 10.2 3.9 3.2 4.1 3 9 3 14V61c0 9.8.1 19.6.1 29.4 0 8.6 0 17.1.1 25.7v8.6c.1 29 .2 58 .2 87v1.5q.15 74.4 0 148.8v7c0 21.3-.1 42.7-.2 64 0 5.1 0 10.3-.1 15.4 0 6.2 0 12.3-.1 18.5v20.9c0 14.2 0 14.2-3.7 18.7-5.7 5.4-13.4 5.3-20.8 5.2H91.4c-19 0-37.9 0-56.8-.3-1.6 0-3.3 0-4.9-.1-2.2 0-4.5-.1-6.7-.1h-2c-4.3-.1-8.8-.6-12.2-3.5-3.8-4.2-4.2-8.6-4.2-14V481c0-4.2-.1-8.4-.1-12.7 0-2.7 0-5.5-.1-8.2-.4-54.5-.4-109-.3-163.5v-15c0-39.9 0-79.7.1-119.6v-12.4c0-24.9.1-49.8.2-74.6V59.1c0-6.3 0-12.5.1-18.8V18.6c.1-5 .4-9.6 3.3-13.8C15.4-2 29.8.4 39.6.4m1.1 35.4c-.1 1.3-.1 2.6-.1 3.8v23.6c0 7.1-.1 14.2-.1 21.4 0 4.1 0 8.2-.1 12.4-.3 60-.4 120.1-.4 180.1V367c0 16.8 0 33.5.1 50.3v2c0 8.8.1 17.5.2 26.3 0 2.6 0 5.1.1 7.7 0 3 0 6 .1 9v10.3l.3 2c2.3 1.5 2.9 1.7 5.5 1.7h189.8c1.5 0 1.5 0 2.9-.8v-78c.1-1.3.1-1.3-.8-2.1-1.4-.1-2.9-.1-4.3-.1l-2.7-.1c-1.9 0-3.7-.1-5.6-.1-6.4-.1-11.9-.7-17-4.9l-1.1-1.4-1.2-1.4c-2.9-4.5-3-8.8-2.5-14 1.1-4.6 2.9-7.8 6.5-10.8 5.9-3.4 11.3-3.5 18.1-3.6 1.9 0 3.7-.1 5.6-.1h2.5c1.8.1 1.8.1 2.6-.8.1-1.5.1-2.9.1-4.4v-13.5c.1-1.8.1-1.8-.8-2.6-1.3-.1-2.7-.1-4-.1l-2.5-.1c-1.7 0-3.5-.1-5.2-.1-7.2-.2-13.5-1.7-19.1-6.4-3.8-5.2-4.3-10.6-3.7-16.9.6-1.9 1.4-3.6 2.3-5.3.8-1.3.8-1.3.6-2.7 7.3-3.7 13.6-4.8 21.7-4.9 1.8 0 3.7-.1 5.5-.1h2.4c1.8.1 1.8.1 2.6-.8.1-1 .1-2 .1-3v-74.8c-2.3-.6-4.4-.8-6.8-.9l-2.3-.1c-1.6 0-3.1-.1-4.7-.1-6.5-.2-12.1-1.4-17-5.8-4-4.5-4.8-8.6-4.7-14.5.5-5.1 2.4-8.8 6.1-12.4 4.2-2.5 7.9-3.7 12.8-3.9l2.8-.1c1.9-.1 3.9-.1 5.8-.2l2.8-.1 2.6-.1c1.9.1 1.9.1 2.7-.9.1-1.4.1-2.7.1-4.1V165h-1.6c-2.5-.1-5-.1-7.4-.2l-2.6-.1c-7.4-.2-13.9-1-19.4-6.3-3.6-4.4-4.7-9.4-4.5-14.9.6-4.6 2.1-8.6 5.5-11.9 6.1-4.4 13.3-4.4 20.5-4.6l2.8-.1c2.2-.1 4.5-.1 6.7-.2v-19.2c.1-2 .1-2-.8-2.8H232c-1.7 0-3.5.1-5.2.1-13.7.1-13.7.1-19.1-4.5-3.3-4.3-3.8-7.7-3.9-13l-.1-1.7c-.1-4.7 1-8.6 4.3-12.1 3.6-3.1 6.6-3.4 11.2-3.5h1.7c2.3-.1 4.7-.1 7-.2 1.7 0 3.4-.1 5.1-.1h1.6c2.5.2 2.5.2 4.6-.9.1-1.1.1-2.1.1-3.2V35h-196c-1.9-.1-1.9-.1-2.6.8m233.3-.7v33.7c1.4 1.4 3.6.8 5.4.9l2.9.1c1.5 0 3.1 0 4.6.1 5.8 0 10.7.1 15.7 3.4 4.3 4.4 4.7 8.7 4.7 14.6l.1 1.9c0 4.4-.6 7-3.3 10.6-1.4 1.3-1.4 1.3-2.8 2.1l-1.4.9c-3.4 1.5-6.9 1.5-10.6 1.5h-12.7c-1.7-.1-1.7-.1-2.5.8-.1 1.5-.1 3-.1 4.5v14.1c-.1 1.9-.1 1.9.8 2.7 1.3.1 2.6.1 3.8.1l2.4.1c1.7 0 3.3.1 5 .1 6.3.2 11.2 1.4 16.6 4.7 4.3 4.5 5 8.8 4.9 14.8-.2 4.6-1.1 8.2-4.1 11.7-6.3 5.6-12.8 6.1-20.9 6.3l-2.5.1c-2 .1-4 .1-6 .2-.1 2.8-.3 5.5-.4 8.3l-.1 2.4-.1 2.3-.1 2.1c-.1 1.9-.1 1.9.7 4h1.6c2.4.1 4.8.1 7.2.2l2.5.1c7.8.3 13.2 1.5 18.9 6.9 3.6 4.1 4 8.7 3.9 14-.6 4.4-2.2 8-5.5 10.9-4.6 3.2-8.6 4.7-14.3 4.9-4.8.2-9.5.6-14.2 1.1-.9 26.2-.9 52.3 0 78.5h1.4c22.8.6 22.8.6 28.7 5.8 3.9 5.2 3.9 10.2 3.4 16.5-.7 3.9-2 6.5-4.9 9.2-4.7 3.1-9 4.4-14.6 4.6l-2.5.1H283l-2.6.1c-2.1.1-4.3.2-6.4.2v18.6c-.1 1.9-.1 1.9.8 2.7 1.3.1 2.7.1 4 .2l2.5.1c1.8 0 3.5.1 5.3.1 6.7.2 12.1 1 17.1 5.7 3.9 4.5 4.6 9.4 4.3 15.2-.6 5.2-2.9 8.3-6.8 11.6-5.6 3.6-10.6 3.5-17.2 3.6-1.9 0-3.7.1-5.6.1h-2.5c-1.8-.1-1.8-.1-2.6.8-.1 1-.1 2-.1 3v72.6c.2 1.8.8 2.9 1.6 4.5h194.5c1.4.1 1.4.1 2.1-.8.1-2.1.1-4.1.1-6.2v-2c0-2.2 0-4.5.1-6.7v-4.8c0-4.3.1-8.7.1-13 0-2.8 0-5.5.1-8.3.3-40 .4-80.1.4-120.1V43.6c0-3.4-.5-8.5-1.7-8.6zM99.2 68.7h73.7c9.3 0 9.3 0 13.1 3.6 4.6 7 4.1 17 2.6 24.9-1.4 4.3-2.8 6.1-6.8 8.4-2 .2-3.7.3-5.7.3h-1.4c-1.7 0-3.5-.1-5.2-.1l-11.8-.2v30.8l14-.2c5.1 0 9.3 0 13.9 2.4 4.1 4.8 4.6 9.7 4.6 15.7v1.8c0 4.1 0 8.3-2.7 11.6-3.8 2.8-6.5 3.2-11.1 3.4h-1.6c-1.7 0-3.4.1-5.1.1-1.2 0-2.3.1-3.5.1-2.8.1-5.7.2-8.5.2l-.7 22 5.7-2.8 6.1-3 1.5-.8c1.6-.8 2.8-.9 4.6-.9l1.6-.1c3 .6 4.9 2.6 6.6 5 1.1 2.1 2.3 4.3 3.4 6.4l1.2 2.2c2.3 4.3 4 8.1 2.9 13-2.4 4.9-6.8 6.3-11.6 8.3-3.6 1.5-7 3.3-10.5 5.1l-1.8 1c-1.1.6-2.2 1.2-3.2 1.7l-1.4.8-1.5.8c-1.4.6-1.4.6-3.6.6v1.9c0 5.9.1 11.8.1 17.7 0 3 0 6.1.1 9.1v12.1c.1 11.4-1.3 21.9-9.2 30.6-8.8 8.4-19.4 9.4-31 9.5l-2.7.1c-8.1.1-8.1.1-11.6-3.2-3.1-3.1-4.4-7-6-11l-.8-2c-3.1-8-3.1-8-2-11 2-2.3 3.6-2.5 6.6-3.2 2.1-.1 4.1 0 6.1 0 5.1.1 9.7 0 14.1-3.1 3.8-5.1 2.8-12.9 3-19 0-1.1.1-2.1.1-3.2.1-2.6.1-5.2.2-7.8-7.3 3.4-14.5 6.8-21.7 10.5-9.6 4.9-9.6 4.9-14.3 4.1-3.8-2.4-5.4-5.6-7.4-9.4-.6-1.2-1.2-2.3-1.9-3.5l-.9-1.7c-.8-1.5-1.7-2.9-2.5-4.4-1.2-2.2-1.7-3.5-1.8-6l-.1-1.7c1.3-4.2 4.4-6.4 8.2-8.4 2.5-1.2 4.9-2.3 7.4-3.3l8.1-3.6 1.6-.7c4.4-2 8.8-4 13.1-6.2l1.7-.9c4.6-2.3 4.6-2.3 8.8-5.2 1-3.7.8-7.5.8-11.3v-21.9c.1-1.4.1-1.4.8-3.6h-1.5c-5.2 0-10.3-.1-15.5-.2-1.9 0-3.9 0-5.8-.1-2.8 0-5.5-.1-8.3-.1h-2.6c-7.5-.1-7.5-.1-11.1-2.6-3.7-4-3.1-9-3.1-14.1v-2.2c0-4.9.2-9.5 3.4-13.4 4.3-3.5 11.9-2.7 17.1-2.6h15c4.1 0 8.3 0 12.4.1v-30.8c-9.2.1-9.2.1-18.4.3h-5.3c-4 0-6.1-.7-9.3-3.3-3.9-4.1-3.7-10.3-3.7-15.7.4-12.6.4-12.6 4.4-16.6 2.3-.8 4.7-1.1 7.6-1.1m232.1 24.7h93.2c9.5-.1 9.5-.1 13.1 3.3 3.3 4.6 3.1 9.1 3.2 14.5 0 .7 0 1.4.1 2.1 0 4.6-.5 8.2-3.2 12-3.4 2.7-6 3.8-10.4 3.8h-34.5c-.2 12.3-.5 24.7-.7 37.4l23.7-.2h6.8c4.1 0 7 .1 10.5 2.5 4.6 4.6 5.4 9.6 5.4 15.8-.1 5.6-.4 9.7-4.2 14.1-3.4 2.7-7.6 2.2-11.8 2.1h-2.6c-2.8 0-5.6-.1-8.3-.1h-5.7c-4.6 0-9.2-.1-13.9-.2v17c-.1 1.8-.3 3.3-.8 5 .8-.3 1.5-.6 2.3-.9l6.3-2.4c1.8-.7 3.7-1.4 5.5-2.1 8.5-3.2 8.5-3.2 12.7-2.3 4.6 2.8 6.7 7.6 8.9 12.3l.9 1.8c2 4.1 3.8 8.5 2.3 13-4 4.4-9.3 6.8-14.6 9.4-.5.3-1.1.5-1.6.8-.5.2-1 .5-1.6.7-.7.3-.7.3-1.4.7-1.4.5-1.4.5-4.3.5 5.8 6 12.6 10.7 19.6 15.1 3.3 2.1 6.4 4.2 9.6 6.4.4.3.9.6 1.3.9 2.6 1.9 4.5 3.2 5.1 6.5-.5 3.9-2.5 6.9-4.5 10.2l-1.2 2.1c-5.3 9.2-5.3 9.2-8.6 10.8-4.8.4-7.3-.4-11.1-3.2-.5-.3-.9-.7-1.4-1-1.4-1-2.9-2.1-4.3-3.1-.4-.3-.9-.6-1.3-1-5.5-4-10.6-8.4-15.6-13-.8-.7-1.5-1.4-2.3-2.1-5.5-5-10.8-10.2-16.1-15.5-.6.2-1.1.5-1.7.7-10.3 4.5-20.6 9-31.1 13.2-.8.3-1.6.6-2.4 1-15.5 6.3-15.5 6.3-19.1 5.6-5.3-2.3-6.6-7.1-8.7-12.1-.4-.8-.7-1.7-1.1-2.6-3.9-9.3-3.9-9.3-3.5-13.9 2.7-3.4 5.7-4.8 9.6-6.4.6-.2 1.1-.5 1.7-.7 1.8-.8 3.7-1.5 5.5-2.3 1.3-.5 2.5-1 3.8-1.6 2.5-1 5-2.1 7.5-3.1 2.9-1.2 5.9-2.4 8.8-3.6 1.4-.6 2.9-1.2 4.3-1.8l2-.8c4.3-1.8 4.3-1.8 5.9-1.8v-36.7l-18.9.2H333c-4 0-6.7-.5-10.2-2.4-3.3-3.7-3.3-8.5-3.2-13.2v-1.9c.1-5.1.2-10.2 3.5-14.3 2.4-1.9 4.2-2.3 7.1-2.4h5.8c2.1 0 4.2-.1 6.4-.1 1.4 0 2.9-.1 4.3-.1 3.5-.1 7.1-.2 10.6-.2v-13.9c0-7.6.2-15.2.8-22.8h-2.8c-3.4 0-6.8-.1-10.2-.1h-4.4c-2.1 0-4.2-.1-6.3-.1h-2c-4-.1-6.4-.7-9.6-3.4-4.5-5.8-3-14.8-2.6-21.7.6-3.6 1.6-6 4.2-8.5 2.8-1.8 4-1.9 6.9-1.9M123.1 327.5h32c20.2 0 20.2 0 26.9 6.6 3.9 4.3 5.2 8.4 5.3 14.2-.7 6.1-4 10.4-8.6 14.3-6.4 4.4-14.8 3.8-22.2 4.1V385l6.1-.1c13.4-.1 13.4-.1 18.8 4.5 3.9 3.9 6.1 7.3 6.1 13-.1 5.1-1.1 8.9-4.5 12.7-6 5.6-12.2 6.7-20.2 6.6h-6.4v2.9c0 3.5-.1 7.1-.2 10.6 0 1.5 0 3.1-.1 4.6 0 2.2-.1 4.4-.1 6.6v2c-.1 4.5-.5 9-3.5 12.6-5.5 4.9-12 4.4-18.8 4-3.7-.4-5.9-.9-8.8-3.3-5.1-6.5-2-21-1.7-28.7q.3-6 .3-12l-1.4.2c-9.9 1-19.5 2-28-4.1-2.6-2.2-4-4.5-5.1-7.8-.1-1.9-.2-3.8-.2-5.7V402c0-4.6 1.1-7.4 4.1-10.8 6.9-6.1 13.7-6.4 22.6-6.2l8 .1-.7-18.3c-5-.2-5-.2-10-.3-6.9-.3-12.2-1.5-17.3-6.4-3.6-3.9-5.5-7.4-5.8-12.8.3-6.1 3.1-10.2 7.4-14.3 7.2-6.2 17.3-5.5 26-5.5m224.9.2h41.9c9.4-.1 17.7.1 24.8 6.9 3.5 3.8 5 7.7 5.2 12.8-.3 5.9-2.6 9.9-6.9 13.8-4.4 3.6-9.4 5-15 5h-11.1c.2 6.3.5 12.6.7 19.1 2.6.6 4.4.8 7 .8h7.4c5.8.1 9.7 1.2 13.9 5.3 4.7 5.3 4.5 10.5 4.2 17.2-.4 4.6-2.3 7.6-5.7 10.6-5.7 3.7-12.4 3.6-19.1 3.4h-2.2c-1.8 0-3.6 0-5.4-.1v1.3c0 4.6.1 9.2.1 13.8v14.8c0 4-.1 7-2.5 10.4-3.9 3-8.4 2.6-13.1 2.5h-2.3c-4.5 0-8.9-.2-12.4-3.3-2.3-3.6-2.5-6.5-2.4-10.7V440c0-5.9.2-11.8.9-17.7h-1.4c-19.6.6-19.6.6-25.1-4.4-4.9-5.3-5.4-9.7-5.3-16.8.3-4.9 1.8-7.5 5.2-11 5.8-3.9 10.7-4.1 17.4-3.9 2.8 0 5.6.1 8.4.1v-19.8l-8.2-.4c-8-.4-14.1-2.4-19.6-8.5-3.7-4.3-4.1-8.2-4-13.8.5-4.9 2.4-7.7 6-11 5.8-4.3 11.6-5.1 18.6-5.1" style="fill:url(#kaunta_svg__a)"/></svg>