<?xml version="1.0" encoding="utf-8"?>
<!-- Generator: Adobe Illustrator 28.2.0, SVG Export Plug-In . SVG Version: 6.00 Build 0)  -->
<svg version="1.1" id="Layer_1" xmlns="http://www.w3.org/2000/svg" xmlns:xlink="http://www.w3.org/1999/xlink" x="0px" y="0px"
	 viewBox="0 0 512 512" style="enable-background:new 0 0 512 512;" xml:space="preserve">
<style type="text/css">
	.st0{fill:#FFFFFF;}
</style>
<path class="st0" d="M256,0C114.4,0,0,114.4,0,256s114.4,256,256,256s256-114.4,256-256S397.6,0,256,0z M424,384c0,4.8-3.2,8-8,8
	H301.6c-7.2,0-15.2,3.2-19.2,9.6c-5.6,8.8-15.2,14.4-26.4,14.4s-20.8-5.6-26.4-14.4c-4-6.4-11.2-9.6-19.2-9.6H96c-4.8,0-8-3.2-8-8
	V144c0-4.8,3.2-8,8-8h16v-32h120c13.6,0,24,10.4,24,24c0-13.6,10.4-24,24-24h120v32h16c4.8,0,8,3.2,8,8V384z M144,128h32v56h-32V128
	z M272,352h128v16H272c-8.8,0-16,7.2-16,16c0-8.8-7.2-16-16-16H112v-16h128c8.8,0,16,7.2,16,16C256,359.2,263.2,352,272,352z
	 M236,208c0-2.4-1.6-4-4-4h-88c-2.4,0-4,1.6-4,4s1.6,4,4,4h88C234.4,212,236,210.4,236,208z M236,184c0-2.4-1.6-4-4-4h-35.2
	c-2.4,0-4,1.6-4,4s1.6,4,4,4H232C234.4,188,236,186.4,236,184z M236,160c0-2.4-1.6-4-4-4h-35.2c-2.4,0-4,1.6-4,4s1.6,4,4,4H232
	C234.4,164,236,162.4,236,160z M236,136c0-2.4-1.6-4-4-4h-35.2c-2.4,0-4,1.6-4,4s1.6,4,4,4H232C234.4,140,236,138.4,236,136z
	 M236,232c0-2.4-1.6-4-4-4h-88c-2.4,0-4,1.6-4,4s1.6,4,4,4h88C234.4,236,236,234.4,236,232z M236,256c0-2.4-1.6-4-4-4h-88
	c-2.4,0-4,1.6-4,4s1.6,4,4,4h88C234.4,260,236,258.4,236,256z M236,280c0-2.4-1.6-4-4-4h-88c-2.4,0-4,1.6-4,4s1.6,4,4,4h88
	C234.4,284,236,282.4,236,280z M236,304c0-2.4-1.6-4-4-4h-88c-2.4,0-4,1.6-4,4s1.6,4,4,4h88C234.4,308,236,306.4,236,304z M236,328
	c0-2.4-1.6-4-4-4h-88c-2.4,0-4,1.6-4,4s1.6,4,4,4h88C234.4,332,236,330.4,236,328z M372,208c0-2.4-1.6-4-4-4h-88c-2.4,0-4,1.6-4,4
	s1.6,4,4,4h88C370.4,212,372,210.4,372,208z M372,232c0-2.4-1.6-4-4-4h-88c-2.4,0-4,1.6-4,4s1.6,4,4,4h88
	C370.4,236,372,234.4,372,232z M372,160c0-2.4-1.6-4-4-4h-88c-2.4,0-4,1.6-4,4s1.6,4,4,4h88C370.4,164,372,162.4,372,160z M372,136
	c0-2.4-1.6-4-4-4h-88c-2.4,0-4,1.6-4,4s1.6,4,4,4h88C370.4,140,372,138.4,372,136z M372,184c0-2.4-1.6-4-4-4h-88c-2.4,0-4,1.6-4,4
	s1.6,4,4,4h88C370.4,188,372,186.4,372,184z M372,256c0-2.4-1.6-4-4-4h-88c-2.4,0-4,1.6-4,4s1.6,4,4,4h88
	C370.4,260,372,258.4,372,256z M372,280c0-2.4-1.6-4-4-4h-88c-2.4,0-4,1.6-4,4s1.6,4,4,4h88C370.4,284,372,282.4,372,280z M372,304
	c0-2.4-1.6-4-4-4h-88c-2.4,0-4,1.6-4,4s1.6,4,4,4h88C370.4,308,372,306.4,372,304z M372,328c0-2.4-1.6-4-4-4h-88c-2.4,0-4,1.6-4,4
	s1.6,4,4,4h88C370.4,332,372,330.4,372,328z"/>
</svg>
