<svg xmlns="http://www.w3.org/2000/svg" xml:space="preserve" viewBox="0 0 512 512"><path d="M256 0c141.6 0 256 114.4 256 256S397.6 512 256 512 0 397.6 0 256 114.4 0 256 0" style="fill:#4ac694"/><path d="M416 136H96c-4.8 0-8 3.2-8 8v240c0 4.8 3.2 8 8 8h114.4c8 0 15.2 3.2 19.2 9.6 5.6 8.8 15.2 14.4 26.4 14.4s20.8-5.6 26.4-14.4c4-6.4 12-9.6 19.2-9.6H416c4.8 0 8-3.2 8-8V144c0-4.8-3.2-8-8-8" style="fill:#424c72"/><path d="M280 104c-13.6 0-24 10.4-24 24 0-13.6-10.4-24-24-24H112v248h128c8.8 0 16 7.2 16 16 0-8.8 7.2-16 16-16h128V104z" style="fill:#fff"/><path d="M144 128h32v56h-32z" style="fill:#57d1f7"/><path d="M272 352h128v16H272c-8.8 0-16 7.2-16 16 0-8.8-7.2-16-16-16H112v-16h128c8.8 0 16 7.2 16 16 0-8.8 7.2-16 16-16m-36-144c0-2.4-1.6-4-4-4h-88c-2.4 0-4 1.6-4 4s1.6 4 4 4h88c2.4 0 4-1.6 4-4m0-24c0-2.4-1.6-4-4-4h-35.2c-2.4 0-4 1.6-4 4s1.6 4 4 4H232c2.4 0 4-1.6 4-4m0-24c0-2.4-1.6-4-4-4h-35.2c-2.4 0-4 1.6-4 4s1.6 4 4 4H232c2.4 0 4-1.6 4-4m0-24c0-2.4-1.6-4-4-4h-35.2c-2.4 0-4 1.6-4 4s1.6 4 4 4H232c2.4 0 4-1.6 4-4m0 96c0-2.4-1.6-4-4-4h-88c-2.4 0-4 1.6-4 4s1.6 4 4 4h88c2.4 0 4-1.6 4-4m0 24c0-2.4-1.6-4-4-4h-88c-2.4 0-4 1.6-4 4s1.6 4 4 4h88c2.4 0 4-1.6 4-4m0 24c0-2.4-1.6-4-4-4h-88c-2.4 0-4 1.6-4 4s1.6 4 4 4h88c2.4 0 4-1.6 4-4m0 24c0-2.4-1.6-4-4-4h-88c-2.4 0-4 1.6-4 4s1.6 4 4 4h88c2.4 0 4-1.6 4-4m0 24c0-2.4-1.6-4-4-4h-88c-2.4 0-4 1.6-4 4s1.6 4 4 4h88c2.4 0 4-1.6 4-4m136-120c0-2.4-1.6-4-4-4h-88c-2.4 0-4 1.6-4 4s1.6 4 4 4h88c2.4 0 4-1.6 4-4m0 24c0-2.4-1.6-4-4-4h-88c-2.4 0-4 1.6-4 4s1.6 4 4 4h88c2.4 0 4-1.6 4-4m0-72c0-2.4-1.6-4-4-4h-88c-2.4 0-4 1.6-4 4s1.6 4 4 4h88c2.4 0 4-1.6 4-4m0-24c0-2.4-1.6-4-4-4h-88c-2.4 0-4 1.6-4 4s1.6 4 4 4h88c2.4 0 4-1.6 4-4m0 48c0-2.4-1.6-4-4-4h-88c-2.4 0-4 1.6-4 4s1.6 4 4 4h88c2.4 0 4-1.6 4-4m0 72c0-2.4-1.6-4-4-4h-88c-2.4 0-4 1.6-4 4s1.6 4 4 4h88c2.4 0 4-1.6 4-4m0 24c0-2.4-1.6-4-4-4h-88c-2.4 0-4 1.6-4 4s1.6 4 4 4h88c2.4 0 4-1.6 4-4m0 24c0-2.4-1.6-4-4-4h-88c-2.4 0-4 1.6-4 4s1.6 4 4 4h88c2.4 0 4-1.6 4-4m0 24c0-2.4-1.6-4-4-4h-88c-2.4 0-4 1.6-4 4s1.6 4 4 4h88c2.4 0 4-1.6 4-4" style="fill:#e4e7ef"/></svg>