<?xml version="1.0" encoding="utf-8"?>
<!-- Generator: Adobe Illustrator 28.2.0, SVG Export Plug-In . SVG Version: 6.00 Build 0)  -->
<svg version="1.1" id="Layer_1" xmlns="http://www.w3.org/2000/svg" xmlns:xlink="http://www.w3.org/1999/xlink" x="0px" y="0px"
	 viewBox="0 0 512 512" style="enable-background:new 0 0 512 512;" xml:space="preserve">
<style type="text/css">
	.st0{fill:#FFFFFF;}
</style>
<g id="c">
	<path id="f" class="st0" d="M256,512C114.8,512,0,397.2,0,256S114.8,0,256,0s256,114.8,256,256S397.2,512,256,512z M256,21.5
		C126.8,21.5,21.6,126.7,21.6,256S126.8,490.5,256,490.5S490.4,385.3,490.4,256S385.2,21.5,256,21.5z"/>
	<rect x="226.6" y="224.8" class="st0" width="15" height="148"/>
	<path class="st0" d="M256,106.7c20.3,0,36.9-16.6,36.9-36.9c0-2.7-0.6-5.3-1.1-8c-11.8-2.1-23.5-3.7-35.8-3.2
		c-11.8,0-24,1.1-35.8,3.2c-0.5,2.7-1.1,5.4-1.1,8C219.1,90.1,235.7,106.7,256,106.7z"/>
	<path class="st0" d="M357.6,86.4c1.6,6.9,2.1,13.4,2.1,20.3c0,41.1-24.6,76.9-59.3,93.5l-2.7,43.8l31.4,31.6l-31.5,31.5l20.8,20.8
		l-20.8,20.8l2.7,39L256,432l-44.3-44.3V200.2c-35.3-16.6-59.3-52.4-59.3-93.5c0-6.9,1-13.4,2.1-20.3
		c-59.8,35.8-96.1,99.9-96.1,169.4c0,109.5,88.6,197.7,197.6,197.7c109.5,0,197.6-88.7,197.7-197.7
		C453.2,186.3,416.9,122.2,357.6,86.4z"/>
</g>
</svg>
