<svg xmlns="http://www.w3.org/2000/svg" xml:space="preserve" viewBox="0 0 512 512"><path d="M213 2.1c-3.1 1.1-7.6 3.6-10.1 5.5-2.4 1.9-47.7 47-100.8 100.2C-2.5 212.7 1.9 207.7.3 222c-1.2 10.6 3.8 23.6 12.1 30.6 11.1 9.4 26.8 11.6 39.5 5.8 5.9-2.8 13.7-10.1 67.2-63.6l60.6-60.3h5.3c7.1 0 10 1.7 18.9 10.9 7.9 8.3 9.6 12.4 8.2 19.6-.7 3-13.9 16.8-68.8 72-45.9 46-69 70-70.6 73.3-2.2 4.2-2.7 6.7-2.7 15.7 0 8.8.4 11.5 2.7 15.9 8.3 16.9 27.5 24.6 46 18.4 5.5-1.9 8.6-4.6 30.2-25.9 13.2-13.1 25.2-24.4 26.5-25.1s4.2-1.2 6.6-1.2c3.7 0 5.1 1.1 15.1 10.8 14.4 14.2 15.3 18.4 6.4 29.1-2.5 3-5.3 7.2-6.2 9.2-6.2 14.8-2.8 31.5 8.4 41.9 7.4 6.7 13.7 9.2 24.3 9.3 15.9 0 16.3-.3 62.1-45.9 42.5-42.4 43-42.8 50.9-39.7 3.9 1.5 13.4 10.4 15.8 14.8 1.9 3.6 2 10.2.3 13.5-.7 1.3-24.3 25.6-52.5 54-57.7 57.9-55.4 55.1-55.4 71.6.1 10.5 2.4 16.7 9.1 24.1 10.8 11.9 29.8 15 44.1 7.2 3.6-1.9 36.9-34.6 103.8-101.6 110.3-110.5 103.7-103 103.8-119.5.1-7.4-.4-9.5-3.6-16-2.2-4.4-5.6-9-8.3-11.4-9.7-8.3-24.7-10.8-37.5-6.1-5.9 2.2-9.1 5-35.1 30.9-29.8 29.6-32.8 31.9-40.3 30.8-2.2-.3-5.9-2.8-10.5-7.2-10.9-10.1-12-16.6-4.2-25.8 16.7-20 12.8-46.1-8.6-57.9-6.6-3.7-8.1-4-16.2-4-16.2 0-15-.9-60.5 44.3-26.4 26.3-41.7 40.6-44.3 41.8-6.6 2.7-10.3.9-21.4-10.2-10.4-10.5-12.7-14.3-11.4-19.8.4-2.7 21.6-24.5 93.3-96.4C406.6 76.1 401 82.6 401 66.7c0-14.3-8.3-27.4-21.4-33.4-3.9-1.8-7.5-2.5-14.2-2.5-16.5 0-14.1-1.8-67.7 51.6-51.1 50.7-50.2 50-59.3 48-3.9-.9-18.2-13.7-20.8-18.6-2.1-4.2-2-12.2.2-15.6 1.1-1.6 10.3-11.4 20.6-21.8 21.4-21.8 22.9-24.3 22.9-38.7 0-7.5-.4-9.4-3.9-16.2C249 3.3 230.5-3.9 213 2.1m182.3 159c-15.7 5.6-25 18.6-25 34.9 0 31.7 39.4 48 61.9 25.5 7.9-8 10.3-13.8 10.3-26.1 0-8.7-.5-10.9-3-15.7-8.6-16.4-27.8-24.4-44.2-18.6M36.1 351.6c-11.3 2.2-21.7 10.6-26.6 21.2-1.8 3.9-2.3 7.4-2.3 14.7 0 8.2.4 10.4 3.1 15.9 10.6 21.6 39 27.3 56.8 11.3 7.9-7.2 11.4-14.4 12.1-25 .3-6.7 0-9.6-2-14.8-4.5-12.1-15-20.8-28-23.3-6.7-1.2-6.6-1.2-13.1 0"/></svg>