<svg xmlns="http://www.w3.org/2000/svg" xml:space="preserve" viewBox="0 0 512 512"><path d="M237.9 197.2c10-10 26.2-10 36.2 0l41.1 41.1c10 10 10 26.2 0 36.2l-41.1 41.1c-10 10-26.2 10-36.2 0l-41.1-41.1c-10-10-10-26.2 0-36.2zm189.4-.3c9.8-9.8 25.8-9.8 35.6 0l41.8 41.8c9.8 9.8 9.8 25.8 0 35.6L462.9 316c-9.8 9.8-25.8 9.8-35.6 0l-41.8-41.8c-9.8-9.8-9.8-25.8 0-35.6s41.8-41.7 41.8-41.7m-300.8 41.7c9.8 9.8 9.8 25.8 0 35.6L84.7 316c-9.8 9.8-25.8 9.8-35.6 0L7.4 274.2c-9.8-9.8-9.8-25.8 0-35.6l41.8-41.8c9.8-9.8 25.8-9.8 35.6 0z" style="fill:#a950ff"/><path d="M220.7 143.8c10 10 10 26.2 0 36.2l-41.1 41.1c-10 10-26.2 10-36.2 0L102.2 180c-10-10-10-26.2 0-36.2l41.1-41.1c10-10 26.2-10 36.2 0zm189.1 0c10 10 10 26.2 0 36.2l-41.1 41.1c-10 10-26.2 10-36.2 0L291.3 180c-10-10-10-26.2 0-36.2l41.1-41.1c10-10 26.2-10 36.2 0z" style="fill:#cd88ff"/><path d="M238.2 7.8C248-2 264-2 273.8 7.8l41.8 41.8c9.8 9.8 9.8 25.8 0 35.6L273.8 127c-9.8 9.8-25.8 9.8-35.6 0l-41.8-41.8c-9.8-9.8-9.8-25.8 0-35.6z" style="fill:#e9c1ff"/><path d="M296.5 413.9c22.3 22.3 22.3 58.6 0 80.9-22.4 22.3-58.6 22.3-80.9 0-22.4-22.4-22.4-58.6 0-80.9 22.3-22.4 58.5-22.4 80.9 0" style="fill:#f62e76"/></svg>