<svg xmlns="http://www.w3.org/2000/svg" xml:space="preserve" id="keycloak_svg__Layer_1" x="0" y="0" version="1.1" viewBox="0 0 512 512"><style>.keycloak_svg__st9{fill:#d0d0d0}.keycloak_svg__st11{fill:#d9d9d9}.keycloak_svg__st13{fill:#d8d8d8}.keycloak_svg__st16{fill:#dedede}</style><path d="M507.6 149.3h-73.8c-1.4 0-2.7-.7-3.4-2L371 44.1c-.7-1.2-2-2-3.5-2H125.1c-1.2 0-2.3.5-3.1 1.5-.4.4-.7.8 0 .2L2.2 252.6c-1.9 2.8-2.4 4.5-1.5 6.2L121 467.1c.3.5.7.9 1.1 1.3.7.9 1.8 1.4 3 1.4h242.4c1.4 0 2.7-.7 3.5-2l59.4-103.2c.7-1.2 2-2 3.4-2h73.8c2.4 0 4.4-2 4.4-4.4V153.6c0-2.3-2-4.3-4.4-4.3" style="fill:#4d4d4d"/><path id="keycloak_svg__path1594" d="M73.4 245.4 7.1 269.5.5 258.2c-.7-1.2-.7-2.7 0-3.9l30.1-52.2z" style="fill:#e1e1e1"/><path id="keycloak_svg__polygon1794" d="M512 258.4v50.7l-43.7-44.5z" style="fill:#c8c8c8"/><path id="keycloak_svg__path1798" d="m468.2 264.6 43.7 44.5v49.6c0 2.4-2 4.4-4.4 4.4l-50.8-.1z" style="fill:#c2c2c2"/><path id="keycloak_svg__polygon1802" d="M468.2 264.6 456.7 363h-61.2L377 318.3z" style="fill:#c7c7c7"/><path id="keycloak_svg__polygon1804" d="M512 211.3v47l-43.7 6.2z" style="fill:#cecece"/><path id="keycloak_svg__path1808" d="M512 153.7v57.6l-43.7 53.2-33.1-115.3h72.2c2.4-.1 4.5 1.8 4.6 4.3z" style="fill:#d3d3d3"/><path id="keycloak_svg__polygon1812" d="M395.5 363h-32.3l-8.4-12 22.1-32.7z" style="fill:#c6c6c6"/><path id="keycloak_svg__polygon1814" d="m468.2 264.6-121.1-51.2 63.7-64.1h24.4z" style="fill:#d5d5d5"/><path id="keycloak_svg__path1816" d="m347.2 213.4 29.8 105 91.2-53.8z" class="keycloak_svg__st9"/><path id="keycloak_svg__polygon1818" d="m354.5 363 .4-12 8.4 12z" style="fill:#bfbfbf"/><path id="keycloak_svg__polygon1820" d="m410.8 149.3-63.7 64.1-11.4-57.4 24.6-6.8h50.5z" class="keycloak_svg__st11"/><path id="keycloak_svg__path1822" d="m347.2 213.4-147 33.9L354.9 351z" style="fill:#d4d4d4"/><path id="keycloak_svg__path1824" d="m347.2 213.4 7.7 137.6 22.1-32.7z" class="keycloak_svg__st9"/><path id="keycloak_svg__path1826" d="m335.7 156-135.5 91.2 147-33.9z" class="keycloak_svg__st11"/><path id="keycloak_svg__polygon1828" d="M200.2 247.3 136.5 363h-36.2L73.4 245.4z" class="keycloak_svg__st13"/><path id="keycloak_svg__path1830" d="m135 149.3-61.5 96.1-15.7-90.3 2.4-3.8c.7-1.2 2-1.9 3.4-1.9z" style="fill:#e2e2e2"/><path id="keycloak_svg__path1832" d="M100.3 363H63.4c-1.4 0-2.8-.8-3.5-2L7.1 269.5l66.4-24.1z" class="keycloak_svg__st13"/><path id="keycloak_svg__polygon1834" d="m30.6 202.2 27.2-47.1 15.7 90.3z" style="fill:#e4e4e4"/><path id="keycloak_svg__polygon1836" d="m335.7 156-40.8-6.8H160.1l40.1 98z" class="keycloak_svg__st16"/><path id="keycloak_svg__polygon1838" d="m200.2 247.3-40.1-98H135l-61.5 96.1z" class="keycloak_svg__st16"/><path id="keycloak_svg__polygon1840" d="M325.4 363h29.1l.4-12z" style="fill:#c5c5c5"/><path id="keycloak_svg__polygon1842" d="M267.4 363h58l29.5-12-154.7-103.7L228.1 363z" class="keycloak_svg__st9"/><path id="keycloak_svg__polygon1844" d="m228.1 363-27.9-115.7L136.5 363z" style="fill:#d1d1d1"/><path id="keycloak_svg__polygon1856" d="m336.1 149.3-.4 6.8 24.6-6.9-11.2.1z" style="fill:#ddd"/><path d="m204.7 114.3-82 141.9-20.6 35.6-19.6-34c-.3-.5-.4-1-.4-1.6s.1-1.2.4-1.7l19.9-34.4 60.4-104.5c.6-1.1 1.8-1.8 3-1.8H203c.6 0 1.2.2 1.7.5m164.9 141.9-82 142q-.75-.45-1.2-1.2l-18.7-32.2c-.5-1-.5-2.3 0-3.3l59.7-103.4c.3-.5.5-1.2.5-1.8z" style="fill:#008aaa"/><path d="m224.6 151.1-59.7 103.4c-.3.5-.4 1.1-.4 1.7h-41.7l82-142q.75.45 1.2 1.2l18.6 32.3c.5 1.1.5 2.4 0 3.4m-19.9 247.2c-.5.3-1.1.5-1.8.5h-37.1c-1.3 0-2.4-.7-3-1.8l-55.2-95.6-5.5-9.5 20.6-35.6zm205.4-142.1c0 .6-.2 1.3-.5 1.8l-80.3 139.3c-.6 1-1.8 1.7-3 1.6h-37c-.6 0-1.2-.2-1.8-.5l82.1-142.3 20.6-35.6 19.5 33.8c.3.7.4 1.3.4 1.9m-40.5 0h-41.7c0-.6-.2-1.2-.5-1.8l-59.7-103.1c-.6-1.1-.6-2.5 0-3.6l18.6-32.2q.45-.75 1.2-1.2z" style="fill:#00b8e3"/><path d="M224.5 365 206 397.1q-.45.75-1.2 1.2l-82-142.2h41.7c0 .6.1 1.1.4 1.6l59.6 103.2c.8 1.2.9 2.9 0 4.1m165.6-144.4-20.6 35.6-82-142c.6-.3 1.2-.5 1.8-.5h37.1c1.2 0 2.3.6 3 1.6z" style="fill:#33c6e9"/></svg>