<svg xmlns="http://www.w3.org/2000/svg" xml:space="preserve" viewBox="0 0 512 512"><path d="M60 360.6 0 256.8v-1.4l59.9-103.8h79.4l-39.3 68-20.2 35c-.3.5-.4 1.1-.4 1.7s.1 1.1.4 1.6l19.9 34.6.9-1.5-.9 1.6 5.6 9.7 33.8 58.5H60zm101.4-247.3c.6-1.1 1.8-1.8 3-1.8h37.8c.6 0 1.1.2 1.6.4 0 0 .1 0 .1.1.4.3.5.6.8 1.1l17.3 30.3h47.5l17.4-30.2c.3-.5.7-1 1.2-1.3.6-.3 1.2-.5 1.8-.5h37.7c1.2 0 2.3.6 3 1.6l17.6 30.4h83.6l-59-102.7c-.7-1.2-2-2-3.6-2H122.9c-1.2 0-2.4.5-3.1 1.5-.4.4-.7.8-1 1.2L59.9 143.3H144zm1.5 141.2c-.3.5-.4 1.1-.4 1.7s.1 1.1.4 1.6l59.4 102.8h47.2l59.2-102.5c.3-.5.5-1.2.5-1.8l.9-.1h-.9c0-.6-.2-1.2-.5-1.8l-59.6-102.8h-46.8zm348.7-102.9h-75c-.4 0-.9 0-1.3-.1H353l39.5 68.4 19.8 34.3c.3.7.4 1.3.4 1.9s-.2 1.3-.5 1.8L353 360.6h81.4c.7-.2 1.4-.3 2.2-.3h75c.2 0 .4-.2.4-.4V152c0-.2-.2-.4-.4-.4m-181 247.9c-.6 1-1.8 1.7-3 1.6H290c-.6 0-1.2-.2-1.8-.5l-.1-.3c-.4-.3-.8-.6-1-1.1l-17.7-30.5h-47l-17.7 30.7c-.2.3-.5.6-.8.9l.1.2c-.5.3-1.1.5-1.8.5h-37.7c-1.3 0-2.4-.7-3-1.8l-17.6-30.5H60l58.8 101.8c.3.5.7 1 1.1 1.3.8.9 1.8 1.4 3 1.4h246.3c1.4 0 2.7-.7 3.6-2l59-102.5h-83.4z"/></svg>