<svg xmlns="http://www.w3.org/2000/svg" xml:space="preserve" viewBox="0 0 512 512"><path d="M64 0h384c35.3 0 64 28.7 64 64v384c0 35.3-28.7 64-64 64H64c-35.3 0-64-28.7-64-64V64C0 28.7 28.7 0 64 0" style="fill:#20ac64"/><path d="M203.1 124c0-2.6-2.4-4.8-5.3-4.8s-5.3 2.1-5.3 4.8c0 12.5 15.3 29.6 17.1 31.5 1 1.1 2.6 1.7 4.1 1.7 1.2 0 2.4-.4 3.4-1.1 2.3-1.7 2.6-4.7.7-6.7-5.7-6.1-14.7-18.5-14.7-25.4m111.1-4.7c-2.9 0-5.3 2.1-5.3 4.8 0 6.9-9 19.3-14.7 25.5-1.8 2-1.5 5 .7 6.7 1 .7 2.2 1.1 3.4 1.1 1.5 0 3-.6 4.1-1.7 1.7-1.9 17.1-19.1 17.1-31.5 0-2.8-2.4-4.9-5.3-4.9m-58.2 0c-2.9 0-5.3 2.1-5.3 4.8v28.5c0 2.6 2.4 4.8 5.3 4.8s5.3-2.1 5.3-4.8V124c0-2.6-2.4-4.7-5.3-4.7m58.2-59.9c-3.2 0-6.6.4-10 1-11.6-12.2-28.9-20-48.1-20s-36.5 7.8-48.1 20c-3.5-.6-6.8-1-10-1-32.1 0-58.2 23.5-58.2 52.3 0 19.8 12.4 37.7 31.9 46.6l-.1 46.3c0 5.2 2.2 10.1 6.3 13.7 4.1 3.7 9.5 5.7 15.3 5.7h126c11.9 0 21.6-8.7 21.6-19.4v-46.4c19.4-8.9 31.7-26.8 31.7-46.5-.2-28.9-26.3-52.3-58.3-52.3M330 204.6c0 5.5-4.9 9.9-11 9.9H193c-2.9 0-5.7-1-7.8-2.9s-3.2-4.4-3.2-7v-3.3h148zm3.3-53.8c-.3.1-.5.2-.8.4-.6.4-1.2.8-1.6 1.4s-.7 1.2-.8 1.9c0 .3-.1.5-.1.8v36.5H182l.1-36.4c0-.3 0-.5-.1-.8-.1-.7-.4-1.4-.8-2s-1-1-1.6-1.4c-.3-.2-.5-.3-.8-.4-17.4-6.8-28.6-22.2-28.6-39.2 0-23.6 21.3-42.8 47.6-42.8 1 0 2.1.1 3.2.2-5.3 8.4-8.5 18-8.5 28.3 0 2.6 2.4 4.8 5.3 4.8s5.3-2.1 5.3-4.8c0-26.2 23.7-47.5 52.9-47.5s52.9 21.3 52.9 47.5c0 2.6 2.4 4.8 5.3 4.8s5.3-2.1 5.3-4.8c0-10.3-3.1-20-8.5-28.3 1.1-.1 2.1-.2 3.2-.2 26.2 0 47.6 19.2 47.6 42.8 0 17-11.2 32.3-28.5 39.2M395.6 321c0 46.2-37.5 83.7-83.7 83.7-13.1 0-26-3.1-37.7-9 .4-.5.8-.9 1.2-1.4 4.4-5.4 9-12.5 13.6-21 1.3-2.3 2-4.8 2.2-7.4 5.9 2.4 12.2 3.7 18.5 3.7 26.8 0 48.6-21.8 48.6-48.6s-21.8-48.6-48.6-48.6-48.6 21.8-48.6 48.6c0 7.4 1.7 14.4 4.6 20.7-3.2-.7-6.5-1.1-9.8-1.1-3.2 0-6.5.4-9.8 1.1 3-6.5 4.6-13.5 4.6-20.7 0-26.8-21.8-48.6-48.6-48.6s-48.6 21.8-48.6 48.6 21.8 48.6 48.6 48.6c6.4 0 12.7-1.2 18.5-3.7.2 2.6 1 5.1 2.2 7.4 4.7 8.5 9.3 15.6 13.6 21 .4.5.8.9 1.2 1.4-8.2 4.2-17.1 6.9-26.3 8.2-2.8.4-4.8 3.1-4.3 5.9.4 2.8 3 4.7 5.7 4.4 11.5-1.6 22.6-5.3 32.7-10.9 3.6 2.6 7 3.9 10.3 3.9s6.8-1.3 10.3-3.9c13.9 7.7 29.6 11.8 45.6 11.8 12.4 0 24.3-2.4 35.2-6.8 10.2 15.9 16 34.1 16.9 53.1H148c.9-18.9 6.7-37.1 16.9-53.1 8.6 3.5 17.7 5.6 26.9 6.5 2.8.3 5.4-1.9 5.6-4.7.3-2.8-1.9-5.4-4.7-5.6-42.8-3.8-76.3-40.4-76.3-83.4V208.6c20 18.4 46.2 28.7 73.7 28.7h89.5l51.3-.4c4.5-.4 8.9-1 13.3-1.9.1 0 .3-.1.4-.1 19.1-4.1 36.7-13.1 51.1-26.3zm-160.4 36.1c7-4 14-6.1 20.8-6.1s13.8 2 20.8 6.1c3.9 2.3 5.3 7.3 3.1 11.3-11.6 21-20.1 28.5-24 28.5-3.8 0-12.4-7.5-24-28.5-2-4-.6-9.1 3.3-11.3m-33 2.2c-21.1 0-38.3-17.2-38.3-38.3s17.2-38.3 38.3-38.3 38.3 17.2 38.3 38.3-17.2 38.3-38.3 38.3M402.6 191c-2-.8-4.3-.2-5.7 1.5-12.8 15-39 28.2-48.4 30.8s-10.9 3.9-92.4 3.9-83.2-1.3-92.4-3.9c-9.3-2.6-35.6-15.8-48.4-30.9-1.9-2.2-5.1-2.4-7.3-.6-1.1 1-1.8 2.4-1.8 3.9V321c0 23.7 8.8 46.3 24.8 63.7 7.1 7.7 15.4 14.1 24.5 19.1-11.7 18.8-17.9 40.3-17.9 62.7 0 2.9 2.3 5.2 5.2 5.2h226.7c2.9 0 5.2-2.3 5.2-5.2 0-22.4-6.2-43.9-17.9-62.7 29.4-15.9 49.4-47 49.4-82.8V195.9c-.2-2.2-1.6-4.2-3.6-4.9M271.5 321c0-21.1 17.2-38.3 38.3-38.3s38.3 17.2 38.3 38.3-17.2 38.3-38.3 38.3-38.3-17.2-38.3-38.3m-69.3-9c-2.9 0-5.2 2.3-5.2 5.2v7.7c0 2.9 2.3 5.2 5.2 5.2s5.2-2.3 5.2-5.2v-7.7c0-2.9-2.3-5.2-5.2-5.2m107.6 0c-2.9 0-5.2 2.3-5.2 5.2v7.7c0 2.9 2.3 5.2 5.2 5.2s5.2-2.3 5.2-5.2v-7.7c0-2.9-2.3-5.2-5.2-5.2" style="fill-rule:evenodd;clip-rule:evenodd;fill:#fff"/></svg>