<svg xmlns="http://www.w3.org/2000/svg" xml:space="preserve" viewBox="0 0 512 512"><path d="M256 396.9c3.8 0 12.4-7.5 24-28.5 2.2-4 .8-9.1-3.1-11.3-7-4-14-6.1-20.8-6.1s-13.8 2-20.8 6.1c-3.9 2.3-5.3 7.3-3.1 11.3 11.4 21 20 28.5 23.8 28.5m-53.8-114.2c-21.1 0-38.3 17.2-38.3 38.3s17.2 38.3 38.3 38.3 38.3-17.2 38.3-38.3-17.2-38.3-38.3-38.3m5.2 42.2c0 2.9-2.3 5.2-5.2 5.2s-5.2-2.3-5.2-5.2v-7.7c0-2.9 2.3-5.2 5.2-5.2s5.2 2.3 5.2 5.2zM344.2 235c-4.4.9-8.8 1.6-13.3 1.9l-51.3.4h-89.5c-27.5 0-53.7-10.3-73.7-28.7V321c0 43 33.5 79.6 76.3 83.4 2.8.3 5 2.8 4.7 5.6s-2.8 5-5.6 4.7c-9.2-.8-18.3-3-26.9-6.5-10.2 15.9-16 34.1-16.9 53.1h216c-.9-19-6.7-37.1-16.9-53.1-10.9 4.4-22.8 6.8-35.2 6.8-16 0-31.7-4.1-45.6-11.8-3.6 2.6-7 3.9-10.3 3.9s-6.8-1.3-10.3-3.9c-10.1 5.6-21.2 9.3-32.7 10.9-2.8.3-5.3-1.6-5.7-4.4s1.5-5.5 4.3-5.9c9.1-1.2 18-4 26.3-8.2-.4-.5-.8-.9-1.2-1.4-4.4-5.4-9-12.5-13.6-21-1.3-2.3-2-4.8-2.2-7.4-5.9 2.4-12.2 3.7-18.5 3.7-26.8 0-48.6-21.8-48.6-48.6s21.8-48.6 48.6-48.6 48.6 21.8 48.6 48.6c0 7.1-1.6 14.2-4.6 20.7 3.3-.7 6.5-1.1 9.8-1.1s6.6.4 9.8 1.1c-3-6.3-4.6-13.3-4.6-20.7 0-26.8 21.8-48.6 48.6-48.6s48.6 21.8 48.6 48.6-21.8 48.6-48.6 48.6c-6.4 0-12.7-1.2-18.5-3.7-.2 2.6-1 5.1-2.2 7.4-4.7 8.5-9.3 15.6-13.6 21-.4.5-.8.9-1.2 1.4 11.7 5.9 24.6 9 37.7 9 46.2 0 83.7-37.5 83.7-83.7V208.6c-14.4 13.2-32 22.3-51.1 26.3-.4.1-.5.1-.6.1m-165.4-84.1c.3.1.6.2.8.4.6.3 1.1.8 1.6 1.4.4.6.7 1.3.8 2 0 .3.1.5.1.8l-.1 36.4h148v-36.5c0-.3 0-.5.1-.8.1-.7.4-1.3.8-1.9s1-1.1 1.6-1.4c.2-.1.5-.3.8-.4 17.3-6.8 28.5-22.2 28.5-39.1 0-23.6-21.3-42.8-47.6-42.8-1 0-2.1.1-3.2.2 5.4 8.4 8.5 18 8.5 28.3 0 2.6-2.4 4.8-5.3 4.8s-5.3-2.1-5.3-4.8c0-26.2-23.7-47.5-52.9-47.5s-52.9 21.3-52.9 47.5c0 2.6-2.4 4.8-5.3 4.8s-5.3-2.1-5.3-4.8c0-10.3 3.1-20 8.5-28.3-1.1-.1-2.1-.2-3.2-.2-26.2 0-47.6 19.2-47.6 42.8 0 16.9 11.3 32.2 28.6 39.1m115.4-1.4c5.7-6.2 14.7-18.7 14.7-25.5 0-2.6 2.4-4.8 5.3-4.8s5.3 2.1 5.3 4.8c0 12.5-15.3 29.6-17.1 31.5-1 1.1-2.6 1.7-4.1 1.7-1.2 0-2.4-.4-3.4-1.1-2.2-1.6-2.5-4.6-.7-6.6M250.7 124c0-2.6 2.4-4.8 5.3-4.8s5.3 2.1 5.3 4.8v28.5c0 2.6-2.4 4.8-5.3 4.8s-5.3-2.1-5.3-4.8zm-52.9-4.7c2.9 0 5.3 2.1 5.3 4.8 0 6.9 9 19.3 14.7 25.5 1.8 2 1.5 5-.7 6.7-1 .7-2.2 1.1-3.4 1.1-1.5 0-3-.6-4.1-1.7-1.7-1.9-17.1-19.1-17.1-31.5 0-2.8 2.4-4.9 5.3-4.9M448 0H64C28.7 0 0 28.7 0 64v384c0 35.3 28.7 64 64 64h384c35.3 0 64-28.7 64-64V64c0-35.3-28.7-64-64-64M197.8 59.4c3.2 0 6.6.4 10 1 11.6-12.2 28.9-20 48.1-20s36.5 7.8 48.1 20c3.5-.6 6.8-1 10-1 32.1 0 58.2 23.5 58.2 52.3 0 19.7-12.3 37.6-31.7 46.5v46.4c0 10.7-9.7 19.4-21.6 19.4H193c-5.8 0-11.2-2-15.3-5.7s-6.3-8.5-6.3-13.7l.1-46.3c-19.5-8.9-31.9-26.8-31.9-46.6.1-28.9 26.2-52.3 58.2-52.3M406 321c0 35.7-20 66.8-49.4 82.8 11.7 18.8 17.9 40.3 17.9 62.7 0 2.9-2.3 5.2-5.2 5.2H142.7c-2.9 0-5.2-2.3-5.2-5.2 0-22.3 6.2-43.9 17.9-62.7-9.2-5-17.5-11.4-24.5-19.1-16-17.4-24.8-40-24.8-63.7V195.9c0-1.5.7-2.9 1.8-3.9 2.2-1.9 5.4-1.6 7.3.6 12.9 15 39.2 28.3 48.4 30.9 9.3 2.6 10.9 3.9 92.4 3.9s83.1-1.3 92.4-3.9c9.4-2.6 35.6-15.9 48.4-30.8 1.4-1.6 3.7-2.2 5.7-1.5 2 .8 3.4 2.7 3.4 4.9V321zM182 204.6c0 2.6 1.1 5.1 3.2 7s4.8 2.9 7.8 2.9h126c6.1 0 11-4.4 11-9.9v-3.3H182zm127.8 154.7c21.1 0 38.3-17.2 38.3-38.3s-17.2-38.3-38.3-38.3-38.3 17.2-38.3 38.3 17.2 38.3 38.3 38.3m-5.2-42.1c0-2.9 2.3-5.2 5.2-5.2s5.2 2.3 5.2 5.2v7.7c0 2.9-2.3 5.2-5.2 5.2s-5.2-2.3-5.2-5.2z"/></svg>