<svg xmlns="http://www.w3.org/2000/svg" xml:space="preserve" viewBox="0 0 512 512"><path d="M234.1 126.3c-1.9-.5-2.9-1.1-4.4-2.3-.4-.4-.9-.7-1.3-1.1-.5-.4-.9-.8-1.4-1.2-1-.8-2-1.7-2.9-2.5l-1.5-1.2c-2.6-2.2-5.3-4.2-8-6.2-2-1.5-3.8-3.1-5.7-4.7 2.2-5.5 9.8-9.1 14.9-11.4 3.4-1.4 6.8-2.5 10.4-3.5.5-.1 1-.3 1.5-.4 3.3-.8 6.2-1 9.5-.9.1 6.4 0 12.8-.4 19.3-.1 1-.1 2-.1 3-.3 8.4-.3 8.4-2.9 11.1-2.7 1.3-4.6 2.2-7.7 2m22.1 75.7c-.2-.6-.3-1.2-.5-1.7-.2-.6-.4-1.2-.6-1.9-.6-2-1.2-3.9-1.8-5.9-.4-1.4-.8-2.7-1.2-4.1-1.2-4-2.4-8-3.6-12.1h-1.6c-2.1.1-2.1.1-3.8 4.2-.3.7-.3.7-.6 1.5-.4 1-.9 2.1-1.3 3.1-.7 1.6-1.4 3.3-2 4.9-.4 1.1-.9 2.1-1.3 3.2l-.6 1.5c-1.6 3.8-3 7.6-4.2 11.5 7.7 2.1 16.2 3.2 24 1.3 0-2.6 0-2.6-.3-4q-.45-.75-.6-1.5m-2.4-63.8c-3.5-1.3-7.8-1.6-11 .6-3 2.5-5.7 5-6.2 9-.1 4.6 1 7.7 4.1 11 3.4 2.6 6.9 3.1 11 2.6 3-1 5.5-2.5 7.4-5.1 1.8-3.2 2.3-6.2 1.7-9.9-1.4-3.6-3.6-6-7-8.2m-23.9 28.5c-1-1.1-1-1.1-2.2-2-2.5-1-4.3-.5-6.9.4-1 .4-1.9.7-2.9 1-.5.2-1.1.4-1.6.6-3.4 1.2-6.8 2.3-10.2 3.4-1.5.5-3 .9-4.4 1.4l-3.9 1.2c-.4.1-.9.3-1.3.4v1.9c2.8 6.4 7.2 12.9 12.3 17.7.7.6.7.6 1.3 1.2 3.1 2.7 5.8 5.1 9.7 6.5.4-.8.8-1.6 1.1-2.4.2-.4.4-.9.5-1.3.9-2.2 1.8-4.3 2.7-6.5l1.5-3.6c.7-1.7 1.5-3.5 2.2-5.2.3-.8.3-.8.7-1.7.6-1.5 1.3-3 1.9-4.6.8-2.4 1.6-4.9.4-7.3-.4-.5-.4-.5-.9-1.1m-31.1-10.4c1.3-.4 2.5-.8 3.8-1.2 2-.6 4-1.3 6-1.9l3.9-1.2c.6-.2 1.2-.4 1.9-.6l1.8-.6c.8-.3.8-.3 1.7-.6 1.5-.5 1.5-.5 2.8-1.1 2-1.3 2.5-1.6 3.1-4 .1-.8.2-1.5.3-2.3.2-1.4.3-2.7.5-4.1-3-2.3-6-4.7-9-7.1-.4-.3-.8-.6-1.1-.9-2-1.6-4-3.1-6-4.7-.4-.3-.8-.7-1.3-1-.8-.6-1.6-1.3-2.4-1.9-2.1-1.7-4.2-3.4-6.7-4.5-.4 1-.9 2-1.3 3l-.6 1.5c-4.8 10.9-6.9 23.2-4.5 35 1.3 0 1.3 0 2.5-.3.5-.2 1-.3 1.5-.5.6-.2 1.1-.4 1.7-.5.2-.1.8-.3 1.4-.5m70.3-28.7c.7-.4 1.3-.8 2-1.1 1.1-.6 2.2-1.3 3.3-1.9.8-.5 1.6-.9 2.3-1.4 2-1.1 3.9-2.2 5.9-3.4.7-.4 1.5-.9 2.2-1.3 3.7-2.1 7.4-4.3 11-6.5-1.2-1.9-2.4-3.5-3.9-5.2-8.1-8-18.8-14.6-30.5-14.9-.6 1.9-.8 3.6-1 5.5 0 .5-.1 1-.1 1.5-.1 1-.2 2.1-.3 3.1-.1 1.6-.3 3.2-.4 4.8-.4 4.2-.7 8.5-.9 12.7 0 .7 0 1.3-.1 1.9-.1 1.6-.1 1.6.2 2.9 1.2 1.2 2.2 1.9 3.7 2.7 2.6 1.1 4.1 1.6 6.6.6m123.7 4.2c-.5 5-2.6 8.4-5.8 12.2-.7.9-1.4 1.7-2.1 2.6-.4.4-.7.9-1.1 1.3-1.6 1.9-3.1 3.9-4.6 5.8-.6.8-1.2 1.5-1.8 2.3-.3.4-.6.7-.9 1.1-1.8 2.3-3.6 4.5-5.3 6.8-1.5 1.9-2.9 3.8-4.4 5.6-3.5 4.5-7.1 8.9-10.7 13.4-3.2 3.9-6.3 7.9-9.4 11.8-1.5 1.9-3 3.8-4.4 5.7-1.8 2.3-3.6 4.5-5.3 6.8-3.4 4.3-6.8 8.6-10.3 12.9-2.2 2.7-4.3 5.4-6.4 8.1-2.6 3.3-5.2 6.6-7.9 9.8-3.1 3.8-6.1 7.6-9.1 11.5-2.6 3.4-5.2 6.7-7.8 10-.9 1.1-1.8 2.3-2.7 3.4l-9.3 11.7c-2.7 3.3-5.3 6.7-7.9 10.1-3.8 4.9-7.6 9.8-11.5 14.6-5.4 6.7-10.6 13.5-15.6 20.5-.3.4-.6.9-1 1.3-.6.8-1.2 1.7-1.8 2.5-1.3 1.8-2.5 3.2-4.2 4.5-1.7 1.4-2 2.1-2.3 4.2l-.3 1.5c-.1.6-.2 1.3-.2 2-.1.5-.1.9-.2 1.4-1.8 16.3-1.2 32.4 8.9 45.9.7.9 1.5 1.8 2.3 2.6.4.4.7.8 1.1 1.2 8.8 9.4 21.5 14.2 33.4 18.3 7.9 2.7 15.3 5.8 22.7 9.7.7.4 1.4.7 2.1 1.1 14.8 7.7 25.4 19.3 30.7 35.1 3 11.9.9 24.2-4.8 35-4.5 7.5-10.5 13.7-16.9 19.7-.6.6-1.2 1.1-1.8 1.7-2.9 2.5-5.3 4.2-9.2 4.3-1.9-.2-3.1-.9-4.5-2.1-1.3-2-1.5-2.5-1.5-4.8 0-.5 0-1-.1-1.5.5-2.7 2.3-4.3 4.5-6 .9-.6.9-.6 1.7-1.2 9.7-6.9 17.1-16.3 19.4-28.1.7-6.6.2-12.7-2.6-18.8-.3-.6-.5-1.2-.8-1.8-7.8-15.8-24.4-22-40-27.7-13.3-4.8-26-10.3-37.1-19.2-.6-.5-1.1-.9-1.7-1.4-12.1-10.2-18.7-24.5-20.3-40.1-.1-2.7-.1-5.4-.1-8.1v-2.3c0-4.8.3-9.4 1.1-14.2.9-6.4-.7-9.6-3.9-15.3-.4-.8-.9-1.6-1.3-2.4-.7-1.3-1.4-2.5-2.1-3.8-2.5-4.6-5-9.2-7.4-13.8-3.7-7-7.4-14-11.3-21-3-5.4-5.9-10.9-8.8-16.4-4.6-8.7-9.2-17.3-13.9-26-5.5-10.2-11-20.5-16.4-30.7-4.5-8.4-8.9-16.8-13.5-25.1l-4.5-8.4c-4.3-8.1-8.7-16.1-13-24.1-1.1-2-2.1-3.9-3.2-5.9-.4-.7-.7-1.3-1.1-2l-2.1-3.9-5.4-9.9c-.4-.7-.7-1.3-1.1-2-.7-1.3-1.4-2.5-2.1-3.7-.3-.6-.6-1.1-.9-1.7-.3-.5-.5-1-.8-1.5-1-2-1.4-3.8-1.5-6 0-.5-.1-.9-.1-1.4 1-4.7 4.8-7.3 8.6-9.8 1-.7 2-1.4 3-2 .5-.3 1-.7 1.5-1 2.5-1.7 4.9-3.5 7.3-5.2 1-.7 2-1.4 2.9-2.1.7-.5.7-.5 1.5-1.1 2.4-1.8 4.9-3.5 7.3-5.3 1-.7 1.9-1.4 2.9-2.1 1.9-1.4 3.9-2.8 5.8-4.2.5-.3 1-.7 1.5-1.1 1-.7 1.9-1.4 2.9-2.1 2.4-1.8 4.9-3.5 7.3-5.3 5.2-3.8 10.4-7.5 15.6-11.2 4.8-3.4 9.6-6.8 14.4-10.3 2.9-2.1 5.8-4.2 8.8-6.3 2.4-1.8 4.9-3.5 7.3-5.3 5.2-3.8 10.4-7.5 15.6-11.2 3.3-2.3 6.6-4.7 9.9-7.1.5-.3 1-.7 1.5-1.1 2.5-1.8 5-3.6 7.5-5.5 2.4-1.8 4.9-3.5 7.4-5.3 1-.7 2-1.5 3.1-2.3 4.4-3.1 9.2-3.6 14.4-2.5 4.3 2.2 7.7 5.5 11.1 9 .6.7.6.7 1.3 1.3 2.5 2.6 4.9 5.2 7.3 7.9 1.7 1.9 3.5 3.7 5.3 5.5 2.2 2.2 4.4 4.4 6.4 6.8 2.1 2.5 4.5 4.8 6.9 7.2 4.8 4.7 4.8 4.7 6.8 7.1 2.2 2.7 4.7 5.1 7.2 7.5 2.8 2.8 5.6 5.6 8.2 8.7 2.2 2.5 4.6 4.8 6.9 7.1 2 1.9 3.8 3.9 5.6 6 2.5 2.9 5.1 5.5 7.8 8.2 3.1 3.1 6.1 6.2 9 9.5 1.6 1.8 3.3 3.4 5 5.1 2.1 2.1 4.2 4.1 6.1 6.4 2.5 3 5.3 5.7 8.1 8.4 2.4 2.4 4.7 4.8 6.8 7.4 1.2 1.4 2.5 2.6 3.8 3.8 2.6 2.9 4.2 5 4.6 8.8m-53.5-35.2c-2.1-2.1-3.2-3.1-6-3.7-2.8.5-4.3 1.5-6.5 3.1-5 3.6-10.2 8.3-16.6 7.7-.3-.4-.6-.7-.9-1.1-9.3-13.4-24.8-21.6-40-26.2-.5-.2-1.1-.3-1.6-.5s-1.1-.3-1.6-.5c-1.4-.4-1.4-.4-2.6-1-1-1.8-1-1.8-1.2-3.2 0-.5-.1-.9-.1-1.4-.2-3.7-.1-7.2.6-10.8.3-1.7.7-3.4 1-5.1.1-.5.1-1 .2-1.5.2-1.4.2-1.4.2-2.6-1-2.5-2.2-3.8-4.5-5.2-2.6-.4-5-.4-7.4.8-1.7 1.9-2.9 3.6-3.2 6.2 0 1 0 1 .1 1.9v2.1c.2 6.1.6 11.5-1.9 17.2-2.7 1.5-2.7 1.5-5.8 1.8-14.6 1.4-29.6 6.8-40.5 16.9l-1.3 1.3c-1.8 1.6-2.8 2.1-5.2 2.1-4.8-1-8.1-4.6-11.2-8.2-1.8-2.2-3.5-3.8-6-5.1-2.3-.3-4.4-.4-6.5.6-2.5 2.4-2.9 4.2-3 7.5 1 3.6 3.8 5.8 6.9 7.6 2.6 1.5 5.1 3.1 7.4 5.1 2.2 2.4 3.7 4.3 3.6 7.7-8.8 13.2-10.2 27.7-9.6 43.1 0 .6 0 1.2.1 1.8 0 1.1.1 2.3.1 3.4.1 2 .1 3.6-.3 5.6-1.8 1.6-3.2 2.4-5.4 3.1-.5.1-1 .2-1.4.3-1.1.3-2.2.5-3.2.7-3.2.7-5.5 1.2-8.1 3.2-1.4 1.9-1.7 3.2-1.6 5.6.6 2.4 1.7 3.6 3.6 5.2 3.5.8 5.5.8 8.8-.9 4-2.2 7.3-3.7 12-3.7 1.4.6 1.4.6 2.1 2.1 5.4 11.7 13.2 22.4 23.8 29.9.4.3.9.6 1.3.9.8.6 1.7 1.1 2.5 1.7 1.6 1 2.7 1.8 4.1 3.1.4 3.2 0 5-1.8 7.8-2.2 3.5-4.6 6.7-4.9 11 1 2.6 1.7 3.7 4 5.3 2 .4 3.8.5 5.8 0 2.5-1.7 2.5-1.7 4.3-7.1.4-1.1.8-2.2 1.1-3.4.2-.6.4-1.1.6-1.6.7-2.1 1.5-3.8 3-5.5 2.2-.3 3.9-.1 6.1.3 5.5 1.1 10.9 1.1 16.5 1.1 1.6 0 3.1 0 4.7-.1h7.8c3.6 5 3.6 5 4.8 11.1.4 2.2.9 4.4 1.7 6.4 1.6 2 3.3 3.1 5.8 3.6 2.6-.5 4.3-1.6 5.8-3.6.9-3.1 1-4.8-.4-7.7-2.5-4.4-4.6-8.6-4.1-13.7.7-.8.7-.8 2.2-1.5 11.9-6.2 23.3-13.9 30.9-25.2 1.9-2.8 2.8-4.9 6.2-5.7 3 .8 5.4 2 7.8 3.8 2.8 2.3 5 4.2 8.7 4.2 3-.4 3.4-.4 5.2-2.8 1.3-2.4 1.7-3.4 1.2-6-2-3-3.8-4.4-7.1-5.7-3.6-1.4-7.1-2.5-9.8-5.3-.8-2-.7-3.1-.2-5.3 4.6-15 4.9-31-.3-45.8-.8-2-1.5-3.9-1.4-6.1 5-6 5-6 12.4-9 4-1.5 6.5-2.8 8.9-6.4.2-2.2.4-3.7-.7-5.7m-50.7 79.5c-1.4-.7-2.8-1.3-4.2-2-4.6-2.2-9.2-4.5-14-6.2-2.4-.6-2.4-.6-4.2.4-.5.6-1 1.1-1.4 1.6-1.5 1.3-1.5 1.3-2.6 3.2.1 1.7.5 3.3 1 4.9.2.7.4 1.3.6 1.9.6 2.1 1.2 4.1 1.8 6.2.4 1.4.9 2.8 1.3 4.3 1.2 4.2 2.5 8.4 3.7 12.6 2.5-.4 4.5-1.2 6.7-2.5.4-.3.8-.5 1.3-.8 5.3-3.2 9.5-6.9 13.7-11.4.3-.4.7-.7 1-1 2.1-2.2 3.7-4.1 4.6-7-2.3-.9-4.4-1.8-6.6-2.9-1-.4-1.9-.8-2.7-1.3m17.7-44.7c-.6-2.4-.6-2.4-1.4-4.3-1.9-.6-1.9-.6-3.1-.2-.4.3-.9.5-1.3.7-.5.3-1 .6-1.5.8-1.1.6-2.2 1.3-3.3 1.9-.6.3-1.2.7-1.8 1l-6 3.3c-4.6 2.3-9.6 4.5-13.4 8-1.3 2.5-1.1 4.6-.6 7.4.8 2.2.8 2.2 4.2 3.9.4.2.9.4 1.3.6 1.5.7 2.9 1.5 4.4 2.2l1.8.9c2.1 1 4.2 2.1 6.4 3.1.7.4 1.5.7 2.2 1.1s1.4.7 2.1 1l2 1c2.3 1.1 4.3 1.8 6.7 2.2 3.5-10.4 4.5-21.5 2-32.3-.2-.8-.5-1.6-.7-2.3m-16.1 187.4c-.5.6-1 1.1-1.5 1.7-4.1 4.5-7.2 9.2-10.1 14.5-.3.6-.6 1.2-.9 1.7-3.7-.6-7.4-.7-11.1-.7h-6.2c-1.8 0-3-.1-4.6.7-1.7 1.7-3.1 2.8-3.5 5.3 0 2.9.2 4.4 2.1 6.5 2.4 1.5 4 1.6 6.8 1.7 1.2 0 2.3 0 3.5.1h1.7c2.6 0 4.7.4 7.2 1.4 3.8 1.5 7.3 2.7 11.4 2 2.2-1.5 2.2-1.5 4.5-6.5 3.3-7.2 7.3-13.9 13.5-19 .7-.6.7-.6 1.5-1.1 7.1-6.1 14.9-9.4 24-11.5 15-2.9 30 .7 42.6 9 11.7 8.5 18.5 20.7 21 34.7.2 1.1.3 2.2.5 3.3.6 2.8 1.6 4.3 4 6.1 3 .8 5.2.6 8.2-.3 2.2-.7 4.5-1.3 6.8-1.7 7.5-.5 15.3 1.5 21.4 6 6.7 5.8 9.5 12.3 10.5 20.9.2 2.7.3 4.5 1.9 6.8 1.9 1.4 3 1.9 5.3 2.1 2.5-.2 3-.7 4.8-2.5 1.7-2.1 1.9-3.7 1.9-6.4 0-.5 0-1-.1-1.5 0-1.8-.1-3.6-.2-5.5-1.7-10.9-8.4-20.4-17.2-26.9-9.6-6.3-20.7-9.2-32.1-7.2-.4.1-.9.2-1.3.3 0-11.5-9.5-25-17.2-33-13-13.1-29.5-20.8-48-21.1h-2.1c-18.3 0-36.6 6.8-49 20.1M58.4 387.9c-1.7 1.7-3.1 2.8-3.5 5.3 0 3.2.3 4.5 2.5 6.8 2.2 1.8 4.1 2 6.9 2h148.8c2.1 0 3.5-.3 5.3-1.5 1.8-2.2 2.6-3.5 2.8-6.3-.3-2.7-.6-3.1-2.4-5.1-2.2-1.8-4.1-2-6.9-2h-61.2c-7.6 0-15.2 0-22.7.1H62.3c-1.7 0-2.5 0-3.9.7m319-162.7c-5.7 3.4-9 7-10.8 13.5-.7 6.1.8 11.3 4.5 16.2 3.4 3.6 7.9 5.5 12.9 6 5.3.1 10.2-1.7 14.3-5.1 4.1-4.4 5.8-9.8 5.6-15.8-.8-5-3.4-9.9-7.4-12.9-5.9-3.4-12.9-5.1-19.1-1.9M133 316.3c-3.9 4.3-6.2 8.6-6 14.4.5 4.4 2.5 9.3 5.9 12.3 1 .7 1 .7 2.1 1.4 4.4 3.1 9 3.2 14.3 2.6 4.6-1.1 8.2-3.3 11-7.1 2.6-4.5 3.4-9.2 2.6-14.3-1.6-4.6-3.6-8.5-7.8-11-7.5-3.6-15.6-4.1-22.1 1.7"/></svg>