<?xml version="1.0" encoding="utf-8"?>
<!-- Generator: Adobe Illustrator 28.2.0, SVG Export Plug-In . SVG Version: 6.00 Build 0)  -->
<svg version="1.1"
	 id="svg2" xmlns:inkscape="http://www.inkscape.org/namespaces/inkscape" xmlns:sodipodi="http://sodipodi.sourceforge.net/DTD/sodipodi-0.dtd" xmlns:rdf="http://www.w3.org/1999/02/22-rdf-syntax-ns#" xmlns:dc="http://purl.org/dc/elements/1.1/" xmlns:cc="http://creativecommons.org/ns#" xmlns:svg="http://www.w3.org/2000/svg" inkscape:version="0.46" sodipodi:version="0.32"
	 xmlns="http://www.w3.org/2000/svg" xmlns:xlink="http://www.w3.org/1999/xlink" x="0px" y="0px" viewBox="0 0 512 512"
	 style="enable-background:new 0 0 512 512;" xml:space="preserve">
<style type="text/css">
	.st0{fill:#FFFFFF;}
</style>
<g id="g3209">
	<path id="path3204" class="st0" d="M462.6,359c0,47.4-38.5,85.9-85.9,85.9c-47.4,0-85.9-38.5-85.9-85.9c0-47.4,38.5-85.9,85.9-85.9
		C424.2,273.2,462.6,311.6,462.6,359z"/>
	<path class="st0" d="M396.3,190.4c17.3-45.6-50.2-111.9-111.1-82.6C242.3,67.4,194.5,51,150.6,51.6C28.9,53.4-63.7,185.8,55.1,306
		l31.7,82.5c5.3,18.9-12.6,60.4-4.7,71.9c9.1-17.8,11.4-43.2,23.4-46.2c21.1,14.8,52.4,19.8,70.1,38.9c6.6-18.5-20.2-27.9-42.6-38.5
		c21,3.5,35.5-7.8,51,10.3c2.3-9.2-0.6-16.2-6.7-21.8l-9.5-12.8c17.5,9.2,61.2,9.2,71.2,25.3c3.9-30.5-32.8-20.1-50.1-29.3
		c11.2,1.4,22.4-4.2,33.5-2.6c-3-8.6-8.1-12.3-15.6-11.6c-59.6,14.1-63.8-85.5-62.9-113.8c80-33.6,160.7,26.7,225.1-31.2
		c21.1-31.1,108,50.2,134.8,119.1C543.6,329.4,429.5,220,396.3,190.4z M145,382.3l16,20.4c-54.5,4.2-58.7-26.2-68.1-76.6
		c2.9-18.7,15.7-28.1,25.4-28.3c5.8-0.1,10.6,3,11.5,9.5l12.9,61.2c-7,2-10,8.9-8.6,21.3C137,386.3,138.2,380.4,145,382.3z
		 M327.7,191c-13.6,0-24.5-11.5-24.5-25.8c0-14.2,11-25.8,24.5-25.8c13.6,0,24.5,11.5,24.5,25.8C352.2,179.4,341.2,191,327.7,191z"
		/>
	
		<path id="path4159-1" sodipodi:cx="448.50772" sodipodi:cy="78.701393" sodipodi:rx="15.404826" sodipodi:ry="14.520943" sodipodi:type="arc" class="st0" d="
		M349.4,178.1c0,9.1-7,16.5-15.7,16.5c-8.7,0-15.7-7.4-15.7-16.5s7-16.5,15.7-16.5C342.4,161.6,349.4,169,349.4,178.1z"/>
</g>
</svg>
