<svg xmlns="http://www.w3.org/2000/svg" xml:space="preserve" viewBox="0 0 512 512"><path d="M462.6 359c0 47.4-38.5 85.9-85.9 85.9s-85.9-38.5-85.9-85.9 38.5-85.9 85.9-85.9c47.5.1 85.9 38.5 85.9 85.9m-66.3-168.6c17.3-45.6-50.2-111.9-111.1-82.6-42.9-40.4-90.7-56.8-134.6-56.2C28.9 53.4-63.7 185.8 55.1 306l31.7 82.5c5.3 18.9-12.6 60.4-4.7 71.9 9.1-17.8 11.4-43.2 23.4-46.2 21.1 14.8 52.4 19.8 70.1 38.9 6.6-18.5-20.2-27.9-42.6-38.5 21 3.5 35.5-7.8 51 10.3 2.3-9.2-.6-16.2-6.7-21.8l-9.5-12.8c17.5 9.2 61.2 9.2 71.2 25.3 3.9-30.5-32.8-20.1-50.1-29.3 11.2 1.4 22.4-4.2 33.5-2.6-3-8.6-8.1-12.3-15.6-11.6-59.6 14.1-63.8-85.5-62.9-113.8 80-33.6 160.7 26.7 225.1-31.2 21.1-31.1 108 50.2 134.8 119.1 39.8-16.8-74.3-126.2-107.5-155.8M145 382.3l16 20.4c-54.5 4.2-58.7-26.2-68.1-76.6 2.9-18.7 15.7-28.1 25.4-28.3 5.8-.1 10.6 3 11.5 9.5l12.9 61.2c-7 2-10 8.9-8.6 21.3 2.9-3.5 4.1-9.4 10.9-7.5m204.4-205.1c-.4-8.7-7.2-15.6-15.7-15.6-8.7 0-15.7 7.4-15.7 16.5 0 5 2.1 9.5 5.5 12.5-11.6-2.1-20.3-12.6-20.3-25.4 0-14.2 11-25.8 24.5-25.8 13.6 0 24.5 11.5 24.5 25.8 0 4.3-1 8.4-2.8 12"/></svg>