<svg xmlns="http://www.w3.org/2000/svg" xml:space="preserve" viewBox="0 0 512 512"><path d="M144.9 16.7c-17.7-5.9-32.8-8.9-45.7-9.9 13.1 1 28.3 3.9 46.1 9.5-.3.2-.4.4-.4.4M96.6 6.6h.2zM133.2 57c16.4 11.7 27.1 16.8 34.9 20.2 1.8.6 3.7 1.4 5.4 2.2 6.8 2.8 11.4 4.9 17 11.7.5.5.8.7.8.7-14.3-20.4-18-8.7-57.1-35.8-26.5-18.3-47.4-25.9-63.3-28.1 16 2.8 36.6 10.9 62.3 29.1m105.7-38.3c9 1 19.3 3.1 28.2 7.2 11.6 1.2 23.4 3.5 23.4 3.5-16.5-8.1-38.1-10.2-51.6-10.7m-23.7-.8s4.8-.3 12 0c11.8-9 20.1-9 20.1-9-6.1-.6-12.4-.3-18.4.5-3.2.9-8.1 3.3-13.7 8.5m-94.1 89.4s-5.9.9-6 7.2c0 0-.2-.4-.5-1.2-5.7 27.3.9 52 .9 52-.9-14.6 1.6-25 4.3-31.8-.5-8-.3-17 1.3-26.2M68 30.7c-9.2-1.8-18.4-2-27 0-1.8.7-3.4 1.5-4.8 2.2.9 0 1.7 0 2.6.1 9-3.4 19-3.8 29.2-2.3m85.2-14s2.1-1.7 5.5-4C163.2 6.2 172 0 172 0c-3.6.6-8.1 3.3-12.3 6.3-2.8 3.1-5.7 6.9-6.5 10.4m34.2 397c-12.9-16.5-25.9-37.9-30.5-61 0 0-3.8 9-1.2 21.5 0 0-24.8-56.5-21.5-89.4 0 0-11.8 19.6-11.9 29.8 0 0 .3-23 8.3-38.1 0 0-4-20.3 3.6-42.9s3.2-46 1.2-50.1c0 0-2.2 9.8-6 14.3 0 0 9.6-53.4 2.4-78.7 0 0-2.5 2.8-4.6 8.8 3.5 28.6-9.1 78.6-9.1 78.6 4.5-4.5 7.6-15 7.6-15 1.9 4.6 5.2 30.4-4.9 54.6s-7.2 47.3-7.2 47.3c-10.2 15.9-12.3 41.8-12.3 41.8.9-11.5 15.6-32 15.6-32-6.2 36.8 18 106.5 18 106.5-2.1-15.1 2.9-25 2.9-25 8.5 63 68.5 127.2 68.5 127.2-14.3-36.6-19.3-69.5-18.9-98.2m44.5-156.3s-25.3 33.2-31.3 84.4c13.6-36.7 32.8-56.9 32.8-56.9 11 33.8 47 59.7 47 59.7-6.8-16.3-9.9-30.4-10.3-42.7-5.5-3.5-29.3-20.2-38.2-44.5M108.5 116.8c.3-4.3 3.2-6 5.2-6.7-1.7-6.4-3.9-19.3 1.4-33.8 0 0-55.1-35-60.8-39.3 0 0-2.9-1.4-7.4-2.3 2.6.8 4.2 1.6 4.2 1.6 5.4 4.3 60.1 41.1 60.1 41.1-9.5 21-2.7 39.4-2.7 39.4m64.8-95.9c-.6.4-1 .6-1 .6s5.5-1.3 10.3-2c4.3-2.1 9.7-4.7 9.7-4.7-3 0-5.9.1-8.6.5-2.7 1.4-8.1 4.4-10.4 5.6M399 208c29 8.3 86.7 10.9 86.7 10.9-47.7-35.9-50.2-42.1-108.6-118.4C321.5 28 255 25.3 255 25.3h2.7c-5.6-.8-12.2-1.5-17.4-1.4 0 0 55.2 2.1 100.1 65.5s46.3 67.8 79.8 94.1c0 0-40.8 1.5-62-3.6 0 0-10.3 17.6 20.3 31 0 0-46.6-1-59.6-13.1 0 0-83.5 21.2-48.9 102.2-.5-64.7 76-74.7 76-74.7 16.8 15.9 80.3 22.7 80.3 22.7-41.6-19.9-27.3-40-27.3-40M160.4 20.3s3.2-1.9 8.6-3.6c9.1-6.8 21.3-13 21.3-13-3.2 0-6.6.6-9.9 1.5-4.7 2.8-14.5 9.1-20 15.1M85.3 6.4c-46.2 1.3-59 28.3-59 28.3 1.4-.5 2.8-.9 4.1-1.1 3.7-6.6 17.8-26 54.9-27.2" style="opacity:.5;fill-rule:evenodd;clip-rule:evenodd"/><path d="M247.4 75.6c.3 6.6-7.6 10.8-16.3 9.4-7.4-1.2-12.7-6.1-12.7-11.1 0-2.3 1.1-4.4 3-6.1-.1.4-.2.9-.2 1.3 0 2.6 2.4 4.8 5.4 4.8s5.4-2.1 5.4-4.8c0-2-1.4-3.8-3.5-4.4.8-.1 1.5-.2 2.4-.2 8.2-.4 16.3 4.5 16.5 11.1M358.2 180s-10.3 17.6 20.3 31c0 0-46.6-1-59.6-13.1 0 0-85.4 21.6-47.7 104.9 0 0-29.2-17.8-39.3-45.3 0 0-63.6 83.4-13.1 189.5 0 0-51.6-42.8-62-94.1 0 0-3.8 9-1.2 21.5 0 0-24.8-56.5-21.5-89.4 0 0-11.8 19.6-11.9 29.8 0 0 .3-23 8.3-38.1 0 0-4-20.3 3.6-42.9s3.2-46 1.2-50.1c0 0-2.2 9.8-6 14.3 0 0 9.6-53.4 2.4-78.7 0 0-10.7 12.1-7.2 40.5 0 0-8.3-24.8-3.6-52.4 0 0-5.9.9-6 7.2 0 0-7.6-17.4 0-38.1 0 0-55.1-35-60.8-39.3 0 0-8.2-3.9-17.9-2.9 29.5-13.4 70.6 8.4 95.3 24.4 13.2 8.9 19.7 14.5 33.4 17.9s26.2 15.5 26.2 15.5c-14.1-20.7-17.8-9-56.9-36.1C75.6 15.7 44.7 27.3 33.9 34.4c-1.5.3-3 .7-4.6 1.3 0 0 20.3-50.6 115.6-19.1 0 0 13-15.2 21.5-16.7 0 0-11.4 9.1-13.1 16.7 0 0 16.2-13.2 29.8-13.1 0 0-15.2 8.7-22.6 16.7 0 0 10.1-6.1 25-6 0 0-9 4.9-12.1 6.6-.6.4-1 .6-1 .6s9.3-2.2 14.3-2.4c0 0 24.3-13.2 46.5-10.7 0 0-7.6.1-17.9 9.5 0 0 32.9-2.2 54.8 9.5 0 0-18.3-3.8-29.8-3.6 0 0 55.2 2.1 100.1 65.5s46.3 67.8 79.8 94.1c0 .2-40.8 1.8-62-3.3M144.9 40.5c-3-13-11.9-4.8-11.9-4.8s1.9 5.4 4.8 7.2 7.1-2.4 7.1-2.4m112 39.3S256 66 239 60.7c-20.7-5.8-27.4 10.7-27.4 10.7.6 11.5 9.8 23.2 23.8 25 14.1 2 21.5-16.6 21.5-16.6"/></svg>