<svg xmlns="http://www.w3.org/2000/svg" xml:space="preserve" viewBox="0 0 512 512"><path d="M204.3 443.7c-5.7-5.8-11.5-11.4-17.1-17.3-20.8-21.8-38.1-46.2-51.9-73-.5-1-1.2-1.8-1.9-2.8-.4-1.1-.7-2.4-1.2-3.4-13.1-26.8-22.2-55-27.8-84.3-4.1-21.6-6.3-43.4-6.5-65.3-.1-11.7.4-23.4 1.3-35.1.8-11 2.4-21.9 3.8-32.8.8-5.8 1.9-11.5 2.9-17.3v.1c.1-.5.2-.9.2-1.4 4.3-18.5 17.5-28.2 34.1-34.5 16.4-6.2 33.4-9.3 50.9-9.4 46.2-.1 91.5-6.1 135.2-21.4 29.4-10.3 56.7-24.5 80.6-44.6.5-.5 1.2-.8 2.1-1.3-1.5 5.4-25.1 28.3-43.9 42.7-16.3 12.5-33.7 23.3-53.1 32.1 2.2 1 3.7 1.7 5.3 2.4 25.5 11.6 48.7 26.5 68 47 21.9 23.3 35.5 50.8 40.9 82.4 4.9 28.8 2.8 57.2-4.8 85.3-.3.9-.6 1.9-1.3 2.7.4-3.4.8-6.9 1-10.3.8-12.3-.6-24.1-7-34.9-3.8-6.3-8.9-11.2-16.3-14.5.5 5.4 1 10.5 1.5 15.6 1.8 18.7 2.3 37.3.7 56-1.4 16.5-4.3 32.6-9.7 48.2-4.6 13-10.6 25.1-19.8 35.5-1.2 1.4-2.3 2.9-3.5 4.4l-.8-.8V375h-.6c-1.5 7.8-2.7 15.7-4.4 23.5-6.3 28.7-17.8 55.1-36.6 77.9-11.4 13.9-24.8 25.5-40.8 34-.9.5-1.8.9-2.8 1.3-.2.1-.4-.1-.4-.1 2-6.6 4.6-13.1 6-19.8 4-19.2.8-37.7-6.8-55.5-2.1-5-4.7-9.7-7.2-14.5-.4-.8-1.3-1.4-1.9-2.2-.4-1.1-.7-2.4-1.3-3.4-8.4-13.9-18.7-26.2-29.8-37.9-14.3-15.1-30.1-28.4-46.8-40.7-2.9-2.2-6-4.1-9.4-6.4-.8 10.3.4 19.6 2.2 28.9 4 20.7 11.2 40.4 20.9 59 7.9 15.2 17.1 29.6 25.7 44.4.7 1.1 1.2 2.4 1.7 3.6-.7-.3-1.5-.5-2.1-1-9.1-7.3-18.3-14.8-27.5-22.4m4.3 9.3c-.6 10.1-2.5 19.1-5.7 27.3-1.2 3.2-2.7 6.2-4.1 9.2 10.9-4.8 21-11.4 30.2-19.9-6.9-5.5-13.6-11-20.4-16.6M88.7 210.4c-2.4 29.2-1.2 58 3.7 85.8 7.9 44.7 25.2 86.5 51.5 124.4-7.9-24.5-12.8-46.8-14.9-69-.1-.2-.1-.5-.2-.7-.2-.6-.4-1.2-.6-1.7-12.9-26.4-22.4-55.1-28.1-85.5-4.2-22-6.4-44.2-6.5-66.1-.1-8.8.2-17.9.8-27.8-2.7 13.3-4.5 26.8-5.7 40.6m177.2 209.3c-.1-.3-.2-.6-.3-.8-7.2-11.9-16.4-23.7-29.2-37.1-12.9-13.6-28-26.7-46.2-40.2-.8-.6-1.6-1.2-2.4-1.7.2 7.3 1.3 14 2.4 19.8 3.8 19.6 10.7 39 20.5 57.8 5.3 10.3 11.4 20.4 17.3 30.3 2.7 4.6 5.6 9.3 8.3 13.9.1.2.3.5.4.7 11.3-11.7 20.9-25.7 29.2-42.7"/></svg>