<svg xmlns="http://www.w3.org/2000/svg" xml:space="preserve" viewBox="0 0 512 512"><path d="M127.9 257.2c69.6-60.8 119.4-135.9 158.6-218.7 5.4-11.4 10.2-23 15.1-34.5-14.8-2.7-30-4-45.6-4C114.6 0 0 114.6 0 256c0 25.5 3.8 50.2 10.7 73.4 44.2-17.4 82.5-41.9 117.2-72.2m246.9 225.6C456.4 440 512 354.5 512 256c0-31.7-5.8-62.1-16.3-90.1-72.8 30.2-145.1 60.2-218 90.5 27.4 76.9 54.2 155.1 97.1 226.4M44.9 400.9C91.1 468 168.4 512 256 512c21.7 0 42.7-2.7 62.9-7.8-32.5-76-64.6-151.1-96.3-225.4C162.7 320 104 360.3 44.9 400.9m430.3-277.3c-31.5-52.1-81.1-92-140-111.1-21.3 63.3-38.6 127.1-70.3 188.5 74.1-18.9 142.4-46.8 210.3-77.4" style="fill:#fff"/></svg>