<?xml version="1.0" encoding="utf-8"?>
<!-- Generator: Adobe Illustrator 28.2.0, SVG Export Plug-In . SVG Version: 6.00 Build 0)  -->
<svg version="1.1" id="Layer_1" xmlns="http://www.w3.org/2000/svg" xmlns:xlink="http://www.w3.org/1999/xlink" x="0px" y="0px"
	 viewBox="0 0 512 512" style="enable-background:new 0 0 512 512;" xml:space="preserve">
<g>
	<g>
		<g>
			<path d="M254.1,333.7c5.1,7.1,5.1,7.1,4.3,12.4c-3.4-2.4-7-3.9-9-6.7c-7.6-10.4-12.2-22-14.6-34.8c-1.7-9.2-6.1-17.9-9-26.9
				c-1-3.2-1.6-6.7-1.9-10.1c-0.3-3.2-0.1-6.4-0.1-10c-6,4.2-11.1,0.3-16.1-1.4c-7.5-2.4-13.6-7.1-18.9-13.2
				c-3.9-4.5-8.9-8.2-13.9-11.5c-5.4-3.7-8.6-7.7-7.9-14.7c0.6-5.8-3.1-10.8-8.2-12.6c0.9,4.5,1.7,8.7,2.5,13
				c2,10.9-0.2,21.4-3.7,31.7c-5,14.7-10.1,29.4-14.8,44.3c-1.5,4.7-1.7,9.7-2.5,14.5c-0.1,0.7,0,1.7,0.5,2.1
				c5.6,4.5,5.8,11.6,8.3,17.5c0.6,1.5,0.4,3.4,0.7,6.1c-4.3-2.7-7.4-5.9-11.7-3.2c-1.2,0.7-2.3,1.6-3.1,2.7
				c-2.9,3.6-5.6,7.3-9.3,12.1c2.4-8.3-6.6-7.8-7.8-13.3c-5,2.6-12.5,0.4-14.3,8.8c-0.4-0.2-0.9-0.4-1.3-0.6c0-2.4-0.2-4.9,0.1-7.3
				c0.4-3.4-0.6-5.4-4.1-6.1c-1.5-0.3-2.9-1-4.5-1.6c-2,1.6-4.1,3.4-6.2,5.2c-0.4-0.2-0.8-0.4-1.2-0.6c0.9-2.5,1.2-5.9,2.9-7.3
				c3.5-2.7,4.7-6.4,6.6-10c0.8-1.6,1.7-3.5,3-4.6c10.5-8.6,12.7-21.1,14.1-33.2c1.8-15.7,2.1-31.6,5.3-47.2
				c2.9-14.1,4.3-28.4,7.3-42.5c2.2-10.3,6.5-19.9,17.2-24.5c9.4-4,18.2-3.4,27.1,2.5c5.8,3.9,12.6,6.2,19.1,8.9
				c13.7,5.6,27.8,9.8,42.5,11.9c6.1,0.9,12.5,0.1,18.8-0.4c-5-2.5-10-2.8-15.5-2.3c-5,0.4-10.2-1.7-15.3-2.9
				c-1.2-0.3-2.2-1.1-3.3-1.6c3.5-5.5,3.5-5.5,16.7-13.5c-3.1,0.7-6.4,1-9.3,2.2c-5,2-9.6,4.9-14.6,6.7c-2.4,0.8-5.6,0.5-8.1-0.5
				c-8.1-3.1-16-6.6-23.9-10.1c-1.2-0.5-2.1-1.7-3.6-3c6.7-2.7,12.8-4.8,18.7-7.5c9.6-4.3,19.6-4,29.7-2.7c3,0.4,6.1,0.2,9.1,0.1
				c3.4-0.1,6.3-1.2,8.8-3.8c11-11.3,24.2-19,39.5-22.9c9.6-2.4,19.4-4,29.2-5.4c12.8-1.9,21.9-8.3,26.6-20.5
				c2.7-6.9,0-12.9-3.7-18.2c-7.4-10.8-17.3-18.5-30-22.3c-7.2-2.2-14.2-5.1-21.5-6.7c-7.1-1.5-14.5-2.1-21.9-2.5
				c-11.3-0.6-22.6-1.7-33.8-0.5c-11.5,1.2-22.9,4.7-34.1,7.7c-13.5,3.6-25.9,9.8-38,16.6c-27.8,15.7-51.3,36.1-69.9,62.2
				c-11.7,16.3-20.9,33.9-27.6,52.6c-7.7,21.6-11.7,44-12.1,66.9c-0.3,16.3,1.3,32.4,4.6,48.4c5.7,28.3,16.9,54.2,33.3,77.8
				c17.7,25.6,40,46.3,66.8,62.3c16.1,9.6,33,17,50.9,22c16.9,4.7,34.2,8.1,51.9,7.4c13.1-0.5,26.3-0.2,39.2-2
				c12.2-1.7,24.3-5.1,36-8.9c16.1-5.2,31.2-12.7,45.5-21.9c26.3-16.8,47.9-38.3,65-64.5c10.5-16.1,21.4-32.1,28.3-50.2
				c5.1-13.2,9.3-26.8,13.3-40.4c6.8-23.7,7.8-48.1,6.8-72.5c-0.4-10.5-2.1-20.9-3.9-31.3c-3.3-19-8.8-37.5-17-55
				c-6.9-14.6-15.3-28.5-22.7-42.1c-0.1-0.1,1,0.2,1.7,0.9c19.4,20.7,35.2,43.8,46.8,69.7c6.2,13.8,10.9,28.2,14.8,42.9
				c5.3,20.4,7.6,41.1,7.7,61.9c0.1,15.2-1.4,30.5-4.1,45.6c-3.4,18.9-8.8,37.1-16.2,54.6c-9.7,22.9-22.7,43.9-38.7,63
				c-20.3,24.3-44.1,44.2-71.7,59.7c-15.8,8.9-32.5,16.2-49.8,21.3c-22.5,6.7-45.5,11-69.1,10.8c-13.1-0.1-26.3-0.6-39.4-1.8
				c-9.4-0.9-18.8-2.9-27.9-5.3c-18.5-4.9-36.4-11.5-53.6-20.2c-26.1-13.2-49.2-30.4-69.3-51.6c-19.5-20.6-35.8-43.5-46.9-69.8
				C18.6,348.8,13,335,9.1,320.9c-4.3-15.6-7.3-31.6-7.8-48.1c-0.4-10.9-0.4-21.6-0.4-32.8c0.6-4.8,0.9-9.3,1.7-13.7
				c2-11.6,3.2-23.4,6.4-34.6c3.8-13.6,8.4-27.2,14.3-40.1c5.7-12.7,13-24.7,20.4-36.5c11.8-19,27.3-35.1,43.8-50.2
				c20.7-18.9,44.3-33.5,70.1-44.1c13.1-5.4,26.9-9.1,40.6-12.7c26.3-7.1,53.2-8.2,80.3-6c18.6,1.5,35.7,7.7,52.5,15.5
				c11,5.1,20.9,11.5,29.5,19.9c8.7,8.5,14.6,18.7,19.2,29.8c2.6,6.3,5.3,12.5,7.2,19c5.6,18.8-1.1,34.6-14.8,46.9
				c-12.9,11.6-28.7,13.6-45.5,8.4c-11.2-3.4-22.7-5.9-34.5-4.4c-6.5,0.8-12.6,3.8-16.6,9.4c7.3-1.4,14.6-3.5,22-3.8
				c6.6-0.3,13.4,1.1,20,2.2c10.3,1.7,20.1,5.7,30.9,4.9c3.7-0.3,7.8,1.4,11.4,2.9c3.3,1.4,6.3,3.6,10.5,6.2
				c-8.7,4.5-16.4,9-24.6,12.4c-8,3.3-16.4,5.6-24.8,7.9c-3.7,1-7.8,1.6-11.5,1.2c-2.2-0.2-4.4-2.6-6.2-4.4c-2.9-3-6-5.3-10.8-6.5
				c3.3,3.8,6,7,9.5,11c-6.8-0.2-12.4-3.7-17.8,1.4c10.3,0.7,20.6,1.8,30.9,1.9c5,0,10-1.9,14.9-3.4c6.6-2,13.2-4.1,19.7-6.6
				c7.7-2.9,15.1-6.7,22.8-9.4c8.5-3,17.1,0.2,23.2,7.1c5.9,6.6,8.5,14,8.4,22.9c-0.2,14.7-1.2,29.3-3.3,44
				c-1.4,10.2-1.2,20.8,0,31.1c1,9.1,5.1,17.2,13.1,23.2c3.4,2.6,5,7.7,7.4,11.6c0.3,0.5,0.6,1.4,1,1.6c4.4,1.8,5.1,5.8,6,11.3
				c-2.9-1.5-5-2.7-7.1-3.8c-2.9-1.6-5.8-4.1-8.4,0.3c-0.5,0.9-0.7,2.2-0.7,3.3c0.1,2.1,0.4,4.2,0.7,6.8c-1.3-0.5-2.3-0.6-2.4-1
				c-2.1-6.3-8.2-6.2-13-8.2c-1.9-0.8-5.3,2.8-5.7,5.6c-0.3,2.2-0.8,4.3-1.2,6.5c-0.4,0-0.9,0.1-1.3,0.1c-0.9-2.2-2.2-4.3-2.6-6.6
				c-1.5-8.9-9.1-12.1-16.3-6.7c-0.7,0.6-1.7,0.9-3,1c3.1-6.2-0.2-13.8,6.2-19.3c4.3-3.7,3.5-10.2,2.7-15.4
				c-1.8-10.7-4.5-21.3-6.8-32c-1.2-5.6-3.6-11.2-3.5-16.7c0.1-5.7,2.6-11.3,4-17c0.8-3,1.7-5.9,2.7-9.5c-5.5,1.3-6.7,5.5-8.5,9
				c-1.2,2.2-1,5.2-2.4,7.2c-2.3,3.4-4.8,7-8.1,9.2c-9.3,6.2-18.9,11.9-28.5,17.6c-1.5,0.9-3.5,1.1-5.3,1.6
				c-6.1,1.4-9.1,0.3-12.8-4.8c-0.2,0.9-0.5,1.5-0.4,2c2.4,12.9-0.9,25-4.6,37.2c-2.6,8.6-4,17.5-5.9,26.3
				c-1.9,8.6-2.7,17.7-7.9,25.1c-4.2,6.1-9.2,11.7-17.7,10.9c-2.3,11.6-1.5,22.8,3.2,33.6c-0.6,0.2-1.1,0.4-1.7,0.6
				c-2.1-4.1-4.2-8.1-6.3-12.3c-2.2,3.8-4.4,7.5-7.3,12.5c-0.7-2.1-1.4-3.1-1.1-3.7c1.1-3,2.3-6,3.7-8.9c3.1-6.3,2.8-13.2,1.6-19.5
				c-0.7-3.9-0.4-6.4,1.4-9c2.3-0.4,4.4-0.8,6.5-1.2c-0.1-0.3-0.2-0.7-0.3-1c-4.9-1.2-9.8-2.4-15.1-4c-1.1-0.5-1.7-0.6-2.4-0.7
				C253,332.8,253.5,333.3,254.1,333.7z"/>
			<path d="M263.2,512c-0.6,0-1.2,0-1.7,0c-15.4-0.1-27.9-0.7-39.5-1.8c-8.4-0.8-17.5-2.6-28-5.3c-19.1-5.1-37.2-11.9-53.8-20.3
				c-26.1-13.2-49.5-30.6-69.6-51.8c-21.2-22.4-36.7-45.3-47.1-70c-5.6-13.2-11.4-27.3-15.3-41.6c-4.8-17.3-7.3-33.1-7.8-48.3
				C0,261.9,0,251.3,0,240l0-0.1c0.1-1.3,0.3-2.5,0.4-3.7c0.4-3.5,0.7-6.8,1.3-10.1c0.5-3.2,1-6.4,1.5-9.5c1.3-8.3,2.6-17,4.9-25.2
				c4.2-15.2,8.9-28.3,14.3-40.3c5.8-12.9,13.3-25.1,20.4-36.6c13.1-21.1,30.3-38,43.9-50.4c20.2-18.4,43.9-33.3,70.4-44.3
				c12.6-5.2,26.1-8.8,39.1-12.4l1.6-0.4C222,0.6,248.4-1.4,278.4,1c16.3,1.3,32.5,6.1,52.8,15.6c11.8,5.5,21.5,12.1,29.7,20.1
				c7.9,7.7,14.2,17.5,19.4,30.1l1,2.4c2.2,5.4,4.6,11,6.2,16.7c5.3,17.7,0.1,34.3-15,47.8c-12.6,11.3-28.2,14.2-46.3,8.6
				c-9.2-2.9-21.5-5.9-34.1-4.4c-5.9,0.7-10.9,3.2-14.4,7.1c1.4-0.3,2.8-0.6,4.2-0.9c5.1-1.1,10.3-2.2,15.5-2.5
				c5.8-0.3,11.7,0.8,17.5,1.7c0.9,0.2,1.8,0.3,2.7,0.5c3.4,0.6,6.7,1.4,10,2.2c6.7,1.6,13.6,3.3,20.7,2.8c3.9-0.3,8.1,1.4,11.8,2.9
				c2.4,1,4.5,2.3,7,3.9c1.2,0.8,2.4,1.5,3.8,2.4l1.4,0.8l-1.5,0.7c-2.7,1.4-5.3,2.8-7.8,4.1c-5.7,3.1-11.1,5.9-16.8,8.3
				c-7.8,3.2-16.2,5.5-24.2,7.7l-0.6,0.2c-4.4,1.2-8.4,1.6-11.9,1.2c-2.5-0.3-4.7-2.6-6.6-4.5l-0.2-0.2c-1.9-2-4.1-3.9-7.4-5.3
				l8.7,10.1l-2.1-0.1c-2.1-0.1-4-0.4-5.8-0.7c-3.6-0.7-6.6-1.2-9.5,0.5c2.2,0.2,4.5,0.3,6.7,0.5c7.1,0.6,14.5,1.2,21.7,1.2
				c0,0,0,0,0,0c3.9,0,8-1.3,12-2.5c0.9-0.3,1.8-0.6,2.7-0.8c7.7-2.3,13.9-4.3,19.6-6.5c3.4-1.3,6.9-2.8,10.2-4.3
				c4.1-1.8,8.3-3.6,12.6-5.2c8.4-3,17.5-0.2,24.2,7.4c5.9,6.7,8.8,14.4,8.6,23.5c-0.2,15.5-1.3,30-3.3,44.1
				c-1.3,9.5-1.3,19.9,0,30.9c1.1,9.5,5.4,17.1,12.8,22.6c2.5,1.9,4.1,5,5.6,8c0.7,1.3,1.3,2.6,2.1,3.8c0.1,0.2,0.2,0.4,0.3,0.6
				c0.1,0.2,0.3,0.5,0.3,0.6c4.9,2,5.6,6.6,6.5,11.9l0.3,1.8l-1.6-0.9c-1.2-0.6-2.2-1.2-3.2-1.7c-1.4-0.8-2.7-1.4-4-2.1
				c-0.4-0.2-0.7-0.4-1.1-0.6c-2.8-1.6-4.3-2.4-6.1,0.6c-0.4,0.7-0.6,1.7-0.5,2.8c0,1.4,0.2,2.8,0.4,4.5c0.1,0.7,0.2,1.5,0.3,2.3
				l0.2,1.5l-1.4-0.5c-0.4-0.2-0.9-0.3-1.2-0.4c-0.8-0.2-1.5-0.4-1.8-1.1c-1.5-4.3-5-5.4-8.8-6.4c-1.2-0.4-2.5-0.7-3.7-1.2
				c-0.3-0.1-0.7,0-1.2,0.3c-1.5,0.9-3,3-3.2,4.5c-0.2,1.5-0.5,3.1-0.8,4.5c-0.1,0.7-0.3,1.3-0.4,2l-0.1,0.7l-2.7,0.2l-0.2-0.6
				c-0.3-0.7-0.6-1.4-0.9-2c-0.7-1.5-1.4-3.1-1.7-4.7c-0.7-4-2.7-6.9-5.5-8c-2.8-1.1-6.2-0.5-9.3,1.9c-0.9,0.7-2,1-3.5,1.2l-1.6,0.1
				l0.7-1.5c1.1-2.3,1.3-4.8,1.6-7.4c0.4-4.2,0.7-8.6,4.9-12.2c3.9-3.3,3.2-9.3,2.4-14.6c-1.3-7.8-3.1-15.6-4.8-23.2
				c-0.7-2.9-1.3-5.8-2-8.7c-0.4-1.7-0.9-3.5-1.4-5.3c-1.1-3.8-2.2-7.7-2.1-11.7c0.1-4.2,1.4-8.3,2.6-12.3c0.5-1.6,1-3.3,1.4-4.9
				c0.5-1.9,1.1-3.9,1.7-5.9c0.2-0.6,0.4-1.3,0.6-2c-3.1,1.3-4.3,3.8-5.6,6.5c-0.2,0.5-0.5,1-0.8,1.5c-0.5,0.9-0.7,2-1,3.1
				c-0.3,1.4-0.7,2.9-1.5,4.2c-2.5,3.7-5.1,7.2-8.4,9.5c-7.9,5.4-16.3,10.3-24.4,15.2l-4.2,2.5c-1.3,0.8-2.9,1.1-4.3,1.4
				c-0.4,0.1-0.8,0.2-1.2,0.3c-5.8,1.4-9.1,0.5-12.5-3.5c2.3,12.6-0.8,24.4-4.6,37.3c-1.7,5.9-3,12-4.2,17.9
				c-0.6,2.7-1.1,5.5-1.7,8.3c-0.4,1.7-0.7,3.5-1.1,5.3c-1.3,6.9-2.7,14.1-7,20.2c-4.3,6.2-9.4,11.8-17.7,11.4
				c-2.2,11.6-1.1,22.2,3.3,32.3l0.4,0.9l-0.9,0.3c-0.6,0.2-1.1,0.4-1.7,0.6l-0.8,0.3l-0.4-0.7c-1.8-3.6-3.7-7.1-5.5-10.8
				c-1.9,3.3-3.9,6.7-6.5,11l-1,1.7l-0.6-1.9c-0.3-0.8-0.5-1.4-0.7-1.9c-0.4-1-0.7-1.7-0.4-2.4c1.3-3.7,2.5-6.4,3.7-8.9
				c2.5-5.1,3-11.1,1.5-18.9c-0.8-4.2-0.4-7,1.5-9.7l0.2-0.3l0.4-0.1c1.5-0.3,3-0.5,4.4-0.8c-4-1-8.1-2-12.5-3.3
				c4.3,6.1,4.5,6.6,3.7,12l-0.2,1.5l-1.2-0.9c-1.1-0.8-2.2-1.5-3.3-2.1c-2.3-1.4-4.5-2.8-6-4.8c-7.4-10.1-12.3-21.6-14.8-35.2
				c-1.1-5.9-3.3-11.7-5.5-17.3c-1.2-3.1-2.4-6.3-3.5-9.5c-0.9-2.9-1.6-6.2-2-10.3c-0.2-2.2-0.2-4.5-0.1-6.8c0-0.5,0-1.1,0-1.6
				c-4.6,2.4-8.7,0.6-12.4-0.9c-1.1-0.4-2.1-0.9-3.1-1.2c-7.2-2.4-13.6-6.8-19.3-13.5c-3.8-4.5-8.9-8.1-13.7-11.4
				c-4.8-3.3-9.1-7.4-8.3-15.5c0.5-4.5-2-8.9-6.1-11c0.2,0.8,0.3,1.7,0.5,2.5c0.6,3,1.2,5.9,1.7,8.8c2.2,12.2-0.8,23.6-3.8,32.2
				l-1.8,5.4c-4.3,12.7-8.8,25.8-12.9,38.8c-1,3.3-1.5,6.8-1.9,10.2c-0.2,1.4-0.3,2.8-0.6,4.2c-0.1,0.5,0,1.1,0.2,1.2
				c4.1,3.3,5.5,7.9,6.7,12.4c0.5,1.8,1.1,3.7,1.8,5.5c0.5,1.1,0.5,2.4,0.6,3.9c0,0.7,0.1,1.6,0.2,2.5l0.2,1.9l-1.6-1
				c-0.7-0.4-1.4-0.9-2-1.3c-3.6-2.4-5.8-3.7-8.7-1.9c-1.2,0.7-2.2,1.6-2.9,2.5c-2,2.5-3.9,5.1-6.2,8c-1,1.3-2,2.6-3.1,4.1l-2.9,3.9
				l1.3-4.7c1.2-4.3-0.8-5.8-3.4-7.6c-1.5-1.1-3.2-2.3-4-4.2c-1.4,0.6-3,0.9-4.4,1.2c-3.9,0.7-7.3,1.4-8.4,6.6l-0.2,1.1l-2.9-1.4
				v-0.6c0-0.7,0-1.5,0-2.2c-0.1-1.7-0.1-3.4,0.1-5.1c0.4-3.1-0.5-4.5-3.3-5.1c-1.1-0.2-2.1-0.6-3.2-1.1c-0.3-0.1-0.7-0.3-1-0.4
				l-6.3,5.2l-0.8-0.4c-0.3-0.2-0.6-0.3-1-0.5l-0.7-0.4l0.3-0.8c0.3-0.7,0.5-1.5,0.7-2.4c0.5-2,1.1-4.1,2.5-5.3
				c2.6-2.1,3.9-4.8,5.3-7.6c0.3-0.7,0.7-1.4,1-2.1l0.3-0.6c0.8-1.5,1.6-3.2,3-4.3c10.3-8.4,12.4-20.7,13.8-32.6
				c0.6-5.3,1-10.6,1.5-15.8c0.9-10.3,1.7-21,3.9-31.5c1.4-6.7,2.4-13.6,3.4-20.3c1.1-7.3,2.3-14.9,3.9-22.2
				c1.8-8.3,5.6-20,17.7-25.1c9.9-4.2,19.1-3.4,28,2.6c4.6,3.1,10,5.2,15.2,7.3c1.3,0.5,2.5,1,3.7,1.5c14.1,5.8,28.3,9.8,42.2,11.8
				c4.8,0.7,9.8,0.4,14.7,0c-4-1.2-8-1.1-11.4-0.8c-3.8,0.3-7.7-0.7-11.4-1.8c-1.4-0.4-2.8-0.8-4.2-1.1c-0.9-0.2-1.8-0.7-2.5-1.2
				c-0.3-0.2-0.6-0.4-1-0.6l-0.9-0.5l0.5-0.8c3.2-5,3.8-5.7,12.6-11.1c-1.4,0.3-2.8,0.6-4.1,1.2c-2.2,0.9-4.3,1.9-6.4,3
				c-2.7,1.3-5.4,2.7-8.3,3.7c-2.9,1-6.5,0.4-8.7-0.5c-7.3-2.8-14.5-6-21.6-9.1l-2.4-1c-0.9-0.4-1.6-1.1-2.5-1.9
				c-0.4-0.4-0.8-0.8-1.4-1.2l-1.2-1l1.4-0.6c2.1-0.8,4.2-1.6,6.2-2.4c4.4-1.7,8.5-3.3,12.5-5.1c10.3-4.6,21-3.9,30.2-2.7
				c2.4,0.3,5,0.2,7.5,0.1c0.5,0,1,0,1.5-0.1c3.4-0.1,6-1.2,8.2-3.5c11.2-11.5,24.6-19.3,39.9-23.1c9.4-2.4,18.8-3.9,29.3-5.4
				c13-2,21.5-8.5,25.9-19.9c2.6-6.9-0.3-12.7-3.6-17.4c-7.6-11-17.5-18.4-29.5-21.9c-2.7-0.8-5.4-1.8-8.1-2.7
				c-4.4-1.5-8.9-3.1-13.4-4c-7.4-1.6-15.1-2.1-21.7-2.5c-2.3-0.1-4.5-0.2-6.8-0.4c-8.9-0.5-18-1.1-26.8-0.1c-9.3,1-18.7,3.5-27.7,6
				c-2.1,0.6-4.2,1.1-6.3,1.7c-14,3.7-27,10.4-37.8,16.5c-28.2,15.9-51.7,36.8-69.6,62c-11.7,16.3-20.9,33.9-27.5,52.4
				c-7.6,21.3-11.6,43.7-12,66.6c-0.3,15.9,1.3,32.1,4.5,48.2c5.6,27.7,16.8,53.8,33.1,77.5c17.4,25.2,39.8,46,66.5,62
				c16.2,9.7,33.2,17,50.7,21.9c20,5.6,36.4,7.9,51.6,7.3c3.6-0.1,7.3-0.2,10.9-0.3c9.3-0.2,19-0.4,28.3-1.7
				c13.1-1.9,26.1-5.7,35.9-8.9c15.3-4.9,30.1-12.1,45.3-21.8c25.9-16.6,47.7-38.2,64.7-64.2l2.2-3.4c9.6-14.7,19.6-29.9,26-46.5
				c4.5-11.7,8.7-24.5,13.2-40.4c5.9-20.4,8-42.7,6.7-72.2c-0.5-10.8-2.2-21.8-3.9-31.2c-3.4-19.8-9.2-38.2-17-54.7
				c-4.8-10.1-10.3-20-15.7-29.5c-2.3-4.1-4.6-8.3-6.9-12.3l-0.3-0.2l0.1-1.2l0.6-0.2c0.6-0.2,2,0.6,2.6,1.2
				c19.8,21.1,35.6,44.6,46.9,69.9c5.8,13,10.7,27.1,14.8,43c5.1,19.5,7.6,39.8,7.8,62.2c0.1,14.7-1.3,30.1-4.2,45.7
				c-3.5,19.2-9,37.7-16.3,54.8c-9.7,22.8-22.8,44.1-38.8,63.2c-20.3,24.3-44.6,44.5-71.9,59.9c-16.2,9.1-33.1,16.4-50,21.4
				C306.4,508.4,284.2,512,263.2,512z M1.8,240c0,11.2,0,21.9,0.4,32.7c0.5,15.1,3,30.8,7.8,47.9c3.9,14.2,9.7,28.2,15.2,41.3
				c10.4,24.5,25.7,47.3,46.7,69.5c20,21,43.2,38.3,69.1,51.4c16.4,8.3,34.4,15.1,53.4,20.1c10.4,2.8,19.5,4.5,27.7,5.3
				c11.5,1.1,24,1.7,39.3,1.8c21.4,0.2,43.9-3.3,68.8-10.8c16.8-5,33.5-12.2,49.6-21.3c27.2-15.3,51.2-35.4,71.4-59.5
				c15.9-19,28.9-40.1,38.5-62.8c7.3-17.1,12.7-35.4,16.2-54.4c2.8-15.5,4.2-30.8,4.1-45.4c-0.1-22.2-2.6-42.4-7.7-61.7
				c-4.1-15.9-9-29.8-14.7-42.8c-10.8-24.2-25.7-46.7-44.4-67c1.5,2.7,3.1,5.5,4.6,8.2c5.4,9.6,11,19.5,15.8,29.6
				c7.9,16.7,13.6,35.3,17.1,55.2c1.6,9.5,3.4,20.5,3.9,31.4c1.2,29.7-0.9,52.2-6.8,72.8c-4.6,15.9-8.8,28.8-13.3,40.5
				c-6.5,16.9-16.5,32.1-26.1,46.9l-2.2,3.4c-17.2,26.2-39.1,48-65.3,64.8c-15.3,9.8-30.3,17-45.7,22c-9.9,3.2-22.9,7.1-36.2,9
				c-9.4,1.3-19.1,1.5-28.5,1.7c-3.6,0.1-7.2,0.2-10.8,0.3c-15.4,0.6-31.9-1.8-52.2-7.4c-17.6-4.9-34.8-12.3-51.1-22.1
				c-27-16.1-49.5-37.2-67.1-62.6C62.8,354.3,51.6,328,45.9,300c-3.3-16.3-4.8-32.6-4.6-48.6c0.4-23.1,4.5-45.7,12.1-67.2
				c6.6-18.6,16-36.4,27.7-52.8c18.1-25.4,41.8-46.4,70.2-62.5c10.9-6.2,24-13,38.2-16.7c2.1-0.6,4.2-1.1,6.3-1.7
				c9.1-2.5,18.5-5,28-6c9-1,18.2-0.4,27.1,0.1c2.3,0.1,4.5,0.3,6.8,0.4c6.7,0.3,14.5,0.9,22,2.5c4.6,1,9.2,2.6,13.6,4.1
				c2.6,0.9,5.3,1.8,8,2.6c12.4,3.7,22.7,11.3,30.5,22.7c3.3,4.8,6.8,11.4,3.8,19.1c-4.7,12.1-13.6,19-27.3,21.1
				c-10.4,1.6-19.7,3.1-29.1,5.4c-14.9,3.8-28.1,11.4-39,22.6c-2.6,2.6-5.6,3.9-9.4,4.1c-0.5,0-1,0-1.5,0.1
				c-2.6,0.1-5.2,0.2-7.8-0.1c-9.3-1.3-19.3-1.8-29.2,2.6c-4.1,1.8-8.2,3.4-12.6,5.1c-1.6,0.6-3.2,1.2-4.8,1.9
				c0.1,0.1,0.2,0.2,0.3,0.3c0.7,0.7,1.3,1.3,2,1.5l2.4,1c7,3.1,14.2,6.3,21.5,9.1c2.1,0.8,5.2,1.2,7.4,0.5c2.8-1,5.5-2.3,8.1-3.6
				c2.1-1.1,4.3-2.1,6.5-3c2.1-0.8,4.4-1.3,6.5-1.7c1-0.2,2-0.4,2.9-0.6l5.5-1.3l-4.8,2.9c-12.3,7.5-13,7.9-15.9,12.4
				c0.1,0,0.1,0.1,0.2,0.1c0.7,0.4,1.3,0.8,2,1c1.4,0.3,2.9,0.7,4.3,1.1c3.6,1,7.3,2,10.8,1.7c4.7-0.4,10.3-0.5,15.9,2.4l2.9,1.5
				l-3.2,0.3c-0.7,0.1-1.5,0.1-2.2,0.2c-5.5,0.5-11.2,1-16.7,0.2c-14.1-2.1-28.5-6.1-42.7-12c-1.2-0.5-2.5-1-3.7-1.5
				c-5.3-2.1-10.8-4.3-15.6-7.5c-8.3-5.6-16.9-6.4-26.2-2.4c-8.8,3.7-13.9,11.1-16.7,23.8c-1.6,7.3-2.7,14.8-3.8,22.1
				c-1,6.7-2.1,13.6-3.5,20.3c-2.1,10.3-3,21-3.8,31.3c-0.4,5.2-0.9,10.6-1.5,15.9c-1.4,12.3-3.6,25-14.4,33.8
				c-1.1,0.9-1.8,2.3-2.5,3.7l-0.3,0.6c-0.3,0.7-0.7,1.3-1,2c-1.4,2.9-2.9,5.9-5.8,8.3c-1,0.8-1.4,2.6-1.9,4.3
				c-0.2,0.6-0.3,1.2-0.5,1.8l6.2-5.1L94,324c0.5,0.2,1.1,0.4,1.6,0.6c1,0.4,1.9,0.8,2.8,1c3.7,0.7,5.3,3.1,4.8,7.1
				c-0.2,1.6-0.1,3.2-0.1,4.8c0,0.4,0,0.7,0,1.1c1.7-4.8,5.8-5.6,9.3-6.3c1.8-0.3,3.5-0.7,4.9-1.4l1.1-0.6l0.3,1.2
				c0.4,1.9,2,3,3.6,4.1c1.9,1.4,4.3,3,4.5,6.1c0.4-0.5,0.7-1,1.1-1.5c2.2-3,4.2-5.5,6.2-8c0.8-1.1,2-2.1,3.4-2.9
				c4.1-2.6,7.3-0.4,10.7,1.9c0.1,0.1,0.3,0.2,0.4,0.3c0-0.2,0-0.5,0-0.7c-0.1-1.4-0.1-2.4-0.5-3.3c-0.8-1.8-1.3-3.8-1.9-5.7
				c-1.3-4.4-2.5-8.5-6.2-11.5c-0.8-0.6-0.9-2.1-0.8-2.9c0.2-1.4,0.4-2.7,0.6-4.1c0.4-3.5,0.9-7.1,2-10.6c4.1-13,8.6-26.2,12.9-38.9
				l1.8-5.4c2.9-8.4,5.9-19.5,3.7-31.2c-0.5-2.9-1.1-5.8-1.7-8.8c-0.3-1.4-0.5-2.8-0.8-4.2l-0.3-1.6l1.5,0.5c5.8,2,9.4,7.6,8.8,13.6
				c-0.7,6.8,2.5,10.5,7.5,13.9c4.9,3.4,10.1,7,14.1,11.7c5.5,6.5,11.6,10.7,18.5,13c1.1,0.4,2.2,0.8,3.2,1.2
				c4,1.7,7.8,3.3,12.1,0.2l1.4-1v1.7c0,1.1,0,2.2,0,3.3c-0.1,2.3-0.1,4.5,0.1,6.6c0.4,4,1,7.1,1.9,9.9c1,3.2,2.2,6.3,3.4,9.4
				c2.2,5.7,4.5,11.6,5.6,17.7c2.5,13.3,7.2,24.6,14.4,34.4c1.2,1.7,3.3,3,5.4,4.3c0.7,0.4,1.4,0.9,2.1,1.3c0.5-3.6,0-4.3-4.3-10.2
				c-0.5-0.4-1-0.8-1.6-1.2L249,331l3.5,0.5c0.7,0.1,1.4,0.2,2.6,0.7c5.1,1.5,9.9,2.7,14.5,3.8l1,0.2l0.8,2.5l-1,0.2
				c-2,0.4-3.9,0.7-6.1,1.1c-1.4,2.2-1.7,4.5-1,8c1.6,8.2,1.1,14.6-1.6,20.1c-1.2,2.5-2.3,5.2-3.6,8.8c0,0.1,0.2,0.6,0.4,1.1
				c0,0.1,0,0.1,0.1,0.2c2.4-4.2,4.4-7.5,6.3-10.8l0.8-1.4l0.8,1.5c2,3.9,4,7.7,5.9,11.6c0,0,0,0,0,0c-4.3-10.4-5.3-21.3-2.9-33.3
				l0.2-0.8l0.8,0.1c8.2,0.8,13-5,16.8-10.5c4-5.8,5.4-12.7,6.7-19.5c0.3-1.7,0.7-3.6,1.1-5.3c0.6-2.7,1.2-5.5,1.7-8.3
				c1.2-6,2.5-12.2,4.2-18.1c3.8-12.9,6.8-24.5,4.5-36.8c-0.1-0.6,0-1.1,0.2-1.6c0.1-0.2,0.2-0.5,0.2-0.8l0.4-2l1.2,1.7
				c3.5,4.8,6.1,5.8,11.9,4.5c0.4-0.1,0.9-0.2,1.3-0.3c1.4-0.3,2.7-0.6,3.8-1.2l4.2-2.5c8.1-4.8,16.4-9.8,24.3-15.1
				c3.1-2.1,5.5-5.4,7.9-9c0.6-0.9,0.9-2.2,1.2-3.5c0.3-1.2,0.5-2.5,1.1-3.6c0.3-0.5,0.5-1,0.7-1.5c1.5-3.2,3.2-6.7,8.4-8l1.5-0.4
				l-0.4,1.5c-0.4,1.3-0.7,2.5-1,3.6c-0.6,2-1.2,4-1.7,5.9c-0.4,1.7-1,3.4-1.5,5c-1.2,3.9-2.5,7.9-2.5,11.8c-0.1,3.6,1,7.4,2.1,11.1
				c0.5,1.8,1,3.6,1.4,5.4c0.6,2.9,1.3,5.8,2,8.7c1.7,7.6,3.5,15.5,4.8,23.3c1,5.8,1.6,12.3-3,16.2c-3.6,3.1-3.9,6.9-4.3,10.9
				c-0.2,2.2-0.4,4.4-1.1,6.5c0.4-0.1,0.7-0.3,1-0.5c3.7-2.7,7.7-3.5,11.1-2.1c3.4,1.4,5.9,4.8,6.6,9.4c0.2,1.4,0.9,2.8,1.6,4.3
				c0.2,0.5,0.5,1,0.7,1.5c0.1-0.4,0.2-0.9,0.3-1.3c0.3-1.4,0.6-2.9,0.8-4.4c0.3-2.1,2.1-4.7,4.1-5.9c1-0.6,2-0.7,2.9-0.4
				c1.1,0.4,2.3,0.8,3.5,1.1c3.8,1.1,8.1,2.3,9.9,7.4c0.1,0.1,0.4,0.1,0.6,0.2c0-0.3-0.1-0.6-0.1-0.9c-0.2-1.7-0.4-3.1-0.4-4.6
				c0-0.9,0-2.5,0.8-3.8c2.7-4.6,6.1-2.7,8.6-1.2c0.4,0.2,0.7,0.4,1.1,0.6c1.3,0.7,2.5,1.4,4,2.1c0.5,0.3,1,0.5,1.5,0.8
				c-0.8-4.6-1.7-7.3-5.1-8.7c-0.7-0.3-1-0.9-1.2-1.5c-0.1-0.2-0.2-0.3-0.2-0.5c-0.8-1.3-1.5-2.6-2.1-4c-1.5-2.9-2.9-5.7-5.1-7.4
				c-7.8-5.8-12.3-13.9-13.5-23.9c-1.3-11.2-1.3-21.7,0-31.3c1.9-14.1,3-28.4,3.2-43.9c0.1-8.8-2.4-15.8-8.1-22.3
				c-6.2-7-14.5-9.6-22.2-6.9c-4.2,1.5-8.4,3.3-12.5,5.1c-3.4,1.5-6.8,3-10.3,4.3c-5.8,2.2-12.1,4.3-19.8,6.6
				c-0.9,0.3-1.8,0.5-2.7,0.8c-4.1,1.3-8.3,2.6-12.5,2.6c0,0,0,0,0,0c-7.3,0-14.7-0.6-21.9-1.2c-3-0.2-6-0.5-9.1-0.7l-2.1-0.1
				l1.5-1.4c4.1-3.9,8.4-3.2,12.9-2.3c1.1,0.2,2.2,0.4,3.4,0.5l-9.9-11.5l2.8,0.7c5.5,1.4,8.8,4.2,11.3,6.7l0.2,0.2
				c1.6,1.7,3.6,3.8,5.4,4c3.3,0.4,7.1-0.1,11.2-1.2l0.6-0.2c8-2.2,16.3-4.5,24-7.7c5.6-2.3,11-5.2,16.6-8.2
				c2.1-1.1,4.2-2.3,6.4-3.4c-0.8-0.5-1.6-1-2.4-1.6c-2.4-1.5-4.4-2.9-6.6-3.7c-3.6-1.5-7.5-3.1-11-2.8c-7.4,0.6-14.5-1.2-21.3-2.8
				c-3.2-0.8-6.5-1.6-9.8-2.1c-0.9-0.2-1.8-0.3-2.7-0.5c-5.6-1-11.5-2-17.1-1.7c-5.1,0.2-10.2,1.4-15.2,2.5c-2.2,0.5-4.4,1-6.6,1.4
				l-2.2,0.4l1.3-1.8c3.8-5.4,9.9-8.9,17.2-9.8c12.9-1.6,25.4,1.6,34.8,4.5c17.5,5.4,32.5,2.6,44.6-8.2
				c14.7-13.2,19.6-28.7,14.5-45.9c-1.7-5.6-4-11.2-6.2-16.5l-1-2.4c-5.1-12.4-11.3-22-19-29.5c-8-7.8-17.6-14.3-29.2-19.7
				c-20.1-9.4-36.2-14.2-52.2-15.5c-29.8-2.4-56-0.5-80,6l-1.6,0.4c-13,3.5-26.4,7.1-38.9,12.3C131.5,32.4,108,47.2,88,65.5
				c-13.5,12.3-30.6,29.1-43.6,50c-7.1,11.4-14.5,23.6-20.3,36.4c-5.4,11.8-10,24.9-14.2,40c-2.3,8.1-3.6,16.7-4.8,25
				c-0.5,3.1-1,6.4-1.5,9.5c-0.6,3.2-0.9,6.5-1.3,10C2.1,237.6,2,238.8,1.8,240z"/>
		</g>
		<g>
			<path d="M156.1,289.5c-2.8,0.5-5.2,0.8-8.3,1.3c2.1-5.4,4.3-10.3,5.9-15.3c4.1-12.9,7.9-25.9,11.9-38.9c0.4-1.4,1.6-2.6,2.4-3.9
				c1.1,0.8,2.2,1.5,3.2,2.5c4.8,5,1.8,10.4,0.2,15.3c-1.3,3.8-3.8,7.2-6,10.7c-4.5,7.4-5.7,15.4-5.1,23.8
				C160.4,288,159.2,289.2,156.1,289.5z"/>
			<path d="M146.4,291.9l0.6-1.5c0.7-1.7,1.3-3.4,2-5c1.4-3.5,2.8-6.9,3.9-10.3c2.3-7.4,4.6-14.9,6.8-22.2
				c1.7-5.5,3.4-11.2,5.1-16.7c0.3-1.1,1-2.1,1.7-3c0.3-0.4,0.5-0.7,0.8-1.1l0.5-0.9l0.8,0.6c0.3,0.3,0.7,0.5,1,0.8
				c0.8,0.5,1.5,1.1,2.2,1.8c4.6,4.7,2.7,9.7,1.1,14.1c-0.3,0.7-0.5,1.4-0.7,2.1c-1,3-2.8,5.8-4.5,8.4c-0.5,0.8-1.1,1.6-1.6,2.5
				c-4,6.6-5.7,14.2-4.9,23.3c0.1,1.8-0.2,3.1-1,4c-0.8,0.9-2,1.3-3.9,1.5c-2.7,0.5-5.1,0.8-8.2,1.3L146.4,291.9z M168.1,234
				c-0.1,0.1-0.2,0.3-0.3,0.4c-0.6,0.8-1.2,1.6-1.4,2.4c-1.7,5.6-3.4,11.2-5.1,16.7c-2.2,7.3-4.5,14.8-6.8,22.2
				c-1.1,3.5-2.5,6.9-3.9,10.4c-0.5,1.1-0.9,2.3-1.4,3.5c2.4-0.4,4.4-0.7,6.7-1.1l0.1,0c1.4-0.1,2.3-0.4,2.7-0.9
				c0.5-0.5,0.6-1.3,0.5-2.6c-0.8-9.5,1-17.4,5.2-24.4c0.5-0.8,1-1.7,1.6-2.5c1.7-2.6,3.4-5.2,4.3-8c0.2-0.7,0.5-1.4,0.8-2.1
				c1.6-4.3,3.1-8.4-0.7-12.2c-0.6-0.6-1.3-1.1-2-1.6C168.3,234.1,168.2,234.1,168.1,234z"/>
		</g>
		<g>
			<path d="M356.2,234.8c1.4-0.8,2.4-1.5,4.1-2.5c0.6,2.8,1.2,5.4,1.7,8c2.3,11.4,4.9,22.7,6.7,34.2c0.5,3,3.7,7.5-1.9,9.6
				c-0.9,0.3-2.3,0.4-2.9-0.1c-0.6-0.5-0.9-1.9-0.7-2.9c2.4-12.4-1.1-23.7-5.4-35.1C356.4,242.6,356.4,238.6,356.2,234.8z"/>
			<path d="M365.3,285.2c-0.8,0-1.5-0.2-2-0.6c-0.9-0.8-1.2-2.5-1-3.7c2.4-12.5-1.4-23.9-5.4-34.6c-1.1-2.9-1.3-6.1-1.4-9.2
				c0-0.7-0.1-1.5-0.1-2.2l0-0.5l0.5-0.3c1.2-0.8,2.2-1.4,3.7-2.2l1.5-0.9l0.7,3c0.5,2.1,0.9,4.2,1.3,6.2c0.6,3,1.2,6,1.9,9
				c1.7,8.2,3.5,16.7,4.8,25.2c0.1,0.6,0.3,1.3,0.5,2c0.9,2.7,2.2,6.7-3,8.6C366.6,285.1,365.9,285.2,365.3,285.2z M357.1,235.3
				c0,0.6,0.1,1.1,0.1,1.7c0.2,3.1,0.3,6.1,1.3,8.7c4.1,10.9,8,22.7,5.5,35.6c-0.1,0.7,0.1,1.8,0.4,2c0.2,0.2,1.2,0.3,2,0
				c3.4-1.2,2.9-3.2,1.9-6.3c-0.3-0.8-0.5-1.5-0.6-2.3c-1.3-8.4-3.1-16.9-4.8-25.1c-0.6-3-1.3-6-1.9-9.1c-0.4-2-0.8-4-1.3-6.2
				l-0.1-0.6C358.7,234.3,357.9,234.7,357.1,235.3z"/>
		</g>
	</g>
</g>
</svg>
