<?xml version="1.0" encoding="utf-8"?>
<!-- Generator: Adobe Illustrator 28.2.0, SVG Export Plug-In . SVG Version: 6.00 Build 0)  -->
<svg version="1.1" id="Layer_1" xmlns="http://www.w3.org/2000/svg" xmlns:xlink="http://www.w3.org/1999/xlink" x="0px" y="0px"
	 viewBox="0 0 512 512" style="enable-background:new 0 0 512 512;" xml:space="preserve">
<style type="text/css">
	.st0{fill:#FFFFFF;}
</style>
<path class="st0" d="M387,86.6c5.2,17.4,0.2,32.8-14.6,46.2c-12.2,10.9-27.3,13.7-44.9,8.3c-9.4-3-22-6.1-35-4.5
	c-7.3,0.9-13.5,4.4-17.4,9.8l-1.3,1.9l2.2-0.4c2.2-0.4,4.4-1,6.6-1.4c5.1-1.1,10.3-2.2,15.4-2.4c5.7-0.2,11.6,0.8,17.2,1.8
	c0.9,0.1,1.9,0.3,2.8,0.4c3.3,0.6,6.6,1.3,9.8,2.1c6.9,1.7,13.9,3.4,21.4,2.9c3.5-0.2,7.5,1.4,11.1,2.9c2.2,0.9,4.2,2.2,6.6,3.8
	c0.8,0.4,1.5,1,2.4,1.5c-2.2,1.1-4.3,2.3-6.4,3.4c-5.7,3.1-11.2,6-16.8,8.3c-7.8,3.2-16.1,5.5-24.2,7.7l-0.7,0.2
	c-4.1,1.2-8,1.5-11.3,1.2c-1.9-0.2-3.9-2.3-5.5-4l-0.2-0.2c-2.5-2.5-5.9-5.4-11.4-6.7l-2.8-0.7l10,11.6c-1.2-0.1-2.3-0.3-3.4-0.6
	c-4.5-0.9-8.8-1.7-13,2.3l-1.5,1.4l2.1,0.1c3.1,0.2,6.2,0.4,9.2,0.7c7.2,0.6,14.6,1.2,22,1.2c4.2,0,8.5-1.2,12.6-2.5
	c0.9-0.2,1.8-0.6,2.7-0.8c7.7-2.3,14-4.4,19.9-6.6c3.5-1.3,7-2.9,10.4-4.3c4.1-1.9,8.3-3.6,12.6-5.2c7.7-2.8,16-0.2,22.3,6.9
	c5.7,6.5,8.3,13.6,8.2,22.4c-0.3,15.6-1.3,30.1-3.3,44.2c-1.3,9.6-1.3,20.2,0,31.5c1.2,10.1,5.7,18.1,13.6,24
	c2.2,1.7,3.6,4.4,5.1,7.4c0.8,1.3,1.4,2.7,2.2,4c0.1,0.1,0.1,0.3,0.2,0.4c0.2,0.4,0.6,1.1,1.2,1.4c3.4,1.4,4.4,4.2,5.2,8.8
	c-0.6-0.2-1-0.6-1.5-0.8c-1.4-0.8-2.8-1.4-4-2.1c-0.4-0.2-0.8-0.4-1.1-0.7c-2.4-1.4-5.9-3.4-8.6,1.2c-0.8,1.3-0.8,3-0.8,3.9
	c0,1.4,0.2,3,0.4,4.6c0,0.3,0.1,0.6,0.1,0.9c-0.2-0.1-0.4-0.2-0.6-0.2c-1.8-5.1-6.1-6.3-10-7.4c-1.2-0.3-2.4-0.7-3.5-1.1
	c-0.9-0.3-1.9-0.2-2.9,0.4c-2,1.2-3.8,3.9-4.1,6c-0.2,1.4-0.4,3-0.8,4.4c0,0.4-0.1,0.9-0.2,1.3c-0.2-0.6-0.4-1.1-0.7-1.5
	c-0.7-1.4-1.3-2.9-1.5-4.3c-0.8-4.6-3.2-8.1-6.6-9.5c-3.4-1.4-7.5-0.7-11.2,2.1c-0.3,0.2-0.7,0.4-1,0.6c0.8-2.1,0.9-4.3,1.1-6.5
	c0.3-4.1,0.7-8,4.3-11.1c4.6-4,4-10.5,3-16.4c-1.3-8-3.1-15.9-4.9-23.5c-0.7-2.9-1.3-5.9-2-8.7c-0.4-1.8-0.9-3.6-1.4-5.4
	c-1.1-3.6-2.2-7.5-2.1-11.2c0.1-3.9,1.3-8,2.5-11.8c0.4-1.5,1-3.3,1.4-5c0.4-2,1.1-3.9,1.7-6c0.4-1.2,0.8-2.3,1.1-3.6l0.4-1.5
	l-1.5,0.3c-5.3,1.3-7,4.9-8.5,8.1c-0.3,0.6-0.6,1.1-0.8,1.5c-0.6,1.2-0.9,2.4-1.1,3.6c-0.3,1.3-0.6,2.5-1.2,3.5
	c-2.4,3.6-4.9,7-8,9.1c-7.8,5.4-16.3,10.4-24.4,15.3l-4.2,2.5c-1,0.7-2.3,0.9-3.8,1.2c-0.4,0.1-0.9,0.2-1.3,0.3
	c-5.7,1.3-8.4,0.3-11.9-4.5l-1.2-1.7l-0.4,2c-0.1,0.2-0.1,0.6-0.2,0.8c-0.2,0.6-0.3,1.1-0.2,1.7c2.3,12.4-0.7,24.1-4.5,37
	c-1.8,6-3.1,12.3-4.3,18.2c-0.6,2.8-1.1,5.5-1.8,8.3c-0.4,1.8-0.8,3.5-1.1,5.3c-1.3,6.9-2.7,13.9-6.7,19.7
	c-3.9,5.5-8.6,11.4-16.9,10.6l-0.8-0.1l-0.1,0.8c-2.4,12.1-1.5,23,2.9,33.5c-2-3.9-4-7.6-6-11.6l-0.8-1.4l-0.9,1.4
	c-2,3.3-4,6.6-6.4,10.8c-0.1-0.1-0.1-0.2-0.1-0.2c-0.2-0.4-0.4-1-0.4-1.1c1.3-3.6,2.4-6.4,3.6-8.8c2.8-5.5,3.3-11.9,1.7-20.2
	c-0.8-3.5-0.4-5.9,1-8.1c2.1-0.3,4.1-0.8,6.1-1.1l1-0.2l-0.8-2.5l-1-0.2c-4.6-1.1-9.4-2.3-14.6-3.9c-1.1-0.6-1.9-0.7-2.5-0.8
	l-3.5-0.6l2.9,2.1c0.6,0.3,1,0.8,1.5,1.2c4.3,6,4.8,6.6,4.3,10.3c-0.7-0.4-1.4-0.9-2.1-1.3c-2.2-1.3-4.3-2.7-5.5-4.3
	c-7.3-10-12.1-21.3-14.5-34.7c-1.1-6.1-3.4-12.1-5.6-17.8c-1.2-3.1-2.4-6.3-3.4-9.5c-0.9-2.8-1.4-6-1.9-10c-0.2-2.1-0.1-4.3-0.1-6.6
	c0-1.1,0-2.2,0-3.3V257l-1.4,1c-4.3,3.1-8.2,1.4-12.2-0.2c-1-0.4-2.1-0.9-3.2-1.2c-7-2.2-13-6.5-18.6-13c-4-4.8-9.2-8.4-14.2-11.8
	c-5-3.4-8.2-7.1-7.5-13.9c0.7-6-3-11.5-8.8-13.6l-1.5-0.6l0.3,1.5c0.2,1.4,0.6,2.9,0.8,4.2c0.6,3,1.1,6,1.7,8.8
	c2.1,11.9-0.9,23.1-3.8,31.5l-1.9,5.4c-4.4,12.8-9,26-13,39.1c-1.1,3.4-1.5,7.1-2,10.6c-0.2,1.4-0.3,2.9-0.6,4.2
	c-0.1,0.9,0,2.3,0.8,3c3.8,3,5,7.1,6.2,11.5c0.6,1.9,1.1,3.9,1.9,5.7c0.3,0.9,0.3,2,0.4,3.3c0,0.2,0,0.4,0,0.7
	c-0.1-0.1-0.3-0.2-0.4-0.3c-3.4-2.3-6.6-4.4-10.7-1.9c-1.4,0.9-2.5,1.9-3.4,3c-2,2.5-4,5.1-6.2,8.1c-0.3,0.4-0.8,0.9-1.1,1.4
	c-0.2-3.2-2.5-4.9-4.5-6.2c-1.7-1.2-3.2-2.3-3.6-4.2l-0.2-1.2l-1.1,0.6c-1.4,0.8-3.2,1.1-5,1.4c-3.6,0.7-7.6,1.4-9.4,6.3
	c0-0.4,0-0.8,0-1.1c0-1.7-0.1-3.3,0.1-4.9c0.4-4-1.1-6.3-4.9-7.1c-0.9-0.2-1.9-0.6-2.9-1c-0.4-0.2-1-0.4-1.5-0.7l-0.6-0.2l-6.2,5.2
	c0.1-0.6,0.3-1.2,0.4-1.8c0.4-1.8,0.9-3.5,1.9-4.3c3-2.3,4.4-5.3,5.9-8.3c0.3-0.7,0.7-1.3,1-2l0.3-0.6c0.8-1.4,1.4-2.9,2.5-3.8
	c10.9-9,13.2-21.7,14.6-34.1c0.6-5.3,1-10.7,1.4-15.9c0.9-10.4,1.8-21.1,3.9-31.5c1.3-6.7,2.4-13.7,3.4-20.5
	c1.1-7.4,2.3-14.9,3.9-22.3c2.8-12.8,8-20.2,16.8-24c9.4-4,18-3.2,26.4,2.4c4.9,3.2,10.4,5.4,15.7,7.5c1.2,0.6,2.5,1,3.8,1.5
	c14.4,6,28.7,10,43,12.1c5.6,0.8,11.4,0.2,16.9-0.2c0.7-0.1,1.4-0.1,2.2-0.2l3.2-0.2l-2.9-1.4c-5.6-2.9-11.3-2.9-16-2.4
	c-3.4,0.2-7.2-0.8-10.8-1.8c-1.4-0.3-2.9-0.8-4.3-1.1c-0.7-0.2-1.3-0.6-2-1c-0.1,0-0.1-0.1-0.2-0.1c3-4.5,3.6-5,16-12.5l4.9-3
	l-5.5,1.3c-1,0.2-2,0.3-3,0.6c-2.2,0.3-4.5,0.8-6.6,1.7c-2.2,0.9-4.4,2-6.5,3.1c-2.7,1.3-5.4,2.7-8.2,3.6c-2.3,0.8-5.4,0.3-7.5-0.4
	c-7.3-2.8-14.6-6-21.7-9.1l-2.4-1.1c-0.7-0.2-1.2-0.9-2-1.5c-0.1-0.1-0.2-0.2-0.3-0.3c1.7-0.7,3.3-1.3,4.9-1.9
	c4.4-1.7,8.6-3.3,12.7-5.1c10-4.4,20-3.9,29.4-2.7c2.7,0.3,5.3,0.2,7.8,0.1c0.6-0.1,1-0.1,1.5-0.1c3.9-0.1,7-1.4,9.5-4.1
	c11.1-11.3,24.3-19,39.4-22.8c9.4-2.3,18.8-3.9,29.3-5.4c13.8-2.1,22.8-9.1,27.5-21.2c3-7.7-0.6-14.4-3.9-19.2
	c-7.8-11.4-18.2-19-30.7-22.8c-2.7-0.8-5.4-1.8-8.1-2.7c-4.4-1.5-9.1-3.1-13.7-4.1c-7.5-1.7-15.4-2.2-22.1-2.5
	c-2.3-0.1-4.5-0.2-6.9-0.3c-9-0.6-18.2-1.1-27.3-0.1c-9.5,1-19,3.6-28.2,6.1c-2.1,0.6-4.2,1.1-6.3,1.7
	c-14.3,3.8-27.4,10.6-38.5,16.8C122.1,84.7,98.3,106,80,131.5c-11.8,16.5-21.1,34.4-27.9,53.2c-7.7,21.6-11.8,44.3-12.3,67.7
	c-0.2,16.1,1.3,32.6,4.6,49c5.7,28.2,17.1,54.6,33.7,78.7c17.7,25.5,40.4,46.8,67.6,63c16.5,9.8,33.8,17.2,51.5,22.2
	c20.3,5.6,37,8,52.5,7.4c3.6-0.2,7.4-0.2,10.9-0.3c9.5-0.2,19.2-0.4,28.7-1.8c13.4-1.9,26.5-5.9,36.5-9.1
	c15.6-5,30.7-12.3,46.1-22.1c26.3-16.8,48.4-38.8,65.7-65.2l2.2-3.4c9.7-14.8,19.8-30.2,26.3-47.2c4.5-11.8,8.7-24.8,13.4-40.8
	c6-20.7,8.1-43.3,6.9-73.3c-0.6-11.1-2.3-22.1-4-31.6c-3.5-20.1-9.3-38.8-17.2-55.6c-4.9-10.3-10.5-20.2-15.9-29.9
	c-1.5-2.7-3.1-5.4-4.6-8.2c18.8,20.6,33.8,43.2,44.7,67.6c5.7,12.9,10.6,27.1,14.8,43c5.1,19.5,7.6,39.8,7.7,62.1
	c0,14.8-1.3,30.2-4.2,45.8c-3.4,19.2-9,37.7-16.3,54.8c-9.7,22.8-22.8,44.1-38.8,63.2c-20.3,24.3-44.6,44.4-72,59.9
	c-16.1,9.2-33.1,16.4-50,21.4c-25.1,7.5-47.8,11.1-69.3,10.8c-15.5-0.2-28-0.8-39.6-1.9c-8.4-0.8-17.5-2.5-28-5.3
	c-19.1-5.1-37.1-11.9-53.7-20.3c-26.1-13.2-49.4-30.6-69.5-51.7c-21.2-22.3-36.7-45.2-47.1-70c-5.6-13.2-11.4-27.3-15.4-41.6
	c-4.8-17.2-7.3-32.9-7.8-48.2C0,263,0,252.2,0,241c0.1-1.2,0.2-2.4,0.3-3.6c0.4-3.5,0.8-6.7,1.3-10.1c0.6-3.2,1.1-6.4,1.5-9.6
	c1.2-8.3,2.5-16.9,4.9-25.1c4.3-15.1,9-28.3,14.4-40.2c5.9-12.9,13.3-25.2,20.5-36.7c13-21,30.3-37.9,44.3-50.1
	C107.4,47,131,32.1,157.5,21.2c12.6-5.2,26.1-8.8,39.1-12.4l1.5-0.4c24.1-6.5,50.4-8.5,80.5-6.1c16.1,1.3,32.3,6.1,52.5,15.6
	c11.7,5.5,21.3,12.1,29.4,19.9c7.7,7.5,14,17.2,19.1,29.7l1,2.4C383,75.3,385.3,81,387,86.6z M165.3,259.2c1.7-2.5,3.4-5.2,4.3-8.1
	c0.2-0.7,0.4-1.4,0.8-2.1c1.5-4.3,3.1-8.4-0.7-12.3c-0.6-0.6-1.2-1.1-2-1.7c0-0.1-0.1-0.1-0.2-0.2c-0.1,0.1-0.2,0.2-0.3,0.4
	c-0.6,0.9-1.2,1.7-1.4,2.4c-1.8,5.6-3.4,11.3-5.1,16.8c-2.2,7.3-4.5,14.9-6.9,22.3c-1.1,3.5-2.4,7-4,10.5c-0.4,1.1-0.9,2.3-1.4,3.5
	c2.4-0.3,4.4-0.7,6.7-1.1h0.1c1.3-0.1,2.3-0.4,2.8-0.9c0.4-0.6,0.7-1.3,0.6-2.7c-0.8-9.5,1-17.6,5.2-24.5
	C164.3,260.9,164.8,260.1,165.3,259.2z M365.2,284.5c0.2,0.2,1.2,0.2,2,0c3.4-1.2,3-3.2,2-6.3c-0.2-0.8-0.6-1.5-0.7-2.3
	c-1.3-8.5-3.1-17-4.9-25.3c-0.7-3-1.3-6.1-1.9-9.2c-0.4-2-0.9-4.1-1.3-6.2l-0.1-0.6c-0.9,0.6-1.7,1-2.5,1.5c0,0.6,0.1,1.1,0.1,1.8
	c0.2,3.1,0.3,6.1,1.3,8.7c4.2,10.9,8.1,22.8,5.5,35.8C364.6,283.3,364.8,284.3,365.2,284.5z"/>
</svg>
