<svg xmlns="http://www.w3.org/2000/svg" xml:space="preserve" viewBox="0 0 512 512"><path d="M96.8 0h318.5c53.4 0 96.8 43.3 96.8 96.8v318.5c0 53.4-43.3 96.8-96.8 96.8H96.8C43.4 512.1 0 468.8 0 415.3V96.8C0 43.3 43.3 0 96.8 0" style="fill:#273773"/><path d="M388.8 93.6V49.7h-44.7v43.9c0 39.4-17.2 73.7-51.8 103-34.1 29.7-75.8 44.6-125.2 44.6V49.7h-43.9v412.6h43.9V285.1q56.25 0 103.5-20.7c10.9 4.9 20.8 11.7 29.7 20.6 19.7 19.7 29.5 44.4 29.5 74.2v103h43.9V344.1c0-29.2-9.8-56.1-29.5-80.6-8.1-10.2-17.8-18.4-29.3-24.4 2.3-1.7 4.6-3.3 6.9-5.1 44.7-34.6 67-81.4 67-140.4" style="fill:#fff"/></svg>