<?xml version="1.0" encoding="utf-8"?>
<!-- Generator: Adobe Illustrator 28.2.0, SVG Export Plug-In . SVG Version: 6.00 Build 0)  -->
<svg version="1.1"
	 id="svg13452" xmlns:cc="http://creativecommons.org/ns#" xmlns:dc="http://purl.org/dc/elements/1.1/" xmlns:rdf="http://www.w3.org/1999/02/22-rdf-syntax-ns#" xmlns:inkscape="http://www.inkscape.org/namespaces/inkscape" xmlns:svg="http://www.w3.org/2000/svg" xmlns:sodipodi="http://sodipodi.sourceforge.net/DTD/sodipodi-0.dtd"
	 xmlns="http://www.w3.org/2000/svg" xmlns:xlink="http://www.w3.org/1999/xlink" x="0px" y="0px" viewBox="0 0 512 512"
	 style="enable-background:new 0 0 512 512;" xml:space="preserve">
<style type="text/css">
	.st0{fill:#FFFFFF;}
</style>
<path class="st0" d="M415.3,0H96.8C43.3,0,0,43.3,0,96.8v318.5c0,53.5,43.4,96.8,96.8,96.8h318.5c53.5,0,96.8-43.4,96.8-96.8V96.8
	C512.1,43.3,468.7,0,415.3,0z M388.8,93.6c0,59-22.3,105.8-67,140.4c-2.3,1.7-4.6,3.4-6.9,5.1c11.4,6,21.2,14.2,29.3,24.4
	c19.7,24.5,29.5,51.4,29.5,80.6c0,26.4,0,65.8,0,118.1c-7.2,0-21.8,0-43.9,0c0-17.3,0-51.6,0-103c0-29.8-9.8-54.5-29.5-74.2
	c-8.9-8.9-18.8-15.7-29.7-20.6c-31.5,13.8-66,20.7-103.5,20.7c0,52,0,111.1,0,177.2c-7.2,0-21.8,0-43.9,0c0-68.6,0-206.2,0-412.6
	c7.2,0,21.8,0,43.9,0c0,40.2,0,104,0,191.5c49.4,0,91.1-14.9,125.2-44.6c34.6-29.3,51.8-63.6,51.8-103c0-9.6,0-24.2,0-43.9
	c7.8,0,22.7,0,44.7,0C388.8,56.9,388.8,71.5,388.8,93.6z"/>
</svg>
