<svg xmlns="http://www.w3.org/2000/svg" xml:space="preserve" viewBox="0 0 512 512"><linearGradient id="koshelf-dark_svg__a" x1="43.505" x2="468.495" y1="43.505" y2="468.495" gradientUnits="userSpaceOnUse"><stop offset="0" style="stop-color:#000;stop-opacity:.75"/><stop offset="1" style="stop-color:#000"/></linearGradient><path d="M245.9 199.7v133.8c-16.5-11.6-33.1-17.4-49.7-17.4s-33.2 5.8-49.6 17.4V199.6c0-.6.3-1.4.4-1.6 15.8-17.5 34.6-25.3 55.8-23.1 16 1.6 30.5 9.5 42.7 23.2.3.2.4.9.4 1.6m119.2-1.6-.7-.8c-2.5-2.6-5.1-5.3-7.9-7.5-12.5-10.2-26-15.3-40.3-15.3-4.8 0-9.8.6-14.8 1.7-12.7 2.9-24.3 10.1-34.6 21.3-.5.6-.8 1-.8 2.4v133.6c33-23.2 66.4-23.2 99.2-.1.1-45 .1-89.8 0-134.6.1-.1 0-.5-.1-.7M512 148.5v214.9c0 82-66.5 148.5-148.5 148.5h-215C66.5 512 0 445.5 0 363.5v-215C0 66.5 66.5 0 148.5 0h214.9C445.5 0 512 66.5 512 148.5m-126.5 41.8-.7-.9-3-3.9c-2.2-3-4.6-6.1-7.2-8.8-13.3-13.3-28.7-21.4-45.7-24.3-19.8-3.3-38.5.5-55.6 11.4-4.8 3-9.3 6.8-13.7 10.4-1.2 1-2.5 2-3.8 3.1-13.7-13.7-29.5-22-46.7-24.9-14.2-2.3-28.3-.8-41.9 4.6-13.3 5.3-25.5 14.3-36.3 26.8-3 3.5-4.3 7.2-4.3 12.1.1 41.2.1 82.5 0 123.7v37.2c0 1.1 0 2.1.1 3.2.5 4.6 3.1 8.3 6.8 9.7 3.1 1.2 6.6.5 9.3-1.9 1.1-1 2.1-2.2 3.1-3.3l.8-.9c10.7-12 23.2-19.6 37.1-22.5 15.3-3.2 30.1-.6 44.1 7.5 7.1 4.1 13.9 10.1 20.8 18.1 2.6 3.1 5.3 3.8 7.1 3.8h.2c1.8 0 4.5-.7 7.3-3.6.8-.9 1.6-1.8 2.5-2.7 10.8-12.4 23.4-20.1 37.6-23.1 15.1-3.1 29.8-.7 43.6 7.3 7.3 4.2 14.1 10.1 20.8 18 2.3 2.7 5.4 4.1 8.1 4.1 2.7-.1 5.2-1.5 7.1-4 .5-.7 1-1.6 1.5-2.4l1.1-1.8v-172z" style="fill:url(#koshelf-dark_svg__a)"/></svg>