<svg xmlns="http://www.w3.org/2000/svg" xml:space="preserve" viewBox="0 0 512 512"><linearGradient id="kostos_svg__a" x1="136.399" x2="466.63" y1="258" y2="258" gradientTransform="matrix(1 0 0 -1 0 514)" gradientUnits="userSpaceOnUse"><stop offset="0" style="stop-color:#dfd8e8"/><stop offset="1" style="stop-color:#e0dbea"/></linearGradient><path d="M455.3 5.5c1.4-1.4 3.6-1.7 5.1-.5 3.2 2.6 6.3 7.2 6.3 14.6v414.3c0 43.1-35 78.1-78.1 78.1H116.9v-15.2h-16.4V15.9c.9-5.8 4-9.5 6.9-11.5 1.5-1 3.5-.7 4.8.6l17.1 16c2.9 2.7 7.3 2.6 10.2-.1l19.2-18.7C160.1.8 162 0 164 0c1.9 0 3.8.7 5.2 2.1L189.3 21c2.9 2.7 7.3 2.6 10.2-.1l19.2-18.7C220.1.8 222 0 224 0c1.9 0 3.8.7 5.2 2.1L249.4 21c2.9 2.7 7.3 2.6 10.2-.1l19.2-18.7C280.1.8 282 0 284 0c1.9 0 3.8.7 5.2 2.1L309.4 21c2.9 2.7 7.3 2.6 10.2-.1l19.2-18.7C340.1.8 342 0 344 0c1.9 0 3.8.7 5.2 2.1L369.4 21c2.9 2.7 7.3 2.6 10.2-.1l19.2-18.7C400.1.8 402 0 404 0c1.9 0 3.8.7 5.2 2.1L429.4 21c2.9 2.7 7.3 2.6 10.2-.1z" style="fill:url(#kostos_svg__a)"/><path d="M455.3 5.5c1.4-1.4 3.6-1.7 5.1-.5 3.2 2.6 6.3 7.2 6.3 14.6v414.3c0 43.1-35 78.1-78.1 78.1H116.9v-15.2h-16.4V15.9c.9-5.8 4-9.5 6.9-11.5 1.5-1 3.5-.7 4.8.6l17.1 16c2.9 2.7 7.3 2.6 10.2-.1l19.2-18.7C160.1.8 162 0 164 0c1.9 0 3.8.7 5.2 2.1L189.3 21c2.9 2.7 7.3 2.6 10.2-.1l19.2-18.7C220.1.8 222 0 224 0c1.9 0 3.8.7 5.2 2.1L249.4 21c2.9 2.7 7.3 2.6 10.2-.1l19.2-18.7C280.1.8 282 0 284 0c1.9 0 3.8.7 5.2 2.1L309.4 21c2.9 2.7 7.3 2.6 10.2-.1l19.2-18.7C340.1.8 342 0 344 0c1.9 0 3.8.7 5.2 2.1L369.4 21c2.9 2.7 7.3 2.6 10.2-.1l19.2-18.7C400.1.8 402 0 404 0c1.9 0 3.8.7 5.2 2.1L429.4 21c2.9 2.7 7.3 2.6 10.2-.1z" style="fill:#d3d6f0"/><path d="M322.7 439.1c0-10.1-8.2-18.4-18.4-18.4H63.6c-10.1 0-18.3 8.2-18.3 18.3 0 40.3 32.7 73.1 73.1 73.1h260c-44-3.9-55.3-46.8-55.7-71.3z" style="fill:#c5c9ec"/><linearGradient id="kostos_svg__b" x1="211.916" x2="211.916" y1="2" y2="47.658" gradientTransform="matrix(1 0 0 -1 0 514)" gradientUnits="userSpaceOnUse"><stop offset="0" style="stop-color:#858dd6"/><stop offset=".258" style="stop-color:#7c84d3;stop-opacity:.7526"/><stop offset="1" style="stop-color:#646fcb;stop-opacity:4.000000e-02"/></linearGradient><path d="M322.7 439.1c0-10.1-8.2-18.4-18.4-18.4H63.6c-10.1 0-18.3 8.2-18.3 18.3 0 40.3 32.7 73.1 73.1 73.1h260c-44-3.9-55.3-46.8-55.7-71.3z" style="fill:url(#kostos_svg__b)"/><path d="M173.6 72.9h220.5c9.9 0 17.9 8 17.9 17.9s-8 17.9-17.9 17.9H173.6c-9.9 0-17.9-8-17.9-17.9-.1-9.8 8-17.9 17.9-17.9m-8.5 73h145.3c5.2 0 9.5 4.2 9.5 9.5 0 5.2-4.2 9.5-9.5 9.5H165.1c-5.2 0-9.5-4.2-9.5-9.5s4.3-9.5 9.5-9.5m0 54.5h145.3c5.2 0 9.5 4.2 9.5 9.5 0 5.2-4.2 9.5-9.5 9.5H165.1c-5.2 0-9.5-4.2-9.5-9.5 0-5.2 4.3-9.5 9.5-9.5m0 55.6h145.3c5.2 0 9.5 4.2 9.5 9.5 0 5.2-4.2 9.5-9.5 9.5H165.1c-5.2 0-9.5-4.2-9.5-9.5s4.3-9.5 9.5-9.5m0 55.6h145.3c5.2 0 9.5 4.2 9.5 9.5 0 5.2-4.2 9.5-9.5 9.5H165.1c-5.2 0-9.5-4.2-9.5-9.5s4.3-9.5 9.5-9.5m0 55.5h145.3c5.2 0 9.5 4.2 9.5 9.5 0 5.2-4.2 9.5-9.5 9.5H165.1c-5.2 0-9.5-4.2-9.5-9.5 0-5.2 4.3-9.5 9.5-9.5m183.2-166.7h54.3c5.2 0 9.5 4.2 9.5 9.5 0 5.2-4.2 9.5-9.5 9.5h-54.3c-5.2 0-9.5-4.2-9.5-9.5 0-5.2 4.3-9.5 9.5-9.5m0-54.5h54.3c5.2 0 9.5 4.2 9.5 9.5 0 5.2-4.2 9.5-9.5 9.5h-54.3c-5.2 0-9.5-4.2-9.5-9.5s4.3-9.5 9.5-9.5m0 110.1h54.3c5.2 0 9.5 4.2 9.5 9.5 0 5.2-4.2 9.5-9.5 9.5h-54.3c-5.2 0-9.5-4.2-9.5-9.5s4.3-9.5 9.5-9.5m0 55.6h54.3c5.2 0 9.5 4.2 9.5 9.5 0 5.2-4.2 9.5-9.5 9.5h-54.3c-5.2 0-9.5-4.2-9.5-9.5s4.3-9.5 9.5-9.5m0 55.5h54.3c5.2 0 9.5 4.2 9.5 9.5 0 5.2-4.2 9.5-9.5 9.5h-54.3c-5.2 0-9.5-4.2-9.5-9.5 0-5.2 4.3-9.5 9.5-9.5" style="fill:#646fcb"/></svg>