<svg xmlns="http://www.w3.org/2000/svg" xml:space="preserve" viewBox="0 0 512 512"><path d="M46.5 443.7c0-6.7 5.4-12.1 12.1-12.1v.1h246.9c6.8 0 12.2 5.5 12.2 12.2v1.7c.1 8 1.6 28.8 12.7 47.7 4.4 7.5 9.7 13.7 16 18.7H114.8c-37.6 0-68.3-30.7-68.3-68.3m335.8 68.2c-48.4-4.3-51-59.9-51.1-66.6v-1.6c0-14.1-11.5-25.5-25.5-25.5H103.1v-408c.4-2.4 1.4-4.1 2.5-5.3l15.9 14.9c5.5 5.2 14.2 5.1 19.6-.2L160.8.4c.4-.4 1.1-.4 1.5 0L183 19.8c5.5 5.2 14.2 5.1 19.6-.2L222.3.4c.4-.4 1.1-.4 1.5 0l20.7 19.4c5.5 5.2 14.2 5.1 19.6-.2L283.8.4c.4-.4 1.1-.4 1.5 0L306 19.8c5.5 5.2 14.2 5.1 19.6-.2L345.3.4c.4-.4 1.1-.4 1.5 0l20.8 19.4c5.5 5.2 14.2 5.1 19.6-.2L406.9.4c.4-.4 1.1-.4 1.5 0l20.8 19.4c5.5 5.2 14.2 5.1 19.6-.2l14.3-13.8c1.1 1.6 2.2 4.2 2.2 7.8v425c0 40.5-32.9 73.5-73.5 73.5h-9.5zm33.8-246.2c0-5.4-4.4-9.7-9.7-9.7h-55.7c-5.4 0-9.7 4.3-9.7 9.7s4.4 9.7 9.7 9.7h55.7c5.3 0 9.7-4.3 9.7-9.7m-9.7 47.2h-55.7c-5.4 0-9.7 4.3-9.7 9.7s4.4 9.7 9.7 9.7h55.7c5.3 0 9.7-4.3 9.7-9.7s-4.4-9.7-9.7-9.7m9.7-104.2c0-5.4-4.4-9.7-9.7-9.7h-55.7c-5.4 0-9.7 4.4-9.7 9.7 0 5.4 4.4 9.7 9.7 9.7h55.7c5.3 0 9.7-4.4 9.7-9.7m0-56.1c0-5.4-4.4-9.7-9.7-9.7h-55.7c-5.4 0-9.7 4.3-9.7 9.7s4.4 9.7 9.7 9.7h55.7c5.3.1 9.7-4.2 9.7-9.7m-94.5 227.1c0-5.4-4.4-9.7-9.7-9.7H162.8c-5.4 0-9.7 4.3-9.7 9.7s4.4 9.7 9.7 9.7h149.1c5.2 0 9.7-4.3 9.7-9.7m0-57.1c0-5.4-4.4-9.7-9.7-9.7H162.8c-5.4 0-9.7 4.3-9.7 9.7s4.4 9.7 9.7 9.7h149.1c5.2.1 9.7-4.2 9.7-9.7m0-56.9c0-5.4-4.4-9.7-9.7-9.7H162.8c-5.4 0-9.7 4.3-9.7 9.7s4.4 9.7 9.7 9.7h149.1c5.2 0 9.7-4.3 9.7-9.7m0-57c0-5.4-4.4-9.7-9.7-9.7H162.8c-5.4 0-9.7 4.4-9.7 9.7 0 5.4 4.4 9.7 9.7 9.7h149.1c5.2 0 9.7-4.4 9.7-9.7m0-56.1c0-5.4-4.4-9.7-9.7-9.7H162.8c-5.4 0-9.7 4.3-9.7 9.7s4.4 9.7 9.7 9.7h149.1c5.2.1 9.7-4.2 9.7-9.7m76.1-47.7c10.2 0 18.4-8.2 18.4-18.4s-8.2-18.4-18.4-18.4H171.5c-10.2 0-18.4 8.2-18.4 18.4s8.2 18.4 18.4 18.4zm8.7 284.5c5.3 0 9.7-4.3 9.7-9.7s-4.4-9.7-9.7-9.7h-55.7c-5.4 0-9.7 4.3-9.7 9.7s4.4 9.7 9.7 9.7z"/></svg>