<svg xmlns="http://www.w3.org/2000/svg" xml:space="preserve" viewBox="0 0 512 512"><path d="M435.9 75.4 184.7.7c-8.6-2.6-15.6 2.6-15.6 11.6v103.1l76 22.4 97.8 109.3v152.4l93 27.7c8.6 2.6 15.6-2.7 15.6-11.6V96.3c0-9-7-18.4-15.6-20.9" style="opacity:.3"/><path d="M381.6 119 130.4 44.3c-8.6-2.6-15.6 2.6-15.6 11.6v43.4l130.3 38.5 97.8 109.3v212.2l38.7 11.5c8.6 2.6 15.6-2.6 15.6-11.6V139.9c0-9-7-18.3-15.6-20.9" style="opacity:.8"/><path d="M245.1 203.1v-65.3l97.8 109.1L261 224c-9.4-2.6-15.9-11.1-15.9-20.9m15 24.3c-10.9-3-18.4-13-18.4-24.3v-66.3L81.3 89.5C69.8 86.1 60.5 93 60.5 105v306.6c0 12 9.3 24.5 20.8 27.9L322 511.1c11.5 3.4 20.8-3.5 20.8-15.5V250.5zM113 251.8c12.5-9.4 29.4-11.7 47.1-6.4v69.8l-66.6-19.8c0-18.5 7-34.2 19.5-43.6m134.6 126.3c-2.6 12.8-8.9 23.3-18.2 30.3s-21.2 10.1-34.1 8.9-26.3-6.5-38.5-15.4c-12.4-9.2-22.6-21-29.9-34.6s-11.2-28.3-11.2-42.1l66.6 19.8v-69.8c13.2 3.9 26 11.8 37 22.8 10.9 10.9 19.3 24.1 24.5 38.6 5.1 14.3 6.4 28.7 3.8 41.5"/></svg>