<svg xmlns="http://www.w3.org/2000/svg" xml:space="preserve" viewBox="0 0 512 512"><path d="M491.9 95.5 179 1.3c-18.3-5.5-36.8 7.9-36.8 26.6v105.3l207.5 62.5c11.9 3.6 20.1 14.4 20.1 26.6v156.5l105.4 31.7c18.3 5.5 36.8-7.9 36.8-26.6V122.1c0-12.2-8.2-23-20.1-26.6" style="opacity:.5;fill-rule:evenodd;clip-rule:evenodd;fill:#fff"/><path d="M420.8 140 107.9 45.8c-18.3-5.5-36.8 7.9-36.8 26.6v39.4l278.6 83.9c11.9 3.6 20.1 14.4 20.1 26.6v222.5l34.3 10.3c18.3 5.5 36.8-7.9 36.8-26.6V166.6c0-12.2-8.2-23-20.1-26.6" style="opacity:.8;fill-rule:evenodd;clip-rule:evenodd;fill:#fff"/><path d="M364.8 206.5c3.2 4.5 5 10 5 15.7v261.9c0 18.7-18.5 32.1-36.8 26.6L20.1 416.6C8.2 413.2.1 402.3 0 390V128.1c0-7 2.6-13.3 6.8-18.1L133 349.7c5.1 9.7 14.3 16.4 25.2 18.5 2.3.4 4.6.6 6.8.6 8.7 0 17.1-3.1 23.8-8.9zm-15.1-10.8L36.8 101.5c-8.7-2.6-17.3-.9-24.1 3.6l126.9 241.2c8.5 16.2 30.3 20.1 44.2 8l175.6-153.1c-2.8-2.4-6-4.4-9.7-5.5" style="fill-rule:evenodd;clip-rule:evenodd;fill:#fff"/></svg>