<svg xmlns="http://www.w3.org/2000/svg" xml:space="preserve" viewBox="0 0 512 512"><path d="M491.9 95.4 179.1 1.2c-18.3-5.5-36.8 7.9-36.8 26.6v105.4l207.3 62.4c11.9 3.4 20 14.3 20.1 26.6v156.4l105.5 31.8c18.3 5.5 36.8-7.9 36.8-26.6V122c-.1-12.3-8.2-23.1-20.1-26.6" style="opacity:.275;fill-rule:evenodd;clip-rule:evenodd"/><path d="M420.8 140 108 45.8c-18.3-5.5-36.8 7.9-36.8 26.6v39.4l278.4 83.8c11.9 3.4 20 14.3 20.1 26.6v222.4L404 455c18.3 5.5 36.8-7.9 36.8-26.6V166.6c0-12.4-8.2-23.2-20-26.6" style="opacity:.676;fill-rule:evenodd;clip-rule:evenodd"/><path d="M152.9 334.8c0 11.5-9.3 20.8-20.9 20.8-11.5 0-20.8-9.3-20.8-20.8S120.5 314 132 314c11.6-.1 20.9 9.3 20.9 20.8m216.8-112.6v261.9c0 18.7-18.4 32.1-36.7 26.6l-84.1-25.1-106.6-30.4-12.5-3.9c-9.9 31-75.3 79.9-65.9 45.9 6.7-24.3 2.2-50.5-2.4-67.4l-41.8-13.2C8.1 413.1.1 402.3 0 390.1V128c0-18.7 18.5-32.1 36.8-26.6l312.8 94.2c11.9 3.5 20 14.3 20.1 26.6m-91.7 13c0-2.4-1.9-4.9-4.3-5.7l-26.1-8c-1-.4-2.2-.3-3.1.3l-82.8 57.3c-28.7-21.9-62.6-23-80.6-2.6s-14.8 56.3 7.4 85.4c22.3 29.1 57.3 43 83.2 33s35.2-41.1 22.1-73.7l20.1-13.9 16.8 10.7c2.9 1.8 6 2.2 8.3.9 2.3-1.2 3.4-3.9 3-7l-3.1-21.9 6.3-4.4 12.6 9.6c3.1 2.3 6.7 2.9 9.3 1.5s3.6-4.6 2.7-8.1l-4.4-17.1 11.2-7.8c.8-.6 1.3-1.6 1.3-2.7v-25.8z"/></svg>