<svg xmlns="http://www.w3.org/2000/svg" xml:space="preserve" viewBox="0 0 512 512"><path d="M153.1 25.5c0-17.2 16.8-29.4 33.3-24.4l283.1 86.2c10.8 3.2 18.1 13.1 18.2 24.4v277.9c0 17.2-16.8 29.4-33.3 24.4l-283.1-86.2c-10.8-3.2-18.1-13.1-18.2-24.4z" style="opacity:.5;fill-rule:evenodd;clip-rule:evenodd;fill:#5ac78a"/><path d="M88.7 73.9c0-17.1 16.8-29.4 33.3-24.4l283.1 86.2c10.8 3.2 18.1 13.1 18.2 24.4V438c0 17.2-16.8 29.4-33.3 24.4l-283.1-86.2c-10.8-3.2-18.1-13.1-18.2-24.4z" style="opacity:.8;fill-rule:evenodd;clip-rule:evenodd;fill:#4ec483"/><path d="M24.4 122.3c0-17.1 16.8-29.4 33.3-24.4l283.1 86.2c10.8 3.2 18.1 13.1 18.2 24.4v277.9c0 17.2-16.8 29.4-33.3 24.4L42.6 424.6a25.41 25.41 0 0 1-18.2-24.4z" style="fill-rule:evenodd;clip-rule:evenodd;fill:#3bb471"/><path d="m211.6 309.4 1.5 47.4-45-14.5c-12.5-4-21.1-15.3-21.6-28.3l-1.8-47.8 44.6 14.1c13 4 21.9 15.7 22.3 29.1m-42.4 55.7c-25.5-8.3-43-31.6-44-58.3l-1.8-47.7-28.3-9c-7.6-2.4-15.3 3.4-15 11.4l3.7 100.8c.5 12.8 8.9 23.9 21.1 27.9l94.1 30.6c8 2.6 16.1-3.5 15.9-11.9l-.9-29.3zm106-103.8c-.4-13.4-9.2-25-22-29.1l-94.1-30c-7.9-2.5-15.8 3.5-15.5 11.8l1.1 29.3 44.6 14.2c25.9 8.2 43.7 32 44.4 59.1l1.2 47.1 27.8 9c7.9 2.6 16-3.5 15.8-11.8z" style="fill:#fff"/></svg>