<svg xmlns="http://www.w3.org/2000/svg" xml:space="preserve" viewBox="0 0 512 512"><path d="M142.3 27.8c0-18.7 18.5-32.1 36.8-26.6l312.8 94.2c11.9 3.4 20 14.3 20.1 26.6v261.8c0 18.7-18.5 32.1-36.8 26.6l-312.8-94.2c-11.9-3.4-20-14.3-20.1-26.6z" style="opacity:.275;fill-rule:evenodd;clip-rule:evenodd;fill:#ffa200"/><path d="M71.2 72.4c0-18.7 18.5-32.1 36.8-26.6L420.8 140c11.9 3.4 20 14.3 20.1 26.6v261.8c0 18.7-18.5 32.1-36.8 26.6L91.2 360.8c-11.9-3.4-20-14.3-20.1-26.6V72.4z" style="opacity:.676;fill-rule:evenodd;clip-rule:evenodd;fill:#fca50d"/><path d="M349.6 195.6 36.8 101.4C18.5 95.9 0 109.3 0 128v262.1c.1 12.2 8.1 22.9 19.7 26.5l41.8 13.2c4.6 16.9 9 43.1 2.4 67.4-9.4 34 56-14.9 65.9-45.9l12.5 3.9 106.6 30.4 84.1 25.1c18.3 5.5 36.7-7.9 36.7-26.6V222.2c-.1-12.3-8.2-23.1-20.1-26.6" style="fill:#fca000"/><path d="m247.6 221.6 26.1 8c2.4.7 4.3 3.3 4.3 5.7v26c0 1-.4 2-1.3 2.7l-11.2 7.8 4.4 17.1c.9 3.5-.2 6.7-2.7 8.1s-6.2.8-9.3-1.5l-12.6-9.6-6.3 4.4 3.1 21.9c.4 3.1-.7 5.8-3 7s-5.4.9-8.3-.9L214 307.4l-20.1 13.9c13.1 32.6 3.8 63.7-22.1 73.7s-60.9-3.9-83.2-33-25.4-65-7.4-85.4 51.9-19.2 80.6 2.6l82.8-57.3c.8-.6 1.9-.7 3-.3M132 355.6c11.5 0 20.8-9.3 20.9-20.8 0-11.5-9.3-20.8-20.8-20.9-11.5 0-20.8 9.3-20.8 20.8-.1 11.5 9.2 20.9 20.7 20.9" style="fill-rule:evenodd;clip-rule:evenodd;fill:#fff"/></svg>