<svg xmlns="http://www.w3.org/2000/svg" xml:space="preserve" viewBox="0 0 512 512"><path d="M169.1 12.3c0-9 7-14.2 15.6-11.6l251.1 74.7c8.6 2.6 15.6 11.9 15.6 20.9v319.2c0 9-7 14.2-15.6 11.6l-251.1-74.7c-8.6-2.6-15.6-11.9-15.6-20.9z" style="fill:#ffc166"/><path d="M114.8 55.9c0-9 7-14.2 15.6-11.6L381.6 119c8.6 2.6 15.6 11.9 15.6 20.9v319.2c0 9-7 14.2-15.6 11.6L130.4 396c-8.6-2.6-15.6-11.9-15.6-20.9z" style="fill:#ffac33"/><path d="M60.5 105c0-12 9.3-18.9 20.8-15.6l163.8 48.4 97.8 109.3v248.5c0 12-9.3 18.9-20.8 15.5L81.3 439.5c-11.5-3.4-20.8-15.9-20.8-27.9z" style="fill:#ff9802"/><path d="M182.3 275.3c13.2 3.9 26 11.8 37 22.8 10.9 10.9 19.3 24.1 24.5 38.6 5 14.2 6.4 28.7 3.8 41.4-2.6 12.8-8.9 23.3-18.2 30.3s-21.2 10.1-34.1 8.9-26.3-6.5-38.5-15.4c-12.4-9.2-22.6-21-29.9-34.6s-11.2-28.3-11.2-42.1l66.6 19.8zm-88.8 20.1c0-18.5 7-34.1 19.5-43.5s29.4-11.7 47.1-6.4v69.8z" style="fill:#ffdead"/><path d="M245.1 203.1v-65.3l97.8 109.1L261 224c-9.4-2.6-15.9-11.1-15.9-20.9" style="fill:#d37d17"/></svg>