<svg xmlns="http://www.w3.org/2000/svg" xml:space="preserve" viewBox="0 0 512 512"><path d="M155.8 25c0-16.8 16.3-28.8 32.4-23.9l275.6 84.5c10.5 3.2 17.7 12.9 17.7 23.9v234.9c0 16.8-16.3 28.8-32.4 23.9l-275.7-84.5c-10.5-3.2-17.7-12.9-17.7-23.9z" style="opacity:.29;fill-rule:evenodd;clip-rule:evenodd;fill:#3dbd86"/><path d="M93.1 64.9c0-16.8 16.3-28.8 32.4-23.9l275.6 84.5c10.5 3.2 17.7 12.9 17.7 23.9v234.9c0 16.8-16.3 28.8-32.4 23.9l-275.6-84.5c-10.5-3.2-17.7-12.9-17.7-23.9z" style="opacity:.8;fill-rule:evenodd;clip-rule:evenodd;fill:#83d5b1"/><path d="M30.5 114.9c0-16.8 16.3-28.8 32.4-23.9l275.6 84.5c10.5 3.2 17.7 12.9 17.7 23.9v235c0 13.8-11.3 25-25.1 25-2.5 0-4.9-.4-7.3-1.1l-74.1-22.5v63.7c0 12.1-15.6 17.1-22.7 7.3l-68.9-95c-1.6-2.1-3.8-3.7-6.3-4.6l-104-33.4c-10.3-3.3-17.4-12.9-17.4-23.8z" style="fill-rule:evenodd;clip-rule:evenodd;fill:#3dbd86"/><path d="M226.2 227.7c0-5.8-4.8-11.9-10.7-13.6l-115-33.2c-5.9-1.7-10.7 1.6-10.7 7.4v115.6c0 5.8 4.8 11.9 10.7 13.6l115 33.2c5.9 1.7 10.7-1.6 10.7-7.4v-23.1l51.2 41.5c1.4 1.2 3.1 1.6 4.4 1s2.2-2 2.2-3.8V246.3c0-1.9-.8-3.7-2.2-5.1-1.3-1.3-3-1.9-4.4-1.5l-51.2 14.8z" style="fill-rule:evenodd;clip-rule:evenodd;fill:#fff"/></svg>