<svg xmlns="http://www.w3.org/2000/svg" xml:space="preserve" viewBox="0 0 512 512"><path d="M254.2 7.6c-4.5.2-9 1.4-13 3.3l-178 85c-9.3 4.5-16.1 12.9-18.4 22.9L.9 309.8c-2 8.9-.4 18.2 4.6 25.9.6.9 1.2 1.8 1.9 2.7l123.2 153.2c6.5 8 16.3 12.7 26.6 12.7h197.6c10.4 0 20.1-4.7 26.6-12.7l123.2-153.2c6.5-8 8.9-18.5 6.6-28.6l-44-191c-2.3-10-9.1-18.4-18.4-22.9l-178-85c-5.2-2.4-10.9-3.5-16.6-3.3" style="fill:#326ce5"/><path d="M256 72.7c-5.9 0-10.7 5.3-10.7 11.8v.3c0 .9-.1 2 0 2.7.1 3.8 1 6.7 1.5 10.1.9 7.4 1.6 13.6 1.2 19.3-.5 2.2-2 4.1-3.5 5.5l-.3 4.5c-6.4.5-12.8 1.5-19.3 3-27.7 6.3-51.5 20.5-69.6 39.8-1.2-.8-3.2-2.3-3.8-2.7-1.9.3-3.8.8-6.3-.6-4.8-3.2-9.1-7.6-14.4-13-2.4-2.6-4.2-5-7-7.4-.6-.6-1.6-1.3-2.4-1.9-2.2-1.8-4.9-2.7-7.4-2.8-3.3-.1-6.4 1.2-8.5 3.8-3.7 4.6-2.5 11.6 2.6 15.7.1 0 .1.1.2.1.7.6 1.6 1.3 2.2 1.8 3 2.2 5.8 3.4 8.8 5.2 6.4 3.9 11.7 7.2 15.8 11.1 1.6 1.7 1.9 4.8 2.1 6.1l3.4 3.1c-18.3 27.5-26.7 61.5-21.7 96.1l-4.5 1.3c-1.2 1.5-2.8 3.9-4.6 4.6-5.5 1.7-11.7 2.4-19.1 3.1-3.5.3-6.5.1-10.2.8l-2.8.7h-.3c-6.3 1.5-10.3 7.3-9 13s7.4 9.1 13.7 7.8h.2c.1 0 .1-.1.2-.1.9-.2 2-.4 2.8-.6 3.6-1 6.3-2.4 9.6-3.7 7-2.5 12.9-4.6 18.6-5.5 2.4-.2 4.9 1.5 6.1 2.2l4.6-.8c10.7 33.1 33.1 59.9 61.4 76.7l-1.9 4.6c.7 1.8 1.5 4.2.9 6-2.1 5.4-5.6 11-9.6 17.3-2 2.9-4 5.2-5.7 8.5-.4.8-1 2-1.4 2.9-2.7 5.9-.7 12.6 4.5 15.1 5.3 2.5 11.9-.1 14.7-6 .4-.8 1-1.9 1.3-2.7 1.5-3.5 2-6.4 3.1-9.8 2.8-7.1 4.4-14.5 8.2-19.1 1.1-1.3 2.8-1.8 4.6-2.2l2.4-4.4c24.7 9.5 52.4 12 80 5.8 6.3-1.4 12.4-3.3 18.3-5.5.7 1.2 1.9 3.5 2.3 4.1 1.8.6 3.8.9 5.4 3.3 2.9 5 4.9 10.8 7.3 17.9 1.1 3.3 1.6 6.3 3.1 9.8.3.8.9 1.9 1.3 2.7 2.8 5.9 9.4 8.6 14.7 6 5.3-2.5 7.3-9.3 4.5-15.1-.4-.8-1-2.1-1.4-2.9-1.8-3.3-3.8-5.6-5.7-8.5-4-6.3-7.4-11.6-9.4-16.9-.9-2.8.1-4.5.8-6.3-.4-.5-1.3-3.1-1.8-4.3 29.5-17.4 51.2-45.2 61.4-77.3 1.4.2 3.8.6 4.6.8 1.6-1.1 3.1-2.4 6-2.2 5.7.8 11.5 2.9 18.6 5.5 3.3 1.3 5.9 2.7 9.6 3.7.8.2 1.9.4 2.8.6.1 0 .1.1.2.1h.2c6.3 1.4 12.5-2.1 13.7-7.8 1.3-5.7-2.7-11.5-9-13-.9-.2-2.2-.6-3.1-.7-3.7-.7-6.7-.5-10.2-.8-7.4-.8-13.6-1.4-19.1-3.1-2.2-.9-3.8-3.5-4.6-4.6l-4.3-1.3c2.2-16.1 1.6-32.9-2.2-49.7-3.9-17-10.8-32.5-20-46.1 1.1-1 3.2-2.8 3.8-3.4.2-1.9 0-3.9 2-6 4.2-3.9 9.5-7.2 15.8-11.1 3-1.8 5.8-2.9 8.9-5.2.7-.5 1.6-1.3 2.3-1.9 5.1-4.1 6.3-11.1 2.6-15.7s-10.8-5-15.9-1c-.7.6-1.7 1.3-2.4 1.9-2.9 2.5-4.6 4.9-7 7.4-5.3 5.3-9.6 9.8-14.4 13-2.1 1.2-5.1.8-6.5.7l-4.1 2.9c-23.1-24.2-54.6-39.7-88.4-42.7-.1-1.4-.2-4-.3-4.8-1.4-1.3-3.1-2.5-3.5-5.3-.5-5.7.3-11.9 1.2-19.3.5-3.5 1.3-6.4 1.5-10.1v-3c.3-6.6-4.4-11.9-10.3-11.9zm-13.4 82.6-3.2 55.9-.2.1c-.2 5-4.3 9-9.4 9-2.1 0-4-.7-5.5-1.8h-.1L178.4 186c14.1-13.8 32.1-24.1 52.9-28.8 3.8-.8 7.6-1.4 11.3-1.9zm26.8 0c24.2 3 46.7 14 63.8 30.8l-45.5 32.3-.2-.1c-4 3-9.7 2.2-12.9-1.7-1.3-1.6-2-3.5-2-5.4zm-107.6 51.6 41.8 37.4v.2c3.8 3.3 4.3 9 1.2 12.9-1.3 1.6-3 2.7-4.9 3.2v.2l-53.6 15.5c-2.8-24.9 3.1-49.1 15.5-69.4zm188.1.1c6.2 10.1 10.9 21.3 13.7 33.5 2.8 12.1 3.5 24.1 2.3 35.7L312 260.7v-.2c-4.8-1.3-7.8-6.2-6.7-11.2.5-2 1.5-3.7 3-5v-.1zm-102.5 40.2h17.1l10.7 13.3-3.8 16.6-15.4 7.4-15.4-7.4-3.8-16.6zm55 45.6c.7 0 1.5 0 2.2.2l.1-.1 55.5 9.4c-8.1 22.8-23.7 42.6-44.4 55.8l-21.5-52 .1-.1c-2-4.6 0-10 4.6-12.2.9-.6 2.1-.9 3.4-1zm-93.2.2c4.2.1 8 3 9 7.3.5 2 .2 4-.5 5.8l.2.2-21.3 51.5c-19.9-12.8-35.8-31.9-44.3-55.4l55-9.3.1.1c.6-.1 1.2-.2 1.8-.2zm46.4 22.6c1.5-.1 3 .2 4.4.9 1.9.9 3.3 2.3 4.2 4h.2l27.1 49q-5.25 1.8-10.8 3c-20.7 4.7-41.4 3.3-60.1-3.1l27-48.9c1.7-3 4.8-4.8 8-4.9z" style="fill:#fff;stroke:#fff;stroke-width:.25"/></svg>