<svg xmlns="http://www.w3.org/2000/svg" xml:space="preserve" viewBox="0 0 512 512"><path d="M437.9 79.7c14.1-7.9 21.1-24.2 17.8-40.2-.2 0-.4-.2-.5-.1-.9.3-1.8.5-2.6.9-14.2 7.8-25.6 3.7-35.4-7.9-1-1.1-2.1-2.1-3-3.3-7.5-9.5-14.9-19-22.7-29-14.2 19.7-27.2 40.7-52.1 51.1V6.9h-22.7v48.8c-10.6-.5-19.6-3.9-25.7-11.6-7.1-9-12.9-18.9-18.9-28.7-2.5-3.9-4.1-8.4-6.3-13.3-16.9 20.5-33.6 39.8-56.4 54.2V11.4c-7 .5-13.4 1-20.2 1.5v51.8c0 1.8.1 4.4-1 5.2-4.6 3.8-9.6 7.1-15.1 11-1.6-20-7.1-37.2-19.1-52.1-12.6-15.7-28.6-21.2-48.1-16.2-15.8 4-26.7 14.5-34.4 28.2C61 59.5 56.7 80 55.7 101.2c-.4 9 1 18.1 1.5 27.1 2.5-2 3.6-4.1 4.7-6.2 6.6-11.9 12.9-23.9 23.4-33 7.3-6.4 14.4-5.9 20.1 1.9 6.4 8.7 10.4 18.4 10.5 29.4.1 27.2 0 54.3 0 81.5 0 1.8-.2 3.6-.2 5.3-23.6.1-38.4 10.3-45 30.7-4.9 15.3-6 31.2-2.4 46.8 3 13.2 7.6 26.1 25.2 26.8-.4-3-.8-6.1-1.2-9.1-.8-5.8-.7-11.8 4.4-15.1 2.7-1.7 7.9-2 10.8-.5 4.8 2.5 8.5 6.8 8.5 13.2q-.15 49.95 0 99.9v8.4c-10.9 3.1-20.2 8.2-27.6 16.6-12.1 13.7-18.2 30-21.7 47.6-.3 1.4 1 3.1 1.8 5.3 7.6-7.9 16-11.7 25.2-13.6 21.1-4.3 37.4 4.6 50.9 19.7 5.5 6.2 10.2 13.1 15.5 19.9 1.2-1.6 2.2-3.1 3.3-4.6 12.3-17.3 27-32 45.9-42.3 8.5-4.6 16.1-4.9 24.7-1.3 16.4 6.9 29.1 18.5 40.5 31.6 6.8 7.8 13 16.2 19.7 24.7 1.2-1.6 2.3-3.4 3.6-4.9 9-9.6 17.2-20.3 27.3-28.5 26.1-21.1 56.4-29.9 90-26.9 6.6.6 13.3 1 20 1.4 3.7.2 4.8-1.4 4-5.1-1.7-7.8-4.1-15.7-4.2-23.5-.3-112.9-.2-225.8-.2-338.7-.2-2.8.4-4.5 3.2-6M188.7 418.2c-10.3-.6-16-6.3-16-15.9 0-95.6 0-191.2-.1-286.8 0-5.4.9-9.2 6.2-11.5 3.3-1.5 6.2-3.8 9.9-6.2zm50.6-12.5c0 1.5-1 3.7-2.3 4.5-7.9 5.1-16.1 10-25.1 15.5v-10.6c0-28.8.2-57.6-.1-86.4-.1-5.1 2.8-7.7 6.3-8 6.3-.5 12.8.4 19.2 1.1.9.1 2.1 2.4 2.1 3.6 0 26.8 0 53.6-.1 80.3m-27-113.4v-85.9c9.2 5.8 17.8 1.9 26.8-.6v86.5zm27.2-179.5c-.4 18.9-.1 37.9-.1 56.8 0 7.2-4.5 11.9-11.7 12.4h-1.1c-13.5.4-14.7-.8-14.7-13.9 0-26.9-.1-53.8.1-80.8 0-2.5 1.8-5.1 2.8-7.6.8.2 1.5.4 2.3.6 2 2.6 3.9 5.4 6.1 7.9 2.6 2.9 4.9 6.7 8.2 8.1 8.1 3.4 8.3 9.3 8.1 16.5m76.1 312c-1.1-1.3-1.8-2.7-3-3.3-11.6-5.4-10.7-15.6-10.7-26 .2-94.1.1-188.2.1-282.3 0-10.6 1.7-12.6 13.6-15.1zm55 .6c0 3.6-1 5.2-4.5 6.3-8.7 2.7-17.2 5.7-26.1 8.7v-38.6c0-22.1.1-44.2.1-66.3 0-8.2 5.5-13.5 13.6-13 2.8.2 5.5.8 8.2 1.5 7.1 1.8 8.7 3.9 8.7 11.2 0 30-.1 60.1 0 90.2M340.4 300v-92.4c10.1 1.3 19.9 3.4 29.9-1.4v93.5c-9.9-5.8-19.7-5.2-29.9.3m24.4-120c-7.1.3-14.4-.3-21.5-1.1-1.2-.1-3-3.2-3-5-.2-30.3-.4-60.6.1-90.8.1-3.1 4.4-6.2 6-8.3 8.6 5.4 15.9 9.9 24.2 15.2v53.5c0 9.7-.4 19.3.1 29 .3 4.8-2.1 7.4-5.9 7.5" style="fill:#fff"/></svg>