<?xml version="1.0" encoding="utf-8"?>
<!-- Generator: Adobe Illustrator 28.2.0, SVG Export Plug-In . SVG Version: 6.00 Build 0)  -->
<svg version="1.1" id="Calque_1" xmlns="http://www.w3.org/2000/svg" xmlns:xlink="http://www.w3.org/1999/xlink" x="0px" y="0px"
	 viewBox="0 0 512 512" style="enable-background:new 0 0 512 512;" xml:space="preserve">
<path d="M268.8,334.5c6.8,9.6,13.5,18.5,20,26.7l0,0l0,0L-0.7,496.6V15.4L180,99.9c-47.9,15.8-74.8,24.9-80.6,27.4
	c-18.9,7.6-28.3,17.5-28.3,29.7c0,3.1,0.5,6.5,1.7,10.2c5.9,16.8,11.6,29.5,17.1,38.3c1.9,3,4.3,4.6,7.6,4.6c4.6,0,6.4-2.6,5.3-7.6
	c-3.3-15.4-4.9-24.9-4.9-28.5c0-5.2,3.7-10.6,11-16.3c20-16,53.2-29.6,99.7-41c-15.3,38.3-29.4,73.7-42.4,106.2
	c-19.8,52.5-36.4,102.2-49.7,149.2c-1.5,5.1-2.2,8.9-2.2,11.5c0,4.1,4.2,9.3,12.7,15.6c7.6,5.9,13.2,8.8,16.6,8.8
	c2.7,0,4.1-1.7,4.1-5.1c0-2.2-0.5-4.5-1.5-7.1c-0.7-6.6,2.2-23.4,8.5-50.4c9.4-40.1,22.2-81.4,38.5-123.8
	c13.4-35.3,27.2-67.3,41.5-96.1l-27.2-12.7l98.4,46.1c-3.5,3.7-7.2,7.6-11.2,11.7c-24.2,25-45.9,44.9-65.1,59.7
	c-2.2-3-5.2-4-9.3-3.2c-11.2,2.4-18.6,5.2-22.3,8.4c-3.7,3.2-5.5,8.2-5.5,15c0,1.8,0,4,0.2,6.6c0.6,8.5,3.8,12.7,9.5,12.7
	c3,0,7.2-1.1,12.4-3.2C224.8,275.3,242.8,298,268.8,334.5z M325.5,168l-14.1,14c-33.3,32.8-55.9,53.2-67.7,61.2
	c14.8,20.9,29.5,42,44.3,63.1c11.4,16.1,22.1,29.6,31.9,40.3l-31.2,14.6h0l223.5-104.6l1.3-0.6L325.5,168z M322.8,103.9
	c0-3.1,2.9-5.3,8.8-6.6c8.1-5.7,17.8-14.9,29-27.5c4.7-5.3,9.8-8,15.1-8c5.9,0,12.7,3.7,20,11c3.3,3.3,4.9,5.9,4.9,8
	c0,2.6-3.4,8.1-10.2,16.6c-15.4,19-37,42.5-64.9,70.6l-19.5-9.1c17.3-18.4,28-31.8,32.2-40C328,112.8,322.8,107.8,322.8,103.9z
	 M234.7,125.5c5.8-11.6,11.6-22.7,17.5-33.3c2.4-4.5,3.6-7.8,3.7-9.9c0-2.3-2.3-5-6.8-8.3c-4-2.9-7.2-4.4-9.8-4.4
	c-2.8,0-6.1,2.3-9.8,6.8c-5.1,6.5-14.9,12.1-29.2,16.8c-7.1,2.4-13.9,4.6-20.3,6.7L234.7,125.5z M390.4,367.7c-1.4,0-3,0.6-4.6,1.7
	c-7.7,5.5-14.2,8.3-20,8.3s-12.2-2.4-19.3-7.3c-8.1-5.4-17-13.3-26.6-23.8l-31.2,14.6c17,21.5,32.8,38.1,47.2,49.6
	c5.4,4.4,10.2,6.6,14.4,6.6c3.6,0,7.3-1.7,11-5.1c16.4-14.6,27-25.8,31.9-33.4c1.5-2.1,2.2-4.1,2.2-6.1
	C395.5,369.4,393.8,367.7,390.4,367.7z"/>
</svg>
