<svg xmlns="http://www.w3.org/2000/svg" xml:space="preserve" viewBox="0 0 512 512"><path d="M-.7 15.4v481.2l513-240 1.3-.6z" style="fill:#010202"/><path d="M252.2 92.2c-20.5 36.7-40.2 79.9-59 129.4-16.3 42.4-29.1 83.7-38.5 123.8-6.3 27-9.2 43.8-8.5 50.4 1 2.6 1.5 4.9 1.5 7.1 0 3.4-1.4 5.1-4.1 5.1-3.4 0-9-2.9-16.6-8.8-8.5-6.3-12.7-11.5-12.7-15.6 0-2.6.7-6.4 2.2-11.5 13.3-47 29.9-96.7 49.7-149.2 13-32.5 27.1-67.9 42.4-106.2-46.5 11.4-79.7 25-99.7 41-7.3 5.7-11 11.1-11 16.3 0 3.6 1.6 13.1 4.9 28.5 1.1 5-.7 7.6-5.3 7.6-3.3 0-5.7-1.6-7.6-4.6-5.5-8.8-11.2-21.5-17.1-38.3-1.2-3.7-1.7-7.1-1.7-10.2 0-12.2 9.4-22.1 28.3-29.7 6.6-2.8 40.3-14.1 100.9-34.1 14.3-4.7 24.1-10.3 29.2-16.8 3.7-4.5 7-6.8 9.8-6.8 2.6 0 5.8 1.5 9.8 4.4 4.5 3.3 6.8 6 6.8 8.3-.1 2.1-1.3 5.4-3.7 9.9m143.5-19.4c3.3 3.3 4.9 5.9 4.9 8 0 2.6-3.4 8.1-10.2 16.6-17.9 22.1-44.2 50.3-79 84.6-33.3 32.8-55.9 53.2-67.7 61.2 14.8 20.9 29.5 42 44.3 63.1 22.6 31.9 42.1 53.2 58.5 64.1 7.1 4.9 13.5 7.3 19.3 7.3s12.3-2.8 20-8.3c1.6-1.1 3.2-1.7 4.6-1.7q5.1 0 5.1 5.1c0 2-.7 4-2.2 6.1-4.9 7.6-15.5 18.8-31.9 33.4-3.7 3.4-7.4 5.1-11 5.1q-6.3 0-14.4-6.6c-20-15.9-42.4-41.4-67.2-76.3-26-36.5-44-59.2-54.1-68-5.2 2.1-9.4 3.2-12.4 3.2-5.7 0-8.9-4.2-9.5-12.7-.2-2.6-.2-4.8-.2-6.6 0-6.8 1.8-11.8 5.5-15s11.1-6 22.3-8.4c4.1-.8 7.1.2 9.3 3.2q28.8-22.2 65.1-59.7c23.9-24.5 38.3-41.8 43.4-51.7-10.2-6-15.4-11-15.4-14.9 0-3.1 2.9-5.3 8.8-6.6 8.1-5.7 17.8-14.9 29-27.5 4.7-5.3 9.8-8 15.1-8 5.9 0 12.7 3.7 20 11" style="fill:#e13e13"/></svg>