<svg xmlns="http://www.w3.org/2000/svg" xml:space="preserve" viewBox="0 0 512 512"><path d="M59.3 59.3h307.2L512 204.8v188.6c0 32.7-26.5 59.3-59.3 59.3H59.3C26.5 452.7 0 426.2 0 393.4V118.6c0-32.8 26.5-59.3 59.3-59.3" style="fill:#0258b1"/><path d="M59.3 86.2h280.3v86.2c0 32.7 26.5 59.3 59.3 59.3h86.2v161.7c0 17.9-14.5 32.3-32.3 32.3H59.3c-17.9 0-32.3-14.5-32.3-32.3V118.6c-.1-17.9 14.4-32.4 32.3-32.4" style="fill:#0376ea"/><path d="M366.5 59.3 512 204.8H398.8c-17.9 0-32.3-14.5-32.3-32.3z" style="fill:#1fa35b"/><path d="M366.5 59.3 512 204.8h-35.1L366.5 94.3z" style="fill:#56b296"/><path d="M420.4 350.3c0 5.7-4.6 10.2-10.2 10.2H101.9c-5.7 0-10.2-4.6-10.2-10.2 0-5.7 4.6-10.2 10.2-10.2h308.3c5.6 0 10.2 4.6 10.2 10.2M92.3 228.9c6.4 0 10.8 1.3 13.3 3.9s3.8 6.9 3.8 12.8v15c0 6.2.7 11.3 2.2 15.4s3.8 7.2 6.8 9.4c3 2.3 6.7 3.9 11 4.8 4.4.9 9.3 1.4 14.9 1.4v-15.4c-6.3 0-10.6-1.3-12.8-3.9s-3.2-6.9-3.2-13.1V240c0-2.9-.5-5.7-1.5-8.3-1-2.7-2.8-5.2-5.3-7.3q-3.3-2.7-9-4.5c3.8-1.2 6.8-2.6 9-4.4 2.6-2.2 4.3-4.6 5.3-7.3q1.5-4.05 1.5-8.4v-19.3c0-6.2 1.1-10.6 3.2-13.1 2.2-2.6 6.5-3.9 12.8-3.9V148c-5.6 0-10.5.5-14.9 1.4-4.3.9-8 2.5-11 4.8s-5.2 5.4-6.8 9.4c-1.5 4-2.2 9.1-2.2 15.4v15.1c0 5.9-1.3 10.1-3.8 12.7s-6.9 3.9-13.3 3.9zm139.2-48.5v19.3q0 4.35 1.5 8.4c1 2.7 2.8 5.1 5.4 7.3 2.2 1.8 5.2 3.3 9 4.4q-5.7 1.8-9 4.5c-2.6 2.2-4.4 4.6-5.4 7.3s-1.5 5.5-1.5 8.3V259c0 6.2-1.1 10.6-3.2 13.1-2.2 2.6-6.4 3.9-12.8 3.9v15.4c5.6 0 10.6-.5 14.9-1.4 4.4-.9 8.1-2.5 11-4.8 3-2.2 5.2-5.3 6.8-9.4 1.5-4 2.3-9.1 2.3-15.4v-15c0-5.9 1.2-10.2 3.7-12.8s6.9-3.9 13.3-3.9h.1v-18.2c-6.4 0-10.8-1.3-13.4-3.9-2.5-2.6-3.7-6.9-3.7-12.7v-15.1c0-6.2-.8-11.3-2.3-15.4-1.5-4-3.8-7.2-6.8-9.4-3-2.3-6.7-3.9-11-4.8s-9.3-1.4-14.9-1.4v15.4c6.4 0 10.7 1.3 12.8 3.9 2.2 2.7 3.2 7.1 3.2 13.3m125 95.3h-74v15.8h74z" style="fill:#fff"/></svg>