<svg xmlns="http://www.w3.org/2000/svg" xml:space="preserve" viewBox="0 0 512 512"><path d="M506.7 454.1c-1.3-3.8-30-86.1-100.4-136.2-3.2-51.4-32.1-96-74.1-120.9-9.6-85.7-67.1-150.6-69.8-153.5l-11.1-12.3-10.9 12.5c-2.6 3-60.5 70-68 157.1-39.2 25.8-65.7 69.2-68.2 118.8-70.1 51.1-97.8 134.1-99 137.9L0 473.2l16.3 3.2c1.9.4 22.9 4.4 52.9 4.4 31.3 0 72.4-4.4 112.1-21.8 21.9 12.4 47.2 19.4 74.1 19.4 27.5 0 53.4-7.4 75.6-20.3 37.9 15.9 77 20.2 107.6 20.2 32.4 0 55.3-4.7 57.3-5.1l16.2-3.4zm-178.1-29.6c-2.1-1.1-4.1-2.1-6.2-3.2-18.4-10.5-34.1-23.8-47.4-38 5.4-7.3 12.3-17.4 19.5-29.7 10.4-17.5 17.4-33 21.6-43.2 19.1 4.2 38.8 10.8 57.3 21.3 1.2.7 2.4 1.5 3.6 2.2-2 37-20.6 69.6-48.4 90.6m-145.4.9c-28.1-20.7-47-53.2-49.4-90.1 1-.6 2-1.3 3.1-2 17.5-10.3 36.1-17 54.3-21.5 14 33.9 32.2 60.1 42.8 73.9-12.7 13.6-27.6 26.4-44.9 36.5-2 1.2-4 2.1-5.9 3.2m120.9-205.8c.1 20.1-3.2 39.5-8.4 57.3-24.7-3-47.2-2.6-64.1-1.3h-.3c-8.5.7-15.7 1.5-20.9 2.3-5.5-17.9-9.2-37.3-9.3-57.6 0-.7.1-1.4.1-2.2 16.3-8.1 34.7-12.8 54.2-12.8 17.3 0 33.8 3.6 48.7 10.2-.1 1.4 0 2.7 0 4.1m-48.8 139.9c-15-20.4-25.3-40.1-31.4-53.4 23.2-2.6 44-2 58.5-.8 1 .1 2.1.2 3.1.3-5.3 12.5-11.2 23.7-16.8 33.5-4 6.5-8.4 13.4-13.4 20.4m118.5-60.7c-16.2-7.6-32.7-13-48.8-16.7 4.2-15.2 7.1-31.5 8.2-48.4 19.8 16.4 34.3 39.1 40.6 65.1M251.7 77.3c14.4 19.8 38.9 58.7 48.4 105.4-14.2-4.4-29.2-6.8-44.8-6.8-17.9 0-35.1 3.1-51 8.9 8.7-47.5 33-87.3 47.4-107.5M172.4 238c1.4 16.1 4.6 31.4 8.8 45.8-14.8 3.8-29.9 9.1-44.7 16.3 5.6-24.2 18.3-45.7 35.9-62.1M39.8 449.9c9.9-22.4 31.3-62.9 66.8-94.5 6.2 32.5 22.7 61.4 46.2 83-44.3 14.9-89 13.7-113 11.5m173.6-8.2c15.1-10 28.3-21.4 39.9-33.5l.5.6 2.2-2.5c12.2 12.6 26.3 24.7 42.4 34.9-13.4 5.1-27.9 7.9-43.1 7.9-14.7 0-28.8-2.6-41.9-7.4m145.7-4.5c23.1-21.8 39.3-50.8 45.1-83.4 35.7 31.1 57.5 71.1 67.6 93.2-23.8 2.6-68.3 4.3-112.7-9.8"/></svg>