<?xml version="1.0" encoding="utf-8"?>
<!-- Generator: Adobe Illustrator 28.2.0, SVG Export Plug-In . SVG Version: 6.00 Build 0)  -->
<svg version="1.1" id="Layer_1" xmlns="http://www.w3.org/2000/svg" xmlns:xlink="http://www.w3.org/1999/xlink" x="0px" y="0px"
	 viewBox="0 0 512 512" style="enable-background:new 0 0 512 512;" xml:space="preserve">
<style type="text/css">
	.st0{fill-rule:evenodd;clip-rule:evenodd;}
	.st1{fill:#45A1FC;}
</style>
<g>
	<path class="st0" d="M72.9,62.3h49.7c20.6,0,37.4,16.7,37.4,37.4v145h97.2v52.3H145c-20.6,0-37.4-16.7-37.4-37.4v-145H72.9
		L72.9,62.3z M452.9,99.6v38.9h-52.3v-23.9h-41.1v182.3h-52.3V114.6h-41.1v23.9h-52.3V99.6c0-20.6,16.7-37.4,37.4-37.4h164.4
		C436.2,62.3,452.9,79,452.9,99.6z"/>
	<path class="st1" d="M48.7,437.2L0,402.5c14.3-20,29-35.5,44.6-46.4c17.2-12.1,35.6-18.5,54.5-18.5c17.6,0,32.8,4.3,46.4,12.4
		c5.6,3.4,10.8,7.3,15.6,11.6c3.5,3.1,6,5.5,11.4,10.9c8.1,8.1,11.5,11.1,15.5,13.5c4.4,2.6,9,3.9,15.7,3.9c6.7,0,11.3-1.3,15.7-3.9
		c4-2.4,7.4-5.4,15.5-13.5l0.1-0.1c5.3-5.3,7.8-7.8,11.4-10.9c4.8-4.3,10.1-8.2,15.6-11.6c13.6-8.1,28.8-12.4,46.3-12.4
		c17.5,0,32.7,4.3,46.3,12.4c5.5,3.3,10.5,7.1,15.6,11.6c3.5,3.1,6.1,5.6,11.4,10.9l0.1,0.1c8.1,8.1,11.5,11.1,15.5,13.5
		c4.4,2.6,9,3.9,15.7,3.9c6,0,12.6-2.3,20.2-7.7c9.4-6.6,19.6-17.3,30.2-32.1l48.7,34.7c-14.3,20-29,35.5-44.6,46.4
		c-17.2,12.1-35.6,18.5-54.5,18.5c-17.6,0-32.8-4.3-46.4-12.4c-5.6-3.4-10.8-7.2-15.7-11.6c-3.5-3.1-6.1-5.6-11.4-10.9l-0.1-0.1
		c-8.1-8.1-11.5-11-15.5-13.5c-4.4-2.6-8.9-3.9-15.6-3.9s-11.2,1.3-15.6,3.9c-4,2.4-7.4,5.4-15.5,13.5l-0.1,0.1
		c-5.3,5.3-7.9,7.8-11.4,10.9c-5.1,4.5-10.2,8.3-15.7,11.6c-13.6,8.2-28.9,12.4-46.4,12.4s-32.8-4.3-46.4-12.4
		c-5.6-3.4-10.8-7.3-15.6-11.6c-3.5-3.1-6-5.5-11.4-10.9c-8.1-8.1-11.5-11.1-15.5-13.5c-4.4-2.6-9-3.9-15.7-3.9
		c-6,0-12.6,2.3-20.2,7.7C69.4,411.7,59.3,422.4,48.7,437.2z"/>
</g>
</svg>
