<svg xmlns="http://www.w3.org/2000/svg" xml:space="preserve" viewBox="0 0 512 512"><path d="m275 380.8.3-.3-6.6-4.7c-4-2.8-7.7-5.8-11.2-8.7l-.5-.4-.6-.3c-36.1-19-65.6-26-84.8-30.5-2.7-.6-5.2-1.2-7.4-1.8-.9-.2-1.8-.5-2.7-.7q-8.85-2.55-15.9-6.3h-.2a95 95 0 0 1-9.4-5.4l-.1-.1-.2-.1c-3.1-1.8-8.5-5.5-13.6-11.7-1.2-1.6-2.4-3.2-3.4-5.1-4.5-7.7-6.3-15.4-6.8-21.5 2.9-.3 5.8-.6 8.7-.7 4.4-.3 8.8-.4 14.4-.4 39.9 0 71 1.9 92.9 11.6 11.9 5.3 22.9 12.3 32.7 20.8 14 12.3 43 31.8 79.1 25.1 4.2-.8 8.4-1.9 12.5-3.2 18-2.5 36-1.4 53.6 3.2 14.8 3.9 28.7 10.3 41.5 18.9-21.9 26.7-53.3 43.3-87.1 45.9h-.3c-1.1.1-2.2.2-3.2.2-28.5 1.3-55.9-6.6-81.7-23.8m136.8-111.5c25.7 4.4 47.1 13.1 63.7 22 2.5-13.3 3.7-26.8 3.5-40.3-.1-5.7-.4-11.3-1-16.9-.3-3-1-5.4-1.8-8.6-.1-.5-.2-.9-.4-1.4q-4.8 1.8-9.9 3.6c-14.7 5.7-32.3 10.8-52.3 13.8.4 2.7.7 5.5.6 9.5-.3 6.2-1 12.3-2.4 18.3m-154.5 98.2.3-.4zM14 136.2c-.1 0-.3 0-.4.1-.6.3-.6.8-.6 1V190c0 .3.1.6.4.8l.4.4 12.9 12.4c1.8-7.5 4.2-14.8 7.3-21.8 3.5-7.9 7.7-15.5 12.7-22.5-11.4-6.4-22.2-14.1-32.1-22.7-.1-.2-.3-.4-.6-.4m399.2-17.3c-17.6-10.2-36.6-16.3-56.6-18.1-52.9-4.6-90.5 23.1-101 31.9-2.2 2-28.7 26.1-65.8 45.2-8.4 4.4-17.3 8.6-26.6 12.1h-.2c-2.5.9-5.8 2.2-9.6 4.1-.9.4-1.7.9-2.6 1.4-6.2 3.6-12.9 8.6-19.1 15.4-5.5 6.1-10 12.9-13.4 20.3 2.4.2 4.9.4 7.4.6 45.5 2.5 78 2 99.3-8.4 8-3.9 15.7-8.9 23.1-14.8l3.5-3.1c4-3.6 7.9-7.3 11.6-11.3 6.5-7 13.8-12.9 21.7-17.7 20.3-12.6 44.3-17 66.8-11.5 19.8 2.7 40.2 1.1 59-4.7 4.2-1.3 8-2.6 11.6-4 6.1-2.6 11.5-5.4 16.2-8.1l.5-.3.5-.2c1.4-.5 2.8-1.1 4.2-1.6.1-.1.2-.1.4-.2-9.9-11.7-20.3-20.8-30.9-27M33.9 333.1c-2.8-7.3-5.4-15.5-7.7-24.5l-13 5.6c-.2.2-.3.5-.3.8v64.7c0 .2 0 .7.6 1 .5.3.9 0 1-.1l.3-.2c10.8-7 21.5-14 32.3-21-5.3-8.2-9.7-17.1-13.2-26.3" style="opacity:.4;fill:#fff"/><path d="M498.5 376.2c-.2.1-.4.1-.6.1-.1 0-.3-.1-.5-.3-8.9-7.7-22-17.6-38.7-26.1-10.1-7.4-27.1-18-50.6-24.2-25.3-6.7-46.7-5.2-59.3-3.4l-.6.1-.5.2c-3.6 1.2-7.4 2.2-11.4 2.9-30.4 5.6-55.4-10.9-68.2-21.9-.6-.5-1.3-1.1-1.9-1.6 6.8-5.4 14.2-10.1 21.9-13.9 10.8-5.3 24.9-8.1 41.9-9.2s36.3-.5 57.5.7c4.9.3 9.6.7 14.2 1.3l.6.1c12.6 2.5 25 5.9 37 10 12.8 4.4 25.4 9.8 37.6 16.2l1.7.9c8.7 5.3 15.4 10.3 20.1 14 .2.2.4.5.4.8v52.5c0 .3-.1.5-.2.6-.1 0-.2.1-.4.2m-71.2-207.9c-4.3 1.8-9 3.6-14 5.1-27.5 8.5-51.3 7-65 5.1h-.3l-.3-.1c-18.6-4.6-38.7-1.1-56 9.2-6.4 4-12.3 8.8-17.6 14.6-2.5 2.7-5 5.2-7.6 7.7 5.9 3.8 12 7.2 18.5 10 21.6 9.5 51.9 11.6 92.9 11.5 8.4 0 16.4-.5 24.1-1.3l3-.5c11.1-1.9 25-4.9 38.3-8.3 6.7-1.7 12.5-3.6 18.1-5.5 16.3-6.3 28.9-13.2 37.3-18.3.3-.2.5-.5.5-.9V132c0-.8-.9-1.4-1.7-.8-11.2 8-27.4 18.1-48 26.5-5.8 3.3-13.1 7-22.2 10.6M61.7 357.5l3.2 4.8c9.6 12.3 21.3 22.8 34.9 30.7 14.8 8.7 33.8 16.1 56.6 18.2 50 4.4 85.9-20 97.9-29.5-1.3-1-2.6-2.1-3.9-3.2-33.6-17.7-61.3-24.2-79.6-28.4-3.2-.8-6.2-1.4-8.9-2.1-16.1-4.1-29.3-12.5-32.2-14.4-5.3-3.2-12.4-8.5-18.5-16.8-1.6-2.1-3.2-4.4-4.7-6.9-8.4-14.3-8.9-27.8-8.7-33.6v-1.2c-.5-4.6-.7-9.3-.6-14 .8-31.9 18.5-61.8 48.4-77.5 5.3-3 10.2-5.1 14.4-6.6q10.95-4.2 21-9.3c23.7-12.1 43.5-26.7 55.3-36.2-17-10.9-44.7-23.6-80.2-21.8-1.2.1-2.3.1-3.5.2-34.4 2.6-65.2 19.4-86.5 44.9l.2.1-5 6.2c-.6.7-1.2 1.5-1.7 2.2-8 11.3-14.3 24.1-18.4 37.8-1.4 4.6-2.7 9.5-3.8 14.6-.1.5-.2 1.1-.2 1.6l-1.7 12.6-.5-.5c-1.4 9.8-2.2 20.4-2 31.6.2 10.4 1.2 20.2 2.7 29.4l.7-.3 1.5 8c1.8 9.8 4.5 19.5 8.2 28.8 4 10.8 9.3 21.1 15.6 30.6" style="opacity:.6;fill:#fff"/><path d="M505.3 208.4c4.2-2.5 6.7-7 6.7-11.9V132c0-11.4-12.9-18-22.1-11.3-8.3 6-19.6 13.2-33.5 19.8-11.5-14.3-23.8-25.3-36.6-32.8-19.2-11.2-40.1-17.8-62-19.8-58-5.1-99.3 25.5-110.6 34.9l-.2.2c-18-12.3-49.8-28.3-91.4-26.2-1.3.1-2.5.2-3.7.2-39 2.9-73.7 22.4-97.3 51.7-11.2-6.2-21.7-13.6-31.4-22.1-4.2-3.6-9.9-4.5-14.9-2.2S.1 131.6.1 137.1V190c0 4.2 1.8 8.1 5 10.7l18.7 18c-2.5 12.9-3.9 27.2-3.7 42.7.2 12.3 1.5 23.8 3.4 34.4l-15.9 6.8-.7.4c-.7.4-1.9 1.2-3 2.4-2.5 2.6-3.9 6-3.9 9.6v64.7c0 5.3 2.9 10.1 7.6 12.5 2 1 4.2 1.5 6.3 1.5 2.8 0 5.6-.9 8-2.6 10.9-7 21.7-14.1 32.6-21.1 10.6 13.6 23.6 25.3 38.8 34.2 16.2 9.5 36.9 17.7 62 19.9 59.1 5.2 100.1-26.4 109.7-34.4 26.8 18.6 55.3 28 85.1 28 2.4 0 4.8-.1 7.2-.2 1.2-.1 2.3-.1 3.5-.2h.3c38.1-2.9 73.5-22 97.7-52.6 12.7 7.2 22.9 14.9 30.1 21.2 9.1 7.9 23.1 1.4 23.1-10.6v-52.5c0-4.2-1.9-8.3-5.3-10.9-4.6-3.7-11.2-8.5-19.5-13.7 3.3-15.6 4.9-31.5 4.6-47.3-.1-6-.5-12.1-1.1-18-.4-4-1.3-7.2-2.2-10.6-.3-1.3-.7-2.6-1-4 7.1-3.7 13.1-7.1 17.8-9.9m-249.7-75.7c10.5-8.8 48.1-36.5 101-31.9 20 1.8 39 7.8 56.6 18.1 10.6 6.2 21 15.3 30.8 27-.1.1-.2.1-.4.2-1.4.5-2.8 1.1-4.2 1.6l-.5.2-.5.3c-4.7 2.8-10.1 5.6-16.2 8.1-3.5 1.4-7.4 2.7-11.6 4-18.8 5.8-39.2 7.4-59 4.7-22.5-5.5-46.4-1.1-66.8 11.5-7.9 4.7-15.2 10.7-21.7 17.7-3.7 4-7.5 7.8-11.6 11.3l-3.5 3.1c-7.4 5.9-15.1 10.9-23.1 14.8-21.3 10.4-53.8 11-99.3 8.4-2.5-.1-4.9-.3-7.4-.6 3.4-7.4 7.9-14.2 13.4-20.3 6.2-6.8 12.8-11.7 19.1-15.4.9-.5 1.7-.9 2.6-1.4 3.8-1.9 7.1-3.2 9.6-4.1h.2c9.3-3.6 18.2-7.7 26.6-12.1 37.2-19.1 63.7-43.2 65.9-45.2m24.1 98.9c24.5 10.8 57.4 12.7 98.1 12.6 7.9 0 15.5-.4 22.9-1.1.4 2.3.6 4.3.5 7.6-.1 5.7-.9 11.3-2.3 16.7-3.5-.4-7.1-.7-10.7-.9-21.2-1.2-41.2-1.8-59-.7-17.7 1.1-33.8 4.1-46.8 10.5-9.8 4.8-18.8 10.8-27.1 17.7-7-4.7-14.4-8.9-22.1-12.3-23.7-10.5-55.8-12.7-96.8-12.7H135c-5.9 0-10.5.2-15.2.5-3.1.2-6.2.5-9.3.8-.2-2.9-.3-5.8-.2-8.8.2-6.1 1.1-12 2.6-17.8 4 .5 8 .8 12.2 1 14.1.8 27 1.3 38.9 1.3 28.1 0 50.1-2.8 66.9-11 8.9-4.3 17.4-9.9 25.6-16.4 7.2 5 15 9.4 23.2 13M13.8 191.2l-.4-.4c-.2-.2-.4-.5-.4-.8v-52.6c0-.2 0-.7.6-1 .2-.1.3-.1.4-.1.3 0 .5.2.6.3 10 8.7 20.7 16.3 32.1 22.7-5 7-9.2 14.6-12.7 22.5-3.1 7.1-5.5 14.4-7.3 21.8zm1 189.1-.3.2c-.1.1-.5.4-1 .1-.6-.3-.6-.8-.6-1V315c0-.3.1-.6.3-.8l13-5.6c2.2 8.9 4.9 17.1 7.7 24.5 3.5 9.2 7.9 18 13.2 26.3-10.8 7-21.6 14-32.3 20.9m141.7 30.8c-22.9-2-41.8-9.5-56.6-18.2-13.6-7.9-25.4-18.4-34.9-30.7l-3.2-4.8c-6.3-9.5-11.7-19.7-15.8-30.4-3.6-9.3-6.4-19-8.2-28.8l-1.5-8-.7.3c-1.5-9.1-2.5-19-2.7-29.4-.2-11.2.6-21.8 2-31.6l.5.5 1.7-12.6c.1-.5.2-1.1.2-1.6 1.1-5.1 2.4-10 3.8-14.6 4.1-13.8 10.4-26.5 18.4-37.8.6-.7 1.1-1.5 1.7-2.2l5-6.2-.2-.1c21.4-25.5 52.2-42.3 86.5-44.9 1.2-.1 2.4-.2 3.5-.2 35.5-1.8 63.2 10.9 80.2 21.8-11.7 9.6-31.6 24.2-55.3 36.2-6.7 3.3-13.7 6.5-21 9.3-4.2 1.5-9.1 3.6-14.4 6.6-29.9 15.6-47.6 45.5-48.4 77.5-.1 4.7.1 9.4.6 14v1.2c-.1 5.8.4 19.4 8.7 33.6 1.5 2.5 3.1 4.8 4.7 6.9 6.1 8.3 13.2 13.6 18.5 16.8 2.9 1.9 16 10.3 32.2 14.4 2.7.7 5.6 1.4 8.9 2.1 18.3 4.3 46 10.8 79.6 28.4 1.3 1.1 2.6 2.1 3.9 3.2-11.9 9.3-47.8 33.8-97.7 29.3m203.7-6.8h-.3c-1.1.1-2.2.2-3.2.2-28.5 1.4-55.9-6.6-81.7-23.7l.3-.3-6.6-4.7c-4-2.8-7.7-5.8-11.2-8.7l-.3.4.3-.4-.5-.4-.6-.3c-36.1-19-65.6-26-84.8-30.5-2.7-.6-5.2-1.2-7.4-1.8-.9-.2-1.8-.5-2.7-.7q-8.85-2.55-15.9-6.3h-.2a95 95 0 0 1-9.4-5.4l-.1-.1-.2-.1c-3.1-1.8-8.5-5.5-13.6-11.7-1.2-1.6-2.4-3.2-3.4-5.1-4.5-7.7-6.3-15.4-6.8-21.5 2.9-.3 5.8-.6 8.7-.7 4.4-.3 8.8-.4 14.4-.4 39.9 0 71 1.9 92.9 11.6 11.9 5.3 22.9 12.3 32.7 20.8 14 12.3 43 31.8 79.1 25.1 4.2-.8 8.4-1.9 12.5-3.2 18-2.5 36-1.4 53.6 3.2 14.8 3.9 28.7 10.3 41.5 18.9-22 26.6-53.4 43.2-87.1 45.8M498.7 322c.2.2.4.5.4.8v52.5c0 .3-.1.5-.2.6s-.2.3-.4.4-.4.1-.6.1c-.1 0-.3-.1-.5-.3-8.9-7.7-22-17.6-38.7-26.1-10.1-7.4-27.1-18-50.6-24.2-25.3-6.7-46.7-5.2-59.3-3.4l-.6.1-.5.2c-3.6 1.2-7.4 2.2-11.4 2.9-30.4 5.6-55.4-10.9-68.2-21.9-.6-.5-1.3-1.1-1.9-1.6 6.8-5.4 14.2-10.1 21.9-13.9 10.8-5.3 24.9-8.1 41.9-9.2s36.3-.5 57.5.7c4.9.3 9.6.7 14.2 1.3l.6.1c12.6 2.5 25 5.9 37 10 12.8 4.4 25.4 9.8 37.6 16.2l1.7.9c8.7 5.1 15.4 10.1 20.1 13.8m-85.2-80.5c20-3 37.5-8.1 52.3-13.8 3.4-1.2 6.6-2.4 9.9-3.6.1.5.3.9.4 1.4.8 3.1 1.5 5.6 1.8 8.6.6 5.5.9 11.2 1 16.9.2 13.5-1 27-3.5 40.3-16.5-8.9-38-17.6-63.7-22 1.4-6 2.2-12 2.3-18.2.2-4.1 0-6.9-.5-9.6m85.6-45c0 .4-.2.7-.5.9-8.4 5.1-21.1 12-37.3 18.3-5.6 1.9-11.4 3.8-18.1 5.5-13.3 3.4-27.2 6.5-38.3 8.3l-3 .5c-7.7.8-15.8 1.3-24.1 1.3-41 .1-71.3-2-92.9-11.5-6.4-2.8-12.6-6.2-18.5-10 2.6-2.5 5.1-5 7.6-7.7 5.3-5.8 11.3-10.6 17.6-14.6 17.3-10.3 37.4-13.8 56-9.2l.3.1h.3c13.6 1.9 37.4 3.4 65-5.1 5-1.5 9.6-3.3 14-5.1 9.1-3.5 16.5-7.2 22.1-10.6 20.7-8.4 36.8-18.5 48-26.5.7-.5 1.7 0 1.7.8v64.6z" style="fill:#fff"/></svg>