<?xml version="1.0" encoding="utf-8"?>
<!-- Generator: Adobe Illustrator 28.2.0, SVG Export Plug-In . SVG Version: 6.00 Build 0)  -->
<svg version="1.1" id="Layer_1" xmlns="http://www.w3.org/2000/svg" xmlns:xlink="http://www.w3.org/1999/xlink" x="0px" y="0px"
	 viewBox="0 0 512 512" style="enable-background:new 0 0 512 512;" xml:space="preserve">
<path d="M400,0H112C50.1,0,0,50.1,0,112v288c0,61.9,50.1,112,112,112h288c61.9,0,112-50.1,112-112V112C512,50.1,461.9,0,400,0z
	 M91.1,199.4c-0.2-6.4,5-11.7,11.4-11.7h35c3,0,5.9-1.2,8.1-3.3l70.2-70.2c2.1-2.1,5-3.3,8.1-3.3H276c6.3,0,11.4,5.1,11.4,11.4v36.3
	c0,6.3-5.1,11.4-11.4,11.4h-46.3c-3,0-5.9,1.2-8.1,3.3L150.7,244c-2.1,2.1-5,3.3-8.1,3.3h-39.3c-6.2,0-11.2-4.9-11.4-11.1
	L91.1,199.4z M422.3,311.1c0,6.3-5.1,11.4-11.4,11.4h-46.3c-3,0-5.9,1.2-8.1,3.3l-70.8,70.8c-2.1,2.1-5,3.3-8.1,3.3h-39.3
	c-6.2,0-11.2-4.9-11.4-11.1l-1-36.8c-0.2-6.4,5-11.7,11.4-11.7h35c3,0,5.9-1.2,8.1-3.3l70.2-70.2c2.1-2.1,5-3.3,8.1-3.3h52.1
	c6.3,0,11.4,5.1,11.4,11.4v36.2H422.3z M422.3,193c0,6.3-5.1,11.4-11.4,11.4h-46.3c-3,0-5.9,1.2-8.1,3.3l-70.8,70.8
	c-2.1,2.1-5,3.3-8.1,3.3H234c-2.9,0-5.8,1.1-7.9,3.2L147,360.9c-2.1,2-5,3.2-7.9,3.2h-34.5c-6.3,0-11.4-5.1-11.4-11.4v-37
	c0-6.3,5.1-11.4,11.4-11.4H139c3,0,5.9-1.2,8.1-3.3l75.3-75.3c2.1-2.1,5-3.3,8.1-3.3h41.9c3,0,5.9-1.2,8.1-3.3l70.2-70.2
	c2.1-2.1,5-3.3,8.1-3.3h52.1c6.3,0,11.4,5.1,11.4,11.4L422.3,193L422.3,193z"/>
</svg>
