<?xml version="1.0" encoding="utf-8"?>
<!-- Generator: Adobe Illustrator 28.2.0, SVG Export Plug-In . SVG Version: 6.00 Build 0)  -->
<svg version="1.1" id="Layer_1" xmlns="http://www.w3.org/2000/svg" xmlns:xlink="http://www.w3.org/1999/xlink" x="0px" y="0px"
	 viewBox="0 0 512 512" style="enable-background:new 0 0 512 512;" xml:space="preserve">
<style type="text/css">
	.st0{fill:#FFFFFF;}
</style>
<path class="st0" d="M441,0H71C31.8,0,0,31.8,0,71v370c0,39.2,31.8,71,71,71h370c39.2,0,71-31.8,71-71V71C512,31.8,480.2,0,441,0z
	 M348.2,353.8c-69.8,0-94-31.5-106.9-70.6l-12.9-40.3c-9.7-29.4-21-52.4-56.5-52.4c-24.6,0-49.6,17.7-49.6,67.4
	c0,38.7,19.8,62.9,47.6,62.9c31.5,0,52.4-23.4,52.4-23.4l12.9,35.1c0,0-21.8,21.4-67.4,21.4c-56.5,0-87.9-33.1-87.9-94.4
	c0-63.7,31.5-101.2,90.8-101.2c53.6,0,80.7,19.4,97.6,71.8l13.3,40.3c9.7,29.4,26.6,50.8,67.4,50.8c27.4,0,41.9-6.1,41.9-21
	c0-11.7-6.9-20.2-27.4-25l-27.4-6.5c-33.5-8.1-46.8-25.4-46.8-52.8c0-44,35.5-57.7,71.8-57.7c41.1,0,66.2,14.9,69.4,51.2l-40.3,4.8
	c-1.6-17.3-12.1-24.6-31.5-24.6c-17.8,0-28.6,8.1-28.6,21.8c0,12.1,5.2,19.4,23,23.4l25.8,5.6c34.7,8.1,53.2,25,53.2,57.7
	C432.1,338.5,398.2,353.8,348.2,353.8z"/>
</svg>
