<?xml version="1.0" encoding="utf-8"?>
<!-- Generator: Adobe Illustrator 28.2.0, SVG Export Plug-In . SVG Version: 6.00 Build 0)  -->
<svg version="1.1" id="Layer_1" xmlns="http://www.w3.org/2000/svg" xmlns:xlink="http://www.w3.org/1999/xlink" x="0px" y="0px"
	 viewBox="0 0 512 512" style="enable-background:new 0 0 512 512;" xml:space="preserve">
<style type="text/css">
	.st0{clip-path:url(#SVGID_00000174566652813552129750000002607617242704100480_);fill:#FFFFFF;}
	.st1{clip-path:url(#SVGID_00000174566652813552129750000002607617242704100480_);}
	.st2{fill:#FFFFFF;}
</style>
<g>
	<defs>
		<rect id="SVGID_1_" x="72.6" width="366.9" height="512"/>
	</defs>
	<clipPath id="SVGID_00000150091492013701674230000014019483019129722506_">
		<use xlink:href="#SVGID_1_"  style="overflow:visible;"/>
	</clipPath>
	
		<rect x="80.5" y="3.9" style="clip-path:url(#SVGID_00000150091492013701674230000014019483019129722506_);fill:#FFFFFF;" width="355" height="502.6"/>
	<g style="clip-path:url(#SVGID_00000150091492013701674230000014019483019129722506_);">
		<path d="M406.6,520.6H105.4c-22.9,0-41.4-18.6-41.4-41.5V32.8c0-22.9,18.6-41.4,41.4-41.4h301.3c22.8,0,41.5,18.6,41.5,41.4v446.4
			C448.1,502,429.5,520.6,406.6,520.6z M105.4,8.6C92,8.6,81.2,19.5,81.2,32.8v446.4c0,13.3,10.8,24.2,24.2,24.2h301.3
			c13.3,0,24.2-10.8,24.2-24.2V32.8c0-13.3-10.8-24.2-24.2-24.2H105.4z"/>
		<path d="M257.2,451.9c74.5,0,134.9-60.1,134.9-134.1c0-74.1-60.4-134.1-134.9-134.1s-134.9,60.1-134.9,134.1
			C122.3,391.8,182.7,451.9,257.2,451.9z"/>
		<path class="st2" d="M239,241.6c-36.5,8.7-54.1,42.3-58.3,58l18.2,3.6c4.4-27.6,28.6-40.5,40.1-43.5V241.6z"/>
		<path class="st2" d="M271.8,397.5c38.7-9.2,57.5-44.8,62-61.4l-19.4-3.8c-4.7,29.2-30.4,42.9-42.6,46.1V397.5z"/>
		<path class="st2" d="M229.9,212.6c-52.5,13.1-74.2,57.4-78.4,77.9l14.6,3.6c13.1-42.1,49.2-59.8,65.6-63.4L229.9,212.6z"/>
		<path class="st2" d="M281,426.5c54.9-13.9,77.5-61.2,82-83.1l-15.2-3.9c-13.7,44.9-51.5,63.8-68.6,67.7L281,426.5z"/>
		<path class="st2" d="M257.2,350.4c18.1,0,32.8-14.6,32.8-32.6s-14.7-32.6-32.8-32.6s-32.8,14.6-32.8,32.6S239.1,350.4,257.2,350.4
			z"/>
		<path d="M125.9,67.6c8.1,0,14.6-6.5,14.6-14.5c0-8-6.5-14.5-14.6-14.5c-8.1,0-14.6,6.5-14.6,14.5
			C111.3,61.1,117.9,67.6,125.9,67.6z"/>
		<path d="M388.5,67.6c8.1,0,14.6-6.5,14.6-14.5c0-8-6.5-14.5-14.6-14.5c-8.1,0-14.6,6.5-14.6,14.5
			C373.9,61.1,380.4,67.6,388.5,67.6z"/>
		<path d="M257.2,143.7c24.2,0,43.8-19.5,43.8-43.5c0-24-19.6-43.5-43.8-43.5c-24.2,0-43.8,19.5-43.8,43.5
			C213.5,124.3,233,143.7,257.2,143.7z"/>
		<path class="st2" d="M257.1,114.7c8.1,0,14.6-6.5,14.6-14.5s-6.5-14.5-14.6-14.5c-8.1,0-14.6,6.5-14.6,14.5
			S249.1,114.7,257.1,114.7z"/>
	</g>
</g>
</svg>
