<?xml version="1.0" encoding="utf-8"?>
<!-- Generator: Adobe Illustrator 28.2.0, SVG Export Plug-In . SVG Version: 6.00 Build 0)  -->
<svg version="1.1"
	 id="svg8" xmlns:cc="http://creativecommons.org/ns#" xmlns:dc="http://purl.org/dc/elements/1.1/" xmlns:rdf="http://www.w3.org/1999/02/22-rdf-syntax-ns#" xmlns:inkscape="http://www.inkscape.org/namespaces/inkscape" xmlns:svg="http://www.w3.org/2000/svg" xmlns:sodipodi="http://sodipodi.sourceforge.net/DTD/sodipodi-0.dtd"
	 xmlns="http://www.w3.org/2000/svg" xmlns:xlink="http://www.w3.org/1999/xlink" x="0px" y="0px" viewBox="0 0 512 512"
	 style="enable-background:new 0 0 512 512;" xml:space="preserve">
<g id="layer1" transform="translate(-36.380379,-256.78621)" inkscape:groupmode="layer" inkscape:label="Layer 1">
	<path d="M454.5,491.5c-1.3,0-2.5-1-2.7-2.4c-0.2-1.5,0.8-2.9,2.3-3.1c18.6-2.5,35.7-8.8,53.9-19.7c34.1-23.2,44.1-56.5,26.1-86.8
		c-17.2-29.1-54.3-33.8-92.5-11.7c-11.1,6.5-22.2,16.9-31.1,29.4c-0.9,1.2-2.6,1.5-3.8,0.6c-1.2-0.9-1.5-2.6-0.6-3.8
		c9.4-13.1,21-24.1,32.8-31c19.1-11,39.3-16,56.9-14c18.7,2.1,33.6,11.7,43,27.7c9.6,16.2,12.1,33.5,7.1,50.2
		c-4.9,16.6-17,31.8-34.9,43.9c0,0-0.1,0.1-0.1,0.1c-18.8,11.4-36.6,17.9-56,20.5C454.7,491.5,454.6,491.5,454.5,491.5z
		 M130.3,491.5c-0.1,0-0.2,0-0.4,0c-19.4-2.6-37.2-9.1-56-20.5c0,0-0.1-0.1-0.1-0.1c-17.9-12.2-29.9-27.3-34.9-43.9
		c-5-16.7-2.5-34.1,7.1-50.2c9.4-15.9,24.3-25.5,43-27.7c17.6-2,37.8,2.9,56.9,14c11.8,6.9,23.4,17.9,32.8,31
		c0.9,1.2,0.6,2.9-0.6,3.8c-1.2,0.9-2.9,0.6-3.8-0.6c-8.9-12.5-20-22.9-31.1-29.4c-38.2-22-75.3-17.3-92.5,11.7
		c-18,30.3-8,63.6,26.1,86.8c18.1,10.9,35.2,17.2,53.9,19.7c1.5,0.2,2.5,1.6,2.3,3.1C132.8,490.5,131.6,491.5,130.3,491.5z"/>
	<path d="M427.9,416.1c-28.3-30.1-75.2-45.5-135.6-44.5c-62.2,1-108,16.9-135.9,47.2c-22.6,24.5-32.9,57.5-30.4,98.1
		c2.3,37.3,23.9,73.5,60.8,101.9c20.9,16.1,45.2,28.2,68.6,34.7c-1.1-2-2-4.2-2.8-6.5c-55.8-17.1-117.3-66.7-121.2-130.4
		c-2.4-39.1,7.4-70.7,29-94c26.9-29.1,71.4-44.4,132-45.4c1.8,0,3.5,0,5.2,0c56.3,0,99.9,14.8,126.3,42.8
		c22.3,23.7,32.5,57.1,29.4,96.6c-4.9,63.2-65.9,112.5-121.2,130c-0.8,2.3-1.8,4.5-3,6.6c23.1-6.6,47-18.6,67.7-34.4
		c37-28.4,59-64.5,61.9-101.8c0,0,0,0,0,0C462,475.8,451.3,441,427.9,416.1z"/>
	
		<path id="path1084" inkscape:connector-curvature="0" inkscape:label="eyes" sodipodi:insensitive="true" sodipodi:nodetypes="ssssssssss" d="
		M348.1,554.8c0,13.1,10.6,23.6,23.6,23.6c13,0,23.6-10.6,23.6-23.6c0-13.1-10.6-23.6-23.6-23.6
		C358.7,531.2,348.1,541.8,348.1,554.8z M189.3,554.8c0,13.2,10.7,23.9,23.8,23.9c13.2,0,23.8-10.7,23.8-23.9s-10.7-23.9-23.8-23.9
		C200,531,189.3,541.7,189.3,554.8z"/>
	<path d="M164.1,669.4c-0.7,0-1.3-0.2-1.9-0.6c-1.4-1-1.7-3-0.6-4.4l30.8-40.8c1-1.4,3-1.7,4.4-0.6c1.4,1,1.7,3,0.6,4.4l-30.8,40.8
		C166,669,165,669.4,164.1,669.4z M420.7,669.4c-0.9,0-1.9-0.4-2.5-1.2l-30.8-40.8c-1-1.4-0.8-3.3,0.6-4.4c1.4-1,3.3-0.8,4.4,0.6
		l30.8,40.8c1,1.4,0.8,3.3-0.6,4.4C422,669.2,421.3,669.4,420.7,669.4z M102.2,608.5c-1.2,0-2.4-0.7-2.9-1.9
		c-0.7-1.6,0.1-3.4,1.7-4.1l49.7-20.3c1.6-0.6,3.4,0.1,4.1,1.7c0.7,1.6-0.1,3.4-1.7,4.1l-49.7,20.3
		C102.9,608.5,102.5,608.5,102.2,608.5z M480,608.5c-0.4,0-0.8-0.1-1.2-0.2L429.2,588c-1.6-0.7-2.4-2.5-1.7-4.1
		c0.7-1.6,2.5-2.4,4.1-1.7l49.7,20.3c1.6,0.7,2.4,2.5,1.7,4.1C482.4,607.8,481.2,608.5,480,608.5z"/>
	<path d="M292.4,676.9c-25.7,0-44-17.6-44.7-42.9c-0.3-11.5,3.8-22.2,11.5-30c8.2-8.4,20-13,33.2-13c25.9,0,44.7,18.1,44.7,42.9
		C337,657.6,316.9,676.9,292.4,676.9z M292.4,596.5c-11.8,0-22.2,4-29.3,11.3c-6.6,6.8-10.1,16-9.9,26.1
		c0.6,22.1,16.7,37.5,39.2,37.5c21.5,0,39.1-16.8,39.2-37.5C331.6,611.9,315.5,596.5,292.4,596.5z"/>
</g>
</svg>
