<?xml version="1.0" encoding="utf-8"?>
<!-- Generator: Adobe Illustrator 28.2.0, SVG Export Plug-In . SVG Version: 6.00 Build 0)  -->
<svg version="1.1" id="Layer_1" xmlns="http://www.w3.org/2000/svg" xmlns:xlink="http://www.w3.org/1999/xlink" x="0px" y="0px"
	 viewBox="0 0 512 512" style="enable-background:new 0 0 512 512;" xml:space="preserve">
<style type="text/css">
	.st0{fill:#FFFFFF;}
</style>
<path class="st0" d="M388.2,275.4h-24.8l0-31.6c0-59.2-48.2-107.4-107.4-107.4c-59.2,0-107.4,48.2-107.4,107.4v31.6h-24.8
	c-11.3,0-20.5,9.2-20.5,20.5v195.6c0,11.3,9.2,20.5,20.5,20.5h264.4c11.3,0,20.5-9.2,20.5-20.5V295.9
	C408.7,284.6,399.5,275.4,388.2,275.4z M269.4,403.8v26.5c0,7.4-6,13.4-13.4,13.4c-7.4,0-13.4-6-13.4-13.4v-26.5
	c-8.2-4.7-13.8-13.5-13.8-23.7c0-15,12.2-27.2,27.2-27.2s27.2,12.2,27.2,27.2C283.2,390.3,277.6,399.1,269.4,403.8z M210.2,275.4
	v-31.6c0-25.3,20.5-45.8,45.8-45.8s45.8,20.6,45.8,45.8v31.6H210.2z M97,246.2H33.2c-10.3,0-18.7-8.4-18.7-18.7s8.4-18.7,18.7-18.7
	H97c10.3,0,18.7,8.4,18.7,18.7S107.4,246.2,97,246.2z M141.9,145.9c-4.2,0-8.4-1.4-11.9-4.3l-50.5-41.5c-8-6.6-9.1-18.4-2.6-26.4
	c6.6-8,18.4-9.1,26.4-2.6l50.5,41.5c8,6.6,9.1,18.4,2.6,26.4C152.7,143.5,147.4,145.9,141.9,145.9z M256,101.8
	c-10.3,0-18.7-8.4-18.7-18.7V18.7C237.3,8.4,245.7,0,256,0c10.3,0,18.7,8.4,18.7,18.7V83C274.7,93.4,266.3,101.8,256,101.8z
	 M370.1,145.9c-5.4,0-10.8-2.3-14.5-6.8c-6.6-8-5.4-19.8,2.6-26.4l50.5-41.5c8-6.6,19.8-5.4,26.4,2.6s5.4,19.8-2.6,26.4L382,141.7
	C378.6,144.4,374.4,145.9,370.1,145.9z M478.8,246.2h-64.4c-10.3,0-18.7-8.4-18.7-18.7s8.4-18.7,18.7-18.7h64.4
	c10.3,0,18.7,8.4,18.7,18.7S489.1,246.2,478.8,246.2z"/>
</svg>
