<svg xmlns="http://www.w3.org/2000/svg" xml:space="preserve" viewBox="0 0 512 512"><path d="M256 0C114.6 0 0 114.6 0 256s114.6 256 256 256 256-114.6 256-256S397.4 0 256 0m-60.9 293.9c-6.9-11-10.9-24-10.9-37.9s4-26.9 10.9-37.9C202 229 206 242 206 256c0 13.9-4 26.9-10.9 37.9m121.8 0c-6.9-11-10.9-24-10.9-37.9s4-26.9 10.9-37.9c6.9 11 10.9 24 10.9 37.9s-4 26.9-10.9 37.9" style="fill-rule:evenodd;clip-rule:evenodd"/><path d="M316.9 218.1c-12.7-20.3-35.2-33.7-60.9-33.7s-48.2 13.5-60.9 33.7C202 229 206 242 206 256c0 13.9-4 26.9-10.9 37.9 12.7 20.3 35.2 33.7 60.9 33.7s48.2-13.5 60.9-33.7c-6.9-11-10.9-24-10.9-37.9 0-14 4-27 10.9-37.9" style="fill-rule:evenodd;clip-rule:evenodd;fill:#00e054"/><path d="M377.8 184.3c-25.7 0-48.2 13.5-60.9 33.7 6.9 11 10.9 24 10.9 37.9s-4 26.9-10.9 37.9c12.7 20.3 35.2 33.7 60.9 33.7 39.6 0 71.8-32.1 71.8-71.7-.1-39.4-32.2-71.5-71.8-71.5" style="fill-rule:evenodd;clip-rule:evenodd;fill:#40bcf4"/><path d="M184.2 256c0-13.9 4-26.9 10.9-37.9-12.7-20.3-35.2-33.7-60.9-33.7-39.6 0-71.8 32.1-71.8 71.7s32.1 71.7 71.8 71.7c25.7 0 48.2-13.5 60.9-33.7-6.9-11.2-10.9-24.2-10.9-38.1" style="fill-rule:evenodd;clip-rule:evenodd;fill:#ff8000"/></svg>