<?xml version="1.0" encoding="utf-8"?>
<!-- Generator: Adobe Illustrator 28.2.0, SVG Export Plug-In . SVG Version: 6.00 Build 0)  -->
<svg version="1.1" id="Layer_1" xmlns="http://www.w3.org/2000/svg" xmlns:xlink="http://www.w3.org/1999/xlink" x="0px" y="0px"
	 viewBox="0 0 512 512" style="enable-background:new 0 0 512 512;" xml:space="preserve">
<style type="text/css">
	.st0{fill-rule:evenodd;clip-rule:evenodd;}
</style>
<g>
	<path class="st0" d="M256,0H138.1c-18,24.3-30.4,52.6-36.3,82.6c-25.5,127.6,31,224.4,139.1,237.9v159.2h-81.6
		c-8.9,0-16.1,7.2-16.1,16.1s7.2,16.1,16.1,16.1h193.5c8.9,0,16.1-7.2,16.1-16.1s-7.2-16.1-16.1-16.1h-81.6V320.5
		c108-13.5,164.6-110.3,139.1-237.9c-5.9-30.1-18.3-58.3-36.3-82.6H256 M156.2,30.2C139.9,59.4,130.9,92.3,130,126
		c-4.1,99.2,44.7,161.2,126,160.3c81.3,0.9,130-61,126-160.3c-0.9-33.7-9.9-66.6-26.2-95.7H156.2z"/>
	<path d="M151.2,129c-1.7,82.6,38.1,134.7,104.8,137.1c66.8-2.4,106.6-54.5,104.8-137.1H151.2z"/>
</g>
</svg>
