<svg xmlns="http://www.w3.org/2000/svg" xml:space="preserve" viewBox="0 0 512 512"><path d="M256 0H138.1c-18 24.3-30.4 52.6-36.3 82.6-25.5 127.6 31 224.4 139.1 237.9v159.2h-81.6c-8.9 0-16.1 7.2-16.1 16.1s7.2 16.1 16.1 16.1h193.5c8.9 0 16.1-7.2 16.1-16.1s-7.2-16.1-16.1-16.1h-81.6V320.5c108-13.5 164.6-110.3 139.1-237.9C404.4 52.5 392 24.3 374 0zm-99.8 30.2C139.9 59.4 130.9 92.3 130 126c-4.1 99.2 44.7 161.2 126 160.3 81.3.9 130-61 126-160.3-.9-33.7-9.9-66.6-26.2-95.7zm-5 98.8c-1.7 82.6 38.1 134.7 104.8 137.1 66.8-2.4 106.6-54.5 104.8-137.1z" style="fill-rule:evenodd;clip-rule:evenodd"/></svg>