<svg xmlns="http://www.w3.org/2000/svg" xml:space="preserve" viewBox="0 0 512 512"><path d="M512 301.7v6.5c-2.1 1.5-4.3 2.9-6.5 4.3v.6L376 360.5l28.1 46.3 79.8 1.3c-2.3 5.2-4.8 10.3-7.4 15.3-4.8 9.2-10.3 18-16.3 26.5l-.3.4-34-7.6.2.3h-9.5c-38.2-66.7-80.2-130.5-119.2-196.7L227 326.5l-33.4-14.8L91.2 442.8h-9.4L46 450.6h-.1c-10-14.2-18.6-29.4-25.5-45.4l90.8-.4 33.2-42.7L0 307.9c-.1-16.3 1.5-32.6 4.6-48.6l151.8 87.4L178 319 41.4 169.9v-.1c3.7-5.5 7.5-10.8 11.6-16 6-7.8 12.6-15.1 19.5-22.1L189 304.8l2.2-2.8 33.7 14.8 3.3-3.8-71.6-237.3.8-.4c11.9-4.8 24.2-8.7 36.6-11.6l1.4-.3c.9-.2 1.8-.4 2.8-.6l1.4-.3 4.2-.9h.1l36 238.1 34.7-39.7 25.9-198.7.5.1c.9.2 1.9.4 2.8.6 14.4 2.9 28.6 7.1 42.3 12.5l1.2.5L302 238.3l28.9 47.6 99.6-157.1c5.1 4.9 9.9 10 14.6 15.4 6.8 7.8 13 16 18.7 24.6l-121 136.8 22.1 36.3L502 263.6l6.4.1v.3q1.5 8.4 2.4 16.8l.1 1.4.1 1.4.1 1.4.1 1.4.1 1.4.1 1.4.1 1.4.1 1.4.1 1.4.1 1.4.1 1.4.1 1.4.1 1.4v1.4zm-277.7 54.1-33.8-13.7-78.9 100.6 266.2.1-92.1-157.4zm-5.5-19.5-33.4-13.9L101 442.7h10.5L198 332.1l33.2 13.7 65-74.5 102 171.7 10.1-.2-111.1-184.9z"/></svg>