<?xml version="1.0" encoding="utf-8"?>
<!-- Generator: Adobe Illustrator 28.2.0, SVG Export Plug-In . SVG Version: 6.00 Build 0)  -->
<svg version="1.1" id="Layer_1" xmlns="http://www.w3.org/2000/svg" xmlns:xlink="http://www.w3.org/1999/xlink" x="0px" y="0px"
	 viewBox="0 0 512 512" style="enable-background:new 0 0 512 512;" xml:space="preserve">
<path d="M256.2,105.2C306.5,155.5,356.8,205.8,407,256c-50.2,50.2-100.5,100.5-150.7,150.8C206,356.5,155.7,306.2,105.5,256
	C155.6,205.8,206,155.5,256.2,105.2z M425.6,237.1c-56.4-56.4-112.9-112.9-169.4-169.4c-56.5,56.5-113.1,113.1-169.5,169.5
	c3.2,3.1,6.4,6.4,9.8,9.8c53.1-53.1,106.4-106.3,159.8-159.8c53.3,53.3,106.6,106.6,159.6,159.6
	C419.2,243.5,422.5,240.3,425.6,237.1z M256.3,443.7c56.4-56.3,112.9-112.9,169.4-169.4c-3.1-3.1-6.3-6.3-9.9-9.9
	c-53.3,53.3-106.5,106.5-160,160C202.6,371.3,149.4,318.1,96.3,265c-3.2,3.2-6.4,6.4-9.3,9.4C143.4,330.8,200,387.4,256.3,443.7z
	 M425.4,256c3.1,3.1,6.3,6.3,9.4,9.4c3.1-3.1,6.4-6.4,9.5-9.5c-3.1-3.1-6.4-6.4-9.5-9.5C431.7,249.6,428.5,252.9,425.4,256z
	 M256,461.8c-59.5-59.5-118.9-118.9-178.2-178.2c-3.3,3.3-6.5,6.5-9.7,9.7c62.6,62.6,125.4,125.4,188.1,188.1
	c62.7-62.7,125.5-125.5,188.1-188.1c-3.1-3.1-6.4-6.4-9.9-9.9C375.1,342.7,315.6,402.2,256,461.8z M512,256
	c0,141.4-114.6,256-256,256S0,397.4,0,256S114.6,0,256,0S512,114.6,512,256z M461.8,292.9c-6-6-12.2-12.1-18.5-18.4
	c6.3-6.2,12.4-12.3,18.9-18.8c-6.2-6.3-12.5-12.5-18.8-18.8c1.5-1.5,2.9-2.9,4.4-4.4c4.6-4.6,9.2-9.1,13.8-13.7
	C393,150.3,324.4,81.7,256,13.3c-68.4,68.4-137,137-205.8,205.8c6,6,12.2,12.1,18.6,18.5c-6.1,6.2-12.3,12.3-18.7,18.7
	c6.2,6.1,12.3,12.2,18.7,18.6c-6.1,6.1-12.3,12.3-18.3,18.3c68.6,68.5,137.1,137,205.6,205.5C324.7,430.2,393.3,361.6,461.8,292.9z
	 M87.1,256c-3.1-3.2-6.4-6.5-9.4-9.6c-3.2,3.2-6.4,6.4-9.6,9.6c3.1,3.1,6.4,6.4,9.5,9.5C80.7,262.4,84,259.1,87.1,256z M78,228.3
	C137.2,169,196.7,109.6,256.3,50c59.5,59.5,119,119,178.3,178.3c3.3-3.4,6.6-6.6,9.7-9.7c-62.7-62.7-125.4-125.4-188-188
	c-62.7,62.7-125.4,125.4-188,188C71.4,221.7,74.6,224.9,78,228.3z"/>
</svg>
