<?xml version="1.0" encoding="utf-8"?>
<!-- Generator: Adobe Illustrator 28.2.0, SVG Export Plug-In . SVG Version: 6.00 Build 0)  -->
<svg version="1.1" id="Layer_1" xmlns="http://www.w3.org/2000/svg" xmlns:xlink="http://www.w3.org/1999/xlink" x="0px" y="0px"
	 viewBox="0 0 512 512" style="enable-background:new 0 0 512 512;" xml:space="preserve">
<path d="M248.6,86.6L248,69.4c-0.1,0-0.1,0-0.2,0v-0.3c-16.3,0.9-32.3,3.7-47.6,8.4l8.7,27.3h0.1l0.2,0.5c12.5-3.8,25-6.3,37.9-6.9
	L248.6,86.6z M283.3,254.9l-2.5-16L256.2,70.3l-24.7,168.6l-2.6,16c0,21.6,12.2,39.1,27.2,39.1S283.3,276.5,283.3,254.9z
	 M180.1,367.8v21.6l0,0h21.6v-21.6H180.1z M223.6,367.8h-0.3v21.6h0.3h21.3h0.3v-21.6h-0.3H223.6z M185.2,83.1
	C185.2,83.1,185.1,83.1,185.2,83.1L185.2,83.1c-14.8,6-28.9,14.1-42,24.1l17.4,22.8l0.1-0.1l0.1,0.1c11.2-8.4,22.8-15.3,35.3-20.3
	L185.2,83.1z M103.4,219.8L103.4,219.8c3.3-13.2,7.9-26,14.2-38.2l-25.7-13.1c-0.1,0.1-0.1,0.3-0.2,0.4h-0.1
	c-7.5,14.4-13.1,29.7-16.6,45.4l28.2,6.3C103.3,220.3,103.3,220.1,103.4,219.8z M101,274.2L101,274.2c-0.9-6.7-1.4-13.5-1.4-20.3
	s0.5-13.6,1.4-20.3l0,0v-0.1l-28.5-3.8c-0.8,5.9-1.3,11.8-1.5,17.8c-0.1,2.1-0.1,4.3-0.1,6.4c0,8.1,0.5,16.1,1.6,24.1L101,274.2
	C101,274.3,101,274.2,101,274.2z M150.4,138.8l-13.7-15l-5.4-5.9l0,0l-0.3-0.3c-4.1,3.4-7.8,7.5-11.3,11.3
	c-7.5,8.1-14.1,16.6-19.7,25.7l0.3,0.2c-0.1,0.1-0.2,0.3-0.3,0.4l24.4,15.3c4.7-7.5,10.3-14.7,16.6-21.6c3.1-3.4,6.3-6.6,9.7-9.7
	L150.4,138.8L150.4,138.8z M103.3,288.3c0-0.2-0.1-0.4-0.1-0.6L75,294c3.5,15.6,9.1,31,16.6,45.3l0.4-0.2c0.1,0.1,0.1,0.2,0.2,0.3
	l25.7-13.1c-6.3-12.2-10.9-25-13.8-38.2L103.3,288.3z M403.5,203.3c1.9,5.6,3.5,11.2,4.7,16.9l28.2-6.3c-3.4-15.6-9.1-31-16.6-45.4
	l0,0l0,0l-25.7,13.1C397.8,188.7,400.9,196,403.5,203.3z M439.2,229.7l-28.5,3.8v0.1l0,0c0.9,6.7,1.4,13.5,1.4,20.3
	s-0.5,13.6-1.4,20.3l0,0v0.1l28.5,3.8c2.2-15.7,2.2-31.6,0.1-47.3C439.3,230.4,439.2,230.1,439.2,229.7z M408.2,287.7
	c-0.3,1.4-0.6,2.8-1,4.2c-2.2,8.5-5.1,16.8-8.6,24.9c-1.4,3.1-2.9,6.1-4.5,9.1l0.2,0.1c-0.1,0.1-0.1,0.2-0.2,0.3l25.7,13.1
	c3.1-5.9,5.8-12,8.3-18.2c3.5-8.8,6.3-17.8,8.3-26.8h-0.1c0-0.1,0.1-0.3,0.1-0.4L408.2,287.7z M380.6,117.5l-19.4,21.3
	c0.1,0.1,0.1,0.1,0.2,0.2l-0.2,0.2c5.2,4.5,10,9.4,14.3,14.6c4.4,5.2,8.4,10.7,12,16.3l24.1-15.3
	C403.2,141.3,392.9,128.8,380.6,117.5z M256,0C114.6,0,0,114.6,0,256s114.6,256,256,256s256-114.6,256-256S397.4,0,256,0z
	 M265.9,468.2c-117,5-216.2-85.7-221.5-202.7C39,148.2,129.8,49,247.1,44c117-5,216.2,85.7,221.5,202.7
	C473.6,363.7,382.9,462.9,265.9,468.2z M310.3,367.8H310v21.6h0.3h21.3h0.3v-21.6h-0.3H310.3z M326.9,83.1l-0.1,0.1
	c-0.1,0-0.2-0.1-0.3-0.1l-10.9,26.6c12.5,5,24.4,11.9,35.4,20.3l17.5-22.8C355.4,97.2,341.3,89.1,326.9,83.1z M311.5,77.8l0.1-0.2
	c-15.3-5-31.6-7.8-47.6-8.4v0.5l-1,16.6l1.9,12.1c12.9,0.6,25.7,3.1,37.9,6.9L311.5,77.8C311.6,77.8,311.6,77.8,311.5,77.8z
	 M266.8,367.8h21.6v21.6h-21.6V367.8z"/>
</svg>
