<svg xmlns="http://www.w3.org/2000/svg" xml:space="preserve" viewBox="0 0 512 512"><path d="M380.6 135.2c-14.9-15.3-28.4-25.3-45.8-34.1-26.4-13.2-49.1-18.6-78.8-18.6-31.5 0-59.1 7.2-86.4 22.6-24.9 14-50.6 39.8-64.7 64.7C94.5 188.2 86.9 210 84 230c-1.9 13.1-2 39-.1 51.6 3.8 25.1 13.3 49.8 27.1 70.6 7.5 11.3 7.3 11.2 13.9 7.4 11.9-6.8 15-10.1 21.4-22.8 7.6-14.8 15.7-27.8 23-36.8 8.4-10.4 9.6-12.2 13.8-22 2.1-4.9 5.9-12.2 8.5-16.1l4.6-7.1-6-5.9c-7.9-7.8-14.5-16.6-15.8-21.1-1.3-4.6.2-7.2 6.2-10.6 6-3.5 10.3-4.5 26.4-6.1 7.8-.8 16.4-2.3 19-3.3 2.7-1 10.6-5.4 17.7-9.6 20.4-12.4 22.2-13 34.4-12.8 10.3.2 10.4.2 16.5-3.5 12.9-7.8 31.3-21.8 55.6-42.2 4.7-3.9 9.1-7 10-6.8 3.4.7 9.7 16.1 10.7 26.3.6 6.1-.6 12.2-4.2 21.7-1 2.6-1.5 5.1-1 5.5 1 1 4.6-3.4 4.6-5.8 0-3 2-3.3 4.7-.8 2 1.8 3.6 2.4 7.6 2.4 4.3 0 5.3.4 7 2.6 2.8 3.8 3.5 14.1 1.3 20.7-2.1 6.4-8.5 13.7-14.3 16.4-5.2 2.4-15.7 12.7-20.6 20.1-1.9 2.8-5.4 8.8-7.8 13.2s-6.5 11-9.1 14.8c-5 7.3-9.3 17.6-13.5 32-2.4 8.5-2.6 10.7-2.7 29.7-.1 22.9-1.3 28.5-7.5 35.6-7 8-14.1 25.6-14.7 36.7-.4 7-1.5 13.8-3 18.9-.7 2.2.6 2.2 8.1-.2 21.9-6.9 39.8-16.2 57-29.6 9.2-7.1 25-23.1 31.6-32 18-23.9 30.3-53.8 33.9-82.7 1.7-13.9.7-43.4-1.9-56.2-6.8-33.9-22-62.5-45.8-87M256 0C114.6 0 0 114.6 0 256s114.6 256 256 256 256-114.6 256-256S397.4 0 256 0m164.1 378.6c-8.1 10.9-23.9 27.6-34.4 36.2-28.8 23.6-65.5 39.5-101.8 44.3-12.6 1.6-42.3 1.9-53.8.4-35.9-4.6-70.2-18.9-100.1-41.7-9.8-7.4-28.1-25.9-36.1-36.3-22.4-29.2-36.3-62.4-40.9-97.4-2-15-2-42.6 0-56.3 9.9-68.5 53-127.3 115-156.7 28.8-13.7 55.2-19.4 88.7-19.4 54.2 0 102.2 19.4 141.2 57 18.8 18.1 31.4 35.3 42.1 57.5 14.6 30 20.5 56.2 20.5 90.7 0 45.2-13.1 84.8-40.4 121.7M264.2 209.8l9.2-11.8 14.9-2.1-9.2 11.8z" style="fill:#fff"/></svg>