<svg xmlns="http://www.w3.org/2000/svg" xml:space="preserve" viewBox="0 0 512 512"><circle cx="256" cy="256" r="256" style="fill:#00acff"/><path d="M440 166.1c-10.7-22.2-23.3-39.4-42.1-57.5-39-37.6-87-57-141.2-57-33.5 0-59.9 5.7-88.7 19.4-62 29.4-105.1 88.2-115 156.7-2 13.7-2 41.3 0 56.3 4.6 35 18.5 68.2 40.9 97.4 8 10.4 26.3 28.9 36.1 36.3 29.9 22.8 64.2 37.1 100.1 41.7 11.5 1.5 41.2 1.3 53.9-.3 36.3-4.8 73-20.7 101.8-44.3 10.5-8.6 26.3-25.3 34.4-36.2 27.2-36.8 40.3-76.4 40.3-121.8 0-34.5-5.9-60.7-20.5-90.7m-160.9 41.6-14.9 2.1 9.2-11.8 14.9-2.1zm149.4 70.7c-3.6 28.9-15.9 58.8-33.9 82.7-6.6 8.9-22.4 24.9-31.6 32-17.2 13.4-35.1 22.7-57 29.6-7.5 2.3-8.8 2.3-8.3.2 1.5-5.1 2.6-11.9 3-18.9.6-11.1 7.7-28.7 14.7-36.7 6.2-7.1 7.4-12.7 7.5-35.6.1-19 .3-21.2 2.7-29.7 4.2-14.4 8.5-24.7 13.5-32 2.6-3.8 6.7-10.4 9.1-14.8s5.9-10.4 7.8-13.2c4.9-7.4 15.4-17.7 20.6-20.1 5.8-2.7 12.2-10 14.3-16.4 2.2-6.6 1.5-16.9-1.3-20.7-1.7-2.2-2.7-2.6-7-2.6-4 0-5.6-.6-7.6-2.4-2.7-2.5-4.7-2.2-4.7.8 0 2.4-3.6 6.8-4.6 5.8-.5-.4 0-2.9 1-5.5 3.6-9.5 4.8-15.6 4.2-21.7-1-10.2-7.3-25.6-10.7-26.3-.9-.2-5.3 2.9-10 6.8-24.3 20.4-42.7 34.4-55.6 42.2-6.1 3.7-6.2 3.7-16.5 3.5-12.2-.2-14 .4-34.4 12.8-7.1 4.2-15 8.6-17.7 9.6-2.6 1-11.2 2.5-19 3.3-16.1 1.6-20.4 2.6-26.4 6.1-6 3.4-7.5 6-6.2 10.6 1.3 4.5 7.9 13.3 15.8 21.1l6 5.9-4.6 7.1c-2.6 3.9-6.4 11.2-8.5 16.1-4.2 9.8-5.4 11.6-13.8 22-7.3 9-15.4 22-23 36.8-6.4 12.7-9.5 16-21.4 22.8-6.6 3.8-6.4 3.9-13.9-7.4-13.8-20.8-23.3-45.5-27.1-70.6-1.9-12.6-1.8-38.5.1-51.6 2.9-20 10.5-41.8 20.9-60.2 14.1-24.9 39.8-50.7 64.7-64.7 27.3-15.4 54.9-22.6 86.4-22.6 29.7 0 52.4 5.4 78.8 18.6 17.4 8.8 30.9 18.8 45.8 34.1 23.8 24.5 39 53.1 46 87 2.6 12.8 3.6 42.3 1.9 56.2" style="fill:#fff"/></svg>