<?xml version="1.0" encoding="utf-8"?>
<!-- Generator: Adobe Illustrator 28.2.0, SVG Export Plug-In . SVG Version: 6.00 Build 0)  -->
<svg version="1.1"
	 id="svg8" xmlns:svg="http://www.w3.org/2000/svg" xmlns:rdf="http://www.w3.org/1999/02/22-rdf-syntax-ns#" xmlns:cc="http://creativecommons.org/ns#" xmlns:dc="http://purl.org/dc/elements/1.1/"
	 xmlns="http://www.w3.org/2000/svg" xmlns:xlink="http://www.w3.org/1999/xlink" x="0px" y="0px" viewBox="0 0 512 512"
	 style="enable-background:new 0 0 512 512;" xml:space="preserve">
<style type="text/css">
	.st0{fill:#59A3F3;}
</style>
<g id="g861" transform="translate(-42.114518,-17.993737)">
	<path id="path961" class="st0" d="M544.4,190.1l-27.2,33.6C435.9,181.9,377.6,138.4,342.3,93c-34.5,47.7-90.1,90.4-166.8,127.9
		l-29.1-32.5C248.5,141.2,311.8,84.4,336.2,18l38.9,12.1c-5.2,15.3-8.6,24.2-10.3,26.8C397.7,104,457.6,148.4,544.4,190.1
		L544.4,190.1z M551.7,407.9l-30,28.6c-44.7-34.2-79.3-75.9-103.9-125.2c-16.2,45.8-49.7,87.2-100.5,124.3l-30-27.7
		c35.4-23.5,61.9-51.2,79.6-83.1c17.7-31.9,27.8-77.3,30.2-136.4l40.3,3.4c0,7.9-0.6,17.8-1.8,29.7l-1.6,16
		c0,8.1,4.5,23.3,13.5,45.8c9.2,22.3,22.4,43.9,39.8,65C505,369.3,526.4,389.1,551.7,407.9L551.7,407.9z M339.1,347L308,375
		c-17.5-23-34.7-41.9-51.5-56.5c-19.2,42-49,81.5-89.5,118.5l-30.4-27.2c36.3-32.3,62.4-64.8,78.3-97.5
		c16-32.6,26.3-73.9,30.9-123.8l40.7,4.3c-3.1,27.8-8.5,56.1-16.2,84.9C299.9,303.2,322.8,326.3,339.1,347L339.1,347z"/>
	<path id="path964" class="st0" d="M246,530v-36.5H85.9V205.8H44.5V530H246z"/>
</g>
</svg>
