<svg xmlns="http://www.w3.org/2000/svg" xml:space="preserve" viewBox="0 0 512 512"><path d="M256.2 105.2 407 256c-50.2 50.2-100.5 100.5-150.7 150.8L105.5 256c50.1-50.2 100.5-100.5 150.7-150.8m169.4 131.9L256.2 67.7 86.7 237.2c3.2 3.1 6.4 6.4 9.8 9.8 53.1-53.1 106.4-106.3 159.8-159.8l159.6 159.6c3.3-3.3 6.6-6.5 9.7-9.7M256.3 443.7c56.4-56.3 112.9-112.9 169.4-169.4l-9.9-9.9-160 160C202.6 371.3 149.4 318.1 96.3 265c-3.2 3.2-6.4 6.4-9.3 9.4zM425.4 256l9.4 9.4 9.5-9.5-9.5-9.5c-3.1 3.2-6.3 6.5-9.4 9.6M256 461.8 77.8 283.6l-9.7 9.7 188.1 188.1 188.1-188.1-9.9-9.9zM512 256c0 141.4-114.6 256-256 256S0 397.4 0 256 114.6 0 256 0s256 114.6 256 256m-50.2 36.9c-6-6-12.2-12.1-18.5-18.4 6.3-6.2 12.4-12.3 18.9-18.8-6.2-6.3-12.5-12.5-18.8-18.8l4.4-4.4c4.6-4.6 9.2-9.1 13.8-13.7C393 150.3 324.4 81.7 256 13.3L50.2 219.1c6 6 12.2 12.1 18.6 18.5-6.1 6.2-12.3 12.3-18.7 18.7 6.2 6.1 12.3 12.2 18.7 18.6l-18.3 18.3c68.6 68.5 137.1 137 205.6 205.5 68.6-68.5 137.2-137.1 205.7-205.8M87.1 256c-3.1-3.2-6.4-6.5-9.4-9.6l-9.6 9.6 9.5 9.5zM78 228.3C137.2 169 196.7 109.6 256.3 50l178.3 178.3c3.3-3.4 6.6-6.6 9.7-9.7l-188-188-188 188z"/></svg>