<svg xmlns="http://www.w3.org/2000/svg" xml:space="preserve" viewBox="0 0 512 512"><linearGradient id="librechat_svg__a" x1="-33.175" x2="82.347" y1="517.437" y2="437.687" gradientTransform="translate(292.113 -2791.492)scale(6.1157)" gradientUnits="userSpaceOnUse"><stop offset="0" style="stop-color:#21facf"/><stop offset="1" style="stop-color:#0970ef"/></linearGradient><path d="M347.8.1c-19 23.2-49.5 106.1-51.2 121.7-.5 11.6 3.5 35.1 1.7 39.1-1.7 4-12.6-23.2-17.8-15.6-30.2 44.7-26.5 43.7-38.6 77.3-4.5 12.6-1 54.4-4 58.9-3.2 4.9-9.9-30.4-16.8-22.8-28.7 30.9-40.3 50.4-55.1 75.7-8.4 14.1-5.4 57.6-8.7 61.1-3.2 3.2-9.6-45.3-18.8-35.4-21 22.3-34.9 33.1-46.7 47.7-12.9 15.3-2 43.5-12.6 87.5l.2.5c191.4-124.4 251-314.6 266.1-448.1-1.7 157.8-72.7 352.9-260.7 456.5l.2.5c50-5.4 55.1 26 110.3-10.6C333.4 374.7 398 186.8 347.8.1" style="fill:url(#librechat_svg__a)"/><linearGradient id="librechat_svg__b" x1="-28.867" x2="101.269" y1="527.235" y2="376.855" gradientTransform="translate(291.608 -2789.469)scale(6.1157)" gradientUnits="userSpaceOnUse"><stop offset="0" style="stop-color:#72004e"/><stop offset="1" style="stop-color:#0015b1"/></linearGradient><path d="M256 55.5c-119.7 0-216.6 96.9-216.6 216.6 0 50.4 17.8 99.4 50.2 138.5.7-1 1.2-2 2.2-3 12.1-14.3 25.7-25.2 46.7-47.7 9.4-9.9 15.6 38.6 18.8 35.4s.2-47 8.7-61.1c15.1-25.2 26.5-44.8 55.1-75.7 6.9-7.7 13.6 27.7 16.8 22.8 3-4.2-.5-45.8 4-58.6C254 189 250.3 190 280.5 145c5.2-7.7 16.1 19.5 17.8 15.6 1.7-4-2-27.5-1.7-39.1 1-7.7 8.9-32.4 19-57.9-19.3-5.2-39.3-8.1-59.6-8.1m106.6 28.2c13.8 152.3-45.5 298.5-155.3 399.6 15.8 3.7 32.1 5.4 48.7 5.4 119.7 0 216.6-96.9 216.6-216.6 0-77.9-42-150.1-110-188.4" style="fill:url(#librechat_svg__b)"/></svg>