<?xml version="1.0" encoding="utf-8"?>
<!-- Generator: Adobe Illustrator 28.2.0, SVG Export Plug-In . SVG Version: 6.00 Build 0)  -->
<svg version="1.1" id="Layer_1" xmlns="http://www.w3.org/2000/svg" xmlns:xlink="http://www.w3.org/1999/xlink" x="0px" y="0px"
	 viewBox="0 0 512 512" style="enable-background:new 0 0 512 512;" xml:space="preserve">
<style type="text/css">
	.st0{fill:#1F1F24;}
	.st1{fill:#FDFDFD;}
</style>
<circle class="st0" cx="256" cy="256" r="256"/>
<path class="st1" d="M256.1,498.7c-68.5-68.5-137-137-205.6-205.5c6-6,12.2-12.2,18.3-18.3c-6.4-6.4-12.5-12.5-18.7-18.6
	c6.4-6.4,12.6-12.5,18.7-18.7c-6.4-6.4-12.6-12.5-18.6-18.5C119,150.3,187.6,81.7,256,13.3c68.4,68.4,137,137,205.6,205.5
	c-4.6,4.6-9.2,9.1-13.8,13.7c-1.5,1.5-2.9,2.9-4.4,4.4c6.3,6.3,12.6,12.5,18.8,18.8c-6.5,6.5-12.6,12.6-18.9,18.8
	c6.3,6.3,12.5,12.4,18.5,18.4C393.3,361.6,324.7,430.2,256.1,498.7z M256.2,105.2C206,155.5,155.6,205.8,105.5,256
	c50.2,50.2,100.5,100.5,150.8,150.8C306.5,356.5,356.8,306.2,407,256C356.8,205.8,306.5,155.4,256.2,105.2z M256.2,481.3
	c62.7-62.7,125.5-125.5,188.1-188.1c-3.1-3.1-6.4-6.4-9.9-9.9C375.1,342.7,315.6,402.2,256,461.8
	c-59.5-59.5-118.9-118.9-178.2-178.2c-3.3,3.3-6.5,6.5-9.7,9.7C130.7,355.9,193.5,418.6,256.2,481.3z M256.3,30.6
	c-62.7,62.7-125.4,125.4-188,188c3.1,3.1,6.3,6.3,9.7,9.7C137.2,169,196.7,109.6,256.3,50c59.5,59.5,119,119,178.3,178.3
	c3.3-3.4,6.6-6.6,9.7-9.7C381.6,155.9,318.9,93.2,256.3,30.6z M256.2,67.8c-56.5,56.5-113.1,113.1-169.5,169.5
	c3.2,3.1,6.4,6.4,9.8,9.8C149.6,194,202.9,140.8,256.3,87.3c53.3,53.3,106.6,106.6,159.6,159.6c3.3-3.3,6.5-6.5,9.7-9.6
	C369.2,180.8,312.7,124.2,256.2,67.8z M415.8,264.5c-53.3,53.3-106.5,106.5-160,160C202.6,371.3,149.4,318.1,96.3,265
	c-3.2,3.2-6.4,6.4-9.3,9.4c56.4,56.4,113,113,169.4,169.3c56.4-56.3,112.9-112.9,169.4-169.4C422.6,271.3,419.4,268.1,415.8,264.5z
	 M87.1,256c-3.1-3.2-6.4-6.5-9.4-9.6c-3.2,3.2-6.4,6.4-9.6,9.6c3.1,3.1,6.4,6.4,9.5,9.5C80.7,262.4,84,259.1,87.1,256z M444.3,255.9
	c-3.1-3.1-6.4-6.4-9.5-9.5c-3.1,3.1-6.4,6.4-9.5,9.6c3.1,3.1,6.3,6.3,9.4,9.4C437.9,262.3,441.2,259.1,444.3,255.9z"/>
</svg>
