<svg xmlns="http://www.w3.org/2000/svg" xml:space="preserve" viewBox="0 0 512 512"><path d="M291.1 190.6c-9.5-5.2-20.3-8.3-31.7-8.9V20.9L83 322.9h136.7c9.5 5.2 20.3 8.3 31.7 8.9v160.8l16.2-27.7 160.2-274.3zm-39.7-8.9c-39.7 2.1-71.2 34.9-71.2 75.1 0 23.4 10.7 44.4 27.5 58.1H97L251.7 49.2zm7.5 283.5.4-133.4c39.7-2.1 71.2-34.9 71.2-75.1 0-23.4-10.7-44.4-27.5-58.1h110.8zm34.2-282.6c-8.1-4.1-16.7-6.9-25.7-8.2v-71.6c36.7 2.8 70.8 18.4 97.2 44.8 10.5 10.5 19.3 22.3 26.3 35zm-75.4 148.3c8.1 4.1 16.7 6.9 25.7 8.2v71.6c-36.7-2.8-70.8-18.4-97.2-44.8a156 156 0 0 1-26.3-35zm97.5 68.2L408.7 239c.7 5.8 1 11.8 1 17.7 0 41.2-16.1 80-45.2 109.2-14.3 14.4-31.1 25.6-49.3 33.2M512 256c0 141.4-114.6 256-256 256-2.2 0-4.4 0-6.6-.1l23-39.3c23.2-1.8 45.9-7.3 67.3-16.4 25.8-10.9 48.9-26.5 68.8-46.4s35.5-43 46.4-68.8c11.3-26.7 17-55.1 17-84.3s-5.7-57.6-17-84.3c-10.9-25.8-26.5-48.9-46.4-68.8s-43-35.5-68.8-46.4c-23-9.7-47.3-15.3-72.3-16.7V.3C403.5 6.2 512 118.4 512 256M171.1 456.3c23 9.7 47.3 15.3 72.3 16.7v38.7C107.8 505.1 0 393.1 0 256 0 114.6 114.6 0 256 0c2.1 0 4.2 0 6.3.1l-23.8 40.8c-23.2 1.8-45.9 7.3-67.3 16.4-25.8 10.9-48.9 26.5-68.8 46.4s-35.5 43-46.4 68.8c-11.3 26.7-17 55.1-17 84.3s5.7 57.6 17 84.3c10.9 25.8 26.5 48.9 46.4 68.8 19.8 19.8 42.9 35.4 68.7 46.4m24.4-341.9L102 274.5c-.7-5.8-1-11.8-1-17.7 0-41.2 16.1-80 45.2-109.2 14.4-14.4 31.1-25.6 49.3-33.2"/></svg>