<?xml version="1.0" encoding="utf-8"?>
<!-- Generator: Adobe Illustrator 28.2.0, SVG Export Plug-In . SVG Version: 6.00 Build 0)  -->
<svg version="1.1" id="Layer_1" xmlns="http://www.w3.org/2000/svg" xmlns:xlink="http://www.w3.org/1999/xlink" x="0px" y="0px"
	 viewBox="0 0 512 512" style="enable-background:new 0 0 512 512;" xml:space="preserve">
<style type="text/css">
	.st0{fill:#FFFFFF;}
</style>
<path class="st0" d="M492,156.4c-12.9-30.5-31.4-57.9-54.9-81.4s-50.9-42-81.4-54.9C324.1,6.8,290.5,0,256,0s-68.1,6.8-99.6,20.1
	C125.9,33,98.5,51.5,75,75S33,125.9,20,156.3C6.8,187.9,0,221.4,0,256s6.8,68.1,20,99.6c12.9,30.5,31.4,57.9,54.9,81.4
	s50.9,42,81.4,54.9c31.6,13.3,65.2,20.1,99.7,20.1s68.1-6.7,99.7-19.9c30.5-12.9,57.9-31.4,81.4-54.9c23.6-23.5,42-50.9,54.9-81.4
	c13.3-31.6,20.1-65.1,20.1-99.7C512,221.5,505.4,188,492,156.4z M448.5,337.4c-10.5,24.9-25.6,47.2-44.8,66.4
	c-19.2,19.2-41.5,34.3-66.4,44.8c-22.1,9.3-45.3,14.8-69.2,16.1L252,492.5v-27.4c-26.8-0.5-52.8-6-77.4-16.4
	c-24.9-10.5-47.2-25.6-66.4-44.8c-19.2-19.2-34.3-41.6-44.8-66.5C52.5,311.6,47,284.2,47,256c0-28.2,5.5-55.6,16.4-81.4
	c10.5-24.9,25.6-47.2,44.8-66.4s41.5-34.3,66.4-44.8c22.1-9.3,45.2-14.7,69.2-16L260,19.6V47c26.9,0.5,52.8,6,77.4,16.4
	c24.9,10.5,47.2,25.6,66.4,44.8c19.2,19.2,34.3,41.5,44.8,66.4c10.9,25.8,16.4,53.1,16.4,81.4S459.5,311.6,448.5,337.4z M249.7,53.1
	c0.7,0,1.5,0,2.2-0.1v127.7c-39.8,2.1-71.4,35-71.4,75.3c0,23.5,10.7,44.5,27.6,58.3h-111L249.7,53.1z M414.8,197.7L262.2,458.9
	c-0.7,0-1.5,0-2.2,0.1V331.3c39.8-2.1,71.4-35,71.4-75.3c0-23.5-10.7-44.5-27.6-58.3H414.8z M459,256
	c0,106.5-82.6,194.2-187.1,202.4l32.2-55.2c22.8-7.5,43.8-20.3,61.2-37.8c29.2-29.2,45.3-68.1,45.3-109.4c0-10.3-1-20.4-2.9-30.3
	l21-36h-32.9c-7.5-15.8-17.7-30.4-30.5-43.1c-28.3-28.3-65.6-44.2-105.4-45.2V53.1C370,55.2,459,145.4,459,256z M116.1,322.4H83.2
	L240.1,53.6C135.6,61.7,53,149.4,53,256c0,110.6,88.9,200.8,199,202.9v-48.2c-39.8-1-77.1-17-105.4-45.2
	C133.8,352.8,123.6,338.2,116.1,322.4z M146.6,146.7c17.5-17.5,38.4-30.3,61.2-37.8L104.2,286.4c-1.9-9.9-2.9-20-2.9-30.3
	C101.2,214.8,117.4,175.9,146.6,146.7z"/>
</svg>
