<svg xmlns="http://www.w3.org/2000/svg" xml:space="preserve" viewBox="0 0 512 512"><path d="M31.1 124.4v263.2l216 124.4V0z" style="fill:#181818"/><path d="M264.9 0v512L481 387.6V124.4z" style="fill:#009252"/><path d="M247.1 199.1 151.5 256v-42.7l95.6-56.9V74.7l-115.2 70h-.2c-.3.2-.6.5-.9.7l-.7.6c-.2.2-.5.5-.7.8-.2.2-.5.5-.6.8-.2.3-.4.6-.5.9 0 .3-.4.6-.5.9s-.2.6-.4 1c-.1.3-.2.6-.3 1v182.3c-10-1.4-20.2 1.1-28.3 7.1-17.1 11.4-23 33-14.2 46.2s29 13.9 46.1 2.4c9.8-6.5 19.1-14.5 21.3-23.8.2-2.4.2-4.7 0-7.1v-77.6l95.6-56.9zm17.8-58.2v23.6H287v65.1l111.4-65.1h-62.5V99.4zm46.1 35.8c-6 0-10.9-4.9-10.9-10.9s4.9-10.9 10.9-10.9 10.9 4.9 10.9 10.9-4.9 10.9-10.9 10.9m24.9 250v-65.1h62.5L287 296.5v65.1h-22.1v23.6zM311 351.9c6 0 10.9 4.9 10.9 10.9s-4.9 10.9-10.9 10.9-10.9-4.9-10.9-10.9 4.9-10.9 10.9-10.9m169.9-101.8c-10.8.6-21.3 3.2-31.2 7.5-5.9.1-11.8-1.1-17.2-3.5s-10.3-5.9-14.3-10.4c1.6-2.4 2.7-5.2 3.2-8 .5-2.9.3-5.9-.5-8.7s-2.2-5.4-4-7.6c-1.9-2.2-4.2-4-6.9-5.1-2.6-1.2-5.5-1.7-8.4-1.7-2.9.1-5.7.8-8.2 2.1-2.6 1.3-4.8 3.2-6.6 5.5s-3 5-3.6 7.9l-.1.1c-.6 2.9-.6 5.9.1 8.8s2 5.6 3.8 7.9 4.1 4.2 6.8 5.5c2.6 1.3 5.5 1.9 8.4 1.9 1.9 0 3.8-.3 5.6-.9 6.5 7.8 15.1 13.6 24.7 16.5-6.5 5.1-12.2 11.2-17 18.1-5.1-1.2-10.4-.3-14.8 2.4-3.2 2.1-5.8 5.1-7.4 8.7s-2 7.6-1.4 11.4c.7 3.9 2.4 7.5 5.1 10.3 2.6 2.8 6.1 4.8 9.8 5.7s7.7.6 11.3-.8 6.7-3.9 8.9-7.1 3.5-7 3.6-10.9-.9-7.8-3-11.1l-1.2-1.8c7-9.9 16.5-17.7 27.3-22.7 8.6-4 17.8-6.4 27.2-7.1zm-72.7-14.6c-.5 1-1.2 1.8-2.1 2.5l-.3.2c-1.5.9-3.3 1.3-5 .9s-3.2-1.5-4.2-3c-.5-.8-.8-1.6-1-2.5s-.1-1.8.1-2.7c.2-1.1.7-2.1 1.4-2.9s1.6-1.5 2.6-1.9 2.1-.6 3.2-.5 2.1.5 3 1.1 1.7 1.4 2.2 2.4.8 2.1.8 3.2-.2 2.2-.7 3.2m9.4 71.2c-.4 1.8-1.5 3.3-3 4.3-1.1.7-2.3 1.1-3.6 1.1-1 0-2.1-.3-3-.7-.9-.5-1.7-1.2-2.3-2s-1-1.8-1.2-2.9c-.2-1-.1-2.1.1-3.1.3-1 .8-2 1.5-2.7.7-.8 1.6-1.4 2.5-1.8 1-.4 2-.5 3-.4s2 .4 2.9 1c.9.5 1.6 1.3 2.1 2.1 1.1 1.5 1.4 3.4 1 5.1" style="fill:#b4b39b"/><path d="m247.1 188.4-95.6 56.9v-42.7l95.6-56.9V64l-115.3 70.6h-.2c-.3.2-.6.5-.9.7l-.7.6c-.2.2-.5.5-.7.8-.2.2-.5.5-.6.8-.2.3-.4.6-.5.9-.2.3-.3.6-.5.9 0 .3-.2.6-.4 1-.1.3-.2.6-.3 1v182.3c-10-1.4-20.2 1.1-28.3 7.1-17.1 11.4-23 33-14.2 46.2s29 13.9 46.1 2.4c9.8-6.5 19.1-14.5 21.3-23.8.2-2.4.2-4.7 0-7.1v-78.2l95.6-56.9zm0 0-95.6 56.9v-42.7l95.6-56.9V64l-115.3 70.6h-.2c-.3.2-.6.5-.9.7l-.7.6c-.2.2-.5.5-.7.8-.2.2-.5.5-.6.8-.2.3-.4.6-.5.9-.2.3-.3.6-.5.9 0 .3-.2.6-.4 1-.1.3-.2.6-.3 1v182.3c-10-1.4-20.2 1.1-28.3 7.1-17.1 11.4-23 33-14.2 46.2s29 13.9 46.1 2.4c9.8-6.5 19.1-14.5 21.3-23.8.2-2.4.2-4.7 0-7.1v-78.2l95.6-56.9zm17.8-54.1v23.6H287V223l111.4-65.1h-62.5V92.7zm46.1 35.8c-6 0-10.9-4.9-10.9-10.9s4.9-10.9 10.9-10.9 10.9 4.9 10.9 10.9-4.9 10.9-10.9 10.9m24.9 249.2v-65.1h62.5L287 289v65.1h-22.1v23.6zM311 344.5c6 0 10.9 4.9 10.9 10.9s-4.9 10.9-10.9 10.9-10.9-4.9-10.9-10.9 4.9-10.9 10.9-10.9m169.9-98.7c-10.8.6-21.3 3.2-31.2 7.5-5.9.1-11.8-1.1-17.2-3.5s-10.3-5.9-14.3-10.4c1.6-2.4 2.7-5.2 3.2-8 .5-2.9.3-5.9-.5-8.7s-2.2-5.4-4-7.6c-1.9-2.2-4.2-4-6.9-5.1-2.6-1.2-5.5-1.7-8.4-1.7-2.9.1-5.7.8-8.2 2.1-2.6 1.3-4.8 3.2-6.6 5.5s-3 5-3.6 7.9l-.1.1c-.6 2.9-.6 5.9.1 8.8s2 5.6 3.8 7.9 4.1 4.2 6.8 5.5c2.6 1.3 5.5 1.9 8.4 1.9 1.9 0 3.8-.3 5.6-.9 6.5 7.8 15.1 13.6 24.7 16.5-6.5 5.1-12.2 11.2-17 18.1-5.1-1.2-10.4-.3-14.8 2.4-3.2 2.1-5.8 5.1-7.4 8.7s-2 7.6-1.4 11.4c.7 3.9 2.4 7.5 5.1 10.3 2.6 2.8 6.1 4.8 9.8 5.7s7.7.6 11.3-.8 6.7-3.9 8.9-7.1 3.5-7 3.6-10.9-.9-7.8-3-11.1l-1.2-1.8c7-9.9 16.5-17.7 27.3-22.7 8.6-4 17.8-6.4 27.2-7.1zm-72.7-14.6c-.5 1-1.2 1.8-2.1 2.5l-.3.2c-1.5.9-3.3 1.3-5 .9s-3.2-1.5-4.2-3c-.5-.8-.8-1.6-1-2.5s-.1-1.8.1-2.7c.2-1.1.7-2.1 1.4-2.9s1.6-1.5 2.6-1.9 2.1-.6 3.2-.5 2.1.5 3 1.1 1.7 1.4 2.2 2.4.8 2.1.8 3.2-.2 2.2-.7 3.2m9.4 71.3c-.4 1.8-1.5 3.3-3 4.3-1.1.7-2.3 1.1-3.6 1.1-1 0-2.1-.3-3-.7-.9-.5-1.7-1.2-2.3-2s-1-1.8-1.2-2.9c-.2-1-.1-2.1.1-3.1.3-1 .8-2 1.5-2.7.7-.8 1.6-1.4 2.5-1.8 1-.4 2-.5 3-.4s2 .4 2.9 1c.9.5 1.6 1.3 2.1 2.1 1.1 1.4 1.4 3.3 1 5.1" style="fill:#fffedb"/></svg>