<svg xmlns="http://www.w3.org/2000/svg" xml:space="preserve" viewBox="0 0 512 512"><path d="M6.3 315c-1.1-4.9 4.6-7.9 8.2-4.4l186.9 186.9c3.5 3.5.5 9.3-4.4 8.2C102.7 483.6 28.4 409.3 6.3 315M0 240.1c-.1 1.5.5 2.9 1.5 3.9L268 510.5c1 1 2.4 1.6 3.9 1.5 12.1-.8 24-2.4 35.6-4.7 3.9-.8 5.3-5.6 2.4-8.4L13.2 202c-2.8-2.8-7.6-1.5-8.4 2.4Q1.2 221.8 0 240.1m21.6-88c-.9 1.9-.4 4.2 1.1 5.6l331.7 331.7c1.5 1.5 3.7 1.9 5.6 1.1 9.1-4.1 18-8.7 26.5-13.7 2.8-1.7 3.3-5.6.9-7.9L43.2 124.6c-2.3-2.3-6.2-1.9-7.9.9-5.1 8.6-9.7 17.4-13.7 26.6m43.2-59.6c-1.9-1.9-2-4.9-.2-6.9C111.5 33.1 179.8 0 255.8 0 397.3 0 512 114.7 512 256.2c0 76-33.1 144.2-85.6 191.2-2 1.8-5 1.7-6.9-.2z" style="fill:#fff"/></svg>