<?xml version="1.0" encoding="utf-8"?>
<!-- Generator: Adobe Illustrator 28.2.0, SVG Export Plug-In . SVG Version: 6.00 Build 0)  -->
<svg version="1.1"
	 id="svg5" xmlns:svg="http://www.w3.org/2000/svg" xmlns:sodipodi="http://sodipodi.sourceforge.net/DTD/sodipodi-0.dtd" xmlns:inkscape="http://www.inkscape.org/namespaces/inkscape" inkscape:export-filename="/home/laptop/Desktop/logo.png" sodipodi:docname="logo.svg"
	 xmlns="http://www.w3.org/2000/svg" xmlns:xlink="http://www.w3.org/1999/xlink" x="0px" y="0px" viewBox="0 0 512 512"
	 style="enable-background:new 0 0 512 512;" xml:space="preserve">
<style type="text/css">
	.st0{fill:url(#path9556_00000129200005870079383100000004155995444878143146_);}
	.st1{fill:#413620;}
	.st2{fill-rule:evenodd;clip-rule:evenodd;fill:url(#rect24462_00000111900004536524882460000000937382319815978913_);}
</style>
<linearGradient id="path9556_00000062910447623605431130000004405220945415998612_" gradientUnits="userSpaceOnUse" x1="193.4086" y1="689.6032" x2="617.5807" y2="689.6032" gradientTransform="matrix(0.8485 0 0 0.8485 -88.0441 -329.1283)">
	<stop  offset="0" style="stop-color:#DBD0BD"/>
	<stop  offset="1" style="stop-color:#D9BFB2"/>
</linearGradient>
<path id="path9556_00000163039815016230729300000013415411326781594034_" inkscape:export-filename="/home/laptop/Desktop/icon512.png" inkscape:export-xdpi="96" inkscape:export-ydpi="96" sodipodi:nodetypes="cccccccccccccccccccccccc" style="fill:url(#path9556_00000062910447623605431130000004405220945415998612_);" d="
	M137.3,0c-5.5,0-10.3,4-11.1,9.5l-6.3,39.2H83.1c-3.2,0-5.8,2.6-5.8,5.8v27.4c0,3.2,2.6,5.8,5.8,5.8h22.2L161,502.5
	c0.7,5.5,5.4,9.5,10.9,9.5h83.7h0.7H340c5.5,0,10.2-4.1,10.9-9.5l55.7-414.8h22.2c3.2,0,5.8-2.6,5.8-5.8V54.5c0-3.2-2.6-5.8-5.8-5.8
	H392l-6.3-39.2c-0.8-5.5-5.5-9.5-11-9.5H256H137.3z"/>
<path class="st1" d="M280.2,275.7c-5.9-3.9-11.4-8.2-16.6-12.8c5.9-5.7,11.3-11.9,16.2-18.7c10.3-14,18.7-30.6,25.5-49.9H331v-7.6
	h-69.2v-28.6h-7.9v28.6H186v7.6h24.5c6.5,18.5,14.9,35.1,25.3,49.7c4.8,6.7,10,13,15.7,18.8c-4.9,4.2-10.1,8.2-15.6,11.8
	c-14.5,9.5-31.6,17.2-51.2,23c0.6,0.6,1.3,1.4,1.9,2.3c0.6,0.9,1.3,1.8,1.9,2.7c0.6,0.9,1,1.8,1.2,2.5c19.8-6.6,37.2-14.8,52-24.7
	c5.5-3.7,10.8-7.7,15.7-12c5.2,4.8,10.8,9.2,16.7,13.3c15,10.3,32.3,18,52.1,23.2c0.5-0.8,1.1-1.6,1.8-2.5c0.6-0.9,1.3-1.8,2-2.8
	c0.7-0.9,1.4-1.6,2-2.2C312.4,292.9,295.1,285.6,280.2,275.7z M242.2,239.4c-9.7-13.4-17.5-28.4-23.5-45h77.4
	c-6.1,17.4-13.8,32.5-23.3,45.3c-4.7,6.3-9.8,12.2-15.4,17.6C252,251.7,246.9,245.8,242.2,239.4z"/>
<linearGradient id="rect24462_00000066492145043993334010000006834878098655773598_" gradientUnits="userSpaceOnUse" x1="35.8792" y1="126.7546" x2="36.3073" y2="146.8643" gradientTransform="matrix(3.2324 0 0 3.2068 139.3579 -331.3542)">
	<stop  offset="0" style="stop-color:#7B6254"/>
	<stop  offset="1" style="stop-color:#C8B8AF"/>
</linearGradient>
<path id="rect24462" inkscape:export-filename="/home/laptop/Desktop/icon512.png" inkscape:export-xdpi="96" inkscape:export-ydpi="96" style="fill-rule:evenodd;clip-rule:evenodd;fill:url(#rect24462_00000066492145043993334010000006834878098655773598_);" d="
	M103.7,85.2l2.6,21.9h298.5l2.6-21.9H103.7z"/>
<path id="path64497_00000172410093055698546370000011591902127743070388_" inkscape:export-filename="/home/laptop/Desktop/icon512.png" inkscape:export-xdpi="96" inkscape:export-ydpi="96" class="st1" d="
	M137.3,0c-5.5,0-10.3,4-11.1,9.5l-6.3,39.2H83.1c-3.2,0-5.8,2.6-5.8,5.8v27.4c0,3.2,2.6,5.8,5.8,5.8h22.2h301.4h22.2
	c3.2,0,5.8-2.6,5.8-5.8V54.5c0-3.2-2.6-5.8-5.8-5.8h-36.8l-6.3-39.2C384.9,4,380.2,0,374.7,0H256H137.3z"/>
</svg>
