<?xml version="1.0" encoding="utf-8"?>
<!-- Generator: Adobe Illustrator 28.2.0, SVG Export Plug-In . SVG Version: 6.00 Build 0)  -->
<svg version="1.1"
	 id="svg5" xmlns:svg="http://www.w3.org/2000/svg" xmlns:sodipodi="http://sodipodi.sourceforge.net/DTD/sodipodi-0.dtd" xmlns:inkscape="http://www.inkscape.org/namespaces/inkscape" inkscape:export-filename="/home/laptop/Desktop/logo.png" sodipodi:docname="logo.svg"
	 xmlns="http://www.w3.org/2000/svg" xmlns:xlink="http://www.w3.org/1999/xlink" x="0px" y="0px" viewBox="0 0 512 512"
	 style="enable-background:new 0 0 512 512;" xml:space="preserve">
<style type="text/css">
	.st0{fill:#FFFFFF;}
</style>
<path class="st0" d="M296.1,194.4h-77.4c6,16.6,13.8,31.6,23.5,45c4.7,6.4,9.8,12.3,15.2,17.9c5.6-5.4,10.7-11.3,15.4-17.6
	C282.3,226.9,290,211.8,296.1,194.4z M107.9,107.1L161,502.5c0.7,5.5,5.4,9.5,10.9,9.5h83.7h0.7H340c5.5,0,10.2-4.1,10.9-9.5
	L404,107.1H107.9z M330,299.6c-0.7,1-1.4,1.9-2,2.8c-0.7,0.9-1.3,1.7-1.8,2.5c-19.8-5.2-37.1-12.9-52.1-23.2
	c-5.9-4.1-11.5-8.5-16.7-13.3c-4.9,4.3-10.2,8.3-15.7,12c-14.8,9.9-32.2,18.1-52,24.7c-0.2-0.7-0.6-1.6-1.2-2.5s-1.3-1.8-1.9-2.7
	c-0.6-0.9-1.3-1.7-1.9-2.3c19.6-5.8,36.7-13.5,51.2-23c5.5-3.6,10.7-7.6,15.6-11.8c-5.7-5.8-10.9-12.1-15.7-18.8
	c-10.4-14.6-18.8-31.2-25.3-49.7H186v-7.6h67.9v-28.6h7.9v28.6H331v7.6h-25.7c-6.8,19.3-15.2,35.9-25.5,49.9
	c-4.9,6.8-10.3,13-16.2,18.7c5.2,4.6,10.7,8.9,16.6,12.8c14.9,9.9,32.2,17.2,51.8,21.7C331.4,298,330.7,298.7,330,299.6z M137.3,0
	c-5.5,0-10.3,4-11.1,9.5l-6.3,39.2H83.1c-3.2,0-5.8,2.6-5.8,5.8v27.4c0,3.2,2.6,5.8,5.8,5.8h22.2h301.4h22.2c3.2,0,5.8-2.6,5.8-5.8
	V54.5c0-3.2-2.6-5.8-5.8-5.8h-36.8l-6.3-39.2C384.9,4,380.2,0,374.7,0H256H137.3z"/>
</svg>
