<svg xmlns="http://www.w3.org/2000/svg" xml:space="preserve" id="lingva-translate_svg__svg8" x="0" y="0" version="1.1" viewBox="0 0 512 512"><style>.lingva-translate_svg__st0{fill:#3cb371}</style><path id="lingva-translate_svg__rect833-4" d="M308.2 0h100.3C465.6 0 512 45.8 512 102.3v99.1c0 56.5-46.4 102.3-103.5 102.3H308.2c-57.2 0-103.5-45.8-103.5-102.3v-99.1C204.6 45.8 251 0 308.2 0" class="lingva-translate_svg__st0"/><path d="M317.8 91.3c-6.3-8.4-20.4-21.6-31.1-30.6l-9.8 9.2c10.8 9.9 24.2 23.6 30.5 32.3zm-9.3 117.1v-89.2h-42.3v14.6h28.1v74.4c0 8.4-4.3 12.9-7.1 15 2.4 3.3 6.3 9.9 7.5 13.6 3.1-3.9 8.3-8 42.1-31.4-1.4-3.1-3.3-9-4.1-12.9zM422 184.8v36.8h-69v-36.8zm-83.4 58.1H353v-8h69v7.4h14.9v-70.9h-98.3zm76.7-130.2c-.8 8.6-1.8 18.9-3.1 27.9h-41.5c2-8.2 4.3-17.9 6.5-27.9zm11.4 27.9c1.6-13.1 3.3-28.1 4.1-41.1l-10.8-1-2.2.8h-37.7c1.8-7.8 3.5-15.8 4.9-23h58.6V62.6h-115v13.8h40.9c-1.2 7.2-2.6 15.2-4.5 23h-28.9v13.4H362c-2.2 10.1-4.5 19.7-6.7 27.9h-33.6v14h128.8v-14h-23.8zm-323.2 67.7h100.3c57.2 0 103.5 45.8 103.5 102.3v99.1c0 56.5-46.4 102.3-103.5 102.3H103.5C46.4 512 0 466.2 0 409.7v-99.1c0-56.5 46.4-102.3 103.5-102.3m313.6 95.1v58.7l-51.2 51.3V303.7h-14.8l39.8-38.4h.2l37.7 36.4c-3.8.8-7.8 1.3-11.7 1.7" style="fill:#e4f4ea"/><path d="m237.7 234.3 6.2 31.6 30.3 7.5-27.2 16.3 2.1 32.3-23-21.6-29 12.5 13-29.6-20.1-24.5 31 3.3zM97 427.8c22.4-8.9 57 2.3 102-.4l4-.2q1.2 0 5.7-.9c6.2-4.9 11.7-5 16.6-.4s5 8.4.4 14.7c-3.9 5.1-18.8 8.5-44.7 10l-12 .7c-26.6 2.3-49.6-9.2-67-.6-6.7 3.4-14.1 5.7-22.2 10.4-6 1.9-10.7.8-14-3.1-2.9-3.6-3-8.1-.2-13.6 12.7-29.5 21.1-56.2 25-80.3 4.3-24.1 7.5-44.3 9.5-60.6 2.4-16.8 5.7-35.5 9.8-56.1 3-6.6 7.5-9.1 13.3-7.6 6.2 1.5 9.1 5.7 8.8 12.5-5.9 28.7-11 57.7-15.4 87.1-4.1 28.9-10.6 60.7-19.6 88.4m319.9-65.6H307.4v-13.9L269 388v.2l37 38.3c.7-4.3 1.2-8.7 1.3-13.1h58.6z" class="lingva-translate_svg__st0"/></svg>