<svg xmlns="http://www.w3.org/2000/svg" xml:space="preserve" viewBox="0 0 512 512"><path d="M347 24.4H165.2c-26.5 0-51 14.1-64.2 37.1L10 218.9c-13.2 22.9-13.2 51.2 0 74.1l90.9 157.5c13.2 22.9 37.7 37.1 64.2 37.1h181.8c26.5 0 51-14.1 64.2-37.1L502 293c13.2-22.9 13.2-51.2 0-74.1L411.2 61.5c-13.2-23-37.7-37.1-64.2-37.1m-23.1 423.1H188.3c-26.5 0-51-14.1-64.2-37.1L56.3 293.1c-13.2-22.9-13.2-51.2 0-74.1l67.8-117.4c13.2-22.9 37.7-37.1 64.2-37.1h135.6c26.5 0 51 14.1 64.2 37.1L455.9 219c13.2 22.9 13.2 51.2 0 74.1l-67.8 117.4c-13.3 22.9-37.7 37-64.2 37m68.5-137.4c0 .9-.7 1.7-1.9 2.2l-131.6 58.3c-1.7.7-3.9.7-5.6 0l-131.6-58.3c-1.2-.5-1.9-1.3-1.9-2.2s.7-1.7 1.9-2.2l44.7-19.8 83 36.8.2.1c2 .8 4.2 1.2 6.4 1.2s4.4-.4 6.4-1.2l83.3-36.9 44.6 19.8c1.4.5 2.1 1.3 2.1 2.2m0-54.3c0 .9-.7 1.7-1.9 2.2l-131.6 58.2c-1.7.7-3.9.7-5.6 0l-131.6-58.3c-1.2-.5-1.9-1.3-1.9-2.2s.7-1.7 1.9-2.2l44.6-19.8 83.2 36.8.2.1c2 .8 4.2 1.2 6.4 1.2s4.4-.4 6.4-1.2l83.4-36.9 44.6 19.8c1.2.6 1.9 1.4 1.9 2.3m-1.9-56.6-131.6-58.3c-1.7-.7-3.9-.7-5.6 0l-131.6 58.3c-1.2.5-1.9 1.3-1.9 2.2s.7 1.7 1.9 2.2l131.6 58.3c1.7.7 3.9.7 5.6 0l131.6-58.3c1.2-.5 1.9-1.3 1.9-2.2s-.7-1.6-1.9-2.2" style="fill:#fff"/></svg>