<svg xmlns="http://www.w3.org/2000/svg" xml:space="preserve" viewBox="0 0 512 512"><path d="M480.3 0H31.7C14.2 0 0 14.2 0 31.7v448.5C0 497.8 14.2 512 31.7 512h448.5c17.5 0 31.7-14.2 31.7-31.7V31.7C512 14.2 497.8 0 480.3 0M148.1 275.5c-1.2-2.3-1-5.1.5-7.2L295.4 61.9c1.8-2.5 4.9-3.5 7.8-2.6s4.8 3.6 4.8 6.6v140.8c0 3.8-3.1 7-7 7s-7-3.1-7-7v-119L167.8 265.3H267c3.8 0 7 3.1 7 7s-3.1 7-7 7H154.3c-2.7-.1-5-1.5-6.2-3.8m216.3-30.8L217.5 451c-1.3 1.9-3.5 2.9-5.7 2.9q-1.05 0-2.1-.3c-2.9-.9-4.8-3.6-4.8-6.6V306.2c0-3.8 3.1-7 7-7 3.8 0 7 3.1 7 7v119l126.3-177.5H246c-3.8 0-7-3.1-7-7 0-3.8 3.1-7 7-7h112.8c2.6 0 5 1.5 6.2 3.8 1.1 2.3.9 5.1-.6 7.2"/></svg>