<?xml version="1.0" encoding="utf-8"?>
<!-- Generator: Adobe Illustrator 28.2.0, SVG Export Plug-In . SVG Version: 6.00 Build 0)  -->
<svg version="1.1"
	 id="svg4312" xmlns:svg="http://www.w3.org/2000/svg" xmlns:sodipodi="http://sodipodi.sourceforge.net/DTD/sodipodi-0.dtd" xmlns:inkscape="http://www.inkscape.org/namespaces/inkscape" xmlns:rdf="http://www.w3.org/1999/02/22-rdf-syntax-ns#" xmlns:cc="http://creativecommons.org/ns#" xmlns:dc="http://purl.org/dc/elements/1.1/" sodipodi:docname="LinuxGSM_white_logo.svg"
	 xmlns="http://www.w3.org/2000/svg" xmlns:xlink="http://www.w3.org/1999/xlink" x="0px" y="0px" viewBox="0 0 512 512"
	 style="enable-background:new 0 0 512 512;" xml:space="preserve">
<style type="text/css">
	.st0{fill:#FFFFFF;}
</style>
<path class="st0" d="M173.9,330.9H338v31.8H173.9V330.9z M173.9,291.4H338v31.7H173.9V291.4z M258.8,299.6c0,1.4,1.3,2.5,2.9,2.5
	s2.9-1.1,2.9-2.5c0-1.4-1.3-2.5-2.9-2.5S258.8,298.2,258.8,299.6z M247.4,299.7c0,1.4,1.3,2.5,2.9,2.5s2.9-1.1,2.9-2.5
	c0-1.3-1.3-2.4-2.9-2.5C248.7,297.2,247.4,298.3,247.4,299.7z M216.8,283.8c0,1.7,2.5,4.4,4.4,4.4h35.2h35.3c1.8,0,4.4-2.7,4.4-4.4
	v-4.5h-39.7h-39.6V283.8z M253.2,267v0.7h-2v0.3h-30c-0.4,0-0.9,0.1-1.4,0.4c0,0,0,0,0,0c-0.1,0-0.2,0.1-0.2,0.1
	c-0.1,0-0.1,0.1-0.2,0.1c0,0,0,0-0.1,0c-0.1,0.1-0.2,0.2-0.3,0.2c0,0,0,0,0,0c-1.3,1-2.4,2.6-2.4,3.6v4.5h79.5v-0.1v-4.5
	c0-0.7-0.5-1.7-1.2-2.5c-0.2-0.2-0.4-0.5-0.7-0.7c-0.8-0.7-1.7-1.2-2.5-1.2h-5.2v-0.5h-1.3v-2h-0.8v-0.8h-5.5h-5.5v0.8h-0.7v2h-1.3
	v0.5h-10.2v-0.4h-2v-0.7h-0.7v-5.2c0.6,0,3.4-1.9,3.4-2.4c-0.3-22.9,2.1-11.5,2.1-38.4h0.6v-3c0-0.5-3.3-3.8-4-3.8h-4.3h-4.5v0.1
	c-0.8,0-4,3.3-4,3.8v3h0.6c0,26.9,2.3,15.5,2.1,38.4c0,0.5,2.7,2.4,3.4,2.4v5.2H253.2z M405.5,413.5c4.7,19.1-67.5,112.6-106.3,96.6
	c-18.3-7.5-24.7-37.5-24.7-68.2h-37.1c0,30.7-6.4,60.7-24.7,68.3c-38.8,15.9-111-77.6-106.3-96.6c4.6-19.1,19.6-14.6,27-23.9
	c7.5-9.3,0-24,17-31c2.7-1.1,5.1-1.7,7.2-1.8c11.6-0.7,16.8,10.8,26.7,12c11.9,1.4,19.3-12.3,36-2.1c1.2,0.7,2.4,2,3.5,3.7h64.2
	c1.2-1.8,2.4-3.1,3.6-3.8c16.8-10.2,24.2,3.5,36,2.1c9.6-1.1,14.8-11.7,25.5-11.9c2.4,0,5.2,0.5,8.4,1.7c17,7,9.6,21.7,17,31
	C385.9,398.9,400.8,394.5,405.5,413.5z M276.8,410.1c0.4-2.7,0.8-5.3,1.2-7.8h-44c0.4,2.5,0.9,5.1,1.2,7.8H276.8z M258,471.5
	c-0.7,0-1.4,0.1-2.1,0.1c-0.7,0-1.4-0.1-2.1-0.1c-0.8,5.5-2,10.9-3.5,16c-2.4,8.5-6,16.9-11.2,24.2c5.5,0.3,11.1,0.4,16.8,0.1
	c5.7,0.3,11.3,0.2,16.8-0.1c-5.3-7.2-8.8-15.7-11.2-24.2C260,482.3,258.9,476.9,258,471.5z M351.6,162.7
	c-13.9-42.2-4.9-49.7-10.4-90.9S306,0,255.9,0c-50.1,0-79.4,30.5-85,71.7c-5.5,41.2,3.4,48.7-10.5,90.9
	c-13.9,42.2-76,114.4-74.5,181.1c0.5,20.8,2.8,38.7,7,54.4c5.1-8.5,12.7-14.4,18.2-17c4.3-2,6.4-2.9,7.4-3.3
	c0.1-1.1,0.7-3.5,1.7-8.3c1.4-6.6,6.6-16.9,15.5-23.6c-0.1-2-0.2-4.1-0.2-6.2c-1-51.7,52.4-107.8,62.3-140.5
	c9.8-32.7,5.6-36.1,7.2-44.2s7.9-17.6,16.9-25.1c0.9-0.7,1.7-1,2.5-1c8.2-0.1,16.5,29.9,32.4,29.9s24.2-36.5,33.4-28.8
	c9,7.5,15.3,17,16.9,25.1c1.6,8.1-2.7,11.5,7.2,44.2c9.8,32.7,63.2,88.7,62.2,140.5c0,2.1-0.1,4.1-0.2,6.1
	c9,6.8,14.2,17.1,15.6,23.7c1,4.8,1.5,7.2,1.7,8.3c1,0.4,3.1,1.4,7.4,3.4c5.5,2.6,13,8.5,18.1,17c4.2-15.7,6.6-33.7,7.1-54.5
	C427.7,277.1,365.5,204.8,351.6,162.7z"/>
</svg>
