<svg xmlns="http://www.w3.org/2000/svg" xml:space="preserve" viewBox="0 0 512 512"><path d="M251.6 285.7v-4.6c13.4 6.7 27.8 11.6 42.6 14.7h-32.4c-5.6 0-10.2-4.6-10.2-10.1m-49.2-137.4v52c8-4.6 17.7-4.3 25.1 1.2l.4.3c.7.7 1.5 1.3 2.3 2 3.6 2.9 6.9 5.4 10.2 7.7h25.2c5.6 0 10.2-4.6 10.2-10.2v-53.1c0-2.8-1.1-5.4-3-7.3-1.9-1.8-4.3-2.8-7-2.7h-53.2c-5.7 0-10.2 4.5-10.2 10.1m-9.6 83.8c-1.8-3.1-2.8-6.4-3-9.8h-17.5c-5.6 0-10.2 4.6-10.2 10.2v53.1c0 2 .6 4 1.7 5.6q10.35 2.7 21.6 4.5h40c5.6 0 10.1-4.6 10.1-10.2v-13.7c-16.4-10.5-30.6-23.8-42.4-39.4zm121.9-9.7h-53c-.6 0-1.2.1-1.8.2 20.7 9.5 43 12.9 65.1 9.6-.2-5.5-4.7-9.8-10.3-9.8M8.9 175c-17.8 68-8.7 137.4 25 192 2.3-7.3 4.1-14.5 5.4-21.5 2.2-11.9 3.5-23.7 3.7-35 .3-15.1-1.1-30.2-4.1-44.9l-.6-2.8c-1.6-6.3-2.8-12.3-3.7-18.6v-.5c-1.2-6.9-1.9-14.3-2.2-21.8-.2-3.3-.3-6.8-.3-10.2.2-11.3 1.2-22.4 2.9-32.9.4-3.4 1-6.8 1.6-10.1 5.5-32.7 15.6-62.6 30-88.8q11.25-20.85 25.8-37.8C52.6 74.5 23.1 121 8.9 175m134.8 294c0-.1.1-.2.1-.3 12.6-26.7 19.3-56.7 19.3-86.5.1-13-1.2-26.4-3.8-39.7h-.1l-.5-2.4c-10.5-49.7-40.1-94.7-81.1-123.4l-1.1-.8-.1-1.4c-3.4-33.6 4.6-69.6 21.9-98.6l.1-.1c5.5-8.5 1.8-16.4-4.4-20.5-6.1-4-15.2-4.6-20.8 3.8-4.8 7-9.2 14.6-13.1 22.5-5.5 15.5-9.7 31.9-12.6 48.9-.6 3.2-1.2 6.5-1.6 9.7v.2c-1.6 10.1-2.5 20.7-2.7 31.4 0 3.1.1 6.4.3 9.5.3 7.3 1 14.4 2.1 20.9l.1.7c.9 5.8 2 11.4 3.4 17.2l.8 3.7v.3c3.1 15.3 4.5 30.9 4.2 46.6-.2 11.9-1.5 24.3-3.8 36.8-1.9 10.1-4.8 20.6-8.6 31l-.5 1.5c25.6 38.5 61 69.2 102.5 89m5.6 2.4c186.3 89.8 409.3-90.7 354.3-293-9.7 30.3-27.7 57.1-52.2 77.5-23.9 19.9-53.2 33.6-84.9 39.4-40.2 56.1-124.7 79.5-189.3 52l-2.4-1.1c-2.2-1-4.3-2-6.5-3.1-.7-.4-1.5-.8-2.2-1.2-.2-.1-.4-.3-.7-.4 2.7 13.7 4 27.4 3.9 40.7-.1 30.8-7 61.6-20 89.2M333 305.1c-70.8 10.9-127.2 10.5-172-1 3.9 9.9 7 20 9.3 30.2l.7 2.9c.1 0 .1.1.2.1 1.5.8 3 1.5 4.6 2.2l3.9 1.8c56 23.9 129.1 7.5 170.9-37.1-5.8.5-11.7.8-17.6.9m-94.8-86.6-.9-.6c-3.6-2.5-7.3-5.2-11.2-8.4-.9-.7-2-1.6-3-2.5-7.3-5.2-15.9-2.6-20.8 2l-3.6 3.4c-.6 1-.9 1.6-1.3 2.7l-.4 3.9c-.3 3.2.4 6.4 2 9.3 11.6 15.4 25.8 28.4 42 38.6l1.7 1c.7.4 1.3 1 2 1.4l5.2 2.8c22.6 12.2 48.3 19.2 74.4 20.1l8.8.3c11 0 21.2-.2 32.4-2.3 64.9-12 116.3-56.6 134.3-116.5-12-45-36.2-86.2-68.8-117.4 7.5 16.7 11.1 34.1 10.8 51.8-.2 4.3-.6 8.9-1.3 15v.4c-.3 2.5-.6 5-1.1 7.5-7.3 35.5-29.8 67.5-61.8 87.7-14.3 9-29.6 16.3-45.4 19.4l-2.9.5c-6.8 1.2-13.7 1.8-20.6 1.8-19.9 0-39.6-4.9-58-14.6l-4.2-2.2m26.1-132.2c54.6 15.6 97.2 64.7 103.2 122.5 30.3-19.6 51.6-50 58.5-83.8.5-2.3.7-4.7 1-7.1v-.4c.7-5.9 1.1-10.4 1.3-14.5.3-21.1-5.2-41.8-16.4-61.4L417 41c-29-21.2-86.8-29.5-128-20.4-1.1.3-2.2.7-3.2 1.4-14.3 9.4-31.8 12.8-48.7 15.9-3.5.6-6.1 3.7-6.2 7.3-.2 7.6 3.9 16.3 6.8 22.3 7 13.8 19.8 21.9 34.9 23.9m81.5-62.9c2.3-.3 4.6-.3 6.9-.1 8.5.7 16.8 4.4 17.5 9.6.7 3.9-3.5 7.9-9.3 10.7-3.7 1.8-7.7 3-11.8 3.6-10.2 1.4-.8-5.3-1.7-11.9s-11.7-10.5-1.6-11.9m-56.5 9.7c10.3.7 10.3 10.7 0 11.4-10.3-.7-10.3-10.7 0-11.4" style="fill:#fff"/></svg>