<svg xmlns="http://www.w3.org/2000/svg" xml:space="preserve" viewBox="0 0 512 512"><path d="M458.4 274.8c-11.9-67.2-40.9-118.3-64.9-114-6.4 1.1-11.8 6.2-16 14.1-1.9-2.7-3.8-5.4-5.8-7.9 5.1-13.5 8-28.1 8-43.4C379.6 55.3 324.3 0 256 0S132.4 55.3 132.4 123.6c0 15.3 2.9 29.9 8 43.4-2 2.6-3.9 5.2-5.8 7.9-4.2-7.9-9.6-13-16-14.1-24-4.2-53.1 46.8-64.9 114-11.9 67.2-2 125.1 22 129.4 11.2 2 23.5-8.2 34.7-26.4 24.5 68.6 80.5 116.6 145.7 116.6s121.1-48 145.7-116.6c11.2 18.2 23.5 28.4 34.7 26.4 23.9-4.2 33.7-62.2 21.9-129.4" style="fill:#2d2d2d"/><path d="M361.9 335.4c0 78-47.4 141.2-105.9 141.2s-105.9-63.2-105.9-141.2c0-43.6 14.9-82.6 38.2-108.6 19.5 12.8 42.7 20.3 67.7 20.3s48.3-7.5 67.7-20.3c23.4 26 38.2 65 38.2 108.6M167.7 141.2c0-43.9 39.5-79.4 88.3-79.4s88.3 35.6 88.3 79.4-39.5 79.4-88.3 79.4-88.3-35.5-88.3-79.4m110.4-35.3c0 12.2 9.9 22.1 22.1 22.1s22.1-9.9 22.1-22.1-9.9-22.1-22.1-22.1c-12.3.1-22.1 9.9-22.1 22.1m-88.3 0c0 12.2 9.9 22.1 22.1 22.1s22.1-9.9 22.1-22.1-9.9-22.1-22.1-22.1c-12.2.1-22.1 9.9-22.1 22.1m22.1-6.1c0 3.9 3.2 7.1 7.1 7.1s7.1-3.2 7.1-7.1-3.2-7.1-7.1-7.1-7.1 3.2-7.1 7.1m88.2 0c0 3.9 3.2 7.1 7.1 7.1s7.1-3.2 7.1-7.1-3.2-7.1-7.1-7.1-7.1 3.2-7.1 7.1" style="fill:#f5f5f5"/><path d="m229.5 150.1 26.5 44.1 26.5-44.1zM194.2 459c29.3 0 53 11.9 53 26.5s-23.7 26.5-53 26.5-53-11.9-53-26.5 23.8-26.5 53-26.5m123.6 0c29.3 0 53 11.9 53 26.5S347 512 317.8 512c-29.3 0-53-11.9-53-26.5s23.7-26.5 53-26.5" style="fill:#f59e0b"/></svg>