<?xml version="1.0" encoding="utf-8"?>
<!-- Generator: Adobe Illustrator 28.2.0, SVG Export Plug-In . SVG Version: 6.00 Build 0)  -->
<svg version="1.1" id="Layer_1" xmlns="http://www.w3.org/2000/svg" xmlns:xlink="http://www.w3.org/1999/xlink" x="0px" y="0px"
	 viewBox="0 0 512 512" style="enable-background:new 0 0 512 512;" xml:space="preserve">
<style type="text/css">
	.st0{fill:#FFFFFF;}
	.st1{fill:#F5C021;}
</style>
<path d="M254.9,485.1c-22,0-39,3-50.9,8.9v-0.5c-8.5,10.2-18,15.4-31.2,15.4c-8.3,0-21.4-3.2-39-9.7c-17.8-6.1-33.6-10.8-47.3-13.9
	c-1.4-0.4-4.4-1-9.3-1.7c-4.7-0.8-9.2-1.5-13.1-2.3c-3.6-0.8-7.6-1.9-12-3.5c-4.2-1.3-7.6-3.1-10.2-5.2c-2.3-2.1-3.5-4.5-3.5-7.2
	c0-2.7,0.6-5.6,1.7-8.7c1.1-1.9,2.3-3.7,3.5-5.4c1.2-1.9,2.2-3.6,2.9-5.3c1-1.5,1.7-3.1,2.4-4.7c0.7-1.5,1.4-3.1,1.7-4.9
	c0.3-1.7,0.7-3.4,0.7-5.1c0-1.7-0.7-6.8-2-15.8c-1.4-8.8-2-14.4-2-16.8c0-7.5,1.7-13.4,5.4-17.6s7.3-6.4,11-6.4h19.5
	c1.5,0,3.9-0.8,7.5-2.9c1.2-2.7,2.2-4.9,2.9-7c0.8-2,1.2-3.6,1.5-4.2c0.3-1,0.7-2,1-2.9c0.7-1.2,1.5-2.5,2.7-3.9
	c-1.4-1.7-2-3.9-2-6.6c0-1.9,0-3.6,0.3-4.6c0-6.1,2.9-14.7,9-26.1l5.9-10.7c4.9-9.2,8.6-15.9,11.4-22.7c2.9-6.8,5.9-17,9.3-30.5
	c2.7-11.9,9.2-23.7,19.3-35.6l12.7-15.3c8.8-10.2,14.6-18.6,17.8-25.4c3.2-6.8,4.9-15.3,4.9-22c0-3.4-0.8-13.6-2.7-30.5
	c-1.7-17-2.5-33.9-2.5-49.2c0-11.9,1-20.3,3.2-28.8c2.2-8.5,6.1-17,11.9-23.7c5.1-6.8,11.9-13.6,22-17s22-5.1,35.6-5.1
	c5.1,0,10.2,0,15.3,1.7c5.1,0,11.9,1.7,20.3,5.1c6.8,3.4,13.6,6.8,18.6,11.9c6.8,5.1,11.9,13.6,17,22c3.4,10.2,6.8,20.3,8.5,33.9
	c1.7,8.5,1.7,17,3.4,28.8c0,10.2,1.7,17,1.7,22c1.7,5.1,1.7,11.9,3.4,20.3c1.7,6.8,3.4,13.6,6.8,18.6c3.4,6.8,6.8,13.6,11.9,20.3
	c5.1,8.5,11.9,17,18.6,27.1c15.3,17,27.1,35.6,33.9,54.2c8.5,17,13.6,39,13.6,62.6c0,11.7-1.7,23.1-5.1,34.1c3.4,0,5.1,1.4,6.8,3.7
	s3.4,7.5,5.1,15.4l1.7,12.5c1.7,3.7,3.4,7.3,8.5,10.3c3.4,3.1,6.8,5.6,11.9,7.6c3.4,1.7,8.5,4.1,11.9,7.1c3.4,3.4,5.1,7,5.1,10.7
	c0,5.8-1.7,10-5.1,13.1c-3.4,3.4-6.8,5.8-11.9,7.3c-3.4,1.7-10.2,5.1-20.3,9.9c-8.5,5-17,11.1-25.4,18.3l-17,14.4
	c-6.8,6.6-13.6,11.4-18.6,14.2c-5.1,3.1-11.9,4.6-18.6,4.6l-11.9-1.4c-13.6-3.6-22-10.3-27.1-20.7
	C290.5,486.7,268.4,485,254.9,485.1"/>
<path class="st0" d="M207.6,125.1c-6.8-3.4-8.5-8.5-8.5-17c0-5.1,0-8.5,3.4-11.9c1.7-3.4,5.1-5.1,8.5-5.1c3.4,0,5.1,1.7,8.5,5.1
	c1.7,5.1,3.4,10.2,3.4,15.3v3.4h1.7v-1.7c1.7,0,1.7-3.4,1.7-10.2c0-5.1,0-10.2-3.4-15.3s-6.8-8.5-13.6-8.5c-5.1,0-10.2,3.4-11.9,8.5
	c-3.4,6.8-4.1,11.9-4.1,20.3c0,6.8,2.4,13.6,9.2,20.3C204.2,126.8,205.9,126.8,207.6,125.1 M419.5,364.1c1.7,0,1.7-0.7,1.7-2.2
	c0-3.7-1.7-8.1-6.8-13.1c-5.1-5.1-13.6-8.3-23.7-9.7c-1.7-0.2-3.4-0.2-3.4-0.2c-1.7-0.3-1.7-0.3-3.4-0.3c-1.7-0.2-5.1-0.5-6.8-0.8
	c5.1-15.8,6.8-29.7,6.8-41.9c0-17-3.4-28.8-10.2-39c-6.8-10.2-13.6-15.3-22-17c-1.7,1.7-1.7,1.7-1.7,3.4c8.5,3.4,17,10.2,22,20.3
	c5.1,11.9,6.8,22,6.8,33.9c0,9.5-1.7,23.6-8.5,41.5c-6.8,2.7-13.6,9-18.6,18.8c0,1.5,0,2.4,1.7,2.4c0,0,1.7-1.5,3.4-4.4
	c3.4-2.9,5.1-5.8,8.5-8.6c5.1-2.9,8.5-4.4,13.6-4.4c8.5,0,17,1.2,22,3.6c6.8,2.2,10.2,4.6,11.9,7.3c1.7,2.5,3.4,4.9,5.1,7.1
	C417.8,363.1,419.5,364.1,419.5,364.1 M263.5,118.3c-1.7-1.7-1.7-5.1-1.7-8.5c0-6.8,0-10.2,3.4-15.3c3.4-3.4,6.8-5.1,10.2-5.1
	c5.1,0,8.5,3.4,11.9,6.8c1.7,5.1,3.4,8.5,3.4,13.6c0,8.5-3.4,13.6-10.2,15.3c0,0,1.7,1.7,3.4,1.7c3.4,0,5.1,1.7,8.5,3.4
	c1.7-10.2,3.4-17,3.4-25.4c0-10.2-1.7-17-5.1-22c-5.1-5.1-10.2-6.8-17-6.8c-5.1,0-10.2,1.7-15.3,5.1c-3.4,5.1-5.1,8.5-5.1,13.6
	c0,8.5,1.7,15.3,5.1,22C260.1,116.6,261.8,118.3,263.5,118.3 M217.7,108.2c0-8.5-3.4-13.6-8.5-13.6c0,0,0,1.7-1.7,1.7v3.4h5.1
	c0,3.4,1.7,5.1,1.7,8.5H217.7 M277.1,99.7c3.4,0,5.1,3.4,6.8,8.5h3.4c-1.7-1.7-1.7-3.4-1.7-5.1c0-1.7,0-3.4-1.7-5.1
	c-1.7-1.7-3.4-3.4-5.1-3.4c0,0-1.7,1.7-3.4,1.7C275.4,98,277.1,98,277.1,99.7 M133.5,324.7c0-11.7,3.1-24.6,9.3-39.8
	c6.1-15.3,12.2-25.4,18.1-32.2c-0.3-1.7-1.2-1.7-2.5-1.7l-1.7-1.7c-4.9,5.1-10.8,17-18,33.9c-7.1,15.3-10.8,29.3-10.8,39.7
	c0,7.6,1.9,14.2,5.3,20c3.7,5.6,12.7,13.7,27,24.1l18,11.7c19.2,16.6,29.3,28.1,29.3,34.9c0,3.6-1.7,7.1-6.8,11
	c-3.4,4.1-8,6.1-11.9,6.1c-0.3,0-0.5,0.3-0.5,1.2c0,0.2,1.7,3.6,5.3,10.2c7.1,9.7,22.4,14.4,42.7,14.4c37.3,0,66.1-15.3,88.2-45.8
	c0-8.5,0-13.7-1.7-15.9v-6.3c0-11,1.7-19.3,5.1-24.7c3.4-5.4,6.8-8,11.9-8c3.4,0,6.8,1.2,10.2,3.7c1.7-13.1,1.7-24.4,1.7-34.6
	c0-15.4,0-28.1-3.4-40c-1.7-10.2-5.1-18.6-8.5-25.4l-10.2-15.3c-3.4-5.1-5.1-10.2-8.5-15.3c-1.7-6.8-3.4-11.9-3.4-20.3
	c-5.1-8.5-8.5-17-13.6-25.4c-3.4-8.5-6.8-17-10.2-23.7l-15.3,11.9c-17,11.9-30.5,17-42.4,17c-10.2,0-18.6-1.7-23.7-8.5l-10.2-8.5
	c0,5.1-1.7,11.9-5.1,18.6l-10.7,20.3c-4.7,11.9-7.3,18.6-7.8,23.7c-0.7,3.4-1.2,6.8-1.5,6.8l-12.7,25.4
	c-13.7,25.4-20.7,49-20.7,68.5c0,3.9,0.3,8,1,12C137.2,341.5,133.5,334.2,133.5,324.7"/>
<path class="st1" d="M299.1,138.7c-1.7-3.4-10.2-8.5-27.1-13.6c-15.3-6.8-27.1-10.2-33.9-10.2c-5.1,0-13.6,3.4-25.4,10.2
	c-10.2,6.8-17,13.6-17,20.3c0,0,1.7,1.7,3.4,5.1c10.2,8.5,20.3,13.6,30.5,13.6c13.6,0,30.5-6.8,52.6-23.7v3.4c1.7,0,1.7,1.7,1.7,1.7
	c-22,15.3-39,22-52.6,22c-11.9,0-23.7-5.1-33.9-13.6c1.7,3.4,3.4,6.8,5.1,8.5l10.2,10.2c6.8,6.8,15.3,10.2,23.7,10.2
	c11.9,0,25.4-6.8,42.4-18.6l15.3-10.2c3.4-3.4,6.8-6.8,6.8-11.9C300.8,140.4,300.8,138.7,299.1,138.7z M227.9,126.8h-1.7
	c-1.7,0-1.7,0-1.7-1.7s0-3.4,1.7-5.1c3.4,0,5.1-1.7,5.1-1.7c1.7,0,1.7,1.7,1.7,1.7C233,121.7,231.3,123.4,227.9,126.8z M246.6,126.8
	h-1.7c-1.7,0-1.7-1.7-3.4-3.4c0,0-1.7-1.7-1.7-3.4s0-1.7,1.7-1.7l3.4,1.7c1.7,1.7,3.4,3.4,3.4,5.1S246.6,126.8,246.6,126.8z
	 M322.8,487.9c6.8,12.7,18.6,19.2,32.2,19.2c3.4,0,6.8-0.5,10.2-1.5c3.4-0.7,6.8-1.9,8.5-3.2c1.7-1.2,3.4-2.4,5.1-3.7
	c3.4-1.2,3.4-2,5.1-2.9l28.8-24.9c6.8-5.4,13.6-10.1,22-14.2c6.8-4.1,13.6-6.8,17-8.3c5.1-1.4,8.5-3.4,11.9-6.1
	c1.7-2.5,3.4-5.8,3.4-9.8c0-4.9-3.4-8.6-6.8-11.4c-3.4-2.7-6.8-4.6-10.2-5.8c-3.4-1.2-6.8-3.9-11.9-8.5c-3.4-4.4-6.8-10.5-8.5-18.5
	l-1.7-9.8c-1.7-4.6-1.7-8-3.4-9.8c0-0.5,0-0.7-1.7-0.7c-1.7,0-5.1,1.5-6.8,4.4c-3.4,2.9-6.8,6.1-10.2,9.5c-1.7,3.4-6.8,6.4-10.2,9.3
	c-5.1,2.9-10.2,4.4-13.6,4.4c-13.6,0-20.3-3.7-25.4-11c-3.4-5.4-5.1-11.7-6.8-18.8c-3.4-2.9-5.1-4.4-8.5-4.4
	c-8.5,0-11.9,8.8-11.9,26.6v52.7c0,1.5-1.7,4.9-1.7,10.2c-1.7,5.3-1.7,11.2-1.7,18l-3.4,18.8V487.9 M77,478.9
	c15.8,2.3,33.9,7.2,54.4,14.8c20.5,7.5,33.1,11.4,37.6,11.4c11.9,0,21.7-5.3,29.8-15.4c1.7-3.3,1.7-7.2,1.7-11.6
	c0-16-9.7-36.3-29-60.9l-11.5-15.4c-2.4-3.2-5.3-8.1-9-14.7c-3.6-6.6-6.8-11.7-9.3-15.3c-2.2-3.9-5.8-7.8-10.3-11.7
	c-4.4-3.9-9.5-6.4-15.1-7.8c-7.1,1.4-12,3.7-14.4,7s-3.7,6.8-4.1,10.5c-0.5,3.6-1.5,5.9-3.2,7.1c-1.7,1-4.6,1.9-8.5,2.7
	c-0.8,0-2.4,0-4.6,0.2H77c-9,0-15.1,1-18.3,2.7c-4.2,4.9-6.4,10.5-6.4,16.4c0,2.7,0.7,7.3,2,13.7c1.4,6.3,2,11.4,2,14.9
	c0,7-2,13.9-6.3,20.9c-4.2,7.3-6.4,12.7-6.4,16.6C45.3,471.5,56.5,476.1,77,478.9"/>
</svg>
