<svg xmlns="http://www.w3.org/2000/svg" xml:space="preserve" viewBox="0 0 512 512"><linearGradient id="linuxserver-io_svg__a" x1="234.233" x2="158.055" y1="595.673" y2="508.966" gradientTransform="translate(0 -277.28)" gradientUnits="userSpaceOnUse"><stop offset="0" style="stop-color:#7142b7"/><stop offset="1" style="stop-color:#4179d4"/></linearGradient><path d="M241.2 270.6v15.5c0 7.5-6.1 13.6-13.5 13.6H175c-7.5 0-13.6-6.1-13.6-13.6v-52.7c0-7.5 6.1-13.6 13.6-13.6h20.9c-.4 4 .5 8 2.5 11.5 11.8 15.7 26.3 29 42.8 39.3" style="fill:url(#linuxserver-io_svg__a)"/><linearGradient id="linuxserver-io_svg__b" x1="308.966" x2="232.78" y1="530.019" y2="443.303" gradientTransform="translate(0 -277.28)" gradientUnits="userSpaceOnUse"><stop offset="0" style="stop-color:#7142b7"/><stop offset="1" style="stop-color:#4179d4"/></linearGradient><path d="M281.1 149.8v52.7c0 7.5-6.1 13.6-13.6 13.6h-26.1c-3.8-2.6-7.5-5.4-11.2-8.4l.3.3c-1-.8-2-1.6-2.9-2.5.5.3.9.7 1.3 1-8.5-7.4-19.7-5.3-26.6 1.2-.7-1.6-1-3.4-1-5.1v-52.7c0-7.5 6.1-13.5 13.6-13.5h52.7c7.5-.2 13.5 5.9 13.5 13.4" style="fill:url(#linuxserver-io_svg__b)"/><linearGradient id="linuxserver-io_svg__c" x1="287.051" x2="238.222" y1="570.138" y2="514.567" gradientTransform="translate(0 -277.28)" gradientUnits="userSpaceOnUse"><stop offset="0" style="stop-color:#7142b7"/><stop offset="1" style="stop-color:#4179d4"/></linearGradient><path d="M250.2 275.9c23.2 12.5 49 19.4 75.3 20.4-2.5 2.2-5.7 3.5-9.1 3.4h-52.6c-7.5 0-13.6-6.1-13.6-13.5z" style="fill:url(#linuxserver-io_svg__c)"/><linearGradient id="linuxserver-io_svg__d" x1="296.832" x2="252.334" y1="508.656" y2="458.009" gradientTransform="translate(0 -277.28)" gradientUnits="userSpaceOnUse"><stop offset="0" style="stop-color:#7142b7"/><stop offset="1" style="stop-color:#4179d4"/></linearGradient><path d="M330 233.5v2.6c-24.4 4.2-50.5.9-75.7-12.4 2.5-2.5 5.9-3.8 9.4-3.8h52.6c7.6 0 13.7 6.1 13.7 13.6" style="fill:url(#linuxserver-io_svg__d)"/><linearGradient id="linuxserver-io_svg__e" x1="72.948" x2="55.035" y1="274.009" y2="651.173" gradientTransform="translate(0 -277.28)" gradientUnits="userSpaceOnUse"><stop offset=".43" style="stop-color:#ff4f97"/><stop offset=".63" style="stop-color:#d93b92"/><stop offset=".99" style="stop-color:#450284"/></linearGradient><path d="M42.6 180.7c-1.7 10.6-2.6 21.4-2.8 32.1 0 3.3.1 6.7.3 10 .3 7.2 1 14.4 2.2 21.5v.2c.9 6.1 2.1 12.1 3.6 18.1l.6 2.7v.2c3.1 14.9 4.5 30.2 4.2 45.4-.2 11.9-1.5 23.7-3.7 35.4-1.9 10.1-4.7 20-8.2 29.7-79-117.5-32.1-297 94.7-360.7C82.4 51.6 54.4 110 44.2 170.8c-.6 3.3-1.2 6.6-1.6 9.9" style="fill:url(#linuxserver-io_svg__e)"/><linearGradient id="linuxserver-io_svg__f" x1="89.566" x2="106.424" y1="302.831" y2="716.866" gradientTransform="translate(0 -277.28)" gradientUnits="userSpaceOnUse"><stop offset=".43" style="stop-color:#ff4f97"/><stop offset=".63" style="stop-color:#d93b92"/><stop offset=".99" style="stop-color:#450284"/></linearGradient><path d="M168.9 382c0 30.1-6.6 59.9-19.5 87.2-.5 1-.9 1.9-1.4 2.9-44.9-20.8-82.8-54.2-109.2-96 3.5-9.7 6.2-19.6 8.2-29.7 2.3-11.7 3.5-23.5 3.7-35.4.3-15.3-1.1-30.5-4.2-45.4v-.2l-.6-2.7c-1.5-6-2.7-12-3.6-18.1v-.2c-1.2-7.1-1.9-14.3-2.2-21.5-.2-3.3-.3-6.7-.3-10.1.2-10.8 1.1-21.5 2.8-32.1 4.6-29 14.9-57 31.5-81.3 13-19.2 42.9.2 30 19.9-16.4 27.5-24.7 62.4-21.3 96 41.2 28.8 71.2 74.5 81.7 124.3h.1c2.9 14 4.4 28.2 4.3 42.4" style="fill:url(#linuxserver-io_svg__f)"/><linearGradient id="linuxserver-io_svg__g" x1="579.008" x2="215.831" y1="499.345" y2="758.511" gradientTransform="translate(0 -277.28)" gradientUnits="userSpaceOnUse"><stop offset=".43" style="stop-color:#ff4f97"/><stop offset=".63" style="stop-color:#d93b92"/><stop offset=".99" style="stop-color:#450284"/></linearGradient><path d="M149.4 469.2c241.4 47 353.9-259.4 353.7-291.4C559.9 380.3 334 564.6 148 472.1c.5-1 .9-1.9 1.4-2.9" style="fill:url(#linuxserver-io_svg__g)"/><linearGradient id="linuxserver-io_svg__h" x1="583.263" x2="148.849" y1="424.127" y2="734.986" gradientTransform="translate(0 -277.28)" gradientUnits="userSpaceOnUse"><stop offset=".43" style="stop-color:#ff4f97"/><stop offset=".63" style="stop-color:#d93b92"/><stop offset=".99" style="stop-color:#450284"/></linearGradient><path d="M503.1 177.8c.3 32-112.3 338.4-353.7 291.4 18.7-39.2 24.4-86.6 15.1-129.6l4.2 2.4c.7.4 1.5.8 2.2 1.2 2.1 1.1 4.2 2.1 6.4 3.1l2.4 1.1C244.5 375 329.4 351 368.8 294c.3-.4.6-.8.8-1.2 59.7-11.9 113.6-52.7 132.8-117.5.2.8.5 1.7.7 2.5" style="fill:url(#linuxserver-io_svg__h)"/><linearGradient id="linuxserver-io_svg__i" x1="143.852" x2="435.809" y1="614.749" y2="556.086" gradientTransform="translate(0 -277.28)" gradientUnits="userSpaceOnUse"><stop offset=".43" style="stop-color:#ff4f97"/><stop offset=".63" style="stop-color:#d93b92"/><stop offset=".99" style="stop-color:#450284"/></linearGradient><path d="M369.6 292.8c-.3.4-.6.8-.8 1.2-39.5 56.9-124.3 81-189.1 53.3l-2.4-1.1c-2.1-1-4.3-2-6.4-3.1-.7-.4-1.5-.8-2.2-1.2l-4.2-2.4c-3.5-16.1-8.9-31.7-16-46.5 66.4 23.3 152.6 12.8 221.1-.2" style="fill:url(#linuxserver-io_svg__i)"/><linearGradient id="linuxserver-io_svg__j" x1="557.979" x2="215.537" y1="380.881" y2="526.859" gradientTransform="translate(0 -277.28)" gradientUnits="userSpaceOnUse"><stop offset=".43" style="stop-color:#ff4f97"/><stop offset=".63" style="stop-color:#d93b92"/><stop offset=".99" style="stop-color:#450284"/></linearGradient><path d="M502.4 175.3c-38.8 131.4-221.2 164.7-304 56.2-10.8-19.5 14.6-39 30.6-25.2-.4-.4-.9-.7-1.3-1 1 .9 2 1.7 2.9 2.5l-.3-.3c48.7 40.3 104.9 36.8 146.9 10.2 30.2-19.1 53-50.2 60.2-85.4.5-2.5.8-5.1 1.1-7.6.6-4.9 1.1-9.8 1.3-14.6.3-20.4-4.8-41.6-16.6-62.3 38.3 32.7 66 77.6 79.2 127.5" style="fill:url(#linuxserver-io_svg__j)"/><linearGradient id="linuxserver-io_svg__k" x1="205.933" x2="545.47" y1="289.796" y2="423.468" gradientTransform="translate(0 -277.28)" gradientUnits="userSpaceOnUse"><stop offset=".43" style="stop-color:#ff4f97"/><stop offset=".63" style="stop-color:#d93b92"/><stop offset=".99" style="stop-color:#450284"/></linearGradient><path d="M423.2 47.8c-26.4-24.2-88.8-34.3-132.4-24.6-1.1.3-2.2.7-3.2 1.4-14.2 9.3-31.6 12.7-48.3 15.8-3.5.6-6.1 3.7-6.2 7.2-.2 7.5 3.9 16.2 6.7 22.1 7 13.7 19.7 21.8 34.7 23.7 39.9-60.1 105.1-33 146 9.5 1 1 1.9 2 2.8 3 5.4 5.9 10.5 12.2 15.1 18.8h.1c.6-4.9 1.1-9.8 1.3-14.6.3-20.4-4.8-41.6-16.6-62.3M299.3 52c-10.2-.7-10.2-10.6 0-11.3 10.2.7 10.2 10.6 0 11.3m71.1-1q-5.55 2.7-11.7 3.6c-10.1 1.4-.8-5.3-1.7-11.8s-11.7-10.4-1.6-11.8c2.3-.3 4.6-.3 6.8-.1 8.4.7 16.7 4.4 17.4 9.5.7 3.9-3.5 7.8-9.2 10.6" style="fill:url(#linuxserver-io_svg__k)"/><linearGradient id="linuxserver-io_svg__l" x1="185.957" x2="451.994" y1="313.233" y2="463.301" gradientTransform="translate(0 -277.28)" gradientUnits="userSpaceOnUse"><stop offset=".43" style="stop-color:#ff4f97"/><stop offset=".63" style="stop-color:#d93b92"/><stop offset=".99" style="stop-color:#450284"/></linearGradient><path d="M438.5 124.7c-.3 2.6-.6 5.1-1.1 7.6-7.2 35.2-30 66.3-60.2 85.4-4.9-58.5-47.6-108.6-102.7-124.3 39.9-60.1 105.1-33 146 9.5 1 1 1.9 2 2.8 3 5.5 6 10.6 12.2 15.2 18.8" style="fill:url(#linuxserver-io_svg__l)"/></svg>