<svg xmlns="http://www.w3.org/2000/svg" xml:space="preserve" viewBox="0 0 512 512"><path d="M254.9 485.1c-22 0-39 3-50.9 8.9v-.5c-8.5 10.2-18 15.4-31.2 15.4-8.3 0-21.4-3.2-39-9.7-17.8-6.1-33.6-10.8-47.3-13.9-1.4-.4-4.4-1-9.3-1.7-4.7-.8-9.2-1.5-13.1-2.3-3.6-.8-7.6-1.9-12-3.5-4.2-1.3-7.6-3.1-10.2-5.2-2.3-2.1-3.5-4.5-3.5-7.2s.6-5.6 1.7-8.7c1.1-1.9 2.3-3.7 3.5-5.4 1.2-1.9 2.2-3.6 2.9-5.3 1-1.5 1.7-3.1 2.4-4.7.7-1.5 1.4-3.1 1.7-4.9.3-1.7.7-3.4.7-5.1s-.7-6.8-2-15.8c-1.4-8.8-2-14.4-2-16.8 0-7.5 1.7-13.4 5.4-17.6s7.3-6.4 11-6.4h19.5c1.5 0 3.9-.8 7.5-2.9 1.2-2.7 2.2-4.9 2.9-7 .8-2 1.2-3.6 1.5-4.2.3-1 .7-2 1-2.9.7-1.2 1.5-2.5 2.7-3.9-1.4-1.7-2-3.9-2-6.6 0-1.9 0-3.6.3-4.6 0-6.1 2.9-14.7 9-26.1l5.9-10.7c4.9-9.2 8.6-15.9 11.4-22.7 2.9-6.8 5.9-17 9.3-30.5 2.7-11.9 9.2-23.7 19.3-35.6l12.7-15.3c8.8-10.2 14.6-18.6 17.8-25.4s4.9-15.3 4.9-22c0-3.4-.8-13.6-2.7-30.5-1.7-17-2.5-33.9-2.5-49.2 0-11.9 1-20.3 3.2-28.8s6.1-17 11.9-23.7c5.1-6.8 11.9-13.6 22-17s22-5.1 35.6-5.1c5.1 0 10.2 0 15.3 1.7 5.1 0 11.9 1.7 20.3 5.1 6.8 3.4 13.6 6.8 18.6 11.9 6.8 5.1 11.9 13.6 17 22 3.4 10.2 6.8 20.3 8.5 33.9 1.7 8.5 1.7 17 3.4 28.8 0 10.2 1.7 17 1.7 22 1.7 5.1 1.7 11.9 3.4 20.3 1.7 6.8 3.4 13.6 6.8 18.6 3.4 6.8 6.8 13.6 11.9 20.3 5.1 8.5 11.9 17 18.6 27.1 15.3 17 27.1 35.6 33.9 54.2 8.5 17 13.6 39 13.6 62.6 0 11.7-1.7 23.1-5.1 34.1 3.4 0 5.1 1.4 6.8 3.7s3.4 7.5 5.1 15.4l1.7 12.5c1.7 3.7 3.4 7.3 8.5 10.3 3.4 3.1 6.8 5.6 11.9 7.6 3.4 1.7 8.5 4.1 11.9 7.1 3.4 3.4 5.1 7 5.1 10.7 0 5.8-1.7 10-5.1 13.1-3.4 3.4-6.8 5.8-11.9 7.3-3.4 1.7-10.2 5.1-20.3 9.9-8.5 5-17 11.1-25.4 18.3l-17 14.4c-6.8 6.6-13.6 11.4-18.6 14.2-5.1 3.1-11.9 4.6-18.6 4.6l-11.9-1.4c-13.6-3.6-22-10.3-27.1-20.7-27.4-2.9-49.5-4.6-63-4.5"/><path d="M207.6 125.1c-6.8-3.4-8.5-8.5-8.5-17 0-5.1 0-8.5 3.4-11.9 1.7-3.4 5.1-5.1 8.5-5.1s5.1 1.7 8.5 5.1c1.7 5.1 3.4 10.2 3.4 15.3v3.4h1.7v-1.7c1.7 0 1.7-3.4 1.7-10.2 0-5.1 0-10.2-3.4-15.3s-6.8-8.5-13.6-8.5c-5.1 0-10.2 3.4-11.9 8.5-3.4 6.8-4.1 11.9-4.1 20.3 0 6.8 2.4 13.6 9.2 20.3 1.7-1.5 3.4-1.5 5.1-3.2m211.9 239c1.7 0 1.7-.7 1.7-2.2 0-3.7-1.7-8.1-6.8-13.1-5.1-5.1-13.6-8.3-23.7-9.7-1.7-.2-3.4-.2-3.4-.2-1.7-.3-1.7-.3-3.4-.3-1.7-.2-5.1-.5-6.8-.8 5.1-15.8 6.8-29.7 6.8-41.9 0-17-3.4-28.8-10.2-39s-13.6-15.3-22-17c-1.7 1.7-1.7 1.7-1.7 3.4 8.5 3.4 17 10.2 22 20.3 5.1 11.9 6.8 22 6.8 33.9 0 9.5-1.7 23.6-8.5 41.5-6.8 2.7-13.6 9-18.6 18.8 0 1.5 0 2.4 1.7 2.4 0 0 1.7-1.5 3.4-4.4 3.4-2.9 5.1-5.8 8.5-8.6 5.1-2.9 8.5-4.4 13.6-4.4 8.5 0 17 1.2 22 3.6 6.8 2.2 10.2 4.6 11.9 7.3 1.7 2.5 3.4 4.9 5.1 7.1-.1 2.3 1.6 3.3 1.6 3.3m-156-245.8c-1.7-1.7-1.7-5.1-1.7-8.5 0-6.8 0-10.2 3.4-15.3q5.1-5.1 10.2-5.1c5.1 0 8.5 3.4 11.9 6.8 1.7 5.1 3.4 8.5 3.4 13.6q0 12.75-10.2 15.3s1.7 1.7 3.4 1.7c3.4 0 5.1 1.7 8.5 3.4 1.7-10.2 3.4-17 3.4-25.4 0-10.2-1.7-17-5.1-22-5.1-5.1-10.2-6.8-17-6.8q-7.65 0-15.3 5.1c-3.4 5.1-5.1 8.5-5.1 13.6 0 8.5 1.7 15.3 5.1 22 1.7-.1 3.4 1.6 5.1 1.6m-45.8-10.1c0-8.5-3.4-13.6-8.5-13.6 0 0 0 1.7-1.7 1.7v3.4h5.1c0 3.4 1.7 5.1 1.7 8.5zm59.4-8.5c3.4 0 5.1 3.4 6.8 8.5h3.4c-1.7-1.7-1.7-3.4-1.7-5.1s0-3.4-1.7-5.1-3.4-3.4-5.1-3.4c0 0-1.7 1.7-3.4 1.7 0 1.7 1.7 1.7 1.7 3.4m-143.6 225c0-11.7 3.1-24.6 9.3-39.8 6.1-15.3 12.2-25.4 18.1-32.2-.3-1.7-1.2-1.7-2.5-1.7l-1.7-1.7c-4.9 5.1-10.8 17-18 33.9-7.1 15.3-10.8 29.3-10.8 39.7 0 7.6 1.9 14.2 5.3 20 3.7 5.6 12.7 13.7 27 24.1l18 11.7c19.2 16.6 29.3 28.1 29.3 34.9 0 3.6-1.7 7.1-6.8 11-3.4 4.1-8 6.1-11.9 6.1-.3 0-.5.3-.5 1.2 0 .2 1.7 3.6 5.3 10.2 7.1 9.7 22.4 14.4 42.7 14.4 37.3 0 66.1-15.3 88.2-45.8 0-8.5 0-13.7-1.7-15.9v-6.3c0-11 1.7-19.3 5.1-24.7s6.8-8 11.9-8c3.4 0 6.8 1.2 10.2 3.7 1.7-13.1 1.7-24.4 1.7-34.6 0-15.4 0-28.1-3.4-40-1.7-10.2-5.1-18.6-8.5-25.4l-10.2-15.3c-3.4-5.1-5.1-10.2-8.5-15.3-1.7-6.8-3.4-11.9-3.4-20.3-5.1-8.5-8.5-17-13.6-25.4-3.4-8.5-6.8-17-10.2-23.7l-15.3 11.9c-17 11.9-30.5 17-42.4 17-10.2 0-18.6-1.7-23.7-8.5l-10.2-8.5c0 5.1-1.7 11.9-5.1 18.6l-10.7 20.3c-4.7 11.9-7.3 18.6-7.8 23.7-.7 3.4-1.2 6.8-1.5 6.8l-12.7 25.4c-13.7 25.4-20.7 49-20.7 68.5 0 3.9.3 8 1 12-7.6-5.2-11.3-12.5-11.3-22" style="fill:#fff"/><path d="M299.1 138.7c-1.7-3.4-10.2-8.5-27.1-13.6-15.3-6.8-27.1-10.2-33.9-10.2-5.1 0-13.6 3.4-25.4 10.2-10.2 6.8-17 13.6-17 20.3 0 0 1.7 1.7 3.4 5.1 10.2 8.5 20.3 13.6 30.5 13.6 13.6 0 30.5-6.8 52.6-23.7v3.4c1.7 0 1.7 1.7 1.7 1.7-22 15.3-39 22-52.6 22-11.9 0-23.7-5.1-33.9-13.6 1.7 3.4 3.4 6.8 5.1 8.5l10.2 10.2c6.8 6.8 15.3 10.2 23.7 10.2 11.9 0 25.4-6.8 42.4-18.6l15.3-10.2c3.4-3.4 6.8-6.8 6.8-11.9-.1-1.7-.1-3.4-1.8-3.4m-71.2-11.9h-1.7c-1.7 0-1.7 0-1.7-1.7s0-3.4 1.7-5.1c3.4 0 5.1-1.7 5.1-1.7 1.7 0 1.7 1.7 1.7 1.7 0 1.7-1.7 3.4-5.1 6.8m18.7 0h-1.7c-1.7 0-1.7-1.7-3.4-3.4 0 0-1.7-1.7-1.7-3.4s0-1.7 1.7-1.7l3.4 1.7c1.7 1.7 3.4 3.4 3.4 5.1s-1.7 1.7-1.7 1.7m76.2 361.1c6.8 12.7 18.6 19.2 32.2 19.2q5.1 0 10.2-1.5c3.4-.7 6.8-1.9 8.5-3.2 1.7-1.2 3.4-2.4 5.1-3.7 3.4-1.2 3.4-2 5.1-2.9l28.8-24.9c6.8-5.4 13.6-10.1 22-14.2 6.8-4.1 13.6-6.8 17-8.3 5.1-1.4 8.5-3.4 11.9-6.1 1.7-2.5 3.4-5.8 3.4-9.8 0-4.9-3.4-8.6-6.8-11.4-3.4-2.7-6.8-4.6-10.2-5.8s-6.8-3.9-11.9-8.5c-3.4-4.4-6.8-10.5-8.5-18.5l-1.7-9.8c-1.7-4.6-1.7-8-3.4-9.8 0-.5 0-.7-1.7-.7s-5.1 1.5-6.8 4.4c-3.4 2.9-6.8 6.1-10.2 9.5-1.7 3.4-6.8 6.4-10.2 9.3-5.1 2.9-10.2 4.4-13.6 4.4-13.6 0-20.3-3.7-25.4-11-3.4-5.4-5.1-11.7-6.8-18.8-3.4-2.9-5.1-4.4-8.5-4.4-8.5 0-11.9 8.8-11.9 26.6v52.7c0 1.5-1.7 4.9-1.7 10.2-1.7 5.3-1.7 11.2-1.7 18l-3.4 18.8v.2m-245.6-9c15.8 2.3 33.9 7.2 54.4 14.8 20.5 7.5 33.1 11.4 37.6 11.4 11.9 0 21.7-5.3 29.8-15.4 1.7-3.3 1.7-7.2 1.7-11.6 0-16-9.7-36.3-29-60.9L160 401.8c-2.4-3.2-5.3-8.1-9-14.7-3.6-6.6-6.8-11.7-9.3-15.3-2.2-3.9-5.8-7.8-10.3-11.7-4.4-3.9-9.5-6.4-15.1-7.8-7.1 1.4-12 3.7-14.4 7s-3.7 6.8-4.1 10.5c-.5 3.6-1.5 5.9-3.2 7.1-1.7 1-4.6 1.9-8.5 2.7-.8 0-2.4 0-4.6.2H77c-9 0-15.1 1-18.3 2.7-4.2 4.9-6.4 10.5-6.4 16.4 0 2.7.7 7.3 2 13.7 1.4 6.3 2 11.4 2 14.9 0 7-2 13.9-6.3 20.9-4.2 7.3-6.4 12.7-6.4 16.6 1.7 6.5 12.9 11.1 33.4 13.9" style="fill:#f5c021"/></svg>