<?xml version="1.0" encoding="utf-8"?>
<!-- Generator: Adobe Illustrator 28.2.0, SVG Export Plug-In . SVG Version: 6.00 Build 0)  -->
<svg version="1.1" id="Layer_1" xmlns="http://www.w3.org/2000/svg" xmlns:xlink="http://www.w3.org/1999/xlink" x="0px" y="0px"
	 viewBox="0 0 512 512" style="enable-background:new 0 0 512 512;" xml:space="preserve">
<style type="text/css">
	.st0{fill:url(#SVGID_1_);}
	.st1{fill:url(#SVGID_00000155143332862563860440000002846536393802250120_);}
	.st2{fill:url(#SVGID_00000107547974837574287490000007468809362589746053_);}
	.st3{fill:url(#SVGID_00000178163841237847098550000005610216987695755698_);}
	.st4{fill:url(#SVGID_00000145037944174833746660000007998731876505288843_);}
	.st5{fill:url(#SVGID_00000142874070990582227110000010641169897928327311_);}
	.st6{fill:url(#SVGID_00000169556453343971882650000001932165853621257351_);}
	.st7{fill:url(#SVGID_00000111172268765993899820000009385904888673726878_);}
	.st8{fill:url(#SVGID_00000174603560141564104950000010982462734243539385_);}
	.st9{fill:url(#SVGID_00000127739369836114764000000016670761603142489531_);}
	.st10{fill:url(#SVGID_00000070111841065697822820000005062792742606357128_);}
	.st11{fill:url(#SVGID_00000064355888867708888380000015215466566974985919_);}
</style>
<linearGradient id="SVGID_1_" gradientUnits="userSpaceOnUse" x1="234.2326" y1="595.6735" x2="158.0552" y2="508.9659" gradientTransform="matrix(1 0 0 1 0 -277.28)">
	<stop  offset="0" style="stop-color:#7142B7"/>
	<stop  offset="1" style="stop-color:#4179D4"/>
</linearGradient>
<path class="st0" d="M241.2,270.6v15.5c0,7.5-6.1,13.6-13.5,13.6l0,0H175c-7.5,0-13.6-6.1-13.6-13.6l0,0v-52.7
	c0-7.5,6.1-13.6,13.6-13.6h20.9c-0.4,4,0.5,8,2.5,11.5C210.2,247,224.7,260.3,241.2,270.6z"/>
<linearGradient id="SVGID_00000129202501513676883740000015566841138690067135_" gradientUnits="userSpaceOnUse" x1="308.9655" y1="530.0188" x2="232.7798" y2="443.3031" gradientTransform="matrix(1 0 0 1 0 -277.28)">
	<stop  offset="0" style="stop-color:#7142B7"/>
	<stop  offset="1" style="stop-color:#4179D4"/>
</linearGradient>
<path style="fill:url(#SVGID_00000129202501513676883740000015566841138690067135_);" d="M281.1,149.8v52.7
	c0,7.5-6.1,13.6-13.6,13.6l0,0h-26.1c-3.8-2.6-7.5-5.4-11.2-8.4c0.1,0.1,0.2,0.2,0.3,0.3c-1-0.8-2-1.6-2.9-2.5
	c0.5,0.3,0.9,0.7,1.3,1c-8.5-7.4-19.7-5.3-26.6,1.2c-0.7-1.6-1-3.4-1-5.1v-52.7c0-7.5,6.1-13.5,13.6-13.5h52.7
	C275.1,136.2,281.1,142.3,281.1,149.8z"/>
<linearGradient id="SVGID_00000058562888385308507350000016374913242192776883_" gradientUnits="userSpaceOnUse" x1="287.0514" y1="570.138" x2="238.2216" y2="514.5667" gradientTransform="matrix(1 0 0 1 0 -277.28)">
	<stop  offset="0" style="stop-color:#7142B7"/>
	<stop  offset="1" style="stop-color:#4179D4"/>
</linearGradient>
<path style="fill:url(#SVGID_00000058562888385308507350000016374913242192776883_);" d="M250.2,275.9c23.2,12.5,49,19.4,75.3,20.4
	c-2.5,2.2-5.7,3.5-9.1,3.4h-52.6c-7.5,0-13.6-6.1-13.6-13.5l0,0L250.2,275.9z"/>
<linearGradient id="SVGID_00000018233658460531440610000011594570258253249722_" gradientUnits="userSpaceOnUse" x1="296.8318" y1="508.6556" x2="252.334" y2="458.0086" gradientTransform="matrix(1 0 0 1 0 -277.28)">
	<stop  offset="0" style="stop-color:#7142B7"/>
	<stop  offset="1" style="stop-color:#4179D4"/>
</linearGradient>
<path style="fill:url(#SVGID_00000018233658460531440610000011594570258253249722_);" d="M330,233.5v2.6
	c-24.4,4.2-50.5,0.9-75.7-12.4c2.5-2.5,5.9-3.8,9.4-3.8h52.6C323.9,219.9,330,226,330,233.5L330,233.5z"/>
<linearGradient id="SVGID_00000182510104913885877120000004545989083071216259_" gradientUnits="userSpaceOnUse" x1="72.9475" y1="274.0093" x2="55.0348" y2="651.1728" gradientTransform="matrix(1 0 0 1 0 -277.28)">
	<stop  offset="0.43" style="stop-color:#FF4F97"/>
	<stop  offset="0.63" style="stop-color:#D93B92"/>
	<stop  offset="0.99" style="stop-color:#450284"/>
</linearGradient>
<path style="fill:url(#SVGID_00000182510104913885877120000004545989083071216259_);" d="M42.6,180.7c-1.7,10.6-2.6,21.4-2.8,32.1
	c0,3.3,0.1,6.7,0.3,10l0,0c0.3,7.2,1,14.4,2.2,21.5c0,0.1,0,0.1,0,0.2c0.9,6.1,2.1,12.1,3.6,18.1c0.2,0.9,0.4,1.8,0.6,2.7
	c0,0.1,0,0.2,0,0.2c3.1,14.9,4.5,30.2,4.2,45.4c-0.2,11.9-1.5,23.7-3.7,35.4c-1.9,10.1-4.7,20-8.2,29.7
	c-79-117.5-32.1-297,94.7-360.7C82.4,51.6,54.4,110,44.2,170.8C43.6,174.1,43,177.4,42.6,180.7z"/>
<linearGradient id="SVGID_00000165950427895798451140000014044685430934772401_" gradientUnits="userSpaceOnUse" x1="89.5655" y1="302.8307" x2="106.4235" y2="716.8659" gradientTransform="matrix(1 0 0 1 0 -277.28)">
	<stop  offset="0.43" style="stop-color:#FF4F97"/>
	<stop  offset="0.63" style="stop-color:#D93B92"/>
	<stop  offset="0.99" style="stop-color:#450284"/>
</linearGradient>
<path style="fill:url(#SVGID_00000165950427895798451140000014044685430934772401_);" d="M168.9,382c0,30.1-6.6,59.9-19.5,87.2l0,0
	c-0.5,1-0.9,1.9-1.4,2.9c-44.9-20.8-82.8-54.2-109.2-96c3.5-9.7,6.2-19.6,8.2-29.7c2.3-11.7,3.5-23.5,3.7-35.4
	c0.3-15.3-1.1-30.5-4.2-45.4c0-0.1,0-0.2,0-0.2c-0.2-0.9-0.4-1.8-0.6-2.7c-1.5-6-2.7-12-3.6-18.1c0-0.1,0-0.1,0-0.2
	c-1.2-7.1-1.9-14.3-2.2-21.5l0,0c-0.2-3.3-0.3-6.7-0.3-10.1c0.2-10.8,1.1-21.5,2.8-32.1c4.6-29,14.9-57,31.5-81.3
	c13-19.2,42.9,0.2,30,19.9l0,0c-16.4,27.5-24.7,62.4-21.3,96c41.2,28.8,71.2,74.5,81.7,124.3h0.1C167.5,353.6,169,367.8,168.9,382z"
	/>
<linearGradient id="SVGID_00000109728083334932738330000009749310576440604835_" gradientUnits="userSpaceOnUse" x1="579.0079" y1="499.3451" x2="215.8306" y2="758.5107" gradientTransform="matrix(1 0 0 1 0 -277.28)">
	<stop  offset="0.43" style="stop-color:#FF4F97"/>
	<stop  offset="0.63" style="stop-color:#D93B92"/>
	<stop  offset="0.99" style="stop-color:#450284"/>
</linearGradient>
<path style="fill:url(#SVGID_00000109728083334932738330000009749310576440604835_);" d="M149.4,469.2
	c241.4,47,353.9-259.4,353.7-291.4C559.9,380.3,334,564.6,148,472.1C148.5,471.1,148.9,470.2,149.4,469.2z"/>
<linearGradient id="SVGID_00000061454655302509545060000010451413673848792218_" gradientUnits="userSpaceOnUse" x1="583.2628" y1="424.1273" x2="148.8487" y2="734.9863" gradientTransform="matrix(1 0 0 1 0 -277.28)">
	<stop  offset="0.43" style="stop-color:#FF4F97"/>
	<stop  offset="0.63" style="stop-color:#D93B92"/>
	<stop  offset="0.99" style="stop-color:#450284"/>
</linearGradient>
<path style="fill:url(#SVGID_00000061454655302509545060000010451413673848792218_);" d="M503.1,177.8
	c0.3,32-112.3,338.4-353.7,291.4c18.7-39.2,24.4-86.6,15.1-129.6c1.4,0.8,2.8,1.6,4.2,2.4c0.7,0.4,1.5,0.8,2.2,1.2
	c2.1,1.1,4.2,2.1,6.4,3.1l2.4,1.1C244.5,375,329.4,351,368.8,294c0.3-0.4,0.6-0.8,0.8-1.2l0,0c59.7-11.9,113.6-52.7,132.8-117.5
	C502.6,176.1,502.9,177,503.1,177.8z"/>
<linearGradient id="SVGID_00000011734695025713805990000012431747245267737217_" gradientUnits="userSpaceOnUse" x1="143.8523" y1="614.7487" x2="435.8089" y2="556.0863" gradientTransform="matrix(1 0 0 1 0 -277.28)">
	<stop  offset="0.43" style="stop-color:#FF4F97"/>
	<stop  offset="0.63" style="stop-color:#D93B92"/>
	<stop  offset="0.99" style="stop-color:#450284"/>
</linearGradient>
<path style="fill:url(#SVGID_00000011734695025713805990000012431747245267737217_);" d="M369.6,292.8L369.6,292.8
	c-0.3,0.4-0.6,0.8-0.8,1.2c-39.5,56.9-124.3,81-189.1,53.3l-2.4-1.1c-2.1-1-4.3-2-6.4-3.1c-0.7-0.4-1.5-0.8-2.2-1.2
	c-1.4-0.8-2.8-1.6-4.2-2.4c-3.5-16.1-8.9-31.7-16-46.5C214.9,316.3,301.1,305.8,369.6,292.8z"/>
<linearGradient id="SVGID_00000143615862370735559390000012354070097971929504_" gradientUnits="userSpaceOnUse" x1="557.9788" y1="380.881" x2="215.5374" y2="526.8593" gradientTransform="matrix(1 0 0 1 0 -277.28)">
	<stop  offset="0.43" style="stop-color:#FF4F97"/>
	<stop  offset="0.63" style="stop-color:#D93B92"/>
	<stop  offset="0.99" style="stop-color:#450284"/>
</linearGradient>
<path style="fill:url(#SVGID_00000143615862370735559390000012354070097971929504_);" d="M502.4,175.3
	c-38.8,131.4-221.2,164.7-304,56.2c-10.8-19.5,14.6-39,30.6-25.2c-0.4-0.4-0.9-0.7-1.3-1c1,0.9,2,1.7,2.9,2.5
	c-0.1-0.1-0.2-0.2-0.3-0.3c48.7,40.3,104.9,36.8,146.9,10.2c30.2-19.1,53-50.2,60.2-85.4c0.5-2.5,0.8-5.1,1.1-7.6
	c0.6-4.9,1.1-9.8,1.3-14.6c0.3-20.4-4.8-41.6-16.6-62.3l0,0C461.5,80.5,489.2,125.4,502.4,175.3z"/>
<linearGradient id="SVGID_00000026128476731188784030000003046719678480663959_" gradientUnits="userSpaceOnUse" x1="205.9331" y1="289.7963" x2="545.4703" y2="423.4678" gradientTransform="matrix(1 0 0 1 0 -277.28)">
	<stop  offset="0.43" style="stop-color:#FF4F97"/>
	<stop  offset="0.63" style="stop-color:#D93B92"/>
	<stop  offset="0.99" style="stop-color:#450284"/>
</linearGradient>
<path style="fill:url(#SVGID_00000026128476731188784030000003046719678480663959_);" d="M423.2,47.8
	c-26.4-24.2-88.8-34.3-132.4-24.6c-1.1,0.3-2.2,0.7-3.2,1.4c-14.2,9.3-31.6,12.7-48.3,15.8c-3.5,0.6-6.1,3.7-6.2,7.2
	c-0.2,7.5,3.9,16.2,6.7,22.1c7,13.7,19.7,21.8,34.7,23.7c39.9-60.1,105.1-33,146,9.5c1,1,1.9,2,2.8,3c5.4,5.9,10.5,12.2,15.1,18.8
	h0.1c0.6-4.9,1.1-9.8,1.3-14.6C440.1,89.7,435,68.5,423.2,47.8z M299.3,52c-10.2-0.7-10.2-10.6,0-11.3
	C309.5,41.4,309.5,51.3,299.3,52z M370.4,51c-3.7,1.8-7.6,3-11.7,3.6c-10.1,1.4-0.8-5.3-1.7-11.8s-11.7-10.4-1.6-11.8
	c2.3-0.3,4.6-0.3,6.8-0.1c8.4,0.7,16.7,4.4,17.4,9.5C380.3,44.3,376.1,48.2,370.4,51z"/>
<linearGradient id="SVGID_00000144334000856617329910000005006858724250141616_" gradientUnits="userSpaceOnUse" x1="185.957" y1="313.2334" x2="451.9939" y2="463.3006" gradientTransform="matrix(1 0 0 1 0 -277.28)">
	<stop  offset="0.43" style="stop-color:#FF4F97"/>
	<stop  offset="0.63" style="stop-color:#D93B92"/>
	<stop  offset="0.99" style="stop-color:#450284"/>
</linearGradient>
<path style="fill:url(#SVGID_00000144334000856617329910000005006858724250141616_);" d="M438.5,124.7c-0.3,2.6-0.6,5.1-1.1,7.6
	c-7.2,35.2-30,66.3-60.2,85.4c-4.9-58.5-47.6-108.6-102.7-124.3c39.9-60.1,105.1-33,146,9.5c1,1,1.9,2,2.8,3
	C428.8,111.9,433.9,118.1,438.5,124.7L438.5,124.7z"/>
</svg>
