<?xml version="1.0" encoding="utf-8"?>
<!-- Generator: Adobe Illustrator 28.2.0, SVG Export Plug-In . SVG Version: 6.00 Build 0)  -->
<svg version="1.1" id="Layer_1" xmlns="http://www.w3.org/2000/svg" xmlns:xlink="http://www.w3.org/1999/xlink" x="0px" y="0px"
	 viewBox="0 0 512 512" style="enable-background:new 0 0 512 512;" xml:space="preserve">
<path d="M468.5,419.6c-3.4-3.1-8.5-5.4-11.9-7.1c-5.1-2-8.5-4.6-11.9-7.6c-5.1-3.1-6.8-6.6-8.5-10.3l-1.7-12.5
	c-1.7-8-3.4-13.1-5.1-15.4s-3.4-3.7-6.8-3.7c3.4-11,5.1-22.4,5.1-34.1c0-23.6-5.1-45.6-13.6-62.6c-6.8-18.6-18.6-37.3-33.9-54.2
	c-6.8-10.2-13.6-18.6-18.6-27.1c-5.1-6.8-8.5-13.6-11.9-20.3c-3.4-5.1-5.1-11.9-6.8-18.6c-1.7-8.5-1.7-15.3-3.4-20.3
	c0-5.1-1.7-11.9-1.7-22c-1.7-11.9-1.7-20.3-3.4-28.8c-1.7-13.6-5.1-23.7-8.5-33.9c-5.1-8.5-10.2-17-17-22
	c-5.1-5.1-11.9-8.5-18.6-11.9c-8.5-3.4-15.3-5.1-20.3-5.1C265,0,259.9,0,254.9,0c-13.6,0-25.4,1.7-35.6,5.1c-10.2,3.4-17,10.2-22,17
	c-5.8,6.8-9.7,15.3-11.9,23.7c-2.2,8.5-3.2,17-3.2,28.8c0,15.3,0.8,32.2,2.5,49.2c1.9,17,2.7,27.1,2.7,30.5c0,6.8-1.7,15.3-4.9,22
	s-9,15.3-17.8,25.4L152,217c-10.2,11.9-16.6,23.7-19.3,35.6c-3.4,13.6-6.4,23.7-9.3,30.5c-2.7,6.8-6.4,13.6-11.4,22.7l-5.9,10.7
	c-6.1,11.4-9,20-9,26.1c-0.3,1-0.3,2.7-0.3,4.6c0,2.7,0.7,4.9,2,6.6c-1.2,1.4-2,2.7-2.7,3.9c-0.3,0.8-0.7,1.9-1,2.9
	c-0.3,0.7-0.7,2.2-1.5,4.2c-0.7,2-1.7,4.2-2.9,7c-3.6,2-5.9,2.9-7.5,2.9H63.6c-3.7,0-7.3,2.2-11,6.4c-3.7,4.2-5.4,10.2-5.4,17.6
	c0,2.4,0.7,8,2,16.8c1.4,9,2,14.1,2,15.8s-0.3,3.4-0.7,5.1c-0.3,1.9-1,3.4-1.7,4.9c-0.7,1.7-1.4,3.2-2.4,4.7
	c-0.7,1.7-1.7,3.4-2.9,5.3c-1.2,1.7-2.4,3.6-3.5,5.4c-1.2,3.1-1.7,6-1.7,8.7c0,2.7,1.2,5.1,3.5,7.2c2.5,2.1,5.9,3.9,10.2,5.2
	c4.4,1.6,8.5,2.7,12,3.5c3.9,0.8,8.3,1.6,13.1,2.3c4.9,0.8,8,1.4,9.3,1.7c13.7,3.1,29.5,7.8,47.3,13.9c17.6,6.4,30.7,9.7,39,9.7
	c13.2,0,22.7-5.3,31.2-15.4v0.5c11.9-5.9,28.8-8.9,50.9-8.9l0,0c13.6,0,35.6,1.6,62.7,4.9c5.1,10.3,13.6,17.1,27.1,20.7l11.9,1.4
	c6.8,0,13.6-1.5,18.6-4.6c5.1-2.9,11.9-7.6,18.6-14.2l17-14.4c8.5-7.2,17-13.3,25.4-18.3c10.2-4.8,17-8.2,20.3-9.9
	c5.1-1.5,8.5-3.9,11.9-7.3c3.4-3.1,5.1-7.3,5.1-13.1C473.5,426.5,471.8,423,468.5,419.6z M351.7,240c8.5,1.7,15.3,6.8,22,17
	c6.8,10.2,10.2,22,10.2,39c0,12.2-1.7,26.1-6.8,41.9c1.7,0.3,5.1,0.7,6.8,0.8c1.7,0,1.7,0,3.4,0.3c0,0,1.7,0,3.4,0.2
	c10.2,1.4,18.6,4.6,23.7,9.7c5.1,4.9,6.8,9.3,6.8,13.1c0,1.5,0,2.2-1.7,2.2v0c0,0-1.7-1-1.7-3.2c-1.7-2.2-3.4-4.6-5.1-7.1
	c-1.7-2.7-5.1-5.1-11.9-7.3c-5.1-2.4-13.6-3.6-22-3.6c-5.1,0-8.5,1.5-13.6,4.4c-3.4,2.9-5.1,5.8-8.5,8.6c-1.7,2.9-3.4,4.4-3.4,4.4
	c-1.7,0-1.7-0.8-1.7-2.4c5.1-9.8,11.9-16.1,18.6-18.8c6.8-18,8.5-32,8.5-41.5c0-11.9-1.7-22-6.8-33.9c-5.1-10.2-13.6-17-22-20.3
	C350,241.7,350,241.7,351.7,240z M258.4,81c5.1-3.4,10.2-5.1,15.3-5.1c6.8,0,11.9,1.7,17,6.8c3.4,5.1,5.1,11.9,5.1,22
	c0,8.5-1.7,15.3-3.4,25.4c-3.4-1.7-5.1-3.4-8.5-3.4c-1.7,0-3.4-1.7-3.4-1.7c6.8-1.7,10.2-6.8,10.2-15.3c0-5.1-1.7-8.5-3.4-13.6
	c-3.4-3.4-6.8-6.8-11.9-6.8c-3.4,0-6.8,1.7-10.2,5.1c-3.4,5.1-3.4,8.5-3.4,15.3c0,3.4,0,6.8,1.7,8.5c-1.7,0-3.4-1.7-5.1-1.7
	c-3.4-6.8-5.1-13.6-5.1-22C253.3,89.5,255,86.1,258.4,81z M277.1,99.7c0-1.7-1.7-1.7-1.7-3.4c1.7,0,3.4-1.7,3.4-1.7
	c1.7,0,3.4,1.7,5.1,3.4s1.7,3.4,1.7,5.1s0,3.4,1.7,5.1h-3.4C282.2,103.1,280.5,99.7,277.1,99.7z M272,125.1
	c17,5.1,25.4,10.2,27.1,13.6c1.7,0,1.7,1.7,1.7,3.4c0,5.1-3.4,8.5-6.8,11.9l-15.3,10.2c-17,11.9-30.5,18.6-42.4,18.6
	c-8.5,0-17-3.4-23.7-10.2l-10.2-10.2c-1.7-1.7-3.4-5.1-5.1-8.5c10.2,8.5,22,13.6,33.9,13.6c13.6,0,30.5-6.8,52.6-22
	c0,0,0-1.7-1.7-1.7v-3.4c-22,17-39,23.7-52.6,23.7c-10.2,0-20.3-5.1-30.5-13.6c-1.7-3.4-3.4-5.1-3.4-5.1c0-6.8,6.8-13.6,17-20.3
	c11.9-6.8,20.3-10.2,25.4-10.2C244.9,114.9,256.7,118.3,272,125.1z M207.6,99.7v-3.4c1.7,0,1.7-1.7,1.7-1.7c5.1,0,8.5,5.1,8.5,13.6
	h-3.4c0-3.4-1.7-5.1-1.7-8.5H207.6z M197.4,87.8c1.7-5.1,6.8-8.5,11.9-8.5c6.8,0,10.2,3.4,13.6,8.5c3.4,5.1,3.4,10.2,3.4,15.3
	c0,6.8,0,10.2-1.7,10.2v1.7h-1.7v-3.4c0-5.1-1.7-10.2-3.4-15.3c-3.4-3.4-5.1-5.1-8.5-5.1c-3.4,0-6.8,1.7-8.5,5.1
	c-3.4,3.4-3.4,6.8-3.4,11.9c0,8.5,1.7,13.6,8.5,17c-1.7,1.7-3.4,1.7-5.1,3.4c-6.8-6.8-9.2-13.6-9.2-20.3
	C193.3,99.7,194,94.6,197.4,87.8z M198.9,489.6c-8.1,10.2-18,15.4-29.8,15.4c-4.6,0-17.1-3.9-37.6-11.4
	c-20.5-7.5-38.7-12.5-54.4-14.8v-0.1c-20.5-2.7-31.7-7.3-33.4-13.9c0-3.9,2.2-9.3,6.4-16.6c4.2-7,6.3-13.9,6.3-20.9
	c0-3.6-0.7-8.6-2-14.9c-1.4-6.4-2-11-2-13.7c0-5.9,2.2-11.5,6.4-16.4c3.2-1.7,9.3-2.7,18.3-2.7h4.6c2.2-0.2,3.7-0.2,4.6-0.2
	c3.9-0.8,6.8-1.7,8.5-2.7c1.7-1.2,2.7-3.6,3.2-7.1c0.3-3.7,1.7-7.3,4.1-10.5c2.4-3.2,7.3-5.6,14.4-7c5.6,1.4,10.7,3.9,15.1,7.8
	c4.6,3.9,8.1,7.8,10.3,11.7c2.5,3.6,5.8,8.6,9.3,15.3c3.7,6.6,6.6,11.5,9,14.7l11.5,15.4c19.3,24.6,29,44.8,29,60.9
	C200.6,482.4,200.6,486.3,198.9,489.6z M236.2,456.4c-20.3,0-35.6-4.7-42.7-14.4c-3.6-6.6-5.3-10-5.3-10.2c0-0.8,0.2-1.2,0.5-1.2
	c3.9,0,8.5-2,11.9-6.1c5.1-3.9,6.8-7.5,6.8-11c0-6.8-10.2-18.3-29.3-34.9l-18-11.7c-14.2-10.3-23.2-18.5-27-24.1
	c-3.4-5.8-5.3-12.4-5.3-20c0-10.3,3.7-24.4,10.8-39.7c7.1-17,13.1-28.8,18-33.9l1.7,1.7c1.4,0,2.2,0,2.5,1.7
	c-5.9,6.8-12,17-18.1,32.2c-6.3,15.3-9.3,28.1-9.3,39.8v0c0,9.5,3.7,16.8,11.4,22c-0.7-4.1-1-8.1-1-12c0-19.5,7-43.1,20.7-68.5
	l12.7-25.4c0.3,0,0.8-3.4,1.5-6.8c0.5-5.1,3.1-11.9,7.8-23.7l10.7-20.3c3.4-6.8,5.1-13.6,5.1-18.6l10.2,8.5
	c5.1,6.8,13.6,8.5,23.7,8.5c11.9,0,25.4-5.1,42.4-17l15.3-11.9c3.4,6.8,6.8,15.3,10.2,23.7c5.1,8.5,8.5,17,13.6,25.4
	c0,8.5,1.7,13.6,3.4,20.3c3.4,5.1,5.1,10.2,8.5,15.3l10.2,15.3c3.4,6.8,6.8,15.3,8.5,25.4c3.4,11.9,3.4,24.6,3.4,40
	c0,10.2,0,21.5-1.7,34.6c-3.4-2.5-6.8-3.7-10.2-3.7c-5.1,0-8.5,2.5-11.9,8c-3.4,5.4-5.1,13.7-5.1,24.7v6.3c1.7,2.2,1.7,7.5,1.7,15.9
	C302.3,441.2,273.5,456.4,236.2,456.4z M463.5,442.1c-3.4,2.7-6.8,4.7-11.9,6.1c-3.4,1.5-10.2,4.2-17,8.3c-8.5,4.1-15.3,8.8-22,14.2
	l-28.8,24.9c-1.7,0.8-1.7,1.7-5.1,2.9c-1.7,1.4-3.4,2.5-5.1,3.7c-1.7,1.4-5.1,2.5-8.5,3.2c-3.4,1-6.8,1.5-10.2,1.5
	c-13.6,0-25.4-6.4-32.2-19.2v-0.1v-0.3l3.4-18.8c0-6.7,0-12.7,1.7-18c0-5.3,1.7-8.6,1.7-10.2v-52.7c0-17.8,3.4-26.6,11.9-26.6
	c3.4,0,5.1,1.5,8.5,4.4c1.7,7.1,3.4,13.4,6.8,18.8c5.1,7.3,11.9,11,25.4,11c3.4,0,8.5-1.5,13.6-4.4c3.4-2.9,8.5-5.9,10.2-9.3
	c3.4-3.4,6.8-6.6,10.2-9.5c1.7-2.9,5.1-4.4,6.8-4.4s1.7,0.2,1.7,0.7c1.7,1.9,1.7,5.3,3.4,9.8l1.7,9.8c1.7,8,5.1,14.1,8.5,18.5
	c5.1,4.6,8.5,7.3,11.9,8.5c3.4,1.2,6.8,3.1,10.2,5.8s6.8,6.4,6.8,11.4C466.9,436.3,465.2,439.6,463.5,442.1z M241.5,123.4
	c0,0-1.7-1.7-1.7-3.4s0-1.7,1.7-1.7l3.4,1.7c1.7,1.7,3.4,3.4,3.4,5.1s-1.7,1.7-1.7,1.7h-1.7C243.2,126.8,243.2,125.1,241.5,123.4z
	 M224.5,125.1c0-1.7,0-3.4,1.7-5.1c3.4,0,5.1-1.7,5.1-1.7c1.7,0,1.7,1.7,1.7,1.7c0,1.7-1.7,3.4-5.1,6.8h-1.7
	C224.5,126.8,224.5,126.8,224.5,125.1z"/>
</svg>
