<svg xmlns="http://www.w3.org/2000/svg" xml:space="preserve" viewBox="0 0 512 512"><path d="M468.5 419.6c-3.4-3.1-8.5-5.4-11.9-7.1-5.1-2-8.5-4.6-11.9-7.6-5.1-3.1-6.8-6.6-8.5-10.3l-1.7-12.5c-1.7-8-3.4-13.1-5.1-15.4s-3.4-3.7-6.8-3.7c3.4-11 5.1-22.4 5.1-34.1 0-23.6-5.1-45.6-13.6-62.6-6.8-18.6-18.6-37.3-33.9-54.2-6.8-10.2-13.6-18.6-18.6-27.1-5.1-6.8-8.5-13.6-11.9-20.3-3.4-5.1-5.1-11.9-6.8-18.6-1.7-8.5-1.7-15.3-3.4-20.3 0-5.1-1.7-11.9-1.7-22-1.7-11.9-1.7-20.3-3.4-28.8-1.7-13.6-5.1-23.7-8.5-33.9-5.1-8.5-10.2-17-17-22-5.1-5.1-11.9-8.5-18.6-11.9-8.5-3.4-15.3-5.1-20.3-5.1C265 0 259.9 0 254.9 0c-13.6 0-25.4 1.7-35.6 5.1s-17 10.2-22 17c-5.8 6.8-9.7 15.3-11.9 23.7-2.2 8.5-3.2 17-3.2 28.8 0 15.3.8 32.2 2.5 49.2 1.9 17 2.7 27.1 2.7 30.5 0 6.8-1.7 15.3-4.9 22s-9 15.3-17.8 25.4L152 217c-10.2 11.9-16.6 23.7-19.3 35.6-3.4 13.6-6.4 23.7-9.3 30.5-2.7 6.8-6.4 13.6-11.4 22.7l-5.9 10.7c-6.1 11.4-9 20-9 26.1-.3 1-.3 2.7-.3 4.6 0 2.7.7 4.9 2 6.6-1.2 1.4-2 2.7-2.7 3.9-.3.8-.7 1.9-1 2.9-.3.7-.7 2.2-1.5 4.2-.7 2-1.7 4.2-2.9 7-3.6 2-5.9 2.9-7.5 2.9H63.6c-3.7 0-7.3 2.2-11 6.4s-5.4 10.2-5.4 17.6c0 2.4.7 8 2 16.8 1.4 9 2 14.1 2 15.8s-.3 3.4-.7 5.1c-.3 1.9-1 3.4-1.7 4.9-.7 1.7-1.4 3.2-2.4 4.7-.7 1.7-1.7 3.4-2.9 5.3-1.2 1.7-2.4 3.6-3.5 5.4-1.2 3.1-1.7 6-1.7 8.7s1.2 5.1 3.5 7.2c2.5 2.1 5.9 3.9 10.2 5.2 4.4 1.6 8.5 2.7 12 3.5 3.9.8 8.3 1.6 13.1 2.3 4.9.8 8 1.4 9.3 1.7 13.7 3.1 29.5 7.8 47.3 13.9 17.6 6.4 30.7 9.7 39 9.7 13.2 0 22.7-5.3 31.2-15.4v.5c11.9-5.9 28.8-8.9 50.9-8.9 13.6 0 35.6 1.6 62.7 4.9 5.1 10.3 13.6 17.1 27.1 20.7l11.9 1.4c6.8 0 13.6-1.5 18.6-4.6 5.1-2.9 11.9-7.6 18.6-14.2l17-14.4c8.5-7.2 17-13.3 25.4-18.3 10.2-4.8 17-8.2 20.3-9.9 5.1-1.5 8.5-3.9 11.9-7.3 3.4-3.1 5.1-7.3 5.1-13.1.1-3.8-1.6-7.3-4.9-10.7M351.7 240c8.5 1.7 15.3 6.8 22 17 6.8 10.2 10.2 22 10.2 39 0 12.2-1.7 26.1-6.8 41.9 1.7.3 5.1.7 6.8.8 1.7 0 1.7 0 3.4.3 0 0 1.7 0 3.4.2 10.2 1.4 18.6 4.6 23.7 9.7 5.1 4.9 6.8 9.3 6.8 13.1 0 1.5 0 2.2-1.7 2.2 0 0-1.7-1-1.7-3.2-1.7-2.2-3.4-4.6-5.1-7.1-1.7-2.7-5.1-5.1-11.9-7.3-5.1-2.4-13.6-3.6-22-3.6-5.1 0-8.5 1.5-13.6 4.4-3.4 2.9-5.1 5.8-8.5 8.6-1.7 2.9-3.4 4.4-3.4 4.4-1.7 0-1.7-.8-1.7-2.4 5.1-9.8 11.9-16.1 18.6-18.8 6.8-18 8.5-32 8.5-41.5 0-11.9-1.7-22-6.8-33.9-5.1-10.2-13.6-17-22-20.3.1-1.8.1-1.8 1.8-3.5M258.4 81q7.65-5.1 15.3-5.1c6.8 0 11.9 1.7 17 6.8 3.4 5.1 5.1 11.9 5.1 22 0 8.5-1.7 15.3-3.4 25.4-3.4-1.7-5.1-3.4-8.5-3.4-1.7 0-3.4-1.7-3.4-1.7q10.2-2.55 10.2-15.3c0-5.1-1.7-8.5-3.4-13.6-3.4-3.4-6.8-6.8-11.9-6.8q-5.1 0-10.2 5.1c-3.4 5.1-3.4 8.5-3.4 15.3 0 3.4 0 6.8 1.7 8.5-1.7 0-3.4-1.7-5.1-1.7-3.4-6.8-5.1-13.6-5.1-22 0-5 1.7-8.4 5.1-13.5m18.7 18.7c0-1.7-1.7-1.7-1.7-3.4 1.7 0 3.4-1.7 3.4-1.7 1.7 0 3.4 1.7 5.1 3.4s1.7 3.4 1.7 5.1 0 3.4 1.7 5.1h-3.4c-1.7-5.1-3.4-8.5-6.8-8.5m-5.1 25.4c17 5.1 25.4 10.2 27.1 13.6 1.7 0 1.7 1.7 1.7 3.4 0 5.1-3.4 8.5-6.8 11.9l-15.3 10.2c-17 11.9-30.5 18.6-42.4 18.6-8.5 0-17-3.4-23.7-10.2l-10.2-10.2c-1.7-1.7-3.4-5.1-5.1-8.5 10.2 8.5 22 13.6 33.9 13.6 13.6 0 30.5-6.8 52.6-22 0 0 0-1.7-1.7-1.7v-3.4c-22 17-39 23.7-52.6 23.7-10.2 0-20.3-5.1-30.5-13.6-1.7-3.4-3.4-5.1-3.4-5.1 0-6.8 6.8-13.6 17-20.3 11.9-6.8 20.3-10.2 25.4-10.2 6.9 0 18.7 3.4 34 10.2m-64.4-25.4v-3.4c1.7 0 1.7-1.7 1.7-1.7 5.1 0 8.5 5.1 8.5 13.6h-3.4c0-3.4-1.7-5.1-1.7-8.5zm-10.2-11.9c1.7-5.1 6.8-8.5 11.9-8.5 6.8 0 10.2 3.4 13.6 8.5s3.4 10.2 3.4 15.3c0 6.8 0 10.2-1.7 10.2v1.7h-1.7v-3.4c0-5.1-1.7-10.2-3.4-15.3-3.4-3.4-5.1-5.1-8.5-5.1s-6.8 1.7-8.5 5.1c-3.4 3.4-3.4 6.8-3.4 11.9 0 8.5 1.7 13.6 8.5 17-1.7 1.7-3.4 1.7-5.1 3.4-6.8-6.8-9.2-13.6-9.2-20.3 0-8.6.7-13.7 4.1-20.5m1.5 401.8c-8.1 10.2-18 15.4-29.8 15.4-4.6 0-17.1-3.9-37.6-11.4s-38.7-12.5-54.4-14.8v-.1c-20.5-2.7-31.7-7.3-33.4-13.9 0-3.9 2.2-9.3 6.4-16.6 4.2-7 6.3-13.9 6.3-20.9 0-3.6-.7-8.6-2-14.9-1.4-6.4-2-11-2-13.7 0-5.9 2.2-11.5 6.4-16.4 3.2-1.7 9.3-2.7 18.3-2.7h4.6c2.2-.2 3.7-.2 4.6-.2 3.9-.8 6.8-1.7 8.5-2.7 1.7-1.2 2.7-3.6 3.2-7.1.3-3.7 1.7-7.3 4.1-10.5s7.3-5.6 14.4-7c5.6 1.4 10.7 3.9 15.1 7.8 4.6 3.9 8.1 7.8 10.3 11.7 2.5 3.6 5.8 8.6 9.3 15.3 3.7 6.6 6.6 11.5 9 14.7l11.5 15.4c19.3 24.6 29 44.8 29 60.9-.1 4.5-.1 8.4-1.8 11.7m37.3-33.2c-20.3 0-35.6-4.7-42.7-14.4-3.6-6.6-5.3-10-5.3-10.2 0-.8.2-1.2.5-1.2 3.9 0 8.5-2 11.9-6.1 5.1-3.9 6.8-7.5 6.8-11 0-6.8-10.2-18.3-29.3-34.9l-18-11.7c-14.2-10.3-23.2-18.5-27-24.1-3.4-5.8-5.3-12.4-5.3-20 0-10.3 3.7-24.4 10.8-39.7 7.1-17 13.1-28.8 18-33.9l1.7 1.7c1.4 0 2.2 0 2.5 1.7-5.9 6.8-12 17-18.1 32.2-6.3 15.3-9.3 28.1-9.3 39.8 0 9.5 3.7 16.8 11.4 22-.7-4.1-1-8.1-1-12 0-19.5 7-43.1 20.7-68.5l12.7-25.4c.3 0 .8-3.4 1.5-6.8.5-5.1 3.1-11.9 7.8-23.7l10.7-20.3c3.4-6.8 5.1-13.6 5.1-18.6l10.2 8.5c5.1 6.8 13.6 8.5 23.7 8.5 11.9 0 25.4-5.1 42.4-17l15.3-11.9c3.4 6.8 6.8 15.3 10.2 23.7 5.1 8.5 8.5 17 13.6 25.4 0 8.5 1.7 13.6 3.4 20.3 3.4 5.1 5.1 10.2 8.5 15.3l10.2 15.3c3.4 6.8 6.8 15.3 8.5 25.4 3.4 11.9 3.4 24.6 3.4 40 0 10.2 0 21.5-1.7 34.6-3.4-2.5-6.8-3.7-10.2-3.7-5.1 0-8.5 2.5-11.9 8-3.4 5.4-5.1 13.7-5.1 24.7v6.3c1.7 2.2 1.7 7.5 1.7 15.9-22.2 30.6-51 45.8-88.3 45.8m227.3-14.3c-3.4 2.7-6.8 4.7-11.9 6.1-3.4 1.5-10.2 4.2-17 8.3-8.5 4.1-15.3 8.8-22 14.2l-28.8 24.9c-1.7.8-1.7 1.7-5.1 2.9-1.7 1.4-3.4 2.5-5.1 3.7-1.7 1.4-5.1 2.5-8.5 3.2q-5.1 1.5-10.2 1.5c-13.6 0-25.4-6.4-32.2-19.2v-.4l3.4-18.8c0-6.7 0-12.7 1.7-18 0-5.3 1.7-8.6 1.7-10.2v-52.7c0-17.8 3.4-26.6 11.9-26.6 3.4 0 5.1 1.5 8.5 4.4 1.7 7.1 3.4 13.4 6.8 18.8 5.1 7.3 11.9 11 25.4 11 3.4 0 8.5-1.5 13.6-4.4 3.4-2.9 8.5-5.9 10.2-9.3 3.4-3.4 6.8-6.6 10.2-9.5 1.7-2.9 5.1-4.4 6.8-4.4s1.7.2 1.7.7c1.7 1.9 1.7 5.3 3.4 9.8l1.7 9.8c1.7 8 5.1 14.1 8.5 18.5 5.1 4.6 8.5 7.3 11.9 8.5s6.8 3.1 10.2 5.8 6.8 6.4 6.8 11.4c-.2 4.2-1.9 7.5-3.6 10m-222-318.7s-1.7-1.7-1.7-3.4 0-1.7 1.7-1.7l3.4 1.7c1.7 1.7 3.4 3.4 3.4 5.1s-1.7 1.7-1.7 1.7h-1.7c-1.7 0-1.7-1.7-3.4-3.4m-17 1.7c0-1.7 0-3.4 1.7-5.1 3.4 0 5.1-1.7 5.1-1.7 1.7 0 1.7 1.7 1.7 1.7 0 1.7-1.7 3.4-5.1 6.8h-1.7c-1.7 0-1.7 0-1.7-1.7"/></svg>