<?xml version="1.0" encoding="utf-8"?>
<!-- Generator: Adobe Illustrator 28.2.0, SVG Export Plug-In . SVG Version: 6.00 Build 0)  -->
<svg version="1.1" id="Layer_1" xmlns="http://www.w3.org/2000/svg" xmlns:xlink="http://www.w3.org/1999/xlink" x="0px" y="0px"
	 viewBox="0 0 512 512" style="enable-background:new 0 0 512 512;" xml:space="preserve">
<style type="text/css">
	.st0{opacity:0.933;fill-rule:evenodd;clip-rule:evenodd;enable-background:new    ;}
</style>
<g>
	<path class="st0" d="M248.2,0c26.3,14.6,49.7,33,70.4,55.3C377.2,118.6,413,193.2,425.9,279c-70.8-26.3-131.5-11.9-182.3,43.4
		c-35.5,48-42.1,99.7-19.7,155.3c6,11.6,12.4,23,19.1,34.2c-72.3-9.8-121.7-48.8-148.1-117.1c-6.6-21.4-9.5-43.4-8.6-65.8
		c25.7,2.6,48.5-4.2,68.4-20.4c21.1-19.4,37.2-42.4,48-69.1c21.9-55,35.5-112.1,40.8-171.1C246.1,45.7,247.6,22.9,248.2,0z
		 M199.5,477.8c-52.7-23.8-83-64.6-90.8-122.4c0.1-1.7,0.5-3.2,1.3-4.6c33.3-5.4,60.3-21.4,80.9-48c17.7-23.1,31.3-48.5,40.8-76.3
		c20.2-60.7,32.5-123,36.9-186.9c66.1,55.4,109.1,125.1,129,209.3c-78.7-13.6-140.1,12.8-184.3,79
		C186.4,375.7,181.8,425.7,199.5,477.8z"/>
</g>
</svg>
