<svg xmlns="http://www.w3.org/2000/svg" xml:space="preserve" viewBox="0 0 512 512"><linearGradient id="littlelink-dark_svg__a" x1="110.355" x2="401.646" y1="3.735" y2="508.265" gradientUnits="userSpaceOnUse"><stop offset="0" style="stop-color:#000;stop-opacity:.7"/><stop offset="1" style="stop-color:#000"/></linearGradient><path d="M352.3 0H159.7C71.5 0 0 71.5 0 159.7v192.7C0 440.5 71.5 512 159.7 512h192.7c88.2 0 159.7-71.5 159.7-159.7V159.7C512 71.5 440.5 0 352.3 0M224.6 359.9c-8.7 8.3-22.3 8.3-31 0L121.2 291c-19.5-18.6-19.5-49 0-67.6l118.7-112.8c8.7-8.3 22.3-8.3 31 0 9.3 8.9 9.3 23.7 0 32.6l-15.5 14.7-72.3 68.7-29.3 27.8c-1.5 1.5-1.5 4.1 0 5.5l70.7 67.3c9.4 8.9 9.4 23.8.1 32.7m166.2-71.4c-39.6 37.6-79.1 75.2-118.7 112.8-8.7 8.3-22.3 8.3-31 0-9.3-8.9-9.3-23.7 0-32.6l117-111.3c1.5-1.5 1.5-4.1 0-5.5l-43.4-41.2-11.9-11.3-15.5-14.7c-9.3-8.9-9.3-23.7 0-32.6 8.7-8.3 22.3-8.3 31 0l72.4 68.8c19.6 18.6 19.6 49 .1 67.6" style="fill:url(#littlelink-dark_svg__a)"/></svg>