<svg xmlns="http://www.w3.org/2000/svg" xml:space="preserve" viewBox="0 0 512 512"><path d="M112 0h288c61.9 0 112 50.1 112 112v288c0 61.9-50.1 112-112 112H112C50.1 512 0 461.9 0 400V112C0 50.1 50.1 0 112 0" style="fill:#161846"/><path d="M232 64h160c30.9 0 56 25.1 56 56v80c0 30.9-25.1 56-56 56H232c-30.9 0-56-25.1-56-56v-80c0-30.9 25.1-56 56-56" style="fill:#5c5b9b"/><path d="M280 176H120c-30.9 0-56 25.1-56 56v80c0 30.9 25.1 56 56 56h24l-80 80 176-80h40c30.9 0 56-25.1 56-56v-80c0-30.9-25.1-56-56-56" style="fill:#a39fef"/></svg>