<svg xmlns="http://www.w3.org/2000/svg" xml:space="preserve" viewBox="0 0 512 512"><path d="M0 157.5h31v168.9h50.9v28.2H0zm96.8 0h31v168.9h50.9v28.2H96.8zm96.9 0H241c15.4 0 26.9 4.1 34.6 12.4s11.5 20.4 11.5 36.3v99.6c0 16-3.8 28.1-11.5 36.3s-19.2 12.4-34.6 12.4h-47.3zm46.7 168.9q7.65 0 11.7-4.5c2.7-3 4.1-7.9 4.1-14.6V204.8c0-6.8-1.4-11.6-4.1-14.6q-4.05-4.5-11.7-4.5h-15.8v140.7zm90.9-168.9h41.9l32.1 197h-31l-5.6-39.1v.6h-35.2l-5.6 38.6h-28.7zm33.8 131.7-13.8-97.4h-.6l-13.5 97.4zm55.1-131.7h45.6c15.4 0 26.9 4.1 34.6 12.4s11.5 20.4 11.5 36.3v19.4c0 16-3.8 28.1-11.5 36.3-7.7 8.3-19.2 12.4-34.6 12.4h-14.6v80.2h-31zm45.6 88.6q7.65 0 11.4-4.2c2.5-2.8 3.8-7.6 3.8-14.4v-23.4c0-6.7-1.3-11.5-3.8-14.4s-6.3-4.2-11.4-4.2h-14.6V246h14.6z" style="fill:#212529"/></svg>