<svg xmlns="http://www.w3.org/2000/svg" xml:space="preserve" viewBox="0 0 512 512"><path d="M256.1 118.2c76.2 0 137.8 61.9 137.7 138.3-.1 75.9-61.9 137.4-137.9 137.4-76.2 0-137.8-61.9-137.7-138.3.1-75.9 61.9-137.5 137.9-137.4m-71.6-108c47.5-13.6 94.9-13.5 143.3 0-2.8 13.3-10.5 22.2-22.2 27.9-9.1 4.4-18.6 2.8-28.3 2.6-17-.4-34-.3-51 .9-19.4 1.5-38.1-11.7-41.8-31.4M10.2 327.5C-3.4 280-3.3 232.5 10 185c13.7.4 28.2 14 30.6 29.6 1 6.8-.1 13.9 0 20.8.2 16.6-.3 33.2 1 49.7 1.6 19.8-11.6 38.9-31.4 42.4m491.6-143c13.6 47.5 13.5 95 .2 142.5-13.8-.5-28.2-14-30.6-29.7-1-6.8.1-13.9 0-20.8-.2-16.8.1-33.6-1.1-50.3-1.4-19.3 12-38.3 31.5-41.7M327.7 501.8c-48 13.6-95.5 13.6-143 .1 2.5-18.8 21.6-33.6 40.7-31.4 20.5 2.4 40.9 2.4 61.4-.1 18.8-2.1 36.5 11.7 40.9 31.4m-194.6-470c10.7 16.3 7.8 38.7-7.1 50.7-16.1 13-30.5 27.4-43.5 43.5-12 14.9-32.7 17.6-50.4 7.4 16.4-35.6 58.6-80.2 101-101.6m245.6-.1c37.5 17.9 83.4 63.7 101.3 101-13.2 11.2-37.8 8.7-50.1-6.2-13.4-16.3-28-31.1-44.4-44.4-14.6-11.9-16.9-32.4-6.8-50.4M31.6 379.2c16.1-11.1 39-8.1 51.3 7.2 12.8 15.9 27.1 30.2 43 43 15.2 12.3 18 34 7.1 51.2-43.5-24.3-77.2-58.1-101.4-101.4M379 480.5c-10.8-16.8-8-39 7-51.1 16.1-13 30.5-27.4 43.5-43.5 12.1-14.9 32.8-17.5 51-7-24.1 43.5-57.8 77.2-101.5 101.6"/></svg>