<?xml version="1.0" encoding="utf-8"?>
<!-- Generator: Adobe Illustrator 28.2.0, SVG Export Plug-In . SVG Version: 6.00 Build 0)  -->
<svg version="1.1" id="Layer_1" xmlns="http://www.w3.org/2000/svg" xmlns:xlink="http://www.w3.org/1999/xlink" x="0px" y="0px"
	 viewBox="0 0 512 512" style="enable-background:new 0 0 512 512;" xml:space="preserve">
<style type="text/css">
	.st0{fill:#FFFFFF;}
</style>
<path class="st0" d="M350.3,431V87c0-2.2-0.1-4.4-0.2-6.6l0-0.2c0-0.3,0-0.6-0.1-0.9c0-0.4-0.1-0.7-0.1-1.1
	c-0.1-0.7-0.1-1.4-0.2-2.1c0-0.1,0-0.3,0-0.4c-4.1-37.3-28.2-61.8-55.8-75.7h137.3C475.7,0,512,36.3,512,80.9V431
	c0,44.6-36.3,80.9-80.9,80.9S350.3,475.6,350.3,431z M336.8,161V81c0-0.5-0.1-1-0.1-1.5c0-0.3,0-0.5-0.1-0.8
	c-2.7-28.9-19.4-48.4-38.7-60.8C279.7,6.3,260.8,2,255.3,1c-0.1,0-0.2,0-0.3-0.1c-43.6,0.5-79,36.3-79,80c0,44.1,35.9,80,80,80
	H336.8z M80.9,0C36.3,0,0,36.3,0,81v350.2C0,475.7,36.3,512,80.9,512h137.5c-6.1-3.1-12.5-6.8-18.6-11.4c-0.1-0.1-0.2-0.1-0.3-0.2
	c-0.2-0.1-0.3-0.2-0.5-0.4c-0.5-0.3-0.9-0.7-1.3-1.1c-0.1-0.1-0.1-0.1-0.2-0.2c0,0-0.1,0-0.1-0.1c-0.6-0.5-1.2-0.9-1.7-1.4
	c-0.1-0.1-0.2-0.2-0.3-0.3c-0.6-0.5-1.1-1-1.7-1.5c-0.1-0.1-0.2-0.2-0.3-0.2c-0.6-0.5-1.2-1-1.7-1.6c-0.1,0-0.1-0.1-0.2-0.1
	c-15.1-14-24.7-31.4-28.1-51.2c0,0,0-0.1,0-0.1c-0.1-0.7-0.2-1.4-0.3-2.2c0-0.1,0-0.3-0.1-0.4c-0.1-0.7-0.2-1.4-0.3-2
	c0-0.2,0-0.4-0.1-0.6c-0.1-0.7-0.2-1.3-0.2-2c0-0.2,0-0.4-0.1-0.6c-0.1-0.7-0.1-1.4-0.2-2.1c0-0.1,0-0.3,0-0.4
	c-0.1-0.8-0.1-1.6-0.1-2.3c0,0,0,0,0,0l0,0c-0.1-1.5-0.1-3-0.1-4.6V81C161.7,36.3,125.4,0,80.9,0z M257.1,511.1
	c43.6-0.6,78.9-36.3,78.9-80c0-44.1-35.9-79.9-80-79.9h-80.8v78c0,0.1,0,0.2,0,0.3c0,0.8,0.1,1.5,0.1,2.3c0,0.3,0,0.6,0.1,1
	c0,0.5,0.1,0.9,0.1,1.4c2.9,28.6,19.4,47.9,38.6,60.2c0.2,0.1,0.4,0.2,0.5,0.3c0.1,0.1,0.3,0.2,0.4,0.3
	c17.9,11.1,36.3,15.2,41.7,16.3C256.9,511,257,511,257.1,511.1z"/>
</svg>
