<svg xmlns="http://www.w3.org/2000/svg" xml:space="preserve" viewBox="0 0 512 512"><linearGradient id="logto_svg__a" x1="-75.602" x2="449.951" y1="665.83" y2="450.986" gradientTransform="translate(0 -278)" gradientUnits="userSpaceOnUse"><stop offset="0" style="stop-color:#4b2efb"/><stop offset="1" style="stop-color:#e65ffc"/></linearGradient><path d="M42.7 79.9c0-14.7 0-22.1 2.9-28 2.5-5.2 6.6-9.6 11.6-12.7 5.8-3.5 13.5-4.6 28.8-6.6L305 2.8c19.9-2.7 29.8-4.1 37.5-1.2 6.8 2.5 12.4 7.2 16 13.2 4.1 6.8 4.1 16.4 4.1 35.4v411.7c0 19 0 28.6-4.1 35.4-3.6 6-9.2 10.7-16 13.2-7.7 2.9-17.7 1.5-37.5-1.2L86 479.4c-15.4-2.1-23-3.1-28.8-6.6-5.1-3.1-9.1-7.5-11.6-12.7-2.9-5.9-2.9-13.3-2.9-28zm234.6 138.8c0-4.5 0-6.7.8-8.5.7-1.6 1.7-2.9 3.1-3.7 1.5-1 3.5-1.2 7.5-1.6l17.8-1.8c4.7-.5 7-.7 8.9.2 1.6.8 2.9 2.1 3.7 3.8.9 1.9.9 4.6.9 9.9v78.1c0 5.3 0 7.9-.9 9.9-.8 1.7-2.1 3.1-3.7 3.8-1.8.9-4.2.6-8.9.2l-17.8-1.8c-4-.4-6-.6-7.5-1.6-1.3-.9-2.4-2.2-3.1-3.7-.8-1.8-.8-4-.8-8.5zM422.9 53.3h-28.2v416h28.2c16.3 0 24.4 0 30.6-3.2 5.5-2.8 9.9-7.2 12.7-12.7 3.2-6.2 3.2-14.4 3.2-30.7V99.9c0-16.3 0-24.5-3.2-30.7-2.8-5.5-7.2-9.9-12.7-12.7-6.2-3.2-14.4-3.2-30.6-3.2" style="fill-rule:evenodd;clip-rule:evenodd;fill:url(#logto_svg__a)"/></svg>