<svg xmlns="http://www.w3.org/2000/svg" xml:space="preserve" viewBox="0 0 512 512"><linearGradient id="loki_svg__a" x1="463.364" x2="463.364" y1="1503.207" y2="872.395" gradientTransform="rotate(-8.748 -5497.517 3160.456)" gradientUnits="userSpaceOnUse"><stop offset="0" style="stop-color:#faed1e"/><stop offset="1" style="stop-color:#f15b2b"/></linearGradient><path d="m139.6 464.9-40.8 6.3 6.3 40.8 40.8-6.3z" style="fill:url(#loki_svg__a)"/><linearGradient id="loki_svg__b" x1="727.713" x2="727.713" y1="1503.207" y2="872.395" gradientTransform="rotate(-8.748 -5497.517 3160.456)" gradientUnits="userSpaceOnUse"><stop offset="0" style="stop-color:#faed1e"/><stop offset="1" style="stop-color:#f15b2b"/></linearGradient><path d="M286.9 418.6 467 390.9l-6.3-40.8-180.1 27.7z" style="fill:url(#loki_svg__b)"/><linearGradient id="loki_svg__c" x1="592.596" x2="592.596" y1="1503.207" y2="872.395" gradientTransform="rotate(-8.748 -5497.517 3160.456)" gradientUnits="userSpaceOnUse"><stop offset="0" style="stop-color:#faed1e"/><stop offset="1" style="stop-color:#f15b2b"/></linearGradient><path d="m216.7 387.6 6.3 40.8 40.8-6.2-6.3-40.9z" style="fill:url(#loki_svg__c)"/><linearGradient id="loki_svg__d" x1="527.971" x2="527.971" y1="1503.207" y2="872.395" gradientTransform="rotate(-8.748 -5497.517 3160.456)" gradientUnits="userSpaceOnUse"><stop offset="0" style="stop-color:#faed1e"/><stop offset="1" style="stop-color:#f15b2b"/></linearGradient><path d="m209.8 495.9-6.3-40.8-40.8 6.3 6.2 40.8z" style="fill:url(#loki_svg__d)"/><linearGradient id="loki_svg__e" x1="463.348" x2="463.348" y1="1503.207" y2="872.395" gradientTransform="rotate(-8.748 -5497.517 3160.456)" gradientUnits="userSpaceOnUse"><stop offset="0" style="stop-color:#faed1e"/><stop offset="1" style="stop-color:#f15b2b"/></linearGradient><path d="m95.2 448.1 40.8-6.3-6.2-40.8-40.8 6.3z" style="fill:url(#loki_svg__e)"/><linearGradient id="loki_svg__f" x1="727.719" x2="727.719" y1="1503.207" y2="872.395" gradientTransform="rotate(-8.748 -5497.517 3160.456)" gradientUnits="userSpaceOnUse"><stop offset="0" style="stop-color:#faed1e"/><stop offset="1" style="stop-color:#f15b2b"/></linearGradient><path d="m470.6 414-180.2 27.7 6.3 40.8 180.1-27.7z" style="fill:url(#loki_svg__f)"/><linearGradient id="loki_svg__g" x1="592.62" x2="592.62" y1="1503.207" y2="872.395" gradientTransform="rotate(-8.748 -5497.517 3160.456)" gradientUnits="userSpaceOnUse"><stop offset="0" style="stop-color:#faed1e"/><stop offset="1" style="stop-color:#f15b2b"/></linearGradient><path d="m226.6 451.5 6.2 40.8 40.8-6.2-6.2-40.9z" style="fill:url(#loki_svg__g)"/><linearGradient id="loki_svg__h" x1="527.982" x2="527.982" y1="1503.207" y2="872.395" gradientTransform="rotate(-8.748 -5497.517 3160.456)" gradientUnits="userSpaceOnUse"><stop offset="0" style="stop-color:#faed1e"/><stop offset="1" style="stop-color:#f15b2b"/></linearGradient><path d="m159.1 438.3 40.8-6.3-6.2-40.8-40.9 6.3z" style="fill:url(#loki_svg__h)"/><linearGradient id="loki_svg__i" x1="451.427" x2="451.427" y1="1490.954" y2="892.684" gradientTransform="rotate(-8.748 -5497.517 3160.456)" gradientUnits="userSpaceOnUse"><stop offset="0" style="stop-color:#faed1e"/><stop offset="1" style="stop-color:#f15b2b"/></linearGradient><path d="m85.4 384.2 17.2-2.6L52.4 55l-17.2 2.7z" style="fill:url(#loki_svg__i)"/><linearGradient id="loki_svg__j" x1="475.403" x2="475.403" y1="1507.547" y2="865.212" gradientTransform="rotate(-8.748 -5497.517 3160.456)" gradientUnits="userSpaceOnUse"><stop offset="0" style="stop-color:#faed1e"/><stop offset="1" style="stop-color:#f15b2b"/></linearGradient><path d="m109.1 380.6 17.2-2.7L72.4 27.3 55.2 30z" style="fill:url(#loki_svg__j)"/><linearGradient id="loki_svg__k" x1="516.347" x2="516.347" y1="1522.126" y2="841.07" gradientTransform="rotate(-8.748 -5497.517 3160.456)" gradientUnits="userSpaceOnUse"><stop offset="0" style="stop-color:#faed1e"/><stop offset="1" style="stop-color:#f15b2b"/></linearGradient><path d="m149.6 374.3 17.2-2.6L109.6 0 92.4 2.7z" style="fill:url(#loki_svg__k)"/><linearGradient id="loki_svg__l" x1="540.284" x2="540.284" y1="1499.477" y2="878.573" gradientTransform="rotate(-8.748 -5497.517 3160.456)" gradientUnits="userSpaceOnUse"><stop offset="0" style="stop-color:#faed1e"/><stop offset="1" style="stop-color:#f15b2b"/></linearGradient><path d="m173.2 370.7 17.3-2.7-52.2-338.8-17.2 2.6z" style="fill:url(#loki_svg__l)"/><linearGradient id="loki_svg__m" x1="580.705" x2="580.705" y1="1473.369" y2="921.807" gradientTransform="rotate(-8.748 -5497.517 3160.456)" gradientUnits="userSpaceOnUse"><stop offset="0" style="stop-color:#faed1e"/><stop offset="1" style="stop-color:#f15b2b"/></linearGradient><path d="m213.2 364.6 17.2-2.7-46.3-301-17.2 2.6z" style="fill:url(#loki_svg__m)"/><linearGradient id="loki_svg__n" x1="604.677" x2="604.677" y1="1481.326" y2="908.627" gradientTransform="rotate(-8.748 -5497.517 3160.456)" gradientUnits="userSpaceOnUse"><stop offset="0" style="stop-color:#faed1e"/><stop offset="1" style="stop-color:#f15b2b"/></linearGradient><path d="m236.9 360.9 17.2-2.6L206 45.7l-17.2 2.6z" style="fill:url(#loki_svg__n)"/></svg>