<svg xmlns="http://www.w3.org/2000/svg" xml:space="preserve" viewBox="0 0 512 512"><circle cx="256" cy="256" r="255.8" style="fill:#e73434"/><path d="M511.5 248.5C508.6 387.6 395.1 498.9 256 499 117.7 498.9 4.5 388.9.5 250.7c-.1 1.8-.2 3.5-.3 5.3C.2 397.3 114.7 511.8 256 511.8S511.8 397.3 511.8 256z" style="opacity:.2"/><path d="M511.4 237.9c-.6-8.5-1.6-17-3.1-25.4-1.3-7.6-3.1-15.1-5.1-22.5-27.6-9.8-51.6-15.2-76.3-15.7-12.7-.3-25.5.8-38.9 3.3-16.4-27.4-41-49.4-70.5-62.3 41.7-27.1 85-31.2 131.5-27.2q-4.5-5.4-9.3-10.5c-5.9-6.1-12.2-11.9-18.7-17.4s-13.3-10.7-20.4-15.5c-7-4.8-14.3-9.3-21.8-13.4s-15.2-7.8-23.1-11.1-15.9-6.2-24-8.8c-3-.8-6-1.8-9.1-2.5-28.9 22.8-52.6 49.5-68.5 93.6-33.3.4-64.1 11.5-89.1 29.9-2.8-49.7 15.5-89.3 42.3-127.6-6.6 1.2-13.2 2.8-19.7 4.5q-12.3 3.45-24.3 8.1c-12 4.65-15.8 6.6-23.4 10.4-7.6 3.9-15 8.1-22.2 12.7s-14.1 9.6-20.8 14.9-13.1 10.9-19.2 16.9c-.8.8-1.6 1.7-2.3 2.5 5.3 36.4 16.4 70.2 46.8 106.1-12.5 22.2-19.6 47.8-19.6 75.1 0 5.8.3 11.5 1 17.1-44.4-22.5-69.7-58.1-89.5-100.4-1 2.5-1.7 5.2-2.5 7.8-2.6 8.2-4.7 16.6-6.4 25s-2.9 16.4-3.7 24.9C.5 238.8.1 247.5.1 256c0 6 .2 12.1.6 18.1.6 8.5 1.6 17 3.1 25.4 1.3 7.5 3 15 5 22.4 34.3 13.6 69 20.9 115.3 12.5 16.4 27.4 41 49.4 70.5 62.3-41.7 27.1-84.9 31.3-131.5 27.3 3 3.6 6.1 6.9 9.3 10.3 5.9 6.1 12.2 12 18.7 17.5s13.3 10.7 20.4 15.5c7 4.8 14.3 9.3 21.8 13.4s15.2 7.8 23 11.1c7.9 3.3 15.9 6.3 24.1 8.8 3.1.8 6.2 1.7 9.3 2.5 28.9-22.8 52.5-49.4 68.4-93.6 33.3-.4 64.1-11.5 89-29.9 2.7 49.6-15.4 89.3-42.2 127.5 6.6-1.2 13.1-2.8 19.6-4.5q12.3-3.45 24.3-8.1c12-4.65 15.8-6.6 23.4-10.4 7.6-3.9 15-8.1 22.2-12.7s14.1-9.6 20.8-14.9 13.1-11 19.2-16.9c.8-.8 1.6-1.8 2.4-2.6-5.4-36.4-16.5-70-46.9-106 12.5-22.2 19.6-47.8 19.6-75 0-5.8-.3-11.4-.9-17 44.3 22.5 69.6 58 89.3 100.3.9-2.5 1.8-5.1 2.7-7.6 2.5-8.2 4.6-16.4 6.3-24.8s3-16.8 3.8-25.3c.9-8.5 1.3-17 1.3-25.6 0-6-.2-12.1-.6-18.1m-189.5 29.2-89.4 51.3c-1.8.9-4.2 1.5-6.3 1.5h-12.9V192.1h12.9c2.1 0 4.5.3 6.3 1.5l89.4 51.3c3.9 2.1 6 6.6 6 11.1s-2.1 9-6 11.1" style="fill:#f6f5f4"/></svg>