<?xml version="1.0" encoding="utf-8"?>
<!-- Generator: Adobe Illustrator 28.2.0, SVG Export Plug-In . SVG Version: 6.00 Build 0)  -->
<svg version="1.1" id="Layer_1" xmlns="http://www.w3.org/2000/svg" xmlns:xlink="http://www.w3.org/1999/xlink" x="0px" y="0px"
	 viewBox="0 0 512 512" style="enable-background:new 0 0 512 512;" xml:space="preserve">
<style type="text/css">
	.st0{fill:#FFFFFF;}
</style>
<path class="st0" d="M256,0C114.6,0,0,114.6,0,256s114.6,256,256,256s256-114.6,256-256S397.4,0,256,0z M115.2,343.4V168.5
	c0-23,11.9-43.6,31.8-55.1c10-5.8,20.9-8.6,31.8-8.6s21.9,2.9,31.8,8.6l171.7,99.1c7.3,4.2,11.7,11.8,11.7,20.3
	c0,7.9-3.8,15-10.2,19.4L193.6,142.4c-9.3-5.4-20.5-5.4-29.9,0c-9.4,5.4-14.9,15.1-14.9,25.9v198.3c0,13.6,3.7,26.5,10.9,37.6
	C133.5,395.8,115.2,371.5,115.2,343.4z M402.1,334.2l-151.5,87.5c-19.9,11.5-43.7,11.5-63.6,0c-19.9-11.5-31.8-32.1-31.8-55.1V168.2
	c0-8.5,4.4-16.1,11.7-20.3c3.7-2.1,7.7-3.2,11.7-3.2c3.5,0,6.9,0.8,10.1,2.3v219.8c0,10.8,5.6,20.5,14.9,25.9
	c9.3,5.4,20.5,5.4,29.9,0l171.7-99.2c11.8-6.8,21.1-16.5,27.1-28.2C438.3,292.2,426.4,320.2,402.1,334.2z M402.1,288l-171.7,99.1
	c-7.3,4.2-16.1,4.2-23.5,0c-6.8-3.9-11.1-10.8-11.7-18.5l190.3-109.9c9.4-5.4,14.9-15.1,14.9-25.9c0-10.8-5.6-20.5-14.9-25.9
	l-171.7-99.2c-11.8-6.8-24.8-10-38-9.4c20.3-18.5,50.5-22.2,74.8-8.2l151.5,87.4c19.9,11.5,31.8,32.1,31.8,55.1
	C434,255.9,422.1,276.5,402.1,288z"/>
</svg>
