<svg xmlns="http://www.w3.org/2000/svg" xml:space="preserve" viewBox="0 0 512 512"><path d="M83.2 83.2h326.4v345.6H83.2z" style="fill:#efefef"/><path d="M0 256C0 135.3 0 75 37.5 37.5S135.3 0 256 0s181 0 218.5 37.5S512 135.3 512 256s0 181-37.5 218.5S376.7 512 256 512s-181 0-218.5-37.5S0 376.7 0 256m256 147.2c5.1 0 10-2 13.6-5.6s5.6-8.5 5.6-13.6V251.1l44 44c1.8 1.9 3.9 3.4 6.2 4.4 2.4 1.1 4.9 1.6 7.5 1.7 2.6 0 5.1-.4 7.5-1.4s4.6-2.4 6.4-4.2 3.3-4 4.2-6.4c1-2.4 1.4-5 1.4-7.5 0-2.6-.6-5.1-1.7-7.5s-2.6-4.5-4.4-6.2l-76.8-76.8c-3.6-3.6-8.5-5.6-13.6-5.6s-10 2-13.6 5.6L165.6 268c-1.9 1.8-3.4 3.9-4.4 6.2-1 2.4-1.6 4.9-1.7 7.5 0 2.6.4 5.1 1.4 7.5s2.4 4.6 4.2 6.4 4 3.3 6.4 4.2c2.4 1 5 1.4 7.5 1.4 2.6 0 5.1-.6 7.5-1.7 2.4-1 4.5-2.6 6.2-4.4l44-44V384c.1 10.6 8.7 19.2 19.3 19.2m-102.4-256c-5.1 0-10-2-13.6-5.6s-5.6-8.5-5.6-13.6 2-10 5.6-13.6 8.5-5.6 13.6-5.6h204.8c5.1 0 10 2 13.6 5.6s5.6 8.5 5.6 13.6-2 10-5.6 13.6-8.5 5.6-13.6 5.6z" style="fill-rule:evenodd;clip-rule:evenodd;fill:#208df5"/></svg>