<svg xmlns="http://www.w3.org/2000/svg" xml:space="preserve" viewBox="0 0 512 512"><path d="M299.3 195.4c-22.3 49.5-59.4 71.7-89 69.2-27.2 0-56.9-19.8-79.1-32.1l7.4-4.9 49.5 22.3 7.4-7.4L94 197.9l-12.4 9.9L44.5 193v14.8c47 22.3 66.8 32.1 118.7 69.2 49.5 32.1 94 56.9 145.9 71.7 22.3 7.4 49.5 12.4 61.8 17.3l19.8-19.8c-56.9 0-111.3-22.3-136-49.5 34.6-22.3 86.6-24.7 136-19.8l12.4-9.9c-32.1-2.5-71.7-4.9-98.9-4.9 4.9-2.5 7.4-7.4 9.9-9.9 29.7 0 69.2 0 101.4 4.9l12.4-12.4c-32.2-4.9-69.2-4.9-103.9-4.9 2.5-4.9 4.9-7.4 7.4-9.9 27.2 0 74.2 2.5 106.3 4.9l12.4-9.9c-32.1-4.9-81.6-7.4-111.3-7.4 2.5-2.5 4.9-7.4 4.9-9.9 29.7-2.5 84.1 2.5 113.8 7.4l12.4-12.4c-56.9-12.1-131.1-14.6-170.6-7.2M259.7 0C118.7-2.4 2.5 111.3 0 252.3S111.3 509.5 252.3 512 509.5 400.7 512 259.7 400.7 2.5 259.7 0m-4.9 497.1C123.7 494.6 17.4 385.8 17.4 252.3 19.8 118.7 128.6 12.4 259.7 14.9c133.5 2.5 239.9 111.3 237.4 244.8 0 131.1-111.3 239.9-242.3 237.4"/></svg>