<svg xmlns="http://www.w3.org/2000/svg" xml:space="preserve" viewBox="0 0 512 512"><path d="M432.5 373.8c-20.6 30.8-46.8 47.2-76.2 47.2-12.8 0-26.4-3.1-40.2-9.3-14.7-6.5-27.6-18.4-36.4-33.5-8.7-15.1-12.2-31.4-9.7-46.1 3-12.8 9.8-30.3 17.6-50.6 20.4-52.7 48.3-124.9 24.1-160.2-10.1-14.9-28.5-22.1-55.8-22.2-27.4.1-45.7 7.3-55.9 22.2-24.1 35.3 3.8 107.5 24.2 160.3 7.8 20.2 14.6 37.6 17.6 50.7 2.5 14.5-.9 30.8-9.7 45.9-8.7 15.1-21.6 27-36.3 33.5-13.9 6.2-27.4 9.3-40.2 9.3-29.3 0-55.6-16.4-76.1-47.1l-2.4-4.2c9.8 4.9 28.5 13 44.6 13 8 0 15.6-2.4 23.1-7.4 41.4-27.5 27.3-60.6-1-111.8-12-21.7-24.3-44.1-29.8-67.2-5.9-24.8-11.3-61 10.3-88.4 10.2-13 25.7-22.9 45.9-29.5 21-7 48.1-10.7 80.5-11.2h10.5c32.4.5 59.5 4.2 80.5 11.2 20.2 6.7 35.6 16.5 45.8 29.5 21.6 27.3 16.2 63.6 10.3 88.4-5.5 23.1-17.8 45.5-29.8 67.2-28.3 51.2-42.5 84.3-1 111.8 7.5 5 15 7.4 23.1 7.4 16.1 0 34.7-8.1 44.6-13zM256 0C114.6 0 0 114.6 0 256c0 141.3 114.6 256 256 256s256-114.7 256-256C512 114.6 397.4 0 256 0" style="fill:#d41935"/></svg>