<?xml version="1.0" encoding="utf-8"?>
<!-- Generator: Adobe Illustrator 28.2.0, SVG Export Plug-In . SVG Version: 6.00 Build 0)  -->
<svg version="1.1" id="Layer_1" xmlns="http://www.w3.org/2000/svg" xmlns:xlink="http://www.w3.org/1999/xlink" x="0px" y="0px"
	 viewBox="0 0 512 512" style="enable-background:new 0 0 512 512;" xml:space="preserve">
<style type="text/css">
	.st0{fill:#2EA07B;}
	.st1{fill:#4ECCA2;}
</style>
<path class="st0" d="M378.9,123.3C151.6,123.6,70.5,388.7,0,388.7c113.4,0,153.9-135.4,250.1-163.4
	C263.9,166.9,316.3,123.4,378.9,123.3z"/>
<path class="st1" d="M512,256c0,73.3-59.5,132.7-132.8,132.7S246.5,329.3,246.5,256s59.4-132.7,132.7-132.7c5,0,10,0.3,15,0.9
	c-57.1,7.4-97.4,59.7-90.1,116.8s59.7,97.4,116.8,90.1c47-6.1,84-43.1,90.1-90.1C511.7,245.9,512,251,512,256z"/>
</svg>
