<svg xmlns="http://www.w3.org/2000/svg" xml:space="preserve" viewBox="0 0 512 512"><path d="M413.9 379.9c-19.8-2.9-36.1 14-33.2 33.2 1.7 12.2 11.6 22.1 23.9 23.9 19.8 2.9 36.1-14 33.2-33.2-1.2-11.7-11.7-22.1-23.9-23.9m-5.3 40.9c-6.8 0-12.2-5.5-12.2-12.2 0-6.8 5.5-12.2 12.2-12.2 6.8 0 12.2 5.5 12.2 12.2s-5.5 12.2-12.2 12.2M45 335.7c15.7 2.3 29.1-11.1 26.8-26.8-1.7-9.9-9.3-18-19.2-19.2-15.7-2.3-29.1 11.1-26.8 26.8 1.7 9.9 9.3 17.5 19.2 19.2m3.3-31.8c5 0 9.1 4.1 9.1 9.1s-4.1 9.1-9.1 9.1-9.1-4.1-9.1-9.1 4.1-9.1 9.1-9.1m208.5-91.5c-23.9 0-43.6 19.8-43.6 43.6s19.8 43.6 43.6 43.6c23.9 0 43.6-19.8 43.6-43.6s-19.8-43.6-43.6-43.6m-.8 67.5c-13.2 0-23.9-10.7-23.9-23.9s10.7-23.9 23.9-23.9 23.9 10.7 23.9 23.9-10.7 23.9-23.9 23.9m20.6-226.4c2.9 12.8 13.4 23.3 26.2 26.2 25.6 5.8 47.7-16.3 41.9-41.9-2.9-12.8-13.4-23.3-26.2-26.2-25.6-5.8-47.8 16.3-41.9 41.9m33.5-24.3c9.1 0 16.5 7.4 16.5 16.5s-7.4 16.5-16.5 16.5-16.5-7.4-16.5-16.5 7.4-16.5 16.5-16.5m142.2 208.2c33.2-43.6 42.5-82 26.8-109.4-15.7-27.3-54.1-38.4-108.2-31.4-7.6 1.2-15.7 2.3-23.9 4.1-2.3-6.4-4.7-12.8-7-18.6-4.7 3.5-9.9 6.4-15.7 8.1 1.7 4.7 3.5 9.9 5.2 14.5-23.3 5.8-48.3 14.5-72.7 25.6-25-11.1-49.5-19.8-72.7-25.6 17.5-52.9 44.2-87.3 72.7-87.3 4.7 0 9.9 1.2 14.5 2.9 3.5-4.7 7.6-9.3 12.8-12.8-8.7-5.2-18-7.6-27.3-7.6-37.2 0-69.8 39-89.6 100.7-8.1-1.7-16.3-2.9-23.9-4.1-54.1-7-92.5 4.1-108.2 31.4s-6.4 65.7 26.8 109.4c4.7 6.4 9.9 12.2 15.7 18.6-5.8 7-11.1 13.4-16.3 20.4.6 1.7.6 2.3 1.2 4.1 4.1 1.7 8.1 4.1 11.6 7.6 1.2-1.2 1.7-1.7 2.3-2.9 4.1-5.2 8.7-11.1 13.4-16.3 17.5 17.5 36.7 34.3 58.8 50 2.9 27.3 7.6 52.9 14 75.6-7 1.2-14 2.3-20.9 3.5-46 5.8-79.1-2.3-90.8-22.7-4.7-7.6-5.8-17.5-4.7-27.9-6.4 0-12.2-2.3-16.9-5.8-2.9 15.7-1.2 30.3 5.8 42.5 12.8 21.5 40.1 33.2 78.5 33.2 9.3 0 19.2-.6 29.7-1.7 7.6-1.2 15.7-2.3 23.9-4.1C187.5 473 219.5 512 256.8 512c37.2 0 69.2-39 90.8-100.7 7.6 1.7 15.1 2.9 22.7 4.1-.6-1.7-.6-4.1-.6-6.4 0-4.1.6-7.6 1.7-11.1-5.8-1.2-12.2-2.3-18.6-3.5 6.4-22.7 11.1-48.3 14-75.6 21.5-15.7 41.3-32.6 58.2-50 36.7 41.9 53.5 81.5 39 106.5-4.1 6.4-9.9 11.6-17.5 15.7 2.3 5.2 4.1 11.1 4.1 17.5 12.2-5.8 22.1-14 27.9-24.4 18.6-32 .6-79.7-42.5-128 5.8-6.5 11-12.9 16.3-18.7m-306.6 58.2c-16.3-12.8-31.4-26.2-44.8-39.6 13.4-13.4 28.5-26.8 44.8-39.6-.6 12.8-1.2 26.2-1.2 39.6s.6 26.8 1.2 39.6m2.3-102.4c-22.1 15.7-41.9 32.6-58.8 50-4.7-5.2-9.3-11.1-13.4-16.3-28.5-37.2-37.8-69.8-25.6-90.2 9.3-15.7 32-24.4 63.4-24.4 8.7 0 17.5.6 27.3 1.7 7 .6 14 1.7 20.9 3.5-6.3 22.7-10.9 48.3-13.8 75.7m186.2-71.6c4.7 18 8.7 37.2 11.6 58.2-10.5-7.6-21.5-14-33.2-20.9-11.6-6.4-23.3-12.8-34.9-18.6 19.2-8.2 38.4-14 56.5-18.7m-155.4-.6c18.6 4.7 37.2 11.1 56.4 18.6-11.6 5.8-23.3 12.2-34.9 18.6-11.1 7-22.7 14-33.2 20.9 3-20.8 6.5-40 11.7-58.1m-11.6 211.8c10.5 7.6 21.5 14.5 33.2 20.9 11.6 6.4 23.3 12.8 34.9 18.6-19.2 7.6-38.4 14-56.4 18.6-4.7-18-8.8-37.7-11.7-58.1m89.6 161.7c-29.1 0-55.3-34.3-72.7-87.3 23.3-5.8 47.7-14.5 72.7-25.6 25 11.1 49.5 19.8 72.7 25.6-18 53-44.2 87.3-72.7 87.3m77.9-104.1c-18-4.7-37.2-11.1-56.4-18.6 11.6-5.8 23.3-12.2 34.9-18.6 11.1-7 22.7-14 33.2-20.9-2.9 20.9-7 40.6-11.7 58.1m16.3-135c0 18.6-.6 36.1-2.3 53.5-14 9.9-29.1 19.2-44.8 28.5-15.7 8.7-31.4 17.5-47.1 24.4-15.7-7-31.4-15.1-47.1-24.4-15.7-8.7-30.8-18.6-44.8-28.5-1.2-17.5-2.3-35.5-2.3-53.5 0-18.6.6-36.1 2.3-53.5 14-9.9 29.1-19.2 44.8-28.5 15.7-8.7 31.4-17.5 47.1-24.4 15.7 7 31.4 15.1 47.1 24.4s30.8 19.2 44.8 29.1c1.8 17.4 2.9 35.5 2.3 52.9m16.3 40.2c.6-12.8 1.2-26.2 1.2-39.6s-.6-26.8-1.2-39.6c16.9 12.8 32 26.2 44.8 39.6-13.4 13.4-27.9 26.8-44.8 39.6m57-52.4c-16.9-16.9-36.7-33.7-58.8-50-2.9-27.3-7.6-52.9-14-75.6 7-1.7 14-2.9 20.9-3.5 9.9-1.2 19.2-1.7 27.3-1.7 31.4 0 54.1 8.1 63.4 24.4 11.6 20.4 2.3 53.5-25.6 90.2-3.8 5.1-8.5 11-13.2 16.2"/></svg>