<?xml version="1.0" encoding="utf-8"?>
<!-- Generator: Adobe Illustrator 28.2.0, SVG Export Plug-In . SVG Version: 6.00 Build 0)  -->
<svg version="1.1" id="Layer_1" xmlns="http://www.w3.org/2000/svg" xmlns:xlink="http://www.w3.org/1999/xlink" x="0px" y="0px"
	 viewBox="0 0 512 512" style="enable-background:new 0 0 512 512;" xml:space="preserve">
<style type="text/css">
	.st0{fill:#FFFFFF;}
</style>
<path class="st0" d="M413.9,379.9c-19.8-2.9-36.1,14-33.2,33.2c1.7,12.2,11.6,22.1,23.9,23.9c19.8,2.9,36.1-14,33.2-33.2
	C436.6,392.1,426.1,381.7,413.9,379.9z M408.6,420.8c-6.8,0-12.2-5.5-12.2-12.2c0-6.8,5.5-12.2,12.2-12.2c6.8,0,12.2,5.5,12.2,12.2
	C420.8,415.3,415.3,420.8,408.6,420.8z M45,335.7c15.7,2.3,29.1-11.1,26.8-26.8c-1.7-9.9-9.3-18-19.2-19.2
	c-15.7-2.3-29.1,11.1-26.8,26.8C27.5,326.4,35.1,334,45,335.7z M48.3,303.9c5,0,9.1,4.1,9.1,9.1s-4.1,9.1-9.1,9.1
	c-5,0-9.1-4.1-9.1-9.1S43.3,303.9,48.3,303.9z M256.8,212.4c-23.9,0-43.6,19.8-43.6,43.6s19.8,43.6,43.6,43.6
	c23.9,0,43.6-19.8,43.6-43.6S280.6,212.4,256.8,212.4z M256,279.9c-13.2,0-23.9-10.7-23.9-23.9s10.7-23.9,23.9-23.9
	s23.9,10.7,23.9,23.9S269.2,279.9,256,279.9z M276.6,53.5c2.9,12.8,13.4,23.3,26.2,26.2c25.6,5.8,47.7-16.3,41.9-41.9
	c-2.9-12.8-13.4-23.3-26.2-26.2C292.9,5.8,270.7,27.9,276.6,53.5z M310.1,29.2c9.1,0,16.5,7.4,16.5,16.5s-7.4,16.5-16.5,16.5
	c-9.1,0-16.5-7.4-16.5-16.5S301,29.2,310.1,29.2z M452.3,237.4c33.2-43.6,42.5-82,26.8-109.4c-15.7-27.3-54.1-38.4-108.2-31.4
	c-7.6,1.2-15.7,2.3-23.9,4.1c-2.3-6.4-4.7-12.8-7-18.6c-4.7,3.5-9.9,6.4-15.7,8.1c1.7,4.7,3.5,9.9,5.2,14.5
	c-23.3,5.8-48.3,14.5-72.7,25.6c-25-11.1-49.5-19.8-72.7-25.6c17.5-52.9,44.2-87.3,72.7-87.3c4.7,0,9.9,1.2,14.5,2.9
	c3.5-4.7,7.6-9.3,12.8-12.8c-8.7-5.2-18-7.6-27.3-7.6c-37.2,0-69.8,39-89.6,100.7c-8.1-1.7-16.3-2.9-23.9-4.1
	c-54.1-7-92.5,4.1-108.2,31.4c-15.7,27.3-6.4,65.7,26.8,109.4c4.7,6.4,9.9,12.2,15.7,18.6c-5.8,7-11.1,13.4-16.3,20.4
	c0.6,1.7,0.6,2.3,1.2,4.1c4.1,1.7,8.1,4.1,11.6,7.6c1.2-1.2,1.7-1.7,2.3-2.9c4.1-5.2,8.7-11.1,13.4-16.3
	c17.5,17.5,36.7,34.3,58.8,50c2.9,27.3,7.6,52.9,14,75.6c-7,1.2-14,2.3-20.9,3.5c-46,5.8-79.1-2.3-90.8-22.7
	c-4.7-7.6-5.8-17.5-4.7-27.9c-6.4,0-12.2-2.3-16.9-5.8c-2.9,15.7-1.2,30.3,5.8,42.5c12.8,21.5,40.1,33.2,78.5,33.2
	c9.3,0,19.2-0.6,29.7-1.7c7.6-1.2,15.7-2.3,23.9-4.1C187.5,473,219.5,512,256.8,512c37.2,0,69.2-39,90.8-100.7
	c7.6,1.7,15.1,2.9,22.7,4.1c-0.6-1.7-0.6-4.1-0.6-6.4c0-4.1,0.6-7.6,1.7-11.1c-5.8-1.2-12.2-2.3-18.6-3.5
	c6.4-22.7,11.1-48.3,14-75.6c21.5-15.7,41.3-32.6,58.2-50c36.7,41.9,53.5,81.5,39,106.5c-4.1,6.4-9.9,11.6-17.5,15.7
	c2.3,5.2,4.1,11.1,4.1,17.5c12.2-5.8,22.1-14,27.9-24.4c18.6-32,0.6-79.7-42.5-128C441.8,249.6,447,243.2,452.3,237.4z M145.7,295.6
	c-16.3-12.8-31.4-26.2-44.8-39.6c13.4-13.4,28.5-26.8,44.8-39.6c-0.6,12.8-1.2,26.2-1.2,39.6S145.1,282.8,145.7,295.6z M148,193.2
	c-22.1,15.7-41.9,32.6-58.8,50c-4.7-5.2-9.3-11.1-13.4-16.3c-28.5-37.2-37.8-69.8-25.6-90.2c9.3-15.7,32-24.4,63.4-24.4
	c8.7,0,17.5,0.6,27.3,1.7c7,0.6,14,1.7,20.9,3.5C155.5,140.2,150.9,165.8,148,193.2z M334.2,121.6c4.7,18,8.7,37.2,11.6,58.2
	c-10.5-7.6-21.5-14-33.2-20.9c-11.6-6.4-23.3-12.8-34.9-18.6C296.9,132.1,316.1,126.3,334.2,121.6z M178.8,121
	c18.6,4.7,37.2,11.1,56.4,18.6c-11.6,5.8-23.3,12.2-34.9,18.6c-11.1,7-22.7,14-33.2,20.9C170.1,158.3,173.6,139.1,178.8,121z
	 M167.2,332.8c10.5,7.6,21.5,14.5,33.2,20.9c11.6,6.4,23.3,12.8,34.9,18.6c-19.2,7.6-38.4,14-56.4,18.6
	C174.2,372.9,170.1,353.2,167.2,332.8z M256.8,494.5c-29.1,0-55.3-34.3-72.7-87.3c23.3-5.8,47.7-14.5,72.7-25.6
	c25,11.1,49.5,19.8,72.7,25.6C311.5,460.2,285.3,494.5,256.8,494.5z M334.7,390.4c-18-4.7-37.2-11.1-56.4-18.6
	c11.6-5.8,23.3-12.2,34.9-18.6c11.1-7,22.7-14,33.2-20.9C343.5,353.2,339.4,372.9,334.7,390.4z M351,255.4c0,18.6-0.6,36.1-2.3,53.5
	c-14,9.9-29.1,19.2-44.8,28.5c-15.7,8.7-31.4,17.5-47.1,24.4c-15.7-7-31.4-15.1-47.1-24.4c-15.7-8.7-30.8-18.6-44.8-28.5
	c-1.2-17.5-2.3-35.5-2.3-53.5c0-18.6,0.6-36.1,2.3-53.5c14-9.9,29.1-19.2,44.8-28.5c15.7-8.7,31.4-17.5,47.1-24.4
	c15.7,7,31.4,15.1,47.1,24.4s30.8,19.2,44.8,29.1C350.5,219.9,351.6,238,351,255.4z M367.3,295.6c0.6-12.8,1.2-26.2,1.2-39.6
	s-0.6-26.8-1.2-39.6c16.9,12.8,32,26.2,44.8,39.6C398.7,269.4,384.2,282.8,367.3,295.6z M424.3,243.2c-16.9-16.9-36.7-33.7-58.8-50
	c-2.9-27.3-7.6-52.9-14-75.6c7-1.7,14-2.9,20.9-3.5c9.9-1.2,19.2-1.7,27.3-1.7c31.4,0,54.1,8.1,63.4,24.4
	c11.6,20.4,2.3,53.5-25.6,90.2C433.7,232.1,429,238,424.3,243.2z"/>
</svg>
