<svg xmlns="http://www.w3.org/2000/svg" xml:space="preserve" viewBox="0 0 512 512"><path d="M276.6 53.5c-5.8-25.6 16.3-47.7 41.9-41.9 12.8 2.9 23.3 13.4 26.2 26.2 5.8 25.6-16.3 47.7-41.9 41.9-12.9-2.9-23.3-13.4-26.2-26.2m137.3 326.4c-19.8-2.9-36.1 14-33.2 33.2 1.7 12.2 11.6 22.1 23.9 23.9 19.8 2.9 36.1-14 33.2-33.2-1.2-11.7-11.7-22.1-23.9-23.9M256.8 212.4c-23.9 0-43.6 19.8-43.6 43.6s19.8 43.6 43.6 43.6c23.9 0 43.6-19.8 43.6-43.6s-19.8-43.6-43.6-43.6M436 256c43.1 48.3 61.1 96 42.5 128-5.8 10.5-15.7 18.6-27.9 24.4 0-6.4-1.7-12.2-4.1-17.5 7.6-4.1 13.4-9.3 17.5-15.7 14.5-25-2.3-64.6-39-106.5-16.9 17.5-36.7 34.3-58.2 50-2.9 27.3-7.6 52.9-14 75.6 6.4 1.2 12.8 2.3 18.6 3.5-1.2 3.5-1.7 7-1.7 11.1 0 2.3 0 4.7.6 6.4-7.6-1.2-15.1-2.3-22.7-4.1C326 473 294 512 256.8 512s-69.2-39-89.6-100.7c-8.1 1.7-16.3 2.9-23.9 4.1-10.5 1.2-20.4 1.7-29.7 1.7-38.4 0-65.7-11.6-78.5-33.2-7-12.2-8.7-26.8-5.8-42.5 4.7 3.5 10.5 5.8 16.9 5.8-1.2 10.5 0 20.4 4.7 27.9 11.6 20.4 44.8 28.5 90.8 22.7 7-1.2 14-2.3 20.9-3.5-6.4-22.7-11.1-48.3-14-75.6-22.1-15.7-41.3-32.6-58.8-50-4.7 5.2-9.3 11.1-13.4 16.3-.6 1.2-1.2 1.7-2.3 2.9-3.5-3.5-7.6-5.8-11.6-7.6-.6-1.7-.6-2.3-1.2-4.1 5.2-7 10.5-13.4 16.3-20.4-5.8-6.4-11.1-12.2-15.7-18.6-33.2-43.6-42.5-82-26.8-109.4s54.1-38.4 108.2-31.4c7.6 1.2 15.7 2.3 23.9 4.1C187 39 219.5 0 256.8 0c9.3 0 18.6 2.3 27.3 7.6-5.2 3.5-9.3 8.1-12.8 12.8-4.7-1.7-9.9-2.9-14.5-2.9-28.5 0-55.3 34.3-72.7 87.3 23.3 5.8 47.7 14.5 72.7 25.6 24.4-11.1 49.5-19.8 72.7-25.6-1.7-4.7-3.5-9.9-5.2-14.5 5.8-1.7 11.1-4.7 15.7-8.1 2.3 5.8 4.7 12.2 7 18.6 8.1-1.7 16.3-2.9 23.9-4.1 54.1-7 92.5 4.1 108.2 31.4s6.4 65.7-26.8 109.4c-5.3 5.7-10.5 12.1-16.3 18.5m-84.4-138.5c6.4 22.7 11.1 48.3 14 75.6 22.1 16.3 41.9 33.2 58.8 50 4.7-5.2 9.3-11.1 13.4-16.3 27.9-36.7 37.2-69.8 25.6-90.2-9.3-16.3-32-24.4-63.4-24.4-8.1 0-17.5.6-27.3 1.7-7.1.7-14.1 1.9-21.1 3.6m-73.9 22.7c11.6 5.8 23.3 12.2 34.9 18.6 11.6 7 22.7 13.4 33.2 20.9-2.9-20.9-7-40.1-11.6-58.2-18.1 4.8-37.3 10.6-56.5 18.7m71 62.3c-14-9.9-29.1-19.8-44.8-29.1s-31.4-17.5-47.1-24.4c-15.7 7-31.4 15.7-47.1 24.4-15.7 9.3-30.8 18.6-44.8 28.5-1.7 17.5-2.3 34.9-2.3 53.5 0 18 1.2 36.1 2.3 53.5 14 9.9 29.1 19.8 44.8 28.5 15.7 9.3 31.4 17.5 47.1 24.4 15.7-7 31.4-15.7 47.1-24.4 15.7-9.3 30.8-18.6 44.8-28.5 1.7-17.5 2.3-34.9 2.3-53.5.6-17.4-.5-35.5-2.3-52.9M178.8 121c-5.2 18-8.7 37.2-11.6 58.2 10.5-7 22.1-14 33.2-20.9 11.6-6.4 23.3-12.8 34.9-18.6-19.2-7.6-37.9-14-56.5-18.7m-103 105.9c4.1 5.2 8.7 11.1 13.4 16.3 16.9-17.5 36.7-34.3 58.8-50 2.9-27.3 7.6-52.9 14-75.6-7-1.7-14-2.9-20.9-3.5-9.9-1.2-18.6-1.7-27.3-1.7-31.4 0-54.1 8.7-63.4 24.4-12.4 20.3-3.1 52.9 25.4 90.1m69.9 68.7c-.6-12.8-1.2-26.2-1.2-39.6s.6-26.8 1.2-39.6c-16.3 12.8-31.4 26.2-44.8 39.6 13.3 13.4 28.5 26.8 44.8 39.6m33.1 95.4c18-4.7 37.2-11.1 56.4-18.6-11.6-5.8-23.3-12.2-34.9-18.6s-22.7-13.4-33.2-20.9c3 20.3 7.1 40 11.7 58.1m150.7 16.3c-23.3-5.8-47.7-14.5-72.7-25.6-25 11.1-49.5 19.8-72.7 25.6 17.5 52.9 43.6 87.3 72.7 87.3 28.5-.1 54.7-34.4 72.7-87.3m16.9-75.1c-10.5 7-22.1 14-33.2 20.9-11.6 6.4-23.3 12.8-34.9 18.6 19.2 7.6 38.4 14 56.4 18.6 4.7-17.4 8.8-37.1 11.7-58.1m65.7-76.2c-12.8-13.4-27.9-26.8-44.8-39.6.6 12.8 1.2 26.2 1.2 39.6s-.6 26.8-1.2 39.6c16.9-12.8 31.4-26.2 44.8-39.6M45 335.7c15.7 2.3 29.1-11.1 26.8-26.8-1.7-9.9-9.3-18-19.2-19.2-15.7-2.3-29.1 11.1-26.8 26.8 1.7 9.9 9.3 17.5 19.2 19.2" style="fill:#343b3f"/><path d="M232.1 256c0 13.2 10.7 23.9 23.9 23.9s23.9-10.7 23.9-23.9-10.7-23.9-23.9-23.9-23.9 10.7-23.9 23.9m164.2 152.6c0 6.8 5.5 12.2 12.2 12.2s12.2-5.5 12.2-12.2-5.5-12.2-12.2-12.2-12.2 5.4-12.2 12.2M293.7 45.7c0 9.1 7.4 16.5 16.5 16.5s16.5-7.4 16.5-16.5-7.4-16.5-16.5-16.5c-9.2 0-16.5 7.4-16.5 16.5M39.2 313c0 5 4.1 9.1 9.1 9.1s9.1-4.1 9.1-9.1-4.1-9.1-9.1-9.1-9.1 4-9.1 9.1" style="fill:#40bf8e"/></svg>