<svg xmlns="http://www.w3.org/2000/svg" xml:space="preserve" viewBox="0 0 512 512"><path d="M0 81.1h77.7v208.7c0 33 15.1 52.7 27 61.1-12.6 11.2-51.3 21.1-80.1-2.8C7.7 334 0 310.9 0 289.1zm485.9 173.4v-21.9h23.7v-76.9h-26c-10-46.2-51.1-80.8-100.3-80.8-56.7 0-102.6 45.9-102.6 102.6V357c16.1 2.3 35.4-.3 51.7-13.8 17-14.1 24.7-37.2 24.7-59v-6.6H396v-76.9h-38.8v-23.2h.1c0-14.4 11.7-26 26.1-26s26.1 11.7 26.1 26v77.1c0 56.6 46 102.6 102.6 102.6v-76.5c-14.5-.2-26.2-11.8-26.2-26.2m-294.5-98.9v112.9c0 6.4-5.3 11.6-11.9 11.6s-11.9-5.2-11.9-11.6V155.6H90.7v132.8c0 23.9 8.1 54.1 45 63.9s58.3-10.5 58.3-10.5c-2 13.4-14.6 23.3-35 25.4-15.4 1.6-35.1-3.5-45-7.7v70.3c25.1 7.4 51.6 9.8 77.5 4.7 47.1-9.1 76.8-48.5 76.8-100.8V155.6z" style="fill-rule:evenodd;clip-rule:evenodd;fill:#fff"/></svg>