<svg xmlns="http://www.w3.org/2000/svg" xml:space="preserve" viewBox="0 0 512 512"><linearGradient id="lyrion-media-server_svg__a" x1="256" x2="256" y1="3" y2="513" gradientTransform="matrix(1 0 0 -1 0 514)" gradientUnits="userSpaceOnUse"><stop offset="0" style="stop-color:#212121"/><stop offset=".258" style="stop-color:#141414"/><stop offset=".663" style="stop-color:#050505"/><stop offset="1" style="stop-color:#000"/></linearGradient><path d="M405.5 511h-299C47.7 511 0 463.4 0 404.5v-297C0 48.6 47.7 1 106.5 1h299C464.3 1 512 48.6 512 107.5v297.1c0 58.8-47.7 106.4-106.5 106.4" style="fill:url(#lyrion-media-server_svg__a)"/><path d="M55.3 231.2c4 0 7.2 3.2 7.2 7.2v35.3c0 4-3.2 7.2-7.2 7.2s-7.2-3.2-7.2-7.2v-35.3c.1-4 3.3-7.2 7.2-7.2m44.6-54.6c4 0 7.2 3.2 7.2 7.2v144.5c0 4-3.2 7.2-7.2 7.2s-7.2-3.2-7.2-7.2V183.8c.1-4 3.3-7.2 7.2-7.2m44.6-54.6c4 0 7.2 3.2 7.2 7.2v253.7c0 4-3.2 7.2-7.2 7.2s-7.2-3.2-7.2-7.2V129.2c0-4 3.3-7.2 7.2-7.2m133.8-20.6c4 0 7.2 3.2 7.2 7.2v294.8c0 4-3.2 7.2-7.2 7.2s-7.2-3.2-7.2-7.2V108.6c0-4 3.2-7.2 7.2-7.2m-89.2 104.3c4 0 7.2 3.2 7.2 7.2v86.3c0 4-3.2 7.2-7.2 7.2s-7.2-3.2-7.2-7.2v-86.3c0-4 3.2-7.2 7.2-7.2m44.6-29.1c4 0 7.2 3.2 7.2 7.2v144.5c0 4-3.2 7.2-7.2 7.2s-7.2-3.2-7.2-7.2V183.8c0-4 3.2-7.2 7.2-7.2m89.2-29.1c4 0 7.2 3.2 7.2 7.2v202.6c0 4-3.2 7.2-7.2 7.2s-7.2-3.2-7.2-7.2V154.7c0-4 3.2-7.2 7.2-7.2m89.2-6.4c4 0 7.2 3.2 7.2 7.2v215.4c0 4-3.2 7.2-7.2 7.2s-7.2-3.2-7.2-7.2V148.3c0-4 3.2-7.2 7.2-7.2m-44.6 62.1c4 0 7.2 3.2 7.2 7.2v91.3c0 4-3.2 7.2-7.2 7.2s-7.2-3.2-7.2-7.2v-91.3c0-4 3.2-7.2 7.2-7.2m89.2 27.7c4 0 7.2 3.2 7.2 7.2v35.8c0 4-3.2 7.2-7.2 7.2s-7.2-3.2-7.2-7.2v-35.8c0-4 3.2-7.2 7.2-7.2" style="fill:#e4fdc3"/></svg>