<?xml version="1.0" encoding="utf-8"?>
<!-- Generator: Adobe Illustrator 28.2.0, SVG Export Plug-In . SVG Version: 6.00 Build 0)  -->
<svg version="1.1" id="Layer_1" xmlns="http://www.w3.org/2000/svg" xmlns:xlink="http://www.w3.org/1999/xlink" x="0px" y="0px"
	 viewBox="0 0 512 512" style="enable-background:new 0 0 512 512;" xml:space="preserve">
<style type="text/css">
	.st0{fill:url(#SVGID_1_);}
	.st1{fill:#E4FDC3;}
</style>
<linearGradient id="SVGID_1_" gradientUnits="userSpaceOnUse" x1="256" y1="3" x2="256" y2="513" gradientTransform="matrix(1 0 0 -1 0 514)">
	<stop  offset="0" style="stop-color:#212121"/>
	<stop  offset="0.2575" style="stop-color:#141414"/>
	<stop  offset="0.6632" style="stop-color:#050505"/>
	<stop  offset="1" style="stop-color:#000000"/>
</linearGradient>
<path class="st0" d="M405.5,511h-299C47.7,511,0,463.4,0,404.5v-297C0,48.6,47.7,1,106.5,1h299C464.3,1,512,48.6,512,107.5v297.1
	C512,463.4,464.3,511,405.5,511z"/>
<path class="st1" d="M55.3,231.2L55.3,231.2c4,0,7.2,3.2,7.2,7.2v35.3c0,4-3.2,7.2-7.2,7.2l0,0c-4,0-7.2-3.2-7.2-7.2v-35.3
	C48.2,234.4,51.4,231.2,55.3,231.2z M99.9,176.6L99.9,176.6c4,0,7.2,3.2,7.2,7.2v144.5c0,4-3.2,7.2-7.2,7.2l0,0
	c-4,0-7.2-3.2-7.2-7.2V183.8C92.8,179.8,96,176.6,99.9,176.6z M144.5,122L144.5,122c4,0,7.2,3.2,7.2,7.2v253.7c0,4-3.2,7.2-7.2,7.2
	l0,0c-4,0-7.2-3.2-7.2-7.2V129.2C137.3,125.2,140.6,122,144.5,122z M278.3,101.4L278.3,101.4c4,0,7.2,3.2,7.2,7.2v294.8
	c0,4-3.2,7.2-7.2,7.2l0,0c-4,0-7.2-3.2-7.2-7.2V108.6C271.1,104.6,274.3,101.4,278.3,101.4z M189.1,205.7L189.1,205.7
	c4,0,7.2,3.2,7.2,7.2v86.3c0,4-3.2,7.2-7.2,7.2l0,0c-4,0-7.2-3.2-7.2-7.2v-86.3C181.9,208.9,185.1,205.7,189.1,205.7z M233.7,176.6
	L233.7,176.6c4,0,7.2,3.2,7.2,7.2v144.5c0,4-3.2,7.2-7.2,7.2l0,0c-4,0-7.2-3.2-7.2-7.2V183.8C226.5,179.8,229.7,176.6,233.7,176.6z
	 M322.9,147.5L322.9,147.5c4,0,7.2,3.2,7.2,7.2v202.6c0,4-3.2,7.2-7.2,7.2l0,0c-4,0-7.2-3.2-7.2-7.2V154.7
	C315.7,150.7,318.9,147.5,322.9,147.5z M412.1,141.1L412.1,141.1c4,0,7.2,3.2,7.2,7.2v215.4c0,4-3.2,7.2-7.2,7.2l0,0
	c-4,0-7.2-3.2-7.2-7.2V148.3C404.9,144.3,408.1,141.1,412.1,141.1z M367.5,203.2L367.5,203.2c4,0,7.2,3.2,7.2,7.2v91.3
	c0,4-3.2,7.2-7.2,7.2l0,0c-4,0-7.2-3.2-7.2-7.2v-91.3C360.3,206.4,363.5,203.2,367.5,203.2z M456.7,230.9L456.7,230.9
	c4,0,7.2,3.2,7.2,7.2v35.8c0,4-3.2,7.2-7.2,7.2l0,0c-4,0-7.2-3.2-7.2-7.2v-35.8C449.5,234.1,452.7,230.9,456.7,230.9z"/>
</svg>
