<svg xmlns="http://www.w3.org/2000/svg" xml:space="preserve" viewBox="0 0 512 512"><path d="M256 512C114.8 512 0 397.2 0 256S114.8 0 256 0s256 114.8 256 256c0 28.2-6.7 54-18.9 72.8-12.3 18.9-29.4 29.4-48.2 29.4-3.8 0-7.7-.4-11.5-1.3-26.7-6.2-37.6-27.2-31.4-60.8l9.8-42.1c6.2-27.3 3.6-50.7-7.6-69.5-11.6-19.5-30.7-33.1-53.7-38.3-6.4-1.5-13.1-2.2-19.8-2.2-16.9 0-33.7 4.8-47.3 13.4-3.9 2.5-7.8 5.4-11.4 8.7-10.7-9.7-24.1-16.6-38.7-19.9-6.4-1.5-13-2.2-19.5-2.2-16.3 0-32.2 4.7-46 13.4-5.1 3.3-9.9 7.1-14.3 11.5-9.5-9.7-21-16.9-34.2-21.3l-1.2-.4-.8 1.1c-11.9 16.7-19.5 32.9-22 46.9l-.2 1.1 1 .6c9.5 6.3 30.9 24.4 23.8 54.6l-26 112.4h61.7l31.2-134.7c2.1-9.4 6.7-16.7 13.5-21 4.1-2.6 8.9-4 13.8-4 2 0 4.1.2 6.1.7 4.8 1.1 11.3 3.7 15.3 10.4 3.8 6.4 4.6 15.2 2.2 25.5L209.2 364h61.7l31.3-134.7c2.1-9.5 6.7-16.7 13.5-21 4.1-2.6 8.9-4 13.8-4 2 0 4.1.2 6.1.7 4.8 1.1 11.3 3.7 15.3 10.4 3.8 6.4 4.6 15.2 2.2 25.5l-11.8 52.2c-16.5 71.1 24.5 107.7 68.4 118.2 7.8 1.9 15.6 2.8 23.2 2.8 9.4 0 18.5-1.4 27.8-4.3C412.5 473.8 336.3 512 256 512"/></svg>