<svg xmlns="http://www.w3.org/2000/svg" xml:space="preserve" viewBox="0 0 512 512"><path d="M435.4 50.2c1.5.3 3 .8 4.3 1.3l6.6 1.5c2.2.5 4.4.9 6.6 1.3 2.2.3 4.3.7 6.3 1 2.2.2 4.4.3 6.6.5q1.5.3 3 .3h6.3q1.5 0 3-.3c1.9-.2 3.8-.4 5.8-.8 1.9-.3 3.8-.7 5.8-1 1.9-.5 3.7-1.1 5.6-1.8h.5c1.9-.7 3.6-1.4 5.1-2 1.9-1 3.7-2 5.6-3q2.55-1.5 5.1-3.6h.3c-2.2 3-4.5 5.9-6.9 8.6h-.3c-2.5 2.5-5.2 4.9-7.9 7.1-2.9 1.9-5.7 3.6-8.6 5.3-3.2 1.5-6.4 2.8-9.6 3.8-1.2.3-2.4.8-3.6 1.3-.5.2-1 .3-1.5.5-1.7.3-3.5.7-5.3 1-1.7.5-3.5.9-5.3 1.3-1.7.2-3.5.4-5.3.8-1.2 0-2.5.2-3.8.5q-1.8.3-3.6.3c-1.4 0-2.6.1-3.8.3-1.4.2-2.7.3-4.1.3h-3.8c-1.3 0-2.6.1-3.8.3L373 73.7h-4.1c-1.4.2-2.7.3-4.1.3s-2.8.1-4.3.3c-1.4 0-2.6.1-3.8.3-1.4 0-2.8.1-4.3.3-1.2.2-2.5.3-3.8.5-2 .2-4 .4-5.8.8-2 .2-4.1.4-6.1.8-1.9.5-3.8 1-5.8 1.5-1.9.5-3.7 1-5.6 1.5-1.7.5-3.5 1.1-5.3 1.8-1.9.7-3.7 1.4-5.6 2.3-1.7.7-3.4 1.4-5.1 2.3-1.9 1-3.6 2-5.3 3-1.5.8-3.2 1.9-5.1 3-1.5 1.2-3 2.4-4.6 3.6-3.2 2.5-6.2 5.4-8.9 8.6-1.5 1.5-3 3.1-4.3 4.8-1.5 1.9-2.9 3.7-4.1 5.6-1.4 1.9-2.6 3.9-3.8 6.1q-1.8 3-3.6 6.3c-1.2 2.4-2.3 4.7-3.3 7.1-1 2.5-1.9 5.1-2.8 7.6l-.3.3q-5.1-4.35-9.6-8.4c-4.5-4.05-5.8-5.3-8.4-7.9-2.7-2.7-5.1-5.4-7.1-8.1-2.2-2.5-4.1-5.1-5.8-7.6-1.9-2.7-3.5-5.3-4.8-7.9-1.4-2.5-2.5-5-3.3-7.4-1.2-2.5-2-5-2.5-7.4-.7-2.4-1.1-4.7-1.3-7.1-.3-2.2-.5-4.5-.5-6.9 0-2.2.2-4.4.5-6.6s.8-4.2 1.5-6.1c.7-2 1.4-4.1 2.3-6.1 1-2 2.1-4 3.3-5.8 1-1.7 2.3-3.5 3.8-5.3 2.7-3.4 5.8-6.5 9.4-9.4 1.7-1.4 3.6-2.7 5.6-4.1 1.9-1.4 3.9-2.6 6.1-3.8l6.6-3.3c2.2-1 4.5-1.9 6.9-2.8 2.5-.7 5.1-1.4 7.6-2 2.4-.7 4.8-1.4 7.4-2 2.7-.5 5.3-.9 7.9-1.3 2.7-.2 5.3-.3 7.9-.5h11.4q1.8 0 3 .3c2.4.2 4.8.4 7.4.8 2.4.2 4.8.5 7.4 1 2.2.3 4.6.8 7.1 1.3s5 1 7.4 1.5c1.7.3 3.3.8 4.8 1.3q2.55.75 4.8 1.5c1.7.3 3.3.8 4.8 1.3q2.55.75 4.8 1.5l5.1 1.5c1.7.5 3.2 1 4.6 1.5l42.9 15.2q2.55.75 4.8 1.5c1.5.5 3 1 4.6 1.5 1.5.5 3 .9 4.6 1.3 1.5.7 3 1.2 4.6 1.5 1.5.4 3.1.8 4.6 1.1m-24.1 44.9c2.7 1.2 5.3 2.5 7.9 4.1s5.1 3.2 7.6 5.1c2.2 1.7 4.5 3.6 6.9 5.6 2.2 2 4.2 4.1 6.1 6.3 2 2.2 4 4.5 5.8 6.9 1.7 2.4 3.3 4.9 4.8 7.6 1.5 2.5 2.9 5.2 4.1 8.1 1.4 2.9 2.5 5.8 3.3 8.9 1 3 1.9 6.2 2.5 9.4q1.05 4.8 1.5 9.9c.3 3.4.5 6.9.5 10.4 0 2.5-.1 5.2-.3 7.9 0 2.5-.2 5-.5 7.4s-.8 4.7-1.3 7.1-1 4.7-1.5 7.1c-.7 2.2-1.4 4.4-2 6.6-.7 2.2-1.4 4.3-2.3 6.3-.8 2.2-1.8 4.3-2.8 6.3-.8 2-1.8 4-2.8 5.8-1 2-2 4.1-3 6.1-1.2 1.7-2.4 3.5-3.6 5.3-1.2 1.9-2.4 3.6-3.6 5.3-1.4 1.9-2.6 3.7-3.8 5.6-.8 1-1.7 2.1-2.5 3.3s-1.8 2.3-2.8 3.3c-.8 1.2-1.8 2.4-2.8 3.6-.8 1-1.7 2.1-2.5 3.3-1 1-1.9 2-2.8 3-1 1.2-1.9 2.3-2.8 3.3l-24.9 27.4c-1 1-1.9 2-2.8 3-.7 1-1.4 2-2.3 3-.8 1-1.7 1.9-2.5 2.8-2.4 3.2-4.5 6.3-6.3 9.4-2.2 3-4.1 6.2-5.6 9.4-1 1.5-1.9 3.1-2.5 4.8q-1.05 2.55-1.8 5.1-1.05 2.25-1.5 4.8c-.5 1.9-.9 3.6-1.3 5.3-.2.7-.3 1.4-.3 2.3-.2.8-.3 1.6-.5 2.3 0 .7-.1 1.4-.3 2.3v7.5c0 .8.1 1.7.3 2.5.2 1 .3 1.9.5 2.8.2.8.3 1.7.5 2.5s.3 1.8.5 2.8c.3.7.7 1.5 1 2.5.2.8.5 1.7 1 2.5.3.8.8 1.7 1.3 2.5.3.8.7 1.7 1 2.5q1.5 2.55 3.6 5.1c1.2 1.7 2.6 3.3 4.3 4.8 1.5 1.4 3.3 2.8 5.3 4.3 2 1.4 4.1 2.7 6.3 4.1 2.4 1.2 4.8 2.4 7.4 3.5-1.7-.2-3.4-.3-5.1-.5s-3.3-.4-4.8-.8c-3-.7-5.8-1.5-8.4-2.5-.7-.2-1.3-.3-1.8-.5h-.3c-1.9-1-3.6-2-5.3-3h-.3c-2-1.4-4-2.8-5.8-4.3-1.7-1.7-3.2-3.4-4.6-5.1-1.5-1.9-2.8-3.7-3.8-5.6-1-2.2-1.9-4.3-2.8-6.3-.5-1-.8-2-1-3-.3-1-.7-2.1-1-3.3-.3-1-.6-2-.8-3-.2-1.2-.3-2.3-.5-3.3q-.3-1.8-.3-3.3-.3-1.5-.3-3-.3-1.8-.3-3.3v-3.3c0-.8.1-1.8.3-2.8q.3-1.5.3-3c.2-1.5.3-3.1.5-4.8.3-1.7.7-3.3 1-4.8.3-1.9.7-3.5 1-5.1.5-1.7.9-3.4 1.3-5.1.3-1.2.7-2.4 1-3.5.5-1 .9-2 1.3-3 .3-1.2.8-2.4 1.3-3.6s.9-2.3 1.3-3.3q.45-1.8 1.5-3.6c.5-1 .9-2.1 1.3-3.3.5-1.2 1-2.4 1.5-3.5q.75-1.8 1.8-3.3.75-1.8 1.5-3.3l26.9-52.3q.75-1.8 1.8-3.6.75-1.5 1.5-3.3c.5-1.2 1-2.5 1.5-3.8q.75-1.5 1.5-3.3l1.5-3.6q.75-1.8 1.5-3.3c.3-1.2.7-2.4 1-3.6.5-1.2.9-2.4 1.3-3.6.5-1 .9-2.1 1.3-3.3.3-1.2.7-2.4 1-3.6s.6-2.3.8-3.3c.3-1.4.7-2.6 1-3.8.3-1.7.7-3.4 1-5.1s.6-3.4.8-5.1.3-3.4.5-5.1v-11.4c0-2.2-.2-4.2-.5-6.1 0-2-.2-4.1-.5-6.1-.3-1.9-.7-3.7-1-5.6-.3-2-.8-4-1.3-5.8-.3-1.9-.8-3.6-1.5-5.3-.3-1.9-.9-3.6-1.8-5.3q-.75-2.55-1.8-5.1c-1.4-3.2-2.9-6.3-4.6-9.1-1.9-2.9-3.8-5.6-5.8-8.1q-3-3.75-6.6-6.6c-2.2-2.2-4.7-4.1-7.6-5.6-2.5-1.7-5.3-3-8.4-3.8-2.9-1-5.9-1.8-9.1-2.3-2.4-.3-4.7-.5-7.1-.5l-3 .2c-1.7 0-3.5.2-5.3.5-1.9.2-3.8.5-5.8 1-2.7.5-5.2 1.3-7.6 2.3-2.5.8-4.9 1.9-7.1 3.3-2.2 1-4.2 2.3-6.1 3.8-1.9 1.4-3.6 2.8-5.1 4.3-1.5 1.4-3 3-4.3 4.8q-1.8 2.25-3.3 4.8c-.8 1.9-1.6 3.6-2.3 5.3-.7 1.9-1.1 3.6-1.3 5.3-.3 1.9-.5 3.6-.5 5.3.2 1.7.5 3.4 1 5.1q.45 2.55 1.8 4.8c.7 1.5 1.6 3 2.8 4.3 2.9 3.4 5.2 6.5 6.9 9.4 1.9 3.2 3.1 6.2 3.8 8.9.8 2.7 1.1 5.2.8 7.6q-.3 3.6-1.8 6.6c-.8 1.9-2.1 3.5-3.8 4.8-1.7 1.5-3.6 2.8-5.6 3.8-.5.2-1 .4-1.5.8q-1.05 0-1.8.3t-1.8.3q-.75.3-1.8.3h-2.1c-.5 0-.9-.1-1.3-.3h-1.8c-.5-.2-1.1-.3-1.8-.5-.5-.2-1.1-.4-1.8-.8-.5-.2-1-.3-1.5-.5-.7-.3-1.3-.7-1.8-1-.7-.3-1.3-.7-1.8-1s-1-.8-1.5-1.3c-.7-.3-1.2-.7-1.5-1q-1.05-.75-1.5-1.5-.75-.75-1.5-1.8c-.5-.5-.9-1-1.3-1.5-.5-.7-.9-1.3-1.3-1.8-.5-.7-.9-1.4-1.3-2-.3-.7-.7-1.4-1-2-.3-.8-.6-1.6-.8-2.3-.3-.8-.7-1.7-1-2.5-.2-.8-.4-1.7-.8-2.5 0-1-.2-1.9-.5-2.8-.2-2-.3-4.1-.5-6.1-.2-2.2-.2-4.2 0-6.1 0-2.2.2-4.2.5-6.1 0-2 .3-4 .8-5.8.3-1.7.8-3.5 1.5-5.3.3-1.9.8-3.6 1.5-5.3.8-1.9 1.6-3.6 2.3-5.1 1-1.7 1.9-3.3 2.8-4.8 1.9-3.2 4-6.3 6.3-9.1q3.75-4.35 8.1-8.1c2.9-2.5 5.9-4.8 9.1-6.9q2.25-1.8 4.8-3c1.7-1 3.4-1.9 5.1-2.8 1.9-.8 3.7-1.7 5.6-2.5 1.9-.7 3.7-1.4 5.6-2 1.9-.7 3.8-1.4 5.8-2 2-.5 4-1 5.8-1.5 2-.5 4.1-.9 6.3-1.3 2-.3 4.1-.6 6.1-.8 2-.3 4.1-.5 6.3-.5q3.3-.3 6.3-.3 4.8 0 9.6.3c3 .3 6.2.8 9.4 1.3 3 .7 6.1 1.4 9.1 2 2.9.8 5.7 1.8 8.6 2.8 3.6 1.2 6.4 2.5 9.1 4m-216.4 27.2c6.4 3 13 6.6 19.8 10.7 4.9 2.7 10 5.7 15.2 8.9.3.2.8.4 1.3.8 1.4.8 2.8 1.8 4.3 2.8 3.6 2 7 4.2 10.4 6.6l1.5 1c.7.3 1.3.7 1.8 1l2.8 2c1.9 1.2 3.7 2.5 5.6 4.1q-7.65-1.2-14.7-1.8-4.05-.3-8.1-.3c-1.9-.2-3.8-.3-5.8-.3h-.5c-4.4 0-8.5.2-12.4.5-4.1.3-8 .8-11.9 1.3-3.7.7-7.4 1.4-10.9 2.3-3.6.8-6.9 1.9-10.1 3q-5.1 1.5-9.6 3.6c-3 1.4-5.9 2.9-8.6 4.6-2.7 1.5-5.3 3.1-7.9 4.8-2.5 1.9-4.8 3.8-6.9 5.8q-3.3 3-6.3 6.6c-2 2.2-3.9 4.5-5.6 6.9-1.9 2.2-3.6 4.7-5.1 7.4-1.4 2.5-2.8 5.2-4.3 7.9q-1.8 4.05-3.3 8.4c-1.2 2.9-2.2 5.8-3 8.9s-1.6 6.1-2.3 9.1-1.3 6.2-1.8 9.4-.9 6.4-1.3 9.6c-.3 3.4-.6 6.7-.8 9.9-.2 3.6-.2 6.9 0 10.1v10.4c.3 3.6.7 7.1 1 10.7.3 3.4.8 6.9 1.3 10.4.3 3.6.8 7.1 1.5 10.7s1.4 7 2 10.4c.8 3.5 1.7 7.1 2.5 10.7s1.7 7 2.5 10.4c1 3.6 2.1 7 3.3 10.4 1 3.6 2.1 6.9 3.3 10.1 1.2 3.4 2.5 6.8 3.8 10.1 1.4 3.2 2.7 6.4 4.1 9.6 1.2 3.2 2.5 6.3 4.1 9.4 1.4 3.2 2.9 6.3 4.6 9.4 1.5 2.9 3 5.7 4.6 8.6q2.25 4.35 4.8 8.4c1.5 2.7 3.1 5.3 4.8 7.9 1.7 2.7 3.4 5.2 5.1 7.6s3.5 4.7 5.3 6.9l5.1 6.6c1.7 1.9 3.5 3.7 5.3 5.6 1.7 1.9 3.4 3.6 5.1 5.3 1.9 1.5 3.7 3 5.6 4.3 1.7 1.4 3.5 2.6 5.3 3.8 1.7 1 3.5 2 5.3 3 1.7.8 3.4 1.5 5.1 2s3.5.9 5.3 1.3c1.7.3 3.3.5 4.8.5h6.6c1-.2 2.1-.3 3.3-.5.8 0 1.8-.1 2.8-.3q1.5-.3 3-.3c.8-.2 1.8-.3 2.8-.5.7-.2 1.5-.3 2.5-.5.8-.3 1.7-.6 2.5-.8.8-.3 1.6-.6 2.3-.8 1.4-.3 2.6-.7 3.8-1 1.2-.5 2.3-.9 3.3-1.3q1.8-.75 3.3-1.5c1-.5 1.9-.9 2.8-1.3 1-.7 1.9-1.3 2.8-1.8 1-.5 1.9-1 2.8-1.5.8-.7 1.7-1.3 2.5-1.8.7-.5 1.4-1.1 2.3-1.8.8-.5 1.6-1.1 2.3-1.8s1.4-1.3 2-1.8c.7-.7 1.4-1.3 2-1.8.7-.5 1.4-1.1 2-1.8l8.1-8.1 1.5-1.5 1.3-1.3c.7-.3 1.2-.7 1.5-1 .5-.3 1-.7 1.5-1s.9-.7 1.3-1c.3-.2.8-.4 1.5-.8.3-.2.8-.3 1.3-.5q.45 0 1.5-.3h2.6c.3.2.7.3 1 .3.3.2.7.3 1 .5s.7.3 1 .5c.3.3.7.6 1 .8l1 1c.3.3.6.7.8 1l1 1c.2.5.5.9 1 1.3.3.5.6 1 .8 1.5l7.9 12.9c.3.5.7 1 1 1.5.3.7.8 1.3 1.3 1.8.3.7.8 1.3 1.3 1.8.5.7.9 1.3 1.3 1.8l1.5 1.5c.3.5.8 1.1 1.3 1.8.7.5 1.3.9 1.8 1.3q.75 1.05 1.5 1.5c.7.5 1.4 1 2 1.5v.3c.5.2 1 .5 1.5 1 .7.3 1.4.7 2.3 1 .7.3 1.4.7 2 1s1.4.7 2.3 1c.7.2 1.4.4 2.3.8.7.2 1.4.3 2 .5.7.2 1.4.3 2 .5.7 0 1.4.1 2.3.3.7.2 1.4.3 2.3.3.8.2 1.7.3 2.5.5h5.6c.8-.2 1.7-.3 2.5-.5 1 0 1.9-.1 2.8-.3 1-.2 2-.4 3-.8 1.9-.5 3.9-1.3 6.1-2.3 1.9-.8 3.8-1.9 5.8-3.3.3-.3.7-.6 1-.8 1.5-1.2 3-2.4 4.3-3.6-.3.3-.6.7-.8 1s-.4.6-.8.8c-.5.8-1.1 1.7-1.8 2.5-.5.8-1.2 1.6-2 2.3-.7.8-1.4 1.7-2 2.5l-2.3 2.3c-.7.7-1.4 1.4-2 2.3-1.7 1.4-3.5 2.6-5.3 3.8-1.7 1.4-3.6 2.5-5.6 3.5-2.2 1-4.4 1.9-6.6 2.5-2.4.8-4.8 1.4-7.4 1.8-2.7.5-5.6.8-8.6.8-.7 0-1.4-.1-2.3-.3-.7 0-1.4-.1-2-.3-.7 0-1.4-.1-2-.3-.7-.2-1.4-.3-2-.5-.7-.2-1.4-.4-2-.8-.7-.2-1.3-.4-1.8-.8-.7-.2-1.4-.4-2-.8-.7-.2-1.3-.4-1.8-.8-.5-.3-1.1-.7-1.8-1-.5-.5-1.1-.9-1.8-1.3-.5-.3-1-.7-1.5-1-.7-.3-1.3-.7-1.8-1-.7-.5-1.3-.9-1.8-1.3q-1.05-.75-1.5-1.5l-9.6-7.4c-.5-.5-1-.9-1.5-1.3-.5-.3-1-.7-1.5-1s-1-.8-1.5-1.3c-.5-.3-1-.7-1.5-1-.7-.3-1.2-.6-1.5-.8-.7-.3-1.2-.6-1.5-.8-.7-.3-1.3-.6-1.8-.8s-1-.4-1.5-.8c-.5-.2-1-.3-1.5-.5q-1.05-.3-1.8-.3-1.05-.3-1.5-.3-1.05-.3-1.8-.3-1.05 0-1.8.3-.75 0-1.8.3-.75 0-1.8.3c-.5.2-1 .3-1.5.5s-1.1.3-1.8.5c-.5.3-1 .6-1.5.8s-1.1.4-1.8.8c-.5.3-1 .6-1.5.8-.7.3-1.2.7-1.5 1-.7.3-1.3.7-1.8 1l-14.7 9.1c-.7.3-1.4.8-2 1.3-.7.3-1.4.7-2 1-.8.5-1.6.9-2.3 1.3-.7.3-1.4.7-2.3 1-.7.3-1.4.7-2.3 1-.8.2-1.7.4-2.5.8-.7.5-1.5.8-2.5 1-.8.2-1.6.4-2.3.8-1 .3-1.9.6-2.8.8-1 .2-1.9.3-2.8.5-1 .2-1.9.3-2.8.3-1 .3-2 .5-3 .5q-1.5 0-3 .3h-3.3c-5.6 0-11.2-.3-16.7-.8-5.4-.5-10.7-1.2-16-2-5.2-1.2-10.4-2.5-15.5-3.8-5.2-1.4-10.3-3-15.2-4.8-4.7-1.9-9.4-3.9-14-6.1-4.7-2.2-9.3-4.7-13.7-7.4q-6.9-4.05-12.9-8.4c-4.2-2.9-8.4-6-12.4-9.4-4.1-3.2-8-6.6-11.7-10.1s-7.4-7.3-10.9-11.2c-3.6-3.9-7-7.9-10.4-11.9-3.4-4.1-6.6-8.2-9.6-12.4-3-4.4-6-8.8-8.9-13.2-2.9-4.6-5.6-9.1-8.1-13.7-2.7-4.6-5.2-9.3-7.6-14.2-2.4-4.7-4.7-9.6-6.9-14.5-2-4.7-4-9.6-5.8-14.7-1.9-5.1-3.6-10.1-5.1-15.2-1.7-4.9-3.2-9.9-4.6-15-1.4-5.2-2.6-10.3-3.8-15.2-1-5.1-1.9-10.1-2.8-15.2-1-4.5-1.8-9.5-2.5-14.6-.5-5.1-.8-10.1-1-15-.3-4.9-.5-9.8-.5-14.7 0-4.7.1-9.5.3-14.2.2-4.8.6-9.4 1.3-14 .5-4.6 1.1-9 1.8-13.4.8-4.4 1.9-8.7 3-12.9 1-4.2 2.2-8.3 3.6-12.2q2.1-6.15 4.8-11.7c1.5-3.7 3.3-7.4 5.3-10.9q3-5.1 6.3-9.6c2.2-3.2 4.7-6.3 7.4-9.1 2.5-2.7 5.2-5.3 8.1-7.9 2.9-2.4 5.9-4.7 9.1-6.9 3.2-2 6.6-3.8 10.1-5.3 3.4-1.9 7-3.4 10.9-4.6q5.55-1.8 11.7-3c3.4-.7 6.9-1.1 10.4-1.3 3.4-.3 6.9-.5 10.4-.5h6q7.05.45 15 1.5c5.1.8 10.3 1.9 15.7 3 5.4 1.4 11 3 16.7 4.8 5.7 2 11.7 4.3 17.8 6.9q9.3 3.6 19.2 8.4M369.4 412c1.9.7 3.7 1.6 5.6 2.8 1.5 1.2 3 2.5 4.6 3.8 1.4 1.5 2.6 3.1 3.8 4.8s2.1 3.5 2.8 5.3c.8 1.9 1.4 3.8 1.8 5.8.5 2 .8 4.1.8 6.3 0 2.9-.3 5.7-1 8.4-.8 2.7-1.9 5.2-3.3 7.6q-2.1 3.3-4.8 6.3-3 2.85-6.3 4.8c-2.4 1.4-4.9 2.5-7.6 3.3-2.7.7-5.5 1-8.4 1s-5.7-.3-8.4-1c-2.7-.8-5.2-1.9-7.6-3.3q-3.3-2.1-6.3-4.8-2.85-3-4.8-6.3c-1.4-2.4-2.5-4.9-3.3-7.6-.7-2.7-1-5.5-1-8.4s.3-5.7 1-8.4c.8-2.7 1.9-5.2 3.3-7.6 1.1-1.8 2.4-3.5 3.8-5.2.3-.4.7-.8 1-1.1 1.1-1 2.2-1.9 3.3-2.8 1-.7 2-1.4 3-2 2.4-1.4 4.9-2.5 7.6-3.3 2.7-.7 5.5-1 8.4-1 2.2 0 4.3.3 6.3.8q3.15.6 5.7 1.8M184.2 11.7l.5.8.5 1.5c.2.3.4.8.8 1.5.3.3.7.9 1 1.8.3.5.7 1 1 1.5.5.7.9 1.4 1.3 2.3.3.7.8 1.4 1.5 2 .5.7 1 1.4 1.5 2.3.5.7 1.1 1.4 1.8 2 .5.7 1.1 1.4 1.8 2 1.2 1.4 2.5 2.6 4.1 3.8 1.5 1.2 3 2.1 4.6 2.8-.8 1.5-1.7 3.4-2.5 5.6q-1.05 3-1.8 6.6c-.3 2.5-.5 5.2-.5 7.9-.2 2.9-.1 5.9.3 9.1.2 3 .7 6.3 1.5 9.6.3 1.7.8 3.4 1.3 5.1.5 1.9 1 3.6 1.5 5.3s1.2 3.5 2 5.3c.7 1.7 1.4 3.5 2.3 5.3.8 1.9 1.9 3.6 3 5.3.8 1.9 1.9 3.7 3 5.6 1.2 1.9 2.4 3.6 3.6 5.3 1.4 1.9 2.7 3.7 4.1 5.6 1.5 1.7 3.1 3.5 4.8 5.3q2.25 2.55 5.1 5.1l5.3 5.3c2 1.7 4.1 3.4 6.1 5.1q3.3 2.55 6.9 4.8c2.2 1.7 4.6 3.3 7.1 4.8q-7.65-3.75-14.7-8.1c-4.6-2.7-8.9-5.6-12.9-8.6-4.2-3.2-8.2-6.5-11.9-9.9-3.6-3.2-6.9-6.6-9.9-10.1-3-3.7-5.9-7.4-8.6-10.9q-3.75-5.85-6.9-11.7c-2.2-3.9-4.1-7.9-5.6-12.2-1.7-4.1-3-8.2-3.8-12.4-1-4.2-1.8-8.5-2.3-12.9s-.8-8.8-.8-13.2c0-4.6.3-9.1 1-13.7.7-4.4 1.6-9 2.8-13.7zm73.3 274.7c.3-.2.8-.3 1.3-.3h2c.3 0 .7.1 1 .3h1.5c.7.2 1.3.3 1.8.5.7.2 1.3.3 1.8.5s1.1.4 1.8.8c.5 0 .9.2 1.3.5.5.2.9.3 1.3.5.3.3.8.7 1.3 1 .3.2.7.4 1 .8.2.3.4.7.8 1l1 1 .8.8c.2.3.4.7.8 1 .2.3.3.7.5 1 .2.2.3.4.5.8l.5.8.3.5.3.8.3.5v.3l-1.3.8-3.6.8c-.3.2-.7.3-1 .3-.5 0-.9.1-1.3.3h-4.1c-.5-.2-.9-.3-1.3-.3q-.75 0-1.5-.3c-.3-.2-.8-.3-1.3-.5-.7-.2-1.3-.4-1.8-.8-.5-.3-1-.6-1.5-.8-.7-.3-1.2-.7-1.5-1-.5-.3-1-.7-1.5-1-.3-.3-.7-.6-1-.8-.5-.3-.9-.7-1.3-1-.3-.3-.6-.7-.8-1s-.4-.7-.8-1c0-.3-.1-.7-.3-1s-.3-.7-.3-1q-.3-1.05 0-1.8c.3-.7.8-1.2 1.3-1.5.2-.3.4-.5.8-.5.3-.2.8-.3 1.3-.5.2-.4.6-.5.9-.5m9.4 22.9c.2 0 .5-.1 1-.3.3-.2.7-.3 1-.3s.8-.1 1.3-.3c.3 0 .8-.1 1.3-.3h2.4c.4 0 .7.1 1 .3.2 0 .4.1.8.3h.8c.3.2.7.3 1 .5.2 0 .4.1.8.3l.8.5c.2.2.4.3.8.3l1.3 1 .8.8c.2 0 .3.1.5.3l.3.3-.3.3-.5.5-.8.8-.8.5-.5.3c-.3.2-.6.3-.8.5s-.4.3-.8.5l-.5.5c-.3 0-.7.1-1 .3-.2.2-.4.3-.8.3-.3 0-.7.1-1 .3s-.7.3-1 .3h-3.3c-.5 0-.9-.1-1.3-.3-.3-.2-.7-.3-1-.3s-.7-.1-1-.3-.7-.3-1-.3c-.3-.2-.6-.3-.8-.5s-.4-.3-.8-.5c-.2-.2-.4-.3-.8-.5 0-.2-.1-.3-.3-.5s-.3-.4-.3-.8v-1c0-.3.1-.5.3-.5.2-.3.3-.6.3-.8.2-.2.4-.3.8-.5l.5-.5c.3-.2.7-.3 1-.5 0-.4.3-.6.6-.7m6.4 24.8c.2-.3.3-.6.5-.8v-.8c.3-.3.5-.6.5-.8.3-.3.5-.7.5-1 .3-.2.6-.4.8-.8l.8-.8c.2-.3.4-.6.8-.8.3-.2.6-.3.8-.5l.5-.5c.2-.2.4-.3.8-.5.3 0 .6-.1.8-.3s.4-.3.8-.3c.2 0 .4-.1.8-.3l1.3-.3h.8l.5-.3h1.8v2.5l-.5 2-.5.5c-.2.3-.3.6-.3.8-.2.3-.3.6-.5.8 0 .2-.2.4-.5.8 0 .2-.2.3-.5.5 0 .3-.2.5-.5.5-.3.3-.6.7-.8 1-.2.2-.4.3-.8.5-.3.2-.7.4-1 .8-.2 0-.4.2-.8.5-.3 0-.7.1-1 .3-.2.2-.3.3-.5.3-.3 0-.7.1-1 .3-.2 0-.4.1-.8.3h-.3c-.2 0-.3-.1-.5-.3h-.3l-.5-.3c-.3 0-.5-.1-.5-.3-.3-.3-.5-.7-.5-1v-1.3c-.2.2-.2 0-.2-.4m30.9-55c.3-.2.8-.3 1.3-.3h1.1c.3.2.7.3 1 .3.5.3 1 .7 1.5 1 .3.5.6 1 .8 1.5v2.3c-.2.3-.3.8-.3 1.3-.2.3-.4.8-.8 1.3-.2.3-.3.8-.5 1.3-.3.3-.7.8-1 1.3-.2.5-.4.9-.8 1.3-.3.5-.8.9-1.3 1.3-.3.5-.8 1-1.3 1.5-.3.3-.8.7-1.3 1s-.9.7-1.3 1c-.3.2-.8.4-1.3.8-.3.2-.7.3-1 .5-.5.2-.9.3-1.3.5-.5.2-1 .3-1.5.5-.3 0-.7.1-1 .3-.5 0-.9.1-1.3.3h-1.3l-1 .3h-4.1v-1.5l.5-2.5.5-1c.2-.5.3-.9.3-1.3.2-.3.3-.8.5-1.3.2-.3.3-.7.5-1 .2-.5.3-.9.5-1.3.3-.3.6-.7.8-1 .2-.5.4-.9.8-1.3l1-1 1-1c.5-.3 1-.7 1.5-1l1.3-1.3c.7-.2 1.3-.4 1.8-.8.3-.2.8-.4 1.5-.8.3-.2.8-.3 1.3-.5s1-.3 1.5-.5.9-.2 1.4-.2m-11.4 27.6c.3-.2.6-.3.8-.5s.4-.3.8-.5c.2-.2.4-.3.8-.5.2-.2.4-.3.8-.5.3-.2.7-.3 1-.3.7-.2 1.3-.3 1.8-.5q1.05 0 1.8-.3h2.5c.2 0 .4.1.8.3.8 0 1.6.2 2.3.5s1.1.8 1.3 1.5v1.3c0 .3-.1.6-.3.8s-.3.4-.3.8c-.2 0-.3.2-.5.5-.3.2-.6.3-.8.5l-.8.8c-.2.2-.4.3-.8.5-.3.3-.7.6-1 .8s-.7.3-1 .5-.8.3-1.3.5c-.3.2-.8.3-1.3.3-.2.2-.4.3-.8.3-.3.2-.7.3-1 .3h-2.8c-.3-.2-.7-.3-1-.3l-1.5-.3-.8-.5h-.5c-.3-.3-.7-.5-1-.5l-.8-.3-.3-.3.5-1c.2-.2.3-.4.5-.8l.5-.5.5-.8.5-.5.5-.5c.5-.3.7-.6.9-.8m-3.1 18.3h.8c.3-.2.7-.3 1-.5h1.3l.8-.3h2.3c.2 0 .3.1.5.3h1c.2 0 .4.1.8.3.3.2.6.3.8.3.5.3 1 .6 1.5.8s.9.4 1.3.8c.5.3.9.7 1.3 1 .3.3.6.7.8 1 .5.5.8 1.1 1 1.8q.3 1.05 0 1.8c-.2.3-.4.6-.8.8 0 .2-.2.3-.5.3-.2.2-.3.3-.5.3-.3.2-.6.3-.8.3h-2.6c-.3-.2-.7-.3-1-.5h-1c-.3-.2-.7-.3-1-.5-.3 0-.7-.2-1-.5-.2 0-.4-.1-.8-.3l-.5-.5c-.3-.2-.6-.3-.8-.5s-.4-.3-.8-.5l-.5-.5c-.2-.3-.3-.6-.3-.8l-1-1-.3-.8-.3-.3c-.2-.3-.3-.7-.5-1l-.3-.5c.1-.3.1-.8.1-.8" style="fill-rule:evenodd;clip-rule:evenodd"/></svg>