<?xml version="1.0" encoding="utf-8"?>
<!-- Generator: Adobe Illustrator 28.2.0, SVG Export Plug-In . SVG Version: 6.00 Build 0)  -->
<svg version="1.1"
	 id="layer1" xmlns:svg="http://www.w3.org/2000/svg" xmlns:sodipodi="http://sodipodi.sourceforge.net/DTD/sodipodi-0.dtd" xmlns:inkscape="http://www.inkscape.org/namespaces/inkscape" xmlns:rdf="http://www.w3.org/1999/02/22-rdf-syntax-ns#" xmlns:cc="http://creativecommons.org/ns#" xmlns:dc="http://purl.org/dc/elements/1.1/" inkscape:version="0.91 r13725" sodipodi:docname="cow_mailcow.svg"
	 xmlns="http://www.w3.org/2000/svg" xmlns:xlink="http://www.w3.org/1999/xlink" x="0px" y="0px" viewBox="0 0 512 512"
	 style="enable-background:new 0 0 512 512;" xml:space="preserve">
<path d="M127,373L0.3,478.7c-0.2-1.1-0.3-2.2-0.3-3.4V364.2v-47.1v-76.4h22.8c1.2,8.8,3.2,17.4,5.7,25.9
	C43.5,315.2,80,354.5,127,373z M279.6,280.6c-22.7,38.2-63.6,61.8-107.5,61.8c-34.4,0-66.4-13.8-90.2-39c0-0.5,0-0.9-0.1-1.4
	c0-0.3,0-0.6,0-0.9c0-16.8,10.3-32.8,28.9-45c19.4-12.7,45.2-19.6,72.7-19.6C226.6,236.6,265.6,254.6,279.6,280.6z M142.9,290.4
	c0-8.5-6.9-15.4-15.4-15.4s-15.4,6.9-15.4,15.4s6.9,15.4,15.4,15.4S142.9,298.9,142.9,290.4z M249.1,290.4
	c-0.1-8.5-6.9-15.4-15.4-15.4s-15.4,6.9-15.4,15.4s6.9,15.4,15.4,15.4S249.1,298.9,249.1,290.4z M124.5,184.6
	c6.3,0,11.4-5.3,11.4-11.5c0-6.4-5-11.5-11.4-11.5c-6.3,0-11.4,5.1-11.4,11.5S118.2,184.6,124.5,184.6z M353.5,83.6
	c0,0-3.5,25-27.7,43.7c2.2,3.4,4.3,6.9,6.3,10.4c20.7-13.4,39.7-36.3,35.6-74.7c0,0.1-60.3-24.4-94,14c9.4,5.7,18.2,12.4,26.3,19.9
	C312.5,88,331.9,78.4,353.5,83.6z M254.4,12.3c0,0-14.8,36.2-45.4,42.2c16.4,2,32,6.5,46.5,13C260.1,60.3,276,31.8,254.4,12.3z
	 M427.1,399.9c0,0-0.7-1.4-1.4-3.7c-5.1,4.5-17.8,14-36.9,17c-5.5,0.9-11.5,1.2-18.1,0.7v0V240.7l-0.2,0.2v-0.2h-21.8
	c-3.5,34.7-17.7,67.4-40.8,93.7l-0.1,0.1c-0.3,0.3-1.8,1.9-2.6,2.6c-16.9,16.5-37.2,29.2-59,37.2l82.8,69.6l41.5,35
	c0.2-1.2,0.3-2.4,0.3-3.7v-23v0c2.8-1.1,6.2-2.5,10.1-4.2c7.5-3.2,16.5-7.6,25.6-12.8c0,0,0.1,0,0.1-0.1
	c11.1-6.4,22.4-14.3,30.9-23.3C429.9,406.4,427.1,399.9,427.1,399.9z M52.5,179.3c-0.1-1.9-0.2-3.7-0.2-5.7c0-2.3,0.1-4.5,0.3-6.8
	c1.3-3.5,2.8-7,4.5-10.4c21.8-45.1,65.8-73.1,115-73.1c5.6,0,10.8,0.3,15.6,1c64.1,8,112.5,63.8,112.5,129.8c0,13-1.8,25.7-5.4,37.8
	l0,0c-2.5,8.7-6.1,17.3-10.6,25.6c-14.9-27-54.3-46.4-100.7-46.4c-59,0-106.8,31.2-107.1,69.8c-0.4-0.5-0.9-1-1.3-1.5
	c-1.2-3.9-2.1-7.9-2.7-12c-0.1-0.6-0.2-1.1-0.3-1.7c-7.5-33.2-12.5-57.1-18.4-91.2C53.1,189.7,52.7,184.7,52.5,179.3z M232.7,173
	c0,9.5,7.8,17.3,17.2,17.2c9.5,0,17.2-7.7,17.2-17.2s-7.7-17.2-17.2-17.2S232.7,163.5,232.7,173z M107.3,173.1
	c0,9.5,7.7,17.2,17.2,17.2s17.2-7.8,17.2-17.2c0-9.5-7.7-17.2-17.2-17.2S107.3,163.6,107.3,173.1z M459.4,362.5
	c4.9-12.5,10.5-15,12.8-15.5c-55.7,5.1-50.1,37.9-46.5,49.1c0.8,2.3,1.4,3.7,1.4,3.7s2.8,6.5,10.3,11.9c5.7,4.1,14,7.5,25.9,7
	c37,0.6,48.7-68.5,48.7-68.5C502.9,366.3,475.9,363.8,459.4,362.5z M239.5,381.9c-16.6,5.1-33.8,7.7-51.1,7.7
	c-18.8,0-37.3-3-54.9-8.9l-48.8,40.8l-76.8,64c3.5,5.7,9.7,9.3,16.6,9.3h321.5c6.8,0,13.1-3.6,16.6-9.3l-40-33.8L239.5,381.9z
	 M68.3,110c30.5-30.5,71-47.3,114-47.3c88.9,0,161.2,72.3,161.2,161.2c0,39.3-14.2,77.1-40.1,106.5c-0.7,0.7-1.8,1.9-2.2,2.2
	l-0.1,0.1c-18.2,17.7-40.3,30.9-64,38.4c-15.8,5-32.1,7.5-48.6,7.5c-17.9,0-35.5-2.9-52.3-8.6C87.4,353.4,49.4,314,34.3,264.8
	c-3.2-10.4-5.3-21.2-6.4-32.1c-0.5-6.1-0.7-10.8-0.7-15.4c0-6.3,0.2-11.6,0.8-16.5c2.1-20.8,8.1-40.7,17.9-58.9
	c1.8-3.2,3.7-6.7,5.8-10C56.8,123.8,62.3,116.6,68.3,110z M51.7,153.8C42.6,172.6,38,192.9,38,214.1c0,34.9,12.9,68.2,36.4,93.5
	c25.7,27.8,60.4,43.2,97.8,43.2c47.9,0,92.5-26.3,116.3-68.6c5.1-9.2,9.2-18.9,12.1-28.6c3.7-12.6,5.6-25.9,5.6-39.4
	c0-69-50.6-127.4-117.7-135.8c-5.1-0.7-10.6-1-16.4-1c-25.6,0-50.4,7.4-71.8,21.3C79.4,112.1,62.6,131.2,51.7,153.8z M40.6,139.1
	c1.8-3.3,3.8-6.8,6-10.3c0,0,0-0.1,0.1-0.1c-25.9-18.8-29.5-45.1-29.5-45.1c22.6-5.4,42.7,5.2,55.1,14.5c8.3-7.2,17.1-13.6,26.4-19
	C65.4,37.7,3,63.1,3,63.1C-1.3,102.8,19.1,125.9,40.6,139.1z M165.3,54.9c-31.9-4.8-47.5-42.6-47.5-42.6c-24.8,22.4-0.2,56.6,0,56.9
	C132.6,62.2,148.5,57.2,165.3,54.9z M249.9,184.6c6.3,0,11.4-5.3,11.4-11.5c0-6.4-5-11.5-11.4-11.5c-6.3,0-11.4,5.1-11.4,11.5
	S243.6,184.6,249.9,184.6z"/>
</svg>
