<svg xmlns="http://www.w3.org/2000/svg" xml:space="preserve" viewBox="0 0 512 512"><path d="M256 267.5 122.9 161c1.6-.6 3.3-1 5.1-1h256c1.8 0 3.5.5 5.1 1zm0 36.5c-3.5 0-7.1-1.2-10-3.5L112 193.3V336c0 8.8 7.2 16 16 16h256c8.8 0 16-7.2 16-16V193.3L266 300.5c-2.9 2.3-6.5 3.5-10 3.5m256-176v256c0 70.7-57.3 128-128 128H128C57.3 512 0 454.7 0 384V128C0 57.3 57.3 0 128 0h256c70.7 0 128 57.3 128 128m-80 48c0-26.5-21.5-48-48-48H128c-26.5 0-48 21.5-48 48v160c0 26.5 21.5 48 48 48h256c26.5 0 48-21.5 48-48z" style="fill:#fff"/></svg>