<svg xmlns="http://www.w3.org/2000/svg" xml:space="preserve" viewBox="0 0 512 512"><linearGradient id="mailstore-light_svg__a" x1="102.123" x2="456.589" y1="102.123" y2="456.589" gradientUnits="userSpaceOnUse"><stop offset="0" style="stop-color:#fff;stop-opacity:.6"/><stop offset="1" style="stop-color:#fff"/></linearGradient><path d="M428 0H84C37.7 0 0 37.7 0 84v344c0 46.3 37.7 84 84 84h344c46.3 0 84-37.7 84-84V84c0-46.3-37.7-84-84-84M51.8 457c6.3-36.9 15.7-72.2 29.1-106l192.4 110zM106 296.8c18.1-32.2 39.3-61.3 63.6-88l142.9 168zm106.8-130.3c26.7-23.6 56.5-44 88-60.5L377 311.7zm142.1-84.8c33-12.6 66.7-21.2 102.1-26.7l2.4 218.3z" style="fill:url(#mailstore-light_svg__a)"/></svg>