<?xml version="1.0" encoding="utf-8"?>
<!-- Generator: Adobe Illustrator 28.2.0, SVG Export Plug-In . SVG Version: 6.00 Build 0)  -->
<svg version="1.1" id="svg6" xmlns:svg="http://www.w3.org/2000/svg"
	 xmlns="http://www.w3.org/2000/svg" xmlns:xlink="http://www.w3.org/1999/xlink" x="0px" y="0px" viewBox="0 0 512 512"
	 style="enable-background:new 0 0 512 512;" xml:space="preserve">
<path d="M15.2,223.4V40.8h2.3l238.4,236.1L495.6,40.8h2.6V207L295,288.7l52.1,41.6l-33,28.2H90.6c-20.4-17.2-38.6-40.1-54.7-69.2
	C23.3,260.9,17.7,240.5,15.2,223.4z M477.4,30.6L255.9,246.1L35.7,30.6H477.4z M435.9,391.6l3.2-3.4l43.5,33.6L512,212.5
	l-196.9,79.2l48.1,38.4l-61.5,52.4C263,408.6,189,420.5,131.8,395c-42.3-16.8-76.6-49.8-104.9-101l-0.2-0.4
	C7.4,250.3,3.9,225.1,2.9,201.8c-7,51.4-1.4,95.1,16.8,132.4c27.2,55.7,63.7,117,152,138.2C275.2,497.2,361.6,470.8,435.9,391.6z"/>
</svg>
