<svg xmlns="http://www.w3.org/2000/svg" xml:space="preserve" viewBox="0 0 512 512"><linearGradient id="mailstore_svg__a" x1="-809.442" x2="-777.12" y1="16.767" y2="16.767" gradientTransform="rotate(-128.185 -6008.486 -2785.216)scale(15.4281)" gradientUnits="userSpaceOnUse"><stop offset="0" style="stop-color:#00008b"/><stop offset="1" style="stop-color:#1a6aff"/></linearGradient><path d="M512 428V84c0-46.3-37.7-84-84-84H84C37.7 0 0 37.7 0 84v344c0 46.3 37.7 84 84 84h344c46.3 0 84-37.7 84-84" style="fill:url(#mailstore_svg__a)"/><path d="M457 55c-35.3 5.5-69.1 14.1-102.1 26.7l104.4 191.6zm-156.2 51c-31.4 16.5-61.3 36.9-88 60.5l164.1 145.3zm-249 351 221.4 3.9L80.9 351c-13.4 33.8-22.8 69.1-29.1 106m117.8-248.1c-24.3 26.7-45.5 55.8-63.6 88L312.5 377z" style="fill:#fff"/></svg>