<svg xmlns="http://www.w3.org/2000/svg" xml:space="preserve" viewBox="0 0 512 512"><path d="M64 32C28.7 32 0 60.7 0 96v256.3C.2 387.5 28.8 416 64 416h176c8.8 0 16-7.2 16-16s-7.2-16-16-16H64c-14.5 0-27.2-9.7-30.9-23.7l180.5-111.1 42.4 25.4 224-134.4V240c0 8.8 7.2 16 16 16s16-7.2 16-16V96c0-35.3-28.7-64-64-64zm118.7 198.7L32 323.4V140.3zM32 102.9V96c0-17.7 14.3-32 32-32h384c17.7 0 32 14.3 32 32v6.9L256 237.3zM512 368c0 61.9-50.1 112-112 112s-112-50.1-112-112 50.1-112 112-112 112 50.1 112 112m-63.8-53.7c-7.6-4.5-17.4-2.1-21.9 5.5l-37.4 62.4-17.5-17.5c-6.3-6.3-16.4-6.3-22.7 0s-6.3 16.4 0 22.7l24.8 24.7c9.4 9.4 24.6 9.4 33.9 0 1.4-1.4 2.6-3 3.6-4.6l42.7-71.2c4.6-7.7 2.1-17.5-5.5-22" style="fill:#fff"/></svg>