<svg xmlns="http://www.w3.org/2000/svg" xml:space="preserve" viewBox="0 0 512 512"><path d="M380.1 92.3c21.9-12.6 43.6-25.2 65.4-37.7 13.7-7.9 21.6-5.6 29.2 8.2 15.5 27.9 26 57.7 32.4 88.9 3.1 15.3-2 22.4-17.3 25.1-24.7 4.2-49.4 8.6-74.1 13-.8 5.6 3.1 4.3 5.7 4.3 23.5.1 46.9 0 70.4 0 14.7 0 20 5.4 20.2 20 1.3 111.6-69.2 235.7-201.2 282.6-15.4 5.5-31.4 9.2-47.4 12.7-12.6 2.8-19.9-3-22.1-15.8-4.4-25.1-8.8-50.3-13.3-76.1-63.8 4.8-119.5-14.1-165.6-58.4C29.2 327.2 8.8 287.7 2.3 242-11.6 144.8 39.1 54.9 128.1 17.8c86.5-36.2 192.8-10.4 252 74.5M208.2 402.1c103.1 1.1 188.5-82.7 192-185.2 3.7-109.5-83.5-195.7-185.3-199-109.8-3.6-196 84-199.1 186-3.3 110.9 87.3 199.9 192.4 198.2m35.8 14.3c4.5 25.7 9.1 51.6 13.8 78.3 71.4-14 130.5-47.6 175.5-104.2 41.8-52.5 63.1-112.5 62.9-180h-78.9c-8.7 110.2-66.2 178.2-173.3 205.9M458 65.9c-23.4 13.5-46.3 26.7-67.9 39.2 8.4 23.2 16.6 45.6 25 68.7 24.7-4.4 50.8-9 77.3-13.7-6.2-33.8-17.3-64.7-34.4-94.2M319.6 210.2c.7 61.2-50.8 112.4-113 111.6-60.4-.7-111-51.1-110.3-113.1.7-60.4 51.2-111.2 113.8-110.3 60.1.8 109.5 50.5 109.5 111.8m-111.2-96c-52.4-.1-96.1 43.1-96.3 95.2-.1 52.9 43 96.7 95.3 96.8 52.8.1 96.5-43.1 96.6-95.5.1-52.9-43.2-96.5-95.6-96.5"/></svg>