<?xml version="1.0" encoding="utf-8"?>
<!-- Generator: Adobe Illustrator 28.2.0, SVG Export Plug-In . SVG Version: 6.00 Build 0)  -->
<svg version="1.1" id="Layer_1" xmlns="http://www.w3.org/2000/svg" xmlns:xlink="http://www.w3.org/1999/xlink" x="0px" y="0px"
	 viewBox="0 0 512 512" style="enable-background:new 0 0 512 512;" xml:space="preserve">
<path d="M445.6,111.2c-25,0-46.7,13.9-58,34.3c-3.2,5.8-9.4,9.3-16,9.3H360c-10.5,0-20.4,2.2-29.4,6.1c-6.8-50-49.6-88.7-101.4-88.7
	c-6.9,0-13.2-3.8-16.4-9.9c-11-21.5-33.3-36.2-59.1-36.2c-2.7,0-5.5,0.2-8.2,0.5C115.4,30.4,91.1,54.9,87.8,85
	c-4.5,40,26.8,73.9,65.9,73.9c24.2,0,45.4-13,57-32.4c3.3-5.5,9.3-8.8,15.7-8.8h2.8c31.5,0,57.1,25.6,57.1,57.1v50.6h0
	c-0.1,1.1-0.2,2.3-0.2,3.4c0,10.1,2.1,19.8,5.7,28.6H140.4c-6.7,0-12.8-3.5-16.1-9.4c-12.6-22.8-38.3-37.5-66.9-33.7
	c-29.8,3.9-53.7,28.3-57,58.1c-4.5,40,26.8,74,65.9,74c25,0,46.7-13.9,58-34.3c3.2-5.8,9.4-9.3,16-9.3h217.9
	c25,0,46.9,18.8,48.6,43.8c1.8,27.4-19.9,50.3-46.9,50.3h-3.2c-6.7,0-12.8-3.5-16.1-9.4c-12.6-22.8-38.3-37.5-66.9-33.7
	c-29.8,3.9-53.7,28.3-57,58.1c-4.5,40,26.8,74,65.9,74c25,0,46.7-13.9,58-34.3c3.2-5.8,9.4-9.3,16-9.3h0.9c50,0,92.7-38.8,94.6-88.8
	c2-52.6-40.2-96-92.3-96c-17,0-30.5-14.9-28.3-32.3c1.8-14.4,14.8-24.8,29.3-24.8h10.6c6.7,0,12.8,3.5,16.1,9.4
	c12.6,22.8,38.3,37.5,66.9,33.7c29.8-3.9,53.7-28.3,57-58.1C516.1,145.2,484.7,111.2,445.6,111.2z M153.7,113.6
	c-11.6,0-21-9.4-21-21c0-11.6,9.4-21,21-21c11.6,0,21,9.4,21,21C174.7,104.1,165.3,113.6,153.7,113.6z M66.4,301
	c-11.6,0-21-9.4-21-21c0-11.6,9.4-21,21-21c11.6,0,21,9.4,21,21C87.4,291.6,77.9,301,66.4,301z M282.7,440.4c-11.6,0-21-9.4-21-21
	c0-11.6,9.4-21,21-21c11.6,0,21,9.4,21,21C303.7,431,294.3,440.4,282.7,440.4z M445.6,198.6c-11.6,0-21-9.4-21-21
	c0-11.6,9.4-21,21-21c11.6,0,21,9.4,21,21C466.6,189.1,457.2,198.6,445.6,198.6z"/>
</svg>
