<svg xmlns="http://www.w3.org/2000/svg" xml:space="preserve" viewBox="0 0 512 512"><path d="M79.8 0C37.6 0 3.3 34.3 3.3 76.4v305.8c0 42.2 34.3 76.4 76.4 76.4h235.9c20.3 0 39.8-8 54.1-22.3l69.9-69.9c14.3-14.3 22.3-33.8 22.3-54.1V76.4C462 34.3 427.7 0 385.5 0zm221.1 105.4c7.2 0 14.4 2.7 19.9 8.2l17.3 17.4c11 11 11 28.8 0 39.8l-21.3 21.3-57.2-57.1 21.3-21.3c5.6-5.5 12.8-8.3 20-8.3m-51.2 39.5 57.2 57.2-102.6 102.6c-4.6 4.6-10.2 7.9-16.4 9.8l-53 15.5c-3.7 1.1-7.7 0-10.4-2.7s-3.7-6.7-2.6-10.5l15.6-52.9c1.8-6.2 5.2-11.9 9.8-16.4zm218.9-82.3c3.5 8.8 5.5 18.4 5.5 28.4v235.9c0 20.3-8 39.8-22.3 54.1l-69.9 69.9c-14.3 14.3-33.8 22.3-54.1 22.3H91.9c-13.2 0-25.5-3.3-36.4-9.2 11.3 28.1 38.8 48 70.9 48h235.9c20.3 0 39.8-8 54.1-22.3l69.9-69.9c14.3-14.3 22.3-33.8 22.3-54.1V129.8c.1-29-16.2-54.3-40-67.2"/></svg>