<?xml version="1.0" encoding="utf-8"?>
<!-- Generator: Adobe Illustrator 28.2.0, SVG Export Plug-In . SVG Version: 6.00 Build 0)  -->
<svg version="1.1"
	 id="Layer_1" xmlns:inkscape="http://www.inkscape.org/namespaces/inkscape" xmlns:cc="http://creativecommons.org/ns#" xmlns:dc="http://purl.org/dc/elements/1.1/" xmlns:rdf="http://www.w3.org/1999/02/22-rdf-syntax-ns#" xmlns:sodipodi="http://sodipodi.sourceforge.net/DTD/sodipodi-0.dtd" inkscape:version="1.0.2 (e86c870879, 2021-01-15, custom)" sodipodi:docname="Mariadb-seal-browntext.svg"
	 xmlns="http://www.w3.org/2000/svg" xmlns:xlink="http://www.w3.org/1999/xlink" x="0px" y="0px" viewBox="0 0 512 512"
	 style="enable-background:new 0 0 512 512;" xml:space="preserve">
<style type="text/css">
	.st0{fill-rule:evenodd;clip-rule:evenodd;fill:#FFFFFF;}
	.st1{fill:#FFFFFF;}
</style>
<g inkscape:export-filename="/mnt/files/documents/monty-program-ab/logos-dbart/MariaDB-seal-flat.png" inkscape:export-xdpi="90" inkscape:export-ydpi="90">
	<path class="st0" d="M500.8,85.8l-0.1,0.7c-7.9,0.3-5.4,2.5-22.5,6.7c-17.3,4.2-38.4,2.9-57,10.7
		c-55.5,23.3-66.6,102.8-117.1,131.3c-37.6,21.3-75.8,23-109.9,33.6c-22.5,7.1-47,21.5-67.5,39c-15.8,13.6-16.2,25.6-32.8,42.7
		C76.3,368.9,23.6,351,0,379c7.7,7.7,11.1,9.9,26.2,7.9c-3.1,5.9-21.6,10.9-18,19.7c3.8,9.2,48.4,15.4,88.9-9.1
		c18.9-11.4,33.9-27.9,63.2-31.9c38.2-5.1,82,3.2,125.9,9.6c-6.6,19.5-19.7,32.5-30.2,47.8c-3.2,3.5,6.6,3.9,17.7,1.8
		c20.1-5,34.5-9,49.8-17.8c18.6-10.9,21.4-38.7,44.4-44.7c12.7,19.6,47.3,24.2,68.9,8.5c-18.9-5.4-24.1-45.6-17.7-63.2
		c6-16.7,12-43.6,18.1-65.8c6.5-23.8,8.9-53.8,16.8-65.8c11.9-18.2,25-24.5,36.5-34.7C501.9,131,512.3,121,512,97.4
		C511.9,89.8,508,85.6,500.8,85.8z M420.9,368.5c-12.4,3-33.6-2-39-10.7c2.8-12.6,17.3-24,24.8-31.8c0-0.1,0-0.1,0-0.2l0.1,0.1
		c0,0-0.1,0.1-0.1,0.1C407.6,338.3,414.6,362.5,420.9,368.5z M478.6,145.1c-10.9,7.5-22.7,14.7-30.2,26.5c-7.8,12-12.7,53.3-24.7,94
		c-10.5,35.1-26.1,70-53.5,85.2c-2.8-7.1,0.4-20.4-5.3-24.8c-3.7,10.6-7.8,20.6-12.7,29.9c-16,30.8-39.6,53.7-79.5,60.7
		c18.9-25.4,36.9-51.8,37.3-95.7c-13.2,3.1-13,34.3-26.6,42.7c-8.7,0.9-17.6,0.9-26.5,0.4c-36.7-2.2-74.3-13.2-108.5-2.2
		c-23.4,7.4-42.4,25-62.1,33.6c-23.4,10.1-41,14.2-69.8,10.1l0.5-0.6c-3.6-4.9,21.2-11.3,19.7-22c-11.3-1.3-17.9,1.5-27.7-3
		c1.1-2,2.7-3.6,4.7-5c18-12.5,69.2-3,82.9-16.4c8.4-8.3,13.9-17,19.7-25.4c5.6-8.2,11.3-16.1,20.1-23.3c3.2-2.6,6.8-5.2,10.5-7.8
		c14.8-10.2,33.3-19.5,51.5-25.9c24.8-8.7,49.9-9.4,76.3-19.5c16.2-6.2,33.9-13.9,48.4-24.7c3.4-2.5,6.7-5.3,9.7-8.2
		c41.3-40.1,49.5-111.3,113.9-117.9c7.8-0.8,14.2-0.5,20-0.7c6.7-0.2,12.7-1,19.1-4.6c1.9,6.5,4.8,9.5,17.7,10.7
		C501.7,127.6,490.8,136.5,478.6,145.1z"/>
	
		<path inkscape:export-filename="/mnt/files/documents/monty-program-ab/logos/seal-flat.png" inkscape:export-xdpi="90" inkscape:export-ydpi="90" class="st0" d="
		M423.8,132.1c9.1,7.9,28.3,1.6,24.8-14.2C434.5,116.7,426.3,121.6,423.8,132.1z"/>
	
		<path inkscape:export-filename="/mnt/files/documents/monty-program-ab/logos/seal-flat.png" inkscape:export-xdpi="90" inkscape:export-ydpi="90" class="st1" d="
		M486.5,112.2c-2.4,5.1-7.1,11.6-7.1,24.6c0,2.2-1.7,3.8-1.7,0.3c0.1-12.7,3.5-18.1,7-25.3C486.4,108.8,487.4,110,486.5,112.2
		L486.5,112.2z"/>
	
		<path inkscape:export-filename="/mnt/files/documents/monty-program-ab/logos/seal-flat.png" inkscape:export-xdpi="90" inkscape:export-ydpi="90" class="st1" d="
		M486.5,112.2c-2.8,4.8-9.7,13.7-10.9,26.6c-0.2,2.2-2,3.6-1.7,0.2c1.2-12.6,6.7-20.5,10.9-27.3
		C486.7,108.8,487.6,110.1,486.5,112.2L486.5,112.2z"/>
	
		<path inkscape:export-filename="/mnt/files/documents/monty-program-ab/logos/seal-flat.png" inkscape:export-xdpi="90" inkscape:export-ydpi="90" class="st1" d="
		M483.6,109.3c-3.2,4.6-13.9,15.2-16.1,28c-0.4,2.2-2.3,3.4-1.7,0c2.3-12.4,11.4-22.2,16.2-28.8
		C484.1,105.9,484.9,107.3,483.6,109.3L483.6,109.3z"/>
	
		<path inkscape:export-filename="/mnt/files/documents/monty-program-ab/logos/seal-flat.png" inkscape:export-xdpi="90" inkscape:export-ydpi="90" class="st1" d="
		M480.8,106.5c-3.9,4.1-16.5,17.7-20.5,29.9c-0.7,2.1-2.8,3-1.7-0.2c4-12,15.1-24.9,20.7-30.8c2.5-2.3,3-0.8,1.5,0.9V106.5z"/>
</g>
</svg>
