<svg xmlns="http://www.w3.org/2000/svg" xml:space="preserve" id="markstack_svg__Layer_1" x="0" y="0" version="1.1" viewBox="0 0 512 512"><style>.markstack_svg__st1{fill:#4c566a}</style><path d="M153.2 8.8h280.1c19.3 0 35 15.7 35 35v350.1c0 19.3-15.7 35-35 35H153.2c-19.3 0-35-15.7-35-35V43.8c0-19.4 15.6-35 35-35" style="fill:#3b4252"/><path d="M433.2 437.6h-280c-24.1 0-43.8-19.6-43.8-43.8v-350C109.4 19.6 129 0 153.2 0h280.1C457.4 0 477 19.6 477 43.8v350.1c0 24.1-19.6 43.7-43.8 43.7m-280-420.1c-14.5 0-26.3 11.8-26.3 26.3v350.1c0 14.5 11.8 26.3 26.3 26.3h280.1c14.5 0 26.3-11.8 26.3-26.3V43.8c0-14.5-11.8-26.3-26.3-26.3z" class="markstack_svg__st1"/><path d="M118.2 43.8h280.1c19.3 0 35 15.7 35 35v350.1c0 19.3-15.7 35-35 35H118.2c-19.3 0-35-15.7-35-35V78.8c-.1-19.4 15.6-35 35-35" style="fill:#434c5e"/><path d="M398.2 472.6h-280c-24.1 0-43.8-19.6-43.8-43.8v-350C74.4 54.6 94 35 118.2 35h280.1c24.1 0 43.8 19.6 43.8 43.8v350.1c-.1 24.1-19.7 43.7-43.9 43.7m-280-420.1c-14.5 0-26.3 11.8-26.3 26.3v350.1c0 14.5 11.8 26.3 26.3 26.3h280.1c14.5 0 26.3-11.8 26.3-26.3V78.8c0-14.5-11.8-26.3-26.3-26.3z" class="markstack_svg__st1"/><path d="M83.1 78.8h280.1c19.3 0 35 15.7 35 35v350.1c0 19.3-15.7 35-35 35H83.1c-19.3 0-35-15.7-35-35V113.8c0-19.4 15.7-35 35-35" class="markstack_svg__st1"/><path d="M363.2 512H83.1C56.6 512 35 490.4 35 463.9V113.8c0-26.5 21.6-48.1 48.1-48.1h280.1c26.5 0 48.1 21.6 48.1 48.1v350.1c.1 26.5-21.5 48.1-48.1 48.1M83.1 91.9c-12.1 0-21.9 9.8-21.9 21.9v350.1c0 12.1 9.8 21.9 21.9 21.9h280.1c12.1 0 21.9-9.8 21.9-21.9V113.8c0-12.1-9.8-21.9-21.9-21.9z" style="fill:#5e81ac"/><path d="M223.2 415.7c-12.1 0-21.9-9.8-21.9-21.9V288.2l-21.5 30.6c-8.2 11.7-27.7 11.7-35.8 0l-21.5-30.6v105.6c0 12.1-9.8 21.9-21.9 21.9s-21.9-9.8-21.9-21.9v-175c0-9.5 6.2-18 15.3-20.9s19 .5 24.5 8.3l43.3 61.9 43.3-61.9c5.5-7.8 15.4-11.2 24.5-8.3s15.3 11.3 15.3 20.9v175c.2 12.1-9.6 21.9-21.7 21.9m96.3-21.9c2.3 0 4.6-.5 6.6-1.3 2.1-.9 4-2.1 5.7-3.8l43.8-43.8c6.8-6.8 6.8-17.9 0-24.8-6.8-6.8-17.9-6.8-24.8 0l-13.8 14V218.8c0-9.7-7.8-17.5-17.5-17.5s-17.5 7.8-17.5 17.5v115.3l-13.9-13.9c-6.8-6.8-17.9-6.8-24.8 0-6.8 6.8-6.8 17.9 0 24.8l43.8 43.8c1.7 1.7 3.6 3 5.7 3.8 2 .8 4.3 1.3 6.6 1.3 0-.1 0-.1.1-.1" style="fill:#88c0d0"/></svg>