<svg xmlns="http://www.w3.org/2000/svg" xml:space="preserve" viewBox="0 0 512 512"><path d="m232.3 352.4 15-49.2c14.7-3.4 28-13.1 35.3-27.7L335 170.8c8.6-17.3 6.9-37-3-52l43.1-62.7c3-4.4 8.5-6.5 13.7-5.3s9.2 5.5 10 10.7l13.3 85.2 86-6.1c5.3-.4 10.4 2.5 12.7 7.4 2.3 4.8 1.5 10.6-2.1 14.6l-58.4 63.3 58.4 63.4c3.6 3.9 4.5 9.7 2.1 14.6-2.4 4.8-7.4 7.8-12.7 7.4l-86-6.1-13.2 85.2c-.8 5.3-4.8 9.6-10 10.7s-10.6-.9-13.7-5.3l-48.9-71-74.8 42.7c-4.7 2.7-10.5 2.2-14.6-1.1-4.2-3.4-5.9-8.9-4.3-14.1zm23.2-83.2c-7.6 8.9-20.6 11.8-31.6 6.3l-53.9-27-70.1-35.1-85.4-42.7c-12.9-6.5-18.2-22.2-11.7-35.1l32.7-65.5c4.4-8.9 13.5-14.5 23.4-14.5h98.2c4.1 0 8.1 1 11.7 2.8l64 32 66.9 33.5c12.9 6.5 18.2 22.2 11.7 35.1L259 263.8c-.9 1.9-2.1 3.7-3.5 5.4M88.1 236.8l70.3 35.1-84 167.9c-9.7 19.4-33.3 27.3-52.7 17.6S-5.6 424 4.2 404.6z" style="fill:#3b82f6"/></svg>