<?xml version="1.0" encoding="utf-8"?>
<!-- Generator: Adobe Illustrator 28.2.0, SVG Export Plug-In . SVG Version: 6.00 Build 0)  -->
<svg version="1.1" id="Layer_1" xmlns="http://www.w3.org/2000/svg" xmlns:xlink="http://www.w3.org/1999/xlink" x="0px" y="0px"
	 viewBox="0 0 512 512" style="enable-background:new 0 0 512 512;" xml:space="preserve">
<style type="text/css">
	.st0{fill:#FFFFFF;}
</style>
<g>
	<path class="st0" d="M232.3,352.4l15-49.2c14.7-3.4,28-13.1,35.3-27.7L335,170.8c8.6-17.3,6.9-37-3-52l43.1-62.7
		c3-4.4,8.5-6.5,13.7-5.3c5.2,1.2,9.2,5.5,10,10.7l13.3,85.2l86-6.1c5.3-0.4,10.4,2.5,12.7,7.4c2.3,4.8,1.5,10.6-2.1,14.6
		l-58.4,63.3l58.4,63.4c3.6,3.9,4.5,9.7,2.1,14.6c-2.4,4.8-7.4,7.8-12.7,7.4l-86-6.1l-13.2,85.2c-0.8,5.3-4.8,9.6-10,10.7
		c-5.2,1.1-10.6-0.9-13.7-5.3l-48.9-71l-74.8,42.7c-4.7,2.7-10.5,2.2-14.6-1.1c-4.2-3.4-5.9-8.9-4.3-14.1L232.3,352.4z M255.5,269.2
		c-7.6,8.9-20.6,11.8-31.6,6.3L170,248.5l0,0l-70.1-35.1l0,0l-85.4-42.7c-12.9-6.5-18.2-22.2-11.7-35.1l32.7-65.5
		c4.4-8.9,13.5-14.5,23.4-14.5h98.2c4.1,0,8.1,1,11.7,2.8l64,32l66.9,33.5c12.9,6.5,18.2,22.2,11.7,35.1l-52.4,104.8
		C258.1,265.7,256.9,267.5,255.5,269.2L255.5,269.2z M88.1,236.8l70.3,35.1l-84,167.9c-9.7,19.4-33.3,27.3-52.7,17.6
		c-19.4-9.7-27.3-33.4-17.5-52.8L88.1,236.8z"/>
</g>
</svg>
