<svg xmlns="http://www.w3.org/2000/svg" xml:space="preserve" viewBox="0 0 512 512"><path d="M186.5 131.5h138.6v248.9H186.5z" style="fill:#ff5a00"/><path d="M195.7 256c0-50.6 23.8-95.5 60.3-124.5-26.9-21.1-60.7-33.9-97.7-33.9C70.8 97.7 0 168.5 0 256s70.8 158.3 158.3 158.3c36.9 0 70.8-12.8 97.7-33.9-36.5-28.5-60.3-73.8-60.3-124.4" style="fill:#eb001b"/><path d="M512 256c0 87.5-70.8 158.3-158.3 158.3-36.9 0-70.8-12.8-97.7-33.9 36.9-29.1 60.3-73.9 60.3-124.5s-23.8-95.5-60.3-124.5c26.8-21.1 60.7-33.9 97.6-33.9C441.2 97.7 512 168.9 512 256" style="fill:#f79e1b"/></svg>