<?xml version="1.0" encoding="utf-8"?>
<!-- Generator: Adobe Illustrator 28.2.0, SVG Export Plug-In . SVG Version: 6.00 Build 0)  -->
<svg version="1.1"
	 id="svg3409" xmlns:cc="http://creativecommons.org/ns#" xmlns:sodipodi="http://sodipodi.sourceforge.net/DTD/sodipodi-0.dtd" xmlns:inkscape="http://www.inkscape.org/namespaces/inkscape" xmlns:dc="http://purl.org/dc/elements/1.1/" xmlns:rdf="http://www.w3.org/1999/02/22-rdf-syntax-ns#" xmlns:svg="http://www.w3.org/2000/svg" sodipodi:docname="MasterCard 2016.svg"
	 xmlns="http://www.w3.org/2000/svg" xmlns:xlink="http://www.w3.org/1999/xlink" x="0px" y="0px" viewBox="0 0 512 512"
	 style="enable-background:new 0 0 512 512;" xml:space="preserve">
<style type="text/css">
	.st0{fill:#FF5A00;}
	.st1{fill:#EB001B;}
	.st2{fill:#F79E1B;}
</style>
<g>
	<rect id="rect19" x="186.5" y="131.5" class="st0" width="138.6" height="248.9"/>
	<path id="XMLID_330_" inkscape:connector-curvature="0" class="st1" d="M195.7,256c0-50.6,23.8-95.5,60.3-124.5
		c-26.9-21.1-60.7-33.9-97.7-33.9C70.8,97.7,0,168.5,0,256s70.8,158.3,158.3,158.3c36.9,0,70.8-12.8,97.7-33.9
		C219.5,351.9,195.7,306.6,195.7,256z"/>
	<path id="path22" inkscape:connector-curvature="0" class="st2" d="M512,256c0,87.5-70.8,158.3-158.3,158.3
		c-36.9,0-70.8-12.8-97.7-33.9c36.9-29.1,60.3-73.9,60.3-124.5s-23.8-95.5-60.3-124.5c26.8-21.1,60.7-33.9,97.6-33.9
		C441.2,97.7,512,168.9,512,256z"/>
</g>
</svg>
