<?xml version="1.0" encoding="utf-8"?>
<!-- Generator: Adobe Illustrator 28.2.0, SVG Export Plug-In . SVG Version: 6.00 Build 0)  -->
<svg version="1.1" id="Layer_1" xmlns="http://www.w3.org/2000/svg" xmlns:xlink="http://www.w3.org/1999/xlink" x="0px" y="0px"
	 viewBox="0 0 512 512" style="enable-background:new 0 0 512 512;" xml:space="preserve">
<style type="text/css">
	.st0{fill-rule:evenodd;clip-rule:evenodd;fill:#FFFFFF;}
</style>
<path class="st0" d="M38.4,510.4l73.7-0.4c1.2,0.2,12.4-2.1,11.7-8.3c-1.4-13.3,16.6-79.8,27.1-77.2c6.1,1.5,12.2,18.4,29.2,13.1
	c18.3-5.7,20-27.7,29.4-33.5c6-3.6,4.6,3.3,5.6,14.9c1.6,18.8,7.2,93.6,23.3,93h73.1c3.5,0,6.7-1.3,9.2-3.4s4.2-5.1,4.8-8.6
	c6.1-35.6,16.3-99.6,30.8-125.9l2.7-4.8c19.1-33.2,44.3-62.7,74.1-97.6c2.7-3.2,6.3-8.1,9.1-11.4c0.9-1,1.1-2.3,0.8-3.6
	c-0.4-1.3-1.3-2.2-2.5-2.6c-10.8-3.5-19.6-6.7-24.9-11.4c-0.6-0.5-0.8-1.2-0.6-1.9c0.2-0.7,0.7-1.2,1.4-1.4
	c48.5-10.4,66.1-36.2,78.8-72.2c7-19.7,9.1-39.7,6.6-59c-2.6-19.2-9.8-37.7-21.7-54.8c-6-8.6-12.6-15.9-19.5-22.1
	c-37.3-33-106.8-43.2-152-14.1c-3.8,2.4,1.7,13.1,3.9,12c45.4-24.8,125.2-10.5,121.6,47.2c-0.2,2.7-0.7,5.4-1.5,8.1
	c3.6,0.7,7.2,1.2,10.5,1.3c1.6,0,3,0.7,4.1,1.9c1.1,1.2,1.6,2.7,1.5,4.4l-0.1,0.7c-0.2,3.1-2.8,5.4-5.8,5.3
	c-5.8-0.1-11-0.8-16.3-1.7c-1.3,1.8-2.7,3.5-4.3,5c4.7,1.4,9.1,3,12.8,4.9c2.5,1.2,3.7,4,3,6.7c-0.2,0.9-0.5,1.8-0.7,2.7
	c-0.4,1.7-1.4,2.9-3,3.7c-1.5,0.8-3.1,0.8-4.7,0.1c-7.5-3.2-16-5.8-24.2-7.9c-4.8,1.5-10,2.2-15.7,1.8c-6.8-0.5-14.2-2.5-22.1-6.6
	c-41.5-21.4-91.6-36.6-134-37.6c-18.9-0.5-36.2,1.9-50.4,7.8c-29.1,12.1-35.3,34.5-36.9,61.9c2.6,50.9,15.8,86.2,34.2,109.1
	c13.2,16.4,29.1,26.4,45.4,31.1s33.1,4.1,48.3-0.5c15.8-4.9,29.6-14.1,39-26.5c2.4-3.1,6.6-3.9,9.9-1.8h0.1c1.9,1.2,3.1,3,3.5,5.2
	c0.4,2.2-0.1,4.3-1.4,6.1c-11.3,14.9-27.9,26.1-46.6,31.8c-17.7,5.5-37.5,6.1-56.7,0.6s-37.7-17.1-53.1-36.3
	c-18.3-22.8-32-47.5-36.5-91.8C95.4,182.3,24.7,208.1,13,266.1C2.1,320.3,16.1,454.7,33.8,508C34.4,509.8,36.5,510.4,38.4,510.4
	L38.4,510.4z M354,137.6c-8,6.6-9.2,18.6-2.7,26.8s3.9-5.6,11.9-12.1c8-6.6,23.5-3.5,17.1-11.7C373.7,132.3,362,131,354,137.6
	L354,137.6z M339.2,512h36.9c9.6,0.1,15.9-0.2,12.4-11c-8.2-25.3-25.8-66.7-29.7-97.7c-8.4,19.2-12.6,75.8-16.7,99.8
	C341.6,506.5,340.8,509.1,339.2,512L339.2,512z"/>
</svg>
