<svg xmlns="http://www.w3.org/2000/svg" xml:space="preserve" viewBox="0 0 512 512"><path d="m501 288.3-1.2-2.1c-.2-.4-.4-.6-.6-1L408 146.4l-117.8 87.8 86.2 132.6c.4.6.7 1.1 1.1 1.7l.5.7c13.4 19 35.4 31.4 60.3 31.4 40.7 0 73.7-33 73.7-73.7-.1-14.2-4.1-27.3-11-38.6" style="fill:#95c748"/><circle cx="73.7" cy="326.9" r="73.7" style="fill:#35bfc0"/><circle cx="345.3" cy="185.4" r="73.9" style="fill:#f38334"/><path d="M345.1 259.1c-25.7 0-48.4-13.3-61.6-33.3l-56.1-79.2c-13-21-36.3-35.1-62.8-35.1-26.6 0-49.8 14-62.7 35.1l-89.3 139c13.3-19.6 35.6-32.5 61.1-32.5 26.8 0 50.2 14.3 63.1 35.6h.1l58.2 81.8h.1c13.4 18.1 34.9 30 59.3 30 24.3 0 45.9-11.8 59.3-30h.1l.6-1q2.25-3.15 4.2-6.6l87.7-136.4c-13.1 19.7-35.8 32.6-61.3 32.6" style="fill:#3152a0"/></svg>