<?xml version="1.0" encoding="utf-8"?>
<!-- Generator: Adobe Illustrator 28.2.0, SVG Export Plug-In . SVG Version: 6.00 Build 0)  -->
<svg version="1.1" id="Layer_1" xmlns="http://www.w3.org/2000/svg" xmlns:xlink="http://www.w3.org/1999/xlink" x="0px" y="0px"
	 viewBox="0 0 512 512" style="enable-background:new 0 0 512 512;" xml:space="preserve">
<style type="text/css">
	.st0{fill:#4E5E9E;}
	.st1{fill:#FDB933;}
</style>
<path class="st0" d="M256.3,512C115.2,512,0,396.8,0,255.7S115.2,0,256.3,0c34.1,0,67,6.5,98.4,19.5c8.7,3.8,13,14.1,9.2,22.7
	c-3.8,8.7-14.1,13-22.7,9.2c-27-11.4-55.7-16.8-85.4-16.8c-122.2,0-221.7,99.5-221.7,221.7S133.6,478,255.8,478
	s221.7-99.5,221.7-221.7c0-26-4.3-51.9-13.5-76.2c-3.2-9.2,1.1-18.9,10.3-22.2c9.2-3.2,18.9,1.1,22.2,10.3
	c10.3,28.1,15.7,57.8,15.7,88.1C512.5,397.4,397.4,512,256.3,512z"/>
<path class="st1" d="M368.2,229.8l-39.5,41.6l22.2,92.5h49.7L368.2,229.8z M352,107.6l14,13.5L256.3,237.3l-93.6-96.7l-54,223.3H159
	l29.7-123.8l67.6,74l144.9-157.9l13.5,13.6l14-77.9L352,107.6z"/>
</svg>
