<svg xmlns="http://www.w3.org/2000/svg" xml:space="preserve" viewBox="0 0 512 512"><linearGradient id="mazanoke_svg__a" x1="256" x2="256" y1="512" y2="0" gradientUnits="userSpaceOnUse"><stop offset="0" style="stop-color:#0f1215"/><stop offset=".316" style="stop-color:#1a1e23"/><stop offset="1" style="stop-color:#2f363f"/></linearGradient><path d="M394.5 512h-277C52.6 512 0 459.4 0 394.5v-277C0 52.6 52.6 0 117.5 0h276.9C459.4 0 512 52.6 512 117.5v276.9c0 65-52.6 117.6-117.5 117.6" style="fill:url(#mazanoke_svg__a)"/><linearGradient id="mazanoke_svg__b" x1="260.113" x2="260.113" y1="388.645" y2="121.29" gradientUnits="userSpaceOnUse"><stop offset="0" style="stop-color:#f6f6f6"/><stop offset="1" style="stop-color:#dedede"/></linearGradient><path d="M129.5 388.6H61.9l82.6-267.4h68.6zm261.2 0h67.6l-82.6-267.4h-68.6zM290.2 242.1h-61L219 275.7l23.4 75.8h34.2l23.9-75.8z" style="fill:url(#mazanoke_svg__b)"/></svg>