<?xml version="1.0" encoding="utf-8"?>
<!-- Generator: Adobe Illustrator 28.2.0, SVG Export Plug-In . SVG Version: 6.00 Build 0)  -->
<svg version="1.1" id="Layer_1" xmlns="http://www.w3.org/2000/svg" xmlns:xlink="http://www.w3.org/1999/xlink" x="0px" y="0px"
	 viewBox="0 0 512 512" style="enable-background:new 0 0 512 512;" xml:space="preserve">
<g id="layer1" transform="matrix(2 0 0 2 -58.669823 15.933004)">
	<g>
		<path d="M138.7,126.5c-2.3,4-2.3,8.9,0,12.9l18.6,32.3l18.7-32.3c2.3-4,2.3-8.9,0-12.9l-18.7-32.3L138.7,126.5z"/>
		<path d="M284.3,219.1L164.8,12.3c-1.5-2.7-4.4-4.3-7.5-4.3s-5.9,1.7-7.4,4.3L30.5,219.1c-1.5,2.7-1.5,6,0,8.6
			c1.5,2.6,4.4,4.3,7.5,4.3h238.8c3.1,0,5.9-1.6,7.5-4.3C285.8,225,285.8,221.7,284.3,219.1z M202.1,197.6l-22.4-38.8l-22.4,38.8
			l-22.4-38.8l-22.4,38.8H82.7l74.6-129.3l74.6,129.3H202.1z"/>
	</g>
	<g transform="matrix(1 0 0 1 6.3878407 20.000004)">
		<path id="path6" d="M31.5,212h238.8c3.1,0,5.9-1.6,7.5-4.3c1.5-2.7,1.5-6,0-8.6l-12.4-21.5h-69.7l-22.4-38.8l-22.4,38.8
			l-22.4-38.8l-22.4,38.8H36.5l-12.4,21.5c-1.5,2.7-1.5,6,0,8.6S28.5,212,31.5,212z"/>
	</g>
</g>
</svg>
