<svg xmlns="http://www.w3.org/2000/svg" xml:space="preserve" viewBox="0 0 512 512"><path d="M307.5 499.4c7 4.1 15.6 4.2 22.7.3l156-84.5c15.3-7.5 25.2-22.9 25.8-39.9v-93.7c-.2-5.8-3.4-11.2-8.5-14l-8.2-4.9-.5-.3c10.6-8.2 17-20.8 17.3-34.2v-93.9c-.1-5.9-3.4-11.3-8.5-14.1L462 94.9c-6.9-4-15.4-4.2-22.5-.5l-47.7 25.8V52c-.1-5.9-3.3-11.3-8.5-14.1l-41.4-25.1c-7-4.1-15.6-4.2-22.7-.3l-293.4 158C10.5 178.1.5 193.5 0 210.6v93.7c.1 5.9 3.4 11.3 8.5 14.1L50 343.8c7 4.1 15.5 4.3 22.7.5l56.2-30.4v68.4c.2 5.9 3.5 11.2 8.7 14l41.4 25.5c3.5 2 7.6 3.1 11.5 3 3.9 0 7.7-.8 11-2.6l56-30.4V460c.1 5.9 3.4 11.3 8.5 14.1zm-263-263.3c0-15.3 9.2-29.1 24.3-37.5L347.3 48.4v72.2c-.5 14.6-8.3 27.9-20.9 35.3l-171.9 92.7-3.3 2-106.8 57.5v-71.8zm128.9 77.8c0-14 7.9-27.1 21.4-35.5l171.4-92.7c1.2-.5 2.3-1.3 3.3-2l98.3-53.1v72.3c0 15.1-9.2 28.9-24.3 37.1l-.5.3-3.5 1.5-156 84.5c-1.5.7-2.8 1.6-4.1 2.5L173.6 386v-72.2zm128.7 77.9c0-13.6 7.4-26.3 20.2-34.8l145.1-78.6v71.8c0 15.1-9 29.1-24.3 37.3l-141.2 76.4v-72.2z" style="fill:#fff"/></svg>