<svg xmlns="http://www.w3.org/2000/svg" xml:space="preserve" viewBox="0 0 512 512"><path d="M21.5 196.9v56.6H0v-88.4h32.6c4.8 17.5 9.7 35.1 14.7 53.3 2.4-8.7 4.6-16.8 6.8-24.8 2.5-9 5-18.1 7.4-27.1.3-1.1.6-1.6 1.9-1.6h29.9c.2 0 .4.1 1 .2v88.4H72.7v-58c-.1 0-.2-.1-.4-.1-.2.5-.4 1.1-.6 1.6-4.8 18.2-9.6 36.3-14.4 54.5-.4 1.5-.9 2.1-2.6 2.1q-7.8-.15-15.6 0c-1.6 0-2.4-.3-2.8-2.1-4.6-17.6-9.2-35.1-13.9-52.6l-.6-2.1c0 .2-.1.2-.3.1m143.1-11.4v-20.3h-52.8v88.4h52.8v-20.4h-32.4v-15.5h28.9v-19h-28.9v-13.2zm16.9 68.2c10.6 0 21.1.1 31.7 0 9.6-.1 18.5-2.9 26.1-8.9 13.8-11 18.7-25.6 16.4-42.8-2.6-20.2-19.7-36-40.1-36.8-11.3-.4-22.7-.2-34.1-.2-.4 0-.8.2-1.2.3v88.3c.5 0 .9.1 1.2.1m21.8-67.6c8.8-2.5 19.7.7 24.9 7.2 6 7.6 6.8 20.4 1.7 29.3-6 10.6-16 11-26.6 10.2zm88.8-21h-22.6v88.5h22.6zm82.7 87.8c-9-28.8-18-57.6-27-86.5-.4-1.2-.9-1.4-2-1.4-5 0-10 .1-15 0-1.8 0-2.5.5-3 2.2-8.4 27.6-16.9 55.2-25.4 82.8-.4 1.2-.7 2.3-1 3.6h23c1.6-5.6 3.2-11.1 4.9-16.7 9.7 0 19.2 0 28.7.1.5 0 1.3 1 1.5 1.6 1.4 4.5 2.7 9.1 4.1 13.7.2.5.8 1.3 1.3 1.3 3.3.1 6.7.1 10.1.1-.2-.4-.2-.6-.2-.8m-21.7-35.6h-18.2c3-10 6-19.9 8.9-29.8h.4c3.1 9.9 6 19.7 8.9 29.8m40.5 34.8c-4.7-15.2-9.3-30.4-14-45.5-4-13.1-8.1-26.3-12.2-39.4-.2-.8-.8-2-1.2-2-3.2-.2-6.5-.1-9.9-.1.2.7.3.9.3 1.2 5.1 16.4 10.3 32.8 15.4 49.2 3.8 12.1 7.5 24.2 11.3 36.2.3.9.2 2.1 1.8 2 2.8-.1 5.7 0 8.8 0 0-.7-.1-1.2-.3-1.6m-148.8 94.8h-19.9c-5-19.1-10.1-38-15.1-57h-.4v57H188v-88.5c.8 0 1.5-.1 2.2-.1 9.4 0 18.8 0 28.2-.1 1.8 0 2.4.6 2.8 2.2 4.4 16.1 8.8 32.2 13.3 48.2.2.7.4 1.5 1.1 2.2.8-2.7 1.5-5.4 2.3-8.1 3.9-14.2 7.7-28.4 11.6-42.6.3-1.1.4-2 2-2 9.9.1 19.8 0 29.7 0 .3 0 .6.1 1.2.2v88.4h-21.7v-57.3c-.2 0-.4-.1-.5-.1-5.3 19.4-10.3 38.5-15.4 57.6m50.2-88.4v20.8h20v67.6h22.9v-67.7h19.8v-20.7zm90.9 1.7c7.3 11.7 14.6 23.4 21.8 35 10.4 16.6 20.8 33.3 31.2 49.9.5.7 1.2 1.8 1.9 1.8 3.8.2 7.7.1 11.8.1-.6-1.1-1-1.8-1.4-2.6-8.1-13.8-16.2-27.5-24.3-41.2-.9-1.5-.9-2.6 0-4.1l23.1-38.4c.4-.7.8-1.4 1.4-2.4-8.3 0-16.2 0-24.1.1-.7 0-1.7.8-2.1 1.4-2.7 4.5-5.3 9.1-8 13.6-1.8 3.1-3.7 6.2-5.6 9.6-.7-1.1-1.3-2-1.8-2.9-4-6.8-7.9-13.5-11.9-20.3-.4-.7-1.3-1.5-2-1.5-3.5-.2-7-.1-10.9-.1.3 1 .6 1.5.9 2m.5 86.8c.7 0 1.5-.7 1.9-1.3 2.7-4.4 5.2-8.8 7.8-13.2 2.5-4.2 5-8.4 7.6-12.8.5.9.9 1.5 1.3 2.1 4.6 7.9 9.1 15.9 13.7 23.8.4.6 1 1.5 1.6 1.5 3.2.1 6.5.1 10 .1-.3-.6-.4-.8-.5-1.1-18-28.8-35.9-57.7-53.9-86.5-.3-.5-.8-1-1.3-1.1-3.5-.1-7 0-10.7 0 .5.9.8 1.5 1.1 2.1 7.8 13.1 15.5 26.2 23.3 39.3.8 1.4.8 2.4 0 3.7-8.4 13.9-16.7 27.8-25 41.6-.3.5-.6 1.1-1.1 2 8.4-.2 16.3-.1 24.2-.2M464 197.3c-1.2 2.6-2.4 5.2-3.7 8 22.8 12.5 37.1 31.3 43.1 56.4 3-.8 5.8-1.4 8.7-2.2-5.9-29.4-27.9-53.1-48.1-62.2m23.5 68.2c3-.8 5.9-1.5 8.9-2.2-5.7-23-18.8-39.8-39.4-51.1-.3.7-.6 1.1-.8 1.6-1 2.2-2 4.4-3.1 6.7 18.1 10.1 29.5 25 34.4 45m-38-37.3c-1.3 2.9-2.6 5.6-3.9 8.3 12.9 7.6 20.9 18.8 24.3 33.3 3-.7 5.8-1.4 8.9-2.2-4.1-17.4-13.8-30.4-29.3-39.4"/></svg>