<svg xmlns="http://www.w3.org/2000/svg" xml:space="preserve" viewBox="0 0 512 512"><linearGradient id="mediux_svg__a" x1="256" x2="256" y1="2" y2="514" gradientTransform="matrix(1 0 0 -1 0 514)" gradientUnits="userSpaceOnUse"><stop offset="0" style="stop-color:#9a4df8"/><stop offset=".237" style="stop-color:#934ff8"/><stop offset="1" style="stop-color:#8155f9"/></linearGradient><path d="M412 512H100C44.8 512 0 467.2 0 412V100C0 44.8 44.8 0 100 0h312c55.2 0 100 44.8 100 100v312c0 55.2-44.8 100-100 100" style="fill:url(#mediux_svg__a)"/><path d="M195.6 183.7c33.1 19.2 60.5 34.7 60.8 34.6s27.6-15.7 60.5-34.8c54.3-31.5 60.3-34.7 64.4-34.8 3.9 0 7.3 1.6 30 14.7 14.1 8.1 27.1 16.1 29 17.9l3.4 3 .3 67.7c.2 65.7.2 67.7-1.7 70.8-1.1 1.8-2.9 3.8-4.2 4.6s-41.8 9-90.1 18.3c-48.3 9.2-88.6 17.1-89.4 17.4-4.6 1.7 5-4 59.7-35.6 47.6-27.5 60-35 61.3-37.4 1.7-2.8 1.8-5.8 1.6-37.1l-.3-34.1-35.9 20.8c-86.8 50.1-84.8 49-88.9 49-3.4 0-12.5-4.9-64.4-34.9L131.2 219l-.3 34c-.2 31.5-.1 34.3 1.6 37.2 1.4 2.5 13.9 10 61.3 37.4 54.8 31.6 64.3 37.3 59.6 35.6-.9-.3-41.2-8.2-89.4-17.4-68.3-13.2-88.4-17.3-90.5-18.9-5.7-4-5.6-2.8-5.6-74.2 0-63.4.1-65.8 2-68.8 1-1.8 3.5-4.2 5.6-5.6 5.4-3.4 48.2-28 50.7-29.1 5.1-2.2 8.6-.5 69.4 34.5" style="fill:#fff"/></svg>