<svg xmlns="http://www.w3.org/2000/svg" xml:space="preserve" id="mediathekview_svg__svg3570" x="0" y="0" version="1.1" viewBox="0 0 512 512"><style>.mediathekview_svg__st0{fill:#231f20}.mediathekview_svg__st7{fill:#f0f6fa}</style><path d="m464.9 468.8-29.1-306c-.6-3.5-3.7-6.2-7.3-7.6-1.6-1.8-4-2.9-6.6-2.6l-303.7 28.8c97.2-40.2 194.5-80.3 291.7-120.5L388.6 3c-83.7 32.8-165.9 68.9-248.9 103.4-29.1 12.2-58.3 24.2-87.4 36.5l4.2 44.7c-3.2 1.2-5.4 4.5-5 8.2l29.1 306c.4 3.9 3.4 6.9 7.1 7.2 1.6 2 4.1 3.2 6.8 2.9l363.4-34.5c4.3-.4 7.5-4.3 7-8.6" class="mediathekview_svg__st0"/><path id="mediathekview_svg__path5769" d="M93.2 186.5 404.5 57.9l3-8.9-354.3 94.4 25.7 44.5 2.1 3.7z" style="fill:#5a5758"/><linearGradient id="mediathekview_svg__path5777_00000111157610248827824260000007739448402489304234_" x1="-7.695" x2="-6.902" y1="-198.706" y2="-198.706" gradientTransform="translate(3514.756 89643.742)scale(450.6512)" gradientUnits="userSpaceOnUse"><stop offset="0" style="stop-color:#fff"/><stop offset="1" style="stop-color:#d7e2eb"/></linearGradient><path id="mediathekview_svg__path5777" d="M86.9 183.1 404.2 50.3l-36-44.9L46.8 139.9l25.7 44.5 2.1 3.7z" style="fill:url(#mediathekview_svg__path5777_00000111157610248827824260000007739448402489304234_)"/><linearGradient id="mediathekview_svg__path5795_00000178926582142424536290000007689382206189993346_" x1="-7.716" x2="-6.923" y1="-198.773" y2="-198.773" gradientTransform="translate(3565.006 90366.43)scale(453.6438)" gradientUnits="userSpaceOnUse"><stop offset="0" style="stop-color:#fff"/><stop offset="1" style="stop-color:#d2e2f0"/></linearGradient><path id="mediathekview_svg__path5795" d="M424.3 151 75 185.3l10.6 52.2 334.2-28.3z" style="fill:url(#mediathekview_svg__path5795_00000178926582142424536290000007689382206189993346_)"/><path d="M111.2 494.4c-1.9 0-3.8-.7-5.2-1.9-1.6-1.4-2.6-3.3-2.8-5.5L82 254c-.2-2.2.5-4.3 1.8-5.9 1.4-1.7 3.3-2.7 5.5-2.9l336.5-31.6c2.2-.2 4.3.5 5.9 1.9s2.6 3.3 2.8 5.5l21.1 232.9c.4 4.5-2.9 8.5-7.3 8.8l-336.5 31.6c-.2 0-.4.1-.6.1m315.3-278.2h-.5L89.6 247.8c-2.9.2-5.2 3-4.9 6l21.1 232.9c.1 1.5.8 2.8 1.9 3.7s2.5 1.4 4 1.3l336.5-31.6c1.4-.1 2.7-.8 3.7-1.9.9-1.1 1.4-2.6 1.3-4l-21.1-232.9c-.1-1.5-.8-2.8-1.9-3.7-1.2-.9-2.4-1.4-3.7-1.4" class="mediathekview_svg__st0"/><path id="mediathekview_svg__path5779" d="m383.1 0-20.7 7.7 36 45.3 9.6-4.1zm-53.8 21.3-46.8 20 36 45.3 46.8-20.1zm-88.7 36.6L193.8 78l36 45.3 46.8-20zm-85.8 36.6-46.8 20 36 45.3 46.8-20.1zm-107 48.2 18.3 96.7 58.3-3.2-.1-21.4-54.8-74.6-4.1-2.9-15.7 1.9zm377.1 10.9-10.7 56.8 10.4-.8 3.3-54.9zm-49.2 2-49.9 4.7-10.7 60.3 49.5-5.6zm-83 8.5-49.6 4.2-10.6 58.3 50.2-1.6zm-90.1 8.5-49.5 4.8-10.6 57.6 49.5-3.1z" class="mediathekview_svg__st0"/><linearGradient id="mediathekview_svg__path5811_00000024710915141393042740000013888427992573268620_" x1="47.734" x2="48.526" y1="-163.008" y2="-163.008" gradientTransform="rotate(-5.427 22831.41 4633.102)scale(12.1786)" gradientUnits="userSpaceOnUse"><stop offset="0" style="stop-color:#bdbcbc"/><stop offset="1" style="stop-color:#5a5758"/></linearGradient><path id="mediathekview_svg__path5811" d="M59.8 144.1h-.5c-2.2.2-3.8 1.8-4.3 3.8 0 .2-.1.3-.1.5v1c0 .2 0 .3.1.5 0 .2.1.3.1.5s.1.3.2.4.1.3.2.4c.3.6.7 1 1.2 1.4s1 .7 1.6.9c.1 0 .3.1.4.1.3.1.6.1 1 .1h.5c.3 0 .7-.1 1-.2.2 0 .3-.1.4-.2.3-.1.6-.3.8-.4s.4-.3.6-.4c.1 0 .1-.1.2-.2.2-.2.3-.4.5-.5 0-.1.1-.1.1-.2.1-.1.2-.3.2-.4.1-.1.1-.3.2-.4.2-.4.3-.9.4-1.4v-1c0-.2 0-.3-.1-.5 0-.1-.1-.3-.1-.4v-.1c0-.1-.1-.3-.1-.4s-.1-.2-.2-.3v-.1s0-.1-.1-.1c-.1-.1-.1-.2-.2-.3s-.2-.2-.3-.4c-.2-.3-.5-.6-.8-.8l-.3-.3c-.1 0-.1-.1-.2-.1-.1-.1-.2-.1-.4-.2s-.4-.2-.6-.2c0 0-.1 0-.1-.1-.2 0-.3-.1-.5-.1-.1 0-.3-.1-.4-.1 0 .2-.2.2-.4.2" style="fill:url(#mediathekview_svg__path5811_00000024710915141393042740000013888427992573268620_)"/><linearGradient id="mediathekview_svg__path4222_00000147933954982194373180000018278785913503329429_" x1="47.563" x2="48.355" y1="-164.62" y2="-164.62" gradientTransform="rotate(-5.427 23828.595 4479.287)scale(12.1786)" gradientUnits="userSpaceOnUse"><stop offset="0" style="stop-color:#bdbcbc"/><stop offset="1" style="stop-color:#5a5758"/></linearGradient><path id="mediathekview_svg__path4222" d="M74.9 218.4h-.5c-2.2.2-3.8 1.8-4.3 3.8 0 .2-.1.3-.1.5v1c0 .2 0 .3.1.5 0 .2.1.3.1.5s.1.3.2.4.1.3.2.4c.3.6.7 1 1.2 1.4s1 .7 1.6.9c.1 0 .3.1.4.1.3.1.6.1 1 .1h.5c.3 0 .7-.1 1-.2.2 0 .3-.1.4-.2.3-.1.6-.3.8-.4s.4-.3.6-.4c.1 0 .1-.1.2-.2.2-.2.3-.4.5-.5 0-.1.1-.1.1-.2.1-.1.2-.3.2-.4.1-.1.1-.3.2-.4.2-.4.3-.9.4-1.4v-1c0-.2 0-.3-.1-.5 0-.1-.1-.3-.1-.4v-.1c0-.1-.1-.3-.1-.4s-.1-.2-.2-.3v-.1s0-.1-.1-.1c-.1-.1-.1-.2-.2-.3s-.2-.2-.3-.4c-.2-.3-.5-.6-.8-.8l-.3-.3c-.1 0-.1-.1-.2-.1-.1-.1-.2-.1-.4-.2s-.4-.2-.6-.2c0 0-.1 0-.1-.1-.2 0-.3-.1-.5-.1-.1 0-.3-.1-.4-.1 0 .2-.2.2-.4.2" style="fill:url(#mediathekview_svg__path4222_00000147933954982194373180000018278785913503329429_)"/><linearGradient id="mediathekview_svg__path4226_00000001646603042069469050000012897696683892500117_" x1="46.908" x2="47.7" y1="-164.682" y2="-164.682" gradientTransform="rotate(-5.427 23847.932 4071.261)scale(12.1786)" gradientUnits="userSpaceOnUse"><stop offset="0" style="stop-color:#bdbcbc"/><stop offset="1" style="stop-color:#5a5758"/></linearGradient><path id="mediathekview_svg__path4226" d="M105.6 218.4h-.5c-2.2.2-3.8 1.8-4.3 3.8 0 .2-.1.3-.1.5v1c0 .2 0 .3.1.5 0 .2.1.3.1.5s.1.3.2.4.1.3.2.4c.3.6.7 1 1.2 1.4s1 .7 1.6.9c.1 0 .3.1.4.1.3.1.6.1 1 .1h.5c.3 0 .7-.1 1-.2.2 0 .3-.1.4-.2.3-.1.6-.3.8-.4s.4-.3.6-.4c.1 0 .1-.1.2-.2.2-.2.3-.4.5-.5 0-.1.1-.1.1-.2.1-.1.2-.3.2-.4.1-.1.1-.3.2-.4.2-.4.3-.9.4-1.4v-1c0-.2 0-.3-.1-.5 0-.1-.1-.3-.1-.4v-.1c0-.1-.1-.3-.1-.4s-.1-.2-.2-.3v-.1s0-.1-.1-.1c-.1-.1-.1-.2-.2-.3s-.2-.2-.3-.4c-.2-.3-.5-.6-.8-.8l-.3-.3c-.1 0-.1-.1-.2-.1-.1-.1-.2-.1-.4-.2s-.4-.2-.6-.2c0 0-.1 0-.1-.1-.2 0-.3-.1-.5-.1-.1 0-.3-.1-.4-.1 0 .2-.2.2-.4.2" style="fill:url(#mediathekview_svg__path4226_00000001646603042069469050000012897696683892500117_)"/><path id="mediathekview_svg__path4173_00000038376935608784543370000016725610019258111933_" d="M82.6 299.6 131 295l41 75.8 26.3-82.1 48.3-4.5 13.8 147.5-35.9 3.4-10.1-107.8-26.5 82.7-24.1 2.3-41.4-76.4 10.1 107.8-36 3.4z" class="mediathekview_svg__st7"/><path id="mediathekview_svg__path4175_00000115473444524506383940000018184563646570679438_" d="m266.5 282.3 38.2-3.6L354 383.8l28.8-112.5 38.2-3.6-40.8 152.6-45.3 4.3z" class="mediathekview_svg__st7"/></svg>