<?xml version="1.0" encoding="utf-8"?>
<!-- Generator: Adobe Illustrator 28.2.0, SVG Export Plug-In . SVG Version: 6.00 Build 0)  -->
<svg version="1.1"
	 id="svg3570" xmlns:osb="http://www.openswatchbook.org/uri/2009/osb" xmlns:svg="http://www.w3.org/2000/svg" xmlns:sodipodi="http://sodipodi.sourceforge.net/DTD/sodipodi-0.dtd" xmlns:inkscape="http://www.inkscape.org/namespaces/inkscape" xmlns:rdf="http://www.w3.org/1999/02/22-rdf-syntax-ns#" xmlns:cc="http://creativecommons.org/ns#" xmlns:dc="http://purl.org/dc/elements/1.1/"
	 xmlns="http://www.w3.org/2000/svg" xmlns:xlink="http://www.w3.org/1999/xlink" x="0px" y="0px" viewBox="0 0 512 512"
	 style="enable-background:new 0 0 512 512;" xml:space="preserve">
<style type="text/css">
	.st0{fill:#231F20;}
	.st1{fill:#5A5758;}
	.st2{fill:url(#path5777_00000096027652242021662060000000364620282601475258_);}
	.st3{fill:url(#path5795_00000083048627381910619770000014820951018659246473_);}
	.st4{fill:url(#path5811_00000142876469059452779990000000672412401438881983_);}
	.st5{fill:url(#path4222_00000038384206846300195580000005264042943856203951_);}
	.st6{fill:url(#path4226_00000074441210812006650740000006471427031120557211_);}
	.st7{fill:#F0F6FA;}
</style>
<path class="st0" d="M464.9,468.8l-29.1-306c-0.6-3.5-3.7-6.2-7.3-7.6c-1.6-1.8-4-2.9-6.6-2.6l-303.7,28.8
	c97.2-40.2,194.5-80.3,291.7-120.5L388.6,3c-83.7,32.8-165.9,68.9-248.9,103.4c-29.1,12.2-58.3,24.2-87.4,36.5l4.2,44.7
	c-3.2,1.2-5.4,4.5-5,8.2l29.1,306c0.4,3.9,3.4,6.9,7.1,7.2c1.6,2,4.1,3.2,6.8,2.9l363.4-34.5C462.2,477,465.4,473.1,464.9,468.8z"/>
<path id="path5769" inkscape:connector-curvature="0" class="st1" d="M93.2,186.5L404.5,57.9l3-8.9L53.2,143.4l25.7,44.5l2.1,3.7
	L93.2,186.5L93.2,186.5z"/>
<linearGradient id="path5777_00000111157610248827824260000007739448402489304234_" gradientUnits="userSpaceOnUse" x1="-7.6954" y1="-198.7057" x2="-6.9023" y2="-198.7057" gradientTransform="matrix(450.6512 0 0 450.6512 3514.7559 89643.7422)">
	<stop  offset="0" style="stop-color:#FFFFFF"/>
	<stop  offset="1" style="stop-color:#D7E2EB"/>
</linearGradient>
<path id="path5777" inkscape:connector-curvature="0" style="fill:url(#path5777_00000111157610248827824260000007739448402489304234_);" d="
	M86.9,183.1L404.2,50.3l-36-44.9L46.8,139.9l25.7,44.5l2.1,3.7L86.9,183.1z"/>
<linearGradient id="path5795_00000178926582142424536290000007689382206189993346_" gradientUnits="userSpaceOnUse" x1="-7.7163" y1="-198.773" x2="-6.9233" y2="-198.773" gradientTransform="matrix(453.6438 0 0 453.6438 3565.0056 90366.4297)">
	<stop  offset="0" style="stop-color:#FFFFFF"/>
	<stop  offset="1" style="stop-color:#D2E2F0"/>
</linearGradient>
<path id="path5795" inkscape:connector-curvature="0" sodipodi:nodetypes="ccccc" style="fill:url(#path5795_00000178926582142424536290000007689382206189993346_);" d="
	M424.3,151L75,185.3l10.6,52.2l334.2-28.3L424.3,151z"/>
<path class="st0" d="M111.2,494.4c-1.9,0-3.8-0.7-5.2-1.9c-1.6-1.4-2.6-3.3-2.8-5.5L82,254c-0.2-2.2,0.5-4.3,1.8-5.9
	c1.4-1.7,3.3-2.7,5.5-2.9l336.5-31.6c2.2-0.2,4.3,0.5,5.9,1.9c1.6,1.4,2.6,3.3,2.8,5.5l21.1,232.9c0.4,4.5-2.9,8.5-7.3,8.8
	l-336.5,31.6C111.6,494.3,111.4,494.4,111.2,494.4z M426.5,216.2c-0.2,0-0.3,0-0.5,0L89.6,247.8c-2.9,0.2-5.2,3-4.9,6l21.1,232.9
	c0.1,1.5,0.8,2.8,1.9,3.7c1.1,0.9,2.5,1.4,4,1.3l336.5-31.6c1.4-0.1,2.7-0.8,3.7-1.9c0.9-1.1,1.4-2.6,1.3-4l-21.1-232.9
	c-0.1-1.5-0.8-2.8-1.9-3.7C429,216.7,427.8,216.2,426.5,216.2z"/>
<path id="path5779" inkscape:connector-curvature="0" sodipodi:nodetypes="cccccccccccccccccccccccccccccccccccccccccccccccc" class="st0" d="
	M383.1,0l-20.7,7.7l36,45.3l9.6-4.1L383.1,0z M329.3,21.3l-46.8,20l36,45.3l46.8-20.1L329.3,21.3z M240.6,57.9L193.8,78l36,45.3
	l46.8-20L240.6,57.9z M154.8,94.5l-46.8,20l36,45.3l46.8-20.1L154.8,94.5z M47.8,142.7l18.3,96.7l58.3-3.2l-0.1-21.4l-54.8-74.6
	l-4.1-2.9l-15.7,1.9L47.8,142.7z M424.9,153.6l-10.7,56.8l10.4-0.8l3.3-54.9L424.9,153.6z M375.7,155.6l-49.9,4.7l-10.7,60.3
	l49.5-5.6L375.7,155.6z M292.7,164.1l-49.6,4.2l-10.6,58.3l50.2-1.6L292.7,164.1z M202.6,172.6l-49.5,4.8L142.5,235l49.5-3.1
	L202.6,172.6z"/>
<linearGradient id="path5811_00000024710915141393042740000013888427992573268620_" gradientUnits="userSpaceOnUse" x1="47.7341" y1="-163.0081" x2="48.5265" y2="-163.0081" gradientTransform="matrix(12.124 -1.1521 1.1521 12.124 -335.9337 2180.6311)">
	<stop  offset="0" style="stop-color:#BDBCBC"/>
	<stop  offset="1" style="stop-color:#5A5758"/>
</linearGradient>
<path id="path5811" inkscape:connector-curvature="0" style="fill:url(#path5811_00000024710915141393042740000013888427992573268620_);" d="
	M59.8,144.1c-0.2,0-0.3,0-0.5,0c-2.2,0.2-3.8,1.8-4.3,3.8c0,0.2-0.1,0.3-0.1,0.5c0,0.3,0,0.7,0,1c0,0.2,0,0.3,0.1,0.5
	c0,0.2,0.1,0.3,0.1,0.5c0,0.2,0.1,0.3,0.2,0.4l0,0c0.1,0.1,0.1,0.3,0.2,0.4c0.3,0.6,0.7,1,1.2,1.4s1,0.7,1.6,0.9l0,0
	c0.1,0,0.3,0.1,0.4,0.1c0.3,0.1,0.6,0.1,1,0.1c0.2,0,0.3,0,0.5,0c0.3,0,0.7-0.1,1-0.2c0.2,0,0.3-0.1,0.4-0.2
	c0.3-0.1,0.6-0.3,0.8-0.4s0.4-0.3,0.6-0.4c0.1,0,0.1-0.1,0.2-0.2c0.2-0.2,0.3-0.4,0.5-0.5c0-0.1,0.1-0.1,0.1-0.2l0,0
	c0.1-0.1,0.2-0.3,0.2-0.4c0.1-0.1,0.1-0.3,0.2-0.4c0.2-0.4,0.3-0.9,0.4-1.4c0-0.3,0-0.6,0-1c0-0.2,0-0.3-0.1-0.5
	c0-0.1-0.1-0.3-0.1-0.4c0,0,0,0,0-0.1s-0.1-0.3-0.1-0.4s-0.1-0.2-0.2-0.3c0,0,0,0,0-0.1c0,0,0-0.1-0.1-0.1c-0.1-0.1-0.1-0.2-0.2-0.3
	c-0.1-0.1-0.2-0.2-0.3-0.4c-0.2-0.3-0.5-0.6-0.8-0.8c-0.1-0.1-0.2-0.2-0.3-0.3c-0.1,0-0.1-0.1-0.2-0.1l0,0c-0.1-0.1-0.2-0.1-0.4-0.2
	l0,0c-0.2-0.1-0.4-0.2-0.6-0.2c0,0-0.1,0-0.1-0.1c-0.2,0-0.3-0.1-0.5-0.1c-0.1,0-0.3-0.1-0.4-0.1C60.2,144.1,60,144.1,59.8,144.1
	L59.8,144.1z"/>
<linearGradient id="path4222_00000147933954982194373180000018278785913503329429_" gradientUnits="userSpaceOnUse" x1="47.5628" y1="-164.6198" x2="48.3552" y2="-164.6198" gradientTransform="matrix(12.124 -1.1521 1.1521 12.124 -316.9121 2274.2756)">
	<stop  offset="0" style="stop-color:#BDBCBC"/>
	<stop  offset="1" style="stop-color:#5A5758"/>
</linearGradient>
<path id="path4222" inkscape:connector-curvature="0" style="fill:url(#path4222_00000147933954982194373180000018278785913503329429_);" d="
	M74.9,218.4c-0.2,0-0.3,0-0.5,0c-2.2,0.2-3.8,1.8-4.3,3.8c0,0.2-0.1,0.3-0.1,0.5c0,0.3,0,0.7,0,1c0,0.2,0,0.3,0.1,0.5
	c0,0.2,0.1,0.3,0.1,0.5s0.1,0.3,0.2,0.4l0,0c0.1,0.1,0.1,0.3,0.2,0.4c0.3,0.6,0.7,1,1.2,1.4s1,0.7,1.6,0.9l0,0
	c0.1,0,0.3,0.1,0.4,0.1c0.3,0.1,0.6,0.1,1,0.1c0.2,0,0.3,0,0.5,0c0.3,0,0.7-0.1,1-0.2c0.2,0,0.3-0.1,0.4-0.2
	c0.3-0.1,0.6-0.3,0.8-0.4s0.4-0.3,0.6-0.4c0.1,0,0.1-0.1,0.2-0.2c0.2-0.2,0.3-0.4,0.5-0.5c0-0.1,0.1-0.1,0.1-0.2l0,0
	c0.1-0.1,0.2-0.3,0.2-0.4c0.1-0.1,0.1-0.3,0.2-0.4c0.2-0.4,0.3-0.9,0.4-1.4c0-0.3,0-0.6,0-1c0-0.2,0-0.3-0.1-0.5
	c0-0.1-0.1-0.3-0.1-0.4c0,0,0,0,0-0.1s-0.1-0.3-0.1-0.4s-0.1-0.2-0.2-0.3c0,0,0,0,0-0.1c0,0,0-0.1-0.1-0.1c-0.1-0.1-0.1-0.2-0.2-0.3
	c-0.1-0.1-0.2-0.2-0.3-0.4c-0.2-0.3-0.5-0.6-0.8-0.8c-0.1-0.1-0.2-0.2-0.3-0.3c-0.1,0-0.1-0.1-0.2-0.1l0,0c-0.1-0.1-0.2-0.1-0.4-0.2
	l0,0c-0.2-0.1-0.4-0.2-0.6-0.2c0,0-0.1,0-0.1-0.1c-0.2,0-0.3-0.1-0.5-0.1c-0.1,0-0.3-0.1-0.4-0.1C75.3,218.4,75.1,218.4,74.9,218.4
	L74.9,218.4z"/>
<linearGradient id="path4226_00000001646603042069469050000012897696683892500117_" gradientUnits="userSpaceOnUse" x1="46.9081" y1="-164.6818" x2="47.7005" y2="-164.6818" gradientTransform="matrix(12.124 -1.1521 1.1521 12.124 -278.226 2274.2756)">
	<stop  offset="0" style="stop-color:#BDBCBC"/>
	<stop  offset="1" style="stop-color:#5A5758"/>
</linearGradient>
<path id="path4226" inkscape:connector-curvature="0" style="fill:url(#path4226_00000001646603042069469050000012897696683892500117_);" d="
	M105.6,218.4c-0.2,0-0.3,0-0.5,0c-2.2,0.2-3.8,1.8-4.3,3.8c0,0.2-0.1,0.3-0.1,0.5c0,0.3,0,0.7,0,1c0,0.2,0,0.3,0.1,0.5
	c0,0.2,0.1,0.3,0.1,0.5s0.1,0.3,0.2,0.4l0,0c0.1,0.1,0.1,0.3,0.2,0.4c0.3,0.6,0.7,1,1.2,1.4s1,0.7,1.6,0.9l0,0
	c0.1,0,0.3,0.1,0.4,0.1c0.3,0.1,0.6,0.1,1,0.1c0.2,0,0.3,0,0.5,0c0.3,0,0.7-0.1,1-0.2c0.2,0,0.3-0.1,0.4-0.2
	c0.3-0.1,0.6-0.3,0.8-0.4s0.4-0.3,0.6-0.4c0.1,0,0.1-0.1,0.2-0.2c0.2-0.2,0.3-0.4,0.5-0.5c0-0.1,0.1-0.1,0.1-0.2l0,0
	c0.1-0.1,0.2-0.3,0.2-0.4c0.1-0.1,0.1-0.3,0.2-0.4c0.2-0.4,0.3-0.9,0.4-1.4c0-0.3,0-0.6,0-1c0-0.2,0-0.3-0.1-0.5
	c0-0.1-0.1-0.3-0.1-0.4c0,0,0,0,0-0.1s-0.1-0.3-0.1-0.4s-0.1-0.2-0.2-0.3c0,0,0,0,0-0.1c0,0,0-0.1-0.1-0.1c-0.1-0.1-0.1-0.2-0.2-0.3
	c-0.1-0.1-0.2-0.2-0.3-0.4c-0.2-0.3-0.5-0.6-0.8-0.8c-0.1-0.1-0.2-0.2-0.3-0.3c-0.1,0-0.1-0.1-0.2-0.1l0,0c-0.1-0.1-0.2-0.1-0.4-0.2
	l0,0c-0.2-0.1-0.4-0.2-0.6-0.2c0,0-0.1,0-0.1-0.1c-0.2,0-0.3-0.1-0.5-0.1c-0.1,0-0.3-0.1-0.4-0.1C106,218.4,105.8,218.4,105.6,218.4
	L105.6,218.4z"/>
<path id="path4173_00000038376935608784543370000016725610019258111933_" class="st7" d="M82.6,299.6L131,295l41,75.8l26.3-82.1
	l48.3-4.5l13.8,147.5l-35.9,3.4l-10.1-107.8l-26.5,82.7l-24.1,2.3l-41.4-76.4l10.1,107.8l-36,3.4L82.6,299.6L82.6,299.6z"/>
<path id="path4175_00000115473444524506383940000018184563646570679438_" class="st7" d="M266.5,282.3l38.2-3.6l49.3,105.1
	l28.8-112.5l38.2-3.6l-40.8,152.6l-45.3,4.3L266.5,282.3L266.5,282.3z"/>
</svg>
