<svg xmlns="http://www.w3.org/2000/svg" xml:space="preserve" viewBox="0 0 512 512"><path d="M256 187c-38.1 0-69 30.9-69 69s30.9 69 69 69 69-30.9 69-69-30.9-69-69-69m0 128c-32.6 0-59-26.4-59-59s26.4-59 59-59 59 26.4 59 59-26.4 59-59 59m19.7-59c0 10.9-8.8 19.7-19.7 19.7s-19.7-8.8-19.7-19.7 8.8-19.7 19.7-19.7 19.7 8.8 19.7 19.7M414.8 0H97.2C43.5 0 0 43.5 0 97.2v317.7C0 468.5 43.5 512 97.2 512h317.7c53.7 0 97.2-43.5 97.2-97.2V97.2C512 43.5 468.5 0 414.8 0M256 463c-114.3 0-207-92.7-207-207S141.7 49 256 49s207 92.7 207 207-92.7 207-207 207"/><linearGradient id="meelo-dark_svg__a" x1="109.65" x2="402.35" y1="109.65" y2="402.35" gradientUnits="userSpaceOnUse"><stop offset="0" style="stop-color:#000;stop-opacity:.5"/><stop offset=".349" style="stop-color:#000;stop-opacity:.4"/><stop offset=".533" style="stop-color:#000;stop-opacity:.1"/><stop offset=".712" style="stop-color:#000;stop-opacity:.2"/><stop offset="1" style="stop-color:#000;stop-opacity:.25"/></linearGradient><path d="M256 49C141.7 49 49 141.7 49 256s92.7 207 207 207 207-92.7 207-207S370.3 49 256 49m0 276c-38.1 0-69-30.9-69-69s30.9-69 69-69 69 30.9 69 69-30.9 69-69 69m0-128c-32.6 0-59 26.4-59 59s26.4 59 59 59 59-26.4 59-59-26.4-59-59-59m0 78.7c-10.9 0-19.7-8.8-19.7-19.7s8.8-19.7 19.7-19.7 19.7 8.8 19.7 19.7-8.8 19.7-19.7 19.7" style="fill:url(#meelo-dark_svg__a)"/></svg>