<svg xmlns="http://www.w3.org/2000/svg" xml:space="preserve" viewBox="0 0 512 512"><path d="M256 0C114.6 0 0 114.6 0 256s114.6 256 256 256 256-114.6 256-256S397.4 0 256 0m132.9 346.5c0 4.4-3.5 7.9-7.9 7.9h-33.4c-4.4 0-7.9-3.5-7.9-7.9v-103c0-.9-1-1.3-1.7-.7l-70.8 70.8c-6.1 6.1-16.2 6.1-22.2 0l-71-70.8c-.6-.6-1.7-.1-1.7.7v103c0 4.4-3.5 7.9-7.9 7.9H131c-4.4 0-7.9-3.5-7.9-7.9v-181c0-4.4 3.5-7.9 7.9-7.9h23c4.1 0 8.2 1.7 11.2 4.7l88.1 88.1c1.6 1.6 4 1.6 5.5 0l88.1-88.1c3-3 6.9-4.7 11.2-4.7h23c4.4 0 7.9 3.5 7.9 7.9v181z" style="fill:#fff"/></svg>