<svg xmlns="http://www.w3.org/2000/svg" xml:space="preserve" viewBox="0 0 512 512"><path d="M24.2 320.8c-30.6-90.4 3.6-190.3 83.2-242.9 96.7-64 227.5-37.4 291.5 59.3 2.6 4.1 1.9 10.2-2.2 12.8-4 2.6-9.1 2.1-11.7-1.9l7.4-4.8-7.7 4.2c-59.1-89.3-179-113.7-267.6-55-73 48.3-104.3 139.9-76.2 222.7l1.2 3.4c1.6 4.6-.8 9.6-5.4 11.2-1 .3-2 .5-2.9.5-3.6 0-7-2.3-8.3-5.9zM424 276c-4.9-.9-9.3 2.4-10.1 7.2-10.1 61.3-49.3 114.7-104.6 142.7-56.2 27.1-122.7 25.9-177.9-3.2-4.2-2.2-9.5-.6-11.8 3.7-2.2 4.2-.6 9.5 3.7 11.8 31.2 16.4 65.7 24.7 100.3 24.7 32 0 64.1-7.1 93.5-21.2 60.4-30.6 103.1-88.8 114.1-155.6.8-4.8-2.4-9.3-7.2-10.1m-294.1 69.5c1.3-.3 129-30 222.9-110l.9-1c2-2.1 4.8-3.1 7.6-2.6 2.8.4 5.3 2.2 6.5 4.7 6.5 12.7 10.3 26.4 11.5 40.6.1.5.2.9.2 1.4 3 47.3-27.6 90.5-84.1 118.6-26.9 13.4-53 20-76.8 20-26.8 0-50.8-8.4-69.9-25.2-10.7-9.5-19.3-20.8-25.6-33.7-2.1-4.3-.3-9.6 4-11.7l.9-.4c.6-.3 1.3-.5 1.9-.7m231.3-47.3c-69.2 52.7-148.7 80-186.4 90.9 29.7 16.3 69.8 13.8 112.8-7.5 42.8-21.3 68.3-50.4 73.6-83.4M144.1 360c3.7 5.7 8 11 12.8 15.7 24.8-6.5 125.6-35.5 204.6-100.3-.8-7-2.4-13.7-4.8-20.3C275.4 321 176.1 351.4 144.1 360m365.4-131c0 .1-.1.2-.1.3-3.9 11.5-12.1 20.8-23 26.2-6.4 3.2-13.3 4.8-20.3 4.8-4.9 0-9.9-.8-14.7-2.4-38.2-12.8-62.8-61.4-63.9-63.5a8.75 8.75 0 0 1-.4-6.9c.8-2.3 2.6-4.1 4.8-5 12.5-5.7 54.8-23.1 88.7-11.7 11.6 3.9 21 12.1 26.5 23.1s6.3 23.4 2.4 35.1m-18-27.4c-3.4-6.8-9.2-11.9-16.4-14.3-22.7-7.5-51.6 1.3-67.2 7.4 8.1 13.3 26.2 38.9 49.1 46.6 7.2 2.4 14.9 1.9 21.7-1.5s11.9-9.2 14.3-16.4c0-.1.1-.2.1-.3 2.3-7.1 1.8-14.7-1.6-21.5M77.7 348.9c5.7 12.5 23.1 54.8 11.7 88.7-6.3 19.3-24.3 31.4-43.5 31.4-4.8 0-9.7-.8-14.6-2.4-.1 0-.2-.1-.4-.1-23.8-8.2-36.7-34.2-28.6-58.1 12.9-38.4 61.4-62.8 63.5-63.9 2.2-1.1 4.7-1.2 6.9-.4 2.3.8 4.1 2.6 5 4.8m-12.1 16C52.3 373 26.7 391.1 19 414c-5 14.9 3 31 17.9 36 7.2 2.4 14.9 1.9 21.7-1.5s11.9-9.2 14.3-16.4c7.6-22.6-1.2-51.5-7.3-67.2m62.3-80.9c-2.7 4-1.6 9.5 2.4 12.2 1.5 1 3.2 1.5 4.9 1.5 2.8 0 5.6-1.3 7.4-3.9l37.1-55c1.7-2.6 1.9-5.9.6-8.7-1.4-2.9-4.1-4.7-7.2-5l-67.4-5.8c-4.9-.5-9.1 3.2-9.5 8s3.2 9.1 8 9.5l52.5 4.5zm151.8-147.7a8.75 8.75 0 0 0-12.1 2.7l-36 57.2c-1.7 2.6-1.8 5.9-.4 8.7 1.4 2.7 4.2 4.5 7.3 4.7l66.3 3.6h.5c4.6 0 8.4-3.6 8.7-8.2.2-4.8-3.5-8.9-8.3-9.2l-51.4-2.8 28.1-44.6c2.6-4.1 1.4-9.5-2.7-12.1"/></svg>