<?xml version="1.0" encoding="utf-8"?>
<!-- Generator: Adobe Illustrator 28.2.0, SVG Export Plug-In . SVG Version: 6.00 Build 0)  -->
<svg version="1.1" id="Layer_1" xmlns="http://www.w3.org/2000/svg" xmlns:xlink="http://www.w3.org/1999/xlink" x="0px" y="0px"
	 viewBox="0 0 512 512" style="enable-background:new 0 0 512 512;" xml:space="preserve">
<path d="M24.2,320.8c-30.6-90.4,3.6-190.3,83.2-242.9c96.7-64,227.5-37.4,291.5,59.3c2.6,4.1,1.9,10.2-2.2,12.8
	c-4,2.6-9.1,2.1-11.7-1.9l7.4-4.8l-7.7,4.2c-59.1-89.3-179-113.7-267.6-55c-73,48.3-104.3,139.9-76.2,222.7l1.2,3.4
	c1.6,4.6-0.8,9.6-5.4,11.2c-1,0.3-2,0.5-2.9,0.5c-3.6,0-7-2.3-8.3-5.9L24.2,320.8z M424,276c-4.9-0.9-9.3,2.4-10.1,7.2
	c-10.1,61.3-49.3,114.7-104.6,142.7c-56.2,27.1-122.7,25.9-177.9-3.2c-4.2-2.2-9.5-0.6-11.8,3.7c-2.2,4.2-0.6,9.5,3.7,11.8
	c31.2,16.4,65.7,24.7,100.3,24.7c32,0,64.1-7.1,93.5-21.2c60.4-30.6,103.1-88.8,114.1-155.6C432,281.3,428.8,276.8,424,276z
	 M129.9,345.5c1.3-0.3,129-30,222.9-110l0.9-1c2-2.1,4.8-3.1,7.6-2.6c2.8,0.4,5.3,2.2,6.5,4.7c6.5,12.7,10.3,26.4,11.5,40.6
	c0.1,0.5,0.2,0.9,0.2,1.4c3,47.3-27.6,90.5-84.1,118.6c-26.9,13.4-53,20-76.8,20c-26.8,0-50.8-8.4-69.9-25.2
	c-10.7-9.5-19.3-20.8-25.6-33.7c-2.1-4.3-0.3-9.6,4-11.7l0.9-0.4C128.6,345.9,129.3,345.7,129.9,345.5z M361.2,298.2
	c-69.2,52.7-148.7,80-186.4,90.9c29.7,16.3,69.8,13.8,112.8-7.5C330.4,360.3,355.9,331.2,361.2,298.2z M144.1,360
	c3.7,5.7,8,11,12.8,15.7c24.8-6.5,125.6-35.5,204.6-100.3c-0.8-7-2.4-13.7-4.8-20.3C275.4,321,176.1,351.4,144.1,360z M509.5,229
	c0,0.1-0.1,0.2-0.1,0.3c-3.9,11.5-12.1,20.8-23,26.2c-6.4,3.2-13.3,4.8-20.3,4.8c-4.9,0-9.9-0.8-14.7-2.4
	c-38.2-12.8-62.8-61.4-63.9-63.5c-1.1-2.2-1.2-4.7-0.4-6.9c0.8-2.3,2.6-4.1,4.8-5c12.5-5.7,54.8-23.1,88.7-11.7
	c11.6,3.9,21,12.1,26.5,23.1S513.4,217.3,509.5,229z M491.5,201.6c-3.4-6.8-9.2-11.9-16.4-14.3c-22.7-7.5-51.6,1.3-67.2,7.4
	c8.1,13.3,26.2,38.9,49.1,46.6c7.2,2.4,14.9,1.9,21.7-1.5c6.8-3.4,11.9-9.2,14.3-16.4c0-0.1,0.1-0.2,0.1-0.3
	C495.4,216,494.9,208.4,491.5,201.6z M77.7,348.9c5.7,12.5,23.1,54.8,11.7,88.7C83.1,456.9,65.1,469,45.9,469
	c-4.8,0-9.7-0.8-14.6-2.4c-0.1,0-0.2-0.1-0.4-0.1c-23.8-8.2-36.7-34.2-28.6-58.1c12.9-38.4,61.4-62.8,63.5-63.9
	c2.2-1.1,4.7-1.2,6.9-0.4C75,344.9,76.8,346.7,77.7,348.9z M65.6,364.9C52.3,373,26.7,391.1,19,414c-5,14.9,3,31,17.9,36
	c7.2,2.4,14.9,1.9,21.7-1.5c6.8-3.4,11.9-9.2,14.3-16.4C80.5,409.5,71.7,380.6,65.6,364.9z M127.9,284c-2.7,4-1.6,9.5,2.4,12.2
	c1.5,1,3.2,1.5,4.9,1.5c2.8,0,5.6-1.3,7.4-3.9l37.1-55c1.7-2.6,1.9-5.9,0.6-8.7c-1.4-2.9-4.1-4.7-7.2-5l-67.4-5.8
	c-4.9-0.5-9.1,3.2-9.5,8c-0.4,4.8,3.2,9.1,8,9.5l52.5,4.5L127.9,284z M279.7,136.3c-4.1-2.6-9.5-1.4-12.1,2.7l-36,57.2
	c-1.7,2.6-1.8,5.9-0.4,8.7c1.4,2.7,4.2,4.5,7.3,4.7l66.3,3.6c0.2,0,0.3,0,0.5,0c4.6,0,8.4-3.6,8.7-8.2c0.2-4.8-3.5-8.9-8.3-9.2
	l-51.4-2.8l28.1-44.6C285,144.3,283.8,138.9,279.7,136.3z"/>
</svg>
