<?xml version="1.0" encoding="utf-8"?>
<!-- Generator: Adobe Illustrator 28.2.0, SVG Export Plug-In . SVG Version: 6.00 Build 0)  -->
<svg version="1.1" id="Layer_1" xmlns="http://www.w3.org/2000/svg" xmlns:xlink="http://www.w3.org/1999/xlink" x="0px" y="0px"
	 viewBox="0 0 512 512" style="enable-background:new 0 0 512 512;" xml:space="preserve">
<style type="text/css">
	.st0{fill:#FFFFFF;}
</style>
<g>
	<g>
		<path class="st0" d="M33.8,330.3c-3.6,0-7-2.3-8.3-5.9l-1.3-3.6c-30.6-90.4,3.6-190.3,83.2-242.9c96.7-64,227.5-37.4,291.5,59.3
			c2.6,4.1,1.9,10.2-2.2,12.8c-4,2.6-9.1,2.1-11.7-1.9l7.4-4.8l-7.7,4.2c-59.1-89.3-179-113.7-267.6-55
			c-73,48.3-104.3,139.9-76.2,222.7l1.2,3.4c1.6,4.6-0.8,9.6-5.4,11.2C35.7,330.1,34.7,330.3,33.8,330.3z"/>
		<path class="st0" d="M223.6,462.9c-34.6,0-69.1-8.3-100.3-24.7c-4.3-2.3-5.9-7.6-3.7-11.8c2.3-4.3,7.6-5.9,11.8-3.7
			c55.2,29.1,121.7,30.3,177.9,3.2c55.3-28,94.5-81.4,104.6-142.7c0.8-4.8,5.2-8.1,10.1-7.2c4.8,0.8,8,5.3,7.2,10.1
			c-11,66.8-53.7,125-114.1,155.6C287.7,455.8,255.6,462.9,223.6,462.9z"/>
		<path class="st0" d="M154.5,394.2c-2.1,0-4.2-0.8-5.8-2.2c-10.7-9.5-19.3-20.8-25.6-33.7c-2.1-4.3-0.3-9.6,4-11.7l0.9-0.4
			c0.6-0.3,1.3-0.5,1.9-0.7c1.3-0.3,129-30,222.9-110l0.9-1c2-2.1,4.8-3.1,7.6-2.6c2.8,0.4,5.3,2.2,6.5,4.7
			c6.7,13.1,10.6,27.3,11.6,42c0.2,2.8-1,5.5-3.1,7.3c-87.2,73.3-198.4,102.8-219.9,108C155.8,394.1,155.1,394.2,154.5,394.2z
			 M144.1,360c3.7,5.7,8,11,12.9,15.8c24.8-6.5,125.6-35.5,204.6-100.3c-0.8-7-2.4-13.8-4.8-20.4C275.4,321,176.1,351.4,144.1,360z"
			/>
		<path class="st0" d="M218.6,417.2c-26.8,0-50.8-8.4-69.9-25.2c-2.5-2.2-3.5-5.5-2.7-8.7c0.8-3.2,3.3-5.6,6.4-6.4
			c12.7-3.1,126.7-32.1,212.7-104.4c2.5-2.1,6.1-2.6,9.1-1.4c3,1.3,5.1,4.2,5.3,7.5c3,47.3-27.6,90.5-84.1,118.6
			C268.5,410.6,242.4,417.2,218.6,417.2z M174.8,389.1c29.7,16.3,69.8,13.8,112.8-7.5c42.8-21.3,68.3-50.4,73.6-83.4
			C292,350.9,212.5,378.2,174.8,389.1z"/>
	</g>
	<path class="st0" d="M466.1,260.3c-4.9,0-9.9-0.8-14.7-2.4c-38.2-12.8-62.8-61.4-63.9-63.5c-1.1-2.2-1.2-4.7-0.4-6.9
		c0.8-2.3,2.6-4.1,4.8-5c12.5-5.7,54.8-23.1,88.7-11.7c11.6,3.9,21,12.1,26.5,23.1c5.5,11,6.3,23.4,2.4,35.1c0,0.1-0.1,0.2-0.1,0.3
		c-3.9,11.5-12.1,20.8-23,26.2C480,258.7,473.1,260.3,466.1,260.3z M407.9,194.7c8.1,13.3,26.2,38.9,49.1,46.6
		c7.2,2.4,14.9,1.9,21.7-1.5c6.8-3.4,11.9-9.2,14.3-16.4c0-0.1,0.1-0.2,0.1-0.3c2.3-7.1,1.8-14.7-1.6-21.5
		c-3.4-6.8-9.2-11.9-16.4-14.3C452.4,179.8,423.5,188.6,407.9,194.7z"/>
	<path class="st0" d="M45.9,469c-4.8,0-9.7-0.8-14.6-2.4c-0.1,0-0.2-0.1-0.4-0.1c-23.8-8.2-36.7-34.2-28.6-58.1
		c12.9-38.4,61.4-62.8,63.5-63.9c2.2-1.1,4.7-1.2,6.9-0.4c2.3,0.8,4.1,2.6,5,4.8c5.7,12.5,23.1,54.8,11.7,88.7
		C83.1,456.9,65.1,469,45.9,469z M65.6,364.9C52.3,373,26.7,391.1,19,414c-5,14.9,3,31,17.9,36l0,0c7.2,2.4,14.9,1.9,21.7-1.5
		c6.8-3.4,11.9-9.2,14.3-16.4C80.5,409.5,71.7,380.6,65.6,364.9z"/>
	<path class="st0" d="M135.2,297.7c-1.7,0-3.4-0.5-4.9-1.5c-4-2.7-5.1-8.2-2.4-12.2l28.8-42.7l-52.5-4.5c-4.8-0.4-8.4-4.7-8-9.5
		c0.4-4.8,4.6-8.5,9.5-8l67.4,5.8c3.1,0.3,5.8,2.1,7.2,5c1.3,2.8,1.1,6.1-0.6,8.7l-37.1,55C140.8,296.4,138,297.7,135.2,297.7z"/>
	<path class="st0" d="M305.3,213.2c-0.2,0-0.3,0-0.5,0l-66.3-3.6c-3.1-0.2-5.9-2-7.3-4.7c-1.4-2.8-1.3-6.1,0.4-8.7l36-57.2
		c2.6-4.1,8-5.3,12.1-2.7c4.1,2.6,5.3,8,2.7,12.1l-28.1,44.6l51.4,2.8c4.8,0.3,8.5,4.4,8.3,9.2C313.7,209.6,309.9,213.2,305.3,213.2
		z"/>
</g>
</svg>
