<svg xmlns="http://www.w3.org/2000/svg" xml:space="preserve" viewBox="0 0 512 512"><path d="M512 80v352c0 44.2-35.8 80-80 80H80c-44.2 0-80-35.8-80-80V80C0 35.8 35.8 0 80 0h352c44.2 0 80 35.8 80 80" style="fill-rule:evenodd;clip-rule:evenodd;fill:#0082c9"/><path d="M302.5 108c7.4 0 14.2 5 16.1 12.6l47 187.2c2.2 9-3.1 18.1-12.1 20.4l-168.4 43.5c-9 2.3-18.1-3-20.3-12l-47-187.2c-2.2-9 3.1-18.1 12.1-20.4l168.3-43.5c1.5-.4 2.9-.6 4.3-.6m42.3 5.5c9.3-.2 16.9 7.1 16.9 16.4l.9 69.8-21-86.1zm40.8 8.4c8 2.2 13.3 9.9 12.2 18.3l-10.2 74.5zM134.8 343.6l.1 4.9-2.8 20.4c-.6 4.8.7 9.2 3.4 12.7l.3 14.5c.2 9.2 7.1 16.6 16.1 17.6l4 16.5c2.8 11.3 14 18.1 25.3 15.4l140.4-34.3 44.6 5.9c8.5 1.1 16.5-4.3 18.7-12.4 3.1-2.7 5.4-6.4 6.1-10.6 9.9-3.6 15.7-14.1 13.1-24.7l-9.3-37.9 28.9-217.4c1.3-9.4-5.3-17.8-14.6-19.1l-27.7-3.7c-3.3-4.5-8.8-7.4-14.9-7.2l-33.8.7-1.5-.2c-4-4-9.7-6.3-15.6-6.1-1.4.1-2.8.2-4.2.6l-7.7 1.9-114-15.2c-.6-.1-1.2-.1-1.7-.1-8.6-.3-16.2 6-17.4 14.8l-1 8-22.1.4c-10 .2-17.9 8.5-17.7 18.5l.4 16.2-25.9 6.3c-11.3 2.8-18.2 14-15.4 25.3zm212.3 7.7c2 .1 3.4 1.3 4.2 3.7.4 1.4.1 3.8-1.6 4.3-.6.2-1.1-.1-1.3-.7-.3-1-.1-2.2-.4-3.3-.4-1.3-1.3-1.7-2.4-1.3-2.2.7-3 4.9-2.5 6.8.6 2 3.1 2.3 5.8 3.1 2.9-3.3 6-6.2 7.6-7.1.4-.2.9.1 1 .7-1.1 1.9-3.6 4.5-6.2 7.4 1.8.8 3.3 2.2 4.1 4.8 1.2 3.7-2.1 9.1-6.2 10.3-2.7.8-5.4-.5-6.2-3.2-.7-2.5.7-5.9 3.1-9.3-1.6-.4-3.3-.7-4.7-1.9-.7 3.6-3.6 8-7.1 9-2.3.7-4.7-.9-5.9-2.8-1 3-2.8 6.2-4.3 6.6-2.4.7-4-2.4-4.8-4.4-1.3 5.4-4.2 12.8-6.5 13.5-2 .6-2.7-.9-3-2.6-.4-2.2-.4-4.4-.2-6.6.1-1 .4-3.6.3-4.5-1.6 0-3.2.1-4.5-.1.1 1.9-2.7 5.5-5.2 6.6 0 4.8-1.9 9.2-5.3 10.3-2.9.9-5.9-1.6-7.3-5.9-1.1 3.6-2.8 7.5-3.9 7.9-2.1.7-3.2-2.2-3.7-3.7-1-3.4-1.1-7.1-2.2-10.5-.2-.6-.4-1.2-.8-1.7-1.9 1-1.9 14.6-4.2 15.3-1.6.5-2.2-1.8-2.5-2.8-.9-2.9-1.5-5.8-2.5-8.7-.2-.7-.7-2.2-1.3-2.8-1.5.7-1.3 11.5-1.3 13.5 0 2.4-.7 5.2-3.2 6-1.6.5-2.3-1.6-2.7-2.7q-.15-.45-.3-1.2c-1.3 3-3.6 5.9-6.3 6.8-1.4.4-2.8 0-4-.8-.4 6.3-1.8 13.8-6.2 15.2-2.5.7-5.9-.5-7.4-5.1-2.5-7.9-.2-17.4-2.5-25-.2-.7-.4-1.5-1.3-1.2-2.5.8-6.5 10.8-7.1 18.5-.1 1.8 0 3-.9 4.2-.4.6-1 1-1.5 1.2-1.1.4-1.6-1-1.6-1-2-6.5-1-17.5-2.7-22.8-.1-.1-.3-.9-.7-.8-1.8.6-5.3 17.6-5.5 23.8-.1 3.1.9 6.6-.4 9-.5.9-1.1 1.3-2.2 1.7-.8.2-1.5.3-1.9-1-.6-2-.8-4.2-1.5-9.1-.8-5.6-1.6-12.8-1.7-16.1-.4-5.6.3-9.1 1.7-9.6 1-.3 2.3.8 2.8 2.5 1 3 1.3 15.4 1.5 19.5.7-5.1 2-24.4 7.5-26.1 2-.6 4 1 5 4.2 1 3.4 1.3 9.6 1.4 12.8.7-5.4 3.9-13.5 8.2-14.9 3.3-1 4.8 2.3 5.5 4.7 2.8 9.1.1 16.6 2.5 24.3.8 2.6 2.2 2.9 3 2.7 2.2-.7 3.2-8.3 3.8-14.3-.1-.2-.1-.4-.2-.6-1.3-4.2-.7-11.3 4.2-12.8 1.9-.6 3.1.1 3.6 1.9 1 3-.8 8-3.9 9.2l.1.2c.4 1.2 1.6 2.8 3 2.4 2.1-.7 3.9-5.4 4.8-8.2-.8-4.7-1.2-10.4 1.3-11.2 1.3-.4 1.5.7 1.8 1.6 1 3 .5 6.4 1.2 9.5.3-3.3.5-13.9 4.4-15.1 2.6-.8 3.9 2.8 4.5 4.5.6 1.9.9 3.9 1.4 5.8.4-3.2 1.5-10.4 5.1-11.5 2-.6 3.6 1.6 4.1 3.2.8 2.6 1 5.3 1.3 8 .1 1.3.1 2.9.4 4.2 0 .1.1.3.3.3.9-.4 2.4-5.4 3.3-8.1.1-1.7.7-3.3 1.5-4.6l-.1-.3c-.7-2.4 1-5.9 3.2-6.6 2.8-.9 6.5 2.5 7.9 7 .2.6.4 1.2.4 1.8 1.3-.8 3-2.5 4.1-4-1-.5-1.9-1.6-2.3-3.4-.6-2.8-.4-6.4 2.8-7.4 2-.6 3.8 1.7 4.2 3.4.3 1.5-.1 3.7-.9 5.1 2.5.1 4.8-.6 5.4 2.3.6 2.8-.7 6-.1 8.7.1.2.1.7.5.6 1.2-.4 3.8-8.7 4.8-12.3-.5-3.5-.2-7.4 1.6-8 1.1-.4 1.9-.3 2.2.9.6 2-.9 4.8.8 10.3.1.4.5 1.5 1.2 1.3 1-.3 1.9-4.8 3-7.5-.2-3.9 1-8.3 4.8-9.5 1.9-.6 3.1.1 3.6 1.9 1 3-.8 8-3.9 9.2l.1.2c.4 1.2 1.6 2.8 3 2.4 2.1-.7 3.9-5.3 4.8-8.2-.1-.3-.2-.5-.3-.8-1.4-4.5.7-9.4 5.3-10.9.9-.1 1.7-.2 2.3-.2m-26.9 2.6c.9 0 1.5.9 1.7 1.7.4 1.3.2 3.3-1.3 3.9-1 .3-2.1-.7-2.5-1.6-.4-1.4-.2-3.3 1.6-3.9.2-.1.3-.1.5-.1m13.1 6.1h-.1c-1.6.5-1.7 5.7-1.4 7 1.4-.5 2.6-4.8 2.2-6.1-.1-.3-.3-.8-.7-.9m-28.1 5.4h-.2c-.9.3-.4 2.9-.3 3.5.1.7.7 1.9 1.5 2.1.5-.9.3-3.1.1-4.1-.1-.3-.5-1.4-1.1-1.5m43.7 2.6c-1.9 2.6-3.3 5.1-2.7 7.1.4 1.2 1.6 1.9 3 1.5 2.1-.7 3.7-4 3.2-5.7-.5-1.8-1.9-2.5-3.5-2.9m-55.8 3.8c-.1 0-.1 0-.2.1-.8.2-1.4 1.5-1.1 2.3.4 1.4 3.3 3 5.6 3.5-.1-.4-.1-.7-.3-1-.9-2.9-2.7-5-4-4.9m-1.3 6.7c-.4 1.3-.5 3.7 0 5.4.7 2.2 2.5 3.9 3.7 3.5 1.7-.5 2.5-3.5 2.3-6.7-2-.1-4.2-1-6-2.2m-40.1 7h-.1c-1.6.5-1.7 5.7-1.4 7 1.4-.5 2.6-4.8 2.2-6.1-.2-.3-.3-.8-.7-.9M183.2 179s24.1 44.4 27.4 43.5c3.6-1.8 37.8-59 39.6-66.2-27.9-5.8-54.1 9.4-67 22.7m81.1-21.1s-27.4 42.4-25 44.9c3.3 2.3 69.9 4.8 77.1 3-8.4-27.2-34.4-42.9-52.1-47.9m57.5 59.9s-50.5-1.8-51.4 1.6c-.3 3.9 31.7 62.5 36.9 67.7 19.1-21.2 19.3-51.5 14.5-69.3M298.9 296s-24.5-44.2-27.8-43.2c-3.5 1.8-37.2 59.3-39 66.6 27.9 5.5 54-10.1 66.8-23.4M219 316.4s25.6-43.6 23.1-45.9c-3.3-2.2-70-2-77.2.1 9.6 26.9 36.1 41.5 54.1 45.8m-58.1-58.7s50.5 1.9 51.4-1.5c.3-3.9-31.5-62.6-36.8-67.8-19.2 21.1-19.4 51.4-14.6 69.3" style="fill:#fff"/></svg>