<svg xmlns="http://www.w3.org/2000/svg" xml:space="preserve" viewBox="0 0 512 512"><path d="M0 75C0 33.6 33.6 0 75 0h362c41.4 0 75 33.6 75 75v362c0 41.4-33.6 75-75 75H75c-41.4 0-75-33.6-75-75z" style="fill:#d33d17"/><path d="M395.1 244c-30.9 0-56.7 22.2-62.3 51.5-46.5-.3-88.2-2.6-125-18.5-13.5-5.8-27.2-23.1-27.2-44.7v-71.5c28.5-5.6 50-30.7 50-60.8 0-34.2-27.8-62-62-62s-62 27.8-62 62c0 30.1 21.5 55.2 50 60.8v187.5c-28.5 5.6-50 30.7-50 60.8 0 34.2 27.8 62 62 62s62-27.8 62-62c0-30.1-21.5-55.2-50-60.8v-61c5.3 4.9 11.2 8.8 17.7 11.6 40.7 17.6 86.7 20.2 134.4 20.5 5.6 29.3 31.4 51.5 62.3 51.5 35 0 63.5-28.5 63.5-63.5S430.1 244 395.1 244M130.7 100c0-21 17.1-38 38-38s38 17.1 38 38-17.1 38-38 38-38-17-38-38m76 309.1c0 21-17.1 38-38 38s-38-17.1-38-38c0-20.6 16.4-37.4 36.8-38 .4 0 .8.1 1.2.1s.8 0 1.2-.1c20.4.6 36.8 17.4 36.8 38M395.1 347c-21.8 0-39.5-17.7-39.5-39.5s17.7-39.5 39.5-39.5 39.5 17.7 39.5 39.5-17.7 39.5-39.5 39.5" style="fill:#edeff2"/></svg>