<?xml version="1.0" encoding="utf-8"?>
<!-- Generator: Adobe Illustrator 28.2.0, SVG Export Plug-In . SVG Version: 6.00 Build 0)  -->
<svg version="1.1" id="Layer_1" xmlns="http://www.w3.org/2000/svg" xmlns:xlink="http://www.w3.org/1999/xlink" x="0px" y="0px"
	 viewBox="0 0 512 512" style="enable-background:new 0 0 512 512;" xml:space="preserve">
<style type="text/css">
	.st0{fill:#FFFFFF;}
</style>
<path class="st0" d="M434.6,307.5c0,21.8-17.7,39.5-39.5,39.5s-39.5-17.7-39.5-39.5s17.7-39.5,39.5-39.5S434.6,285.7,434.6,307.5z
	 M206.7,100c0-20.9-17.1-38-38-38c-20.9,0-38,17-38,38s17.1,38,38,38C189.6,138,206.7,120.9,206.7,100z M168.7,371.2
	c-0.4,0-0.8-0.1-1.2-0.1c-20.4,0.6-36.8,17.4-36.8,38c0,20.9,17.1,38,38,38c20.9,0,38-17,38-38c0-20.6-16.4-37.4-36.8-38
	C169.5,371.2,169.1,371.2,168.7,371.2z M512,75v362c0,41.4-33.6,75-75,75H75c-41.4,0-75-33.6-75-75V75C0,33.6,33.6,0,75,0h362
	C478.4,0,512,33.6,512,75z M458.5,307.4c0-35-28.4-63.4-63.4-63.4c-30.9,0-56.7,22.2-62.3,51.5c-46.5-0.3-88.2-2.6-125-18.5
	c-13.5-5.8-27.2-23.1-27.2-44.7v-71.5c28.5-5.6,50-30.7,50-60.8c0-34.2-27.8-62-62-62s-62,27.8-62,62c0,30.1,21.5,55.2,50,60.8
	v187.5c-28.5,5.6-50,30.7-50,60.8c0,34.2,27.8,62,62,62s62-27.8,62-62c0-30.1-21.5-55.2-50-60.8v-61c5.3,4.9,11.2,8.8,17.7,11.6
	c40.7,17.6,86.7,20.2,134.4,20.5c5.6,29.3,31.4,51.5,62.3,51.5C430,370.9,458.5,342.4,458.5,307.4z"/>
</svg>
