<svg xmlns="http://www.w3.org/2000/svg" xml:space="preserve" viewBox="0 0 512 512"><path d="M423.6 0H88.4C39.6 0 0 39.6 0 88.4v335.2C0 472.4 39.6 512 88.4 512h335.2c48.8 0 88.4-39.6 88.4-88.4V88.4C512 39.6 472.4 0 423.6 0M167.8 396H86.2V237.1c7.7 11.7 16.5 22.6 26.4 32.5 9.1 9.1 19.1 17.4 29.8 24.7 16 11 25.5 29.2 25.4 48.6zm142.3-53.1V396H201.9v-53.1c.1-30.7-15-59.4-40.2-76.7-49.3-33.7-77.8-90.4-75.3-150 75.3-3.2 144 42.8 169.6 113.7C281.7 159 350.3 113 425.6 116.2c2.5 59.7-25.9 116.4-75.3 150-25.2 17.3-40.3 46-40.2 76.7M425.8 396h-81.6v-53.1c-.1-19.4 9.4-37.6 25.4-48.6 10.7-7.3 20.7-15.6 29.8-24.7 9.9-9.9 18.7-20.8 26.4-32.5z"/></svg>