<svg xmlns="http://www.w3.org/2000/svg" xml:space="preserve" viewBox="0 0 512 512"><path d="M55.3 310.2c0 19.5 4.3 34.6 9.9 43.6 7.4 11.9 18.3 16.9 29.5 16.9 14.4 0 27.6-3.6 53-38.7 20.4-28.2 44.4-67.7 60.5-92.6l27.3-42c19-29.2 41-61.6 66.2-83.6C322.4 95.9 344.6 86 366.9 86c37.5 0 73.2 21.7 100.6 62.5 29.9 44.7 44.5 100.9 44.5 158.9 0 34.5-6.8 59.9-18.4 79.9-11.2 19.4-33 38.7-69.6 38.7v-55.2c31.4 0 39.2-28.8 39.2-61.9 0-47-11-99.2-35.1-136.5-17.1-26.5-39.4-42.6-63.8-42.6-26.4 0-47.7 19.9-71.6 55.5-12.7 18.9-25.8 41.9-40.4 67.9l-16.1 28.6c-32.4 57.5-40.6 70.5-56.8 92.1-28.4 37.8-52.6 52.2-84.6 52.2-37.9 0-61.8-16.4-76.7-41.1C5.9 364.8 0 338.4 0 308.3z" style="fill:#0081fb"/><linearGradient id="meta_svg__a" x1="110.989" x2="463.527" y1="265.812" y2="248.007" gradientTransform="matrix(1 0 0 -1 0 513)" gradientUnits="userSpaceOnUse"><stop offset="0" style="stop-color:#0064e1"/><stop offset=".4" style="stop-color:#0064e1"/><stop offset=".83" style="stop-color:#0073ee"/><stop offset="1" style="stop-color:#0082fb"/></linearGradient><path d="M43.6 152.4C69 113.3 105.5 86 147.5 86c24.3 0 48.5 7.2 73.7 27.8 27.6 22.5 57 59.6 93.7 120.7l13.2 21.9c31.8 52.9 49.8 80.1 60.4 93 13.6 16.5 23.1 21.4 35.5 21.4 31.4 0 39.2-28.8 39.2-61.9l48.8-1.5c0 34.5-6.8 59.9-18.4 79.9-11.2 19.4-33 38.7-69.6 38.7-22.8 0-43-4.9-65.3-26-17.2-16.2-37.2-44.9-52.7-70.7l-45.9-76.7c-23-38.5-44.2-67.2-56.4-80.2-13.2-14-30.1-30.9-57.1-30.9-21.8 0-40.4 15.3-55.9 38.8z" style="fill:url(#meta_svg__a)"/><linearGradient id="meta_svg__b" x1="73.757" x2="73.757" y1="179.548" y2="309.525" gradientTransform="matrix(1 0 0 -1 0 513)" gradientUnits="userSpaceOnUse"><stop offset="0" style="stop-color:#0082fb"/><stop offset="1" style="stop-color:#0064e0"/></linearGradient><path d="M146.6 141.6c-21.8 0-40.4 15.3-55.9 38.8-22 33.1-35.4 82.5-35.4 129.9 0 19.5 4.3 34.6 9.9 43.6L18.1 385C5.9 364.8 0 338.4 0 308.3c0-54.8 15-111.8 43.6-155.9C69 113.3 105.5 86 147.5 86z" style="fill:url(#meta_svg__b)"/></svg>