<?xml version="1.0" encoding="utf-8"?>
<!-- Generator: Adobe Illustrator 28.2.0, SVG Export Plug-In . SVG Version: 6.00 Build 0)  -->
<svg version="1.1" id="Layer_1" xmlns="http://www.w3.org/2000/svg" xmlns:xlink="http://www.w3.org/1999/xlink" x="0px" y="0px"
	 viewBox="0 0 512 512" style="enable-background:new 0 0 512 512;" xml:space="preserve">
<style type="text/css">
	.st0{opacity:0.2;fill:#509EE3;enable-background:new    ;}
	.st1{fill:#509EE3;}
</style>
<path class="st0" d="M170.1,99.7c17,0,30.7,14,30.7,31.2s-13.7,31.2-30.7,31.2s-30.7-14-30.7-31.2S153.1,99.7,170.1,99.7z M256,99.7
	c17,0,30.7,14,30.7,31.2S273,162.1,256,162.1s-30.7-14-30.7-31.2S239,99.7,256,99.7z M256,0c17,0,30.7,14,30.7,31.2
	S273,62.4,256,62.4s-30.7-14-30.7-31.2S239,0,256,0z M256,187.8c17,0,30.7,14,30.7,31.2S273,250.2,256,250.2s-30.7-14-30.7-31.2
	S239,187.8,256,187.8z M341.9,99.7c17,0,30.7,14,30.7,31.2s-13.7,31.2-30.7,31.2s-30.7-14-30.7-31.2S324.9,99.7,341.9,99.7z
	 M170.1,275.1c17,0,30.7,14,30.7,31.2s-13.7,31.2-30.7,31.2s-30.7-14-30.7-31.2S153.1,275.1,170.1,275.1z M341.9,275.1
	c17,0,30.7,14,30.7,31.2s-13.7,31.2-30.7,31.2s-30.7-14-30.7-31.2S324.9,275.1,341.9,275.1z M170.1,362.4c17,0,30.7,14,30.7,31.2
	s-13.7,31.2-30.7,31.2s-30.7-14-30.7-31.2S153.1,362.4,170.1,362.4z M256,362.4c17,0,30.7,14,30.7,31.2S273,424.8,256,424.8
	s-30.7-14-30.7-31.2S239,362.4,256,362.4z M256,449.6c17,0,30.7,14,30.7,31.2S273,512,256,512s-30.7-14-30.7-31.2
	S239,449.6,256,449.6z M341.9,362.4c17,0,30.7,14,30.7,31.2s-13.7,31.2-30.7,31.2s-30.7-14-30.7-31.2S324.9,362.4,341.9,362.4z"/>
<path class="st1" d="M84.2,99.7c17,0,30.7,14,30.7,31.2s-13.7,31.2-30.7,31.2s-30.7-14-30.7-31.2S67.2,99.7,84.2,99.7z M84.2,187
	c17,0,30.7,14,30.7,31.2s-13.7,31.2-30.7,31.2s-30.7-14-30.7-31.2S67.2,187,84.2,187z M170.1,187.8c17,0,30.7,14,30.7,31.2
	s-13.7,31.2-30.7,31.2s-30.7-14-30.7-31.2S153.1,187.8,170.1,187.8z M427.8,99.7c17,0,30.7,14,30.7,31.2s-13.7,31.2-30.7,31.2
	s-30.7-14-30.7-31.2S410.8,99.7,427.8,99.7z M341.9,187.8c17,0,30.7,14,30.7,31.2s-13.7,31.2-30.7,31.2s-30.7-14-30.7-31.2
	S324.9,187.8,341.9,187.8z M427.8,187.8c17,0,30.7,14,30.7,31.2s-13.7,31.2-30.7,31.2s-30.7-14-30.7-31.2S410.8,187.8,427.8,187.8z
	 M84.2,274.2c17,0,30.7,14,30.7,31.2s-13.7,31.2-30.7,31.2s-30.7-14-30.7-31.2S67.2,274.2,84.2,274.2z M256,275.1
	c17,0,30.7,14,30.7,31.2S273,337.5,256,337.5s-30.7-14-30.7-31.2S239,275.1,256,275.1z M427.8,275.1c17,0,30.7,14,30.7,31.2
	s-13.7,31.2-30.7,31.2s-30.7-14-30.7-31.2S410.8,275.1,427.8,275.1z M84.2,361.5c17,0,30.7,14,30.7,31.2s-13.7,31.2-30.7,31.2
	s-30.7-14-30.7-31.2S67.2,361.5,84.2,361.5z M427.8,362.4c17,0,30.7,14,30.7,31.2s-13.7,31.2-30.7,31.2s-30.7-14-30.7-31.2
	S410.8,362.4,427.8,362.4z"/>
</svg>
