<svg xmlns="http://www.w3.org/2000/svg" xml:space="preserve" viewBox="0 0 512 512"><path d="M199.1 75.5c-71.5 1.7-112.4 4.1-130.4 7.8-41.6 8.3-59.4 29.1-66.5 77.2C0 175.1-.9 273.4.8 312.5c1.7 40.1 4.5 58.4 11.4 74.6 10.6 24.7 28.5 36.9 63.5 43.2 22.9 4.2 75.8 6.7 143.4 6.8 41.5 0 165.6-2.8 184.4-4.1 29.1-2.1 54.5-7.4 68.6-14 23.2-11.1 34.9-38.1 38.9-90.4 1.3-17.1 1.3-122.8 0-142.6-2.2-33.9-5.5-50-13.4-66.3-8.9-18.2-21.8-28.6-42.1-33.8-13.1-3.4-44.6-6.8-86.9-9.3-24-1.6-123.7-2.1-169.5-1.1m134.7 97.9c0 .3-17.3 30-38.4 66-21.1 35.9-38.4 65.7-38.4 66s17.3.6 38.4.6h38.4v32.8H178.2V306h38.5c31.7 0 38.4-.2 38-1.3-.3-.8-17.6-30.5-38.5-66.1s-38-64.8-38-65.1 35-.6 77.8-.6 77.8.2 77.8.5" style="fill:#f55848"/></svg>