<svg xmlns="http://www.w3.org/2000/svg" xml:space="preserve" id="microsoft-word_svg__Livello_1" x="0" y="0" version="1.1" viewBox="0 0 512 512"><style>.microsoft-word_svg__st5{opacity:.2;enable-background:new}</style><path d="M490.2 17.9H140.9c-12.1 0-21.8 9.8-21.8 21.8v97.2l202.4 59.5L512 136.9V39.7c0-12.1-9.8-21.8-21.8-21.8" style="fill:#41a5ee"/><path d="M512 136.9H119.1V256l202.4 35.7L512 256z" style="fill:#2b7cd3"/><path d="M119.1 256v119.1l190.5 23.8L512 375.1V256z" style="fill:#185abd"/><path d="M140.9 494.1h349.3c12.1 0 21.8-9.8 21.8-21.8v-97.2H119.1v97.2c0 12.1 9.7 21.8 21.8 21.8" style="fill:#103f91"/><path d="M263.9 113.1H119.1v297.7H264c12 0 21.8-9.8 21.8-21.8V135c-.1-12.1-9.8-21.8-21.9-21.9" style="opacity:.1"/><path d="M252 125H119v297.7h133c12 0 21.8-9.8 21.8-21.8v-254c0-12.1-9.7-21.8-21.8-21.9" class="microsoft-word_svg__st5"/><path d="M252 125H119v273.9h133c12 0 21.8-9.8 21.8-21.8V146.8c0-12-9.7-21.7-21.8-21.8" class="microsoft-word_svg__st5"/><path d="M240.1 125h-121v273.9h121.1c12 0 21.8-9.8 21.8-21.8V146.8c-.1-12-9.8-21.7-21.9-21.8" class="microsoft-word_svg__st5"/><linearGradient id="microsoft-word_svg__SVGID_1_" x1="45.489" x2="216.395" y1="1366.036" y2="1070.033" gradientTransform="matrix(1 0 0 -1 0 1474)" gradientUnits="userSpaceOnUse"><stop offset="0" style="stop-color:#2368c4"/><stop offset=".5" style="stop-color:#1a5dbe"/><stop offset="1" style="stop-color:#1146ac"/></linearGradient><path d="M21.8 125h218.3c12.1 0 21.8 9.8 21.8 21.8v218.3c0 12.1-9.8 21.8-21.8 21.8H21.8C9.8 387 0 377.2 0 365.2V146.8c0-12 9.8-21.8 21.8-21.8" style="fill:url(#microsoft-word_svg__SVGID_1_)"/><path d="M89.6 292.4c.4 3.4.7 6.3.8 8.8h.5c.2-2.4.6-5.3 1.2-8.6.6-3.4 1.1-6.2 1.6-8.5l23-99h29.7l23.8 97.6c1.4 6.1 2.4 12.2 3 18.4h.4c.4-6 1.3-12 2.5-17.9l19-98.1h27L188.7 327h-31.6l-22.6-94c-.7-2.7-1.4-6.2-2.2-10.6-.8-4.3-1.3-7.5-1.5-9.5h-.4c-.3 2.3-.8 5.7-1.5 10.3-.8 4.5-1.4 7.9-1.8 10.1L105.8 327H73.6L40 185.1h27.5l20.7 99.2c.5 2 .9 4.8 1.4 8.1" style="fill:#fff"/></svg>