<svg xmlns="http://www.w3.org/2000/svg" xml:space="preserve" viewBox="0 0 512 512"><path d="M75.6 106v304.5h358.6V106zm111.6 270.7c-45.5 0-82.3-36.9-82.3-82.3 0-45.5 36.9-82.3 82.3-82.3v82.3h82.3c0 45.4-36.8 82.3-82.3 82.3m118.4-72.2h-13.5V291h13.5zm0-36.1h-13.5v-15.8h13.5zm0-38.3h-13.5v-13.5h13.5zm97 74.4h-83.5V291h83.5zm0-36.1h-83.5v-15.8h83.5zm0-38.3h-83.5v-13.5h83.5zm4.5-54.2H104.9v-38.3h302.2zM1.1 0h509.7v512H1.1zm42.8 42.8v426.4h424.2V42.8z" style="fill-rule:evenodd;clip-rule:evenodd;fill:#fff"/></svg>