<svg xmlns="http://www.w3.org/2000/svg" xml:space="preserve" id="microsoft-teams_svg__Layer_1" x="0" y="0" version="1.1" viewBox="0 0 512 512"><style>.microsoft-teams_svg__st0{fill:#5059c9}.microsoft-teams_svg__st1{fill:#7b83eb}.microsoft-teams_svg__st2{opacity:.1;enable-background:new}.microsoft-teams_svg__st3{enable-background:new;opacity:.2}</style><circle cx="446.5" cy="119.1" r="53.6" class="microsoft-teams_svg__st0"/><path d="M357.1 196.5h132.3c12.5 0 22.6 10.1 22.6 22.6v120.5c0 45.9-37.2 83.1-83.1 83.1h-.4c-45.9 0-83.2-37.2-83.2-83.1V208.3c0-6.5 5.3-11.8 11.8-11.8" class="microsoft-teams_svg__st0"/><circle cx="279.8" cy="95.3" r="77.4" class="microsoft-teams_svg__st1"/><path d="M383 196.5H164.7c-12.3.3-22.1 10.6-21.8 22.9v137.4c-1.7 74.1 56.9 135.6 131 137.4 74.1-1.8 132.7-63.3 131-137.4V219.4c.2-12.4-9.5-22.6-21.9-22.9" class="microsoft-teams_svg__st1"/><path d="M285.8 196.5V389c-.1 8.8-5.4 16.8-13.6 20.1-2.6 1.1-5.4 1.7-8.2 1.7H153.4c-1.5-3.9-3-7.9-4.2-11.9-4.2-13.7-6.3-27.9-6.3-42.2V219.3c-.3-12.3 9.5-22.6 21.8-22.9z" class="microsoft-teams_svg__st2"/><path d="M273.9 196.5v204.4c0 2.8-.6 5.6-1.7 8.2-3.4 8.2-11.3 13.5-20.1 13.6H159c-2-3.9-3.9-7.9-5.6-11.9s-3-7.9-4.2-11.9c-4.2-13.7-6.3-27.9-6.3-42.2V219.3c-.3-12.3 9.5-22.6 21.8-22.9z" class="microsoft-teams_svg__st3"/><path d="M273.9 196.5v180.6c-.1 12-9.8 21.7-21.8 21.8H149.2c-4.2-13.7-6.3-27.9-6.3-42.2V219.3c-.3-12.3 9.5-22.6 21.8-22.9z" class="microsoft-teams_svg__st3"/><path d="M262 196.5v180.6c-.1 12-9.8 21.7-21.8 21.8h-91c-4.2-13.7-6.3-27.9-6.3-42.2V219.3c-.3-12.3 9.5-22.6 21.8-22.9z" class="microsoft-teams_svg__st3"/><path d="M285.8 134.9v37.5c-2 .1-3.9.2-6 .2-2 0-3.9-.1-6-.2-4-.3-8-.9-11.9-1.9-24.1-5.7-44-22.6-53.6-45.5-1.6-3.8-2.9-7.8-3.8-11.9H264c12 .1 21.7 9.8 21.8 21.8" class="microsoft-teams_svg__st2"/><path d="M273.9 146.8v25.6c-4-.3-8-.9-11.9-1.9-24.1-5.7-44-22.6-53.6-45.5h43.7c12 .1 21.7 9.8 21.8 21.8" class="microsoft-teams_svg__st3"/><path d="M273.9 146.8v25.6c-4-.3-8-.9-11.9-1.9-24.1-5.7-44-22.6-53.6-45.5h43.7c12 .1 21.7 9.8 21.8 21.8" class="microsoft-teams_svg__st3"/><path d="M262 146.8v23.7c-24.1-5.7-44-22.6-53.6-45.5h31.8c12 .1 21.7 9.8 21.8 21.8" class="microsoft-teams_svg__st3"/><linearGradient id="microsoft-teams_svg__SVGID_1_" x1="45.489" x2="216.395" y1="1689.369" y2="1393.367" gradientTransform="matrix(1 0 0 -1 0 1797.333)" gradientUnits="userSpaceOnUse"><stop offset="0" style="stop-color:#5a62c3"/><stop offset=".5" style="stop-color:#4d55bd"/><stop offset="1" style="stop-color:#3940ab"/></linearGradient><path d="M21.8 125h218.3c12.1 0 21.8 9.8 21.8 21.8v218.3c0 12.1-9.8 21.8-21.8 21.8H21.8C9.8 387 0 377.2 0 365.2V146.8c0-12 9.8-21.8 21.8-21.8" style="fill:url(#microsoft-teams_svg__SVGID_1_)"/><path d="M188.4 208.1h-43.6v118.8H117V208.1H73.5V185h114.9z" style="fill:#fff"/></svg>