<?xml version="1.0" encoding="utf-8"?>
<!-- Generator: Adobe Illustrator 28.2.0, SVG Export Plug-In . SVG Version: 6.00 Build 0)  -->
<svg version="1.1" id="Layer_1" xmlns="http://www.w3.org/2000/svg" xmlns:xlink="http://www.w3.org/1999/xlink" x="0px" y="0px"
	 viewBox="0 0 512 512" style="enable-background:new 0 0 512 512;" xml:space="preserve">
<path d="M402.1,359.5c0,1.2,0,2.3,0,3.5c0,0.6,0,1.3,0,1.9c0,0.5,0,1,0,1.5c0,0.9-0.1,1.8-0.1,2.6c0,0.2,0,0.4,0,0.7
	c-3.7,67.6-58.9,122.2-127.6,124c-59.2-1.5-108.4-42.3-123.2-96.8h88.5c16,0,29-13,29-29V201.6h117.5c0.3,0,0.6,0,0.9,0.1
	c0.3,0,0.5,0,0.8,0.1c0.3,0,0.6,0.1,0.8,0.1c0.3,0,0.5,0.1,0.8,0.1c0.3,0.1,0.5,0.1,0.8,0.2c0.3,0.1,0.5,0.1,0.8,0.2
	c0.3,0.1,0.5,0.2,0.7,0.3c0.2,0.1,0.5,0.2,0.7,0.3c0.2,0.1,0.5,0.2,0.7,0.3c0.2,0.1,0.5,0.2,0.7,0.4c0.2,0.1,0.4,0.3,0.6,0.4
	c0.2,0.1,0.5,0.3,0.7,0.4c0.2,0.1,0.4,0.3,0.6,0.4c0.2,0.2,0.4,0.3,0.7,0.5c0.2,0.2,0.3,0.3,0.5,0.5c0.2,0.2,0.4,0.4,0.6,0.6
	c0.2,0.2,0.3,0.3,0.4,0.5c0.2,0.2,0.4,0.4,0.6,0.7c0.1,0.2,0.3,0.4,0.4,0.5c0.2,0.2,0.4,0.5,0.5,0.7c0.1,0.2,0.2,0.4,0.3,0.6
	c0.2,0.3,0.3,0.5,0.5,0.8c0.1,0.2,0.2,0.4,0.3,0.6c0.1,0.3,0.3,0.6,0.4,0.9c0.1,0.2,0.1,0.4,0.2,0.6c0.1,0.3,0.2,0.6,0.3,0.9
	c0.1,0.2,0.1,0.4,0.1,0.6c0.1,0.3,0.2,0.6,0.2,0.9c0,0.2,0.1,0.5,0.1,0.7c0,0.3,0.1,0.6,0.1,0.9c0,0.6,0.1,1.1,0.1,1.7l0,141.1
	L402.1,359.5C402.1,359.5,402.1,359.5,402.1,359.5z M239.7,114.9c16,0,29,13,29,29v19c3.8,0.6,7.7,1,11.7,1
	c40.1,0,72.7-32.6,72.7-72.7c0-40.1-32.6-72.7-72.7-72.7c-40.1,0-72.7,32.6-72.7,72.7c0,8.3,1.4,16.3,4,23.8H239.7z M495.5,201.6
	h-85c0,0,0,0.1,0.1,0.1c0.3,0.5,0.7,1.1,1,1.6c0.1,0.1,0.1,0.2,0.2,0.4c0.3,0.5,0.5,1,0.8,1.5c0,0.1,0.1,0.2,0.1,0.3
	c0.3,0.6,0.5,1.2,0.8,1.8c0.1,0.1,0.1,0.3,0.1,0.4c0.2,0.6,0.4,1.1,0.6,1.7c0,0.1,0,0.1,0.1,0.2c0.2,0.6,0.4,1.3,0.5,1.9
	c0,0.1,0.1,0.3,0.1,0.4c0.1,0.6,0.2,1.3,0.3,1.9c0,0,0,0.1,0,0.1c0.1,0.7,0.2,1.3,0.2,2c0,0.2,0,0.3,0,0.5c0,0.7,0.1,1.4,0.1,2.1
	c0,0,0,0,0,0v0v140.9c0,0,0,0,0,0c0,1.2,0,2.5,0,3.7c0,0,0,0,0,0.1c-0.1,18.1-3.4,35.6-10,52.3c8.8,3.3,18,4.9,27.5,4.9h0.4
	c43.3,0,78.6-35.3,78.6-78.6V218.1C512,209,504.6,201.6,495.5,201.6z M451.5,163.8c26.6,0,48.3-21.7,48.3-48.3s-21.7-48.3-48.3-48.3
	c-26.6,0-48.3,21.7-48.3,48.3S424.8,163.8,451.5,163.8z M239.7,128.2c8.7,0,15.7,7,15.7,15.7v224c0,8.7-7,15.7-15.7,15.7h-224
	c0,0-0.1,0-0.1,0c-4.1,0-7.9-1.6-10.9-4.5c-3-3-4.6-6.9-4.6-11.1V143.9c0-8.7,7-15.7,15.7-15.7H239.7z M186.6,183.1H68.7v23.7h44.6
	v121.9h28.5V206.8h44.7V183.1z"/>
</svg>
