<svg xmlns="http://www.w3.org/2000/svg" xml:space="preserve" viewBox="0 0 512 512"><linearGradient id="microsoft-access_svg__a" x1="480" x2="96" y1="474" y2="474" gradientTransform="translate(0 -58)" gradientUnits="userSpaceOnUse"><stop offset="0" style="stop-color:#9c0d55"/><stop offset=".51" style="stop-color:#a61727"/><stop offset="1" style="stop-color:#8a1421"/></linearGradient><path d="M480 320v128c0 35.3-86 64-192 64S96 483.3 96 448V320z" style="fill:url(#microsoft-access_svg__a)"/><radialGradient id="microsoft-access_svg__b" cx="-585.297" cy="-276.974" r="12.8" gradientTransform="matrix(0 15 -38.73 0 -10436.94 9099.5)" gradientUnits="userSpaceOnUse"><stop offset=".21" style="stop-color:#560b14"/><stop offset=".6" style="stop-color:#560b14;stop-opacity:0"/></radialGradient><path d="M480 320v128c0 35.3-86 64-192 64S96 483.3 96 448V320z" style="fill:url(#microsoft-access_svg__b);fill-opacity:.7"/><linearGradient id="microsoft-access_svg__c" x1="480" x2="96" y1="346" y2="346" gradientTransform="translate(0 -58)" gradientUnits="userSpaceOnUse"><stop offset="0" style="stop-color:#f24a9d"/><stop offset=".51" style="stop-color:#e82c41"/><stop offset="1" style="stop-color:#ca2134"/></linearGradient><path d="M480 192v128c0 35.3-86 64-192 64S96 355.3 96 320V192z" style="fill:url(#microsoft-access_svg__c)"/><radialGradient id="microsoft-access_svg__d" cx="-593.167" cy="-276.974" r="12.8" gradientTransform="matrix(0 15 -38.73 0 -10436.94 9089.5)" gradientUnits="userSpaceOnUse"><stop offset=".21" style="stop-color:#560b14"/><stop offset=".75" style="stop-color:#560b14;stop-opacity:0"/></radialGradient><path d="M480 192v128c0 35.3-86 64-192 64S96 355.3 96 320V192z" style="fill:url(#microsoft-access_svg__d);fill-opacity:.3"/><linearGradient id="microsoft-access_svg__e" x1="480" x2="96" y1="218" y2="218" gradientTransform="translate(0 -58)" gradientUnits="userSpaceOnUse"><stop offset="0" style="stop-color:#f97dbd"/><stop offset=".51" style="stop-color:#fb5b6c"/><stop offset="1" style="stop-color:#f83f54"/></linearGradient><path d="M480 64v128c0 35.3-86 64-192 64S96 227.3 96 192V64z" style="fill:url(#microsoft-access_svg__e)"/><radialGradient id="microsoft-access_svg__f" cx="-601.037" cy="-276.974" r="12.8" gradientTransform="matrix(0 15 -38.73 0 -10436.94 9079.5)" gradientUnits="userSpaceOnUse"><stop offset=".21" style="stop-color:#ff9fb2"/><stop offset=".63" style="stop-color:#ff9fb2;stop-opacity:0"/></radialGradient><path d="M480 64v128c0 35.3-86 64-192 64S96 227.3 96 192V64z" style="fill:url(#microsoft-access_svg__f);fill-opacity:.4"/><linearGradient id="microsoft-access_svg__g" x1="309.798" x2="261.26" y1="40.253" y2="222.28" gradientTransform="translate(0 -58)" gradientUnits="userSpaceOnUse"><stop offset="0" style="stop-color:#f97dbd"/><stop offset=".9" style="stop-color:#ff9fb2"/></linearGradient><path d="M288 128C182 128 96 99.3 96 64S182 0 288 0s192 28.7 192 64-86 64-192 64" style="fill:url(#microsoft-access_svg__g)"/><radialGradient id="microsoft-access_svg__h" cx="-588.453" cy="-257.798" r="12.8" gradientTransform="rotate(45 -13974.478 13316.691)scale(22.63)" gradientUnits="userSpaceOnUse"><stop offset="0" style="stop-color:#e82c58"/><stop offset=".94" style="stop-color:#aa1d2d"/></radialGradient><path d="M73.6 243.2h121.6c23 0 41.6 18.6 41.6 41.6v121.6c0 23-18.6 41.6-41.6 41.6H73.6c-23 0-41.6-18.6-41.6-41.6V284.8c0-23 18.6-41.6 41.6-41.6" style="fill:url(#microsoft-access_svg__h)"/><radialGradient id="microsoft-access_svg__i" cx="-567.87" cy="-312.659" r="12.804" gradientTransform="matrix(0 11.2 -12.75 0 -3852 6726.2)" gradientUnits="userSpaceOnUse"><stop offset=".58" style="stop-color:#ff5778;stop-opacity:0"/><stop offset=".97" style="stop-color:#ff9fb2"/></radialGradient><path d="M73.6 243.2h121.6c23 0 41.6 18.6 41.6 41.6v121.6c0 23-18.6 41.6-41.6 41.6H73.6c-23 0-41.6-18.6-41.6-41.6V284.8c0-23 18.6-41.6 41.6-41.6" style="fill:url(#microsoft-access_svg__i);fill-opacity:.5"/><path d="m77.3 404.1 42-117.1h31.3l41 117.1h-27.8l-8.1-23.4h-42.9l-7.9 23.4zm41.4-45h30.6l-12.5-40.9c-.4-1.5-.8-2.8-1.2-4s-.8-2.7-1.1-4.3h-.7c-.3 1.4-.7 2.7-1.1 4s-.8 2.7-1.3 4.2z" style="fill:#fff"/></svg>