<svg xmlns="http://www.w3.org/2000/svg" xml:space="preserve" viewBox="0 0 512 512"><path d="M504.7 298.7c-2 23.9-22 42.7-46.4 42.7h-279v79.2h-29.5l-40.1-60.1c-7.8 6.4-14.5 14.1-19.6 22.8v37.2H78.5c-.1 1.8-.2 3.6-.2 5.4.7 47.6 39.5 85.9 87.2 85.9l292.9.1c25.7 0 46.6-20.8 46.6-46.5V298.7z" style="opacity:.8;fill:#fff"/><path d="M455.1 170.7h-42.7c-27.5 0-49.8 22.3-49.8 49.8v71.1c0 27.5-22.3 49.8-49.8 49.8h-7.1 152.6c25.7 0 46.5-20.8 46.5-46.5V121.1c0 27.4-22.3 49.6-49.7 49.6" style="opacity:.6;fill:#fff"/><path d="M455.1 0H163.6c-47.1 0-85.3 38.2-85.3 85.3v205.2H94l37.8 56.9c6.3-2.5 13-4.3 19.9-5.3v-51.6h27.6v50.8h133.5c27.5 0 49.8-22.3 49.8-49.8v-71.1c0-27.5 22.3-49.8 49.8-49.8h42.7c27.5 0 49.8-22.3 49.8-49.8v-71c0-27.5-22.3-49.8-49.8-49.8" style="opacity:.4;fill:#fff"/><path d="M188.4 241.8H53.3c-25.5 0-46.2 20.7-46.2 46.2v135.1c0 25.5 20.7 46.2 46.2 46.2h135.1c25.5 0 46.2-20.7 46.2-46.2V288c.1-25.5-20.6-46.2-46.2-46.2m-9.1 178.8h-29.5l-53.6-80.3c-1.5-2.4-2.8-4.5-3.8-6.3q-1.5-2.7-2.4-4.5h-.4q.15 3.45.3 8.7c.1 3.5.1 7.6.1 12.3v70H62.4v-130H94l51.6 77.7c1.1 1.8 2.1 3.5 3.2 5.4 1.1 1.8 2.1 3.5 3 5.3h.4c-.1-1.5-.2-3.7-.3-6.7s-.1-6.7-.1-11.2v-70.5h27.6v130.1z" style="fill:#fff"/></svg>