<svg xmlns="http://www.w3.org/2000/svg" xml:space="preserve" viewBox="0 0 512 512"><radialGradient id="microsoft-onedrive_svg__a" cx="-645.674" cy="809.09" r="11.852" gradientTransform="matrix(8.7243 10.4537 17.3393 -14.4709 -8386.006 18614.486)" gradientUnits="userSpaceOnUse"><stop offset="0" style="stop-color:#4894fe"/><stop offset=".695" style="stop-color:#0934b3"/></radialGradient><path d="M141.5 137.9C63.2 137.9 4.7 202 .3 273.4 3 288.7 12 319.1 26 317.5c17.5-1.9 61.7 0 99.4-68.2 27.6-49.9 84.2-111.4 16.1-111.4" style="fill:url(#microsoft-onedrive_svg__a)"/><radialGradient id="microsoft-onedrive_svg__b" cx="-712.098" cy="820.107" r="11.852" gradientTransform="matrix(-38.3526 44.2396 32.7819 28.4196 -53752.285 8166.578)" gradientUnits="userSpaceOnUse"><stop offset=".165" style="stop-color:#23c0fe"/><stop offset=".534" style="stop-color:#1c91ff"/></radialGradient><path d="M123.4 164.5c-26.3 41.7-61.7 101.4-73.7 120.1C35.5 307-2.1 297.5 1 265.5c-.3 2.6-.5 5.2-.7 7.9-5.1 83.3 60.9 152.4 143 152.4 90.5 0 306.5-112.8 284.6-225.9-23-66.4-87.8-114.1-161.1-114.1s-120.4 42.3-143.4 78.7" style="fill:url(#microsoft-onedrive_svg__b)"/><radialGradient id="microsoft-onedrive_svg__c" cx="-778.209" cy="790.153" r="11.852" gradientTransform="matrix(-9.1169 -7.6538 -17.5211 20.8705 6864.244 -22281.373)" gradientUnits="userSpaceOnUse"><stop offset="0" style="stop-color:#fff"/><stop offset=".66" style="stop-color:#adc0ff;stop-opacity:0"/></radialGradient><path d="M123.4 164.5c-26.3 41.7-61.7 101.4-73.7 120.1C35.5 307-2.1 297.5 1 265.5c-.3 2.6-.5 5.2-.7 7.9-5.1 83.3 60.9 152.4 143 152.4 90.5 0 306.5-112.8 284.6-225.9-23-66.4-87.8-114.1-161.1-114.1s-120.4 42.3-143.4 78.7" style="fill:url(#microsoft-onedrive_svg__c);fill-opacity:.4"/><radialGradient id="microsoft-onedrive_svg__d" cx="-785.013" cy="788.94" r="11.852" gradientTransform="matrix(-10.2426 -8.6667 -13.1622 15.5555 2611.776 -18743.332)" gradientUnits="userSpaceOnUse"><stop offset="0" style="stop-color:#033acc"/><stop offset="1" style="stop-color:#368eff;stop-opacity:0"/></radialGradient><path d="M123.4 164.5c-26.3 41.7-61.7 101.4-73.7 120.1C35.5 307-2.1 297.5 1 265.5c-.3 2.6-.5 5.2-.7 7.9-5.1 83.3 60.9 152.4 143 152.4 90.5 0 306.5-112.8 284.6-225.9-23-66.4-87.8-114.1-161.1-114.1s-120.4 42.3-143.4 78.7" style="fill:url(#microsoft-onedrive_svg__d)"/><radialGradient id="microsoft-onedrive_svg__e" cx="-681.337" cy="815.638" r="11.852" gradientTransform="matrix(11.7057 27.0132 29.1623 -12.637 -15704.936 28787.346)" gradientUnits="userSpaceOnUse"><stop offset=".593" style="stop-color:#3464e3;stop-opacity:0"/><stop offset="1" style="stop-color:#033acc"/></radialGradient><path d="M123.4 164.5c-26.3 41.7-61.7 101.4-73.7 120.1C35.5 307-2.1 297.5 1 265.5c-.3 2.6-.5 5.2-.7 7.9-5.1 83.3 60.9 152.4 143 152.4 90.5 0 306.5-112.8 284.6-225.9-23-66.4-87.8-114.1-161.1-114.1s-120.4 42.3-143.4 78.7" style="fill:url(#microsoft-onedrive_svg__e);fill-opacity:.6"/><radialGradient id="microsoft-onedrive_svg__f" cx="-716.29" cy="811.473" r="11.852" gradientTransform="rotate(135 -26694.733 -21009.038)scale(43.306 -67.846)" gradientUnits="userSpaceOnUse"><stop offset="0" style="stop-color:#4bfde8"/><stop offset=".544" style="stop-color:#4bfde8;stop-opacity:0"/></radialGradient><path d="M123.4 164.5c-26.3 41.7-61.7 101.4-73.7 120.1C35.5 307-2.1 297.5 1 265.5c-.3 2.6-.5 5.2-.7 7.9-5.1 83.3 60.9 152.4 143 152.4 90.5 0 306.5-112.8 284.6-225.9-23-66.4-87.8-114.1-161.1-114.1s-120.4 42.3-143.4 78.7" style="fill:url(#microsoft-onedrive_svg__f);fill-opacity:.9"/><linearGradient id="microsoft-onedrive_svg__g" x1="326.993" x2="326.993" y1="88.032" y2="320.14" gradientTransform="matrix(1 0 0 -1 0 514)" gradientUnits="userSpaceOnUse"><stop offset="0" style="stop-color:#0086ff"/><stop offset=".49" style="stop-color:#0bf"/></linearGradient><path d="M142 425.8s216.2.4 252.9.4c66.5 0 117.1-54.3 117.1-117.7s-51.6-117.4-117.1-117.4-103.3 49-131.6 102.5C230 356.3 187.6 425 142 425.8" style="fill:url(#microsoft-onedrive_svg__g)"/><radialGradient id="microsoft-onedrive_svg__h" cx="-651.845" cy="793.782" r="11.852" gradientTransform="matrix(18.2415 7.2342 13.6992 -34.5432 1222.237 32354.115)" gradientUnits="userSpaceOnUse"><stop offset="0" style="stop-color:#fff"/><stop offset=".785" style="stop-color:#fff;stop-opacity:0"/></radialGradient><path d="M142 425.8s216.2.4 252.9.4c66.5 0 117.1-54.3 117.1-117.7s-51.6-117.4-117.1-117.4-103.3 49-131.6 102.5C230 356.3 187.6 425 142 425.8" style="fill:url(#microsoft-onedrive_svg__h);fill-opacity:.4"/><radialGradient id="microsoft-onedrive_svg__i" cx="-725.08" cy="837.446" r="11.852" gradientTransform="matrix(-20.3789 17.5639 17.6235 20.448 -29030.316 -4215.985)" gradientUnits="userSpaceOnUse"><stop offset="0" style="stop-color:#4bfde8"/><stop offset=".585" style="stop-color:#4bfde8;stop-opacity:0"/></radialGradient><path d="M142 425.8s216.2.4 252.9.4c66.5 0 117.1-54.3 117.1-117.7s-51.6-117.4-117.1-117.4-103.3 49-131.6 102.5C230 356.3 187.6 425 142 425.8" style="fill:url(#microsoft-onedrive_svg__i);fill-opacity:.9"/></svg>