<svg xmlns="http://www.w3.org/2000/svg" xml:space="preserve" viewBox="0 0 512 512"><linearGradient id="microsoft-defender_svg__a" x1="447.506" x2="145.363" y1="283.025" y2="40.866" gradientTransform="matrix(1 0 0 -1 0 514)" gradientUnits="userSpaceOnUse"><stop offset=".716" style="stop-color:#143de0"/><stop offset=".978" style="stop-color:#003375"/></linearGradient><path d="M483.5 260.4V97.8C252.7 188 168.4 256.9 191.3 474c1.1 10.7 7.5 20.4 17.3 24.9 18.2 8.4 34.7 13.1 47.4 13.1 65 0 227.5-121.4 227.5-251.6" style="fill:url(#microsoft-defender_svg__a)"/><radialGradient id="microsoft-defender_svg__b" cx="119.078" cy="536.447" r="5.686" gradientTransform="matrix(30.2468 36.4165 108.8699 -90.425 -61713.883 44476.75)" gradientUnits="userSpaceOnUse"><stop offset=".228" style="stop-color:#003375"/><stop offset=".434" style="stop-color:#003375;stop-opacity:.1"/></radialGradient><path d="M483.5 260.4V97.8C252.7 188 168.4 256.9 191.3 474c1.1 10.7 7.5 20.4 17.3 24.9 18.2 8.4 34.7 13.1 47.4 13.1 65 0 227.5-121.4 227.5-251.6" style="fill:url(#microsoft-defender_svg__b);fill-opacity:.6"/><radialGradient id="microsoft-defender_svg__c" cx="111.494" cy="539.155" r="5.686" gradientTransform="matrix(-74.6848 131.5546 84.561 48.0061 -36766.262 -40689.434)" gradientUnits="userSpaceOnUse"><stop offset=".165" style="stop-color:#23c0fe"/><stop offset=".534" style="stop-color:#1c91ff"/></radialGradient><path d="M256 0c43.7 0 131.6 22.1 184.4 36.6 4.9 1.4 9.6 2.7 13.8 3.9 17.6 5.1 29.2 21.3 29.2 39.6V107c-5.2 119.8-43.6 154.6-150.7 240.9-14.1 12.5-28.5 24.3-43.2 36.3-21 17.2-42.5 34.8-64 55.1-8.2 7.7-13.3 18.7-13.3 30.9 0 18.3 11.5 33.9 27.7 39.9-3.9-.9-8.1-2.1-12.4-3.5-39.2-13.1-92.1-48.9-133.5-96.4C61.4 206.7 125.4 107 256 0" style="fill:url(#microsoft-defender_svg__c)"/><radialGradient id="microsoft-defender_svg__d" cx="118.898" cy="535.238" r="5.686" gradientTransform="matrix(18.3072 17.3013 30.7855 -32.5754 -18448.332 15547.668)" gradientUnits="userSpaceOnUse"><stop offset=".143" style="stop-color:#1b44b1"/><stop offset="1" style="stop-color:#045ed1;stop-opacity:0"/></radialGradient><path d="M256 0c43.7 0 131.6 22.1 184.4 36.6 4.9 1.4 9.6 2.7 13.8 3.9 17.6 5.1 29.2 21.3 29.2 39.6V107c-5.2 119.8-43.6 154.6-150.7 240.9-14.1 12.5-28.5 24.3-43.2 36.3-21 17.2-42.5 34.8-64 55.1-8.2 7.7-13.3 18.7-13.3 30.9 0 18.3 11.5 33.9 27.7 39.9-3.9-.9-8.1-2.1-12.4-3.5-39.2-13.1-92.1-48.9-133.5-96.4C61.4 206.7 125.4 107 256 0" style="fill:url(#microsoft-defender_svg__d);fill-opacity:.7"/><radialGradient id="microsoft-defender_svg__e" cx="118.683" cy="535.728" r="5.686" gradientTransform="matrix(49.708 27.4331 40.2104 -72.86 -27019.894 36054.613)" gradientUnits="userSpaceOnUse"><stop offset=".728" style="stop-color:#045ed1;stop-opacity:0"/><stop offset=".951" style="stop-color:#1b44b1"/></radialGradient><path d="M256 0c43.7 0 131.6 22.1 184.4 36.6 4.9 1.4 9.6 2.7 13.8 3.9 17.6 5.1 29.2 21.3 29.2 39.6V107c-5.2 119.8-43.6 154.6-150.7 240.9-14.1 12.5-28.5 24.3-43.2 36.3-21 17.2-42.5 34.8-64 55.1-8.2 7.7-13.3 18.7-13.3 30.9 0 18.3 11.5 33.9 27.7 39.9-3.9-.9-8.1-2.1-12.4-3.5-39.2-13.1-92.1-48.9-133.5-96.4C61.4 206.7 125.4 107 256 0" style="fill:url(#microsoft-defender_svg__e);fill-opacity:.7"/><radialGradient id="microsoft-defender_svg__f" cx="111.079" cy="535.917" r="5.686" gradientTransform="matrix(-33.1022 -85.7998 -65.5836 25.3027 39128.383 -3887.115)" gradientUnits="userSpaceOnUse"><stop offset=".642" style="stop-color:#11a7ff;stop-opacity:0"/><stop offset=".796" style="stop-color:#6ab3ff"/></radialGradient><path d="M256 0c43.7 0 131.6 22.1 184.4 36.6 4.9 1.4 9.6 2.7 13.8 3.9 17.6 5.1 29.2 21.3 29.2 39.6V107c-5.2 119.8-43.6 154.6-150.7 240.9-14.1 12.5-28.5 24.3-43.2 36.3-21 17.2-42.5 34.8-64 55.1-8.2 7.7-13.3 18.7-13.3 30.9 0 18.3 11.5 33.9 27.7 39.9-3.9-.9-8.1-2.1-12.4-3.5-39.2-13.1-92.1-48.9-133.5-96.4C61.4 206.7 125.4 107 256 0" style="fill:url(#microsoft-defender_svg__f);fill-opacity:.5"/><radialGradient id="microsoft-defender_svg__g" cx="112.094" cy="538.092" r="5.686" gradientTransform="matrix(-65.8413 88.6101 98.9494 73.5238 -45519.215 -49519.52)" gradientUnits="userSpaceOnUse"><stop offset="0" style="stop-color:#92eefe"/><stop offset=".213" style="stop-color:#35ddff"/><stop offset=".613" style="stop-color:#15bdfb"/><stop offset=".803" style="stop-color:#08b1f9"/></radialGradient><path d="M59 40.1C109.2 26 208.6 0 256 0c3.4 0 7.1.1 11 .4 43.4 4.2 77.3 40.7 77.3 85.2 0 16.1-4.5 31.2-12.2 44.1-16.6 33.1-43.8 59.1-85.2 93.2-11.9 9.8-25.5 20.6-39.1 31.3-12.8 10.2-25.6 20.3-36.9 29.5-27.3 22.4-44.1 36.1-53.2 53.3-8.8 13.4-13.8 29.5-13.8 46.7 0 25.2 10.9 47.9 28.2 63.5.6.6 1.1 1.2 1.7 1.8.2.2.3.5.4.7-5.5-4.7-10.9-9.6-16.3-14.7-48.7-46.6-89.4-109.5-89.4-174.6V80.5c0-18.8 12.3-35.4 30.5-40.4" style="fill:url(#microsoft-defender_svg__g)"/><linearGradient id="microsoft-defender_svg__h" x1="198.701" x2="28.537" y1="289.115" y2="289.115" gradientTransform="matrix(1 0 0 -1 0 514)" gradientUnits="userSpaceOnUse"><stop offset=".111" style="stop-color:#22cbfd;stop-opacity:0"/><stop offset=".971" style="stop-color:#92deff"/></linearGradient><path d="M59 40.1C109.2 26 208.6 0 256 0c3.4 0 7.1.1 11 .4 43.4 4.2 77.3 40.7 77.3 85.2 0 16.1-4.5 31.2-12.2 44.1-16.6 33.1-43.8 59.1-85.2 93.2-11.9 9.8-25.5 20.6-39.1 31.3-12.8 10.2-25.6 20.3-36.9 29.5-27.3 22.4-44.1 36.1-53.2 53.3-8.8 13.4-13.8 29.5-13.8 46.7 0 25.2 10.9 47.9 28.2 63.5.6.6 1.1 1.2 1.7 1.8.2.2.3.5.4.7-5.5-4.7-10.9-9.6-16.3-14.7-48.7-46.6-89.4-109.5-89.4-174.6V80.5c0-18.8 12.3-35.4 30.5-40.4" style="fill:url(#microsoft-defender_svg__h);fill-opacity:.8"/><radialGradient id="microsoft-defender_svg__i" cx="112.104" cy="535.489" r="5.686" gradientTransform="matrix(3.4426 -86.5944 -45.9531 -1.8269 24442.695 10759.05)" gradientUnits="userSpaceOnUse"><stop offset=".658" style="stop-color:#92deff;stop-opacity:0"/><stop offset=".852" style="stop-color:#92deff"/></radialGradient><path d="M59 40.1C109.2 26 208.6 0 256 0c3.4 0 7.1.1 11 .4 43.4 4.2 77.3 40.7 77.3 85.2 0 16.1-4.5 31.2-12.2 44.1-16.6 33.1-43.8 59.1-85.2 93.2-11.9 9.8-25.5 20.6-39.1 31.3-12.8 10.2-25.6 20.3-36.9 29.5-27.3 22.4-44.1 36.1-53.2 53.3-8.8 13.4-13.8 29.5-13.8 46.7 0 25.2 10.9 47.9 28.2 63.5.6.6 1.1 1.2 1.7 1.8.2.2.3.5.4.7-5.5-4.7-10.9-9.6-16.3-14.7-48.7-46.6-89.4-109.5-89.4-174.6V80.5c0-18.8 12.3-35.4 30.5-40.4" style="fill:url(#microsoft-defender_svg__i);fill-opacity:.5"/></svg>