<svg xmlns="http://www.w3.org/2000/svg" xml:space="preserve" viewBox="0 0 512 512"><path d="M316.5 384.9H512V478c0 8.7-7 15.7-15.7 15.7H137.9c-8.7 0-15.7-7-15.7-15.7v-81h117.5c16 0 29-13 29-29V262.7h47.8zm0-135.6V140.5h-48c.1 1.1.2 2.3.2 3.5v105.4h47.8zm-76.8-134.4c9.7 0 18.4 4.8 23.6 12.2h53.2V18.4H137.9c-8.7 0-15.7 7-15.7 15.7V115h117.5zm90.2 134.4H512V140.6H329.9zM496.3 18.4H329.9v108.9H512V34.1c0-8.7-7-15.7-15.7-15.7M329.9 371.5H512V262.7H329.9zM255.4 144v224c0 8.7-7 15.7-15.7 15.7H15.6c-4.1 0-7.9-1.6-10.9-4.5-3-3-4.6-6.9-4.6-11.1V144c0-8.7 7-15.7 15.7-15.7h224c8.5 0 15.6 7 15.6 15.7m-62.6 184.6-45.4-73.4 44.2-72.1h-31.9l-25.1 46c-1.7 3.3-3.4 6.8-4.9 10.3h-.3c-.8-2.2-2.4-5.4-4.5-9.9l-23.6-46.4H66.6l43.2 72.6-47.1 73 34.1-.1 28-51.2c1.3-2.1 2.4-4.2 3.2-6.6h.4c.9 2.4 2.1 4.6 3.3 6.8l27.2 51z"/></svg>