<?xml version="1.0" encoding="utf-8"?>
<!-- Generator: Adobe Illustrator 28.2.0, SVG Export Plug-In . SVG Version: 6.00 Build 0)  -->
<svg version="1.1" id="Layer_1" xmlns="http://www.w3.org/2000/svg" xmlns:xlink="http://www.w3.org/1999/xlink" x="0px" y="0px"
	 viewBox="0 0 512 512" style="enable-background:new 0 0 512 512;" xml:space="preserve">
<style type="text/css">
	.st0{fill-rule:evenodd;clip-rule:evenodd;fill:url(#SVGID_1_);}
	.st1{fill:url(#SVGID_00000107558638057706677990000002461104027808995998_);}
	.st2{fill:url(#SVGID_00000024712920878396396000000017718542775525838506_);}
</style>
<radialGradient id="SVGID_1_" cx="-98.7077" cy="0.8605" r="0.5" gradientTransform="matrix(-346.4626 -399.8405 287.7029 -249.2952 -34032.3555 -38891.6562)" gradientUnits="userSpaceOnUse">
	<stop  offset="0" style="stop-color:#00CACC"/>
	<stop  offset="1" style="stop-color:#048FCE"/>
</radialGradient>
<path class="st0" d="M257.9,161.5c-9.4,1.1-16.6,8.8-17.3,18.4c-0.3,4.2-0.2,4.4,9.2,28.7c21.5,55.3,26.7,68.6,27.6,70.4
	c2.1,4.5,5.1,8.8,8.8,12.6c2.9,2.9,4.7,4.5,7.9,6.6c5.6,3.7,8.4,4.8,30.2,11.2c21.2,6.3,32.8,10.5,42.8,15.4
	c13,6.4,22,13.7,27.7,22.4c4.1,6.2,7.7,17.4,9.3,28.6c0.6,4.4,0.6,14.1,0,18.1c-1.3,8.6-4,15.8-8.1,21.9c-2.2,3.2-1.4,2.7,1.7-1.2
	c8.9-11.1,18-30,22.6-47.2c5.6-20.8,6.4-43.1,2.2-64.3c-8.1-41.2-34.1-76.7-70.7-96.7c-2.3-1.3-11.1-5.8-22.9-12
	c-1.8-0.9-4.3-2.2-5.5-2.9c-1.2-0.6-3.7-1.9-5.5-2.9c-1.8-0.9-7-3.6-11.5-6s-9.6-5-11.3-5.9c-5.1-2.7-8.5-4.4-11-5.8
	c-11.8-6.2-16.7-8.6-18.2-9.1s-5.3-1-6.2-1C259.7,161.3,258.8,161.4,257.9,161.5z"/>
<radialGradient id="SVGID_00000008145979221605882850000013625321231727427973_" cx="-98.6503" cy="0.8863" r="0.5" gradientTransform="matrix(526.0025 -225.395 375.6281 876.6003 51688.4023 -22554.5254)" gradientUnits="userSpaceOnUse">
	<stop  offset="0" style="stop-color:#00BBEC"/>
	<stop  offset="1" style="stop-color:#2756A9"/>
</radialGradient>
<path style="fill:url(#SVGID_00000008145979221605882850000013625321231727427973_);" d="M283.5,367.8c-0.7,0.4-1.6,0.9-2,1.2
	c-0.5,0.3-1.5,0.9-2.3,1.4c-2.9,1.8-10.8,6.6-17.5,10.8c-4.4,2.7-5.1,3.1-10.7,6.6c-2,1.2-4.1,2.6-4.7,2.9c-0.6,0.4-3.2,1.9-5.7,3.5
	s-7,4.3-9.8,6.1c-2.9,1.8-8,4.9-11.4,7s-7.9,4.9-9.9,6.1c-2.1,1.3-4,2.5-4.2,2.7c-0.4,0.3-18.8,11.7-28,17.4
	c-7,4.3-15.1,7.1-23.4,8.2c-3.9,0.5-11.2,0.5-15,0c-10.5-1.4-20.1-5.3-28.3-11.5c-3.2-2.4-9.3-8.5-11.7-11.6
	c-5.5-7.4-9-15.3-10.9-24.3c-0.4-2.1-0.8-3.8-0.9-3.9c-0.2-0.2,0.1,3,0.7,7c0.6,4.2,1.8,10.4,3.2,15.6
	c10.3,40.7,39.8,73.8,79.6,89.5c11.5,4.5,23,7.4,35.6,8.8c4.7,0.5,18.1,0.7,23.1,0.4c22.6-1.7,42.4-8.4,62.6-21.2
	c1.8-1.1,5.2-3.3,7.5-4.7c2.3-1.5,5.3-3.3,6.6-4.2c1.3-0.8,2.8-1.8,3.4-2.1c0.6-0.4,1.8-1.1,2.7-1.7c0.9-0.6,4.6-2.9,8.2-5.2
	l14.7-9.3l5-3.2l0.2-0.1l0.6-0.4l0.3-0.2l3.7-2.3l12.8-8.1c16.3-10.3,21.2-13.9,28.8-21.3c3.2-3.1,7.9-8.4,8.2-9.1
	c0-0.1,0.9-1.4,1.9-2.9c4-5.9,6.7-13.2,8-21.8c0.6-4,0.6-13.7,0-18.1c-1.2-8.5-3.9-18.1-6.8-24.3c-4.8-10.1-15-19.2-29.7-26.6
	c-4.1-2-8.2-3.9-8.7-3.9c-0.2,0-13.9,8.4-30.4,18.6s-30.8,19-31.8,19.7c-1,0.6-2.7,1.7-3.8,2.3L283.5,367.8z"/>
<linearGradient id="SVGID_00000011012117787498732630000004920107478084100770_" gradientUnits="userSpaceOnUse" x1="145.85" y1="280" x2="145.85" y2="722.4542" gradientTransform="matrix(1 0 0 1 0 -280)">
	<stop  offset="0" style="stop-color:#00BBEC"/>
	<stop  offset="1" style="stop-color:#2756A9"/>
</linearGradient>
<path style="fill:url(#SVGID_00000011012117787498732630000004920107478084100770_);" d="M86.7,318.8l0.1,71l0.9,4.1
	c2.9,12.9,7.9,22.2,16.5,30.8c4.1,4.1,7.2,6.5,11.6,9.1c9.3,5.5,19.4,8.3,30.4,8.2c11.5,0,21.5-2.9,31.8-9.2
	c1.7-1.1,8.5-5.2,15.1-9.3l11.9-7.4v-84.3v-84.3v-77.1c0-49.2-0.1-78.4-0.2-80.7c-1-14.4-7-27.6-17.1-37.7
	c-3.1-3.1-5.8-5.1-13.7-10.6c-3.9-2.7-11.1-7.7-16-11c-4.9-3.4-12.9-8.9-17.8-12.3c-4.9-3.4-12-8.3-15.6-10.8
	C117,2,116.4,1.7,114,0.8c-3-1.1-6.2-1.5-9.2-1.1c-8.8,1-15.9,7.3-17.7,16C86.8,17,86.8,35,86.8,132.4v115.1l0,0L86.7,318.8z"/>
</svg>
