<?xml version="1.0" encoding="utf-8"?>
<!-- Generator: Adobe Illustrator 28.2.0, SVG Export Plug-In . SVG Version: 6.00 Build 0)  -->
<svg version="1.1" id="Layer_1" xmlns="http://www.w3.org/2000/svg" xmlns:xlink="http://www.w3.org/1999/xlink" x="0px" y="0px"
	 viewBox="0 0 512 512" style="enable-background:new 0 0 512 512;" xml:space="preserve">
<style type="text/css">
	.st0{fill:url(#SVGID_1_);}
	.st1{fill:#666666;}
	.st2{fill:url(#SVGID_00000021825782398516297910000000693177355071036818_);}
	.st3{fill:url(#SVGID_00000116927669229255614480000004107177004104852621_);}
	.st4{fill:url(#SVGID_00000041273267980298290800000005998631355390772912_);}
	.st5{fill:url(#SVGID_00000040555211357034754420000014639389972851364249_);}
</style>
<linearGradient id="SVGID_1_" gradientUnits="userSpaceOnUse" x1="428.9319" y1="-41.4403" x2="83.1455" y2="557.4793" gradientTransform="matrix(1 0 0 -1 0 514)">
	<stop  offset="0" style="stop-color:#D7CCB3"/>
	<stop  offset="1" style="stop-color:#F2E6CA"/>
</linearGradient>
<path class="st0" d="M501.3,512H10.7C4.8,512,0,507.2,0,501.3V10.7C0,4.8,4.8,0,10.7,0h490.7c5.9,0,10.7,4.8,10.7,10.7v490.7
	C512,507.2,507.2,512,501.3,512z"/>
<path class="st1" d="M36.6,36.6v438.9h438.9V36.6H36.6z M160,420.4c0,2.7-2.1,4.7-4.7,4.7H91.5c-2.6,0-4.7-2.1-4.7-4.7v-63.8
	c0-2.6,2.1-4.7,4.7-4.7h63.8c2.6,0,4.7,2.1,4.7,4.7V420.4z M292.6,420.4c0,2.7-2.1,4.7-4.7,4.7h-63.8c-2.6,0-4.7-2.1-4.7-4.7v-63.8
	c0-2.6,2.1-4.7,4.7-4.7h63.8c2.6,0,4.7,2.1,4.7,4.7V420.4z M425.2,420.4c-0.1,2.7-2.1,4.7-4.7,4.7h-63.8c-2.6,0-4.7-2.1-4.7-4.7
	v-63.8c0-2.6,2.1-4.7,4.7-4.7h63.8c2.6,0,4.7,2.1,4.7,4.7V420.4z"/>
<linearGradient id="SVGID_00000136396785476122925340000008980109312497772990_" gradientUnits="userSpaceOnUse" x1="271.7765" y1="219.1086" x2="155.6235" y2="420.2914" gradientTransform="matrix(1 0 0 -1 0 514)">
	<stop  offset="0" style="stop-color:#000000"/>
	<stop  offset="2.793296e-03" style="stop-color:#FFB900"/>
	<stop  offset="1" style="stop-color:#FEF000"/>
</linearGradient>
<rect x="171.4" y="84.6" style="fill:url(#SVGID_00000136396785476122925340000008980109312497772990_);" width="84.6" height="219.4"/>
<linearGradient id="SVGID_00000166658230991850576040000009653331004041711538_" gradientUnits="userSpaceOnUse" x1="189.2159" y1="220.2283" x2="75.3025" y2="417.5323" gradientTransform="matrix(1 0 0 -1 0 514)">
	<stop  offset="0" style="stop-color:#000000"/>
	<stop  offset="2.793296e-03" style="stop-color:#D83B01"/>
	<stop  offset="1" style="stop-color:#EC6725"/>
</linearGradient>
<path style="fill:url(#SVGID_00000166658230991850576040000009653331004041711538_);" d="M171.4,304H99.1c-6.7,0-12.2-5.5-12.2-12.2
	v-195c0-6.7,5.5-12.2,12.2-12.2h72.4V304H171.4z"/>
<linearGradient id="SVGID_00000022518362123278018150000016112924499211064965_" gradientUnits="userSpaceOnUse" x1="356.3765" y1="219.1086" x2="240.2235" y2="420.2914" gradientTransform="matrix(1 0 0 -1 0 514)">
	<stop  offset="0" style="stop-color:#000000"/>
	<stop  offset="2.793296e-03" style="stop-color:#56B60E"/>
	<stop  offset="1" style="stop-color:#66EB6E"/>
</linearGradient>
<rect x="256" y="84.6" style="fill:url(#SVGID_00000022518362123278018150000016112924499211064965_);" width="84.6" height="219.4"/>
<linearGradient id="SVGID_00000050622336928087429750000009848568522261284229_" gradientUnits="userSpaceOnUse" x1="439.1012" y1="220.3389" x2="323.9498" y2="419.787" gradientTransform="matrix(1 0 0 -1 0 514)">
	<stop  offset="0" style="stop-color:#000000"/>
	<stop  offset="2.793296e-03" style="stop-color:#0078D4"/>
	<stop  offset="1" style="stop-color:#28AFEA"/>
</linearGradient>
<path style="fill:url(#SVGID_00000050622336928087429750000009848568522261284229_);" d="M419.8,304h-79.2V84.6h79.2
	c3,0,5.3,2.4,5.3,5.3v208.7C425.1,301.6,422.7,304,419.8,304z"/>
</svg>
