<svg xmlns="http://www.w3.org/2000/svg" xml:space="preserve" viewBox="0 0 512 512"><path d="M504.2 299.7c-3.9 23.6-24.4 41.6-49.1 41.6H188l-17.1 79.2h-33.5l-14.6-68.9c-1.5.8-3.1 1.7-4.5 2.7l-14.7 66.2H78.5c-.1 2-.2 4-.2 6.1 0 47.1 38.2 85.3 85.3 85.3h291.6c27.5 0 49.8-22.3 49.8-49.8V300.2z" style="opacity:.8;fill:#fff"/><path d="M455.1 170.7H163.6c-47.1 0-85.3 38.2-85.3 85.3v74.6l8.9 45.8 16.5-85.8h33.8l10.5 52.2c4.3-.8 8.8-1.3 13.4-1.4l9.6-50.8h28l-11 50.7h267.1c27.5 0 49.8-22.3 49.8-49.8V120.9c0 27.5-22.3 49.8-49.8 49.8" style="opacity:.65;fill:#fff"/><path d="M78.2 85.3C78.2 38.2 116.4 0 163.6 0h291.6C482.7 0 505 22.3 505 49.8v71.1c0 27.5-22.3 49.8-49.8 49.8H163.6c-47.1 0-85.3 38.2-85.3 85.3V85.3z" style="opacity:.5;fill:#fff"/><path d="M188.4 241.8H53.3c-25.5 0-46.2 20.7-46.2 46.2v135.1c0 25.5 20.7 46.2 46.2 46.2h135.1c25.5 0 46.2-20.7 46.2-46.2V288c.1-25.5-20.6-46.2-46.2-46.2m-17.5 178.8h-33.5l-16.5-78-17.3 78H69.8l-26.9-130h27.6l16.6 85.8 16.5-85.8h33.8l17.3 85.8 16.2-85.8h28z" style="fill:#fff"/></svg>