<svg xmlns="http://www.w3.org/2000/svg" xml:space="preserve" viewBox="0 0 512 512"><linearGradient id="microsoft-office_svg__a" x1="103.607" x2="103.607" y1="612.244" y2="438.056" gradientTransform="matrix(2.8776 0 0 -2.8776 69.626 1734.905)" gradientUnits="userSpaceOnUse"><stop offset="0" style="stop-color:#ffb900"/><stop offset=".17" style="stop-color:#ef8400"/><stop offset=".31" style="stop-color:#e25c01"/><stop offset=".43" style="stop-color:#db4401"/><stop offset=".5" style="stop-color:#d83b01"/></linearGradient><path d="m276.4 2 38.9 88.9v308.9l-38.3 110 144.7-41.2c22.2-6.4 37.5-26.6 37.5-49.7v-326c0-23.1-15.3-43.4-37.6-49.8z" style="fill:url(#microsoft-office_svg__a)"/><linearGradient id="microsoft-office_svg__b" x1="72.191" x2="-20.05" y1="606.087" y2="474.373" gradientTransform="matrix(2.8776 0 0 -2.8776 69.626 1734.905)" gradientUnits="userSpaceOnUse"><stop offset="0" style="stop-color:#800600"/><stop offset=".6" style="stop-color:#c72127"/><stop offset=".73" style="stop-color:#c13959"/><stop offset=".85" style="stop-color:#bc4b81"/><stop offset=".94" style="stop-color:#b95799"/><stop offset="1" style="stop-color:#b85ba2"/></linearGradient><path d="m93 396.5 42.3-22.9c11.8-6.5 19.2-18.9 19.1-32.4V175c0-15.5 9.7-29.4 24.3-34.7L315.2 91V53.4c0-23.9-15.9-44.8-38.9-51.4-4.8-1.4-9.7-2.1-14.6-2-9.3 0-18.5 2.4-26.6 7L78.9 96.2c-16.1 9.2-26.1 26.3-26.1 44.9v231.6c0 15 12.1 27.2 27.1 27.2 4.6-.1 9.1-1.2 13.1-3.4" style="fill:url(#microsoft-office_svg__b)"/><linearGradient id="microsoft-office_svg__c" x1="74.075" x2="54.544" y1="608.763" y2="580.879" gradientTransform="matrix(2.8776 0 0 -2.8776 69.626 1734.905)" gradientUnits="userSpaceOnUse"><stop offset="0" style="stop-color:#000;stop-opacity:.4"/><stop offset="1" style="stop-color:#000;stop-opacity:0"/></linearGradient><path d="m93 396.5 42.3-22.9c11.8-6.5 19.2-18.9 19.1-32.4V175c0-15.5 9.7-29.4 24.3-34.7L315.2 91V53.4c0-23.9-15.9-44.8-38.9-51.4-4.8-1.4-9.7-2.1-14.6-2-9.3 0-18.5 2.4-26.6 7L78.9 96.2c-16.1 9.2-26.1 26.3-26.1 44.9v231.6c0 15 12.1 27.2 27.1 27.2 4.6-.1 9.1-1.2 13.1-3.4" style="fill:url(#microsoft-office_svg__c)"/><linearGradient id="microsoft-office_svg__d" x1="25.058" x2="145.477" y1="444.454" y2="444.454" gradientTransform="matrix(2.8776 0 0 -2.8776 69.626 1734.905)" gradientUnits="userSpaceOnUse"><stop offset="0" style="stop-color:#f32b44"/><stop offset=".6" style="stop-color:#a4070a"/></linearGradient><path d="M315.2 399.8H153.8c-15.1.2-27.1 12.5-27 27.5.1 9.6 5.2 18.4 13.5 23.2l96.2 54.5c7.9 4.5 16.9 6.9 26 6.9 4.9 0 9.8-.7 14.5-2.1 22.7-6.4 38.3-27.2 38.3-50.8v-59.2z" style="fill:url(#microsoft-office_svg__d)"/><linearGradient id="microsoft-office_svg__e" x1="106.887" x2="52.972" y1="441.739" y2="446.445" gradientTransform="matrix(2.8776 0 0 -2.8776 69.626 1734.905)" gradientUnits="userSpaceOnUse"><stop offset="0" style="stop-color:#000;stop-opacity:.4"/><stop offset="1" style="stop-color:#000;stop-opacity:0"/></linearGradient><path d="M315.2 399.8H153.8c-15.1.2-27.1 12.5-27 27.5.1 9.6 5.2 18.4 13.5 23.2l96.2 54.5c7.9 4.5 16.9 6.9 26 6.9 4.9 0 9.8-.7 14.5-2.1 22.7-6.4 38.3-27.2 38.3-50.8v-59.2z" style="fill:url(#microsoft-office_svg__e)"/></svg>