<svg xmlns="http://www.w3.org/2000/svg" xml:space="preserve" viewBox="0 0 512 512"><path d="M332.7 347.9c-14.1 12.5-28.5 24.3-43.2 36.3-21 17.2-42.5 34.8-64 55.1-8.2 7.7-13.3 18.7-13.3 30.9 0 18.3 11.5 33.9 27.7 39.9-1-.2-2-.5-3-.7 7 1.8 13.3 2.7 19 2.7 65 0 227.5-121.4 227.5-251.6V107.1c-5.2 119.7-43.6 154.5-150.7 240.8" style="opacity:.9"/><path d="M454.3 40.5q-6.45-1.8-13.8-3.9C389.8 22.7 306.8 1.8 261.5.1c1.8.1 3.7.2 5.6.3 43.4 4.2 77.3 40.7 77.3 85.2 0 16.1-4.5 31.2-12.2 44.1-16.6 33.1-43.8 59.1-85.2 93.2-11.9 9.8-25.5 20.6-39.1 31.3-12.8 10.2-25.6 20.3-36.9 29.5-27.3 22.4-44.1 36.1-53.2 53.3-8.8 13.4-13.8 29.5-13.8 46.7 0 25.2 10.9 47.9 28.2 63.5.6.6 1.1 1.2 1.7 1.8.1.2.3.4.4.6 32.1 27.5 66.1 47.6 93.4 56.8 4.3 1.4 8.5 2.6 12.4 3.5-16.2-6-27.7-21.6-27.7-39.9 0-12.2 5.1-23.1 13.3-30.9 21.4-20.3 42.9-37.9 64-55.1 14.7-12 29.1-23.9 43.2-36.3 107-86.1 145.3-120.9 150.6-240.7V80.1c0-18.3-11.7-34.5-29.2-39.6" style="opacity:.6"/><path d="M59 40.1C109.2 26 208.6 0 256 0c3.4 0 7.1.1 11 .4 43.4 4.2 77.3 40.7 77.3 85.2 0 16.1-4.5 31.2-12.2 44.1-16.6 33.1-43.8 59.1-85.2 93.2-11.9 9.8-25.5 20.6-39.1 31.3-12.8 10.2-25.6 20.3-36.9 29.5-27.3 22.4-44.1 36.1-53.2 53.3-8.8 13.4-13.8 29.5-13.8 46.7 0 25.2 10.9 47.9 28.2 63.5.6.6 1.1 1.2 1.7 1.8.2.2.3.5.4.7-5.5-4.7-10.9-9.6-16.3-14.7-48.7-46.6-89.4-109.5-89.4-174.6V80.5c0-18.8 12.3-35.4 30.5-40.4" style="opacity:.3"/></svg>