<svg xmlns="http://www.w3.org/2000/svg" xml:space="preserve" viewBox="0 0 512 512"><path d="M333.4 315.5h119.1v119.1H333.4zM490.2 17.9H140.9c-12 0-21.8 9.8-21.8 21.8V125h121c12 0 21.8 9.8 21.8 21.8V256H512V39.7c0-12.1-9.8-21.8-21.8-21.8m-97.3 190.5c-39.5 0-71.4-32-71.4-71.4s32-71.4 71.4-71.4 71.4 32 71.4 71.4-31.9 71.4-71.4 71.4" style="opacity:.5;fill:#fff"/><path d="M261.8 365.1c0 12-9.8 21.8-21.8 21.8H119v85.5c0 12 9.8 21.8 21.8 21.8h349.4c12 0 21.8-9.8 21.8-21.8V256H261.8zm71.6-49.6h119.1v119.1H333.4zm59.5-214.3c19.7 0 35.7 16 35.7 35.7s-16 35.7-35.7 35.7-35.7-16-35.7-35.7 16-35.7 35.7-35.7" style="fill:#fff"/><path d="M240 125H21.8C9.8 125 0 134.8 0 146.8v218.4c0 12 9.8 21.8 21.8 21.7H240c12 0 21.8-9.8 21.8-21.8V146.8c0-12-9.7-21.8-21.8-21.8m-64.8 83.1h-61.4v38.7H171v23h-57.3V327H86V185h89.3z" style="opacity:.75;fill:#fff"/></svg>