<?xml version="1.0" encoding="utf-8"?>
<!-- Generator: Adobe Illustrator 28.2.0, SVG Export Plug-In . SVG Version: 6.00 Build 0)  -->
<svg version="1.1" id="Layer_1" xmlns="http://www.w3.org/2000/svg" xmlns:xlink="http://www.w3.org/1999/xlink" x="0px" y="0px"
	 viewBox="0 0 512 512" style="enable-background:new 0 0 512 512;" xml:space="preserve">
<path d="M407,393.1c-9.8,0-17.7,7.9-17.7,17.7c0,9.7,7.9,17.5,17.6,17.6c9.8,0.1,17.8-7.9,17.8-17.6
	C424.7,401,416.8,393.1,407,393.1z M466.1,0H45.9C20.5,0,0,20.5,0,45.9v420.2C0,491.5,20.5,512,45.9,512h420.2
	c25.3,0,45.9-20.5,45.9-45.9V45.9C512,20.5,491.5,0,466.1,0z M271.5,351.9c-9.4,0.5-19,0.4-28.4-0.1c-12.2-0.6-23.7-11.9-24.4-24.1
	c-0.6-10.3-0.3-20.6-0.4-30.9c0-1.1,0-2.1,0-3.6c-28,10.2-55.8,11.2-84.1,1.6c0,1.2,0,2.2,0,3.1c0,36.3,0,72.5,0,108.8
	c0,13.4-7.6,24-20,27.9c-16.5,5.2-34.5-6.7-36-23.9c-0.2-2.1-0.3-4.1-0.3-6.2c0-50.8,0-101.6,0-152.5c0-48.7,0-97.5,0-146.2
	c0-10.4,3.8-19,12.6-24.9c17.9-12,42.2,0,43.6,21.5c0.1,1.3,0.1,2.7,0.1,4c0,40.9,0,81.8-0.1,122.8c0,2.2,0.7,3.4,2.5,4.6
	c20.3,12.9,41.6,14.9,63.8,5.8c5.3-2.1,10.2-5.1,15.4-7.6c1.9-0.9,2.5-2.2,2.5-4.3c-0.1-40.5,0-81-0.1-121.5
	c0-9.4,2.9-17.6,10.3-23.6c8.7-7,18.6-8.5,28.8-4.1c10.4,4.4,16,12.8,17,24.1c0.1,1.5,0.1,3,0.1,4.5c0,61.9,0,123.8,0,185.6
	c0,1.1,0,2.1,0,3.4c10.4,2.2,17.9,7.9,21.6,17.6C303.1,331.8,290.8,350.9,271.5,351.9z M406.7,466c-30.9-0.5-55.4-25.6-54.9-56.1
	c0.5-30,24.8-54.6,55.5-54.4c30.9,0.3,55.3,25.4,54.9,55.7C461.8,441.4,437.6,465.9,406.7,466z"/>
</svg>
