<?xml version="1.0" encoding="utf-8"?>
<!-- Generator: Adobe Illustrator 28.2.0, SVG Export Plug-In . SVG Version: 6.00 Build 0)  -->
<svg version="1.1" id="Livello_1" xmlns="http://www.w3.org/2000/svg" xmlns:xlink="http://www.w3.org/1999/xlink" x="0px" y="0px"
	 viewBox="0 0 512 512" style="enable-background:new 0 0 512 512;" xml:space="preserve">
<path d="M316.5,384.9H512v93.1c0,8.7-7,15.7-15.7,15.7H137.9c-8.7,0-15.7-7-15.7-15.7v-81h117.5c16,0,29-13,29-29V262.7h47.8V384.9z
	 M316.5,249.3V140.6v-0.1h-48c0.1,1.1,0.2,2.3,0.2,3.5v105.4H316.5z M239.7,114.9c9.7,0,18.4,4.8,23.6,12.2h53.2V18.4H137.9
	c-8.7,0-15.7,7-15.7,15.7v80.9H239.7z M329.9,249.3H512V140.6H329.9V249.3z M496.3,18.4H329.9v108.8v0.1H512V34.1
	C512,25.4,505,18.4,496.3,18.4z M329.9,371.5H512V262.7H329.9V371.5z M255.4,144v224c0,8.7-7,15.7-15.7,15.7h-224c0,0-0.1,0-0.1,0
	c-4.1,0-7.9-1.6-10.9-4.5c-3-3-4.6-6.9-4.6-11.1V144c0-8.7,7-15.7,15.7-15.7h224C248.3,128.3,255.4,135.3,255.4,144z M192.8,328.6
	l-45.4-73.4l44.2-72.1h-31.9l-25.1,46c-1.7,3.3-3.4,6.8-4.9,10.3h-0.3c-0.8-2.2-2.4-5.4-4.5-9.9l-23.6-46.4H66.6l43.2,72.6l-47.1,73
	l34.1-0.1l28-51.2c1.3-2.1,2.4-4.2,3.2-6.6h0.4c0.9,2.4,2.1,4.6,3.3,6.8l27.2,51H192.8z"/>
</svg>
