<svg xmlns="http://www.w3.org/2000/svg" xml:space="preserve" viewBox="0 0 512 512"><path d="m409.2 318.2-27.3-16.3-62.5-37.4-16.1-9.6-47.1 19.8-96.2 40.4-43.2 18.2-89.4 37.6c23.5 29.4 59.3 46.7 97.3 46.7h287.2c34.7 0 66.6-17.9 84.9-47z" style="opacity:.8;fill:#fff"/><path d="M410.1 204.2h-1.6c-.7 0-1.4 0-2.1.1h-.5c-.9 0-1.7.1-2.5.2h-.1c-12.5.9-24.6 3.9-36.2 8.9l-62.5 26.4-58.4-34.8-49.2-29.5h-.1c-1.3-.8-2.5-1.5-3.8-2.3-.4-.2-.9-.5-1.3-.7-.9-.5-1.8-1-2.6-1.5-.5-.3-1-.5-1.5-.8-.8-.4-1.7-.8-2.5-1.3-.5-.3-1.1-.5-1.6-.8-.8-.4-1.7-.8-2.5-1.2-.5-.2-1-.5-1.5-.7-.9-.4-1.9-.8-2.8-1.2-.4-.2-.9-.4-1.3-.5-1.4-.5-2.8-1.1-4.1-1.6-.1 0-.1 0-.2-.1-1.3-.5-2.6-.9-4-1.4-.5-.2-.9-.3-1.4-.4-.9-.3-1.9-.6-2.8-.9-.5-.2-1.1-.3-1.6-.5-.9-.2-1.8-.5-2.7-.7-.6-.1-1.1-.3-1.7-.4l-2.7-.6c-.5-.1-1.1-.2-1.6-.4l-3-.6c-.5-.1-.9-.2-1.4-.3-1.5-.3-2.9-.5-4.4-.7h-.4c-1.3-.2-2.7-.3-4-.5-.5-.1-1-.1-1.5-.1-.7-.1-1.4-.1-2.2-.2 21.4-27.6 51.3-47.3 85.3-56 40.8-10.4 83.2-4.4 119.4 17.1 33.5 20.2 57.9 51.1 69.6 88m49.4 25.4c-11.6-6.2-24-10-36.9-11.4l-4.2-.4c-2.2-.2-4.3-.3-6.6-.3-13.7 0-27 2.8-39.6 8.2l-53.6 22.6 7.8 4.6 62.5 37.5 27.3 16.3 87 52.1c21.4-47.4 2.7-104.1-43.7-129.2M123 168.3c-33.2.4-64.4 13.8-87.6 37.6C12.2 229.8-.4 261.2 0 294.5c.3 23.3 7 45.8 19.4 65.3l29.9-12.6 239.8-100.9-99-59.3c-19.7-12.2-42.3-18.6-65.4-18.6H123z" style="fill:#fff"/></svg>