<svg xmlns="http://www.w3.org/2000/svg" xml:space="preserve" viewBox="0 0 512 512"><path d="M23.8 334.3c0 33.9 27.5 61.5 61.5 61.5h345.6c31.7 0 57.4 25.7 57.4 57.4V341.3c0-33.9-27.5-61.5-61.5-61.5H85.3c-33.9 0-61.5-27.5-61.5-61.5v-13.8z" style="opacity:.7"/><path d="M430.8 395.8H85.3c-33.9 0-61.5-27.5-61.5-61.5v116.2c0 33.9 27.5 61.5 61.5 61.5h341.5c33.5 0 60.7-26.8 61.4-60.1-.7-31.1-26.1-56.1-57.4-56.1" style="opacity:.9"/><path d="M426.7 163.7H78.4c-30.2 0-54.6-24.5-54.6-54.6v109.3c0 33.9 27.5 61.5 61.5 61.5h341.5c33.9 0 61.5 27.5 61.5 61.5V225.1c-.1-33.9-27.6-61.4-61.6-61.4" style="opacity:.5"/><path d="M78.4 163.7h72.1l288-50.9c27.9-4.9 46.1-31.4 40.7-59.2L477 42.2C471.6 14.4 444.7-4.1 416.8.8L65.5 62.9c-24 4.2-40.8 24.5-41.6 47.7.8 29.4 24.9 53.1 54.5 53.1" style="opacity:.85"/></svg>