<svg xmlns="http://www.w3.org/2000/svg" xml:space="preserve" viewBox="0 0 512 512"><path d="M466.1 512H45.9C20.5 512 0 491.5 0 466.1V45.9C0 20.5 20.5 0 45.9 0h420.2C491.5 0 512 20.5 512 45.9v420.2c0 25.4-20.5 45.9-45.9 45.9" style="fill:#4075d0"/><path d="M274.5 296.2c10.4 2.2 17.9 7.9 21.6 17.6 7 18-5.4 37.1-24.7 38.1-9.4.5-19 .4-28.4-.1-12.2-.6-23.7-11.9-24.4-24.1-.6-10.3-.3-20.6-.4-30.9v-3.6c-28 10.2-55.8 11.2-84.1 1.6v111.9c0 13.4-7.6 24-20 27.9-16.5 5.2-34.5-6.7-36-23.9-.2-2.1-.3-4.1-.3-6.2V105.8c0-10.4 3.8-19 12.6-24.9 17.9-12 42.2 0 43.6 21.5.1 1.3.1 2.7.1 4 0 40.9 0 81.8-.1 122.8 0 2.2.7 3.4 2.5 4.6 20.3 12.9 41.6 14.9 63.8 5.8 5.3-2.1 10.2-5.1 15.4-7.6 1.9-.9 2.5-2.2 2.5-4.3-.1-40.5 0-81-.1-121.5 0-9.4 2.9-17.6 10.3-23.6 8.7-7 18.6-8.5 28.8-4.1 10.4 4.4 16 12.8 17 24.1.1 1.5.1 3 .1 4.5v185.6c.2 1.1.2 2.2.2 3.5m132.8 59.4c-30.7-.3-55 24.4-55.5 54.4-.5 30.5 23.9 55.6 54.9 56.1 30.9-.1 55.1-24.7 55.5-54.7.4-30.5-24-55.6-54.9-55.8m-.5 72.9c-9.7-.1-17.6-8-17.6-17.6 0-9.8 7.9-17.7 17.7-17.7s17.7 7.9 17.7 17.7c0 9.7-8 17.7-17.8 17.6" style="fill:#fdfefe"/></svg>