<svg xmlns="http://www.w3.org/2000/svg" xml:space="preserve" viewBox="0 0 512 512"><path d="M491.3 61.6H291.2V14.3L0 62.7v386.7l291.3 48.3v-47.3h200.1c11.4 0 20.7-9.2 20.7-20.6V82.2c-.1-11.5-9.3-20.6-20.8-20.6M186.8 334.1l-33.2-2-20.5-97.4c-.9-4-1.2-6.2-1.6-12.6-.4 6.3-.7 9.6-1.6 12.6l-20.8 94.8c-10.2-.3-20.3-.9-30.5-1.8L50.4 183.5l28.3-1.7 15.1 96.9c.9 5 1.4 9.3 1.6 12.6.4-3.8 1-7.4 1.6-9.4l22.4-102.5 29.3-1.7 20.8 104.2c1.1 4 1.6 7.4 1.6 10.3.2-3.3.7-6.8 1.5-10.3l18.7-106.8 32.5-1.9zm308.5 99h-204v-34.6h168.6v-22H291.3v-29.9h168.6v-22H291.3V293h168.6v-22H291.3v-30h168.6v-22H291.3v-29.9h168.6v-22H291.3v-29.9h168.6v-22H291.3V78.6h204z"/></svg>