<svg xmlns="http://www.w3.org/2000/svg" xml:space="preserve" viewBox="0 0 512 512"><path d="M439.3 128.3c-22.9 0-58.9 20.4-58.9 62.6s33.4 62.4 58.6 62.4c25 0 58.8-18.7 58.9-62.2 0-45.6-38.4-62.8-58.6-62.8m1 95.6c-10.5 0-25.9-8-25.9-35.1s16.4-32 24.6-32c11.8 0 25 9 25 33.2-.1 24.1-13.2 33.9-23.7 33.9m-84.7-30.4s8.8 1.3 11.4 5.3c1.7 2.7 2.7 5.5 3.1 8.8v43.5h-28.8V213c-.6-2.7-1.9-5.2-3.6-7.2-2.5-2.7-7.8-3.2-7.8-3.2h-35.5v-27.9h46s7.1-.8 6.3-9-9.3-8.8-9.3-8.8h-72.5s-24.2 6.9-24.2 33.8 22.3 31.1 28.6 31.1 18.3-.2 18.3-.2v29.2h-29.9s-46.9-8.2-46.9-61.6 56.8-61 56.8-61h81.8s28.2 3.1 27.5 33.6c0 14-8.4 26.4-21.3 31.7m-186-63.3h33.2v120.6h-33.4zm-43.5 34.5c-.2-1.7-.6-3.4-1.5-5-1-1.3-2.5-2.3-4.2-2.5H68.7v93.9h-30V130.2h96.7c6.5.4 12.6 3.4 16.8 8.4 3.6 4.4 5.2 13.4 5.2 13.4v98.8h-31.3zM81.6 175h29.2v75.7h-29zm407.9 151.5s9 1.5 12.4 5.5c2.3 3.1 3.6 6.7 3.6 10.7v41h-29v-38.3c-.6-2.1-1.7-4.2-3.2-5.9-1.7-1.9-4-3.2-6.5-4h-37.6v-27.9h46.9s7.4-1.7 7.4-9.2c0-7.4-7.6-8.6-7.6-8.6H342.8v-29h140.8s28 3.4 28.4 34c.2 24.2-22.5 31.7-22.5 31.7M343 307.4h76.7v28.4h-43.5v18.3h43.5v29.4H292.8c-5.7-1.1-11.1-3.8-15.3-7.8-7.6-7.1-9.7-19.1-9.7-19.1v-49.2h30.9v35.3c.2 2.5 1.1 4.8 2.5 6.7 2.1 2.1 3.2 1.7 3.2 1.7h36.1c.6-.2 1.1-.4 1.5-.8s.8-1 1-1.3zm-78.4-46.3h71.7v28.8h-71.7zm4.2 121.1.2 1.3h-32.4c-8.6-5.2-12.2-24-12.2-24v-66.8c-.2-.8-.4-1.3-1-1.9-.8-.6-1.7-.8-2.5-.8h-20.6v93.5h-32V260.9h65.6s8.2 1.1 15.6 10.7c5.3 7.2 6.9 21.9 6.9 21.9v59.1c-.2 5.5.8 11.1 2.9 16 2.2 5.2 5.5 9.8 9.5 13.6M32 322.7c0 31.7 29 29.6 29 29.6h16.4V384h-31S0 378.7 0 321.8c0-53.8 48.8-60.9 48.8-60.9h108.9v29.2H59.3S32 291 32 322.7M157.6 353v30.5H84.7v-74h72.9V336h-41.2v17z" style="fill-rule:evenodd;clip-rule:evenodd;fill:#201e1e"/></svg>