<svg xmlns="http://www.w3.org/2000/svg" xml:space="preserve" viewBox="0 0 512 512"><path d="M463 298.2h-72.2v-96.5h96.6v82.8zm-72.2 13.4v27.1l48.5-27.3h-48.5zm96.7-219.9h-96.6v96.6h96.6zM509.6 272l.2-.1c1-.6 1.7-1.6 2-2.7.1-.3.1-.7.1-1 0-1.7-.7-3.1-2-4.1l-.7-.4-8.4-5v18.1l.2-.1zm-363-193.7h340.7V34.7c.2-8.8-6.8-16.1-15.6-16.4H162.2c-8.8.3-15.8 7.6-15.6 16.4zm156 304.3-33.9-19.4v4.7c0 16-13 29-29 29H122.1v77.8c.1 10.4 8.6 18.9 19 18.9h351.3L305.3 384.1q-1.5-.75-2.7-1.5m31.9 3.2 173.2 101.3c2.8-3.2 4.3-7.3 4.4-11.7V285.9zM146.6 114.9h93c5.8 0 11.2 1.7 15.8 4.7v-28H146.6zm230.9 86.7H268.8v96.5h108.7zM268.8 347.9l40.8 23.3c.7.4 1.4.9 1.9 1.1l.4.2 8.1 4.8c1.8-.3 3.6-.9 5.4-1.7.7-.3 1.3-.7 1.9-1l.3-.2 50-28.2v-34.7H268.8zM377.5 91.7H268.8v96.6h108.7zM255.3 144v223.9c0 8.7-7 15.7-15.7 15.7H15.5c-4.1 0-7.9-1.6-10.9-4.5-3-3-4.6-6.9-4.6-11.1V144c0-8.7 7-15.7 15.7-15.7h223.9c8.7 0 15.7 7 15.7 15.7m-54.5 109.5c.3-13.7-2.8-27.4-8.7-39.7-5.5-11.2-14.2-20.6-24.9-27-11.5-6.6-24.4-10-37.6-9.6-14.3-.4-28.3 3.1-40.6 10.2-11.1 6.6-20 16.4-25.5 28.2-5.9 12.9-8.9 27-8.7 41.2-.2 13.5 2.8 27 8.8 39.2 5.6 11.3 14.5 20.6 25.2 27.2 11.7 6.7 25 10.1 38.5 9.7 13.6.3 27.1-3.2 39-10 11.1-6.6 20-16.3 25.6-27.9 6.1-12.8 9.2-27.1 8.9-41.5M152 210c-6.9-5.1-15.3-7.7-23.8-7.3-8.2-.2-16.2 2.2-23 6.9-6.6 4.7-11.7 11.3-14.7 18.8-6.6 17.1-6.6 36.2 0 53.4 3 7.4 7.9 13.8 14.4 18.6 6.6 4.6 14.5 7 22.5 6.8 8.5.3 16.9-2.2 24-7 6.4-4.7 11.3-11.2 14-18.6 3.1-8.3 4.6-17.1 4.4-26 .1-8.9-1.3-17.8-4.2-26.3-2.6-7.5-7.3-14.2-13.6-19.3"/></svg>