<svg xmlns="http://www.w3.org/2000/svg" xml:space="preserve" viewBox="0 0 512 512"><path d="M352 420.4v-63.8c0-2.6 2.1-4.7 4.7-4.7h63.8c2.6 0 4.7 2.1 4.7 4.7v63.8c-.1 2.7-2.1 4.7-4.7 4.7h-63.8c-2.6 0-4.7-2.1-4.7-4.7m-127.9 4.7h63.8c2.6 0 4.7-2 4.7-4.7v-63.8c0-2.6-2.1-4.7-4.7-4.7h-63.8c-2.6 0-4.7 2.1-4.7 4.7v63.8c0 2.6 2.1 4.7 4.7 4.7m288-414.4v490.7c-.1 5.8-4.9 10.6-10.8 10.6H10.7C4.8 512 0 507.2 0 501.3V10.7C0 4.8 4.8 0 10.7 0h490.7c5.9 0 10.7 4.8 10.7 10.7m-36.6 25.9H36.6v438.9h438.9zm-384 388.5h63.8c2.6 0 4.7-2 4.7-4.7v-63.8c0-2.6-2.1-4.7-4.7-4.7H91.5c-2.6 0-4.7 2.1-4.7 4.7v63.8c0 2.6 2.1 4.7 4.7 4.7m242.6-127.6V91.1h-71.6v206.4zm84.5 0V91.1h-71.5v206.4zm-253.7 0V91.1H99.1c-3.1 0-5.7 2.6-5.7 5.7v195c0 3.1 2.6 5.7 5.7 5.7zm84.6 0V91.1H178v206.4z" style="fill:#fff"/></svg>