<svg xmlns="http://www.w3.org/2000/svg" xml:space="preserve" viewBox="0 0 512 512"><linearGradient id="microsoft-power-automate-light_svg__a" x1="237.111" x2="166.193" y1="288.129" y2="60.179" gradientUnits="userSpaceOnUse"><stop offset="0" style="stop-color:#fff"/><stop offset="1" style="stop-color:#fff;stop-opacity:.8"/></linearGradient><path d="m5.5 88.4 150 167.6L335.9 54.3c-2.5-1-5.3-1.7-8.1-1.7H21.4c-18.5.1-28.2 22-15.9 35.8" style="fill:url(#microsoft-power-automate-light_svg__a)"/><path d="m470.4 310.7 36.2-40.4c7.3-8.1 7.3-20.4 0-28.5l-36.2-40.4L343.8 59.8c-2.2-2.4-4.9-4.3-7.9-5.5L155.5 256 5.5 423.6c-12.3 13.8-2.6 35.7 15.9 35.7h306.4c6.1 0 11.9-2.6 15.9-7.1z" style="opacity:.4;fill:#fff"/><path d="M343.8 59.8c-2.2-2.4-4.9-4.3-7.9-5.5L155.5 256 5.5 423.6c-12.3 13.8-2.6 35.7 15.9 35.7h134l272.9-305z" style="opacity:.6;fill:#fff"/></svg>