<?xml version="1.0" encoding="utf-8"?>
<!-- Generator: Adobe Illustrator 28.2.0, SVG Export Plug-In . SVG Version: 6.00 Build 0)  -->
<svg version="1.1" id="Livello_1" xmlns="http://www.w3.org/2000/svg" xmlns:xlink="http://www.w3.org/1999/xlink" x="0px" y="0px"
	 viewBox="0 0 512 512" style="enable-background:new 0 0 512 512;" xml:space="preserve">
<style type="text/css">
	.st0{fill:#FFFFFF;}
</style>
<path class="st0" d="M125.7,115c14.2-62.3,70-108.9,136.5-108.9c75.3,0,136.9,59.8,139.8,134.4c0,0,0,0,0,0
	c-1.4-0.2-2.7-0.3-4.1-0.5c-0.3,0-0.6-0.1-0.9-0.1c-1.1-0.1-2.1-0.2-3.2-0.3c-0.4,0-0.8-0.1-1.2-0.1c-1-0.1-2.1-0.1-3.1-0.1
	c-0.4,0-0.7,0-1.1,0c-1.4,0-2.7-0.1-4.1-0.1c-47.7,0-90,23.8-115.5,60.2V144c0-16-13-29-29-29H125.7z M280.4,311.6c-1,0-2,0-3,0
	c-0.3,0-0.6,0-0.9,0c-0.7,0-1.5,0.1-2.2,0.1c-0.3,0-0.6,0-0.8,0.1c-0.9,0.1-1.9,0.1-2.8,0.2c-0.1,0-0.1,0-0.2,0
	c-0.6,0.1-1.2,0.1-1.9,0.2V368c0,16-13,29-29,29H184c-0.5,3.8-0.7,7.7-0.7,11.7c0,53.6,43.6,97.2,97.2,97.2c51.6,0,94-40.5,97-91.4
	c0.1-1,0.1-1.9,0.1-2.9c0,0,0,0,0,0c0-1,0-1.9,0-2.8C377.6,355.1,334,311.6,280.4,311.6z M407,154.8c-0.3,0-0.6-0.1-0.8-0.1
	c-0.7-0.1-1.4-0.2-2.1-0.3c-0.4-0.1-0.9-0.1-1.3-0.2c-0.6-0.1-1.1-0.2-1.7-0.2c-0.5-0.1-1-0.1-1.5-0.2c-0.5-0.1-1-0.1-1.5-0.2
	c-0.5-0.1-1.1-0.1-1.7-0.2c-0.5,0-0.9-0.1-1.4-0.1c-0.6,0-1.1-0.1-1.7-0.1c-0.5,0-1-0.1-1.5-0.1c-0.5,0-1-0.1-1.6-0.1
	c-0.6,0-1.2,0-1.8-0.1c-0.4,0-0.8,0-1.3,0c-1,0-2.1,0-3.1,0c-51,0-95.1,30-115.5,73.3v72.8c2.9-0.3,5.9-0.5,8.9-0.6
	c0.9,0,1.9,0,2.8,0c1,0,1.9,0,2.8,0c0.3,0,0.7,0,1,0c0.6,0,1.2,0,1.8,0.1c0.4,0,0.7,0,1.1,0.1c0.6,0,1.1,0.1,1.7,0.1
	c0.4,0,0.8,0.1,1.1,0.1c0.6,0,1.1,0.1,1.7,0.1c0.4,0,0.7,0.1,1.1,0.1c0.6,0.1,1.1,0.1,1.7,0.2c0.4,0,0.7,0.1,1.1,0.2
	c0.5,0.1,1.1,0.1,1.6,0.2c0.4,0.1,0.7,0.1,1.1,0.2c0.6,0.1,1.1,0.2,1.7,0.3c0.3,0.1,0.7,0.1,1,0.2c0.6,0.1,1.1,0.2,1.7,0.3
	c0.3,0.1,0.6,0.1,1,0.2c0.6,0.1,1.2,0.2,1.7,0.4c0.3,0.1,0.6,0.2,0.9,0.2c0.6,0.1,1.2,0.3,1.7,0.4c0.3,0.1,0.6,0.2,0.9,0.2
	c0.6,0.2,1.2,0.3,1.7,0.5c0.3,0.1,0.6,0.2,0.9,0.3c0.6,0.2,1.1,0.3,1.7,0.5c0.3,0.1,0.6,0.2,0.9,0.3c0.6,0.2,1.1,0.4,1.7,0.6
	c0.3,0.1,0.5,0.2,0.8,0.3c0.6,0.2,1.2,0.4,1.7,0.6c0.3,0.1,0.5,0.2,0.8,0.3c0.6,0.2,1.2,0.4,1.7,0.7c0.3,0.1,0.5,0.2,0.8,0.3
	c0.6,0.2,1.2,0.5,1.7,0.7c0.2,0.1,0.5,0.2,0.7,0.3c0.6,0.2,1.2,0.5,1.7,0.8c0.2,0.1,0.5,0.2,0.7,0.3c0.6,0.3,1.1,0.5,1.7,0.8
	c0.2,0.1,0.5,0.2,0.7,0.3c0.6,0.3,1.1,0.6,1.7,0.8c0.2,0.1,0.4,0.2,0.7,0.3c0.6,0.3,1.1,0.6,1.7,0.9c0.2,0.1,0.4,0.2,0.6,0.4
	c0.6,0.3,1.1,0.6,1.7,0.9c0.2,0.1,0.4,0.3,0.6,0.4c0.6,0.3,1.1,0.6,1.7,1c0.2,0.1,0.4,0.3,0.6,0.4c0.6,0.3,1.1,0.7,1.7,1
	c0.2,0.1,0.4,0.3,0.6,0.4c0.5,0.4,1.1,0.7,1.6,1.1c0.2,0.1,0.4,0.3,0.6,0.4c0.5,0.4,1.1,0.7,1.6,1.1c0.2,0.1,0.4,0.3,0.6,0.4
	c0.5,0.4,1.1,0.8,1.6,1.2c0.2,0.1,0.4,0.3,0.6,0.4c0.5,0.4,1,0.8,1.5,1.2c0.2,0.1,0.4,0.3,0.5,0.4c0.5,0.4,1,0.8,1.5,1.2
	c0.2,0.1,0.4,0.3,0.5,0.5c0.5,0.4,1,0.8,1.5,1.3c0.2,0.2,0.4,0.3,0.5,0.5c0.5,0.4,1,0.9,1.5,1.3c0.2,0.2,0.3,0.3,0.5,0.5
	c0.5,0.4,1,0.9,1.4,1.3c0.2,0.2,0.3,0.3,0.5,0.5c0.5,0.5,0.9,0.9,1.4,1.4c0.2,0.2,0.3,0.3,0.5,0.5c0.5,0.5,0.9,0.9,1.4,1.4
	c0.2,0.2,0.3,0.3,0.5,0.5c0.4,0.5,0.9,0.9,1.3,1.4c0.2,0.2,0.3,0.4,0.5,0.5c0.4,0.5,0.9,0.9,1.3,1.4c0.2,0.2,0.3,0.4,0.5,0.6
	c0.4,0.5,0.8,1,1.2,1.5c0.2,0.2,0.3,0.4,0.5,0.6c0.4,0.5,0.8,1,1.2,1.5c0.2,0.2,0.3,0.4,0.5,0.6c0.4,0.5,0.8,1,1.1,1.5
	c0.2,0.2,0.3,0.4,0.5,0.6c0.4,0.5,0.7,1,1.1,1.5c0.2,0.2,0.3,0.4,0.4,0.6c0.4,0.5,0.7,1,1.1,1.5c0.1,0.2,0.3,0.4,0.4,0.7
	c0.3,0.5,0.7,1,1,1.6c0.1,0.2,0.3,0.5,0.4,0.7c0.3,0.5,0.7,1,1,1.6c0.1,0.2,0.3,0.5,0.4,0.7c0.3,0.5,0.6,1,0.9,1.6
	c0.1,0.2,0.3,0.5,0.4,0.7c0.3,0.5,0.6,1,0.9,1.6c0.1,0.3,0.3,0.5,0.4,0.8c0.3,0.5,0.6,1.1,0.8,1.6c0.1,0.3,0.3,0.5,0.4,0.8
	c0.3,0.5,0.5,1.1,0.8,1.6c0.1,0.3,0.3,0.6,0.4,0.8c0.2,0.5,0.5,1.1,0.7,1.6c0.1,0.3,0.3,0.6,0.4,0.9c0.2,0.5,0.5,1.1,0.7,1.6
	c0.1,0.3,0.2,0.6,0.4,0.9c0.2,0.5,0.4,1.1,0.7,1.6c0.1,0.3,0.2,0.6,0.4,0.9c0.2,0.5,0.4,1.1,0.6,1.6c0.1,0.3,0.2,0.6,0.3,1
	c0.2,0.5,0.4,1.1,0.6,1.6c0.1,0.3,0.2,0.7,0.3,1c0.2,0.5,0.3,1,0.5,1.6c0.1,0.3,0.2,0.7,0.3,1c0.2,0.5,0.3,1,0.5,1.6
	c0.1,0.4,0.2,0.7,0.3,1.1c0.1,0.5,0.3,1,0.4,1.6c0.1,0.4,0.2,0.7,0.3,1.1c0.1,0.5,0.3,1,0.4,1.6c0.1,0.4,0.2,0.8,0.3,1.1
	c0.1,0.5,0.2,1,0.3,1.5c0.1,0.4,0.2,0.8,0.2,1.2c0.1,0.5,0.2,1,0.3,1.5c0.1,0.4,0.1,0.8,0.2,1.2c0.1,0.5,0.2,1,0.3,1.5
	c0.1,0.4,0.1,0.8,0.2,1.2c0.1,0.5,0.1,1,0.2,1.5c0.1,0.4,0.1,0.8,0.2,1.3c0.1,0.5,0.1,1,0.2,1.5c0,0.4,0.1,0.9,0.1,1.3
	c0,0.5,0.1,1,0.1,1.5c0,0.4,0.1,0.9,0.1,1.3c0,0.5,0.1,1,0.1,1.5c0,0.5,0,0.9,0.1,1.4c0,0.5,0,1,0.1,1.5c0,0.5,0,0.9,0,1.4
	c0,0.4,0,0.7,0,1.1c67.3-3.5,121.1-59.4,121.1-127.6C512,217.8,466.6,165.5,407,154.8z M239.7,128.3c8.7,0,15.7,7,15.7,15.7v224
	c0,8.7-7,15.7-15.7,15.7h-224c0,0-0.1,0-0.1,0c-4.1,0-7.9-1.6-10.9-4.5c-3-3-4.6-6.9-4.6-11.1V144c0-8.7,7-15.7,15.7-15.7H239.7z
	 M183.4,290.7c0.2-7.2-1.4-14.4-4.9-20.7c-3.4-5.6-8.1-10.3-13.6-13.7c-7.4-4.4-15.1-8.2-23.1-11.4c-0.8-0.4-1.6-0.7-2.6-1
	c-8.2-3.4-14.3-6.1-18.4-8.1c-3.6-1.7-7-4.1-9.7-7c-2.4-2.6-3.7-5.8-3.7-9.2c0-5.6,3.4-10.7,8.5-12.9c6.7-3.3,14.1-4.9,21.5-4.6
	c7.1,0,14.2,0.9,21,2.6c6.4,1.4,12.4,3.9,18,7.3v-28.1c-12.8-4.1-26.3-6.1-39.7-5.5c-10.3-0.2-20.4,1.4-30.2,4.6
	c-8.5,2.7-16.1,7.6-22.1,14.4c-5.6,6.7-8.6,15.3-8.3,24c-0.2,6.5,1.3,12.9,4.4,18.6c3.2,5.4,7.6,10.1,12.8,13.5
	c6.8,4.5,14.1,8.3,21.6,11.5c9.4,4,16.6,7.2,21.5,9.6c4.3,2.1,8.1,4.7,11.5,8c2.7,2.7,4.1,6.3,4.1,10.1c0.1,5.4-2.8,10.5-7.5,13.1
	c-6.8,3.5-14.4,5.1-22,4.6c-8.2-0.1-16.3-1.4-24.2-3.9c-7.9-2.2-15.3-5.7-22-10.5v29.7c7,3,14.3,5.1,21.8,6.4
	c8.9,1.4,17.9,2.2,26.9,2.2c10.1,0.1,20.1-1.3,29.7-4.3c8.1-2.5,15.3-7.4,20.7-14C181,308.6,183.8,299.8,183.4,290.7z"/>
</svg>
