<svg xmlns="http://www.w3.org/2000/svg" xml:space="preserve" viewBox="0 0 512 512"><linearGradient id="microsoft-foundry_svg__a" x1="-642.424" x2="-642.424" y1="761.406" y2="779.484" gradientTransform="matrix(17.5556 0 0 -17.5556 11638.556 13708.777)" gradientUnits="userSpaceOnUse"><stop offset=".02" style="stop-color:#201ba6"/><stop offset=".64" style="stop-color:#2d29c7"/><stop offset="1" style="stop-color:#201ba6"/></linearGradient><path d="M350.7 341.9c1.2 0 2.4-3.2 2.4-7.6V210.5c0-27.3 21.1-56.3 50.7-65.1-1.8-6-20.6-67.6-26-84.7-5.6-18-21.5-60.7-41.1-60.7h-.4c-1.5.3-2.9 1.7-4.3 4.1-10.2 18.7-14.8 96.5-14.8 154.8v72.4c8.8 31.1 29.2 102.9 30.8 107.3-.1.1 1.5 3.3 2.7 3.3" style="fill:url(#microsoft-foundry_svg__a)"/><linearGradient id="microsoft-foundry_svg__b" x1="-638.919" x2="-638.919" y1="761.321" y2="772.631" gradientTransform="matrix(17.5556 0 0 -17.5556 11638.556 13708.777)" gradientUnits="userSpaceOnUse"><stop offset="0" style="stop-color:#3530c3"/><stop offset=".5" style="stop-color:#6d71d1"/><stop offset=".967" style="stop-color:#c0bff5"/><stop offset="1" style="stop-color:#e3e4ff"/></linearGradient><path d="M480.5 142.6h-57.8c-38.8 0-69.6 34.7-69.6 67.5v123.8c0 4.4-1.2 7.6-2.4 7.6s-2.8-3.2-2.8-3.2 2.4 6.8 5.6 6.8h63.4c19.7 0 79.2-19.6 79.2-80.7V160.2c0-13.2-7.6-17.6-15.6-17.6" style="fill:url(#microsoft-foundry_svg__b)"/><linearGradient id="microsoft-foundry_svg__c" x1="-652.912" x2="-652.912" y1="751.715" y2="781.161" gradientTransform="matrix(17.5556 0 0 -17.5556 11638.556 13708.777)" gradientUnits="userSpaceOnUse"><stop offset="0" style="stop-color:#302ec9"/><stop offset=".446" style="stop-color:#302ec9"/><stop offset=".949" style="stop-color:#cacafb"/><stop offset="1" style="stop-color:#7f7eaf"/></linearGradient><path d="M42.8 512h172.1c75.1 0 102.2-65.1 102.2-121.8V159c0-66.7 6-159 19.6-159H233.5c-24.6 0-45.7 26.4-69.7 79.5S24.4 459.4 19.2 474.9C10.8 500 18.4 512 42.8 512" style="fill:url(#microsoft-foundry_svg__c)"/></svg>