<?xml version="1.0" encoding="utf-8"?>
<!-- Generator: Adobe Illustrator 28.2.0, SVG Export Plug-In . SVG Version: 6.00 Build 0)  -->
<svg version="1.1" id="Layer_1" xmlns="http://www.w3.org/2000/svg" xmlns:xlink="http://www.w3.org/1999/xlink" x="0px" y="0px"
	 viewBox="0 0 512 512" style="enable-background:new 0 0 512 512;" xml:space="preserve">
<path d="M30.3,362c-16-34.4-23.9-71.1-23.6-109.3c0-4.3,0.3-8.7,0.8-13.2c8.7-62.1,73.7-110.9,148.8-112.5c1.2,0,2.4,0,3.7,0
	c7.4,0,46,0.9,81,19.3l0.1,0.1c1.5,0.8,3.1,1.6,4.6,2.4c0.5,0.3,1,0.5,1.4,0.8c1,0.6,2,1.1,3,1.7c0.6,0.3,1.1,0.7,1.7,1
	c0.9,0.5,1.8,1.1,2.6,1.6c0.6,0.4,1.2,0.8,1.8,1.2c0.8,0.5,1.7,1.1,2.5,1.7c0.6,0.4,1.2,0.9,1.8,1.3c0.8,0.6,1.6,1.1,2.3,1.7
	c0.6,0.4,1.2,0.9,1.8,1.4c0.7,0.6,1.5,1.2,2.2,1.7c0.6,0.5,1.2,1,1.7,1.5c0.7,0.6,1.4,1.2,2.1,1.8c0.6,0.5,1.1,1,1.7,1.5
	c0.7,0.6,1.4,1.2,2,1.9c0.6,0.5,1.1,1.1,1.7,1.6c0.7,0.6,1.3,1.3,1.9,1.9c0.6,0.6,1.1,1.1,1.6,1.7c0.6,0.7,1.3,1.3,1.9,2
	c0.5,0.6,1.1,1.2,1.6,1.8c0.6,0.7,1.2,1.4,1.8,2c0.5,0.6,1,1.2,1.5,1.8c0.6,0.7,1.1,1.4,1.7,2.1c0.5,0.6,1,1.3,1.5,1.9
	c0.5,0.7,1.1,1.4,1.6,2.2c0.5,0.6,0.9,1.3,1.4,2c0.5,0.7,1,1.5,1.5,2.2c0.5,0.7,0.9,1.3,1.3,2c0.5,0.8,1,1.5,1.5,2.3
	c0.4,0.7,0.8,1.4,1.3,2.1c0.2,0.4,0.5,0.8,0.7,1.2c-12.1-9.2-27.1-14.5-42.6-14.6c-15.3-0.2-26.6,5.1-33.4,8.3l-0.7,0.4
	c-1.1,0.6-2.2,1.1-3.3,1.7c-7.7,4-14.9,8.5-21.5,13.4c-36.2,26.5-60,65.4-66.9,109.7c-6.9,44.3,3.9,88.6,30.3,124.8
	c12.7,17.8,28.6,32.7,47.3,44.3l1.6,1h0.2c1.5,0.9,3.1,1.8,4.6,2.7c0.1,0.1,0.2,0.1,0.3,0.2c9.7,5.4,19.8,9.8,30.3,13.1
	C154.8,501.1,70.7,448,30.3,362z M467.3,388.9c0.3-0.4,0.2-0.8,0.2-1.1c-0.1-0.3-0.2-0.7-0.7-0.9l-0.1,0c-0.4-0.3-1-0.2-1.5,0.1
	c-7.1,3.7-14.3,6.9-21.9,9.7c-24,8.9-48.9,13.3-74.1,13.2c-47.8,0-93.3-15.8-128.1-44.4c-35.7-29.4-55.4-68.7-55.4-110.7
	c0.1-7.6,1.4-15.1,3.9-22c-0.6,0.6-1.2,1.2-1.8,1.7c-0.1,0.1-0.3,0.3-0.4,0.4c-0.8,0.8-1.7,1.7-2.5,2.5c-0.2,0.2-0.5,0.5-0.7,0.7
	c-0.6,0.6-1.2,1.2-1.7,1.8c-0.3,0.3-0.6,0.6-0.9,0.9c-0.5,0.6-1,1.1-1.5,1.7c-0.3,0.3-0.6,0.7-0.9,1c-0.5,0.6-1,1.2-1.5,1.8
	c-0.3,0.3-0.5,0.6-0.8,0.9c-0.6,0.7-1.2,1.4-1.8,2.2c-0.2,0.2-0.3,0.4-0.5,0.6c-0.7,0.9-1.4,1.8-2.1,2.8c-0.2,0.2-0.3,0.5-0.5,0.7
	c-0.5,0.7-1,1.4-1.6,2.1c-0.2,0.3-0.5,0.7-0.7,1c-0.4,0.6-0.9,1.3-1.3,1.9c-0.2,0.4-0.5,0.7-0.7,1.1c-0.4,0.6-0.9,1.3-1.3,1.9
	c-0.2,0.3-0.4,0.7-0.7,1c-0.5,0.8-1,1.5-1.4,2.3c-0.1,0.2-0.3,0.5-0.4,0.7c-0.6,1-1.2,2-1.8,3c-0.1,0.2-0.2,0.4-0.4,0.6
	c-0.5,0.8-0.9,1.6-1.4,2.4c-0.2,0.3-0.4,0.7-0.6,1c-0.4,0.7-0.7,1.4-1.1,2.1c-0.2,0.4-0.4,0.8-0.6,1.1c-0.3,0.7-0.7,1.4-1,2.1
	c-0.2,0.4-0.4,0.7-0.5,1.1c-0.4,0.8-0.7,1.6-1.1,2.3c-0.1,0.3-0.3,0.6-0.4,0.8c-0.5,1.1-1,2.1-1.4,3.2c-0.1,0.2-0.1,0.3-0.2,0.5
	c-0.4,0.9-0.8,1.8-1.1,2.7c-0.1,0.4-0.3,0.7-0.4,1.1c-0.3,0.7-0.6,1.5-0.8,2.2c-0.1,0.4-0.3,0.8-0.4,1.2c-0.3,0.7-0.5,1.4-0.8,2.2
	c-0.1,0.4-0.3,0.8-0.4,1.2c-0.3,0.8-0.5,1.6-0.8,2.4c-0.1,0.3-0.2,0.7-0.3,1c-0.3,1.1-0.7,2.3-1,3.4c0,0.1-0.1,0.2-0.1,0.3
	c-0.3,1-0.6,2.1-0.8,3.1c-0.1,0.4-0.2,0.8-0.3,1.1c-0.2,0.8-0.4,1.6-0.6,2.3c-0.1,0.4-0.2,0.9-0.3,1.3c-0.2,0.7-0.3,1.5-0.5,2.3
	c-0.1,0.4-0.2,0.9-0.3,1.3c-0.2,0.8-0.3,1.6-0.5,2.4c-0.1,0.4-0.1,0.8-0.2,1.1c-0.2,1.2-0.4,2.4-0.6,3.5
	c-6.4,40.9,3.6,81.8,28,115.2c2.8,4,5.9,7.8,9,11.5c1.6,1.8,3.2,3.6,4.9,5.4c0.8,0.9,1.7,1.7,2.5,2.6c7.7,7.7,16.3,14.5,25.6,20.5
	h0.2l1.6,1c1.1,0.7,2.1,1.3,3.2,1.9c0.7,0.4,1.4,0.8,2.1,1.2c0.3,0.2,0.7,0.4,1,0.6c31.3,17.4,68.7,22.7,103.7,14.4
	c3.7-0.9,7.1-1.9,10-2.8l2.6-0.8C391,473.3,437,436.8,467.3,388.9z M484.9,136c-0.5-0.9-0.9-1.8-1.3-2.6
	C443.4,55.2,356.1,6.6,256,6.6C145.2,6.6,50.3,80.2,18.1,181c3.2-4.4,6.8-8.7,10.6-12.8c0,0,0.1-0.1,0.1-0.1
	c0.7-0.7,1.4-1.5,2.1-2.2c0.3-0.3,0.6-0.6,0.9-0.9c0.6-0.6,1.2-1.2,1.8-1.8c0.9-0.9,1.8-1.7,2.7-2.6c0.4-0.3,0.7-0.7,1.1-1
	c0.7-0.7,1.4-1.3,2.2-2c0.4-0.3,0.7-0.6,1.1-0.9c0.9-0.8,1.8-1.5,2.6-2.2c0.2-0.1,0.3-0.3,0.5-0.4c0.1,0,0.1-0.1,0.2-0.1
	c0.5-0.4,0.9-0.7,1.4-1.1c28.5-22.8,64.7-36.3,103.2-38.5c0.2,0,0.4,0,0.6,0c1-0.1,2.1-0.1,3.1-0.2c0.5,0,1.1,0,1.6,0
	c0.7,0,1.5,0,2.2-0.1c1.3,0,2.6,0,3.9,0c11.1,0,50.3,1.5,87,20.7c27.2,13.5,49.5,34.7,64.5,61.2c0.4,0.7,0.8,1.4,1.2,2.1
	c0.1,0.3,0.3,0.5,0.4,0.8c0.2,0.4,0.4,0.9,0.7,1.3c0.2,0.3,0.3,0.7,0.5,1c0.1,0.3,0.3,0.5,0.4,0.8c8.2,17.1,10.8,35.6,11.7,46.8
	c0,0,0,0.1,0,0.1h0c0.3,4.5,0.4,7.8,0.4,9.3c0,13.3-6.7,30.4-17,43.8l-1.6-1.2l1.5,1.4c-0.6,0.6-1.2,1.2-1.8,1.8
	c-2,1.8-3.3,3.1-3.3,5.1c0,3,2.5,6.3,6.7,9.2c26,18.2,76.8,16.2,79,16.1l0.4,0c20.1,0,40-5.4,57.3-15.7
	c35.5-20.7,57.5-59.1,57.6-100.2C506,177.7,491.8,149.5,484.9,136z"/>
</svg>
