<svg xmlns="http://www.w3.org/2000/svg" xml:space="preserve" viewBox="0 0 512 512"><radialGradient id="microsoft-teams_svg__a" cx="-617.011" cy="781.8" r="13.474" gradientTransform="matrix(13.4784 0 0 -33.2694 8812.112 26254.887)" gradientUnits="userSpaceOnUse"><stop offset="0" style="stop-color:#a98aff"/><stop offset=".14" style="stop-color:#8c75ff"/><stop offset=".565" style="stop-color:#5f50e2"/><stop offset=".9" style="stop-color:#3c2cb8"/></radialGradient><path d="M256 215.6h161.7c44.6 0 80.8 36.2 80.8 80.8v134.7c0 44.6-36.2 80.8-80.8 80.8s-80.8-36.2-80.8-80.8V296.4c-.1-44.6-36.3-80.8-80.9-80.8" style="fill:url(#microsoft-teams_svg__a)"/><radialGradient id="microsoft-teams_svg__b" cx="-681.933" cy="813.775" r="13.474" gradientTransform="matrix(12.1875 30.4 30.7444 -12.3256 -16629.676 30928.078)" gradientUnits="userSpaceOnUse"><stop offset="0" style="stop-color:#85c2ff"/><stop offset=".69" style="stop-color:#7588ff"/><stop offset="1" style="stop-color:#6459fe"/></radialGradient><path d="M67.4 269.5c0-44.6 36.2-80.8 80.8-80.8H256c44.6 0 80.8 36.2 80.8 80.8v161.7c0 44.6 36.2 80.8 80.8 80.8H202c-74.4 0-134.7-60.3-134.7-134.7V269.5z" style="fill:url(#microsoft-teams_svg__b)"/><linearGradient id="microsoft-teams_svg__c" x1="242.525" x2="242.525" y1="325.368" y2="2" gradientTransform="matrix(1 0 0 -1 0 514)" gradientUnits="userSpaceOnUse"><stop offset=".801" style="stop-color:#6864f6;stop-opacity:0"/><stop offset="1" style="stop-color:#5149de"/></linearGradient><path d="M67.4 269.5c0-44.6 36.2-80.8 80.8-80.8H256c44.6 0 80.8 36.2 80.8 80.8v161.7c0 44.6 36.2 80.8 80.8 80.8H202c-74.4 0-134.7-60.3-134.7-134.7V269.5z" style="fill:url(#microsoft-teams_svg__c);fill-opacity:.7"/><radialGradient id="microsoft-teams_svg__d" cx="-702.521" cy="868.243" r="13.474" gradientTransform="matrix(-7.6098 17.6478 14.1664 6.1086 -17315.82 7272.03)" gradientUnits="userSpaceOnUse"><stop offset="0" style="stop-color:#bd96ff"/><stop offset=".687" style="stop-color:#bd96ff;stop-opacity:0"/></radialGradient><path d="M67.4 269.5c0-44.6 36.2-80.8 80.8-80.8H256c44.6 0 80.8 36.2 80.8 80.8v161.7c0 44.6 36.2 80.8 80.8 80.8H202c-74.4 0-134.7-60.3-134.7-134.7V269.5z" style="fill:url(#microsoft-teams_svg__d);fill-opacity:.7"/><radialGradient id="microsoft-teams_svg__e" cx="-740.344" cy="711.891" r="13.474" gradientTransform="matrix(0 -10 -12.6216 0 9389.423 -7301.43)" gradientUnits="userSpaceOnUse"><stop offset=".268" style="stop-color:#6868f7"/><stop offset="1" style="stop-color:#3923b1"/></radialGradient><path d="M404.2 188.6c37.2 0 67.4-30.2 67.4-67.4s-30.2-67.4-67.4-67.4-67.4 30.2-67.4 67.4 30.2 67.4 67.4 67.4" style="fill:url(#microsoft-teams_svg__e)"/><radialGradient id="microsoft-teams_svg__f" cx="-560.987" cy="833.958" r="13.474" gradientTransform="matrix(5.4702 4.5985 6.6512 -7.9121 -2129.542 9266.198)" gradientUnits="userSpaceOnUse"><stop offset=".271" style="stop-color:#a1d3ff"/><stop offset=".813" style="stop-color:#a1d3ff;stop-opacity:0"/></radialGradient><path d="M404.2 188.6c37.2 0 67.4-30.2 67.4-67.4s-30.2-67.4-67.4-67.4-67.4 30.2-67.4 67.4 30.2 67.4 67.4 67.4" style="fill:url(#microsoft-teams_svg__f);fill-opacity:.46"/><radialGradient id="microsoft-teams_svg__g" cx="-632.349" cy="748.403" r="13.474" gradientTransform="matrix(6.3601 -5.6583 -13.8802 -15.6018 14867.64 8184.186)" gradientUnits="userSpaceOnUse"><stop offset="0" style="stop-color:#e3acfd"/><stop offset=".816" style="stop-color:#9fa2ff;stop-opacity:0"/></radialGradient><path d="M404.2 188.6c37.2 0 67.4-30.2 67.4-67.4s-30.2-67.4-67.4-67.4-67.4 30.2-67.4 67.4 30.2 67.4 67.4 67.4" style="fill:url(#microsoft-teams_svg__g);fill-opacity:.4"/><radialGradient id="microsoft-teams_svg__h" cx="-730.705" cy="738.43" r="13.474" gradientTransform="scale(15.146 -12)rotate(90 12.94 738.833)" gradientUnits="userSpaceOnUse"><stop offset=".268" style="stop-color:#8282ff"/><stop offset="1" style="stop-color:#3923b1"/></radialGradient><path d="M202.1 161.7c44.6 0 80.8-36.2 80.8-80.8S246.7.1 202.1.1s-80.8 36.2-80.8 80.8 36.2 80.8 80.8 80.8" style="fill:url(#microsoft-teams_svg__h)"/><radialGradient id="microsoft-teams_svg__i" cx="-605.544" cy="820.245" r="13.474" gradientTransform="matrix(6.5643 5.5182 7.9814 -9.4944 -2436.424 11170.397)" gradientUnits="userSpaceOnUse"><stop offset=".271" style="stop-color:#a1d3ff"/><stop offset=".813" style="stop-color:#a1d3ff;stop-opacity:0"/></radialGradient><path d="M202.1 161.7c44.6 0 80.8-36.2 80.8-80.8S246.7.1 202.1.1s-80.8 36.2-80.8 80.8 36.2 80.8 80.8 80.8" style="fill:url(#microsoft-teams_svg__i);fill-opacity:.6"/><radialGradient id="microsoft-teams_svg__j" cx="-654.22" cy="762.513" r="13.474" gradientTransform="matrix(7.6321 -6.7899 -16.6563 -18.7221 17960.182 9872.036)" gradientUnits="userSpaceOnUse"><stop offset="0" style="stop-color:#e3acfd"/><stop offset=".816" style="stop-color:#9fa2ff;stop-opacity:0"/></radialGradient><path d="M202.1 161.7c44.6 0 80.8-36.2 80.8-80.8S246.7.1 202.1.1s-80.8 36.2-80.8 80.8 36.2 80.8 80.8 80.8" style="fill:url(#microsoft-teams_svg__j);fill-opacity:.5"/><radialGradient id="microsoft-teams_svg__k" cx="-664.61" cy="803.14" r="13.474" gradientTransform="matrix(16 16 16 -16 -2202.999 23739.98)" gradientUnits="userSpaceOnUse"><stop offset=".047" style="stop-color:#688eff"/><stop offset=".947" style="stop-color:#230f94"/></radialGradient><path d="M57.3 256h128c24.2 0 43.8 19.6 43.8 43.8v128c0 24.2-19.6 43.8-43.8 43.8h-128c-24.2 0-43.8-19.6-43.8-43.8v-128c0-24.2 19.6-43.8 43.8-43.8" style="fill:url(#microsoft-teams_svg__k)"/><radialGradient id="microsoft-teams_svg__l" cx="-646.237" cy="859.146" r="13.474" gradientTransform="matrix(0 11.2 13.0702 0 -11107.95 7623.2)" gradientUnits="userSpaceOnUse"><stop offset=".571" style="stop-color:#6965f6;stop-opacity:0"/><stop offset="1" style="stop-color:#8f8fff"/></radialGradient><path d="M57.3 256h128c24.2 0 43.8 19.6 43.8 43.8v128c0 24.2-19.6 43.8-43.8 43.8h-128c-24.2 0-43.8-19.6-43.8-43.8v-128c0-24.2 19.6-43.8 43.8-43.8" style="fill:url(#microsoft-teams_svg__l);fill-opacity:.7"/><path d="M168.1 324.8h-33v100.6h-27.8V324.8h-33v-22.6h93.8z" style="fill:#fff"/></svg>