<svg xmlns="http://www.w3.org/2000/svg" xml:space="preserve" viewBox="0 0 512 512"><linearGradient id="microsoft-defender-2020_svg__a" x1="436.088" x2="445.38" y1="185.031" y2="175.738" gradientTransform="matrix(13.5118 0 0 -13.5118 -5593.746 2735.589)" gradientUnits="userSpaceOnUse"><stop offset="0" style="stop-color:#0a59a2"/><stop offset="1" style="stop-color:#104c8e"/></linearGradient><path d="M256 0c-28.9 0-57.1 8.3-81.7 23.5-3.4 2.1-29.3 17.2-37.9 21.6-8.6 4.5-16.1 7.7-26.6 11.1-10.5 3.3-24 6.7-38.3 8.4s-29.4 1.7-37 1.7h-7.7c-9.1 0-16.4 7.3-16.4 16.4 0 7.7 0 66.1-.1 87.8s-.2 32.1.5 45.8 2.1 30.7 8.7 52.6c6.5 21.9 18 48.7 34.2 73.8s37.1 48.6 58.6 69.1c21.6 20.4 43.8 37.7 65.1 52.7s41.6 27.6 52.4 34.3c10.8 6.8 15.1 9.4 16.7 10.2 2.4 1.1 6.6 3.1 9.4 3.1s7-2 9.4-3.1c1.6-.8 5.9-3.4 16.7-10.2s31.1-19.4 52.4-34.3c21.3-15 43.6-32.3 65.1-52.7 21.6-20.4 42.4-43.9 58.6-69.1 16.2-25.1 27.7-51.9 34.2-73.8s8-38.9 8.7-52.6.5-24 .5-45.8c-.1-21.7-.1-80.1-.1-87.8 0-9.1-7.3-16.4-16.4-16.4h-7.7c-7.7 0-22.7 0-37-1.7s-27.8-5-38.3-8.4c-10.5-3.3-18-6.6-26.6-11.1S341 25.6 337.5 23.5C313.1 8.3 284.9 0 256 0" style="fill:url(#microsoft-defender-2020_svg__a)"/><linearGradient id="microsoft-defender-2020_svg__b" x1="421.955" x2="430.447" y1="178.813" y2="187.305" gradientTransform="matrix(13.5118 0 0 -13.5118 -5593.746 2735.589)" gradientUnits="userSpaceOnUse"><stop offset="0" style="stop-color:#046dc2"/><stop offset="1" style="stop-color:#0473cd"/></linearGradient><path d="M256 0c-28.9 0-57.1 8.3-81.7 23.5-3.4 2.1-29.3 17.2-37.9 21.6-8.6 4.5-16.1 7.7-26.6 11.1-10.5 3.3-24 6.7-38.3 8.4s-29.4 1.7-37 1.7h-7.7c-9.1 0-16.4 7.3-16.4 16.4 0 7.7 0 66.1-.1 87.8s-.2 32.1.5 45.8 2.1 30.7 8.7 52.6c6.5 21.9 18 48.7 34.2 73.8s37.1 48.6 58.6 69.1c21.6 20.4 43.8 37.7 65.1 52.7s41.6 27.6 52.4 34.3c10.8 6.8 15.1 9.4 16.7 10.2 2.4 1.1 6.6 3.1 9.4 3.1z" style="fill:url(#microsoft-defender-2020_svg__b)"/><linearGradient id="microsoft-defender-2020_svg__c" x1="446.496" x2="436.375" y1="198.017" y2="187.896" gradientTransform="matrix(13.5118 0 0 -13.5118 -5593.746 2735.589)" gradientUnits="userSpaceOnUse"><stop offset="0" style="stop-color:#0a85d9"/><stop offset="1" style="stop-color:#0882d9"/></linearGradient><path d="M256 0v244.3h242.2c1.8-10.8 2.6-20.1 2.9-28.2.7-13.7.5-24 .5-45.8-.1-21.7-.1-80.1-.1-87.8 0-9.1-7.3-16.4-16.4-16.4h-7.7c-7.7 0-22.7 0-37-1.7s-27.8-5-38.3-8.4c-10.5-3.3-18-6.6-26.6-11.1s-34.4-19.5-37.9-21.6C313.1 8.3 284.9 0 256 0" style="fill:url(#microsoft-defender-2020_svg__c)"/><linearGradient id="microsoft-defender-2020_svg__d" x1="417.486" x2="433.669" y1="198.07" y2="186.462" gradientTransform="matrix(13.5118 0 0 -13.5118 -5593.746 2735.589)" gradientUnits="userSpaceOnUse"><stop offset="0" style="stop-color:#3cccf4"/><stop offset="1" style="stop-color:#2cb2eb"/></linearGradient><path d="M256 0c-28.9 0-57.1 8.3-81.7 23.5-3.4 2.1-29.3 17.2-37.9 21.6-8.6 4.5-16.1 7.7-26.6 11.1-10.5 3.3-24 6.7-38.3 8.4s-29.4 1.7-37 1.7h-7.7c-9.1 0-16.4 7.3-16.4 16.4 0 7.7 0 66.1-.1 87.8s-.2 32.1.5 45.8c.4 8.1 1.1 17.4 2.9 28.2H256z" style="fill:url(#microsoft-defender-2020_svg__d)"/></svg>