<svg xmlns="http://www.w3.org/2000/svg" xml:space="preserve" viewBox="0 0 512 512"><path d="M505.3 315.8c4-4.1 6.4-9.5 6.6-15.6v-73c-.5-7.4-4.2-14-9.8-18.5 5-4.5 8.5-10.5 9.8-17.4v-74.8c-.8-13.3-11.4-24-24.8-25h-16.6v-9.3c0-11.4-9.2-20.6-20.7-20.6H291.2V14.4L0 62.7v386.6l291.2 48.3v-47.3h158.6c11.3 0 20.3-8.9 20.7-20h16.3c13.9 0 25.2-10.9 25.2-24.3v-73c.4-6.6-2.2-12.8-6.7-17.2M197.4 343l-33-2-58-111.4c-1.1-2.4-1.2-4.6-1.6-6.3v114.1c-9.4.1-18.9-.4-28.3-1.7v-160l30.9-1.3 59.7 110.7c-.7-1.5-.9-3.3-.9-5.1V170.9l31.2-1.9zm298.8 63c-.7 4.7-4.5 8.5-9.4 9.1h-16.2l-.1-91.2h16.3c4.9.7 8.7 4.4 9.4 9.1zm0-105.8c-.6 4-3.4 7.2-7.2 8.6h-18.5l-.1-90.7h16.3c4.9.7 8.7 4.4 9.4 9.1v73zm0-108.9c-.7 4.9-4.5 8.4-9.4 9.1h-33.1l.1 232.7H291.2v-34.6h126.2v-22H291.2v-29.9h126.2v-22H291.2V293h126.2v-22H291.2v-30h126.2v-22H291.2v-29.9h126.2v-22H291.2v-29.9h126.2v-22H291.2V78.7h162.6V107l32.9.1c4.9.7 8.7 4.5 9.4 9.4v74.8z" style="fill:#fff"/></svg>