<svg xmlns="http://www.w3.org/2000/svg" xml:space="preserve" viewBox="0 0 512 512"><path d="M155.5 227.9c.5 12.3-7.6 24.2-18.5 24.6h-15.2v-47l16-.1c10 .4 17.3 8.6 17.7 22.5m187.9-100.2v68.6H412c0-37.8-30.7-68.6-68.6-68.6M512 92v317.3c0 10.4-8.9 18.8-19.9 18.8H280.6v60.7L0 442.3V69.7l280.6-46.6v50h211.5c11 .1 19.9 8.5 19.9 18.9M180.4 192.9c-8.1-11.5-16.2-17.5-33.7-16.9l-54 3v156l29.2 1.7v-55.4h22.7c24.9-1.3 41.5-24.4 43.8-51.2 1.1-12.6-1-27.2-8-37.2m315.2-103h-215v71.5c12.6-15.3 31.7-25.1 53.1-25.1v68.6h68.6c0 37.9-30.7 68.6-68.6 68.6-21.4 0-40.5-9.8-53.1-25.1v53.1h154.2v21.2H280.6v28.8h154.2v21.2H280.6v38.6l214.9-.3V89.9z"/></svg>