<?xml version="1.0" encoding="utf-8"?>
<!-- Generator: Adobe Illustrator 28.2.0, SVG Export Plug-In . SVG Version: 6.00 Build 0)  -->
<svg version="1.1" id="Layer_1" xmlns="http://www.w3.org/2000/svg" xmlns:xlink="http://www.w3.org/1999/xlink" x="0px" y="0px"
	 viewBox="0 0 512 512" style="enable-background:new 0 0 512 512;" xml:space="preserve">
<path d="M101.9,0.1c2-0.3,4.2,0,6.2,0.8c1.7,0.7,2.1,0.8,9.4,5.9c1.8,1.3,4.5,3.1,7.4,5.1c2.9,2,6.1,4.2,8.6,6
	c2.5,1.7,5.8,4,9.1,6.3c3.3,2.3,6.6,4.6,9.2,6.3c4.4,3,10.6,7.3,14.8,10.2l1.5,1.1c7.9,5.5,10.4,7.3,13.1,10.1
	c9.3,9.3,14.7,21.1,15.6,34.3c0.1,2.3,0.2,26.3,0.2,82.4v248.2l-9.1,5.6c-3.4,2.1-6.8,4.2-9.7,5.9c-2.8,1.7-4.9,3-5.9,3.6
	c-9.5,5.8-18.5,8.4-29.1,8.4c-2.8,0-5.6-0.1-8.3-0.5c-9-1.5-17.1-4.9-24.2-10.2c-2.7-2-8.5-7.7-10.7-10.6c-5-6.8-8.2-13.8-10-22.2
	c-0.4-2.2-0.7-3.6-1.1-4.7l-0.1-71.4l0.1-73.1v-118c0-89.7,0-115.1,0.2-118.6c1.3-5.9,6.1-10.2,12.3-10.9L101.9,0.1z M392.1,420.1
	c0.2-0.6,0.4-1.2,0.8-1.8c0.3-0.5,0.7-1.2,1.3-2c3.7-5.4,6-11.9,7.2-19.7c0.5-3.5,0.5-12.8,0-16.7c-1.5-10.4-4.9-21.1-8.5-26.6
	c-5.2-7.9-13.6-14.7-25.8-20.7c-1.6-0.8-3.2-1.5-4.9-2.3c-4.4,2.6-13.6,8.3-27.9,17.1l-13.1,8.1c-9.8,6.1-18.3,11.3-19.3,11.9
	l-0.3,0.2c-0.3,0.2-0.7,0.4-1.1,0.7c-0.9,0.6-1.9,1.2-2.8,1.7l-10.5,6.6c-0.4,0.2-0.8,0.5-1.1,0.6l-0.5,0.3
	c-0.5,0.3-1.5,0.9-2.3,1.4c-1,0.6-2.5,1.5-4.4,2.7c-3.8,2.3-9,5.5-13.6,8.4l-3.1,1.9c-2.3,1.4-3.8,2.3-7.9,4.9l-0.1,0.1
	c-0.9,0.6-1.9,1.2-2.7,1.7c-1.1,0.7-1.7,1.1-2.2,1.4c-0.3,0.2-0.8,0.5-1.4,0.9c-1.1,0.7-2.7,1.6-4.2,2.6c-1.2,0.8-2.9,1.8-4.7,2.9
	c-1.9,1.2-3.9,2.4-5.3,3.3l-0.1,0.1c-1.6,1-3.9,2.4-6.2,3.8c-2,1.2-3.9,2.4-5.6,3.4l-2.9,1.8c-2.9,1.8-5.8,3.6-7.4,4.5
	c-2.4,1.5-3.3,2.1-3.6,2.3l-0.2,0.1c-0.4,0.3-0.6,0.5-28.9,18l-0.4,0.2c-7.9,4.9-17.1,8.1-26.6,9.4c-4.6,0.6-12.6,0.6-17.1,0
	c-1.7-0.2-3.5-0.5-5.2-0.9c-7.3-1.4-14.4-4.1-21-8.1c-2.5-1.5-4.6-2.9-6.7-4.5c13.9,28.3,38.3,51,68.7,63
	c11.4,4.4,22.8,7.3,34.8,8.6c4.3,0.5,17.6,0.7,22.6,0.4c21.9-1.6,41.3-8.2,61-20.7l0.1-0.1c0.8-0.5,2-1.2,3.2-2c1.5-1,3.1-2,4.4-2.8
	c1.1-0.7,2.3-1.5,3.5-2.2c1.2-0.8,2.5-1.5,3-1.9l0.3-0.2c0.5-0.3,0.9-0.6,1.4-0.9c1-0.6,1.6-1,2.2-1.3c0.3-0.2,0.6-0.4,1-0.6
	c0.5-0.3,1-0.6,1.4-0.9c0.5-0.3,1.7-1.1,3.3-2.1c1.5-1,3.4-2.1,5.2-3.3l38.3-24.2c16.5-10.4,21-13.8,28.4-21
	C387.7,425.1,390.8,421.7,392.1,420.1z M415,378.8c1.2-3.3,2.2-6.7,3.1-9.9c5.5-20.5,6.3-42.2,2.2-62.9c-8-40.5-33.2-74.9-69.2-94.6
	c-1.3-0.7-5-2.7-9.7-5.1c-3.8-2-8.4-4.4-13.7-7.1c-1.8-0.9-4.3-2.2-5.8-3c-1.3-0.6-3.7-1.9-5.6-2.9c-2.1-1-7.3-3.8-11.8-6.2
	c-3-1.6-6.2-3.3-8.6-4.5c-1.3-0.7-2.3-1.2-3-1.5c-2.1-1.1-4-2.1-5.5-2.9c-2.3-1.2-4.2-2.2-5.8-3.1c-13.4-7.1-16.8-8.6-17.6-8.9
	c-0.5-0.1-1.8-0.4-2.9-0.5c-0.7,0.2-1.5,0.4-2.5,0.5c-6.4,0.8-11.4,6.1-11.9,12.7c-0.2,2.7-0.2,2.8,8.7,25.7l0.3,0.9
	c19.2,49.4,27.1,69.7,28.1,71.6l0.1,0.2c1.8,3.9,4.5,7.8,7.8,11.1c2.7,2.7,4.2,4,7,5.8c4.9,3.2,7.3,4.2,29.2,10.7
	c15.5,4.6,26.1,8.1,34.7,11.6c1.3,0.1,3.1,0.7,11.1,4.7c16.7,8.4,28,18.6,33.6,30.4c3.3,7,6.2,17.5,7.6,26.8
	C415,378.4,415,378.6,415,378.8z"/>
</svg>
