<svg xmlns="http://www.w3.org/2000/svg" xml:space="preserve" viewBox="0 0 512 512"><linearGradient id="microsoft-edge_svg__a" x1="122" x2="478.568" y1="-371" y2="-371" gradientTransform="matrix(1 0 0 -1 -4.6 -17)" gradientUnits="userSpaceOnUse"><stop offset="0" style="stop-color:#0c59a4"/><stop offset="1" style="stop-color:#114a8b"/></linearGradient><path d="M462.2 381.1c-6.9 3.6-13.9 6.7-21.2 9.4-23 8.5-47.3 12.9-71.8 12.8-94.6 0-177-65-177-148.6.3-22.8 12.8-43.7 32.8-54.6-85.6 3.6-107.6 92.8-107.6 145 0 148 136.2 162.8 165.6 162.8 15.8 0 39.6-4.6 54-9.2l2.6-.8c55.1-19 102.1-56.3 133.2-105.6 2.3-3.8 1.1-8.7-2.7-11-2.4-1.5-5.4-1.5-7.9-.2" style="fill:url(#microsoft-edge_svg__a)"/><radialGradient id="microsoft-edge_svg__b" cx="318.99" cy="-411.553" r="190.794" gradientTransform="matrix(1 0 0 -.95 -4.6 -34.2)" gradientUnits="userSpaceOnUse"><stop offset=".7" style="stop-color:#000;stop-opacity:0"/><stop offset=".9" style="stop-color:#000;stop-opacity:.5"/><stop offset="1" style="stop-color:#000"/></radialGradient><path d="M462.2 381.1c-6.9 3.6-13.9 6.7-21.2 9.4-23 8.5-47.3 12.9-71.8 12.8-94.6 0-177-65-177-148.6.3-22.8 12.8-43.7 32.8-54.6-85.6 3.6-107.6 92.8-107.6 145 0 148 136.2 162.8 165.6 162.8 15.8 0 39.6-4.6 54-9.2l2.6-.8c55.1-19 102.1-56.3 133.2-105.6 2.3-3.8 1.1-8.7-2.7-11-2.4-1.5-5.4-1.5-7.9-.2" style="opacity:.35;fill:url(#microsoft-edge_svg__b)"/><linearGradient id="microsoft-edge_svg__c" x1="310.098" x2="87.504" y1="-216.388" y2="-458.981" gradientTransform="matrix(1 0 0 -1 -4.6 -17)" gradientUnits="userSpaceOnUse"><stop offset="0" style="stop-color:#1b9de2"/><stop offset=".2" style="stop-color:#1595df"/><stop offset=".7" style="stop-color:#0680d7"/><stop offset="1" style="stop-color:#0078d4"/></linearGradient><path d="M211.4 482.7c-17.8-11.1-33.2-25.5-45.4-42.6-52.6-72-36.9-172.9 35.1-225.5 7.5-5.5 15.5-10.3 23.9-14.5 6.4-3 17-8.2 31.2-8 20.3.2 39.3 9.8 51.4 26 8 10.8 12.5 23.9 12.6 37.4 0-.4 49-159.2-160-159.2-87.8 0-160 83.2-160 156.4-.3 38.7 7.9 76.9 24.2 112 55.2 117.5 189.6 175.1 312.8 134-42.2 13.3-88.1 7.5-125.6-16z" style="fill:url(#microsoft-edge_svg__c)"/><radialGradient id="microsoft-edge_svg__d" cx="-884.462" cy="-231.344" r="286.391" gradientTransform="matrix(.15 -.99 -.8 -.12 88.7 -505.42)" gradientUnits="userSpaceOnUse"><stop offset=".8" style="stop-color:#000;stop-opacity:0"/><stop offset=".9" style="stop-color:#000;stop-opacity:.5"/><stop offset="1" style="stop-color:#000"/></radialGradient><path d="M211.4 482.7c-17.8-11.1-33.2-25.5-45.4-42.6-52.6-72-36.9-172.9 35.1-225.5 7.5-5.5 15.5-10.3 23.9-14.5 6.4-3 17-8.2 31.2-8 20.3.2 39.3 9.8 51.4 26 8 10.8 12.5 23.9 12.6 37.4 0-.4 49-159.2-160-159.2-87.8 0-160 83.2-160 156.4-.3 38.7 7.9 76.9 24.2 112 55.2 117.5 189.6 175.1 312.8 134-42.2 13.3-88.1 7.5-125.6-16z" style="opacity:.41;fill:url(#microsoft-edge_svg__d)"/><radialGradient id="microsoft-edge_svg__e" cx="335.675" cy="634.378" r="404.788" gradientTransform="matrix(-.04 1 2.13 .08 -1286.02 -291.7)" gradientUnits="userSpaceOnUse"><stop offset="0" style="stop-color:#35c1f1"/><stop offset=".1" style="stop-color:#34c1ed"/><stop offset=".2" style="stop-color:#2fc2df"/><stop offset=".3" style="stop-color:#2bc3d2"/><stop offset=".7" style="stop-color:#36c752"/></radialGradient><path d="M304.8 297.7c-1.8 2-6.8 5-6.8 11.2 0 5.2 3.4 10.4 9.6 14.6 28.6 20 82.8 17.2 83 17.2 21.3 0 42.2-5.7 60.6-16.6 37.6-22 60.7-62.2 60.8-105.8.6-44.8-16-74.6-22.6-87.8C446.8 47.7 355.4.1 256 .1 116 .1 2 112.5 0 252.5c1-73 73.6-132 160-132 7 0 47 .6 84 20 26 12.9 47.5 33.3 61.8 58.6 12.2 21.2 14.4 48.2 14.4 59s-5.4 26.6-15.6 39.8z" style="fill:url(#microsoft-edge_svg__e)"/><radialGradient id="microsoft-edge_svg__f" cx="714.993" cy="844.701" r="194.594" gradientTransform="matrix(.28 .96 .78 -.23 -378.96 -337.42)" gradientUnits="userSpaceOnUse"><stop offset="0" style="stop-color:#66eb6e"/><stop offset="1" style="stop-color:#66eb6e;stop-opacity:0"/></radialGradient><path d="M304.8 297.7c-1.8 2-6.8 5-6.8 11.2 0 5.2 3.4 10.4 9.6 14.6 28.6 20 82.8 17.2 83 17.2 21.3 0 42.2-5.7 60.6-16.6 37.6-22 60.7-62.2 60.8-105.8.6-44.8-16-74.6-22.6-87.8C446.8 47.7 355.4.1 256 .1 116 .1 2 112.5 0 252.5c1-73 73.6-132 160-132 7 0 47 .6 84 20 26 12.9 47.5 33.3 61.8 58.6 12.2 21.2 14.4 48.2 14.4 59s-5.4 26.6-15.6 39.8z" style="fill:url(#microsoft-edge_svg__f)"/></svg>