<svg xmlns="http://www.w3.org/2000/svg" xml:space="preserve" viewBox="0 0 512 512"><radialGradient id="microsoft-designer_svg__a" cx="111.757" cy="537.103" r="1" gradientTransform="matrix(324 -264.0004 -323.6821 -397.2457 137689.313 243396.64)" gradientUnits="userSpaceOnUse"><stop offset=".045" style="stop-color:#ad7dff"/><stop offset=".328" style="stop-color:#6864f6"/><stop offset=".571" style="stop-color:#5750e2"/><stop offset=".809" style="stop-color:#3e36b1"/><stop offset="1" style="stop-color:#261d82"/></radialGradient><path d="M440 415.8V248H240v8c-106 0-192 86-192 192v32c0 17.7 14.3 32 32 32h160c80.9 0 153.1-37.6 200-96.2" style="fill-rule:evenodd;clip-rule:evenodd;fill:url(#microsoft-designer_svg__a)"/><radialGradient id="microsoft-designer_svg__b" cx="112.203" cy="537.123" r="1" gradientTransform="scale(-481.906 481.906)rotate(-19.696 -1488.466 595.108)" gradientUnits="userSpaceOnUse"><stop offset=".706" style="stop-color:#ac80ff;stop-opacity:0"/><stop offset=".921" style="stop-color:#bd96ff"/></radialGradient><path d="M440 415.8V248H240v8c-106 0-192 86-192 192v32c0 17.7 14.3 32 32 32h160c80.9 0 153.1-37.6 200-96.2" style="fill-rule:evenodd;clip-rule:evenodd;fill:url(#microsoft-designer_svg__b);fill-opacity:.5"/><radialGradient id="microsoft-designer_svg__c" cx="111.871" cy="536.815" r="1" gradientTransform="matrix(448.0005 352.5708 291.3483 -370.207 -206470.094 159305.672)" gradientUnits="userSpaceOnUse"><stop offset="0" style="stop-color:#ffc470"/><stop offset=".251" style="stop-color:#ff835c"/><stop offset=".584" style="stop-color:#f24a9d"/><stop offset=".871" style="stop-color:#b339f0"/><stop offset="1" style="stop-color:#c354ff"/></radialGradient><path d="M240 0H80C62.3 0 48 14.3 48 32v32c0 106 86 192 192 192h72c70.7 0 128 57.3 128 128 0 13.7-2.1 26.8-6.1 39.2C472.6 378.3 496 319.9 496 256 496 114.6 381.4 0 240 0" style="fill:url(#microsoft-designer_svg__c)"/><radialGradient id="microsoft-designer_svg__d" cx="112.177" cy="537.196" r="1" gradientTransform="matrix(-365.3312 -254.6691 -241.8411 346.9291 171129.578 -157434.328)" gradientUnits="userSpaceOnUse"><stop offset=".709" style="stop-color:#ffb357;stop-opacity:0"/><stop offset=".942" style="stop-color:#ffb357"/></radialGradient><path d="M240 0H80C62.3 0 48 14.3 48 32v32c0 106 86 192 192 192h72c70.7 0 128 57.3 128 128 0 13.7-2.1 26.8-6.1 39.2C472.6 378.3 496 319.9 496 256 496 114.6 381.4 0 240 0" style="fill:url(#microsoft-designer_svg__d);fill-opacity:.5"/></svg>