<svg xmlns="http://www.w3.org/2000/svg" xml:space="preserve" viewBox="0 0 512 512"><path d="M82.3 114.9c42.1-57.3 109.4-95.1 185.3-96.6V136c-3.5-12.1-14.7-21-27.9-21H82.3zM281 18.4v230.9h231C509.5 123.2 407 20.8 281 18.4m-12.3 244.3V368c0 16-13 29-29 29H82.2c42.9 58.4 111.9 96.5 189.5 96.7h5.3c127.8-.4 232.4-103.6 234.9-231zm-142.8-58.3H100v50.5h25c7.9.6 15.8-1.7 22.1-6.6 5.2-5 7.9-12.1 7.5-19.3-.1-16.4-9.6-24.6-28.7-24.6M255.4 144v224c0 8.7-7 15.7-15.7 15.7H15.5c-4.1 0-7.9-1.6-10.9-4.5-3-3-4.6-6.9-4.6-11.1V144c0-8.7 7-15.7 15.7-15.7h224c8.7 0 15.7 7 15.7 15.7m-70.3 83.8c.8-13-4.4-25.9-14.2-34.6-11.7-8.6-26.2-12.9-40.7-11.9H71v148.8h29v-52.6h28.3c10.3.2 20.5-1.9 29.9-6.3 8.2-3.8 15.1-9.9 19.9-17.5 4.8-7.8 7.2-16.8 7-25.9"/></svg>