<svg xmlns="http://www.w3.org/2000/svg" xml:space="preserve" viewBox="0 0 512 512"><path d="M511.7 252.5c-2.9-32.5-28.6-58.2-61.1-61.1-15.2-30.5-40-55.2-70.6-70.1-3.5-34.6-32.6-60.9-67.4-60.9v.1c-5.8 0-11.5.8-16.9 2.2V5.8L0 56.9V455l295.8 51.2v-51.5c7.4 1.9 15.3 2.7 23.4 1.9 32.3-3.1 57.8-28.7 60.9-60.9 30.6-14.9 55.4-39.6 70.6-70 37-3.4 64.3-36.1 61-73.2m-319.6 52.3c-.5 3.4-1.4 6.8-2.5 10.1-1.1 3.1-2.5 6.1-4.3 8.9-1.7 2.8-3.7 5.3-6 7.7-2.7 2.8-5.7 5.3-8.9 7.5-3.6 2.1-7.4 3.8-11.4 5-4.4 1.3-8.8 2.2-13.4 2.6-5 .4-10.1.4-15.1 0-3.9-.2-7.7-.6-11.5-1.3-3.5-.6-7-1.4-10.3-2.5-3.1-1-6-2.2-8.9-3.6-2.8-1.4-5.6-3-8.2-4.8v-39.8c2.7 3 5.7 5.7 8.9 8.2 3.1 2.3 6.3 4.4 9.8 6.1 3.3 1.7 6.7 2.9 10.2 3.8 3.6 1 7.3 1.5 11 1.6 1.8.1 3.7.1 5.5 0q2.4-.15 4.8-.9c2.8-.9 5.4-2.3 7.6-4.3.8-.8 1.6-1.7 2.2-2.7s1.2-2 1.6-3c.4-1.1.7-2.2 1-3.3q.15-1.8 0-3.6c0-1.5-.2-3-.4-4.5s-.6-2.9-1.1-4.4c-.7-1.4-1.5-2.8-2.4-4-1-1.4-2.1-2.7-3.3-3.8-1.1-1.1-2.3-2.1-3.6-3.1l-4.8-3.5-6.1-3.7c-2.2-1.3-4.5-2.8-7.2-4.2-5.5-2.9-10.8-6.5-15.6-10.5-4.1-3.6-7.8-7.7-10.8-12.3-2.8-4.3-5-9-6.4-13.9-1.4-5.1-2.2-10.4-2.1-15.7 0-3.8.3-7.6 1-11.4.6-3.7 1.7-7.3 3.1-10.7 1.2-3.1 2.7-6.1 4.6-8.9 1.9-3 4-5.8 6.5-8.3q3.75-3.75 8.1-6.9c3-2 6.2-3.7 9.5-5.1 3.5-1.5 7.2-2.7 10.9-3.5 4.1-.9 8.3-1.4 12.5-1.7l-1-.2c3.8 0 7.6-.1 11.1 0 3.6.1 7 .3 10.3.7s6.4 1 9.4 1.7c3 .8 6 1.7 8.9 2.8v39c-2.8-2-5.8-3.9-8.9-5.4-2.9-1.5-5.8-2.8-8.9-3.8-3.2-.9-6.4-1.6-9.6-2-3.3-.3-6.7-.3-10.1 0-1.6.1-3.2.3-4.8.5-1.5.2-2.9.6-4.3 1.2-1.3.5-2.6 1.1-3.8 1.8-1.2.6-2.2 1.4-3.2 2.3s-1.8 1.8-2.6 2.8c-.7 1-1.3 2.1-1.8 3.2q-.75 1.65-1.2 3.6c-.1 1.3-.1 2.7 0 4q-.15 2.1 0 4.2c.2 1.3.5 2.6 1 3.8.4 1.2.9 2.3 1.6 3.4.6 1.1 1.4 2.2 2.2 3.1.9 1 2 2 3 2.8 1.2 1 2.6 2 4.2 3.1l5.3 3.4c2 1.2 3 1.8 6.6 3.7 3.6 2 6.9 3.9 10 5.9 3 2 5.9 3.9 8.5 5.9 2.5 1.8 4.8 3.7 7 5.8 2 1.8 3.8 3.7 5.5 5.8 1.9 2.3 3.5 4.8 5 7.4 1.4 2.6 2.7 5.4 3.6 8.2.9 2.9 1.7 5.9 2.1 8.9.5 3.2.7 6.5.7 9.7.6 3.7.3 7.4-.3 11.1M295.8 193c5.5 1.4 11.1 2.2 16.8 2.2h.1c17.6 0 34.5-6.9 47.2-19.1 14.9 8.4 27.2 20.7 35.6 35.6-25.5 26.1-25.5 67.8 0 93.8-8.4 14.9-20.7 27.2-35.6 35.6-17.6-16.9-42-22.5-64.1-16.8zm148.6 118q-.15 0 0 0H441c-14.1 34.2-41.4 61.3-75.7 75.2v3.4c-1.2 29-25.7 51.6-54.7 50.4-5.2-.2-10-1.4-14.7-3v-97.2c15.3-5.3 32.8-3.5 47.2 6.5 5.2 3.6 9.7 8.1 13.3 13.3 26.2-11.1 47.2-31.9 58.4-58-23.8-16.2-29.9-48.6-13.7-72.3 3.7-5.4 8.3-10 13.7-13.7-11.4-26.2-32.4-47-58.7-58-9.8 14.2-26 22.7-43.3 22.7l.6.4c-6.1 0-12-1.1-17.5-3V79.1c5.5-1.9 11.4-3 17.5-3l-.6-.4c28.9 0 52.4 23.3 52.5 52.2v3.3c34.3 14 61.6 41.1 75.7 75.3h3.4c28.9 0 52.3 23.4 52.3 52.2-.1 28.8-23.5 52.2-52.3 52.3" style="fill-rule:evenodd;clip-rule:evenodd"/></svg>