<svg xmlns="http://www.w3.org/2000/svg" xml:space="preserve" viewBox="0 0 512 512"><path d="M309.1 474.1v.2c-3.4 16.3-15.4 29.9-31.6 35.3-.1 0-.1 0-.2.1-.6.2-1.1.4-1.7.5-4.2 1.3-8.6 1.9-13 1.9-8.2 0-16.2-2.1-23.3-6.2L140.7 450c-6.4-3.8-10.5-10.7-10.6-18.2-.1-11.7 9.3-21.4 21-21.5H310v56.8c0 .4 0 .9-.1 1.3 0 .3-.1.6-.1.9 0 .4-.1.7-.1 1.1 0 .2-.1.4-.1.7-.1.4-.1.8-.2 1.2 0 .1-.1.3-.1.4 0 .4-.1.9-.2 1.4M261.9 0c-8.4 0-16.7 2.2-24 6.3L77.6 97.8C63.2 106 54.2 121.4 54.2 138v237.6c0 5.7 2.2 11 6.2 15s9.3 6.2 15 6.2h.1c3.5 0 7-.9 10.1-2.6l43.4-23.4c10-5.5 16.2-16 16.1-27.4V172.8c0-18.6 11.8-35.5 29.3-41.9l135.7-49V48.1c0-1.1 0-2.2-.1-3.2v-.7c-1.4-16.4-11.2-31-25.6-38.6-.5-.3-1-.5-1.5-.8-.1 0-.2-.1-.2-.1-.4-.2-.8-.4-1.2-.5l-.6-.3c-.4-.1-.7-.3-1.1-.4-.3-.1-.5-.2-.8-.3s-.5-.2-.8-.3c-.4-.1-.7-.3-1.1-.4-.2-.1-.3-.1-.5-.1-.5-.2-1-.3-1.5-.4-4.2-1.2-8.6-1.8-13-1.8 0-.2-.1-.2-.2-.2m195.9 423.2V88.7c0-20.6-13.9-39-33.7-44.6L311.8 12.2c.1.1.2.3.3.4.2.3.5.7.7 1s.4.6.6 1c.2.3.5.7.7 1.1.2.3.4.7.6 1 .2.4.4.7.6 1.1.2.3.4.7.6 1 .2.4.4.7.6 1.1s.4.7.5 1.1c.2.4.4.7.5 1.1.2.4.3.7.5 1.1s.3.7.5 1.1.3.8.5 1.2c.1.4.3.7.4 1.1.2.4.3.8.4 1.2s.3.7.4 1.1.3.8.4 1.2.2.7.3 1.1.2.8.4 1.3c.1.4.2.7.3 1.1s.2.9.3 1.3.2.7.2 1.1c.1.5.2.9.3 1.4.1.4.1.7.2 1.1.1.5.1.9.2 1.4 0 .3.1.7.1 1 .1.5.1 1 .2 1.5 0 .3.1.6.1 1 0 .6.1 1.1.1 1.7v.8c0 .8.1 1.7.1 2.5V468c0 .5-.1 1.1-.1 1.6 0 .3-.1.6-.1 1 0 .5-.1 1-.2 1.5 0 .3-.1.7-.1 1-.1.5-.1.9-.2 1.4-.1.3-.1.7-.2 1-.1.4-.2.9-.3 1.3s-.2.7-.2 1c-.1.4-.2.9-.3 1.3-.1.3-.2.7-.3 1-.1.4-.2.9-.4 1.3-.1.3-.2.7-.3 1-.1.4-.3.8-.4 1.3-.1.3-.2.7-.4 1-.1.4-.3.8-.4 1.2-.1.3-.3.7-.4 1-.2.4-.3.8-.5 1.2-.1.3-.3.7-.4 1-.2.4-.4.8-.5 1.2-.2.3-.3.7-.5 1l-.6 1.2c-.2.3-.3.6-.5 1s-.4.8-.6 1.1-.4.6-.5.9c-.2.4-.4.7-.7 1.1l-.6.9c-.2.4-.5.7-.7 1.1l-.6.9c-.1.1-.2.2-.2.3l112-31.9c19.7-5.8 33.5-24.1 33.6-44.7" style="fill:#fff"/></svg>