<svg xmlns="http://www.w3.org/2000/svg" xml:space="preserve" id="microsoft-excel_svg__Livello_1" x="0" y="0" version="1.1" viewBox="0 0 512 512"><style>.microsoft-excel_svg__st2{fill:#107c41}.microsoft-excel_svg__st4{opacity:.2;enable-background:new}</style><path d="m321.5 244.1-202.4-35.7v263.9c0 12.1 9.8 21.8 21.8 21.8h349.3c12.1 0 21.8-9.8 21.8-21.8v-97.2z" style="fill:#185c37"/><path d="M321.5 17.9H140.9c-12.1 0-21.8 9.8-21.8 21.8v97.2L321.5 256l107.2 35.7L512 256V136.9z" style="fill:#21a366"/><path d="M119.1 136.9h202.4V256H119.1z" class="microsoft-excel_svg__st2"/><path d="M263.9 113.1H119.1v297.7H264c12 0 21.8-9.8 21.8-21.8V135c-.1-12.1-9.8-21.8-21.9-21.9" style="opacity:.1"/><path d="M252 125H119v297.7h133c12 0 21.8-9.8 21.8-21.8v-254c0-12.1-9.7-21.8-21.8-21.9" class="microsoft-excel_svg__st4"/><path d="M252 125H119v273.9h133c12 0 21.8-9.8 21.8-21.8V146.8c0-12-9.7-21.7-21.8-21.8" class="microsoft-excel_svg__st4"/><path d="M240.1 125h-121v273.9h121.1c12 0 21.8-9.8 21.8-21.8V146.8c-.1-12-9.8-21.7-21.9-21.8" class="microsoft-excel_svg__st4"/><linearGradient id="microsoft-excel_svg__SVGID_1_" x1="45.489" x2="216.395" y1="1746.036" y2="1450.033" gradientTransform="matrix(1 0 0 -1 0 1854)" gradientUnits="userSpaceOnUse"><stop offset="0" style="stop-color:#18884f"/><stop offset=".5" style="stop-color:#117e43"/><stop offset="1" style="stop-color:#0b6631"/></linearGradient><path d="M21.8 125h218.3c12.1 0 21.8 9.8 21.8 21.8v218.3c0 12.1-9.8 21.8-21.8 21.8H21.8C9.8 387 0 377.2 0 365.2V146.8c0-12 9.8-21.8 21.8-21.8" style="fill:url(#microsoft-excel_svg__SVGID_1_)"/><path d="m67.6 326.9 45.9-71.1L71.4 185h33.8l23 45.2c2.1 4.3 3.6 7.5 4.4 9.6h.3c1.5-3.4 3.1-6.8 4.8-10l24.5-44.8h31.1l-43.1 70.3 44.2 71.5h-33.1l-26.5-49.7c-1.2-2.1-2.3-4.3-3.2-6.6h-.4c-.8 2.3-1.8 4.4-3.1 6.4l-27.3 49.9z" style="fill:#fff"/><path d="M490.2 17.9H321.5V137H512V39.7c0-12.1-9.8-21.8-21.8-21.8" style="fill:#33c481"/><path d="M321.5 256H512v119.1H321.5z" class="microsoft-excel_svg__st2"/></svg>