<svg xmlns="http://www.w3.org/2000/svg" xml:space="preserve" viewBox="0 0 512 512"><linearGradient id="microsoft-powerpoint-2013_svg__a" x1="256" x2="256" y1="490.8" y2="25.2" gradientTransform="matrix(1 0 0 -1 0 514)" gradientUnits="userSpaceOnUse"><stop offset="0" style="stop-color:#d04223"/><stop offset="1" style="stop-color:#d44a27"/></linearGradient><path d="M492.1 73.2H280.6v-50L0 69.7v372.5l280.6 46.6v-60.7h211.5c11 0 19.9-8.4 19.9-18.8V92c0-10.4-8.9-18.8-19.9-18.8m3.5 337.9-214.9.3v-38.6h154.2v-21.2H280.6v-28.8h154.2v-21.2H280.6v-53.1c12.6 15.3 31.7 25.1 53.1 25.1 37.9 0 68.6-30.7 68.6-68.6h-68.6v-68.6c-21.4 0-40.5 9.8-53.1 25.1V89.9h214.9v321.2zM412 196.3h-68.6v-68.6c37.9 0 68.6 30.8 68.6 68.6" style="fill:url(#microsoft-powerpoint-2013_svg__a)"/><path d="M280.6 89.9v71.5c12.6-15.3 31.7-25.1 53.1-25.1v68.6h68.6c0 37.9-30.7 68.6-68.6 68.6-21.4 0-40.5-9.8-53.1-25.1v53.1h154.2v21.2H280.6v28.8h154.2v21.2H280.6v38.6l214.9-.3V89.9zm62.8 106.4v-68.6c37.9 0 68.6 30.7 68.6 68.6zm-163-3.4c-8.1-11.5-16.2-17.5-33.7-16.9l-54 3v156l29.2 1.7v-55.4h22.7c24.9-1.3 41.5-24.4 43.8-51.2 1.1-12.6-1-27.2-8-37.2M137 252.5h-15.2v-47l16-.1c9.9.3 17.2 8.6 17.6 22.5.6 12.3-7.5 24.2-18.4 24.6" style="fill:#fff"/></svg>