<?xml version="1.0" encoding="utf-8"?>
<!-- Generator: Adobe Illustrator 28.2.0, SVG Export Plug-In . SVG Version: 6.00 Build 0)  -->
<svg version="1.1" id="Layer_1" xmlns="http://www.w3.org/2000/svg" xmlns:xlink="http://www.w3.org/1999/xlink" x="0px" y="0px"
	 viewBox="0 0 512 512" style="enable-background:new 0 0 512 512;" xml:space="preserve">
<style type="text/css">
	.st0{fill:url(#SVGID_1_);}
	.st1{opacity:0.35;fill:url(#SVGID_00000127011101577004941760000005046777115745362366_);enable-background:new    ;}
	.st2{fill:url(#SVGID_00000166637280413089297930000009321194996081862276_);}
	.st3{opacity:0.41;fill:url(#SVGID_00000175291046598095207900000013231179977877977780_);enable-background:new    ;}
	.st4{fill:url(#SVGID_00000034771169417921182940000002388180107809672080_);}
	.st5{fill:url(#SVGID_00000043452092233676818500000014617411377950730644_);}
</style>
<linearGradient id="SVGID_1_" gradientUnits="userSpaceOnUse" x1="122" y1="-371" x2="478.5677" y2="-371" gradientTransform="matrix(1 0 0 -1 -4.6 -17)">
	<stop  offset="0" style="stop-color:#0C59A4"/>
	<stop  offset="1" style="stop-color:#114A8B"/>
</linearGradient>
<path class="st0" d="M462.2,381.1c-6.9,3.6-13.9,6.7-21.2,9.4c-23,8.5-47.3,12.9-71.8,12.8c-94.6,0-177-65-177-148.6
	c0.3-22.8,12.8-43.7,32.8-54.6c-85.6,3.6-107.6,92.8-107.6,145c0,148,136.2,162.8,165.6,162.8c15.8,0,39.6-4.6,54-9.2l2.6-0.8
	c55.1-19,102.1-56.3,133.2-105.6c2.3-3.8,1.1-8.7-2.7-11C467.7,379.8,464.7,379.8,462.2,381.1L462.2,381.1z"/>
<radialGradient id="SVGID_00000022520866487988840830000008244378958852051360_" cx="318.9903" cy="-411.5531" r="190.7941" gradientTransform="matrix(1 0 0 -0.95 -4.6 -34.2)" gradientUnits="userSpaceOnUse">
	<stop  offset="0.7" style="stop-color:#000000;stop-opacity:0"/>
	<stop  offset="0.9" style="stop-color:#000000;stop-opacity:0.5"/>
	<stop  offset="1" style="stop-color:#000000"/>
</radialGradient>
<path style="opacity:0.35;fill:url(#SVGID_00000022520866487988840830000008244378958852051360_);enable-background:new    ;" d="
	M462.2,381.1c-6.9,3.6-13.9,6.7-21.2,9.4c-23,8.5-47.3,12.9-71.8,12.8c-94.6,0-177-65-177-148.6c0.3-22.8,12.8-43.7,32.8-54.6
	c-85.6,3.6-107.6,92.8-107.6,145c0,148,136.2,162.8,165.6,162.8c15.8,0,39.6-4.6,54-9.2l2.6-0.8c55.1-19,102.1-56.3,133.2-105.6
	c2.3-3.8,1.1-8.7-2.7-11C467.7,379.8,464.7,379.8,462.2,381.1L462.2,381.1z"/>
<linearGradient id="SVGID_00000098919818238523893140000011905887027961461425_" gradientUnits="userSpaceOnUse" x1="310.0975" y1="-216.3885" x2="87.5044" y2="-458.981" gradientTransform="matrix(1 0 0 -1 -4.6 -17)">
	<stop  offset="0" style="stop-color:#1B9DE2"/>
	<stop  offset="0.2" style="stop-color:#1595DF"/>
	<stop  offset="0.7" style="stop-color:#0680D7"/>
	<stop  offset="1" style="stop-color:#0078D4"/>
</linearGradient>
<path style="fill:url(#SVGID_00000098919818238523893140000011905887027961461425_);" d="M211.4,482.7
	c-17.8-11.1-33.2-25.5-45.4-42.6c-52.6-72-36.9-172.9,35.1-225.5c7.5-5.5,15.5-10.3,23.9-14.5c6.4-3,17-8.2,31.2-8
	c20.3,0.2,39.3,9.8,51.4,26c8,10.8,12.5,23.9,12.6,37.4c0-0.4,49-159.2-160-159.2c-87.8,0-160,83.2-160,156.4
	c-0.3,38.7,7.9,76.9,24.2,112c55.2,117.5,189.6,175.1,312.8,134c-42.2,13.3-88.1,7.5-125.6-16H211.4z"/>
<radialGradient id="SVGID_00000044163190490051802080000012152196056314276485_" cx="-884.4615" cy="-231.3436" r="286.3911" gradientTransform="matrix(0.15 -0.99 -0.8 -0.12 88.7 -505.42)" gradientUnits="userSpaceOnUse">
	<stop  offset="0.8" style="stop-color:#000000;stop-opacity:0"/>
	<stop  offset="0.9" style="stop-color:#000000;stop-opacity:0.5"/>
	<stop  offset="1" style="stop-color:#000000"/>
</radialGradient>
<path style="opacity:0.41;fill:url(#SVGID_00000044163190490051802080000012152196056314276485_);enable-background:new    ;" d="
	M211.4,482.7c-17.8-11.1-33.2-25.5-45.4-42.6c-52.6-72-36.9-172.9,35.1-225.5c7.5-5.5,15.5-10.3,23.9-14.5c6.4-3,17-8.2,31.2-8
	c20.3,0.2,39.3,9.8,51.4,26c8,10.8,12.5,23.9,12.6,37.4c0-0.4,49-159.2-160-159.2c-87.8,0-160,83.2-160,156.4
	c-0.3,38.7,7.9,76.9,24.2,112c55.2,117.5,189.6,175.1,312.8,134c-42.2,13.3-88.1,7.5-125.6-16H211.4z"/>
<radialGradient id="SVGID_00000064334837044680899770000001256672897236428173_" cx="335.6753" cy="634.3782" r="404.7875" gradientTransform="matrix(-4.000000e-02 1 2.13 8.000000e-02 -1286.02 -291.7)" gradientUnits="userSpaceOnUse">
	<stop  offset="0" style="stop-color:#35C1F1"/>
	<stop  offset="0.1" style="stop-color:#34C1ED"/>
	<stop  offset="0.2" style="stop-color:#2FC2DF"/>
	<stop  offset="0.3" style="stop-color:#2BC3D2"/>
	<stop  offset="0.7" style="stop-color:#36C752"/>
</radialGradient>
<path style="fill:url(#SVGID_00000064334837044680899770000001256672897236428173_);" d="M304.8,297.7c-1.8,2-6.8,5-6.8,11.2
	c0,5.2,3.4,10.4,9.6,14.6c28.6,20,82.8,17.2,83,17.2c21.3,0,42.2-5.7,60.6-16.6c37.6-22,60.7-62.2,60.8-105.8
	c0.6-44.8-16-74.6-22.6-87.8C446.8,47.7,355.4,0.1,256,0.1C116,0.1,2,112.5,0,252.5c1-73,73.6-132,160-132c7,0,47,0.6,84,20
	c26,12.9,47.5,33.3,61.8,58.6c12.2,21.2,14.4,48.2,14.4,59c0,10.8-5.4,26.6-15.6,39.8L304.8,297.7z"/>
<radialGradient id="SVGID_00000012440755065186729420000000856092182139540884_" cx="714.9927" cy="844.7014" r="194.594" gradientTransform="matrix(0.28 0.96 0.78 -0.23 -378.96 -337.42)" gradientUnits="userSpaceOnUse">
	<stop  offset="0" style="stop-color:#66EB6E"/>
	<stop  offset="1" style="stop-color:#66EB6E;stop-opacity:0"/>
</radialGradient>
<path style="fill:url(#SVGID_00000012440755065186729420000000856092182139540884_);" d="M304.8,297.7c-1.8,2-6.8,5-6.8,11.2
	c0,5.2,3.4,10.4,9.6,14.6c28.6,20,82.8,17.2,83,17.2c21.3,0,42.2-5.7,60.6-16.6c37.6-22,60.7-62.2,60.8-105.8
	c0.6-44.8-16-74.6-22.6-87.8C446.8,47.7,355.4,0.1,256,0.1C116,0.1,2,112.5,0,252.5c1-73,73.6-132,160-132c7,0,47,0.6,84,20
	c26,12.9,47.5,33.3,61.8,58.6c12.2,21.2,14.4,48.2,14.4,59c0,10.8-5.4,26.6-15.6,39.8L304.8,297.7z"/>
</svg>
