<svg xmlns="http://www.w3.org/2000/svg" xml:space="preserve" viewBox="0 0 512 512"><path d="m190.2 405.7-25.3 75c-3.3 9.8-12.5 16.4-22.9 16.4H24.1c-13.3.1-24.1-10.7-24.1-24 0-2.6.4-5.2 1.3-7.7L147.8 31.2c3.3-9.8 12.5-16.4 22.9-16.4h1.8c10.3 0 19.5 6.6 22.9 16.4L256 210.9l-35.6 105.4h-69.8c-12.2 0-22.1 9.9-22.1 22.1 0 6.1 2.6 12 7 16.2zm129 91.5H314c-6.1 0-12.1-2.3-16.6-6.5L143 346.6c-2.3-2.1-3.5-5.1-3.5-8.1 0-6.1 5-11.1 11.1-11.1h144.7l46.6 138c4.3 12.6-2.5 26.3-15.1 30.6-2.5.8-5.1 1.2-7.6 1.2"/><linearGradient id="microsoft-azure-dark_svg__a" x1="395.32" x2="263.097" y1="89.142" y2="479.761" gradientUnits="userSpaceOnUse"><stop offset="0" style="stop-color:#000"/><stop offset="1" style="stop-color:#000;stop-opacity:.4"/></linearGradient><path d="M510.7 465.4c.8 2.5 1.3 5.1 1.3 7.7 0 13.3-10.8 24.1-24.1 24.1H319c2.6 0 5.2-.4 7.7-1.3 12.6-4.3 19.4-17.9 15.1-30.6L195.3 31.2c-3.3-9.8-12.5-16.4-22.9-16.4h168.9c10.4 0 19.5 6.6 22.9 16.4z" style="fill:url(#microsoft-azure-dark_svg__a)"/></svg>