<?xml version="1.0" encoding="utf-8"?>
<!-- Generator: Adobe Illustrator 28.2.0, SVG Export Plug-In . SVG Version: 6.00 Build 0)  -->
<svg version="1.1" id="Layer_1" xmlns="http://www.w3.org/2000/svg" xmlns:xlink="http://www.w3.org/1999/xlink" x="0px" y="0px"
	 viewBox="0 0 512 512" style="enable-background:new 0 0 512 512;" xml:space="preserve">
<style type="text/css">
	.st0{fill:#FFFFFF;}
</style>
<path class="st0" d="M212.9,452.9c-6.3,6.3-16.4,6.3-22.7,0l-76.7-76.7c-0.1-0.1-0.3-0.3-0.4-0.4l0,0c-5.8-6.2-5.6-16.2,0.4-22.2
	L407.8,59.1c3.1-3.1,7.3-4.7,11.4-4.7c4.1,0,8.3,1.6,11.4,4.7l76.7,76.7c3,3,4.7,7,4.7,11.3c0,4.3-1.7,8.3-4.7,11.3L212.9,452.9z
	 M192.2,255.9l-88-88c-3.1-3.1-7.2-4.7-11.3-4.7c-4.1,0-8.2,1.6-11.3,4.7L4.7,244.6c-6.3,6.3-6.3,16.5,0,22.8l91.4,91.3
	c1-4.8,3.2-9.2,6.4-13c0.1-0.1,0.1-0.1,0.2-0.2c0.4-0.5,0.9-1,1.4-1.5l67.8-67.8L192.2,255.9z"/>
</svg>
