<svg xmlns="http://www.w3.org/2000/svg" xml:space="preserve" id="microsoft-forms-2019_svg__Livello_1" x="0" y="0" version="1.1" viewBox="0 0 512 512"><style>.microsoft-forms-2019_svg__st0{fill:#036c70}.microsoft-forms-2019_svg__st2{fill:#1a9ba1}.microsoft-forms-2019_svg__st4{opacity:.2;enable-background:new}</style><path d="M512 256v216.3c0 12-9.8 21.8-21.8 21.8H140.9c-12 0-21.8-9.8-21.8-21.8V256l202.4-23.8z" class="microsoft-forms-2019_svg__st0"/><path d="M140.9 17.9h349.4c12 0 21.8 9.8 21.8 21.8V256h-393V39.7c0-12.1 9.7-21.8 21.8-21.8" style="fill:#37c6d0"/><path d="M333.4 315.5h119.1v119.1H333.4z" class="microsoft-forms-2019_svg__st2"/><circle cx="392.9" cy="136.9" r="71.4" class="microsoft-forms-2019_svg__st2"/><circle cx="392.9" cy="136.9" r="35.7" class="microsoft-forms-2019_svg__st0"/><path d="M264 113.1H119.1v297.7H264c12 0 21.8-9.8 21.8-21.8V134.9c0-12-9.8-21.8-21.8-21.8" style="opacity:.1"/><path d="M252.1 125h-133v297.7h133c12 0 21.8-9.8 21.8-21.8V146.8c0-12-9.8-21.8-21.8-21.8" class="microsoft-forms-2019_svg__st4"/><path d="M252.1 125h-133v273.9h133c12 0 21.8-9.8 21.8-21.8V146.8c0-12-9.8-21.8-21.8-21.8" class="microsoft-forms-2019_svg__st4"/><path d="M240.2 125H119.1v273.9h121.1c12 0 21.8-9.8 21.8-21.8V146.8c0-12-9.8-21.8-21.8-21.8" class="microsoft-forms-2019_svg__st4"/><linearGradient id="microsoft-forms-2019_svg__SVGID_1_" x1="45.458" x2="216.327" y1="265.986" y2="561.923" gradientTransform="translate(0 -158)" gradientUnits="userSpaceOnUse"><stop offset="0" style="stop-color:#058f92"/><stop offset=".5" style="stop-color:#038489"/><stop offset="1" style="stop-color:#026d71"/></linearGradient><path d="M21.8 125H240c12 0 21.8 9.8 21.8 21.8v218.3c0 12-9.8 21.8-21.8 21.8H21.8C9.8 387 0 377.2 0 365.2V146.8c0-12 9.8-21.8 21.8-21.8" style="fill:url(#microsoft-forms-2019_svg__SVGID_1_)"/><path d="M175.2 208.1h-61.4v38.7H171v23h-57.3V327H86V185h89.3z" style="fill:#fff"/></svg>