<svg xmlns="http://www.w3.org/2000/svg" xml:space="preserve" viewBox="0 0 512 512"><path d="m482.3 118.6-6 7.6-22.3 27.1-34.5 41.9-17.3 21.3c-.6.7-1.7.8-2.4.2-.1 0-.1-.1-.2-.2l-47.3-50.6c-.7-.7-1-1.6-1-2.5s.3-1.8 1-2.5l12.3-11c1.1-1.1 2.9-1.1 4 0l30.4 30.8 3.4-4.1 47.8-57.9 9.9-11.4 3.5-4.1c.6-.6 1.6-.6 2.2 0l10.6 8.6 5.8 4.8c.6.6.6 1.4.1 2m.1-.1-.1.1v.1zM512 68.8v384.1c0 8.8-7.1 15.9-15.9 15.9H289.8v34L0 454V58L289.9 9.2V53h206c8.8-.2 16 6.9 16.1 15.8M186.5 241.4h-52.9v-44.3l51.8-.5v-33.8l-82 1.9V341s30.5 1.9 31.3 1.6c.9-.3 0-68.5 0-68.5h51.8zM492.7 72.2H293.5v375h199.1v-375zm-16.4 86.5-22.2 27.5v49.6H337.5V119.2h76.3l17.9-19.6h-113V256h157.7v-97.3zm-.6 262.4H318v-62.6h157.8v62.6zm-21.6-41.9H339.6v21.1H454v-21.1zm21.6-40.3H318v-62.6h157.8v62.6zm-21.6-41.8H339.3v21.1h114.8z" style="fill:#fff"/></svg>