<svg xmlns="http://www.w3.org/2000/svg" xml:space="preserve" viewBox="0 0 512 512"><path d="M336.8 121.3c0-37.2 30.2-67.4 67.4-67.4s67.4 30.2 67.4 67.4-30.2 67.4-67.4 67.4-67.4-30.2-67.4-67.4m80.9 94.3H316.2c12.8 14.3 20.6 33.2 20.6 53.9v161.6c0 44.6 36.2 80.8 80.8 80.8s80.8-36.2 80.8-80.8V296.4c.1-44.6-36.1-80.8-80.7-80.8" style="opacity:.85;fill:#fff"/><path d="M336.8 431.2V269.5c0-44.6-36.2-80.8-80.8-80.8H148.2c-44.6 0-80.8 36.2-80.8 80.8v107.8c0 74.4 60.3 134.7 134.7 134.7h215.6c-44.7 0-80.9-36.2-80.9-80.8M168.1 324.8h-33v100.6h-27.8V324.8h-33v-22.6h93.8zm-46.8-244c0-44.6 36.2-80.8 80.8-80.8s80.8 36.2 80.8 80.8-36.2 80.8-80.8 80.8c-44.6.1-80.8-36.1-80.8-80.8" style="opacity:.7;fill:#fff"/><path d="M185.3 256h-128c-24.2 0-43.8 19.6-43.8 43.8v128c0 24.2 19.6 43.8 43.8 43.8h128c24.2 0 43.8-19.6 43.8-43.8v-128c0-24.2-19.7-43.8-43.8-43.8m-17.2 68.8h-33v100.6h-27.8V324.8h-33v-22.6h93.8z" style="fill:#fff"/></svg>