<svg xmlns="http://www.w3.org/2000/svg" xml:space="preserve" viewBox="0 0 512 512"><path d="M407 393.1c-9.8 0-17.7 7.9-17.7 17.7 0 9.7 7.9 17.5 17.6 17.6 9.8.1 17.8-7.9 17.8-17.6 0-9.8-7.9-17.7-17.7-17.7M466.1 0H45.9C20.5 0 0 20.5 0 45.9v420.2C0 491.5 20.5 512 45.9 512h420.2c25.3 0 45.9-20.5 45.9-45.9V45.9C512 20.5 491.5 0 466.1 0M271.5 351.9c-9.4.5-19 .4-28.4-.1-12.2-.6-23.7-11.9-24.4-24.1-.6-10.3-.3-20.6-.4-30.9v-3.6c-28 10.2-55.8 11.2-84.1 1.6v111.9c0 13.4-7.6 24-20 27.9-16.5 5.2-34.5-6.7-36-23.9-.2-2.1-.3-4.1-.3-6.2V105.8c0-10.4 3.8-19 12.6-24.9 17.9-12 42.2 0 43.6 21.5.1 1.3.1 2.7.1 4 0 40.9 0 81.8-.1 122.8 0 2.2.7 3.4 2.5 4.6 20.3 12.9 41.6 14.9 63.8 5.8 5.3-2.1 10.2-5.1 15.4-7.6 1.9-.9 2.5-2.2 2.5-4.3-.1-40.5 0-81-.1-121.5 0-9.4 2.9-17.6 10.3-23.6 8.7-7 18.6-8.5 28.8-4.1 10.4 4.4 16 12.8 17 24.1.1 1.5.1 3 .1 4.5v189c10.4 2.2 17.9 7.9 21.6 17.6 7.1 18.1-5.2 37.2-24.5 38.2M406.7 466c-30.9-.5-55.4-25.6-54.9-56.1.5-30 24.8-54.6 55.5-54.4 30.9.3 55.3 25.4 54.9 55.7-.4 30.2-24.6 54.7-55.5 54.8" style="fill:#fff"/></svg>