<?xml version="1.0" encoding="utf-8"?>
<!-- Generator: Adobe Illustrator 28.2.0, SVG Export Plug-In . SVG Version: 6.00 Build 0)  -->
<svg version="1.1" id="Livello_1" xmlns="http://www.w3.org/2000/svg" xmlns:xlink="http://www.w3.org/1999/xlink" x="0px" y="0px"
	 viewBox="0 0 512 512" style="enable-background:new 0 0 512 512;" xml:space="preserve">
<style type="text/css">
	.st0{fill:#FFFFFF;}
</style>
<path class="st0" d="M512,34.1v93.1H389.8v132.6l0.1,0.1v118.4v6.7v108.8h-252c-8.7,0-15.7-7-15.7-15.7v-81h117.5c16,0,29-13,29-29
	V144c0-16-13-29-29-29H122.2V34.1c0-8.7,7-15.7,15.7-15.7h358.4C505,18.4,512,25.4,512,34.1z M403.2,493.6h92.6
	c8.9,0,16.2-7.3,16.2-16.2v-92.6H403.2V493.6z M403.2,267.8v103.7H512V262.7H403.2V267.8z M403.1,249.3H512V140.5H403.1V249.3z
	 M255.4,144v224c0,8.7-7,15.7-15.7,15.7h-224c0,0-0.1,0-0.1,0c-4.1,0-7.9-1.6-10.9-4.5c-3-3-4.6-6.9-4.6-11.1V144
	c0-8.7,7-15.7,15.7-15.7h224C248.3,128.3,255.4,135.3,255.4,144z M188.5,183.3h-25.9v87.2c-0.1,6.7,0.2,13.2,0.9,19.8h-0.4
	c-1.4-2.7-3.5-6.2-6.2-10.5l-59.6-96.6H67v145.6h26v-87.7c0.1-7.3-0.2-14.6-0.8-21.8h0.5c1.6,3.6,3.5,7,5.5,10.3l61.9,99.2h28.4
	V183.3z"/>
</svg>
