<?xml version="1.0" encoding="utf-8"?>
<!-- Generator: Adobe Illustrator 28.2.0, SVG Export Plug-In . SVG Version: 6.00 Build 0)  -->
<svg version="1.1" id="Livello_1" xmlns="http://www.w3.org/2000/svg" xmlns:xlink="http://www.w3.org/1999/xlink" x="0px" y="0px"
	 viewBox="0 0 512 512" style="enable-background:new 0 0 512 512;" xml:space="preserve">
<path d="M263.3,384.9H512v93.1c0,8.7-7,15.7-15.7,15.7H137.9c-8.8,0-15.7-6.9-15.7-15.7v-81h117.5C249.4,397,258,392.2,263.3,384.9z
	 M268.7,367.9c0,1.2-0.1,2.4-0.2,3.6H512l0-108.9H268.7V367.9z M496.3,18.4H137.9c-8.7,0-15.7,7-15.7,15.7v80.9h117.5
	c9.7,0,18.4,4.8,23.6,12.2H512V34.1C512,25.4,505,18.4,496.3,18.4z M268.7,144v105.4H512V140.5H268.5
	C268.6,141.6,268.7,142.8,268.7,144z M239.7,128.3c8.7,0,15.7,7,15.7,15.7v224c0,8.7-7,15.7-15.7,15.7h-224c0,0-0.1,0-0.1,0
	c-4.1,0-7.9-1.6-10.9-4.5c-3-3-4.6-6.9-4.6-11.1V144c0-8.7,7-15.7,15.7-15.7H239.7z M221.2,183.3h-27.7L174,283.9
	c-1.2,6.1-2.2,12.2-2.6,18.4H171c-0.6-6.4-1.6-12.6-3.1-18.9l-24.4-100.1h-30.5L89.5,284.8c-0.5,2.4-1,5.2-1.6,8.7
	c-0.6,3.4-1,6.4-1.2,8.8h-0.5c-0.1-2.6-0.4-5.5-0.8-9c-0.5-3.4-0.9-6.3-1.4-8.3L62.6,183.3H34.4l34.5,145.6h33l21.9-96.1
	c0.4-2.3,1-5.7,1.8-10.4c0.7-4.7,1.2-8.2,1.5-10.6h0.4c0.2,2.1,0.7,5.3,1.5,9.7c0.8,4.5,1.5,8.1,2.3,10.9l23.2,96.4h32.4
	L221.2,183.3z"/>
</svg>
