<svg xmlns="http://www.w3.org/2000/svg" xml:space="preserve" viewBox="0 0 512 512"><path d="M505.4 456.4c-10.4 0-18.1-6.4-26.9-13.9-9.5-7.9-20.2-17-35.4-17s-26 9-35.4 17c-8.9 7.4-16.5 13.9-26.9 13.9-6.5 0-11.9-2.5-17.2-6.2 47.8-23 85-46.9 113.7-73 2.1-1.9 2.7-4.9 1.6-7.5s-3.7-4.2-6.5-4l-432.8 28c-2.2.1-4.2 1.4-5.3 3.4-1.1 1.9-1.1 4.3-.1 6.3l13.5 25.9c-7.4 4.3-14.2 9.7-20.5 14.7-7.9 6.2-16 12.6-20.5 12.6-3.6 0-6.6 3-6.6 6.6s3 6.6 6.6 6.6c9 0 18.1-7.2 28.7-15.4 6.8-5.4 14.3-11.2 22-15.2.9-.1 1.8-.3 2.6-.7.7-.3 1.2-.8 1.7-1.3 2.6-1.1 5.2-1.9 7.8-2.5 3.3.4 7.8 4.6 12.9 9.5 10.2 9.6 24.2 22.8 48.2 25.7h.8c15.2 0 26-9 35.4-17 8.9-7.4 16.5-13.9 26.9-13.9s18.1 6.4 26.9 13.9c9.5 7.9 20.2 17 35.4 17s26-9 35.4-17c8.9-7.4 16.5-13.9 26.9-13.9s18.1 6.4 26.9 13.9c.1 0 .1.1.2.1.7.9 1.5 1.6 2.5 2.1 8.8 7.3 18.9 14.7 32.8 14.7 15.2 0 26-9 35.4-17 8.9-7.4 16.5-13.9 26.9-13.9s18.1 6.4 26.9 13.9c9.5 7.9 20.2 17 35.4 17 3.6 0 6.6-3 6.6-6.6.1-3.8-2.9-6.8-6.5-6.8m-222.5-13.8c-8.9 7.4-16.5 13.9-26.9 13.9s-18.1-6.4-26.9-13.9c-9.5-7.9-20.2-17-35.4-17s-26 9-35.4 17c-8.7 7.3-16.3 13.7-26.5 13.9-19.5-2.5-31-13.4-40.3-22.1-7.5-7-13.9-13.1-22.4-13.1-.4 0-.7 0-1.1.1-2.8.5-5.6 1.2-8.3 2.2l-9.1-17.3 402.8-25.9c-26.7 21.4-60.1 41.4-101.4 60.9-9-7.5-19.4-15.5-33.6-15.5-15.3-.2-26 8.8-35.5 16.8m-74.4-336.2C277 153.8 327 233.2 357 342.6c1 3.5 4.5 5.5 8 4.6 22.3-5.7 35-.6 51 5.9 1.8.7 3.6 1.5 5.5 2.2.8.3 1.6.5 2.4.5 1.6 0 3.2-.6 4.5-1.7 1.9-1.7 2.6-4.3 1.9-6.8-16.6-55.5-49.6-113-92.8-162-40.6-46.1-85.6-79.1-123.3-90.7-3.1-1-6.5.5-7.9 3.4-1.4 3-.5 6.5 2.2 8.4m204.9 231.5c-9.2-3.5-18.7-6.3-30.3-6.3-4.6 0-9.6.4-15 1.5-14-49.3-32.5-93.3-55-130.8-15.7-26.3-33.5-49.5-53-69.4 58.8 40.5 123.6 118.8 153.3 205m-339.8 35c1.2 0 2.4-.3 3.5-1 73.3-45.2 155.2-50.1 243.3-14.6 2.2.9 4.7.5 6.6-1s2.8-3.9 2.4-6.2c-10.9-68.7-45.1-136.3-98.9-195.5-44-48.4-99.6-89.2-152.5-111.8-2.6-1.1-5.7-.4-7.6 1.7-1.9 2.2-2.2 5.3-.7 7.7 31.4 52.7 94.2 188.5-1.3 309.9-2 2.5-1.9 6.1.3 8.5 1.2 1.5 3 2.3 4.9 2.3m57.9-178.3c-4.4-51.7-22.7-97.5-40.4-130.9 82.2 41.9 196.3 141.6 223.1 277.1-46.9-17.3-92.6-23.5-136-18.4-28.5 3.3-56.3 11.5-82.9 24.4 28.8-45.8 40.9-96.9 36.2-152.2"/></svg>