<svg xmlns="http://www.w3.org/2000/svg" xml:space="preserve" viewBox="0 0 512 512"><linearGradient id="mikopbx_svg__a" x1="33120.016" x2="33120.016" y1="-11650.616" y2="-24818.076" gradientTransform="matrix(.02835 0 0 -.02835 -682.835 -260.88)" gradientUnits="userSpaceOnUse"><stop offset="0" style="stop-color:#2b438a"/><stop offset=".49" style="stop-color:#5f6ebb"/><stop offset="1" style="stop-color:#939aed"/></linearGradient><path d="M275.7 442.6c61.7 0 92.2-4.9 114.2-22 34.2-26.5 48.1-66.4 61.4-107.4L511.6 88c.3-1.2.4-2.4.4-3.6 0-8.3-6.6-15-14.9-15H236.4c-61.7 0-92.1 5-114.2 22.1-34.2 26.5-48 66.4-61.4 107.3L.4 424.1s-.4.8-.4 3.6c0 4.7 6.6 14.9 14.9 14.9z" style="fill-rule:evenodd;clip-rule:evenodd;fill:url(#mikopbx_svg__a)"/><path d="M246.1 284.2c-27.3-22.5-36.5-55.1-23.8-79.3 4.5-8.6 6.9-11.4 3.6-20.1-2.7-6.8-31.1-34.5-37.9-40.6-20-17.7-39.2 20-43.7 38.2-3.2 13.4-3.6 25.7 1.1 39.6 8.7 25.4 35.4 58.1 56.6 79.1 27.1 26.8 47.4 48.2 79.6 65.8 15.7 8.6 26.4 10 40.3 9.4 16.8-.7 51.5-13.5 55.2-32.9 1.6-8.1-4.9-12.9-12-20.2-10.7-10.8-26.8-31.8-39.7-32.3-6.3-.3-13 5.8-20.1 8.1-7.6 2.4-12.9 2.3-19.5 2.2-11.5-.1-27.4-6.9-39.7-17" style="fill-rule:evenodd;clip-rule:evenodd;fill:#fefefe"/></svg>