<svg xmlns="http://www.w3.org/2000/svg" xml:space="preserve" viewBox="0 0 512 512"><path d="M491.5 132c-.6-1.4-1.3-2.8-2-4s-1.6-2.5-2.6-3.6c-5.2-6.3-13.6-12.5-24.3-18.4l-86.5-47.4-86.5-47.4C278.9 5.3 269 1.5 260.6.4c-1.5-.3-3.1-.4-4.6-.4-9.2 0-20.8 4.1-33.6 11.1l-86.5 47.4-86.5 47.4c-10.7 5.9-19.2 12.1-24.3 18.4-1 1.2-1.9 2.5-2.6 3.6-.7 1.2-1.4 2.6-2 4-3.2 7.4-4.7 17.4-4.7 29.2v189.6c0 14.1 2.1 25.6 6.7 33.2S36.6 399 49.4 406l86.5 47.4 86.5 47.4c10.7 5.9 20.6 9.7 29 10.8 1.6.2 3.2.3 4.6.3 1.5 0 3.1-.1 4.6-.3 8.4-1.1 18.2-4.9 29-10.8L462.5 406c12.8-7 22.3-14.5 26.9-22.1.7-1.2 1.4-2.6 2-4 3.2-7.4 4.7-17.4 4.7-29.2V161.2c.1-11.8-1.4-21.8-4.6-29.2M154.3 354.5c0 4.3-4.6 7.1-8.4 5l-30.9-17c-7.3-4-11.8-11.6-11.8-19.9V231c0-4.3 4.6-7 8.4-5l36.9 20.2c3.6 2 5.9 5.8 5.9 10zm254.6-31.9c0 8.3-4.5 16-11.8 20l-30.9 16.9c-3.8 2.1-8.4-.7-8.4-5V233.1c0-4.3-4.6-7.1-8.4-5l-55.9 30.6c-7.3 4-11.8 11.6-11.8 19.9V399c0 4.2-2.3 8-5.9 10l-8.8 4.8c-6.8 3.7-15.1 3.7-21.9 0l-8.7-4.8c-3.6-2-5.9-5.8-5.9-10V278.7c0-8.3-4.5-15.9-11.8-19.9l-115.5-63.3v-6c0-8.3 4.5-15.9 11.8-19.9l12.7-7c6.8-3.7 15.1-3.7 21.8 0l95.5 52.3c6.8 3.7 15.1 3.7 21.8 0l44.1-24.2c3.9-2.2 3.9-7.8 0-10l-99.2-54.3c-3.9-2.2-3.9-7.8 0-10l33.2-18.2c6.8-3.7 15.1-3.7 21.9 0l130.1 71.3c7.3 4 11.8 11.6 11.8 20z" style="fill:#293239"/></svg>