<svg xmlns="http://www.w3.org/2000/svg" xml:space="preserve" viewBox="0 0 512 512"><path d="M30.3 0h451.3C498.4 0 512 13.6 512 30.3v451.3c0 16.8-13.6 30.3-30.3 30.3H30.3C13.6 512 0 498.4 0 481.7V30.3C0 13.6 13.6 0 30.3 0" style="fill:#1db53c"/><path d="M102.4 102.4h102.4v102.4H102.4zm204.3 0h102.4v102.4H306.7zM154.1 256h50.7v25.1h-50.7zm50.7-51.2h101.9v25.1H204.8zM306.7 256h50.7v25.1h-50.7z" style="fill:#073e21"/><path d="M204.3 204.3H128V128h76.3zM306.7 128v76.3H383V128zm0 101.9H204.8v51.2h-50.7v153.1h50.7v-76.8h101.9v76.8h50.7V281.1h-50.7z"/></svg>