<?xml version="1.0" encoding="utf-8"?>
<!-- Generator: Adobe Illustrator 28.2.0, SVG Export Plug-In . SVG Version: 6.00 Build 0)  -->
<svg version="1.1"
	 id="Layer_1" xmlns:cc="http://creativecommons.org/ns#" xmlns:svg="http://www.w3.org/2000/svg" xmlns:sodipodi="http://sodipodi.sourceforge.net/DTD/sodipodi-0.dtd" xmlns:rdf="http://www.w3.org/1999/02/22-rdf-syntax-ns#" xmlns:inkscape="http://www.inkscape.org/namespaces/inkscape" xmlns:dc="http://purl.org/dc/elements/1.1/" sodipodi:docname="minio-ar21.svg"
	 xmlns="http://www.w3.org/2000/svg" xmlns:xlink="http://www.w3.org/1999/xlink" x="0px" y="0px" viewBox="0 0 512 512"
	 style="enable-background:new 0 0 512 512;" xml:space="preserve">
<style type="text/css">
	.st0{fill:#FFFFFF;}
</style>
<path class="st0" d="M389.1,134.7C372.2,106,322,25.1,322,25.1C296.6-8,265.3-4.2,247.2,12.7c-18.4,17.4-19.3,46.3-1.9,64.8
	l72.5,75.6c24.5,26.2,23.2,67.2-3,91.7c-3.4,3.1-7.1,6-11.1,8.4l-9.8,5.1V155.5c-87.7,45.1-150.5,127.2-171.2,223.8L262.4,308v162.7
	l31.5,41.3V291.8l19.5-9.8c46.8-23.6,65.5-80.6,42.1-127.3c-4.2-8.3-9.6-16-16-22.6L267.3,57c-5.9-6.5-5.5-16.5,0.7-22.5
	c6.5-6,16.5-5.6,22.6,0.7l9.8,10.5l86.9,90.5c0.5,0.5,1.3,0.5,1.8,0C389.4,135.7,389.4,135.2,389.1,134.7z M262.3,274l-88.4,46
	c14.7-31.2,34.7-59.6,59.1-84c9.1-9.2,18.9-17.9,29.3-26V274z"/>
</svg>
