<svg xmlns="http://www.w3.org/2000/svg" xml:space="preserve" viewBox="0 0 512 512"><linearGradient id="minthcm_svg__a" x1="256" x2="256" y1="415.265" y2="1.547" gradientTransform="matrix(1 0 0 -1 0 513.547)" gradientUnits="userSpaceOnUse"><stop offset="0" style="stop-color:#63c29a"/><stop offset="1" style="stop-color:#009976"/></linearGradient><path d="M411.1 512V404.6c0-80.2-66.3-146.4-156.9-151.4-53.3-12.2-113.4-86.4-101.3-154.9-121 283.4-29.2 414.8 258.2 413.7" style="fill-rule:evenodd;clip-rule:evenodd;fill:url(#minthcm_svg__a)"/><path d="M410.4 372.9V386l-.5-.3c-9.5-71.4-72.3-127.8-155.7-132.4-9.2-2.1-18.6-6.1-27.8-11.5 7.6-9.9 17-18.3 27.7-24.9 53.9 21.4 146.7 46.7 156.3 156" style="fill-rule:evenodd;clip-rule:evenodd;fill:#616265"/><path d="M410.2 310.3h.1v79.6c-.3-2.9-.8-5.8-1.3-8.7.2 1.5.6 2.9.8 4.4l.5.3v-13.1c-9.5-109.3-102.2-134.6-156.1-156 15.6-9.6 33.9-15.2 53.5-15.2 56.7 0 102.7 46 102.7 102.7 0 2.1 0 4-.2 6M307.7 0c44 0 79.6 35.7 79.6 79.6 0 44-35.7 79.6-79.6 79.6s-79.6-35.7-79.6-79.6S263.7 0 307.7 0" style="fill-rule:evenodd;clip-rule:evenodd;fill:#65c29b"/></svg>