<?xml version="1.0" encoding="utf-8"?>
<!-- Generator: Adobe Illustrator 28.2.0, SVG Export Plug-In . SVG Version: 6.00 Build 0)  -->
<svg version="1.1" id="Layer_1" xmlns="http://www.w3.org/2000/svg" xmlns:xlink="http://www.w3.org/1999/xlink" x="0px" y="0px"
	 viewBox="0 0 512 512" style="enable-background:new 0 0 512 512;" xml:space="preserve">
<style type="text/css">
	.st0{fill:#2B6744;fill-opacity:0.76;}
	.st1{fill:#1F1D1D;}
	.st2{fill:#393636;}
	.st3{fill:#95D0AD;}
	.st4{fill:#67AB84;}
	.st5{fill:#538F6D;}
	.st6{fill:#B8DFC6;}
	.st7{fill:#559B75;}
	.st8{fill:#377958;}
	.st9{fill:#211E1F;}
	.st10{fill:#FFFFFF;}
	.st11{fill:#393537;}
	.st12{fill:#67AB83;}
	.st13{fill:#377959;}
	.st14{fill:#282527;}
</style>
<path class="st0" d="M261.2,330.8C244.1,334.5,140,320.2,123,324C65.4,329.9,1.1,380.5,1.6,380.8c0,0,37.8-39.1,119.1-17.3
	c54.3,19.7,129.7,81.3,129.7,81.3L359,359.3L261.2,330.8L261.2,330.8z"/>
<path class="st1" d="M248.2,414.8v3.7v22.7l34.6-26.4l0.2-0.2L248.2,414.8z"/>
<path class="st2" d="M248.2,418.4v-3.7l-34.8-0.7l34.8,27.1V418.4z"/>
<path class="st3" d="M247.3,140.8c-21-0.2-41.1,2.1-60.5,6.7c-20-23.9-43.1-43.8-69.4-59.8c-2.5-1.4-4.8-2.7-7.2-4
	c-6.3-3.6-12.8-7-19.4-10c-4.5-2-9-3.9-13.5-5.7c-0.5,7.8-2.5,18-6,30.7c2.7,1.2,5.4,2.5,8.1,3.8c2.9,1.4,5.8,2.8,8.6,4.4
	c24.4,13.2,46.3,30.3,65.6,51.2c-22.8,9.2-44.3,22.2-64.6,38.8c-9.9,8.1-19,16.6-27.4,25.7c-3.3-8-6.2-16.2-8.7-24.5
	c-4-13.1-7-26.5-9.1-40c0-0.1,0-0.1-0.1-0.1c0-0.4,0-0.6,0.1-0.6c0,0,0-0.1,0-0.1c-0.1,0-0.1-0.1-0.2-0.1c-1.8-0.9-3.6-2.1-5.5-3.4
	c-4-2.2-8-4.6-11.8-7.2c-2.2-1.4-4.4-3-6.4-4.6c-1.2-0.8-2.5-1.6-3.9-2.5c-1.6-1.4-3-2.7-4.5-4.2c1.9,40.8,11.4,78.9,28.4,114.3
	C21.2,276.3,8,306.4,0.1,340c11-2,23.2-3.2,36.5-3.8c-11.9,7.2-21.6,17.2-29.1,29.9L0,383.4c21.4-18.8,45.8-29,73.4-30.7
	c17.7-1.1,35.4,1.1,52.2,6.6c23.3,11.5,47.5,26.1,72.7,43.9c5.1,3.5,10.1,7.1,15.1,10.9l34.7,0.7V404l1.3-263.2H247.3z"/>
<path class="st4" d="M87.7,106.5c-2.8-1.6-5.7-3-8.6-4.4c-2.5-1.3-5.1-2.5-7.8-3.6c-2,7.2-4.5,15.2-7.4,23.9
	c-0.1,0.2-0.1,0.3-0.2,0.4c-2.7,7.9-5.7,15.8-9,23.5l-3.7,9.9c-0.4-0.2-0.9-0.5-1.3-0.7c-0.4,1.4-0.9,2.8-1.3,4.1
	c-1.5-0.6-3.1-1.5-4.8-2.4c0,0-0.1-0.1-0.1-0.1c-0.1,0.1-0.1,0.2-0.1,0.6c0.1,0,0.1,0,0.1,0.1c2.1,13.5,5.2,26.9,9.1,40
	c2.6,8.5,5.5,16.8,8.9,24.9c8.4-9.1,17.6-17.7,27.5-25.8c20.3-16.6,41.9-29.6,64.7-38.8C134.3,137,112.3,119.8,87.7,106.5z"/>
<path class="st5" d="M7.4,121.7c0,2.3,0.4,4.3,1.3,6.1c0.4,0.6,0.8,1.1,1.3,1.5c0.3,0.4,0.6,0.8,1.2,1.3c0,0.4-0.1,0.7-0.1,1.1
	c0.1,1.1,0.2,2.3,0.3,3.5c1.5,1.5,3,2.9,4.6,4.3c1.4,0.9,2.7,1.7,3.9,2.5c2,1.6,4.2,3.2,6.4,4.6c3.8,2.6,7.8,5,11.8,7.2
	c1.9,1.3,3.7,2.5,5.5,3.4c1.7,0.9,3.3,1.8,4.8,2.4c1.3-4.3,2.8-8.9,4.2-13.8c1.8-6.7,3.8-13.4,5.9-20.2c0.3-0.7,0.6-1.4,0.9-2.1
	c2.7-8.9,5.4-17.7,8.2-26.6c1.2-4,2.6-8,4-12c0.8-2.7,1.5-5.5,1.9-8.3c0.6-3,0.9-6,0.9-8.9c-0.7,0.2-1.3,0.5-1.9,0.9
	c-1,0.3-2.2,0.8-3.4,1.6c-5.7,2.7-12.2,6.4-19.4,11.1c-4.8,2.9-9.4,5.9-13.9,9.2c-10,7.1-17.7,13.9-22.9,20.3
	c-1.3,1.2-2.4,2.6-3.2,4.1l-1.9,4.9C7.6,120.5,7.5,121.2,7.4,121.7z"/>
<path class="st6" d="M7.8,119.8c-0.1,0.7-0.3,1.3-0.4,1.9c-0.1,3,0.8,5.5,2.7,7.6c1.2,1.6,2.9,3.4,5.2,5.2c3.6,3.1,8.4,6.4,14.5,9.9
	c6.9,4.2,14,8.1,21.2,11.8l3.7-9.9c3.3-7.7,6.3-15.6,9-23.5c0.1-0.1,0.1-0.2,0.2-0.4C72.2,98,76.6,79.7,77.3,67.6
	c0.1-0.9-2.6,0-8.1,2.7C63.5,73,57,76.7,49.8,81.4C30.2,93.6,16.9,104.8,9.7,115C9.7,114.9,7.8,119.8,7.8,119.8z"/>
<path class="st7" d="M512,82c-74-3.8-140,18.3-198,66.1c-0.2,0.2-0.4,0.4-0.6,0.5c-19.6-5.1-40.1-7.8-61.5-7.9l-2.4,0.1l-0.4,80.9
	c0,0.1-0.1,0.1-0.1,0.2l-0.2,39.7c0,0,0.1,0.1,0.1,0.1L248.2,404v10.8l34.8-0.2l-0.2,0.2c4.7-3.4,9.4-6.8,14.2-10
	c24.9-17.1,48.4-31,70.5-41.7c16.1-6.1,33-8.8,50.8-8.4c30.2,0.8,56.9,11.5,80,32c-1.4-5-3.9-10.7-7.5-17.1
	c-7.6-12.9-17.2-23-28.9-30.3c11.8,0.7,23.5,2,35,4.1c-7.2-32.4-19.4-61.7-36.6-87.8c24.5-36,40.4-77.2,47.9-123.6
	C510.8,114.9,512.1,98.2,512,82z"/>
<path class="st8" d="M409.6,199.2c11.1,9.3,21.2,19.1,30.4,29.6c1.8-3,3.6-6,5.3-9c16.5-28.7,27.4-59.6,32.8-92.7l2-13.8
	c-48.7,3.4-92.7,19.2-132,47.4C369.8,170.2,390.3,183,409.6,199.2z"/>
<path class="st9" d="M322.9,272.7c-5.5-0.9-10.5,0.4-15,3.8c-4.6,3.2-7.4,7.8-8.4,13.6c-0.7,4.2,0,8.4,1.7,12.2l37.6-1.3
	c0.4-1.3,0.8-2.7,1-4.1c0.8-5.7-0.3-10.8-3.5-15.5C333,276.6,328.5,273.7,322.9,272.7z"/>
<path class="st10" d="M307.5,278.8c0-0.9-0.4-1.6-1.1-1.9c-1.7,1.5-2.9,2.9-3.7,4.2l1.1,0.7c0.9,0.2,1.8-0.1,2.5-0.7
	C307.1,280.6,307.5,279.7,307.5,278.8z"/>
<path class="st11" d="M177.3,274.2c-4.5-3.2-9.4-4.2-14.6-3.2c-5.4,0.8-9.7,3.5-12.8,8.1c-3.1,4.7-4.1,9.7-3.1,15
	c0.3,1.9,0.9,3.6,1.6,5.2l35.9-1.5c1.3-3.4,1.6-6.9,1-10.6C184.5,281.7,181.8,277.4,177.3,274.2z"/>
<path class="st10" d="M154.7,276.6c0-0.6-0.2-1.2-0.6-1.7c-1.4,0.9-2.7,2.1-3.6,3.5c0.9,0.9,2.3,1,3.3,0.2c0.1-0.1,0.1-0.1,0.2-0.2
	C154.4,277.9,154.7,277.3,154.7,276.6z"/>
<path class="st12" d="M165.6,219.4c-19.6,0-36.5,16.4-38.3,27.7c34.6-27.4,57-12.3,77.6,0C204.9,237.7,185.2,219.4,165.6,219.4z"/>
<path class="st13" d="M321.9,219.5c-19.6,0-36.6,18.2-38.5,29.5c34.6-27.4,57.1-12.3,77.6,0C361.1,239.6,341.6,219.5,321.9,219.5z"
	/>
<path class="st14" d="M449.4,262.7l0.1-1.4c-26.3-2.5-52.9-6-79.4-7.2c-23.1-1.1-45.8,0.3-68.4,5.4c-15.3,4.1-28.9,12.2-45,12.4
	l-9.2-0.6h-0.1h-0.1h-6.5c-7.2-0.2-13-1.2-17.3-3.2c-16.4-7.2-32.8-12.6-50.5-15.6c-24-3.3-48.1-2.5-72.3-2.5
	c-5.8,0-11.8,0.3-17.8,0.7L48.7,254l-0.2,2.6l0.6,20.4c0.2,0.4,0.4,0.7,0.8,0.9c0.2,0.1,0.3,0.1,0.5,0.2l0,0.3
	c0.2,0.4,0.4,0.7,0.8,0.9c2.3,0.9,4.4,2.3,6.2,4c0.3,0.4,0.7,0.8,1,1.3c1.5,2.3,2.6,5.5,3.3,9.5c2.5,16.8,5.2,30.5,8.3,41.1
	c3.5,11.8,8.1,24.1,16.7,33c2.1,2.4,4.5,4.6,7.3,6.5c21.7,15,50.4,15.3,75.4,8.9c15.7-3.9,29.7-10.8,40-23.6
	c10.9-14,18.8-29,23.6-45l2.4-9.5c1.7-6.1,5.3-9.7,10.7-10.8l2.1-0.3l5.2,0.7c2.3,0.6,4.2,1.6,5.8,3.1c1.4,1.8,2.5,4,3.2,6.7l2,9.6
	c2.8,13,9.3,26,16.3,37.2c3.1,4.9,6.4,9.2,10,13c9.6,10.7,21.3,17.8,36.3,22c24.3,6.8,54,9.2,75.7-6.3c12.6-9,19-22.7,23.9-37.2
	c3.5-10.8,6.8-24.4,9.7-41c0.8-3.8,2-6.9,3.6-9.2c2.1-3,5-5.2,8.8-6.4c0.4-0.4,0.7-0.6,0.7-0.8l1.4-23
	C450.3,262.8,449.9,262.7,449.4,262.7z M439,274l-0.1,2.7l-16-0.3l0.1-2.7L439,274z M421.4,299.3c0.3,9-0.9,18.2-2.6,27.2
	c-3.3,18.2-13.6,39.1-30.7,47.7c-23.1,11.5-58.3,6.5-79.4-7.3c-2.6-1.7-5-3.6-7.2-5.8c-6.7-7-11.8-15.8-15.2-24.6
	c-5.5-13.7-6.8-28.6-3.9-43.1c4.5-21.6,30.7-26.4,49-26.8l39.3,0.7c13.8,0.3,28.8,2.4,40.2,11c1.1,0.8,2,1.6,3,2.4
	C418.5,285.7,421,291.9,421.4,299.3z M106.3,369.1c-3.1-1.8-6.1-4-8.9-6.7c-0.1-0.1-0.2-0.2-0.3-0.3c-1.1-1.2-2.2-2.4-3.2-3.7
	c-8.2-10.7-13.5-23.4-15.4-36.8l-1.6-17c-0.3-4.4-0.3-7.8,0-10.3c0.9-9.6,5.2-16.9,12.8-22.1c5.7-3.9,12.4-6.5,20.1-7.8
	c6.1-1.1,12.8-1.7,20.3-1.6l39.3,0.7c11.7,0.7,21.5,2.9,29.6,6.4c4,1.8,7.3,3.9,9.9,6.3c0.2,0.3,0.5,0.5,0.7,0.8
	c3.3,3.8,5.4,8.2,6.3,13.4c1.1,5.4,1.5,11.1,1.1,17c-0.6,9-2.7,17.7-6.3,26c-3.7,9.1-9.2,17.3-16.2,24.3
	c-4.7,4.8-10.6,8.5-17.8,11.2c-8.9,3.1-17.5,5.1-25.7,6c-6.2,0.9-12.5,1.1-18.8,0.7C122.2,375.1,113.5,372.9,106.3,369.1z M60,267.2
	l16,0.3v2.6c-5.3-0.2-10.7-0.3-16.1-0.3L60,267.2z"/>
</svg>
