<?xml version="1.0" encoding="utf-8"?>
<!-- Generator: Adobe Illustrator 28.2.0, SVG Export Plug-In . SVG Version: 6.00 Build 0)  -->
<svg version="1.1" id="Layer_1" xmlns="http://www.w3.org/2000/svg" xmlns:xlink="http://www.w3.org/1999/xlink" x="0px" y="0px"
	 viewBox="0 0 512 512" style="enable-background:new 0 0 512 512;" xml:space="preserve">
<style type="text/css">
	.st0{fill:#2B6744;fill-opacity:0.76;}
	.st1{fill:#67AB84;}
	.st2{fill:#B8DFC8;}
	.st3{fill:#95D0AD;}
	.st4{fill:#538F6D;}
	.st5{fill:#B8DFC6;}
	.st6{fill:#559B75;}
	.st7{fill:#377958;}
	.st8{fill:#1F1D1D;}
	.st9{fill:#393636;}
	.st10{fill:#211E1F;}
	.st11{fill:#FFFFFF;}
	.st12{fill:#393537;}
	.st13{fill:#282527;}
	.st14{fill:#67AB83;}
	.st15{fill:none;}
	.st16{fill:#377959;}
</style>
<g>
	<g>
		<path class="st0" d="M261.2,330.8C244.1,334.5,140,320.2,123,324C65.4,329.9,1.1,380.5,1.6,380.8c0,0,37.8-39.1,119.1-17.3
			c54.3,19.7,129.7,81.3,129.7,81.3L359,359.3L261.2,330.8L261.2,330.8z"/>
		<path class="st1" d="M41.1,103.4c0,1.3-0.1,2.5-0.1,3.7c-0.2,6.3-0.3,12.7-0.2,19c0.1,3.7,0.3,7.2,0.5,10.7
			c0.6,6.9,1.3,13.6,2.2,20.3c-0.1,0-0.1,0.2-0.1,0.6c0.1,0,0.1,0,0.1,0.1c2.1,13.5,5.2,26.9,9.1,40c9.4,31.1,24.3,60.4,43.9,86.3
			c9.1,11.7,19,22.8,29.7,33c0.3-0.2,0.6-0.3,0.9-0.4c3.1-1,4.9-1.6,5.5-1.7c5.6-1.6,11.2-3.1,16.8-4.6c1.3-0.7,8.5-4,21.5-9.9
			l29.2-15.9c5.8-3.9,11.6-8,17.2-12.3c-0.8-2.6-1.6-5.1-2.3-7.7c-9.7-31.8-24.5-60.6-44.4-86.2c-23.2-30.6-50.8-54.6-82.9-71.9
			c-2.8-1.6-5.7-3-8.6-4.4c-3.4-1.7-6.9-3.3-10.4-4.8c-0.4-0.2-0.8-0.4-1.2-0.6c-0.2-0.1-0.3-0.2-0.3-0.2c-3.4-1.3-6.8-2.6-10.2-4
			c-0.6-0.3-1.2-0.6-1.8-0.8c-4.3-1.5-8.6-2.9-12.9-4.2l-1.2,13.5C41.3,102,41.3,102.7,41.1,103.4L41.1,103.4z"/>
		<path class="st2" d="M41.1,107.1c0-1.2,0-2.4,0-3.7c-6.5,4.9-11.9,9.5-16.1,13.8c2.9,0.5,4.8,0.4,5.6-0.3
			C32.4,115.6,35.9,112.3,41.1,107.1z"/>
		<path class="st3" d="M110.2,83.7c-6.3-3.6-12.8-7-19.4-10c-4.5-2-9-3.9-13.6-5.7v0.2c-0.1,0.1-0.4,1.2-0.8,3.5
			c-0.4,2.7-1.2,4.4-2.3,4.9c-0.2,0-0.3,0.1-0.4,0.2c-0.7,0.4-1.3,0.8-1.9,1.4c-4.3,2.5-9.7,7.1-16.3,13.9c0.7,0.2,1.3,0.5,1.8,0.8
			c3.5,1.4,6.9,2.8,10.2,4c0,0,0.1,0.1,0.3,0.2c0.4,0.2,0.8,0.4,1.2,0.6c3.4,1.5,6.9,3.1,10.4,4.8c2.9,1.4,5.8,2.8,8.6,4.4
			c32,17.3,59.7,41.2,82.9,71.9c20,25.6,34.8,54.4,44.4,86.2c0.8,2.7,1.5,5.3,2.3,7.7c-5.6,4.3-11.3,8.3-17.2,12.2l-29.2,15.9
			c-7.2,3.3-14.3,6.6-21.5,9.9c-4.2,1.1-9.8,2.6-16.8,4.6c-0.6,0.1-2.5,0.7-5.5,1.7c-0.3,0.1-0.6,0.3-0.9,0.4
			c-10.7-10.3-20.6-21.3-29.7-33c-19.6-26-34.5-55.2-43.9-86.3c-4-13.1-7-26.5-9.1-40c0-0.1,0-0.1-0.1-0.1c0-0.4,0-0.6,0.1-0.6
			c-0.9-6.7-1.6-13.4-2.2-20.3c-0.2-3.6-0.4-7.1-0.5-10.7c-0.1-6.3,0-12.6,0.2-19c-5.2,5.2-8.6,8.5-10.5,9.8
			c-0.9,0.7-2.7,0.8-5.6,0.3c-1.9-0.2-3.8-0.5-5.6-0.9L11,114c0,4.4,0,9,0.1,13.7c-0.1,0.7,0,1.4,0.2,2.1c-0.1,0.2-0.2,0.3-0.2,0.5
			c0,0.1,0.1,0.2,0.2,0.3c0,0.4-0.1,0.7-0.1,1.1c0.1,1.1,0.2,2.3,0.3,3.5c3,64.7,24.9,122.5,65.8,173.5c7,8.7,14.4,17.1,22.3,25.1
			c1.7-0.9,2.8-1.3,3.3-1.4c5.4-1.3,10.7-2.8,15.9-4.5c7.8-2.7,20.6-8.5,38.6-17.3l39.3-21.1c13.9-10.1,27.9-20.2,42-30.1
			c2-1.3,4-2.7,6-4.1c-7.3-24.9-18-48.9-32.2-71.8c-1.7-2.6-3.3-5.2-4.8-7.9c-24.2-36.8-54.3-66-90.3-87.9
			C114.9,86.3,112.6,85,110.2,83.7C110.2,83.7,110.2,83.7,110.2,83.7z"/>
		<path class="st4" d="M7.4,121.7c0,2.3,0.4,4.3,1.3,6.1c0.4,0.6,0.8,1.1,1.3,1.5c0.3,0.4,0.6,0.8,1.2,1.3c0,0.4-0.1,0.7-0.1,1.1
			c0.1,1.1,0.2,2.3,0.3,3.5c1.5,1.5,3,2.9,4.6,4.3c1.4,0.9,2.7,1.7,3.9,2.5c2,1.6,4.2,3.2,6.4,4.6c3.8,2.6,7.8,5,11.8,7.2
			c1.9,1.3,3.7,2.5,5.5,3.4c1.7,0.9,3.3,1.8,4.8,2.4c1.3-4.3,2.8-8.9,4.2-13.8c1.8-6.7,3.8-13.4,5.9-20.2c0.3-0.7,0.6-1.4,0.9-2.1
			c2.7-8.9,5.4-17.7,8.2-26.6c1.2-4,2.6-8,4-12c0.8-2.7,1.5-5.5,1.9-8.3c0.6-3,0.9-6,0.9-8.9c-0.7,0.2-1.3,0.5-1.9,0.9
			c-1,0.3-2.2,0.8-3.4,1.6c-5.7,2.7-12.2,6.4-19.4,11.1c-4.8,2.9-9.4,5.9-13.9,9.2c-10,7.1-17.7,13.9-22.9,20.3
			c-1.3,1.2-2.4,2.6-3.2,4.1l-1.9,4.9C7.6,120.5,7.5,121.2,7.4,121.7z"/>
		<path class="st5" d="M7.8,119.8c-0.1,0.7-0.3,1.3-0.4,1.9c-0.1,3,0.8,5.5,2.7,7.6c1.2,1.6,2.9,3.4,5.2,5.2
			c3.6,3.1,8.4,6.4,14.5,9.9c6.9,4.2,14,8.1,21.2,11.8l3.7-9.9c3.3-7.7,6.3-15.6,9-23.5c0.1-0.1,0.1-0.2,0.2-0.4
			c8.3-24.4,12.7-42.7,13.4-54.8c0.1-0.9-2.6,0-8.1,2.7c-5.7,2.7-12.2,6.4-19.4,11.1c-19.6,12.2-32.9,23.4-40.1,33.6
			C9.7,114.9,7.8,119.8,7.8,119.8z"/>
		<path class="st6" d="M508.2,132c2.6-17.1,3.9-33.8,3.8-50c-74-3.8-140,18.3-198,66.1c-33.6,27.7-59.5,59.9-77.8,96.8
			c6.1,8.6,12.6,16.9,19.3,25c2.2,2.6,6,6.1,11.3,10.7c5.1,4.4,10.4,8.5,15.7,12.6l12.5,11.1c7.8,6.9,12.7,10.9,14.6,12.1
			c6.9,4.2,14.3,7.6,22,10.1c8,2.6,12.8,4.4,14.4,5.4c13.6,4.2,20.6,6.4,20.9,6.5c2.2,0.8,4.4,1.3,6.7,1.7
			c9.9-6.4,19.4-13.4,28.4-20.9C460.6,270.8,496,208.5,508.2,132L508.2,132z"/>
		<path class="st7" d="M478.1,127.1l2-13.8c-55.1,3.9-104.2,23.6-147.2,59.1c-25.3,20.9-46.2,45.8-62.7,74.8
			c-2.2,3.9-4.3,7.8-6.4,11.7c2.9,3.2,5.9,6.4,9,9.5c14.4,14.9,29.4,27.2,45.1,36.8c2.2,1.3,5.8,3.1,11,5.3c4.8,2.1,7.6,3.2,8.4,3.3
			c5.2,0.7,10.6,1.2,16.2,1.6c10.2-6.4,20-13.4,29.3-21.1c25.2-20.8,46.4-46,62.5-74.5C461.8,191.1,472.7,160.2,478.1,127.1z"/>
		<path class="st8" d="M248.2,414.8v3.7l0,22.7l34.6-26.4l0.2-0.2L248.2,414.8z"/>
		<path class="st9" d="M248.2,418.4v-3.7l-34.8-0.7l34.8,27.1L248.2,418.4z"/>
		<path class="st3" d="M0.1,340c11-2,23.2-3.2,36.5-3.8c-11.9,7.2-21.6,17.2-29.1,29.9L0,383.4c21.4-18.8,45.8-29,73.4-30.7
			c17.7-1.1,35.4,1.1,52.2,6.6c23.3,11.5,47.5,26.1,72.7,43.9c5.1,3.5,10.1,7.1,15.1,10.9l34.7,0.7l0-10.8l1.3-263.2l-2.1,0
			C188.1,140.3,135.3,159,89,196.9C43.4,234.2,13.7,282,0.1,340z"/>
		<path class="st6" d="M409.6,199.2c-45.8-38.5-98.4-58-157.7-58.5l-2.4,0.1L248.2,404v10.8l34.8-0.2l-0.2,0.2h0
			c4.7-3.4,9.4-6.8,14.2-10c24.9-17.1,48.4-31,70.5-41.7c16.1-6.1,33-8.8,50.8-8.4c30.2,0.8,56.9,11.5,80,32
			c-1.4-5-3.9-10.7-7.5-17.1c-7.6-12.9-17.2-23-28.9-30.3c11.8,0.7,23.5,2,35,4.1C484,285.1,454.9,237,409.6,199.2L409.6,199.2z"/>
		<path class="st10" d="M336.3,281.4c-3.3-4.8-7.8-7.7-13.4-8.7c-5.5-0.9-10.5,0.4-15,3.8c-4.6,3.2-7.4,7.8-8.4,13.6
			c-0.9,5.5,0.5,11.1,3.7,15.6c3.2,4.6,7.6,7.4,13.2,8.5c5.5,0.9,10.6-0.3,15.2-3.5c4.6-3.4,7.4-8,8.2-13.8
			C340.6,291.2,339.5,286.1,336.3,281.4L336.3,281.4z"/>
		<path class="st11" d="M307.5,278.8c0-0.9-0.4-1.6-1.1-1.9c-1.7,1.5-2.9,2.9-3.7,4.2l1.1,0.7c0.9,0.2,1.8-0.1,2.5-0.7
			C307.1,280.6,307.5,279.7,307.5,278.8z"/>
		<path class="st12" d="M185.3,287.1c-0.8-5.4-3.5-9.7-8-12.9c-4.5-3.2-9.4-4.2-14.6-3.2c-5.4,0.8-9.7,3.5-12.8,8.1
			c-3.1,4.7-4.1,9.7-3.1,15c1,5.6,3.7,10,8.3,13.2c4.3,3.2,9.1,4.3,14.6,3.3c5.2-1.1,9.3-3.9,12.4-8.6
			C185.2,297.4,186.2,292.4,185.3,287.1z"/>
		<path class="st11" d="M154.7,276.6c0-0.6-0.2-1.2-0.6-1.7c-1.4,0.9-2.7,2.1-3.6,3.5c0.9,0.9,2.3,1,3.3,0.2
			c0.1-0.1,0.1-0.1,0.2-0.2C154.4,277.9,154.7,277.3,154.7,276.6z"/>
		<path class="st3" d="M140.6,299.6l54.3-2.3c0,0-6.1,19.6-22.6,21.8C155.7,321.3,146.6,311.2,140.6,299.6z M196.7,266.6l-54.3-2.1
			c0,0,7.6-19,24.3-19.9C183.3,243.8,191.6,254.5,196.7,266.6z"/>
		<path class="st6" d="M290.5,302.7l54.3-1.9c0,0-6.3,19.5-22.8,21.6S296.4,314.4,290.5,302.7z M349.5,268l-54.3,2.2
			c0,0,6.1-19.6,22.6-21.8C334.4,246.3,343.5,256.4,349.5,268z"/>
		<path class="st13" d="M371.5,255.5c-23.1-1.1-45.8,0.3-68.4,5.4c-15.3,4.1-28.9,12.2-45,12.4l-9.2-0.6h-0.1l-0.1,0v0l-6.5,0
			c-7.2-0.2-13-1.2-17.3-3.1c-16.4-7.3-32.8-12.6-50.5-15.6c-24-3.3-48.1-2.5-72.3-2.5c-5.8,0-11.8,0.3-17.8,0.7l-34.3,3.2l-0.2,2.6
			l0.6,20.4c0.2,0.4,0.4,0.7,0.8,0.9c3.4,1.3,6.3,3.6,8.5,6.7c1.5,2.3,2.6,5.5,3.3,9.5c2.5,16.8,5.2,30.5,8.3,41.1
			c4.2,14.3,10,29.3,22.7,38.1c21.7,15,50.4,15.3,75.4,8.9c15.7-3.9,29.7-10.8,40-23.6c10.9-14,18.8-29,23.6-45l2.4-9.5
			c1.7-6.1,5.3-9.7,10.7-10.8l2.1-0.3l5.2,0.7c5.2,1.3,8.7,5,10.3,11.2l2,9.6c2.8,13,9.2,26,16.3,37.2c11,17.5,25.1,28.1,45,33.6
			c24.3,6.8,54,9.2,75.7-6.3c12.6-9,19-22.7,23.9-37.2c3.5-10.8,6.8-24.4,9.7-41c0.8-3.8,2-6.9,3.6-9.2c2.1-3,5-5.2,8.8-6.4
			c0.4-0.4,0.7-0.6,0.7-0.8l1.4-23C424.6,260.3,398,256.8,371.5,255.5z M59.9,271.3l0.1-4.1l17.5,0.3l-0.1,4.1
			C71.6,271.3,65.8,271.2,59.9,271.3z M218.4,308.9c-0.6,9-2.7,17.7-6.3,26c-3.7,9.1-9.3,17.3-16.2,24.3
			c-4.7,4.8-10.6,8.5-17.8,11.2c-8.9,3.1-17.5,5.1-25.7,6c-6.2,0.9-12.5,1.1-18.8,0.7c-10-0.6-18.7-2.8-25.9-6.6
			c-5-2.8-9.6-6.8-13.8-12c-8.2-10.7-13.5-23.4-15.4-36.8l-1.6-17c-0.3-4.4-0.3-7.8,0-10.3c0.9-9.6,5.2-16.9,12.8-22.1
			c5.7-3.9,12.4-6.5,20.1-7.8c6.1-1.1,12.8-1.7,20.3-1.6l39.3,0.7c11.7,0.7,21.5,2.9,29.6,6.4c5.2,2.4,9.2,5.2,12.1,8.6
			c3.3,3.8,5.4,8.2,6.3,13.4C218.4,297.4,218.8,303,218.4,308.9z M420.2,327.9c-3.3,18.2-13.6,39.1-30.7,47.7
			c-23.1,11.5-58.3,6.5-79.4-7.3c-11.1-7.3-19.1-19.5-23.8-31.8c-5.5-13.7-6.8-28.6-3.9-43.1c4.5-21.6,30.7-26.4,49-26.8l39.3,0.7
			c13.8,0.3,28.8,2.4,40.2,11c7.4,5.4,11.4,12.9,11.9,22.4C423.1,309.7,421.9,318.9,420.2,327.9z M422.9,277.8l0.1-4.1l17.5,0.3
			l-0.1,4.1L422.9,277.8z"/>
	</g>
	<path class="st14" d="M165.6,219.4c-19.6,0-36.5,16.4-38.3,27.7c34.6-27.4,57-12.3,77.6,0C204.9,237.7,185.2,219.4,165.6,219.4
		L165.6,219.4z"/>
	<path class="st14" d="M165.6,219.4c-19.6,0-36.5,16.4-38.3,27.7c34.6-27.4,57-12.3,77.6,0C204.9,237.7,185.2,219.4,165.6,219.4
		L165.6,219.4z"/>
	<path class="st15" d="M165.6,219.4c-19.6,0-36.5,16.4-38.3,27.7c34.6-27.4,57-12.3,77.6,0C204.9,237.7,185.2,219.4,165.6,219.4
		L165.6,219.4z"/>
	<path class="st16" d="M321.9,219.5c-19.6,0-36.6,18.2-38.5,29.5c34.6-27.4,57.1-12.3,77.6,0C361.1,239.6,341.6,219.5,321.9,219.5z"
		/>
	<path class="st16" d="M321.9,219.5c-19.6,0-36.6,18.2-38.5,29.5c34.6-27.4,57.1-12.3,77.6,0C361.1,239.6,341.6,219.5,321.9,219.5z"
		/>
	<path class="st15" d="M321.9,219.5c-19.6,0-36.6,18.2-38.5,29.5c34.6-27.4,57.1-12.3,77.6,0C361.1,239.6,341.6,219.5,321.9,219.5z"
		/>
	<path class="st13" d="M370.1,254.1c-23.1-1.1-45.8,0.3-68.4,5.4c-15.3,4.1-28.9,12.2-45,12.4l-9.2-0.6h-0.1l-0.1,0v0l-6.5,0
		c-7.2-0.2-13-1.2-17.3-3.2c-16.4-7.2-32.8-12.6-50.5-15.6c-24-3.3-48.1-2.5-72.3-2.5c-5.8,0-11.8,0.3-17.8,0.7L48.7,254l-0.2,2.6
		l0.6,20.4c0.2,0.4,0.4,0.7,0.8,0.9c3.4,1.3,6.3,3.6,8.5,6.7c1.5,2.3,2.6,5.5,3.3,9.5c2.5,16.8,5.2,30.5,8.3,41.1
		c4.2,14.3,10,29.3,22.7,38.1c21.7,15,50.4,15.3,75.4,8.9c15.7-3.9,29.7-10.8,40-23.6c10.9-14,18.8-29,23.6-45l2.4-9.5
		c1.7-6.1,5.3-9.7,10.7-10.8l2-0.3l5.3,0.7c5.2,1.3,8.7,5,10.3,11.2l2,9.6c2.8,13,9.3,26,16.3,37.2c11,17.5,25.1,28.1,45,33.6
		c24.3,6.8,54,9.2,75.7-6.3c12.6-9,19-22.7,23.9-37.2c3.5-10.8,6.8-24.4,9.7-41c0.8-3.8,2-6.9,3.6-9.3c2.1-3,5-5.2,8.8-6.4
		c0.4-0.4,0.7-0.6,0.7-0.8l1.4-23C423.2,258.8,396.6,255.3,370.1,254.1L370.1,254.1z M58.5,269.8l0-4.1l17.5,0.3l0,4.1
		C70.2,269.9,64.4,269.8,58.5,269.8z M217,307.5c-0.6,9-2.7,17.7-6.3,26c-3.7,9.1-9.2,17.3-16.2,24.3c-4.7,4.8-10.6,8.5-17.8,11.2
		c-8.9,3.1-17.5,5.1-25.7,6c-6.2,0.9-12.5,1.1-18.8,0.7c-10-0.6-18.7-2.8-25.9-6.6c-5-2.8-9.6-6.8-13.8-12
		C84.3,346.3,79,333.6,77,320.2l-1.6-17c-0.3-4.4-0.3-7.8,0-10.3c0.9-9.6,5.2-16.9,12.8-22.1c5.7-3.9,12.4-6.5,20.1-7.8
		c6.1-1.1,12.8-1.7,20.3-1.6l39.3,0.7c11.6,0.7,21.5,2.9,29.6,6.4c5.2,2.4,9.2,5.2,12.1,8.6c3.3,3.8,5.4,8.2,6.3,13.4
		C217,295.9,217.4,301.6,217,307.5L217,307.5z M418.8,326.5c-3.3,18.2-13.6,39.1-30.7,47.7c-23.1,11.5-58.3,6.5-79.4-7.3
		c-11.1-7.3-19.1-19.5-23.8-31.8c-5.5-13.7-6.8-28.6-3.9-43.1c4.5-21.6,30.7-26.4,49-26.8l39.3,0.7c13.8,0.3,28.8,2.4,40.2,11
		c7.4,5.4,11.4,12.9,11.9,22.4C421.7,308.3,420.5,317.5,418.8,326.5z M421.5,276.4l0-4.1l17.5,0.3l-0.1,4.1L421.5,276.4z"/>
</g>
</svg>
