<svg xmlns="http://www.w3.org/2000/svg" xml:space="preserve" viewBox="0 0 512 512"><path d="M290.6 256c0 19.1-15.5 34.6-34.6 34.6s-34.6-15.5-34.6-34.6 15.5-34.6 34.6-34.6 34.6 15.5 34.6 34.6m18.6 0c0 29.3-23.9 53.2-53.2 53.2s-53.2-23.9-53.2-53.2 23.9-53.2 53.2-53.2 53.2 23.9 53.2 53.2m-9.9 0c0-23.9-19.4-43.3-43.3-43.3s-43.3 19.4-43.3 43.3 19.4 43.3 43.3 43.3 43.3-19.4 43.3-43.3m100.2 86.6c8.2 0 14.8-6.6 14.8-14.8s-6.6-14.8-14.8-14.8-14.8 6.6-14.8 14.8 6.6 14.8 14.8 14.8M436.6 110c8.2 0 14.8-6.6 14.8-14.8s-6.6-14.8-14.8-14.8-14.8 6.6-14.8 14.8 6.6 14.8 14.8 14.8m11.8 306.9c-45.4 52.5-108.5 84.2-177.7 89.2-6.3.5-12.7.7-19 .7-61.8 0-121-21.8-168.4-62.4-2.5.7-5.1 1.1-7.9 1.1-15.8 0-28.7-12.9-28.7-28.7s12.9-28.7 28.7-28.7 28.7 12.9 28.7 28.7c0 3.9-.8 7.6-2.2 11 47 39.1 106.1 58.1 167.3 53.6 62.6-4.5 119.7-33.2 160.8-80.7 32.9-38 52.1-84.2 56.4-132.4H341.7c-6 42-42.1 74.3-85.7 74.3s-79.7-32.3-85.7-74.2H24.8c.3 19 2.9 38.1 8 56.9h92l3.5 6.3c40 71.4 130.6 97 202.1 57 18.5-10.4 34.8-24.9 47.4-42.1-4.4-5-7-11.6-7-18.7 0-15.8 12.9-28.7 28.7-28.7s28.7 12.9 28.7 28.7c0 15.2-12 27.8-27.1 28.6-15.1 22.1-35.2 40.7-58.5 53.8-26.9 15-55.9 22.1-84.5 22.1-58.4 0-115.2-29.6-147.7-82.2H14.3l-2.7-8.7c-26.4-86.1-7.1-178.1 51.8-246.2C108.8 42.7 171.9 11 241.1 6c68.7-5 135.2 16.9 187.6 61.6 2.5-.7 5.2-1.1 7.9-1.1 15.8 0 28.7 12.9 28.7 28.7s-12.9 28.7-28.7 28.7-28.7-12.9-28.7-28.7c0-3.9.8-7.5 2.2-10.9C363.2 45.1 304 26.1 242.9 30.6c-62.6 4.5-119.7 33.2-160.8 80.7-32.9 38-52.1 84.2-56.4 132.4h144.6c6-42 42.1-74.3 85.7-74.3s79.7 32.3 85.7 74.2h145.5c-.3-19-2.9-38.1-8-56.9h-92l-3.5-6.3c-40-71.4-130.6-97-202.1-57-18.5 10.4-34.8 24.9-47.4 42.1 4.4 5 7 11.6 7 18.7 0 15.8-12.9 28.7-28.7 28.7S83.8 200 83.8 184.2c0-15.2 12-27.8 27.1-28.6 15.1-22.1 35.2-40.7 58.5-53.8 81.2-45.5 183.6-18.3 232 60.2h96.1l2.7 8.7c26.4 86.1 7.1 178.1-51.8 246.2M133.3 184.2c0-6-2.6-11.4-6.6-15.2l-5.7-3.8c-2.6-1.1-5.4-1.8-8.4-1.8-11.5 0-20.8 9.3-20.8 20.8S101 205 112.5 205s20.8-9.3 20.8-20.8M436.6 74.4c-11.5 0-20.8 9.3-20.8 20.8s9.3 20.8 20.8 20.8 20.8-9.3 20.8-20.8-9.3-20.8-20.8-20.8m-57.9 253.4c0 5.9 2.5 11.2 6.4 15l6.4 4.2c2.5 1 5.2 1.6 8 1.6 11.5 0 20.8-9.3 20.8-20.8S411 307 399.5 307s-20.8 9.3-20.8 20.8M317.9 256c0-34.2-27.8-61.9-61.9-61.9s-61.9 27.7-61.9 61.9 27.7 61.9 61.9 61.9 61.9-27.7 61.9-61.9M75.4 437.6c11.5 0 20.8-9.3 20.8-20.8S86.8 396 75.4 396c-11.5 0-20.8 9.3-20.8 20.8s9.3 20.8 20.8 20.8m37.1-268.2c-8.2 0-14.8 6.6-14.8 14.8s6.6 14.8 14.8 14.8 14.8-6.6 14.8-14.8-6.6-14.8-14.8-14.8M75.4 402c-8.2 0-14.8 6.6-14.8 14.8s6.6 14.8 14.8 14.8 14.8-6.6 14.8-14.8S83.6 402 75.4 402" style="fill:#fff"/></svg>