<?xml version="1.0" encoding="utf-8"?>
<!-- Generator: Adobe Illustrator 28.2.0, SVG Export Plug-In . SVG Version: 6.00 Build 0)  -->
<svg version="1.1" id="Layer_1" xmlns="http://www.w3.org/2000/svg" xmlns:xlink="http://www.w3.org/1999/xlink" x="0px" y="0px"
	 viewBox="0 0 512 512" style="enable-background:new 0 0 512 512;" xml:space="preserve">
<path d="M405.2,194.2v-87.4h-87.4L256,45l-61.8,61.8h-87.4v87.4L45,256l61.8,61.8v87.4h87.4L256,467l61.8-61.8h87.4v-87.4L467,256
	L405.2,194.2z M393.1,312.8v80.3h-80.3L256,449.9l-56.8-56.8h-80.3v-80.3L62.1,256l56.8-56.8v0v-80.3h80.3L256,62.1l56.8,56.8h80.3
	v80.3l56.8,56.8L393.1,312.8z M437,181V75H331L256,0l-75,75H75v106L0,256l75,75v106h106l75,75l75-75h106V331l75-75L437,181z
	 M425.1,325.9v99h-99l-70,70l-70-70h-99c0,0,0-99,0-99l-70-70l70-70v-99h99l70-70l70,70h99v99l70,70L425.1,325.9z M326.3,226.9
	h-41.2v-41.2L256,214.8l-29.1-29.1v41.2h-41.2l29.1,29.1l-29.1,29.1h41.2v41.2l29.1-29.1l29.1,29.1v-41.2h41.2L297.2,256
	L326.3,226.9z M300.9,274.6h-26.3v26.3L256,282.3l-18.6,18.6v-26.3h-26.3l18.6-18.6l-18.6-18.6h26.3v-26.3l18.6,18.6l18.6-18.6v26.3
	h26.3L282.3,256L300.9,274.6z M393.1,199.2h-80.3v-80.3L256,175.7l-56.8-56.8v80.3h-80.3l56.8,56.8l-56.8,56.8h80.3v80.3l56.8-56.8
	l56.8,56.8v-80.3h80.3L336.3,256L393.1,199.2z M367.9,302.3h-65.5v65.5l-46.3-46.3l-46.3,46.3v-65.5h-65.5l46.2-46.3l-46.3-46.3
	h65.5v-65.5l46.3,46.3l46.3-46.3v65.5h65.5L321.5,256L367.9,302.3z"/>
</svg>
