<svg xmlns="http://www.w3.org/2000/svg" xml:space="preserve" viewBox="0 0 512 512"><path d="m256 512-75-75H75V331L0 256l75-75V75h106l75-75 75 75h106v106l75 75-75 75v106H331zM87.1 424.9h99l70 70 70-70h99v-99l70-70-70-70v-99h-99l-70-70-70 70h-99v99l-70 70 70 70zM256 467l-61.8-61.8h-87.4v-87.4L45 256l61.8-61.8v-87.4h87.4L256 45l61.8 61.8h87.4v87.4L467 256l-61.8 61.8v87.4h-87.4zm-137.1-73.9h80.3l56.8 56.8 56.8-56.8h80.3v-80.3l56.8-56.8-56.8-56.8v-80.3h-80.3L256 62.1l-56.8 56.8h-80.3v80.3L62.1 256l56.8 56.8zm193.9 0L256 336.3l-56.8 56.8v-80.3h-80.3l56.8-56.8-56.8-56.8h80.3v-80.3l56.8 56.8 56.8-56.8v80.3h80.3L336.3 256l56.8 56.8h-80.3zm-168.5-90.8h65.5v65.5l46.3-46.3 46.3 46.3v-65.5h65.5L321.5 256l46.3-46.3h-65.5v-65.5L256 190.5l-46.3-46.3v65.5h-65.5l46.3 46.3zm140.8 24L256 297.2l-29.1 29.1v-41.2h-41.2l29.1-29.1-29.1-29.1h41.2v-41.2l29.1 29.1 29.1-29.1v41.2h41.2L297.2 256l29.1 29.1h-41.2zm-74-51.7h26.3v26.3l18.6-18.6 18.6 18.6v-26.3h26.3L282.3 256l18.6-18.6h-26.3v-26.3L256 229.7l-18.6-18.6v26.3h-26.3l18.6 18.6z" style="fill:#fff"/></svg>