<?xml version="1.0" encoding="utf-8"?>
<!-- Generator: Adobe Illustrator 28.2.0, SVG Export Plug-In . SVG Version: 6.00 Build 0)  -->
<svg version="1.1" id="Layer_1" xmlns="http://www.w3.org/2000/svg" xmlns:xlink="http://www.w3.org/1999/xlink" x="0px" y="0px"
	 viewBox="0 0 512 512" style="enable-background:new 0 0 512 512;" xml:space="preserve">
<style type="text/css">
	.st0{fill:#FFFFFF;}
</style>
<path class="st0" d="M37.5,413.9c-21.5-15.6-35.4-41-35.4-69.6V86.1C2.2,38.5,40.7,0,88.2,0h258.2c34.7,0,64.7,20.6,78.3,50.2
	c-12-5.7-25.4-8.9-39.6-8.9H126.9c-50.7,0-92,41.3-92.1,92.1v258.2C34.8,399.3,35.8,406.8,37.5,413.9z M468.4,94.1
	c5.6,11.9,8.8,25.2,8.8,39.3v258.2c0,50.8-41.3,92.1-92.1,92.1H126.9c-10.2,0-20-1.7-29.2-4.7c15.8,20.2,40.3,33.1,67.9,33.1h258.2
	c47.6,0,86.1-38.6,86.1-86.1V167.8C509.9,136.6,493.3,109.2,468.4,94.1z M385.1,53.3H126.9c-44.1,0-80,35.9-80.1,80.1v258.2
	c0,44.2,35.9,80.1,80.1,80.1h258.2c44.2,0,80.1-35.9,80.1-80.1V133.4C465.2,89.2,429.3,53.3,385.1,53.3z"/>
</svg>
