<svg xmlns="http://www.w3.org/2000/svg" xml:space="preserve" viewBox="0 0 512 512"><path d="M88.2 0h258.2c47.5 0 86.1 38.5 86.1 86.1v258.2c0 47.5-38.5 86.1-86.1 86.1H88.2c-47.5 0-86.1-38.5-86.1-86.1V86.1C2.2 38.5 40.7 0 88.2 0" style="fill:#84e9f5"/><path d="M165.6 81.7h258.2c47.5 0 86.1 38.5 86.1 86.1V426c0 47.5-38.5 86.1-86.1 86.1H165.6c-47.5 0-86.1-38.5-86.1-86.1V167.8c.1-47.5 38.6-86.1 86.1-86.1" style="fill:#ffab4c"/><path d="M126.9 47.3h258.2c47.5 0 86.1 38.5 86.1 86.1v258.2c0 47.5-38.5 86.1-86.1 86.1H126.9c-47.5 0-86.1-38.5-86.1-86.1V133.4c.1-47.5 38.6-86.1 86.1-86.1" style="fill:#4f46bb"/></svg>