<svg xmlns="http://www.w3.org/2000/svg" xml:space="preserve" viewBox="0 0 512 512"><path d="M357.3 179.3H202.7V90.8h154.6zM461.8 34.2v378c0 18.4-14.6 33.4-32.9 34.1v39.6c0 14.4-11.7 26.1-26.1 26.1H99.1c-27 0-48.9-21.9-48.9-48.9V48.9C50.2 21.9 72.1 0 99.1 0h328.5c18.9 0 34.2 15.3 34.2 34.2M77.5 420.6c2.9-2.7 7.8-6 14.9-8.3 2.4-.7 4.4-1.1 5.8-1.4-.4-9.9.4-19.7 0-29.6-2.4.6-6.7 1.6-10.3 3.3-8 3.7-13.1 8.3-17.2 12.1-3.6 3.3-8.2 8.1-12.7 14.6v30.5c16-19.5 10.2-12.4 19.5-21.2m328.9 25.8H102.5c-9.4 0-17.1 7.7-17.1 17.1s7.7 17.1 17.1 17.1h286.9c9.4 0 17.1-7.7 17.1-17.1v-17.1zm21.2-413.3H130.2v378.4h297.5V33.1z" style="fill:#fff"/></svg>