<svg xmlns="http://www.w3.org/2000/svg" xml:space="preserve" viewBox="0 0 512 512"><path d="M252.2 218.4c-30.7 0-46.1 27.3-46.1 81.8s15.4 81.8 46.1 81.9c30.9 0 46.4-27.3 46.4-81.9s-15.5-81.9-46.4-81.8M393.2 0H118.9C53.6 0 .6 52.9.6 118.2v275.6c0 65.3 53 118.2 118.3 118.2h274.2c65.3 0 118.3-52.9 118.3-118.3V118.2C511.4 52.9 458.5 0 393.2 0M217.3 86.5c9.7-4.6 20.4-6.8 31.1-6.3 10.4-.5 20.8 1.9 30 6.8 3.3 7.7 5 16 4.9 24.4.1 8.4-1.6 16.7-4.9 24.4-9.7 5.1-20.5 7.4-31.5 6.8-10.3.6-20.6-1.9-29.6-7.3-3.3-7.7-5-16-4.9-24.4-.1-8.4 1.6-16.7 4.9-24.4m108.3 313.7c-19.5 18.9-46 28.9-73.1 27.8-27.2 1.1-53.6-8.9-73.1-27.8-23.4-23.1-35.1-56.4-35.1-100s11.5-76.9 34.6-100c19.5-18.9 46-28.9 73.1-27.8 27.2-1.1 53.6 8.9 73.1 27.8 23.4 23 35.1 56.3 35.1 100 0 43.3-11.5 76.7-34.6 100"/></svg>