<?xml version="1.0" encoding="utf-8"?>
<!-- Generator: Adobe Illustrator 28.2.0, SVG Export Plug-In . SVG Version: 6.00 Build 0)  -->
<svg version="1.1" id="Layer_1" xmlns="http://www.w3.org/2000/svg" xmlns:xlink="http://www.w3.org/1999/xlink" x="0px" y="0px"
	 viewBox="0 0 512 512" style="enable-background:new 0 0 512 512;" xml:space="preserve">
<path d="M252.2,218.4c-30.7,0-46.1,27.3-46.1,81.8s15.4,81.8,46.1,81.9c30.9,0,46.4-27.3,46.4-81.9S283.1,218.3,252.2,218.4z
	 M393.2,0H118.9C53.6,0,0.6,52.9,0.6,118.2v275.6c0,65.3,53,118.2,118.3,118.2h274.2c65.3,0,118.3-52.9,118.3-118.3V118.2
	C511.4,52.9,458.5,0,393.2,0z M217.3,86.5c9.7-4.6,20.4-6.8,31.1-6.3c10.4-0.5,20.8,1.9,30,6.8c3.3,7.7,5,16,4.9,24.4
	c0.1,8.4-1.6,16.7-4.9,24.4c-9.7,5.1-20.5,7.4-31.5,6.8c-10.3,0.6-20.6-1.9-29.6-7.3c-3.3-7.7-5-16-4.9-24.4
	C212.3,102.5,214,94.2,217.3,86.5z M325.6,400.2c-19.5,18.9-46,28.9-73.1,27.8c-27.2,1.1-53.6-8.9-73.1-27.8
	c-23.4-23.1-35.1-56.4-35.1-100s11.5-76.9,34.6-100c19.5-18.9,46-28.9,73.1-27.8c27.2-1.1,53.6,8.9,73.1,27.8
	c23.4,23,35.1,56.3,35.1,100C360.2,343.5,348.7,376.9,325.6,400.2z"/>
</svg>
