<?xml version="1.0" encoding="utf-8"?>
<!-- Generator: Adobe Illustrator 28.2.0, SVG Export Plug-In . SVG Version: 6.00 Build 0)  -->
<svg version="1.1" id="Layer_1" xmlns="http://www.w3.org/2000/svg" xmlns:xlink="http://www.w3.org/1999/xlink" x="0px" y="0px"
	 viewBox="0 0 512 512" style="enable-background:new 0 0 512 512;" xml:space="preserve">
<style type="text/css">
	.st0{fill-rule:evenodd;clip-rule:evenodd;fill:#FFFFFF;}
</style>
<path class="st0" d="M347.1,100.9C283.6,49.4,256,0,256,0s-27.6,49.4-91.1,100.9c-57.1,46.2-143.8,83.6-143.8,203
	c0,91.6,0.5,84.9,0.5,106.6c0,21.7,7.6,61.6,27.6,75.1c20,13.5,33.3,26.4,95.2,26.4s111.6,0,111.6,0s49.8,0,111.6,0
	s75.2-12.8,95.2-26.4c20-13.5,27.6-53.5,27.6-75.1c0-21.7,0.5-14.9,0.5-106.6C490.9,184.5,404.1,147.1,347.1,100.9z M342.6,378.2
	c0.5,21.5-12.1,32.2-37.9,32.2h-95.9c-25.8,0-38.4-10.7-37.8-32.2v-93.4c0-10.7,2.9-18.8,8.9-24.2c5.9-5.4,15.9-8.1,29.8-8.1h95.1
	c14,0,23.7,2.7,29,8.1c6,5.4,8.9,13.4,8.9,24.2V378.2z"/>
</svg>
