<?xml version="1.0" encoding="utf-8"?>
<!-- Generator: Adobe Illustrator 28.2.0, SVG Export Plug-In . SVG Version: 6.00 Build 0)  -->
<svg version="1.1" id="Layer_1" xmlns="http://www.w3.org/2000/svg" xmlns:xlink="http://www.w3.org/1999/xlink" x="0px" y="0px"
	 viewBox="0 0 512 512" style="enable-background:new 0 0 512 512;" xml:space="preserve">
<style type="text/css">
	.st0{fill:url(#SVGID_1_);}
	.st1{fill:url(#SVGID_00000007401625465488992080000018169333865095012746_);}
	.st2{fill:#FF5798;}
	.st3{fill:url(#SVGID_00000160173042531942256540000008787036665593689503_);}
	.st4{fill:url(#SVGID_00000080885263919815962070000010989023493971725977_);}
	.st5{fill:#4E1AA0;}
</style>
<linearGradient id="SVGID_1_" gradientUnits="userSpaceOnUse" x1="494.7807" y1="985.4081" x2="507.3792" y2="1137.8309" gradientTransform="matrix(1 0 0 1 -421.91 -667.3)">
	<stop  offset="0" style="stop-color:#829AFF"/>
	<stop  offset="1" style="stop-color:#2CEDFF"/>
</linearGradient>
<path class="st0" d="M-0.1,429.2c-2.3,23.1,14.5,43.8,37.7,46.1c10.3,1,20.7-1.8,29.2-7.9l93.6-93.3L-0.1,217.2"/>
<linearGradient id="SVGID_00000057120786902008688920000018280630939051615142_" gradientUnits="userSpaceOnUse" x1="879.946" y1="890.8936" x2="845.5922" y2="1129.4373" gradientTransform="matrix(1 0 0 1 -421.91 -667.3)">
	<stop  offset="0" style="stop-color:#829AFF"/>
	<stop  offset="1" style="stop-color:#2CEDFF"/>
</linearGradient>
<path style="fill:url(#SVGID_00000057120786902008688920000018280630939051615142_);" d="M512,217L351.6,374l0,0l93.5,93.3
	c18.8,13.7,45.2,9.6,59-9.2c6.1-8.4,8.9-18.7,7.9-29V217z"/>
<path class="st2" d="M160.3,374.1L160.3,374.1c28.5,29.3,45,55.4,90.8,55.4c56.7,0,76.2-26.2,100.6-55.4L256,278.6L160.3,374.1z"/>
<linearGradient id="SVGID_00000156553051766544853740000001266622321628775811_" gradientUnits="userSpaceOnUse" x1="173.3948" y1="115.186" x2="-25.1879" y2="351.5505">
	<stop  offset="0" style="stop-color:#7200E1"/>
	<stop  offset="1" style="stop-color:#F056A3"/>
</linearGradient>
<path style="fill:url(#SVGID_00000156553051766544853740000001266622321628775811_);" d="M91.9,114.7C79,102.4,74.5,83.8,80.4,67
	c6.1-17.2,22-29,40.2-30H59.7c-0.4,0-0.9,0-1.3,0H36.1C16.1,37-0.2,53.2-0.2,73.3V105c0,1.5,0.1,3,0.3,4.4V217l160.2,157.1
	l95.7-95.5L91.9,114.7z"/>
<linearGradient id="SVGID_00000113316215060291453130000014652450557151127219_" gradientUnits="userSpaceOnUse" x1="486.6761" y1="85.3442" x2="190.7851" y2="437.5307">
	<stop  offset="0" style="stop-color:#7200E1"/>
	<stop  offset="1" style="stop-color:#F056A3"/>
</linearGradient>
<path style="fill:url(#SVGID_00000113316215060291453130000014652450557151127219_);" d="M475.9,37h-22.2c-0.4,0-0.8,0-1.2,0
	l-61.2,0.1c1.6,0.1,3.2,0.2,4.8,0.5c0.1,0,0.2,0,0.3,0c0.6,0.1,1.3,0.2,1.9,0.3c0.2,0,0.4,0.1,0.7,0.1c0.5,0.1,1,0.2,1.5,0.3
	c0.3,0.1,0.6,0.2,0.9,0.2c0.4,0.1,0.8,0.2,1.3,0.4c0.3,0.1,0.6,0.2,0.9,0.3c0.5,0.2,0.9,0.3,1.4,0.5c0.2,0.1,0.4,0.1,0.5,0.2
	c6.2,2.4,11.8,6.2,16.5,11c17.1,18,16.7,46.4-1.4,63.5L256,278.6l95.7,95.5L512,217V109c0.1-1.3,0.2-2.6,0.2-3.9V73.3
	C512.2,53.2,495.9,37,475.9,37z"/>
<path class="st5" d="M80.4,67c-5.9,16.8-1.4,35.4,11.5,47.7L256,278.6l164.4-164c18.1-17.1,18.5-45.5,1.4-63.5
	c-8-8.4-18.9-13.5-30.5-14l0,0c-23.6,0-46.4,8.7-64,24.6L256,125.8l-71.4-64.2C167,45.7,144.3,37,120.6,37l0,0
	C102.4,38,86.5,49.8,80.4,67z"/>
</svg>
