<?xml version="1.0" encoding="utf-8"?>
<!-- Generator: Adobe Illustrator 28.2.0, SVG Export Plug-In . SVG Version: 6.00 Build 0)  -->
<svg version="1.1" id="Layer_1" xmlns="http://www.w3.org/2000/svg" xmlns:xlink="http://www.w3.org/1999/xlink" x="0px" y="0px"
	 viewBox="0 0 512 512" style="enable-background:new 0 0 512 512;" xml:space="preserve">
<style type="text/css">
	.st0{fill:#FFFFFF;}
</style>
<path class="st0" d="M157.5,376.9l-88.4,90.5c-8.2,6.1-18.3,8.9-28.4,7.9C18.2,473,1.8,452.3,4,429.2V222.5L157.5,376.9z M508,222.6
	L354.5,376.9l88.2,90.4c18.4,13.7,44,9.6,57.5-9.2c6-8.4,8.7-18.7,7.7-29V222.6z M256,284.3L163.1,377c26.8,28.1,43.7,52.5,88,52.5
	c54.7,0,74.8-24.4,98-52.3L256,284.3z M120.8,41c-16.7,0.9-31.1,11.6-36.6,27.3c-5.3,15.2-1.2,32.3,10.5,43.5l0.1,0.1L256,272.9
	l161.6-161.3c7.9-7.4,12.4-17.5,12.7-28.3c0.3-11-3.7-21.5-11.4-29.5c-4.2-4.4-9.4-7.9-15-10.1l-0.5-0.2c-0.4-0.2-0.8-0.3-1.3-0.5
	c-0.3-0.1-0.5-0.2-0.8-0.3c-0.4-0.1-0.8-0.2-1.1-0.3c-0.3-0.1-0.5-0.1-0.8-0.2c-0.5-0.1-0.9-0.2-1.3-0.3l-0.6-0.1
	c-0.6-0.1-1.2-0.2-1.7-0.3l-0.2,0c-1.6-0.2-3-0.4-4.4-0.5l0,0c-23.6,0-46.3,4.7-63.8,20.6L256,125.8l-71.4-64.2
	C167,45.7,146.1,41,122.4,41L120.8,41z M89.1,117.6c-14-13.3-18.9-33.7-12.5-51.9C80.3,55.3,87.2,46.8,96,41l-36.6,0
	c-0.4,0-0.7,0-1.1,0H36.1C18.3,41,3.8,55.5,3.8,73.3V105c0,1.3,0.1,2.6,0.2,3.9l0,0.5v105.9l156.2,153.2l90-89.9l0,0l0,0L89.1,117.6
	z M351.7,368.5L508,215.3V108.8l0-0.2c0.1-1.2,0.2-2.4,0.2-3.5V73.3c0-17.8-14.5-32.3-32.3-32.3h-22.2c-0.3,0-0.5,0-0.8,0l-0.4,0
	L416,41.1c3.2,2.1,6.1,4.5,8.7,7.3c9.1,9.6,13.9,22.1,13.6,35.3c-0.3,12.9-5.7,25-15.1,33.9L261.7,278.6L351.7,368.5z"/>
</svg>
