<?xml version="1.0" encoding="utf-8"?>
<!-- Generator: Adobe Illustrator 28.2.0, SVG Export Plug-In . SVG Version: 6.00 Build 0)  -->
<svg version="1.1" id="Layer_1" xmlns="http://www.w3.org/2000/svg" xmlns:xlink="http://www.w3.org/1999/xlink" x="0px" y="0px"
	 viewBox="0 0 512 512" style="enable-background:new 0 0 512 512;" xml:space="preserve">
<style type="text/css">
	.st0{opacity:0.5;}
</style>
<path class="st0" d="M257.7,383.7c0.2,10.6,0.9,21.3,2.5,30.9c-1.6-9.7-2.3-20.5-2.5-31c3.3-44.8,4.3-89.7,2.9-134.5
	c-0.7-23.4,0.3-216.7-5.7-246.2c-0.4-1-0.8-1.9-1.3-2.9c-0.8,10.6-2.1,17.2-11.1,25.2c-18,16.1-94.7,78.5-101.1,213.7
	c-6,126.1,92.7,203.8,105.7,211.8c0,0,0,0,0.1,0C253.4,432.9,255.2,414.8,257.7,383.7z"/>
<path d="M366.8,203.7C339.9,84.7,283.6,53,269.3,30.6c-5.5-9-10.3-18.4-14.5-28c6.1,28.5,5.1,223,5.8,246.5
	c1.4,44.8,0.4,89.7-2.9,134.5c0.2,10.5,1,21.3,2.5,31c-1.6-9.6-2.4-20.3-2.5-30.9c-2.5,31.2-4.3,49.3-10.6,67.2c0,0,4.1,29.7,7,61.2
	h10.3c2.5-22.2,6.2-44.2,11.2-65.9c-1.7-0.9-3.3-2.1-4.7-3.6c1.4,1.5,3,2.7,4.8,3.5C323.2,413.3,387.8,326.5,366.8,203.7z"/>
</svg>
