<svg xmlns="http://www.w3.org/2000/svg" xml:space="preserve" viewBox="0 0 512 512"><path d="M195 97.5c-13.5 0-24.4-10.9-24.4-24.4V24.4C170.7 10.9 181.6 0 195 0c13.5 0 24.4 10.9 24.4 24.4v48.8c0 13.4-10.9 24.3-24.4 24.3m122-24.4V24.4C317 10.9 306 0 292.6 0c-13.5 0-24.4 10.9-24.4 24.4v48.8c0 13.5 10.9 24.4 24.4 24.4 13.4-.1 24.4-11 24.4-24.5m73.1 317c67.2 0 121.9-54.7 121.9-121.9s-54.7-121.9-121.9-121.9H48.8C21.9 146.3 0 168.2 0 195v195c0 67.3 54.7 122 121.9 122h146.3c67.2 0 121.9-54.7 121.9-121.9M341.3 195v195c0 40.3-32.8 73.1-73.1 73.1H121.9c-40.3 0-73.1-32.8-73.1-73.1V195zm48.8 0c40.3 0 73.1 32.8 73.1 73.1s-32.8 73.1-73.1 73.1zM121.9 73.1V24.4C121.9 10.9 111 0 97.5 0S73.1 10.9 73.1 24.4v48.8c0 13.5 10.9 24.4 24.4 24.4s24.4-11 24.4-24.5" style="fill:#fff"/></svg>