<svg xmlns="http://www.w3.org/2000/svg" xml:space="preserve" viewBox="0 0 512 512"><path d="M430.2 430.8V269.9c0-33.6-14-50.5-41.6-50.5-27.8 0-41.7 16.8-41.7 50.5v160.9H265V269.9c0-33.6-13.7-50.5-41-50.5-27.8 0-41.6 16.8-41.6 50.5v160.9h-81.8V260.4c0-35.1 12.2-61.6 36.5-79.6 21.4-16 50.5-24.2 87-24.2 37 0 64.3 9.5 81.8 28.5 15.2-19 42.6-28.5 82.6-28.5 36.5 0 65.5 8 86.9 24.2 24.4 18 36.5 44.6 36.5 79.6v170.4z" style="fill:#f98012"/><path d="m259.5 144.2 81.2-59.4-1-3.6C193.1 99.2 126.4 112 0 185.2l1.2 3.3 10.1.1c-.9 10.1-2.5 35.1-.4 72.8-14 40.6-.3 68.2 12.5 98.2 2.1-31.2 1.8-65.4-7.7-99.4-1.9-37.3-.3-61.9.6-71.4l83.8.7s-.6 25.3 2.5 49.2c74.9 26.3 150.2-.1 190.1-64.9-11.4-12.6-33.2-29.6-33.2-29.6" style="fill:#333"/></svg>