<svg xmlns="http://www.w3.org/2000/svg" xml:space="preserve" viewBox="0 0 512 512"><path d="M192.3 512v-47.6c-19.8-1.1-34.6-10-43.7-27.6-7.8 5.9-15.4 12.1-23.4 17.7-15.3 10.6-31.8 13.2-49 5.4-23.7-10.8-36.3-39.8-21.9-66.3 4.9-9.1 11.6-17.2 17.4-25.7.6-.9 1.4-1.8 2.1-2.7-6.1-8.6-9.4-18.1-9.4-28.7 0-10.3 3-19.5 8.8-27.9 9.6-13.6 19.2-27.1 28.8-40.7.6-.9.9-2.8.4-3.7-8.6-15.9-8.7-31.9.7-47.4 6.3-10.4 13.6-20.1 20.8-29.9 4.4-5.9 7.5-11 5.2-19.4-3.6-13.7 1.9-26.1 9.9-37.2 22.9-32.1 45.8-64.1 68.7-96.1 4.5-6.3 8.6-12.8 13.9-18.4 21.5-22.9 55.1-20.4 74 5.7C322 58 348.2 95 374.4 131.9c9.3 13.1 12.2 27.5 7.4 43.1-.3 1 .2 2.6.9 3.5 7.8 11 15.7 22 23.6 32.9 6.6 9.1 10.2 19.2 9.9 30.6-.3 8.5-2.6 16.4-7.3 23.8 9.6 13.5 19.1 26.9 28.7 40.3 13.8 19.4 14.1 39 1.1 58.9 5.3 7.6 10.9 15.1 16 22.9 6.2 9.4 9.7 19.5 9.4 31.1-.7 20.7-18 40.7-38.5 44.3-14.2 2.5-27-.8-38.6-9.1-7.9-5.6-15.5-11.7-23.2-17.5-9 17.3-23.3 26.5-43.1 27.5v47.7c-43 .1-85.5.1-128.4.1m31.5-107.1v74.9h64.3v-4.2c0-23.6.1-47.1.1-70.7 6.7 7.3 13.3 14.7 20.1 22 5 5.4 11.1 6.8 17.3 4.2 6.4-2.7 10.2-8.3 10.2-15.5v-41.3c2 1.5 3.3 2.4 4.6 3.5 21.8 16.9 43.6 33.8 65.3 50.7 3.6 2.8 7.5 4.5 12.1 3.7 12.9-2.1 18.2-15 10.6-25.8-11.4-16.1-23-32.1-34.4-48.2-2.8-4-5.3-8.1-8-12.2 1.6 1.1 3.3 2.2 4.9 3.4 4.1 2.8 8.6 3.5 13.4 2.3 9.9-2.4 15.7-14.6 8.1-25.2-16.2-22.4-32.1-45-48.2-67.6-.5-.7-.9-1.5-1.3-2.2 3.8-.6 7.2-.9 10.5-1.9 5.4-1.5 9-4.9 10.1-10.8 1-5.1-.5-9.4-3.4-13.5-7.3-10.2-14.6-20.3-21.8-30.5-5.8-8.1-11.6-16.3-17.4-24.4 1.9-1.2 3.8-2.1 5.3-3.4 6.8-5.8 7.4-14 1.4-22.4-26-36.5-52.1-73-78.2-109.5-7.5-10.5-19.5-10.4-27 0-19.9 27.9-39.9 55.8-59.8 83.6-6.2 8.6-12.3 17.3-18.5 25.9-5 7.1-5.6 13.6-1.2 19.5 1.9 2.6 4.9 4.4 7.5 6.7-.3.4-.8 1.3-1.4 2.1-8.6 12-17.2 24-25.7 35.9-4.3 6-8.7 11.9-12.7 18.1-6.5 10-1.5 21.2 10.2 23.4 2.6.5 5.2.7 8 1-.6.9-1 1.7-1.5 2.4-8.3 11.6-16.5 23.3-24.8 34.9-7.7 10.9-15.5 21.8-23.2 32.8-4.6 6.5-4.6 14.2-.2 19.6 5.7 7 15.1 8 22.8 2.4 1.4-1 2.9-1.8 4.4-2.6-2.8 4-5.6 8.1-8.4 12-11.6 16.3-23.3 32.7-35 49-3.1 4.4-3.8 9.2-2.3 14.3 2.8 9.4 15.1 15.3 25.6 7.1 19.5-15.2 39.1-30.4 58.6-45.5 3.5-2.7 7.1-5.4 11.1-8.5v40.7c0 7.8 3.9 13.8 10.5 16.3 6.4 2.4 13.3 0 18.5-5.8 6.4-7.1 12.7-13.8 18.9-20.7" style="fill:#030403"/><path d="M126.6 345.9c-1.5.9-3 1.6-4.4 2.6-7.7 5.5-17.1 4.6-22.8-2.4-4.4-5.4-4.4-13 .2-19.6 7.7-11 15.5-21.9 23.2-32.8 8.3-11.6 16.5-23.3 24.8-34.9.5-.7.9-1.5 1.5-2.4-2.8-.4-5.5-.5-8-1-11.7-2.2-16.6-13.4-10.2-23.4 4-6.2 8.4-12.1 12.7-18.1 8.6-12 17.1-24 25.7-35.9.6-.8 1.1-1.7 1.4-2.1-2.7-2.3-5.6-4.1-7.5-6.7-4.5-5.9-3.9-12.4 1.2-19.5 6.2-8.6 12.3-17.3 18.5-25.9 19.9-27.9 39.8-55.8 59.8-83.6 7.5-10.4 19.5-10.5 27 0 26.1 36.5 52.2 73 78.2 109.5 6 8.4 5.4 16.6-1.4 22.4-1.5 1.3-3.3 2.2-5.3 3.4 5.8 8.1 11.6 16.3 17.4 24.4 7.3 10.2 14.5 20.3 21.8 30.5 2.9 4.1 4.4 8.3 3.4 13.5-1.2 5.9-4.7 9.3-10.1 10.8-3.3.9-6.8 1.2-10.5 1.9.4.6.8 1.5 1.3 2.2 16 22.5 32 45.2 48.2 67.6 7.6 10.6 1.8 22.7-8.1 25.2-4.8 1.2-9.3.6-13.4-2.3-1.6-1.1-3.3-2.2-4.9-3.4-.2-.2-.4-.4-.7-.6-1.5-1.2-3.1-2.5-4.6-3.7-8.8-6.8-17.5-13.7-26.3-20.5-11.7-9.1-23.3-18.2-35-27.3-7.3-5.6-14.6-11.2-22.2-17.1-2.7 6.6-5.2 12.9-7.7 19.1-6.3 15.6-12.4 31.3-18.9 46.8-2.9 7-8.8 9.9-16.2 9.3-6.6-.5-11.2-4.2-13.6-10.3-5.5-13.7-11-27.5-16.5-41.3-3.1-7.7-6.2-15.5-9.5-23.6-2.8 2.1-5.3 3.8-7.7 5.7a9743 9743 0 0 0-50.5 39.4c-10 7.8-20 15.5-30 23.3-.3.3-.3.6-.3.8" style="fill:#1fa149"/><path d="M126.6 345.1c10-7.8 20-15.5 30-23.3 16.9-13.1 33.7-26.3 50.5-39.4 2.4-1.9 4.9-3.7 7.7-5.7 3.3 8.1 6.4 15.9 9.5 23.6 5.5 13.8 10.9 27.5 16.5 41.3 2.5 6.1 7 9.8 13.6 10.3 7.4.5 13.3-2.3 16.2-9.3 6.5-15.5 12.6-31.2 18.9-46.8 2.5-6.3 5.1-12.5 7.7-19.1 7.6 5.9 14.9 11.5 22.2 17.1 11.7 9.1 23.3 18.2 35 27.3 8.8 6.8 17.5 13.7 26.3 20.5 1.6 1.2 3.1 2.4 4.6 3.7.2.2.4.4.7.6 2.6 4.1 5.2 8.2 8 12.2 11.4 16.1 23 32.1 34.4 48.2 7.7 10.8 2.4 23.7-10.6 25.8-4.6.8-8.5-.9-12.1-3.7-21.8-16.9-43.5-33.8-65.3-50.7-1.3-1-2.6-2-4.6-3.5v41.3c0 7.2-3.7 12.8-10.2 15.5-6.1 2.5-12.3 1.1-17.3-4.2-6.8-7.3-13.4-14.7-20.1-22-10.6-12-21.3-24-32.2-36.3-10.8 12.2-21.5 24.3-32.2 36.4-6.2 6.8-12.5 13.6-18.6 20.6-5.1 5.9-12.1 8.2-18.5 5.8-6.7-2.5-10.5-8.4-10.5-16.3v-40.7c-4 3.1-7.6 5.8-11.1 8.5-19.5 15.2-39.1 30.3-58.6 45.5-10.5 8.2-22.8 2.3-25.6-7.1-1.5-5.1-.8-9.9 2.3-14.3 11.7-16.3 23.3-32.7 35-49l8.4-12h-.1c.1-.2.1-.5.1-.8" style="fill:#1a7d3f"/><path d="M223.8 404.9c10.7-12.1 21.4-24.1 32.2-36.4 10.9 12.3 21.6 24.3 32.2 36.3 0 23.6-.1 47.1-.1 70.7v4.2h-64.3z" style="fill:#c95228"/></svg>