<?xml version="1.0" encoding="utf-8"?>
<!-- Generator: Adobe Illustrator 28.2.0, SVG Export Plug-In . SVG Version: 6.00 Build 0)  -->
<svg version="1.1"
	 id="svg4136" xmlns:cc="http://creativecommons.org/ns#" xmlns:svg="http://www.w3.org/2000/svg" xmlns:sodipodi="http://sodipodi.sourceforge.net/DTD/sodipodi-0.dtd" xmlns:rdf="http://www.w3.org/1999/02/22-rdf-syntax-ns#" xmlns:inkscape="http://www.inkscape.org/namespaces/inkscape" xmlns:dc="http://purl.org/dc/elements/1.1/"
	 xmlns="http://www.w3.org/2000/svg" xmlns:xlink="http://www.w3.org/1999/xlink" x="0px" y="0px" viewBox="0 0 512 512"
	 style="enable-background:new 0 0 512 512;" xml:space="preserve">
<style type="text/css">
	.st0{fill-rule:evenodd;clip-rule:evenodd;}
</style>
<path class="st0" d="M256.1,451.2l7.1-97.5l5.8-79.1c12-5,20.4-16.9,20.4-30.6c0-18.4-14.9-33.2-33.2-33.2
	c-18.4,0-33.2,14.9-33.2,33.2c0,13.8,8.4,25.6,20.4,30.6l5.8,79.1L256.1,451.2L256.1,451.2z M28.8,243.7
	c0,56.3,20.6,108.9,56.2,149.6l-21.5,19.2C23.3,366.8-0.1,307.3-0.1,243.7c0-71.6,29.5-136.4,76.9-182.9l1.1,1l63.6,57
	c-59.7,54.7-72.1,143.9-30.5,212.5l22-19.6c-31.7-57.2-19.6-129.6,30.3-173.5l21.7,19.5l19.4,17.4l20.1,18
	c-7.5,4.7-13.9,11-18.6,18.5c-5.9,9.2-9.2,20.2-9.2,32c0,26.2,17,48.5,40.5,56.5l2,27.6c-39.2-7.9-68.8-42.6-68.8-84.1
	c0-18.5,5.9-35.6,15.9-49.6l-19.2-17.2l-0.1-0.1c-31.5,41.9-29.6,100,4.4,139.6l-64.5,57.8c-63.5-72.8-65.3-180.6-4.5-255.4
	L80.8,99.3c-29.7,36-48.5,81.4-51.4,131l-0.1,0.1l0.1,0.1C28.9,235,28.8,239.3,28.8,243.7L28.8,243.7z M275.1,300
	c23.5-8,40.5-30.2,40.5-56.5c0-11.8-3.4-22.8-9.3-32c-4.7-7.5-11.1-13.9-18.6-18.5l20.1-18l19.4-17.4l0,0l21.8-19.5
	c49.9,43.9,61.9,116.2,30.2,173.5l22,19.6c41.6-68.6,29.3-157.8-30.5-212.5l63.6-57l1.1-1c47.5,46.5,76.9,111.3,76.9,182.9
	c0,63.6-23.4,123.1-63.6,168.9l-21.5-19.2c35.6-40.8,56.2-93.4,56.2-149.6c0-4.4-0.1-8.8-0.4-13l0.1-0.1l-0.1-0.1
	c-2.9-49.6-21.6-95-51.4-131l-21.5,19.2c60.7,74.7,59,182.6-4.5,255.4l-64.5-57.7c33.9-39.6,35.9-97.8,4.4-139.6l-0.1,0.1
	l-19.5,17.1c10,14,15.9,31.1,15.9,49.6c0,41.5-29.5,76.2-68.8,84.1L275.1,300L275.1,300z"/>
</svg>
