<svg xmlns="http://www.w3.org/2000/svg" xml:space="preserve" viewBox="0 0 512 512"><linearGradient id="motioneye_svg__a" x1="256.076" x2="256.076" y1="-96.007" y2="626.727" gradientUnits="userSpaceOnUse"><stop offset="0" style="stop-color:#4aa3e0"/><stop offset="1" style="stop-color:#3096db"/></linearGradient><path d="M65.5 85.5C24.8 130.8.1 190.1.1 256c0 141.4 114.6 256 256 256s256-114.6 256-256c0-65.6-24.7-125.1-65.2-170.4-19.4 7.1-38.7 15.4-57.9 26.2 37.8 11.1 64 45.8 64 85.2-.1 48.9-39.8 88.5-88.6 88.6-41.6 0-76.4-28.7-86.2-67h-44.4c-9.6 38.5-44.6 67-86.2 67-48.9 0-89-39.9-89-88.6 0-40.7 28.1-75.2 65.8-85.6-19-10.5-38.6-18.5-58.9-25.9M256 246.2c6.1 22.7 12.5 45.1 39.4 59.1l-39.4 59-39.4-59.1c23.4-16.6 34.3-36.9 39.4-59m-108.3-78.8c-16.3 0-29.5 13.3-29.5 29.5s13.3 29.5 29.5 29.5 29.5-13.3 29.5-29.5-13.2-29.5-29.5-29.5m216.6 0c-16.3 0-29.5 13.3-29.5 29.5s13.3 29.5 29.5 29.5c16.3 0 29.5-13.3 29.5-29.5s-13.2-29.5-29.5-29.5M256 0c-51.9 0-100 16.6-140.2 43.1 43.6 4.6 86.6 15.9 135.4 40 49.4-25.1 100-35.6 145.5-40.9C356.2 15.5 308 0 256 0m167.4 55.1c-51.3.4-121.4 25.5-172.3 48.9-53.6-19.4-108.5-50.1-170.5-48.6-4.1.1-8.1.2-12.2.6l-48.6 4 46.1 15.4c63.4 20.6 119 33.8 168 118.9h44.3C327 109.8 385.5 95.6 445.9 75.4l45.5-14.8L444 56c-6.9-.6-13.8-1-20.6-.9" style="fill:url(#motioneye_svg__a)"/></svg>