<?xml version="1.0" encoding="utf-8"?>
<!-- Generator: Adobe Illustrator 28.2.0, SVG Export Plug-In . SVG Version: 6.00 Build 0)  -->
<svg version="1.1" id="Layer_1" xmlns="http://www.w3.org/2000/svg" xmlns:xlink="http://www.w3.org/1999/xlink" x="0px" y="0px"
	 viewBox="0 0 512 512" style="enable-background:new 0 0 512 512;" xml:space="preserve">
<style type="text/css">
	.st0{fill:#FFFFFF;}
</style>
<path class="st0" d="M65.5,85.5C24.8,130.9,0,190.1,0,256c0,141.4,114.6,256,256,256s256-114.6,256-256
	c0-65.6-24.7-125.1-65.2-170.5c-19.4,7.1-38.8,15.4-57.9,26.1c37.9,11.1,64,45.7,64,85.2c-0.1,49-39.8,88.5-88.6,88.6
	c-41.6,0-76.4-28.8-86.1-67h-44.4c-9.6,38.5-44.6,67-86.1,67c-48.9,0-88.9-39.9-88.9-88.6c0-40.8,28.1-75.2,65.9-85.6
	C105.4,101,85.8,92.9,65.5,85.5L65.5,85.5z M256,246.2c6.1,22.6,12.5,45.1,39.4,59.1L256,364.5l-39.5-59.2
	C240,288.6,250.9,268.2,256,246.2L256,246.2z M147.8,167.4c-16.2,0-29.5,13.2-29.5,29.5s13.2,29.5,29.5,29.5s29.5-13.2,29.5-29.5
	S164,167.4,147.8,167.4z M364.4,167.4c-16.2,0-29.5,13.2-29.5,29.5s13.2,29.5,29.5,29.5s29.5-13.2,29.5-29.5
	S380.6,167.4,364.4,167.4z M256,0c-51.9,0-100,16.6-140.2,43.1c43.6,4.6,86.6,15.9,135.4,40c49.4-25.1,100-35.6,145.5-40.9
	C356.2,15.5,308,0,256,0z M423.4,55.1C372.1,55.5,302,80.6,251.1,104C197.5,84.6,142.6,53.9,80.6,55.4c-4.1,0.1-8.1,0.2-12.2,0.6
	l-48.6,4l46.1,15.4c63.4,20.6,119,33.8,168,118.9h44.3C327,109.8,385.5,95.6,445.9,75.4l45.5-14.8L444,56
	C437.1,55.4,430.2,55,423.4,55.1L423.4,55.1z"/>
</svg>
