<svg xmlns="http://www.w3.org/2000/svg" xml:space="preserve" viewBox="0 0 512 512"><path d="M511.9 251.7v-11.4c0-10.4-1.2-20-3.3-30.2-.5-2.6-1-5.2-1.4-7.8-1-6.4-2.4-12.5-4.4-18.7l-1.8-5.4c-1.8-5.6-3.6-11.1-5.8-16.5l-2.4-5.4c-2.7-6.4-5.3-12.8-8.7-18.9-1.3-2.3-2.6-4.5-3.9-6.8-2.4-4.4-4.8-8.8-7.6-12.9-1-1.5-2-2.9-3-4.4-.6-.9-1.1-1.7-1.6-2.6s-1.1-1.7-1.6-2.5c-1.5-2.3-1.5-2.3-2.7-3.9h-2c-.3-1.4-.7-2.7-1-4h-2c0-2 0-2-1.3-3.4-1.7-1.6-1.7-1.6-3.1-3.5-2.2-3.1-4.4-5.9-7-8.6-2.1-2.1-4.1-4.2-6-6.5-2-2.4-4-4.4-6.4-6.4-2-1.6-3.9-3.3-5.8-5.1C383 23.5 321.8-.7 258.6 0c-2.5 0-5 0-7.5.1h-10.9C185.8.5 129.6 25.3 89 60.8c-1 .8-1.9 1.7-2.8 2.5-3.8 3.2-7.3 6.2-10.5 10-2.3 2.9-2.3 2.9-4.4 4.6-3.5 2.9-6.6 5.7-9.3 9.5-.9 1.3-1.9 2.6-2.8 3.9-2.5 2.4-4.7 4-5.8 7.3-.1.6-.1 1.1-.2 1.7h-2l-1 4h-2c-.5.7-1 1.4-1.5 2-.6.9-1.1 1.9-1.7 2.8-.6 1-1.3 2-1.9 3-1.3 2.1-2.5 4.1-3.8 6.1-2.4 3.6-4.7 7.2-6.6 11.1-1.3 2.8-1.3 2.8-2.7 4.9-4.5 7.1-7.7 14.4-11 22.1-.3.6-.5 1.2-.8 1.8-2.6 6.2-4.9 12.4-7 18.8-.3 1.1-.7 2.1-1 3.1-1.9 5.3-3.4 10.5-4.5 16-.2.8-.3 1.6-.5 2.4-.3 1.6-.6 3.2-.9 4.7-.4 1.9-.7 3.9-1.1 5.8C.7 221.6 0 233.6 0 246.4c0 3.4.1 6.9.1 10.3 0 13.4-.4 27.1 1.9 40.3.2 1.1.5 2.2.7 3.3.4 1.9.4 1.9.8 3.7.4 1.9.8 3.9 1.2 5.8 1.1 5.8 2 11.7 4.1 17.3 1.5 3.4 1.5 3.4 2.2 6 2.2 7.5 4.7 14.8 7.6 22 .6 1.2 1.1 2.4 1.6 3.6 4.4 9.9 9 19.6 15 28.6 2.6 3.8 4.9 7.7 7 11.7.3.6.6 1.1.9 1.6h2c0 2.6 0 2.6 3 7h2c.3 1.4.7 2.7 1 4h2c0 2 0 2 1.3 3.4 1.7 1.6 1.7 1.6 3.1 3.5 2.2 3.1 4.4 5.9 7 8.6 2.1 2.1 4.1 4.2 6 6.5 2 2.4 4 4.4 6.4 6.4 2 1.6 3.9 3.3 5.8 5.1 46 43.3 107.2 67.5 170.4 66.8 2.5 0 5 0 7.5-.1h10.9c48.1-.3 98.1-20 136.3-48.9.6-.4 1.1-.9 1.7-1.3 7.7-5.8 15-11.7 21.8-18.7 3-3.1 5.9-6.2 9.2-9 3.5-2.9 6.5-5.7 9.1-9.4.9-1.3 1.9-2.6 2.8-3.9 2.5-2.4 4.7-4 5.8-7.3.1-.6.1-1.1.2-1.7h2c.3-1.4.7-2.7 1-4h2c1-2 1-2 2.1-4.6l.9-2.4h2c1.3-2.9 2.7-5.5 4.4-8.2 2.2-3.2 4.3-6.3 6.1-9.7 1.4-2.9 1.4-2.9 2.8-5.1 4.5-7.1 7.7-14.4 11-22.1.3-.6.5-1.2.8-1.8 2.6-6.2 4.9-12.4 7-18.8.3-1.1.7-2.1 1-3.1 1.9-5.3 3.4-10.5 4.5-16 .2-.8.3-1.6.5-2.4.3-1.6.6-3.2.9-4.7.3-1.9.7-3.9 1.1-5.8 2.8-13.2 3.4-26 3.4-39.6zm-109.8 156c-5.8 5.3-11.7 7.9-19.6 8.2-7.3-.3-12.3-3.2-17.8-7.8-7.4-9.3-6.4-19.6-6.3-30.9v-178c0-4.8-.8-8-3.4-12.1-4-3-7.2-3.3-12.2-2.7-6.3 1.5-12 4.7-17.8 7.5-2.8 1.4-5.7 2.7-8.6 4.1-.7.3-1.4.7-2.2 1-7.7 3.7-15.5 7.1-23.3 10.4-11.3 4.6-11.3 4.6-18.9 13.6-.4 3.4-.4 3.4-.4 7.2V271c0 13.4-.1 26.7-.1 40.1 0 12.3 0 24.5-.1 36.8v43.8c-.4 3.1-.4 3.1-1.7 5-2.4 1.6-4.2 1.5-7.1 1.5h-15.9c-2.5-.4-2.5-.4-4.1-1.5-2.1-2.9-1.7-5.3-1.7-8.8V224.6c-.6-4.1-1.9-6.2-4.5-9.4-2.3-1.5-4.4-2.6-6.9-3.8-.7-.3-1.4-.7-2.1-1-2.3-1.1-4.6-2.2-7-3.2l-5.1-2.4c-4.5-2.1-9-4.1-13.5-6.1-2.8-1.3-5.6-2.5-8.4-3.8l-5.4-2.4c-.8-.4-1.6-.7-2.5-1.1-4.1-1.9-8.3-3.7-12.4-5.4l-2.4-1c-3.9-1.3-6.3-.9-10.3.3-2.6 2.2-4.5 3.9-6 7-.1 2.7-.1 5.3-.1 7.9v61c0 15.9-.1 31.8-.1 47.7 0 10.7 0 21.4-.1 32.2V380c.1 20.5.1 20.5-7.3 28.9-4.7 4.7-10.4 6.9-17 7.3-7.2-.3-12.8-2.5-18.3-7.2-6.7-7.8-7.3-16.4-7.3-26.3V124.6c.1-9.1 2.1-15.7 8.4-22.5 9.1-8.3 20.3-7.6 30.7-1.8 5 3.2 9.5 6.9 14 10.7 4.4 3.6 8.9 7 13.5 10.3 1.6 1.2 3.2 2.4 4.8 3.5 1.2.9 1.2.9 2.4 1.7 3.6 2.6 7.2 5.3 10.7 8 .7.5 1.3 1 2 1.5 1.3 1 2.5 1.9 3.8 2.9 2.6 1.9 5.2 3.9 7.8 5.8l9.6 7.2c8.1 6.1 16.3 12.2 24.5 18.2 3.6 2.6 7.1 5.2 10.5 8 .8.7.8.7 1.7 1.3 1.4 1.1 2.8 2.3 4.2 3.4 2.3 1.5 2.3 1.5 4.7.9 3.9-2.3 7.3-5.1 10.9-7.9 6.2-4.9 12.4-9.6 18.8-14.2 6.2-4.4 12.2-9 18.2-13.7 5.1-4 10.2-7.9 15.5-11.7 7.8-5.5 15.4-11.3 22.9-17.1 4.7-3.6 9.4-7.1 14.1-10.7.6-.5 1.2-.9 1.9-1.4 1.7-1.3 3.5-2.6 5.2-3.9l1.8-1.4c7.2-5.3 13.2-6.7 22.1-5.6 6.9 2.2 12.1 5.9 16 12 3.1 6.7 3.4 13.2 3.4 20.5v256.6c-.1 8.2-2 15.3-6.2 22.5"/></svg>