<?xml version="1.0" encoding="utf-8"?>
<!-- Generator: Adobe Illustrator 28.2.0, SVG Export Plug-In . SVG Version: 6.00 Build 0)  -->
<svg version="1.1" id="Layer_1" xmlns="http://www.w3.org/2000/svg" xmlns:xlink="http://www.w3.org/1999/xlink" x="0px" y="0px"
	 viewBox="0 0 512 512" style="enable-background:new 0 0 512 512;" xml:space="preserve">
<style type="text/css">
	.st0{fill:#212529;}
	.st1{fill:#FDFDFD;}
</style>
<g>
	<path class="st0" d="M240.2,0.1c1.2,0,2.3,0,3.5,0c2.5,0,5,0,7.4,0c2.5,0,5,0,7.5-0.1C321.8-0.7,383,23.5,429,66.8
		c1.9,1.8,3.8,3.4,5.8,5.1c2.4,2,4.4,4,6.4,6.4c1.9,2.3,3.8,4.4,6,6.5c2.6,2.7,4.8,5.6,7,8.6c1.4,1.9,1.4,1.9,3.1,3.5
		c1.3,1.4,1.3,1.4,1.3,3.4c0.7,0,1.3,0,2,0c0.3,1.3,0.7,2.6,1,4c0.7,0,1.3,0,2,0c1.3,1.6,1.3,1.6,2.7,3.9c0.5,0.8,1.1,1.7,1.6,2.5
		c0.5,0.8,1.1,1.7,1.6,2.6c1,1.5,2,2.9,3,4.4c2.8,4.2,5.2,8.5,7.6,12.9c1.2,2.3,2.5,4.6,3.9,6.8c3.4,6.1,6,12.5,8.7,18.9
		c0.8,1.8,1.6,3.6,2.4,5.4c2.3,5.4,4,10.9,5.8,16.5c0.6,1.8,1.2,3.6,1.8,5.4c2,6.2,3.5,12.3,4.4,18.7c0.4,2.6,0.9,5.2,1.4,7.8
		c2.1,10.2,3.3,19.8,3.3,30.2c0,1.8,0,1.8,0,3.7c0,2.6,0,5.2,0,7.7c0,3.9,0,7.8,0,11.7c0,13.5-0.5,26.3-3.4,39.6
		c-0.4,1.9-0.7,3.9-1.1,5.8c-0.3,1.6-0.6,3.2-0.9,4.7c-0.2,0.8-0.3,1.6-0.5,2.4c-1.1,5.5-2.7,10.7-4.5,16c-0.3,1-0.7,2.1-1,3.1
		c-2.1,6.4-4.4,12.6-7,18.8c-0.3,0.6-0.5,1.2-0.8,1.8c-3.2,7.7-6.5,15.1-11,22.1c-1.4,2.1-1.4,2.1-2.8,5.1c-1.8,3.4-3.9,6.5-6.1,9.7
		c-1.7,2.6-3.1,5.3-4.4,8.2c-0.7,0-1.3,0-2,0c-0.3,0.8-0.6,1.6-0.9,2.4c-1.1,2.6-1.1,2.6-2.1,4.6c-0.7,0-1.3,0-2,0
		c-0.3,1.3-0.7,2.6-1,4c-0.7,0-1.3,0-2,0c-0.1,0.6-0.1,1.1-0.2,1.7c-1.1,3.3-3.3,4.9-5.8,7.3c-1,1.3-1.9,2.6-2.8,3.9
		c-2.7,3.7-5.7,6.5-9.1,9.4c-3.3,2.8-6.2,5.9-9.2,9c-6.7,7-14,12.9-21.8,18.7c-0.6,0.4-1.1,0.8-1.7,1.3
		c-38.2,28.9-88.2,48.6-136.3,48.9c-1.2,0-2.3,0-3.5,0c-2.5,0-5,0-7.4,0c-2.5,0-5,0-7.5,0.1c-63.2,0.8-124.4-23.4-170.4-66.8
		c-1.9-1.8-3.8-3.4-5.8-5.1c-2.4-2-4.4-4-6.4-6.4c-1.9-2.3-3.8-4.4-6-6.5c-2.6-2.7-4.8-5.6-7-8.6c-1.4-1.9-1.4-1.9-3.1-3.5
		c-1.3-1.4-1.3-1.4-1.3-3.4c-0.7,0-1.3,0-2,0c-0.3-1.3-0.7-2.6-1-4c-0.7,0-1.3,0-2,0c-3-4.4-3-4.4-3-7c-0.7,0-1.3,0-2,0
		c-0.3-0.5-0.6-1.1-0.9-1.6c-2.2-4-4.5-7.9-7-11.7c-6.1-9-10.6-18.7-15-28.6c-0.5-1.2-1.1-2.4-1.6-3.6c-2.9-7.2-5.5-14.5-7.6-22
		c-0.8-2.6-0.8-2.6-2.2-6c-2.1-5.6-3-11.5-4.1-17.3c-0.4-1.9-0.8-3.9-1.2-5.8c-0.4-1.9-0.4-1.9-0.8-3.7c-0.2-1.1-0.5-2.2-0.7-3.3
		c-2.3-13.2-1.9-27-1.9-40.3c0-3.4,0-6.9-0.1-10.3c-0.1-12.8,0.7-24.8,3.3-37.3c0.4-1.9,0.7-3.9,1.1-5.8c0.3-1.6,0.6-3.2,0.9-4.7
		c0.2-0.8,0.3-1.6,0.5-2.4c1.1-5.5,2.7-10.7,4.5-16c0.3-1,0.7-2.1,1-3.1c2.1-6.4,4.4-12.6,7-18.8c0.3-0.6,0.5-1.2,0.8-1.8
		c3.2-7.7,6.5-15.1,11-22.1c1.4-2.1,1.4-2.1,2.7-4.9c2-3.9,4.3-7.4,6.6-11.1c1.3-2,2.6-4.1,3.8-6.1c0.6-1,1.2-2,1.9-3
		c0.6-0.9,1.1-1.8,1.7-2.8c0.5-0.7,1-1.3,1.5-2c0.7,0,1.3,0,2,0c0.5-2,0.5-2,1-4c0.7,0,1.3,0,2,0c0.1-0.6,0.1-1.1,0.2-1.7
		c1.1-3.3,3.3-4.9,5.8-7.3c1-1.3,1.9-2.6,2.8-3.9c2.7-3.7,5.8-6.5,9.3-9.5c2.1-1.8,2.1-1.8,4.4-4.6c3.2-3.8,6.7-6.8,10.5-10
		c0.9-0.8,1.9-1.6,2.8-2.5C129.6,25.3,185.8,0.5,240.2,0.1z"/>
	<path class="st1" d="M143,100.1c5,3.2,9.5,6.9,14,10.7c4.4,3.6,8.9,7,13.5,10.3c1.6,1.2,3.2,2.4,4.8,3.5c1.2,0.9,1.2,0.9,2.4,1.7
		c3.6,2.6,7.2,5.3,10.7,8c0.7,0.5,1.3,1,2,1.5c1.3,1,2.5,1.9,3.8,2.9c2.6,1.9,5.2,3.9,7.8,5.8c3.2,2.4,6.4,4.8,9.6,7.2
		c8.1,6.1,16.3,12.2,24.5,18.2c3.6,2.6,7.1,5.2,10.5,8c0.8,0.7,0.8,0.7,1.7,1.3c1.4,1.1,2.8,2.3,4.2,3.4c2.3,1.5,2.3,1.5,4.7,0.9
		c3.9-2.3,7.3-5.1,10.9-7.9c6.2-4.9,12.4-9.6,18.8-14.2c6.2-4.4,12.2-9,18.2-13.7c5.1-4,10.2-7.9,15.5-11.7
		c7.8-5.5,15.4-11.3,22.9-17.1c4.7-3.6,9.4-7.1,14.1-10.7c0.6-0.5,1.2-0.9,1.9-1.4c1.7-1.3,3.5-2.6,5.2-3.9c0.9-0.7,0.9-0.7,1.8-1.4
		c7.2-5.3,13.2-6.7,22.1-5.6c6.9,2.2,12.1,5.9,16,12c3.1,6.7,3.4,13.2,3.4,20.5c0,1.7,0,1.7,0,3.4c0,3.8,0,7.5,0,11.3
		c0,2.7,0,5.4,0,8.1c0,6.6,0,13.2,0,19.8c0,5.4,0,10.7,0,16.1c0,0.8,0,1.5,0,2.3c0,1.6,0,3.1,0,4.7c0,14.5,0,29.1,0,43.6
		c0,13.3,0,26.6,0,39.8c0,13.7,0,27.3,0,41c0,7.7,0,15.3,0,23c0,6.5,0,13,0,19.6c0,3.3,0,6.6,0,10c0,3.6,0,7.2,0,10.8
		c0,1,0,2.1,0,3.1c-0.1,8.2-2,15.3-6.2,22.5c-5.8,5.3-11.7,7.9-19.6,8.2c-7.3-0.3-12.3-3.2-17.8-7.8c-7.4-9.3-6.4-19.6-6.3-30.9
		c0-2,0-4,0-6c0-4.3,0-8.6,0-12.9c0-6.8,0-13.6,0-20.4c0-13.2,0-26.3,0-39.5c0-16.8,0-33.6,0-50.3c0-6.7,0-13.5,0-20.2
		c0-4.2,0-8.4,0-12.6c0-1.9,0-3.9,0-5.8c0-2.7,0-5.3,0-8c0-0.8,0-1.5,0-2.3c0-4.8-0.8-8-3.4-12.1c-4-3-7.2-3.3-12.2-2.7
		c-6.3,1.5-12,4.7-17.8,7.5c-2.8,1.4-5.7,2.7-8.6,4.1c-0.7,0.3-1.4,0.7-2.2,1c-7.7,3.7-15.5,7.1-23.3,10.4
		c-11.3,4.6-11.3,4.6-18.9,13.6c-0.4,3.4-0.4,3.4-0.4,7.2c0,1.1,0,1.1,0,2.2c0,2.4,0,4.8,0,7.1c0,1.7,0,3.4,0,5.1c0,3.7,0,7.3,0,11
		c0,5.8,0,11.6,0,17.4c0,13.4-0.1,26.7-0.1,40.1c0,12.3,0,24.5-0.1,36.8c0,5.8,0,11.6,0,17.3c0,3.6,0,7.2,0,10.8c0,1.7,0,3.3,0,5
		c0,2.3,0,4.5,0,6.8c0,1.9,0,1.9,0,3.9c-0.4,3.1-0.4,3.1-1.7,5c-2.4,1.6-4.2,1.5-7.1,1.5c-1.1,0-2.1,0-3.2,0c-1.1,0-2.2,0-3.3,0
		c-1.7,0-1.7,0-3.3,0c-1.6,0-1.6,0-3.2,0c-1,0-1.9,0-2.9,0c-2.5-0.4-2.5-0.4-4.1-1.5c-2.1-2.9-1.7-5.3-1.7-8.8c0-0.7,0-1.4,0-2.1
		c0-2.4,0-4.8,0-7.1c0-1.7,0-3.4,0-5.1c0-3.7,0-7.3,0-11c0-5.8,0-11.6,0-17.4c0-14.4,0-28.8,0-43.2c0-11.2,0-22.4,0-33.6
		c0-5.8,0-11.5,0-17.3c0-3.6,0-7.2,0-10.8c0-1.7,0-3.3,0-5c0-2.3,0-4.5,0-6.8c0-1.3,0-2.5,0-3.9c-0.6-4.1-1.9-6.2-4.5-9.4
		c-2.3-1.5-4.4-2.6-6.9-3.8c-0.7-0.3-1.4-0.7-2.1-1c-2.3-1.1-4.6-2.2-7-3.2c-1.7-0.8-3.4-1.6-5.1-2.4c-4.5-2.1-9-4.1-13.5-6.1
		c-2.8-1.3-5.6-2.5-8.4-3.8c-1.8-0.8-3.6-1.6-5.4-2.4c-0.8-0.4-1.6-0.7-2.5-1.1c-4.1-1.9-8.3-3.7-12.4-5.4c-1.2-0.5-1.2-0.5-2.4-1
		c-3.9-1.3-6.3-0.9-10.3,0.3c-2.6,2.2-4.5,3.9-6,7c-0.1,2.7-0.1,5.3-0.1,7.9c0,1.2,0,1.2,0,2.5c0,2.8,0,5.6,0,8.4c0,2,0,4,0,6
		c0,4.3,0,8.6,0,13c0,6.8,0,13.7,0,20.5c0,1.2,0,2.3,0,3.5c0,2.4,0,4.7,0,7.1c0,15.9-0.1,31.8-0.1,47.7c0,10.7,0,21.4-0.1,32.2
		c0,5.7,0,11.3,0,17c0,5.3,0,10.7,0,16c0,2,0,3.9,0,5.9c0.1,20.5,0.1,20.5-7.3,28.9c-4.7,4.7-10.4,6.9-17,7.3
		c-7.2-0.3-12.8-2.5-18.3-7.2c-6.7-7.8-7.3-16.4-7.3-26.3c0-1.1,0-2.3,0-3.4c0-3.8,0-7.6,0-11.4c0-2.7,0-5.4,0-8.2
		c0-6.6,0-13.3,0-19.9c0-5.4,0-10.8,0-16.2c0-0.8,0-1.5,0-2.3c0-1.6,0-3.1,0-4.7c0-14.6,0-29.2,0-43.8c0-13.4,0-26.7,0-40.1
		c0-13.7,0-27.5,0-41.2c0-7.7,0-15.4,0-23.1c0-6.6,0-13.1,0-19.7c0-3.3,0-6.7,0-10c0-3.6,0-7.3,0-10.9c0-1.1,0-2.1,0-3.2
		c0.1-9.1,2.1-15.7,8.4-22.5C121.4,93.7,132.6,94.4,143,100.1z"/>
</g>
</svg>
