<svg xmlns="http://www.w3.org/2000/svg" xml:space="preserve" viewBox="0 0 512 512"><path d="M401.4 297.5c-.2 14.3-5.8 61.1-72.5 65H197.8c-64.2-3.4-87.1-45.9-87.2-81.4-.1-37.2 25-78.5 80.3-81.8 63.6.3 78.4 59.1 81.4 77.2 7.7 46.1 27.4 61.8 39.2 71.2l1.1.9c6.7 5.4 16.6 4.3 22-2.4s4.3-16.6-2.4-22l-1.2-.9c-9.4-7.5-22.2-17.7-27.9-51.9-4.4-26.6-15.6-50.9-31.6-68.6-16.5-18.3-38-29.7-62.8-33.4 7.3-18.5 28.4-28.5 49.4-29.2 30-.9 66.3 17.5 69.5 72.1l.8 13.6 13.6 1c37.6 3.1 59.7 38.3 59.4 70.6M512 256c0 141.4-114.6 256-256 256S0 397.4 0 256 114.6 0 256 0s256 114.6 256 256m-79.4 41.9c.3-24-8.1-48.4-22.8-67-13.5-17-31.8-28.4-52.3-33-4-27.2-15.4-49.6-33.4-65.4-18.1-15.8-41.8-24.2-66.9-23.4-21.2.6-41.1 7.7-56.1 20-13.1 10.7-21.6 24.7-24.8 40.5-27.7 4.2-51.2 16.6-68.7 36.3-18.2 20.5-28.2 47.3-28.2 75.5.1 28.5 10.6 55.3 29.5 75.4 21.2 22.5 51.5 35.3 87.7 37.1h133.5c32.2-1.8 58.8-12.7 77-31.7 16.2-16.9 25.3-39.7 25.5-64.3"/></svg>