<svg xmlns="http://www.w3.org/2000/svg" xml:space="preserve" viewBox="0 0 512 512"><path d="M1.5 290.2H0V486c0 14.1 11.6 25.7 25.7 25.7h201.6C225.6 389.4 125.2 290.2 1.5 290.2m0-161.5H0V212c166.3.8 301.5 134.5 303.3 299.8h86.3C388.1 300.3 214.7 128.7 1.5 128.7M512 486.3V309.4C453.5 166 335.6 52.7 189 0H25.7C11.6 0 0 11.6 0 25.7v25c255.9.8 464.1 206.9 465.6 461.3h20.7c14.3-.3 25.7-11.6 25.7-25.7M444.6 71.4c23.7 23.7 47.9 53.7 67.4 80.2V25.5c0-14-11.3-25.4-25.3-25.5H356.5c30.3 20.9 61.6 44.9 88.1 71.4" style="fill:#606"/></svg>