<?xml version="1.0" encoding="utf-8"?>
<!-- Generator: Adobe Illustrator 28.2.0, SVG Export Plug-In . SVG Version: 6.00 Build 0)  -->
<svg version="1.1" id="Layer_1" xmlns="http://www.w3.org/2000/svg" xmlns:xlink="http://www.w3.org/1999/xlink" x="0px" y="0px"
	 viewBox="0 0 512 512" style="enable-background:new 0 0 512 512;" xml:space="preserve">
<style type="text/css">
	.st0{fill-rule:evenodd;clip-rule:evenodd;fill:#FFFFFF;}
	.st1{fill:#FFFFFF;}
</style>
<g id="mullvad_svg__mole" transform="translate(-14.095 -14.095) scale(.19048)">
	<path class="st0" d="M1418,74C675.6,74,74,675.6,74,1418s602.7,1344,1344,1344s1344-601.6,1344-1344S2160.4,74,1418,74z
		 M1153.4,819.6c-16-43.7-11.7-100.3,10.7-153.6c32-73.6,92.8-122.7,150.4-122.7c11.7,0,22.4,2.1,33.1,6.4
		c33.1-29.9,71.5-54.4,114.1-71.5c234.7-93.9,579.2,73.6,667.7,304c42.7,112,29.9,233.6-6.4,345.6c-29.9,91.7-138.7,224-98.1,323.2
		c-16-4.3-349.9-117.3-445.9-168.5c-150.4-93.9-284.8-209.1-386.1-297.6l-3.2-3.2L848.4,819.6c-4.3-2.1-8.5-4.3-11.7-6.4
		C883.6,815.3,1070.2,837.7,1153.4,819.6z M744.9,2195.4c-7.5-35.2,69.3-93.9,118.4-160c23.4-32,44.8-66.1,59.7-101.3
		c21.4-65.1-23.4-59.7-53.3-115.2c-5.3-9.6-9.6-22.4-5.3-34.1c6.4-21.3,42.7-36.3,49.1-32c147.2,98.1,421.4,66.1,589.9-128
		c0,0,51.2,12.8,77.9,20.3l-76.8-51.2l-5.3-3.2c-3.2,2.1-7.5,4.3-10.7,6.4c-349.9,266.7-577.1,151.5-577.1,151.5
		c-7.5-8.5-31-30.9-49.1-43.7c-237.9-167.5-407.5-392.6-484.3-538.7l-28.8,154.7c0,0,6.4-204.8,6.4-205.9l-102.4,143l75.7-153.6
		c-56.5-7.5-88.5-64-75.7-109.9c10.6-48,71.4-83.2,123.7-58.7l35.2-149.3l-7.5,160c0,0,7.5,2.2,13.9,4.3l105.6-125.9l-72.5,123.7
		c113-22.4,297.6-27.7,494.9-12.8l205.8,100.1c102.4,89.6,237.9,205.9,390.4,300.8l397.9,156.8l49.1,71.5h-41.6l87.5,105.6l-80-12.8
		c1.1,7.4,80,98.1,80,98.1l-62.9,8.5c2.1,7.5,64,84.3,64,84.3l-46.9-3.2c3.2,11.7,75.7,129,75.7,130.1c0,1.1-25.6-6.4-42.7-11.7
		c60.8,135.5,148.2,162.1,152.5,217.6C1876.6,2564.5,1092.6,2624.2,744.9,2195.4z"/>
	<path class="st1" d="M1355,565.7c-56.5-24.5-132.3,23.5-169.6,107.7c-37.3,84.3-20.3,171.7,36.3,197.3
		c56.5,24.5,132.3-23.5,169.6-107.7C1428.6,678.8,1411.6,591.3,1355,565.7z M1366.8,752.9c-32.1,73.4-93.6,117.4-137.3,98.3
		c-43.7-19.1-53.1-94.1-21-167.6c32.1-73.4,93.6-117.4,137.3-98.3C1389.5,604.4,1398.9,679.4,1366.8,752.9z"/>
</g>
</svg>
