<svg xmlns="http://www.w3.org/2000/svg" xml:space="preserve" viewBox="0 0 512 512"><path d="M224.2 512c-.5 0-1-.1-1.4-.4-.7-.5-1.1-1.3-1.1-2.1v-3.2h-2.4c-1.4 0-2.5-1.1-2.5-2.5v-1.6c-1.3-.1-2.3-1.2-2.3-2.5v-2.9h-2.1c-1.4 0-2.5-1.1-2.5-2.5v-2.9c-1.3-.1-2.3-1.2-2.3-2.5v-6.3h-1.4c-.5 0-1-.2-1.4-.4v4c0 1.4-1.1 2.5-2.5 2.5h-1.4v5.6c0 1-.6 1.9-1.5 2.3l-1.6.7v8.5c0 1.3-1 2.4-2.3 2.5v1.1c0 1.4-1.1 2.5-2.5 2.5h-3.1c-1.4 0-2.5-1.1-2.5-2.5v-18.5l-.8-.4c-.9-.4-1.5-1.3-1.5-2.3V470h-1.4c-1.4 0-2.5-1.1-2.5-2.5v-19.6c-1.3-.1-2.3-1.2-2.3-2.5V438c-.3.2-.8.4-1.2.4v33.5c0 1.4-1.1 2.5-2.5 2.5h-.6v.2c0 1.4-1.1 2.5-2.5 2.5h-.6v12.4c0 1.4-1.1 2.5-2.5 2.5h-2.1v17.3c0 1.4-1.1 2.5-2.5 2.5h-3.9c-1.4 0-2.5-1.1-2.5-2.5v-.7h-1.4c-1.4 0-2.5-1.1-2.5-2.5v-.2h-1.4c-1.4 0-2.5-1.1-2.5-2.5v-4.3h-2.9c-1.4 0-2.5-1.1-2.5-2.5v-31.1h-1.4c-1.4 0-2.5-1.1-2.5-2.5v-5.1c-.4.7-1.2 1.2-2.1 1.2h-3.1c-1.4 0-2.5-1.1-2.5-2.5V453h-1.4c-1.4 0-2.5-1.1-2.5-2.5v-29.2l-.4-.2v5.3c0 1.4-1.1 2.5-2.5 2.5H125v28.7c0 1.4-1.1 2.5-2.5 2.5h-.6v19.5c0 1.4-1.1 2.5-2.5 2.5h-.6v17.2c0 1.4-1.1 2.5-2.5 2.5h-1.6c-.9 0-1.7-.5-2.2-1.2v1.1c0 1.4-1.1 2.5-2.5 2.5h-5.4c-.5 0-1-.1-1.4-.4v3.3c0 1.4-1.1 2.5-2.5 2.5H96c-1.4 0-2.5-1.1-2.5-2.5v-3.5c-.4.7-1.2 1.2-2.1 1.2H90v2.2c0 1.4-1.1 2.5-2.5 2.5H86c-.1 1.2-1.2 2.2-2.5 2.2h-4.6c-1.4 0-2.5-1.1-2.5-2.5v-3.4H76v3.4c0 1.4-1.1 2.5-2.5 2.5h-7c-.8 0-1.5-.4-1.9-.9-.5.6-1.2.9-1.9.9h-7c-1.4 0-2.5-1.1-2.5-2.5v-.2h-.6c-1.4 0-2.5-1.1-2.5-2.5v-1.9h-1.4c-1.4 0-2.5-1.1-2.5-2.5V501c-.4.7-1.2 1.2-2.2 1.2-1.4 0-2.5-1.1-2.5-2.5v-4.1c0-1.4 1.1-2.5 2.5-2.5h4.7c1.4 0 2.5 1.1 2.5 2.5v3.9h1.4c1.4 0 2.5 1.1 2.5 2.5v1.9h.6c1.4 0 2.5 1.1 2.5 2.5v.4h2c0-1.4 1.1-2.5 2.5-2.5h3.9c1.4 0 2.5 1.1 2.5 2.5h2v-3.4c0-1.4 1.1-2.5 2.5-2.5H79c1.4 0 2.5 1.1 2.5 2.5v2.4c.4-.7 1.2-1.2 2.1-1.2H85v-2.2c0-1.4 1.1-2.5 2.5-2.5h1.4v-.5c0-1.4 1.1-2.5 2.5-2.5H96c.9 0 1.7.5 2.1 1.2v-2.4c0-1.4 1.1-2.5 2.5-2.5h3.9c1.4 0 2.5 1.1 2.5 2.5v3.6h.4v-7.7c0-1.4 1.1-2.5 2.5-2.5h3.7v-9.4c0-1.4 1.1-2.5 2.5-2.5h.6v-19.5c0-1.4 1.1-2.5 2.5-2.5h.6v-28.7c0-1.4 1.1-2.5 2.5-2.5h1.4v-24.9c0-1.4 1.1-2.5 2.5-2.5h3.5c1.4 0 2.5 1.1 2.5 2.5v18.1l.4.2c.9.4 1.5 1.3 1.5 2.3V448h1.4c.2 0 .4 0 .6.1V421c0-1.4 1.1-2.5 2.5-2.5h4.7c1.4 0 2.5 1.1 2.5 2.5v39.5h1.4c1.4 0 2.5 1.1 2.5 2.5v31.1h2.9c1.4 0 2.5 1.1 2.5 2.5v4.3h1.4c1.4 0 2.5 1.1 2.5 2.5v.2h1.4c.5 0 1 .1 1.4.4v-14.5c0-1.4 1.1-2.5 2.5-2.5h2.1v-12.4c0-1.4 1.1-2.5 2.5-2.5h.6v-.2c0-1.4 1.1-2.5 2.5-2.5h.6V436c0-1.3 1-2.4 2.3-2.5v-44.9c0-1.4 1.1-2.5 2.5-2.5h3.9c1.4 0 2.5 1.1 2.5 2.5V443c1.3.1 2.3 1.2 2.3 2.5V465h1.4c1.4 0 2.5 1.1 2.5 2.5v19l.8.4c.9.4 1.5 1.3 1.5 2.3v14.2c.1 0 .3-.1.4-.1v-7.7c0-1 .6-1.9 1.5-2.3l1.6-.7v-6.5c0-1.4 1.1-2.5 2.5-2.5h1.4v-23.3c0-1.4 1.1-2.5 2.5-2.5h3.9c1.4 0 2.5 1.1 2.5 2.5v17.2h1.4c1.4 0 2.5 1.1 2.5 2.5v6.3c1.3.1 2.3 1.2 2.3 2.5v2.9h2.1c1.4 0 2.5 1.1 2.5 2.5v2.9c1.3.1 2.3 1.2 2.3 2.5v1.6h2.4c.9 0 1.6.4 2.1 1.1.2-.2.4-.3.7-.5l1.8-.8v-3.3c0-.8.4-1.6 1.1-2.1v-.4c0-1.4 1.1-2.5 2.5-2.5h3.9c1.4 0 2.5 1.1 2.5 2.5v3.3h.6c.6 0 1.1.2 1.5.5.3-.1.5-.1.8-.1h.6v-.2c0-1.4 1.1-2.5 2.5-2.5h5.3v-15.8c0-1.4 1.1-2.5 2.5-2.5h1.4v-38.2c0-1.4 1.1-2.5 2.5-2.5h2.3c1.4 0 2.5 1.1 2.5 2.5V488c1.2.1 2.1 1 2.3 2.1.1-.1.2-.2.4-.2l1.6-.7v-5.8c0-1.3 1-2.4 2.3-2.5v-37.2c0-1.4 1.1-2.5 2.5-2.5h3.3v-19.7c0-.8.4-1.6 1.1-2.1s1.6-.5 2.4-.2l1.9.8c.9.4 1.5 1.3 1.5 2.3v32.4h2.2c1.4 0 2.5 1.1 2.5 2.5V494h1.4c.2 0 .4 0 .6.1v-13.5c0-1.3 1-2.4 2.3-2.5v-.6c0-1.3 1-2.4 2.3-2.5v-56.8c0-1.4 1.1-2.5 2.5-2.5h.6v-26c0-1.4 1.1-2.5 2.5-2.5h2.3c1.4 0 2.5 1.1 2.5 2.5v31.1c1.3.1 2.3 1.2 2.3 2.5V487l1.2-.5v-12.3c0-1.4 1.1-2.5 2.5-2.5h5.8c1.4 0 2.5 1.1 2.5 2.5v15.1l.4.2c.9.4 1.5 1.3 1.5 2.3v8.5c.4-.7 1.2-1.2 2.1-1.2h2.9V496c0-1.4 1.1-2.5 2.5-2.5h3.9c1.4 0 2.5 1.1 2.5 2.4.1 0 .3-.1.4-.1v-7.7c0-1.4 1.1-2.5 2.5-2.5h3.1c1.4 0 2.5 1.1 2.5 2.5v2.9h1.4c1.4 0 2.5 1.1 2.5 2.5v6.5c.1.1.3.1.4.2.2-.2.5-.4.7-.5l.8-.4v-65.2c0-1.4 1.1-2.5 2.5-2.5h.6v-30.4c0-1.4 1.1-2.5 2.5-2.5h3.9c1.4 0 2.5 1.1 2.5 2.5V423c.9.4 1.6 1.3 1.6 2.3v49c1.3.1 2.3 1.2 2.3 2.5v13.8c1.3.1 2.3 1.2 2.3 2.5v11.4h.6c.8 0 1.5.4 1.9.9.5-.6 1.2-.9 1.9-.9h.6v-24c0-1.4 1.1-2.5 2.5-2.5h.6v-23.6c0-1.4 1.1-2.5 2.5-2.5h3.5c1.4 0 2.5 1.1 2.5 2.5v9.4l.4.2c.9.4 1.5 1.3 1.5 2.3v14.1h.6c1.4 0 2.5 1.1 2.5 2.5V505h.6c1.2 0 2.1.8 2.4 1.9h2v-.4c0-1.4 1.1-2.5 2.5-2.5h.6v-1.9c0-1.4 1.1-2.5 2.5-2.5h1.4v-3.9c0-1.4 1.1-2.5 2.5-2.5h4.7c1.4 0 2.5 1.1 2.5 2.5v1.6h4.5c.3 0 .7.1 1 .2l3.4 1.5h3.6l3.8-1.7c.3-.1.7-.2 1-.2h1.8v-15.3c0-1 .6-1.9 1.5-2.3l.8-.4v-13.6c0-1.4 1.1-2.5 2.5-2.5h4.6c1.4 0 2.5 1.1 2.5 2.5v12.8h2.2c1.4 0 2.5 1.1 2.5 2.5v.9h2.1c1.4 0 2.5 1.1 2.5 2.5V501h1.2v-3c0-1.4 1.1-2.5 2.5-2.5h2.6l6.9-3c.8-.3 1.7-.3 2.4.2s1.1 1.3 1.1 2.1v1.1h.8v-9c0-1.4 1.1-2.5 2.5-2.5h2.9V472c0-1.4 1.1-2.5 2.5-2.5h3.9c1.3 0 2.4 1.1 2.5 2.4 1.3.1 2.3 1.2 2.3 2.5v9.4h1.4c1.4 0 2.5 1.1 2.5 2.5v10.4h2.1c.4 0 .7.1 1 .2l1.3-1c.4-.3 1-.5 1.5-.5h4.7c1.4 0 2.5 1.1 2.5 2.5v2.4c0 1.4-1.1 2.5-2.5 2.5-1.3 0-2.4-1-2.5-2.4h-1.3l-3.2 2.5c-.8.6-1.8.7-2.6.3-.6-.3-1.1-.8-1.3-1.4h-2.3c-1.4 0-2.5-1.1-2.5-2.5v-10.4h-1.4c-1.4 0-2.5-1.1-2.5-2.5V477c-.4 0-.8-.2-1.2-.4v10.5c0 1.4-1.1 2.5-2.5 2.5h-2.9v9c0 1.4-1.1 2.5-2.5 2.5h-5.8c-1.3 0-2.4-1-2.5-2.2l-3.9 1.7c-.3.1-.7.2-1 .2h-.6v2.9c0 1.4-1.1 2.5-2.5 2.5h-6.2c-1.4 0-2.5-1.1-2.5-2.5v-16.8h-2.1c-1.4 0-2.5-1.1-2.5-2.5v-.9h-2.2c-1.1 0-2-.7-2.3-1.6-.2.6-.7 1.1-1.3 1.4l-.8.4v16.2c0 1.4-1.1 2.5-2.5 2.5h-3.7l-3.8 1.7c-.3.1-.7.2-1 .2H417c-.3 0-.7-.1-1-.2l-3.4-1.5h-6.5c-.9 0-1.7-.5-2.2-1.2v1.1c0 1.4-1.1 2.5-2.5 2.5H400v1.9c0 1.4-1.1 2.5-2.5 2.5h-.5v.4c0 1.4-1.1 2.5-2.5 2.5h-6.8c-.4 0-.9-.1-1.3-.3-.7-.3-1.1-.9-1.3-1.6h-.7c-1.4 0-2.5-1.1-2.5-2.5V486h-.6c-1.4 0-2.5-1.1-2.5-2.5v-15l-.4-.2v12.8c0 1.4-1.1 2.5-2.5 2.5h-.6v24c0 1.4-1.1 2.5-2.5 2.5h-.6c-.1 1.2-1.2 2.2-2.5 2.2h-3.9c-1.3 0-2.3-1-2.5-2.2h-.6c-1.4 0-2.5-1.1-2.5-2.5v-11.4c-1.3-.1-2.3-1.2-2.3-2.5v-13.8c-1.3-.1-2.3-1.2-2.3-2.5v-49.2c-.1-.1-.3-.1-.4-.2v6.7c0 1.4-1.1 2.5-2.5 2.5h-.7v64.3c0 1-.6 1.9-1.5 2.3l-.8.4v3.4c0 1.4-1.1 2.5-2.5 2.5h-3.1c-1.4 0-2.5-1.1-2.5-2.5v-2.4c-.9-.4-1.6-1.3-1.6-2.3v-6.3h-1.4c-.2 0-.4 0-.6-.1v2.3c0 1.3-1 2.4-2.3 2.5v.2c0 1.4-1.1 2.5-2.5 2.5h-3.1c-.6 0-1.2-.2-1.7-.6-.4.8-1.3 1.3-2.2 1.3h-2.9v3.3c0 1.4-1.1 2.5-2.5 2.5h-4.7c-1.4 0-2.5-1.1-2.5-2.5v-14l-.4-.2c-.9-.4-1.5-1.3-1.5-2.3v-14.3h-.7v11.4c0 1-.6 1.9-1.5 2.3l-2.4 1v17.9c0 1.4-1.1 2.5-2.5 2.5h-2.3c-1.4 0-2.5-1.1-2.5-2.5v-83.5c-1.3-.1-2.3-1.2-2.3-2.5v-2.6h-.5V478c0 1.3-1 2.4-2.3 2.5v.6c0 1.3-1 2.4-2.3 2.5v21.9c0 1.4-1.1 2.5-2.5 2.5h-3.1c-1.4 0-2.5-1.1-2.5-2.5v-6h-1.4c-1.4 0-2.5-1.1-2.5-2.5v-36.8h-2.2c-1.4 0-2.5-1.1-2.5-2.5v-11.1H273v37.2c0 1.3-1 2.4-2.3 2.5v5c0 1-.6 1.9-1.5 2.3l-1.6.7v15.5c0 1.4-1.1 2.5-2.5 2.5h-3.9c-1.4 0-2.5-1.1-2.5-2.5V493c-1.3-.1-2.3-1.2-2.3-2.5v-7.7h-1.2V502c0 1-.6 1.9-1.5 2.3l-2.3 1c-.8.3-1.7.3-2.4-.2s-1.1-1.3-1.1-2.1v-1.9h-.4v.2c0 1.4-1.1 2.5-2.5 2.5h-.6v3.6c0 1.4-1.1 2.5-2.5 2.5h-2.3c-1.4 0-2.5-1.1-2.5-2.5v-3.9h-.6c-1.4 0-2.5-1.1-2.5-2.5v-.6 2.3c0 1-.6 1.9-1.5 2.3l-1.8.8v2c0 1-.6 1.9-1.5 2.3l-3.8 1.6c-.5.2-.8.3-1.2.3" style="fill:#3f0"/><path d="M501.8.9c-7.6 11.3-26.5 11.4-26.5 11.4L480.2 0c-24.9 6.2-50.3 32.6-50.3 32.6V17.2l-33.6 25.5 6.8-18.9-13.4 9c-16.3 9.7-34.8 13.6-34.8 13.6-28 1.7-67.9 35.5-67.9 35.5 4.9-12.5 1.4-38.3 1.4-38.3-24.6 48.2-71.5 69.8-78.2 72.6-6.7 2.7-42.1 18.9-74.2 48.2s-42.3 78.3-42.3 78.3c-2.6 9.2-26.5 24.6-37.5 39.1-5 6.6-33.3 41.9-43.2 85.1-8.4 36.7 2.2 72 2.2 72s1.9 13.4 12-10.5l4.2-.8s-5.2 11.2-2 10.1 21.4-20.8 36.4-37.4c14.9-16.6 65.9-57.5 111.7-60.5 0 0 31.1-11.7 54.2 6.3 0 0 15.2 18.8 38.7 16.5 0 0 2.8-.8 10.3 4.3l-.4-9.8s27 15.8 55.3 4.6l-5-7s5.1-7.5 20.1 2.7l.9-6.7s26.7 14.2 40.4 13.8l-3.8-12.1s28.2-4 56.2-5.7c0 0 34.8-7.5 57.8 17.9z"/></svg>