<svg xmlns="http://www.w3.org/2000/svg" xml:space="preserve" viewBox="0 0 512 512"><path d="M463.5 108h-30C354.6 14.6 218.2-3.1 119 70.3-7.8 164.2-6.5 352.3 122 444c98.5 70.3 232.3 52.8 310.2-38.7h30.7c-39.8 56.4-105.5 95.9-174.3 104.6-132.1 17-256.4-73.1-283.1-202.7C-30.9 131.5 125.3-28.4 301.9 4.3 366.2 16.2 426.1 54.5 463.5 108m-48.5 0h-23.6L352 77.6h-77.9V137h59.1c2.1 0 7.8 3.9 7.4 6.9.6 17.4-.5 34.9 0 52.3v7.9c-2.3.6-6.9.8-9.9 1.7-20.3 5.6-35.4 24.9-37.3 45.7h-22v9.1h22c2.5 25.4 22.5 45.2 47.9 47.9-.5.9-.7 1.8-.7 2.9-.4 13.6.6 27.3.7 40.8.1 6.4 1.5 20.9-6.9 22.3-5.4.9-14.1-.2-20 0-1.5 0-2.9.7-4.5.7-12 .2-24-.2-35.9 0v59.4h80.5l37.5-29.1h21.6c-38.7 41.9-95.2 67-152.5 68.5V38.2C319.2 39.6 375.9 65.4 415 108m24.5 9.7v42h-11.3c-2.9 0-9.4 5.5-10.2 8.6l-.5 174.7c-.1 3.9 6.7 10.7 10.1 10.7h12v42.7h-50.1l-38.1 29.1h-68.2v-42c14.8-.3 29.5 1.5 44.3.7 13.9-.7 21.8-4.8 22.9-19.7 1.4-18.1-1.2-37.7.3-56 17-2.2 32.2-11.6 40.6-26.7 18.4-32.9-3.2-74.9-40.8-77.3v-56.6c.5-8.9-7-19.7-16.5-19.7h-50.7V86.8h65.6l39.6 30.3c17 1.6 34.2.4 51.2.8zm29.1 278.6v-50.1c0-.8 5-11.9 5.8-14.2 17.2-51.9 17.3-103.1-1-154.8-.6-1.8-4.8-10.1-4.8-10.7v-51.4l12.4 20.2c38.7 72 41.2 155.4 6.1 229.4-5.1 10.9-11.1 22.4-18.5 31.6M250.8 189.5V236c-24.2 2.3-24.3 37.7 0 40.1v46.5c-4.1-.8-7.9-.9-12.1-1.8-20.9-4.7-39-20.8-46.6-40.6-16.4-43 13.4-87.8 58.7-90.7m0-151.3v8.4c-55.8.3-111.9 26.7-149.4 67.5-89.8 98.1-67.5 252.7 46 321.2 30.6 18.5 67.4 30 103.4 30.1v8.4c-43.5-1.3-85.7-15.8-121.1-40.8C31 363 8 225.5 80.5 127.5c39.7-53.7 103-87.6 170.3-89.3m0 130.6v14.9c-47.6 2.5-80.4 49.2-65.6 95 7.7 23.8 29.3 43.3 53.9 48.2 3.9.8 7.8.8 11.6 1.6v14.9c-35.4-1.5-67-24.6-78.7-58-19.5-55.9 20.2-114 78.8-116.6m91.7 43.9c.3 2.8-1.3 10 2.4 10.9 4.9 1.2 3.1-8.3 3.4-10.9 8.9 1.3 19.4 4 25.1 11.2-1.5 2.7-7.2 4.5-5.5 8.2 2.8 5.6 8.5-4.8 10.1-4.2 6.3 6.6 10 15.8 10.4 24.9-3.6 0-11.7-1.3-10.1 4.6.8 2.8 7.7 1.7 10.1 1.9-.7 9.1-4 18.7-10.7 25.2-2.3-1.7-6.1-8.3-9.4-5.5-3.8 3.2 6.1 9.3 5.1 10.7-7.4 4.4-15.4 9.1-24.3 9.7-1.3.1-.9 0-1-1-.4-2.5 1.2-9.3-2.3-9.9-4.6-.9-3.4 8.3-3.5 10.9-9.3-.9-18.1-4.7-25.2-10.7 1.5-2.1 7.4-5.6 6-8.5-2.6-5.6-9.4 4.5-10.5 4-5.6-7-9.3-15.6-10.4-24.6 0-.9 9.3.7 10.3-2 2.5-7.2-10.2-3.9-10.3-5.1 1-9.4 4.7-17.4 10.4-24.9.7-.6 7.7 10.2 10.5 4.4 1.4-2.9-4.4-6.4-6-8.5 6.9-6.6 16.3-9.5 25.4-10.8m1.2 16.4c-35.3 2.9-31.7 57.9 6.2 53.4 32.5-3.8 27.9-56.2-6.2-53.4m87.3-59.6c20.9 43.6 26.1 92.3 12.8 139.1-3.6 12.5-8.8 24.3-14 36-1.6-.7-3.4-1.5-3.2-3.6V172.3c-.1-2.5 2.5-3.2 4.4-2.8m24 175.1h-12.3c26.8-54.2 26.7-120.4 1.3-175.2h11.3c25.4 54.8 24.1 120.4-.3 175.2M148.5 88.8c2.9-.7 4.4.8 2.8 3.4-32.7 21-59.5 52.3-74.7 88.2-2.5 5.9-4 12.7-7.2 18l-2.1-.2-1.2-1.4c11.7-37.8 35.2-72.5 66.5-96.8 2.5-2 13.8-10.8 15.9-11.2m-33.2 301.4c5.6 5.9 12.4 12 18.8 17 3.1 2.5 21.4 14.3 22 15.5.4.9.6 1.8 0 2.6-.6.9-2.2.7-3.1.5-1.7-.4-10.8-6.9-12.9-8.4-29-20.5-54.9-52-68-85.2-.8-2-4.9-11.6-3.6-12.9l3.8 1c9.2 26 23.9 50 43 69.9m44.8-284c2.7-.6 3.6 1.3 2.1 3.5-1 1.5-11.1 7.8-13.5 9.7-22.8 17.8-41.4 41.4-52.7 68.2-1.5 3.4-4.5 14.2-5.9 16.1-1.6 2.2-4.6 1.1-3.9-2.6.9-5 5.3-14.7 7.6-19.6 12.4-27.4 34-53.4 58.8-70.5 1.5-1 6.1-4.5 7.5-4.8M91.6 313.1c.9.9 2 6.2 2.8 7.9 12.6 29.2 30.8 53.9 56.3 73 2.5 1.8 16.4 10.5 16.6 11.8.7 3.6-3.3 2.4-5.3 1.4-27.2-14.3-56-49.2-68.5-77-1.2-2.7-6.1-14.2-5.6-16.1.7-1.9 2.5-2.2 3.7-1m84.1-186.2c.2.1.7 1.8.7 2.2-.1 1.9-8.8 6.8-10.9 8.5-24.8 19-43.1 44.6-52.5 74.5h-3.1c-1.1-1.9-.1-3.7.4-5.6 6-23.3 26.3-50.7 44.4-66.1s13.2-11.2 17.4-13 2.6-1.1 3.5-.5zm3.9 256.6.1 3.8c-2.6.5-4.1-.9-6.1-2-23.4-12.6-49.2-44.3-59.3-68.7-.9-2-4.4-10.4-2.5-11.8.7-.4 1.5-.5 2.3-.2 1 .4 4.5 10.7 5.5 12.7 12.6 27.4 33.7 51.1 60 66.2m279.9-29.8.7 42.7h-11.6v-42.7zm0-236.6v42.7h-11v-42.7c3.4 1.5 7.3-.8 11 0M131.3 218.5c-.6-.9.1-3.2.4-4.3 4.6-18 21.1-41.3 34.8-53.7 4-3.6 13-11.2 17.5-13.5s2.2-1.2 3.5-.5c3.8 2.8-5.3 7.1-7.1 8.5-18.3 14-31.5 29.7-40.8 51-1 2.4-3.7 11.4-4.5 12.3-.9 1.2-3.3 1-3.8.2m5 79c8.2 24 23.8 44.1 43.9 59.3 2 1.5 9.7 5.9 10.5 6.9 2.5 3.1 0 4.8-3.7 3-16.7-8.2-36.6-30.7-45.6-46.9-1.6-2.8-10.6-20.8-8.9-22.4zm207.4-59.4c22.7-2.7 26.5 32.5 5.6 35.4-25.6 3.5-28.8-32.6-5.6-35.4m6 28.9c.7-2.9-1.1-6.7-.7-9.4.3-1.5 2-2.3 2.5-4 2.3-10.1-11.2-11.3-12.1-3.1-.5 4.4 2.8 4.9 3.1 6.5.2 1.3-1.5 9.6-1.2 9.9z" style="fill:#627cf3"/></svg>