<svg xmlns="http://www.w3.org/2000/svg" xml:space="preserve" viewBox="0 0 512 512"><path d="M325.6 323.3c-.5-1.9-.2-4 .8-5.7 1.4-2.3 3.8-3.7 6.5-3.7 1.3 0 2.7.4 3.8 1.1 3.6 2.1 4.7 6.8 2.6 10.3-1.4 2.3-3.8 3.7-6.5 3.7-1.3 0-2.7-.4-3.9-1.1-1.6-1-2.8-2.7-3.3-4.6m96.4 21.4c3.5 2.2 8.2 1.1 10.4-2.3 1.1-1.7 1.4-3.7 1-5.6-.4-2-1.6-3.6-3.3-4.7-1.2-.8-2.6-1.2-4-1.2-2.6 0-5 1.3-6.3 3.5-2.1 3.4-1.3 7.8 2 10.1zm-55.7 54.2c1.3 0 3.1-.3 4.9-1.8 1.5-1.3 2.4-3.1 2.6-5.1s-.5-3.9-1.8-5.5c-1.4-1.7-3.5-2.6-5.7-2.6-1.3 0-3.1.3-4.9 1.8-3.1 2.7-3.5 7.5-.8 10.6 1.4 1.7 3.5 2.6 5.7 2.6M264.9 0v131.6c9.9.5 22.4 2.5 35.6 8.2 4.4.1 22.4-.6 35.3-15.3-4.8-7-5.3-16.4-.5-24 4-6.3 10.9-10.1 18.4-10.1 4.1 0 8.1 1.2 11.6 3.4 4.9 3.1 8.4 8 9.6 13.7 1.3 5.7.2 11.5-2.9 16.4-4 6.3-10.9 10.1-18.4 10.1-2.1 0-4.3-.3-6.3-.9-8.5 10.1-18.7 15.4-27.7 18.1 7.2 5.5 13.5 12.1 19 19.8 5.6-1.3 11.7-.4 16.6 2.7 10.2 6.4 13.2 19.9 6.8 30.1-4 6.4-10.9 10.1-18.4 10.1-4.1 0-8.1-1.2-11.6-3.4-10.1-6.4-13.2-19.9-6.8-30 .4-.7.9-1.3 1.4-1.9-8.1-11.1-18.4-19.5-30.6-25h-.1c-11.4-5.2-22.4-7.1-31.1-7.6v85.3c18.3 1.3 26.9 10.6 33.3 17.9 4.8 5.5 7.5 8.4 12.3 8.6 6.9.4 12.2.2 17.2 0 6.2-.2 11.8-.4 18.8.4 20.2-.3 27-4.8 34.3-9.5 5.8-3.8 12.3-8 24.3-9.7.6-1.9 1.4-3.8 2.5-5.6.7-1.1 1.4-2 2.3-2.9.5-.5 1-.9 1.5-1.4-3.9-14.6-4.7-35.2.1-51.3-.1-.1-.2-.1-.3-.2-7.6-7-9.3-18.6-3.6-27.6 4-6.3 10.9-10.1 18.4-10.1 4.1 0 8.1 1.2 11.6 3.4 4.9 3.1 8.4 8 9.6 13.7 1.3 5.7.2 11.5-2.9 16.4-4 6.3-10.9 10.1-18.4 10.1-.4 0-.8 0-1.2-.1-3.4 12.4-2.6 28.8-.1 40.1.4 0 .9-.1 1.3-.1 4.1 0 8.1 1.2 11.6 3.4 4.9 3.1 8.4 8 9.6 13.7 1.3 5.7.2 11.5-2.9 16.4-4 6.3-10.9 10.1-18.4 10.1-4.1 0-8.1-1.2-11.6-3.4-.5-.3-.8-.5-1-.7-3.5-2.4-6-5.7-7.5-9.4-8 1.3-12.2 4-17.3 7.3-4.1 2.7-8.5 5.5-15 7.8 16.1 11.9 37.8 34.2 46.9 49 1.8-.5 3.6-.7 5.5-.7 4.1 0 8.1 1.2 11.6 3.4 4.9 3.1 8.4 8 9.6 13.7 1.3 5.7.2 11.5-2.9 16.4-4 6.3-10.9 10.1-18.4 10.1-4.1 0-8.1-1.2-11.6-3.4-.5-.3-.8-.5-1-.7-9.4-6.6-12-19.5-5.8-29.3.3-.5.7-1 1.1-1.5-9.5-16.5-43.3-48.6-52.5-50.9-12.1-3-19.1-2.8-27.9-2.4-5.1.2-11 .4-18.5 0-11-.6-17-7.4-22.2-13.4-5.5-6.3-10.9-12-22.6-13v149.3c1.8-.4 4.9-1 9.1-2.9.4-.2.8-.4 1.3-.6 11.9-5.7 30.3-19.4 44.7-52.2-4.1-3-6.9-7.2-8.2-12.2-1.4-5.6-.6-11.5 2.4-16.5 3.9-6.5 11.1-10.6 18.7-10.6 3.9 0 7.8 1.1 11.1 3.1 10.3 6.2 13.7 19.5 7.6 29.8-3.8 6.3-10.6 10.3-17.9 10.6-9.2 21.3-20.1 35.8-30.5 45.6 6.2 1.2 10.6 3.7 14.8 6.6 3.3 2.2 5 3.3 7.9 3.5 3.8.1 12-2.2 18.9-4.7-.8-7 1.7-14.3 7.4-19.2 3.9-3.4 9-5.3 14.2-5.3 6.4 0 12.4 2.8 16.5 7.6 3.8 4.4 5.6 10 5.2 15.8s-3.1 11.1-7.5 14.8c-3.9 3.4-9 5.2-14.2 5.2-5.7 0-11.2-2.3-15.2-6.2-6.6 2.5-17.5 6.1-25 6.1h-1.1c-7-.4-11.5-3.4-15.2-5.9-5.6-3.8-10.9-7.3-29.9-2.5-8.4 3.8-14.1 4.1-15.1 4.2V512l216.9-124.4V124.4zm156.7 250.9.3.2c3.5 2.2 8.2 1.1 10.4-2.3 1.1-1.7 1.4-3.7 1-5.6-.4-2-1.6-3.6-3.3-4.7-1.2-.8-2.6-1.2-4-1.2-2.6 0-5 1.3-6.3 3.5-2.2 3.4-1.3 7.8 1.9 10.1m0-83.4.3.2c3.5 2.2 8.2 1.1 10.4-2.3 1.1-1.7 1.4-3.7 1-5.6-.4-2-1.6-3.6-3.3-4.7-1.2-.8-2.6-1.2-4-1.2-2.6 0-5 1.3-6.3 3.5-2.2 3.4-1.3 7.8 1.9 10.1m-72.3-49.3.3.2c3.5 2.2 8.2 1.1 10.4-2.3 1.1-1.7 1.4-3.7 1-5.6-.4-2-1.6-3.6-3.3-4.7-1.2-.8-2.6-1.2-4-1.2-2.6 0-5 1.3-6.3 3.5-2.2 3.4-1.3 7.8 1.9 10.1m-5.6 81.3c2.6 0 5-1.3 6.4-3.5 2.2-3.5 1.2-8.1-2.3-10.4-1.2-.7-2.6-1.1-4-1.1s-2.8.4-4 1.1q-1.5.9-2.4 2.4c-2.2 3.5-1.2 8.2 2.3 10.4 1.2.7 2.6 1.1 4 1.1M245.1 131c.7.2 1.4.3 2 .5V0L30.2 124.4v263.1L247.1 512V146.1c-1.6-.3-3.4-.8-5.3-1.2-17.2-4-42-9.8-62.9 14.2 14.4 15.3 33 35.1 33 35.1l-34.7 186.4-51.4-36.4-61 15.5 34.7-186.4 63.9-30.8s4.6 4.9 5.8 6.1c26.1-29.1 57.7-21.8 75.9-17.6m-110.2 54.2c-2 10.7 5.1 21.1 15.8 23.1s21.1-5.1 23.1-15.8-5.1-21.1-15.8-23.1c-10.8-2-21.1 5-23.1 15.8m32 5.9c-1.3 6.8-8 11.4-14.8 10.2-6.9-1.3-11.4-7.9-10.2-14.8 1.1-6 6.3-10.4 12.4-10.4.8 0 1.6.1 2.3.2 7 1.3 11.5 8 10.3 14.8" style="fill:#fff"/></svg>