<svg xmlns="http://www.w3.org/2000/svg" xml:space="preserve" viewBox="0 0 512 512"><path d="M481.8 387.6V124.4L264.9 0v512z" style="fill:#eb743b"/><path d="M30.2 387.6 247.1 512V0L30.2 124.4z" style="fill:#771b85"/><path d="M245.1 139.6c-18.2-4.2-49.8-11.6-75.9 17.6-1.2-1.3-5.8-6.2-5.8-6.2l-63.9 30.8-34.7 186.4 61-15.5 51.4 36.4L212 202.8s-18.6-19.8-33-35.1c20.9-23.9 45.7-18.2 62.8-14.2q2.85.75 5.4 1.2v-14.6c-.7-.2-1.4-.3-2.1-.5m-78.2 60.1c-1.3 6.8-8 11.4-14.8 10.2-6.9-1.3-11.4-7.9-10.2-14.8 1.1-6 6.3-10.4 12.4-10.4.8 0 1.6.1 2.3.2 7 1.3 11.5 7.9 10.3 14.8" style="fill:#591463"/><path d="m163.4 142.5-63.9 30.8-34.7 186.3 61-15.5 51.4 36.4L212 194.2zm-12.6 65.8c-10.7-2-17.8-12.3-15.8-23.1s12.3-17.8 23.1-15.8 17.8 12.3 15.8 23.1c-2.1 10.7-12.4 17.8-23.1 15.8" style="fill:#b66bc2"/><path d="M382.8 387.9c-4.1-4.8-10.2-7.6-16.5-7.6-5.2 0-10.2 1.9-14.2 5.3-5.7 4.9-8.3 12.2-7.4 19.2-6.9 2.5-15.1 4.9-18.9 4.7-2.9-.2-4.6-1.2-7.9-3.5-4.2-2.8-8.6-5.4-14.8-6.6 10.4-9.8 21.4-24.3 30.5-45.6 7.3-.3 14.1-4.2 17.9-10.6 6.1-10.3 2.7-23.7-7.6-29.8-3.4-2-7.2-3.1-11.1-3.1-7.6 0-14.8 4.1-18.7 10.6-3 5-3.8 10.8-2.4 16.5 1.2 5 4.1 9.2 8.2 12.2-14.4 32.8-32.8 46.5-44.7 52.2-.5.2-.9.4-1.3.6-4.2 1.9-7.3 2.5-9.1 2.9v14.2c1-.1 6.7-.4 15.1-4.2 19-4.8 24.3-1.3 29.9 2.5 3.6 2.5 8.1 5.5 15.2 5.9h1.1c7.5 0 18.4-3.6 25-6.1 4.1 4 9.5 6.2 15.2 6.2 5.2 0 10.2-1.9 14.2-5.2 4.4-3.8 7.1-9.1 7.5-14.8.5-5.8-1.4-11.5-5.2-15.9m-56.4-59.6c1.4-2.3 3.8-3.7 6.5-3.7 1.3 0 2.7.4 3.8 1.1 3.6 2.1 4.7 6.8 2.6 10.3-1.4 2.3-3.8 3.7-6.5 3.7-1.3 0-2.7-.4-3.9-1.1-1.7-1-2.9-2.7-3.4-4.6-.4-2-.1-4 .9-5.7m44.8 79.5c-1.7 1.5-3.6 1.8-4.9 1.8-2.2 0-4.3-1-5.7-2.6-2.7-3.1-2.3-7.9.8-10.6 1.7-1.5 3.6-1.8 4.9-1.8 2.2 0 4.3 1 5.7 2.6 1.3 1.5 1.9 3.5 1.8 5.5s-1.1 3.8-2.6 5.1m3.7-289.7c-1.3-5.7-4.7-10.5-9.6-13.7-3.5-2.2-7.5-3.4-11.6-3.4-7.5 0-14.4 3.8-18.4 10.1-4.8 7.6-4.3 17.1.5 24-13 14.7-31 15.3-35.3 15.3-13.1-5.7-25.7-7.7-35.6-8.2v14.2c8.7.5 19.7 2.4 31.1 7.6h.1c12.2 5.6 22.5 14 30.6 25-.5.6-.9 1.3-1.4 1.9-6.4 10.1-3.3 23.6 6.8 30 3.5 2.2 7.5 3.4 11.6 3.4 7.5 0 14.4-3.8 18.4-10.1 6.4-10.1 3.4-23.6-6.8-30.1-4.9-3.1-11-4-16.6-2.7-5.5-7.7-11.8-14.3-19-19.8 8.9-2.8 19.2-8.1 27.7-18.1q3 .9 6.3.9c7.5 0 14.4-3.8 18.4-10.1 3.1-4.7 4.1-10.6 2.8-16.2m-37.6 80.5q.9-1.35 2.4-2.4c1.2-.7 2.6-1.1 4-1.1s2.8.4 4 1.1c3.5 2.2 4.6 6.9 2.3 10.4-1.4 2.2-3.8 3.5-6.4 3.5-1.4 0-2.8-.4-4-1.2-3.4-2.1-4.5-6.8-2.3-10.3m22.7-71.8c-2.1 3.4-6.9 4.5-10.4 2.3l-.3-.2c-3.2-2.3-4.1-6.7-2-10.1 1.4-2.2 3.7-3.5 6.3-3.5 1.4 0 2.8.4 4 1.2 1.7 1.1 2.9 2.8 3.3 4.7.6 1.9.2 3.9-.9 5.6m45.9 137c1.5 3.7 4 7 7.5 9.4.3.2.5.4 1 .7 3.5 2.2 7.5 3.4 11.6 3.4 7.5 0 14.4-3.8 18.4-10.1 3.1-4.9 4.1-10.7 2.9-16.4-1.3-5.7-4.7-10.5-9.6-13.7-3.5-2.2-7.5-3.4-11.6-3.4-.4 0-.9 0-1.3.1-2.5-11.2-3.3-27.6.1-40.1.4 0 .8.1 1.2.1 7.5 0 14.4-3.8 18.4-10.1 3.1-4.9 4.1-10.7 2.9-16.4-1.3-5.7-4.7-10.5-9.6-13.7-3.5-2.2-7.5-3.4-11.6-3.4-7.5 0-14.4 3.8-18.4 10.1-5.7 9-4 20.6 3.6 27.6.1.1.2.1.3.2-4.8 16.1-4.1 36.7-.1 51.3-.5.5-1 .9-1.5 1.4-.8.9-1.6 1.9-2.3 2.9-1.1 1.8-2 3.7-2.5 5.6-12 1.7-18.5 5.9-24.3 9.7-7.2 4.7-14.1 9.1-34.3 9.5-7-.8-12.6-.6-18.8-.4-5.1.2-10.3.4-17.2 0-4.7-.3-7.5-3.1-12.3-8.6-6.4-7.3-15-16.5-33.3-17.9V256c11.7 1.1 17.1 6.7 22.6 13 5.3 6 11.3 12.9 22.2 13.4 7.5.4 13.4.2 18.5 0 8.9-.3 15.8-.6 27.9 2.4 9.3 2.3 43 34.4 52.5 50.9-.4.5-.8 1-1.1 1.5-6.2 9.8-3.6 22.7 5.8 29.3.3.2.5.4 1 .7 3.5 2.2 7.5 3.4 11.6 3.4 7.5 0 14.4-3.8 18.4-10.1 3.1-4.9 4.1-10.7 2.9-16.4-1.3-5.7-4.7-10.5-9.6-13.7-3.5-2.2-7.5-3.4-11.6-3.4-1.9 0-3.7.2-5.5.7-9.1-14.9-30.8-37.2-46.9-49 6.4-2.2 10.8-5.1 15-7.8 4.9-3.1 9.1-5.8 17.1-7.1m13.7-95.8c1.4-2.2 3.7-3.5 6.3-3.5 1.4 0 2.8.4 4 1.2 1.7 1.1 2.9 2.8 3.3 4.7s.1 3.9-1 5.6c-2.1 3.4-6.9 4.5-10.4 2.3l-.3-.2c-3.1-2.2-4-6.7-1.9-10.1m0 83.5c1.4-2.2 3.7-3.5 6.3-3.5 1.4 0 2.8.4 4 1.2 1.7 1.1 2.9 2.8 3.3 4.7s.1 3.9-1 5.6c-2.1 3.4-6.9 4.5-10.4 2.3l-.3-.2c-3.1-2.3-4-6.7-1.9-10.1m0 93.5c1.4-2.2 3.7-3.5 6.3-3.5 1.4 0 2.8.4 4 1.2 1.7 1.1 2.9 2.8 3.3 4.7s.1 3.9-1 5.6c-2.1 3.4-6.9 4.5-10.4 2.3l-.3-.2c-3.1-2.3-4-6.7-1.9-10.1" style="fill:#d3562c"/><path d="M247.2 131.6c-.7-.2-1.4-.3-2.2-.5-20.6-4.8-58.5-13.6-86 31.3-1.6-.3-3.2-.4-4.7-.4-12.9 0-24.1 9.3-26.4 22-1.3 7.1.2 14.2 4.3 20.1s10.2 9.9 17.3 11.2c1.6.3 3.3.5 4.9.5 12.9 0 24.1-9.2 26.4-22 1.8-9.7-1.9-19.2-8.9-25.2 22.1-34.7 50.7-28.1 69.9-23.6q2.85.75 5.4 1.2zm-80.3 59.5c-1.3 6.8-8 11.4-14.8 10.2-6.9-1.3-11.4-7.9-10.2-14.8 1.1-6 6.3-10.4 12.4-10.4.8 0 1.6.1 2.3.2 7 1.3 11.5 8 10.3 14.8m215.9 186.2c-4.1-4.8-10.2-7.6-16.5-7.6-5.2 0-10.2 1.9-14.2 5.3-5.7 4.9-8.3 12.2-7.4 19.2-6.9 2.5-15.1 4.9-18.9 4.7-2.9-.2-4.6-1.2-7.9-3.5-4.2-2.8-8.6-5.4-14.8-6.6 10.4-9.8 21.4-24.3 30.5-45.6 7.3-.3 14.1-4.2 17.9-10.6 6.1-10.3 2.7-23.7-7.6-29.8-3.4-2-7.2-3.1-11.1-3.1-7.6 0-14.8 4.1-18.7 10.6-3 5-3.8 10.8-2.4 16.5 1.2 5 4.1 9.2 8.2 12.2-14.4 32.8-32.8 46.5-44.7 52.2-.5.2-.9.4-1.3.6-4.2 1.9-7.3 2.5-9.1 2.9v14.2c1-.1 6.7-.4 15.1-4.2 19-4.8 24.3-1.3 29.9 2.5 3.6 2.5 8.1 5.5 15.2 5.9h1.1c7.5 0 18.4-3.6 25-6.1 4.1 4 9.5 6.2 15.2 6.2 5.2 0 10.2-1.9 14.2-5.2 4.4-3.8 7.1-9.1 7.5-14.8.5-5.9-1.4-11.5-5.2-15.9m-56.4-59.7c1.4-2.3 3.8-3.7 6.5-3.7 1.3 0 2.7.4 3.8 1.1 3.6 2.1 4.7 6.8 2.6 10.3-1.4 2.3-3.8 3.7-6.5 3.7-1.3 0-2.7-.4-3.9-1.1-1.7-1-2.9-2.7-3.4-4.6-.4-1.9-.1-4 .9-5.7m44.8 79.5c-1.7 1.5-3.6 1.8-4.9 1.8-2.2 0-4.3-1-5.7-2.6-2.7-3.1-2.3-7.9.8-10.6 1.7-1.5 3.6-1.8 4.9-1.8 2.2 0 4.3 1 5.7 2.6 1.3 1.5 1.9 3.5 1.8 5.5s-1.1 3.8-2.6 5.1m-74.3-243.5c.2.1.5.1.8.2-.3-.1-.6-.1-.8-.2m78-46.2c-1.3-5.7-4.7-10.5-9.6-13.7-3.5-2.2-7.5-3.4-11.6-3.4-7.5 0-14.4 3.8-18.4 10.1-4.8 7.6-4.3 17.1.5 24-13 14.7-31 15.3-35.3 15.3-13.1-5.7-25.7-7.7-35.6-8.2v14.2c8.7.5 19.7 2.4 31.1 7.6h.1c12.2 5.6 22.5 14 30.6 25-.5.6-.9 1.3-1.4 1.9-6.4 10.1-3.3 23.6 6.8 30 3.5 2.2 7.5 3.4 11.6 3.4 7.5 0 14.4-3.8 18.4-10.1 6.4-10.1 3.4-23.6-6.8-30.1-4.9-3.1-11-4-16.6-2.7-5.5-7.7-11.8-14.3-19-19.8 8.9-2.8 19.2-8.1 27.7-18.1q3 .9 6.3.9c7.5 0 14.4-3.8 18.4-10.1 3.1-4.7 4.1-10.5 2.8-16.2m-37.6 80.5q.9-1.35 2.4-2.4c1.2-.7 2.6-1.1 4-1.1s2.8.4 4 1.1c3.5 2.2 4.6 6.9 2.3 10.4-1.4 2.2-3.8 3.5-6.4 3.5-1.4 0-2.8-.4-4-1.2-3.4-2.1-4.5-6.8-2.3-10.3m22.7-71.8c-2.1 3.4-6.9 4.5-10.4 2.3l-.3-.2c-3.2-2.3-4.1-6.7-2-10.1 1.4-2.2 3.7-3.5 6.3-3.5 1.4 0 2.8.4 4 1.2 1.7 1.1 2.9 2.8 3.3 4.7.6 1.9.2 3.9-.9 5.6m45.9 137c1.5 3.7 4 7 7.5 9.4.3.2.5.4 1 .7 3.5 2.2 7.5 3.4 11.6 3.4 7.5 0 14.4-3.8 18.4-10.1 3.1-4.9 4.1-10.7 2.9-16.4-1.3-5.7-4.7-10.5-9.6-13.7-3.5-2.2-7.5-3.4-11.6-3.4-.4 0-.9 0-1.3.1-2.5-11.2-3.3-27.6.1-40.1.4 0 .8.1 1.2.1 7.5 0 14.4-3.8 18.4-10.1 3.1-4.9 4.1-10.7 2.9-16.4-1.3-5.7-4.7-10.5-9.6-13.7-3.5-2.2-7.5-3.4-11.6-3.4-7.5 0-14.4 3.8-18.4 10.1-5.7 9-4 20.6 3.6 27.6.1.1.2.1.3.2-4.8 16.1-4.1 36.7-.1 51.3-.5.5-1 .9-1.5 1.4-.8.9-1.6 1.9-2.3 2.9-1.1 1.8-2 3.7-2.5 5.6-12 1.7-18.5 5.9-24.3 9.7-7.2 4.7-14.1 9.1-34.3 9.5-7-.8-12.6-.6-18.8-.4-5.1.2-10.3.4-17.2 0-4.7-.3-7.5-3.1-12.3-8.6-6.4-7.3-15-16.5-33.3-17.9v14.2c11.7 1.1 17.1 6.7 22.6 13 5.3 6 11.3 12.9 22.2 13.4 7.5.4 13.4.2 18.5 0 8.9-.3 15.8-.6 27.9 2.4 9.3 2.3 43 34.4 52.5 50.9-.4.5-.8 1-1.1 1.5-6.2 9.8-3.6 22.7 5.8 29.3.3.2.5.4 1 .7 3.5 2.2 7.5 3.4 11.6 3.4 7.5 0 14.4-3.8 18.4-10.1 3.1-4.9 4.1-10.7 2.9-16.4-1.3-5.7-4.7-10.5-9.6-13.7-3.5-2.2-7.5-3.4-11.6-3.4-1.9 0-3.7.2-5.5.7-9.1-14.9-30.8-37.2-46.9-49 6.4-2.2 10.8-5.1 15-7.8 4.9-2.8 9.1-5.5 17.1-6.9m13.7-95.7c1.4-2.2 3.7-3.5 6.3-3.5 1.4 0 2.8.4 4 1.2 1.7 1.1 2.9 2.8 3.3 4.7s.1 3.9-1 5.6c-2.1 3.4-6.9 4.5-10.4 2.3l-.3-.2c-3.1-2.3-4-6.7-1.9-10.1m0 83.4c1.4-2.2 3.7-3.5 6.3-3.5 1.4 0 2.8.4 4 1.2 1.7 1.1 2.9 2.8 3.3 4.7s.1 3.9-1 5.6c-2.1 3.4-6.9 4.5-10.4 2.3l-.3-.2c-3.1-2.3-4-6.7-1.9-10.1m0 93.5c1.4-2.2 3.7-3.5 6.3-3.5 1.4 0 2.8.4 4 1.2 1.7 1.1 2.9 2.8 3.3 4.7s.1 3.9-1 5.6c-2.1 3.4-6.9 4.5-10.4 2.3l-.3-.2c-3.1-2.2-4-6.7-1.9-10.1" style="fill:#fffedb"/></svg>