<?xml version="1.0" encoding="utf-8"?>
<!-- Generator: Adobe Illustrator 28.2.0, SVG Export Plug-In . SVG Version: 6.00 Build 0)  -->
<svg version="1.1" id="Layer_1" xmlns="http://www.w3.org/2000/svg" xmlns:xlink="http://www.w3.org/1999/xlink" x="0px" y="0px"
	 viewBox="0 0 512 512" style="enable-background:new 0 0 512 512;" xml:space="preserve">
<style type="text/css">
	.st0{fill:#FFFFFF;}
</style>
<path class="st0" d="M511.8,313.1c-1.1-22.6-8.9-42.7-22.9-59.7c-18.8-22.8-42.9-37.3-73.1-39.9c-1.6-0.1-4-2-4.3-3.4
	c-7.8-36.4-26-66.6-54.7-90.2c-25.2-20.7-54.4-32.5-86.8-35.4c-20.3-1.8-40.6,0.4-60.2,6.5c-21.5,6.6-40.7,17.5-57.9,32.2
	c-14.4,12.3-26,26.6-35.1,43c-7.4,13.3-13.3,27.2-16,42.4c-0.6,3.1-2.4,4.9-6.1,5.3c-5.4,0.5-10.8,1.6-16,3c-22.2,6-41,17.7-54.8,36
	c-6.6,8.7-11,19.1-16.4,28.7c-1.1,3.2-2.2,6.5-3.2,9.7c-5.1,16.9-5.4,34.2-1.9,51.3c4.5,22.2,15.7,40.8,32.3,56.4
	c20.6,19.4,45.3,28.8,73.1,29c98.4,0.4,196.8,0.3,295.2,0c9.9,0,20.1-1.8,29.8-4.2c28.8-7,50.3-23.9,65.1-49.5
	c1.7-3.2,3.4-6.5,5.1-9.7C510.1,348.1,512.7,331.1,511.8,313.1z M476.9,329c-3.7,31.2-26.1,57-58.7,62.4c-6.4,1.1-13,2.1-19.5,2.1
	c-94.6,0.1-189.3,0.2-283.9,0c-18.9,0-37-3.9-52-16.3c-13.5-11.2-23.2-25-26.3-42.5c-4.5-26,2.1-48.9,21.3-67.4
	c12.8-12.3,28.6-18.4,46.4-19.1c4.8-0.2,9.6-0.4,14.3-1.1c7.9-1.2,12.5-6,13.6-14c0.4-3.2,0.7-6.5,1.1-9.7
	c4.4-12.6,7.5-25.8,13.4-37.6c11-22.2,27.9-39.7,50.2-50.9c11.5-5.8,23.6-11.2,36.1-14c17.1-3.9,34.7-2.7,52,1.4
	c16.9,4.1,32.5,11.1,46,21.6c23.8,18.5,40,42.2,46,72.2c1.1,5.3,2,10.7,2.8,16.1c1.9,13.2,11.2,16.1,20.6,15.8
	c13.2-0.4,25.9,1.7,37.5,7.9C465.1,270.7,480.6,297.2,476.9,329z"/>
</svg>
