<svg xmlns="http://www.w3.org/2000/svg" xml:space="preserve" viewBox="0 0 512 512"><linearGradient id="myheats_svg__a" x1="-100.025" x2="63.845" y1="430.485" y2="430.485" gradientTransform="matrix(2.8346 0 0 -2.8346 307.283 1458.452)" gradientUnits="userSpaceOnUse"><stop offset="0" style="stop-color:#d6eeff"/><stop offset="1" style="stop-color:#0092ff"/></linearGradient><path d="M442 441.8c-4.2 0-8.2-1.8-11-5.1-2.9-3.4-4-7.9-3.1-12.2 16.8-81.8-.8-104-16.4-123.7-4.2-5.3-8.6-10.8-12.1-17.2l-.3-.6c-10.3-20.5-12.3-42.4-12.2-63.2-14.4-12.8-29.8-26.1-45.7-39.5-.3-.3-.6-.5-.9-.8-10.8-10.7-58-43.9-100.5-72.2-30.5 16.2-83.2 25-123.8 29.6-23 2.6-46.6 4.4-66.5 4.9-32.2.9-37.5-1.7-40.4-3.1-5.1-2.4-8.5-7.1-9-12.5-.4-4 1-8 3.7-11 35.2-38.5 98-79.8 169-80.6 1.5 0 3.1.2 4.5.7 9.6 3.1 46.3 29.1 71.2 45.6 14.8 4.7 29.8 3.3 44.8 3.8 27.5.9 58.7 1.9 97.5 29.1 28.1 19.6 26.7 53 25.4 85.3-.1 2.7-.4 9.5-.5 12.2 14.6 13.2 24.6 22.9 36.1 34.2 42.3 37.3 53.1 50.4 59.8 70.5.2.8.3 1.6.4 2.5 1.2 19.1-27 87.7-48.3 111.4-7 7.7-13.8 11.6-21 11.9zm-17.3-172c2.4 4.3 5.7 8.4 9.4 13.1 8.8 11.1 19.7 24.8 25.4 48.1 3.2 12.9 4.4 27.6 3.8 44.4.9-1.9 1.8-3.8 2.7-5.8 11-24.2 16.3-42.5 17.1-48.3-1.9-4.7-10.4-19.5-48-56.5-5.4-5.3-11.2-10.9-17.4-16.7 1.4 7.5 3.6 14.8 7 21.7m-81-108.2c9.5 8 35.2 13.1 44.2 20.9.3-22.2-1.8-36.8-13.6-45.1-28.5-19.9-51.9-22.1-74.9-23 23.1 16 34.5 37.6 44.3 47.2M170.1 63.5c-47.5 1.4-91 23.8-122.3 49.6 17.5-.4 41.6-1.9 68.8-5.2 39.8-4.7 72.6-11.5 94.4-19.4-19-12.3-34.4-21.8-40.9-25" style="fill:url(#myheats_svg__a)"/><path d="M229.2 372.3c-16.7 25-61.4 44.3-97.8 20-38.5-37-25.4-93.9 27.6-116.8 54.4-18.6 108.5 30.4 70.2 96.8m26.4-44.6c-2.1 29-11.3 49.7-27.2 64.7 0 0 30.6 24.9 57.8 9.6 6.7 1.1-5.6 37.5-29.6 49.4-5.2 16.4 1 30.8 32.6 24 0 0 57.3-32.5 38.1-106.9-.1.3-21.8-31.6-71.7-40.8m-77.5-66.1c48.5-.2 74.7 28.6 77.9 60.1 67.6 14.9 102-55.5 71.4-107.7-34.2-50.7-116.6-40-149.3 47.6m319.5 26.8C385.8 176.1 353.5 150.3 275 97.9c9.5-4.1 19.3-7.9 29.1-11.2 8.8-27.2-29.3-23.5-56.8-14.2 0 0-2.4.9-6.6 2.6-9.6-6.4-19.9-13.2-31-20.5-6.6-4.4-15.5-2.6-19.9 4s-2.6 15.5 4 19.9q7.95 5.25 15.3 10.2c-37.4 17.2-90.8 45.8-105.5 75C91.2 212.6 97 264.5 115 295.8c15.9-25.5 45.2-33.2 56.7-34.2 3.7-18.9 9.9-61.5-.5-91 3-13.4 33.6-37.4 73.6-58.3 8.5 5.6 16.4 10.9 23.9 16-12.9 6.6-29.4 21.1-24.6 51.3 27.4-9.8 55-7.8 76.9 11.7 10.8.2 18.5-3.8 23.3-7.6 4.9 4 9.9 8.2 15.1 12.6-6.2 5.4-15.4 11.1-26.2 10.1 14.3 12.8 22.2 36.5 13.1 75.9 41.6 13.8 63.4-13 72.9-31.1 16.9 16.3 35.9 35.1 58.1 57.4 2.8 2.8 6.5 4.2 10.2 4.2s7.3-1.4 10.1-4.2c5.5-5.5 5.6-14.6 0-20.2"/><path d="M114 160.6c16.4-25.5 44-38.5 57.9-44-14.1 8.2-28.3 31-34.1 46.3zm77.5 232c-42-16.2-50-65.6-43-99-19.4 14.9-45.6 50.3-10.6 91.9 9.1 10.7 42.2 15.1 53.6 7.1m57.1-229.7s16.1-20.3 28.9-23.3c10.7 1.6 31.9 11.5 31.9 11.5-13.9-18.1-28.6-21.1-28.6-21.1-19.8 4.9-29.1 21.4-32.2 32.9m44.7 236.6c3.3-1.9 13.9-9.5 15.8-12.6 0 30-26.4 60.8-41.2 63.6 10.5-11.3 26-29.7 25.4-51M187.7 255.7c4.1-9.4 27.8-54.8 65.4-63.6-37.5 24.5-41 67.3-41 67.3-5.6-2.5-19.1-4.4-24.4-3.7" style="fill:#fff"/></svg>