<?xml version="1.0" encoding="utf-8"?>
<!-- Generator: Adobe Illustrator 28.2.0, SVG Export Plug-In . SVG Version: 6.00 Build 0)  -->
<svg version="1.1" id="Layer_1" xmlns="http://www.w3.org/2000/svg" xmlns:xlink="http://www.w3.org/1999/xlink" x="0px" y="0px"
	 viewBox="0 0 512 512" style="enable-background:new 0 0 512 512;" xml:space="preserve">
<style type="text/css">
	.st0{fill-rule:evenodd;clip-rule:evenodd;}
</style>
<g>
	<path class="st0" d="M458.1,229.1c-25.1,0-46.2-17.2-52.2-40.4h-61.8c-13.2,0-24.4,9.5-26.6,22.5l-2.2,13.3
		c-2,12.2-8.2,23.4-17.5,31.6c9.3,8.2,15.5,19.3,17.5,31.6l2.2,13.3c2.2,13,13.4,22.5,26.6,22.5h7.9c6-23.2,27.1-40.4,52.2-40.4
		c29.8,0,53.9,24.1,53.9,53.9s-24.1,53.9-53.9,53.9c-25.1,0-46.2-17.2-52.2-40.4h-7.9c-26.3,0-48.8-19-53.2-45l-2.2-13.3
		c-2.2-13-13.4-22.5-26.6-22.5h-21.4c-6,23.2-27.1,40.4-52.2,40.4s-46.2-17.2-52.2-40.4H106c-6,23.2-27.1,40.4-52.2,40.4
		C24.1,309.9,0,285.8,0,256s24.1-53.9,53.9-53.9c25.1,0,46.2,17.2,52.2,40.4h30.3c6-23.2,27.1-40.4,52.2-40.4s46.2,17.2,52.2,40.4
		h21.4c13.2,0,24.4-9.5,26.6-22.5l2.2-13.3c4.3-26,26.8-45,53.2-45H406c6-23.2,27.1-40.4,52.2-40.4c29.8,0,53.9,24.1,53.9,53.9
		S487.9,229.1,458.1,229.1 M458.1,202.1c14.9,0,26.9-12.1,26.9-26.9s-12.1-26.9-26.9-26.9s-26.9,12.1-26.9,26.9
		S443.2,202.1,458.1,202.1 M53.9,282.9c14.9,0,26.9-12.1,26.9-26.9s-12.1-26.9-26.9-26.9s-27,12-27,26.9S39,282.9,53.9,282.9
		 M215.6,256c0,14.9-12.1,26.9-26.9,26.9s-26.9-12.1-26.9-26.9s12.1-26.9,26.9-26.9S215.6,241.1,215.6,256 M431.2,336.8
		c0,14.9-12.1,26.9-26.9,26.9c-14.9,0-26.9-12.1-26.9-26.9s12.1-26.9,26.9-26.9S431.2,322,431.2,336.8"/>
</g>
</svg>
