<svg xmlns="http://www.w3.org/2000/svg" xml:space="preserve" viewBox="0 0 512 512"><path d="M16.9 89.2c-1.7.3-4.1 1-5.3 1.5-2.4 1.3-7.3 5.9-8 7.4-.3.5-.7 1.4-1 1.9C-.1 104.7 0 96 0 255.8 0 394.8.1 406 1.1 408c.6 1.1 1.5 2.9 2 4 1.3 2.8 5.8 7.3 8.4 8.4 6 2.7-2 2.7 244.7 2.7 174.1.1 236.3-.1 238.5-.6 1.7-.4 4-1.2 5.2-1.8 2.6-1.3 8.3-6.2 8.3-7.3 0-.4.3-1.1.8-1.5.4-.4 1.3-2.4 1.9-4.4 1.1-3.5 1.1-10.9 1.1-151.6 0-105.4-.2-148.6-.7-150.4-2-7.2-5.5-11.7-11.7-15l-2.5-1.4-238.6-.1c-131.1-.1-239.9 0-241.6.2m376.5 24.6c5.7 1.8 12 5.3 15.4 8.6 3.5 3.3 7.2 8.3 7.2 9.7 0 .5.4 1.2 1 1.7.5.4 1 1.5 1 2.2s.4 2.7 1 4.1c2.9 8-.8 21.4-8.1 29.5-4.2 4.7-7.3 6.7-15.3 10.2-3.4 1.5-19.1 1.5-22.5 0-6.8-2.9-9.9-4.6-12.7-7.2-2.5-2.2-6.6-7.3-6.6-8.2 0-.3-.4-1-1-1.4s-1-1.3-1-2c0-.6-.5-2-1.1-2.9-1.7-2.6-1.7-18.6.1-22.2 3.1-6.5 3.9-7.9 4.3-7.9.3 0 .5-.4.5-.9 0-1 6.8-7.5 9.2-8.8 4.3-2.3 7.4-3.7 10.2-4.5 4.3-1.3 14.3-1.4 18.4 0m-275.9 1c.3.3.6 5.5.6 11.4l.1 10.9 9.7.3c5.3.2 9.7.2 9.9.1.1-.1.3-5.2.3-11.2 0-7.6.3-11.1.8-11.6s3.5-.8 9.2-.8c6.8 0 8.6.2 9.4 1 .9.9 1 4.6 1 32.1v31.1l-1.4 1c-1.1.8-3.2 1-9 1-4.1 0-8.1-.3-8.8-.6-1.1-.6-1.2-1.5-1.2-12.1V156l-9.9.2-10 .2.1 10.6c.2 13.7.6 13.2-10.2 13.2-4.2 0-8.2-.3-8.9-.6-1.1-.6-1.2-1.7-1.2-32.3 0-24.5.2-31.9.8-32.5.9-1 17.7-.9 18.7 0m105.6 0c.5.5.8 3.2.8 8.2 0 6.2-.2 7.5-1 7.8-.6.2-8 .4-16.4.4-8.5 0-15.6.1-15.7.3-.1.1-.1 1.8-.1 3.8l.3 3.6h14.2c12.1 0 14.4.1 15.2 1 .8.8 1 2.4 1 7.3 0 8.7.8 8.3-16.5 8.3l-13.7-.1v7.2l15.5-.1c9.8 0 15.8.2 16.7.6 1.1.6 1.3 1.3 1.3 7.8 0 5.7-.2 7.3-1.1 8.3-1 1.1-2.6 1.1-26 1.1-21.9 0-25.1-.1-25.9-1-.9-.9-1-4.7-1-32.4 0-29.3.1-31.5 1.1-32.1 1.5-1.1 50.3-1 51.3 0m31.9.5c.4.6.6 9.9.5 24l-.2 23H270c10.5 0 14.8.2 15.4.8.5.5.8 3.1.8 7.6 0 10.2 2.4 9.4-25.9 9.4-17.4 0-23.6-.2-24.2-.8-1.1-1.1-1.1-63.5.1-64.7 1.2-1.1 18-.6 18.8.7m58.8-.9c.9.3 1 3.1 1 24.2v23.8l15.1.1 15.1.2.2 8c.1 6.9 0 8-1 8.7-.8.6-6.6.8-24.4.8h-23.4l-1-1.4c-.9-1.3-1-5.3-1-32 0-16.8.3-30.8.5-31.2.3-.4.9-.9 1.4-1.1 1.4-.5 16.2-.6 17.5-.1m-209.1 78.9c.8.2 1.7 1 2.1 1.7s1.3 2.2 2 3.3c.7 1 1.5 2.5 1.9 3.2.8 1.6 1.9 3.4 3.2 5.2l1.1 1.5 1-1.6c.6-.8 1-1.7 1-1.9 0-.6 4.6-7.6 5.2-7.8.3-.1.5-.6.5-1.1 0-1.6 2.7-2.9 6-2.9 1.7 0 3.6.3 4 .5.6.4.8 4.8.6 19.6l-.2 19-3.7.2c-2.2.1-4.1-.1-4.6-.6-.7-.6-.9-2.9-.9-10.4l-.1-9.6-1.8 2.2c-1 1.2-1.9 2.4-1.9 2.7 0 .9-4.7 6.8-5.4 6.8-.8 0-3.1-2.4-3.6-3.5-.1-.4-1.5-2.7-3.1-5.1l-2.9-4.5-.3 10.8-.3 10.8-3.9.2c-2.8.1-4.1-.1-4.6-.8-.6-.6-.7-5.6-.6-19.1.2-15.4.3-18.3 1.1-18.8 1.3-.5 6.1-.6 8.2 0m44.1 1.2c1.1.9 2 2.2 2 2.8s.4 1.5 1 1.9c.5.4 1 1 1 1.3s.9 1.8 2 3.5l2 2.9 1.1-1.5c.6-.8 1.2-1.8 1.2-2.3 0-.4.4-1.1.8-1.6s1-1.3 1.3-1.8c2.7-5.5 4.5-7 8.5-7 1.8 0 3.8.2 4.3.4 1.5.6 1.3 2.7-.6 5.1-.9 1.1-1.6 2.2-1.6 2.4s-.8 1.5-1.8 3.1c-1 1.5-3.1 4.8-4.8 7.4l-3 4.6-.2 7.6c-.1 5.7-.4 7.8-1.1 8.3-.5.3-2.7.5-5 .4l-4.1-.2-.2-7.9c-.2-7.5-.3-8-2-10.2-1-1.3-2-2.7-2.2-3.2-.3-.5-1-1.8-1.7-2.9s-1.5-2.4-1.7-2.9-.6-1.1-.8-1.3c-.8-.7-3.2-4.5-3.2-5 0-.3-.4-1-1-1.4-1.1-1-1.2-2.7-.2-3.7.4-.4 2.4-.8 4.4-.8 3 .4 4 .7 5.6 2m54.8-.4c.8.7 4.4 5.1 7.9 9.9 3.5 4.7 6.6 8.6 6.9 8.6s.4-3.9.4-8.6c0-7.8.1-8.7 1.3-9.9 1.5-1.5 7.1-1.8 8.2-.4.5.6.7 6.3.6 19.5l-.2 18.7-3.8.2c-3.6.2-3.9.1-5.6-1.9-1-1.1-2.3-2.9-2.8-3.9s-1.2-1.7-1.5-1.7c-.4 0-.6-.3-.6-.7 0-.3-.8-1.5-1.9-2.7-1-1.1-1.9-2.4-1.9-2.7-.1-.4-1.5-2.2-3.2-4.1l-3.1-3.5.1 9.9c0 5.5-.1 10.2-.4 10.7-.7 1-7.7.9-8.6-.2-.6-.6-.7-5.9-.6-19.1.2-15.4.3-18.3 1.1-18.8 1.6-1 6.1-.6 7.7.7m54.1-.1c1.1 1.3 3.7 6.6 3.7 7.6 0 .4.4 1.5.9 2.5 1 1.9 2.6 5.7 3.2 7.2.2.5.6 1.4 1 1.9.3.5 1.1 2.2 1.7 3.8 1.3 3.5 2.7 6.7 3.9 9 .4 1 1 2.7 1 3.8l.2 2.2-4.2.2c-3.9.2-4.3.1-5.6-1.5-.8-1-1.3-2.2-1.3-2.7s-.4-1.7-1-2.5c-1-1.3-1.4-1.3-7.8-1.1-7.5.3-7.9.4-9.1 4.9-.7 2.8-1.8 3.2-6.9 2.9-4-.2-4.6-1.3-3.1-4.6.5-1 1.4-3 2-4.3 1-2.2 1.5-3.4 3.8-8.7.5-1.2 1.4-3.3 2-4.6s1.5-3.4 2.1-4.8c.5-1.3 1.4-3.2 1.9-4.1.5-1 .9-2.2.9-2.7s.6-1.8 1.5-3.1c1.3-2.1 1.6-2.2 5-2.3 2.3-.1 3.5.2 4.2 1m30.1 0c1.1 1 5.7 7.9 7.8 11.9 1 2 1.9 2 2.7.1.8-1.8 1.8-3.4 4-6.2 1-1.3 1.7-2.6 1.7-3s.9-1.4 2-2.4c1.8-1.5 2.4-1.7 5.5-1.5 2.4.3 3.7.7 4.3 1.5 1.2 1.7 1.3 35.9.1 37.1-1.1 1.1-8.5 1-9.3-.1-.5-.6-.8-3.9-.7-10 .1-5 .1-9.4 0-9.7 0-.6-4.2 5.9-6.2 9.6-1.1 2.1-4.3 2.2-5.2.1-.8-1.8-2.1-3.8-2.7-4.3-.3-.2-1-1.3-1.7-2.5-2.1-3.9-2.4-3-2.1 6.6.3 10.9.2 11.3-5.5 11.3-2 0-3.9-.3-4.4-.8-.6-.6-.8-5.5-.8-18.4 0-16.9.1-17.7 1.3-19 1.6-1.8 7.3-1.9 9.2-.3m64-.5c1 .6 1.2 1.4 1.2 4.4 0 2.4-.3 4-.9 4.5s-3.7.7-9.4.6l-8.5-.1-.2 2.6-.2 2.6h8.2c9.2 0 9-.1 9 4.5 0 4.5.1 4.5-9 4.5h-8.2v6.4l8.5-.1c4.6-.1 8.9-.1 9.5-.1 1 .1 1.1.6 1 4.3l-.2 4.3-13.9.2c-9.7.1-14.2-.1-14.8-.6-.7-.6-.9-4.2-.9-18.6 0-9.8.3-18.2.5-18.6.3-.4.9-.9 1.4-1.1 1.8-.5 25.5-.3 26.9.3m32.7 1c.7 1 .9 5 .9 18.5 0 14.9-.1 17.5-1 18.3-1.2 1.2-7.9 1.4-9 .3-.6-.6-.8-5.6-.8-18.7 0-20.9-.2-20.3 5.6-19.8 2.4.1 3.8.6 4.3 1.4m26.8-.7c.6.5 1.7 1 2.4 1 .6 0 2 .6 3.2 1.4 1.1.8 2.2 1.5 2.3 1.6.6.4-.8 3.4-2.7 5.5-2.2 2.4-2.2 2.5-4 1.5-6.4-3.4-8.3-3.6-10.4-1.5l-1.5 1.6 2.1 1.3c1.2.8 3.2 1.5 4.4 1.7s3.1.8 4 1.3c1 .5 2.1 1 2.5 1s1.9 1 3.4 2.2c4.6 3.8 5 10.2 1.1 15.5-.8 1.1-2 2.3-2.6 2.5s-1.5.8-2.2 1.3c-1.7 1.5-13.1 1.3-15.1-.1-.8-.6-1.8-1-2.3-1-1.3 0-5.2-2.8-5.5-4.1-.7-2.7 5.6-8.3 6.9-6.2 1.6 2.5 10.6 4.3 12.3 2.5 2.2-2.2-.4-4.4-6.7-5.6-1.5-.3-3.1-.8-3.5-1.2s-1.1-.7-1.7-.7c-2 0-5.7-4.4-6.1-7.3-.9-6.1 1.5-10.9 6.6-13.5 2.9-1.8 11.1-2.1 13.1-.7m73.6 53.8c1.4.5 3.9 2.4 5.7 4.2 5.9 5.9 5.5.3 5.5 75.7 0 64.1-.1 66.3-1.2 69-1.8 4.1-5.3 7.7-8.6 9-.3.1-1.7.6-2.9 1-3.2 1-451.4 1-454.6 0-1.3-.4-3.1-1.1-4.2-1.7-2.3-1.1-6.7-5.8-6.7-7.1 0-.5-.4-1.5-1-2.2-1.4-1.9-1.4-135.5 0-137.4.5-.7 1-1.8 1-2.4 0-1.3 6.8-7.6 8.2-7.6.6-.1 1.7-.4 2.6-1 2.3-1.2 452.5-.9 456.2.5M377.8 132.3c-2.7 1.8-4.6 3.6-6.3 6.2-1.5 2.3-1.7 3.1-1.7 8.6 0 5.7.1 6.2 1.9 8.9 1.1 1.5 3.2 3.7 4.8 4.8 2.6 1.7 3.3 1.9 8.1 1.8 4 0 5.5-.3 6.4-1.1.6-.6 1.5-1.1 1.9-1.1 2 0 6.5-8.8 6.5-12.7 0-2.5-2-9.2-3.4-10.9-.6-.9-2.5-2.5-4.1-3.6-2.7-1.8-3.4-2-7.8-2-3.2 0-5.2.4-6.3 1.1m-125.2 76c-.4.4-.8 1.3-.8 1.9s-.3 1.7-.8 2.4c-1 1.5-.8 1.7 2.4 2 2.2.2 2.5 0 2.7-1.1.1-.7-.3-1.7-.8-2.2-.5-.4-1-1.3-1-2 .1-1.4-.8-1.9-1.7-1"/></svg>