<svg xmlns="http://www.w3.org/2000/svg" xml:space="preserve" viewBox="0 0 512 512"><path d="M464.1 114.1c-17.4 0-33.5 9.4-41.9 24.7l-1 2-37.3 74.1-47.5 93.6 31.1 61.3 1.7 3.4c4.8 8.5 12 15.3 20.8 19.7 8.7-4.3 16-11.2 20.8-19.7l1.7-3.4 93.3-184 2.3-4.4c10.6-24.2-.5-52.5-24.8-63-6-2.6-12.5-4-19-4zm-288.2 89.1-31.1-60.9-1.7-3.4c-4.8-8.5-12-15.3-20.7-19.6-8.7 4.3-15.9 11.1-20.7 19.6l-1.8 3.4L6.6 326.1l-2.3 4.4c-10.8 24.1.1 52.5 24.2 63.2 22.7 10.1 49.4 1.2 61.4-20.6l1-1.9 37.6-74.1 47.5-93.6c0 .1-.1-.3-.1-.3" style="fill:#ff5100"/><linearGradient id="namecheap_svg__a" x1="-82.743" x2="-81.061" y1="14.859" y2="9.144" gradientTransform="matrix(28.8864 0 0 45.76 2788 -301.38)" gradientUnits="userSpaceOnUse"><stop offset="0" style="stop-color:#d4202c"/><stop offset=".1" style="stop-color:#dc3d29;stop-opacity:.79"/><stop offset=".2" style="stop-color:#e45926;stop-opacity:.58"/><stop offset=".32" style="stop-color:#ea7123;stop-opacity:.4"/><stop offset=".43" style="stop-color:#f08521;stop-opacity:.25"/><stop offset=".55" style="stop-color:#f4941f;stop-opacity:.14"/><stop offset=".68" style="stop-color:#f79f1e;stop-opacity:6.000000e-02"/><stop offset=".82" style="stop-color:#f8a51d;stop-opacity:2.000000e-02"/><stop offset="1" style="stop-color:#f9a71d;stop-opacity:0"/></linearGradient><path d="M464 114.1c-17.4 0-33.4 9.5-41.8 24.7l-1 2-37.6 74.1-47.6 93.6 31.2 61.3 1.7 3.4c4.8 8.5 12 15.4 20.8 19.7 8.7-4.3 16-11.2 20.8-19.7l1.8-3.4 93.6-184 2.2-4.4c10.6-24.2-.5-52.5-24.8-63-6-2.6-12.5-4-19-4-.2-.1-.3-.3-.3-.3" style="fill:url(#namecheap_svg__a)"/><linearGradient id="namecheap_svg__b" x1="-90.658" x2="-92.341" y1="9.482" y2="15.197" gradientTransform="matrix(28.9064 0 0 45.76 2734.803 -300.537)" gradientUnits="userSpaceOnUse"><stop offset="0" style="stop-color:#d4202c"/><stop offset=".1" style="stop-color:#dc3d29;stop-opacity:.79"/><stop offset=".2" style="stop-color:#e45926;stop-opacity:.58"/><stop offset=".32" style="stop-color:#ea7123;stop-opacity:.4"/><stop offset=".43" style="stop-color:#f08521;stop-opacity:.25"/><stop offset=".55" style="stop-color:#f4941f;stop-opacity:.14"/><stop offset=".68" style="stop-color:#f79f1e;stop-opacity:6.000000e-02"/><stop offset=".82" style="stop-color:#f8a51d;stop-opacity:2.000000e-02"/><stop offset="1" style="stop-color:#f9a71d;stop-opacity:0"/></linearGradient><path d="M48 397.8c17.3.1 33.3-9.3 41.8-24.4l1-2 37.6-74.1 47.5-93.6-30.9-61.6-1.7-3.4c-4.8-8.5-12.1-15.4-20.8-19.7-8.7 4.3-16 11.2-20.8 19.7l-1.7 3.4-93.7 184-2.3 4.5c-10.6 24.2.5 52.5 24.8 63 6 2.6 12.5 4 19 4z" style="fill:url(#namecheap_svg__b)"/><path d="m175.9 203.2-31.1-60.9-1.7-3.4c-4.8-8.5-12-15.4-20.8-19.7 2.9-1.4 5.9-2.6 9.1-3.4 4-1 8.1-1.5 12.2-1.5h65.1c17.3 0 33.2 9.3 41.8 24.4l1.7 3.4 84.1 166.7 31 60.9 1.7 3.4c4.8 8.6 12.2 15.5 21 19.9-6.6 3.2-13.8 4.9-21.1 4.9h-65.4c-17.3-.1-33.2-9.4-41.7-24.4L260 370z" style="fill:#ff8c44"/></svg>