<svg xmlns="http://www.w3.org/2000/svg" xml:space="preserve" viewBox="0 0 512 512"><path d="M445 0H67C45.6 0 28.1 16.8 27.1 37.9c0 .7-.1 1.4-.1 2.1v432c0 .7 0 1.4.1 2 .5 9.9 4.6 19.1 11.7 26.2C46.3 507.8 56.3 512 67 512h378c22 0 40-17.9 40-40V40c0-22.1-17.9-40-40-40M67 486.1c-6.3 0-11.6-4.1-13.4-9.8v-.1c-.1-.3-.2-.7-.3-1 0-.1-.1-.2-.1-.3-.1-.3-.1-.6-.1-.9 0-.2-.1-.3-.1-.5 0-.5-.1-.9-.1-1.4V40c0-7.7 6.3-14 14.1-14h68v460.2H67zM459.1 472c0 7.7-6.3 14-14.1 14H160.9V25.9H445c7.7 0 14.1 6.3 14.1 14z"/></svg>