<svg xmlns="http://www.w3.org/2000/svg" xml:space="preserve" viewBox="0 0 512 512"><path d="M308.5.4c.6-.4 1.3-.5 2-.4s1.3.5 1.7 1.1.6 1.3.4 2c-.3 2-.7 3.9-1.1 5.9-7.1 33.2-21 64.6-41.2 92.7 7.8 5.8 14.5 12.5 20.4 19.8 19.8-27.8 34.2-61.9 42.1-96.4.4-1.9.8-3.9 1.2-5.9.1-.7.5-1.3 1.1-1.7s1.3-.6 1.9-.5c.7.1 1.3.5 1.7 1 .4.6.6 1.3.6 1.9-.2 2-.5 4.1-.8 6.1-5.6 36.5-17.2 71.5-37 104.2-.7 1.1-1.4 2.1-2.2 3.1 3.9 6.1 7.6 12.7 11.1 19.6 10.4 20.6 15.8 43.3 17.5 66.2.2 1.9.2 8.4 1.7 9.5 3.6.3 17.9-18.6 20.2-22 1.9-2.8 6.8-10.3 7.7-13.5 3.1-11.4 4.4-23.4 5.3-35.2 2.1-23.8 14.7-46.8 33.8-61.1 7.7-5.8 23.2-14.9 32.1-5.6 7.8 8.2-7.7 16.7-10.6 22.8-1.9 3.9.5 8.5 1.1 12.4 1.1 6.4-.1 10.9-2.7 16.7-.5 1.2-1.2 2.5-.6 3.7 3.5 2.6 7.5-6.3 9-8.3 4.6-6.6 11.2-10.4 17.3-15.3.7-.6 1-1.5.8-2.4-1.3-6.4-2.2-18.9 1-23.5 11-15.9 26.7-.2 29.1 13.4 2.4 12.9 1.8 26-1.4 38.7-6.5 25.3-20.6 48.7-41.6 64.6-7.9 5.9-15.2 9.2-24.2 11.7-1.1.3-2.1 1-2.8 2-23.8 34.1-60.2 59-86.8 70.2-7.3 6.8-13.4 16-20.3 23.4-1.3 1.3-1.1 3.5.4 4.5 3.3 2.1 6.7 3.7 10.2 5.7 20.6 12.2 33.5 31.7 36.6 55.5 2.4 16.9 1.4 34-3 50.5 22.5 7 58.5 43.9 25.7 61.1-22.6 11.3-56.6 10-81 11.6-51.9 3.1-104.4 1.5-156.3-2.5-5.8-.4-34.9-1.8-37.5-6.2-.3-7.8 34.5-7.9 40.3-10-3-2-7.5-3.8-10.8-5.5q-8.1-4.2-15.3-9.9c-7.2-5.7-10.5-10.8-15.8-17.9-1.6-2.1-7.9-5-10.4-7.1-16-13.6-23.9-35.4-25.9-55.8-.6-6.3-1.3-5.5-4.6-10.4-15.4-23-13.2-66.4-1.2-90.1-18.6-63.3 26.8-161.3 80.1-196.5 33.1-22.2 78.8-26.5 116-11.6 5.6 2.2 10.7 4.7 15.4 7.4 21-24.6 37.7-54.8 46.9-86.6.5-1.9 1-3.7 1.5-5.6.1-.5.6-1.1 1.2-1.5" style="fill:#121729"/><path d="M425.6 200.2c-30.4 26.7-73.2-8.7-41.7-34.6 12.6-10.5 25.4-4.6 39.3-8.4 7.7-2.5 10.1-12.2 15.8-17.6 4.1-3.9 14.4-6.9 15.8-12.4 1.5-6.1-6.2-20.4.4-23.4 21.7 32.2-5.2 75-29.6 96.4M162.9 356.8c-9.8-8.7-15.9-37.4-26.2-34.2-9.5 2.9-2.7 30.7-.6 43.8.3 1.6 2.9 2.4 4.1 1.4 6-5 14.7-7.8 22.2-9 .8-.2 1.1-1.4.5-2m85.4 56.2c4-8.1-22.8-35.1-56.3-40.5-12.6-2-24.7-4.5-37.3.2-10.2 3.9-18.4 10.2-7.3 34.8 10.4 23.3 35.1 43.7 76.1 43.4 1.8 0 2.3-2.6.8-3.5-25.7-14.9-39-49.8 24-34.4m124.6-249.6c12.2-19.2 34.1-4.8 35.6-33.4-3-12.6 1.5-23.7 7.5-30.9-6.9 0-16.1 6.9-29.3 22.5s-17.9 48.4-13.8 41.8M61.4 284c-14.8-56.7 38.3-164.1 96.7-183.2 24.4-10.8 55-8.8 79.4.2 2.8 1 5.9 2.3 8.3 4.2 1.5 1.1 1.8 3.2.8 4.8-4.7 7.4-12.9 11.7-17.4 19.1-2.8 4.6.3 8.3 4.4 10.4 10.3 4.2 18.7-12.6 24.9-20.9 1.3-1.7 3.7-2.1 5.5-.8 19.9 13.7 32.7 39.5 39.7 60.8 0 .1 0 .1.1.2-5.4-7.5-14.4-12.1-24.2-11.3-15 1.2-26.2 14.4-24.9 29.5 1.2 15.1 14.4 26.3 29.4 25 13.6-1.2 24-12.2 24.8-25.5 7.2 29.3 9.5 63.4-3.6 89.6-7.3 14.4-15.1 25.3-35.4 29.8-20.8 4.5-46.3-3.7-68.1 21.6-4.3 4.6-8.4 11.5-13.3 14.8-7.7 5.3-15.2-5.2-19.7-13.4-6.7-12.2-15.2-26-24.6-28.8-13.1-5.6-23.6 3.1-22.4 18.7s-9.1 7.3-22.9-.7C85 320 66.6 303.6 61.4 284m113.2-56.4c.4 1.6 1 3.2 1.6 4.7 7.9 17.7 26.8 31.8 50.3 25.9 10.4-2.9 17.8-11.2 20.9-19.3.6-1.4 1-2.8 1.4-4.3.5-2.2.5-4.5-.3-6.7-.7-2.1-2.1-3.9-4-4.9s-4.1-1.3-6.3-.8-4.2 1.7-5.8 3.3c-.8.7-1.6 1.3-2.4 1.9-4.5 3.4-7.9 4.8-10.9 5.6-6.2 2.3-18.8-2.2-25.5-10.2-.5-.6-1-1.3-1.5-1.9-1.2-2-2.9-3.7-5.1-4.6s-4.6-1-6.8-.2-3.9 2.5-5 4.6c-.9 2.1-1.1 4.6-.6 6.9M117.8 198c1.2 14.4 13.7 25.1 28 23.9s24.9-13.8 23.7-28.2c-1.2-14.3-13.7-25-27.9-23.9-14.3 1.2-25 13.8-23.8 28.2m1.2 196.5c5.1-.9 8.6-5.4 7.5-10.5-.6-2.7-1.3-5.5-2-8.3-1.9-7.8-9.7-16.3-17.3-18.9-16-5.5-38.8-16.8-49.5-30.8-1.5-1.9-4.8-1.5-5.3.9-5.5 31.4 1.7 78.8 66.6 67.6m267.8-172.7c-7.2-4.2-12.5-7.7-18.1-14.4-1.2-1.5-3.6-1.3-4.5.4-5.8 10.5-15.3 24.3-29.3 35.2-2.9 2.3-4.7 5.7-5 9.3-.6 9.5-2.7 17.3-4.5 23.4 4.5 7.8 51.2-34.3 62.3-50.6.7-1.1.3-2.6-.9-3.3m-46.6 233.1c-3.8-1.6-7.4.9-9.6 4.4-8.6 14-24.2 22.8-35.6 29.2-1.4.8-1 2.8.6 2.9 16.2 1.4 53.7.8 61.7-7.5 9.5-9.9-5.8-24.3-17.1-29M326.8 393c-2.6-55.8-73.1-88.8-126.3-32.8-.9.9-.5 2.5.8 2.9 26.1 7.4 69.5 32.5 57.9 55.7-6.2 12.4-23.3 4.3-36.3 3.1-4-.4-6.1 3.7-3.2 6.5 8.7 8.3 25.1 12.6 23.1 24.7-2.8 17.3-32.3 13.2-48.2 8.9-3.5-1-7.1 1.7-8.3 5.1-3.8 11.8-16.4 14.2-20.4 17.8 10.7 2.7 163.6 26.7 160.9-91.9m-186.7 28.9c-1.7-3.2-3-5.7-4-7.5s-3.1-2.7-5.1-2.4c-10.8 1.3-32.8 1.5-57.4-6.1-1.7-.5-3.5.8-3.3 2.6 2.7 23.5 19.2 55 68.1 20.8 2.3-1.6 3.1-4.8 1.7-7.4m27.6 29c-3.9-2.4-7.7-4.3-11.2-5.9-6.2-2.8-14.6-.2-20.4 3.4-5.2 3.3-12.9 6.8-23.9 9.5-1.7.4-2.5 2.3-1.3 3.6 8.9 10.2 38 28 58.7-1.1 2.3-3.1 1.4-7.5-1.9-9.5" style="fill:#56edd6"/><path d="M158.1 100.8c13.3-5.9 28.5-8 43.5-7.2-11 .6-21.7 2.9-31.5 7.2C111.7 119.9 58.6 227.3 73.4 284c5.2 19.7 23.5 36 37.4 44 3.9 2.3 7.6 4.5 10.7 6.3-1.8 7.4-11 .4-22.7-6.3-13.8-8-32.2-24.3-37.4-44-14.8-56.7 38.3-164.1 96.7-183.2" style="fill:#fff;fill-opacity:.71"/><path d="M287.2 174.5c2.2 0 4.2.3 6.2 1.3 2.7 1.3 4.6 3.7 5.5 6.5.7 2.5.4 5.1-1 7.3-1.9 3-4.6 4.2-7.9 5.1-2.4.4-4.7.3-7-.8-2.4-1.1-4.2-3.2-4.9-5.7-.8-2.7-.4-5.7 1-8.1 1.8-3 4.8-4.8 8.1-5.6m-137 3.6c2 0 3.8.3 5.7 1.3 2.4 1.3 4.2 3.5 5 6.1.7 2.3.3 4.8-.9 6.9-1.7 2.9-4.2 4-7.2 4.8-2.2.4-4.3.3-6.4-.8-2.2-1.1-3.8-3-4.5-5.3-.7-2.6-.4-5.3.9-7.7 1.6-2.8 4.4-4.6 7.4-5.3" style="fill:#fefefe"/></svg>