<?xml version="1.0" encoding="utf-8"?>
<!-- Generator: Adobe Illustrator 28.2.0, SVG Export Plug-In . SVG Version: 6.00 Build 0)  -->
<svg version="1.1" id="Layer_1" xmlns="http://www.w3.org/2000/svg" xmlns:xlink="http://www.w3.org/1999/xlink" x="0px" y="0px"
	 viewBox="0 0 256 256" style="enable-background:new 0 0 256 256;" xml:space="preserve">
<g>
	<path d="M128,256C57.4,256,0,198.6,0,128S57.4,0,128,0s128,57.4,128,128S198.6,256,128,256z M128,10.4
		C63.1,10.4,10.4,63.1,10.4,128S63.1,245.6,128,245.6S245.6,192.9,245.6,128S192.9,10.4,128,10.4z M128,176.9
		c-27,0-48.9-21.9-48.9-48.9c0-27,21.9-48.9,48.9-48.9c27,0,48.9,21.9,48.9,48.9C176.9,155,155,176.9,128,176.9z M128,89.5
		c-21.2,0-38.5,17.3-38.5,38.5c0,21.2,17.3,38.5,38.5,38.5c21.2,0,38.5-17.3,38.5-38.5C166.5,106.8,149.2,89.5,128,89.5z"/>
	<path d="M128,206.8c-2.8,0-5-2.2-5-5s2.2-5,5-5c37.9,0,68.8-30.9,68.8-68.8c0-2.8,2.2-5,5-5s5,2.2,5,5
		C206.8,171.5,171.5,206.8,128,206.8z M54.2,133c-2.8,0-5-2.2-5-5c0-43.5,35.3-78.8,78.8-78.8c2.8,0,5,2.2,5,5s-2.2,5-5,5
		c-37.9,0-68.8,30.9-68.8,68.8C59.2,130.8,57,133,54.2,133z"/>
	<path d="M128,229.9c-2.8,0-5-2.2-5-5s2.2-5,5-5c42.7,0,80.4-30.2,89.7-71.7c0.6-2.7,3.3-4.4,6-3.8c2.7,0.6,4.4,3.3,3.8,6
		c-5,22.2-17.5,42.4-35.3,56.8C174.1,221.8,151.3,229.9,128,229.9z M224.8,136.7c-0.1,0-0.3,0-0.4,0c-2.8-0.2-4.8-2.6-4.6-5.4
		c0.1-1,0.1-2.2,0.1-3.3c0-2.8,2.2-5,5-5s5,2.2,5,5c0,1.3,0,2.7-0.1,4.1C229.6,134.7,227.4,136.7,224.8,136.7z M31.1,133
		c-2.8,0-5-2.2-5-5c0-1.2,0-2.4,0.1-3.8c0.2-2.7,2.7-4.8,5.4-4.5c2.8,0.3,4.8,2.7,4.5,5.4c-0.1,0.9-0.1,1.8-0.1,2.8
		C36.1,130.8,33.9,133,31.1,133z M33,113.7c-0.3,0-0.7,0-1-0.1c-2.7-0.6-4.5-3.2-3.9-5.9c9.6-47.3,51.6-81.6,99.9-81.6
		c2.8,0,5,2.2,5,5s-2.2,5-5,5c-43.5,0-81.4,31-90.1,73.6C37.4,112.1,35.3,113.7,33,113.7z"/>
	<path d="M128,142c-7.7,0-14-6.3-14-14s6.3-14,14-14s14,6.3,14,14S135.7,142,128,142z M128,124c-2.2,0-4,1.8-4,4c0,2.2,1.8,4,4,4
		c2.2,0,4-1.8,4-4C132,125.8,130.2,124,128,124z"/>
</g>
</svg>
