<svg xmlns="http://www.w3.org/2000/svg" xml:space="preserve" viewBox="0 0 512 512"><path d="M243.6 491c-9.9-5.2-2.6-24.4 4.2-43.1 2.6-6.8 5.2-13.5 6.8-20.3.5-.5 1-1 1-2.1 3.6-13.5 4.7-32.2 6.2-45.7l.5-5.7c0-2.1-1-3.6-3.1-3.6s-3.6 1-3.6 3.1l-.5 5.7c-.5 7.8-1.6 17.2-2.6 26.5-32.8 7.3-81.6-2.1-93.6-6.8l-.5-.5c-.5 0-1-.5-1.6-1 0-.5-.5-.5-1-1-.5 0-1-.5-1.6-.5-6.8-3.6-15.6-9.4-19.8-14-1-1.6-3.6-1.6-4.7-.5-1.6 1-1.6 3.6-.5 4.7 4.7 5.7 14.6 12 21.8 15.6.5 10.9 4.7 23.4 8.8 35.4 6.2 18.2 12.5 36.9 4.2 45.2-4.2 4.2-8.3 5.7-13 5.2-15.1-1.6-30.7-24.4-34.8-31.7-41.1-66.5-44.7-171-8.3-232.9 6.8-12 17.2-28.6 26-38l7.8-7.8c3.1-2.6 4.7-4.7 6.2-5.7 9.9 3.1 21.8 6.2 34.8 6.2 8.3 0 17.7-1 26-4.7 1.6-.5 2.6-2.6 2.1-4.7-.5-1.6-2.6-2.6-4.7-2.1-20.3 7.8-42.6 3.1-57.7-2.1-12.5-6.2-18.2-9.9-26-21.8-5.7-9.4-7.3-22.9-8.3-35.9-.5-6.8-1-13-2.1-18.7-5.2-23.9-22.9-33.8-37.4-34.3-18.2-1-34.8 9.4-40.6 25.5-1.6 5.2-2.1 12-2.1 18.7-.5 9.4-.5 19.8-5.2 23.9-1.6 1.6-3.6 2.1-6.2 1.6-7.3-.5-12.5-3.6-16.1-10.4-8.8-16.6-3.1-46.8 4.7-59.3C24.2 27.8 69.5 8 98 22.1c7.3 3.6 22.4 10.9 31.2 26.5l1.6 2.6c2.1 3.6 4.7 8.3 5.2 10.9 1 2.6 1.6 6.8 1.6 9.4.5 12 4.2 36.4 10.4 49.9 7.8 15.6 21.8 24.4 35.9 22.4l34.3-5.7c38.5-5.2 86.3 10.4 115.4 37.4 0 0 .5 0 .5.5.5.5 1.6 1.6 2.6 2.1 16.1 13.5 44.7 62.9 49.9 82.7.5 1.6 1.6 2.6 3.1 2.6h1c2.1-.5 3.1-2.6 2.6-4.2-5.2-21.3-34.8-72.3-52.5-86.8 15.1-25.5 50.4-66 74.9-62.9 2.1 3.1 2.1 18.7 2.1 29.1 0 5.7 0 12 .5 17.2 0 3.1.5 6.2 1 8.8 0 1.6 1 2.6 2.6 2.6 8.3 2.1 32.2 20.8 46.8 38.5 1.6 1.6 3.1 3.6 4.7 6.2 9.9 14 15.6 33.8 16.6 46.3 1.6 15.1-.5 28.6-5.7 40 5.7 3.1 12 5.7 18.2 8.3 2.6 1 5.2 2.1 7.3 3.1 1.6.5 2.6 2.6 2.1 4.7-.5 1.6-2.1 2.1-3.1 2.1-.5 0-1 0-1.6-.5-2.6-1-4.7-2.1-7.3-3.1-6.2-2.6-13-5.2-19.2-8.3-1 2.1-2.6 3.6-3.6 5.2 6.8 6.8 14 12.5 21.3 16.6 1.6 1 2.1 3.1 1 4.7-.5 1-1.6 1.6-3.1 1.6-.5 0-1 0-1.6-.5-7.8-4.7-15.6-10.9-22.4-17.7-2.6 2.6-5.2 5.2-8.3 7.3-20.3 16.1-45.7 19.2-51.5 18.2 1-12 1-22.4 0-38.5 0-2.1-1.6-3.1-3.6-3.1-2.1 0-3.1 1.6-3.1 3.6 1.6 22.9 1 34.3-2.6 55.1-2.1 7.3-4.2 15.6-6.8 24.4-9.4 33.3-14.6 53.5-13 59.8 0 .5.5 1.6 1 1.6 7.8 5.7 10.9 12 8.8 17.7-2.1 6.2-9.4 10.4-17.2 10.9-5.2 0-17.2-1.6-22.9-18.2-3.6-9.9-4.2-18.2-4.7-28.1 0-2.6-.5-4.7-.5-7.3 17.2-12 35.9-31.2 40.6-53.5.5-2.1-.5-3.6-2.6-4.2-2.1-.5-3.6.5-4.2 2.6-5.2 21.8-24.4 41.1-41.6 52-1 .5-2.1 1-3.1 1.6-2.6 1-7.3 3.6-11.4 5.2 9.4-21.3 25-68.6 14-101.9-.5-1.6-2.6-2.6-4.2-2.1-2.1.5-2.6 2.6-2.1 4.2 11.4 34.3-7.8 85.8-16.6 102.4-3.6 5.2-7.3 12-10.9 19.2-9.9 19.2-22.4 43.1-39.5 48.3-7.6 4.6-14.9 3.6-22.7-.6m202.8-215.2c10.9-6.8-7.3-22.4-17.7-18.2-2.6 1-4.2 2.6-4.7 4.2-2.6 7.2 12.5 20.2 22.4 14M476 256c0-5.2-3.6-9.9-8.3-9.9s-8.3 4.2-8.3 9.9c0 5.2 3.6 9.9 8.3 9.9 4.1 0 8.3-4.7 8.3-9.9m-289.1-5.7c.5-4.2 2.1-7.8 3.1-11.4 3.1 3.6 6.8 6.8 9.9 9.9l2.1 1.6c.5.5 1.6 1 2.6 1s2.1-.5 2.6-1c1.6-1.6 1-3.6 0-4.7l-2.1-1.6c-3.6-3.1-6.8-6.8-9.9-9.9 4.7-1 9.4-1.6 14.6-1.6 2.1 0 3.6-1.6 3.6-3.6 0-2.1-1.6-3.6-3.6-3.6-5.2 0-9.9.5-14.6 1 1.6-3.1 3.6-6.2 5.7-8.8 1-1.6 1-3.6-.5-4.7s-3.6-1-4.7.5c-2.6 3.6-5.2 7.3-7.3 11.4-1.6-2.6-3.1-5.2-4.7-8.3-1-1.6-2.6-2.6-4.7-1.6-1.6.5-2.6 2.6-1.6 4.7 1.6 3.6 3.6 6.8 5.7 10.4-3.6 1.6-7.3 3.1-12 4.7-1.6.5-2.6 2.6-1.6 4.7.5 1 2.1 2.1 3.1 2.1.5 0 1 0 1.6-.5 3.6-1.6 6.8-2.6 9.4-4.2-1 3.6-2.1 7.8-3.1 12-.5 2.1 1 3.6 2.6 4.2h.5c1.8.4 3.3-.6 3.3-2.7m217.4-19.8c0-5.7-4.2-9.9-8.8-9.9-4.7 0-8.8 4.7-8.8 9.9 0 5.7 3.6 9.9 8.8 9.9 5.1 0 8.8-4.7 8.8-9.9M425 163c0-1 0-2.1-.5-3.1 1-.5 2.6-1.6 6.2-3.1 9.9-5.2 39-20.8 46.3-17.7.5 0 .5.5.5 1 1.6 6.2-1.6 17.2-4.7 29.1-2.6 9.9-5.2 19.8-5.7 28.6-12.9-15.6-31.7-31.2-42.1-34.8" style="fill-rule:evenodd;clip-rule:evenodd;fill:#fff"/></svg>