<svg xmlns="http://www.w3.org/2000/svg" xml:space="preserve" id="neo4j-light_svg__Layer_1" x="0" y="0" version="1.1" viewBox="0 0 512 512"><style>.neo4j-light_svg__st0{fill:#fff}</style><path d="M346.7 24.9c-99.1 0-165.3 57.5-165.3 169.5V274c9.8-4.8 20.5-7.3 32-7.3s22.4 2.8 32.3 7.6v-80c0-72.4 39.8-109.7 101-109.7s101 37.3 101 109.7v174.3H512V194.3c0-112.5-66.5-169.4-165.3-169.4" class="neo4j-light_svg__st0"/><path d="M29.1 204.2c-8.4 4.2-16.3 11.2-21.9 20.5s-7.9 19.1-7 28.9c.8 17.7 10.7 34 26.7 42.9 14.9 8.4 31.7 6.5 47.7 2.8 19.6-5.1 36.5-7 54.2 3.6h.8c30.3 17.7 30.3 62 0 79.7h-.8c-17.7 10.7-34.5 8.4-54.2 3.6-15.4-4.2-32.3-6.5-47.7 2.8-16.3 9.4-25.3 26.2-26.7 43-.8 9.8 1.4 19.6 7 28.9s12.6 16.3 21.9 20.5c15.4 7.9 34.5 7.9 50.5-1.4 14.9-8.4 21.9-24.7 26.1-40.1 5.6-19.6 12.1-35.4 30.3-45.2 17.7-10.7 34.5-8.4 54.2-3.6 15.4 4.2 32.3 6.5 47.7-2.8 16.3-9.3 25.3-26.1 26.7-42.9v-7.2c-.8-17.7-10.7-34-26.7-42.9-14.9-8.4-31.7-6.5-47.7-2.8-19.6 5.1-36.5 7-54.2-3.6-17.7-10.7-24.7-25.5-30.3-45.2-4.2-15.4-11.2-31.1-26.1-40.1-16.3-7-35.1-7-50.5.6" class="neo4j-light_svg__st0"/></svg>