<svg xmlns="http://www.w3.org/2000/svg" xml:space="preserve" viewBox="0 0 512 512"><path d="m320.3 271.5-28 28c14.3 6.9 24.6 21.7 24.6 39.5 0 24-19.4 43.5-43.5 43.5-17.2 0-32-10.3-39.5-24.6l-33.7 33.7-.6.6 120 120 46.3-46.3c-18.3 0-33.7-14.9-33.7-33.7 0-18.9 14.9-33.7 33.7-33.7 18.3 0 33.7 14.9 33.7 33.7l40.6-40.6-46.3-45.7-3.4-3.4h2.3c18.3 0 33.7-14.9 33.7-33.7 0-8.6-3.4-16-8.6-22.3-5.7-5.1-13.7-8.6-22.3-8.6-18.3 0-33.7 14.9-33.7 33.7v2.3l-2.3-2.3z" style="fill:#ffb380"/><path d="M237.2 252.3c-24 0-43.5-19.4-43.5-43.5 0-17.2 9.7-32 24-38.9L184 136.2 64 256.3l126.8 126.8 54.3-54.3c-1.7 3.4-2.3 7.4-2.3 11.4 0 16.6 13.7 30.3 30.3 30.3s30.3-13.7 30.3-30.3-13.6-30.2-30.2-30.2c-4 0-8 .6-11.4 2.3l49.2-49.2-34.3-34.3c-7.6 13.2-22.5 23.5-39.5 23.5" style="fill:#8dcaff"/><path d="m448 126.9-49.6-49.7h2.3c18.3 0 33.7-14.9 33.7-33.7 0-18.3-14.9-33.2-33.7-33.2-18.3 0-33.7 14.9-33.7 33.7v2.3L320.6 0l-120 120-4 4.6-2.3 2.3 54.3 54.3c-3.4-1.1-6.9-1.7-10.3-1.7-16.6 0-30.3 13.7-30.3 30.3s13.7 30.3 30.3 30.3 30.3-13.7 30.3-30.3c0-2.9-.6-5.1-1.1-8 0-1.1-.6-1.7-.6-2.9l2.9 2.9 52.6 52.6 2.3-2.3 4.6-4.6 38.9-38.9c-18.3 0-33.7-14.9-33.7-33.7s14.9-33.7 33.7-33.7c18.3 0 33.7 14.9 33.7 33.7z" style="fill:#c0d9b4"/></svg>