<?xml version="1.0" encoding="utf-8"?>
<!-- Generator: Adobe Illustrator 28.2.0, SVG Export Plug-In . SVG Version: 6.00 Build 0)  -->
<svg version="1.1"
	 id="svg5" xmlns:svg="http://www.w3.org/2000/svg" xmlns:sodipodi="http://sodipodi.sourceforge.net/DTD/sodipodi-0.dtd" xmlns:inkscape="http://www.inkscape.org/namespaces/inkscape"
	 xmlns="http://www.w3.org/2000/svg" xmlns:xlink="http://www.w3.org/1999/xlink" x="0px" y="0px" viewBox="0 0 512 512"
	 style="enable-background:new 0 0 512 512;" xml:space="preserve">
<path d="M254.9,329.5l-33.1,33.1l-33,33h66.1H321l-33-33L254.9,329.5z M437,75C388.7,26.6,324.4,0,256,0S123.4,26.7,75,75
	S0,187.6,0,256s26.7,132.6,75,181c48.3,48.4,112.6,75,181,75s132.6-26.7,181-75c48.4-48.3,75-112.6,75-181S485.3,123.4,437,75z
	 M392.7,466.4C392.7,466.4,392.7,466.4,392.7,466.4c-0.1-0.1-3.4-3.1-7.1-6.8l-7.1-6.6H254.7H131l-5.9,6.3c-3.2,3.5-6.2,6.3-6.6,6.3
	c-0.2,0-0.5-0.1-0.9-0.3c-14.6-9.7-28.1-20.8-40.3-33.2l88.2-88.5c48.8-49,88.6-89.7,88.8-89.7c0.2,0,41.1,40.8,90.4,89.9l89.4,89
	C421.6,445.3,407.7,456.6,392.7,466.4z M188.4,186.7c9.9-8.5,28-17.7,44-21.7c6-1.5,12.4-3.2,22.3-3.2c11.2,0,21.1,2.2,33.6,6.5
	c11.6,4,19.9,8.1,29.2,15l4.1,3l-5.9,6c-3.2,3.3-18.3,18.2-33.6,33.1l-27.7,27.2c-10.8-11-30.7-30.7-32.9-32.9
	C188.5,186.8,188.4,186.7,188.4,186.7z M432.5,77.7l-3.7,3.9c-4.2,4.4-17.7,17.7-29.9,29.9l-22.2,22l-6.3-5.5
	c-39.2-33.1-95.6-47.1-150.7-37.3c-31.3,5.5-56.8,18.3-84.8,41.9l-1.4,1.2l-5.7-6.4c-2.6-2.9-15.5-15.9-28.4-29.2L79.3,77.9
	C124.7,32.9,187.2,5,256,5C324.7,5,387.1,32.8,432.5,77.7z M198.8,500.4c18.4,4.2,37.5,6.5,57.2,6.5s38.8-2.2,57.2-6.5
	c-18.4,4.3-37.5,6.6-57.2,6.6S217.2,504.7,198.8,500.4z"/>
</svg>
