<svg xmlns="http://www.w3.org/2000/svg" xml:space="preserve" viewBox="0 0 512 512"><path d="m254.9 329.5-33.1 33.1-33 33H321l-33-33zM437 75C388.7 26.6 324.4 0 256 0S123.4 26.7 75 75 0 187.6 0 256s26.7 132.6 75 181 112.6 75 181 75 132.6-26.7 181-75 75-112.6 75-181-26.7-132.6-75-181m-44.3 391.4c-.1-.1-3.4-3.1-7.1-6.8l-7.1-6.6H131l-5.9 6.3c-3.2 3.5-6.2 6.3-6.6 6.3q-.3 0-.9-.3c-14.6-9.7-28.1-20.8-40.3-33.2l88.2-88.5c48.8-49 88.6-89.7 88.8-89.7s41.1 40.8 90.4 89.9l89.4 89c-12.5 12.5-26.4 23.8-41.4 33.6M188.4 186.7c9.9-8.5 28-17.7 44-21.7 6-1.5 12.4-3.2 22.3-3.2 11.2 0 21.1 2.2 33.6 6.5 11.6 4 19.9 8.1 29.2 15l4.1 3-5.9 6c-3.2 3.3-18.3 18.2-33.6 33.1l-27.7 27.2c-10.8-11-30.7-30.7-32.9-32.9zm244.1-109-3.7 3.9c-4.2 4.4-17.7 17.7-29.9 29.9l-22.2 22-6.3-5.5c-39.2-33.1-95.6-47.1-150.7-37.3-31.3 5.5-56.8 18.3-84.8 41.9l-1.4 1.2-5.7-6.4c-2.6-2.9-15.5-15.9-28.4-29.2L79.3 77.9C124.7 32.9 187.2 5 256 5c68.7 0 131.1 27.8 176.5 72.7M198.8 500.4c18.4 4.2 37.5 6.5 57.2 6.5s38.8-2.2 57.2-6.5c-18.4 4.3-37.5 6.6-57.2 6.6s-38.8-2.3-57.2-6.6"/></svg>