<svg xmlns="http://www.w3.org/2000/svg" xml:space="preserve" viewBox="0 0 512 512"><path d="M471.8 319.8c-17.3 0-32 10.9-37.7 26.2H374V189.7c15.3-5.7 26.2-20.4 26.2-37.7 0-6-1.3-11.7-3.7-16.8L455 76.7c5.1 2.4 10.8 3.7 16.8 3.7 22.2 0 40.2-18 40.2-40.2S494 0 471.8 0s-40.2 18-40.2 40.2c0 6 1.3 11.7 3.7 16.8l-58.5 58.5c-5.1-2.4-10.8-3.7-16.8-3.7-17.3 0-32 10.9-37.7 26.2H166V77.9c15.3-5.7 26.2-20.4 26.2-37.7C192.2 18 174.2 0 152 0s-40.2 18-40.2 40.2c0 17.3 10.9 32 26.2 37.7V138H77.9c-5.7-15.3-20.4-26.2-37.7-26.2C18 111.8 0 129.8 0 152s18 40.2 40.2 40.2c17.3 0 32-10.9 37.7-26.2H138v156.3c-15.3 5.7-26.2 20.4-26.2 37.7 0 6 1.3 11.7 3.7 16.8L57 435.3c-5.1-2.4-10.8-3.7-16.8-3.7-22.2 0-40.2 18-40.2 40.2S18 512 40.2 512s40.2-18 40.2-40.2c0-6-1.3-11.7-3.7-16.8l58.5-58.5c5.1 2.4 10.8 3.7 16.8 3.7 17.3 0 32-10.9 37.7-26.2H346v60.1c-15.3 5.7-26.2 20.4-26.2 37.7 0 22.2 18 40.2 40.2 40.2s40.2-18 40.2-40.2c0-17.3-10.9-32-26.2-37.7V374h60.1c5.7 15.3 20.4 26.2 37.7 26.2 22.2 0 40.2-18 40.2-40.2s-18-40.2-40.2-40.2M189.7 346c-4.1-11-12.8-19.6-23.7-23.7V166h156.3c4.1 10.9 12.7 19.6 23.7 23.7V346z"/></svg>