<svg xmlns="http://www.w3.org/2000/svg" xml:space="preserve" viewBox="0 0 512 512"><path d="M457.7 163.1C429.6 78.6 349.9 17.7 256 17.7S82.4 78.6 54.3 163.1c-1.4 4.2-1.4 8.7 0 12.9 15 44.9 44.6 83 83.1 109l-32.8 141.9c-1.2 5.3-1.9 10.8-1.9 16.3v3.6c0 12.5 4.9 24.6 13.6 33.5s20.6 13.9 32.9 13.9h209.5c12.4 0 24.3-5 32.9-13.9 8.7-8.9 13.6-21 13.6-33.5v-3.6c0-5.5-.6-10.9-1.9-16.3l-32.2-139.6c40.2-26 71.1-65.1 86.5-111.4 1.5-4.1 1.5-8.7.1-12.8" style="fill:#919191"/><path d="M474.5 181.6c2.6-7.8 2.6-16.5 0-24.2C443.1 63.3 355.3 0 256 0 156.6 0 68.8 63.3 37.4 157.6c-2.6 7.8-2.6 16.3 0 24.1 15.2 45.5 43.5 83.7 80 111.1l-30 130.1c-1.5 6.6-2.3 13.4-2.3 20.3v3.6c0 17.3 6.6 33.6 18.7 46 12 12.2 28.6 19.2 45.6 19.2h209.5c17 0 33.7-7 45.5-19.2 12.1-12.3 18.7-28.6 18.7-46v-3.6c0-6.8-.8-13.6-2.3-20.3l-29.5-127.7c38-27.5 67.6-66.7 83.2-113.6M71.1 170.5q-.3-.9 0-1.8C97.6 89 171.9 35.5 256 35.5c84 0 158.3 53.5 184.9 133.3.2.5.2 1.1 0 1.7-11.6 35.1-32.7 64.9-59.6 87.5-4.6-10.4-11.4-19.6-20.3-26.8-11.8-9.5-26.5-14.9-41.7-15.3 9.5-13 15.2-28.9 15.2-46.2 0-43.3-35.2-78.5-78.5-78.5s-78.5 35.2-78.5 78.5c0 17.2 5.6 33.1 15.1 46.1h-1.8c-15.8 0-31.3 5.5-43.7 15.5-8.2 6.6-14.6 15.2-19.1 24.6-25.6-22.5-45.6-51.5-56.9-85.4m86 108c1.8-7.8 6.2-14.8 12.3-19.8 6-4.9 13.6-7.6 21.4-7.6h126.5c7.8 0 15.4 2.7 21.4 7.6 6.2 5 10.6 12 12.3 19.8l24.3 105.4c-5.4-1.5-10.9-2.2-16.5-2.2H149.3c-5.6 0-11.2.8-16.5 2.2zM213 169.6c0-23.7 19.3-43 43-43s43 19.3 43 43-19.3 43-43 43-43-19.3-43-43M379 468c-5.3 5.4-12.7 8.5-20.2 8.6H149.3c-7.6 0-14.8-3.1-20.2-8.6-5.6-5.7-8.6-13.2-8.6-21.1v-.1c0-7.9 3.1-15.3 8.5-21 5.4-5.5 12.6-8.6 20.3-8.6h209.4c7.6 0 15 3.1 20.3 8.6 5.4 5.6 8.6 13.2 8.6 21.1 0 7.8-3.1 15.5-8.6 21.1m-2.4-21.2c0 9.8-7.9 17.9-17.7 17.9S341 456.8 341 447s7.9-17.9 17.7-17.9h.1c9.9 0 17.8 7.9 17.8 17.7m-46.5 0c0 9.8-7.9 17.9-17.7 17.9-9.5 0-17.4-7.5-17.8-16.9-.2-4.8 1.5-9.6 4.9-13.1 3.3-3.5 8-5.5 12.8-5.5h.1c9.8-.1 17.7 7.8 17.7 17.6" style="fill:#d3d3d3"/></svg>