<?xml version="1.0" encoding="utf-8"?>
<!-- Generator: Adobe Illustrator 28.2.0, SVG Export Plug-In . SVG Version: 6.00 Build 0)  -->
<svg version="1.1" id="Layer_1" xmlns="http://www.w3.org/2000/svg" xmlns:xlink="http://www.w3.org/1999/xlink" x="0px" y="0px"
	 viewBox="0 0 512 512" style="enable-background:new 0 0 512 512;" xml:space="preserve">
<g>
	<path d="M184,220.8c1.6,1,1.6,1,3.2,2.2c0.6,0.5,1.2,0.9,1.8,1.4c0.6,0.5,1.2,0.9,1.8,1.4c0.6,0.5,1.2,0.9,1.8,1.4
		c3.3,2.6,3.3,2.6,4.5,3.7c0,0.5,0,1,0,1.5c-0.4,0.2-0.9,0.4-1.3,0.7c-16.5,8.3-30.3,17.9-43.7,30.6c-0.7,0.6-1.4,1.2-2.1,1.9
		c-0.5,0.6-1,1.2-1.5,1.8c0.2,2.3,1.1,3.5,2.7,5.1c0.4,0.4,0.8,0.8,1.2,1.2c0.4,0.4,0.9,0.9,1.3,1.3c0.5,0.4,0.9,0.9,1.4,1.4
		c4.5,4.4,9.4,8.3,14.5,12c0.4,0.3,0.8,0.6,1.2,0.9c31.1,22.5,70.6,31.6,108.5,25.6c30.4-5.2,56.9-19.2,79.2-40.3
		c0.8-0.8,0.8-0.8,1.7-1.5c0.5-0.4,0.9-0.9,1.4-1.3c0.4-0.4,0.8-0.7,1.2-1.1c0.9-1.1,0.9-1.1,0.7-2.4c-1.1-2.3-2.8-3.9-4.6-5.7
		c-0.4-0.4-0.8-0.8-1.2-1.2c-12.5-12.1-27.2-21.4-42.9-28.8c1.6-3.8,4.6-5.5,7.9-7.9c0.6-0.4,1.2-0.9,1.8-1.3
		c0.6-0.4,1.1-0.8,1.7-1.3c0.5-0.4,1-0.8,1.6-1.2c2.1-1,3.1-0.7,5.2,0c1.8,0.9,3.5,1.7,5.2,2.7c0.8,0.4,0.8,0.4,1.5,0.9
		c9.1,5.3,17.6,11.7,25.2,18.9c1,0.9,2,1.7,3,2.5c5.3,4.7,10.1,9.7,14.5,15.2c1.2,1.5,2.4,2.9,3.7,4.3c1.4,1.9,1.4,1.9,1.3,3.2
		c-6,15-25.5,28.4-38,37.5c-0.4,0.3-0.9,0.6-1.3,0.9c-0.9,0.6-1.8,1.3-2.7,1.9c-4.8,3.3-7.4,7.8-8.6,13.5c-0.6,6,0.8,11.1,4.2,16
		c3.8,4.4,8,7,13.8,7.4c4.6,0.1,8.9-0.4,13.4-1.3c9.5-1.7,19.5,1.1,27.5,6.2c8.9,6.5,14.1,15.4,16.5,26.1c0.7,12-1,22.9-8.9,32.4
		c-7.9,8.4-17.7,13.1-29.2,13.6c-11.5-0.1-20.9-4.4-29.3-12.2c-6.9-7.4-10.5-16.8-10.5-26.8c0-0.5,0-1.1,0-1.7
		c0-2.9,0.2-5.4,0.8-8.2c0.6-8.1-0.4-13.4-4.9-20.1c-1.4-1.4-2.7-2.7-4.2-3.9c-3.9-3.4-7.4-7.1-10.9-10.8c-4.7-4.8-9.5-8.1-16.4-8.3
		c-5.5,0-10.8,1-16.2,2c-8.6,1.6-17.1,2-25.9,2c-0.9,0-0.9,0-1.7,0c-11,0-21.6-0.9-32.4-3.1c-6.9-1.4-13.3-1.6-19.5,2.2
		c-4.3,3.4-8.2,7.4-12.1,11.4c-0.5,0.5-1.1,1.1-1.6,1.6c-1,1-2,2.1-3.1,3.1c-1.1,1.1-2.3,2.3-3.4,3.4c-1.4,1.5-2.5,2.9-3.6,4.6
		c-0.3,0.5-0.6,1-0.9,1.5c-1.6,3-1.6,5.5-1.6,8.9c0,0.9,0,1.9,0,2.9c0.1,2.2,0.4,4.1,0.8,6.3c0.8,12.1-1.5,22.5-9.3,32.2
		c-7.3,7.8-17,12.3-27.6,13c-11.5,0.2-21.5-3.6-29.8-11.6c-8.5-8.8-11.5-19-11.3-31c0.5-10.6,5.8-19.3,13.3-26.6
		c8.3-6.9,18.3-10.3,29.1-9.4c1.3,0.2,2.6,0.5,3.9,0.7c7.3,1.4,14.3,1.7,20.8-2.2c5.1-3.8,7.7-8.9,8.7-15.2
		c0.4-5.8-1.2-10.9-4.6-15.5c-2-2.3-4.5-3.9-7-5.5c-1.1-0.8-2.2-1.5-3.3-2.3c-0.5-0.4-1.1-0.7-1.6-1.1
		c-11.8-8.3-22.4-18.9-31.3-30.1c-0.6-0.6-1.1-1.2-1.7-1.9c-1.2-1.8-1.2-1.8-1.2-3.2c3.5-7.1,10.6-13.2,16-18.9
		c0.7-0.7,0.7-0.7,1.4-1.5c3.6-3.7,7.6-6.9,11.7-10.1c0.7-0.6,1.4-1.1,2.1-1.7c6.8-5.5,14.2-10,21.9-14.3c0.7-0.4,0.7-0.4,1.4-0.9
		C180.9,219.9,182,220.2,184,220.8z"/>
	<path d="M298.8,103.9c7.5-0.1,14.9-0.1,22.4-0.1c3.5,0,6.9,0,10.4-0.1c3.4,0,6.7,0,10.1,0c1.3,0,2.5,0,3.8,0
		c17-0.2,31.7,2.7,44.9,14c0.5,0.4,0.9,0.8,1.4,1.2c5.6,5.1,9.4,12.4,12.8,19.1c2.8,5.2,6.1,8.9,11.7,11.2c4,1.1,8.2,0.8,12.3,0.8
		c1,0,2.1,0,3.1,0c2.2,0,4.3,0,6.5,0c2.8,0,5.5,0,8.3,0c2.1,0,4.3,0,6.4,0c1,0,2,0,3,0c6.9,0.1,12.8-0.5,18-5.4
		c0.8-0.8,1.6-1.7,2.3-2.5c4.2-3.9,10-5.9,15.7-5.8c5.7,0.5,10.6,2.6,14.7,6.7c4.5,5.8,5.8,11.6,5.1,18.9c-1.4,5.5-5,10.5-9.8,13.5
		c-6.5,3.3-11.8,4.1-18.8,1.8c-3.7-1.6-6.6-4.3-9.6-7c-6.1-5.3-12.5-5.6-20.1-5.6c-1.1,0-1.1,0-2.2,0c-1.5,0-3,0-4.6,0
		c-2.3,0-4.6,0-6.9,0c-1.5,0-3,0-4.4,0c-0.7,0-1.4,0-2.1,0c-7.2,0-13.3,1.1-18.8,6c-5.4,6.4-6.1,12.4-6.1,20.5c0,0.9,0,1.7-0.1,2.6
		c0,7.1,1.3,13.3,6.3,18.6c6.2,5.1,12.9,5.6,20.6,5.6c0.7,0,1.5,0,2.2,0c1.5,0,3.1,0,4.6,0c2.3,0,4.7,0,7,0.1c1.5,0,3,0,4.5,0
		c0.7,0,1.4,0,2.1,0c5.6,0,11.4-0.6,16.1-4c0.5-0.5,1-1.1,1.6-1.7c5-4.8,10.5-8.3,17.6-8.5c6.5,0.3,11.6,2.8,16,7.5
		c4.1,5,5.2,9.3,5,15.7c-0.6,5.5-2.9,10-6.8,13.8c-5.2,4-10.8,5.9-17.4,5.1c-5.8-1.3-9.4-3.8-13.6-7.9c-4.1-3.8-8.1-5.2-13.6-5.3
		c-0.8,0-1.6,0-2.4,0c-3.6,0-7.2-0.1-10.8-0.1c-1.9,0-3.8,0-5.7-0.1c-2.7,0-5.5-0.1-8.2-0.1c-0.8,0-1.7,0-2.5-0.1
		c-6.5,0-12.6,1.6-17.3,6.3c-5,6.1-5.4,12.3-5.3,19.9c0,1.3,0,1.3,0,2.6c0,7.8,1.2,13.2,6.6,18.9c4.2,3.6,9.3,5.1,14.7,5.2
		c0.7,0,1.4,0,2.2,0c0.8,0,1.5,0,2.3,0c1.2,0,1.2,0,2.4,0c1.7,0,3.4,0,5.1,0c1.7,0,3.4,0,5.2,0c2.5,0,5,0,7.5,0.1c1.1,0,1.1,0,2.3,0
		c6.2,0,11.8-1.2,16.8-5c0.6-0.6,1.2-1.2,1.8-1.9c5.1-4.9,8.7-6.7,15.8-6.9c6.9,0.2,11.2,2.2,16,7.1c4,4.9,5.2,9.7,5,16
		c-0.7,5.6-3.2,10.7-7.5,14.4c-5.7,3.8-10.6,5-17.4,4.4c-4.8-1.2-8-3.3-11.6-6.7c-4.3-3.7-9-6.5-14.8-6.5c-0.8,0-1.6,0-2.4,0
		c-0.8,0-1.7,0-2.5,0c-0.9,0-1.7,0-2.6,0c-1.8,0-3.7,0-5.5,0c-2.8,0-5.6,0-8.4-0.1c-1.8,0-3.6,0-5.4,0c-0.8,0-1.7,0-2.5,0
		c-5.4,0-11.3,0.4-15.3,4.4c-0.3,0.3-0.6,0.7-1,1c-0.5,0-1,0-1.5,0c-0.2,0.4-0.4,0.8-0.6,1.3c-0.5,1-1,2.1-1.6,3.1
		c-0.2,0.5-0.5,1-0.7,1.5c-0.4,0.7-0.4,0.7-0.8,1.5c-1.6,3.3-1.5,6.4-1.6,10c0,0.9,0,0.9,0,1.9c0,2-0.1,4-0.1,6
		c0,1.4-0.1,2.7-0.1,4.1c-0.1,3.3-0.2,6.6-0.2,10c-0.5-0.3-1-0.6-1.5-1c-0.7-0.4-1.4-0.9-2.1-1.3c-1-0.6-1-0.6-2-1.3
		c-2.1-1.4-2.1-1.4-3.8-2.1c-4-2-4-2-4.9-4.5c-0.2-2-0.2-3.9-0.2-5.8c0-1.1,0-1.1,0-2.3c0-2.5,0-5,0-7.5c0-1.8,0-3.6,0-5.4
		c0-3.9,0-7.7,0-11.6c0-5.6,0-11.2,0-16.8c0-9.1,0-18.2,0-27.3c0-8.8,0-17.7,0.1-26.5c0-0.5,0-1.1,0-1.6c0-5.9,0-11.9,0-17.8
		c0-0.8,0-0.8,0-1.6c0-2.1,0-4.2,0-6.3c0-6.1,0-12.2,0-18.3c0-4.3,0-8.6,0-12.9c0-1.8,0-3.5,0-5.3c0.1-14.7-0.8-27.1-11.6-38.3
		c-8.4-7.9-18.4-11.1-29.9-11.2c-0.5,0-1.1,0-1.6,0c-1.8,0-3.5,0-5.3-0.1c-1.2,0-2.5,0-3.7,0c-3.2,0-6.5-0.1-9.7-0.1
		c-3.3,0-6.6-0.1-9.9-0.1c-6.5-0.1-12.9-0.2-19.4-0.2c-0.6-2-1.2-4.1-1.8-6.1c-0.2-0.6-0.3-1.2-0.5-1.7c-0.2-0.6-0.3-1.1-0.5-1.7
		c-0.2-0.5-0.3-1-0.5-1.5C298.8,105.3,298.8,105.3,298.8,103.9z"/>
	<path d="M168,103.7c1.3,0,2.6,0,3.9,0c3.4,0,6.8,0,10.2,0c3.5,0,7,0,10.5,0c6.8,0,13.6,0,20.5,0.1c-0.5,1.9-0.9,3.8-1.4,5.7
		c-0.1,0.5-0.3,1.1-0.4,1.6c-0.5,2.2-1.1,4.4-1.8,6.5c-1,0-1,0-2,0c-6.3,0-12.7,0.1-19,0.2c-3.3,0-6.5,0.1-9.8,0.1
		c-3.2,0-6.3,0-9.5,0.1c-1.2,0-2.4,0-3.6,0c-14.2,0.1-26.5,2.3-36.9,12.7c-7.8,8.3-10.1,18.3-10,29.3c0,0.7,0,1.5,0,2.3
		c0,1.6,0,3.3,0,4.9c0,3.6,0,7.2,0.1,10.8c0,1.9,0,3.9,0,5.8c0,7.1,0.1,14.3,0.1,21.4c0,0.8,0,0.8,0,1.6c0,4.8,0,9.6,0,14.4
		c0,3.3,0,6.6,0,9.9c0,0.5,0,1.1,0,1.7c0,8.8,0.1,17.7,0.1,26.5c0.1,9.1,0.1,18.2,0.1,27.2c0,5.6,0,11.2,0.1,16.8
		c0,4.3,0,8.6,0,12.9c0,1.8,0,3.5,0,5.3c0.2,12.9,0.2,12.9-2.3,16.3c-2.7,2.5-5.8,3.8-9.2,5.2c-1.2,0.7-2.4,1.4-3.6,2.2
		c0-1.2,0-1.2,0-2.5c0-3.1-0.1-6.1-0.1-9.2c0-1.3,0-2.6,0-4c0-11.5,0-11.5-4.7-21.8c-0.7-0.6-0.7-0.6-1.3-1.3
		c-0.4-0.4-0.9-0.9-1.3-1.3c-5.8-4-11.5-4.6-18.4-4.6c-0.9,0-1.7,0-2.6,0c-1.8,0-3.6,0-5.4,0c-2.8,0-5.5,0-8.3,0c-1.8,0-3.5,0-5.3,0
		c-1.2,0-1.2,0-2.5,0c-6.3,0.1-11.6,1.3-16.1,5.8c-5.6,5.2-11.1,8.1-18.9,7.9c-5.6-0.6-10.7-3.2-14.4-7.5c-3.8-5.7-5-10.6-4.4-17.4
		c1.5-6,4.6-10.6,9.6-14.2c5.2-3.1,10.7-3.2,16.6-2.5c5,1.5,8.5,4.6,12.2,8.1c4.3,3.7,9,5.1,14.6,5.1c0.7,0,1.4,0,2.1,0
		c1.1,0,1.1,0,2.3,0c1.2,0,1.2,0,2.4,0c1.7,0,3.3,0,5,0c1.7,0,3.4,0,5,0c2.4,0,4.9,0,7.3,0.1c1.1,0,1.1,0,2.2,0
		c7.3,0,13.6-1.8,19-6.9c5-5.9,5-12.3,5.1-19.7c0-0.9,0-1.7,0.1-2.6c0-6.6-0.9-13.1-5.6-18.1c-6-4.8-12-6-19.5-5.9
		c-1.3,0-1.3,0-2.6,0c-1.8,0-3.7,0-5.5,0c-2.8,0-5.6,0-8.4,0c-1.8,0-3.6,0-5.4,0c-0.8,0-1.7,0-2.5,0c-5.8,0.1-11.2,1-15.8,4.8
		c-0.6,0.7-0.6,0.7-1.2,1.4c-3.8,4.2-8.9,6.8-14.5,7.5c-5.8,0.2-10.7-1.5-15.5-4.6c-5.3-5.7-7.3-11-7.2-18.7
		c0.5-5.9,3.8-10.7,8.2-14.6c5-3.4,10.1-4.8,16-4.2c5.2,1.1,9.8,3.7,13.4,7.5c3.8,4,8.9,5.9,14.4,6.2c0.6,0,1.2,0,1.8,0
		c0.7,0,1.3,0,2,0c0.7,0,1.4,0,2.1,0c1.1,0,1.1,0,2.2,0c1.6,0,3.1,0,4.7,0c2.4,0,4.7,0,7.1,0c1.5,0,3,0,4.6,0c0.7,0,1.4,0,2.1,0
		c7.3,0,13.3-1,18.9-6c5.4-6.4,6.1-12.4,6.1-20.5c0-0.9,0-1.7,0.1-2.6c0-7.1-1.3-13.3-6.3-18.6c-6.1-5.1-12.8-5.6-20.4-5.6
		c-0.7,0-1.4,0-2.2,0c-1.5,0-3,0-4.5,0c-2.3,0-4.6,0-6.9-0.1c-12.2-0.4-12.2-0.4-23.4,3.9c-0.5,0.5-1,1.1-1.6,1.7
		c-5.4,5.3-9.9,7.9-17.5,8.7c-6.7-0.7-11.9-3.3-16.5-8.3c-4.2-5.4-5.1-10.7-4.4-17.4c1.6-5.9,4.4-10.3,9.4-13.7
		c5.1-2.8,10.7-3.9,16.5-2.6c4.8,1.5,7.9,3.7,11.4,7.3c6.2,5.2,12.1,5.9,20.1,5.8c1,0,2.1,0,3.1,0c2.1,0,4.3,0,6.4,0
		c2.7,0,5.5,0,8.2,0c2.1,0,4.3,0,6.4,0c1,0,2,0,3,0c7.6,0.1,13.6-1,19.1-6.5c2.8-3.4,4.6-7.3,6.6-11.2c6.4-12.4,17-21.3,30.1-26
		C149.6,103.8,158.6,103.7,168,103.7z"/>
	<path d="M273.2,93.4c8.3,5.5,14.7,12.9,16.9,22.8c1.5,9.1,0.3,18.5-4.7,26.4c-3,4.1-6.7,7.4-10.5,10.7c-5.9,5.3-9.1,11.6-9.7,19.5
		c-0.3,8.8,1.3,16.3,6.7,23.4c6.6,6.6,15,8.4,23.8,10.5c16.1,3.9,16.1,3.9,20.5,6.2c0.2,0.7,0.5,1.4,0.7,2.2c-0.3,0.2-0.7,0.5-1,0.8
		c-1.5,1.1-3.1,2.3-4.6,3.4c-0.5,0.4-1,0.8-1.6,1.2c-0.5,0.4-1,0.8-1.6,1.2c-0.5,0.4-1,0.7-1.5,1.1c-1.5,1.1-1.5,1.1-3.2,2.8
		c-1.8,1.1-1.8,1.1-4.1,1.1c-0.9-0.2-1.8-0.4-2.8-0.7c-0.6-0.1-1.1-0.3-1.7-0.4c-2.6-0.6-5.2-1.2-7.9-1.9
		c-10.3-2.4-20.3-3.1-30.9-3.1c-0.6,0-1.2,0-1.8,0c-12.7,0-24.3,1.5-36.5,4.9c-0.9,0.2-0.9,0.2-1.7,0.5c-0.5,0.1-1,0.3-1.5,0.4
		c-2.6,0.4-4.5-0.1-6.7-1.5c-0.8-0.6-0.8-0.6-1.6-1.3c-0.9-0.7-0.9-0.7-1.7-1.4c-0.6-0.5-1.2-1-1.8-1.4c-1.2-0.9-2.4-1.9-3.5-2.8
		c-0.8-0.6-0.8-0.6-1.6-1.3c-1.3-1-1.3-1-2.8-1.7c0.7-2.2,0.7-2.2,1.9-2.8c0.5-0.2,1-0.3,1.6-0.5c0.6-0.2,1.2-0.4,1.8-0.6
		c1-0.3,1-0.3,2-0.6c0.7-0.2,1.3-0.4,2-0.7c6.1-1.9,12.3-3.4,18.6-4.8c7-1.5,13.9-4.5,18.3-10.5c5.3-8.4,6.9-17.3,4.9-27
		c-2.2-7.3-6.6-12.1-12.2-17c-7.9-7.2-12-14.8-12.7-25.6c0-10.1,3.4-18.7,10.3-26.1C242.6,88.3,259.7,85.7,273.2,93.4z"/>
	<path d="M269.1,236.1c0,0.5,0,1,0,1.5c-0.5,0.1-0.9,0.2-1.4,0.3c-5.5,1.4-9,3.5-12.3,8.1c-2.1,4.4-2.4,9.6-1.1,14.3
		c1.9,4.4,5.4,7.9,9.7,9.9c4.3,1.3,9.1,1.2,13.3-0.6c5.5-3.2,8-7.1,9.6-13.1c0.1-0.5,0.2-0.9,0.3-1.4c3.5,3.5,3.6,9.8,3.6,14.5
		c-0.9,11.3-5.6,19.7-14.2,27c-3,2.2-6.3,3.6-9.8,4.9c-0.5,0.2-1,0.4-1.4,0.5c-8.7,2.7-18,0.9-26-3c-8-4.5-13.9-11.3-16.8-20.1
		c-2.5-9.4-1.8-18.9,2.8-27.7c4.9-7.6,11.2-12.9,19.6-16c0.5-0.2,1-0.4,1.4-0.5C253.9,232.5,261.9,233.6,269.1,236.1z"/>
	<path d="M192.7,393.7c0.5,0,1,0,1.6,0c0.5,0,1.1,0,1.7,0c1.8,0,3.7,0,5.5,0c1.3,0,2.6,0,4,0c3.6,0,7.2,0,10.8,0c3.7,0,7.5,0,11.2,0
		c7.1,0,14.2,0,21.3,0c8.1,0,16.2,0,24.2,0c16.6,0,33.2,0,49.9,0c1.7,4.6,3.4,9.2,5.1,13.8c-47.5,0-94.9,0-143.9,0
		C188.7,393.7,188.7,393.7,192.7,393.7z"/>
</g>
</svg>
