<svg xmlns="http://www.w3.org/2000/svg" xml:space="preserve" viewBox="0 0 512 512"><path d="M0 256C0 109.3 119.5 28.3 256 28.3s256 81 256 227.7-119.3 227.7-256 227.7S0 402.7 0 256" style="fill-rule:evenodd;clip-rule:evenodd;fill:#e3342e"/><path d="M165.3 169.4c-54.9 0-86.8 44.4-86.8 89.1s31.8 89.1 86.8 89.1 86.8-44.4 86.8-89.1-31.9-89.1-86.8-89.1m0 144c-29.4 0-51-24.4-51-54.9s21.5-54.9 51-54.9 51.1 24.4 51.1 54.9-21.5 54.9-51.1 54.9m118 29.5h33.8v-94.7c0-27.6 16.9-42.7 38.7-42.7s37.4 12.6 37.4 43.4V343H427V240.8c0-41.9-28-71.6-61.2-71.6-19.5-.6-37.9 9.2-48.1 25.8h-.6v-21.3h-33.8z" style="fill-rule:evenodd;clip-rule:evenodd;fill:#fff"/></svg>