<svg xmlns="http://www.w3.org/2000/svg" xml:space="preserve" viewBox="0 0 512 512"><path d="M0 222.3h94C97 150.1 115.6 83 142.8 39 65.1 66.4 7.9 137.2 0 222.3m0 40.4c7.9 85 65.1 155.8 142.8 183.3-27.2-44-45.9-111-48.8-183.3zm134.5-40.4h161C293.2 167.8 281.1 117.7 264 81c-9.6-20.6-20-35.3-29.6-44.2-9.4-8.9-15.9-10.3-19.3-10.3s-9.9 1.4-19.3 10.3c-9.6 8.9-20 23.6-29.6 44.2-17.2 36.7-29.3 86.8-31.7 141.3m0 40.4c2.4 54.4 14.5 104.5 31.6 141.2 9.6 20.7 20 35.3 29.6 44.2 9.4 8.9 15.9 10.3 19.3 10.3s9.9-1.4 19.3-10.3c3.5-3.3 7.3-7.4 11-12.3-10.7-21.7-16.8-46.1-16.8-71.9 0-38.3 13.3-73.5 35.5-101.2zM287.3 38.9c25.9 41.9 44 104.5 48.3 172.7 17.1-6.2 35.7-9.5 55-9.5 12.9 0 25.5 1.5 37.5 4.4-13.2-77.9-68-141.7-140.8-167.6m103.2 446.6c67.1 0 121.5-54.4 121.5-121.5s-54.4-121.5-121.5-121.5S269 296.9 269 364s54.4 121.5 121.5 121.5M331 346.4c-5.6 5-14.1 4.6-19.1-1s-4.6-14.1 1-19.1c20.6-18.5 47.7-29.8 77.6-29.8s57.1 11.3 77.6 29.8c5.6 5 6 13.5 1 19.1s-13.5 6-19.1 1c-15.8-14.3-36.6-22.9-59.6-22.9-22.8 0-43.7 8.6-59.4 22.9m59.5 54.7c9.3 0 16.9 7.6 16.9 16.9s-7.6 16.9-16.9 16.9-16.9-7.6-16.9-16.9 7.6-16.9 16.9-16.9m0-23.6c-10.2 0-19.6 3.9-26.6 10.2-5.6 5-14.1 4.6-19.1-.9s-4.6-14.1.9-19.1c11.8-10.7 27.5-17.2 44.7-17.2s32.9 6.5 44.7 17.2c5.6 5 6 13.5.9 19.1s-13.5 6-19.1.9c-6.8-6.3-16.2-10.2-26.4-10.2"/></svg>