<svg xmlns="http://www.w3.org/2000/svg" xml:space="preserve" viewBox="0 0 512 512"><path d="M114.4 453.9c-80.8-67.9-97.6-168.1-73-267.7L65.3 139C113.2 69.8 179.1 45.3 258 25.9c45.3-3.2 90.5-9.7 128.7-11.6 62.7 107.3 99.6 172 78.9 300l-17.5 51.1-23.3 34.9c-79.5 98.2-203.7 121.5-310.4 53.6" style="fill-rule:evenodd;clip-rule:evenodd;fill:#b0734a"/><path d="M357.6 40.1S139 223.7 145.5 239.3c4.5 10.3 84.1 21.3 84.1 21.3l-65.3 142.9c-11.6 36.9 9.7 16.2 20 20 0 0 217.9-187.5 212.7-199.8s-57.5-16.2-80.2-22.6C331.7 170.7 378.3 53 378.3 53c13.5-27.8 8.4-41.4-20.7-12.9"/><radialGradient id="network-ups-tools_svg__a" cx="302.322" cy="919.963" r="128.604" gradientTransform="matrix(1.8368 -.153 .2177 1.7315 -534.334 -1199.322)" gradientUnits="userSpaceOnUse"><stop offset="0" style="stop-color:#d69600"/><stop offset="1" style="stop-color:#ffff90"/></radialGradient><path d="M368.6 46.6 175.2 225l83.4 16.2L181 406.1l193.3-177.8-83.3-16.2z" style="fill:url(#network-ups-tools_svg__a)"/><path d="m485.6 327.2-16.8 9.7 12.3-61.4c9.7-56.9-9.7-153.3-65.3-223.7L391.8 0c-27.8 3.9-66 6.5-93.8 11.6-72.3 5.9-144.8 21.4-204.2 77-14.2 16.2-28.5 31-40.7 50.4l-.6-4.5-16.8 3.9c-23.9 105.4-36.9 210.8 75 329.8l-31 18.1 9.1 14.9 18.1 8.4 36.9-23.9c63.4 22 108.6 40.7 190.1 11 36.9-20.7 54.3-33 96.3-84.1l62.7-69.8zm-78.9 45.9 31.7-70.5-15.5-9.1-84.1 81.5 32.3-79.5-15.5-9.1-148.1 78.2 1.9-86-20.7-5.8-63.4 20.7 16.2-90.5-14.9-12.9-60.8 45.3-10.3-77.6 9.7-18.8c48-69.2 113.9-93.7 192.8-113.1 45.3-3.2 90.5-9.7 128.7-11.6 62.7 107.3 99.6 172 78.9 300l-11 31z" style="fill-rule:evenodd;clip-rule:evenodd;fill:#1f1a17"/><path d="M162.3 481.1c-16.2-4.5-34.9-8.4-47.2-19.4C27.2 356.3 20 272.2 42 158.4l14.2 100.2 69.2-49.8-22 116.4 84.7-33.6v109.9l159.7-94.4-36.2 114.5L422.2 311l-31.7 83.4 85.4-49.1c-45.3 58.2-92.5 119-146.8 139.7-48.5 22-88.6 16.8-166.8-3.9" style="fill-rule:evenodd;clip-rule:evenodd;fill:#c8c673"/><path d="m113.2 477.9 11.6 9.7-18.1 9.7-8.4-2.6-2-5.9z" style="fill-rule:evenodd;clip-rule:evenodd;fill:#99ae6a"/></svg>