<svg xmlns="http://www.w3.org/2000/svg" xml:space="preserve" viewBox="0 0 512 512"><path d="M0 389.8V143.7c0-11 2.1-13.2 12.9-13.2h42.3c9.9 0 12.7 2.5 14.3 12 1.4 8.2 9 11.3 15.1 5.6 13.4-12.6 29-21.1 47.2-24.1 25.4-4.2 50-2.8 70.5 15 12.6 10.9 20 25.9 20.3 42 1.4 68.9 1.4 137.8 1.9 206.7 0 .4-.2.9-.6 2.1h-36.2c-10.3 0-20.7-.3-31 .1-6.8.2-9.1-3.4-9.6-9.2-.2-1.9 0-3.8 0-5.6 0-51.4.1-102.8-.1-154.3 0-7.8-1.1-15.7-2.9-23.3-3.4-14.8-13.3-20.7-28.3-17.6-16.1 3.3-26.4 14.8-36.4 26.5-1.9 2.3-1.8 6.7-1.8 10.1-.1 53.3-.1 106.6-.1 159.9 0 11.1-2.3 13.4-13.5 13.4zm437.4-.3H275c0-14.9-.4-29.9.4-44.7.1-2.5 5.3-5.9 8.6-6.8 4.6-1.2 9.8-.2 14.7-.3 6.8-.1 10-3 10.1-9.6.1-45.3 0-90.6 0-135.9 0-6.3-3.4-9.3-9.4-9.5-4.9-.1-9.9.1-14.8-.1-5.9-.2-9.7-2.8-9.8-9.2-.1-11.3 0-22.5 0-33.8 0-6.3 3.9-8.9 9.2-9 25.1-.2 50.3-.3 75.4.1 4.7.1 9.5 1.4 10.4 8.5 1.1 8.7 3.8 17.3 6.7 25.7 1 3 4.2 7 6.8 7.4 2.6.3 6.7-2.7 8.5-5.3 10-14.6 21.1-27.7 37.7-35.4 18.3-8.5 37.2-9.8 56.7-6.7 5.9.9 11.7 1.8 17.6 2.9 5.3 1.1 8.8 3.9 8 10.1-1.6 12.3-2.9 24.7-4.6 37-1.7 12.5-3.5 25-5.3 37.5-.9 6.6-1.9 13.1-2.7 19.7-.6 5.1-3.8 7.2-8.5 7.2-10.8.1-21.6.2-32.4 0-5.9-.1-8.7-3.4-8.6-9.4.1-8 .1-16 0-23.9-.1-9.4-6.2-13.2-14.9-9.1-15.7 7.3-26.3 19.9-34.5 34.6-4.6 8.4-8.6 17.1-12.4 25.9-1.2 2.6-1.5 5.8-1.5 8.7-.1 20.4-.1 40.9-.1 61.3 0 8.2 2.5 10.7 10.9 10.7 9.9.1 19.7-.1 29.6 0 7.7.1 10.4 2.9 10.5 10.6.2 13.4.1 27 .1 40.8"/></svg>