<svg xmlns="http://www.w3.org/2000/svg" xml:space="preserve" viewBox="0 0 512 512"><radialGradient id="newegg_svg__a" cx="13.888" cy="922.828" r="3.734" gradientTransform="matrix(23.757 0 0 -32.8993 -234.566 30617.242)" gradientUnits="userSpaceOnUse"><stop offset="0" style="stop-color:#fff"/><stop offset=".271" style="stop-color:#fff"/><stop offset=".46" style="stop-color:#fafafa"/><stop offset=".686" style="stop-color:#ececeb"/><stop offset=".93" style="stop-color:#d5d4d3"/><stop offset="1" style="stop-color:#cdcccb"/></radialGradient><path d="M155.1 126.9c-48 0-106.7 39.3-134.5 83.9-35.5 57.1-24.1 129.2 25.5 161 28.6 18.3 63.8 19.3 95.2 5.8q-6.6-2.85-12.9-6.9c-49.6-31.8-61-103.9-25.5-161 19.1-30.7 52.9-58.9 87.9-73.5-10.5-6.4-22.7-9.3-35.7-9.3" style="fill:url(#newegg_svg__a)"/><radialGradient id="newegg_svg__b" cx="16.506" cy="922.738" r="3.73" gradientTransform="matrix(25.4629 0 0 -32.1431 -231.26 29915.617)" gradientUnits="userSpaceOnUse"><stop offset="0" style="stop-color:#f7ed1a"/><stop offset=".19" style="stop-color:#f7ed1a"/><stop offset="1" style="stop-color:#ef7c29"/></radialGradient><path d="M247.8 126.1c-2 0-4.1.1-6.1.2-15 1-30.9 5.6-46.3 12.8-29.7 13.8-58.1 37-76.6 62.8-1.8 2.5-3.5 5.1-5.1 7.6-35.5 57.1-24.1 129.2 25.5 161 2.5 1.6 5.1 3.1 7.7 4.4 12.5 6.4 25.9 9.8 39.6 10.4-1.3.1-2.6.1-3.9.2 1.2.1 2.4.2 3.6.2 16.4.7 33-2.6 48.8-9.5-3.8-1.8-7.5-3.8-11.1-6.1-13.2-8.5-23.7-19.8-31.3-32.9-21-36.2-20.3-86.2 5.8-128.1 6.4-10.3 14.6-20.4 23.8-29.8 17.9-18.1 40.1-33.5 62.8-43.2h-.1c-10.9-6.9-23.6-10-37.1-10" style="fill:url(#newegg_svg__b)"/><radialGradient id="newegg_svg__c" cx="19.762" cy="921.836" r="3.731" gradientTransform="matrix(25.4822 0 0 -26.9713 -201.115 25118.338)" gradientUnits="userSpaceOnUse"><stop offset="0" style="stop-color:#fff"/><stop offset=".271" style="stop-color:#fff"/><stop offset=".46" style="stop-color:#fafafa"/><stop offset=".686" style="stop-color:#ececeb"/><stop offset=".93" style="stop-color:#d5d4d3"/><stop offset="1" style="stop-color:#cdcccb"/></radialGradient><path d="M337.2 125.5c-15.6 1-32.1 6-48.1 13.6-24 11.4-47 29-64.5 49.1-5.9 6.7-11.2 13.8-15.6 20.9-24.1 38.7-26.6 84.3-10.3 119.5 7.8 16.8 19.8 31.2 35.8 41.5q3 1.95 6 3.6c12.9 7 27 10.7 41.3 11.3 39.9 1.8 81.7-20.4 106.9-60.7 35.6-57.1 41.5-157-8.1-188.8-10.8-7-23.5-10.1-36.9-10.1-2.3-.1-4.4 0-6.5.1" style="fill:url(#newegg_svg__c)"/><path d="m214.1 228.3-1.9 6q3.15-3.6 6.6-5.4c3.45-1.8 4.8-1.8 7.5-1.8 3.4 0 5.9.8 7.6 2.3 1.7 1.6 2.5 3.6 2.5 6s-.8 6.5-2.2 12.2l-11.7 45.8-19.5.1 11.5-45.2c1.2-4.5 1.7-7.2 1.7-8.2s-.7-1.4-2-1.4-2.3.6-3 1.7c-.6 1.1-1.6 4.2-2.8 9.1l-11.3 44.1-19.6.2 16.6-65.3zm67.5 33.2-25.2.2-3.6 14.1q-1.05 4.5-.9 5.7.3 1.35 2.1 1.2c1.5 0 2.6-.6 3.3-1.7q1.2-1.65 2.4-6.6l2.2-8.6 18.6-.2-1.2 4.8c-1.1 4-2.1 7.1-3.1 9.3-1.1 2.2-2.8 4.5-5.3 6.9-2.4 2.5-5.2 4.4-8.4 5.6-3.1 1.2-6.8 1.9-11.1 2-4.1 0-7.6-.5-10.4-1.7-2.9-1.2-4.9-2.8-6.1-5-1.2-2.1-1.8-4.4-1.9-7q0-3.75 1.8-11.1l4.9-19.1q2.1-8.55 5.7-13.5c3.6-4.95 5.5-5.9 9.4-7.6q5.85-2.7 12.6-2.7c5.4-.1 9.7.9 12.7 3.1 3 2.1 4.8 4.8 5.3 8.3.6 3.5 0 8.4-1.6 14.7zm-16.8-10.4 1.2-4.8c.9-3.4 1.2-5.6 1.1-6.6s-.7-1.4-1.7-1.4c-1.4 0-2.3.4-2.8 1.3-.5.8-1.3 3.1-2.2 6.8l-1.2 4.8zm94.9-24.1-24.5 65.4h-20.7c0-.3-.2-.4-.2-.7.9-7.9 2.2-18.1 3.9-30.7-2.2 5.8-4.5 11.6-6.9 17.5l-5.6 14.2-21 .2 8.4-65.2 16.7-.2c-.3 1.7-2 14.2-5.3 37.5.9-2.5 5.6-15 14-37.6l16-.1-5.5 37.5c3.5-11.1 8.1-23.6 14-37.6zm41.3 33.3-25.2.2-3.6 14.1c-.7 3-1 4.9-.8 5.7.2.9.9 1.2 2.1 1.2 1.5 0 2.6-.5 3.4-1.7q1.2-1.65 2.4-6.6l2.2-8.6 18.6-.2-1.2 4.8c-1 4-2.1 7.2-3.1 9.3-1.1 2.2-2.8 4.5-5.3 6.9-2.5 2.5-5.2 4.4-8.4 5.6-3.1 1.2-6.8 1.9-11.1 1.9-4.1.1-7.6-.5-10.5-1.7-2.8-1.2-4.9-2.8-6-5-1.2-2.1-1.9-4.4-1.9-6.9s.6-6.2 1.8-11.1l4.9-19.1c1.4-5.7 3.4-10.2 5.7-13.5s5.5-5.8 9.4-7.7q5.85-2.7 12.6-2.7c5.4 0 9.7 1 12.7 3.1s4.8 4.9 5.4 8.3c.5 3.5 0 8.4-1.6 14.7zm-16.8-10.4 1.2-4.8c.9-3.4 1.3-5.6 1.1-6.6q-.15-1.5-1.8-1.5c-1.4 0-2.3.4-2.8 1.3s-1.3 3.1-2.2 6.8l-1.2 4.8zm76.4-23.9-12.8 50.3q-2.55 10.2-3.9 13.2c-.8 2-2.5 4.1-4.9 6.3s-5.5 3.9-9.1 5.2c-3.6 1.2-8 1.8-13 1.8-6.3.1-11-.9-14.2-3-2.1-1.4-2.8-3-2.9-6V287l19.3-.1c-.8 2.9-.1 4.4 2 4.4 1.4 0 2.6-.5 3.3-1.4s1.4-2.8 2.2-5.6l1.3-5c-2.1 1.6-4.1 2.8-6.2 3.6-2 .8-4.1 1.2-6.1 1.2q-5.25 0-8.1-2.1c-2.85-2.1-3-3.3-3.3-5.7-.2-2.3.2-5.7 1.3-10l6.1-23.7c1.6-6.2 3.8-10.6 6.7-13.4 2.9-2.7 6.6-4.1 11-4.1q3.75 0 6.3 1.5c1.8 1 3.2 2.5 4.3 4.5l2.6-5zm-24 17.5c.7-3 1.1-4.9.9-5.7-.1-.8-.8-1.2-1.9-1.2s-2.1.5-2.8 1.4-1.4 2.8-2.1 5.5l-5.6 22q-1.05 4.35-.9 5.7c.1.9.8 1.3 1.9 1.3 1.3 0 2.3-.6 2.9-1.6.7-1.1 1.5-3.4 2.4-7.2zm75.4-17.9-12.8 50.3c-1.7 6.8-3 11.1-3.9 13.2-.8 2-2.4 4.1-4.9 6.3-2.4 2.2-5.5 3.9-9.1 5.1s-8 1.8-13 1.9c-6.3.1-11-.9-14.2-3.1-3.3-2.1-4.1-6.3-2.6-12.7l19-.2c-.7 3-.1 4.4 2 4.4 1.5 0 2.6-.5 3.3-1.4s1.4-2.8 2.2-5.6l1.2-5c-2.1 1.6-4.1 2.8-6.2 3.6-2 .8-4.1 1.2-6.1 1.2-3.5 0-6.3-.6-8.2-2.1-1.9-1.4-3-3.3-3.2-5.6s.2-5.6 1.3-10l6-23.7c1.6-6.2 3.8-10.7 6.7-13.4q4.35-4.05 11.1-4.2 3.6 0 6.3 1.5c1.7.9 3.2 2.5 4.2 4.5l2.6-5zm-24 17.5q1.05-4.5.9-5.7c-.2-.8-.8-1.2-1.9-1.2-1.2 0-2.1.5-2.8 1.4s-1.4 2.8-2.1 5.5l-5.6 22c-.7 2.9-1 4.9-.9 5.7.2.9.8 1.3 1.9 1.3 1.3-.1 2.2-.5 2.9-1.6s1.5-3.4 2.5-7.2z" style="fill:#002d6a"/></svg>