<?xml version="1.0" encoding="utf-8"?>
<!-- Generator: Adobe Illustrator 28.2.0, SVG Export Plug-In . SVG Version: 6.00 Build 0)  -->
<svg version="1.1" id="Layer_1" xmlns="http://www.w3.org/2000/svg" xmlns:xlink="http://www.w3.org/1999/xlink" x="0px" y="0px"
	 viewBox="0 0 512 512" style="enable-background:new 0 0 512 512;" xml:space="preserve">
<style type="text/css">
	.st0{fill:url(#XMLID_00000081607172876504424160000009014587813474239920_);}
	.st1{fill:url(#SVGID_1_);}
</style>
<linearGradient id="XMLID_00000062901140833434487280000000653138768517950594_" gradientUnits="userSpaceOnUse" x1="172" y1="-479.3945" x2="172" y2="32.6055" gradientTransform="matrix(1 0 0 -1 84 32.6055)">
	<stop  offset="0" style="stop-color:#C35F28"/>
	<stop  offset="1" style="stop-color:#E6A33F"/>
</linearGradient>
<circle id="XMLID_45_" style="fill:url(#XMLID_00000062901140833434487280000000653138768517950594_);" cx="256" cy="256" r="256"/>
<linearGradient id="SVGID_1_" gradientUnits="userSpaceOnUse" x1="332.7891" y1="331.7788" x2="-3.6032" y2="-4.6135">
	<stop  offset="0" style="stop-color:#EEDA5B"/>
	<stop  offset="0.2268" style="stop-color:#F0DE81"/>
	<stop  offset="0.4536" style="stop-color:#F2E19C"/>
	<stop  offset="0.6644" style="stop-color:#F3E3B0"/>
	<stop  offset="0.8528" style="stop-color:#F4E5BC"/>
	<stop  offset="1" style="stop-color:#F4E5C0"/>
</linearGradient>
<path class="st1" d="M150.4,113l20.3,7.4c-19.8,12.4-36.7,29-49.5,48.5l-7.3-20C124.3,135.3,136.6,123.2,150.4,113z M109.1,135.8
	c8.4-10.1,17.8-19.4,28.1-27.6l-18.2-6.7c-5.8,5.1-11.3,10.5-16.5,16.2L109.1,135.8z M96.6,410.4L93,420l9.6-3.5c-1-1-2.1-2-3.1-3.1
	C98.5,412.4,97.5,411.4,96.6,410.4z M25.1,256l9.7,4.5c0-1.2,0-2.3,0-3.5c0-1.9,0-3.7,0.1-5.5L25.1,256z M95,257
	c0-12.1,1.4-23.9,3.9-35.3l-19.6,9.1c-1.3,8.6-1.9,17.3-1.9,26.2c0,8.2,0.6,16.2,1.6,24l19.4,9C96.1,279.4,95,268.3,95,257z
	 M49,244.9c-0.2,4-0.4,8-0.4,12.1c0,3.4,0.1,6.7,0.2,10l17.5,8.1c-0.6-6-0.9-12-0.9-18.2c0-6.9,0.4-13.6,1.1-20.3L49,244.9z
	 M99.6,100.5c1.5-1.5,3-3,4.6-4.4L93,92l4.1,11.1C97.9,102.2,98.8,101.4,99.6,100.5z M392.1,171l7.4-20.2
	c-10.5-14.2-23.1-26.7-37.2-37.2l-20.2,7.4C362.2,133.7,379.3,150.8,392.1,171z M404.3,137.5l6.7-18.2c-5.4-6.1-11.2-11.9-17.3-17.3
	l-18.2,6.7C386.1,117.3,395.7,126.9,404.3,137.5z M416.4,104.5L421,92l-12.4,4.5c1.4,1.3,2.7,2.6,4,3.9
	C413.9,101.8,415.2,103.1,416.4,104.5z M277.2,67.7L269.1,50c-4.3-0.3-8.7-0.4-13.1-0.4c-3.7,0-7.4,0.1-11,0.3l-8.1,17.5
	c6.3-0.6,12.7-1,19.1-1C263.2,66.5,270.3,66.9,277.2,67.7z M262.4,35.8L257,24l-5.4,11.7c1.5,0,3-0.1,4.5-0.1
	C258.2,35.7,260.3,35.7,262.4,35.8z M292.3,100.1l-9.1-19.6c-8.9-1.4-17.9-2.1-27.2-2.1c-8.5,0-16.9,0.6-25.1,1.8l-9,19.5
	c11-2.4,22.4-3.6,34.1-3.6C268.5,96,280.6,97.4,292.3,100.1z M412.4,413.5c-0.8,0.8-1.6,1.6-2.5,2.4l11.1,4l-4.1-11.1
	C415.4,410.4,413.9,412,412.4,413.5z M412.9,220.7c2.7,11.7,4.1,23.8,4.1,36.3c0,11.7-1.3,23.1-3.6,34.1l19.5-9
	c1.2-8.2,1.8-16.5,1.8-25c0-9.2-0.7-18.3-2.1-27.2L412.9,220.7z M404.8,375.8c-8.2,10.3-17.5,19.7-27.7,28.1l18.1,6.6
	c5.7-5.2,11.1-10.7,16.2-16.5L404.8,375.8z M400,362.6l-7.4-20.3c-12.4,19.8-29,36.7-48.5,49.5l20,7.3
	C377.7,388.7,389.8,376.4,400,362.6z M445.3,235.8c0.8,7,1.2,14.1,1.2,21.2c0,6.5-0.3,12.8-1,19.1l17.5-8.2c0.2-3.6,0.3-7.3,0.3-11
	c0-4.4-0.2-8.7-0.4-13L445.3,235.8z M488.9,256l-11.7-5.4c0.1,2.1,0.1,4.3,0.1,6.5c0,1.5,0,2.9-0.1,4.4L488.9,256z M332.1,387.4
	l-24.3-8.9l-11.1,23.9c-12.9,3.6-26.6,5.6-40.6,5.6c-13.3,0-26.1-1.7-38.4-4.9l-11.4-24.6l-25.5,9.4c-23-13.3-42.2-32.5-55.5-55.5
	l9.4-25.5l-24.6-11.4c-3.2-12.3-4.9-25.1-4.9-38.4c0-14.1,1.9-27.8,5.6-40.7l23.9-11.1l-8.9-24.3c13.7-23.4,33.5-42.8,57.3-56
	l23.3,8.5l10.3-22.2c12.6-3.4,25.8-5.2,39.5-5.2c14.5,0,28.5,2,41.7,5.9l10,21.6l22.2-8.1c24.1,13.6,44.1,33.6,57.7,57.7l-8.1,22.1
	l21.6,10c3.8,13.3,5.9,27.3,5.9,41.8c0,13.7-1.8,26.9-5.2,39.5l-22.2,10.3l8.5,23.4C374.9,353.9,355.5,373.7,332.1,387.4z M377,257
	c0-66.8-54.3-121-121-121s-121,54.3-121,121s54.3,121,121,121S377,323.8,377,257z M108.6,377.5l-6.6,18.2c4.9,5.4,10,10.5,15.4,15.4
	l18.2-6.7C125.7,396.4,116.6,387.4,108.6,377.5z M252.5,478.2l4.5,9.7l4.5-9.8c-1.8,0-3.7,0.1-5.5,0.1
	C254.8,478.3,253.7,478.2,252.5,478.2z M237.8,446.6l8.2,17.6c3.3,0.2,6.7,0.2,10,0.2c4.1,0,8.1-0.1,12.1-0.4l8.2-17.7
	c-6.7,0.7-13.4,1.1-20.3,1.1C249.9,447.4,243.8,447.1,237.8,446.6z M120.7,344.3l-7.4,20.1c10,13.3,21.9,25.2,35.2,35.2l20.1-7.4
	C149.5,379.9,133.2,363.5,120.7,344.3z M223,414.6l9,19.4c7.9,1.1,15.9,1.6,24,1.6c8.9,0,17.6-0.7,26.2-1.9l9.1-19.5
	c-11.3,2.5-23.1,3.9-35.2,3.9C244.7,418,233.6,416.9,223,414.6z M256,156c-55.7,0-101,45.4-101,101s45.4,101,101,101
	s101-45.4,101-101S311.7,156,256,156z"/>
</svg>
