<svg xmlns="http://www.w3.org/2000/svg" xml:space="preserve" viewBox="0 0 512 512"><path d="M512 80v352c0 44.2-35.8 80-80 80H80c-44.2 0-80-35.8-80-80V80C0 35.8 35.8 0 80 0h352c44.2 0 80 35.8 80 80" style="fill-rule:evenodd;clip-rule:evenodd;fill:#0082c9"/><path d="M140.8 119.2h230.4c15.9 0 28.8 12.9 28.8 28.8v216c0 15.9-12.9 28.8-28.8 28.8H140.8c-15.9 0-28.8-12.9-28.8-28.8V148c0-15.9 12.9-28.8 28.8-28.8m0 57.6V220h57.6v-43.2zm86.4 0V220h57.6v-43.2zm144 43.2v-43.2h-57.6V220zm-230.4 28.8V292h57.6v-43.2zm0 115.2h57.6v-43.2h-57.6zm86.4-115.2V292h57.6v-43.2zm0 115.2h57.6v-43.2h-57.6zm144 0v-43.2h-57.6V364zm0-115.2h-57.6V292h57.6z" style="fill:#fff"/></svg>