<svg xmlns="http://www.w3.org/2000/svg" xml:space="preserve" viewBox="0 0 512 512"><path d="M432 0H80C35.8 0 0 35.8 0 80v352c0 44.2 35.8 80 80 80h352c44.2 0 80-35.8 80-80V80c0-44.2-35.8-80-80-80M115.4 205.8c0-5.5 4.5-10.1 10.1-10.1h180.8c5.5 0 10.1 4.5 10.1 10.1v20.1c0 5.5-4.5 10.1-10.1 10.1H125.4c-5.5 0-10.1-4.5-10.1-10.1v-20.1zM256 386.6c0 5.5-4.5 10.1-10.1 10.1H125.4c-5.5 0-10.1-4.5-10.1-10.1v-20.1c0-5.5 4.5-10.1 10.1-10.1h120.5c5.5 0 10.1 4.5 10.1 10.1zm120.6-80.4c0 5.5-4.5 10.1-10.1 10.1H125.4c-5.5 0-10.1-4.5-10.1-10.1v-20.1c0-5.5 4.5-10 10.1-10v-.1h241.1c5.5 0 10.1 4.5 10.1 10.1zm20-160.7c0 5.5-4.5 10.1-10.1 10.1H125.4c-5.5 0-10.1-4.5-10.1-10.1v-20.1c0-5.5 4.5-10 10.1-10 0 0 261.1 0 261.1-.1 5.5 0 10.1 4.5 10.1 10.1z" style="fill-rule:evenodd;clip-rule:evenodd;fill:#fff"/></svg>