<svg xmlns="http://www.w3.org/2000/svg" xml:space="preserve" id="nextcloudpi-dark_svg__svg6" x="0" y="0" version="1.1" viewBox="0 0 512 512"><style>.nextcloudpi-dark_svg__st0{fill-rule:evenodd;clip-rule:evenodd}</style><path d="M343.3 233.6c-2.5-1.3-4.7-2.7-5.5-4.9 3.3-2.3 14.4-.3 22.2-4.6-3-.6-4.5-1.2-5.8-3.4 7.5-2.4 15.4-4.4 20.1-8.3-2.6 0-5 .5-8.2-1.7 6.7-3.5 13.7-6.4 19.2-11.8-3.4-.1-7.1 0-8.2-1.3 5.9-3.9 11.2-7.9 15.4-12.5-4.7.6-6.7.1-7.9-.8 4.5-4.7 10.4-8.7 13.1-14.5-3.6 1.3-6.9 1.6-9.2-.1 1.6-3.5 8.2-5.6 12.1-13.8-3.8.4-7.8.8-8.6 0 1.8-7 4.6-11.2 7.6-15.2-8-.3-20.2 0-19.6-.7l5-5.1c-7.8-2.1-15.8.3-21.6 2.1-2.7-2.1 0-4.7 3.2-7.4-6.7.9-12.6 2.3-18.1 4.5-2.9-2.5 1.9-5.1 4.2-7.8-10.3 2-14.7 4.7-19 7.5-3.1-3.1-.3-5.6 2-8.2-7.8 2.8-11.8 6.6-16 10.3-1.4-1.9-3.6-3.3-.9-7.9-5.5 3.2-9.6 6.9-12.7 11.1-3.4-2.1-2.1-5.1-2.1-7.8-5.8 4.7-9.4 9.7-13.8 14.5-.9-.7-1.6-2.8-2.3-6.4-13.6 13.3-33 46.7-5 59.9 23.8-19.7 52.3-34.1 83.8-44.7-40.5 20.9-64 37.8-77 52.2 6.5 26.3 41 27.5 53.6 26.8m-86.8 16.1c-31.3 0-56.4 25.1-56.5 56.5v.4c.1 31.1 25.4 56 56.5 55.9 31.4 0 56.5-25.1 56.5-56.5v-.4c-.1-31.1-25.5-56-56.5-55.9m-43-23.8c7-4.1 12.7-10.2 14.9-19.4-13-14.4-36.6-31.3-77-52.2 31.6 10.8 59.9 25.1 83.8 44.7 28-13.3 8.7-46.7-5-59.9-.7 3.5-1.5 5.7-2.3 6.4-4.4-5-8.2-9.8-13.8-14.5 0 2.7 1.4 5.7-2.1 7.8-3-4.1-7.2-7.9-12.7-11.1 2.7 4.7.5 6-.9 8-4.2-3.7-8.2-7.5-16-10.3 2.1 2.7 5.1 5.1 2 8.2-4.4-2.7-8.7-5.5-19-7.5 2.3 2.6 7.2 5.1 4.2 7.8-5.5-2.1-11.4-3.6-18.1-4.5 3.1 2.7 5.8 5.3 3.2 7.4-5.8-1.8-13.8-4.3-21.6-2.1l5 5.1c.6.7-11.6.6-19.6.7 2.9 4.1 5.9 8.2 7.6 15.2-.9.8-4.8.4-8.6 0 3.9 8.2 10.6 10.3 12.1 13.8-2.4 1.7-5.7 1.4-9.3.1 2.7 5.9 8.5 9.8 13.1 14.5-1.2.9-3.2 1.4-8 .8 4.2 4.6 9.4 8.8 15.4 12.5-1.1 1.3-4.8 1.2-8.2 1.3 5.5 5.5 12.5 8.3 19.2 11.8-3.3 2.3-5.7 1.7-8.2 1.7 4.7 3.9 12.6 6 20.1 8.3-1.5 2.1-2.7 2.8-5.8 3.4 7.8 4.5 19.1 2.4 22.2 4.6-.8 2.2-3 3.7-5.5 4.9 7.8.5 24 .3 36.9-6.4.7-.3 1.3-.6 2-1.1M115 281.7c-13.7 0-24.5 10.7-24.5 24.5s10.8 24.6 24.5 24.6 24.5-10.9 24.5-24.6c-.1-13.7-10.8-24.5-24.5-24.5m282.4 0c-13.7 0-24.5 10.7-24.5 24.5s10.7 24.6 24.5 24.6c13.7 0 24.5-10.9 24.5-24.6-.1-13.7-10.8-24.5-24.5-24.5" class="nextcloudpi-dark_svg__st0"/><path d="M432 0H80C35.8 0 0 35.8 0 80v352c0 44.2 35.8 80 80 80h352c44.2 0 80-35.8 80-80V80c0-44.2-35.8-80-80-80m-34.8 365.5c-23.7 0-43.9-14.4-53.5-34.6-11 38.2-45.9 66.5-87.4 66.5-41.9 0-77.1-28.7-87.7-67.1-9.2 20.6-29.9 35.2-53.8 35.2-32.5 0-59.3-26.7-59.3-59.3 0-32.5 26.7-59.3 59.3-59.6 23.9 0 44.4 14.7 53.8 35.2 4.1-14.8 11.8-28.1 22.1-38.8-18.4 1.9-27.7-1.6-29.4-6.7-6.3-1.6-12.8-3.1-14.5-11-10.7-2.7-12.9-7.9-14-13.1-2.7-1.9-12.1-7.2-11.2-16.4-5.2-3.6-8.2-8.3-6.7-15-5.6-6.3-7-11.3-4.7-16.1-6.7-8.5-3.9-13-.9-17.4-5.1-9.4-.5-19.3 13.6-17.7 5.7-8.4 18-6.4 19.9-6.4 2.2-2.7 5.1-5.1 13.6-3.9 5.7-5 11.9-4.1 18.4-1.7 2.6-2.1 4.9-2.9 7.1-3 4-.1 7.6 2.4 11 3.9 9.3-3 11.3 1.2 16 2.8 10.1-2.1 13.1 2.6 18 7.5l5.7-.1c15.3 9 22.9 27.3 25.6 36.7 2.7-9.4 10.3-27.7 25.6-36.7l5.7.1c4.8-5 7.9-9.7 18-7.5 4.6-1.7 6.6-5.9 16-2.8 5.8-1.8 10.9-6.6 18.5-.6 6.5-2.6 12.8-3.4 18.3 1.8 8.8-1 11.4 1.2 13.6 3.9 2 0 14.2-2 19.9 6.4 14.2-1.7 18.7 8.3 13.6 17.7 2.8 4.5 5.9 8.8-.9 17.4 2.4 4.7.9 9.9-4.7 16.1 1.5 6.5-1.4 11.2-6.7 15 1 9.2-8.3 14.5-11.2 16.4-1 5.3-3.3 10.4-14 13.1-1.9 7.9-8.2 9.4-14.5 11-1.4 4.8-14.8 7.7-33.8 6.4 10.2 10.8 17.8 23.8 22.1 38.4 9.5-20.3 29.8-34.6 53.5-34.6 32.5 0 59.3 26.7 59.3 59.3.2 32.6-26.7 59.3-59.3 59.3" class="nextcloudpi-dark_svg__st0"/></svg>