<svg xmlns="http://www.w3.org/2000/svg" xml:space="preserve" viewBox="0 0 512 512"><path d="M512 80v352c0 44.2-35.8 80-80 80H80c-44.2 0-80-35.8-80-80V80C0 35.8 35.8 0 80 0h352c44.2 0 80 35.8 80 80" style="fill-rule:evenodd;clip-rule:evenodd;fill:#0082c9"/><path d="M125.4 115.4c-5.5 0-10.1 4.4-10.1 10v20.1c0 5.5 4.5 10.1 10.1 10.1h261.1c5.5 0 10.1-4.5 10.1-10.1v-20.1c0-5.5-4.5-10.1-10.1-10.1.1.1-261.1.1-261.1.1m0 80.3c-5.5 0-10.1 4.5-10.1 10.1v20.1c0 5.5 4.5 10.1 10.1 10.1h180.8c5.5 0 10.1-4.5 10.1-10.1v-20.1c0-5.5-4.5-10.1-10.1-10.1zm0 80.4c-5.5 0-10.1 4.4-10.1 10v20.1c0 5.5 4.5 10.1 10.1 10.1h241.1c5.5 0 10.1-4.5 10.1-10.1v-20.1c0-5.5-4.5-10.1-10.1-10.1zm0 80.3c-5.5 0-10.1 4.5-10.1 10.1v20.1c0 5.5 4.5 10.1 10.1 10.1h120.5c5.5 0 10.1-4.5 10.1-10.1v-20.1c0-5.5-4.5-10.1-10.1-10.1z" style="fill:#fff"/></svg>