<svg xmlns="http://www.w3.org/2000/svg" xml:space="preserve" viewBox="0 0 512 512"><path d="M512 80.5v352c0 44.2-35.8 80-80 80H80c-44.2 0-80-35.8-80-80v-352C0 36.3 35.8.5 80 .5h352c44.2 0 80 35.8 80 80" style="fill-rule:evenodd;clip-rule:evenodd;fill:#0082c9"/><path d="M256 128.5c-70.4 0-127.5 57.1-127.5 127.5S185.6 383.5 256 383.5c23.3 0 46.2-6.5 66.1-18.6 15.7 6.2 50.8 24.7 59.1 16.7 8.7-8.3-10.2-47.6-14.8-62.1 11.1-19.3 17-41.1 17-63.4.1-70.5-57-127.6-127.4-127.6m0 48.5c43.7 0 79 35.4 79 79 0 43.7-35.4 79-79 79s-79-35.4-79-79 35.3-79 79-79" style="fill:#fff"/></svg>