<?xml version="1.0" encoding="utf-8"?>
<!-- Generator: Adobe Illustrator 28.2.0, SVG Export Plug-In . SVG Version: 6.00 Build 0)  -->
<svg version="1.1" id="Layer_1" xmlns="http://www.w3.org/2000/svg" xmlns:xlink="http://www.w3.org/1999/xlink" x="0px" y="0px"
	 viewBox="0 0 512 512" style="enable-background:new 0 0 512 512;" xml:space="preserve">
<style type="text/css">
	.st0{fill:#3180C7;}
</style>
<path class="st0" d="M18.3,0.1C8.2,0.1,0,8.2,0,18.3v36.6C0,65,8.2,73.2,18.3,73.2h475.4c10.1,0,18.3-8.2,18.3-18.3V18.3
	c0-10.1-8.2-18.3-18.3-18.3C493.7,0.1,18.3,0.1,18.3,0.1z M18.3,146.3C8.2,146.3,0,154.5,0,164.6v36.6c0,10.1,8.2,18.3,18.3,18.3
	h329.2c10.1,0,18.3-8.2,18.3-18.3v-36.6c0-10.1-8.2-18.3-18.3-18.3H18.3z M18.3,292.6C8.2,292.6,0,300.7,0,310.8v36.6
	c0,10.1,8.2,18.3,18.3,18.3h438.9c10.1,0,18.3-8.2,18.3-18.3v-36.6c0-10.1-8.2-18.3-18.3-18.3H18.3z M18.3,438.8
	C8.2,438.8,0,447,0,457.1v36.6c0,10.1,8.2,18.3,18.3,18.3h219.4c10.1,0,18.3-8.2,18.3-18.3v-36.6c0-10.1-8.2-18.3-18.3-18.3H18.3z"
	/>
</svg>
