<svg xmlns="http://www.w3.org/2000/svg" xml:space="preserve" id="nextcloud-dark_svg__Layer_1" x="0" y="0" version="1.1" viewBox="0 0 512 512"><style>.nextcloud-dark_svg__st0{fill-rule:evenodd;clip-rule:evenodd}</style><circle cx="256" cy="255.9" r="54.5" class="nextcloud-dark_svg__st0" transform="rotate(-13.286 255.94 255.868)"/><path d="M119 232.6c-13.2 0-23.4 10.4-23.4 23.4s10.3 23.3 23.4 23.3 23.3-10.2 23.3-23.3-10.2-23.4-23.3-23.4m274.1 0c-13.1 0-23.3 10.4-23.3 23.4s10.2 23.3 23.3 23.3 23.3-10.2 23.3-23.3-10.2-23.4-23.3-23.4" class="nextcloud-dark_svg__st0"/><path d="M432 0H80C35.8 0 0 35.8 0 80v352c0 44.2 35.8 80 80 80h352c44.2 0 80-35.8 80-80V80c0-44.2-35.8-80-80-80m-38.9 313.6c-22.8 0-42.5-13.6-51.8-33-10.8 36.9-45 64.2-85.3 64.2s-74.5-27.2-85.3-64.2c-9.3 19.4-29 33-51.8 33-31.6 0-57.6-25.9-57.6-57.6s26-57.7 57.6-57.6c22.8 0 42.5 13.6 51.8 33 10.8-36.9 45-64.2 85.3-64.2s74.5 27.2 85.4 64.1c9.3-19.4 29-33 51.8-33 31.7 0 57.5 26.1 57.5 57.7s-26 57.6-57.6 57.6" class="nextcloud-dark_svg__st0"/></svg>