<svg xmlns="http://www.w3.org/2000/svg" xml:space="preserve" viewBox="0 0 512 512"><path d="M512 80v352c0 44.2-35.8 80-80 80H80c-44.2 0-80-35.8-80-80V80C0 35.8 35.8 0 80 0h352c44.2 0 80 35.8 80 80" style="fill-rule:evenodd;clip-rule:evenodd;fill:#0082c9"/><path d="M125.5 94.4c-4.5.8-8.2 5.3-8.1 10.1v303c0 5.3 4.7 10.1 9.9 10.1h257.3c5.3 0 9.9-4.8 9.9-10.1V173.3c-.1-1.5-.5-3.1-1.2-4.4L316.9 95c-1-.4-2.1-.6-3.1-.7H127.4c-.7.1-1.2.1-1.9.1m38.2 46.1h138.6v23.1H163.7zm0 69.3h115.5v23.1H163.7zm0 69.3h184.8v23.1H163.7zm0 69.3H256v23.1h-92.4z" style="fill:#fff"/></svg>