<svg xmlns="http://www.w3.org/2000/svg" xml:space="preserve" id="nextbeats_svg__Layer_1" x="0" y="0" version="1.1" viewBox="0 0 512 512"><style>.nextbeats_svg__st0{fill:#21253d}</style><path d="M246.2.5c.9 0 1.8-.1 2.6-.1 52.5-1.3 104 13.6 147.7 42.8C408 50.8 419 59.1 429 68.6c7.8 7.4 15.4 15 22.3 23.2 36.7 43.7 59.3 99.8 60.7 157 1.7 68.8-24.2 135.5-72.1 185-37 38.4-85.2 64.1-137.8 73.5-11.8 2.2-24 3.8-35.9 4-50.4 2.2-100.3-10.9-143.2-37.5-11.7-7.1-23.1-15.2-33.3-24.2C36.6 402.6 4.6 340.4.4 269.2c-3-57.7 13.9-114.6 47.9-161.3 4.4-6 8.9-12 13.9-17.5 10.5-11.8 21.5-22.8 33.7-32.8 32-25.9 69.7-43.7 110-52.1 13.3-2.8 26.6-4.2 40.3-5" class="nextbeats_svg__st0"/><path d="m378.3 367-45.4 16.6-127 46.3h-.3c0-.5-.1-.4.1-.8 3-7.7 5.7-15.8 9.1-23.3 9-3.7 18.3-6.9 27.4-10.1 15.3-5.6 30.7-11 46.2-16.4l126-45.2h.2c.2.6-10.2 21.1-11.4 23.9-8.2 3.2-16.6 6-24.9 9m-28.9-36.2c-.7-.5-1.8-.5-2.6-.6-.5.7-.8 1.1-.9 2.2.3.8.6 1.3 1.5 1.7.8.3 1.6.5 2.4.7.6-.7.8-1.2 1-2-.3-1.1-.5-1.5-1.4-2m-112.2 41.5c-.5-.1-1.1-.1-1.6-.2-.7.3-1.6.7-1.9 1.5q-.45 1.05 0 2.1c.4 1 1.5 1.8 2.5 2.1.5.2 1 .1 1.6.1.7-.2 1.9-.5 2.3-1.2.4-.6.4-1.2.2-1.9-.4-1.1-2-2.2-3.1-2.5m172.9-16.5c12.6-5.1 25.5-9.1 38.1-14 3.9-7.5 7.7-15.1 11-22.9l-.3-.2c-7.1 3.1-14.5 5.3-21.9 7.8-5.4 1.9-10.8 4.2-16.3 5.6-1.2 2.7-11.1 23-11 23.6zm4.6-27.9h-.4c-5.4 2.1-11 3.8-16.3 5.8l-26 9.4-55.4 19.6c-9.5 3.4-18.9 6.9-28.4 10.2l-43.3 15.2c-8.6 3-17.6 5.9-25.9 9.7-.8.4-1.5 1-2 1.8v.5c.4.1.6.1 1.1 0 24.5-9.6 49.6-18.1 74.5-26.9l92.8-33.3c9.3-3.4 18.9-6.4 28.2-10 .9-.3 1.6-.6 2.1-1.3-.3-.5-.4-.7-1-.7m-147.5 28.2c-.8-.3-1.7-.3-2.6-.3-.6.7-1 1.1-1.3 2 .2.8.2 1 .9 1.5 1 .8 2.6.7 3.8.7.6-.8.8-1.1.8-2.1-.4-.9-.7-1.4-1.6-1.8m157.1 7.1c4.1-4.3 8.5-8.5 12.4-13l-.1-.3c-1.9.8-4.1 1.4-5.8 2.7-4.5 3.3-10.1 10-14.1 14.2-11.1 11.6-21.9 23.3-33.2 34.6-6.5 6.5-13.7 14.4-21.5 19.2-3.2 1.9-7.7 4-11.3 2.4-1.4-.6-2.4-1.8-3-3.3-2.2-5.6.7-12.7 3.1-17.7 5-10.4 12.9-19.5 20.1-28.5-2.1.8-4.2 1.5-6.2 2.5-8.4 8.2-21 27.3-21.1 39 0 3.2 1 6.4 3.3 8.8 1.9 1.9 4.5 3 7.2 2.9 3.6-.1 7.1-1.8 10-3.6 10.6-6.6 25.4-22.7 34.3-32.2zm-38.6-38.9c.8-.6 1-.9 1.4-1.8-.1-.9-.2-1.4-.9-2-1-.7-2-.9-3.2-1-.8.5-1.2.7-1.5 1.4-.1.8-.1 1.2.4 1.8 1 1.2 2.3 1.5 3.8 1.6m75.2 36.2c-3.1 2.2-5.9 5.5-8.5 8.5-3.9 4.2-7.8 8.3-11.7 12.5-14.5 15.2-29.5 30.1-43.9 45.4-.6.6-1.1 1.3-1.2 2.1-.1.4.1.8.3 1.1s.8.7 1.2.9c2.5-1.8 4.7-4.8 6.8-7.1 2.7-2.9 5.5-5.8 8.3-8.7 5.7-5.9 49.4-50.4 50.2-52.6 0-.7-.1-1.2-.7-1.7-.3-.2-.5-.3-.8-.4m-91.1-72c1.9.5 37.6 32.3 41.2 36-3.8 1.5-7.8 2.5-11.6 3.9l-49.5 17.7c-34.3 12.4-68.6 24.6-103 36.5-9.8 3.4-19.7 7-29.2 11.2-.1-9.2-.4-18.3-1-27.4-.4-7-1.2-14.5-.5-21.5 7.7-3.5 15.7-6.4 23.7-9.3 13.5-5 27-9.8 40.6-14.5 29.8-10.5 59.6-21.4 89.3-32.6M244.5 374c-.6-2.2-2.2-4-4.1-5.1s-3.6-1.2-5.7-1c-2.3.8-4.5 1.8-5.5 4.3-.7 1.6-.6 3.3.1 4.9 1 2.2 3 4 5.3 4.8 1.3.5 2.6.5 4 .4 2.1-.5 4.1-1.4 5.3-3.4.9-1.5 1-3.3.6-4.9m28-17.7c-1-2.2-3-3.8-5.2-4.5-1.3-.4-2.7-.4-4.1-.2-1.8.8-3.3 1.9-3.9 3.7-.6 1.6-.3 3.3.5 4.8 1.1 2.2 3.2 3.7 5.5 4.3 1.1.2 2.2.1 3.3-.1 1.8-.7 3.3-1.7 4.1-3.6.6-1.4.4-3-.2-4.4m29.9-33.8c-.7-1.3-2.1-2.4-3.5-2.8-.9-.2-1.8-.2-2.7-.2-1.6.8-3 1.7-3.5 3.4-.4 1.3-.2 2.5.4 3.7.7 1.3 2.1 2.5 3.5 2.9.9.3 1.9.2 2.8.2 1.6-.8 2.8-1.6 3.4-3.3.4-1.3.2-2.7-.4-3.9m52.4 8.5c-.7-2-2.4-3.7-4.4-4.6-1.2-.5-2.6-.7-3.9-.7-1.8.6-3.3 1.7-4.2 3.3-.8 1.4-.9 3.3-.4 4.8.6 1.9 2.1 3.4 3.9 4.2 1.5.7 3 .9 4.7.8 1.8-.6 3.3-1.5 4.2-3.3.7-1.4.6-3.1.1-4.5m22.8-6.4c1.1 2.1 3.2 3.5 5.5 4.1 1.2.3 2.4.2 3.6 0 2.1-1 3.7-2 4.5-4.3.6-1.6.3-3.5-.5-5-1.1-2-3.1-3.3-5.2-3.9-1.3-.4-2.5-.3-3.8-.2-2 1-3.7 2.2-4.5 4.4-.6 1.6-.4 3.4.4 4.9M65.9 233c-1.1-2.2-2.5-5.9-4.1-7.6-3.3 7.2-8.9 16.9-6.1 24.8 2.2 5.8 5.9 11.4 8.7 16.9l21.1 41.5 32.2 63c5.2 10 10.2 20.3 15.9 30.1l1.5-2.4c2.8-3.9 5.6-8.7 9.1-12L78.3 256.9c-4.1-8-8.2-16-12.4-23.9m245 163.1c-2.9 2.6-5.5 5.5-8.2 8.3l-13.5 13.8-37 37.3c-1.6 1.6-8.8 8.2-9.5 9.9-.3.6-.3 1-.1 1.6.2.3.6.7.8 1 .9-.2 1.4-.6 2.1-1.2 3.7-3.2 7.2-6.9 10.7-10.4 8.2-8.2 16.4-16.4 24.5-24.8l24.9-25.3c4.1-4.2 8.4-8.4 12.3-12.8 0-.4.1-.3-.1-.5-2.3.9-4.9 1.4-6.9 3.1M252.6 75.7c.7-.4 2.9-7.2 3.8-8.7 1.1-1.9 2.7-3.2 4.3-4.6-4-3.3-5.2-6.7-6.8-11.4-.2-.8-.4-1.7-.9-2.3-1.2 5.2-3.4 10.3-8.2 13.3-.3.1-.5.3-.7.4 4.7 3.9 6.9 7.5 8.5 13.3M123.2 119c-2.5-3-4-5.8-5.4-9.5-1.3 3.8-2.8 6.9-5.8 9.6 2.3 2.8 3.7 5.6 5.5 8.7 1-3.5 3-6.5 5.7-8.8m297.7 8.7c-1.1-1.8-2.9-3.8-3.4-5.8-1 2.1-2.1 4.1-3.5 6.1 1.8 1.8 2.2 3.5 3.3 5.6.9-2.3 2.1-4 3.6-5.9m-268 309.9c-6.4-10.1-11.7-21.3-17.1-32.1 2.6-5.1 6.6-9.7 10.1-14.3 2.1 2 12.8 22.9 14.6 27v.2c-1 6.5-4 14.7-6.6 20.8zm.2-8.6c.7.2 1.4.1 2.1.1 1.3-.9 2.4-1.8 2.6-3.4.5-3.5-7.6-16.8-10.1-19.9-1-1.2-2.4-2.8-4.1-3h-1.1c-1.3.8-2.3 1.6-2.7 3.1-1 3.9 5.8 15 8.1 18.5 1.3 1.9 2.8 4.2 5.2 4.6m309.5-127.4c1 3.1 1.1 6-.5 9-.8 1.6-1.9 2.7-3.4 3.5-4.7 2.7-10.8 4.2-16 5.9-7.4 2.5-14.8 5.3-22.2 7.5-3.6-4.1-7.9-7.6-12-11.2-5.9-5.3-11.8-10.5-17.8-15.6-5.5-4.7-11.4-9.3-16.5-14.5 4.7-1.7 9.4-3.3 14-5.1 5.4-2 10.7-4.2 16.1-6.1l12.3-4.4c2.9-1 6-1.9 8.8-3.3 1-.5 1.7-1.1 2.4-1.9 2.2-2.8 2.5-6.6 2-10-.4-2.6-1.2-5.1-2.3-7.4-2.6-5.5-5.7-10.8-8.5-16.2l-22.3-42.1-18.4-35c-3-5.9-5.7-12.1-9.1-17.7-1.1-1.9-2.4-3.5-4.2-4.8-3.6-2.6-13.9-7.8-18.3-6.9-3.1.6-6.4 2-9.4 3l-19.3 6.5-54.3 18.1c-35.7 11.7-71.3 23.7-106.9 35.9l-35.6 11.9c-6.9 2.3-14 4.3-20.8 6.9-2.6 1-4 2.1-5.6 4.5-4.3 6.5-6.9 13.3-5.2 21.2.9 4.1 3.1 7.6 5 11.3l8.5 16.6 22.7 45c4.9 9.8 9.6 19.8 14.3 29.7 2.3 4.9 4.5 10 7.2 14.8 1.4 2.5 2.9 4.8 5.4 6.3 2.7 1.7 6.1 2.2 9.2 1.5 4.7-1.1 9.4-3.8 13.9-5.4 6.6-2.4 13.1-4.9 19.6-7.4 4.7-1.8 9.4-3.3 14-5.2 7.9-3.2 15.7-6.7 23.6-9.8 13.8-5.3 27.9-9.9 41.8-14.9l78.3-28.9 43-15.5c6.2-2.2 12.7-4 18.9-6.5 1-.4 1.8-.9 2.6-1.6 1-.8 1.9-1.8 2.5-2.9 1.3-2.3 1.2-5.3.4-7.8-1.8-5.6-5.4-11.1-8.2-16.2-3.6-6.5-7-13.1-10.4-19.7-9.8-19.2-19.8-38.4-30-57.4-2.9-5.4-5.6-12.3-8.9-17.2-1.9-2.9-4.8-5.1-7.9-6.6-3.2-1.6-6.6-2.7-10.2-1.9-6.1 1.3-12.1 4.1-18 6.1l-48 16.5L134.8 205c-5.5 1.9-11.1 3.8-16.6 5.7-4.6 1.5-9.9 2.8-14 5.3-2.2 1.3-4 3.2-5.3 5.5-2.5 4.3-3.2 9.4-1.8 14.1 1.7 6.3 6.3 13.8 9.2 19.8l21.1 42.5c6 12 11.7 24.1 17.7 36 2.2 4.3 4.2 8.9 6.8 13.1 1.2 1.9 2.5 3.5 4.5 4.6 6.7 3.6 14.2-.7 20.8-2.7l.3-.3.4.2h-.2c-1.5.7-3 1-4.5 1.6-3.3 1.5-6.5 3.1-10 4-3.1.9-6.4.8-9.2-.9-1.3-.8-2.2-1.9-2.9-3.2-.8-1.5-1.4-3.1-2.1-4.6-2.6-5.4-5.4-10.7-8-16.1l-20.7-42.2-17.6-34.8c-3-5.9-7.6-13.7-9.1-20.1-1.7-7.5 2.5-14.4 6.3-20.5 6.6-2.6 13.9-4.4 20.7-6.5 9.8-3.1 19.6-6.4 29.3-9.7L297.7 146c10.7-3.5 21.3-7.1 31.9-10.8 5.5-1.9 11.1-4.2 16.7-5.8 1.2-.4 2.2-.5 3.4-.3 4.3 1 13.4 4.8 15.7 8.5 3.6 6 6.6 12.6 9.8 18.9l20.8 40.3c6.7 13 13.4 26 20 39 2.9 5.6 6.5 11.3 8.9 17.2.9 2.2 1.4 4.6.7 7-.4 1.4-1.2 2.9-2.5 3.7-4.4 2.5-10.1 3.8-14.9 5.5-7.8 2.8-15.6 5.7-23.3 8.7-11.3 4.2-22.4 8.7-33.6 12.9l-72 26.2c-14.7 5.1-29.3 10.4-43.9 15.8-6.8 2.5-16.8 5.8-22.7 9.4l-.3.2c-1.5 4.8-.6 10.8-.4 15.7.6 13.3 2.5 30.7-.1 43.6-6.9 2.5-13.8 5.2-20.7 7.9-4.3 1.6-9 3.9-13.5 4.6-2 .3-3.7.2-5.5-.6-2.8-1.2-4.7-3.2-6.2-5.8-4.1-7.1-7.6-14.6-11.2-22l-14.2-28.3-37.3-73.7-24.6-48.1-7-13.2c-1.4-2.6-3-5.3-4-8-.4-1.1-.4-2.1.1-3.1 1.9-3.3 5.3-5.4 8.7-6.9 8.2-3.6 17.1-6.2 25.6-9.2 21.3-7.4 42.8-14.2 64.1-21.5 37.4-12.8 74.9-25.3 112.5-37.4l52.2-17.1c9-3 17.6-6.1 26.4-8.6 2.3-.2 4.9.4 6.9 1.4 2.3 1.2 3.5 2.9 4.8 5 4.6 7.8 8.6 16 12.6 24.1 3 6.1 6.2 12.1 9.2 18.1L430 236c7.6 14.6 15 29.3 22.4 44 3.3 6.6 7.9 14.6 10.2 21.6M169 406.5c1.1 1.4 3.1 3 4.9 3.2.5.1 1 .1 1.5.1 1.3-.8 2.4-1.7 2.8-3.2.3-1.1 0-2.1-.6-3.1-.9-1.4-2.6-2.7-4.3-3-.8-.2-1.7-.2-2.5-.2-1.2.6-2.3 1.3-2.7 2.7-.3 1.3.2 2.5.9 3.5M82.8 213.4c-.6-1.1-1.8-2.1-3-2.4-.9-.2-1.9-.2-2.8-.1-1.6.7-2.8 1.3-3.4 2.9-.5 1.4-.3 2.9.4 4.2.8 1.4 2.3 2.8 3.9 3.2.6.2 1.2.2 1.8.2 1.6-.8 2.8-1.5 3.4-3.3.6-1.5.5-3.3-.3-4.7m282.8-96.8c-.7-1.2-1.9-2.3-3.3-2.6-.8-.1-1.7 0-2.5.1-1.4.9-2.4 1.7-2.8 3.4-.2 1.1 0 2.2.6 3.1.7 1 1.9 1.8 3.2 2 .8.1 1.6 0 2.4-.1 1.2-.6 2.2-1.3 2.7-2.7.4-1.1.2-2.2-.3-3.2m92 187.3c-.7-1.3-2.1-2.3-3.5-2.6-.7-.1-1.3-.1-2-.1-1.4.5-2.6 1.1-3.3 2.5-.5 1.1-.5 2.4 0 3.5.5 1.2 1.6 2.3 2.9 2.8.8.3 1.8.4 2.7.3 1.5-.7 2.8-1.3 3.4-2.9.5-1.2.4-2.4-.2-3.5M87.5 260.4c-2.7-5.3-20.3-41-22.6-42.9-.7 2-.7 3.1.2 5 2.9 6.3 6.4 12.3 9.5 18.5l32.1 63.2c13.5 26.3 26.2 53 39.7 79.2 1.3 2.5 16.8 31.5 17 31.6.2-.8.4-1.6.7-2.3-6.7-12.4-12.4-25.3-18.8-37.9zm225.2 187.8c-.7-1-1.5-2.2-1.9-3.4-.7-1.9-1.5-8.2-2.9-9.3v.2c-1.3 5.1-.8 11.4-6 14.4-.6.4-1.3.6-2 .9 3.2 1.4 5.3 3.4 6.7 6.8.5 1.3 1.2 5.1 2.1 5.7 1-4 2.1-8.9 5.8-11.4.6-.4 1.4-.6 2.1-.9l.1-.3c-2.1-.3-2.8-1-4-2.7m-151.6-4c4.7.1 33.7-11.3 40-13.7 2.2-7.8 5.9-15.1 8.2-22.9l-.1-.2c-5.7 2.2-11.4 4.3-17.2 6.4-4.3 1.6-9 3.9-13.6 4.6-2.5.4-5.3.2-7.7-.8-1.6-.7-2.7-1.7-3.9-2.9-3.1 9.1-6.1 18.1-9.5 27.1 0 .5-.2.8.1 1.2.8 1 2.5 1.2 3.7 1.2m15.2.1c8.8-3.1 17.5-6.2 26.1-9.8-3.5 4.2-7.7 7.6-11.4 11.5-7.4 7.7-14.9 15.2-22.4 22.8-3.3 3.4-6.5 6.9-9.9 10.1-3.9-1.7-7.7-3.8-11.5-5.8-17.5-9-33.6-19.6-48.5-32.4-51.7-44.5-81-102.2-85.9-170-4.5-62 17.9-125.4 58.5-172.2 39.1-45.3 93.3-75 152.5-83.5 7.2-1.1 14.5-1.6 21.8-2.1 4.4-.5 9.1-.3 13.5-.2 26 .4 51.8 5 76.3 13.7 45.4 16 85.1 45.1 114.1 83.5 6 8 12.2 16.6 16.5 25.6-3.1 3.9-6.6 7.3-10.1 10.9-4.5 4.6-8.9 9.1-13.4 13.6-10.2 10.2-20.2 20.5-30.6 30.5-8.1-16.9-17.2-33.5-25.8-50.2-3.4-6.7-6.7-13.4-10.3-20-1.4-2.5-2.7-5.4-4.5-7.7-1.6-2-3.8-3.3-6-4.4-2.9-1.4-5.7-1.8-8.9-1.3-10.1 1.6-20 6.2-29.7 9.3-24.1 7.7-48.1 15.5-72 23.7 4.3-4.6 9.1-8.7 13.6-13.1l28.4-27.9 8.5-8.4c1.7-1.7 3.8-3.4 5.2-5.4.1-.7.1-1-.2-1.7-.8-.4-1.3-.2-2 .3-3.4 2.1-6.5 6.1-9.4 8.9-6.2 6-12.3 12-18.4 18L256.5 134c-2.2 2.1-5.7 6.2-8.1 7.7-3.6 2.2-12.4 4.2-16.8 5.6l-30.7 10c10.7-9.9 23.5-23.3 24.5-38.7.4-5.7-1.2-10.7-5-15-4.3-4.9-10.6-7.7-17.1-8-14.2-.8-27.6 8.8-37.8 17.8-7 6.3-13.6 13.1-20.3 19.8l-27.4 27.2-12.2 12.1c-1.8 1.8-4 3.5-5.6 5.4-.4.4-.5.8-.5 1.4 0 .7.1 1 .6 1.5 1.1 0 1.8-.6 2.6-1.2 1.5-1.3 2.7-2.8 4.1-4.2 2.2-2.2 4.5-4.4 6.8-6.6 10-9.7 20.1-19.4 29.8-29.3 5.3-5.4 10.7-10.6 16-15.9 3.8-3.7 7.3-7.5 11.5-10.8 7.2-5.8 15.4-11.7 24.6-13.5 6.5-1.3 13.4-.6 19 3.3 4 2.7 6.9 6.8 7.7 11.6 1.5 8.7-3.5 17.8-8.3 24.7-4.8 6.4-10 12.1-16 17.4-1.5 1.3-3.1 2.9-4.8 3.9-3.5 2-9.5 3.3-13.5 4.6l-17.1 5.7-41.1 14.1c-15.3 5.1-30.7 10.1-45.7 15.9-6.2 2.4-10.2 5.9-12.9 12-1.6 3.8-3 7.7-4.5 11.6-2.5 6.1-6.3 12.7-7 19.3-.4 3.1.2 6 1.4 8.9 2.2 5.5 5.3 10.7 7.9 15.9 7.1 14 14.5 27.9 21.5 41.9 15.2 30.7 30.8 61.2 47 91.4 7.5 14.2 14.3 28.9 22.9 42.5.9 1.5 2.1 2.6 3.7 3.2 2.2.9 5 1.5 7.3 1.2 4.3-.4 9.1-2.7 13.3-4.1M410 127.5c1.2 2 3.8 3.3 4.5 5.5.5 1.7.4 3.6 1 5.4.3.9.7 1.8 1.6 2.1.3.1.9.1 1.2.1 1.9-3.5 1.8-8.7 5.2-11.1.7-.4 1.3-.8 1.6-1.6-.2-2.1-2.8-3.7-4-5.3-1.4-1.9-1.2-4.7-2.8-6.6-.8-.3-1.2-.3-2-.2-1.2 2.1-1.2 4.6-2.3 6.7 0 .1 0 .2-.1.3-1 1.8-4.1 2.5-3.9 4.7M324.3 86c1.5 3.1 4.2 5.3 7.4 6.4 6.4 2.2 14 .8 19.9-2.1 6.2-3.1 10.7-8.1 15.8-12.6 3.8-3.3 7.7-6.1 12.1-8.6.7-.6.6-.6.7-1.5-.3-.7-.4-.8-1-1.2-2.8-.3-7.4 3.6-9.6 5.4-10.1 8.2-18.2 20.2-33.1 18.8-3.1-.3-6.1-1.4-8.1-3.9-1.8-2.2-2.3-4.9-2-7.6.8-6.7 6.3-13.3 11.5-17.2 1.8-1.4 7.1-3.9 7.8-5.6-.3-.7-.6-1-1.3-1.3-.2 0-.3-.1-.4-.1-8.3 3.7-16.1 10.7-19.6 19.3-1.5 3.8-1.8 8-.1 11.8m-84.6-23.7c1.8 3.2 6.7 4.4 8.5 9 1.1 2.8 2.5 11.1 3.4 12.5.4.5.8.6 1.4.8 2.2-2.4 3.4-11.4 5.5-15.2 1.7-3.2 4.9-4.2 7-6.9-.3-1.1-5.3-4.7-6.7-7-2.4-3.9-2.4-12.4-4.8-15q-.75-.3-1.5-.3c-2.4 5.3-2.7 11.1-5.9 16.1-1.6 2.6-5.8 3.5-6.9 6M137.2 98.8c.2.6.2 1 .8 1.3.2.1.7.2.9.2 2.2-1.7 4.2-3.9 6.2-5.9 3.2-3.2 6.3-6.2 9.5-9.3 7.9-7.5 15.6-15.1 23.2-22.8 3.3-3.3 7-6.4 10-9.9.6-.6.9-1 1-1.8-.2-.8-.3-.8-1-1.3l-1-.1c-8.6 7.7-17.2 17.1-25.7 25.4l-13.7 13.3c-2.8 2.7-5.7 5.3-8.4 8.1-.8.9-1.5 1.6-1.8 2.8M107.8 119c2 2.5 4.8 5.2 6.1 8.2 1.2 2.6.8 8.7 3.5 9.9l1.4-.1c1.2-5 .9-10.1 4.8-14 1.2-1.3 3.4-2.8 4.2-4.3-2.8-3.1-6.3-5.9-7.3-10.2-.5-2.1-.7-4.3-1.3-6.3-.3-.9-.5-2-1.7-2.1-.3 0-.7.1-.9.1-1.5 4.4-1.2 8.8-3.7 12.9-.6 1-5.1 5.6-5.1 5.9m-59.3 63.8c.2.8.2 1 .9 1.5.2.2.6.4.8.5 4.1-3.1 9.1-9 12.9-12.7l16.5-16.5c2.2-2.3 4.6-4.4 6.7-6.8.6-.6.7-.8.8-1.6-.4-.8-.7-1.1-1.5-1.4-2.8 1.7-5.2 4.6-7.4 7l-12.3 12.5c-5.5 5.5-11.5 10.7-16.8 16.4-.3.3-.5.6-.6 1.1m20.4 122.8c-.3-.4-.9-.7-1.4-.8-2.5 1.9-20 19.3-20.5 21.8.5.9 1 1.1 1.9 1.4 1.7-1.3 19.8-19.7 20.3-21.4.1-.4-.1-.7-.3-1m28.3 44c-.2-.8-.2-.8-.9-1.4l-1-.1c-4 3.8-7.8 8.1-11.8 12-3 3.2-6.6 6.3-9.3 9.8-.4.5-.5.8-.6 1.4.3.7.7 1.1 1.4 1.4.1.1.3.1.4.1 3-2.9 21.1-20.7 21.8-23.2m27 70.1c0-.3-.2-.8-.4-1.1-.3-.3-.6-.5-1-.7-2.5 1.6-14.8 12.9-15.4 15.4 0 .3.1.7.3 1 .2.4.8.8 1.2 1 1.9-1.3 15.1-14.5 15.3-15.6M270 253.5c-1.6-6.1-1.4-12.6 1.5-18.3l-.1-.3-.2-.1c-11.4 4.1-22.8 8.1-34.2 11.9-3.2 1.1-6.4 2.3-9.7 3.3 9.5 5.2 17.4 11.1 20.7 22 1 3.3 1.3 6.7 1.2 10.2-.2 1.4-.3 2.7-.5 4.1 12.2-4.4 24.5-8.9 36.5-13.7-7.3-4.2-13-10.8-15.2-19.1m42.1-18.7c-.9-4.3-.1-9 2.4-12.6 3.5-5.2 8.7-6.8 14.5-7.8 6.7-.5 12.7.4 18.3 4.3 4.9 3.3 8.2 8.5 9.2 14.3.8 4.7-.5 9.4-3.2 13.2-3.6 5-8.4 7.1-14.3 8.1-1.6.1-3.9.7-5.2-.3-.4-.8-.6-1.7-1.4-2.2-1.8-1.1-5.6-1.9-7.7-1.3-.1 0-.2.1-.4.1-.8-.4-1.5-.8-2.2-1.2-4.9-3.2-8.8-8.9-10-14.6m7.5 2.5c-.7-.9-1.2-1.2-2.3-1.5-1 1.1-1.6 2.3-1.3 3.7.1 1.1.7 2.1 1.6 2.8.5.4 1.1.6 1.7.8.7-.5 1.1-.7 1.4-1.6.4-1.3-.3-3.1-1.1-4.2m13.7-15.2c-1-.8-1.8-.9-3-1-1 .2-2.7.4-3.2 1.2-.5.6-.5.9-.5 1.6.5.8 1.2 1.3 2.2 1.5.5.1.9.2 1.4.2 1.6-.3 2.4-.4 3.4-1.8.1-.9.1-.9-.3-1.7m15.4 25.3c-.6-.8-1.3-1.3-2.2-1.6-1.8.7-4.6 1.6-5.5 3.5-.2.4-.1.6-.1 1.1.7 1 1.4 1.3 2.6 1.5 1.8-.6 4-1.4 5-3.1.3-.5.3-.8.2-1.4m-4.5-15.1c1 .8 1.9 1.2 3.1 1.5.5-.5 1.1-1.1 1.1-1.9-.1-1.6-1.2-2.9-2.4-3.8-.9-.7-1.5-1-2.6-1-.6.6-1 1-1.1 2 0 1.3.9 2.4 1.9 3.2m-31.8.6c.2.6.1.4.6.8 1.4-.5 1.8-1.7 2.4-2.9 2.5-5 5.2-8.3 10.7-10.1 4.9-1.6 10.3-.8 14.8 1.5 2 1.1 3.8 2.5 5.5 4 2.9 3.1 4.7 6.6 4.6 10.9-.1 2.8-1.3 5.5-1.1 8.2.6.5.6.6 1.4.7 1.5-.7 2.2-2.6 2.7-4.1 1.4-4.2.6-9.7-1.4-13.6-2.8-5.4-8.3-9.3-14-11.1-3.1-1-6.4-1.3-9.6-.9-5.5.8-10.4 3-13.7 7.4-1.7 2.3-3.6 6.2-2.9 9.2M226 327.6q-28.5 9.6-56.7 20.4c-1 .4-2 .7-3 1-2.6.8-5.5.6-7.9-.8-1.9-1.1-3.2-2.7-4.2-4.5-4.3-7.4-7.8-15.5-11.6-23.1l-20.9-42-13.4-27.2c-2.5-5.2-6-10.9-7.4-16.5-.9-3.8-.6-8.8 1.5-12.1 1.4-2.1 3.3-3.7 5.6-4.6 8.3-3.3 17.1-5.8 25.6-8.7l38.8-13.1L271 163l54.9-18.9c4-1.4 7.9-2.8 11.8-4.2 2.6-.8 5.3-2.1 8-2.6 2.3-.1 4.3.2 6.4 1 2.6 1 5.8 2.7 7.4 5.1 2 2.8 4.5 8.3 6.1 11.5 4.7 8.8 9.2 17.6 13.8 26.4l19 36.6c5.8 11 12.1 22 17.2 33.3 1 2.1 1.4 4.5.5 6.7-.5 1.3-1.6 2.3-2.8 2.9-5.6 2.6-11.9 4.2-17.8 6.3l-36.9 13.3q-50.55 18.75-101.4 36.9c-10.4 3.6-20.8 6.8-31.2 10.3m-47-100.3 67.9-23.8 75.8-26c5.5-1.9 11.1-3.5 16.5-5.5 1-.4 2-.8 2.7-1.6.2-.4.3-.5.1-.9-.2-.5-.5-.7-1-1l-.9-.1-159.3 55-28.5 10.1c-3.9 1.4-11 3.1-14.2 5.2-.3.6-.4.9 0 1.6.3.6.7.8 1.3.9h.1c13.2-4.4 26.3-9.3 39.5-13.9m-15.3 20.4L296 201.6c6.3-2.3 12.7-4.5 19.1-6.5 4.9-1.6 12.5-3.5 16.8-6.2.5-.3.9-.6 1.1-1.1s.2-.3.1-.9c-.7-.4-1.3-.5-2-.5-30.7 10.2-61.1 21.2-91.6 31.7-18.8 6.3-37.6 12.8-56.3 19.6-5.8 2.1-11.9 3.8-17.6 6.1-1.4.5-3.1 1.3-3.9 2.7v.5c.6.5 1.3.7 2 .7m43 65.6c9.3-1 22.8-6.8 31.8-10.2l34.9-12.8 48.5-17.5c7.1-2.5 14.2-5 21.3-7.7 3.3-1.2 6.7-2.3 9.9-3.8 3.8-1.8 7.2-4.7 9.8-7.9 4.9-6 7.1-13.3 6.2-21-1.1-9-6.3-17-13.4-22.5-7.9-6-17.6-8.9-27.5-8.2-6.9.5-18.5 5.8-25.3 8.3-8.3 3.1-16.5 6.1-24.8 9.1L220 239.4c-12.5 4.3-25.6 8.2-37.7 13.4-4.3 1.8-7.8 3.9-10.8 7.4-4.8 5.7-7.2 13.5-6.6 20.9.8 9.7 6.2 18.2 13.5 24.3 7.8 6.5 18.4 8.3 28.3 7.9m14.9-43.8c3.5 5.2 5.7 12.2 4.4 18.5-1 5.1-4.1 9.2-8.3 12 3.5-3.6 5.8-7.3 6.6-12.3 1-6.2-1-11.8-4.7-16.8-4-5.4-10-9.5-16.7-10.4-5.2-.7-11.1.2-15.3 3.4-1.2.9-2.6 2-2.8 3.5.3 1.4 1 2 2.1 2.8l.3.2c1.6-1.6 3.1-3 5-4.1 4.4-2.1 8.6-2.3 13.2-.9 5.7 1.8 10.4 5.9 13.1 11.2 2.2 4.3 2.5 9.7 1 14.3-1.3 3.9-3.6 6.9-7.3 8.7-2.4 1.2-8.1 3.3-10.7 2.4.1-.4.1-.8.2-1.2l.1-.4c-.2-.3-.5-.7-.8-.9-1.1-.7-3.6-1.1-4.9-.7-1.1.4-1.4 1.1-1.8 2 0 .1-.1.2-.1.3-3.4-1.6-6.8-3.3-9.7-5.8-4.3-3.7-6.8-9.5-7.1-15.1-.3-5.5 1.7-10.9 5.4-15 4.3-4.9 11.2-6.3 17.3-6.6 1.7 0 3.5.1 5.2.4 6.6 1.2 12.5 4.8 16.3 10.5m-9.2 7.5c.1 2 1.6 7.5 3.1 8.8.5.5 1.3.6 2 .6.7-.7 1.1-1.1 1.1-2.2.1-2.9-1.5-7-3.7-9-.3-.3-.7-.5-1.1-.6-.8.7-1.4 1.3-1.4 2.4m-1.3 19.2c.1.8.4 1 1 1.4.4 0 .8.1 1.2 0 1.4-1.2 2.7-2.3 2.9-4.2.1-.9-.3-1.8-.9-2.4-.4-.5-.9-.7-1.5-.9-1.3 1.4-2.9 3.9-2.7 6.1m-15.5-26.5c1.8 1.8 5.3 1.4 7.6 1.4.9 0 1.8 0 2.7.1.8-.1 1.1 0 1.8-.5.2-.7.2-1.2-.2-1.8-1-1.6-3.9-2-5.7-2.2-1.3-.1-2.5-.1-3.8 0-1 .3-1.8.5-2.5 1.3-.2.7-.2 1 .1 1.7M182 280c.7-2.4 2.5-7.6 2.7-9.7 0-.6-.1-.8-.4-1.4l-.8-.5c-2.6 2.2-4.8 5.9-5.2 9.2-.1 1-.2 2.5.5 3.3.4.5 1 .8 1.6 1 .9-.5 1.3-.9 1.6-1.9m4.8 13.1c-.1-1.3-1.6-4.7-2.8-5.3-.2-.2-.6-.2-.9-.2-.6.6-1.1 1.1-1.3 2.1 0 1.5 1.1 2.9 2.2 3.9.5.5 1.2.8 1.8 1.1.6-.5 1.1-.7 1-1.6m-2.9-16.3c.2.4.2.6.6.9.8-.7 1.6-1.6 1.7-2.8 0-.6-.1-.9-.3-1.4l-.4-.3c-1 1.1-1.8 2-1.6 3.6m296-70.8c-.7-.5-1-.7-1.9-.8-6.5 6.1-12.6 12.7-18.9 19.1-3.3 3.3-7.4 6.8-10.2 10.5-.4.7-.8 1.3-.8 2.1-.1.5.2.6.4 1 .6.3.9.3 1.6.3 3-2.4 29.8-29.9 30.1-31.2.1-.3-.2-.6-.3-1m-213.4 82.4c-12.8 4.6-25.4 9.6-38.2 14.2-7.4 2.7-14.7 5.6-22.6 6.8-8.3.4-16.5-1.4-23.3-6.3s-11.5-12.3-12.8-20.6c-1-6.1.4-13.1 4.1-18.2 2.4-3.2 5.4-5.4 9-7.1 5.7-2.6 11.7-4.4 17.6-6.5 12-4.2 24.1-8.1 36.1-12.4 21.2-7.7 42.4-15.2 63.7-22.6 8.7-3.1 20.2-8.4 29.2-9.8 7.9-1.3 17.4 2.2 23.7 6.7 6.2 4.5 10.7 11.1 11.9 18.8 1 6.5-.5 13.2-4.4 18.5-2.3 3.1-5.5 5.8-8.9 7.5s-7.1 2.7-10.6 4.1c-6.7 2.5-13.4 5.1-20.1 7.5zm41-55.1c.8 7.3 5.3 14 10.9 18.5 5.8 4.7 13.1 7.1 20.6 6.7 6.9-1 13.5-3.8 17.8-9.6 3.4-4.6 4.7-10.1 3.8-15.7-1.1-6.9-4.7-13.3-10.4-17.4-5.9-4.3-13.7-6.5-20.9-5.7-6.6.7-12.8 2.6-17.1 7.9-3.5 4.3-5.3 9.7-4.7 15.3M230 280.5c-1-7.8-4.8-15.2-11.1-20-5.6-4.4-13.5-6.2-20.5-5.6-8 .7-14.6 2.9-19.9 9.2-4.1 5-6.1 11.2-5.5 17.6.6 6.6 4.1 13.3 9.3 17.4 6.4 5.2 14.6 7.2 22.7 6.9 7.4-1 16-2.1 20.9-8.4 3.7-4.8 4.9-11.1 4.1-17.1m29.9 6.3c12.3-4.5 24.4-9.2 36.6-13.9 6.9-2.6 17.5-5.6 23.7-9-2-3.6-5-6.9-7.5-10.2-4.9-6.4-9.5-13.2-12.9-20.5-1-2.1-3.7-10.4-5.1-11.3-8.4 2.6-16.7 5.9-25 9-7 2.6-14.1 5-21.1 7.5-10 3.6-20.4 6.5-30.3 10.3 4.4 7.3 9.6 14.6 13.4 22.2 1.5 3 2.6 6.3 3.8 9.4 1.1 3 2.5 8.9 3.9 11.2.3.6.8.9 1.5 1.1.9.2 2.1 0 3-.2 5.4-1.5 10.7-3.7 16-5.6" style="fill:#fefefe"/><path d="M331.1 186.4c.7 0 1.3.1 2 .5.1.6.1.4-.1.9s-.6.8-1.1 1.1c-4.3 2.7-11.9 4.6-16.8 6.2-6.4 2-12.8 4.2-19.1 6.5l-132.3 46.1c-.7 0-1.4-.2-2-.7v-.5c.8-1.4 2.5-2.2 3.9-2.7 5.7-2.3 11.8-4 17.6-6.1 18.7-6.8 37.5-13.3 56.3-19.6 30.5-10.5 60.9-21.5 91.6-31.7m9-18 .9.1c.5.3.8.5 1 1 .2.4.1.5-.1.9-.7.8-1.7 1.2-2.7 1.6-5.4 2-11 3.6-16.5 5.5l-75.8 26-67.9 23.8c-13.2 4.6-26.3 9.5-39.5 13.9h-.1c-.6-.1-1-.3-1.3-.9-.4-.7-.3-1 0-1.6 3.2-2.1 10.3-3.8 14.2-5.2l28.5-10.1zm29 64c-1.1-9-6.3-17-13.4-22.5-7.9-6-17.6-8.9-27.5-8.2-6.9.5-18.5 5.8-25.3 8.3-8.3 3.1-16.5 6.1-24.8 9.1L220 239.4c-12.5 4.3-25.6 8.2-37.7 13.4-4.3 1.8-7.8 3.9-10.8 7.4-4.8 5.7-7.2 13.5-6.6 20.9.8 9.7 6.2 18.2 13.5 24.3 7.8 6.5 18.4 8.3 28.3 7.9 9.3-1 22.8-6.8 31.8-10.2l34.9-12.8 48.5-17.5c7.1-2.5 14.2-5 21.3-7.7 3.3-1.2 6.7-2.3 9.9-3.8 3.8-1.8 7.2-4.7 9.8-7.9 4.9-6 7.1-13.3 6.2-21m-8.6 17.5c-2.3 3.1-5.5 5.8-8.9 7.5s-7.1 2.7-10.6 4.1c-6.7 2.5-13.4 5.1-20.1 7.5l-54.4 19.4c-12.8 4.6-25.4 9.6-38.2 14.2-7.4 2.7-14.7 5.6-22.6 6.8-8.3.4-16.5-1.4-23.3-6.3s-11.5-12.3-12.8-20.6c-1-6.1.4-13.1 4.1-18.2 2.4-3.2 5.4-5.4 9-7.1 5.7-2.6 11.7-4.4 17.6-6.5 12-4.2 24.1-8.1 36.1-12.4 21.2-7.7 42.4-15.2 63.7-22.6 8.7-3.1 20.2-8.4 29.2-9.8 7.9-1.3 17.4 2.2 23.7 6.7 6.2 4.5 10.7 11.1 11.9 18.8 1 6.5-.5 13.2-4.4 18.5m.1-16.7c-1.1-6.9-4.7-13.3-10.4-17.4-5.9-4.3-13.7-6.5-20.9-5.7-6.6.7-12.8 2.6-17.1 7.9-3.5 4.3-5.3 9.7-4.7 15.3.8 7.3 5.3 14 10.9 18.5 5.8 4.7 13.1 7.1 20.6 6.7 6.9-1 13.5-3.8 17.8-9.6 3.4-4.6 4.7-10.1 3.8-15.7m-7.3 13c-3.6 5-8.4 7.1-14.3 8.1-1.6.1-3.9.7-5.2-.3-.4-.8-.6-1.7-1.4-2.2-1.8-1.1-5.6-1.9-7.7-1.3-.1 0-.2.1-.4.1-.8-.4-1.5-.8-2.2-1.2-4.9-3.2-8.8-8.9-10-14.6-.9-4.3-.1-9 2.4-12.6 3.5-5.2 8.7-6.8 14.5-7.8 6.7-.5 12.7.4 18.3 4.3 4.9 3.3 8.2 8.5 9.2 14.3.8 4.7-.5 9.4-3.2 13.2m-36-10.4c1.1.3 1.6.6 2.3 1.5.8 1.1 1.5 2.9 1.1 4.2-.3.9-.7 1.1-1.4 1.6-.6-.2-1.2-.4-1.7-.8-.9-.7-1.5-1.7-1.6-2.8-.3-1.4.3-2.6 1.3-3.7m13-14.7c1.2.1 2 .2 3 1 .4.8.4.8.3 1.7-1 1.4-1.8 1.5-3.4 1.8-.5 0-.9-.1-1.4-.2-1-.2-1.7-.7-2.2-1.5 0-.7 0-1 .5-1.6.5-.8 2.2-1 3.2-1.2m13.1 6c1.1 0 1.7.3 2.6 1 1.2.9 2.3 2.2 2.4 3.8 0 .8-.6 1.4-1.1 1.9-1.2-.3-2.1-.7-3.1-1.5s-1.9-1.9-1.9-3.2c.1-1 .5-1.4 1.1-2m3.1 18.7c.9.3 1.6.8 2.2 1.6.1.6.1.9-.2 1.4-1 1.7-3.2 2.5-5 3.1-1.2-.2-1.9-.5-2.6-1.5 0-.5-.1-.7.1-1.1.9-1.9 3.7-2.8 5.5-3.5M329 216.3c3.2-.4 6.5-.1 9.6.9 5.7 1.8 11.2 5.7 14 11.1 2 3.9 2.8 9.4 1.4 13.6-.5 1.5-1.2 3.4-2.7 4.1-.8-.1-.8-.2-1.4-.7-.2-2.7 1-5.4 1.1-8.2.1-4.3-1.7-7.8-4.6-10.9-1.7-1.5-3.5-2.9-5.5-4-4.5-2.3-9.9-3.1-14.8-1.5-5.5 1.8-8.2 5.1-10.7 10.1-.6 1.2-1 2.4-2.4 2.9-.5-.4-.4-.2-.6-.8-.7-3 1.2-6.9 2.9-9.2 3.3-4.4 8.2-6.6 13.7-7.4m-99 64.2c-1-7.8-4.8-15.2-11.1-20-5.6-4.4-13.5-6.2-20.5-5.6-8 .7-14.6 2.9-19.9 9.2-4.1 5-6.1 11.2-5.5 17.6.6 6.6 4.1 13.3 9.3 17.4 6.4 5.2 14.6 7.2 22.7 6.9 7.4-1 16-2.1 20.9-8.4 3.7-4.8 4.9-11.1 4.1-17.1m-4 7.5c-1 5.1-4.1 9.2-8.3 12 3.5-3.6 5.8-7.3 6.6-12.3 1-6.2-1-11.8-4.7-16.8-4-5.4-10-9.5-16.7-10.4-5.2-.7-11.1.2-15.3 3.4-1.2.9-2.6 2-2.8 3.5.3 1.4 1 2 2.1 2.8l.3.2c1.6-1.6 3.1-3 5-4.1 4.4-2.1 8.6-2.3 13.2-.9 5.7 1.8 10.4 5.9 13.1 11.2 2.2 4.3 2.5 9.7 1 14.3-1.3 3.9-3.6 6.9-7.3 8.7-2.4 1.2-8.1 3.3-10.7 2.4.1-.4.1-.8.2-1.2l.1-.4c-.2-.3-.5-.7-.8-.9-1.1-.7-3.6-1.1-4.9-.7-1.1.4-1.4 1.1-1.8 2 0 .1-.1.2-.1.3-3.4-1.6-6.8-3.3-9.7-5.8-4.3-3.7-6.8-9.5-7.1-15.1-.3-5.5 1.7-10.9 5.4-15 4.3-4.9 11.2-6.3 17.3-6.6 1.7 0 3.5.1 5.2.4 6.6 1.2 12.5 4.8 16.3 10.5 3.5 5.2 5.7 12.2 4.4 18.5m-40.5-14.8.4.3c.2.5.3.8.3 1.4-.1 1.2-.9 2.1-1.7 2.8-.4-.3-.4-.5-.6-.9-.2-1.6.6-2.5 1.6-3.6m-2.4 14.4c.3 0 .7 0 .9.2 1.2.6 2.7 4 2.8 5.3.1.9-.4 1.1-1 1.6-.6-.3-1.3-.6-1.8-1.1-1.1-1-2.2-2.4-2.2-3.9.2-1 .7-1.5 1.3-2.1m30.7 2.5c.6.2 1.1.4 1.5.9.6.6 1 1.5.9 2.4-.2 1.9-1.5 3-2.9 4.2-.4.1-.8 0-1.2 0-.6-.4-.9-.6-1-1.4-.2-2.2 1.4-4.7 2.7-6.1m0-15.5c.4.1.8.3 1.1.6 2.2 2 3.8 6.1 3.7 9 0 1.1-.4 1.5-1.1 2.2-.7 0-1.5-.1-2-.6-1.5-1.3-3-6.8-3.1-8.8 0-1.1.6-1.7 1.4-2.4m-15.8-7.9c1.3-.1 2.5-.1 3.8 0 1.8.2 4.7.6 5.7 2.2.4.6.4 1.1.2 1.8-.7.5-1 .4-1.8.5-.9-.1-1.8-.1-2.7-.1-2.3 0-5.8.4-7.6-1.4-.3-.7-.3-1-.1-1.7.7-.8 1.5-1 2.5-1.3m-14.5 1.7.8.5c.3.6.4.8.4 1.4-.2 2.1-2 7.3-2.7 9.7-.3 1-.7 1.4-1.6 1.9-.6-.2-1.2-.5-1.6-1-.7-.8-.6-2.3-.5-3.3.4-3.3 2.6-7 5.2-9.2m129.2-14.7c-4.9-6.4-9.5-13.2-12.9-20.5-1-2.1-3.7-10.4-5.1-11.3-8.4 2.6-16.7 5.9-25 9-7 2.6-14.1 5-21.1 7.5-10 3.6-20.4 6.5-30.3 10.3 4.4 7.3 9.6 14.6 13.4 22.2 1.5 3 2.6 6.3 3.8 9.4 1.1 3 2.5 8.9 3.9 11.2.3.6.8.9 1.5 1.1.9.2 2.1 0 3-.2 5.4-1.5 10.7-3.7 16-5.6 12.3-4.5 24.4-9.2 36.6-13.9 6.9-2.6 17.5-5.6 23.7-9-2-3.6-5-6.9-7.5-10.2m-64 32.6c.2-1.4.3-2.7.5-4.1.1-3.5-.2-6.9-1.2-10.2-3.3-10.9-11.2-16.8-20.7-22 3.3-1 6.5-2.2 9.7-3.3 11.4-3.8 22.8-7.8 34.2-11.9l.2.1.1.3c-2.9 5.7-3.1 12.2-1.5 18.3 2.2 8.3 7.9 14.9 15.2 19.1-12 4.8-24.3 9.3-36.5 13.7m111.1-172.2c.8-.1 1.7-.2 2.5-.1 1.4.3 2.6 1.4 3.3 2.6.5 1 .7 2.1.3 3.2-.5 1.4-1.5 2.1-2.7 2.7-.8.1-1.6.2-2.4.1-1.3-.2-2.5-1-3.2-2-.6-.9-.8-2-.6-3.1.4-1.7 1.4-2.5 2.8-3.4m92.3 187.1c.7 0 1.3 0 2 .1 1.4.3 2.8 1.3 3.5 2.6.6 1.1.7 2.3.2 3.5-.6 1.6-1.9 2.2-3.4 2.9-.9.1-1.9 0-2.7-.3-1.3-.5-2.4-1.6-2.9-2.8-.5-1.1-.5-2.4 0-3.5.7-1.4 1.9-2 3.3-2.5m-281.3 99.1c.8 0 1.7 0 2.5.2 1.7.3 3.4 1.6 4.3 3 .6 1 .9 2 .6 3.1-.4 1.5-1.5 2.4-2.8 3.2-.5 0-1 0-1.5-.1-1.8-.2-3.8-1.8-4.9-3.2-.7-1-1.2-2.2-.9-3.5.4-1.4 1.5-2.1 2.7-2.7M77 210.9c.9-.1 1.9-.1 2.8.1 1.2.3 2.4 1.3 3 2.4.8 1.4.9 3.2.3 4.7-.6 1.8-1.8 2.5-3.4 3.3-.6 0-1.2 0-1.8-.2-1.6-.4-3.1-1.8-3.9-3.2-.7-1.3-.9-2.8-.4-4.2.6-1.6 1.8-2.2 3.4-2.9m219.2 108.6c.9 0 1.8 0 2.7.2 1.4.4 2.8 1.5 3.5 2.8.6 1.2.8 2.6.4 3.9-.6 1.7-1.8 2.5-3.4 3.3-.9 0-1.9.1-2.8-.2-1.4-.4-2.8-1.6-3.5-2.9-.6-1.2-.8-2.4-.4-3.7.5-1.7 1.9-2.6 3.5-3.4m58.6 11.5c-.7-2-2.4-3.7-4.4-4.6-1.2-.5-2.6-.7-3.9-.7-1.8.6-3.3 1.7-4.2 3.3-.8 1.4-.9 3.3-.4 4.8.6 1.9 2.1 3.4 3.9 4.2 1.5.7 3 .9 4.7.8 1.8-.6 3.3-1.5 4.2-3.3.7-1.4.6-3.1.1-4.5m-5 3.8c-.8-.2-1.6-.4-2.4-.7-.9-.4-1.2-.9-1.5-1.7.1-1.1.4-1.5.9-2.2.8.1 1.9.1 2.6.6.9.5 1.1.9 1.4 2-.2.8-.4 1.3-1 2m-77.3 21.5c-1-2.2-3-3.8-5.2-4.5-1.3-.4-2.7-.4-4.1-.2-1.8.8-3.3 1.9-3.9 3.7-.6 1.6-.3 3.3.5 4.8 1.1 2.2 3.2 3.7 5.5 4.3 1.1.2 2.2.1 3.3-.1 1.8-.7 3.3-1.7 4.1-3.6.6-1.4.4-3-.2-4.4M268 360c-1.2 0-2.8.1-3.8-.7-.7-.5-.7-.7-.9-1.5.3-.9.7-1.3 1.3-2 .9 0 1.8 0 2.6.3.9.4 1.2.9 1.6 1.8 0 1-.2 1.3-.8 2.1m122.7-40.6c-1.1-2-3.1-3.3-5.2-3.9-1.3-.4-2.5-.3-3.8-.2-2 1-3.7 2.2-4.5 4.4-.6 1.6-.4 3.4.4 4.9 1.1 2.1 3.2 3.5 5.5 4.1 1.2.3 2.4.2 3.6 0 2.1-1 3.7-2 4.5-4.3.6-1.6.3-3.5-.5-5m-5 4.9c-1.5-.1-2.8-.4-3.8-1.6-.5-.6-.5-1-.4-1.8.3-.7.7-.9 1.5-1.4 1.2.1 2.2.3 3.2 1 .7.6.8 1.1.9 2-.4.9-.6 1.2-1.4 1.8M244.5 374c-.6-2.2-2.2-4-4.1-5.1s-3.6-1.2-5.7-1c-2.3.8-4.5 1.8-5.5 4.3-.7 1.6-.6 3.3.1 4.9 1 2.2 3 4 5.3 4.8 1.3.5 2.6.5 4 .4 2.1-.5 4.1-1.4 5.3-3.4.9-1.5 1-3.3.6-4.9m-4.4 2.7c-.4.7-1.6 1-2.3 1.2-.6 0-1.1.1-1.6-.1-1-.3-2.1-1.1-2.5-2.1q-.45-1.05 0-2.1c.3-.8 1.2-1.2 1.9-1.5.5.1 1.1.1 1.6.2 1.1.3 2.7 1.4 3.1 2.5.2.7.2 1.3-.2 1.9m-117.3 41.2c.4.2.7.4 1 .7.2.3.4.8.4 1.1-.2 1.1-13.4 14.3-15.3 15.6-.4-.2-1-.6-1.2-1-.2-.3-.3-.7-.3-1 .6-2.5 12.9-13.8 15.4-15.4m-27.5-69.8 1 .1c.7.6.7.6.9 1.4-.7 2.5-18.8 20.3-21.8 23.2-.1 0-.3 0-.4-.1-.7-.3-1.1-.7-1.4-1.4.1-.6.2-.9.6-1.4 2.7-3.5 6.3-6.6 9.3-9.8 4-3.9 7.8-8.2 11.8-12m-27.8-43.3c.5.1 1.1.4 1.4.8.2.3.4.6.3 1-.5 1.7-18.6 20.1-20.3 21.4-.9-.3-1.4-.5-1.9-1.4.5-2.5 18-19.9 20.5-21.8m18.1-159c.8.3 1.1.6 1.5 1.4-.1.8-.2 1-.8 1.6-2.1 2.4-4.5 4.5-6.7 6.8l-16.5 16.5c-3.8 3.7-8.8 9.6-12.9 12.7-.2-.1-.6-.3-.8-.5-.7-.5-.7-.7-.9-1.5.1-.5.3-.8.6-1.1 5.3-5.7 11.3-10.9 16.8-16.4l12.3-12.5c2.2-2.4 4.6-5.3 7.4-7m335.5-23.2c-1.4-1.9-1.2-4.7-2.8-6.6-.8-.3-1.2-.3-2-.2-1.2 2.1-1.2 4.6-2.3 6.7 0 .1 0 .2-.1.3-1 1.8-4.1 2.5-3.9 4.7 1.2 2 3.8 3.3 4.5 5.5.5 1.7.4 3.6 1 5.4.3.9.7 1.8 1.6 2.1.3.1.9.1 1.2.1 1.9-3.5 1.8-8.7 5.2-11.1.7-.4 1.3-.8 1.6-1.6-.2-2.1-2.8-3.7-4-5.3m-3.8 11c-1.1-2.1-1.5-3.8-3.3-5.6 1.4-2 2.5-4 3.5-6.1.5 2 2.3 4 3.4 5.8-1.5 1.9-2.7 3.6-3.6 5.9M186.8 49.2l1 .1c.7.5.8.5 1 1.3-.1.8-.4 1.2-1 1.8-3 3.5-6.7 6.6-10 9.9-7.6 7.7-15.3 15.3-23.2 22.8-3.2 3.1-6.3 6.1-9.5 9.3-2 2-4 4.2-6.2 5.9-.2 0-.7-.1-.9-.2-.6-.3-.6-.7-.8-1.3.3-1.2 1-1.9 1.8-2.8 2.7-2.8 5.6-5.4 8.4-8.1l13.7-13.3c8.5-8.3 17.1-17.7 25.7-25.4m-66.3 59.3c-.5-2.1-.7-4.3-1.3-6.3-.3-.9-.5-2-1.7-2.1-.3 0-.7.1-.9.1-1.5 4.4-1.2 8.8-3.7 12.9-.6 1-5.1 5.6-5.1 5.9 2 2.5 4.8 5.2 6.1 8.2 1.2 2.6.8 8.7 3.5 9.9l1.4-.1c1.2-5 .9-10.1 4.8-14 1.2-1.3 3.4-2.8 4.2-4.3-2.8-3.1-6.3-5.9-7.3-10.2m-3 19.3c-1.8-3.1-3.2-5.9-5.5-8.7 3-2.7 4.5-5.8 5.8-9.6 1.4 3.7 2.9 6.5 5.4 9.5-2.7 2.3-4.7 5.3-5.7 8.8M344 54.9c.1 0 .2.1.4.1.7.3 1 .6 1.3 1.3-.7 1.7-6 4.2-7.8 5.6-5.2 3.9-10.7 10.5-11.5 17.2-.3 2.7.2 5.4 2 7.6 2 2.5 5 3.6 8.1 3.9 14.9 1.4 23-10.6 33.1-18.8 2.2-1.8 6.8-5.7 9.6-5.4.6.4.7.5 1 1.2-.1.9 0 .9-.7 1.5-4.4 2.5-8.3 5.3-12.1 8.6-5.1 4.5-9.6 9.5-15.8 12.6-5.9 2.9-13.5 4.3-19.9 2.1-3.2-1.1-5.9-3.3-7.4-6.4-1.7-3.8-1.4-8 .1-11.8 3.5-8.6 11.3-15.6 19.6-19.3m-85.2.6c-2.4-3.9-2.4-12.4-4.8-15q-.75-.3-1.5-.3c-2.4 5.3-2.7 11.1-5.9 16.1-1.6 2.6-5.8 3.5-6.9 6 1.8 3.2 6.7 4.4 8.5 9 1.1 2.8 2.5 11.1 3.4 12.5.4.5.8.6 1.4.8 2.2-2.4 3.4-11.4 5.5-15.2 1.7-3.2 4.9-4.2 7-6.9-.3-1.1-5.3-4.7-6.7-7M256.4 67c-.9 1.5-3.1 8.3-3.8 8.7-1.6-5.8-3.8-9.4-8.5-13.3.2-.1.4-.3.7-.4 4.8-3 7-8.1 8.2-13.3.5.6.7 1.5.9 2.3 1.6 4.7 2.8 8.1 6.8 11.4-1.6 1.4-3.2 2.7-4.3 4.6" class="nextbeats_svg__st0"/></svg>