<svg xmlns="http://www.w3.org/2000/svg" xml:space="preserve" viewBox="0 0 512 512"><path d="M473.5 138.9v-.4c-.2-4.9-.4-10.1-.5-15.9-.4-28.2-22.9-51.6-51.1-53.2C363.1 66.2 317.5 47 278.6 9l-.3-.3c-12.7-11.6-31.8-11.6-44.5 0l-.4.3C194.5 47 149 66.2 90.1 69.5 61.9 71 39.4 94.4 39 122.6c-.1 5.7-.2 11-.5 15.9v.9c-1.1 60-2.6 134.7 22.4 202.5 13.7 37.3 34.6 69.7 61.9 96.3 31.1 30.3 71.8 54.4 121 71.6 1.6.6 3.3 1 5 1.4 2.4.5 4.8.7 7.2.7s4.8-.2 7.2-.7c1.7-.3 3.4-.8 5-1.4 49.2-17.2 89.9-41.3 120.9-71.6 27.3-26.7 48.1-59.1 61.9-96.4 25-67.9 23.6-142.7 22.5-202.9" style="fill:#fff"/></svg>