<?xml version="1.0" encoding="utf-8"?>
<!-- Generator: Adobe Illustrator 28.2.0, SVG Export Plug-In . SVG Version: 6.00 Build 0)  -->
<svg version="1.1" id="Layer_1" xmlns="http://www.w3.org/2000/svg" xmlns:xlink="http://www.w3.org/1999/xlink" x="0px" y="0px"
	 viewBox="0 0 512 512" style="enable-background:new 0 0 512 512;" xml:space="preserve">
<g>
	<path d="M117.3,214.1c0.2-28.3-0.3-56.6,0.8-84.9c1.2-30.4,12.8-57.2,32.6-80.3C173.9,21.7,203.6,6,239,1.1c1-0.1,2-0.7,3-1.1
		c9.3,0,18.7,0,28,0c6.1,1.3,12.2,2.4,18.2,4c54,14.6,88.4,49,102.5,103c2.8,10.8,3.6,22.4,3.9,33.6c0.6,24.5,0.2,49,0.1,73.4
		c-21.3-0.4-42.6-0.7-64-1.1c-0.2-26.8,0.7-53.7-0.7-80.5c-2-38.4-35.1-68.4-73.8-68.5c-38.9-0.2-72.3,29.9-74.3,68.5
		c-1.4,26.8-0.5,53.6-0.7,80.5c-12.7,0.1-25.5,0.1-38.2,0.3C134.5,213.4,125.9,213.8,117.3,214.1z"/>
	<path d="M395.6,214.6c-0.3-0.1-0.6-0.3-0.9-0.5c-21.3-0.4-42.6-0.7-64-1.1c-1.5,0.1-3,0.2-4.5,0.2c-46.8,0-93.7,0-140.5,0
		c-1.5,0-3-0.2-4.5-0.2c-12.7,0.1-25.5,0.1-38.2,0.3c-8.6,0.1-17.2,0.5-25.8,0.8c-12.7,3.5-23.5,9.8-31.6,20.5
		C79.2,243,75.2,252.4,75,263c-0.4,17.1-0.2,34.3-0.2,51.5c0,46.5,0.7,93-0.3,139.4c-0.6,29.5,18.8,52.4,43,57.1
		c0.6,0.1,1,0.7,1.5,1c91,0,182,0,273,0c2.6-0.8,5.2-1.6,7.9-2.4c21.4-6.7,36.9-26.3,37.2-48.7c0.4-40,0.2-79.9,0.2-119.9
		c0-23.5-0.6-47,0.2-70.4C438.4,242.6,419.7,219.9,395.6,214.6z M283,376.2c-2.6,1.6-3.2,3.3-2.8,6.1c2.6,17.1,5.1,34.3,7.5,51.4
		c1.3,8.9-3.2,14.2-12.1,14.3c-1.7,0-3.3,0-5,0c-5,0-10,0-15,0c-3.2,0-6.5,0-9.7,0c-3.2,0-6.5,0-9.7,0c-8.3-0.1-13-5.4-11.9-13.6
		c2.4-17,4.8-34,7.5-50.9c0.6-3.8-0.3-5.9-3.7-7.9c-25.6-15.3-33.2-51.2-16-75.1c18.7-25.9,53.5-31.1,77.3-11.4
		C318.4,313.1,315.4,356.2,283,376.2z"/>
</g>
</svg>
