<svg xmlns="http://www.w3.org/2000/svg" xml:space="preserve" viewBox="0 0 512 512"><path d="M395.6 214.6c-.3-.1-.6-.3-.9-.5v-.1c.1-24.4.5-48.9-.1-73.4-.3-11.2-1.1-22.8-3.9-33.6-14.1-54-48.5-88.4-102.5-103-6-1.6-12.1-2.7-18.2-4h-28c-1 .4-2 1-3 1.1-35.4 4.9-65.1 20.6-88.3 47.8-19.8 23.1-31.4 49.9-32.6 80.3-1.1 28.3-.6 56.6-.8 84.9h-.1c-12.7 3.5-23.5 9.8-31.6 20.5C79.2 243 75.2 252.4 75 263c-.4 17.1-.2 34.3-.2 51.5 0 46.5.7 93-.3 139.4-.6 29.5 18.8 52.4 43 57.1.6.1 1 .7 1.5 1h273c2.6-.8 5.2-1.6 7.9-2.4 21.4-6.7 36.9-26.3 37.2-48.7.4-40 .2-79.9.2-119.9 0-23.5-.6-47 .2-70.4.9-28-17.8-50.7-41.9-56M283 376.2c-2.6 1.6-3.2 3.3-2.8 6.1 2.6 17.1 5.1 34.3 7.5 51.4 1.3 8.9-3.2 14.2-12.1 14.3h-39.4c-8.3-.1-13-5.4-11.9-13.6 2.4-17 4.8-34 7.5-50.9.6-3.8-.3-5.9-3.7-7.9-25.6-15.3-33.2-51.2-16-75.1 18.7-25.9 53.5-31.1 77.3-11.4 29 24 26 67.1-6.4 87.1m43.2-163H185.7c-1.5 0-3-.2-4.5-.2v-.1c.2-26.9-.7-53.7.7-80.5 2-38.6 35.4-68.7 74.3-68.5C294.9 64 328 94 330 132.4c1.4 26.8.5 53.7.7 80.5 0 0 0 .1.1.1h-.1c-1.5.1-3 .2-4.5.2" style="fill:#fff"/></svg>