<?xml version="1.0" encoding="utf-8"?>
<!-- Generator: Adobe Illustrator 28.2.0, SVG Export Plug-In . SVG Version: 6.00 Build 0)  -->
<svg version="1.1" id="Layer_1" xmlns="http://www.w3.org/2000/svg" xmlns:xlink="http://www.w3.org/1999/xlink" x="0px" y="0px"
	 viewBox="0 0 512 512" style="enable-background:new 0 0 512 512;" xml:space="preserve">
<style type="text/css">
	.st0{fill:#EF3839;}
	.st1{fill:#EE438D;}
	.st2{fill:#BD2025;}
	.st3{fill:#D31F26;}
	.st4{fill:#73206A;}
	.st5{fill:#8F4F9F;}
	.st6{fill:#D24B9B;}
	.st7{fill:#6B297A;}
	.st8{fill:#782A8F;}
	.st9{fill:#C02026;}
	.st10{fill:#9051A0;}
	.st11{fill:#B01B4A;}
	.st12{fill:#C54627;}
	.st13{fill:#A41768;}
	.st14{fill:#CC3192;}
	.st15{fill:#B263A7;}
	.st16{fill:#D1499A;}
	.st17{fill:#9B3995;}
	.st18{fill:#85459A;}
	.st19{fill:#EE3F8A;}
	.st20{fill:#E22574;}
	.st21{fill:#F15933;}
	.st22{fill:#552263;}
	.st23{fill:#F7975F;}
	.st24{fill:#F37132;}
	.st25{fill:#D98A26;}
	.st26{fill:#FAA42F;}
	.st27{fill:#C47728;}
	.st28{fill:#FFCF29;}
	.st29{fill:#FCEA3B;}
	.st30{fill:#F1EB59;}
	.st31{fill:#D6E042;}
</style>
<path class="st0" d="M173.7,440.4c-12.7-5.6-24.8-12.5-36-20.7l-20.9,12.2l0,0l56.8,32.5"/>
<path class="st1" d="M229.2,436.4c-15.1-2.2-29.7-6.1-43.8-12.1l16.1-9.4l27.7,16V436.4z M229.3,462.7v-6.4
	c-19.5-2.7-38.2-7.9-55.6-15.9l-0.1,22.2v1.8l26,15l1.8-1L229.3,462.7z"/>
<path class="st2" d="M185.4,424.3l16.1-9.4V383l-27.8-16l-27.5,16.2v18.6C158.2,410.9,171.4,418.5,185.4,424.3L185.4,424.3z"/>
<path class="st3" d="M201.5,383l24.7-14.2l-52.5-30.2V367L201.5,383z"/>
<path class="st4" d="M284.5,462.6l-27.7,15.8V512l0,0l56.3-33"/>
<path class="st5" d="M339.8,463.8L339.8,463.8l56-32.5l0,0l-20.9-12c-11,7.9-22.9,14.8-35.2,20.4L339.8,463.8z"/>
<path class="st6" d="M312,383.1l27.8-16.1v-29.3l-53.1,30.5L312,383.1z"/>
<path class="st7" d="M422.8,414.8v-25.3l-33.2-19.1l-22.3,12.8v17.2c3.7-2.4,6.7-5,10.1-7.7l17.7,10.1c-6.4,5.8-13.2,11.4-20.2,16.6
	l20.2,11.6l0.7,0.4l26.9-15.4L422.8,414.8z"/>
<path class="st8" d="M455.8,370.3l-33,19.2l-0.1,26.5l0,0l55.4-32.9"/>
<path class="st9" d="M339.8,143.9L312,128l-26.3,15.2l54.1,31.2L339.8,143.9L339.8,143.9z"/>
<path class="st10" d="M428.5,316.4c4.4-12.3,7-24.5,8.6-37.5l-14.3,8.5V313L428.5,316.4L428.5,316.4z M455.8,331.9l22.3-12.8v-31.7
	l-20.8-11.9c-1.7,17.5-5.6,34.1-11.7,50.6l0,0L455.8,331.9z"/>
<path class="st11" d="M367.3,128l-27.5,15.9v30.5l28.7,16.8l26.5-15.3V144L367.3,128z"/>
<path class="st12" d="M312,32.3L256.1,0l0.6,25.9L290,45.1L312,32.3z"/>
<polygon class="st13" points="422.7,223.7 422.8,191.8 395,175.9 368.5,191.2 368.8,224.3 368.8,286.6 395.1,271.6 395.1,239.5 "/>
<path class="st7" d="M457.3,275.5l20.8,11.9v-63.7L457,235.6c0.9,6.8,1.3,13.6,1.2,20.4C458.2,262.7,457.9,269.1,457.3,275.5
	L457.3,275.5z"/>
<path class="st14" d="M256.2,457.7c9.5,0,18.9-0.6,28.3-1.8v6.7l-27.7,15.8v32.1v1.5l-57.2-32.6l0,0l29.7-16.7l0,0v-6.4
	C238.3,457.2,247.2,457.7,256.2,457.7z M286.7,368.2l-30.6,17.6l0.7,29.1l-27.6,16v5.5c8.9,1.2,17.9,1.8,26.9,1.8
	c9.5,0.1,19-0.6,28.4-2.1v-5.2l0.1,0.1l27.4-16.2v-31.7L286.7,368.2z M395,175.9l27.8,15.9l3.3-1.8c-6.6-17.3-16-33.5-27.8-47.8
	L395,144V175.9z M450.3,175.9v-32L422.8,128l-7.3,4c11.3,14.6,20.7,30.7,27.8,47.8"/>
<path class="st15" d="M312,414.8l15.6,9.1c14.2-6,27.6-13.9,39.7-23.5v-17.2L339.8,367L312,383.1V414.8z M422.7,223.7l14.4,8.2
	c-2-14.4-5.7-28.4-11-42l-3.3,1.9L422.7,223.7z M457,235.6l21.1-11.9v-31.9l-27.8-15.9l-7,3.9C450.3,197.5,455.2,216.1,457,235.6
	L457,235.6z"/>
<path class="st16" d="M450.3,143.9l27.8-15.9l-55.3-32v32L450.3,143.9z"/>
<path class="st17" d="M327.6,423.9c-13.5,5.8-28.1,9.8-43.1,12.2v-5.2l27.5-16.1L327.6,423.9z M313.1,479l26.7-15.2l0,0v-24.1
	c-17.6,8-36.2,13.4-55.3,16.2v6.7 M438.6,256c0,7.7-0.5,15.3-1.5,22.9l-14.3,8.5V313l-33.3,18.9l0.1,38.5l-22.3,12.8L339.8,367
	v-29.3l29-16.8v-34.5l26.2-14.9l0.1,0.1v-32.1l27.6-15.8l14.4,8.2C438,239.9,438.6,248,438.6,256z M478.1,128v63.8l-27.8-15.9v-32
	L478.1,128z"/>
<path class="st18" d="M455.8,331.9v38.4l22.3,12.8v-64"/>
<path class="st19" d="M256.7,322.6L313,288l0,0l-28.5-16.5l-27.7,15.9"/>
<path class="st20" d="M226.2,368.7L201.5,383v31.9l27.7,16l27.6-16l-0.7-29.1 M367.3,128l27.7,16l3.3-1.8c-4-5.3-8.3-10.3-13-15
	c-5.7-5.5-11.7-10.7-18-15.5V128L367.3,128z M415.5,132l7.3-4V96L395,80.1l-20.7,12.2c8.8,6.3,17.1,13.4,24.7,21
	C404.8,119.3,410.3,125.5,415.5,132L415.5,132z M313,288l0.2-64.9l0,0l-28.6,16.4l-0.1,32"/>
<path class="st21" d="M113,398.6c7.7,7.7,15.9,14.8,24.7,21.1l-20.9,12.2l0,0l-25.8-15v-2.1v-25.3l8.9-5.2
	C104.1,389.4,108.6,394.1,113,398.6z M143.2,320.9l-19.2,11v38.5l-7,3.9c3.1,3.8,6.5,7.4,10.1,10.7c5.9,6.2,12.3,11.8,19.2,16.8
	v-18.5l27.5-16.3v-28.4L143.2,320.9z M314.1,62.8v20.4c4.3,1.2,8.5,2.8,12.5,4.6L312,96v32l-26.3,15.2l-29.6-17l0.6-23.8L290,83.5
	V45.1l22-12.8l27.8,15.9l-0.1,24C331.4,68.4,322.9,65.4,314.1,62.8z M198.8,289l30.5-17.5v-32l27.5-15.8v-32v-1.2l-58,32.6
	L198.8,289L198.8,289z"/>
<path class="st0" d="M312,128l27.8,15.9l27.5-15.9v-16.3c-12.4-9.8-26.1-17.9-40.7-23.9L312,96V128z M374.3,92.3L395,80.1
	l-55.2-31.9l-0.1,24C351.9,77.7,363.5,84.5,374.3,92.3z M313.2,223.1L313.2,223.1l-28.6,16.4l-0.1,32l-27.7,15.9v31.8l-0.1,3.4
	L198.8,289l2.7-1.6l27.8-15.9v-32l27.5-15.8v-32v-1.2"/>
<path class="st22" d="M441.8,340.1l-18.9-11l-19.2,11V362l19.2,11l18.9-11V340.1z"/>
<path class="st23" d="M143.2,285.6v-60.4l-24.7,14.3v32.1L143.2,285.6z"/>
<path class="st24" d="M256.7,102.4l-0.6,23.8l0,0l-28.9,16.4l-53.6,30.8l0.1-29.5l27.8-15.9V96l22.2-12.5L256.7,102.4z M33.9,384
	c7.9-4.6,15.9-9.1,23.8-13.7L91,389.5v25.3v2.1 M275.7,75.2l-18.9,11l-18.9-11V53.3l18.9-11l18.9,11V75.2z M118.5,271.5L91,287.4
	V313l33,18.9l19.2-11v-35.3L118.5,271.5z M72.1,340.1v22L91,373l18.9-11v-21.9l-18.9-11L72.1,340.1z"/>
<path class="st25" d="M146.2,128l27.5,15.9l27.8-15.9V96l-15-8.5c-14.7,5.8-28.1,13.7-40.3,22.9V128z"/>
<path class="st26" d="M54.9,276.5c0.7,8.6,2.1,17.2,4.3,25.6l17.7-10.4c-0.8-4.6-1.6-9.2-2.1-13.7c-1-7.2-1.5-14.6-1.5-21.9
	c0-7.8,0.5-15.5,1.5-23.2l16.2-9.1v-32l27.5-15.8l-0.1-32.1l27.8-15.9l27.5,15.9l-0.1,29.5L144,190.5l-0.8,0.6v34.1l-24.7,14.3v32
	L91,287.4V313l-33.3,18.9l-22-12.8l-1.8-1v-29.8 M201.5,96l22.2-12.5l0.1-7.1l0,0c-13.2,2.3-24.9,5.9-37.3,11.1L201.5,96z
	 M173.6,47.5l27.9-16.1L256.1,0l0,0l0.6,25.9l-32.9,19.2l-0.2,11.7c-17.2,2.9-33.9,7.8-49.9,14.8"/>
<polyline class="st27" points="33.9,384 57.7,370.3 57.7,331.9 35.7,319.1 33.9,318.1 "/>
<path class="st28" d="M54.9,234.7c2.1-19,6.9-37.8,14.1-55.5l-5.8-3.3l-29.3,16.8v30 M74.8,232.9l16.2-9.1v-32l-4.9-2.9
	c-5.6,14.1-9.4,28.9-11.3,43.9V232.9z M146.2,110.4V128l-27.8,15.9l-4.5-2.4c4.2-5.2,8.5-9.8,13.2-14.4
	C133,120.9,139.3,115.4,146.2,110.4z M118.5,79.2L91,96v32l5.8,3.3c5.2-6.4,10.7-12.2,16.2-18c7.9-7.9,16.5-15.2,25.6-21.6
	c11-7.9,22.8-14.6,35.1-20.1V48.1v-0.6L118.5,79.2z"/>
<path class="st29" d="M33.9,222.7v65.6l21-11.8c-0.9-6.8-0.1-35,0-41.8 M63.2,175.9l5.8,3.3c7-17.4,16.5-33.2,27.8-47.9L91,128
	l-27.8,15.9V175.9z M86.1,188.9l4.9,2.9l27.5-15.8l-0.1-32.1l-4.5-2.4C102.3,155.8,93,171.8,86.1,188.9L86.1,188.9z"/>
<path class="st30" d="M63.2,143.9L91,128V96l0,0l-57.1,31.1"/>
<path class="st31" d="M33.9,192.7l29.3-16.8v-32l-29.3-16.8"/>
</svg>
