<svg xmlns="http://www.w3.org/2000/svg" xml:space="preserve" id="nginx-proxy-manager_svg__Layer_1" x="0" y="0" version="1.1" viewBox="0 0 512 512"><style>.nginx-proxy-manager_svg__st0{fill:#ef3839}.nginx-proxy-manager_svg__st7{fill:#6b297a}</style><path d="M173.7 440.4c-12.7-5.6-24.8-12.5-36-20.7l-20.9 12.2 56.8 32.5" class="nginx-proxy-manager_svg__st0"/><path d="M229.2 436.4c-15.1-2.2-29.7-6.1-43.8-12.1l16.1-9.4 27.7 16zm.1 26.3v-6.4c-19.5-2.7-38.2-7.9-55.6-15.9l-.1 22.2v1.8l26 15 1.8-1z" style="fill:#ee438d"/><path d="m185.4 424.3 16.1-9.4V383l-27.8-16-27.5 16.2v18.6c12 9.1 25.2 16.7 39.2 22.5" style="fill:#bd2025"/><path d="m201.5 383 24.7-14.2-52.5-30.2V367z" style="fill:#d31f26"/><path d="m284.5 462.6-27.7 15.8V512l56.3-33" style="fill:#73206a"/><path d="m339.8 463.8 56-32.5-20.9-12c-11 7.9-22.9 14.8-35.2 20.4z" style="fill:#8f4f9f"/><path d="m312 383.1 27.8-16.1v-29.3l-53.1 30.5z" style="fill:#d24b9b"/><path d="M422.8 414.8v-25.3l-33.2-19.1-22.3 12.8v17.2c3.7-2.4 6.7-5 10.1-7.7l17.7 10.1c-6.4 5.8-13.2 11.4-20.2 16.6l20.2 11.6.7.4 26.9-15.4z" class="nginx-proxy-manager_svg__st7"/><path d="m455.8 370.3-33 19.2-.1 26.5 55.4-32.9" style="fill:#782a8f"/><path d="M339.8 143.9 312 128l-26.3 15.2 54.1 31.2z" style="fill:#c02026"/><path d="M428.5 316.4c4.4-12.3 7-24.5 8.6-37.5l-14.3 8.5V313zm27.3 15.5 22.3-12.8v-31.7l-20.8-11.9c-1.7 17.5-5.6 34.1-11.7 50.6z" style="fill:#9051a0"/><path d="m367.3 128-27.5 15.9v30.5l28.7 16.8 26.5-15.3V144z" style="fill:#b01b4a"/><path d="M312 32.3 256.1 0l.6 25.9L290 45.1z" style="fill:#c54627"/><path d="m422.7 223.7.1-31.9-27.8-15.9-26.5 15.3.3 33.1v62.3l26.3-15v-32.1z" style="fill:#a41768"/><path d="m457.3 275.5 20.8 11.9v-63.7L457 235.6q1.35 10.2 1.2 20.4c0 6.7-.3 13.1-.9 19.5" class="nginx-proxy-manager_svg__st7"/><path d="M256.2 457.7c9.5 0 18.9-.6 28.3-1.8v6.7l-27.7 15.8V512l-57.2-32.6 29.7-16.7v-6.4c9 .9 17.9 1.4 26.9 1.4m30.5-89.5-30.6 17.6.7 29.1-27.6 16v5.5c8.9 1.2 17.9 1.8 26.9 1.8 9.5.1 19-.6 28.4-2.1v-5.2l.1.1 27.4-16.2v-31.7zM395 175.9l27.8 15.9 3.3-1.8c-6.6-17.3-16-33.5-27.8-47.8L395 144zm55.3 0v-32L422.8 128l-7.3 4c11.3 14.6 20.7 30.7 27.8 47.8" style="fill:#cc3192"/><path d="m312 414.8 15.6 9.1c14.2-6 27.6-13.9 39.7-23.5v-17.2L339.8 367 312 383.1zm110.7-191.1 14.4 8.2c-2-14.4-5.7-28.4-11-42l-3.3 1.9zm34.3 11.9 21.1-11.9v-31.9l-27.8-15.9-7 3.9c7 17.7 11.9 36.3 13.7 55.8" style="fill:#b263a7"/><path d="m450.3 143.9 27.8-15.9-55.3-32v32z" style="fill:#d1499a"/><path d="M327.6 423.9c-13.5 5.8-28.1 9.8-43.1 12.2v-5.2l27.5-16.1zM313.1 479l26.7-15.2v-24.1c-17.6 8-36.2 13.4-55.3 16.2v6.7M438.6 256c0 7.7-.5 15.3-1.5 22.9l-14.3 8.5V313l-33.3 18.9.1 38.5-22.3 12.8-27.5-16.2v-29.3l29-16.8v-34.5l26.2-14.9.1.1v-32.1l27.6-15.8 14.4 8.2c.9 8 1.5 16.1 1.5 24.1m39.5-128v63.8l-27.8-15.9v-32z" style="fill:#9b3995"/><path d="M455.8 331.9v38.4l22.3 12.8v-64" style="fill:#85459a"/><path d="M256.7 322.6 313 288l-28.5-16.5-27.7 15.9" style="fill:#ee3f8a"/><path d="M226.2 368.7 201.5 383v31.9l27.7 16 27.6-16-.7-29.1M367.3 128l27.7 16 3.3-1.8c-4-5.3-8.3-10.3-13-15-5.7-5.5-11.7-10.7-18-15.5zm48.2 4 7.3-4V96L395 80.1l-20.7 12.2c8.8 6.3 17.1 13.4 24.7 21 5.8 6 11.3 12.2 16.5 18.7M313 288l.2-64.9-28.6 16.4-.1 32" style="fill:#e22574"/><path d="M113 398.6c7.7 7.7 15.9 14.8 24.7 21.1l-20.9 12.2-25.8-15v-27.4l8.9-5.2c4.2 5.1 8.7 9.8 13.1 14.3m30.2-77.7-19.2 11v38.5l-7 3.9c3.1 3.8 6.5 7.4 10.1 10.7q8.85 9.3 19.2 16.8v-18.5l27.5-16.3v-28.4zM314.1 62.8v20.4c4.3 1.2 8.5 2.8 12.5 4.6L312 96v32l-26.3 15.2-29.6-17 .6-23.8L290 83.5V45.1l22-12.8 27.8 15.9-.1 24c-8.3-3.8-16.8-6.8-25.6-9.4M198.8 289l30.5-17.5v-32l27.5-15.8v-33.2l-58 32.6z" style="fill:#f15933"/><path d="m312 128 27.8 15.9 27.5-15.9v-16.3c-12.4-9.8-26.1-17.9-40.7-23.9L312 96zm62.3-35.7L395 80.1l-55.2-31.9-.1 24c12.2 5.5 23.8 12.3 34.6 20.1m-61.1 130.8-28.6 16.4-.1 32-27.7 15.9v31.8l-.1 3.4-57.9-33.6 2.7-1.6 27.8-15.9v-32l27.5-15.8v-33.2" class="nginx-proxy-manager_svg__st0"/><path d="m441.8 340.1-18.9-11-19.2 11V362l19.2 11 18.9-11z" style="fill:#552263"/><path d="M143.2 285.6v-60.4l-24.7 14.3v32.1z" style="fill:#f7975f"/><path d="m256.7 102.4-.6 23.8-28.9 16.4-53.6 30.8.1-29.5 27.8-15.9V96l22.2-12.5zM33.9 384c7.9-4.6 15.9-9.1 23.8-13.7L91 389.5v27.4M275.7 75.2l-18.9 11-18.9-11V53.3l18.9-11 18.9 11zM118.5 271.5 91 287.4V313l33 18.9 19.2-11v-35.3zm-46.4 68.6v22L91 373l18.9-11v-21.9l-18.9-11z" style="fill:#f37132"/><path d="m146.2 128 27.5 15.9 27.8-15.9V96l-15-8.5c-14.7 5.8-28.1 13.7-40.3 22.9z" style="fill:#d98a26"/><path d="M54.9 276.5c.7 8.6 2.1 17.2 4.3 25.6l17.7-10.4c-.8-4.6-1.6-9.2-2.1-13.7-1-7.2-1.5-14.6-1.5-21.9 0-7.8.5-15.5 1.5-23.2l16.2-9.1v-32l27.5-15.8-.1-32.1 27.8-15.9 27.5 15.9-.1 29.5-29.6 17.1-.8.6v34.1l-24.7 14.3v32L91 287.4V313l-33.3 18.9-22-12.8-1.8-1v-29.8M201.5 96l22.2-12.5.1-7.1c-13.2 2.3-24.9 5.9-37.3 11.1zm-27.9-48.5 27.9-16.1L256.1 0l.6 25.9-32.9 19.2-.2 11.7c-17.2 2.9-33.9 7.8-49.9 14.8" style="fill:#faa42f"/><path d="m33.9 384 23.8-13.7v-38.4l-22-12.8-1.8-1" style="fill:#c47728"/><path d="M54.9 234.7c2.1-19 6.9-37.8 14.1-55.5l-5.8-3.3-29.3 16.8v30m40.9 10.2 16.2-9.1v-32l-4.9-2.9c-5.6 14.1-9.4 28.9-11.3 43.9zm71.4-122.5V128l-27.8 15.9-4.5-2.4c4.2-5.2 8.5-9.8 13.2-14.4 5.9-6.2 12.2-11.7 19.1-16.7m-27.7-31.2L91 96v32l5.8 3.3c5.2-6.4 10.7-12.2 16.2-18 7.9-7.9 16.5-15.2 25.6-21.6 11-7.9 22.8-14.6 35.1-20.1V47.5z" style="fill:#ffcf29"/><path d="M33.9 222.7v65.6l21-11.8c-.9-6.8-.1-35 0-41.8m8.3-58.8 5.8 3.3c7-17.4 16.5-33.2 27.8-47.9L91 128l-27.8 15.9zm22.9 13 4.9 2.9 27.5-15.8-.1-32.1-4.5-2.4c-11.6 14.3-20.9 30.3-27.8 47.4" style="fill:#fcea3b"/><path d="M63.2 143.9 91 128V96l-57.1 31.1" style="fill:#f1eb59"/><path d="m33.9 192.7 29.3-16.8v-32l-29.3-16.8" style="fill:#d6e042"/></svg>