<svg xmlns="http://www.w3.org/2000/svg" xml:space="preserve" viewBox="0 0 512 512"><path d="M499.3 311.3c7.4 6.2 10.1 14.3 11 16.9 11.7 35.6-37.2 104.3-98.3 143-59.8 37.9-120.6 40.3-143.3 40.1-25-.2-133.3-4.6-208.5-96.2-7-8.5-75.7-94.9-56.7-208.7C24.4 80.4 141-8.1 183.3 1.4c7.5 1.7 12.6 5.7 12.6 5.7 21.1 16.4 8.5 55.1 9 94.4.8 58.1 30 101.4 38.2 113.6 35.2 52.7 84.4 73.9 95.2 78.3 45.4 18.6 85.8 16.3 105.1 14 16.4-2.7 40.2-9.1 55.9 3.9M482.7 78h-49.5V28.5c0-14.5-11.8-26.3-26.3-26.3S380.6 14 380.6 28.5V78h-49.5c-14.5 0-26.3 11.8-26.3 26.3s11.8 26.3 26.3 26.3h49.5V180c0 14.5 11.8 26.3 26.3 26.3s26.3-11.8 26.3-26.3v-49.5h49.5c14.5 0 26.3-11.8 26.3-26.3S497.2 78 482.7 78" style="fill:#fff"/><path d="M478.2 391.4c16.9-24.3 24.5-46.4 20.2-59.3-.7-2-2.4-7.3-7.1-11.2-9.4-7.8-26.2-4.7-39.7-2.3-2.1.4-4.2.8-6.1 1.1l-.5.1c-26.4 3.2-67.2 3.2-111.4-14.8-18.8-7.7-66.3-31.2-100.9-82.9l-.2-.3c-26-39-39.5-79.4-40.1-120.1-.2-12.2.8-23.8 1.8-35.1 1.9-22.6 3.6-42-5.9-49.5-.4-.3-3.5-2.5-7.8-3.4-1.1-.3-2.4-.4-4-.4-9.1 0-25.4 4.9-46.9 19.3-44 29.5-100.2 93.3-114 175.9-17.9 107.5 46.6 189.7 54 198.7 67.2 81.7 161.6 91.3 199 91.6 28.1.3 83.3-4.4 136.6-38.1 28.2-17.9 54.7-43.1 73-69.3" style="fill:#cab1d4"/><path d="M261.6 449.9c-62.1 0-105.6-28.5-131.5-53.1C68.3 338.2 63.9 265.9 64 245.2c0-6.8 5.5-12.2 12.3-12.2h.1c6.8 0 12.3 5.6 12.2 12.4-.1 13 2.4 80.5 58.4 133.6 34.5 32.7 75.7 48.2 122.6 46.2 1 0 1.8-.1 2.4-.1 6.8-.1 12.4 5.2 12.6 12s-5.2 12.4-11.9 12.6c-.5 0-1.2 0-2 .1-3.1 0-6.1.1-9.1.1M483.7 91.8h-64.2V27.5c0-6.9-5.6-12.5-12.5-12.5s-12.5 5.6-12.5 12.5v64.2h-64.2c-6.9 0-12.5 5.6-12.5 12.5s5.6 12.5 12.5 12.5h64.2V181c0 6.9 5.6 12.5 12.5 12.5s12.5-5.6 12.5-12.5v-64.2h64.2c6.9 0 12.5-5.6 12.5-12.5s-5.6-12.5-12.5-12.5" style="fill:#7d429b"/></svg>