<?xml version="1.0" encoding="utf-8"?>
<!-- Generator: Adobe Illustrator 28.2.0, SVG Export Plug-In . SVG Version: 6.00 Build 0)  -->
<svg version="1.1" id="Layer_1" xmlns="http://www.w3.org/2000/svg" xmlns:xlink="http://www.w3.org/1999/xlink" x="0px" y="0px"
	 viewBox="0 0 512 512" style="enable-background:new 0 0 512 512;" xml:space="preserve">
<style type="text/css">
	.st0{fill:#DD2F28;}
	.st1{fill:#FFFFFF;}
</style>
<path class="st0" d="M432.5,512h-353C35.6,512,0,476.4,0,432.5v-353C0,35.6,35.6,0,79.5,0h353C476.4,0,512,35.6,512,79.5v353
	C512,476.4,476.4,512,432.5,512z"/>
<path class="st1" d="M146.2,65.3c-38.2,6.8-69,35.1-78.7,72.4c-3.5,13.4-3.7,21.3-3.3,125.5c0.2,95.7,0.3,98,1.9,105.4
	c8.8,39.8,37.1,68.2,77.4,77.6c5.2,1.2,11.9,1.4,54.9,1.7c44.5,0.3,49.1,0.2,50.3-1c1.2-1.2,1.3-16.5,1.3-190.5
	c0-129-0.2-189.7-0.8-190.8c-0.8-1.4-2.1-1.5-48.7-1.4C162.6,64.2,151.2,64.4,146.2,65.3z M218.2,256.1v161.1l-32.4-0.4
	c-29.8-0.3-33-0.5-39-2c-25.6-6.6-44.6-26.3-49.9-52c-1.8-8-1.8-205.8-0.1-213.7c4.8-22.3,20.3-40.9,41.2-49.2
	c10.5-4.2,15.3-4.7,49.4-4.8l30.8-0.1L218.2,256.1L218.2,256.1z M153.1,143.6c-5,0.9-12.6,4.8-16.7,8.3
	c-8.3,7.2-12.5,17.5-11.8,29.6c0.3,6.3,0.7,7.9,3.3,13c3.7,7.7,9.4,13.4,17.1,17.2c5.3,2.6,6.7,2.9,13.6,3.2c6.3,0.2,8.5,0,12.7-1.4
	c17.2-5.8,27.7-22.6,24.7-39.8C192.5,153.3,173.1,139.6,153.1,143.6z M288.7,64.6c-0.3,0.2-0.6,86.4-0.6,191.5
	c0,173.4,0.1,191,1.3,191.5c2.1,0.8,63.8,0.5,71.5-0.3c32.3-3.7,60.7-23.3,76.2-52.5c2-3.7,4.6-10,6-13.9c5-14.9,4.9-11,4.9-125.2
	c0-91.2-0.2-104.8-1.3-110.6c-7.9-41.4-39.4-72.7-80.9-79.8c-5.6-0.9-14.1-1.2-41.8-1.2C304.9,64,289,64.2,288.7,64.6z M373.6,237.7
	c12.4,3.3,22.6,12.7,26.7,24.8c2.6,7.5,2.5,18.4-0.1,25.3c-4.9,12.6-14.4,21.4-26.6,24.6c-19.9,5.2-41-6.8-46.8-26.6
	c-1.8-6-1.7-16.2,0.3-22.4C333.1,244,353.7,232.5,373.6,237.7z"/>
</svg>
