<svg xmlns="http://www.w3.org/2000/svg" xml:space="preserve" viewBox="0 0 512 512"><path d="M228.1 106.3c17.5 1.2 23.9 18.6 27.9 37.3 5.2 17.5 8.2 38.4 10.5 62.3 1.2 8.2 2.9 18.6 4.1 29.1 5.2 32 13.4 69.3 25 71.6 5.2 1.2 32 0 107.7-121.1 4.1-5.2 6.4-10.5 10.5-17.5-2.9-80.9-45.4-149-108.9-164.8C221.1-16.6 132 56.2 105.8 168c-9.3 37.3-9.3 72.8-4.1 104.8 34.3-34.3 58.2-79.8 75.7-112.9 19.8-35 30.9-54.8 50.7-53.6m70.4 234c-2.9 0-5.2 0-8.2-1.2-30.3-6.4-42.5-46.6-50.7-91.4-1.2-12.2-4.1-23.9-5.2-36.1-2.9-22.7-5.2-42.5-9.3-58.2 0-1.2-1.2-2.9-1.2-4.1-5.2 8.2-10.5 18.6-15.7 27.9-17.5 32-38.4 72.8-70.4 108.9-8.2 9.3-15.7 17.5-25 25 14.6 39.6 41.3 71.6 74.5 87.9l-54.7 52c-13.4 12.2-8.2 33.2 9.3 38.4l71.6 21.5c17.5 5.2 32-9.3 27.9-26.8L224 411.4v-1.2c78.6 8.2 157.8-62.3 183.4-165.9-46.6 66.9-80.9 96-108.9 96" style="fill:purple"/></svg>