<?xml version="1.0" encoding="utf-8"?>
<!-- Generator: Adobe Illustrator 28.2.0, SVG Export Plug-In . SVG Version: 6.00 Build 0)  -->
<svg version="1.1" id="Layer_1" xmlns="http://www.w3.org/2000/svg" xmlns:xlink="http://www.w3.org/1999/xlink" x="0px" y="0px"
	 viewBox="0 0 512 512" style="enable-background:new 0 0 512 512;" xml:space="preserve">
<style type="text/css">
	.st0{fill:#4AB28F;}
	.st1{fill:#203742;}
</style>
<g id="Group_46_00000078739100968550266380000009630801036784380804_" transform="translate(-2300.838 -1173.047)">
	<path class="st0" d="M2582.7,1685c-17.4,0-34.9,0-52.3,0c0-46.3,0-92.7,0-139c16.6-6.5,33.2-13.1,52.3-20.7
		C2582.7,1582.4,2582.7,1633.7,2582.7,1685z"/>
	<path id="Path_1041" class="st1" d="M2559.4,1266.1h-5.2l-159.5,358.5c-1.9,4.4-6.2,7.1-11,7.1h-25.8c-6.3,0.5-11.8-4.2-12.3-10.4
		c-0.2-2.2,0.3-4.4,1.3-6.4l196.4-434.8c1.9-4.4,6.2-7.2,11-7.1h6.5c4.8-0.1,9.1,2.7,11,7.1l195.1,434.8c3,5.5,0.9,12.5-4.6,15.5
		c-1.9,1-4.2,1.5-6.4,1.3H2730c-4.8,0-9.1-2.8-11-7.1C2719,1624.6,2591,1336.6,2559.4,1266.1z"/>
</g>
</svg>
