<?xml version="1.0" encoding="utf-8"?>
<!-- Generator: Adobe Illustrator 28.2.0, SVG Export Plug-In . SVG Version: 6.00 Build 0)  -->
<svg version="1.1" id="Layer_1" xmlns="http://www.w3.org/2000/svg" xmlns:xlink="http://www.w3.org/1999/xlink" x="0px" y="0px"
	 viewBox="0 0 512 512" style="enable-background:new 0 0 512 512;" xml:space="preserve">
<path d="M281.9,512c-17.4,0-34.9,0-52.3,0c0-46.3,0-92.7,0-139c16.6-6.5,33.2-13.1,52.3-20.7C281.9,409.4,281.9,460.7,281.9,512z
	 M258.6,93.1h-5.2L93.9,451.6c-1.9,4.4-6.2,7.1-11,7.1H57.1c-6.3,0.5-11.8-4.2-12.3-10.4c-0.2-2.2,0.3-4.4,1.3-6.4L242.5,7.1
	c1.9-4.4,6.2-7.2,11-7.1h6.5c4.8-0.1,9.1,2.7,11,7.1l195.1,434.8c3,5.5,0.9,12.5-4.6,15.5c-1.9,1-4.2,1.5-6.4,1.3h-25.9
	c-4.8,0-9.1-2.8-11-7.1C418.2,451.6,290.2,163.6,258.6,93.1z"/>
</svg>
