<svg xmlns="http://www.w3.org/2000/svg" xml:space="preserve" viewBox="0 0 512 512"><path d="M64 0h384c35.3 0 64 28.7 64 64v384c0 35.3-28.7 64-64 64H64c-35.3 0-64-28.7-64-64V64C0 28.6 28.7 0 64 0" style="fill:#8f0000"/><path d="M102.5 236.2c0-23.1-18.8-41.9-41.9-41.9H0v28.2h60.7c7.7 0 14.5 6 14.5 13.7v41c0 7.7-6.8 14.5-14.5 14.5H0V319h60.7c23.1 0 41.9-18.8 41.9-41.9v-19.7c96.6 1.7 124.8 26.5 154.7 53 29.9 25.6 62.4 53.8 148.7 54.7v9.4c0 23.1 18.8 42.7 42.7 42.7h62.4v-29.9h-62.4c-7.7 0-13.7-5.1-13.7-12.8v-41c0-7.7 6-13.7 13.7-13.7h62.4v-27.3h-62.4c-23.1 0-42.7 17.9-42.7 41.9v9.4c-81.2 0-105.1-23.1-134.2-48.7C246 272.9 217 249 151.2 239.6l1.7-1.7c12.8-12 19.7-25.6 26.5-37.6s12.8-22.2 23.1-29.1c8.5-6 20.5-10.3 38.5-11.1v9.4c0 23.1 18.8 43.6 41.9 43.6h168.3c23.1 0 41.9-19.7 41.9-43.6v-41c0-23.1-18.8-41.9-41.9-41.9H282.8c-23.1 0-41.9 18.8-41.9 41.9v9.4c-22.2.9-38.5 6-51.3 14.5-14.5 10.3-23.1 23.9-29.9 36.7s-12.8 23.9-21.4 31.6c-7.6 8.6-17.9 13.8-35.8 15.5m180.3-120.5h168.3c7.7 0 13.7 6 13.7 13.7v41c0 7.7-6 13.7-13.7 13.7H282.8c-7.7 0-14.5-6-14.5-13.7v-41c0-8.6 6.8-13.7 14.5-13.7" style="fill:#fff"/></svg>