<svg xmlns="http://www.w3.org/2000/svg" xml:space="preserve" viewBox="0 0 512 512"><path d="M75.1 277.2v-41c0-7.7-6.8-13.7-14.5-13.7H0v69.2h60.6c7.7 0 14.5-6.8 14.5-14.5M448 0H64C28.7 0 0 28.6 0 64v130.3h60.6c23.1 0 41.9 18.8 41.9 41.9 17.9-1.7 28.2-6.8 35.9-15.4 8.5-7.7 14.5-18.8 21.4-31.6 6.8-12.8 15.4-26.5 29.9-36.7 12.8-8.5 29.1-13.7 51.3-14.5v-9.4c0-23.1 18.8-41.9 41.9-41.9h168.3c23.1 0 41.9 18.8 41.9 41.9v41c0 23.9-18.8 43.6-41.9 43.6H282.8c-23.1 0-41.9-20.5-41.9-43.6v-9.4c-17.9.9-29.9 5.1-38.5 11.1-10.3 6.8-16.2 17.1-23.1 29.1S165.6 226 152.8 238l-1.7 1.7c65.8 9.4 94.8 33.3 120.5 55.5 29.1 25.6 53 48.7 134.2 48.7v-9.4c0-23.9 19.7-41.9 42.7-41.9h62.4v27.3h-62.4c-7.7 0-13.7 6-13.7 13.7v41c0 7.7 6 12.8 13.7 12.8h62.4v29.9h-62.4c-23.9 0-42.7-19.7-42.7-42.7v-9.4c-86.3-.9-118.8-29.1-148.7-54.7-29.9-26.5-58.1-51.3-154.7-53v19.7c0 23.1-18.8 41.9-41.9 41.9H0v129c0 35.3 28.7 64 64 64h384c35.3 0 64-28.7 64-64V64c0-35.3-28.7-64-64-64m3.1 184c7.7 0 13.7-6 13.7-13.7v-41c0-7.7-6-13.7-13.7-13.7H282.8c-7.7 0-14.5 5.1-14.5 13.7v41c0 7.7 6.8 13.7 14.5 13.7z"/></svg>