<?xml version="1.0" encoding="utf-8"?>
<!-- Generator: Adobe Illustrator 28.2.0, SVG Export Plug-In . SVG Version: 6.00 Build 0)  -->
<svg version="1.1" id="Layer_1" xmlns="http://www.w3.org/2000/svg" xmlns:xlink="http://www.w3.org/1999/xlink" x="0px" y="0px"
	 viewBox="0 0 512 512" style="enable-background:new 0 0 512 512;" xml:space="preserve">
<g transform="translate(1 1)">
	<path d="M248.9,90.4v236.1c0,39.3-0.7,66.4-0.7,93.1l0,0H118.8C41.4,419.6-1,383.4-1,326.5c0-38.1,21.7-65.8,55.6-77.1
		c-27.8-11.8-44.8-38.1-44.8-70.5c0-52.7,42-88.4,115.5-88.4l0,0L248.9,90.4L248.9,90.4z M384.6,90.4c73.6,0,115.5,35.7,115.5,88.4
		c0,32.4-17,58.8-44.8,70.5c33.9,11.3,55.6,39,55.6,77.1c0,56.9-42.4,93.1-119.8,93.1H261.8l0,0c0-26.7-0.6-53.8-0.7-93.1V90.3
		h123.5V90.4z M182.4,278.5H124c-38.7,0-58,14.6-58,43.3c0,30.1,17.9,45.1,53.3,45.1l0,0h30.6c24.5,0,32.5-11.8,32.5-47.5l0,0
		L182.4,278.5L182.4,278.5z M386,278.5h-58.5v40.9c0,35.7,8,47.5,32.5,47.5h30.6c35.4,0,53.3-15,53.3-45.1
		C444,293.1,424.7,278.5,386,278.5z M182.9,143.1h-53.8c-34.4,0-52.3,15.5-52.3,41.8s17.9,41.8,52.3,41.8l0,0h53.8V143.1z
		 M380.9,143.1h-53.8v83.7h53.8c34.4,0,52.3-15.5,52.3-41.8S415.3,143.1,380.9,143.1z"/>
</g>
</svg>
