<svg xmlns="http://www.w3.org/2000/svg" xml:space="preserve" viewBox="0 0 512 512"><linearGradient id="node-js_svg__a" x1="277.292" x2="118.519" y1="461.638" y2="89.76" gradientTransform="matrix(1 0 0 -1 53.428 542.628)" gradientUnits="userSpaceOnUse"><stop offset="0" style="stop-color:#3f8b3d"/><stop offset=".64" style="stop-color:#3f873f"/><stop offset=".93" style="stop-color:#3da92e"/><stop offset="1" style="stop-color:#3dae2b"/></linearGradient><path d="M268.1 3.2c-7.5-4.3-16.7-4.3-24.2 0L44.6 119c-7.6 4.3-11.8 12.4-11.8 21v232c0 8.6 4.7 16.7 11.8 21L244 508.8c7.5 4.3 16.7 4.3 24.2 0L467.4 393c7.6-4.3 11.8-12.4 11.8-21V140c0-8.6-4.7-16.7-11.8-21z" style="fill:url(#node-js_svg__a)"/><linearGradient id="node-js_svg__b" x1="171.637" x2="677.901" y1="269.999" y2="541.653" gradientTransform="matrix(1 0 0 -1 53.428 542.628)" gradientUnits="userSpaceOnUse"><stop offset=".14" style="stop-color:#3f873f"/><stop offset=".4" style="stop-color:#52a044"/><stop offset=".71" style="stop-color:#64b749"/><stop offset=".91" style="stop-color:#6abf4b"/></linearGradient><path d="M467.4 119 268.1 3.2c-5.9-3.4-12.9-4-19.3-2L37 385.5c2 3 4.5 5.6 7.5 7.5l199.4 115.8c6.1 3.5 13.2 4 19.7 1.8l211.2-384.3c-1.9-2.9-4.4-5.5-7.4-7.3" style="fill:url(#node-js_svg__b)"/><linearGradient id="node-js_svg__c" x1="-18.131" x2="432.053" y1="286.639" y2="286.639" gradientTransform="matrix(1 0 0 -1 53.428 542.628)" gradientUnits="userSpaceOnUse"><stop offset=".09" style="stop-color:#6abf4b"/><stop offset=".29" style="stop-color:#64b749"/><stop offset=".6" style="stop-color:#52a044"/><stop offset=".86" style="stop-color:#3f873f"/></linearGradient><path d="M243.9 3.2 44.6 119c-3.3 1.8-5.8 4.5-7.7 7.5l211.5 384.1c6.5 2.2 13.6 1.7 19.7-1.8L467.4 393c3.1-1.7 5.5-4.2 7.4-7L263.2 1.2c-6.4-2-13.4-1.4-19.3 2" style="fill:url(#node-js_svg__c)"/></svg>