<svg xmlns="http://www.w3.org/2000/svg" xml:space="preserve" viewBox="0 0 512 512"><linearGradient id="nodecosmos_svg__a" x1="180.694" x2="380.286" y1="164.973" y2="164.973" gradientTransform="matrix(1.2222 0 0 -1.2222 -86.822 457.635)" gradientUnits="userSpaceOnUse"><stop offset=".16" style="stop-color:#2abfff"/><stop offset=".597" style="stop-color:#f26ebe"/><stop offset=".863" style="stop-color:#fe5658"/></linearGradient><path d="M256 384c-70.6 0-128-57.4-128-128s57.4-128 128-128 128 57.4 128 128-57.4 128-128 128m0-233.6c-58.2 0-105.6 47.4-105.6 105.6S197.8 361.6 256 361.6 361.6 314.2 361.6 256 314.2 150.4 256 150.4" style="fill:url(#nodecosmos_svg__a)"/><path d="M1 244.7h128.4c.6 0 1 .5 1 1.2v20.3c0 .6-.5 1.2-1 1.2H1c-.6 0-1-.5-1-1.2v-20.3c0-.7.5-1.2 1-1.2" style="fill:#2abfff"/><path d="M383.5 244.7H511c.6 0 1 .5 1 1.2v20.3c0 .6-.4 1.2-1 1.2H383.5c-.6 0-1-.5-1-1.2v-20.3c0-.7.5-1.2 1-1.2" style="fill:#fe565a"/></svg>