<svg xmlns="http://www.w3.org/2000/svg" xml:space="preserve" viewBox="0 0 512 512"><path d="m497.6 119.6-30.8 109.7c-1.5 5.5-6.6 9.3-12.3 9.3H342.7c-8.4 0-14.6-8.1-12.3-16.2l30.8-109.7c1.5-5.5 6.5-9.3 12.3-9.3h111.9c8.4 0 14.5 8 12.2 16.2m-60.1 153.9H219.7c-5.7 0-10.7 3.8-12.3 9.3l-59.8 213c-1.5 5.3.6 10.5 4.5 13.5 2.1 1.7 4.8 2.7 7.7 2.7h217.8c2.9 0 5.6-1 7.8-2.7 2.1-1.6 3.7-3.9 4.5-6.6l59.8-213c2.3-8.2-3.8-16.2-12.2-16.2M122 9.3l-59.8 213c-2.3 8.1 3.9 16.2 12.3 16.2h217.7c5.7 0 10.7-3.8 12.3-9.3l59.8-213C366.6 8.1 360.5 0 352 0H134.3c-5.7 0-10.7 3.8-12.3 9.3m59.6 280.3c2.3-8.1-3.8-16.2-12.3-16.2H57.4c-5.7 0-10.7 3.8-12.3 9.3L14.4 392.4c-2.3 8.1 3.9 16.2 12.3 16.2h111.9c5.7 0 10.7-3.8 12.3-9.3z" style="fill:#fff"/></svg>