<svg xmlns="http://www.w3.org/2000/svg" xml:space="preserve" viewBox="0 0 512 512"><path d="M57.4 405.3c0-99.3-.1-197.2 0-295.1 0-22.1-3.1-41.3-28.9-48.6-9.8-2.7-11.1-12.7-9.9-22.1s7.9-14 16.3-14.2c27.7-.5 55.4-.9 83.1.3 14.4.6 25.7 9 34.6 20.7 48.2 63.1 96.7 126 145 189 26.1 34 52.1 68.1 79.9 101.6.4-23.8 9.1-49.4-9.2-69.4-37.2-40.7-47.1-88.8-41.5-141.4 1.8-35.6-.2-72.9 4.6-109.2 1.2-9.4 3.2-17 14-16.7 11.7.3 13.3 8.9 13.3 18.6-.1 42.9-.1 85.9 0 128.8 0 4.2-.3 8.4.5 12.4.8 4.3 3.3 8.1 8.3 7.6 4.2-.4 6.1-4 6.4-8 .3-3.7.3-7.4.3-11.1 0-41.6-.1-83.1-.1-124.7 0-3.7.1-7.4.7-11 1.3-7.6 5-13.1 13.6-13 8.9.1 13.4 5.3 14.4 13.7.4 3.7.2 7.4.2 11.1v127.5c0 3.2 0 6.5.1 9.7.1 5.3 2 9.2 7.9 9.1 5.4-.1 6.6-4.1 6.7-8.7.1-3.7.1-7.4.1-11.1 0-42.9 0-85.9.1-128.8 0-4.6.1-9.3 1.4-13.6 1.8-5.8 6.4-8.8 12.7-8.9 6.4-.1 10.4 3.1 12.5 9 2.2 6.2 2.3 12.7 2.2 19.2v121.9c0 2.8-.1 5.5.1 8.3.3 4.3 1 9.1 6.1 9.5 5.7.5 7.9-4.3 8.7-8.9.8-4 .5-8.3.5-12.4 0-42.5.1-85 0-127.5 0-9.5.9-18.1 12.9-18.9 12.1-.8 14.1 8.1 15.4 17.2.5 3.6.9 7.3 1 11 1.1 48 1.6 96 3.4 143.9 1.2 30.9-8.5 57.6-28.7 79.9-18.1 20.1-25.6 41.9-24.7 69.2 1.7 51.2.3 102.5.6 153.8.1 15.3-1.9 28.9-18.2 35.2-12.9 5-34.1-1.5-43.7-14-37-47.9-73.6-95.9-110.4-143.9C219 286.4 168.5 220.5 118 154.5c-1.1-1.5-1.6-3.4-2.3-5.1-1 .6-1.9 1.2-2.9 1.8-.3 5.8-.9 11.6-.9 17.5-.1 81.7 0 163.5-.1 245.2 0 9.4 1.9 18.4 4.2 27.2 3.6 13.3 12.1 22.4 25.1 27.6 10.5 4.2 16.9 11.9 14.3 23.7-2.5 11.7-11.4 14-22.2 13.9-31.4-.4-62.8-.3-94.2 0-10.9.1-19.3-2.6-21.3-14.7C15.8 480 21.4 474 32.1 470c18.7-6.9 23.3-23.6 25-41.2.8-7.3.3-14.8.3-23.5" style="fill:#225839"/></svg>