<?xml version="1.0" encoding="utf-8"?>
<!-- Generator: Adobe Illustrator 28.2.0, SVG Export Plug-In . SVG Version: 6.00 Build 0)  -->
<svg version="1.1" id="Layer_1" xmlns:serif="http://www.serif.com/"
	 xmlns="http://www.w3.org/2000/svg" xmlns:xlink="http://www.w3.org/1999/xlink" x="0px" y="0px" viewBox="0 0 512 512"
	 style="enable-background:new 0 0 512 512;" xml:space="preserve">
<style type="text/css">
	.st0{fill-rule:evenodd;clip-rule:evenodd;fill:#2A76B7;}
</style>
<path class="st0" d="M507,256c0,138.5-112.5,251-251,251S5,394.5,5,256S117.5,5,256,5c60.3,0,115.6,21.3,158.9,56.8
	c-8.3,8-18.8,18.2-30.6,29.7c-4.2-2.7-9.2-4.3-14.6-4.3H142.3c-15,0-27.2,12.2-27.2,27.3v283c0,15,12.2,27.3,27.2,27.3h227.5
	c15,0,27.2-12.2,27.2-27.3v-203c25.5-26,48.1-49.3,63.1-64.8c2.8-2.9,5.4-5.6,7.9-8.2C492.7,160.5,507,206.6,507,256z M480.7,81.6
	c0-1.9-0.8-3.8-2.2-5.2l-22-22c-1.4-1.4-3.2-2.2-5-2.2c0,0,0,0,0,0c-1.9,0-3.8,0.8-5.2,2.2c0,0-0.1,0.1-0.1,0.1
	c-2,1.9-196.6,189.2-240.2,239.9c-9.3,10.9-16.9,36.3-21,53.5c17.2-4.1,42.7-11.7,53.5-21c0,0,0,0,0,0
	c50.7-43.4,235.9-235.9,239.7-239.9c0.1-0.2,0.3-0.3,0.4-0.5C480,85.3,480.7,83.5,480.7,81.6z"/>
<path d="M369.7,87.2c5.4,0,10.4,1.6,14.6,4.3c-2.7,2.6-5.5,5.3-8.4,8.1c-1.9-0.8-4-1.3-6.2-1.3H142.3c-8.9,0-16.1,7.2-16.1,16.2v283
	c0,8.9,7.2,16.2,16.1,16.2h227.5c8.9,0,16.1-7.2,16.1-16.2V205.9c1.2-1.2,2.4-2.5,3.6-3.7c2.5-2.6,5-5.1,7.5-7.7v203
	c0,15-12.2,27.3-27.2,27.3H142.3c-15,0-27.2-12.2-27.2-27.3v-283c0-15,12.2-27.3,27.2-27.3H369.7z M471.6,117.9
	c-1.2,1.2-2.3,2.4-3.6,3.7c24.7,38.9,39,85,39,134.4c0,138.5-112.5,251-251,251S5,394.5,5,256S117.5,5,256,5
	c60.3,0,115.6,21.3,158.9,56.8c1.3-1.2,2.5-2.4,3.6-3.5C374.3,21.9,317.7,0,256,0C114.7,0,0,114.7,0,256s114.7,256,256,256
	s256-114.7,256-256C512,205.2,497.1,157.8,471.6,117.9z M174.2,367.1c-2.2,0-4.3-0.9-5.9-2.4c-1.9-1.9-2.8-4.7-2.3-7.4
	c0.4-2.2,10-53.3,27.4-73.6c44-51.3,232.5-232.6,241.2-241c4.5-4.5,10.5-7,16.8-7c0,0,0.1,0,0.1,0c6.3,0,12.3,2.5,16.7,7.1
	l21.9,21.9c4.6,4.6,7.1,10.6,7,17c0,6.3-2.5,12.3-7.1,16.7l0,0c-0.5,0.6-1.2,1.3-1.9,2.1c-1.4,1.5-3.5,3.6-6.1,6.4
	c-5.3,5.5-12.9,13.3-22.1,22.9c-16.5,17-42.1,43.4-70.6,72.4c-49,49.9-113.1,114.2-140.2,137.4c-20.2,17.3-71.4,27-73.6,27.4
	C175.2,367.1,174.7,367.1,174.2,367.1z M451.5,52.3c-1.9,0-3.8,0.8-5.2,2.2c0,0-0.1,0.1-0.1,0.1c-2,1.9-196.6,189.2-240.2,239.9
	c-9.3,10.9-16.9,36.3-21,53.5c17.2-4.1,42.7-11.7,53.5-21c0,0,0,0,0,0c50.7-43.4,235.9-235.9,239.7-239.9c0.1-0.2,0.3-0.3,0.4-0.5
	c1.4-1.3,2.1-3.1,2.1-5c0-1.9-0.8-3.8-2.2-5.2l-22-22C455.2,53.1,453.4,52.3,451.5,52.3C451.5,52.3,451.5,52.3,451.5,52.3z
	 M478.5,98.4C478.5,98.4,478.5,98.4,478.5,98.4C478.5,98.4,478.5,98.4,478.5,98.4z M478.1,87.2c-0.9,1-1.4,2.1-1.7,3.4
	C476.7,89.3,477.3,88.1,478.1,87.2z"/>
</svg>
