<svg xmlns="http://www.w3.org/2000/svg" xml:space="preserve" viewBox="0 0 512 512"><path d="M198.1 294.9c-5.3-.5-10.5-.8-15.6-1.8 6.9-4.7 12.1-10.3 14.3-18.5l2.7-1.5c.5 7.3 3.9 15.7-1.4 21.8m-71.6 25.2c-17.1-.6-34.2-4.7-51.3-1.9.5 1.1 1.6 3.4 2.3 4.5 17.1 1.8 34.5.5 51.8.5-.9-.9-2.2-2.3-2.8-3.1m154.6-83.7c-1.6 8.2-3.7 16.1-5.5 24.2 3.9.5 7.9 1 11.8 1.5 15.8 1.8 31.9-2.3 45.8-9.7 3.9-2.1 7.9-4.5 11.8-6.6 7.6 4.4 16.1 9.2 25.3 6.4 22.1-5.2 46.8-9.5 63.5-26.3-1.5-3.4-2.7-6.8-4.2-10.2-.3-.8-.6-1.6-1-2.4-5.6-9.2-10.2-19.8-19.5-25.8-9-5.3-19.5-7.4-28.9-12.1-10 8.4-14.5 21.1-24.2 29.8-11.1 7.4-25.3 8.9-38.2 6.4-14.5-3.4-26.6-13.1-38.2-21.9-6.9-5.5-10.5-13.9-13.2-22.1-1.8-5.5-3.2-11.1-4.7-16.6-1.8-7.3-1.3-16.8-9.4-20-.3-.2-.6-.3-1-.5-18.2-8.4-38.4-14.5-58.5-13.4-17.9 5.6-37.6 9.4-51.3 22.9-21.3 19-33.2 46-42.9 72.2-.5 1.6-1.3 4.7-1.8 6.3-.3 1.1-.8 3.2-1.1 4.2-3.2 12.9-8.9 24.8-12.1 37.6-.8 7.3-.3 14.3.5 21.6.2 1.5.3 4.2.3 5.5 4.4 0 8.7.2 13.1.3 9-15.6 14.8-33.9 29.8-45.3 3.5-3.7 6.6-7.7 10.3-11.1 4.7-2.7 7.6 2.6 10.2 5.6-13.1 14.5-8.5 36.8 1.5 51.8-6.9 5.2-13.5 10.5-18.9 17.1 3.7 12.1 16 17.9 26.8 22.2-7.6-7.9-19.3-15.3-16.4-28.2 4.8-6.6 14.7-5 21.8-7.1-4.8-6.3-11.3-12.1-13.4-19.8-.6-11.9 5-22.9 9-33.7 3.1.6 6 1.1 9 1.8.3 4.2.8 8.5 1.1 12.7 10.3 5.6 22.2 6 33.2 9.5 15.2 5 31.4 3.2 46.8-.3-.2-3.5-.5-7.1-.5-10.6 1.6-6.4 5.2-16.4 13.9-12.7-.6 8.4-1.8 16.6-2.1 25 .2 7.6 4 14 8.7 19.8-.2-4.4-.5-8.9-.8-13.2-1.3-11.8-1-24 5.6-34.2 2.1-.1 6.1-.4 8-.6M158.3 441.6c-9.5-7.3-19.7-14.3-25.8-24.8-5.8-10.2-10.8-20.6-16.9-30.6-10.5-16.9-11-37.6-18.5-55.6-1.9-.2-5.3-.6-7.1-1 1.1 14.7 4 29.5 9 43.4 9.7 17.1 17.7 35.1 30.2 50.3 12.7 12.7 25.5 28.7 45.1 29.7 14.3 0 30.2 3.2 43-5 16.6-7.7 26.1-28.5 19.7-46.1-5.5-14.7-9.4-31.8-23.4-40.8-19.7-11.8-49.2 7.7-45.1 30.8-1-23.2 34.3-39.3 47.9-18.1 7.9 18.1 19.3 38.9 10.2 58.5-14.5 22.1-48 24.3-68.3 9.3m42.2-44.8c-2.3-2.7-4-5.6-6.3-8.2 0 3.9.2 7.7.3 11.4-9.7 6-18.4-3.5-26.1-8.2 3.2 3.5 6.6 7.1 9.8 10.6 8 1.2 16.8 1.5 22.3-5.6m235.7-95.9c-.3 3.9-.8 7.7-1.3 11.7-1.6 1-4.6 3-6 3.9v.1c-.1 0-.1.1-.2.1 0 3.5-.2 7.3-.5 10.8 13.4-.3 25.6-6.1 38.7-8.5 0 0 0-.1.1-.1h.1c2.1-4.2.8-9 .6-13.2-10.5-1.3-20.7-5.3-31.5-4.8m-24.6 24.5c.3-1.6.1-3-.3-4-2.2-5.7-12.9-3.7-18.4-4.1-15.8 2.7-31.9.8-47.7 2.9-16.9-3.4-34.2-4-51.4-2.6v.2c.2 1.6.3 4.8.5 6.4 16.9-1 34.2.6 50.9-2.9 14.7 3.2 29.7 1.9 44.5 1 7.5-.6 14.4 4.1 21.9 3.1m-108.9-31.6c-4.7-11.3-16.1-1.8-21.3 4.2-3.9-3.4-7.4-6.9-10.6-11 10 14.8 1.8 37.1 18.4 47.7-2.4-7.9-5.5-15.8-6.6-24l.2-1.1c2.5-9.4 12.2-12.1 19.9-15.8m-119.6 25.9c-7.4.2-14.7 0-21.9 0 1.5 2.1 2.9 4 4.4 6 4.4.1 8.8.3 13.2.5 1.5.1 2.9.1 4.4.1v.2c27.9.2 55.6.6 83.5-.3.5-.8 1.6-2.6 2.1-3.5h-.1c0-.1.1-.1.1-.2-28.6-1.9-57.2-2.4-85.7-2.8m190.7 20c-9.7-3.2-18.7-7.6-27.9-11.6 6 5.8 10.8 13.2 18.5 16.9 10 2.3 19.8-4.4 27.1-10.8-4.5-8.8-12.2 3.3-17.7 5.5m-223.1-39.4c-.5-.1-1-.2-1.4-.3 1 3.4 2.1 6.9 3.1 10.5 6 0 12.3.5 18.2.5.2.2.5.5.7.6 3.6 2.7 8.1-1.3 12-1.6 9.7-2.9 18.9 3.5 28.5 3.5 18.5.5 37.1.3 55.6-.3-.2-2.1-.5-6.4-.6-8.5-24.7 0-50.1-3.9-74.2 3.2-6.8-.2-13.1-3.2-19.7-4.4q-1.5-1.95-3.9-2.7c-.1 0-.2-.1-.3-.1s-.3-.1-.4-.1c-4.2-1.1-9.7-.2-14.6-.2-1 .1-2 .1-3-.1m157 3.2c-4 1-12.4-.3-11.3 6.3 6.9.4 13.7.6 20.6.5 4.2 0 8.4-.1 12.6-.2h.7c4-.1 5.8-2.3 5.3-6.8-9.3 0-18.5-.5-27.9.2m100.8-2.1c-17.6-1-34.8 1.5-52.1 2.9-.6 1.1-1.9 3.5-2.6 4.8 9.5 2.9 19.7 1.1 29.3 2.4 12.7 1.8 26.1 3.1 37.9-2.7-4-2.6-7.7-6.5-12.5-7.4m-368.8-7.9q.15 0 0 0c-4.8.9-9.8 1.1-14.7.5h-.4c-.4-.1-.8-.1-1.2-.2h-.1c-3.4 5.6-7.4 10.8-13.2 14-5.6 3.7-3.2 11.8-2.3 17.3 1 .2 2.1.3 3.1.5 7.6 1.1 15.4 1 23.1 1.2 1.8.1 3.6.1 5.4.2h.2c-2.6-6-6.1-11.6-7.6-17.9-1.1-6.4 7.4-9.2 7.9-15.5 0-.1-.1-.1-.2-.1m27.9 6c0-.1.1-.3.1-.4l-2 .9-.6-1.5c0 .1-.1.2-.1.3l-.2-.5c-.2.6-.6 1.9-1 2.6L62 303c-.3.5-.8 1.1-1.1 1.5-4.2 3.5-3.4 9-3.9 13.9.6 1.3 2.1 3.7 2.7 4.8.3.2.5.3.7.4 6.7 3.5 5.3-11.4.6-12.1-.1 0-.1 0-.2-.1 3.1-3.7 6.4-7.2 7.4-12.1zm278 11.5c1.3-10.6 10-15.8 19.2-19.2-4.5-.3-9.2-.6-13.9-1-3.7-8.1-6.8-16.4-12.3-23.5-2.9-3.4-7.6-3.7-10.3.2 3.7 11.6 16.1 17.3 21.3 28.1-2.2 5-7.9 10-4 15.4m-297.7.3c0-.1 0-.3.1-.4.4-2.7 1.4-5.3 2.6-7.9.1-.1.1-.2.2-.3 1-2.1 2.2-4.2 3.3-6.1-2.9.5-5.8.6-8.5.6-1.8 4-3.9 8.2-6 12.1v.2c.4 1.1.8 2.1 1.3 3.1.7 1.6 1.5 3.2 2.3 4.7 1.2 2.2 2.6 4.4 4.1 6.5.8-.3 2.7-1.1 3.7-1.6l-.1-.1h.1c-2.8-3.3-3.6-6.8-3.2-10.4.1-.2.1-.3.1-.4m240.3-130.1.3-1.9c-9.8-4.5-11.4-16.4-13.2-25.8-5.8-13.4-6.5-28.2-4.2-42.5.2-1.2.4-2.3.6-3.5v-.2c.2-1.1.4-2.2.7-3.3 0-.1 0-.2.1-.3.2-1.1.5-2.2.8-3.3 0-.1 0-.1.1-.2l.9-3.3c.3-1.2.7-2.4 1.1-3.7.2-.5.3-1.1.5-1.6.1-.2.1-.3.2-.5.1-.4.3-.8.4-1.1.1-.2.1-.4.2-.6.1-.4.3-.7.4-1.1.1-.2.1-.3.2-.5.4-1.1.9-2.1 1.4-3.1.1-.2.2-.3.2-.5.2-.4.4-.7.6-1.1.1-.2.2-.4.3-.5.2-.4.4-.7.6-1.1.1-.2.2-.3.3-.5l.9-1.5c1.6-2.6 3.5-5 5.6-7.1.3-.4.7-.7 1.1-1.1 5.4-5.2 12-9 19.7-10.1 1.4-.5 2.8-.9 4.1-1.1h.1c.5-.1.9-.1 1.4-.2h.2c.5-.1 1.1-.1 1.6-.1h1.8c.3 0 .5 0 .8.1.2 0 .4 0 .7.1.2 0 .4 0 .6.1.3 0 .5.1.8.1.1 0 .3.1.4.1 11.1 2.1 20.7 11.4 27.1 20.4 2.2 4.1 5.1 7.6 8.3 10.8s6.8 6 10.6 8.7c8.2 26.4 6.1 55.9-6 80.9-2.2 4.9-5.8 8.6-10 11.7-.3.2-.5.4-.8.6-.4.3-.8.6-1.3.9-1.6 1.1-3.2 2.1-4.9 3-.5.3-1 .5-1.4.8l-2.4.6c-.2 0-.4.1-.6.1-1.6.3-3.3.6-4.9.8-.2 0-.4 0-.6.1-1.8.2-3.5.2-5.2.2h-.3c-15-.7-29.3-8.1-39.9-18.7m3.6-40.6s0 .1 0 0q0 .15 0 0 0 .15 0 0c-.1.5-.1.9-.1 1.3v.3c-.1 7.3 7.3 10.9 12.7 14.7h1.5c.2 0 .5 0 .7-.1.1 0 .3 0 .4-.1.2 0 .4-.1.6-.1.1 0 .3-.1.4-.1.2 0 .4-.1.6-.2.1 0 .3-.1.4-.1.2-.1.4-.1.5-.2s.3-.1.4-.2c.2-.1.3-.1.5-.2.1-.1.3-.1.4-.2.2-.1.3-.2.5-.3.3-.1.5-.3.8-.5.1-.1.2-.1.3-.2.2-.1.3-.2.5-.3.1-.1.2-.1.3-.2.2-.1.3-.2.5-.4.1-.1.2-.1.3-.2.2-.1.3-.3.5-.4l.2-.2.5-.5c0-.1.1-.1.1-.2.6-.6 1.1-1.3 1.6-2 .1-.2.3-.4.4-.6 3.2-5.1 4-12.1 2.2-17.8-.3-.2-.7-.4-1.1-.6-.1-.1-.2-.1-.3-.2-.3-.1-.6-.3-.8-.4-.1-.1-.2-.1-.4-.2-.4-.2-.7-.3-1.1-.5 0 0-.1 0-.1-.1-.4-.2-.9-.3-1.3-.5-.1 0-.2-.1-.4-.1-.3-.1-.7-.2-1-.3-.1 0-.3-.1-.4-.1l-1.2-.3h-.2l-1.5-.3h-.3c-.4-.1-.8-.1-1.2-.1h-.4c-.4 0-.8-.1-1.3-.1h-1.9c-.4 0-.8 0-1.2.1h-.3c-.4 0-.8.1-1.2.1h-.2c-.5.1-.9.2-1.4.3h-.1l-1.2.3c-.1 0-.2.1-.3.1-.4.1-.7.3-1 .4-.1 0-.1.1-.2.1l-1.2.6c-.1 0-.1.1-.2.1-.2.1-.4.3-.6.4l-.3.3c-.1.1-.2.1-.2.2l-.2.2c-.3.2-.5.5-.7.8-.1.1-.2.3-.3.4s-.2.3-.3.4c-.1.2-.2.4-.4.6-.1.1-.1.2-.2.3-.1.2-.2.5-.3.7 0 .1-.1.2-.1.3-.1.3-.2.5-.3.8 0 .1 0 .1-.1.2-.1.3-.2.6-.2 1-.3 1.4-.3 2.7-.1 4.1M118.9 311h.2c.6-1.5 1.9-4.4 2.6-5.8-3.7-4.1-8.7-4.7-13.9-4.6-1.9 0-3.8.1-5.7.1-1.6 0-3.2-.1-4.6-.3h-.8c-8.9.3-22-1.2-25.1 9.2 1.3.2 2.4.2 3.7.2 14.4.3 29.1.6 43.6 1.2m245.9-24.5v5.3c6.8 2.6 14.2 2.3 21.4 2.7-5.8-5.4-13.8-7.2-21.4-8m15.8-124.3c0-.1 0-.2.1-.3.3-1.7.6-3.3.8-5 .1-.6.2-1.2.2-1.8 1.7-15.1-.3-30.2-.6-45.1 7.5-13.4 21.1-20.6 35.3-24.7.1 0 .2-.1.4-.1 1.1-.3 2.1-.6 3.2-.9.2-.1.5-.1.7-.2.7-.2 1.3-.3 2-.5 1.2-.3 2.5-.5 3.7-.8.7-.1 1.3-.3 2-.4.8-.1 1.6-.3 2.4-.4 14.3-1.8 32.6 3.7 36.3 19.5.3.8.7 1.6 1 2.4.1.3.2.5.3.8.2.5.4 1.1.5 1.6l.3.9c.1.5.3 1 .4 1.5.1.3.2.6.2 1l.3 1.5c.1.3.1.7.2 1 .1.5.2 1 .2 1.5 0 .3.1.6.1.9.1.5.1 1 .2 1.6 0 .3.1.6.1.9 0 .6.1 1.2.1 1.7v3.1c0 1-.1 2.1-.1 3.1v.5c-.2 2.1-.4 4.2-.8 6.3-2.6 14.2-9.7 28-17.7 39.7-7.9 7.4-16.9 13.4-24.3 21.3-9.1-18-29.1-26.1-47.5-30.6m52.9-31.4c0 .1.1.1.1.2 3.2 8 13.5 15.2 21 8 .6-1.8 1-3.6 1.3-5.6 0-.2 0-.4.1-.6.1-.6.1-1.2.2-1.7 0-.7.1-1.4.1-2.1v-1.8c0-.5-.1-1-.1-1.5 0-.1 0-.3-.1-.4 0-.4-.1-.8-.2-1.1 0-.2-.1-.4-.1-.5-.1-.3-.1-.7-.2-1 0-.2-.1-.4-.1-.6l-.3-.9c-.1-.2-.1-.4-.2-.6l-.3-.9c-.1-.2-.1-.4-.2-.5-.1-.3-.3-.6-.4-1-.1-.1-.1-.3-.2-.5-.2-.5-.5-.9-.8-1.3-3.7 1.1-7.4 2.1-11.3 2.9-3 3.7-5.6 7.6-8.3 11.5" style="opacity:.3;fill:#fff"/><path d="M291.8 140.6q-.3-2.1 0-3.9c.1-.3.1-.7.2-1 0-.1 0-.1.1-.2.1-.3.2-.6.3-.8 0-.1.1-.2.1-.3.1-.2.2-.5.3-.7.1-.1.1-.2.2-.3.1-.2.2-.4.4-.6.1-.1.2-.3.3-.4s.2-.3.3-.4c.2-.3.5-.5.7-.8l.2-.2c.1-.1.2-.1.2-.2l.3-.3c.2-.1.4-.3.6-.4.1 0 .1-.1.2-.1l1.2-.6c.1 0 .1-.1.2-.1.3-.1.7-.3 1-.4.1 0 .2-.1.3-.1l1.2-.3h.1c.5-.1.9-.2 1.4-.3h.2c.4-.1.8-.1 1.2-.1h.3c.4 0 .8-.1 1.2-.1h1.9c.4 0 .8 0 1.3.1h.4c.4 0 .8.1 1.2.1h.3l1.5.3h.2l1.2.3c.1 0 .3.1.4.1.3.1.7.2 1 .3.1 0 .2.1.4.1.4.1.9.3 1.3.5 0 0 .1 0 .1.1.4.1.7.3 1.1.5.1.1.2.1.4.2.3.1.6.3.8.4.1.1.2.1.3.2.4.2.7.4 1.1.6 1.8 5.7 1 12.6-2.2 17.8-.1.2-.3.4-.4.6-.5.7-1 1.4-1.6 2 0 .1-.1.1-.1.2l-.5.5-.2.2c-.2.1-.3.3-.5.4-.1.1-.2.1-.3.2-.2.1-.3.3-.5.4-.1.1-.2.1-.3.2-.2.1-.3.2-.5.3-.1.1-.2.1-.3.2-.3.2-.5.3-.8.5-.2.1-.3.2-.5.3-.1.1-.3.1-.4.2-.2.1-.3.1-.5.2-.1.1-.3.1-.4.2-.2.1-.4.1-.5.2-.1 0-.3.1-.4.1-.2.1-.4.1-.6.2-.1 0-.3.1-.4.1-.2 0-.4.1-.6.1-.1 0-.3 0-.4.1-.2 0-.5.1-.7.1h-1.5c-5.4-3.8-12.8-7.4-12.7-14.7v-.3c.1-.6.1-1 .2-1.5q0 .15 0 0 0 .15 0 0c0 .1 0 0 0 0M512 308.8v6.9c-24 6.9-49.8 6.9-73.2 16.8-10.8 5.5-22.7 2.1-33.9-.5-8.4 12.3-21.8 23.4-37.4 22.7-12.9-1.6-21.9-12.9-27.9-23.4-12.6-.8-25.5-.5-38.2 0-5.6 3.2-10 11.1-17.6 8.5-6.6.5-9.8-6.4-15.5-8.1-15.8-1-31.8-.2-47.6.6-20.2.3-40.6-2.9-60.3 2.4-9.2 3.5-16.8-3.9-25.3-5.8-8.7-1-17.7-.3-26.6-.2-2.7 26.6 12.7 50.3 25.5 72.4 8.4 16 21.1 33.1 40.1 36 14.5 3.4 33.4 5 43.9-8.1 9-20.6-2.6-42.9-13.7-60.1-11 4.4-26.8 4-29.5 18.2 4.5 3.1 9 6 13.4 9-.5-5.3-1-10.5-1.5-15.8 8.5 1.9 21.3 7.1 19.7 17.9-3.7 8.9-15 10.8-23.5 11.8-13.5.8-20.2-12.7-25.5-22.9-6.3-9.7 1.8-20.3 10-25.3 7.6-4.8 13.4-12.7 22.7-14.2 15.8-.6 34.5 2.4 43 17.6 13.5 22.1 24.8 51.9 10 76.1-1.6 5.8-8.4 6.4-12.9 9.2-7.4 3.1-13.2 9.5-21.4 10.5-21.8 3.9-45.8 3.4-64.8-9.4-19.8-15.5-32.7-37.6-45.8-58.7-11-18.3-15.1-39.9-19.1-60.9h-3.9c-16.8-.2-33.4-.3-50.1-.3H10.9c-13.2-4.2-11.4-19.3-9.7-30.3 7.7-3.5 16-5.6 23.7-9.4h.2c7.3-2.1 14.2 1.5 21.4 1.6 9.7-1.6 20-1.5 28.7-6.3.3-.2.8-.5 1.1-.6.2-8.4-.5-16.8-.5-25.2.6-12.4 5.3-24.2 7.6-36.3 2.4-13.4 6.8-26.3 12.9-38.5 10-27.9 27.1-55.3 54-69.3 13.2-6 27.1-10.2 41.3-12.9 20.5-.6 40.5 4.2 59.7 11.3 2.7 1.1 5.5 2.1 8.2 3.2 1.5-18.2 6.4-36.3 15.2-52.6 3.9-5.6 10-8.9 15.5-12.4 10.8-8.1 25.2-4.7 37.7-4.2 15 6 26 18.5 34 32.2 4.2 4.8 8.1 12.1 14.3 13.5 7.9-6.1 14.7-13.7 24-17.4 20.6-7.4 44.5-10.6 64.8-.5 11.1 10.2 15.2 26 17.1 40.3-2.1 27.1-11.9 54.5-31.6 73.7-5.5 2.6-11.3 4.7-16.9 6.8 2.4 6.1 6.3 11.4 9 17.3 1.6 3.1 2.7 6.4 3.2 10 1.3 6.9-6.1 10.6-10.3 14.8-19.6 17.5-46.5 22.5-71.7 26.4-5.5-1.1-10.8-3.1-16.3-4.4 2.9 9.2 6.3 18.2 10.3 27.1 2.3-1.1 4.7-2.1 6.9-3.1v5.3c-4.5-.3-9.2-.6-13.9-1-3.7-8.1-6.8-16.4-12.3-23.5-2.9-3.4-7.6-3.7-10.3.2 3.7 11.6 16.1 17.3 21.3 28.1-2.3 5-7.9 10-4 15.5 1.3-10.6 10-15.8 19.2-19.2 6.8 2.6 14.2 2.3 21.4 2.7-5.8-5.5-13.7-7.3-21.3-8.1 2.9-1.1 5.8-2.3 8.7-3.5 9.2.6 16.4 6.4 23.9 11.4 16.6.3 33.4-2.4 50 .5 21.9 5.5 45.7 2 64.6 13.9m-190.7-30c-2.9-2.7-4-8.2-8.5-8.7-8.7 1.1-17.4 2.6-26.3 2.1h-9.7c-.5 5.3-.5 10.6-.5 16 2.1 1.1 6.4 3.5 8.5 4.7 3.1-5.6 8.9-7.9 14.7-9.5 8.7 14.2 25.8 12.4 40.1 12.1-5.9-5.7-13.2-10.3-18.3-16.7m14.3 24.5c-9.4 0-18.5-.5-27.9.2-4 1-12.4-.3-11.3 6.3 6.9.4 13.7.6 20.6.5 4.2 0 8.4-.1 12.6-.2h.7c4-.1 5.8-2.4 5.3-6.8m45-141.4c0 .1 0 .2-.1.3 18.4 4.5 38.4 12.6 47.4 30.6 7.4-7.9 16.4-13.9 24.3-21.3 7.9-11.7 15.1-25.5 17.7-39.7.4-2.1.6-4.2.8-6.3v-.5c.1-1 .1-2.1.1-3.1v-3.1c0-.6-.1-1.2-.1-1.7 0-.3-.1-.6-.1-.9 0-.5-.1-1-.2-1.6 0-.3-.1-.6-.1-.9-.1-.5-.2-1-.2-1.5-.1-.3-.1-.7-.2-1l-.3-1.5c-.1-.3-.2-.6-.2-1-.1-.5-.3-1-.4-1.5l-.3-.9c-.2-.5-.4-1.1-.5-1.6-.1-.3-.2-.5-.3-.8-.3-.8-.6-1.6-1-2.4-3.7-15.8-21.9-21.3-36.3-19.5-.8.1-1.6.3-2.4.4-.7.1-1.3.2-2 .4-1.2.2-2.5.5-3.7.8-.7.2-1.3.3-2 .5-.2.1-.5.1-.7.2-1.1.3-2.1.6-3.2.9-.1 0-.2.1-.4.1-14.3 4.1-27.9 11.3-35.3 24.7.3 14.9 2.2 30 .6 45.1-.1.6-.1 1.2-.2 1.8-.1 1.7-.3 3.4-.7 5m-105.3-8.4c1.8 9.4 3.4 21.3 13.2 25.8l-.3 1.9c10.5 10.5 24.9 18 39.8 18.5h.3c1.7 0 3.5 0 5.2-.2.2 0 .4 0 .6-.1 1.6-.2 3.3-.4 4.9-.8.2 0 .4-.1.6-.1l2.4-.6c.5-.3 1-.5 1.4-.8 1.6-.9 3.3-1.9 4.9-3 .4-.3.9-.6 1.3-.9.3-.2.5-.4.8-.6 4.2-3.1 7.8-6.8 10-11.7 12.1-25 14.2-54.5 6-80.9-3.7-2.7-7.3-5.5-10.6-8.7-3.2-3.2-6.1-6.7-8.3-10.8-6.4-9-16-18.3-27.1-20.4-.1 0-.3-.1-.4-.1-.3 0-.5-.1-.8-.1-.2 0-.4-.1-.6-.1s-.4 0-.7-.1c-.3 0-.5 0-.8-.1h-1.8c-.5 0-1.1 0-1.6.1h-.2c-.5 0-.9.1-1.4.2h-.1c-1.4.2-2.7.6-4.1 1.1-7.7 1.1-14.4 4.8-19.7 10.1-.4.3-.7.7-1.1 1.1-2.1 2.2-3.9 4.6-5.6 7.1l-.9 1.5c-.1.2-.2.3-.3.5-.2.3-.4.7-.6 1.1-.1.2-.2.4-.3.5-.2.4-.4.7-.6 1.1-.1.2-.2.3-.2.5-.5 1-1 2.1-1.4 3.1-.1.2-.1.3-.2.5-.2.4-.3.7-.4 1.1-.1.2-.1.4-.2.6-.1.4-.3.7-.4 1.1-.1.2-.1.3-.2.5-.2.5-.4 1.1-.5 1.6-.4 1.2-.7 2.4-1.1 3.7l-.9 3.3c0 .1 0 .1-.1.2-.3 1.1-.5 2.2-.8 3.3 0 .1 0 .2-.1.3-.2 1.1-.5 2.2-.7 3.3v.2c-.2 1.2-.4 2.3-.6 3.5-2.1 14.5-1.5 29.3 4.3 42.7M39.4 326.8h.2c-2.6-6-6.1-11.6-7.6-17.9-1.1-6.4 7.4-9.2 7.9-15.5h-.2c-4.8 1-9.8 1.1-14.7.5h-.4c-.4-.1-.8-.1-1.2-.2h-.1c-3.4 5.6-7.4 10.8-13.2 14-5.6 3.7-3.2 11.8-2.3 17.3 1 .2 2.1.3 3.1.5 7.6 1.1 15.4 1 23.1 1.2 1.8 0 3.6.1 5.4.1m8.4-15.2v-.4c0-.1 0-.3.1-.4.4-2.7 1.4-5.3 2.6-7.9.1-.1.1-.2.2-.3 1-2.1 2.2-4.2 3.3-6.1-2.9.5-5.8.6-8.5.6-1.8 4-3.9 8.2-6 12.1v.2c.4 1.1.8 2.1 1.3 3.1.7 1.6 1.5 3.2 2.3 4.7 1.2 2.2 2.6 4.4 4.1 6.5.8-.3 2.7-1.1 3.7-1.6l-.1-.1h.1c-2.7-3.3-3.4-6.8-3.1-10.4m13.1-.3c3.1-3.7 6.4-7.2 7.4-12.1l-.7.3c0-.1.1-.3.1-.4l-2 .9-.6-1.5c0 .1-.1.2-.1.3l-.2-.5c-.2.6-.6 1.9-1 2.6L62 303c-.3.5-.8 1.1-1.1 1.5-4.2 3.5-3.4 9-3.9 13.9.6 1.3 2.1 3.7 2.7 4.8.3.2.5.3.7.4 6.7 3.5 5.3-11.4.6-12.1 0-.1 0-.1-.1-.2m10.6-1.7c1.3.2 2.4.2 3.7.2 14.5.3 29.2.6 43.7 1.3h.2c.6-1.5 1.9-4.4 2.6-5.8-3.7-4.1-8.7-4.7-13.9-4.6-1.9 0-3.8.1-5.7.1-1.6 0-3.2-.1-4.6-.3h-.8c-8.9.3-22.1-1.2-25.2 9.1m62.4-58.1q-4.35 1.2-8.7 2.1c-6.4 11.4-15.2 23.2-13.2 37.1 9 0 18.4-.2 26.8-4.5-6.7-10.5-8.9-22.7-4.9-34.7m-36.9 79c-1.9-.2-5.3-.6-7.1-1 1.1 14.7 4 29.5 9 43.4 9.7 17.1 17.7 35.1 30.2 50.3 12.7 12.7 25.5 28.7 45.1 29.7 14.3 0 30.2 3.2 43-5 16.6-7.7 26.1-28.5 19.7-46.1-5.5-14.7-9.4-31.8-23.4-40.8-19.7-11.8-49.2 7.7-45.1 30.8 3.2 3.5 6.6 7.1 9.8 10.6 7.9 1.1 16.8 1.5 22.2-5.6-2.3-2.7-4-5.6-6.3-8.2 0 3.9.2 7.7.3 11.4-9.7 6-18.4-3.5-26.1-8.2-1-23.2 34.3-39.3 47.9-18.1 7.9 18.1 19.3 38.9 10.2 58.5-14.3 22.1-47.9 24.3-68.2 9.4-9.5-7.3-19.7-14.3-25.8-24.8-5.8-10.2-10.8-20.6-16.9-30.6-10.4-17-10.9-37.6-18.5-55.7m32.2-7.4c-.8-.8-2.1-2.3-2.7-3.1-17.1-.6-34.2-4.7-51.3-1.9.5 1.1 1.6 3.4 2.3 4.5 17.1 1.8 34.5.5 51.7.5m28.1 5c-7.6-7.9-19.3-15.3-16.4-28.2 4.8-6.6 14.7-5 21.8-7.1-4.8-6.3-11.3-12.1-13.4-19.8-.6-11.9 5-22.9 9-33.7 3.1.6 6 1.1 9 1.8.3 4.2.8 8.5 1.1 12.7 10.3 5.6 22.2 6 33.2 9.5 15.2 5 31.4 3.2 46.8-.3-.2-3.5-.5-7.1-.5-10.6 1.6-6.4 5.2-16.4 13.9-12.7-.6 8.4-1.8 16.6-2.1 25 .2 7.6 4 14 8.7 19.8-.2-4.4-.5-8.9-.8-13.2-1.3-11.8-1-24 5.6-34.2 1.9-.2 6-.5 7.9-.6-1.6 8.2-3.7 16.1-5.5 24.2 3.9.5 7.9 1 11.8 1.5 15.8 1.8 31.9-2.3 45.8-9.7 3.9-2.1 7.9-4.5 11.8-6.6 7.6 4.4 16.1 9.2 25.3 6.4 22.1-5.2 46.8-9.5 63.5-26.3-1.5-3.4-2.7-6.8-4.2-10.2-.3-.8-.6-1.6-1-2.4-5.6-9.2-10.2-19.8-19.5-25.8-9-5.3-19.5-7.4-28.9-12.1-10 8.4-14.5 21.1-24.2 29.8-11.1 7.4-25.3 8.9-38.2 6.4-14.5-3.4-26.6-13.1-38.2-21.9-6.9-5.5-10.5-13.9-13.2-22.1-1.8-5.5-3.2-11.1-4.7-16.6-1.8-7.3-1.3-16.8-9.4-20-.3-.2-.6-.3-1-.5-18.2-8.4-38.4-14.5-58.5-13.4-17.9 5.6-37.6 9.4-51.3 22.9-21.3 19-33.2 46-42.9 72.2-.5 1.6-1.3 4.7-1.8 6.3-.3 1.1-.8 3.2-1.1 4.2-3.2 12.9-8.9 24.8-12.1 37.6-.8 7.3-.3 14.3.5 21.6.2 1.5.3 4.2.3 5.5 4.4 0 8.7.2 13.1.3 9-15.6 14.8-33.9 29.8-45.3 3.5-3.7 6.6-7.7 10.3-11.1 4.7-2.7 7.6 2.6 10.2 5.6-13.1 14.5-8.5 36.8 1.5 51.8-6.9 5.2-13.5 10.5-18.9 17.1 3.8 12.1 16.1 17.9 26.9 22.2m95.8-52.4c-14 .6-28.1.2-42.1.6-1.8 6.6-4 13.1-5.3 19.7 20 1.8 40.1 1.1 60.1.8-3.1-7.5-6-15.9-12.7-21.1m-53.6-2.6-2.7 1.5c-2.3 8.2-7.4 13.9-14.3 18.5 5.2 1 10.3 1.3 15.6 1.8 5.3-6.1 1.9-14.5 1.4-21.8m-39.6-9.9c-1.9 10.2.3 20.2 6.1 28.7 4.4-3.4 8.9-7.1 13.9-9.8.6-3.9 1.5-7.6 2.4-11.3-6-5.7-15-5.4-22.4-7.6m10.6 47.8c.2.2.5.5.7.6 3.6 2.7 8.1-1.3 12-1.6 9.7-2.9 18.9 3.5 28.5 3.5 18.5.5 37.1.3 55.6-.3-.2-2.1-.5-6.4-.6-8.5-24.7 0-50.1-3.9-74.2 3.2-6.8-.2-13.1-3.2-19.7-4.4q-1.5-1.95-3.9-2.7c-.1 0-.2-.1-.3-.1s-.3-.1-.4-.1c-4.2-1.1-9.7-.2-14.6-.2-1.1 0-2.1-.1-3.1-.2-.5-.1-1-.2-1.4-.3 1 3.4 2.1 6.9 3.1 10.5 6.1.2 12.3.6 18.3.6m98.1 11.6c0-.1.1-.1.1-.2-28.5-1.9-57.1-2.4-85.6-2.7-7.4.2-14.7 0-21.9 0 1.5 2.1 2.9 4 4.4 6 4.4.1 8.8.3 13.2.5 1.5.1 2.9.1 4.4.1v.2c27.9.2 55.6.6 83.5-.3.4-.8 1.5-2.6 1.9-3.6.1 0 0 0 0 0m20.6 12.1c-2.4-7.9-5.5-15.8-6.6-24l.2-1.1c2.6-9.4 12.3-12.1 20-15.8-4.7-11.3-16.1-1.8-21.3 4.2-3.9-3.4-7.4-6.9-10.6-11 9.9 14.8 1.7 37.1 18.3 47.7m102.4-.4c-4.5-8.9-12.3 3.2-17.7 5.5-9.7-3.2-18.7-7.6-27.9-11.6 6 5.8 10.8 13.2 18.5 16.9 10 2.2 19.8-4.4 27.1-10.8m19.6-12.9c-2.2-5.7-12.9-3.7-18.4-4.1-15.8 2.7-31.9.8-47.7 2.9-16.9-3.4-34.2-4-51.4-2.6v.2c.2 1.6.3 4.8.5 6.4 16.9-1 34.2.6 50.9-2.9 14.7 3.2 29.7 1.9 44.5 1 7.6-.6 14.5 4 21.9 3.1.3-1.7.2-3-.3-4m9.9-12.6c-4-2.6-7.7-6.4-12.6-7.4-17.6-1-34.8 1.5-52.1 2.9-.6 1.1-1.9 3.5-2.6 4.8 9.5 2.9 19.7 1.1 29.3 2.4 12.8 1.8 26.2 3.1 38-2.7m46.7-3.2c-10.6-1.1-20.8-5.2-31.6-4.7v.1c-.3 3.8-.8 7.6-1.3 11.6-1.6 1-4.6 3-6 3.9v.1c-.1 0-.1.1-.2.1 0 3.5-.2 7.3-.5 10.8 13.4-.3 25.6-6.1 38.7-8.5 0 0 0-.1.1-.1h.1c2.2-4.3.9-9.2.7-13.3M433.6 131c3.2 8 13.5 15.2 21 8 .6-1.8 1-3.6 1.3-5.6 0-.2 0-.4.1-.6.1-.6.1-1.2.2-1.7 0-.7.1-1.4.1-2.1v-1.8c0-.5-.1-1-.1-1.5 0-.1 0-.3-.1-.4 0-.4-.1-.8-.2-1.1 0-.2-.1-.4-.1-.5-.1-.3-.1-.7-.2-1 0-.2-.1-.4-.1-.6l-.3-.9c-.1-.2-.1-.4-.2-.6l-.3-.9c-.1-.2-.1-.4-.2-.5-.1-.3-.3-.6-.4-1-.1-.1-.1-.3-.2-.5-.2-.5-.5-.9-.8-1.3-3.7 1.1-7.4 2.1-11.3 2.9-2.7 3.9-5.3 7.7-8.1 11.6-.2-.1-.2 0-.1.1" style="fill:#fff"/></svg>