<?xml version="1.0" encoding="utf-8"?>
<!-- Generator: Adobe Illustrator 28.2.0, SVG Export Plug-In . SVG Version: 6.00 Build 0)  -->
<svg version="1.1" id="Layer_1" xmlns:serif="http://www.serif.com/"
	 xmlns="http://www.w3.org/2000/svg" xmlns:xlink="http://www.w3.org/1999/xlink" x="0px" y="0px" viewBox="0 0 512 512"
	 style="enable-background:new 0 0 512 512;" xml:space="preserve">
<path d="M471.6,118c4.2-4.3,7.7-8,10.6-11c2.6-2.8,4.7-4.9,6.1-6.4c0.8-0.8,1.4-1.5,2-2.1c9.3-9.3,9.3-24.4,0-33.7l-22-22
	c-4.6-4.5-10.5-7-16.9-7c-6.3,0-12.3,2.4-16.8,6.9l-16.2,15.5C374.1,21.8,317.6,0,256,0C114.8,0,0,114.8,0,256s114.8,256,256,256
	s256-114.8,256-256C512,205.2,497.2,157.9,471.6,118z M126.6,116.7c0-9.6,7.8-17.4,17.4-17.4h224c2.4,0,4.6,0.5,6.7,1.3L193.4,283.7
	c-17.4,20.3-27,71.4-27.4,73.6c-0.5,2.7,0.4,5.5,2.3,7.4c1.6,1.5,3.7,2.4,5.9,2.4c0.5,0,1-0.1,1.5,0c2.2-0.4,53.4-10,73.6-27.4
	c26.4-22.6,87.7-84,136.1-133.2v188.9c0,9.6-7.8,17.4-17.4,17.4H144c-9.6,0-17.4-7.8-17.4-17.4V116.7z M398.2,395.4
	c0,0.1,0,0.2,0,0.3c0-0.1,0-0.3,0-0.4V395.4z M238.5,326.9c-10.8,9.3-36.3,16.9-53.5,21c4.1-17.2,11.7-42.6,21-53.5
	c43.7-50.8,238.2-238,240.2-239.9l0.1-0.1c1.3-1.3,3.2-2.1,5.1-2.1c1.9,0,3.8,0.8,5.2,2.1l22,22c2.9,2.9,2.9,7.4,0,10.3
	c-0.2,0.1-0.3,0.3-0.4,0.4C474.3,91.2,289,283.8,238.5,326.9z"/>
</svg>
