<svg xmlns="http://www.w3.org/2000/svg" xml:space="preserve" viewBox="0 0 512 512"><path d="M46 438.6c-9.7-.1-18.3-2.6-25-8.8-.8-.8-1.5-1.5-2.2-2.3-5.3-6-8.2-13.8-8.2-22.2l-.1-344.8c0-20 16.8-37.9 36.7-39.1L391.7.1c.8 0 1.5-.1 2.2-.1 8.6 0 16.6 3.1 22.8 8.9.8.8 1.6 1.6 2.4 2.5 1.3 1.5 2.4 3 3.4 4.7-1-1.6-2.1-3.2-3.4-4.6 5.2 6 8 13.6 8 21.9v8.8s.2 7.2-6.9 7.7L103.3 69.7c-23.2 1.4-42.1 21.6-42.1 44.9 0 0-.1 318.3-.2 318.8-.2 5.3-4.6 5.3-8.2 5.3H46zm455.4 28.3c0-.5.1-1 .1-1.6l-.1-372.6c-.1-2-.5-3.9-1-5.7-1.3-4.3-3.6-8.2-6.9-11.2-4.7-4.4-10.9-6.8-17.5-6.8-.6 0-1.2 0-1.7.1L106.6 92c-.1 0-.3 0-.4.1-.2 0-.3.1-.5.1-11.7 1.2-21.5 11.4-22.3 23.2V483c.2 8.2 3.5 15.6 9.3 21.1 5.2 4.9 11.8 7.6 19 8h1.1l367.4-22.2h.6c11-2.2 19.8-12 20.6-23m-360.3 4.8c-12.6.9-23.7-3.4-23.4-19.9V195.2c0-8.8 7.2-14.4 15.3-14.8l319.8-19.2c8-.4 14.5 5.4 14.5 13.4v257c0 9.4-2.4 21.5-18.5 22.1zM215 259.9c-14.8.9-19.9 12.2-19.9 29.7v3.1c-1.8.4-3.3.8-5 .9-10.7.7-18.4-8-18.4-23.6 0-23.8 21.3-46.3 62-48.8 36.2-2.2 59.4 15.2 59.4 46.1 0 23.2-19.3 39.7-38.3 44.9 35.6 1.8 50.5 21.6 50.5 47 0 43.4-31.7 68-80.7 71l-1.2.1c-36.8 2.3-62.7-11.7-62.7-35.8 0-13.7 10.1-25.4 25.2-26.3 1.2-.1 2.4.2 3.6.1 3 24.6 19.6 33.6 36.3 32.6 16-1 27.3-11.8 27.3-27.1v-.8c0-23.8-19.9-25-49.9-26.2l-4.8-28.4c27.9-5.1 41.8-14.2 41.8-30.7.1-17.8-9.8-28.8-25.2-27.8m133.9-11.8c-29.7 8.6-36.2-4.5-33-18.1 17.8-4.2 64.1-18.1 81.6-24.3l.2 183.1 32.4 4.7c0 11.9-6.8 19.4-19 20.1-10.1.6-33.6 1.5-44.8 2.2-17.5 1.1-49.6 3.7-49.6 3.7-.9-2.4-1.2-4.8-1.2-7 0-5.8 2.4-11.8 10.1-14.4l23.5-7.6z" style="fill:#fff"/></svg>