<svg xmlns="http://www.w3.org/2000/svg" xml:space="preserve" viewBox="0 0 512 512"><path d="M488.6 75.4c8.9 8.4 13.8 19.8 13.8 32.3v341.1c0 .4-.1.9-.1 1.3v.2c0 20.6-16.1 38.4-36.3 40.9-1.4.2-2.9.4-4.4.5l-333.5 20.2c-1.1.1-2.1.1-3.1.1h-2c-11.9 0-23-4.4-31.6-12.4-9.3-8.7-14.5-20.7-14.5-33.7v-16.2c0-3.3-.6-5.1-4.5-5.1 0 0-10.5.2-11.6.2-13.2 0-25.6-4.9-35.2-13.9-10.4-9.8-16.1-23.1-16.1-37.6l.1-316.9c0-29.4 23.9-54.9 53.3-56.7L379.4.1c14.5-.9 28.2 4 38.5 13.7 10.4 9.7 16.1 23.1 16.1 37.6v10s-.2 3.4 4.1 3.2l17.3-1.1c12.5-.7 24.3 3.5 33.2 11.9" style="fill:#fff"/><path d="M63.1 423.9c-8.9-.1-16.8-2.4-23-8.1-.7-.7-1.4-1.4-2-2.1-4.9-5.6-7.5-12.7-7.5-20.4l-.1-316.9c0-18.3 15.5-34.8 33.8-35.9l316.5-19.6c.7 0 1.4-.1 2.1-.1 7.9 0 15.3 2.9 20.9 8.2.8.7 1.5 1.5 2.2 2.3 1.2 1.3 2.2 2.8 3.1 4.3-.9-1.5-2-2.9-3.1-4.3 4.7 5.5 7.3 12.5 7.3 20.1v8.1s.2 6.6-6.4 7.1L115.8 84.9c-21.4 1.3-38.7 19.8-38.7 41.2L77 419c-.2 4.8-4.2 4.8-7.5 4.8h-6.4zm418.5 25.9c0-.5.1-1 .1-1.4l-.1-342.4c-.1-1.8-.4-3.6-.9-5.3-1.1-3.9-3.3-7.5-6.3-10.3-4.3-4.1-10-6.3-16.1-6.3-.5 0-1.1 0-1.6.1l-337.8 21.2h-.4c-.2 0-.3.1-.5.1-10.7 1.1-19.7 10.5-20.5 21.3v337.8c.2 7.5 3.2 14.4 8.5 19.4 4.8 4.5 10.9 7 17.5 7.4h1.1L462.2 471h.6c10-2 18.1-11 18.8-21.2m-331.1 4.4c-11.6.8-21.8-3.1-21.5-18.3V200.2c0-8.1 6.7-13.3 14-13.6L436.9 169c7.3-.4 13.3 4.9 13.3 12.3v236.2c0 8.6-2.2 19.8-17 20.3zm67.9-194.6c-13.6.8-18.3 11.3-18.3 27.3v2.8c-1.6.4-3 .7-4.6.8-9.8.6-16.9-7.4-16.9-21.7 0-21.9 19.6-42.5 57-44.8 33.3-2.1 54.6 14 54.6 42.4 0 21.3-17.7 36.5-35.2 41.2 32.7 1.6 46.4 19.9 46.4 43.2 0 39.9-29.1 62.5-74.2 65.3l-1.1.1c-33.8 2.1-57.6-10.7-57.6-32.9 0-12.6 9.3-23.3 23.2-24.2 1.1-.1 2.2.2 3.3.1 2.8 22.6 18.1 30.9 33.3 30 14.7-.9 25.1-10.8 25.1-24.9v-.6c0-21.9-18.3-23-45.9-24.1l-4.4-26.1c25.6-4.7 38.5-13.1 38.4-28.2.1-16.4-8.9-26.5-23.1-25.7m123.1-10.8c-27.3 7.9-33.3-4.1-30.3-16.7 16.4-3.8 58.9-16.6 75-22.4l.2 168.2 29.8 4.3c0 10.9-6.2 17.8-17.4 18.5-9.3.6-30.8 1.4-41.2 2-16.1 1-45.6 3.4-45.6 3.4-.8-2.2-1.1-4.4-1.1-6.4 0-5.3 2.2-10.8 9.3-13.2l21.6-7z"/></svg>