<svg xmlns="http://www.w3.org/2000/svg" xml:space="preserve" viewBox="0 0 512 512"><path d="M18.6 184.7c-19.2 7.6-25.8 27.3-9 44.1l80.9 78.1c1.1 1 1.8 2.2 2.1 3.7l29.1 165c3.3 18.9 27.5 24.9 39.3 9.7l48-61.7c1.6-2 4.6-2.3 6.5-.6l69.7 58.5c19.8 19.8 42.6 19.8 53.3-6L508.9 68.9c12.2-29.5-12.2-67-62.5-47"/><path d="M128.6 286.5c94.2-55.6 170-119.2 255.9-171.9 7.7-4.7 14.4 4.6 7.7 10.6-19.4 17.7-38.8 35.4-43.5 39.9-10 9.5-124.5 105-124.5 105L164.9 319c12.2 18.3 118.6 119.6 143.3 129.1 62.9-136 120-262 165.9-383.4 3.5-9.3-5.7-18.3-15-14.6L178.2 163.6 46.2 215z" style="fill:#fff"/></svg>