<svg xmlns="http://www.w3.org/2000/svg" xml:space="preserve" viewBox="0 0 512 512"><path d="M110.7 450c3.9 35.8 34.3 63.1 70.1 61.6 35.8-.8 65.5-29.6 67-65.5V34.6C247 15.2 230.7.4 212 .4s-35.1 14.8-35.8 34.3c0 9.4 3.9 17.9 10.9 24.2 3.1 3.1 3.9 9.4 0 12.5-1.6 1.6-3.9 3.1-6.2 3.1s-4.7-.8-6.2-2.3c-10.1-9.4-16.4-22.6-16.4-36.6V34c-3.9-.8-7.8-.8-11.7-.8-41.3-.8-75.6 32-76.4 72.5 0 3.1 0 7 .8 10.1 10.1 0 20.3 2.3 28.8 7.8 3.9 2.3 5.5 7.8 3.1 11.7-2.3 3.9-7.8 5.5-12.5 3.1-10.9-6.2-24.2-7-35.1-2.3-8.6 3.9-15.6 10.9-18.7 20.3-3.1 8.6-2.3 17.9 1.6 25.7 4.7 8.6 12.5 15.6 21.8 17.9 3.9 1.6 7 5.5 6.2 9.4-.8 4.7-4.7 7.8-8.6 7.8h-2.3c-5.5-1.6-10.1-3.9-14.8-7C16.4 220.9.8 245.1 0 271.6c.8 38.2 32.7 68.6 71.7 67.8 2.3 0 4.7.8 6.2 2.3 1.6 1.6 2.3 3.9 2.3 6.2s-.8 4.7-2.3 6.2c-1.6 1.6-3.9 2.3-6.2 2.3-7.8 0-16.4-1.6-24.2-3.9-9.4 9.4-14.8 21.8-14.8 35.1.8 28.1 24.2 49.9 52.2 49.9 4.7 0 9.4-.8 14-1.6 12.5-3.1 23.4-10.9 30.4-21.8 1.6-2.3 3.1-3.1 5.5-3.9 2.3-.8 4.7 0 7 1.6s3.1 3.1 3.9 5.5c.8 2.3 0 4.7-1.6 7-8.5 11.7-20.2 20.3-33.4 25.7m4.6-275.1c.8-4.7 5.5-7.8 10.9-7 12.5 3.1 25.7-2.3 33.5-13.2 2.3-3.1 3.9-6.2 4.7-9.4 2.3-9.4 0-18.7-6.2-25.7-1.6-2.3-3.9-3.9-6.2-5.5s-3.1-3.1-3.9-5.5c-.8-2.3 0-4.7 1.6-7 3.1-3.9 8.6-4.7 12.5-2.3 3.9 2.3 7 5.5 9.4 8.6 9.4 10.9 13.2 26.5 10.1 40.5-1.6 5.5-3.9 10.9-7 15.6-.8 1.6-2.3 2.3-3.1 3.9.8 14 10.9 26.5 24.9 28.8 4.7.8 7.8 4.7 7 9.4s-3.9 7.8-8.6 7.8h-1.6c-17.9-3.1-32.7-16.4-37.4-33.5-7 3.1-14 4.7-21.8 4.7-3.9 0-7 0-10.9-1.6-2.3-.8-3.9-1.6-5.5-3.9-2.4 0-3.1-2.3-2.4-4.7M81 294.9c-3.1 0-6.2 0-9.4-.8-4.7-.8-7.8-5.5-7-10.9.8-4.7 5.5-7.8 10.9-7 9.4 2.3 18.7-1.6 24.2-9.4 1.6-2.3 2.3-3.9 3.1-7 1.6-6.2 0-13.2-4.7-18.7-1.6-1.6-3.1-3.1-4.7-3.9-3.9-3.1-4.7-8.6-2.3-12.5 3.1-3.9 7.8-4.7 12.5-2.3 3.1 2.3 5.5 4.7 7.8 7 7.8 9.4 10.9 21.8 7.8 33.5-.8 4.7-3.1 9.4-5.5 13.2-6.9 12.6-19.4 18.8-32.7 18.8m45.2 68.6c-1.6 1.6-3.1 3.1-5.5 3.9-2.3 0-4.7 0-6.2-1.6-3.9-3.1-4.7-8.6-2.3-12.5 11.7-16.4 32-24.2 52.2-20.3.8 0 .8 0 1.6.8 0-11.7 4.7-23.4 13.2-32 1.6-1.6 3.9-2.3 6.2-3.1 2.3 0 4.7.8 6.2 2.3 1.6 1.6 2.3 3.9 2.3 6.2s-.8 4.7-2.3 6.2c-7 7-10.1 17.9-7.8 28.1 4.7 3.9 9.4 7.8 12.5 13.2 7 10.9 9.4 23.4 7 35.8-.8 3.9-4.7 7-8.6 7h-1.6c-4.7-.8-7.8-5.5-7-10.1 1.6-7.8 0-16.4-3.9-22.6-4.7-7-12.5-12.5-21-14-13.9-3.7-27.2 1.8-35 12.7m314.9-24.1c38.2.8 70.1-29.6 70.9-67.8 0-26.5-15.6-50.7-39.7-61.6-4.7 3.1-9.4 5.5-14.8 7h-2.3c-3.9 0-7.8-2.3-8.6-6.2-1.6-4.7 1.6-9.4 6.2-10.9 9.4-2.3 17.1-9.4 21.8-17.9 3.9-7.8 4.7-17.1 1.6-25.7S466 139.9 457.4 136c-11.7-5.5-24.9-4.7-35.1 2.3-2.3 1.6-4.7 1.6-7 .8s-3.9-2.3-5.5-3.9c-1.6-2.3-1.6-4.7-.8-6.2.8-1.6 1.6-3.9 3.9-5.5 8.6-5.5 18.7-7.8 28.8-7.8.8-3.1.8-7 .8-10.1-.8-41.3-35.1-74-76.4-72.5-3.9 0-7.8 0-11.7.8v1.6c0 14-5.5 27.3-15.6 36.6-1.6 1.6-3.9 2.3-6.2 2.3s-4.7-.8-6.2-3.1c-3.1-3.9-3.1-9.4 0-12.5 7-6.2 10.1-14.8 10.1-24.2C335.7 15.1 319.4.3 300.7.3c-19.5 0-35.1 14.8-35.8 34.3v411.5c1.6 35.8 30.4 64.7 66.2 65.5s66.2-25.7 70.1-61.6c-13.2-5.5-24.9-14-33.5-26.5-2.3-3.9-1.6-9.4 2.3-12.5 1.6-1.6 4.7-1.6 6.2-1.6 2.3.8 4.7 1.6 5.5 3.9 7 10.9 17.9 18.7 29.6 21.8 4.7 1.6 9.4 2.3 14.8 1.6 28.1.8 51.4-21.8 52.2-49.9 0-13.2-5.5-25.7-15.6-35.1-7.8 2.3-15.6 3.9-24.2 3.9-2.3 0-4.7-.8-6.2-2.3-1.6-1.6-2.3-3.9-2.3-6.2s.8-4.7 2.3-6.2c4.1-.8 6.4-1.5 8.8-1.5M317.2 198.3c14-2.3 24.9-14.8 24.9-28.8l-3.9-3.9c-11.7-17.1-10.9-40.5 3.1-56.1 3.1-3.1 6.2-6.2 9.4-8.6 1.6-1.6 3.9-1.6 6.2-1.6 2.3.8 4.7 1.6 5.5 3.9 1.6 1.6 1.6 4.7 1.6 7-.8 2.3-1.6 4.7-3.9 5.5-2.3 1.6-4.7 3.1-6.2 5.5-6.2 7-8.6 16.4-6.2 25.7.8 3.1 2.3 6.2 3.9 9.4 7.8 10.9 21 16.4 33.5 13.2 4.7-.8 9.4 1.6 10.9 7 .8 2.3 0 4.7-1.6 7-1.6 1.6-3.1 3.1-5.5 3.9-3.9.8-7 1.6-10.9 1.6-7.8 0-14.8-1.6-21.8-5.5-4.7 17.1-19.5 30.4-37.4 34.3h-1.6c-3.9 0-7.8-3.1-8.6-7 .8-7 3.9-11.7 8.6-12.5M399 365.8c-1.6 1.6-3.9 1.6-6.2 1.6-2.3-.8-4.7-1.6-5.5-3.9-7.8-10.9-21-15.6-34.3-13.2-8.6 1.6-16.4 7-21 14-4.7 7-6.2 14.8-4.7 22.6.8 2.3 0 4.7-1.6 6.2-1.6 2.3-3.1 3.1-5.5 3.9h-1.6c-3.9 0-7.8-3.1-8.6-7-2.3-12.5 0-25.7 7-35.8 3.1-4.7 7.8-9.4 12.5-13.2 2.3-10.1-.8-20.3-7.8-28.1-1.6-1.6-2.3-3.9-2.3-6.2s.8-4.7 2.3-6.2c1.6-1.6 3.9-2.3 6.2-2.3s4.7.8 6.2 3.1c7.8 8.6 13.2 20.3 13.2 32 .8 0 .8 0 1.6-.8 19.5-3.9 39.7 3.9 51.4 20.3 1.6 1.6 1.6 3.9 1.6 7 .2 2.2-.6 4.5-2.9 6m-.8-88.8c-3.1-3.9-4.7-7.8-5.5-12.5-3.1-11.7 0-24.9 7.8-33.5 2.3-2.3 4.7-5.5 7.8-7 3.9-2.3 9.4-1.6 12.5 2.3 1.6 1.6 1.6 3.9 1.6 6.2-.8 2.3-1.6 4.7-3.9 5.5-1.6 1.6-3.1 2.3-4.7 3.9-4.7 4.7-6.2 11.7-4.7 17.9.8 2.3 1.6 4.7 3.1 7 5.5 7.8 14.8 11.7 24.2 9.4 2.3-.8 4.7 0 7 1.6 1.6 1.6 3.1 3.1 3.9 5.5.8 4.7-1.6 9.4-6.2 10.9-3.1.8-6.2.8-9.4.8-13.2-.1-25.7-6.3-33.5-18" style="fill:#4b77bb"/></svg>