<svg xmlns="http://www.w3.org/2000/svg" xml:space="preserve" viewBox="0 0 512 512"><path d="M394.2 205.2c0 13.8-16.7 20.6-26.3 10.7L170.8 14.5C197.5 5.1 226.1 0 256 0c50.9 0 98.4 14.9 138.2 40.5zm71.7-95.8v95.8c0 78-94.7 116.6-149.3 60.9L104.7 49.5C41.2 96 0 171.2 0 256c0 54.5 17 105 46.1 146.6v-95.3c0-78 94.7-116.6 149.3-60.9L407 462.8C470.7 416.2 512 341 512 256c0-54.5-17-105-46.1-146.6M144.1 296.6l196.7 201.1c-26.5 9.3-55.1 14.4-84.8 14.4-50.9 0-98.4-14.9-138.2-40.5V307.3c0-13.8 16.7-20.6 26.3-10.7" style="fill-rule:evenodd;clip-rule:evenodd;fill:#fff"/></svg>