<svg xmlns="http://www.w3.org/2000/svg" xml:space="preserve" viewBox="0 0 512 512"><path d="M256 389.8V512c-91.4-.1-175.8-48.9-221.5-128.1C12 345 .1 300.9 0 256c.1-44.9 12-89 34.6-127.9L140.1 189c-11.4 19.7-17.9 42.6-17.9 66.9.1 14.3 2.4 28.6 7 42.2l-26.9 46.6h53.8c25.3 28.7 61.7 45.1 99.9 45.1M140.1 189.1c23.1-40 66.4-66.9 115.9-66.9V0C164.6.1 80.2 49 34.6 128.1zm337.3-60.9C431.8 49 347.4.1 256 0v122.2c73.9 0 133.8 59.9 133.8 133.8 0 24.4-6.5 47.2-17.9 66.9l105.6 61C500 345 511.9 300.9 512 256c-.1-44.9-12-89-34.6-127.8M371.9 322.9c-23.1 40-66.4 66.9-115.9 66.9V512c91.4-.1 175.8-48.9 221.5-128.1z" style="fill:#fff"/></svg>