<svg xmlns="http://www.w3.org/2000/svg" xml:space="preserve" viewBox="0 0 512 512"><path d="M477.4 128.2 256 256l221.5 127.9C500 345 511.9 300.9 512 256c-.1-44.9-12-89-34.6-127.8" style="fill:#393939"/><path d="M477.5 383.9 256 256v256c91.4-.1 175.8-48.9 221.5-128.1" style="fill:#3267ce"/><path d="M256 256 34.5 383.9C80.2 463.1 164.6 511.9 256 512z" style="fill:#81acec"/><path d="M256 256 34.6 128.1C12 167 .1 211.1 0 256c.1 44.9 12 89 34.5 127.9z" style="fill:#fd3200"/><path d="m256 256 221.4-127.8C431.8 49 347.4.1 256 0z" style="fill:#171717"/><path d="M34.6 128.1 256 256V0C164.6.1 80.2 49 34.6 128.1" style="fill:#d11500"/><path d="M256 122.2c-73.9 0-133.8 59.9-133.8 133.8.1 14.3 2.4 28.6 7 42.2l-26.9 46.6h53.8c25.4 28.6 61.7 45 99.9 45 73.9 0 133.8-59.9 133.8-133.8S329.9 122.2 256 122.2" style="fill:#fff"/></svg>