<svg xmlns="http://www.w3.org/2000/svg" xml:space="preserve" viewBox="0 0 512 512"><path d="M250.7 286.5c-4.9.1-9.6-1.6-13.3-4.7v-47.3c3.4-3.7 8.3-5.8 13.3-5.9 9.7 0 16.6 2.2 20.9 6.5 4.2 4.3 6.3 11.9 6.3 22.5 0 10-2.2 17.3-6.3 21.9-4.3 4.7-11.2 7-20.9 7m-75.2-109.7h163v158.4h-163zm40.8 149.7h21v-26.2c5.7 2.7 11.9 4 18.1 3.9 13.7 0 24.7-4 32.7-12s12-19.3 12-34.1c0-31.7-14.4-47.6-43.2-47.6-7.2-.2-14.3 2.5-19.4 7.5v-6h-21.1v114.5zM512 176.8v158.4H351.9V176.8zm-46.3 37.3c-3.8-2.2-9.3-3.3-16.4-3.3-9.8 0-17.6 3.4-23.5 10.1v-8.7h-21.1v90.3h21.1v-51.3c-.2-5.9 1.9-11.7 5.7-16.2 3.7-4.4 8.1-6.6 12.9-6.6 4.3-.1 8.6 1.1 12.3 3.5zM0 176.8h162.2v158.4H0zm41.4 125.8h21v-65.1c2.2-2.8 5.1-5.1 8.3-6.5 3.1-1.6 6.4-2.5 9.9-2.6 6.7 0 11.5 1.7 14.5 5.3s4.4 9.2 4.4 16.8v52l21.2.1v-55.4c0-11.5-3.1-20.5-9.3-26.9s-14.7-9.6-25.4-9.6c-11.3 0-19.7 3.3-25.4 9.9l-3.9-8.5H41.4z"/></svg>