<svg xmlns="http://www.w3.org/2000/svg" xml:space="preserve" viewBox="0 0 512 512"><path d="M24.5 336.8c-4.2-4.2-4.2-10.9 0-15.1l60.3-60.3c1.6-1.6 3.7-2.7 6-3l102-14.6L62.1 374.5zm113 113.1 37.7 37.7c4.2 4.2 10.9 4.2 15.1 0l60.3-60.3c1.6-1.6 2.7-3.7 3-6l14.6-102zm316.4-316.4c15.6-15.6 33.1-40.8 44.7-64.4 15.2-30.8 17.4-51.8 6.8-62.5-10.7-10.7-31.7-8.4-62.5 6.8-23.5 11.6-48.8 29.1-64.4 44.7z" style="opacity:.6"/><path d="M255.1 128.4c-.9-3.6.2-7.4 2.8-10l43.6-43.6c2.7-2.7 6.7-3.8 10.5-2.7l40.8 11.7-61.9 61.9-28.9-9.6c-1.6-.5-3-1.4-4.2-2.6-1.3-1.4-2.3-3.2-2.7-5.1m173.1 30.8-61.9 61.9 9.6 28.9c.5 1.6 1.4 3 2.6 4.2 1.4 1.4 3.2 2.4 5.1 2.8 3.6.8 7.4-.2 10-2.8l43.6-43.6c2.7-2.7 3.8-6.8 2.7-10.5z" style="opacity:.8"/><path d="m40.8 486.3-15.1-15.1 15.1-15.1 15.1 15.1z" style="opacity:.4"/><path d="M505.4 6.6C501 2.3 495 .1 487.3 0c7.7.1 13.7 2.3 18.1 6.6 10.7 10.7 8.4 31.7-6.8 62.5-11.6 23.5-29.2 48.8-44.7 64.4l-75.4-75.4L10.7 426 86 501.3l-7.5 7.5c-2.1 2.1-4.8 3.1-7.5 3.1 2.7 0 5.5-1 7.5-3.1l375.4-375.4c15.6-15.6 33.1-40.8 44.7-64.4 15.2-30.7 17.5-51.7 6.8-62.4M235.5 291.5 114.9 412.2c-4.2 4.2-10.9 4.2-15.1 0s-4.2-10.9 0-15.1l120.6-120.6c4.2-4.2 10.9-4.2 15.1 0 4.2 4.1 4.2 10.9 0 15m158.1-158-60.3 60.3c-4.2 4.2-10.9 4.2-15.1 0s-4.2-10.9 0-15.1l60.3-60.3c4.2-4.2 10.9-4.2 15.1 0s4.2 10.9 0 15.1"/><path d="m10.7 425.9-7.5 7.5c-2 2-3.1 4.7-3.1 7.5s1.1 5.5 3.1 7.5L25.8 471l15.1-15.1L56 471l-15.1 15.1 22.6 22.6c4.2 4.2 10.9 4.2 15.1 0l7.5-7.5z" style="opacity:.3"/></svg>