<svg xmlns="http://www.w3.org/2000/svg" xml:space="preserve" viewBox="0 0 512 512"><path d="M207.4 249.1c-2-4.1-6.5-6.4-11-5.8L90.8 258.4c-2.3.3-4.4 1.4-6 3l-60.3 60.3c-4.2 4.2-4.2 10.9 0 15.1L69.7 382c4.2 4.2 10.9 4.2 15.1 0l120.6-120.6c3.2-3.3 4-8.2 2-12.3m46.2 172.1 15.1-105.5c.7-4.5-1.7-9-5.8-11-4.1-2.1-9.1-1.2-12.3 2L130 427.2c-4.2 4.2-4.2 10.9 0 15.1l45.2 45.2c4.2 4.2 10.9 4.2 15.1 0l60.3-60.3c1.6-1.6 2.7-3.7 3-6" style="fill:#da4453"/><path d="M366.2 93.1c-.9-3.7-3.7-6.5-7.4-7.6L312 72.1c-3.7-1.1-7.7 0-10.5 2.7l-43.6 43.6c-2.6 2.6-3.7 6.4-2.8 10 .4 1.9 1.4 3.7 2.8 5.1 1.2 1.2 2.6 2.1 4.2 2.6l45.2 15.1c3.8 1.3 8.1.3 10.9-2.6l45.2-45.2c2.7-2.7 3.8-6.6 2.8-10.3M439.9 200l-13.4-46.9c-1-3.6-3.9-6.4-7.6-7.4-3.7-.9-7.5.1-10.2 2.8l-45.2 45.2c-2.9 2.9-3.8 7.1-2.6 10.9l15.1 45.2c.5 1.6 1.4 3 2.6 4.2 1.4 1.4 3.2 2.4 5.1 2.8 3.6.8 7.4-.2 10-2.8l43.6-43.6c2.6-2.6 3.7-6.6 2.6-10.4" style="fill:#434a54"/><path d="M498.6 69.1c15.2-30.8 17.4-51.8 6.8-62.5-10.7-10.7-31.7-8.4-62.5 6.8-23.5 11.6-48.8 29.1-64.4 44.7L3.1 433.5c-2 2-3.1 4.7-3.1 7.5s1.1 5.5 3.1 7.5l60.3 60.3c4.2 4.2 10.9 4.2 15.1 0l375.4-375.4c15.6-15.5 33.1-40.8 44.7-64.3" style="fill:#e6e9ed"/><path d="m78.5 508.9 7.5-7.5L10.6 426l-7.5 7.5c-2 2-3.1 4.7-3.1 7.5s1.1 5.5 3.1 7.5l60.3 60.3c4.2 4.2 10.9 4.2 15.1.1" style="fill:#ffce54"/><path d="m40.8 486.3-15.1-15.1 15.1-15.1 15.1 15.1z" style="fill:#f6bb42"/><path d="M453.9 133.5c15.6-15.6 33.1-40.8 44.7-64.4 15.2-30.8 17.4-51.8 6.8-62.5-10.7-10.7-31.7-8.4-62.5 6.8-23.5 11.6-48.8 29.1-64.4 44.7zM99.8 412.2c-4.2-4.2-4.2-10.9 0-15.1l120.6-120.6c4.2-4.2 10.9-4.2 15.1 0s4.2 10.9 0 15.1L114.9 412.2c-4.2 4.1-10.9 4.1-15.1 0" style="fill:#ed5564"/><path d="M393.6 118.4c-4.2-4.2-10.9-4.2-15.1 0l-60.3 60.3c-4.2 4.2-4.2 10.9 0 15.1s10.9 4.2 15.1 0l60.3-60.3c4.2-4.2 4.2-10.9 0-15.1" style="fill:#656d78"/><path d="M498.6 69.1c15.2-30.8 17.4-51.8 6.8-62.5-1.3-1.3-2.7-2.4-4.3-3.3 6.7 11.6 3.3 31.1-10 58.2-11.6 23.5-29.2 48.8-44.7 64.4L71 501.3c-4.2 4.2-10.9 4.2-15.1 0l-30.2-30.2-22.6-22.5 60.3 60.3c4.2 4.2 10.9 4.2 15.1 0l375.4-375.4c15.6-15.6 33.1-40.9 44.7-64.4" style="opacity:.2;fill:#fff"/></svg>