<svg xmlns="http://www.w3.org/2000/svg" xml:space="preserve" viewBox="0 0 512 512"><path d="M260 219c15.9-23.7 31.7-47.3 47.5-70.8 4.8-7.2 10.9-8.5 17.9-3.5 5.3 3.8 10.6 7.7 15.8 11.6 6.5 4.8 7.6 10.6 2.7 17.2-13.8 18.6-27.8 37.1-41.7 55.6-10.7 14.2-21.4 28.4-32.1 42.5-4 5.3-8.7 9.6-15.7 10.1-7.4.5-13.2-2.4-17.1-8.7-4.1-6.6-4.1-13.6-.1-20.1 5.6-9 11.7-17.6 17.7-26.4 1.6-2.5 3.3-4.9 5.1-7.5m-54.5 72.1c16.1-6.2 31.9 1 36.3 16.6 4.1 14.5-4.8 29.3-19.7 32.6-14.2 3.2-28.8-6.6-31.3-21-2-11.7 3.5-22.4 14.7-28.2m19.8 27.5c1.6-4.7.6-8.7-2.9-11.4-3-2.3-7.3-2.7-10.5-.8-3.5 2.1-5.5 6.4-4.7 10.4.7 3.7 3.8 6.6 7.9 7.4 3.9.7 7.4-1 10.2-5.6" style="fill:#fb920a"/><path d="M495.9 284.6c0-64.9.1-129.4 0-194 0-24.5-14.5-44.6-37-50.6-5.6-1.5-11.7-1.8-17.6-1.9q-126.45-.15-252.9 0H67.7c-25.6 0-45.7 16.5-50.6 41.6-.7 3.7-1 7.6-1 11.5 0 78.7.1 157.4.1 236.1 0 5.3-2.2 8.5-6.5 9.1-5.5.9-9.7-2.8-9.7-8.6v-61.1c0-58.2.1-116.4 0-174.6 0-11.2 1.6-22 6.6-32 12.3-24.7 32.5-37.9 60-38 81-.4 162-.1 242.9-.1 45.1 0 90.2-.1 135.3 0 34.9 0 63.4 26 66.5 60.8.5 5.8.5 11.6.5 17.4v319c0 14.7-3.1 28.5-11.4 40.7-13.7 20-33 29.9-57.1 30-43.6.2-87.1.1-130.7.1-81.4 0-162.8.1-244.2 0-21.4 0-39.3-7.9-53.1-24.3C5.1 453.6.3 439.2 0 423.5c-.1-17.5 0-35.1 0-52.6 0-5.2 3.5-8.9 8.1-8.8 4.7.1 8.1 3.7 8.1 8.8 0 17-.2 34.1 0 51.1.2 22.5 13.4 41.6 33.6 48.9 7 2.5 14.4 3.1 21.8 3.1 68 0 136 .1 203.9.1h167.1c12.2 0 23.4-3.3 33.1-10.9 13.3-10.3 19.9-24.1 19.9-40.7.4-45.9.3-91.7.3-137.9M176.1 140.8c16.2-14.7 33.6-27.1 53.2-36.3 28.9-13.5 58.8-16 89.6-8.1 1.6.4 3.5.3 5.1.1 8.7-1.3 17.4-3.2 26.1-4.2 14.6-1.6 27.1 6.8 30.8 21.1 2.4 9.1 3.6 18.5 5.1 27.8.4 2.8 1.1 5.3 2.8 7.7 16.4 22.5 22.4 48 21.3 75.5-1.3 31.2-10.5 60.1-24.6 87.7-11.6 22.8-26.2 43.6-44.4 61.7-18.7 18.6-40.3 31.8-66.4 37.1-13.1 2.6-26.2 2.9-39.4 1.9-6-.4-12-1.1-18-1.6-15.5-1.3-30.2 1.5-44.1 8.5-4.9 2.5-10.1 3.7-15.7 2.9-8.1-1.2-14.7-7.5-16-15.7-.4-2.8-.8-5.6-.5-8.4 2.2-20.1-4.1-37.7-15-54.3-10.2-15.6-17.2-32.6-20.2-51.2-4-25.2 0-49.2 10.4-72.3 14.1-30.9 35-56.8 59.9-79.9m44.4 219.3c11.4 2.9 22.8 3.1 34.3.9 19.8-3.8 36-14.1 50.1-27.9 22.7-22.3 38.7-48.9 49.5-78.7 13.6-37.7 18.2-76.6 14-116.5-.7-6.9-2.4-13.7-4.3-20.3-1.8-6.1-6-8.4-12.4-8.3-1.6 0-3.1 0-4.7.4-11.2 2.5-22.7 4.3-33.6 7.7-42.5 13-79 35.9-109.4 68.4-16 17.1-29.2 36.2-37.9 58.1-8 20.3-10.6 41.2-3.7 62.2 9.5 28 29.5 45.4 58.1 54m-57-149.8c29.6-46.5 70.7-79.2 121.7-101.4h-3.9c-22.1.8-42.2 7.8-60.6 19.5-35.7 22.7-63.7 52.8-83.9 89.9-8.4 15.3-14 31.7-15.1 49.4-1.3 21.3 4 40.9 14.4 59.3 4.2 7.4 8.8 14.6 12.7 22.1 8.2 16 10.6 33.3 9.6 51.1-.3 5.4 1.6 6.5 6.5 4.6 7.7-3 15.4-6.3 23.3-8.5 13.3-3.8 27-2.4 40.5-1s26.9 1.9 40.4-.7c25-4.8 45.5-17.6 62.8-35.8 23.9-25.2 41.1-54.4 52.1-87.2 8.7-25.8 12.1-52.1 6.4-79.1-.8-3.9-2.1-7.7-3.2-11.6-.3.1-.6.1-.9.2-.1 16-2.9 31.6-6.2 47.1-5.6 26.1-15.2 50.6-28.9 73.5-13.1 22.1-28.9 41.9-50 57-23.3 16.8-49.1 24.4-77.8 19.5-46.8-8.1-91.9-51.9-80.2-117.3 3.2-18.1 10.9-34.5 20.3-50.6m-33.9-97.7c-6.2-8-12.3-15.7-18.2-23.6-1.4-1.9-2.4-4.4-2.5-6.8-.2-3.7 2.1-6.4 5.5-7.4 3.5-1.1 6.6-.2 9 2.6 2.5 2.9 4.6 6.1 7 9.1 6.6 8.5 13.3 17 20 25.4 1.9 2.4 3.3 4.8 2.8 7.9-.5 3.4-2.5 5.7-5.8 6.6-3.4.9-6.5.2-8.8-2.5-3.1-3.5-5.9-7.3-9-11.3m-37.4 43.1c-5.2-1.2-8-5-7.2-9.5.9-4.8 4.8-7.4 9.9-6.7 9.1 1.2 18.1 2.2 27.2 3.4 5.5.7 8.7 4.6 8 9.4s-4.7 7.4-10.1 6.7c-9.2-1-18.4-2.1-27.8-3.3m83-75.7c.2-1.9.3-3.6.6-5.2.8-4.3 4.9-7.2 9.1-6.7s7.4 4.1 7.1 8.4c-.7 8.8-1.6 17.5-2.7 26.3-.6 4.5-4.9 7.5-9.2 6.8-4.7-.7-7.7-4.5-7.2-9.3.7-6.6 1.5-13.3 2.3-20.3m.4 169.5c7.2-19 18.5-35.2 31.8-50.1 2.3-2.6 4.6-5.1 6.9-7.6 4.2-4.5 9.3-5.1 13.1-1.5 3.9 3.6 3.6 9-.7 13.4-11.6 12.1-22 25.2-29.7 40.2-5.8 11.3-9.8 23.1-10.4 35.8-.3 5.6-3.7 9-8.7 8.9-4.8-.1-8.2-4.1-8-9.6.4-9.4 1.9-18.6 5-27.5.2-.6.4-1.2.7-2m62.2-65.3c-3.7-2.9-4.7-6.3-3.4-10.3 1.6-4.7 7.6-9.1 12.3-9.1 3.5.1 6.5 2.1 7.7 5.3 1.2 3.4 1.1 6.6-1.7 9.2-1.5 1.4-3.1 2.8-4.8 4-3.1 2.3-6.4 2.8-10.1.9" style="fill:#070707"/></svg>