<svg xmlns="http://www.w3.org/2000/svg" xml:space="preserve" id="nutritrace_svg__Layer_1" x="0" y="0" style="enable-background:new 0 0 512 512" version="1.1" viewBox="0 0 512 512"><style>.nutritrace_svg__st9{filter:url(#nutritrace_svg__glow)}</style><filter id="nutritrace_svg__glow" width="180%" height="180%" x="-40%" y="-40%"><feGaussianBlur result="blur" stdDeviation="10"/><feMerge><feMergeNode in="blur"/><feMergeNode in="SourceGraphic"/></feMerge></filter><filter id="nutritrace_svg__dotGlow" width="260%" height="260%" x="-80%" y="-80%"><feGaussianBlur result="blur" stdDeviation="14"/><feMerge><feMergeNode in="blur"/><feMergeNode in="SourceGraphic"/></feMerge></filter><linearGradient id="nutritrace_svg__SVGID_1_" x1="-701.627" x2="-700.627" y1="796.447" y2="795.447" gradientTransform="matrix(512 0 0 -512 359233 407781)" gradientUnits="userSpaceOnUse"><stop offset="0" style="stop-color:#141720"/><stop offset="1" style="stop-color:#0a0b0f"/></linearGradient><path d="M96 0h320c53 0 96 43 96 96v320c0 53-43 96-96 96H96c-53 0-96-43-96-96V96C0 43 43 0 96 0" style="fill:url(#nutritrace_svg__SVGID_1_)"/><ellipse cx="300" cy="250" rx="210" ry="170" style="opacity:2.500000e-02;fill:#4fffb0;enable-background:new"/><linearGradient id="nutritrace_svg__SVGID_00000126324793792889159040000015646653391535976372_" x1="-670.545" x2="-670.545" y1="794.602" y2="793.602" gradientTransform="matrix(22 0 0 -118 14881 93855)" gradientUnits="userSpaceOnUse"><stop offset="0" style="stop-color:#4fffb0"/><stop offset="1" style="stop-color:#00c87a"/></linearGradient><path d="M129 92c6.1 0 11 4.9 11 11v96c0 6.1-4.9 11-11 11s-11-4.9-11-11v-96c0-6.1 4.9-11 11-11" style="fill:url(#nutritrace_svg__SVGID_00000126324793792889159040000015646653391535976372_)"/><linearGradient id="nutritrace_svg__SVGID_00000114772857726039171790000017518680492701427890_" x1="-670.545" x2="-670.545" y1="794.602" y2="793.602" gradientTransform="matrix(22 0 0 -118 14924 93855)" gradientUnits="userSpaceOnUse"><stop offset="0" style="stop-color:#4fffb0"/><stop offset="1" style="stop-color:#00c87a"/></linearGradient><path d="M172 92c6.1 0 11 4.9 11 11v96c0 6.1-4.9 11-11 11s-11-4.9-11-11v-96c0-6.1 4.9-11 11-11" style="fill:url(#nutritrace_svg__SVGID_00000114772857726039171790000017518680492701427890_)"/><linearGradient id="nutritrace_svg__SVGID_00000127004212097664271040000004490245921595171209_" x1="-670.545" x2="-670.545" y1="794.602" y2="793.602" gradientTransform="matrix(22 0 0 -118 14967 93855)" gradientUnits="userSpaceOnUse"><stop offset="0" style="stop-color:#4fffb0"/><stop offset="1" style="stop-color:#00c87a"/></linearGradient><path d="M215 92c6.1 0 11 4.9 11 11v96c0 6.1-4.9 11-11 11s-11-4.9-11-11v-96c0-6.1 4.9-11 11-11" style="fill:url(#nutritrace_svg__SVGID_00000127004212097664271040000004490245921595171209_)"/><linearGradient id="nutritrace_svg__SVGID_00000003073825489632814970000001920836996453237923_" x1="-694.326" x2="-694.326" y1="791.089" y2="791.027" gradientTransform="matrix(86 0 0 -52 59884 41369)" gradientUnits="userSpaceOnUse"><stop offset="0" style="stop-color:#4fffb0"/><stop offset="1" style="stop-color:#00c87a"/></linearGradient><path d="M172 271c-1 0-2-.1-3-.4-17.7-4.9-51-24.3-51-62.6 0-6.1 4.9-11 11-11s11 4.9 11 11c0 25.9 23.5 37.2 32 40.4 8.5-3.2 32-14.5 32-40.4 0-6.1 4.9-11 11-11s11 4.9 11 11c0 38.2-33.4 57.7-51 62.6-1 .3-2 .4-3 .4" style="fill:url(#nutritrace_svg__SVGID_00000003073825489632814970000001920836996453237923_)"/><linearGradient id="nutritrace_svg__SVGID_00000116929936383613756060000007035006128257275301_" x1="-670.545" x2="-670.545" y1="795.295" y2="794.295" gradientTransform="matrix(22 0 0 -166 14924 132276)" gradientUnits="userSpaceOnUse"><stop offset="0" style="stop-color:#4fffb0"/><stop offset="1" style="stop-color:#00c87a"/></linearGradient><path d="M172 257c6.1 0 11 4.9 11 11v144c0 6.1-4.9 11-11 11s-11-4.9-11-11V268c0-6.1 4.9-11 11-11" style="fill:url(#nutritrace_svg__SVGID_00000116929936383613756060000007035006128257275301_)"/><linearGradient id="nutritrace_svg__SVGID_00000124841102875655830070000015668070904114361767_" x1="-699.688" x2="-699.688" y1="795.971" y2="794.971" gradientTransform="matrix(250 0 0 -275 175219 219040)" gradientUnits="userSpaceOnUse"><stop offset="0" style="stop-color:#4fffb0;stop-opacity:.1"/><stop offset="1" style="stop-color:#4fffb0;stop-opacity:0"/></linearGradient><path d="M172 423c52-21 130-105 250-275v275z" style="fill:url(#nutritrace_svg__SVGID_00000124841102875655830070000015668070904114361767_)"/><path d="M172 439c-6.3 0-12.3-3.8-14.8-10-3.3-8.2.7-17.5 8.8-20.8 49.7-20.1 129.1-108.2 242.9-269.4 5.1-7.2 15.1-8.9 22.3-3.8s8.9 15.1 3.8 22.3c-120.7 171-200 257.6-257.1 280.6-1.9.7-3.9 1.1-5.9 1.1" style="opacity:.15;fill:#4fffb0;enable-background:new"/><g class="nutritrace_svg__st9"><linearGradient id="nutritrace_svg__SVGID_00000183221478389810438190000004900440960484147875_" x1="-699.697" x2="-699.628" y1="795.411" y2="795.48" gradientTransform="matrix(250 0 0 -275 175219 219040)" gradientUnits="userSpaceOnUse"><stop offset="0" style="stop-color:#00c87a"/><stop offset="1" style="stop-color:#4fffb0"/></linearGradient><path d="M172 433c-4 0-7.7-2.4-9.3-6.3-2.1-5.1.4-10.9 5.5-13 24.8-10 57.1-36.6 95.9-79.1 41.1-45 90.1-108 149.7-192.4 3.2-4.5 9.4-5.6 13.9-2.4s5.6 9.4 2.4 13.9C370 238.8 320.5 302.4 278.8 348.1c-41.4 45.3-75.1 72.8-103.1 84.2-1.2.5-2.5.7-3.7.7" style="fill:url(#nutritrace_svg__SVGID_00000183221478389810438190000004900440960484147875_)"/></g><g style="opacity:.2;filter:url(#nutritrace_svg__dotGlow);enable-background:new"><circle cx="422" cy="148" r="32" style="fill:#4fffb0"/></g><g class="nutritrace_svg__st9"><linearGradient id="nutritrace_svg__SVGID_00000148639763608432400240000001396400055106598020_" x1="-683.472" x2="-682.472" y1="788.139" y2="789.139" gradientTransform="matrix(36 0 0 -36 25009 28539)" gradientUnits="userSpaceOnUse"><stop offset="0" style="stop-color:#00c87a"/><stop offset="1" style="stop-color:#4fffb0"/></linearGradient><circle cx="422" cy="148" r="18" style="fill:url(#nutritrace_svg__SVGID_00000148639763608432400240000001396400055106598020_)"/></g></svg>