<?xml version="1.0" encoding="utf-8"?>
<!-- Generator: Adobe Illustrator 28.2.0, SVG Export Plug-In . SVG Version: 6.00 Build 0)  -->
<svg version="1.1" id="Layer_1" xmlns="http://www.w3.org/2000/svg" xmlns:xlink="http://www.w3.org/1999/xlink" x="0px" y="0px"
	 viewBox="0 0 512 512" style="enable-background:new 0 0 512 512;" xml:space="preserve">
<style type="text/css">
	.st0{fill:#FFFFFF;}
	.st1{fill:#FB9B00;}
</style>
<g>
	<path class="st0" d="M496.8,9.3H7.9v488.9h488.9V9.3z"/>
	<path d="M108.8,186.9v-21.3h12.7V95.8h-12.7v-16l11.7-5.3h31v91.1h12.3v21.3H108.8z"/>
	<path d="M95,356.4c0.3-5.1,1.6-10.2,3.8-14.8c2.2-4.6,5.4-8.8,9.2-12.2c3.8-3.4,8.3-6.1,13.2-7.8c4.9-1.7,10-2.4,15.2-2.1
		c24.8,0,38.5,15.3,38.5,35.7c0,30.6-42.4,37.4-48.7,57.5h27.3v-11.8h22.5V434H94.4v-19.5c14.1-38,53.6-42.2,53.6-59.3
		c0-1.7-0.3-3.3-0.9-4.8c-0.7-1.5-1.6-2.9-2.8-4c-1.2-1.1-2.7-2-4.3-2.5c-1.6-0.5-3.2-0.7-4.9-0.5c-2.1,0.1-4.1,0.6-6,1.5
		c-1.9,0.9-3.6,2.1-5,3.7c-1.4,1.5-2.5,3.3-3.2,5.3c-0.7,2-1,4-0.9,6.1L95,356.4z"/>
	<path d="M338.2,408l25.7-7.9c1.3,7.5,5.1,13.2,13.5,13.2c1.7,0.1,3.5-0.1,5.1-0.8c1.6-0.6,3.1-1.6,4.3-2.9c1.2-1.3,2.2-2.8,2.7-4.4
		s0.8-3.4,0.6-5.2c0-9.9-7.1-14.9-18.6-14.9h-4v-17.4h4.2c11.8,0,17.1-5.3,17.1-14c0.1-1.6-0.1-3.1-0.7-4.6
		c-0.6-1.5-1.4-2.8-2.5-3.9c-1.1-1.1-2.4-2-3.9-2.5c-1.5-0.6-3-0.8-4.6-0.7c-6.8,0-11.2,4.8-12.5,13.3l-24.3-6.9
		c1.8-8.6,6.7-16.2,13.7-21.4c7-5.2,15.7-7.8,24.4-7.1c24.7,0,37.4,13.2,37.4,33.1c0.3,5.3-1.3,10.4-4.4,14.7
		c-3.1,4.2-7.6,7.3-12.7,8.6c5.8,1.2,11,4.4,14.5,9.2c3.6,4.7,5.2,10.6,4.7,16.5c0,20.2-14.3,34.8-41.1,34.8
		C355.2,436.4,342.1,425.5,338.2,408z"/>
	<path class="st1" d="M503.7,10.4H250.2V256h253.5V10.4z"/>
	<path d="M0,0v512h512V0H0z M487.8,244H268V24h219.8V244z M244,24v220H24V24H244z M24,268h220v219.8H24V268z M268,487.8V268h219.8
		v219.8H268z"/>
</g>
</svg>
