<?xml version="1.0" encoding="utf-8"?>
<!-- Generator: Adobe Illustrator 28.2.0, SVG Export Plug-In . SVG Version: 6.00 Build 0)  -->
<svg version="1.1" id="Layer_1" xmlns="http://www.w3.org/2000/svg" xmlns:xlink="http://www.w3.org/1999/xlink" x="0px" y="0px"
	 viewBox="0 0 512 512" style="enable-background:new 0 0 512 512;" xml:space="preserve">
<style type="text/css">
	.st0{fill:#B5DD35;}
	.st1{fill:#54E984;}
	.st2{fill:#FFFFFF;}
	.st3{fill:#47A590;}
</style>
<path class="st0" d="M255.5,217c-21.6,0-38.9,17.3-38.9,38.9c0,21.6,18.1,38.9,39.7,38.9c21.6,0,38.9-17.3,38.9-38.9
	C295.2,234.2,277.2,216.2,255.5,217z"/>
<path class="st1" d="M266.4,193.1c10.1-17.3,25.2-31,42.6-41.1l4.3,4.3L353,196l5.8,5.8c-9.5,17.3-23.9,31.7-40.5,42.5
	C313.3,218.3,293.1,197.4,266.4,193.1z M198.6,354l5,5c9.3-5.8,18-12.3,25.2-19.5c6.5-6.5,11.6-13.7,16.6-21.6
	c-26.7-4.3-47.6-25.2-51.9-51.2c-16.6,10.1-30.3,24.5-40.4,41.8l2.9,2.9L198.6,354z M197.1,158.5l-43.3,43.3l-0.7,0.7
	c10.1,17.3,23.8,31.7,40.4,41.8c5-26,25.2-46.2,51.2-50.5c-5-7.9-10.8-15.1-17.3-21.6c-7.2-7.2-15.9-13.7-24.5-19.5L197.1,158.5z
	 M322.7,345.4l21.6-21.6l14.4-14.4c-10.1-17.4-23.8-32.5-41.1-42.6c-4.3,26-24.5,46.2-50.5,51.2c5,7.9,10.8,15.1,17.3,21.6
	c7.9,7.2,16.6,12.9,26,18.1L322.7,345.4z"/>
<path class="st0" d="M285.2,384.2c-15.9,15.9-41.1,15.9-57,0l-6.5-6.5c9.3-5.7,17.2-12.9,25.2-20.1c3.6-3.6,6.5-7.2,9.4-10.8
	c2.9,3.6,6.5,7.2,10.1,10.8c7.2,7.2,15.9,13.7,24.5,19.5l0.7,0.7l-1.4,1.4L285.2,384.2z M221.6,134.7c8.7,5.1,16.6,11.6,23.8,18.8
	c3.6,3.6,7.2,7.2,10.1,10.8c2.9-3.6,6.5-7.2,10.1-10.2c7.2-7.9,15.8-14.4,24.5-20.2l-0.7-0.7l-5-5c-15.2-15.9-40.4-15.9-56.3,0
	L221.6,134.7z M128.6,227c-15.9,15.9-15.9,41.1,0,57l5.8,5.7c5.8-8.6,12.3-17.3,19.5-24.5c3.6-3.6,7.2-7.2,10.8-10.1
	c-3.6-3.6-7.2-6.5-10.8-10.1c-7.2-7.2-13.7-15.1-19.5-23.8L128.6,227z M384,284.1c15.9-15.9,15.9-41.1,0-57l-6.5-6.5
	c-7.9,13-18,24.5-30.3,34.6c3.6,3.6,7.2,6.5,10.8,10.1c7.9,7.9,14.4,15.8,20.2,25.2L384,284.1z"/>
<path class="st2" d="M334.8,369.2l34.6-34.6c2.9,10.8,5,22.4,5,33.9c0.1,0.6,0.1,2.8,0.1,5C361.5,374.2,347.8,372.8,334.8,369.2z
	 M137.2,138.3c0,1.5,0,3.6,0,5.8c0,11.5,2.1,23.8,5,35.3l36.1-36.1C164.6,139,150.9,137.6,137.2,138.3z M137.2,367.7
	c0,2.1,0,4.3,0,6.5c13.7,0.8,28.1-0.7,41.1-5l-36.1-36.1C138.6,344.6,137.2,356.2,137.2,367.7z M255.5,217
	c-21.6,0-38.9,17.3-38.9,38.9c0,21.6,18.1,38.9,39.7,38.9c21.6,0,38.9-17.3,38.9-38.9C295.2,234.2,277.2,216.2,255.5,217z
	 M374.5,136.9c-13.7-0.8-28.1,0.7-41.1,5l36.1,36.1C373.1,164.3,375.3,150.6,374.5,136.9z"/>
<path class="st3" d="M399.8,368.4c0-0.7,0-0.7,0-1.4c0-18.8-3.6-36.8-10.8-54.1l12.3-11.5c25.2-25.2,25.2-66.4,0-91.6l-11.5-11.5
	c7.2-18,10.8-37.5,10.8-57c62.8,18,99.5,83.7,80.8,146.4c-5.9,18.7-16,36-29.7,50.4C437.3,352.5,419.2,363.3,399.8,368.4z
	 M29.8,223.5c-17.3,63.4,18.7,129.1,81.5,147.1c0-1.5,0-2.2,0-2.9c0-18.8,4.3-37.5,10.1-54.1l-10.8-10.8
	c-25.2-25.2-25.2-66.4,0-91.6l11.5-11.5c-7.2-18-10.8-36.7-10.8-55.5V142C71.6,152.8,41.3,183.8,29.8,223.5z M339.2,451.4
	c15.1-14.5,25.2-32.5,30.3-52c-18.7,0.7-37.5-2.9-55.5-10.1l-12.3,12.3c-25.2,25.2-66.4,25.2-91.6,0l-11.5-11.5
	c-18.1,7.2-37.5,11.5-57,10.8c5.8,18.8,16.6,36.8,30.3,50.5C218,497.6,293,497.6,339.2,451.4z M339.9,59.7
	c-46.1-46.2-121.1-46.2-167.3,0c-14.4,14.4-25.3,32.5-30.4,52h2.2c18.7,0,37.5,3.6,54.8,10.8l12.3-12.3c25.3-25.2,65.7-25.2,90.9,0
	l10.8,10.8c18.1-7.2,37.5-10.8,57-10.8C364.4,91.4,354.3,73.4,339.9,59.7z"/>
<path d="M469,152.7c-19.5-19.5-44.7-33.2-72.1-38.9C380.3,35.9,303.9-13.9,226,3.4C169.7,15,126.4,59,114.9,115.2
	C37,131.1-12.8,208.3,3.1,286.2c11.5,56.3,55.5,99.5,111.1,111.1c16.6,77.9,93,127.7,170.9,111.8c56.3-11.5,100.3-56.3,111.8-112.5
	c77.9-16.6,128.4-92.3,111.8-170.9C503.7,197.5,489.2,172.2,469,152.7z M369.5,178l-36.1-36.1c13-4.3,27.4-5.8,41.1-5
	C375.3,150.6,373.1,164.3,369.5,178z M198.6,354L156,311.4l-2.9-2.9c10.1-17.3,23.8-31.7,40.4-41.8c4.3,26,25.2,46.9,51.9,51.2
	c-5,7.9-10.1,15.1-16.6,21.6c-7.2,7.2-15.9,13.7-25.2,19.5L198.6,354z M255.5,164.3c-2.9-3.6-6.5-7.2-10.1-10.8
	c-7.2-7.2-15.1-13.7-23.8-18.8l6.5-6.5c15.9-15.9,41.1-15.9,56.3,0l5,5l0.7,0.7c-8.7,5.8-17.3,12.3-24.5,20.2
	C262,157.1,258.4,160.7,255.5,164.3z M295.2,255.9c0,21.6-17.3,38.9-38.9,38.9s-39.7-17.3-39.7-38.9s17.3-38.9,38.9-38.9
	C277.2,216.2,295.2,234.2,295.2,255.9z M227.4,172.2c6.5,6.5,12.3,13.7,17.3,21.6c-26,4.3-46.2,24.5-51.2,50.5
	c-16.6-10.1-30.3-24.5-40.4-41.8l0.7-0.7l43.3-43.3l5.8-5.8C211.5,158.5,220.2,165,227.4,172.2z M246.9,357.6
	c3.6-3.6,6.5-7.2,9.4-10.8c2.9,3.6,6.5,7.2,10.1,10.8c7.2,7.2,15.9,13.7,24.5,19.5l0.7,0.7l-1.4,1.4l-5,5c-15.9,15.9-41.1,15.9-57,0
	l-6.5-6.5C231,372,238.9,364.8,246.9,357.6z M284.4,339.6c-6.5-6.5-12.3-13.7-17.3-21.6c26-5,46.2-25.2,50.5-51.2
	c17.3,10.1,31,25.2,41.1,42.6l-14.4,14.4l-21.6,21.6l-12.3,12.3C301,352.5,292.3,346.8,284.4,339.6z M318.3,244.3
	c-5-26-25.2-46.9-51.9-51.2c10.1-17.3,25.2-31,42.6-41.1l4.3,4.3L353,196l5.8,5.8C349.3,219.1,334.9,233.5,318.3,244.3z M172.6,59.7
	c46.2-46.2,121.2-46.2,167.3,0c14.4,13.7,24.5,31.7,30.3,50.5c-19.5,0-38.9,3.6-57,10.8l-10.8-10.8c-25.2-25.2-65.6-25.2-90.9,0
	l-12.3,12.3c-17.3-7.2-36.1-10.8-54.8-10.8h-2.2C147.3,92.2,158.2,74.1,172.6,59.7z M137.2,138.3c13.7-0.7,27.4,0.7,41.1,5
	l-36.1,36.1c-2.9-11.5-5-23.8-5-35.3C137.2,141.9,137.2,139.8,137.2,138.3z M111.3,367.7c0,0.7,0,1.4,0,2.9
	c-62.8-18-98.8-83.7-81.5-147.1c11.5-39.7,41.8-70.7,81.5-81.5v2.2c0,18.8,3.6,37.5,10.8,55.5l-11.5,11.5
	c-25.2,25.2-25.2,66.4,0,91.6l10.8,10.8C115.6,330.2,111.3,348.9,111.3,367.7z M128.6,284c-15.9-15.9-15.9-41.1,0-57l5.8-5.8
	c5.8,8.7,12.3,16.6,19.5,23.8c3.6,3.6,7.2,6.5,10.8,10.1c-3.6,2.9-7.2,6.5-10.8,10.1c-7.2,7.2-13.7,15.9-19.5,24.5L128.6,284z
	 M137.2,367.7c0-11.5,1.4-23.1,5-34.6l36.1,36.1c-13,4.3-27.4,5.8-41.1,5C137.2,372,137.2,369.8,137.2,367.7z M339.2,451.4
	c-46.2,46.2-121.2,46.2-167.3,0c-13.7-13.7-24.5-31.7-30.3-50.5c19.5,0.7,38.9-3.6,57-10.8l11.5,11.5c25.2,25.2,66.4,25.2,91.6,0
	l12.3-12.3c18,7.2,36.8,10.8,55.5,10.1C364.4,418.9,354.3,436.9,339.2,451.4z M374.5,373.5c-13,0.7-26.7-0.7-39.7-4.3l34.6-34.6
	c2.9,10.8,5,22.4,5,33.9C374.5,369.1,374.5,371.3,374.5,373.5z M378.2,290.5c-5.8-9.4-12.3-17.3-20.2-25.2
	c-3.6-3.6-7.2-6.5-10.8-10.1c12.3-10.1,22.4-21.6,30.3-34.6l6.5,6.5c15.9,15.9,15.9,41.1,0,57L378.2,290.5z M451.7,338.1
	c-14.4,14.4-32.5,25.2-51.9,30.3c0-0.7,0-0.7,0-1.4c0-18.8-3.6-36.8-10.8-54.1l12.3-11.5c25.2-25.2,25.2-66.4,0-91.6l-11.5-11.5
	c7.2-18,10.8-37.5,10.8-57c62.8,18,99.5,83.7,80.8,146.4C475.5,306.4,465.4,323.7,451.7,338.1z"/>
</svg>
