<svg xmlns="http://www.w3.org/2000/svg" xml:space="preserve" id="nyt-tiles_svg__Layer_1" x="0" y="0" version="1.1" viewBox="0 0 512 512"><style>.nyt-tiles_svg__st0{fill:#b5dd35}</style><path d="M255.5 217c-21.6 0-38.9 17.3-38.9 38.9s18.1 38.9 39.7 38.9 38.9-17.3 38.9-38.9c0-21.7-18-39.7-39.7-38.9" class="nyt-tiles_svg__st0"/><path d="M266.4 193.1c10.1-17.3 25.2-31 42.6-41.1l4.3 4.3L353 196l5.8 5.8c-9.5 17.3-23.9 31.7-40.5 42.5-5-26-25.2-46.9-51.9-51.2M198.6 354l5 5c9.3-5.8 18-12.3 25.2-19.5 6.5-6.5 11.6-13.7 16.6-21.6-26.7-4.3-47.6-25.2-51.9-51.2-16.6 10.1-30.3 24.5-40.4 41.8l2.9 2.9zm-1.5-195.5-43.3 43.3-.7.7c10.1 17.3 23.8 31.7 40.4 41.8 5-26 25.2-46.2 51.2-50.5-5-7.9-10.8-15.1-17.3-21.6-7.2-7.2-15.9-13.7-24.5-19.5zm125.6 186.9 21.6-21.6 14.4-14.4c-10.1-17.4-23.8-32.5-41.1-42.6-4.3 26-24.5 46.2-50.5 51.2 5 7.9 10.8 15.1 17.3 21.6 7.9 7.2 16.6 12.9 26 18.1z" style="fill:#54e984"/><path d="M285.2 384.2c-15.9 15.9-41.1 15.9-57 0l-6.5-6.5c9.3-5.7 17.2-12.9 25.2-20.1 3.6-3.6 6.5-7.2 9.4-10.8 2.9 3.6 6.5 7.2 10.1 10.8 7.2 7.2 15.9 13.7 24.5 19.5l.7.7-1.4 1.4zm-63.6-249.5c8.7 5.1 16.6 11.6 23.8 18.8 3.6 3.6 7.2 7.2 10.1 10.8 2.9-3.6 6.5-7.2 10.1-10.2 7.2-7.9 15.8-14.4 24.5-20.2l-.7-.7-5-5c-15.2-15.9-40.4-15.9-56.3 0zm-93 92.3c-15.9 15.9-15.9 41.1 0 57l5.8 5.7c5.8-8.6 12.3-17.3 19.5-24.5 3.6-3.6 7.2-7.2 10.8-10.1-3.6-3.6-7.2-6.5-10.8-10.1-7.2-7.2-13.7-15.1-19.5-23.8zM384 284.1c15.9-15.9 15.9-41.1 0-57l-6.5-6.5c-7.9 13-18 24.5-30.3 34.6 3.6 3.6 7.2 6.5 10.8 10.1 7.9 7.9 14.4 15.8 20.2 25.2z" class="nyt-tiles_svg__st0"/><path d="m334.8 369.2 34.6-34.6c2.9 10.8 5 22.4 5 33.9.1.6.1 2.8.1 5-13 .7-26.7-.7-39.7-4.3M137.2 138.3v5.8c0 11.5 2.1 23.8 5 35.3l36.1-36.1c-13.7-4.3-27.4-5.7-41.1-5m0 229.4v6.5c13.7.8 28.1-.7 41.1-5l-36.1-36.1c-3.6 11.5-5 23.1-5 34.6M255.5 217c-21.6 0-38.9 17.3-38.9 38.9s18.1 38.9 39.7 38.9 38.9-17.3 38.9-38.9c0-21.7-18-39.7-39.7-38.9m119-80.1c-13.7-.8-28.1.7-41.1 5l36.1 36.1c3.6-13.7 5.8-27.4 5-41.1" style="fill:#fff"/><path d="M399.8 368.4V367c0-18.8-3.6-36.8-10.8-54.1l12.3-11.5c25.2-25.2 25.2-66.4 0-91.6l-11.5-11.5c7.2-18 10.8-37.5 10.8-57 62.8 18 99.5 83.7 80.8 146.4-5.9 18.7-16 36-29.7 50.4-14.4 14.4-32.5 25.2-51.9 30.3m-370-144.9c-17.3 63.4 18.7 129.1 81.5 147.1v-2.9c0-18.8 4.3-37.5 10.1-54.1l-10.8-10.8c-25.2-25.2-25.2-66.4 0-91.6l11.5-11.5c-7.2-18-10.8-36.7-10.8-55.5V142c-39.7 10.8-70 41.8-81.5 81.5m309.4 227.9c15.1-14.5 25.2-32.5 30.3-52-18.7.7-37.5-2.9-55.5-10.1l-12.3 12.3c-25.2 25.2-66.4 25.2-91.6 0l-11.5-11.5c-18.1 7.2-37.5 11.5-57 10.8 5.8 18.8 16.6 36.8 30.3 50.5 46.1 46.2 121.1 46.2 167.3 0m.7-391.7c-46.1-46.2-121.1-46.2-167.3 0-14.4 14.4-25.3 32.5-30.4 52h2.2c18.7 0 37.5 3.6 54.8 10.8l12.3-12.3c25.3-25.2 65.7-25.2 90.9 0l10.8 10.8c18.1-7.2 37.5-10.8 57-10.8-5.8-18.8-15.9-36.8-30.3-50.5" style="fill:#47a590"/><path d="M469 152.7c-19.5-19.5-44.7-33.2-72.1-38.9C380.3 35.9 303.9-13.9 226 3.4 169.7 15 126.4 59 114.9 115.2 37 131.1-12.8 208.3 3.1 286.2c11.5 56.3 55.5 99.5 111.1 111.1 16.6 77.9 93 127.7 170.9 111.8 56.3-11.5 100.3-56.3 111.8-112.5 77.9-16.6 128.4-92.3 111.8-170.9-5-28.2-19.5-53.5-39.7-73M369.5 178l-36.1-36.1c13-4.3 27.4-5.8 41.1-5 .8 13.7-1.4 27.4-5 41.1M198.6 354 156 311.4l-2.9-2.9c10.1-17.3 23.8-31.7 40.4-41.8 4.3 26 25.2 46.9 51.9 51.2-5 7.9-10.1 15.1-16.6 21.6-7.2 7.2-15.9 13.7-25.2 19.5zm56.9-189.7c-2.9-3.6-6.5-7.2-10.1-10.8-7.2-7.2-15.1-13.7-23.8-18.8l6.5-6.5c15.9-15.9 41.1-15.9 56.3 0l5 5 .7.7c-8.7 5.8-17.3 12.3-24.5 20.2-3.6 3-7.2 6.6-10.1 10.2m39.7 91.6c0 21.6-17.3 38.9-38.9 38.9s-39.7-17.3-39.7-38.9 17.3-38.9 38.9-38.9c21.7-.8 39.7 17.2 39.7 38.9m-67.8-83.7c6.5 6.5 12.3 13.7 17.3 21.6-26 4.3-46.2 24.5-51.2 50.5-16.6-10.1-30.3-24.5-40.4-41.8l.7-.7 43.3-43.3 5.8-5.8c8.6 5.8 17.3 12.3 24.5 19.5m19.5 185.4c3.6-3.6 6.5-7.2 9.4-10.8 2.9 3.6 6.5 7.2 10.1 10.8 7.2 7.2 15.9 13.7 24.5 19.5l.7.7-1.4 1.4-5 5c-15.9 15.9-41.1 15.9-57 0l-6.5-6.5c9.3-5.7 17.2-12.9 25.2-20.1m37.5-18c-6.5-6.5-12.3-13.7-17.3-21.6 26-5 46.2-25.2 50.5-51.2 17.3 10.1 31 25.2 41.1 42.6l-14.4 14.4-21.6 21.6-12.3 12.3c-9.4-5.2-18.1-10.9-26-18.1m33.9-95.3c-5-26-25.2-46.9-51.9-51.2 10.1-17.3 25.2-31 42.6-41.1l4.3 4.3L353 196l5.8 5.8c-9.5 17.3-23.9 31.7-40.5 42.5M172.6 59.7c46.2-46.2 121.2-46.2 167.3 0 14.4 13.7 24.5 31.7 30.3 50.5-19.5 0-38.9 3.6-57 10.8l-10.8-10.8c-25.2-25.2-65.6-25.2-90.9 0l-12.3 12.3c-17.3-7.2-36.1-10.8-54.8-10.8h-2.2c5.1-19.5 16-37.6 30.4-52m-35.4 78.6c13.7-.7 27.4.7 41.1 5l-36.1 36.1c-2.9-11.5-5-23.8-5-35.3zm-25.9 229.4v2.9c-62.8-18-98.8-83.7-81.5-147.1 11.5-39.7 41.8-70.7 81.5-81.5v2.2c0 18.8 3.6 37.5 10.8 55.5l-11.5 11.5c-25.2 25.2-25.2 66.4 0 91.6l10.8 10.8c-5.8 16.6-10.1 35.3-10.1 54.1m17.3-83.7c-15.9-15.9-15.9-41.1 0-57l5.8-5.8c5.8 8.7 12.3 16.6 19.5 23.8 3.6 3.6 7.2 6.5 10.8 10.1-3.6 2.9-7.2 6.5-10.8 10.1-7.2 7.2-13.7 15.9-19.5 24.5zm8.6 83.7c0-11.5 1.4-23.1 5-34.6l36.1 36.1c-13 4.3-27.4 5.8-41.1 5zm202 83.7c-46.2 46.2-121.2 46.2-167.3 0-13.7-13.7-24.5-31.7-30.3-50.5 19.5.7 38.9-3.6 57-10.8l11.5 11.5c25.2 25.2 66.4 25.2 91.6 0l12.3-12.3c18 7.2 36.8 10.8 55.5 10.1-5.1 19.5-15.2 37.5-30.3 52m35.3-77.9c-13 .7-26.7-.7-39.7-4.3l34.6-34.6c2.9 10.8 5 22.4 5 33.9.1.6.1 2.8.1 5m3.7-83c-5.8-9.4-12.3-17.3-20.2-25.2-3.6-3.6-7.2-6.5-10.8-10.1 12.3-10.1 22.4-21.6 30.3-34.6l6.5 6.5c15.9 15.9 15.9 41.1 0 57zm73.5 47.6c-14.4 14.4-32.5 25.2-51.9 30.3V367c0-18.8-3.6-36.8-10.8-54.1l12.3-11.5c25.2-25.2 25.2-66.4 0-91.6l-11.5-11.5c7.2-18 10.8-37.5 10.8-57 62.8 18 99.5 83.7 80.8 146.4-5.9 18.7-16 36-29.7 50.4"/></svg>