<?xml version="1.0" encoding="utf-8"?>
<!-- Generator: Adobe Illustrator 28.2.0, SVG Export Plug-In . SVG Version: 6.00 Build 0)  -->
<svg version="1.1" id="Layer_1" xmlns="http://www.w3.org/2000/svg" xmlns:xlink="http://www.w3.org/1999/xlink" x="0px" y="0px"
	 viewBox="0 0 512 512" style="enable-background:new 0 0 512 512;" xml:space="preserve">
<style type="text/css">
	.st0{fill:#FFFFFF;}
</style>
<path class="st0" d="M432.2,21.5c-36.9,0-67.1,30.2-67.1,67.1c0,14,4.5,27.4,12.3,38.6l1.1,0.6c2.8,3.9,6.2,7.3,9.5,10.6v53.7
	L296.3,23.2c-9.5-17.9-30.8-26.8-50.3-21.8c-19.6,4.5-33.6,22.4-33.6,43.1V201c-2.8,2.8-5.6,5-7.8,7.8l-1.1,1.1
	c-10.1,11.7-15.7,26.8-16.2,41.9L119,131.1c-11.7-20.7-38-29.1-60.4-17.3c-15.1,7.8-23.5,24-23.5,40.8v216.4
	c-13.4,12.3-22.4,30.2-22.4,50.3c0,36.9,30.2,67.1,67.1,67.1c36.9,0,67.1-30.2,67.1-67.1c0-19.6-8.9-37.5-22.4-49.8v-48.1
	l92.8,165.5c8.4,14.5,23.5,22.9,39.1,22.9c4.5,0,8.9-0.6,13.4-2.2c19-6.2,31.3-24,31.3-43.6V306.7c3.4-2.8,6.2-5.6,8.4-8.4l0.6-1.1
	c7.8-10.1,12.3-21.8,14-34.1l69.3,127.5c9.5,17.9,30.8,26.8,50.3,21.8c19.6-4.5,33.6-22.4,33.6-43.1v-231c2.8-2.2,5-5,7.3-7.8
	l0.6-1.1c8.9-11.7,14-25.7,14-40.8C499.3,51.7,469.6,21.5,432.2,21.5z M79.8,466.7c-24.7,0-44.7-20-44.7-44.7s20-44.7,44.7-44.7
	c24.7,0,44.7,20,44.7,44.7S104.5,466.7,79.8,466.7z M279.5,466.7c0,10.1-6.7,19-16.8,21.8c-1.7,0.6-3.9,0.6-5.6,0.6
	c-7.8,0-15.7-4.5-19.6-11.2L109.5,254.2c-1.7-3.4-6.7-2.2-6.7,1.7v102.3c-7.3-2.8-14.5-3.9-22.4-3.9c-7.8,0-15.1,1.1-22.4,3.9V153
	c0-10.1,6.7-19,16.8-21.8c10.1-2.8,20.1,1.7,25.2,10.6L228,365.5c1.7,3.4,7.3,1.7,7.3-1.7v-43.6c6.7,2.2,14,3.4,21.3,3.4
	s15.1-1.1,22.9-3.9V466.7z M256,300c-24.7,0-44.7-20-44.7-44.7c0-24.7,20-44.7,44.7-44.7s44.7,20,44.7,44.7
	C300.7,280,280.7,300,256,300z M455.1,367.1c0,8.4-3.9,16.2-11.2,20.7c-11.2,6.7-25.2,2.2-30.8-8.4l-127-231
	c-1.7-3.4-6.7-2.2-6.7,1.7v39.1c-14.5-5-30.2-5.6-44.7-0.6V43.3c0-10.1,6.7-19,16.8-21.8c10.1-2.2,20.1,2.2,25.2,11.2l126.4,230.4
	c1.7,3.4,7.3,2.2,7.3-1.7V151.3c7.3,2.8,14.5,3.9,21.8,3.9c7.8,0,15.7-1.7,22.9-3.9V367.1z M432.2,133.4c-24.7,0-44.7-20-44.7-44.7
	s20-44.7,44.7-44.7s44.7,20,44.7,44.7S456.9,133.4,432.2,133.4z"/>
</svg>
