<svg xmlns="http://www.w3.org/2000/svg" xml:space="preserve" viewBox="0 0 512 512"><path d="M369 241.1H29.8v-95.2H369zM29.8 270.9v95.2H125v-95.2zm241 0v95.2H488v-95.2zM29.8 62.6v59.5H247V23.9H68.5c-20.8 0-38.7 17.9-38.7 38.7m419.5-35.7h-56.5v95.2H488V65.6c0-20.8-17.9-38.7-38.7-38.7M488 446.4v-56.5H148.8v95.2h300.5c20.8 0 38.7-17.9 38.7-38.7" style="fill:#bc70c4"/><path d="M449.3.1H65.5C29.8.1 0 29.9 0 65.6v383.8c0 35.7 29.8 62.5 65.5 62.5h383.8c35.7 0 62.5-29.8 62.5-62.5V62.6C514.8 29.9 485 .1 449.3.1M270.8 26.9H366v95.2h-95.2zm-241 92.3V62.6c0-20.8 17.9-38.7 38.7-38.7H247v98.2H29.8zm0 26.7H369v95.2H29.8zm217.2 122v95.2h-98.2v-95.2zM65.5 485.1c-20.8 0-38.7-17.9-38.7-38.7v-56.5H122v95.2zm59.5-119H29.8v-95.2H125zm363 80.3c0 20.8-17.9 38.7-38.7 38.7H148.8v-95.2H488zm0-80.3H270.8v-95.2H488zm0-122h-95.2v-98.2H488zm0-122h-95.2V26.9h56.5c20.8 0 38.7 17.9 38.7 38.7z"/></svg>