<?xml version="1.0" encoding="utf-8"?>
<!-- Generator: Adobe Illustrator 28.2.0, SVG Export Plug-In . SVG Version: 6.00 Build 0)  -->
<svg version="1.1" id="Layer_1" xmlns="http://www.w3.org/2000/svg" xmlns:xlink="http://www.w3.org/1999/xlink" x="0px" y="0px"
	 viewBox="0 0 512 512" style="enable-background:new 0 0 512 512;" xml:space="preserve">
<style type="text/css">
	.st0{fill:#FFFFFF;}
</style>
<path class="st0" d="M445.1,498H66.9C36,498,11,473,11,442.1V69.9C11,39,36,14,66.9,14h378.2C476,14,501,39,501,69.9v372.2
	C501,473,476,498,445.1,498z"/>
<path d="M500.1,26.7c-2.5-3.4-5.4-6.6-8.6-9.4C480.8,7.1,466.8,1,452,0.1c-1.3,0-2.5,0-3.8,0H63.5c-1.3,0-2.5,0-3.8,0
	C43.6,1,28.4,8.1,17.3,19.8C6.2,31.6,0,47.1,0,63.3v385.2c0,16.8,6.7,32.9,18.6,44.8s28,18.6,44.8,18.6h385.2
	c16.8,0,32.9-6.8,44.8-18.6c11.9-11.9,18.6-28,18.6-44.8v-385C512,50.2,507.8,37.4,500.1,26.7z M161.7,322.1H28.6V187.2h133.2v134.9
	H161.7z M161.7,160.2H28.6V63.4c0-9.3,3.7-18.1,10.2-24.7c6.5-6.5,15.4-10.2,24.7-10.2h98.2V160.2z M323.7,483.4H188.6V350.3h135.1
	V483.4z M323.7,160.2H188.6V28.5h135.1V160.2z M483.4,448.4c0,9.3-3.7,18.1-10.2,24.7c-4.9,4.9-11.2,8.2-18,9.5
	c-2.3,0.5-4.7,0.7-7.1,0.7h-97.6v-133h132.8v98.1H483.4z M483.4,322.1H350.6V187.2h132.8L483.4,322.1L483.4,322.1z"/>
</svg>
