<svg xmlns="http://www.w3.org/2000/svg" xml:space="preserve" viewBox="0 0 512 512"><path d="M507.8 213.4c-4-4-9.7-5.6-15.3-4v-187h-84.6c.8-6.4-4-12.9-10.5-13.7-5.6-.8-11.3 2.4-12.9 8.1l-1.6 5.6H196.7c0-4.8-2.4-9.7-5.6-12.1-5.6-4.8-14.5-4.8-20.1 0l-17.7 12.1H30.7v90.3l-25 18.5c-5.6 4-7.3 11.3-4 16.9 3.2 5.6 11.3 7.3 16.9 3.2l.8-.8 10.5-8.1V360l-16.1 38.7c-3.2 6.4-1.6 13.7 2.4 18.5 3.2 4 8.1 5.6 12.9 4.8v62.1h199.1l-.8 1.6v1.6c-.8 8.9 5.6 16.9 14.5 17.7 6.4.8 12.1-2.4 15.3-8.1l12.1-12.1h221.6V252.1l17.7-18.5.8-2.4c4-6.5 3.2-13.7-1.6-17.8m-39.5 4.9L324 277.1l76.6-230.5h67.7zm-3.2 27.4L264.4 456l50-148.3zm-170.9 43.5L54.8 387.5v-21.8l133-319.2h187zM54.8 46.6h65.3L54.8 94.9zm0 79 105.6-79h.8L54.8 302.9zm0 334.5v-46.7l229.7-93.5-46.7 140.2zm413.5 0H294.2l174.1-183z"/></svg>