<svg xmlns="http://www.w3.org/2000/svg" xml:space="preserve" viewBox="0 0 512 512"><path d="M381.1 335.9c13.8 0 25.2-11.4 25.2-26s-11.4-25.2-26-25.2-25.2 11.4-25.2 25.2 12.2 26 26 26m29.3-149.5c8.1-4.1 15.4-9.8 22.8-16.3 38.2-38.2 38.2-100 0-138.1-38.3-38.2-100-38.2-138.2 0-6.5 6.5-12.2 13.8-16.3 21.9-26-47.1-84.5-65-132.5-39-47.9 26-65 84.5-39 132.5 9.8 18.7 26 33.3 45.5 42.3C93.5 214 51.2 268.5 45.5 329.4H0v24.4h45.5c4.9 87.8 77.2 156 165 155.2H347c91-7.3 165-82.1 165-167.4 1.6-68.2-39.1-129.2-101.6-155.2M173.1 479.8c-60.9-16.3-103.2-69.9-103.2-138.1 0-59.3 43.9-113.8 103.2-134.1zm93.4 4.8h-56.1c-4.1 0-8.9 0-13-.8V200.2c4.9-.8 9.8-1.6 13.8-1.6h55.3zm0-310.4h-73.1c-19.5 0-38.2-7.3-52-21.1-28.4-28.4-29.3-74.8-.8-103.2s74.8-29.3 103.2-.8c13.8 13.8 21.9 32.5 21.9 52zm24.4-73.1c0-40.6 32.5-73.1 73.1-73.1s73.1 32.5 73.1 73.1-32.5 73.1-73.1 73.1h-73.1zm98.3 284.4-17.1 17.1c21.9 21.9 54.4 30.9 84.5 22.8-27.6 34.1-67.4 55.3-111.3 58.5H290V198.6h55.3c77.2-1.6 140.6 59.3 142.2 136.5v6.5c0 15.4-2.4 30.9-8.1 44.7-24.3 24.4-65 24.4-90.2-.8"/></svg>