<?xml version="1.0" encoding="utf-8"?>
<!-- Generator: Adobe Illustrator 28.2.0, SVG Export Plug-In . SVG Version: 6.00 Build 0)  -->
<svg version="1.1" id="Layer_1" xmlns="http://www.w3.org/2000/svg" xmlns:xlink="http://www.w3.org/1999/xlink" x="0px" y="0px"
	 viewBox="0 0 512 512" style="enable-background:new 0 0 512 512;" xml:space="preserve">
<style type="text/css">
	.st0{fill:#FFFFFF;}
	.st1{fill:#FF3833;}
	.st2{fill:#E87E7E;}
	.st3{fill:#E20736;}
</style>
<path class="st0" d="M42.7,34.5v84.6l113.6-84.6H42.7z"/>
<path class="st1" d="M156.4,34.5L42.7,119.1v243.4l137-328H156.4z M480.4,472.1V226.3l-216,245.8H480.4z"/>
<path class="st2" d="M480.4,215.8V34.5h-88.7l-82.2,248.2L480.4,215.8z"/>
<path class="st2" d="M42.7,404.4v67.7h203.9l62.9-190.2L42.7,404.4z"/>
<path class="st0" d="M309.5,282.7L246.7,473h18.5l216-246.6v-10.5L309.5,282.7z"/>
<path class="st3" d="M391.7,34.5h-212l-137,328v41.9l266.8-121.7L391.7,34.5z"/>
<path d="M507.8,213.4c-4-4-9.7-5.6-15.3-4v-187h-84.6c0.8-6.4-4-12.9-10.5-13.7c-5.6-0.8-11.3,2.4-12.9,8.1l-1.6,5.6H196.7
	c0-4.8-2.4-9.7-5.6-12.1c-5.6-4.8-14.5-4.8-20.1,0l-17.7,12.1H30.7v90.3l-25,18.5c-5.6,4-7.3,11.3-4,16.9c3.2,5.6,11.3,7.3,16.9,3.2
	l0.8-0.8l10.5-8.1V360l-16.1,38.7c-3.2,6.4-1.6,13.7,2.4,18.5c3.2,4,8.1,5.6,12.9,4.8v62.1h199.1l-0.8,1.6v1.6
	c-0.8,8.9,5.6,16.9,14.5,17.7c6.4,0.8,12.1-2.4,15.3-8.1l12.1-12.1h221.6V252.1l17.7-18.5l0.8-2.4
	C513.4,224.7,512.6,217.5,507.8,213.4z M468.3,218.3L324,277.1l76.6-230.5h67.7V218.3z M465.1,245.7L264.4,456l50-148.3L465.1,245.7
	z M294.2,289.2L54.8,387.5v-21.8l133-319.2h187L294.2,289.2z M54.8,46.6h65.3L54.8,94.9V46.6z M54.8,125.6l105.6-79h0.8L54.8,302.9
	V125.6z M54.8,460.1v-46.7l229.7-93.5l-46.7,140.2L54.8,460.1L54.8,460.1z M468.3,460.1H294.2l174.1-183L468.3,460.1L468.3,460.1z"
	/>
</svg>
