<?xml version="1.0" encoding="utf-8"?>
<!-- Generator: Adobe Illustrator 28.2.0, SVG Export Plug-In . SVG Version: 6.00 Build 0)  -->
<svg version="1.1" id="Layer_1" xmlns="http://www.w3.org/2000/svg" xmlns:xlink="http://www.w3.org/1999/xlink" x="0px" y="0px"
	 viewBox="0 0 512 512" style="enable-background:new 0 0 512 512;" xml:space="preserve">
<style type="text/css">
	.st0{fill:#DABC45;}
	.st1{fill:#7BB677;}
</style>
<path d="M461.2,0H50.8C22.8,0,0,22.8,0,50.8v410.3C0,489.2,22.8,512,50.8,512h410.3c28.1,0,50.8-22.8,50.8-50.8V50.8
	C512,22.8,489.2,0,461.2,0z M485,50.8v110.9H350.3V27h110.9C474.3,27,485,37.7,485,50.8z M188.6,323.4V188.6h134.7v134.7
	L188.6,323.4z M323.4,350.3V485H188.6V350.3H323.4z M161.7,323.4H27V188.6h134.7V323.4z M188.6,161.7V27h134.7v134.7H188.6z
	 M350.3,188.6H485v134.7H350.3V188.6z M50.8,27h110.9v134.7H27V50.8C27,37.7,37.7,27,50.8,27z M27,461.2V350.3h134.7V485H50.8
	C37.7,485,27,474.3,27,461.2z M461.2,485H350.3V350.3H485v110.9C485,474.3,474.3,485,461.2,485z"/>
<rect x="188.6" y="188.6" class="st0" width="134.7" height="134.7"/>
<rect x="350.3" y="188.6" class="st1" width="134.7" height="134.7"/>
<rect x="188.6" y="350.3" class="st1" width="134.7" height="134.7"/>
<path class="st1" d="M27,461.2V350.3h134.7V485H50.8C37.7,485,27,474.3,27,461.2z"/>
<path class="st1" d="M461.2,485H350.3V350.3H485v110.9C485,474.3,474.3,485,461.2,485z"/>
</svg>
