<svg xmlns="http://www.w3.org/2000/svg" xml:space="preserve" viewBox="0 0 512 512"><path d="M461.2 0H50.8C22.8 0 0 22.8 0 50.8v410.3C0 489.2 22.8 512 50.8 512h410.3c28.1 0 50.8-22.8 50.8-50.8V50.8C512 22.8 489.2 0 461.2 0M485 50.8v110.9H350.3V27h110.9c13.1 0 23.8 10.7 23.8 23.8M188.6 323.4V188.6h134.7v134.7zm134.8 26.9V485H188.6V350.3zm-161.7-26.9H27V188.6h134.7zm26.9-161.7V27h134.7v134.7zm161.7 26.9H485v134.7H350.3zM50.8 27h110.9v134.7H27V50.8C27 37.7 37.7 27 50.8 27M27 461.2V350.3h134.7V485H50.8C37.7 485 27 474.3 27 461.2M461.2 485H350.3V350.3H485v110.9c0 13.1-10.7 23.8-23.8 23.8"/><path d="M188.6 188.6h134.7v134.7H188.6z" style="fill:#dabc45"/><path d="M350.3 188.6H485v134.7H350.3zM188.6 350.3h134.7V485H188.6zM27 461.2V350.3h134.7V485H50.8C37.7 485 27 474.3 27 461.2M461.2 485H350.3V350.3H485v110.9c0 13.1-10.7 23.8-23.8 23.8" style="fill:#7bb677"/></svg>