<?xml version="1.0" encoding="utf-8"?>
<!-- Generator: Adobe Illustrator 28.2.0, SVG Export Plug-In . SVG Version: 6.00 Build 0)  -->
<svg version="1.1" id="Reference" xmlns="http://www.w3.org/2000/svg" xmlns:xlink="http://www.w3.org/1999/xlink" x="0px" y="0px"
	 viewBox="0 0 512 512" style="enable-background:new 0 0 512 512;" xml:space="preserve">
<style type="text/css">
	.st0{fill:#BC70C4;}
</style>
<path class="st0" d="M369,241.1H29.8v-95.2H369V241.1z M29.8,270.9v95.2H125v-95.2H29.8z M270.8,270.9v95.2H488v-95.2H270.8z
	 M29.8,62.6v56.5v0.1v2.9H247v-3V26.9v-3H68.5C47.7,23.9,29.8,41.8,29.8,62.6z M449.3,26.9h-56.5v95.2H488V65.6
	C488,44.8,470.1,26.9,449.3,26.9z M488,446.4v-56.5H185.1c-22.3,0-36.3,0-36.3,0v95.2h300.5C470.1,485.1,488,467.2,488,446.4z"/>
<path d="M449.3,0.1H65.5C29.8,0.1,0,29.9,0,65.6v383.8c0,35.7,29.8,62.5,65.5,62.5h383.8c35.7,0,62.5-29.8,62.5-62.5V62.6
	C514.8,29.9,485,0.1,449.3,0.1z M270.8,26.9H366v95.2h-95.2V26.9z M29.8,119.2c0,0,0,0,0-0.1c0-2.7,0-56.5,0-56.5
	c0-20.8,17.9-38.7,38.7-38.7H247v3v92.2v3H29.8V119.2z M29.8,145.9H369v95.2H29.8V145.9z M247,267.9v95.2h-98.2v-95.2H247z
	 M65.5,485.1c-20.8,0-38.7-17.9-38.7-38.7v-56.5H122v95.2H65.5z M125,366.1H29.8v-95.2H125V366.1z M488,446.4
	c0,20.8-17.9,38.7-38.7,38.7H148.8v-95.2H488V446.4z M488,366.1H270.8v-95.2H488V366.1z M488,244.1h-95.2v-98.2H488V244.1z
	 M488,122.1h-95.2V26.9h56.5c20.8,0,38.7,17.9,38.7,38.7V122.1z"/>
</svg>
