<?xml version="1.0" encoding="utf-8"?>
<!-- Generator: Adobe Illustrator 28.2.0, SVG Export Plug-In . SVG Version: 6.00 Build 0)  -->
<svg version="1.1" id="Reference" xmlns="http://www.w3.org/2000/svg" xmlns:xlink="http://www.w3.org/1999/xlink" x="0px" y="0px"
	 viewBox="0 0 512 512" style="enable-background:new 0 0 512 512;" xml:space="preserve">
<style type="text/css">
	.st0{fill:#FFFFFF;stroke:#000000;stroke-miterlimit:10;}
	.st1{fill:#BC70C4;}
</style>
<path class="st0" d="M403.8,511.8H108c-59.6,0-108-48.4-108-108V108C0,48.4,48.4,0,108,0h295.8c59.6,0,108,48.4,108,108v295.8
	C511.8,463.4,463.4,511.8,403.8,511.8z"/>
<path class="st1" d="M488,65.6v59.5h-95.2V26.9h56.5C473.1,26.9,488,44.7,488,65.6z"/>
<rect x="29.8" y="267.9" class="st1" width="95.2" height="104.1"/>
<rect x="270.8" y="267.9" class="st1" width="217.2" height="101.2"/>
<path d="M449.3,0.1H65.5C29.8,0.1,0,29.9,0,65.6v383.8c0,35.7,29.8,62.5,65.5,62.5h383.8c35.7,0,62.5-29.8,62.5-62.5V62.6
	C514.8,29.9,485,0.1,449.3,0.1z M270.8,26.9H366v95.2h-95.2V26.9z M29.8,62.6c0-20.8,17.9-38.7,38.7-38.7H247v95.2H29.8
	C29.8,122.1,29.8,62.6,29.8,62.6z M29.8,145.9H369v95.2H29.8V145.9z M247,267.9v95.2h-98.2v-95.2L247,267.9L247,267.9z M125,485.1
	H65.5c-20.8,0-38.7-17.9-38.7-38.7v-56.5H122v95.2L125,485.1L125,485.1z M125,366.1H29.8v-95.2H125V366.1z M488,446.4
	c0,20.8-17.9,38.7-38.7,38.7H148.8v-95.2H488V446.4z M488,366.1H270.8v-95.2H488V366.1z M488,244.1h-95.2v-98.2H488V244.1z
	 M488,122.1h-95.2V26.9h56.5c20.8,0,38.7,17.9,38.7,38.7V122.1z"/>
<path class="st1" d="M488,389.9v56.5c0,20.8-17.9,38.7-38.7,38.7H148.8v-95.2C148.8,389.9,488,389.9,488,389.9z"/>
<rect x="29.8" y="145.9" class="st1" width="339.2" height="95.2"/>
<path class="st1" d="M247,26.9v95.2H29.8V62.6c0-20.8,17.9-38.7,38.7-38.7H247V26.9z"/>
</svg>
