<?xml version="1.0" encoding="utf-8"?>
<!-- Generator: Adobe Illustrator 28.2.0, SVG Export Plug-In . SVG Version: 6.00 Build 0)  -->
<svg version="1.1" id="Layer_1" xmlns="http://www.w3.org/2000/svg" xmlns:xlink="http://www.w3.org/1999/xlink" x="0px" y="0px"
	 viewBox="0 0 512 512" style="enable-background:new 0 0 512 512;" xml:space="preserve">
<path d="M448.5,0h-385c-16.8,0-33,6.7-44.9,18.6C6.7,30.5,0,46.6,0,63.4v385.2c0,16.8,6.7,32.9,18.6,44.8
	c11.9,11.9,28,18.6,44.8,18.6h385.2c16.8,0,32.9-6.8,44.8-18.6c11.9-11.9,18.6-28,18.6-44.8v-385c0-16.8-6.7-33-18.6-44.9
	C481.5,6.7,465.3,0,448.5,0z M256.1,49l97.5,97.5L256.1,244l-97.5-97.5L256.1,49z M28.6,63.5c0.1-9.2,3.9-18,10.4-24.5
	c6.5-6.5,15.3-10.2,24.5-10.4h172.6L28.6,236.1V63.5z M238.7,483.4H63.5c-9.3,0-18.1-3.7-24.7-10.2c-6.5-6.5-10.2-15.4-10.2-24.7
	V273.3L238.7,483.4z M255.9,460.4L158.7,363l97.4-97l97.5,97l-97.5,97.4H255.9z M483.3,448.5c0.1,6.9-1.9,13.7-5.7,19.4
	c-3.8,5.8-9.1,10.3-15.5,13.1c-4.3,1.8-8.9,2.7-13.6,2.8h-175l209.9-209.9L483.3,448.5z M483.3,235.9L276.1,28.6h172
	c9.3,0,18.1,3.7,24.7,10.2c6.5,6.5,10.2,15.4,10.2,24.7L483.3,235.9z"/>
</svg>
