<svg xmlns="http://www.w3.org/2000/svg" xml:space="preserve" viewBox="0 0 512 512"><path d="M479.9 179.9c0-12.7-5-25-14-34L334 14.1c-2.9-2.9-6.2-5.4-9.7-7.5-7.2-4.3-15.6-6.6-24.2-6.6h-220c-26.5 0-48 21.5-48 48v416c0 26.5 21.5 48 48 48h351.8c.9 0 1.8 0 2.7-.1.3 0 .6 0 .9-.1.6 0 1.2-.1 1.8-.2.3 0 .7-.1 1-.1.5-.1 1.1-.1 1.6-.2.3-.1.7-.1 1-.2.5-.1 1.1-.2 1.6-.3.3-.1.6-.1 1-.2.6-.1 1.1-.3 1.6-.4.3-.1.6-.2.8-.2.7-.2 1.4-.4 2-.7.1 0 .3-.1.4-.1l2.4-.9.6-.3c.6-.3 1.1-.5 1.7-.8.3-.1.5-.3.8-.4.5-.3 1-.5 1.5-.8.3-.2.6-.3.8-.5.5-.3.9-.6 1.4-.8.3-.2.5-.3.8-.5.5-.3.9-.6 1.4-1 .2-.2.5-.3.7-.5.5-.4 1.1-.8 1.6-1.2.1-.1.3-.2.4-.3.7-.5 1.3-1.1 1.9-1.7l.3-.3 1.5-1.5c.2-.2.4-.4.5-.6.4-.4.8-.8 1.2-1.3.2-.2.4-.5.6-.7.4-.4.7-.8 1-1.3.1-.1.2-.2.3-.4 6.4-8.1 10.2-18.4 10.2-29.5zm-314 58.9h31.3v-98.2c0-10.8 8.9-19.6 19.7-19.6h78.7c10.8 0 19.7 8.8 19.7 19.6v98.2h31.3c17.5 0 26.2 21.2 13.8 33.6L270 362.6c-7.7 7.7-20.1 7.7-27.7 0L152 272.4c-12.4-12.4-3.6-33.6 13.9-33.6m208.3 216.1h-236c-10.8 0-19.7-8.8-19.7-19.6s8.9-19.6 19.7-19.6h236c10.8 0 19.7 8.8 19.7 19.6s-8.8 19.6-19.7 19.6"/></svg>