<?xml version="1.0" encoding="utf-8"?>
<!-- Generator: Adobe Illustrator 28.2.0, SVG Export Plug-In . SVG Version: 6.00 Build 0)  -->
<svg version="1.1" id="Layer_1" xmlns="http://www.w3.org/2000/svg" xmlns:xlink="http://www.w3.org/1999/xlink" x="0px" y="0px"
	 viewBox="0 0 512 512" style="enable-background:new 0 0 512 512;" xml:space="preserve">
<path d="M256.1-0.1c-141.4,0-256,114.6-256,256s114.6,256,256,256s256-114.6,256-256S397.5-0.1,256.1-0.1z M256.1,475.6
	c-122.4,0-221.7-99.3-221.7-221.7c0-122.4,99.3-221.7,221.7-221.7c122.5,0,221.7,99.3,221.7,221.7
	C477.8,376.3,378.5,475.6,256.1,475.6z"/>
<path d="M256.1,41.3c-117.4,0-212.6,95.2-212.6,212.6c0,117.4,95.2,212.6,212.6,212.6c117.4,0,212.6-95.2,212.6-212.6
	C468.7,136.5,373.5,41.3,256.1,41.3z M210.4,127.9c0-2.5,2-4.6,4.6-4.6h82.3c2.5,0,4.6,2,4.6,4.6v4.6c0,2.5-2,4.6-4.6,4.6H215
	c-2.5,0-4.6-2-4.6-4.6V127.9z M210.4,155.3c0-2.5,2-4.6,4.6-4.6h82.3c2.5,0,4.6,2,4.6,4.6V169c0,2.5-2,4.6-4.6,4.6H215
	c-2.5,0-4.6-2-4.6-4.6V155.3z M210.4,191.9c0-2.5,2-4.6,4.6-4.6h82.3c2.5,0,4.6,2,4.6,4.6v22.9c0,2.5-2,4.6-4.6,4.6H215
	c-2.5,0-4.6-2-4.6-4.6V191.9z M358.4,295.6L266,391.8c-5.4,5.6-14.4,5.6-19.8,0l-92.4-96.2c-2.8-2.9-0.7-7.7,3.3-7.7h53.3v-45.7
	c0-2.5,2-4.6,4.6-4.6h82.3c2.5,0,4.6,2,4.6,4.6v45.7h53.3C359.1,287.9,361.2,292.7,358.4,295.6z"/>
<path d="M256.1,41C138.7,41,43.5,136.2,43.5,253.6c0,117.4,95.2,212.6,212.6,212.6c117.4,0,212.6-95.2,212.6-212.6
	C468.7,136.2,373.5,41,256.1,41z M210.3,128.2c0-2.5,2-4.6,4.6-4.6h82.3c2.5,0,4.6,2,4.6,4.6v4.6c0,2.5-2,4.6-4.6,4.6h-82.3
	c-2.5,0-4.6-2-4.6-4.6V128.2z M210.3,155.6c0-2.5,2-4.6,4.6-4.6h82.3c2.5,0,4.6,2,4.6,4.6v13.7c0,2.5-2,4.6-4.6,4.6h-82.3
	c-2.5,0-4.6-2-4.6-4.6V155.6z M210.3,192.2c0-2.5,2-4.6,4.6-4.6h82.3c2.5,0,4.6,2,4.6,4.6V215c0,2.5-2,4.6-4.6,4.6h-82.3
	c-2.5,0-4.6-2-4.6-4.6V192.2z M358.3,295.9l-92.4,96.2c-5.4,5.6-14.4,5.6-19.8,0l-92.4-96.2c-2.8-2.9-0.7-7.7,3.3-7.7h53.3v-45.7
	c0-2.5,2-4.6,4.6-4.6h82.3c2.5,0,4.6,2,4.6,4.6v45.7H355C359,288.2,361.1,293,358.3,295.9z"/>
</svg>
