<svg xmlns="http://www.w3.org/2000/svg" xml:space="preserve" viewBox="0 0 512 512"><path d="m335.4 183.4-42.1-34.6 7.4-27.6 77.4 62.2zM133.9 316.9l77.4 62.2 7.4-27.6-41.3-34.6z" style="opacity:.69"/><path d="M256 512C114.8 512 0 397.2 0 256S114.8 0 256 0s256 114.8 256 256-114.8 256-256 256m0-493.9C124.8 18.1 18.1 124.8 18.1 256S124.8 493.9 256 493.9 493.9 387.2 493.9 256 387.2 18.1 256 18.1m189.2 219.5v-51.3l-81.1-69-63.5 3.9 77.4 62.2H66.8V241zM66.8 262.7V314l81.1 69 63.5-3.9-77.4-62.2h311.3v-57.6z"/></svg>