<svg xmlns="http://www.w3.org/2000/svg" xml:space="preserve" viewBox="0 0 512 512"><path d="M454.7 512H57.3C25.7 512 0 486.3 0 454.7V57.3C0 25.7 25.7 0 57.3 0h397.4C486.3 0 512 25.7 512 57.3v397.4c0 31.6-25.7 57.3-57.3 57.3" style="fill:#002855"/><path d="M185.8 163.4c-.6 7.1-6.8 12.3-13.9 11.8-6.3-.5-11.2-5.5-11.8-11.8V142c.6-7.1 6.8-12.3 13.9-11.8 6.3.5 11.2 5.5 11.8 11.8zM173 210.2c-7.1.6-13.3-4.7-13.9-11.8s4.7-13.3 11.8-13.9q1.05-.15 2.1 0c7.1.6 12.3 6.8 11.8 13.9-.6 6.4-5.6 11.3-11.8 11.8m31-97.1c-8.6-7.5-19.7-11.4-31.1-11.1-12.2 0-23.3 3.9-31.1 11.1-8.7 8.6-13.3 20.5-12.8 32.7v49.4c0 13.1 4.4 24.1 12.8 31.9 7.9 7.3 18.9 11.4 31.1 11.4s23.2-4 31.1-11.4c8.4-7.9 12.9-18.9 12.9-31.9v-49.5c0-13.6-4.5-24.9-12.9-32.6m75.4 83.6c-.6 7.1-6.8 12.4-14 11.8-6.3-.5-11.3-5.5-11.8-11.8V165c.6-7.1 6.8-12.4 14-11.8 6.3.5 11.3 5.5 11.8 11.8zm26.1-35c0-19.9-13.4-33.2-33.2-33.2-6.1-.2-12.1 1-17.8 3.3l-.9.3v-31h-28.5v97.1c0 11.4 4.1 21.3 11.8 28.5 7.3 6.8 17.4 10.5 28.4 10.5s21.1-3.7 28.4-10.5c7.8-7.4 12-17.8 11.7-28.5v-36.5m85.2 43.7c0-18.3-8.7-25.7-26.9-33-13.5-5.4-24-7.9-23.2-13.6.8-5.3 10-6.8 16.4-6.8 11.2 0 19.2 1.7 28.2 4.8v-24.1c-14.4-3.8-30.6-5.2-44.4-2-21.5 5-28.1 19.9-28.1 30.3 0 7.3 2.4 13.6 7.3 18.6 5.5 5.3 12.3 9.1 19.7 11.1 8.4 2.9 13.7 4.9 15.3 5.7 4.5 2.1 6.6 4.6 6.1 8.1-.8 5.1-8 7.9-18.1 7.9-10-.4-19.8-2.8-28.9-7.2v26.9c6.5 2.3 14.2 5.9 32.4 5.9 27.8 0 44.2-16.6 44.2-32.6m-210 203.9v-34.4l-40.4-105h37.4l21.9 66.8c3.3-9.4 24.9-66.8 24.9-66.8h37.4l-43.7 105v34.4zm252.8-109.4c20.3-1.5 37.6 4.3 37.6 4.3v-32.9c-11.8-2.5-23.8-3.8-35.9-4.1-40.9 0-63.9 19.2-63.9 58.6v26.4c0 39.4 19 58.6 57 58.6 21 0 35.9-1.6 46.5-3.5v-82.1h-51.6v25.6h16.7v25.9c-3.1.6-5.4.9-10.7.9-13.1 0-21-5.2-21-20.7v-35.3c0-15.3 11-20.6 25.3-21.7m-114.6 0c20.2-1.5 37.5 4.3 37.5 4.3v-32.9c-11.8-2.5-23.8-3.9-35.8-4.2-40.9 0-63.9 19.2-63.9 58.6v26.4c0 39.4 19 58.6 57 58.6 21 0 35.9-1.6 46.5-3.5v-82.1h-51.6v25.6h16.6v25.9c-3 .6-5.4.9-10.7.9-13.1 0-21-5.2-21-20.7v-35.3c0-15.3 11.1-20.6 25.4-21.6m-205.6 64.8v.2zm-15.5-14.9H73.2v29.9h23.1l3-.1c7.7-.9 13.8-7.2 13.9-14.9-.1-8.2-7-14.8-15.5-14.9m13.2-38.9c0-6.4-4.8-11.7-11-12.9-1-.3-2.2-.4-3.5-.4H73.2v26.6h23.1c1.4 0 2.6-.2 3.8-.5 6.2-1.2 10.8-6.5 10.8-12.8m-73.6 98.9v-140h62.1c27.6 0 42 18.2 42 37.1 0 17.4-6.7 25.4-15.7 30 11.5 2.7 22.8 15.2 22.8 32.4v2.9c0 18.6-13.9 37.4-47.9 37.4z" style="fill:#fff"/></svg>