<svg xmlns="http://www.w3.org/2000/svg" xml:space="preserve" viewBox="0 0 512 512"><path d="M96.3 324.2H73.2v-26.6h23.1c1.3 0 2.4.2 3.5.4 6.2 1.1 11 6.5 11 12.9 0 6.3-4.5 11.5-10.7 12.8-1.1.4-2.4.5-3.8.5m1.4 25.7-24.5-.1v29.9h23.1l3-.1c7.7-.9 13.8-7.2 13.9-14.9-.1-8.2-7-14.8-15.5-14.8M173 210.2c6.3-.5 11.2-5.5 11.8-11.8.6-7.1-4.7-13.3-11.8-13.9q-1.05-.15-2.1 0c-7.1.6-12.3 6.8-11.8 13.9.6 7.2 6.8 12.4 13.9 11.8m92.5-1.7c7.1.6 13.4-4.7 14-11.8V165c-.5-6.3-5.5-11.3-11.8-11.8-7.1-.6-13.4 4.7-14 11.8v31.7c.5 6.3 5.5 11.3 11.8 11.8M172 175.2c7.1.6 13.3-4.7 13.9-11.8V142c-.5-6.3-5.5-11.2-11.8-11.8-7.1-.6-13.3 4.7-13.9 11.8v21.4c.5 6.3 5.5 11.3 11.8 11.8M512 57.3v397.4c0 31.7-25.7 57.3-57.3 57.3H57.3C25.7 512 0 486.3 0 454.7V57.3C0 25.7 25.7 0 57.3 0h397.4C486.3 0 512 25.7 512 57.3M312.7 160.9c0 7.3 2.4 13.6 7.3 18.6 5.5 5.3 12.3 9.1 19.7 11.1 8.4 2.9 13.7 4.9 15.3 5.7 4.5 2.1 6.6 4.6 6.1 8.1-.8 5.1-8 7.9-18.1 7.9-10-.4-19.8-2.8-28.9-7.2V232c6.5 2.3 14.2 5.9 32.4 5.9 27.7 0 44.1-16.6 44.1-32.5 0-18.3-8.7-25.7-26.9-33-13.5-5.4-24-7.9-23.2-13.6.8-5.3 10-6.8 16.4-6.8 11.2 0 19.2 1.7 28.2 4.8v-24.1c-14.4-3.8-30.6-5.2-44.4-2-21.4 4.9-28 19.8-28 30.2m-87.6 37.4c0 11.4 4.1 21.3 11.8 28.5 7.3 6.8 17.4 10.5 28.4 10.5s21.1-3.7 28.4-10.5c7.8-7.4 12-17.8 11.7-28.5v-36.6c0-19.9-13.4-33.2-33.2-33.2-6.1-.2-12.1 1-17.8 3.3l-.9.3v-31H225v97.2zm-96-52.4v49.4c0 13.1 4.4 24.1 12.8 31.9 7.9 7.3 18.9 11.4 31.1 11.4s23.2-4 31.1-11.4c8.4-7.9 12.9-18.9 12.9-31.9v-49.5c0-13.6-4.5-24.9-12.9-32.7v.1c-8.6-7.5-19.7-11.4-31.1-11.1-12.2 0-23.3 3.9-31.1 11.1-8.7 8.5-13.3 20.4-12.8 32.7m19.5 223.4c0-17.1-11.3-29.7-22.8-32.4 8.9-4.6 15.7-12.6 15.7-30 0-18.9-14.3-37.1-42-37.1H37.3v140l63.3-.3c34 0 47.9-18.7 47.9-37.4v-2.8zm69.4 5.6 43.7-105h-37.4s-21.6 57.3-24.9 66.8l-21.9-66.8h-37.4l40.4 105v34.4H218zm142.1-49.7h-51.6v25.6h16.6v25.9c-3 .6-5.4.9-10.7.9-13.1 0-21-5.2-21-20.7v-35.3c0-15.3 11-20.6 25.4-21.7v.1c20.2-1.5 37.5 4.3 37.5 4.3v-32.9c-11.8-2.5-23.8-3.9-35.8-4.2-40.9 0-63.9 19.2-63.9 58.6v26.4c0 39.4 19 58.6 57 58.6 21 0 35.9-1.6 46.5-3.5zm114.6.1h-51.6v25.6h16.7v25.9c-3.1.6-5.4.9-10.7.9-13.1 0-21-5.2-21-20.7v-35.3c0-15.3 10.9-20.6 25.3-21.7 20.3-1.5 37.6 4.3 37.6 4.3v-32.9c-11.8-2.5-23.8-3.8-35.9-4.1-40.9 0-63.9 19.2-63.9 58.6v26.4c0 39.4 19 58.6 57 58.6 21 0 35.9-1.6 46.5-3.5z"/></svg>