<?xml version="1.0" encoding="utf-8"?>
<!-- Generator: Adobe Illustrator 28.2.0, SVG Export Plug-In . SVG Version: 6.00 Build 0)  -->
<svg version="1.1"
	 id="svg19" xmlns:svg="http://www.w3.org/2000/svg" xmlns:dc="http://purl.org/dc/elements/1.1/" xmlns:cc="http://creativecommons.org/ns#" xmlns:rdf="http://www.w3.org/1999/02/22-rdf-syntax-ns#"
	 xmlns="http://www.w3.org/2000/svg" xmlns:xlink="http://www.w3.org/1999/xlink" x="0px" y="0px" viewBox="0 0 512 512"
	 style="enable-background:new 0 0 512 512;" xml:space="preserve">
<style type="text/css">
	.st0{fill:#FFFFFF;}
</style>
<path class="st0" d="M319.5,0l-5.2,64.5L179.5,170.7l-16.3-84.4l62.7-34.6L319.5,0z M171,181.4l-1.4-2.8l0.8-0.6l-15-77.5
	L94.7,231.8l91.2,209.9L171,181.4z M329.5,5.6l-2.2,27.4l-2.6,31.5l78.7,48.1l1.3,0.8l-49.7-71.3L329.5,5.6z M259.6,487.8L330,512
	L182.7,205.9l15,260.8L259.6,487.8z M182.5,181.6l157.6,327.6l3.6-7.1l18.3-36.8l42-252l13.3-80l-11-6.7l-86.7-53.1L182.5,181.6z"/>
</svg>
