<svg xmlns="http://www.w3.org/2000/svg" xml:space="preserve" viewBox="0 0 512 512"><path d="M198.9 298.9c13.1-3.9 34.3-9.8 58.5-11.4-13-30.8-18.2-64.4-15.3-97.7 3.3-33 15.1-60.8 26.5-84.2l6.9-14.3 9-18.4c4.7-10 8.2-18.8 9.8-27.1 1.6-8.2 1.6-15.3-.4-22.2s-6.1-14.3-14.3-22.4c-11.1-3-23-.2-31.6 7.5l-105.6 95c-5.9 5.3-9.8 12.4-11 20.4l-9 60.4c34 31.6 60.2 70.8 76.5 114.4M118.1 212l-2 6.1-55.9 124.4c-5.7 12.8-3.1 27.8 6.5 37.9l87.9 90.3c37.3-51.5 44.1-119 17.9-177-13.1-30.2-31.5-57.9-54.4-81.7M175 481.6l4.7.4c16.5.4 44.7 2 67.3 6.1 18.6 3.5 55.5 13.7 85.6 22.4 23 6.9 46.9-11.6 50.2-35.5 2.4-17.3 7.1-36.9 15.5-55.1-9.9-31.4-27.7-59.6-51.8-82-16.7-14.5-37.2-23.8-59.1-26.7-27.7-2.7-55.7.5-82 9.6 13.5 55.5 2.3 114-30.6 160.7h.2zm238-86.1c19-28.5 32.6-51 39.6-63.2 3.4-6 2.9-13.4-1.2-19-17.2-22.2-31.9-46.3-43.6-71.8-11.8-28.3-13.5-72.2-13.7-93.4 0-8.2-2.4-16.1-7.5-22.4L318.3 39c0 3.9-.8 7.7-1.6 11.6-2.6 11-6.4 21.7-11.4 31.8l-9.4 19.6-6.7 13.5c-12.6 23.8-20.7 49.7-24.1 76.5-2.8 32.9 3.2 66 17.3 95.8 29.2 2.2 57 13.8 79.1 33 22.6 20.7 40.3 46.2 51.5 74.7" style="fill:#a079ff"/></svg>