<?xml version="1.0" encoding="utf-8"?>
<!-- Generator: Adobe Illustrator 28.2.0, SVG Export Plug-In . SVG Version: 6.00 Build 0)  -->
<svg version="1.1"
	 id="svg5" xmlns:sodipodi="http://sodipodi.sourceforge.net/DTD/sodipodi-0.dtd" xmlns:inkscape="http://www.inkscape.org/namespaces/inkscape" xmlns:svg="http://www.w3.org/2000/svg"
	 xmlns="http://www.w3.org/2000/svg" xmlns:xlink="http://www.w3.org/1999/xlink" x="0px" y="0px" viewBox="0 0 512 512"
	 style="enable-background:new 0 0 512 512;" xml:space="preserve">
<style type="text/css">
	
		.st0{fill:url(#path239_00000026841551367004019330000006917318957780359589_);stroke:url(#path239_00000059990294911499279350000016428729831326739609_);stroke-width:0.394;stroke-miterlimit:11.3386;}
</style>
<linearGradient id="path239_00000132783183561666235860000008901280622221453246_" gradientUnits="userSpaceOnUse" x1="-376.827" y1="315.9163" x2="-271.043" y2="437.8609" gradientTransform="matrix(2.8346 0 0 2.8346 1208.0052 -831.7925)">
	<stop  offset="0" style="stop-color:#9B58DC"/>
	<stop  offset="1" style="stop-color:#321C92"/>
</linearGradient>
<linearGradient id="path239_00000084511651114472772630000005001379910365974973_" gradientUnits="userSpaceOnUse" x1="-376.557" y1="316.2275" x2="-271.302" y2="437.5625" gradientTransform="matrix(2.8346 0 0 2.8346 1208.0052 -831.7925)">
	<stop  offset="0" style="stop-color:#9B58DC"/>
	<stop  offset="1" style="stop-color:#321C92"/>
</linearGradient>
<path id="path239" style="fill:url(#path239_00000132783183561666235860000008901280622221453246_);stroke:url(#path239_00000084511651114472772630000005001379910365974973_);stroke-width:0.394;stroke-miterlimit:11.3386;" d="
	M349.7,487.9c-6.5-3.4-44.3-24.4-221.4-122.7C79,337.8,31.5,311.5,22.8,306.7C3,295.8,0,293.1,0,286.6c0-3.4,7.9-25.4,26.4-73.5
	c14.5-37.7,27.4-70.8,28.5-73.5c2.7-6.1,7-11.3,11.2-13.5c3.9-2,102.4-38,107.5-39.2c5.4-1.3,10.1,1.2,12.9,7.1
	c1.3,2.8,6.8,17.2,12.2,32.1s13.4,36.8,17.9,48.8c10.1,27.5,10.5,31.4,3.5,35.5c-1.9,1.1-14.1,5.9-27.1,10.6s-25.4,9.6-27.6,10.9
	c-5,2.9-5.7,7.4-1.8,11c1.6,1.4,26.6,15.7,55.6,31.7c81.2,44.8,76.7,42.7,82.1,36.9c2.7-2.9,51.1-126.2,53.9-137.2
	c1.2-4.7,1.1-5.3-1.5-7.4c-3.5-2.8-3-2.9-34.8,8.3c-31.6,11.2-34.6,11.4-38.8,3.1c-2.2-4.4-36.2-97.8-38.3-105.3
	c-1.4-4.9,0.3-9.5,4.4-12.2c1.7-1.1,26.5-10.6,55-21.1c42.4-15.6,53.1-19.1,58.7-19.2c7.1-0.1,8,0.4,138.4,72.5
	c9,5,13.9,10.3,13.9,15.1c0,1.9-32.3,87.7-71.8,190.5c-55.7,145.1-72.5,187.6-75,189.8C361.1,492.3,357.7,492.1,349.7,487.9
	L349.7,487.9z"/>
</svg>
