<?xml version="1.0" encoding="utf-8"?>
<!-- Generator: Adobe Illustrator 28.2.0, SVG Export Plug-In . SVG Version: 6.00 Build 0)  -->
<svg version="1.1"
	 id="svg5" xmlns:svg="http://www.w3.org/2000/svg" xmlns:inkscape="http://www.inkscape.org/namespaces/inkscape" xmlns:sodipodi="http://sodipodi.sourceforge.net/DTD/sodipodi-0.dtd"
	 xmlns="http://www.w3.org/2000/svg" xmlns:xlink="http://www.w3.org/1999/xlink" x="0px" y="0px" viewBox="0 0 512 512"
	 style="enable-background:new 0 0 512 512;" xml:space="preserve">
<style type="text/css">
	.st0{fill:#FFFFFF;}
</style>
<path id="path239_00000106866487664600971360000017585384435619970179_" class="st0" d="M349.7,487.9
	c-6.5-3.4-44.3-24.4-221.4-122.7C79,337.8,31.5,311.5,22.8,306.7C3,295.8,0,293.1,0,286.6c0-3.4,7.9-25.4,26.4-73.5
	c14.5-37.7,27.4-70.8,28.5-73.5c2.7-6.1,7-11.3,11.2-13.5c3.9-2,102.4-38,107.5-39.2c5.4-1.3,10.1,1.2,12.9,7.1
	c1.3,2.8,6.8,17.2,12.2,32.1s13.4,36.8,17.9,48.8c10.1,27.5,10.5,31.4,3.5,35.5c-1.9,1.1-14.1,5.9-27.1,10.6s-25.4,9.6-27.6,10.9
	c-5,2.9-5.7,7.4-1.8,11c1.6,1.4,26.6,15.7,55.6,31.7c81.2,44.8,76.7,42.7,82.1,36.9c2.7-2.9,51.1-126.2,53.9-137.2
	c1.2-4.7,1.1-5.3-1.5-7.4c-3.5-2.8-3-2.9-34.8,8.3c-31.6,11.2-34.6,11.4-38.8,3.1c-2.2-4.4-36.2-97.8-38.3-105.3
	c-1.4-4.9,0.3-9.5,4.4-12.2c1.7-1.1,26.5-10.6,55-21.1c42.4-15.6,53.1-19.1,58.7-19.2c7.1-0.1,8,0.4,138.4,72.5
	c9,5,13.9,10.3,13.9,15.1c0,1.9-32.3,87.7-71.8,190.5c-55.7,145.1-72.5,187.6-75,189.8C361.1,492.3,357.7,492.1,349.7,487.9
	L349.7,487.9z"/>
<path class="st0" d="M359.3,491.4c-2.5,0-5.4-1.1-9.7-3.3l0,0c-6-3.1-39.6-21.8-181.2-100.4l-40.2-22.3
	c-50.6-28.1-97.5-54.1-105.5-58.5c-19.9-11-22.9-13.6-22.9-20.3c0-3.4,7.9-25.4,26.4-73.6c14.8-38.5,27.4-70.9,28.5-73.5
	c2.7-6.2,7.1-11.4,11.3-13.6c4.2-2.2,102.7-38.1,107.5-39.2c5.5-1.3,10.3,1.3,13.1,7.2c1.4,3,7.1,18,12.2,32.1
	c5.5,15.3,13.5,37.1,17.9,48.8c10.1,27.6,10.5,31.6,3.4,35.7c-2,1.1-14.7,6.1-27.1,10.6c-13,4.7-25.4,9.6-27.6,10.9
	c-2.5,1.4-4,3.3-4.2,5.3c-0.2,1.8,0.6,3.7,2.4,5.3c1.5,1.3,25.6,15.1,55.6,31.7l9.7,5.4c67.2,37.1,67.2,37.1,71.4,32.4
	c0.2-0.3,0.5-0.5,0.8-0.8c2.7-2.9,51-125.9,53.9-137.1c1.2-4.6,1.1-5.2-1.4-7.2l-0.1-0.1c-3.2-2.6-3.2-2.6-32.7,7.8l-1.7,0.6
	c-31.5,11.2-34.8,11.4-39,3c-2.2-4.5-36.3-98-38.3-105.3c-1.4-4.9,0.3-9.7,4.5-12.4c1.7-1.1,25.9-10.4,55-21.1
	c42.7-15.7,53.1-19.1,58.8-19.2c7.2-0.1,7.1-0.1,138.2,72.4l0.3,0.1c9.2,5.1,14,10.4,14,15.3c0,2-32.9,89.3-71.8,190.6
	c-55.7,145.1-72.5,187.6-75.1,189.9C363.5,490.5,361.6,491.4,359.3,491.4z M176.3,86.8c-0.9,0-1.7,0.1-2.7,0.3
	c-4.8,1.1-103.2,37-107.5,39.2c-4.2,2.2-8.4,7.3-11.1,13.4c-1.1,2.6-13.7,35-28.5,73.5c-18.5,48.1-26.4,70-26.4,73.4
	c0,6.5,3,9.1,22.7,19.9c8,4.4,54.9,30.4,105.5,58.5l40.2,22.3c141.6,78.6,175.3,97.3,181.2,100.4l0,0c8,4.2,11.3,4.3,15.5,0.5
	c2.5-2.2,19.3-44.7,74.9-189.7c42.3-110,71.7-188.6,71.8-190.4c0-4.7-4.9-10-13.8-14.9l-0.3-0.1c-131-72.4-131-72.4-138-72.3
	c-5.5,0.1-16.5,3.7-58.6,19.2c-28.7,10.6-53.3,20-55,21.1c-4.1,2.7-5.7,7.2-4.3,12c2,7.3,36,100.8,38.3,105.3c4.2,8.2,7,8,38.6-3.2
	l1.7-0.6c29.7-10.5,29.7-10.5,33.1-7.8l0.1,0.1c2.7,2.2,2.8,2.8,1.6,7.6c-2.9,11.2-51.3,134.4-53.9,137.3c-0.3,0.3-0.5,0.6-0.7,0.8
	c-4.3,4.9-4.3,5-71.9-32.3l-9.7-5.4c-27.9-15.4-53.9-30.2-55.6-31.7c-1.9-1.7-2.8-3.7-2.5-5.7c0.2-2.1,1.8-4.1,4.4-5.6
	c2.2-1.3,14.6-6.2,27.6-10.9c12.5-4.5,25.1-9.5,27.1-10.6c6.8-4,6.4-8-3.6-35.3c-4.4-11.7-12.4-33.5-17.9-48.8
	c-5.7-15.6-11-29.5-12.2-32.1C184.1,89.3,180.5,86.8,176.3,86.8z"/>
</svg>
