<?xml version="1.0" encoding="utf-8"?>
<!-- Generator: Adobe Illustrator 28.2.0, SVG Export Plug-In . SVG Version: 6.00 Build 0)  -->
<svg version="1.1"
	 id="svg5" xmlns:sodipodi="http://sodipodi.sourceforge.net/DTD/sodipodi-0.dtd" xmlns:inkscape="http://www.inkscape.org/namespaces/inkscape" xmlns:svg="http://www.w3.org/2000/svg"
	 xmlns="http://www.w3.org/2000/svg" xmlns:xlink="http://www.w3.org/1999/xlink" x="0px" y="0px" viewBox="0 0 512 512"
	 style="enable-background:new 0 0 512 512;" xml:space="preserve">
<style type="text/css">
	.st0{fill:#FFFFFF;}
</style>
<path class="st0" d="M498.6,92.8l-0.3-0.1c-131.1-72.5-131-72.5-138.2-72.4c-5.7,0.1-16.1,3.5-58.8,19.2c-29.1,10.7-53.3,20-55,21.1
	c-2.9,1.9-4.6,4.7-4.9,7.9c0,0,0,0.1,0,0.1c0,0.2,0,0.5,0,0.8c0,1.1,0.1,2.3,0.5,3.5c0,0,0,0.1,0,0.1c0.9,3.2,7.8,22.5,15.5,43.8
	c10.1,27.8,21.5,58.9,22.8,61.4c0,0,0,0,0,0c4.2,8.4,7.5,8.2,39-3l1.7-0.6c29.5-10.4,29.5-10.4,32.7-7.8l0.1,0.1
	c2.5,2,2.6,2.6,1.4,7.2c-2.9,11.2-51.2,134.2-53.9,137.1c-0.3,0.3-0.6,0.5-0.8,0.8c-4.2,4.7-4.2,4.7-71.4-32.4l-9.7-5.4
	c-30-16.6-54.1-30.4-55.6-31.7c-1.8-1.6-2.6-3.5-2.4-5.3c0.2-2,1.7-3.9,4.2-5.3c2.2-1.3,14.6-6.2,27.6-10.9
	c12.4-4.5,25.1-9.5,27.1-10.6c7.1-4.1,6.7-8.1-3.4-35.7c-4.4-11.7-12.4-33.5-17.9-48.8c-5.1-14.1-10.8-29.1-12.2-32.1
	c-2.8-5.9-7.6-8.5-13.1-7.2c-4.8,1.1-103.3,37-107.5,39.2s-8.6,7.4-11.3,13.6c-1.1,2.6-13.7,35-28.5,73.5
	C7.7,261.2-0.2,283.2-0.2,286.6c0,6.7,3,9.3,22.9,20.3c8,4.4,54.9,30.4,105.5,58.5l40.2,22.3C310,466.3,343.6,485,349.6,488.1
	c4.3,2.2,7.2,3.3,9.7,3.3c2.3,0,4.2-0.9,6.4-2.8c2.6-2.3,19.4-44.8,75.1-189.9c38.9-101.3,71.8-188.6,71.8-190.6
	C512.6,103.2,507.8,97.9,498.6,92.8z M284,183.2c1.9,1.1,4.5,1.2,8.8,0.3C288.5,184.4,285.9,184.3,284,183.2z M353.7,166.9
	c0.5,0.4,0.9,0.7,1.2,1.1C354.6,167.7,354.2,167.3,353.7,166.9z M165.4,231.9C165.4,231.9,165.4,231.9,165.4,231.9
	C165.4,231.9,165.4,231.9,165.4,231.9c2.2-1.3,14.6-6.2,27.6-10.9c3.2-1.1,6.3-2.3,9.2-3.4c-3,1.1-6.1,2.3-9.2,3.4
	C180,225.7,167.6,230.6,165.4,231.9z M220.1,210.4C220.1,210.4,220.1,210.4,220.1,210.4C220.1,210.4,220.1,210.4,220.1,210.4
	C220.1,210.4,220.1,210.4,220.1,210.4C220.1,210.4,220.1,210.4,220.1,210.4z"/>
</svg>
