<?xml version="1.0" encoding="utf-8"?>
<!-- Generator: Adobe Illustrator 28.2.0, SVG Export Plug-In . SVG Version: 6.00 Build 0)  -->
<svg version="1.1" id="octobot-logo" xmlns="http://www.w3.org/2000/svg" xmlns:xlink="http://www.w3.org/1999/xlink" x="0px"
	 y="0px" viewBox="0 0 512 512" style="enable-background:new 0 0 512 512;" xml:space="preserve">
<style type="text/css">
	.st0{fill:#FFFFFF;}
</style>
<path class="st0" d="M368.4,228.2L368.4,228.2c-7,0-10.3-8.2-12-15.1c-2.4-9.7-2.4-25.4-0.8-35.1c1.2-6.9,5.7-12.8,12.8-12.8l0,0
	c7,0,10,5.2,11.9,12.4c4.6,17.3,2.5,30,0.9,37.7C379.7,222.3,375.4,228.2,368.4,228.2z M145.1,227.6L145.1,227.6
	c7,0,10.4-8.2,12.1-15c2.5-9.7,2.5-25.4,0.9-35.1c-1.1-6.9-5.7-12.8-12.7-12.8l0,0c-7,0-10,5.1-12,12.4c-4.7,17.3-2.7,30-1.1,37.7
	C133.8,221.7,138,227.6,145.1,227.6L145.1,227.6L145.1,227.6z M244,115.4l12.8,10.9l12.8-10.9l12.8-10.9c0,0,8.6-26.5,8.5-26.6
	c-0.3-0.1-0.6-0.2-0.8-0.3c-0.5-0.1-0.9-0.3-1.4-0.4c-10.1-3-20.9-4.6-32-4.6c-12,0-23.4,1.9-34.2,5.3l8.5,26.6L244,115.4L244,115.4
	L244,115.4z M218.3,179.5c8.2-1.9,16.9,5.5,19.4,16.5c2.5,11-2,21.4-10.2,23.3s-16.9-5.5-19.4-16.5
	C205.6,191.8,210.1,181.4,218.3,179.5z M275.9,196c2.5-11,11.2-18.3,19.4-16.5c8.2,1.9,12.8,12.3,10.2,23.3s-11.2,18.3-19.4,16.5
	C277.9,217.4,273.4,207,275.9,196z M481.5,69.9c-73.1-1.2-42.7,68.4-39.2,100.3c9.2,85.5-73.1,69.4-82,67.4c1.8-2.5,3.5-5.1,4.9-7.9
	c0.3-0.6,0.6-1.1,0.8-1.7c0-0.1,0.1-0.2,0.1-0.3c0.4-0.4,0.6-1,0.8-1.7c-1.6,0.9-3.5,1.5-5.6,1.5c-7,0-10.3-8.2-12-15.1
	c-2.4-9.7-2.4-25.4-0.8-35.1c1.2-6.9,5.7-12.8,12.8-12.8c1.2,0,2.3,0.2,3.3,0.5c-1.8-14.9-6.8-28.8-14.4-41.1
	c-1.7-2.8-3.6-5.6-5.6-8.2c-6.7-8.8-14.8-16.6-24-23.1c-2.8-1.9-5.6-3.7-8.5-5.4c-2.9-1.7-6-3.2-9.1-4.6c-3.6,11.2-8,24.5-8,24.5
	l-19.1,16.1l-19.1,16.1l-19.1-16.1l-19.1-16.1l-7.9-24.5c-3.1,1.4-6.2,3-9.1,4.6c-15.8,9-29,21.7-38.3,36.9
	c-7.6,12.3-12.6,26.3-14.3,41.2c1.1-0.4,2.3-0.6,3.7-0.6c7,0,11.6,5.9,12.7,12.8c1.6,9.7,1.5,25.4-0.9,35.1c-1.7,6.8-5.1,15-12.1,15
	c-2.2,0-4-0.6-5.7-1.6c0.2,0.6,0.4,1.2,0.7,1.7c0,0.1,0.1,0.2,0.1,0.3c0.3,0.6,0.5,1.2,0.8,1.7c2.8,5.2,6.3,10,10.4,14.3
	c-13.3,14.3-50.1-19-52.8-70.2c-4-79.8-56.6-83.7-67.7-83.9c-11.1-0.2-32.6,5-37.3,25.1c-4.1,17.5,6.9,43.2,21,40.8
	c14.7-2.6,5.2-25.6,6-32.3c1.3-10.7,14.9-13.8,23.8-6.6c23.5,18.8,23.2,32.2,21,101.3c-1.6,50.2,45.5,75,70.7,75
	c17.6,0,32.5-15.4,39.2-27.1c-7.8,16.3-32.7,56.5-77.4,21.8c-15.6-12.1-37.5-41.8-67.4-29.2c-16.3,6.9-50.5,54.9-12.5,84.4
	c17.7,11.5,24.5-6.3,21.6-13.2c-2.7-6.6-12.3-15-12.2-21.6c0.6-20.2,11.9-25.7,24.7-23.2c8.8,1.7,15.1,14.3,28.5,29.8
	c17.6,20.2,62.2,41.4,95.6,19.4c14.1-10.4,26.7-22.5,30.3-57c2.5,8.6,5,29.4-14.8,54.9c-31.4,40.5-23.5,74-20.1,83.6
	c14.1,39.6,78.8,28,91.1,7.8c8.7-14.3-0.6-26.5-16.5-16.5c-9.1,7.7-21.8,18.1-38.8,7.8c-17-10.3-6.5-32.5,0.4-40.5
	c16.8-19.6,39.7-24.9,44.6-52.5c2.9-16.5-1.1-25.6-3.1-33.8c9.1,26.4,34.6,77.1,93.5,62.6c30.7-5.5,88.4-16.5,84.1,11.7
	c-2,13.2-17.6,12.2-28,25.4c-5.4,6.9,1.4,19.3,18.6,11.7c32.3-14.4,45.7-86.4-21.5-82.9c-18.3,1.4-96.5,4.4-103.6-37.8
	c4.5,9.1,13.1,17.8,22.6,26c21.6,9.4,50.2,10.7,68.5,10.3c-3.2-5.4-7.2-10.4-11.8-14.9c-13.5-12.7-23.9-21.7-31.7-28
	c37.2,23.4,66.5,19.3,88.1,7.9c80-42.6,28.3-152.4,23.5-165c-11-28.7,31.4-34,25.1-10.4c-9.1,33.9,19,25.9,26,8.8
	C516.3,98.1,507.8,69.9,481.5,69.9z M199.7,136.9c23.6,4.5,27.3,8.5,57.4,10.1c30.1-1.6,33.8-5.5,57.4-10.1
	c4.5-0.9,29.6,2.2,24.1,20.5c-4.2,14-14.3,18.4-14.8,36.7c-0.6,22.1,18.1,34.2,10.3,40.6c-17.7,15.8-53.4,21.3-77,20.6
	c-23.6,0.6-59.3-4.8-77-20.6c-7.9-6.4,10.9-18.5,10.3-40.6c-0.5-18.3-10.6-22.7-14.8-36.7C170.1,139.1,195.2,136,199.7,136.9z
	 M368.8,349.8c2.6,8.4,2.5,20.3-7.2,32.8c-12.3,15.7-20.6,12.7-33.1-1c-8.5-9.3-20.3,0.5-11.5,14.5c11.6,18.3,52.8,23.2,72.5-10.5
	c7.6-13,10.8-26.6,10.4-39.5C389.8,346.6,379,348.1,368.8,349.8z"/>
</svg>
