<svg xmlns="http://www.w3.org/2000/svg" xml:space="preserve" viewBox="0 0 512 512"><path d="M485.9 180q-2.25-3-4.2-5.7c-4.6-6.2-8.3-11.1-11.3-14.8-2.3-3.9-4.9-7.3-7.6-10.1-11.8-13.2-25.6-25.5-39.9-35.5l-.2-.1c-17.4-11-34.3-18.4-51.9-22.5-13.7-4.6-28.2-7.3-45.8-8.5h-.3c-3.9 0-7.9 0-11.6.5-24.9 2.9-32.2 3.8-35.2 4.9-15.2 3.2-28.6 7.9-40.9 14.2-34 17.3-52.3 28.7-60.9 38.1-6.5 5.6-12.5 12-18.2 19.6l-.1.1c-13.2 18.6-23.9 38.6-31.6 59.3l-.1.2c-21.3 65.9-12.8 135.1 25.2 205.7 10.4 19.9 19.2 40.8 26.9 63.9H45.5C25.9 442.4 13 402.7 6.8 368.8c-10.1-55-9.1-111.9 2.8-166.3 14.8-40.2 40.1-76.1 73.6-103.3C139.6 49 201.8 24.1 270.6 22.7c37.3-1 74.6 5.7 110 19.5 17.2 6.7 33.5 15.8 48.8 26.8 17.2 12.5 26.2 18.7 27.2 20.1 4.3 3.8 13.9 16.3 30.7 36.4 7.7 10.5 14.9 26.3 20.6 49.7 4.3 15.3 5.3 32 2.9 47.8-1.9-4.2-3.7-8.4-6-12.1m-48.6-55.3-.2-.2c-11.3-12.7-24.6-24.5-38.3-34.1-16.5-10.5-32.6-17.4-49.2-21.4l-.4-.1c-12.9-4.4-26.7-7-43.5-8.1-3.7 0-7.2 0-10.2.5h-.1c-16.3 1.9-30.5 3.6-33 4.4l-.4.2-.6.1c-14.6 3-27.3 7.5-39.1 13.5-32.8 16.7-50.9 27.9-58.5 36.3l-.4.4c-6.1 5.2-11.6 11.2-17 18.3-12.7 18-23 37.2-30.5 57.1-20.5 63.4-12.2 130.2 24.6 198.6 10.4 19.9 19.2 40.7 27 63.6h129.4c-5.7-15.4-12.6-30.3-20.4-44.4l-.1-.1c-8.5-16.7-17.5-32.5-27.5-48.5l-.7-1.1v-.6c-1.2-2.3-2.4-3.9-3.9-5.4l-.3-.2-3.2-4.2-5.9-8.5-6.6-11.8c-5.3-7.3-9.8-13.6-13.7-19.1-1.9-2.7-3.7-5.2-5.3-7.5l-.2-.3c-1.6-2.7-3.3-5.4-4.9-8-2.6-4.3-5.1-8.4-7.5-12.6-37.5-55.4-34-103.9 10.4-144.3l.2-.2c13.3-10.8 28.4-19.6 44.7-26 9.8-4 20.1-7.4 32.5-10.7l.6-.1c61.1-8.1 117 6.6 166.7 43.6" style="fill:#fff"/></svg>