<?xml version="1.0" encoding="utf-8"?>
<!-- Generator: Adobe Illustrator 28.2.0, SVG Export Plug-In . SVG Version: 6.00 Build 0)  -->
<svg version="1.1" id="Layer_1" xmlns:serif="http://www.serif.com/"
	 xmlns="http://www.w3.org/2000/svg" xmlns:xlink="http://www.w3.org/1999/xlink" x="0px" y="0px" viewBox="0 0 512 512"
	 style="enable-background:new 0 0 512 512;" xml:space="preserve">
<style type="text/css">
	.st0{fill-rule:evenodd;clip-rule:evenodd;fill:url(#SVGID_1_);}
	.st1{fill:#FFFFFF;}
	.st2{fill:none;}
	.st3{fill:#F9F9F9;}
</style>
<g>
	
		<linearGradient id="SVGID_1_" gradientUnits="userSpaceOnUse" x1="-703.8353" y1="796.0007" x2="-703.36" y2="796.0007" gradientTransform="matrix(759.79 1818.8533 1818.8533 -759.79 -912898.0625 1884952.75)">
		<stop  offset="0" style="stop-color:#EF1970"/>
		<stop  offset="0.14" style="stop-color:#F23B5C"/>
		<stop  offset="0.44" style="stop-color:#F77D35"/>
		<stop  offset="0.7" style="stop-color:#FCAD18"/>
		<stop  offset="0.89" style="stop-color:#FECB07"/>
		<stop  offset="1" style="stop-color:#FFD600"/>
	</linearGradient>
	<circle class="st0" cx="256" cy="256" r="256"/>
	<path class="st1" d="M58.9,189.6c-1.5-2-4.5-3-6.4-1.5s-3,4.5-1.5,6.4c1.5,2,4.5,3,6.4,1.5C59.9,194.6,60.4,191.6,58.9,189.6"/>
	<path class="st1" d="M333.7,66.4c-1.5-2-4.5-3-6.4-1.5c-2,1.5-3,4.5-1.5,6.4c1.5,2,4.5,3,6.4,1.5C334.7,71.8,335.2,68.8,333.7,66.4
		"/>
	<path class="st1" d="M390.7,251c-0.5,3,1,5.9,4,6.4c3,0.5,5.9-1,6.4-4c0.5-3-1-5.9-4-6.4C394.1,246.1,391.2,248.1,390.7,251"/>
	<path class="st1" d="M308.5,434.3c-0.5,2.5,1,4.5,3,5c2.5,0.5,4.5-1,5-3c0.5-2-1-4.5-3-5C311.5,430.8,309.5,431.8,308.5,434.3"/>
	<path class="st1" d="M95.1,105c-0.5,1.5,0.5,3,2,3c1.5,0.5,3-0.5,3-2c0.5-1.5-0.5-3-2-3C96.6,103,95.1,103.5,95.1,105"/>
	<path class="st1" d="M108.4,346.6c-0.5-2-2.5-3.5-4-3c-2,0.5-3.5,2.5-3,4c0.5,2,2.5,3.5,4,3C107.5,350.6,108.4,348.6,108.4,346.6"
		/>
	<path class="st2" d="M216.9,50.5c0,0-40.6,10.9-37.1,54c3,38.1,23.3,58.9,64.9,42.6c41.6-16.3,49-27.2,38.6-58.9
		C272.8,56.4,261,35.2,216.9,50.5L216.9,50.5z"/>
	<path class="st1" d="M452.6,414.5c-1.5-3-31.7-49.5-35.7-88.6c-3-27.2-38.1-56.9-59.4-72.8c-6.9-5-7.9-14.9-3-21.8
		c0.5-0.5,1-1.5,2-2c20.8-19.8,57.9-58.4,69.8-78.7c10.9-21.3,16.8-45.1,16.8-68.8c-14.4-15.3-30.7-29.2-48.5-40.6
		c-17.3,8.4-21.8,35.2-29.2,65.9c-10.4,42.1-34.7,37.1-44.6,37.1s-4-14.9-26.7-80.7c-22.8-65.9-82.7-49.5-128.2-22.3
		c-57.9,34.7-32.2,108.4-17.8,156c-7.9,7.9-38.6,13.9-66.4,28.7C47.5,244.1,11.9,274.3,3,287.7c2.5,18.8,6.4,36.6,12.9,54.5
		c2,2,4.5,3.5,6.9,4.5c16.3,7.4,40.1-5.4,62.9-28.7c6.9-6.9,14.4-12.4,22.8-17.3c18.3-11.9,37.6-20.8,58.4-27.2
		c0,0,22.3,34.2,43.1,74.8c20.8,40.6-22.3,54-27.2,54s-72.3-6.4-57.4,51c14.9,57.4,97.5,36.6,139.6,8.9
		c42.1-27.7,31.7-118.3,31.7-118.3c41.1-6.4,54,37.1,57.9,59.4c4,22.3-5,60.9,36.6,61.9c5.9,0,11.9-1,17.3-2.5
		c15.8-11.9,30.7-25.3,43.1-40.6C452.1,419.4,452.6,416.9,452.6,414.5L452.6,414.5z M244.6,147.1c-42.1,15.8-62.4-5-64.9-42.6
		c-3-42.6,37.1-54,37.1-54c44.6-14.9,56.4,6.4,66.8,38.1C294.1,120.3,286.2,131.2,244.6,147.1z"/>
	<path class="st1" d="M452.1,190.1l-11.4,5.4l-3,12.9l-5.4-11.4l-12.9-3l11.4-5.4l3-12.9l5.4,11.4L452.1,190.1z"/>
	<path class="st3" d="M268.4,96.1c2.5,5.4,3.5,11.9,2,17.8"/>
	<path class="st1" d="M270.4,119.3l-1,0c-3-0.5-5-3.5-4.5-6.4c1.5-5,0.5-10.4-1.5-14.9c-1-3,0.5-5.9,3.5-6.9c2.5-1,5,0.5,6.4,2.5
		c3,6.4,4,13.9,2,20.8C275.3,117.4,272.8,119.3,270.4,119.3z"/>
	<path class="st3" d="M255.5,66.4c1.5,2,3,4,4,5.9"/>
	<path class="st1" d="M259.5,77.7c-2,0-4-1-5-3s-2-3.5-3-5c-2-2-2-5.4,0-7.4c2-2,5.4-2,7.4,0c2,2.5,3.5,5,5,7.4
		c1.5,2.5,0.5,5.9-2.5,7.4C260.5,77.2,260,77.7,259.5,77.7z"/>
</g>
</svg>
