<svg xmlns="http://www.w3.org/2000/svg" xml:space="preserve" viewBox="0 0 512 512"><linearGradient id="oikos_svg__a" x1="0" x2="512" y1="514" y2="2" gradientTransform="matrix(1 0 0 -1 0 514)" gradientUnits="userSpaceOnUse"><stop offset="0" style="stop-color:#0a84ff"/><stop offset="1" style="stop-color:#006ae0"/></linearGradient><path d="M115.2 0h281.6C460.4 0 512 51.6 512 115.2v281.6c0 63.6-51.6 115.2-115.2 115.2H115.2C51.6 512 0 460.4 0 396.8V115.2C0 51.6 51.6 0 115.2 0" style="fill:url(#oikos_svg__a)"/><path d="M358.4 199v-45.4c0-3.5-2.9-6.4-6.4-6.4h-25.6c-3.5 0-6.4 2.9-6.4 6.4v14l-64-52.4-140.8 115.2V384c0 7 5.8 12.8 12.8 12.8h89.6v-89.6h76.8v89.6H384c7 0 12.8-5.8 12.8-12.8V230.4z" style="fill:#fff"/></svg>