<svg xmlns="http://www.w3.org/2000/svg" xml:space="preserve" viewBox="0 0 512 512"><path d="M218.5 269.3V133h-31v240.1h31zm106 92.3c0-11.5-2.9-24.5-8.7-36.1-7.9-11.5-11.5-18.7-17.3-24.5-5-5-8.7-7.9-11.5-8.7l-8.7-5c26-14.4 41.8-35.3 47.6-60.6l2.9-14.4h-33.2l-1.4 10.8c-2.9 14.4-10.8 27.4-24.5 36.1-10.8 8.7-23.1 11.5-35.3 14.4V301c14.4 1.4 26 7.9 36.1 14.4 11.5 10.8 21.6 24.5 23.1 43.3l1.4 11.5h29.6zM480.3 133v155.1c0 17.3-5 30.3-15.9 43.3-11.5 12.3-24.5 17.3-39.7 17.3s-27.4-5-38.9-15.9c-10.8-10.8-15.9-24.5-15.9-38.9 0-15.9 5-29.6 17.3-39.7 10.8-10.8 26-17.3 41.8-17.3h5c1.4 0 5 0 8.7 1.4 5 1.4 10.8 2.9 17.3 7.9v-32.5c-7.9-2.9-14.4-5-18.7-5-2.9-1.4-7.9-1.4-15.9-1.4-26 0-46.2 7.9-63.5 23.1-15.9 15.9-24.5 35.3-24.5 60.6s8.7 46.2 24.5 60.6c15.9 15.9 36.1 23.1 60.6 23.1 23.1 0 39.7-5 53.4-17.3v17.3H512V133z"/><path d="M144.9 232.6c-17.3-15.9-37.5-24.5-59.9-24.5-21.6 0-44.7 4.3-59.9 21.6S0 267.2 0 290.3s8.7 44 24.5 63.5C43.3 369.6 60.6 379 84.4 379s43.3-8.7 59.9-24.5c15.9-18 24.5-37.5 24.5-60.6.7-24.6-6.5-45.5-23.9-61.3M84.4 346.5c-30.3 0-55.5-24.5-55.5-55.5 0-30.3 24.5-55.5 55.5-55.5 30.3 0 55.5 24.5 55.5 55.5s-24.5 55.5-55.5 55.5" style="fill:#f22b29"/></svg>