<svg xmlns="http://www.w3.org/2000/svg" xml:space="preserve" viewBox="0 0 512 512"><ellipse cx="256" cy="256" rx="256" ry="83.1" style="fill:#fff"/><path d="M312.2 263.6h13.5l-6.8-25.4zm-127.5-26h-3.4v36.9h3.4c4 .6 7.9-1.2 10.1-4.6 4.4-8.8 4.4-19.1 0-27.9-2.2-3.2-6.2-5-10.1-4.4m-94.8-1.1c-9.5 0-11.2 13.2-11.2 19.8s2.9 19 11.2 19 11.3-12.5 11.3-19-1.8-19.8-11.3-19.8M256 172.9C114.6 172.9 0 210.1 0 256s114.6 83.1 256 83.1 256-37.2 256-83.1-114.6-83.1-256-83.1M89.8 287.1c-15.8 0-25.7-13.1-25.7-30.8v-.1c0-18.7 9.8-31.3 25.8-31.3s25.8 12.6 25.7 31.3c0 17.8-9.9 30.9-25.8 30.9m69.2-.8h-35.7V226h13.8v48.6H159zm53.9-30.2v.4c.3 8.4-2.4 16.6-7.6 23.2-5.6 6.5-11.7 6.6-19.3 6.6h-19.3V226H186c7.6 0 13.6 0 19.3 6.5 5.3 6.6 8 14.9 7.6 23.3zm71.4 30.2h-13.9l-19.2-34.5v34.5h-13.9V226h13.9l19.2 35v-35h13.9zm47.5 0-3.2-11.7h-19.4l-3.1 11.7H292l16.2-60.4h21.1l16.2 60.4zm44.5 0h-18.4L342.4 226h15.3l9.4 42.1 9.5-42.1h15.3zm53.5-19.2v19.2h-15.4V267l-18-41.1h15.2l10.5 26.4 10.6-26.4h15.2z" style="fill:#003874"/></svg>