<svg xmlns="http://www.w3.org/2000/svg" xml:space="preserve" viewBox="0 0 512 512"><path d="m126 162.6-77.4-54.2q-5.55 7.65-10.5 15.6l77.8 54.4c3.1-5.4 6.5-10.7 10.1-15.8m-16.4 28.7-88.1-35.6c-3.2 7.1-6 14.4-8.5 21.9l88.7 35.8c2.1-7.6 4.7-15 7.9-22.1m-10.2 31.4-94.6-15c-1.9 9.2-3.2 18.5-4 27.9L96 250.7c.3-9.5 1.4-18.9 3.4-28M95.9 256v-.4L0 262.3c.3 11 1.3 22 3.1 32.7l96.1-6.7c-2.2-10.4-3.3-21.2-3.3-32.3m416.1 0c0 135.2-114.7 256-256.1 256-80.3 0-152-39-198.9-97.5l39.6-36.9-47 27.1c-8.5-11.6-15.9-23.8-22.4-36.6l65.2-37.6-72.5 22.1c-5-11.7-9.1-23.8-12.3-36.2l91.6-28c15 72.7 79.5 127.4 156.7 127.4 88.4 0 160-71.6 160-160s-71.7-160-160-160c-46.7 0-88.6 20-117.9 51.8L74.7 77.5C121 30.3 185.1 0 255.9 0 397.3 0 512 120.8 512 256" style="fill-rule:evenodd;clip-rule:evenodd;fill:#00a870"/></svg>