<svg xmlns="http://www.w3.org/2000/svg" xml:space="preserve" viewBox="0 0 512 512"><path d="M416 0H96C43 0 0 43 0 96v320c0 53 43 96 96 96h320c53 0 96-43 96-96V96c0-53-43-96-96-96M304 256c0 21.5-14.2 39.5-33.7 45.6l93.1 58.2c5.6-4.8 12.7-7.8 20.7-7.8 17.7 0 32 14.3 32 32s-14.3 32-32 32-32-14.3-32-32c0-2.8.5-5.4 1.1-8l-87.5-54.7V410c8.5 3.7 14.4 12.1 14.4 22 0 13.3-10.7 24-24 24s-24-10.7-24-24c0-9.8 5.9-18.3 14.4-22v-88.7L158.9 376c.7 2.6 1.1 5.2 1.1 8 0 17.7-14.3 32-32 32s-32-14.3-32-32 14.3-32 32-32c7.9 0 15.1 3 20.7 7.8l93.1-58.2c-19.5-6.1-33.7-24.1-33.7-45.6s14.2-39.5 33.7-45.6l-93.1-58.2C143.1 157 136 160 128 160c-17.7 0-32-14.3-32-32s14.3-32 32-32 32 14.3 32 32c0 2.8-.5 5.4-1.1 8l87.5 54.7V102c-8.5-3.7-14.4-12.1-14.4-22 0-13.3 10.7-24 24-24s24 10.7 24 24c0 9.8-5.9 18.3-14.4 22v88.7l87.5-54.7c-.7-2.6-1.1-5.2-1.1-8 0-17.7 14.3-32 32-32s32 14.3 32 32-14.3 32-32 32c-7.9 0-15.1-3-20.7-7.8l-93.1 58.2c19.6 6.1 33.8 24.1 33.8 45.6" style="fill:#fff"/></svg>