<svg xmlns="http://www.w3.org/2000/svg" xml:space="preserve" viewBox="0 0 512 512"><path d="M0 16.2v479.1c0 8.9 7.2 16.1 16.1 16.1h10.4c10.3 0 20.2-4.1 27.5-11.4l384.8-384.3c2.6-2.6 6.8-2.6 9.4 0 1.2 1.2 1.9 3 1.9 4.7v272.5c0 3.7-3 6.6-6.6 6.6-1.7 0-3.5-.7-4.7-1.9l-108.2-108c-6.3-6.3-16.5-6.3-22.8 0l-18.2 18.2c-6.3 6.3-6.3 16.5-.1 22.8L457 500.5c7.2 7.3 17.1 11.4 27.4 11.4h11.4c8.9 0 16.1-7.2 16.1-16.1l-.5-479.7c0-8.9-7.2-16.1-16.1-16.1h-8.1c-10.3 0-20.2 4.1-27.4 11.4l-388 387.9a6.64 6.64 0 0 1-9.4 0c-1.2-1.2-1.9-3-1.9-4.7L60.3 16c0-8.9-7.2-16-16.1-16H16.1C7.2 0 0 7.3 0 16.2"/></svg>