<?xml version="1.0" encoding="utf-8"?>
<!-- Generator: Adobe Illustrator 28.2.0, SVG Export Plug-In . SVG Version: 6.00 Build 0)  -->
<svg version="1.1"
	 id="svg1" xmlns:sodipodi="http://sodipodi.sourceforge.net/DTD/sodipodi-0.dtd" xmlns:inkscape="http://www.inkscape.org/namespaces/inkscape" xmlns:svg="http://www.w3.org/2000/svg" sodipodi:docname="kweg_monogram_centered.svg"
	 xmlns="http://www.w3.org/2000/svg" xmlns:xlink="http://www.w3.org/1999/xlink" x="0px" y="0px" viewBox="0 0 512 512"
	 style="enable-background:new 0 0 512 512;" xml:space="preserve">
<style type="text/css">
	.st0{fill:#8BA989;}
</style>
<sodipodi:namedview  bordercolor="#ffffff" borderopacity="1" id="namedview1" inkscape:current-layer="svg1" inkscape:cx="317.9871" inkscape:cy="318.30256" inkscape:deskcolor="#505050" inkscape:document-units="mm" inkscape:pagecheckerboard="1" inkscape:pageopacity="0" inkscape:showpageshadow="0" inkscape:window-height="1248" inkscape:window-maximized="0" inkscape:window-width="2416" inkscape:window-x="0" inkscape:window-y="25" inkscape:zoom="1.58497" pagecolor="#505050">
	</sodipodi:namedview>
<g id="layer2" transform="matrix(0.87313268,0,0,0.87313268,-7.4676116,-44.664489)">
	<path id="path12-2-4" class="st0" d="M8.6,69.7l0,548.7c0,10.2,8.2,18.4,18.4,18.4l11.9,0c11.8,0,23.1-4.7,31.5-13l440.7-440.1
		c3-3,7.8-3,10.8,0c1.4,1.4,2.2,3.4,2.2,5.4v312.1c0,4.2-3.4,7.6-7.6,7.6c-2,0-4-0.8-5.4-2.2L387.2,382.8c-7.2-7.2-18.9-7.2-26.1,0
		l-20.9,20.9c-7.2,7.2-7.2,18.9-0.1,26.1L532,624.4c8.3,8.4,19.6,13.1,31.4,13.1h13.1c10.2,0,18.4-8.2,18.4-18.4c0,0,0,0,0,0
		l-0.6-549.4c0-10.2-8.3-18.4-18.4-18.4h-9.3c-11.8,0-23.1,4.7-31.4,13L90.8,508.6c-3,3-7.8,3-10.8,0c-1.4-1.4-2.2-3.4-2.2-5.4
		L77.6,69.5c0-10.2-8.2-18.4-18.4-18.4c0,0,0,0,0,0L27,51.2C16.8,51.2,8.6,59.5,8.6,69.7L8.6,69.7z"/>
</g>
</svg>
