<svg xmlns="http://www.w3.org/2000/svg" xml:space="preserve" viewBox="0 0 512 512"><linearGradient id="one-hub_svg__a" x1="503.234" x2="503.234" y1="723.93" y2="407.906" gradientTransform="scale(-1 1)rotate(76.403 461.427 -46.215)" gradientUnits="userSpaceOnUse"><stop offset="0" style="stop-color:#078dee"/><stop offset="1" style="stop-color:#0351ab"/></linearGradient><path d="M273.2 174.5c-3.2 13.4-16.6 21.7-29.9 18.5s-21.4-16.7-18.1-30.1c3.2-13.4 16.6-21.7 29.9-18.5s21.4 16.7 18.1 30.1" style="fill:url(#one-hub_svg__a)"/><linearGradient id="one-hub_svg__b" x1="101.107" x2="101.107" y1="374.148" y2="58.124" gradientTransform="matrix(1 0 0 -1 0 514)" gradientUnits="userSpaceOnUse"><stop offset="0" style="stop-color:#078dee"/><stop offset="1" style="stop-color:#0351ab"/></linearGradient><path d="M201.2 253c3.3 24-1.6 48.7-15.5 68.6-.5.8-.6 1.8-.1 2.6 1.1 1.7 2.6 4.4 4.9 4.3 3.1-.1 6.2-.1 9.5.1.6 0 1.1.5 1 1.1l-.4 37.3c0 .6-.5 1.1-1.1 1.1-9.8-.1-20.5 0-32.1 0-1.3 0-2.4-.4-3.3-1.4-9.4-10.1-18.7-20.4-28.1-31-4.5-5.1-8.9-9.8-13-15.4-.4-.5-.3-1.3.3-1.6.1 0 .1-.1.2-.1 7.5-3.7 14-8.7 19.4-15 10.6-12.4 15.1-26.7 13.2-42.9-1.6-13.9-8.1-25.7-19.7-35.5-13.7-11.6-29.8-15.7-48.2-12.2-3.6.7-6.9 2.2-10.3 3.6-6.9 2.9-13 7.2-18.1 12.9-12.5 13.9-17.6 32-13.2 50.2 2.9 12.1 9.6 22.5 20.1 31.3 9.2 7.7 20.8 11.5 32.7 12.4.9.1 1.9.8 3.2 2.3 10.3 12.2 21.5 24.3 31.5 36.8.1.2.1.4-.1.5l-.1.1c-13.2 4.3-27 5.8-41.6 4.7-11.4-.9-23-4.1-34.9-9.8-10.7-5.1-19.6-11.3-26.9-18.7-10.9-11.1-19.1-23.9-24.6-38.2-6.3-16.6-7.8-33.8-4.3-51.5 1.4-7.2 3.5-14.9 6.5-21.6s6.4-12.7 10.2-18.1c14.9-21.1 34.9-34.6 60.1-40.5 19-4.5 37.8-3.3 56.4 3.4 14.8 5.4 27.5 13.4 37.9 24 15 15 25.6 35.1 28.5 56.2" style="fill:url(#one-hub_svg__b)"/><linearGradient id="one-hub_svg__c" x1="451.32" x2="451.32" y1="374.148" y2="58.124" gradientTransform="matrix(1 0 0 -1 0 514)" gradientUnits="userSpaceOnUse"><stop offset="0" style="stop-color:#078dee"/><stop offset="1" style="stop-color:#0351ab"/></linearGradient><path d="M435.2 298.4c5.7 11.9 14.4 19.1 28.1 19.3 7 .1 13.5-1.5 19.5-4.7 1.3-.7 2.4-.5 3.4.6 7.4 8.1 14.6 16.4 21.8 25 .7.8 1.1 1.8 1.3 2.7 0 .3-.1.6-.3.8-1.4 1.1-2.9 2.4-4.4 3.2-17.2 10-35.5 13.3-54.8 9.9-18.1-3.1-34.3-13.4-45.2-28.5q-5.55-7.8-8.7-15c-2.3-5.4-4.2-11.7-4.7-17.6-2.3-23.3 4.4-43.2 20.1-59.5 8.3-8.6 18.6-14.6 30.2-17.1 14.5-3.1 30.4-1.6 42.8 6.2 8.1 5.1 14.3 11.1 18.5 17.9 6.5 10.4 9.5 21.8 9.2 34.2 0 .8-.2 1.6-.7 2.2-4.5 5.1-10 11-16.4 17.7-1.1 1.2-2.3 2-4 2-14.3-.2-29.4-.3-45.3-.4-2.9 0-6.1-.1-9.5-.2-.5 0-.9.3-.9.8-.1.2-.1.4 0 .5m1-32.6q-.45 1.05-.6 2.1c0 .6.2.9.8.9 11.1.1 21.9.1 32.5 0 .3 0 .6-.1.8-.2.3-.2.5-.4.4-.8-1.4-6.8-5.5-11.3-12.4-13.4-2.1-.6-4-.8-5.7-.5-7.6 1.4-12.9 5.4-15.8 11.9" style="fill:url(#one-hub_svg__c)"/><linearGradient id="one-hub_svg__d" x1="297.877" x2="297.877" y1="374.148" y2="58.124" gradientTransform="matrix(1 0 0 -1 0 514)" gradientUnits="userSpaceOnUse"><stop offset="0" style="stop-color:#078dee"/><stop offset="1" style="stop-color:#0351ab"/></linearGradient><path d="M270.9 227.8c0 .2.2.4.4.4.1 0 .2 0 .3-.1 1.6-1.5 3.3-2.8 5.1-3.8 4.9-2.7 9.8-4.6 14.7-5.8 13.9-3.3 29.5-2.8 42.3 3.5 14.3 7 24.6 17.5 30.8 31.4 4.1 9.2 4.8 20.2 4.8 31 .1 29.3.1 55-.1 77.3 0 1.8 0 3.6-.1 5.4 0 .6-.5 1.1-1.2 1.1-11.8-.1-23.6-.2-35.3-.2-2.1 0-4.5-.1-7.1-.4-.5 0-.8-.4-.8-.9 0-26.6-.1-53.8-.2-81.6 0-5.5-1.1-12.2-4.4-16.6-3.1-4.1-6.7-7.1-10.8-8.9-9.6-4.3-21.5-1.6-29.1 5.6-5.9 5.6-8.8 12.5-8.8 20.9-.1 14.9-.1 29.2-.1 43 0 3.1-.1 7.3-1 10.3-3.8 12.3-15.2 17.1-27.2 14.7-7.2-1.4-13.2-6.8-15.5-13.7-.8-2.6-1.3-5.6-1.2-9 .2-37.9.2-75.9.1-114 0-.2.2-.4.4-.4l42.5-.3c.7 0 1.4.6 1.4 1.4z" style="fill:url(#one-hub_svg__d)"/></svg>