<?xml version="1.0" encoding="utf-8"?>
<!-- Generator: Adobe Illustrator 28.2.0, SVG Export Plug-In . SVG Version: 6.00 Build 0)  -->
<svg version="1.1" id="Layer_1" xmlns:svg="http://www.w3.org/2000/svg"
	 xmlns="http://www.w3.org/2000/svg" xmlns:xlink="http://www.w3.org/1999/xlink" x="0px" y="0px" viewBox="0 0 512 512"
	 style="enable-background:new 0 0 512 512;" xml:space="preserve">
<style type="text/css">
	.st0{fill:#FFFFFF;}
</style>
<path class="st0" d="M260.2,362.7c25.9,0,46.7-10.9,46.7-24.3S286,325,260.2,325s-46.7,0-46.7,13.4S234.6,362.7,260.2,362.7
	 M456.7,222.9c-30.7,0-55.3,24.9-55.3,55.3c0,17.9,8.3,33.6,21.4,43.8c-26.2,65.5-90.4,111.5-164.9,111.5
	c-37.1,0-71.9-11.5-100.3-31c7.3-12.5,11.5-26.8,11.5-42.5c0-46.7-37.7-84.4-84.4-84.4c-1.3,0-2.2,0-3.5,0
	c-0.6-6.7-1.3-13.4-1.3-20.1c0-29.7,7.3-57.8,20.1-82.4c30.4-63.3,96.5-107.4,173.5-107.4c70.9,0,132.6,37.4,165.5,92.7
	c-4.2,4.5-7,10.5-7,17.3c0,13.7,11.2,24.6,24.6,24.6c13.4,0,24.6-11.2,24.6-24.6c0-11.8-8-21.4-19.2-24c-2.9-5.8-6.1-11.2-9.3-16.6
	c8.9-9.9,14.4-23,14.4-37.4c0-31.3-25.6-56.9-56.9-56.9c-15,0-28.8,6.1-39,15.7c-33.6-19.2-72.5-30.4-114.1-30.4
	c-40.6,0-78.6,10.5-111.8,29.1c-9.9-8.9-23-14.4-37.7-14.4c-31.3,0-56.9,25.2-56.9,56.9c0,13.4,4.5,25.6,12.1,35.2
	c-22.7,35.5-35.8,77.7-35.8,123c0,13.1,1.3,26.2,3.2,38.7c-19.2,15.3-31.3,39-31.3,65.5c0,46.7,37.7,84.4,84.4,84.4
	c11.8,0,23-2.6,33.6-7c38.7,30,87.2,47.6,140,47.6c100.3,0,185.7-64.9,217-154.7c21.7-7.3,37.4-28.1,37.4-52.4
	C512,247.9,487,222.9,456.7,222.9 M192.4,225.2c10.2-5.4,22.7-1.3,28.1,8.9c0.3,0.6,0.6,1.6,1,2.2c3.8-26.2-3.8-48.9-20.1-54
	c-19.5-6.1-43.5,14.7-53.7,47c-10.2,32-2.6,63,16.9,69c17.6,5.4,38.7-11.2,50.2-38c-1,0.6-1.9,1.3-2.9,1.9
	c-10.2,5.4-22.7,1.3-28.1-8.9C178.4,243.1,182.2,230.6,192.4,225.2 M356,298.4c19.5-6.1,26.8-37.1,16.9-69c-10.2-32-34.2-53-53.7-47
	c-16.3,5.1-24.3,27.8-20.1,54c0.3-0.6,0.6-1.6,1-2.2c5.4-10.2,17.9-14.1,28.1-8.9c10.2,5.4,14.1,17.9,8.9,28.1
	c-5.4,10.2-17.9,14.1-28.1,8.9c-1-0.6-1.9-1.3-2.9-1.9C317.3,287.2,338.4,303.8,356,298.4"/>
</svg>
