<svg xmlns="http://www.w3.org/2000/svg" xml:space="preserve" viewBox="0 0 512 512"><path d="M224 486.5 13.5 389.2c-17.9-8.5-17.9-21.6 0-29.4l73.3-34 136.5 63.3c17.9 8.5 46.8 8.5 64 0l136.5-63.3 73.3 34c17.9 8.5 17.9 21.6 0 29.4l-210.6 97.3c-16.5 7.7-45.3 7.7-62.5 0" style="opacity:.47;fill-rule:evenodd;clip-rule:evenodd"/><path d="M224 366.8 13.5 269.4c-17.9-8.5-17.9-21.6 0-29.4l71.7-33.2L224 271c17.9 8.5 46.8 8.5 64 0l138.8-64.1 71.8 33.2c17.9 8.5 17.9 21.6 0 29.4L288 366.8c-18 8.5-46.8 8.5-64 0" style="opacity:.71;fill-rule:evenodd;clip-rule:evenodd"/><path d="M224 250.1 13.5 152.8c-17.9-8.5-17.9-21.6 0-29.4L224 26.1c17.9-8.5 46.8-8.5 64 0l210.6 97.3c17.9 8.5 17.9 21.6 0 29.4L288 250.1c-18 7.7-46.8 7.7-64 0" style="opacity:.79;fill-rule:evenodd;clip-rule:evenodd"/></svg>