<?xml version="1.0" encoding="utf-8"?>
<!-- Generator: Adobe Illustrator 28.2.0, SVG Export Plug-In . SVG Version: 6.00 Build 0)  -->
<svg version="1.1" id="bb460724-3675-4b2e-b0fa-530a39eaf356"
	 xmlns="http://www.w3.org/2000/svg" xmlns:xlink="http://www.w3.org/1999/xlink" x="0px" y="0px" viewBox="0 0 512 512"
	 style="enable-background:new 0 0 512 512;" xml:space="preserve">
<style type="text/css">
	.st0{fill:#FFFFFF;}
</style>
<path class="st0" d="M459,38.6h-40.5l0,42.3h8.3c3.4,0,6.1,2.7,6.1,6.1s-2.7,6.1-6.1,6.1h-8.3l0,24.4h8.3c3,0.2,5.4,2.6,5.6,5.6
	c0.3,3.3-2.2,6.3-5.6,6.5h-8.3l0,24.4h8.3c3.1,0.2,5.6,2.7,5.8,5.8c0.2,3.4-2.4,6.2-5.8,6.4h-8.3l0,24.4h8.3c3.4,0,6.1,2.7,6.1,6.1
	s-2.7,6.1-6.1,6.1h-8.3l0,24.4h8.3c3.1,0.2,5.6,2.7,5.8,5.8c0.2,3.4-2.4,6.2-5.8,6.4h-8.3l0,24.4h8.3c3.4,0,6.1,2.7,6.1,6.1
	c0,3.4-2.7,6.1-6.1,6.1h-8.3l0,33c0.1,1.7-0.5,3.4-1.7,4.7c-1.2,1.4-2.9,2.2-4.8,2.3l-0.1,0h-0.1c-1.1,0-2.2-0.2-3.2-0.7l-0.4-0.2
	l-15.5-13.3c-0.7-0.6-1.7-1-2.9-0.9c-1,0.1-1.8,0.5-2.4,1l-0.1,0.1l-15.2,13l-0.4,0.2c-1.6,0.8-3.4,1-5.1,0.5
	c-1.7-0.5-3.2-1.7-4-3.2l-0.1-0.1c-0.5-0.9-0.7-2-0.7-3.2V276h-69.1c-3.4,0-6.1-2.7-6.1-6.1c0-3.4,2.7-6.1,6.1-6.1h69.1v-24.4h-69.1
	c-0.2,0-0.4,0-0.6,0c-3.4-0.2-6-3-5.8-6.4c0.2-3.4,3-6,6.4-5.8h69.1v-24.4h-69.1c-3.4,0-6.1-2.7-6.1-6.1c0-3.4,2.7-6.1,6.1-6.1h69.1
	v-24.4h-69.1c-3.1-0.2-5.6-2.7-5.8-5.8c-0.2-3.4,2.4-6.2,5.8-6.4h69.1v-24.4h-69.1c-0.3,0-0.6,0-0.9,0c-3.3-0.2-5.8-3.1-5.6-6.5
	c0.2-3.3,3.1-5.8,6.5-5.6h69.1V93.1h-69.1c-3.1-0.2-5.6-2.7-5.8-5.8c-0.2-3.4,2.4-6.2,5.8-6.4h69.1V38.6h-80.9
	c-4.9,0.1-9.6,1.6-13.6,4.3c-6.5,4.4-15.1,4.4-21.6,0c-4-2.8-8.8-4.2-13.6-4.2c0,0-177.7-0.1-178.6-0.3c-9.6,1.2-16.9,9.4-16.9,19.1
	v339.3c0,10.6,8.6,19.3,19.3,19.3h175.7c4.9-0.1,9.6,1.4,13.6,4.1c6.5,4.4,15.1,4.4,21.6,0c4-2.7,8.8-4.1,13.6-4.1h175.7
	c10.6,0,19.3-8.6,19.3-19.3V57.5C475.4,48,468.4,40,459,38.6z M165.8,80.9h53.6c3.4,0,6.1,2.7,6.1,6.1s-2.7,6.1-6.1,6.1h-53.6
	c-3.1-0.2-5.6-2.7-5.8-5.8C159.8,83.9,162.4,81.1,165.8,80.9z M225.9,124c-0.2,3.3-3.1,5.8-6.5,5.6h-53.6c-3-0.2-5.4-2.6-5.6-5.6
	c-0.3-3.3,2.2-6.3,5.6-6.5h53.6c0.3,0,0.6,0,0.9,0C223.6,117.7,226.1,120.6,225.9,124z M165.8,154h53.6c3.1,0.2,5.6,2.7,5.8,5.8
	c0.2,3.4-2.4,6.2-5.8,6.4h-53.6c-3.1-0.2-5.6-2.7-5.8-5.8C159.8,157,162.4,154.2,165.8,154z M81.4,82.7c0-6.6,5.4-12,12-12h32.7
	c6.6,0,12,5.4,12,12V152c0,6.7-5.4,12.1-12,12.1H93.4c-6.6-0.1-11.9-5.4-12-11.9l0-0.1V82.7z M85.4,190.6h134.1
	c3.4,0,6.1,2.7,6.1,6.1s-2.7,6.1-6.1,6.1H85.4c-3.4,0-6.1-2.7-6.1-6.1C79.3,193.3,82,190.6,85.4,190.6z M79,233c0.2-3.4,3-6,6.4-5.8
	h134.1c0.2,0,0.4,0,0.6,0c3.4,0.2,6,3,5.8,6.4c-0.2,3.4-3,6-6.4,5.8H85.4c-0.2,0-0.4,0-0.6,0C81.4,239.2,78.8,236.4,79,233z
	 M225.6,269.9c0,3.4-2.7,6.1-6.1,6.1H85.4c-3.4,0-6.1-2.7-6.1-6.1c0-3.4,2.7-6.1,6.1-6.1h134.1C222.9,263.8,225.6,266.5,225.6,269.9
	z M79,306.1c0.2-3.4,3-6,6.4-5.8h134.1c0.2,0,0.4,0,0.6,0c3.4,0.2,6,3,5.8,6.4c-0.2,3.4-3,6-6.4,5.8H85.4c-0.2,0-0.4,0-0.6,0
	C81.4,312.3,78.8,309.5,79,306.1z M219.5,385.6H85.4c-3.4,0-6.1-2.7-6.1-6.1c0-3.4,2.7-6.1,6.1-6.1h134.1c3.4,0,6.1,2.7,6.1,6.1
	C225.6,382.9,222.9,385.6,219.5,385.6z M226,343.3c-0.2,3.3-3.1,5.8-6.5,5.6H85.4c-0.3,0-0.6,0-0.9,0c-3.3-0.2-5.8-3.1-5.6-6.5
	c0.2-3.3,3.1-5.8,6.5-5.6h134.1c0.3,0,0.6,0,0.9,0C223.7,337,226.2,339.9,226,343.3z M292.7,299.7h60.7c7.7,0,7.7,12,0,12h-60.7
	C285,311.7,285,299.7,292.7,299.7z M286.2,342.4c0.2-3.3,3.1-5.8,6.5-5.6h134.1c3,0.2,5.4,2.6,5.6,5.6c0.3,3.3-2.2,6.3-5.6,6.5
	H292.7c-0.3,0-0.6,0-0.9,0C288.5,348.7,286,345.8,286.2,342.4z M426.8,385.6H292.7c-3.4,0-6.1-2.7-6.1-6.1c0-3.4,2.7-6.1,6.1-6.1
	h134.1c3.4,0,6.1,2.7,6.1,6.1C432.9,382.9,430.2,385.6,426.8,385.6z M130.1,82.7V152c0,2.2-1.8,4.1-4,4.1l-32.6,0
	c-2.2-0.1-4-1.8-4.1-4.1V82.7c0-2.2,1.8-4,4-4h32.7C128.3,78.7,130.1,80.5,130.1,82.7z M382.1,295.9l-12.3,10.4v-271
	c0-2,1.6-3.7,3.6-3.7h33.5c1,0,1.9,0.4,2.6,1.1c0.7,0.7,1,1.6,1,2.6v271.2l-12.6-10.8c-2.2-1.9-5-2.9-8-2.9c-0.2,0-0.4,0-0.6,0
	l-0.3,0C386.4,293.1,383.9,294.2,382.1,295.9z M512,106.2v351.6c0,10.7-8.7,19.3-19.3,19.3H277.3c-3.8,0.4-7.5,1.8-10.7,4
	c-6.5,4.4-15.1,4.4-21.6,0c-3.2-2.2-6.8-3.5-10.7-4h-215C8.7,477.1,0,468.5,0,457.8V106.2c0-10.7,8.7-19.3,19.3-19.3h12.3v309.9
	c0,5.5,1.9,10.6,5,14.7v9.3c0,10.9,8.8,19.7,19.7,19.7h175.5c4.7,0,9.3,1.4,13.3,4c6.7,4.4,15.4,4.4,22.1,0c3.9-2.6,8.6-4,13.3-4
	h175.3c10.2,0,18.8-7.9,19.6-18.1v-10.9c3.1-4.1,5-9.2,5-14.7V86.9l12.3,0C503.4,86.9,512,95.6,512,106.2z"/>
</svg>
