<svg xmlns="http://www.w3.org/2000/svg" xml:space="preserve" viewBox="0 0 512 512"><path d="M63.7 506.8c-11.6-20.5-16.1-41-16.1-59.8 0-74.3 26.2-146.3 85.6-189.3 73 21.7 147.4 39.9 215.8 65 3 1.1 7.6 12.2 10.8 12.1 10.7 67.9 1.9 135.9-62.3 177-58.2.6-96.7-.7-192.1-1.7-16.3-.1-30.1-1.1-41.7-3.3" style="fill-rule:evenodd;clip-rule:evenodd;fill:#00355b"/><path d="M297.4 511.9c38.4-49.2 61.5-110.5 62.3-177 54.6-1.5 106-15.6 151.2-39.5-.4 30.4-1.1 64.5-2.3 116-1.7 78.3-20.8 95.5-95.7 97.8-50.5 1.6-85.6 2.4-115.5 2.7" style="fill-rule:evenodd;clip-rule:evenodd;fill:#004b74"/><path d="M306.3 162.3c41.9 33.1 63 74.9 63 137.5 0 1.2-9.5 33.7-9.5 35-3.1.1-6.3.1-9.4.1-82.7 0-158.4-29-217.1-77.2 32.4-61.3 103.8-99.3 173-95.4" style="fill-rule:evenodd;clip-rule:evenodd;fill:#005a90"/><path d="M510.9 295.3c-45.2 23.9-96.6 38-151.2 39.5v-3.7c0-62.6-19.7-120.8-53.5-168.8 16.8-2.9 34.1-4.4 51.8-4.4 55.8 0 108.1 15 152.8 41.1.5 37.9.5 65.1.1 96.3" style="fill-rule:evenodd;clip-rule:evenodd;fill:#009acf"/><path d="M133.2 257.7c-61.4-43-118-154.8-117.4-220.4 13.7-1.8 26-4.3 40-4.3 103.9 0 195.7 51.2 250.5 129.3-68.5 11.7-129.1 46.3-173.1 95.4" style="fill-rule:evenodd;clip-rule:evenodd;fill:#004e86"/><path d="M63.7 506.8c-41.2-8-55.3-32.4-57.9-95.3C-.4 262.8-.4 252.1 3.8 101c.8-28.3 5.7-49.9 12-63.6 10.1 87.4 52 166.7 117.4 220.4-46.5 51.8-74.7 119.7-74.7 194 0 18.8 1.8 37.2 5.2 55" style="fill-rule:evenodd;clip-rule:evenodd;fill:#003c6c"/><path d="M510.9 199c-44.8-26.1-97-41.1-152.8-41.1-17.7 0-35 1.5-51.8 4.4C251.5 84.2 159.7 33 55.8 33c-13.2 0-28.4 2.7-40 4.3 12-20 40-27.9 89.1-30.6 152.4-8.5 162.2-9.1 308.3-1 71.6 4 95.4 18.3 96.5 96.7.5 40.2.9 70.9 1.2 96.6" style="fill-rule:evenodd;clip-rule:evenodd;fill:#00ceff"/><path d="M439.2 145.3c1.1 49.9 3 171.7 0 222.3-2.7 46.3-24.6 68.8-70.9 70.9-46 2.1-167.9 5.8-223.3 0-52.8-5.5-65.5-24.4-70.8-70.8-5.7-50.5-5.9-172.4 0-222.7 5.1-43.2 20.8-67.8 70.5-70.5 50.1-2.7 172.6-4.5 223.7 0 43.9 3.9 69.8 26.6 70.8 70.8m-46.3 0c0-13.5-13-23.4-24.5-24.5-41.4-4.1-182.4-4-223.7 0-11.4 1.1-22.9 12.9-24.2 24.2-5 41.6-4.9 182 0 222.7 1.4 11.5 13 23.4 24.5 24.5 41.3 4.1 182 4.1 223.3 0 11.6-1.2 23.5-13.1 24.7-24.7 4.1-41 4.9-147.7-.1-222.2" style="fill-rule:evenodd;clip-rule:evenodd;fill:#fff"/></svg>