<?xml version="1.0" encoding="utf-8"?>
<!-- Generator: Adobe Illustrator 28.2.0, SVG Export Plug-In . SVG Version: 6.00 Build 0)  -->
<svg version="1.1" id="bb460724-3675-4b2e-b0fa-530a39eaf356"
	 xmlns="http://www.w3.org/2000/svg" xmlns:xlink="http://www.w3.org/1999/xlink" x="0px" y="0px" viewBox="0 0 512 512"
	 style="enable-background:new 0 0 512 512;" xml:space="preserve">
<style type="text/css">
	.st0{fill:#004D42;}
	.st1{fill:#80DFD3;}
	.st2{fill:#FFFFFF;}
</style>
<path id="path1" class="st0" d="M512,106.2v351.6c0,10.7-8.7,19.3-19.3,19.3H277.3c-3.8,0.4-7.5,1.8-10.7,4
	c-6.5,4.4-15.1,4.4-21.6,0c-3.2-2.2-6.8-3.5-10.7-4h-215C8.7,477.1,0,468.5,0,457.8V106.2c0-10.7,8.7-19.3,19.3-19.3h473.4
	C503.4,86.9,512,95.6,512,106.2L512,106.2z"/>
<path class="st1" d="M453.3,86.9V60.2H56.6v26.7h-20v134.2v175.7v24c0,10.9,8.8,19.7,19.7,19.7h175.5c4.7,0,9.3,1.4,13.3,4
	c6.7,4.4,15.4,4.4,22.1,0c3.9-2.6,8.6-4,13.3-4h175.3c10.2,0,18.8-7.9,19.6-18.1v-25.6V221.1V86.9H453.3z"/>
<path class="st2" d="M459,38.6H280.9c-4.9,0.1-9.6,1.6-13.6,4.3c-6.5,4.4-15.1,4.4-21.6,0c-4-2.8-8.8-4.2-13.6-4.2
	c0,0-177.7-0.1-178.6-0.3c-9.6,1.2-16.9,9.4-16.9,19.1v339.3c0,10.6,8.6,19.3,19.3,19.3h175.7c4.9-0.1,9.6,1.4,13.6,4.1
	c6.5,4.4,15.1,4.4,21.6,0c4-2.7,8.8-4.1,13.6-4.1h175.7c10.6,0,19.3-8.6,19.3-19.3V57.5C475.4,48,468.4,40,459,38.6z M165.8,80.9
	h53.6c3.4,0,6.1,2.7,6.1,6.1s-2.7,6.1-6.1,6.1h-53.6c-3.1-0.2-5.6-2.7-5.8-5.8C159.8,83.9,162.4,81.1,165.8,80.9z M225.9,124
	c-0.2,3.3-3.1,5.8-6.5,5.6h-53.6c-3-0.2-5.4-2.6-5.6-5.6c-0.3-3.3,2.2-6.3,5.6-6.5h53.6c0.3,0,0.6,0,0.9,0
	C223.6,117.7,226.1,120.6,225.9,124z M165.8,154h53.6c3.1,0.2,5.6,2.7,5.8,5.8c0.2,3.4-2.4,6.2-5.8,6.4h-53.6
	c-3.1-0.2-5.6-2.7-5.8-5.8C159.8,157,162.4,154.2,165.8,154z M85.4,190.6h134.1c3.4,0,6.1,2.7,6.1,6.1s-2.7,6.1-6.1,6.1H85.4
	c-3.4,0-6.1-2.7-6.1-6.1C79.3,193.3,82,190.6,85.4,190.6z M79,233c0.2-3.4,3-6,6.4-5.8h134.1c0.2,0,0.4,0,0.6,0c3.4,0.2,6,3,5.8,6.4
	c-0.2,3.4-3,6-6.4,5.8H85.4c-0.2,0-0.4,0-0.6,0C81.4,239.2,78.8,236.4,79,233z M225.6,269.9c0,3.4-2.7,6.1-6.1,6.1H85.4
	c-3.4,0-6.1-2.7-6.1-6.1c0-3.4,2.7-6.1,6.1-6.1h134.1C222.9,263.8,225.6,266.5,225.6,269.9z M79,306.1c0.2-3.4,3-6,6.4-5.8h134.1
	c0.2,0,0.4,0,0.6,0c3.4,0.2,6,3,5.8,6.4c-0.2,3.4-3,6-6.4,5.8H85.4c-0.2,0-0.4,0-0.6,0C81.4,312.3,78.8,309.5,79,306.1z
	 M219.5,385.6H85.4c-3.4,0-6.1-2.7-6.1-6.1c0-3.4,2.7-6.1,6.1-6.1h134.1c3.4,0,6.1,2.7,6.1,6.1C225.6,382.9,222.9,385.6,219.5,385.6
	z M226,343.3c-0.2,3.3-3.1,5.8-6.5,5.6H85.4c-0.3,0-0.6,0-0.9,0c-3.3-0.2-5.8-3.1-5.6-6.5c0.2-3.3,3.1-5.8,6.5-5.6h134.1
	c0.3,0,0.6,0,0.9,0C223.7,337,226.2,339.9,226,343.3z M286.2,123.1c0.2-3.3,3.1-5.8,6.5-5.6h134.1c3,0.2,5.4,2.6,5.6,5.6
	c0.3,3.3-2.2,6.3-5.6,6.5H292.7c-0.3,0-0.6,0-0.9,0C288.5,129.4,286,126.5,286.2,123.1z M432.6,159.8c0.2,3.4-2.4,6.2-5.8,6.4H292.7
	c-3.1-0.2-5.6-2.7-5.8-5.8c-0.2-3.4,2.4-6.2,5.8-6.4h134.1C429.9,154.2,432.4,156.7,432.6,159.8z M286.3,233c0.2-3.4,3-6,6.4-5.8
	h134.1c3.1,0.2,5.6,2.7,5.8,5.8c0.2,3.4-2.4,6.2-5.8,6.4H292.7c-0.2,0-0.4,0-0.6,0C288.7,239.2,286.1,236.4,286.3,233z M286.2,342.4
	c0.2-3.3,3.1-5.8,6.5-5.6h134.1c3,0.2,5.4,2.6,5.6,5.6c0.3,3.3-2.2,6.3-5.6,6.5H292.7c-0.3,0-0.6,0-0.9,0
	C288.5,348.7,286,345.8,286.2,342.4z M292.7,299.7h60.7c7.7,0,7.7,12,0,12h-60.7C285,311.7,285,299.7,292.7,299.7z M426.8,385.6
	H292.7c-3.4,0-6.1-2.7-6.1-6.1c0-3.4,2.7-6.1,6.1-6.1h134.1c3.4,0,6.1,2.7,6.1,6.1C432.9,382.9,430.2,385.6,426.8,385.6z M426.8,276
	H292.7c-3.4,0-6.1-2.7-6.1-6.1c0-3.4,2.7-6.1,6.1-6.1h134.1c3.4,0,6.1,2.7,6.1,6.1C432.9,273.3,430.2,276,426.8,276z M426.8,202.8
	H292.7c-3.4,0-6.1-2.7-6.1-6.1c0-3.4,2.7-6.1,6.1-6.1h134.1c3.4,0,6.1,2.7,6.1,6.1S430.2,202.8,426.8,202.8z M426.8,93.1H292.7
	c-3.1-0.2-5.6-2.7-5.8-5.8c-0.2-3.4,2.4-6.2,5.8-6.4h134.1c3.4,0,6.1,2.7,6.1,6.1S430.2,93.1,426.8,93.1z"/>
<path class="st0" d="M85.4,152.1V82.7c0-4.4,3.6-8,8-8h32.7c4.4,0,8,3.6,8,8l0,0V152c0,4.4-3.6,8.1-8,8.1l0,0H93.4
	C89,160,85.5,156.5,85.4,152.1z M410.4,311.7l-15.1-13c-1.6-1.4-3.7-2-5.8-1.9c-1.8,0.2-3.5,0.9-4.8,2.1l-14.9,12.7
	c-1.3,0.7-3,0.2-3.7-1.1c-0.2-0.4-0.3-0.9-0.3-1.4V35.3c0-4.2,3.4-7.7,7.6-7.7l0,0h33.5c4.2,0,7.7,3.5,7.6,7.7l0,0v273.8
	c0.1,1.5-1.1,2.8-2.7,2.9C411.3,312,410.8,311.9,410.4,311.7L410.4,311.7z"/>
</svg>
