<?xml version="1.0" encoding="utf-8"?>
<!-- Generator: Adobe Illustrator 28.2.0, SVG Export Plug-In . SVG Version: 6.00 Build 0)  -->
<svg version="1.1" id="Layer_1" xmlns="http://www.w3.org/2000/svg" xmlns:xlink="http://www.w3.org/1999/xlink" x="0px" y="0px"
	 viewBox="0 0 512 512" style="enable-background:new 0 0 512 512;" xml:space="preserve">
<style type="text/css">
	.st0{fill:#FFFFFF;}
</style>
<path class="st0" d="M168.5,191.3c-3.7,0-7,1.4-9.5,3.7c0-4.4-0.3-9.6-0.3-14c1.6-13.9,70.1-25.6,70.1-25.6v35.4l-2.5,0.5H168.5z
	 M425.6,313.1v0.2l-0.1,1.2c-2.3,22-7.5,42-15.6,61.1c-8,18.6-18.7,35.2-32,49.4c-12.9,13.8-28.7,25-46.9,33.3
	c-17.7,8.1-38.3,12.2-61.2,12.2c-32.1,0-60-6.2-83-18.4c-22.8-12-42-28.4-56.8-48.6c-14.8-20.4-25.8-43.6-32.7-68.8
	c-7-25.5-10.6-51.8-10.6-78.2c0-26.9,3.6-53.3,10.6-78.5c7.1-25.4,18.1-48.5,32.7-68.6c14.5-19.9,33.6-36.3,56.8-48.7
	c23.2-12.4,50.4-18.4,83-18.4c17.7,0,34.7,2.6,50.6,7.9c15.9,5.1,30.8,12.8,44.2,22.8c13.7,10.2,24.8,22.4,34,37
	c9.1,15.1,15.8,32,19.8,50.1l0.2,1h49.1l-0.2-1.5c-3.2-25.6-11-48.6-23.2-68.4c-12-19.6-27.3-36.5-45.5-50.1
	c-18-13.5-38.4-23.8-60.8-30.7C316.1,3.5,293,0,269.6,0c-38.3,0-72.5,7.1-101.7,21C139,34.8,114.5,53.9,95.1,77.6
	c-19.2,23.5-33.8,51-43.5,81.7c-9.6,30.6-14.5,63.3-14.5,97c0,33.9,4.9,66.5,14.5,97c9.6,30.7,24.3,58.1,43.5,81.4
	c19.3,23.4,43.8,42.3,72.8,56.2c29.2,14,63.5,21,101.7,21c28.9,0,55.5-4.7,79-13.9c23.5-9.1,44.3-22.3,61.9-39.4
	c17.4-16.9,31.8-37.7,42.8-62.1c11-24.3,18.2-51.8,21.4-82l0.2-1.4H425.6z M232.3,191.3l87.9-17.6l-91.4,17.1v0.5H232.3z
	 M344.3,192.1h-87.6c5.4,1.9,9.3,7,9.3,13.1v13.5h91.4v-13.5C357.4,198,351.5,192.1,344.3,192.1z M169.3,356.8h175
	c7.2,0,13.1-5.9,13.1-13.1v-41.1H156.2v41.1C156.2,350.9,162.1,356.8,169.3,356.8z M266,220.3v13.6c0,7.6-6.3,13.9-13.9,13.9h-83.6
	c-5.4,0-10-3-12.3-7.4v60.4h201.2v-80.5H266z M264.3,205.1v13.6h0v1.6h0v13.5c0,6.7-5.4,12.2-12.2,12.2h-83.6
	c-6.7,0-12.2-5.4-12.2-12.2v-28.7c0-6.7,5.4-12.2,12.2-12.2h83.6C258.8,192.9,264.3,198.3,264.3,205.1z M157.4,204.2
	c0.1,0,0.2,0,0.3-0.1L157.4,204.2z M247.7,205.6c0-2.9-2.5-5.4-5.4-5.4h-64c-3,0-5.4,2.4-5.4,5.4V233c0,2.9,2.5,5.4,5.4,5.4h64
	c2.9,0,5.4-2.4,5.4-5.4V205.6z"/>
</svg>
