<?xml version="1.0" encoding="utf-8"?>
<!-- Generator: Adobe Illustrator 28.2.0, SVG Export Plug-In . SVG Version: 6.00 Build 0)  -->
<svg version="1.1" id="oemr_logo" xmlns="http://www.w3.org/2000/svg" xmlns:xlink="http://www.w3.org/1999/xlink" x="0px" y="0px"
	 viewBox="0 0 512 512" style="enable-background:new 0 0 512 512;" xml:space="preserve">
<style type="text/css">
	.st0{fill:#FFFFFF;}
</style>
<path class="st0" d="M220.5,424c62.8,25.6,138.4,13.7,189.5-35.4c67.4-64.7,67.4-169.6,0-234.3c-7.1-6.8-14.8-13-23-18.6
	c12,7.7,23.2,16.5,33.4,26.3c83.4,80.1,83.4,209.7,0,289.8c-62.6,60.1-154.1,75-231.3,45c-5.1-2.1-9.9-5.1-13.9-8.8
	c-16.1-15.4-16.1-40.5,0-55.7C187.3,421.2,205,417.9,220.5,424 M91.7,158.4c-26.8,60.3-14.2,132.8,36.9,181.9
	c67.4,64.7,176.7,64.7,244.1,0c7.1-6.8,13.5-14.2,19.4-22.1c-8,11.6-17.2,22.4-27.4,32.1c-83.4,80.1-218.5,80.1-302,0
	C0,290.5-15.5,202.6,15.5,128.6c2.2-4.9,5.3-9.5,9.1-13.3c16.1-15.4,42.2-15.4,58.1,0C94.6,126.5,98,143.7,91.7,158.4 M432.5,155.6
	C407,94.8,344.9,51.9,272.4,51.9c-95.1,0-172.5,74.1-172.5,165.6c0,9.6,0.9,19.4,2.6,28.7c-2.7-13.7-4.2-27.3-4.2-41.2
	C98.2,91.8,193.9,0,311.8,0c88.5,0,164.3,51.5,196.6,125.1c2.2,4.9,3.3,10.2,3.3,15.6c0,21.9-18.3,39.4-41.1,39.4
	C453.5,180.3,438.7,170,432.5,155.6"/>
</svg>
