<?xml version="1.0" encoding="utf-8"?>
<!-- Generator: Adobe Illustrator 28.2.0, SVG Export Plug-In . SVG Version: 6.00 Build 0)  -->
<svg version="1.1"
	 id="logo_OSI" xmlns:rdf="http://www.w3.org/1999/02/22-rdf-syntax-ns#" xmlns:dc="http://purl.org/dc/elements/1.1/" xmlns:cc="http://creativecommons.org/ns#"
	 xmlns="http://www.w3.org/2000/svg" xmlns:xlink="http://www.w3.org/1999/xlink" x="0px" y="0px" viewBox="0 0 512 512"
	 style="enable-background:new 0 0 512 512;" xml:space="preserve">
<path d="M436.8,84.2c-48.5-48.2-113-74.7-181.6-74.7c-68.5,0-132.7,26.5-180.8,74.7C26.4,132.3,0,196.4,0,264.7
	c0,55,18.4,110,51.8,154.9c30.8,41.4,72.4,71.3,114,82c3.8,1,7.7-1,9.1-4.6l59.4-146c0.8-2,0.8-4.3-0.2-6.2c-0.9-2-2.6-3.4-4.7-4.1
	c-31.4-10-49-37.1-49.5-76.3c-0.3-19.2,7.3-37.6,21.2-51.6c14.5-14.7,34.3-22.8,55.5-22.8c0.1,0,0.1,0,0.2,0
	c40.8,0.1,75.2,34.2,75.2,74.6c0,39.3-15.1,62.4-49,75.1c-1.9,0.7-3.5,2.2-4.4,4.1c-0.8,1.9-0.9,4-0.2,6l57.4,147.9
	c1.2,3,4.1,5,7.2,5c0.6,0,1.3-0.1,1.9-0.2c42.5-10.7,84.5-40.4,115.3-81.6c33.3-44.6,51.7-100,51.7-155.9
	C512,196.5,485.3,132.4,436.8,84.2z"/>
</svg>
