<svg xmlns="http://www.w3.org/2000/svg" xml:space="preserve" viewBox="0 0 512 512"><path d="M273.8 397.2v.7c.5 17 14.2 30.3 30.6 29.8 15.7-.5 28.4-13.5 28.8-29.8v-74.4h-59.4zM412.5 0h-39.6c-54.4-.3-98.8 45.1-99.1 101.4v123.9H99.5C45 225 .7 270.4.4 326.6V409c0 56.7 44.2 102.7 99.1 103h39.6c54.8-.3 99.1-46.3 99.1-103v-85.4h-59.4v85.5c0 22.7-17.6 41.3-39.6 41.6H99.5c-22-.3-39.7-18.8-39.6-41.6v-81.9c.1-22.4 17.7-40.4 39.3-40.4h313.4c54.8-.3 99.1-46.3 99.1-103v-82C511.6 45.5 467.4 0 413 0zm39.7 183.7c0 22.7-17.6 41.2-39.6 41.5h-79.1V101.8c.1-22.4 17.7-40.4 39.3-40.4h39.9c21.6-.2 39.3 17.8 39.5 40.2z"/></svg>