<?xml version="1.0" encoding="utf-8"?>
<!-- Generator: Adobe Illustrator 28.2.0, SVG Export Plug-In . SVG Version: 6.00 Build 0)  -->
<svg version="1.1" id="Layer_1" xmlns="http://www.w3.org/2000/svg" xmlns:xlink="http://www.w3.org/1999/xlink" x="0px" y="0px"
	 viewBox="0 0 512 512" style="enable-background:new 0 0 512 512;" xml:space="preserve">
<style type="text/css">
	.st0{fill:#FFFFFF;}
</style>
<path class="st0" d="M334.5,92.7c-16-13.5-27.8-10.5-38.2-2.5c-10.5,8.2-25.7,32.8-36.5,42.8c-5.2,4.8-18.3,20.7-35.3,5.7
	c-4.8-4.2-34.2-44.5-52.3-39.2c-22.7,6.3-48.5,47.2-60.7,75.7c-8.7,20-13.3,35.7-14.7,54.3L216,217.2c3.3-14.5,17-24.8,32.5-23.7
	c11.8,1,21.5,8.3,25.8,18.2l29-3l0,0c1.3-16.7,16.2-29,33.2-27.7c12.2,1,22.2,8.8,26.3,19.3l37.7-9.3c-3-7.5-6.3-14.3-9.5-20.2
	C368.8,130.8,350.5,106.3,334.5,92.7z M256,5.3C114.7,5.3,0,117.5,0,256s114.7,250.7,256,250.7S512,394.5,512,256S397.3,5.3,256,5.3
	z M326.7,463c0.3-2,0.5-4.3,0.5-6.8c0.2-38.5,0.3-62.5,0.3-91.3c0-20.2-0.3-31.3-0.3-31.3c1.8,0,13-3.3,25.3-8
	c1.3-0.5,2.7-1,4.2-1.7c0.7-0.3,1.3-0.5,2-0.8c2.7-1.2,5.5-2.3,8-3.7c0.7-0.3,1.3-0.7,2-1c3.8-1.8,7.3-3.8,10.2-5.8
	c2.8-2,5.7-4.3,8.5-7c2.8-2.7,5.5-5.7,8.2-8.8c0.8-1.2,1.7-2.2,2.5-3.3c0.8-1.2,1.7-2.3,2.3-3.7c0.8-1.2,1.5-2.5,2.2-3.8
	c5-9.2,8.7-20,9.7-32.5c1.3-17-2.5-35.7-8.2-52.3l-39.5,9.7c0,0.8,0,1.7-0.2,2.5c-1,16.8-15.8,29.3-32.8,28c-13-1-23.5-10-27-21.7
	l-27.7,3c0,1.2,0,2.3,0,3.7c-1.5,16.5-16.3,29-33.3,27.7c-14-1.2-25.2-11.5-27.7-24.5L96.7,241.7c0.2,12.2,1.7,26,4.3,43.2
	c8.2,51.7,13,103.7,20.3,132c1.7,6.8,4,12.8,6.8,18c-57.3-39.3-95-105-95-178.8c0-120.5,99.7-218.3,222.8-218.3
	S478.8,135.5,478.8,256C478.8,352.3,415.2,434,326.7,463z"/>
</svg>
