<?xml version="1.0" encoding="utf-8"?>
<!-- Generator: Adobe Illustrator 28.2.0, SVG Export Plug-In . SVG Version: 6.00 Build 0)  -->
<svg version="1.1" id="Layer_1" xmlns="http://www.w3.org/2000/svg" xmlns:xlink="http://www.w3.org/1999/xlink" x="0px" y="0px"
	 viewBox="0 0 512 512" style="enable-background:new 0 0 512 512;" xml:space="preserve">
<style type="text/css">
	.st0{fill:#77BE44;}
	.st1{fill:#020304;}
	.st2{fill:#71BE44;}
	.st3{fill:#FCFCFC;}
	.st4{fill:#8DC763;}
	.st5{fill:#8DC663;}
	.st6{fill:#76BE43;}
	.st7{fill:#8CC563;}
	.st8{fill:#F8F8F8;}
	.st9{fill:#030304;}
	.st10{fill:#010202;}
	.st11{fill:#FDFDFD;}
</style>
<g>
	<path class="st0" d="M473.7,326.1c-6.3,4.1-13.4,5-20.9,2.8c-8.1-2.4-10-9-6.1-15.2c2.7-4.3,3.8-9.3,4.8-14.1
		c1.1-5.5,1.2-11.1,2-16.6c0.2-1.3,1.2-2.5,1.9-3.8c1.6,0.4,3.4,0.6,4.9,1.2c2.3,1,4.4,2.4,6.6,3.6c5.5,2.9,11,5.8,16.5,8.6
		c1.1,0.6,2.6,0.7,3.9,1c-0.1,3.6-0.3,7.3-0.4,10.9c-4.1,6.9-8.1,13.8-12.2,20.7c0,0,0.1-0.1,0.1-0.1
		C474.4,325.5,474.1,325.8,473.7,326.1z"/>
	<path class="st1" d="M241.4,3c4.7,0,8.3,2,11,4.9c4.6,5,8.8,10.3,13.1,15.6c4.6,5.6,9,11.4,13.6,17.1c1.2,1.5,2.7,2.8,4.3,3.9
		c3.2,2.3,5.3,1.8,6.3-2c1.1-4.3,1.8-8.8,2-13.3c0.3-7.2,0.1-14.3,0.2-21.5c0-1.8,0.1-3.7,0.7-5.4c0.3-1,1.7-2.3,2.6-2.3
		c3.1,0.1,6.4,0.3,9.2,1.3c12.1,4.3,21.6,12.3,28.7,22.7c6.7,9.9,12.5,20.5,18.5,30.8c4.4,7.5,8.4,15.3,12.8,22.8
		c4.5,7.7,10.9,13.7,16.9,20.3c12.8,13.9,21.3,30.5,27.8,48.2c2.9,8,6.5,16.1,11.5,22.9c6.6,9,11.8,18.1,12.7,29.5
		c0.4,5.3,2.8,10.5,4.5,15.7c1.7,5.3,5.6,7.8,11.1,7.5c6.4-0.3,12.9-0.7,19.3-1c1.4-0.1,2.9-0.2,4.9-0.4c0,5.6,0.4,11.1-0.1,16.5
		c-0.6,6,1.4,9.7,6.2,13.6c16.9,13.9,21.4,32.1,15.7,52.8c-3.8,13.9-11.2,25.8-22.4,35c-2.3,1.9-4.9,3.5-7.6,4.9
		c-6.1,3-10.1,2.7-16-1.2c-1.8,2-3.9,3.8-5.5,6c-5.1,6.6-10.5,13.1-15,20.1c-15.4,23.9-34.8,44-56.5,62.1
		c-34.5,28.9-71.7,53.6-113.2,71.4c-4.6,1.9-9.2,3.7-13.9,5.3c-6.5,2.3-13.1,4.2-20.2,4.2c-8,0.1-16,0.8-24,1
		c-6.3,0.2-11.6-2.2-15.5-7.3c-5.8-7.4-11.4-14.8-17.5-21.9c-4.5-5.4-9.2-10.8-14.4-15.4c-7-6.1-14-7.2-22.8-1.6
		c-16.5,10.5-34.3,11.8-52.6,4.9c-31-11.8-52.2-33-61.1-65.3c-3.2-11.3-2.5-22.4,1.8-33.8c22.3-58.7,55.1-110.9,96.6-157.7
		c30.4-34.4,64-65.2,101.2-92.1c1.3-0.9,2.5-2,3.8-2.9c10.6-7.3,15.4-17.5,15-30.2c-0.7-23.2,2.9-46,5.6-68.9
		C241.2,14.3,241.1,8.8,241.4,3z M471.4,325.4L471.4,325.4c5.5-2.9,10.1-12.6,9.3-19.6c0.1-3.5,0.2-6.9,0.3-10.4
		c-0.4-5.9-2.1-11.4-5.4-16.3c-2.2-3.3-5.2-6.2-9.5-5.4c-4.5,0.8-8,3.3-9.4,8c-0.5,1.2-1.3,2.4-1.5,3.6c-0.6,5.3-0.7,10.6-1.5,15.8
		c-0.8,4.6-1.6,9.3-3.7,13.4c-2.9,5.8-1.5,12.1,4.7,14.4c5.7,2.1,11.1,1.2,15.9-2.7C470.9,326,471.1,325.7,471.4,325.4z M257.8,39.1
		c-2.1-4.5-4.1-8.9-6.2-13.4c-1.5,7.6-2.6,15.1-3.2,22.5c-1.1,14.8-1.8,29.6-2.6,44.3c-0.1,2.2,0.8,4.4,1.3,7.3
		c2.7-2.1,4.7-3.6,6.7-5.1c4.8-3.7,9.8-7.2,14.2-11.3c2.6-2.4,4.7-5.6,6.5-8.7c1.8-3.1,1.6-6.5-0.3-9.7
		C268.8,56.5,263.3,47.8,257.8,39.1z M446.3,263.4c2.3-2.3,4.5-4.7,7-6.9c5.9-5,7.7-13.5,4-20.2c-0.8-1.5-2.1-3.2-3.6-3.9
		c-7.2-3.4-14.5-6.6-21.8-9.7c-3.8-1.6-6.2-0.7-8.2,2.9c-0.9,1.5-1.4,3.3-2.1,5c-1.2,5.4-3,10.7-3.3,16.2c-0.5,7.5,3,11.6,9.1,13.4
		c4.2,1.3,8.4,3,12.4,4.7C442.5,266,444.7,266.1,446.3,263.4z M275.5,108.2c0.1-0.3,0.3-0.6,0.4-0.9c4.6-8.5,7.7-20.2,6.7-25.5
		c-0.9,0.5-1.7,1-2.5,1.6c-24,17.6-48.3,34.7-71.8,52.9c-37.8,29.3-72.1,62.1-101.9,99.6c-35,43.9-61.7,92.5-84.2,143.7
		c-2.5,5.6-2.8,10.5,0,15.8c6.6,18.5,16.9,34.7,31.9,47.5C68,455,84,462.9,103.1,461c12.4-1.2,23.8-4.9,29.9-17.5
		c0.6-1.2,1.4-2.3,2.1-3.4c5.6-8.8,10.8-17.9,16.9-26.3c3.4-4.7,7.8-9.8,12.9-12.1c12.4-5.5,25.2-10.2,38.2-14
		c7.4-2.2,14.7-4.7,20.8-8.9c6.8-4.6,13-10.5,18.5-16.6c7.6-8.5,14.1-17.9,21.3-26.8c6.4-7.9,13.8-14.5,23-19.2
		c7.8-4,15-9.2,22.1-14.3c7.3-5.2,7.3-10.2,3.2-16.7c-4.1-6.6-8.8-12.8-12.8-19.4C291,252.3,292,240,302,228
		c11-13.2,25.3-22.2,39.7-31.1c6.4-4,13.4-5.7,20.9-5c8.8,0.9,17.6,1.8,26.4,3.2c8.1,1.3,8.1,1.6,9.3,9.9c1.3,8.6,2.4,17.3,3.7,25.9
		c0.2,1.3,1.1,2.5,1.7,3.7c0.5-0.1,0.9-0.2,1.4-0.3c0.4-2.7,1.1-5.4,1.2-8c0.2-6.8,1.6-13.2,5.2-19.1c1.7-1.7,3.4-3.5,5.2-5
		c5.5-4.7,5.7-5.9,1.2-11.6c-0.9-1.1-2.1-2.2-2.7-3.4c-2.3-4.9-4.6-9.8-6.4-14.9c-1.8-5-2.3-10.4-4.5-15.2
		c-4.1-9-8.9-17.8-13.8-26.4c-2.3-4.2-5.4-8-8.2-12c-2.3-2.6-4.7-5.2-7-7.9c-0.5,0.2-1.1,0.4-1.6,0.6c-0.5,5.2-1.3,10.3-1.6,15.5
		c-0.3,6.2,0.2,12.4-0.2,18.6c-0.3,5.2-1.1,10.4-2.3,15.4c-0.3,1.5-2.4,3.5-3.8,3.6c-1.3,0.1-3.6-1.6-4.1-3.1
		c-1.3-3.3-2.5-6.9-2.7-10.5c-0.7-10.7-1.1-21.3-1.4-32c-0.4-17.2-5.1-33.2-14-47.9c-8.5-14-16.9-28.1-25.6-41.9
		c-2.5-3.9-6.1-7-9.3-10.5c-3.2-2.2-3.9-2-4.9,1.6c-0.2,0.8-0.4,1.7-0.5,2.5c-2.4,18.1-4.5,36.3-7.4,54.3
		c-1.8,11.7-4.6,23.2-7.2,34.8c-0.9,4.1-2.8,8-6.7,10.4c-6.2,0.5-8.4-1.6-7.9-7.8C274.4,112.5,275,110.4,275.5,108.2L275.5,108.2z
		 M190.3,491.9c-1.8,0.7-3.7,1.3-5.5,2c1.1,1.8,1.7,4.1,3.3,5.1c3.1,2,6.6,4.2,10.1,4.5c7.8,0.7,15.8,1.1,23.5,0.1
		c16.7-2.1,32.2-8.6,46.2-17.7c17.4-11.4,34.4-23.3,51.2-35.5c19.9-14.5,40.8-27.8,59.2-44.3c18.6-16.7,36.2-34.3,48.6-56.3
		c9.6-17,15-35,10.8-54.8c-2.6-12.4-7.8-23-19.2-29.9c-9-5.4-17.6-11.2-26.4-16.8c-5-3.2-6.6-7.7-5-13.5c2-7.4,1.6-14.7-1.9-21.6
		c-2.5-5-5.8-6.7-11.3-5.6c-18.2,3.6-35.4,10.1-51.8,18.8c-4.4,2.3-7.6,5.9-8.9,10.6c-4.6,15.9-2.8,30.5,9.7,42.6
		c3.4,3.3,6.4,6.7,7,11.6c-0.7,3.3-1.2,6.7-2.1,9.9c-0.9,3.1-2.3,6.1-3.4,9.2c-0.7,2-0.4,4.1,1.9,4.2c8.3,0.5,12.1,6.5,15.6,12.7
		c4.8,8.6,7.2,18,8.2,27.7c1.5,13.4-2,24.7-13.2,33.1c-11.5,8.6-22.6,17.6-34.2,26.1c-30.6,22.3-61.3,44.5-92.2,66.5
		C204.3,484.9,197.1,488.1,190.3,491.9z M329.5,333.4c0.1-0.3,0.2-0.7,0.3-1c-5.2-5.5-11.4-9-19.1-9.2c-10.2-0.3-18.8,4.1-26.6,10.2
		c-9,7.2-15.6,16.3-20.6,26.5c-5.7,11.8-14.4,20.6-26.1,26.4c-2.8,1.4-5.6,2.9-8.4,4.3c-11.6,5.6-23.3,11.2-36.1,13.1
		c-13.3,2-23.7,8.3-31.6,18.8c-4.9,6.4-8.9,13.6-13.3,20.4c4.2,6,8.1,11.9,12.5,17.4c3.1,3.9,6.6,7.5,10.4,10.6
		c5.6,4.5,12.2,6.2,19.5,4.8c12.1-2.4,22.7-8.2,31.9-15.8c15.7-12.9,32.5-24.2,49.3-35.6c16.7-11.3,33.2-22.8,49.2-35.1
		c12-9.2,17.2-22.6,17.6-37.6c0.1-4.2-1.3-5.7-5.6-5.9c-2.8-0.1-5.6-0.1-8.4,0c-6.3,0.1-8.5,2.1-9.2,8.3c-0.5,4.2-0.9,8.5-1.5,12.7
		c-0.9,5.6-3.1,8.2-8.7,8.7c-8.5,0.7-13.8,5.4-17.1,12.7c-3.1,6.9-8.2,11.7-15.1,14.6c-3.7,1.6-7.5,2.7-11.2,4.3
		c-9,4.1-18.3,7.7-26.8,12.7c-5.7,3.3-11.2,6.6-17.8,6.7c-13.7,0.1-24.7,6-34.8,14.5c-2.6,2.2-5.1,4.4-7.8,6.6c-0.9,0.7-2.1,1.1-4,2
		c1-2,1.3-2.9,1.9-3.7c8.1-11,16.8-21.5,27.8-29.6c3.7-2.7,8.7-4.8,13.3-5.1c10.7-0.7,19.8-4.8,28.9-10c7.2-4.1,14.7-8,22.3-11.2
		c5-2,9-4.7,11.8-9.1c1.4-2.2,2.4-4.8,3.5-7.1c2.6-5.4,6.2-9.1,12.8-9c4.1,0.1,6.1-2.2,6.5-6.4c0.3-2.7,0.3-5.3,0.5-8
		c1.1-10.4,6.5-15.5,17.1-16.2C321,333.8,325.2,333.6,329.5,333.4z"/>
	<path class="st2" d="M411.5,207.2c-3.5,5.9-5,12.3-5.2,19.1c-0.1,2.7-0.8,5.4-1.2,8c-0.5,0.1-0.9,0.2-1.4,0.3
		c-0.6-1.2-1.5-2.4-1.7-3.7c-1.3-8.6-2.4-17.3-3.7-25.9c-1.2-8.3-1.3-8.6-9.3-9.9c-8.7-1.4-17.6-2.3-26.4-3.2
		c-7.5-0.8-14.5,1-20.9,5c-14.4,8.9-28.7,17.8-39.7,31.1c-10,12-10.9,24.3-2.9,37.7c4,6.6,8.7,12.9,12.8,19.4
		c4.1,6.5,4.1,11.5-3.2,16.7c-7.1,5.1-14.4,10.3-22.1,14.3c-9.2,4.8-16.6,11.3-23,19.2c-7.2,8.9-13.7,18.3-21.3,26.8
		c-5.5,6.2-11.7,12-18.5,16.6c-6.2,4.2-13.4,6.7-20.8,8.9c-13,3.8-25.9,8.4-38.2,14c-5.1,2.3-9.4,7.4-12.9,12.1
		c-6.1,8.4-11.3,17.5-16.9,26.3c-0.7,1.1-1.5,2.2-2.1,3.4c-6,12.5-17.5,16.2-29.9,17.5C84,462.9,68,455,53.9,443
		c-15-12.8-25.2-29-31.9-47.5c0.9-1.1,1.8-2.1,2.6-3.3c3.3-5.2,6.5-10.4,9.8-15.5c4-6,8.5-11.8,12.3-17.9
		c4.6-7.4,8.5-15.1,12.9-22.6c1.8-3,3.8-5.9,5.9-8.7c7.5-10.1,15.4-19.9,22.5-30.2c8.5-12.4,16.3-25.2,24.4-37.8
		c4.1-6.3,7.8-12.9,12.4-18.8c7.2-9.4,14.9-18.4,22.4-27.6c3.7-4.6,6.8-9.8,11.1-13.7c6.4-5.8,13.6-10.9,18.6-18.2
		c3.5-5.1,7-10.3,10.1-15.7c2.7-4.7,5-9.6,9.9-12.3c6.7-3.7,13.5-7.1,20.3-10.6c2.5-1.3,4.9-2.5,7.3-3.9c7.9-4.6,15.8-9.2,23.7-13.9
		c4.9-2.9,9.6-6,14.5-8.9c4.3-2.6,8.6-5,12.9-7.5c-0.4,2.1-1.1,4.2-1.2,6.3c-0.5,6.2,1.7,8.3,7.9,7.8c1,0.3,2,0.9,3,0.8
		c4.2-0.6,8.3-1.3,12.4-2.1c3.1-0.6,5.4-2.3,5.9-5.6c0.8-4.9,1.7-9.7,2.1-14.6c0.4-4.3,0.5-8.6,0.5-13c0-8.1-0.6-16.2-0.2-24.3
		c0.5-9.8,1.9-19.6,2.6-29.5c0.4-5.1,0.2-10.2,0.3-15.3c3.1,3.5,6.8,6.6,9.3,10.5c8.8,13.8,17.1,27.9,25.6,41.9
		c8.9,14.7,13.6,30.6,14,47.9c0.2,10.7,0.7,21.4,1.4,32c0.2,3.6,1.4,7.2,2.7,10.5c0.6,1.4,2.8,3.2,4.1,3.1c1.4-0.1,3.5-2.1,3.8-3.6
		c1.1-5.1,1.9-10.3,2.3-15.4c0.4-6.2-0.1-12.4,0.2-18.6c0.2-5.2,1-10.3,1.6-15.5c0.5-0.2,1.1-0.4,1.6-0.6c2.3,2.6,4.7,5.2,7,7.9
		c0.2,3,0.1,6.1,0.7,9c2,8.8,3.8,17.7,6.5,26.2c3,9.3,7.1,18.2,10.7,27.3c1.7,4.4,2.9,9,4.7,13.3C406.9,198.9,409.3,203,411.5,207.2
		z M213,160.3c-0.6-0.7-1.2-1.9-1.8-1.9c-3.7-0.1-7.5-0.1-11.2,0.3c-2.5,0.2-4.4,1.5-5.1,4.4c-0.5,2-1.3,3.9-2.4,5.7
		c-8.6,13.5-17.1,27.2-26.1,40.5c-10.5,15.4-10.9,32.7-10,50.3c0.2,4.1,3.6,5.1,6.7,2.5c0.4-0.4,1-0.6,1.5-0.9
		c2.7,2.6,4.2,2.2,7.7-0.5c3.2-2.4,6.8-5.3,10.5-5.9c6.6-1,13.5-1.1,20.2-0.5c13.8,1.3,25.6-2.2,33.7-13.7
		c5.5-7.8,9.6-16.5,14.2-24.9c2-3.5,2.2-7.2,1.7-11.2c-1.9-16.4-11.1-26.2-27.1-28.7c-6.4-1-8.5-3.4-8.7-9.8c0-1.4,0-3-0.7-4.2
		C215.6,161,214.1,160.8,213,160.3z M57.4,373.9c0.7,1.3,1.4,4,3.1,5.7c0.7,0.7,3.9-0.1,5.1-1.2c4.7-4.1,10.3-5.6,16.3-6.5
		c8.1-1.3,12.1-7.5,10.1-15.4c-2.3-8.9-8.3-14.9-16.3-18.9c-3-1.5-5.4-0.7-7.1,2.2C62.5,349.9,59.2,360.9,57.4,373.9z"/>
	<path class="st2" d="M329.8,291.1c-0.7-4.9-3.6-8.3-7-11.6c-12.5-12.1-14.3-26.7-9.7-42.6c1.4-4.7,4.6-8.3,8.9-10.6
		c16.4-8.8,33.6-15.2,51.8-18.8c5.5-1.1,8.8,0.6,11.3,5.6c3.5,6.9,3.9,14.3,1.9,21.6c-1.6,5.9,0,10.3,5,13.5
		c8.8,5.7,17.5,11.5,26.4,16.8c11.4,6.8,16.6,17.5,19.2,29.9c4.2,19.8-1.2,37.8-10.8,54.8c-12.4,22-30,39.6-48.6,56.3
		c-18.4,16.5-39.2,29.9-59.2,44.3c-16.8,12.2-33.8,24.2-51.2,35.5c-14,9.2-29.4,15.6-46.2,17.7c-7.7,1-15.7,0.6-23.5-0.1
		c-3.5-0.3-7-2.5-10.1-4.5c-1.6-1-2.2-3.4-3.3-5.1c1.8-0.7,3.7-1.3,5.5-2c-0.2,0.6-0.7,1.3-0.5,1.6c1.5,2.1,5,2.4,7.2,0.7
		c7-5.3,14.9-9,23.3-11.5c4.5-1.4,9-3,13-5.3c5.4-3.1,10.5-6.9,15.7-10.4c4.3-2.9,8.6-5.8,12.7-9c5.4-4.2,10.6-8.8,15.9-13.1
		c1.8-1.4,3.7-2.7,5.7-3.9c4.6-2.8,9.5-5.3,14-8.3c7-4.8,13.7-10.3,22.2-12c11.7-2.3,20.6-9.4,29.1-16.9
		c8.5-7.5,12.1-18.2,16.6-28.3c0.5-1,0.4-2.4,0.4-3.6c-0.2-7.6-0.8-15.3-0.6-22.9c0.1-7-1.9-13-5.6-18.8c-1.8-2.8-3.2-6-3.8-9.3
		c-0.8-4.4-1.9-8.4-5.3-11.6c-2.1-1.9-3.8-4.4-5.4-6.7C340.9,297.3,336.1,293.3,329.8,291.1z"/>
	<path class="st3" d="M329.5,333.4c-4.2,0.2-8.5,0.4-12.7,0.7c-10.6,0.7-15.9,5.8-17.1,16.2c-0.3,2.7-0.3,5.3-0.5,8
		c-0.4,4.2-2.3,6.4-6.5,6.4c-6.6-0.1-10.2,3.6-12.8,9c-1.2,2.4-2.1,4.9-3.5,7.1c-2.8,4.4-6.8,7.1-11.8,9.1
		c-7.7,3.2-15.1,7-22.3,11.2c-9,5.2-18.2,9.2-28.9,10c-4.6,0.3-9.6,2.3-13.3,5.1c-11,8.1-19.8,18.6-27.8,29.6
		c-0.6,0.8-0.9,1.7-1.9,3.7c2-1,3.2-1.3,4-2c2.7-2.1,5.2-4.4,7.8-6.6c10.1-8.4,21.1-14.4,34.8-14.5c6.5,0,12.1-3.3,17.8-6.7
		c8.5-5,17.8-8.6,26.8-12.7c3.6-1.6,7.5-2.8,11.2-4.3c6.9-2.9,11.9-7.7,15.1-14.6c3.3-7.3,8.6-12,17.1-12.7c5.5-0.5,7.8-3.1,8.7-8.7
		c0.7-4.2,1-8.4,1.5-12.7c0.8-6.2,2.9-8.2,9.2-8.3c2.8-0.1,5.6-0.1,8.4,0c4.3,0.2,5.7,1.7,5.6,5.9c-0.5,15.1-5.6,28.4-17.6,37.6
		c-16,12.3-32.5,23.8-49.2,35.1c-16.8,11.4-33.6,22.7-49.3,35.6c-9.2,7.6-19.8,13.5-31.9,15.8c-7.3,1.4-13.9-0.3-19.5-4.8
		c-3.8-3.1-7.4-6.7-10.4-10.6c-4.4-5.5-8.2-11.4-12.5-17.4c4.4-6.9,8.4-14,13.3-20.4c7.9-10.4,18.3-16.7,31.6-18.8
		c12.8-2,24.5-7.5,36.1-13.1c2.8-1.4,5.6-2.9,8.4-4.3c11.7-5.8,20.4-14.6,26.1-26.4c5-10.3,11.6-19.4,20.6-26.5
		c7.8-6.2,16.3-10.5,26.6-10.2c7.8,0.2,14,3.7,19.1,9.2C329.7,332.7,329.6,333.1,329.5,333.4z"/>
	<path class="st4" d="M275.5,108.3c-4.3,2.5-8.6,4.9-12.9,7.5c-4.9,2.9-9.6,6-14.5,8.9c-7.9,4.7-15.8,9.3-23.7,13.9
		c-2.4,1.4-4.9,2.6-7.3,3.9c-6.8,3.5-13.6,6.9-20.3,10.6c-4.9,2.7-7.2,7.6-9.9,12.3c-3.1,5.4-6.6,10.6-10.1,15.7
		c-5,7.3-12.1,12.3-18.6,18.2c-4.3,3.9-7.4,9.2-11.1,13.7c-7.5,9.2-15.2,18.2-22.4,27.6c-4.5,6-8.3,12.5-12.4,18.8
		c-8.1,12.6-15.9,25.5-24.4,37.8c-7.1,10.4-15,20.1-22.5,30.2c-2.1,2.8-4.1,5.7-5.9,8.7c-4.4,7.5-8.4,15.2-12.9,22.6
		c-3.8,6.2-8.3,11.9-12.3,17.9c-3.4,5.1-6.5,10.4-9.8,15.5c-0.7,1.2-1.7,2.2-2.6,3.3c-2.8-5.3-2.5-10.1,0-15.8
		c22.5-51.2,49.3-99.9,84.2-143.7c29.8-37.5,64.2-70.3,101.9-99.6c23.5-18.2,47.9-35.3,71.8-52.9c0.8-0.6,1.6-1,2.5-1.6
		c1,5.4-2.1,17.1-6.7,25.5C275.7,107.6,275.6,107.9,275.5,108.3C275.5,108.2,275.5,108.3,275.5,108.3z"/>
	<path class="st4" d="M329.8,291.1c6.3,2.2,11.1,6.2,14.8,11.7c1.6,2.4,3.3,4.8,5.4,6.7c3.4,3.2,4.6,7.1,5.3,11.6
		c0.6,3.2,2,6.5,3.8,9.3c3.7,5.8,5.8,11.8,5.6,18.8c-0.1,7.6,0.4,15.2,0.6,22.9c0,1.2,0.1,2.5-0.4,3.6c-4.5,10.1-8.1,20.8-16.6,28.3
		c-8.5,7.5-17.4,14.6-29.1,16.9c-8.6,1.7-15.2,7.1-22.2,12c-4.5,3.1-9.3,5.5-14,8.3c-2,1.2-3.9,2.5-5.7,3.9
		c-5.3,4.3-10.5,8.9-15.9,13.1c-4.1,3.2-8.4,6.1-12.7,9c-5.2,3.6-10.2,7.3-15.7,10.4c-4,2.3-8.5,4-13,5.3
		c-8.4,2.6-16.3,6.2-23.3,11.5c-2.2,1.6-5.6,1.4-7.2-0.7c-0.2-0.3,0.3-1.1,0.5-1.6c6.8-3.8,13.9-7,20.2-11.5
		c30.9-22,61.6-44.2,92.2-66.5c11.6-8.4,22.7-17.5,34.2-26.1c11.2-8.4,14.7-19.7,13.2-33.1c-1.1-9.7-3.4-19.1-8.2-27.7
		c-3.5-6.2-7.3-12.2-15.6-12.7c-2.3-0.1-2.6-2.2-1.9-4.2c1.1-3.1,2.5-6.1,3.4-9.2C328.6,297.7,329.1,294.4,329.8,291.1z"/>
	<path class="st5" d="M308.8,18.7c-0.1,5.1,0.1,10.2-0.3,15.3c-0.7,9.8-2.1,19.6-2.6,29.5c-0.4,8.1,0.2,16.2,0.2,24.3
		c0,4.3-0.1,8.7-0.5,13c-0.5,4.9-1.3,9.8-2.1,14.6c-0.5,3.3-2.8,5-5.9,5.6c-4.1,0.8-8.3,1.5-12.4,2.1c-0.9,0.1-2-0.5-3-0.8
		c3.9-2.4,5.8-6.3,6.7-10.4c2.6-11.5,5.4-23.1,7.2-34.8c2.8-18,4.9-36.2,7.4-54.3c0.1-0.8,0.3-1.7,0.5-2.5
		C304.9,16.7,305.6,16.5,308.8,18.7z"/>
	<path class="st5" d="M411.5,207.2c-2.2-4.2-4.6-8.4-6.5-12.7c-1.9-4.3-3-8.9-4.7-13.3c-3.5-9.1-7.6-18-10.7-27.3
		c-2.8-8.5-4.6-17.4-6.5-26.2c-0.7-2.9-0.5-6-0.7-9c2.8,4,5.9,7.8,8.2,12c4.8,8.7,9.6,17.4,13.8,26.4c2.2,4.7,2.7,10.2,4.5,15.2
		c1.8,5.1,4.1,10,6.4,14.9c0.6,1.3,1.8,2.3,2.7,3.4c4.5,5.7,4.4,6.9-1.2,11.6C414.9,203.8,413.2,205.6,411.5,207.2z"/>
	<path class="st4" d="M421.6,230.6c0.7-1.7,1.2-3.4,2.1-5c2.1-3.6,4.4-4.5,8.2-2.9c7.3,3.1,14.6,6.3,21.8,9.7
		c1.5,0.7,2.8,2.4,3.6,3.9c3.7,6.7,1.9,15.2-4,20.2c-2.5,2.1-4.7,4.6-7,6.9c-0.4-0.2-1.1-0.2-1.3-0.5c-4-5.6-7.9-11.2-11.9-16.7
		C429.3,240.9,425.4,235.8,421.6,230.6z"/>
	<path class="st6" d="M257.8,39.1c5.5,8.7,11,17.4,16.5,26.1c2,3.2,2.1,6.6,0.3,9.7c-1.8,3.1-3.8,6.3-6.5,8.7
		c-4.5,4.1-9.5,7.6-14.2,11.3c0.1-5.6,0.2-11.2-2.6-16.3c-0.3-0.6-0.3-1.4-0.3-2.1c0.2-3.6,0.6-7.2,0.6-10.8
		C251.6,56.2,253.9,47.5,257.8,39.1z"/>
	<path class="st0" d="M421.6,230.6c3.8,5.2,7.7,10.4,11.5,15.6c4,5.5,7.9,11.2,11.9,16.7c0.2,0.3,0.9,0.4,1.3,0.5
		c-1.7,2.7-3.8,2.6-6.5,1.5c-4.1-1.8-8.2-3.4-12.4-4.7c-6.1-1.9-9.6-5.9-9.1-13.4C418.6,241.3,420.4,235.9,421.6,230.6z"/>
	<path class="st7" d="M257.8,39.1c-3.9,8.4-6.2,17.2-6.1,26.5c0,3.6-0.4,7.2-0.6,10.8c0,0.7-0.1,1.5,0.3,2.1
		c2.8,5.1,2.7,10.7,2.6,16.3c-2,1.5-4,3-6.7,5.1c-0.6-2.9-1.4-5.1-1.3-7.3c0.7-14.8,1.5-29.6,2.6-44.3c0.5-7.5,1.6-14.9,3.2-22.5
		C253.7,30.2,255.7,34.6,257.8,39.1z"/>
	<path class="st5" d="M481,295.4c-1-0.3-2.1-0.4-3-1c-4.2-2.7-8.4-5.4-12.6-8.2c-1.7-1.1-3.3-2.4-5-3.4c-1.1-0.6-2.5-0.8-3.7-1.2
		c1.4-4.7,4.9-7.2,9.4-8c4.4-0.8,7.3,2.1,9.5,5.4C478.9,284,480.6,289.5,481,295.4z"/>
	<path class="st8" d="M470.6,326.3c0.3-0.3,0.5-0.6,0.8-0.9C471.1,325.7,470.9,326,470.6,326.3z"/>
	<path class="st2" d="M275.5,108.2c0.1-0.3,0.3-0.6,0.4-0.9C275.7,107.6,275.6,107.9,275.5,108.2z"/>
	<path class="st9" d="M213,160.3c1,0.5,2.5,0.7,3,1.5c0.6,1.2,0.6,2.8,0.7,4.2c0.2,6.4,2.3,8.8,8.7,9.8c16,2.4,25.2,12.3,27.1,28.7
		c0.5,4,0.3,7.7-1.7,11.2c-4.6,8.3-8.7,17.1-14.2,24.9c-8.1,11.5-19.9,14.9-33.7,13.7c-6.7-0.6-13.6-0.6-20.2,0.5
		c-3.7,0.6-7.3,3.4-10.5,5.9c-3.5,2.6-5,3.1-7.7,0.5c-2.5-6.2-1.4-12.3,0.9-18.1c7.1-17.6,13.7-35.5,22.2-52.5
		C193.5,178.7,202.9,168.9,213,160.3z M196,249.3c18.2-0.4,37.6-13.2,44.9-29.8c4.1-9.3,2.7-18-2.4-26.3c-2.1-3.5-5.3-5.9-9.4-6
		c-4.2,0-8.4,0.7-12.7,0.9c-4.1,0.2-7.5,1.9-10.2,4.9c-12.1,13.2-20.5,28.5-25.7,45.6c-1.3,4.1,0.3,7.4,4.4,8.6
		C188.6,248.3,192.4,248.6,196,249.3z"/>
	<path class="st5" d="M213,160.3c-10.2,8.6-19.6,18.4-25.5,30.2c-8.5,17-15.1,34.9-22.2,52.5c-2.3,5.8-3.4,11.9-0.9,18.1
		c-0.5,0.3-1.1,0.5-1.5,0.9c-3.1,2.6-6.5,1.6-6.7-2.5c-0.9-17.6-0.5-34.8,10-50.3c9-13.3,17.5-26.9,26.1-40.5
		c1.1-1.7,1.9-3.7,2.4-5.7c0.7-2.8,2.6-4.1,5.1-4.4c3.7-0.4,7.5-0.4,11.2-0.3C211.8,158.4,212.4,159.6,213,160.3z"/>
	<path class="st10" d="M57.4,373.9c1.8-13,5.1-24,11.2-34.2c1.7-2.9,4.1-3.7,7.1-2.2c8,4.1,14,10,16.3,18.9c2,7.9-2,14.1-10.1,15.4
		c-5.9,1-11.5,2.4-16.3,6.5c-1.2,1.1-4.5,1.9-5.1,1.2C58.8,377.9,58.1,375.3,57.4,373.9z"/>
	<path class="st11" d="M196,249.3c-3.7-0.7-7.5-1-11-2.1c-4.1-1.3-5.7-4.5-4.4-8.6c5.2-17.1,13.6-32.3,25.7-45.6
		c2.7-3,6.1-4.6,10.2-4.9c4.2-0.2,8.4-0.9,12.7-0.9c4.2,0,7.3,2.5,9.4,6c5.1,8.4,6.4,17,2.4,26.3C233.6,236.2,214.2,249,196,249.3z"
		/>
</g>
</svg>
