<svg xmlns="http://www.w3.org/2000/svg" xml:space="preserve" viewBox="0 0 512 512"><path d="m425.6 313.3-.1 1.2c-2.3 22-7.5 42-15.6 61.1-8 18.6-18.7 35.2-32 49.4-12.9 13.8-28.7 25-46.9 33.3-17.7 8.1-38.3 12.2-61.2 12.2-32.1 0-60-6.2-83-18.4-22.8-12-42-28.4-56.8-48.6-14.8-20.4-25.8-43.6-32.7-68.8-7-25.5-10.6-51.8-10.6-78.2 0-26.9 3.6-53.3 10.6-78.5 7.1-25.4 18.1-48.5 32.7-68.6 14.5-19.9 33.6-36.3 56.8-48.7s50.4-18.4 83-18.4c17.7 0 34.7 2.6 50.6 7.9 15.9 5.1 30.8 12.8 44.2 22.8 13.7 10.2 24.8 22.4 34 37 9.1 15.1 15.8 32 19.8 50.1l.2 1h49.1l-.2-1.5c-3.2-25.6-11-48.6-23.2-68.4-12-19.6-27.3-36.5-45.5-50.1-18-13.5-38.4-23.8-60.8-30.7C316.1 3.5 293 0 269.6 0c-38.3 0-72.5 7.1-101.7 21-28.9 13.8-53.4 32.9-72.8 56.6-19.2 23.5-33.8 51-43.5 81.7-9.6 30.6-14.5 63.3-14.5 97 0 33.9 4.9 66.5 14.5 97 9.6 30.7 24.3 58.1 43.5 81.4 19.3 23.4 43.8 42.3 72.8 56.2 29.2 14 63.5 21 101.7 21 28.9 0 55.5-4.7 79-13.9 23.5-9.1 44.3-22.3 61.9-39.4 17.4-16.9 31.8-37.7 42.8-62.1 11-24.3 18.2-51.8 21.4-82l.2-1.4h-49.3zM169.3 192.1h175c7.2 0 13.1 5.9 13.1 13.1v138.5c0 7.2-5.9 13.1-13.1 13.1h-175c-7.2 0-13.1-5.9-13.1-13.1V205.1c0-7.1 5.9-13 13.1-13m0 0h175c7.2 0 13.1 5.9 13.1 13.1v138.5c0 7.2-5.9 13.1-13.1 13.1h-175c-7.2 0-13.1-5.9-13.1-13.1V205.1c0-7.1 5.9-13 13.1-13m-11.9 12.1c2.6.2 1.3-13.4 1.3-23.2 1.6-13.9 70.1-25.6 70.1-25.6V192l91.4-18.3m-162.8 30.5c2.6.2 1.3-13.4 1.3-23.2 1.6-13.9 70.1-25.6 70.1-25.6V192l91.4-18.3" style="fill:#007bff"/><path d="M252.1 247.8h-83.6c-7.7 0-13.9-6.2-13.9-13.9v-28.7c0-7.7 6.2-13.9 13.9-13.9h83.6c7.7 0 13.9 6.2 13.9 13.9v28.7c0 7.6-6.3 13.9-13.9 13.9m-83.6-54.9c-6.8 0-12.2 5.5-12.2 12.2v28.7c0 6.8 5.5 12.2 12.2 12.2h83.6c6.8 0 12.2-5.5 12.2-12.2v-28.7c0-6.8-5.5-12.2-12.2-12.2zm95.8 25.8h93.1v1.6h-93.1zm-86-17.6h64c2.4 0 4.6 2.1 4.6 4.6v27.4c0 2.4-2.1 4.6-4.6 4.6h-64c-2.4 0-4.6-2.1-4.6-4.6v-27.4c0-2.7 2.1-4.6 4.6-4.6m64 37.3h-64c-2.9 0-5.4-2.5-5.4-5.4v-27.4c0-3 2.4-5.4 5.4-5.4h64c2.9 0 5.4 2.5 5.4 5.4V233c0 3-2.5 5.4-5.4 5.4m-64-36.5c-2.1 0-3.8 1.7-3.8 3.8v27.4c0 2 1.8 3.8 3.8 3.8h64c2 0 3.8-1.8 3.8-3.8v-27.4c0-2-1.8-3.8-3.8-3.8zm-22.1 98.9h201.2v1.8H156.2z" style="fill:#fff"/></svg>