<svg xmlns="http://www.w3.org/2000/svg" xml:space="preserve" viewBox="0 0 512 512"><path d="M511.8 121.4c-.1-1.1-.1-2.2-.2-3.3 0-.2 0-.5-.1-.7-.1-.9-.1-1.8-.2-2.6 0-.2 0-.4-.1-.6l-.3-2.7c0-.1 0-.3-.1-.4-.1-1-.3-1.9-.4-2.9v-.3c-.2-1-.3-2-.5-3v-.1c-.8-4.4-1.8-8.6-3-12.8v-.2c-.3-1-.6-2.1-1-3.1 0-.1 0-.1-.1-.2-.3-1-.7-2.1-1-3.1v-.1c-.4-1.1-.8-2.1-1.2-3.1-1-2.5-2-5-3.1-7.4 0-.1 0-.1-.1-.2-1.3-2.9-2.8-5.8-4.3-8.6-.1-.1-.1-.2-.2-.4-2.1-3.7-4.3-7.2-6.7-10.7-2.7-3.9-5.6-7.6-8.6-11.1-4.4-5.1-9.3-9.8-14.4-14.1-.1 0-.1-.1-.2-.1-1.2-1-2.5-2-3.8-3l-.2-.2q-4.8-3.75-9.9-6.9c-1.2-.7-2.3-1.4-3.5-2.1 0 0-.1 0-.1-.1-1.2-.7-2.4-1.4-3.6-2-1.1-.6-2.2-1.2-3.4-1.8-3.8-1.9-7.7-3.6-11.7-5.2-3.8-1.5-7.7-2.7-11.7-3.8-.1 0-.2-.1-.4-.1-1.2-.3-2.4-.6-3.5-.9-.1 0-.3-.1-.4-.1-2.5-.6-5.1-1.1-7.7-1.6-.3-.1-.7-.1-1-.2-1-.2-1.9-.3-2.9-.4-.4-.1-.7-.1-1.1-.2-1.3-.2-2.6-.3-3.8-.5-1.1-.1-2.2-.2-3.2-.3-1.4-.1-2.9-.2-4.4-.2H128c-1.5 0-2.9 0-4.4.1h-1.1c-1.5.1-2.9.1-4.4.2-1.1.1-2.2.2-3.2.3-1.3.1-2.6.3-3.8.5-.4 0-.7.1-1.1.2-1 .1-1.9.3-2.9.4-.3.1-.7.1-1 .2-2.6.4-5.2 1-7.7 1.6-.1 0-.3.1-.4.1-1.2.3-2.4.6-3.5.9-.1 0-.2.1-.4.1-4 1.1-7.9 2.4-11.7 3.8-4 1.5-7.9 3.3-11.7 5.2-1.1.6-2.3 1.2-3.4 1.8-1.2.7-2.4 1.3-3.6 2 0 0-.1 0-.1.1-1.2.7-2.4 1.4-3.5 2.1q-5.1 3.3-9.9 6.9l-.2.2c-1.3 1-2.5 2-3.8 3-.1 0-.1.1-.2.1-5.2 4.3-10 9.1-14.4 14.1-3.1 3.5-6 7.2-8.6 11.1-2.4 3.4-4.6 7-6.7 10.7-.2.1-.3.3-.3.4-1.5 2.8-3 5.7-4.3 8.6 0 0 0 .1-.1.1-1.1 2.4-2.1 4.9-3.1 7.4-.4 1-.8 2.1-1.2 3.1v.1c-.4 1-.7 2.1-1 3.1 0 .1 0 .1-.1.2-.3 1-.7 2.1-1 3.1v.2c-1.2 4.2-2.2 8.5-3 12.8v.1c-.2 1-.4 2-.5 3v.2c-.1 1-.3 1.9-.4 2.9 0 .1 0 .3-.1.4l-.3 2.7c0 .2 0 .4-.1.6-.1.9-.2 1.7-.2 2.6 0 .2 0 .5-.1.7-.1 1.1-.2 2.2-.2 3.3-.2 2.3-.3 4.5-.3 6.7v256c0 2.2.1 4.4.2 6.6.1 1.1.1 2.2.2 3.3 0 .2 0 .5.1.7.1.9.1 1.8.2 2.6 0 .2 0 .4.1.6l.3 2.7c0 .1 0 .3.1.4.1 1 .3 1.9.4 2.9v.2c.2 1 .3 2 .5 3v.1c.8 4.4 1.8 8.6 3 12.8v.2c.3 1 .6 2.1 1 3.1 0 .1 0 .1.1.2.3 1 .7 2.1 1 3.1v.1c.4 1.1.8 2.1 1.2 3.1 1 2.5 2 5 3.1 7.4 0 0 0 .1.1.1 1.3 2.9 2.8 5.8 4.3 8.6.1.1.1.2.2.4 2.1 3.7 4.3 7.2 6.7 10.7 2.7 3.9 5.6 7.6 8.6 11.1 4.4 5.1 9.3 9.8 14.4 14.1.1 0 .1.1.2.1 1.2 1 2.5 2 3.8 3l.2.2q4.8 3.75 9.9 6.9c1.2.7 2.3 1.4 3.5 2.1 0 0 .1 0 .1.1 1.2.7 2.4 1.4 3.6 2 1.1.6 2.2 1.2 3.4 1.8 3.8 1.9 7.7 3.6 11.7 5.2 3.8 1.5 7.7 2.7 11.7 3.8.1 0 .2.1.4.1 1.2.3 2.4.6 3.5.9.1 0 .3.1.4.1 2.5.6 5.1 1.1 7.7 1.6.3.1.7.1 1 .2 1 .2 1.9.3 2.9.4.4.1.7.1 1.1.2 1.3.2 2.6.3 3.8.5 1.1.1 2.2.2 3.2.3 1.4.1 2.9.2 4.4.2h1.1c1.5 0 2.9.1 4.4.1h256c1.5 0 2.9 0 4.4-.1h1.1c1.5-.1 2.9-.1 4.4-.2 1.1-.1 2.2-.2 3.2-.3 1.3-.1 2.6-.3 3.8-.5.4 0 .7-.1 1.1-.2 1-.1 1.9-.3 2.9-.4.3-.1.7-.1 1-.2 2.6-.4 5.2-1 7.7-1.6.1 0 .3-.1.4-.1 1.2-.3 2.4-.6 3.5-.9.1 0 .2-.1.4-.1 4-1.1 7.9-2.4 11.7-3.8 4-1.5 7.9-3.3 11.7-5.2 1.1-.6 2.3-1.2 3.4-1.8 1.2-.7 2.4-1.3 3.6-2 0 0 .1 0 .1-.1 1.2-.7 2.4-1.4 3.5-2.1q5.1-3.3 9.9-6.9l.2-.2c1.3-1 2.5-2 3.8-3 .1 0 .1-.1.2-.1 5.2-4.3 10-9.1 14.4-14.1 3.1-3.5 6-7.2 8.6-11.1 2.4-3.4 4.6-7 6.7-10.7.1-.1.1-.2.2-.4 1.5-2.8 3-5.7 4.3-8.6 0-.1 0-.1.1-.2 1.1-2.4 2.1-4.9 3.1-7.4.4-1 .8-2.1 1.2-3.1v-.1c.4-1 .7-2 1-3.1 0-.1 0-.1.1-.2.3-1 .6-2.1 1-3.1v-.2c1.2-4.2 2.2-8.5 3-12.8v-.1c.2-1 .4-2 .5-3v-.3c.1-1 .3-1.9.4-2.9 0-.1 0-.3.1-.4l.3-2.7c0-.2 0-.4.1-.6.1-.9.2-1.7.2-2.6 0-.2 0-.5.1-.7.1-1.1.2-2.2.2-3.3.1-2.2.2-4.4.2-6.6V128c.4-2.2.3-4.4.2-6.6m-311.9 9.5c47.8-21.3 102.6-13.8 143 19.6 3.8 3.1 4.3 8.7 1.2 12.5s-8.7 4.3-12.5 1.2c-35.1-29-82.8-35.6-124.4-17-41.5 18.5-68.5 58.1-70.6 103.5-.2 4.8-4.1 8.5-8.9 8.5h-.4c-4.9-.2-8.7-4.4-8.5-9.3 2.3-52.1 33.4-97.7 81.1-119M379 210.5c4.5-2 9.7 0 11.7 4.5s0 9.7-4.5 11.7l-39 17.4c-1.2.5-2.4.8-3.6.8-3.4 0-6.6-2-8.1-5.3-2-4.5 0-9.7 4.5-11.7zm-207 72.8-39 17.4c-1.2.5-2.4.8-3.6.8-3.4 0-6.6-2-8.1-5.3-2-4.5 0-9.7 4.5-11.7l39-17.4c4.4-2 9.7 0 11.7 4.5 2 4.4 0 9.6-4.5 11.7m-18 46.9-39 17.3c-1.2.5-2.4.8-3.6.8-3.4 0-6.7-2-8.1-5.3-2-4.5 0-9.7 4.5-11.7l39-17.3c4.4-2 9.7 0 11.7 4.5 2 4.4 0 9.7-4.5 11.7m157.2 50.9c-18 8-37 12-55.9 12-31.2 0-61.9-10.8-87.1-31.5-3.8-3.1-4.3-8.7-1.2-12.5s8.7-4.3 12.5-1.2c35.1 29 82.8 35.5 124.4 17s68.7-58.3 70.6-103.9c.2-4.9 4.2-9.3 9.2-8.5 4.9.2 8.7 4.3 8.5 9.2-2.1 52.3-33.2 98.1-81 119.4m93-201.3-39 17.4c-1.2.5-2.4.8-3.6.8-3.4 0-6.7-2-8.1-5.3-2-4.5 0-9.7 4.5-11.7l39-17.4c4.4-1.9 9.7 0 11.7 4.5s0 9.7-4.5 11.7" style="fill:#fff"/></svg>