<svg xmlns="http://www.w3.org/2000/svg" xml:space="preserve" viewBox="0 0 512 512"><path d="M121.8 323.9v-.3c1-13.1-7.6-28.6-19.2-34.7s-21.8-.5-22.7 12.6v.3zm66 38.1v-.3c1-13.1-7.6-28.6-19.2-34.7s-21.8-.5-22.7 12.6v.3zm286.6-247.1-23.3-12.8c-.2-.1-.3-.2-.5-.3L273.3 4.4a36.03 36.03 0 0 0-34.6 0L61.4 101.9c-.1.1-.3.2-.4.2L37.6 115C26.2 121.3 19 133.3 19 146.4v219.2c0 13.1 7.1 25.2 18.6 31.5l179 98.4c.2.1.5.2.7.4l21.4 11.8c10.8 5.9 23.8 5.9 34.6 0l21.5-11.8.6-.3 179-98.4c11.5-6.3 18.6-18.4 18.6-31.5V146.4c0-13.1-7.1-25.2-18.6-31.5M242.1 464v.2c-.1 6-6.5 9.9-11.9 7.2l-.2-.1-.1-.1-179.1-98.3c-2.7-1.5-4.3-4.3-4.3-7.3V170.7c0-6.3 6.8-10.3 12.3-7.3l179 98.4c2.7 1.5 4.3 4.3 4.3 7.3zm195.5-323.5-167.7 92.2-9.9 5.3c-2.5 1.4-5.5 1.4-8 0l-9.8-5.4-167.7-92.1c-1.2-.7-2.1-1.6-2.8-2.7-2.5-3.8-1.5-9.3 3-11.8L252 28.6c2.5-1.4 5.5-1.4 8 0L437.3 126c1.2.7 2.2 1.6 2.9 2.6 0 .2.1.3.2.4 2.3 3.7 1.3 9-2.8 11.5"/></svg>