<svg xmlns="http://www.w3.org/2000/svg" xml:space="preserve" viewBox="0 0 512 512"><path d="M409 0H103C46.1 0 0 46.1 0 103v306c0 56.9 46.1 103 103 103h306c56.9 0 103-46.1 103-103V103C512 46.1 465.9 0 409 0m-27.6 174.6c4.5 4.5 7 10.6 7 16.9 0 6.4-2.5 12.4-7 16.9s-10.6 7-17 7-12.5-2.5-17-7-7-10.6-7-16.9c0-6.4 2.5-12.4 7-16.9s10.6-7 17-7 12.5 2.5 17 7m-30.8 81.3c0 6.4-2.5 12.4-7 16.9s-10.6 7-17 7-12.5-2.5-17-7-7-10.6-7-16.9c0-6.4 2.5-12.4 7-16.9s10.6-7 17-7 12.5 2.5 17 7 7 10.6 7 16.9m-39.2-145.7c4.5-4.5 10.6-7 17-7s12.5 2.5 17 7 7 10.6 7 16.9c0 6.4-2.5 12.4-7 16.9s-10.6 7-17 7-12.5-2.5-17-7-7-10.6-7-16.9c-.1-6.4 2.5-12.4 7-16.9M296.9 168c4.6.9 8.9 3.1 12.2 6.4 3.4 3.3 5.7 7.5 6.6 12.1.8 3.5.7 7.2-.1 10.7s-2.5 6.8-4.7 9.6-5.1 5-8.3 6.5-6.8 2.3-10.3 2.3c-3.9 0-7.8-.9-11.2-2.8-3.5-1.8-6.4-4.4-8.6-7.7-1-1.6-2.4-2.9-4-3.8s-3.4-1.4-5.3-1.5h-14.1c-1.9.1-3.7.6-5.3 1.5s-3 2.2-4 3.8c-2.2 3.3-5.1 6-8.6 7.8-3.5 1.9-7.4 2.8-11.3 2.8-3.6 0-7.1-.8-10.3-2.3s-6.1-3.8-8.3-6.5c-2.3-2.8-3.9-6.1-4.7-9.6s-.9-7.1-.1-10.7c1-4.6 3.3-8.8 6.7-12.1s7.6-5.5 12.2-6.4c4.7-.9 9.6-.4 14 1.4s8.2 5 10.8 8.9c1 1.5 2.4 2.7 4 3.5s3.4 1.2 5.2 1.2h13.4c1.8.1 3.6-.3 5.2-1.1s3-2 4-3.5c2.6-4 6.4-7.2 10.8-9.1 4.4-1.8 9.3-2.3 14.1-1.4m-91 87.9c0 6.4-2.5 12.4-7 16.9s-10.6 7-17 7-12.5-2.5-17-7-7-10.6-7-16.9c0-6.4 2.5-12.4 7-16.9s10.6-7 17-7 12.5 2.5 17 7 7 10.6 7 16.9m-45.7-133.8c1-4.6 3.3-8.8 6.7-12.1s7.6-5.5 12.2-6.4c4.7-.9 9.6-.4 14 1.4s8.2 5 10.8 8.9c1 1.5 2.4 2.7 4 3.5s3.4 1.2 5.2 1.2h13.4c1.8.1 3.6-.3 5.2-1.1s3-2 4-3.5c2.6-4 6.4-7.2 10.8-9.1s9.3-2.4 14-1.5c4.6.9 8.9 3.1 12.2 6.4 3.4 3.3 5.7 7.5 6.6 12.1.8 3.5.7 7.2-.1 10.7s-2.5 6.8-4.7 9.6-5.1 5-8.3 6.5-6.8 2.3-10.3 2.3c-3.9 0-7.8-.9-11.2-2.8-3.5-1.8-6.4-4.4-8.6-7.7-1-1.6-2.4-2.9-4-3.8s-3.4-1.4-5.3-1.5h-14.1c-1.9.1-3.7.6-5.3 1.5s-3 2.2-4 3.8c-2.2 3.3-5.1 6-8.6 7.8-3.5 1.9-7.4 2.8-11.3 2.8-3.6 0-7.1-.8-10.3-2.3s-6.1-3.8-8.3-6.5c-2.3-2.8-3.9-6.1-4.7-9.6-.7-3.4-.7-7.1 0-10.6m-29.6 52.5c4.5-4.5 10.6-7 17-7s12.5 2.5 17 7 7 10.6 7 16.9c0 6.4-2.5 12.4-7 16.9s-10.6 7-17 7-12.5-2.5-17-7-7-10.6-7-16.9c-.1-6.3 2.5-12.4 7-16.9m-38.1 98.3c-4.5-4.5-7-10.6-7-16.9 0-6.4 2.5-12.4 7-16.9s10.6-7 17-7 12.5 2.5 17 7 7 10.6 7 16.9c0 6.4-2.5 12.4-7 16.9s-10.6 7-17 7-12.5-2.6-17-7m108.1 128.8c-4.5 4.5-10.6 7-17 7s-12.5-2.5-17-7-7-10.6-7-16.9c0-6.4 2.5-12.4 7-16.9s10.6-7 17-7 12.5 2.5 17 7 7 10.6 7 16.9c.1 6.3-2.5 12.4-7 16.9m19.2-57.1c-3.6 0-7.1-.8-10.3-2.3s-6.1-3.8-8.3-6.5c-.8-1-1.5-2-2.2-3.1q-1.2-1.5-3-2.4c-1.6-.9-3.4-1.4-5.3-1.5h-14.1c-1.9.1-3.7.6-5.3 1.5s-3 2.2-4 3.8c-2.2 3.3-5.1 6-8.6 7.8-3.5 1.9-7.4 2.8-11.3 2.8-3.6 0-7.1-.8-10.3-2.3s-6.1-3.8-8.3-6.5c-2.3-2.8-3.9-6.1-4.7-9.6s-.9-7.1-.1-10.7c1-4.6 3.3-8.8 6.7-12.1s7.6-5.5 12.2-6.4c4.7-.9 9.6-.4 14 1.4s8.2 5 10.8 8.9c1 1.5 2.4 2.7 4 3.5s3.4 1.2 5.2 1.2h13.4c1.8.1 3.6-.3 5.2-1.1s3-2 4-3.5c2.6-4 6.4-7.2 10.8-9.1s9.3-2.4 14-1.5c4.6.9 8.9 3.1 12.2 6.4 1.4 1.4 2.7 3 3.7 4.7 1 1.2 2.2 2.3 3.7 3 1.6.8 3.4 1.2 5.2 1.2h13.4c1.8.1 3.6-.3 5.2-1.1s3-2 4-3.5c2.6-4 6.4-7.2 10.8-9.1s9.3-2.4 14-1.5c4.6.9 8.9 3.1 12.2 6.4 3.4 3.3 5.7 7.5 6.6 12.1.8 3.5.7 7.2-.1 10.7s-2.5 6.8-4.7 9.6-5.1 5-8.3 6.5-6.8 2.3-10.3 2.3c-3.9 0-7.8-.9-11.2-2.8-3.5-1.8-6.4-4.4-8.6-7.7-1-1.6-2.4-2.9-4-3.8s-3.4-1.4-5.3-1.5H249c-1.9.1-3.7.6-5.3 1.5s-3 2.2-4 3.8c-2.2 3.3-5.1 6-8.6 7.8-3.4 1.7-7.3 2.7-11.3 2.7m132 45.7c-.8 3.5-2.5 6.8-4.7 9.6s-5.1 5-8.3 6.5-6.8 2.3-10.3 2.3c-3.9 0-7.8-.9-11.2-2.8-3.5-1.8-6.4-4.4-8.6-7.7-1-1.6-2.4-2.9-4-3.8s-3.4-1.4-5.3-1.5h-14.1c-1.9.1-3.7.6-5.3 1.5s-3 2.2-4 3.8c-2.2 3.3-5.1 6-8.6 7.8-3.5 1.9-7.4 2.8-11.3 2.8-3.6 0-7.1-.8-10.3-2.3s-6.1-3.8-8.3-6.5c-2.3-2.8-3.9-6.1-4.7-9.6s-.9-7.1-.1-10.7c1-4.6 3.3-8.8 6.7-12.1s7.6-5.5 12.2-6.4c4.7-.9 9.6-.4 14 1.4s8.2 5 10.8 8.9c1 1.5 2.4 2.7 4 3.5s3.4 1.2 5.2 1.2H299c1.8.1 3.6-.3 5.2-1.1s3-2 4-3.5c2.6-4 6.4-7.2 10.8-9.1s9.3-2.4 14-1.5c4.6.9 8.9 3.1 12.2 6.4 3.4 3.3 5.7 7.5 6.6 12.1.9 3.7.8 7.3 0 10.8m29.6-53c-4.5 4.5-10.6 7-17 7s-12.5-2.5-17-7-7-10.6-7-16.9c0-6.4 2.5-12.4 7-16.9s10.6-7 17-7 12.5 2.5 17 7 7 10.6 7 16.9c.1 6.3-2.5 12.4-7 16.9m38.1-64.4c-4.5 4.5-10.6 7-17 7s-12.5-2.5-17-7-7-10.6-7-16.9c0-6.4 2.5-12.4 7-16.9s10.6-7 17-7 12.5 2.5 17 7 7 10.6 7 16.9c.1 6.3-2.5 12.4-7 16.9" style="fill:#fff"/></svg>