<?xml version="1.0" encoding="utf-8"?>
<!-- Generator: Adobe Illustrator 28.2.0, SVG Export Plug-In . SVG Version: 6.00 Build 0)  -->
<svg version="1.1" id="Layer_1" xmlns="http://www.w3.org/2000/svg" xmlns:xlink="http://www.w3.org/1999/xlink" x="0px" y="0px"
	 viewBox="0 0 512 512" style="enable-background:new 0 0 512 512;" xml:space="preserve">
<style type="text/css">
	.st0{fill:#33D17A;}
</style>
<g>
	<path class="st0" d="M255.9,0c-2.4,0-4.9,0.6-7.1,1.6L112.1,66.1c-6,2.8-9.8,8.9-9.8,15.5l0.2,140.3c0,9.4,7.6,17.1,17.1,17.1h51.2
		v51.2c0,9.4,7.6,17.1,17.1,17.1H239v51.2c0,9.4,7.6,17.1,17.1,17.1h68.3c9.4,0,17.1-7.6,17.1-17.1c0-9.4-7.6-17.1-17.1-17.1h-51.2
		v-51.2c0-9.4-7.6-17.1-17.1-17.1h-51.2v-51.2c0-9.4-7.6-17.1-17.1-17.1h-51.2l-0.1-112.4l119.4-56.3l119.7,59.8v57.7
		c0,9.4,7.6,17.1,17.1,17.1c9.4,0,17.1-7.6,17.1-17.1V85.3c0-6.5-3.6-12.4-9.4-15.3L263.8,1.8C261.3,0.6,258.6,0,255.9,0L255.9,0z
		 M222,102.4c-9.4,0-17.1,7.6-17.1,17.1c0,9.4,7.6,17.1,17.1,17.1h51.2v51.2c0,9.4,7.6,17.1,17.1,17.1h51.2V256
		c0,9.4,7.6,17.1,17.1,17.1h17.1v143.1l-119.5,59.7l-119.5-59.7v-126c0-9.4-7.6-17.1-17.1-17.1c-9.4,0-17.1,7.6-17.1,17.1v136.5
		c0,6.5,3.6,12.4,9.4,15.3l136.5,68.3c4.8,2.4,10.5,2.4,15.3,0l136.5-68.3c5.8-2.9,9.4-8.8,9.4-15.3V256c0-9.4-7.6-17.1-17.1-17.1
		h-17.1v-51.2c0-9.4-7.6-17.1-17.1-17.1h-51.2v-51.2c0-9.4-7.6-17.1-17.1-17.1L222,102.4z"/>
</g>
</svg>
