<?xml version="1.0" encoding="utf-8"?>
<!-- Generator: Adobe Illustrator 28.2.0, SVG Export Plug-In . SVG Version: 6.00 Build 0)  -->
<svg version="1.1" id="Layer_1" xmlns="http://www.w3.org/2000/svg" xmlns:xlink="http://www.w3.org/1999/xlink" x="0px" y="0px"
	 viewBox="0 0 512 512" style="enable-background:new 0 0 512 512;" xml:space="preserve">
<style type="text/css">
	.st0{fill:url(#SVGID_1_);}
	.st1{fill:url(#SVGID_00000044874635979408995990000002730590387704647066_);}
	.st2{opacity:0.5443;fill:url(#SVGID_00000082358162635331302460000001881544901788988550_);enable-background:new    ;}
	.st3{fill:#3465A4;}
	.st4{fill:url(#SVGID_00000000943650309476316590000008063397508289144458_);}
	.st5{opacity:0.4937;fill:url(#SVGID_00000117635393729063681590000017236201481506029239_);enable-background:new    ;}
</style>
<linearGradient id="SVGID_1_" gradientUnits="userSpaceOnUse" x1="-1065.6984" y1="-122.3352" x2="-1046.462" y2="-122.3352" gradientTransform="matrix(21.1429 0 0 21.1429 22584.5977 2842.522)">
	<stop  offset="0" style="stop-color:#729FCF"/>
	<stop  offset="0.3158" style="stop-color:#BABDB6"/>
	<stop  offset="1" style="stop-color:#3465A4"/>
</linearGradient>
<path class="st0" d="M254.3,10.7C146,10.7,57.9,49.3,57.9,96.7v318.5c0,47.5,88.1,86.1,196.3,86.1s199.8-38.6,199.8-86.1V96.7
	C454.1,49.3,362.5,10.7,254.3,10.7L254.3,10.7z"/>
<linearGradient id="SVGID_00000139994650218090000780000006206425342856111278_" gradientUnits="userSpaceOnUse" x1="174.6609" y1="444.6316" x2="639.3511" y2="444.6316" gradientTransform="matrix(0.9013 0 0 1.1095 -110.8482 -237.3187)">
	<stop  offset="0" style="stop-color:#729FCF"/>
	<stop  offset="1" style="stop-color:#204A87"/>
</linearGradient>
<path style="fill:url(#SVGID_00000139994650218090000780000006206425342856111278_);" d="M254.3,512c-53.8,0-104.6-9.3-143.1-26.1
	c-41.2-18.1-64-43.2-64-70.6V96.7c0-27.4,22.7-52.5,64-70.6C149.7,9.3,200.5,0,254.3,0c54,0,105.4,9.3,144.7,26.1
	c42.4,18.2,65.8,43.2,65.8,70.6v318.5c0,27.4-23.4,52.5-65.8,70.6C359.6,502.7,308.3,512,254.3,512z M254.3,21.3
	c-50.9,0-98.7,8.6-134.5,24.4c-32.5,14.3-51.2,32.9-51.2,51v318.5c0,18.2,18.7,36.8,51.2,51.1c35.8,15.7,83.6,24.3,134.5,24.3
	c111.4,0,189.1-39.7,189.1-75.4V96.7C443.4,61.1,365.7,21.3,254.3,21.3z"/>
<linearGradient id="SVGID_00000062182766949709910040000018099018860827267478_" gradientUnits="userSpaceOnUse" x1="-1058.7694" y1="-127.9202" x2="-1049.8918" y2="-109.7585" gradientTransform="matrix(21.1429 0 0 21.1429 22584.5977 2842.522)">
	<stop  offset="0" style="stop-color:#3977C3"/>
	<stop  offset="1" style="stop-color:#89AEDC;stop-opacity:0"/>
</linearGradient>
<path style="opacity:0.5443;fill:url(#SVGID_00000062182766949709910040000018099018860827267478_);enable-background:new    ;" d="
	M254.4,497.5c-50.2,0-97.7-8.7-133.6-24.4c-38.7-17-60.1-40.6-60.1-66.5V101.7c0-25.9,21.3-49.5,60-66.5
	c35.9-15.8,83.4-24.4,133.7-24.4c50.4,0,98.4,8.7,135.2,24.4c39.8,17.1,61.8,40.7,61.8,66.6v304.8c0,25.9-21.9,49.5-61.8,66.6
	C352.8,488.8,304.8,497.5,254.4,497.5z M254.4,32c-47.4,0-91.8,8-125.1,22.6C99.2,67.9,82,85,82,101.7v304.8
	c0,16.7,17.2,33.8,47.3,47c33.3,14.6,77.7,22.6,125.1,22.6c46.9,0,93.1-8.3,126.8-22.7c31-13.3,48.8-30.4,48.8-47V101.7
	c0-16.6-17.8-33.7-48.8-47C347.5,40.3,301.3,32,254.4,32z"/>
<path class="st3" d="M438.8,95.6c0,40-82.2,72.3-183.7,72.3S71.4,135.6,71.4,95.6s82.2-72.3,183.7-72.3S438.8,55.7,438.8,95.6z"/>
<linearGradient id="SVGID_00000104675442997307115920000008531386270970054552_" gradientUnits="userSpaceOnUse" x1="-1057.8658" y1="-128.9208" x2="-1057.8658" y2="-130.8687" gradientTransform="matrix(21.9314 0 0 20.1834 23455.5703 2727.447)">
	<stop  offset="0" style="stop-color:#FFFFFF"/>
	<stop  offset="1" style="stop-color:#729FCF"/>
</linearGradient>
<path style="fill:url(#SVGID_00000104675442997307115920000008531386270970054552_);" d="M255.1,168.5
	c-101.6,0-184.2-32.7-184.2-72.9s82.7-72.9,184.2-72.9c101.6,0,184.2,32.7,184.2,72.9S356.7,168.5,255.1,168.5z M255.1,23.8
	c-101,0-183.2,32.2-183.2,71.8s82.2,71.8,183.2,71.8s183.2-32.2,183.2-71.8S356.1,23.8,255.1,23.8z"/>
<linearGradient id="SVGID_00000127755462731476277020000016549131405953009062_" gradientUnits="userSpaceOnUse" x1="-1060.4384" y1="-127.9355" x2="-1060.6245" y2="-121.0939" gradientTransform="matrix(21.1429 0 0 21.1429 22581.5762 2898.3989)">
	<stop  offset="0" style="stop-color:#FFFFFF"/>
	<stop  offset="1" style="stop-color:#FFFFFF;stop-opacity:0"/>
</linearGradient>
<path style="opacity:0.4937;fill:url(#SVGID_00000127755462731476277020000016549131405953009062_);enable-background:new    ;" d="
	M112.4,159.6l4.9,231.3l63,17.8l-2-230.4c0,0,28.6,0,74.8-2.9c-71.8-3.2-154.1-34.1-182-54.1C90.6,150,112.4,159.6,112.4,159.6
	L112.4,159.6z"/>
</svg>
