<svg xmlns="http://www.w3.org/2000/svg" xml:space="preserve" viewBox="0 0 512 512"><path d="M26.5 365.5 226.8 165l29.2-29.2 29.2 29.2 147.9 147.9-.2.7-2.9 8.6-3.3 8.4-3.7 8.2-4.1 8-3.7 6.5L256 194.2c-69.4 69.5-138.8 138.9-208.2 208.4-8-11.8-15.5-24-21.3-37.1" style="fill-rule:evenodd;clip-rule:evenodd;fill:#e64a19"/><path d="M256 0c141 0 256 115 256 256S397 512 256 512c-77 0-146.3-34.3-193.3-88.5l9-9.1 6.6-6.6 6.6-6.6 6.6-6.6.3-.3C131.3 441.2 190.3 471 256 471c118.4 0 215-96.6 215-215S374.4 41 256 41 41 137.6 41 256c0 15.9 1.8 31.5 5.1 46.5l-14.3 14.3-19 19.1C4.5 310.7 0 283.9 0 256 0 115 115 0 256 0" style="fill-rule:evenodd;clip-rule:evenodd;fill:#474747"/></svg>