<?xml version="1.0" encoding="utf-8"?>
<!-- Generator: Adobe Illustrator 28.2.0, SVG Export Plug-In . SVG Version: 6.00 Build 0)  -->
<svg version="1.1" id="Layer_1" xmlns="http://www.w3.org/2000/svg" xmlns:xlink="http://www.w3.org/1999/xlink" x="0px" y="0px"
	 viewBox="0 0 512 512" style="enable-background:new 0 0 512 512;" xml:space="preserve">
<style type="text/css">
	.st0{fill:#E7C200;}
	.st1{fill:#FFDA18;}
	.st2{fill:#FFFFFF;}
	.st3{fill-rule:evenodd;clip-rule:evenodd;fill:#0D1A2B;}
</style>
<path class="st0" d="M252,28.6c2.5-1.4,5.5-1.4,8,0L437.3,126c5.7,3.1,5.7,11.4,0,14.5L260,238c-2.5,1.4-5.5,1.4-8,0L74.7,140.6
	c-5.7-3.1-5.7-11.4,0-14.5L252,28.6z"/>
<path class="st1" d="M46.7,170.7c0-6.3,6.8-10.3,12.3-7.3l178.9,98.4c2.6,1.5,4.3,4.2,4.3,7.3V464c0,6.3-6.8,10.3-12.3,7.3L51,372.8
	c-2.6-1.5-4.3-4.2-4.3-7.3V170.7z"/>
<path class="st2" d="M453.1,163.4c5.5-3,12.3,1,12.3,7.3v194.9c0,3-1.6,5.8-4.3,7.3l-179,98.4c-5.5,3-12.3-1-12.3-7.3V269.1
	c0-3,1.7-5.8,4.3-7.3L453.1,163.4z"/>
<path class="st3" d="M474.3,114.9L451,102.1c-0.2-0.1-0.4-0.2-0.5-0.3L273.3,4.4c-10.8-5.9-23.8-5.9-34.6,0L61.4,101.9
	c-0.1,0.1-0.3,0.2-0.4,0.2L37.6,115C26.2,121.3,19,133.3,19,146.4v219.2c0,13.1,7.1,25.2,18.6,31.5l179,98.4
	c0.2,0.1,0.5,0.2,0.7,0.4l21.4,11.8c10.8,5.9,23.8,5.9,34.6,0l21.5-11.8c0.2-0.1,0.4-0.2,0.6-0.3l178.9-98.4
	c11.5-6.3,18.6-18.4,18.6-31.5V146.4C492.9,133.3,485.8,121.2,474.3,114.9z M242.2,279.3v184.6c0,0,0,0.1,0,0.1c0,0.1,0,0.1,0,0.1
	c0,0.1,0,0.1,0,0.2c-0.2,6.1-6.9,9.9-12.3,7L104,402l-29.3-16.1c-0.2-0.1-0.4-0.2-0.5-0.4L51,372.8c-2.6-1.5-4.3-4.2-4.3-7.3v-22.9
	c-0.1-0.4-0.1-0.8-0.1-1.3V170.7c0-4.8,3.9-8.2,8.1-8.3c1.4-0.1,2.9,0.3,4.3,1l178.9,98.4c2.6,1.5,4.3,4.2,4.3,7.3V279.3z M252,238
	l-9.8-5.4v0.1L74.5,140.5c-0.2-0.1-0.4-0.3-0.6-0.4c-0.1-0.1-0.2-0.1-0.3-0.2c-0.1-0.1-0.2-0.2-0.3-0.3c-3.8-3.2-3.8-9.3,0-12.5
	c0.1-0.1,0.2-0.2,0.3-0.3c0.1-0.1,0.2-0.1,0.3-0.2c0.2-0.1,0.4-0.3,0.6-0.4l9.9-5.4L252,28.6c2.5-1.4,5.5-1.4,8,0L437.3,126
	c3.8,2,5,6.3,3.8,9.9c-0.6,1.8-1.8,3.4-3.6,4.5l-80.6,44.3L260,238C257.5,239.4,254.5,239.4,252,238z M465.4,341.3v24.3
	c0,3-1.6,5.8-4.3,7.3l-179,98.4c-0.1,0-0.1,0.1-0.2,0.1l-0.2,0.1c-0.1,0.1-0.3,0.1-0.4,0.2c-0.1,0-0.2,0.1-0.3,0.1
	c-5.2,2-11.1-1.7-11.3-7.5v-0.1c0.1-0.2,0.1-0.2,0.1-0.3V279.4l0,0v-10.3c0-3,1.7-5.8,4.3-7.3l179-98.4c5.5-3,12.3,1,12.3,7.3V341.3
	z M121.8,323.6c0,0.1,0,0.2,0,0.3l-41.9-22.1c0-0.1,0-0.2,0-0.3c1-13.1,11.2-18.7,22.7-12.6C114.2,295,122.8,310.5,121.8,323.6z
	 M187.8,361.7c0,0.1,0,0.2,0,0.3l-41.9-22.1c0-0.1,0-0.2,0-0.3c1-13.1,11.2-18.7,22.7-12.6C180.2,333.1,188.8,348.7,187.8,361.7z"/>
</svg>
