<svg xmlns="http://www.w3.org/2000/svg" xml:space="preserve" viewBox="0 0 512 512"><linearGradient id="moltbot-light_svg__a" x1="38.375" x2="481.416" y1="54.964" y2="468.107" gradientUnits="userSpaceOnUse"><stop offset="0" style="stop-color:#fff;stop-opacity:.6"/><stop offset=".106" style="stop-color:#fff;stop-opacity:.6425"/><stop offset="1" style="stop-color:#fff"/></linearGradient><path d="M256 39.3c-135 0-202.5 112.5-202.5 202.5s67.5 180 135 202.5v45h45v-45s22.5 9 45 0v45h45v-45c67.5-22.5 135-112.5 135-202.5S391 39.3 256 39.3m-67.5 139.5c-14.9 0-27-12.1-27-27s12.1-27 27-27 27 12.1 27 27-12.1 27-27 27m135 0c-14.9 0-27-12.1-27-27s12.1-27 27-27 27 12.1 27 27-12.1 27-27 27" style="fill:url(#moltbot-light_svg__a)"/><linearGradient id="moltbot-light_svg__b" x1="-672.565" x2="-668.064" y1="777.351" y2="772.849" gradientTransform="matrix(23.0719 0 0 -21.7808 15519.697 17119.95)" gradientUnits="userSpaceOnUse"><stop offset="0" style="stop-color:#fff;stop-opacity:.6"/><stop offset=".106" style="stop-color:#fff;stop-opacity:.6425"/><stop offset="1" style="stop-color:#fff"/></linearGradient><path d="M76 196.8c-67.5-22.5-90 22.5-67.5 67.5s67.5 22.5 90-22.5c13.5-31.5 0-45-22.5-45" style="fill:url(#moltbot-light_svg__b)"/><linearGradient id="moltbot-light_svg__c" x1="-658.669" x2="-654.168" y1="777.486" y2="772.985" gradientTransform="matrix(23.0719 0 0 -21.7808 15610.38 17119.95)" gradientUnits="userSpaceOnUse"><stop offset="0" style="stop-color:#fff;stop-opacity:.6"/><stop offset=".113" style="stop-color:#fff;stop-opacity:.645"/><stop offset="1" style="stop-color:#fff"/></linearGradient><path d="M436 196.8c67.5-22.5 90 22.5 67.5 67.5s-67.5 22.5-90-22.5c-13.5-31.5 0-45 22.5-45" style="fill:url(#moltbot-light_svg__c)"/><path d="M188.5 124.8c-14.9 0-27 12.1-27 27s12.1 27 27 27 27-12.1 27-27-12.1-27-27-27m4.5 31.5c-5 0-9-4-9-9s4-9 9-9 9 4 9 9-4 9-9 9m130.5-31.5c-14.9 0-27 12.1-27 27s12.1 27 27 27 27-12.1 27-27-12.1-27-27-27m4.5 31.5c-5 0-9-4-9-9s4-9 9-9 9 4 9 9-4 9-9 9" style="opacity:.58;fill:#fff"/><path d="M188.5 66.3c-1.2 0-2.3-.4-3.2-1.3-27.8-27.8-49.3-38.5-62-30.8-2.1 1.3-4.9.6-6.2-1.5s-.6-4.9 1.5-6.2c17.2-10.3 41.1.2 73 32.2 1.8 1.8 1.8 4.6 0 6.4-.8.7-2 1.2-3.1 1.2M326.7 65c27.8-27.8 49.3-38.5 62-30.8 2.1 1.3 4.9.6 6.2-1.5s.6-4.9-1.5-6.2c-17.2-10.3-41.1.2-73 32.2-1.8 1.8-1.8 4.6 0 6.4.9.9 2 1.3 3.2 1.3s2.2-.6 3.1-1.4M193 138.3c5 0 9 4 9 9s-4 9-9 9-9-4-9-9 4-9 9-9m135 0c5 0 9 4 9 9s-4 9-9 9-9-4-9-9 4-9 9-9" style="fill:#fff"/></svg>