<svg xmlns="http://www.w3.org/2000/svg" xml:space="preserve" viewBox="0 0 512 512"><path d="M240.7 165.6c.4.4.7 1 .7 1.6v46.3c0 .7-.4 1.3-.9 1.7-.4.3-.8.4-1.2.4-.3 0-.5 0-.7-.1-11.1-3.8-18.9-8.1-23.2-12.7-4.5-4.7-6.7-9.8-6.7-15 0-6.3 3.1-11.8 9.3-16.2 4.3-3 11.1-5.1 21-6.4.6-.1 1.2.1 1.7.4m32 169h.3c9.3-1.2 16.8-3.9 22.4-8 5.9-4.3 8.8-10.2 8.8-17.5 0-6.4-2.2-12-6.6-16.7-5.8-6-14-10.7-24.4-13.8-.6-.2-1.3-.1-1.8.3s-.8 1-.8 1.7v51.9c0 .6.3 1.2.7 1.6.4.3.9.5 1.4.5m233.9 3.4L340.7 503.9c-.7.8-1.8 1.2-2.9 1.2s-2.1-.4-2.9-1.2l-41.7-41.7-36.3 36.3c-.8.8-1.9 1.2-3 1.2s-2.1-.4-2.9-1.2l-36.3-36.4-41.7 41.8c-.8.8-1.9 1.2-2.9 1.2-1.1 0-2.1-.4-2.9-1.2L1.2 338c-.8-.8-1.2-1.8-1.2-2.9s.4-2.1 1.2-2.9L43 290.4 6.7 254.1c-1.6-1.6-1.6-4.2 0-5.8L251 3.9c1.6-1.6 4.2-1.6 5.8 0l244.4 244.4c.8.8 1.2 1.8 1.2 2.9s-.4 2.1-1.2 2.9l-36.3 36.4 41.7 41.7c1.6 1.6 1.6 4.2 0 5.8M208.9 456.4 48.7 296.3 10 335.1l160.1 160.1zm32.5-89.2v42.6h29.2v-39.7c0-1.1.8-2 1.9-2.1 15.6-1.2 29.8-5.2 42.1-12.1 12.3-6.8 21.7-15.5 28-25.7s9.4-20.9 9.9-31.8c0-10.2-2.6-20.1-7.9-29.6-5.3-9.6-13.1-17.7-23.1-24.2-10.1-6.6-26.6-13.1-49-19.5-.9-.3-1.5-1.1-1.5-2v-49.6c0-.8.4-1.4 1-1.8.6-.3 1.4-.3 2 0 18.2 10 31.8 25.7 40.3 46.7l28-8.1-19.3-74.8h-16l-5.9 11.2c-.3.5-.7.9-1.3 1-.5.2-1.1.1-1.6-.2-5.6-3.5-10.1-6.1-13.5-7.6q-5.1-2.25-12.3-4.5c-.9-.3-1.5-1.1-1.5-2V92.6h-29.2v36.6c0 1.1-.9 2.1-2 2.1-16.7.7-31 4.1-42.4 10s-20.4 14-26.8 24-9.6 20.5-9.6 31.2c0 9.3 2.6 18.7 7.7 28 5.1 9.2 12.2 16.9 21.1 22.8 9 6 26 13.2 50.5 21.4.8.3 1.4 1.1 1.4 2v57.5c0 .7-.4 1.3-.9 1.7-.6.4-1.3.5-1.9.3-6.1-2.1-11.9-5.4-17.2-9.7-7-5.6-13.4-12.3-19-20-5.4-7.4-11.1-17.4-16.8-29.8l-29.5 7.1 16.3 87.4h15.7l7.7-19.1c.2-.6.7-1 1.3-1.2s1.3-.1 1.8.3c14.1 10.2 27.8 17 40.7 20 .9.2 1.6 1 1.6 2M498 335.1l-38.8-38.8-160.1 160.1 38.8 38.8zM40.8 353.5l26.4-26.4 22.1 22.1-26.4 26.4zm26.3-14.7-14.7 14.7 10.4 10.4 14.7-14.7zm68.3 109.3 20.5-20.5 10.5 10.4-20.6 20.5 5.8 5.9L178 438l-22.1-22.1-26.4 26.4zm311.1-85.6-5.8 5.8 5.8 5.8-13.4 13.4-2.9 2.9-2.9-2.9-20.6-20.6-2.9-2.9 3-2.8 13.4-13.4 5.8 5.8 5.8-5.8zm-5.9 5.8-14.7-14.7-10.4 10.4 14.7 14.7zm-68 38.6-5.9-5.9-22.1 22.1 5.9 5.9 8.1-8.1 20.5 20.5 5.9-5.9-20.5-20.5zm29.6-29.6-5.9-5.9-22.1 22.1 5.9 5.9 8.2-8.2 20.5 20.5 5.9-5.9-20.5-20.5zM96.7 356.7l22.2 22.1-18.3 18.3-16.3-16.3-8.1 8.1-5.9-5.9zm10.5 22.1-10.4-10.4-6.6 6.6 10.4 10.4zm11.1 15.5-5.9 5.9-12.5 12.5 22.1 22.1 5.9-5.8-16.3-16.3 6.7-6.7 16.3 16.3 5.9-5.9-16.3-16.3 2.1-2.1 16.3 16.2 5.8-5.8-22.1-22.1z"/></svg>