<svg xmlns="http://www.w3.org/2000/svg" xml:space="preserve" viewBox="0 0 512 512"><path d="M75.2 298.5c1 1.1 1.5 3.5 1 6.1-.4 2.6-2.8 3.7-5.2 1.6-1.1-.9-3.6-4.9-4.2-9.2-.7-4.4.8-8.2 1.7-9.4 0 0 .3 3.8 2.1 6.5 1.7 2.9 4.1 3.9 4.6 4.4m21-.4 2.1-1.3c.3-.4 1-1.5 1.5-2.2.5-.9-.1-2-.7-2-1 0-1.4 0-2.6 1-.6.5-1.4 1.7-1.8 2.5-.5 1-2.1 2-2.1 2.1 0-.1 2.8.1 3.6-.1m382.9-100.2c-.2 5.4-2.6 10.3-6.7 13.9s-9.5 5.5-15.1 5.4c-11.6-.4-20.7-9.8-20.4-20.8.2-5.4 2.6-10.3 6.7-13.9s9.5-5.6 15.1-5.4c11.6.4 20.8 9.7 20.4 20.8m-7.5-4.9c0-3.4-4.2-6-9.4-6s-9.4 2.6-9.4 6 4.2 6 9.4 6 9.4-2.6 9.4-6m-6.9 45.2c-18.7-1.6-43.2-11.8-72.7-30.3 1.3 2.9 7.5 16.8 8.5 19.1l.4.5c4.3 2.1 45.3 22 65.6 21.6 16.4-.3 33.9-7.9 40.9-11.9l2.2-.4c.6.4.5 1.3.3 2.2-.5 1.8-1.4 5.3-2.1 7l-.6 1.4c-.8 2-1.6 3.9-3.1 5.1-4.1 3.6-10.7 6.4-21 10.7-16 6.6-41.9 10.8-66 10.7-8.6 0-17-1-24.3-1.8-22.4-2.5-38.6-4.1-42 15.2-4.2 24.3 19.8 53.7 20 54v.8l-.8.2s-38.2-16.8-39.2-17.3l-1.2-.9-1-.9c-2.9-2.7-8.7-8.6-20.5-21.6-22.8-25.1-46.9-28.4-67.5-23.6-5 1.2-11.3 4.7-15.5 8.6-10.7 10.1-9.5 30.4-8.9 37.8.7 8.4 1.2 9 1.4 9.7l-.1.9-.8.1-.3-.1-31.4-14.6-1.2-4.9c-.8-3.3-1.7-6.8-3.5-11.3-11.2-28.2-42.8-52.6-70.6-57.2-18.7-3-53-3.4-71.1 29.2-7.6 13.5-7.1 31.2 1.2 46.1 8.5 15.2 23.6 25.1 41.5 26.9 17.8 1.9 31.1-2 38.6-11.3 7.6-9.3 17.1-26.2 11.7-36.5-1.1-2-1.8-3.8-2.2-5.4-.9-1.6-2.2-3.4-4.2-5.3-2.4 1-3.7 3-4.3 3.8-.3.4-.6.9-.8 1.7s.1 4-.3 4.7c-.4.6-1.7-1.7-3-3.1-1.2-1.3.4-8 1.9-10.5.5-.8 1.8-2.4 3.9-3.3-1.6-1-3.1-2.2-4.7-2.9-2.7.6-7.7 4.9-9.8 6.8-2.7 2.3-4.5 5.6-5.4 9.2l.5.4.3.2.3.1c.1 0 .2 0 .3.1h.4c.4.1.7.4.6.9-.2.7-.8.5-1.2.3-.1-.1-.3-.1-.4-.2-.3-.2-.6-.6-.9-1l-.1.3v.1c.3.5.6 1 1.1 1.4.3.3.6.5.8.8l.4.3.4.3.4.2c.1 0 .2.1.2.1h.1l.2.1c.5.2 1 .6.8 1.4-.3 1-1.2.8-1.8.4-.2-.1-.4-.2-.6-.4-.6-.6-1.4-1.6-1.9-2.7-.2-.3-.3-.6-.4-.9l-.1.9.3.7c.3.7.8 1.3 1.3 1.9.4.4.7.8 1.1 1.1l.5.4.6.4c.2.1.3.1.5.2.1 0 .2.1.2.1h.1c.1 0 .2.1.3.1.7.3 1.2.8.9 1.8-.4 1.3-1.6 1.1-2.4.5-.2-.1-.5-.3-.7-.5-.7-.7-1.6-2.1-2.2-3.4.3.9.6 1.9 1.1 2.8.4.7.7 1.3 1.1 1.8l.6.7c.2.3.4.5.7.7s.4.3.7.5l.2.2.1.1.3.3c.7.7 1.3 1.7.6 2.9-.9 1.6-2.2.7-3.1-.3-.2-.3-.5-.5-.8-.9-.8-1.2-1.6-3.4-2-5.7.1 1.4.3 2.9.6 4.1l.4 1.1c.7 2 1.7 3.6 2.6 4.9 1 1.1 2.4 1.2 3.6.7 1.1-.4 2.1-1.4 2.3-1.9.3-.7.1-1.1.1-1.1 0-.3.1-.9.4-1.3s1-.2 1.1.7c0 .1.3 1.1-.4 2.5-.7 1.5-2 2.4-3.5 3-1.1.3-2.5.4-3.5-.3.7 1.1 1.5 1.8 2.3 2.6 3.3 2.7 8.1 2.5 11.8.4 1.2-.6 2.2-1.4 3.1-2.3.3-.5.6-1.1.8-1.9.4-1.1.5-2.5.3-3.8-.4-2.7-2.1-4.6-2.6-5.2-.2-.3-.5-.6-.9-.7-.4-.2-.9-.2-1.3-.5s-.4-1.1.3-1.9c.6-.8 2.5-1.1 3.9.6.4.6 1.3 1.8 1.9 3.5s.8 3.7.4 5.5c.2-.7.3-1.3.4-1.9.4-3-.3-4.9-.3-5.1-.4-1.7-.5-3.3.1-3.8s2.1.9 2.7 3.2c0 .1.4.9.4 2 .3 1.3.4 3-.1 4.9.1 1-.4 1.9-.9 3-.4 1-1.1 2-1.9 2.8-1.5 1.8-3.5 3.2-5.9 4.2l-1.8.8c.5.3.8.7 1 1.5.4 1 .3 4.7.2 4.7 0 0-1.1-1.5-2.2-1.4-.9 0-2.1 0-2.7-.1q-.75-.3-.9-.6c-.4 1.3-1.6 3.4-1.6 3.4-.1 0 .2-1.4-.4-1.9-.5-.4-1.3-1.1-1.6-1.7-.4 1.2-1.4 3.1-1.4 3.1s.1-1.7-.3-2.4c-.3-.5-.8-1.4-.9-2-.2-1.2-.1-1.6.2-2.6 0-.1.1-.2.2-.4-.4-.3-.8-.6-1.3-1l-1.3-1.4c-.2 1.5-.7 2.9-1.6 4.2-1.7 2.5-3.9 3-4.5 1.3.9.9 2.7-.5 3.5-2.3.8-1.9 1-3.4.7-5.4-.1-.5-.2-1.1-.4-1.7l-.1-.2c-1.5-3.1-2.5-7.6-2.9-12-.5-5.6.5-11.5 3.1-15.9-1.6.5-3.3.6-4.6.7-.5 0-1-.2-1.4-.3-1.5-.3-3.3-1.3-2.8-3.2.4-1.5 1.6-1.4 2.7-1 .2.1.3.1.4.2l.2.1s.2.1.3.1c.4.2.6.2.9.4.3.1.7.2 1.1.3l1 .1c.7.1 1.5.2 2.3.2.6 0 1.2 0 1.7-.1l.3-.4c-1.5.2-3-.1-4-.5-.4-.1-.7-.3-1-.4-1.1-.5-2.3-1.5-1.6-2.7.5-.9 1.4-.7 2.1-.2.1.1.2.1.3.2l.1.1s.1.1.2.1c.3.2.4.3.6.4l.7.4.7.3c.5.2 1.1.4 1.6.5s1.1.2 1.6.2l.6-.5c-.8 0-1.6-.2-2.2-.4-.3-.1-.5-.3-.7-.4-.8-.5-1.7-1.4-1.2-2.2.4-.7 1.1-.4 1.6.1l.2.2.1.1s.1.1.2.1c.2.2.3.2.5.4l.6.3.5.3c.4.2.8.3 1.3.4l.6.1.6-.4-.4-.2c-.2-.1-.4-.2-.5-.3-.5-.3-1.1-.9-.8-1.4.3-.4.7-.2 1.1.1l.2.1.1.1s.1 0 .1.1c.2.1.2.2.3.2l.4.3.4.2.5.2c.7-.3 3.1-4.2 3.9-4.4-6.6-3.5-13.9-1.3-17.7-2.2.8.6 1.5 1.1 1.8 1.5.1-.1-5.1-.6-8.5 2.1-3.6 2.4-4.5 6.6-5 7.4-1.1 1.7-3.6 3-6.6 2.9-2.8-.2-5.4-4.1-3.5-8.8.8-2 5.3-6.9 11.1-7.4q-1.2-.45-2.1-1.2c-3.7.9-7.1 3.4-9.3 5.7-2.2 2.8-2.4 6.2-1.7 8.7s2.3 4.4 3 4.6c.9.4 1.5.1 1.6.1.4-.2 1.2.1 1.8.8.6.6.2 2.1-.9 2.6-.1 0-1.4.6-3.4-.2-2.1-1.1-3.6-3.4-4.7-6.8-.8-2.5-.8-5.7.6-8.7-1.4 1.5-2.6 3.1-3.5 5-.1 1.5-.7 3.3-1.7 4.8-.5 2.1-.7 4.1-.6 6.1.1.7.2 1.6.2 2.4.7 6 3.2 11.4 5.8 15.2 1.3 2.1 2.6 3.5 3.8 4.8.5.3 1.2.6 2 .7h.4c.3-.1.5-.1.8-.1.8-.2 1.5-.3 2.3-.8 2.3-1.6 4-4.6 4.6-5.9.3-.5.5-1 .7-1.8s.3-1.8.7-2.5 1.3-.7 2 .9c.8 1.4.6 4.9-.9 7.3-.5.8-1.6 2.4-3 3.6-1.1 1-2.4 1.5-3.6 1.8l.2.4h.5c2.5.1 4-1 4.2-1.1 1.4-.8 2.8-.8 3.1.5.3 1.2-.9 3.9-2.5 4.8-.1.1-.4.2-1.4.8-.6.5-1.3.8-2.2.7.3 1.9.4 3.9.4 5.9-.1 3.1-.4 5.7-.7 7.5s-.5 2.7-.5 2.7c.1-1 .2-2.6.2-4.7s-.1-4.4-.5-6.5c-.4-2.5-1.3-4.4-2-5.6l-.4-.3c-.8-.3-1.8-.9-2.8-1.8-.6-.6-1.3-1.1-1.9-1.7.5 1.8.4 2.6.4 4.3-.1 1.5-.5 5.7-.5 6.2-.1-.5-.6-3.7-1.3-5.2-.4-.9-.9-2.2-1.4-3.4-.6 2.6-1.2 5.7-1.2 5.7s-.7-4.5-1.8-6.7c-.9-1.8-2.3-4.6-2.8-6.5l-.1-.6c-.2.3-.4.7-.6 1.1-1 1.3-4.6 4.8-4.6 4.9 0 0 .6-4 .1-6.5-.4-1.9-.9-5.1-.6-6.9l.1-.6-1.1.9c-2.4 2.2-5.6 3.6-8.8 4.5-3.3.6-6.5.7-8.8.1-2.2-.5-3.5-1.1-3.7-1.2 1.2 0 3.4 0 5.6-.7 2.2-.8 4.9-1.7 7-3.4 4.4-3.2 6.9-8.3 7.9-10.2-.5-.7-.1-1.6.2-2.8l.3-1.8c-1 .3-2.2.6-3.4.9-3.2.6-7 .6-10.4-.3-3.4-1-6.2-2.6-7.8-4.2s-2.3-2.8-2.3-3c1 .6 2.7 1.7 5 2.2 2.3.7 5.2.9 7.8.5 5.5-.6 10-3.8 11.7-4.8.7-.4 1.4-1 2.2-1.9.8-.8 1.4-2.1 2.4-2.6.2-.1.4-.2.7-.2 3.7-6.1 10.2-10.3 17.5-11.7l.4-.6c-2-.1-4 .2-6.1.4-3.2.9-6.2 3-9.7 5.4-2.6 2-5.1 3.9-7.9 5.1-2.7 1.2-5.2 1.1-7 1.1-3.6-.1-5.7-.7-5.6-.9 0-.1.1-.1.3-.2 6.3-4.2 13.2-6.9 20.2-8.8 3.1-2.1 6-4.1 9.4-5.1 3.1-1 6.4-1.4 9.8-1.1l-.2-.5c-1.2 0-2.4 0-3.6.2-3.5.5-7.1 1.3-11.4 3.1-3 1.1-6.1 2.3-9 2.5s-5.1-.5-6.8-1c-3.4-1.1-5-2.2-4.9-2.5 0-.1.1-.1.3-.1 9.5-3.8 19.1-7.3 28.9-6.8.8-.2 1.6 0 2.3 0 1.2-.1 2.3-.1 3.5-.1 0-5.3 6.4-13.3 13.7-12.3.8.1 1.6.2 2.3.4 7.9 2.5 11.5 11.2 6.6 14.9l-.8.5 6.1 1.1q1.05-.9 1.8-2.1c-.8-2.6-.7-5.4.9-7.4l.4-.4-.2-.7.4.5c.5-.5.9-.9 1.3-1.1.4-.3.9-.5 1.4-.6.2-.1.9-.3 1.9-.2 7.3-.1 17.5 6.6 18.2 14.1.1.9 0 1.5 0 2.2s-.1 1.4-.2 2c-.9 3.5-.7 3.2-3.2 4 4.2 2.7 12.8 9.9 17.2 19.9 2.8 7.9 3.6 13.6 3 17.4-.1 5.3-1.1 11.4-3.4 18.5-9.6 28.5-38.8 49.1-74.5 46.1-25.3-2.1-48.8-14.8-62.8-33.9-6.2-8.5-10.8-17.8-13.3-27.3-5.7-21.4.1-44.4 4.4-54.5 13.6-32.3 39.8-60 77.7-82.5l2.4-1.5c80.6-47.1 141.4-42 183.1-40.6 49.2 1.7 101.7 17.9 109 20.1 0-1.6.3-15.5.3-15.5l.2-.5.6-.2c3.4.4 74.1 10.5 103.9 26.8 3.7 2 5.5 4.2 7.8 6.4 8.3 8.1 19.1 41.9 20.3 48.8l-.4.7c-.4.2-1.4.9-2.8 1.8-7 4.6-23.2 15.5-44.1 13.7M88 264.9l-.3-.6-1.1-.1.3.6zm5.7 1.3-.8-.9c-1.6-.4-3.1-.9-4.7-1l.3.6c1.7.2 3.4.8 5.2 1.3m6.8 2.1c-2.4-1.2-4.7-2.1-7-2.8l.8.9 2.1.8c1.1.1 2.5.6 4.1 1.1m6.1-5.2c1.4-.8 2.3-1.4 2.7-3.1 1.5-5-3.6-11.4-10.4-12.2-7.2-.9-13.2 6.8-13.2 12h1.1l.1-.4c1.8-9.4 8.2-12.7 14.9-9.3-2.5-1.2-6.2-1.4-8-.4-3.4.6-6.7 7.3-6.6 10.2 1.4.1 3.6-.2 5 .3-.1-1.8 1.6-8 3.7-8.9-1.9 1.1-3.6 7.3-3.4 9 3.5.6 4.6 1.2 9.2 1.9zm6.6 63.3.1.1.1-.1zm4.2-59.8c-.6-.8-1.1-1.7-1.6-2.5-.5.3-.9.6-1.4.8 1 .5 2 1.1 3 1.7m11.7 4.6c3 1.6 2.2.2 4.1 1.9l.8-.5c4.2-1.8 4.5-3.9.1-10.5-3.9-6-11.7-7.9-14.4-4.1-1.2 2-1 4.5.5 7 2 3 5.3 3.9 8.1 5.2.9 1 2.5 1.5.8 1m349.5-52.7c5.9-5.3 9.3-12.4 9.6-20 .6-15.9-12.5-29.3-29.2-29.9-8.1-.3-15.8 2.4-21.7 7.6-5.9 5.3-9.3 12.4-9.6 20.1-.5 15.9 12.5 29.2 29.2 29.9 8.1.3 15.8-2.4 21.7-7.7" style="fill-rule:evenodd;clip-rule:evenodd;fill:#6eb927"/></svg>