<?xml version="1.0" encoding="utf-8"?>
<!-- Generator: Adobe Illustrator 28.2.0, SVG Export Plug-In . SVG Version: 6.00 Build 0)  -->
<svg version="1.1"
	 id="logo_OSI" xmlns:cc="http://creativecommons.org/ns#" xmlns:rdf="http://www.w3.org/1999/02/22-rdf-syntax-ns#" xmlns:dc="http://purl.org/dc/elements/1.1/"
	 xmlns="http://www.w3.org/2000/svg" xmlns:xlink="http://www.w3.org/1999/xlink" x="0px" y="0px" viewBox="0 0 512 512"
	 style="enable-background:new 0 0 512 512;" xml:space="preserve">
<style type="text/css">
	.st0{fill:#FFFFFF;}
</style>
<path class="st0" d="M354.4,471.2l-44.5-114.7c32.4-18.3,48.8-49.1,48.8-92c0-26-10.8-51.8-29.7-70.9c-19.4-19.6-45-30.4-72.2-30.4
	c-0.1,0-0.2,0-0.2,0c-28.5,0-55,10.9-74.7,30.8c-19,19.2-29.2,44.4-28.8,70.7c0.6,42.9,18.3,75.9,49.4,93.3l-45.8,112.5
	C91.6,444.7,26.8,363.8,26.8,264.7c0-125.9,102.4-228.4,228.3-228.4c126.9,0,230.1,102.5,230.1,228.4
	C485.2,366,421.1,445.6,354.4,471.2z M344.9,502.1c42.5-10.7,84.5-40.4,115.3-81.6c33.3-44.5,51.7-99.9,51.7-155.9
	c0-68.1-26.7-132.2-75.2-180.4S323.7,9.5,255.1,9.5c-68.5,0-132.7,26.6-180.7,74.8C26.4,132.4,0,196.4,0,264.7
	c0,55,18.4,110,51.9,154.9c30.9,41.3,72.4,71.2,114,82c3.7,1,7.6-1,9.1-4.6l59.4-146.2c0.8-2,0.7-4.2-0.2-6.2s-2.6-3.4-4.7-4.1
	c-31.4-9.9-49-37-49.5-76.3c-0.2-19.2,7.3-37.5,21.2-51.6c14.5-14.7,34.2-22.8,55.5-22.8c0.1,0,0.1,0,0.2,0
	c40.8,0.1,75.2,34.3,75.2,74.6c0,39.3-15.1,62.5-49,75.1c-2,0.7-3.5,2.2-4.4,4.1c-0.9,1.9-1,4.1-0.2,6l57.4,147.9
	c1.1,3.1,4.1,5,7.2,5C343.7,502.5,344.4,502.4,344.9,502.1z M347.5,264.5c0-23.1-9.6-46.1-26.4-63c-17.2-17.4-40.1-27-64.2-27.1
	c-0.1,0-0.1,0-0.2,0c-25.5,0-49.1,9.7-66.6,27.4c-16.9,17.1-26,39.4-25.7,62.8c0.6,42.5,19.6,74.1,52.5,88l-53.7,132.1
	c-36-11.2-71.8-38-98.9-74.4c-31.5-42.2-48.8-93.9-48.8-145.6C15.5,132.6,123,25.1,255.2,25.1c133,0,241.3,107.5,241.3,239.6
	c0,111.5-74.5,198.1-148.7,220.6l-52.1-134.2C330.6,335.5,347.6,307.1,347.5,264.5z"/>
</svg>
