<?xml version="1.0" encoding="utf-8"?>
<!-- Generator: Adobe Illustrator 28.2.0, SVG Export Plug-In . SVG Version: 6.00 Build 0)  -->
<svg version="1.1" id="Layer_1" xmlns="http://www.w3.org/2000/svg" xmlns:xlink="http://www.w3.org/1999/xlink" x="0px" y="0px"
	 viewBox="0 0 512 512" style="enable-background:new 0 0 512 512;" xml:space="preserve">
<style type="text/css">
	.st0{fill:#FFFFFF;}
</style>
<path class="st0" d="M241.4,3c4.7,0,8.3,2,11,4.9c4.6,5,8.8,10.3,13.1,15.6c4.6,5.6,9,11.4,13.6,17.1c1.2,1.5,2.7,2.8,4.3,3.9
	c3.2,2.3,5.3,1.8,6.3-2c1.1-4.3,1.8-8.8,2-13.3c0.3-7.2,0.1-14.3,0.2-21.5c0-1.8,0.1-3.7,0.7-5.4c0.3-1,1.7-2.3,2.6-2.3
	c3.1,0.1,6.4,0.3,9.2,1.3C316.5,5.6,326,13.6,333.1,24c6.7,9.9,12.5,20.5,18.5,30.8c4.4,7.5,8.4,15.3,12.8,22.8
	c4.5,7.7,10.9,13.7,16.9,20.3c12.8,13.9,21.3,30.5,27.8,48.2c2.9,8,6.5,16.1,11.5,22.9c6.6,9,11.8,18.1,12.7,29.5
	c0.4,5.3,2.8,10.5,4.5,15.7c1.7,5.3,5.6,7.8,11.1,7.5c6.4-0.3,12.9-0.7,19.3-1c1.4-0.1,2.9-0.2,4.9-0.4c0,5.6,0.4,11.1-0.1,16.5
	c-0.6,6,1.4,9.7,6.2,13.6c16.9,13.9,21.4,32.1,15.7,52.8c-3.8,13.9-11.2,25.8-22.4,35c-2.3,1.9-4.9,3.5-7.6,4.9
	c-6.1,3-10.1,2.7-16-1.2c-1.8,2-3.9,3.8-5.5,6c-5.1,6.6-10.5,13.1-15,20.1c-15.4,23.9-34.8,44-56.5,62.1
	c-34.5,28.9-71.7,53.6-113.2,71.4c-4.6,1.9-9.2,3.7-13.9,5.3c-6.5,2.3-13.1,4.2-20.2,4.2c-8,0.1-16,0.8-24,1
	c-6.3,0.2-11.6-2.2-15.5-7.3c-5.8-7.4-11.4-14.8-17.5-21.9c-4.5-5.4-9.2-10.8-14.4-15.4c-7-6.1-14-7.2-22.8-1.6
	c-16.5,10.5-34.3,11.8-52.6,4.9c-31-11.8-52.2-33-61.1-65.3c-3.2-11.3-2.5-22.4,1.8-33.8c22.3-58.7,55.1-110.9,96.6-157.7
	c30.4-34.4,64-65.2,101.2-92.1c1.3-0.9,2.5-2,3.8-2.9c10.6-7.3,15.4-17.5,15-30.2c-0.7-23.2,2.9-46,5.6-68.9
	C241.2,14.3,241.1,8.8,241.4,3z M471.4,325.4L471.4,325.4c5.5-2.9,10.1-12.6,9.3-19.6c0.1-3.5,0.2-6.9,0.3-10.4
	c-0.4-5.9-2.1-11.4-5.4-16.3c-2.2-3.3-5.2-6.2-9.5-5.4c-4.5,0.8-8,3.3-9.4,8c-0.5,1.2-1.3,2.4-1.5,3.6c-0.6,5.3-0.7,10.6-1.5,15.8
	c-0.8,4.6-1.6,9.3-3.7,13.4c-2.9,5.8-1.5,12.1,4.7,14.4c5.7,2.1,11.1,1.2,15.9-2.7C470.9,326,471.1,325.7,471.4,325.4z M257.8,39.1
	c-2.1-4.5-4.1-8.9-6.2-13.4c-1.5,7.6-2.6,15.1-3.2,22.5c-1.1,14.8-1.8,29.6-2.6,44.3c-0.1,2.2,0.8,4.4,1.3,7.3
	c2.7-2.1,4.7-3.6,6.7-5.1c4.8-3.7,9.8-7.2,14.2-11.3c2.6-2.4,4.7-5.6,6.5-8.7s1.6-6.5-0.3-9.7C268.8,56.5,263.3,47.8,257.8,39.1z
	 M446.3,263.4c2.3-2.3,4.5-4.7,7-6.9c5.9-5,7.7-13.5,4-20.2c-0.8-1.5-2.1-3.2-3.6-3.9c-7.2-3.4-14.5-6.6-21.8-9.7
	c-3.8-1.6-6.2-0.7-8.2,2.9c-0.9,1.5-1.4,3.3-2.1,5c-1.2,5.4-3,10.7-3.3,16.2c-0.5,7.5,3,11.6,9.1,13.4c4.2,1.3,8.4,3,12.4,4.7
	C442.5,266,444.7,266.1,446.3,263.4z M275.5,108.2c0.1-0.3,0.3-0.6,0.4-0.9c4.6-8.5,7.7-20.2,6.7-25.5c-0.9,0.5-1.7,1-2.5,1.6
	c-24,17.6-48.3,34.7-71.8,52.9c-37.8,29.3-72.1,62.1-101.9,99.6c-35,43.9-61.7,92.5-84.2,143.7c-2.5,5.6-2.8,10.5,0,15.8
	c6.6,18.5,16.9,34.7,31.9,47.5c13.9,12.1,29.9,20,49,18.1c12.4-1.2,23.8-4.9,29.9-17.5c0.6-1.2,1.4-2.3,2.1-3.4
	c5.6-8.8,10.8-17.9,16.9-26.3c3.4-4.7,7.8-9.8,12.9-12.1c12.4-5.5,25.2-10.2,38.2-14c7.4-2.2,14.7-4.7,20.8-8.9
	c6.8-4.6,13-10.5,18.5-16.6c7.6-8.5,14.1-17.9,21.3-26.8c6.4-7.9,13.8-14.5,23-19.2c7.8-4,15-9.2,22.1-14.3
	c7.3-5.2,7.3-10.2,3.2-16.7c-4.1-6.6-8.8-12.8-12.8-19.4C291,252.3,292,240,302,228c11-13.2,25.3-22.2,39.7-31.1
	c6.4-4,13.4-5.7,20.9-5c8.8,0.9,17.6,1.8,26.4,3.2c8.1,1.3,8.1,1.6,9.3,9.9c1.3,8.6,2.4,17.3,3.7,25.9c0.2,1.3,1.1,2.5,1.7,3.7
	c0.5-0.1,0.9-0.2,1.4-0.3c0.4-2.7,1.1-5.4,1.2-8c0.2-6.8,1.6-13.2,5.2-19.1c1.7-1.7,3.4-3.5,5.2-5c5.5-4.7,5.7-5.9,1.2-11.6
	c-0.9-1.1-2.1-2.2-2.7-3.4c-2.3-4.9-4.6-9.8-6.4-14.9c-1.8-5-2.3-10.4-4.5-15.2c-4.1-9-8.9-17.8-13.8-26.4c-2.3-4.2-5.4-8-8.2-12
	c-2.3-2.6-4.7-5.2-7-7.9c-0.5,0.2-1.1,0.4-1.6,0.6c-0.5,5.2-1.3,10.3-1.6,15.5c-0.3,6.2,0.2,12.4-0.2,18.6
	c-0.3,5.2-1.1,10.4-2.3,15.4c-0.3,1.5-2.4,3.5-3.8,3.6c-1.3,0.1-3.6-1.6-4.1-3.1c-1.3-3.3-2.5-6.9-2.7-10.5
	c-0.7-10.7-1.1-21.3-1.4-32c-0.4-17.2-5.1-33.2-14-47.9c-8.5-14-16.9-28.1-25.6-41.9c-2.5-3.9-6.1-7-9.3-10.5
	c-3.2-2.2-3.9-2-4.9,1.6c-0.2,0.8-0.4,1.7-0.5,2.5c-2.4,18.1-4.5,36.3-7.4,54.3c-1.8,11.7-4.6,23.2-7.2,34.8
	c-0.9,4.1-2.8,8-6.7,10.4c-6.2,0.5-8.4-1.6-7.9-7.8C274.4,112.5,275,110.4,275.5,108.2L275.5,108.2z M190.3,491.9
	c-1.8,0.7-3.7,1.3-5.5,2c1.1,1.8,1.7,4.1,3.3,5.1c3.1,2,6.6,4.2,10.1,4.5c7.8,0.7,15.8,1.1,23.5,0.1c16.7-2.1,32.2-8.6,46.2-17.7
	c17.4-11.4,34.4-23.3,51.2-35.5c19.9-14.5,40.8-27.8,59.2-44.3c18.6-16.7,36.2-34.3,48.6-56.3c9.6-17,15-35,10.8-54.8
	c-2.6-12.4-7.8-23-19.2-29.9c-9-5.4-17.6-11.2-26.4-16.8c-5-3.2-6.6-7.7-5-13.5c2-7.4,1.6-14.7-1.9-21.6c-2.5-5-5.8-6.7-11.3-5.6
	c-18.2,3.6-35.4,10.1-51.8,18.8c-4.4,2.3-7.6,5.9-8.9,10.6c-4.6,15.9-2.8,30.5,9.7,42.6c3.4,3.3,6.4,6.7,7,11.6
	c-0.7,3.3-1.2,6.7-2.1,9.9c-0.9,3.1-2.3,6.1-3.4,9.2c-0.7,2-0.4,4.1,1.9,4.2c8.3,0.5,12.1,6.5,15.6,12.7c4.8,8.6,7.2,18,8.2,27.7
	c1.5,13.4-2,24.7-13.2,33.1c-11.5,8.6-22.6,17.6-34.2,26.1c-30.6,22.3-61.3,44.5-92.2,66.5C204.3,484.9,197.1,488.1,190.3,491.9z
	 M329.5,333.4c0.1-0.3,0.2-0.7,0.3-1c-5.2-5.5-11.4-9-19.1-9.2c-10.2-0.3-18.8,4.1-26.6,10.2c-9,7.2-15.6,16.3-20.6,26.5
	c-5.7,11.8-14.4,20.6-26.1,26.4c-2.8,1.4-5.6,2.9-8.4,4.3c-11.6,5.6-23.3,11.2-36.1,13.1c-13.3,2-23.7,8.3-31.6,18.8
	c-4.9,6.4-8.9,13.6-13.3,20.4c4.2,6,8.1,11.9,12.5,17.4c3.1,3.9,6.6,7.5,10.4,10.6c5.6,4.5,12.2,6.2,19.5,4.8
	c12.1-2.4,22.7-8.2,31.9-15.8c15.7-12.9,32.5-24.2,49.3-35.6c16.7-11.3,33.2-22.8,49.2-35.1c12-9.2,17.2-22.6,17.6-37.6
	c0.1-4.2-1.3-5.7-5.6-5.9c-2.8-0.1-5.6-0.1-8.4,0c-6.3,0.1-8.5,2.1-9.2,8.3c-0.5,4.2-0.9,8.5-1.5,12.7c-0.9,5.6-3.1,8.2-8.7,8.7
	c-8.5,0.7-13.8,5.4-17.1,12.7c-3.1,6.9-8.2,11.7-15.1,14.6c-3.7,1.6-7.5,2.7-11.2,4.3c-9,4.1-18.3,7.7-26.8,12.7
	c-5.7,3.3-11.2,6.6-17.8,6.7c-13.7,0.1-24.7,6-34.8,14.5c-2.6,2.2-5.1,4.4-7.8,6.6c-0.9,0.7-2.1,1.1-4,2c1-2,1.3-2.9,1.9-3.7
	c8.1-11,16.8-21.5,27.8-29.6c3.7-2.7,8.7-4.8,13.3-5.1c10.7-0.7,19.8-4.8,28.9-10c7.2-4.1,14.7-8,22.3-11.2c5-2,9-4.7,11.8-9.1
	c1.4-2.2,2.4-4.8,3.5-7.1c2.6-5.4,6.2-9.1,12.8-9c4.1,0.1,6.1-2.2,6.5-6.4c0.3-2.7,0.3-5.3,0.5-8c1.1-10.4,6.5-15.5,17.1-16.2
	C321,333.8,325.2,333.6,329.5,333.4z"/>
<path class="st0" d="M213,160.3c1,0.5,2.5,0.7,3,1.5c0.6,1.2,0.6,2.8,0.7,4.2c0.2,6.4,2.3,8.8,8.7,9.8c16,2.4,25.2,12.3,27.1,28.7
	c0.5,4,0.3,7.7-1.7,11.2c-4.6,8.3-8.7,17.1-14.2,24.9c-8.1,11.5-19.9,14.9-33.7,13.7c-6.7-0.6-13.6-0.6-20.2,0.5
	c-3.7,0.6-7.3,3.4-10.5,5.9c-3.5,2.6-5,3.1-7.7,0.5c-2.5-6.2-1.4-12.3,0.9-18.1c7.1-17.6,13.7-35.5,22.2-52.5
	C193.5,178.7,202.9,168.9,213,160.3z M196,249.3c18.2-0.4,37.6-13.2,44.9-29.8c4.1-9.3,2.7-18-2.4-26.3c-2.1-3.5-5.3-5.9-9.4-6
	c-4.2,0-8.4,0.7-12.7,0.9c-4.1,0.2-7.5,1.9-10.2,4.9c-12.1,13.2-20.5,28.5-25.7,45.6c-1.3,4.1,0.3,7.4,4.4,8.6
	C188.6,248.3,192.4,248.6,196,249.3z"/>
<path class="st0" d="M57.4,373.9c1.8-13,5.1-24,11.2-34.2c1.7-2.9,4.1-3.7,7.1-2.2c8,4.1,14,10,16.3,18.9c2,7.9-2,14.1-10.1,15.4
	c-5.9,1-11.5,2.4-16.3,6.5c-1.2,1.1-4.5,1.9-5.1,1.2C58.8,377.9,58.1,375.3,57.4,373.9z"/>
</svg>
