<svg xmlns="http://www.w3.org/2000/svg" xml:space="preserve" viewBox="0 0 512 512"><path d="M16.4 180.7h.6c6-.1 11.4-.2 16.5-.2 5.8 0 11.2.1 16.4.2h.9c10.4 0 16.3-5.6 17.7-16.6 5.7-47 38.2-83 85-94.1 25.5-6 27.6-8.7 27.6-35.4V20.2c-.1-7-.2-20.1-14.2-20.1q-3.9.15-7.8.9c-3.5.7-7.1 1.4-10.7 2-14.4 2.6-29.3 5.4-42.9 11.4C42.4 42.3 7.1 92.2.3 162.6c-.6 5.7.6 10.2 3.5 13.4s7.1 4.7 12.6 4.7m164.5 297c0-26.9-2.1-29.5-27.5-35.5-47.5-11.2-78.6-45.8-85.2-95.2-1.4-10.6-7.2-15.9-17.2-15.9h-.8c-6.2.2-11.8.3-17.1.3-5.5 0-10.6-.1-15.6-.3h-1.2c-5.4 0-9.4 1.5-12.3 4.5-3.9 4.2-4.1 9.9-3.9 13.8C4.8 430.7 66.6 498.3 147 510.1c7.6 1.1 13 1.9 17.3 1.9 3.3 0 8.1-.4 11.7-4 4.9-4.9 4.9-12.3 4.9-27zM346.5 68.3c54 7 89.5 42.5 97.4 97.2 1.4 10 7.1 15.1 17 15.1h.4c5.5-.1 11.1-.1 16.6-.1 5.9 0 11.2.1 16.2.2h1c5.7 0 9.9-1.6 12.9-4.7 3.1-3.3 4.3-8.1 3.8-14.6-3.3-39.8-18.8-76.1-45-104.9C440.4 27.6 405.9 9 366.9 2.8l-5.4-.8c-7-1.2-12-2-15.8-2-2.9 0-7.1.4-10.3 3.6-4.4 4.4-4.4 11-4.3 22.8v15h.1c0 3.3.1 6.4-.1 9.5-.6 10.2 4.6 16 15.4 17.4M496 331.2h-.4c-5.8.1-11.6.2-17.4.2-6 0-11.4-.1-16.5-.2h-.8c-10 0-15.7 5.4-17 16.1-6.1 48.3-37.9 83.9-85.2 95-25.4 6-27.5 8.6-27.5 35.4v5.7c-.1 14.1-.2 20.5 4.3 25 3.2 3.2 7.4 3.6 10.3 3.6 3.1 0 6.8-.5 11.9-1.2 1.8-.2 3.9-.5 6.1-.8 38.5-4.8 75.1-24.2 103-54.7s43.9-68.5 45.2-107.1c.2-5.6-1.1-9.8-4-12.7-3-2.8-6.9-4.3-12-4.3m-146 78.2 12.4-4.8c24.4-12.1 40.1-27.6 49.7-56.1 3.6-10.7-1.8-17.4-12.3-21-33-11.3-52.7-38.1-52.7-71.7.1-33.3 20-59.9 53.3-71.3 10.1-3.5 13.7-9.7 11.8-20.4-5.7-31.2-29.4-56.1-60.3-63.4-2.6-.7-5.3-1-8-1.1-11 0-15.3 8.5-17.5 14.9-10.5 29.9-36.7 49.8-66.7 50.5h-2.2c-34.1 0-60.9-19-71.7-50.9-2.1-6.2-6.1-14.5-17-14.5-2.7.1-5.3.5-7.9 1.2-31.8 7.9-52 28.1-60.3 60-3.3 12.9.8 20.5 13.5 24.7 38.4 12.9 59.2 51.9 48.5 90.7-6.9 25.1-23.9 42.4-50.5 51.5-4.4 1.5-14.7 5-12.6 18.8 4.8 31.2 29.6 57.9 60.3 65 2.6.7 5.3 1 8 1.1 11.4 0 15.6-8.3 18-15.6 9.9-29.9 36.6-49.4 67.9-49.7h.8c33.7 0 60.7 19.2 72.2 51.3.1.2.2.4.2.6 4 8.7 13.9 13 23.1 10.2m-94-117.8c-19.6 0-35.6-15.9-35.6-35.6 0-19.6 15.9-35.6 35.6-35.6 19.6 0 35.6 15.9 35.6 35.6s-16 35.6-35.6 35.6"/></svg>