<svg xmlns="http://www.w3.org/2000/svg" xml:space="preserve" viewBox="0 0 512 512"><path d="M500.8 271.7c-8.1 131.1-117 234.9-250.1 234.9C112.2 506.6 0 394.4 0 256S112.2 5.4 250.6 5.4c133.1 0 242 103.8 250.1 234.9L473 212.6c-4.2-4.2-11-4.2-15.2 0s-4.2 11 0 15.2l17.5 17.5h-46C423.8 151.4 345.9 77 250.6 77c-98.9 0-179 80.2-179 179s80.2 179 179 179c95.3 0 173.1-74.4 178.7-168.3h46l-17.5 17.5c-4.2 4.2-4.2 11 0 15.2 2.1 2.1 4.8 3.1 7.6 3.1 2.7 0 5.5-1 7.6-3.1zM250.6 148.6C310 148.6 358 196.7 358 256s-48 107.4-107.4 107.4S143.2 315.3 143.2 256s48.1-107.4 107.4-107.4m0 71.6c-19.8 0-35.8 16-35.8 35.8s16 35.8 35.8 35.8 35.8-16 35.8-35.8-16-35.8-35.8-35.8" style="fill:#fff"/><path d="M465.5 302.5c-2.7 0-5.5-1-7.6-3.1-4.2-4.2-4.2-11 0-15.2l17.5-17.5h-81.5c-5.9 0-10.7-4.8-10.7-10.7s4.8-10.7 10.7-10.7h81.5l-17.5-17.5c-4.2-4.2-4.2-11 0-15.2s11-4.2 15.2 0l35.8 35.8c1.9 1.9 2.9 4.4 3.1 6.9 0 .7 0 1.4-.1 2-.3 2-1.1 4-2.5 5.7l-.6.6-35.8 35.8c-2 2.1-4.8 3.1-7.5 3.1" style="opacity:.6;fill:#fff"/></svg>