<svg xmlns="http://www.w3.org/2000/svg" xml:space="preserve" viewBox="0 0 512 512"><path d="M128 0h256c70.7 0 128 57.3 128 128v256c0 70.7-57.3 128-128 128H128C57.3 512 0 454.7 0 384V128C0 57.3 57.3 0 128 0"/><path d="M384 17.8c60.8 0 110.2 49.4 110.2 110.2v256c0 60.8-49.4 110.2-110.2 110.2H128c-60.8 0-110.2-49.4-110.2-110.2V128C17.8 67.2 67.2 17.8 128 17.8zM384 0H128C57.3 0 0 57.3 0 128v256c0 70.7 57.3 128 128 128h256c70.7 0 128-57.3 128-128V128C512 57.3 454.7 0 384 0" style="fill:#4d4d4d"/><path d="M129.4 301.4c-3.4 0-6.6-2-8.1-5.3-2-4.5 0-9.7 4.5-11.7l39-17.4c4.4-2 9.7 0 11.7 4.5s0 9.7-4.5 11.7l-39 17.4c-1.2.5-2.4.8-3.6.8m-18 46.9c-3.4 0-6.7-2-8.1-5.3-2-4.5 0-9.7 4.5-11.7l39-17.3c4.4-2 9.7 0 11.7 4.5s0 9.7-4.5 11.7l-39 17.3c-1.2.6-2.4.8-3.6.8M361.6 198c-3.4 0-6.7-2-8.1-5.3-2-4.5 0-9.7 4.5-11.7l39-17.4c4.4-1.9 9.7 0 11.7 4.5s0 9.7-4.5 11.7l-39 17.4c-1.1.5-2.4.8-3.6.8m-18 46.9c-3.4 0-6.6-2-8.1-5.3-2-4.5 0-9.7 4.5-11.7l39-17.4c4.5-2 9.7 0 11.7 4.5s0 9.7-4.5 11.7l-39 17.4c-1.1.6-2.4.8-3.6.8" style="fill:#fff"/><path d="M255.3 393c-31.2 0-61.9-10.8-87.1-31.5-3.8-3.1-4.3-8.7-1.2-12.5s8.7-4.3 12.5-1.2c35.1 29 82.8 35.5 124.4 17s68.7-58.3 70.6-103.9c.2-4.9 4.2-9.3 9.2-8.5 4.9.2 8.7 4.3 8.5 9.2-2.2 52.3-33.3 98.1-81.1 119.4-17.9 8.1-36.9 12-55.8 12M127.6 259.2h-.4c-4.9-.2-8.7-4.4-8.5-9.3 2.4-52.2 33.4-97.8 81.1-119 47.8-21.3 102.6-13.8 143 19.6 3.8 3.1 4.3 8.7 1.2 12.5s-8.7 4.3-12.5 1.2c-35.1-29-82.8-35.6-124.4-17-41.5 18.5-68.5 58.1-70.6 103.5-.2 4.8-4.1 8.5-8.9 8.5" style="fill:#e00"/></svg>