<svg xmlns="http://www.w3.org/2000/svg" xml:space="preserve" viewBox="0 0 512 512"><path d="M136 316.8c-5.3 20.6-10.3 95.2 44.9 98.2 40.7 6.5 117.3-41.5 151.5-69.3L318 315.3c-49.1 28.6-87.9 52.9-128.3 55.2-7.2.4-13.3-4.6-14.5-11.8-1.5-9.1-1.1-22.1 1.1-34.3zM413.6 29c-64-41.1-135.2-34.3-200.3-5.7C134.9 57.9 65.2 124.5 29 177.8l35 26.3c1.1-1.5 78-93.3 171.7-129.8 46.4-18.3 97.1-22.8 144.7 4.6 62.4 40 32.7 184.6.8 249.4-55.6 113-167.1 135.8-215.1 126.7-48.4-8.8-68.1-45.3-69.7-75.8-3.8-67.8 54.4-131 66.2-142.4l-41.9-30.1c-87.9 88.4-132 275 39.3 303.9 90.6 9.5 209-27.8 274.5-147.7C476 288.2 527.8 99 413.6 29" style="fill:#ced83f"/></svg>