<?xml version="1.0" encoding="utf-8"?>
<!-- Generator: Adobe Illustrator 28.2.0, SVG Export Plug-In . SVG Version: 6.00 Build 0)  -->
<svg version="1.1" id="Layer_1" xmlns="http://www.w3.org/2000/svg" xmlns:xlink="http://www.w3.org/1999/xlink" x="0px" y="0px"
	 viewBox="0 0 512 512" style="enable-background:new 0 0 512 512;" xml:space="preserve">
<path d="M294.6,257.3c0,33.7,0.2,67.3,0,101c-0.2,36.4-31.7,55.4-63.6,37.5c-7.1-4-12.2-13.7-15.4-21.9c-2.9-7.2-2.3-15.9-2.3-24
	c-0.2-62.7-0.1-125.4-0.1-188.1c0-2.1,0-4.3,0-6.4c0.2-38.9,20-49.4,57.7-42.2c15.4,3,23.3,15.9,23.5,36.6
	C294.8,185.7,294.5,221.5,294.6,257.3z M512,58v396c0,32-26,58-58,58H58c-32,0-58-26-58-58V58C0,26,26,0,58,0h396
	C486,0,512,26,512,58z M371.1,256.7c0-35.4,0.3-70.8-0.1-106.2c-0.4-44.5-25.7-78.5-68.1-91.6c-33.1-10.3-66.5-10.1-99.4,0.5
	c-39,12.5-64.6,43.1-65.4,84c-1.5,75-1.5,150.1,0,225.1c0.8,40.9,26.4,71.5,65.3,84.2c28.1,9.2,56.9,10.3,85.8,4.1
	c53.7-11.6,81.8-46.7,81.9-101.6C371.2,322.4,371.1,289.5,371.1,256.7z"/>
</svg>
