<?xml version="1.0" encoding="utf-8"?>
<!-- Generator: Adobe Illustrator 28.2.0, SVG Export Plug-In . SVG Version: 6.00 Build 0)  -->
<svg version="1.1" id="Layer_1" xmlns="http://www.w3.org/2000/svg" xmlns:xlink="http://www.w3.org/1999/xlink" x="0px" y="0px"
	 viewBox="0 0 512 512" style="enable-background:new 0 0 512 512;" xml:space="preserve">
<style type="text/css">
	.st0{fill:#FFE165;}
</style>
<g>
	<path class="st0" d="M491.8,187.7c-16.4-9.8-27.3,5.2-25.9,25.6l-0.1,0.2c0-21.3-2.9-44.8-12.7-63.8c-3.5-6.7-10.5-17.8-24.4-12.6
		c-6.1,2.3-11.7,9.2-8.8,27c0,0,3.2,18.7,2.6,42.1v0.3c-4-64.7-19-84.4-40.4-83.1c-6.9,1.2-16.2,4.1-13.1,24c0,0,3.4,20.7,4.5,37.3
		l0.1,0.8h-0.1c-10.1-35.7-23.7-36.1-33.5-34.8c-8.9,1.3-18.7,10.3-13.7,28.1c15.5,55.8,12.4,122.9,11.3,132.6
		c-3.2-6.6-4.1-11.8-8.5-19c-17.6-29-26-31.1-36.3-31.5c-10.2-0.4-21.3,5.7-20.5,17.4c0.7,11.7,6.9,13.6,15.5,29.9
		c6.8,12.7,8.7,29.3,22.3,59.5c11.3,25,40.8,52.4,94.5,49.2c43.5-1.4,108.6-16.2,97.2-113.6c-2.8-16.9-0.7-31.1,0.8-45.6
		C504.9,234.8,508.2,197.5,491.8,187.7L491.8,187.7z"/>
	<path class="st0" d="M220,261.4c-10.3,0.6-18.6,2.9-35.7,32.2c-4.2,7.3-5.1,12.5-8.2,19.1c-1.3-9.6-5.6-76.7,8.8-132.7
		c4.6-17.8-5.3-26.7-14.3-27.8c-9.9-1.2-23.5-0.5-32.9,35.5h-0.1l0.1-1c0.8-16.5,3.8-37.3,3.8-37.3c2.7-20-6.7-22.7-13.5-23.7
		c-21.4-0.9-36,18.9-38.8,83.1h0c-1-23.2,1.8-41.7,1.8-41.7c2.5-17.8-3.2-24.6-9.3-26.8c-14-5-20.8,6.2-24.2,13
		c-9.4,19.2-12,42.7-11.5,64l-0.1-0.2c0.9-20.4-10.3-35.2-26.4-25.1C3.3,202,7.4,239.3,10.1,261.8c1.8,14.5,4.1,28.6,1.6,45.6
		c-9.4,97.6,55.8,111.2,99.4,111.9c53.8,2.3,82.8-25.7,93.6-50.8c13-30.4,14.7-47.1,21.2-59.8c8.4-16.4,14.4-18.5,15-30.2
		C241.4,266.7,230.3,260.7,220,261.4L220,261.4z"/>
	<path d="M241.5,261.5c-5.5-5.2-13.6-7.9-22-7.4c-13.4,0.8-22.8,5.5-37.4,28.6c-0.4-26.4,1.1-66.1,10.1-101
		c3.4-13.1,0-21.7-3.5-26.5c-4-5.7-10.3-9.4-17.2-10.3c-6.3-0.8-14.5-0.8-22.5,5.6c0-0.1,0-0.2,0-0.2c2.6-18.7-4.1-29.5-19.8-31.9
		l-0.9-0.1c-9.7-0.4-18,2.7-24.7,9.1c-3.6,3.5-6.7,7.9-9.4,13.4c-3-4.3-6.9-6.5-10-7.6c-18.7-6.7-29.1,7.6-33.6,16.7
		c-5.2,10.6-8.5,22.5-10.3,34.6c-0.4-0.2-0.7-0.5-1.1-0.7c-4.1-2.3-12.7-5.1-23.9,1.8c-18.9,11.8-16.5,45.9-12.8,76.8
		c0.2,1.6,0.4,3.3,0.6,4.9c1.6,12.7,3.1,24.7,1,38.8l0,0.4C0.4,345.9,8,376,26.8,396.3c18.1,19.5,46.4,29.7,83.9,30.3
		c2.7,0.1,5.4,0.2,8,0.1c64.1-0.6,87.1-42.3,92.8-55.5c7.3-17.1,11.1-29.8,14.1-40.1c2.3-7.9,4.2-14.2,6.8-19.4
		c3-5.9,5.6-9.7,7.9-13.1c4-5.8,7.4-10.7,7.8-20C248.6,272,246.2,266.1,241.5,261.5L241.5,261.5z M114.3,137.8c3.6-3.5,7.8-5,13-4.9
		c4.6,0.7,8.7,1.8,6.8,15.4c-0.1,0.9-3.1,21.3-3.9,38c0,0.1,0,0.2,0,0.3c-4.2,16.3-7.6,39.7-9.5,74c-8.1,0.5-16.1,1.3-23.9,2.4
		C94.4,193.6,100.2,151.4,114.3,137.8L114.3,137.8z M64.3,156.4c5.7-11.4,10.4-10.9,14.8-9.3c6.1,2.2,5.2,14,4.5,18.9
		c-0.1,0.8-2.8,19.2-1.9,42.6c-0.7,16.4-0.6,35.4,0.2,57c-7.5,1.4-14.6,3.1-21,4.9C57.8,260.5,44.3,197.1,64.3,156.4L64.3,156.4z
		 M228,290.6c-2.5,3.6-5.5,8-8.9,14.7c-3.2,6.4-5.2,13.2-7.8,21.8c-2.9,9.9-6.6,22.2-13.6,38.5c-5,11.5-25.8,49-86.5,46.3
		c-33.9-0.5-57.8-8.8-73.2-25.4c-15.9-17.1-22.2-43.5-18.8-78.3c2.3-15.9,0.6-29.4-1-42.4c-0.2-1.6-0.4-3.2-0.6-4.9
		c-1.8-15-6.7-55,6-62.9c3.4-2.1,6.2-2.6,8.3-1.5c3.5,2,7.1,9.1,6.6,20.1c0,0.6,0,1.2,0.2,1.7c0.6,25.7,5.4,48.1,8.1,56.5
		c-4.4,1.6-8.3,3.3-11.6,5c-3.7,1.9-5.1,6.3-3.1,9.9c1.4,2.5,4,3.9,6.7,3.9c1.2,0,2.3-0.3,3.5-0.9c18.4-9.4,62-19,100.4-18
		c4.2,0.1,7.6-3.1,7.7-7.1c0.1-4-3.2-7.4-7.3-7.5c-2.3-0.1-4.6-0.1-6.9-0.1c3.8-69.1,14.4-91.7,22.6-98.3c3.4-2.8,6.7-3,11.2-2.4
		c1.2,0.2,4.4,0.9,6.6,4c2.4,3.5,2.9,8.6,1.3,14.8c-13.9,54.1-10.8,117.8-9.2,133.3c-0.3,0.5-0.5,1.1-0.8,1.6
		c-3.2,5.9-9.3,12.1-16.5,11.7c-4.1-0.2-7.7,2.8-8,6.8c-0.3,4,2.9,7.5,7.1,7.7c12.2,0.7,23.6-6.5,30.7-19.4c0.7-1.4,1.4-2.7,2-3.9
		c0-0.1,0.1-0.2,0.1-0.3c1.3-2.9,2.3-5.5,3.1-7.8c1.3-3.7,2.5-6.8,4.7-10.7c16.1-27.7,22.7-28.1,29.6-28.5c4.1-0.2,8.1,1,10.5,3.3
		c1.7,1.6,2.5,3.6,2.3,6.1C233,283.3,231.5,285.4,228,290.6L228,290.6z"/>
	<path d="M509.2,301.8c-2.3-14.1-1-26.1,0.3-38.8c0.2-1.7,0.4-3.3,0.5-4.9c3.2-31,5-65.1-14.2-76.6c-11.3-6.8-19.9-3.8-24-1.4
		c-0.4,0.2-0.7,0.5-1.1,0.7c-2.1-12.1-5.5-23.9-10.9-34.4c-4.7-9-15.3-23.1-33.9-16.1c-3,1.1-6.9,3.4-9.8,7.7
		c-2.8-5.5-6-9.9-9.7-13.3c-6.8-6.3-15.2-9.3-24.9-8.7l-0.9,0.1c-15.7,2.7-22.2,13.6-19.2,32.3c0,0,0,0.1,0,0.2
		c-8.1-6.2-16.4-6.1-22.6-5.2c-6.9,1-13.1,4.8-17,10.6c-3.3,4.9-6.6,13.5-3,26.6c9.6,34.7,11.9,74.4,12,100.8
		c-15-22.8-24.6-27.4-37.9-28c-8.3-0.4-16.5,2.6-21.8,7.8c-4.7,4.6-6.9,10.6-6.5,17.3c0.6,9.2,4.1,14.1,8.2,19.8
		c2.4,3.3,5.1,7.1,8.2,13c2.7,5.1,4.7,11.4,7.2,19.2c3.2,10.2,7.2,22.9,14.9,39.8c5.9,13.1,29.7,54.4,93.7,53.8c2.6,0,5.3-0.1,8-0.3
		c37.7-1.2,65.9-11.9,83.6-31.7c18.4-20.6,25.4-50.9,20.9-90L509.2,301.8L509.2,301.8z M427.2,162.9c-0.8-5-2-16.8,4.1-19
		c4.4-1.7,9.1-2.3,15,9c20.8,40.3,8.5,104,5.6,114.1c-6.5-1.7-13.6-3.2-21.1-4.5c0.4-21.7,0.1-40.6-0.9-57
		C430.4,182,427.3,163.7,427.2,162.9z M382.8,130.6c5.3-0.2,9.5,1.3,13.1,4.7c14.4,13.4,21,55.4,19.8,125c-7.8-1-15.9-1.7-24-2
		c-2.5-34.3-6.4-57.6-10.9-73.8c0-0.1,0-0.2,0-0.3c-1.1-16.7-4.5-37.1-4.6-37.9C374.1,132.6,378.2,131.4,382.8,130.6L382.8,130.6z
		 M494.3,304c4,34.8-1.8,61.2-17.4,78.6c-15.1,16.9-38.8,25.6-72.9,26.7c-60.4,3.7-82-33.4-87.1-44.8c-7.3-16.2-11.2-28.4-14.3-38.2
		c-2.7-8.6-4.9-15.3-8.2-21.6c-3.5-6.7-6.7-11-9.2-14.6c-3.7-5.1-5.2-7.3-5.5-12.4c-0.2-2.5,0.6-4.5,2.2-6.2
		c2.4-2.3,6.4-3.7,10.4-3.5c6.9,0.3,13.5,0.6,30.1,28c2.4,3.9,3.5,7,4.9,10.6c0.9,2.4,1.9,5,3.3,7.8c0,0.1,0.1,0.2,0.1,0.2
		c0.6,1.3,1.3,2.5,2,3.9c7.3,12.7,18.9,19.7,31,18.8c4.1-0.3,7.2-3.8,6.9-7.8c-0.3-4-3.9-7-8.1-6.7c-7.2,0.5-13.4-5.5-16.7-11.4
		c-0.3-0.6-0.6-1.1-0.8-1.6c1.3-15.4,3.2-79.2-11.7-133.1c-1.7-6.2-1.4-11.3,1-14.8c2.2-3.2,5.3-4,6.6-4.2c4.5-0.6,7.7-0.5,11.2,2.2
		c8.4,6.5,19.3,28.9,24.5,97.9c-2.3,0-4.6,0.1-6.9,0.2c-4.2,0.2-7.4,3.6-7.2,7.6c0.2,4,3.6,7.1,7.9,7c38.4-1.7,82.1,7.1,100.7,16.2
		c1.1,0.6,2.3,0.8,3.5,0.8c2.7,0,5.3-1.5,6.7-4c1.9-3.6,0.4-8-3.3-9.8c-3.3-1.6-7.2-3.2-11.7-4.8c2.5-8.4,6.9-30.9,7-56.7
		c0.1-0.6,0.2-1.1,0.1-1.7c-0.7-11,2.7-18.2,6.2-20.2c2-1.2,4.8-0.7,8.3,1.3c12.8,7.7,8.7,47.7,7.2,62.7c-0.2,1.6-0.3,3.2-0.5,4.9
		C493.1,274.6,491.7,288.1,494.3,304z"/>
	<path d="M283.7,163.3c-1.2,0-2.4-0.2-3.6-0.7c-4.2-1.9-6.1-6.8-4.2-10.9c6.3-13.4,15.6-25.7,26.7-35.6c3.4-3.1,8.8-2.9,11.9,0.5
		c3.2,3.3,3,8.5-0.5,11.6c-9.5,8.5-17.4,19-22.8,30.4C289.9,161.5,286.9,163.3,283.7,163.3z"/>
	<path d="M255.2,158.6c-4.4,0-8.1-3.2-8.5-7.5c-1.6-19.3-1.7-38.9-0.2-58.1c0.4-4.5,4.4-7.9,9.1-7.5c4.7,0.4,8.1,4.3,7.8,8.8
		c-1.5,18.4-1.4,37.1,0.2,55.6c0.4,4.5-3.1,8.5-7.7,8.8C255.7,158.5,255.5,158.6,255.2,158.6L255.2,158.6z"/>
	<path d="M226.1,163.7c-3.8,0-7.3-2.4-8.3-6.2c-3.6-13.6-10.4-26.6-19.6-37.4c-3-3.5-2.5-8.6,1.1-11.5c3.6-2.9,8.9-2.4,11.9,1.1
		c10.8,12.7,18.8,27.9,22.9,43.8c1.2,4.4-1.6,8.8-6.1,10C227.4,163.6,226.8,163.7,226.1,163.7L226.1,163.7z"/>
</g>
</svg>
