<?xml version="1.0" encoding="utf-8"?>
<!-- Generator: Adobe Illustrator 28.2.0, SVG Export Plug-In . SVG Version: 6.00 Build 0)  -->
<svg version="1.1" id="Layer_1" xmlns="http://www.w3.org/2000/svg" xmlns:xlink="http://www.w3.org/1999/xlink" x="0px" y="0px"
	 viewBox="0 0 512 512" style="enable-background:new 0 0 512 512;" xml:space="preserve">
<style type="text/css">
	.st0{fill-rule:evenodd;clip-rule:evenodd;fill:#73BA25;}
</style>
<g transform="translate(-232.86 -406.35)">
	<path id="Geeko" class="st0" d="M691.8,579.3c-5.7-0.2-11,1.8-15.1,5.6c-4.1,3.8-6.5,9.1-6.7,14.7c-0.4,11.7,8.7,21.5,20.4,21.9
		c5.7,0.2,11-1.8,15.2-5.7c4.1-3.9,6.5-9.1,6.7-14.7C712.5,589.5,703.4,579.7,691.8,579.3L691.8,579.3z M695.2,602.4
		c-5.2,0-9.4-2.8-9.4-6.2c0-3.5,4.2-6.3,9.4-6.3c5.2,0,9.4,2.8,9.4,6.3C704.6,599.6,700.4,602.4,695.2,602.4z M744.4,627.5
		c0.2-0.1,0.5-0.4,0.5-0.7c-1.2-7.3-12.1-42.8-20.3-51.3c-2.3-2.3-4.1-4.6-7.8-6.8c-29.8-17.4-100.6-27.9-103.9-28.3
		c0,0-0.3-0.1-0.6,0.2c-0.2,0.2-0.2,0.5-0.2,0.5s-0.3,14.7-0.3,16.3c-7.2-2.4-59.7-19.4-109-21.1c-41.7-1.5-102.6-6.9-183.1,42.7
		l-2.4,1.5c-37.9,23.6-64.1,52.8-77.8,86.7c-4.3,10.7-10.1,34.7-4.3,57.3c2.5,9.9,7.1,19.8,13.2,28.7c14,20.1,37.5,33.4,62.8,35.7
		c35.7,3.2,62.7-12.8,72.4-42.9c6.6-20.7,0-51.1-25.3-66.6c-20.6-12.6-42.8-9.8-55.7-1.2c-11.2,7.4-17.5,18.9-17.4,31.5
		c0.3,22.4,19.5,34.3,33.4,34.3c4,0,8.1-0.7,12.6-2.2c1.6-0.5,3.2-1.1,4.8-2.2l0.5-0.3l0.3-0.2l-0.1,0.1c3.2-2.2,5.1-5.7,5.1-9.4
		c0-1-0.1-2.1-0.4-3.1c-1.6-5.7-7.2-9.1-13-8l-0.8,0.2l-1.1,0.3l-1.5,0.5c-3.2,0.8-5.6,0.9-6.1,0.9c-1.6-0.1-9.6-2.5-9.6-11.2v-0.1
		c0-3.2,1.3-5.5,2-6.7c2.5-3.9,9.3-7.7,18.5-6.9c12.1,1,20.8,7.2,26.5,18.9c5.3,10.8,3.9,24.2-3.6,34c-7.5,9.7-20.8,13.8-38.6,11.9
		c-17.9-2-33-12.3-41.5-28.3c-8.3-15.7-8.7-34.3-1.2-48.5c18.1-34.2,52.4-33.9,71.1-30.6c27.8,4.8,59.4,30.4,70.6,60
		c1.8,4.7,2.7,8.5,3.5,11.9l1.2,5.1l31.4,15.3c0.7,0.3,0.9,0.4,1.2,0.2c0.3-0.2,0.1-0.9,0.1-0.9c-0.2-0.7-0.7-1.3-1.4-10.1
		c-0.6-7.8-1.8-29.1,8.9-39.7c4.2-4.1,10.5-7.8,15.5-9c20.6-5,44.7-1.6,67.5,24.8c11.8,13.6,17.6,19.8,20.4,22.6c0,0,0.7,0.6,1,0.9
		c0.4,0.3,0.6,0.6,1.2,0.9c1,0.5,39.2,18.1,39.2,18.1s0.5,0.2,0.8-0.2c0.3-0.4,0-0.8,0-0.8c-0.3-0.3-24.3-31.3-20-56.8
		c3.4-20.3,19.6-18.5,42-16c7.3,0.9,15.6,1.8,24.3,2c24.1,0.2,50-4.3,65.9-11.3c10.3-4.5,16.9-7.5,21.1-11.2
		c1.5-1.2,2.3-3.2,3.1-5.4l0.6-1.4c0.7-1.7,1.7-5.4,2.1-7.4c0.2-0.9,0.4-1.8-0.4-2.3c-0.7-0.5-2.2,0.4-2.2,0.4
		c-7,4.2-24.5,12.2-40.9,12.6c-20.4,0.4-61.6-20.6-65.9-22.8c-2.9-6.8-5.7-13.6-8.6-20.4c29.5,19.4,54,30.2,72.7,31.8
		c20.9,1.9,37.1-9.5,44.2-14.3C742.6,628.9,743.5,628.2,744.4,627.5L744.4,627.5z M660.7,599.6c0.3-8.1,3.7-15.6,9.6-21.1
		c5.9-5.5,13.6-8.4,21.7-8.1c16.7,0.6,29.8,14.7,29.2,31.3c-0.3,8.1-3.7,15.6-9.6,21.1c-5.9,5.6-13.6,8.4-21.7,8.1
		C673.2,630.3,660.1,616.3,660.7,599.6L660.7,599.6z"/>
</g>
</svg>
