<svg xmlns="http://www.w3.org/2000/svg" xml:space="preserve" viewBox="0 0 512 512"><linearGradient id="opengrammar_svg__a" x1="-701.627" x2="-700.627" y1="796.447" y2="795.447" gradientTransform="matrix(512 0 0 -512 359233 407781)" gradientUnits="userSpaceOnUse"><stop offset="0" style="stop-color:#3b82f6"/><stop offset="1" style="stop-color:#8b5cf6"/></linearGradient><path d="M128 0h256c70.7 0 128 57.3 128 128v256c0 70.7-57.3 128-128 128H128C57.3 512 0 454.7 0 384V128C0 57.3 57.3 0 128 0" style="fill:url(#opengrammar_svg__a)"/><path d="M366.5 132.5c-19.3-19.3-50.8-19.3-70.1 0L170.8 258.1c-22 22-35.3 50.8-38.3 81.8l-5.6 57.5c-1.2 12.6 8.8 23.4 21.4 22.8l58.3-2.9c31.6-1.6 61.1-13.8 84.1-34.5l133.5-120.3c21.4-19.3 22.9-52.4 3.4-73.6z" style="opacity:.95;fill:#edf1fe"/><path d="M192 384c16.3 15.5 35.8 26.5 56.8 31.9 14.5-20.5 32.5-38.5 52.8-52.8-14.8-14.8-29.2-30.8-42.5-47.5z" style="opacity:.5;fill:#6d28d9"/><path d="M230 338c-4.6 0-9.2-1.8-12.7-5.3l-50-50c-7-7-7-18.4 0-25.5 7-7 18.4-7 25.5 0l37.3 37.3 107.3-107.3c7-7 18.4-7 25.5 0 7 7 7 18.4 0 25.5l-120 120c-3.7 3.5-8.3 5.3-12.9 5.3" style="fill:#1e3a8a"/></svg>