<svg xmlns="http://www.w3.org/2000/svg" xml:space="preserve" viewBox="0 0 512 512"><path d="M353.9 293.8v47.3c-52.5 2.4-86.4 1.9-132.6-30.9-48.9-34.7-60.3-42.8-78.2-53.3 19.8-11.5 29.7-18.5 81.2-55.1 46.1-32.7 80.1-33.2 132.6-30.9v47.3L512 128.7 356.9 39.1v41.8C298 78.4 241 79.7 172.3 128.5c-60.1 42.6-60.1 42.6-88.1 58.5C62.6 199.2 15 210.4 3 211h.5v.1c-1 0-2-.1-3-.1v90H0c12 .6 59.6 11.8 81.2 24.1 28 15.9 28 15.9 88.1 58.5 57.2 40.6 106.3 48.3 155.1 48.3 9.8 0 19.6-.3 29.5-.7V473l154.3-89.1.7-.4-154.3-89.1z" style="fill:#fff"/></svg>