<?xml version="1.0" encoding="utf-8"?>
<!-- Generator: Adobe Illustrator 28.2.0, SVG Export Plug-In . SVG Version: 6.00 Build 0)  -->
<svg version="1.1" id="Layer_1" xmlns="http://www.w3.org/2000/svg" xmlns:xlink="http://www.w3.org/1999/xlink" x="0px" y="0px"
	 viewBox="0 0 512 512" style="enable-background:new 0 0 512 512;" xml:space="preserve">
<style type="text/css">
	.st0{enable-background:new    ;}
</style>
<path class="st0" d="M399,26.1C359.6,9.3,308.3,0,254.3,0c-53.8,0-104.6,9.3-143.1,26.1c-41.2,18.1-64,43.2-64,70.6v318.5
	c0,27.5,22.7,52.6,64,70.6c38.4,16.8,89.2,26.1,143.1,26.1c54,0,105.4-9.3,144.7-26.1c42.4-18.2,65.8-43.2,65.8-70.6V96.7
	C464.7,69.3,441.4,44.3,399,26.1z M180.3,421.6l-63-17.8l-4.9-231.3c0,0-21.8-9.6-41.4-38.3c27.9,20,110.2,50.9,182,54.1
	c-46.2,2.9-74.8,2.9-74.8,2.9L180.3,421.6z M255.1,168c-101.5,0-183.7-32.4-183.7-72.3s82.2-72.3,183.7-72.3s183.7,32.4,183.7,72.3
	S356.6,168,255.1,168z"/>
</svg>
