<?xml version="1.0" encoding="utf-8"?>
<!-- Generator: Adobe Illustrator 28.2.0, SVG Export Plug-In . SVG Version: 6.00 Build 0)  -->
<svg version="1.1"
	 id="svg2" xmlns:cc="http://creativecommons.org/ns#" xmlns:dc="http://purl.org/dc/elements/1.1/" xmlns:rdf="http://www.w3.org/1999/02/22-rdf-syntax-ns#" xmlns:inkscape="http://www.inkscape.org/namespaces/inkscape" xmlns:svg="http://www.w3.org/2000/svg" xmlns:sodipodi="http://sodipodi.sourceforge.net/DTD/sodipodi-0.dtd"
	 xmlns="http://www.w3.org/2000/svg" xmlns:xlink="http://www.w3.org/1999/xlink" x="0px" y="0px" viewBox="0 0 512 512"
	 style="enable-background:new 0 0 512 512;" xml:space="preserve">
<style type="text/css">
	.st0{fill:#FFFFFF;}
</style>
<path class="st0" d="M240.7,165.6c0.4,0.4,0.7,1,0.7,1.6v46.3c0,0.7-0.4,1.3-0.9,1.7c-0.4,0.3-0.8,0.4-1.2,0.4c-0.3,0-0.5,0-0.7-0.1
	c-11.1-3.8-18.9-8.1-23.2-12.7c-4.5-4.7-6.7-9.8-6.7-15c0-6.3,3.1-11.8,9.3-16.2c4.3-3,11.1-5.1,21-6.4
	C239.6,165.1,240.2,165.3,240.7,165.6z M272.7,334.6c0.1,0,0.2,0,0.3,0c9.3-1.2,16.8-3.9,22.4-8c5.9-4.3,8.8-10.2,8.8-17.5
	c0-6.4-2.2-12-6.6-16.7c-5.8-6-14-10.7-24.4-13.8c-0.6-0.2-1.3-0.1-1.8,0.3c-0.5,0.4-0.8,1-0.8,1.7v51.9c0,0.6,0.3,1.2,0.7,1.6
	C271.7,334.4,272.2,334.6,272.7,334.6z M506.6,338L340.7,503.9c-0.7,0.8-1.8,1.2-2.9,1.2c-1.1,0-2.1-0.4-2.9-1.2l-41.7-41.7
	l-36.3,36.3c-0.8,0.8-1.9,1.2-3,1.2c-1.1,0-2.1-0.4-2.9-1.2l-36.3-36.4L173,503.9c-0.8,0.8-1.9,1.2-2.9,1.2c-1.1,0-2.1-0.4-2.9-1.2
	L1.2,338c-0.8-0.8-1.2-1.8-1.2-2.9c0-1.1,0.4-2.1,1.2-2.9L43,290.4L6.7,254.1c-1.6-1.6-1.6-4.2,0-5.8L251,3.9c1.6-1.6,4.2-1.6,5.8,0
	l244.4,244.4c0.8,0.8,1.2,1.8,1.2,2.9c0,1.1-0.4,2.1-1.2,2.9l-36.3,36.4l41.7,41.7C508.2,333.8,508.2,336.4,506.6,338z M208.9,456.4
	L48.7,296.3L10,335.1l160.1,160.1L208.9,456.4z M241.4,367.2v42.6h29.2v-39.7c0-1.1,0.8-2,1.9-2.1c15.6-1.2,29.8-5.2,42.1-12.1
	c12.3-6.8,21.7-15.5,28-25.7s9.4-20.9,9.9-31.8c0-10.2-2.6-20.1-7.9-29.6c-5.3-9.6-13.1-17.7-23.1-24.2c-10.1-6.6-26.6-13.1-49-19.5
	c-0.9-0.3-1.5-1.1-1.5-2v-49.6c0-0.8,0.4-1.4,1-1.8c0.6-0.3,1.4-0.3,2,0c18.2,10,31.8,25.7,40.3,46.7l28-8.1L323,135.5h-16
	l-5.9,11.2c-0.3,0.5-0.7,0.9-1.3,1c-0.5,0.2-1.1,0.1-1.6-0.2c-5.6-3.5-10.1-6.1-13.5-7.6c-3.4-1.5-7.5-3-12.3-4.5
	c-0.9-0.3-1.5-1.1-1.5-2V92.6h-29.2v36.6c0,1.1-0.9,2.1-2,2.1c-16.7,0.7-31,4.1-42.4,10c-11.4,5.9-20.4,14-26.8,24
	s-9.6,20.5-9.6,31.2c0,9.3,2.6,18.7,7.7,28c5.1,9.2,12.2,16.9,21.1,22.8c9,6,26,13.2,50.5,21.4c0.8,0.3,1.4,1.1,1.4,2v57.5
	c0,0.7-0.4,1.3-0.9,1.7c-0.6,0.4-1.3,0.5-1.9,0.3c-6.1-2.1-11.9-5.4-17.2-9.7c-7-5.6-13.4-12.3-19-20c-5.4-7.4-11.1-17.4-16.8-29.8
	l-29.5,7.1l16.3,87.4h15.7l7.7-19.1c0.2-0.6,0.7-1,1.3-1.2c0.6-0.2,1.3-0.1,1.8,0.3c14.1,10.2,27.8,17,40.7,20
	C240.7,365.4,241.4,366.2,241.4,367.2z M498,335.1l-38.8-38.8L299.1,456.4l38.8,38.8L498,335.1z M40.8,353.5l26.4-26.4l22.1,22.1
	l-26.4,26.4L40.8,353.5z M67.1,338.8l-14.7,14.7l10.4,10.4l14.7-14.7L67.1,338.8z M135.4,448.1l20.5-20.5l10.5,10.4l-20.6,20.5
	l5.8,5.9L178,438l-22.1-22.1l-26.4,26.4L135.4,448.1z M446.5,362.5l-5.8,5.8l5.8,5.8l-13.4,13.4l-2.9,2.9l-2.9-2.9l-20.6-20.6
	l-2.9-2.9l3-2.8l13.4-13.4l5.8,5.8l5.8-5.8L446.5,362.5z M440.6,368.3l-14.7-14.7L415.5,364l14.7,14.7L440.6,368.3z M372.6,406.9
	l-5.9-5.9l-22.1,22.1l5.9,5.9l8.1-8.1l20.5,20.5l5.9-5.9L364.5,415L372.6,406.9z M402.2,377.3l-5.9-5.9l-22.1,22.1l5.9,5.9l8.2-8.2
	l20.5,20.5l5.9-5.9l-20.5-20.5L402.2,377.3z M96.7,356.7L96.7,356.7L96.7,356.7l22.2,22.1l-18.3,18.3l-16.3-16.3l-8.1,8.1l-5.9-5.9
	L96.7,356.7z M107.2,378.8l-10.4-10.4l-6.6,6.6l10.4,10.4L107.2,378.8z M118.3,394.3l-5.9,5.9l0,0l-12.5,12.5l22.1,22.1l5.9-5.8
	l-16.3-16.3l6.7-6.7l16.3,16.3l5.9-5.9l-16.3-16.3l2.1-2.1l16.3,16.2l5.8-5.8l-22.1-22.1L118.3,394.3L118.3,394.3z"/>
</svg>
