<?xml version="1.0" encoding="utf-8"?>
<!-- Generator: Adobe Illustrator 28.2.0, SVG Export Plug-In . SVG Version: 6.00 Build 0)  -->
<svg version="1.1"
	 id="svg2" xmlns:svg="http://www.w3.org/2000/svg" xmlns:dc="http://purl.org/dc/elements/1.1/" xmlns:cc="http://creativecommons.org/ns#" xmlns:inkscape="http://www.inkscape.org/namespaces/inkscape" xmlns:rdf="http://www.w3.org/1999/02/22-rdf-syntax-ns#" xmlns:sodipodi="http://sodipodi.sourceforge.net/DTD/sodipodi-0.dtd"
	 xmlns="http://www.w3.org/2000/svg" xmlns:xlink="http://www.w3.org/1999/xlink" x="0px" y="0px" viewBox="0 0 512 512"
	 style="enable-background:new 0 0 512 512;" xml:space="preserve">
<style type="text/css">
	.st0{fill-rule:evenodd;clip-rule:evenodd;fill-opacity:0.6902;}
	.st1{fill-rule:evenodd;clip-rule:evenodd;fill:url(#rect3418_00000058577431890003842790000008396990683349072781_);}
	.st2{fill-rule:evenodd;clip-rule:evenodd;fill:#6AD636;}
	
		.st3{opacity:0.7;fill-rule:evenodd;clip-rule:evenodd;fill:url(#path3404_00000166650131184957648470000003125287811503519921_);enable-background:new    ;}
	
		.st4{opacity:0.7;fill-rule:evenodd;clip-rule:evenodd;fill:url(#path3256_00000044867224171826225790000011893824224603693702_);enable-background:new    ;}
	.st5{fill-rule:evenodd;clip-rule:evenodd;}
</style>
<g id="layer1" transform="translate(-246.4375,-405.5443)">
	<path id="path3453" class="st0" d="M504.3,412.4c-1,0-2,0.5-2.7,1.2L257.2,657.9c-1.6,1.6-1.6,4.3,0,5.9l36.3,36.3l-41.8,41.8
		c-1.6,1.6-1.6,4.2,0,5.8l166,166c1.6,1.6,4.2,1.6,5.8,0l41.8-41.8l36.3,36.3c1.6,1.6,4.2,1.6,5.8,0l36.3-36.3l41.7,41.7
		c1.6,1.6,4.3,1.6,5.9,0l165.9-166c1.6-1.6,1.6-4.2,0-5.8l-41.7-41.7l36.3-36.3c1.6-1.6,1.6-4.3,0-5.9L507.4,413.6
		c-0.1-0.1-0.2-0.2-0.3-0.3C506.3,412.6,505.3,412.3,504.3,412.4z M491.9,502.3h29.2v40.8c0,0.9,0.6,1.7,1.5,1.9
		c4.9,1.5,9,3,12.3,4.5c3.3,1.5,7.8,4,13.5,7.5c0.5,0.3,1.1,0.4,1.6,0.3c0.5-0.1,1-0.5,1.3-1l5.9-11.2h16l19.3,74.8l-28.1,8.1
		c-8.5-21-21.9-36.7-40.2-46.7c-0.6-0.3-1.4-0.3-2.1,0.1c-0.6,0.4-1,1.1-1,1.8v49.6c0,0.9,0.6,1.7,1.5,1.9c22.6,6.4,39,13,49,19.5
		c10.1,6.6,17.7,14.7,23,24.2c5.3,9.6,7.9,19.4,7.9,29.7c0,11-3.1,21.6-9.4,31.8c-6.3,10.2-15.6,18.8-28.1,25.7
		c-12.4,6.9-26.3,10.9-42.1,12.1c-1.1,0.1-1.9,1-1.9,2.1v39.7h-29.2v-42.6c0-1-0.7-1.8-1.6-2.1c-12.9-3-26.5-9.6-40.7-20
		c-0.5-0.4-1.2-0.5-1.8-0.3c-0.6,0.2-1.1,0.6-1.4,1.2l-7.7,19.1h-15.7l-16.3-87.4l29.5-7.1c5.7,12.4,11.3,22.4,16.7,29.8
		c5.6,7.7,12,14.4,19,20c5.2,4.3,11,7.5,17.2,9.7c0.6,0.2,1.3,0.1,1.9-0.3c0.5-0.4,0.8-1,0.8-1.7v-57.5c0-0.9-0.6-1.7-1.4-2
		c-24.7-8.3-41.6-15.5-50.4-21.4c-9-6-16-13.6-21.1-22.8c-5.2-9.3-7.7-18.6-7.7-28c0-10.8,3.2-21.1,9.6-31.2
		c6.4-10.1,15.3-18,26.8-24c11.4-5.9,25.5-9.3,42.3-9.9c1.1,0,2-0.9,2-2.1V502.3z M487.8,579.4c-7.9,1.3-13.7,3.1-16.8,5.2
		c-5.3,3.8-7.6,7.9-7.6,12.8c0,4.1,1.7,8.1,5.5,12.2c3.3,3.5,9.9,7.1,18.8,10.4V579.4z M525.3,693.2v46.3c7.5-1.2,13.7-3.4,18.2-6.7
		c4.9-3.6,7.2-8.1,7.2-14.2c0-5.4-1.7-9.9-5.4-13.8C540.5,700,533.7,696.2,525.3,693.2z"/>
	<g>
		
			<linearGradient id="rect3418_00000070080637855748360690000001296612250058420108_" gradientUnits="userSpaceOnUse" x1="515.7917" y1="608.9811" x2="477.2577" y2="759.065" gradientTransform="matrix(1 0 0 -1 0.5625 1327.9065)">
			<stop  offset="0" style="stop-color:#FE7600"/>
			<stop  offset="1" style="stop-color:#F2B26D"/>
		</linearGradient>
		
			<path id="rect3418_00000046297044994935810650000009511795314940693391_" style="fill-rule:evenodd;clip-rule:evenodd;fill:url(#rect3418_00000070080637855748360690000001296612250058420108_);" d="
			M500.4,412.4L256,656.7l244.4,244.4l244.4-244.4L500.4,412.4z M485.7,496.1h33.4v42.8c5,1.5,9.1,3,12.5,4.6
			c3.4,1.6,8,4.1,13.7,7.7l6.5-12.3h18.8l20.2,78.2l-31.7,9.2c-8.3-21.5-21.6-37.3-40.1-47.3v49.6c22.7,6.4,39.2,13,49.5,19.7
			c10.4,6.7,18.3,15.1,23.7,24.9c5.5,9.8,8.2,20,8.2,30.6c0,11.4-3.2,22.4-9.7,32.9c-6.5,10.5-16.1,19.4-28.8,26.4
			c-12.7,7.1-27,11.2-43,12.3v41.8h-33.4v-44.7c-13.2-3.1-27.1-9.9-41.5-20.4l-8.3,20.4h-18.8l-17-91l33-7.9
			c6,13.1,11.8,23.4,17.3,31c5.5,7.5,11.7,14.1,18.6,19.6c5.1,4.1,10.6,7.3,16.6,9.4v-57.5c-24.8-8.3-41.8-15.5-51-21.7
			c-9.2-6.2-16.4-14-21.7-23.5c-5.3-9.6-8-19.2-8-29c0-11.2,3.3-22,9.9-32.3c6.6-10.4,15.8-18.6,27.5-24.7
			c11.7-6.1,26.2-9.5,43.2-10.2V496.1z M485.7,572.8c-9.4,1.3-16.1,3.3-20.1,6.1c-5.6,4-8.5,8.9-8.5,14.5c0,4.7,2,9.2,6.1,13.6
			c4.1,4.4,11.6,8.4,22.4,12.1V572.8z M519.1,686.1v51.9c9-1.2,16.1-3.7,21.5-7.6c5.4-3.9,8-9.2,8-15.9c0-5.9-2-11-6-15.2
			C537,693.6,529.2,689.2,519.1,686.1z"/>
		<path d="M500.4,903.2c-0.5,0-1.1-0.2-1.5-0.6L254.5,658.2c-0.8-0.8-0.8-2.1,0-2.9l244.4-244.4c0.8-0.8,2.1-0.8,2.9,0l244.4,244.4
			c0.4,0.4,0.6,0.9,0.6,1.5c0,0.5-0.2,1.1-0.6,1.5L501.8,902.5C501.4,903,500.9,903.2,500.4,903.2z M258.9,656.7l241.4,241.4
			l241.5-241.4L500.4,415.3L258.9,656.7z M519.1,819.4h-33.4c-1.1,0-2.1-0.9-2.1-2.1v-43.1c-12.3-3.2-25.3-9.5-38.5-18.8l-7.3,18
			c-0.3,0.8-1.1,1.3-1.9,1.3h-18.8c-1,0-1.8-0.7-2-1.7l-17-91c-0.2-1.1,0.5-2.1,1.5-2.4l33-7.9c1-0.2,1.9,0.3,2.4,1.2
			c5.9,12.8,11.6,23.1,17.1,30.6c5.4,7.4,11.6,13.8,18.3,19.2c4.1,3.4,8.5,6,13.2,8v-53.1c-24.1-8.1-40.9-15.3-50-21.4
			c-9.4-6.3-17-14.5-22.4-24.3c-5.5-9.9-8.3-20-8.3-30c0-11.5,3.5-22.8,10.3-33.4c6.8-10.6,16.3-19.2,28.3-25.4
			c11.5-6,25.7-9.4,42.1-10.3v-36.5c0-1.1,0.9-2.1,2.1-2.1h33.4c1.1,0,2.1,0.9,2.1,2.1v41.3c4.4,1.4,8.2,2.8,11.3,4.2
			c3.1,1.4,7.2,3.7,12.1,6.6L550,538c0.4-0.7,1.1-1.1,1.8-1.1h18.8c0.9,0,1.8,0.6,2,1.5l20.2,78.2c0.3,1.1-0.4,2.2-1.4,2.5
			l-31.7,9.2c-1,0.3-2.1-0.2-2.5-1.2c-7.6-19.8-19.7-34.7-36.1-44.5V627c22.3,6.4,38.2,12.8,48.6,19.6c10.6,6.9,18.8,15.5,24.4,25.6
			c5.6,10.1,8.5,20.7,8.5,31.6c0,11.8-3.4,23.2-10,34c-6.7,10.8-16.6,19.9-29.5,27.2c-12.3,6.9-26.4,11.1-41.9,12.4v39.9
			C521.1,818.5,520.2,819.4,519.1,819.4z M487.8,815.3H517v-39.7c0-1.1,0.8-2,1.9-2.1c15.6-1.1,29.8-5.2,42.1-12.1
			c12.3-6.9,21.7-15.5,28-25.7c6.3-10.1,9.4-20.8,9.4-31.8c0-10.2-2.7-20.2-7.9-29.6c-5.3-9.5-13.1-17.7-23.1-24.2
			c-10.1-6.6-26.6-13.1-49-19.5c-0.9-0.3-1.5-1.1-1.5-2V579c0-0.7,0.4-1.4,1-1.8c0.6-0.4,1.4-0.4,2,0c18.3,9.9,31.8,25.6,40.3,46.7
			l28-8.1L569.1,541h-16l-5.9,11.2c-0.3,0.5-0.7,0.9-1.3,1c-0.6,0.2-1.1,0.1-1.6-0.2c-5.6-3.5-10.2-6-13.5-7.6
			c-3.3-1.5-7.4-3-12.3-4.5c-0.9-0.3-1.5-1.1-1.5-2v-40.8h-29.2v36.4c0,1.1-0.9,2-2,2.1c-16.7,0.7-30.9,4-42.4,10
			c-11.4,5.9-20.4,14-26.8,24c-6.4,10-9.6,20.5-9.6,31.2c0,9.3,2.6,18.8,7.7,28c5.1,9.2,12.2,16.9,21.1,22.8c9,6,26,13.2,50.5,21.4
			c0.8,0.3,1.4,1.1,1.4,2v57.5c0,0.7-0.3,1.3-0.9,1.7c-0.5,0.4-1.2,0.5-1.9,0.3c-6.2-2.1-11.9-5.4-17.2-9.7c-7-5.6-13.4-12.3-19-20
			c-5.4-7.4-11.1-17.4-16.8-29.8l-29.5,7.1l16.3,87.4h15.7l7.7-19.1c0.2-0.6,0.7-1,1.3-1.2c0.6-0.2,1.3-0.1,1.8,0.3
			c14.1,10.3,27.8,17,40.7,20c0.9,0.2,1.6,1.1,1.6,2V815.3z M485.7,534.6L485.7,534.6L485.7,534.6z M519.1,740c-0.5,0-1-0.2-1.4-0.5
			c-0.4-0.4-0.7-1-0.7-1.6v-51.9c0-0.7,0.3-1.3,0.8-1.7c0.5-0.4,1.2-0.5,1.8-0.3c10.4,3.2,18.6,7.8,24.4,13.7
			c4.4,4.6,6.6,10.2,6.6,16.7c0,7.3-3,13.2-8.8,17.5c-5.6,4.1-13.2,6.8-22.4,8C519.2,740,519.1,740,519.1,740z M521.1,688.9v46.6
			c7.5-1.2,13.6-3.5,18.2-6.9c4.8-3.5,7.2-8.2,7.2-14.2c0-5.4-1.8-9.9-5.4-13.8C536.3,695.8,529.6,691.8,521.1,688.9z M485.7,621.2
			c-0.2,0-0.4,0-0.7-0.1c-11.1-3.8-18.9-8-23.2-12.7c-4.4-4.7-6.7-9.8-6.7-15c0-6.3,3.1-11.8,9.3-16.2c4.3-3,11.1-5.1,21-6.4
			c0.6-0.1,1.2,0.1,1.6,0.5c0.4,0.4,0.7,1,0.7,1.6v46.3c0,0.7-0.3,1.3-0.9,1.7C486.6,621.1,486.1,621.2,485.7,621.2z M483.6,575.2
			c-7.8,1.2-13.5,3-16.8,5.4c-5.1,3.6-7.6,7.8-7.6,12.8c0,4.2,1.8,8.2,5.6,12.2c3.5,3.8,9.8,7.3,18.8,10.6V575.2z"/>
	</g>
	<g>
		
			<rect id="rect3277_00000093885935142643122750000010578662780023779737_" x="324.3" y="684" transform="matrix(0.7071 -0.7071 0.7071 0.7071 -462.3731 486.3053)" class="st2" width="63.1" height="234.7"/>
		<path d="M416.5,910.7c-1.1,0-2.1-0.4-2.9-1.2L247.6,743.5c-0.8-0.8-1.2-1.8-1.2-2.9c0-1.1,0.4-2.1,1.2-2.9l44.6-44.6
			c1.5-1.5,4.3-1.5,5.8,0L464,859c0.8,0.8,1.2,1.8,1.2,2.9s-0.4,2.1-1.2,2.9l-44.6,44.6C418.6,910.3,417.6,910.7,416.5,910.7z
			 M256.4,740.6l160.1,160.1l38.8-38.8L295.2,701.9L256.4,740.6z"/>
	</g>
	
		<linearGradient id="path3404_00000032627704270347342850000015488714609344298624_" gradientUnits="userSpaceOnUse" x1="517.4736" y1="243.5282" x2="522.8284" y2="238.1732" gradientTransform="matrix(1 0 0 -1 -248.7018 959.9996)">
		<stop  offset="0" style="stop-color:#FFFFFF"/>
		<stop  offset="1" style="stop-color:#FFFFFF;stop-opacity:0"/>
	</linearGradient>
	
		<path id="path3404" style="opacity:0.7;fill-rule:evenodd;clip-rule:evenodd;fill:url(#path3404_00000032627704270347342850000015488714609344298624_);enable-background:new    ;" d="
		M291.8,693.6l-44.1,44.1c-1.1,1-1.5,2.6-1.1,4c0.4,1.4,1.5,2.6,2.9,2.9c1.4,0.4,3,0,4-1.1l45.2-45.2L291.8,693.6L291.8,693.6z"/>
	<path d="M500.4,905.2c-1.1,0-2.1-0.4-2.9-1.2L253.1,659.7c-1.6-1.6-1.6-4.2,0-5.8l244.4-244.4c1.6-1.6,4.2-1.6,5.8,0l244.4,244.4
		c0.8,0.8,1.2,1.8,1.2,2.9c0,1.1-0.4,2.1-1.2,2.9L503.3,904C502.5,904.8,501.5,905.2,500.4,905.2z M261.8,656.7l238.5,238.5
		l238.5-238.5L500.4,418.2L261.8,656.7z"/>
	
		<linearGradient id="path3256_00000134951464457970569360000000426548575539363971_" gradientUnits="userSpaceOnUse" x1="621.3191" y1="387.7961" x2="626.674" y2="382.4412" gradientTransform="matrix(1 0 0 -1 -246.0783 919.3955)">
		<stop  offset="0" style="stop-color:#FFFFFF"/>
		<stop  offset="1" style="stop-color:#FFFFFF;stop-opacity:0"/>
	</linearGradient>
	
		<path id="path3256" style="opacity:0.7;fill-rule:evenodd;clip-rule:evenodd;fill:url(#path3256_00000134951464457970569360000000426548575539363971_);enable-background:new    ;" d="
		M503,409.1c-1.7-1.3-4.1-1.1-5.5,0.4L253.1,653.8c-1.1,1-1.5,2.6-1.1,4c0.4,1.4,1.5,2.6,2.9,2.9c1.4,0.4,3,0,4-1.1l244.4-244.4
		c0.9-0.8,1.3-2,1.3-3.2C504.5,410.9,503.9,409.8,503,409.1L503,409.1L503,409.1z"/>
	<g>
		
			<rect id="rect3279_00000013898381423955887540000005365674145348522377_" x="527.6" y="769.7" transform="matrix(0.7071 -0.7071 0.7071 0.7071 -377.7019 690.72)" class="st2" width="234.7" height="63.1"/>
		<path d="M584.3,910.7c-1.1,0-2.1-0.4-2.9-1.2l-44.6-44.6c-1.6-1.6-1.6-4.2,0-5.8l165.9-165.9c1.5-1.5,4.3-1.5,5.8,0l44.6,44.6
			c1.6,1.6,1.6,4.2,0,5.8L587.2,909.5C586.4,910.2,585.4,910.7,584.3,910.7z M545.5,861.9l38.8,38.8l160.1-160.1l-38.8-38.8
			L545.5,861.9z"/>
	</g>
	<path d="M309.3,781.2l-22.1-22.1l26.4-26.4l22.1,22.1L309.3,781.2z M298.9,759.1l10.4,10.4l14.7-14.7l-10.4-10.4L298.9,759.1z"/>
	<path d="M347,802.6l-22.1-22.1l18.3-18.3l22.1,22.1L347,802.6z M336.6,780.5l10.4,10.4l6.6-6.6l-10.4-10.4L336.6,780.5z"/>
	<polygon points="368.5,840.3 346.4,818.2 372.8,791.8 394.9,813.9 389,819.8 372.8,803.5 358.1,818.2 374.3,834.5 	"/>
	<polygon points="398.1,869.9 392.2,864.1 412.8,843.5 402.4,833.1 381.8,853.7 376,847.8 402.4,821.4 424.5,843.5 	"/>
	<path id="rect3347" class="st5" d="M650.2,769.6l2.9,2.9l20.6,20.6l2.9,2.9l2.9-2.9l13.4-13.4l-5.8-5.8l5.8-5.8l-14.7-14.7
		l-5.8,5.8l-5.8-5.8l-13.4,13.4L650.2,769.6L650.2,769.6z M661.9,769.6l10.4-10.4l14.7,14.7l-10.4,10.4L661.9,769.6z"/>
	<rect x="589.4" y="816.5" transform="matrix(0.7071 -0.7071 0.7071 0.7071 -403.0336 668.1795)" width="31.3" height="8.3"/>
	<rect x="611.2" y="812.2" transform="matrix(0.7071 -0.7071 0.7071 0.7071 -407.293 678.4626)" width="8.3" height="37.3"/>
	<rect x="619" y="786.9" transform="matrix(0.7071 -0.7071 0.7071 0.7071 -373.442 680.4367)" width="31.3" height="8.3"/>
	<rect x="640.8" y="782.6" transform="matrix(0.7071 -0.7071 0.7071 0.7071 -377.6979 690.6812)" width="8.3" height="37.3"/>
	<rect x="314.2" y="774.2" transform="matrix(0.707 -0.7072 0.7072 0.707 -452.903 463.4448)" width="37.3" height="8.3"/>
	<rect x="368.8" y="798.2" transform="matrix(0.7071 -0.7071 0.7071 0.7071 -466.2508 502.0771)" width="8.3" height="31.3"/>
</g>
</svg>
