<?xml version="1.0" encoding="utf-8"?>
<!-- Generator: Adobe Illustrator 28.2.0, SVG Export Plug-In . SVG Version: 6.00 Build 0)  -->
<svg version="1.1" id="Layer_1" xmlns="http://www.w3.org/2000/svg" xmlns:xlink="http://www.w3.org/1999/xlink" x="0px" y="0px"
	 viewBox="0 0 512 512" style="enable-background:new 0 0 512 512;" xml:space="preserve">
<path d="M256,0C114.6,0,0,114.6,0,256s114.6,256,256,256s256-114.6,256-256S397.4,0,256,0z M206.8,368.1
	C145,368.1,94.7,317.8,94.7,256S145,143.9,206.8,143.9S319,194.2,319,256S268.7,368.1,206.8,368.1z M401.4,369.7h-45.1V143.4h45.1
	V369.7z M206.8,188.9c37,0,67.1,30,67.1,67.1s-30,67.1-67.1,67.1s-67.1-30-67.1-67.1S169.8,188.9,206.8,188.9z"/>
</svg>
