<svg xmlns="http://www.w3.org/2000/svg" xml:space="preserve" viewBox="0 0 512 512"><circle cx="256" cy="256" r="252.8" style="fill:#88ba90"/><path d="M256 512C114.8 512 0 397.2 0 256S114.8 0 256 0s256 114.8 256 256-114.8 256-256 256m0-505.6C118.4 6.4 6.4 118.4 6.4 256s112 249.6 249.6 249.6 249.6-112 249.6-249.6S393.6 6.4 256 6.4" style="fill:#1c752a"/><path d="M346.6 331V109h-80.2v222h20.8L256 360.6 224.8 331h20.8V109h-80.2v222q0 39.45 25.8 67.8c16.9 18.6 38.5 27.8 64.8 27.8s47.9-9.3 64.8-27.8q25.8-28.2 25.8-67.8" style="fill:#22542a"/></svg>