<svg xmlns="http://www.w3.org/2000/svg" xml:space="preserve" viewBox="0 0 512 512"><path d="M430.2 0H81.8C36.6 0 0 36.6 0 81.8v348.5C0 475.4 36.6 512 81.8 512h348.5c45.2 0 81.8-36.6 81.8-81.8V81.8C512 36.6 475.4 0 430.2 0M406 326.6c0 6-3.9 8.5-9.3 5.8-19.2-9.6-38.4-19.2-57.5-28.7-1.5-.7-2.9-1.4-5.2-2.5v61.2c0 6.7-3.7 8.9-9.9 5.8-21-10.5-41.9-20.9-62.9-31.4-1.5-.7-3-1.4-4.9-2.4-.1 1.7-.3 3.1-.3 4.4v63.5c0 5.2-4.1 7.8-8.9 5.4-45.9-22.9-91.9-45.9-137.8-68.8-2.4-1.2-3.3-2.5-3.3-5.3.1-49.7.1-99.3.1-149 0-4.8 4.3-7.3 8.8-5l64.2 32.1c1.5.7 2.9 1.4 4.9 2.4v-66.4c0-8 3.3-9.9 10.6-6.2 18.7 9.4 37.5 18.7 56.2 28.1 1.5.7 3 1.4 5.2 2.6v-61.6c0-6 3.9-8.3 9.4-5.6 45.6 22.8 91.3 45.6 137 68.3 3.1 1.5 3.7 3.4 3.7 6.5-.1 48.8-.1 97.8-.1 146.8" style="fill:#fff"/></svg>