<?xml version="1.0" encoding="utf-8"?>
<!-- Generator: Adobe Illustrator 28.2.0, SVG Export Plug-In . SVG Version: 6.00 Build 0)  -->
<svg version="1.1"
	 id="cvfy" xmlns:rdf="http://www.w3.org/1999/02/22-rdf-syntax-ns#" xmlns:dc="http://purl.org/dc/elements/1.1/" xmlns:cc="http://creativecommons.org/ns#"
	 xmlns="http://www.w3.org/2000/svg" xmlns:xlink="http://www.w3.org/1999/xlink" x="0px" y="0px" viewBox="0 0 512 512"
	 style="enable-background:new 0 0 512 512;" xml:space="preserve">
<style type="text/css">
	.st0{fill:#898B8D;}
	.st1{fill:#58595B;}
	.st2{fill:#403F41;}
	.st3{fill:url(#SVGID_1_);}
	.st4{fill:url(#SVGID_00000023964280160737673670000013604592195696527766_);}
	.st5{fill:url(#SVGID_00000057139119006705643930000001808565344662882950_);}
	.st6{fill:url(#SVGID_00000019645011915526467200000016036613680848765095_);}
	.st7{fill:url(#SVGID_00000008143349183885110420000017486282943314561671_);}
	.st8{fill:url(#SVGID_00000124868282752980011100000015312813565313070231_);}
	.st9{fill:url(#SVGID_00000165235404764973032220000002852048580239597748_);}
	.st10{fill:url(#SVGID_00000086649446131308021040000011073701655020880301_);}
	.st11{fill:url(#SVGID_00000122714238198898104480000006648936424229226664_);}
	.st12{fill:url(#SVGID_00000074442683054211595930000016555129633766469532_);}
	.st13{fill:url(#SVGID_00000162325488365514339250000004940713926348779421_);}
	.st14{fill:url(#SVGID_00000008832441398141172080000013965505086508807047_);}
	.st15{fill:#E24525;}
</style>
<path class="st0" d="M503.1,465.4v2.1c-6,25.5-28.4,44.5-55,44.5H7.3v-46.6h38.3v7.3h403c1.1,0,2,0,2.9-0.1c1.8-0.1,3.6-0.6,5.2-1.3
	l0,0l0,0c2.9-1.3,5.3-3.3,7-5.9H503.1z M63.9,0c-26.5,0-49,19-55,44.5V47H48c2.7-4.3,7.3-7.2,12.6-7.6c1-0.1,2-0.1,3.2-0.1h402.6V47
	h38.3V0H63.9z"/>
<path class="st1" d="M466.1,157.7V197H319.5v-39.3H466.1z M45.9,315.4v39.3h146.6v-39.3H45.9z M45.9,157.7V197h146.6v-39.3H45.9z
	 M319.5,315.4v39.3h146.6v-39.3H319.5z"/>
<path class="st2" d="M83.8,78.6H428v39.3H83.8V78.6z M83.8,394.5H428v39.3H83.8V394.5z"/>
<linearGradient id="SVGID_1_" gradientUnits="userSpaceOnUse" x1="-1460.6174" y1="1248.0955" x2="-1375.1096" y2="1248.0955" gradientTransform="matrix(0.1853 0.356 0.6722 -0.353 -90.6602 993.8017)">
	<stop  offset="0" style="stop-color:#737373"/>
	<stop  offset="1" style="stop-color:#333333"/>
</linearGradient>
<polyline class="st3" points="466.5,78.6 504.7,58.1 504.8,18.6 466.5,39.3 "/>
<linearGradient id="SVGID_00000083078933786993552100000015042230310786013341_" gradientUnits="userSpaceOnUse" x1="4.634" y1="462.6" x2="50.301" y2="462.6" gradientTransform="matrix(1 0 0 -1 0 514)">
	<stop  offset="0" style="stop-color:#737373"/>
	<stop  offset="1" style="stop-color:#333333"/>
</linearGradient>
<path style="fill:url(#SVGID_00000083078933786993552100000015042230310786013341_);" d="M45.6,64.5v-8.9c0-5.3,2.6-10,6.5-13
	l-34-18.5c-6.7,9.5-10.8,21.3-10.9,34l38.3,20.6v-14C45.6,64.6,45.6,64.5,45.6,64.5z"/>
<linearGradient id="SVGID_00000007396519165009307100000016787017954035223186_" gradientUnits="userSpaceOnUse" x1="-1587.8865" y1="-2208.1648" x2="-1498.137" y2="-2208.1648" gradientTransform="matrix(-0.1853 -0.356 -0.6722 0.353 -1743.8359 694.0982)">
	<stop  offset="0" style="stop-color:#737373"/>
	<stop  offset="1" style="stop-color:#333333"/>
</linearGradient>
<polygon style="fill:url(#SVGID_00000007396519165009307100000016787017954035223186_);" points="45.6,472.7 45.6,433.8 7.3,454.5 
	7.3,494.2 47.2,472.7 "/>
<linearGradient id="SVGID_00000012466124972588701320000007283840105205061764_" gradientUnits="userSpaceOnUse" x1="460.439" y1="53" x2="504.4363" y2="53" gradientTransform="matrix(1 0 0 -1 0 514)">
	<stop  offset="0" style="stop-color:#737373"/>
	<stop  offset="1" style="stop-color:#333333"/>
</linearGradient>
<path style="fill:url(#SVGID_00000012466124972588701320000007283840105205061764_);" d="M466.5,456.4c0,5.5-2.7,10.3-6.9,13.2
	l34.2,18.4c6.8-9.5,10.8-21.2,10.9-33.8L466.5,434v12.8"/>
<linearGradient id="SVGID_00000130642273526783243140000000031393282147443367_" gradientUnits="userSpaceOnUse" x1="2521.9019" y1="-2476.2334" x2="2684.4636" y2="-2476.2334" gradientTransform="matrix(-1.508 -1.0166 -3.1265 -1.519 -3697.4382 -937.9515)">
	<stop  offset="0.107" style="stop-color:#58595B"/>
	<stop  offset="1" style="stop-color:#000000"/>
</linearGradient>
<polygon style="fill:url(#SVGID_00000130642273526783243140000000031393282147443367_);" points="192.5,197 192.5,196.6 
	120.1,157.7 45.9,157.7 45.9,157.9 118.4,197 "/>
<linearGradient id="SVGID_00000032619129517688422690000013382594453311887243_" gradientUnits="userSpaceOnUse" x1="-1594.9528" y1="278.4581" x2="-1432.391" y2="278.4581" gradientTransform="matrix(1.508 -1.0166 3.1265 -1.519 1804.1958 -937.9515)">
	<stop  offset="0.107" style="stop-color:#58595B"/>
	<stop  offset="1" style="stop-color:#000000"/>
</linearGradient>
<polygon style="fill:url(#SVGID_00000032619129517688422690000013382594453311887243_);" points="466.1,157.7 392.1,157.7 
	319.5,196.8 319.5,197 393.7,197 466.1,158.1 "/>
<linearGradient id="SVGID_00000001651120108240007820000013498527920979109035_" gradientUnits="userSpaceOnUse" x1="-4327.1421" y1="1572.3868" x2="-4164.5811" y2="1572.3868" gradientTransform="matrix(1.508 1.0166 3.1265 1.519 1863.9377 2252.3516)">
	<stop  offset="0.107" style="stop-color:#58595B"/>
	<stop  offset="1" style="stop-color:#000000"/>
</linearGradient>
<polygon style="fill:url(#SVGID_00000001651120108240007820000013498527920979109035_);" points="466.1,354.7 466.1,354.3 
	393.7,315.4 319.5,315.4 319.5,315.6 392.1,354.7 "/>
<linearGradient id="SVGID_00000181790440539625362110000009820504845852464284_" gradientUnits="userSpaceOnUse" x1="-413.6677" y1="-1046.618" x2="-246.9902" y2="-1046.618" gradientTransform="matrix(-1.508 1.0166 -3.1265 1.519 -3638.6917 2252.3516)">
	<stop  offset="0.107" style="stop-color:#58595B"/>
	<stop  offset="1" style="stop-color:#000000"/>
</linearGradient>
<polygon style="fill:url(#SVGID_00000181790440539625362110000009820504845852464284_);" points="192.5,315.4 118.4,315.4 
	45.9,354.5 45.9,354.7 120.1,354.7 192.5,315.8 "/>
<linearGradient id="SVGID_00000081637877324256985580000016221215378619933828_" gradientUnits="userSpaceOnUse" x1="74.7249" y1="132.65" x2="261.062" y2="132.65" gradientTransform="matrix(0.9914 0 0 -1 -66.7823 260.2)">
	<stop  offset="0.2373" style="stop-color:#A6A8AB"/>
	<stop  offset="1" style="stop-color:#404040"/>
</linearGradient>
<polygon style="fill:url(#SVGID_00000081637877324256985580000016221215378619933828_);" points="192.8,157.7 192.8,197 7.3,97.4 
	7.3,58.1 "/>
<linearGradient id="SVGID_00000145059713659529862050000001231803112126885812_" gradientUnits="userSpaceOnUse" x1="-2461.0557" y1="132.65" x2="-2274.7185" y2="132.65" gradientTransform="matrix(-0.9914 0 0 -1 -1935.1906 260.2)">
	<stop  offset="0.2373" style="stop-color:#A6A8AB"/>
	<stop  offset="1" style="stop-color:#404040"/>
</linearGradient>
<polygon style="fill:url(#SVGID_00000145059713659529862050000001231803112126885812_);" points="319.2,157.7 319.2,197 504.7,97.4 
	504.7,58.1 "/>
<linearGradient id="SVGID_00000109714353875237062110000015839512107135393943_" gradientUnits="userSpaceOnUse" x1="-2291.8447" y1="-739.5501" x2="-2105.5078" y2="-739.5501" gradientTransform="matrix(-0.9914 0 0 1 -1767.4349 1124.6001)">
	<stop  offset="0.2373" style="stop-color:#A6A8AB"/>
	<stop  offset="1" style="stop-color:#404040"/>
</linearGradient>
<polygon style="fill:url(#SVGID_00000109714353875237062110000015839512107135393943_);" points="319.2,355.2 319.2,315.4 
	504.7,415 504.7,454.7 "/>
<linearGradient id="SVGID_00000005234139171959655520000004839686692465166770_" gradientUnits="userSpaceOnUse" x1="-94.1035" y1="-739.5501" x2="91.9344" y2="-739.5501" gradientTransform="matrix(0.9914 0 0 1 100.9931 1124.6001)">
	<stop  offset="0.2373" style="stop-color:#A6A8AB"/>
	<stop  offset="1" style="stop-color:#404040"/>
</linearGradient>
<polygon style="fill:url(#SVGID_00000005234139171959655520000004839686692465166770_);" points="192.8,355.2 192.8,315.4 7.3,415 
	7.3,454.7 "/>
<path class="st15" d="M319.2,276.1L319.2,276.1L319.2,276.1L319.2,276.1l108.9,58.5v-39.7l-35.3-18.8h111.9v-39.8H392.8l35.3-18.8
	v-39.3l-108.9,58.1L319.2,276.1L319.2,276.1z M83.8,334.6l109-58.5l0,0l0,0l0,0v-39.8l0,0l0,0l-109-58.1v39.3l35.7,18.8H7.3v39.8
	h111.9l-35.3,18.8v39.7H83.8z"/>
</svg>
