<svg xmlns="http://www.w3.org/2000/svg" xml:space="preserve" viewBox="0 0 512 512"><path d="M472.4 41.6C446.5 15.2 411.8.4 374.7 0h-1.5c-36.5 0-70.9 14-97 39.6l-1.8 1.8L41.6 274.3C15.2 300.2.4 334.9 0 371.9s13.7 72 39.6 98.4 60.6 41.2 97.6 41.6h1.4c36.5 0 70.9-14 96.6-39.3.2-.2 2-1.9 2.2-2.2l232.9-232.9c26.4-25.9 41.2-60.6 41.6-97.6.5-36.9-13.6-71.8-39.5-98.3m-267.8 396c-17.6 17.2-42.6 27.6-66.8 27.8-24.6-.3-47.6-10.1-64.8-27.6S46.4 397 46.7 372.4s10.1-47.6 27.8-65l100-100 130.2 130.2zm233-233-100 100-130.2-130.2L308.9 72.9c17.3-17 40.2-26.3 64.4-26.3h1c24.6.3 47.6 10.1 64.8 27.6 17.2 17.6 26.6 40.8 26.3 65.3-.3 24.7-10.1 47.7-27.8 65.1" style="fill:#fff"/></svg>