<svg xmlns="http://www.w3.org/2000/svg" xml:space="preserve" viewBox="0 0 512 512"><path d="M120 0h272c66.3 0 120 53.7 120 120v272c0 66.3-53.7 120-120 120H120C53.7 512 0 458.2 0 392V120C0 53.8 53.7 0 120 0" style="fill:#211e1c"/><path d="M90.1 64.5c.3 2.6-.3 5.3-1.6 7.5-1.7 3.3.8 6.8-.7 10.1-1.5 3.2-2.5 6.8-2.7 10.4 0 2-.6 3.9-1.6 5.6-.8 1.4-1.1 3.1-.7 4.8.7 2.3-.9 4.4-1.3 6.6-.2.6-.2 1.3 0 1.9 1 2.3 1.1 4.8.3 7.2 0 2.1-1.9 4.9-.3 6.5 1.2.5 2.3 1.4 3.6 1.3 1.8-.5 3.1-1.7 2.3-3.6-1.4-2.8-3.8-5.4.4-7 2.3-1 .5-2.4-.5-3.7-1.2-2.6 2.4-4.5 4.2-5.7 2.6-1.3.9-3-.5-4.6.3-3.3 2.8-5.1 4.8-7.2-.8-5.2 3.9-9.1 3.1-14.1 0-11.5 6.8-22.2 8-33.7.1-3.4 3.5-5.8 3-9.1-.2-.6-.1-1.3.3-1.9 1.8-3.4 6-6.8 4.3-10.9-.6-2.2 1.7-3.3 2.9-4.8 4.5-3.8 2.1-10.7 6.7-14.3 1.9-1.4 1.6-3.8 2-5.9H120c-1 0-2 .1-3 .2-4.7 5.9-8.7 12.4-12 19.2-2 4.4-1 10.1-4.5 13.9-4.2 6.4-6.9 13.8-7.9 21.4-1.7 3.1-.9 6.8-2.5 9.9m50.6 45.4c-.7 1.3-1 2.8-.7 4.2-2.3 3.1 4.1 11.1 3.1 4.4.5-2.2 3.6.3 2.8-1.2-.8-2.2 1.7-3.8 2.4-5.7 4.8-19.4 10.9-38.4 18.2-56.9 3.8-14.9 16.7-29.2 18.6-43.9 2.2-4.4 5.5-8.2 9.6-10.9h-8.4c-10 16-18.7 32.8-25.9 50.2 0 11.9-10.9 18.5-13.6 29.2 5.8 11.1-5.6 20.7-6.1 30.6m27.9 7.9c-1.2-4.9 5.8 2.2 7.6 3.9 3.2 1.3.4-2.6-.5-3.7 5.8-3.2-7-7.8-4.8-11.2 7.9-2.7 1.5-7.6 6.3-12.3 5.5-3 3.6-8.4 5.1-12.8 5-2.9 2.9-8.5 4.9-12.6 1.4-1.3 3.3-2.6 2.9-4.8-2.9-5.1 3.5-6.9 3.6-11.2-.4-5.6 7.4-7.7 5.2-14.3 1.2-3.4 7-3.1 6.4-7.2-.9-2-.4-4.3 1.1-5.9 1.7-2.2 5.3-3.5 5.8-6.3-.2-1.3-1.3-3.1.3-4 10.5-3.1 2.1-4.2 7.3-7.8 2.9-.6 3.4-3.1 3.8-5.6.3-.6.7-1.2 1.1-1.8h-14.4c-5.1 6.5-9.3 13.8-14 20.7-15.2 28.9-25.1 60.2-29.3 92.6-.2 1.5.4 3.1 1.6 4.3m29.7 6.7c.6-4.5-4.2-13 .6-15.8 3.1.4 1-3.7 3.6-4.9 4.5-11.9 6.5-25.1 10.4-37-1.5-3.8 5-4.3 3.8-7.6-2-6.1 8.5-7.4 8.4-13.2 3-13.7 13-24.4 18.7-37.1 1.3-3.6 3.6-6.8 6.8-8.9h-13.1c-5.1 6.2-9.6 13-13.4 20.2-6.6 14.3-44.3 99.9-25.8 104.3m-184.5.1c3.7.3.1-10.4 1.3-13.5-2.4-4.6 3.6-8 2.1-12.5-2.6-5.9 2-11.9-1.1-17.8 4.5-14.2 10-26.9 14.5-40.4-5 5.6-9.4 11.6-13.2 17.9-5.6 19.2-6.2 41.1-10.4 60.2 1.8 2.4 4.1 4.5 6.8 6.1m227.4-34.5c-4.5 10.4-7 21.5-7.3 32.8 8.3 8 9.3-19.1 9.2-23.9-.2-4.9 6.6-7.6 5.5-13.1-.9-4.4 5.6-7.3 2.9-11.7-.5-1.9 1.2-3.4 2.6-4.3 3-2.5 2.1-7.3 5.9-9.2 3.1-2.3.8-7.9 5.3-9.3 6.1-1.5 5.9-8.4 10.1-11.9 3.3-2.5 5.7-6.1 6.6-10.2C294.2 16.8 308.7 7 324.6 0h-19.8c-12.4 7.1-23.9 15.6-34.4 25.3-17 18.1-22.9 41.7-29.2 64.8M508.7 94c.4.7.7 1.5.8 2.4-.7-3.6-1.6-7.1-2.7-10.6.1.7.1 1.4.2 2.2.2 2 .7 4.1 1.7 6M47.1 72.8c2.1-.5 3.4-2.5 2.9-4.6-.1-.4-.3-.8-.5-1.1 2.5-17.7 6.7-35 12.4-51.9-3.3 1.8-6.5 3.8-9.7 6-3.3 17.8-12.7 53.6-5.1 51.6m430.5 57.1c1.6 6.5 8 3 5.1-2.6C470.2 22.1 334.6-11.2 287.1 88.5c-3.4 13.4-7.5 26.7-12.4 39.7-.6 3.2 3.5.7 5.1.4 6.4-16.3 15.4-31.1 22.3-47.1 15.2-21.2 36.1-38.8 62.6-41.8 3.4 1.5 6.4-2.1 9.9-1.2 4 1.4 5.5 3 9.2.7 4-3.2 6.4 3.9 10.1 1.1 29.4-1.8 52.6 24.6 68.5 46.7 8.5 12.7 13.8 27.5 15.2 42.9M269.3 66.4c-8.6 12.2-8.2 27.1-13.4 40.5-2.8 6.9-4.4 14.2-4.9 21.7 1.5 8 7.2 3.3 5.2-2.7 1.8-10.6 7.5-22 8.3-33-.2-7.3 6.1-11.5 7.9-18 5.3-5.9 10.1-12.4 14.2-19.2 1.8-5.3 9.3-5.5 11.3-10.9 4.5-2.6 8.7-5.9 12.3-9.7 7.1-2.3 13.8-6 19.5-10.9 6.4-1.2 11.6-5.4 18.4-4.1 8.7-1.1 17.2-3.4 25.3-6.8 16 .5 31 3.6 46.5 5.4 16 11.4 34 18.3 47.2 32.7 6.7 8.9 12.5 18.5 17.3 28.5.3 10.3 7.4 20.2 6.8 30.1 4.5 2.7 2.5 15.6 5.5 19.8 6.9 9.1 1.9-11.6 1.6-14.9-10.2-20.5-7.2-45.1-21.4-63.8-26-31.3-68.7-43.5-107.7-40.2-5.2-1.1-9.8 2.8-13.6-2.9-6.2.7-12.3 2.3-18.1 4.6-28.5 8.3-50.2 31.7-68.2 53.8M58.4 113.2c1.1 3.2-1.4 6.3-.7 9.6.3 1.1 2 1.1 2.9 1.3 2.3-.2 3.3-3.2 3.3-5.3-.2-2.2-.9-4.4-2-6.4 1.5-4.9 2.5-10 2.8-15.1-.7-2.2-.3-4.6 1.1-6.5 2.5-2.7 1.4-6.9 3.7-9.9 3.1-3.9.1-7.2 2.2-10.2 3.4-3.4 2.3-7.8 3.3-12 .7-2 2.2-3.8 2-6 .1-2-1.1-4.4.2-6.2 2.2-2.2 3.6-5.1 4.1-8.2 1.3-8.5 6.2-15.8 7.6-24.3.6-4.6 4.5-4.6 4-9.6V3.2c-3.9.9-7.7 2-11.4 3.2-.2 1.3-.7 2.6-1.3 3.9-3.9 9.2-7 18.7-9 28.4-3.2 9.6-5.7 19.4-7.6 29.3-.4 10.3-2.2 20.5-3.3 30.6-.9 2.7-3.4 12.1-1.9 14.6m390.3-.4c1.2 4.5 2 27.2 8.8 16 0-8.9-1.7-17.7-5.1-25.9-23.8-40.2-66.1-71.1-112.5-41.7-25.2 14.8-35.8 44.1-48.9 68 1.4 2 3.4 6.1 4.2 1.4-1-4.2 5.6-5.3 3.9-9.8-.2-7.3 7-10.1 10.1-15.1 14-33.2 52.8-56.7 88.1-44.4 4.7-1.3 5 4.8 8.8 5.8 2.8 1.2 6.4 1.8 7.2 5.2 5.5 8.4 14.9 14.1 20.7 22.6 4.4 6.3 9.4 12.3 14.7 17.9m-229.4-.8c-.9 3.4 3.1 18.5 6.1 11.5-1.5-1.9-3.3-4-1.2-6.3L223 115c4.2-6.5 4.5-15.1 8.3-21.8 1.7-4.6-2.2-10.3 1.9-14.1 4.9-3.3 1.2-10 5.3-14.1 2.9-2.4 1.1-6.3 3.3-8.9 2.2-1.8 3-4.9 1.9-7.5.2-6.2 8.5-8.3 7.5-15.6 5.6-7.4 9.1-19.1 17-23.7 4.7-1.1 1.2-7.2 5.3-8.3 1.2 0 2.4-.3 3.4-1h-8.5c-7 5.7-13.2 12.4-18.3 19.9-17.7 27.6-24.5 61.7-30.8 92.1m-103.8 1.4c.3 1.1.3 2.3-.1 3.4-.6 1.2-2.2-.6-2.4.7.5 2.6 2.9 4.3 5.5 4 1.6-1.1-1.8-8.1 2.2-4.3-3.4-4.9 2.1-2.1 3-5.6-1.2-4.2 2.4-7.4 1.9-12 1.6-4 2.5-8.2 2.6-12.5 4.3-15.8 5.5-33 14.7-46.9 1.8-5.1-2.4-7.8 4.2-11.5-.2-6.8 7.3-11.1 5.6-17.8-1.1-3.1.6-6.4 3.6-7.5q1.2-.45 2.4-.3c1.6-.6 1.7-1.8 1.5-3.1h-7.7c-9.7 17.7-18.3 36-26 54.6-1.5 15.5-5.8 29.6-8.8 44.7-.1 5.1 1.6 9.9-2.2 14.1m309.9 7c2.1 13.4 7.1 16 5.2.1 1.9-16.9-12.6-24.9-23.5-35.5-15.3-20.2-47.4-12.7-64.5 1.3-13.1 10.1-25 31.9-19.5 46.8 5.7-9.3 3.5-22 11.8-30.7 5.5-1.4 6.5-6.3 10-9.5 5.1-4.3 10.6-7.6 15.7-11.8 2.8-3.2 7.4-1.8 11.1-2.8 3.3-1 6.9-5.3 9.9-1.4 2.9 3.5 7.8-.7 10.6 3.1 1.8 1.5 3.4 3.7 5.8 4.3 5.6 5.5 8.5 13.3 16 17.7 3.7 6.6 10.5 10.4 11.4 18.4m-26-4.4c14.8 46.2 12.5-5-2.5-14.5-19.9-14.6-48.7-2.9-57.2 18.5.7 4.7-4.8 9.7-.3 13.4 4.9-2.7 6.2-14.4 12.5-17.5 11.6-14.7 37.3-18.1 47.5.1m-43.2 12c1.1 12.5 10.7-2.1 12.2-6.7 3.1-.9 5.6-3.7 8.8-2.6 8.6 1 8.8 11.3 12.5 16.1 4.4-3.9-1.6-10.7-4.1-14.4-9.7-10.1-22.4-1-29.4 7.6m-319-1.6c0 1.2.5 2.3 1.4 3 1.1 1 2.2 2 3.3 2.9.4.3.8.5 1.3.6.2-.2.5-.5.5-.6-.1-.6-.5-1.3-.3-1.9.8-2.6.1-5.2.8-7.8 1.3-3.6 2-7.3 2.3-11.1-.8-1-1.4-2.2-1.9-3.4-.2-.6-.2-1.3.2-1.9.1-.3.3-.6.6-.8 1.3-1.1 1.6-3 .9-4.5-.6-2-1.7-3.9-3.1-5.5-.1-.1-.3-.1-.4-.1s-.3.1-.3.2c-.1 1.5-.3 2.9-.3 4.4.1 1.1-.1 2.3-.5 3.4-.6 1.5-1 3.1-1.2 4.7-.3 1.8-3.7 10.9-4.1 12.6-.3 1.8 1 3.1.8 4.8-.1.4 0 .7 0 1m273.4 164.2c9.9-24.8 27-46.2 28.2-73.9 5.3-7.8-3.2-17.5 4.6-23.5 0-6.6-1.6-12.2 3.2-17.2.1-8.9 1.4-17.7 3.9-26.2 1.1-9.6 1.8-22.3-5.1-4.1-.4 13.4-1.7 26.7-4 39.9-4 28.1-12.7 55.3-25.7 80.5-8.2 12.7-12.9 42.7-24.6 46.3-44.7 85.9-166.3 149-260.7 159.3 1.4 1.6 2.7 3.2 4.2 4.6 10.1.6 20.2.5 30.3-.1 99.6-29.2 208.2-82.5 245.7-185.6m-102.1 88.2c11.1-11.7 20.8-24.6 28.8-38.6 12.2-5.9 19.4-16.3 29-25.3 10.2-24.3 26.9-46.8 30.2-73.3 3-2.9 4.6-6.9 4.6-11 1.9-5 6.8-7.8 5.4-14 5.4-15 9-30.4 13.5-45.6 2.8-3.2 1.2-7.1.4-10.7-.2-2.9 3.8-4.2 2.4-7.5-2.1-4.1.1-7.8.8-11.8-2.1-8-5.2.7-6.5 3.8-3.6 0-.8 1.8-.6 3.4-.6 1.7-.4 3.6.6 5.1-.9 30.7-15.1 59.4-26.1 87.8-15.3 43.5-36.1 89.5-74.5 116.5.2 1.4 2.1.9 2.2 2.5-57 49.5-127.5 85.2-203.5 90.2.4.7.9 1.4 1.3 2.1 7.4.7 14.9 1.2 22.1 1.3 62.7-7.7 121.9-33.7 169.9-74.9M20.7 427.6c46.7 4.4 89-13.1 128-35.2 7.8-2 12.5-9.2 20.4-11.2 5-7 14.1-8.2 20.3-14.2 14.3-9.5 21.5-25.2 34.5-35.2.6-2.8 2.6-7.1 5.9-6.8 5.9-.2 7.3-8.5 12.5-10.9 12.2-17.9 22.8-37 31.5-56.9 14.6-37.6 29.8-79.2 30.2-118.7-1.5 0-4-1.7-4.8 0-.2 2.9-3 4.6-3.8 7.1 7 51.1-37.2 139-73 178.7l.6 2.2C167.3 383.4 93.2 425 12 425.2c.6 4.3 5.8 2.6 8.7 2.4m-4.8-48.7c26.5 15.2 65.4-9.1 93-14.8 17.8-7.6 34.6-17.2 50.3-28.6 5.3-5.7 14.7-7.5 17.3-15.5 2.4-5 8.4-6.6 8.7-13 13.1-16 33.3-30.1 35.1-53.5 5.3-2.8 8.1-8.7 6.9-14.6 8.7-14.2 11-31.1 18.1-46.3 1.3-5.5 1.4-11.3.5-16.8 2.5-4.2 3.5-9.2 2.8-14.1 3.3-5.4 4.6-11.8 3.6-18.1-3.3-.1-1.6-6.6-4.8-5.4-4.3 4.7-.6 10.3-.5 15.4-17.4 121.6-104.1 219.8-231 225.3m-.2 0h.2c0-.1-.1-.1-.1-.1zm260.8-241-2.1-2.8c-2.9 1.3-3 5.4-3.6 8.2-2.6 103.9-77.8 207.5-179.4 244.4-7.3 7.7-104.4 14.4-72.4 18.4 4.4-3.6 9.2 1 13.6-1.6 3.4-3 8.3-3.5 12.3-1.4 20-1 39.6-5.5 58.1-13.2 48.3-22.4 90.8-55.5 124.3-96.8 13-20.5 23.4-42.5 31.2-65.5 3.2-4.7 2.9-3.7 2.7-10 6.4-9.4 10.1-20.5 10.6-31.8-.8-5 .4-10-.8-14.9-.4-2-2-4.4 0-5.9 7.3-7.9 3.7-17.8 5.5-27.1M15.4 321.6c90.4 5.6 162.7-77.2 176-160.7 1.7-4.6 2.1-9.6 1.3-14.5 1.4-2.5 1.9-4.6-.5-5.5-1.3.1-2.5 2.1-3.1 3.1-.6.9-2.3-1.2-2.5.1 5.1 49.1-34.1 87.1-60.1 125.5-29.1 29.8-68.8 46.9-110.5 47.7-4.8-1.4-11.5.5-2.6 2.4.6.6 1.2 1.1 2 1.9m-.5 33.2c-.4.7-2.2 2.6-.5 2.9 1.2-.1 1.8-1.7 3-.8 4.7 2.7 10.4-1.4 15.5-1.3 18.7-5.9 39.4-5.3 58.1-11.2 25-10.5 48.5-24.2 70-40.8 22.1-17.5 33.3-44.3 49.7-66.3 10.8-26.2 15.5-54.2 23.1-80.7.4-6.8 3.5-13.3 3.6-20-2.6-3.7-5.8 2.1-5 5.2-.3 1.6-2.1.9-3.2.7-1.7 1-3.8 4.9-2.2 6.8 12.8-4.6-16.2 63.6-17.4 72.8-33.1 81.6-108.4 124.8-194.7 132.7m150-86.4c-39.4 35.3-91 64.6-144.8 67.5-2.5.5-8.8-1-6 2.6 7.1.5 13.5-2.8 20.3-1.7 42.4 2.1 79.9-21.8 114.5-44.5 42.6-38.8 64.4-95.8 66.7-153.4.2-1.7-4.4-3.2-4-1.2 3 5 .2 12.7.1 18.2-9.1 39.1-22.7 80.1-46.8 112.5m-14.8-130.5c-3.1 0-5.6 2.5-5.6 5.6 0 .3 0 .5.1.8-.5 10.8-2.8 21.4-6.8 31.5-16.9 69.8-69.7 86.2-126.2 103.8 8.9 1.3 16-3.7 24.3-5.4 12.7-1 25-.9 35.8-8.5 26.6-8.8 47.2-29.7 62.3-52.3 1.6-14.7 5.5-29.1 11.5-42.7 2-4.8-1.5-9.9 3.2-14.1 3.6-5.5 1.4-12.7 1.4-18.7m18.9 4c-.9 1.2-1.6 2.6-2.1 4 .3 2 3.3.8 2.8 2.2-1.4 6.3-3.4 12.6-5.1 18.8-9.8 33.2-21.6 71.4-51.2 91.8-31.2 13-66.3 43.3-101 35.5-.8-.2-1.4 1.1-1.2 1.6 3.9 6.8 10.3 1 15.9 1.6 11.9.7 24.1 2.3 35.2-3.3 11.2-9.5 26.3-12.8 38.1-20.4 12.6-8.1 20.7-20.6 33.4-28.2 3-7.9 7-15.4 11.9-22.3 1.4-8.8 9.4-13.5 12.2-22.1 4.2-17.9 9.8-35.4 17-52.3l-.8-5.4c.7-1.7 2-3.1 1.9-5-2.3-4.4-3.7 4.9-7 3.5M14 252.1c-7.2 9 14.6.7 18.3 1.5 24.3-.9 46.9-12.7 61.5-32.2 18.5-24.1 31-52.2 36.4-82.1-.3-2.2-6.7-3.2-6.3-.5 3.3 4.6.7 12.2-1 17.3-12 49.6-55.4 97.1-108.9 96m60.3-38.7c7.6-7.1 13.8-15.6 18.2-25.1 5.5-5.3 9.1-12.4 10.1-20.1 1.1-10.9 10.5-21.9 3.7-32.4-20 51.2-27.9 88.4-93.5 96.5v-.1c-.9.2-3.4-.6-3.3.6 22.1 9.7 43.9-13 64.8-19.4m-26.6-49C31.4 193.5-2 184.6 13.9 191.5c26.9 5.3 47.6-24.3 52-47.7-7.2-18.2-11.1 16.7-18.2 20.6m-15.8 40.2c-6.2 2.2-19.2 1.5-21.5 7.6 5.1 2 8.1-5.1 13.2-4.7 9.1-.5 18.2-1.9 27-4.2 11.8-4.9 19.9-20.2 28.9-29.8 3.4-7.3 5.6-15.2 6.4-23.2.5-3 6.1-8.5 1.9-10.2-1.6-1-5.6-2.4-4.7.9-1.1 11.3-5.5 22-12.7 30.7-8.5 15.2-22.1 26.9-38.5 32.9m8.4-52.8c2.5-3.2 6.8-15 1.5-16-7.7 5.3-6.4 18.6-16.3 23.8-4 7.2-28.6 4.4-13.6 9.3 12.3 1.4 23.9-5.6 28.4-17.1m-31.7.2c4.4 4.5 8.4-3.4 10-6.3 3.8-.4 6-7.2 2.9-9.3-4.4 3-7.3 15.4-15.4 11.2-2 .6 2.4 2.9 2.5 4.4M15 378c-.1 0-.3.1-.4.1.1.5.5.8 1 .7-.1-.3-.2-.8-.6-.8m.7.9.1-.1h-.2zm469.1-79.2-.2-.1c-40.3 63.5-58.3 137.3-69.5 210 3.1-.6 6.1-1.4 9.1-2.2 1.5-31.5 6.2-62.7 13.9-93.3 6.2-25.1 20.4-46.7 31.1-70.1 7.3-10.1 10.4-22.7 17.5-33.3l.2.1c6.6-11.3 15-21.4 25.1-29.8v-15.8q-2.55 3.45-4.8 7.2c-7.3 9.3-15.6 17.5-22.4 27.3m16.9 21.5c-29.6 56.1-58 117.6-63.5 181.6 3.1-1.3 6.2-2.8 9.2-4.4 1.8-19.4 4.7-38.7 8.6-57.8 5.2-21.7 21-41.5 26.6-62.5 8.7-20.9 15.4-43.4 29.4-61.8v-5.2c-3.8 3.1-7.2 6.4-10.3 10.1m-33.1 163.1c5.6-4.6 10.7-9.7 15.3-15.2 3.1-27 9.9-53.4 20.2-78.5.7-5.2 6.2-6.8 7.9-11.3v-16.4c-3.3 4.7-5.6 10-8.6 15-17.9 33.1-29.7 69.1-34.8 106.4m-308.8 25.6c-.1.7-.1 1.4-.1 2.1h2.5c-.6-.6-1-1.3-1.6-1.9-.2-.2-.6-.2-.8-.2m279.9-192.4c-.1-.2-.3-.3-.5-.3-3.2 1.6-6.5 2.8-10 3.7.8-.1 1.6.1 2.3.4 2.8 1.8 5.7-1 8.2-3.8M377 261.1c30.7 3.5 70.4 6.6 91.7-20.7 18.5-13 36.5-27.9 43.2-49.3v-51.7h-.6c-9.2 7-1 27.3-3.5 38.9-4 11.9-5.7 26.3-14.2 35.8-4.9 6.7-13.7 9-19.9 13.8-3.7 5.5-8.2 10.5-13.2 14.9-6.3 4-13 7.3-20.1 9.8-3.2 4.2-7.6-1.6-11.4 1.2-2.9 2-6.5-1-9.2 2-14.8-.2-31.7 6.1-46.6.7-3.1-2.1-7.6 3.5-10.3-1.6-5.8-3.7-.8-11.1 3.6-14.2 9.6-7.1 22.2 2.4 33.2-1 36.5.7 81.1-18.3 89.9-57.6 10.1-12.6 4.3-27.3 3.3-42.1-4.8-13.1-5.9 7.9-4 12.4 4.1 13.8-4.2 23.5-7.1 36.1-5.9 9-12.1 20.9-22.2 24.7-15.2 6.8-31.1 17.2-47 19.5-2.9-1.3-4.6 2.6-7.1 2.1-4.7-1.8-10-1.9-14.7-.2-4.3-5.4-10.4.3-16-1.1-2.4-.4-4.9-4.2-6.1.2-1.2 5.2-3.3 3.3-2.7-1.1-.3-5.8 5.8-8.6 6.9-13.9 43.1 7.2 108.8-19.5 99.8-72.1.1-1.2.2-4.9.2-6.1s-.8 1.4-1.8.7-2.7-1.5-3.4-.1c-2.6 1 1.3 14.9-.7 20.2-2.2 10.7-8.2 20.3-16.7 27.1-12.4 10.5-26.5 18.9-41.7 24.8-5.5-1.6-11.4-1.4-16.7.7-5.5-1.6-3.9-1.7-8.8.9-2.5-2.6-8.6-1.3-9.4-4.3 3.3-5.5.8-18.8 6.6-20.3 32.4 12.9 70.5-16.9 70.4-50.6-6.6-11.3-11.4 24.3-16.3 28-8.3 5-14.7 12.4-22.6 18.3-4.6 1.4-9.4.5-13.9 2-5.8-2.2-11.9-3.4-18.1-3.3-4-26.4 25.8-2 35.9-21.6 3.2-7.7 15.3-17.3 8.7-25.7-8.2-1.4-3.6 11.5-10.1 15.1-2.8 11.8-14.6 19.2-26.4 16.5-.9-.2-1.8-.5-2.7-.8-2.8-2.2-1.4-10.7 1.6-12.2q4.95.3 9.6-1.5c5.8-.6 10.1-5.9 9.4-11.7q-.3-2.4-1.5-4.5c-.4-1-1.4-.2-2 .2-3.9 4.7-5.6 13.7-13.2 12.7-6.8 1-.5-9.2-3.1-13.4-2.3-2.2-3.7 3.3-4 5-8.1 71.8-44.7 150.7-78.2 219.4-61 68.4-145.7 120.9-235.4 138.5 5 2.4 10.1 4.5 15.4 6.2.4-4.9 4.2-3.2 11.6-5 8.2-4 9.2 2.6 9.3 9.4l2.1.3c1.6-3.3 2.1-7.1 1.2-10.6 1.5-4.8 10.1-3.2 14.3-5.1 4.5 4.2 6.7 10.3 5.9 16.5h5.3c-.7-4.5-1.2-8.9-1.4-13.5.5-3-4-3-3.5-5 34.9-18.4 36.8-15.5 38.1 18.4h6.6c-.5-12.3-2.2-25.7-10.8-34.3 30.4-23.2 27.6 11.1 26.8 34.3h6.2c-2.2-16.4-3.3-32.9-3.2-49.4 2.4-1.2 10-8.8 10.3-5 6.3 17.4 9.5 35.8 9.4 54.4h5.9c.6-11.1-.3-22.2-2.8-33-1.3-5.1 1.4-11.4-4-14.6l.8-2.9c-1.2-1.8-1.2-4.9-3.2-5.8-.8-.4-1.2-2.1-.4-2.6 13.2-9.7 12.6-8.7 17.6 6.5 5 17.1 8.4 34.7 10.1 52.4h10.6c6.5-87.1-34.2-69.2 7.6-86.4 16.8 22.2 13.7 57.5 15.2 86.4h7.6c1.6-29.2-3.8-58.4-15.6-85.1-3.2-1.4-7.3-2.9-3.5-6.7 6.4-4.2 14.5-17.3 22.4-14 16.7 31.3 17.6 70.2 20.1 105.8h8c-2.6-25.3-2.9-51-10.7-75.2-2.6-12.8-3.5-28.8-15.9-35.5 25.4-63.8 45.5 72.9 45.8 110.7h8.4c-1.5-5.9-2.1-12-2-18.1 1.9-7 5.8-13.3 3.4-21.1-.9-3-4.5-4.7-4-8.3.7-3.3-4.3-4-3.6-7.2 1-3.8 1.3-4.2-2-6.6-2.9-10.9.4-23.6-3.4-35-8.1-12.9-11.1-28.1-18.5-40.6 6.2-30 24.4 41.5 27.7 48.9 11 28 16.6 57.8 16.5 87.8h9.1c2.3-26-5.8-49.8-15.3-73.8-3.7-5.4-1.1-9.7-1-15-1.4-11-8.9-19.5-12.2-29.9-5.2-7.1-2.8-17.7-8.8-23.9-4-2.5-4.9-7.4-7.9-10.6 12.7-29 8.4-32.5 25.7-1.1 14.8 22 19 48.2 23.3 73.9 8 26 11.6 53.2 10.5 80.4h16.2c-.7-11.6.5-23.1 3.6-34.3 4.2-.6 1.5-6.1 3.2-8.9-1.1-26 16.1-48.1 22.3-72.9 4.7-28.1 22.8-52.3 30.9-79.5 16-29.3 39.8-53.8 62.1-78.6V222c-4.8 8.5-10.7 16.3-17.5 23.4-4 4.3-11 5.2-14.1 10.7-4.3 1.6-6.1 5.3-9.6 6q-22.65 7.65-46.2 12c-7.6 1.6-15.6 1.8-23.3 3.2-4.6-.2-8.9-3.2-13.6.1-4-3.1-8.3-1.4-12.6 0-3.9-6.4-7.8.2-12.3-.5-1.4-1.3-3-2.3-4.8-1.2-1 .4-.9 2 .2 2.1 11.1.8 22.4 4.1 33.7 4.6 75.2 9.2 113.4-55.6 54.1 34.1-1-5.4-3.5-2.2-6.5 1.1.4.6-.8 2.4-.9 3.2-2.8 11.8-11.3 15.8-22 18.8-5.1-.5-9.2 4.8-13.6.8-2.6 2.3-6.5 8.7-9.6 4.2-2.6-4-7.1-1.9-11-3.5-1.9-5.4-5.5-2.3-9.5-3.2-4.5-2.9-8.5 5-12.2-.5-4.3-3.6-8.1 5.9-12-.9-2.8-4.3-6.6-.4-10.2-1.6-1.4-2.1-3.6-3.5-6-4.1-1.7-4-4.1-7.6-7.1-10.7.5-3.5 2.6-7.1 5.3-3.4 17.9 4.2 35.3 10.3 54.1 8.1 14.8.7 29.7-.7 44.2-4-1.8.1-3.7.8-5.1-.6-3.3-3.1-9.8-5-12.9-.6-4.7-.9-8.5 2.5-13.3 2.1-3.5.8-7.1-4.3-10 .6-8.6 4.5-19.2-5.4-27.3-1.7-8.8 2.9-14.2-9.6-23.1-6.8-1.5-5.4 3.5-10.8 6.2-15.2l.3 1.7c27.2 1.1 55.6 8.9 83.3 3 30.1-4.4 58.3-33.8 7.7-9.5-3.4-1-6.4 1.2-9.6 1.9-2.8-2.9-5.6-1-8.8-.7-6.8-2.1-14.1-2.3-21.1-.7-15.6-3.3-31.7-3-47.2.8-.5-1.3-2.2-1.6-2.8-3 2-6.2 1.1-15.9 8.4-17.7-3.7-4.2 1.9-11.2 3.8-15.6 5.3-4 13.6 2.7 19.7 2.3m107.3-7.9-.1.3-.3-.2zm-109.7 192c2.7.6 10 .4 8.8 4.6-2.2 1.5-4.5 9.6-7.5 6.6-.2-3.6-3.3-8-1.3-11.2m4.7 59.7c-.6 12.5-6.6-12.2.2-7.8.4 2.6.3 5.2-.2 7.8m1.6-16.7c-.2 1.9-2.1 2.4-3.7 2.4-2.2-1.8 2.2-5.8.3-8.5-.9-5.6-2.4-11.5 3.4-14.2 4.6 3 .4 14.7 0 20.3m3.6-27.6c-.5 1.3-1.5 2.5-2.7 3.2l-.2-.9c.7-9.3 7.5-16.8 2.9-2.3m10.1-31.3c-1.7 7.1-4.5 13.9-8.3 20.2-1.8-2.9 4.9-7.5 1.4-9.5-4.9-2.8-10.9-2.6-15.6.4-5.3-5.3-2.2-11.5-4.1-17.2-.5-.7-1.6-2.3-.2-2.7 6.8 5 30-3.1 26.8 8.8m9-27.1q-1.65 4.05-2.4 8.4c-3.4 1.7-1.6 8-6.1 7.5-4-.5-8.9 1.4-12.4-.5-2.6-3-6.5 1.4-9.1-1.2-2.2-3.3-6.8.9-8.6-2.5-.1-15.1-7.9-21.1 11.3-17 5.8 3.7 29.1-2.6 27.3 5.3m-65.3-63.4c8.7 3.5 17.9 5.8 27.3 6.8 16.2 1.8 32.5 2 48.8.6 3.9.3 13.3-6.7 14 .2-2 4.6-4.9 8.8-8.3 12.5-9.3 1.6-21.2-3.9-28.2 4.7-1.5 1.8-9.5-.8-6.2 4.6 7.9-.1 24.9-4.2 29.1 2.2-3.8 4.6-2.6 14.8-8 16.9-6.2.6-12 3.4-16.3 7.9-2.2 1.2-3.5.7-4.8-1.5-3-1.5-5.4 1-7.3-3.7-4.9-2.9-11.1-2.5-15.7.9-8.5-4.4-8.8-20.3-14.2-28.6 4.2-1.2 34 11.8 28.5 2.8-2.2-1.9-4.6 2.3-6.8.2-3.4-4.2-8.7-3.8-12.8-6.7-9.2-3.3-14.9-1.6-18.3-13.3-.1-1.8-2.8-5.8-.8-6.5m-272.4-195v.4c0 .2.4-1.1.1-.6z" style="opacity:4.000000e-02;fill:#fff"/><path d="M401.2 352.4 163 114.2c-4.4-4.4-11.5-4.4-15.9 0L115.3 146c-4.4 4.4-4.4 11.5 0 15.8l238.3 238.3c4.4 4.4 11.5 4.4 15.9 0l31.8-31.8c4.3-4.3 4.3-11.4-.1-15.9q.15.15 0 0M146 159c-3.9-3.9-3.9-10.2 0-14.1s10.2-3.9 14.1 0 3.9 10.2 0 14.1c-3.9 3.8-10.2 3.8-14.1 0" style="fill:#d9b059"/><path d="M334.9 140.8 164.8 310.9l-.1 39.8 39.8-.1 170.1-170.1-15.9-23.8z" style="fill:#387e56"/><path d="m382.2 172.9 12.6-12.6c10.6-10.7 10.5-28-.2-38.6-.3-.3-.6-.6-1-.9-11.5-10.4-29.2-9.8-40 1.3l-11.1 11.1 15.3 23.3z" style="fill:#be4133"/><path d="m326.9 148.8 15.8-15.8 39.7 39.7-15.8 15.8z" style="fill:#aeb0ae"/><path d="m184.4 168.1 16.2-16.2 4 4-16.2 16.2zm13.5 30.3 24.6-24.7 4 4-24.6 24.6zm30.2 13.4 16.2-16.2 4 4-16.2 16.2zm59.1 75.9 24.7-24.7 4 4-24.6 24.6zm30.3 13.5 16.2-16.2 4 4-16.2 16.2zm13.4 30.2 24.6-24.7 4 4-24.7 24.6zm30.3 13.4 16.2-16.2 4 4-16.2 16.2z" style="opacity:.1"/><path d="M190.3 347.3c-.8-.1-1.4-.7-1.5-1.5l-2.3-15.1c-.1-.8-.7-1.4-1.5-1.5l-15.1-2.3c-.8-.1-1.4-.7-1.5-1.5l-2.4-15.9-1.4 1.4c-6.8 6.8-12.4 14.7-16.5 23.4l-13.4 27.3-2.5 21.4 21.4-2.4 27.3-13.4c8.7-4.1 16.6-9.7 23.4-16.5l1.4-1.4z" style="fill:#d3ab89"/><path d="m153.7 380.6-18.9-18.9-13.7 28c-.8 1.8 0 3.8 1.7 4.7.9.4 2 .4 2.9 0z" style="fill:#64625c"/><linearGradient id="oracle-apex_svg__a" x1="-44.439" x2="-44.439" y1="-841.663" y2="-1226.495" gradientTransform="rotate(45.001 -1445.034 -40.838)" gradientUnits="userSpaceOnUse"><stop offset=".8" style="stop-color:#fff"/><stop offset="1" style="stop-color:#fff;stop-opacity:0"/></linearGradient><path d="m140 369.7 18.5-22.7c6-7.4 12.4-14.5 19.2-21.2l.1-.1 191.1-191.1c6.2-6.9 14-12.2 22.6-15.6-11.6-8.6-27.8-7.3-37.9 3.1L164.9 310.9l-.1.1c-6.8 6.8-12.4 14.7-16.6 23.4l-13.4 27.3-13.7 28c-.5 1-.4 2.2.1 3.1z" style="opacity:.1;fill:url(#oracle-apex_svg__a)"/></svg>