<?xml version="1.0" encoding="utf-8"?>
<!-- Generator: Adobe Illustrator 28.2.0, SVG Export Plug-In . SVG Version: 6.00 Build 0)  -->
<svg version="1.1" id="Layer_1" xmlns="http://www.w3.org/2000/svg" xmlns:xlink="http://www.w3.org/1999/xlink" x="0px" y="0px"
	 viewBox="0 0 512 512" style="enable-background:new 0 0 512 512;" xml:space="preserve">
<path d="M321.7,466.3v12.8c0,18.2-14.7,32.8-32.8,32.8c-5.7,0-11.1-1.5-16.1-4.2L75.8,396.9c-10.3-5.8-16.7-16.8-16.7-28.6V143.7
	c0-11.8,6.4-22.8,16.7-28.6L272.8,4.2c15.8-8.9,35.8-3.3,44.7,12.5c2.7,4.9,4.2,10.5,4.2,16.1v12.8l23.4-7
	c17.4-5.2,35.7,4.7,40.9,22c0.9,3.1,1.4,6.2,1.4,9.4v13.3l28.7-3.6c18-2.3,34.4,10.6,36.6,28.5c0.1,1.4,0.2,2.7,0.2,4.1v287
	c0,18.2-14.7,32.8-32.8,32.8c-1.4,0-2.7-0.1-4.1-0.2l-28.7-3.6v13.3c0,18.2-14.7,32.8-32.8,32.8c-3.2,0-6.4-0.5-9.4-1.4L321.7,466.3
	z M321.7,432l32.8,9.9V70.1L321.7,80V432z M387.3,116.6v278.8l32.8,4.1v-287L387.3,116.6z M92,143.7v224.4L288.9,479V32.8L92,143.7z
	 M124.8,165.7l32.8-16.5v213.6l-32.8-16.5V165.7z"/>
</svg>
