<?xml version="1.0" encoding="utf-8"?>
<!-- Generator: Adobe Illustrator 28.2.0, SVG Export Plug-In . SVG Version: 6.00 Build 0)  -->
<svg version="1.1" id="Layer_1" xmlns="http://www.w3.org/2000/svg" xmlns:xlink="http://www.w3.org/1999/xlink" x="0px" y="0px"
	 viewBox="0 0 512 512" style="enable-background:new 0 0 512 512;" xml:space="preserve">
<style type="text/css">
	.st0{fill-rule:evenodd;clip-rule:evenodd;fill:#FFFFFF;}
</style>
<path class="st0" d="M256,0C114.6,0,0,114.6,0,256s114.6,256,256,256s256-114.6,256-256S397.4,0,256,0z M64,256
	c0,11.8-9.6,21.3-21.3,21.3c-11.8,0-21.3-9.6-21.3-21.3C21.3,126.4,126.4,21.3,256,21.3c11.8,0,21.3,9.6,21.3,21.3
	c0,11.8-9.5,21.4-21.3,21.4C150,64,64,150,64,256z M288.1,447.9c-88.4,0-160-71.6-160-160c0-1.3,0-2.7,0.1-4
	c-0.1-2.2-0.2-4.4-0.2-6.6c0-15.3,2.3-30.1,6.6-44c11.7,25.9,37.8,44,68.1,44c41.2,0,74.7-33.4,74.7-74.7c0-30.3-18-56.4-44-68.1
	c13.9-4.3,28.7-6.6,44-6.6c2.1,0,4.3,0.1,6.4,0.2c-0.4,0-0.7,0-1.1-0.1c1.8-0.1,3.6-0.1,5.4-0.1c88.4,0,160,71.6,160,160
	S376.5,447.9,288.1,447.9z"/>
</svg>
