<svg xmlns="http://www.w3.org/2000/svg" xml:space="preserve" viewBox="0 0 512 512"><path d="M488.4 285c-13 0-23.6-10.6-23.6-23.6C464.8 144.3 369.5 49 252.4 49c-13 0-23.6-10.6-23.6-23.6s10.6-23.6 23.6-23.6C395.5 1.8 512 118.3 512 261.4c0 13.1-10.6 23.6-23.6 23.6m-5.9 49.2c3.7-12.5-3.4-25.6-15.9-29.3s-25.6 3.4-29.3 15.9C412.4 404.5 334.1 463 246.8 463c-110.1 0-199.6-89.6-199.6-199.6 0-13-10.6-23.6-23.6-23.6S0 250.3 0 263.3c0 136.1 110.7 246.8 246.8 246.8 108.1.1 205-72.3 235.7-175.9" style="fill:#a989e7"/><path d="M56.5 208.9c-1.7 0-3.5-.3-5.2-.8-9.1-2.9-14.1-12.6-11.3-21.6C71.7 86.3 163.9 19.1 269.6 19.1c9.5 0 17.2 7.7 17.2 17.2s-7.7 17.2-17.2 17.2C179.1 53.6 100 111.1 73 196.9c-2.4 7.3-9.2 12-16.5 12m214-36.4c0 34.1 27.6 61.7 61.7 61.7s61.7-27.6 61.7-61.7-27.6-61.7-61.7-61.7-61.7 27.6-61.7 61.7" style="fill:#ff7f93"/></svg>