<?xml version="1.0" encoding="utf-8"?>
<!-- Generator: Adobe Illustrator 28.2.0, SVG Export Plug-In . SVG Version: 6.00 Build 0)  -->
<svg version="1.1" id="Layer_1" xmlns="http://www.w3.org/2000/svg" xmlns:xlink="http://www.w3.org/1999/xlink" x="0px" y="0px"
	 viewBox="0 0 512 512" style="enable-background:new 0 0 512 512;" xml:space="preserve">
<style type="text/css">
	.st0{fill:#FFFFFF;}
</style>
<path class="st0" d="M231.4,117.8c-37.9,0-68.6,30.7-68.6,68.6c0,15.4,5.1,29.7,14.3,42c19.5-22.5,47.1-35.8,78.8-35.8
	c15.4,0,29.7,3.1,43,9.2c1-5.1,2-10.2,2-15.4C301.1,148.5,270.3,117.8,231.4,117.8L231.4,117.8z M142.3,149.5
	c-19.5,0-35.8,16.4-35.8,35.8c0,6.1,2,12.3,4.1,17.4c12.3-7.2,25.6-10.2,41-10.2c1,0,3.1,0,4.1,0c0-2,0-4.1,0-6.1
	c0-11.3,2-21.5,6.1-30.7C155.6,151.6,149.5,149.5,142.3,149.5L142.3,149.5z M311.3,174.1c-1,0-3.1,0-4.1,0c1,4.1,1,8.2,1,12.3
	c0,6.1-1,12.3-2,18.4c17.4,9.2,31.7,23.6,41,42c10.2-5.1,20.5-8.2,32.8-9.2C376.8,201.7,348.2,174.1,311.3,174.1L311.3,174.1z
	 M256,199.7c-53.2,0-96.3,43-96.3,96.3s43,96.3,96.3,96.3s96.3-43,96.3-96.3S309.2,199.7,256,199.7z M151.6,200.7
	c-41,0-74.8,33.8-74.8,74.8c0,24.6,11.3,46.1,29.7,59.4c7.2-14.3,22.5-24.6,39.9-24.6c2,0,4.1,0,6.1,1c-1-5.1-1-9.2-1-14.3
	c0-23.6,7.2-45.1,20.5-62.5c-8.2-9.2-13.3-21.5-15.4-33.8C154.6,200.7,152.6,200.7,151.6,200.7L151.6,200.7z M386,244.7
	c-12.3,0-24.6,3.1-34.8,8.2c6.1,13.3,9.2,27.6,9.2,43c0,28.7-11.3,54.3-29.7,73.7c13.3,15.4,33.8,24.6,55.3,24.6
	c41,0,74.8-33.8,74.8-74.8C460.8,278.5,427,244.7,386,244.7L386,244.7z M68.6,255C30.7,255,0,285.7,0,323.6s30.7,68.6,68.6,68.6
	c14.3,0,27.6-4.1,38.9-12.3c-4.1-7.2-7.2-15.4-7.2-24.6c0-5.1,1-9.2,2-13.3c-20.5-15.4-34.8-39.9-34.8-66.6c0-7.2,1-13.3,3.1-20.5
	C70.7,255,69.6,255,68.6,255L68.6,255z M474.1,314.4c-2,0-4.1,0-6.1,1c0,2,0,3.1,0,5.1c0,21.5-8.2,42-22.5,56.3
	c7.2,8.2,17.4,13.3,28.7,13.3c20.5,0,37.9-16.4,37.9-37.9S494.6,314.4,474.1,314.4L474.1,314.4z M146.4,317.4
	c-20.5,0-37.9,16.4-37.9,37.9s16.4,37.9,37.9,37.9c16.4,0,29.7-10.2,34.8-23.6c-13.3-13.3-23.6-30.7-27.6-50.2
	C151.6,318.5,148.5,317.4,146.4,317.4L146.4,317.4z"/>
</svg>
