<svg xmlns="http://www.w3.org/2000/svg" xml:space="preserve" viewBox="0 0 512 512"><path d="M174.4 154.3c0 26.6-21.2 48.2-47.4 48.2s-47.4-21.6-47.4-48.2 21.2-48.2 47.4-48.2 47.4 21.6 47.4 48.2M512 131v250.5c-.3 71-57.3 130.5-127 130.5h-86V.2h41.3l24.2-.2H385c69.9 0 127 59.8 127 131m-62.1 150.9c0-28.8-22.6-51.8-50.9-51.8s-50.9 23-50.9 51.8 22.6 51.8 50.9 51.8 50.9-23 50.9-51.8M147.5.2h98.2V512H127C57.1 512 0 452.2 0 381V130.5C.3 59.5 57.3 0 127 0h20.5zm0 42.1h-18.9v-.1c-65 6.6-84.7 45.9-87.2 99.5V371c2.7 53.6 22.8 92.8 88.6 98.9h74.4V42.3z" style="fill:#fff"/></svg>