<?xml version="1.0" encoding="utf-8"?>
<!-- Generator: Adobe Illustrator 28.2.0, SVG Export Plug-In . SVG Version: 6.00 Build 0)  -->
<svg version="1.1" id="Layer_1" xmlns="http://www.w3.org/2000/svg" xmlns:xlink="http://www.w3.org/1999/xlink" x="0px" y="0px"
	 viewBox="0 0 512 512" style="enable-background:new 0 0 512 512;" xml:space="preserve">
<style type="text/css">
	.st0{fill:#479386;}
	.st1{fill:#00D1B2;}
	.st2{fill:#FFFFFF;}
</style>
<path class="st0" d="M485,141.5h-99.2v335C501.8,408.2,545.1,262,485,141.5L485,141.5z M134.1,121.5v94.6h124v221.2H256
	c-100.2,0-181.4-81.3-181.3-181.6c0-48.1,19.1-94.2,53.1-128.1C129.7,125.5,131.9,123.5,134.1,121.5 M256,0C114.6,0,0,114.6,0,256
	s114.6,256,256,256c26,0,51.8-4,76.7-11.7V141.5h-124V96.8h247.8C408,35.5,334-0.1,256,0z"/>
<path class="st1" d="M74.7,255.7c0-48.1,19.1-94.2,53.1-128.1c1.9-2.1,4.1-4.1,6.3-6.1v94.6h124v221.2H256
	C155.8,437.3,74.6,356,74.7,255.7z M466.9,154.9h4.1c15.2,31.8,23.1,66.6,23,101.9c0,75.1-35.4,145.8-95.7,190.5v-4.7
	c32.3-24.7,57.6-57.4,73.6-94.8c24.5-58.1,24.5-123.7,0-181.9C470.4,162.2,468.6,158.6,466.9,154.9z M398.2,425.9v-4.8
	c4-3.5,8-7.1,11.7-10.8c19.8-19.8,35.6-43.3,46.5-69c22.7-54,22.7-114.9,0-168.8c-2.5-5.9-5.3-11.8-8.3-17.5h4.2
	c16.4,31.4,25,66.5,24.9,101.9C477.2,322.1,448.4,384,398.2,425.9z M398.4,403.4v-5.2c57.5-57.5,74.5-144.3,42.7-219.2
	c-3.6-8.2-7.6-16.3-12.2-24h4.3c17.9,30.9,27.2,66.1,27.2,101.9C460.4,312.2,438.1,365,398.4,403.4z M398.4,379v-5.8
	c43.2-52.5,53.7-124.8,27.2-187.6c-4.5-10.7-9.9-20.9-16.4-30.6h4.3C458.7,224.7,452.6,316,398.4,379z M398.3,351.2v-6.8
	c33.2-53.7,33.2-121.5,0-175.2v-6.8C436.3,219.6,436.3,294.2,398.3,351.2z"/>
<path class="st2" d="M456.4,96.8H208.7v44.7h124v358.8c18.8-5.8,36.7-13.9,53.2-23.7v-335H485C477.1,125.6,467.5,110.6,456.4,96.8z"
	/>
</svg>
