<svg xmlns="http://www.w3.org/2000/svg" xml:space="preserve" viewBox="0 0 512 512"><path d="M448.3 194.2C449.4 88 364.2 1.1 258 0h-.1C151.7-1 64.8 84.2 63.7 190.5c-.5 50.8 18.8 97.2 50.7 132l140 187.1c1.2 1.5 3 2.4 4.9 2.4 2-.1 3.8-1 4.9-2.6L405 313.9c26.7-32.6 42.9-74.2 43.3-119.7M256 43.7c81.8 0 148 66.2 148 148 0 73-52.7 133.5-122.1 145.7V233h51.4c1.7 0 3.2-.9 4-2.4.8-1.4.6-3.2-.3-4.5l-75.8-107.9c-.9-1.2-2.2-1.9-3.6-1.9-1.5 0-2.8.7-3.6 1.8L176.7 226c-.9 1.3-1 3-.3 4.5.8 1.5 2.3 2.4 3.9 2.4h51.6v104.8c-70.2-11.5-123.9-72.5-123.9-146 0-81.8 66.2-148 148-148" style="fill:#4d73b4"/></svg>