<?xml version="1.0" encoding="utf-8"?>
<!-- Generator: Adobe Illustrator 28.2.0, SVG Export Plug-In . SVG Version: 6.00 Build 0)  -->
<svg version="1.1"
	 id="svg12" xmlns:svg="http://www.w3.org/2000/svg" xmlns:sodipodi="http://sodipodi.sourceforge.net/DTD/sodipodi-0.dtd" xmlns:inkscape="http://www.inkscape.org/namespaces/inkscape"
	 xmlns="http://www.w3.org/2000/svg" xmlns:xlink="http://www.w3.org/1999/xlink" x="0px" y="0px" viewBox="0 0 512 512"
	 style="enable-background:new 0 0 512 512;" xml:space="preserve">
<style type="text/css">
	.st0{fill-rule:evenodd;clip-rule:evenodd;fill:#FFFFFF;}
</style>
<path class="st0" d="M502.4,299.3l-20.1-17.6v-5l20.1-12.5c5-2.5,5-7.5,2.5-15h-0.4l-22.6-12.5v-5l17.6-17.6c2.5-2.5,2.5-7.5,0-10
	l-2.5-2.5l-22.6-7.5c0-2.5,0-5-2.5-5L487,169c2.5-2.5,2.5-7.5-2.5-10c0,0-2.6,0-2.6-2.5l-25.1-5c0-2.5-2.5-2.5-2.5-5l10-22.6v-7.5
	c-2.5-2.5-5-2.5-7.5-2.5h-25.1c0,0,0-2.5-2.5-2.5l5-25.1c0-5-2.5-7.5-5-7.5H427l-25.1,5c0-2.5-2.5-2.5-5-5V53.6c0-5-2.5-7.5-7.5-7.5
	h-2.6l-22.6,10h-2.6l-5-25.1c0-5-5-7.5-7.5-5h-2.5l-20.1,15c-2.5,0-5,0-5-2.5L314.2,16c-2.5-2.5-5-5-10-5c0,0-2.5,0-2.5,2.5
	L281.6,31h-5l-12.5-20c-2.5-5-7.5-5-12.5-5l-2.5,2.5L236.5,31h-5l-17.6-17.6c-2.5-2.5-7.5-2.5-10,0l-2.5,2.5L194,38.6
	c-2.5,0-5,0-5,2.5l-20.1-15c-5-2.5-10-2.5-12.5,2.5V31l-5,25.1c0,0-2.5,0-5,2.5l-22.6-10c-2.5-2.5-7.5,0-10,2.5v27.6
	c0,2.5-2.5,2.5-2.5,5l-25.1-5c-5-2.5-7.5,0-7.5,5v2.5l5,25.1c-2.5,0-2.5,2.5-5,2.5H53.6c-5,0-7.5,2.5-7.5,7.5v2.5l10,22.6v5l-25.1,5
	c-5,0-7.5,5-7.5,7.5v2.5l15,20.1c0,2.5,0,5-2.5,5l-20.1,10c-2.5,2.5-5,5-5,10c0,0,0,2.5,2.5,2.5L31,231.6v5l-20,12.6
	c-5,2.5-5,7.5-5,10l2.5,2.5l22.6,15v5l-17.6,17.6c-2.5,2.5-2.5,7.5,0,10l2.5,2.5l22.6,7.5c0,2.5,0,5,2.5,5L26,344.4
	c-2.5,2.5-2.5,7.5,2.5,10c0,0,2.5,0,2.5,2.5l25.1,5c0,2.5,2.5,2.5,2.5,5l-10,22.6c-2.5,2.5,0,7.5,2.5,10h27.6c2.5,0,2.5,2.5,5,2.5
	l-5,25.1c0,5,2.5,7.5,5,7.5h2.5l25.1-5c0,2.5,2.5,2.5,5,5v25.1c0,5,2.5,7.5,7.5,7.5h2.6l22.6-10h2.5l5,25.1c0,5,5,7.5,7.5,5h2.5
	l20.1-15c2.5,0,5,0,5,2.5l7.5,22.6c2.5,2.5,5,5,10,5c0,0,2.5,0,2.5-2.5l20.1-17.6h5l12.5,20.1c2.5,2.5,7.5,5,10,2.5l2.5-2.5
	l12.5-20.1h5l17.6,17.6c2.5,2.5,7.5,2.5,10,0l2.5-2.5l7.5-22.6c2.5,0,5,0,5-2.5l20.1,15c2.5,2.5,7.5,2.5,10-2.5c0,0,0-2.5,2.5-2.5
	l5-25.1c2.5,0,2.5-2.5,5-2.5l22.6,10c2.6,2.5,7.5,0,10-2.5v-27.6l5-5l25.1,5c5,0,7.5-2.5,7.5-5v-2.5l-5-25.1l5-5h25.1
	c5,0,7.5-2.5,7.5-7.5V387l-10-22.6c0-2.5,2.5-2.5,2.5-5l25.1-5c5,0,7.5-5,5-7.5v-2.5l-15-20.1l2.5-5l22.6-7.5c2.5-2.5,5-5,5-10
	C504.9,301.8,504.9,299.3,502.4,299.3z M256,443.2c-103.4,0-187.2-83.8-187.2-187.2S152.6,68.8,256,68.8S443.2,152.6,443.2,256
	S359.4,443.2,256,443.2z"/>
<path class="st0" d="M256,73.5C155.2,73.5,73.5,155.2,73.5,256S155.2,438.5,256,438.5S438.5,356.8,438.5,256S356.8,73.5,256,73.5z
	 M280.3,215.1c0-1.5,1.6-2.6,2.7-2.6h28.8c1.5,0,2.6,1.3,2.6,2.6V241c0,1.5-1.2,2.6-2.6,2.6H283c-1.6,0-2.6-1.2-2.7-2.6V215.1z
	 M240.1,141.5c0-1.8,1.5-2.8,2.6-2.8h29c1.6,0,2.6,1.2,2.6,2.8V167c0,1.5-1.5,2.6-2.6,2.6h-29c-1.5,0-2.5-1.3-2.6-2.6V141.5z
	 M240.1,178.3c0-1.6,1.5-2.6,2.6-2.6h29c1.6,0,2.6,1.1,2.6,2.6V204c0,1.4-1.5,2.9-2.6,2.9h-29c-1.5,0-2.5-1.5-2.6-2.9V178.3z
	 M240.1,215.1c0-1.5,1.5-2.6,2.6-2.6h29c1.6,0,2.6,1.3,2.6,2.6V241c0,1.5-1.5,2.6-2.6,2.6h-29c-1.5,0-2.5-1.2-2.6-2.6V215.1z
	 M200.2,178.3c0-1.6,1.5-2.6,2.6-2.6h28.7c2,0,3,1.1,3,2.6V204c0,1.4-1.5,2.9-3,2.9h-28.7c-1.8,0-2.6-1.5-2.6-2.9V178.3z
	 M200.2,215.1c0-1.5,1.5-2.6,2.6-2.6h28.7c2,0,3,1.3,3,2.6V241c0,1.5-1.5,2.6-3,2.6h-28.7c-1.8,0-2.6-1.2-2.6-2.6V215.1z
	 M159.4,178.3c0-1.6,1.7-2.6,3-2.6h28.8c1.6,0,2.7,1.1,2.7,2.6V204c0,1.4-1.6,2.9-2.7,2.9h-28.8c-1.9,0-3-1.5-3-2.9V178.3z
	 M159.4,215.1c0-1.5,1.7-2.6,3-2.6h28.7c1.8,0,2.9,1.3,2.9,2.6V241c0,1.5-1.7,2.6-2.9,2.6h-28.8c-1.8,0-2.9-1.2-2.9-2.6V215.1z
	 M119.9,215.1c0-1.5,1.2-2.6,2.6-2.6h28.8c1.9,0,3,1.3,3,2.6V241c0,1.5-1.8,2.6-3,2.6h-28.8c-1.6,0-2.7-1.2-2.6-2.6V215.1z
	 M408.9,247.8c-6.4,6.4-18,13.9-36.7,13.9H369c-7.4,18.9-17.5,40.6-34.7,59.8c-10.1,11.8-22.1,21.6-35.5,29.3
	c-16.3,9.3-34,15.7-52.3,19c-13.2,2.5-26.6,3.6-39.6,3.6c-29.9,0-56.3-5.6-72.3-15.4c-14.2-8.8-25.4-23.2-32.7-42.7
	c-6.4-17.6-9.5-36.5-9.5-55.3c0-5.7,4.4-10.3,10.1-10.3h215.6c2.8,0,15.9-1.1,23.9-5.7c-6.6-10.7-8.8-23.1-5.5-36.2
	c1.4-6.9,4.8-13.6,8.4-19.5l3.1-4.4l4.6,2.8c0.8,0.5,20,12.1,23.4,35c4.5-0.8,9.2-1.3,13.7-1.3c17.7,0,25.9,6.3,26.9,7l3.1,2.3
	l-1.2,3.9C416.2,239.1,413,243.9,408.9,247.8z"/>
</svg>
