<?xml version="1.0" encoding="utf-8"?>
<!-- Generator: Adobe Illustrator 28.2.0, SVG Export Plug-In . SVG Version: 6.00 Build 0)  -->
<svg version="1.1"
	 id="svg12" xmlns:svg="http://www.w3.org/2000/svg" xmlns:sodipodi="http://sodipodi.sourceforge.net/DTD/sodipodi-0.dtd" xmlns:inkscape="http://www.inkscape.org/namespaces/inkscape"
	 xmlns="http://www.w3.org/2000/svg" xmlns:xlink="http://www.w3.org/1999/xlink" x="0px" y="0px" viewBox="0 0 512 512"
	 style="enable-background:new 0 0 512 512;" xml:space="preserve">
<style type="text/css">
	.st0{fill-rule:evenodd;clip-rule:evenodd;}
	.st1{fill-rule:evenodd;clip-rule:evenodd;fill:#5555FF;}
	.st2{fill-rule:evenodd;clip-rule:evenodd;fill:#FFFFFF;}
</style>
<path class="st0" d="M507.8,300.3l-20.6-18v-5.1l20.6-12.8c5.1-2.6,5.1-7.7,2.6-15.3h-0.4l-23.1-12.8v-5.1l18-18
	c2.6-2.6,2.6-7.7,0-10.2l-2.6-2.6l-23.1-7.7c0-2.6,0-5.1-2.6-5.1L492,167c2.6-2.6,2.6-7.7-2.6-10.2c0,0-2.7,0-2.7-2.6l-25.7-5.1
	c0-2.6-2.6-2.6-2.6-5.1l10.2-23.1v-7.7c-2.6-2.6-5.1-2.6-7.7-2.6h-25.7c0,0,0-2.6-2.6-2.6l5.1-25.7c0-5.1-2.6-7.7-5.1-7.7h-2.3
	L405,79.9c0-2.6-2.6-2.6-5.1-5.1V49c0-5.1-2.6-7.7-7.7-7.7h-2.7l-23.1,10.2h-2.7l-5.1-25.7c0-5.1-5.1-7.7-7.7-5.1h-2.6l-20.6,15.3
	c-2.6,0-5.1,0-5.1-2.6l-7.5-23c-2.6-2.6-5.1-5.1-10.2-5.1c0,0-2.6,0-2.6,2.6l-20.6,17.9h-5.1L264,5.4c-2.6-5.1-7.7-5.1-12.8-5.1
	l-2.6,2.6l-12.9,23h-5.1l-18-18c-2.6-2.6-7.7-2.6-10.2,0l-2.6,2.6l-7.6,23.2c-2.6,0-5.1,0-5.1,2.6l-20.6-15.3
	c-5.1-2.6-10.2-2.6-12.8,2.6v2.5l-5.1,25.7c0,0-2.6,0-5.1,2.6l-23.1-10.2c-2.6-2.6-7.7,0-10.2,2.6v28.2c0,2.6-2.6,2.6-2.6,5.1
	L82,74.7c-5.1-2.6-7.7,0-7.7,5.1v2.6l5.1,25.7c-2.6,0-2.6,2.6-5.1,2.6H48.7c-5.1,0-7.7,2.6-7.7,7.7v2.6l10.2,23.1v5.1l-25.7,5.1
	c-5.1,0-7.7,5.1-7.7,7.7v2.6l15.3,20.6c0,2.6,0,5.1-2.6,5.1l-20.6,10.2c-2.6,2.6-5.1,5.1-5.1,10.2c0,0,0,2.6,2.6,2.6l18,18v5.1
	L5.1,249.1C0,251.6,0,256.7,0,259.3l2.6,2.6l23.1,15.3v5.1l-18,18c-2.6,2.6-2.6,7.7,0,10.2l2.6,2.6l23.1,7.7c0,2.6,0,5.1,2.6,5.1
	l-15.4,20.6c-2.6,2.6-2.6,7.7,2.6,10.2c0,0,2.6,0,2.6,2.6l25.7,5.1c0,2.6,2.6,2.6,2.6,5.1l-10.2,23.1c-2.6,2.6,0,7.7,2.6,10.2h28.2
	c2.6,0,2.6,2.6,5.1,2.6L74.4,431c0,5.1,2.6,7.7,5.1,7.7H82l25.7-5.1c0,2.6,2.6,2.6,5.1,5.1v25.7c0,5.1,2.6,7.7,7.7,7.7h2.7
	l23.1-10.2h2.6l5.1,25.7c0,5.1,5.1,7.7,7.7,5.1h2.6l20.6-15.3c2.6,0,5.1,0,5.1,2.6l7.7,23.1c2.6,2.6,5.1,5.1,10.2,5.1
	c0,0,2.6,0,2.6-2.6l20.6-18h5.1l12.8,20.6c2.6,2.6,7.7,5.1,10.2,2.6l2.6-2.6l12.8-20.6h5.1l18,18c2.6,2.6,7.7,2.6,10.2,0l2.6-2.6
	l7.7-23.1c2.6,0,5.1,0,5.1-2.6l20.6,15.3c2.6,2.6,7.7,2.6,10.2-2.6c0,0,0-2.6,2.6-2.6l5.1-25.7c2.6,0,2.6-2.6,5.1-2.6l23.1,10.2
	c2.7,2.6,7.7,0,10.2-2.6v-28.2l5.1-5.1l25.7,5.1c5.1,0,7.7-2.6,7.7-5.1V431l-5.1-25.7l5.1-5.1h25.7c5.1,0,7.7-2.6,7.7-7.7V390
	l-10.2-23.1c0-2.6,2.6-2.6,2.6-5.1l25.7-5.1c5.1,0,7.7-5.1,5.1-7.7v-2.6l-15.3-20.6l2.6-5.1l23.1-7.7c2.6-2.6,5.1-5.1,5.1-10.2
	C510.3,302.9,510.3,300.3,507.8,300.3z"/>
<circle id="path91-3-3_00000155840056034016205260000015821188192863989680_" class="st1" cx="255.7" cy="256" r="186.7"/>
<path class="st2" d="M255.7,64.5C150,64.5,64.2,150.3,64.2,256S150,447.5,255.7,447.5S447.2,361.8,447.2,256S361.5,64.5,255.7,64.5z
	 M255.7,442.7C152.6,442.7,69,359.1,69,256S152.6,69.4,255.7,69.4S442.4,152.9,442.4,256S358.8,442.7,255.7,442.7z M420,226.8
	c-1-0.7-9.4-7.2-27.5-7.2c-4.6,0-9.4,0.5-14,1.3c-3.5-23.4-23.1-35.3-23.9-35.8l-4.7-2.9l-3.2,4.5c-3.7,6-7.2,12.9-8.6,19.9
	c-3.4,13.4-1.1,26.1,5.6,37c-8.2,4.7-21.6,5.8-24.4,5.8H98.7c-5.8,0-10.3,4.7-10.3,10.5c0,19.2,3.2,38.6,9.7,56.6
	c7.5,19.9,18.9,34.7,33.4,43.7c16.4,10,43.4,15.8,74,15.8c13.3,0,27-1.1,40.5-3.7c18.7-3.4,36.8-9.9,53.5-19.4
	c13.7-7.9,26-17.9,36.3-30c17.6-19.6,27.9-41.8,35.5-61.2h3.3c19.1,0,31-7.7,37.5-14.2c4.2-4,7.5-8.9,9.8-14.5l1.2-4L420,226.8
	 M119.2,243.3h29.5c1.2,0,3.1-1.1,3.1-2.7v-26.5c0-1.3-1.1-2.7-3.1-2.7h-29.5c-1.4,0-2.7,1.1-2.7,2.7v26.5
	C116.4,242.1,117.5,243.3,119.2,243.3 M159.9,243.3h29.5c1.2,0,3-1.1,3-2.7v-26.5c0-1.3-1.1-2.7-3-2.7H160c-1.3,0-3.1,1.1-3.1,2.7
	v26.5C156.9,242.1,158,243.3,159.9,243.3 M201.3,243.3h29.4c1.5,0,3.1-1.1,3.1-2.7v-26.5c0-1.3-1-2.7-3.1-2.7h-29.4
	c-1.1,0-2.7,1.1-2.7,2.7v26.5C198.6,242.1,199.5,243.3,201.3,243.3 M242.1,243.3h29.7c1.1,0,2.7-1.1,2.7-2.7v-26.5
	c0-1.3-1-2.7-2.7-2.7h-29.7c-1.1,0-2.7,1.1-2.7,2.7v26.5C239.6,242.1,240.6,243.3,242.1,243.3 M160,205.8h29.5c1.1,0,2.8-1.5,2.8-3
	v-26.3c0-1.5-1.1-2.7-2.8-2.7H160c-1.3,0-3.1,1-3.1,2.7v26.3C156.9,204.3,158,205.8,160,205.8 M201.3,205.8h29.4
	c1.5,0,3.1-1.5,3.1-3v-26.3c0-1.5-1-2.7-3.1-2.7h-29.4c-1.1,0-2.7,1-2.7,2.7v26.3C198.6,204.3,199.5,205.8,201.3,205.8 M242.1,205.8
	h29.7c1.1,0,2.7-1.5,2.7-3v-26.3c0-1.5-1-2.7-2.7-2.7h-29.7c-1.1,0-2.7,1-2.7,2.7v26.3C239.6,204.3,240.6,205.8,242.1,205.8
	 M242.1,167.7h29.7c1.1,0,2.7-1.1,2.7-2.7v-26.1c0-1.6-1-2.9-2.7-2.9h-29.7c-1.1,0-2.7,1-2.7,2.9V165
	C239.6,166.3,240.6,167.7,242.1,167.7 M283.3,243.3h29.5c1.4,0,2.7-1.1,2.7-2.7v-26.5c0-1.3-1.1-2.7-2.7-2.7h-29.5
	c-1.1,0-2.8,1.1-2.8,2.7v26.5C280.7,242.1,281.7,243.3,283.3,243.3"/>
</svg>
