<svg xmlns="http://www.w3.org/2000/svg" xml:space="preserve" viewBox="0 0 512 512"><path d="M314.3 484.8c-.9-3.7-4.1-6.9-6.9-6.9-5.7 0-14.7-8.3-14.7-13.3 0-2.1-1.4-3.7-3.4-3.7-1.6 0-3.4-5.5-3.4-11.9 0-11.2.7-11.9 11.9-11.9 7.6 0 11.9 1.6 11.9 4.4 0 2.3 3 6.4 6.9 9.2 3.7 2.8 6.9 6.9 6.9 9.2s1.6 4.4 3.4 4.4c2.1 0 3.4 6.2 3.4 13.5 0 11.5-.9 13.5-7.1 13.5-4.3.3-8-2.4-8.9-6.5m-25-80c0-11.2.7-11.9 11.9-11.9s11.9.7 11.9 11.9-.7 11.9-11.9 11.9-11.9-.7-11.9-11.9m34.2-124c0-11.5 4.8-13.3 9.9-4.1 2.3 4.8 1.6 7.1-3.4 10.3-5.8 3.6-6.5 2.9-6.5-6.2M38.1 137.1c.9-10.3 2.1-11.2 14-12.1 15.6-1.4 17.4 6.9 2.3 12.8-5.5 2.3-10.3 5.5-10.3 7.1s-1.6 3-3.7 3c-2.1-.1-3-4.6-2.3-10.8M194 51.8c0-14.2 5-19.5 19.5-19.5 10.5 0 11.2.7 11.2 11.2 0 6.2-1.6 12.8-4.1 15.4-2.3 2.3-9.2 4.1-15.4 4.1-10.5 0-11.2-.7-11.2-11.2" style="fill:#040902"/><path d="M299.6 474.2c-6.4-5.7-17.6-12.8-24.5-15.6-11.5-4.4-12.8-6.4-12.8-16.7v-11.5h23.4c22.7 0 23.4.2 25.2 9.6.9 5 5 10.5 9.9 12.6 5.5 2.3 8.3 6.9 8.9 14.9.9 8.5 0 10.5-3.4 8.5-3.4-2.1-3.4-1.4.2 3 4.1 5 3.4 5.7-5 5.7-6.3.1-14.5-4.1-21.9-10.5m-16-65.3c-14.2-14.2-18.1-20.2-18.1-28.9 0-10.3.9-10.8 11.2-10.8 15.6 0 46.5 31.4 46.5 47.2 0 9.6-.9 10.5-11 10.5-8.4.1-14.6-3.6-28.6-18m18.3-69.7c-9.2-9.6-12.6-15.6-12.6-23.8 0-10.3.7-10.8 11.7-10.8 9.2 0 14 2.8 23.8 13.5 6.9 7.6 12.1 15.6 12.1 18.3.1 20.2-16.9 21.2-35 2.8m-3-52.5c-11.9-3-12.8-4.4-12.8-14.9 0-11.2.2-11.5 13.3-11.5 18.1 0 30 4.8 32.8 13.5 4.6 15-7.8 19.8-33.3 12.9m-44.7-171.6c-1.4-.9-2.3-7.6-2.3-13.5 0-11.2.2-11.5 12.8-10.5 11.9.9 12.6 1.6 13.5 14 .9 12.1.7 12.6-10.5 12.6-5.9-.3-12.3-1.3-13.5-2.6" style="fill:#0f0e0a"/><path d="M282.7 455.9c0-6.4 1.4-7.8 6.2-6.2s4.4.9-.9-3.4c-6.9-5.5-6.9-5.5.9-5.7 4.8 0 7.6 2.1 7.6 5.7 0 3 2.3 8.5 5.7 11.9 5 5.7 4.8 6.2-6.9 6.2-11.5 0-12.6-.9-12.6-8.5m19.2-.7c-3.7-3.4-2.8-14.7.9-14.7 2.1 0 3.4 3.7 3.4 8.5.3 9-.4 9.9-4.3 6.2m-19.2-182.9c0-11.2.7-11.9 11.9-11.9 12.6 0 17 8.5 6.2 11.2-5.7 1.4-5.7 1.6 0 2.1 3 0 5.7 2.8 5.7 5.5 0 3.4-3.7 5-11.9 5-11.2 0-11.9-.7-11.9-11.9m-17.9-71.5c.9-14.2.2-22-2.1-22-2.1 0-4.1 2.1-5 4.4-2.3 6.2-12.1-7.6-12.6-17 0-5.7 1.4-7.1 5.7-5.5 4.1 1.6 5 .7 3.4-3.4-1.6-4.4-.2-5.7 6.2-5.7 7.1 0 8.5-1.6 8.5-10.3 0-9.2.9-10.3 10.3-10.3 12.6 0 27.3 12.1 27.3 22.7 0 4.4-1.4 7.8-3.4 7.8-1.6 0-3.4 3.7-3.4 7.8 0 5.5-3 9.6-8.5 11.9-6.4 3-8.5 6.4-8.5 14.9 0 19-3.4 26.6-11.9 26.6-7.6.1-7.6-.8-6-21.9m-16.3-102c0-11.2.7-11.9 11.9-11.9s11.9.7 11.9 11.9-.7 11.9-11.9 11.9-11.9-.7-11.9-11.9" style="fill:#1d0c02"/><path d="M37.4 137.1c0-11.9 14.2-30 23.8-30 3 0 8.9-3 12.8-6.9 4.1-3.7 11.9-6.9 17.6-6.9 9.2 0 10.3.9 10.3 10.3 0 5.5-2.8 13.3-5.7 17-7.1 8.3-18.8 9.6-16 1.6 1.4-2.8.2-5-1.4-5-2.1 0-4.4 3-5.7 6.4-1.6 6.2-11.2 11.5-19.7 12.1-1.6 0-4.8 2.8-7.1 6.2-6.4 8.9-8.9 7.5-8.9-4.8m146.5-70.6c0-15.4 5.7-23.8 15.4-23.8 6.2 0 8.5-1.6 8.5-6.9 0-5.5 2.3-6.9 11.9-6.9 11.2 0 11.9.7 11.9 11.9 0 10.3-.9 11.9-7.8 11.9-5.7 0-8.5 2.8-11 11.2-3 9.6-5 10.8-16 11.9-12.2 1.2-12.9.8-12.9-9.3" style="fill:#142407"/><path d="M303.1 474.7c0-5-2.3-6.9-8.5-6.9-6.9 0-8.5-1.6-8.5-8.5 0-4.8 1.4-8.5 3-8.5 3 0 37.8 26.8 37.8 29.3 0 .7-5.5 1.4-11.9 1.4-9.6-.2-11.9-1.5-11.9-6.8m9.4-11.2c-6.9-6.2-12.8-14-14-17.6-1.4-5.5-1.6-5.5-2.1-.9-.7 10.3-10.5 2.8-10.5-7.8 0-8.3 1.4-9.9 7.8-9.9 7.1 0 7.8-1.4 6.4-10.8l-1.6-11.2 8.3 6.9 8.3 6.9-8.3-9.6-8.3-9.2h11.9c15.6 0 26.6 11.5 26.6 28.2 0 6.9-1.4 12.6-3.4 12.6-1.6 0-3.4 2.3-3.4 5 0 6.9-6.4 6.4-14.2-.7-5.7-5-6.2-5-6.2 3.4 0 7.6 1.6 9.2 8.5 9.2s8.5 1.6 8.5 8.5c0 4.8-.2 8.5-.7 8.5-.6-.8-6.5-5.6-13.6-11.5m-53.7-21.1c0-11.2.7-11.9 11.9-11.9s11.5.2 11.2 11.9c-.2 11.2-.9 11.9-11.9 11.9-10.5 0-11.2-.7-11.2-11.9m6-56.9c-2.3-14.7.7-20.2 10.3-19 7.6.7 9.6 3 10.3 10.8.9 9.6.7 9.9-5 5.5-5.5-4.4-5.5-4.4.2 2.8l6.4 7.6h-10.3c-8-.3-10.8-1.9-11.9-7.7m52.5-40.8c.7-9.6 2.8-11.5 10.5-12.1 9.6-.9 11 1.4 7.1 15.6-1.4 5-4.8 7.6-10.5 7.6-7.1-.3-8-1.7-7.1-11.1m-44.9-24.5c0-2.8-1.6-5.5-3.7-6.2-6.4-2.1.9-12.8 9.2-12.8 7.1 0 8.3 1.6 8.3 11.9 0 9.6-1.4 11.9-6.9 11.9-4 0-6.9-2-6.9-4.8m44.2-16.7c0-2.8-3-8.3-6.9-12.6-5.5-6.4-9.9-7.8-23.4-7.1-16.3.2-17 0-19-10.3-1.4-5.7-1.4-18.8 0-28.9 1.4-12.1.9-18.3-1.4-18.3-2.1 0-3.7-3-3.7-6.9 0-3.7 1.6-6.9 3.7-6.9s3-3 2.1-6.9c-.9-3.7-.2-6.2 1.4-4.8 1.6.9 3-1.4 3-5 0-4.1 1.6-7.1 3.4-7.1 2.1 0 3.4 3.7 3.4 8.5 0 6.9 1.6 8.5 8.5 8.5 9.6 0 9.6 0 5-11.5-2.3-6.4-5.7-8.9-11.9-8.9-9.9 0-11.5-8.3-2.8-13.5 5-2.8 4.4-3-3-1.4-14.9 3.4-11.9-6.2 5-14.9 18.3-9.6 29.6-9.9 29.6-.7 0 3.7-2.3 6.9-5 6.9-7.8 0-6.2 8.3 6.4 33.7 7.8 15.4 10.5 24.5 8.5 26.6-2.1 2.1-2.1 8.5 0 17.4 2.8 13.5 2.8 14.2-4.8 14.2-5.7 0-8.3-2.3-9.6-10.3-2.3-11.5-11-13.5-18.1-4.1-10.5 13.5-1.6 21.1 24.5 21.1 4.4 0 8.3 1.6 8.3 3.4 0 2.1 2.1 3.4 4.8 3.4 6.2 0 10.3 11.9 6.9 17.6-1.6 2.3-2.3 8.5-1.6 13.5.7 7.8-.7 9.6-6.2 9.6-4.1 0-7.1-1.8-7.1-4.3m1.6-28c-7.6-2.8-16.7-4.4-20.4-4.4s0 2.1 8.5 4.4c20.1 6 29.8 6 11.9 0" style="fill:#20190d"/><path d="M399.3 128.6c-2.3-.9-4.4-6.2-4.4-11.5 0-9.9.7-10.3 12.8-9.2 11.2.9 12.6 2.1 13.5 10.8.9 8.9.2 9.6-7.1 7.6-4.8-.9-9.2-.7-9.9.9-.5 1.4-2.8 2.1-4.9 1.4m-317.6-9.9c3.4-8.9 4.8-8.9-17 2.1-6.2 3-6.9 2.3-6.9-6.4 0-18.3 2.8-20.9 22.5-20.9h18.3v13.3c0 11.5-1.4 13.5-9.9 16.7-9.8 3.5-10 3.5-7-4.8m177.8-8.7c.9-9.9 2.3-11.2 12.1-12.1 10.5-.9 11-.7 11 10.8 0 11.9-.2 12.1-12.1 12.1-11.7 0-12.1-.2-11-10.8M196 94c-7.6-7.8-11.9-9.9-18.1-8.5-7.1 2.1-7.8.9-7.8-9.9 0-9.2 2.3-14 10.5-20.9 5.7-4.8 13.3-8.9 17-8.9 4.4 0 6.4-2.3 6.4-8.3 0-8.9 5.5-12.1 20.9-12.1 9.2 0 9.9.9 9.9 11.9 0 10.5-.9 12.1-10.3 14.2-7.8 1.4-10.3 3.7-10.3 9.9 0 4.4-1.4 8.3-3 8.3-2.1 0-3.7 7.8-4.4 17.4l-.9 17zm11.7-42.9c8.3-9.9 8.3-9.9.7-3.4-4.4 3.7-9.6 9.9-11.5 13.5-3.9 7.3-2.9 6.2 10.8-10.1m37.4-40.6c0-4.4 9.6-8.9 19.7-8.9 2.1 0 4.1 3 4.1 6.9 0 5.5-2.3 6.9-11.9 6.9-7.8 0-11.9-1.6-11.9-4.9" style="fill:#1b3404"/><path d="M292.8 464.4c0-8.9.9-9.9 6.2-7.1 3 1.6 8.9 6.4 12.1 10.3 6.4 7.1 6.4 7.1-5.7 7.1-11.5 0-12.6-.7-12.6-10.3m13.2-6.9-8.3-6.4 9.6-.2c6.9 0 9.2 1.6 9.2 6.9.1 8.4-.6 8.4-10.5-.3m-32.7-139.8c1.4-5.5.7-6.4-3.4-5-3.7 1.6-4.8.7-3-3.4.9-2.8 2.1-12.8 2.1-22.5 0-15.4.7-17 6.9-15.4 3.7.9 7.8.2 8.9-1.4s-2.1-3-6.9-3c-8.5 0-8.5-.7-6.9-16 1.4-9.2 3.7-17.6 5-19.7 5.5-5.5 3.4-9.2-3.7-6.9-8.3 2.3-14-7.6-6.9-11.9 2.3-1.4 5-10.5 6.2-19.7 1.4-15.6 2.8-17.6 11.7-20.9 12.8-4.8 15.4-3 20.2 13.3 2.3 7.6 4.8 12.8 5.7 11.9s4.8 3 8.3 8.9c5.5 8.5 5.7 11.5 2.1 15.6-2.3 3-3.7 9.2-3.4 13.5.9 7.8.2 8.3-11.9 7.1-11-.7-12.8 0-14 5.7-.9 7.8 12.1 15.4 27.3 15.4 6.2 0 10.5 2.3 13.3 7.1 3.4 6.9 3 7.1-5.7 5-5.5-.9-15.4-2.8-21.8-3.7-9.9-1.4-9.2-.9 4.4 3.4 18.8 6.2 22.2 15.4 5.5 15.4-5.7 0-13.5-1.6-17.4-3.7-5.5-3-7.8-2.8-9.9.7-5.7 9.2-3 13.3 8.9 13.3 10.5 0 11.9.9 11.9 8.9 0 5.7-1.4 7.8-4.1 6.2-3-1.6-3-.7.2 3 4.1 5.5 3 5.7-13.3 5.7-16.6.4-17.9-.3-16.3-6.9m36.2-100.2c.7-.7-3.4-1.4-9.2-1.4-5.7 0-11.7 1.4-12.6 3.4-1.8 3.1 18.1 1 21.8-2M252 175.3c0-11.2 4.8-13.3 9.6-4.4 2.3 3.7 2.1 7.1-.9 10.3-7.1 6.3-8.7 5.4-8.7-5.9m8.7-9.8c-5.7-6.4-5.7-6.4 2.1-7.8 6.2-.7 8.3-3.4 8.9-11.9.9-9.9 2.3-11.2 11.7-11.2 11 0 22.9 10.8 23.1 21.3 0 7.8-3 7.6-13.3-1.6l-8.9-7.8 7.8 8.9c4.1 4.8 7.6 9.2 7.6 10.3 0 .7-3.4 1.4-7.6 1.6-4.4 0-11.5 1.4-16.3 2.8-6.4 1.3-10.3.4-15.1-4.6" style="fill:#2e1e08"/><path d="M23.9 167.8c0-3 1.6-6.9 3.7-7.8 5.7-3.7 6.9 0 1.4 7.1-4.4 5.7-4.9 5.7-5.1.7M420.4 130c-3.7-2.3-8.5-6.4-11-9.2-4.1-4.4-4.4-4.4-3.7 0 .7 2.8-2.1 5.5-6.4 6.2-6.9.9-7.8-.2-7.8-10.8 0-11.5.7-12.1 11.9-12.1 8.3 0 11.9 1.6 11.9 5 0 2.8 3 5 6.9 5 5.5 0 6.9 2.3 6.9 10.3 0 5.7-.2 10.3-.7 9.9-.9-.2-4.3-2.3-8-4.3M86.9 110.9l6.4-7.6-9.9.9c-5.7.7-11.2 2.8-12.6 4.4-1.4 2.1-2.8-.7-2.8-5.5 0-7.6 2.1-9.6 10.5-11.2 23.1-4.4 26.8-3 26.8 9.9 0 7.1-1.6 11.9-4.1 11.9-2.3 0-8.3.9-12.8 2.3l-8.4 2zm116.2-9.8c-3.4-3.4-5.7-8.3-5.7-10.5s-1.4-3.4-3-2.1c-1.6.9-4.1.2-5.5-1.6-.9-1.6-3.7-3.4-5.5-3.4-2.1 0 0 5 4.1 11.2 4.1 5.7 5.5 8.9 3 6.9-2.8-2.3-11-4.4-18.1-4.4h-13.3l2.3-22.7c1.4-12.8 3.7-23.4 5.5-24.1 1.6-.7 3-8.9 3-18.1 0-12.6 1.4-16.7 5-16.7 2.8 0 5-1.6 5-3.7s8.3-3 21.5-2.8c11.5.2 28.2-.2 37.4-2.1 14.7-2.3 16-2.1 16 4.1 0 5-3.7 7.1-19.7 10.5-11 2.3-24.8 4.1-30.7 4.1-8.5 0-11 1.4-11 6.9 0 3.7 2.3 6.9 5 6.9 2.8 0 5-1.4 5-3.4 0-1.6 5.5-3.4 11.9-3.4 11.2 0 11.9.7 11.9 11.9 0 8.3-1.6 11.9-5 11.9-2.8 0-5 2.3-5 5s-2.3 5-5 5c-4.8 0-5 3.4-3 20.4 1.4 11.2 1.4 20.4.7 20.4-.6 0-3.6-2.8-6.8-6.2m-5.7-33.3c0-2.8 6.2-10.8 14-18.8 7.6-7.6 11-12.1 7.6-10.5-3.4 2.1-13.5 11.2-22.5 20.4-14.9 15.4-15.6 16.7-7.8 15.4 4.6-1.2 8.7-4.2 8.7-6.5m126.1-6.4c0-11.5.2-11.9 13.5-11.9s13.5.2 13.5 11.9c0 11.5-.2 11.9-13.5 11.9-13.3-.2-13.5-.4-13.5-11.9M262 9.9c0-7.1.9-8.5 6.2-6.4 3 1.4 8.5 3.4 11.9 4.1 11 3.4 6.4 11.2-6.2 11.2-10.5 0-11.9-.9-11.9-8.9" style="fill:#1e4007"/><path d="M306.5 477.9c0-5-2.3-6.9-8.5-6.9-7.1 0-8.5-1.6-8.5-9.9 0-5.7 1.6-11.2 4.1-12.6 2.1-1.4 2.8-.9 1.6.9-1.4 2.1 2.8 7.1 8.5 11.5s14.7 11.5 19.5 15.6l8.9 7.6-12.6.2c-10.7.5-13-.4-13-6.4m7.8-12.8c-16.3-14.2-17.6-17.6-7.8-17.6 4.4 0 6.9 2.3 6.9 6.9 0 5 2.3 6.9 8.5 6.9 6.9 0 8.5 1.6 8.5 8.5 0 4.8-.2 8.5-.7 8.5-.7-.6-7.6-6.4-15.4-13.2m-60.7-21.4c-3-12.8 1.4-17.6 14-16 8.9.9 9.9 2.8 11 14 .9 12.1.9 12.6-11 12.6-10.1 0-12-1.4-14-10.6m62.1 4.6c-1.4-.9-2.3-5.7-2.3-10.3 0-5-2.1-7.8-5.7-7.8-6.9 0-14.7-14.2-14.7-25.2.2-5.7 4.4-2.8 18.8 13.3 19 21.1 23.4 32.3 12.6 32.3-3.7.3-7.8-.9-8.7-2.3m-2.5-33.9-21.8-21.8 13.3.9c11.9.9 13.5 2.3 16.7 12.1 2.1 7.1 5 10.8 9.2 10.8 4.8 0 6.4 2.3 6.4 10.3 0 5.7-.2 10.3-.7 9.9-.7.3-10.8-10-23.1-22.2m-48.4-27.3c-.7-5.5-.2-15.4.2-22 .7-9.9 2.3-12.8 7.6-12.8 4.8 0 6.4 2.3 6.4 8.5 0 4.8 2.3 9.6 5 10.5 2.8 1.4 5 5.7 5 10.5v8.3l-8.9-6.9c-5-4.1-11-7.1-12.8-7.1-2.1 0 .9 3 6.9 6.4 16.3 9.9 17.4 14 3.4 14-10.1-.2-11.7-1.1-12.8-9.4m55.2-33.2c0-2.8-2.8-5-6.2-5-9.6 0-14.2-6.9-14.2-20.2v-11.9l16 14.9 16.3 15.4-13.5-14.2c-11.9-13.3-12.6-14.7-5.7-14.7 4.1 0 7.6-.7 7.6-1.6 0-5.7-10.5-25.4-13.3-25.4-2.1 0-3.7-3-3.7-6.9 0-5 1.6-6.4 7.8-5.5 4.1.9 8.5 1.6 9.9 1.6 3 .2 8.5 18.3 12.8 40.6 4.1 22.7 1.4 38-7.1 38-3.9-.1-6.7-2.4-6.7-5.1m-49-67.2c-2.8-11.2-2.3-16.3 1.4-16.3 1.6 0 2.8 2.1 2.1 4.4-.2 2.1-.2 3 .2 1.6.9-1.6 3.7-2.8 6.4-2.8 5.5 0 5.7 1.6 2.8 12.8-1.4 4.1-4.1 7.6-6.4 7.6-2.4.3-5.1-3.1-6.5-7.3m42.2-13.5c-6.4-2.1-10.3-4.4-7.8-5 3-.9 3-3.4.9-7.1-2.1-3-4.8-9.9-6.9-14.9-6.2-17.4-16.7-4.4-14 16.7.2 2.8-2.8 4.1-8.3 3.7-4.8-.2-8.5-2.8-8.5-5.5 0-2.3 1.4-3.7 3-2.8 3.7 2.3 7.1-5.7 7.1-17 0-5.5 2.8-9.6 8.5-12.1 4.4-2.1 7.6-5 6.2-6.9-.9-2.1 1.4-1.6 5 .2 5 2.8 7.1 2.3 8.9-1.4.9-2.8.2-5.7-1.4-6.9-4.1-2.8-21.1 4.4-19 8.3.9 1.6-.2 4.1-3.4 5-3.7 1.4-5 .7-3.7-2.3.9-2.8-1.4-4.4-7.1-4.1-4.8 0-9.2-2.3-9.9-5-1.4-4.1-.7-4.1 1.6-.7s3.7 3.4 7.6-.9c2.3-2.8 7.1-5 10.5-5 5 0 6.4-2.3 6.4-11.5 0-6.4-1.4-12.8-3.4-14-5-3-4.1-11.9 1.6-11.9 5.5 0 12.8-11.5 9.6-14.9-.9-.9.2-2.1 3.4-2.1 7.1 0 7.1 2.3.7 9.2-2.8 2.8-4.1 6.4-3 8.5 1.6 2.3.7 2.8-1.6.9-3.4-2.1-3.7 1.4-2.1 14 2.1 17 6.4 24.8 11 20.9 1.4-1.4.2-4.4-1.6-6.4-2.3-2.3-4.1-8.9-3.7-14.7l.2-10.3 4.4 11.9c2.3 6.4 4.8 10.5 4.8 8.5.2-1.6 3.4 1.6 7.6 8.3 6.2 9.9 6.2 11.9 1.6 17-4.4 4.8-4.1 7.6.9 22.5 3.4 9.6 7.8 20.9 10.3 24.8 5.1 8.1 3 8.7-16.4 3M282.7 162c0-5.7 6.2-7.1 8.3-2.1.9 3 0 5-3 5-3 .1-5.3-1.2-5.3-2.9" style="fill:#2e2416"/><path d="M275.8 257.2c1.6-3.7 3.4-10.5 3.4-15.4 0-6.2 3-10.3 10.3-14 5.5-2.8 10.5-5 11.9-5 4.1 0 1.4 17.4-3.4 19-3 1.4-5 6.4-5 11.9 0 8.9-1.4 9.9-10.3 9.9-9.4.2-10.3-.5-6.9-6.4m-5.7-40.4c3.7-4.1 5.7-12.1 5.7-23.8 0-14.2.9-17.6 7.1-19.5 8.9-3 8.9-3 11.7 15.4 2.8 18.1 4.1 20.4 10.3 20.4 2.8 0 5.7 1.6 7.1 4.1 1.6 2.8.7 3-3 1.6-3-.9-11.9 0-19.7 2.8s-16.3 5-19.5 5c-4.6 0-4.6-.7.3-6m-10.6-46.7c0-5.5 2.3-17.6 5-26.6 5-16 5.5-16.3 17-15.4 11 .9 12.6 2.3 17 16 3.7 11.5 4.1 15.6.7 18.8-2.8 2.3-3.4 2.3-2.1 0 1.4-2.1-2.3-8.3-8.3-13.5l-10.5-9.9 7.1 12.1 7.1 12.1-11 2.8c-6.2 1.4-12.8 2.3-15.4 2.1-2.1-.2-4.8 2.1-5.5 5.5-.4 3.5-1.1 1.9-1.1-4" style="fill:#3f2908"/><path d="M459.6 165c0-1.6-1.6-3-4.1-2.3-5.7.9-7.6-10.8-2.3-20.2 3-6.2 7.1-8.3 15.6-8.3 10.3 0 11.2.9 11.2 10.5 0 5.7-1.6 13.3-3.4 17-3.7 7-17 9.5-17 3.3M108.9 61.4V42.6h23.8v37.6h-23.8zm167.6-5.9c-2.3-2.3-4.1-9.2-4.1-15.4 0-10.5.7-11.2 11.2-11.2 6.2 0 12.8 1.6 15.4 4.1 2.3 2.3 4.1 9.2 4.1 15.4 0 10.5-.7 11.2-11.2 11.2-6.3 0-13.1-1.6-15.4-4.1m12.8-36c0-3.4 2.8-6.2 6.2-6.4 3-.2 17-1.6 30.7-3 23.1-2.1 24.5-2.1 24.5 4.4 0 5.7-3 7.1-20.9 9.2-34.3 3.3-40.5 2.7-40.5-4.2" style="fill:#253d16"/><path d="M25.3 160.9c.9-4.4 2.8-14 3.7-21.3 2.8-15.4 14-39.2 18.8-39.2 8.5 0-.9 43.1-12.6 59.6-7.9 10.5-12 10.8-9.9.9m376.3-35.1c.2-10.8 8.5-18.8 20.2-18.8 9.9 0 10.5.7 10.5 11.9 0 12.1-5 15.6-12.8 7.8-2.3-2.3-4.1-2.8-4.1-.9 0 1.6-2.3 0-5.5-3.7-2.8-3.4-4.4-4.8-3.4-3 .7 2.1.2 5.7-1.6 8.5-2.6 4.2-3.3 3.7-3.3-1.8M61.3 100.4c0-13.3.2-13.5 11.9-13.5 10.5 0 11.9.9 11.9 8.5s-1.6 9.2-9.2 8.3c-.9 0-3.4 2.1-5 5-5.5 9.3-9.6 5.7-9.6-8.3m119.1 9.8c0-5.7-9.2-13.3-16.7-13.3-6.4 0-7.1-2.1-7.1-20.4 0-15.4 1.4-21.1 5-22.5 2.8-1.4 5-6.2 5-11.2 0-4.8.9-14.7 2.1-21.8L171 8.5l19 .2c15.6.2 17.4.9 8.9 3l-10.3 2.8 9.2.2c5 0 22.5-2.8 38.5-6.4 16-3.7 30-6.9 30.7-6.9.9 0 1.6 3.7 1.6 8.5 0 6.9-1.6 8.5-8.9 8.5-12.8 0-66 11.2-66 14 0 1.4 4.8 3.7 11 4.8l11 2.3-8.3 7.8c-18.1 16-38.7 39.4-33.5 37.4 3.7-1.6 8.3 1.4 14.2 10.8 11 16 11 18.1.2 18.1-4.2.5-7.9-1.3-7.9-3.4m7.1-54c10.5-8.9 5-8.9-6.2 0-4.8 3.7-7.1 6.9-5 6.9 1.8-.1 6.9-3 11.2-6.9M197.9 80c-.2-12.6 1.4-17.4 9.6-26.6 5.7-5.7 11-10.8 11.9-10.8s2.1 4.8 2.1 10.3c0 7.6-1.6 10.3-6.2 10.3-6.9 0-13.3 9.9-15.4 23.8-.7 4.7-1.8 1.5-2-7m118.7-18.6V49.5h37.6v23.8h-37.6z" style="fill:#264d07"/><path d="M298.5 479c-1.4-.9-2.3-6.4-2.3-11.9v-9.9l13.5 9.6c7.6 5 13.5 10.5 13.5 12.1.3 3.1-21.5 3.6-24.7.1m13-16.7-10.3-8.3h9.6c5 0 10.3 2.3 11.2 5 3.8 10.2-.6 11.6-10.5 3.3m-22.2-26.6c0-10.5.9-11.5 12.1-12.8 10.3-1.4 13.3 0 20.4 8.9l8.3 10.5-9.6 2.1c-16 3.7-20.4 3-22.2-2.8-1.4-5.7-1.6-5.7-2.1 0-.5 10.9-6.9 5.8-6.9-5.9m37.6-10.5c-3.4-4.1-3.4-5 1.4-5 3 0 5.5 2.3 5.5 5 0 2.8-.7 5-1.4 5s-3.2-2.3-5.5-5m-37.6-18.6c0-5.5-2.3-6.9-11.9-6.9-10.5 0-11.9-.9-11.9-8.5 0-12.6 8.5-10.5 26.6 6.9 15.6 14.9 16 15.4 6.9 15.4-7.2-.2-9.7-1.8-9.7-6.9m1.8-14c-11.2-9.9-21.5-16.3-24.5-15.4-2.8.9-4.1.7-2.8-.9.9-1.6 2.3-12.1 3.4-23.1 2.3-30 5-38.5 11.2-38.7 4.8 0 4.4-.7-.9-2.8-4.1-1.6-7.8-1.4-9.6.9-1.6 2.1-2.1.9-.9-3 9.6-37.4 8.5-35.8 20.4-35.8 18.8 0 34.6 8.5 39.2 20.9 5.7 16.7 4.8 26.8-2.8 26.8-4.8 0-6.9-3.4-8.3-12.8-1.6-10.3-4.4-13.5-12.1-16.7-10.5-3.7-14-2.8-14 4.8 0 2.8 4.1 4.4 10.3 4.4 9.2 0 10.3.9 10.3 10.5s-.7 10.3-5.7 6.2c-5.5-4.1-5.5-3.7 0 2.8 6.4 7.1 6.4 7.6-5 8.5-10.5.9-11.7 2.3-15.4 18.1-2.8 10.5-3 17.4-.9 18.1 1.6.7 4.1 6.4 5.5 12.8 2.1 10.5 3 11.5 13.5 11.5s11.7.9 11.7 10.3c0 5.7-.7 10.3-.9 10.3-1.3-.2-10.9-8-21.7-17.7m33.1-54.1c-.2-14 6.9-19 11-8.3 3.4 8.5 2.3 11.5-3.4 11.5-4.8 0-4.8.9-1.4 5s3.4 5-.9 5c-3.7.4-5.3-3.3-5.3-13.2m-24.6-67.6c-18.8-4.1-25.2-7.1-24.5-10.5.7-2.8 2.8-5.7 4.4-6.9 1.4-.9 2.3-6.4 2.1-11.9-.2-6.2.9-10.3 3.4-10.3 2.3 0 6.2-2.1 8.5-4.1 6.9-7.1 8.9-5.5 19.7 17 5.7 11.5 13.3 23.8 16 27.3 6.9 7.2 5.5 7.2-29.6-.6m-13.7-58.7c0-3.7 9.2-4.1 11.5-.2.7 1.4-1.4 3-5 3-3.3.5-6.5-.7-6.5-2.8m-26.2-42.8c0-6.2 1.4-11.2 3-11.2 1.4 0 2.8-4.4 2.8-10.3 0-7.8 1.4-10.3 6.9-10.3 6.9 0 7.6 5 2.1 17.4-1.4 3-2.1 7.6-1.4 10.3.7 2.8-1.4 4.4-4.8 3.7-3-.2-6.2 1.6-7.1 5-.8 3.6-1.5 1.3-1.5-4.6m37.9-6.7c.9-1.4.2-4.1-1.6-6.9-3-3.4-2.1-4.4 5-4.4 10.5 0 11.9 8.5 1.6 11.2-4.1 1.1-6.2 1.1-5 .1" style="fill:#3e2b16"/><path d="M316.6 498.8c0-3.7-1.4-7.8-3.4-8.9-4.1-2.3-4.8-18.8-.7-18.8 1.4 0 6.2 2.3 10.3 5.5 9.6 6.4 9.9 20.4.7 25.2-5.8 3.1-6.9 2.7-6.9-3m5-27.5c-6.2-6.4-5.7-6.9.9-6.9 5 0 7.6 2.1 7.6 6.9 0 3.7-.7 6.9-.9 6.9-.7-.3-4.1-3.3-7.6-6.9m-67.6-26c-1.4-4.8-1.4-11.5-.2-15.4 2.3-6.9 10.3-8.9 13.5-3 .9 2.1 6.4 3.4 12.1 3.4 8.3 0 9.9 1.4 9.9 8.5 0 6.4-1.4 7.8-5.7 6.2-5-1.6-4.8-.9.7 3.4 6.4 5.5 5.7 5.5-10.5 5.7-16.1.2-17.7-.5-19.8-8.8m7.8-43.7c6.2-20.9 14-25.2 14-7.6 0 18.8-3.4 26.1-11.9 26.1h-7.6zm4.8-29.4c4.8-7.6 9.2-8.5 9.2-1.6 0 2.3-3 5.5-6.4 6.4-6 1.4-6.2.7-2.8-4.8m49.1-15.3c-3.4-4.4-5.7-12.1-5-16.7l.9-8.5 11.2 8.9c6.9 5.5 11 11.5 11 17-.2 11-10.1 10.5-18.1-.7m5.9-21.8c-6.2-6.4-5.7-6.9 2.3-6.9 10.3 0 12.8 2.3 10.5 8.9-2.2 6.5-5.4 6.3-12.8-2m-6.4-116.9c.9-3 3.7-5.5 5.5-5.5 4.4 0 1.6 7.8-3.4 9.6-2.3.5-3.5-.7-2.1-4.1" style="fill:#322c21"/><path d="M38.1 132.5c-4.4-7.8 5.7-38.7 12.6-38.7 5 0 14 14 14 22 0 4.1-17.4 22-21.5 22-1 0-3.3-2.3-5.1-5.3m136.2-19c-2.3-2.3-4.1-6.9-4.1-10.3s-1.4-6.2-3.4-6.2c-1.6 0-3.4-5.5-3.4-11.9s1.4-11.9 3.4-11.9c1.6 0 6.9-3 11-6.9 4.4-3.4 11-8.5 14.2-11.2 4.1-2.8 5-5.5 3-6.9-2.1-1.4-7.6.9-12.6 4.8-7.1 5.5-8.9 5.7-8.9 1.6 0-2.8 2.3-7.1 5-10.3 2.8-2.8 4.8-8.5 4.8-12.8-.2-5.7-.9-6.2-2.1-1.6-1.6 7.1-11.2 7.8-11.2.7 0-2.8-1.4-5-3.4-5-5.5 0-3.7-12.6 2.1-14.9 3-.9 13.3-1.6 22.9-1.4l17.6.2-15.4 2.3c-14 1.6-14.2 2.3-5 3.7 5.7.7 18.8-.2 28.9-2.8 10.3-2.3 23.8-4.1 30-4.4 5.7 0 11-1.4 11-3.4 0-1.6 1.6-3.4 3.4-3.4 2.1 0 3.4 5.5 3.4 11.9 0 11.2-.7 11.9-11.9 11.9-11 0-11.9.7-11.9 10.3s-.9 10.3-12.1 10.3-11.9-.7-7.8-5.7c3.4-3.7 3.4-4.8.7-3-3 1.4-4.4.2-4.4-3.4 0-4.4-.9-4.8-5-1.4-2.8 2.3-5 6.4-5 8.9 0 2.8-9.6 14.2-21.1 25.4-13.5 12.8-18.8 19.7-14.2 18.3 5-1.4 8.9.2 12.1 5.7 2.8 4.4 7.8 11.9 11.2 17.4l5.7 9.2h-11.5c-6.9.1-13.5-1.6-16-3.8m23.1-46.3c0-1.6 2.3-5.5 5.5-7.8 4.8-4.1 5.5-3.7 4.4 1.6-1.4 6.8-9.9 11.9-9.9 6.2" style="fill:#295e04"/><path d="M473.8 199.2c-3.7-5.7-3.4-6.9 2.3-6.9 4.8 0 6.2 1.6 4.8 6.9-.9 3.7-2.1 6.9-2.3 6.9-.2-.3-2.3-3.3-4.8-6.9m-14.2-32.3c0-2.8-.9-4.8-2.3-4.8-7.8 1.4-11.2-.9-11.2-7.1 0-5.7 2.3-6.9 13.5-6.9 13.3 0 13.5.2 13.5 11.9 0 9.6-1.4 11.9-6.9 11.9-3.6 0-6.6-2.5-6.6-5M23.9 165c0-1.6 1.4-3.4 3-3.4 1.4 0 2.1-5.5 1.4-12.1-.7-7.8 0-11.2 2.3-9.9 1.6.9 3.4-.9 3.4-4.8 0-5.7 2.1-7.1 10.3-7.1h10.3l-5.5 9.6c-18.8 30.3-25.2 37.4-25.2 27.7m392.4-39.6c-5.7-2.1-5.5-21.3.2-28.9 2.8-3.7 8.9-6.2 15.4-6.2 9.6 0 10.5.9 10.5 10.3.3 21.3-10.3 31.2-26.1 24.8M268.9 37.8c0-11.9.2-12.1 12.8-12.6 12.1-.2 12.1-.2-3.4-3-23.1-4.1-26.1-6.9-19.7-17 2.3-3.7 4.8-4.1 11-.9 22.9 10.8 28.9 11.5 57.3 7.8 29.6-4.1 47.7-2.3 47.7 4.8 0 2.8-5.7 5-14.9 6.2-8.3.9-19.7 4.4-25.9 7.6-12.6 6.2-29.3 7.1-32.3 2.1-3.7-6.2-8.3-3.4-9.2 6.2-.7 7.6-2.8 9.6-11.9 10.3-11 .4-11.5.2-11.5-11.5" style="fill:#294c1a"/><path d="M280.6 214.3c2.8-2.8 7.8-5 11.2-5 5.7.2 5.7.7-.2 5-9.4 7.3-18.3 7.3-11 0m3.7-29.8c-1.4-3.4-1.6-7.1-.2-8.3 3.4-3.4 6.2 1.4 4.4 8.3-1.5 5.7-1.5 5.7-4.2 0m-24.8-16.7c.2-20.2 3-26.6 11.7-26.6 7.1 0 7.8.7 4.4 9.2-1.6 4.8-2.3 11.2-1.6 13.5.9 2.8.7 4.1-.9 2.8-1.6-.9-5.5.7-8.5 3.4-4.9 4.8-5.5 4.6-5.1-2.3" style="fill:#4d380b"/><path d="M309.7 493.3c-4.1-6.4-6.9-15.6-6.2-20.4l.9-8.9 11.2 9.6c13.3 11.5 16.7 23.4 7.6 28.2-5 2.7-7.3 1.3-13.5-8.5m-62.6-17.7c4.4-12.8 8.3-25.9 8.3-29.6 0-4.8 1.6-5.7 7.8-4.1 4.1.9 9.6 2.1 11.9 2.1 2.1 0 4.1 1.6 4.1 3.4 0 2.1-2.1 3.4-4.4 3.4s-7.8 10.5-12.1 23.8c-6.4 20.4-8.5 23.8-15.6 23.8h-7.8zm73.2-5.7L312 461h7.6c7.6 0 12.1 6.9 9.9 13.5-.5 2.3-4.7.2-9.2-4.6m-3.7-28.2c0-11.9 0-12.1 6.9-6.2 3.7 3.4 6.9 8.9 6.9 12.6s-2.3 6.2-6.9 6.2c-5.5 0-6.9-2.5-6.9-12.6m-56.9-4.6c-6.9-2.8-7.1-4.1-3.7-14.2 2.1-6.2 5-17.6 7.6-25.4 2.1-8.3 5.5-14.7 7.8-14.7s4.4 1.6 4.4 3.7c0 1.6 1.4 2.8 2.8 1.6 1.6-.9 7.6 2.8 12.6 8.3l9.9 10.3h-11.9c-9.9 0-12.1 1.6-15.6 10.3-3 8.5-3 10.3.9 10.3 2.8 0 4.8 3 4.8 6.9-.1 7-6.7 8.2-19.6 2.9m69.7-9.2c-8.3-8.9-8.9-45.2-.9-45.2 6.4 0 9.2 11.2 7.8 33.7-.9 17.7-1.4 18.2-6.9 11.5m-43.5-40.1c-6.4-6.4-13.3-11.9-14.9-11.9-5 0-4.8-24.5.2-29.6 6.4-7.1 7.8-5 7.8 10.3 0 12.1 1.4 14.9 10.3 20.2 7.1 4.1 10.3 8.5 10.3 14.7 0 4.8-.2 8.5-.9 8.5s-6.2-5.8-12.8-12.2m32.8-22.4c-.9-5.7-2.1-14.7-2.1-19.7l.2-8.9 8.3 9.6c10.5 11.9 11.7 29.6 2.1 29.6-4.4-.1-6.9-3.5-8.5-10.6m5.5-27.5c-5.5-5.5-5-23.1.2-23.1 4.8 0 12.1 16.7 9.9 23.1-1.7 5-5.1 5-10.1 0" style="fill:#423424"/><path d="M242.8 501.5c-5.5-5.5-1.6-13.3 6.2-13.3 4.8 0 6.4 2.3 6.4 8.5 0 8.9-6.2 11.2-12.6 4.8m56.8-29.3c0-12.1 0-12.1 7.1-5.7 3.7 3.4 8.5 9.2 10.3 12.1 2.8 5 1.6 6.2-7.1 6.2-9.6 0-10.3-.9-10.3-12.6m17-6c-3.4-4.1-3.4-5 1.4-5 3 0 5.5 2.3 5.5 5s-.7 5-1.4 5c-.7.1-3.2-2.5-5.5-5m-20.4-51.6c0-13.3 3-12.8 13.5 2.1l7.1 10.3h-10.3c-9.6 0-10.3-1.1-10.3-12.4m15.3-4.5c-6.2-6.4-5.7-6.9.9-6.9 5 0 7.6 2.1 7.6 6.9 0 3.7-.7 6.9-.9 6.9-.9-.3-4.1-3.3-7.6-6.9m-44.6-12.4c.9-3 2.1-7.6 2.1-10.3 0-4.1 1.4-4.1 6.9-.7 10.3 6.4 8.9 16.3-2.1 16.3-6.9.2-8.6-1.2-6.9-5.3m8.4-19.7c-5.5-3.7-11-29.3-6.2-29.3.9 0 3-5.5 4.1-12.1 3.4-20.9 14-27.3 28-17 6.2 4.4 6.2 4.8-2.8 12.6-6.9 6.2-10.5 14-13.5 29.3-3.6 17.8-4.8 20.1-9.6 16.5m39.2-63.5c-3.4-16.7-18.3-30-18.3-17 0 4.1 2.1 7.1 5 7.1s5 3 5 7.6c0 5.7-.9 6.4-4.1 3.4-2.3-2.3-9.2-4.1-14.9-4.1-14 0-14.9-2.1-10.3-18.8 4.4-15.6 12.6-18.8 33-11.9 11.5 4.1 13.3 5.7 16.3 21.1 5 22.7 4.8 26.6-2.3 26.6-4.3-.3-6.9-4.2-9.4-14m-17.6-44.7-18.1-3.4 2.3-15.6c2.1-14.2 8.5-24.1 16-24.5 1.4 0 5.7 7.1 9.9 16.3 3.7 8.9 10.3 19.5 14 23.8 6.9 7.1 6.9 7.6.2 7.1-3.2-.3-14.5-1.9-24.3-3.7m-50-98.4c-3-13.3-.9-14.9 8.5-7.1 5 4.1 7.1 8.5 5.7 11.9-3.4 9.7-11.9 6.5-14.2-4.8m8.5-13.2-7.1-10.3h9.9c10.3 0 14.9 6.9 11.9 16.3-2.6 6.6-6.9 5-14.7-6" style="fill:#4f3418"/><path d="M57.8 250.8c0-3.7 3-9.2 6.9-12.6 6.9-6.2 6.9-5.7 6.9 6.2 0 10.3-1.4 12.6-6.9 12.6-4.4-.1-6.9-2.6-6.9-6.2m-4.6-23.9c-.9-.9-2.1-5.5-2.1-9.9 0-6.9 1.6-7.8 11.9-7.8 7.1 0 11.9 1.6 11.9 4.4.1 4.8-18.7 16.5-21.7 13.3m419.3-30.2c-7.1-7.6-3-15.6 6.9-14 6.2.9 6.4 2.1 3 10.5-4 9.6-4.4 9.6-9.9 3.5m-19.8-46.3c0-12.1.2-12.6 13.5-12.6s13.5.2 13.5 11.9c0 10.5-.9 11.9-8.9 11.9-6.9 0-8.5-1.4-6.9-5.7 2.1-5 1.4-5-4.8.7-6.4 6.1-6.4 6.1-6.4-6.2M31 146.9c2.1-7.6 2.8-15.4 1.6-18.1-.9-2.8-.2-4.8 1.4-4.8 1.4 0 3.7-4.8 5-10.3 1.4-5.7 3.7-9.6 5.5-8.5 1.6 1.4 2.1-.2.9-3.4-2.1-5 3.7-15.4 8.9-15.4 1.6 0 3.7 2.8 4.4 6.2 1.4 4.4 1.6 3.7 2.1-1.6.2-6.4 2.3-7.8 12.1-7.8 11 0 11.9.9 11.9 9.9 0 10.5-9.9 18.1-10.5 7.8 0-3-1.6-.9-3.4 4.4-1.6 5.7-12.1 20.2-23.4 32.3l-20.4 22zm20.2-31.6c-6.2-7.1-8.3-3.4-3 6.2 2.8 4.8 4.8 6.2 5.7 3.4.5-2.3-.7-6.4-2.7-9.6m130.8.4c-6.2-13.5-8.3-15.4-17.6-15.4-10.5 0-11.2-.7-11.2-11.9s.7-11.9 10.5-11.9c9.6 0 10.3.7 6.2 5.5-3.7 4.8-3.4 5.5 3.7 4.1 6.4-.7 8.5.2 8.5 5.7 0 8.9 4.8 16 8.9 13.5 1.6-1.4 4.1.2 5 3 .9 3 5 5.5 8.5 5.5 4.8 0 6.4 2.3 6.4 8.5 0 7.6-1.4 8.5-11.2 8.5-9.6.3-11.7-1.5-17.7-15.1m205.2 2.8c-1.4-.9-2.3-7.6-2.3-13.5 0-11.2.2-11.5 12.8-10.5 11.9.9 12.6 1.6 13.5 14.2s.7 13.3-4.8 8.5c-3.7-3-5-3-3.4-.2s0 4.1-5.7 4.1c-4.4-.3-9.2-1.2-10.1-2.6m28.2-13.1c0-11.2.7-11.9 11.9-11.9s11.9.7 11.9 11.9c0 9.9-1.4 11.9-7.1 11.9-5.5 0-6.9-1.4-5-5.7 2.1-5.7 1.6-5.7-2.8 0-6.9 8.5-8.9 7.1-8.9-6.2m-303-23.6c0-11.2.7-11.9 11.9-11.9s11.9.7 11.9 11.9-.7 11.9-11.9 11.9-11.9-.6-11.9-11.9m228.9-14c.9-6.2 0-9.2-4.1-10.5-17.4-5.5-24.1-9.2-24.1-13.3 0-2.8-1.4-4.8-3.4-4.8-1.6 0-3.4-4.8-3.4-10.8 0-7.8.9-9.9 3.7-7.1s6.9 2.1 14.2-1.6c20.9-10.3 63.7-9.6 63.7.9 0 3.7-4.1 5-14.9 5-22.2 0-24.8 1.6-23.1 15.4.9 8.9 3 11.9 7.8 11.9 5 0 6.4 2.3 6.4 11.9 0 11.5-.7 11.9-12.1 11.9s-12.3-.8-10.7-8.9m-158.8-4.5c3.4-3.4 7.1-5.7 7.8-5 2.1 2.1-6.9 11.5-11 11.5-1.8.1-.5-2.6 3.2-6.5m14.9 4.8c0-2.1 5.5-9.2 12.1-16.3 12.8-13.3 12.1-17.6-.9-5.5-6.4 6.2-8.5 6.9-12.8 3-4.4-3.7-6.4-3.4-11.9 1.6-6.2 5.5-6.9 5.5-6.9.7 0-3.4-2.3-5.7-5.5-5.7-4.1 0-4.8-3.4-4.1-17.6l.9-18.1 20.4-.2c12.8-.2 15.4 0 6.2.9-11 .9-14 2.8-14 7.1.2 3-.7 9.9-1.6 15.4-1.6 5.5-.9 9.2.9 9.2 1.6 0 3.4-4.1 3.7-9.2l.2-9.6 2.3 8.5c1.6 5 4.4 7.8 7.6 7.1 2.8-.9 10.3-1.6 16.7-1.6 11-.2 11.9.7 12.8 10.5.9 9.6 0 10.8-10.3 12.8-6.2 1.4-12.1 4.4-13.5 6.4-1.2 2.6-2.3 2.6-2.3.6m-88.5-14.9c0-16.7 3-20.9 15.6-20.9 10.5 0 11.5.9 11.5 9.9 0 13.3-3 20.9-8.5 20.9-2.8 0-5.5-2.8-6.2-5.7-1.4-5.7-1.6-5.7-2.1 0-.4 10.4-10.3 6.5-10.3-4.2m91.7-28.7c2.1-2.8 3-5.5 2.1-6.2-.7-.9 1.4-1.6 4.4-2.1 3 0 8.9-.9 12.6-2.1 11.5-3 13.3-3 19.7-2.8 3 0 5.7 2.3 5.7 5s-7.1 5.7-19.5 8.5c-25.7 5.5-29.8 5.5-25-.3" style="fill:#325817"/><path d="M155 144.6c-2.1-9.6 0-37.8 3.7-51.1.7-3 4.1-5.5 7.1-5.5 3.4-.2 8.5-.9 11.2-1.6 3.4-.9 4.8.9 4.4 6.2-.7 5 2.1 9.6 7.6 13.3 4.8 3 8.5 8.3 8.9 11.2 0 3.4.7 3.7 2.1 1.4.7-2.3 3.7-4.4 6.4-4.4 3.4 0 4.8 4.1 4.8 14 0 11.9-.7 13.5-4.8 10.3-4.1-3.4-6.2-2.3-10.5 6.2-4.8 9.6-6.9 10.5-21.8 10.5-16.1-.2-17.3-.8-19.1-10.5m263.1-18.1c-11.2-9.2-12.1-16-2.3-16 5.5 0 6.9 1.4 5 6.2-2.1 5.5-1.6 5.5 2.8 0 6.9-8.9 8.9-7.6 8.9 5.7-.2 14-1.8 14.4-14.4 4.1m-363.7-3c0-3-2.1-7.1-4.4-9.2-5.7-4.4-5.5-16 .2-26.6 3.4-6.4 7.1-7.8 19.5-7.8 11.2 0 15.4 1.4 15.4 5 0 2.8 3 5 6.4 5 5 0 7.1-2.8 7.8-10.8.9-10.3 2.1-11.2 12.8-11.5 14.7 0 20.4 5 20.4 19.5v10.8l-15.4-1.6c-14.9-1.6-15.4-1.6-15.4 7.8 0 6.2-1.6 9.9-4.8 9.9-2.8 0-7.8.9-11.2 2.3-5 1.6-4.4.2 2.1-6.9l8.3-8.9-11 3c-9.6 2.8-10.5 2.1-11-4.4-.2-4.8-1.4-3-3.7 5-3.4 13.9-16 29.1-16 19.4m146.4-26.1c-5.5-10.5-4.1-17.4 3.4-17.4 5.5 0 6.9 2.3 6.9 11.9.1 13.3-4.8 15.6-10.3 5.5m170.3-14.7c0-6.2.9-17 2.1-23.8 2.1-11.9 3-12.8 13.5-12.8 11 0 11.7.7 11.7 11.2 0 5.7-.9 16.7-2.1 23.8-2.1 11.5-3 12.6-13.5 12.6-11 0-11.7-.6-11.7-11m-211.7 1.6c-9.9-2.3-7.8-22.5 3.7-35.8 9.2-10.8 9.6-11.2 3.4-17.6-14.9-15.4-2.1-24.8 29.3-21.3 11.5.9 11 1.4-4.8 1.6-16.7.7-18.1 1.4-12.1 5 4.1 3.4 4.8 5.5 2.3 7.1-5 3-5.5 19-.7 19 2.1 0 3.4-4.1 3.7-9.2 0-5.5.9-7.1 2.1-4.4.7 2.8 2.3 7.6 3.4 10.3.9 3.4 3 1.6 6.2-5.7 2.3-5.7 7.6-12.1 11-14 9.9-5.5 41.9-10.3 44-6.9.9 1.4 4.8-.7 8.5-4.8 4.4-5.5 7.1-6.4 8.9-4.1 1.6 2.3 9.6 5.7 18.1 8.3 8.5 2.1 19.7 7.1 25.2 10.8l10.3 7.1 12.1-6.9c19-11.2 40.8-11.5 40.8-.9 0 5-2.3 6.9-8.3 6.9-8.9 0-16 7.1-9.6 9.6 2.3.7 4.1 4.1 4.1 7.8 0 3.4 1.6 6.4 3.4 6.4 2.1 0 3.4 5.5 3.4 12.1v11.9l-16-.9c-11.9-.7-16.7-2.3-17.4-6.9-.7-3 1.6-6.2 5-7.1 5.7-1.4 5.7-1.6 0-2.1-3.4 0-8.5-2.8-11.2-5.5-9.2-8.9-14.9-6.2-14.9 6.9 0 11.2-.7 11.9-11.9 11.9-13.3 0-19.7-8.3-18.1-23.1.7-7.6 3-9.6 12.8-11.2 6.4-1.4 9.9-2.3 7.8-2.8-2.3 0-4.4-2.8-4.4-5.5 0-3.4-3.4-5-9.2-5-5.5 0-12.8-.9-17-2.1-5.7-1.6-7.8-.7-7.8 3.7 0 4.8-2.3 5.5-13.5 4.4-12.8-.9-13.5-.7-13.5 8.3 0 8.3-1.4 9.6-10.3 9.6-6.9 0-10.3 1.6-10.3 5 0 2.8-1.4 5-3.4 5-1.6 0-3.4 3.7-3.4 8.5 0 6.2-1.6 8.5-6.9 8.5-11 0-8.3-10.5 7.6-26.1 16.3-16.7 16-18.3-.7-6.2-8.9 6.4-12.6 7.6-16 4.4-3.7-3-7.1-1.4-16.3 7.6-14 13.5-13.3 16.3 2.3 8.5l11.2-5.7-13.5 14c-7.1 7.6-13.3 13.5-13.5 13.5s-3-.7-5.9-1.9" style="fill:#376510"/><path d="M243 500.8c-3-3-2.8-6.2.2-12.6 2.3-4.8 7.1-17.4 10.5-28.2 5-17 6.9-19 12.8-17.4 9.9 3 10.3 3.4 5.5 14-2.3 5-7.6 17.6-11.2 28-7.5 19.2-11.6 23.1-17.8 16.2m65.8-5.5c-3-5.5-5.7-13.3-5.7-17 0-4.1-1.4-7.1-3.4-7.1-1.6 0-3.4-2.3-3.4-5s-3-5-6.9-5c-4.4 0-6.9-2.3-6.9-6.9 0-9.6 8.5-4.8 25.4 14.2 17 19.5 21.5 29.6 14.9 33.7-6.9 4.3-7.6 4.1-14-6.9m5.5-30.5c-9.2-7.6-14.7-15.4-14.7-20.2 0-4.1 1.4-7.6 3-7.6 2.1 0 3.7-5 4.4-10.8l.9-11.2 11.2 14.9c11.7 16 14.2 27.5 5.7 27.5-2.8 0-5 1.6-5 3.4 0 2.1 1.4 3.4 3 3.4 2.8 0 8.3 10.3 6.4 11.9-.2.9-7.1-4.6-14.9-11.3m2.3-20.8c0-1.6-2.3-3.4-5-3.4-2.8 0-5 1.6-5 3.4 0 2.1 2.3 3.4 5 3.4s5-1.4 5-3.4m-28 3c-8.3-4.4-7.8-9.9.7-9.9 4.4 0 6.9 2.3 6.9 6.9 0 7.8.2 7.8-7.6 3m-26.1-8.8c-6.9-1.4-7.6-3-5.7-11.5.9-5.5 4.8-16.3 8.5-23.8 3.7-7.8 6.2-15.6 4.8-17.6-3-5 27.5 16.3 33 23.1 4.4 5 3.4 5.7-10.3 4.8-11.9-.9-14.9 0-17.4 5.5-1.4 3.7-1.6 10.3-.7 14.7.9 4.1.2 7.1-.9 7.1-1.7-.7-6.9-1.6-11.3-2.3m64.4-13c-7.8-8.3-7.8-8.5-.9-8.5 4.4 0 7.8 2.8 8.9 7.6 2.8 10.5 1.2 10.7-8 .9m-39-35.5c-14.9-13.3-17.6-17-12.6-17 4.1 0 7.1.9 7.1 2.8 0 2.8 16.7 10.8 22.9 10.8 2.8 0 4.4 4.1 4.4 10.3 0 5.7-.7 10.3-.9 10.3-.7-.3-10.3-7.9-20.9-17.2m33.7-4.9c-.9-10.3-5-22.5-8.9-27.3-3.4-4.4-6.4-13.3-6.4-19.5v-11.2l10.3 9.9c10.3 9.9 16 24.8 17 44.2.9 17.6 0 22-4.8 22-3 .3-5.3-5.9-7.2-18.1m-49-26.5c.2-2.3 1.6-8.3 3-12.8 2.3-7.6 2.8-7.1 3 4.4.2 6.9-.9 12.6-3 12.6-1.6-.1-3.2-2.2-3-4.2m50.2-22.1c-5.5-6.9-4.4-18.1 1.6-18.1 4.8 0 11.9 14 9.9 19.7-1.7 5.8-5.3 5.1-11.5-1.6m-11-35.7c-3.4-12.8-2.3-16 4.4-15.4 3.7 0 6.4 1.4 6.4 2.3s0 2.3.7 3.4c3.7 10.3 2.8 17-3 17-3.7 0-7.1-3-8.5-7.3" style="fill:#4f3b26"/><path d="M57.8 110.9c0-16.3-3-21.8-9.6-16.7-3 2.3-.9-2.1 4.4-9.9C68 62.5 86.3 64.8 84.2 88.4c-.9 14.2-9.2 20.9-9.9 7.8-.2-6.9-.7-6.9-2.1-.9-2.8 12.6-8.5 25.4-11.5 25.4-1.5.1-2.9-4.3-2.9-9.8m105.7-13.5c0-5.7 6.2-10.5 14-10.5 3.7 0-7.6 16.7-11.2 17-1.9-.1-2.8-3-2.8-6.5m-10.3-25.9c0-14.7.2-15.4 10.3-15.4 10.3 0 10.3 0 4.8 8.5-5 7.8-5 8.5 0 8.5 3 0 5.5 1.4 5.5 2.8 0 4.8-7.8 10.8-14.2 10.8-5.3.2-6.4-2.6-6.4-15.2m180.4-1.6c0-7.1 3.4-8.3 16.3-4.8 12.1 3.4 9.2 11.5-4.4 11.5-9.4 0-11.9-1.4-11.9-6.7m7.7-9.2c-4.4-.7-7.8-3-7.8-4.8 0-1.6-3.7-3-8.5-3-6.9 0-8.5-1.6-8.5-8.3 0-7.8.7-8.3 10.5-4.8 5.7 2.1 11.2 5.7 12.1 8.3.9 2.8 5.5 4.8 9.9 4.8 5 0 8.3 2.1 8.3 5 .1 5.1-2 5.4-16 2.8m-6.4-20.8c-3-1.6-2.8-3.7.7-6.9 4.1-3.7 4.8-3 4.8 2.8 0 7.5 0 7.7-5.5 4.1M161 30c-2.3-.7-4.4-5-4.4-9.6 0-6.4 2.3-8.3 14-10.3 7.6-1.4 14.7-1.4 15.6-.2 1.4.9-2.3 2.1-7.6 2.1-7.8 0-8.9.9-5.7 4.1 6.2 6.2 5 16.3-1.6 16-3.5 0-8.3-1.2-10.3-2.1" style="fill:#3e7103"/><path d="M251.3 505.9c-9.2-1.6-9.6-9.2-1.4-30 4.4-11.2 8.9-22.7 9.9-25.9 2.8-8.3 19.5-8.3 19.5-.2 0 3-4.1 14-9.2 24.5-4.8 10.5-9.9 22-11 25.9-1.4 4.1-4.4 6.3-7.8 5.7m47-23.2c-.9-3-2.1-9.9-2.1-15.6 0-9.9.2-10.3 6.2-5 3 3 8.5 9.9 11.9 15.6l6.2 10.5h-9.9c-6.2 0-11-2.1-12.3-5.5m16.7-18.3c-5-5.7-5.5-6.9-.9-6.9 3 0 6.4 2.3 7.6 5.5 3.1 8.5-.1 9.2-6.7 1.4m-52.3-26.2c-4.4-.9-7.6-3.4-6.4-5.5.7-2.3 4.8-13.5 9.2-25.2l7.6-20.9 14.7 10.3c8.3 5.7 19.7 17.4 25.4 25.2l10.5 14.9h-10.3c-8.3 0-10.5-1.4-10.5-6.9 0-3.7-1.6-6.9-3.7-6.9s-6.2-2.3-8.9-5.5c-6.9-6.4-11.2-1.4-11.2 13.3.1 9.5-1 10-16.4 7.2m47-29.3c-8.5-7.8-21.1-19.5-28.2-25.2l-12.8-11.2 5.7-21.1c9.6-38 21.5-42.6 40.6-16 8.3 11.5 10.5 17 6.9 15.4-3-.9-8.5-2.1-12.1-2.1-4.4 0-6.4-2.3-6.4-7.6l-.2-7.8-6.4 8.3c-8.3 9.2-9.9 44.5-2.3 44.5 6.4 0 22.9 15.4 22.9 21.8 0 3 2.3 5.5 5 5.5 2.8 0 5 2.3 5 5-.5 6.8.2 7.2-17.7-9.5m4.1-81.8c-9.9-9.2-20.2-15.6-24.5-15.6-7.1 0-7.6-.9-5.5-14.2 1.4-8.3 3.7-16 5.5-17.6 3.4-3.4 25.2 3.4 30 9.2 4.1 4.8 15.4 50.4 12.8 52.5-.8.6-9.1-5.8-18.3-14.3m-13.3-57.3c-18.1-3-18.1-3.4-18.1-15.6 0-25.4 14.2-28.7 23.4-5.5 3 7.8 7.6 16.7 10.3 19.7 2.3 3 4.1 5 3.4 5-.6-.2-9.3-1.8-19-3.6" style="fill:#614121"/><path d="M70.4 290.2c-16.7-21.8-16.3-44.9.9-57.1 9.2-6.4 9.9-6.9 12.8-.9 2.1 3.7 2.3 13.3.2 24.5-1.4 10.3-1.4 20.9 0 23.8 2.1 3.4 1.4 8.5-.9 13.5l-4.4 8.3zm9.6-67.4c-1.4-2.1-7.8-2.8-16-1.6-13.3 2.1-13.3 2.1-12.1-7.6.9-9.2 2.1-9.6 20.9-10.5l19.5-.9v12.1C92 226 85.1 231 80 222.8M371.1 78.4c0-11.2.7-11.9 11.9-11.9s12 .7 12 11.9-.7 11.9-11.9 11.9c-11.3 0-12-.7-12-11.9m-74.9-49.3c0-1.6-3.7-3.4-8.5-3.4-5 0-8.5-2.1-8.5-4.8 0-3.4-4.4-5.5-12.1-6.2-11.2-.9-11.7-1.4-6.9-7.8s5.5-6.4 9.6-.9c3.7 5 13.5 8.3 28.7 9.2 4.4.2 18.3 11.9 18.3 15.4 0 .9-4.4 2.1-10.3 2.1-5.5-.4-10.3-1.8-10.3-3.6m45.1-2.5c3-3.7 5-7.6 4.1-8.5-.9-.7 3-.7 8.9 0 6.2.9 9.9.2 8.9-1.4-2.1-3.4 16.7-3.4 28 .2 3.7.9 7.1 4.4 7.1 7.1 0 4.1-4.4 5-21.1 4.4-11.9-.2-25.9.7-31.6 2.1-10 3-10.2 2.5-4.3-3.9" style="fill:#406325"/><path d="M51.2 210.9c0-1.6 3-9.9 6.9-17.6 6.4-14.2 11.2-18.1 15.4-11.2.9 2.1 7.6 3.4 14 3.4 11 0 11.5.7 11.5 11.2 0 5.7-1.4 12.6-2.8 14.2-3.3 4.8-45 4.8-45 0m118.9-43.3c0-6.9-1.6-9.2-6.9-9.2-11 0-14.7-14.7-11.2-43.5 1.8-13.8 1.8-25.9.5-26.6-1.4-.9-2.8-7.1-2.8-13.5 0-8.3 1.6-11.5 5-11.5 2.8 0 5-2.8 5-6.2 0-9.2 7.8-24.5 12.8-24.5 2.1 0 4.1 2.1 4.1 4.8 0 2.8 2.1 5.5 4.4 6.4 2.8.9.2 5.5-6.9 13.3-11.9 12.1-14.7 20.9-6.2 17.6 6.9-2.8 6.4 1.6-.7 9.9-5.7 6.4-5.7 6.4 1.6 4.1 7.8-2.3 7.8-2.1 3 7.6-4.8 8.9-7.6 28-6.2 42.9.7 7.8 10.3 7.6 19.5-1.4 4.1-4.1 9.2-6.2 11.2-4.8 4.8 2.8-7.1 25.2-19 36.4l-7.8 7.1v-8.9zm265-19.3c-11.9-13.5-11.9-17.4-.9-17.4 9.9 0 12.8 5.5 11.2 19l-.9 9.6zm-229.9-10.8c-6.2-6.2-5.7-23.4.2-23.4 2.8 0 5.7-2.1 6.4-4.1 2.8-6.4 2.1 14.7-.2 23.8-1.8 6-3 7.2-6.4 3.7m182.9-18.3c0-2.8-1.4-5-3.4-5-1.6 0-3.4-3.7-3.4-8.5 0-5.5-2.1-8.5-5-8.5-3.4 0-5-3.7-5-11.9 0-12.6 8.5-17 11.2-5.7 1.4 5.5 1.6 5.5 2.1 0 .7-9.9 10.5-7.6 10.5 2.3 0 5.5 2.1 8.5 5 8.5 2.8 0 5 2.3 5 5s2.3 5 5 5c3.7 0 5 3.7 5 12.6v12.1l-7.6-6.4c-6.4-5-6.9-5.5-3-.2 4.1 5 3.4 5.7-6.2 5.7-6.8 0-10.2-1.6-10.2-5m30.7-20.4c0-11.2.7-11.9 11.9-11.9s11.9.7 11.9 11.9c0 9.9-1.4 11.9-7.1 11.9-5.5 0-6.9-1.4-5-5.7 2.1-5.7 1.6-5.7-2.8 0-6.8 8.5-8.9 7.1-8.9-6.2M295 81.1c-1.4-.9-2.3-7.6-2.3-14 0-10.5.7-11.2 5.7-7.1 4.4 3.7 5 3.7 3 .2-2.1-3.4-.2-4.4 6.9-3.4 8.9.9 9.9 2.8 11 14 .9 12.1.7 12.6-10.5 12.6-6.2 0-12.6-.9-13.8-2.3m42-13c0-3.7 2.8-4.4 11.2-3.4 7.1.9 5.5-.2-6.2-3.7-9.2-3-17.4-6.9-18.1-8.5s-4.8-3-8.9-3c-5 0-8.9-3-11.2-9.2l-3.7-9.6-.2 11.5-.2 11.9-11-10.3c-11-9.6-11-9.6-3-.2l8.3 9.2h-9c-8.3 0-9.2-1.4-9.2-11.5 0-8.3 1.6-12.1 6.2-13.3 3-.9 0-1.6-6.9-2.1-9.6-.2-12.8.9-12.8 4.8 0 6.2-20.4 7.1-26.1 1.4-5-5-17.4-.7-27.3 9.9-9.6 10.5-16.3 6.4-12.6-7.8 1.4-6.2 6.2-10.8 13.5-14 13.5-5.7 37.4-6.2 40.8-.9 1.4 2.3 4.1-.7 6.9-7.1 4.4-10.3 5.5-10.8 11-5.7 3 2.8 11.9 6.4 19.5 7.8 14.9 2.8 28.7 10.8 28.9 17.4 0 2.3 6.4 7.6 14.7 11.2 11.9 5.5 13.3 5.7 7.1.7l-6.9-5.7 8.9-9.9c7.8-8.3 12.1-9.6 29.3-10.5 24.1-.9 28.7.2 28.7 8.9 0 5.5-2.8 6.4-18.3 6.4-17 0-29.6 6.2-19.7 9.6 4.4 1.4 5.5 17 2.1 25.9-3.3 6.7-25.8 6.9-25.8-.2M112.4 40.3c0-10.5.7-11.2 11.9-11.2s11.9.7 11.9 11.9-.2 11.5-11.9 11.2c-11.2-.4-11.9-1.1-11.9-11.9m37.3-17.8c0-8.3 1.4-9.2 18.8-11.9 11.5-1.6 12.1-1.4 5 1.6-7.8 3-7.8 3.7-2.3 6.9 9.9 5.7 6.4 9.9-7.8 9.9-11.2.1-13.7-1-13.7-6.5" style="fill:#427419"/><path d="M245.1 168.5c0-7.6 1.4-9.6 5-8.3 4.8 2.1 11.9 11.9 11.9 16.3 0 .9-3.7 2.1-8.5 2.1-7 .2-8.4-1.7-8.4-10.1m12.4-8.5c-5.5-8.5-5.5-8.5 4.8-8.5 10.5 0 11.9 2.1 8.3 11.5-3.3 7.5-6.7 6.8-13.1-3m33.6-9.2c-6.9-8.9-11-11.2-12.6-8.5-1.6 2.8-2.8 2.1-2.8-1.6 0-4.8 2.8-6.2 11.9-6.2 13.3 0 16.3 4.1 14.7 19.5l-.9 9.6zM111 81.1c-.9-1.4-2.1-11.9-2.1-23.8V36h23.8v46.5l-9.9.2c-5.4 0-10.9-.6-11.8-1.6m10.5-27.2c-.9-3.4-1.6-.7-1.6 5.7s.7 9.2 1.6 6.2c.7-3.5.7-9 0-11.9" style="fill:#55651b"/><path d="M245.8 499.4c-2.3-4.4-1.4-7.8 3-12.6 6.4-6.4 6.4-6.4 6.4 5.7.2 13.4-4.4 16.6-9.4 6.9m61.2-.9c-2.1-3.7-4.1-12.1-4.1-19.5v-12.6l7.1 7.8c11.5 12.1 17 25.2 12.1 28.2-6.2 4.1-10.3 3.2-15.1-3.9m15.3-26.6c-3.4-3.4-5.7-9.9-5.7-14 0-6.9-1.4-7.8-8.9-6.2-8.3 1.4-8.9.7-7.6-8.3.9-5 .2-8.9-1.4-7.8-1.4.9-2.8 4.1-2.8 6.9 0 3-2.1 4.8-4.1 4.1-2.3-.7-11.5-3.4-20.4-6.2-15.4-4.4-23.1-11.5-10.5-9.6 4.4.7 6.4-2.1 8.3-10.8l2.1-11.9.7 12.8c.2 10.8 1.4 12.6 8.9 12.6 4.8 0 8.5-1.4 8.5-3.4 0-6.4 25.9-3.7 32.3 3.4 5.5 6.2 12.1 44.2 7.8 44.2-1 .2-4-2.3-7.2-5.8m-64.6-7.5c-.9-3.7-.7-6.2.7-5 1.6.7 4.8-2.3 7.1-6.9 2.3-4.8 5.7-8.5 7.6-8.5 5 0 21.8 9.6 26.1 14.9 4.1 4.8 3 5.5-6.2 5.5-6.2 0-14-1.6-17.6-3.4-5.5-3-6.4-2.3-6.4 3.4-.1 8.9-8.8 8.9-11.3 0m67.4-40.8c-5.5-5.7-6.9-12.8-7.1-31.9-.9-38-4.4-53.2-12.1-53.2-3.7 0-9.2-2.3-12.1-5.5-5-5-4.8-6.2 1.4-10.5 5.7-4.4 7.1-4.1 11.5 2.3 2.8 3.7 9.2 12.1 14.2 19 10.3 13.3 14 35.1 12.1 67.4l-.9 19.7zm-35.8-11.9c0-11.9 6.2-10.8 16.7 2.8 4.1 5 3.7 5.7-6.2 5.7-8.7-.1-10.5-1.4-10.5-8.5m15.4-8.5c-6.2-6.4-5.7-6.9.9-6.9 5 0 7.6 2.1 7.6 6.9 0 3.7-.7 6.9-.9 6.9-.8 0-4.2-3.3-7.6-6.9m5-80.2c-4.4-5-11.2-10.3-15.4-11.5-5.7-2.3-4.8-3 4.4-3 13.3-.2 22.2 6.9 20.4 16.7-.9 5.8-1.4 5.8-9.4-2.2" style="fill:#60482e"/><path d="M466.7 190.2c-8.5-10.8-9.2-24.1-1.6-34.6 3-4.4 4.8-8.5 3.7-9.6-.7-.9-4.8 3.4-8.9 9.6-6.9 10.8-7.1 11.2-7.1 2.3 0-11.5 7.6-26.8 12.8-26.8 2.8 0 5.5-3 6.4-6.9 2.8-9.9 10.5-8.5 13.5 2.8 6.4 23.1 0 72.2-9.2 72.2-1.3 0-5.9-4.1-9.6-9" style="fill:#3d6934"/><path d="M72.3 207c6.9-.7 13.3-3.4 14-5.7 1.4-3-.7-4.1-5.5-3-4.1.7-10.5-.7-14.2-3.4-5.7-4.4-6.2-6.2-2.3-14 4.8-10.5 11-11.5 11-2.1 0 5.5 2.3 6.9 10.3 6.9 9.6 0 10.3.9 10.3 11.9v11.9l-17.6-.7c-15-.5-15.9-.9-6-1.8m90.7-34.2c-4.1-4.4-4.1-5.7-.2-7.1 3-.9 2.1-2.8-3.4-5.5-7.1-3.7-7.8-6.2-8.9-37.1-.9-36.7 0-35.8-26.6-29.3-10.5 2.8-14.9 5.5-14.9 9.9 0 5.5-8.9 10.3-20.2 10.3-3.7 0-3.4-1.6 1.4-6.9 6.2-6.9 6.2-6.9-4.4-4.8-10.3 2.1-11 1.6-11-8.3 0-12.6-8.5-16.7-17.4-8.9-10.5 9.6-7.1.7 5-14 9.9-11.5 12.6-12.8 18.1-9.9 3.4 2.1 7.1 8.9 8.3 15.4 1.4 7.6 2.3 8.9 2.8 4.1.2-5.5 2.3-7.8 7.1-7.8 3.7 0 6.9-2.3 6.9-5 0-2.8 1.6-5 3.4-5 2.1 0 3.4-5.5 3.4-11.9 0-7.8 1.6-11.9 4.8-11.9 3.4 0 4.1 4.8 3.4 18.1-.2 9.6 0 13.3.7 7.6 3-20.6 5-25.4 9.9-25.4 3.7 0 5 3.7 5 13.5 0 11.2 1.4 13.5 6.4 13.5 4.8 0 6.9-3 7.8-10.8.9-6.2 2.8-14 4.4-17 2.1-5 .7-6.2-6.4-6.2-12.1 0-12.1-12.6 0-17 11.5-4.4 22.2-4.4 15.4-.2-3.7 2.3-3 3.4 3.4 4.4 12.1 1.6 13.3 25.2 1.6 42.2-9.2 13.5-8.9 19.5.7 16 5-2.1 5-1.4-.7 5-4.1 4.8-5 7.6-2.1 7.6 2.8 0 3.4 2.1 1.6 6.2-5 11.2-7.6 36.4-4.8 44.2 3 8.3 17.6 10.5 22.2 3.7 1.4-2.3 3.4-2.3 5.5-.2 2.3 2.3-.7 8.5-9.2 19-7.1 8.5-13.3 15.6-13.5 15.6s-3-2.6-5.5-6.1M422.7 130c-2.3-2.8-2.1-6.4.9-12.6 4.8-8.5 4.8-8.5 5 4.4.3 13.7-.4 14.6-5.9 8.2m-16.5-13.3c-.2-4.4 1.6-6.2 7.8-6.2 8.5 0 9.9 2.3 5.5 8.9-3.9 6.2-13.1 4.1-13.3-2.7m-198.5-2.6c4.1-2.8 4.1-3.7-.9-9.6-3-3.4-6.9-11.2-7.8-17-2.1-9.6-1.4-10.8 5-10.8 5.5 0 7.1 2.1 7.1 8.5s1.6 8.5 7.6 8.5c6.9 0 6.9.2 1.6 6.2-7.1 7.8-7.6 11.2-.7 8.9 3.7-1.6 4.4-.7 3 3.4-1.4 3-5.7 5.5-11.2 5.5-6.9-.3-7.6-1.3-3.7-3.6m163.4-25.6V76.6h-16c-9.2 0-22.2-.9-28.9-2.1-11.9-2.1-12.8-3-12.8-13.3 0-16 17.4-21.1 34.2-9.6 8.5 5.5 8.5 5.5 2.3-1.4-3-3.7-5.5-10.5-4.8-14.9 1.4-8.3 16.7-19.7 26.1-19.7 3 0 2.8 1.4-1.6 3-5.7 2.3-5.7 3-.7 3 7.8.2 7.6 10.5-.7 10.5-4.4 0-6.9 3-7.8 10.3-1.4 8.3-.2 10.3 4.8 10.3 4.8 0 6.2 2.8 6.2 11.9 0 8.3 1.6 11.9 4.8 11.9 2.8 0 5.7 2.8 6.4 6.2 1.4 5.5 1.6 5.5 2.1 0 0-3.4 2.8-6.2 5.5-6.2 3.4 0 5 3.7 5 11.9 0 11.2-.7 11.9-11.9 11.9-11.5.1-12.2-.6-12.2-11.8M354 63c-2.8-1.6-10.5-3-17-3l-11.9.2 10.3 2.8c5.7 1.4 13.3 2.8 17 3 5.4.5 5.7-.2 1.6-3M196.5 48.8c-3.4-9.2 1.4-19.7 11.5-24.8 11.7-6.2 34.2-6.9 39.9-.9 3 3 4.8 1.4 7.8-6.9 2.1-6.2 5.7-10.8 8.5-10.8s3.7 2.1 2.8 5c-1.6 4.1.9 5 13.5 5 8.5 0 16.7 0 17.6-.2 2.8-.2 8.3 7.6 8.3 11.5 0 1.4-9.2 2.3-20.2 2.3-14.7 0-20.4 1.4-22.2 5-2.1 6.2-22.9 6.9-28.2 1.4-5-5-23.4.9-31.4 10.8-4.9 6.5-6.3 7-7.9 2.6m215.4-13c0-10.8 2.8-10.8 18.1.9 8.5 7.1 7.1 9.2-6.2 9.2-10.9.2-11.9-.5-11.9-10.1" style="fill:#4a7f14"/><path d="M75 290.9c-4.4-10.3-2.3-37.8 4.8-68.8 2.1-8.5 1.4-9.6-6.4-9.6-5 0-11.9 1.6-15.6 3.4-5 3-6.4 2.3-6.4-2.3 0-7.1 6.9-18.8 6.9-11.9 0 6.2 25.9 5.5 28.7-.9 4.1-10.8 9.6-5 8.3 8.5-.9 12.1-.2 13.5 6.4 13.5 6.9 0 7.8 1.6 7.8 12.8l-.2 12.6-9.6-10.8c-12.6-14.9-20.2-14.9-11 0 10.3 16.3 9.9 32.3-.2 49.3L80 301.4zm373.4-129.5c-7.8-4.4-7.6-9.9.9-9.9 5 0 6.9-2.3 6.9-9.6 0-10.3 10.3-17.6 23.8-17.6 8.9 0 4.8 13.3-5 17-4.1 1.6-10.5 7.6-14 12.8-5.1 8.6-7.8 10-12.6 7.3m-336-113.7c0-11.2.7-11.9 11.9-11.9s11.9.7 11.9 11.9c0 9.6-1.4 11.9-6.9 11.9-5.7 0-6.4-1.6-5-10.8 1.4-8.3.9-9.9-1.6-6.2-1.6 2.8-3.4 7.8-3.4 11.2 0 3-1.4 5.7-3.4 5.7-1.9.1-3.5-5.4-3.5-11.8m167.5-3.5c.7-10.8 1.4-11.9 11.9-11.9S303 33 303 44.2s-.7 11.9-11.9 11.9c-11.6.1-12.3-.2-11.2-11.9M367 30c-19-2.1-15.6-7.8 4.1-7.8 9.6 0 17-1.4 17-3s4.8-1.4 10.3.7c5.7 2.1 10.3 5.7 10.3 8.3-.2 4.1-12.8 4.8-41.7 1.8m-77.7-5.7c0-7.6 11.2-8.5 18.3-1.4 6.4 6.2 6.4 6.2-5.7 6.2-8.5 0-12.6-1.8-12.6-4.8m-33.9-7.6c0-4.8 7.6-14.9 10.3-13.3 4.4 2.8 0 15.4-5.5 15.4-2.7 0-4.8-.9-4.8-2.1" style="fill:#496c2c"/><path d="M251.3 504.9c-3.4-1.6-6.2-4.8-6.2-6.4 0-5.5 24.1-54.3 26.8-54.3 1.4 0 5 2.1 8.5 4.4 5.7 4.4 5.7 5.5.9 12.8-3 4.4-8.5 17-12.6 28-7.6 20.1-8.3 20.8-17.4 15.5m55.2-15.1c0-14.7 3.4-14.9 11.2-2.1 7.6 12.8 7.6 14-2.8 14-7.5 0-8.4-1.3-8.4-11.9m3.2-49.3c0-3.7-2.3-6.9-5-6.9-3 0-5-3-5-8.5 0-6.2-1.6-8.5-6.9-8.5-6.9 0-8.5 4.4-7.1 20.2.7 6.2-.7 7.6-4.8 5.7-3-.9-9.6-3-14-4.1-8.3-2.1-11.9-8.9-4.1-7.1 2.3.2 5-6.2 6.9-16.3 1.6-9.2 4.4-18.3 6.2-20.2 4.1-4.1 25.4 13.3 39.4 31.4 14 18.3 14.2 21.1 3 21.1-6.1.1-8.6-1.7-8.6-6.8m13.8-19.7c-7.1-5.7-7.8-8.9-7.1-33.7.7-22-.2-28-4.4-29.3-3-1.4-5.5-4.4-5.5-7.1 0-6.9-9.2-9.6-11.5-3.4-2.8 6.9-2.8 33.2 0 40.1.9 3 4.1 5.5 6.9 5.5s4.8 2.3 4.8 5.5c0 4.4-1.4 4.1-9.2-1.4-18.8-13.3-20.9-17.6-18.3-40.6 2.3-21.8 10.3-35.1 20.4-35.1 3 0 11.2 8.9 18.3 19.5 12.6 19 12.8 20.2 12.1 49.1-.2 16.3.7 31.4 1.6 33.2 3.3 5.5.3 4.8-8.1-2.3m-9.2-94.4c-7.1-6.9-16-13.3-19.7-14.9-5.7-2.3-6.9-5-5.7-16.7 1.4-12.6 2.3-14 11-14s9.9 1.6 15.4 21.5c3 11.5 7.8 24.5 10.5 28.9 6.8 10.8 3.2 8.9-11.5-4.8m-20.4-58.2c-6.4-1.4-7.8-3.7-7.8-14.9s.9-13.5 5.7-12.6c3.4.7 8.9 6.4 11.9 12.8 8.8 18.1 8.8 18.3-9.8 14.7" style="fill:#714d27"/><path d="M395 117.1v-10.5l6.4 7.8c6.9 8.5 6.4 13.3-1.6 13.3-3.2 0-4.8-3.7-4.8-10.6m7.1-5.7c-6.2-6.9-9.9-10.5-8.9-8.3 1.4 2.8-.7 4.1-6.4 4.1-7.8 0-8.9-1.4-8.9-12.6 0-9.6.9-11.5 3.4-7.8 2.1 3.4 3.4 3.7 3.4.9 0-2.3 3.7-4.4 8.5-4.4 7.1 0 8.5 1.6 8.5 10.3s1.4 10.3 8.5 10.3c6.9 0 8.5 1.6 8.5 8.3.1 13.2-4.7 12.7-16.6-.8m-256.5-6.7c-.9-10.8-2.3-12.8-12.1-15.4-6.2-1.6-10.3-4.4-9.2-6.2.9-1.4-.2-3.4-2.3-4.4-3.4-.9-3.4-2.3-.2-6.4 2.3-2.8 3.4-6.2 2.1-7.6-1.4-1.4-.2-3.7 2.3-5.5 2.8-2.1 3.4-3.4 1.4-3.4s-3.4-4.1-2.8-9.2l1.4-9.6-4.1 9.6c-5.7 13.3-12.8 11.9-12.8-2.8 0-11.2.7-11.9 11.5-11.9 10.3 0 11.9 1.4 13.3 9.6.7 5 .9 2.1.2-6.4-1.4-15.6-1.4-15.6 11.9-19.5 16.3-5 21.8-4.8 10.5 0-8.5 3.7-8.5 3.7-.7 5 11 2.1 16 13.3 11 24.5-7.6 15.4-9.9 34.4-4.8 34.4s6.2 4.1 2.3 8.3c-1.4 1.4-2.8 5-2.8 8.3-1.4 19.7-2.1 21.1-8.3 21.1-5.3.2-6.7-2.4-7.8-12.5m-53.4.5 8.3-8.5-9.6 3.4c-15.4 5.7-17 4.8-14.7-8.5 2.8-14.2-2.8-24.1-10.3-18.1-8.3 6.4-5-2.1 3-9.9 10.3-9.6 16.7-9.6 28.9.9 9.9 8.3 10.3 8.3 11.9 1.6 2.3-8.9 9.2-8.9 9.2-.2 0 3.7-4.1 9.9-8.9 13.5-5 4.1-7.6 7.1-5.5 7.1s4.8-1.4 5.7-3.4c4.4-6.9 8.5-3 8.5 7.8 0 9.6-1.6 11.5-14.7 17-18.9 8.1-21.7 7.8-11.8-2.7m107.3-15.6c-3.4-12.8-2.3-16.3 4.8-16.3 5.5 0 6.9 2.3 6.9 11.9 0 13.6-8.3 16.6-11.7 4.4m239.7-25c0-14.9 6.2-15.6 16.3-1.6 4.1 5.5 7.6 10.8 7.6 11.9 0 .9-5.5 1.6-11.9 1.6-11.3.1-12-.6-12-11.9M316.6 58c0-10.8.7-11.9 9.9-11.9 13.5 0 20.9 3 20.9 9.2 0 3.7-2.3 4.8-8.3 3.7-4.8-.9-10.5-.2-12.8.9-3 2.1-1.6 3 4.1 3 4.8 0 11 1.6 13.5 3.4 3.7 2.3.7 3.4-11 3.4h-16.3z" style="fill:#578d0b"/><path d="M75.7 265.4c-.2-14.2 2.1-33 5.7-46.5l6.2-23.1h-11c-12.8 0-14.9-1.6-12.8-10.5 2.1-7.6 11.2-8.9 11.2-1.4 0 3.4 3.7 5 11.9 5 11 0 11.9.7 11.9 10.3 0 5.7 1.4 10.3 2.8 10.3 5 0 11 16.7 11 30l-.2 12.6-11-12.8c-16-18.8-21.5-16-9.6 4.8 8.3 14.7 9.2 19 6.4 25.4-5.7 12.1-12.8 10.3-12.8-3.4 0-20.4-6.4-17-7.8 3.7-1.2 19.5-1.2 19.5-1.9-4.4m318.1-68.7c-1.4-.9-2.3-5.7-2.3-10.3 0-6.9 1.6-7.8 13.5-7.8 12.1 0 13.5.7 13.5 8.9 0 8.9-1.4 9.2-20.2 2.1-3.4-1.4-4.4-.2-2.8 3.7 2.9 6.1 2.2 7-1.7 3.4m45.4-44.3c-6.2-7.8-6.4-9.6-2.1-11.2 9.2-3 25.9-28 25.9-37.8 0-7.1 1.6-9.9 6.2-9.9s7.8 4.8 11.7 17.4c5.5 16.3 5.5 17.4-.9 23.8-3.4 3.4-7.6 6.4-8.9 6.4-1.6 0-5.5 4.8-8.5 10.3-7.3 12.7-14 12.9-23.4 1M272.4 37.6c0-11.2.7-11.9 11.9-11.9 11.7 0 11.9.2 11.7 12.8 0 6.9-.9 10.5-2.1 8.3-.7-2.3-4.8-5.7-8.9-8.3-7.6-3.7-7.6-3.7-.9 3.7 6.4 7.1 6.4 7.1-2.3 7.1-8.5.2-9.4-1.2-9.4-11.7m119.1-8.5c0-7.6 9.6-9.2 20.9-3.4 10.5 5.7 7.6 10.3-7.1 10.3-11.5-.2-13.8-1.2-13.8-6.9" style="fill:#4d7832"/><path d="M309.7 503.6c0-2.8-1.4-5-3.4-5-1.6 0-3.4-5.5-3.4-11.9 0-15.4 4.1-14.9 13.3.2 8.9 14.7 8.9 14 .2 18.3-5.3 3.2-6.7 2.7-6.7-1.6m11-33.5c-4.1-4.4-7.6-9.9-7.6-12.1 0-2.1-2.8-3.7-5.7-3-4.8.7-6.2-1.4-5.7-9.9.2-6.2-.7-10.3-2.3-9.2-1.6.9-3 4.1-3 6.9 0 6.2-1.6 6.2-22.2-2.1-11-4.1-14.2-6.4-9.2-6.9 4.1 0 7.6-1.4 7.6-3.4 0-1.6 2.3-3.4 5-3.4s5 1.6 5 3.4c0 2.1 1.6 3.4 3.4 3.4 2.1 0 3.4-3 3.4-6.9 0-5 2.3-6.9 9.9-6.9 14.2 0 26.1 16.7 28.2 40.1.9 9.6 1.4 17.6.9 17.6-.1.2-3.6-3-7.7-7.6m-45.6-14.2c-2.1-9.9.7-10.5 14.2-3.4s12.8 11.9-1.4 11.9c-9.4 0-11.4-1.4-12.8-8.5m45.2-37.8c-8.9-7.6-9.9-9.9-6.9-15.6 2.3-4.8 3-16.7 1.4-34.6l-2.1-27.5 7.6 7.6c6.4 6.4 7.1 10.5 7.1 38.7-.2 18.1 1.4 33.7 3.4 36 6 7.1.7 5-10.5-4.6m-27.5-25.2-11.9-9.9 12.8-.2c11.9 0 12.6.7 12.6 10.3 0 5.7-.2 10.3-.9 10.3-.3-.2-6.2-4.6-12.6-10.5m-3.5-61.2c0-5.7 12.1-10.3 16.3-6.2 6.4 6.4 4.8 9.6-6.2 9.6-5.3 0-10.1-1.4-10.1-3.4m15.8-15.2c-6.4-5-6.4-5 .7-5 4.4 0 7.6 2.1 7.6 5-.2 6-.2 6-8.3 0" style="fill:#735634"/><path d="M75.2 258.5c0-9.2 2.8-26.8 6.4-39.2 3.7-12.1 6.9-22.5 6.9-22.7 0-.7-5.5-.9-11.9-.9-11 0-11.9-.9-11.9-9.6 0-5.5 3-12.6 6.9-16 5.7-5 6.9-5.5 6.9-.9 0 5.7 6.9 9.6 17.4 9.6 5 0 6.4 2.3 6.4 11.5 0 6.2 2.1 13.3 4.4 15.4 7.8 6.2 13.3 30 9.2 37.8-4.8 8.9-9.2 6.2-16-10.5-2.8-7.1-7.1-13.3-9.9-13.3-5 0-7.1 5.7-11.2 35.8l-3 20.4zm315.9-3.6c-11.7-16.7-11.7-15.6-1.4-40.1 2.3-5.5 1.6-6.2-4.4-4.8-6.4 1.6-7.6.7-7.6-9.6 0-8.3 1.6-11.5 5-11.5 2.8 0 5-3 5-6.9 0-5.5 2.3-6.9 12.8-6.9 15.6 0 19.7 2.8 21.8 14 1.4 7.6.7 8.5-4.8 7.1-3.4-.7-7.1-2.8-8.3-4.4-2.1-3.4-14.9-4.1-14.9-.7 0 .9 6.2 7.1 13.5 13.5 10.5 9.2 13.5 14 13.3 22.5 0 13.3-10.3 40.6-15.6 42.2-1.4.9-8.2-5.5-14.4-14.4M157.3 165c-8.3-10.8-10.3-30.7-3-30.7 2.3 0 5.7 3.4 7.6 7.8 2.3 5.5 6.2 7.6 14.7 7.6 5.7 0 11 .2 11 .7 0 4.1-15.4 24.8-18.3 24.8-2.8.1-7.9-4.4-12-10.2m279.9-15.6c-9.9-12.1-6.4-28 7.8-37.1 9.9-6.4 10.3-7.6 8.5-24.5-2.1-21.1 4.1-24.5 14-8.5 7.6 13.3 13.3 28.7 9.6 26.6-1.6-1.4-2.3.7-1.6 4.1.9 3-2.1 11.2-7.1 17.6-4.8 6.4-10.5 16-12.6 21.3-5.4 11.8-9.5 11.8-18.6.5m-66.1-73.5c0-4.4.9-13.5 2.1-20.4 2.1-11.9 3-12.8 14-12.8h11.5l-.9 19.5c-.7 15.4-2.3 20.2-6.9 20.9-3 .7-6.2-1.6-7.1-5-1.4-5.7-1.6-5.7-2.1 0-.7 8.3-10.6 6.7-10.6-2.2m-78.3-11.3c0-11.2.7-11.9 11.9-11.9s11.9.7 11.9 11.9-.7 11.9-11.9 11.9-11.9-.6-11.9-11.9m-180.4-8.4c0-7.6 1.6-13.5 3.4-13.5 2.1 0 3.4 6.2 3.4 13.5s-1.4 13.5-3.4 13.5c-1.8.2-3.4-6-3.4-13.5m11.9 10.3c-3.4-5.7 1.6-23.8 7.1-23.8 3.4 0 4.8 4.1 4.8 13.5s-1.4 13.5-4.8 13.5c-2.8.2-6.2-1.6-7.1-3.2m220.5-5.8c-5-.9-7.8-4.1-7.8-8.5 0-6.9.2-6.9 9.6-.7 6.4 4.1 7.8 4.4 5 .9s-3.4-9.9-2.1-17.6c1.6-10.5 3.4-12.6 10.5-12.6 7.6 0 8.3.9 6.2 10.5-.9 5.7-2.1 14.9-2.1 20.4.2 10.2-1.4 10.8-19.3 7.6M196.7 49.1c-3.4-9.9 1.6-19.7 11.9-23.1 13.5-4.8 34.2-4.8 39.2.2 3 3 4.4 2.3 5.7-2.8 1.4-3.4 4.1-10.3 6.2-14.9l3.7-8.5 1.4 9.6c.9 8.9 2.1 9.2 18.8 9.2 18.3 0 33 6.9 33 15.4 0 2.3 2.8 5.5 6.2 6.2 3 .9.9 1.6-4.8 2.1-6.2 0-15.4-2.1-20.4-4.8-13.3-6.9-35.3-6.9-35.3 0 0 2.8-2.8 5-6.4 5-3.4 0-13.5.9-22.9 2.1l-16.7 2.1 8.5-7.1 8.5-7.6-10.3 4.4c-5.5 2.1-13.5 6.9-17.4 10.5-5.4 4.7-7.7 4.9-8.9 2m218.7-9.9c0-5.5 1.6-10.3 3.4-10.3 2.1 0 3.4 1.4 3.4 2.8 0 1.6 3.7 4.8 8.5 6.9 12.1 5.5 10.5 10.8-3.4 10.8-11 .1-11.9-.6-11.9-10.2m-34.2-10.1c0-7.1 7.8-8.9 23.1-4.8 14 3.7 8.9 11.5-7.8 11.5-12.8 0-15.3-1-15.3-6.7M190.1 9.6c4.1-.7 10.3-.7 13.5 0 3 .9-.2 1.6-7.8 1.4-7.6 0-10.3-.7-5.7-1.4" style="fill:#52822d"/><path d="M260.7 163c-4.1-10.5-2.1-14.9 6.2-14.9 7.8 0 8.3.7 5 10.3-3.9 11-8 12.8-11.2 4.6m31.8-12-7.1-10.3 11.2.9c9.9.7 11.9 2.3 12.6 10.5 1.7 12.9-7.3 12.7-16.7-1.1" style="fill:#66821d"/><path d="M253.3 503.6c-2.8-6.9 15.4-52.7 21.5-55 2.8-.9 7.6.7 10.5 3.7 5.5 5.5 5.5 6.2-.2 10.3-3.4 2.8-9.2 14-12.8 25.4-7.1 20.4-14.8 26.8-19 15.6m53.4.2c-2.1-2.3-4.8-9.2-5.7-14.9-1.4-6.2-3.4-10.8-5-10.8s-3-5.5-3-12.1c0-10.8.7-11.9 5.5-8.3 2.8 2.8 9.6 13.5 14.9 24.5 9.2 18.8 9.6 19.7 3.7 23.1-4.9 2.4-7.6 1.9-10.4-1.5m1.6-44.5c-6.4-5-6.4-5 .7-5 4.4 0 7.6 2.1 7.6 5 0 6.2 0 6.2-8.3 0m0-14c-.9-3-2.1-9.9-2.1-15.4 0-8.9-.9-9.9-10.5-9.9-10.5 0-10.5.2-8.9 11.9.9 6.4.7 11.9-.7 11.9-5.7 0-25.4-9.9-20.4-10.3 4.1 0 6.4-4.4 8.3-16 1.4-9.2 3-17.4 4.1-19 5-8.5 45.4 31.9 45.4 45.6 0 8.1-12 9-15.2 1.2m-8.7-46.3c-16.3-14.2-22.9-22-20.4-24.5 1.6-1.6 3.4-10.5 3.4-19 0-17.4 7.6-30.7 17-30.7 3.7 0 10.5 6.9 17 16.7 10.3 16.3 10.5 18.3 9.9 47.7-.7 17-1.4 30.9-1.6 30.9-.7 0-12-9.4-25.3-21.1m10.8-19.7c-1.4-18.3-7.6-37.8-11.5-35.3-3 2.1-3.7 39.2-.7 47.2 1.4 3 4.8 5 7.8 4.4 4.2-.7 5.1-4.3 4.4-16.3m-3.7-61.2c-4.4-3.7-9.9-6.9-12.6-6.9-3.4 0-4.8-4.4-4.8-14 0-12.8.7-13.5 9.2-12.6 8.3.9 9.6 3 12.8 20.9C313.4 316 315 325 315 325c0-.4-3.9-3.4-8.3-6.9" style="fill:#7f592e"/><path d="M103.9 230.1c-2.3-11.2-15.4-25.4-15.4-16.7 0 2.8-2.3 7.8-5 11.5-4.1 5.5-4.1 3.7.2-12.1 3-10.3 6.4-20.2 7.6-21.8.9-1.6-.2-2.1-2.3-.2-6.2 3.4-20.9-5-20.9-11.9 0-3 3.7-9.2 8.5-13.5 7.1-6.4 8.5-7.1 8.5-2.3 0 4.1 3 5.7 10.3 5.7 9.2 0 10.3.9 10.3 11.2 0 5.7 2.3 14 5 17.4 6.9 9.2 7.1 42.9.2 42.9-2.7-.3-5.6-4.9-7-10.2m292.5-18.8c-.9-2.3-4.8-3.7-9.6-3-6.2 1.4-8.5-.2-9.9-6.4-6.2-22 .7-33 20.4-33.2 16.7 0 21.5 3 21.5 14 0 9.2-.7 9.6-9.2 6.2-5-1.6-10.3-2.1-11.9-.2-3.4 3.4 0 14.2 4.4 14.2 1.6 0 3 3 3 6.9 0 7.3-6.2 8.6-8.7 1.5m-242.5-48.6c-7.1-7.6-7.8-11.5-7.6-37.8.7-50.7 1.4-48.4-9.2-47.9-8.3.7-8.5.7-1.6 2.1 4.4.9 7.6 4.1 7.6 7.8 0 6.9-6.4 10.3-18.8 10.3-4.4 0-9.6 2.1-11 4.8-1.4 2.3-7.8 5.7-14.2 7.1l-11.5 2.3 6.4-8.9c3.7-4.8 8.5-8.9 11-8.9 2.3 0-2.8-6.2-11.2-13.5-8.5-7.6-17.6-13.5-19.7-13.5-2.3 0-1.4 2.3 2.1 4.8 3 2.3 5.7 6.4 5.7 9.2s-2.3 1.4-5.5-3c-4.4-6.2-6.4-7.1-10.3-3.7-7.6 6.2-5.7-2.1 2.1-8.9 8.9-8.3 23.8-4.4 24.1 6.2 0 4.1.9 5.5 2.1 3.4.7-2.3 5.5-4.4 9.9-4.4 6.9 0 8.3-1.6 8.3-10.3 0-5.5 1.6-10.3 3.4-10.3 2.1 0 3.4 5 3.4 11.5 0 8.5-2.3 13.5-8.9 18.8-5 4.1-7.6 7.1-5.7 7.1s5-2.1 7.1-4.1c3.4-3.4 5-3.4 7.1.2 2.1 3 3.7 3.4 5 .7 1.4-2.1.7-3.7-1.4-3.7-2.3 0-2.8-1.6-.9-4.1 1.4-2.3 2.8-6.9 3-9.6.2-2.8.7-7.8.9-10.8.7-9.9 10.5-7.6 10.5 2.3 0 11.9 12.6 11.9 15.6 0 .9-4.8 4.8-10.3 7.8-11.9 4.8-3 4.8-4.1-2.1-8.9-10.4-7.3-10-15.1.1-15.1 11 0 14.2 13.3 7.1 27.3-2.8 5.5-5 14.2-5.5 19.5 0 8.5-.2 8.9-3 2.8-2.8-6.2-3-5.7-2.3 2.1.2 7.1 1.6 8.5 6.9 7.1 5.5-1.4 6.2-.7 3.4 4.4-2.1 3.4-2.8 8.9-2.1 12.1.9 3.7.2 6.4-.9 6.4-1.6 0-2.3 10.3-1.4 22.7l1.6 23.1 11 .9 11.2.9-7.6 10.3c-8.3 12.4-11.7 12.4-22 1.1m278.9-19c-8.3-8.9-8.9-23.4-2.3-41.5 1.4-3.7-.7-1.4-4.4 5l-6.9 11.9-.2-12.6c0-12.6.2-12.8 11.9-12.8 6.4 0 11.9 1.4 11.9 3.4 0 1.6 2.3 2.3 5 1.4 4.4-1.6 4.4-3 0-11.5-2.8-5.5-5-12.1-5-15.4 0-2.8-2.1-5-4.4-5-5 0-19.5-14-19.5-19 0-5.5-30-12.1-37.1-8.3-9.2 4.8-11.5 17-3.4 17 6.2 0 6.4 1.6 5 18.1L381.8 92l3.4-18.1c5-24.5 11.2-21.3 12.6 6.4l.9 22-12.1.7c-11.2.7-11.9.2-11.9-9.2 0-17.6-2.8-20.9-19-20.9-17 0-20.9-6.4-3.7-7.1l11-.2-13.5-4.1c-7.6-2.3-14-6.9-14.7-9.9-1.4-7.1 2.3-7.1 12.1-.2 7.6 5 7.6 5 7.6-10.5 0-19 2.3-20.4 36-17 19 1.6 27.3 4.1 31.4 8.9 3 3.4 7.1 6.4 9.2 6.4 6.9 0 23.1 19.7 20.4 24.1-1.6 2.8-1.4 3.4.9 1.6 4.1-2.3 24.5 26.1 24.5 33.2-.2 2.1-3.4-1.6-7.1-8.3-3.7-6.4-5.7-8.9-4.4-5 5 14.2 5.5 24.8.7 28.7-2.3 2.1-8.5 6.9-13.5 10.5-5.7 4.4-9.6 10.8-10.3 17.4l-.9 10.5zM205 137.8c-5.7-9.6-5-18.1 2.8-24.8 6.9-5.7 6.9-5.5 6.9 12.8-.3 20-2.6 23.2-9.7 12M78 97c-3.7-2.3-3.7-4.1-.2-7.6s5.5-2.8 11 2.8c6.4 6.4 6.4 6.9.7 7.1-3.7.4-8.8-.5-11.5-2.3m221.6-20.4c0-8.5-1.4-10.3-8.5-10.3s-8.5-1.6-8.5-10.3c0-8.5-1.4-10.3-8.3-10.3-4.4 0-9.2-2.1-9.9-4.1-.9-2.8-2.1-2.1-2.1 1.6-.2 5-3.4 5.7-19.7 5.5-12.1-.7-19.7.7-20.9 3-.7 2.3-4.4 4.1-8.5 4.1-6.4-.2-5.5-2.3 7.8-14.2 16.3-14.7 14-14.2-9.2 1.4l-14.7 10.3V42.9c0-6.9 2.3-11.5 6.4-14 8.9-4.4 38.7-4.4 43.5.2 3 3 5 .2 8.3-10.3 4.4-15.4 9.9-18.3 9.9-5.7 0 7.6 1.6 8.3 20.9 9.6 16.3.9 22.5 3 27.3 8.9 3 4.1 7.6 7.6 9.6 7.6 2.1 0 3.7 1.6 3.7 3.4 0 2.1-3.7 3.4-8.5 3.4-6.9 0-8.5 1.6-8.5 8.5 0 6.2 1.6 8.5 6.9 8.5 5.5 0 6.9 2.3 6.9 11.9 0 11.2-.7 11.9-11.9 11.9-11.1.1-12-.6-12-10.2m-7.5-31.2c-2.8-4.1-7.1-8.3-9.9-8.9-2.8-.9-.9 2.3 3.4 7.6 10.1 10.7 13.3 11.4 6.5 1.3m-151.8 9.2c.9-5 .2-14.2-1.6-21.1-3-9.6-2.8-12.1 1.4-14.9 7.8-4.8 8.3-4.1 8.3 19.7-.2 16-1.6 23.1-4.8 24.1-3.7.9-4.4-1-3.3-7.8m36-45c4.1-.7 10.3-.7 13.5 0 3 .9-.2 1.6-7.8 1.4-7.3 0-10-.7-5.7-1.4" style="fill:#568c25"/><path d="M75.2 254.9c0-7.1 1.4-16.3 3-20.2 2.1-4.4 2.3-.2.9 11.9-2.3 22.5-4.1 26.6-3.9 8.3m32.4-13.5c-.9-3-2.1-10.3-2.1-16.3 0-5.7-2.8-14.2-5.7-18.8l-5.5-8.3-3.4 8.3c-1.6 4.4-3.7 6.4-4.8 4.1-.7-2.1.9-9.6 3.7-16.3 6.4-14.9 6.4-16.3 2.1-13.5-6.2 3.7-17-2.1-17-8.5 0-3.4 3.4-8.9 7.6-11.5 6.9-4.8 7.8-4.8 10.5-.2 1.4 2.8 5 5 7.6 5 2.8 0 5 1.6 5 3.7 0 2.3 4.8 8.5 10.3 14 8.5 7.8 10.3 12.1 10.3 25.2 0 15.4-8.3 38.7-13.5 38.7-1.7-.4-4-2.7-5.1-5.6m285.5-36.3c-2.8-6.2-4.1-7.8-3-3.4 1.4 6.2.2 7.6-6.2 7.6s-8.9-3-14-19.7c-9.2-29.6-8.3-34.6 6.2-34.6 6.4 0 11.9 1.6 11.9 3.4 0 2.1 6.2 3.4 13.5 3.4 11.7 0 14.2 1.4 17 8.9 4.1 10.5 4.4 21.8.7 21.8-1.6 0-6.4-3-11-6.9-8.9-7.6-12.1-8.5-15.4-3.4-.9 2.1-.7 3.4 1.4 3.4s2.8 2.1 1.6 4.8c-.9 2.8 2.1 8.5 6.9 12.6 10.5 9.2 11.2 13.3 2.1 13.3-4.1-.2-8.2-4.3-11.7-11.2M154.3 162c-4.4-3.7-7.8-10.3-7.8-15.4 0-11.5 8.9-11.5 11.5 0 2.1 7.6 3.7 8.5 11.5 6.4l9.2-2.3-8.3 8.9c-4.8 4.8-8.5 8.9-8.5 8.9-.3-.5-3.7-3-7.6-6.5m271.6-26.8c-6.9-9.6-6.9-9.9 0-20.9 3.4-5.7 6.4-12.6 6.4-14.9-.2-2.1-3.4 1.6-6.9 8.5-8.5 16-12.1 18.1-16.7 9.9-2.8-5-2.3-7.8 1.6-11.9 2.8-3 6.9-5.5 8.5-5.5s3-3 3-6.9c0-5.5 2.3-6.9 11.7-6.9 9.9 0 11.2-.9 9.9-6.4-.9-3.7-3.7-7.6-6.4-8.5s-4.8-6.9-4.8-14c0-10.8-.7-11.9-9.9-11.9-5.5 0-14-1.4-18.3-3-6.2-2.3-10.3-2.1-14.7 1.4-6.2 4.8-6.2 4.8 0 5 5.7 0 6.2 2.1 4.1 18.8-2.1 17.4-1.6 18.8 4.8 18.8 5.5 0 6.9 2.3 6.9 12.6v12.1l-7.6-6.4c-6.9-5.7-6.9-5 .9 5.5 9.2 12.1 9.6 21.3.9 18.1-2.8-.9-4.8-5.5-4.8-9.9 0-6.4-1.6-8.3-8.5-8.3s-8.5-1.6-8.5-8.5c0-5-2.1-8.5-4.8-8.5-2.3 0-6.9-3-9.2-7.1-3.4-5-9.9-7.8-21.1-8.9-14.7-1.6-16-1.4-16 5.5 0 5.7-2.1 7.1-11.9 7.1-8.3 0-11.9-1.6-11.9-4.8 0-2.8-3-6.2-6.9-7.1-4.4-1.4-6.9-5-6.9-10.5 0-4.4-1.4-8.3-3-8.3s-3.7-3.4-4.4-7.6c-.7-5.5-3.7-8.3-10.3-8.9-7.6-.9-9.2.7-11.2 9.2-2.1 9.2-3.7 10.5-14 10.5-8.3 0-11.7-1.6-11.7-5s-3.4-5-9.9-5c-9.6 0-9.9.7-12.1 20.4-3 26.8-14.9 26.6-15.4-.7 0-7.8 15.6-25.4 30.9-35.3 15.4-9.6 16.7-9.9 16.7-3 0 11.5 6.4 4.1 10.3-11.9 5-21.1 11.9-27.3 8.5-7.8L261.4 28l23.1 1.6c22.9 2.1 59.6 16.7 69.2 28.2 4.1 5 1.4 4.8-28.7-3.7-16.3-4.4-26.8-4.4-12.6.2 4.1.9 7.1 4.1 7.1 6.2 0 2.8 7.1 4.4 20.2 4.8l19.7.7 2.1-15.6c2.3-20.9 9.2-25.9 31.4-23.8 23.4 2.1 25.9 2.8 35.1 13.5 4.4 5 9.2 8.5 11 7.6 3-1.6 14.2 9.9 13.3 14-.2 1.6 2.8 10.3 6.4 19 8.9 18.3 7.8 22-7.8 33-11.9 8.3-18.1 20.4-13.5 27.3 5.3 8.4-5.1 2.9-11.5-5.8m-37.6-42.8c-2.8-3-3.4-11.5-2.3-23.1 1.4-12.6.9-15.6-.9-9.6-4.4 12.6-4.4 28.7.2 33.2 5.8 5.9 7.8 5.2 3-.5m-89.4-36.9c-8.3-11.5-16.7-21.3-19-22.5-2.3-.7 3.4 8.9 13.3 21.1 9.9 12.1 18.8 22.5 19.5 22.5s-5.7-9.4-13.8-21.1m-94.6 79c-4.4-8.3-1.6-19 5-21.8 4.1-1.4 5 1.4 5 13.3.1 16.3-3.8 19.8-10 8.5M87.8 109.6c4.1-4.4 6.4-9.2 5-10.5-1.6-1.4-.9-2.3.7-1.6 5 .9 15.6-4.1 13.5-7.1-.9-1.4.7-4.8 3.7-7.1 4.1-3.4 5.7-3.4 7.8-.2 2.1 3.4 5.5 3 14.2-.9l11.5-5.5-13.3 1.6c-10.3 1.4-12.1.7-9.6-2.1 2.3-2.3 4.1-8.3 4.1-13.3s1.6-10.5 3.7-11.5c2.1-1.4 2.8-7.6 1.4-15.6-2.1-12.1-1.6-13.5 7.1-16.7 5-2.1 9.9-2.8 11-1.6.9.9.2 1.6-1.6 1.6s-2.3 7.1-.7 19.7c2.3 16.3 2.1 20.2-2.8 23.8-5 3.7-5 4.1 1.6 4.1s9.6 4.8 7.8 14.7c0 1.4 2.1 2.3 5 2.3 3.4 0 4.8 2.1 3.4 6.2-.9 3-2.8 9.9-4.1 15.4-2.8 11.2-11.5 12.1-11.5.9 0-4.4-2.3-9.2-5.5-10.3-6.2-2.3-25.2 4.8-25.2 8.9 0 1.6-2.3 2.8-5 2.8s-5 2.3-5 5c0 3.7-3.7 5-12.6 5H80.3zm171-1.4c0-8.9 0-8.9 7.8-2.3 6.9 5.7 6.9 5.5-.7-3l-8.3-9.2h12.1c12.1 0 12.6.2 12.6 11.9 0 11.2-.7 11.9-11.9 11.9-10.2-.1-11.6-1.1-11.6-9.3M464 81.4c-5.7-10.3-9.2-17.6-7.6-16.7 3.7 2.8 21.5 32.3 19.7 33.7-.4.6-5.9-7.2-12.1-17M93.3 79.8c-12.6-14-18.1-14.7-29.6-4.1L53.5 85 61 73.8c12.8-18.3 22.2-22.7 37.4-17.6 7.6 2.3 14.9 3 17 2.1 2.3-1.6 3.7.7 3.7 6.2s-3.4 10.8-9.9 15.4l-9.6 6.9zm104.1-31.4c0-6.9 11.2-14.2 25.4-17.4l10.3-2.3-11.9 7.6c-6.4 3.7-14.7 9.6-17.6 12.6-5.5 4.5-6.2 4.5-6.2-.5" style="fill:#5d9621"/><path d="M261.4 509.3c-7.8-1.6-7.8-8.9.7-33 8.5-25.2 14.7-30 28.2-22.5 9.9 5.5 14.7 12.1 24.8 35.3 5 11.2 5 13.5.9 16.3-7.6 4.8-11 2.1-16-14.2-4.8-13.5-9.9-20.2-16.7-20.4-1.4 0-5.7 8.9-9.6 19.7-4.8 15.4-7.8 19.7-12.3 18.8m50.8-46.3c-11.2-9.9-12.1-12.6-10.5-22.7l1.6-11.5-5.5 9.2-5 9.2-15.6-5.7c-11.9-4.4-14-6.2-8.5-6.9 5.5-.9 7.1-3.4 7.1-10.8 0-13.3 3-20.4 8.9-20.4 15.6 0 38.7 30.9 38.7 51.3 0 6.4 1.6 13.5 4.1 16 9.3 9-3.3 2.8-15.3-7.7m-1.1-53.4c-4.4-4.8-5.7-10.8-5-20.4.9-17.6-2.8-41.3-6.9-38.5-4.4 2.3-3.7 23.1.7 27.5 2.1 2.1 3 7.8 2.3 13.3l-.9 9.6-11.3-11.2c-6.4-6.4-9.9-12.6-8.5-14.9s3-11.5 3.4-21.1c.2-12.6 2.3-18.3 7.8-22.7 10.5-8.5 12.6-7.8 20.4 7.6 5 10.3 7.1 22 8.3 45.8.7 17.6 0 32.3-1.4 32.3-1.3-.2-5-3.2-8.9-7.3m-6.4-94.9c-.9-1.6-5-3.4-8.9-3.4-6.4 0-8.5-3.7-4.4-7.8 3-3 14 3 16.3 9.6 2 5.7 0 6.6-3 1.6" style="fill:#8a6335"/><path d="M83.5 216.4c1.6-12.1 4.1-16.3 6.9-13.3.9.9-.7 6.9-3.4 13.3l-5.5 11.5zm9.4-40.1c-2.3-.7-4.4-6.2-4.4-11.5 0-8.9.9-9.9 11.9-9.9 11.2 0 11.9.7 11.9 11.9 0 10.3-.9 11.9-7.6 11.5-4.3 0-9.8-.9-11.8-2M360.8 160c0-11.2.7-11.9 11.9-11.9s11.9.7 11.9 11.9-.7 11.9-11.9 11.9-11.9-.7-11.9-11.9m-209.9-.7c-6.9-4.8-7.8-8.3-7.8-30.7 0-18.1-1.4-26.8-5-30.7-5.5-5.5-15.4-3.7-15.4 2.3 0 1.6-2.1 3.4-4.8 3.4-2.8 0-5.5 2.3-6.9 5-.9 3.4-6.4 5-14.7 5H83.5l13.3-11.9c7.6-6.4 14.9-11.9 16.3-11.9 1.6 0 2.3-1.4 1.4-3s.7-5 4.1-7.6c5.5-4.4 5.5-4.4.7 1.6-4.8 6.2-4.4 6.4 3.4 4.1 20.9-5.7 27.3-6.2 27.3-2.3 0 2.8 2.8 3.4 7.1 2.1 6.2-2.1 6.4-1.6 3.4 4.4-2.1 4.1-3.7 20.2-3.7 36 0 27.5.2 29.3 7.1 29.3 6.2 0 6.4.7 3 5-5.3 6.8-6.6 6.8-16-.1m146-4.4c-3.7-6.2-3.4-6.9 6.2-6.9 7.8 0 10.3 1.4 10.3 6.9 0 4.1-2.3 6.9-6.2 6.9-3.2-.2-8-3.2-10.3-6.9m-34.2-41.4c.9-9.9 2.3-11.2 12.1-12.1 10.5-.9 11-.7 11 10.8 0 11.9-.2 12.1-12.1 12.1-11.7-.1-11.9-.3-11-10.8m149.2-4.6c0-10.5.9-11.9 8.5-11.9 10.3 0 10.3.9 2.8 14-7.8 13-11.3 12.5-11.3-2.1m16.1 2.7c3-5.5 6.2-10.3 6.9-10.8s.9 3.4.9 9.2c0 8.5-1.4 10.8-6.9 10.8-6.9 0-6.9-.2-.9-9.2M306.5 90.3c0-1.6-2.3-3.4-5-3.4-3.7 0-5-3.7-5-12.6V61.7l11 10.3 11 9.9-9.7-12.9c-7.1-9.9-8.9-14.9-7.1-22.7 2.1-8.9 3.4-9.9 11.2-8.3 15.6 4.1 24.8 8.3 34.4 15.4l8.9 7.1-14-2.3c-8.5-1.4-14.9-.7-16.3 1.4s4.4 4.1 14 5.5c9.2 1.4 19 3 22.9 4.1 4.1.9 5.5.2 4.1-2.1-2.8-4.4 6.2-8.5 12.8-6.2 2.8.9 4.1 5 3 10.5-.9 5.5-3.4 7.8-5.7 6.4-2.1-1.4-1.6.2.9 3.7 4.8 5.5 4.1 5.7-6.9 4.8-8.9-.7-11.9-2.8-12.6-8.5-.9-5.7-3.7-7.6-15.4-8.5l-14-.8 1.4 12.8c.9 12.7.9 12.7-11.3 12.7-7.3-.3-12.6-1.6-12.6-3.7m-107-7.6c-3.4-12.8-2.3-16.3 4.8-16.3 5.5 0 6.9 2.3 6.9 11.9 0 13.6-8.3 16.6-11.7 4.4m226.4-18.3c-8.5-8.3-16.3-14.9-18.1-14.9-1.4 0-2.8-4.1-2.8-9.2 0-7.8 1.4-9.6 8.3-9.6 4.4 0 7.6.9 6.9 2.1-1.4 2.3 8.5 7.8 12.6 7.1.9-.2 6.4 4.4 11.9 10.5 5.5 5.7 7.1 8.5 4.1 6.2-3.4-2.3-6.2-3-6.2-.9 0 4.1 8.5 11.5 11 9.2.9-.9 3.7.9 6.4 4.1 4.4 5.7 4.4 5.7-1.6.9-6.2-4.8-6.2-4.4-4.1 2.8 4.2 13-11.6 8.7-28.4-8.3M95.6 68.8C80.7 63.3 75.5 63 70.2 66c-4.1 2.3-.9-1.4 6.4-7.8C85.1 50.4 92 47 95.4 48.4c2.8 1.4 9.2 2.3 14.7 2.3 8.3.2 9.2 1.6 9.2 11.2 0 5.7-.9 11.5-2.3 12.1-1.9 1-11.1-1.6-21.4-5.2m30.3-16.1c0-9.9-1.4-13.5-5-13.5-8.9 0-5.5-9.9 5.5-15.6 13.3-6.9 16.7-3 16.7 19.7 0 12.6-1.4 17-6.4 19.7-10.1 5.1-10.8 4.4-10.8-10.3" style="fill:#649f20"/><path d="M75.7 253.5c0-4.8 1.4-12.1 2.8-17 2.1-6.9 2.8-7.1 2.8-1.6 0 3.7-1.4 11.5-2.8 17-2.6 9.2-2.8 9.2-2.8 1.6m264.7-76.1c0-12.1 5-15.6 24.8-15.6 8.3 0 9.2 1.4 9.2 11.5 0 12.1-5 15.6-24.5 15.6-8.6 0-9.5-1.4-9.5-11.5M92 164.1c0-5.5 3-9.6 8.5-11.9 13.3-6.2 15.4-5 15.4 7.8 0 11.2-.7 11.9-11.9 11.9-10.4 0-12-1.1-12-7.8m291.1-7.8c-.9-8.5-1.4-16.3-.7-17 3-3 18.8 2.8 25.9 9.2 4.1 3.7 7.1 10.5 7.1 14.9 0 7.8-1.4 8.5-14.9 8.5h-15.1zm-232.2 3c-5-3.4-7.8-8.9-7.8-14.9 0-13.5 9.2-12.8 11.9 1.4 1.4 5.7 4.1 11.9 5.7 12.8 2.1 1.4 2.1 3 .7 4.1-1.8.7-6.4-.7-10.5-3.4m111.1-9.6c0-10.5.9-11.9 8.5-11.9 9.9 0 10.3.7 3.4 13.5-7 13.7-11.9 13-11.9-1.6m39.9 9.6c-8.5-8.3 4.1-21.3 20.9-21.3h12.1l-11.7 11.9c-11 11.5-16.7 14.2-21.3 9.4M76.6 131.8c8.5-21.1 32.1-42.2 52.5-47.7 13.5-3.4 21.8-2.1 18.8 3.4-1.4 2.1.7 2.1 4.8-.2 9.2-5 12.6-4.8 8.3.7-1.6 2.1-4.4 9.2-5.7 15.4-2.3 11.9-11.9 15.4-11.9 4.1 0-6.4-5-8.5-17-6.9-2.8.2-5.5 2.1-6.2 3.7s-5 3-9.6 3c-5.7 0-8.3 2.1-8.3 6.9 0 3.7-1.4 6.9-3.4 6.9-1.6 0-3.4 2.3-3.4 5 0 2.8 1.6 5 3.4 5 3.7 0 4.8 13.5.9 13.5-1.6.2-9.2 1.4-16.7 3l-14 2.8zm263.8-6v-11.9h22.2c12.6 0 22.2-1.4 22.2-3.4 0-1.6-2.3-3.4-5-3.4s-5-2.3-5-5-1.4-5-3.4-5c-1.6 0-3.4-3.7-3.4-8.5 0-6.2-1.6-8.5-6.4-8.5-3.4 0-11.2-.9-17-2.1-9.9-2.1-10.5-1.6-10.5 8.5 0 8.9-1.4 10.5-8.3 10.5-5.5 0-9.2 2.3-10.5 6.9-1.6 5-5 6.9-14 6.9-10.5 0-11.7-.9-11.7-9.9 0-5.5 1.4-14 3-18.8 2.1-4.4 4.1-14.2 5-21.3 2.3-21.8 8.3-30.7 14-21.3 1.4 2.1 3.4 2.8 5 1.6 3-2.1 30.7 10.5 30.7 14 0 .9-1.4.9-3 0-1.6-1.4-7.6-.2-12.8 1.6l-9.6 4.1 10.3 2.3c17 4.4 36 6.4 34.4 3.7-.9-1.4 0-4.4 1.6-7.1 2.8-4.1 3-3 2.3 3.4-.2 5.7 4.8 16 17 32.3 22.9 30.9 22.9 34.4.2 32.5-13.5-.7-18.3.2-20.9 4.4-2.1 3.4-7.6 5.5-14.7 5.5-11 0-11.7-.7-11.7-12m-27.2-52.7c-7.8-11.2-13.5-15.6-13.5-10.8 0 3 16.7 21.1 19.5 21.1.4 0-1.9-4.3-6-10.3m2.7-15.8c.2-8.3 0-8.5-3-3.4-1.6 3-2.3 7.6-1.4 9.2 3 5 3.5 4.3 4.4-5.8m83 48.6c-13.3-17.4-18.8-32.5-11-32.5 2.1 0 3.4 2.3 3.4 5 0 3 3 5 8.5 5 7.8 0 8.5 1.4 8.5 14.9 0 8.5 1.6 15.6 4.1 16.3 2.1.7 3 3 2.3 5.5-.5 2.5-7.6-4.1-15.8-14.2M61.3 73.1c5.7-7.6 12.6-14.7 14.7-16 2.1-1.4-2.1 4.8-9.2 13.5s-13.5 16-14.7 16c-.9.3 3.4-5.9 9.2-13.5m138.2 4.8c-2.3-8.5 4.8-22 16.7-32.1 4.4-3.7 5-2.8 5 8.3 0 8.5-1.4 12.1-5 12.1-3.4 0-5 3.4-5 10.3 0 12.7-8.5 14-11.7 1.4m220-14.9c-8.9-8.3-14-10.3-26.1-10.3-14.7 0-15.4-.2-15.4-10.3 0-11.5 6.4-14.2 29.6-12.8 11.7.9 13.3 1.6 10.3 5.7-3.4 4.1-3 4.4 2.8 2.3 3.7-1.4 5.5-1.4 4.1 0-3 3.4 4.1 11.5 10.3 11.5 4.4 0 4.4-.9.7-5.7-2.3-3.4.2-1.6 6.4 3.7 11 10.3 15.4 16.7 5.7 8.9-4.1-3.4-5-3.4-5 1.4 0 3 1.4 5.5 3 5.5s3.7 2.3 5 5c3.7 10-19.2 6.4-31.4-4.9m-303 4.4c-.2-2.8-5.5-4.4-11.9-4.4-6.2 0-14-2.1-17.4-4.4-5.7-4.4-5.5-5 4.8-14 6.2-5 17-12.1 24.1-16l13.3-6.9 4.1 8.9c3 6.9 2.8 10.8-1.6 19.7l-5.5 11V49.5c-.2-15.4-6.2-9.2-8.3 8.5-.7 7.3-1.4 11.4-1.6 9.4" style="fill:#6ba517"/><path d="M396.6 260.4c-6.4-7.1-11.5-37.4-6.2-37.4 3 0 15.6 40.8 13.3 43.1-.7.7-3.7-2.1-7.1-5.7m8.5-10.6c0-5.7-4.8-24.5-10.3-41.3-5.7-17-9.6-31.6-8.5-32.5.9-1.4 2.8 1.4 4.1 5.5.9 4.1 3 6.9 4.4 5.7 1.4-1.1 2.8.2 2.3 2.8-.2 10.5 1.4 16.3 4.1 14.2 4.8-2.8 20.2 19 19 27.3-1.4 11.2-8.9 28.9-12.1 28.9-1.7 0-3-4.8-3-10.6m-297.5-8.4c-.9-3-2.1-8.5-1.6-12.6.2-6.9.7-6.9 3 .9 2.8 8.3 2.8 8.3 3-2.3.2-12.8 6.2-18.1 8.3-7.1 1.4 6.9 1.4 6.4 2.1-1.4.2-8.3 1.6-9.6 11-9.6 11.5 0 11.2 1.6-9.6 24.8-12.8 14.4-13.5 14.6-16.2 7.3m255.7-17.5c-4.4-4.1-2.3-15.4 4.8-25.2 7.8-11.2 14.9-12.6 18.1-3.7.9 3 3 7.8 4.1 10.3.9 2.1-.2 4.1-3 4.1s-7.6 3.7-10.5 8.5c-6.1 8.3-9.6 10.2-13.5 6m49.6-34.1c-6.2-2.3-5.5-7.8.9-7.8 3 0 4.8-2.1 3.7-4.1-.7-2.3-4.1-4.1-7.6-3.4-3.4.7-4.8-.2-3.4-2.3 5.7-9.6 15.4-.9 15.4 13.5.1 6.6-1.5 7.3-9 4.1M252 169.4c0-8.9.2-8.9 5-2.3 6.4 8.5 6.4 11.5 0 11.5-3.4.2-5-3.3-5-9.2m7.5-7.8c-3.7-6.2-3.4-6.9 4.1-6.9 6.4 0 7.8 1.4 6.4 6.9-.9 3.7-2.8 6.9-4.1 6.9-1.1 0-4.1-3-6.4-6.9m113.7-90.3C369.1 60.5 371.1 53 378 53c5 0 6.4 1.6 5.5 7.8-.9 4.1-1.6 9.6-1.6 11.9-.7 5.7-6.4 5-8.7-1.4m14.2-6.7c.7-6.4 2.8-11.9 4.4-11.9s3 5.5 3 11.9c0 7.6-1.6 11.9-4.4 11.9-3 .1-3.9-3.6-3-11.9m21.1-26.8c0-2.3 3-5.5 7.1-6.4 6.9-1.6 6.9-1.6.9 4.8-6.6 7.8-8 7.8-8 1.6M256.8 18.1c.9-6.2 3.7-12.6 6.2-14.7 2.8-2.3 3-.9 1.4 5-.9 4.8-2.1 11.2-2.1 14.7 0 3-1.6 5.7-3.7 5.7-3 .3-3.2-3.6-1.8-10.7" style="fill:#63903f"/><path d="M261.4 508.6c-5-3.4-5-5 1.4-24.8 3.7-11.5 8.5-23.1 10.5-25.2 4.8-6.4 17.6-5.5 24.1 2.1 5.7 6.4 5.7 6.9-3.4 7.8-8.3.9-10.3 3.7-16.3 22-7.6 22.9-7.4 22.9-16.3 18.1m40.3-7.6c-3.4-13.5-2.3-26.6 2.3-26.6 5 0 14 25.4 11 30.7-3.9 6.3-11.2 4-13.3-4.1m8-40.3c-7.6-6.2-8.5-9.6-7.6-23.8.9-13.5.2-16.7-4.1-16.7-4.1 0-5.5 3.4-5.5 13.3V447l-10.5-3.7c-7.6-2.3-9.2-4.8-6.9-7.1 2.1-2.1 3.7-9.6 3.7-16.3 0-7.1 1.6-14 3.7-15.4 4.4-2.8 18.8 7.6 27.3 19.5 6.2 8.3 14.2 43.8 10.3 43.8-.8-.4-5.6-3.4-10.4-7.1m-3.7-56.6c-6.4-6.9-9.6-11.2-7.1-9.9 3 1.6 4.1-3 3.7-20.9 0-12.6-.9-21.1-2.1-18.8-.7 2.1-4.4 4.1-8.3 4.1-11.9 0-6.4-23.4 7.1-30.7 5.7-3 7.6-2.3 10.5 5.7 3 7.6 10.3 78.2 8.3 81.6-.1 1.3-5.6-4.2-12.1-11.1m-19.4-19c-4.8-5.7-1.4-19.5 4.8-19.5 3 0 4.8 4.1 4.8 11.9 0 12.4-3.4 15.1-9.6 7.6" style="fill:#956d3a"/><path d="M395.2 209c-4.4-12.8-4.4-13.3-.9-13.3 1.6 0 4.4 5.5 6.4 11.9 4.8 15-.5 15.9-5.5 1.4m-174-17.4c-3.7-8.3-6.9-16.3-6.9-18.1 0-6.4 13.5-15.4 23.8-15.4s10.3.2 10.3 18.3c0 23.8-2.3 29.3-12.6 29.3-6.3.1-9.5-2.9-14.6-14.1M89.9 198c5.7-17.6 5.7-21.8.7-23.8-9.6-3.7-6.4-16 4.8-19.7 11.5-4.1 13.5-9.9 3.4-9.9-3.7 0-9.9-3-13.5-6.9-9.6-9.6-3.7-22.7 17.6-38.5 15.6-11.5 19.5-12.6 35.8-11.9 13.3.7 17.6 2.1 16.3 5.5-.9 2.8-1.6 13.5-1.6 24.8 0 17.6-.7 20.2-6.9 20.2-5.7 0-6.9-2.3-6.9-16.7 0-17.4-2.8-20.9-15.4-18.1-16.3 3-27.3 38-11.9 38 4.1 0 6.9 3.4 8.3 10.5 3 15.6 2.3 26.8-1.4 26.8-1.6 0-3.4 1.6-3.4 3.7 0 5-7.8 11.9-13.5 11.5-2.8 0-7.1 2.1-9.6 5-4.2 5-4.6 5-2.8-.5m287.9-11.2c0-3.7-1.6-4.8-5.7-3-3.4 1.4-12.6 3.4-20.4 4.1L337 190v-12.6c0-7.8 2.3-14.7 7.1-19.5 5-5 6.2-8.3 3.4-10.8-2.1-2.1-3.7-6.4-3.7-9.6 0-3-2.3-6.4-5-7.8-2.8-.9-5-3.4-5-5.5 0-8.9-14-17-28.9-17-14.2 0-15.4-.7-15.4-9.2 0-15.6 3.7-24.1 11-25.9 6.2-1.6 6.9-.7 5 10.3-2.1 11.5-2.1 11.9 4.1 4.8 4.8-5.5 6.9-6.2 10.5-2.8 2.8 2.3-.9-3-7.8-11.9-14.2-17.6-17-33.2-5.7-33.2 7.6 0 8.9 6.9 3.4 17-2.8 5-2.1 7.1 2.8 9.9 3.4 1.6 8.3 2.1 11.2.2 3-1.8 8.9-2.1 12.8-.9 6.4 1.6 7.6 3.4 5.7 12.8-1.6 8.3-.7 11.5 3 13.3 2.8.9 5 3.4 5 5.5 0 7.8 14 17 25.9 17 10.5 0 11.9-.7 8.3-5-2.3-2.8-6.4-5-8.9-5-6.9 0-6.2-19.7.9-26.6 5.5-5.5 5.5-5.5 3.4.7-1.6 4.4 1.4 11.2 10.3 23.4 16 21.8 17.6 30.3 4.4 25.2-9.6-3.7-27.3-.9-27.3 4.1 0 1.6 4.8 3.7 10.5 5 6.2.9 12.8 4.8 15.4 8.3 3 3.7 4.4 4.4 4.8 1.4 0-2.3 1.6-3.4 3.4-2.3 2.1 1.4 2.8 3.4 1.6 5-.9 1.6 0 4.1 2.1 5.5 2.8 1.4 3 .9 1.6-1.4s-.9-4.1.7-4.1c2.1 0 5 4.4 6.9 9.9 4.1 11.2.7 14-16.7 14-11.2 0-11.2-.2-6.4 11.5 4.1 10.8-.9 11.5-6.4 1.4l-3.7-7.8 2.1 7.8c.9 4.1.2 7.6-1.6 7.6-2.2-.4-4-2.9-4-5.9m-226.9-27.5c-8.5-5.7-10.5-14.7-3.4-14.7 2.3 0 6.2 4.8 8.3 10.3 2.1 5.7 3.7 10.3 3.4 9.9-.5 0-4.2-2.5-8.3-5.5m151 0c-8.3-7.8 3-21.3 17.6-21.3 12.1 0 13.5 4.8 3 10.5-4.4 2.3-9.2 6.2-10.5 8.5-3 5-6.6 6-10.1 2.3M421.1 129c-.9-1.4 1.6-8.9 6.4-17 4.8-8.3 7.6-14.9 5.7-14.9-1.6 0-6.9 6.2-11 14l-7.8 14-9.9-11.5c-5-6.2-8.9-13.5-7.8-16.3.9-2.8.7-3.7-.7-2.3-4.1 4.1-11.5-4.8-11.5-13.5 0-7.6.9-8.3 14.7-7.1 11.9.7 14.7 2.3 15.4 8.9.9 6.2 3.4 7.6 12.8 7.6 11 0 11.5.7 11.5 11.9 0 6.4-1.4 11.9-3 11.9s-4.1 3.7-5 8.5c-2 7.9-5.4 10-9.8 5.8m18.1-54c0-14.7 6.4-15.6 14.7-2.1 7.8 13.3 7.6 14-4.4 14-9.6 0-10.3-1.2-10.3-11.9m-239.3 2c-2.3-10.3 8.9-26.1 27.3-38.5 13.5-8.9 18.1-7.8 18.1 4.1 0 7.6 1.4 9.6 5 8.3 4.1-1.6 5 .7 5 10.3 0 11.5-.2 12.1-11.9 12.1-9.9 0-11.9-1.4-11.9-7.6 0-5.7-.9-6.4-4.1-3.4-2.3 2.3-6.9 4.1-10.3 4.1-4.4 0-6.2 2.8-6.2 8.5.3 9.9-8.2 11.5-11 2.1m212-22.4c0-3.7-3.7-5-13.5-5-12.8 0-13.5-.7-13.5-10.3 0-9.2.9-10.3 11.5-10.3s21.5 6.9 17 10.8c-.7.9.7 2.8 3.7 4.1 3 .9 4.4.7 3.4-.9-.9-1.6 0-4.4 2.3-5.7 2.3-1.4 3.4-1.4 2.1.2-3 3.4 3.4 16 7.1 14 1.4-.9 2.8.2 2.8 3 0 3.4-3.7 5-11.7 5-8.2-.1-11.2-1.5-11.2-4.9M208.6 41.3c5-4.8 11.2-8.9 13.3-8.9 4.4 0 4.8 0-11 9.9L199 50z" style="fill:#6eb020"/><path d="M114 222.6c1.4-18.3.7-23.1-3.4-24.8-2.8-.9-5-3.4-5-5.5 0-4.8 29.3-4.1 33 .9 8.3 10.3 6.9 15.4-9.9 33.2L112 244.7zm289.7 11.9c-1.4-4.8-1.6-9.6-.9-10.5.9-.7 2.8 2.8 3.7 7.8 1.4 4.8 1.6 9.6.9 10.5-1 .7-2.6-2.8-3.7-7.8m-43.6-16.3c-3-6.9-2.3-10.5 3-19.7 8.3-14 21.5-17.4 21.5-5.5 0 4.4-3 11.5-6.9 16.3-3.7 4.8-6.9 10.5-6.9 12.8.3 7.3-6.5 4.6-10.7-3.9m31.7-18.1c0-2.1-1.4-6.9-2.3-10.3-1.6-4.8-1.4-5 1.6-2.3 2.3 2.3 3.7 6.9 2.8 10.3-1 3.7-1.7 4.6-2.1 2.3m25.2-24.8c-.9-1.6-4.1-2.3-6.9-.9-3.4.9-5-.7-5-5.7 0-9.6 10.3-7.8 14 2.8 2.7 7.3 1.8 9.8-2.1 3.8m25.7-72.4c0-4.4 3.7-11.2 8.5-15.4l8.5-7.6 2.1 9.2c1.6 6.9.7 10.5-5.5 15.4-10.4 8.3-13.6 7.8-13.6-1.6m26.1-14.4c-3-6.4-5-11.9-4.1-11.9 2.3 0 12.6 20.9 11.2 22.5-.9.6-4.1-4.2-7.1-10.6M425.5 52c0-1.4.9-2.3 2.8-2.3 9.2 1.6 11.5-.2 7.1-6.2-2.3-3.4-.2-2.3 4.8 2.1 5 4.8 9.2 8.5 9.2 8.5 0 .2-5.5.2-11.9.7-6.5 0-12-.9-12-2.8M257.7 15.4c.9-3.7 3.4-7.8 5.5-9.2 2.3-1.4 2.8 0 1.4 3.7-1.4 3.4-2.3 7.6-2.3 9.2s-1.4 3-3 3c-1.8.1-2.5-3.1-1.6-6.7" style="fill:#6b9e3f"/><path d="M80 229.7c.9-6.4 3.4-13.3 5-14.9 2.3-2.3 2.3-.2.2 6.4-5.6 18.3-7 20.8-5.2 8.5m257-59.2c0-2.8-3.4-5.5-7.6-6.2-7.1-.9-7.1-1.4 2.3-12.1 9.9-11.9 9.2-19-.9-9.9-3.4 3.4-8.3 5.7-10.3 5.7-2.1 0-6.2 3.4-8.9 7.6l-5.5 7.6-12.8-12.6c-11.7-11.2-12.8-11.9-16.7-6.4-3.7 5-4.1 5-4.1-2.1-.2-4.1-2.8-11.5-5.7-16-2.8-4.4-4.8-12.6-4.1-17.6.7-8.3 3-9.9 12.8-11.2 9.2-1.4 12.1-3.4 12.8-9.2.7-5.7 3.4-7.8 9.2-7.8 7.6 0 8.3.9 5 8.9-4.4 11.2-4.8 10.8 5.5 8.9 4.8-.7 9.6-3.7 10.5-6.4 1.4-3.7 2.8-3.7 7.1-.2 3 2.3-.2-3-7.8-12.6-9.6-11.5-11.2-14.9-5.7-11.2 6.4 4.4 10.3 4.8 18.3 2.1 12.1-4.4 31.6-1.6 38.7 5.5 3 3 6.9 4.8 8.5 3.7 1.6-1.4 2.1 0 .9 2.8-2.3 6.4 9.6 20.4 18.3 21.8 5.5.7 7.6-.7 7.6-5.7 0-10.3 12.1-8.9 14.2 1.4 1.4 6.9 0 8.5-7.8 9.6-5.5.9-11.2 0-13.3-2.1-5.5-5.5-3.7 2.1 2.1 9.9 4.8 6.4 4.4 6.9-12.6 8.5-21.1 2.1-25.4 8.5-7.8 11.5 11 2.1 11.5 3 6.4 6.9-7.6 5.5-5.7 21.1 2.8 20.4 3-.2 5.7 1.4 5.7 4.1s-.2 4.8-.7 5c-.7 0-7.8.7-15.6 1.6-12.8 1.6-14.2.9-10.3-3 2.3-2.8 5.5-4.4 6.9-3.7.9.7 1.4-1.6.2-5.5-2.3-8.9-4.4-8.5-17.4 3.4-11.3 10.1-20.2 12.4-20.2 4.6m23.8-34.1c-10.3-16.7-12.1-15.6-2.8.9 4.1 7.6 8.3 12.8 8.9 12.1 1-.4-1.9-6.4-6.1-13m11.7-27.8c7.8-3 6.9-8.3-1.4-8.3-5.5 0-6.9-2.3-6.9-10.3 0-10.8-.7-11.2-12.6-8.3-8.9 2.3-11 14.9-2.8 14.9 2.8 0 5 3 5 6.9.2 7.2 7.7 9.3 18.7 5.1m-266.6 49.1c.9-9.6-.7-12.1-9.2-14.2-7.1-2.1-8.5-3.7-6.9-10.3 1.4-5.7.2-8.9-3.4-10.3-4.4-1.6-4.8-3-1.4-7.1 2.1-2.8 5-4.4 6.2-4.1 1.4.2 2.8-.7 3-2.1 2.1-8.5 20.4-17.6 37.8-18.3 9.9-.2 20.4-2.3 23.1-4.8 6.2-5 5.7.2-.7 8.9-4.1 5.5-4.8 12.1-2.8 35.1 1.4 16.3.9 28-.9 28-5.5 0-11.2-7.8-11.2-15.6 0-13.3-5.5-11.9-12.8 3.7-5 10.8-9.6 15.4-14.2 15.4-4.3-.4-7-2.5-6.6-4.3m100.7-53.2c-7.8-8.9-7.6-17.6.9-17.6 5.7 0 6.9 2.1 6.2 11.9-.2 6.4-.9 11.9-.9 11.9-.3 0-3-2.7-6.2-6.2m180.6-13.3c-1.4-.9-2.3-5-2.3-8.9 0-4.4 1.6-5.7 5.5-4.4 3 .9 7.1 2.1 9.2 2.1 2.3 0 2.1 1.4-.9 3-2.8 2.1-6.2 2.3-8.3 1.4-1.6-1.4-2.3.2-.9 3.4 2 6.2 1.4 7.1-2.3 3.4" style="fill:#76b61e"/><path d="M397 214.3c-6.2-20.4-18.1-45.6-14-30 1.4 4.4-.9 11.5-6.4 19.5-4.4 6.9-8.9 14.2-9.6 16.3-1.4 3.7-35.3-30-34.6-34.4 1.6-9.9 6.9-17.4 12.8-19.5 3.7-.9 10.3-4.8 14-7.8 3.4-3 2.3-.2-2.8 6.2-5 6.2-8.9 11.9-8.3 12.6 2.3 2.3 22.9-6.2 22.9-9.6 0-1.6 1.4-2.3 3-1.4 1.6 1.4 2.3-.9 1.4-4.8-.9-3.7-3-6.9-4.4-6.9s-3.4-3-4.4-6.9c-3-11.9 6.2-7.6 11 5.5 4.1 11.2 5 11.9 14.9 9.9 14.9-3.4 19-7.8 11.9-13.3-8.5-6.2-7.8-9.9.7-4.8 3.7 2.3 8.3 8.9 10.3 14.2 4.4 12.6.2 15.6-16.3 13.3-13.5-2.3-13.5-3.7-.7 30.3 4.1 10.8 6.9 22.5 6.2 25.4-.9 3.6-3.9-2.8-7.6-13.8m-311.9-3.9c1.4-5.5 4.4-14 6.4-19 5-13.3 4.8-14.9-4.4-17.4-8.9-2.1-9.9-10.8-1.6-16 6.4-4.1 14.2-3.7 11.5.2-3.7 6.2 5.7 3.7 10.5-2.3 4.4-5.7 4.4-5.7 4.8 0 0 3 .9 5.7 2.8 5.7 1.4 0 10.5 7.6 20.9 16.7l18.1 17-7.6 10.3c-8.9 12.6-11 12.8-15.4 3-2.1-4.4-6.4-8.3-10.3-8.9-3.7-.7-9.2-2.1-11.9-3-2.8-.9-6.4-1.6-8.3-1.4-1.6.2-1.6-2.1-.7-5.5 1.6-3.7 1.4-4.8-.7-2.8-1.6 2.1-5 9.2-7.6 16-4 14.7-10.9 21.6-6.5 7.4m163.4-30c0-2.8-1.4-5-3.4-5-1.6 0-3.4-4.8-3.4-10.3 0-9.2.7-9.9 6.4-6.4 8.9 5.7 14.2 15.6 11.9 21.8-2.5 6.3-11.5 6.8-11.5-.1m10.3-20.4-7.8-8.5h7.1c6.2 0 7.6-2.1 7.6-10.5 0-9.6.7-10.3 11-9.2 8.3.7 11.7 3 12.1 7.8.9 5.7.2 5.7-2.8 1.6-3-4.4-4.1-4.4-6.9.7-2.1 3-5.7 8.3-8.5 10.8-2.8 2.8-4.1 7.6-3 10.3 3.1 7.8.4 6.8-8.8-3m164.4-29.4c-3-3-2.1-7.6 4.4-19 4.8-7.8 7.1-14.7 5-14.7-2.3 0-4.8 2.3-5.7 5-1.4 2.8-4.1 5-6.4 5-3 0-3.4-2.8-.2-11.9 2.8-9.2 5.5-11.9 11.5-11.9 7.6 0 7.6 0 1.6-9.2-3.4-5.5-7.6-10.8-9.6-12.8-5.7-5.7-22.2-13.3-24.1-10.8-.9.9-2.3 9.2-2.8 18.3 0 8.9-1.6 15.6-3.4 15.4-1.6-.7-4.4.7-6.2 3.4-1.6 2.8-2.3-3.4-.9-16 1.6-14.7.9-19-1.4-15.4-2.1 2.8-3.7 9.6-3.7 14.9v9.6l-7.8-7.6c-15.4-14.9-.2-44.5 22.2-43.8 14.7.2 25.9 4.4 20.4 7.8-2.8 1.6 1.4 6.4 11.2 14.2 8.5 6.4 17 11.5 18.8 11.5 3 0 4.8 5 3.7 11.2-.2 1.6.9 2.1 2.8.9 1.6-.9 4.8 2.8 7.1 8.5 4.4 10.3 4.1 10.8-10.5 24.8-8.3 7.8-16.3 17-18.3 20.2-2.9 5.2-4.7 5.9-7.7 2.4m-21.1-94.2c-4.4-.7-9.2 0-11 1.6-2.1 2.1.9 2.3 7.8 1.4 9.6-1.1 10.1-1.8 3.2-3m-9.6 78.7c-5.7-.9-7.8-3.7-7.8-10.3 0-6.9.9-7.8 4.4-4.8 2.8 2.1 5.5 3 6.4 2.1s4.4 1.6 8.3 5.7l6.4 7.8-7.6-6.4c-8.3-6.9-11-3-3.7 4.1 2.3 2.3 3.4 3.7 2.8 3.7-1-.3-5.1-1.3-9.2-1.9m-137.1-12.9c0-11.2.7-11.9 11.9-11.9 11 0 11.9.7 11.9 10.5v10.3l-11-7.6-11.2-7.7 8.3 9.2 8.3 9.2h-8.9c-8.4-.1-9.3-1.4-9.3-12M362 82.1c-9.6-9.9-9.9-12.1-1.6-12.1 7.8 0 19 11.9 16 16.7-3.2 5.2-5.9 4.3-14.4-4.6M200.8 67.4c0-4.8 4.8-9.6 13.5-14 4.8-2.3 12.1-7.6 17-11.5l8.5-6.9-9.2 5.5c-13.3 7.8-16.7 6.9-4.4-1.4 14.2-9.6 18.8-8.5 19 4.4.2 9.2 1.4 7.1 7.1-11.2 8.3-26.8 11.9-31.6 10.3-13.5-1.4 11.5-.2 13.5 5 13.5 6.9 0 19.7 12.1 30 28.2 5.7 8.9 5.7 9.2-.2 9.2-3.7 0-9.2-4.8-12.1-10.3-8.3-14.2-22.5-14.2-25.2 0-2.1 9.2-3.4 10.3-15.4 10.3-11 0-13.3-.9-13.3-6.9 0-4.4-2.3-6.9-6.9-6.9-4.4 0-6.9 2.3-6.9 6.9 0 5-2.3 6.9-8.5 6.9-4.6.2-8.3-.9-8.3-2.3M304 61c-3.4-4.8-9.6-12.8-14-18.3l-7.8-9.9 12.8 2.1c17 2.3 19.7 5.5 15.4 17.4-2.3 7.1-2.3 11.2.2 14 2.1 2.1 2.8 3.7 1.4 3.7-.9-.1-4.6-4.2-8-9m132.7-6.4c-3.4-3.4-3-4.8.7-6.2 2.3-.9 7.1 1.4 11 5.5 4.4 5.5 4.8 6.2.2 3-3-2.3-6.2-3-6.9-.9-.2 1.5-2.5.8-5-1.4m-239.3-4.4c0-3 23.4-19 25.2-17.4.7.7-4.8 5.5-11.9 10.5-7.1 5.1-13.3 8-13.3 6.9" style="fill:#6fa539"/><path d="M262.5 507.2c-3-3.4-2.1-9.2 3.7-24.5 4.1-11.2 8.5-21.8 10.3-24.1 3.7-5 16-2.8 22.9 4.1 4.8 4.4 4.4 5-3.4 5s-9.6 2.1-14.9 22c-6 21.9-11 26.7-18.6 17.5m37.1-12.6c0-11.9 1.4-16.7 4.8-16.7 4.8 0 8.9 9.9 8.9 22.5 0 4.4-2.8 8.3-6.9 9.2-6.1 1.8-6.8-.1-6.8-15m11.3-33c-8.3-7.1-10.3-11.2-8.9-18.3.9-4.8 0-11.5-2.1-15.4-3-5-3.4-4.8-3.7 4.8 0 13.3-2.3 14.9-14.9 9.6-7.8-3.4-8.5-4.4-3.7-6.4 4.1-1.4 5-4.4 3.7-10.3-2.3-10.3.7-19 6.4-19 2.8 0 9.2 4.1 14.9 8.9 7.8 6.4 10.5 11.5 10.5 19.7 0 5.7 3 16.3 6.4 23.4 7.6 14.9 6 15.6-8.6 3m-4.4-56.8c-7.8-8.3-7.8-8.5-.9-8.5 4.4 0 7.8 2.8 8.9 7.6 2.8 10.5 1.2 10.7-8 .9m-21.3-20.4c-.7-.9-.2-10.8.9-22 2.3-20.4 9.9-33.9 18.3-33.9 4.8 0 8.5 14.9 8.5 34.4 0 10.8-.9 13.3-6.9 13.3-3.7 0-6.9 2.3-6.9 5 .5 4.6-9.8 7.1-13.9 3.2" style="fill:#9d7440"/><path d="M265.5 505.6c0-4.1 2.8-16.3 5.7-28 5.5-19.5 6.2-20.4 15.6-19.5 18.8 2.1 33 36.4 20.4 49.1-5.7 5.7-6.2 5-8.9-14.9-3.7-27.5-11-28.2-14.7-1.4-2.8 16.3-4.1 19.5-10.5 20.4-5.8 1-7.6-.6-7.6-5.7m47-43.5c-10.5-8.3-11.9-10.8-10.5-20.4 2.3-13.3-1.4-14.7-5.7-3-2.8 7.8-3.7 8.3-13.5 4.4-8.9-3.4-9.6-4.1-3.7-6.2 4.4-2.1 5.7-4.8 4.8-11.2-.9-4.8-.9-11.2.2-14 1.6-4.8 3-4.8 12.1 0 12.6 6.4 17 14.7 17 30.9 0 8.5 2.3 15.6 7.6 20.9 9.8 10.5 6.3 9.8-8.3-1.4m-14-65.3c-9.9-9.9-14.9-17.6-12.8-19 2.1-.9 3.7-8.9 3.7-17 0-10.8 2.3-17.4 8.3-24.5 6.4-7.6 8.9-8.5 10.3-4.4 1.4 3.4 8.3 81.6 7.1 81.6-.1-.2-7.7-7.6-16.6-16.7" style="fill:#a67d46"/><path d="M83.5 215.5c1.4-4.4 3.7-9.2 5.5-11.2 1.6-1.6 1.4 1.6-.7 7.8-4.1 12.1-8.3 14.8-4.8 3.4m306.2-23c-9.6-25.9-38.5-74.3-58.9-99-7.1-8.5-14.9-18.3-17.6-22-4.8-6.4-4.8-6.9 2.1-.7 8.5 7.1 13.5 7.1 25.9.9 5-2.8 12.6-4.1 17-3 10.3 2.8 20.4 11.5 18.3 16.3-.7 2.1 1.4 5.5 4.8 7.8 7.8 4.8 22.5 25.2 16.3 22.7-8.3-3-30 7.8-30 14.9 0 5 1.6 6.2 7.8 4.8 5.7-1.4 6.4-.9 2.3 2.1-4.1 2.8-4.4 5-.9 12.8 17 41.9 25.2 63.3 23.8 64.6-1 1-5.6-8.9-10.9-22.2m-297-3.6c3.4-9.9 9.6-17 9.6-11.2 0 5-8.5 21.3-11 21.3-1.4.2-.7-4.6 1.4-10.1m23.8-12.2c-4.1-2.8-6.9-6.9-5.7-8.5.9-1.6-.2-2.1-3-.9-7.6 2.8-7.1.9 6.9-26.1 11.5-23.4 36-54.1 43.3-54.1 2.1 0-.7 4.4-6.2 10.3-8.9 9.6-9.6 10.8-5.7 22.7 5 18.1 7.6 38.5 4.4 38.5-1.6 0-4.8-2.3-7.1-5-2.3-2.8-6.4-5-9.2-5-3.4 0-1.6 3.7 5.5 11.9 5.7 6.9 10.5 14.2 10.5 17-.5 6.6-23.9 6.3-33.7-.8m207-6.6c0-4.8 3.7-11.5 8.5-16 8.5-7.6 11.2-16.3 5.5-16.3-2.1 0-4.4 1.6-5.5 3.4-.9 2.1-6.2 3.4-11 3.4-8.5 0-8.5-.2-3-6.4 3-3.4 4.8-8.5 3.7-11.5-2.1-4.8 6.4-26.1 10.3-26.1 2.8 0 28.9 40.6 28.9 44.5 0 2.3-3.4 8.3-7.6 12.8l-7.8 8.5 9.9-6.2 9.9-6.2-9.9 12.1c-7.8 9.6-12.1 12.1-20.9 12.1-9.7.6-11-.6-11-8.1m-32.4-22.7c-8.5-9.9-9.6-10.5-13.5-5-6.9 9.6-8.5 6.9-8.5-13.5v-19l8.5 7.8c4.8 4.4 8.5 9.9 8.5 12.6 0 2.3 2.3 4.4 5 4.4s5-1.4 5-3.4c0-1.6 3-.7 6.9 2.3 3.7 3 5.7 6.4 5 7.1-.9.9-3.7-.2-6.9-2.8-6.2-5-6.2-4.8-2.1 9.6 1.6 5.7 2.8 10.8 2.1 10.8-.6-.1-4.9-4.7-10-10.9m-78.6-21.6c-.9-4.8-3.4-8.5-5-8.5-2.1 0-1.4-2.1.9-4.8s5.5-4.1 6.4-3.4c.9.2 7.1-2.3 13.5-6.2 8.9-5.7 10.3-7.8 5.7-8.9-3.4-.7-6.2-4.1-6.2-7.8 0-5 2.3-6.4 11.9-6.4 11.2 0 11.9.7 11.9 11.9 0 10.3-.9 11.9-7.8 11.9s-7.6 1.4-6.4 15.4l1.4 15.4h-12.1c-10.3.1-12.6-1.2-14.2-8.6m-96.5-8c-5.7-3.7-2.8-9.2 6.4-11.5 7.8-2.1 8.5.7 2.8 8.9-3 3.5-6 4.7-9.2 2.6m161.2-8.5-9.9-8.5 9.6-.2c5.7 0 9.2-1.6 9.2-5 0-2.8 1.6-5 3.4-5 2.1 0 3.4-2.8 3.4-6.2 0-4.8-5-8.3-18.8-12.6-17.6-6.2-18.8-7.1-18.8-17.6 0-9.9.9-11.2 9.6-11.2 16.7 0 23.8 4.1 33 17.6l9.2 14-6.4 20.4c-3.7 11.2-8.3 21.1-10.3 21.8-2 .3-8.2-2.7-13.2-7.5m-72.9-8.4c-1.6-3.7-3.4-13.5-3.4-22 0-14.9.7-16 17.6-27.5 9.9-6.4 19-11.9 20.4-11.9 1.6 0 2.8 6.2 2.8 13.5s-1.4 13.5-3.4 13.5c-7.1 0-17 14-17 23.8-.1 13.3-11.5 20.4-17 10.6m180.8-17.2c-.2-6.9.2-7.1 4.8-3.7 5.5 4.8 7.1 8.5 2.1 5.5-1.6-1.4-4.1 0-4.8 2.1-1.2 2.2-2.1.6-2.1-3.9" style="fill:#84c625"/><path d="M398.9 217.1c-2.1-6.9-2.3-10.8-.7-9.2 3.4 3.4 8.5 21.8 6.2 21.8-.9 0-3.5-5.5-5.5-12.6M92.2 191.6c3.7-9.9 9.2-22.7 12.1-28.9 5.7-12.8 14.7-17.4 14.7-7.8 0 5.7 11.5 17 17.6 17 6.4 0 2.1-6.4-4.8-7.6-6.2-.7-7.8-3.4-8.3-11.9-.2-10.8 5.7-15.4 10.5-7.8.9 2.1.2 3.4-1.6 3.4-2.1 0 2.3 7.6 9.9 16.3 7.8 9.2 14 19.5 14 23.4 0 7.8-14 21.8-16 16-.7-2.3-8.9-10.3-18.1-18.1l-16.7-14.2-8.5 19c-10.8 23.9-14 24.6-4.8 1.2m237-6.4c-10.3-13.3-8.5-23.4 4.1-23.4 6.9 0 7.8.7 3.7 3.4-4.4 2.8-4.1 3.4.9 3.4 3.7 0 11.2-3.4 17-7.6l11-7.8-9.2 11.5c-5.5 6.2-9.6 14-9.6 17.4 0 3-2.1 7.8-4.8 9.9-3.5 3.1-6.2 1.7-13.1-6.8m-73.8-11.7c0-4.1-4.4-5-19.5-5l-19.7-.2 11.2-10.3c14.9-13.5 12.6-19.5-3.4-8.5-7.1 4.8-13.5 7.6-14.2 5.7-.9-1.4-2.8-10.3-4.1-20.2-1.6-12.8-.9-18.3 2.8-21.8 7.6-7.1 12.1-6.4 14.2 1.6 1.6 6.9 3.7 7.6 14 6.4 10.5-1.4 11.9-.2 11.9 6.2 0 4.4 2.8 8.3 6.9 9.2 4.4.9 6.9 4.8 6.9 9.9 0 4.8 2.1 8.3 4.8 8.3 3 0 4.1 2.3 3 7.1-1.6 6.4-2.8 6.2-14.9-5.7-15.6-15.4-17.4-10.8-3 7.1 11.2 14.2 11.9 15.4 6.9 15.4-2.2.1-3.8-2.4-3.8-5.2m113-25.4c-6.2-9.9-5-16.3 1.4-7.6 2.8 4.1 4.8 9.2 4.1 10.8-.7 2.3-3.2.4-5.5-3.2m37.4-51.8C403 85 392.9 80.7 387.4 88c-2.8 3.7-.2-41.3 2.3-45.6 4.1-6.4 21.5-3 34.6 6.4 14.7 10.5 31.6 30.7 31.6 37.4 0 4.4-16 11.5-20.9 8.9-1.4-.9-4.8.9-7.1 5-6.8 11.3-18.7 9.2-22.1-3.8M231.6 73.1c0-8.3-1.4-10.3-7.6-10.3-6.9-.2-6.2-1.4 4.1-6.9 15.6-8.5 10.3-8.5-7.6 0-20.4 9.9-19.5 6.4 2.3-8.3l18.8-12.1V49c0 18.3 4.8 14.9 9.9-7.6 5-23.1 11-33 9.9-16.3-.9 11.2-.2 11.9 10.5 13.5 9.2 1.4 14.2 5 23.4 18.1 11 15.4 11.2 16 4.1 16-4.8 0-6.9-1.6-5.7-4.4 2.8-7.6-2.1-11.9-14.7-12.8-15.6-1.4-19 .9-21.8 15.6-2.1 10.8-3.4 11.9-14 11.9-10.7.4-11.6-.3-11.6-9.9" style="fill:#7eb63d"/><path d="M228.1 203.5c-4.8-6.2-6.9-12.8-6.2-18.3.9-6.4 0-8.5-3-7.6-6.4 2.3-5.5-7.1 1.6-13.3 11.9-10.8 20.4-10.5 31.6.2 9.2 9.6 9.9 11.2 5.7 18.1-12.1 21.1-18.3 30-20.4 30-1 .1-5.2-4-9.3-9.1m9.2-28.8c-.7-4.4-1.4-.9-1.4 7.6s.7 11.9 1.4 7.8c.7-4.7.7-11.3 0-15.4m-94.2 17.6c0-4.4-4.1-8.5-11.9-11.5-6.4-3-13.3-8.5-14.7-12.6l-3.2-7.6-5.5 7.8c-9.2 12.8-9.2 6.4-.2-12.8 7.8-17 12.6-22.5 11.2-13.3-1.4 12.1 1.4 19.7 8.9 24.8 4.8 3 9.6 4.8 11 3.7.9-1.4-2.1-3.7-7.1-5.7-7.1-2.8-8.9-5-8.3-13.5.7-11.2 1.6-11.9 9.6-6.9 4.1 2.8 4.1 3.4-1.6 3.4-6.4.2-6.2.7 1.4 5.7 4.4 3.4 11.5 11.5 16 18.8 7.1 10.8 7.6 14 4.1 19.7-5.8 8.7-9.7 8.7-9.7 0m183.3-11.2c-2.1-4.8-3-12.6-1.6-17.4 2.1-7.8 3-8.3 8.9-4.8 4.8 3 5.5 4.8 2.3 6.9-2.8 1.6-2.3 2.8 1.6 2.8 4.4 0 5 2.1 3 9.2-3.2 12-9.3 13.4-14.2 3.3m-72.2-26.2c-5-5.5-11-10.3-12.6-10.3-2.1 0-3.4-3.4-3.7-7.6 0-4.4-.9-5.7-2.1-3.4-3 7.8-14.7 4.4-21.1-6.4-4.1-6.9-7.1-8.9-8.3-5.7q-2.1 5.55-2.1 0c-.2-4.4 6.9-13.5 11.9-15.4.9-.2 4.1 4.1 6.9 9.6 4.4 9.9 4.4 9.9 2.8.9-1.6-7.1 0-11.2 7.8-17.6 8.9-7.8 8.9-8.5 1.6-6.4-7.6 1.6-7.6 1.4-5.5-12.1 2.8-17.4-2.8-18.8-12.1-2.8-6.2 9.9-6.9 10.3-6.9 3 0-11.9 5.5-19.7 17-24.5 5.7-2.3 9.9-4.8 9.2-5.5-3.4-3.7-26.6 9.9-30.9 18.3-4.8 8.5-5 8.9-5.5 1.6 0-5.7 4.4-10.5 16.3-18.1 8.9-5.5 17.6-10.3 20.2-10.3 2.3 0 4.4 6.4 5 16.3l.9 16 4.8-19.5c4.4-18.3 10.5-26.6 10.5-14.7 0 3.7 3.7 5 14.7 5 12.6 0 15.4 1.6 23.8 13.3 5 7.8 8.3 15.6 7.1 18.8-2.3 6.2-11.7 7.6-11.7 1.6 0-7.1-9.9-13.3-21.5-13.3-13.3 0-14.7 2.3-18.1 36.7l-2.3 20.2 15.6 3.7 15.4 4.1-7.1 17c-3.7 9.2-8.3 17-9.2 17-.9.6-5.9-3.7-10.8-9.5m39.9-93.5c-1.4-2.8-6.2-5-11.2-5l-8.9.2 10.3 4.8c5.7 2.3 10.5 4.8 11 4.8.2.3-.3-2.3-1.2-4.8" style="fill:#7dc13a"/><path d="M270.7 497.4c5-32.3 6.9-37.4 14.2-38.5 10.3-1.6 21.1 8.5 23.4 21.8 2.1 9.6 1.4 10.8-5 10.8-4.4 0-7.1-2.3-7.6-5.7-.2-9.9-5.7 5.5-6.2 17-.2 7.8-1.6 9.2-11 9.2-9.8 0-9.8 0-7.8-14.6m25.5 6.2c0-6.2 1.6-8.5 6.9-8.5 8.3 0 9.6 11.9 1.4 14.9-8.1 3-8.3 2.7-8.3-6.4m13.3-44c-7.1-6.2-8.5-9.9-7.1-18.3 1.6-12.8-1.6-14.2-6.2-2.3-3 7.8-4.1 8.3-12.6 4.1-6.9-3-7.8-4.4-3.4-5 4.4-.9 5.7-4.8 5.7-14.7 0-15.4 4.8-17 16.3-6.4 5.5 5 7.6 10.8 7.6 21.1 0 9.9 2.3 16.7 7.6 22 9.5 10 3.5 9.8-7.9-.5M295.7 394c-8.3-8.5-13.3-14.7-11.2-13.5 4.8 2.8 8.3-4.8 8.3-17.6 0-5 3.7-14 8.3-19l8.5-9.6.9 37.1c.7 20.4.9 37.4.7 37.8-.1.4-6.8-6.5-15.5-15.2" style="fill:#b1894d"/><path d="M130 165c-5.7-2.3-7.6-5.5-6.9-13.5.7-9.9 6.9-13.5 11.2-6.9.9 2.1-.7 3.4-3.7 3.4-4.8 0-4.1 2.1 3.7 10.3 10.4 10.4 9.5 11.8-4.3 6.7m-17.6-15.6c0-8.3 22.5-44.5 32.8-52.5 3.4-2.8.7 2.8-6.4 12.1-6.9 9.6-15.6 24.1-19.5 32.3-4.6 10.2-6.9 13-6.9 8.1m158.3-.4c1.6-6.4 0-7.8-11.9-11.2-7.6-2.1-15.4-2.8-17-1.6-2.1 1.4-3.7-2.8-3.7-9.2-.2-6.2-.9-8.5-2.1-5-2.3 9.2-7.1 6.9-9.6-4.8-1.6-7.8-.9-11.5 4.1-14.9 5.5-4.1 6.4-3.7 8.3 4.4 2.1 8.3 2.3 7.8 2.8-3.4.2-12.6 0-12.6-8.9-9.2-5 2.1-11.2 5-13.5 7.1-6.4 5.5-9.2.9-8.5-13.5 1.4-19 3.7-24.1 14.2-29.6 15.4-7.8 17-6.4 17.4 12.8.2 18.1.7 17.4 6.9-13.5 2.1-9.9 5-18.1 6.9-18.1 1.6 0 3 2.8 2.3 5.7-.7 4.1 4.4 7.8 18.3 13.3 18.8 7.1 19.5 7.1 16.3.9-5.7-10.5-1.4-7.6 6.2 4.1 7.1 11.5 6.4 23.4-1.6 23.4-2.3 0-11.9-3.7-20.9-8.5-22.2-11.9-23.8-11.2-21.8 6.9.9 9.6.2 15.4-2.1 15.4-1.6 0-2.8 3-1.6 6.4 2.1 8.3 14.7 12.1 14.7 4.4 0-4.1 1.6-3.4 8.5 2.8 10.3 9.6 10.5 14.9 1.4 30.7-4.1 6.7-6.2 8.3-5.1 4.2m2.6-43.6-9.6-8.3 12.8-.2c11.2 0 12.6.9 12.6 8.5.2 10.6-3.5 11-15.8 0" style="fill:#8dd040"/><path d="M277.4 508.6c-2.1-3 1.4-22.7 7.1-44.5 2.3-8.9 14-3.7 19.7 8.9 6.4 13.3 7.1 29.3 1.4 35.1-5.1 4.9-25 5.3-28.2.5m8.5-64.6c-3.4-2.1-3.7-3.4-.7-3.4 2.3 0 4.1-5 4.1-13.5 0-8.9 1.6-13.5 4.4-13.5 7.8 0 12.6 7.8 12.1 20.4-.2 10.5-.7 11.2-3 3.4l-2.3-8.5-3.7 9.6c-4.3 10.3-4 9.8-10.9 5.5m12.4-47.2c-12.8-13.3-12.8-13.3-4.1-12.6 8.3.9 8.9 0 8.9-11.9 0-25.4 6.4-16.3 7.6 10.5.7 14.9.9 27.3.9 27.3-.5 0-6.2-6.2-13.3-13.3" style="fill:#ba9456"/><path d="M252 98.8c0-11.2.7-11.9 11.9-11.9 11 0 11.9.7 11.9 10.3v10.3l-9.2-5.7L257 96l6.4 7.6c6.4 7.6 6.4 7.6-2.3 7.6-8.2-.5-9.1-1.9-9.1-12.4" style="fill:#98c54d"/><path d="M87.2 205.8c3.7-14 14.9-38.5 16.7-36.7.9.9-2.8 11.5-8.5 23.4-6 12-9.6 18.1-8.2 13.3m291-39.6c-9.6-19.7-38.7-63.9-50.7-76.6-4.8-5-7.8-10.3-6.9-11.2 4.1-4.1 49.7 59.6 61.2 85.7 9.1 20.4 6.3 22-3.6 2.1m-268.8-14.5c2.1-5.7 5.7-11.9 8.3-14 3.7-3 3.4-.7-.7 9.9-6.2 16.1-12.9 19.5-7.6 4.1" style="fill:#a1d935"/><path d="M239.6 124.7c.9-6.2 2.1-12.6 2.1-14.2 0-1.4 2.8-3.4 6.2-4.1 5-1.4 5-1.6-.2-2.1-5.5-.2-6.2-2.3-4.1-14.7 4.1-29.3 5.7-33.2 11-33.2 4.4 0 5 3 3 18.8L255.4 94h10.3c8.3 0 10.3 1.4 10.3 7.6 0 6.9-.2 7.1-6.9.9-12.1-10.8-10.5-3.4 1.6 8.5 6.4 6.4 11.9 13.3 11.9 15.4 0 4.1-17.6 4.4-29.6.2-5-1.6-8.5-.7-11.2 3.7-3.1 4.9-3.6 3.8-2.2-5.6m-21.8-31.4c0-4.1 2.3-6.4 6.4-6.4 7.1 0 10.5-6.2 10.5-19.7 0-5.7.9-7.6 2.8-5 1.4 2.3 2.1 9.9 1.4 17.4-.9 10.8-3 13.5-11.2 16.7-8.8 3.2-9.9 2.7-9.9-3" style="fill:#97d84d"/><path d="M279.2 505.2c.2-13.5 9.6-47.2 10.3-37.4.7 6.2 1.4 6.9 2.3 2.8.7-3.4 3-6.2 5-6.2 1.6 0 2.3 2.3 1.4 5.5-.9 3-2.1 12.8-2.1 22 0 19.5-6.4 22.7-7.6 4.1l-.2-12.8-1.4 11.9c-1.7 14.2-7.7 22.5-7.7 10.1m28.2-48.4c-4.8-6.2-7.8-33-4.1-35.3 1.6-.9 3 5.7 3 14.7 0 9.2 1.6 18.3 4.1 20.9 2.3 2.3 3 4.1 2.1 4.1-1-.3-3.5-2.3-5.1-4.4m-21.5-13.1c-4.4-2.3-4.1-3 .7-3 3 0 6.4-2.1 7.1-4.1.9-2.8 2.1-2.3 2.1 1.4.4 7.3-3.7 9.6-9.9 5.7m11.7-48.1c-5.5-6.2-6.4-8.3-2.1-4.8 7.6 6.4 7.6 6.4 7.8-1.6.2-6.2.9-5.5 3 3.7 1.6 6.4 2.3 12.1 2.1 12.6-.3.7-5.3-3.9-10.8-9.9" style="fill:#c49d5c"/><path d="M105.5 163c0-7.8 24.5-49.1 36.7-62.3L157.1 85l-14 17c-7.6 9.6-18.3 27.5-24.1 40.1-8.9 20.6-13.5 27.3-13.5 20.9m159.1-41.5c-14.2-4.4-17-4.4-19.7-.2-4.1 6.9-4.1-10.8.7-43.5 3.4-23.8 9.9-41.9 9.9-27.5 0 3.4 4.8 7.1 12.6 9.9 6.9 2.1 17.6 7.1 24.1 10.8 12.6 7.6 12.8 12.6 3.4 36.4l-4.4 10.5-14.7-10.5c-19-13.5-21.8-11.2-5 4.4 6.9 6.9 11.9 12.8 11.2 13.5-1.2 1-9.4-.6-18.1-3.8m70.3-23.4c-19.5-23.4-24.5-31.9-9.9-16.3 13.3 14.2 26.8 32.3 24.5 32.3-.6 0-7-7.3-14.6-16m-117.1-14c0-10.8 1.6-14.7 8.9-19.5 11-7.1 12.8-5 11.9 12.6-.9 17 .2 15.4-11.7 18.1-8.6 2.3-9.1 2.1-9.1-11.2" style="fill:#9de440"/><path d="M248.5 58.9c0-2.3 2.3-11.9 4.8-21.3 5-18.1 7.1-10.5 3.4 12.8-2 11.5-8.2 18.1-8.2 8.5" style="fill:#9ecd5f"/><path d="m263.4 110-9.9-10.5 11.2 7.8c5.7 4.4 11 9.2 11 10.8.1 4.5-1.7 3.4-12.3-8.1m-21.3.7c-.2-13.5 3.7-33.9 6.9-33.9 4.4 0 3.4 12.8-2.1 28.9-3.4 10.7-4.6 11.7-4.8 5m24.5-9.8c-8.5-7.1-10.3-11.2-3.4-8.5 3.4 1.4 14.7 15.4 11.9 14.9-.7-.5-4.4-3-8.5-6.4" style="fill:#abf44b"/><path d="M92.2 193.9c0-1.6 5.7-15.6 12.8-30.7 7.6-14.9 13.5-25.4 13.5-23.8 0 2.1-5.7 15.6-12.8 30.7-7.3 15.1-13.5 25.9-13.5 23.8m274.4-48.6c-8.5-14.7-23.4-37.1-33.5-50-9.6-12.6-16-22-14-20.9 11.2 6.9 70.8 97.2 63.9 97.2-.4.3-7.7-11.6-16.4-26.3m-125-36.7c0-13.3 7.8-54.3 11-57.5 3.7-3.4 2.1 10.5-4.4 45.2-3.4 17.4-6.6 23.1-6.6 12.3" style="fill:#b7eb48"/><path d="M243.7 90.3c3.4-26.8 8.9-37.4 6.4-12.1-.9 10.8-3.4 22.5-5 25.4-2.3 3.7-2.8-.5-1.4-13.3m8.5-46.1c0-3.7 1.4-9.9 3-13.5l3-6.9v6.9c0 3.7-1.4 9.9-3 13.5l-3 6.9z" style="fill:#a9dc6a"/><path d="M102.5 170.1c0-1.6 2.8-8.9 6.4-15.4 3.7-6.4 6.4-10.3 6.4-8.5 0 2.1-2.8 8.9-6.4 15.4-3.6 6.6-6.4 10.5-6.4 8.5M356.7 129c-8.9-14-15.4-25.2-14.7-25.2 2.3 0 33.7 47.7 32.1 49.1-.7.7-8.5-10.3-17.4-23.9M242.8 99.7c.9-6.2 3-18.8 4.4-28.2.9-9.2 3.7-19.5 5.5-22 3.4-5.5 1.4 12.6-4.4 43.5-3.9 19.1-8.7 25-5.5 6.7" style="fill:#c5f551"/><path d="M242.1 114.1c-.2-10.8 8.9-68.1 11.2-70.8 3-2.8 2.3 4.8-4.8 43.5-3.4 19.8-6.2 31.9-6.4 27.3" style="fill:#bbf175"/><path d="M247.1 79.8c.9-10.5 3.4-24.1 4.8-30.7 2.3-8.9 2.8-6.9 1.4 7.6-.9 10.5-3.4 24.1-4.8 30.7-2.3 8.6-2.7 6.6-1.4-7.6" style="fill:#d8f984"/></svg>