<?xml version="1.0" encoding="utf-8"?>
<!-- Generator: Adobe Illustrator 28.2.0, SVG Export Plug-In . SVG Version: 6.00 Build 0)  -->
<svg version="1.1" id="Layer_1" xmlns="http://www.w3.org/2000/svg" xmlns:xlink="http://www.w3.org/1999/xlink" x="0px" y="0px"
	 viewBox="0 0 512 512" style="enable-background:new 0 0 512 512;" xml:space="preserve">
<style type="text/css">
	.st0{clip-path:url(#XMLID_00000152226603426100538900000009103730569198986677_);}
</style>
<g>
	<g>
		<g>
			<g>
				<defs>
					<path id="XMLID_2_" d="M270.1,0h-230v512h137.3c12.8,0,23.2-10.4,23.2-23.2v-98.4H235c168.1,0,236.9-94.7,236.9-205.6
						C471.9,48.2,367.9,0,270.1,0z"/>
				</defs>
				<use xlink:href="#XMLID_2_"  style="overflow:visible;"/>
				<clipPath id="XMLID_00000022552005185001934850000009646329122134288044_">
					<use xlink:href="#XMLID_2_"  style="overflow:visible;"/>
				</clipPath>
				<g style="clip-path:url(#XMLID_00000022552005185001934850000009646329122134288044_);">
					<path d="M241.9-208.2l7.4,2.2c11,3.2,20.4,10.5,26.2,20.4l10.5,17.8c5.8,9.9,15.2,17.1,26.2,20.4l19.8,5.8
						c11,3.2,20.4,10.5,26.2,20.4l10.5,17.8c5.8,9.9,15.2,17.1,26.2,20.4l19.8,5.8c11,3.2,20.4,10.5,26.2,20.4l10.5,17.8
						c5.8,9.9,15.2,17.1,26.2,20.4l19.8,5.8c11,3.2,20.4,10.5,26.2,20.4l10.6,17.9c5.8,9.8,15.1,17.1,26,20.3l20.1,6
						c10.8,3.2,20,10.3,25.8,19.9l4,6.6c9.7,16,8.5,36.4-3,51.2l-26.6,34.1c-15.3,19.7-43.7,23.2-63.4,7.9L174.8-95
						c-19.7-15.3-23.2-43.7-7.9-63.4l26.6-34.1C204.9-207.2,224.1-213.4,241.9-208.2z"/>
					<path d="M532.1,68c2.5,1.3,5.1,2.4,7.9,3.2l20,6c10.8,3.2,20,10.4,25.8,20l4,6.6c9.6,16,8.4,36.4-3.1,51.1l-26.6,34.1
						c-15.4,19.7-43.7,23.2-63.4,7.8L154.8-69.9c-19.7-15.3-23.2-43.7-7.8-63.4l26.6-34.1c11.4-14.6,30.6-20.8,48.4-15.6l7.4,2.2
						c11,3.2,20.3,10.5,26.2,20.4l10.5,17.8c5.8,9.9,15.2,17.2,26.2,20.4l19.8,5.8c11,3.2,20.3,10.5,26.2,20.4l10.5,17.8
						c5.8,9.9,15.2,17.2,26.2,20.4l19.8,5.8c11,3.2,20.3,10.5,26.2,20.4l10.5,17.8c5.8,9.9,15.2,17.2,26.2,20.4l19.8,5.8
						c11,3.2,20.3,10.5,26.2,20.4L514,50.8C518.3,58.2,524.6,64.1,532.1,68"/>
					<path d="M202-157.7l7.4,2.2c11,3.2,20.3,10.6,26.1,20.4l10.5,17.8c5.8,9.9,15.2,17.2,26.1,20.4L292-91
						c11,3.2,20.3,10.6,26.1,20.4l10.5,17.8c5.8,9.9,15.2,17.2,26.1,20.4l19.8,5.9c11,3.2,20.3,10.6,26.1,20.4l10.5,17.8
						c5.8,9.9,15.2,17.2,26.1,20.4l19.8,5.9c11,3.2,20.3,10.6,26.1,20.4l10.5,17.9c5.8,9.8,15.1,17.1,26,20.4l20,6
						c10.8,3.2,20.1,10.4,25.9,20.1l4,6.6c9.6,16,8.3,36.3-3.2,51l-26.6,34c-15.4,19.7-43.8,23.1-63.4,7.8l-341.6-267
						c-19.7-15.4-23.2-43.8-7.8-63.4l26.6-34.1C165-156.9,184.2-163,202-157.7z"/>
					<path d="M240-119.2l7.4,2.2c11,3.3,20.3,10.6,26.1,20.5L284-78.7c5.8,9.9,15.1,17.2,26.1,20.5l19.8,5.9
						c11,3.3,20.3,10.6,26.1,20.5l10.5,17.8c5.8,9.9,15.1,17.2,26.1,20.5l19.8,5.9c11,3.3,20.3,10.6,26.1,20.5L449,50.5
						c5.8,9.9,15.1,17.2,26.1,20.5l19.8,5.9c11,3.3,20.3,10.6,26.1,20.5l10.5,17.9c5.8,9.9,15.1,17.2,26,20.4l19.9,6
						c10.9,3.3,20.1,10.5,25.9,20.2l4,6.7c9.5,16,8.2,36.3-3.3,51l-26.7,34c-15.4,19.6-43.8,23.1-63.4,7.7L172.6-6.2
						c-19.7-15.4-23.1-43.8-7.7-63.4l26.7-34.1C203-118.3,222.2-124.5,240-119.2z"/>
					<path d="M162.2-107.3l7.4,2.2c11,3.3,20.3,10.6,26.1,20.5l10.4,17.8c5.8,9.9,15.1,17.2,26.1,20.5l19.8,5.9
						c11,3.3,20.3,10.6,26.1,20.5L288.6-2c5.8,9.9,15.1,17.2,26.1,20.5l19.8,5.9c11,3.3,20.3,10.6,26.1,20.5L371,62.7
						c5.8,9.9,15.1,17.2,26.1,20.5l19.8,5.9c11,3.3,20.3,10.6,26.1,20.5l10.5,17.9c5.8,9.9,15.1,17.2,26,20.5l19.9,6
						c10.9,3.3,20.2,10.5,26,20.3l3.9,6.7c9.5,16,8.1,36.2-3.4,50.9l-26.7,34c-15.4,19.6-43.8,23-63.4,7.6L94.6,5.6
						C75-9.8,71.6-38.2,87-57.8l26.7-34C125.2-106.5,144.4-112.6,162.2-107.3z"/>
					<path d="M101.7-175.7l7.1,3.1c10.5,4.5,18.9,12.9,23.5,23.4l8.3,18.9c4.6,10.5,13,18.8,23.5,23.4l19,8.2
						c10.5,4.5,18.9,12.9,23.5,23.4l8.3,18.9c4.6,10.5,13,18.8,23.5,23.4l19,8.2c10.5,4.5,18.9,12.9,23.5,23.4l8.3,18.9
						c4.6,10.5,13,18.8,23.5,23.4l19,8.2c10.5,4.5,18.9,12.9,23.5,23.4l8.3,19c4.6,10.5,13,18.8,23.5,23.3l19.1,8.2
						c10.5,4.5,18.8,12.8,23.4,23.2l3.1,7.1c7.5,17,3.9,36.9-9.3,50.1l-30.5,30.7c-17.6,17.7-46.2,17.8-63.9,0.2L21.5-71.3
						c-17.7-17.6-17.8-46.2-0.2-63.9L51.8-166C64.8-179.1,84.6-183,101.7-175.7z"/>
					<path d="M134.9-65.8l7.5,1.7c11.2,2.6,20.9,9.3,27.3,18.8l11.5,17.1c6.4,9.5,16.2,16.2,27.3,18.8l20.1,4.6
						c11.2,2.6,20.9,9.3,27.3,18.8l11.5,17.1c6.4,9.5,16.2,16.2,27.3,18.8l20.1,4.6c11.2,2.6,20.9,9.3,27.3,18.8L354,90.6
						c6.4,9.5,16.2,16.2,27.3,18.8l20.1,4.6c11.2,2.6,20.9,9.3,27.3,18.8l11.6,17.2c6.4,9.5,16.2,16.2,27.3,18.8l20.2,4.7
						c11.1,2.6,20.9,9.3,27.3,18.7l4.3,6.4c10.4,15.4,10.3,35.6-0.2,50.9l-24.5,35.6c-14.1,20.6-42.3,25.8-62.8,11.7L74.6,51.2
						C54.1,37,48.8,8.9,63-11.7l24.5-35.7C98-62.6,116.8-69.9,134.9-65.8z"/>
					<path d="M153.3-100l7,3.2c10.4,4.8,18.6,13.3,23,23.9l7.9,19.1c4.4,10.6,12.6,19.1,23,23.9l18.8,8.6
						c10.4,4.8,18.6,13.3,23,23.9l7.9,19.1c4.4,10.6,12.6,19.1,23,23.9l18.8,8.6c10.4,4.8,18.6,13.3,23,23.9l7.9,19.1
						c4.4,10.6,12.6,19.1,23,23.9l18.8,8.6c10.4,4.8,18.6,13.3,23,23.9l7.9,19.1c4.4,10.6,12.6,19.1,23,23.9l18.8,8.6
						c10.4,4.8,18.6,13.3,23,23.8l3,7.2c7.1,17.2,3,37-10.4,49.8l-31.2,30c-18,17.3-46.6,16.8-63.9-1.2L70.8,2.5
						c-17.3-18-16.8-46.6,1.2-63.9l31.2-30C116.6-104.3,136.5-107.7,153.3-100z"/>
					<path d="M122.3-56.8l7.4,2.2c11,3.3,20.3,10.6,26,20.5l10.4,17.9c5.8,9.9,15.1,17.2,26,20.5l19.8,5.9c11,3.3,20.3,10.6,26,20.5
						l10.4,17.9c5.8,9.9,15.1,17.2,26,20.5l19.8,5.9c11,3.3,20.3,10.6,26,20.5l10.4,17.9c5.8,9.9,15.1,17.2,26,20.5l19.8,5.9
						c11,3.3,20.3,10.6,26,20.5l10.4,17.9c5.8,9.9,15.1,17.2,26,20.5l19.8,5.9c11,3.3,20.3,10.6,26,20.5l3.9,6.7
						c9.3,16,7.9,36.2-3.6,50.7l-26.8,34c-15.5,19.6-43.9,23-63.5,7.5L54.6,56C35,40.5,31.6,12.1,47.1-7.5l26.8-34
						C85.3-56.1,104.6-62.1,122.3-56.8z"/>
					<path d="M53.8-121.5l7.2,3c10.6,4.4,19.1,12.6,23.9,23l8.6,18.8c4.8,10.4,13.3,18.7,23.9,23l19.1,7.9
						c10.6,4.4,19.1,12.6,23.9,23L168.9-4c4.8,10.4,13.3,18.7,23.9,23l19.1,7.9c10.6,4.4,19.1,12.6,23.9,23l8.6,18.8
						c4.8,10.4,13.3,18.7,23.9,23l19.1,7.9c10.6,4.4,19.1,12.6,23.9,23l8.6,18.8c4.8,10.4,13.3,18.7,23.9,23l19.1,7.9
						c10.6,4.4,19.1,12.6,23.9,23l3.2,7c7.7,16.9,4.3,36.8-8.6,50.1l-30,31.2c-17.3,18-45.9,18.5-63.9,1.2L-24.8-16
						C-42.8-33.4-43.3-62-26-79.9l30-31.2C16.9-124.5,36.7-128.6,53.8-121.5z"/>
					<path d="M106.3-29.6l7.4,2.2c11,3.3,20.3,10.6,26,20.5L150.2,11c5.8,9.9,15.1,17.2,26,20.5l19.8,5.9c11,3.3,20.3,10.6,26,20.5
						l10.4,17.9c5.8,9.9,15.1,17.2,26,20.5l19.8,5.9c11,3.3,20.3,10.6,26,20.5l10.4,17.9c5.8,9.9,15.1,17.2,26,20.5l19.8,5.9
						c11,3.3,20.3,10.6,26,20.5l10.4,17.9c5.8,9.9,15.1,17.2,26,20.5l19.8,5.9c11,3.3,20.3,10.6,26,20.5l3.9,6.7
						c9.3,16,7.9,36.2-3.6,50.7l-26.8,34c-15.5,19.6-43.9,23-63.5,7.5L38.5,83.2c-19.6-15.5-23-43.9-7.5-63.5l26.8-34
						C69.3-28.8,88.6-34.9,106.3-29.6z"/>
					<path d="M45.2-104.2l7,3.2c10.4,4.8,18.6,13.4,22.9,24L83-57.8c4.3,10.6,12.5,19.2,22.9,24l18.8,8.6
						c10.4,4.8,18.6,13.4,22.9,24l7.8,19.1c4.3,10.6,12.5,19.2,22.9,24l18.8,8.6c10.4,4.8,18.6,13.4,22.9,24l7.8,19.1
						c4.3,10.6,12.5,19.2,22.9,24l18.8,8.6c10.4,4.8,18.6,13.4,22.9,24l7.8,19.1c4.3,10.6,12.5,19.2,22.9,24l18.8,8.6
						c10.4,4.8,18.6,13.4,22.9,24l2.9,7.2c7,17.2,2.8,36.9-10.6,49.7l-31.3,29.9c-18,17.3-46.6,16.6-63.9-1.4L-37.6-1.9
						c-17.3-18-16.6-46.6,1.4-63.9L-5-95.8C8.4-108.6,28.3-111.9,45.2-104.2z"/>
					<path d="M80.6-2.4L88-0.1c11,3.3,20.3,10.6,26,20.5l10.4,17.9c5.8,9.9,15.1,17.2,26,20.5l19.8,5.9c11,3.3,20.3,10.6,26,20.5
						l10.4,17.9c5.8,9.9,15.1,17.2,26,20.5l19.8,5.9c11,3.3,20.3,10.6,26,20.5l10.4,17.9c5.8,9.9,15.1,17.2,26,20.5l19.8,5.9
						c11,3.3,20.3,10.6,26,20.5l10.4,17.9c5.8,9.9,15.1,17.2,26,20.5l19.8,5.9c11,3.3,20.3,10.6,26,20.5l3.9,6.7
						c9.3,16,7.9,36.2-3.6,50.7l-26.8,34c-15.5,19.6-43.9,23-63.5,7.5L12.8,110.4c-19.6-15.5-23-43.9-7.5-63.5l26.8-34
						C43.6-1.6,62.9-7.7,80.6-2.4z"/>
					<path d="M90.9-10.9l7.1,3c10.6,4.4,19,12.7,23.7,23.2l8.4,18.9c4.7,10.5,13.2,18.8,23.7,23.2l19,8c10.6,4.4,19,12.7,23.7,23.2
						l8.4,18.9c4.7,10.5,13.2,18.8,23.7,23.2l19,8c10.6,4.4,19,12.7,23.7,23.2l8.4,18.9c4.7,10.5,13.2,18.8,23.7,23.2l19,8
						c10.6,4.4,19,12.7,23.7,23.2l8.4,18.9c4.7,10.5,12.3,23,22.9,27.4l20.3,16.9c10.6,4.4,17.4,1.4,22,11.9l5.1,5.1
						c7.6,16.9,3.3,37-9.7,50.2l-30.3,30.9c-17.5,17.8-46.1,18.2-63.9,0.7L11.5,93.9C-6.4,76.5-6.7,47.9,10.8,30L41-0.9
						C54-14.2,73.8-18.2,90.9-10.9z"/>
					<path d="M59.8,24.8l7.4,2.2c11,3.3,20.3,10.6,26,20.5l10.4,17.9c5.8,9.9,15.1,17.2,26,20.5l19.8,5.9c11,3.3,20.3,10.6,26,20.5
						l10.4,17.9c5.8,9.9,15.1,17.2,26,20.5l19.8,5.9c11,3.3,20.3,10.6,26,20.5l10.4,17.9c5.8,9.9,15.1,17.2,26,20.5l19.8,5.9
						c11,3.3,20.3,10.6,26,20.5l10.4,17.9c5.8,9.9,15.1,17.2,26,20.5l19.8,5.9c11,3.3,20.3,10.6,26,20.5l3.9,6.7
						c9.3,16,7.9,36.2-3.6,50.7l-26.8,34c-15.5,19.6-43.9,23-63.5,7.5L-8,137.6c-19.6-15.5-23-43.9-7.5-63.5l26.8-34
						C22.8,25.6,42,19.5,59.8,24.8z"/>
					<path d="M61.5,9l7.1,3.1c10.5,4.6,18.9,13,23.4,23.5l8.2,19c4.5,10.5,12.9,18.9,23.4,23.5l18.9,8.3c10.5,4.6,18.9,13,23.4,23.5
						l8.2,19c4.5,10.5,12.9,18.9,23.4,23.5l18.9,8.3c10.5,4.6,18.9,13,23.4,23.5l8.2,19c4.5,10.5,12.9,18.9,23.4,23.5l18.9,8.3
						c10.5,4.6,18.9,13,23.4,23.5l8.2,19c4.5,10.5,9.7,24.8,20.2,29.4l22.1,2.4c10.5,4.6,18.9,13,23.4,23.5l3.1,7.1
						c7.3,17,3.5,36.8-9.6,49.9l-30.7,30.5c-17.7,17.6-46.3,17.5-63.9-0.2L-19.3,112.8c-17.6-17.7-17.5-46.3,0.2-63.9l30.7-30.5
						C24.7,5.3,44.5,1.6,61.5,9z"/>
					<path d="M38.9,52.1l7.4,2.2c11,3.3,20.3,10.6,26,20.5l10.4,17.9c5.8,9.9,15.1,17.2,26,20.5l19.8,5.9c11,3.3,20.3,10.6,26,20.5
						l10.4,17.9c5.8,9.9,15.1,17.2,26,20.5l19.8,5.9c11,3.3,20.3,10.6,26,20.5l10.4,17.9c5.8,9.9,15.1,17.2,26,20.5l19.8,5.9
						c11,3.3,20.3,10.6,26,20.5l10.4,17.9c5.8,9.9,15.1,17.2,26,20.5l19.8,5.9c11,3.3,20.3,10.6,26,20.5l3.9,6.7
						c9.3,16,7.9,36.2-3.6,50.7l-26.8,34c-15.5,19.6-43.9,23-63.5,7.5L-28.9,164.8c-19.6-15.5-23-43.9-7.5-63.5l26.8-34
						C1.9,52.8,21.1,46.7,38.9,52.1z"/>
					<path d="M91.1,147.7l7.7,1.1c11.3,1.7,21.6,7.6,28.8,16.5l12.9,16.1c7.2,9,17.4,14.9,28.8,16.5l20.4,3
						c11.3,1.7,21.6,7.6,28.8,16.5l12.9,16.1c7.2,9,17.4,14.9,28.8,16.5l20.4,3c11.3,1.7,21.6,7.6,28.8,16.5l12.9,16.1
						c7.2,9,17.4,14.9,28.8,16.5l20.4,3c11.3,1.7,21.6,7.6,28.8,16.5l12.9,16.1c7.2,9,17.4,14.9,28.8,16.5l20.4,3
						c11.3,1.7,21.6,7.6,28.8,16.5l4.8,6c11.6,14.5,13.1,34.6,3.9,50.7l-21.5,37.5c-12.4,21.7-40,29.1-61.7,16.7L40.5,269.1
						c-21.7-12.4-29.1-40-16.7-61.7l21.5-37.5C54.6,153.8,72.7,145,91.1,147.7z"/>
					<path d="M18,79.3l7.4,2.2c11,3.3,20.3,10.6,26,20.5l10.4,17.9c5.8,9.9,15.1,17.2,26,20.5l19.8,5.9c11,3.3,20.3,10.6,26,20.5
						l10.4,17.9c5.8,9.9,15.1,17.2,26,20.5l19.8,5.9c11,3.3,20.3,10.6,26,20.5l10.4,17.9c5.8,9.9,15.1,17.2,26,20.5l19.8,5.9
						c11,3.3,20.3,10.6,26,20.5l10.4,17.9c5.8,9.9,15.1,17.2,26,20.5l19.8,5.9c11,3.3,20.3,10.6,26,20.5l3.9,6.7
						c9.3,16,7.9,36.2-3.6,50.7l-26.8,34c-15.5,19.6-43.9,23-63.5,7.5L-49.7,192c-19.6-15.5-23-43.9-7.5-63.5l26.8-34
						C-19,80,0.3,73.9,18,79.3z"/>
					<path d="M19.4,67l7.2,2.9c10.6,4.3,19.2,12.4,24.1,22.8l8.7,18.7c4.8,10.4,13.4,18.5,24.1,22.8l19.2,7.7
						c10.6,4.3,19.2,12.4,24.1,22.8l8.7,18.7c4.8,10.4,13.4,18.5,24.1,22.8l19.2,7.7c10.6,4.3,19.2,12.4,24.1,22.8l8.7,18.7
						c4.8,10.4,13.4,18.5,24.1,22.8l19.2,7.7c10.6,4.3,19.2,12.4,24.1,22.8l8.7,18.7c4.8,10.4,13.4,18.5,24.1,22.8l19.2,7.7
						c10.6,4.3,19.2,12.4,24.1,22.8l3.3,7c7.8,16.8,4.6,36.7-8.2,50.2l-29.8,31.4c-17.2,18.1-45.8,18.9-63.9,1.7L-58.4,173.1
						c-18.1-17.2-18.9-45.8-1.7-63.9l29.8-31.4C-17.5,64.3,2.2,60,19.4,67z"/>
					<path d="M-32.9,142l7.7,0.6c11.4,0.9,22.1,6,29.8,14.5l14,15.2c7.8,8.4,18.4,13.6,29.8,14.5l20.6,1.6
						c11.4,0.9,22.1,6,29.8,14.5l14,15.2c7.8,8.4,18.4,13.6,29.8,14.5l20.6,1.6c11.4,0.9,22.1,6,29.8,14.5l14,15.2
						c7.8,8.4,18.4,13.6,29.8,14.5l20.6,1.6c11.4,0.9,22.1,6,29.8,14.5l14,15.2c7.8,8.4,18.4,13.6,29.8,14.5l20.6,1.6
						c11.4,0.9,22.1,6,29.8,14.5l5.2,5.7c12.6,13.7,15.5,33.6,7.4,50.3l-18.9,38.9c-10.9,22.5-37.9,31.8-60.4,20.9L-74.9,266.6
						c-22.5-10.9-31.8-37.9-20.9-60.4l18.9-38.9C-68.9,150.6-51.4,140.6-32.9,142z"/>
					<path d="M-2.8,106.5l7.4,2.2c11,3.3,20.3,10.6,26,20.5L41,147.1c5.8,9.9,15.1,17.2,26,20.5l19.8,5.9c11,3.3,20.3,10.6,26,20.5
						l10.4,17.9c5.8,9.9,15.1,17.2,26,20.5l19.8,5.9c11,3.3,20.3,10.6,26,20.5l10.4,17.9c5.8,9.9,15.1,17.2,26,20.5l19.8,5.9
						c11,3.3,20.3,10.6,26,20.5l10.4,17.9c5.8,9.9,15.1,17.2,26,20.5l19.8,5.9c11,3.3,20.3,10.6,26,20.5l3.9,6.7
						c9.3,16,7.9,36.2-3.6,50.7l-26.8,34c-15.5,19.6-43.9,23-63.5,7.5L-70.6,219.2c-19.6-15.5-23-43.9-7.5-63.5l26.8-34
						C-39.8,107.2-20.6,101.1-2.8,106.5z"/>
					<path d="M0.1,90l7.1,3.1c10.5,4.6,18.8,13.1,23.3,23.6l8.1,19c4.5,10.5,12.8,19,23.3,23.6l18.9,8.4
						c10.5,4.6,18.8,13.1,23.3,23.6l8.1,19c4.5,10.5,12.8,19,23.3,23.6l18.9,8.4c10.5,4.6,18.8,13.1,23.3,23.6l8.1,19
						c4.5,10.5,12.8,19,23.3,23.6l18.9,8.4c10.5,4.6,18.8,13.1,23.3,23.6l8.1,19c4.5,10.5,12.8,19,23.3,23.6l18.9,8.4
						c10.5,4.6,18.8,13.1,23.3,23.6l3,7.1c7.3,17.1,3.3,36.9-9.9,49.9l-30.8,30.4c-17.8,17.5-46.4,17.3-63.9-0.5l-304.2-309
						c-17.5-17.8-17.3-46.4,0.5-63.9L-50,99.1C-36.7,86.1-16.9,82.5,0.1,90z"/>
					<path d="M-54.9,174.1l7.7,0.7c11.4,1,22,6.4,29.6,14.9l13.8,15.4c7.6,8.5,18.2,13.9,29.6,14.9l20.6,1.9
						c11.4,1,22,6.4,29.6,14.9l13.8,15.4c7.6,8.5,18.2,13.9,29.6,14.9l20.6,1.9c11.4,1,22,6.4,29.6,14.9l13.8,15.4
						c7.6,8.5,18.2,13.9,29.6,14.9l20.6,1.9c11.4,1,22,6.4,29.6,14.9l13.8,15.4c7.6,8.5,18.2,13.9,29.6,14.9l20.6,1.9
						c11.4,1,22,6.4,29.6,14.9l5.2,5.8c12.4,13.8,15,33.8,6.7,50.4l-19.4,38.7c-11.2,22.3-38.4,31.3-60.7,20.1L-98.7,298.1
						c-22.3-11.2-31.3-38.4-20.1-60.7l19.4-38.7C-91,182.2-73.3,172.4-54.9,174.1z"/>
					<path d="M-23.7,133.7l7.4,2.2c11,3.3,20.3,10.6,26,20.5l10.4,17.9c5.8,9.9,15.1,17.2,26,20.5l19.8,5.9
						c11,3.3,20.3,10.6,26,20.5l10.4,17.9c5.8,9.9,15.1,17.2,26,20.5l19.8,5.9c11,3.3,20.3,10.6,26,20.5l10.4,17.9
						c5.8,9.9,15.1,17.2,26,20.5l19.8,5.9c11,3.3,20.3,10.6,26,20.5l10.4,17.9c5.8,9.9,15.1,17.2,26,20.5l19.8,5.9
						c11,3.3,20.3,10.6,26,20.5l3.9,6.7c9.3,16,7.9,36.2-3.6,50.7l-26.8,34c-15.5,19.6-43.9,23-63.5,7.5L-91.5,246.4
						c-19.6-15.5-23-43.9-7.5-63.5l26.8-34C-60.7,134.4-41.4,128.4-23.7,133.7z"/>
					<path d="M-18.6,136.2l7.1,3.1c10.5,4.6,18.9,13,23.4,23.5l8.2,19c4.5,10.5,12.9,18.9,23.4,23.5l18.9,8.3
						c10.5,4.6,18.9,13,23.4,23.5l8.2,19c4.5,10.5,12.9,18.9,23.4,23.5l18.9,8.3c10.5,4.6,18.9,13,23.4,23.5l8.2,19
						c4.5,10.5,12.9,18.9,23.4,23.5l18.9,8.3c10.5,4.6,18.9,13,23.4,23.5l8.2,19c4.5,10.5,12.9,18.9,23.4,23.5l18.9,8.3
						c10.5,4.6,18.9,13,23.4,23.5l3.1,7.1c7.4,17,3.5,36.8-9.6,49.9l-30.7,30.5c-17.7,17.6-46.3,17.6-63.9-0.1L-99.3,240
						c-17.6-17.7-17.6-46.3,0.1-63.9l30.7-30.5C-55.4,132.5-35.6,128.8-18.6,136.2z"/>
					<path d="M-44.5,160.9l7.4,2.2c11,3.3,20.3,10.6,26,20.5l10.4,17.9c5.8,9.9,15.1,17.2,26,20.5l19.8,5.9
						c11,3.3,20.3,10.6,26,20.5l10.4,17.9c5.8,9.9,15.1,17.2,26,20.5l19.8,5.9c11,3.3,20.3,10.6,26,20.5l10.4,17.9
						c5.8,9.9,15.1,17.2,26,20.5l19.8,5.9c11,3.3,20.3,10.6,26,20.5l10.4,17.9c5.8,9.9,15.1,17.2,26,20.5l19.8,5.9
						c11,3.3,20.3,10.6,26,20.5l3.9,6.7c9.3,16,7.9,36.2-3.6,50.7l-26.8,34c-15.5,19.6-43.9,23-63.5,7.5l-340.5-268.5
						c-19.6-15.5-23-43.9-7.5-63.5l26.8-34C-81.5,161.6-62.3,155.6-44.5,160.9z"/>
					<path d="M-106,84.1l7,3.4c10.3,5,18.3,13.7,22.5,24.4l7.4,19.3c4.1,10.7,12.1,19.4,22.5,24.4l18.6,9
						c10.3,5,18.3,13.7,22.5,24.4l7.4,19.3C6,218.9,14,227.7,24.3,232.7l18.6,9c10.3,5,18.3,13.7,22.5,24.4l7.4,19.3
						c4.1,10.7,12.1,19.4,22.5,24.4l18.6,9c10.3,5,18.3,13.7,22.5,24.4l7.4,19.3c4.1,10.7,12.1,19.4,22.5,24.4l18.6,9
						c10.3,5,18.3,13.7,22.5,24.4l2.8,7.2c6.7,17.3,2.1,37-11.6,49.5l-31.8,29.3c-18.4,16.9-47,15.7-63.9-2.7l-293.6-319.1
						c-16.9-18.4-15.7-47,2.7-63.9l31.8-29.3C-142.6,78.9-122.7,76-106,84.1z"/>
					<path d="M-65.4,188.1l7.4,2.2c11,3.3,20.3,10.6,26,20.5l10.4,17.9c5.8,9.9,15.1,17.2,26,20.5l19.8,5.9
						c11,3.3,20.3,10.6,26,20.5l10.4,17.9c5.8,9.9,15.1,17.2,26,20.5l19.8,5.9c11,3.3,20.3,10.6,26,20.5l10.4,17.9
						c5.8,9.9,15.1,17.2,26,20.5l19.8,5.9c11,3.3,20.3,10.6,26,20.5l10.4,17.9c5.8,9.9,15.1,17.2,26,20.5l19.8,5.9
						c11,3.3,20.3,10.6,26,20.5l3.9,6.7c9.3,16,7.9,36.2-3.6,50.7l-26.8,34c-15.5,19.6-43.9,23-63.5,7.5l-340.5-268.5
						c-19.6-15.5-23-43.9-7.5-63.5l26.8-34C-102.4,188.8-83.2,182.8-65.4,188.1z"/>
					<path d="M-75.8,206.9l7.5,2c11.1,3,20.6,10,26.6,19.8l10.9,17.5c6,9.7,15.6,16.8,26.6,19.8l20,5.4c11.1,3,20.6,10,26.6,19.8
						l10.9,17.5c6,9.7,15.6,16.8,26.6,19.8l20,5.4c11.1,3,20.6,10,26.6,19.8l10.9,17.5c6,9.7,15.6,16.8,26.6,19.8l20,5.4
						c11.1,3,20.6,10,26.6,19.8l10.9,17.5c6,9.7,15.6,16.8,26.6,19.8l20,5.4c11.1,3,20.6,10,26.6,19.8l4.1,6.6
						c9.8,15.8,9,35.9-2.1,50.8L271,570.7c-14.9,20-43.2,24.2-63.2,9.3l-348.1-258.5c-20-14.9-24.2-43.2-9.3-63.2l25.8-34.7
						C-112.8,208.7-93.7,202.1-75.8,206.9z"/>
					<path d="M-54.7,196.2l7.1,3c10.5,4.5,19,12.8,23.7,23.3l8.4,18.9c4.7,10.5,13.1,18.8,23.7,23.3l19,8.1
						c10.5,4.5,19,12.8,23.7,23.3l8.4,18.9c4.7,10.5,13.1,18.8,23.7,23.3l19,8.1c10.5,4.5,19,12.8,23.7,23.3l8.4,18.9
						c4.7,10.5,13.1,18.8,23.7,23.3l19,8.1c10.5,4.5,19,12.8,23.7,23.3l8.4,18.9c4.7,10.5,13.1,18.8,23.7,23.3l19,8.1
						c10.5,4.5,19,12.8,23.7,23.3l3.1,7.1c7.5,17,3.9,36.8-9.1,50l-30.3,30.9c-17.5,17.8-46.1,18-63.9,0.6l-309.2-303.9
						c-17.8-17.5-18-46.1-0.6-63.9l30.3-30.9C-91.5,192.9-71.7,189-54.7,196.2z"/>
					<path d="M-84.6,215.3l7.4,2.2c11,3.3,20.3,10.6,26,20.5l10.4,17.9c5.8,9.9,15.1,17.2,26,20.5l19.8,5.9
						c11,3.3,20.3,10.6,26,20.5l10.4,17.9c5.8,9.9,15.1,17.2,26,20.5l19.8,5.9c11,3.3,20.3,10.6,26,20.5l10.4,17.9
						c5.8,9.9,15.1,17.2,26,20.5l19.8,5.9c11,3.3,20.3,10.6,26,20.5l10.4,17.9c5.8,9.9,15.1,17.2,26,20.5l19.8,5.9
						c11,3.3,20.3,10.6,26,20.5l3.9,6.7c9.3,16,7.9,36.2-3.6,50.7l-26.8,34c-15.5,19.6-43.9,23-63.5,7.5l-340.5-268.5
						c-19.6-15.5-23-43.9-7.5-63.5l26.8-34C-121.6,216.1-102.3,210-84.6,215.3z"/>
					<path d="M-122.6,272.1l7.7,1.1c11.3,1.7,21.6,7.6,28.7,16.6l12.9,16.2c7.1,9,17.4,14.9,28.7,16.6l20.4,3
						c11.3,1.7,21.6,7.6,28.7,16.6l12.9,16.2c7.1,9,17.4,14.9,28.7,16.6l20.4,3c11.3,1.7,21.6,7.6,28.7,16.6l12.9,16.2
						c7.1,9,17.4,14.9,28.7,16.6l20.4,3c11.3,1.7,21.6,7.6,28.7,16.6l12.9,16.2c7.1,9,17.4,14.9,28.7,16.6l20.4,3
						c11.3,1.7,21.6,7.6,28.7,16.6l4.8,6.1c11.6,14.5,13.1,34.6,3.8,50.7l-21.6,37.5c-12.5,21.6-40.1,29.1-61.7,16.6l-375.7-216.4
						c-21.6-12.5-29.1-40.1-16.6-61.7l21.6-37.5C-159.1,278.2-140.9,269.4-122.6,272.1z"/>
					<path d="M-107.1,242.5l7.4,2.2c11,3.3,20.3,10.6,26,20.5l10.4,17.9c5.8,9.9,15.1,17.2,26,20.5l19.8,5.9
						c11,3.3,20.3,10.6,26,20.5L19,348.1c5.8,9.9,15.1,17.2,26,20.5l19.8,5.9c11,3.3,20.3,10.6,26,20.5l10.4,17.9
						c5.8,9.9,15.1,17.2,26,20.5l19.8,5.9c11,3.3,20.3,10.6,26,20.5l10.4,17.9c5.8,9.9,15.1,17.2,26,20.5l19.8,5.9
						c11,3.3,20.3,10.6,26,20.5l3.9,6.7c9.3,16,7.9,36.2-3.6,50.7l-26.8,34c-15.5,19.6-43.9,23-63.5,7.5l-340.5-268.5
						c-19.6-15.5-23-43.9-7.5-63.5l26.8-34C-144.1,243.3-124.9,237.2-107.1,242.5z"/>
					<path d="M-77.5,228.6l6.9,3.6c10.2,5.3,17.9,14.3,21.7,25.1l6.8,19.5c3.8,10.8,11.5,19.8,21.7,25.1l18.3,9.6
						c10.2,5.3,17.9,14.3,21.7,25.1l6.8,19.5c3.8,10.8,11.5,19.8,21.7,25.1l18.3,9.6c10.2,5.3,17.9,14.3,21.7,25.1l6.8,19.5
						c3.8,10.8,11.5,19.8,21.7,25.1l18.3,9.6c10.2,5.3,17.9,14.3,21.7,25.1l6.8,19.5c3.8,10.8,11.5,19.8,21.7,25.1l18.3,9.6
						c10.2,5.3,17.9,14.3,21.7,25.1l2.6,7.3c6.1,17.5,1,37-13.1,49.1L182,659c-18.9,16.3-47.4,14.3-63.7-4.6l-283.6-328
						c-16.3-18.9-14.3-47.4,4.6-63.7l32.7-28.3C-113.9,222.3-93.9,220-77.5,228.6z"/>
					<path d="M-126.3,269.8l7.4,2.2c11,3.3,20.3,10.6,26,20.5l10.4,17.9c5.8,9.9,15.1,17.2,26,20.5l19.8,5.9
						c11,3.3,20.3,10.6,26,20.5l10.4,17.9c5.8,9.9,15.1,17.2,26,20.5l19.8,5.9c11,3.3,20.3,10.6,26,20.5l10.4,17.9
						c5.8,9.9,15.1,17.2,26,20.5l19.8,5.9c11,3.3,20.3,10.6,26,20.5l10.4,17.9c5.8,9.9,15.1,17.2,26,20.5l19.8,5.9
						c11,3.3,20.3,10.6,26,20.5l3.9,6.7c9.3,16,7.9,36.2-3.6,50.7l-26.8,34c-15.5,19.6-43.9,23-63.5,7.5l-340.5-268.5
						c-19.6-15.5-23-43.9-7.5-63.5l26.8-34C-163.3,270.5-144,264.4-126.3,269.8z"/>
					<path d="M-93.1,260.5l6.9,3.6c10.1,5.3,17.9,14.3,21.7,25.1l6.8,19.5c3.8,10.8,11.5,19.8,21.7,25.1l18.3,9.6
						c10.1,5.3,17.9,14.3,21.7,25.1l6.8,19.5c3.8,10.8,11.5,19.8,21.7,25.1l18.3,9.6c10.1,5.3,17.9,14.3,21.7,25.1l6.8,19.5
						c3.8,10.8,11.5,19.8,21.7,25.1l18.3,9.6c10.1,5.3,17.9,14.3,21.7,25.1l6.8,19.5c3.8,10.8,11.5,19.8,21.7,25.1l18.3,9.6
						c10.1,5.3,17.9,14.3,21.7,25.1l2.6,7.3c6.1,17.5,0.9,37-13.2,49.1l-32.8,28.3c-18.9,16.3-47.4,14.2-63.7-4.7l-283.1-328.4
						c-16.3-18.9-14.2-47.4,4.7-63.7l32.8-28.3C-129.6,254.1-109.6,251.8-93.1,260.5z"/>
					<path d="M-148.8,297l7.4,2.2c11,3.3,20.3,10.6,26,20.5l10.4,17.9c5.8,9.9,15.1,17.2,26,20.5l19.8,5.9c11,3.3,20.3,10.6,26,20.5
						l10.4,17.9c5.8,9.9,15.1,17.2,26,20.5l19.8,5.9c11,3.3,20.3,10.6,26,20.5l10.4,17.9c5.8,9.9,15.1,17.2,26,20.5l19.8,5.9
						c11,3.3,20.3,10.6,26,20.5l10.4,17.9c5.8,9.9,15.1,17.2,26,20.5l19.8,5.9c11,3.3,20.3,10.6,26,20.5l3.9,6.7
						c9.3,16,7.9,36.2-3.6,50.7l-26.8,34c-15.5,19.6-43.9,23-63.5,7.5l-340.5-268.5c-19.6-15.5-23-43.9-7.5-63.5l26.8-34
						C-185.8,297.7-166.6,291.6-148.8,297z"/>
					<path d="M-190.7,350.3l7.4,2.2c11,3.3,20.3,10.6,26,20.5l10.4,17.9c5.8,9.9,15.1,17.2,26,20.5l19.8,5.9
						c11,3.3,20.3,10.6,26,20.5l10.4,17.9c5.8,9.9,15.1,17.2,26,20.5l19.8,5.9c11,3.3,20.3,10.6,26,20.5l10.4,17.9
						c5.8,9.9,15.1,17.2,26,20.5l19.8,5.9c11,3.3,20.3,10.6,26,20.5l10.4,17.9c5.8,9.9,15.1,17.2,26,20.5l19.8,5.9
						c11,3.3,20.3,10.6,26,20.5l3.9,6.7c9.3,16,7.9,36.2-3.6,50.7l-26.8,34c-15.5,19.6-43.9,23-63.5,7.5L-258.5,463
						c-19.6-15.5-23-43.9-7.5-63.5l26.8-34C-227.7,351-208.5,344.9-190.7,350.3z"/>
					<path d="M-211.8,376.4l7.4,2.2c11,3.3,20.3,10.6,26,20.5l10.4,17.9c5.8,9.9,15.1,17.2,26,20.5l19.8,5.9
						c11,3.3,20.3,10.6,26,20.5l10.4,17.9c5.8,9.9,15.1,17.2,26,20.5l19.8,5.9c11,3.3,20.3,10.6,26,20.5l10.4,17.9
						c5.8,9.9,15.1,17.2,26,20.5l19.8,5.9c11,3.3,20.3,10.6,26,20.5L79,611.7c5.8,9.9,15.1,17.2,26,20.5l19.8,5.9
						c11,3.3,20.3,10.6,26,20.5l3.9,6.7c9.3,16,7.9,36.2-3.6,50.7l-26.8,34c-15.5,19.6-43.9,23-63.5,7.5l-340.5-268.5
						c-19.6-15.5-23-43.9-7.5-63.5l26.8-34C-248.8,377.1-229.5,371-211.8,376.4z"/>
					<path d="M-232.8,402.5l7.4,2.2c11,3.3,20.3,10.6,26,20.5l10.4,17.9c5.8,9.9,15.1,17.2,26,20.5l19.8,5.9
						c11,3.3,20.3,10.6,26,20.5l10.4,17.9c5.8,9.9,15.1,17.2,26,20.5l19.8,5.9c11,3.3,20.3,10.6,26,20.5l10.4,17.9
						c5.8,9.9,15.1,17.2,26,20.5l19.8,5.9c11,3.3,20.3,10.6,26,20.5l10.4,17.9c5.8,9.9,15.1,17.2,26,20.5l19.8,5.9
						c11,3.3,20.3,10.6,26,20.5l3.9,6.7c9.3,16,7.9,36.2-3.6,50.7l-26.8,34c-15.5,19.6-43.9,23-63.5,7.5l-340.5-268.5
						c-19.6-15.5-23-43.9-7.5-63.5l26.8-34C-269.8,403.2-250.6,397.1-232.8,402.5z"/>
					<path d="M-253.9,428.6l7.4,2.2c11,3.3,20.3,10.6,26,20.5l10.4,17.9c5.8,9.9,15.1,17.2,26,20.5l19.8,5.9
						c11,3.3,20.3,10.6,26,20.5l10.4,17.9c5.8,9.9,15.1,17.2,26,20.5l19.8,5.9c11,3.3,20.3,10.6,26,20.5l10.4,17.9
						c5.8,9.9,15.1,17.2,26,20.5l19.8,5.9c11,3.3,20.3,10.6,26,20.5l10.4,17.9c5.8,9.9,15.1,17.2,26,20.5l19.8,5.9
						c11,3.3,20.3,10.6,26,20.5l3.9,6.7c9.3,16,7.9,36.2-3.6,50.7l-26.8,34c-15.5,19.6-43.9,23-63.5,7.5l-340.5-268.5
						c-19.6-15.5-23-43.9-7.5-63.5l26.8-34C-290.9,429.3-271.6,423.2-253.9,428.6z"/>
					<path d="M-274.9,454.7l7.4,2.2c11,3.3,20.3,10.6,26,20.5l10.4,17.9c5.8,9.9,15.1,17.2,26,20.5l19.8,5.9
						c11,3.3,20.3,10.6,26,20.5l10.4,17.9c5.8,9.9,15.1,17.2,26,20.5l19.8,5.9c11,3.3,20.3,10.6,26,20.5l10.4,17.9
						c5.8,9.9,15.1,17.2,26,20.5l19.8,5.9c11,3.3,20.3,10.6,26,20.5l10.4,17.9c5.8,9.9,15.1,17.2,26,20.5l19.8,5.9
						c11,3.3,20.3,10.6,26,20.5l3.9,6.7c9.3,16,7.9,36.2-3.6,50.7l-26.8,34c-15.5,19.6-43.9,23-63.5,7.5l-340.5-268.5
						c-19.6-15.5-23-43.9-7.5-63.5l26.8-34C-311.9,455.4-292.7,449.3-274.9,454.7z"/>
					<path d="M-295.9,480.8l7.4,2.2c11,3.3,20.3,10.6,26,20.5l10.4,17.9c5.8,9.9,15.1,17.2,26,20.5l19.8,5.9
						c11,3.3,20.3,10.6,26,20.5l10.4,17.9c5.8,9.9,15.1,17.2,26,20.5l19.8,5.9c11,3.3,20.3,10.6,26,20.5l10.4,17.9
						c5.8,9.9,15.1,17.2,26,20.5l19.8,5.9c11,3.3,20.3,10.6,26,20.5L-5.2,716c5.8,9.9,15.1,17.2,26,20.5l19.8,5.9
						c11,3.3,20.3,10.6,26,20.5l3.9,6.7c9.3,16,7.9,36.2-3.6,50.7l-26.8,34c-15.5,19.6-43.9,23-63.5,7.5l-340.5-268.5
						c-19.6-15.5-23-43.9-7.5-63.5l26.8-34C-332.9,481.5-313.7,475.4-295.9,480.8z"/>
					<path d="M-317,506.9l7.4,2.2c11,3.3,20.3,10.6,26,20.5l10.4,17.9c5.8,9.9,15.1,17.2,26,20.5l19.8,5.9c11,3.3,20.3,10.6,26,20.5
						l10.4,17.9c5.8,9.9,15.1,17.2,26,20.5l19.8,5.9c11,3.3,20.3,10.6,26,20.5l10.4,17.9c5.8,9.9,15.1,17.2,26,20.5l19.8,5.9
						c11,3.3,20.3,10.6,26,20.5l10.4,17.9c5.8,9.9,15.1,17.2,26,20.5l19.8,5.9c11,3.3,20.3,10.6,26,20.5l3.9,6.7
						c9.3,16,7.9,36.2-3.6,50.7l-26.8,34c-15.5,19.6-43.9,23-63.5,7.5l-340.5-268.5c-19.6-15.5-23-43.9-7.5-63.5l26.8-34
						C-354,507.6-334.8,501.5-317,506.9z"/>
					<path d="M-338,533l7.4,2.2c11,3.3,20.3,10.6,26,20.5l10.4,17.9c5.8,9.9,15.1,17.2,26,20.5l19.8,5.9c11,3.3,20.3,10.6,26,20.5
						l10.4,17.9c5.8,9.9,15.1,17.2,26,20.5l19.8,5.9c11,3.3,20.3,10.6,26,20.5l10.4,17.9c5.8,9.9,15.1,17.2,26,20.5l19.8,5.9
						c11,3.3,20.3,10.6,26,20.5l10.4,17.9c5.8,9.9,15.1,17.2,26,20.5l19.8,5.9c11,3.3,20.3,10.6,26,20.5l3.9,6.7
						c9.3,16,7.9,36.2-3.6,50.7l-26.8,34c-15.5,19.6-43.9,23-63.5,7.5l-340.5-268.5c-19.6-15.5-23-43.9-7.5-63.5l26.8-34
						C-375,533.7-355.8,527.6-338,533z"/>
					<path d="M-359.1,559l7.4,2.2c11,3.3,20.3,10.6,26,20.5l10.4,17.9c5.8,9.9,15.1,17.2,26,20.5l19.8,5.9c11,3.3,20.3,10.6,26,20.5
						l10.4,17.9c5.8,9.9,15.1,17.2,26,20.5l19.8,5.9c11,3.3,20.3,10.6,26,20.5l10.4,17.9c5.8,9.9,15.1,17.2,26,20.5l19.8,5.9
						c11,3.3,20.3,10.6,26,20.5l10.4,17.9c5.8,9.9,15.1,17.2,26,20.5l19.8,5.9c11,3.3,20.3,10.6,26,20.5l3.9,6.7
						c9.3,16,7.9,36.2-3.6,50.7l-26.8,34c-15.5,19.6-43.9,23-63.5,7.5l-340.5-268.5c-19.6-15.5-23-43.9-7.5-63.5l26.8-34
						C-396.1,559.8-376.8,553.7-359.1,559z"/>
					<path d="M-380.1,585.1l7.4,2.2c11,3.3,20.3,10.6,26,20.5l10.4,17.9c5.8,9.9,15.1,17.2,26,20.5l19.8,5.9
						c11,3.3,20.3,10.6,26,20.5l10.4,17.9c5.8,9.9,15.1,17.2,26,20.5l19.8,5.9c11,3.3,20.3,10.6,26,20.5l10.4,17.9
						c5.8,9.9,15.1,17.2,26,20.5l19.8,5.9c11,3.3,20.3,10.6,26,20.5l10.4,17.9c5.8,9.9,15.1,17.2,26,20.5l19.8,5.9
						c11,3.3,20.3,10.6,26,20.5l3.9,6.7c9.3,16,7.9,36.2-3.6,50.7l-26.8,34c-15.5,19.6-43.9,23-63.5,7.5l-340.5-268.5
						c-19.6-15.5-23-43.9-7.5-63.5l26.8-34C-417.1,585.9-397.9,579.8-380.1,585.1z"/>
					<path d="M-401.1,611.2l7.4,2.2c11,3.3,20.3,10.6,26,20.5l10.4,17.9c5.8,9.9,15.1,17.2,26,20.5l19.8,5.9
						c11,3.3,20.3,10.6,26,20.5l10.4,17.9c5.8,9.9,15.1,17.2,26,20.5l19.8,5.9c11,3.3,20.3,10.6,26,20.5l10.4,17.9
						c5.8,9.9,15.1,17.2,26,20.5l19.8,5.9c11,3.3,20.3,10.6,26,20.5l10.4,17.9c5.8,9.9,15.1,17.2,26,20.5l19.8,5.9
						c11,3.3,20.3,10.6,26,20.5l3.9,6.7c9.3,16,7.9,36.2-3.6,50.7l-26.8,34c-15.5,19.6-43.9,23-63.5,7.5L-468.9,724
						c-19.6-15.5-23-43.9-7.5-63.5l26.8-34C-438.2,612-418.9,605.9-401.1,611.2z"/>
					<path d="M-422.2,637.3l7.4,2.2c11,3.3,20.3,10.6,26,20.5l10.4,17.9c5.8,9.9,15.1,17.2,26,20.5l19.8,5.9
						c11,3.3,20.3,10.6,26,20.5l10.4,17.9c5.8,9.9,15.1,17.2,26,20.5l19.8,5.9c11,3.3,20.3,10.6,26,20.5l10.4,17.9
						c5.8,9.9,15.1,17.2,26,20.5l19.8,5.9c11,3.3,20.3,10.6,26,20.5l10.4,17.9c5.8,9.9,15.1,17.2,26,20.5l19.8,5.9
						c11,3.3,20.3,10.6,26,20.5l3.9,6.7c9.3,16,7.9,36.2-3.6,50.7l-26.8,34c-15.5,19.6-43.9,23-63.5,7.5L-490,750.1
						c-19.6-15.5-23-43.9-7.5-63.5l26.8-34C-459.2,638.1-440,632-422.2,637.3z"/>
					<path d="M-443.2,663.4l7.4,2.2c11,3.3,20.3,10.6,26,20.5l10.4,17.9c5.8,9.9,15.1,17.2,26,20.5l19.8,5.9
						c11,3.3,20.3,10.6,26,20.5l10.4,17.9c5.8,9.9,15.1,17.2,26,20.5l19.8,5.9c11,3.3,20.3,10.6,26,20.5l10.4,17.9
						c5.8,9.9,15.1,17.2,26,20.5l19.8,5.9c11,3.3,20.3,10.6,26,20.5l10.4,17.9c5.8,9.9,15.1,17.2,26,20.5l19.8,5.9
						c11,3.3,20.3,10.6,26,20.5l3.9,6.7c9.3,16,7.9,36.2-3.6,50.7l-26.8,34c-15.5,19.6-43.9,23-63.5,7.5L-511,776.2
						c-19.6-15.5-23-43.9-7.5-63.5l26.8-34C-480.2,664.2-461,658.1-443.2,663.4z"/>
					<path d="M-464.3,689.5l7.4,2.2c11,3.3,20.3,10.6,26,20.5l10.4,17.9c5.8,9.9,15.1,17.2,26,20.5l19.8,5.9
						c11,3.3,20.3,10.6,26,20.5l10.4,17.9c5.8,9.9,15.1,17.2,26,20.5l19.8,5.9c11,3.3,20.3,10.6,26,20.5l10.4,17.9
						c5.8,9.9,15.1,17.2,26,20.5l19.8,5.9c11,3.3,20.3,10.6,26,20.5l10.4,17.9c5.8,9.9,15.1,17.2,26,20.5l19.8,5.9
						c11,3.3,20.3,10.6,26,20.5l3.9,6.7c9.3,16,7.9,36.2-3.6,50.7l-26.8,34c-15.5,19.6-43.9,23-63.5,7.5l-340.5-268.5
						c-19.6-15.5-23-43.9-7.5-63.5l26.8-34C-501.3,690.3-482,684.2-464.3,689.5z"/>
					<path d="M-485.3,715.6l7.4,2.2c11,3.3,20.3,10.6,26,20.5l10.4,17.9c5.8,9.9,15.1,17.2,26,20.5l19.8,5.9
						c11,3.3,20.3,10.6,26,20.5l10.4,17.9c5.8,9.9,15.1,17.2,26,20.5l19.8,5.9c11,3.3,20.3,10.6,26,20.5l10.4,17.9
						c5.8,9.9,15.1,17.2,26,20.5l19.8,5.9c11,3.3,20.3,10.6,26,20.5l10.4,17.9c5.8,9.9,15.1,17.2,26,20.5l19.8,5.9
						c11,3.3,20.3,10.6,26,20.5l3.9,6.7c9.3,16,7.9,36.2-3.6,50.7l-26.8,34c-15.5,19.6-43.9,23-63.5,7.5l-340.5-268.5
						c-19.6-15.5-23-43.9-7.5-63.5l26.8-34C-522.3,716.4-503.1,710.3-485.3,715.6z"/>
					<path d="M-506.4,741.7l7.4,2.2c11,3.3,20.3,10.6,26,20.5l10.4,17.9c5.8,9.9,15.1,17.2,26,20.5l19.8,5.9
						c11,3.3,20.3,10.6,26,20.5l10.4,17.9c5.8,9.9,15.1,17.2,26,20.5l19.8,5.9c11,3.3,20.3,10.6,26,20.5l10.4,17.9
						c5.8,9.9,15.1,17.2,26,20.5l19.8,5.9c11,3.3,20.3,10.6,26,20.5l10.4,17.9c5.8,9.9,15.1,17.2,26,20.5l19.8,5.9
						c11,3.3,20.3,10.6,26,20.5l3.9,6.7c9.3,16,7.9,36.2-3.6,50.7l-26.8,34c-15.5,19.6-43.9,23-63.5,7.5l-340.5-268.5
						c-19.6-15.5-23-43.9-7.5-63.5l26.8-34C-543.4,742.4-524.1,736.4-506.4,741.7z"/>
					<path d="M-527.4,767.8l7.4,2.2c11,3.3,20.3,10.6,26,20.5l10.4,17.9c5.8,9.9,15.1,17.2,26,20.5l19.8,5.9
						c11,3.3,20.3,10.6,26,20.5l10.4,17.9c5.8,9.9,15.1,17.2,26,20.5l19.8,5.9c11,3.3,20.3,10.6,26,20.5l10.4,17.9
						c5.8,9.9,15.1,17.2,26,20.5l19.8,5.9c11,3.3,20.3,10.6,26,20.5l10.4,17.9c5.8,9.9,15.1,17.2,26,20.5l19.8,5.9
						c11,3.3,20.3,10.6,26,20.5l3.9,6.7c9.3,16,7.9,36.2-3.6,50.7l-26.8,34c-15.5,19.6-43.9,23-63.5,7.5l-340.5-268.5
						c-19.6-15.5-23-43.9-7.5-63.5l26.8-34C-564.4,768.5-545.2,762.5-527.4,767.8z"/>
					<path d="M-548.4,793.9l7.4,2.2c11,3.3,20.3,10.6,26,20.5l10.4,17.9c5.8,9.9,15.1,17.2,26,20.5l19.8,5.9
						c11,3.3,20.3,10.6,26,20.5l10.4,17.9c5.8,9.9,15.1,17.2,26,20.5l19.8,5.9c11,3.3,20.3,10.6,26,20.5l10.4,17.9
						c5.8,9.9,15.1,17.2,26,20.5l19.8,5.9c11,3.3,20.3,10.6,26,20.5l10.4,17.9c5.8,9.9,15.1,17.2,26,20.5l19.8,5.9
						c11,3.3,20.3,10.6,26,20.5l3.9,6.7c9.3,16,7.9,36.2-3.6,50.7l-26.8,34c-15.5,19.6-43.9,23-63.5,7.5l-340.5-268.5
						c-19.6-15.5-23-43.9-7.5-63.5l26.8-34C-585.4,794.6-566.2,788.6-548.4,793.9z"/>
				</g>
			</g>
		</g>
	</g>
</g>
</svg>
