<svg xmlns="http://www.w3.org/2000/svg" xml:space="preserve" viewBox="0 0 512 512"><path d="M469 223.1c0-.3.1-.5.1-.8l.3-1.8c0-.3.1-.5.1-.8.1-.6.2-1.3.3-1.9 0-.2 0-.3.1-.5 0-.3.1-.6.1-.8s0-.3.1-.5c0-.2 0-.4.1-.6.1-.6.1-1.1.2-1.7l.3-2.4c0-.2.1-.5.1-.7 0-.3.1-.6.1-.8.1-1.1.2-2.2.3-3.4 0-.4.1-.8.1-1.2 0-.3 0-.6.1-.9 0-.3 0-.6.1-.8.1-1 .1-2 .2-3v-.6c0-.5.1-1 .1-1.6 0-.3 0-.7.1-1 0-.5 0-1 .1-1.5 0-.5 0-1 .1-1.4 0-.9.1-1.7.1-2.6v-15.5c0-1.1-.1-2.3-.1-3.4 0-.8-.1-1.6-.1-2.4-.1-1.1-.1-2.2-.2-3.3-.1-.9-.1-1.7-.2-2.5-.1-1-.2-2.1-.3-3.1-.1-.9-.2-1.7-.3-2.6-.1-1-.2-1.9-.3-2.9-.1-.9-.2-1.8-.3-2.6-.1-.9-.3-1.8-.4-2.8-.1-.9-.2-1.8-.4-2.6-.1-.9-.3-1.8-.5-2.7C451.9 47 371.6 6.4 290.3.7c-1.7-.1-3.4-.2-5-.3-1.2-.1-2.4-.1-3.6-.2h-1.5c-1.3 0-2.6-.1-3.9-.1H40.1V512h137.5c.6 0 1.2 0 1.8-.1h.3c.6-.1 1.2-.1 1.7-.2.1 0 .2 0 .3-.1.6-.1 1.1-.2 1.7-.4h.2c.6-.2 1.1-.3 1.6-.5 0 0 .1 0 .1-.1.6-.2 1.1-.4 1.6-.7.1 0 .2-.1.2-.1.5-.2 1-.5 1.5-.8.1 0 .1-.1.2-.1.4-.2.8-.5 1.2-.7h.1c.6-.4 1.2-.8 1.7-1.2l.1-.1c.2-.2.4-.4.7-.6l.1-.1c.2-.2.4-.3.6-.5l.1-.1 1.5-1.5c0-.1.1-.1.1-.2q1.05-1.2 1.8-2.4c0-.1.1-.1.1-.2.2-.4.5-.7.7-1.1 0 0 0-.1.1-.1.2-.4.5-.9.7-1.3 0-.1.1-.2.1-.3.2-.4.3-.8.5-1.2 0-.1.1-.2.1-.3.2-.5.3-.9.5-1.4 0-.1 0-.2.1-.3l.3-1.2c0-.1.1-.2.1-.4l.3-1.5v-.2c.1-.4.1-.9.1-1.3v-.4c0-.5.1-1 .1-1.5v-98.4h43.7c.8 0 1.7 0 2.5-.1h5.6c.7 0 1.3-.1 2-.1.5 0 .9 0 1.4-.1.7 0 1.3-.1 2-.1h2.7c.4 0 .8 0 1.2-.1h.1c.6 0 1.2-.1 1.8-.1h.1c.6 0 1.2-.1 1.9-.1.2 0 .5 0 .7-.1.3 0 .7 0 1-.1h.6c.4 0 .8-.1 1.2-.1h.2c.7-.1 1.5-.1 2.2-.2.5 0 1-.1 1.5-.1.3 0 .5-.1.8-.1s.6-.1.9-.1h.3c.2 0 .4 0 .5-.1.4 0 .9-.1 1.3-.1 1-.1 1.9-.2 2.9-.3.3 0 .5-.1.8-.1.2 0 .5-.1.7-.1.3 0 .6-.1 1-.1h.6c1.2-.2 2.5-.3 3.7-.5.1 0 .3 0 .4-.1.2 0 .4 0 .6-.1.3 0 .6-.1.9-.1s.5-.1.8-.1.5-.1.8-.1c.2 0 .4-.1.7-.1.7-.1 1.3-.2 2-.3.5-.1 1-.2 1.5-.2.3 0 .5-.1.8-.1.7-.1 1.5-.2 2.2-.4h.3c.1 0 .2 0 .3-.1.6-.1 1.3-.2 1.9-.3 1-.2 2.1-.4 3.1-.6.4-.1.8-.2 1.2-.2.1 0 .2 0 .3-.1.2 0 .4-.1.6-.1.7-.1 1.4-.3 2.1-.4.3-.1.6-.1.9-.2h.1c.5-.1 1.1-.2 1.6-.3l1.5-.3h.4c.5-.1 1-.2 1.4-.3l1.5-.3c.6-.1 1.1-.3 1.7-.4l1.5-.3c.1 0 .3-.1.4-.1s.2 0 .3-.1c.3-.1.6-.2.9-.2.5-.1 1-.3 1.5-.4.6-.2 1.3-.3 1.9-.5.1 0 .2 0 .3-.1.3-.1.6-.2.9-.2.2-.1.4-.1.6-.2h.1c.1 0 .2 0 .3-.1.1 0 .2-.1.3-.1s.2-.1.3-.1c.7-.2 1.3-.4 2-.6.1 0 .2-.1.3-.1.5-.1 1-.3 1.5-.4.1 0 .1 0 .2-.1.2 0 .3-.1.5-.1.7-.2 1.4-.4 2-.6.3-.1.7-.2 1-.3.2-.1.4-.1.7-.2.2-.1.5-.1.7-.2h.1c.6-.2 1.3-.4 1.9-.6.2-.1.5-.2.7-.2.1 0 .1 0 .2-.1.1 0 .1 0 .2-.1.2-.1.4-.1.6-.2s.5-.2.7-.2c.6-.2 1.3-.4 1.9-.6l.9-.3c.2-.1.3-.1.5-.2.1 0 .2-.1.3-.1.2-.1.4-.1.6-.2s.3-.1.5-.2c.1 0 .1 0 .2-.1.4-.2.9-.3 1.3-.5.3-.1.5-.2.8-.3.1 0 .1-.1.2-.1h.1c.1-.1.3-.1.4-.2.1 0 .2-.1.2-.1h.1c.1-.1.3-.1.4-.2.7-.2 1.3-.5 2-.8h.2c.2-.1.4-.2.6-.2.3-.1.5-.2.8-.3.1 0 .2-.1.3-.1 0 0 .1 0 .1-.1.1 0 .2-.1.2-.1.9-.3 1.7-.7 2.6-1 .3-.1.7-.3 1-.4s.5-.2.8-.3c.7-.3 1.5-.6 2.2-.9.3-.1.6-.3 1-.4 0 0 .1 0 .1-.1.3-.1.6-.3.9-.4.1-.1.3-.1.4-.2.5-.2.9-.4 1.4-.6.4-.2.9-.4 1.3-.6.3-.1.6-.3.8-.4.1 0 .2-.1.3-.1.5-.2 1-.5 1.4-.7s.9-.4 1.3-.6c.2-.1.5-.2.7-.3s.3-.2.5-.3l1.2-.6 1.2-.6c.3-.1.6-.3.9-.4.2-.1.5-.2.7-.4.3-.2.6-.3.9-.5.4-.2.7-.4 1.1-.6.3-.2.7-.4 1-.5 0 0 .1 0 .1-.1.3-.1.5-.3.8-.4.5-.3 1.1-.6 1.6-.9.1-.1.3-.1.4-.2.4-.2.8-.5 1.3-.7.2-.1.4-.2.5-.3.9-.5 1.9-1.1 2.8-1.7.3-.2.7-.4 1-.6.9-.6 1.9-1.2 2.8-1.7.2-.1.4-.2.5-.3.8-.5 1.6-1.1 2.4-1.6.3-.2.7-.4 1-.7.2-.1.3-.2.5-.3.6-.4 1.2-.9 1.9-1.3.2-.1.4-.3.6-.4.3-.2.7-.5 1-.7l.1-.1c.7-.5 1.4-1 2.2-1.6.4-.3.7-.5 1.1-.8.1-.1.2-.2.3-.2.7-.5 1.3-1 2-1.5.3-.2.7-.5 1-.7.2-.1.3-.3.5-.4l1.8-1.5c.3-.2.6-.5.9-.7.1-.1.2-.2.3-.2.7-.6 1.4-1.1 2.1-1.7.3-.3.7-.6 1-.9.1-.1.3-.2.4-.4.6-.5 1.1-1 1.7-1.5l.6-.6.6-.6c.1 0 .1-.1.2-.1.5-.5 1.1-1 1.6-1.5.8-.8 1.7-1.6 2.5-2.4.2-.1.3-.3.5-.4.8-.7 1.5-1.5 2.3-2.3l.3-.3.4-.4c.3-.3.6-.6.9-1 .3-.3.6-.7.9-1l.5-.5.3-.3.4-.4c.2-.2.3-.4.5-.5.3-.4.7-.7 1-1.1l.6-.6c.2-.2.3-.4.5-.6.1-.1.2-.3.4-.4.4-.5.8-.9 1.2-1.4l.2-.2.1-.1c.4-.5.8-.9 1.2-1.4l.1-.1c.4-.5.9-1 1.3-1.5l1.2-1.5.3-.3c.4-.4.7-.9 1.1-1.4l1.2-1.5.2-.2c.1-.1.2-.2.2-.3l.9-1.2c.4-.5.8-1 1.1-1.5.1-.1.2-.3.3-.4s.1-.2.2-.3c.2-.3.5-.6.7-1 .4-.5.8-1.1 1.2-1.6.1-.2.3-.4.4-.6.1-.1.1-.2.2-.2.2-.3.3-.5.5-.8.6-.9 1.2-1.7 1.7-2.6 0-.1.1-.1.1-.2.1-.1.1-.2.2-.3.3-.5.7-1 1-1.6.4-.6.8-1.2 1.2-1.9.3-.5.7-1.1 1-1.6.4-.6.7-1.2 1.1-1.8v-.1c.3-.5.6-1.1.9-1.6.3-.6.7-1.2 1-1.8l.1-.1s0-.1.1-.1c.3-.5.5-.9.8-1.4.3-.6.7-1.3 1-1.9.1-.1.1-.2.2-.3v-.1l.6-1.2c.4-.7.7-1.4 1.1-2.1.1-.1.1-.3.2-.4v-.1c.2-.3.3-.6.5-1 .6-1.2 1.1-2.3 1.7-3.5.2-.4.3-.7.5-1.1.1-.3.2-.5.3-.8.3-.6.5-1.2.8-1.8l.6-1.5c.3-.6.5-1.3.8-1.9 0-.1.1-.1.1-.2 0 0 0-.1.1-.1l.6-1.5c.3-.7.6-1.5.9-2.2.2-.5.4-.9.5-1.4 0-.1.1-.2.1-.4.3-.7.5-1.4.8-2.1.2-.5.3-.9.5-1.4.2-.6.4-1.1.6-1.7.1-.2.2-.5.3-.7 0-.1.1-.2.1-.3.1-.4.3-.7.4-1.1l1.2-3.9c0-.2.1-.3.1-.5.3-1.1.7-2.3 1-3.4l.3-1.2c.1-.2.1-.4.2-.6s.1-.4.2-.6c.1-.5.3-1 .4-1.5s.2-.9.4-1.4c.2-.8.4-1.7.6-2.5 0-.2.1-.3.1-.5.1-.3.2-.7.2-1l.6-2.7c.1-.4.2-.8.3-1.3.2-1.1.4-2.1.7-3.2.1-.3.1-.6.2-.9.2-.8.3-1.7.5-2.5 0-.3.1-.5.1-.8.2-1 .4-2 .5-3 0-.1 0-.2.1-.4.1-.5.2-1.1.3-1.6 0-.9.1-1.1.1-1.3" style="fill:#fff"/></svg>