<svg xmlns="http://www.w3.org/2000/svg" xml:space="preserve" viewBox="0 0 512 512"><path d="M62.5 235.8c0 3.4-2.8 6.2-6.2 6.2s-6.2-2.8-6.2-6.2 2.8-6.2 6.2-6.2 6.2 2.8 6.2 6.2m83.7-6.8c-36.8-4-55.3 10.6-101 44.5-39.1 29-46.5 6.2-45-3.7 2.1-14.6 35.8-83.1 68.2-125.5 40.1 10.4 70.7 43.5 77.8 84.7m-79.3 6.8c0-5.9-4.8-10.6-10.6-10.6s-10.6 4.7-10.6 10.6 4.8 10.6 10.6 10.6 10.6-4.7 10.6-10.6m-21.4 68.7-.3 19.9 29 32.2L60.3 367l47.3 39-16.7 11.5 60.5 28.3-15.4 13.8 68.5 11.5-10.7 14.6 69.2-6.4-5.7 16.6 76.5-25.8-3.9 19 68.2-48.7 2.1 19.2 48.4-68.9 10.6 20.2 21.5-83.6 14.7 12.1-3-82.1 19.6 7.3-29.9-72.6 19 .1-47.8-59.8 21.7-1.9-66.7-46.6 20.2-11.9L350.8 51l13.1-16.6-70.4.5.9-18.9-54.7 20-2.3-18-42.5 30.4-9.2-15.4-32.1 37.6-10-13.6-26.8 43-13.6-12.4-23.8 42.8c44.7 14.5 78 53.8 83.9 101.5.6.1-31.7 44.3 15.5 82.1-.8-4.2-8.7-76.5 67.4-81.7 37.8-2.6 68.7 30.7 68.7 68.7 0 11.6-2.9 22.5-8 32.1-22.6 42-92 43.6-114.1 43.4-64.1-.7-147.6-73.1-147.6-73.1z"/></svg>