<?xml version="1.0" encoding="utf-8"?>
<!-- Generator: Adobe Illustrator 28.2.0, SVG Export Plug-In . SVG Version: 6.00 Build 0)  -->
<svg version="1.1"
	 id="svg52" xmlns:inkscape="http://www.inkscape.org/namespaces/inkscape" xmlns:svg="http://www.w3.org/2000/svg" xmlns:sodipodi="http://sodipodi.sourceforge.net/DTD/sodipodi-0.dtd" inkscape:version="1.2.2 (b0a8486541, 2022-12-01)"
	 xmlns="http://www.w3.org/2000/svg" xmlns:xlink="http://www.w3.org/1999/xlink" x="0px" y="0px" viewBox="0 0 512 512"
	 style="enable-background:new 0 0 512 512;" xml:space="preserve">
<style type="text/css">
	.st0{fill:#F97315;}
</style>
<sodipodi:namedview  bordercolor="#666666" borderopacity="1.0" id="namedview54" inkscape:current-layer="svg52" inkscape:cx="127.40048" inkscape:cy="262.71561" inkscape:deskcolor="#d1d1d1" inkscape:pagecheckerboard="0" inkscape:pageopacity="0.0" inkscape:showpageshadow="2" inkscape:window-height="1236" inkscape:window-maximized="0" inkscape:window-width="1436" inkscape:window-x="2208" inkscape:window-y="511" inkscape:zoom="1.9583914" pagecolor="#ffffff" showgrid="false">
	</sodipodi:namedview>
<g>
	<path id="path46" class="st0" d="M62.5,235.8c0,3.4-2.8,6.2-6.2,6.2c-3.4,0-6.2-2.8-6.2-6.2c0-3.4,2.8-6.2,6.2-6.2
		C59.7,229.6,62.5,232.4,62.5,235.8z M146.2,229c-36.8-4-55.3,10.6-101,44.5c-39.1,29-46.5,6.2-45-3.7
		c2.1-14.6,35.8-83.1,68.2-125.5C108.5,154.7,139.1,187.8,146.2,229z M66.9,235.8c0-5.9-4.8-10.6-10.6-10.6s-10.6,4.7-10.6,10.6
		s4.8,10.6,10.6,10.6C62.1,246.4,66.9,241.7,66.9,235.8z M45.5,304.5l-0.3,19.9l29,32.2l-13.9,10.4l47.3,39l-16.7,11.5l60.5,28.3
		l-15.4,13.8l68.5,11.5l-10.7,14.6l69.2-6.4l-5.7,16.6l76.5-25.8l-3.9,19l68.2-48.7l2.1,19.2l48.4-68.9l10.6,20.2l21.5-83.6
		l14.7,12.1l-3-82.1l19.6,7.3L482.1,192l19,0.1l-47.8-59.8l21.7-1.9l-66.7-46.6l20.2-11.9L350.8,51l13.1-16.6l-70.4,0.5l0.9-18.9
		l-54.7,20l-2.3-18l-42.5,30.4L185.7,33l-32.1,37.6l-10-13.6l-26.8,43l-13.6-12.4l-23.8,42.8c44.7,14.5,78,53.8,83.9,101.5
		c0.6,0.1-31.7,44.3,15.5,82.1c-0.8-4.2-8.7-76.5,67.4-81.7c37.8-2.6,68.7,30.7,68.7,68.7c0,11.6-2.9,22.5-8,32.1
		c-22.6,42-92,43.6-114.1,43.4c-64.1-0.7-147.6-73.1-147.6-73.1L45.5,304.5z"/>
</g>
</svg>
