<svg xmlns="http://www.w3.org/2000/svg" xml:space="preserve" id="papermc-velocity-light_svg__Layer_1" x="0" y="0" version="1.1" viewBox="0 0 512 512"><style>.papermc-velocity-light_svg__st0{fill:#fff}</style><path d="m207.8 318.4-.6.9zM168.2 257c-3.1-4.3-3.5-10.1-.9-14.7l22.6-40.9c1-1.9 1.3-4.2.7-6.2-.6-2.1-2-3.8-3.9-4.8-4-2.2-9-.8-11.2 3.2L151 237.7c-2 3.5-5.3 6-9.3 6.8l-48.9 9.9c-4.4.9-7.3 5.3-6.4 9.7s5.3 7.3 9.7 6.4l45.1-9.1c5.2-1 10.6 1 13.7 5.3l26.6 36.2c2.7 3.6 7.8 4.4 11.5 1.7 3.6-2.7 4.4-7.8 1.8-11.5z" class="papermc-velocity-light_svg__st0"/><path d="M432.6 0H79.5C35.6 0 0 35.6 0 79.5v353C0 476.4 35.6 512 79.5 512h353c43.9 0 79.5-35.6 79.5-79.4V79.5C512 35.6 476.4 0 432.6 0m10.7 278.3c-.3 4.7-4.3 8.2-9 7.9h-92.1c-4.7.2-8.3 4.1-8.1 8.7.2 4.7 4.1 8.3 8.7 8.1h45.9c4.7 0 8.4 3.8 8.4 8.4 0 4.7-3.8 8.4-8.4 8.4h-182c.2-.2.3-.4.5-.6-1.5 2-3.6 3.4-6.1 4l-73.7 14.9c-3.9.8-7.9-.8-10.2-4l-46.5-63.5c-2.4-3.2-2.6-7.5-.7-10.9l36.6-66.1c1.4-2.6 4-4.4 6.9-5l74-14.9c3.9-.8 7.9.8 10.2 4l17.7 24.2H404c4.4.2 8 3.7 8.1 8.1.2 4.7-3.5 8.6-8.1 8.7h-91.2c-4.7 0-8.4 3.8-8.4 8.4s3.8 8.4 8.4 8.4H373c4.4.2 8 3.7 8.1 8.1.2 4.7-3.5 8.6-8.1 8.7h-91.1c-4.7 0-8.4 3.8-8.4 8.4 0 4.7 3.8 8.4 8.4 8.4h153.5c4.7.6 8.2 4.6 7.9 9.2m-36.4-34.2c0 4.7-3.8 8.4-8.4 8.4s-8.4-3.8-8.4-8.4c0-4.7 3.8-8.4 8.4-8.4s8.4 3.7 8.4 8.4" class="papermc-velocity-light_svg__st0"/></svg>