<?xml version="1.0" encoding="utf-8"?>
<!-- Generator: Adobe Illustrator 28.2.0, SVG Export Plug-In . SVG Version: 6.00 Build 0)  -->
<svg version="1.1" id="Layer_1" xmlns="http://www.w3.org/2000/svg" xmlns:xlink="http://www.w3.org/1999/xlink" x="0px" y="0px"
	 viewBox="0 0 512 512" style="enable-background:new 0 0 512 512;" xml:space="preserve">
<style type="text/css">
	.st0{fill-rule:evenodd;clip-rule:evenodd;fill:#3F3E3E;}
	.st1{fill-rule:evenodd;clip-rule:evenodd;fill:#444444;}
	.st2{fill-rule:evenodd;clip-rule:evenodd;fill:#FEFEFE;}
	.st3{fill-rule:evenodd;clip-rule:evenodd;fill:#DBDBDB;}
	.st4{fill-rule:evenodd;clip-rule:evenodd;fill:#2F2F2F;}
	.st5{fill-rule:evenodd;clip-rule:evenodd;fill:#A7A7A7;}
	.st6{fill-rule:evenodd;clip-rule:evenodd;fill:#AAAAAA;}
	.st7{fill-rule:evenodd;clip-rule:evenodd;fill:#959595;}
	.st8{fill-rule:evenodd;clip-rule:evenodd;fill:#2E2E2E;}
	.st9{fill:#AF363C;}
	.st10{opacity:0.998;fill:#6A9401;enable-background:new    ;}
	.st11{fill-rule:evenodd;clip-rule:evenodd;fill:#2D5F8F;}
	.st12{fill-rule:evenodd;clip-rule:evenodd;fill:#94D405;}
	.st13{fill-rule:evenodd;clip-rule:evenodd;fill:#A19632;}
	.st14{opacity:0.996;fill-rule:evenodd;clip-rule:evenodd;fill:#428EDA;enable-background:new    ;}
	.st15{opacity:0.991;fill-rule:evenodd;clip-rule:evenodd;fill:#F6E245;enable-background:new    ;}
	.st16{fill-rule:evenodd;clip-rule:evenodd;fill:#FD4F57;}
</style>
<path class="st0" d="M433.6,80.2H211.9c-3,0.2-5.8,0-8.6-0.6h-0.6c-1.6,0.5-3.2,0.7-4.9,0.6c-2.6,0.2-5,0-7.3-0.6h-0.6
	c-2,0.6-4,0.8-6.1,0.6h-9.8H71.7v34.3c0.6,52.4,0.8,104.8,0.6,157.4c0.1,7.4,0,14.7-0.3,22c-0.2-0.3-0.5-0.5-0.9-0.6
	c0,0.8,0.3,1.4,0.9,1.8c0.3,5.5,0.4,11,0.3,16.5c0.2,6,0,12-0.6,17.8v112.7h181.9h8.6c7.1-0.2,14,0,20.8,0.6c0.4,0,0.6-0.2,0.6-0.6
	h7.3c4-0.2,7.9,0,11.6,0.6c2.8-0.6,5.7-0.8,8.6-0.6h122.5v-42.9c-0.6-46.7-0.8-93.5-0.6-140.2v-33.7c-0.2-4,0-7.9,0.6-11.6
	c-0.6-2.2-0.8-4.5-0.6-6.7v-16.5c-0.2-5.4,0-10.7,0.6-15.9V80.2z"/>
<path class="st1" d="M80.2,90h344.2c0.1,114.1,0,228.2-0.3,342.4c-57.2,0.4-114.5,0.6-171.8,0.6c-57.3,0-114.6-0.2-171.8-0.6
	C80.2,318.3,80.1,204.1,80.2,90"/>
<path class="st2" d="M368.7,144.5c0.4,4.5,0.3,9-0.3,13.5c-13.6,66.9-26.9,133.9-40.1,200.9h-1.8c-29.5-11.8-58.9-23.7-88.2-35.8
	c-2.8-1.2-5.6-1.6-8.6-1.2c-0.7,0.5-1.3,1.3-1.5,2.1c-0.4,17.6-0.4,35.1,0,52.7c0.5,1.6,1.4,2.8,2.8,3.7c-3.2,0.9-6,0.1-8.3-2.4
	c-0.4-19.6-0.4-39.2,0-58.8c19.6-23.2,39.1-46.5,58.5-69.8c9.3-11.2,18.7-22.3,28.2-33.4c-10.9,8.3-21.7,16.8-32.5,25.4
	c-7,4.9-14,9.9-20.8,15c-20.3,15.6-40.5,31.3-60.6,47.2c-0.7,0.5-1.6,0.8-2.4,0.9c-17.9-6.9-35.6-14.2-53.3-21.7
	c-3.4-2.4-4.6-5.6-3.7-9.5c0.5-0.8,1.1-1.5,1.8-2.1c74.6-42.5,149.1-85.2,223.5-128c1.8-0.4,3.7-0.4,5.5,0
	C367.7,143.2,368.3,143.7,368.7,144.5"/>
<path class="st3" d="M368.7,144.5c2.6,1.2,3.7,3.3,3.1,6.1c-11.8,67.9-23.2,135.9-34.3,203.9c-0.8,1.7-1.3,3.5-1.5,5.5
	c-3.5,1.8-6.6,1.4-9.5-1.2h1.8c13.2-67,26.5-134,40.1-200.9C369,153.5,369.1,149,368.7,144.5"/>
<path class="st4" d="M328.9,363.2c6.3,0.7,9.1-2.2,8.6-8.6c11.1-68,22.5-136,34.3-203.9c1.2-1.5,2.7-1.6,4.3-0.3
	c1.9,1.3,3.1,3.1,3.7,5.2c-11.6,69.9-23.6,139.7-35.8,209.5c-2.5,1.8-5.2,2.3-8.3,1.5C333.2,365.7,330.9,364.6,328.9,363.2"/>
<path class="st4" d="M281.1,249.3c-26,19.1-51.8,38.6-77.2,58.5c-2.9,1.4-5.4,0.9-7.3-1.5l80.2-64.9c10.7-8.6,21.5-17.1,32.5-25.4
	C299.8,226.9,290.4,238,281.1,249.3"/>
<path class="st5" d="M276.8,241.3l-80.2,64.9c-1.7,1.5-3.5,1.6-5.5,0.3c-18-8-36.1-15.6-54.5-22.7c-2.8-2.1-3.7-4.9-2.8-8.3
	c0.4-1.1,1.1-1.9,2.1-2.4c-1,3.9,0.3,7.1,3.7,9.5c17.6,7.5,35.4,14.8,53.3,21.7c0.9-0.1,1.7-0.4,2.4-0.9
	c20.1-15.9,40.3-31.6,60.6-47.2C262.8,251.2,269.8,246.2,276.8,241.3"/>
<path class="st6" d="M326.4,358.9c2.9,2.6,6,3,9.5,1.2c0.2-2,0.8-3.8,1.5-5.5c0.6,6.4-2.3,9.2-8.6,8.6
	c-16.6-6.6-33.1-13.4-49.6-20.2c-1.7-1-3.5-1.9-5.5-2.4c-12.9-6-25.9-11.5-39.2-16.5l-0.6,0.6c3.6,6.3,6.4,13.1,8.3,20.2
	c1.1,5.5,2.2,11,3.4,16.5c-1.7,2.4-2.9,5.1-3.7,8c-3,3.5-6.4,6.8-10.1,9.8c-0.3,0.3-0.4,0.8-0.3,1.2h-0.6c-1.3-0.8-2.3-2.1-2.8-3.7
	c-0.4-17.6-0.4-35.1,0-52.7c0.3-0.9,0.8-1.6,1.5-2.1c3-0.4,5.8,0,8.6,1.2C267.6,335.2,297,347.1,326.4,358.9"/>
<path class="st7" d="M273.8,340.5c-1.4,0.1-2.6,0.6-3.7,1.5c-9.5,9-18.9,18.1-28.2,27.3c0.8-2.9,2-5.6,3.7-8
	c-1.2-5.5-2.3-11-3.4-16.5c-1.8-7.1-4.6-13.9-8.3-20.2l0.6-0.6C247.8,329,260.9,334.5,273.8,340.5"/>
<path class="st8" d="M273.8,340.5c2,0.6,3.8,1.4,5.5,2.4c-13.2,12-26.2,24.2-39.2,36.4c-2.6,2.5-5.5,2.8-8.6,0.9
	c-0.1-0.4,0-0.9,0.3-1.2c3.7-3,7.1-6.3,10.1-9.8c9.3-9.2,18.7-18.3,28.2-27.3C271.1,341.1,272.4,340.6,273.8,340.5"/>
<path class="st9" d="M112.7,442.2h140.2c-1,0.8-2.3,1.2-3.7,1.2c-1.6-0.4-3.4-0.6-5.2-0.6c-43.2,2.3-86.4,4.5-129.5,6.7
	C113.9,447.1,113.3,444.6,112.7,442.2z M64.3,115.7c1.8,44.7,4.2,89.5,7.3,134.1c0.2,6.6,0,13.2-0.6,19.6c0.1,1,0.5,1.8,1.2,2.4
	c0.2-52.6,0-105-0.6-157.4C69.2,114.9,66.7,115.3,64.3,115.7z M252.9,80.2h143.9c-0.1-2.6-0.7-5.1-1.8-7.3
	C347.7,75.1,300.3,77.5,252.9,80.2z M433,259.1c-0.2,46.8,0,93.5,0.6,140.2c2.1-1,4.4-1.6,6.7-1.8C438.5,351.3,436,305.2,433,259.1z
	"/>
<path class="st10" d="M72.3,271.9c0.1,7.4,0,14.7-0.3,22c-0.2-0.3-0.5-0.5-0.9-0.6v-0.6c0.7-5.6,0.8-11.3,0.3-17.1
	C59.1,237,47,198.5,34.9,159.8c2.5-1.7,5.2-3.1,8-4.3c0.9,1.3,1.3,2.7,1.2,4.3c1.1,1.8,1.7,3.9,1.8,6.1c8.4,34.5,16.8,69,25.1,103.5
	C71.1,270.5,71.5,271.3,72.3,271.9z M249.3,443.4c-30.6,7.6-61.2,15.1-91.9,22.4c-1.6,0.2-2.8,0.9-3.7,2.1c1.1,2.5,2.3,5,3.7,7.3
	c35.1-10.5,70-21.6,104.7-33.1h-9.2C251.9,442.9,250.7,443.3,249.3,443.4z M433,225.4v5.5c8.3,32.2,16.3,64.4,23.9,96.8
	c-0.1,1.6,0.4,3.1,1.2,4.3c2,8.4,4.2,16.8,6.7,25.1c2.7-1.5,5.4-3.2,8-4.9C459.8,309.8,446.6,267.5,433,225.4z M226.6,75
	c-2.3,0.5-4.3,1.4-6.1,2.8c44.4-10.5,88.7-21.2,132.9-32.2c0.3-0.2,0.5-0.5,0.6-0.9c-1.7-2.5-3.1-5.2-4.3-8
	C308.8,50,267.8,62.7,226.6,75z"/>
<path class="st11" d="M23.9,196c0.5-0.1,0.9,0.1,1.2,0.6c15.5,32,30.8,64,45.9,96.2v0.6c0,0.8,0.3,1.4,0.9,1.8
	c0.3,5.5,0.4,11,0.3,16.5c-0.9-0.3-1.3-0.9-1.2-1.8c0.4-1.6,0.6-3.4,0.6-5.2c0.1-2.2-0.3-4.4-0.9-6.4c-18-31.7-35.8-63.6-53.3-95.5
	c-0.4-0.5-0.9-0.7-1.5-0.6C18.5,199.9,21.1,197.9,23.9,196 M306.2,16.5l7.3,9.8c0,0.8-0.5,1.3-1.2,1.5
	c-36.4,17.1-72.8,34.3-109,51.8h-0.6c-1.6,0.5-3.2,0.7-4.9,0.6c36.3-20.3,72.5-40.8,108.7-61.2C306.6,18.2,306.5,17.4,306.2,16.5
	 M433,207c19.6,33.6,38.7,67.5,57.3,101.7c0.5,0.8,1.2,1.2,2.1,1.2c-2.8,2.5-5.8,4.5-9.2,6.1c-0.8,0-1.3-0.5-1.5-1.2
	c-16-33.7-32-67.4-48.1-101.1C433,211.5,432.8,209.3,433,207 M283.6,442.2h7.3c-30.3,17.3-60.7,34.5-91.3,51.4
	c-1.8-2.6-3.9-5.1-6.1-7.3c0.5-0.8,1.1-1.5,1.8-2.1c29.3-13.9,58.5-27.6,87.6-41.3C283.4,442.8,283.6,442.6,283.6,442.2"/>
<path class="st12" d="M349.7,36.7C308.8,50,267.8,62.7,226.6,75c-2.3,0.5-4.3,1.4-6.1,2.8c-2.8,0.9-5.7,1.7-8.6,2.4
	c-3,0.2-5.8,0-8.6-0.6c36.3-17.4,72.6-34.7,109-51.8c0.8-0.3,1.2-0.8,1.2-1.5c8.3-3.7,16.6-7.6,24.8-11.6c0.5,0.1,0.9,0.3,1.2,0.6
	C343.3,22.3,346.7,29.4,349.7,36.7 M34.9,159.8c12,38.6,24.2,77.2,36.4,115.8c0.5,5.8,0.4,11.5-0.3,17.1
	c-15.1-32.1-30.5-64.2-45.9-96.2c-0.3-0.5-0.7-0.7-1.2-0.6c-3.7-8.4-7.6-16.6-11.6-24.8c0.2-0.8,0.6-1.4,1.2-1.8
	C20.5,165.9,27.6,162.7,34.9,159.8 M433.6,213.7c16.1,33.7,32.1,67.3,48.1,101.1c0.3,0.8,0.8,1.2,1.5,1.2c3.8,8.5,7.7,17,11.6,25.4
	c-0.2,0.8-0.6,1.4-1.2,1.8c-2.1,0.8-4.2,1.9-6.1,3.1c-4.1,1.3-8,3.2-11.6,5.5c-1,0.3-2,0.4-3.1,0.3c-13-42.3-26.3-84.6-39.8-126.8
	C432.8,221.4,433,217.5,433.6,213.7 M262.1,442.2c7.1-0.2,14,0,20.8,0.6c-29.2,13.8-58.4,27.6-87.6,41.3c-0.7,0.6-1.3,1.3-1.8,2.1
	c-8.4,3.6-16.7,7.4-24.8,11.6l-1.8-1.8c-3.3-6.9-6.5-13.8-9.5-20.8C192.5,464.7,227.4,453.7,262.1,442.2"/>
<path class="st13" d="M20.2,240.1c1.1,0.2,2.1,0.8,2.8,1.8c15.7,22.9,31.7,45.5,48.1,68c0,0.9,0.4,1.5,1.2,1.8c0.2,6,0,12-0.6,17.8
	c0.1-4.1,0-8.2-0.3-12.2c-19-23.6-38.1-47-57.3-70.4C15.7,244.2,17.8,241.9,20.2,240.1 M264.6,12.9l8,7.3c0,0.9-0.4,1.6-1.2,2.1
	c-27.1,18.9-54,38-80.8,57.3h-0.6c-2,0.6-4,0.8-6.1,0.6c26-21.3,52.1-42.4,78.4-63.4C263.6,15.9,264.4,14.6,264.6,12.9 M433,190.5
	c21,25.7,42.1,51.4,63.1,77.2c-2.3,2.5-4.5,4.9-6.7,7.3c-1.8-1.1-3.3-2.5-4.6-4.3c-16.9-24.5-34.2-48.8-51.8-72.9V190.5z
	 M311.1,442.2c-22,17.8-44.1,35.5-66.1,53.3c-2.4-1.7-4.6-3.5-6.7-5.5c-0.1-1.2,0.3-2.1,1.2-2.8c21-14.8,42.1-29.6,63.1-44.4
	C305.4,442.2,308.2,442,311.1,442.2"/>
<path class="st14" d="M306.2,16.5c0.3,0.8,0.4,1.6,0.3,2.4c-36.2,20.5-72.4,40.9-108.7,61.2c-2.6,0.2-5,0-7.3-0.6
	c26.8-19.2,53.8-38.3,80.8-57.3c0.8-0.5,1.2-1.2,1.2-2.1c7.9-5.7,16-11.3,24.2-16.5c1.3,1.2,2.5,2.4,3.7,3.7
	C302.2,10.5,304.2,13.5,306.2,16.5 M433,197.8c17.6,24,34.8,48.3,51.8,72.9c1.3,1.8,2.8,3.2,4.6,4.3c4.2,7.2,9,13.9,14.4,20.2
	c0.7,1.5,1.4,2.9,2.1,4.3c0,0.9-0.4,1.7-1.2,2.1c-4.2,2.6-8.3,5.4-12.2,8.3c-0.9,0-1.6-0.4-2.1-1.2c-18.6-34.2-37.7-68.1-57.3-101.7
	V197.8z M15.9,202.1c0.6-0.1,1.1,0.2,1.5,0.6c17.5,32,35.3,63.8,53.3,95.5c0.7,2.1,1,4.3,0.9,6.4c0,1.8-0.2,3.6-0.6,5.2
	c-16.3-22.4-32.4-45.1-48.1-68c-0.7-1-1.6-1.6-2.8-1.8c-6.4-9-12.8-18.1-19-27.3c0.2-0.8,0.6-1.4,1.2-1.8
	C7,208.1,11.5,205.2,15.9,202.1 M290.9,442.2c4-0.2,7.9,0,11.6,0.6c-21,14.8-42.1,29.6-63.1,44.4c-0.9,0.7-1.3,1.6-1.2,2.8
	c-9.3,6.1-18.5,12.4-27.6,19c-4.1-4.8-7.8-9.9-11-15.3C230.2,476.6,260.6,459.5,290.9,442.2"/>
<path class="st15" d="M264.6,12.9c-0.1,1.7-1,3-2.4,4c-26.3,21-52.4,42.1-78.4,63.4h-10.4c3.5-4.2,7-8.3,10.7-12.2
	c21.6-22.4,43.2-44.8,64.6-67.4c1-0.7,2-0.8,3.1-0.3C255.9,4.6,260.2,8.8,264.6,12.9 M433.6,174.5c25.8,24.8,51.7,49.5,77.8,74.1
	c0.7,1,0.8,2,0.3,3.1c-5.3,5.2-10.5,10.5-15.6,15.9c-21-25.7-42.1-51.4-63.1-77.2C432.8,185,433,179.7,433.6,174.5 M14.1,246.8
	c19.2,23.4,38.3,46.9,57.3,70.4c0.3,4.1,0.4,8.2,0.3,12.2v0.6C55,314.6,38.5,299,22,283.3c-0.9-0.7-1.3-1.6-1.2-2.8
	c-0.6,0.1-1.3,0-1.8-0.3c-6.2-6.3-12.6-12.6-19-18.7c3.5-4.5,7.3-8.8,11.3-12.9C12.3,248.1,13.2,247.5,14.1,246.8 M311.1,442.2h17.8
	c-21.8,23.6-44,46.9-66.5,69.8c-6.3-5-12.1-10.5-17.5-16.5C267,477.7,289.1,459.9,311.1,442.2"/>
<path class="st16" d="M395,72.9c-47.4,2.2-94.7,4.6-142.1,7.3h-41c2.9-0.8,5.7-1.6,8.6-2.4c44.4-10.5,88.7-21.2,132.9-32.2
	c0.3-0.2,0.5-0.5,0.6-0.9c10.7-2.9,21.5-5.2,32.5-7c0.5,1.1,1,2.2,1.5,3.4C390.3,51.7,392.7,62.3,395,72.9 M64.3,115.7
	c1.8,44.7,4.2,89.5,7.3,134.1c0.2,6.6,0,13.2-0.6,19.6c-8.3-34.5-16.7-69-25.1-103.5c-0.1-2.2-0.7-4.3-1.8-6.1
	c0.1-1.6-0.3-3-1.2-4.3c-1.5-5.3-3-10.6-4.6-15.9c-0.9-5.5-1.9-11.1-3.1-16.5C44.8,120.2,54.5,117.8,64.3,115.7 M433,230.9
	c8.3,32.2,16.3,64.4,23.9,96.8c-0.1,1.6,0.4,3.1,1.2,4.3c2,8.4,4.2,16.8,6.7,25.1c2.6,10.5,5.3,21,8,31.5c-0.7,1.1-1.8,1.7-3.1,1.8
	c-9.8,2.5-19.6,4.9-29.4,7c-1.9-46.2-4.3-92.3-7.3-138.4V230.9z M249.3,443.4c-30.6,7.6-61.2,15.1-91.9,22.4
	c-1.6,0.2-2.8,0.9-3.7,2.1c-10.6,2.5-21.2,5-31.8,7.3c-0.7-0.2-1.2-0.6-1.5-1.2c-1.9-8.2-3.8-16.3-5.8-24.5
	c43.2-2.2,86.3-4.5,129.5-6.7C245.9,442.8,247.6,443,249.3,443.4"/>
</svg>
