<svg xmlns="http://www.w3.org/2000/svg" xml:space="preserve" viewBox="0 0 512 512"><path d="M429.1 85.4H74.4c-.1 117.6 0 235.2.3 352.9a26115 26115 0 0 0 354.2 0c.2-117.7.4-235.3.2-352.9m-54.2 62.5c-12.1 70-23.9 140.1-35.3 210.2.6 6.6-2.4 9.5-8.8 8.8-17.1-6.8-34.1-13.8-51.1-20.8-1.7-1.1-3.6-1.9-5.7-2.5-1.4.1-2.7.6-3.8 1.6-9.8 9.3-19.5 18.6-29 28.1-3.1 3.6-6.6 7-10.4 10.1-.3.4-.4.8-.3 1.3h-.6c-3.3.9-6.1.1-8.5-2.5q-.6-30.3 0-60.6 30.3-35.85 60.3-72c9.6-11.6 19.2-23 29-34.4-11.3 8.6-22.4 17.3-33.5 26.2l-82.7 66.9q-2.55 2.25-5.7.3c-18.5-8.3-37.3-16.1-56.2-23.4-2.9-2.2-3.8-5-2.8-8.5.4-1.2 1.2-2 2.2-2.5.5-.8 1.2-1.6 1.9-2.2 76.9-43.8 153.7-87.8 230.4-131.9q2.85-.6 5.7 0c.9.2 1.5.8 1.9 1.6 2.5 1.1 3.6 3.2 3 6.2m86.7 182.5v-.4l-.1-.4c-7.8-33.1-16-66.5-24.5-99.4v-4.9c14.7 30.8 29.5 62 44.2 93 .4 1.1 1.2 2 2.2 2.6 3.5 7.7 7 15.5 10.6 23.2-1.8.8-3.6 1.7-5.3 2.7-4.2 1.4-8.2 3.3-11.9 5.6-.5.1-1.1.2-1.6.1l-.3 3.1-1.7-2.6c-1.5 1-3.1 2-4.6 3-2.1-7.2-4.1-14.6-5.8-21.9l-.1-.6-.3-.5c-.6-.8-.9-1.6-.8-2.6M349.3 35.8c.8 2 1.8 3.9 2.8 5.7-44.1 10.9-88.9 21.7-133 32.2 31.8-15.2 63.9-30.4 95.8-45.4 1.1-.4 2-1.2 2.6-2.2 7.5-3.4 15.1-6.9 22.5-10.5 3.3 6.6 6.4 13.3 9.3 20.2m91.6 189.1H438l2.9-.1zM271 447.3c-26.4 12.5-52.8 24.9-79.2 37.4l-.4.2-.3.3c-.7.6-1.4 1.3-1.9 2.1-7.7 3.3-15.4 6.9-22.9 10.7-3.3-6.8-6.5-13.8-9.5-20.8l-.1-.3-2.7-5.1c.1 0 .2 0 .4-.1l.3-.1c31.3-7.4 63.1-15.2 94.4-23q2.25-.15 4.2-1.2h8.7c3-.2 6-.2 9-.1M22.7 192c-3.4-7.6-6.9-15.1-10.6-22.6 6.8-3.3 13.8-6.4 20.8-9.2l.3-.1.3-.2c1.5-1 3.1-1.9 4.7-2.7v.9l1.9 5.7.1.5c8.6 35.2 17.3 71 25.8 106.5.2 1.2.6 2.3 1.2 3.2v9.2c-14.1-29.8-28.4-59.8-42.7-89.4l-.1-.2c-.4-.7-1-1.2-1.7-1.6m177.4 303.8c14.9-8.3 29.7-16.6 44.5-24.9-14.8 8.3-29.7 16.6-44.5 24.9l-1.7-2.6c-.9-1.2-1.9-2.4-2.9-3.5 29.7-14 59.3-28 88.7-41.9.4-.1.9-.3 1.2-.5h6.3c1-.1 2-.1 3.1-.1-19.3 13.6-38.7 27.2-58.1 40.9-1.3.9-2.1 2.2-2.4 3.6-8.4 5.5-16.8 11.3-24.9 17.1-2.7-3.3-5.2-6.8-7.6-10.5zm289.5-217.6c4.2 7.2 9.1 14 14.5 20.3l1.3 2.6c-4.2 2.6-8.3 5.4-12.2 8.3l-.2.2c-2.1 1.9-4.3 3.5-6.8 4.8-16.2-34.2-32.6-68.8-48.8-102.7-.4-1.9-.6-3.8-.5-5.7v-.2c16.1 22.2 32.2 44.8 47.7 67.4 1.5 2.1 3.1 3.8 5 5M310.7 23.4C274 40.6 237 58.2 200.6 75.7h-.4l-.5.2c-.9.3-1.9.5-2.9.5 25.3-18.1 50.9-36.2 76.3-54 1.2-.7 2-1.8 2.4-3 7.1-5.1 14.4-10.1 21.7-14.9l1.7 1.7c1.9 3.2 3.8 6.3 5.9 9.3zM41.1 250.9c3.7 6.6 7.4 13.3 11.1 19.9l15 33.4c-15.3-21.1-30.4-42.6-45.1-64-.9-1.3-2.1-2.3-3.5-2.8-6-8.3-11.9-16.8-17.6-25.3 4.4-2.8 8.8-5.7 13.1-8.7l.3-.2q2.7-2.4 5.7-4.5l32.3 72c-3.9-6.6-7.6-13.2-11.3-19.8m263.7 196.8c2.4-.4 4.9-.6 7.4-.5h11.4c-20.2 21.8-40.9 43.5-61.6 64.7-5.5-4.5-10.7-9.6-15.4-14.9l-.2-.3-.3-.2c-1.7-1.2-3.4-2.6-5-4 21.1-14.8 42.4-29.8 63.7-44.8m132.1-252.2v-6.7c-.1-3.2-.1-6.4.1-9.6 24.6 23.6 49.8 47.6 75 71.4-5.2 5.1-10.3 10.4-15.4 15.7l-5.1 5.5c-.7-.6-1.3-1.3-1.8-2-17.1-24.9-34.9-49.9-52.8-74.3M268.5 18c-27.2 19-54.6 38.4-81.5 57.7l-.5.1c-1.7.5-3.4.7-5.2.5H177c2.2-2.5 4.4-5 6.6-7.4 22-22.8 44.3-45.9 66.1-68.9 4.1 4.2 8.3 8.3 12.6 12.2zM20.4 282l-3.4-3.4c-5.6-5.7-11.3-11.3-17-16.8 2.9-3.6 6.1-7.2 9.4-10.5 1-.6 2-1.2 2.9-2l.4-.3.3-.5c1.1-1.8 2.4-3.4 4-4.8 16 23.2 32.5 46.6 49 69.4.2.9.6 1.8 1.2 2.4.1 3.6 0 7.1-.2 10.6-15.5-14.5-31.1-29.2-46.4-43.9zm424 116.4c-1.9-46.1-4.4-92.9-7.4-138.9v-4.4c6.4 25.1 12.5 50.4 18.4 75.6 0 2 .5 3.7 1.5 5.3 2 8.5 4.3 17.1 6.8 25.5 2.5 10.1 5.1 20.4 7.7 30.5h-.4c-8.8 2.3-17.8 4.5-26.6 6.4M397.2 76.3H234.8c40.6-9.6 81.5-19.6 121.9-29.6l.5-.1.5-.3c.3-.2.7-.5.9-.8 9.7-2.6 19.7-4.7 29.6-6.5.2.3.3.7.5 1 2.4 10.9 4.8 21.7 7.2 32.5l.1.4.2.3c.3 1 .7 2 1 3.1M112.7 451l-.9-3.7h116.6c-25 6.2-50.2 12.3-75.1 18.2-2 .3-3.7 1.1-4.9 2.5q-15 3.6-30 6.9c-1.8-7.9-3.7-16-5.7-23.9M44.4 156.5c-.1-1.8-.6-3.4-1.5-4.9-1.5-5.2-3-10.6-4.6-15.8-.7-4.7-1.6-9.5-2.6-14.2 8.9-2.6 18-4.8 27-6.7 1.3-.3 2.6-.5 3.9-.7.5 44.9.7 90.4.7 135.6-6.9-28.8-14-57.8-21-86.6-.2-2.4-.9-4.6-1.9-6.7" style="fill-rule:evenodd;clip-rule:evenodd;fill:#fff"/></svg>