<?xml version="1.0" encoding="utf-8"?>
<!-- Generator: Adobe Illustrator 28.2.0, SVG Export Plug-In . SVG Version: 6.00 Build 0)  -->
<svg version="1.1" id="Layer_1" xmlns="http://www.w3.org/2000/svg" xmlns:xlink="http://www.w3.org/1999/xlink" x="0px" y="0px"
	 viewBox="0 0 512 512" style="enable-background:new 0 0 512 512;" xml:space="preserve">
<style type="text/css">
	.st0{fill:#FFFFFF;}
</style>
<g>
	<path class="st0" d="M207.8,318.4c-0.2,0.3-0.4,0.6-0.6,0.9C207.4,319,207.6,318.7,207.8,318.4z"/>
	<path class="st0" d="M168.2,257c-3.1-4.3-3.5-10.1-0.9-14.7l22.6-40.9c1-1.9,1.3-4.2,0.7-6.2c-0.6-2.1-2-3.8-3.9-4.8
		c-4-2.2-9-0.8-11.2,3.2L151,237.7c-2,3.5-5.3,6-9.3,6.8l-48.9,9.9c-4.4,0.9-7.3,5.3-6.4,9.7c0.9,4.4,5.3,7.3,9.7,6.4l45.1-9.1
		c5.2-1,10.6,1,13.7,5.3l26.6,36.2c0,0,0,0,0,0c2.7,3.6,7.8,4.4,11.5,1.7h0c3.6-2.7,4.4-7.8,1.8-11.5L168.2,257z"/>
	<path class="st0" d="M432.6,0H79.5C35.6,0,0,35.6,0,79.5v353C0,476.4,35.6,512,79.5,512h353c43.9,0,79.5-35.6,79.5-79.4V79.5
		C512,35.6,476.4,0,432.6,0z M443.3,278.3c-0.3,4.7-4.3,8.2-9,7.9h-91.5c-0.2,0-0.4,0-0.6,0c-4.7,0.2-8.3,4.1-8.1,8.7
		c0.2,4.7,4.1,8.3,8.7,8.1h45.9c4.7,0,8.4,3.8,8.4,8.4c0,4.7-3.8,8.4-8.4,8.4h-182c0.2-0.2,0.3-0.4,0.5-0.6c-1.5,2-3.6,3.4-6.1,4
		l-73.7,14.9c-3.9,0.8-7.9-0.8-10.2-4l-46.5-63.5c-2.4-3.2-2.6-7.5-0.7-10.9l36.6-66.1c1.4-2.6,4-4.4,6.9-5l74-14.9
		c3.9-0.8,7.9,0.8,10.2,4l17.7,24.2H404c4.4,0.2,8,3.7,8.1,8.1c0.2,4.7-3.5,8.6-8.1,8.7h-91.2c-4.7,0-8.4,3.8-8.4,8.4
		s3.8,8.4,8.4,8.4H373c4.4,0.2,8,3.7,8.1,8.1c0.2,4.7-3.5,8.6-8.1,8.7h-91.1c-4.7,0-8.4,3.8-8.4,8.4c0,4.7,3.8,8.4,8.4,8.4h152.4
		c0.4,0,0.7,0,1.1,0C440.1,269.7,443.6,273.7,443.3,278.3z M406.9,244.1c0,4.7-3.8,8.4-8.4,8.4s-8.4-3.8-8.4-8.4
		c0-4.7,3.8-8.4,8.4-8.4S406.9,239.4,406.9,244.1z"/>
</g>
</svg>
