<svg xmlns="http://www.w3.org/2000/svg" xml:space="preserve" viewBox="0 0 512 512"><ellipse cx="249.6" cy="258.1" rx="249.7" ry="245.9" style="fill:#1a1a1a"/><path d="M120 122.8v315.9l-73.5-59.5V122.8zm216 0v315.9l73.5-59.5V122.8z" style="fill:#ccc"/><path d="M46.5 122.8H120l151.6 206h-73.5z" style="fill:#f2f2f2"/><path d="m336 122.8-137.9 206v146.5h73.5V328.8l137.9-206z" style="fill:#f9f9f9"/><linearGradient id="papermerge_svg__a" x1="-220.829" x2="-187.005" y1="198.867" y2="200.37" gradientTransform="matrix(4.6726 0 0 4.776 1415.834 -786.065)" gradientUnits="userSpaceOnUse"><stop offset="0" style="stop-color:#007f00"/><stop offset="1" style="stop-color:#00ce00"/></linearGradient><path d="M506.4 175.3c-8.4-10.2-18.2-19.3-28.8-27.2-24.4-17.9-54.9-30.6-85.4-25.7-21.9 3.5-40.3 19.3-50.1 39.3 0 .1-.1.1-.1.3h.4c2 2 3.8 4 5.8 5.9 20.8 20.6 46.4 39.3 76.2 41.1 30.8 1.9 59.8-11.5 86-26.7l1.5.1c-1.6-2.3-3.5-4.7-5.5-7.1" style="fill:url(#papermerge_svg__a)"/><linearGradient id="papermerge_svg__b" x1="-227.457" x2="-196.658" y1="192.446" y2="166.417" gradientTransform="matrix(4.6726 0 0 4.776 1415.834 -786.065)" gradientUnits="userSpaceOnUse"><stop offset="0" style="stop-color:#00a800"/><stop offset="1" style="stop-color:#00e700"/></linearGradient><path d="M487 7.9c-16.4 0-32.8 2.3-48.7 6.4-36.3 9.7-72.8 29.5-92.6 63.3-14.2 24.3-14.1 55.1-3.1 80.5h.1c0 .1.1.3.1.4l.4-.4c3.5-.3 6.9-.6 10.3-1 36-3.9 74.1-14 99.8-41.7 26.5-28.7 37.1-68 43.8-105.8l1.4-1.4c-4-.1-7.7-.3-11.5-.3" style="fill:url(#papermerge_svg__b)"/></svg>