<svg xmlns="http://www.w3.org/2000/svg" xml:space="preserve" viewBox="0 0 512 512"><path d="M185.6 432c.8 2.4-19.2 30.4-32.8 52.8-3.2-11.2-6.4-24-6.4-24.8 67.2-80-48-124.8-54.4-190.4-28.8 52-39.2 143.2 48 195.2.8 0 4.8 20 6.4 29.6-2.4 4-4 8-4.8 11.2-2.4 4.8 13.6 4.8 13.6 5.6 1.6-.8 38.4-65.6 39.2-65.6C403.2 397.6 440 209.6 416 88c-54.4 125.6-313.6 141.6-230.4 344M144 445.6c6.4-14.4 8-45.6-23.2-100 18.4 16.8 49.6 68.8 23.2 100M512 56.8l-.8 60-109.6-58.4L0 287.2v-57.6L150.4 144V43.2H224v58.4L400 .8z" style="fill:#fff"/></svg>