<?xml version="1.0" encoding="utf-8"?>
<!-- Generator: Adobe Illustrator 28.2.0, SVG Export Plug-In . SVG Version: 6.00 Build 0)  -->
<svg version="1.1" id="Layer_1" xmlns="http://www.w3.org/2000/svg" xmlns:xlink="http://www.w3.org/1999/xlink" x="0px" y="0px"
	 viewBox="0 0 512 512" style="enable-background:new 0 0 512 512;" xml:space="preserve">
<style type="text/css">
	.st0{fill:#FFFFFF;}
</style>
<path class="st0" d="M280.3,0h-47.6C99.5,21.2,21.9,98.4,0,231.5V279c21.1,133.5,98.3,211.2,231.5,233h47.6
	c133.5-21,211.1-98.3,232.9-231.8v-47.3C490.9,99.6,413.7,22,280.3,0z M368.4,279.3c-1.2,1.6-2.5,3.1-3.9,4.5l-81.4,80.9
	c-8.1,8-18.8,11.7-29.3,11.2c-0.1,0-0.1,0-0.2,0c-9.3-0.5-18.4-4.3-25.4-11.4l-80.9-81.4c-0.5-0.5-0.9-1-1.4-1.5
	c-0.9-1-1.7-2-2.5-3.1c-0.4-0.5-0.8-1.1-1.1-1.6c-0.7-1.1-1.4-2.2-1.9-3.3c-1.5-2.8-2.6-5.8-3.3-8.8c-0.4-1.8-0.7-3.7-0.9-5.5
	c-1-11.1,2.7-22.6,11.3-31.1l81.4-80.9c3.8-3.8,8.2-6.6,12.9-8.5c2.3-0.9,4.8-1.6,7.2-2.1c2.4-0.5,4.9-0.7,7.4-0.7
	c1.2,0,2.5,0.1,3.7,0.2c8.7,0.9,17.1,4.6,23.7,11.3l80.9,81.4c7.5,7.6,11.3,17.5,11.3,27.5C375.9,264.5,373.4,272.5,368.4,279.3z"/>
</svg>
