<svg xmlns="http://www.w3.org/2000/svg" xml:space="preserve" viewBox="0 0 512 512"><path d="M433 512H80C36.1 512 .5 476.4.5 432.5v-353C.5 35.6 36.1 0 80 0h353.1c43.8 0 79.4 35.6 79.4 79.5v353.1c0 43.8-35.6 79.4-79.5 79.4" style="fill:#212937"/><path d="M320.6 197.9c-116.2 25.8-143.4 105.5-170.2 172.3l24.4 8.5L187 349c6.2 2.2 12.7 3.9 17.3 3.9 142.1 0 180.8-219.6 180.8-219.6-12.9 25.8-103.3 29.1-167.9 42s-90.4 67.8-90.4 93.6 22.6 48.4 22.6 48.4c42-119.4 171.2-119.4 171.2-119.4" style="fill:#fff"/></svg>