<?xml version="1.0" encoding="utf-8"?>
<!-- Generator: Adobe Illustrator 28.2.0, SVG Export Plug-In . SVG Version: 6.00 Build 0)  -->
<svg version="1.1"
	 id="svg3923" xmlns:svg="http://www.w3.org/2000/svg" xmlns:inkscape="http://www.inkscape.org/namespaces/inkscape" xmlns:rdf="http://www.w3.org/1999/02/22-rdf-syntax-ns#" xmlns:cc="http://creativecommons.org/ns#" xmlns:dc="http://purl.org/dc/elements/1.1/" xmlns:sodipodi="http://sodipodi.sourceforge.net/DTD/sodipodi-0.dtd"
	 xmlns="http://www.w3.org/2000/svg" xmlns:xlink="http://www.w3.org/1999/xlink" x="0px" y="0px" viewBox="0 0 512 512"
	 style="enable-background:new 0 0 512 512;" xml:space="preserve">
<style type="text/css">
	.st0{fill:#17541F;}
</style>
<path id="path3913" inkscape:connector-curvature="0" class="st0" d="M135.2,491.3c-2.5-11.9-7.6-35.8-8.1-35.8
	C20.9,392,33.4,282.1,68.6,219.3c7.6,79.1,147.6,133.8,66,230.6c-0.7,1.2,3.7,16.3,7.6,30.1c16.3-27.6,40.8-60.9,39.6-64
	C81.3,171,395.4,152.2,460.7,0.1c29.5,147-15.1,374.4-267.7,432.3c-1.2,0.7-45.9,79.1-47.7,79.8c0-1.2-18.8-0.7-16.3-6.9
	C130.2,501.3,132.7,496.3,135.2,491.3z M197.5,382.6c-39.6-93.6,76.7-196.6,134.4-222.3C213.7,265.7,193.6,344.3,197.5,382.6z
	 M132.1,432.2c32-37.1-5.6-100.6-28.3-121.2C142.1,377,139.6,415.2,132.1,432.2z"/>
</svg>
