<svg xmlns="http://www.w3.org/2000/svg" xml:space="preserve" viewBox="0 0 512 512"><path d="m486.5 264.4-222 222c-9.8 9.8-2.1 26.6 11.7 25.5 58.8-4.6 116.4-29.4 161.4-74.4s69.8-102.6 74.4-161.4c1-13.8-15.7-21.5-25.5-11.7m1.8-117.9-.4-.8c-13.1-27.7-49.4-34.4-71-12.7l-284 284c-21.7 21.7-14.9 57.9 12.7 71l.8.4c16.6 7.8 36.4 4 49.4-8.9L479.3 196c13.1-13.1 16.8-32.9 9-49.5M247.6 25.6c9.8-9.8 2.1-26.6-11.7-25.5-58.8 4.6-116.4 29.3-161.4 74.3S4.7 176.9.1 235.8c-1.1 13.8 15.7 21.5 25.5 11.7zM65.2 283.5l-32.6 32.6C19.5 329.2 16 349.2 23.9 366l.3.8c13 27.5 49.3 33.8 70.8 12.3l32.8-32.8c17.3-17.3 17.3-45.4 0-62.7-17.2-17.4-45.3-17.4-62.6-.1" style="fill:#545beb"/><path d="M230.8 243.4 379.1 95.1c21.5-21.5 15.2-57.8-12.3-70.8l-.8-.3c-16.8-7.9-36.7-4.5-49.9 8.7L168 180.8c-17.3 17.3-17.3 45.4 0 62.7 17.4 17.3 45.4 17.3 62.8-.1" style="fill:#fc466b"/></svg>