<?xml version="1.0" encoding="utf-8"?>
<!-- Generator: Adobe Illustrator 28.2.0, SVG Export Plug-In . SVG Version: 6.00 Build 0)  -->
<svg version="1.1" id="Layer_1" xmlns="http://www.w3.org/2000/svg" xmlns:xlink="http://www.w3.org/1999/xlink" x="0px" y="0px"
	 viewBox="0 0 512 512" style="enable-background:new 0 0 512 512;" xml:space="preserve">
<style type="text/css">
	.st0{fill:#FFFFFF;}
</style>
<path class="st0" d="M486.5,264.4l-222,222c-9.8,9.8-2.1,26.6,11.7,25.5c58.8-4.6,116.4-29.4,161.4-74.4s69.8-102.6,74.4-161.4
	C513,262.3,496.3,254.6,486.5,264.4z M488.3,146.5l-0.4-0.8c-13.1-27.7-49.4-34.4-71-12.7l-284,284c-21.7,21.7-14.9,57.9,12.7,71
	l0.8,0.4c16.6,7.8,36.4,4,49.4-8.9L479.3,196C492.4,182.9,496.1,163.1,488.3,146.5z M247.6,25.6c9.8-9.8,2.1-26.6-11.7-25.5
	C177.1,4.7,119.5,29.4,74.5,74.4S4.7,176.9,0.1,235.8c-1.1,13.8,15.7,21.5,25.5,11.7L247.6,25.6z M65.2,283.5l-32.6,32.6
	C19.5,329.2,16,349.2,23.9,366l0.3,0.8c13,27.5,49.3,33.8,70.8,12.3l32.8-32.8c17.3-17.3,17.3-45.4,0-62.7l0,0
	C110.6,266.2,82.5,266.2,65.2,283.5L65.2,283.5z M230.8,243.4L379.1,95.1c21.5-21.5,15.2-57.8-12.3-70.8L366,24
	c-16.8-7.9-36.7-4.5-49.9,8.7L168,180.8c-17.3,17.3-17.3,45.4,0,62.7l0,0C185.4,260.8,213.4,260.8,230.8,243.4L230.8,243.4z"/>
</svg>
