<svg xmlns="http://www.w3.org/2000/svg" xml:space="preserve" viewBox="0 0 512 512"><path d="m497.2 221.4-208.4-195c-18-16.9-46.6-16.9-65.2 0l-131 122.8c34.3 12.8 61.1 41.3 71 76.8h177c9.3 0 16.3 7.6 16.3 16.3v26.8c0 9.3-7.6 16.3-16.3 16.3h-20.4v37.8c0 9.3-7.6 16.3-16.3 16.3h-44.8c-9.3 0-16.3-7.6-16.3-16.3v-37.8h-78.6c-9.9 36.1-36.7 65.2-71.6 77.4l131.6 122.8c18 16.9 46.6 16.9 65.2 0l207.8-195c19.7-18.6 19.7-50 0-69.2M54.1 202.2c-8.7 0-16.9 2.3-24.4 5.8C12.2 216.7 0 234.8 0 255.7c0 20.4 11.1 37.8 27.9 47.2 7.6 4.1 16.3 6.4 25.6 6.4 29.7 0 53.6-23.9 53.6-53.6 1.2-29.1-23.3-53.5-53-53.5"/></svg>