<svg xmlns="http://www.w3.org/2000/svg" xml:space="preserve" viewBox="0 0 512 512"><path d="M311.6 183.9h28.5L303 146.8v28.5c0 3.3 0 6.7.2 8.5 1.7.1 5.1.1 8.4.1m0 28.7c-9.3 0-15.5 0-21.6-3.1-5.4-2.8-9.8-7.1-12.5-12.5-3.1-6.1-3.1-12.3-3.1-21.6v-48.5c-3.1-.3-7.5-.3-14.2-.3H214c-21.1 0-32.7 0-38.9 3.1-5.4 2.8-9.8 7.1-12.5 12.5-3.1 6.1-3.1 17.8-3.1 38.9v149.2c0 21.1 0 32.7 3.1 38.9 2.8 5.4 7.1 9.8 12.5 12.5 6.1 3.1 17.8 3.1 38.9 3.1h91.8c21.1 0 32.7 0 38.9-3.1 5.4-2.8 9.8-7.1 12.5-12.5 3.1-6.1 3.1-17.8 3.1-38.9V226.8c0-6.7 0-11.1-.3-14.2zM256 0C114.6 0 0 114.6 0 256s114.6 256 256 256 256-114.6 256-256S397.4 0 256 0m133.1 330.3c0 25.5 0 39.6-6.3 51.9-5.5 10.9-14.2 19.5-25.1 25.1-12.3 6.3-26.3 6.3-51.9 6.3H214c-25.5 0-39.6 0-51.9-6.3-10.9-5.5-19.5-14.2-25.1-25.1-6.3-12.3-6.3-26.3-6.3-51.9V181c0-25.5 0-39.6 6.3-51.9 5.5-10.9 14.2-19.5 25.1-25.1 12.3-6.3 26.3-6.3 51.9-6.3h46.1c11.3 0 17.5 0 24.1 1.6 3.5.8 6.8 2 10.1 3.4l.6.3c2 .9 4 2 5.9 3.2 5.8 3.5 10.2 7.9 18.2 15.9l45.8 45.8c8 8 12.4 12.4 15.9 18.2 1.2 1.9 2.2 3.9 3.2 6 .1.2.2.4.2.5 1.5 3.2 2.6 6.6 3.4 10.1 1.6 6.6 1.6 12.8 1.6 24.1z"/></svg>