<svg xmlns="http://www.w3.org/2000/svg" xml:space="preserve" viewBox="0 0 512 512"><path d="M32.5 57.7C32.5 25.8 58.3 0 90.1 0h187.5c111.5 0 201.9 90.4 201.9 201.9v252.4c0 31.9-25.8 57.7-57.7 57.7H90.1c-31.9 0-57.7-25.8-57.7-57.7V57.7z" style="fill:#2f89ff"/><path d="M324.5 64.9c0-23.9-19.4-43.3-43.3-43.3H97.4c-23.9 0-43.3 19.4-43.3 43.3v382.2c0 23.9 19.4 43.3 43.3 43.3h317.3c23.9 0 43.3-19.4 43.3-43.3V201.9c0-23.9-19.4-43.3-43.3-43.3h-46.9c-23.9 0-43.3-19.4-43.3-43.3z" style="fill-rule:evenodd;clip-rule:evenodd;fill:#eef6ff"/><path d="M220.2 133.4c14.3 0 26.5 8.9 28.3 20.5 9.7 63.9 19.3 127.8 28.9 191.7-.1 3-1.9 4.6-4.1 6.7-.3.3-.7.6-1.1 1H122.3c-15.7 0-28.5-10.5-28.5-23.5v-173c0-12.9 12.8-23.5 28.5-23.5h97.9zm-21.1 143.3c1.1 4.3 6.2 7 11.2 6.1 5.1-.9 8.5-5 7.5-9.2l-19-78.2c-.9-3.6-4.8-6.3-9.3-6.3h-19.6c-4.5 0-8.4 2.6-9.3 6.3l-19 78.1c-1 4.2 2.3 8.3 7.4 9.2 5.2.9 10.2-1.9 11.2-6.1l6.1-25h26.9zm7.3 103-1.6-10.7h50l-31.9 28.9c-9.6-3.7-15.3-11-16.5-18.2m183.3-198.9h-118l24.6 162.4c.4 6.6-1.8 12.9-7 17.8l-41.7 39.2h142.2c15.7 0 28.5-10.5 28.5-23.5V204.8c0-12.9-12.8-23.9-28.6-24m0 86.5h-2.5c-5.4 14.3-14 25.4-22.9 34.2 4.8 3.6 9.9 6.8 15 10 2.3 1.4 4.6 2.9 6.9 4.4 4.1 2.7 4.8 7.6 1.5 11s-9.3 3.9-13.4 1.2c-2.4-1.5-4.7-3-6.9-4.4-5.5-3.5-10.9-6.9-16.3-10.9-6.6 5-12.8 9-19.6 13.4-1 .6-2 1.3-3 1.9-4.1 2.7-10.1 2.2-13.4-1.2s-2.6-8.3 1.5-11c.9-.6 1.9-1.2 2.8-1.8 6.4-4.1 12.4-8 18.5-12.6-9.8-9.7-17.4-21.3-22.3-34.2H313c-5.3 0-9.5-3.5-9.5-7.8s4.3-7.8 9.5-7.8h28.5v-7.8c0-4.3 4.3-7.8 9.5-7.8 5.3 0 9.5 3.5 9.5 7.8v7.8h29.2c5.3 0 9.5 3.5 9.5 7.8s-4.2 7.8-9.5 7.8m-208-62.5h-4.1l-7.6 31.3h19.3zm153.8 62.5c4.1 9.1 9.6 16.4 15.6 22.7 6.1-6.2 12.1-13.6 16.2-22.7z" style="fill-rule:evenodd;clip-rule:evenodd;fill:#2f89ff"/></svg>