<svg xmlns="http://www.w3.org/2000/svg" xml:space="preserve" viewBox="0 0 512 512"><path d="M421.7 357.4c-18 0-32.7 14.7-32.7 32.7s14.7 32.7 32.7 32.7 32.7-14.7 32.7-32.7-14.7-32.7-32.7-32.7" style="fill:#069de0"/><path d="M421.7 268.1c-18 0-32.7 14.7-32.7 32.7s14.7 32.7 32.7 32.7 32.7-14.7 32.7-32.7c-.4-18.4-14.7-32.7-32.7-32.7" style="fill:#6e55dc"/><path d="M421.7 446.6c-18 0-32.7 14.7-32.7 32.7s14.7 32.7 32.7 32.7 32.7-14.7 32.7-32.7-14.7-32.7-32.7-32.7" style="fill:#05ac3f"/><path d="M421.7 178.5c-18 0-32.7 14.7-32.7 32.7s14.7 32.7 32.7 32.7 32.7-14.7 32.7-32.7c-.4-18-14.7-32.7-32.7-32.7" style="fill:#ef1541"/><path d="M421.7 89.3c-18 0-32.7 14.7-32.7 32.7s14.7 32.7 32.7 32.7 32.7-14.7 32.7-32.7c-.4-18.1-14.7-32.7-32.7-32.7" style="fill:#ff7112"/><path d="M421.7 0c-18 0-32.7 14.7-32.7 32.7s14.7 32.7 32.7 32.7 32.7-14.7 32.7-32.7C454 14.7 439.7 0 421.7 0" style="fill:#fccc12"/><path d="M192.9 20.2C114.4 20.2 50.6 84 50.6 162.5v329.2h67.5V309l24.8 26.2 99.2-39c56.5-22 93.2-73 93.2-133.6-.1-78.5-63.9-142.4-142.4-142.4m25.3 216.3-100.1 39V162.6c0-45.5 34-78 74.8-78s74.8 33 74.8 78c0 28.4-13.7 59.7-49.5 73.9"/></svg>