<svg xmlns="http://www.w3.org/2000/svg" xml:space="preserve" viewBox="0 0 512 512"><path d="m236.2 119.4 35.9-35.9 46.4-31s35.7-8.1 37.4-8.3 55.2 7.1 55.2 7.1L438.9 63l31.7 23.7 16.1 19.5 18.6 44.4 2 48.3-27.3 56.9-24.2 22.7-49.8 33-50.2 21.5-36.4 15.9L288 386l-29.3 24.7c-.2.2-61.5 38.1-61.5 38.1l-62.3 18.8-25.4-2.4-39.6-7.6-18.6-11.2-17.1 7.6-14.9-5.4-7.3-14.7s3.7-29.1 3.7-32-6.1-18.3-6.1-18.3l-4.9-46.4s14.4-56.2 15.1-57.4 27.6-41.3 27.6-41.3 41.3-36.1 42.7-37.1c1.5-1 40.8-23 40.8-23 28.8-9.3 56.9-21 84-35.2z" style="fill:#fada9d"/><path d="M388.6 83.5c2.7 2.7 8.8 7.1 9.8 10.7 1.7 5.9-4.9 9.5-9 11.5L365 117.2c-5.1 2.9-11 4.6-16.8 5.4-11.7.5-21.7-7.6-30.5-15.1-4.2-3.7-8.8-8.1-8.5-13.4.5-3.7 2.2-7.3 5.1-9.8 11.2-11.5 27.1-17.3 43.2-15.9 11.8 1.1 22.8 6.5 31.1 15.1m-170.5 85.4c4.6-2.2 10-6.1 15.1-6.6 8.5-1 17.8 10 16.4 18.1-1 6.8-7.8 11-13.9 14.2-36.6 20-73.7 40-110.6 60.1-3.4 2.2-7.6 3.7-11.7 4.4-5.9.5-11.5-2.7-16.6-5.9-4.2-2.4-8.5-5.4-9.8-10.3-.7-4.2.7-8.5 3.9-11.5 3.2-2.9 6.8-5.1 10.7-6.8l98.4-47.1zm-125.2 97c3.7 5.9-2.2 11.2-5.4 16.1-8.1 12-16.8 23.4-26.4 34.2-2.9 3.9-6.8 7.1-11.5 9.3-4.6 1.7-10.7 1-13.4-3.2-2.9-4.6-1-10.5 1-15.6l11.2-27.1c2.7-6.6 5.6-13.2 10.7-17.8 5.4-4.6 12.5-6.3 19.3-5.1 5.9 1.1 11 4.3 14.5 9.2m-62.8 91.5c-.2-7.6.5-15.1 2.2-22.7l9.5 3.4c-3.9 6.6-7.8 12.5-11.7 19.3m17.3 51.1c12.2-2 24.4-5.1 36.1-9.3 6.3-2.2 15.6-4.6 11-13.2-1.7-3.4-3.7-6.6-5.9-9.5-3.9-5.6-9-10.5-14.7-14.4-13.2-9-22.7 5.6-28.6 16.6-3.9 7.1-6.3 14.7-7.3 22.5-.5 1.7-.2 3.7.7 5.4 1.9 2.4 5.6 2.1 8.7 1.9m55.7 14.6c-10.5 3.4-21.7 5.4-32.7 5.9 11 5.6 23 8.3 35.2 8.3-1-4.7-1.3-10-2.5-14.2m72.3-2.2c0 2.4-.5 4.9-1.5 7.1-2.2 2.7-5.4 4.6-8.8 5.4-11 3.4-22.5 5.4-34.2 5.6h-.5c-4.2-.2-7.3-3.7-7.1-7.8 0-4.9 1.2-9.5 3.4-13.7 3.2-5.1 8.5-8.5 13.7-11.5 6.6-3.7 13.2-7.1 20-10.3.2 0 .5-.2.7-.2 3.9-1.2 8.1.7 9.5 4.6 2.6 6.7 5 14 4.8 20.8m-78.9-56.6c-5.9-6.1-12-11.7-18.3-17.1-4.4-3.9-5.6-10.5-2.7-15.6 8.1-13.7 18.8-25.9 31.7-35.4 3.9-2.9 8.8-5.9 13.7-5.4 5.4.5 9.8 4.6 13.4 8.8 6.3 6.3 12 13.2 16.8 20.5 4.9 7.6 7.1 16.4 6.3 25.4-1.2 10.5-8.1 19.8-16.4 26.4-5.4 4.2-11.5 7.8-17.6 10.5-5.6 2.7-12.5.7-16.1-4.4-3.2-4.9-6.9-9.6-10.8-13.7m159.2-5.4c1.5 7.1.7 14.7-2.2 21.2-4.2 8.3-12.7 13.4-20.8 18.3l-34.2 20.3c-.7.5-1.7.7-2.7 1-3.9.5-7.6-2.2-8.1-6.1-1.5-10.7-1.7-21.7 2.9-31.3 3.7-6.6 8.3-12.5 13.9-17.3l21.7-22c2-2 3.9-3.7 6.3-4.9 16.4-8.7 21 9.6 23.2 20.8m-63-113.1c8.8-3.2 19.3 8.1 23.9 14.7 5.4 7.3 7.6 16.4 6.8 25.4-2 15.4-14.2 27.3-25.9 37.8-3.4 3.4-7.3 6.3-11.5 8.5s-9.3 2.7-13.9 1c-4.4-2-7.3-6.3-9.8-10.3l-16.1-26.1c-3.2-5.1-6.8-11.2-5.6-17.3 1.5-7.8 9.3-12.5 16.4-15.9 11.5-5.8 23.3-13.1 35.7-17.8m96.7 65c4.4 3.2 7.8 7.6 9.5 12.7 2 6.8-.5 14.4-4.9 20.3-2.4 3.2-5.4 6.3-8.3 9q-1.05 1.05-2.4 1.5c-3.9 1.5-8.3-.5-9.8-4.4l-19.8-53.5c13 4.1 25.2 6.1 35.7 14.4m-47.1-95.2c-4.2 3.2-12.7 6.6-9.3 12.7 2.7 4.9 9 8.3 12.5 12.9.7 1 7.8 14.7 7.1 14.7 6.3-.5 12.7-2 18.8-4.2s11-7.1 13.4-12.9c1-2.7 1.2-5.6 1-8.3-.2-9.3-5.1-17.3-10-24.9-2-2.9-4.4-6.3-7.8-6.6-2.9-.5-5.9 1.5-8.3 3.4zm93.5 83.7c.7 9 2.9 8.3 11.7 7.3 13.9-1.7 27.6-4.6 41-8.8 3.4-1 6.3-3.9 7.3-7.3 3.2-10.3 3.9-21 2-31.3-.2-3.9-2-7.6-4.9-10.5-4.4-3.4-10.5-2.2-15.6-1l-40.5 9.8c-2.2.5-4.2 1.5-5.9 2.7-6.3 5.4-3.2 11.5-.7 17.1 2.9 7.4 4.9 14.7 5.6 22m-46.6-186.5c6.1 2.4 11.2 7.3 16.6 11 4.2 2.9 8.8 7.3 7.8 12.5-.7 3.7-4.2 6.1-7.3 8.1l-15.4 9.8c-7.3 4.6-16.1 9.5-24.4 7.1-7.1-2.2-11.5-9-10.7-16.4.7-6.1 5.1-11 9.5-15.6 6.1-6.8 12.4-20.9 23.9-16.5m11.2 56.1c-4.6 3.9-11.5 8.8-12.2 15.4-1.2 12 11.7 28.3 21 34.2 8.5 5.4 19.3 6.6 29.5 5.1 10-2 19.8-4.9 29.1-9 3.4-1.5 7.3-3.2 7.8-6.8 0-2.2-.5-4.4-1.7-6.1l-18.3-34.4c-3.7-6.6-7.8-13.9-15.1-16.1-6.1-1.7-12.7.7-18.3 3.7-7.9 4.3-15 8.7-21.8 14m66.4-24.1c-1.7-2.2-6.8-6.8-5.9-9.8s7.1-5.1 9.8-6.3c7.6-3.7 15.9-6.3 24.2-8.1 6.3-1.7 13.2-1.5 19.5.5 7.6 2.9 12.9 9.5 16.8 16.6 5.4 9 7.8 19.3 7.3 29.5-.5 10.5-6.1 20-14.7 25.9-4.4 2.7-10.3 4.2-14.7 1.7-2-1.2-3.7-2.9-5.1-4.9zm88.7 73.2c9.8 9.5 5.4 30.5 0 40.8-6.6 12.5-18.3 21.5-32 24.9l-2.2-38.8c-.7-4.6-.2-9.3 1.2-13.7 3.7-10 23.2-22.7 33-13.2m15.1-102.8c-9.8-3.4-20.3-1-30 2.9 6.3 7.6 11.5 15.9 15.4 25.2 7-8.3 12.2-17.8 14.6-28.1m-21.5-21.5c-9.5 1-20 3.9-29.5 4.9-3.2-11.7-10-22.2-19.3-30 19.5.9 35.6 10.5 48.8 25.1m36.2 58.1c-2.2 12-7.1 23.2-14.4 33 5.1 10.5 7.6 22.2 7.3 33.9 11.5-19.5 12.7-44.6 7.1-66.9" style="fill:#d59950"/><path d="M25.5 450.2c8.3 3.2 17.8 1 24.2-5.4 45.4 27.3 104.8 23.4 152.9 1.2s85.2-61.8 119.9-101.6c34.4-11.7 69.1-23.4 100.1-42.2s58.6-45.2 72.3-78.9c11.5-28.3 13.4-62 3.2-90.8-32.5 63.2-88.4 103.8-157.7 118.9-7.3 27.1-23.4 51.3-43.2 71.3s-43.7 35.7-68.6 48.8c-52.3 27.8-111.3 44.9-170 51.8-12.2 10.5-29.5 12.2-43.7 4.6.5 8.9 2.3 19.6 10.6 22.3" style="opacity:.21"/><path d="M511.4 159.4c-3.2-30.5-19-60.4-43.4-82.2-24.5-20.5-54.1-33.2-85.5-36.7-27.6-3.3-53.5.9-74.7 12-21 11-39.4 30.2-57.1 48.8-20.1 21.1-40.9 42.8-65 51.8-15.7 4.6-31.3 10-46.5 16.4-50.5 21.3-88.4 51.1-112.5 88.5-28.4 43.9-34.6 97.7-16.2 140.4 1.9 4.4.7 10-.7 16-.8 3.7-1.7 7.6-1.9 11.4-.6 7.3-.7 15.1 3.8 21.4 4.3 6.1 12.5 9.6 21.3 9.3h.3c6.4-.7 12.3-2.2 17.7-4.6 18.5 13.6 43.5 20.9 70.4 20.9 9.3 0 18.8-.9 28.4-2.6 29.2-5.4 58.7-18.7 92.8-41.7 30.4-20.5 52.5-40 69.7-61.5 3.7-4.6 7.1-9.3 10.3-14.1 14-6.8 28.4-12.6 42.4-18.3 31.4-12.7 61.1-24.7 87.6-47 40.9-34.4 63.4-83.4 58.8-128.2m-64.8 120.7c-25.4 21.3-54.4 33.1-85.1 45.5-10 4-20.1 8.2-30.3 12.7 10.1-18.7 16.2-38.1 18.1-57.3.2-2.6-1.6-4.9-4.2-5.1s-4.9 1.6-5.1 4.2c-2.1 22.4-10.5 45-24.4 66.3 0 .1-.1.1-.1.2-3.2 4.8-6.6 9.6-10.3 14.3-16.5 20.7-38 39.7-67.6 59.6-33.1 22.3-61.4 35.1-89.3 40.3-35.8 6.6-70.8-.1-93.7-18.1-1.4-1.1-3.4-1.3-5-.5-5.1 2.5-10.8 4.2-17.1 4.9-5.6.1-10.7-1.9-13.2-5.4-2.7-3.8-2.5-9.4-2.1-15.4.2-3.1.9-6.4 1.7-9.9 1.6-7.1 3.3-14.5.1-21.7C1.9 354.8 7.8 304.4 34.5 263c23.1-35.8 59.6-64.3 108.3-84.9 14.3-6 29-11.1 43.8-15.5.4 0 .7-.1 1.1-.2.3-.1.6-.2.9-.4 30.8-9.1 61.9-15.3 90.5-21 2.5-.5 4.2-3 3.7-5.5s-2.9-4.2-5.5-3.7c-18.5 3.7-38.2 7.6-58.1 12.4 13.5-10.6 26-23.7 38.2-36.5 17.2-18.1 35-36.7 54.7-47 19.6-10.2 43.6-14 69.4-11 29.6 3.3 57.4 15.3 80.4 34.5 22.6 20.2 37.3 47.9 40.2 76.1 4.3 41.8-16.9 87.7-55.5 119.8"/></svg>