<svg xmlns="http://www.w3.org/2000/svg" xml:space="preserve" viewBox="0 0 512 512"><path d="m462.5 468.2-33.9 33.9c-6.1 6-23.8 9.8-24.3 9.8-107.4.9-210.9-41.3-286.9-117.3C41.1 318.5-1.1 214.6 0 106.9c0-.1 3.9-17.3 9.9-23.3l33.9-34c12.5-12.4 36.3-18.1 53-12.5l7.2 2.4c16.7 5.6 34.2 24 38.8 41l17.1 62.7c4.6 17-1.6 41.2-14 53.6l-22.7 22.7c22.2 82.5 86.9 147.1 169.3 169.4l22.7-22.7c12.4-12.4 36.7-18.7 53.7-14l62.7 17.1c16.9 4.6 35.4 22 41 38.7l2.4 7.2c5.6 16.7-.1 40.6-12.5 53M288 256h32c0-35.3-28.7-64-64-64v32c17.6 0 32 14.4 32 32m128 0c0-88.4-71.6-160-160-160v32c70.6 0 128 57.4 128 128zM256 0v32c123.5 0 224 100.5 224 224h32C512 114.6 397.4 0 256 0" style="fill:#fff"/></svg>