<svg xmlns="http://www.w3.org/2000/svg" xml:space="preserve" viewBox="0 0 512 512"><circle cx="256" cy="256" r="248.9" style="fill:#fff"/><path d="M256 0C114.8 0 0 114.8 0 256s114.8 256 256 256 256-114.8 256-256S397.2 0 256 0m163.6 433.9c-10.7-10-25.6-23.2-37.6-31.2-20.9-13.8-86-30.1-122.3-64.3-35.2-33.4-3.7-84.7-3.7-84.7s-35.2 22.6-31.6 61.7c3.6 39 68.4 101.1 90.4 129.9 10.7 13.8 16.6 28.2 19.9 39.3-24.7 8.5-51.2 13.2-78.7 13.2q-5.85 0-11.7-.3c-.4-14.7-1.6-34.9-4.5-49.2-5.1-24.6-39.6-82.1-41-132-1.4-48.6 57.2-62.6 57.2-62.6s-40.9-8.9-65.9 21.3-23.2 119.9-27.9 155.8c-2.3 17.3-8.2 31.5-13.7 41.8-27.6-13.8-52.2-32.6-72.6-55.4 10-10.7 23.1-25.5 31.1-37.5 13.8-20.9 30.1-86 64.3-122.3 33.3-35.2 84.7-3.7 84.7-3.7s-22.6-35.2-61.7-31.6c-39 3.6-101.1 68.4-129.9 90.4-13.3 10.2-27 16.1-37.9 19.5-7.9-23.9-12.3-49.5-12.3-76 0-4.7.2-9.4.4-14 14.4-.5 33.3-1.7 46.8-4.5 24.6-5.1 82.1-39.6 132-41 48.5-1.4 62.6 57.2 62.6 57.2s8.9-40.9-21.3-65.9-119.9-23.2-155.8-27.9c-15.8-2.1-29-7.2-39-12.2 13.7-27.3 32.5-51.6 55-71.8 10.4 9.7 24 21.5 35.1 28.8 20.9 13.8 86 30.1 122.3 64.3 35.2 33.3 3.7 84.7 3.7 84.7s35.2-22.6 31.6-61.7c-3.6-39-68.4-101.1-90.4-129.9-9.4-12.2-15.1-24.7-18.6-35.2 24.3-8.2 50.4-12.7 77.4-12.7 4 0 7.9.1 11.8.3.5 14.1 1.7 31.8 4.4 44.6 5.1 24.6 39.6 82.1 41 132 1.4 48.6-57.2 62.6-57.2 62.6s40.9 8.9 65.9-21.3 23.2-119.9 27.9-155.8c2-15.3 6.9-28.2 11.8-38.1 27.4 13.4 51.9 31.8 72.4 54-9.7 10.4-21.6 24.1-28.9 35.2-13.8 20.9-30.1 86-64.3 122.3-33.4 35.2-84.7 3.7-84.7 3.7s22.6 35.2 61.7 31.6c39-3.6 101.1-68.4 129.9-90.4 12.7-9.8 25.8-15.6 36.5-19.1 8.9 25.1 13.7 52.1 13.7 80.2 0 3.2-.1 6.3-.2 9.4-14.5.5-33.4 1.7-47 4.5-24.6 5.1-82.1 39.6-132 41-48.5 1.4-62.6-57.2-62.6-57.2s-8.9 40.9 21.3 65.9 119.9 23.2 155.8 27.9c16.8 2.2 30.7 7.8 40.8 13.2-13.4 27.7-32 52.5-54.4 73.2" style="fill-rule:evenodd;clip-rule:evenodd;fill:red"/><radialGradient id="pepperminty-wiki_svg__a" cx="1008.252" cy="1668.755" r="800" gradientTransform="matrix(.32 0 0 .32 -66.64 -278.002)" gradientUnits="userSpaceOnUse"><stop offset="0" style="stop-color:#fff;stop-opacity:0"/><stop offset=".806" style="stop-color:#fff;stop-opacity:0"/><stop offset="1" style="stop-color:#b00000;stop-opacity:.7345"/></radialGradient><circle cx="256" cy="256" r="256" style="fill:url(#pepperminty-wiki_svg__a)"/></svg>