<?xml version="1.0" encoding="utf-8"?>
<!-- Generator: Adobe Illustrator 28.2.0, SVG Export Plug-In . SVG Version: 6.00 Build 0)  -->
<svg version="1.1"
	 id="svg2" xmlns:svg="http://www.w3.org/2000/svg" xmlns:sodipodi="http://sodipodi.sourceforge.net/DTD/sodipodi-0.dtd" xmlns:inkscape="http://www.inkscape.org/namespaces/inkscape" xmlns:rdf="http://www.w3.org/1999/02/22-rdf-syntax-ns#" xmlns:dc="http://purl.org/dc/elements/1.1/" xmlns:cc="http://creativecommons.org/ns#" inkscape:output_extension="org.inkscape.output.svg.inkscape" inkscape:version="0.92.1 r15371" sodipodi:docname="logo.svg" sodipodi:version="0.32"
	 xmlns="http://www.w3.org/2000/svg" xmlns:xlink="http://www.w3.org/1999/xlink" x="0px" y="0px" viewBox="0 0 512 512"
	 style="enable-background:new 0 0 512 512;" xml:space="preserve">
<style type="text/css">
	.st0{fill-rule:evenodd;clip-rule:evenodd;fill:#FFFFFF;}
</style>
<path class="st0" d="M256,0C114.8,0,0,114.8,0,256s114.8,256,256,256s256-114.8,256-256S397.2,0,256,0z M497.6,265.4
	c-14.5,0.5-33.4,1.7-47,4.5c-24.6,5.1-82.1,39.6-132,41c-48.1,1.4-62.3-56.1-62.6-57.2c0,0,0,0,0,0c0.6,0.9,23.1,35.1,61.7,31.5
	c39-3.6,101.1-68.4,129.9-90.4c12.7-9.8,25.8-15.6,36.5-19c8.9,25.1,13.7,52.1,13.7,80.2C497.8,259.2,497.7,262.3,497.6,265.4z
	 M433.9,92.5c-9.7,10.5-21.6,24-28.9,35.1c-13.8,20.9-30.1,86-64.3,122.3c-32.8,34.7-83,4.8-84.6,3.8c1.5,0.3,41.3,8.3,65.9-21.3
	c25-30.2,23.2-119.9,27.9-155.8c2-15.3,6.9-28.2,11.8-38.1C389,51.9,413.5,70.3,433.9,92.5z M14.6,242c14.5-0.5,33.3-1.7,46.8-4.5
	c24.6-5.1,82.1-39.6,132-41c47.9-1.4,62.2,55.8,62.6,57.2c-0.7-1.1-23.2-35.1-61.7-31.5c-39,3.6-101.1,68.4-129.9,90.4
	c-13.3,10.2-27,16.1-37.9,19.5c-7.9-23.9-12.3-49.5-12.3-76.1C14.2,251.3,14.4,246.6,14.6,242z M76,417.2c10-10.7,23.1-25.4,31-37.4
	c13.8-20.9,30.1-86,64.3-122.3c33.2-35.1,84.1-4.1,84.7-3.8c0,0,0,0,0,0s0,0,0,0c0,0,0,0,0,0s0,0,0,0c0.1-0.7,8.7-41.1-21.3-65.9
	c-30.2-25-119.9-23.2-155.8-27.9c-15.8-2.1-29-7.2-39-12.2c13.7-27.3,32.5-51.6,55-71.8c10.4,9.7,23.9,21.5,35,28.8
	c20.9,13.8,86,30.1,122.3,64.3c35.3,33.3,3.8,84.7,3.8,84.7s35.2-22.6,31.6-61.7c-3.6-39-68.4-101.1-90.4-129.9
	C187.7,49.9,182,37.4,178.5,27c24.3-8.3,50.4-12.7,77.5-12.7c4,0,7.9,0.1,11.8,0.3c0.5,14.1,1.7,31.8,4.4,44.7
	c5.1,24.6,39.6,82.1,41,132c1.4,48.1-56.2,62.3-57.2,62.6c0,0,0,0,0,0c0,0,0,0,0,0s0,0,0,0c0,0,0,0,0,0s0,0,0,0c0,0,0,0,0,0
	c0,0,0,0,0,0s0,0,0,0c0,0.1-0.1,0.4-0.2,0.9c-0.1,0.1-0.3,0.2-0.6,0.4c0.4-0.8,0.7-1.2,0.7-1.3c0,0,0,0,0,0s0,0,0,0c0,0,0,0,0,0
	s0,0,0,0c-0.6-0.1-41-8.7-65.9,21.3c-25,30.2-23.2,119.9-27.9,155.8c-2.3,17.3-8.1,31.5-13.6,41.7C121,458.8,96.3,439.9,76,417.2z
	 M244.3,497.5c-0.5-14.7-1.6-34.9-4.6-49.3c-5.1-24.6-39.6-82.1-41-132c-1.4-48,56-62.3,57.2-62.6c-1,0.6-32,21.1-31.8,56.3
	c0,1.2,0,2.4,0.1,3.6c0,0.6,0.1,1.2,0.1,1.8c3.6,39,68.4,101.1,90.4,129.9c10.7,13.9,16.6,28.2,19.9,39.3
	c-24.7,8.5-51.2,13.2-78.8,13.2C252.1,497.8,248.2,497.7,244.3,497.5z M419.6,433.8c-10.7-10-25.5-23.2-37.5-31.1
	c-20.9-13.8-86-30.1-122.3-64.3c-0.5-0.5-1-0.9-1.4-1.4c-11.5-11.6-15.3-25.3-15.3-38.2c0.1-21.9,11.1-41.2,12.7-44
	c-1.2,6.7-5.7,42.2,21.5,64.8c30.2,25,119.9,23.2,155.8,27.9c16.8,2.2,30.7,7.8,40.8,13.2C460.6,388.4,442,413.2,419.6,433.8z"/>
</svg>
