<svg xmlns="http://www.w3.org/2000/svg" xml:space="preserve" viewBox="0 0 512 512"><path d="M426.7 85.3H85.3C38.2 85.3 0 123.5 0 170.7v170.7c0 47.1 38.2 85.3 85.3 85.3h341.3c47.1 0 85.3-38.2 85.3-85.3V170.7c.1-47.2-38.1-85.4-85.2-85.4M125.4 222.7c-1.5-.8-3.6-2-6.4-3.4s-6-2.7-9.6-3.8c-3.6-1.2-7.2-1.7-10.8-1.7-2.9 0-5.4.6-7.5 1.7s-3.7 2.6-4.8 4.4-1.6 3.9-1.6 6.2c0 1.6.4 3.5 1.1 5.9s2.2 4.9 4.3 7.7c2.2 2.8 5.4 5.6 9.7 8.4q6.45 4.2 17.1 8.1v68.2H81.1v-53.7c-6.2-3.3-11.3-6.7-15.5-10.2s-7.5-7.1-9.9-10.9c-2.4-3.7-4.2-7.7-5.3-11.9s-1.6-8.5-1.6-13.2c0-7.1 1.9-13.6 5.6-19.5s9.1-10.6 16-14.1c6.9-3.6 15.1-5.3 24.5-5.3 8.1 0 15.6 1.1 22.6 3.3s13.7 5.1 20.4 8.7zm72.9 53.9c-2.6 4.7-6.1 8.2-10.5 10.3-4.4 2.2-9.3 3.3-14.6 3.3q-8.1 0-14.7-3.3c-4.3-2.2-7.8-5.6-10.4-10.3q-3.9-7.05-3.9-18.3 0-11.55 3.9-18.6c2.6-4.7 6.1-8 10.4-10.2 4.4-2.1 9.2-3.2 14.7-3.2 5.3 0 10.2 1.1 14.6 3.2q6.6 3.15 10.5 10.2t3.9 18.6q0 11.25-3.9 18.3M300.7 323q-1.95 1.5-5.7 2.4t-8.1.9c-4.7 0-8.6-.5-11.6-1.6s-5.9-3-8.7-5.6c-2.8-2.7-6.2-6.4-10.3-11.2-3.6 4.6-7 8.3-10.1 11s-6.3 4.7-9.6 5.8c-3.3 1.2-7.1 1.7-11.3 1.7q-4.35 0-8.1-.9c-2.5-.6-4.4-1.4-5.9-2.4v-18.3c1.6.5 3.2.9 5 1.3s3.9.5 6.4.5c3 0 5.6-.9 7.9-2.6 2.2-1.8 5.4-5.1 9.5-10.1-5.2-5.7-9.6-11.7-13.3-18s-5.5-13.6-5.5-21.8c0-5.9 1.4-11.2 4.3-15.9 2.8-4.7 6.9-8.3 12.1-11.1 5.3-2.7 11.5-4.1 18.6-4.1s13.3 1.4 18.6 4.1 9.3 6.4 12.2 11.1c2.8 4.7 4.2 9.9 4.2 15.9 0 5.3-.8 10.3-2.5 15s-4 9-6.9 13.1-6.1 7.9-9.6 11.7c4 5 7.1 8.3 9.4 10.2 2.3 1.8 4.8 2.7 7.4 2.7 2.9 0 5.3-.2 7.1-.5 1.8-.4 3.3-.8 4.5-1.3zm63.2-46.4c-2.6 4.7-6.1 8.2-10.5 10.3-4.4 2.2-9.3 3.3-14.6 3.3-5.5 0-10.3-1.1-14.7-3.3-4.3-2.2-7.8-5.6-10.4-10.3q-3.9-7.05-3.9-18.3 0-11.55 3.9-18.6c2.6-4.7 6.1-8 10.4-10.2 4.4-2.1 9.2-3.2 14.7-3.2 5.3 0 10.2 1.1 14.6 3.2q6.6 3.15 10.5 10.2t3.9 18.6q0 11.25-3.9 18.3m97.6-38.7c-1.1 4.2-2.8 8.1-5.3 11.9-2.4 3.7-5.7 7.4-9.9 10.9s-9.3 6.9-15.5 10.2v53.7h-35.7v-68.2q10.65-3.75 17.1-8.1c4.3-2.8 7.5-5.6 9.7-8.4s3.6-5.3 4.3-7.7 1.1-4.3 1.1-5.9c0-2.3-.5-4.4-1.6-6.2s-2.7-3.3-4.8-4.4c-2.1-1.2-4.6-1.7-7.5-1.7-3.6 0-7.2.6-10.8 1.7-3.6 1.2-6.7 2.4-9.5 3.8s-5 2.5-6.5 3.4l-12.5-25q9.9-5.4 20.4-8.7c10.5-3.3 14.5-3.3 22.6-3.3 9.5 0 17.7 1.8 24.6 5.3q10.2 5.4 15.9 14.1c3.7 5.9 5.6 12.4 5.6 19.5 0 4.5-.6 8.9-1.7 13.1"/></svg>