<?xml version="1.0" encoding="utf-8"?>
<!-- Generator: Adobe Illustrator 28.2.0, SVG Export Plug-In . SVG Version: 6.00 Build 0)  -->
<svg version="1.1" id="Layer_1" xmlns="http://www.w3.org/2000/svg" xmlns:xlink="http://www.w3.org/1999/xlink" x="0px" y="0px"
	 viewBox="0 0 512 512" style="enable-background:new 0 0 512 512;" xml:space="preserve">
<path d="M502.5,312.7c-2.6-7.9-10.7-10.4-23.9-7.7c-33.3,6.8-46.7,3-51.7,0.2c28.3-43.3,51.5-95.6,64-144.3
	c6.2-23.8,18.5-81.8-0.4-105.9C462.8,19.7,422.3,0.7,373.2,0.2c-32.3-0.4-60,7.6-67.1,10.4C294.5,7.8,282,6,268.3,5.8
	c-25.1-0.4-46.8,5.5-64.9,17.6C183.7,16.2,101.1-11,49.5,25.5C20.2,46.2,6.7,83.2,9.3,135.3c0.8,17.4,10.7,71,26.4,122.3
	C56.4,325.4,79,363.8,103,371.8c2.9,0.9,6.2,1.6,9.9,1.6c8.9,0,19.8-4,31.1-17.8c17.3-20.8,33.5-38.4,40.4-45.7
	c8.5,4.4,17.8,7,27.3,7.6c-1.6,1.9-2.9,3.7-4.2,5.2c-7.1,8.9-8.3,10.5-30.9,15.2c-6.9,1.4-25.2,5.2-25.5,18.6
	c-0.3,14.5,21.7,20.5,24.2,21.1c8.4,2.1,16.5,3.1,24.3,3.1c17.8,0,33.6-5.4,46.4-16c-0.3,46.6,1.8,91.9,7.5,106.1
	c4.4,10.9,16.5,41.3,54.1,41.3c5.4,0,11.3-0.6,17.6-2c38.6-8.3,55.3-25.3,61.7-62.8c3.3-18.9,9-64.3,11.8-90.1
	c5.6,1.5,12.3,2.2,19.5,2.2c17.7,0,38-4,49.5-9.3C483,343,507.3,327.2,502.5,312.7z M409.6,144c-0.2,6.8-1.1,12.9-2.2,19.7
	c-1.2,7.7-2.4,15.6-2.7,25.2c-0.3,9.4,0.9,19,2,28.4c2.1,18.5,4.3,36.1-3.1,53.8c-0.9-1.7-1.7-3.5-2.5-5.4c-1.2-2.8-3.5-6.9-7-13.2
	c-11.8-21.2-43.2-77.5-28.1-99.1C373.5,142.7,392.6,142,409.6,144z M476.3,66c7.1,9.1,10.7,38.2-2.8,90.3
	c-11.6,44.6-32.3,92.2-57.7,132.7c-0.2-0.3-0.4-0.5-0.6-0.8c0,0,0,0,0-0.1c15.1-25.6,12.1-50.8,9.4-73c-1.1-9.1-2.2-17.7-1.9-25.7
	c0.3-8.5,1.4-15.9,2.5-23c1.4-8.9,2.7-18.2,2.4-29.1c0.2-1.1,0.3-2.4,0.1-3.9c-1-10.5-12.9-41.7-37-69.8
	c-12.5-14.5-30.4-30.7-54.6-42.3C370.2,15,434.2,12.3,476.3,66z M130.2,344.2c-11.4,13.8-19,11.2-21.5,10.4
	c-17.4-5.7-37.7-43-55.8-102.3C37.2,200.7,28,148.9,27.3,134.4C25,88.9,36,57.1,59.9,40.1c38-26.9,100.1-11.9,127.4-3.2
	c-43.3,44.3-41.9,119.5-41.8,122.7c0,0.4,0.1,0.8,0.1,1.3c0,1.6,0.1,3.5,0.3,5.8c0.8,12.5,2.2,35.6-1.5,62
	c-3.5,24.9,4.1,49.2,21,66.8c1.3,1.4,2.7,2.7,4.1,4C161.8,307.9,146.5,324.7,130.2,344.2z M222.4,276.2l-1.1,3
	c-2.7,7.2-5.2,13.9-6.9,20.3c-13.3-0.4-26.2-6.2-36.1-16.5c-13-13.5-18.9-32.4-16.2-51.8c4-28.2,2.4-53.5,1.7-65.6
	c-0.1-1.3-0.1-2.5-0.2-3.6c7.4-6.2,36-20,54.6-15.4c8.7,2.1,13.8,8,16,18.4c12.3,56.9,1.7,80.6-6.9,99.6
	C225.5,268.5,223.9,272.3,222.4,276.2z M245.4,339c-18.6,26.1-45.9,25.8-65.6,20.9c-2.6-0.6-5-1.6-7-2.6c1.8-0.6,4.2-1.2,7.5-2.1
	c27.7-5.7,32-9.7,41.4-21.7c2.1-2.7,4.5-5.7,7.8-9.4c4.2-4.7,5.7-4.1,9.6-2.4c2.5,1,5.7,4.5,7,9.1c0.2,0.8,0.5,1.9,0.6,3.1
	c0,0.6,0,1.2-0.1,1.9C246.5,336.8,246.1,338,245.4,339z M321.6,492.4c-5.1,1.1-9.7,1.6-13.9,1.6c-21.9,0-31-14.2-37.3-30
	c-4.3-10.7-7.5-62.5-5.6-130.9c0-1.2-0.2-2.4-0.6-3.5c-0.2-1.1-0.5-2.3-0.8-3.4c-2.7-9.5-9.3-17.5-17.2-20.8
	c-2.6-1.2-7.6-3.3-13.8-2.6c1.4-5.2,3.6-11.1,6-17.3l1.1-3.1c1.3-3.3,2.8-6.8,4.5-10.5c9.2-20.3,21.7-48.1,8.1-110.8
	c-5.2-23.9-23.1-36-49.2-33.2c-15.5,1.7-29.7,7.9-36.7,11.5c-0.6,0.3-1.2,0.6-1.8,0.9c2.3-23.8,10-64.9,36.1-91.2
	c17-17.2,39.7-25.7,67.4-25.2c54.6,0.9,89.7,28.8,109.5,52.1c16.1,18.9,25.4,38.3,29.6,49.7c-27.6-2.5-45.9,3.3-55.8,17.4
	c-21.6,30.9,10.1,87.7,27.1,118.2c2.8,4.9,5.3,9.6,6.1,11.4c5.2,12.4,11.8,20.7,16.7,26.8c1,1.1,1.9,2.3,2.8,3.5
	c-8.8,2.9-22.7,10.1-21.5,37.2c-1,14.7-9,80.4-13.1,104C364.1,474.4,353,485.6,321.6,492.4z M460.2,333.6
	c-8.3,3.8-22.3,6.8-35.6,7.5c-14,0.8-21.8-1.1-24.3-2.5c-0.6-15.8,5.2-17.4,11.7-19.2c0.8-0.2,1.6-0.4,2.4-0.7
	c0.5,0.4,1,0.7,1.6,1.1c11.9,7.8,32.3,9.2,60.8,3.9C472.7,326.8,467.2,330.3,460.2,333.6z M229.6,161.8c-0.4,2.9-3.1,5.3-4.3,6.2
	c-3,2.1-6.4,3.3-9.7,3.3c-0.6,0-1.2,0-1.8-0.1c-7.5-1-14.2-8.6-13.5-13.4c0.1-1,0.6-2.5,2.3-3.7c2.7-2,7.7-2.8,13.5-1.9
	C223.1,153.1,230.3,156.5,229.6,161.8z M396.8,149.1c1.6,1.2,2.1,2.6,2.2,3.6c0.6,4.3-5.5,12.4-13.5,13.4c-0.7,0.1-1.3,0.1-1.9,0.1
	c-3.3,0-6.7-1.2-9.5-3.3c-1.2-0.9-3.9-3.3-4.3-6.2c-0.7-5.2,6.5-8.7,13.5-9.6C387.8,146.5,393.6,146.7,396.8,149.1z"/>
</svg>
