<svg xmlns="http://www.w3.org/2000/svg" xml:space="preserve" viewBox="0 0 512 512"><path d="M502.5 312.7c-2.6-7.9-10.7-10.4-23.9-7.7-33.3 6.8-46.7 3-51.7.2 28.3-43.3 51.5-95.6 64-144.3 6.2-23.8 18.5-81.8-.4-105.9C462.8 19.7 422.3.7 373.2.2c-32.3-.4-60 7.6-67.1 10.4C294.5 7.8 282 6 268.3 5.8c-25.1-.4-46.8 5.5-64.9 17.6-19.7-7.2-102.3-34.4-153.9 2.1C20.2 46.2 6.7 83.2 9.3 135.3c.8 17.4 10.7 71 26.4 122.3C56.4 325.4 79 363.8 103 371.8c2.9.9 6.2 1.6 9.9 1.6 8.9 0 19.8-4 31.1-17.8 17.3-20.8 33.5-38.4 40.4-45.7 8.5 4.4 17.8 7 27.3 7.6-1.6 1.9-2.9 3.7-4.2 5.2-7.1 8.9-8.3 10.5-30.9 15.2-6.9 1.4-25.2 5.2-25.5 18.6-.3 14.5 21.7 20.5 24.2 21.1 8.4 2.1 16.5 3.1 24.3 3.1 17.8 0 33.6-5.4 46.4-16-.3 46.6 1.8 91.9 7.5 106.1 4.4 10.9 16.5 41.3 54.1 41.3 5.4 0 11.3-.6 17.6-2 38.6-8.3 55.3-25.3 61.7-62.8 3.3-18.9 9-64.3 11.8-90.1 5.6 1.5 12.3 2.2 19.5 2.2 17.7 0 38-4 49.5-9.3 15.3-7.1 39.6-22.9 34.8-37.4M409.6 144c-.2 6.8-1.1 12.9-2.2 19.7-1.2 7.7-2.4 15.6-2.7 25.2-.3 9.4.9 19 2 28.4 2.1 18.5 4.3 36.1-3.1 53.8-.9-1.7-1.7-3.5-2.5-5.4-1.2-2.8-3.5-6.9-7-13.2-11.8-21.2-43.2-77.5-28.1-99.1 7.5-10.7 26.6-11.4 43.6-9.4m66.7-78c7.1 9.1 10.7 38.2-2.8 90.3-11.6 44.6-32.3 92.2-57.7 132.7-.2-.3-.4-.5-.6-.8v-.1c15.1-25.6 12.1-50.8 9.4-73-1.1-9.1-2.2-17.7-1.9-25.7.3-8.5 1.4-15.9 2.5-23 1.4-8.9 2.7-18.2 2.4-29.1.2-1.1.3-2.4.1-3.9-1-10.5-12.9-41.7-37-69.8-12.5-14.5-30.4-30.7-54.6-42.3 34.1-6.3 98.1-9 140.2 44.7M130.2 344.2c-11.4 13.8-19 11.2-21.5 10.4-17.4-5.7-37.7-43-55.8-102.3C37.2 200.7 28 148.9 27.3 134.4 25 88.9 36 57.1 59.9 40.1c38-26.9 100.1-11.9 127.4-3.2-43.3 44.3-41.9 119.5-41.8 122.7 0 .4.1.8.1 1.3 0 1.6.1 3.5.3 5.8.8 12.5 2.2 35.6-1.5 62-3.5 24.9 4.1 49.2 21 66.8 1.3 1.4 2.7 2.7 4.1 4-7.7 8.4-23 25.2-39.3 44.7m92.2-68-1.1 3c-2.7 7.2-5.2 13.9-6.9 20.3-13.3-.4-26.2-6.2-36.1-16.5-13-13.5-18.9-32.4-16.2-51.8 4-28.2 2.4-53.5 1.7-65.6-.1-1.3-.1-2.5-.2-3.6 7.4-6.2 36-20 54.6-15.4 8.7 2.1 13.8 8 16 18.4 12.3 56.9 1.7 80.6-6.9 99.6-1.8 3.9-3.4 7.7-4.9 11.6m23 62.8c-18.6 26.1-45.9 25.8-65.6 20.9-2.6-.6-5-1.6-7-2.6 1.8-.6 4.2-1.2 7.5-2.1 27.7-5.7 32-9.7 41.4-21.7 2.1-2.7 4.5-5.7 7.8-9.4 4.2-4.7 5.7-4.1 9.6-2.4 2.5 1 5.7 4.5 7 9.1.2.8.5 1.9.6 3.1 0 .6 0 1.2-.1 1.9-.1 1-.5 2.2-1.2 3.2m76.2 153.4c-5.1 1.1-9.7 1.6-13.9 1.6-21.9 0-31-14.2-37.3-30-4.3-10.7-7.5-62.5-5.6-130.9 0-1.2-.2-2.4-.6-3.5-.2-1.1-.5-2.3-.8-3.4-2.7-9.5-9.3-17.5-17.2-20.8-2.6-1.2-7.6-3.3-13.8-2.6 1.4-5.2 3.6-11.1 6-17.3l1.1-3.1q1.95-4.95 4.5-10.5c9.2-20.3 21.7-48.1 8.1-110.8-5.2-23.9-23.1-36-49.2-33.2-15.5 1.7-29.7 7.9-36.7 11.5l-1.8.9c2.3-23.8 10-64.9 36.1-91.2 17-17.2 39.7-25.7 67.4-25.2 54.6.9 89.7 28.8 109.5 52.1 16.1 18.9 25.4 38.3 29.6 49.7-27.6-2.5-45.9 3.3-55.8 17.4-21.6 30.9 10.1 87.7 27.1 118.2 2.8 4.9 5.3 9.6 6.1 11.4 5.2 12.4 11.8 20.7 16.7 26.8 1 1.1 1.9 2.3 2.8 3.5-8.8 2.9-22.7 10.1-21.5 37.2-1 14.7-9 80.4-13.1 104-5.2 30.2-16.3 41.4-47.7 48.2m138.6-158.8c-8.3 3.8-22.3 6.8-35.6 7.5-14 .8-21.8-1.1-24.3-2.5-.6-15.8 5.2-17.4 11.7-19.2.8-.2 1.6-.4 2.4-.7.5.4 1 .7 1.6 1.1 11.9 7.8 32.3 9.2 60.8 3.9-4.1 3.1-9.6 6.6-16.6 9.9M229.6 161.8c-.4 2.9-3.1 5.3-4.3 6.2-3 2.1-6.4 3.3-9.7 3.3-.6 0-1.2 0-1.8-.1-7.5-1-14.2-8.6-13.5-13.4.1-1 .6-2.5 2.3-3.7 2.7-2 7.7-2.8 13.5-1.9 7 .9 14.2 4.3 13.5 9.6m167.2-12.7c1.6 1.2 2.1 2.6 2.2 3.6.6 4.3-5.5 12.4-13.5 13.4-.7.1-1.3.1-1.9.1-3.3 0-6.7-1.2-9.5-3.3-1.2-.9-3.9-3.3-4.3-6.2-.7-5.2 6.5-8.7 13.5-9.6 4.5-.6 10.3-.4 13.5 2" style="fill:#fff"/></svg>