<svg xmlns="http://www.w3.org/2000/svg" xml:space="preserve" viewBox="0 0 512 512"><path d="M320.3 22.4C181.4-13.2 45.9 81 4.6 254c-18.7 78.6 18.5 172.6 140 202.5l109.6 27.4c82.7 22.6 138 13.3 174.5-6.3 43.2-23.1 64.5-61.8 72.4-98.9 35.8-167.9-14.3-313.6-180.8-356.3m135.3 346.5c-10.8 50.5-56.2 106.5-189.6 69.9l-110.2-27.5C66.5 389.4 36 322.6 49.8 264.8c34.3-143.9 143.5-226.9 259-197.3C448.6 103.3 485.7 228 455.6 368.9M203.1 176.2c-16.6-8-82.3 36.5-87.2 101.5-2.1 27.2 51.8 36.8 57.7-2 8.3-53.8 42.2-93.3 29.5-99.5M325.3 199c-23.7 3.7-4.3 67.2-6.7 122-1.4 31.8 49.9 39.4 53.5 22.9 12.5-57.6-23.5-148.5-46.8-144.9" style="fill-rule:evenodd;clip-rule:evenodd;fill:#fff"/></svg>