<svg xmlns="http://www.w3.org/2000/svg" xml:space="preserve" viewBox="0 0 512 512"><path d="M256 0c-52.8 0-98.7 32.2-129.9 78.9S76.9 187.8 76.9 256c0 13.4.7 26.6 2.1 39.5 1.5 14.1 11.7 17.2 21.7 7.2l9.9-9.9c10-10 17.5-26.5 17.5-36.8 0-59 16.2-112 40.7-148.7S224 51.2 256 51.2s62.8 19.4 87.3 56.1c3.3 5 6.5 10.3 9.5 15.8L138.8 337l-40.7 40.7-90.5 90.5c-10 10-10 26.2 0 36.2s26.2 10 36.2 0l78.1-78.1c1.4 2.3 2.8 4.6 4.2 6.8C157.3 479.8 203.2 512 256 512s98.7-32.2 129.9-78.9c31.1-46.7 49.3-108.9 49.3-177.1 0-13.4-.7-26.6-2.1-39.5-1.5-14.1-11.7-17.2-21.7-7.2l-9.9 9.9c-10 10-17.5 26.5-17.5 36.8 0 59-16.2 112-40.7 148.7s-55.2 56.1-87.3 56.1-62.8-19.4-87.3-56.1c-3.3-5-6.5-10.3-9.5-15.8l214-213.9 40.7-40.7 90.5-90.5c10-10 10-26.2 0-36.2s-26.2-10-36.2 0l-78.1 78.1c-1.4-2.3-2.8-4.6-4.2-6.8C354.7 32.2 308.8 0 256 0" style="fill:#fff"/></svg>