<?xml version="1.0" encoding="utf-8"?>
<!-- Generator: Adobe Illustrator 28.2.0, SVG Export Plug-In . SVG Version: 6.00 Build 0)  -->
<svg version="1.1"
	 id="Layer1" xmlns:svg="http://www.w3.org/2000/svg" xmlns:sodipodi="http://sodipodi.sourceforge.net/DTD/sodipodi-0.dtd" xmlns:inkscape="http://www.inkscape.org/namespaces/inkscape"
	 xmlns="http://www.w3.org/2000/svg" xmlns:xlink="http://www.w3.org/1999/xlink" x="0px" y="0px" viewBox="0 0 512 512"
	 style="enable-background:new 0 0 512 512;" xml:space="preserve">
<path d="M283.3,107.3l-6.4-9.6l8.9,6L283.3,107.3z M276.2,117.5L255.6,87L89.8,336.4l33.8-0.1L276.2,117.5z M292.8,114l-2.5,3.6
	l13.5,20.1L292.8,114z M137.8,336.2l256.9-1.1L334.3,204l-51.2-76.1L137.8,336.2z M422.4,335L375,264.5l32.5,70.5H422.4z M512,256
	c0,141.4-114.6,256-256,256S0,397.4,0,256S114.6,0,256,0S512,114.6,512,256z M438.3,343c0.4-0.8,0.6-1.7,0.5-2.8v-1.8l-94.4-140.3
	l-45-97.7c-0.4-1.2-1.2-2.2-2.3-2.9l0.1-0.2l-35.7-24v-0.6l-2.4-1l-0.3-0.2v0.1l-0.9-0.4c-2.2-0.9-4.7-0.4-6.5,1.3l-0.5,0.6
	L73.3,340.2v1.8c0,2.6,1.4,4,1.9,4.5l26.8,25.3v3.3h5.7l316.8,18.2h0.3c3.1,0,5.6-2.3,6-5.2L438.3,343z M422.5,367.5l3.4-20.9
	l-13,0.1L422.5,367.5z M129.7,347.9L118.4,364L416,381.1l-15.9-34.4L129.7,347.9z M106.8,360.3l8.7-12.3l-21.6,0.1L106.8,360.3z"/>
</svg>
