<svg xmlns="http://www.w3.org/2000/svg" xml:space="preserve" viewBox="0 0 512 512"><path d="m283.3 107.3-6.4-9.6 8.9 6zm-7.1 10.2L255.6 87 89.8 336.4l33.8-.1zm16.6-3.5-2.5 3.6 13.5 20.1zm-155 222.2 256.9-1.1L334.3 204l-51.2-76.1zm284.6-1.2L375 264.5l32.5 70.5zm89.6-79c0 141.4-114.6 256-256 256S0 397.4 0 256 114.6 0 256 0s256 114.6 256 256m-73.7 87c.4-.8.6-1.7.5-2.8v-1.8l-94.4-140.3-45-97.7c-.4-1.2-1.2-2.2-2.3-2.9l.1-.2-35.7-24v-.6l-2.4-1-.3-.2v.1l-.9-.4c-2.2-.9-4.7-.4-6.5 1.3l-.5.6L73.3 340.2v1.8c0 2.6 1.4 4 1.9 4.5l26.8 25.3v3.3h5.7l316.8 18.2h.3c3.1 0 5.6-2.3 6-5.2zm-15.8 24.5 3.4-20.9-13 .1zm-292.8-19.6L118.4 364 416 381.1l-15.9-34.4zm-22.9 12.4 8.7-12.3-21.6.1z"/></svg>