<?xml version="1.0" encoding="utf-8"?>
<!-- Generator: Adobe Illustrator 28.2.0, SVG Export Plug-In . SVG Version: 6.00 Build 0)  -->
<svg version="1.1"
	 id="Layer1" xmlns:svg="http://www.w3.org/2000/svg" xmlns:sodipodi="http://sodipodi.sourceforge.net/DTD/sodipodi-0.dtd" xmlns:inkscape="http://www.inkscape.org/namespaces/inkscape"
	 xmlns="http://www.w3.org/2000/svg" xmlns:xlink="http://www.w3.org/1999/xlink" x="0px" y="0px" viewBox="0 0 512 512"
	 style="enable-background:new 0 0 512 512;" xml:space="preserve">
<style type="text/css">
	.st0{fill:#FFFFFF;}
</style>
<path class="st0" d="M285.8,103.7l-8.9-6l6.4,9.6L285.8,103.7z M276.2,117.5L255.6,87L89.8,336.4l33.8-0.1L276.2,117.5z M292.8,114
	l-2.5,3.6l13.5,20.1L292.8,114z M137.8,336.2l256.9-1.1L334.3,204l-51.2-76.1L137.8,336.2z M422.4,335L375,264.5l32.5,70.5H422.4z
	 M256,0C114.6,0,0,114.6,0,256s114.6,256,256,256s256-114.6,256-256S397.4,0,256,0z M438.3,343l-7.5,45.1c-0.4,2.9-2.9,5.2-6,5.2
	h-0.3l-316.8-18.2H102v-3.3l-26.8-25.3c-0.5-0.5-1.9-1.9-1.9-4.5v-1.8L250.9,73.1l0.5-0.6l0,0c1.8-1.7,4.3-2.2,6.5-1.3l0.9,0.4v-0.1
	l0.3,0.2l2.4,1v0.6l35.7,24l-0.1,0.2c1.1,0.7,1.9,1.7,2.3,2.9l45,97.7l94.4,140.3v1.8C438.9,341.3,438.7,342.2,438.3,343z
	 M422.5,367.5l3.4-20.9l-13,0.1L422.5,367.5z M129.7,347.9L118.4,364L416,381.1l-15.9-34.4L129.7,347.9z M106.8,360.3l8.7-12.3
	l-21.6,0.1L106.8,360.3z"/>
</svg>
