<svg xmlns="http://www.w3.org/2000/svg" xml:space="preserve" viewBox="0 0 512 512"><path d="m288.2 15-.5-.8c-.2-.2-.5-.5-.8-.5l-.8.2c-.5.5-.7.7-.7 1.2L266 365.5l2.9-.5 18.6-341 22.3 36.7h-.2c16.8 49.6 24 102.5 21.2 158.6l1.4 2 22.1 39.1 1.4 1.4c34 29.9 71.9 49.8 114 60.2l10.2 16.7 1.4.5.2-.5L287.7 21.6zm-6.8 123.6c24 48.9 32.6 123 26.2 221.9l93.1-11.4zm212.1 215.1c9.5-1.2 15.6-3.2 18.5-6.1L24.8 407.1h-.2c.2 20.2 9.3 36.2 27 47.6 4.8 3.4 9.9 5.9 14.3 7.5 4.2-4.9 9.2-8.7 14.8-12.1h.2c51-30.9 126.8-35.7 227-14.6l1.2.2c10.9 2.2 21.9 4.9 32.1 8.2 2.9.5 5.4-.5 7.5-2.2 3.6-2.7 8.2-4.8 14.3-6.1v-.2c16.1-28.7 38.1-49.8 65.4-63.7 18.9-9.5 40.8-15.6 65.1-18m-234 9 22.3-341.9c-32.3 124.7-84.3 241.3-155.5 349.6zM134 87.2l-.8-.5-.8.2-.5 1.2-18.5 296 2.7-.2 18.5-295.7zm-26 290.5L127.5 89 24.4 386.5zM1.3 487.6c-.5 0-1-.3-1.2-.8-.3-.7 0-1.5.7-1.9 12.4-5.8 23.3-9.3 32.6-10.2 9.3-1 17.3.7 23.5 4.8 11.6 7.3 30.1 4.9 54.9-7 .7-.3 1.5 0 1.9.7.3.7 0 1.5-.7 1.9-12.9 6.1-24.3 9.9-33.8 11s-17.7-.3-23.8-4.2c-5.6-3.7-12.9-5.3-21.6-4.4-8.8.8-19.5 4.2-31.6 10-.5 0-.7.1-.9.1m70 10.7c-3.9 0-7.8-.2-11.9-.5-.7 0-1.4-.7-1.2-1.5 0-.7.7-1.4 1.5-1.2 22.4 2 40.8-1.5 56.3-11 16-9.5 29.9-13.9 41.1-12.9 5.3.5 10.7 1.5 15.8 3.2.7.2 1 1 .8 1.7s-1 1-1.7.8c-4.9-1.7-10-2.7-15.1-3.1-10.7-.8-24 3.4-39.4 12.6-8 4.8-16.8 8.2-26.5 10-6.2 1.4-12.7 1.9-19.7 1.9m7.3-28.5c-.5 0-.8-.2-1.2-.5-.3-.7-.3-1.5.3-1.9 12.1-8.3 26.2-15 42-19.7 15.8-4.8 33.6-7.8 53.2-9.2s41.1-.8 64.4 1.2c23.3 2.2 48.8 5.9 75.8 11.6.7.2 1.2.8 1 1.5s-.8 1.2-1.5 1c-107.5-22.1-186-16.8-233.3 15.8-.1.2-.3.2-.7.2m200.6 16c-3.6 0-7.3-.2-11-.5-.7 0-1.4-.7-1.2-1.5 0-.7.7-1.4 1.5-1.2 22.4 1.9 41-1.7 56.4-11q24-14.25 41.1-12.9c5.4.2 10.7 1.4 15.8 3.2.7.3 1 1 .8 1.7-.3.7-1 1-1.7.8-4.8-1.9-9.9-2.9-15.1-3.1-10.7-.8-24 3.4-39.4 12.6-8 4.8-16.8 8-26.5 9.9-6.6 1.3-13.4 2-20.7 2M201 98.8c-.8 0-1.7-.3-2.4-1-9.3-9.5-18.7-11.2-28.7-5.1-1.5.8-3.6.3-4.4-1.2s-.3-3.6 1.2-4.4c6.3-3.7 12.7-5.3 19-4.1 5.4.8 10.5 3.7 15.6 8.3 5.8-4.6 11.4-7.3 17.2-8.3 6.6-1 13.1.3 19.4 4.2 1.5 1 2 2.9 1 4.4s-2.9 2-4.4 1c-9.9-6.1-20.1-4.2-30.9 5.3-1.1.7-1.9.9-2.6.9m-24.5-35.7c-.8 0-1.9-.3-2.4-1-10-11-19.9-13.6-29.9-7.6-1.5.8-3.6.3-4.4-1.2s-.3-3.6 1.2-4.4c6.5-3.9 12.9-4.9 19.5-3.4 5.4 1.4 10.9 4.6 16.1 9.7 11.7-11.4 23.6-13.4 35.5-6.3 1.5.8 2 2.9 1.2 4.4s-2.9 2-4.4 1.2c-10-5.9-19.5-3.6-29.9 7.6-.6.7-1.4 1-2.5 1" style="fill:#232323"/></svg>