<?xml version="1.0" encoding="utf-8"?>
<!-- Generator: Adobe Illustrator 28.2.0, SVG Export Plug-In . SVG Version: 6.00 Build 0)  -->
<svg version="1.1"
	 id="svg2" xmlns:cc="http://creativecommons.org/ns#" xmlns:svg="http://www.w3.org/2000/svg" xmlns:rdf="http://www.w3.org/1999/02/22-rdf-syntax-ns#" xmlns:dc="http://purl.org/dc/elements/1.1/"
	 xmlns="http://www.w3.org/2000/svg" xmlns:xlink="http://www.w3.org/1999/xlink" x="0px" y="0px" viewBox="0 0 512 512"
	 style="enable-background:new 0 0 512 512;" xml:space="preserve">
<path d="M288.2,15l-0.5-0.8c-0.2-0.2-0.5-0.5-0.8-0.5l-0.8,0.2c-0.5,0.5-0.7,0.7-0.7,1.2l-19.4,350.4l2.9-0.5L287.5,24l22.3,36.7
	h-0.2c16.8,49.6,24,102.5,21.2,158.6l1.4,2l22.1,39.1l1.4,1.4c34,29.9,71.9,49.8,114,60.2l10.2,16.7l1.4,0.5l0.2-0.5L287.7,21.6
	L288.2,15 M281.4,138.6c24,48.9,32.6,123,26.2,221.9l93.1-11.4L281.4,138.6z M493.5,353.7c9.5-1.2,15.6-3.2,18.5-6.1L24.8,407.1
	h-0.2c0.2,20.2,9.3,36.2,27,47.6c4.8,3.4,9.9,5.9,14.3,7.5c4.2-4.9,9.2-8.7,14.8-12.1h0.2c51-30.9,126.8-35.7,227-14.6l1.2,0.2
	c10.9,2.2,21.9,4.9,32.1,8.2c2.9,0.5,5.4-0.5,7.5-2.2c3.6-2.7,8.2-4.8,14.3-6.1v-0.2c16.1-28.7,38.1-49.8,65.4-63.7
	C447.3,362.2,469.2,356.1,493.5,353.7 M259.5,362.7l22.3-341.9c-32.3,124.7-84.3,241.3-155.5,349.6L259.5,362.7 M134,87.2l-0.8-0.5
	l-0.8,0.2l-0.5,1.2l-18.5,296l2.7-0.2l18.5-295.7L134,87.2 M108,377.7L108,377.7l19.5-288.7L24.4,386.5L108,377.7 M1.3,487.6
	c-0.5,0-1-0.3-1.2-0.8c-0.3-0.7,0-1.5,0.7-1.9c12.4-5.8,23.3-9.3,32.6-10.2c9.3-1,17.3,0.7,23.5,4.8c11.6,7.3,30.1,4.9,54.9-7
	c0.7-0.3,1.5,0,1.9,0.7c0.3,0.7,0,1.5-0.7,1.9c-12.9,6.1-24.3,9.9-33.8,11s-17.7-0.3-23.8-4.2l0,0c-5.6-3.7-12.9-5.3-21.6-4.4
	c-8.8,0.8-19.5,4.2-31.6,10C1.7,487.5,1.5,487.6,1.3,487.6z M71.3,498.3c-3.9,0-7.8-0.2-11.9-0.5c-0.7,0-1.4-0.7-1.2-1.5
	c0-0.7,0.7-1.4,1.5-1.2c22.4,2,40.8-1.5,56.3-11c16-9.5,29.9-13.9,41.1-12.9c5.3,0.5,10.7,1.5,15.8,3.2c0.7,0.2,1,1,0.8,1.7
	c-0.2,0.7-1,1-1.7,0.8c-4.9-1.7-10-2.7-15.1-3.1c-10.7-0.8-24,3.4-39.4,12.6c-8,4.8-16.8,8.2-26.5,10
	C84.8,497.8,78.3,498.3,71.3,498.3z M78.6,469.8c-0.5,0-0.8-0.2-1.2-0.5c-0.3-0.7-0.3-1.5,0.3-1.9c12.1-8.3,26.2-15,42-19.7
	c15.8-4.8,33.6-7.8,53.2-9.2s41.1-0.8,64.4,1.2c23.3,2.2,48.8,5.9,75.8,11.6c0.7,0.2,1.2,0.8,1,1.5c-0.2,0.7-0.8,1.2-1.5,1
	C205.1,431.7,126.6,437,79.3,469.6C79.2,469.8,79,469.8,78.6,469.8z M279.2,485.8c-3.6,0-7.3-0.2-11-0.5c-0.7,0-1.4-0.7-1.2-1.5
	c0-0.7,0.7-1.4,1.5-1.2c22.4,1.9,41-1.7,56.4-11c16-9.5,29.7-13.8,41.1-12.9c5.4,0.2,10.7,1.4,15.8,3.2c0.7,0.3,1,1,0.8,1.7
	c-0.3,0.7-1,1-1.7,0.8c-4.8-1.9-9.9-2.9-15.1-3.1l0,0c-10.7-0.8-24,3.4-39.4,12.6c-8,4.8-16.8,8-26.5,9.9
	C293.3,485.1,286.5,485.8,279.2,485.8z M201,98.8c-0.8,0-1.7-0.3-2.4-1c-9.3-9.5-18.7-11.2-28.7-5.1c-1.5,0.8-3.6,0.3-4.4-1.2
	c-0.8-1.5-0.3-3.6,1.2-4.4c6.3-3.7,12.7-5.3,19-4.1c5.4,0.8,10.5,3.7,15.6,8.3c5.8-4.6,11.4-7.3,17.2-8.3c6.6-1,13.1,0.3,19.4,4.2
	c1.5,1,2,2.9,1,4.4c-1,1.5-2.9,2-4.4,1c-9.9-6.1-20.1-4.2-30.9,5.3C202.5,98.6,201.7,98.8,201,98.8z M176.5,63.1L176.5,63.1
	c-0.8,0-1.9-0.3-2.4-1c-10-11-19.9-13.6-29.9-7.6c-1.5,0.8-3.6,0.3-4.4-1.2c-0.8-1.5-0.3-3.6,1.2-4.4c6.5-3.9,12.9-4.9,19.5-3.4
	c5.4,1.4,10.9,4.6,16.1,9.7c11.7-11.4,23.6-13.4,35.5-6.3c1.5,0.8,2,2.9,1.2,4.4c-0.8,1.5-2.9,2-4.4,1.2c-10-5.9-19.5-3.6-29.9,7.6
	C178.4,62.8,177.6,63.1,176.5,63.1z"/>
</svg>
