<svg xmlns="http://www.w3.org/2000/svg" xml:space="preserve" viewBox="0 0 512 512"><path d="M215.9 69.3c-4.5 0-7-1.4-9.5-5-10.9-16.1-22.2-31.8-33.1-47.9-2.2-3.3-4.6-4.6-8.6-4.6-52.8.1-111.9 0-164.6 0C0 155.1 0 298.2 0 441h121.7v-32.5H32.9V45c1.4-.1 2.3-.2 3.3-.2 37.5 0 74.9-.1 112.4.2 2.4 0 5.6 1.9 7 3.9 11.5 16.1 22.9 32.3 34 48.7 2.4 3.5 4.9 4.7 9.1 4.7 91.2-.1 182.4-.1 273.7-.1h6.9v306.2H193v-64h7.3c19-.2 38.1.3 57-.8 45.6-2.6 85.3-38.4 93.1-83.5 1.3-7.5 1.9-15.2 2-22.8.2-26.1.1-52.1.1-78.8-27.1 0-59-.6-86-.3-8.4.1-16.9.7-25.1 2.5-48.5 10.8-81.5 52-81.5 101.6-.1 77.3 0 154.5 0 231.8v6.1H193v-59.1h319.3V69.3c-96.6-.1-200.1-.1-296.4 0m-23.5 221.4c.8-18.2-2.4-35.6 3.9-52.2 10.4-27.6 30.2-44.5 59.7-47 20.8-1.8 41.8-.3 63.6-.3v9.6c-.3 16.4.7 33-1.1 49.3-3.7 34-32.4 59.8-67 61.1-17.2.6-34.4.1-50.7.1 25.9-27.3 52.2-55 78.8-83-28.9 20.7-57.6 41.2-87.2 62.4m90.4-63h-.7c.1-.1.1-.2.2-.3h.3c.1 0 .1.1.2.3"/></svg>