<svg xmlns="http://www.w3.org/2000/svg" xml:space="preserve" viewBox="0 0 512 512"><path d="M437.1 377.3c0-3.6-1-7.6-2.7-10.8-5.1-9.7-13.6-13.8-24.4-13.8H231.6V206.1c0-1.8.7-2.6 2-3.5 8.1-5.4 12.3-15 10.4-23.6-3.9-17.3-24.6-25.4-39.7-15.6-15 9.8-15.2 30.2-.1 39.5 1.8 1.1 1.6 2.4 1.6 4v145.7H24.4C11.1 353.2.1 363.9.1 376.8c-.1 24.3-.1 48.6.1 72.8 0 3.3.9 7 2.5 9.9 5 9.7 13.5 14.1 24.3 14.1h386c13.7-.6 24.3-11.5 24.3-25.1 0-23.8 0-47.5-.2-71.2M90 414.8c-.1 1.5-.3 2.9-.7 4.4-2.7 11.3-12.9 19.7-25 19.7-13.4 0-24.4-10.3-25.6-23.4v-2.4c.1-14.1 11.6-25.4 25.7-25.4 14.2 0 25.7 11.5 25.7 25.7v.2c-.1.2-.1.7-.1 1.2m103 10.5c-6.9.1-13-5.5-13-12.1 0-6.5 6-12.2 12.9-12.1 6.9 0 12.7 5.4 12.8 11.9.1 6.6-5.7 12.2-12.7 12.3m64-.1c-6.8-.1-12.7-5.7-12.7-12.1 0-6.5 6.1-12.1 13-12.1 7 .1 12.8 5.6 12.7 12.3-.1 6.6-6 12.1-13 11.9m64.4 0c-6.9 0-12.9-5.7-12.8-12.2s5.9-11.9 12.8-12c7-.1 12.9 5.4 12.9 12.1s-5.8 12.1-12.9 12.1m64.3 0c-6.8 0-12.7-5.5-12.8-11.9-.1-6.6 5.8-12.2 12.8-12.3s12.9 5.5 12.9 12.1c0 6.7-5.8 12.2-12.9 12.1m125.8-161.8c-1-4.1-3.5-7-6.4-9.8-22.1-20.8-44.2-41.6-66.4-62.4-4.7-4.5-4.8-4.5-9.5-.1-1.5 1.4-2.5 1.5-3.9 0-3.6-3.6-7.3-7.1-11.1-10.4-1.9-1.7-2-2.8-.3-4.8 10.2-12.2 16.4-26.3 18.2-42.1 2.1-17.8-1.1-34.9-10.3-50.3-16-26.7-40.1-41.2-70.7-44.6-14-1.6-27.8.1-41.3 5-16.1 5.8-29.7 15.1-40.5 28.3-8.6 10.5-14.3 22.5-17.1 35.7-2.4 11.7-2.2 23.4.8 35.1 2.8 11.2 7.6 21.3 14.5 30.5 1 1.3 1.9 2.9 2.1 4.5.9 8.8 0 17.5-4.2 25.4-2.8 5.2-6.3 9.9-9.7 15 5.6 5.3 11.5 10.8 17.4 16.3 10.9-10.4 17.9-22.7 21.1-37.3.7.1 1 .1 1.2.3 6.7 3.7 13.6 6.7 21.1 8.4 1.7.4 1.6 1.4 1.1 2.7-1.7 4.5-3.2 9.2-5.2 13.6-5.1 11.1-12.4 20.7-21.3 29.2 6.1 5.7 12 11.3 18 16.9.5-.3.6-.4.8-.5 16.4-15.4 27.8-34 33.6-55.8.3-1 1.3-2.3 2.2-2.4 8.4-1.4 16.7-2.6 25.3-3.9-5.3 31.3-20.2 57.8-43.1 80.2 6 5.7 12 11.2 18 17 31.8-30.7 49.8-67.7 52.6-112.4 5.5 5.1 10.3 9.7 15.6 14.7-1.7 1.5-3.1 2.8-4.6 4.1-1.6 1.3-2 2.3-.1 4 23.3 21.8 46.5 43.6 69.7 65.4 5.8 5.4 12.2 7.5 20.2 5.3 8.7-2.5 14.4-11.9 12.2-20.8m-169.8-68c-40.6 0-73.4-31.3-73.4-69.9s32.9-69.9 73.4-69.9c40.6 0 73.4 31.3 73.4 69.9s-32.8 69.9-73.4 69.9M91.5 303.1c-71.3-66.5-69.4-175 0-239.2 5.9 5.5 11.8 11.1 17.8 16.8-28.7 28.4-44.9 62.3-44.9 102.9.1 40.5 15.9 74.4 44.8 102.7-5.9 5.6-11.7 11.1-17.7 16.8m54.5-51.3c-6.1 5.7-12 11.3-17.9 16.8-50.1-45.2-51.1-124 0-170.3 5.9 5.5 11.8 11.1 17.9 16.8-19.2 18.8-30.1 41.2-30.2 68.2 0 27.1 10.9 49.5 30.2 68.5m35.9-102.9c-20.1 21.3-18.9 49.3 0 69-5.9 5.6-11.9 11.2-17.8 16.8-30.3-28-29.7-75.1 0-102.5 5.9 5.5 11.8 11 17.8 16.7m218.3-4.8c-.1.5-.5.9-1.4 2.1.1-22.5-8.6-40.2-24.3-54.7-15.6-14.3-34-21.4-55.3-22.1-.3.1-.7.2-.1 0 9.3-2.5 22.2-3.8 31.8-2.2 14.2 2.4 26.2 8.6 36.1 18.9 8 8.3 13 18.2 15.2 29.7 1.9 9.8.7 19-2 28.3" style="fill:#fff"/></svg>