<svg xmlns="http://www.w3.org/2000/svg" xml:space="preserve" viewBox="0 0 512 512"><path d="M226.2 157.3c3.5-36-92.2-119.4-92.2-119.4q-.15-.15 0-.3c.15-.15.3-.1.4 0 0 0 99.2 85.5 115.7 120.5C309 154.9 361 116.5 356.8 53.3c0 0-87.9-13.1-106.7 98.5C245 58.7 191.9 0 92.8 0c5 102.2 69.4 150.5 133.4 157.3m203.7 182.9c0-.7.1-1.5.1-2.2.1-20.9-8.2-40.9-23-55.7L311.8 187c-10.2-10.2-23-17.3-36.8-20.7-5.2-1.3-10.8-2.1-16.8-2.2-1-.1-1.7-.1-2.2-.1v.1h.2c-20.8 0-40.7 8.2-55.5 23l-95.3 95.3c-7.8 7.8-13.8 17.2-17.7 27.3-3.6 8.2-5.7 17.7-5.7 28.3-.1 20.9 8.2 40.9 23 55.7l95.2 95.3c14.8 14.8 34.8 23 55.8 23-.7 0-2.1-.1-3.9-.3 1.3.1 2.5.1 3.8.1 20.9.1 40.9-8.2 55.7-23l95.3-95.2c14.8-14.8 23-34.8 23.1-55.7.1.5 0 1.3-.1 2.3M256 377c-48.1 3.6-68.9 37.8-67.1 70.8-.1-1.1-.2-2.1-.2-3.2-2.8-39.5 28.3-68.6 28.3-106.8-3.6-49-39.1-69.7-72.7-67 1.8-.2 3.6-.3 5.5-.4 39.4-2.8 68.5 28.3 106.7 28.3 44.9-3.4 66-33.4 67.1-64.3 1 37.8-28.4 66.3-28.4 103.5 3.6 47.9 37.5 68.8 70.5 67.1-1 .1-2 .1-3 .2-39.4 2.9-68.5-28.2-106.7-28.2" style="fill:#fff"/></svg>