<?xml version="1.0" encoding="utf-8"?>
<!-- Generator: Adobe Illustrator 28.2.0, SVG Export Plug-In . SVG Version: 6.00 Build 0)  -->
<svg version="1.1" id="Layer_1" xmlns="http://www.w3.org/2000/svg" xmlns:xlink="http://www.w3.org/1999/xlink" x="0px" y="0px"
	 viewBox="0 0 512 512" style="enable-background:new 0 0 512 512;" xml:space="preserve">
<path d="M226.1,157.3c3.5-36-92.2-119.4-92.2-119.4c-0.1-0.1-0.1-0.2,0-0.3s0.3-0.1,0.4,0c0,0,99.2,85.5,115.7,120.5
	c58.9-3.2,110.9-41.6,106.7-104.8c0,0-87.9-13.1-106.7,98.5C244.9,58.7,191.8,0,92.7,0C97.7,102.2,162.1,150.5,226.1,157.3z
	 M429.8,340.2c0-0.7,0.1-1.5,0.1-2.2c0.1-20.9-8.2-40.9-23-55.7L311.7,187c-10.2-10.2-23-17.3-36.8-20.7c-5.2-1.3-10.8-2.1-16.8-2.2
	c-1-0.1-1.7-0.1-2.2-0.1v0.1c0.1,0,0.1,0,0.2,0c-20.8,0-40.7,8.2-55.5,23l-95.3,95.3c-7.8,7.8-13.8,17.2-17.7,27.3
	c-3.6,8.2-5.7,17.7-5.7,28.3c-0.1,20.9,8.2,40.9,23,55.7l95.2,95.3c14.8,14.8,34.8,23,55.8,23.1c-0.7,0-2.1-0.1-3.9-0.3
	c1.3,0.1,2.5,0.1,3.8,0.1c20.9,0.1,40.9-8.2,55.7-23l95.3-95.2c14.8-14.8,23-34.8,23.1-55.7C430,338.4,429.9,339.2,429.8,340.2z
	 M255.9,377c-48.1,3.6-68.9,37.8-67.1,70.8c-0.1-1.1-0.2-2.1-0.2-3.2c-2.8-39.4,28.3-68.5,28.3-106.7c-3.6-49-39.1-69.7-72.7-67
	c1.8-0.2,3.6-0.3,5.5-0.4c39.4-2.8,68.5,28.3,106.7,28.3c44.9-3.4,66-33.4,67.1-64.3c1,37.8-28.4,66.3-28.4,103.5
	c3.6,47.9,37.5,68.8,70.5,67.1c-1,0.1-2,0.1-3,0.2C323.2,408.1,294.1,377,255.9,377z"/>
</svg>
