<svg xmlns="http://www.w3.org/2000/svg" xml:space="preserve" viewBox="0 0 512 512"><path d="M464.3 31.1c-.2-1.8-1.2-3.4-2.8-4.2-82.1-43.8-148.4-27.5-183.2 2.2-10.1 8.7-17.7 18.6-22.4 28.8-4.6-10.1-12.2-20.1-22.4-28.8C214.2 12.5 187.7 2.3 159 .3 124.6-2 88 6.9 50.5 26.9c-1.6.8-2.6 2.4-2.8 4.2s.6 3.5 2 4.6c8.5 6.7 12.2 22.7 16.5 41.2 6.9 29.8 15.6 66.9 49.9 86.6 5.2 3 11 5.3 17.2 6.9-21 16.7-38.7 37.5-51.5 61.2-2.4 4.4-4.6 9-6.7 13.5-11.3 25.4-17 52.4-17 80.4 0 16.5 2 33 6.1 48.9 1.4 5.4 3 10.8 4.8 16.1 15.7 45.3 47.4 83.3 89.1 107.1 9.2 5.2 18.9 9.8 28.8 13.5l.6.2c.3.1.5.2.8.3 2.8 1 5.8-.4 6.8-3.2l18.1-49.8 25.9-71.1c1-2.8-.4-5.8-3.2-6.8-10.6-3.9-19.9-10.7-26.8-19.8-2.5-3.3-4.6-6.9-6.4-10.6-3.6-7.7-5.4-16-5.4-24.7 0-14.6 5.4-28.6 15.2-39.4 9.7-10.7 23-17.5 37.3-18.9 4-.4 8.3-.4 12.3 0 14.3 1.5 27.6 8.2 37.3 18.9 9.8 10.8 15.2 24.8 15.2 39.4 0 8.6-1.8 16.9-5.4 24.7-1.6 3.4-3.5 6.7-5.8 9.8-6.9 9.5-16.4 16.7-27.4 20.7-2.8 1-4.2 4-3.2 6.8l44 120.9c.8 2.2 2.8 3.5 5 3.5q.9 0 1.8-.3c1-.4 2-.7 3-1.1 9.3-3.6 18.5-7.9 27.2-12.8 41.8-23.8 73.4-61.8 89.1-107.1 1.8-5.3 3.5-10.7 4.8-16.1 4-15.9 6.1-32.3 6.1-48.9 0-28-5.7-55.1-17-80.4-2-4.6-4.3-9.1-6.7-13.5-12.8-23.7-30.5-44.6-51.5-61.2 6.2-1.6 12-3.9 17.2-6.9 34.3-19.7 42.9-56.8 49.9-86.6 4.3-18.5 8.1-34.6 16.5-41.2 1.5-1.2 2.3-3 2.1-4.8" style="fill:#131719"/><path d="M336.4 480.4c-3.9-4.9-3.7-14.5.7-27 4.3-12.4 12.4-27 22.8-40.9s22-25.8 32.7-33.5c8.3-6 15.7-9.1 21.3-9.1 1.6 0 3.1.3 4.4.8 5.1 2.1 10.3 8.8 14 18.2-14.9 41.4-43.9 76.3-82 98.6-6.5-1.5-11.5-4-13.9-7.1m-112.5-333c-8.7 4.9-16.2 11.4-21.1 18.3-4.8 6.7-5.7 11.8-4.9 14.3 1.1 3.5 6.9 9.7 19.4 15.4 12.1 5.5 26.5 8.7 39.6 8.7h.1c13.1 0 27.5-3.2 39.6-8.7 12.6-5.7 18.3-11.9 19.4-15.4.8-2.5-.1-7.5-4.9-14.3-5-6.9-12.5-13.4-21.1-18.3-10-5.6-20.8-8.7-31.5-9h-3c-10.7.3-21.6 3.4-31.6 9m206 108.5c-5.1 8.1-7.9 29.1-4.4 57.2 2.6 20.9 8.1 39.2 14.2 49.1 2.4-12 3.6-24.2 3.6-36.5 0-24.2-4.5-47.6-13.4-69.8M324.4 399.2c-2-12.7-9.1-22.1-15.9-28.4-6.6 7.7-14.7 13.8-23.9 17.9l21.8 59.9c13.7-14.5 20.5-32.9 18-49.4m-17.1-120c11.6 12.8 17.9 29.3 17.9 46.5 0 8.5-1.5 16.6-4.4 24.4 16.8 8.1 33.2 9.2 46.5 3.2 13.6-6.1 24.4-19.9 29.6-37.9 6.6-23 3.1-48.7-9.2-67.2-12.3-18.4-34.7-31.6-58.4-34.4-18.6-2.2-35.4 2.5-46.4 12.7-9.7 9.1-13.4 21.1-14.6 30.9 15 2.8 28.7 10.4 39 21.8m56.8-106.4c-1.8.1-3.7.2-5.6.2-3.2 0-6.4-.2-9.7-.5-5.5-.6-10.9-1.7-16.1-3.3 5.3 9.6 17.1 22.8 34.6 36.2 21.8 16.8 40.2 24.7 50.1 25.2-13.5-22.9-31.8-42.6-53.3-57.8M229 226.6c-9.1-8.6-22.5-13.2-37.5-13.2-2.9 0-5.8.2-8.8.5-23.8 2.8-46.2 15.9-58.4 34.4-12.3 18.4-15.8 44.2-9.2 67.2 5.2 17.9 16 31.7 29.6 37.9 13.4 6 29.8 4.8 46.5-3.2-2.9-7.8-4.4-16-4.4-24.4 0-17.2 6.4-33.8 17.9-46.5 10.3-11.4 24-18.9 38.9-21.6-1.2-10-4.9-22-14.6-31.1m-1.6 162.2c-8.8-4-16.6-9.7-23.1-17-8.2 7.9-13.3 17.3-14.8 27.4-2.4 15.8 3.9 33.6 16.6 47.9zM72.3 362.2c6.2-9.9 11.6-28.2 14.2-49.1 1.9-15 2.1-29.5.5-40.7-1-7.2-2.7-13-4.9-16.5-8.9 22.1-13.4 45.6-13.4 69.7q0 18.6 3.6 36.6m90.9-189.8c-3.3.4-6.5.5-9.7.5-1.9 0-3.7-.1-5.6-.2-21.5 15.2-39.7 35-53.2 57.8 9.9-.5 28.3-8.4 50.1-25.2 12-9.2 22.4-19.3 29.3-28.3 2.1-2.8 3.9-5.5 5.3-7.9q-7.95 2.4-16.2 3.3m-1.5 315.1c6.5-1.5 11.5-4 13.9-7.1 3.9-4.9 3.7-14.5-.7-27-4.3-12.4-12.4-27-22.8-40.9s-22-25.8-32.7-33.5-19.9-10.7-25.7-8.3c-5.1 2.1-10.3 8.8-14 18.2 14.8 41.5 43.9 76.3 82 98.6" style="fill:#cc1f4a"/><path d="M234.9 110.1c6-5.1 13.1-16.4 14.2-19.6 2.6-7.6 2.1-16.5-1.7-25.7-3.9-9.8-11.1-19.3-20.7-27.5-31.2-26.8-90.6-41.4-165-4.2 7.4 9.8 10.9 24.7 14.8 41.5 6.8 29.2 14.6 62.4 44.8 79.8 23.4 13.5 59.4 9.3 80.2-9.3 3.9-3.5 7.4-7.5 10.3-12 1.5-2.3 2.9-4.7 4-7.2-3.7-14.3-10.5-27.8-19.7-39.2-.8-.9-2.8-3.3-3.6-4.2s-2.9-3.1-3.8-4c-3.4-3.4-7.3-6.8-11.1-9.7-7.9-6-16.6-11.1-25.8-15-.1-.1-.2-.2-.1-.3 0-.1.2-.2.3-.1 9.6 3 18.9 7.4 27.5 12.7 4.2 2.6 8.6 5.8 12.4 9 1 .9 3.4 2.9 4.4 3.8.9.8 3.3 3.2 4.2 4 2.6 2.7 5.3 5.8 7.7 8.8 1.5 1.7 3.2 4.4 4.6 6.3 4.2 6.2 7.8 12.9 10.7 19.8h.1c0-.2 6.2-3.4 11.3-7.7m94.4-42c9.5-6.3 19.9-11.4 30.7-14.8.1 0 .3 0 .3.2 0 .1 0 .3-.1.3-16 6.8-30.6 17-41.9 30.1l-2.4 2.8-2.2 2.9c-1.5 1.9-2.8 4-4.2 6-6.1 9.3-10.5 19.6-13.3 30.3 1.2 2.4 2.5 4.8 4 7.2 2.9 4.5 6.4 8.6 10.3 12 20.8 18.6 56.8 22.8 80.2 9.3 30.3-17.4 38-50.6 44.8-79.8 3.9-16.8 7.4-31.8 14.8-41.5-50.2-24.9-118.1-36.1-165 4.1-9.6 8.2-16.7 17.7-20.7 27.5-3.7 9.3-4.3 18.2-1.7 25.7 1.1 3.2 8.2 14.5 14.2 19.6 5 4.3 11.2 7.5 11.3 7.5h.1c8.4-19.8 22.4-37 40.8-49.4" style="fill:#41af64"/></svg>