<?xml version="1.0" encoding="utf-8"?>
<!-- Generator: Adobe Illustrator 28.2.0, SVG Export Plug-In . SVG Version: 6.00 Build 0)  -->
<svg version="1.1" id="Layer_1" xmlns="http://www.w3.org/2000/svg" xmlns:xlink="http://www.w3.org/1999/xlink" x="0px" y="0px"
	 viewBox="0 0 512 512" style="enable-background:new 0 0 512 512;" xml:space="preserve">
<style type="text/css">
	.st0{fill:#414558;}
</style>
<path class="st0" d="M256,459.9c-42.6,0-84.7-10.7-122.2-31c-39.1-21.2-72.1-52.4-95.4-90.1C15,301.1,1.8,257.7,0.2,213.3
	c-1.6-44.4,8.4-88.6,29-128L41.8,61l213.5,111.6L464,52.1l13.7,23.7c22.2,38.4,34.1,82.2,34.3,126.7c0.2,44.4-11.2,88.3-33,127
	c-21.8,38.7-53.5,71.2-91.6,94c-38.1,22.8-81.7,35.4-126.1,36.3C259.6,459.8,257.8,459.9,256,459.9z M66.7,135.9
	c-8.6,24.1-12.7,49.7-11.7,75.4c1.3,34.9,11.7,69,30.1,98.6c18.4,29.7,44.3,54.2,75,70.8c30.7,16.6,65,25.1,100.2,24.3
	c34.9-0.7,69.1-10.6,99.1-28.5c29.9-17.9,54.8-43.5,71.9-73.9c17.1-30.4,26.1-64.9,25.9-99.8c-0.1-25.7-5.2-51.1-14.9-74.8
	L256.6,235.2L66.7,135.9z"/>
</svg>
