<svg xmlns="http://www.w3.org/2000/svg" xml:space="preserve" viewBox="0 0 512 512"><path d="M456.5 97.5 264.4 258.8c5.5 6.6 131.4 99 195 147.4 71.2-90.9 70-219.1-2.9-308.7M419.3 319c-2 6.1-8.5 9.5-14.7 7.6l-42.1-13.5c-6.1-2-9.5-8.5-7.5-14.7 2-6.1 8.5-9.5 14.7-7.5l42.1 13.5c6.1 1.9 9.5 8.5 7.5 14.6m47.8 34.8c-3.9 7.5-6.9 13.3-11 16.2-3.7 2.6-9.1 3.3-12.4.9-5-3.7-5.5-8.3-3.7-13.1 1.3-3.4 3.8-6.6 6.2-10.1 1.6-2.4 3-5.1 4.2-7.5 5.6-11.1 10.7-23.7 14.1-36.8 8.3-32.1 5.9-51.8 5.4-67.8-2.8-28.1-10.8-54.3-24.2-78.6-1.9-3.4-2.9-5.9-3.2-7.4-1.1-7.3 5.5-11.9 12.3-10.9 4.8.7 7.9 5.1 10.1 9.2 14.3 26.5 23 54.6 26 84.1.8 4.5 3.4 49-6.3 78.9-9.5 29.9-10.7 29.8-17.5 42.9m-160.2-22c-20.1-15-38.3-28.7-52-39.1-6.8-5.2-12.5-9.6-16.8-13-2.1-1.7-3.9-3.2-5.5-4.5-1.5-1.3-2.2-1.5-4.9-4.7-7.3-8.8-6.2-21.9 2.6-29.2L422.4 79.9c1.3-1 2.8-1.7 4.3-2.4-46.9-46.3-110.1-72.2-176-72.3C112.2 5.3 0 117.5 0 256s112.2 250.7 250.7 250.7c70.4-.1 137.6-29.9 184.9-82-3.5-.4-6.8-1.7-9.7-3.7-31.5-24.1-78.9-59.3-119-89.2m-8.8-237.7L315 63.6c2.9-5.3 9.6-7.2 14.9-4.3s7.2 9.6 4.3 15l-16.9 30.5c-2.9 5.3-9.6 7.2-14.9 4.3-5.3-3-7.2-9.7-4.3-15M50.6 130.9c3.9-5 11-5.8 16-2l34 26.5c5 3.9 5.8 11.1 2 16-3.9 5-11 5.8-16 2l-34-26.5c-5-3.9-5.9-11-2-16m18.2 168.2-37 5.1c-6.3.9-12.1-3.5-13-9.9-.9-6.3 3.6-12.1 9.9-13l37-5.1c6.3-.9 12.1 3.5 13 9.9.9 6.3-3.5 12.1-9.9 13m55.6 89.3-29.8 23.5c-5 3.9-12.3 3.1-16.2-1.9s-3.1-12.3 1.9-16.2l29.8-23.5c5-3.9 12.3-3.1 16.2 1.9s3.1 12.3-1.9 16.2m14.2-150.8c-.5 5.8-5.6 10-11.4 9.5l-25-2.2c-5.8-.5-10-5.6-9.5-11.4s5.6-10 11.4-9.5l25 2.2c5.8.5 10 5.6 9.5 11.4m33.5-53.6L152 155.9c-3.4-4.8-2.3-11.5 2.5-14.9s11.5-2.3 14.9 2.5l20.1 28.1c3.4 4.8 2.3 11.5-2.5 14.9s-11.5 2.3-14.9-2.5m35.8 160.4-11.1 25.1c-2.4 5.4-8.7 7.9-14.2 5.5-5.4-2.4-7.9-8.8-5.5-14.2l11.1-25.1c2.4-5.4 8.7-7.9 14.2-5.5s7.9 8.8 5.5 14.2m-1.4-235.1c-6.1.8-11.7-3.5-12.5-9.6l-6-44.9c-.8-6.1 3.5-11.7 9.6-12.5s11.7 3.5 12.5 9.6l5.9 44.8c.9 6.1-3.4 11.8-9.5 12.6" style="fill:#fff"/></svg>