<svg xmlns="http://www.w3.org/2000/svg" xml:space="preserve" viewBox="0 0 512 512"><path d="M184.8 0h1.5c1.7.2 3.5.5 5.2.7.9.1 1.9.2 2.8.2 3 1 5.9 2.1 8.9 3 .6.2 1.5 0 2.1-.3 3.3-1.4 6.5-1.3 9.9-.4 3.2.8 6 3.3 9.7 1.8.9-.4 1.9-.3 2.8-.5 5.5-.8 9.7 1.9 13.5 5.1 1.9 1.6 3.8 1.3 5.8 1.4s4-.1 5.9.3c4 .7 6.4 3.9 9.4 6.3 1.6 1.2 3.5 2.6 5.4 2.9 5.1.9 9.4 2.7 12.5 7.1 1.3 1.9 3.1 3.2 5.8 3.7 4.5.9 8.7 2.8 10.8 7.4.9 1.9 2 3.7 2.9 5.6 1 2 2.3 3.3 4.6 3.9 1.5.3 3.1 1.1 4.2 2.2 1.5 1.6 2.8 3.6 3.9 5.6 6.6 11.8 9.6 24.5 9.8 38 0 2.9.5 5.8.7 8.6 2.2-2.6 4.4-5.2 6.7-7.7 8.5-9.2 18.1-16.7 29.8-21.4 3.3-1.3 7-3.1 10.5-1.3 3.6 1.8 6.6 1 9.8-.6 5.6-2.9 11.2-2.5 16.9 0 1.8.8 4.2 1.1 6.2.9 4.5-.6 8.7-.7 12.7 2 2.6 1.8 5.6 2.6 8.8 2.1 5.6-.9 10.9-.2 14.6 4.5 2 2.5 4.2 2.9 7 3.1 5.2.2 10.3 1.5 13.4 5.9 2.3 3.3 5.2 4.4 8.6 5.5 2.6.9 5.2 2.1 6.5 4.9 1.2 2.6 2.8 4.4 5.7 4.8.8.1 1.5.4 2.3.7 5.8 2.4 11 5.6 13.5 11.7.8 1.9 2.2 2.7 3.9 3.3 4 1.4 7.8 3.1 10 7 .8 1.5 1.5 3 2.3 4.5v4.5c-.3.1-.7.1-.9.2-1.6 2.5-3.2 5-4.7 7.6-.5.9-.9 2.2-.7 3.1 2 6.6-.2 12.2-6 16.1-1.7 1.2-3 2.3-2.8 4.7.1 1.4-.5 2.9-1.1 4.2-2 4.2-5.8 6.6-9.5 9-.9.6-2.1 1.5-2.2 2.4-.6 5.6-4 8.7-8.5 11.2-2.6 1.4-5.6 1.9-6.9 5.5-1.8 5.2-6.9 7.1-11.7 8.9-2.4.9-5.2 1.3-7.1 2.7-2.4 1.8-4.1 4.4-5.7 6.2 4.8 3.7 10.1 7 14.6 11.2 12.9 12 18.5 27.4 18.6 44.6.3 40.2.2 80.5.1 120.7-.1 21.8-.4 43.5-1 65.3-.2 6.4-2.6 12.5-5.5 18.3-4.2 8.2-9.8 15.2-17.3 20.7s-15.6 9.5-24.8 10.9c-.5.1-.8.9-1.2 1.4H51.7c-.5-2.1-2.3-1.3-3.6-1.6-10.7-2.5-20-7.7-27.7-15.4-4.1-4.1-7.4-9.1-10.6-14-5.3-8.1-7.7-17.4-7.7-27-.2-55-.2-110.3-.1-165.5 0-7.2.2-14.4.5-21.6.3-6.3 2.3-12.2 4.8-18 4.1-9.3 10.4-16.9 18.3-23.1 5.6-4.5 12-7.5 18.8-9.6 8.7-2.7 17.6-2.8 26.5-2.8 8.6-.1 17.3-.1 25.9 0 6.1.1 12-.7 17.7-2.7 6.1-2.1 12-4.6 17-8.9 4.8-4.1 9.4-8.3 13.9-12.6 8-7.7 15.8-15.7 24-23.2 5.1-4.6 11.4-7.4 18-9.3 4.1-1.2 8.3-2.2 12.5-3.3-.6-.3-1.2-.7-1.8-.8-8.4-1.2-15.6-5.1-22.3-9.9-5.7-4-10.7-8.5-10.1-16.5 0-.6-.5-1.3-1-1.8-2.3-2.2-4.9-4.2-6.9-6.7-2.8-3.4-3.7-7.4-3.4-11.8.1-1.2-.1-2.5-.6-3.5-1.5-2.9-3.5-5.5-4.9-8.4-1.6-3.1-2.7-6.7-1.4-10 1.2-3 .2-5.1-1.1-7.7-2.3-4.7-3.2-9.5-.2-14.5.6-1 .3-2.6.1-3.9-.2-1.6-.9-3.1-1.3-4.7-1-4.2-1.5-8.4 1.6-11.9 1.5-1.7 1.6-3.2 1-5.2-1.4-4.8-1.7-9.8 2.3-13.3 3.3-2.9 5-6 4.8-10.3 0-.3.1-.6.2-1 1.2-5.5 4-10 10.4-10.6 1.8.1 3.7.1 5.5.2 1.4.4 2.9.5 4.1 1.2 4.1 2.4 6.7-1 9.9-2.2m254 138.6c-1.1.3-2.2.8-3.4.9-6.4.9-12.8 1.5-19.1 2.6-7.6 1.4-15.2 3-22.7 4.9-10 2.5-20.1 5-29.9 8.1-7.1 2.3-13.8 5.5-20.6 8.5-.9.4-1.7 1.9-1.8 2.9-.2 2 .2 4.1.4 6.1.7 8.9 4.9 16.2 10.8 22.6 4.6 5.2 10.1 9.3 16.1 12.7 3.2 1.8 6.5 3.8 10.1 4.6 3.4.8 7.1.2 10.7.2.1-.7.3-1.3.4-2.1 7.9 2.3 15.9 3.4 24.2 2.4-.6-1.4-1.2-2.7-1.9-4.2 9 0 17.7.8 26.7-1.2-3.1-1.9-5.7-3.4-8.3-5l.3-.9c8.9-1.2 18.1-1.4 26.8-5.5-3-1.6-5.7-3-8.7-4.6 8-2.7 15.3-5.2 22.7-7.7v-.7l-8.1-3.6c.1-.3.1-.6.2-.9 7-2.9 14.1-5.7 20-10.5-5.4-.9-7.6-2-9.6-4.9 6.6-3.2 14.1-4.6 19.5-10.3-.5-.3-.9-.6-1.4-.7-2.2-.7-4.5-1.3-6.7-2-1.2-.4-1.9-.8-.7-2.4 3.6-4.5 7.6-8.4 12.4-11.5.6-.4.9-1 1.4-1.6-.6-.4-1-1-1.7-1.3-3-1.2-6.1-2.1-9.1-3.3-3.6-1.4-7.1-2.9-11.3-4.6l7.8-3.9c-4.9-4.1-11.9-5.2-15.9-5.9-2.8-.5-5.6-.6-8.4-1-.9-.2-1.7-.9-2.6-1.4.6-1 1.1-2.1 2-2.8 1.4-1.1 3-1.9 4.6-2.8 0-.3 0-.6-.1-.9-6-.5-12.1-1.1-18.1-1.7-1.6-.2-3.2-.6-5-1 1.5-4.2 5.7-4.1 8.6-6.7-2.9-.3-5.3-.9-7.6-.8-5.2.2-10.5.6-15.7.9-.7 0-1.7-.2-2-.6-.3-.6-.3-1.7 0-2.4.3-.8 1.1-1.5 1.7-2.1 1.1-.9 2.3-1.8 3.5-2.6-3.1-.2-6.1-.2-9 .3-3.8.8-7.4 2-11.1 3-2.6.8-3.3.4-3.1-2.2.2-2 1.1-3.8 1.7-5.8-6.6.5-12.6 3.3-18.3 6.5-3-3.2.1-6 .6-9.3-8.3 2.1-14.8 7.2-22.5 10.3v-7.8c-1.6.7-3.1 1.1-4.4 1.8-10.5 5.7-19.8 13-27.4 22.3-4.9 6-8.1 12.9-8.8 20.6-.6 7.2 2.3 13.4 6.6 19 2 2.6 3.5 4 7.4 2.7 8.9-3 18-5.3 27.2-7.3 8.9-2 18-3.5 27-4.8 6.9-1 13.9-1.6 20.9-2 7.4-.4 14.9-.3 22.3-.5.1.9.2 1.4.4 1.9M239.2 482h180c1.6 0 3.3-.3 4.9-.5 7.9-1.3 14-5.7 18.6-12 4.6-6.4 5.5-13.7 5.5-21.5-.1-58.3-.1-116.6-.1-174.9 0-2.7-.3-5.4-1.1-8-3.8-13.5-14.6-21.5-28.6-21.8-12.1-.3-24.1 0-36.2-.3-5.4-.1-10.8-.4-16.1-1.5-10.3-2.2-20-6-29.1-11.5s-16.4-13.2-24-20.4c-6.1-5.8-11.9-11.8-17.8-17.8-5.6-5.6-12.4-8.2-20.2-8.3-23.4-.1-46.8 0-70.2-.1-8.5-.1-15.5 3.3-21.5 9-7.1 6.7-13.8 13.7-20.6 20.7-6.7 6.8-13.9 12.9-22.2 17.8-12.6 7.5-26.3 11.3-40.7 12.1-13.6.8-27.3.4-41 .7-2.4 0-4.9.3-7.2 1-10.8 3.4-20 15.2-19.9 26.9.1 61 .1 122 .1 183 0 1.4-.2 2.9.1 4.2 3.2 13 14.9 23.4 28.7 23.4 59.6-.3 119.1-.2 178.6-.2m-43.1-335c.4.4.8.8 1.3 1 1.5.5 3.1.9 4.6 1.5 9.1 3.3 18.4 5.3 28.2 4.6 5-.3 10.1-.1 15.2-.1.7 0 1.3 0 2-.1 8.9-1.7 15.8-6.6 21.7-13.3 1.1-1.3 1.3-2.5.5-4.1-2.2-4.4-4-9-6.5-13.2-4.6-7.8-9.4-15.7-14.6-23.1-5.1-7.3-10.7-14.4-16.3-21.3-5.4-6.6-11.1-13-16.8-19.5-2.9-3.3-5.9-6.6-9.3-10.4 1.3.6 2.2.8 2.7 1.3 5.6 4.9 11.3 9.6 16.7 14.7 5.1 4.8 10.1 9.8 14.9 15 6.4 6.9 12.9 13.7 18.7 21 6.7 8.5 13.1 17.4 19 26.6 2.5 4 4.5 5.3 9.2 4 9.8-2.6 16.6-8.1 20.1-17.5 2.7-7.3 2.7-14.8 2.1-22.5-.5-7.1-2.2-13.9-4.2-20.7-1.1-3.6-2.7-7-4.3-10.9-1.4 2-2.4 3.6-3.5 5.1-1.1 1.4-1.9 1.3-2.6-.4-1.6-4.2-3.3-8.4-5.1-12.5-1.2-2.7-2.7-5.3-4.1-8-1.1 2.2-1.8 4-2.8 5.6-.6.9-1.6 1.5-2.4 2.2-.5-.8-1.2-1.5-1.6-2.3-2.6-4.6-5.2-9.3-7.8-13.9-.3-.5-.2-1.2-.3-1.8l-1.2.9c-.4 3.3-1.2 6.3-4.9 7.6-3.7-6.6-7.5-13.1-14.1-17.9.4 2.2.8 3.9.8 5.5 0 1.1-.3 2.8-1 3.2-1.5.9-2.6-.6-3.4-1.7-4-5.5-9.5-9.2-15-12.9-.5-.3-1.3-.2-2.1-.2 1.6 3.2 4 5.8 2.8 9.7-1-.4-2-.5-2.7-1-5.2-3.5-10.3-7.1-15.5-10.6-.6-.4-1.5-.5-2.3-.7.9 2.2 1.7 4.1 2.2 6 .2.8-.2 2.1-.8 2.6-.5.4-1.9.2-2.5-.3-2.3-1.5-4.4-3.2-6.7-4.7-5-3.3-10.3-5.6-16.6-5.5.9 2 1.8 3.7 2.5 5.4.2.5.3 1.1.5 1.6-.6 0-1.2.1-1.7 0-5.3-1.8-10.5-3.6-15.7-5.4-1.8-.6-3.6-1.2-5-1.6 1 5.9 2.1 11.5 2.7 17.2.4 3.5-.6 4.1-4 2.8-2-.8-4-1.8-6.4-2.8.2 5.4 2.2 9.5 4.5 13.6 1.3 2.4 2.6 4.9 3.8 7.3l-.7.7c-1.7-.4-3.5-.5-5.1-1.1-1.7-.7-3.1-1.9-5-3.1.5 8.7 6.3 14.9 9.1 23.1-3.4-1-6.2-1.8-9.3-2.7 2.9 7.8 7.7 14.2 12.4 20.7-.1.2-.3.4-.4.6-3.1-.8-6.1-1.5-9.5-2.4 4.3 8.8 11.3 14.8 17.2 21.8-.1.2-.2.4-.4.5-3-.4-6-.8-9.6-1.3 1.1 1.4 1.8 2.6 2.7 3.4 4.9 4.3 9.8 8.4 14.7 12.7.7.7 1.3 1.5 2.2 2.6-2.8.4-4.9.7-8 1.1 1.3 1 1.9 1.7 2.8 2.2 3.4 2.1 6.8 4.2 10.3 6.1 2.9 1.6 6 2.9 9 4.4.7.3 1.4 1.1 1.5 1.7.1.5-.8 1.3-1.5 1.6-1.5.9-3.3 1.5-5.3 2.3m42.9 96.5c58.8.2 99.2 45.6 103.7 93 2.9 30.5-5.4 57.5-25.6 80.4-18.4 20.8-41.7 32.3-69.4 34.6-30.8 2.6-57.3-7.7-79.5-28.6-18.8-17.8-29.4-40.1-31.7-66-2.7-30.2 6.7-56.8 26.6-79.3 17.7-19.8 44.3-34 75.9-34.1m0 179c42.2.2 75.3-33 75.2-74.9-.1-42.1-32.5-73.6-72.9-74.6-43.5-1.1-74.1 34.1-76 69.9-2.4 46.6 34.9 79.9 73.7 79.6M90.6 288.3c1.3 8.2-7.6 14.5-14.1 14.7-7.7.2-15.1-7.5-15.3-15.6-.1-6.5 6.8-13.9 13.2-13.8 10.4-.1 16.2 5.2 16.2 14.7" style="fill:#fff"/></svg>