<svg xmlns="http://www.w3.org/2000/svg" xml:space="preserve" viewBox="0 0 512 512"><path d="M409.6 247.2c-1.2-11-3.3-21.3-6-30.8-1.8-8.7-4-16.7-6.4-24.2-4.6-14.2-9.4-28.2-14.4-42.3-3.9-11.3-8.2-22.3-10.4-34.1-2.4-13.1 2.5-24.8 10.8-35l-7.7-8.5-5.6-6.2c-.8-.7-1.1-1.5-.7-2.5 2.7-6.4 7.5-11.3 13.6-19.3.6-.8.7-1.9.2-2.9-5.5-12-11.9-21.6-23.6-28.3-13.9-8-29.1-10.8-45.4-8.7-24.2 3.2-44.4 20.1-51 43.6-6.5 23.2-7.7 49.5-10.4 73.9-.8 8.1-2 15.6-3.5 22.5-3.6 17-7.5 30.4-15.1 45.4-.2.6-.4 1.1-.4 1.4v.2c.1.2.5.4.8.2 8.6-4.9 17.9-8.3 27.7-10.5 6.4-1.4 13.7-1.8 21.6-1.3q10.95.75 21.3 3.6c10.7 3.9 20 9.6 28 17 7.9 7.4 13.9 16.6 18 27.1 11.6 30.2 3.9 63.6-16.9 88.4-11 12.4-23.3 22.7-37.2 31.1-1.1.7-2.3 1-3.5.8-2.6 2.5-5.8 4.6-9.9 6.3-8 3.5-14.6 6.8-20.7 8.5-1.2.2-2 .7-2.7 1.1-10.8 3.1-21.3 6-31.6 8.3-2.4.6-4.4.7-6.1.7-14.8 3-26.1 4.9-33.7 5.5-.6 0-1.2.1-1.7.1-9.4.7-25.1.8-47.2.5-13.7-.2-30.6-2-50.8-5.2-3.5 3.8-7.1 7-11 9.8L.3 444.1c-.1 0-.1.1-.2.2-.2.5 0 1 .4 1.2l41.1 21.4L79 485.7c.7.2 1.4.1 1.8-.5l63.3-84.7c.8-.2 1.5-.2 2.1-.1 22.7 5.7 45.5 9.3 68.3 10.8.2 0 .5.2.6.5 2.5 7.6 6.4 14.4 11.8 20.4 5.5 6.1 12.7 9 21.8 9.2 2.6-.2 4.3-.6 5-.8 2.6-1 4.3-1.7 4.9-2.1 1.1-.7 2.1-1.2 3.3-1.4q8.4-5.25 15-13.2c.1-.1.4-.2.6-.4.5-.1.7-.1.8 0l12.3-20.1c.2-.5.8-.8 1.4-1 6.8-1.4 13.2-3.3 19.2-5.8 9.8-4 20.4-8.8 30-14.8.2-.1.5-.1.7.2l.5-.8c.1-.2.4-.5.6-.6 6.8-3.9 14.2-9.5 22.3-17 32.3-30 49.5-71.9 44.5-115.9h-.4v-.4zm-62-194c-.5.8-1 1.5-1.4 2.1-.8 1.1-1.8 1.9-3 2.7-.7.5-1.5 1-2.4 1.2-1.2.5-2.6.8-3.9 1.1h-1.4c-7.7 0-13.8-6.2-13.8-13.8s6.2-13.8 13.8-13.8h1.4c1.4.1 2.7.5 3.9 1.1.8.4 1.7.8 2.4 1.2 1.1.7 2.1 1.7 3 2.7.6.7 1.1 1.4 1.4 2.1 1.1 2 1.7 4.3 1.7 6.5 0 2.4-.6 4.6-1.7 6.5zm-11.5 262.6" style="fill:#81afd2"/><path d="m458.2 146 25.6-6.4-2.4-8.1-25.5 6.4c-2 .5-3.2 2.6-2.7 4.5l.1.7c.5 2.1 2.6 3.4 4.9 2.9m-3.6-13.8 25.2-6.4-2.4-8.2-25 6.4c-2.1.5-3.3 2.7-2.9 4.8l.1.6c.6 2.1 2.9 3.4 5 2.8m30.7 12.6-25.8 6.5c-2.4.6-3.8 2.9-3.6 5.2v.5c.2 2 2.1 3.3 4.2 3.1h.4c3.5-.8 10.4-2.6 20.8-5.2 2.3-.6 4.3-1.4 6.2-2.4zm-49.4-8c.2-.1.6-.1.8-.2 0 0 .1 0 .2-.1.2-.1.5-.2.6-.2l.1-.1c1.2-.8 1.9-2 1.9-3.3v-1c0-.2-.1-.5-.2-.7l-.1-.1c-.1-.1-.2-.4-.2-.5l-.1-.1c-.5-.6-1.2-1-1.9-1.2h-.2c-.2 0-.5-.1-.7-.1-.6 0-1.2 0-1.8.1l-24.8 6c-.6.1-1.1.7-1.2 1.2v.4l1.2 4.9c0 .2.1.4.2.5.2.4.7.6 1.2.6h.2zm2 14.1c.7-.1 1.4-.5 2-.8.2-.1.5-.2.6-.4.1 0 .1-.1.2-.1.2-.1.4-.4.6-.5l.1-.1c.1-.1.2-.2.2-.4.1-.1.1-.2.2-.2v-.1c.5-.7.6-1.4.4-2.1l-.2-.8c0-.2-.1-.5-.2-.7l-.1-.1c-.1-.1-.2-.4-.4-.5-.1-.1-.2-.2-.4-.2-.1 0-.1-.1-.2-.2-1.2-.7-3-1.1-4.9-.5l-23.8 5.6c-.8.2-1.3 1-1.1 1.8l1.2 5.2c.1.7.8 1.2 1.4 1.1h.2l23.8-5.6zm8.3 8.3c-.1-.7-.5-1.2-.8-1.7-1.1-1.2-2.7-1.9-4.4-1.4l-25.6 6.3c-.8.2-1.2 1-1.1 1.8l1.4 5.6c0 .2.1.4.2.5.4.5 1 .7 1.4.5l25.6-6.3c.2 0 .6-.1.8-.2 0 0 .1 0 .1-.1.2-.1.4-.2.6-.4l.1-.1.5-.5v-.1c.7-.8 1.1-1.9 1.1-3 0-.2 0-.6-.1-.8zM382.9 41.6c.5 1 .2 2-.2 2.9-6 7.9-10.7 12.9-13.6 19.3-.5 1-.2 1.8.7 2.5.2.1.5.1.7.1.4 0 .7-.1 1.1-.2l18.7-13.8c.5-.2 1-.2 1.4 0-5.6-3.9-8.8-10.8-8.8-10.8m-33.7 5.1c0 2.4-.6 4.6-1.7 6.5-.5.8-1 1.5-1.4 2.1-.8 1.1-1.8 1.9-3 2.7-.7.5-1.5 1-2.4 1.2-1.2.5-2.6.8-3.9 1.1h-1.4c-7.7 0-13.8-6.2-13.8-13.8s6.2-13.8 13.8-13.8h1.4c1.4.1 2.7.5 3.9 1.1.8.4 1.7.8 2.4 1.2 1.1.7 2.1 1.7 3 2.7.6.7 1.1 1.4 1.4 2.1 1.1 2 1.7 4.3 1.7 6.5zm-199 248.7c-2.4-3.1-4.5-6.9-6.5-11.3-.1-.2-.1-.7.1-1l-14.2 13.1c.2-.1.6-.1.7.1 0 0 0 .1.1.1 3.7 6.7 7.4 13.1 12.1 19.4 20.1 27.1 46.8 46.2 80 57.2 1.8.1 3.7 0 6.2-.7 10.2-2.5 20.7-5.2 31.6-8.3-44.4-6.9-83.7-32.6-110.1-68.6m183.1-94.7c-7.9-7.4-17.3-13.1-28-17-6.9-1.9-14.1-3.1-21.3-3.6-7.9-.5-15.1-.1-21.6 1.3-9.9 2.1-19.2 5.6-27.7 10.5-.2.1-.7 0-.8-.2v-.2s-49.3 51.4-68.5 70.5l1.7-1.7q.6-.6 1.2 0s.1.1.1.2c8.8 17.3 18.8 33.3 32.3 46.7 25.4 25.2 56.3 39.1 93 41.2 1.2.1 2.4-.1 3.5-.8 13.8-8.3 26.2-18.7 37.2-31.1 20.8-24.6 28.6-58.2 16.9-88.5-4-10.7-10.1-19.8-18-27.1z" style="fill:#fefefe"/><path d="M492.1 169.2c-.7-5.6-1.8-10.7-3.3-15.4-.1-.4-.2-.7-.4-1.1v-.1l-8.2-30.8c-1.1-3.6-1.9-6.5-2.7-8.9-.1-.2-.1-.5-.2-.8-3.8-10.6-14.6-20-25.2-21.4-9.3-1.2-19.3-.7-27.4 4-11.2 6.5-17.9 15.5-18 28.9-.1 5 .5 10 1.7 14.8 1.9 7.9 3.8 18.5 4.6 23.8 1.2 7.4 3.8 13.8 6 20.8 1.8 5.8 5.4 11 10.6 15.4 11 9.4 23.6 11.9 37.5 7.4 16.1-5 27.4-19.2 25-36.6m-81.3-26.5c-.5 0-1-.2-1.2-.6-.1-.1-.2-.2-.2-.5l-1.2-4.9v-.4c.1-.6.5-1.1 1.2-1.2l24.8-6c.7-.1 1.2-.1 1.8-.1.2 0 .5.1.7.1h.2c.8.2 1.4.7 1.9 1.2l.1.1c.1.1.2.2.2.5l.1.1c.1.2.2.5.2.7v1c0 1.2-.7 2.5-1.9 3.3l-.1.1c-.2.1-.4.2-.6.2 0 0-.1 0-.2.1-.2.1-.6.2-.8.2l-24.8 6c-.1.1-.2.1-.2.1m3.1 13.9c-.7 0-1.3-.5-1.4-1.1l-1.2-5.2c-.2-.8.2-1.7 1.1-1.8l23.8-5.6c1.9-.5 3.7-.2 4.9.5.1 0 .1.1.2.2s.2.1.4.2c.1.1.2.4.4.5l.1.1c.1.2.2.5.2.7l.2.8c.1.7 0 1.4-.4 2.1v.1c0 .1-.1.2-.2.2-.1.1-.1.2-.2.4l-.1.1c-.1.1-.4.4-.6.5 0 0-.1.1-.2.1-.2.1-.4.2-.6.4-.6.4-1.3.6-2 .8l-23.8 5.6h-.2zm31.3 6.6c-.1.2-.2.4-.5.5l-.1.1c-.1.1-.4.2-.6.4 0 0-.1 0-.1.1-.2.1-.5.2-.8.2l-25.6 6.3c-.6.1-1.2-.1-1.4-.5-.1-.1-.2-.2-.2-.5l-1.4-5.6c-.2-.8.2-1.5 1.1-1.8l25.6-6.3c1.7-.5 3.3.2 4.4 1.4.4.5.7 1.1.8 1.7 0 .2.1.6.1.8 0 1.1-.4 2.1-1.1 3h-.1v.2zm4.4-33.9-.1-.6c-.5-2.1.7-4.3 2.9-4.8l22.4-5.6c1.4-.4 2.7.5 3.2 1.8l.8 3.1c.5 1.4-.5 3-1.9 3.3l-22.5 5.7c-2.1.7-4.2-.6-4.8-2.9m3.7 13.9-.1-.7c-.5-2 .7-4 2.7-4.5l23-5.8c1.4-.4 2.7.5 3.2 1.8l.8 3c.5 1.4-.5 3-1.9 3.3l-22.9 5.8c-2.1.4-4.2-.8-4.8-2.9M486 153c-1.4.7-3.1 1.2-4.8 1.7-10.5 2.7-17.4 4.5-20.8 5.2h-.4c-2 .2-3.8-1.1-4-3.1v-.5c-.4-2.4 1.2-4.6 3.5-5.2l23.3-5.8c1.4-.4 2.7.5 3.2 1.8l.8 3c.1 0 .8 2.2-.8 2.9" style="fill:#949393"/><path d="M397.1 192.3c-4.6-14.2-9.4-28.2-14.4-42.3l-1.7-.7c-.2-.1-.7-.1-1 0-4.8 2.4-10 4.5-16 6.4-26.3 8.3-53 9.3-79.9 2.9-10.1-2.4-21.7-7.1-34.9-14.2-3.6 17-7.5 30.4-15.1 45.4-.2.6-.5 1.1-.4 1.4v.2c.1.2.5.4.8.2 8.6-4.9 17.9-8.3 27.7-10.5 6.4-1.4 13.7-1.8 21.6-1.3q10.95.75 21.3 3.6c2.5-.5 4.9-.8 7.4-1.3.5-.1 3 .2 7.6.8 1.9.2 4.3 1 7.4 2 4.5 1.4 13.1 3.9 25.7 7.4 3.3.8 7.9 2.6 13.8 5q2.25 1.05 4.8 2.1c2.6 1.2 5.5 2.6 8.3 4.3 7.5 4 15.4 8.3 23.2 12.6-1.6-8.6-3.8-16.7-6.2-24m-61 123.5h-.1c-.5.2-1.1.5-1.5.6-11 12.4-23.3 22.7-37.2 31.1-1.1.7-2.3 1-3.5.8-2.6 2.5-5.8 4.6-9.9 6.3-8 3.5-14.6 6.8-20.7 8.5-1.2.2-2 .7-2.7 1.1-10.8 3.1-21.3 6-31.6 8.3-2.4.6-4.4.7-6.2.7-14.8 3-26.1 4.9-33.7 5.5-.6 0-1.2.1-1.7.1-9.4.7-25.1.8-47.2.5-13.7-.2-30.6-2-50.8-5.2-3.5 3.8-7.1 7-11 9.8 7.7 8.9 16.9 15.7 27.4 20.4.1 0 .1.1.2.1 0 .1.1.1.1.2v.4c0 .1-.1.1-.1.2q-13.35 13.35-26.1 25.5s-5.8 5.7-17.5 17.1c-6.8 6.5-13.8 13.1-21.3 19.3L79 486c.7.2 1.4.1 1.8-.5l63.3-84.7c.1-.7-.4-1.2-1.4-1.4-7.1-1.4-12.4-2.9-15.7-4.2-2-.8-4.6-.7-6.3-1.7-.1 0-.1-.1-.2-.2v-.4c0-.1.1-.1.2-.2.1 0 .2-.1.2 0 1.4.1 4.4-.1 8.9-.6 3.5-.4 6.5-.5 9-.5 2.7.1 9.6 0 20.7-.2s21-1.1 29.6-2.1c2-.2 4.5-1 6.8-1.2 6.9-.8 12.9-1.4 18-2.1 3-.4 5.6-.7 8-1.1 13.1-1.9 26.1-5.6 39.2-11 4.6-2 9.8-4.2 15-6.7 7.6-3.6 12.5-6.1 14.6-7.5q15.6-10.95 19.8-14.4c9.3-7.9 17.6-17.4 25.4-28.6v-.1z" style="fill:#6794bc"/><path d="M327.7 48.7c.2 1.1.7 2.1 1.4 3.1.4.5.7.8 1.1 1.3.5.4.8.7 1.3 1.1.5.2 1 .5 1.4.7.5.2 1.1.4 1.5.5 2.1.4 4.3 0 6.2-1.4.5-.4.8-.7 1.2-1.1s.7-.8 1-1.3c.2-.5.5-1 .7-1.4.1-.5.2-1 .4-1.4.1-.6.1-1.2.1-1.8 0-1.7-.6-3.2-1.7-4.6-2-2.9-5.5-4-8.7-3.5-1.1.2-2 .7-3 1.3-.2.1-.5.4-.7.5-.8.7-1.4 1.7-2 2.6-.2.5-.5 1-.5 1.5-.1.5-.2 1.1-.2 1.7v.8c.2.4.4.8.5 1.4m-184 235.4c2 4.3 4.2 8.1 6.5 11.3 26.3 36 65.6 61.7 110.1 68.6.7-.5 1.7-.8 2.7-1.1 6-1.7 12.7-5 20.7-8.5 3.9-1.7 7.3-3.8 9.9-6.3-36.7-2.1-67.6-16-93-41.2-13.5-13.5-23.6-29.4-32.3-46.7 0-.1-.1-.1-.1-.2q-.6-.6-1.2 0l-1.7 1.7-6.9 6.9-1.7 1.7-1.2 1.2-1.1 1.1-3.2 3.2-.5.5-4.3 4.3h-.2c-.2.4-.5.6-.7.8l-.4.4-.5.5-.4.4-.5.5c0 .2-.1.6 0 .9m-1.1 31.8c-4.8-6.4-8.3-12.9-12.1-19.4 0 0 0-.1-.1-.1-.2-.2-.5-.2-.7-.1 0 0-.1 0-.1.1-27 25.6-56.6 47.4-88.9 65.1l-.1.1c-.2.2-.2.7 0 .8.1.1.4.2.8.4 15.4 4.9 31.2 8.5 48 11 20.2 3.3 37.2 5 50.8 5.2 22 .4 37.7.2 47.2-.5.5 0 1.1-.1 1.7-.1 7.6-.7 18.8-2.5 33.7-5.5-33.4-10.8-60-29.8-80.2-57M341 381.5c-9.6 6-20.2 10.8-30 14.8-6 2.4-12.4 4.4-19.2 5.8-.6.1-1.1.5-1.4 1l-12.3 20.1c6.1 7.9 13.7 11.2 22.6 10 5.5-.7 8.8-2.4 13.6-5.1 8.5-6.8 15-15.4 19.9-26.2 3.3-7.4 5.8-14.2 7.4-20.4-.1-.2-.4-.4-.7-.2zm166.8 97.3c-1.8-1.3-3.2-2.1-4.4-2.6-11.9-4.8-25.2-6.9-38.2-7.4-.4 0-.7-.2-.7-.7V233.2c0-.5.4-1 .8-1.1 12.5-2 22.7-6.8 31.4-16.8 10.4-12.1 15.4-28 12.5-43.9-.8-4.6-1.4-7.7-2-9.4-1.7-5.1-7.4-7.4-10.4-1.8-1 1.7-1.2 3.3-.8 5 1.1 4.6 1.8 6.4 2 10.6.8 12.1-2.7 25.8-11.8 34.2-9.4 8.7-24.5 14.2-37.5 10.7q-25.95-6.9-31.2-32.7c-.8-4.3-.1-12.1-5.8-13.2-8.7-1.7-7.3 10.4-6.2 15.4 5 23 23 39.8 46.6 42.9.4 0 .7.4.7.7V468c0 .6-.5 1.1-1.1 1.1-10.8.2-21.2 2-31.1 5.1-4 1.2-11.8 5.1-13.1 9.9-3.1 11.1 22.1 16.2 29.6 17.4 14.2 2.1 28.5 2.4 43 .5 7.5-1 14.8-2.9 21.8-5.7 7.4-3 15-10.2 5.7-17.3z" style="fill:#325782"/><path d="M317.4 500.4h-.2c-6.9-1.2-14.1-2.9-21.2-5.2-.4-.1-.6-.1-.7-.1-.4 0-.6.4-.5.7 0 .1.1.2.2.4 3.5 3.3 5 7.1 5 11.6 0 .2-.2.6-.6.5h-.2c-3.9-2.3-9.6-4.5-14.2-6-8.5-2.6-17.5-6-27-9.8-2.1-.8-4.4-1.2-6.7-1.1-10.6.7-21.3 2.3-31.8 4.8-.5.1-1-.2-1.1-.7v-.5c.7-1.9 2.1-3.7 3.8-5.5 4-4.3 8.6-6.7 13.2-7.3 6-.8 10-1.3 12.3-1.5.4 0 .7-.4.7-.7-.4-11.9-.2-23.9.1-36.2 0-.7.2-1.5.5-2.4 2.6-.2 4.3-.6 5-.8 2.6-1 4.2-1.7 4.9-2.1 1.1-.7 2.1-1.2 3.3-1.4l.2 42.4c0 .7.5 1.2 1.1 1.2l16.3.8h.5c17.4 3.6 26.2 7.7 26.8 7.9 1.2 1.2 3 1.9 4.3 3.1 2.4 2 4.5 4.5 6.2 7.4.1.1 0 .4-.2.5M418.3 73.1c-.1.1-.4.2-.5.2-11.2 2-20.6 3.8-28.3 5.5-2.1.5-4 1.2-6.1 2.1l-7.9-8.6-5.6-6.2c.2.1.5.1.7.1h.2c.2 0 .5-.1.7-.2l18.7-13.8c.5-.2 1-.2 1.4 0 5.6 3.8 13.5 9.3 23.5 16.3 1.1.8 2.1 1.8 3.2 3 .5.6.5 1.3 0 1.6" style="fill:#e99d77"/><path d="M369.1 495.6c-.1 0-.1.1-.2 0-1.8-.5-4.3-1.3-6.4-1.7-1-.1-5.5-.7-13.8-1.7-.2 0-.5.1-.5.5 0 .1 0 .2.1.2 2.3 3.6 3.7 7 4.3 10.6 0 .2-.1.6-.5.7h-.4c-1.2-.7-2.3-1.2-3.5-1.7-7.4-3-16.6-6-27.4-9.2-5.5-1.7-7.9-2.6-13.8-5-.2-.1-.5 0-.5.2 0 .1 0 .2.1.4s.2.2.2.2c-.5-.2-9.3-4.5-26.8-7.9.6 0 1.1-.1 1.7-.4 6-2.4 11-2.9 17.6-3.7.4 0 .7-.4.7-.8l.8-43.2c5.5-.7 8.8-2.4 13.6-5.1v48c0 .4.2.7.6.7 8.5.8 18.8 1.8 31 3.1 10.8 1.2 17.4 6.5 23.3 15.5-.1.1-.1.3-.2.3m49.2-422.5-.5.2c-11.2 2-20.6 3.8-28.3 5.5-2.1.5-4 1.2-6.1 2.1l-7.9-8.6-5.6-6.2 1.1.1z" style="fill:#d57d60"/></svg>