<svg xmlns="http://www.w3.org/2000/svg" xml:space="preserve" viewBox="0 0 512 512"><path d="M106.3 404c0 .1.1.1.1.2v.5c0 .1-.1.1-.1.2-8.9 8.9-17.6 17.4-26 25.4 0 0-5.9 5.7-17.4 17.1-6.7 6.6-13.8 13-21.2 19.2h-.1L.5 445.4c-.4-.2-.6-.7-.4-1.2.1-.1.1-.3.2-.3l78.3-60.5c3.8-2.7 7.5-5.9 10.9-9.7 20.2 3.3 37.2 5.1 50.8 5.3 22 .4 37.7.2 47.1-.4.5-.1 1.1-.1 1.7-.1 7.6-.7 18.7-2.5 33.4-5.5h.2c-14.8 3-26 4.8-33.6 5.5-.6 0-1.2.1-1.7.1-9.4.7-25.1.8-47.1.4-13.6-.2-30.6-2-50.8-5.3-3.4 3.8-7.1 7-10.9 9.7 7.8 8.9 16.9 15.8 27.4 20.4.1.1.2.2.3.2m259-40.9c-8.1 7.5-15.5 13.1-22.3 17-.2.1-.4.4-.6.6l-.5.9c-.2-.3-.4-.4-.7-.2-9.7 6-20.2 10.8-30 14.8-6 2.4-12.4 4.4-19.2 5.8-.6.1-1.1.4-1.4 1l-12.2 20c-.1-.1-.4-.1-.8 0-.2.1-.4.2-.6.4-4.3 5.4-9.3 9.8-14.9 13.3q-1.8.3-3.3 1.5c-.6.4-2.2 1.2-4.8 2.1-.7.3-2.4.6-5 .9-9.1-.1-16.3-3.1-21.8-9.2-5.3-5.9-9.3-12.7-11.8-20.3-.1-.2-.3-.4-.6-.4q-34.35-2.25-68.4-10.8c-.7-.2-1.4-.1-2.2.1l-.1.1c.1-.7-.4-1.1-1.4-1.3-7.2-1.5-12.4-2.9-15.8-4.2-2.1-.8-4.6-.7-6.3-1.7-.1 0-.1-.1-.2-.2v-.5c0-.1.1-.1.2-.2.1 0 .2-.1.3 0 1.5.1 4.4-.1 8.9-.6 3.4-.4 6.5-.5 9.1-.4q4.2.15 20.7-.3c16.5-.45 21-1.1 29.7-2.2 2.1-.3 4.5-1 6.8-1.2q10.35-1.2 18-2.1c3-.4 5.6-.7 8-1.1 13.1-1.9 26.1-5.6 39.1-11 4.7-2 9.7-4.2 15-6.7 7.6-3.6 12.5-6.1 14.6-7.5q15.6-10.95 19.8-14.4c9.2-7.8 17.7-17.4 25.4-28.5v-.1l-.1-.4h-.1q-.75.45-1.5.6c14.2-17 22.3-38.1 22.2-59.4 0-9.7-1.8-19.5-5.4-29-4.1-10.7-10.1-19.8-18-27.2Q321.25 190 305.2 184q-10.5-2.85-21.3-3.6c-1-.1-2-.1-2.9-.1s-1.9-.1-2.9-.1c-2.8 0-5.6.1-8.2.4s-5.1.6-7.6 1.2c-9.9 2.1-19.2 5.6-27.7 10.5-.3.1-.7 0-.8-.2v-.1c.1.3.5.4.8.2 8.6-4.8 17.8-8.4 27.7-10.5 6.4-1.4 13.6-1.8 21.5-1.3q10.95.75 21.3 3.6c2.5-.4 4.9-.9 7.3-1.3.5-.1 3 .2 7.6.9 1.9.3 4.3 1 7.4 2 4.5 1.5 13 3.9 25.7 7.3 3.4.9 7.9 2.6 13.8 5 1.5.7 3.2 1.4 4.8 2.1 2.6 1.2 5.4 2.6 8.4 4.3 7.5 4.1 15.3 8.3 23.2 12.6-1.8-8.6-4-16.7-6.4-24.1v.1c-4.6-14.1-9.4-28.2-14.4-42.2l-1.7-.7c-.3-.1-.7-.1-1 0-4.8 2.4-10 4.5-16 6.4-26.3 8.3-53 9.2-79.8 2.9-10.1-2.4-21.7-7.1-34.9-14.1 1.5-6.9 2.5-14.3 3.4-22.4 2.6-24.3 3.7-50.6 10.3-73.9 6.6-23.4 26.8-40.3 50.9-43.5 16.3-2.1 31.4.7 45.3 8.7 11.7 6.7 18.1 16.3 23.6 28.3 0-.1-.1-.2-.1-.2v.1c.4 1 .3 2.1-.3 2.9-6 7.9-10.7 12.9-13.6 19.3-.4.9-.3 1.6.4 2.3l.3.3 5.6 6.2 7.8 8.5c-8.3 10.2-13.1 21.9-10.8 35 2.1 11.8 6.4 22.8 10.3 34.1 5 14 9.7 28.1 14.4 42.2 2.4 7.4 4.6 15.5 6.4 24.1 2.7 9.6 4.8 19.9 6 30.9h.3c5.5 43.1-11.8 85-44 115M349.1 46.6c0-2.3-.6-4.6-1.7-6.6-.4-.7-.9-1.5-1.5-2.2-.8-1.1-1.8-2-2.9-2.7-.7-.4-1.5-.9-2.3-1.2-1.2-.5-2.6-.9-4-1h-1.4c-7.6 0-13.9 6.2-13.9 13.9s6.2 13.9 13.9 13.9h1.4c1.4-.1 2.7-.5 4-1 .8-.3 1.6-.7 2.3-1.2 1.1-.8 2.1-1.7 2.9-2.7.5-.7 1-1.4 1.5-2.2 1.1-2 1.7-4.2 1.7-6.6z" style="opacity:.7"/><path d="M382.8 41.7c.4 1 .3 2.1-.3 2.9-6 7.9-10.7 12.9-13.6 19.3-.4 1-.2 1.8.7 2.5.2.1.4.1.7.1.4 0 .7-.1 1-.3L390 52.3c.4-.3 1-.3 1.4 0-5.4-3.8-8.6-10.7-8.6-10.6M150.2 295.4c-2.3-3.2-4.5-7-6.5-11.3-.1-.3-.1-.7.1-1l-14.1 13c.2-.1.6-.1.7.1 0 0 0 .1.1.1 3.7 6.7 7.3 13 12.1 19.4 20.2 27.1 46.8 46.2 80 57.1 1.8.1 3.7 0 6.2-.7 10.3-2.5 20.7-5.3 31.5-8.4-44.5-6.7-83.7-32.4-110.1-68.3m182.9-94.7q-11.85-11.1-27.9-17.1-10.5-2.85-21.3-3.6c-7.9-.5-15.1-.1-21.5 1.3-9.9 2.1-19.2 5.6-27.7 10.5-.3.1-.7 0-.8-.2v-.2s-49.3 51.4-68.4 70.5l1.7-1.7c.4-.4.9-.4 1.2 0 0 0 .1.1.1.2 8.8 17.3 18.8 33.3 32.2 46.7 25.4 25.3 56.3 39 92.9 41.2 1.2.1 2.3-.1 3.4-.8 13.9-8.4 26.2-18.7 37.2-31.1 20.8-24.7 28.5-58.2 16.9-88.4-4.1-10.7-10.1-19.7-18-27.2z" style="opacity:.5"/><path d="M396.9 192.2c-4.6-14.1-9.4-28.2-14.4-42.2l-1.7-.7c-.3-.1-.7-.1-1 0-4.8 2.4-10 4.5-16 6.4-26.3 8.3-53 9.2-79.8 2.9-10.1-2.4-21.7-7.1-34.9-14.1-3.6 17-7.5 30.3-15.1 45.4-.3.6-.4 1-.4 1.4v.2c.1.3.5.4.8.2 8.6-4.8 17.8-8.4 27.7-10.5 6.4-1.4 13.6-1.8 21.5-1.3q10.95.75 21.3 3.6c2.5-.4 4.9-.9 7.3-1.3.5-.1 3 .2 7.6.9 1.9.3 4.3 1 7.4 2 4.5 1.5 13 3.9 25.7 7.3 3.4.9 7.9 2.6 13.8 5 1.5.7 3.2 1.4 4.8 2.1 2.6 1.2 5.4 2.6 8.4 4.3 7.5 4.1 15.3 8.3 23.2 12.6-1.6-8.8-3.8-16.8-6.2-24.2m-61 123.5h-.1q-.75.45-1.5.6c-11 12.4-23.4 22.7-37.2 31.1-1.1.7-2.3 1-3.4.8-2.6 2.5-5.9 4.6-9.8 6.3-8 3.4-14.7 6.8-20.7 8.4-1.2.3-2.1.7-2.7 1.1-10.8 3.2-21.3 5.9-31.5 8.4-2.3.6-4.4.7-6.2.7-14.8 3-26 4.8-33.6 5.5-.6 0-1.2.1-1.7.1-9.4.7-25.1.8-47.1.4-13.6-.2-30.6-2-50.8-5.3-3.4 3.8-7.1 7-10.9 9.7 7.8 8.9 16.9 15.8 27.4 20.4.1 0 .1.1.2.1 0 .1.1.1.1.2v.5c0 .1-.1.1-.1.2-8.9 8.9-17.6 17.4-26 25.4 0 0-5.9 5.7-17.4 17.1-6.7 6.6-13.9 13-21.3 19.3l37.4 19c.7.3 1.4.1 1.8-.4l63.3-84.6c.1-.7-.4-1.2-1.4-1.4-7.2-1.5-12.4-2.9-15.8-4.2-2.1-.8-4.6-.7-6.3-1.7-.1 0-.1-.1-.2-.2v-.5c0-.1.1-.1.2-.2.1 0 .2-.1.3 0 1.5.1 4.4-.1 8.9-.6 3.4-.4 6.5-.5 9.1-.4q4.2.15 20.7-.3c11.1-.3 21-1.1 29.7-2.2 2.1-.3 4.5-1 6.8-1.2q10.35-1.2 18-2.1c3-.4 5.6-.7 8-1.1 13.1-1.9 26.1-5.6 39.1-11 4.7-2 9.7-4.2 15-6.7 7.6-3.6 12.5-6.1 14.6-7.5q15.6-10.95 19.8-14.4c9.2-7.8 17.7-17.4 25.4-28.5v-.1z" style="opacity:.8"/><path d="M327.6 48.8c.2 1.1.7 2.1 1.4 3.1.4.4.7.9 1.1 1.3s.9.7 1.3 1 1 .5 1.5.7 1 .4 1.5.4c2.1.4 4.3 0 6.2-1.4.4-.4.9-.7 1.2-1.1.4-.4.7-.8 1-1.3.3-.4.5-1 .7-1.5.1-.4.3-1 .4-1.4.1-.6.1-1.2.1-1.8 0-1.6-.6-3.2-1.6-4.7-2.1-2.9-5.5-4.1-8.6-3.4-1 .2-2.1.7-3 1.3-.2.1-.4.4-.7.5-.8.7-1.5 1.6-2 2.6-.2.5-.4 1-.5 1.5s-.2 1-.2 1.6v.8c-.1.7 0 1.2.2 1.8m-184 235.3c2.1 4.3 4.2 8.1 6.5 11.3 26.3 36 65.6 61.6 110.1 68.6.7-.4 1.6-.8 2.7-1.1 6-1.6 12.8-5 20.7-8.4 4-1.7 7.3-3.8 9.8-6.3-36.6-2.2-67.6-15.9-92.9-41.2-13.4-13.4-23.5-29.4-32.2-46.7 0-.1-.1-.1-.1-.2-.4-.4-.9-.4-1.2 0l-1.7 1.7c-2.6 2.6-4.9 4.9-6.9 7l-1.6 1.6-1.2 1.2-1.1 1.1-3.2 3.2-.5.5-4.3 4.3h-.1c-.3.4-.5.6-.7.8l-.4.4-.5.5-.4.4-.5.5c-.3 0-.3.4-.3.8m-1 31.8c-4.8-6.4-8.4-12.8-12.1-19.4 0 0 0-.1-.1-.1-.2-.2-.5-.2-.7-.1 0 0-.1 0-.1.1q-40.35 38.4-88.8 65.1l-.1.1c-.2.2-.2.7 0 .8.1.1.4.2.8.4 15.3 4.8 31.2 8.5 47.9 11 20.2 3.3 37.2 5.1 50.8 5.3 22.1.4 37.7.2 47.1-.4.5 0 1.1-.1 1.7-.1 7.6-.7 18.8-2.5 33.6-5.5-33.2-11.1-59.9-30.2-80-57.2m198.3 65.5c-9.7 6-20.2 10.8-30 14.8-6 2.4-12.4 4.4-19.1 5.8-.6.1-1.1.4-1.4 1l-12.2 20.2c6.1 7.8 13.6 11.1 22.6 10 5.4-.7 8.8-2.4 13.6-5.1 8.4-6.7 15-15.4 19.9-26.2 3.4-7.4 5.8-14.1 7.4-20.3-.1-.3-.4-.4-.7-.2zM492 169.2c-.8-5.6-1.9-10.7-3.4-15.3-.1-.4-.2-.7-.4-1.1v-.1l-8.2-30.8c-1-3.6-1.9-6.6-2.7-8.9-.1-.3-.1-.5-.3-.8-3.8-10.6-14.6-20-25.3-21.4-9.3-1.2-19.3-.7-27.4 4-11.2 6.5-17.9 15.5-18 28.9-.1 5 .4 10 1.7 14.8 1.9 7.9 3.8 18.5 4.7 23.8 1.2 7.3 3.8 13.9 6 20.8 1.8 5.9 5.3 11 10.6 15.4 11 9.4 23.5 11.9 37.5 7.4 16.1-5.2 27.5-19.4 25.2-36.7m-81.4-26.5c-.5 0-1-.2-1.2-.6-.1-.1-.2-.3-.2-.5l-1.2-4.8v-.5c.1-.6.5-1.1 1.2-1.2l24.8-5.9c.7-.1 1.2-.1 1.8-.1.2 0 .4.1.7.1h.2c.8.2 1.5.7 1.9 1.2l.1.1c.1.1.2.3.3.5l.1.1c.1.2.2.5.3.7v1c0 1.2-.7 2.5-1.9 3.3l-.1.1-.6.3s-.1 0-.2.1l-.9.3-24.8 5.9c-.1-.1-.2-.1-.3-.1m3.2 13.8-.1.1c-.7 0-1.3-.4-1.5-1.1l-1.2-5.2c-.2-.8.3-1.6 1.1-1.8l23.8-5.6c1.9-.4 3.7-.2 4.9.5.1 0 .1.1.3.2.1.1.3.1.4.3.1.1.3.4.4.5l.1.1c.1.2.2.4.3.7l.2.8c.1.7 0 1.5-.4 2.1v.1c0 .1-.1.2-.2.3s-.1.2-.3.4l-.1.1c-.1.1-.4.4-.6.5 0 0-.1.1-.2.1-.2.1-.4.3-.6.4-.6.4-1.3.6-2.1.8l-23.8 5.6c-.1.1-.3.1-.4.1m31.5 6.6h-.2v.1l-.4.4-.1.1c-.1.1-.4.2-.6.4 0 0-.1 0-.1.1-.3.1-.5.2-.8.3l-25.6 6.3c-.6.1-1.2-.1-1.5-.5-.1-.1-.2-.3-.2-.5l-1.4-5.6c-.2-.8.3-1.5 1-1.8l25.6-6.3c1.7-.4 3.4.2 4.4 1.5.4.5.7 1 .9 1.7 0 .3.1.6.1.9-.1 1-.5 2.1-1.1 2.9m4.1-33.7-.1-.7c-.5-2.1.7-4.3 2.9-4.8l22.4-5.6c1.4-.4 2.8.4 3.2 1.8l.9 3.1c.4 1.5-.4 3-1.9 3.4l-22.5 5.7c-2.1.6-4.3-.7-4.9-2.9m3.8 13.7-.2-.7c-.5-2 .7-4 2.7-4.5l23-5.8c1.4-.4 2.8.4 3.2 1.8l.9 2.9c.4 1.5-.4 3-1.9 3.4L458 146c-2.1.5-4.3-.7-4.8-2.9m32.6 9.9c-1.4.7-3 1.2-4.7 1.7-10.5 2.7-17.4 4.5-20.8 5.3h-.4c-2 .3-3.8-1.1-4.1-3.2v-.4c-.4-2.4 1.2-4.6 3.4-5.2l23.3-5.9c1.4-.4 2.8.4 3.2 1.8l.9 2.9c.1 0 .8 2.3-.8 3"/><path d="M507.6 478.6c-1.8-1.3-3.2-2.2-4.4-2.6-11.9-4.8-25.3-6.9-38.2-7.4-.4 0-.7-.3-.7-.7V233.1c0-.5.4-1 .9-1 12.5-2.1 22.7-6.7 31.4-16.8 10.4-12.1 15.3-28 12.5-44-.8-4.6-1.5-7.8-2.1-9.5-1.6-5.1-7.3-7.3-10.3-1.8-1 1.7-1.2 3.4-.9 5 1.1 4.7 1.8 6.4 2.1 10.6.9 12.2-2.7 25.9-11.7 34.1-9.4 8.6-24.5 14.2-37.5 10.7q-25.95-6.9-31.2-32.7c-.9-4.3-.1-12.2-5.9-13.3-8.6-1.7-7.3 10.4-6.2 15.3 5.1 23 22.9 39.8 46.5 42.9.4 0 .7.4.7.7v234.2c0 .6-.4 1-1 1-10.8.3-21.2 2-31.1 5.1-4 1.2-11.7 5.1-13 9.8-3.1 11.1 22.1 16.2 29.7 17.4 14.1 2.2 28.4 2.4 43 .5 7.5-1 14.8-2.9 21.8-5.7 7.3-2.9 15-10.3 5.7-17.3z"/><path d="M317.3 500.2h-.2c-7-1.2-14-2.9-21.2-5.2-.4-.1-.6-.1-.7-.1-.4 0-.6.4-.5.7 0 .1.1.2.2.4 3.4 3.3 5.1 7.1 5 11.5 0 .3-.3.6-.6.5h-.2c-4-2.3-9.6-4.5-14.1-5.9-8.5-2.6-17.5-5.9-27-9.7-2.2-.9-4.4-1.2-6.7-1.1-10.6.7-21.3 2.3-31.8 4.8-.5.1-1-.2-1.1-.7v-.4c.7-1.9 2.2-3.7 3.8-5.4 4.1-4.3 8.6-6.7 13.3-7.3 6-.8 10-1.3 12.2-1.5.4 0 .7-.4.7-.7-.4-11.9-.3-24 .1-36.2 0-.7.2-1.5.5-2.4 2.6-.3 4.3-.6 5-.9q3.9-1.5 4.8-2.1 1.5-1.05 3.3-1.5l.2 42.4c0 .7.5 1.2 1.1 1.2l16.3.8h.5c17.4 3.5 26.2 7.7 26.7 7.9 1.2 1.2 2.9 1.9 4.3 3.2 2.3 2.1 4.5 4.5 6.2 7.4.1 0 0 .2-.1.3m100.8-427c-.1.1-.4.2-.5.2-11.1 2-20.6 3.8-28.4 5.4-2.1.4-4.1 1.2-6.1 2.1l-7.8-8.6-5.6-6.2c.2.1.4.1.7.1h.3c.3 0 .5-.1.7-.3L390.1 52c.4-.3 1-.3 1.4 0 5.6 3.8 13.4 9.2 23.5 16.3 1.1.8 2.2 1.8 3.2 2.9.4.4.4 1.2-.1 1.5z" style="opacity:.75"/><path d="M369 495.4c-.1 0-.1.1-.3 0-1.8-.4-4.3-1.3-6.4-1.6-1-.1-5.5-.7-13.8-1.7-.3 0-.5.1-.5.4 0 .1 0 .2.1.3 2.3 3.6 3.7 7 4.3 10.6 0 .3-.1.6-.4.7h-.4c-1.2-.7-2.3-1.2-3.4-1.6-7.4-2.9-16.5-6-27.4-9.2-5.5-1.6-7.9-2.6-13.8-5-.2-.1-.4 0-.5.2 0 .1 0 .3.1.4l.3.3c-.5-.2-9.3-4.5-26.7-7.9.6 0 1.1-.1 1.6-.4 6-2.4 11-2.9 17.7-3.7.4 0 .7-.4.7-.8l.8-43.2c5.4-.7 8.8-2.4 13.6-5.1v47.7c0 .4.2.7.6.7 8.4.8 18.8 1.8 30.9 3.2 10.8 1.2 17.4 6.5 23.3 15.5-.3 0-.3.2-.4.2m49.1-422.2-.5.2c-11.1 2-20.6 3.8-28.4 5.4-2.1.4-4.1 1.2-6.1 2.1l-7.8-8.6-5.6-6.2 1 .1z" style="opacity:.9"/></svg>