<svg xmlns="http://www.w3.org/2000/svg" xml:space="preserve" viewBox="0 0 512 512"><path d="M496.4 38.4c-3.6 2-12.4 4.4-18.2 5.1-2 .2-4.9.5-6.3.7-18.3 2.4-38.5 2.7-195.1 3-79.1.1-145.8.4-148.2.6-15.7 1.3-16.2 1.3-25.5 2.7-8.3 1.2-8.1 1.2-16 3.3-23.9 6.4-42.6 17.9-57.6 35.6C25.4 94.3 18 104.9 18 106c0 .4-.3.7-.6.9-.3.1-2.2 3.6-4.3 7.6C6.4 127.7 1.6 142.8.5 154.4c-.7 7.5-.8 20.3-.1 22.9.3 1.2.7 3.4 1 4.8.2 1.4 1.2 3.8 2.1 5.4 4 7.2 10.6 5.8 17.2-3.8 4.6-6.5 15-16.8 21-20.7 11.5-7.6 27.1-13.2 46.9-16.7 1.3-.2 2.9-.6 3.7-.7s3.5-.5 5.9-.8 5.2-.7 6.3-.8c2.1-.3 10.2-1 16.6-1.5 9.7-.7 32.2-1.2 32.2-.6 0 .4-.4 3.3-1 6.6-.8 4.4-1.6 8.9-2.4 13.3-.1 1.2-.4 3-.7 4.1-.2 1-.5 2.8-.7 4.1-.1 1.2-1 5.5-1.8 9.6s-1.7 8.6-1.9 10-.5 3.2-.7 3.8c-.2.7-.5 2.2-.7 3.3-.8 5-6.6 29.7-9.2 39.8-9.9 37.3-19.7 64.2-33.3 92.5-12.2 25.1-26.3 42.9-44.9 56.3-10.1 7.3-15.1 13.1-19.4 22.1-2.4 4.9-2.4 5-2.4 16.8 0 13.2 1 18.6 5.1 27 5.9 12.3 20.1 21.1 38.1 23.6 5.2.7 22.9.6 24.2-.1.4-.2 1.8-.7 3.3-.9 7.3-1.3 17.2-6.9 24-13.5 15.2-14.9 30.3-49.8 37.5-86.3.7-3.3 1.4-6.7 1.6-7.8s.5-2.7.7-3.7 1.3-6.5 2.5-12.3c1.2-5.7 2.4-11.5 2.6-12.9s1.3-6.5 2.2-11.4c2.5-12.7 6.9-35.8 7.3-38.8.4-2.8 1.6-9.6 2.2-12.6.4-2.2.8-4.4 1.2-6.7.4-2.7.9-5.5 1-6.3s.5-2.9.8-4.8.7-4 .8-4.8c.4-2.9 3.3-19.2 3.6-21.1.2-1 1.8-11.3 3.8-22.9 1.8-11.6 3.7-23.1 4.1-25.5s.9-5.5 1.1-6.7c.5-3.3 3.3-21.2 3.7-23.2.1-1 .6-3.3.9-5.2.3-1.8.6-3.6.7-4 .1-.3.1-.9.2-1.3.1-.5 22.5-.7 65.8-.7h65.7l-4.1 9.8c-2 4.9-4 9.7-5.9 14.6-1 2.7-2.1 5.5-2.5 6.3-5.3 12-29.7 77.7-34.1 92-2.5 8.1-4.7 16.2-6.8 24.3-1.1 4.9-4.8 23.2-5.2 25.6-.2 1.6-.7 4.9-1.1 7.4-.4 2.4-.9 6.6-1.1 9.2-.3 2.7-.6 5.3-.7 5.9-.7 2.5-1.4 19.7-1.3 30.7.1 13.6.4 18.3 2.8 34 1.5 10.1 5.9 23.4 10.6 32.2 4.9 9.2 13.2 18.4 22.8 25.6 10.2 7.6 16.6 10.7 28.5 13.6 8.5 2.1 11 2.3 25.4 2.6 33.8.6 62.5-8.6 90.2-28.9 12.7-9.3 29.7-28.6 37.3-42.4 5.8-10.5 10.9-21.4 14.4-30.1s4.2-11.4 4.3-15.5c.4-12.5-4.7-17.7-14.6-15.4-4.9 1.2-7.5 2.9-12.8 8.8-14.4 16.1-26.4 25.3-37.9 29.1-8.1 2.7-10.4 3.2-17 3.5-6.8.3-11.1-.7-17.3-3.7-13.2-6.5-23.8-23.7-28.3-46.2-2.5-12.1-3-20.5-2.7-45.5.2-13.8.4-26.5.7-28.1.1-1.6.5-6.3.8-10.3.2-4.1.6-8.4.7-9.6.3-2.1.7-6.3 1.5-13.3.2-1.6.5-4.1.7-5.5.1-1.4.5-4.1.7-5.9.2-1.9.6-4.1.7-5.2.2-1 .5-2.9.7-4.1.5-3.2 2.6-15.2 3-17.4.2-1 .7-3.7 1.1-5.9 1.1-6.1 1.2-6.4 3.3-15.9 2.1-9.8 6.1-25.7 6.6-26 .1-.1 6.7-.4 14.6-.6 13.5-.3 27.5-1 30.2-1.5.7-.1 2.7-.4 4.5-.7 18.3-2.7 27.6-9.4 37.8-26.8 7.1-12 14.8-34 16.6-47.1.2-2.1.7-5.2 1-7s.5-6.6.5-10.6c-.1-7-.1-7.4-2.1-9.1-3-2-4.8-2-9 .2"/></svg>