<?xml version="1.0" encoding="utf-8"?>
<!-- Generator: Adobe Illustrator 28.2.0, SVG Export Plug-In . SVG Version: 6.00 Build 0)  -->
<svg version="1.1" id="svg" xmlns="http://www.w3.org/2000/svg" xmlns:xlink="http://www.w3.org/1999/xlink" x="0px" y="0px"
	 viewBox="0 0 512 512" style="enable-background:new 0 0 512 512;" xml:space="preserve">
<style type="text/css">
	.st0{fill-rule:evenodd;clip-rule:evenodd;}
</style>
<g>
	<path class="st0" d="M256,20.6C126,20.6,20.6,126,20.6,256S126,491.4,256,491.4S491.4,386,491.4,256S386,20.6,256,20.6z
		 M357.4,363.9c-0.1,0-0.9,0.6-1.7,1.2c-2.5,1.8-9.3,0-13.7-3.8c-0.5-0.3-1.4-0.8-2.1-1c-0.7-0.2-1.8-0.8-2.5-1.3
		c-0.6-0.6-1.5-1-1.8-1c-0.4,0-1.1-0.4-1.6-1c-0.5-0.5-1.2-1-1.5-1s-1.1-0.4-1.8-1c-0.7-0.5-1.6-1-2.1-1c-0.4,0-0.9-0.2-1-0.4
		c-0.1-0.2-2.4-1.6-5.1-3.1s-5.3-2.9-5.7-3.2c-1.8-1.1-13.2-7.6-13.9-7.9c-0.5-0.2-1.7-0.9-2.7-1.5c-3.2-1.9-13.4-7.7-15.6-8.9
		c-4.3-2.3-5.2-2.8-7.2-4c-1.1-0.7-2.8-1.6-3.6-2.1s-2.5-1.4-3.6-2.1c-3.8-2.4-4.3-2.5-5.8-2l-1.4,0.5l-0.1,38.1l-0.1,38.1l1.4,1.1
		c1,0.8,2.1,1.1,4.4,1.1c8.6,0,13.2,6,8.5,11c-3.2,3.5-38.6,3.5-41.7,0c-4.4-5.1,0-11,8.3-11c2.4,0,3.5-0.3,4.5-1.1l1.4-1.1v-37.9
		c0-28.8-0.1-38-0.6-38.5c-0.9-0.9-3.2-0.8-4.6,0.3c-0.7,0.5-2,1.2-2.9,1.6c-0.9,0.4-1.7,0.9-1.7,1c0,0.1-0.6,0.6-1.4,0.9
		c-0.8,0.4-2.4,1.2-3.5,1.9c-1.1,0.7-3.2,1.9-4.7,2.6c-1.4,0.7-3.5,1.9-4.5,2.6c-1,0.7-2,1.3-2.1,1.3c-0.2,0-7,3.9-10,5.7
		c-3.3,2-15.4,8.7-15.7,8.7c-0.2,0-0.7,0.4-1.2,0.8c-0.7,0.7-2,1.4-8.7,5c-1.6,0.9-3,1.7-3.1,1.9c-0.1,0.2-1.4,0.9-2.8,1.6
		c-2.6,1.3-10.4,5.8-11.3,6.5c-1.4,1.1-9.4,4.8-10.4,4.8c-7.4,0-8.6-10.2-1.6-13.6c0.4-0.2,1.7-0.9,2.8-1.6c1.1-0.7,3.4-2,5.1-2.9
		c1.7-0.9,3.3-1.8,3.6-2c0.6-0.5,3.2-2,7.5-4.3c1.5-0.9,3.4-1.9,4.1-2.4c1.4-0.9,3.5-2.2,5.9-3.4c0.8-0.5,2.5-1.4,3.6-2.1
		c1.1-0.7,2.8-1.7,3.6-2.1c0.8-0.5,2.5-1.4,3.6-2.1c1.1-0.7,2.8-1.6,3.7-2c1-0.4,2.9-1.6,4.4-2.5c4.2-2.7,4.6-3,6.5-3.8
		c1-0.5,1.9-1,2.1-1.2c0.1-0.2,1.8-1.1,3.6-2.1c1.8-0.9,4.2-2.2,5.2-2.8c1.1-0.6,4.1-2.3,6.7-3.8c2.7-1.5,5.2-2.9,5.6-3.2
		c0.4-0.3,1.5-0.9,2.3-1.3c0.8-0.4,2.5-1.3,3.6-2c1.1-0.7,2.8-1.6,3.7-2c3.3-1.5,3.7-2.9,3.7-13.6c0-11.9-1-13.5-5.8-9.8
		c-0.6,0.5-1.7,1.1-2.3,1.3c-0.6,0.2-1.4,0.7-1.8,1c-0.3,0.3-1.4,1-2.4,1.5s-2.2,1.1-2.6,1.4c-0.4,0.2-3.7,2.1-7.2,4.1
		s-6.8,3.8-7.2,4.1c-4,2.4-15.4,8.7-15.8,8.7c-0.3,0-0.9,0.4-1.4,1c-0.5,0.5-1.1,1-1.4,1s-3.7,1.9-7.7,4.1c-4,2.2-7.6,4.2-8.2,4.4
		c-0.5,0.2-1,0.5-1,0.8s-0.9,0.9-2.1,1.3s-2.1,1-2.1,1.2s-1.2,0.7-2.6,1c-10.3,2.5-12.6-9-2.8-13.7c0.8-0.4,2.7-1.4,4.1-2.2
		c1.4-0.8,3-1.7,3.6-2c0.6-0.3,2-1.1,3.1-1.8c1.1-0.7,3-1.7,4.1-2.3c1.1-0.6,3-1.6,4.1-2.3c2.6-1.6,4.7-2.8,6.9-4
		c1-0.6,2.8-1.5,3.9-2.2c1.2-0.6,3.6-2,5.4-2.9c1.9-1,3.6-2,3.9-2.3c0.7-0.7,2.9-1.9,5.6-3.1c1-0.5,1.9-1.1,1.9-1.3s0.5-0.5,1.2-0.7
		c0.6-0.2,1.5-0.6,1.9-1c0.3-0.4,2-1.4,3.7-2.2c2.7-1.3,5.6-3.1,7.2-4.2c0.3-0.2,1.5-0.9,2.8-1.6s3.7-1.9,5.3-2.8
		c5.5-2.9,5.5-2.9,5.5-14.8V239l-1.2-0.8c-1.3-0.8-1.5-0.7-8.4,3.2c-3.9,2.2-7.5,4.2-7.9,4.4c-0.4,0.2-1.8,1.1-3.1,1.9
		c-1.3,0.8-3.1,1.9-3.9,2.3c-0.8,0.5-3.1,1.8-5.1,2.9c-2,1.1-4.6,2.5-5.7,3.1c-2.4,1.2-3,1.6-7.5,4.3c-6.7,4.1-12.4,2.2-12.5-4.2
		c-0.1-2.7,3.4-7.3,5.5-7.3c0.3,0,1.7-0.8,3.2-1.8s4.3-2.6,6.2-3.6c2-1,4.5-2.3,5.6-3c1.1-0.6,2.8-1.5,3.6-2s2.5-1.4,3.6-2.1
		c1.1-0.6,2.8-1.6,3.6-2c0.8-0.4,2.5-1.3,3.6-2c1.1-0.7,2.8-1.6,3.8-2.1s1.9-1,2.1-1.2c0.2-0.2,0.9-0.6,1.6-1
		c0.7-0.4,2.2-1.2,3.3-1.9c1.1-0.7,3-1.7,4.1-2.3c1.1-0.6,2.8-1.6,3.6-2.3l1.5-1.3l0.2-8.1c0.2-12.4-0.3-13-7.9-8.2
		c-1.1,0.7-3,1.7-4.1,2.3c-1.2,0.5-2.9,1.5-3.9,2.1c-0.9,0.6-3.3,1.9-5.1,2.9c-1.8,1-3.6,2-4,2.3c-0.6,0.5-2.2,1.5-5.5,3.2
		c-0.8,0.5-2.5,1.4-3.6,2.1c-1.1,0.7-2.8,1.7-3.6,2.1c-0.8,0.5-2.5,1.4-3.6,2.1c-1.1,0.7-2.8,1.6-3.6,2.1c-0.8,0.5-2.5,1.4-3.6,2.1
		c-1.1,0.7-2.9,1.6-4,2.1c-1,0.5-1.9,1-1.9,1.2s-0.8,0.6-1.8,1c-1,0.3-1.8,0.8-1.8,1.1c0,0.3-0.3,0.5-0.6,0.5s-2.1,0.8-3.9,1.9
		c-1.8,1-3.9,2.2-4.7,2.6c-0.7,0.4-1.5,0.8-1.6,1c-0.2,0.2-1.1,0.7-2.1,1.2c-1,0.4-3.4,1.8-5.4,2.9c-9.6,5.5-10.9,6.2-12.7,6.2
		c-5.7,0.1-8.8-6.3-5.3-10.7c0.6-0.7,3.9-2.9,6-4c0.7-0.4,2.2-1.2,3.3-1.9c1.1-0.7,2.8-1.7,3.6-2.1c0.8-0.5,2.5-1.4,3.6-2.1
		c1.1-0.7,2.8-1.6,3.6-2.1c0.9-0.4,2.7-1.4,4-2.2c1.3-0.8,3.9-2.2,5.8-3.2c1.9-1,3.4-2,3.4-2.2c0-0.2,0.3-0.4,0.6-0.4
		c0.5,0,4.7-2.2,7.7-4.1c2.2-1.3,15.5-8.7,15.8-8.7c0.1,0,0.7-0.3,1.1-0.7c0.8-0.7,6.3-3.8,10.1-5.7c0.8-0.5,2.5-1.4,3.6-2.1
		c1.1-0.8,2.5-1.5,3.1-1.8c0.9-0.4,4.2-2.5,5.6-3.5c0.3-0.2,2.1-1.2,4-2.2c10.3-5.4,9.6-4.2,9.6-16.9c0-12.2-0.2-12.7-5-10
		c-1.3,0.8-3.6,2-5,2.8c-2.5,1.4-6.5,3.7-10.4,6c-1,0.6-2.6,1.5-3.4,1.9c-0.8,0.5-2.5,1.4-3.6,2.1c-1.1,0.6-2.8,1.6-3.6,2
		c-0.8,0.5-1.9,1-2.3,1.3c-0.4,0.3-2.1,1.3-3.8,2.2c-1.7,0.9-3.9,2.2-4.9,2.8c-1.1,0.6-2.7,1.4-3.7,1.9s-1.9,1-2.1,1.2
		c-0.2,0.3-1.1,0.8-2.1,1.3c-2,1-5.5,3-15.1,8.5c-7.7,4.4-10.6,4.9-13.5,2.3c-4-3.6-2.2-9.4,3.9-12.4c0.7-0.4,2.2-1.2,3.3-1.9
		c1.1-0.7,2.8-1.6,3.6-2.1s2.5-1.4,3.6-2.1c1.1-0.7,3-1.7,4.1-2.3c3.2-1.6,8.7-4.8,9-5.1c0.2-0.1,1.1-0.7,2.1-1.2s2.8-1.5,3.9-2.2
		c1.1-0.7,2.4-1.4,2.8-1.6c0.7-0.3,11.1-6.3,13.9-7.9c4-2.3,15.6-8.7,15.9-8.7c0.2,0,0.8-0.4,1.4-0.9c0.6-0.5,2.4-1.6,4.1-2.4
		c3.9-1.9,5.5-3.1,6.3-4.5c0.8-1.5,0.9-20.9,0-21.8c-1-0.9-3.2-0.7-4.7,0.4c-0.7,0.5-1.4,1-1.6,1c-0.3,0-5.9,3.2-11.5,6.5
		c-1,0.6-2.6,1.5-3.4,1.9c-0.8,0.5-2.5,1.4-3.6,2.1c-1.1,0.7-2.8,1.7-3.6,2.1c-0.8,0.5-2.5,1.4-3.6,2.1c-1.1,0.7-2.8,1.7-3.6,2.1
		c-0.8,0.4-2.5,1.3-3.6,2c-7.2,4.2-9.5,4.8-12.3,2.8c-5.1-3.5-4.1-9.8,1.8-12.3c0.8-0.4,1.4-0.9,1.4-1.1c0-0.3,0.3-0.5,0.7-0.5
		c0.3,0,2.3-1,4.4-2.3c2.1-1.3,3.9-2.3,4-2.3c0.2,0,2.3-1.2,4.9-2.7c2.5-1.5,6-3.4,7.7-4.3c1.7-0.9,3.4-2,3.8-2.3
		c0.9-0.7,3.4-2.1,5.9-3.3c1-0.5,1.9-1,2.1-1.2c0.2-0.2,1.3-0.9,2.6-1.6c6.5-3.4,8.2-4.4,8.2-4.7c0-0.2,0.5-0.5,1.2-0.7
		c0.7-0.2,1.5-0.6,1.9-1c0.4-0.4,2.2-1.4,4-2.3c1.9-0.9,3.6-1.6,4.2-0.8c1.1-0.1,9.6,4.3,11.6,5.9c0.3,0.4,1.4,1,2.2,1.4
		c4,2.1,8.4,4.5,10,5.5c0.9,0.6,2.7,1.6,3.9,2.2c1.2,0.6,2.5,1.4,2.8,1.8c0.3,0.4,0.8,0.7,1.1,0.7c0.4,0,12.4,6.6,15.9,8.7
		c3.4,2,7.2,4.1,7.7,4.1c0.3,0,0.6,0.3,0.6,0.5c0,0.3,0.7,0.8,1.5,1.1c4.3,1.8,6.3,6.5,4.1,10c-2.3,3.7-5.7,4.3-10.3,1.8
		c-1.6-0.8-3.6-1.9-4.4-2.3c-0.8-0.4-2.5-1.3-3.6-2c-1.1-0.7-2.8-1.6-3.6-2.1s-2.5-1.4-3.6-2.1c-1.1-0.7-2.8-1.7-3.6-2.1
		c-0.8-0.5-2.5-1.4-3.6-2.1c-1.1-0.7-2.8-1.6-3.6-2c-0.9-0.4-1.8-1-2-1.2c-0.5-0.4-6.3-3.8-8.6-4.9c-0.7-0.3-1.8-1-2.5-1.5
		c-1.4-1.1-3.7-1.2-4.6-0.3c-1.9,1.9-0.6,22.6,1.5,23.3c0.5,0.1,0.9,0.5,0.9,0.7c0,0.2,0.8,0.7,1.7,1.1s2.6,1.3,3.7,2.1
		c1.1,0.7,3.6,2.1,5.4,3.1c1.8,1,4.1,2.3,5.1,2.9c1,0.6,2.8,1.6,3.9,2.2c1.2,0.6,3,1.6,4,2.2c1.1,0.6,4.9,2.7,8.5,4.8
		c3.7,2.1,7,4,7.4,4.3c0.4,0.2,1.6,0.8,2.7,1.3c1,0.5,1.9,1,1.9,1.2c0,0.2,0.8,0.6,1.7,1c0.9,0.3,1.8,0.8,1.9,1
		c0.2,0.1,1.9,1.2,3.9,2.2s4.6,2.4,5.7,3.1s2.4,1.4,2.8,1.6c0.8,0.4,5,2.8,8.1,4.7c1.1,0.6,2.7,1.5,3.5,1.9
		c5.7,2.7,7.6,8.4,4.1,12.1c-2,2-7,2.3-9.2,0.5c-0.7-0.5-1.4-1-1.6-1s-2.4-1.2-5-2.7s-5.4-3.1-6.3-3.6c-0.9-0.5-3.2-1.9-5.2-3
		c-2-1.1-4.4-2.4-5.4-2.9c-1-0.4-2.1-1.1-2.4-1.4c-0.3-0.3-1.3-0.8-2.2-1.2c-0.9-0.4-1.6-0.9-1.6-1.1c0-0.3-0.6-0.7-1.4-1
		c-1.6-0.7-5.5-2.8-18.2-10.1c-4.9-2.8-9.9-5.7-11-6.3c-1.1-0.7-2.8-1.6-3.6-2c-0.8-0.4-1.9-1.1-2.4-1.4c-0.7-0.5-1.2-0.5-2.2,0
		l-1.3,0.6v10.4v10.4l1.7,1.6c1.6,1.5,2.9,2.3,6.4,4c0.9,0.5,1.7,1,1.9,1.3c0.1,0.2,1,0.6,1.8,0.8c0.8,0.2,1.5,0.5,1.5,0.7
		c0,0.2,0.8,0.8,1.7,1.3c0.9,0.4,2.6,1.4,3.7,2.1c1.1,0.7,2.8,1.6,3.6,2c0.8,0.5,1.9,1,2.3,1.3c0.4,0.3,3.1,1.8,5.9,3.4
		c2.8,1.5,5.5,3.1,5.9,3.3s4.1,2.3,8.2,4.6c4.1,2.3,7.8,4.4,8.2,4.6s3.7,2.1,7.2,4.1s6.8,3.8,7.2,4.1c0.5,0.3,1.6,0.9,2.6,1.4
		s2.1,1.1,2.5,1.5c0.3,0.4,1.2,0.8,1.9,1c0.6,0.2,1.2,0.5,1.2,0.7c0,0.3,0.8,0.8,1.9,1.3c2.4,1.1,4.9,2.5,5.3,3
		c0.2,0.2,1.1,0.8,2.1,1.2c0.9,0.4,2.7,1.3,3.8,2c1.1,0.7,2.5,1.4,3.1,1.7c3.1,1.4,4.5,5.2,3.4,9c-1.2,4.4-6.9,5.3-11.4,2
		c-0.7-0.5-1.8-1.2-2.5-1.5c-0.8-0.3-1.7-0.8-2.1-1.1c-1.4-1-22.7-13-23.8-13.5c-0.6-0.2-2-1-3.1-1.7c-1.1-0.7-2.5-1.4-3.1-1.7
		c-0.6-0.3-2-1.1-3-1.8c-1.1-0.7-2.9-1.8-4.1-2.4c-1.2-0.6-3.1-1.6-4.2-2.3c-1.2-0.7-2.9-1.7-3.9-2.2c-2.2-1.2-5.4-3-7.5-4.3
		c-0.8-0.6-2.3-1.4-3.3-1.9s-2-1-2.1-1.2s-1-0.7-1.8-1.1c-0.8-0.5-2.5-1.3-3.6-2c-1.1-0.6-3-1.7-4.1-2.3c-1.2-0.6-2.9-1.6-3.9-2.2
		c-7.2-4.5-7.7-4-7.7,7.4v8.5l1.9,1.7c1.1,1,2.7,2.1,3.6,2.4c0.9,0.3,1.7,0.7,1.7,0.9s1.6,1.1,3.5,2.1c1.9,0.9,3.7,2,4.1,2.4
		c0.3,0.4,1.3,0.8,1.9,1c0.6,0.2,1.2,0.5,1.2,0.7c0,0.2,0.8,0.7,1.9,1.2c1.1,0.5,2.9,1.4,4,2.1c1.1,0.7,2.8,1.6,3.6,2.1
		c0.8,0.5,2.5,1.4,3.6,2.1c1.1,0.7,2.8,1.7,3.6,2.1c0.8,0.4,2.5,1.3,3.6,2c1.1,0.6,3.4,1.9,5.1,2.8c1.7,0.9,3.6,2.1,4.3,2.6
		c0.7,0.6,1.5,1,1.8,1c2.2,0,5.7,4.5,5.7,7.3c0,7.8-6.5,8.5-16.6,1.8c-0.8-0.5-2.2-1.2-3.2-1.7c-1-0.5-2-1-2.1-1.2
		c-0.2-0.2-1.1-0.7-2.1-1.2c-1-0.4-3.4-1.8-5.4-2.9c-3.5-2-4.8-2.7-9.3-5.4c-1.1-0.6-3.4-1.9-5.1-2.8c-1.7-0.9-4.4-2.4-5.9-3.3
		c-1.5-0.9-3.2-1.6-3.6-1.4c-2,0.7-2.1,1-2.1,11.7v10.4l1.8,1.6c1,0.9,2.1,1.6,2.4,1.6s1,0.3,1.4,0.7c0.5,0.4,2.4,1.5,4.2,2.5
		c1.9,1,4.3,2.4,5.5,3.1c2.1,1.4,8.4,4.9,11.2,6.3c0.8,0.4,2.5,1.3,3.6,2c1.1,0.7,2.8,1.6,3.6,2.1c0.8,0.5,2.5,1.4,3.6,2.1
		c1.1,0.7,2.8,1.7,3.6,2.1c0.8,0.4,2.5,1.3,3.6,2c1.2,0.7,2.9,1.7,3.9,2.2c2.4,1.4,4.5,2.5,6.9,4c1.1,0.6,2.8,1.6,3.8,2
		c1,0.4,2.1,1.1,2.5,1.5c0.4,0.4,0.9,0.7,1.1,0.7c0.4,0,7.5,3.9,11.8,6.5c1,0.6,2.2,1.3,2.6,1.5c6.1,2.9,4.3,12.2-2.4,12.2
		c-3,0-4-0.3-7.6-2.5c-1.1-0.7-2.8-1.6-3.6-2.1s-2.5-1.4-3.6-2.1c-1.1-0.7-2.8-1.6-3.6-2s-1.9-0.9-2.3-1.2c-0.4-0.3-2.5-1.5-4.6-2.7
		c-2.1-1.3-4.3-2.6-4.9-2.9c-0.6-0.4-2-1.1-3.1-1.7c-1.1-0.6-3-1.6-4.1-2.3c-1.1-0.7-2.4-1.4-2.8-1.6c-0.7-0.4-8.5-4.8-10.3-5.9
		c-4-2.4-16.4-9.2-16.8-9.2c-0.3,0-0.7-0.3-0.8-0.7c-0.4-1.1-4.1-2.1-5.4-1.4c-1.1,0.5-1.1,0.8-1.1,10.6c0,11.2,0.3,12.3,3.8,13.9
		c0.9,0.4,2.6,1.3,3.7,2c1.1,0.7,2.5,1.4,3.1,1.7c0.6,0.3,3.2,1.7,5.7,3.2s5.2,3,5.9,3.4c0.7,0.4,2.9,1.7,4.9,2.8
		c2,1.1,4.4,2.4,5.4,2.9s2,1,2.1,1.2c0.3,0.3,1.2,0.8,5.7,3.1c0.7,0.4,1.4,0.8,1.5,1c0.2,0.2,2,1.2,4,2.3c2.1,1,4.6,2.5,5.7,3.1
		c1.1,0.7,2.7,1.6,3.5,2c0.8,0.5,2.5,1.4,3.6,2.1c1.1,0.7,2.8,1.7,3.6,2.1c0.8,0.5,2.5,1.4,3.6,2.1c1.1,0.7,2.8,1.7,3.6,2.1
		c0.8,0.5,2.5,1.4,3.6,2.1c1.1,0.7,3,1.7,4.1,2.3c2.8,1.4,5.1,2.7,5.4,3.1c0.1,0.2,1.9,1.2,4,2.3c7.1,3.7,8.2,4.6,9.1,7.5
		C358.8,359.7,358.4,363.2,357.4,363.9z"/>
	<path class="st0" d="M256,0C114.6,0,0,114.6,0,256s114.6,256,256,256s256-114.6,256-256S397.4,0,256,0z M256,502.5
		C119.9,502.5,9.5,392.1,9.5,256S119.9,9.5,256,9.5S502.5,119.9,502.5,256S392.1,502.5,256,502.5z"/>
</g>
</svg>
