<svg xmlns="http://www.w3.org/2000/svg" xml:space="preserve" viewBox="0 0 512 512"><path d="M512 254.8c0 97-44.3 173.9-128.9 214.1l-.3-250.8c-1.1-61.2-57.5-110.5-126.8-110.5S130.3 157 129.1 218.1v250.5C44.8 428.3 0 351.6 0 254.8 0 118.6 114.6 8.2 256 8.2s256 110.4 256 246.6m-154.2-29h.2v255.9c-63.2 28.8-137.5 30.1-203.1.2V223.1c1.6-20.4 20.8-36.6 44.3-36.6 24.5 0 44.4 17.6 44.4 39.3 0 5.9-1.5 11.7-4.3 16.9h-33.7l50.7 45 50.7-45h-33.7c-2.8-5.2-4.3-11-4.3-16.9 0-21.7 19.9-39.3 44.4-39.3s44.4 17.6 44.4 39.3m-152.2-5.6c7 0 12.7-5 12.7-11.2s-5.7-11.2-12.7-11.2-12.7 5-12.7 11.2 5.7 11.2 12.7 11.2M319.7 209c0-6.2-5.7-11.2-12.7-11.2s-12.7 5-12.7 11.2 5.7 11.2 12.7 11.2 12.7-5 12.7-11.2" style="fill:#fff"/></svg>