<?xml version="1.0" encoding="utf-8"?>
<!-- Generator: Adobe Illustrator 28.2.0, SVG Export Plug-In . SVG Version: 6.00 Build 0)  -->
<svg version="1.1"
	 id="svg120" xmlns:rdf="http://www.w3.org/1999/02/22-rdf-syntax-ns#" xmlns:dc="http://purl.org/dc/elements/1.1/" xmlns:cc="http://creativecommons.org/ns#" xmlns:svg="http://www.w3.org/2000/svg" xmlns:sodipodi="http://sodipodi.sourceforge.net/DTD/sodipodi-0.dtd" xmlns:inkscape="http://www.inkscape.org/namespaces/inkscape" inkscape:export-filename="./logo.png"
	 xmlns="http://www.w3.org/2000/svg" xmlns:xlink="http://www.w3.org/1999/xlink" x="0px" y="0px" viewBox="0 0 512 512"
	 style="enable-background:new 0 0 512 512;" xml:space="preserve">
<path d="M441.7,201.7c-19-15.9-44.8-25.2-77.5-28c-57.2,27-112.5,61.8-167,100.3v238h87.5V394.3h57.7c43.2,0,76.3-9.5,99.3-28.6
	c23.2-19.2,34.8-46.6,34.8-82.2C476.5,248,464.9,220.8,441.7,201.7z M372.4,318.6c-9.2,8.2-22.3,12.3-39.3,12.3h-48.4v-94.7v-0.1
	h48.4c17,0,30.1,4.1,39.3,12.3c9.3,8.2,13.9,19.9,13.9,35C386.3,298.5,381.6,310.3,372.4,318.6z M341.1,165.4
	c-62.2,29.2-105.7,58.3-145.9,87.4c-22-77.9-82.5-75.1-136.1-51.6c1,1.8,1.6,3.8,1.6,6c0.1,7-5.5,12.6-12.5,12.7
	c-7,0.1-12.6-5.5-12.7-12.5s5.5-12.6,12.5-12.7c2.4,0,4.7,0.6,6.6,1.8c22.1-28.5,37.1-67.4,98.5-50.1c-18-56.2-7.6-85.8,14.5-122.6
	c-4-2.1-6.8-6.3-6.8-11.2c0-7,5.6-12.6,12.6-12.6S186,5.7,186,12.6c0,6.4-4.8,11.7-11,12.5c1.7,39.8,10.5,77.3,64,76.2
	c19.7-54.8,46.6-65,72.1-66.8c0.5-6.5,5.9-11.6,12.6-11.6c7,0,12.6,5.6,12.6,12.6s-5.6,12.6-12.6,12.6c-1.1,0-2.2-0.2-3.2-0.4
	c-19,30.4-20.2,67,20.4,117C341,164.9,341.5,165.3,341.1,165.4z"/>
</svg>
