<svg xmlns="http://www.w3.org/2000/svg" xml:space="preserve" viewBox="0 0 512 512"><path d="M495.3 86.7v-1c0-47.5-40.1-85.8-87.6-85.8-52.5 1.2-50.4 30.4-159.9 33.1H143.5c-70.1.1-126.9 56.9-126.9 127v225.1c0 70.1 56.8 126.9 126.8 126.9h225.1c70.1 0 126.9-56.8 126.9-126.9V87zM256 414.6c-78.4 0-142-63.6-142-142s63.6-142 142-142 142 63.6 142 142-63.6 142-142 142m153.6-300.1c-16.6 0-30.1-13.5-30.1-30.1s13.5-30.1 30.1-30.1 30.1 13.5 30.1 30.1-13.5 30.1-30.1 30.1M256 172.1c55.5 0 100.5 45 100.5 100.5s-45 100.5-100.5 100.5-100.5-45-100.5-100.5 45-100.5 100.5-100.5" style="fill:#fff"/></svg>