<?xml version="1.0" encoding="utf-8"?>
<!-- Generator: Adobe Illustrator 28.2.0, SVG Export Plug-In . SVG Version: 6.00 Build 0)  -->
<svg version="1.1" id="Layer_1" xmlns="http://www.w3.org/2000/svg" xmlns:xlink="http://www.w3.org/1999/xlink" x="0px" y="0px"
	 viewBox="0 0 512 512" style="enable-background:new 0 0 512 512;" xml:space="preserve">
<style type="text/css">
	.st0{fill:#F58127;}
	.st1{fill:#FFFFFF;}
	.st2{fill:#424242;}
</style>
<path class="st0" d="M495.3,86.7c0-0.3,0-0.6,0-1c0-47.5-40.1-85.8-87.6-85.8C355.2,1.1,357.3,30.3,247.8,33H143.5
	C73.4,33.1,16.6,89.9,16.6,160v225.1c0,70.1,56.8,126.9,126.8,126.9h225.1c70.1,0,126.9-56.8,126.9-126.9V87L495.3,86.7z"/>
<path class="st1" d="M409.6,54.3c16.6,0,30.1,13.5,30.1,30.1s-13.5,30.1-30.1,30.1s-30.1-13.5-30.1-30.1S393,54.3,409.6,54.3z
	 M256,130.6c78.4,0,142,63.6,142,142s-63.6,142-142,142s-142-63.6-142-142S177.6,130.6,256,130.6z"/>
<circle id="Ellipse_68" class="st2" cx="256" cy="272.6" r="100.5"/>
</svg>
