<?xml version="1.0" encoding="utf-8"?>
<!-- Generator: Adobe Illustrator 28.2.0, SVG Export Plug-In . SVG Version: 6.00 Build 0)  -->
<svg version="1.1" id="Layer_1" xmlns="http://www.w3.org/2000/svg" xmlns:xlink="http://www.w3.org/1999/xlink" x="0px" y="0px"
	 viewBox="0 0 512 512" style="enable-background:new 0 0 512 512;" xml:space="preserve">
<style type="text/css">
	.st0{fill:#FFFFFF;}
</style>
<path class="st0" d="M495.3,86.7c0-0.3,0-0.6,0-1c0-47.5-40.1-85.8-87.6-85.8C355.2,1.1,357.3,30.3,247.8,33H143.5
	C73.4,33.1,16.6,89.9,16.6,160v225.1c0,70.1,56.8,126.9,126.8,126.9h225.1c70.1,0,126.9-56.8,126.9-126.9V87L495.3,86.7z M256,414.6
	c-78.4,0-142-63.6-142-142s63.6-142,142-142s142,63.6,142,142S334.4,414.6,256,414.6z M409.6,114.5c-16.6,0-30.1-13.5-30.1-30.1
	s13.5-30.1,30.1-30.1s30.1,13.5,30.1,30.1S426.2,114.5,409.6,114.5z M256,172.1c55.5,0,100.5,45,100.5,100.5s-45,100.5-100.5,100.5
	s-100.5-45-100.5-100.5S200.5,172.1,256,172.1z"/>
</svg>
