<svg xmlns="http://www.w3.org/2000/svg" xml:space="preserve" viewBox="0 0 512 512"><path d="M441.4 254.1c-.1 107-69.6 184.4-119.9 218.8-6.7 4.6-35.2 23.5-76.6 33-4.2 1-62.1 13.9-68.8-1.1-3.8-8.5 12.4-18.2 31.8-46.7 10.6-15.5 41.9-61.5 28.3-81.8-13-19.4-61.7-10.3-82.7-2.7-16.5 6-24.8 9-33.9 16.5-8.1 6.7-11.9 12.6-19.6 13.3-11.4 1.1-21-10.3-21.7-11.2-27.1-32.7 27-120.3 30.7-126.2 14.5-23.1 30.2-41.4 30.2-41.4 11.5-13.5 16.1-16.5 24.5-27.3 16.1-20.6 23.6-40.1 25.9-46.3 6.2-16.5 14.4-38.4 10.5-65.2-4.1-28.1-18.2-53.3-18.2-53.3-7.2-12.7-13.1-18.8-10.5-24.5 4.6-10 28.4-8.2 42.8-7 44.9 3.7 77.9 19.9 80.8 21.3 75.8 37.9 112.2 104.6 116.2 112.4 28.9 54.7 30.2 105 30.2 119.4" style="fill:#bd91e1"/><path d="M345.3 228.5h-57.1c-6.8 0-12.3-5.5-12.3-12.3v-57.1c0-6.8 5.5-12.3 12.3-12.3h57.1c6.8 0 12.3 5.5 12.3 12.3v57.1c0 6.8-5.5 12.3-12.3 12.3M271 288.2v-46.6c0-5.4-4.4-9.9-9.9-9.9h-46.6c-5.4 0-9.9 4.4-9.9 9.9v46.6c0 5.4 4.4 9.9 9.9 9.9h46.6c5.5 0 9.9-4.4 9.9-9.9m96.9 37.7v-40.3c0-5.5-4.4-9.9-9.9-9.9h-41.6c-5.5 0-9.9 4.4-9.9 9.9v40.3c0 5.5 4.4 9.9 9.9 9.9H358c5.5 0 9.9-4.5 9.9-9.9m-58.9 56v-25.2c0-3.4-2.8-6.2-6.2-6.2H282c-3.4 0-6.2 2.8-6.2 6.2v25.2c0 3.4 2.8 6.2 6.2 6.2h20.8c3.4 0 6.2-2.8 6.2-6.2" style="fill:#70bbf3"/></svg>