<svg xmlns="http://www.w3.org/2000/svg" xml:space="preserve" viewBox="0 0 512 512"><path d="M201 224.5c0-9.6 5.7-17.4 12.8-17.4 7 0 12.8 7.8 12.8 17.4s-5.7 17.4-12.8 17.4-12.8-7.8-12.8-17.4m102.9 41.6c-4.2-4.5-11.3-4.6-15.7-.3-5.9 5.7-10.1 14-12.1 23.3l-1.4.3c-13.1 3.4-27.1 3.6-40.3.5-1.9-9.7-6.2-18.3-12.2-24.2-4.4-4.3-11.4-4.1-15.7.3-4.2 4.5-4.1 11.5.3 15.8 3.9 3.8 6.5 11.4 6.5 19.3 0 9.3-3.2 15.9-6.3 19-4.3 4.4-4.3 11.5.1 15.8 2.2 2.1 4.9 3.2 7.8 3.2s5.7-1.1 7.9-3.3c5.7-5.9 9.7-14 11.5-23.1 6.3 1.2 12.7 1.7 19.1 1.7 7.5 0 15-.8 22.3-2.4 1.8 9.5 5.8 17.8 11.6 23.8 2.2 2.2 5.1 3.3 7.9 3.3s5.6-1.1 7.8-3.2c4.4-4.3 4.4-11.4.1-15.8-3-3.1-6.3-9.7-6.3-19 0-7.9 2.5-15.4 6.5-19.3 4.7-4.2 4.9-11.3.6-15.7M512 256c0 141.4-114.6 256-256 256S0 397.4 0 256 114.6 0 256 0s256 114.6 256 256m-58.6 48.7c0-47.7-35.7-87-81.6-92.4-5.1-16.2-13.4-30.9-24.2-43.5 7.7-5.7 12.6-14.8 12.6-25.2 0-17.3-13.9-31.3-31-31.3-14 0-25.9 9.4-29.7 22.3-13.7-5.4-28.6-8.3-44.1-8.3-14 0-27.5 2.4-40.1 6.8-4.3-12.1-15.8-20.8-29.2-20.8-17.1 0-31 14-31 31.3 0 9.1 3.8 17.3 10 23-11.7 13-20.7 28.5-26.1 45.6-46 5.3-81.7 44.7-81.7 92.4 0 51.4 41.4 93 92.4 93 22.8 0 43.7-8.4 59.8-22.2l75.2.2 16.7-.1c16.1 13.8 37 22.1 59.7 22.1 50.9.2 92.3-41.5 92.3-92.9m-208.1-65.1c-8.6 0-12.7 10.8-6.2 16.5l10 8.9c3.5 3.2 8.9 3.2 12.4 0l10-8.9c6.5-5.8 2.4-16.5-6.2-16.5zm51.6-32.5c-7 0-12.8 7.8-12.8 17.4s5.7 17.4 12.8 17.4 12.8-7.8 12.8-17.4-5.7-17.4-12.8-17.4m-47.7 6c3.3 0 8.7-.1 12.1 0 1.7 0 3.2-1.2 3.6-3l15.3-60.4c-8-2.2-16.3-3.4-24.9-3.4s-16.9 1.1-24.9 3.4l15.2 60.4c.5 1.8 1.9 3.1 3.6 3" style="fill:#fff"/></svg>