<svg xmlns="http://www.w3.org/2000/svg" xml:space="preserve" viewBox="0 0 512 512"><path d="M256 0c141.4 0 256 114.6 256 256S397.4 512 256 512 0 397.4 0 256 114.6 0 256 0"/><path d="M371.8 212.3c-5.1-16.2-13.4-30.9-24.2-43.5 7.7-5.7 12.6-14.8 12.6-25.2 0-17.3-13.9-31.3-31-31.3-14 0-25.9 9.4-29.7 22.3-13.7-5.4-28.6-8.3-44.1-8.3-14 0-27.5 2.4-40.1 6.8-4.3-12.1-15.8-20.8-29.2-20.8-17.1 0-31 14-31 31.3 0 9.1 3.8 17.3 10 23-11.7 13-20.7 28.5-26.1 45.6-46 5.3-81.7 44.7-81.7 92.4 0 51.4 41.4 93 92.4 93 22.8 0 43.7-8.4 59.8-22.2l75.2.2 16.7-.1c16.1 13.8 37 22.1 59.7 22.1 51 0 92.4-41.7 92.4-93-.1-47.6-35.8-86.9-81.7-92.3m-116.5-66c8.6 0 16.9 1.1 24.9 3.4l-15.3 60.4c-.5 1.8-1.9 3.1-3.6 3-3.3-.1-8.7 0-12.1 0-1.7 0-3.2-1.2-3.7-3l-15.2-60.4c8.1-2.2 16.4-3.4 25-3.4m16.2 109.8-10 8.9c-3.5 3.2-8.9 3.2-12.4 0l-10-8.9c-6.5-5.8-2.4-16.5 6.2-16.5h20c8.7 0 12.7 10.7 6.2 16.5m-57.8-49c7 0 12.8 7.8 12.8 17.4s-5.7 17.4-12.8 17.4c-7 0-12.8-7.8-12.8-17.4s5.8-17.4 12.8-17.4m89.7 113.1c4.3 4.4 4.3 11.5-.1 15.8-2.2 2.2-5 3.2-7.8 3.2s-5.7-1.1-7.9-3.3c-5.9-6-9.9-14.3-11.6-23.8-7.3 1.6-14.8 2.4-22.3 2.4-6.4 0-12.8-.6-19.1-1.7-1.8 9.2-5.8 17.3-11.5 23.1-2.2 2.2-5 3.3-7.9 3.3s-5.6-1.1-7.8-3.2c-4.4-4.3-4.4-11.4-.1-15.8 3-3.1 6.3-9.7 6.3-19 0-7.9-2.6-15.5-6.5-19.3-4.4-4.3-4.6-11.3-.3-15.8 4.2-4.5 11.3-4.6 15.7-.3 6.1 5.9 10.4 14.5 12.2 24.2 13.2 3 27.1 2.9 40.3-.5l1.4-.3c2-9.4 6.2-17.6 12.1-23.3 4.4-4.3 11.4-4.1 15.7.3 4.2 4.5 4.1 11.5-.3 15.8-4 3.8-6.5 11.4-6.5 19.3-.3 9.2 2.9 15.8 6 18.9m-6.5-78.3c-7 0-12.8-7.8-12.8-17.4s5.7-17.4 12.8-17.4c7 0 12.8 7.8 12.8 17.4s-5.7 17.4-12.8 17.4" style="fill:#fff"/></svg>