<?xml version="1.0" encoding="utf-8"?>
<!-- Generator: Adobe Illustrator 28.2.0, SVG Export Plug-In . SVG Version: 6.00 Build 0)  -->
<svg version="1.1" id="Layer_1" xmlns="http://www.w3.org/2000/svg" xmlns:xlink="http://www.w3.org/1999/xlink" x="0px" y="0px"
	 viewBox="0 0 512 512" style="enable-background:new 0 0 512 512;" xml:space="preserve">
<style type="text/css">
	.st0{fill:#FFFFFF;}
</style>
<path class="st0" d="M256,0C51.1,0,0,51.2,0,256s51.2,256,256,256s256-51.2,256-256S460.8,0,256,0z M377.9,334.8
	c0,10.3-10.1,18.7-22.5,18.7H156.6c-12.4,0-22.5-8.4-22.5-18.7V228.7c0-5.3,2.6-10.2,7.3-13.8l99.4-75.9c9.1-6.5,21.3-6.5,30.3,0
	l99.4,75.9c4.6,3.5,7.3,8.6,7.3,13.8V334.8z"/>
</svg>
