<?xml version="1.0" encoding="utf-8"?>
<!-- Generator: Adobe Illustrator 28.2.0, SVG Export Plug-In . SVG Version: 6.00 Build 0)  -->
<svg version="1.1" id="Layer_1" xmlns="http://www.w3.org/2000/svg" xmlns:xlink="http://www.w3.org/1999/xlink" x="0px" y="0px"
	 viewBox="0 0 512 512" style="enable-background:new 0 0 512 512;" xml:space="preserve">
<style type="text/css">
	.st0{fill-rule:evenodd;clip-rule:evenodd;fill:url(#SVGID_1_);}
	.st1{fill:#FFFFFF;}
</style>
<linearGradient id="SVGID_1_" gradientUnits="userSpaceOnUse" x1="201.4867" y1="177.5454" x2="1225.516" y2="-846.4839" gradientTransform="matrix(0.4 0 0 -0.4 -29.4 122.2)">
	<stop  offset="0" style="stop-color:#2392DE"/>
	<stop  offset="1" style="stop-color:#3076BE"/>
</linearGradient>
<path class="st0" d="M249.6,0C50.1,1.1,0,53.3,0,256c0,204.8,51.2,256,256,256s256-51.2,256-256C512,53.3,461.9,1.1,262.4,0H249.6z"
	/>
<path class="st1" d="M359.7,310.1c0,19.6-19.2,36.7-47.8,39.3c-28.6,2.6-53.5-9.6-55.8-29.3c-2.3-19.6,19.2-38.1,47.8-41.4
	c8.6-1.1,17.3-0.6,25.7,1.6v-94.1l-126,42v117.8c-3.2,10.2-9.5,19.1-18.1,25.5c-8.5,6.3-18.7,9.8-29.3,9.8
	c-28.6,3.5-53.7-9.6-55.8-29.1s19.2-38.1,47.6-41.6c8.7-0.9,17.4-0.3,25.9,1.8V204c0-5.9,1.5-13.7,7.1-15.5
	c26.1-8.6,153.5-51.6,170.3-56.6c2.2-0.2,4.4,0.4,6.1,1.7c1.8,1.4,2.9,3.3,3.3,5.5L359.7,310.1z"/>
</svg>
