<svg xmlns="http://www.w3.org/2000/svg" xml:space="preserve" viewBox="0 0 512 512"><path d="M263.7 166.3c0 15.8 12.8 28.7 28.7 28.7h162.3c15.8 0 28.7-12.8 28.7-28.7v-32c0-15.8-12.8-28.7-28.7-28.7H292.2c-15.8 0-28.7 12.8-28.7 28.7v32zm-235.1 2.2c0 14.7 12 26.8 26.8 26.8h138.2c14.7 0 26.8-12 26.8-26.8v-35.8c0-14.7-12-26.8-26.8-26.8h-138c-14.7 0-26.8 12-26.8 26.8v35.8zm0 211.3c0 14.7 12 26.8 26.8 26.8h138.2c14.7 0 26.8-12 26.8-26.8V344c0-14.7-12-26.8-26.8-26.8h-138c-14.7 0-26.8 12-26.8 26.8v35.8zm0 105.3c0 14.7 12 26.8 26.8 26.8h138.2c14.7 0 26.8-12 26.8-26.8v-35.8c0-14.7-12-26.8-26.8-26.8h-138c-14.7 0-26.8 12-26.8 26.8v35.8zm224.2-104.7c0 14.1 11.5 25.7 25.7 25.7h125.1c14.1 0 25.7-11.5 25.7-25.7v-38.1c0-14.1-11.5-25.7-25.7-25.7H278.4c-14.1 0-25.7 11.5-25.7 25.7v38.1zm0 105.9c0 14.1 11.5 25.7 25.7 25.7h125.1c14.1 0 25.7-11.5 25.7-25.7v-38.1c0-14.1-11.5-25.7-25.7-25.7H278.4c-14.1 0-25.7 11.5-25.7 25.7v38.1z" style="opacity:.25"/><path d="M28.6 62.6c0 14.7 12 26.8 26.8 26.8h138.2c14.7 0 26.8-12 26.8-26.8V26.8c0-14.7-12-26.8-26.8-26.8H55.4C40.7 0 28.6 12 28.6 26.8zm0 109.4c0 12.9 10.4 23.4 23.4 23.4h99.1c12.9 0 23.4-10.4 23.4-23.4v-42.7c0-12.9-10.4-23.4-23.4-23.4H52c-12.9 0-23.4 10.4-23.4 23.4zm0 102.4c0 14.7 12 26.8 26.8 26.8h138.2c14.7 0 26.8-12 26.8-26.8v-35.8c0-14.7-12-26.8-26.8-26.8H55.4c-14.7 0-26.8 12-26.8 26.8zM252.7 62.6c0 14.7 12 26.8 26.8 26.8h138.2c14.7 0 26.8-12 26.8-26.8V26.8c0-14.7-12-26.8-26.8-26.8H279.4c-14.7 0-26.8 12-26.8 26.8zm54.1 107c0 14.1 11.5 25.7 25.7 25.7h125.1c14.1 0 25.7-11.5 25.7-25.7v-37.9c0-14.1-11.5-25.7-25.7-25.7H332.5c-14.1 0-25.7 11.5-25.7 25.7zm-54.3 106c0 14.1 11.5 25.7 25.7 25.7h125.1c14.1 0 25.7-11.5 25.7-25.7v-38.1c0-14.1-11.5-25.7-25.7-25.7H278.2c-14.1 0-25.7 11.5-25.7 25.7zM28.6 488.5c0 12.9 10.4 23.4 23.4 23.4h99.1c12.9 0 23.4-10.4 23.4-23.4v-42.7c0-12.9-10.4-23.4-23.4-23.4H52c-12.9 0-23.4 10.4-23.4 23.4zm0-105.9C28.6 395.5 39 406 52 406h99.1c12.9 0 23.4-10.4 23.4-23.4v-42.7c0-12.9-10.4-23.4-23.4-23.4H52c-12.9 0-23.4 10.4-23.4 23.4z"/></svg>