<svg xmlns="http://www.w3.org/2000/svg" xml:space="preserve" viewBox="0 0 512 512"><path d="M297.9 410.7c1 .9 1.1 2.4.2 3.4-2.2 2.6-3.5 5.6-3.5 8.8 0 1 .1 2.1.4 3.2.4 1.3-.4 2.6-1.7 2.9-1.3.4-2.6-.4-2.9-1.7q-.6-2.25-.6-4.5c0-4.4 1.8-8.6 4.7-11.9.9-1 2.4-1.1 3.4-.2m21.4-10.2h-1.1c-5.9 0-11.7 1.9-16.6 4.7-1.1.7-1.5 2.1-.9 3.3.7 1.1 2.1 1.5 3.3.9 4.3-2.5 9.3-4.1 14.2-4.1h.9c1.3.1 2.4-1 2.5-2.3 0-1.4-1-2.5-2.3-2.5m21.1 10.2c-3.5-3.7-7.8-6.7-12.7-8.5-1.2-.5-2.6.2-3.1 1.4s.2 2.6 1.4 3.1c4.1 1.5 7.8 4.1 10.9 7.4.9 1 2.4 1 3.4.1 1-1 1.1-2.5.1-3.5m12.8 19.3c-2-4-4.2-7.9-6.8-11.7-.7-1.1-2.2-1.4-3.3-.6-1.1.7-1.4 2.2-.6 3.3 2.4 3.5 4.5 7.3 6.5 11.2.6 1.2 2 1.6 3.2 1s1.6-2.1 1-3.2m4 7.8c-.2-1.3-1.4-2.2-2.7-2s-2.2 1.4-2 2.7c.8 5.2 3.2 10 7.1 13.7 1 .9 2.5.9 3.4-.1s.9-2.5-.1-3.4c-3.1-2.9-5-6.7-5.7-10.9m28.4-.5c-2.8 2.7-6.2 4.7-9.9 5.7-1.3.4-2 1.7-1.6 3s1.7 2 3 1.6c4.5-1.3 8.6-3.6 11.9-6.9.9-.9 1-2.4.1-3.4-1-.9-2.5-1-3.5 0m14-14q-3.9 4.35-7.8 8.4c-.9.9-.9 2.5 0 3.4s2.5.9 3.4 0c2.8-2.8 5.4-5.7 8-8.6.9-1 .8-2.5-.2-3.4s-2.5-.8-3.4.2m14.2-17.8c-1.2-.5-2.6.1-3.1 1.3-1.5 3.6-3.5 7-5.8 10.2-.8 1.1-.6 2.6.5 3.3 1.1.8 2.6.6 3.3-.5 2.5-3.4 4.8-7.2 6.4-11.2.5-1.2-.1-2.6-1.3-3.1m-3.5-20.8c-1.1.7-1.5 2.2-.8 3.3 1.9 3.1 2.9 6.6 2.9 10.1 0 .5 0 1.1-.1 1.6-.1 1.3.9 2.5 2.2 2.6s2.5-.9 2.6-2.2c.1-.7.1-1.3.1-2 0-4.5-1.3-8.8-3.7-12.7-.6-1-2-1.4-3.2-.7m-2.8-3.2c.9-1 .8-2.5-.2-3.4-5.4-4.7-11.7-7.9-17.6-11-1.2-.6-2.6-.1-3.2 1-.6 1.2-.1 2.6 1 3.2 6 3.1 11.9 6.2 16.7 10.4.9.9 2.4.8 3.3-.2m-24.3-15c.7-1.1.3-2.6-.8-3.3-5.4-3.2-10.2-7.1-13.5-12.2-.7-1.1-2.2-1.4-3.3-.7s-1.4 2.2-.7 3.3c3.9 5.9 9.3 10.2 15 13.7 1.2.7 2.6.3 3.3-.8m-16.8-22.3c-.4-1.8-.6-3.7-.6-5.6 0-3.6.8-7.2 2.4-10.5.6-1.2.1-2.6-1.1-3.2s-2.6-.1-3.2 1.1c-2 3.9-2.9 8.3-2.9 12.6 0 2.2.2 4.4.7 6.6.3 1.3 1.6 2.1 2.8 1.8 1.4-.2 2.2-1.5 1.9-2.8m-170.7 54.2c-1.3 0-2.4 1.1-2.4 2.4v1.9c0 18.9-4.4 33.6-10.9 45-4.9 8.6-11 15.4-17.4 20.8-9.6 8.1-20 13-27.9 15.8-4 1.4-7.3 2.3-9.7 2.9q-1.8.45-2.7.6c-.3.1-.5.1-.7.1h-.2c-1.3.2-2.2 1.4-2 2.7s1.4 2.2 2.7 2c.2 0 18.4-2.7 36.8-15.3 9.2-6.3 18.4-15.1 25.3-27.3s11.5-27.8 11.5-47.4v-1.9c.1-1.3-1-2.3-2.4-2.3m225.4-87.1c-.3-1.3-1.6-2.1-2.9-1.8l-1.2.3c-4.2.9-8.3 1.4-12.2 1.4-14.9 0-27.8-6.3-37-16.1s-14.7-23-14.7-36.6c0-11.8 4-23.8 13.3-34.5 2.5-2.9 4.8-5 6.5-6.4.8-.7 1.5-1.2 2-1.6.2-.2.4-.3.5-.4l.1-.1c1.1-.7 1.4-2.2.7-3.3s-2.2-1.4-3.3-.7c-.1.1-4.8 3.1-10.2 9.3-10.1 11.5-14.5 24.7-14.5 37.6 0 14.9 6 29.2 16 39.9 3 3.2 6.5 6.1 10.2 8.6-2.7 3.6-5 7.4-7.1 11.3-.6 1.2-.2 2.6 1 3.2s2.6.2 3.2-1c2-3.9 4.3-7.6 7-11.1 7.7 4.2 16.6 6.6 26.1 6.6 4.3 0 8.7-.5 13.3-1.5.4-.1.9-.2 1.3-.3 1.4-.2 2.2-1.5 1.9-2.8m-111.6 71.1-18.9-55.9h-107l-18.2 59.7 39.8 2.1c0 .3-.3 4.8-.3 5.1l-68.9.3c0-1.7.4-3.1.4-4.8l17.8-2.4c2.7-.3 3.4-2.7 4.1-4.5l74-228.7h22.6l78.9 233.5 23.6 1.4c0 .3-.3 4.8-.3 5.1l-68.6.3c0-1.7 0-3.1.4-4.8l17.8-2.4c2.8-.3 2.8-2.3 2.8-4m-21.3-62.8-53.5-159.8-49 159.8z" style="fill:#781d3a"/><path d="m384.8 504.2-1.3 1.4-136.8-37.2L129.2 512 44 267.3l59.6-19.9c1.3-.4 2.6.3 3 1.5.4 1.3-.3 2.6-1.5 3l-55 18.3 82 235.5 111.5-41.4-23.2-76.7c-.4-1.3.3-2.6 1.6-3s2.6.3 3 1.6l23.5 77.6 131.4 35.7-19.3-54.5c-.4-1.2.2-2.6 1.5-3 1.2-.4 2.6.2 3 1.5l19.2 54.2 78.1-83.7L363 194.2l-50.1 55.2c-.9 1-2.4 1.1-3.4.2s-1.1-2.4-.2-3.4l55-60.6L468 415l-82.7 88.7c-.1.2-.3.3-.5.5M110.5 5.2c-.3-2.1.4-3.4.4-5.2h71.3c52.5 0 83 13.7 83 66.2 0 58.3-30.5 80.6-83 80.6h-26.4v122.6l23.7 1.4c0 .3-.3 4.8-.3 5.1l-68.6.3c0-1.7 0-3.1.4-4.8l17.8-2.4c1.7-.3 3.1-1.7 3.8-3.1V10.6c-.7-1.4-2-3.1-3.8-3.4zm45.2 136.4h24.7c38.7 0 61.4-16.8 61.4-74.1 0-50.7-23.3-62.4-61.4-62.4h-24.7z" style="fill:#272626"/></svg>