<svg xmlns="http://www.w3.org/2000/svg" xml:space="preserve" viewBox="0 0 512 512"><path d="M256 0C51.2 0 0 51.2 0 256s51.2 256 256 256 256-51.2 256-256S460.8 0 256 0M139.5 371.9c-15 0-27.1-12.1-27.1-27.1s12.1-27.1 27.1-27.1 27.1 12.1 27.1 27.1-12.1 27.1-27.1 27.1m0-88.3c-15 0-27.1-12.1-27.1-27.1s12.1-27.1 27.1-27.1 27.1 12.1 27.1 27.1c.1 15-12.1 27.1-27.1 27.1m0-88.3c-15 0-27.1-12.1-27.1-27.1s12.1-27.1 27.1-27.1 27.1 12.1 27.1 27.1c.1 15-12.1 27.1-27.1 27.1m56.6-39.2c0-6.9 5.6-12.4 12.4-12.4h163.6c6.9 0 12.4 5.6 12.4 12.4l.1 24.2c0 6.9-5.6 12.4-12.5 12.4H208.6c-6.9 0-12.4-5.6-12.4-12.5v-24.1zM384.6 364c0 3-2.4 5.3-5.3 5.3H201.6c-2.9 0-5.3-2.4-5.3-5.3v-38.4c0-2.9 2.4-5.3 5.3-5.3h177.7c3 0 5.3 2.4 5.3 5.3zm0-88.3c0 2.9-2.4 5.3-5.3 5.3H201.6c-3 0-5.3-2.4-5.3-5.3v-38.4c0-3 2.4-5.3 5.3-5.3h177.7c3 0 5.3 2.4 5.3 5.3z" style="fill:#fff"/></svg>