<?xml version="1.0" encoding="utf-8"?>
<!-- Generator: Adobe Illustrator 28.2.0, SVG Export Plug-In . SVG Version: 6.00 Build 0)  -->
<svg version="1.1" id="Layer_1" xmlns="http://www.w3.org/2000/svg" xmlns:xlink="http://www.w3.org/1999/xlink" x="0px" y="0px"
	 viewBox="0 0 512 512" style="enable-background:new 0 0 512 512;" xml:space="preserve">
<style type="text/css">
	.st0{fill:#FFFFFF;}
</style>
<path class="st0" d="M256,0C51.3,0,0,51.2,0,256s51.2,256,256,256s256-51.2,256-256S460.7,0,256,0z M376,209.8
	c-0.4,0.4-0.8,0.9-1.3,1.3l-0.1,0L242.7,343c-11.6,11.6-30.5,11.6-42.2,0l-63.3-63.2c-11.6-11.7-11.6-30.5,0-42.2
	c11.7-11.6,30.5-11.6,42.2,0l42.2,42.2l110.9-110.8c11.3-12,30.2-12.6,42.1-1.3C386.7,178.9,387.3,197.8,376,209.8z"/>
</svg>
