<svg xmlns="http://www.w3.org/2000/svg" xml:space="preserve" viewBox="0 0 512 512"><linearGradient id="planning-center-people_svg__a" x1="840.502" x2="1864.498" y1="781.092" y2="1805.002" gradientTransform="matrix(.4 0 0 .4 -285 -261.2)" gradientUnits="userSpaceOnUse"><stop offset="0" style="stop-color:#32a0f0"/><stop offset="1" style="stop-color:#3f75e5"/></linearGradient><path d="M512 256c0 204.8-51.2 256-256 256S0 460.8 0 256 51.3 0 256 0s256 51.2 256 256" style="fill:url(#planning-center-people_svg__a)"/><path d="M260.8 198.2c0-28.7-23.3-51.9-52-51.9s-51.9 23.3-51.9 52 23.3 51.9 52 51.9c28.7-.1 51.9-23.3 51.9-52m-131 167.5h157.8v-47.3c0-26.1-21.2-47.3-47.3-47.3h-63.1c-26.1 0-47.4 21.2-47.4 47.3zm198.4-188.3c21.5 0 38.9 17.4 38.9 38.9s-17.4 38.9-38.9 38.9-38.9-17.4-38.9-38.9c0-21.4 17.5-38.8 38.9-38.9m-24.8 156.7h78.9v-34.7c0-15.7-12.7-28.4-28.4-28.4H316c-9.3.1-18 4.6-23.3 12.2.9 1.3 1.7 2.7 2.4 4.1.6.9 1.1 1.9 1.6 2.9.7 1.1 1.2 2.4 1.6 3.6 3.5 7.7 5.3 16.1 5.2 24.6v15.7z" style="fill-rule:evenodd;clip-rule:evenodd;fill:#fff"/></svg>