<svg xmlns="http://www.w3.org/2000/svg" xml:space="preserve" viewBox="0 0 512 512"><linearGradient id="planning-center-services_svg__a" x1="201.484" x2="1225.532" y1="177.516" y2="-846.532" gradientTransform="matrix(.4 0 0 -.4 -29.4 122.2)" gradientUnits="userSpaceOnUse"><stop offset="0" style="stop-color:#6bb23d"/><stop offset=".999" style="stop-color:#659630"/></linearGradient><path d="M256 0C51.2 0 0 51.2 0 256s51.2 256 256 256 256-51.2 256-256S460.8 0 256 0" style="fill:url(#planning-center-services_svg__a)"/><path d="M139.5 195.3c15 0 27.1-12.1 27.1-27.1s-12.1-27.1-27.1-27.1-27.1 12.1-27.1 27.1 12.2 27.1 27.1 27.1m0 88.3c15 0 27.1-12.1 27.1-27.1s-12.1-27.1-27.1-27.1-27.1 12.1-27.1 27.1 12.2 27.1 27.1 27.1m0 88.3c15 0 27.1-12.1 27.1-27.1s-12.1-27.1-27.1-27.1-27.1 12.1-27.1 27.1 12.2 27.1 27.1 27.1m245.1-191.6c0 6.9-5.6 12.4-12.5 12.4H208.6c-6.9 0-12.4-5.6-12.4-12.5v-24.1c0-6.9 5.6-12.4 12.4-12.4h163.6c6.9 0 12.4 5.6 12.4 12.4zm-188.4 57c0-3 2.4-5.3 5.3-5.3h177.7c3 0 5.3 2.4 5.3 5.3v38.4c0 2.9-2.4 5.3-5.3 5.3H201.6c-3 0-5.3-2.4-5.3-5.3zm0 88.3c0-2.9 2.4-5.3 5.3-5.3h177.7c3 0 5.3 2.4 5.3 5.3V364c0 3-2.4 5.3-5.3 5.3H201.6c-2.9 0-5.3-2.4-5.3-5.3z" style="fill:#fff"/></svg>