<svg xmlns="http://www.w3.org/2000/svg" xml:space="preserve" viewBox="0 0 512 512"><linearGradient id="planning-center-publishing_svg__a" x1="201.479" x2="1225.521" y1="177.479" y2="-846.479" gradientTransform="matrix(.4 0 0 -.4 -29.4 122.2)" gradientUnits="userSpaceOnUse"><stop offset="0" style="stop-color:#777782"/><stop offset="1" style="stop-color:#5e5e69"/></linearGradient><path d="M256 0C51.2 0 0 51.2 0 256s51.2 256 256 256 256-51.2 256-256S460.8 0 256 0" style="fill-rule:evenodd;clip-rule:evenodd;fill:url(#planning-center-publishing_svg__a)"/><path d="M193.9 363.6c0 6.7-5.2 12.2-11.7 12.2h-23.4c-6.5 0-11.7-5.5-11.7-12.2V180c0-6.7 5.3-12.2 11.7-12.2h23.4c6.5 0 11.7 5.5 11.7 12.2zm179.1 0c0 6.7-5.2 12.2-11.7 12.2H242.5c-6.5 0-11.7-5.5-11.7-12.2v-25c0-6.7 5.3-12.2 11.7-12.2h118.8c6.5 0 11.7 5.5 11.7 12.2zm0-89c0 6.7-5.2 12.2-11.7 12.2H242.5c-6.5 0-11.7-5.5-11.7-12.2V180c0-6.8 5.3-12.2 11.7-12.2h118.8c6.5 0 11.7 5.5 11.7 12.2z" style="fill-rule:evenodd;clip-rule:evenodd;fill:#fff"/></svg>