<svg xmlns="http://www.w3.org/2000/svg" xml:space="preserve" viewBox="0 0 512 512"><linearGradient id="planning-center-registrations_svg__a" x1="201.5" x2="1225.5" y1="177.505" y2="-846.495" gradientTransform="matrix(.4 0 0 -.4 -29.4 122.2)" gradientUnits="userSpaceOnUse"><stop offset="0" style="stop-color:#42b39c"/><stop offset="1" style="stop-color:#46938c"/></linearGradient><path d="M256 0C51.2 0 0 51.2 0 256s51.2 256 256 256 256-51.2 256-256S460.8 0 256 0" style="fill-rule:evenodd;clip-rule:evenodd;fill:url(#planning-center-registrations_svg__a)"/><path d="m397.6 209.9-18-18c-1.9-1.8-4.6-2-6.9-.7-14.9 8.7-33.8 6.2-46-5.9-12.2-12.2-14.6-31.1-5.9-46 1.3-2.3 1.2-5-.7-6.9l-17.9-17.9c-5-5-13.2-5-18.2 0l-92.9 93c-1.6 1.6-1.6 4.1 0 5.7L299 321.1c1.6 1.6 4.2 1.6 5.8 0l93-92.9c4.8-5.1 4.8-13.3-.2-18.3m-283.2 74c-5 5.1-5 13.2 0 18.3l17.9 17.9c1.9 1.8 4.7 2 6.9.6 14.9-8.9 34-6.5 46.3 5.8 12.6 12.6 14.4 31.7 5.8 46.3-1.3 2.2-1.2 5 .6 6.9l18 18c5.1 5 13.2 5 18.3 0l50.9-51c1.6-1.6 1.6-4.2 0-5.8L171.2 233c-1.6-1.6-4.2-1.6-5.8 0z" style="fill-rule:evenodd;clip-rule:evenodd;fill:#fff"/></svg>