<?xml version="1.0" encoding="utf-8"?>
<!-- Generator: Adobe Illustrator 28.2.0, SVG Export Plug-In . SVG Version: 6.00 Build 0)  -->
<svg version="1.1" id="Layer_1" xmlns="http://www.w3.org/2000/svg" xmlns:xlink="http://www.w3.org/1999/xlink" x="0px" y="0px"
	 viewBox="0 0 512 512" style="enable-background:new 0 0 512 512;" xml:space="preserve">
<style type="text/css">
	.st0{fill:url(#SVGID_1_);}
	.st1{fill-rule:evenodd;clip-rule:evenodd;fill:#FFFFFF;}
</style>
<g>
	
		<linearGradient id="SVGID_1_" gradientUnits="userSpaceOnUse" x1="201.4987" y1="177.4187" x2="1225.5013" y2="-846.4987" gradientTransform="matrix(0.4 0 0 -0.4 -29.4 122.2)">
		<stop  offset="0" style="stop-color:#32A0F0"/>
		<stop  offset="1" style="stop-color:#3F75E5"/>
	</linearGradient>
	<path class="st0" d="M512,256c0,204.8-51.2,256-256,256S0,460.8,0,256S51.3,0,256,0S512,51.2,512,256"/>
	<path class="st1" d="M260.8,198.2c0-28.7-23.3-51.9-52-51.9s-51.9,23.3-51.9,52l0,0c0,28.7,23.3,51.9,52,51.9
		C237.6,250.1,260.8,226.9,260.8,198.2L260.8,198.2 M129.8,365.7h157.8v-47.3c0-26.1-21.2-47.3-47.3-47.3c0,0,0,0,0,0h-63.1
		c-26.1,0-47.4,21.2-47.4,47.3c0,0,0,0,0,0L129.8,365.7z M328.2,177.4c21.5,0,38.9,17.4,38.9,38.9c0,21.5-17.4,38.9-38.9,38.9
		c-21.5,0-38.9-17.4-38.9-38.9C289.3,194.9,306.8,177.5,328.2,177.4 M303.4,334.1h78.9v-34.7c0-15.7-12.7-28.4-28.4-28.4H316
		c-9.3,0.1-18,4.6-23.3,12.2c0.9,1.3,1.7,2.7,2.4,4.1c0.6,0.9,1.1,1.9,1.6,2.9c0.7,1.1,1.2,2.4,1.6,3.6c3.5,7.7,5.3,16.1,5.2,24.6
		V334.1z"/>
</g>
</svg>
