<?xml version="1.0" encoding="utf-8"?>
<!-- Generator: Adobe Illustrator 28.2.0, SVG Export Plug-In . SVG Version: 6.00 Build 0)  -->
<svg version="1.1" id="Layer_1" xmlns="http://www.w3.org/2000/svg" xmlns:xlink="http://www.w3.org/1999/xlink" x="0px" y="0px"
	 viewBox="0 0 512 512" style="enable-background:new 0 0 512 512;" xml:space="preserve">
<style type="text/css">
	.st0{fill:url(#SVGID_1_);}
	.st1{fill:#FFFFFF;}
</style>
<linearGradient id="SVGID_1_" gradientUnits="userSpaceOnUse" x1="73.5" y1="-334.5" x2="1353.5" y2="-334.5" gradientTransform="matrix(0.4 0 0 -0.4 -29.4 122.2)">
	<stop  offset="0" style="stop-color:#F5C426"/>
	<stop  offset="1" style="stop-color:#F2B327"/>
</linearGradient>
<path class="st0" d="M512,256c0,204.8-51.2,256-256,256S0,460.8,0,256S51.3,0,256,0S512,51.2,512,256"/>
<path class="st1" d="M263.6,353c-4.5,3.3-10.7,3.3-15.2,0C216,330.2,94.5,237.4,164.3,177.4c24.8-19.9,60.6-17.7,82.7,5.2l9,9l9-9
	c22-22.9,57.9-25.2,82.7-5.2C417.5,237.4,296,330.2,263.6,353"/>
</svg>
