<?xml version="1.0" encoding="utf-8"?>
<!-- Generator: Adobe Illustrator 28.2.0, SVG Export Plug-In . SVG Version: 6.00 Build 0)  -->
<svg version="1.1" id="Layer_1" xmlns="http://www.w3.org/2000/svg" xmlns:xlink="http://www.w3.org/1999/xlink" x="0px" y="0px"
	 viewBox="0 0 512 512" style="enable-background:new 0 0 512 512;" xml:space="preserve">
<path d="M289.9,196.7h-67.8c-4.9,11.5-14.1,20.7-25.6,25.6V290c11.5,4.9,20.7,14.1,25.6,25.6h67.7c4.9-11.5,14.1-20.7,25.6-25.6
	v-67.8C303.9,217.3,294.8,208.1,289.9,196.7z M256,0C51.2,0,0,51.2,0,256s51.2,256,256,256s256-51.2,256-256S460.8,0,256,0z
	 M381,324.4c5.3,26-11.4,51.4-37.4,56.7l0,0c-22.4,4.5-44.9-7.3-53.8-28.3h-67.7c-4.9,11.4-13.9,20.5-25.3,25.3
	c-24.4,10.4-52.6-0.9-63-25.3s0.9-52.6,25.3-63v-67.7c-11.4-4.9-20.5-13.9-25.3-25.3c-10.4-24.4,0.9-52.6,25.3-63s52.6,0.9,63,25.3
	h67.8c4.9-11.5,14.1-20.7,25.6-25.5c24.4-10.3,52.6,1.2,62.9,25.6s-1.2,52.6-25.6,62.9v67.7C367.3,296,377.8,309,381,324.4z"/>
</svg>
