<?xml version="1.0" encoding="utf-8"?>
<!-- Generator: Adobe Illustrator 28.2.0, SVG Export Plug-In . SVG Version: 6.00 Build 0)  -->
<svg version="1.1" id="Layer_1" xmlns="http://www.w3.org/2000/svg" xmlns:xlink="http://www.w3.org/1999/xlink" x="0px" y="0px"
	 viewBox="0 0 512 512" style="enable-background:new 0 0 512 512;" xml:space="preserve">
<style type="text/css">
	.st0{fill-rule:evenodd;clip-rule:evenodd;fill:#FFFFFF;}
</style>
<g>
	<path class="st0" d="M256,0L256,0C51.2,0,0,51.2,0,256s51.2,256,256,256s256-51.2,256-256S460.8,0,256,0z M378.2,360.6
		c0,8.3-6.7,15-15,15H148.7c-8.3,0-15-6.7-15-15V178.7c0-8.3,6.7-15,15-15h23.2v-17.9c0,0,0,0,0,0c0-7.8,6.3-14.2,14.2-14.2h6.8
		c0,0,0,0,0,0c7.8,0,14.2,6.4,14.1,14.2v17.9h97.9v-17.9c0,0,0,0,0,0c0-7.8,6.3-14.2,14.2-14.2h6.8c0,0,0,0,0.1,0
		c7.8,0,14.2,6.4,14.1,14.2v17.9h23.2c8.3,0,15,6.7,15,15V360.6z"/>
	<rect x="171.9" y="230.1" class="st0" width="168.1" height="106"/>
</g>
</svg>
