<?xml version="1.0" encoding="utf-8"?>
<!-- Generator: Adobe Illustrator 28.2.0, SVG Export Plug-In . SVG Version: 6.00 Build 0)  -->
<svg version="1.1" id="Layer_1" xmlns="http://www.w3.org/2000/svg" xmlns:xlink="http://www.w3.org/1999/xlink" x="0px" y="0px"
	 viewBox="0 0 512 512" style="enable-background:new 0 0 512 512;" xml:space="preserve">
<style type="text/css">
	.st0{fill-rule:evenodd;clip-rule:evenodd;}
</style>
<path class="st0" d="M256,0C51.2,0,0,51.2,0,256s51.2,256,256,256s256-51.2,256-256S460.8,0,256,0z M193.9,363.6
	c0,6.7-5.2,12.2-11.7,12.2h-23.4c-6.5,0-11.7-5.5-11.7-12.2V180c0-6.7,5.3-12.2,11.7-12.2h23.4c6.5,0,11.7,5.5,11.7,12.2
	L193.9,363.6z M373,363.6c0,6.7-5.2,12.2-11.7,12.2H242.5c-6.5,0-11.7-5.5-11.7-12.2v-25c0-6.7,5.3-12.2,11.7-12.2h118.8
	c6.5,0,11.7,5.5,11.7,12.2V363.6z M373,274.6c0,6.7-5.2,12.2-11.7,12.2H242.5c-6.5,0-11.7-5.5-11.7-12.2V180
	c0-6.8,5.3-12.2,11.7-12.2h118.8c6.5,0,11.7,5.5,11.7,12.2V274.6z"/>
</svg>
