<?xml version="1.0" encoding="utf-8"?>
<!-- Generator: Adobe Illustrator 28.2.0, SVG Export Plug-In . SVG Version: 6.00 Build 0)  -->
<svg version="1.1" id="Layer_1" xmlns="http://www.w3.org/2000/svg" xmlns:xlink="http://www.w3.org/1999/xlink" x="0px" y="0px"
	 viewBox="0 0 512 512" style="enable-background:new 0 0 512 512;" xml:space="preserve">
<style type="text/css">
	.st0{fill:url(#SVGID_1_);}
	.st1{fill:#FFFFFF;}
</style>
<linearGradient id="SVGID_1_" gradientUnits="userSpaceOnUse" x1="179.7416" y1="199.1976" x2="1278.3657" y2="-899.3837" gradientTransform="matrix(0.4 0 0 -0.4 -29.4 122.2)">
	<stop  offset="0" style="stop-color:#A76EBE"/>
	<stop  offset="1" style="stop-color:#875E96"/>
</linearGradient>
<path class="st0" d="M512,256c0,204.8-51.2,256-256,256S0,460.8,0,256S51.3,0,256,0S512,51.2,512,256"/>
<path class="st1" d="M374.6,211.1L242.7,343c-11.6,11.6-30.5,11.6-42.2,0l-63.3-63.2c-11.6-11.7-11.6-30.5,0-42.2
	c11.7-11.6,30.5-11.6,42.2,0l42.2,42.2l110.9-110.8c11.3-12,30.2-12.6,42.1-1.3c12,11.3,12.6,30.2,1.3,42.1
	C375.6,210.2,375.1,210.7,374.6,211.1L374.6,211.1z"/>
</svg>
