<svg xmlns="http://www.w3.org/2000/svg" xml:space="preserve" viewBox="0 0 512 512"><path d="M262.4 0h-12.8C50.1 1.1 0 53.3 0 256c0 204.8 51.2 256 256 256s256-51.2 256-256C512 53.3 461.9 1.1 262.4 0m97.3 310.1c0 19.6-19.2 36.7-47.8 39.3s-53.5-9.6-55.8-29.3c-2.3-19.6 19.2-38.1 47.8-41.4 8.6-1.1 17.3-.6 25.7 1.6v-94.1l-126 42V346c-3.2 10.2-9.5 19.1-18.1 25.5-8.5 6.3-18.7 9.8-29.3 9.8-28.6 3.5-53.7-9.6-55.8-29.1-2.1-19.4 19.2-38.1 47.6-41.6 8.7-.9 17.4-.3 25.9 1.8V204c0-5.9 1.5-13.7 7.1-15.5 26.1-8.6 153.5-51.6 170.3-56.6 2.2-.2 4.4.4 6.1 1.7 1.8 1.4 2.9 3.3 3.3 5.5z" style="fill-rule:evenodd;clip-rule:evenodd;fill:#fff"/></svg>