<svg xmlns="http://www.w3.org/2000/svg" xml:space="preserve" viewBox="0 0 512 512"><linearGradient id="planning-center-music-stand_svg__a" x1="201.487" x2="1225.516" y1="177.545" y2="-846.484" gradientTransform="matrix(.4 0 0 -.4 -29.4 122.2)" gradientUnits="userSpaceOnUse"><stop offset="0" style="stop-color:#2392de"/><stop offset="1" style="stop-color:#3076be"/></linearGradient><path d="M249.6 0C50.1 1.1 0 53.3 0 256c0 204.8 51.2 256 256 256s256-51.2 256-256C512 53.3 461.9 1.1 262.4 0z" style="fill-rule:evenodd;clip-rule:evenodd;fill:url(#planning-center-music-stand_svg__a)"/><path d="M359.7 310.1c0 19.6-19.2 36.7-47.8 39.3s-53.5-9.6-55.8-29.3c-2.3-19.6 19.2-38.1 47.8-41.4 8.6-1.1 17.3-.6 25.7 1.6v-94.1l-126 42V346c-3.2 10.2-9.5 19.1-18.1 25.5-8.5 6.3-18.7 9.8-29.3 9.8-28.6 3.5-53.7-9.6-55.8-29.1s19.2-38.1 47.6-41.6c8.7-.9 17.4-.3 25.9 1.8V204c0-5.9 1.5-13.7 7.1-15.5 26.1-8.6 153.5-51.6 170.3-56.6 2.2-.2 4.4.4 6.1 1.7 1.8 1.4 2.9 3.3 3.3 5.5z" style="fill:#fff"/></svg>