<?xml version="1.0" encoding="utf-8"?>
<!-- Generator: Adobe Illustrator 28.2.0, SVG Export Plug-In . SVG Version: 6.00 Build 0)  -->
<svg version="1.1" id="Layer_1" xmlns="http://www.w3.org/2000/svg" xmlns:xlink="http://www.w3.org/1999/xlink" x="0px" y="0px"
	 viewBox="0 0 512 512" style="enable-background:new 0 0 512 512;" xml:space="preserve">
<style type="text/css">
	.st0{fill:#2565F4;}
	.st1{fill:#FFFFFF;}
</style>
<path class="st0" d="M451.8,50.8c35.8,9.4,58.4,43.3,58.4,79.1v250.4c0,35.8-24.5,67.8-58.4,79.1l-154.4,47.1
	c-26.4,7.5-56.5,7.5-82.8,0L60.2,461.2c-33.8-11.3-58.3-45.2-58.3-81V129.9c0-35.8,24.5-67.8,58.4-79.1L214.6,5.6
	c26.4-7.5,56.5-7.5,82.8,0C297.4,5.6,451.8,50.8,451.8,50.8z"/>
<path class="st1" d="M350.1,144.9l-90.4,26.4c-3.8,0-5.6,1.9-9.4,0L160,144.9c-18.8-5.6-35.8,7.5-35.8,26.4v203.3
	c0,3.8,1.9,7.5,5.6,7.5l33.9,9.4c5.6,1.9,9.4-1.9,9.4-7.5v-47.1c0,0,0-1.9,1.9-1.9l67.8,20.7c9.4,1.9,18.8,1.9,26.4,0l101.6-32
	c11.3-1.9,16.9-9.4,16.9-18.8V173.2C387.8,154.4,368.9,139.3,350.1,144.9z M338.8,280.5c0,1.9-1.9,3.8-3.8,3.8l-73.4,22.6
	c-3.8,1.9-7.5,1.9-11.3,0l-71.5-20.7c-1.9,0-3.8-1.9-3.8-3.8v-75.3c0-1.9,1.9-3.8,5.6-3.8l58.4,16.9c11.3,3.8,24.5,3.8,35.8,0
	l58.4-16.9c1.9,0,5.6,1.9,5.6,3.8C338.8,207.1,338.8,280.5,338.8,280.5z"/>
</svg>
