<svg xmlns="http://www.w3.org/2000/svg" xml:space="preserve" viewBox="0 0 512 512"><path d="M437 75C388.7 26.6 324.4 0 256 0S123.3 26.6 75 75C26.6 123.3 0 187.6 0 256s26.6 132.7 75 181c48.4 48.4 112.6 75 181 75s132.7-26.6 181-75c48.4-48.4 75-112.6 75-181s-26.6-132.7-75-181M256 503.8C119.4 503.8 8.2 392.6 8.2 256S119.4 8.2 256 8.2 503.8 119.4 503.8 256 392.6 503.8 256 503.8m40-431.2L253.6 115l-34.1-34.1v68.2L112.6 256l106.9 106.9v68.2l34.1-34.1 42.5 42.5v-84.9l98.5-98.5-98.6-98.6zm-33.4 51.5 20.5-20.5v41zm0 263.8 20.5-20.5v41zm-43.2-220.6v177.4L130.7 256z" style="fill:#fff"/></svg>