<?xml version="1.0" encoding="utf-8"?>
<!-- Generator: Adobe Illustrator 28.2.0, SVG Export Plug-In . SVG Version: 6.00 Build 0)  -->
<svg version="1.1" id="svg2" xmlns="http://www.w3.org/2000/svg" xmlns:xlink="http://www.w3.org/1999/xlink" x="0px" y="0px"
	 viewBox="0 0 512 512" style="enable-background:new 0 0 512 512;" xml:space="preserve">
<style type="text/css">
	.st0{fill:#111111;}
	.st1{fill:#E5B123;}
	.st2{fill:#666666;}
</style>
<path class="st0" d="M448.8,512H63.2C28.3,512,0,483.7,0,448.8V63.2C0,28.3,28.3,0,63.2,0h385.5c35,0,63.3,28.3,63.3,63.2v385.5
	C512,483.7,483.7,512,448.8,512z"/>
<path id="path14001" class="st1" d="M66.9,277.4c22.7,0,45.5,0,68.2,0c15.9,23.5,31.7,47,47.6,70.5
	c43.3-63.2,86.5-126.3,129.8-189.5c22.4,32.7,44.8,65.3,67.2,98c21.8,0,43.6,0,65.4,0c0-7,0-14,0-21.1c-19-0.1-38.1-0.2-57.1-0.3
	c-25.4-38-50.7-76.1-76.1-114.1c-43.1,64.7-86.2,129.4-129.4,194.1c-12.4-19.5-24.8-38.9-37.1-58.4c-26.2,0-52.4-0.1-78.6-0.1
	C66.9,263.5,66.9,270.5,66.9,277.4z"/>
<path class="st2" d="M235.3,215.3c-24.1-35.2-48.3-70.3-72.4-105.5c34.5,0.2,69,0.5,103.5,0.7c6.6,9.5,13.2,19,19.8,28.5
	C269.2,164.5,252.2,189.9,235.3,215.3z M312.4,179.4c17.4,25.4,34.8,50.7,52.1,76.1c-33.3,48.9-66.6,97.8-99.9,146.7
	c-34.7,0-69.5-0.1-104.2-0.1C211.1,327.9,261.8,253.6,312.4,179.4z"/>
</svg>
