<?xml version="1.0" encoding="utf-8"?>
<!-- Generator: Adobe Illustrator 28.2.0, SVG Export Plug-In . SVG Version: 6.00 Build 0)  -->
<svg version="1.1" id="Layer_1" xmlns="http://www.w3.org/2000/svg" xmlns:xlink="http://www.w3.org/1999/xlink" x="0px" y="0px"
	 viewBox="0 0 512 512" style="enable-background:new 0 0 512 512;" xml:space="preserve">
<style type="text/css">
	.st0{fill:#111111;}
	.st1{fill:url(#SVGID_1_);}
</style>
<path class="st0" d="M448.8,512H63.2C28.3,512,0,483.7,0,448.8V63.2C0,28.3,28.3,0,63.2,0h385.5C483.7,0,512,28.3,512,63.2v385.5
	C512,483.7,483.7,512,448.8,512z"/>
<linearGradient id="SVGID_1_" gradientUnits="userSpaceOnUse" x1="61.8268" y1="256" x2="447.1935" y2="256">
	<stop  offset="0" style="stop-color:#C57F27"/>
	<stop  offset="0.4742" style="stop-color:#D5A02C"/>
	<stop  offset="1" style="stop-color:#EACA32"/>
</linearGradient>
<polygon class="st1" points="305.9,407.4 256,407.4 363.2,256 265.7,118.4 248.6,118.4 347,256 237.7,407.4 185.4,407.4 296.9,256 
	196.6,118.4 178.9,118.4 276,256 61.8,256 61.8,242.2 249.5,242.2 152.3,104.6 203.6,104.6 314,256 212.7,393.6 230.7,393.6 
	330.1,256 221.8,104.6 272.9,104.6 380,256 282.6,393.6 298.8,393.6 397.7,256 447.2,256 447.2,269.8 404.7,269.8 "/>
</svg>
