<svg xmlns="http://www.w3.org/2000/svg" xml:space="preserve" viewBox="0 0 512 512"><linearGradient id="plex-rewind_svg__a" x1="-448.996" x2="-437.669" y1="-205.997" y2="-194.67" gradientTransform="matrix(11.25 0 0 22.5 5192.5 4678.5)" gradientUnits="userSpaceOnUse"><stop offset="0" style="stop-color:#d4d4d4"/><stop offset="1" style="stop-color:#404040"/></linearGradient><path d="M120.1 256 290 425.9V86.1z" style="fill:url(#plex-rewind_svg__a)"/><linearGradient id="plex-rewind_svg__b" x1="-444.508" x2="-433.181" y1="-202.219" y2="-190.892" gradientTransform="matrix(11.25 0 0 22.5 5201.5 4678.5)" gradientUnits="userSpaceOnUse"><stop offset="0" style="stop-color:#404040"/><stop offset="1" style="stop-color:#d4d4d4"/></linearGradient><path d="M391.9 256 222 425.9V86.1z" style="fill:url(#plex-rewind_svg__b)"/><linearGradient id="plex-rewind_svg__c" x1="-482.713" x2="-479.578" y1="-205.906" y2="-202.77" gradientTransform="translate(16477 7134.751)scale(33.75)" gradientUnits="userSpaceOnUse"><stop offset="0" style="stop-color:#d4d4d4"/><stop offset="1" style="stop-color:#404040"/></linearGradient><path d="M256 512c-68.4 0-132.7-26.6-181-75S0 324.4 0 256 26.6 123.3 75 75 187.6 0 256 0s132.7 26.6 181 75 75 112.6 75 181-26.6 132.7-75 181-112.6 75-181 75m0-509.7C116.1 2.3 2.3 116.1 2.3 256S116.1 509.7 256 509.7 509.7 395.9 509.7 256 395.9 2.3 256 2.3" style="fill:url(#plex-rewind_svg__c)"/></svg>