<svg xmlns="http://www.w3.org/2000/svg" xml:space="preserve" viewBox="0 0 512 512"><path d="M448.8 0H63.2C28.3 0 0 28.3 0 63.2v385.5c0 35 28.3 63.3 63.2 63.3h385.5c34.9 0 63.2-28.3 63.2-63.2V63.2C512 28.3 483.7 0 448.8 0M266.4 110.5l19.8 28.5c-17 25.4-33.9 50.8-50.9 76.2-24.1-35.2-48.3-70.3-72.4-105.5 34.5.3 69 .6 103.5.8m-1.7 291.7c-34.7 0-69.5-.1-104.2-.1 50.6-74.2 101.3-148.5 151.9-222.7 17.4 25.4 34.8 50.7 52.1 76.1-33.2 48.9-66.5 97.8-99.8 146.7m180.4-145.8h-65.4c-22.4-32.7-44.8-65.3-67.2-98-43.3 63.2-86.5 126.3-129.8 189.5-15.9-23.5-31.7-47-47.6-70.5H66.9v-20.9c26.2 0 52.4.1 78.6.1 12.4 19.5 24.8 38.9 37.1 58.4 43.1-64.7 86.2-129.4 129.4-194.1 25.4 38 50.7 76.1 76.1 114.1l57.1.3c-.1 7.1-.1 14.1-.1 21.1"/></svg>