<svg xmlns="http://www.w3.org/2000/svg" xml:space="preserve" viewBox="0 0 512 512"><path d="M456.4 205.7 113.7 7.9C75-14.5 26.6 13.4 26.6 58.1v395.7c0 44.7 48.4 72.6 87.1 50.3l342.7-197.9c38.7-22.3 38.7-78.1 0-100.5M353.8 313.5c-24.5 22.6-49.6 33.9-74.8 33.9s-50.3-11.3-74.8-33.9c-18.4-17-36.6-25.7-53.9-25.7s-35.5 8.6-53.9 25.7c-6.2 5.8-16 5.4-21.7-.9-5.8-6.2-5.4-15.9.9-21.7 48.9-45.2 100.6-45.2 149.5 0 18.4 17 36.6 25.7 53.9 25.7s35.5-8.6 53.9-25.7c6.2-5.8 16-5.4 21.7.8 5.8 6.3 5.4 16-.8 21.8m0-93.2c-24.5 22.6-49.6 33.9-74.8 33.9s-50.3-11.3-74.8-33.9c-18.4-17-36.6-25.7-53.9-25.7s-35.5 8.6-53.9 25.7c-6.2 5.8-16 5.4-21.7-.8-5.8-6.2-5.4-16 .9-21.7 48.9-45.2 100.6-45.2 149.5 0 18.4 17 36.6 25.7 53.9 25.7s35.5-8.6 53.9-25.7c6.2-5.8 16-5.4 21.7.9 5.8 6.1 5.4 15.8-.8 21.6" style="fill:#fff"/></svg>