<?xml version="1.0" encoding="utf-8"?>
<!-- Generator: Adobe Illustrator 28.2.0, SVG Export Plug-In . SVG Version: 6.00 Build 0)  -->
<svg version="1.1" id="Layer_1" xmlns:serif="http://www.serif.com/"
	 xmlns="http://www.w3.org/2000/svg" xmlns:xlink="http://www.w3.org/1999/xlink" x="0px" y="0px" viewBox="0 0 512 512"
	 style="enable-background:new 0 0 512 512;" xml:space="preserve">
<style type="text/css">
	.st0{fill-rule:evenodd;clip-rule:evenodd;fill:#C2D2F2;}
	.st1{fill-rule:evenodd;clip-rule:evenodd;fill:#021F59;}
	.st2{fill-rule:evenodd;clip-rule:evenodd;fill:#FFFFFF;}
</style>
<path class="st0" d="M201.4,228.9c-0.1,1.4-0.1,2.8-0.1,4.2c0,5.8,0.9,11.5,2.6,16.8h103.7c1.7-5.3,2.6-10.9,2.6-16.8
	c0-1.4-0.1-2.8-0.2-4.2h197.5V50c0-27.6-22.5-50-50.3-50H54.6C26.8,0,4.3,22.4,4.3,50v179H201.4z"/>
<path class="st0" d="M337.5,266.4c-11.3,34.3-43.6,59.1-81.7,59.1c-38.1,0-70.4-24.8-81.7-59.1H89.4v189.7h22.9h298.5h9.4V266.4
	H337.5z"/>
<path class="st1" d="M399.9,375.2c-1.5-0.1-3-0.2-4.5-0.2c-5.1,0-10.1,0.7-14.8,2l-58.5-82.9c-8.3,10-18.8,18.1-30.7,23.6l57.6,81.7
	c-6.2,9-9.8,20-9.8,31.8c0,4,0.4,7.9,1.2,11.7h-171c0.8-3.8,1.2-7.7,1.2-11.7c0-11.4-3.4-22-9.3-30.9l58.4-82.7
	c-11.9-5.5-22.4-13.7-30.6-23.7l-58.9,83.4c-5-1.5-10.3-2.3-15.8-2.3c-1.5,0-3,0.1-4.4,0.2V266.4H4.3v192.7
	c0,29.2,22.6,52.9,50.3,52.9h402.7c27.8,0,50.3-23.7,50.3-52.9V266.4H399.9V375.2z"/>
<path class="st1" d="M201.4,228.9C201.4,228.9,201.4,228.9,201.4,228.9L201.4,228.9c0,0.1,0,0.3,0,0.4c-0.1,1.3-0.1,2.5-0.1,3.8
	c0,26.2,18.5,48.1,43.2,53.3c0.1,0,0.3,0.1,0.4,0.1c0.7,0.1,1.3,0.2,2,0.4c0.3,0.1,0.7,0.1,1,0.2c0.6,0.1,1.3,0.2,1.9,0.2
	c0.4,0,0.8,0.1,1.2,0.1c0.6,0.1,1.2,0.1,1.9,0.1c0.4,0,0.8,0,1.3,0c0.6,0,1.1,0,1.7,0c0.6,0,1.1,0,1.7,0c0.4,0,0.9,0,1.3,0
	c0.5,0,1.1-0.1,1.6-0.1c0.5,0,1-0.1,1.6-0.1c0.5-0.1,0.9-0.1,1.4-0.2c0.6-0.1,1.2-0.2,1.8-0.3c0.4-0.1,0.8-0.1,1.1-0.2
	c0.8-0.1,1.5-0.3,2.3-0.5c13.3-3.2,24.8-11.3,32.3-22.3l0,0c6-8.7,9.5-19.3,9.5-30.7c0-1.4-0.1-2.8-0.2-4.2h0c0,0,0,0,0,0h110.1
	v-88.7l-90.1-98H89.4v186.7H201.4z"/>
<circle class="st0" cx="255.9" cy="233.2" r="25"/>
<circle class="st0" cx="395.4" cy="431.2" r="25"/>
<circle class="st0" cx="114.5" cy="431.2" r="25"/>
<path class="st2" d="M174.1,266.4H4.3v-37.5h197.2c-0.1,1.4-0.1,2.8-0.1,4.2c0,30.1,24.4,54.5,54.5,54.5c30.1,0,54.5-24.4,54.5-54.5
	c0-1.4-0.1-2.8-0.2-4.2h197.6v37.5H337.5c-11.3,34.3-43.6,59.1-81.7,59.1C217.7,325.5,185.4,300.7,174.1,266.4z"/>
</svg>
