<?xml version="1.0" encoding="utf-8"?>
<!-- Generator: Adobe Illustrator 28.2.0, SVG Export Plug-In . SVG Version: 6.00 Build 0)  -->
<svg version="1.1" id="a" xmlns="http://www.w3.org/2000/svg" xmlns:xlink="http://www.w3.org/1999/xlink" x="0px" y="0px"
	 viewBox="0 0 512 512" style="enable-background:new 0 0 512 512;" xml:space="preserve">
<path d="M256,0C114.6,0,0,114.6,0,256s114.6,256,256,256s256-114.6,256-256S397.4,0,256,0z M362.4,288.7
	c-14.8,19.9-35,34.3-58.4,41.7l-6.5,2L282,256.2l4.3-2c14-6.7,23-21.1,23-36.6c0-22.4-18.2-40.6-40.6-40.6S228,195.2,228,217.6
	c0,15.5,9,29.8,23,36.6l4.2,2l-25,153.4h-69.5V102.4h107.9c64.4,0,116.8,52.4,116.8,116.7C385.4,244.4,377.4,268.5,362.4,288.7z"/>
</svg>
