<svg xmlns="http://www.w3.org/2000/svg" xml:space="preserve" viewBox="0 0 512 512"><path d="M402.2 218.3 280.1 333.1c-6.1 6.4-14.5 10-23.4 9.9-9.4.2-18.4-3.3-25.1-9.9L111.3 218.3c-13.5-14.1-13.5-36.2 0-50.3 13.4-12.6 35.9-14.4 49.4 0l96 92.5 97.9-92.5c12.6-14.4 35-12.6 47.9 0 12.6 14.4 12.6 35.9 0 50.3M464.1 28H49.4C22.7 27.4.6 48.5 0 75.2v153.9c0 139.1 114.8 255 256.8 255 140.7-.4 254.7-114.3 255.2-255V75.5c.1-26.1-20.9-47.4-47.1-47.6-.2 0-.5 0-.8.1" style="fill-rule:evenodd;clip-rule:evenodd"/></svg>