<svg xmlns="http://www.w3.org/2000/svg" xml:space="preserve" viewBox="0 0 512 512"><path d="M253.1 484.6h-54.4l.4-2.3c.2-1.3 2.1-15.5 4.2-31.6s4.8-36.8 6-45.9c1.9-14.5 14.2-107.6 18.5-139.7l1.5-11.5h54.4l-.5 3.4c-.3 1.8-2.4 17.8-4.7 35.5s-5.3 40.7-6.7 51.2c-8.1 61.4-14.1 107.3-15.9 121.5-1.1 8.9-2.3 17-2.5 17.8zm74.4-266.5c-1 1.6-.7 1.9 7.7 10.4 4.8 4.9 9.1 8.7 9.5 8.6s2.1-2.1 3.7-4.4c9.5-13.4 14.7-30.6 14.6-48.3 0-18.4-5.2-34.8-15.6-49.8-1.5-2.1-3-3.9-3.4-3.9s-4.6 3.9-9.4 8.7l-8.7 8.7 1.8 2.8c13.2 21.2 13.2 46.3-.2 67.2m64.6-52.9c1.9 9.2 1.7 30.3-.4 40.2-3.7 17.3-11.7 33.3-23.3 47.1l-4.3 5.1L379 273c8.2 8.4 15.2 15.2 15.5 15.2s3.5-3.4 7.1-7.6c21-24.6 32.7-53 35.4-86.3 3.1-38.3-11.8-80.8-38.1-109l-4.7-5-15.5 15.2-15.5 15.2 4.4 4.8c11.6 12.8 20.5 30.8 24.5 49.7m45.8-78.7c13.4 20 22.9 44.3 27.2 69.2 2.1 12.2 2.6 36.8 1 49.8-4.6 37.6-21.5 73.9-46.6 100.2l-4.2 4.4 15.8 15.9 15.8 15.9 3.8-4.1c2.1-2.3 6.1-6.8 8.9-10.1 27.9-32.6 45.2-72.4 51-117.1 1.4-11 1.7-39 .4-49.3-2.7-22.1-8.6-44.9-16.4-63.4-9.3-22.2-25.4-47-42.2-64.8l-5.4-5.7-31.5 31.4 5.1 5.7c8.2 8.9 10.9 12.4 17.3 22M244.7 232.3c7.2 1.9 18.4 1.9 25.5.1 9.8-2.5 17.8-7.5 24.8-15.6 4.5-5.2 9.1-13.9 10.7-20.1 1.4-5.7 1.4-19-.1-24.7-4.4-17-18.3-30.9-35.6-35.5-6.2-1.7-18.5-1.7-24.7 0-17.3 4.6-31.2 18.5-35.8 35.8-1.6 6.2-1.6 18.5.1 24.7 4.6 16.7 18.8 31.1 35.1 35.3m-77.1 5c.3 0 4.4-3.9 9.1-8.7l8.7-8.7-3.9-7.8c-5-10-6.1-14.3-6.5-25.2-.5-13.6 1.7-22.9 8.4-34.1l2.9-4.9-8.7-8.8c-4.8-4.8-9.1-8.6-9.4-8.5-.4.1-2.3 2.4-4.2 5.1-15.6 22.3-19.1 53.6-8.9 79.9 3.2 8.9 10.8 21.7 12.5 21.7M59.8 336.1c2.7 2.8 5.1 5.1 5.3 5.1s7.4-7 15.9-15.5l15.5-15.5-5.1-5.5c-23.1-25-38.7-57.3-44.7-92.4-1.9-10.9-2.5-32.9-1.4-44.6C49.1 129.9 65.1 93.6 89.9 66c2.1-2.4 4.5-5 5.2-5.8l1.3-1.5-31.6-31.3-5.1 5.4C39 54.5 21.3 84.1 11.6 113.3 3.3 138.4 0 158.7 0 184.7c0 20.7 2.4 38.8 7.6 58 9.3 34.1 28.7 69 52.2 93.4m16.4-131.8c4.2 30.4 17.8 58.8 38.8 81.4l2.6 2.8 15.1-15.1c8.3-8.3 15.1-15.3 15.1-15.5s-2.1-2.9-4.7-6c-12.1-14.4-19.6-30.2-23.3-48.8-1.7-8.7-1.8-27.9 0-36.5 4-20.2 13.9-40 26.1-52.7l2.9-3L118 80.2l-4.6 4.9c-20.6 22.2-33.8 51.2-37.7 82.3-1 8.8-.8 27.7.5 36.9" style="fill:#fff"/></svg>