<?xml version="1.0" encoding="utf-8"?>
<!-- Generator: Adobe Illustrator 28.2.0, SVG Export Plug-In . SVG Version: 6.00 Build 0)  -->
<svg version="1.1" id="Layer_1" xmlns="http://www.w3.org/2000/svg" xmlns:xlink="http://www.w3.org/1999/xlink" x="0px" y="0px"
	 viewBox="0 0 512 512" style="enable-background:new 0 0 512 512;" xml:space="preserve">
<path d="M256,0C114.6,0,0,114.6,0,256s114.6,256,256,256s256-114.6,256-256S397.4,0,256,0z M208,152c0-26.6,21.4-48,48-48
	c26.6,0,48,21.4,48,48l-0.2,96c0,26.6-21.2,48-47.8,48c-26.6,0-48-21.4-48-48V152z M272,355.5V408h-32v-52.5
	c-52.5-7.8-96-52.9-96-107.5h27.2c0,48,40.6,81.6,84.8,81.6s84.8-33.6,84.8-81.6H368C368,302.7,324.5,347.8,272,355.5z"/>
</svg>
