<svg xmlns="http://www.w3.org/2000/svg" xml:space="preserve" viewBox="0 0 512 512"><path d="M148.8 145.7c1.5-1.5 3.1-2.8 4.7-4.1.5-.4 1.1-.8 1.7-1.2 2.3-1.5 4.6-2.7 7.1-3.7.6-.2 1.2-.5 1.8-.7 2.5-.9 5-1.5 7.6-1.9.6-.1 1.3-.2 1.9-.2q3.9-.3 7.8 0c.6.1 1.3.1 1.9.2 2.6.4 5.1 1 7.6 1.9.6.2 1.2.5 1.8.7 2.4 1 4.8 2.2 7.1 3.7.6.4 1.1.8 1.7 1.2 1.6 1.2 3.2 2.6 4.7 4.1l.2.2.2.2L327.5 267c7.2 7.2 18.8 7.2 25.9 0L483 137.5C440.2 55.8 354.6 0 256 0 114.6 0 0 114.6 0 256c0 12.2.9 24.2 2.5 36zm361.4 79.6-140.9 141c-15.9 15.9-41.6 15.9-57.5 0L177.5 232 31.1 378.4C74.5 458 158.9 512 256 512c141.4 0 256-114.6 256-256 0-10.4-.6-20.6-1.8-30.7"/></svg>