<svg xmlns="http://www.w3.org/2000/svg" xml:space="preserve" viewBox="0 0 512 512"><linearGradient id="poeticmetric_svg__a" x1="0" x2="512" y1="278" y2="790" gradientTransform="translate(0 -278)" gradientUnits="userSpaceOnUse"><stop offset="0" style="stop-color:#3c91e6"/><stop offset="1" style="stop-color:#26639f"/></linearGradient><circle cx="256" cy="256" r="256" style="fill:url(#poeticmetric_svg__a)"/><path d="M206.3 203.2 177.5 232 31.1 378.4C16.7 352.1 6.9 322.9 2.5 292l146.3-146.3c15.9-15.9 41.6-15.9 57.5 0l.4.4c15.4 15.9 15.3 41.4-.4 57.1" style="fill:#a7c5fd"/><path d="m510.2 225.3-140.9 141c-15.9 15.9-41.6 15.9-57.5 0l-163-163c-7.9-7.9-11.9-18.3-11.9-28.8 0-10.4 4-20.8 11.9-28.8 15.9-15.9 41.6-15.9 57.5 0l.4.4L327.5 267c7.2 7.2 18.8 7.2 25.9 0L483 137.5c14 26.9 23.4 56.5 27.2 87.8" style="fill:#ebeff0"/></svg>