<?xml version="1.0" encoding="utf-8"?>
<!-- Generator: Adobe Illustrator 28.2.0, SVG Export Plug-In . SVG Version: 6.00 Build 0)  -->
<svg version="1.1" id="Layer_1" xmlns="http://www.w3.org/2000/svg" xmlns:xlink="http://www.w3.org/1999/xlink" x="0px" y="0px"
	 viewBox="0 0 512 512" style="enable-background:new 0 0 512 512;" xml:space="preserve">
<style type="text/css">
	.st0{fill:url(#SVGID_1_);}
	.st1{fill:#A7C5FD;}
	.st2{fill:#EBEFF0;}
</style>
<linearGradient id="SVGID_1_" gradientUnits="userSpaceOnUse" x1="-1.818989e-12" y1="278" x2="512" y2="790" gradientTransform="matrix(1 0 0 1 0 -278)">
	<stop  offset="0" style="stop-color:#3C91E6"/>
	<stop  offset="1" style="stop-color:#26639F"/>
</linearGradient>
<circle class="st0" cx="256" cy="256" r="256"/>
<path class="st1" d="M206.3,203.2L177.5,232L31.1,378.4C16.7,352.1,6.9,322.9,2.5,292l146.3-146.3c15.9-15.9,41.6-15.9,57.5,0l0,0
	c0.1,0.1,0.2,0.2,0.4,0.4C222.1,162,222,187.5,206.3,203.2L206.3,203.2z"/>
<path class="st2" d="M510.2,225.3l-140.9,141c-15.9,15.9-41.6,15.9-57.5,0l-163-163c-7.9-7.9-11.9-18.3-11.9-28.8
	c0-10.4,4-20.8,11.9-28.8c15.9-15.9,41.6-15.9,57.5,0l0.4,0.4L327.5,267c7.2,7.2,18.8,7.2,25.9,0L483,137.5
	C497,164.4,506.4,194,510.2,225.3L510.2,225.3z"/>
</svg>
