<?xml version="1.0" encoding="utf-8"?>
<!-- Generator: Adobe Illustrator 28.2.0, SVG Export Plug-In . SVG Version: 6.00 Build 0)  -->
<svg version="1.1" id="Layer_1" xmlns="http://www.w3.org/2000/svg" xmlns:xlink="http://www.w3.org/1999/xlink" x="0px" y="0px"
	 viewBox="0 0 512 512" style="enable-background:new 0 0 512 512;" xml:space="preserve">
<style type="text/css">
	.st0{fill-rule:evenodd;clip-rule:evenodd;}
</style>
<g transform="matrix(0.878049,0,0,0.854876,62.439,103.707)">
	<path class="st0" d="M436.4,32.1L436.4,32.1c2.8-0.1,5.3-1.4,6.9-3.5c1.1-1.5,1.8-3.3,1.8-5.3c0-4.9-4-8.9-8.9-8.9
		c-0.3,0-0.6,0-0.9,0c-2.8,0.3-5.2,1.9-6.6,4.1c-1.3,2-1.8,4.6-1,7.4C428.8,29.7,432.5,32.1,436.4,32.1z"/>
	<path class="st0" d="M282.4,364c-18.1,0-27.3-13.1-37.9-28.3c-11.4-16.3-24.4-34.8-50.5-34.8c-26.1,0-39,18.5-50.5,34.8
		c-10.6,15.2-19.8,28.3-37.9,28.3c-16.9,0-26-11.4-35.8-25.3c0,0-0.1-0.1-0.1-0.1c0,0-0.1-0.2-0.3-0.4c-0.6-0.8-1.1-1.6-1.7-2.4
		c-0.6-0.9-1.2-1.8-1.9-2.7c-11.8-17.3-45.7-72.4-37.5-120.6C45.7,110.9,137.4,100,218.4,90.3c33.8-4,63-7.5,83.8-17.4
		c15-7.2,27.7-12.8,35.4-16.1c0.1,0,0.2,0,0.3,0c1.4,1.1,3.1,1.8,4.9,1.8c0.3,0,0.6,0,0.9-0.1c4.2-0.5,7.2-4.3,6.7-8.5
		c-0.2-1.6-0.3-3.9-0.1-5.9l0,0c0.4-2.8,1.5-7.4,4.5-9.7c2.8-2.2,7.4-2.5,13.6-0.9l3.2,0.8c0.1,0,0.2,0,0.2,0l2.8-1.8
		c15.2-10,43-26.2,53.1-27c14.4-1.1,30.4,2.7,30.6,2.8l2.3,0.5l34.8-12.9c0.2-0.1,0.3,0,0.4,0.2c2.2,9.4,2.2,30.2-26,60
		C393.7,136.5,369.4,208,350,265.4c-9.4,27.7-17.5,51.7-29.8,70.4C309.6,351,300.4,364,282.4,364z M480.9,66.6
		c48.3-51,26.2-83.6,25.2-85l-3.3-4.6c-0.1-0.1-0.2-0.1-0.3-0.1l-43,15.9c0,0-0.1,0-0.1,0c-5.5-1.1-19.4-3.6-32.9-2.6
		c-15.4,1.1-46.5,20.5-57.6,27.6c-0.1,0-0.1,0-0.2,0c-9.5-1.8-17.4-0.3-23.5,4.5c-4.5,3.5-7,8.2-8.5,12.5c-0.8,1.9-1.3,4.1-1.6,6.2
		c0,0.1-0.1,0.1-0.1,0.2c-7,3-21.6,9.4-39.4,17.9c-18.5,8.8-47.9,12.3-79,16C134.6,84.8,32.4,97,13.2,210
		c-5.5,32.3,5.2,66.2,17.4,92.4c0.1,0.2-0.1,0.4-0.3,0.4c-4-1.1-8.3-1.7-13.1-1.7c-26.1,0-39,18.5-50.5,34.8
		c-9.3,13.3-17.5,25-31.7,27.7c-3.6,0.7-6.2,3.8-6.2,7.5c0,4.7,4.2,8.4,8.9,7.6c20.3-3.7,31.6-19.7,41.6-34.1
		c10.6-15.2,19.8-28.3,37.9-28.3c16.1,0,25.2,10.4,34.5,23.4c3.2,4.8,5.4,7.7,5.8,8.2c0,0,0,0,0,0c10.9,15.4,23.8,31.5,48.1,31.5
		c26.1,0,39-18.5,50.5-34.8c10.6-15.2,19.8-28.3,37.9-28.3c18.1,0,27.3,13.1,37.9,28.3c11.5,16.3,24.4,34.8,50.5,34.8
		c26.1,0,39-18.5,50.5-34.8c0-0.1,0.1-0.1,0.1-0.2l0,0l0,0c10.6-15.1,19.7-28.1,37.8-28.1c18.1,0,27.3,13.1,37.9,28.3
		c10.1,14.4,21.3,30.4,41.6,34.1c4.6,0.8,8.9-2.9,8.9-7.6c0-3.7-2.6-6.9-6.2-7.5c-14.1-2.7-22.3-14.4-31.7-27.7
		c-11.4-16.3-24.4-34.8-50.5-34.8c-6.7,0-12.6,1.3-17.8,3.4c-0.2,0.1-0.4-0.1-0.3-0.3c4-10.5,7.9-21.7,11.9-33.6
		C383.5,214.3,407.1,144.6,480.9,66.6z"/>
</g>
</svg>
