<?xml version="1.0" encoding="utf-8"?>
<!-- Generator: Adobe Illustrator 28.2.0, SVG Export Plug-In . SVG Version: 6.00 Build 0)  -->
<svg version="1.1" id="Layer_1" xmlns="http://www.w3.org/2000/svg" xmlns:xlink="http://www.w3.org/1999/xlink" x="0px" y="0px"
	 viewBox="0 0 512 512" style="enable-background:new 0 0 512 512;" xml:space="preserve">
<style type="text/css">
	.st0{fill-rule:evenodd;clip-rule:evenodd;fill:url(#SVGID_1_);}
	.st1{fill-rule:evenodd;clip-rule:evenodd;fill:url(#SVGID_00000132058332884264390190000013138730180226603948_);}
</style>
<linearGradient id="SVGID_1_" gradientUnits="userSpaceOnUse" x1="-553.6804" y1="-1.5086" x2="-552.7277" y2="-1.5086" gradientTransform="matrix(1.693297e-08 366.3626 -366.3626 1.605098e-08 -107.2598 202893.4844)">
	<stop  offset="0" style="stop-color:#45C4DC"/>
	<stop  offset="1" style="stop-color:#F070AB"/>
</linearGradient>
<path class="st0" d="M445.6,131.1L445.6,131.1c2.5-0.1,4.7-1.2,6.1-3c1-1.3,1.6-2.8,1.6-4.5c0-4.2-3.5-7.6-7.8-7.6
	c-0.3,0-0.5,0-0.8,0c-2.5,0.3-4.6,1.6-5.8,3.5c-1.1,1.7-1.6,3.9-0.9,6.3C438.9,129.1,442.2,131.1,445.6,131.1z"/>
<linearGradient id="SVGID_00000059280779087132273430000011282854507403113118_" gradientUnits="userSpaceOnUse" x1="-553.6804" y1="-1.5342" x2="-552.7276" y2="-1.5342" gradientTransform="matrix(1.693056e-08 366.3101 -366.3101 1.604871e-08 -306.036 202864.4062)">
	<stop  offset="0" style="stop-color:#45C4DC"/>
	<stop  offset="1" style="stop-color:#F070AB"/>
</linearGradient>
<path style="fill-rule:evenodd;clip-rule:evenodd;fill:url(#SVGID_00000059280779087132273430000011282854507403113118_);" d="
	M310.4,414.9c-15.9,0-24-11.2-33.3-24.2c-10-13.9-21.4-29.7-44.3-29.7s-34.2,15.8-44.3,29.7c-9.3,13-17.4,24.2-33.3,24.2
	c-14.8,0-22.8-9.7-31.4-21.6l-0.1-0.1c0,0-0.1-0.2-0.3-0.3c-0.5-0.7-1-1.4-1.5-2.1c-0.5-0.8-1.1-1.5-1.7-2.3
	c-10.4-14.8-40.1-61.9-32.9-103.1c15.3-86.9,95.8-96.2,166.9-104.5c29.7-3.4,55.3-6.4,73.6-14.9c13.2-6.2,24.3-10.9,31.1-13.8
	c0.1,0,0.2,0,0.3,0c1.2,0.9,2.7,1.5,4.3,1.5c0.3,0,0.5,0,0.8-0.1c3.7-0.4,6.3-3.7,5.9-7.3c-0.2-1.4-0.3-3.3-0.1-5l0,0
	c0.4-2.4,1.3-6.3,4-8.3c2.5-1.9,6.5-2.1,11.9-0.8l2.8,0.7c0.1,0,0.2,0,0.2,0l2.5-1.5c13.3-8.5,37.8-22.4,46.6-23.1
	c12.6-0.9,26.7,2.3,26.9,2.4l2,0.4l30.6-11c0.2-0.1,0.3,0,0.4,0.2c1.9,8,1.9,25.8-22.8,51.3c-66.8,68.7-88.2,129.9-105.2,178.9
	c-8.3,23.7-15.4,44.2-26.2,60.2C334.3,403.8,326.2,414.9,310.4,414.9z M484.7,160.6c42.4-43.6,23-71.5,22.1-72.7l-2.9-3.9
	c-0.1-0.1-0.2-0.1-0.3-0.1l-37.8,13.6h-0.1c-4.8-0.9-17-3.1-28.9-2.2c-13.5,0.9-40.8,17.5-50.6,23.6c-0.1,0-0.1,0-0.2,0
	c-8.3-1.5-15.3-0.3-20.6,3.8c-4,3-6.1,7-7.5,10.7c-0.7,1.6-1.1,3.5-1.4,5.3c0,0.1-0.1,0.1-0.1,0.2c-6.1,2.6-19,8-34.6,15.3
	c-16.2,7.5-42.1,10.5-69.4,13.7c-72,8.3-161.7,18.7-178.6,115.3c-4.8,27.6,4.6,56.6,15.3,79c0.1,0.2-0.1,0.3-0.3,0.3
	c-3.5-0.9-7.3-1.5-11.5-1.5c-22.9,0-34.2,15.8-44.3,29.7c-8.2,11.4-15.4,21.4-27.8,23.7c-3.2,0.6-5.4,3.2-5.4,6.4
	c0,4,3.7,7.2,7.8,6.5c17.8-3.2,27.7-16.8,36.5-29.2c9.3-13,17.4-24.2,33.3-24.2c14.1,0,22.1,8.9,30.3,20c2.8,4.1,4.7,6.6,5.1,7l0,0
	c9.6,13.2,20.9,26.9,42.2,26.9c22.9,0,34.2-15.8,44.3-29.7c9.3-13,17.4-24.2,33.3-24.2c15.9,0,24,11.2,33.3,24.2
	c10.1,13.9,21.4,29.7,44.3,29.7s34.2-15.8,44.3-29.7c0-0.1,0.1-0.1,0.1-0.2l0,0l0,0c9.3-12.9,17.3-24,33.2-24
	c15.9,0,24,11.2,33.3,24.2c8.9,12.3,18.7,26,36.5,29.2c4,0.7,7.8-2.5,7.8-6.5c0-3.2-2.3-5.9-5.4-6.4c-12.4-2.3-19.6-12.3-27.8-23.7
	c-10-13.9-21.4-29.7-44.3-29.7c-5.9,0-11.1,1.1-15.6,2.9c-0.2,0.1-0.4-0.1-0.3-0.3c3.5-9,6.9-18.6,10.4-28.7
	C399.2,286.9,419.9,227.3,484.7,160.6z"/>
</svg>
