<svg xmlns="http://www.w3.org/2000/svg" xml:space="preserve" viewBox="0 0 512 512"><path d="M417.8 424.9c0-71.5.1-142.9.1-214.6 0-37.6 24.8-68.5 61.6-76.4 6-1.3 8.2-3.4 8.1-9.7-.4-12.1.1-24.3.3-36.4 7 .7 13.3 3.9 20 5.5 3.3.7 4.2 3.1 4 6.1 0 11.6-.1 23.4 0 35.1.1 5.7-3.6 6.1-7.6 7-27.5 6.9-47 22.8-57 49.7-3.1 8.5-4.3 17.3-4.3 26.3.1 66.1 0 132.2 0 198.3 0 9.6 0 9.6-9.7 9.1-5 .1-10.2.1-15.5 0m-177.7-3.3c1.2-3.4.9-6.9.9-10.3 0-62.7.1-125.3 0-188 0-24.8 8.7-45.1 28.2-60.4 19.8-15.5 47.3-17.6 67-5.4-36-1.3-70.1 27.2-70.3 72.7-.1 60.6 0 121 0 181.6 0 10.3 0 10.3-10.1 10.1-5.2-.2-10.5-.2-15.7-.3m-152-4.2c-.1-27.6-.3-55.1-.3-82.7 0-36-.3-72.1.1-108 .3-28.6 19.5-54.2 45.7-60.3 13-3.1 25.7-2.1 37 6.1-33.6 1-53.1 28.4-56.9 55.1-1 7.9-1.3 15.8-1.3 23.7.1 52.5 0 105.2 0 157.7 0 9.7 0 9.7-9.4 9.4-4.9 0-9.9-.6-14.9-1" style="opacity:.5"/><path d="M70.1 417.7c-7-.9-16.4 3-20.6-1.9-4-4.8-1-13.9-1.2-21 0-53.4 0-106.8.1-160.4 0-13.4-2.2-26.3-10.3-37.5C30.5 186.1 20 178.8 6 178.2c-4.9-.1-6.1-1.9-6-6.6q.45-12.3 0-24.6c-.1-4.2.9-6.3 5.4-6.7 23.7-2.4 47.5-5.1 71-7.8 33.9-3.7 67.6-7.6 101.5-11.3 33.3-3.7 66.6-7.3 100-11 32.8-3.6 65.7-7.2 98.5-10.9 36.3-4 72.5-8.2 108.8-12.2.9-.1 1.8.4 2.7.7 3 2.7 3.6 6.3 3.7 10.1 0 8.2.1 16.4 0 24.6-.3 10.9-1.3 12.2-11.6 15.1-9 2.4-17.6 5.4-25.2 10.7-21.5 14.9-33 35.4-33.1 61.6-.3 66.8 0 133.5-.1 200.4 0 5.1 1.2 10.6-3.6 14.6-14.9-.1-29.8-.4-44.8-.3-6.1.1-7.3-2.2-7.3-7.8.1-68.3 0-136.7.1-205 0-19.2-6.1-35.4-20.6-48.3-2.8-2.4-5.5-4.9-9.3-6-11.3-2.4-22.7-4.9-34.3-3.6-28.1 3.1-52.4 26.7-56 54.6-1.2 8.8-1.8 17.8-1.8 26.7q.15 86.4 0 172.8c0 4.8 1.3 10.1-3.9 13.6h-2.5c-9.5-1.5-19.1.4-28.6-1-12.8-.4-12.8-.4-12.8-13.1 0-61.3-.1-122.7 0-183.8 0-19.4-6-36-21.3-48.5-1.3-1-3-1.8-4.5-2.5-15.5-3.6-31.2-6.7-46.3 1.3-21.2 11-31.8 29.4-32.1 53.1-.4 57.1-.1 114.2-.1 171.3 0 3.7 0 7.5-.1 11.2-.1 3.1-.9 5.8-3.6 7.9-6.1 1.4-12.1.8-18.1.2"/></svg>