<svg xmlns="http://www.w3.org/2000/svg" xml:space="preserve" viewBox="0 0 512 512"><circle cx="256" cy="256" r="256"/><path d="M372.2 204.4c-5.2-5.1-11.4-8.4-11.7-8.5-9.6-4.9-18.6-5.3-23.4-5.2-5.1-.2-15.3.1-25.6 6-.6.3-5.3 3.1-9.6 7.6-15.6 16.2-15.9 43.5-16 49.1-.2 17.4-.5 40.8 17 56 12.5 10.9 27.8 12 34.5 12.1 6.7-.3 21-2 33-12.4 17-14.9 17.2-37.1 17.4-54 .1-7.3.4-34.8-15.6-50.7m-9.8 51.1c-.1 11.3-.2 26.2-8.7 36.2-6 7-13.2 8.1-16.5 8.3-3.3-.1-11-.9-17.3-8.1-8.8-10.2-8.6-25.9-8.5-37.6 0-3.8.2-22.1 8-33 2.2-3 4.5-4.9 4.8-5.1 5.1-4 10.3-4.2 12.8-4.1 2.4-.1 6.9.2 11.7 3.5.1.1 3.3 2.3 5.9 5.7 8 10.7 7.8 29.2 7.8 34.2m-205.2-18.1c0 8.6-7.4 15.6-16.5 15.6s-16.5-7-16.5-15.6 7.4-15.6 16.5-15.6 16.5 7 16.5 15.6m0 68.2c0 8.6-7.4 15.6-16.5 15.6s-16.5-7-16.5-15.6 7.4-15.6 16.5-15.6 16.5 7 16.5 15.6m108.5-32s-2.4-8-8.5-14.6c-4.1-4.5-9.3-7.4-14.5-9.2 11-4.4 18.8-15.2 18.8-27.8 0-3.1-.5-6.1-1.3-8.9 0 0-2.1-6.7-7.4-12.3-10.2-10.7-27.5-10.5-32.7-10.5-9.3.1-22.8.2-32.4 10.5-7.1 7.7-8.5 17-8.8 21.2 0 12.4 7.6 23.1 18.3 27.6-5 1.8-9.8 4.7-14 9.4-8.1 9.1-9.6 20.2-10 25.2.2 4.6 1.5 15.9 10 25.2 11.5 12.5 28.1 12.4 37.7 12.3s25.3-.2 36.4-12.3c8.5-9.2 9.7-20.6 10-25.2 0-3.6-.6-7.2-1.6-10.6m-45.3-64.2c9.5 0 17.2 7.2 17.2 16.1s-7.7 16.1-17.2 16.1-17.2-7.2-17.2-16.1 7.7-16.1 17.2-16.1m0 90.7c-11.7 0-21.1-8.6-21.1-19.3s9.5-19.3 21.1-19.3c11.7 0 21.1 8.6 21.1 19.3 0 10.6-9.4 19.3-21.1 19.3" style="fill:#fff"/></svg>