<svg xmlns="http://www.w3.org/2000/svg" xml:space="preserve" viewBox="0 0 512 512"><path d="M186.4 48.2c-12.1 29.7-31 52.5-39 86.3C179.3 68.6 255.7-35.4 342.2 12c47.6 26.1 68.5 95.1 72.4 164.2 7.7 135.6-67.1 299.9-164.3 331.3-61.4 19.9-108-30.4-128-69.6-62-121.1.7-319.7 64.1-389.7m69.5 2.8c-88 47.5-157.5 289.3-86.3 395.3 18.2 27.1 68.3 56.4 100.2 25.1-73.4 11.1-101.3-61.9-105.8-119.7 11 51.9 49 114.6 108.6 89.1C361.1 403 405 213 367.2 101.2c7.9 47.3 5.5 111.6-16.7 144.8 30.5-81.2 2.9-247.6-94.6-195" style="fill:#fff"/></svg>