<?xml version="1.0" encoding="utf-8"?>
<!-- Generator: Adobe Illustrator 28.2.0, SVG Export Plug-In . SVG Version: 6.00 Build 0)  -->
<svg version="1.1" id="Layer_1" xmlns="http://www.w3.org/2000/svg" xmlns:xlink="http://www.w3.org/1999/xlink" x="0px" y="0px"
	 viewBox="0 0 512 512" style="enable-background:new 0 0 512 512;" xml:space="preserve">
<style type="text/css">
	.st0{fill:#FFFFFF;}
</style>
<path class="st0" d="M102.2,83.9c0.4,5.6,0.8,12,1.4,19.1l20.2,260.7c2.3,29.1,3.4,43.8,9.9,54.4c5.7,9.4,14.4,16.7,24.5,21
	c11.6,4.9,26.1,3.7,55.2,1.4l199.8-15.4c18.9-1.5,31.7-2.5,41.2-4.8c-3.2,7.5-8.1,14.3-14.5,19.5c-9.6,8-23.9,11.4-52.4,17.9
	l-195,45c-28.5,6.5-42.8,9.9-54.8,6.8c-10.7-2.7-20.3-8.6-27.3-17.1c-8-9.6-11.4-23.9-17.9-52.4l-59-254.7
	c-6.5-28.5-9.9-42.8-6.8-54.8c2.7-10.7,8.6-20.3,17.1-27.3c9.6-8,23.9-11.4,52.4-17.9L102.2,83.9z M180.6,436.9c-0.5,0-0.9,0-1.4,0
	c-8.3,0-14.1-0.9-18.9-3c-9-3.8-16.6-10.2-21.9-18.6c-2.8-4.7-4.6-10.1-5.8-18.4c-1.3-8-2.1-18-3.3-33.7l-20.2-260.6l-0.4-5.8
	c-0.9-12-1.6-20.7-1.5-28c0-8.3,0.9-14.1,3-18.9c3.8-9,10.2-16.6,18.6-21.9c4.7-2.8,10.1-4.6,18.4-5.8c8-1.3,18-2.1,33.7-3.3
	L380.6,3.2l5.8-0.4c12-0.9,20.7-1.6,28.1-1.5c8.3,0,14.1,0.9,18.9,3c9,3.8,16.6,10.2,21.9,18.6c2.8,4.7,4.6,10.1,5.8,18.4
	c1.1,7.8,2.1,17.9,3.3,33.7l20.2,260.8l0.4,5.7c0.9,12,1.6,20.7,1.5,28.1c0,8.3-0.9,14.1-3,18.9c-3.8,9-10.2,16.6-18.6,21.9
	c-4.7,2.8-10.1,4.6-18.4,5.8c-8,1.3-18,2.1-33.7,3.3L213.1,435l-5.8,0.4C196,436.3,187.7,436.9,180.6,436.9z M114.1,102.2
	l20.2,260.6c1.2,15.5,2,25.4,3.3,33.3c1.1,7.6,2.6,12.5,5.1,16.5c4.8,7.5,11.6,13.3,19.6,16.7c4.2,1.8,9.4,2.6,17,2.6
	c7.2,0.1,15.8-0.6,27.6-1.5l5.8-0.4l199.7-15.4c15.5-1.2,25.4-2,33.3-3.3c7.6-1.1,12.5-2.6,16.5-5.1c7.5-4.8,13.3-11.6,16.7-19.6
	c1.8-4.2,2.6-9.4,2.6-17c0.1-7.2-0.6-15.8-1.5-27.7l-0.4-5.7L459.4,75.4c-1.2-15.7-2.2-25.6-3.3-33.3c-1.1-7.5-2.6-12.5-5.1-16.5
	c-4.8-7.5-11.6-13.3-19.6-16.7c-4.2-1.8-9.4-2.6-17-2.6c-7.2-0.1-15.8,0.6-27.7,1.5L381,8.2L181.3,23.8c-15.5,1.2-25.4,2-33.3,3.3
	c-7.6,1.1-12.5,2.6-16.5,5.1c-7.5,4.8-13.3,11.6-16.7,19.6c-1.8,4.2-2.6,9.4-2.6,17c-0.1,7.2,0.6,15.8,1.5,27.6L114.1,102.2
	L114.1,102.2z M268.2,89.6l1.9,24.8c3.5-4.3,7.9-7.9,13.4-11c5.4-3.3,12.3-5.2,20.4-5.8c7.4-0.6,14.7,0.3,21.4,2.7
	c7,2.4,13.3,6.4,18.8,12.5c5.7,5.7,10.6,13.7,14.5,23.8s6.3,22.5,7.5,37.2c0.8,10.5,0.7,21.2-0.5,31.9c-1,10.7-3.4,20.4-7.3,29.1
	c-4,8.7-9.7,16-17.2,21.9c-7.3,5.6-16.7,8.9-28.4,9.8c-8.3,0.7-15,0.1-20-1.8c-5-2.1-8.8-4.6-11.5-7.4l6.2,80l-46.5,15.5L220.6,93.3
	L268.2,89.6z M294.6,238.6c5.7-0.4,10.4-2.7,14.1-6.7c3.7-4.3,6.3-9.5,8-15.8c2-6.3,3.1-13.3,3.4-20.8c0.5-7.7,0.5-15.3-0.1-22.9
	c-0.9-12.1-2.8-21.6-5.5-28.4c-2.5-6.8-5.3-11.9-8.4-14.9c-3.2-3.3-6.1-5.2-9.1-5.9c-2.7-0.7-4.9-1-6.3-0.8c-4,0.3-7.7,2.1-11.2,5.1
	c-3.6,3-5.9,7.2-7.3,12.9l7.1,91.9c1.2,1.7,3.2,3.3,5.6,4.9C287.4,238.4,290.6,238.9,294.6,238.6z"/>
</svg>
