<svg xmlns="http://www.w3.org/2000/svg" xml:space="preserve" viewBox="0 0 512 512"><path d="M103.4 82.6c.4 5.6.8 12 1.4 19.1L125 362.4c2.3 29.1 3.4 43.8 9.9 54.4 5.7 9.4 14.4 16.7 24.5 21 11.6 4.9 26.1 3.7 55.2 1.4l199.8-15.4c18.9-1.5 31.7-2.5 41.2-4.8-3.2 7.5-8.1 14.3-14.5 19.5-9.6 8-23.9 11.4-52.4 17.9l-195 45c-28.5 6.5-42.8 9.9-54.8 6.8-10.7-2.7-20.3-8.6-27.3-17.1-8-9.6-11.4-23.9-17.9-52.4L34.7 184c-6.5-28.5-9.9-42.8-6.8-54.8 2.7-10.7 8.6-20.3 17.1-27.3 9.6-8 23.9-11.4 52.4-17.9z" style="fill:#612bd3"/><path d="m182.9 27.9 199.7-15.4c14.9-1.2 25-1.9 33-1.9 7.7 0 11.9.9 14.9 2.2 7 3 13 8 17 14.6 1.7 2.9 3.2 6.8 4.5 14.5 1.3 7.8 2.1 18 3.2 32.9l20.2 260.8c1.2 14.9 1.9 25 1.9 33 0 7.7-.9 11.9-2.2 14.9-3 7-8 13-14.6 17-2.9 1.7-6.8 3.2-14.5 4.5-7.8 1.3-18 2.1-32.9 3.2l-199.7 15.3c-14.8 1.2-25 1.9-33 1.9-7.7 0-11.9-.9-14.9-2.2-7-3-13-8-17-14.6-1.7-2.9-3.2-6.8-4.5-14.5-1.3-7.8-2.1-18-3.2-32.9l-20.2-260.8c-1.2-14.8-1.9-25-1.9-33 0-7.7.9-11.9 2.2-14.9 3-7 8-13 14.6-17 2.9-1.7 6.8-3.2 14.5-4.5 7.9-1.1 18.1-1.9 32.9-3.1" style="fill:#fff"/><path d="M181.8 435.6h-1.4c-8.3 0-14.1-.9-18.9-3-9-3.8-16.6-10.2-21.9-18.6-2.8-4.7-4.6-10.1-5.8-18.4-1.3-8-2.1-18-3.3-33.7l-20.2-260.6-.4-5.8c-.9-12-1.6-20.7-1.5-28 0-8.3.9-14.1 3-18.9 3.8-9 10.2-16.6 18.6-21.9 4.7-2.8 10.1-4.6 18.4-5.8 8-1.3 18-2.1 33.7-3.3L381.8 1.9l5.8-.4c12-.9 20.7-1.6 28.1-1.5 8.3 0 14.1.9 18.9 3 9 3.8 16.6 10.2 21.9 18.6 2.8 4.7 4.6 10.1 5.8 18.4 1.1 7.8 2.1 17.9 3.3 33.7l20.2 260.8.4 5.7c.9 12 1.6 20.7 1.5 28.1 0 8.3-.9 14.1-3 18.9-3.8 9-10.2 16.6-18.6 21.9-4.7 2.8-10.1 4.6-18.4 5.8-8 1.3-18 2.1-33.7 3.3l-199.7 15.4-5.8.4c-11.3.9-19.6 1.6-26.7 1.6m-66.5-334.7 20.2 260.6c1.2 15.5 2 25.4 3.3 33.3 1.1 7.6 2.6 12.5 5.1 16.5 4.8 7.5 11.6 13.3 19.6 16.7 4.2 1.8 9.4 2.6 17 2.6 7.2.1 15.8-.6 27.6-1.5l5.8-.4 199.7-15.4c15.5-1.2 25.4-2 33.3-3.3 7.6-1.1 12.5-2.6 16.5-5.1 7.5-4.8 13.3-11.6 16.7-19.6 1.8-4.2 2.6-9.4 2.6-17 .1-7.2-.6-15.8-1.5-27.7l-.4-5.7-20.2-260.8c-1.2-15.7-2.2-25.6-3.3-33.3-1.1-7.5-2.6-12.5-5.1-16.5-4.8-7.5-11.6-13.3-19.6-16.7-4.2-1.8-9.4-2.6-17-2.6-7.2-.1-15.8.6-27.7 1.5l-5.7.4-199.7 15.6c-15.5 1.2-25.4 2-33.3 3.3-7.6 1.1-12.5 2.6-16.5 5.1-7.5 4.8-13.3 11.6-16.7 19.6-1.8 4.2-2.6 9.4-2.6 17-.1 7.2.6 15.8 1.5 27.6zm154.1-12.6 1.9 24.8c3.5-4.3 7.9-7.9 13.4-11 5.4-3.3 12.3-5.2 20.4-5.8 7.4-.6 14.7.3 21.4 2.7 7 2.4 13.3 6.4 18.8 12.5 5.7 5.7 10.6 13.7 14.5 23.8s6.3 22.5 7.5 37.2c.8 10.5.7 21.2-.5 31.9-1 10.7-3.4 20.4-7.3 29.1-4 8.7-9.7 16-17.2 21.9-7.3 5.6-16.7 8.9-28.4 9.8-8.3.7-15 .1-20-1.8-5-2.1-8.8-4.6-11.5-7.4l6.2 80-46.5 15.5L221.8 92zm26.4 149c5.7-.4 10.4-2.7 14.1-6.7 3.7-4.3 6.3-9.5 8-15.8 2-6.3 3.1-13.3 3.4-20.8.5-7.7.5-15.3-.1-22.9-.9-12.1-2.8-21.6-5.5-28.4-2.5-6.8-5.3-11.9-8.4-14.9-3.2-3.3-6.1-5.2-9.1-5.9-2.7-.7-4.9-1-6.3-.8-4 .3-7.7 2.1-11.2 5.1-3.6 3-5.9 7.2-7.3 12.9l7.1 91.9c1.2 1.7 3.2 3.3 5.6 4.9 2.5 1.2 5.7 1.7 9.7 1.4" style="fill:#131019"/></svg>