<svg xmlns="http://www.w3.org/2000/svg" xml:space="preserve" viewBox="0 0 512 512"><path d="M58.8 315.6v57.1c0 1.3.6 2.5 1.7 3.2 17.9 12.5 172.6 121 193.3 135.4 1.4 1 3.2 1 4.5 0 20.6-14.4 175.4-122.9 193.3-135.4 1.1-.7 1.7-1.9 1.7-3.2v-57.1s-173.1 121-194.9 136.3c-1.4.9-3.2.9-4.5 0-22-15.3-195.1-136.3-195.1-136.3" style="fill-rule:evenodd;clip-rule:evenodd;fill:#b24c0c"/><path d="M453.2 315.6 411 286s-133.6 93.4-152.7 106.7c-1.4.9-3.2.9-4.5 0C234.7 379.4 101 286 101 286l-42.2 29.5s173.1 121 194.9 136.3c1.4.9 3.2.9 4.5 0 21.9-15.2 195-136.2 195-136.2" style="fill-rule:evenodd;clip-rule:evenodd;fill:#dc620d"/><path d="M143.1 256.4s94.7 66.1 110.7 77.2c1.4.9 3.2.9 4.5 0 15.9-11.1 110.6-77.2 110.6-77.2s-94.6-66.1-110.6-77.2c-1.4-.9-3.2-.9-4.5 0-16 11.1-110.7 77.2-110.7 77.2" style="fill-rule:evenodd;clip-rule:evenodd;fill:#ffb36d"/><path d="M101 227s133.6-93.9 152.7-107.3c1.4-1 3.2-1 4.5 0C277.4 133.1 411 227 411 227l-42.2 29.4s-94.7-66.1-110.6-77.2c-1.4-.9-3.2-.9-4.5 0-15.9 11.1-110.6 77.2-110.6 77.2zm-42.2-29.8L101 227l-42.2 29.5zm394.4 0L411 227l42.2 29.6z" style="fill-rule:evenodd;clip-rule:evenodd;fill:#ffd4aa"/><path d="M58.8 197.2s173-121.5 194.9-136.9c1.4-1 3.2-1 4.5 0 21.9 15.4 194.9 136.9 194.9 136.9L411 227s-133.6-93.9-152.7-107.3c-1.4-1-3.2-1-4.5 0C234.6 133.1 101 227 101 227z" style="fill-rule:evenodd;clip-rule:evenodd;fill:#ffecdb"/><path d="M58.8 256.4 101 227l42.1 29.4s94.7 66.1 110.7 77.2c1.4.9 3.2.9 4.5 0 15.9-11.1 110.6-77.2 110.6-77.2L411 227l42.2 29.6v59L411 286s-133.6 93.4-152.7 106.7c-1.4.9-3.2.9-4.5 0C234.7 379.4 101 286 101 286l-42.2 29.5zm0-116.8c0-1.3.6-2.5 1.7-3.2C78.3 123.9 233.1 15.2 253.7.7c1.4-1 3.2-1 4.5 0 20.6 14.5 175.4 123.2 193.3 135.7 1.1.7 1.7 1.9 1.7 3.2v57.6S280.2 75.7 258.3 60.4c-1.4-1-3.2-1-4.5 0-22 15.3-195 136.8-195 136.8z" style="fill-rule:evenodd;clip-rule:evenodd;fill:#ff880d"/></svg>