<svg xmlns="http://www.w3.org/2000/svg" xml:space="preserve" viewBox="0 0 512 512"><path d="M150.2 230.2c3.6-25.6 2.2-48 1.5-60.1-.2-3-.3-5.2-.3-6.8-.1-3-1.5-75 39.9-116.9.7-.7 1.5-1.4 2.2-2.1-24.3-8.1-89-25.5-128.1 2.3-23.7 16.8-34.6 48-32.4 92.7.7 14.1 9.6 64.2 24.8 114 17.6 57.7 37.7 94.2 55.1 100 2.8.9 11.2 3.7 23.2-10.7 16.8-20.3 32.7-37.5 39.5-44.7-2-1.7-3.9-3.4-5.7-5.3-15.8-16.5-23-39.2-19.7-62.4m233-157.7c22.9 26.7 34.2 56.1 35.1 65.9.1 1.3.1 2.4-.1 3.3.4 10.4-.8 18.9-2.2 27.9-1.1 6.9-2.2 14-2.4 22.4-.3 7.9.7 16.2 1.8 25.1 2.6 21.5 5.5 45.8-9.6 70.2.3.4.7.8 1 1.3.9 1.1 1.8 2.2 2.6 3.3 58.1-90.8 78-196.8 59.8-220.1-23.7-30.2-57.1-46-99.3-46.9-18.1-.4-34 2.1-45 4.6 26.2 10.9 45.4 27.9 58.3 43m27.5 243q-1.35-.9-2.4-1.8c-1.3.5-2.5.9-3.4 1.1-6.7 1.9-13.6 3.8-13 20.9.1.4.1.8.2 1.2 1.5 1.5 8.9 4.1 23.9 3.5 13.7-.5 28.1-3.5 36.8-7.6 11-5.2 19-11.4 22.8-15.5-.9.1-1.9.3-3.1.5-29.4 6.2-50.2 5.4-61.8-2.3m92.4-7.5c-2-6.1-9.4-19.6-34.9-14.4-14.6 3-24.6 3.7-31.2 3.5 24.2-40 44-86.1 55.2-129.5 7.8-30.3 17.9-85.1-2.4-111C461.1 20.1 419.4.6 369 0c-27.5-.3-51.7 5.2-63.7 9-12-2.1-24.6-3.3-37.4-3.5-24.6-.4-46.2 5.1-64.6 16.2-27-9.3-102.5-30.3-152.2 4.8-31.2 22.2-45.7 60.7-43 114.6.9 17.3 10.5 70 25.8 120.1 8.8 28.7 18.1 52.6 27.8 70.9 13.5 25.5 27.7 40.5 43.6 45.8 9.1 3 25.9 5.1 43.4-10.8 5.8 8.5 16.6 13.9 27 16.5 23.5 5.8 44.9 4 62.8-5 .2 4.8.3 9.5.4 13.1.1 4 .2 8 .4 11.8 1.1 26.9 2.9 46.4 8 60.2.3.8.7 2.1 1.2 3.4 2.6 7.8 6.9 21 17.6 31.1 9.6 9.1 21.9 13.7 36.4 13.7 5.6 0 11.5-.7 17.8-2 19.7-4.2 40.2-10.2 55.5-31.9 14.7-20.9 21.8-52.6 23.1-102.8.2-1.4.3-2.7.5-4 .2-1.8.4-3.7.6-5.5l6.3.5h.6c19.2.9 42.7-3.2 57.2-9.9 8-3.5 47.2-23.1 39-48.3m-44.9 36.4c-11.6 5.4-30.2 8.8-46.2 8.8-8.1 0-15.5-.9-21.1-2.8-2.6 24.1-8.4 70.4-11.6 89.2-6 35-21.6 50.8-57.6 58.6-6.1 1.3-11.7 1.9-16.7 1.9-34.4 0-45.2-27.2-49.7-38.3-5.5-13.7-7.4-60.9-6.9-106.6-12.6 12.1-28.8 18.4-47.2 18.4-7.3 0-14.9-1-22.8-2.9-8.1-2-21.8-8.1-21.6-18s13.1-13.7 22.7-15.7c22.5-4.7 24.2-6.8 31.1-15.5 1.5-1.9 3.2-4 5.3-6.5-.1-.6-.1-1.3-.1-1.9-10.4-.1-20.5-2.9-29.7-7.9-5.7 6-22.4 24-40.3 45.6-10.3 12.4-20.2 16.1-28.2 16.1-3.3 0-6.2-.6-8.8-1.4-22.3-7.4-43.6-43.9-63.3-108.4C30.5 207.9 21 156.7 20.2 140 17.8 90.5 30.5 55.6 58 36.2c49.8-35.2 130.6-7.6 147-1.3 17.2-11.8 38-17.6 62.1-17.2 13.2.2 25.3 1.9 36.4 4.7 3.3-1.5 30.3-10.6 64.6-10.3 46.5.5 84.9 18.4 111.1 51.8 12.3 15.8 12.3 52.2 0 99.9-12.2 47.4-35 98.3-62.6 140.2 3.9 3.2 16.4 9.1 53.5 1.5 11.4-2.4 18.2-.4 20.3 5.8 4.1 12.4-19.2 27.1-32.2 33.1m-270-21.7c.5-.5 1-1.1 1.4-1.6.6.2 1.1.4 1.7.7-1 .3-2 .6-3.1.9m208.7-26.2c-4.6-5.7-10.9-13.6-15.7-25.3-.8-1.9-3.2-6.2-6-11.2-15-26.9-46.2-82.8-26.2-111.3 9.3-13.3 27.8-18.4 55.2-15.4-3.3-10.3-12.3-31-29.5-51.4-19.4-23-53.9-50.7-107.6-51.6-27.3-.5-49.7 8-66.6 25-27.3 27.5-34.1 71.3-35.8 93.6 1.6-.9 3.3-1.9 5.3-2.9 6.6-3.4 19.9-9.2 34.5-10.8 24.2-2.6 40.1 8.1 44.8 30.1 12.9 59.6 1.1 86-7.6 105.2-1.6 3.6-3.1 7-4.4 10.3l-1.1 2.9c-2.8 7.5-5.4 14.4-6.7 20.4 6.9-2.4 12.7.1 15.7 1.4 7 2.9 12.9 10 15.3 18.5.4 1.3.6 2.6.8 3.8.3.7.4 1.5.4 2.3-1.7 60.2.7 114.7 5.6 126.9 7.6 19.1 19.1 35.7 51.9 28.7 31-6.7 42.6-18.4 47.7-48.3 3.8-22.4 11.3-84 12.6-99.6v-.2c-1.6-28.5 14.4-33 22.1-35.2-1.3-1.6-2.9-3.6-4.7-5.9m-156.8 20.8c-4-1.8-6.7-2.9-11.9 3-3.2 3.6-5.5 6.5-7.6 9.1-8.9 11.2-12.6 14.7-38.5 20.1-6.9 1.4-10.2 2.9-11.7 3.8 1.9 1.6 6.2 3.9 11.1 5.1 19.6 4.9 46.9 5.2 65.6-21 2.4-3.4 1.7-7.6 1.1-9.8-1.4-4.7-4.7-8.9-8.1-10.3m-15.9-38 1.1-2.9c1.4-3.7 3-7.3 4.7-11 8.4-18.6 18.8-41.7 6.8-97.3-2.4-11.2-8.3-17.6-17.9-19.7-20.5-4.4-49.2 11.2-54.7 16.3.1 1.2.1 2.8.3 4.6.7 11.6 2.2 35.8-1.6 62.6-2.7 19.4 3.2 38.2 16.2 51.8 10.4 10.8 24.2 16.7 38.2 16.6 1.5-6.6 4.1-13.5 6.9-21M215 173.6c-7-.9-12.7-8.1-12.2-11.9.1-.8.5-1.9 1.8-2.9 2.4-1.8 7.1-2.4 12.2-1.6 6.5.9 12.7 4 12.2 8.2-.2 1.7-1.6 3.7-3.8 5.3-2.6 2-5.6 3-8.6 3-.6 0-1.1-.1-1.6-.1m188.4-6c1.1-7.1 2.1-13.8 2.2-21.3-24-3.1-39.5.2-46.2 9.7-15.4 22 14.3 75.1 26.9 97.8 3.2 5.8 5.5 9.9 6.6 12.5 1.5 3.5 3.1 6.6 4.8 9.4 9.7-19.1 7.4-38.5 5.1-57.2-1.1-8.9-2.2-18.1-1.9-27 .2-9.1 1.4-16.6 2.5-23.9m-23.7 0c-.5.1-1 .1-1.5.1-2.8 0-5.6-1-8-2.8-1.9-1.5-3.2-3.2-3.4-4.6-.5-3.5 5.5-6.2 11.3-7 4.9-.7 9.4-.1 11.5 1.6 1 .7 1.3 1.6 1.3 2.1.5 2.9-4.5 9.7-11.2 10.6"/></svg>