<svg xmlns="http://www.w3.org/2000/svg" xml:space="preserve" id="posteria_svg__Layer_1" x="0" y="0" version="1.1" viewBox="0 0 512 512"><style>.posteria_svg__st2{fill:#e5a00d}</style><path d="M63 0h228.4C304.5 0 315 10.6 315 23.6v346.6c0 13.1-10.6 23.6-23.6 23.6H63c-13.1 0-23.6-10.6-23.6-23.6V23.6C39.4 10.6 50 0 63 0" style="opacity:.4;fill:#e5a00d"/><path d="M141.8 59.1h228.4c13.1 0 23.6 10.6 23.6 23.6v346.6c0 13.1-10.6 23.6-23.6 23.6H141.8c-13.1 0-23.6-10.6-23.6-23.6V82.7c0-13 10.5-23.6 23.6-23.6" style="opacity:.7;fill:#e5a00d"/><path d="M220.6 118.2H449c13.1 0 23.6 10.6 23.6 23.6v346.6c0 13.1-10.6 23.6-23.6 23.6H220.6c-13.1 0-23.6-10.6-23.6-23.6V141.8c-.1-13.1 10.5-23.6 23.6-23.6" class="posteria_svg__st2"/><circle cx="334.8" cy="315.1" r="98.5" style="fill:#fff"/><path d="m295.4 256 118.2 59.1-118.2 59.1z" class="posteria_svg__st2"/></svg>