<?xml version="1.0" encoding="utf-8"?>
<!-- Generator: Adobe Illustrator 28.2.0, SVG Export Plug-In . SVG Version: 6.00 Build 0)  -->
<svg version="1.1" id="Layer_1" xmlns="http://www.w3.org/2000/svg" xmlns:xlink="http://www.w3.org/1999/xlink" x="0px" y="0px"
	 viewBox="0 0 512 512" style="enable-background:new 0 0 512 512;" xml:space="preserve">
<path d="M0,338.2c0-9.5,11.5-14.3,18.2-7.5l48.9,48.9c6.7,6.7,2,18.2-7.5,18.2H10.7C4.8,397.8,0,393,0,387.1V338.2z M0,286.7
	c0,2.8,1.1,5.5,3.1,7.5l100.4,100.4c2,2,4.7,3.1,7.5,3.1h55.2c9.5,0,14.3-11.5,7.5-18.2L18.2,224c-6.7-6.7-18.2-2-18.2,7.5V286.7
	L0,286.7z M0,180c0,2.8,1.1,5.5,3.1,7.5l207.1,207.1c2,2,4.7,3.1,7.5,3.1h55.2c9.5,0,14.3-11.5,7.5-18.2L18.2,117.3
	c-6.7-6.7-18.2-2-18.2,7.5V180L0,180z M106.7,180c0,2.8,1.1,5.5,3.1,7.5l192,192c6.7,6.7,18.2,2,18.2-7.5v-55.2
	c0-2.8-1.1-5.5-3.1-7.5l-192-192c-6.7-6.7-18.2-2-18.2,7.5V180z M231.5,117.3c-6.7-6.7-18.2-2-18.2,7.5V180c0,2.8,1.1,5.5,3.1,7.5
	l85.3,85.3c6.7,6.7,18.2,2,18.2-7.5v-55.2c0-2.8-1.1-5.5-3.1-7.5L231.5,117.3L231.5,117.3z M453.7,339.5L353.3,239.1
	c-6.7-6.7-18.2-2-18.2,7.5v140.5c0,5.9,4.8,10.7,10.7,10.7h155.6c5.9,0,10.7-4.8,10.7-10.7v-12.8c0-5.9-4.8-10.6-10.6-11.4
	C483.4,360.6,466.7,352.5,453.7,339.5z M386.3,363.7c-9.4,0-17.1-7.6-17.1-17.1c0-9.4,7.6-17.1,17.1-17.1c9.4,0,17.1,7.6,17.1,17.1
	C403.4,356,395.7,363.7,386.3,363.7z"/>
</svg>
