<?xml version="1.0" encoding="utf-8"?>
<!-- Generator: Adobe Illustrator 28.2.0, SVG Export Plug-In . SVG Version: 6.00 Build 0)  -->
<svg version="1.1" id="Layer_1" xmlns="http://www.w3.org/2000/svg" xmlns:xlink="http://www.w3.org/1999/xlink" x="0px" y="0px"
	 viewBox="0 0 512 512" style="enable-background:new 0 0 512 512;" xml:space="preserve">
<style type="text/css">
	.st0{opacity:0.4;fill:#E5A00D;enable-background:new    ;}
	.st1{opacity:0.7;fill:#E5A00D;enable-background:new    ;}
	.st2{fill:#E5A00D;}
	.st3{fill:#FFFFFF;}
</style>
<path class="st0" d="M63,0h228.4C304.5,0,315,10.6,315,23.6v346.6c0,13.1-10.6,23.6-23.6,23.6H63c-13.1,0-23.6-10.6-23.6-23.6V23.6
	C39.4,10.6,50,0,63,0z"/>
<path class="st1" d="M141.8,59.1h228.4c13.1,0,23.6,10.6,23.6,23.6v346.6c0,13.1-10.6,23.6-23.6,23.6H141.8
	c-13.1,0-23.6-10.6-23.6-23.6V82.7C118.2,69.7,128.7,59.1,141.8,59.1z"/>
<path class="st2" d="M220.6,118.2H449c13.1,0,23.6,10.6,23.6,23.6v346.6c0,13.1-10.6,23.6-23.6,23.6H220.6
	c-13.1,0-23.6-10.6-23.6-23.6V141.8C196.9,128.7,207.5,118.2,220.6,118.2z"/>
<circle class="st3" cx="334.8" cy="315.1" r="98.5"/>
<path class="st2" d="M295.4,256l118.2,59.1l-118.2,59.1L295.4,256L295.4,256z"/>
</svg>
