<svg xmlns="http://www.w3.org/2000/svg" xml:space="preserve" viewBox="0 0 512 512"><linearGradient id="priceghost_svg__a" x1="-701.035" x2="-701.035" y1="796.444" y2="795.377" gradientTransform="matrix(480 0 0 -480 336753 382293)" gradientUnits="userSpaceOnUse"><stop offset="0" style="stop-color:#818cf8"/><stop offset="1" style="stop-color:#6366f1"/></linearGradient><circle cx="256" cy="256" r="256" style="fill:url(#priceghost_svg__a)"/><path d="m330.4 112.6 49.5 13.3c3.4.9 5.4 4.4 4.5 7.8l-7.7 28.8c-.9 3.4-4.4 5.4-7.8 4.5l-49.5-13.3c-3.4-.9-5.4-4.4-4.5-7.8l7.7-28.8c.9-3.4 4.4-5.4 7.8-4.5" style="fill:#10b981"/><path d="M256 89.6c-9.5 0-18.8 1-27.7 2.8-9-1.8-18.2-2.8-27.7-2.8zm81.1 136.5v128c0 8.5-6.4 14.9-12.8 14.9-8.5 0-14.9-8.5-14.9-21.3v-32c0-8.5-8.5-14.9-17.1-14.9s-17.1 6.4-17.1 14.9v32c0 12.8-6.4 21.3-14.9 21.3s-14.9-8.5-14.9-21.3v-32c0-8.5-8.5-14.9-17.1-14.9-8.5 0-17.1 6.4-17.1 14.9v32c0 12.8-6.4 21.3-14.9 21.3s-14.9-8.5-14.9-21.3v-32c0-8.5-8.5-14.9-17.1-14.9-8.5 0-17.1 6.4-17.1 14.9v32c0 12.8-6.4 21.3-14.9 21.3-6.4 0-12.8-6.4-12.8-14.9v-128c0-65.9 46.7-120.9 108.8-133.7 62.1 12.8 108.8 67.8 108.8 133.7m-108.8-8.5c0-14.1-9.6-25.6-21.3-25.6-11.8 0-21.3 11.5-21.3 25.6s9.6 25.6 21.3 25.6 21.3-11.5 21.3-25.6m98.1 0c0-14.1-9.6-25.6-21.3-25.6-11.8 0-21.3 11.5-21.3 25.6s9.6 25.6 21.3 25.6 21.3-11.5 21.3-25.6m20-73.4c-.2-.5-.3-1.1-.3-1.7l-3-.5c-.2 1.5 0 2.8.6 3.8s1.5 1.8 2.7 2.3l-.5 2 1.6.4.6-2.1c1.5.2 2.8-.1 3.8-.8 1.1-.7 1.8-1.7 2.1-3.1.3-1.2.3-2.3-.2-3.2-.4-.9-1.5-1.9-3.1-2.8l1.2-4.3q.9.75.9 2.1l2.9.4q.15-1.8-.6-3c-.5-.8-1.3-1.5-2.5-1.9l.3-1.1-1.6-.4-.3 1.1c-1.3-.2-2.4 0-3.4.6s-1.6 1.5-2 2.7c-.3 1.2-.3 2.3.2 3.3q.6 1.5 2.7 2.7l-1.2 4.6c-.4-.2-.7-.6-.9-1.1m2.9-6.6c-.4-.3-.7-.7-.9-1.1-.1-.4-.2-.8-.1-1.2s.3-.8.7-1.1.8-.4 1.2-.5zm.6 4.1q.9.6 1.2 1.2c.2.4.2.9.1 1.4-.1.6-.5 1-.9 1.3-.5.3-1 .5-1.6.4z" style="opacity:.95;fill:#fff"/></svg>