<svg xmlns="http://www.w3.org/2000/svg" xml:space="preserve" viewBox="0 0 512 512"><path d="M491.7 128.2 256.4-.3c-.2-.1-.3-.1-.4 0L20.7 127.2c-.1 0-.2.2-.2.3l-.4 256c0 .1.1.2.2.3l235.3 128.6h.2c.1 0 .1 0 .2-.1l235.3-127.5c.1 0 .2-.2.2-.3l.4-256c0-.1-.1-.2-.2-.3M216.8 239.1c-10.1-8.4-42.5-38.3-37.6-71.1 4.7-31.2 37.2-66 76.5-66.1.1 0 .2 0 .3-.1q5.7 0 11.4.9c23.8 3.6 45.7 16.6 58.6 34.9 8.7 12.3 12.2 25.7 9.9 37.8-6.7 34.5-41.2 63.4-41.5 63.7-7 5.9 35 159.3 38.2 170.9H179.2c3.4-11.5 47.5-162.7 37.6-170.9"/></svg>