<?xml version="1.0" encoding="utf-8"?>
<!-- Generator: Adobe Illustrator 28.2.0, SVG Export Plug-In . SVG Version: 6.00 Build 0)  -->
<svg version="1.1"
	 id="Layer_1" xmlns:rdf="http://www.w3.org/1999/02/22-rdf-syntax-ns#" xmlns:dc="http://purl.org/dc/elements/1.1/" xmlns:cc="http://creativecommons.org/ns#"
	 xmlns="http://www.w3.org/2000/svg" xmlns:xlink="http://www.w3.org/1999/xlink" x="0px" y="0px" viewBox="0 0 512 512"
	 style="enable-background:new 0 0 512 512;" xml:space="preserve">
<path d="M491.7,128.2L256.4-0.3c-0.2-0.1-0.3-0.1-0.4,0L20.7,127.2c-0.1,0-0.2,0.2-0.2,0.3l-0.4,256c0,0.1,0.1,0.2,0.2,0.3
	l235.3,128.6c0.1,0,0.1,0,0.2,0c0.1,0,0.1,0,0.2-0.1l235.3-127.5c0.1,0,0.2-0.2,0.2-0.3l0.4-256
	C491.9,128.4,491.8,128.3,491.7,128.2z M216.8,239.1c-10.1-8.4-42.5-38.3-37.6-71.1c4.7-31.2,37.2-66,76.5-66.1c0.1,0,0.2,0,0.3-0.1
	c3.8,0,7.6,0.3,11.4,0.9c23.8,3.6,45.7,16.6,58.6,34.9c8.7,12.3,12.2,25.7,9.9,37.8c-6.7,34.5-41.2,63.4-41.5,63.7
	c-7,5.9,35,159.3,38.2,170.9H179.2C182.6,398.5,226.7,247.3,216.8,239.1z"/>
</svg>
