<?xml version="1.0" encoding="utf-8"?>
<!-- Generator: Adobe Illustrator 28.2.0, SVG Export Plug-In . SVG Version: 6.00 Build 0)  -->
<svg version="1.1"
	 id="Layer_1" xmlns:svg="http://www.w3.org/2000/svg" xmlns:sodipodi="http://sodipodi.sourceforge.net/DTD/sodipodi-0.dtd" xmlns:inkscape="http://www.inkscape.org/namespaces/inkscape" xmlns:rdf="http://www.w3.org/1999/02/22-rdf-syntax-ns#" xmlns:dc="http://purl.org/dc/elements/1.1/" xmlns:cc="http://creativecommons.org/ns#"
	 xmlns="http://www.w3.org/2000/svg" xmlns:xlink="http://www.w3.org/1999/xlink" x="0px" y="0px" viewBox="0 0 512 512"
	 style="enable-background:new 0 0 512 512;" xml:space="preserve">
<path id="path4486" inkscape:connector-curvature="0" d="M256,0C114.6,0,0,114.6,0,256s114.6,256,256,256s256-114.6,256-256
	S397.4,0,256,0z M256,479.1c-40.2,0-72.8-26.9-72.8-60h145.7C328.8,452.2,296.2,479.1,256,479.1z M376.3,399.2H135.7v-43.6h240.6
	V399.2L376.3,399.2z M375.4,333.2h-239c-0.8-0.9-1.6-1.8-2.4-2.8c-24.6-29.9-30.4-45.5-36.1-61.4c-0.1-0.5,29.9,6.1,51.1,10.9
	c0,0,10.9,2.5,26.9,5.4c-15.3-18-24.5-40.9-24.5-64.2c0-51.3,39.4-96.2,25.2-132.4c13.8,1.1,28.6,29.2,29.6,73
	c14.7-20.3,20.8-57.4,20.8-80.1c0-23.5,15.5-50.9,31-51.8c-13.8,22.8,3.6,42.3,19.1,90.8c5.8,18.2,5.1,48.8,9.5,68.3
	c1.5-40.4,8.4-99.2,34-119.6c-11.3,25.6,1.7,57.6,10.5,73c14.3,24.8,23,43.7,23,79.3c0,23.9-8.8,46.3-23.7,63.9
	c16.9-3.2,28.6-6,28.6-6l54.9-10.7C414.1,268.8,406.1,301.6,375.4,333.2z"/>
</svg>
