<svg xmlns="http://www.w3.org/2000/svg" xml:space="preserve" viewBox="0 0 512 512"><path d="M403.1 126.3v337.4H459c29.2 0 52.9-24 52.9-53.6V60.2c0-10.1-11.6-15.6-19.3-9.2zm-78 65.7L223 283.3c-17.4 15.6-43.4 15.9-61.3.9L0 148.1V60.3c0-10.1 11.6-15.7 19.3-9.2l202.9 170.5c19.6 16.5 48.1 16.5 67.7 0z" style="opacity:.5;fill-rule:evenodd;clip-rule:evenodd;fill:#fff"/><path d="m403.1 126.4-78 65.6h.1L223 283.3c-17.4 15.6-43.4 15.9-61.3.9L0 148.1v262c0 29.6 23.7 53.6 52.9 53.6h350.2z" style="fill:#fff"/></svg>