<svg xmlns="http://www.w3.org/2000/svg" xml:space="preserve" viewBox="0 0 512 512"><radialGradient id="proton-drive_svg__a" cx="-475.865" cy="-11.075" r=".558" gradientTransform="matrix(1713.25 0 0 1560.3101 815830.375 17038.252)" gradientUnits="userSpaceOnUse"><stop offset=".556" style="stop-color:#6d4aff"/><stop offset="1" style="stop-color:#ff50c3"/></radialGradient><path d="m361.7 151.2-200.5 1.1c-8.6.1-17.1-2.6-24.1-7.5l-44.7-31.5c-7-4.9-15.3-7.5-23.9-7.5H0v307.9c0 29 23.7 52.5 52.9 52.5h350.2V192c0-22.6-18.5-41-41.4-40.8" style="fill:url(#proton-drive_svg__a)"/><linearGradient id="proton-drive_svg__b" x1="-4.504" x2="629.689" y1="80.554" y2="783.296" gradientTransform="translate(0 -256)" gradientUnits="userSpaceOnUse"><stop offset="0" style="stop-color:#7341ff"/><stop offset=".359" style="stop-color:#b487ff"/><stop offset="1" style="stop-color:#ffc8ff"/></linearGradient><path d="M241.3 88.2h217.8c29.2 0 52.9 23.5 52.9 52.5v272.9c0 29-23.7 52.5-52.9 52.5h-55.9V192c0-22.6-18.6-41-41.4-40.8l-200.5 1.1c-8.6.1-17.1-2.6-24.1-7.5l-44.7-31.5c-7-4.9-15.3-7.5-23.9-7.5H0v-7.3C0 69.5 23.7 46 52.9 46h99.4c10 0 19.8 3.2 27.8 9l33.2 24.2c8.2 5.8 18 9 28 9" style="fill-rule:evenodd;clip-rule:evenodd;fill:url(#proton-drive_svg__b)"/></svg>