<svg xmlns="http://www.w3.org/2000/svg" xml:space="preserve" viewBox="0 0 512 512"><linearGradient id="proton-mail_svg__a" x1="512.82" x2="408.125" y1="1064.761" y2="25.506" gradientTransform="translate(0 -254)" gradientUnits="userSpaceOnUse"><stop offset=".271" style="stop-color:#e3d9ff"/><stop offset="1" style="stop-color:#7341ff"/></linearGradient><path d="M403.1 126.3v337.4H459c29.2 0 52.9-24 52.9-53.6V60.2c0-10.1-11.6-15.6-19.3-9.2z" style="fill-rule:evenodd;clip-rule:evenodd;fill:url(#proton-mail_svg__a)"/><linearGradient id="proton-mail_svg__b" x1="241.782" x2="28.86" y1="736.939" y2="-103.892" gradientTransform="translate(0 -254)" gradientUnits="userSpaceOnUse"><stop offset="0" style="stop-color:#e3d9ff"/><stop offset="1" style="stop-color:#7341ff"/></linearGradient><path d="M325.1 192 223 283.3c-17.4 15.6-43.4 15.9-61.3.9L0 148.1V60.3c0-10.1 11.6-15.7 19.3-9.2l202.9 170.5c19.6 16.5 48.1 16.5 67.7 0z" style="fill-rule:evenodd;clip-rule:evenodd;fill:url(#proton-mail_svg__b)"/><radialGradient id="proton-mail_svg__c" cx="-1116.597" cy="-152.012" r="4.83" gradientTransform="matrix(123.614 0 0 125.045 138536.75 19107.547)" gradientUnits="userSpaceOnUse"><stop offset=".556" style="stop-color:#6d4aff"/><stop offset=".994" style="stop-color:#aa8eff"/></radialGradient><path d="m403.1 126.4-78 65.6h.1L223 283.3c-17.4 15.6-43.4 15.9-61.3.9L0 148.1v262c0 29.6 23.7 53.6 52.9 53.6h350.2z" style="fill:url(#proton-mail_svg__c)"/></svg>