<svg xmlns="http://www.w3.org/2000/svg" xml:space="preserve" viewBox="0 0 512 512"><path d="M512 250.8v180.8c0 25.7-20.8 46.5-46.5 46.5H75.6l.9-1.1 79.4-91.5c.4-.4.8-.8 1.2-1.3 12-13.4 19.4-31.5 19.4-51.5 0-41.1-31.2-74.5-69.7-74.5H0V80.4c0-25.7 20.8-46.5 46.5-46.5h248.7C414.9 33.9 512 131 512 250.8M157 384.2l-1.1 1.3L76.5 477l-.9 1.1H46.5C20.8 478.1 0 457.2 0 431.6v-25.2l90.6.7 16.2.1h1.8c.6 0 1.2 0 1.7-.1h.1c.3 0 .6 0 .9-.1 17.9-1.2 34-9.7 45.7-22.8" style="opacity:.5;fill-rule:evenodd;clip-rule:evenodd"/><path d="M101.4 372.5c-21.9 0-39.6-17.7-39.6-39.6s17.7-39.6 39.6-39.6S141 311 141 332.9c.1 21.9-17.7 39.6-39.6 39.6m302.5-103.2V478H75.6l.9-1.1 79.4-91.5c.4-.4.8-.8 1.2-1.3 12-13.4 19.4-31.5 19.4-51.5 0-41.1-31.2-74.5-69.7-74.5H0v-151h241.7c89.6 0 162.2 72.6 162.2 162.2" style="fill-rule:evenodd;clip-rule:evenodd"/></svg>