<?xml version="1.0" encoding="utf-8"?>
<!-- Generator: Adobe Illustrator 28.2.0, SVG Export Plug-In . SVG Version: 6.00 Build 0)  -->
<svg version="1.1" id="Layer_1" xmlns="http://www.w3.org/2000/svg" xmlns:xlink="http://www.w3.org/1999/xlink" x="0px" y="0px"
	 viewBox="0 0 512 512" style="enable-background:new 0 0 512 512;" xml:space="preserve">
<style type="text/css">
	.st0{fill-rule:evenodd;clip-rule:evenodd;fill:url(#SVGID_1_);}
	.st1{fill-rule:evenodd;clip-rule:evenodd;fill:url(#SVGID_00000068664730854599112580000004590049716504322226_);}
	.st2{fill:url(#SVGID_00000096045715489869972660000004615722405117638308_);}
</style>
<linearGradient id="SVGID_1_" gradientUnits="userSpaceOnUse" x1="512.8199" y1="1064.7605" x2="408.1255" y2="25.5064" gradientTransform="matrix(1 0 0 1 0 -254)">
	<stop  offset="0.271" style="stop-color:#E3D9FF"/>
	<stop  offset="1" style="stop-color:#7341FF"/>
</linearGradient>
<path class="st0" d="M403.1,126.3v337.4H459c29.2,0,52.9-24,52.9-53.6V60.2c0-10.1-11.6-15.6-19.3-9.2L403.1,126.3z"/>
<linearGradient id="SVGID_00000114789624276971504310000015192687437038034823_" gradientUnits="userSpaceOnUse" x1="241.7825" y1="736.9393" x2="28.8601" y2="-103.8918" gradientTransform="matrix(1 0 0 1 0 -254)">
	<stop  offset="0" style="stop-color:#E3D9FF"/>
	<stop  offset="1" style="stop-color:#7341FF"/>
</linearGradient>
<path style="fill-rule:evenodd;clip-rule:evenodd;fill:url(#SVGID_00000114789624276971504310000015192687437038034823_);" d="
	M325.1,192L223,283.3c-17.4,15.6-43.4,15.9-61.3,0.9L0,148.1V60.3c0-10.1,11.6-15.7,19.3-9.2l202.9,170.5
	c19.6,16.5,48.1,16.5,67.7,0L325.1,192z"/>
<radialGradient id="SVGID_00000124150363487391111630000003777016539677875354_" cx="-1116.5966" cy="-152.0124" r="4.8302" gradientTransform="matrix(123.614 0 0 125.045 138536.75 19107.5469)" gradientUnits="userSpaceOnUse">
	<stop  offset="0.5561" style="stop-color:#6D4AFF"/>
	<stop  offset="0.9944" style="stop-color:#AA8EFF"/>
</radialGradient>
<path style="fill:url(#SVGID_00000124150363487391111630000003777016539677875354_);" d="M403.1,126.4l-78,65.6h0.1L223,283.3
	c-17.4,15.6-43.4,15.9-61.3,0.9L0,148.1v262c0,29.6,23.7,53.6,52.9,53.6h350.2V126.4z"/>
</svg>
