<?xml version="1.0" encoding="utf-8"?>
<!-- Generator: Adobe Illustrator 28.2.0, SVG Export Plug-In . SVG Version: 6.00 Build 0)  -->
<svg version="1.1" id="Layer_1" xmlns="http://www.w3.org/2000/svg" xmlns:xlink="http://www.w3.org/1999/xlink" x="0px" y="0px"
	 viewBox="0 0 512 512" style="enable-background:new 0 0 512 512;" xml:space="preserve">
<style type="text/css">
	.st0{opacity:0.5;fill:#FFFFFF;}
	.st1{fill:#FFFFFF;}
</style>
<path class="st0" d="M154,64.7c35.7-35.7,53.6-53.6,74.2-60.3c18.1-5.9,37.6-5.9,55.7,0c20.6,6.7,38.4,24.5,74.2,60.3l89.3,89.3
	c35.7,35.7,53.6,53.6,60.3,74.2c5.9,18.1,5.9,37.6,0,55.7c-6.7,20.6-24.6,38.4-60.3,74.2L358,447.3c-35.7,35.7-53.6,53.6-74.2,60.3
	c-18.1,5.9-37.6,5.9-55.7,0c-20.6-6.7-38.5-24.6-74.2-60.3l-16.8-18.8c-10.2-11.4-15.2-17.1-18.9-23.6c-3.2-5.7-5.6-11.9-7-18.4
	c-1.6-7.2-1.6-14.9-1.6-30.1V155.5c0-15.3,0-22.9,1.6-30.1c1.4-6.4,3.8-12.6,7-18.3c3.6-6.5,8.7-12.2,18.9-23.6L154,64.7z"/>
<path class="st1" d="M147.6,71.1c17.9-17.9,26.8-26.8,37.1-30.1c9.1-2.9,18.8-2.9,27.9,0c10.3,3.3,19.2,12.3,37.1,30.1L383.5,205
	c17.9,17.9,26.8,26.8,30.1,37.1c2.9,9.1,2.9,18.8,0,27.9c-3.3,10.3-12.3,19.2-30.1,37.1L249.6,440.9c-17.9,17.9-26.8,26.8-37.1,30.1
	c-9.1,2.9-18.8,2.9-27.9,0c-10.3-3.3-19.2-12.3-37.1-30.1L64.7,358C29,322.3,11.1,304.5,4.4,283.9c-5.9-18.1-5.9-37.6,0-55.7
	c6.7-20.6,24.5-38.5,60.3-74.2L147.6,71.1z"/>
</svg>
