<svg xmlns="http://www.w3.org/2000/svg" xml:space="preserve" id="proton-lumo-dark_svg__em1kct6HZRV1" x="0" y="0" shape-rendering="geometricPrecision" text-rendering="geometricPrecision" version="1.1" viewBox="0 0 512 512"><style>.proton-lumo-dark_svg__st0{opacity:.7}</style><path d="M412.4 353.4v82.5h-92.6c-9.1-21.9-30.6-37.3-55.7-37.3h-19.6c-25 0-46.5 15.4-55.7 37.3H99.6v-82.5zM297 459.3c0 29.1-23.4 52.7-52.3 52.7s-52.3-23.6-52.3-52.7 23.4-52.7 52.3-52.7c28.8-.1 52.3 23.5 52.3 52.7m-36.1-7.8c0-9.1-7.3-16.4-16.3-16.4s-16.3 7.3-16.3 16.4c0 5.7 2.8 10.7 7.2 13.6v12.1c0 5 4.1 9.1 9.1 9.1s9.1-4.1 9.1-9.1v-12.1c4.3-2.9 7.2-7.9 7.2-13.6" class="proton-lumo-dark_svg__st0"/><path d="M316.5 459.3c0 29-23.2 52.4-51.8 52.7h-20.1c28.9 0 52.3-23.6 52.3-52.7 0-28.8-22.9-52.2-51.4-52.7h18.6c28.9-.1 52.4 23.5 52.4 52.7m36.1-276.7c-14.6 0-26.5 19.5-26.5 43.5s11.9 43.5 26.5 43.5 26.5-19.5 26.5-43.5-11.9-43.5-26.5-43.5m-202 43.5c0 24-11.9 43.5-26.5 43.5s-26.5-19.5-26.5-43.5 11.9-43.5 26.5-43.5 26.5 19.5 26.5 43.5m307.6-91.5-13.5-106c-3-23.9-29.7-36.4-49.8-23.4l-57.6 37.3c-25.4-9.2-52.7-14.3-81.2-14.3-27.4 0-53.8 4.8-78.4 13.4L121.5 5.2c-20.1-13-46.8-.5-49.8 23.4l-12.6 98.8c-28.8 37.7-45.8 82.3-45.8 126.7 0 112.4 145.7 152.4 242.8 152.4 110.4 0 242.8-40.1 242.8-152.4-.1-41.6-15.1-83.4-40.7-119.5M93.3 55.2c.7-5.8 7.3-8.9 12.2-5.7l28.1 18.2-45.9 31.1zm100.9 202.2c-15.4 35.9-60.4 50.9-100.5 33.4-22.4-9.8-38.6-27.6-45.8-47.6v.1c-15.4-29.1-3.8-66.6 24-83.6 45.4-29.9 115.6-1.1 124.7 53.1v-.2c4.2 14.7 3.8 30.3-2.4 44.8m48 35.7c-6.6 0-12 5.4-12 12.1 0 2.2-1.8 4-4 4s-4-1.8-4-4c0-6.7-5.4-12.1-12-12.1-2.2 0-4-1.8-4-4s1.8-4 4-4c6.6 0 12.4 3.2 16 8.2 3.7-4.9 9.5-8.2 16-8.2 2.2 0 4 1.8 4 4s-1.8 4-4 4M406.5 49.5c4.9-3.2 11.4-.1 12.2 5.7l5.6 43.6-45.9-31.1zm14.3 193.7c0-.1.1-.1 0 0-7.2 20-23.4 37.9-45.8 47.6-40.1 17.4-85.1 2.5-100.5-33.4-6.2-14.4-6.6-30.1-2.3-44.7v.1c9-54.2 79.3-83 124.7-53.2 27.7 17 39.4 54.4 23.9 83.6"/><path d="M196.6 212.7c-22.1-54-102.7-74.6-139-24.9-11.3 15.8-14.1 36.2-9.7 55.3-15.4-29.1-3.8-66.6 24-83.6 45.4-29.8 115.7-1 124.7 53.2 0 .1 0 0 0 0m75.5 0c9-54.2 79.3-83 124.7-53.2 27.8 17 39.4 54.5 24 83.6 4.4-19.1 1.6-39.6-9.7-55.4-36.2-49.6-116.9-29-139 25" class="proton-lumo-dark_svg__st0"/></svg>