<?xml version="1.0" encoding="utf-8"?>
<!-- Generator: Adobe Illustrator 28.2.0, SVG Export Plug-In . SVG Version: 6.00 Build 0)  -->
<svg version="1.1" id="Layer_1" xmlns="http://www.w3.org/2000/svg" xmlns:xlink="http://www.w3.org/1999/xlink" x="0px" y="0px"
	 viewBox="0 0 512 512" style="enable-background:new 0 0 512 512;" xml:space="preserve">
<style type="text/css">
	.st0{opacity:0.5;fill-rule:evenodd;clip-rule:evenodd;fill:#FFFFFF;}
	.st1{fill:#FFFFFF;}
</style>
<path class="st0" d="M403.1,126.3v337.4H459c29.2,0,52.9-24,52.9-53.6V60.2c0-10.1-11.6-15.6-19.3-9.2L403.1,126.3z M325.1,192
	L223,283.3c-17.4,15.6-43.4,15.9-61.3,0.9L0,148.1V60.3c0-10.1,11.6-15.7,19.3-9.2l202.9,170.5c19.6,16.5,48.1,16.5,67.7,0
	L325.1,192z"/>
<path class="st1" d="M403.1,126.4l-78,65.6h0.1L223,283.3c-17.4,15.6-43.4,15.9-61.3,0.9L0,148.1v262c0,29.6,23.7,53.6,52.9,53.6
	h350.2V126.4z"/>
</svg>
