<?xml version="1.0" encoding="utf-8"?>
<!-- Generator: Adobe Illustrator 28.2.0, SVG Export Plug-In . SVG Version: 6.00 Build 0)  -->
<svg version="1.1" id="Layer_1" xmlns="http://www.w3.org/2000/svg" xmlns:xlink="http://www.w3.org/1999/xlink" x="0px" y="0px"
	 viewBox="0 0 512 512" style="enable-background:new 0 0 512 512;" xml:space="preserve">
<style type="text/css">
	.st0{opacity:0.5;fill-rule:evenodd;clip-rule:evenodd;}
	.st1{fill-rule:evenodd;clip-rule:evenodd;}
</style>
<path class="st0" d="M512,250.8v180.8c0,25.7-20.8,46.5-46.5,46.5H75.6l0.9-1.1l79.4-91.5c0.4-0.4,0.8-0.8,1.2-1.3l0,0
	c12-13.4,19.4-31.5,19.4-51.5c0-41.1-31.2-74.5-69.7-74.5H0V80.4c0-25.7,20.8-46.5,46.5-46.5h248.7C414.9,33.9,512,131,512,250.8z
	 M157,384.2l-1.1,1.3L76.5,477l-0.9,1.1H46.5C20.8,478.1,0,457.2,0,431.6v-25.2l90.6,0.7l16.2,0.1c0.6,0,1.2,0,1.8,0
	c0.6,0,1.2,0,1.7-0.1c0,0,0,0,0.1,0c0.3,0,0.6,0,0.9-0.1C129.2,405.8,145.3,397.3,157,384.2L157,384.2z"/>
<path class="st1" d="M101.4,372.5c-21.9,0-39.6-17.7-39.6-39.6s17.7-39.6,39.6-39.6S141,311,141,332.9
	C141.1,354.8,123.3,372.5,101.4,372.5z M403.9,269.3V478H75.6l0.9-1.1l79.4-91.5c0.4-0.4,0.8-0.8,1.2-1.3l0,0
	c12-13.4,19.4-31.5,19.4-51.5c0-41.1-31.2-74.5-69.7-74.5H0v-151h241.7C331.3,107.1,403.9,179.7,403.9,269.3z"/>
</svg>
