<svg xmlns="http://www.w3.org/2000/svg" xml:space="preserve" viewBox="0 0 512 512"><path d="M512 256.1c0-33.9-42.4-66.1-107.6-86 15-66.3 8.3-119.1-21-136.1-6.8-4-14.6-5.9-23.2-5.9-28.7 0-66.2 20.5-104.2 56-38-35.3-75.7-55.4-104.3-55.4-8.8 0-16.7 1.9-23.6 5.8-29.4 17-36 69.6-20.8 135.7C42.2 190.2 0 222.3 0 256.1c0 33.9 42.4 66.1 107.6 86-15 66.3-8.3 119.1 21 136.1 6.8 4 14.7 5.8 23.4 5.8 28.7 0 66.2-20.5 104.2-56 38 35.3 75.5 55.5 104.2 55.5 8.8 0 16.7-1.9 23.6-5.8 29.4-17 36-69.6 20.8-135.7 65-20 107.2-52 107.2-85.9M360 51.5c4.8 0 8.6.9 11.9 2.7 14.2 8.2 20.4 39.1 15.6 79-1.1 9.8-3.1 20.1-5.3 30.7-20.5-5-42.8-8.9-66.2-11.4-14.1-19.3-28.7-36.9-43.5-52.2 34-31.6 65.9-48.8 87.5-48.8M163.5 309.6c4.9 8.2 9.9 16.4 15 24.3-14.8-2.2-29.1-4.9-42.8-8.2 3.9-13.4 8.6-27.3 14.1-41.2 4.4 8.4 8.8 16.8 13.7 25.1m-28.1-123.2c13.8-3.2 28.1-6 43-8.2-5.1 8.1-10.2 16.3-15 24.7-4.8 8.3-9.3 16.7-13.5 25-5.7-13.9-10.5-27.9-14.5-41.5m26.6 70c6.5-14 13.8-28 21.6-41.6 8.2-14.1 16.5-27.4 25.1-39.8 15.6-1.4 31.3-2 47.2-2 15.8 0 31.5.7 47 1.9 8.6 12.4 17.1 25.7 25.3 39.7 8 13.7 15.1 27.5 21.7 41.5-6.6 13.9-13.9 27.9-21.6 41.6-8.2 14.1-16.5 27.4-25.1 39.8-15.6 1.4-31.3 2-47.2 2-15.8 0-31.5-.7-47-1.9-8.6-12.4-17.1-25.7-25.3-39.7-7.9-13.6-15.1-27.5-21.7-41.5m186.5 52.8c4.8-8.3 9.2-16.7 13.5-25.1 5.7 14 10.5 28 14.4 41.5-13.7 3.3-28.1 6.1-43 8.3 5.2-8.1 10.3-16.3 15.1-24.7m-.1-106.5c-4.8-8.3-9.9-16.5-15-24.5 14.8 2.2 29.1 4.9 42.8 8.3-3.9 13.4-8.6 27.3-14.1 41.2-4.4-8.3-8.8-16.7-13.7-25m-63.7-52.5c-9.4-.5-19-.7-28.7-.7-9.8 0-19.6.2-29 .7 9.4-12.3 19.1-23.4 28.7-33.5 9.6 10.1 19.4 21.3 29 33.5M139.6 54.7c3.2-1.9 7.2-2.7 11.9-2.7 21.6 0 53.7 17.1 87.7 48.5-14.6 15.4-29.2 32.8-43.1 52.1-23.6 2.5-46 6.4-66.3 11.5-2.4-10.5-4.2-20.6-5.5-30.3-4.8-39.9 1.2-70.9 15.3-79.1m-26.5 265c-10.2-3.3-20-6.8-29.1-10.7-37-15.8-60.9-36.4-60.9-52.8S47 219 84 203.4c9-3.9 18.8-7.3 28.9-10.6 5.9 20.5 13.8 41.8 23.4 63.6-9.6 21.7-17.3 42.9-23.2 63.3M152 460.9c-4.8-.1-8.8-1-11.8-2.8-14.2-8.2-20.4-39.1-15.6-79 1.1-9.8 3.1-20.1 5.3-30.7 20.5 5 42.8 8.9 66.2 11.4 14.1 19.3 28.7 36.9 43.5 52.2-34 31.6-66 48.9-87.6 48.9m104.2-65.5c-9.7-10-19.5-21.2-29-33.5 9.4.5 19 .7 28.7.7 9.8 0 19.6-.2 29-.7-9.3 12.4-19.1 23.5-28.7 33.5m116.3 62.2c-3.2 1.9-7.2 2.7-11.9 2.7-21.6 0-53.6-17.2-87.6-48.6 14.6-15.4 29.2-32.8 43.1-52.1 23.6-2.5 46-6.4 66.3-11.5 2.3 10.6 4.1 20.7 5.3 30.4 4.9 39.8-1.1 70.9-15.2 79.1M427.9 309c-9 3.9-18.8 7.3-28.9 10.6-5.9-20.5-13.8-41.8-23.4-63.6 9.6-21.7 17.3-42.9 23.2-63.3 10.4 3.2 20.1 6.8 29.4 10.7 37 15.8 60.9 36.4 60.9 52.8-.4 16.2-24.3 37.1-61.2 52.8m-172-100.6c26.3 0 47.7 21.3 47.7 47.7s-21.3 47.7-47.7 47.7-47.7-21.3-47.7-47.7 21.4-47.7 47.7-47.7"/></svg>