<?xml version="1.0" encoding="utf-8"?>
<!-- Generator: Adobe Illustrator 28.2.0, SVG Export Plug-In . SVG Version: 6.00 Build 0)  -->
<svg version="1.1"
	 id="svg10" xmlns:rdf="http://www.w3.org/1999/02/22-rdf-syntax-ns#" xmlns:dc="http://purl.org/dc/elements/1.1/" xmlns:cc="http://creativecommons.org/ns#" xmlns:svg="http://www.w3.org/2000/svg" xmlns:sodipodi="http://sodipodi.sourceforge.net/DTD/sodipodi-0.dtd" xmlns:inkscape="http://www.inkscape.org/namespaces/inkscape"
	 xmlns="http://www.w3.org/2000/svg" xmlns:xlink="http://www.w3.org/1999/xlink" x="0px" y="0px" viewBox="0 0 512 512"
	 style="enable-background:new 0 0 512 512;" xml:space="preserve">
<style type="text/css">
	.st0{fill-rule:evenodd;clip-rule:evenodd;fill:#FFE6D5;}
	.st1{fill:#83331B;}
	.st2{fill:#F8A37B;}
	.st3{fill:#DA845D;}
	.st4{fill:#DEE6E3;}
	.st5{fill:#D4541E;}
	.st6{fill:#852E1B;}
	.st7{fill:#FFFFFF;}
	.st8{fill:#E2591E;}
	.st9{fill:#83BAD2;}
	.st10{fill:#BA4A1F;}
	.st11{fill:#6F2717;}
	.st12{fill:#E66733;}
	.st13{fill:#94401D;}
	.st14{fill:#EF5D22;}
	.st15{fill:#C74D1F;}
	.st16{fill:#F46A2F;}
	.st17{fill:#FDDD04;}
	.st18{fill:#391913;}
	.st19{fill:#A33F1E;}
	.st20{fill:#DE581D;}
	.st21{fill:#D5D0CD;}
	.st22{fill:#A6B9B5;}
	.st23{fill:#F6854F;}
	.st24{fill:#F06C34;}
	.st25{fill-rule:evenodd;clip-rule:evenodd;fill:#E66001;}
</style>
<circle id="path2188" class="st0" cx="255.9" cy="256.2" r="245.8"/>
<path id="path568" inkscape:connector-curvature="0" class="st1" d="M87.7,301l44.2-51.9l331.5-1.1l-43.1,53H87.7"/>
<path id="path570" inkscape:connector-curvature="0" class="st2" d="M87.7,301v139.3c25.1,1.1,44.2,10.9,44.2,22.4h257.8
	c-2.2-2.7-3.3-6-3.3-9.3c0-12,14.7-21.8,33.9-22.9V301L87.7,301L87.7,301z"/>
<path id="path572" inkscape:connector-curvature="0" class="st3" d="M278.3,324.4c5.5-2.7,13.7-11.5,8.7-20.2
	c-1.1-1.6-1.6-2.7-2.7-3.3h22.4c-2.7,6.6-13.1,14.2-13.1,14.2s-1.1,1.6-5.5,5.5C284.8,322.3,281,323.9,278.3,324.4 M212.2,323.9
	c-2.7-1.1-6.6-3.3-9.3-6.6c-4.9-4.9-5.5-11.5-5.5-11.5l-3.3-5.5h13.1c-1.1,0.5-1.6,1.6-2.7,3.3C199.6,312.4,207.3,320.6,212.2,323.9
	 M273.4,321.7c-2.7-0.5-8.2-1.1-13.7-2.7c-8.2-2.7-12.6-8.7-12.6-8.7s-8.7,5.5-20.8,7.6c-3.8,0.5-6.6,1.1-8.2,1.1l0,0
	c0-3.8-1.1-8.2-1.1-8.2s-2.2-7.1-5.5-9.3h14.2h54.6c-3.3,2.2-5.5,9.3-5.5,9.3S273.4,316.8,273.4,321.7"/>
<path class="st4" d="M216.6,310.2c0,0,2.7,13.1,0,14.7c-2.7,1.6-19.1-9.8-12-21.3C211.1,292.8,216.6,310.2,216.6,310.2 M274.5,310.2
	c0,0-2.7,13.1,0,14.7c2.7,1.6,19.1-9.8,12-21.3C279.9,292.8,274.5,310.2,274.5,310.2"/>
<path id="path578" inkscape:connector-curvature="0" class="st5" d="M177.2,199.9c3.3,14.7-6.6,28.9-20.8,31.7
	c-14.7,3.3-28.9-6.6-31.7-20.8c-3.3-14.7,6.6-28.9,20.8-31.7C159.8,175.9,174,185.2,177.2,199.9"/>
<path id="path580" inkscape:connector-curvature="0" class="st6" d="M166.9,183.5c-6-4.4-13.7-6-21.3-4.4
	c-14.7,3.3-24,17.5-20.8,31.7c0.5,3.3,1.6,6,3.3,8.7C139.6,215.8,157.6,205.9,166.9,183.5"/>
<path id="path582" inkscape:connector-curvature="0" class="st7" d="M165.2,202.7c1.6,8.2-3.3,15.8-11.5,18
	c-8.2,1.6-15.8-3.3-18-11.5c-1.6-8.2,3.3-15.8,11.5-18C155.9,189,163.6,194.5,165.2,202.7"/>
<path id="path584" inkscape:connector-curvature="0" class="st8" d="M349.8,195c-6,0-12-3.8-14.2-10.4c-2.7-7.6,1.6-16.4,9.3-18.6
	c4.4-1.6,25.1-9.8,19.1-29.5c-4.4-14.2-13.1-16.4-38.2-19.1c-4.9-0.5-9.3-1.1-14.2-1.6c-18-2.7-31.1-9.8-39.3-21.8
	c-12-17.5-7.1-37.7-6.6-39.9c2.2-8.2,10.4-12.6,18-10.9c8.2,2.2,12.6,10.4,10.9,18c0,0-2.2,9.3,2.7,15.8c3.3,4.9,9.3,7.6,18.6,8.7
	c4.4,0.5,8.7,1.1,13.1,1.6c23.5,2.7,53,5.5,63.9,39.3c11.5,36-16.4,59.5-38.2,66.6C353.1,195,351.5,195,349.8,195"/>
<path class="st6" d="M296.8,77.6l-0.5-0.5c-9.8,6-22.4,7.6-28.9,7.6c1.1,3.3,2.7,6,4.9,9.3c2.7,3.8,6,7.1,9.8,10.4
	c13.1-2.2,23.5-12,29.5-18.6C304.5,84.1,299.6,81.4,296.8,77.6 M328.5,118c10.9,1.1,18,2.2,23.5,4.4c3.8-6,8.7-16.4,10.9-27.9
	c-7.6-3.3-16.4-4.9-24.6-6C338.9,96.7,338.3,109.3,328.5,118 M394.1,155.1c1.6-6.6,1.6-14.2,0-22.4c-2.7,2.2-6.6,4.4-11.5,6
	c-8.2,2.2-13.7,2.2-17.5,1.6c1.6,8.2-1.6,14.2-6,18C372.2,163.3,385.3,159.5,394.1,155.1"/>
<path id="path594" inkscape:connector-curvature="0" class="st9" d="M365.1,147L365.1,147L365.1,147L365.1,147v-1.1
	c0-0.5,0-1.6,0-2.2v-0.5c0-1.1,0-1.6,0-2.7l0,0c0-1.1-0.5-2.7-1.1-3.8c0.5,1.1,0.5,1.6,0.5,2.7l0,0C365.7,142,365.7,144.8,365.1,147
	 M364.6,136.6L364.6,136.6c-2.2-7.1-6-11.5-12-14.2l0,0C358.6,125.1,361.8,129.5,364.6,136.6L364.6,136.6 M328.5,118
	c-1.1,0-2.2,0-2.7-0.5c-4.9-0.5-9.3-1.1-14.2-1.6c0,0,0,0-0.5,0c0,0,0,0,0.5,0c4.9,0.5,9.8,1.1,14.2,1.6
	C326.9,118,328,118,328.5,118L328.5,118 M311,115.8L311,115.8L311,115.8 M310.5,115.8L310.5,115.8L310.5,115.8"/>
<path id="path596" inkscape:connector-curvature="0" class="st10" d="M391.9,161.7c-1.6-1.1-3.3-2.2-4.9-3.8
	c2.7-1.1,4.9-2.2,7.1-3.3l0,0C393.5,157.3,393,159.5,391.9,161.7 M370,139.9c-2.2,0-3.8,0-4.9-0.5c0-1.1-0.5-1.6-0.5-2.7l0,0l0,0
	c-2.2-7.1-6-11.5-12-14.2c1.1-2.2,2.7-4.9,4.4-8.2c7.6,3.3,12.6,7.6,16.4,15.3c1.6,3.3,2.2,6.6,1.6,9.8
	C373.3,139.9,371.7,139.9,370,139.9 M328.5,118c-1.1,0-2.2,0-2.7-0.5c-4.9-0.5-9.3-1.1-14.2-1.6c0,0,0,0-0.5,0l0,0l0,0l0,0l0,0
	c-13.1-2.2-24-6.6-31.7-14.2c1.1,1.1,1.6,1.6,2.7,2.7c1.6,0,3.3-0.5,4.4-1.1c7.6,2.2,16.9,4.4,28.4,4.9c7.6,0.5,14.2,1.1,20.2,1.6
	C333.4,112.5,331.8,115.3,328.5,118"/>
<path id="path598" inkscape:connector-curvature="0" class="st11" d="M281.5,104.4c-1.1-0.5-2.2-1.6-2.7-2.7
	c-1.1-0.5-1.6-1.6-2.2-2.2c2.7,1.1,6,2.7,9.8,3.8C284.8,103.8,283.2,103.8,281.5,104.4"/>
<path id="path600" inkscape:connector-curvature="0" class="st11" d="M352.5,122.4c-5.5-2.2-13.1-3.3-23.5-4.4l0,0
	c2.7-2.7,4.9-5.5,6.6-8.2c8.7,1.1,15.8,2.2,21.8,4.4C355.3,117.5,353.6,120.2,352.5,122.4L352.5,122.4"/>
<path id="path602" inkscape:connector-curvature="0" class="st11" d="M387,157.9c-6.6-4.4-13.7-8.2-21.8-10.9c0.5-2.2,0.5-4.9,0-7.6
	l0,0c1.1,0,2.7,0.5,4.9,0.5c1.6,0,3.3,0,4.9-0.5c0,1.6-0.5,3.3-0.5,4.4c7.1,3.3,13.7,6.6,19.7,10.9
	C391.9,156.2,389.1,157.3,387,157.9"/>
<path id="path604" inkscape:connector-curvature="0" class="st12" d="M388,130c0,0-12-16.9-27.3-25.1c0.5-2.2,1.1-3.8,1.6-6
	c2.7,1.1,4.9,2.7,6.6,4.4C382.6,113.6,388,130,388,130 M338.3,95.6c-8.7-3.3-15.3-4.9-15.3-4.9s6.6,0,15.3,1.6
	C338.3,92.9,338.3,94.5,338.3,95.6"/>
<path id="path606" inkscape:connector-curvature="0" class="st13" d="M360.7,104.4c-1.1-0.5-2.7-1.1-3.8-2.2
	c-6.6-2.7-12.6-4.9-18-7.1c0-1.1,0-2.2,0-3.3c7.6,1.1,16.4,3.3,23.5,6.6C361.8,100.5,361.3,102.7,360.7,104.4"/>
<path id="path608" inkscape:connector-curvature="0" class="st14" d="M225.3,177.5c0,0,39.3-46.4,119.6-35.5
	c80.3,11.5,109.8,115.8,109.8,115.8L420.3,301h-195V177.5"/>
<path id="path610" inkscape:connector-curvature="0" class="st6" d="M237.9,166.1c8.7-2.2,21.8-4.4,43.1-2.7
	c50.8,3.3,116.3,84.7,116.3,84.7s-28.9-92.3-121.8-101C258.6,152.4,246.1,160.1,237.9,166.1"/>
<path id="path612" inkscape:connector-curvature="0" class="st15" d="M396.2,287.9h-11.5c-3.3-8.7-19.1-50.2-44.2-72.1
	c-20.8-18-50.8-38.8-88.5-40.4c2.2,0,3.8,0,5.5,0c27.3,0,50.8,9.8,69.4,22.4c0-0.5,0-0.5,0-1.1c0.5-3.8,2.2-7.1,4.4-10.4
	c15.3,10.9,29.5,24,40.4,35.5c-2.7,2.7-6,4.4-9.3,6C382,249.6,394.1,280.2,396.2,287.9 M379.3,211.9c-7.6-12-18.6-25.1-32.2-36
	c0.5,0,0.5,0,1.1-0.5h0.5c0.5,0,1.6,0,2.2-0.5h0.5c0.5,0,1.6,0,2.2,0h0.5l0,0c0.5,0,1.1,0,2.2,0h0.5c1.1,0,1.6,0,2.7,0.5
	c14.7,3.3,24,17.5,20.8,31.7C380.4,209.2,379.9,210.3,379.3,211.9L379.3,211.9L379.3,211.9"/>
<path id="path614" inkscape:connector-curvature="0" class="st11" d="M372.8,221.2c-10.9-11.5-25.1-24.6-40.4-35.5
	c1.6-2.2,3.8-4.4,6-6l0,0c0.5-0.5,1.6-1.1,2.2-1.6l0,0c0.5-0.5,1.6-1.1,2.2-1.1l0,0c0.5-0.5,1.6-0.5,2.2-1.1h0.5
	c0.5,0,0.5,0,1.1-0.5c14.2,11.5,24.6,24.6,32.2,36c-0.5,1.6-1.1,2.7-2.2,3.8l0,0C376,217.9,374.4,219.6,372.8,221.2"/>
<path id="path616" inkscape:connector-curvature="0" class="st5" d="M316.5,196.1c-3.3,14.7,6.6,28.9,20.8,31.7
	c14.7,3.3,28.9-6.6,31.7-20.8c3.3-14.7-6.6-28.9-20.8-31.7C334,172.6,319.2,181.9,316.5,196.1"/>
<path id="path618" inkscape:connector-curvature="0" class="st6" d="M326.9,180.3c6-4.4,13.7-6,21.3-4.4c14.7,3.3,24,17.5,20.8,31.7
	c-0.5,3.3-1.6,6-3.3,8.7C353.6,211.9,335.6,202.7,326.9,180.3"/>
<path id="path620" inkscape:connector-curvature="0" class="st7" d="M328,198.8c-1.6,8.2,3.3,15.8,11.5,18c8.2,1.6,15.8-3.3,18-11.5
	c1.6-8.2-3.3-15.8-11.5-18C337.8,185.7,329.6,190.6,328,198.8"/>
<path id="path622" inkscape:connector-curvature="0" class="st16" d="M121.5,301l-13.1-13.7c0,0,42.1-85.7,100.5-105.9
	c57.9-19.7,103.8,9.8,132.2,34.4c28.4,24.6,44.8,73.7,44.8,73.7L375.5,301H121.5"/>
<path id="path624" inkscape:connector-curvature="0" class="st6" d="M188.7,216.3c0,0,47.5-37.7,56.8-37.7
	c9.3,0,54.6,32.8,54.6,32.8l-7.6,9.3c0,0-39.9-32.2-47.5-32.2s-44.8,32.2-44.8,32.2L188.7,216.3"/>
<path id="path626" inkscape:connector-curvature="0" class="st6" d="M212.2,230.5c0,0,27.3-22.9,35-22.9s33.9,20.2,33.9,20.2
	l-7.1,13.7c0,0-20.8-22.4-26.8-22.4c-6,0-29.5,20.8-29.5,20.8L212.2,230.5"/>
<path id="path628" inkscape:connector-curvature="0" class="st7" d="M108.4,287.3l36.6-12.6c0,0-12-38.2,22.4-56.8
	s49.7,0.5,54.1,11.5c4.9,10.9,4.9,39.9,4.9,39.9h41c0,0-0.5-43.1,16.9-55.2s43.7-13.7,54.1,8.7c10.4,22.9,0,42.6,0,42.6l47,23.5
	l-10.4,11.5H121.5L108.4,287.3"/>
<path class="st17" d="M216.6,248c0,8.7-7.1,16.4-16.4,16.4c-8.7,0-16.4-7.1-16.4-16.4c0-8.7,7.1-16.4,16.4-16.4
	S216.6,238.7,216.6,248 M308.9,248c0,8.7-7.1,16.4-16.4,16.4c-8.7,0-16.4-7.1-16.4-16.4c0-8.7,7.1-16.4,16.4-16.4
	S308.9,238.7,308.9,248"/>
<path class="st18" d="M212.2,248c0,6.6-5.5,11.5-11.5,11.5c-6.6,0-11.5-5.5-11.5-11.5c0-6,5.5-11.5,11.5-11.5S212.2,241.4,212.2,248
	 M304.5,248c0,6.6-5.5,11.5-11.5,11.5c-6.6,0-11.5-5.5-11.5-11.5c0-6,4.9-11.5,11.5-11.5C299,236.5,304.5,241.4,304.5,248"/>
<path class="st7" d="M198,240.9c0,2.7-2.2,4.9-4.9,4.9s-4.9-2.2-4.9-4.9s2.2-4.9,4.9-4.9S198,238.2,198,240.9 M290.3,240.9
	c0,2.7-2.2,4.9-4.9,4.9c-2.7,0-4.9-2.2-4.9-4.9s2.2-4.9,4.9-4.9C288.1,236,290.3,238.2,290.3,240.9"/>
<path id="path642" inkscape:connector-curvature="0" class="st15" d="M420.3,301h-33.9l10.4-11.5c0,0,0-0.5-0.5-1.6h24l31.7-38.8
	c2.2,5.5,2.7,8.7,2.7,8.7l0,0l0,0L420.3,301"/>
<path id="path644" inkscape:connector-curvature="0" class="st19" d="M386.4,301h-11.5l10.4-11.5c0,0,0-0.5-0.5-1.6h11.5
	c0.5,1.1,0.5,1.6,0.5,1.6L386.4,301"/>
<path id="path646" inkscape:connector-curvature="0" class="st20" d="M385.9,289.5l-3.3-1.6h2.7
	C385.3,288.9,385.9,289.5,385.9,289.5L385.9,289.5"/>
<path id="path648" inkscape:connector-curvature="0" class="st21" d="M374.9,301H121.5l-13.1-13.1H382l3.3,1.6L374.9,301"/>
<path id="path650" inkscape:connector-curvature="0" class="st7" d="M221.5,265.5c0,0-15.3,3.8-21.3,18.6
	c-5.5,14.7,2.2,25.7,14.7,28.4c13.1,2.7,31.7-6.6,31.7-6.6s15.3,14.7,33.9,10.9c18.6-3.8,24.6-24.6,15.3-37.7
	c-8.7-12.6-30.6-14.2-30.6-14.2S231.9,274.7,221.5,265.5"/>
<path id="path652" inkscape:connector-curvature="0" class="st22" d="M247.1,305.9c0,0,0.5,0.5,2.2,1.6V284c0-1.1-1.1-1.6-1.6-1.6
	c-1.1,0-1.6,1.1-1.6,1.6v22.4C246.6,306.4,247.1,305.9,247.1,305.9"/>
<path class="st6" d="M267.4,281.8c0,0,12-14.2,4.4-20.2c-7.6-6-15.3,4.4-25.1,3.3c-9.8-1.1-20.2-8.2-24-1.6
	c-4.4,7.1,6.6,15.3,6.6,15.3s2.7-7.1,8.7-3.8c6,3.3,1.1,10.9,1.1,10.9s4.4,3.3,8.2,3.8c3.8,0.5,9.8-4.4,9.8-4.4s-3.3-8.2,3.3-11.5
	C266.3,270.4,267.4,281.8,267.4,281.8 M148.3,238.2c0,0-9.3,12-8.2,29.5c0.5,17.5,26.2,33.3,26.2,33.3l-9.8-15.3
	c-2.7-3.8-1.6-8.7,2.2-12l15.3-12.6c0,0-20.8,6.6-24.6,1.6C145.6,257.8,148.3,238.2,148.3,238.2 M340.5,227.8c0,0-1.6,15.3-5.5,22.9
	c-3.8,7.6-16.9,4.4-16.9,4.4s14.7,7.6,14.7,12c0,4.9-9.8,19.7-9.8,19.7S355.3,266.6,340.5,227.8 M147.7,301c0,0-6.6-4.9-10.4-11.5
	c-4.4-6.6-5.5-10.9-5.5-10.9s-0.5,8.7,2.2,14.7c2.7,6,4.4,7.6,4.4,7.6H147.7 M345.4,301c0,0,6-4.9,11.5-14.2s7.1-21.3,7.1-21.3
	s2.7,17.5,1.1,24.6c-1.6,7.6-4.4,10.4-4.4,10.4h-15.3 M369.5,149.1c-7.6-3.3-15.8-5.5-24.6-7.1c-7.6-1.1-14.2-1.6-21.3-1.6
	c13.1,3.3,40.4,11.5,62.3,31.7c30,27.3,41.5,52.4,41.5,52.4S409.3,174.8,369.5,149.1 M388,182.4c0,0,19.7,15.3,31.1,45.3
	c11.5,30,11.5,37.7,11.5,37.7l-49.2-61.7l32.8,30C413.7,233.8,412.6,216.3,388,182.4"/>
<path id="path668" inkscape:connector-curvature="0" class="st23" d="M463.4,248l-43.1,53v122.9c3.3-4.4,7.1-6.6,10.9-6.6
	s7.6,2.2,10.4,6l21.3-38.8V248H463.4z"/>
<path id="path670" inkscape:connector-curvature="0" class="st6" d="M373.8,350.1H393v-16.4h8.7L383.1,313l-18.6,20.8h8.7v16.4"/>
<path id="path672" inkscape:connector-curvature="0" class="st6" d="M383.1,355h-18.6v6.6h36.6V355H383.1L383.1,355"/>
<path id="path674" inkscape:connector-curvature="0" class="st24" d="M371.1,160.1c-9.3-3.3-21.8-6.6-35.5-7.1c-1.6,0-3.8,0-5.5,0
	c-7.6,0-15.3,0.5-22.4,0.5c-3.8-1.1-7.6-2.2-11.5-3.3c8.7-2.2,19.7-3.8,31.7-3.8c3.3,0,6.6,0,9.8,0.5c4.4,0.5,8.7,1.1,12.6,1.6
	C356.4,151.9,364,155.7,371.1,160.1"/>
<path id="path676" inkscape:connector-curvature="0" class="st13" d="M273.9,157.3c0,0,8.7-3.8,21.8-7.1c3.8,1.1,7.6,2.2,11.5,3.3
	C289.2,155.1,273.9,157.3,273.9,157.3"/>
<path id="path678" inkscape:connector-curvature="0" class="st13" d="M385.9,166.6c0,0-5.5-3.3-14.7-6.6
	c-7.1-4.9-14.2-8.2-21.3-11.5C374.9,154.1,385.9,166.6,385.9,166.6"/>
<path id="path1131" inkscape:connector-curvature="0" class="st25" d="M255.9,0C114.4,0-0.3,114.7-0.3,256.2l0,0
	c0,141.4,114.7,256.1,256.1,256.1S512,397.6,512,256.2C512,114.7,397.3,0,255.9,0L255.9,0z M255.9,51.4
	c113,0,204.8,91.8,204.8,204.8S368.9,461,255.9,461S51.1,369.2,51.1,256.2S142.8,51.4,255.9,51.4z"/>
<path id="path586" inkscape:connector-curvature="0" class="st7" d="M296.8,77.6c-4.4-6.6-2.7-15.8-2.7-15.8
	c2.2-8.2-2.7-15.8-10.9-18c-8.2-2.2-15.8,2.7-18,10.9c-0.5,2.2-4.9,20.8,5.5,37.7c8.2-1.6,19.7-4.9,27.9-12.6
	C298.5,78.7,297.4,78.1,296.8,77.6"/>
</svg>
