<?xml version="1.0" encoding="utf-8"?>
<!-- Generator: Adobe Illustrator 28.2.0, SVG Export Plug-In . SVG Version: 6.00 Build 0)  -->
<svg version="1.1" id="Layer_1" xmlns="http://www.w3.org/2000/svg" xmlns:xlink="http://www.w3.org/1999/xlink" x="0px" y="0px"
	 viewBox="0 0 512 512" style="enable-background:new 0 0 512 512;" xml:space="preserve">
<g>
	<path d="M256.1,109.2c0.9,1.3,1.7,2.8,2.8,4c53.6,53.6,107.1,107.2,160.7,160.7c6.3,6.3,12.7,12.3,19.4,18.8
		c-2.1,2.2-3.4,3.7-4.8,5.1c-45.4,45.4-90.8,90.7-136.2,136.1c-1.7,1.7-3.5,3.1-5.3,4.7c-0.1-0.6-0.2-1.3-0.3-1.9
		c0-23.6,0-47.3,0.1-70.9c0.5-0.4,1.1-0.8,1.6-1.2c22.7-22.7,45.4-45.4,68.1-68.1c1-1,1.9-2.2,3-3.4c-1.2-1.3-2.2-2.4-3.3-3.5
		c-45.4-45.7-90.7-91.3-136.1-137c-2.2-2.2-4.7-4.2-7.1-6.3c0-24.1,0.1-48.2,0.1-72.2c0,0-0.1,0.1-0.1,0.1c0.6,0,1.2,0,1.8,0.1
		c0.6,1,1.1,2.1,1.9,2.9c10.2,10.2,20.4,20.4,30.6,30.6C254,108.2,255.2,108.6,256.1,109.2z"/>
	<path d="M291.8,439.4c-0.8,1.1-1.5,2.2-2.4,3.2c-22.4,22.5-44.9,44.9-67.3,67.3c-0.6,0.6-1.2,1.1-2.5,2.1c-0.2-1.8-0.5-2.9-0.5-4.1
		c0-21.5-0.1-43,0-64.5c0-1.7,0.2-4,1.3-5.1c6.1-6.2,12.4-12.2,18.7-18.2c4.4,1.4,9,2.6,13.3,4.3
		C265.6,429.2,278.7,434.4,291.8,439.4z"/>
	<path d="M220.7,74c-0.6,0-1.2,0-1.8-0.1c2.3-2.5,4.4-5,6.8-7.4c21.9-22,43.9-44,66.4-66.6c0.2,1.8,0.5,2.8,0.5,3.8
		c0,21.8,0.1,43.7-0.1,65.5c0,1.8-0.6,4.1-1.8,5.4c-6.2,6.4-12.7,12.5-19,18.7c-3.5-1.4-7.1-2.9-10.6-4.3
		C247.6,84,234.1,79,220.7,74z"/>
	<path d="M291.8,439.4c-13.1-5-26.2-10.2-39.4-15.1c-4.4-1.6-8.9-2.9-13.3-4.3c5.5-5.8,11-11.5,16.5-17.3c2.4,2,4.9,4,7.1,6.2
		c8.2,8.1,16.3,16.3,24.5,24.3c1.5,1.4,3.6,2.2,5.4,3.3c0.1,0.6,0.2,1.3,0.3,1.9C292.5,438.8,292.1,439.1,291.8,439.4z"/>
	<path d="M220.7,74c13.5,5,26.9,10,40.4,15c3.6,1.3,7.1,2.8,10.6,4.3c-5.2,5.3-10.3,10.6-15.5,15.9c-1-0.6-2.1-1-2.9-1.7
		c-10.2-10.1-20.4-20.3-30.6-30.6C221.8,76.1,221.3,75,220.7,74z"/>
	<path d="M210.3,284.1c-19.9-19.8-39.8-39.5-59.8-59.3c-1.8-1.8-3.9-3.2-6.5-5.4c3.3-3.1,5.9-5.5,8.3-7.9
		c22.2-21.8,44.3-43.6,66.5-65.4c0-24.1,0.1-48.2,0.1-72.2c-1,0.8-2.1,1.6-3.1,2.5c-46.5,46.5-93,92.9-139.5,139.4
		c-1.2,1.2-2.3,2.4-3.5,3.7c0.9,1,1.5,1.7,2.2,2.4c57.4,57.2,114.7,114.4,172.1,171.7c2.9,2.9,5.7,6.1,8.5,9.2c2.4,2,4.9,4,7.1,6.2
		c8.2,8.1,16.3,16.3,24.5,24.3c1.5,1.4,3.6,2.2,5.4,3.3c0-23.6,0-47.3,0.1-70.9C265.2,338.5,237.7,311.3,210.3,284.1z"/>
</g>
</svg>
