<?xml version="1.0" encoding="utf-8"?>
<!-- Generator: Adobe Illustrator 28.2.0, SVG Export Plug-In . SVG Version: 6.00 Build 0)  -->
<svg version="1.1" id="Layer_1" xmlns="http://www.w3.org/2000/svg" xmlns:xlink="http://www.w3.org/1999/xlink" x="0px" y="0px"
	 viewBox="0 0 512 512" style="enable-background:new 0 0 512 512;" xml:space="preserve">
<style type="text/css">
	.st0{fill:#904A04;}
	.st1{fill:#B26734;}
	.st2{fill:#6D3C0F;}
	.st3{fill:#BD6E35;}
	.st4{fill:#A56032;}
	.st5{fill:#3A3A3A;}
	.st6{fill:#444444;}
	.st7{fill:#515151;}
	.st8{fill:#303030;}
	.st9{fill:#AAAAAA;}
	.st10{fill:#A4571F;}
	.st11{fill:#824009;}
	.st12{fill:#3F3F3F;}
	.st13{fill:#CB63D3;}
	.st14{fill:#B25F8C;}
	.st15{fill:#91562D;}
	.st16{fill:#161616;}
	.st17{fill:#7C441E;}
	.st18{fill:#232323;}
	.st19{fill:#FFFFFF;}
	.st20{fill:#FFC33E;}
</style>
<path class="st0" d="M372.1,250.4c0,0-0.9,3.9-0.9,4.6c0,0.7-22.7-2-22.7-2l0.9-7.2L372.1,250.4z"/>
<path class="st0" d="M368.2,248.6c0,0-57.6-17.2-82.5-12.6c-24.9,4.6-8.8,18-8.8,18L368.2,248.6z"/>
<path class="st0" d="M139.8,251c0,0,0.9,3.9,0.9,4.6s22.7-2,22.7-2l-0.9-7.2L139.8,251z"/>
<path class="st0" d="M143.7,249.3c0,0,57.6-17.2,82.5-12.6s8.8,18,8.8,18L143.7,249.3z"/>
<ellipse class="st1" cx="259.6" cy="291" rx="105.4" ry="53.7"/>
<path class="st1" d="M228.2,239.9l-58.2,9.2l-37.6,5.8l-10.1,10.4v18.4l1.9,22.9l31.7,11.5l24.7,1.6
	C173.4,246,228.2,239.9,228.2,239.9z"/>
<path class="st2" d="M199.2,298.2c0,0-11.8-18.3-42.5-8.5c-30.8,9.8,17,18.3,17,18.3L199.2,298.2z"/>
<path class="st2" d="M111,447.1c0,0,20.3-22.7,66.6-26.3c18.1-1.4,13.9,41,13.9,41l30.8-27.5l60.3,4.9l24.4,18
	c0,0,15.6-38.7,45.4-37.9c29.8,0.8,47.8,24.4,47.8,24.4l-37.9-119.5h-219L111,447.1z"/>
<path class="st1" d="M311,352.9c-12.2,50.4-15.3,102.2-54.1,102.2c-38.7,0-41.4-46.4-52-98.2c-9.7-47.4,20.9-79,52-79
	c10,0.1,19.8,2.8,28.4,7.8C304.9,297.2,318.8,320.6,311,352.9z"/>
<path class="st3" d="M295.6,366.5c0,36.4-25.4,76.9-44.5,68.6c-20-8.7-30.7-34.6-34.6-72.4c-3.8-36,19.1-62.7,39.1-62.7
	C275.5,300,295.6,330.1,295.6,366.5z"/>
<path class="st1" d="M283.8,239.2l58.2,9.2l37.5,5.7l10.1,10.4V283l-1.9,22.9L356,317.4l-24.7,1.6
	C338.6,245.3,283.8,239.2,283.8,239.2z"/>
<polygon class="st4" points="217,241.9 239.8,291 262.7,315 281.3,289 302.8,241.9 271.6,236.6 241.2,238.9 "/>
<path class="st5" d="M307.8,317.8c0,0,6,30.8-5.8,34.7c-11.8,3.9-22.9-25.5-22.9-25.5h-24.9l-0.7-15.7l40.6-7.9L307.8,317.8z"/>
<path class="st5" d="M207.3,317.8c0,0-6,30.8,5.8,34.7S236,327,236,327h24.9l0.7-15.7l-40.6-7.9L207.3,317.8z"/>
<polygon class="st6" points="219,323.7 224.9,319.8 227.5,316.5 287.7,316.5 289.7,319.8 294.9,322.4 291,304 251.1,301.4 
	224.2,304 "/>
<path class="st7" d="M307.5,307.7c0,0,3.3,14.1-6.5,17s-13.1-17.4-13.1-17.4l7.2-2L307.5,307.7z"/>
<path class="st7" d="M207.2,307.7c0,0-3.3,14.1,6.5,17s13.1-17.4,13.1-17.4l-7.2-2L207.2,307.7z"/>
<polygon class="st8" points="270.1,295.5 296.9,295.5 308,308 296.2,308.6 281.8,306.7 270.7,308 "/>
<polygon class="st8" points="245.2,295.5 218.4,295.5 207.3,308 219.1,308.6 233.5,306.7 244.6,308 "/>
<polygon class="st7" points="270.7,308 243.9,308 238,295.5 277.9,295.5 "/>
<circle class="st9" cx="270" cy="300.1" r="2"/>
<path class="st9" d="M254.8,304h5.7c0.2,0,0.4,0.2,0.4,0.4v0.4c0,0.2-0.2,0.4-0.4,0.4h-5.7c-0.2,0-0.4-0.2-0.4-0.4v-0.4
	C254.3,304.2,254.5,304,254.8,304z"/>
<path class="st5" d="M215.3,322c2-3.7,3.3-7.8,3.9-12c0.1-0.4-0.6-0.4-0.7,0c-0.5,4.1-1.8,8.1-3.8,11.7
	C214.6,322,215.1,322.4,215.3,322L215.3,322z"/>
<path class="st5" d="M299.6,321.7c-2-3.6-3.3-7.6-3.8-11.7c-0.1-0.4-0.7-0.4-0.7,0c0.5,4.2,1.9,8.3,3.9,12
	C299.3,322.4,299.8,322,299.6,321.7L299.6,321.7z"/>
<path class="st10" d="M234,301.5c-57.3,55.6-69.5,164.7-69.5,164.7s-11-49.4-22.1-51.2c-14.7-2.5-31.1,30.2-31.1,30.2
	s14.9-60.8,9.5-82.2c-5-20.2-32.3-50.9-15.9-88.5c0,0,14.5-23.8,51.3-27.3c0,0-113,34.4,74.8,52.7h6.3L234,301.5z"/>
<path class="st0" d="M218.8,308.5c-45.6,44.3-54.6,135.2-54.6,135.2s-10.4-39.3-19.1-40.8c-11.7-2-25.6,23.7-25.6,23.7
	s15.7-49.1,8.4-65.1c-21.3-46.5-22.6-59.1-20.6-71.4c0,0,0-22.3,21.5-32c0,0-61.8,33.3,87.7,47.8h4.9L218.8,308.5z"/>
<path class="st2" d="M316.7,297.5c0,0,11.8-18.3,42.5-8.5s-17,18.3-17,18.3L316.7,297.5z"/>
<path class="st10" d="M277.9,300.8c57.3,55.6,69.5,164.7,69.5,164.7s11-49.4,22.1-51.2c14.7-2.5,31.2,30.2,31.2,30.2
	s-14.9-60.8-9.5-82.2c5-20.2,32.3-50.9,15.9-88.5c0,0-14.5-23.8-51.3-27.3c0,0,113,34.4-74.8,52.7h-6.3L277.9,300.8z"/>
<path class="st0" d="M293.2,307.8c45.6,44.3,54.6,135.2,54.6,135.2s10.4-39.3,19.1-40.8c11.7-2,25.6,23.7,25.6,23.7
	s-15.7-49.1-8.4-65.1c21.3-46.5,22.6-59.1,20.6-71.4c0,0,0-22.3-21.5-32c0,0,61.8,33.3-87.7,47.8h-4.9L293.2,307.8z"/>
<path class="st4" d="M183.9,246.6c0,0,9.5,18.2,46.3,18.2c1.7,0-3.8-2.8-3.8-2.8s-23.8,1.4-38.7-15.7
	C186.1,244.4,183.9,246.6,183.9,246.6z"/>
<polygon class="st10" points="138.7,290.1 138.7,306.9 146.9,292.6 "/>
<polygon class="st10" points="133.6,286.5 133.6,298.7 139.5,288.3 "/>
<polygon class="st10" points="373.2,289.4 373.2,306.3 365.1,291.9 "/>
<polygon class="st10" points="378.3,285.9 378.3,298 372.4,287.6 "/>
<polygon class="st11" points="218.5,235.9 216.9,241.7 230.8,241.9 231.4,236.6 "/>
<polygon class="st11" points="303.2,235.5 302.7,242 290.8,239.7 291.6,234.7 "/>
<path class="st1" d="M219.3,414.3c-8.8,0-16.7,21.9-16.7,38.9c0,12.9,5.2,25.2,11.6,30.3l-2.7,7.8l18.2,1.7l-1.2-11.4
	c3.7-4.7,6.5-12.9,10-22.9C244.6,440.7,228,414.3,219.3,414.3z"/>
<path class="st1" d="M309,451c0-17-7.9-38.9-16.7-38.9c-8.8,0-22,25.6-16.7,43.6c2.8,9.5,4.7,17.5,7.5,22.5l-1.2,12.5l18.2-1.7
	l-2.6-7.7C303.8,476.1,309,463.9,309,451z"/>
<path class="st10" d="M220.1,501.7l-4.5,3.8l-6.5,6.5c-1.2-2.6,0.4-6.8,2-9.8c-7.5,1.8-12.6,6.6-12.6,6.6l13.5-19l17.6,2.3l8,19.8
	C231.6,505.3,225.5,502.5,220.1,501.7z M313.1,506.5l-13.5-19l-17.6,2.3l-8,19.8c5.5-6,10.9-8.9,16-9.9l4.5,3.8l6.5,6.5
	c1.3-2.9-0.7-7.5-2.3-10.4C307.2,501,313.1,506.5,313.1,506.5z"/>
<path class="st12" d="M222.3,263.3H236c1.5,0,2.7,1.2,2.7,2.7v3.2c0,1.5-1.2,2.7-2.7,2.7h-13.6c-1.5,0-2.7-1.2-2.7-2.7V266
	C219.7,264.5,220.9,263.3,222.3,263.3z"/>
<path class="st8" d="M319.7,106.8c0,0,0-4.5-9.3-5.9c-3.8-0.6-25.6-0.3-25.6-0.3l-6.8-15c0,0,30.1,0.3,39.6,5
	c9.5,4.6,7.4,11.8,6.5,19.3 M183.2,115.7c0,0-0.6-4.5,8.4-7.1c3.7-1,25.3-3.6,25.3-3.6l8.8-16c0,0-33.9,4.5-42.7,10.3
	c-8.8,5.8-5.8,12.7-3.9,19.9"/>
<path class="st1" d="M215.8,224.3c-0.6,1.7,1.9,4.4,2.8,5.5c7.2,9,12.8,19.2,19.2,28.8c2.8,4.2,20.3,30,25.7,24.3
	c9.2-9.7,15.9-21.8,22.5-33.3c6.9-12.2,13.1-24.9,16.9-38.3c0.2-0.4,0.2-0.9,0.2-1.4c-0.4-3.6-16.1-3.9-19.1-4.4l-9-1.4
	c-0.8-0.1-2.9-0.9-3.7-0.6l-42.1,15.7l-8.4,3.1c-1.1,0.4-4.3,0.6-4.9,1.8C215.9,224.2,215.9,224.3,215.8,224.3z"/>
<polygon class="st10" points="221.9,227.6 246.8,266.7 252.9,272.1 260.6,278.8 268.2,271.1 290,236.9 301.4,209.8 269.7,205.5 "/>
<polyline class="st13" points="285.3,239.1 232.3,236.4 246.1,264.6 251.3,269.8 258.5,275.7 263.1,271.8 266.3,268.5 269.6,263.9 
	"/>
<polygon class="st14" points="247.4,257.2 251.9,265 257.8,270.9 280,251.3 254.6,248.7 "/>
<path class="st3" d="M263.9,0c-2,0.3-4.2,2.7-5.2,3.9c-14,17-22.5,37.8-29.8,58.6c-4,11.3-7.7,22.7-12,33.9
	c-4.2,10.9-10,21.2-13.8,32.2c-4.2,12.5-5.8,25.8-5,38.9c1,18.9,3.7,42.4,17.4,56.8c21,22.1,36.1,37.8,36.1,37.8l8.9,7.1l9.1-8.2
	c0,0,24.4-21.7,27.1-31.3s2.8-8.9,5-14s5.9-5.4,8.7-19.5c6.7-34-5.3-68.6-17.1-100.1c-6.7-17.9-13.8-35.7-18.3-54.2
	c-2-8-3.4-16.1-5.1-24.2c-0.8-4-1.7-8-2.7-12c-0.3-1.4-0.5-4.8-2-5.5C264.7,0,264.3,0,263.9,0z"/>
<path class="st1" d="M265.6,0.5c1.5,2-0.8,3.6-0.6,6c0.3,3,0.6,5.9,0.9,8.8c0.7,6.1,1.6,12.1,2.7,18.2c2.1,11.9,4.8,23.6,8.2,35.2
	c9.3,32,23.4,63.2,24.2,96.5c0.9,33.9-12.5,67-31.1,95.4c19.9-17.1,34.5-36.2,40.8-66.1c3.5-16.6,1.8-34.4-1.8-51
	c-1.8-8.1-5.8-15.4-7.9-23.3c-2.3-8.7-5.2-17.2-8.2-25.7c-6-16.9-12.7-33.7-17.7-50.9c-3.3-11.5-4.4-23.5-7.3-35.1
	c-0.2-0.8-1.1-9.8-4-8.3"/>
<path class="st15" d="M241.5,216.7c1.2-0.4,2.7,1.2,3.5,3.5c0.8,2.3,0.4,4.5-0.7,4.9c-1.2,0.4-2.7-1.2-3.5-3.5
	S240.3,217.1,241.5,216.7z M271.9,220.1c0.8-2.3,2.3-3.9,3.5-3.5c1.2,0.4,1.5,2.6,0.7,4.9c-0.8,2.3-2.3,3.9-3.5,3.5
	S271.2,222.4,271.9,220.1z"/>
<path class="st12" d="M308.8,142.2l8.6-0.6c0.9-0.1,1.6,0.6,1.7,1.5l3.2,49c0.1,0.9-0.6,1.6-1.5,1.7l-8.6,0.6
	c-0.9,0.1-1.6-0.6-1.7-1.5l-3.2-49C307.3,143,308,142.2,308.8,142.2z"/>
<path class="st16" d="M321.1,144l3.9-0.3l3,46.4l-3.9,0.3L321.1,144z M326.6,146.9l3.9-0.3c0.7,0,1.3,0.5,1.4,1.2l2.5,38.5
	c0,0.7-0.5,1.3-1.2,1.4l-3.9,0.3c-0.7,0-1.3-0.5-1.4-1.2l-2.5-38.5C325.3,147.6,325.8,147,326.6,146.9z"/>
<path class="st8" d="M318.3,195.3l-0.3-9.2l2.3-4l-2.3-36l-3.9-4.3l-0.4-1.3l5.2-1l3.4,1.8l3.3,50.9l-3.1,2.8L318.3,195.3z
	 M331.6,193.1l-3.4-52.2l-1.6-3.8l-2.3-28.5l-4.5-1.8l2.9,31.4l0.1,0l0,0.4l1.9,5.1l3.1,47.7l-2,3.4L331.6,193.1z"/>
<path class="st8" d="M176.1,184.2l2.2-0.1c0.7,0,1.2,0.5,1.3,1.1l0.5,7.4c0,0.7-0.5,1.2-1.1,1.3l-2.2,0.1c-0.7,0-1.2-0.5-1.3-1.1
	l-0.5-7.4C174.9,184.8,175.4,184.3,176.1,184.2z"/>
<path class="st12" d="M202,201.5l-8.6,0.6c-0.9,0.1-1.6-0.6-1.7-1.5l-3.2-49c-0.1-0.9,0.6-1.6,1.5-1.7l8.6-0.6
	c0.9-0.1,1.6,0.6,1.7,1.5l3.2,49C203.5,200.7,202.9,201.5,202,201.5z"/>
<path class="st16" d="M182.7,153l3.9-0.3l3,46.4l-3.9,0.3L182.7,153z M184.3,197.5l-3.9,0.3c-0.7,0-1.3-0.5-1.4-1.2l-2.5-38.5
	c0-0.7,0.5-1.3,1.2-1.4l3.9-0.3c0.7,0,1.3,0.5,1.4,1.2l2.5,38.5C185.6,196.8,185,197.4,184.3,197.5z"/>
<path class="st8" d="M174.7,181c0,0-33.1,96.6,55.7,90.8l1.9-0.1l-0.4-5.9c0,0-72.4,15.8-54.5-71.9c2.9-14.1-0.8-12.4-0.8-12.4
	L174.7,181z M196.1,203.3l-0.9-9.2l-2.8-3.7l-2.4-35.9l3.3-4.8l0.3-1.4l-5.3-0.3l-3.2,2.2l3.4,50.9l3.4,2.4L196.1,203.3z
	 M188.6,203.7l-5.9-0.9l-3.4-52.2l1.1-3.9l-1.2-27.7l4.1-3.4l1.1,31.5l-0.2,0l0.1,0.5l-0.1,0.1L183,153l3.1,47.6L188.6,203.7z"/>
<path class="st17" d="M200.9,137.6c3.2-2.2,7.4-2.5,11.1-2.9c4.3-0.5,8.7-0.8,12.9,0.3c3.7,1,5.2-4.7,1.6-5.7
	c-5-1.3-10.1-1.1-15.2-0.5c-4.5,0.6-9.4,1-13.3,3.6C194.8,134.6,197.8,139.7,200.9,137.6L200.9,137.6z M282.5,132.9
	c7-2.9,14.8-3.4,22.1-1.3c3.7,1,5.2-4.7,1.6-5.7c-8.3-2.4-17.2-1.9-25.3,1.3c-1.5,0.6-2.5,2-2.1,3.6
	C279.3,132.2,281.1,133.5,282.5,132.9L282.5,132.9z"/>
<path class="st18" d="M266.7,173.9c-0.2-3-5.6-6.7-12.1-6.4S243,172,243.2,175c0.2,3,5.2-1.5,11.7-1.8
	C261.4,172.9,266.8,176.9,266.7,173.9z"/>
<path class="st19" d="M220,138.6c12.7-0.6,23.7,13.1,24.6,30.6c0.9,17.5-8.7,32.3-21.4,32.9c-12.7,0.6-23.7-13.1-24.6-30.6
	C197.7,154,207.3,139.3,220,138.6z M286.1,135.3c12.7-0.6,23.7,13.1,24.6,30.6s-8.7,32.3-21.4,32.9s-23.7-13.1-24.6-30.6
	C263.8,150.7,273.4,136,286.1,135.3z"/>
<path class="st18" d="M222.5,181.2c-4.3,0-7.8,3.5-7.8,7.8s3.5,7.8,7.8,7.8s7.8-3.5,7.8-7.8S226.8,181.2,222.5,181.2z M224.2,194.7
	c-1.2,0-2.1-0.9-2.1-2.1c0-1.2,0.9-2.1,2.1-2.1s2.1,0.9,2.1,2.1C226.3,193.8,225.4,194.7,224.2,194.7z M207.6,148
	c-3.6,5.1-5.7,7.9-8.1,8c-2.4,0.1-4.7-4.2-4.9-9.5c-0.3-5.2,14.9-6,17.4-6.1C214.3,140.3,208.4,146.8,207.6,148z M307.2,150.6
	c-2.4,0.1-4.9-2.4-8.9-7.2c-1-1.1-7.5-6.9-5-7c2.4-0.2,17.6-0.9,17.9,4.3C311.4,145.9,309.6,150.5,307.2,150.6z M290,177.1
	c-4.7,0-8.5,3.8-8.5,8.5c0,4.7,3.8,8.5,8.5,8.5c4.7,0,8.5-3.8,8.5-8.5C298.5,180.9,294.7,177.1,290,177.1z M287.8,192.1
	c-1.3,0-2.3-1-2.3-2.3s1-2.3,2.3-2.3s2.3,1,2.3,2.3S289.1,192.1,287.8,192.1z"/>
<ellipse transform="matrix(0.943 -0.3328 0.3328 0.943 -37.2716 74.0097)" class="st20" cx="197.4" cy="145.8" rx="1.4" ry="0.6"/>
<ellipse transform="matrix(0.4315 -0.9021 0.9021 0.4315 48.7658 357.7018)" class="st20" cx="308.2" cy="140.2" rx="0.6" ry="1.4"/>
<path class="st11" d="M183.9,246.9c0,0-2.3-5.1-2.5-6.8c-0.1-0.4,2.8-0.5,2.8-0.5l3.6,6.6L183.9,246.9z"/>
</svg>
