<?xml version="1.0" encoding="utf-8"?>
<!-- Generator: Adobe Illustrator 28.2.0, SVG Export Plug-In . SVG Version: 6.00 Build 0)  -->
<svg version="1.1" id="Layer_1" xmlns="http://www.w3.org/2000/svg" xmlns:xlink="http://www.w3.org/1999/xlink" x="0px" y="0px"
	 viewBox="0 0 512 512" style="enable-background:new 0 0 512 512;" xml:space="preserve">
<style type="text/css">
	.st0{fill:#FFA647;}
	.st1{fill:#F6E4B9;}
	.st2{fill:#DBB380;}
	.st3{fill:#FFFFFF;}
	.st4{fill:#5D3051;}
	.st5{fill:#FF5252;}
</style>
<path class="st0" d="M85.1,174.4c11.2,0.1,21.9,4.9,29.4,13.3c16,18,16,45,0,63c-14.3,16.2-39.1,17.8-55.3,3.5
	c-1.3-1.1-2.4-2.3-3.5-3.5c-4.8-5.3-8.3-11.6-10.2-18.5c-1.1,7.9-1.6,15.9-1.6,23.9c0,98.9,80.2,179.1,179.1,179.1
	c35.4,0.1,70-10.3,99.6-29.7c29.2-19.1,52.1-46.5,65.5-78.8c13.8-33.6,25.2-43.5,36-42.4c0.5-0.6,1-1.2,1.5-1.8
	c5.5-7.5,7.7-19.2,7.1-30.8c-0.7-11.6-4.2-23-10.2-29.8c-0.4-0.5-0.9-1-1.3-1.4c-8.5,0.9-19.9-11.4-40.1-49.1
	C334.3,84.2,225.7,51.4,138.5,98.1c-35.6,19.1-63.7,49.6-79.8,86.7C65.9,178.2,75.3,174.5,85.1,174.4L85.1,174.4z"/>
<path class="st1" d="M384.1,177.2c-1-1.8-2-3.7-3.1-5.7C334.3,84.3,225.7,51.4,138.4,98.2c-30.7,16.5-56,41.6-72.7,72.2
	C154.9,44,313.3,61.6,384.1,177.2L384.1,177.2z M51.1,306.5c22.4,76.2,92.4,128.6,171.9,128.6c35.4,0.1,70-10.3,99.6-29.7
	c29.2-19.1,52.1-46.5,65.5-78.8c13.8-33.6,25.2-43.5,36-42.4c0.5-0.6,1-1.2,1.5-1.8c4.2-5.7,6.5-13.9,7.1-22.7
	c-35.3,2.2-57.1,20.9-73,39.6c4.2-20.4-5.2-45.3-20.2-46.8c-28.7-3.1-42.6,11.1-54.1,21.5c-10.4-7-21.2-11.8-36.3-9.9
	c-34.2,4.3-55.7,32.4-85,34.9s-55.3-23.8-85.5-22.6C58.6,277.4,52.8,294.8,51.1,306.5L51.1,306.5z M429.2,214.8l0.6,0.7
	c7.6,8.5,12,22.1,12.7,35.8c0.8,13.7-2,27.5-8.8,36.9c4.5,2.9,8.6,7.3,13,11.8c7.7,8.1,16.2,16.9,26.1,16.5
	c14.7-0.5,23.8-18.3,27.4-41.3c1.9-12.4,2.3-25,1.3-37.6c-0.8-12.4-3.2-24.6-6.9-36.4c-6.8-20.4-18-35-32.9-33.1
	c-15.5,1.9-21.6,19.1-26.3,32.3C433.4,206,431.6,211.1,429.2,214.8L429.2,214.8z M137.8,112c12.2-3.5,23.5-1.7,25.1,4
	c1.6,5.7-7,13.2-19.2,16.7s-23.5,1.7-25.1-4C116.9,123,125.5,115.5,137.8,112z M191.6,92.3c10.8-1.2,20,1.8,20.6,6.9
	c0.6,5-7.7,10.1-18.5,11.3c-10.8,1.2-20-1.8-20.6-6.9C172.5,98.7,180.8,93.6,191.6,92.3z M193.1,120.5c8.4-1,15.6,1.4,16,5.3
	c0.4,3.9-6,7.9-14.4,8.8c-8.4,1-15.6-1.4-16-5.3C178.3,125.4,184.7,121.5,193.1,120.5z M250.7,94c9.2,0.7,16.4,4.8,16,9
	c-0.3,4.3-8,7.1-17.2,6.4s-16.3-4.8-16-9S241.5,93.3,250.7,94z M301.2,112c8,2.8,13.4,8.1,12.1,11.8c-1.3,3.7-8.8,4.5-16.8,1.7
	s-13.4-8.1-12.1-11.8C285.6,110,293.2,109.2,301.2,112L301.2,112z M344.3,142.9c7,4.7,11,11.2,8.8,14.4c-2.2,3.2-9.7,2.1-16.7-2.6
	c-7.1-4.7-11-11.2-8.8-14.4S337.2,138.2,344.3,142.9z M302.7,160.7c7.8,3.4,12.8,9.1,11.2,12.7c-1.6,3.6-9.2,3.8-16.9,0.4
	s-12.8-9.1-11.2-12.7C287.4,157.5,295,157.3,302.7,160.7z"/>
<path class="st2" d="M51.1,306.5c22.4,76.2,92.4,128.6,171.9,128.6c35.4,0.1,70-10.3,99.6-29.7c29.2-19.1,52.1-46.5,65.5-78.8
	c13.8-33.6,25.2-43.5,36-42.4c0.5-0.6,1-1.2,1.5-1.8c1.7-2.4,3.1-5.1,4.1-7.9c-39-10.5-53.5,35.2-82.1,74
	c-51,69.4-153.3,85.8-224,38.2C71.8,352.1,51.1,306.5,51.1,306.5L51.1,306.5z"/>
<path class="st2" d="M439,278.1c-1.3,3.6-3,6.9-5.2,10c4.5,2.9,8.6,7.3,13,11.8c7.7,8.1,16.2,16.9,26.1,16.5
	c14.7-0.5,23.8-18.3,27.4-41.3c1.9-12.4,2.3-25,1.3-37.6c-0.8-12.4-3.2-24.6-6.9-36.4c15.3,72.2-33.4,88.7-50,79.7
	C442.7,279.8,440.8,278.9,439,278.1L439,278.1z M49.7,331.6c-2.3,0.9-4.8,1.7-7.4,2.5c-4,1.2-8.1,2.1-12.3,2.8
	c-2.7,0.4-5.2-1.5-5.6-4.2c-0.4-2.6,1.4-5.1,4-5.5c3.7-0.6,7.4-1.5,11.1-2.5c2.3-0.7,4.5-1.4,6.5-2.2c-1.1-3-2.1-5.9-3.1-9
	c-2.6,0.4-5.3,0.8-8.1,1c-4.2,0.3-8.3,0.4-12.5,0.3c-2.7-0.1-4.9-2.4-4.7-5.1c0.1-2.7,2.4-4.9,5.1-4.7c3.8,0.2,7.6,0.1,11.3-0.2
	c2.2-0.2,4.3-0.4,6.2-0.7c-1.2-4.5-2.2-9-3.1-13.6c-5.5-1.4-11.4-2.3-16.4-1.7c-4.7,0.6-8.6,2.8-10,7.8c-2,7.7-0.6,20.1,2.9,32.7
	c2.9,10.5,7,20.7,12.2,30.3c4.4,7.8,8.9,13.3,12.6,14.3h0.1c0.3,0.1,0.6,0.1,0.9,0c7.3-2,12.2-4.9,15.9-8.3c2.9-2.8,5.4-6,7.4-9.5
	c-1.1-1.8-2.2-3.6-3.2-5.4c-1.7,1.3-3.5,2.6-5.4,3.8c-3.4,2.3-7,4.4-10.7,6.2c-2.4,1.2-5.4,0.2-6.6-2.2c-1.2-2.4-0.2-5.4,2.2-6.6
	c3.3-1.7,6.6-3.5,9.7-5.6c2.2-1.5,4.3-3,6.1-4.4c-1.8-3.4-3.4-6.9-4.9-10.4L49.7,331.6z"/>
<path class="st3" d="M107.3,194.4c-10.7-12.2-29.3-13.5-41.5-2.7c-1,0.9-1.9,1.8-2.7,2.7c-12.5,14.2-12.5,35.5,0,49.7
	c10.7,12.2,29.3,13.5,41.5,2.8c1-0.9,1.9-1.8,2.8-2.8C119.7,229.8,119.7,208.6,107.3,194.4z M251.4,194.4
	c-10.7-12.2-29.3-13.5-41.5-2.7c-1,0.9-1.9,1.8-2.7,2.7c-12.5,14.2-12.5,35.5,0,49.7c10.7,12.2,29.3,13.5,41.5,2.8
	c1-0.9,1.9-1.8,2.8-2.8C263.9,229.8,263.9,208.6,251.4,194.4z"/>
<path class="st4" d="M447.7,225.8c-2.1,1.8-5.2,1.5-7-0.5c-1.8-2.1-1.5-5.2,0.5-7l0,0c0,0,18.1-15.4,35.3-21.1
	c2.5-1,5.4,0.3,6.4,2.8c1,2.5-0.3,5.4-2.8,6.4c-0.2,0.1-0.3,0.1-0.5,0.2C464.4,211.6,447.7,225.8,447.7,225.8L447.7,225.8z
	 M447.3,276.3c-2.2-1.6-2.8-4.7-1.2-6.9c1.5-2.1,4.3-2.7,6.5-1.4c4.9,3.1,10.2,5.7,15.6,7.7c5.5,2.1,11.1,3.7,16.9,4.7
	c2.7,0.5,4.5,3,4,5.7c-0.5,2.7-3,4.5-5.7,4l0,0c-6.4-1.1-12.7-2.9-18.7-5.2C458.7,282.6,452.8,279.7,447.3,276.3L447.3,276.3z
	 M453.9,252.5c-2.7,0.3-5.2-1.6-5.5-4.3c-0.3-2.7,1.6-5.2,4.3-5.5l0,0c0.1,0,21.4-3,33.8-1.4c2.7,0.3,4.6,2.8,4.3,5.5
	c-0.3,2.7-2.8,4.6-5.5,4.3l0,0C474.2,249.7,453.9,252.5,453.9,252.5L453.9,252.5z M78.9,326.1c-2.9-11.3,11.7-13,13.4-2.5
	c0.8,6.1,0.9,14.9,4,21.2c2.8,5.9-0.7,6.7-4.2,4.1C87.4,345.3,81.7,336.6,78.9,326.1L78.9,326.1z M301.6,287.3
	c-2.7-0.2-4.8-2.5-4.6-5.2c0.2-2.7,2.5-4.8,5.2-4.6c5.8,0.3,11.7,0,17.4-0.9c5.8-0.8,11.5-2.2,17.1-4.2c2.6-0.9,5.4,0.5,6.3,3.1
	c0.9,2.5-0.5,5.3-3,6.2c-6.1,2.1-12.5,3.7-18.9,4.6C314.7,287.3,308.2,287.7,301.6,287.3L301.6,287.3z M296.8,318.4
	c-2.3-1.5-3-4.5-1.5-6.8c1.5-2.3,4.5-3,6.8-1.5l0,0c5,3.1,10.2,5.6,15.7,7.6c5.5,2.1,11.1,3.6,16.9,4.6c2.7,0.6,4.4,3.2,3.8,5.8
	c-0.5,2.5-2.9,4.2-5.5,3.9c-6.4-1.1-12.7-2.8-18.8-5.1C308.2,324.6,302.4,321.8,296.8,318.4L296.8,318.4z M300.2,302.9
	c-2.6-0.7-4.2-3.4-3.6-6s3.4-4.2,6-3.6c0,0,0.1,0,0.1,0c5.6,1.4,11.4,2.3,17.2,2.7c5.9,0.3,11.7,0.1,17.6-0.6
	c2.7-0.4,5.2,1.6,5.5,4.3c0.4,2.7-1.6,5.2-4.3,5.5c-6.4,0.8-12.9,1.1-19.4,0.7C312.9,305.6,306.5,304.6,300.2,302.9L300.2,302.9z
	 M156.9,337.7c-5.2-10.4,8.7-15.1,12.6-5.3c2.1,5.8,4.1,14.4,8.3,19.8c4,5.1,0.8,6.7-3.3,4.8C169.3,354.7,161.8,347.4,156.9,337.7z
	 M282.5,375.9c-9.2-7.2,1.4-17.4,9.2-10.2c4.4,4.3,9.8,11.3,16,14.4c5.8,2.9,3.6,5.8-0.9,5.8C301,385.9,291.1,382.6,282.5,375.9
	L282.5,375.9z M169.1,400.8c-5.2-10.4,8.7-15.1,12.6-5.3c2.1,5.8,4.1,14.4,8.3,19.8c4,5.1,0.8,6.7-3.3,4.8
	C181.5,417.7,174,410.5,169.1,400.8L169.1,400.8z M123.2,370.2c-5.3-10.4,8.7-15.1,12.6-5.3c2.1,5.8,4.1,14.4,8.3,19.8
	c4,5.1,0.8,6.7-3.3,4.8C135.5,387.2,128,379.9,123.2,370.2z M228.5,399.3c-7.5-9,5-16.7,11-8c3.4,5.1,7.2,13.1,12.6,17.4
	c5.1,4.1,2.3,6.4-2.1,5.5C244.4,413,235.5,407.7,228.5,399.3z M224.2,348.1c-7.5-9,5-16.7,11-8c3.4,5.1,7.2,13.1,12.6,17.4
	c5.1,4.1,2.3,6.4-2.1,5.5C240.1,361.8,231.1,356.5,224.2,348.1z M332.3,380.5c-10.9-4.2-3.8-17,5.8-12.4c5.4,2.8,12.7,7.9,19.5,9.1
	c6.4,1.1,5.1,4.5,0.8,5.8C352.9,384.7,342.5,384.4,332.3,380.5z M85.1,174.4C85.1,174.4,85.1,174.4,85.1,174.4
	C85.1,174.4,85.1,174.4,85.1,174.4L85.1,174.4z M510,276.7c-4.4,27.5-16.4,48.9-36.9,49.6c-14.3,0.5-24.3-10-33.5-19.6
	c-5-5.2-9.7-10.1-13.9-11.9c-7.1-2.9-15.3,3.7-28.4,35.6c-3.3,8.2-7.3,16.1-11.8,23.6l0.2-0.4c2,0.9,4.1,1.6,6.3,2
	c6.4,1.1,5.1,4.5,0.8,5.8c-4.1,1-8.4,1.3-12.5,0.7c-13.2,19.7-30.1,36.6-49.8,49.9c2.5,1.6,5.2,2.8,8,3.6c6.3,1.6,4.7,4.9,0.3,5.9
	c-4.4,1-12,0.4-19.8-2.2c-9.9,5.7-20.3,10.5-31,14.4c5.4,1.7,3.7,4.7-0.4,5.6c-3.5,0.8-8.9,0.6-14.9-0.8
	c-16.2,4.3-32.9,6.5-49.7,6.5c-5.9,0-11.7-0.3-17.4-0.8c2.1,2.1,4.5,3.9,7.1,5.3c5.8,3,3.5,5.8-1,5.8c-5.8,0-15.6-3.5-24.1-10.3
	c-1.4-1-2.4-2.4-3.1-4c-21.9-4.5-42.8-12.9-61.8-24.8c0.5,4.1,1.7,8,3.5,11.7c3.1,5.7-0.4,6.8-4.1,4.2c-4.8-3.3-10.9-11.7-14.1-22.1
	c-0.5-1.4-0.6-3-0.4-4.4c-14.9-11.5-28.1-25.2-39-40.6c-1.9,2.8-4.1,5.4-6.6,7.7c-4.8,4.4-11,8.1-20,10.6c-1.9,0.5-4,0.5-5.9,0
	l-0.3-0.1c-6.4-1.7-12.9-9-18.6-18.9c-5.7-10.3-10.1-21.2-13.1-32.6c-3.9-14.3-5.5-28.5-2.9-37.9c2.6-9.8,9.7-13.9,18.3-15
	c5.3-0.5,10.7-0.2,16,1c-1-7.9-1.5-15.9-1.5-23.9c-0.1-50.1,19.8-98.2,55.3-133.6c5.8-5.7,11.9-11.1,18.3-16.1c-0.2-1.5,0-3,0.4-4.5
	c3.2-10.4,9.4-18.8,14.1-22.1c3.7-2.5,7.1-1.5,4.1,4.2c-1.8,3.4-2.8,7.6-3.5,11.8c18.9-11.9,39.8-20.3,61.7-24.9
	c0.6-1.6,1.7-2.9,3.1-4c8.5-6.8,18.3-10.3,24.1-10.3c4.5,0,6.8,2.8,1,5.8c-2.6,1.4-5,3.3-7.1,5.4c5.8-0.5,11.6-0.8,17.4-0.8l0,0
	c12.9,0,25.8,1.3,38.4,3.9c9.9-3.2,19.8-3.1,25.1-1.2c4.2,1.5,5.4,4.9-1,5.8c-1.3,0.2-2.5,0.5-3.7,0.8c13.4,4.4,26.2,10.2,38.3,17.4
	c0.9,0.5,1.7,1,2.6,1.6c9.9-0.9,18.9,1,23.5,3.7c3.9,2.3,4.4,5.8-2.1,5.5c-2.4-0.1-4.8,0.1-7.1,0.6c21.9,16.5,39.9,37.6,52.9,61.7
	c18,33.7,25.8,44.4,29.3,44.2c0.4-0.3,0.9-0.6,1.3-0.7c1.7-1.9,3.6-7.1,5.8-13.2c5.6-15.7,12.8-36.2,34.4-38.9
	c20.6-2.6,35.3,15,43.5,39.9c4,12.6,6.5,25.6,7.4,38.8C512.5,250.1,512,263.5,510,276.7z M101.2,241.1c2,0,3.7-1.7,3.7-3.7
	c0-2-1.7-3.7-3.7-3.7c-2,0-3.7,1.6-3.7,3.7c0,0,0,0,0,0C97.5,239.5,99.2,241.2,101.2,241.1z M116.4,214.9
	c-0.8-7.4-3.9-14.6-9.1-20.5c-10.7-12.2-29.3-13.5-41.5-2.7c-1,0.9-1.9,1.8-2.7,2.7c-12.5,14.2-12.5,35.5,0,49.7
	c8.4,9.6,21.7,12.4,33,8c-1.4,0.2-2.7,0.3-4.2,0.3c-14.8,0-26.8-12-26.8-26.8c0-5.2,1.5-10,4-14.1c0.6,5,4.9,8.9,10.1,8.9
	c5.6,0,10.2-4.6,10.2-10.2c0-4.5-3-8.4-7.1-9.7c3-1.1,6.2-1.8,9.6-1.8C102.8,198.8,112.2,205.4,116.4,214.9z M62.8,356.1
	c-1.1-1.8-2.2-3.6-3.2-5.4c-1.7,1.3-3.5,2.6-5.4,3.8c-3.4,2.3-7,4.4-10.7,6.2c-2.4,1.2-5.4,0.2-6.6-2.2c-1.2-2.4-0.2-5.4,2.2-6.6
	c3.3-1.7,6.6-3.5,9.7-5.6c2.2-1.5,4.3-3,6.1-4.4c-1.8-3.4-3.4-6.9-4.9-10.4l-0.1,0.1c-2.3,0.9-4.8,1.7-7.4,2.5
	c-4,1.2-8.1,2.1-12.3,2.8c-2.7,0.4-5.2-1.5-5.6-4.2c-0.4-2.6,1.4-5.1,4-5.5c3.7-0.6,7.4-1.5,11.1-2.5c2.3-0.7,4.5-1.4,6.5-2.2
	c-1.1-3-2.1-5.9-3.1-9c-2.6,0.4-5.3,0.8-8.1,1c-4.2,0.3-8.3,0.4-12.5,0.3c-2.7-0.1-4.9-2.4-4.7-5.1c0.1-2.7,2.4-4.9,5.1-4.7
	c3.8,0.2,7.6,0.1,11.3-0.2c2.2-0.2,4.3-0.4,6.2-0.7c-1.2-4.5-2.2-9-3.1-13.6c-5.5-1.4-11.4-2.3-16.4-1.7c-4.7,0.6-8.6,2.8-10,7.8
	c-2,7.7-0.6,20.1,2.9,32.7c2.9,10.5,7,20.7,12.2,30.3c4.4,7.8,8.9,13.3,12.6,14.3h0.1c0.3,0.1,0.6,0.1,0.9,0
	c7.3-2,12.2-4.9,15.9-8.3C58.3,362.8,60.8,359.6,62.8,356.1z M432.7,251.8c-0.7-11.6-4.2-23-10.2-29.8c-0.4-0.5-0.9-1-1.3-1.4
	c-8.5,0.9-19.9-11.4-40.1-49.1C334.3,84.2,225.7,51.4,138.5,98.1c-35.6,19.1-63.7,49.6-79.8,86.7c7.2-6.6,16.7-10.3,26.5-10.4
	c11.2,0.1,21.9,4.9,29.4,13.3c16,18,16,45,0,63c-14.3,16.2-39.1,17.8-55.3,3.5c-1.3-1.1-2.4-2.3-3.5-3.5
	c-4.8-5.3-8.3-11.6-10.2-18.5c-1.1,7.9-1.6,15.9-1.6,23.9c0,98.9,80.2,179.1,179.1,179.1c35.4,0.1,70-10.3,99.6-29.7
	c29.2-19.1,52.1-46.5,65.5-78.8c13.8-33.6,25.2-43.5,36-42.4c0.5-0.6,1-1.2,1.5-1.8C431.1,275,433.3,263.4,432.7,251.8z
	 M501.5,237.6c-0.8-12.4-3.2-24.6-6.9-36.4c-6.8-20.4-18-35-32.9-33.1c-15.5,1.9-21.6,19.1-26.3,32.3c-2,5.7-3.8,10.7-6.2,14.4v0
	l0.6,0.7c7.6,8.5,12,22.1,12.7,35.8c0.8,13.7-2,27.5-8.8,36.9c4.5,2.9,8.6,7.3,13,11.8c7.7,8.1,16.2,16.9,26.1,16.5
	c14.7-0.5,23.8-18.3,27.4-41.3C502.1,262.7,502.5,250.1,501.5,237.6z M258.7,187.7c16,18,16,45,0,63c-14.3,16.2-39.1,17.8-55.3,3.5
	c-1.3-1.1-2.4-2.3-3.5-3.5c-16-18-16-45,0-63c7.5-8.4,18.2-13.2,29.4-13.3C240.5,174.5,251.2,179.3,258.7,187.7z M251.4,194.4
	c-10.7-12.2-29.3-13.5-41.5-2.7c-1,0.9-1.9,1.8-2.7,2.7c-12.5,14.2-12.5,35.5,0,49.7c10.7,12.2,29.3,13.5,41.5,2.8
	c1-0.9,1.9-1.8,2.8-2.8C263.9,229.8,263.9,208.6,251.4,194.4z M353.6,253.3c-20.2-23.7-77.5,21.1-77.7,21.2
	c-2.2,1.7-2.6,4.8-0.9,6.9c1.7,2.2,4.8,2.6,6.9,0.9l0.1,0c0.2-0.1,50.1-39,64.1-22.6c3.2,3.7,5.5,9.7,7.1,16.9
	c2.6,11.7,2.9,26.1,0.8,39c-1.9,12.4-5.8,23.2-11.6,28.1c-1.3,1.1-2.8,2-4.5,2.4c-21.3,4.7-55.4-29.4-55.5-29.5
	c-1.9-1.9-5.1-1.9-7,0.1c-1.9,1.9-1.9,5.1,0.1,7c0.1,0.1,37.9,37.9,64.6,32.1c3.3-0.7,6.3-2.3,8.8-4.5c7.7-6.6,12.7-19.6,15-34.1
	c2.1-14,1.8-29.8-1-42.7C361,265.8,357.9,258.4,353.6,253.3z M196.1,270.5c0.2,1.8,0.1,3.7-0.3,5.4c-2.2,8.7-7.4,16.3-14.8,21.4
	c-7.8,5.3-17,8.1-26.4,8l0.1,0c-9.4,0.2-18.7-2.6-26.5-8c-7.3-5.1-12.6-12.7-14.8-21.4c-0.5-1.8-0.6-3.6-0.3-5.4
	c0.3-2.1,1.1-4,2.5-5.7c1.5-1.7,3.5-3,5.7-3.5c2.1-0.5,4.4-0.6,6.5-0.2c4.5,0.6,8.9,1.1,13.4,1.4c4.5,0.3,8.9,0.5,13.4,0.5
	c4.4,0,8.8-0.2,13.4-0.5c4.6-0.4,9-0.8,13.4-1.4c2.2-0.3,4.4-0.3,6.5,0.2c2.2,0.5,4.2,1.8,5.7,3.5
	C194.9,266.5,195.8,268.4,196.1,270.5z M176.8,291.3c1.1-0.8,2.2-1.7,3.2-2.6c-2.8-2.6-6.1-4.7-9.7-6.2c-10.3-4.1-21.7-4.1-32,0.2
	c-3.4,1.5-6.6,3.5-9.3,6c1,0.9,2.1,1.8,3.2,2.6C145.9,300.1,163.3,300.1,176.8,291.3z M257.2,225.6c0,14.8-12,26.8-26.8,26.8
	c-14.8,0-26.8-12-26.8-26.8c0-5.8,1.9-11.2,5-15.6c0,0.1,0,0.2,0,0.3c0,5.6,4.6,10.2,10.2,10.2c5.6,0,10.2-4.6,10.2-10.2
	c0-4.8-3.3-8.7-7.7-9.9c2.8-1,5.9-1.6,9.1-1.6C245.3,198.8,257.2,210.8,257.2,225.6z M244.6,237.5c0-2-1.7-3.7-3.7-3.7
	c-2,0-3.7,1.6-3.7,3.7c0,0,0,0,0,0c0,2,1.7,3.7,3.7,3.7C242.9,241.1,244.6,239.5,244.6,237.5z"/>
<path class="st5" d="M180.1,288.7c-2.8-2.6-6.1-4.7-9.7-6.2c-10.3-4.1-21.7-4.1-32,0.2c-3.4,1.5-6.6,3.5-9.3,6
	c1,0.9,2.1,1.8,3.2,2.6c13.5,8.8,30.9,8.8,44.4,0C178,290.5,179,289.6,180.1,288.7L180.1,288.7z"/>
</svg>
