<svg xmlns="http://www.w3.org/2000/svg" xml:space="preserve" viewBox="0 0 512 512"><path d="M478.5 42.4c-24.3-6-82.4 11.8-115.5 39.7-30.3 25.5-47.3 71-52.5 95.7-.3-13.6-3.9-35.4-14.9-50.2-13.2-17.9-40.2-33.7-53-33.6-7.1 16.1 2.4 43.1 15.5 61.1 12.9 17.5 34.1 28.3 51 30.5v.1c33 4.1 79.5-6.7 112.4-34.7 33.1-27.9 63.2-74.9 57-108.6" style="fill:#04ae19"/><path d="M256 213.2c-141.1 0-256 114.9-256 256v1.5h47v-1.5c0-115.7 93.3-209 209-209s209 93.3 209 209v1.5h47v-1.5c0-141.1-114.9-256-256-256" style="fill:#347dbe"/><path d="M256 292.2c-45.9.1-89.9 18.1-122.6 50.3l135.3 87 17.3-10.1V294.8c-9.9-1.8-20-2.6-30-2.6m59.6 10.6v111.9l24.5 14 66.7-49.9c-20.6-35.2-52.9-62.1-91.2-76M114 365.3C92.6 395 81.1 430.6 81 467.2c0 1.2.1 2.4.1 3.6h175.4l-.1-14c-.4-.2-.8-.4-1.1-.7zm305.8 40.8-66.4 49.7.1 15h77.4c.1-1.2.1-2.4.2-3.6-.2-20.9-4-41.6-11.3-61.1" style="fill:#ff9507"/></svg>