<?xml version="1.0" encoding="utf-8"?>
<!-- Generator: Adobe Illustrator 28.2.0, SVG Export Plug-In . SVG Version: 6.00 Build 0)  -->
<svg version="1.1" id="svg1" xmlns:svg="http://www.w3.org/2000/svg"
	 xmlns="http://www.w3.org/2000/svg" xmlns:xlink="http://www.w3.org/1999/xlink" x="0px" y="0px" viewBox="0 0 512 512"
	 style="enable-background:new 0 0 512 512;" xml:space="preserve">
<style type="text/css">
	.st0{clip-path:url(#SVGID_00000160889310035508926790000004530379983062451376_);fill:#FFFFFF;}
</style>
<g>
	<defs>
		<circle id="SVGID_1_" cx="256" cy="256" r="256"/>
	</defs>
	<clipPath id="SVGID_00000098918040723098063700000014390035779251695020_">
		<use xlink:href="#SVGID_1_"  style="overflow:visible;"/>
	</clipPath>
	<path id="path1" style="clip-path:url(#SVGID_00000098918040723098063700000014390035779251695020_);fill:#FFFFFF;" d="M-120.2,256
		v-376H256h376.2v376v376H256h-376.2V256z M273.1,338.2l2.6-22.3l-6-13.3l-6-13.3l-1,8.4c-0.5,4.6-2.4,23.8-4.1,42.6
		c-2,22-3.3,33.2-3.7,31.6c-0.3-1.4-1.3-11.3-2.3-22c-3.2-35-5.8-60.2-6.2-59.9c-0.2,0.2-2.9,6.2-6.1,13.3l-5.7,12.9l3.7,31
		c2,17,6,51.6,8.8,76.9c2.8,25.3,5.7,50.4,6.3,55.8s1.3,11.1,1.6,12.5c0.3,1.6,3.3-22.8,8-64.7C267.1,390.8,271.7,350.5,273.1,338.2
		L273.1,338.2z M235.4,439.3c0-0.5-0.5-3.4-0.9-6.4c-1-6.4,0.6-5.4-15.2-8.5c-32.9-6.3-63.9-23.6-89.3-49.7
		c-24.2-25-38.8-52.3-45.1-84.8c-0.9-4.4-1.7-8.7-1.9-9.6c-0.3-1.7-1.3-1.9-9.4-2.9l-4.3-0.5l0.5,4.3c1.7,14,6.7,32.4,12.8,46.9
		c19.2,45.4,60,84.2,107.1,101.9c8.7,3.3,24.3,7.5,32.5,8.7c3,0.5,6,1,6.6,1.1C231.9,440.4,235.4,440.2,235.4,439.3L235.4,439.3z
		 M287.3,438.7c19-3.2,35.7-8.8,52.8-17.5c51.3-26.3,87.8-73,98.4-125.8c1-5,2-11.2,2.3-13.8l0.5-4.7l-4.7,0.5c-8.5,1-8.7,1-9.1,4
		c-3,18.5-7.7,34-15,49c-8.3,17.1-18.9,31.8-33,45.9c-20.8,20.8-48.7,37.3-76,45.1c-7.4,2.1-20,4.8-22.6,4.8c-2.9,0-3.6,1-4.3,5.9
		c-0.4,2.6-0.9,5.5-1.1,6.4C275,440.7,275.9,440.7,287.3,438.7L287.3,438.7z M155,356.4c1.6-1.1,15.5-9.7,30.9-19.1
		c15.4-9.4,30.6-18.8,33.8-20.9l5.9-3.8l3.6-9.1c2-5,4.7-11.4,6-14.1c1.3-2.7,2.3-5,2.1-5c-0.2,0-4.7,3.6-10.1,8
		c-20.1,16.4-40.2,32.2-40.2,31.5c0-0.8,17-21.6,26.9-33c5.2-6,10.4-12,11.6-13.5l2.1-2.6l-2.5,1.1c-1.4,0.6-7.9,3.2-14.5,5.7
		c-9.6,3.7-12.4,5.1-13.7,6.9c-0.9,1.2-7.6,11.3-14.8,22.4c-7.2,11.1-17.4,26.6-22.5,34.4c-5.1,7.8-8.9,13.9-8.4,13.7
		C151.6,358.7,153.4,357.5,155,356.4z M353.5,348.7c-3.7-5.6-14.3-21.7-23.5-35.7c-9.2-14-17.3-25.9-17.9-26.4
		c-0.6-0.5-6.8-3.1-13.7-5.8c-6.9-2.7-13.2-5.2-14-5.5c-1.3-0.6-1.3-0.5-0.4,0.8c0.6,0.8,6.9,8.2,13.9,16.5
		c14.6,17,21.8,25.8,23.9,29c1.2,1.8,0.3,1.3-4.8-2.5c-8.9-6.8-22.3-17.4-34-27c-5.6-4.6-10.1-8.2-10.1-8.1c0,0.1,2.8,6.6,6.1,14.5
		l6.1,14.3l34.5,21.3c19,11.7,35.8,22.2,37.4,23.2c1.6,1.1,2.9,1.9,3,1.8C360.2,359,357.3,354.3,353.5,348.7L353.5,348.7z
		 M207.1,271.9c7.3-2.9,13.5-5.5,13.9-5.9c0.4-0.4-0.6-0.6-2.4-0.6c-1.7,0-7.5-0.5-12.8-1.1c-5.3-0.6-22.3-2.4-37.6-4.1
		c-24.7-2.7-32-3.6-27.1-3.6c1.4,0,68-6.8,76.7-7.8l4-0.5l-3.7-1.4c-2-0.8-8.5-3.4-14.5-5.9l-10.8-4.5l-13.4,1.5
		c-13.1,1.5-29.3,3.4-86.5,9.9c-68.3,7.9-76.1,8.9-73.1,9.4c1.6,0.3,24.8,3,51.4,6c26.7,3,62.4,7.1,79.3,9.1
		c38.6,4.6,35.3,4.2,39.7,4.4C193.2,277.1,196.3,276.2,207.1,271.9L207.1,271.9z M348.7,273.8c15.5-1.8,36.8-4.3,47.3-5.5
		c10.5-1.2,36.6-4.2,57.9-6.6c21.4-2.4,39-4.5,39.1-4.7c0.2-0.2-3.3-0.7-7.6-1.2c-7.5-0.8-51.6-5.9-98.3-11.4
		c-11.7-1.4-32.1-3.7-45.2-5.3l-23.9-2.8l-10.6,4.4c-5.8,2.4-12.2,5-14.1,5.8c-1.9,0.7-3.4,1.4-3.3,1.5c0.1,0.1,11.5,1.4,25.2,2.8
		c39.5,4,56.1,5.8,55.9,6.1c-0.1,0.1-5.3,0.7-11.6,1.3c-6.2,0.6-23.3,2.4-38,4c-14.7,1.6-27.9,2.9-29.3,2.9c-1.5,0-2.4,0.2-2.1,0.5
		c1.1,1.1,26.7,11.2,28.5,11.2C319.7,277.1,333.2,275.6,348.7,273.8L348.7,273.8z M215.8,225.2c-15.4-18.2-28.3-34.1-28-34.4
		c0.4-0.4,24.6,18.5,36.5,28.6c14.6,12.3,13.7,11.9,10.9,5.5c-1.3-3-4-9.5-5.9-14.4l-3.5-9l-6.4-4.2c-3.5-2.3-13-8.3-21-13.3
		s-22.2-13.8-31.5-19.6c-12.4-7.8-16.4-10-15.5-8.5c0.7,1.1,8.1,12.4,16.3,25.1c23.7,36.6,29.9,45.9,31,46.7c0.6,0.4,6.7,3,13.5,5.7
		c6.9,2.7,13,5.2,13.6,5.6c0.6,0.4,1.2,0.6,1.3,0.4C227.3,239.2,222.2,232.8,215.8,225.2z M303.4,231.3l8.8-3.4l7.2-11.2
		c10.5-16.3,36.3-55.5,38.8-58.9c1.2-1.6,2-3,1.8-3.2c-0.2-0.2-2.7,1.3-5.7,3.3c-3,2-19.3,12.3-36.2,22.8
		c-17,10.6-31.4,19.7-32.1,20.2c-0.7,0.5-3.4,6.4-6.1,13s-5.4,13-6,14.2l-1.1,2.1l1.8-1.4c1-0.8,7.1-5.7,13.5-11
		c11.3-9.3,32.6-25.9,34.8-27.1c0.9-0.5,0.9-0.4-0.1,0.8c-0.6,0.8-4.1,5-7.7,9.5c-3.6,4.4-12,14.5-18.7,22.4
		c-6.7,7.9-12.4,14.7-12.7,15.2c-0.3,0.5,2.1-0.2,5.2-1.6C292,235.8,298.5,233.1,303.4,231.3L303.4,231.3z M82.8,235.2
		c0.1-0.2,1.1-4.9,2.2-10.5c6.2-31.4,22.2-62,44.7-85.3c27.9-29,61-46.1,100.9-52.1l3-0.5l0.9-5.6c1.3-8.7,1.4-8.4-2.6-7.8
		c-57.9,7.9-108.2,41.2-137.7,90.9c-11.5,19.4-18.6,38.1-23,60.9c-2.6,13.4-3.1,12.3,4.8,11.3C79.6,235.9,82.7,235.3,82.8,235.2z
		 M440.7,230.3c-3.3-20.9-11.3-44.3-21-61.5c-19.5-34.5-47.4-60.8-82.4-77.9c-13.9-6.8-23.4-10.2-37.1-13.5
		c-8.5-2-24.2-4.7-24.7-4.2c-0.2,0.2,1.9,13.2,2.3,13.5c0.1,0.1,4,0.8,8.6,1.6c17.4,3,30.6,7.3,46.6,15.1
		c33.2,16.3,61.4,44.5,78.4,78.6c7.6,15.2,11.2,25.7,15.1,44.3l2,9.3l6.2,0.8c3.4,0.4,6.4,0.7,6.7,0.6
		C441.5,236.8,441.2,233.8,440.7,230.3L440.7,230.3z M248.9,205.5c1-10.1,2.7-28,3.7-39.7c1.1-11.7,2.1-22.1,2.4-23.1
		c0.2-1,1.8,12.9,3.5,30.9s3.5,37,4,42.2l0.9,9.5l1.7-3.6c6.4-13.6,10.6-24.2,10.2-26c-0.5-2.3-5.5-46.9-13.6-119.8
		c-3.3-29.3-6-53.6-6.2-54c-0.3-1-0.5,0.1-5.6,45.2c-2.4,21.2-5.7,49.6-7.3,63.2c-1.6,13.5-3.9,33.2-5.1,43.7
		c-1.2,10.5-2.4,20.2-2.6,21.5c-0.3,1.9,1,5.4,5.7,16c3.3,7.5,6.1,13.3,6.2,13C247,224.1,247.9,215.6,248.9,205.5L248.9,205.5z"/>
</g>
</svg>
