<?xml version="1.0" encoding="utf-8"?>
<!-- Generator: Adobe Illustrator 28.2.0, SVG Export Plug-In . SVG Version: 6.00 Build 0)  -->
<svg version="1.1" id="svg1" xmlns:svg="http://www.w3.org/2000/svg"
	 xmlns="http://www.w3.org/2000/svg" xmlns:xlink="http://www.w3.org/1999/xlink" x="0px" y="0px" viewBox="0 0 512 512"
	 style="enable-background:new 0 0 512 512;" xml:space="preserve">
<style type="text/css">
	.st0{fill:#FFFFFF;}
</style>
<path class="st0" d="M256,0C114.6,0,0,114.6,0,256s114.6,256,256,256s256-114.6,256-256S397.4,0,256,0z M242.6,130.3
	c1.6-13.6,4.9-42,7.3-63.2c5.1-45.1,5.3-46.2,5.6-45.2c0.2,0.4,2.9,24.7,6.2,54c8.1,72.9,13.1,117.5,13.6,119.8
	c0.4,1.8-3.8,12.4-10.2,26l-1.7,3.6l-0.9-9.5c-0.5-5.2-2.3-24.2-4-42.2s-3.3-31.9-3.5-30.9c-0.3,1-1.3,11.4-2.4,23.1
	c-1,11.7-2.7,29.6-3.7,39.7c-1,10.1-1.9,18.6-2.1,19c-0.1,0.3-2.9-5.5-6.2-13c-4.7-10.6-6-14.1-5.7-16c0.2-1.3,1.4-11,2.6-21.5
	S241,143.8,242.6,130.3z M321.8,321.6c-2.1-3.2-9.3-12-23.9-29c-7-8.3-13.3-15.7-13.9-16.5c-0.9-1.3-0.9-1.4,0.4-0.8
	c0.8,0.3,7.1,2.8,14,5.5s13.1,5.3,13.7,5.8c0.6,0.5,8.7,12.4,17.9,26.4s19.8,30.1,23.5,35.7c3.8,5.6,6.7,10.3,6.5,10.4
	c-0.1,0.1-1.4-0.7-3-1.8c-1.6-1-18.4-11.5-37.4-23.2l-34.5-21.3l-6.1-14.3c-3.3-7.9-6.1-14.4-6.1-14.5c0-0.1,4.5,3.5,10.1,8.1
	c11.7,9.6,25.1,20.2,34,27C322.1,322.9,323,323.4,321.8,321.6z M283.7,238.6c0.3-0.5,6-7.3,12.7-15.2c6.7-7.9,15.1-18,18.7-22.4
	c3.6-4.5,7.1-8.7,7.7-9.5c1-1.2,1-1.3,0.1-0.8c-2.2,1.2-23.5,17.8-34.8,27.1c-6.4,5.3-12.5,10.2-13.5,11l-1.8,1.4l1.1-2.1
	c0.6-1.2,3.3-7.6,6-14.2c2.7-6.6,5.4-12.5,6.1-13s15.1-9.6,32.1-20.2c16.9-10.5,33.2-20.8,36.2-22.8s5.5-3.5,5.7-3.3
	c0.2,0.2-0.6,1.6-1.8,3.2c-2.5,3.4-28.3,42.6-38.8,58.9l-7.2,11.2l-8.8,3.4c-4.9,1.8-11.4,4.5-14.5,5.7
	C285.8,238.4,283.4,239.1,283.7,238.6z M215.8,225.2c6.4,7.6,11.5,14,11.3,14.2c-0.1,0.2-0.7,0-1.3-0.4c-0.6-0.4-6.7-2.9-13.6-5.6
	c-6.8-2.7-12.9-5.3-13.5-5.7c-1.1-0.8-7.3-10.1-31-46.7c-8.2-12.7-15.6-24-16.3-25.1c-0.9-1.5,3.1,0.7,15.5,8.5
	c9.3,5.8,23.5,14.6,31.5,19.6s17.5,11,21,13.3l6.4,4.2l3.5,9c1.9,4.9,4.6,11.4,5.9,14.4c2.8,6.4,3.7,6.8-10.9-5.5
	c-11.9-10.1-36.1-29-36.5-28.6C187.5,191.1,200.4,207,215.8,225.2z M227.6,274.8l-2.1,2.6c-1.2,1.5-6.4,7.5-11.6,13.5
	c-9.9,11.4-26.9,32.2-26.9,33c0,0.7,20.1-15.1,40.2-31.5c5.4-4.4,9.9-8,10.1-8c0.2,0-0.8,2.3-2.1,5s-4,9.1-6,14.1l-3.6,9.1l-5.9,3.8
	c-3.2,2.1-18.4,11.5-33.8,20.9c-15.4,9.4-29.3,18-30.9,19.1c-1.6,1.1-3.4,2.3-3.8,2.6c-0.5,0.2,3.3-5.9,8.4-13.7
	c5.1-7.8,15.3-23.3,22.5-34.4c7.2-11.1,13.9-21.2,14.8-22.4c1.3-1.8,4.1-3.2,13.7-6.9c6.6-2.5,13.1-5.1,14.5-5.7L227.6,274.8z
	 M71.2,225.2c4.4-22.8,11.5-41.5,23-60.9c29.5-49.7,79.8-83,137.7-90.9c4-0.6,3.9-0.9,2.6,7.8l-0.9,5.6l-3,0.5
	c-39.9,6-73,23.1-100.9,52.1c-22.5,23.3-38.5,53.9-44.7,85.3c-1.1,5.6-2.1,10.3-2.2,10.5c-0.1,0.1-3.2,0.7-6.8,1.3
	C68.1,237.5,68.6,238.6,71.2,225.2z M92.9,247.9c57.2-6.5,73.4-8.4,86.5-9.9l13.4-1.5l10.8,4.5c6,2.5,12.5,5.1,14.5,5.9l3.7,1.4
	l-4,0.5c-8.7,1-75.3,7.8-76.7,7.8c-4.9,0,2.4,0.9,27.1,3.6c15.3,1.7,32.3,3.5,37.6,4.1c5.3,0.6,11.1,1.1,12.8,1.1
	c1.8,0,2.8,0.2,2.4,0.6c-0.4,0.4-6.6,3-13.9,5.9c-10.8,4.3-13.9,5.2-16.9,4.9c-4.4-0.2-1.1,0.2-39.7-4.4c-16.9-2-52.6-6.1-79.3-9.1
	c-26.6-3-49.8-5.7-51.4-6C16.8,256.8,24.6,255.8,92.9,247.9z M228.8,439.8c-0.6-0.1-3.6-0.6-6.6-1.1c-8.2-1.2-23.8-5.4-32.5-8.7
	c-47.1-17.7-87.9-56.5-107.1-101.9c-6.1-14.5-11.1-32.9-12.8-46.9l-0.5-4.3l4.3,0.5c8.1,1,9.1,1.2,9.4,2.9c0.2,0.9,1,5.2,1.9,9.6
	c6.3,32.5,20.9,59.8,45.1,84.8c25.4,26.1,56.4,43.4,89.3,49.7c15.8,3.1,14.2,2.1,15.2,8.5c0.4,3,0.9,5.9,0.9,6.4
	C235.4,440.2,231.9,440.4,228.8,439.8z M263,427.7c-4.7,41.9-7.7,66.3-8,64.7c-0.3-1.4-1-7.1-1.6-12.5c-0.6-5.4-3.5-30.5-6.3-55.8
	c-2.8-25.3-6.8-59.9-8.8-76.9l-3.7-31l5.7-12.9c3.2-7.1,5.9-13.1,6.1-13.3c0.4-0.3,3,24.9,6.2,59.9c1,10.7,2,20.6,2.3,22
	c0.4,1.6,1.7-9.6,3.7-31.6c1.7-18.8,3.6-38,4.1-42.6l1-8.4l6,13.3l6,13.3l-2.6,22.3C271.7,350.5,267.1,390.8,263,427.7z
	 M440.8,281.6c-0.3,2.6-1.3,8.8-2.3,13.8c-10.6,52.8-47.1,99.5-98.4,125.8c-17.1,8.7-33.8,14.3-52.8,17.5c-11.4,2-12.3,2-11.8-0.2
	c0.2-0.9,0.7-3.8,1.1-6.4c0.7-4.9,1.4-5.9,4.3-5.9c2.6,0,15.2-2.7,22.6-4.8c27.3-7.8,55.2-24.3,76-45.1c14.1-14.1,24.7-28.8,33-45.9
	c7.3-15,12-30.5,15-49c0.4-3,0.6-3,9.1-4l4.7-0.5L440.8,281.6z M493,257c-0.1,0.2-17.7,2.3-39.1,4.7c-21.3,2.4-47.4,5.4-57.9,6.6
	s-31.8,3.7-47.3,5.5s-29,3.3-30.1,3c-1.8,0-27.4-10.1-28.5-11.2c-0.3-0.3,0.6-0.5,2.1-0.5c1.4,0,14.6-1.3,29.3-2.9
	c14.7-1.6,31.8-3.4,38-4c6.3-0.6,11.5-1.2,11.6-1.3c0.2-0.3-16.4-2.1-55.9-6.1c-13.7-1.4-25.1-2.7-25.2-2.8
	c-0.1-0.1,1.4-0.8,3.3-1.5c1.9-0.8,8.3-3.4,14.1-5.8l10.6-4.4l23.9,2.8c13.1,1.6,33.5,3.9,45.2,5.3c46.7,5.5,90.8,10.6,98.3,11.4
	C489.7,256.3,493.2,256.8,493,257z M441.4,237c-0.3,0.1-3.3-0.2-6.7-0.6l-6.2-0.8l-2-9.3c-3.9-18.6-7.5-29.1-15.1-44.3
	c-17-34.1-45.2-62.3-78.4-78.6c-16-7.8-29.2-12.1-46.6-15.1c-4.6-0.8-8.5-1.5-8.6-1.6c-0.4-0.3-2.5-13.3-2.3-13.5
	c0.5-0.5,16.2,2.2,24.7,4.2c13.7,3.3,23.2,6.7,37.1,13.5c35,17.1,62.9,43.4,82.4,77.9c9.7,17.2,17.7,40.6,21,61.5
	C441.2,233.8,441.5,236.8,441.4,237z"/>
</svg>
