<svg xmlns="http://www.w3.org/2000/svg" xml:space="preserve" viewBox="0 0 512 512"><path d="M256 0C114.6 0 0 114.6 0 256s114.6 256 256 256 256-114.6 256-256S397.4 0 256 0m-13.4 130.3c1.6-13.6 4.9-42 7.3-63.2 5.1-45.1 5.3-46.2 5.6-45.2.2.4 2.9 24.7 6.2 54 8.1 72.9 13.1 117.5 13.6 119.8.4 1.8-3.8 12.4-10.2 26l-1.7 3.6-.9-9.5c-.5-5.2-2.3-24.2-4-42.2s-3.3-31.9-3.5-30.9c-.3 1-1.3 11.4-2.4 23.1-1 11.7-2.7 29.6-3.7 39.7s-1.9 18.6-2.1 19c-.1.3-2.9-5.5-6.2-13-4.7-10.6-6-14.1-5.7-16 .2-1.3 1.4-11 2.6-21.5s3.5-30.2 5.1-43.7m79.2 191.3c-2.1-3.2-9.3-12-23.9-29-7-8.3-13.3-15.7-13.9-16.5-.9-1.3-.9-1.4.4-.8.8.3 7.1 2.8 14 5.5s13.1 5.3 13.7 5.8S320.8 299 330 313s19.8 30.1 23.5 35.7c3.8 5.6 6.7 10.3 6.5 10.4-.1.1-1.4-.7-3-1.8-1.6-1-18.4-11.5-37.4-23.2l-34.5-21.3-6.1-14.3c-3.3-7.9-6.1-14.4-6.1-14.5s4.5 3.5 10.1 8.1c11.7 9.6 25.1 20.2 34 27 5.1 3.8 6 4.3 4.8 2.5m-38.1-83c.3-.5 6-7.3 12.7-15.2s15.1-18 18.7-22.4c3.6-4.5 7.1-8.7 7.7-9.5 1-1.2 1-1.3.1-.8-2.2 1.2-23.5 17.8-34.8 27.1-6.4 5.3-12.5 10.2-13.5 11l-1.8 1.4 1.1-2.1c.6-1.2 3.3-7.6 6-14.2s5.4-12.5 6.1-13 15.1-9.6 32.1-20.2c16.9-10.5 33.2-20.8 36.2-22.8s5.5-3.5 5.7-3.3-.6 1.6-1.8 3.2c-2.5 3.4-28.3 42.6-38.8 58.9l-7.2 11.2-8.8 3.4c-4.9 1.8-11.4 4.5-14.5 5.7-3.1 1.4-5.5 2.1-5.2 1.6m-67.9-13.4c6.4 7.6 11.5 14 11.3 14.2-.1.2-.7 0-1.3-.4s-6.7-2.9-13.6-5.6c-6.8-2.7-12.9-5.3-13.5-5.7-1.1-.8-7.3-10.1-31-46.7-8.2-12.7-15.6-24-16.3-25.1-.9-1.5 3.1.7 15.5 8.5 9.3 5.8 23.5 14.6 31.5 19.6s17.5 11 21 13.3l6.4 4.2 3.5 9c1.9 4.9 4.6 11.4 5.9 14.4 2.8 6.4 3.7 6.8-10.9-5.5-11.9-10.1-36.1-29-36.5-28.6-.3.3 12.6 16.2 28 34.4m11.8 49.6-2.1 2.6c-1.2 1.5-6.4 7.5-11.6 13.5-9.9 11.4-26.9 32.2-26.9 33 0 .7 20.1-15.1 40.2-31.5 5.4-4.4 9.9-8 10.1-8s-.8 2.3-2.1 5-4 9.1-6 14.1l-3.6 9.1-5.9 3.8c-3.2 2.1-18.4 11.5-33.8 20.9s-29.3 18-30.9 19.1-3.4 2.3-3.8 2.6c-.5.2 3.3-5.9 8.4-13.7s15.3-23.3 22.5-34.4 13.9-21.2 14.8-22.4c1.3-1.8 4.1-3.2 13.7-6.9 6.6-2.5 13.1-5.1 14.5-5.7zM71.2 225.2c4.4-22.8 11.5-41.5 23-60.9 29.5-49.7 79.8-83 137.7-90.9 4-.6 3.9-.9 2.6 7.8l-.9 5.6-3 .5c-39.9 6-73 23.1-100.9 52.1-22.5 23.3-38.5 53.9-44.7 85.3-1.1 5.6-2.1 10.3-2.2 10.5-.1.1-3.2.7-6.8 1.3-7.9 1-7.4 2.1-4.8-11.3m21.7 22.7c57.2-6.5 73.4-8.4 86.5-9.9l13.4-1.5 10.8 4.5c6 2.5 12.5 5.1 14.5 5.9l3.7 1.4-4 .5c-8.7 1-75.3 7.8-76.7 7.8-4.9 0 2.4.9 27.1 3.6 15.3 1.7 32.3 3.5 37.6 4.1s11.1 1.1 12.8 1.1c1.8 0 2.8.2 2.4.6s-6.6 3-13.9 5.9c-10.8 4.3-13.9 5.2-16.9 4.9-4.4-.2-1.1.2-39.7-4.4-16.9-2-52.6-6.1-79.3-9.1-26.6-3-49.8-5.7-51.4-6-3-.5 4.8-1.5 73.1-9.4m135.9 191.9-6.6-1.1c-8.2-1.2-23.8-5.4-32.5-8.7-47.1-17.7-87.9-56.5-107.1-101.9-6.1-14.5-11.1-32.9-12.8-46.9l-.5-4.3 4.3.5c8.1 1 9.1 1.2 9.4 2.9.2.9 1 5.2 1.9 9.6 6.3 32.5 20.9 59.8 45.1 84.8 25.4 26.1 56.4 43.4 89.3 49.7 15.8 3.1 14.2 2.1 15.2 8.5.4 3 .9 5.9.9 6.4 0 .9-3.5 1.1-6.6.5m34.2-12.1c-4.7 41.9-7.7 66.3-8 64.7-.3-1.4-1-7.1-1.6-12.5s-3.5-30.5-6.3-55.8-6.8-59.9-8.8-76.9l-3.7-31 5.7-12.9c3.2-7.1 5.9-13.1 6.1-13.3.4-.3 3 24.9 6.2 59.9 1 10.7 2 20.6 2.3 22 .4 1.6 1.7-9.6 3.7-31.6 1.7-18.8 3.6-38 4.1-42.6l1-8.4 6 13.3 6 13.3-2.6 22.3c-1.4 12.3-6 52.6-10.1 89.5m177.8-146.1c-.3 2.6-1.3 8.8-2.3 13.8-10.6 52.8-47.1 99.5-98.4 125.8-17.1 8.7-33.8 14.3-52.8 17.5-11.4 2-12.3 2-11.8-.2.2-.9.7-3.8 1.1-6.4.7-4.9 1.4-5.9 4.3-5.9 2.6 0 15.2-2.7 22.6-4.8 27.3-7.8 55.2-24.3 76-45.1 14.1-14.1 24.7-28.8 33-45.9 7.3-15 12-30.5 15-49 .4-3 .6-3 9.1-4l4.7-.5zM493 257c-.1.2-17.7 2.3-39.1 4.7-21.3 2.4-47.4 5.4-57.9 6.6s-31.8 3.7-47.3 5.5-29 3.3-30.1 3c-1.8 0-27.4-10.1-28.5-11.2-.3-.3.6-.5 2.1-.5 1.4 0 14.6-1.3 29.3-2.9s31.8-3.4 38-4c6.3-.6 11.5-1.2 11.6-1.3.2-.3-16.4-2.1-55.9-6.1-13.7-1.4-25.1-2.7-25.2-2.8s1.4-.8 3.3-1.5c1.9-.8 8.3-3.4 14.1-5.8l10.6-4.4 23.9 2.8c13.1 1.6 33.5 3.9 45.2 5.3 46.7 5.5 90.8 10.6 98.3 11.4 4.3.5 7.8 1 7.6 1.2m-51.6-20c-.3.1-3.3-.2-6.7-.6l-6.2-.8-2-9.3c-3.9-18.6-7.5-29.1-15.1-44.3-17-34.1-45.2-62.3-78.4-78.6-16-7.8-29.2-12.1-46.6-15.1-4.6-.8-8.5-1.5-8.6-1.6-.4-.3-2.5-13.3-2.3-13.5.5-.5 16.2 2.2 24.7 4.2 13.7 3.3 23.2 6.7 37.1 13.5 35 17.1 62.9 43.4 82.4 77.9 9.7 17.2 17.7 40.6 21 61.5.5 3.5.8 6.5.7 6.7"/></svg>