<svg xmlns="http://www.w3.org/2000/svg" xml:space="preserve" viewBox="0 0 512 512"><path d="M256 0C114.6 0 0 114.6 0 256s114.6 256 256 256 256-114.6 256-256S397.4 0 256 0m0 496.8C123 496.8 15.2 389 15.2 256S123 15.2 256 15.2 496.8 123 496.8 256 389 496.8 256 496.8m0-472.1C128.5 24.7 24.7 128.5 24.7 256S128.5 487.3 256 487.3 487.3 383.5 487.3 256 383.5 24.7 256 24.7m0 421.3c-104.9 0-190-85.1-190-190S151.1 66 256 66s190 85.1 190 190-85.1 190-190 190m0-354.4c-90.8 0-164.4 73.6-164.4 164.4S165.2 420.4 256 420.4 420.4 346.8 420.4 256 346.8 91.6 256 91.6m0 241c-42.3 0-76.6-34.3-76.6-76.6s34.3-76.6 76.6-76.6 76.6 34.3 76.6 76.6-34.3 76.6-76.6 76.6"/></svg>