<svg xmlns="http://www.w3.org/2000/svg" xml:space="preserve" viewBox="0 0 512 512"><path d="M127.7 512C63.3 512 8.9 464.3 1.1 400.8c-5.1-41.5 7.3-77.4 36.6-107.1 37.8-38.4 76.1-76.3 114.3-114.4 49.4-49.2 128.7-49.6 178.4-1.1 15.2 14.8 11.6 37.6-7.3 45.7-10 4.3-21.3 1.7-30.1-6.8-27.3-26.6-68-28.4-97.7-4.5-1.9 1.5-3.5 3.2-5.2 4.9L75.8 331.8c-22.4 22.4-28.2 54.4-15.1 83.6 12.3 27.4 41 44.7 71.8 42.7 17.9-1.1 33.5-8 46.4-20.6 5-4.8 9.8-9.9 14.8-14.7 11.6-11.1 27.6-11.2 38.5-.4 10.8 10.8 10.6 26.9-.3 38.5-17.3 18.4-35.9 34.9-60.3 43.4-14.3 4.9-28.9 7.8-43.9 7.7m232.2-179.3c38.4-38.1 76.9-76.1 114.7-114.8 30.9-31.7 43-69.9 35.1-113.7-13.9-76-92.4-122-165.8-97.6-27.3 9.1-48.1 26.8-66.3 47.9-9.2 10.7-7.3 26.5 3.1 36.1 10.3 9.5 25.6 9.6 36.3 0 5.2-4.7 9.9-9.8 14.9-14.7 17.5-17 38.3-24.7 62.5-21.1 29.6 4.4 50.1 21 59.7 49.1 9.8 28.4 3.6 54.4-17.4 75.8-38.1 38.7-76.7 76.9-115.1 115.2-2.1 2.1-4.3 4.2-6.7 5.9-30.2 22.7-68.3 20-96.7-6.7-11.5-10.8-27.9-10.6-38.5.3-10.5 10.8-10.2 26.9.8 38 24.7 24.7 54.7 36.7 88.3 37.6 35.9-.5 66.2-12.6 91.1-37.3"/></svg>