<?xml version="1.0" encoding="utf-8"?>
<!-- Generator: Adobe Illustrator 28.2.0, SVG Export Plug-In . SVG Version: 6.00 Build 0)  -->
<svg version="1.1" id="Layer_1" xmlns="http://www.w3.org/2000/svg" xmlns:xlink="http://www.w3.org/1999/xlink" x="0px" y="0px"
	 viewBox="0 0 512 512" style="enable-background:new 0 0 512 512;" xml:space="preserve">
<style type="text/css">
	.st0{fill:#FFFFFF;}
</style>
<path class="st0" d="M127.7,512C63.3,512,8.9,464.3,1.1,400.8c-5.1-41.5,7.3-77.4,36.6-107.1c37.8-38.4,76.1-76.3,114.3-114.4
	c49.4-49.2,128.7-49.6,178.4-1.1c15.2,14.8,11.6,37.6-7.3,45.7c-10,4.3-21.3,1.7-30.1-6.8c-27.3-26.6-68-28.4-97.7-4.5
	c-1.9,1.5-3.5,3.2-5.2,4.9c-38.1,38.1-76.2,76.2-114.3,114.3c-22.4,22.4-28.2,54.4-15.1,83.6c12.3,27.4,41,44.7,71.8,42.7
	c17.9-1.1,33.5-8,46.4-20.6c5-4.8,9.8-9.9,14.8-14.7c11.6-11.1,27.6-11.2,38.5-0.4c10.8,10.8,10.6,26.9-0.3,38.5
	c-17.3,18.4-35.9,34.9-60.3,43.4C157.3,509.2,142.7,512.1,127.7,512z M359.9,332.7c38.4-38.1,76.9-76.1,114.7-114.8
	c30.9-31.7,43-69.9,35.1-113.7C495.8,28.2,417.3-17.8,343.9,6.6c-27.3,9.1-48.1,26.8-66.3,47.9c-9.2,10.7-7.3,26.5,3.1,36.1
	c10.3,9.5,25.6,9.6,36.3,0c5.2-4.7,9.9-9.8,14.9-14.7c17.5-17,38.3-24.7,62.5-21.1c29.6,4.4,50.1,21,59.7,49.1
	c9.8,28.4,3.6,54.4-17.4,75.8c-38.1,38.7-76.7,76.9-115.1,115.2c-2.1,2.1-4.3,4.2-6.7,5.9c-30.2,22.7-68.3,20-96.7-6.7
	c-11.5-10.8-27.9-10.6-38.5,0.3c-10.5,10.8-10.2,26.9,0.8,38c24.7,24.7,54.7,36.7,88.3,37.6C304.7,369.5,335,357.4,359.9,332.7z"/>
</svg>
