<?xml version="1.0" encoding="utf-8"?>
<!-- Generator: Adobe Illustrator 28.2.0, SVG Export Plug-In . SVG Version: 6.00 Build 0)  -->
<svg version="1.1" id="Layer_1" xmlns="http://www.w3.org/2000/svg" xmlns:xlink="http://www.w3.org/1999/xlink" x="0px" y="0px"
	 viewBox="0 0 512 512" style="enable-background:new 0 0 512 512;" xml:space="preserve">
<path d="M370.1,187.4c-0.8,0-1.6-0.2-2.3-0.6l-97.3-56.1c-1.4-0.8-2.3-2.4-2.3-4c0-1.7,0.9-3.2,2.3-4l97.2-56.2
	c1.4-0.8,3.2-0.8,4.6,0l97.3,56.1c1.4,0.8,2.3,2.4,2.3,4c0,1.7-0.9,3.2-2.3,4l-97.2,56.2C371.7,187.2,370.9,187.4,370.1,187.4z
	 M282.1,126.6l88,50.8l87.9-50.9l-88-50.8L282.1,126.6z M255.9,121.5c-0.8,0-1.6-0.2-2.3-0.6l-97.3-56.1c-1.4-0.8-2.3-2.4-2.3-4
	c0-1.7,0.9-3.2,2.3-4l97.2-56.2c1.4-0.8,3.2-0.8,4.6,0l97.3,56.1c1.4,0.8,2.3,2.4,2.3,4c0,1.7-0.9,3.2-2.3,4l-97.2,56.2
	C257.5,121.3,256.7,121.5,255.9,121.5z M167.9,60.8l88,50.7l88-50.8l-88-50.8L167.9,60.8z M141.8,187.5c-0.8,0-1.6-0.2-2.3-0.6
	l-97.3-56.1c-1.4-0.8-2.3-2.4-2.3-4c0-1.7,0.9-3.2,2.3-4l97.2-56.2c1.4-0.8,3.2-0.8,4.6,0l97.2,56.1c1.4,0.8,2.3,2.4,2.3,4
	c0,1.7-0.9,3.2-2.3,4l-97.2,56.2C143.4,187.3,142.6,187.5,141.8,187.5z M53.8,126.8l88,50.8l87.9-50.8l-88-50.8L53.8,126.8z
	 M256,253.3c-0.8,0-1.6-0.2-2.3-0.6l-97.3-56.1c-1.4-0.8-2.3-2.4-2.3-4c0-1.7,0.9-3.2,2.3-4l97.2-56.2c1.4-0.8,3.2-0.8,4.6,0
	l97.3,56.1c1.4,0.8,2.3,2.4,2.3,4c0,1.7-0.9,3.2-2.3,4l-97.2,56.2C257.6,253.1,256.8,253.3,256,253.3z M168,192.6l88,50.7l88-50.8
	l-88-50.8L168,192.6z M133.4,314.4c-0.8,0-1.6-0.2-2.3-0.6l-97.3-56.1c-1.4-0.8-2.3-2.4-2.3-4l-0.1-112.3c0-1.7,0.9-3.2,2.3-4
	c1.4-0.8,3.2-0.8,4.6,0l97.3,56.1c1.4,0.8,2.3,2.4,2.3,4l0.1,112.3c0,1.7-0.9,3.2-2.3,4C135,314.2,134.2,314.4,133.4,314.4z
	 M40.8,251l88,50.7l0-101.6l-88-50.8L40.8,251z M247.6,380.3c-0.8,0-1.6-0.2-2.3-0.6L148,323.5c-1.4-0.8-2.3-2.3-2.3-4l-0.1-112.3
	c0-1.7,0.9-3.2,2.3-4c1.4-0.8,3.2-0.8,4.6,0l97.3,56.1c1.4,0.8,2.3,2.4,2.3,4l0.1,112.3c0,1.7-0.9,3.2-2.3,4
	C249.2,380,248.4,380.3,247.6,380.3z M155,316.9l88,50.8l0-101.6l-88-50.8L155,316.9z M133.5,446.1c-0.8,0-1.6-0.2-2.3-0.6
	l-97.3-56.1c-1.4-0.8-2.3-2.3-2.3-4l-0.1-112.3c0-1.7,0.9-3.2,2.3-4c1.4-0.8,3.2-0.8,4.6,0l97.3,56.1c1.4,0.8,2.3,2.3,2.3,4
	l0.1,112.3c0,1.7-0.9,3.2-2.3,4C135.1,445.9,134.3,446.1,133.5,446.1z M40.8,382.8l88,50.7l0-101.6l-88-50.7L40.8,382.8z M247.6,512
	c-0.8,0-1.6-0.2-2.3-0.6l-97.3-56.1c-1.4-0.8-2.3-2.3-2.3-4l-0.1-112.3c0-1.7,0.9-3.2,2.3-4c1.4-0.8,3.2-0.8,4.6,0l97.3,56.1
	c1.4,0.8,2.3,2.3,2.3,4l0.1,112.3c0,1.7-0.9,3.2-2.3,4C249.2,511.8,248.4,512,247.6,512z M155,448.6l88,50.7l0-101.6l-88-50.7
	L155,448.6z M264.6,512c-0.8,0-1.6-0.2-2.3-0.6c-1.4-0.8-2.3-2.3-2.3-4l-0.1-112.3c0-1.7,0.9-3.2,2.3-4l97.2-56.2
	c1.4-0.8,3.2-0.8,4.6,0c1.4,0.8,2.3,2.3,2.3,4l0.1,112.3c0,1.7-0.9,3.2-2.3,4l-97.2,56.2C266.2,511.8,265.4,512,264.6,512z
	 M269.1,397.8l0.1,101.6l88-50.8l0-101.6L269.1,397.8z M378.7,446c-0.8,0-1.6-0.2-2.3-0.6c-1.4-0.8-2.3-2.3-2.3-4L374,329.1
	c0-1.7,0.9-3.2,2.3-4l97.2-56.2c1.4-0.8,3.2-0.8,4.6,0c1.4,0.8,2.3,2.3,2.3,4l0.1,112.3c0,1.7-0.9,3.2-2.3,4L381,445.4
	C380.3,445.8,379.5,446,378.7,446z M383.2,331.8l0.1,101.6l88-50.8L471.2,281L383.2,331.8z M378.6,314.2c-0.8,0-1.6-0.2-2.3-0.6
	c-1.4-0.8-2.3-2.3-2.3-4l-0.1-112.3c0-1.7,0.9-3.2,2.3-4l97.2-56.2c1.4-0.8,3.2-0.8,4.6,0c1.4,0.8,2.3,2.4,2.3,4l0.1,112.3
	c0,1.7-0.9,3.2-2.3,4l-97.2,56.2C380.2,314,379.4,314.2,378.6,314.2z M383.1,200l0,101.6l88-50.8l0-101.6L383.1,200z M264.5,380.2
	c-0.8,0-1.6-0.2-2.3-0.6c-1.4-0.8-2.3-2.3-2.3-4l-0.1-112.3c0-1.7,0.9-3.2,2.3-4l97.2-56.2c1.4-0.8,3.2-0.8,4.6,0
	c1.4,0.8,2.3,2.4,2.3,4l0.1,112.3c0,1.7-0.9,3.2-2.3,4l-97.2,56.2C266.1,380,265.3,380.2,264.5,380.2z M269.1,266l0,101.6l87.9-50.8
	l0-101.6L269.1,266z"/>
</svg>
