<svg xmlns="http://www.w3.org/2000/svg" xml:space="preserve" viewBox="0 0 512 512"><linearGradient id="purpurmc_svg__a" x1="121.127" x2="634.918" y1="636.308" y2="122.516" gradientTransform="matrix(1 0 0 -1 0 514)" gradientUnits="userSpaceOnUse"><stop offset=".15" style="stop-color:#25b8ff"/><stop offset=".85" style="stop-color:#fa02ff"/></linearGradient><path d="M370.1 187.4c-.8 0-1.6-.2-2.3-.6l-97.3-56.1c-1.4-.8-2.3-2.4-2.3-4 0-1.7.9-3.2 2.3-4l97.2-56.2c1.4-.8 3.2-.8 4.6 0l97.3 56.1c1.4.8 2.3 2.4 2.3 4 0 1.7-.9 3.2-2.3 4l-97.2 56.2c-.7.4-1.5.6-2.3.6m-88-60.8 88 50.8 87.9-50.9-88-50.8z" style="fill:url(#purpurmc_svg__a)"/><linearGradient id="purpurmc_svg__b" x1="96.942" x2="610.734" y1="612.12" y2="98.328" gradientTransform="matrix(1 0 0 -1 0 514)" gradientUnits="userSpaceOnUse"><stop offset=".15" style="stop-color:#25b8ff"/><stop offset=".85" style="stop-color:#fa02ff"/></linearGradient><path d="M255.9 121.5c-.8 0-1.6-.2-2.3-.6l-97.3-56.1c-1.4-.8-2.3-2.4-2.3-4 0-1.7.9-3.2 2.3-4L253.5.6c1.4-.8 3.2-.8 4.6 0l97.3 56.1c1.4.8 2.3 2.4 2.3 4 0 1.7-.9 3.2-2.3 4l-97.2 56.2c-.7.4-1.5.6-2.3.6m-88-60.7 88 50.7 88-50.8-88-50.8z" style="fill:url(#purpurmc_svg__b)"/><linearGradient id="purpurmc_svg__c" x1="6.924" x2="520.716" y1="522.104" y2="8.312" gradientTransform="matrix(1 0 0 -1 0 514)" gradientUnits="userSpaceOnUse"><stop offset=".15" style="stop-color:#25b8ff"/><stop offset=".85" style="stop-color:#fa02ff"/></linearGradient><path d="M141.8 187.5c-.8 0-1.6-.2-2.3-.6l-97.3-56.1c-1.4-.8-2.3-2.4-2.3-4 0-1.7.9-3.2 2.3-4l97.2-56.2c1.4-.8 3.2-.8 4.6 0l97.2 56.1c1.4.8 2.3 2.4 2.3 4 0 1.7-.9 3.2-2.3 4L144 186.9c-.6.4-1.4.6-2.2.6m-88-60.7 88 50.8 87.9-50.8-88-50.8z" style="fill:url(#purpurmc_svg__c)"/><linearGradient id="purpurmc_svg__d" x1="31.098" x2="544.896" y1="546.28" y2="32.482" gradientTransform="matrix(1 0 0 -1 0 514)" gradientUnits="userSpaceOnUse"><stop offset=".15" style="stop-color:#25b8ff"/><stop offset=".85" style="stop-color:#fa02ff"/></linearGradient><path d="M256 253.3c-.8 0-1.6-.2-2.3-.6l-97.3-56.1c-1.4-.8-2.3-2.4-2.3-4 0-1.7.9-3.2 2.3-4l97.2-56.2c1.4-.8 3.2-.8 4.6 0l97.3 56.1c1.4.8 2.3 2.4 2.3 4 0 1.7-.9 3.2-2.3 4l-97.2 56.2c-.7.4-1.5.6-2.3.6m-88-60.7 88 50.7 88-50.8-88-50.8z" style="fill:url(#purpurmc_svg__d)"/><linearGradient id="purpurmc_svg__e" x1="-71.005" x2="442.793" y1="444.176" y2="-69.622" gradientTransform="matrix(1 0 0 -1 0 514)" gradientUnits="userSpaceOnUse"><stop offset=".15" style="stop-color:#25b8ff"/><stop offset=".85" style="stop-color:#fa02ff"/></linearGradient><path d="M133.4 314.4c-.8 0-1.6-.2-2.3-.6l-97.3-56.1c-1.4-.8-2.3-2.4-2.3-4l-.1-112.3c0-1.7.9-3.2 2.3-4s3.2-.8 4.6 0l97.3 56.1c1.4.8 2.3 2.4 2.3 4l.1 112.3c0 1.7-.9 3.2-2.3 4-.7.4-1.5.6-2.3.6M40.8 251l88 50.7V200.1l-88-50.8z" style="fill:url(#purpurmc_svg__e)"/><linearGradient id="purpurmc_svg__f" x1="-46.84" x2="466.945" y1="468.331" y2="-45.454" gradientTransform="matrix(1 0 0 -1 0 514)" gradientUnits="userSpaceOnUse"><stop offset=".15" style="stop-color:#25b8ff"/><stop offset=".85" style="stop-color:#fa02ff"/></linearGradient><path d="M247.6 380.3c-.8 0-1.6-.2-2.3-.6L148 323.5c-1.4-.8-2.3-2.3-2.3-4l-.1-112.3c0-1.7.9-3.2 2.3-4s3.2-.8 4.6 0l97.3 56.1c1.4.8 2.3 2.4 2.3 4l.1 112.3c0 1.7-.9 3.2-2.3 4-.7.4-1.5.7-2.3.7M155 316.9l88 50.8V266.1l-88-50.8z" style="fill:url(#purpurmc_svg__f)"/><linearGradient id="purpurmc_svg__g" x1="-136.849" x2="376.947" y1="378.331" y2="-135.464" gradientTransform="matrix(1 0 0 -1 0 514)" gradientUnits="userSpaceOnUse"><stop offset=".15" style="stop-color:#25b8ff"/><stop offset=".85" style="stop-color:#fa02ff"/></linearGradient><path d="M133.5 446.1c-.8 0-1.6-.2-2.3-.6l-97.3-56.1c-1.4-.8-2.3-2.3-2.3-4l-.1-112.3c0-1.7.9-3.2 2.3-4s3.2-.8 4.6 0l97.3 56.1c1.4.8 2.3 2.3 2.3 4l.1 112.3c0 1.7-.9 3.2-2.3 4-.7.4-1.5.6-2.3.6m-92.7-63.3 88 50.7V331.9l-88-50.7z" style="fill:url(#purpurmc_svg__g)"/><linearGradient id="purpurmc_svg__h" x1="-112.707" x2="401.098" y1="402.488" y2="-111.317" gradientTransform="matrix(1 0 0 -1 0 514)" gradientUnits="userSpaceOnUse"><stop offset=".15" style="stop-color:#25b8ff"/><stop offset=".85" style="stop-color:#fa02ff"/></linearGradient><path d="M247.6 512c-.8 0-1.6-.2-2.3-.6L148 455.3c-1.4-.8-2.3-2.3-2.3-4l-.1-112.3c0-1.7.9-3.2 2.3-4s3.2-.8 4.6 0l97.3 56.1c1.4.8 2.3 2.3 2.3 4l.1 112.3c0 1.7-.9 3.2-2.3 4-.7.4-1.5.6-2.3.6M155 448.6l88 50.7V397.7L155 347z" style="fill:url(#purpurmc_svg__h)"/><linearGradient id="purpurmc_svg__i" x1="-55.608" x2="458.191" y1="459.582" y2="-54.218" gradientTransform="matrix(1 0 0 -1 0 514)" gradientUnits="userSpaceOnUse"><stop offset=".15" style="stop-color:#25b8ff"/><stop offset=".85" style="stop-color:#fa02ff"/></linearGradient><path d="M264.6 512c-.8 0-1.6-.2-2.3-.6-1.4-.8-2.3-2.3-2.3-4l-.1-112.3c0-1.7.9-3.2 2.3-4l97.2-56.2c1.4-.8 3.2-.8 4.6 0s2.3 2.3 2.3 4l.1 112.3c0 1.7-.9 3.2-2.3 4l-97.2 56.2c-.7.4-1.5.6-2.3.6m4.5-114.2.1 101.6 88-50.8V347z" style="fill:url(#purpurmc_svg__i)"/><linearGradient id="purpurmc_svg__j" x1="34.419" x2="548.218" y1="549.609" y2="35.81" gradientTransform="matrix(1 0 0 -1 0 514)" gradientUnits="userSpaceOnUse"><stop offset=".15" style="stop-color:#25b8ff"/><stop offset=".85" style="stop-color:#fa02ff"/></linearGradient><path d="M378.7 446c-.8 0-1.6-.2-2.3-.6-1.4-.8-2.3-2.3-2.3-4l-.1-112.3c0-1.7.9-3.2 2.3-4l97.2-56.2c1.4-.8 3.2-.8 4.6 0s2.3 2.3 2.3 4l.1 112.3c0 1.7-.9 3.2-2.3 4L381 445.4c-.7.4-1.5.6-2.3.6m4.5-114.2.1 101.6 88-50.8-.1-101.6z" style="fill:url(#purpurmc_svg__j)"/><linearGradient id="purpurmc_svg__k" x1="100.282" x2="614.072" y1="615.458" y2="101.668" gradientTransform="matrix(1 0 0 -1 0 514)" gradientUnits="userSpaceOnUse"><stop offset=".15" style="stop-color:#25b8ff"/><stop offset=".85" style="stop-color:#fa02ff"/></linearGradient><path d="M378.6 314.2c-.8 0-1.6-.2-2.3-.6-1.4-.8-2.3-2.3-2.3-4l-.1-112.3c0-1.7.9-3.2 2.3-4l97.2-56.2c1.4-.8 3.2-.8 4.6 0s2.3 2.4 2.3 4l.1 112.3c0 1.7-.9 3.2-2.3 4l-97.2 56.2c-.7.4-1.5.6-2.3.6m4.5-114.2v101.6l88-50.8V149.2z" style="fill:url(#purpurmc_svg__k)"/><linearGradient id="purpurmc_svg__l" x1="10.255" x2="524.042" y1="525.426" y2="11.639" gradientTransform="matrix(1 0 0 -1 0 514)" gradientUnits="userSpaceOnUse"><stop offset=".15" style="stop-color:#25b8ff"/><stop offset=".85" style="stop-color:#fa02ff"/></linearGradient><path d="M264.5 380.2c-.8 0-1.6-.2-2.3-.6-1.4-.8-2.3-2.3-2.3-4l-.1-112.3c0-1.7.9-3.2 2.3-4l97.2-56.2c1.4-.8 3.2-.8 4.6 0s2.3 2.4 2.3 4l.1 112.3c0 1.7-.9 3.2-2.3 4l-97.2 56.2c-.7.4-1.5.6-2.3.6m4.6-114.2v101.6l87.9-50.8V215.2z" style="fill:url(#purpurmc_svg__l)"/></svg>