<svg xmlns="http://www.w3.org/2000/svg" xml:space="preserve" viewBox="0 0 512 512"><path d="M136.5 17.1h238.9c66 0 119.5 53.5 119.5 119.5v238.9c0 66-53.5 119.5-119.5 119.5H136.5C70.5 495 17 441.5 17 375.5v-239c.1-65.9 53.6-119.4 119.5-119.4" style="fill:#0f1b30"/><linearGradient id="pve-notebuddy_svg__a" x1="-957.075" x2="-955.001" y1="385.022" y2="387.117" gradientTransform="matrix(56 0 0 56 53794 -21364)" gradientUnits="userSpaceOnUse"><stop offset="0" style="stop-color:#60c3ff"/><stop offset="1" style="stop-color:#83e7ba"/></linearGradient><path d="M375.5 512h-239C61.2 512 0 450.8 0 375.5v-239C0 61.2 61.2 0 136.5 0h238.9C450.8 0 512 61.2 512 136.5v238.9c0 75.4-61.2 136.6-136.5 136.6m-239-477.9C80 34.1 34.1 80 34.1 136.5v238.9c0 56.5 45.9 102.4 102.4 102.4h238.9c56.5 0 102.4-45.9 102.4-102.4V136.5c0-56.5-45.9-102.4-102.4-102.4z" style="fill:url(#pve-notebuddy_svg__a)"/><linearGradient id="pve-notebuddy_svg__b" x1="-934.158" x2="-925.624" y1="396.251" y2="404.784" gradientTransform="matrix(26 0 0 28 24470 -10990)" gradientUnits="userSpaceOnUse"><stop offset="0" style="stop-color:#60c3ff"/><stop offset="1" style="stop-color:#83e7ba"/></linearGradient><path d="M153.6 136.5h153.6c37.7 0 68.3 30.5 68.3 68.3v170.7h-68.3V204.8H153.6z" style="fill:url(#pve-notebuddy_svg__b)"/></svg>