<svg xmlns="http://www.w3.org/2000/svg" xml:space="preserve" viewBox="0 0 512 512"><path d="M27.6 25.5C42.3 9.2 64.1.2 85.9.2c80.4 0 160.6-.3 241-.1 17.8.1 35.5-.1 53.1.2v44.5c.3 10.2.1 20.6-3.3 30.4-7.9 23.5-31 40.8-55.6 41.7-35.8.2-71.6.1-107.4.1-9.4.1-18.7-.5-28 .6-16.8 2-32.5 9.8-45 21-12.2 10.9-21.6 25.6-24.3 42-.9 5.1-.6 10.3-.7 15.5-.2 16.9-.2 33.8-.2 50.7H73.7c-12.8-.1-25.7-4.1-35.9-12.1-12.9-10-21.6-24.7-26.2-40.2-2.1-5.9-3.4-12.1-5-18.1C4 164 1.6 151.5.7 138.8c-2-24.4 1.4-49 7.2-72.7 3.1-15 9.4-29.3 19.7-40.6M393 .1h47.2c10.4.1 21.1 2.5 29.9 8.1 7.9 5 14.3 12.2 19 20.1 6 10 9.9 21.1 12.8 32.3 5.2 21.1 9.5 42.6 9.8 64.4.5 22.2-3.5 44.4-11.4 65.3-2.4 7.1-5.4 14-8.4 20.8-4.5 9.2-10 18-17.9 24.6-6.8 5.7-15.3 9.3-24.2 10.5-5.3.8-10.7.7-16.2.7H252.5v15.4h124.8v42.9c.4 10.2-4.1 19.8-8.1 28.9-2.9 6.9-6.6 13.4-9.9 20.1-16.8 30.9-35.7 60.7-54.9 90-14.8 22.8-30.2 45.2-45.9 67.7-7.1-9.5-14.3-18.9-21.4-28.4-9.2-12.5-18.5-24.9-27.4-37.5-11.5-16.1-23-32.1-34-48.6-12.8-19.1-25.3-38.4-36.5-58.6-4.1-8-8.5-15.9-10.8-24.7-.7-2.5-.9-5.1-.8-7.7 0-38-.1-76.2.1-114.2.1-20.8 12.1-40.8 29.7-51.6 8-5.1 17.3-8.2 26.8-9.2 5.5-.4 11-.3 16.7-.3h95.5c8.2-.1 16.5.2 24.7-.3 26.8-2.2 51.5-19.3 63.6-43.2 4.4-8.3 7.1-17.6 8-27 .5-6.7.3-13.2.4-19.9zm-75.4 294c-6.4 1.5-12.1 5.6-15.3 11.5-2.9 5.1-3.5 11.4-2.1 17 1.6 5.8 5.5 10.9 10.7 14.1 5.5 3.2 12.5 4.1 18.7 2.2 5.4-1.6 10.1-5.2 13-10 3.3-5.4 4.4-12.2 2.6-18.3-1.7-6.2-6-11.4-11.7-14.3-4.8-2.7-10.5-3.3-15.9-2.2"/></svg>