<?xml version="1.0" encoding="utf-8"?>
<!-- Generator: Adobe Illustrator 28.2.0, SVG Export Plug-In . SVG Version: 6.00 Build 0)  -->
<svg version="1.1"
	 id="svg2" xmlns:svg="http://www.w3.org/2000/svg" xmlns:sodipodi="http://sodipodi.sourceforge.net/DTD/sodipodi-0.dtd" xmlns:inkscape="http://www.inkscape.org/namespaces/inkscape" xmlns:rdf="http://www.w3.org/1999/02/22-rdf-syntax-ns#" xmlns:dc="http://purl.org/dc/elements/1.1/" xmlns:cc="http://creativecommons.org/ns#" inkscape:export-filename="python-logo-only.png"
	 xmlns="http://www.w3.org/2000/svg" xmlns:xlink="http://www.w3.org/1999/xlink" x="0px" y="0px" viewBox="0 0 512 512"
	 style="enable-background:new 0 0 512 512;" xml:space="preserve">
<style type="text/css">
	.st0{fill:url(#path1948_00000054948265480427348660000014407935402355964837_);}
	.st1{fill:url(#path1950_00000055698905140661134620000017020415769449080238_);}
</style>
<linearGradient id="path1948_00000129199023170445990370000012180200596135650479_" gradientUnits="userSpaceOnUse" x1="85.8016" y1="534.3155" x2="582.4371" y2="961.6035" gradientTransform="matrix(0.5625 0 0 0.568 -57.8795 -288.9375)">
	<stop  offset="0" style="stop-color:#5A9FD4"/>
	<stop  offset="1" style="stop-color:#306998"/>
</linearGradient>
<path id="path1948" style="fill:url(#path1948_00000129199023170445990370000012180200596135650479_);" d="M253,0
	c-20.9,0.1-40.8,1.9-58.4,5c-51.7,9.1-61.1,28.2-61.1,63.5V115h122.1v15.5H133.5H87.7c-35.5,0-66.6,21.3-76.3,61.9
	C0.2,239-0.3,268,11.4,316.6c8.7,36.2,29.4,61.9,64.9,61.9h42v-55.8c0-40.3,34.9-75.9,76.3-75.9h122c34,0,61.1-28,61.1-62.1V68.5
	c0-33.1-27.9-58-61.1-63.5C295.6,1.5,273.9-0.1,253,0z M186.9,37.4c12.6,0,22.9,10.5,22.9,23.3s-10.3,23.2-22.9,23.2
	C174.3,84,164,73.6,164,60.8C164,47.9,174.3,37.4,186.9,37.4z"/>
<linearGradient id="path1950_00000056411705492894275250000010592836308293454215_" gradientUnits="userSpaceOnUse" x1="774.444" y1="1220.2234" x2="597.0958" y2="969.3062" gradientTransform="matrix(0.5625 0 0 0.568 -57.8795 -288.9375)">
	<stop  offset="0" style="stop-color:#FFD43B"/>
	<stop  offset="1" style="stop-color:#FFE873"/>
</linearGradient>
<path id="path1950" style="fill:url(#path1950_00000056411705492894275250000010592836308293454215_);" d="M392.9,130.6v54.2
	c0,42.1-35.7,77.4-76.3,77.4h-122c-33.4,0-61.1,28.6-61.1,62.1v116.3c0,33.1,28.8,52.6,61.1,62.1c38.7,11.4,75.7,13.4,122,0
	c30.8-8.9,61.1-26.8,61.1-62.1V394h-122v-15.5h122h61.1c35.5,0,48.7-24.8,61.1-61.9c12.8-38.3,12.2-75.1,0-124.1
	c-8.8-35.3-25.5-61.9-61.1-61.9L392.9,130.6z M324.3,425.1c12.7,0,22.9,10.4,22.9,23.2c0,12.9-10.3,23.3-22.9,23.3
	s-22.9-10.5-22.9-23.3C301.4,435.5,311.7,425.1,324.3,425.1z"/>
</svg>
