<svg xmlns="http://www.w3.org/2000/svg" xml:space="preserve" viewBox="0 0 512 512"><path d="M352.8 187.6c-17.5 0-30.1 5.1-37.8 15.1s-11.5 26.8-11.5 50.6 4 40.8 11.9 51 20.6 15.2 38.1 15.2c15.8 0 27.5-5.7 35.2-17.1 7.7-11.5 11.5-28 11.5-49.5 0-22-3.8-38.4-11.5-49.2-7.8-10.7-19.8-16.1-35.9-16.1m-194.4-.3c-15 0-26.6 5.9-34.6 17.6-7.9 11.6-11.9 28.1-11.9 49.4s3.9 37.5 11.8 48.8c7.9 11 19.5 16.6 35 16.7 17.1 0 29.5-4.6 37.3-13.8s12-24.6 12.5-46.3V254q0-35.55-12-51c-8-10.5-20.8-15.7-38.1-15.7m333.5-30.9C479 125.9 460.5 98.5 437 75s-50.9-42-81.4-54.9C324.1 6.8 290.6 0 256 0s-68.1 6.8-99.6 20.1C125.9 33 98.5 51.5 75 75s-42 50.9-54.9 81.4C6.8 187.9 0 221.4 0 256s6.8 68.1 20.1 99.6C33 386.1 51.5 413.5 75 437s50.9 42 81.4 54.9C188 505.3 221.5 512 256 512s68.1-6.8 99.6-20.1c30.5-12.9 57.9-31.4 81.4-54.9s42-50.9 54.9-81.4C505.3 324 512 290.5 512 256s-6.8-68.1-20.1-99.6M234.2 414h-25.6v-72.3c0-10.3.5-19 1.7-26.2h-2c-11.9 17.2-29.7 25.8-53.5 25.8-21.8 0-38.8-7.6-51-23q-18.3-22.95-18.3-64.2c0-27.7 6.1-49.2 18.5-64.8 12.3-15.5 29.5-23.3 51.5-23.3 23.1 0 41 8.8 53.4 26.2h1.4L214 169h20.2zM408 318.2c-12.4 15.3-29.5 23-51.5 23-11 0-21.1-2-30.2-6-9-4.1-16.7-10.4-22.9-18.8h-1.9l-5.4 21.8h-18.4V98h25.6v58.3c0 13-.4 24.8-1.2 35.2h1.2c11.9-16.9 29.6-25.3 53.1-25.3 22.2 0 39.5 7.6 51.7 22.8 12.4 15.1 18.5 36.5 18.5 64.3.1 27.8-6.1 49.5-18.6 64.9" style="fill:#fff"/></svg>