<?xml version="1.0" encoding="utf-8"?>
<!-- Generator: Adobe Illustrator 28.2.0, SVG Export Plug-In . SVG Version: 6.00 Build 0)  -->
<svg version="1.1" id="Layer_1" xmlns="http://www.w3.org/2000/svg" xmlns:xlink="http://www.w3.org/1999/xlink" x="0px" y="0px"
	 viewBox="0 0 512 512" style="enable-background:new 0 0 512 512;" xml:space="preserve">
<style type="text/css">
	.st0{fill:#FFFFFF;}
</style>
<path class="st0" d="M352.8,187.6c-17.5,0-30.1,5.1-37.8,15.1c-7.7,10-11.5,26.8-11.5,50.6s4,40.8,11.9,51s20.6,15.2,38.1,15.2
	c15.8,0,27.5-5.7,35.2-17.1c7.7-11.5,11.5-28,11.5-49.5c0-22-3.8-38.4-11.5-49.2C380.9,193,368.9,187.6,352.8,187.6z M158.4,187.3
	c-15,0-26.6,5.9-34.6,17.6c-7.9,11.6-11.9,28.1-11.9,49.4s3.9,37.5,11.8,48.8c7.9,11,19.5,16.6,35,16.7c17.1,0,29.5-4.6,37.3-13.8
	c7.8-9.2,12-24.6,12.5-46.3V254c0-23.7-4-40.7-12-51C188.5,192.5,175.7,187.3,158.4,187.3z M491.9,156.4
	C479,125.9,460.5,98.5,437,75s-50.9-42-81.4-54.9C324.1,6.8,290.6,0,256,0s-68.1,6.8-99.6,20.1C125.9,33,98.5,51.5,75,75
	s-42,50.9-54.9,81.4C6.8,187.9,0,221.4,0,256s6.8,68.1,20.1,99.6C33,386.1,51.5,413.5,75,437s50.9,42,81.4,54.9
	C188,505.3,221.5,512,256,512s68.1-6.8,99.6-20.1c30.5-12.9,57.9-31.4,81.4-54.9s42-50.9,54.9-81.4C505.3,324,512,290.5,512,256
	S505.2,187.9,491.9,156.4z M234.2,414h-25.6v-72.3c0-10.3,0.5-19,1.7-26.2h-2c-11.9,17.2-29.7,25.8-53.5,25.8
	c-21.8,0-38.8-7.6-51-23c-12.2-15.3-18.3-36.7-18.3-64.2c0-27.7,6.1-49.2,18.5-64.8c12.3-15.5,29.5-23.3,51.5-23.3
	c23.1,0,41,8.8,53.4,26.2h1.4L214,169h20.2V414z M408,318.2c-12.4,15.3-29.5,23-51.5,23c-11,0-21.1-2-30.2-6
	c-9-4.1-16.7-10.4-22.9-18.8h-1.9l-5.4,21.8h-18.4V98h25.6v58.3c0,13-0.4,24.8-1.2,35.2h1.2c11.9-16.9,29.6-25.3,53.1-25.3
	c22.2,0,39.5,7.6,51.7,22.8c12.4,15.1,18.5,36.5,18.5,64.3C426.7,281.1,420.5,302.8,408,318.2z"/>
</svg>
