<svg xmlns="http://www.w3.org/2000/svg" xml:space="preserve" viewBox="0 0 512 512"><linearGradient id="qbittorrent_svg__a" x1="-545.332" x2="-545.12" y1="1053.675" y2="1053.291" gradientTransform="matrix(992 0 0 -992 541102 1045278)" gradientUnits="userSpaceOnUse"><stop offset="0" style="stop-color:#72b4f5"/><stop offset="1" style="stop-color:#356ebf"/></linearGradient><circle cx="256" cy="256" r="248" style="fill-rule:evenodd;clip-rule:evenodd;fill:url(#qbittorrent_svg__a)"/><path d="M256 512c-34.6 0-68.1-6.8-99.6-20.1C125.9 479 98.5 460.5 75 437s-42-50.9-54.9-81.4C6.8 324.1 0 290.6 0 256s6.8-68.1 20.1-99.6C33 125.9 51.5 98.5 75 75s50.9-42 81.4-54.9C187.9 6.8 221.4 0 256 0s68.1 6.8 99.6 20.1C386.1 33 413.5 51.5 437 75s42 50.9 54.9 81.4C505.3 188 512 221.5 512 256s-6.8 68.1-20.1 99.6C479 386.1 460.5 413.5 437 437s-50.9 42-81.4 54.9c-31.5 13.3-65 20.1-99.6 20.1m0-496C123.7 16 16 123.7 16 256s107.7 240 240 240 240-107.7 240-240S388.3 16 256 16" style="fill:#daefff"/><path d="M356.5 166.2c22.2 0 39.5 7.6 51.7 22.9 12.4 15.1 18.5 36.6 18.5 64.3q0 41.7-18.6 64.8c-12.4 15.4-29.5 23-51.5 23-11 0-21.1-2-30.2-6-9-4.1-16.6-10.4-22.9-18.8h-1.9l-5.4 21.8h-18.4V98h25.6v58.3c0 13.1-.4 24.8-1.2 35.2h1.2c11.9-16.9 29.6-25.3 53.1-25.3m-3.7 21.4c-17.5 0-30.1 5.1-37.8 15.1s-11.5 26.9-11.5 50.6 4 40.8 11.9 51 20.6 15.2 38.1 15.2c15.8 0 27.5-5.7 35.2-17.1 7.7-11.5 11.5-28 11.5-49.6 0-22-3.9-38.4-11.5-49.2-7.8-10.5-19.8-16-35.9-16" style="fill-rule:evenodd;clip-rule:evenodd;fill:#fff"/><path d="M158.6 319.8c17.1 0 29.5-4.6 37.4-13.8 7.8-9.1 12-24.6 12.5-46.3V254c0-23.6-4-40.7-12.1-51.1-8-10.4-20.8-15.6-38.1-15.6-15 0-26.6 5.9-34.6 17.6-7.9 11.6-11.9 28.1-11.9 49.4s3.9 37.5 11.8 48.8c8 11 19.6 16.6 35 16.7m-3.8 21.3c-21.8 0-38.8-7.6-51.1-23-12.2-15.4-18.3-36.7-18.3-64.2 0-27.6 6.2-49.2 18.5-64.8s29.5-23.3 51.5-23.3c23.1 0 40.9 8.8 53.4 26.2h1.4l3.7-23.1h20.2v245h-25.6v-72.3c0-10.3.6-19 1.7-26.2h-2c-11.8 17.2-29.6 25.7-53.4 25.7" style="fill-rule:evenodd;clip-rule:evenodd;fill:#c8e8ff"/></svg>