<svg xmlns="http://www.w3.org/2000/svg" xml:space="preserve" viewBox="0 0 512 512"><path d="M460.8 0H51.2C22.9 0 0 22.9 0 51.2v409.6C0 489.2 22.8 512 51.2 512h409.6c28.4 0 51.2-22.8 51.2-51.2V51.2C512 22.9 489.1 0 460.8 0M51.2 153.6V76.8C51.2 69.7 56.9 64 64 64h179.2c7.1 0 12.8 5.7 12.8 12.8v76.8c0 7.1-5.7 12.8-12.8 12.8H64c-7.1 0-12.8-5.7-12.8-12.8M166.4 256H89.6v-76.8h12.8v64h64zm12.8 38.4v-76.8c0-7.1 5.7-12.8 12.8-12.8h204.8c7.1 0 12.8 5.7 12.8 12.8v76.8c0 7.1-5.7 12.8-12.8 12.8H192c-7.1 0-12.8-5.7-12.8-12.8m115.2 102.4h-76.8V320h12.8v64h64zm166.4 38.4c0 7.1-5.7 12.8-12.8 12.8H320c-7.1 0-12.8-5.7-12.8-12.8v-76.8c0-7.1 5.7-12.8 12.8-12.8h128c7.1 0 12.8 5.7 12.8 12.8z" style="fill:#fff"/></svg>