<svg xmlns="http://www.w3.org/2000/svg" xml:space="preserve" viewBox="0 0 512 512"><linearGradient id="qdirstat_svg__a" x1="256" x2="256" y1="2" y2="514" gradientTransform="matrix(1 0 0 -1 0 514)" gradientUnits="userSpaceOnUse"><stop offset="0" style="stop-color:#b0b8b8"/><stop offset="1" style="stop-color:#eff1f1"/></linearGradient><path d="M51.2 0h409.6C489.1 0 512 22.9 512 51.2v409.6c0 28.3-22.9 51.2-51.2 51.2H51.2C22.9 512 0 489.1 0 460.8V51.2C0 22.9 22.9 0 51.2 0" style="fill:url(#qdirstat_svg__a)"/><path d="M89.6 166.4v76.8h76.8v-12.8h-64v-64zm128 140.8V384h76.8v-12.8h-64v-64z" style="fill:#536161"/><linearGradient id="qdirstat_svg__b" x1="127.999" x2="490.14" y1="437.2" y2="75.059" gradientTransform="matrix(1 0 0 -1 0 514)" gradientUnits="userSpaceOnUse"><stop offset="0" style="stop-color:#292c2f"/><stop offset="1" style="stop-color:#000;stop-opacity:0"/></linearGradient><path d="m54.9 149.9 124.3 124.3 217.6-74.6L252.3 54.9z" style="opacity:.2;fill:url(#qdirstat_svg__b)"/><linearGradient id="qdirstat_svg__c" x1="262.401" x2="483.742" y1="302.801" y2="81.459" gradientTransform="matrix(1 0 0 -1 0 514)" gradientUnits="userSpaceOnUse"><stop offset="0" style="stop-color:#292c2f"/><stop offset="1" style="stop-color:#000;stop-opacity:0"/></linearGradient><path d="M182.9 290.7 307.2 415l149.9-78.4 54.9 54.9v-89.6L405.9 195.7z" style="opacity:.2;fill:url(#qdirstat_svg__c)"/><linearGradient id="qdirstat_svg__d" x1="371.2" x2="451.74" y1="142.8" y2="62.26" gradientTransform="matrix(1 0 0 -1 0 514)" gradientUnits="userSpaceOnUse"><stop offset="0" style="stop-color:#292c2f"/><stop offset="1" style="stop-color:#000;stop-opacity:0"/></linearGradient><path d="m310.9 431.5 80.5 80.5H512V391.5l-54.9-54.9z" style="opacity:.2;fill:url(#qdirstat_svg__d)"/><linearGradient id="qdirstat_svg__e" x1="153.6" x2="153.6" y1="360.4" y2="462.8" gradientTransform="matrix(1 0 0 -1 0 514)" gradientUnits="userSpaceOnUse"><stop offset="0" style="stop-color:#54a3d8"/><stop offset="1" style="stop-color:#7cbcec"/></linearGradient><path d="M64 51.2h179.2c7.1 0 12.8 5.7 12.8 12.8v76.8c0 7.1-5.7 12.8-12.8 12.8H64c-7.1 0-12.8-5.7-12.8-12.8V64c0-7.1 5.7-12.8 12.8-12.8" style="fill:url(#qdirstat_svg__e)"/><linearGradient id="qdirstat_svg__f" x1="294.4" x2="294.4" y1="219.6" y2="322" gradientTransform="matrix(1 0 0 -1 0 514)" gradientUnits="userSpaceOnUse"><stop offset="0" style="stop-color:#b154d8"/><stop offset="1" style="stop-color:#cb7cec"/></linearGradient><path d="M192 192h204.8c7.1 0 12.8 5.7 12.8 12.8v76.8c0 7.1-5.7 12.8-12.8 12.8H192c-7.1 0-12.8-5.7-12.8-12.8v-76.8c0-7.1 5.7-12.8 12.8-12.8" style="fill:url(#qdirstat_svg__f)"/><linearGradient id="qdirstat_svg__g" x1="384" x2="384" y1="78.8" y2="181.2" gradientTransform="matrix(1 0 0 -1 0 514)" gradientUnits="userSpaceOnUse"><stop offset="0" style="stop-color:#ffa92d"/><stop offset="1" style="stop-color:#ffc169"/></linearGradient><path d="M320 332.8h128c7.1 0 12.8 5.7 12.8 12.8v76.8c0 7.1-5.7 12.8-12.8 12.8H320c-7.1 0-12.8-5.7-12.8-12.8v-76.8c0-7.1 5.7-12.8 12.8-12.8" style="fill:url(#qdirstat_svg__g)"/><path d="M0 448v12.8C0 489.2 22.8 512 51.2 512h409.6c28.4 0 51.2-22.8 51.2-51.2V448c0 28.4-22.8 51.2-51.2 51.2H51.2C22.8 499.2 0 476.4 0 448" style="opacity:.2;fill:#292c2f"/></svg>