<svg xmlns="http://www.w3.org/2000/svg" xml:space="preserve" viewBox="0 0 512 512"><path d="M477.7 128 256 256v256l70.9-40.9 75.4 40.9 75.4-43.5z" style="fill-rule:evenodd;clip-rule:evenodd;fill:#24386c"/><path d="M256 512 34.3 384V128L256 256z" style="fill-rule:evenodd;clip-rule:evenodd;fill:#b2bfe8"/><path d="m256 256 221.7-128L256 0 34.3 128z" style="fill-rule:evenodd;clip-rule:evenodd;fill:#7589be"/><path d="m326.9 471.1 75.4 40.9V171.5l-73.2-42.2L256 87.1l-73.2 42.2-73.1 42.2v168.9l73.1 42.2 73.2 42.2 70.9-41zm0-174.2-70.9 41-70.9-41V215l70.9-41 70.9 41z" style="fill-rule:evenodd;clip-rule:evenodd;fill:#dc244c"/><linearGradient id="qdrant_svg__a" x1="243.022" x2="172.722" y1="152.448" y2="152.448" gradientTransform="matrix(1 0 0 -1 0 513.598)" gradientUnits="userSpaceOnUse"><stop offset="0" style="stop-color:#ff3364"/><stop offset="1" style="stop-color:#c91540;stop-opacity:0"/></linearGradient><path d="M256 425v-87.1l-70.6-40.6v86.9z" style="fill:url(#qdrant_svg__a)"/></svg>