<svg xmlns="http://www.w3.org/2000/svg" xml:space="preserve" viewBox="0 0 512 512"><path d="M154.9 50c-29.7 0-56.4 7.3-79.7 22q-35.4 21.6-55.5 59.1C6.6 156.2 0 184.3 0 215c0 27.2 5.4 52.2 16 75.6 10.7 23.2 25.7 42.5 45 57.7 19.2 15.3 41.3 25.1 66 29.4l-51.3 18.8c-8.2 3.1-12.4 9.3-12.4 18.8q0 8.25 6 14.7c4.3 4.6 9.3 6.9 15.1 6.9 6.4 0 13.3-1.8 20.7-5.5 3.1-1.5 6.1-2.9 9.2-4.1 3.4-.9 6.9-1.4 10.5-1.4 8.2 0 15.4 1.1 21.6 3.2 6.1 2.4 13.9 6.3 23.4 11.5 12.6 7.1 24.6 12.4 36.3 16 11.6 3.7 26.8 5.5 45.4 5.5 11.6 0 24.5-2.3 38.5-6.9 14.1-4.6 26-10.5 35.8-17.9 9.8-7.3 14.7-15 14.7-23 0-5.5-2.1-10.4-6.4-14.7-4-4-8.6-6-13.7-6-2.8 0-5.5.6-8.2 1.8-2.4 1.5-5.4 3.5-8.7 6-3.1 2.8-5.8 5-8.2 6.9-5.8 4.3-11.9 7.7-18.3 10.1s-14.1 3.7-23 3.7c-10.1 0-19.2-1.5-27.5-4.6-8.2-2.8-17.9-6.9-28.9-12.4-8.9-4.6-16.5-8.2-23-11-6.1-2.4-13-4.1-20.7-5l34.9-12.8c23.9-4.9 45-15 63.2-30.3 18.3-15.3 32.6-34.2 42.7-56.8 10.4-22.6 15.6-47.2 15.6-74.2 0-30.9-6.7-58.7-20.2-83.9-13.2-25.1-31.5-44.8-55-59.1-23.6-14.7-50-22-79.7-22zm0 43.5c20.8 0 39.3 5.4 55.5 16 16.5 10.4 29.4 24.9 38.5 43.6 9.2 18.3 13.7 39 13.7 61.9 0 23-4.6 43.7-13.7 62.3-9.2 18.3-22 32.9-38.5 43.6q-24.3 15.6-55.5 15.6c-20.8 0-39.5-5.2-55.9-15.6-16.2-10.7-28.9-25.3-38.1-43.6-9.2-18.7-13.7-39.5-13.7-62.3 0-23.2 4.6-44 13.7-62.3 9.2-18.7 21.9-33.2 38.1-43.6 16.5-10.4 35.2-15.6 55.9-15.6m327.7 36.3c-17.1.3-32.4 5.2-45.8 14.7q-20.25 13.8-30.3 36.3v-23.4c0-6.1-2.1-11.3-6.4-15.6-4-4.3-9.2-6.4-15.6-6.4-6.1 0-11.3 2.1-15.6 6.4q-6 6.45-6 15.6v196.2c0 6.4 2 11.8 6 16q6 6 15.6 6c9.6 0 11.6-2.1 15.6-6.4 4.3-4.3 6.4-9.5 6.4-15.6V243c0-14.1 2.8-26.8 8.2-38.1 5.8-11.6 13.2-20.6 22-27.1 9.2-6.7 18.5-10.1 28-10.1 3.7 0 8.7 1.1 15.1 3.2 5.5 1.8 9.6 2.8 12.4 2.8 5.5 0 10.1-1.8 13.7-5.5 4-4 6-9.6 6-17 0-6.1-2.9-11.2-8.7-15.1-5.7-4.2-12.6-6.4-20.6-6.3" style="fill:#fff"/></svg>