<svg xmlns="http://www.w3.org/2000/svg" xml:space="preserve" viewBox="0 0 512 512"><path d="M425.3 144.7c-11.5-10.7-27.1-21-45.2-30-43.5-21.5-97.9-33.3-153.1-33.4-10.6 2.1-15.2 13.9-15.2 24.8.1 10.5 4.8 21.9 15 23.8 58.2-2.4 79.5-1.5 98.9 4.3 2 .6 3.5 2.1 4 4.1.6 2 .1 4.1-1.2 5.6-8.4 9.7-10.8 14.6-13.2 23.3-.8 2.9-3.7 4.8-6.7 4.3-10.8-1.6-49.3-7.1-89.4-7.6-49.3-.7-66.1 6.7-71.7 11.1-10.3 8.2-18.8 18.3-24.7 29.3-4.8 9-7 16.9-7.4 21.3-.3 3.2-3.1 5.6-6.3 5.4-16.3-.9-36.3 3.4-42.8 13.3-3.6 5.5-3.2 13 1.4 22.4 4.3 8.6 9.5 13.5 15.6 14.4 12.6 2 27-11.7 31.1-16 1.3-1.3 3.2-2 5-1.8 1.9.2 3.5 1.3 4.5 3 3.6 6.3 7.9 17.2 7.6 33.1-.3 17.3-5.8 36.6-16.4 57.5-1.3 4.8-.8 5.8-.7 5.9 0 0 .7 1.1 5.6 2.1.1 0 .3.1.4.1 27.7 8.2 47 16.1 64.3 26.4 15.8 9.4 30.2 20.8 49.5 39.3h.1c6.5 0 15.2-1.9 21.1-7.6q7.2-6.9 7.5-19.5l-28-28-36.4-20c-1.9-1.1-3.1-3.1-3.1-5.3v-9.7c0-2.7 1.9-5.1 4.5-5.8 24.8-6.4 34.7-14.9 48-41.2.7-1.5 2.1-2.6 3.6-3 8.8-2.6 14.6-2.7 24.8-.1 1.5.4 2.9 1.4 3.7 2.7 7.3 12.2 7.3 20.3.1 33.2-.6 1.1-1.6 2-2.7 2.5l-11.1 5.1-6.8 11.7c1.5 9.4 4.4 15.4 8.6 17.8 4.9 2.9 13 2 25.4-2.8 40.7-28.7 55.4-52 67.8-107.7.7-2.9 3.3-4.9 6.3-4.7 15.3 1.2 34.4 1.7 38.3.3 6.3-2.2 29.7-19.9 38.2-40.5 1.1-4.3 2.3-6.7 3.2-8.5 1.5-3.1 2-4.1-3.3-28.3-1.9-7.5-8.4-17-18.7-26.6m-23.9 47.1c-10.1 0-18.2-8.2-18.2-18.2s8.2-18.2 18.2-18.2c10.1 0 18.2 8.2 18.2 18.2s-8.1 18.2-18.2 18.2M384 0H128C57.3 0 0 57.3 0 128v256c0 70.7 57.3 128 128 128h256c70.7 0 128-57.3 128-128V128C512 57.3 454.7 0 384 0M104.9 89.5h52.6c9.3 0 16.8 7.5 16.8 16.8s-7.5 16.8-16.8 16.8h-52.6c-9.3 0-16.8-7.5-16.8-16.8s7.6-16.8 16.8-16.8m-29.8 48.3h32.7c9.3 0 16.8 7.5 16.8 16.8s-7.5 16.8-16.8 16.8H75.1c-9.3 0-16.8-7.5-16.8-16.8s7.5-16.8 16.8-16.8M458 205c-.7 1.6-1.6 3.3-2.5 6.7-.1.3-.1.5-.2.7-9.9 24.5-36.4 44.6-45.5 47.7-6.8 2.3-26.9 1.4-38 .7-13 55.3-29.7 80.6-72.1 110.3-.4.3-.8.5-1.3.7-11.3 4.4-25.7 8.6-36.6 2.2-7.9-4.6-12.7-14-14.7-28.6-.2-1.3.1-2.7.8-3.8l8.8-15.2c.6-1.1 1.6-1.9 2.7-2.4l11-5.1c4-7.6 3.8-11.3.4-17.4-5.5-1.2-8.9-1.3-13.5-.1-7.2 13.9-13.7 22.8-21.4 29.3-7.4 6.4-16.2 10.8-28.6 14.4v1.6l34.1 18.7c.5.3 1 .6 1.4 1l30.3 30.3c1.1 1.1 1.7 2.5 1.8 4.1.4 13-3.3 23.4-11.1 30.8-8.5 8.1-20.2 11-29.4 11-1.1 0-2.1 0-3.1-.1-1.4-.1-2.7-.7-3.7-1.7-33.3-32.1-56-48.2-110.3-64.3-4.6-1-10.2-2.8-13.1-7.6s-1.9-10.5-.4-15.9c.1-.4.3-.8.4-1.1 18.8-36.9 16.7-60.4 12.5-72.7-8.4 7.2-21.7 15.7-35.2 13.5-10.2-1.6-18.4-8.7-24.5-21-6.6-13.4-6.8-25-.7-34.3 9.7-14.6 32.8-18.6 48.1-18.8 1.4-6.2 4.2-13.4 7.8-20.2 6.7-12.6 16.1-23.7 27.8-33 12.2-9.7 38.9-14.3 79.4-13.8 36 .5 70.6 4.9 85.9 7 2-5.7 4.3-10.2 8.1-15.3-16.6-3.3-39.3-3.6-86.7-1.6-.4 0-.8 0-1.2-.1-17.6-2.7-25.5-19.9-25.7-35.7-.1-8.4 2-16.6 5.9-23 4.6-7.6 11.4-12.4 19.6-13.8.3-.1.7-.1 1-.1 30.4 0 60.3 3.4 88.7 10 25.4 5.9 49 14.2 70.3 24.7 38.7 19.1 65.6 44 70.2 65 5.8 26.6 5.7 29.6 2.5 36.3"/></svg>