<?xml version="1.0" encoding="utf-8"?>
<!-- Generator: Adobe Illustrator 28.2.0, SVG Export Plug-In . SVG Version: 6.00 Build 0)  -->
<svg version="1.1" id="Layer_1" xmlns="http://www.w3.org/2000/svg" xmlns:xlink="http://www.w3.org/1999/xlink" x="0px" y="0px"
	 viewBox="0 0 512 512" style="enable-background:new 0 0 512 512;" xml:space="preserve">
<style type="text/css">
	.st0{fill-rule:evenodd;clip-rule:evenodd;}
</style>
<rect x="178.3" y="-10.1" transform="matrix(0.5879 -0.8089 0.8089 0.5879 15.8633 209.5904)" class="st0" width="70.7" height="198.7"/>
<rect x="5.8" y="142.1" transform="matrix(0.966 -0.2587 0.2587 0.966 -42.339 33.2352)" class="st0" width="198.7" height="70.7"/>
<polygon class="st0" points="113.6,211.8 32.8,393.2 97.4,422 178.2,240.5 "/>
<polygon class="st0" points="137.2,332.8 227.4,509.8 290.4,477.6 200.2,300.7 "/>
<polygon class="st0" points="245.4,389 439.7,430.3 454.5,361.2 260.1,319.9 "/>
<rect x="313.2" y="215" transform="matrix(0.7772 -0.6292 0.6292 0.7772 -65.6354 315.3659)" class="st0" width="198.7" height="70.7"/>
<rect x="315.1" y="27.2" class="st0" width="70.7" height="198.7"/>
</svg>
