<svg xmlns="http://www.w3.org/2000/svg" xml:space="preserve" viewBox="0 0 512 512"><path d="m504 216-25.1 107.1c-21.5 92.5-64 129.9-144 122.2-12.8-1-26.6-3.3-41.5-6.9l-43-10.2C143.6 402.7 110.5 350 135.6 242.9l25.1-107.3c5.1-21.8 11.3-40.7 19-56.4 30-62 81-78.6 166.5-58.4l42.8 10C496.3 55.9 529.1 108.9 504 216" style="fill:#c9d1d9"/><path d="M334.9 445.3C319 456 299.1 465 274.7 472.9l-40.5 13.3C132.5 519 79 491.6 46 389.9L13.2 288.7c-32.8-101.7-5.7-155.5 96-188.2l40.5-13.3c10.5-3.3 20.5-6.1 30-7.9-7.7 15.6-13.8 34.6-19 56.4L135.6 243c-25.1 107.1 7.9 159.9 114.8 185.2l43 10.2c14.9 3.5 28.7 5.8 41.5 6.9m62.3-227.5c-1.5 0-3.1-.3-4.9-.5l-124.2-31.5c-10.1-3.3-15.6-14.2-12.2-24.3 3-9.1 12.3-14.6 21.7-12.9l124.2 31.5c10.2 2.8 16.3 13.3 13.5 23.5-2.2 8.2-9.6 14-18.1 14.2m-75.1 86.6c-1.5 0-3.1-.3-4.9-.5l-74.5-19c-10.1-3.3-15.6-14.2-12.2-24.3 3-9.1 12.3-14.6 21.7-12.9l74.5 19c10.2 2.6 16.4 13.1 13.8 23.3-2 8.7-9.7 14.4-18.4 14.4" style="fill:#228e6c"/></svg>