<?xml version="1.0" encoding="utf-8"?>
<!-- Generator: Adobe Illustrator 28.2.0, SVG Export Plug-In . SVG Version: 6.00 Build 0)  -->
<svg version="1.1" id="Layer_1" xmlns="http://www.w3.org/2000/svg" xmlns:xlink="http://www.w3.org/1999/xlink" x="0px" y="0px"
	 viewBox="0 0 512 512" style="enable-background:new 0 0 512 512;" xml:space="preserve">
<style type="text/css">
	.st0{fill-rule:evenodd;clip-rule:evenodd;fill:#FF0026;}
</style>
<path class="st0" d="M273.2,176.2L112.5,59.4l41.6-57.2L314.8,119L273.2,176.2z M191.9,117.6L0,169l18.3,68.3l191.9-51.4
	L191.9,117.6z M113.6,211.8L32.8,393.2L97.4,422l80.8-181.5L113.6,211.8z M137.2,332.8l90.2,177l63-32.2l-90.2-176.9L137.2,332.8z
	 M245.4,389l194.3,41.3l14.8-69.1l-194.4-41.3L245.4,389z M357.6,340.3l154.4-125l-44.5-54.9l-154.4,125L357.6,340.3z M385.8,27.2
	h-70.7v198.7h70.7V27.2z"/>
</svg>
