<svg xmlns="http://www.w3.org/2000/svg" xml:space="preserve" viewBox="0 0 512 512"><path d="m488.2 228.6-.6-2.5c-.8-1.1-1.8-3.1-3.1-4.6-31.9-38.6-218.8-190.7-223.7-193-1.6-.8-2-.5-4-.6-2.2 0-5.1.9-7.1 2-.5.3-3.5 2.6-7.6 6.1L27.3 220s-3.1 3.1-4.3 6.4c-1 2.7-.7 6.4-.4 7.3.5 1.5 1.1 2.4 2 3.7 1.1 1.6 3.2 2.8 5.2 3.6 5.4 2.1 13 1.8 15.6 1.9h19v117.7l.5 111.3.4 3.3.3 1.5c.1.2.9 2.1.9 2.1l.8 1.2s1 1.2 1.6 1.7c.7.6.6.6 3 2.7l3.3 2.4c.2.1.4.2.5.2.2.1.4.2.6.2l2.8 1 .7.3 1.2.3 173.1.7 175.8-.5 5.3-2.4c2.9-1.3 6.7-3.9 8.4-5.8l3.1-3.4.4-115.5.4-115.5v-4.9H462c6.4 0 14.8 0 17.3-.6l2.5-1 4-3.1c1.2-1.1 2.9-5.4 2.4-8.2M377 406.4l-138-1.7c-13.8-.2-25-13.3-25-29.3s11.2-28.9 25-28.7l138 1.7c13.8.2 25 13.3 25 29.3s-11.2 28.9-25 28.7m26.3-84.3L243 320.4c-16-.2-29-13.3-29-29.3s13-28.9 29-28.7l160.2 1.7c16 .2 29 13.3 29 29.3.1 16-12.9 28.9-28.9 28.7"/><path d="M376.6 0h97.8c8.4 0 15.3 6.5 15.3 14.5v482.9c0 8-6.8 14.5-15.3 14.5h-97.8c-8.4 0-15.3-6.5-15.3-14.5V14.5c.1-8 6.9-14.5 15.3-14.5" style="opacity:.85"/></svg>