<svg xmlns="http://www.w3.org/2000/svg" xml:space="preserve" viewBox="0 0 512 512"><path d="M256 0C114.6 0 0 114.6 0 256s114.6 256 256 256 256-114.6 256-256S397.4 0 256 0m151.1 408.8c-8.5 8.5-22.4 8.5-30.9 0l-89-89c-8.5-8.5-8.5-22.4 0-30.9s22.4-8.5 30.9 0l89 89c8.6 8.5 8.6 22.3 0 30.9m-16.5-66.1-17.4-17.2-14.6-14.6c8.8-16.3 13.7-35 13.7-54.9 0-64.2-52.1-116.3-116.3-116.3S139.7 191.8 139.7 256 191.8 372.3 256 372.3c21.3 0 39.9-3.9 49.9-10.8l30.3 32.9c-23.6 13.7-51 21.5-80.2 21.5-88.4 0-160-71.6-160-160S167.6 96 256 96s160 71.6 160 160c0 32.1-9.1 61.6-25.4 86.7" style="fill:#fff"/></svg>