<svg xmlns="http://www.w3.org/2000/svg" xml:space="preserve" viewBox="0 0 512 512"><path d="M235.5 512c-28.9 0-52.3-23.4-52.3-52.3v-2.9h52.3zm0-145.3v55.2H126.2c-11.9 0-21.5-9.6-21.5-21.5v-33.7zm-52.4-90.2c28.9 0 52.3 23.4 52.3 52.3v2.9H21.5C9.6 331.8 0 322.1 0 310.2v-33.7zM328.9 52.3v2.9h-52.3V0c28.8 0 52.3 23.4 52.3 52.3m56.9 37.8c11.9 0 21.5 9.6 21.5 21.5v33.7H276.5V90.1zm104.7 90.1c11.9 0 21.5 9.6 21.5 21.5v33.7H328.9c-28.9 0-52.3-23.4-52.3-52.3v-2.9zm-438.2 2.9h2.9v52.3H0c0-28.8 23.4-52.3 52.3-52.3m37.8-56.9c0-11.9 9.6-21.5 21.5-21.5h33.7v130.8H90.1zm93 109.3h-2.9v-214c0-11.9 9.6-21.5 21.5-21.5h33.7v183.1c.1 28.9-23.4 52.4-52.3 52.4m276.6 93.4h-2.9v-52.3H512c0 28.8-23.4 52.3-52.3 52.3m-37.8 56.9c0 11.9-9.6 21.5-21.5 21.5h-33.7V276.5h55.2zm-93-109.3h2.9v213.9c0 11.9-9.6 21.5-21.5 21.5h-33.7v-183c-.1-28.9 23.4-52.4 52.3-52.4"/></svg>