<svg xmlns="http://www.w3.org/2000/svg" xml:space="preserve" id="rackpad_svg__Layer_1" x="0" y="0" version="1.1" viewBox="0 0 512 512"><style>.rackpad_svg__st0{fill:#0a0e14}</style><path d="M64 0h384c35.3 0 64 28.7 64 64v384c0 35.3-28.7 64-64 64H64c-35.3 0-64-28.7-64-64V64C0 28.7 28.7 0 64 0" class="rackpad_svg__st0"/><path d="M96 96h320v48H96z" style="fill:#e89b3c"/><path d="M96 176h320v48H96z" style="opacity:.7;fill:#e89b3c"/><path d="M96 256h320v48H96z" style="opacity:.5;fill:#e89b3c"/><path d="M96 336h320v48H96z" style="opacity:.3;fill:#e89b3c"/><path d="M144 108.8c6.2 0 11.2 5 11.2 11.2s-5 11.2-11.2 11.2-11.2-5-11.2-11.2 5-11.2 11.2-11.2m0 80c6.2 0 11.2 5 11.2 11.2s-5 11.2-11.2 11.2-11.2-5-11.2-11.2 5-11.2 11.2-11.2m0 80c6.2 0 11.2 5 11.2 11.2s-5 11.2-11.2 11.2-11.2-5-11.2-11.2 5-11.2 11.2-11.2m0 80c6.2 0 11.2 5 11.2 11.2s-5 11.2-11.2 11.2-11.2-5-11.2-11.2 5-11.2 11.2-11.2" class="rackpad_svg__st0"/></svg>