<svg xmlns="http://www.w3.org/2000/svg" viewBox="0 0 512 512"><path fill-rule="evenodd" d="M86.4 0q-9.6 0-9.6 9.6v96L93.44 496q0 16 16 16h293.12q16 0 16-16l16.64-390.4v-96q0-9.6-9.6-9.6h-96q-8.32 0-16 16.64L256 113.92l-57.6-97.28Q190.72 0 182.4 0Zm39.04 137.6h261.12q12.8 0 12.8 12.8V208q0 12.8-12.8 12.8H125.44q-12.8 0-12.8-12.8v-57.6q0-12.8 12.8-12.8m11.52 121.6h238.08q12.8 0 12.8 12.8v57.6q0 12.8-12.8 12.8H136.96q-12.8 0-12.8-12.8V272q0-12.8 12.8-12.8m11.52 121.6h215.04q12.8 0 12.8 12.8v57.6q0 12.8-12.8 12.8H148.48q-12.8 0-12.8-12.8v-57.6q0-12.8 12.8-12.8"/></svg>