<svg xmlns="http://www.w3.org/2000/svg" xml:space="preserve" viewBox="0 0 512 512"><path d="M86.4 0q-9.6 0-9.6 9.6v96L93.4 496c0 10.7 5.3 16 16 16h293.1c10.7 0 16-5.3 16-16l16.6-390.4v-96q0-9.6-9.6-9.6h-96c-5.5 0-10.9 5.5-16 16.6L256 113.9l-57.6-97.3C193.3 5.5 187.9 0 182.4 0zm39 137.6h261.1c8.5 0 12.8 4.3 12.8 12.8V208c0 8.5-4.3 12.8-12.8 12.8H125.4c-8.5 0-12.8-4.3-12.8-12.8v-57.6c0-8.5 4.3-12.8 12.8-12.8M137 259.2h238c8.5 0 12.8 4.3 12.8 12.8v57.6c0 8.5-4.3 12.8-12.8 12.8H137c-8.5 0-12.8-4.3-12.8-12.8V272c0-8.5 4.2-12.8 12.8-12.8m11.5 121.6h215c8.5 0 12.8 4.3 12.8 12.8v57.6c0 8.5-4.3 12.8-12.8 12.8h-215c-8.5 0-12.8-4.3-12.8-12.8v-57.6c0-8.5 4.2-12.8 12.8-12.8" style="fill-rule:evenodd;clip-rule:evenodd;fill:#fff"/></svg>