<svg xmlns="http://www.w3.org/2000/svg" xml:space="preserve" viewBox="0 0 512 512"><path d="M448 0H64C28.7 0 0 28.7 0 64v384c0 35.3 28.7 64 64 64h384c35.3 0 64-28.7 64-64V64c0-35.3-28.7-64-64-64m-32 384H96v-48h320zm0-80H96v-48h320zm0-80H96v-48h320zm0-80H96V96h320z"/><path d="M96 96h320v48H96z" style="opacity:.7"/><path d="M96 176h320v48H96z" style="opacity:.5"/><path d="M96 256h320v48H96z" style="opacity:.3"/><path d="M96 336h320v48H96z" style="opacity:.1"/><path d="M144 108.8c6.2 0 11.2 5 11.2 11.2s-5 11.2-11.2 11.2-11.2-5-11.2-11.2 5-11.2 11.2-11.2m0 80c6.2 0 11.2 5 11.2 11.2s-5 11.2-11.2 11.2-11.2-5-11.2-11.2 5-11.2 11.2-11.2m0 80c6.2 0 11.2 5 11.2 11.2s-5 11.2-11.2 11.2-11.2-5-11.2-11.2 5-11.2 11.2-11.2m0 80c6.2 0 11.2 5 11.2 11.2s-5 11.2-11.2 11.2-11.2-5-11.2-11.2 5-11.2 11.2-11.2"/></svg>