<?xml version="1.0" encoding="utf-8"?>
<!-- Generator: Adobe Illustrator 28.2.0, SVG Export Plug-In . SVG Version: 6.00 Build 0)  -->
<svg version="1.1" id="Layer_1" xmlns="http://www.w3.org/2000/svg" xmlns:xlink="http://www.w3.org/1999/xlink" x="0px" y="0px"
	 viewBox="0 0 512 512" style="enable-background:new 0 0 512 512;" xml:space="preserve">
<style type="text/css">
	.st0{fill:#FFFFFF;}
</style>
<path class="st0" d="M17.7,386.6L14,94.6C14,2.2,99.1-19.9,150.9,17l262.5,151.5c37,25.8,44.3,73.9,25.8,107.2
	c-3.7-25.8-14.8-40.6-37-55.5L106.5,53.9c-22.2-14.6-40.6-11-40.6,22.3l3.7,351.1C39.9,431,17.7,416.1,17.7,386.6z M313.6,238.8
	l-177.5-99.9l-3.7,203.3L313.6,238.8z M284.3,427.5h18v28c-2.9,5.3-7.3,9.7-13.1,12.9c-5.8,3.2-12,4.7-18.6,4.7
	c-7.2,0-12.9-1.9-17.1-5.6c-4.3-3.8-6.3-8.9-6.3-15.3c0-7.9,3.2-14,9.4-18.2S271.9,427.5,284.3,427.5z M284.3,439.8
	c-12.1,0-18,2.3-20.9,4.3c-2.4,1.7-4,3.7-4,8.1c0,3.6,1.1,5.1,2.1,6.1c2,1.7,5.1,2.6,9.1,2.6c4.5,0,8.7-1.1,12.8-3.3
	c2.8-1.5,5-3.4,6.7-5.6v-12.1H284.3z M498,399v110.3h-57.9V400.9c0-8.5-2.1-11.7-3-12.7c-1.5-1.7-5.5-2.7-10.8-2.7
	c-8.1,0-13.5,2.8-17.7,9.3v114.6H299.7l-2.9-5.6c-9.6,5.5-20.5,8.2-32.4,8.2c-18,0-33.1-5.4-44.7-16c-12-10.9-18.1-24.6-18.1-40.6
	c0-4.3,0.4-8.4,1.1-12.3c0,0,0,0,0,0l-55.5,32.2c-37,18.4-85,0-103.5-29.6c22.1,7.4,44.3,3.7,62.7-7.4l99.8-58.5c0,0,0,0,0,0
	c1.6-6.6,4.7-12.9,9.3-18.8c6.6-8.7,15.7-15.6,26.9-20.4c10.8-4.7,22.9-7.1,35.9-7.1c2.3,0,4.5,0.1,6.7,0.2c0,0,0,0,0,0l124.5-72.9
	c18.5,25.8,14.8,51.8-7.4,66.5l-15.4,9H406l0.3,4.8c9.5-5,20.3-7.6,32.3-7.6c21.8,0,58.5,8.5,59.5,65.2L498,399z M341.3,494.7
	c-3.8-8-5.6-18.6-5.6-32v-66.9c-0.2-15.8-5.6-28.1-15.9-36.8s-24.2-13.1-41.6-13.1c-11.4,0-21.8,2.1-31,6.1c-9.2,4-16.7,9.6-22,16.7
	c-5.5,7.1-8.1,14.7-8.1,22.9h33.3c0-5.8,2.4-10.7,7.3-14.5c4.7-3.8,11.1-5.7,18.6-5.7c8.8,0,15.3,2.3,19.6,6.9s6.4,10.8,6.4,18.5
	v9.7h-20.4c-21.9,0-38.7,4.1-50.5,12.6c-11.8,8.4-17.6,20.5-17.6,36.4c0,12.5,4.7,23,14.1,31.5c9.4,8.5,21.5,12.8,36.5,12.8
	c15.3,0,28.3-5.5,38.9-16.5c1.1,6.4,2.4,11.1,3.9,13.9h34.2V494.7z M289.7,392.7l-2.6,1.5h2.8 M339.7,363.7 M350.7,357.3l-11,6.4
	c5.4,9,8.2,19.7,8.4,32l0,0.2v66.9c0,8.9,0.9,16.3,2.7,22.1V357.3z M485.7,399c-0.6-35.5-16.3-53.1-47.2-53.1
	c-17.8,0-32.2,6.7-43.2,19.9l-1-17.1H363V497h33.3V391.4c6.6-12.2,16.5-18.2,30-18.2c9.2,0,15.9,2.3,19.9,6.8
	c4,4.5,6.1,11.6,6.1,20.9V497h33.3V399z"/>
</svg>
