<svg xmlns="http://www.w3.org/2000/svg" xml:space="preserve" viewBox="0 0 512 512"><path d="M13.4 385 9.7 94.2c0-92 84.7-114.1 136.3-77.3l261.3 150.9c36.8 25.7 44.1 73.6 25.7 106.7-3.7-25.7-14.8-40.5-36.8-55.2L101.8 53.6C79.7 39.1 61.3 42.7 61.3 75.9L65 425.5c-29.5 3.7-51.6-11.1-51.6-40.5M308 237.8l-176.7-99.5-3.7 202.5zm-40.9 131 2.2-3.9v73h-45.7zm-9.5 37.2-12.7 20.2h12.7zm4.4-92.4h48.2v.9l93.3-54.7c18.5 25.7 14.8 51.6-7.3 66.3l-13.2 7.7v40.8l50.7-60.8H501l-75.2 89.8L502.3 512h-64.8l-47.8-68.7-6.7 7.1V512h-53.8v-38.9h-18.9V512h-52.7v-38.9h-75l-1.1-22.5-39.3 22.8c-36.8 18.3-84.7 0-103.1-29.5 22 7.4 44.2 3.7 62.5-7.3l130.7-76.5m88 77.8h-21.9V325.4h-30.1l-75.4 118.2.8 17.8h75.5v38.9h29.3v-38.9h21.8zm8.9-72.9-19 11v50.2h19zm114.5 135.3h36L411 403l64.8-77.5h-36.7L388 386.8l-16.8 20.8v-82.1h-30.3v174.7h30.3v-54.5l19.8-21z"/></svg>