<?xml version="1.0" encoding="utf-8"?>
<!-- Generator: Adobe Illustrator 28.2.0, SVG Export Plug-In . SVG Version: 6.00 Build 0)  -->
<svg version="1.1" id="Layer_1" xmlns="http://www.w3.org/2000/svg" xmlns:xlink="http://www.w3.org/1999/xlink" x="0px" y="0px"
	 viewBox="0 0 512 512" style="enable-background:new 0 0 512 512;" xml:space="preserve">
<path d="M80.3,80.8l3.9,372.4c-31.4,3.9-54.9-11.8-54.9-43.1l-3.9-309.7c0-98,90.2-121.5,145.1-82.3l278.3,160.7
	c39.2,27.4,47,78.4,27.4,113.7c-3.9-27.4-15.7-43.1-39.2-58.8L123.4,57.2C99.9,41.6,80.3,45.5,80.3,80.8z M56.8,472.8
	c23.5,7.8,47,3.9,66.6-7.8l321.5-188.2c19.6,27.4,15.7,54.9-7.8,70.6L166.5,504.2C127.3,523.8,76.4,504.2,56.8,472.8z M150.9,363
	L343,253.3L154.8,147.4L150.9,363z"/>
</svg>
