<svg xmlns="http://www.w3.org/2000/svg" xml:space="preserve" viewBox="0 0 512 512"><path d="M17.7 386.6 14 94.6C14 2.2 99.1-19.9 150.9 17l262.5 151.5c37 25.8 44.3 73.9 25.8 107.2-3.7-25.8-14.8-40.6-37-55.5L106.5 53.9c-22.2-14.6-40.6-11-40.6 22.3l3.7 351.1c-29.7 3.7-51.9-11.2-51.9-40.7m295.9-147.8-177.5-99.9-3.7 203.3zm-29.3 188.7h18v28c-2.9 5.3-7.3 9.7-13.1 12.9s-12 4.7-18.6 4.7c-7.2 0-12.9-1.9-17.1-5.6-4.3-3.8-6.3-8.9-6.3-15.3 0-7.9 3.2-14 9.4-18.2s15.3-6.5 27.7-6.5m0 12.3c-12.1 0-18 2.3-20.9 4.3-2.4 1.7-4 3.7-4 8.1 0 3.6 1.1 5.1 2.1 6.1 2 1.7 5.1 2.6 9.1 2.6 4.5 0 8.7-1.1 12.8-3.3 2.8-1.5 5-3.4 6.7-5.6v-12.1h-5.8zM498 399v110.3h-57.9V400.9c0-8.5-2.1-11.7-3-12.7-1.5-1.7-5.5-2.7-10.8-2.7-8.1 0-13.5 2.8-17.7 9.3v114.6H299.7l-2.9-5.6c-9.6 5.5-20.5 8.2-32.4 8.2-18 0-33.1-5.4-44.7-16-12-10.9-18.1-24.6-18.1-40.6 0-4.3.4-8.4 1.1-12.3l-55.5 32.2c-37 18.4-85 0-103.5-29.6 22.1 7.4 44.3 3.7 62.7-7.4l99.8-58.5c1.6-6.6 4.7-12.9 9.3-18.8 6.6-8.7 15.7-15.6 26.9-20.4 10.8-4.7 22.9-7.1 35.9-7.1 2.3 0 4.5.1 6.7.2l124.5-72.9c18.5 25.8 14.8 51.8-7.4 66.5l-15.4 9H406l.3 4.8c9.5-5 20.3-7.6 32.3-7.6 21.8 0 58.5 8.5 59.5 65.2zm-156.7 95.7c-3.8-8-5.6-18.6-5.6-32v-66.9c-.2-15.8-5.6-28.1-15.9-36.8s-24.2-13.1-41.6-13.1c-11.4 0-21.8 2.1-31 6.1s-16.7 9.6-22 16.7c-5.5 7.1-8.1 14.7-8.1 22.9h33.3c0-5.8 2.4-10.7 7.3-14.5 4.7-3.8 11.1-5.7 18.6-5.7 8.8 0 15.3 2.3 19.6 6.9s6.4 10.8 6.4 18.5v9.7h-20.4c-21.9 0-38.7 4.1-50.5 12.6-11.8 8.4-17.6 20.5-17.6 36.4q0 18.75 14.1 31.5c9.4 8.5 21.5 12.8 36.5 12.8 15.3 0 28.3-5.5 38.9-16.5 1.1 6.4 2.4 11.1 3.9 13.9h34.2v-2.5zm-51.6-102-2.6 1.5h2.8m60.8-36.9-11 6.4c5.4 9 8.2 19.7 8.4 32v67.1c0 8.9.9 16.3 2.7 22.1V357.3zm135 41.7c-.6-35.5-16.3-53.1-47.2-53.1-17.8 0-32.2 6.7-43.2 19.9l-1-17.1H363V497h33.3V391.4c6.6-12.2 16.5-18.2 30-18.2 9.2 0 15.9 2.3 19.9 6.8s6.1 11.6 6.1 20.9V497h33.3v-98z" style="fill:#fff"/></svg>