<?xml version="1.0" encoding="utf-8"?>
<!-- Generator: Adobe Illustrator 28.2.0, SVG Export Plug-In . SVG Version: 6.00 Build 0)  -->
<svg version="1.1" id="Layer_1" xmlns="http://www.w3.org/2000/svg" xmlns:xlink="http://www.w3.org/1999/xlink" x="0px" y="0px"
	 viewBox="0 0 512 512" style="enable-background:new 0 0 512 512;" xml:space="preserve">
<style type="text/css">
	.st0{fill:#FFFFFF;}
	.st1{fill:#FFC230;}
</style>
<g>
	<path id="Shape" class="st0" d="M80.3,80.8l3.9,372.4c-31.4,3.9-54.9-11.8-54.9-43.1l-3.9-309.7c0-98,90.2-121.5,145.1-82.3
		l278.3,160.7c39.2,27.4,47,78.4,27.4,113.7c-3.9-27.4-15.7-43.1-39.2-58.8L123.4,57.2C99.9,41.6,80.3,45.5,80.3,80.8z"/>
	<path id="Shape_00000165935924413286433040000003668002807793862576_" class="st1" d="M150.9,363L343,253.3L154.8,147.4L150.9,363z
		"/>
	<g>
		<path class="st0" d="M251.5,390l-128.1,75c-19.6,11.7-43.1,15.6-66.6,7.8c19.6,31.4,70.5,51,109.7,31.4l85-49.3V390z"/>
		<path class="st0" d="M441.5,340.9c1.2,0,2.3,0.1,3.4,0.2c16.3-16.2,17.1-40.2,0-64.2l-109.5,64.1H441.5z"/>
	</g>
	<g>
		<path class="st0" d="M441.5,340.9H288.3c-20.3,0-36.7,16.4-36.7,36.7v82.2c0,20.3,16.4,36.7,36.7,36.7h153.2
			c20.2,0,36.6-16.4,36.7-36.7v-82.2C478.2,357.3,461.8,340.9,441.5,340.9z M354.1,450.9h-14.9v26.6h-20v-26.6h-51.7l-0.6-12.2
			l51.6-80.9h20.6v77h14.9V450.9z M437.4,477.5l-36-51.7l-13.6,14.4v37.3H367V357.8h20.8V414l11.5-14.2l35-41.9h25.1l-44.5,53
			l47,66.6H437.4z"/>
		<polygon class="st0" points="288,434.8 319.3,434.8 319.3,384.9 317.8,387.5 		"/>
	</g>
</g>
</svg>
