<?xml version="1.0" encoding="utf-8"?>
<!-- Generator: Adobe Illustrator 28.2.0, SVG Export Plug-In . SVG Version: 6.00 Build 0)  -->
<svg version="1.1" id="Layer_1" xmlns="http://www.w3.org/2000/svg" xmlns:xlink="http://www.w3.org/1999/xlink" x="0px" y="0px"
	 viewBox="0 0 512 512" style="enable-background:new 0 0 512 512;" xml:space="preserve">
<style type="text/css">
	.st0{fill:#A40000;}
	.st1{fill:#FFFFFF;}
	.st2{fill:#4E9A06;}
</style>
<path class="st0" d="M413.5,316.2c-3.6-163.1-275.5-150.5-252,7.3C183.2,481.2,311.9,512,311.9,512S418.9,477.6,413.5,316.2z"/>
<path class="st1" d="M208.6,406.9c83.4,7.3,121.5,5.4,188.5-29c-9.1,87-83.4,119.6-83.4,119.6s-77.9-21.8-103.3-90.6H208.6z"/>
<path class="st2" d="M280.2,221C292.9,106.1,241,4.3,238.8,0l-24.2,12.5c0.4,0.7,24.9,49,35.5,114.4c-36.5-65.5-93.8-121.6-97.3-125
	l-18.9,19.5c0.8,0.8,58.1,56.8,92.9,119.1c-19.2-20.1-39.5-33.8-56.7-43c-36.8-19.6-67.5-23.1-68.8-23.3l-3,27
	c0.3,0,27.7,3.3,60,20.8c42.8,23.1,73.8,58.9,92,106.5l17.4-6.7h12.5C280.2,221.7,280.2,221.3,280.2,221z"/>
</svg>
