<svg xmlns="http://www.w3.org/2000/svg" xml:space="preserve" viewBox="0 0 512 512"><path d="M457.8 46.3H54.2C24.3 46.4.1 70.6 0 100.5v310.9c.1 29.9 24.3 54.1 54.2 54.2h403.6c29.9-.1 54.1-24.3 54.2-54.2V100.5c-.1-29.9-24.3-54.1-54.2-54.2M132.1 412.4c-27.4 0-49.7-22.2-49.7-49.6s22.2-49.7 49.6-49.7h.1c8.3 0 16.4 2.1 23.7 6.1l-36.6 21.3c-12.3 7.2-16.5 22.9-9.3 35.2 7.1 12.3 22.9 16.5 35.2 9.3l36.7-21.3c-.6 27.1-22.6 48.7-49.7 48.7m98.7-92.6-92.4 53.7c-5.9 3.4-13.5 1.4-17-4.5-3.4-5.9-1.4-13.5 4.5-17l92.4-53.7c5.9-3.4 13.5-1.4 17 4.5s1.5 13.5-4.5 17m-.6-171.7-.2 42.3c-23.4-14.3-30.7-44.9-16.4-68.3s44.9-30.7 68.3-16.4 30.7 44.9 16.4 68.3c-4.2 6.8-9.9 12.5-16.8 16.6l.2-42.3c.1-14.2-11.4-25.8-25.7-25.9s-25.7 11.5-25.8 25.7M268 255.2c0 6.8-5.6 12.4-12.4 12.4-6.9 0-12.4-5.6-12.4-12.5l.4-106.9c0-6.8 5.6-12.4 12.4-12.4 6.9 0 12.4 5.6 12.4 12.5zm7.9 47.5c3.4-5.9 11-8 17-4.5l93.2 53.8c5.9 3.4 8 11 4.6 17-3.4 5.9-11 8-17 4.6l-93.2-53.8c-6-3.5-8-11.1-4.6-17.1m104 109.7c-27 0-49-21.6-49.6-48.6L367 385c12.3 7.1 28.1 2.9 35.2-9.4s2.9-28.1-9.4-35.2l-36.7-21.2c7.3-4 15.5-6.2 23.8-6.2 27.4 0 49.7 22.2 49.7 49.6 0 27.5-22.2 49.8-49.7 49.8" style="fill:#fd824e"/></svg>