<svg xmlns="http://www.w3.org/2000/svg" xml:space="preserve" viewBox="0 0 512 512"><path d="M51.2 44.8h409.6c28.3 0 51.2 22.9 51.2 51.2v320c0 28.3-22.9 51.2-51.2 51.2H51.2C22.9 467.2 0 444.3 0 416V96c0-28.3 22.9-51.2 51.2-51.2" style="fill:#00a580"/><path d="M469.3 260.9c.1-.1.1-.3.2-.4l.3-.9c.1-.3.1-.6.2-.8 0-.1.1-.3.1-.4.3-1.6.3-3.1 0-4.7 0-.1-.1-.3-.1-.4-.1-.3-.1-.6-.2-.8l-.3-.9c-.1-.1-.1-.3-.2-.4-.2-.5-.4-.9-.7-1.4v-.1l-49.8-86.3c-1.1-2.5-2.9-4.7-5.5-6.1-2.4-1.4-5-1.8-7.6-1.6h-99c-2.5-.2-5.2.3-7.6 1.7-2.3 1.4-4.1 3.4-5.1 5.6l-46.4 80.3h-37.4l35.9-62h16.6c7.1 0 12.8-5.7 12.8-12.8s-5.7-12.8-12.8-12.8h-24c-4.6 0-8.8 2.4-11.1 6.4l-46.9 81.2h-37.4l35.8-62h16.6c7.1 0 12.8-5.7 12.8-12.8s-5.7-12.8-12.8-12.8h-24c-4.6 0-8.8 2.4-11.1 6.4l-46.9 81.2H76.4l35.9-62h16.6c7.1 0 12.8-5.7 12.8-12.8s-5.7-12.8-12.8-12.8h-24c-4.6 0-8.8 2.4-11.1 6.4l-50.6 87.6v.1c-.2.4-.5.9-.7 1.4-.1.1-.1.3-.2.4l-.3.9c-.1.3-.1.5-.2.8 0 .1-.1.3-.1.4-.3 1.6-.3 3.1 0 4.7 0 .1.1.3.1.4.1.3.1.6.2.8l.3.9c.1.1.1.3.2.4.2.5.4.9.7 1.4v.1L93.8 350c2.3 4 6.5 6.4 11.1 6.4h24c7 0 12.7-5.7 12.7-12.8s-5.7-12.8-12.8-12.8h-16.6l-35.8-62h37.4l46.9 81.2c2.3 4 6.5 6.4 11.1 6.4h24c7.1 0 12.8-5.7 12.8-12.8s-5.7-12.8-12.8-12.8h-16.6l-35.8-62h37.4l46.9 81.2c2.3 4 6.5 6.4 11.1 6.4h24c7 0 12.7-5.7 12.7-12.8s-5.7-12.8-12.8-12.8h-16.6l-35.8-62h37.4l46.9 81.2c.1.2.3.4.4.6 0 .1.1.1.1.2.9 1.4 2.1 2.5 3.4 3.4.9.6 1.9 1.1 2.9 1.5.2.1.4.1.6.2s.4.1.7.2.6.1.9.2c.2 0 .4.1.5.1.5.1 1 .1 1.5.1h101.2c2.2 0 4.3-.5 6.3-1.6.2-.1.3-.2.5-.3.3-.2.6-.4.8-.6.2-.1.3-.3.5-.4.2-.2.4-.4.7-.6.2-.1.3-.3.5-.5s.4-.5.6-.7.3-.4.5-.6l.6-.9c0-.1.1-.2.2-.2l50.6-87.6v-.1c.3-.5.5-1 .7-1.5M406.9 318l-14.8-25.6 13.6-23.6h29.6zm-129.6-49.2h29.5l13.7 23.7-14.8 25.5zm28.4-74.8 14.8 25.5-13.7 23.7h-29.5zm36.9 85.6L329 256l13.6-23.6h27.3l13.7 23.6-13.7 23.6zm27.3-72.8h-27.2l-14.8-25.6h56.8zm-27.2 98.4h27.2l14.8 25.6h-56.8zm63-62-13.6-23.6 14.8-25.6 28.4 49.2z" style="fill:#fff"/></svg>