<?xml version="1.0" encoding="utf-8"?>
<!-- Generator: Adobe Illustrator 28.2.0, SVG Export Plug-In . SVG Version: 6.00 Build 0)  -->
<svg version="1.1" id="Layer_1" xmlns="http://www.w3.org/2000/svg" xmlns:xlink="http://www.w3.org/1999/xlink" x="0px" y="0px"
	 viewBox="0 0 512 512" style="enable-background:new 0 0 512 512;" xml:space="preserve">
<style type="text/css">
	.st0{fill:#1167F1;}
	.st1{fill:#FFFFFF;}
</style>
<path class="st0" d="M51.2,44.8h409.6c28.3,0,51.2,22.9,51.2,51.2v320c0,28.3-22.9,51.2-51.2,51.2H51.2C22.9,467.2,0,444.3,0,416V96
	C0,67.7,22.9,44.8,51.2,44.8z"/>
<path class="st1" d="M420.2,288.8v-38.2c0-19.2-15.6-34.8-34.8-34.8h-96.5l-22.7-93.6c-2.8-11.5-13.1-19.6-24.9-19.6H101
	c-14.1,0-25.6,11.5-25.6,25.6c0,14.1,11.5,25.6,25.6,25.6h9.1v34.1H101c-14.1,0-25.6,11.5-25.6,25.6c0,14.1,11.5,25.6,25.6,25.6
	h42.1c46.7,0,84.6,37.9,84.6,84.6v15c0,14.2,11.5,25.6,25.6,25.6H328c8.3,25.7,32.5,44.3,60.9,44.3c35.3,0,64-28.7,64-64
	C452.9,320.6,439.7,299.7,420.2,288.8z M161.3,189.1v-35.3h59.9l17.8,73.9C218.5,207.1,191.4,193.2,161.3,189.1z M266.4,266.9
	c0.1,0,0.2,0,0.3,0c0.7,0.1,1.3,0.1,2,0.1H369v16.8c-15.2,5-28,15.6-35.8,29.3h-54.7C277.2,296.7,273,281.1,266.4,266.9z
	 M388.9,357.4c-7.1,0-12.8-5.7-12.8-12.8s5.8-12.8,12.8-12.8c7.1,0,12.8,5.7,12.8,12.8S396,357.4,388.9,357.4z"/>
<path class="st1" d="M135,306.2c14.1,0,25.6,11.5,25.6,25.6s-11.5,25.6-25.6,25.6s-25.6-11.5-25.6-25.6
	C109.4,317.6,120.9,306.2,135,306.2L135,306.2 M135,255c-42.4,0-76.8,34.4-76.8,76.8s34.4,76.8,76.8,76.8s76.8-34.4,76.8-76.8
	S177.4,255,135,255z"/>
</svg>
