<?xml version="1.0" encoding="utf-8"?>
<!-- Generator: Adobe Illustrator 28.2.0, SVG Export Plug-In . SVG Version: 6.00 Build 0)  -->
<svg version="1.1" id="Layer_1" xmlns="http://www.w3.org/2000/svg" xmlns:xlink="http://www.w3.org/1999/xlink" x="0px" y="0px"
	 viewBox="0 0 512 512" style="enable-background:new 0 0 512 512;" xml:space="preserve">
<path d="M147.7,166.3H209v30.5h-61.3V166.3z M460.8,44.8H51.2C22.9,44.8,0,67.7,0,96v320c0,28.3,22.9,51.2,51.2,51.2h409.6
	c28.3,0,51.2-22.9,51.2-51.2V96C512,67.7,489.1,44.8,460.8,44.8z M70.3,196.8h26.2v-30.5H70.3v-51.2h215.5v51.2h-25.6v30.5h180.4
	V248c-26,0-47,21.1-47,47v24.2l-13.8-6.8l-16.9,8.2c-6.6,3.2-13.5,5.9-20.5,8.1v-33.8c0-16.4,4.1-32.6,12-47H121.5v69.8l-6.1,3
	c-9.2,4.5-27.5,12.1-45.1,12.1V196.8z M441.7,396.9c-21.3-0.4-42.3-5-61.9-13.5c-19.5,8.5-40.6,13.1-61.9,13.5
	c-21.3-0.4-42.3-5-61.9-13.5c-19.5,8.5-40.6,13.1-61.9,13.5c-21.3-0.4-42.3-5-61.9-13.5c-19.6,8.5-40.6,13.1-61.9,13.5v-51.2
	c20.2,0,40.5-8.4,50.7-13.4l11.2-5.5l11.2,5.5c10.2,5,30.5,13.4,50.6,13.4c20.2,0,40.4-8.4,50.6-13.4l11.2-5.5l11.2,5.5
	c10.2,5,30.4,13.4,50.6,13.4s40.4-8.4,50.6-13.4l11.2-5.5l11.2,5.5c10.2,5,30.5,13.4,50.6,13.4v51.2H441.7z"/>
</svg>
