<?xml version="1.0" encoding="utf-8"?>
<!-- Generator: Adobe Illustrator 28.2.0, SVG Export Plug-In . SVG Version: 6.00 Build 0)  -->
<svg version="1.1" id="Layer_1" xmlns="http://www.w3.org/2000/svg" xmlns:xlink="http://www.w3.org/1999/xlink" x="0px" y="0px"
	 viewBox="0 0 512 512" style="enable-background:new 0 0 512 512;" xml:space="preserve">
<style type="text/css">
	.st0{fill:#FFFFFF;}
</style>
<path class="st0" d="M256,258.9c-1.7,0-3.5-0.2-5.2-0.5l-13.9-2.8l12,73.8c0.2,1.4,0.3,2.8,0.3,4.2h13.5c0-1.6,0.1-3.2,0.4-4.7
	l13.4-73.6l-15.5,3.1C259.5,258.7,257.7,258.9,256,258.9z M457.8,46.3H54.2C24.3,46.4,0.1,70.6,0,100.5v310.9
	c0.1,29.9,24.3,54.1,54.2,54.2h403.6c29.9-0.1,54.1-24.3,54.2-54.2V100.5C511.9,70.6,487.7,46.4,457.8,46.3z M466.9,155.9l-6.6,44.8
	c-1.6,11-10,19.8-20.9,22l-107.2,21.4c0,0.1,0,0.2,0,0.3l-16.8,91.9c-1.5,28-24.6,49.9-52.6,49.9h-13.5c-28.1,0-51.3-22.1-52.7-50.2
	l-14.9-91.5L72.6,222.8c-10.9-2.2-19.3-11-20.9-22L45.1,156c-2.1-14.4,7.9-27.8,22.3-29.9s27.8,7.8,29.9,22.2l3.9,26.4L256,205.6
	l154.9-30.9l3.9-26.4c2.1-14.4,15.5-24.3,29.9-22.2C459.1,128.2,469,141.6,466.9,155.9L466.9,155.9z"/>
</svg>
