<svg xmlns="http://www.w3.org/2000/svg" xml:space="preserve" viewBox="0 0 512 512"><path d="M319.1 190.6H194.3c-3.5 0-6.4 2.9-6.4 6.4v81.6h137.6V197c-.1-3.5-2.9-6.3-6.4-6.4M460.8 44.8H51.2C22.9 44.8 0 67.7 0 96v320c0 28.3 22.9 51.2 51.2 51.2h409.6c28.3 0 51.2-22.9 51.2-51.2V96c0-28.3-22.9-51.2-51.2-51.2M149.5 197c0-24.7 20.1-44.8 44.8-44.8h124.8c24.7 0 44.8 20.1 44.8 44.8v120H149.5zm-91 4.9v-50.4h38.4v50.4c0 2.2 1.8 3.9 3.9 3.9h23.1v38.4h-23.1c-23.4 0-42.3-19-42.3-42.3m352.7 177.8H100.8v-38.4h310.4zm42.3-177.8c0 23.4-19 42.3-42.3 42.3h-21.7v-38.4h21.7c2.2 0 3.9-1.8 3.9-3.9v-50.4h38.4z" style="fill:#fff"/></svg>