<?xml version="1.0" encoding="utf-8"?>
<!-- Generator: Adobe Illustrator 28.2.0, SVG Export Plug-In . SVG Version: 6.00 Build 0)  -->
<svg version="1.1" id="Layer_1" xmlns="http://www.w3.org/2000/svg" xmlns:xlink="http://www.w3.org/1999/xlink" x="0px" y="0px"
	 viewBox="0 0 512 512" style="enable-background:new 0 0 512 512;" xml:space="preserve">
<path d="M342.6,279.6L329,256l13.6-23.6h27.3l13.7,23.6l-13.7,23.6H342.6z M342.6,206.8h27.3l14.8-25.6h-56.9L342.6,206.8z
	 M277.2,268.8l28.5,49.2l14.8-25.6l-13.7-23.6H277.2z M392.1,292.4l14.8,25.6l28.4-49.2h-29.5L392.1,292.4z M277.2,243.2h29.6
	l13.7-23.6L305.7,194L277.2,243.2z M512,96v320c0,28.3-22.9,51.2-51.2,51.2H51.2C22.9,467.2,0,444.3,0,416V96
	c0-28.3,22.9-51.2,51.2-51.2h409.6C489.1,44.8,512,67.7,512,96z M470.5,255.8c0-0.5,0-1-0.1-1.5c-0.1-0.1-0.1-0.3-0.1-0.4
	c0-0.4-0.1-0.7-0.2-1.1c0-0.1-0.1-0.3-0.1-0.4c-0.1-0.4-0.2-0.9-0.4-1.3V251c-0.2-0.5-0.4-0.9-0.7-1.4c-0.1,0-0.1-0.1-0.1-0.1
	l-50.1-86.8c-1.1-2.3-2.8-4.3-5.2-5.6c-2.3-1.3-4.9-1.8-7.4-1.6h-99.2c-2.5-0.2-5.2,0.3-7.5,1.7c-2.3,1.4-4,3.3-5.1,5.6l-46.4,80.4
	h-37.4l35.8-62h16.6c7.1,0,12.8-5.7,12.8-12.8c0-7.1-5.7-12.8-12.8-12.8h-24c-4.6,0-8.8,2.4-11.1,6.4l-46.9,81.2h-37.4l35.8-62h16.6
	c7.1,0,12.8-5.7,12.8-12.8c0-7.1-5.7-12.8-12.8-12.8h-24c-4.6,0-8.8,2.4-11.1,6.4l-46.9,81.2H76.5l35.8-62h16.6
	c7.1,0,12.8-5.7,12.8-12.8c0-7.1-5.7-12.8-12.8-12.8h-24c-4.6,0-8.8,2.4-11.1,6.4l-50.7,87.8v0.1c-0.3,0.4-0.5,0.9-0.7,1.4v0.1
	c-0.2,0.4-0.4,0.8-0.5,1.3c0,0.1-0.1,0.3-0.1,0.4c-0.1,0.3-0.1,0.7-0.2,1.1c-0.1,0.1-0.1,0.3-0.1,0.4c-0.1,0.5-0.1,1-0.1,1.5v0.1
	c0,0.5,0,1,0.1,1.5c0.1,0.1,0.1,0.3,0.1,0.4c0,0.3,0.1,0.7,0.2,1.1c0,0.1,0.1,0.3,0.1,0.4c0.2,0.4,0.3,0.9,0.5,1.3v0.1
	c0.2,0.5,0.4,0.9,0.7,1.4v0.1l50.6,87.6c2.3,4,6.5,6.4,11.1,6.4h24c7.1,0,12.8-5.7,12.8-12.8s-5.7-12.8-12.8-12.8h-16.6l-35.8-62
	h37.3l46.9,81.2c2.3,4,6.5,6.4,11.1,6.4h24c7.1,0,12.8-5.7,12.8-12.8s-5.7-12.8-12.8-12.8h-16.6l-35.8-62h37.4l46.9,81.2
	c2.3,4,6.5,6.4,11.1,6.4h24c7.1,0,12.8-5.7,12.8-12.8s-5.7-12.8-12.8-12.8h-16.6l-35.8-62h37.4l46.9,81.2c0.2,0.2,0.3,0.5,0.5,0.7
	c0.2,0.3,0.4,0.6,0.6,0.9c0.1,0.1,0.1,0.1,0.2,0.2c0.2,0.3,0.4,0.5,0.7,0.8c0.2,0.2,0.5,0.5,0.8,0.7c0.1,0.1,0.1,0.1,0.2,0.2
	c0.2,0.2,0.4,0.4,0.7,0.6c0.1,0,0.1,0.1,0.2,0.1c0.3,0.2,0.6,0.3,0.9,0.5c0.1,0.1,0.2,0.1,0.3,0.2c0.3,0.1,0.5,0.2,0.7,0.3
	c0.1,0.1,0.2,0.2,0.3,0.2c0.3,0.1,0.6,0.2,0.9,0.3c0.1,0,0.3,0.1,0.4,0.1c0.2,0.1,0.5,0.1,0.7,0.2c0.2,0,0.3,0.1,0.4,0.1
	c0.3,0.1,0.7,0.2,1,0.2c0.1,0,0.3,0,0.4,0c0.3,0,0.6,0,0.9,0c0.1,0,0.1,0,0.2,0h0.1h101.1h0.1h0.1c0.5,0,1,0,1.5-0.1h0.1
	c0.5-0.1,1-0.2,1.5-0.3h0.1c0.5-0.1,1-0.3,1.5-0.5c0.1,0,0.1,0,0.1,0c0.5-0.2,1-0.4,1.5-0.7c0.4-0.2,0.7-0.4,1-0.6
	c0-0.1,0.1-0.1,0.2-0.2c0.2-0.2,0.5-0.5,0.8-0.7c0.1-0.1,0.1-0.1,0.2-0.2c0.2-0.2,0.4-0.4,0.6-0.6c0-0.1,0.1-0.2,0.2-0.3
	c0.3-0.3,0.5-0.5,0.7-0.8c0.1,0,0.1-0.1,0.2-0.2c0.2-0.2,0.3-0.5,0.5-0.7c0.1-0.1,0.1-0.2,0.2-0.3c0-0.1,0.1-0.1,0.1-0.2l50.6-87.6
	c0.3-0.6,0.5-1,0.9-1.6v-0.1c0.2-0.5,0.4-0.9,0.5-1.4c0-0.1,0.1-0.3,0.1-0.4c0.1-0.3,0.1-0.7,0.2-1.1c0.1-0.1,0.1-0.3,0.1-0.4
	c0.1-0.5,0.1-1,0.1-1.5V255.8z M342.6,305.2l-14.8,25.6h56.9l-14.8-25.6H342.6z M392.1,219.6l13.7,23.6h29.5L406.9,194L392.1,219.6z
	"/>
</svg>
