<svg xmlns="http://www.w3.org/2000/svg" xml:space="preserve" viewBox="0 0 512 512"><path d="M51.2 44.8h409.6c28.3 0 51.2 22.9 51.2 51.2v320c0 28.3-22.9 51.2-51.2 51.2H51.2C22.9 467.2 0 444.3 0 416V96c0-28.3 22.9-51.2 51.2-51.2" style="fill:#1167f1"/><path d="M420.2 288.8v-38.2c0-19.2-15.6-34.8-34.8-34.8h-96.5l-22.7-93.6c-2.8-11.5-13.1-19.6-24.9-19.6H101c-14.1 0-25.6 11.5-25.6 25.6s11.5 25.6 25.6 25.6h9.1v34.1H101c-14.1 0-25.6 11.5-25.6 25.6s11.5 25.6 25.6 25.6h42.1c46.7 0 84.6 37.9 84.6 84.6v15c0 14.2 11.5 25.6 25.6 25.6H328c8.3 25.7 32.5 44.3 60.9 44.3 35.3 0 64-28.7 64-64 0-24-13.2-44.9-32.7-55.8m-258.9-99.7v-35.3h59.9l17.8 73.9c-20.5-20.6-47.6-34.5-77.7-38.6m105.1 77.8h.3c.7.1 1.3.1 2 .1H369v16.8c-15.2 5-28 15.6-35.8 29.3h-54.7c-1.3-16.4-5.5-32-12.1-46.2m122.5 90.5c-7.1 0-12.8-5.7-12.8-12.8s5.8-12.8 12.8-12.8c7.1 0 12.8 5.7 12.8 12.8s-5.7 12.8-12.8 12.8M135 306.2c14.1 0 25.6 11.5 25.6 25.6s-11.5 25.6-25.6 25.6-25.6-11.5-25.6-25.6c0-14.2 11.5-25.6 25.6-25.6m0-51.2c-42.4 0-76.8 34.4-76.8 76.8s34.4 76.8 76.8 76.8 76.8-34.4 76.8-76.8S177.4 255 135 255" style="fill:#fff"/></svg>