<svg xmlns="http://www.w3.org/2000/svg" xml:space="preserve" viewBox="0 0 512 512"><path d="M221.2 153.8h-59.8v35.3c30.1 4.1 57.1 18 77.7 38.5zM135 306.2c-14.1 0-25.6 11.5-25.6 25.6s11.5 25.6 25.6 25.6 25.6-11.5 25.6-25.6-11.4-25.6-25.6-25.6m234-22.5V267H268.3c-.5 0-1 0-1.5-.1h-.4c6.6 14.2 10.8 29.8 12.1 46.2h54.7c7.8-13.8 20.6-24.4 35.8-29.4m91.8-238.9H51.2C22.9 44.8 0 67.7 0 96v320c0 28.3 22.9 51.2 51.2 51.2h409.6c28.3 0 51.2-22.9 51.2-51.2V96c0-28.3-22.9-51.2-51.2-51.2M135 408.6c-42.4 0-76.8-34.4-76.8-76.8S92.6 255 135 255s76.8 34.4 76.8 76.8-34.4 76.8-76.8 76.8m253.9 0c-28.5 0-52.6-18.6-60.9-44.3h-74.7c-14.1 0-25.6-11.4-25.6-25.6v-15c0-46.7-37.9-84.6-84.6-84.6H101c-14.1 0-25.6-11.5-25.6-25.6s11.5-25.6 25.6-25.6h9.1v-34H101c-14.1 0-25.6-11.5-25.6-25.6s11.5-25.6 25.6-25.6h140.3c11.8 0 22.1 8.1 24.9 19.6l22.6 93.6h96.6c19.2 0 34.8 15.6 34.8 34.8v38.2c19.5 11 32.7 31.8 32.7 55.8 0 35.2-28.6 63.9-64 63.9m.1-76.8c7.1 0 12.8 5.7 12.8 12.8s-5.7 12.8-12.8 12.8-12.8-5.7-12.8-12.8 5.7-12.8 12.8-12.8" style="fill:#fff"/></svg>