<svg xmlns="http://www.w3.org/2000/svg" xml:space="preserve" viewBox="0 0 512 512"><path d="M147.7 166.3H209v30.5h-61.3zM460.8 44.8H51.2C22.9 44.8 0 67.7 0 96v320c0 28.3 22.9 51.2 51.2 51.2h409.6c28.3 0 51.2-22.9 51.2-51.2V96c0-28.3-22.9-51.2-51.2-51.2m-390.5 152h26.2v-30.5H70.3v-51.2h215.5v51.2h-25.6v30.5h180.4V248c-26 0-47 21.1-47 47v24.2l-13.8-6.8-16.9 8.2c-6.6 3.2-13.5 5.9-20.5 8.1v-33.8c0-16.4 4.1-32.6 12-47H121.5v69.8l-6.1 3c-9.2 4.5-27.5 12.1-45.1 12.1zm371.4 200.1c-21.3-.4-42.3-5-61.9-13.5-19.5 8.5-40.6 13.1-61.9 13.5-21.3-.4-42.3-5-61.9-13.5-19.5 8.5-40.6 13.1-61.9 13.5-21.3-.4-42.3-5-61.9-13.5-19.6 8.5-40.6 13.1-61.9 13.5v-51.2c20.2 0 40.5-8.4 50.7-13.4l11.2-5.5 11.2 5.5c10.2 5 30.5 13.4 50.6 13.4 20.2 0 40.4-8.4 50.6-13.4l11.2-5.5 11.2 5.5c10.2 5 30.4 13.4 50.6 13.4s40.4-8.4 50.6-13.4l11.2-5.5 11.2 5.5c10.2 5 30.5 13.4 50.6 13.4v51.2z" style="fill:#fff"/></svg>