<?xml version="1.0" encoding="utf-8"?>
<!-- Generator: Adobe Illustrator 28.2.0, SVG Export Plug-In . SVG Version: 6.00 Build 0)  -->
<svg version="1.1" id="Layer_1" xmlns="http://www.w3.org/2000/svg" xmlns:xlink="http://www.w3.org/1999/xlink" x="0px" y="0px"
	 viewBox="0 0 512 512" style="enable-background:new 0 0 512 512;" xml:space="preserve">
<style type="text/css">
	.st0{fill:#FFFFFF;}
</style>
<path class="st0" d="M421.9,232.5l-3.6-6.5c0.1-46.4-21.1-65.3-45.8-79.7c7.5-2,15.2-3.7,17.3-13.2c12.9-3.3,15.5-9.4,16.8-15.8
	c3.4-2.3,14.6-8.7,13.4-19.6c6.3-4.4,9.8-10.1,8-18.1c6.8-7.5,8.6-13.7,5.7-19.4c8.1-10.3,4.5-15.6,1-20.9
	C440.9,28,435.5,16,418.5,18c-6.8-10.1-21.5-7.8-23.8-7.8c-2.6-3.2-5.9-6-16.3-4.7c-6.7-6.1-14.2-5-22-2.1
	c-9.2-7.3-15.3-1.4-22.2,0.8c-11.1-3.6-13.7,1.4-19.2,3.4c-12.1-2.6-15.8,3-21.7,8.9l-6.8-0.1c-18.3,10.8-27.4,32.8-30.6,44.1
	c-3.2-11.3-12.3-33.3-30.6-44.1l-6.8,0.1c-5.8-5.9-9.5-11.5-21.7-8.9c-5.5-2-8-7-19.2-3.4c-4.6-1.4-8.8-4.4-13.7-4.3
	c-2.6,0.1-5.4,1-8.5,3.5c-7.8-3-15.3-4-22,2.1c-10.4-1.4-13.7,1.4-16.3,4.7c-2.3,0-17-2.3-23.8,7.8c-17-2-22.4,10-16.3,21.2
	c-3.5,5.4-7.1,10.7,1,21c-2.9,5.7-1.1,11.9,5.7,19.4c-1.8,8,1.7,13.7,8,18.1c-1.2,11,10.1,17.4,13.4,19.6c1.3,6.4,4,12.4,16.8,15.8
	c2.1,9.5,9.8,11.2,17.3,13.2c-24.7,14.4-45.9,33.3-45.8,79.7l-3.6,6.5c-28.4,17.2-53.9,72.7-14,117.7c2.6,14.1,7,24.2,10.9,35.4
	c5.8,45.2,43.8,66.3,53.8,68.8c14.7,11.2,30.3,21.8,51.5,29.2c19.9,20.6,41.5,28.4,63.3,28.4c0.3,0,0.6,0,1,0
	c21.7,0,43.3-7.8,63.3-28.4c21.1-7.4,36.8-18,51.5-29.2c10-2.5,48-23.7,53.8-68.8c3.9-11.2,8.3-21.3,10.9-35.4
	C475.8,305.1,450.2,249.7,421.9,232.5z M396.3,224.5c-1.5,18.7-97.4-65.1-80.9-67.9C360.4,149.1,397.8,175.8,396.3,224.5z M291,29.2
	c0.8,4.2,1.8,6.9,2.8,7.7c5.3-5.8,9.7-11.7,16.6-17.3c0,3.3-1.6,6.9,2.5,9.4c3.6-5,8.7-9.5,15.3-13.4c-3.2,5.5-0.5,7.3,1.2,9.6
	c5-4.4,9.9-8.8,19.1-12.3c-2.6,3.1-6.1,6.2-2.3,9.9c5.2-3.3,10.4-6.6,22.8-8.9c-2.8,3.1-8.5,6.3-5,9.4c6.5-2.6,13.7-4.4,21.7-5.4
	c-3.8,3.2-7,6.3-3.9,8.8c7-2.2,16.6-5.1,26-2.6l-6,6.1c-0.7,0.8,13.9,0.7,23.6,0.8c-3.5,5-7.1,9.7-9.2,18.2c0.9,0.9,5.7,0.4,10.2,0
	c-4.6,9.9-12.6,12.3-14.4,16.6c2.8,2.2,6.7,1.6,11,0.1c-3.3,6.9-10.3,11.7-15.8,17.3c1.4,1,3.8,1.6,9.6,0.9
	c-5.1,5.5-11.2,10.5-18.5,15c1.3,1.5,5.7,1.5,9.9,1.5c-6.6,6.6-15.1,9.9-23,14.2c3.9,2.8,6.8,2.1,9.9,2c-5.6,4.7-15.2,7.2-24.1,9.9
	c1.7,2.6,3.4,3.4,7,4.2c-9.4,5.3-22.8,2.8-26.6,5.5c0.9,2.6,3.5,4.4,6.6,5.8c-15.1,0.9-56.5-0.6-64.4-32.3
	c15.3-17.4,43.6-37.6,92.2-62.7c-37.8,12.8-72,30-100.5,53.6C251.4,85.2,274.6,45.2,291,29.2z M255.8,143.9
	c23.8-0.3,53.3,17.7,53.2,34.7c-0.1,15-20.7,27.1-53,26.9c-31.6-0.4-52.9-15.3-52.8-29.8C203.3,163.8,229,143.2,255.8,143.9z
	 M135.5,131c3.6-0.7,5.3-1.5,7-4.2c-8.9-2.8-18.5-5.3-24.1-9.9c3.1,0.1,5.8,0.7,9.9-2c-8-4.3-16.4-7.7-23-14.2
	c4.1-0.1,8.5-0.1,9.9-1.5c-7.3-4.5-13.4-9.5-18.5-15c5.8,0.7,8.2,0.1,9.6-0.9c-5.5-5.6-12.5-10.4-15.8-17.3c4.3,1.5,8.2,2,11-0.1
	c-1.9-4.2-9.9-6.7-14.4-16.6c4.5,0.4,9.3,0.9,10.2,0C95.1,40.8,91.6,36,88.1,31c9.6-0.1,24.2,0.1,23.6-0.8l-6-6.1
	c9.4-2.6,19,0.4,26,2.6c3.1-2.5-0.1-5.6-3.9-8.8c8,1.1,15.2,2.9,21.7,5.4c3.5-3.1-2.3-6.3-5-9.4c12.3,2.3,17.6,5.6,22.8,8.9
	c3.8-3.6,0.2-6.7-2.3-9.9c9.1,3.5,13.9,8,19,12.4c1.7-2.3,4.4-4,1.2-9.6c6.6,3.8,11.6,8.3,15.3,13.4c4.1-2.6,2.4-6.1,2.5-9.4
	c6.9,5.6,11.2,11.5,16.6,17.3c1.1-0.8,2-3.4,2.8-7.7c16.3,15.9,39.6,55.9,6,71.8c-28.6-23.6-62.8-40.7-100.5-53.6
	c48.5,25,76.8,45.3,92.2,62.5c-7.9,31.8-49.3,33.2-64.4,32.3c3.1-1.5,5.7-3.1,6.6-5.8C158.3,133.9,144.9,136.3,135.5,131z
	 M191.2,155.3c16.6,2.8-79.4,86.5-80.9,67.9C108.9,174.4,146.3,147.7,191.2,155.3z M90.5,341.9c-23.4-18.8-30.8-73.7,12.4-98.4
	C129,236.6,111.7,351.3,90.5,341.9z M181.4,440.2c-13.1,8-45.1,4.7-67.8-27.9c-15.3-27.4-13.4-55.2-2.6-63.3
	c16.1-9.8,40.9,3.4,60,25.6C187.7,394.5,195.3,429.8,181.4,440.2z M155.6,320.6c-23.9-15.7-28.3-51.8-9.7-80.1
	c18.6-28.2,53.7-38.5,77.6-22.8c23.9,15.7,28.3,51.8,9.7,80.1C214.6,326,179.5,336.2,155.6,320.6z M255.8,496.1
	c-28.9,1.2-57.3-23.7-56.9-32.3c-0.4-12.7,35.3-22.6,58.5-22c23.4-1,54.8,7.5,54.8,18.9C312.6,471.6,283.8,496.5,255.8,496.1z
	 M315.4,371v0.3c0,29.5-26.3,53.7-58.2,53.7S199,400.8,199,371.3c0-0.1,0-0.2,0-0.3s0-0.2,0-0.3c0-29.5,26.3-53.7,58.2-53.7
	s58.2,24.2,58.2,53.7V371z M278.9,294.9c-18.6-28.2-14.2-64.4,9.7-80.1c24-15.7,59-5.4,77.6,22.8c18.6,28.2,14.2,64.4-9.7,80.1
	C332.6,333.3,297.5,323,278.9,294.9z M396.8,413.9c-24.9,34.6-58.7,35.9-71.2,26.3c-13.1-12.4-3.1-50.9,14.9-72
	c20.7-23.4,42.7-38.5,58-26.6C408.8,351.9,414.9,390.7,396.8,413.9z M416.4,340.5c-21.2,9.4-38.5-105.4-12.4-98.4
	C447.2,266.8,439.6,321.7,416.4,340.5z"/>
</svg>
