<svg xmlns="http://www.w3.org/2000/svg" xml:space="preserve" viewBox="0 0 512 512"><path d="m445.8 92-65.1 65.1c-2 2-2.2 5.5-.5 7.8 18.3 25 28.7 54.9 29.8 85.9.1 2.9.1 7.5 0 10.4-1.2 30.9-11.6 60.8-30 85.7-1.7 2.3-1.5 5.8.5 7.8l65.3 65.3c2 2 5.2 1.9 7-.3 37.1-44.6 58-100.5 59.1-158.5.1-2.9.1-7.5 0-10.4-1.2-58-22-113.9-59.1-158.5-1.8-2.2-5-2.4-7-.3M55.9 96.3C21.9 138.9 2.4 191.2.2 245.6c-.2 5.7-.2 15.1 0 20.8 2.2 54.4 21.7 106.7 55.7 149.3 3.6 4.5 10 4.7 14 .6l58-58c4.1-4.1 4.4-11 1.2-15.7-15.5-22.6-24.7-48.9-26.7-76.3-.4-5.7-.4-15.1 0-20.8 1.9-27.3 11.2-53.7 26.7-76.3 3.3-4.7 2.9-11.7-1.2-15.7l-58-58c-4.1-3.9-10.4-3.7-14 .8" style="fill-rule:evenodd;clip-rule:evenodd"/><path d="m155.8 381.9-62.4 62.4c-2.8 2.8-2.7 7.3.4 9.8 43.8 35.8 98.3 56.2 154.8 57.8 4 .1 10.5.1 14.6 0 56.6-1.6 111-21.9 154.8-57.8 3.1-2.5 3.3-7 .4-9.8L356 381.9c-2.8-2.8-7.7-3.1-11-.8-24 17.2-52.4 27.2-81.9 28.7-4 .2-10.5.2-14.6 0-29.5-1.5-57.9-11.5-81.9-28.7-3.1-2.3-7.9-2-10.8.8M245.6.2C191.2 2.4 138.9 21.9 96.3 55.9c-4.5 3.6-4.7 10-.6 14l58 58c4.1 4.1 11 4.4 15.7 1.2 22.6-15.5 48.9-24.7 76.3-26.7 5.7-.4 15.1-.4 20.8 0 27.4 1.9 53.8 11 76.5 26.5 4.7 3.2 11.7 2.9 15.7-1.2L416.4 70c4.1-4.1 3.9-10.4-.6-14C373.2 22 320.9 2.5 266.5.3c-5.9-.4-15.2-.4-20.9-.1" style="opacity:.5;fill-rule:evenodd;clip-rule:evenodd"/></svg>