<svg xmlns="http://www.w3.org/2000/svg" xml:space="preserve" viewBox="0 0 512 512"><linearGradient id="re-command_svg__a" x1="-695.575" x2="-519.089" y1="422.325" y2="327.556" gradientTransform="scale(2.8347 -2.8347)rotate(74.999 49.828 580.752)" gradientUnits="userSpaceOnUse"><stop offset="0" style="stop-color:#3a6fc6"/><stop offset="1" style="stop-color:#3ae6e6"/></linearGradient><path d="M207 90c-82.8 3.3-157.5 59.8-180.1 144C-.8 337.5 60.8 444.4 164.4 472.1s210.4-33.9 238.2-137.5C430.3 231 368.7 124.2 265.1 96.5c-19.5-5.2-39-7.3-58.1-6.5m.9 25.5c16.6-.7 33.6 1.2 50.5 5.7C348.7 145.3 402 237.8 377.9 328 353.7 418.2 261.3 471.6 171 447.4 80.8 423.2 27.4 330.8 51.6 240.6c19.7-73.3 84.4-122.3 156.3-125.1m-98.6 65.1c-2.7.2-5.2 1.4-7.1 3.4-2.1 2.4-4.2 4.8-6.1 7.3-3.5 4.4-2.7 10.9 1.7 14.4s10.9 2.7 14.4-1.7c1.7-2.2 3.5-4.3 5.3-6.3 3.8-4.2 3.4-10.7-.8-14.4-2-2-4.7-2.9-7.4-2.7m-23 36.9c-4.1-.1-7.9 2.3-9.6 6.1-3.5 8-6.3 16.3-8.4 24.7-6.2 25.2-5.8 51.8 1.3 77 1.5 5.4 7.2 8.6 12.6 7.1s8.6-7.2 7.1-12.6c-8.2-29.1-6.1-60.2 6.1-87.9 2.3-5.2-.1-11.2-5.3-13.5-1.1-.6-2.4-.9-3.8-.9m125.8.3c-28.3 1.2-54 20.5-61.7 49.3-9.5 35.4 11.7 72 47.1 81.5s72-11.7 81.5-47.1-11.7-72-47.1-81.5c-6.6-1.8-13.3-2.5-19.8-2.2m.8 20.4c4.5-.2 9.2.3 13.8 1.6 24.7 6.6 39.2 31.7 32.6 56.4s-31.7 39.2-56.4 32.6-39.2-31.7-32.6-56.4c5.3-20.1 22.9-33.4 42.6-34.2m1.8 33.8c-5.5 0-10.4 3.7-11.8 9.1-1.8 6.5 2.1 13.3 8.7 15 6.5 1.8 13.3-2.1 15-8.7 1.8-6.5-2.1-13.3-8.7-15-1-.2-2.1-.4-3.2-.4M114.4 372.2c-2.7 0-5.3 1-7.3 2.9-1.9 1.9-3.1 4.5-3.1 7.2s1 5.3 2.9 7.3c18.7 19.1 42.1 32.9 67.9 40 5.5 1.5 11.1-1.7 12.6-7.2s-1.7-11.1-7.2-12.6c-22.3-6.1-42.5-18.1-58.7-34.6-1.8-1.8-4.4-2.9-7.1-3m251.5 67c-2.7-.1-5.4.8-7.4 2.7-26.7 24.4-59.2 41.5-94.3 49.9-2.6.6-4.9 2.3-6.4 4.6-1.4 2.3-1.9 5.1-1.2 7.7 1.3 5.5 6.8 8.9 12.3 7.6 38.5-9.2 74.1-28 103.4-54.7 4.2-3.8 4.5-10.3.7-14.5-1.9-1.9-4.4-3.1-7.1-3.3" style="fill:url(#re-command_svg__a)"/><linearGradient id="re-command_svg__b" x1="-177.138" x2="-273.762" y1="885.284" y2="785.053" gradientTransform="matrix(2.8346 0 0 -2.8346 988.247 2514.891)" gradientUnits="userSpaceOnUse"><stop offset="0" style="stop-color:#3b6bb0"/><stop offset="1" style="stop-color:#3e30f1"/></linearGradient><path d="M307.3 0c-1.9.1-3.7.9-7.4 2.6-2.6 1.2-14.8 7.1-27.2 12.9-33.9 16.1-43 21.5-50.7 30l-3.7 4-1.9 3.4-1.9 3.4-1.3 5.2-1.3 5.2.1 3.6c0 2 .4 5.5.9 7.8 2.2 11.6 6.7 20.1 33.2 63.3l10.8 17.5 2 1.8 2 1.8 2.6.8 2.6.8 2.8-.5 2.8-.5 2.2-1.6 2.2-1.6 1.3-2.4 1.3-2.4.2-2.7.2-2.7-.9-2.3c-.5-1.3-7.9-13.7-16.5-27.6-19.3-31.6-23.5-39.4-24.8-47l-.5-2.9.9-3 .9-3 2.1-2.2c5.9-6.2 12.1-9.5 61-32.7l13.6-6.4 1.9-1.9c1.1-1 2.4-2.8 2.9-3.9l.9-2v-2.7c0-1.5-.4-3.7-.9-4.9l-.9-2.1-2.2-2-2.2-2-3.4-.7c-1.5-.3-2.6-.5-3.7-.4m64.6 12.5-2.5 1.1-2.5 1.1-1.5 1.9c-.8 1-1.9 2.9-2.3 4.1-1 3.2-64.7 243.3-65.1 245.4l-.3 1.8.8 2.8.8 2.8 2 2.2 2 2.2 2.7.9 2.7.9 2.2-.3c4.3-.5 8.1-3.1 10.1-6.9.3-.6 15.2-56.2 33.1-123.6l32.6-122.5v-2c0-4.5-3-9.3-7-11.1l-2-.9h-2.9zm63.8 112.7c-2.6.2-4.9 1.3-7.2 3.4l-1.8 1.7-1 2.4-1 2.4.1 2.5c.1 3.4-.2 2.8 15.2 28.1 20.9 34.2 25.7 43.2 26.9 50.3l.5 3.1-.8 2.9-.8 2.9-2 2.3c-5 5.6-13.2 10.2-49.2 27.2l-26.4 12.5-1.5 1.6c-5.1 5.3-4.2 14.1 1.8 18.7.7.5 2.4 1.2 3.9 1.6l2.7.6 2.5-.5 2.5-.5 24.9-11.8c43.2-20.5 53.2-26.7 60.4-37.3l2.3-3.4 1.7-4.8 1.7-4.8.4-4c1.3-14.9-2.2-22.9-31.2-70.5l-12.9-21.1-2-2-2-2-2.6-.8c-1.8-.6-3.5-.9-5.1-.7" style="fill:url(#re-command_svg__b)"/></svg>