<svg xmlns="http://www.w3.org/2000/svg" xml:space="preserve" viewBox="0 0 512 512"><path d="M172.4 266c-.7-4.5 2.4-8.8 6.9-9.5 17.1-.9 36-2.6 56.4-5.9 20.2-3.2 38.6-7.3 55-11.8.5-.1 3.5-.5 6.2 1.5 1.7 1.3 3 3.2 3.3 5.4.7 4.5-2.4 8.8-6.9 9.5-16.7 3.7-34.4 7.1-53 10.1-20.4 3.3-39.9 5.7-58.4 7.5-4.4.8-8.7-2.3-9.5-6.8m9.6-41.5c18.5-1.8 38-4.2 58.4-7.5 18.6-3 36.3-6.4 53-10.1 4.5-.7 7.6-5 6.9-9.5-.4-2.3-1.6-4.2-3.3-5.4-2.7-2-5.6-1.6-6.2-1.5-16.9 4.3-35.5 8.2-55.7 11.4-19.9 3.1-38.6 5.1-55.7 6.2-4.5.7-7.6 5-6.9 9.5s5 7.6 9.5 6.9m330-109.3v281.5c0 63.6-51.6 115.2-115.2 115.2H115.2C51.6 512 0 460.4 0 396.8V115.2C0 51.6 51.6 0 115.2 0h281.5C460.4 0 512 51.6 512 115.2M159.6 398.1c49.2-.4 71.7-3.9 71.7-3.9 4.4-.1 93-15.1 103-24.7 11-10.5 11.8-23.7 11.9-26.4V114c.1-1.2 1.7-17.3-11.1-27.9-11.9-9.8-26.1-6.6-27.6-6.2L159.6 98.5c-21 0-37.9 17-37.9 37.9l2.3 223.2c0 15.7 8.2 29.4 21.2 35.4 5.2 2.4 10.3 3.1 14.4 3.1m219.6-285.6c-4.6-4-9.6-5.9-14-6.7 1.9 7.4 1.3 13.6 1.2 14.3V340c-.1 2.9 0 34.8-23.2 46.1-10.4 10.1-94.4 26-99.1 26.1 0 0-21.4 3.4-68 4 3.6 5.9 8.7 10.6 14.8 13.5 5.2 2.5 10.2 3.2 14.3 3.2 48.8-.4 71.2-4 71.2-4 4.4-.1 85.8-13.6 100.7-25.2 13.3-9.1 13.1-24.4 13.2-27.2V141.1c0-1.2 1.6-17.7-11.1-28.6M182 176c18.5-1.8 38-4.2 58.4-7.5 18.6-3 36.3-6.4 53-10.1 4.5-.7 7.6-5 6.9-9.5-.4-2.3-1.6-4.2-3.3-5.4-2.7-2-5.6-1.6-6.2-1.5-16.4 4.5-34.9 8.6-55.2 11.8s-39.2 5-56.3 5.8c-4.5.7-7.6 5-6.9 9.5.8 4.5 5.1 7.6 9.6 6.9m61.8 129c0-.4.1-2.3-1.4-3.9-1.5-1.7-3.5-1.8-3.8-1.8-10.6 1.2-21.4 2.3-32.3 3.4-10.4 1-20.6 1.9-30.8 2.7-.2.1-4.2 2.5-4.2 7 0 3.4 2.2 6.6 5.5 7.8 10 .1 21.1-.3 33.1-1.6 11-1.2 21-2.9 30.1-4.8 2.5-.3 4.2-4.2 3.8-8.8" style="fill:#fff"/></svg>