<svg xmlns="http://www.w3.org/2000/svg" xml:space="preserve" viewBox="0 0 512 512"><path d="M396.8 512H115.2C51.6 512 0 460.4 0 396.8V115.2C0 51.6 51.6 0 115.2 0h281.5C460.4 0 512 51.6 512 115.2v281.5c0 63.7-51.6 115.3-115.2 115.3" style="fill:#212122"/><path d="M390.2 141.1v235.4c-.1 2.8.1 18.1-13.2 27.2-15 11.6-96.3 25.2-100.7 25.2 0 0-22.4 3.6-71.2 4-4.1 0-9.1-.7-14.3-3.2-6.1-2.9-11.2-7.6-14.8-13.5 46.5-.6 68-4 68-4 4.6-.1 88.6-16.1 99.1-26.1 23.2-11.2 23.1-43.2 23.2-46.1V120.2c.1-.7.8-7-1.2-14.3 4.4.8 9.4 2.7 14 6.7 12.8 10.8 11.2 27.3 11.1 28.5m-44-27.1v229.2c-.1 2.7-.9 15.9-11.9 26.4-10 9.5-98.5 24.6-103 24.7 0 0-22.5 3.5-71.7 3.9-4.1 0-9.2-.7-14.5-3.1-12.9-5.9-21.2-19.7-21.2-35.4l-2.3-223.2c0-21 17-37.9 37.9-37.9L307.4 80c1.5-.4 15.7-3.7 27.6 6.2 12.9 10.5 11.3 26.6 11.2 27.8M243.8 305c0-.4.1-2.3-1.4-3.9-1.5-1.7-3.5-1.8-3.8-1.8-10.6 1.2-21.4 2.3-32.3 3.4-10.4 1-20.6 1.9-30.8 2.7-.2.1-4.2 2.5-4.2 7 0 3.4 2.2 6.6 5.5 7.8 10 .1 21.1-.3 33.1-1.6 11-1.2 21-2.9 30.1-4.8 2.5-.3 4.2-4.2 3.8-8.8m56.5-59.3c-.4-2.3-1.6-4.2-3.3-5.4-2.7-2-5.6-1.6-6.2-1.5-16.4 4.4-34.8 8.5-55 11.8-20.4 3.2-39.3 5-56.4 5.9-4.5.7-7.6 5-6.9 9.5s5 7.6 9.5 6.9c18.5-1.8 38-4.2 58.4-7.5 18.6-3 36.3-6.4 53-10.1 4.5-.8 7.6-5 6.9-9.6m0-48.4c-.4-2.3-1.6-4.2-3.3-5.4-2.7-2-5.6-1.6-6.2-1.5-16.9 4.3-35.5 8.2-55.7 11.4-19.9 3.1-38.6 5.1-55.7 6.2-4.5.7-7.6 5-6.9 9.5s5 7.6 9.5 6.9c18.5-1.8 38-4.2 58.4-7.5 18.6-3 36.3-6.4 53-10.1 4.5-.7 7.6-5 6.9-9.5m0-48.4c-.4-2.3-1.6-4.2-3.3-5.4-2.7-2-5.6-1.6-6.2-1.5-16.4 4.5-34.9 8.6-55.2 11.8s-39.2 5-56.3 5.8c-4.5.7-7.6 5-6.9 9.5s5 7.6 9.5 6.9c18.5-1.8 38-4.2 58.4-7.5 18.6-3 36.3-6.4 53-10.1 4.6-.7 7.7-5 7-9.5" style="fill:#f4f5f5"/></svg>