<svg xmlns="http://www.w3.org/2000/svg" xml:space="preserve" id="readarr_svg__Layer_1" x="0" y="0" version="1.1" viewBox="0 0 512 512"><style>.readarr_svg__st0{fill:#eee}.readarr_svg__st1{fill:#443c3c}.readarr_svg__st2{fill:#8e2222}</style><circle id="readarr_svg__svg_2_00000032609758701229706770000008693175468996716963_" cx="256" cy="256" r="256" class="readarr_svg__st0"/><path d="M256 512.8c-68.6 0-133.1-26.7-181.5-75.2C26 389.1-.8 324.6-.8 256S25.9 122.9 74.4 74.5 187.4-.8 256-.8s133.1 26.7 181.5 75.2c48.5 48.5 75.2 113 75.2 181.5 0 68.6-26.7 133.1-75.2 181.5-48.4 48.6-112.9 75.4-181.5 75.4m0-512C115.3.8.8 115.3.8 256S115.3 511.2 256 511.2 511.2 396.7 511.2 256 396.7.8 256 .8" class="readarr_svg__st1"/><circle id="readarr_svg__svg_11_00000108294295055385337210000006853185250145403566_" cx="256" cy="256" r="220.9" class="readarr_svg__st1"/><path d="M256 477.7c-59.2 0-114.9-23.1-156.7-64.9S34.4 315.2 34.4 256 57.5 141.1 99.3 99.3 196.8 34.4 256 34.4s114.9 23.1 156.7 64.9 64.9 97.5 64.9 156.7-23.1 114.9-64.9 156.7-97.5 65-156.7 65m0-441.8C134.6 35.9 35.9 134.6 35.9 256S134.7 476.2 256 476.2c121.4 0 220.2-98.8 220.2-220.2S377.4 35.9 256 35.9" class="readarr_svg__st1"/><circle id="readarr_svg__svg_12_00000088091553492979827890000006375535851866400424_" cx="256" cy="256" r="194.3" class="readarr_svg__st2"/><circle id="readarr_svg__svg_13_00000054268082067006013570000015525378905103585470_" cx="256" cy="256" r="189.7" class="readarr_svg__st0"/><path d="M256 61C148.4 61 61 148.4 61 256s87.5 195 195 195 195-87.5 195-195S363.6 61 256 61m0 388.5c-106.7 0-193.5-86.8-193.5-193.5S149.3 62.5 256 62.5 449.5 149.3 449.5 256 362.7 449.5 256 449.5m0-384C151 65.5 65.5 151 65.5 256S151 446.5 256 446.5 446.5 361 446.5 256 361 65.5 256 65.5m0 379.5c-104.2 0-189-84.8-189-189S151.8 67 256 67s189 84.8 189 189-84.8 189-189 189" class="readarr_svg__st2"/><circle cx="255.3" cy="256.7" r="133.8" class="readarr_svg__st1"/><path d="M87.2 341s-2.5-178.7-2.9-179c.3-26.7 8.8-24 15.3-24.8 99.7 5.4 136 35.8 138.2 36.9 6.7 2.5 10.5 16 10.2 15.6.3.3 2.2 211.1 1.9 210.8 1.6 11.3-6.7 10.5-7 10.2-62.7-49.3-149.4-61.7-149.7-62-6-.5-6-7.7-6-7.7m336.3.4s2.5-179.1 2.9-179.5c-.3-26.7-8.8-24.1-15.3-24.9-99.7 5.4-136 35.9-138.2 37-6.7 2.5-10.5 16-10.2 15.7-.3.3-2.2 211.6-1.9 211.3-1.6 11.3 6.7 10.6 7 10.2 62.7-49.4 149.4-61.8 149.7-62.2 6-.3 6-7.6 6-7.6" class="readarr_svg__st0"/><path d="M97.1 132.4c-3.4.2-8.5.5-12.3 5.4-3.6 4.5-5.3 12.2-5.5 24.2v2.5l.1.1c.5 17.2 2.2 131.2 2.8 176.5 0 1.4.3 3.1.8 4.7.1 8.6.2 16.7.4 23.9 0 3.3 1.7 9.6 8.2 10.2.3.1.8.2 1.4.3 27.4 4.8 96.7 20.4 149.5 61.2.6.5 1.5.7 2.5.7 1.4 0 3-.4 4-.9 2.2-1.1 5.7-4.2 4.6-12.2.1-1.3.1-3.9.1-8.9v-10.2c1.1-2.3 1.8-5.5 1.2-9.9.1-1.7.1-4.3 0-8.6 0-5.8-.1-14-.1-23.9-.1-19.1-.3-44.8-.6-72.4-.2-27.6-.5-53.3-.7-72.4-.1-9.9-.2-18.1-.3-23.9-.1-4-.1-6.5-.2-8.2v-.7c0-.2-.1-.7-.2-1.3-.1-.4-.1-.7-.2-.9-1.3-4.7-5.3-14.9-12.5-17.9-.1-.1-.3-.2-.5-.4-17.2-11.9-58.3-32.6-139.7-37.1m136.2 46.5c2 .9 7.2 8.2 7 11.5 0 1.2.1 5.5.2 12.3-1-.9-2.1-1.6-3.3-2-.2-.1-.4-.3-.7-.5-17.2-11.8-58.4-32.2-140.6-36.6h-.4c-.7.1-1.4.1-2.1.2-2.4.1-4.7.5-6.7 1.4v-1c0-.7 0-1.4-.1-2 .1-11.6 1.9-16.1 3.3-17.9 1-1.3 2.2-1.5 5.1-1.6.6 0 1.3-.1 2-.2 81.6 4.3 123.1 27.3 136.3 36.4m195.3-17c-.1-12-1.9-19.7-5.5-24.2-3.9-4.9-9-5.2-12.4-5.4-.6 0-1.2-.1-1.8-.2l-.4-.1h-.4c-81.4 4.4-122.5 25.2-139.7 37.2-.2.1-.4.3-.5.4-8.7 3.8-12.9 18.2-12.9 20l-.1 3.4c0 1.5-.1 3.4-.1 5.8-.1 5.8-.2 14.1-.3 24-.2 19.2-.5 44.9-.7 72.6-.2 27.6-.5 53.4-.6 72.6-.1 9.9-.1 18.2-.1 24v8.6c-.6 4.3 0 7.4 1.1 9.7v10.3c0 5.1 0 7.6.1 8.9-1.2 8.5 2.7 11.5 5.2 12.5.8.3 2.1.7 3.4.7.9 0 1.9-.2 2.5-.7 52.1-40.4 121.6-56.3 149-61.3.9-.2 1.5-.3 1.9-.4 6.6-.5 8.3-6.7 8.3-10.1.1-7.2.2-15.3.3-23.8.6-1.7.8-3.3.9-4.8.6-45.8 2.3-161.6 2.8-177.4l.1-.1zm-157.2 17.1C302 159.6 353.5 145.2 411 142c.7.1 1.3.1 1.9.2 3 .2 4.2.4 5.2 1.7 1.4 1.8 3.2 6.4 3.3 18.1-.1.7-.1 1.6-.1 2.7-2.1-.9-4.4-1.2-6.8-1.4s-1.8-.1-2.4-.2c-81.8 4.4-123.2 24.8-140.6 36.6-.4.3-.7.5-.8.6-1.1.4-2.2 1.1-3.2 2 .1-6.7.2-11 .2-12-.2-4.3 3.8-9.5 6.5-11.4" class="readarr_svg__st2"/></svg>