<svg xmlns="http://www.w3.org/2000/svg" xml:space="preserve" viewBox="0 0 512 512"><path d="M255.2.4C114 .4-.4 114.8-.4 256S114 511.6 255.2 511.6 510.8 397.2 510.8 256 396.4.4 255.2.4m156.2 411.8c-20.3 20.3-43.9 36.2-70.2 47.3-27.2 11.5-56.2 17.4-86 17.4s-58.8-5.8-86-17.4c-26.3-11.1-49.9-27.1-70.2-47.3-20.3-20.3-36.2-43.9-47.3-70.2-11.5-27.2-17.4-56.2-17.4-86s5.8-58.8 17.4-86c11.1-26.3 27.1-49.9 47.3-70.2 20.3-20.3 43.9-36.2 70.2-47.3 27.2-11.5 56.2-17.4 86-17.4s58.8 5.8 86 17.4c26.3 11.1 49.9 27.1 70.2 47.3 20.3 20.3 36.2 43.9 47.3 70.2 11.5 27.2 17.4 56.2 17.4 86s-5.8 58.8-17.4 86c-11 26.3-27 49.9-47.3 70.2m-95.9-266.1c-15 4.8-32.2 11.8-46.3 21.6-.2.2-.4.3-.6.4-.3.2-.7.4-2 1.4l-1.2.8c-6.7 4.1-9.8 10.2-9.4 14.2v1.1c0 1.2-.1 3-.1 5.3-.1 4.5-.2 11-.3 19-.2 9.9-.4 22-.5 35.3-.1-11.3-.2-21.6-.3-30.2-.1-7.7-.2-14.1-.2-18.5 0-2.2-.1-4-.1-5.2v-1.8c0-.2 0-.5-.1-.9-.1-.5-.2-.9-.3-1.4-1.3-5-5.6-15.9-13.5-19.4-.1-.1-.2-.2-.4-.3-14.1-9.8-31.3-16.8-46.4-21.6 18.5-10.3 39.3-15.6 60.9-15.6 21.5.2 42.3 5.5 60.8 15.8M449.2 256c0-32-7.7-62.2-21.5-88.8 0-1.9.1-3.3.1-4.1l.1-.1v-1c-.3-24.2-7.2-26.6-15.5-27.1-.7 0-1.4-.1-2-.2h-.4c-1.1.1-2.2.1-3.2.2C371.2 90.5 316.5 62 255.2 62c-61.5 0-116.4 28.7-151.9 73.4-1.3-.1-2.7-.2-4-.2h-.4c-.6.1-1.3.1-2 .2-8.3.5-15.2 2.9-15.5 27.1v1l.1.1c0 1.1.1 3.1.1 6-13 26.1-20.3 55.4-20.3 86.5 0 32.8 8.2 63.7 22.5 90.8.1 8.1.2 15.8.3 22.7 0 2.9 1.5 8.5 7.2 8.9.3.1.8.2 1.6.3 4 .7 8.9 1.7 14.5 2.9C143 423.5 196 450 255.2 450s112.2-26.5 147.8-68.3c5.1-1.1 9.6-2 13.3-2.6.8-.1 1.3-.2 1.6-.3 5.7-.4 7.2-6 7.2-8.9.1-6.3.2-13.3.3-20.6 15.2-27.7 23.8-59.5 23.8-93.3m-383.1 0c0-26.8 5.6-52.2 15.7-75.3v.5q-.45 4.2-.6 9.6v.5c.3 6.4 1.5 84 2.4 144-11.2-24.1-17.5-51-17.5-79.3m185.7 172.9v-9c0-3.6 0-8.2-.1-13.7.3-1.5.4-3.4.1-5.6v-9c0-5.6-.1-13.6-.1-23.9-.1-19.1-.3-44.7-.6-72.3-.2-27.5-.5-53.2-.7-72.3-.1-10.3-.2-18.3-.3-23.9 0-2.9-.1-5.2-.1-6.7 0-.8 0-1.4-.1-1.9v-.5c0-.1 0-.2-.1-.4 0-.2-.1-.4-.1-.5-.8-3.3-4.5-14.1-11.4-16.9-.2-.1-.5-.3-.8-.5-16.2-11.3-54.1-30.4-128.2-35.9C144 93.8 196.5 67 255.2 67c58.4 0 110.7 26.6 145.4 68.4-74.6 5.4-112.6 24.7-128.9 36.1-.3.2-.6.4-.8.5-6.9 2.8-10.6 13.6-11.4 16.9-.1.1-.1.3-.1.5s-.1.3-.1.4v.4c0 .5 0 1.1-.1 2 0 1.6-.1 3.8-.1 6.7-.1 5.6-.2 13.6-.3 23.9-.2 19.1-.5 44.9-.7 72.5s-.5 53.3-.6 72.4c-.1 10.3-.1 18.3-.1 23.9v9c-.3 2-.2 3.7 0 5.2 0 5.8-.1 10.7-.1 14.4v9c-1 6.9 1.6 9.8 4 10.9 1 .5 2.3.8 3.4.8.8 0 1.4-.1 1.8-.4 42-32.5 94.6-49.1 128.2-57-34.6 37.8-84.3 61.6-139.5 61.6s-104.9-23.7-139.5-61.5c33.6 8 85.4 24.6 126.9 56.6.4.3 1 .4 1.8.4 1.1 0 2.3-.3 3.4-.8 2.3-1.2 4.9-4 4-10.9m176.1-237.7v-.6c0-3.4-.2-6.4-.5-9 0-1.2 0-2.3.1-3.4 10.8 23.8 16.8 50.1 16.8 77.9 0 29.4-6.7 57.3-18.8 82.1.9-60.6 2.2-140.6 2.4-147M410 139.7s.1 0 0 0c.7.1 1.4.1 2.1.2 5.4.3 10.5.7 10.8 22.1 0 .5-.1 1.1-.1 2 0 1-.1 2.4-.1 4.1-2.8-3-6.2-3.2-9.2-3.4-.7 0-1.4-.1-2.1-.2h-.2c-81.7 4.4-122.7 24.7-139.8 36.4-.4.3-.8.5-.9.6-2.2 1.9-4.4 4.7-6.3 7.5.1-11.3.3-18.6.3-19.5.7-2.6 4.1-11.5 8.5-13.1l.2-.1c.3-.2.7-.4 1.4-.9 16.5-11.4 56.1-31.3 135.4-35.7m-312.8.6c.7 0 1.4-.1 2.1-.2 79.4 4.4 118.9 24.2 135.4 35.7.7.5 1.1.7 1.4.9l.2.1c4.6 1.7 8.1 11.4 8.5 13.4l.1 1.3c.1 2.5.1 8.1.2 16.1-1.7-2.6-3.9-4.9-6.4-5.9-.2-.1-.5-.4-.9-.6-17.1-11.7-58.1-31.9-139.8-36.3h-.2c-.7.1-1.4.1-2.1.2-3 .2-6.4.4-9.2 3.3 0-1.6-.1-2.9-.1-3.8s0-1.6-.1-2c.4-21.5 5.5-21.8 10.9-22.2"/></svg>