<?xml version="1.0" encoding="utf-8"?>
<!-- Generator: Adobe Illustrator 28.2.0, SVG Export Plug-In . SVG Version: 6.00 Build 0)  -->
<svg version="1.1" id="Layer_1" xmlns="http://www.w3.org/2000/svg" xmlns:xlink="http://www.w3.org/1999/xlink" x="0px" y="0px"
	 viewBox="0 0 512 512" style="enable-background:new 0 0 512 512;" xml:space="preserve">
<style type="text/css">
	.st0{fill:#EEEEEE;}
	.st1{fill:#443C3C;}
	.st2{fill:#8E2222;}
</style>
<ellipse id="svg_2_00000032609758701229706770000008693175468996716963_" class="st0" cx="256" cy="256" rx="256" ry="256"/>
<path class="st1" d="M256,512.8c-68.6,0-133.1-26.7-181.5-75.2C26,389.1-0.8,324.6-0.8,256c0-68.6,26.7-133.1,75.2-181.5
	S187.4-0.8,256-0.8c68.6,0,133.1,26.7,181.5,75.2c48.5,48.5,75.2,113,75.2,181.5c0,68.6-26.7,133.1-75.2,181.5
	C389.1,486,324.6,512.8,256,512.8z M256,0.8C115.3,0.8,0.8,115.3,0.8,256S115.3,511.2,256,511.2S511.2,396.7,511.2,256
	S396.7,0.8,256,0.8z"/>
<ellipse id="svg_11_00000108294295055385337210000006853185250145403566_" class="st1" cx="256" cy="256" rx="220.9" ry="220.9"/>
<path class="st1" d="M256,477.7c-59.2,0-114.9-23.1-156.7-64.9S34.4,315.2,34.4,256c0-59.2,23.1-114.9,64.9-156.7
	S196.8,34.4,256,34.4c59.2,0,114.9,23.1,156.7,64.9s64.9,97.5,64.9,156.7c0,59.2-23.1,114.9-64.9,156.7S315.2,477.7,256,477.7z
	 M256,35.9C134.6,35.9,35.9,134.6,35.9,256c0,121.4,98.8,220.2,220.1,220.2c121.4,0,220.2-98.8,220.2-220.2
	C476.2,134.6,377.4,35.9,256,35.9z"/>
<ellipse id="svg_12_00000088091553492979827890000006375535851866400424_" class="st2" cx="256" cy="256" rx="194.3" ry="194.3"/>
<ellipse id="svg_13_00000054268082067006013570000015525378905103585470_" class="st0" cx="256" cy="256" rx="189.7" ry="189.7"/>
<path class="st2" d="M256,61C148.4,61,61,148.4,61,256s87.5,195,195,195s195-87.5,195-195S363.6,61,256,61z M256,449.5
	c-106.7,0-193.5-86.8-193.5-193.5S149.3,62.5,256,62.5S449.5,149.3,449.5,256S362.7,449.5,256,449.5z M256,65.5
	C151,65.5,65.5,151,65.5,256S151,446.5,256,446.5S446.5,361,446.5,256S361,65.5,256,65.5z M256,445c-104.2,0-189-84.8-189-189
	S151.8,67,256,67s189,84.8,189,189S360.2,445,256,445z"/>
<circle class="st1" cx="255.3" cy="256.7" r="133.8"/>
<path class="st0" d="M87.2,341c0,0-2.5-178.7-2.9-179c0.3-26.7,8.8-24,15.3-24.8c99.7,5.4,136,35.8,138.2,36.9
	c6.7,2.5,10.5,16,10.2,15.6c0.3,0.3,2.2,211.1,1.9,210.8c1.6,11.3-6.7,10.5-7,10.2c-62.7-49.3-149.4-61.7-149.7-62
	C87.2,348.2,87.2,341,87.2,341L87.2,341z M423.5,341.4c0,0,2.5-179.1,2.9-179.5c-0.3-26.7-8.8-24.1-15.3-24.9
	c-99.7,5.4-136,35.9-138.2,37c-6.7,2.5-10.5,16-10.2,15.7c-0.3,0.3-2.2,211.6-1.9,211.3c-1.6,11.3,6.7,10.6,7,10.2
	c62.7-49.4,149.4-61.8,149.7-62.2C423.5,348.7,423.5,341.4,423.5,341.4L423.5,341.4z"/>
<path class="st2" d="M97.1,132.4c-3.4,0.2-8.5,0.5-12.3,5.4c-3.6,4.5-5.3,12.2-5.5,24.2l0,2.5l0.1,0.1c0.5,17.2,2.2,131.2,2.8,176.5
	c0,1.4,0.3,3.1,0.8,4.7c0.1,8.6,0.2,16.7,0.4,23.9c0,3.3,1.7,9.6,8.2,10.2c0.3,0.1,0.8,0.2,1.4,0.3c27.4,4.8,96.7,20.4,149.5,61.2
	l0,0c0.6,0.5,1.5,0.7,2.5,0.7c1.4,0,3-0.4,4-0.9c2.2-1.1,5.7-4.2,4.6-12.2c0.1-1.3,0.1-3.9,0.1-8.9c0-2.8,0-6.3,0-10.2
	c1.1-2.3,1.8-5.5,1.2-9.9c0.1-1.7,0.1-4.3,0-8.6c0-5.8-0.1-14-0.1-23.9c-0.1-19.1-0.3-44.8-0.6-72.4c-0.2-27.6-0.5-53.3-0.7-72.4
	c-0.1-9.9-0.2-18.1-0.3-23.9c-0.1-4-0.1-6.5-0.2-8.2l0-0.7c0-0.2-0.1-0.7-0.2-1.3c-0.1-0.4-0.1-0.7-0.2-0.9
	c-1.3-4.7-5.3-14.9-12.5-17.9c-0.1-0.1-0.3-0.2-0.5-0.4c-17.2-11.9-58.3-32.6-139.7-37.1 M243,190.3 M236.1,178.8
	c2,0.9,7.2,8.2,7,11.5c0,1.2,0.1,5.5,0.2,12.3c-1-0.9-2.1-1.6-3.3-2c-0.2-0.1-0.4-0.3-0.7-0.5c-17.2-11.8-58.4-32.2-140.6-36.6
	l-0.2,0l-0.2,0c-0.7,0.1-1.4,0.1-2.1,0.2c-2.4,0.1-4.7,0.5-6.7,1.4c0-0.4,0-0.7,0-1c0-0.7,0-1.4-0.1-2c0.1-11.6,1.9-16.1,3.3-17.9
	c1-1.3,2.2-1.5,5.1-1.6c0.6,0,1.3-0.1,2-0.2C181.4,146.7,222.9,169.7,236.1,178.8 M431.4,161.8c-0.1-12-1.9-19.7-5.5-24.2
	c-3.9-4.9-9-5.2-12.4-5.4c-0.6,0-1.2-0.1-1.8-0.2l-0.4-0.1l-0.4,0c-81.4,4.4-122.5,25.2-139.7,37.2c-0.2,0.1-0.4,0.3-0.5,0.4
	c-8.7,3.8-12.9,18.2-12.9,20l-0.1,3.4l0,0c0,1.5-0.1,3.4-0.1,5.8c-0.1,5.8-0.2,14.1-0.3,24c-0.2,19.2-0.5,44.9-0.7,72.6
	c-0.2,27.6-0.5,53.4-0.6,72.6c-0.1,9.9-0.1,18.2-0.1,24c0,4.2,0,6.9,0,8.6c-0.6,4.3,0,7.4,1.1,9.7c0,4,0,7.4,0,10.3
	c0,5.1,0,7.6,0.1,8.9c-1.2,8.5,2.7,11.5,5.2,12.5c0.8,0.3,2.1,0.7,3.4,0.7c0.9,0,1.9-0.2,2.5-0.7l0,0c52.1-40.4,121.6-56.3,149-61.3
	c0.9-0.2,1.5-0.3,1.9-0.4c6.6-0.5,8.3-6.7,8.3-10.1c0.1-7.2,0.2-15.3,0.3-23.8c0.6-1.7,0.8-3.3,0.9-4.8
	c0.6-45.8,2.3-161.6,2.8-177.4l0.1-0.1L431.4,161.8z M267.7,190.3 M274.2,178.9C302,159.6,353.5,145.2,411,142
	c0.7,0.1,1.3,0.1,1.9,0.2c3,0.2,4.2,0.4,5.2,1.7c1.4,1.8,3.2,6.4,3.3,18.1l0,0c-0.1,0.7-0.1,1.6-0.1,2.7c-2.1-0.9-4.4-1.2-6.8-1.4
	c-2.4-0.2-1.8-0.1-2.4-0.2l0,0l0,0c-81.8,4.4-123.2,24.8-140.6,36.6c-0.4,0.3-0.7,0.5-0.8,0.6c-1.1,0.4-2.2,1.1-3.2,2
	c0.1-6.7,0.2-11,0.2-12C267.5,186,271.5,180.8,274.2,178.9"/>
</svg>
