<svg xmlns="http://www.w3.org/2000/svg" xml:space="preserve" viewBox="0 0 512 512"><path d="M29.1 130.4v251.2H67v29H0V101.4h67v29zm453.8 0v251.2H445v29h67V101.4h-67v29zm-244.4 81.7v-29.3c0-34.5-28-62.5-62.5-62.5H97.5v251.4h30.7v-97.2h43.1l33.6 98.1h33.6l-37.4-103.4c22-9.5 37.4-31.5 37.4-57.1m-30.9-5c0 21.5-17.5 39-39 39h-40.4v-96.5h40.4c21.5 0 39 17.5 39 39zm212.1 86c0 .8.1 2.1.1 3.7 0 0 0 9.9-1.4 18.7-4.5 28.3-21.2 44.1-21.2 44.1-21.4 20.2-50.9 17.3-55.8 16.7-18.6.8-30.6-4-37.8-8.2-44.2-25.6-40.9-102.7-38.7-153.6.2-4.1 1.1-22.6 8.5-45.1 6.9-21.1 14.2-29.3 16.1-31.3 2.3-2.5 11.3-11.9 26.6-17.4 10.4-3.8 19.5-4.3 25.2-4.1 5.5-.4 34.7-2.2 55.8 18.3 15.7 15.3 19.4 35.6 21.1 44.8 1.7 9.4 1.8 17.4 1.5 22.8v11.3h-33l-.6-29.7c0-1.7-.7-22.2-17.8-33-11.3-7.1-23-5.8-26.4-5.3-3.5.2-8.6.9-14.1 3.3-22.3 9.9-29.3 38.7-30.8 49.5-1 6.9-1.6 16.6-2 36.5-.5 27.7-.7 41.8 1.3 54.6 3.1 20.1 5.5 35.3 18.1 46.2 9.5 8.2 20.7 10.4 27.5 11.1 4.7.5 15 .8 25.3-5.2 21.6-12.5 21.4-40.3 21.3-41.5-.1-3.9-.2-7.9-.2-11.8h31.4z"/></svg>