<svg xmlns="http://www.w3.org/2000/svg" xml:space="preserve" viewBox="0 0 512 512"><path d="M256.3 8 0 269.4h78.2V504H434V269.4h78zm79 249.3c-18.4 0-24.8-11.4-29.4-22.2-3.9-9.4-7.4-15.3-12.9-15.3-14.2 0-35.9 32.1-41.5 72-.5 6.4-1.2 21-1.2 36.1V378c0 28.5 3 40.3 7.9 50.7 3.4 6.2 6.6 9.6 10.3 10.9 4.4 1.9 9.1 3 13.8 3.4l2.2.2v7H160.4v-7l2.4-.2c5.1-.5 10.1-1.8 14.8-3.9 7.3-3.7 10.8-7 14.2-18 1.8-11.2 2.2-28 2.2-40.3V260.9c0-9.1 0-30.2-1.7-37.5-1-6.2-4.2-11.1-9.5-14.6-5.9-4.2-12.3-4.9-19.1-5.4l-2.2-.2v-7.1h83.2c4.4 0 6.5 3 6.5 5.9 0 1.4-.2 12.6-.5 25.7l-.5 24c8.8-23.5 19.4-35.6 28.7-44.5l.2-.2c9.3-7.7 22.8-16.6 44.2-16.6 13 0 23.8 3.7 30.5 10.4 6.4 7.1 9.5 15.5 9.3 25.9 0 15.3-9.6 30.6-27.8 30.6" style="fill:#fff"/></svg>