<?xml version="1.0" encoding="utf-8"?>
<!-- Generator: Adobe Illustrator 28.2.0, SVG Export Plug-In . SVG Version: 6.00 Build 0)  -->
<svg version="1.1" id="Layer_1" xmlns="http://www.w3.org/2000/svg" xmlns:xlink="http://www.w3.org/1999/xlink" x="0px" y="0px"
	 viewBox="0 0 512 512" style="enable-background:new 0 0 512 512;" xml:space="preserve">
<path d="M119.9,191.9l-66.3-140L278.4,0v164.3l0.1,0v32.4v30.5v9.5c-8,6.1-29.4,13.2-62.5,13.2c-24.8,0-60.7-2.4-72.6-9.3l0,0l0,0
	l0,0l0,0l-8.4-16.8l-5.4-11.4 M224,326c-26.8,0-52.1-7-71.2-19.8c-13-8.7-22.2-19.4-27-31.1L0,465.3L217.9,512l43.5-190.9
	C249.7,324.3,237.1,326,224,326z M312.9,266H506v-20H312.9l-1.5-3.8c-4.3-11.1-13.7-21.2-26.9-28.9v3.6c7.8,5.5,9.5,11.2,9.5,15.2
	c0,19.7-39.2,30-78,30c-26.3,0-50.1-4.5-64.1-12.1h-10.3l-4.5-9c-2.1,4.9-3.1,9.9-3.1,15.1c0,15,9,29.3,25.5,40.2
	c17.2,11.4,40.1,17.8,64.5,17.8c41.4,0,77.3-18.2,87.4-44.2L312.9,266z"/>
</svg>
