<svg xmlns="http://www.w3.org/2000/svg" xml:space="preserve" viewBox="0 0 512 512"><path d="m119.9 191.9-66.3-140L278.4 0v164.3h.1v72.4c-8 6.1-29.4 13.2-62.5 13.2-24.8 0-60.7-2.4-72.6-9.3l-8.4-16.8-5.4-11.4M224 326c-26.8 0-52.1-7-71.2-19.8-13-8.7-22.2-19.4-27-31.1L0 465.3 217.9 512l43.5-190.9c-11.7 3.2-24.3 4.9-37.4 4.9m88.9-60H506v-20H312.9l-1.5-3.8c-4.3-11.1-13.7-21.2-26.9-28.9v3.6c7.8 5.5 9.5 11.2 9.5 15.2 0 19.7-39.2 30-78 30-26.3 0-50.1-4.5-64.1-12.1h-10.3l-4.5-9c-2.1 4.9-3.1 9.9-3.1 15.1 0 15 9 29.3 25.5 40.2 17.2 11.4 40.1 17.8 64.5 17.8 41.4 0 77.3-18.2 87.4-44.2z" style="fill:#fff"/></svg>