<?xml version="1.0" encoding="utf-8"?>
<!-- Generator: Adobe Illustrator 28.2.0, SVG Export Plug-In . SVG Version: 6.00 Build 0)  -->
<svg version="1.1" id="Layer_1" xmlns="http://www.w3.org/2000/svg" xmlns:xlink="http://www.w3.org/1999/xlink" x="0px" y="0px"
	 viewBox="0 0 512 512" style="enable-background:new 0 0 512 512;" xml:space="preserve">
<style type="text/css">
	.st0{fill:#73B556;}
</style>
<path class="st0" d="M467.5,32H345.4c-3.6-18.2-19.6-32-36.1-32H202.7c-16.5,0-32.4,13.8-36.1,32H46.4c-8,0-14.5,6.5-14.5,14.5v45.2
	c0,3.6,2.9,6.6,6.6,6.6h435c3.6,0,6.6-3,6.6-6.8V44.6C480.1,37.7,474.5,32,467.5,32z M432,126.8H80c-8.5,0-15,6.9-14.6,15.3
	l15.2,319.1c1.3,28.2,27.3,50.8,57.9,50.8h235c30.6,0,56.5-22.6,57.9-50.8l15.2-319.1C447,133.7,440.5,126.8,432,126.8z
	 M376.3,301.6c0,0,11,24.9-8.8,36.1c0,0-7.6,7.6-32.4,5.3l-24.3-42.1l48.6-28.2L376.3,301.6z M291.3,178.1c0,0,12.8,0.4,27,23.2
	l15.4,26.2l10.9-5.9l-11.3,24.7L322,271.1l-26.9-4.1l-26.9-4.1l15.8-8.5l-27-50.2c0,0-10.4-23.6-29.3-26L291.3,178.1z M165.3,390.5
	L133,335.6c0,0-6.2-11.2,6.4-35l14.7-26.6l-10.6-6.4l27.1-2.8l27.1-2.8l10.1,25.3l10.1,25.3l-15.3-9.3L172.9,352
	C172.9,352,157.8,372.9,165.3,390.5z M233.6,408.7l-33.5-0.6c0,0-27-3.4-26.3-26.3c0,0-2.6-10.5,12.3-30.5l48.7,1L233.6,408.7z
	 M225.4,255.2l-48-29.4l17.4-28.6c0,0,16.6-21.5,36-9.4c0,0,10.4,3.1,20.1,26L225.4,255.2z M350.4,395.9c0,0-6.4,11.1-33.3,12.7
	l-30.4,1.1v12.4l-16.4-21.7l-16.4-21.7l16.4-21.7l16.4-21.7v18h57c0,0,25.7,2.1,36.8-13.4L350.4,395.9z"/>
</svg>
