<?xml version="1.0" encoding="utf-8"?>
<!-- Generator: Adobe Illustrator 28.2.0, SVG Export Plug-In . SVG Version: 6.00 Build 0)  -->
<svg version="1.1" id="Layer_1" xmlns="http://www.w3.org/2000/svg" xmlns:xlink="http://www.w3.org/1999/xlink" x="0px" y="0px"
	 viewBox="0 0 512 512" style="enable-background:new 0 0 512 512;" xml:space="preserve">
<style type="text/css">
	.st0{opacity:0.8;fill:#FFFFFF;}
	.st1{fill:#FFFFFF;}
	.st2{opacity:0.5;fill:#FFFFFF;}
</style>
<path class="st0" d="M512.1,305.1v51c-0.1,5.2-6.3,10.8-20.2,18c-27.3,14.2-168.9,72.4-199,88.1c-30.1,15.7-46.9,15.6-70.7,4.2
	C198.4,455,47.8,394.2,20.6,381.2C7.1,374.8,0,369.3,0,364.1v-50.8c0.7,5,7.6,10.3,20.6,16.5c27.2,13,177.8,73.8,201.6,85.2
	c23.8,11.4,40.6,11.5,70.7-4.2c30.1-15.7,171.7-73.9,199-88.1c13.6-7.1,20.2-12.7,20.1-17.6C512,305.1,512.1,305.1,512.1,305.1z
	 M512,221.4c0.1,5-6.5,10.5-20.1,17.5c-27.3,14.2-168.9,72.4-199,88.2c-30.1,15.7-46.9,15.6-70.7,4.2
	C198.5,319.9,47.8,259,20.7,246.1C6.8,239.4-0.1,233.9,0,228.6c0,0,0,0,0,0v51.8c0,5.2,7.1,10.6,20.6,17.2
	c27.2,13,177.8,73.8,201.6,85.2c23.8,11.4,40.6,11.5,70.7-4.2c30.1-15.8,171.7-74,199-88.2c13.9-7.3,20.1-12.9,20.2-18L512,221.4
	C512.1,221.4,512,221.4,512,221.4z M512,134.6c0,5-6.5,10.5-20.1,17.5c-27.3,14.2-168.9,72.4-199,88.1
	c-30.1,15.7-46.9,15.6-70.7,4.2C198.4,233,47.8,172.2,20.6,159.2C7.7,153,0.8,147.7,0,142.8v50.8c0,5.1,7.1,10.6,20.6,17.2
	c27.2,13,177.8,73.8,201.6,85.2c23.8,11.4,40.6,11.5,70.7-4.2c30.1-15.8,171.7-74,199-88.2c13.9-7.3,20.1-12.9,20.2-18v-51
	C512.1,134.6,512,134.6,512,134.6z"/>
<path class="st1" d="M491.9,322.7c-27.3,14.2-168.9,72.4-199,88.1c-30.1,15.7-46.9,15.6-70.7,4.2c-23.8-11.4-174.4-72.2-201.6-85.2
	c-27.1-13-27.7-21.9-1-32.3c0.1-0.1,0.3-0.1,0.4-0.2c0.2,0.1,0.4,0.2,0.6,0.3c27.2,13,177.8,73.8,201.6,85.2
	c23.8,11.4,40.6,11.5,70.7-4.2c30-15.7,170.5-73.5,198.6-88c0,0,0,0,0.1,0C518.2,300.4,519.3,308.4,491.9,322.7z M19.5,126.9
	C46.2,116.5,196,57.7,227.6,46.3c31.7-11.4,42.6-11.8,69.6-1.9c26.9,9.9,167.6,65.9,194.3,75.6c26.7,9.8,27.8,17.9,0.4,32.1
	c-27.3,14.2-168.9,72.4-199,88.1c-30.1,15.7-46.9,15.6-70.7,4.2C198.4,233,47.8,172.2,20.6,159.2C-6.5,146.2-7.1,137.3,19.5,126.9z
	 M297.6,164.6l-117.7,18.1l82.2,34.1L297.6,164.6z M370.6,108.2l-77.1,30.5l69.6,27.5l7.6-3l69.6-27.5L370.6,108.2z M235.8,85.3
	L197.9,99l50.9,4.6l15.9,26.5l9.9-23.7l44-4.6l-34.1-12.9l9-21.7l-33.5,11l-35.6-13.9L235.8,85.3z M85.3,139.3
	c0,13.5,28.2,24.4,62.9,24.4s62.9-10.9,62.9-24.4s-28.1-24.4-62.9-24.4S85.2,125.9,85.3,139.3z M491.7,206.9c-1-0.4-2.3-0.8-3.7-1.4
	c-34.7,16.9-166.2,71.1-195.1,86.3c-30.1,15.7-46.9,15.6-70.7,4.2c-23-11-164.6-68.2-198.5-83.8c-1.5,0.6-2.9,1.1-4,1.6
	c-26.7,10.4-26.1,19.3,1,32.3c27.1,12.9,177.8,73.8,201.5,85.2c23.8,11.4,40.6,11.5,70.7-4.2c30.1-15.8,171.7-74,199-88.2
	C519.3,224.7,518.2,216.7,491.7,206.9z"/>
<path class="st0" d="M370.6,108.2l69.7,27.5l-69.6,27.5L370.6,108.2"/>
<path class="st2" d="M293.5,138.7l77.1-30.5l0.1,55l-7.6,3L293.5,138.7"/>
</svg>
