<?xml version="1.0" encoding="utf-8"?>
<!-- Generator: Adobe Illustrator 28.2.0, SVG Export Plug-In . SVG Version: 6.00 Build 0)  -->
<svg version="1.1"
	 id="svg18759" xmlns:rdf="http://www.w3.org/1999/02/22-rdf-syntax-ns#" xmlns:cc="http://creativecommons.org/ns#" xmlns:svg="http://www.w3.org/2000/svg" xmlns:sodipodi="http://sodipodi.sourceforge.net/DTD/sodipodi-0.dtd" xmlns:inkscape="http://www.inkscape.org/namespaces/inkscape"
	 xmlns="http://www.w3.org/2000/svg" xmlns:xlink="http://www.w3.org/1999/xlink" x="0px" y="0px" viewBox="0 0 512 512"
	 style="enable-background:new 0 0 512 512;" xml:space="preserve">
<style type="text/css">
	.st0{fill:#800000;}
	.st1{fill:#550000;}
	.st2{fill:url(#SVGID_1_);}
	.st3{fill:#FFDD55;}
	.st4{fill:#D4AA00;}
	.st5{fill:#FFCC00;}
	.st6{fill:#2B0000;}
</style>
<path id="path18985" sodipodi:nodetypes="cccccccccccccccc" class="st0" d="M0,368.6l218.5,109.2l279.9-139.9l-34.1-17.1v6.8
	l-245.8,123L27.3,355V191.1l191.1,95.6l273.1-136.5L341.3,75.1L314,88.7V61.4l-41-20.5L0,177.5V368.6z"/>
<path id="path18989" sodipodi:nodetypes="ccccc" class="st1" d="M27.3,191.1l-13.7-6.8v177.5l13.7-6.8V191.1z"/>
<linearGradient id="SVGID_1_" gradientUnits="userSpaceOnUse" x1="287.1962" y1="342.1915" x2="316.7773" y2="401.3529">
	<stop  offset="0" style="stop-color:#FFEEAA"/>
	<stop  offset="1" style="stop-color:#FFF6D5"/>
</linearGradient>
<polygon class="st2" points="218.5,286.7 27.3,191.1 27.3,355 218.5,450.6 464.3,327.7 464.3,163.8 "/>
<path class="st3" d="M382.3,252.6c-15.1,0-27.3,6.1-27.3,13.7l0,0c0,3.6,2.9,7.1,8,9.7l38.6-19.3C396.5,254,389.5,252.6,382.3,252.6
	z M286.7,368.6c-15.1,0-27.3,6.1-27.3,13.7l0,0c0,3.6,2.9,7.1,8,9.7l38.6-19.3C300.9,370.1,294,368.6,286.7,368.6z M327.7,314
	c-15.1,0-27.3,6.1-27.3,13.7l0,0c0,3.6,2.9,7.1,8,9.7L347,318C341.9,315.5,334.9,314,327.7,314z M409.6,204.8
	c-15.1,0-27.3,6.1-27.3,13.7c0,3.6,2.9,7.1,8,9.7l38.6-19.3C423.8,206.2,416.8,204.8,409.6,204.8z"/>
<path class="st4" d="M457.4,41c-30.2,0-54.6,12.2-54.6,27.3l0,0c0,15.1,24.5,27.3,54.6,27.3l0,0c30.2,0,54.6-12.2,54.6-27.3
	S487.5,41,457.4,41z M471,54.6c7.5,0,13.7,3.1,13.7,6.8c0,3.8-6.1,6.8-13.7,6.8c-7.5,0-13.7-3.1-13.7-6.8
	C457.4,57.7,463.5,54.6,471,54.6z M402.8,61.4v6.8h6.8v-6.8C409.6,61.4,402.8,61.4,402.8,61.4z M512,61.4v6.8h-6.8v-6.8
	C505.2,61.4,512,61.4,512,61.4z"/>
<path class="st5" d="M457.4,34.1c-30.2,0-54.6,12.2-54.6,27.3c0,3.1,1,6,2.9,8.8l-37.1,18.5l27.3,13.7l34.5-17.3
	c8,2.3,17.2,3.6,27,3.6c30.2,0,54.6-12.2,54.6-27.3C512,46.3,487.5,34.1,457.4,34.1z M471,61.4c-7.5,0-13.7-3.1-13.7-6.8
	c0.1-3.8,6.2-6.8,13.7-6.8s13.7,3.1,13.7,6.8C484.7,58.4,478.6,61.4,471,61.4z"/>
<path id="path584" sodipodi:nodetypes="ccccccccccccccccc" class="st6" d="M314,61.4L122.9,157l27.3,13.7l13.7-6.8l27.3,13.7
	l27.3-13.7l-27.3-13.7l13.7-6.8l41,20.5l13.7-6.8l-41-20.5l13.7-6.8l27.3,13.7l27.3-13.7l-27.3-13.7L314,88.7V61.4z"/>
<path class="st1" d="M259.4,116.1v27.3l27.3-13.7L259.4,116.1z M218.5,136.5v13.7l27.3,13.7l13.7-6.8L218.5,136.5z M191.1,150.2
	v27.3l27.3-13.7L191.1,150.2z"/>
<path id="path973" sodipodi:nodetypes="ccccc" class="st4" d="M395.9,102.4l6.8,3.4l34.1-17.1l-6.8-3.4L395.9,102.4z"/>
</svg>
