<svg xmlns="http://www.w3.org/2000/svg" xml:space="preserve" id="redict_svg__svg18759" x="0" y="0" version="1.1" viewBox="0 0 512 512"><style>.redict_svg__st1{fill:#500}.redict_svg__st4{fill:#d4aa00}</style><path id="redict_svg__path18985" d="m0 368.6 218.5 109.2 279.9-139.9-34.1-17.1v6.8l-245.8 123L27.3 355V191.1l191.1 95.6 273.1-136.5-150.2-75.1L314 88.7V61.4l-41-20.5L0 177.5z" style="fill:maroon"/><path id="redict_svg__path18989" d="m27.3 191.1-13.7-6.8v177.5l13.7-6.8z" class="redict_svg__st1"/><linearGradient id="redict_svg__SVGID_1_" x1="287.196" x2="316.777" y1="342.192" y2="401.353" gradientUnits="userSpaceOnUse"><stop offset="0" style="stop-color:#fea"/><stop offset="1" style="stop-color:#fff6d5"/></linearGradient><path d="M218.5 286.7 27.3 191.1V355l191.2 95.6 245.8-122.9V163.8z" style="fill:url(#redict_svg__SVGID_1_)"/><path d="M382.3 252.6c-15.1 0-27.3 6.1-27.3 13.7 0 3.6 2.9 7.1 8 9.7l38.6-19.3c-5.1-2.7-12.1-4.1-19.3-4.1m-95.6 116c-15.1 0-27.3 6.1-27.3 13.7 0 3.6 2.9 7.1 8 9.7l38.6-19.3c-5.1-2.6-12-4.1-19.3-4.1m41-54.6c-15.1 0-27.3 6.1-27.3 13.7 0 3.6 2.9 7.1 8 9.7L347 318c-5.1-2.5-12.1-4-19.3-4m81.9-109.2c-15.1 0-27.3 6.1-27.3 13.7 0 3.6 2.9 7.1 8 9.7l38.6-19.3c-5.1-2.7-12.1-4.1-19.3-4.1" style="fill:#fd5"/><path d="M457.4 41c-30.2 0-54.6 12.2-54.6 27.3s24.5 27.3 54.6 27.3c30.2 0 54.6-12.2 54.6-27.3S487.5 41 457.4 41M471 54.6c7.5 0 13.7 3.1 13.7 6.8 0 3.8-6.1 6.8-13.7 6.8-7.5 0-13.7-3.1-13.7-6.8.1-3.7 6.2-6.8 13.7-6.8m-68.2 6.8v6.8h6.8v-6.8zm109.2 0v6.8h-6.8v-6.8z" class="redict_svg__st4"/><path d="M457.4 34.1c-30.2 0-54.6 12.2-54.6 27.3 0 3.1 1 6 2.9 8.8l-37.1 18.5 27.3 13.7 34.5-17.3c8 2.3 17.2 3.6 27 3.6 30.2 0 54.6-12.2 54.6-27.3s-24.5-27.3-54.6-27.3M471 61.4c-7.5 0-13.7-3.1-13.7-6.8.1-3.8 6.2-6.8 13.7-6.8s13.7 3.1 13.7 6.8c0 3.8-6.1 6.8-13.7 6.8" style="fill:#fc0"/><path id="redict_svg__path584" d="M314 61.4 122.9 157l27.3 13.7 13.7-6.8 27.3 13.7 27.3-13.7-27.3-13.7 13.7-6.8 41 20.5 13.7-6.8-41-20.5 13.7-6.8 27.3 13.7 27.3-13.7-27.3-13.7L314 88.7z" style="fill:#2b0000"/><path d="M259.4 116.1v27.3l27.3-13.7zm-40.9 20.4v13.7l27.3 13.7 13.7-6.8zm-27.4 13.7v27.3l27.3-13.7z" class="redict_svg__st1"/><path id="redict_svg__path973" d="m395.9 102.4 6.8 3.4 34.1-17.1-6.8-3.4z" class="redict_svg__st4"/></svg>