<?xml version="1.0" encoding="utf-8"?>
<!-- Generator: Adobe Illustrator 28.2.0, SVG Export Plug-In . SVG Version: 6.00 Build 0)  -->
<svg version="1.1" id="Layer_1" xmlns="http://www.w3.org/2000/svg" xmlns:xlink="http://www.w3.org/1999/xlink" x="0px" y="0px"
	 viewBox="0 0 512 512" style="enable-background:new 0 0 512 512;" xml:space="preserve">
<style type="text/css">
	.st0{fill:url(#SVGID_1_);}
	.st1{fill:#F99B1C;}
	.st2{fill:#FDB913;}
	.st3{fill:#FFFFFF;}
</style>
<linearGradient id="SVGID_1_" gradientUnits="userSpaceOnUse" x1="49.4" y1="510.8" x2="462.7" y2="510.8" gradientTransform="matrix(1 0 0 1 0 -255)">
	<stop  offset="0" style="stop-color:#E32A26"/>
	<stop  offset="4.000000e-02" style="stop-color:#E32A26"/>
	<stop  offset="0.11" style="stop-color:#E52F29"/>
	<stop  offset="0.33" style="stop-color:#EB3B32"/>
	<stop  offset="0.55" style="stop-color:#EE4036"/>
	<stop  offset="0.68" style="stop-color:#EA3D35"/>
	<stop  offset="0.81" style="stop-color:#DE3633"/>
	<stop  offset="0.93" style="stop-color:#CB2930"/>
	<stop  offset="1" style="stop-color:#BD202E"/>
</linearGradient>
<path class="st0" d="M52.5,285.5c0,0-3.2,46.9,41.3,110.9c44.5,64.1,162.1,107.8,162.1,107.8S373.6,460.4,418,396.4
	c44.5-64.1,41.3-110.9,41.3-110.9v-250L255.9,7.4L52.5,35.5V285.5z"/>
<path class="st1" d="M255.9,512l-2.5-0.9c-4.9-1.8-120.3-45.2-165.6-110.5C42.4,335.2,45.1,287,45.3,285V29.2L256,0l1,0.1l209.8,29
	l-0.3,263.6c-0.9,16.3-7.1,56.8-42.5,107.8C378.8,465.6,263.3,509.2,258.4,511L255.9,512z M59.8,41.8v243.7c0,0.9-2.3,46,40,106.8
	c39.2,56.4,138.9,97.4,156.1,104.2c17.2-6.8,117.1-47.9,156.1-104.2c42.3-60.9,40.1-105.9,40-106.3l-0.5-7.7h0.6V41.8L256,14.7
	L59.8,41.8z M244.1,24.6C217.3,26.8,103,43.3,66.4,48.1l2.1,247.8c0,0,4.4,103.7,125,162.4l-5-81.5L292,473.1
	c50.5-24.9,85.8-51.4,108-77.1c-91.3-39.2-144.5-134.7-144.5-134.7c54.6-2.1,83.5-50.5,86.7-79c6.3-57.4-5.6-158.2-89-158.2
	C250.2,24.1,247.2,24.3,244.1,24.6"/>
<path class="st2" d="M244.1,24.6C217.3,26.8,103,43.3,66.4,48.1l2.1,247.8c0,0,4.4,103.7,125,162.4l-5-81.5L292,473.1
	c50.5-24.9,85.8-51.4,108-77.1c-91.3-39.2-144.5-134.7-144.5-134.7c54.6-2.1,83.5-50.5,86.7-79c6.3-57.4-5.6-158.2-89-158.2
	C250.2,24.1,247.2,24.3,244.1,24.6"/>
<path class="st1" d="M291.8,474.8l-101.6-94.6l5,80.4l-2.1-1C73,401.1,67.3,297,67.2,295.9L65,46.9l1.2-0.2
	c11.3-1.5,30.1-4.1,51.4-7c48-6.7,107.7-15,126.3-16.5l0,0c3.7-0.3,6.5-0.4,9.2-0.4c24.5,0,44.7,8.6,59.9,25.6
	c29.7,33.1,35,92.9,30.5,134.1c-3.4,30.7-32.9,76.8-85.7,80.1c8.1,13.6,60.1,96.7,142.7,132.2l1.7,0.7l-1.2,1.4
	c-24.1,27.8-60.6,53.9-108.5,77.4L291.8,474.8z M187,373.5l105.2,98c46.4-22.9,81.9-48.1,105.6-75
	C308.2,357.2,254.9,262.9,254.3,262l-1.1-1.9l2.2-0.1c52.6-2.1,82-47.6,85.4-77.8c4.4-40.6-0.7-99.5-29.8-131.9
	c-14.7-16.4-34.2-24.7-57.9-24.7c-2.6,0-5.4,0.1-8.9,0.4c-18.5,1.5-78.2,9.8-126.1,16.5c-20.6,2.9-38.8,5.4-50.3,6.9L69.9,296
	c0,1,5.7,102.3,122.1,160.2L187,373.5z"/>
<polygon class="st3" points="192.7,66.4 200.9,132.4 243.6,87.6 214.1,141.9 267.9,132.9 219.1,157.4 285.8,187.9 214.1,172.8 
	232.8,210.1 200.9,182.4 192.7,236.3 184.7,182.4 130.2,243.2 171.5,172.8 117.7,181.7 166.5,157.4 125.6,135.4 171.5,141.9 
	146.3,93.5 184.7,132.4 "/>
</svg>
