<svg xmlns="http://www.w3.org/2000/svg" xml:space="preserve" viewBox="0 0 512 512"><path d="M197.1 390.4h31.1c-5.2 4.4-11.5 7.7-18.6 9.2L94.5 424c-22.7 4.8-45-9.7-49.9-32.4L.9 186c-4.8-22.7 9.7-45 32.4-49.9l115.1-24.5c.3-.1.5-.1.8-.1-2 5.5-3.1 11.4-3.1 17.6v78.4c-6.4 14.6-9.9 30.7-9.9 47.7s3.5 33.1 9.9 47.7v36.4c0 28.2 22.9 51.1 51 51.1m58.9-255c42.3 0 79.6 22.1 100.9 55.3v-61.6c0-23.2-18.8-42-42-42H197.1c-23.2 0-42 18.8-42 42v61.6c21.3-33.2 58.6-55.3 100.9-55.3m0 239.6c-42.3 0-79.6-22.1-100.9-55.3v19.5c0 23.2 18.8 42 42 42h117.7c23.2 0 42-18.8 42-42v-19.5C335.6 353 298.3 375 256 375m222.7-238.8-115.1-24.5c-.3-.1-.5-.1-.8-.1 2 5.5 3.1 11.4 3.1 17.6v78.4c6.4 14.6 9.9 30.7 9.9 47.7s-3.5 33.1-9.9 47.7v36.4c0 28.1-22.9 51-51 51h-31.1c5.2 4.4 11.5 7.7 18.6 9.2L417.5 424c22.7 4.8 45-9.7 49.9-32.4L511.1 186c4.8-22.7-9.7-45-32.4-49.8m-155.4 119-100.9 54.7V200.6z" style="fill:#fff"/></svg>