<svg xmlns="http://www.w3.org/2000/svg" xml:space="preserve" viewBox="0 0 512 512"><path d="M409.6 0H102.4C45.8 0 0 45.8 0 102.4v307.2C0 466.2 45.8 512 102.4 512h307.2c56.6 0 102.4-45.8 102.4-102.4V102.4C512 45.8 466.2 0 409.6 0m-91 366-32.1-47.9c-11.4-17.1-19.2-27.9-23.4-32.3-4.2-4.5-8.6-7.5-13.3-9.2s-12.2-2.5-22.4-2.5h-9V366H174V146h93.5c23.5 0 40.6 2 51.2 5.9 10.7 4 19.2 11 25.6 21.1s9.6 21.7 9.6 34.7c0 16.5-4.9 30.1-14.5 40.9-9.7 10.8-24.2 17.5-43.5 20.3 9.6 5.6 17.5 11.8 23.8 18.4 6.2 6.7 14.7 18.6 25.3 35.7l26.9 42.9h-53.3zm-27.5-129.7q-7.95 2.7-39.9 2.7h-32.9v-55.8H253c18 0 28.8.2 32.4.8 7.2 1.2 12.8 4.1 16.7 8.6s5.9 10.5 5.9 17.9q0 9.9-4.5 16.5c-2.9 4.5-7.1 7.5-12.4 9.3"/></svg>