<svg xmlns="http://www.w3.org/2000/svg" xml:space="preserve" viewBox="0 0 512 512"><linearGradient id="relic-storage_svg__a" x1="-695.97" x2="-690.85" y1="794.17" y2="789.05" gradientTransform="matrix(100 0 0 -100 69597 79417)" gradientUnits="userSpaceOnUse"><stop offset="0" style="stop-color:#9d366d"/><stop offset="1" style="stop-color:#5a1e3e"/></linearGradient><path d="M102.4 0h307.2C466.2 0 512 45.8 512 102.4v307.2c0 56.6-45.8 102.4-102.4 102.4H102.4C45.8 512 0 466.2 0 409.6V102.4C0 45.8 45.8 0 102.4 0" style="fill:url(#relic-storage_svg__a)"/><path d="M174 366V146.1h93.4c23.5 0 40.6 2 51.2 5.9s19.2 11 25.6 21.1 9.6 21.6 9.6 34.6c0 16.5-4.9 30.1-14.6 40.9s-24.2 17.5-43.5 20.3c9.6 5.6 17.5 11.8 23.8 18.5 6.2 6.7 14.7 18.6 25.3 35.7l26.8 42.9h-53.1l-32.1-47.9C275 301 267.2 290.2 263 285.8s-8.7-7.5-13.4-9.1-12.1-2.5-22.3-2.5h-9V366zm44.4-126.9h32.8q31.95 0 39.9-2.7c5.3-1.8 9.5-4.9 12.5-9.3q4.5-6.6 4.5-16.5c0-7.4-2-13.4-5.9-17.9-3.9-4.6-9.5-7.4-16.7-8.6-3.6-.5-14.4-.8-32.4-.8h-34.6v55.8z" style="fill:#fff"/></svg>