<svg xmlns="http://www.w3.org/2000/svg" xml:space="preserve" viewBox="0 0 512 512"><path d="M256 0C114.6 0 0 114.6 0 256s114.6 256 256 256 256-114.6 256-256S397.4 0 256 0M67 368.1c-19.4-32.8-30.5-70.8-30.5-111.5C36.5 135.5 135 37.1 256 37.1c71.6 0 135.4 34.5 175.5 87.9l-37.7 25.1c-31.9-41.3-81.8-67.8-137.9-67.8-96.2 0-174.2 78-174.2 174.2 0 31.4 8.4 60.9 23 86.5zm285.9-45.2v52.4l-129.7-86.4 129.7-86.5v52.4l-51.1 34.1zM154.2 190.8v-52.4L284 224.8l-129.8 86.5v-52.5l51.1-34zm101.8 285c-72.2 0-136.4-35.1-176.4-89.1l37.6-25.1c31.8 41.9 82.1 69 138.8 69 96.2 0 174.2-78 174.2-174.2 0-31.9-8.7-61.9-23.7-87.6l37.7-25.3c19.9 33 31.3 71.6 31.3 112.8 0 121.1-98.5 219.5-219.5 219.5"/></svg>