<svg xmlns="http://www.w3.org/2000/svg" xml:space="preserve" viewBox="0 0 512 512"><path d="M332.8 0H179.2C80.2 0 0 80.2 0 179.2v153.6C0 431.8 80.2 512 179.2 512h153.6c99 0 179.2-80.2 179.2-179.2V179.2C512 80.2 431.8 0 332.8 0" style="fill:#fff"/><path d="M395.4 160.1c-21.8 0-39.3 17.5-39.3 39.3 0 7.9 2.4 15.1 6 21.1L287.8 315c8.7 4.4 16.7 10.7 23 17.9l75.1-95.3c3.2.8 6.4 1.2 9.5 1.2 21.8 0 39.3-17.5 39.3-39.3 0-21.5-17.4-39.4-39.3-39.4M256 339.6c-4 0-7.5.4-11.1 1.6l-74.3-94.9c-6.4 7.5-14.3 13.5-23 17.9l74.3 94.9c-3.6 6-5.2 12.7-5.2 19.9 0 21.8 17.5 39.3 39.3 39.3s39.3-17.5 39.3-39.3c0-21.9-17.5-39.4-39.3-39.4m70.3-159.2c2.8-9.5 7.1-18.7 13.5-26.2-26.6-9.5-54.8-14.7-83.8-14.7-41.3 0-80.6 10.3-116 29.8-6.4-4.8-14.7-7.5-23.4-7.5-21.8-.4-39.3 17.5-39.3 38.9 0 21.8 17.5 39.3 39.3 39.3s39.3-17.5 39.3-39.3c0-2.4-.4-4.8-.8-6.8 31-16.7 65.1-25.4 100.9-25.4 24.2-.1 48.1 3.9 70.3 11.9"/></svg>