<svg xmlns="http://www.w3.org/2000/svg" xml:space="preserve" viewBox="0 0 512 512"><path d="M247.3 2.2c5.4-2.9 11.9-2.9 17.4 0l237.7 128c8.9 4.8 12.2 15.9 7.4 24.8-1.7 3.1-4.3 5.7-7.4 7.4l-237.7 128c-5.4 2.9-11.9 2.9-17.4 0L9.6 162.4c-8.9-4.8-12.2-15.9-7.4-24.8 1.7-3.1 4.3-5.7 7.4-7.4zM43 221.9l187 100.7c16.2 8.7 35.8 8.7 52 0l187-100.7 33.4 18c8.9 4.8 12.2 15.9 7.4 24.8-1.7 3.1-4.3 5.7-7.4 7.4l-237.7 128c-5.4 2.9-11.9 2.9-17.3 0L9.6 272.1c-8.9-4.8-12.2-15.9-7.4-24.8 1.7-3.1 4.3-5.7 7.4-7.4zm187 210.4L43 331.6l-33.4 18c-8.9 4.8-12.2 15.9-7.4 24.8 1.7 3.1 4.3 5.7 7.4 7.4l237.7 128c5.4 2.9 11.9 2.9 17.3 0l237.7-128c8.9-4.8 12.2-15.9 7.4-24.8-1.7-3.1-4.3-5.7-7.4-7.4l-33.4-18L282 432.3c-16.2 8.8-35.8 8.8-52 0" style="fill:#2b7fff"/></svg>