<svg xmlns="http://www.w3.org/2000/svg" xml:space="preserve" viewBox="0 0 512 512"><path d="M149.4 296.7c-.1-.1-.2-.3-.3-.4l-54.3 38.4c-18.3-25.9-29-57.5-29-91.6 0-87.7 71.2-159 159-159 14.8 0 29.1 2 42.7 5.8v.1c33 9.7 52.5 44.1 43.5 77.6-2.1 7.8-5.6 14.9-10.1 21.1.2.2.3.4.5.7l53.4-37.8c18.3 25.9 29 57.5 29 91.5 0 87.7-71.2 159-159 159-14.5 0-28.6-2-42-5.6-33.4-9.4-53.2-44.1-44.2-77.8 2.2-8.2 5.9-15.6 10.8-22m262.3 70.8 69.4 69.4 30.9 30.9-97.9 26.2-64.5-64.5c-35.7 23.9-78.6 37.8-124.8 37.8C100.7 467.4 0 366.7 0 242.7S100.7 17.9 224.8 17.9s224.8 100.7 224.8 224.8c0 46.1-14 89.1-37.9 124.8M300.8 249.7l-55.4 32-55.4 32c-6.3 3.6-11.4.7-11.4-6.6v-128c0-7.3 5.1-10.2 11.4-6.6l55.4 32 55.4 32c6.3 3.7 6.3 9.6 0 13.2" style="fill-rule:evenodd;clip-rule:evenodd;fill:#fff"/></svg>