<?xml version="1.0" encoding="utf-8"?>
<!-- Generator: Adobe Illustrator 28.2.0, SVG Export Plug-In . SVG Version: 6.00 Build 0)  -->
<svg version="1.1" id="Layer_2_00000036935545091924011310000009365243118721200301_"
	 xmlns="http://www.w3.org/2000/svg" xmlns:xlink="http://www.w3.org/1999/xlink" x="0px" y="0px" viewBox="0 0 512 512"
	 style="enable-background:new 0 0 512 512;" xml:space="preserve">
<path d="M130.4,254.3c-34,27-78.6,43.6-125.1,44.7c-1.8-0.1-3.5-0.1-5.3-0.1l0.4-89.1c0.8,0,1.6,0,2.4,0c0.1,0,0.4,0,0.6,0
	C67.2,209.4,119,157.5,119,93.5c0-24.7,20-44.7,44.7-44.7s44.7,20,44.7,44.7l-0.2-0.2C208.2,158.5,177.8,216.6,130.4,254.3
	 M176.3,305.2l-51.2,87.9l-0.2-0.1v0.1c-4.1,7.1-6,14.8-6,22.5c0,15.4,7.9,30.4,22.2,38.6c6.9,4.1,14.7,6,22.2,6.1h0.5
	c15.3,0,30.1-8,38.4-22.2l136.6-234.3l51.2-87.9c0.2-0.4,0.5-0.8,0.7-1.2c3.6-6.7,5.3-13.9,5.3-21.2c0,0.6,0,1.2,0,1.8
	c0-0.6,0.1-1.2,0.1-1.8c0-15.4-7.9-30.4-22.2-38.6c-21.4-12.4-48.7-5.2-61.1,16.1L176.3,305.2 M511.8,209.9v0.1
	c-48.1,0-92.3,16.7-127.3,44.6l0,0c-47.3,37.7-77.7,95.8-77.7,160.9c0,65.2,20,44.6,44.6,44.7h0.3c24.6,0,44.6-20,44.6-44.7
	c0-63.8,51.7-115.8,115.5-116.3l0.3-89.3C512,209.9,511.9,209.9,511.8,209.9z M166.9,305.4c-10.1-15.1-22.3-28.7-36.5-40.7
	C107,282,79.3,294.6,50,301.3c14.3,6.1,27.6,15,39.1,26.2c15.9,15.5,27.2,34.3,33.1,54.6L166.9,305.4z M348.2,203.7
	c10.1,15,22.3,28.7,36.5,40.7c23.7-17.8,50.1-30.1,78.3-36.7c-33.9-14.8-60-44.3-70.2-80.3L348.2,203.7z"/>
</svg>
