<?xml version="1.0" encoding="utf-8"?>
<!-- Generator: Adobe Illustrator 28.2.0, SVG Export Plug-In . SVG Version: 6.00 Build 0)  -->
<svg version="1.1" id="Layer_2_00000036935545091924011310000009365243118721200301_"
	 xmlns="http://www.w3.org/2000/svg" xmlns:xlink="http://www.w3.org/1999/xlink" x="0px" y="0px" viewBox="0 0 512 512"
	 style="enable-background:new 0 0 512 512;" xml:space="preserve">
<style type="text/css">
	.st0{fill:#1088FF;}
	.st1{fill:url(#SVGID_1_);}
	.st2{fill:url(#SVGID_00000169538707413120900080000004191803735464735418_);}
</style>
<path class="st0" d="M511.8,209.9L511.8,209.9c-63-0.3-114.5-51.3-115.8-114.1c0-0.8,0.1-1.5,0.1-2.3c0-15.4-7.9-30.4-22.2-38.6
	c-21.4-12.4-48.7-5.2-61.1,16.1L176.2,305c-12.3-19.3-28-36.6-45.8-50.7c47.4-37.7,77.8-95.8,77.8-161l0.2,0.2
	c0-24.7-20-44.7-44.7-44.7S119,68.8,119,93.5c0,64-51.8,115.9-115.6,116.3c-0.2,0-0.5,0-0.6,0c-0.8,0-1.6,0-2.4,0L0,298.9
	c33.3,0,65.8-7.9,94.3-21.9c-28.5,14-61,21.9-94.3,21.9c64.3,0,118.9,52.5,118.9,116.6c0-7.7,1.9-15.4,6-22.5l0,0l0,0.1
	c-4.1,7.1-6,14.8-6,22.5c0,15.4,7.9,30.4,22.2,38.6c6.9,4.1,14.7,6,22.2,6.1h0.5c15.3,0,30.1-8,38.4-22.2l136.6-234.3l51.2-87.9
	c0.5-0.9,1-1.7,1.5-2.6c-0.4,0.9-0.9,1.8-1.5,2.7l-51.2,87.9c12.3,19.4,27.9,36.5,45.7,50.7c-47.3,37.7-77.7,95.8-77.7,160.9
	c0,65.2,20,44.6,44.6,44.7h0.3c24.6,0,44.6-20,44.6-44.7c0-63.8,51.7-115.8,115.5-116.3l0.3-89.3C512,209.9,511.9,209.9,511.8,209.9
	z M384.8,254.5h-0.2"/>
<linearGradient id="SVGID_1_" gradientUnits="userSpaceOnUse" x1="88.15" y1="1485.5" x2="88.15" y2="1279.5972" gradientTransform="matrix(1 0 0 1 0 -1070)">
	<stop  offset="0" style="stop-color:#00004C"/>
	<stop  offset="0.3" style="stop-color:#00004C;stop-opacity:0.6"/>
	<stop  offset="0.6" style="stop-color:#00004C;stop-opacity:0.2"/>
	<stop  offset="0.8" style="stop-color:#00004C;stop-opacity:0"/>
</linearGradient>
<path class="st1" d="M125.1,393.1l51.2-87.9c-12.3-19.4-27.9-36.5-45.7-50.7c-35.3,28-82.2,44.6-130.6,44.6l0,0
	c64.3,0,118.9,52.3,118.9,116.4l0,0c0-7.7,1.9-15.4,6-22.5L125.1,393.1z"/>
<linearGradient id="SVGID_00000048483590217329586910000006342055196727856566_" gradientUnits="userSpaceOnUse" x1="306.5698" y1="1244.05" x2="512.4725" y2="1244.05" gradientTransform="matrix(1 0 0 1 0 -1070)">
	<stop  offset="0" style="stop-color:#00004C"/>
	<stop  offset="0.3" style="stop-color:#00004C;stop-opacity:0.6"/>
	<stop  offset="0.6" style="stop-color:#00004C;stop-opacity:0.2"/>
	<stop  offset="0.8" style="stop-color:#00004C;stop-opacity:0"/>
</linearGradient>
<path style="fill:url(#SVGID_00000048483590217329586910000006342055196727856566_);" d="M511.8,209.9C448,209.6,396,157.4,396,93.5
	l0,0c0,7.7-1.9,15.4-6,22.5l-51.2,87.9c12.3,19.4,27.9,36.5,45.7,50.7c35-27.9,79.2-44.6,127.3-44.6l0,0V209.9z"/>
</svg>
