<svg xmlns="http://www.w3.org/2000/svg" xml:space="preserve" viewBox="0 0 512 512"><path d="m203.1 434.9 59.5 13.2L95 482.8c-9.9 2.5-19.8-5.8-19.8-16.5V406l24.8 5.8v44.6zM99.1 94.7V55l91.7 20.6 59.5-12.4L94.1 28.6c-9.9-1.7-19.8 5.8-19.8 16.5v54.5zm399.7 23.9-61.1-14v25.6l49.5 10.7v234.5l-49.5 9.9v25.6l61.1-12.4c7.4-1.7 13.2-8.3 13.2-16.5V134.3c0-7.4-5.8-14-13.2-15.7" style="fill:#d53f8c"/><path d="M0 128.5c0-7.4 5.8-14.9 13.2-16.5l404.6-83.4c9.9-2.5 19.8 5.8 19.8 16.5v422c0 10.7-9.9 18.2-19.8 16.5L13.2 394.4C5.8 392.8 0 386.2 0 377.9z" style="fill:#f2e142"/></svg>