<svg xmlns="http://www.w3.org/2000/svg" xml:space="preserve" viewBox="0 0 512 512"><path d="m345.9 253.4 5.6 32-181.1 31.7-5.6-32zm-10.8-54.2L154 230.8l5.6 32 181.1-31.7zm-2.2-22.2-5.6-32-149.2 26 5.6 32zm40.4-86.6 49.4 282.7-287.2 50.2-.9-5.1-40-228.8c-4.4-1.3-8.6-3.3-12.5-6a41.17 41.17 0 0 1-16.8-26.1l-.1-.6c-3.9-22.4 11.1-43.9 33.5-47.8 10.8-1.9 21.8.5 30.8 6.9 4 2.8 7.4 6.3 10.1 10.2l232.7-40.7zm37.4 274.3L364 97.3l-219.4 38.3q1.2 3.3 1.8 6.9v.2c1.5 8.9 0 17.6-3.7 25.2l9 20.2-6.7 6.9-20.6-8.4c-3.5 1.8-7.4 3.1-11.4 3.8q-3.6.6-7.2.6h-.3L144 411.4zm41.1 92.2-303.1 54.3h-.1c-4.1.5-8.3.8-12.4.8-39.9 0-73.8-25.1-80.7-59.7L1.4 148.4v-.1C-4.4 103.7 21.5 62.7 60.2 55h.1L363.3.8h.1c44.5-5.8 85.4 20.1 93.1 58.9l54.1 303.8v.1c5.8 44.6-20.1 85.6-58.8 93.3m47.1-91.6-54-303.4c-6.5-32.6-41.5-54.3-79.8-49.4L62.4 66.7c-32.5 6.5-54.2 41.6-49.3 80l54 303.4c6.5 32.6 41.5 54.3 79.8 49.4l302.7-54.2c32.5-6.5 54.2-41.6 49.3-80" style="fill:#fff"/></svg>