<?xml version="1.0" encoding="utf-8"?>
<!-- Generator: Adobe Illustrator 28.2.0, SVG Export Plug-In . SVG Version: 6.00 Build 0)  -->
<svg version="1.1"
	 id="svg8" xmlns:svg="http://www.w3.org/2000/svg" xmlns:sodipodi="http://sodipodi.sourceforge.net/DTD/sodipodi-0.dtd" xmlns:inkscape="http://www.inkscape.org/namespaces/inkscape" xmlns:rdf="http://www.w3.org/1999/02/22-rdf-syntax-ns#" xmlns:dc="http://purl.org/dc/elements/1.1/" xmlns:cc="http://creativecommons.org/ns#" inkscape:export-xdpi="90" inkscape:export-ydpi="90"
	 xmlns="http://www.w3.org/2000/svg" xmlns:xlink="http://www.w3.org/1999/xlink" x="0px" y="0px" viewBox="0 0 512 512"
	 style="enable-background:new 0 0 512 512;" xml:space="preserve">
<style type="text/css">
	.st0{fill:#FFFFFF;}
</style>
<ellipse id="path2115" class="st0" cx="202.4" cy="176.5" rx="4.4" ry="12.4"/>
<ellipse id="ellipse2117" transform="matrix(0.7071 -0.7071 0.7071 0.7071 -83.3356 172.6385)" class="st0" cx="166.7" cy="186.9" rx="4.4" ry="12.4"/>
<path class="st0" d="M392.3,177l-22.7,12.4l-5.5-18.9l-10.4,4.9l6.8,18.9l-130.4,71.2c14.5-25.5,26.6-50.8,36.1-75.7
	c9.6-25,15.7-50,18.6-74.7c2.7-24.9,1-48.6-5.2-71.3c-23.3-6.8-49,13.7-68.2,8.7c-101-26.8-125.4,7.1-152.3,57.9
	c-16.1,30.6-47,43.9-55.8,80.5L0,258.1l61.6,21.5l-2.2,33l44.4,0.4l5.7,38.3l64.8,17.1l60.2,49.4l53.7,27.2l57.4,24.6l4.6-4.6
	L215.9,302.2l173.1-74.6l57.4,37.5l-12.3,14.6l5.8,7.5l15.5-16.3l53.5,35l3.1-3.1L392.3,177z M187.4,110.3
	c3.1,2.4,0.7,10.1-5.1,17.4c-5.8,7.3-12.7,11.3-15.8,8.9L187.4,110.3z M115.3,136.5l33.3,4.2c-0.5,3.8-8.4,5.8-17.5,4.7
	C121.9,144.2,114.7,140.2,115.3,136.5z M206.9,288.9L89.6,147.7c55.3,12,99.4,52.3,115.4-46.2C228.2,154.5,240.7,219.3,206.9,288.9z
	"/>
</svg>
