<?xml version="1.0" encoding="utf-8"?>
<!-- Generator: Adobe Illustrator 28.2.0, SVG Export Plug-In . SVG Version: 6.00 Build 0)  -->
<svg version="1.1" id="Layer_1" xmlns="http://www.w3.org/2000/svg" xmlns:xlink="http://www.w3.org/1999/xlink" x="0px" y="0px"
	 viewBox="0 0 512 512" style="enable-background:new 0 0 512 512;" xml:space="preserve">
<style type="text/css">
	.st0{clip-path:url(#SVGID_00000000904514088583449420000014569928308955882412_);}
	.st1{fill:#EDE5F8;}
	.st2{fill:#BEA4E1;}
	.st3{clip-path:url(#SVGID_00000155864287679767604050000003872345954631064226_);}
	.st4{fill:#553E98;}
	.st5{fill:#371F69;}
	.st6{clip-path:url(#SVGID_00000006707409478703658660000002190187249646629253_);}
	.st7{fill:#E6C7A7;}
	.st8{fill:#E1A38D;}
</style>
<g>
	<g>
		<defs>
			<ellipse id="SVGID_1_" cx="256" cy="256" rx="256" ry="256"/>
		</defs>
		<clipPath id="SVGID_00000044156992971025372030000009527294446795334842_">
			<use xlink:href="#SVGID_1_"  style="overflow:visible;"/>
		</clipPath>
		
			<g transform="translate(-136.606 -135.75)scale(.52916)" style="clip-path:url(#SVGID_00000044156992971025372030000009527294446795334842_);">
			<path class="st1" d="M258.3,256.5h967.4v967.6H258.3V256.5z"/>
			<path class="st2" d="M1225.7,256.5L258.3,1224v0.2h967.4V256.5z"/>
		</g>
	</g>
	<g>
		<defs>
			<ellipse id="SVGID_00000041993654562280122560000008348188450235746202_" cx="256" cy="256" rx="256" ry="256"/>
		</defs>
		<clipPath id="SVGID_00000010300210021538702970000001955372779515453326_">
			<use xlink:href="#SVGID_00000041993654562280122560000008348188450235746202_"  style="overflow:visible;"/>
		</clipPath>
		<g transform="translate(-1.2)" style="clip-path:url(#SVGID_00000010300210021538702970000001955372779515453326_);">
			<path class="st4" d="M203,108c3.3,0,6.4-1.3,7.1-5.1c0.1-0.3,1.8-9,3.5-19.5c4-25.5,4.3-26.5,8.2-30.9c1.8-1.9,4.1-4.4,5.4-4.9
				c40.2-15.1,83.6-12.2,113.1-4.9c2,0.5,4.4,2.2,5.7,3.2c3,2.4,7.3,8.3,8.5,11.7c1.3,3.5,4.8,19.4,7.1,31.9l1.8,9.6
				c35.9,23.7,71.8,62.9,71.8,125c0,7.4,1.6,18.9,14.6,108c21.4,146.2,21.1,144.3,21.1,165.1c-0.3,11.1-0.8,15-0.8,15
				c-9.6,0-172.9-0.1-193,0c-1.8,0-30.4-52.6-39.3-68.7l-9.1-5.5c-5.7,6.6-12.1,11.9-20.8,17.4c-17.2,10.7-35.6,15.8-54.1,15
				c-9.6-0.4-15.2-1.5-24.9-4.7c-28.6-9.5-51.8-31.1-60.2-55.9l-1.8-5.4l-65.7,0c0,0,0-7.8,0-296.1L203,108z"/>
			<path class="st5" d="M391.7,121.5L81.2,432c11.5,14.8,28.3,26.9,47.7,33.4c9.7,3.2,15.4,4.3,24.9,4.7c18.5,0.8,36.9-4.3,54.1-15
				c8.8-5.4,15.1-10.7,20.8-17.4l9.1,5.5c8.9,16.1,37.5,68.7,39.3,68.7c20.1-0.1,183.4,0,193,0c0,0,0.5-3.8,0.8-15
				c0-20.8,0.2-18.9-21.1-165.1c-13-89-14.6-100.6-14.6-108C435.4,178.5,416.1,145.3,391.7,121.5"/>
		</g>
	</g>
	<g>
		<defs>
			<ellipse id="SVGID_00000036973932288469518720000002486087295638437564_" cx="256" cy="256" rx="256" ry="256"/>
		</defs>
		<clipPath id="SVGID_00000051342399708518696440000007128675569035052196_">
			<use xlink:href="#SVGID_00000036973932288469518720000002486087295638437564_"  style="overflow:visible;"/>
		</clipPath>
		
			<g transform="translate(-135.407 -135.75)scale(.52916)" style="clip-path:url(#SVGID_00000051342399708518696440000007128675569035052196_);">
			<circle class="st7" cx="805.1" cy="540.1" r="59.6"/>
			<circle class="st7" cx="668.3" cy="673.4" r="59.6"/>
			<circle class="st8" cx="940" cy="674" r="59.6"/>
			<circle class="st8" cx="806.3" cy="815.4" r="59.6"/>
		</g>
	</g>
</g>
</svg>
