<?xml version="1.0" encoding="utf-8"?>
<!-- Generator: Adobe Illustrator 28.2.0, SVG Export Plug-In . SVG Version: 6.00 Build 0)  -->
<svg version="1.1" id="Layer_1" xmlns="http://www.w3.org/2000/svg" xmlns:xlink="http://www.w3.org/1999/xlink" x="0px" y="0px"
	 viewBox="0 0 512 512" style="enable-background:new 0 0 512 512;" xml:space="preserve">
<style type="text/css">
	.st0{fill:#EDE5F8;}
	.st1{fill:#BEA4E1;}
	.st2{fill:#371F69;}
	.st3{fill:#553E98;}
	.st4{fill:#E6C7A7;}
	.st5{fill:#E1A38D;}
</style>
<circle class="st0" cx="256" cy="256" r="256"/>
<path class="st1" d="M408.3,50.2L50.2,408.3C96.9,471.2,171.7,512,256,512c141.4,0,256-114.6,256-256
	C512,171.7,471.2,96.9,408.3,50.2z"/>
<path class="st2" d="M216.7,410c5.2,0.8,14.3,3.3,18.8,5.3c4.3,1.9,5.5,2.5,6.7,3.2c0.7,0.4,7.6,4.5,11.5,7.5
	c1.9,1.5,5.8,4.5,8.6,6.7c27.8,21.8,55.7,51.1,71.3,67.3c65.8-20.9,120-67.7,150.8-128.3c-0.8-5.1-1.8-11.1-2.2-13.4
	c-3.3-18.7-8.8-36.8-14.2-54.9c-3.6-13.7-7.3-26.7-10.3-36.6c-4.8-15.9-9.6-31.9-15.2-47.6c-0.4-0.9-7.6-21.2-11-31
	c-4-11.3-8.3-22.5-12.3-33.9c-8.3-22.3-16.5-44.7-25.7-66.7c-0.8-2.5-8.3-16.5-11.8-22.3c-0.8-1.4-2.5-3.4-4.1-4.9
	c-4-3.8-17.5-10.8-29.4-16.3c-2.1-0.9-30-12.6-58.7-20.3c-17.2-4.6-24.5-5.7-35.4-7.4c-4.6-0.7-9.6-1.6-11.2-1.9
	c-7.3-1.5-16.6-0.1-23.9,3.2c-14.2,6.5-69.7,77-83.1,83c-6.3,2.8-8.1,3.1-47.1,3l-38.5-0.1C18.7,146.2,0,198.9,0,256
	c0,57.1,18.6,109.7,50.3,152.3l70.1,0.1C182.9,408.4,208.2,408.8,216.7,410z"/>
<path class="st3" d="M381.5,65c-0.8-1.3-2.2-3.1-3.8-4.6c-4-3.8-17.5-10.8-29.4-16.3c-19.2-8.8-38.2-14.5-58.7-20.3
	c-17.2-4.6-32.6-6.9-35.4-7.4c-4.6-0.8-9.5-1.6-11.2-1.9c-1.3-0.2-12.4-2.3-24,3c-13.2,6-70.7,77.8-83.1,83.4
	c-6.3,2.8-8.1,3.1-47.1,3l-38.6-0.2C18.7,146.3,0,199,0,256c0,57.1,18.7,109.8,50.3,152.3L385.9,72.6C384.5,70,382.5,66.7,381.5,65z
	"/>
<path class="st4" d="M274.6,93.7c17.4,0,31.5,14.1,31.5,31.5c0,17.4-14.1,31.5-31.5,31.5s-31.5-14.1-31.5-31.5
	C243.1,107.8,257.2,93.7,274.6,93.7z M215.7,152.3c17.4,0,31.5,14.1,31.5,31.5s-14.1,31.5-31.5,31.5s-31.5-14.1-31.5-31.5
	S198.3,152.3,215.7,152.3z"/>
<path class="st5" d="M334.8,151.2c17.4,0,31.5,14.1,31.5,31.5s-14.1,31.5-31.5,31.5s-31.5-14.1-31.5-31.5S317.3,151.2,334.8,151.2z
	 M274.6,211.9c17.4,0,31.5,14.1,31.5,31.5s-14.1,31.5-31.5,31.5S243,260.8,243,243.4S257.2,211.9,274.6,211.9z"/>
</svg>
