<?xml version="1.0" encoding="utf-8"?>
<!-- Generator: Adobe Illustrator 28.2.0, SVG Export Plug-In . SVG Version: 6.00 Build 0)  -->
<svg version="1.1" id="Layer_1" xmlns="http://www.w3.org/2000/svg" xmlns:xlink="http://www.w3.org/1999/xlink" x="0px" y="0px"
	 viewBox="0 0 512 512" style="enable-background:new 0 0 512 512;" xml:space="preserve">
<style type="text/css">
	.st0{fill:#EDE5F8;}
	.st1{fill:#BEA4E1;}
	.st2{fill:#553E98;}
	.st3{fill:#371F69;}
	.st4{fill:#E6C7A7;}
	.st5{fill:#E1A38D;}
</style>
<path class="st0" d="M510.8,256c0-141.4-114.6-256-256-256C122.1,0,12.9,101,0.1,230.3v51.3C12.9,410.9,121.8,511.8,254.4,512h0.8
	C396.4,511.8,510.8,397.2,510.8,256z"/>
<path class="st1" d="M254.8,512c141.4,0,256-114.6,256-256c0-70.4-28.4-134.1-74.4-180.4l-362,362C120.7,483.6,184.4,512,254.8,512z
	"/>
<path class="st2" d="M67.5,409.8c2.7,7.9,6.9,15.5,12.3,22.5l310.6-310.6c-8.9-8.7-18.5-16.2-28.1-22.5l-1.8-9.6
	c-2.3-12.5-5.8-28.4-7.1-31.9c-1.2-3.4-5.5-9.3-8.5-11.7c-1.3-1-3.7-2.7-5.7-3.2c-29.5-7.3-72.9-10.2-113.1,4.9
	c-1.3,0.5-3.6,3-5.4,4.9c-3.9,4.4-4.2,5.4-8.2,30.9c-1.7,10.5-3.4,19.2-3.5,19.5c-0.7,3.8-3.8,5.1-7.1,5.1L0,108.3
	c0,288.3,0,296.1,0,296.1h65.7L67.5,409.8z"/>
<path class="st3" d="M390.5,121.5L80,432c11.5,14.8,28.3,26.9,47.7,33.4c9.7,3.2,15.4,4.3,24.9,4.7c18.5,0.8,36.9-4.3,54.1-15
	c8.8-5.4,15.1-10.7,20.8-17.4l9.1,5.5c8.9,16.1,37.5,68.7,39.3,68.7c20.1-0.1,183.4,0,193,0c0,0,0.5-3.8,0.8-15
	c0-20.8,0.2-18.9-21.1-165.1c-13-89-14.6-100.6-14.6-108C434.2,178.5,414.9,145.3,390.5,121.5"/>
<path class="st4" d="M290.6,118.5c17.4,0,31.5,14.1,31.5,31.5s-14.1,31.5-31.5,31.5s-31.5-14.1-31.5-31.5S273.2,118.5,290.6,118.5z
	 M218.2,189c17.4,0,31.5,14.1,31.5,31.5S235.6,252,218.2,252s-31.5-14.1-31.5-31.5S200.8,189,218.2,189z"/>
<path class="st5" d="M362,189.4c17.4,0,31.5,14.1,31.5,31.5s-14.1,31.5-31.5,31.5s-31.5-14.1-31.5-31.5S344.6,189.4,362,189.4z
	 M291.3,264.2c17.4,0,31.5,14.1,31.5,31.5s-14.1,31.5-31.5,31.5s-31.5-14.1-31.5-31.5C259.7,278.3,273.8,264.2,291.3,264.2z"/>
</svg>
