<svg xmlns="http://www.w3.org/2000/svg" xml:space="preserve" viewBox="0 0 512 512"><circle cx="256" cy="256" r="256" style="fill:#ede5f8"/><path d="M408.3 50.2 50.2 408.3C96.9 471.2 171.7 512 256 512c141.4 0 256-114.6 256-256 0-84.3-40.8-159.1-103.7-205.8" style="fill:#bea4e1"/><path d="M216.7 410c5.2.8 14.3 3.3 18.8 5.3 4.3 1.9 5.5 2.5 6.7 3.2.7.4 7.6 4.5 11.5 7.5 1.9 1.5 5.8 4.5 8.6 6.7 27.8 21.8 55.7 51.1 71.3 67.3 65.8-20.9 120-67.7 150.8-128.3-.8-5.1-1.8-11.1-2.2-13.4-3.3-18.7-8.8-36.8-14.2-54.9-3.6-13.7-7.3-26.7-10.3-36.6-4.8-15.9-9.6-31.9-15.2-47.6-.4-.9-7.6-21.2-11-31-4-11.3-8.3-22.5-12.3-33.9-8.3-22.3-16.5-44.7-25.7-66.7-.8-2.5-8.3-16.5-11.8-22.3-.8-1.4-2.5-3.4-4.1-4.9-4-3.8-17.5-10.8-29.4-16.3-2.1-.9-30-12.6-58.7-20.3-17.2-4.6-24.5-5.7-35.4-7.4-4.6-.7-9.6-1.6-11.2-1.9-7.3-1.5-16.6-.1-23.9 3.2-14.2 6.5-69.7 77-83.1 83-6.3 2.8-8.1 3.1-47.1 3l-38.5-.1C18.7 146.2 0 198.9 0 256s18.6 109.7 50.3 152.3l70.1.1c62.5 0 87.8.4 96.3 1.6" style="fill:#371f69"/><path d="M381.5 65c-.8-1.3-2.2-3.1-3.8-4.6-4-3.8-17.5-10.8-29.4-16.3-19.2-8.8-38.2-14.5-58.7-20.3-17.2-4.6-32.6-6.9-35.4-7.4-4.6-.8-9.5-1.6-11.2-1.9-1.3-.2-12.4-2.3-24 3-13.2 6-70.7 77.8-83.1 83.4-6.3 2.8-8.1 3.1-47.1 3l-38.6-.2C18.7 146.3 0 199 0 256c0 57.1 18.7 109.8 50.3 152.3L385.9 72.6c-1.4-2.6-3.4-5.9-4.4-7.6" style="fill:#553e98"/><path d="M274.6 93.7c17.4 0 31.5 14.1 31.5 31.5s-14.1 31.5-31.5 31.5-31.5-14.1-31.5-31.5 14.1-31.5 31.5-31.5m-58.9 58.6c17.4 0 31.5 14.1 31.5 31.5s-14.1 31.5-31.5 31.5-31.5-14.1-31.5-31.5 14.1-31.5 31.5-31.5" style="fill:#e6c7a7"/><path d="M334.8 151.2c17.4 0 31.5 14.1 31.5 31.5s-14.1 31.5-31.5 31.5-31.5-14.1-31.5-31.5 14-31.5 31.5-31.5m-60.2 60.7c17.4 0 31.5 14.1 31.5 31.5s-14.1 31.5-31.5 31.5-31.6-14.1-31.6-31.5 14.2-31.5 31.6-31.5" style="fill:#e1a38d"/></svg>