<svg xmlns="http://www.w3.org/2000/svg" xml:space="preserve" viewBox="0 0 512 512"><path d="M510.8 256c0-141.4-114.6-256-256-256C122.1 0 12.9 101 .1 230.3v51.3C12.9 410.9 121.8 511.8 254.4 512h.8c141.2-.2 255.6-114.8 255.6-256" style="fill:#ede5f8"/><path d="M254.8 512c141.4 0 256-114.6 256-256 0-70.4-28.4-134.1-74.4-180.4l-362 362c46.3 46 110 74.4 180.4 74.4" style="fill:#bea4e1"/><path d="M67.5 409.8c2.7 7.9 6.9 15.5 12.3 22.5l310.6-310.6c-8.9-8.7-18.5-16.2-28.1-22.5l-1.8-9.6c-2.3-12.5-5.8-28.4-7.1-31.9-1.2-3.4-5.5-9.3-8.5-11.7-1.3-1-3.7-2.7-5.7-3.2-29.5-7.3-72.9-10.2-113.1 4.9-1.3.5-3.6 3-5.4 4.9-3.9 4.4-4.2 5.4-8.2 30.9-1.7 10.5-3.4 19.2-3.5 19.5-.7 3.8-3.8 5.1-7.1 5.1l-155 .2C17.4 150 0 200.9 0 256c0 55.3 17.6 106.6 47.4 148.5h18.3z" style="fill:#553e98"/><path d="M390.5 121.5 80 432c11.5 14.8 28.3 26.9 47.7 33.4 9.7 3.2 15.4 4.3 24.9 4.7 18.5.8 36.9-4.3 54.1-15 8.8-5.4 15.1-10.7 20.8-17.4l9.1 5.5c8.9 16.1 37.5 68.7 39.3 68.7 20.1-.1 183.4 0 193 0 0 0 .5-3.8.8-15 0-20.8.2-18.9-21.1-165.1-13-89-14.6-100.6-14.6-108 .2-45.3-19.1-78.5-43.5-102.3" style="fill:#371f69"/><path d="M290.6 118.5c17.4 0 31.5 14.1 31.5 31.5s-14.1 31.5-31.5 31.5-31.5-14.1-31.5-31.5 14.1-31.5 31.5-31.5M218.2 189c17.4 0 31.5 14.1 31.5 31.5S235.6 252 218.2 252s-31.5-14.1-31.5-31.5 14.1-31.5 31.5-31.5" style="fill:#e6c7a7"/><path d="M362 189.4c17.4 0 31.5 14.1 31.5 31.5s-14.1 31.5-31.5 31.5-31.5-14.1-31.5-31.5 14.1-31.5 31.5-31.5m-70.7 74.8c17.4 0 31.5 14.1 31.5 31.5s-14.1 31.5-31.5 31.5-31.5-14.1-31.5-31.5c-.1-17.4 14-31.5 31.5-31.5" style="fill:#e1a38d"/></svg>