<svg xmlns="http://www.w3.org/2000/svg" xml:space="preserve" viewBox="0 0 512 512"><path d="M492.7 70.1h-42.3v27.4c0 14.5-11.8 26.2-26.2 26.2S398 112 398 97.6V70.1H113.1v27.4c0 14.5-11.8 26.2-26.2 26.2S60.7 112 60.7 97.6V70.1H19.3C8.6 70.1 0 78.8 0 89.4v372.3C0 472.4 8.6 481 19.3 481h473.4c10.6 0 19.3-8.6 19.3-19.3V89.4c0-10.6-8.6-19.3-19.3-19.3m-4.1 368.5c0 9.6-7.7 17.3-17.3 17.3H40.7c-9.6 0-17.3-7.7-17.3-17.3V153.2h465.2zM86.9 113c-8.5 0-15.4-6.9-15.4-15.4V46.4c0-8.5 6.9-15.4 15.4-15.4s15.4 6.9 15.4 15.4v51.1c.1 8.6-6.9 15.5-15.4 15.5m337.3 0c-8.5 0-15.4-6.9-15.4-15.4V46.4c0-8.5 6.9-15.4 15.4-15.4s15.4 6.9 15.4 15.4v51.1c.1 8.6-6.8 15.5-15.4 15.5" style="fill:#433fb6"/><path d="M447.2 304.5c.2 13.7-7.5 24.4-14.8 32.9-11.1 12.9-23.7 23.8-36 32.7 2.6-25.8 3.6-51.7 3.2-77.5-.3-18.7-1.5-37.5-3.4-56.3 12.6 9.6 28.8 24.1 41.7 42.7 4.2 6.4 9.2 14.7 9.3 25.5M366 389.1c-16.4 8.8-28.2 13-28.2 13-37.9 13.5-69.1 14.4-79.3 14.4-9.1 0-38.3-.3-74.5-11.9-5.7-1.8-19.3-6.4-36-15-4.3-31.9-6.2-64.3-5.6-96.4.5-25 2.4-50.2 5.8-75 8.2-4.6 13.9-7.1 15.7-7.9 38.1-16.5 71.1-18.9 83.5-19.5 54.3-2.4 95.8 15 118.1 26.5 3.5 25.2 5.5 50.6 6 75.9.7 32-1.2 64.2-5.5 95.9M248.7 283h.2M368 326.2q0-.3-1.5-.3zm-253.5-33.5c.3-18.1 1.4-36.3 3.2-54.4-10.3 7.9-21.2 17.6-31.7 29.2-13.6 15-19.3 25.3-19.4 37.1-.1 12.3 5.9 22.8 17.3 35.8 10.7 12.2 22.3 22.3 33.8 30.7-2.6-26.1-3.7-52.3-3.2-78.4" style="fill:#8f3a34"/><path d="M396.4 370.2c-10.7 7.8-21.2 14.1-30.3 18.9 4.3-31.8 6.1-64 5.6-95.9-.5-25.3-2.5-50.7-6-75.9 4.2 2.2 7.8 4.1 10.6 5.7 0 0 8.4 4.7 19.9 13.5 1.9 18.7 3.1 37.5 3.4 56.3.4 25.7-.7 51.6-3.2 77.4m-248.1-152c-8.2 4.6-19 11.2-30.5 20.1-1.8 18.1-2.9 36.3-3.2 54.4-.5 26.1.6 52.3 3.2 78.3 10.5 7.6 20.9 13.7 30.3 18.6-4.3-31.9-6.2-64.3-5.6-96.4.4-25 2.4-50.2 5.8-75m181.9 58c-3.4 0-6.2 2.8-6.2 6.2v10.7h-16.8v-10.7c0-3.4-2.8-6.2-6.2-6.2s-6.2 2.8-6.2 6.2v10.7H278v-10.7c0-3.4-2.8-6.2-6.2-6.2s-6.2 2.8-6.2 6.2v10.7h-16.8v-10.7c0-3.4-2.8-6.2-6.2-6.2s-6.2 2.8-6.2 6.2v10.7h-16.8v-10.7c0-3.4-2.8-6.2-6.2-6.2s-6.2 2.8-6.2 6.2v10.7h-16.8v-10.7c0-3.4-2.8-6.2-6.2-6.2s-6.2 2.8-6.2 6.2v37.2c0 3.4 2.8 6.2 6.2 6.2s6.2-2.8 6.2-6.2v-10.7h16.8v10.7c0 3.4 2.8 6.2 6.2 6.2s6.2-2.8 6.2-6.2v-10.7h16.8v10.7c0 3.4 2.8 6.2 6.2 6.2s6.2-2.8 6.2-6.2v-10.7h16.8v10.7c0 3.4 2.8 6.2 6.2 6.2s6.2-2.8 6.2-6.2v-10.7h16.8v10.7c0 3.4 2.8 6.2 6.2 6.2s6.2-2.8 6.2-6.2v-10.7H324v10.7c0 3.4 2.8 6.2 6.2 6.2s6.2-2.8 6.2-6.2v-37.2c0-3.4-2.8-6.2-6.2-6.2" style="fill:#fff"/></svg>