<?xml version="1.0" encoding="utf-8"?>
<!-- Generator: Adobe Illustrator 28.2.0, SVG Export Plug-In . SVG Version: 6.00 Build 0)  -->
<svg version="1.1"
	 id="svg3390" xmlns:cc="http://creativecommons.org/ns#" xmlns:rdf="http://www.w3.org/1999/02/22-rdf-syntax-ns#" xmlns:dc="http://purl.org/dc/elements/1.1/"
	 xmlns="http://www.w3.org/2000/svg" xmlns:xlink="http://www.w3.org/1999/xlink" x="0px" y="0px" viewBox="0 0 512 512"
	 style="enable-background:new 0 0 512 512;" xml:space="preserve">
<style type="text/css">
	.st0{fill:#FFFFFF;}
</style>
<path class="st0" d="M401.2,113.7l-0.7-1.9C391.3,87.2,332,61,276,72.9c2.7-10.2,10.6-16.8,24.4-20.5l8.1-2.2l-5.8-6
	C287.3,28.1,271,21,254.1,22.8c-19.5,2.2-36.6,16.9-47.7,32L182.5,0l-43.3,25.5l24.9,32.2c-37.8-9.5-72,3.8-97.6,38.6l-6.7,9.1
	l11.2-1.2c14.6-1.6,28.3-2.7,43.4-0.3c-17.4,5.7-33.8,16.6-47.9,25.9c-9.2,6.1-17.1,11.3-22.6,13.2l-14.2,4.9l14.4,4.5
	c7.2,2.2,13.9,4.2,20.2,5.8c-92.2,101.5-40.4,220-11.7,259.6c132.2,157.4,348.1,95.1,419.7-22.2C489.7,366,552.1,207.6,401.2,113.7z
	 M72.1,138c19-12.6,42.7-28.2,65.3-28.3l27.7-0.1l-26-9.5c-21.4-7.8-39.6-8.3-57.3-6.9c19.3-21.6,49.9-39.3,94.3-21.2l17,6.9
	l-39.1-50.6l24-14.2l26.9,61.7l4.9-8.2c9.3-15.5,26.1-32.9,45.4-35c11.6-1.3,23.2,3,34.6,12.9c-15.6,6.4-23.9,17.7-24.7,33.6
	l-0.3,6.8l6.6-1.8c45.4-12.5,94.4,4.3,113,21.6c-16.5-1.6-34.9,3.9-54.1,9.7c-29.9,9-60.9,18.3-88.6,2.5l-7.4-4.2l0,8.5
	c0,23-8,38.8-24.6,48.3c-11.3,6.5-25.1,9-37.3,10.2c0.2-0.4,0.4-0.9,0.6-1.3c7.4-16.1,15.8-34.4,0.9-52.5l-3.6-4.3l-3.8,4.1
	c-24.7,26.5-44.2,37.6-107.5,19.7C63,144,67.4,141.1,72.1,138z"/>
</svg>
