<?xml version="1.0" encoding="utf-8"?>
<!-- Generator: Adobe Illustrator 28.2.0, SVG Export Plug-In . SVG Version: 6.00 Build 0)  -->
<svg version="1.1"
	 id="svg3390" xmlns:cc="http://creativecommons.org/ns#" xmlns:rdf="http://www.w3.org/1999/02/22-rdf-syntax-ns#" xmlns:dc="http://purl.org/dc/elements/1.1/"
	 xmlns="http://www.w3.org/2000/svg" xmlns:xlink="http://www.w3.org/1999/xlink" x="0px" y="0px" viewBox="0 0 512 512"
	 style="enable-background:new 0 0 512 512;" xml:space="preserve">
<style type="text/css">
	.st0{fill:#F93208;}
	.st1{fill:#02902E;}
</style>
<path class="st0" d="M395.5,103.4c1,1.5,1.8,3,2.4,4.5c-41.7-16.4-105.3,39.5-158.9,8.9c0,57.2-48,63.3-75.7,65
	c7.9-19,21.3-38,5.6-57c-25.7,27.6-47.4,38.2-103.3,24.2c-98.8,103.8-45.3,226.7-15.7,267.4c134.1,159.6,353,96.4,425.6-22.5
	C493.2,363.4,558.4,198,395.5,103.4z"/>
<path id="path3437_00000094591809341633418350000010965129278758644127_" class="st1" d="M145.1,20.1L179.2,0l25.7,58.9
	c14.4-24.1,52.5-62.1,94.9-17.8c-18,4.8-28.6,14.7-29.4,32.2c57.6-15.9,119.2,12.2,127.6,34.6c-41.7-16.4-105.3,39.5-158.9,8.9
	c0,57.2-48,63.3-75.7,65c7.9-19,21.3-38,5.6-57c-29,31.1-52.8,40.6-126.2,17.8c18.5-6.4,56.5-43.3,93-43.5
	C109.9,89.7,89,91.1,68,93.5c11.1-15.1,46.2-57.8,108.9-32.2L145.1,20.1z"/>
</svg>
