<svg xmlns="http://www.w3.org/2000/svg" xml:space="preserve" viewBox="0 0 512 512"><path d="M349.1 0H162.9C83.7 0 17.7 56.5 3.1 131.4c36.5-17.1 77.3-26.7 120.3-26.7 156.8 0 283.9 127.1 283.9 283.9.1 41.6-9 82.6-26.7 120.3C455.5 494.3 512 428.3 512 349.1V162.9C512 72.9 439.1 0 349.1 0" style="opacity:.75"/><path d="M123.3 104.7c-43 0-83.7 9.5-120.3 26.7-2 10.2-3.1 20.7-3.1 31.5v186.2c0 38.3 13.2 73.5 35.3 101.3-12-17.2-19-38-19-60.5 0-58.5 47.4-105.9 105.9-105.9S228 331.4 228 389.9s-47.4 105.9-105.9 105.9c-22.5 0-43.4-7-60.5-19 27.8 22.1 63 35.3 101.3 35.3h186.2c10.6 0 21.1-1 31.5-3.1 17.6-37.7 26.7-78.7 26.7-120.3 0-156.9-127.1-284-284-284"/></svg>