<svg xmlns="http://www.w3.org/2000/svg" xml:space="preserve" viewBox="0 0 512 512"><path d="M256 .3C114.6.3 0 114.8 0 256c0 67.8 27 132.8 75 180.8 48 47.9 113.1 74.9 181 74.9s133-26.9 181-74.9c48-47.9 75-113 75-180.8-.1-63.5-23.9-124.6-66.6-171.6l-167.1 186c-5.1 5.1-11.8 7.7-18.6 7.7-6.7 0-13.5-2.5-18.6-7.7-10.3-10.3-10.3-26.9 0-37.1L427.4 66.4C380.4 24 319.3.4 256 .3m-42.9 93.6c7.3 16.4 23.8 27.8 42.9 27.8s35.6-11.4 42.9-27.8c14.7 3.9 28.6 9.7 41.5 17.2-1.7 4.3-2.6 8.7-2.9 13.2l-56.1 48.8c-8-2.5-16.5-3.8-25.3-3.8-47.8 0-86.7 38.8-86.7 86.6 0 47.7 38.9 86.6 86.7 86.6s86.7-38.9 86.7-86.6c0-9.2-1.5-18.1-4.1-26.4l47.9-55c5-.2 9.9-1.1 14.6-2.9 7.5 12.8 13.3 26.7 17.2 41.3-16.4 7.4-27.8 23.8-27.8 42.9s11.4 35.5 27.8 42.8c-3.9 14.7-9.7 28.6-17.2 41.4-16.8-6.3-36.5-2.8-50 10.7s-17.1 33.1-10.7 49.9c-12.9 7.5-26.7 13.3-41.5 17.2-7.3-16.4-23.8-27.8-42.9-27.8-19.2 0-35.6 11.4-42.9 27.8-14.7-3.9-28.6-9.7-41.4-17.2 6.4-16.8 2.8-36.4-10.7-49.9s-33.2-17-49.9-10.7c-7.5-12.8-13.3-26.7-17.3-41.4 16.4-7.3 27.9-23.7 27.9-42.8s-11.4-35.6-27.9-42.9c3.9-14.7 9.7-28.6 17.3-41.4 16.8 6.3 36.5 2.8 49.9-10.7 13.5-13.5 17.1-33.1 10.7-49.9 12.7-7.2 26.6-13.1 41.3-17" style="fill:#13beb7"/></svg>