<svg xmlns="http://www.w3.org/2000/svg" xml:space="preserve" viewBox="0 0 512 512"><path d="M235.3 16.3c-18.1 6.1-27.6 12-38.5 24-10.6 11.7-18.7 27.9-18.7 37.1 0 3.3-3.4 6.7-9.5 9.2-32.9 13.9-44.6 50.8-25.7 79.8 9.2 13.7 25.7 21.8 44.4 22h13.1v25.2h-31.8c-41.3 0-49.1-4.2-57.2-29.3-7.5-23.7-9.5-49.7-5.9-72.5 3.3-21.8 14.5-44.9 22.6-46.9 5.9-1.7 7-8.9 1.9-12-5-3.1-20.4 15.9-27.3 34-8.9 23.4-9.2 72.5-.3 98.2 5.3 15.3 5.6 19 2.5 27.3-3.1 8.4-2.8 10.3 2.8 17.6 11.2 15 8.7 19-12.5 20.6-30.7 2.2-29-4.5-28.2 116.9l.8 102.7H55.1c-12 0-22 5.6-22 12.5 0 1.1-2 3.6-4.7 5.6-12.8 9.5-3.9 9.8 229.3 9.8 207.3 0 229.6-.6 231.3-4.5 1.1-3.1-.3-5-3.9-5.9-3.1-.8-5.6-3.6-5.6-6.1 0-8.1-6.1-11.4-21.8-11.4-13.4 0-14.8-.6-12.8-5 1.4-2.5 2.5-49.1 2.5-102.9 0-97.6 0-98.5-6.1-104.6-4.7-4.5-10.6-6.4-23.2-7.2-15.3-1.1-16.7-1.7-16.7-7.8 0-3.6 2.5-9.2 5.6-12.3 6.4-6.4 7-13.7 1.7-20.9-3.1-4.5-3.1-6.7 1.4-16.7 7.2-16.5 11.7-49.9 9.8-71.7-2-21.5-11.4-49.4-17.3-51.6-7-2.5-7.2.8-1.4 12.6 13.1 25.4 14.2 67.5 2.8 101.8-8.7 26.2-15.9 29.8-58.6 29.8H312v-25.3h13.7c7.5 0 17.3-1.4 21.8-3.1 9.5-3.6 22.3-15.3 27.6-25.4 4.7-8.9 5-32.1.8-43.2-3.9-10.9-18.7-25.4-29-28.7-7-2.2-9.2-5-12-15.6-6.4-23.7-23.4-42.4-49.1-53.6-12-5.3-37.9-6.7-50.5-2.5m50.5 13.1C305.1 37.8 326 62.9 326 78c0 2.2-3.9 5.3-8.4 7-7.8 2.5-9.2 2-20.6-9.2-22.9-22.9-57.2-23.4-80.6-1.4-10 9.8-12.5 10.6-20.9 9.2-8.7-1.7-9.5-2.5-7.8-10 2.2-12 16.7-31.5 28.7-38.8 22.3-14 45.7-15.7 69.4-5.4m-2.2 46.4c4.2 3.3 10.6 10.3 14.2 15.9 6.1 9.5 7 9.8 12.5 6.1 19.8-14.2 56.6 6.4 59.4 33.2 2 15.9-2.5 27.1-15.1 37.9l-9.5 8.4H167l-10.9-10.9c-18.7-18.7-18.1-44.4 1.1-61.4 11.2-9.8 18.7-12.3 32.4-10.9 8.9.8 9.5 1.4 9.5 11.2 0 13.9 4.5 13.7 8.7-.8 3.9-13.1 15.3-26.5 27.6-32.1 11.9-5.6 38.4-3.6 48.2 3.4M246.5 196c5.9 7 6.7 10.6 7 30.4v22.9l-24 .8c-22.6 1.1-24.3 1.7-31.2 9.5-4.5 5.3-7.5 7-8.4 4.7-1.9-6.4-9.2-11.7-16.2-12-3.6-.3-9.2-.8-12.3-1.1s-13.1-.8-22.3-1.1c-15.1-.3-16.7-.8-16.7-6.1 0-3.1 3.6-9.5 8.1-14 8.1-8.1 8.4-8.1 43.2-8.1h35.2v-33.4h15.3c13.3 0 16.4 1.1 22.3 7.5m14.5-5.9c-.8.8-3.4 1.1-5.3.3-2.2-.8-1.4-1.7 1.7-1.7 3-.2 4.7.6 3.6 1.4m43.2 14.3.8 16.2 36 .8c33.8.6 36.5 1.1 42.1 7.2 3.3 3.6 7 10 8.1 14l1.7 7.2h-24.6c-28.2 0-41.3 3.6-43.8 11.4-1.7 5.3-2.2 5.3-8.4-1.4-6.7-7.3-19-10.6-34.9-9.8-20.4 1.1-19.5 2.2-19.5-24.3 0-32.1 3.6-37.1 25.7-37.4h15.9zm-179.6 13.1c1.7 8.1-4.2 12-9.8 6.7-3.9-3.9-3.9-5.6-.8-9.2 4.4-5.3 9.4-4.2 10.6 2.5m276.7-2.3c3.1 3.3 2.8 5-.8 8.9-4.5 4.2-5 4.2-9.5 0-3.6-3.9-3.9-5.6-.8-8.9 2-2.5 4.5-4.5 5.6-4.5s3.5 2 5.5 4.5m-220.4 51.1c3.9 7.5 3.9 188.3 0 195.8-2.8 5-6.4 5.3-51.1 5.3-33.8 0-49.4-1.1-51.6-3.4-4.7-4.7-4.7-195 0-199.8 2.2-2.2 17.8-3.4 51.6-3.4 44.7.2 48.3.5 51.1 5.5m127.8-2c4.7 4.7 4.7 195 0 199.8s-100.2 4.7-104.9 0-4.7-195 0-199.8c4.7-4.7 100.1-4.7 104.9 0M437 361.1c.6 70.6-.3 99.9-2.5 102.4-4.2 5.3-97.4 5.6-102.4.6-4.7-4.7-4.7-195 0-199.8 2.5-2.5 17-3.4 53.8-2.8l50.2.8zm33.2 122.2c1.1 2.8-44.1 3.6-212.6 4.2-117.7.6-214.5 0-215.4-1.4-.6-1.1-.3-3.4.6-4.7 2.8-4.5 426-2.5 427.4 1.9M218.3 128.5c-2.2 5.9.6 12.6 5.3 12.6 5.9 0 10.6-7 8.6-12.3-2.2-5.6-12-5.9-13.9-.3m32.4 0c-3.1 3.6-3.1 5.3.8 8.9 5.9 5.9 13.7 2.5 12.6-5.3s-8.4-9.8-13.4-3.6m31.8-.3c-2.5 6.7 1.1 13.4 6.4 12.3 6.7-1.1 6.7-14.5 0-15.6-2.5-.6-5.6 1.1-6.4 3.3M96.4 276.6c-4.7 5 3.9 6.7 31.8 6.7 25.1 0 30.4-.8 30.4-4.2s-5.3-4.2-30.1-4.2c-16.8 0-31.3.9-32.1 1.7m-11.5 22.3c-5.3 5.3-6.1 31.8-1.1 36.8 2.2 2.2 16.5 3.3 46 3.3 48.3 0 48.3 0 48.3-23.2 0-20.1-3.4-21.5-49.7-21.5-31.7.2-39.8 1-43.5 4.6m84.3 18.5.8 10.6H88.8v-22.6l39.9.8 39.6.8zm-72 39.8c0 3.4 5.3 4.2 30.7 4.2s30.7-.8 30.7-4.2-5.3-4.2-30.7-4.2-30.7.9-30.7 4.2M86.6 377c-5 3.4-6.1 7-6.1 19 0 7.8 1.4 15.9 3.1 17.6 2.2 2.2 2.2 3.6 0 4.7-4.2 2.8-3.9 30.4.3 34.6 4.7 4.7 86.2 4.7 91 0 4.2-4.2 4.5-25.7.6-32.9-2-3.6-2-5.9 0-7 1.4-.8 2.8-8.4 2.8-16.7 0-22-3.3-23.7-48.8-23.7-28.7 0-37.9.8-42.9 4.4m82.6 17.6c.6 5.6-.6 10.3-2.8 11.7-4.2 2.8-66.4 3.4-73.1.8-4.5-1.7-6.4-17.9-2.5-21.8 1.1-.8 19-1.4 39.6-1.1l37.9.8zm-3.9 29.9c2.8 1.1 4.5 5 4.5 11.2 0 12-2.8 12.8-46 11.7l-33.5-.8-.8-7.8c-1.9-15.6-.8-15.9 36.8-15.9 18.9-.1 36.5.7 39 1.6m59.4-147.9c-5.6 5.6.8 6.7 31 6.1 19.3-.6 32.6-2 32.6-3.6 0-3-60.5-5.6-63.6-2.5M211.6 300c-7.5 7.5-7.8 27.9-.6 34.3 4.5 3.9 12 4.7 46.9 4.7 28.7 0 43-1.1 45.2-3.4 2-2 3.4-9.8 3.4-17.6 0-22.6-2.5-23.7-49.7-23.7-36 .2-40.2.7-45.2 5.7m85.9 17.6.8 10.6-41.3-.8c-40.7-.8-41.3-.8-42.1-7.2-2.2-14.2-.8-14.8 41.9-14l39.9.8zm-72.8 37.1c-5.6 5.6.8 6.7 31 6.1 19.3-.6 32.6-2 32.6-3.6 0-3-60.5-5.5-63.6-2.5m-10.3 21.5c-5.6 2.8-7.2 5.9-7.8 15.9-.6 6.7.6 15.1 2.5 18.7 2.8 5 2.8 7.2.3 9.8-4.2 4.2-4.5 22.9-.6 30.4 2.8 5 6.4 5.3 46.9 5.3 30.7 0 45.2-1.1 47.4-3.4 4.2-4.2 4.5-25.7.6-32.9-1.9-3.6-1.9-5.9 0-7 1.4-.8 2.8-8.4 2.8-16.7 0-22-3.4-23.7-48.8-23.7-23.5 0-38.9 1.4-43.3 3.6m83.1 18.4c.6 5.6-.6 10.3-2.8 11.7-5.9 3.9-73.1 3.1-77-.8-3.6-3.6-4.5-16.7-1.4-20.1 1.1-.8 19.5-1.4 41-1.1l39.3.8zm-.8 40.8v11.2l-37.4.8c-39.3.8-44.9-.6-44.9-11.7 0-11.7 4.5-13.1 44.6-12.3l37.7.8zm54.4-156.3c0 3.6 4.5 4.2 31.5 3.6 18.4-.6 31.2-2 31.2-3.6s-12.8-3.1-31.2-3.6c-27.1-.6-31.5 0-31.5 3.6m-11.7 18.4c-3.9 2.2-5 6.4-5 18.7 0 8.9 1.4 17.6 3.4 19.5 4.7 4.7 86.2 4.7 91 0 2-2 3.4-9.8 3.4-17.6 0-22.6-2.5-23.7-49.1-23.7-21.4.1-41.2 1.5-43.7 3.1m83.7 19.9.8 10.6h-81.1v-9.2c0-5.3.8-10.3 2-11.4 1.1-.8 19-1.4 39.6-1.1l37.9.8zM353 354.7c-5.3 5.3.6 6.7 30.4 6.7 24.5 0 32.1-.8 31.2-3.6-1.3-3.6-57.9-6.4-61.6-3.1M340.5 377c-5 3.4-6.1 7-6.1 19 0 7.8 1.4 15.9 3.1 17.6 2.2 2.2 2.2 3.6 0 4.7-4.2 2.8-3.9 30.4.3 34.6 2.2 2.2 16.7 3.4 47.1 3.4 37.4 0 44.1-.6 45.5-4.5 2.5-7 1.9-26-1.1-31.8-2-3.6-2-5.9 0-7 1.4-.8 2.8-8.4 2.8-16.7 0-22-3.4-23.7-48.8-23.7-28.6 0-37.8.8-42.8 4.4m82.6 18.5c1.1 13.1-1.1 14-45.5 12.8l-33.5-.8-.8-7.8c-1.9-15.9-1.4-16.2 40.5-15.3l38.5.8zm-.9 39.9v11.2H344l-.8-7.8c-1.9-15.9-1.4-16.2 40.5-15.3l38.5.8zM381.8 55.9c-2.8 3.1-2.8 5.3-.6 7.5 4.2 4.2 12.3.6 11.2-5.3-1.2-6.3-6.2-7.5-10.6-2.2M56.2 122.1c-14.2 7-14 29.6.6 36.3C73 165.6 90 149.2 83.3 133c-1.7-4.5-6.4-9.2-10-11.2-8.2-3.6-9-3.6-17.1.3m17.3 17.3c0 4.7-1.9 9.2-5 11.2-4.2 2.5-6.1 1.9-10.3-3.3-7.2-8.9-3.1-18.1 7.8-16.7 6.1.4 7.5 2.1 7.5 8.8m366.9-17.1c-3.9 1.9-7.8 7.2-9.5 12.5-5 18.1 14.8 32.1 30.7 21.5 9.8-6.4 9.5-24-.6-31.8-8.6-6.6-11.2-6.9-20.6-2.2m18.4 14.8c2 7.2-2.8 15.1-8.9 15.1-2 0-5.9-3.4-8.7-7.2-4.5-7.2-4.5-7.5 1.4-12.6 7.8-6.2 13.9-4.2 16.2 4.7M58.7 196c.6 2.8 2.8 5 5 5s4.5-2.2 5-5c.6-3.4-.8-4.7-5-4.7s-5.5 1.3-5 4.7m407.6 27.3c-3.9 3.1-4.5 5-2 8.9 4.7 7.8 13.4 6.4 14.5-2.2 1.2-8.9-5-12-12.5-6.7M20.2 270.5c-2.8 7.2 1.1 13.4 7.8 12.3 4.7-.6 6.4-2.8 6.4-7.8s-1.7-7.2-6.4-7.8c-3.6-.6-6.9.8-7.8 3.3m457.3 73.4c-5 1.9-4.5 14.5.8 16.7 6.4 2.5 14.2-6.4 10.6-12.3-3.3-5.3-6.4-6.7-11.4-4.4M21.6 368.7c-4.5 5.6 0 13.7 7.5 13.7 9.8 0 7.8-17.9-2-18.1-1-.1-3.3 1.9-5.5 4.4M.7 490c-2.8 4.7 3.6 10 7.5 6.1 3.3-3.4 1.1-9.2-3.1-9.2-1.3.1-3.3 1.5-4.4 3.1m502.2 0c-2.8 4.7 3.6 10 7.5 6.1 3.4-3.4 1.1-9.2-3.1-9.2-1.4.1-3.3 1.5-4.4 3.1"/></svg>