<svg xmlns="http://www.w3.org/2000/svg" xml:space="preserve" viewBox="0 0 512 512"><path d="m508.5 249.8-21.8-13.5c-.2-2-.3-3.9-.6-5.9l18.7-17.5c1.9-1.7 2.7-4.3 2.2-6.8s-2.2-4.6-4.6-5.4l-24-9c-.5-1.9-1.1-3.8-1.7-5.6l15-20.8c1.5-2.1 1.8-4.8.8-7.1-1-2.4-3.1-4-5.6-4.4l-25.4-4.1-2.7-5.1 10.7-23.4c1.1-2.3.8-5-.6-7.1s-3.8-3.3-6.4-3.3l-25.8.9c-1.2-1.5-2.4-3-3.6-4.4l5.9-25.2c.6-2.5-.2-5.1-2-6.9s-4.4-2.5-6.9-2L405 78.9c-1.5-1.2-2.9-2.4-4.4-3.6l.9-25.8c.1-2.5-1.1-5-3.3-6.4-2.1-1.4-4.8-1.6-7.1-.6l-23.4 10.7-5.1-2.7-4.1-25.4c-.4-2.5-2.1-4.6-4.4-5.6s-5-.7-7.1.8l-20.8 15c-1.9-.6-3.8-1.1-5.6-1.7l-9-24c-.9-2.4-3-4.1-5.4-4.6-2.5-.5-5.1.3-6.8 2.2l-17.5 18.7c-1.9-.2-3.9-.4-5.9-.6L262.2 3.5C260.9 1.3 258.5 0 256 0s-4.9 1.3-6.2 3.5l-13.5 21.8c-2 .2-3.9.3-5.9.6L212.9 7.1c-1.7-1.9-4.3-2.7-6.8-2.2s-4.6 2.2-5.4 4.6l-9 24c-1.9.5-3.8 1.1-5.7 1.7l-20.8-15c-2.1-1.5-4.8-1.8-7.1-.8-2.4 1-4 3.1-4.4 5.6l-4.1 25.4c-1.7.9-3.5 1.8-5.2 2.7L121 42.4c-2.3-1.1-5-.8-7.1.6s-3.4 3.8-3.3 6.4l.9 25.8c-1.5 1.2-3 2.4-4.4 3.6L81.8 73c-2.5-.6-5.1.2-6.9 2s-2.5 4.4-2 6.9l5.9 25.1c-1.2 1.5-2.4 2.9-3.6 4.4l-25.8-.9c-2.6 0-5 1.1-6.4 3.3-1.4 2.1-1.6 4.8-.6 7.1l10.7 23.4c-.9 1.7-1.8 3.4-2.7 5.2L25 153.6c-2.5.4-4.6 2.1-5.6 4.4s-.7 5 .8 7.1l15 20.8c-.6 1.9-1.1 3.8-1.7 5.7l-24 9c-2.4.9-4.1 3-4.6 5.4-.5 2.5.3 5.1 2.2 6.8l18.7 17.5c-.2 1.9-.4 3.9-.6 5.9L3.5 249.8C1.3 251.1 0 253.5 0 256s1.3 4.9 3.5 6.2l21.8 13.5c.2 2 .3 3.9.6 5.9L7.1 299.1c-1.9 1.7-2.7 4.3-2.2 6.8s2.2 4.6 4.6 5.4l24 9c.5 1.9 1.1 3.8 1.7 5.6l-15 20.8c-1.5 2.1-1.8 4.8-.8 7.1s3.1 4 5.6 4.4l25.4 4.1 2.7 5.1-10.7 23.4c-1.1 2.3-.8 5 .6 7.1s3.7 3.4 6.4 3.3l25.8-.9c1.2 1.5 2.4 3 3.6 4.4L73 430.2c-.6 2.5.2 5.1 2 6.9s4.4 2.6 6.9 2l25.2-5.9c1.5 1.2 2.9 2.4 4.4 3.6l-.9 25.8c-.1 2.5 1.1 5 3.3 6.4s4.8 1.6 7.1.6l23.4-10.7 5.1 2.7 4.1 25.4c.4 2.5 2.1 4.6 4.4 5.6 2.4 1 5 .7 7.1-.8l20.8-15c1.9.6 3.8 1.1 5.6 1.7l9 24c.9 2.4 3 4.1 5.4 4.6 2.5.5 5.1-.3 6.8-2.2l17.5-18.7c1.9.2 3.9.4 5.9.6l13.5 21.8c1.3 2.2 3.7 3.5 6.2 3.5s4.9-1.3 6.2-3.5l13.5-21.8c2-.2 3.9-.3 5.9-.6l17.5 18.7c1.7 1.9 4.3 2.7 6.8 2.2s4.6-2.2 5.4-4.6l9-24c1.9-.5 3.8-1.1 5.6-1.7l20.8 15c2.1 1.5 4.8 1.8 7.1.8s4-3.1 4.4-5.6l4.1-25.4 5.1-2.7 23.4 10.7c2.3 1 5 .8 7.1-.6s3.3-3.8 3.3-6.4l-.9-25.8c1.5-1.2 3-2.4 4.4-3.6l25.2 5.9c2.5.6 5.1-.2 6.9-2s2.5-4.4 2-6.9l-5.9-25.2c1.2-1.4 2.4-2.9 3.6-4.4l25.8.9c2.5.1 5-1.1 6.4-3.3 1.4-2.1 1.6-4.8.6-7.1l-10.7-23.4 2.7-5.1 25.4-4.1c2.5-.4 4.6-2.1 5.6-4.4s.7-5-.8-7.1l-15-20.8c.6-1.9 1.1-3.8 1.7-5.6l24-9c2.4-.9 4.1-3 4.6-5.4.5-2.5-.3-5.1-2.2-6.8l-18.7-17.5c.2-1.9.4-3.9.6-5.9l21.8-13.5c2.2-1.3 3.5-3.7 3.5-6.2.4-2.8-.9-5.2-3.1-6.5m-151 129c-7.5-1.6-14.9 3.2-16.5 10.7l-7.6 35.7c-49.7 22.5-106.8 22.3-156.3-.7l-7.6-35.7c-1.6-7.5-9-12.3-16.5-10.7l-31.5 6.8c-5.8-6-11.3-12.4-16.3-19.2h153.2c1.7 0 2.9-.3 2.9-1.9v-54.2c0-1.6-1.2-1.9-2.9-1.9h-44.8v-34.3H262c4.4 0 23.7 1.3 29.8 25.9 1.9 7.5 6.2 32.1 9.1 40 2.9 8.8 14.6 26.5 27.1 26.5h79c-5.3 7.1-11.1 13.8-17.3 20.1zm25.7 34.5c0 8.4-6.8 15.2-15.2 15.2s-15.2-6.8-15.2-15.2 6.8-15.2 15.2-15.2h.4c8.3.2 14.8 7 14.8 15.2m-240.8 14.6c-8.4 0-15.2-6.8-15.2-15.2s6.8-15.2 15.2-15.2h.4c8.2.2 14.8 7 14.8 15.2 0 8.4-6.8 15.2-15.2 15.2M73.5 182.8h.4c8.2.2 14.8 7 14.8 15.2 0 8.4-6.8 15.2-15.2 15.2s-15.2-6.8-15.2-15.2c0-8.3 6.8-15.2 15.2-15.2m-3.9 51.3 32.8-14.6c7-3.1 10.2-11.3 7.1-18.3l-6.8-15.2h26.6v119.7H75.6c-6.6-23.2-8.6-47.5-6-71.6m143.9-11.5v-35.3h63.3c3.3 0 23.1 3.8 23.1 18.6 0 12.3-15.2 16.7-27.7 16.7zM421 271.4v8.8c0 20.8-11.7 25.3-22 26.5-9.8 1.1-20.6-4.1-22-10.1-5.8-32.5-15.4-39.4-30.6-51.4 18.9-12 38.5-29.6 38.5-53.3 0-25.5-17.5-41.6-29.4-49.5-16.8-11-35.3-13.2-40.3-13.2H116.3c27.5-30.7 64.4-51.5 104.9-59.2l23.5 24.6c5.3 5.5 14.1 5.8 19.6.4l26.3-25c54.1 10.1 101.1 43.6 128.4 91.4L401 202c-3.1 7 .1 15.2 7.1 18.4l34.6 15.3c1.1 10.8 1.2 21.7.4 32.5h-19.3c-2 .1-2.8 1.4-2.8 3.2M240 60.2c0-8.4 6.8-15.2 15.2-15.2h.4c8.2.2 14.8 7 14.8 15.2 0 8.4-6.8 15.2-15.2 15.2S240 68.6 240 60.2M436.8 214c-8.4 0-15.2-6.8-15.2-15.2s6.8-15.2 15.2-15.2h.4c8.2.2 14.8 7 14.8 15.2.1 8.4-6.7 15.2-15.2 15.2" style="fill:#fff"/></svg>