<?xml version="1.0" encoding="utf-8"?>
<!-- Generator: Adobe Illustrator 28.2.0, SVG Export Plug-In . SVG Version: 6.00 Build 0)  -->
<svg version="1.1" id="Layer_1" xmlns="http://www.w3.org/2000/svg" xmlns:xlink="http://www.w3.org/1999/xlink" x="0px" y="0px"
	 viewBox="0 0 512 512" style="enable-background:new 0 0 512 512;" xml:space="preserve">
<style type="text/css">
	.st0{fill:#FFFFFF;}
</style>
<path class="st0" d="M439.6,119.5l-42,41.8c-7.4,6.6-11,17.3-6.8,26.3c28,58.6,17.4,128.5-28.6,174.4
	c-46,45.9-115.9,56.5-174.6,28.5c-8.6-3.9-18.8-0.6-25.4,6.1l-42.7,42.7c-9,8.8-9.1,23.2-0.3,32.1c1.3,1.3,2.8,2.5,4.4,3.5
	c100.7,60.9,229.9,45.4,313.3-37.7c83.3-83,99.2-212.1,38.5-312.9c-6.2-10.9-20.1-14.7-31-8.5C442.6,116.9,441,118.1,439.6,119.5
	L439.6,119.5z M76,74.1C-7.8,156.8-24.2,285.9,36.2,386.9c6.2,10.9,20.1,14.7,31,8.5c1.7-1,3.3-2.2,4.7-3.5l41.8-41.6
	c7.6-6.6,11.3-17.4,7.1-26.5c-28-58.6-17.4-128.5,28.6-174.4c46-45.9,115.9-56.5,174.6-28.6c8.5,3.8,18.6,0.7,25.2-5.9l43-42.9
	c9-8.7,9.1-23.1,0.4-32.1c-1.3-1.4-2.8-2.6-4.5-3.6C287.2-24,158.1-8,75.1,75.3L76,74.1z"/>
</svg>
