<svg xmlns="http://www.w3.org/2000/svg" xml:space="preserve" viewBox="0 0 512 512"><circle cx="256" cy="256" r="256"/><path d="M337.3 217.9c20.7-15.6 43.8-26.6 68.3-34.6 3.4-1.1 6.9-1.9 10.6-3-.8 19.1-5.9 36.7-13.3 54.1.6-.3.8-.3.9-.5.4-.4.8-.7 1.1-1.1 18-21 31.2-44.5 36.5-72 1.2-6.2.1-9.4-5.3-12.7-4.7-2.8-9.6-5.5-14.6-7.8-24.1-11.6-49.5-18.8-76.2-21.1-2.6-.2-3.7-1.1-4.6-3.3-10.9-24.5-36.4-35.7-61.5-29.7-21.6 5.2-38.1 24.1-40.8 47-.2 1.6-.8 2.2-2.1 2.9-5.7 3.3-11.5 6.4-17 10.1-27.2 18.5-50.1 41.5-70 67.5-12.7 16.6-23.9 34.1-32.3 53.5-12.7-16.8-26.4-32.5-43.5-45.4-7.8 26.8-11 53.6-11.6 80.8-.4 16.7.4 33.4 2.7 49.9 1.1 8.1 3.1 16.1 4.6 24.2.4 2 1.3 2.6 3.4 2.6 21.4-.1 42.8 0 64.1 0h3c-10.6-6.8-19.6-14.2-27.1-23.3-5.3-6.4-10.3-13-13.7-20.7-.2-.3-.5-.6-.7-1v-.8c.1.2.3.3.4.5.3.2.5.5.8.7 6.3 6 12.5 12.1 19 17.9 9.6 8.5 20 15.7 32.4 19.4 3.6 1.1 7.7 1.6 11.3 1.1 5.8-.9 9.1-5.3 11.3-10.5 2.3-5.4 4.3-10.9 6.5-16.3 10.2-24.1 23.8-46.2 41.6-65.5.4-.4.8-.7 1.8-1.5-.5 1.4-.7 2.1-.9 2.7-7.8 18.5-13 37.6-11.3 58 1.1 13.4 5.9 25.2 14.6 35.6 2.5 2.9 5 3.9 8.7 3.9 25.3-.1 50.7-.1 76-.1h3c-8.9-6-16-12.7-22.2-20.5-8.2-10.3-13.7-21.9-14.7-35.2-1.1-14.1 1.6-27.6 7.3-40.5 11.7-26.7 30.5-47.8 53.5-65.3m-74.6-77c-.5-16.6 13.4-32.1 29.5-32.6 18.2-.6 30.8 13.2 31.7 29.3.9 17.1-11.7 33.5-30.4 33.5-16.8.2-30.3-12.5-30.8-30.2m187.1 238.4h-85.2c-1.5 0-3.3-.5-4.5-1.4-14.2-10.5-26.6-22.9-35.8-38.2-4.3-7.1-4.3-13.6.5-20.4 5.5-7.8 12.2-14.6 19.2-21 13.7-12.7 28.6-23.8 43.8-34.6.2-.1.5-.2.7-.3.1-.1.3-.2.4-.3v.6c-5.4 11.4-8.9 23.3-10.4 35.8-2.5 19.9 4.3 36.2 19.6 49.1 13.7 11.5 29.4 19.6 45.4 27.1 2.2 1 4.3 2.1 6.3 3.6M300.4 155.7c-8.3.1-15.2-7.2-15.3-15.9 0-8.4 7.1-15.4 15.6-15.4s15.1 6.7 15.1 15.2c.1 8.7-7 16-15.4 16.1" style="fill:#fbfbfb"/></svg>