<?xml version="1.0" encoding="utf-8"?>
<!-- Generator: Adobe Illustrator 28.2.0, SVG Export Plug-In . SVG Version: 6.00 Build 0)  -->
<svg version="1.1" id="Layer_1" xmlns="http://www.w3.org/2000/svg" xmlns:xlink="http://www.w3.org/1999/xlink" x="0px" y="0px"
	 viewBox="0 0 512 512" style="enable-background:new 0 0 512 512;" xml:space="preserve">
<style type="text/css">
	.st0{fill:#FFFFFF;}
</style>
<path class="st0" d="M506.6,257.5c5.2-5.5,6.7-13.6,3.7-20.6c-3-7-9.9-11.5-17.5-11.5H429V19c0-10.5-8.5-19-19-19H102.1
	C91.6,0,83,8.5,83,19v206.2H19.2c-7.6,0-14.5,4.5-17.5,11.5c-3,7-1.5,15.1,3.7,20.6l29.3,30.8c0.3-0.1,0.6-0.2,0.9-0.3
	c0.2-0.1,0.3-0.1,0.5-0.2c0.4-0.1,0.8-0.2,1.2-0.3c0.2,0,0.4-0.1,0.6-0.1c0.4-0.1,0.8-0.1,1.2-0.2c0.2,0,0.4-0.1,0.7-0.1
	c0.6-0.1,1.2-0.1,1.9-0.1c-0.6,0-1.3,0-1.9,0.1c-0.2,0-0.4,0.1-0.7,0.1c-0.4,0.1-0.8,0.1-1.2,0.2c-0.2,0-0.4,0.1-0.6,0.1
	c-0.4,0.1-0.8,0.2-1.2,0.3c-0.2,0.1-0.3,0.1-0.5,0.2c-7.6,2.5-13,9.7-13,18v76.6c0,4.5,1.5,8.6,4.1,11.8c-2.6,3.3-4.1,7.4-4.1,11.8
	v26.7c0,10.5,8.5,19,19,19h126.7c4.5,0,8.6-1.5,11.8-4.1c3.2,2.6,7.4,4.1,11.8,4.1c-0.5,0-1,0-1.4-0.1l51.6,54.1
	c3.6,3.8,8.6,5.9,13.8,5.9c5.2,0,10.2-2.2,13.8-5.9l51.7-54.3c-0.1,0-0.2,0-0.4,0c3.6-0.4,6.8-1.8,9.5-4c3.2,2.6,7.4,4.1,11.8,4.1
	h126.7c10.5,0,19-8.5,19-19V306c0-8.5-5.6-15.7-13.2-18.1c-0.1,0-0.3-0.1-0.4-0.1c-0.5-0.1-0.9-0.3-1.4-0.4c-0.1,0-0.3-0.1-0.4-0.1
	c-0.5-0.1-1-0.2-1.5-0.2c-0.1,0-0.2,0-0.2,0c-0.6-0.1-1.2-0.1-1.8-0.1c0.6,0,1.2,0,1.8,0.1c0.1,0,0.2,0,0.2,0c0.5,0.1,1,0.1,1.5,0.2
	c0.1,0,0.3,0.1,0.4,0.1c0.5,0.1,1,0.2,1.4,0.4c0.1,0,0.3,0.1,0.4,0.1c0.7,0.2,1.3,0.5,2,0.7L506.6,257.5z M492.8,244.4L492.8,244.4
	l-82.9,0v0H492.8z M19.2,244.4L19.2,244.4L59.8,287L19.2,244.4z M168.4,332.5H93.2v23.6h75.2v76.8H41.7v-26.7h75.2v-23.6H41.7V306
	h126.7V332.5z M180.2,291.1c0.4-0.3,0.8-0.6,1.2-0.9c0,0,0,0,0.1,0c2.1-1.4,4.5-2.4,7-2.8c0.2,0,0.3-0.1,0.5-0.1c0.1,0,0.2,0,0.2,0
	c0.2,0,0.5-0.1,0.7-0.1c0.1,0,0.3,0,0.4-0.1c0.5,0,1.1-0.1,1.6-0.1c-0.5,0-1.1,0-1.6,0.1c-0.1,0-0.3,0-0.4,0.1c-0.3,0-0.7,0.1-1,0.1
	c-0.2,0-0.3,0.1-0.5,0.1c-2.6,0.5-4.9,1.5-7,2.8c0,0,0,0-0.1,0C181,290.5,180.6,290.8,180.2,291.1z M192.1,432.9v-76.8h75.2v-23.6
	h-75.2V306h126.7v126.9H192.1z M256,492.9L256,492.9L256,492.9L217,452L256,492.9L256,492.9L256,492.9L256,492.9L256,492.9
	l38.9-40.9l0-0.1h0l0,0.1L256,492.9z M318.8,452c0.5,0,1.1,0,1.6-0.1C319.8,452,319.3,452,318.8,452z M322.6,287.4
	c-0.6-0.1-1.2-0.2-1.8-0.3c-0.1,0-0.2,0-0.2,0c-0.2,0-0.5,0-0.7-0.1c-0.4,0-0.7,0-1.1,0c0.4,0,0.7,0,1.1,0c0.2,0,0.5,0,0.7,0.1
	c0.1,0,0.2,0,0.2,0c0.9,0.1,1.8,0.2,2.6,0.4C323.1,287.5,322.9,287.4,322.6,287.4z M338.9,237.2c-1.1,0.2-2.1,0.5-3.1,0.9
	c0,0-0.1,0-0.1,0c-0.4,0.2-0.9,0.4-1.3,0.6c-0.1,0.1-0.2,0.1-0.3,0.2c-0.4,0.2-0.7,0.4-1.1,0.6c-0.2,0.1-0.3,0.2-0.5,0.3
	c-0.3,0.2-0.6,0.4-0.9,0.6c-0.2,0.1-0.4,0.3-0.6,0.4c-0.3,0.2-0.5,0.4-0.7,0.6c-0.3,0.2-0.6,0.5-0.8,0.8c-0.1,0.1-0.3,0.2-0.4,0.4
	c-0.4,0.4-0.8,0.8-1.2,1.3c-0.1,0.1-0.1,0.2-0.2,0.3c-0.3,0.4-0.6,0.7-0.8,1.1c-0.1,0.1-0.2,0.3-0.3,0.4c-0.2,0.4-0.4,0.7-0.7,1.1
	c-0.1,0.2-0.2,0.3-0.3,0.5c-0.2,0.4-0.4,0.7-0.5,1.1c-0.1,0.2-0.2,0.4-0.2,0.6c-0.1,0.4-0.3,0.7-0.4,1.1c-0.1,0.2-0.1,0.4-0.2,0.6
	c-0.1,0.4-0.2,0.8-0.3,1.2c0,0.2-0.1,0.4-0.1,0.6c-0.1,0.4-0.1,0.8-0.2,1.3c0,0.2-0.1,0.4-0.1,0.5c-0.1,0.6-0.1,1.2-0.1,1.8
	c0-0.6,0-1.2,0.1-1.8c0-0.2,0.1-0.4,0.1-0.5c0.1-0.4,0.1-0.8,0.2-1.3c0-0.2,0.1-0.4,0.1-0.6c0.1-0.4,0.2-0.8,0.3-1.2
	c0.1-0.2,0.1-0.4,0.2-0.6c0.1-0.4,0.3-0.7,0.4-1.1c0.1-0.2,0.2-0.4,0.2-0.6c0.2-0.4,0.3-0.7,0.5-1.1c0.1-0.2,0.2-0.3,0.3-0.5
	c0.2-0.4,0.4-0.7,0.7-1.1c0.1-0.1,0.2-0.3,0.3-0.4c0.3-0.4,0.5-0.8,0.8-1.1c0.1-0.1,0.1-0.2,0.2-0.3c0.4-0.4,0.8-0.9,1.2-1.3
	c0.1-0.1,0.3-0.3,0.4-0.4c0.3-0.3,0.5-0.5,0.8-0.8c0.2-0.2,0.5-0.4,0.7-0.6c0.2-0.1,0.4-0.3,0.6-0.4c0.3-0.2,0.6-0.4,0.9-0.6
	c0.2-0.1,0.3-0.2,0.5-0.3c0.4-0.2,0.7-0.4,1.1-0.6c0.1-0.1,0.2-0.1,0.3-0.2c0.4-0.2,0.9-0.4,1.3-0.6c0,0,0.1,0,0.1,0
	C336.8,237.7,337.8,237.4,338.9,237.2l70.7-218.1h0L338.9,237.2c0.7-0.1,1.4-0.2,2.1-0.3c0.5,0,1-0.1,1.4-0.1c-0.5,0-1,0-1.4,0.1
	C340.3,237,339.6,237.1,338.9,237.2z M469.2,433H342.4v-177H394v50.1h75.2V433z M394,332.5h23.7v73.8H394V332.5z M243.6,382.6h23.7
	v23.7h-23.7V382.6z"/>
</svg>
