<svg xmlns="http://www.w3.org/2000/svg" xml:space="preserve" viewBox="0 0 512 512"><path d="m308.4 465.6-38.6 40.5c-3.6 3.8-8.6 5.9-13.8 5.9s-10.2-2.1-13.8-5.9l-38.6-40.5zm116.1-221.1c1.4 3.6 2.1 7.5 2.1 11.5v17.6h42.7c6.2 0 12.1 1.7 17.3 5l20.2-21.2c5.2-5.3 6.7-13.4 3.7-20.4s-9.9-11.5-17.5-11.5h-63.8V19c0-10.5-8.5-19-19-19H102C91.5 0 82.9 8.5 82.9 19v206.3H19.1c-7.6 0-14.5 4.5-17.5 11.5s-1.5 15.1 3.7 20.6l19.8 20.7c4.9-2.9 10.5-4.5 16.5-4.5h126.8c4.1 0 8.1.7 11.8 2.2 3.7-1.4 7.8-2.2 11.8-2.2h118V256c0-17.9 14.6-32.5 32.5-32.5H394c13.8 0 25.7 8.7 30.4 20.9M243.6 382.7h23.7v23.7h-23.7zm150.5 23.8h23.7v-73.8h-23.7zm94-100.4V433c0 10.5-8.5 19-19 19H342.3c-4.4 0-8.5-1.5-11.8-4.1-3.2 2.6-7.3 4.1-11.8 4.1H192c-4.4 0-8.5-1.5-11.8-4.1-3.2 2.6-7.3 4.1-11.8 4.1H41.6c-10.5 0-19-8.5-19-19v-26.7c0-4.5 1.5-8.6 4.1-11.8-2.6-3.2-4.1-7.3-4.1-11.8v-76.6c0-10.5 8.5-19 19-19h126.8c4.4 0 8.5 1.5 11.8 4.1 3.2-2.6 7.3-4.1 11.8-4.1h126.8c1.6 0 3.1.2 4.6.6V256c0-10.5 8.5-19 19-19h51.5c10.5 0 19 8.5 19 19v31.1h56.2c10.7 0 19.2 8.5 19 19m-319.7 0H41.6v76.6h75.2v23.6H41.6V433h126.7v-76.8H93.1v-23.6h75.2v-26.5zm150.4 0H192.1v26.5h75.2v23.6h-75.2V433h126.7zm150.5.1h-75.2v-50.1h-51.6v177.1h126.8z" style="fill:#fff"/></svg>