<svg xmlns="http://www.w3.org/2000/svg" xml:space="preserve" viewBox="0 0 512 512"><path d="M510.3 236.9c-3-7-9.9-11.5-17.5-11.5H429V19c0-10.5-8.5-19-19-19H102.1C91.6 0 83 8.5 83 19v206.2H19.2c-7.6 0-14.5 4.5-17.5 11.5s-1.5 15.1 3.7 20.6l236.8 248.6c3.6 3.8 8.6 5.9 13.8 5.9s10.2-2.1 13.8-5.9l236.8-248.6c5.2-5.3 6.7-13.4 3.7-20.4M256 493 19.2 244.4h82.9V19h307.8v225.3h82.9z"/><path d="M102.4 19.1h307.2L256 492.9l236.8-248.5h-82.9V19H102.1v225.4H19.2l236.7 248.5z" style="fill-rule:evenodd;clip-rule:evenodd;fill:#ffb300"/><path d="M256 493 102.4 19.1h307.1z" style="fill-rule:evenodd;clip-rule:evenodd;fill:#ffca28"/><path d="M469.2 287H413v-31.1c0-10.5-8.5-19-19-19h-51.5c-10.5 0-19 8.5-19 19v31.7c-1.5-.4-3-.6-4.6-.6H192.1c-4.5 0-8.6 1.5-11.8 4.1-3.3-2.6-7.4-4.1-11.8-4.1H41.7c-10.5 0-19 8.5-19 19v76.6c0 4.5 1.5 8.6 4.1 11.8-2.6 3.2-4.1 7.3-4.1 11.8v26.7c0 10.5 8.5 19 19 19h126.7c4.5 0 8.6-1.5 11.8-4.1 3.3 2.6 7.4 4.1 11.8 4.1h126.7c4.5 0 8.6-1.5 11.8-4.1 3.3 2.6 7.4 4.1 11.8 4.1H469c10.5 0 19-8.5 19-19V306c.2-10.5-8.3-19-18.8-19"/><path d="M168.4 432.9H41.7v-26.7h75.2v-23.6H41.7V306h126.7v26.5H93.2v23.6h75.2zm150.4 0H192.1v-76.8h75.2v-23.6h-75.2V306h126.7zm-75.2-26.6h23.7v-23.7h-23.7zm98.8 26.7V256H394v50.1h75.2V433zm51.6-26.7h23.7v-73.8H394z" style="fill-rule:evenodd;clip-rule:evenodd;fill:#fff"/></svg>