<svg xmlns="http://www.w3.org/2000/svg" xml:space="preserve" viewBox="0 0 512 512"><path d="M256 0C114.6 0 0 114.6 0 256s114.6 256 256 256 256-114.6 256-256S397.4 0 256 0m0 491.9C125.7 491.9 20.1 386.3 20.1 256S125.7 20.1 256 20.1 491.9 125.7 491.9 256 386.3 491.9 256 491.9M123.9 79.8c-1.1-1.5-.8-3.7.8-4.8.6-.4 1.2-.6 1.9-.7 1.1 0 2.2.5 2.9 1.4l23.3 32.1c1.1 1.5.8 3.7-.8 4.8-1.5 1.1-3.7.8-4.8-.8zm91.3.3c.4 1.9 2.2 3 4.1 2.7 1.9-.4 3-2.2 2.7-4.1l-8.2-38.8c-.3-1.6-1.8-2.7-3.4-2.7-.2 0-.5 0-.7.1-1.9.4-3 2.2-2.7 4.1zm-95.7 57.7c1.4 1.3 3.6 1.2 4.9-.3 1.3-1.4 1.2-3.6-.3-4.9l-29.5-26.5c-.7-.6-1.6-.9-2.5-.9s-1.7.4-2.4 1.1c-1.3 1.4-1.2 3.6.3 4.9zm60-45.4c.8 1.7 2.8 2.5 4.5 1.7s2.5-2.8 1.7-4.5l-16.1-36.3c-.6-1.3-1.9-2.1-3.2-2-.4 0-.9.1-1.3.3-1.7.8-2.5 2.8-1.7 4.5zM45.6 191.1l37.7 12.3c1.8.6 3.7-.4 4.3-2.2s-.4-3.7-2.2-4.3l-37.7-12.3c-.5-.1-.9-.2-1.4-.2-1.3.1-2.5 1-3 2.4-.5 1.7.5 3.7 2.3 4.3m18-42.2L98 168.7c1.7 1 3.7.4 4.7-1.3s.4-3.7-1.3-4.7L67 142.9c-.6-.4-1.3-.5-2-.5-1.1.1-2.1.7-2.7 1.7-.9 1.7-.4 3.8 1.3 4.8m264.5-54.6c1.7.8 3.8 0 4.5-1.7l16.2-36.2c.8-1.7 0-3.8-1.7-4.5-.4-.2-.9-.3-1.3-.3-1.3 0-2.6.7-3.2 2l-16.2 36.2c-.8 1.7 0 3.7 1.7 4.5m86 74.4 34.4-19.8c1.7-1 2.2-3 1.3-4.7-.6-1-1.6-1.6-2.7-1.7-.7 0-1.3.1-2 .5l-34.4 19.8c-1.7 1-2.2 3-1.3 4.7s3 2.2 4.7 1.2m-53.9-55.9c1.5 1.1 3.7.8 4.8-.8l23.3-32c1.1-1.5.8-3.7-.8-4.8-.6-.4-1.2-.6-1.9-.7-1.1 0-2.2.5-2.9 1.4L359.4 108c-1.1 1.5-.8 3.7.8 4.8M97.9 343.3l-34.4 19.8c-1.7 1-2.2 3-1.3 4.7 1 1.7 3 2.2 4.7 1.3l34.4-19.8c1.7-1 2.2-3 1.3-4.7-.6-1-1.6-1.6-2.7-1.7-.7-.1-1.3 0-2 .4m326.5-142c.6 1.8 2.5 2.8 4.3 2.2l37.7-12.3c1.8-.6 2.8-2.5 2.2-4.3-.4-1.4-1.6-2.3-3-2.4-.4 0-.9 0-1.4.2L426.5 197c-1.7.5-2.7 2.5-2.1 4.3m-387.7 35 39.5 4.2c1.9.2 3.6-1.2 3.8-3.1s-1.2-3.6-3.1-3.8l-39.5-4.2h-.7c-1.6.2-2.9 1.4-3.1 3.1-.2 1.9 1.2 3.6 3.1 3.8m398.5-2.5c-1.9.2-3.3 1.9-3.1 3.8s1.9 3.3 3.8 3.1l39.5-4.1c1.9-.2 3.3-1.9 3.1-3.8-.2-1.7-1.5-2.9-3.1-3.1h-.7zM256 78.9c1.9 0 3.4-1.5 3.4-3.4V35.8c0-1.9-1.5-3.4-3.4-3.4s-3.4 1.5-3.4 3.4v39.7c0 1.9 1.5 3.4 3.4 3.4m36.8 3.9c1.9.4 3.7-.8 4.1-2.7l8.2-38.8c.4-1.9-.8-3.7-2.7-4.1-.2 0-.5-.1-.7-.1-1.6 0-3 1.1-3.4 2.7l-8.2 38.8c-.4 2 .8 3.8 2.7 4.2m4 349.1c-.3-1.6-1.8-2.7-3.4-2.7-.2 0-.5 0-.7.1-1.9.4-3 2.2-2.7 4.1l8.2 38.8c.4 1.9 2.2 3 4.1 2.7 1.9-.4 3-2.2 2.7-4.1zm35.7-12.3c-.6-1.3-1.9-2.1-3.2-2-.4 0-.9.1-1.3.3-1.7.8-2.5 2.8-1.7 4.5l16.1 36.3c.8 1.7 2.8 2.5 4.5 1.7s2.5-2.8 1.7-4.5zm60-45.4c-.7-.6-1.6-.9-2.5-.9s-1.7.4-2.4 1.1c-1.3 1.4-1.2 3.6.3 4.9l29.5 26.5c1.4 1.3 3.6 1.2 4.9-.3 1.3-1.4 1.2-3.6-.3-4.9zm-27.7 25.9c-.7-1-1.8-1.5-2.9-1.4-.7 0-1.3.2-1.9.7-1.5 1.1-1.9 3.3-.8 4.8l23.3 32.1c1.1 1.5 3.3 1.9 4.8.8s1.9-3.3.8-4.8zM466.4 321l-37.7-12.3c-.5-.1-.9-.2-1.4-.2-1.3.1-2.5 1-3 2.4-.6 1.8.4 3.7 2.2 4.3l37.7 12.3c1.8.6 3.7-.4 4.3-2.2.7-1.8-.3-3.8-2.1-4.3m8.9-45.3-39.5-4.2h-.7c-1.6.2-2.9 1.4-3.1 3.1-.2 1.9 1.2 3.6 3.1 3.8l39.5 4.2c1.9.2 3.6-1.2 3.8-3.1s-1.2-3.6-3.1-3.8m-26.9 87.4L414 343.3c-.6-.4-1.3-.5-2-.5-1.1.1-2.1.7-2.7 1.7-1 1.7-.4 3.7 1.3 4.7L445 369c1.7 1 3.7.4 4.7-1.3s.4-3.6-1.3-4.6m-192.4 70c-1.9 0-3.4 1.5-3.4 3.4v39.7c0 1.9 1.5 3.4 3.4 3.4s3.4-1.5 3.4-3.4v-39.7c0-1.9-1.5-3.4-3.4-3.4m-104.2-33.9c-.6-.4-1.2-.6-1.9-.7-1.1 0-2.2.5-2.9 1.4L123.7 432c-1.1 1.5-.8 3.7.8 4.8 1.5 1.1 3.7.8 4.8-.8l23.3-32.1c1.1-1.4.8-3.6-.8-4.7m-64.2-88.5c-.4-1.4-1.6-2.3-3-2.4-.4 0-.9 0-1.4.2l-37.7 12.3c-1.8.6-2.8 2.5-2.2 4.3s2.5 2.8 4.3 2.2L85.3 315c1.9-.5 2.9-2.4 2.3-4.3m-7.7-36.3c-.2-1.7-1.5-2.9-3.1-3.1h-.7l-39.5 4.1c-1.9.2-3.3 1.9-3.1 3.8s1.9 3.3 3.8 3.1l39.5-4.1c1.9-.2 3.3-1.9 3.1-3.8m104 143.3c-.4-.2-.9-.3-1.3-.3-1.3 0-2.6.7-3.2 2l-16.2 36.2c-.8 1.7 0 3.8 1.7 4.5 1.7.8 3.8 0 4.5-1.7l16.2-36.2c.8-1.7 0-3.7-1.7-4.5m35.3 11.5c-.2 0-.5-.1-.7-.1-1.6 0-3 1.1-3.4 2.7l-8.2 38.8c-.4 1.9.8 3.7 2.7 4.1s3.7-.8 4.1-2.7l8.2-38.8c.4-1.8-.8-3.6-2.7-4M420.4 99 283 284.2l-54-56.4zM91.6 413 283 284.2l-54-56.4zm177-130.1-135.8 91.4 97.5-131.4z" style="fill:#fff"/></svg>