<svg xmlns="http://www.w3.org/2000/svg" xml:space="preserve" viewBox="0 0 512 512"><linearGradient id="safari_svg__a" x1="577.27" x2="577.27" y1="-60.013" y2="453.789" gradientTransform="matrix(.9965 0 0 -.9965 -319.245 452.197)" gradientUnits="userSpaceOnUse"><stop offset="0" style="stop-color:#bdbdbd"/><stop offset="1" style="stop-color:#fff"/></linearGradient><path d="M512 256c0 141.4-114.6 256-256 256S0 397.4 0 256 114.6 0 256 0s256 114.6 256 256" style="fill:url(#safari_svg__a)"/><radialGradient id="safari_svg__b" cx="531.756" cy="252.498" r="236.769" gradientTransform="matrix(1.0812 0 0 -1.0812 -317.881 494.602)" gradientUnits="userSpaceOnUse"><stop offset="0" style="stop-color:#06c2e7"/><stop offset=".25" style="stop-color:#0db8ec"/><stop offset=".5" style="stop-color:#12aef1"/><stop offset=".75" style="stop-color:#1f86f9"/><stop offset="1" style="stop-color:#107ddd"/></radialGradient><path d="M491.9 256c0 130.3-105.6 235.9-235.9 235.9S20.1 386.3 20.1 256 125.7 20.1 256 20.1 491.9 125.7 491.9 256" style="fill:url(#safari_svg__b)"/><path d="M256 32.4c-1.9 0-3.4 1.5-3.4 3.4v39.7c0 1.9 1.5 3.4 3.4 3.4s3.4-1.5 3.4-3.4V35.8c0-1.9-1.5-3.4-3.4-3.4m-22.5 1.4h-.7c-1.9.2-3.3 1.9-3.1 3.8l1.7 16.6c.2 1.9 1.9 3.3 3.8 3.1s3.3-1.9 3.1-3.8l-1.7-16.6c-.2-1.7-1.5-3-3.1-3.1m45.2 0c-1.6.2-2.9 1.4-3.1 3.1l-1.7 16.6c-.2 1.9 1.2 3.6 3.1 3.8s3.6-1.2 3.8-3.1l1.7-16.6c.2-1.9-1.2-3.6-3.1-3.8zm-68.3 3.3c-.2 0-.5 0-.7.1-1.9.4-3 2.2-2.7 4.1l8.2 38.8c.4 1.9 2.2 3 4.1 2.7 1.9-.4 3-2.2 2.7-4.1l-8.2-38.8c-.4-1.7-1.8-2.8-3.4-2.8m91.4.1c-1.6 0-3 1.1-3.4 2.7l-8.2 38.8c-.4 1.9.8 3.7 2.7 4.1s3.7-.8 4.1-2.7l8.2-38.8c.4-1.9-.8-3.7-2.7-4.1zm-113.5 6.2c-.4 0-.9 0-1.4.2-1.8.6-2.8 2.5-2.2 4.3l5.2 15.9c.6 1.8 2.5 2.8 4.3 2.2s2.8-2.5 2.2-4.3l-5.2-15.9c-.3-1.4-1.5-2.3-2.9-2.4m135.4 0c-1.3.1-2.5 1-3 2.4l-5.2 15.9c-.6 1.8.4 3.7 2.2 4.3s3.7-.4 4.3-2.2l5.2-15.9c.6-1.8-.4-3.7-2.2-4.3-.4-.2-.8-.3-1.3-.2m-157.2 7.9c-.4 0-.9.1-1.3.3-1.7.8-2.5 2.8-1.7 4.5l16.1 36.3c.8 1.7 2.8 2.5 4.5 1.7s2.5-2.8 1.7-4.5l-16.1-36.3c-.6-1.2-1.9-2-3.2-2m179.3.2c-1.3 0-2.6.7-3.2 2l-16.2 36.2c-.8 1.7 0 3.8 1.7 4.5 1.7.8 3.8 0 4.5-1.7l16.2-36.2c.8-1.7 0-3.8-1.7-4.5-.4-.2-.9-.3-1.3-.3M146.3 62.1c-.7 0-1.3.1-2 .5-1.7 1-2.2 3-1.3 4.7l8.3 14.5c1 1.7 3 2.2 4.7 1.3 1.7-1 2.2-3 1.3-4.7L149 63.8c-.6-1.1-1.6-1.7-2.7-1.7m219.4 0c-1.1.1-2.1.7-2.7 1.7l-8.3 14.5c-1 1.7-.4 3.7 1.3 4.7s3.7.4 4.7-1.3l8.3-14.5c1-1.7.4-3.7-1.3-4.7-.6-.3-1.3-.5-2-.4M126.6 74.3c-.7 0-1.3.2-1.9.7-1.5 1.1-1.9 3.3-.8 4.8l23.3 32.1c1.1 1.5 3.3 1.9 4.8.8s1.9-3.3.8-4.8l-23.3-32.1c-.7-1-1.8-1.5-2.9-1.5m259.1.2c-1.1 0-2.2.5-2.9 1.4L359.4 108c-1.1 1.5-.8 3.7.8 4.8 1.5 1.1 3.7.8 4.8-.8l23.3-32c1.1-1.5.8-3.7-.8-4.8-.5-.5-1.2-.7-1.8-.7M109 89.1c-.9 0-1.8.2-2.5.9-1.4 1.3-1.5 3.4-.3 4.9l11.2 12.4c1.3 1.4 3.4 1.5 4.9.3 1.4-1.3 1.5-3.4.3-4.9l-11.2-12.4q-1.05-1.2-2.4-1.2m294 0c-.9 0-1.7.4-2.4 1.1l-11.2 12.4c-1.3 1.4-1.2 3.6.3 4.9 1.4 1.3 3.6 1.2 4.9-.3l11.2-12.4c1.3-1.4 1.2-3.6-.3-4.9-.7-.6-1.6-.9-2.5-.8M92.2 105.2c-.9 0-1.7.4-2.4 1.1-1.3 1.4-1.2 3.6.3 4.9l29.5 26.5c1.4 1.3 3.6 1.2 4.9-.3 1.3-1.4 1.2-3.6-.3-4.9L94.7 106c-.8-.5-1.7-.8-2.5-.8m327.7.2c-.9 0-1.8.2-2.5.9L388 132.8c-1.4 1.3-1.5 3.4-.3 4.9 1.3 1.4 3.4 1.5 4.9.3l29.5-26.5c1.4-1.3 1.5-3.4.3-4.9-.7-.8-1.6-1.2-2.5-1.2M78.2 123.3c-1.1 0-2.2.5-2.9 1.4-1.1 1.5-.8 3.7.8 4.8l13.5 9.8c1.5 1.1 3.7.8 4.8-.8 1.1-1.5.8-3.7-.8-4.8l-13.5-9.8c-.6-.4-1.3-.6-1.9-.6m355.7.1c-.7 0-1.3.2-1.9.7l-13.5 9.8c-1.5 1.1-1.9 3.3-.8 4.8s3.3 1.9 4.8.8l13.5-9.8c1.5-1.1 1.9-3.3.8-4.8-.7-1.1-1.8-1.6-2.9-1.5M65.1 142.5c-1.1.1-2.1.7-2.7 1.7-1 1.7-.4 3.7 1.3 4.7l34.4 19.8c1.7 1 3.7.4 4.7-1.3s.4-3.7-1.3-4.7L67 142.9c-.6-.3-1.3-.5-1.9-.4m381.8 0c-.7 0-1.3.1-2 .5l-34.4 19.8c-1.7 1-2.2 3-1.3 4.7 1 1.7 3 2.2 4.7 1.3l34.4-19.8c1.7-1 2.2-3 1.3-4.7-.5-1.1-1.6-1.8-2.7-1.8M55.2 163c-1.3 0-2.6.7-3.2 2-.8 1.7 0 3.8 1.7 4.5l15.2 6.8c1.7.8 3.8 0 4.5-1.7.8-1.7 0-3.8-1.7-4.5l-15.2-6.8c-.4-.2-.9-.3-1.3-.3m401.7.1c-.4 0-.9.1-1.3.3l-15.2 6.8c-1.7.8-2.5 2.8-1.7 4.5s2.8 2.5 4.5 1.7l15.2-6.8c1.7-.8 2.5-2.8 1.7-4.5-.6-1.3-1.9-2-3.2-2M46.3 184.4c-1.3.1-2.5 1-3 2.4-.6 1.8.4 3.7 2.2 4.3l37.7 12.3c1.8.6 3.7-.4 4.3-2.2s-.4-3.7-2.2-4.3l-37.7-12.3c-.3-.2-.8-.3-1.3-.2m419.4.1c-.4 0-.9 0-1.4.2L426.6 197c-1.8.6-2.8 2.5-2.2 4.3s2.5 2.8 4.3 2.2l37.7-12.3c1.8-.6 2.8-2.5 2.2-4.3-.4-1.4-1.6-2.3-2.9-2.4M40.8 206.8c-1.6 0-3 1.1-3.4 2.7-.4 1.9.8 3.7 2.7 4.1l16.3 3.5c1.9.4 3.7-.8 4.1-2.7s-.8-3.7-2.7-4.1l-16.3-3.5c-.2.1-.4 0-.7 0m430.4.1c-.2 0-.5 0-.7.1l-16.3 3.5c-1.9.4-3 2.2-2.6 4.1s2.2 3 4.1 2.7l16.3-3.5c1.9-.4 3-2.2 2.7-4.1-.5-1.7-1.9-2.9-3.5-2.8M36.7 229.4c-1.6.2-2.9 1.4-3.1 3.1-.2 1.9 1.2 3.6 3.1 3.8l39.5 4.2c1.9.2 3.6-1.2 3.8-3.1s-1.2-3.6-3.1-3.8l-39.5-4.2zm438.6.3h-.7l-39.5 4.1c-1.9.2-3.3 1.9-3.1 3.8s1.9 3.3 3.8 3.1l39.5-4.1c1.9-.2 3.3-1.9 3.1-3.8-.1-1.7-1.5-2.9-3.1-3.1M36 252.6c-1.9 0-3.4 1.5-3.4 3.4s1.5 3.4 3.4 3.4h16.7c1.9 0 3.4-1.5 3.4-3.4s-1.5-3.4-3.4-3.4zm423.3 0c-1.9 0-3.4 1.5-3.4 3.4s1.5 3.4 3.4 3.4H476c1.9 0 3.4-1.5 3.4-3.4s-1.5-3.4-3.4-3.4zM76.8 271.3h-.7l-39.5 4.1c-1.9.2-3.3 1.9-3.1 3.8s1.9 3.3 3.8 3.1l39.5-4.1c1.9-.2 3.3-1.9 3.1-3.8-.2-1.7-1.5-2.9-3.1-3.1m358.4.3c-1.6.2-2.9 1.4-3.1 3.1-.2 1.9 1.2 3.6 3.1 3.8l39.5 4.2c1.9.2 3.6-1.2 3.8-3.1s-1.2-3.6-3.1-3.8l-39.5-4.2c-.3-.1-.5-.1-.7 0M57.1 294.8c-.2 0-.5 0-.7.1l-16.3 3.5c-1.9.4-3 2.2-2.7 4.1.4 1.9 2.2 3 4.1 2.7l16.3-3.5c1.9-.4 3-2.2 2.6-4.1-.2-1.7-1.7-2.8-3.3-2.8m397.8 0c-1.6 0-3 1.1-3.4 2.7-.4 1.9.8 3.7 2.6 4.1l16.3 3.5c1.9.4 3.7-.8 4.1-2.6.4-1.9-.8-3.7-2.6-4.1l-16.3-3.5c-.3 0-.5-.1-.7-.1M84.6 308.4c-.4 0-.9 0-1.4.2l-37.7 12.3c-1.8.6-2.8 2.5-2.2 4.3s2.5 2.8 4.3 2.2l37.7-12.3c1.8-.6 2.8-2.5 2.2-4.3-.3-1.4-1.5-2.3-2.9-2.4m342.7.1c-1.3.1-2.5 1-3 2.4-.6 1.8.4 3.7 2.2 4.3l37.7 12.3c1.8.6 3.7-.4 4.3-2.2s-.4-3.7-2.2-4.3l-37.7-12.3c-.3-.2-.8-.2-1.3-.2M70.2 335.2c-.4 0-.9.1-1.3.3l-15.2 6.8c-1.7.8-2.5 2.8-1.7 4.5s2.8 2.5 4.5 1.7l15.2-6.8c1.7-.8 2.5-2.8 1.7-4.5-.6-1.2-1.8-2-3.2-2m371.5.2c-1.3 0-2.6.7-3.2 2-.8 1.7 0 3.8 1.7 4.5l15.2 6.8c1.7.8 3.8 0 4.5-1.7.8-1.7 0-3.8-1.7-4.5l-15.2-6.8c-.4-.2-.8-.3-1.3-.3m-341.8 7.4c-.7 0-1.3.1-2 .5l-34.4 19.8c-1.7 1-2.2 3-1.3 4.7 1 1.7 3 2.2 4.7 1.3l34.4-19.8c1.7-1 2.2-3 1.3-4.7-.6-1.1-1.6-1.7-2.7-1.8m312.2 0c-1.1.1-2.1.7-2.7 1.7-1 1.7-.4 3.7 1.3 4.7l34.4 19.8c1.7 1 3.7.4 4.7-1.3s.4-3.7-1.3-4.7l-34.4-19.8c-.7-.3-1.3-.4-2-.4M91.3 371.9c-.7 0-1.3.2-1.9.7l-13.5 9.8c-1.5 1.1-1.9 3.3-.8 4.8s3.3 1.9 4.8.8l13.5-9.8c1.5-1.1 1.9-3.3.8-4.8-.7-1-1.8-1.5-2.9-1.5m329.3.2c-1.1 0-2.2.5-2.9 1.4-1.1 1.5-.8 3.7.8 4.8l13.5 9.8c1.5 1.1 3.7.8 4.8-.8 1.1-1.5.8-3.7-.8-4.8l-13.5-9.8c-.6-.4-1.3-.6-1.9-.6m-298.7 1.2c-.9 0-1.8.2-2.5.9l-29.5 26.5c-1.4 1.3-1.5 3.4-.3 4.9 1.3 1.4 3.4 1.5 4.9.3l29.5-26.5c1.4-1.3 1.5-3.4.3-4.9-.6-.8-1.5-1.2-2.4-1.2m268.1 0c-.9 0-1.7.4-2.4 1.1-1.3 1.4-1.2 3.6.3 4.9l29.5 26.5c1.4 1.3 3.6 1.2 4.9-.3 1.3-1.4 1.2-3.6-.3-4.9l-29.5-26.5c-.7-.5-1.6-.8-2.5-.8m-240.1 25.2c-1.1 0-2.2.5-2.9 1.4L123.7 432c-1.1 1.5-.8 3.7.8 4.8 1.5 1.1 3.7.8 4.8-.8l23.3-32.1c1.1-1.5.8-3.7-.8-4.8-.5-.3-1.2-.5-1.9-.6m212 .2c-.7 0-1.3.2-1.9.7-1.5 1.1-1.9 3.3-.8 4.8l23.3 32.1c1.1 1.5 3.3 1.9 4.8.8s1.9-3.3.8-4.8l-23.3-32.1c-.7-1.1-1.8-1.5-2.9-1.5m-242.1 4.9c-.9 0-1.7.4-2.4 1.1l-11.2 12.4c-1.3 1.4-1.2 3.6.3 4.9 1.4 1.3 3.6 1.2 4.9-.3l11.2-12.4c1.3-1.4 1.2-3.6-.3-4.9-.7-.5-1.6-.8-2.5-.8m272.4.1c-.9 0-1.8.2-2.5.9-1.4 1.3-1.5 3.4-.3 4.9l11.2 12.4c1.3 1.4 3.4 1.5 4.9.3 1.4-1.3 1.5-3.4.3-4.9l-11.2-12.4q-1.05-1.2-2.4-1.2m-209.7 13.7c-1.3 0-2.6.7-3.2 2l-16.2 36.2c-.8 1.7 0 3.8 1.7 4.5 1.7.8 3.8 0 4.5-1.7l16.2-36.2c.8-1.7 0-3.8-1.7-4.5-.4-.2-.8-.3-1.3-.3m146.8.1c-.4 0-.9.1-1.3.3-1.7.8-2.5 2.8-1.7 4.5l16.1 36.3c.8 1.7 2.8 2.5 4.5 1.7s2.5-2.8 1.7-4.5l-16.1-36.3c-.6-1.2-1.9-2-3.2-2m-175.2 11.1c-1.1.1-2.1.7-2.7 1.7l-8.3 14.5c-1 1.7-.4 3.7 1.3 4.7s3.7.4 4.7-1.3l8.3-14.5c1-1.7.4-3.7-1.3-4.7-.6-.3-1.3-.4-2-.4m203.8 0c-.7 0-1.3.1-2 .5-1.7 1-2.2 3-1.3 4.7l8.3 14.5c1 1.7 3 2.2 4.7 1.3 1.7-1 2.2-3 1.3-4.7l-8.3-14.5c-.6-1.1-1.6-1.7-2.7-1.8m-139.4.5c-1.6 0-3 1.1-3.4 2.7l-8.2 38.8c-.4 1.9.8 3.7 2.7 4.1s3.7-.8 4.1-2.7l8.2-38.8c.4-1.9-.8-3.7-2.7-4.1-.2.1-.5 0-.7 0m74.9.1c-.2 0-.5 0-.7.1-1.9.4-3 2.2-2.7 4.1l8.2 38.8c.4 1.9 2.2 3 4.1 2.7 1.9-.4 3-2.2 2.7-4.1l-8.2-38.8c-.4-1.7-1.8-2.8-3.4-2.8m-37.4 3.9c-1.9 0-3.4 1.5-3.4 3.4v39.7c0 1.9 1.5 3.4 3.4 3.4s3.4-1.5 3.4-3.4v-39.7c0-1.9-1.5-3.4-3.4-3.4m-63.1 12.8c-1.3.1-2.5 1-3 2.4l-5.2 15.9c-.6 1.8.4 3.7 2.2 4.3s3.7-.4 4.3-2.2l5.2-15.9c.6-1.8-.4-3.7-2.2-4.3-.4-.2-.9-.2-1.3-.2m126.2 0c-.4 0-.9 0-1.4.2-1.8.6-2.8 2.5-2.2 4.3l5.2 15.9c.6 1.8 2.5 2.8 4.3 2.2s2.8-2.5 2.2-4.3l-5.2-15.9c-.3-1.4-1.5-2.3-2.9-2.4m-84.7 8.9c-1.6.2-2.9 1.4-3.1 3.1l-1.7 16.6c-.2 1.9 1.2 3.6 3.1 3.8s3.6-1.2 3.8-3.1l1.7-16.6c.2-1.9-1.2-3.6-3.1-3.8-.2-.1-.5-.1-.7 0m43.1 0h-.7c-1.9.2-3.3 1.9-3.1 3.8l1.7 16.6c.2 1.9 1.9 3.3 3.8 3.1s3.3-1.9 3.1-3.8l-1.7-16.6c-.2-1.7-1.6-3-3.1-3.1" style="fill:#f4f2f3"/><path d="m283 284.2-54-56.4L420.4 99z" style="fill:#ff5150"/><path d="m283 284.2-54-56.4L91.6 413z" style="fill:#f1f1f1"/><path d="M91.6 413 283 284.2 420.4 99z" style="opacity:.243"/></svg>