<svg xmlns="http://www.w3.org/2000/svg" xml:space="preserve" viewBox="0 0 512 512"><linearGradient id="safeline_svg__a" x1="-946.271" x2="-946.271" y1="589.403" y2="587.822" gradientTransform="matrix(297.179 0 0 -324 281468.031 190966.5)" gradientUnits="userSpaceOnUse"><stop offset="0" style="stop-color:#4b4b4b"/><stop offset="1" style="stop-color:#000"/></linearGradient><path d="M483.3 93.3c-2.3-11.2-11.7-19.5-23.1-20C372.3 71 300 26.2 270.9 4.9c-8.8-6.5-20.5-6.5-29.4 0-30 21.3-101.5 66-189.4 68.4-11.2.5-21.1 8.8-23.1 20C15 163.5-9.2 401.5 256.6 512 521.5 401.2 496.8 163.5 483.3 93.3" style="fill:url(#safeline_svg__a)"/><linearGradient id="safeline_svg__b" x1="-944.814" x2="-944.814" y1="588.32" y2="586.74" gradientTransform="matrix(204.8 0 0 -183.7899 193754.594 108250.04)" gradientUnits="userSpaceOnUse"><stop offset="0" style="stop-color:#24bc43;stop-opacity:.8"/><stop offset="1" style="stop-color:#3acbab;stop-opacity:.7"/></linearGradient><path d="M256.6 413.1c89.4 0 161.8-72.4 161.8-161.8 0-43.8-17.4-83.6-45.7-112.7-19.9 13.3-57.9 29-74.1 20.8-14.6-7.4-28.6-19.6-42-36.7-11 17.3-22.6 28.4-35 33.3-9.7 3.9-45.2 6.7-81.2-17.2-28.2 29.1-45.6 68.8-45.6 112.6 0 89.2 72.5 161.7 161.8 161.7" style="fill-rule:evenodd;clip-rule:evenodd;fill:url(#safeline_svg__b)"/><path d="m257.5 361.9 89.6-50.9-80-47-28.7 15.2 54.4 31.8-35.3 19.9-63.5-36.1V283l-27.8-16.7V311zm-1.7-200.6-89.6 50.9 80 47L275 244l-54.5-31.8 35.3-19.9 63.6 36.1v11.9l27.7 16.6v-44.7z" style="fill-rule:evenodd;clip-rule:evenodd;fill:#fff"/><path d="M309.2 149.9s-40.8-4.8-51-31.3h34.9s23.2 1.3 36.5-35.2c0 .1-13.5 21-41.4 16.5 0 0-27.5-4.3-31.6-28.5-4.1 24.2-31.6 28.5-31.6 28.5-27.8 4.5-41.3-16.4-41.3-16.4 13.3 36.4 36.5 35.1 36.5 35.1h35c-10.3 26.5-51 31.3-51 31.3-46.4 5.7-68.8-20.9-68.8-20.9 22 46.4 60.7 44.7 60.7 44.7h121.4s38.6 1.6 60.7-44.7c-.2.1-22.6 26.7-69 20.9" style="fill:#27b876"/></svg>