<?xml version="1.0" encoding="utf-8"?>
<!-- Generator: Adobe Illustrator 28.2.0, SVG Export Plug-In . SVG Version: 6.00 Build 0)  -->
<svg version="1.1" id="Layer_1" xmlns="http://www.w3.org/2000/svg" xmlns:xlink="http://www.w3.org/1999/xlink" x="0px" y="0px"
	 viewBox="0 0 512 512" style="enable-background:new 0 0 512 512;" xml:space="preserve">
<style type="text/css">
	.st0{fill-rule:evenodd;clip-rule:evenodd;}
</style>
<path d="M483.3,93.3c-2.3-11.2-11.7-19.5-23.1-20C372.3,71,300,26.2,270.9,4.9c-8.8-6.5-20.5-6.5-29.4,0
	c-30,21.3-101.5,66-189.4,68.4C40.9,73.8,31,82.1,29,93.3C15,163.5-9.2,401.5,256.6,512C521.5,401.2,496.8,163.5,483.3,93.3z
	 M256.6,413.1c-89.3,0-161.8-72.5-161.8-161.7c0-43.8,17.4-83.5,45.6-112.6c0.2,0.1,0.3,0.2,0.5,0.3c-1.9-3.1-3.7-6.4-5.5-10.1
	c0,0,22.4,26.6,68.8,20.9c0,0,40.8-4.8,51-31.3h-35c0,0-23.2,1.3-36.5-35.1c0,0,13.5,20.9,41.3,16.4c0,0,27.5-4.3,31.6-28.5
	c4.1,24.2,31.6,28.5,31.6,28.5c27.9,4.5,41.4-16.4,41.4-16.5c-13.3,36.5-36.5,35.2-36.5,35.2h-34.9c10.3,26.5,51,31.3,51,31.3
	c46.4,5.8,68.8-20.8,69-20.9c-1.7,3.5-3.5,6.8-5.3,9.8c28.2,29.1,45.5,68.8,45.5,112.5C418.4,340.7,346,413.1,256.6,413.1z"/>
<polygon id="path1" class="st0" points="257.5,361.9 347.1,311 267.1,264 238.4,279.2 292.8,311 257.5,330.9 
	194,294.8 194,283 166.2,266.3 166.2,311 "/>
<polygon id="path2" class="st0" points="255.8,161.3 166.2,212.2 246.2,259.2 275,244 220.5,212.2 255.8,192.3 
	319.4,228.4 319.4,240.3 347.1,256.9 347.1,212.2 "/>
</svg>
