<?xml version="1.0" encoding="utf-8"?>
<!-- Generator: Adobe Illustrator 28.2.0, SVG Export Plug-In . SVG Version: 6.00 Build 0)  -->
<svg version="1.1" id="Layer_1" xmlns="http://www.w3.org/2000/svg" xmlns:xlink="http://www.w3.org/1999/xlink" x="0px" y="0px"
	 viewBox="0 0 512 512" style="enable-background:new 0 0 512 512;" xml:space="preserve">
<style type="text/css">
	.st0{fill:url(#path6_00000119110151364873067910000008624305619317431722_);}
	.st1{fill-rule:evenodd;clip-rule:evenodd;fill:url(#path5_00000088119314614932222980000008640692578482584231_);}
	.st2{fill-rule:evenodd;clip-rule:evenodd;fill:#FFFFFF;}
	.st3{fill:#27B876;}
</style>
<linearGradient id="path6_00000081623165273236113510000017510115308290838414_" gradientUnits="userSpaceOnUse" x1="-946.2715" y1="589.4027" x2="-946.2715" y2="587.8225" gradientTransform="matrix(297.179 0 0 -324 281468.0312 190966.5)">
	<stop  offset="0" style="stop-color:#4B4B4B"/>
	<stop  offset="1" style="stop-color:#000000"/>
</linearGradient>
<path id="path6" style="fill:url(#path6_00000081623165273236113510000017510115308290838414_);" d="M483.3,93.3
	c-2.3-11.2-11.7-19.5-23.1-20C372.3,71,300,26.2,270.9,4.9c-8.8-6.5-20.5-6.5-29.4,0c-30,21.3-101.5,66-189.4,68.4
	C40.9,73.8,31,82.1,29,93.3C15,163.5-9.2,401.5,256.6,512C521.5,401.2,496.8,163.5,483.3,93.3z"/>
<linearGradient id="path5_00000023282584543927133910000009748458370861641895_" gradientUnits="userSpaceOnUse" x1="-944.8145" y1="588.3203" x2="-944.8145" y2="586.7403" gradientTransform="matrix(204.8 0 0 -183.7899 193754.5938 108250.0391)">
	<stop  offset="0" style="stop-color:#24BC43;stop-opacity:0.8"/>
	<stop  offset="1" style="stop-color:#3ACBAB;stop-opacity:0.7"/>
</linearGradient>
<path id="path5" style="fill-rule:evenodd;clip-rule:evenodd;fill:url(#path5_00000023282584543927133910000009748458370861641895_);" d="
	M256.6,413.1c89.4,0,161.8-72.4,161.8-161.8c0-43.8-17.4-83.6-45.7-112.7c-19.9,13.3-57.9,29-74.1,20.8c-14.6-7.4-28.6-19.6-42-36.7
	c-11,17.3-22.6,28.4-35,33.3c-9.7,3.9-45.2,6.7-81.2-17.2c-28.2,29.1-45.6,68.8-45.6,112.6C94.8,340.6,167.3,413.1,256.6,413.1z"/>
<path class="st2" d="M257.5,361.9l89.6-50.9l-80-47l-28.7,15.2l54.4,31.8l-35.3,19.9L194,294.8V283l-27.8-16.7V311L257.5,361.9z
	 M255.8,161.3l-89.6,50.9l80,47L275,244l-54.5-31.8l35.3-19.9l63.6,36.1v11.9l27.7,16.6v-44.7L255.8,161.3z"/>
<path class="st3" d="M309.2,149.9c0,0-40.8-4.8-51-31.3h34.9c0,0,23.2,1.3,36.5-35.2c0,0.1-13.5,21-41.4,16.5
	c0,0-27.5-4.3-31.6-28.5C252.5,95.6,225,99.9,225,99.9c-27.8,4.5-41.3-16.4-41.3-16.4c13.3,36.4,36.5,35.1,36.5,35.1h35
	c-10.3,26.5-51,31.3-51,31.3c-46.4,5.7-68.8-20.9-68.8-20.9c22,46.4,60.7,44.7,60.7,44.7h121.4c0,0,38.6,1.6,60.7-44.7
	C378,129.1,355.6,155.7,309.2,149.9z"/>
</svg>
