<?xml version="1.0" encoding="utf-8"?>
<!-- Generator: Adobe Illustrator 28.2.0, SVG Export Plug-In . SVG Version: 6.00 Build 0)  -->
<svg version="1.1" id="Layer_1" xmlns="http://www.w3.org/2000/svg" xmlns:xlink="http://www.w3.org/1999/xlink" x="0px" y="0px"
	 viewBox="0 0 512 512" style="enable-background:new 0 0 512 512;" xml:space="preserve">
<polyline points="504.4,76.2 483.3,76.2 483.3,84.5 481.3,84.5 481.3,105.3 502,105.3 502,97.3 504.4,97.3 504.4,76.2 "/>
<polyline points="143.2,171.1 124.4,171.1 122.4,171.1 103.3,171.1 103.3,189.8 103.3,191.8 103.3,210.9 103.3,229.7 103.3,248.8 
	122.4,248.8 124.4,248.8 143.2,248.8 162.3,248.8 181,248.8 181,228.1 181,208.9 162.3,208.9 162.3,189.8 143.2,189.8 143.2,171.1 
	"/>
<polyline points="271.2,54.2 250.4,54.2 250.4,75.4 271.2,75.4 271.2,54.2 "/>
<polyline points="167.9,160.7 147.1,160.7 147.1,181.4 167.9,181.4 167.9,202.6 188.6,202.6 188.6,181.4 167.9,181.4 167.9,160.7 
	"/>
<polyline points="225.3,145.5 204.6,145.5 204.6,166.7 204.6,183.4 204.6,185.4 204.6,202.6 204.6,204.6 204.6,223.3 223.7,223.3 
	225.3,223.3 242.4,223.3 244.4,223.3 263.6,223.3 263.6,223.3 282.3,223.3 282.3,202.6 263.6,202.6 263.6,183.4 244.4,183.4 
	244.4,164.7 225.3,164.7 225.3,145.5 "/>
<polyline points="253.6,128 232.9,128 232.9,148.7 253.6,148.7 253.6,128 "/>
<polyline points="360.1,14.8 339.3,14.8 339.3,35.5 360.1,35.5 360.1,14.8 "/>
<polyline points="275.9,150.7 255.2,150.7 255.2,171.9 275.9,171.9 275.9,150.7 "/>
<polyline points="436.6,0 436.6,0 415.5,0 415.5,20.7 427.1,20.7 427.1,35.9 447.8,35.9 447.8,14.8 436.6,14.8 436.6,0 "/>
<polyline points="399.6,58.2 378.8,58.2 378.8,79 399.6,79 399.6,58.2 "/>
<polyline points="297.9,172.7 276.7,172.7 276.7,193.8 297.9,193.8 297.9,172.7 "/>
<polyline points="224.1,252 203.4,252 184.2,252 184.2,270.8 184.2,272.7 184.2,289.9 184.2,291.9 184.2,310.6 184.2,329.8 
	203.4,329.8 205.4,329.8 222.1,329.8 224.1,329.8 241.2,329.8 243.2,329.8 262,329.8 262,310.6 262,308.6 262,289.9 243.2,289.9 
	243.2,270.8 224.1,270.8 224.1,252 "/>
<polyline points="250,243.2 229.3,243.2 229.3,264 250,264 250,284.7 271.2,284.7 271.2,264 250,264 250,243.2 "/>
<polyline points="413.9,110.9 393.2,110.9 393.2,132 413.9,132 413.9,110.9 "/>
<polyline points="331.8,125.2 311,125.2 311,144.3 311,144.3 311,165.1 311,182.2 311,184.2 311,203.4 331.8,203.4 331.8,203.4 
	348.9,203 348.9,203.4 369.6,203 388.8,203 388.8,182.2 369.6,182.2 369.6,163.5 365.3,163.5 365.3,149.9 350.5,149.9 350.5,144.3 
	331.8,144.3 331.8,125.2 "/>
<polyline points="342.1,216.1 321,216.1 321,237.3 342.1,237.3 342.1,216.1 "/>
<polyline points="463.4,111.3 442.2,111.3 442.2,132 463.4,132 463.4,111.3 "/>
<polyline points="363.3,238.1 342.1,238.1 342.1,258.8 363.3,258.8 363.3,238.1 "/>
<polyline points="473.7,156.7 453,156.7 453,177.4 473.7,177.4 473.7,156.7 "/>
<polyline points="386.4,260.4 365.7,260.4 365.7,281.5 386.4,281.1 386.4,260.4 "/>
<polyline points="311.4,231.7 290.7,231.7 290.7,252.4 290.7,269.6 290.7,271.6 290.7,288.7 290.7,290.3 290.7,309.4 309.4,309.4 
	311.4,309.4 328.6,309.4 330.6,309.4 347.3,309.4 349.3,309.4 368.4,309.4 368.4,288.7 349.3,288.7 349.3,269.6 330.6,269.6 
	330.6,250.4 311.4,250.4 311.4,231.7 "/>
<polyline points="332.6,325.4 311.8,325.4 311.8,346.1 332.6,346.1 332.6,325.4 "/>
<polyline points="461.8,244 441,244 441,264.8 461.8,264.8 461.8,244 "/>
<polyline points="353.3,346.1 332.6,346.1 332.6,367.3 353.3,367.3 353.3,346.1 "/>
<polyline points="305,333 284.3,333 265.2,333 265.2,353.7 265.2,370.8 265.2,372.4 265.2,389.6 265.2,391.6 265.2,410.7 
	286.3,410.7 303.1,410.7 305,410.7 322.2,410.7 324.2,410.7 342.9,410.7 342.9,389.6 342.9,370.8 324.2,370.8 324.2,351.7 
	305,351.7 305,333 "/>
<polyline points="90.9,201 7.6,201 7.6,284.3 7.6,360.5 7.6,428.7 7.6,428.7 7.6,512 7.6,512 90.9,512 167.1,512 242.4,512 
	242.4,512 325.8,512 325.8,428.7 242.8,428.7 242.8,352.9 167.1,352.9 167.1,276.7 90.9,276.7 90.9,201 "/>
</svg>
