<svg xmlns="http://www.w3.org/2000/svg" xml:space="preserve" viewBox="0 0 512 512"><path d="m230.5 374.5 38.7 14.1s-.1 0-.2.1l.3.1 156.6-136.7-69.5-25.3 4.6-5.6-6.2 7.6c-.8.9-2 1.3-3.1.9s-1.9-1.4-1.9-2.6l-.1-2.7-65.9-24-6.9 40.3c-.7 3.8-3.4 6.9-7.2 8-3.7 1.1-7.8 0-10.4-2.9l-11.9-12.9zm71.6-83.1 7.2-9.8-2.6-11.9c-.2-1 .2-1.9 1-2.4s1.9-.5 2.6.1l9.8 7.2L332 272c.9-.2 1.9.2 2.4 1s.5 1.9-.1 2.6l-7.2 9.8 2.6 11.9c.2.9-.2 1.9-1 2.4s-1.9.5-2.6-.1l-9.8-7.2-11.8 2.6c-1 .2-1.9-.2-2.4-1-.6-.8-.5-1.8 0-2.6" style="opacity:.8"/><path d="m97.7 326.1 132.8 48.4 17-141.7-19.5-21.2h-.2z" style="opacity:.6"/><path d="M512 282.5 363 425l-94.2-35.9 157-137.1.9.3zm-85.3-30.1 76.8-70.6-171.8-64.6-29 25.9 24.7 13c3.4 1.8 5.5 5.4 5.4 9.2-.1 3.9-2.3 7.3-5.8 9l-42.2 20-1 6.1 65.9 24-.4-12.3-11.6-9.5c-.9-.8-1.3-2-.9-3.1s1.4-1.9 2.6-1.9l14.9-.5 9.5-11.6c.8-.9 2-1.3 3.1-.9s1.9 1.4 1.9 2.6l.5 15 11.6 9.5c.9.8 1.3 2 .9 3.1s-1.4 1.9-2.6 1.9l-14.9.5-7.9 9.6 69.5 25.3z" style="opacity:.4"/><path d="m227.8 211.6-45.6 7c-3.8.6-7.7-1.1-9.9-4.3s-2.4-7.4-.6-10.8L193 165l-25.3-10.1L0 288l95.6 37.5-78.1 69L188.8 458s80.2-69.4 80.3-69.3L97.7 326.1z" style="opacity:.2"/><path d="M281.1 87.9c-.4-3.9-3.1-7.1-6.8-8.5-3.7-1.3-7.8-.4-10.6 2.4l-33.3 33L185 106c-3.8-.7-7.7.7-10 3.8s-2.8 7.2-1.1 10.7l20.5 42-22.8 41.2c-1.9 3.4-1.7 7.6.6 10.8 2.2 3.2 6.1 4.8 9.9 4.3l45.8-7 31.4 34.1c2.6 2.9 6.7 4 10.4 2.9s6.5-4.2 7.2-8l7.9-46.4 42.2-20c3.5-1.7 5.7-5.1 5.8-9s-2-7.4-5.4-9.2l-41-21.5zm58.4 109.5c-1.2 0-2.2.8-2.6 1.9s0 2.4.9 3.1l11.6 9.5.5 14.9c0 1.2.8 2.2 1.9 2.6s2.4 0 3.1-.9l9.5-11.6 14.9-.5c1.2 0 2.2-.8 2.6-1.9s0-2.4-.9-3.1l-11.6-9.5-.5-15c0-1.2-.8-2.2-1.9-2.6s-2.4 0-3.1.9l-9.5 11.6zm-37.4 94c-.6.8-.6 1.8-.1 2.6s1.5 1.2 2.4 1l11.8-2.6 9.8 7.2c.8.6 1.8.6 2.6.1s1.2-1.5 1-2.4l-2.6-11.9 7.2-9.8c.6-.8.6-1.8.1-2.6s-1.5-1.2-2.4-1l-11.8 2.6-9.8-7.2c-.8-.6-1.8-.6-2.6-.1s-1.2 1.5-1 2.4l2.6 11.9zm5.5-186.3c-.5.4-.7 1.1-.5 1.7s.8 1.1 1.5 1.1l8.3.2 5.3 6.4c.4.5 1.1.7 1.7.5s1.1-.8 1.1-1.5l.2-8.3 6.4-5.3c.5-.4.7-1.1.5-1.7s-.8-1.1-1.5-1.1l-8.3-.2-5.3-6.4c-.4-.5-1.1-.7-1.7-.5s-1.1.8-1.1 1.5l-.2 8.3zm-108-26c-.6.8-.6 1.9-.1 2.7s1.5 1.2 2.5 1l12.1-2.8 10 7.3c.8.6 1.9.6 2.7.1s1.2-1.5 1-2.5L225 72.7l7.2-10c.6-.8.6-1.9.1-2.7s-1.5-1.2-2.5-1l-12.1 2.8-10-7.3c-.8-.6-1.9-.6-2.7-.1s-1.2 1.5-1 2.5l2.8 12.1zM91.1 169.4c-.8.9-.9 2.2-.3 3.3s1.8 1.6 3 1.5l15-2.3 11.6 9.8c.9.8 2.2.9 3.3.3s1.6-1.8 1.4-3l-2.3-15 9.8-11.6c.8-.9.9-2.2.3-3.3s-1.8-1.6-3-1.5l-15 2.3-11.6-9.8c-.9-.8-2.2-.9-3.3-.3s-1.6 1.8-1.5 3l2.3 15z"/></svg>