<svg xmlns="http://www.w3.org/2000/svg" xml:space="preserve" viewBox="0 0 512 512"><path d="m170 363.8 105.7 26.6L429.5 261l-7.8-21.4-168-51.3-26.1 11.9-19.9 47.7z" style="fill:#353438"/><path d="m252.9 188-24.7 205.3-131-66.7.9-15.4z" style="fill:#434343"/><path d="m331.7 117.1-80.1 71.4 175.1 63.9 76.8-70.6zm-62.8 272 157-137.1 86.1 30.4L363 425z" style="fill:#3e3e3e"/><path d="M253.4 189 97.5 326.2 0 288l167.7-133.1zM17.5 394.5l78.2-69.1L269 388.6c-.1 0-80.3 69.3-80.3 69.3z" style="fill:#535353"/><path d="M281.1 87.9c-.4-3.9-3.1-7.1-6.8-8.5-3.7-1.3-7.8-.4-10.6 2.4l-33.3 33L185 106c-3.8-.7-7.7.7-10 3.8s-2.8 7.2-1.1 10.7l20.5 42-22.8 41.2c-1.9 3.4-1.7 7.6.6 10.8 2.2 3.2 6.1 4.8 9.9 4.3l45.8-7 31.4 34.1c2.6 2.9 6.7 4 10.4 2.9s6.5-4.2 7.2-8l7.9-46.4 42.2-20c3.5-1.7 5.7-5.1 5.8-9s-2-7.4-5.4-9.2l-41-21.5zm58.4 109.5c-1.2 0-2.2.8-2.6 1.9s0 2.4.9 3.1l11.6 9.5.5 14.9c0 1.2.8 2.2 1.9 2.6s2.4 0 3.1-.9l9.5-11.6 14.9-.5c1.2 0 2.2-.8 2.6-1.9s0-2.4-.9-3.1l-11.6-9.5-.5-15c0-1.2-.8-2.2-1.9-2.6s-2.4 0-3.1.9l-9.5 11.6zm-37.4 94c-.6.8-.6 1.8-.1 2.6s1.5 1.2 2.4 1l11.8-2.6 9.8 7.2c.8.6 1.8.6 2.6.1s1.2-1.5 1-2.4l-2.6-11.9 7.2-9.8c.6-.8.6-1.8.1-2.6s-1.5-1.2-2.4-1l-11.8 2.6-9.8-7.2c-.8-.6-1.8-.6-2.6-.1s-1.2 1.5-1 2.4l2.6 11.9zm5.5-186.3c-.5.4-.7 1.1-.5 1.7s.8 1.1 1.5 1.1l8.3.2 5.3 6.4c.4.5 1.1.7 1.7.5s1.1-.8 1.1-1.5l.2-8.3 6.4-5.3c.5-.4.7-1.1.5-1.7s-.8-1.1-1.5-1.1l-8.3-.2-5.3-6.4c-.4-.5-1.1-.7-1.7-.5s-1.1.8-1.1 1.5l-.2 8.3zm-108-26c-.6.8-.6 1.9-.1 2.7s1.5 1.2 2.5 1l12.1-2.8 10 7.3c.8.6 1.9.6 2.7.1s1.2-1.5 1-2.5L225 72.7l7.2-10c.6-.8.6-1.9.1-2.7s-1.5-1.2-2.5-1l-12.1 2.8-10-7.3c-.8-.6-1.9-.6-2.7-.1s-1.2 1.5-1 2.5l2.8 12.1zM91.1 169.4c-.8.9-.9 2.2-.3 3.3s1.8 1.6 3 1.5l15-2.3 11.6 9.8c.9.8 2.2.9 3.3.3s1.6-1.8 1.4-3l-2.3-15 9.8-11.6c.8-.9.9-2.2.3-3.3s-1.8-1.6-3-1.5l-15 2.3-11.6-9.8c-.9-.8-2.2-.9-3.3-.3s-1.6 1.8-1.5 3l2.3 15z" style="fill:#a91d52"/></svg>