<svg xmlns="http://www.w3.org/2000/svg" xml:space="preserve" viewBox="0 0 512 512"><path d="M471.1 357.3 358.9 469.6l-1.7 1.7-.1.1c-56.7 54.8-148.2 54-203.9-1.8L125.7 442c14 5.7 28.9 9.4 44.1 10.9 5.1.5 10.3.8 15.4.8 23.1 0 46-5.1 67-14.9h.1c15.8-7.4 30.1-17.3 42.5-29.2.7-.6 1.2-1.1 1.7-1.6l2.2-2.2 7.1-6.9h-.2l102-102.1 2.1-2.1c11.6-12.9 16.3-29.5 14.5-45.5l45.5 45.5c16.9 17.1 17.6 44.6 1.4 62.6M286.5 63.5c.5-.1.9-.2 1.4-.4.9-.2 1.7-.4 2.6-.6 32.1-7.6 65.7-5 96 7.5l-27.6-27.6C330.7 14.2 293.4 0 256 0c-36.5 0-73 13.5-101 40.6l-.1.1c-.6.5-1.1 1-1.7 1.6L42.6 153c-.6.6-1.2 1.1-1.6 1.7-16.2 17.9-15.5 45.4 1.6 62.6L88.1 263c-1.9-16 2.8-32.8 14.4-45.6.7-.8 1.3-1.4 2.1-2.1L225.7 94v1c10.4-8.7 21.8-16 34.1-21.8 8.6-4 17.6-7.3 26.7-9.7M42.5 359l39.8 39.9.1-.1c5 5 10.3 9.6 15.9 13.7 43 32.1 99.9 37.9 148.7 15.1 1.6-.8 3.2-1.5 4.8-2.4.4-.2.7-.4 1.1-.6.2-.1.4-.2.5-.3-14-.6-27.7-6.2-38.4-16.9L33.8 226c-10.6-10.6-16.2-24.4-16.8-38.3C-12 242.7-3.4 313 42.5 359m427-206-39.8-39.8-.1-.1c-4.9-4.9-10.3-9.5-15.9-13.7-42.9-32.1-99.9-37.8-148.7-15-2.2 1-4.4 2.1-6.5 3.3 14 .6 27.7 6.3 38.4 16.9l110.6 110.7.1-.1 70.7 70.8c10.6 10.6 16.2 24.2 16.8 38.1 28.9-55 20.3-125.1-25.6-171.1"/></svg>