<svg xmlns="http://www.w3.org/2000/svg" xml:space="preserve" viewBox="0 0 512 512"><path d="M437.8 219.4c.2-3 .3-6.1.3-9.2 0-88.8-81.5-160.8-182.1-160.8s-182.1 72-182.1 160.8c0 3.1.1 6.1.3 9.2z" style="fill:#fc8c43"/><path d="M275.5 218.8v-29.6h-39.9v29.6H63.5c-.7 6.5-1 13.2-1 19.9C62.5 296.2 87 348 126 384h129.3v25.5H287V384h100.3c39-35.9 63.5-87.7 63.5-145.3 0-6.7-.3-13.4-1-19.9z" style="fill:#22bded"/><path d="M61.2 370.6c0 4.6-3.7 8.3-8.2 8.3s-8.2-3.7-8.2-8.3 3.7-8.3 8.2-8.3 8.2 3.7 8.2 8.3M77.5 399c-4.5 0-8.2 3.7-8.2 8.3s3.7 8.3 8.2 8.3 8.2-3.7 8.2-8.3-3.7-8.3-8.2-8.3M27.3 294.8c-2.2 0-4 1.8-4 4.1s1.8 4.1 4 4.1 4-1.8 4-4.1c.1-2.3-1.7-4.1-4-4.1m25-152.7c4.5 0 8.2-3.7 8.2-8.3s-3.7-8.3-8.2-8.3-8.2 3.7-8.2 8.3c.1 4.6 3.7 8.3 8.2 8.3M34.7 329.9c-2.2 0-4 1.8-4 4.1s1.8 4.1 4 4.1 4-1.8 4-4.1-1.8-4.1-4-4.1m.5-166c-4.5 0-8.2 3.7-8.2 8.3s3.7 8.3 8.2 8.3 8.2-3.7 8.2-8.3c-.1-4.6-3.7-8.3-8.2-8.3M218.4 18.3c4.5 0 8.2-3.7 8.2-8.3s-3.7-8.3-8.2-8.3-8.2 3.7-8.2 8.3c.1 4.5 3.7 8.3 8.2 8.3m72.7 0c4.5 0 8.2-3.7 8.2-8.3s-3.7-8.3-8.2-8.3-8.2 3.7-8.2 8.3c0 4.5 3.7 8.3 8.2 8.3m37.7 9.9c4.5 0 8.2-3.7 8.2-8.3s-3.7-8.3-8.2-8.3-8.2 3.7-8.2 8.3 3.7 8.3 8.2 8.3M400.3 67c4.5 0 8.2-3.7 8.2-8.3s-3.7-8.3-8.2-8.3-8.2 3.7-8.2 8.3 3.7 8.3 8.2 8.3m-35-24.3c4.5 0 8.2-3.7 8.2-8.3s-3.7-8.3-8.2-8.3-8.2 3.7-8.2 8.3 3.7 8.3 8.2 8.3M32.8 259.2c0-4.6-3.7-8.3-8.2-8.3s-8.2 3.7-8.2 8.3 3.7 8.3 8.2 8.3 8.2-3.7 8.2-8.3m402.3-154.7c4.5 0 8.2-3.7 8.2-8.3s-3.7-8.3-8.2-8.3-8.2 3.7-8.2 8.3 3.7 8.3 8.2 8.3m-12.3-17.3c2.2 0 4-1.8 4-4.1s-1.8-4.1-4-4.1-4 1.8-4 4.1c0 2.2 1.7 4.1 4 4.1m55 127.2c0 4.6 3.7 8.3 8.2 8.3s8.2-3.7 8.2-8.3-3.7-8.3-8.2-8.3-8.2 3.8-8.2 8.3M90.2 87.2c2.2 0 4-1.8 4-4.1s-1.8-4.1-4-4.1-4 1.8-4 4.1c0 2.2 1.8 4.1 4 4.1m-14.1 17.3c4.5 0 8.2-3.7 8.2-8.3s-3.7-8.3-8.2-8.3-8.2 3.7-8.2 8.3 3.7 8.3 8.2 8.3M25.8 222.7c4.5 0 8.2-3.7 8.2-8.3s-3.7-8.3-8.2-8.3-8.2 3.7-8.2 8.3 3.7 8.3 8.2 8.3M182.5 28.2c4.5 0 8.2-3.7 8.2-8.3s-3.7-8.3-8.2-8.3-8.2 3.7-8.2 8.3 3.7 8.3 8.2 8.3M90.4 417.4c-2.2 0-4 1.8-4 4.1s1.8 4.1 4 4.1 4-1.8 4-4.1-1.7-4.1-4-4.1M112.2 67c4.5 0 8.2-3.7 8.2-8.3s-3.7-8.3-8.2-8.3-8.2 3.7-8.2 8.3 3.7 8.3 8.2 8.3m34.2-24.3c4.5 0 8.2-3.7 8.2-8.3s-3.7-8.3-8.2-8.3-8.2 3.7-8.2 8.3 3.7 8.3 8.2 8.3m108.9-26.1c4.5 0 8.2-3.7 8.2-8.3S259.8 0 255.3 0s-8.2 3.7-8.2 8.3 3.7 8.3 8.2 8.3m166 400.8c-2.2 0-4 1.8-4 4.1s1.8 4.1 4 4.1 4-1.8 4-4.1-1.8-4.1-4-4.1m13.2-18.4c-4.5 0-8.2 3.7-8.2 8.3s3.7 8.3 8.2 8.3 8.2-3.7 8.2-8.3-3.7-8.3-8.2-8.3m-53.8.7H318v52.7c0 2.2 1.7 3.9 3.9 3.9h9.5c2.2 0 3.9-1.7 3.9-3.9v-36h45.3c2.2 0 3.9-1.7 3.9-3.9v-8.9c.1-2.2-1.7-3.9-3.8-3.9m78.3-37.4c-4.5 0-8.2 3.7-8.2 8.3s3.7 8.3 8.2 8.3 8.2-3.7 8.2-8.3-3.7-8.3-8.2-8.3m-64.8 76.3c-3.3 0-5.9 2.7-5.9 6s2.7 6 5.9 6c3.3 0 5.9-2.7 5.9-6s-2.6-6-5.9-6m82-108.7c-2.2 0-4 1.8-4 4.1s1.8 4.1 4 4.1 4-1.8 4-4.1-1.8-4.1-4-4.1m8.3-35.1c-2.2 0-4 1.8-4 4.1s1.8 4.1 4 4.1 4-1.8 4-4.1-1.8-4.1-4-4.1m-24.7-169.3c-4.5 0-8.2 3.7-8.2 8.3s3.7 8.3 8.2 8.3 8.2-3.7 8.2-8.3c-.1-4.6-3.7-8.3-8.2-8.3m27.6 125.4c-4.5 0-8.2 3.7-8.2 8.3s3.7 8.3 8.2 8.3 8.2-3.7 8.2-8.3-3.7-8.3-8.2-8.3M366.6 463c-2.2 0-4 1.8-4 4.1s1.8 4.1 4 4.1 4-1.8 4-4.1-1.8-4.1-4-4.1m117.8-290.8c0-4.6-3.7-8.3-8.2-8.3s-8.2 3.7-8.2 8.3 3.7 8.3 8.2 8.3 8.2-3.7 8.2-8.3M356.1 423.6h-5.3c-2.2 0-3.9 1.7-3.9 3.9v8.6c0 2.2 1.7 3.9 3.9 3.9h5.3c2.2 0 3.9-1.7 3.9-3.9v-8.6c0-2.1-1.7-3.9-3.9-3.9m-58.4-.3h-10.3c-2.2 0-3.9 1.7-3.9 3.9v55.6c0 2.2 1.7 3.9 3.9 3.9h10.3c2.2 0 3.9-1.7 3.9-3.9v-55.6c0-2.1-1.8-3.9-3.9-3.9m-170.6-19.7v8.9c0 2.2 1.7 3.9 3.9 3.9h45.3v36c0 2.2 1.7 3.9 3.9 3.9h9.5c2.2 0 3.9-1.7 3.9-3.9v-52.7H131c-2.2 0-3.9 1.7-3.9 3.9m34.8 20h-5.3c-2.2 0-3.9 1.7-3.9 3.9v8.6c0 2.2 1.7 3.9 3.9 3.9h5.3c2.2 0 3.9-1.7 3.9-3.9v-8.6c0-2.1-1.7-3.9-3.9-3.9M144.5 463c-2.2 0-4 1.8-4 4.1s1.8 4.1 4 4.1 4-1.8 4-4.1-1.8-4.1-4-4.1m13.9 3.5c-2.9 0-5.2 2.4-5.2 5.3s2.3 5.3 5.2 5.3 5.2-2.4 5.2-5.3c0-3-2.3-5.3-5.2-5.3m-7.8-312.9c-4.2 0-7.7 3.4-7.7 7.7s3.4 7.7 7.7 7.7c4.2 0 7.7-3.4 7.7-7.7s-3.4-7.7-7.7-7.7m202.5 312.9c-2.9 0-5.2 2.4-5.2 5.3s2.3 5.3 5.2 5.3 5.2-2.4 5.2-5.3c0-3-2.3-5.3-5.2-5.3m40.9-77.4h-92.3V412c0 2.2-1.7 3.9-3.9 3.9h-33.4v86.8c0 5.2-4.1 9.4-9.3 9.4s-9.4-4.2-9.4-9.4V389.3h-19.2v97.3H208v-97.3h-95.9v-11.7c-16.9-14.5-23.9-22.7-32.7-33.1q-2.55-3-5.4-6.3c-9.4-10.8-14.1-37.5-16.9-53.4-.7-4.2-1.3-7.5-1.8-9.5-2.4-9.9-1.9-36.2-1.6-51.9.4-18.4 6.7-38.1 13.5-56.6 7.1-19.5 15.5-32.9 36-57.5 17.8-21.4 31.1-30 41.8-37 1.2-.8 2.4-1.6 3.5-2.3l.2-.1c11.2-7.4 20-13.2 46.3-22.6 26.1-9.3 44.5-9.8 44.7-9.8s18.9.2 33.2.7c14.8.5 43.3 7.2 65.3 17.5 21.4 10 40.5 25.1 50.7 33.2l1.2.9c9.1 7.2 27.5 29.9 34.9 39.3 5.7 7.2 20.2 36.5 22.8 44.5.5 1.6 1 3 1.6 4.6 2.3 6.4 5.2 14.3 8.3 34.5 2.8 18.6 1.4 39.9.6 52.7-.3 4.4-.5 7.9-.5 9.8.2 7.4-5.5 28.9-5.8 29.8-.1.3-7.8 26.7-22.4 43.6-13.8 15.9-29.7 28-31.6 29.5v7.1c-.1 2.1-1.8 3.9-4 3.9m-1.2-38.1c1.3-.8 6.8-4.3 11.5-10.3H301.7v34.5h11.5V351zm-20.4 13.5v10.7H384v-10.7zm-41.9 0v10.7h24v-10.7zm-43.4-37h131c8.5-11.8 10.1-18.2 10.4-19.9H293.2c-2.2 0-3.9-1.7-3.9-3.9V288h144.1c3.8-16.5 3.8-19.9 3.7-20.5H309.5V288h-20.2v-40s-.2-11.3-12.2-11.3H267c-2.2 0-3.9-1.8-3.9-3.9v-35.9h-17v35.2c0 2.2-1.7 3.9-3.9 3.9h-13c-1.9.2-9.1 1.9-9.2 13.3-.1 12.6 0 36.6 0 38.4h40.4c2.2 0 3.9 1.7 3.9 3.9v109.7h18.8v-70c.1-2 1.9-3.8 4-3.8m-60.2 0v48.6h18.8v-68.8H82.5c0 .2.1.4.1.6 1.3 8 10.1 19.3 10.3 19.6zm-30.6 23.4v25.2h11.6v-35H106.8l10.2 9.8zm-18.2 25.2v-12.6h-25v12.6zm-53.9-12.6v12.6h11.3v-12.6zM309.7 248h128.2c.9-5.6-.7-16.5-1.1-18.6H304.1s6.1 7.8 5.6 18.6M436 211.6c-.1-.3-.1-.5-.2-.8-6.1-32.6-27.7-67.6-36.6-79.8S367.6 94.6 341 80.8c-26.6-13.7-54.6-22.6-82.5-22.5s-54.4 5.4-81 18.7c-26.7 13.2-44.5 31.4-44.5 31.4s-21.7 19.3-38 49.6c-15.8 29.4-18.6 51.7-18.8 53.2h153.1v-53.6l-.3-.3c-14.5-12.8-15-23.6-15.1-34s6.1-21.1 12.8-27.4c6.8-6.3 17-11.6 28.1-11.3 11.1.2 21.8 4.1 30.7 13.8s10.3 19.9 9.8 32.9c-.5 12.6-13.9 25-14.8 25.8h.2v54.3H436zm-160.5-85.7c0-11.5-9.3-20.8-20.8-20.8s-20.8 9.3-20.8 20.8 9.3 20.8 20.8 20.8c11.5-.1 20.8-9.4 20.8-20.8m-21.4 28.3c-4.9.2-7.9 6-7.9 6s0 .1-.1.2V177h17v-17.1c-3.4-4.4-6.4-5.7-9-5.7M73.9 228.7v18.6H199s.8-12 6.4-16.7v-1.9zm.3 37.3s.1 12.4 4.2 21.8h122.5V266zM56 274.9l-.8-4.8c.2 1.8.5 3.4.8 4.8m135.3-130c-3.6 0-6.5 2.9-6.5 6.5s2.9 6.5 6.5 6.5 6.5-2.9 6.5-6.5c-.1-3.6-3-6.5-6.5-6.5m-73.9 293.7c-3.3 0-5.9 2.7-5.9 6s2.7 6 5.9 6 5.9-2.7 5.9-6-2.6-6-5.9-6m238.2-297c-11.2 0-20.3 9.1-20.3 20.3s9.1 20.3 20.3 20.3 20.3-9.1 20.3-20.3c-.1-11.2-9.1-20.3-20.3-20.3" style="fill:#002235"/></svg>