<?xml version="1.0" encoding="utf-8"?>
<!-- Generator: Adobe Illustrator 28.2.0, SVG Export Plug-In . SVG Version: 6.00 Build 0)  -->
<svg version="1.1" id="Layer_1" xmlns="http://www.w3.org/2000/svg" xmlns:xlink="http://www.w3.org/1999/xlink" x="0px" y="0px"
	 viewBox="0 0 512 512" style="enable-background:new 0 0 512 512;" xml:space="preserve">
<style type="text/css">
	.st0{fill:#FFFFFF;}
</style>
<g>
	<path class="st0" d="M209.3,96c-2.2-0.2-4.4,0.1-6.5,0.9c-2.1,0.7-4,1.9-5.6,3.4c-1.6,1.5-2.9,3.3-3.8,5.4c-0.9,2-1.3,4.2-1.3,6.4
		v32.1c0,4,1.5,7.9,4.3,10.9c2.7,2.9,6.5,4.7,10.5,5c76.8,6.3,138,68.2,144.9,145.2c0.3,4,2.2,7.7,5.1,10.4
		c2.9,2.7,6.8,4.2,10.8,4.3h32.2c2.2,0,4.4-0.5,6.4-1.4c2-0.9,3.9-2.2,5.4-3.8c1.5-1.6,2.7-3.5,3.4-5.6c0.7-2.1,1-4.3,0.9-6.5
		C407.6,192.6,319.5,104.5,209.3,96z"/>
	<path class="st0" d="M512,303.1C503.5,139.8,372.3,8.6,209,0c-2.2-0.1-4.4,0.2-6.4,0.9c-2.1,0.7-3.9,1.9-5.5,3.4
		c-1.6,1.5-2.9,3.3-3.7,5.3c-0.9,2-1.3,4.2-1.3,6.3v31.6c0,4.1,1.5,8,4.3,11c2.8,3,6.6,4.7,10.7,5c129.4,7,233.4,112,240.9,241.5
		c0.2,4.1,2,7.9,5,10.6c3,2.8,6.9,4.3,10.9,4.4H496c2.2,0,4.3-0.5,6.3-1.3c2-0.9,3.8-2.1,5.3-3.7c1.5-1.6,2.7-3.5,3.4-5.5
		C511.8,307.4,512.1,305.2,512,303.1z"/>
	<path class="st0" d="M305.4,462.6L247.9,405c-3.4,0.7-6.9-0.4-9.3-2.8L111.4,275c-2.4-2.4-3.5-5.9-2.8-9.3l-59.1-59.1
		c-7.3-7.3-20.1-6.1-25,3c-41.8,77.8-29.9,176.7,35.7,242.3c65.6,65.6,164.6,77.5,242.3,35.7C311.6,482.7,312.8,469.9,305.4,462.6z
		 M229.8,424.6l-24.2,24.2c-1.6,1.6-4.3,1.6-5.9,0L63.9,313c-1.6-1.6-1.6-4.3,0-5.9l24.2-24.2c1.6-1.6,4.3-1.6,5.9,0l135.8,135.8
		C231.4,420.4,231.4,423,229.8,424.6z"/>
	<path class="st0" d="M238.5,402.2L111.4,275c-2.6-2.6-3.6-6.4-2.7-10c1-3.6,3.8-6.4,7.3-7.3L255.8,245c3.6-1,7.4,0.1,10,2.7
		c2.6,2.6,3.6,6.4,2.7,10l-12.6,139.8c-0.5,1.8-1.4,3.4-2.7,4.7c-1.3,1.3-2.9,2.2-4.7,2.7C245,405.8,241.2,404.8,238.5,402.2z"/>
</g>
</svg>
