<svg xmlns="http://www.w3.org/2000/svg" xml:space="preserve" viewBox="0 0 512 512"><path d="M305.4 462.6c7.4 7.3 6.2 20.1-3 25-77.7 41.8-176.7 29.9-242.3-35.7s-77.5-164.5-35.7-242.3c4.9-9.1 17.7-10.3 25-3M512 303.1c.1 2.2-.2 4.4-.9 6.4-.7 2.1-1.9 3.9-3.4 5.5s-3.3 2.9-5.3 3.7c-2 .9-4.2 1.3-6.3 1.3H464c-4.1 0-8-1.6-10.9-4.4-3-2.8-4.7-6.6-5-10.6C440.5 175.5 336.5 70.5 207 63.5c-4.1-.2-7.9-2-10.7-5s-4.3-6.9-4.3-11V16c0-2.2.5-4.3 1.3-6.3.9-2 2.1-3.8 3.7-5.3s3.5-2.7 5.5-3.4c2.1-.7 4.2-1.1 6.4-.9 163.4 8.5 294.6 139.7 303.1 303m-96-.3c.1 2.2-.2 4.4-.9 6.5s-1.9 4-3.4 5.6-3.3 2.9-5.4 3.8c-2 .9-4.2 1.4-6.4 1.4h-32.2c-4 0-7.9-1.6-10.8-4.3s-4.8-6.4-5.1-10.4c-6.9-77-68.1-138.9-144.9-145.2-4-.3-7.8-2.1-10.5-5s-4.3-6.8-4.3-10.9v-32.1c0-2.2.5-4.4 1.3-6.4.9-2 2.2-3.9 3.8-5.4s3.5-2.7 5.6-3.4 4.3-1 6.5-.9c110.2 8.4 198.3 96.5 206.7 206.7" style="fill:#ebaf00"/><path d="m205.6 448.9 24.2-24.2c1.6-1.6 1.6-4.3 0-5.9L94 282.9c-1.6-1.6-4.3-1.6-5.9 0l-24.2 24.2c-1.6 1.6-1.6 4.3 0 5.9l135.8 135.8c1.6 1.7 4.3 1.7 5.9.1m32.9-46.7L111.4 275c-2.6-2.6-3.6-6.4-2.7-10 1-3.6 3.8-6.4 7.3-7.3L255.8 245c3.6-1 7.4.1 10 2.7s3.6 6.4 2.7 10l-12.6 139.8c-.5 1.8-1.4 3.4-2.7 4.7s-2.9 2.2-4.7 2.7c-3.5.9-7.3-.1-10-2.7" style="fill:#1e1e1e"/></svg>