<?xml version="1.0" encoding="utf-8"?>
<!-- Generator: Adobe Illustrator 28.2.0, SVG Export Plug-In . SVG Version: 6.00 Build 0)  -->
<svg version="1.1" id="Layer_1" xmlns="http://www.w3.org/2000/svg" xmlns:xlink="http://www.w3.org/1999/xlink" x="0px" y="0px"
	 viewBox="0 0 512 512" style="enable-background:new 0 0 512 512;" xml:space="preserve">
<style type="text/css">
	.st0{fill:#FFFFFF;}
</style>
<path class="st0" d="M252.6,409.8c-0.8,0.4-1.6,0.7-2.5,0.9l-0.1,0c-1.3,0.3-2.7,0.5-4,0.5c-4.3,0-8.5-1.7-11.6-4.7l-0.1-0.1
	L107.1,279.2c-4-4-5.7-10.1-4.3-15.7l0-0.2c0.2-0.8,0.5-1.6,0.9-2.4l-54.4-54.4c-7.3-7.3-20.1-6.1-25,3
	c-41.8,77.8-29.9,176.7,35.7,242.3s164.6,77.5,242.3,35.7c9.2-4.9,10.4-17.7,3-25L252.6,409.8z M234,428.9l-24.2,24.2
	c-1.9,1.9-4.5,2.9-7.1,2.9c-0.1,0-0.1,0-0.2,0c-2.7,0-5.3-1.1-7.1-3.1L59.6,317.2c-4-4-4-10.4,0-14.4l24.2-24.2c4-4,10.4-4,14.4,0
	L234,414.5c1.9,1.9,3,4.5,3,7.2C237,424.5,235.9,427,234,428.9z M416,302.8c0.1,2.2-0.2,4.4-0.9,6.5c-0.7,2.1-1.9,4-3.4,5.6
	c-1.5,1.6-3.3,2.9-5.4,3.8c-2,0.9-4.2,1.4-6.4,1.4h-32.2c-4,0-7.9-1.6-10.8-4.3c-2.9-2.7-4.8-6.4-5.1-10.4
	c-6.9-77-68.1-138.9-144.9-145.2c-4-0.3-7.8-2.1-10.5-5c-2.7-2.9-4.3-6.8-4.3-10.9v-32.1c0-2.2,0.5-4.4,1.3-6.4
	c0.9-2,2.2-3.9,3.8-5.4c1.6-1.5,3.5-2.7,5.6-3.4c2.1-0.7,4.3-1,6.5-0.9C319.5,104.5,407.6,192.6,416,302.8z M512,303.1
	c0.1,2.2-0.2,4.4-0.9,6.4c-0.7,2.1-1.9,3.9-3.4,5.5c-1.5,1.6-3.3,2.9-5.3,3.7c-2,0.9-4.2,1.3-6.3,1.3H464c-4.1,0-8-1.6-10.9-4.4
	c-3-2.8-4.7-6.6-5-10.6C440.5,175.5,336.5,70.5,207,63.5c-4.1-0.2-7.9-2-10.7-5c-2.8-3-4.3-6.9-4.3-11V16c0-2.2,0.5-4.3,1.3-6.3
	c0.9-2,2.1-3.8,3.7-5.3c1.6-1.5,3.5-2.7,5.5-3.4c2.1-0.7,4.2-1.1,6.4-0.9C372.3,8.6,503.5,139.8,512,303.1z M91,288.4l133.2,133.3
	l-21.6,21.6L69.4,310L91,288.4z M246.9,399.1c-1.5,0.4-3.1-0.1-4.3-1.2L115.6,270.7c-1.1-1.1-1.5-2.7-1.1-4.2
	c0.4-1.4,1.4-2.5,2.6-2.9l139.2-12.6l0.5,0l0.5-0.1c1.4-0.4,3,0,4.2,1.2c1.1,1.1,1.5,2.7,1.1,4.3l-0.1,0.5L250,396.3
	c-0.2,0.6-0.6,1.2-1,1.6C248.4,398.5,247.8,398.8,246.9,399.1z"/>
</svg>
