<?xml version="1.0" encoding="utf-8"?>
<!-- Generator: Adobe Illustrator 28.2.0, SVG Export Plug-In . SVG Version: 6.00 Build 0)  -->
<svg version="1.1" id="Layer_1" xmlns="http://www.w3.org/2000/svg" xmlns:xlink="http://www.w3.org/1999/xlink" x="0px" y="0px"
	 viewBox="0 0 512 512" style="enable-background:new 0 0 512 512;" xml:space="preserve">
<style type="text/css">
	.st0{fill:#FFFFFF;}
</style>
<path class="st0" d="M461.2,171.3c-2.2-1.9-4.5-3.7-6.9-5.3h25.6c5,0,9.2,2.2,12,5.7c-1.2-0.2-2.4-0.4-3.7-0.4H461.2z M383.8,323.3
	c37.5,0,68-30.2,68-67.3v-26.1c0-9.4-3.2-18.1-8.5-25.1c2.1,5.1,3.2,10.7,3.2,16.7v26.1c-0.1,38.9-32.2,70.3-71,70.3h-10
	c-11,0-21.3-2.5-30.6-7c11,7.8,24.4,12.4,38.9,12.4H383.8z M173.4,194.1c5.9,0,11.6,1.2,16.7,3.3c-7-5.4-15.7-8.6-25.1-8.6h-62.9
	c-11.6,0-22.5,4.9-30.6,13.7c-7,7.6-10.6,16.8-10.6,27.4V256c0,14.5,4.6,27.9,12.4,38.9c-4.5-9.3-7-19.6-7-30.6v-26.1
	c0-11.4,4-21.4,11.4-29.4c8-8.7,19.4-14.7,32.8-14.7H173.4z M419,194c5.9,0,11.6,1.2,16.7,3.3c-7-5.4-15.7-8.6-25.1-8.6h-62.9
	c-22.7,0-41.2,18.5-41.2,41.2V256c0,14.5,4.6,27.9,12.4,38.9c-4.5-9.3-7-19.6-7-30.6v-26.1c0-24.1,19.4-44.2,44.2-44.2H419z
	 M270.4,229.9c0-7.8-6.6-14.4-14.4-14.4s-14.4,6.6-14.4,14.4V256c0,57-46.4,103.4-103.4,103.4h-10c-16.9,0-32.8-4.1-46.9-11.3
	c15.9,10.5,34.9,16.7,55.2,16.7h10c55.6,0,100.4-45.5,100.4-100.4v-26.1c0-9.4,8-17.4,17.4-17.4c0.2,0,0.4,0,0.7,0
	c0,0.2,0,0.4,0,0.7v26.1c0,20.5,6.2,39.5,16.8,55.4c-7.3-14.1-11.4-30.1-11.4-47.1V229.9z M200.8,221.6v26.1
	c-0.7,38.8-32.1,70.2-71,70.2h-10c-10.8,0-21.1-2.5-30.3-6.9c11,7.7,24.3,12.3,38.7,12.3h10c36.8,0,67.3-30.2,68-67.4l0-25.9
	c0-9.6-3.3-18.3-8.8-25.3C199.6,209.9,200.8,215.6,200.8,221.6z M347.7,152.6h62.9c12,0,23.6,2.7,34,7.8
	c-12.2-8.4-26.8-13.1-42.3-13.1h-62.9c-26.8,0-50.2,14.7-63.6,36.1c2.6,1.1,5.1,2.5,7.5,4.1C298.2,165.6,322,152.6,347.7,152.6z
	 M24.8,229.9c0-7.6,1-14.8,2.9-21.8h-3.9c-1.3,0-2.6-0.1-3.8-0.4c0.2,0.2,0.3,0.4,0.5,0.6c-0.7,4.3-1.1,8.7-1.1,13.2v26.1
	c0,20.5,6.2,39.5,16.7,55.4c-7.3-14.1-11.3-30.1-11.3-47.1V229.9z M506.2,186c0.2,1.2,0.4,2.4,0.4,3.7c0,10.3-8.1,18.4-18.4,18.4
	h-3.9c2,7.1,2.9,14.3,2.9,21.8V256c0,57-46.4,103.4-103.4,103.4h-10c-16.9,0-32.8-4.1-46.9-11.3c15.9,10.5,34.9,16.7,55.2,16.7h10
	c55.6,0,100.4-45.5,100.4-100.4v-26.1c0-8.7-1.3-16.7-4-24.8h8c8.7,0,15.4-6.7,15.4-15.4C511.9,193.1,509.7,188.8,506.2,186z
	 M256,179.3c7,0,13.6,1.4,19.7,4c-8-6-17.4-9.3-28-9.3c-8.9,0-16.9,2.3-24,6.6c1.8,2.2,3.5,4.4,5,6.8C236.8,182,246,179.3,256,179.3
	z M23.8,171.3h27c13.9-12.1,31.8-18.7,50.6-18.7h62.9c11.8,0,23.2,2.7,33.5,7.7c-12-8.2-26.4-13-41.8-13H93
	c-18.7,0-36.1,6.7-49.5,18.7H15.4C6.7,166,0,172.7,0,181.4c0,5,2.2,9.4,5.8,12.1c-0.3-1.2-0.4-2.5-0.4-3.8
	C5.4,179.4,13.5,171.3,23.8,171.3z M373.8,353.4c-53.7,0-97.4-43.7-97.4-97.4v-26.1c0-11.1-9.3-20.4-20.4-20.4
	c-11.1,0-20.4,9.3-20.4,20.4V256c0,53.7-43.7,97.4-97.4,97.4h-10c-53.7,0-97.4-43.7-97.4-97.4v-26.1c0-8.4,1.3-16.2,3.8-23.8l1.3-4
	H23.8c-7.1,0-12.4-5.3-12.4-12.4c0-7.1,5.3-12.4,12.4-12.4H53l0.9-0.8c12.9-11.6,29.8-17.9,47.5-17.9h62.9c25,0,48.3,13.3,61,34.6
	l1.7,2.9l2.7-2c7.6-5.8,16.5-8.8,26.3-8.8c9.7,0,18.5,3,26.3,8.8l2.6,2l1.7-2.8c13.6-21.7,36.4-34.7,61.1-34.7h62.9
	c17.7,0,34.6,6.4,47.5,17.9l0.9,0.8h29.2c7.1,0,12.4,5.3,12.4,12.4c0,7.1-5.3,12.4-12.4,12.4H476l1.3,3.9c2.6,7.9,3.8,15.5,3.8,23.9
	V256c0,53.7-43.7,97.4-97.4,97.4H373.8z M212.2,230c0-26-21.2-47.2-47.2-47.2h-62.9c-13.3,0-25.7,5.6-35,15.7
	c-8,8.6-12.2,19.5-12.2,31.4V256c0,40.4,32.9,73.3,73.3,73.3h10c19.5,0,38-7.6,51.9-21.5c13.9-13.8,21.7-32.2,22.1-51.8V230z
	 M373.8,329.3h10c40.8,0,74-32.9,74-73.3v-26.1c0-26-21.2-47.2-47.2-47.2h-62.9c-26,0-47.2,21.2-47.2,47.2V256
	C300.5,296.4,333.4,329.3,373.8,329.3z"/>
</svg>
