<?xml version="1.0" encoding="utf-8"?>
<!-- Generator: Adobe Illustrator 28.2.0, SVG Export Plug-In . SVG Version: 6.00 Build 0)  -->
<svg version="1.1"
	 id="svg8" xmlns:svg="http://www.w3.org/2000/svg" xmlns:rdf="http://www.w3.org/1999/02/22-rdf-syntax-ns#" xmlns:dc="http://purl.org/dc/elements/1.1/" xmlns:cc="http://creativecommons.org/ns#"
	 xmlns="http://www.w3.org/2000/svg" xmlns:xlink="http://www.w3.org/1999/xlink" x="0px" y="0px" viewBox="0 0 512 512"
	 style="enable-background:new 0 0 512 512;" xml:space="preserve">
<path d="M295.9,252.1l-24.7-13c17.7-33.6,11.7-74.3-15.1-101.2c-26.8-26.9-67.5-33.4-101.3-15.9L142.1,97
	c44.7-23,98.5-14.5,133.9,21.1C311.3,153.8,319.4,207.6,295.9,252.1z"/>
<path d="M512,432.6L366.2,293.1c15.5-28,24.4-60.2,24.4-94.4C390.6,91,303,3.3,195.3,3.3S0,91,0,198.7C0,306.4,87.6,394,195.3,394
	c35.3,0,68.4-9.4,97-25.8l146.8,140.5L512,432.6z M55.8,198.7c0-76.9,62.6-139.5,139.5-139.5s139.5,62.6,139.5,139.5
	c0,76.9-62.6,139.5-139.5,139.5S55.8,275.6,55.8,198.7z"/>
</svg>
