<svg xmlns="http://www.w3.org/2000/svg" xml:space="preserve" id="seaweedfs_svg__svg824" x="0" y="0" version="1.1" viewBox="0 0 512 512"><style>.seaweedfs_svg__st3{fill:#59686f}</style><path id="seaweedfs_svg__path28823" d="M29.6 2.4c-14.9 0-26.8 12-26.8 26.8v452.3c0 14.9 12 26.8 26.8 26.8h452.8c14.9 0 26.8-12 26.8-26.8V29.2c0-14.9-12-26.8-26.8-26.8z" style="fill:#005dad"/><linearGradient id="seaweedfs_svg__path11312_00000070077969696664391610000000748822419281109930_" x1="212.454" x2="206.082" y1="413.973" y2="368.95" gradientTransform="matrix(3.1669 0 0 -3.1669 -247.213 1673.09)" gradientUnits="userSpaceOnUse"><stop offset="0" style="stop-color:#2e82cf"/><stop offset="1" style="stop-color:#0066a5"/></linearGradient><path id="seaweedfs_svg__path11312" d="M490.5 428.8c0 41-33.3 74.3-74.3 74.3s-74.3-33.3-74.3-74.3 33.3-74.3 74.3-74.3 74.3 33.3 74.3 74.3" style="fill:url(#seaweedfs_svg__path11312_00000070077969696664391610000000748822419281109930_)"/><path id="seaweedfs_svg__rect27092" d="M390.6 446.8h47v37.6h-47z" style="fill:#0f5e9c"/><path d="M422.1 398c0 6.2-5.6 11.3-12.5 11.3s-12.5-5-12.5-11.3c0-6.2 5.6-11.3 12.5-11.3s12.5 5 12.5 11.3m31.1 6.3c0 6.2-5.6 11.3-12.5 11.3s-12.5-5-12.5-11.3c0-6.2 5.6-11.3 12.5-11.3 6.9.1 12.5 5.1 12.5 11.3m-20.3 17.2c0 6.2-5.6 11.3-12.5 11.3s-12.5-5-12.5-11.3c0-6.2 5.6-11.3 12.5-11.3s12.5 5.1 12.5 11.3" class="seaweedfs_svg__st3"/><path id="seaweedfs_svg__path3004" d="M408.2 431.8c-5.5-1.7 1.4-4.3.4-4.7-2.7-1 1.1-4.4 4.6-7.2 3.1-2.5 3.2-2.5 4.1-.3.5 1.3 1.7 2.6 2.7 3 2.2.8 8.1-.2 8.1-1.7 0-2.2 1.6-.5 3 2.5 2.3 5.1 2.3 10.4-1.2 10.4-2.1 0-4 .8-4.4 2.4-18.3 5.1-13.2.5-17.3-4.4m27.4-13.6c-5.2-2.1-9-11.3-9-16.7 0-7 7-14.8 13.3-14.8 14.1 0 22.4 11.2 15.9 32.8-1.6 5.3-17.3-.1-20.2-1.3m9.7-8.4c5.9-4.1 0-13.7-6.6-10.7-5.3 2.4-3 12.3 2.8 12.5.7 0 2.4-.8 3.8-1.8M440 406c-2-.7-1.9-4.7.2-5.4 1.8-.7 4.3 1.3 4.3 3.5-.1 1.6-2.4 2.6-4.5 1.9m-42.4 8.5c-8.3-4.6-7.2-21 .3-28.2 7-6.7 22.4-6.6 25.9 1.8 2.3 5.5 1.6 11.1-1.3 16.3-4.2 7.4-18.1 13.8-24.9 10.1m15-12c2.7-2.4 2.6-5.4 0-8.2-2.8-3.1-6.6-3.2-8.9.3-1.8 2.7-2.1 4.2-.3 6.9 2.2 3.5 6 3.9 9.2 1m-7.7-4.4c-.9-2.3 2.2-4.8 4.6-3.8 1 .4 1.7 1.7 1.5 2.8-.5 2.6-5.2 3.4-6.1 1" style="fill:#d3d6da"/><path d="m419.3 428.7-1.8-.8c-1.5-.3-2.5 1.2-2.8 2.7l-.9 4.1c-.3 1.5.6 3 2.2 3.4l3.3.7c1.5.3 3-.6 3.4-2.2l1-6c.3-1.5-.7-1.2-2.3-1.5l-1.5-.3c-.2 1-.4 2-.6 2.8-.1.6-.2 1.1-.3 1.6s-.2.9-.3 1.2c-.1.4-.2.7-.2.9-.1.3-.1.5-.2.6 0 .1 0 .1-.1.2v.1-.3c0-.2 0-.4.1-.6 0-.2.1-.5.1-.9 0-.3.1-.7.2-1.2.1-.4.1-.9.2-1.4s.2-1.1.3-1.7c0-.4.1-1 .2-1.4m-52.5-16.4c-.4-.9.1-2.4 1.1-3.2 1.4-1.2 2.1-1.1 3.6.4 1 1 1.5 2.4 1.1 3.2-1.1 1.9-5 1.6-5.8-.4m8.7-14.4c-1.3-1.5-1.2-2.2.4-3.8 1.8-1.8 2.1-1.8 4 0 1.6 1.6 1.7 2.3.4 3.8-.8 1-1.9 1.8-2.4 1.8-.5.1-1.6-.8-2.4-1.8m0-17.8c-1.3-1.5-1.2-2.2.2-3.6 1.9-1.9 5.7-1.1 5.7 1.2 0 1.5-2.3 4.3-3.7 4.3-.3-.1-1.4-.9-2.2-1.9" style="fill:#98c6d8"/><path id="seaweedfs_svg__path3004-5" d="M417.5 483.4c-11.9-1.5-27.7-5.8-30.1-8-4.5-4.1-1.6-22.5 3.7-27.2 3.2-2.8 16.1-6.6 23.7-4.8 8.7 2 23.8 12.3 24.9 15.3 1.3 3.6-.7 17.7-3.3 21.2-2.2 3-10.6 4.5-18.9 3.5m9.1-8.7c2.7-2.4 2.8-7.9.3-10.4-4-4-12.4-.9-12.4 4.6 0 6.6 7.3 10.1 12.1 5.8m-6.9-3.4c-1-2.5.3-5.3 2.4-5.3 2.6 0 3.4 2 1.9 4.7-1.5 2.9-3.4 3.1-4.3.6m-7.6.1c2.4-2.9 1-6.9-2.6-7.9-3.9-1-5.7 1-2.9 3.1 2.9 2.1 2.4 3.2-1.2 2.7-4.2-.5-6-3.5-4.5-7.7 1.5-4.3 6.8-5.3 8.8-1.6 1.6 2.9 3.1 3.1 4 .6 1.2-3-3.5-6.5-8.7-6.5-8.6 0-12.8 10-6.7 16.1 3.5 3.4 11.4 4.1 13.8 1.2" style="fill:#7ba9b9"/><path id="seaweedfs_svg__path3004-2" d="M425.1 490.6c-4.8-4.6 6.3-8.8 12.3-1.1 3 3.7-2.7 6-12.3 1.1m-49.3-10.3c-4.8-4.8 3-6.2 8.7-1.5l4.8 2.4-6.6.5c-3.1 0-6.1-.7-6.9-1.4m67.8-27.5c-1-1.6 10.5-5.6 11.7-4.9.6.3 1 3 1 5.9 0 3.8-.5 5.3-1.7 5.3-1 0-10.6-5.7-11-6.3M419.9 429c-13.3-1.2-11.5-6.2-8-9.1 2-1.7 3.4-2.5 5.5-2.9 0 0-.1 4.9 2.7 5.8 2.2.8 5.7-.9 6.4-2.3 6-12.2 3.3.1 4.7 3 4.9 15.7-5.9 7.7-11.3 5.5m-48.4.4c-2.4-2.6-4.3-5.3-4.3-5.9 0-1.5 3.7-1.5 7.6 0 2.6 1 15.8 1.7 15.8 5.7 0 2.6-5.1 9.2-5.7 9.2s-11-6.4-13.4-9" style="fill:#a6b3c2"/><path id="seaweedfs_svg__path11158" d="M419.3 428.7c-.1.5-.2 1-.2 1.4-.1.6-.2 1.2-.3 1.7s-.1 1-.2 1.4-.1.8-.2 1.2c0 .3-.1.6-.1.9 0 .2-.1.4-.1.6v.3-.1s0-.1.1-.2c0-.1.1-.3.2-.6s.1-.6.2-.9l.3-1.2c.1-.5.2-1 .3-1.6.2-.8.4-1.8.6-2.8z" style="fill:#4c9cbb"/><radialGradient id="seaweedfs_svg__path2364_00000067230138937708497920000000524521394583591849_" cx="134.584" cy="406.016" r="32.494" gradientTransform="matrix(5.4447 -.00545 -.00556 -5.5619 -589.898 2689.198)" gradientUnits="userSpaceOnUse"><stop offset="0" style="stop-color:#034f87"/><stop offset="1" style="stop-color:#50b1fa;stop-opacity:0"/></radialGradient><path id="seaweedfs_svg__path2364" d="M111.2 505c-16-6.2-33.6-20.7-43-35.5-11.9-18.7-15.5-32.3-13.1-50.7 2.2-17.2 8.1-26.9 25.2-41.5 24-20.4 43.2-29.7 64.7-31.2 32.5-2.3 51.1 8 60.1 33.4 3 8.5 3.7 30.1 1.4 48.6-.8 6.5-2 18.5-2.8 26.6-2.6 28.3-10.1 42.5-26.9 51.1-4.7 2.4-6.7 2.5-31.5 2.4-25.2-.3-26.8-.4-34.1-3.2M2.3 372.1c0-3.9.2-5.4.5-3.2.3 2.1.3 5.3 0 7.1s-.5.1-.5-3.9m-.3-9.6c.1-1.4.3-1.7.7-.7.3.9.3 1.9-.1 2.3s-.6-.3-.6-1.6m.1-95.4c0-1.6.3-2.3.6-1.5s.3 2.2 0 3-.6.1-.6-1.5" style="fill:url(#seaweedfs_svg__path2364_00000067230138937708497920000000524521394583591849_)"/><linearGradient id="seaweedfs_svg__path2364-8_00000167353857326947473930000018031941971017921418_" x1="175.27" x2="175.465" y1="420.379" y2="491.564" gradientTransform="matrix(3.1669 0 0 -3.1669 -247.213 1673.09)" gradientUnits="userSpaceOnUse"><stop offset="0" style="stop-color:#0569b4"/><stop offset=".474" style="stop-color:#4184c8"/><stop offset="1" style="stop-color:#0569b4;stop-opacity:.9248"/></linearGradient><path id="seaweedfs_svg__path2364-8" d="M289.3 357.4c-3.6-1.2-12.2-4.9-19.2-8.2-13.1-6.3-19.5-7.5-22.6-4.4-.9.9-5.1 3.4-9.3 5.6-6.5 3.4-9.1 4.1-17.2 4.4-8.4.4-10.7 0-19-3.3-11.4-4.4-19-8.7-18.7-10.5.1-.7-3.2-3.2-7.3-5.5-8.3-4.6-11-8.2-14.3-18.5-2.5-7.8-6.4-12.4-13-14.9-2.9-1.1-6-3.5-7.7-6-1.5-2.3-3.5-4.1-4.4-4.1-.8 0-2.7-3-4-6.7-1.9-5.2-2.4-8.9-2.2-16.9.1-5.9-.3-11.3-1.1-12.7-3.7-6.8-6.8-31.4-3.9-31.4.6 0 1.7-3.1 2.4-6.8 2.7-13.9 4.2-16.7 15.1-28.1 10.6-11.1 18.6-23.3 16-24.2-.8-.3-1.1-1-.6-1.7.4-.7 1.2-7.4 1.7-15 .9-13.4 3-21.5 8.8-35.2 2.3-5.4 7.4-12.6 8.7-12.2.5.1 2.3-.7 4.1-1.9 4.3-2.9 7.5-1.9 15.1 4.3 15.1 12.4 25.7 16.5 37.3 14.2 4.4-.9 6.3-.8 6.9.2.7 1 .9 1 .9 0 0-.8-.6-1.8-1.3-2.2-.8-.5 1.1-2 4.5-3.7 3.2-1.6 8.7-6 12.4-9.9 7.1-7.6 14.6-11.3 26.1-12.7 6.6-.8 18 2.4 17.1 4.8-.7 1.8 8.4 7 18.1 10.3 5.6 1.9 9.9 2.3 24.7 2.3 19.2 0 23.7-.6 22.8-3-.7-1.9 2.9-2.9 11.1-2.9 7.4 0 10.3 1.5 17.2 9.3 5.9 6.6 12.3 11 22 15 4.2 1.8 8.1 4 8.6 4.9.6 1.1 3.2 1.6 7.7 1.6 12.9 0 24.7-9.8 33.7-28 4.4-8.9 4.9-10.7 5.4-21.5.5-9.7.2-12.8-1.8-17.9-1.6-4.3-1.9-6.5-1.1-7.4.9-.9.7-1.9-.6-3.4-1-1.2-2.1-3-2.6-4.2-1.1-3.2-5.9-4.4-16.6-4.4-7.7 0-11 .6-15.7 2.8-7.6 3.5-10.3 8.6-11 20.6-.4 7.1-.1 9.2 2 12.6 1.4 2.2 2.2 4.3 1.8 4.7s1 1.5 3 2.6c4.5 2.3 4.6 1.5 1.3-8-4.4-12.4-2.4-24.3 4.5-26.7 2.3-.8 6.8-.9 12.9-.2 10.4 1.2 11.1 1.7 16.5 12.3 3.8 7.5 3.7 9-.6 17.9-2.7 5.6-4.6 7.9-8 9.6-2.4 1.2-4.7 2.6-5 3s-4.7 1.1-9.7 1.5c-8.6.8-9.2.7-11.3-2-1.2-1.5-3.7-3.8-5.5-5-5.2-3.4-7.9-10-7.9-18.9 0-7.2.5-9.3 4-17.3 1.8-4.2 4.5-7.2 5.7-6.4.6.4 2.4-.4 4.1-1.7 6.9-5.4 25.6-5.8 33.4-.7 1.6 1 3.3 1.6 3.9 1.2 1.6-1 5.6 4.8 8.5 12.2 3 7.8 4.2 28 2.2 36.7-1.8 7.9-7.4 20.2-9.5 20.8-3.6 1-6.1 13.4-5.7 28l.4 13.4 6.9 6.5c3.8 3.6 7.3 6.2 7.9 5.9 2.3-1.4 8 17.4 8.2 26.7 0 1.6 1.1 6.7 2.4 11.3s2.7 11.4 3.2 15.1c.7 5.8.6 6.8-1.1 6.8-1.5 0-1.9 1.2-1.9 5.5 0 11.9-6.6 29.5-16.1 42.7-3 4.2-5.1 8.1-4.8 8.7.4.6-.9 4.1-2.9 7.8s-3.6 7.8-3.6 9c0 5.1-5 15.3-9.5 19.4-6.1 5.5-13.8 9.4-19.1 9.7-3.7.2-18 6.4-27.2 11.8-3.7 2.1-13.4 2.2-24 .1-4.4-.9-8-1.1-8-.6 0 1.9-23.6 1.2-27.4-.8-3.9-2-4-2-12.1 4.4-7 5.5-20.2 12.3-20.8 10.7-.3-.8-1.7-.8-4.2-.1-6 1.7-12.9 1.3-20.1-1.1M451 89.3c2.5-2.4 4.5-5.1 4.5-5.9s1.6-2.6 3.6-4c4.8-3.4 4.6-7.4-.6-15.2l-4.2-6.2h-6.9c-5.7 0-7.3.5-9.5 2.8-5.4 5.7-5.7 14.3-.6 16.3 2.5 1 2.8 1.8 2.8 8 0 3.8.4 7.3.8 7.7 1.8 2 5.9.6 10.1-3.5" style="fill:url(#seaweedfs_svg__path2364-8_00000167353857326947473930000018031941971017921418_)"/><path id="seaweedfs_svg__path1136" d="m126.4 398.8 9.1-5.1 5.1 36.5-.4 26.3-13.7 6.8-8.6-15.5z" style="fill:#3060ad"/><path id="seaweedfs_svg__path7328" d="m138.4 413.4 2.2 27.8 13.9 4.7.4-58.8-11.3 2.9z" style="fill:#606368"/><path id="seaweedfs_svg__path2378" d="M126.6 463.3c-8.2-3.9-19.9-15.6-23.6-23.8-2.2-4.8-3.6-6.3-6.2-6.9-3.9-.9-3.8-.6-2-6.7 1-3.2 2-4.6 3.6-4.6 1.2 0 6.4-3.9 11.5-8.7s10.9-9.9 12.9-11.3l3.6-2.6 1.3 6c4.8 22.5 4.8 35.3-.2 42.3-3.8 5.3-2.7 7.6 3.4 7.6 2.9 0 4.4-.7 5.5-2.7 1.9-3.4 1.8-23.5-.3-39.5-2.5-19.1-2.6-18.5 3.9-21.2 3.1-1.3 5.8-2.1 6.1-1.8s-.3 4.8-1.2 10c-3.3 18.6-2.2 37.1 2.5 41 1.4 1.2 1.6-1.4 1-18-.8-21.5-.1-29.3 3-33.2 1.8-2.2 2.8-2.5 7.4-1.8 8.7 1.3 8.6 1.3 6 13.9-1.3 6.1-2.7 14-3.1 17.4l-.8 6.2 3-1.2c1.7-.6 5.3-2.3 8-3.7l5-2.5-.8 2.8c-.5 1.5-1.1 7.2-1.5 12.5l-.7 9.7-5.8-2.3c-3.2-1.3-6.3-2.3-7-2.3s-1.1 6.5-1.1 16c0 12.9-.3 16-1.7 16-11.8-1.5-19.7-.9-31.7-6.6" style="fill:#eec23b"/><path id="seaweedfs_svg__path2384" d="M147 468.8c0-.5.6-6.7 1.8-15.1 1.2-8.3 2.4-18.3 2.8-22 .4-3.8 1.2-6.6 1.7-6.2 2.4 1.5 4.7 32.6 3.9 39.8-.6 4.6-1.4 4.6-2.6 4.4-2.3-.3-5-.5-7.6-.9m-30.2-34.1c-3.2-.5-6.2-4.6-6.2-8.3 0-3.4 5-8.6 8.3-8.6 5.3 0 9.4 9.1 6.3 13.8-1.5 2.1-5.5 3.6-8.4 3.1" style="fill:#fff"/><path id="seaweedfs_svg__path2370" d="M403.6 486.7c-23.6-6.2-27.3-12-26.1-40.9.4-9.2 1-18.9 1.3-21.5 2-14.6 4.8-26.9 7.4-32.4 2.3-4.9 2.7-6.6 1.6-7.9-3.8-4.6 2.9-11.8 8.4-8.9 1.9 1 3.6.9 7.2-.5 11-4.4 32.3-.3 45.3 8.6 4.7 3.2 5.9 3.6 7.8 2.4 5.2-3.3 12 6.3 7.8 11-1.6 1.8-1.7 2.8-.7 6 2.8 7.9 2.6 8.8-10.8 49.7-8.5 26.2-12.2 34-16.7 35.5-5.6 2-23 1.4-32.5-1.1m30-8c1.6-2.4 2.9-6.7 3.4-11.8 1-9.3 1.1-9.1-11.3-15.1-9.3-4.5-22.8-5.7-29.8-2.8-3.6 1.5-4.4 2.7-6.3 8.9-3.3 11-1.3 17.5 6.2 19.8 4.6 1.4 29.1 5.2 32.2 5 2-.1 4-1.6 5.6-4m-10.9-45.1c.6-1.2.8-3 .8-3 1.7.3 2.8.4 3.7.6 1.3.2 3-.5 3.6-1.5 1.4-2.2-4.5-12.7-7.7-13.7-3.1-1-12.7 5-12.7 7.9 0 1.3 2.2 2.7 3.2 3 .5.2 1.5.8 2.6 1.5-.7 1.5-.8 1.9-.9 2.8-.4 2.7.4 3.4 3.9 4.2 2.5.2 2.8-.3 3.5-1.8m27.6-19.6c12.9-11.8-.7-33.2-16.1-25.2-3.8 2-7.2 8.3-7.2 13.3 0 7.8 7.7 15.8 15.2 15.8 2.7 0 5.1-1.2 8.1-3.9m-35.7-4.3c6.7-4.1 9.4-13.5 5.8-20.3-2.5-4.9-6.3-7.1-12.1-7.1-13.6 0-20.7 19-10.2 27.3 3.9 3 11.6 3.1 16.5.1" style="fill:#0996d1"/><path id="seaweedfs_svg__path2360" d="m117.7 100.9-2.7 4.4c-1.5 2.4-3.7 7.6-5 11.5s-3.1 9.3-4.1 11.9-1.8 8.8-1.8 13.7c-.1 10.4-1.4 16-5.2 21.5-2.4 3.6-3.3 4-7.4 3.7-5.3-.4-8.9 2.3-14.4 10.5-1.7 2.6-3.7 4.7-4.4 4.7s-2.5-1.5-4.1-3.3c-1.5-1.8-2.5-2.6-2.1-1.8 1.3 2.6-1.8 21.8-4.3 27.2-3 6.3-8.3 10.7-14.6 12-5.2 1.1-4.4 0-13 18.1-7 14.8-9.3 17.1-20.6 20.1-3.9 1-7.5 3.8-9 6.8v8.3c1.2-.3 2.8-.7 5.5-1.6 4.7-1.5 10.9-3.3 13.8-4 7-1.7 12.6-7.5 14.4-14.6 1.1-4.3 2.6-6.6 7-10.3 4.4-3.6 6-6 7-10.2 1-4.1 2.2-5.8 4.7-6.8 5.3-2.3 17.7-13.9 19.7-18.5 1-2.4 3-7.4 4.4-11.2 2.5-6.8 8.4-15 10.9-15 .7 0 4.6-2.2 8.7-4.8 9.9-6.5 11.2-9.3 11.2-25.8 0-11.5.3-13.4 2.5-16.2s2.6-4.9 2.7-16.7zm-30 135.9c-.4.1-.9.2-1.4.5-3.3 1.8-4.5 4.2-7.9 17.5-2 7.6-4 12.6-5.8 14.6-1.5 1.6-3.2 4.6-3.7 6.5-2.1 8.8-7 15.1-14.8 19-6.8 3.4-12.9 8.8-18.1 15.9-2.7 3.7-5.5 7-6.3 7.5-1.7 1-5.3 9.9-9 22.3-3 10.1-9.8 18.6-14 17.5-.7-.1-1.2-.1-1.6.5v26c1.9-3 4.2-6.7 8.7-14.3 6-10.1 13.2-21.9 16-26.1 2.7-4.2 7.1-11.4 9.6-16 3.8-6.8 6.8-10 16.7-18.1l12.1-9.8 6.2-18.7c9.4-28.6 12.1-31.8 25-30.5 5.8.6 9.7.2 14.6-1.2 7.2-2.1 8.2-3.8 4.3-7.2-2.4-2.1-6.9-2.1-17.4 0-3.1.6-4.4.1-8-3-2.6-2.3-3.9-3.1-5.2-2.9m25 71.1c-.2.1-.4.2-.7.4-.8.6-2.9 1.5-4.7 1.9-2.5.6-3.7 2.1-5.7 7.6-1.4 3.8-3.2 7.6-4.1 8.6-.8 1-2.6 4.2-3.9 7.2-3.9 9-8.7 13.3-21 19-11.2 5.2-11.3 5.3-14.4 12.1-1.9 4.2-3.4 10-3.8 15.3-.9 11.2-3.2 13.8-17.1 19.6-12.2 5.1-20.2 11.3-20.7 16.3-.6 5.4-2.8 7.1-8.4 6.4-1.3-.1-2.3-.2-3.2-.1v22.1c3.5-4.9 9.2-9.5 21.1-17.3 14-9.2 22-16.7 24.9-23.7 1.2-2.8 3.7-8.2 5.5-12s3.7-8.8 4.1-11c1.1-5.9 6.4-10.6 14.4-12.8 15.3-4.3 17.2-6.2 19.3-18.8 1.7-10.4 7.7-23.4 14.2-30.8 2.7-3 4.8-6.7 4.8-8.1.2-1.5 0-2.1-.6-1.9" style="fill:#359136"/><path id="seaweedfs_svg__path2354" d="M152.7 263.1c-5-1.3-5.3-1.6-5-4.9.2-2 .5-3.6.6-3.7s3.4.6 7.4 1.6c6.4 1.6 7.7 1.6 11.6-.1 5.6-2.3 7.6-6.5 5.6-11.4-1.1-2.7-3.6-4.6-10.1-7.8-11.2-5.5-13.9-8.4-14.5-15.7-.9-10.8 6.3-17 19.6-17 3.9 0 8.5.5 10.1 1.1 2.7 1 2.9 1.4 1.6 4.6-1.2 3.1-1.7 3.4-4.2 2.4-4.8-1.8-12.9-1.3-15.8 1.1-3 2.4-3.5 7.5-1.2 10.3.8 1 5.8 4 11 6.8 8.3 4.3 9.8 5.6 11.8 10.1 3 6.7 1.9 12.7-3.1 17.8-5.8 6-14.6 7.6-25.4 4.8m50.7-.1c-9-3.3-12.7-9.3-12.7-20.3 0-8.4 2.1-13.3 7.6-18.1 3.8-3.3 5.2-3.8 10.9-3.8 3.6 0 8.2.8 10.1 1.9 4.4 2.3 8.1 9.9 8.1 16.8v5h-28.8l.8 3.3c.4 1.8 2.4 4.8 4.4 6.6 3.4 3.2 4.2 3.4 12.1 3s8.5-.2 8.8 2.1c.4 3-1.4 3.9-10.4 4.7-3.9.3-8.1-.1-10.9-1.2m14.9-28.6c-.3-4.5-4.2-7.7-9.2-7.7-3.9 0-6.3 1.8-8.9 6.9-2.2 4.3-.6 5.1 9.2 4.8l9.1-.3zM241 263c-4.4-2-6.5-5.4-6.7-10.9-.2-8.6 6-13.8 18.5-15.4 6.3-.8 6.8-1.1 6.1-3.4-1.9-6.4-8.5-8.5-16.6-5.5-3.6 1.4-3.5 1.4-4.6-2-.7-2.1-.1-2.8 3.3-3.9 6.2-2 17-1.8 20.4.4 5.3 3.4 6.3 7.3 6.7 24.8l.4 16.3h-3.9q-3.9 0-3.9-1.8c0-2.2-1.2-2.3-4.3 0-3.7 2.7-11.1 3.4-15.4 1.4m15.9-8.6c1.9-2 2.7-4.4 2.7-7.8v-4.8l-5.4.6c-10 1.1-14.4 8.9-8.1 13.9 3.7 2.9 6.9 2.4 10.8-1.9m99.8 9.1c-8.7-2.6-14-10.5-14-20.9 0-13.4 8-22 20.4-22.1 9.9-.1 16.1 6.5 16.7 17.5l.3 5.8-13.1.3c-7.2.2-13.7.5-14.5.8-2.2.8.5 7.3 4.2 10.3 2.7 2.2 4.2 2.4 11.6 1.9 8.2-.6 8.5-.5 9 2.2.5 2.5-.1 2.9-5.3 4.1-6.5 1.5-10.7 1.5-15.3.1m14.5-27.7c0-4.7-4.3-9.1-9-9.1-4.8 0-9.9 4.7-9.9 9.1 0 2.7.3 2.8 9.5 2.8 9.1 0 9.4-.1 9.4-2.8m29.3 27.5c-9.5-2.5-14.9-12.2-13.4-24.1 1.5-12.2 8.3-18.4 20.1-18.4 6.3 0 7.3.4 10.9 3.9 3.9 3.9 6.5 10.5 6.5 16.6v3.3h-14.2c-13.6 0-14.2.1-14.2 2.5 0 7.2 6.6 11.2 17.3 10.3 6.8-.5 7.5-.4 8 1.9.8 3.1.7 3.1-4.8 4.4-5.7 1.2-10.4 1.1-16.2-.4m14.8-28.3c-.6-4.6-4.8-8.3-9.2-8.3-4.3 0-10 5.5-10 9.6 0 2.2.7 2.3 9.8 2 9.7-.3 9.8-.4 9.4-3.3m26.2 27.7c-5-2.5-8.2-7-9.7-13.9-2.2-10 .4-19.3 7.1-24.9 4.9-4.1 14.6-4.4 19.4-.6l3.1 2.5v-24h9.4v61.8h-4.2c-3.7 0-4.2-.3-4.2-3.2v-3.2l-2.7 2.5c-5.2 5.1-11.8 6.2-18.2 3m16.4-8.6c3.2-3.2 3.5-4.2 3.5-12 0-7.9-.3-8.8-3.6-12.1-3-3-4.2-3.5-7.4-2.9-10.7 2.1-13.9 20.8-4.8 28 4.3 3.4 8.3 3.1 12.3-1m-175.6-11.2c-3.4-11.3-6.1-20.9-6.1-21.4 0-.4 2-.8 4.5-.8h4.5l4 16.9c2.2 9.3 4.1 16.4 4.3 15.7s2.5-8.1 5-16.6l4.6-15.4h7.8l4.1 14.8c2.3 8.2 4.4 15.6 4.7 16.6s2.5-5.8 4.8-15.1l4.2-16.9h4.7c3.6 0 4.6.4 4.1 1.7-.4 1-3.5 10.6-6.9 21.4l-6.2 19.6h-8.6l-3.9-14c-2.2-7.7-4.2-14.8-4.5-15.7-.7-2-.3-2.9-6.3 16.9l-3.9 12.8h-8.8z" style="fill:#30274f"/><radialGradient id="seaweedfs_svg__path1933-7-6-8-6_00000132088767032666249210000006619496254227766413_" cx="96.374" cy="499.63" r="4.651" gradientTransform="matrix(2.4252 -.02082 -.02181 -2.5402 -134.018 1354.248)" gradientUnits="userSpaceOnUse"><stop offset="0" style="stop-color:#88a3d0"/><stop offset="1" style="stop-color:#5d83bf"/></radialGradient><path id="seaweedfs_svg__path1933-7-6-8-6" d="M84.9 98c-11.4-3.3-14.6-18-5.6-26.5 9.5-9.1 24.3-1.9 24.3 11.8-.1 10.3-9.2 17.5-18.7 14.7" style="fill:url(#seaweedfs_svg__path1933-7-6-8-6_00000132088767032666249210000006619496254227766413_)"/><radialGradient id="seaweedfs_svg__path1933-7_00000096757933501685939340000013012723542975964082_" cx="102" cy="399.43" r="1.456" gradientTransform="matrix(3.1669 0 0 -3.6313 -247.213 1869.425)" gradientUnits="userSpaceOnUse"><stop offset="0" style="stop-color:#88a3d0"/><stop offset="1" style="stop-color:#5d83bf"/></radialGradient><path id="seaweedfs_svg__path1933-7" d="M72.4 422.5c-3.4-4.1 1.3-10.9 5.6-8.2 4.2 2.7 2.7 10-2.1 10-1.2 0-2.8-.8-3.5-1.8" style="fill:url(#seaweedfs_svg__path1933-7_00000096757933501685939340000013012723542975964082_)"/><radialGradient id="seaweedfs_svg__path1933-7-6_00000143616479792541262150000009644380808595192757_" cx="106.259" cy="405.904" r="2.75" gradientTransform="matrix(3.1669 0 0 -3.2909 -247.213 1726.44)" gradientUnits="userSpaceOnUse"><stop offset="0" style="stop-color:#88a3d0"/><stop offset="1" style="stop-color:#5d83bf"/></radialGradient><path id="seaweedfs_svg__path1933-7-6" d="M86 399.1c-6.1-3.3-7.2-10-2.4-14.7 3.3-3.3 7.3-3.7 10.9-1.2 5.7 4 4.3 13.7-2.3 16 0 0-4 1.2-6.2-.1" style="fill:url(#seaweedfs_svg__path1933-7-6_00000143616479792541262150000009644380808595192757_)"/><radialGradient id="seaweedfs_svg__path1933-7-6-8_00000044139035343770730420000012920978284887948205_" cx="89.401" cy="476.508" r="2.739" gradientTransform="matrix(3.1669 0 0 -3.2457 -247.213 1711.784)" gradientUnits="userSpaceOnUse"><stop offset="0" style="stop-color:#88a3d0"/><stop offset="1" style="stop-color:#5d83bf"/></radialGradient><path id="seaweedfs_svg__path1933-7-6-8" d="M29.5 171.7c-5.1-5.1-1-15.4 6.1-15.4 5.3 0 9.8 5 8.9 9.8-.4 2-1.6 4.7-2.7 5.9-2.7 2.9-9.3 2.7-12.3-.3" style="fill:url(#seaweedfs_svg__path1933-7-6-8_00000044139035343770730420000012920978284887948205_)"/><path id="seaweedfs_svg__path18907" d="M121 425.2c0 2.2-1.8 4.1-4.1 4.1-2.2 0-4.1-1.8-4.1-4.1 0-2.2 1.8-4.1 4.1-4.1s4.1 1.9 4.1 4.1"/><path id="seaweedfs_svg__path28825" d="M29.6.2C13.3.2 0 13.5 0 29.8v452.3c0 16.4 13.3 29.6 29.6 29.6h452.8c16.4 0 29.6-13.3 29.6-29.6V29.8C512 13.4 498.8.2 482.4.2zm0 5.6h452.8c13.4 0 24 10.7 24 24v452.3c0 13.4-10.7 24-24 24H29.6c-13.4 0-24-10.7-24-24V29.8c0-13.3 10.6-24 24-24" style="fill:#b3b3b3"/><path id="seaweedfs_svg__path1004" d="M427.2 419c0 2.5-2.3 4.6-5.2 4.6s-5.2-2.1-5.2-4.6 2.3-4.6 5.2-4.6 5.2 2.1 5.2 4.6" class="seaweedfs_svg__st3"/></svg>