<svg xmlns="http://www.w3.org/2000/svg" xml:space="preserve" viewBox="0 0 512 512"><path d="M440.4 205.8c4.8 0 8-3.2 8-8V67.3c0-4.8-4-8-8.8-8C367.5 64.9 289 28.9 261.8 2.4c-3.2-3.2-8-3.2-11.2 0-27.2 27.2-105.7 62.5-177.8 56.9-4.8 0-8.8 3.2-8.8 8v193c0 61.7 27.2 119.3 74.5 157.8l112.1 92.1c3.2 2.4 7.2 2.4 10.4 0l112.1-92.1c47.3-39.2 74.5-96.9 74.5-157.8v-25.6c0-4.8-3.2-8-8-8s-8 3.2-8 8v25.6c0 52.1-20.8 100.1-57.7 136.2v-44.9c0-12-9.6-22.4-22.4-22.4h-49.7V310h49.7c12 0 22.4-9.6 22.4-22.4V258h4.8c17.6 0 32-14.4 32-32s-14.4-32-32-32H374v-37c0-12-9.6-22.4-22.4-22.4h-52.1c-3.2-18.4-17.6-32.8-35.2-36V76.9c0-4.8-3.2-8-8-8s-8 3.2-8 8v21.6c-17.6 3.2-32 17.6-35.2 36H161c-12 0-22.4 9.6-22.4 22.4v36.8h-4.8c-17.6 0-32 14.4-32 32s14.4 32 32 32h4.8v30.4c0 12 9.6 22.4 22.4 22.4h49.7V330H161c-12 0-22.4 9.6-22.4 22.4v44.9c-36.8-35.2-57.7-84.1-57.7-136.2v-185C151.3 78.5 225 46.5 257 19.2c32 28 105.7 59.3 175.4 56.9v121.7c0 4 4 8 8 8m-65.6 4.8h4.8c8.8 0 16 7.2 16 16s-7.2 16-16 16h-4.8zm-235.5 32.1h-4.8c-8.8 0-16-7.2-16-16s7.2-16 16-16h4.8zM257 114.5c12.8 0 24 8.8 27.2 20.8h-54.5c3.3-12 14.5-20.8 27.3-20.8m-95.3 180.2c-4 0-6.4-3.2-6.4-6.4V157.7c0-3.2 2.4-6.4 6.4-6.4h191.4c3.2 0 6.4 2.4 6.4 6.4v130.6c0 3.2-3.2 6.4-6.4 6.4zm125 16.1V330h-60.1v-19.2zm-131.4 40.8c0-3.2 2.4-5.6 6.4-5.6h191.4c3.2 0 6.4 2.4 6.4 6.4v58.5L257 494.2l-101.7-84.1zm132.1-100.9c0 16.8-13.6 30.4-30.4 30.4s-30.4-13.6-30.4-30.4c0-4.8 3.2-8 8-8s8 3.2 8 8c0 8 6.4 14.4 14.4 14.4s14.4-6.4 14.4-14.4c0-4.8 3.2-8 8-8s8 3.2 8 8m-48-52.9c0-20-16-36-36-36s-36 16-36 36 16 36 36 36c19.2.1 36-15.9 36-36m-36.9 20c-11.2 0-20-8.8-20-20s8.8-20 20-20 20 8.8 20 20-8.8 20-20 20m109-55.9c-20 0-36 16-36 36-.9 20 16 36 36 36s36-16 36-36-16-36-36-36m0 55.1c-11.2 0-20-8.8-20-20-.8-10.4 8.8-20 20-20s20 8.8 20 20-8.8 20-20 20m-22.4 209.1V378c0-4.8-3.2-8-8-8H233c-4.8 0-8 3.2-8 8v48.1c0 4 3.2 8 8 8h48.1c4.8 0 8-3.2 8-8m-16.1-8h-32v-32h32z" style="fill:#111"/></svg>