<?xml version="1.0" encoding="utf-8"?>
<!-- Generator: Adobe Illustrator 28.2.0, SVG Export Plug-In . SVG Version: 6.00 Build 0)  -->
<svg version="1.1" id="Layer_1" xmlns="http://www.w3.org/2000/svg" xmlns:xlink="http://www.w3.org/1999/xlink" x="0px" y="0px"
	 viewBox="0 0 512 512" style="enable-background:new 0 0 512 512;" xml:space="preserve">
<style type="text/css">
	.st0{fill:#FFFFFF;}
</style>
<path class="st0" d="M389.1,275.7c-17.1,12.6-66,17-134.2,12l-20.3-1.5l16.3,12.3c43.7,33,68,62.6,66.7,81.3
	c-1.2,16.1-9.7,24.4-29.1,28.5c-41,8.6-148.1,10.6-187.3,11l62.9-62.9l52.8-52.7l0,0.1l17.4-17.3l0,0l85.4-85.4l0,0l13.3-13.3
	l6.8,5.3c32,25.1,53.4,47.2,57.3,59.1C399.1,258.4,394.6,271.7,389.1,275.7z M225.3,263.5l0.9,13.8l6.3-6.3l0.1,0.1l76.2-76.1
	l15.7-15.7l-5.7-7.4c-24.5-32.1-46.4-53.2-58.6-56.6c-1.1-0.3-2.3-0.4-3.7-0.4c-7.1,0-17.2,3.7-19.9,7.9
	C224.6,141,220.4,192.3,225.3,263.5z M92.4,246c-8.7,42.7-3.3,132.5-0.9,165.9l64.4-64.3l69.3-69.3L215,268.1
	c-39.2-39.7-73.3-62.4-93.7-62.4c-0.2,0-0.5,0-0.7,0C107.7,206.1,95.7,229.8,92.4,246z M410.8,109.9l-72.6,72.6l5.1-0.1
	c50.9-0.6,87.6-6.5,98.2-16c3.1-2.7,4.6-5.6,4.7-9c0.3-10.5-12.6-24.6-22.4-34.4L410.8,109.9z M355.5,66.3
	C355.5,66.3,355.5,66.3,355.5,66.3c-3.7,0-6.9,1.5-10,4.6c-9.9,9.9-15.9,46.3-16,97.3l0,6l72.7-72.7l-13.2-13.2
	C379,78,366,66.3,355.5,66.3z M265.4,482.2c58.2-13.9,106.7-42.6,157.3-93.2c73.2-73.2,65.7-177.8,60.2-254.2
	c-3.1-42.2-5.9-82.2,7.5-95.6L512,17.6l-30.5,0.2c-17.3,0.1-33.7,0-49.5,0C284,17.5,194.7,17.3,89,123
	c-73.2,73.2-65.7,177.9-60.2,254.3c3.1,42.2,6,82-7.4,95.3L0,494h30.3c15.4,0,30.2,0.1,44.4,0.2c14.7,0.1,28.7,0.2,42.2,0.2
	C173.7,494.4,221.4,492.7,265.4,482.2z M53.9,375.5c-5.4-75.6-12.2-169.7,52.9-234.8C205.1,42.4,285.7,42.5,432,42.8
	c9.2,0,18.6,0,28.2,0c-7.4,23.1-5,55.4-2.3,93.7c5.4,75.6,12.2,169.6-52.9,234.7c-99.4,99.5-181.4,98.9-330.1,97.9
	c-7.6,0-15.4-0.1-23.3-0.1C59,446,56.6,413.7,53.9,375.5z"/>
</svg>
