<?xml version="1.0" encoding="utf-8"?>
<!-- Generator: Adobe Illustrator 28.2.0, SVG Export Plug-In . SVG Version: 6.00 Build 0)  -->
<svg version="1.1" id="Layer_1" xmlns="http://www.w3.org/2000/svg" xmlns:xlink="http://www.w3.org/1999/xlink" x="0px" y="0px"
	 viewBox="0 0 512 512" style="enable-background:new 0 0 512 512;" xml:space="preserve">
<style type="text/css">
	.st0{fill:#2BB673;}
	.st1{fill:#018345;}
	.st2{fill:#81CAA6;}
	.st3{fill:#006838;}
</style>
<path id="leaf" class="st0" d="M32.7,484.3c45-44.9-45.3-236.7,67.6-349.6S304,34.1,484,33.1c-45.1,45.1,45.1,237-67.7,349.8
	S213.2,484.6,32.7,484.3z"/>
<path class="st1" d="M428.2,118.8c-4.4-4.4-17.4-17.4-17.4-17.4l-78.5,78.5h0l-98.9,98.8c-0.1,0-0.1-0.1-0.1-0.1L86.6,425.4
	c0,0,151.5-0.5,203.1-11.3c19-4,32.3-12.7,33.9-33.9c2.1-28.3-41.7-65.9-69.1-86.5c42.4,3.1,113.4,5.1,138.2-13.2
	c7.4-5.4,12.9-21.5,10.1-30.1c-6-18.4-41-47.7-59.4-62c30-0.3,85.8-3,102.2-17.5C461.9,156.5,445.6,136.2,428.2,118.8z"/>
<path class="st2" d="M410.8,101.4L393.4,84c-17.3-17.4-36.7-32.8-52.1-17.4c-15.4,15.4-17.7,71.1-17.7,101.5
	c-14.3-18.7-43-53.6-61.8-58.7c-8.7-2.4-25.3,2.5-30.2,10c-17.6,26.7-15.1,103.4-12.3,144.5c-22.8-23.1-68.4-65-98.9-64.2
	c-17.3,0.5-30.3,27.5-33.9,45.1c-11,54.3,0,180.6,0,180.6l135-134.9c0,0.1,0,0.1,0,0.1l102.4-102.3c0,0,0,0,0,0L410.8,101.4z"/>
<path class="st3" d="M116.9,494.4c-13.5,0-27.5-0.1-42.2-0.2c-14.2-0.1-29-0.2-44.4-0.2H0l21.4-21.4c13.4-13.3,10.5-53.1,7.4-95.3
	C23.3,300.9,15.8,196.2,89,123C194.7,17.3,284,17.5,432,17.8c15.8,0,32.2,0.1,49.5,0l30.5-0.2l-21.6,21.6
	c-13.4,13.4-10.6,53.4-7.5,95.6c5.5,76.4,13,181-60.2,254.2c-50.6,50.6-99.1,79.3-157.3,93.2C221.4,492.7,173.7,494.4,116.9,494.4z
	 M51.6,469c7.9,0,15.7,0.1,23.3,0.1c148.7,1,230.7,1.6,330.1-97.9c65.1-65.1,58.3-159.1,52.9-234.7c-2.7-38.3-5.1-70.6,2.3-93.7
	c-9.6,0-19,0-28.2,0c-146.3-0.3-226.9-0.4-325.2,97.9c-65.1,65.1-58.3,159.2-52.9,234.8C56.6,413.7,59,446,51.6,469z"/>
</svg>
