<?xml version="1.0" encoding="utf-8"?>
<!-- Generator: Adobe Illustrator 28.2.0, SVG Export Plug-In . SVG Version: 6.00 Build 0)  -->
<svg version="1.1" id="Layer_1" xmlns="http://www.w3.org/2000/svg" xmlns:xlink="http://www.w3.org/1999/xlink" x="0px" y="0px"
	 viewBox="0 0 512 512" style="enable-background:new 0 0 512 512;" xml:space="preserve">
<style type="text/css">
	.st0{fill:#10B981;}
	.st1{fill:#FFFFFF;}
</style>
<path class="st0" d="M114.8,0h282.5c63.4,0,114.8,56.1,114.8,125.2v261.6c0,69.1-51.4,125.2-114.8,125.2H114.8
	C51.4,512,0,455.9,0,386.8V125.2C0,56,51.4,0,114.8,0z"/>
<path class="st1" d="M184.9,396.8c0,26.2-21.3,47.5-47.5,47.5l0,0c-26.2,0-47.5-21.3-47.5-47.5l0,0c0-26.2,21.3-47.5,47.5-47.5l0,0
	C163.6,349.2,184.9,370.5,184.9,396.8L184.9,396.8z M417.4,117.6c0,26.2-21.3,47.5-47.5,47.5l0,0c-26.2,0-47.5-21.3-47.5-47.5l0,0
	c0-26.2,21.3-47.5,47.5-47.5l0,0C396.1,70.1,417.4,91.5,417.4,117.6L417.4,117.6z M206.2,69.5c-16.6,0-32.1,3.1-46.5,9.4
	c-14.5,6.1-27.1,14.5-37.8,25.2s-19.2,23.3-25.5,37.8c-6.1,14.5-9.1,30-9.1,46.5s3,32.1,9.1,46.5c6.3,14.5,14.8,27.2,25.5,38.1
	c10.7,10.7,23.3,19.2,37.8,25.5s30,9.4,46.5,9.4h99.3c6.5,0,12.1,1,16.8,3.1c4.7,2.1,7,6.5,7,13.3c0,6.5-2.3,12.1-7,16.8
	c-4.7,4.7-10.3,7-16.8,7H204.2c10,13.7,16.1,30.3,16.1,48.4c0,17.3-5.5,33.4-14.7,46.8h99.9c16.3,0,31.7-3,46.2-9.1
	c14.5-6.3,27.1-14.8,37.8-25.5c10.7-11,19.2-23.6,25.5-37.8c6.3-14.5,9.4-30,9.4-46.5c0-16.3-3.1-31.4-9.4-45.1
	c-6.3-13.8-14.8-25.5-25.5-35.3c-10.7-9.7-23.3-17.3-37.8-22.7c-14.5-5.6-29.9-8.4-46.2-8.4h-99.4c-6.5,0-12.1-2.3-16.8-7
	c-4.7-4.9-7-10.7-7-17.5c0-6.5,2.3-12.1,7-16.8c4.7-4.7,10.3-7,16.8-7h95.6c-9.4-13.4-14.9-29.6-14.9-47c0-17.9,6-34.5,15.9-48.2
	h-96.5V69.5z"/>
</svg>
