<svg xmlns="http://www.w3.org/2000/svg" xml:space="preserve" viewBox="0 0 512 512"><ellipse cx="256" cy="256" rx="256" ry="254.5" style="fill:#fff"/><path d="M359.5 141.8V184h39.9v177.1H112.6l144.6 149.4c127.1-.6 232.3-93.3 251.6-214.4z" style="fill:#c5c2c3"/><path d="M359.5 184v-43.7h-42.4V97.5H194.9v42.8h-42.4V184h-39.9v177.1h286.8V184zM146 353.7h-22.4v-45.3H146zm34.4 0H158v-45.3h22.4zm34.4 0h-22.4v-45.3h22.4zm34.4 0h-22.4v-45.3h22.4zm34.4 0h-22.4v-45.3h22.4zm34.4 0h-22.4v-45.3H318zm34.4 0H330v-45.3h22.4zm34.4 0h-22.4v-45.3h22.4z" style="fill:#2e2e2e"/></svg>