<?xml version="1.0" encoding="utf-8"?>
<!-- Generator: Adobe Illustrator 28.2.0, SVG Export Plug-In . SVG Version: 6.00 Build 0)  -->
<svg version="1.1"
	 id="svg5" xmlns:svg="http://www.w3.org/2000/svg" xmlns:sodipodi="http://sodipodi.sourceforge.net/DTD/sodipodi-0.dtd" xmlns:inkscape="http://www.inkscape.org/namespaces/inkscape" inkscape:version="1.1.1 (3bf5ae0d25, 2021-09-20)" sodipodi:docname="favicon.svg"
	 xmlns="http://www.w3.org/2000/svg" xmlns:xlink="http://www.w3.org/1999/xlink" x="0px" y="0px" viewBox="0 0 512 512"
	 style="enable-background:new 0 0 512 512;" xml:space="preserve">
<path d="M256,0C114.6,0,0,114.6,0,256s114.6,256,256,256s256-114.6,256-256S397.4,0,256,0z M256.1,465.3c-28.3,0-51.3-23-51.3-51.3
	s23-51.3,51.3-51.3s51.3,23,51.3,51.3S284.4,465.3,256.1,465.3z M256.1,311.5c-28.3,0-51.3-23-51.3-51.3s23-51.3,51.3-51.3
	s51.3,23,51.3,51.3S284.4,311.5,256.1,311.5z M256.1,157.6c-28.3,0-51.3-23-51.3-51.3s23-51.3,51.3-51.3s51.3,23,51.3,51.3
	S284.4,157.6,256.1,157.6z"/>
</svg>
