<svg xmlns="http://www.w3.org/2000/svg" xml:space="preserve" viewBox="0 0 512 512"><path d="m510.1 192.1-2.6-2.4-4.5-3.4-4.8-3.7-4.6-3.5-5-3.7-4.8-3.8-10.7-7.9-5-3.8-3.7-2.6-3-2.4-.8-1.1-.2-2.1-.3-12.3-.3-46.5-.2-20.5-.3-13.1-.3-3.7-1.8-2.1-1.1-.8-1.6-.3-4.2-.2-12.8-.3-73.2-.3h-37.5l-3.5-1.8-2.9-2.2-4.8-3.4-4-3.2-4.2-3.2-5.1-3.7-3.7-3-5.6-4.2-4.3-3.2-4.8-3.7-5.3-4-4.8-3.8-11.7-8.7-4.8-3-1-.5h-.8l-4.3 2.1-4.5 3.2-10.1 7.7-4.3 3.2-3.7 3-4.8 3.7-5.1 3.7-4.7 3.7-5.6 4.3-4.3 3.2-4.8 3.7-5.3 4-4.8 3.7-2.9 1.9-2.2.5-121.3.3-5.3.5-2.9 1.1-1.4 1.3-.8 2.1-.2 2.4-.3 9.1-.3 17-.2 64.2-.3 3.9-1.3 1.4-3.2 2.6-5.1 3.8-5.6 4.2-5 3.7-3.5 2.7-9.6 7.2-4.5 3.5-5.6 4.2-2.6 2.1-2.7 2.4-1.3 1.6-.3 1.1-.3 46.6v235.2l.3 27.7.5 3.2 1.6 2.4 3 1.8 1.8.8 2.1.3h12l24.5-.3 136-.5h130.9l115.8.5h71.8l3.7-.5 2.7-1.1 2.1-1.6 1.6-2.6.6-1.4v-15.1l-.3-28-.3-73.7v-92.6l.3-68.4.3-23.9v-6.1l-.3-3z" style="fill:#1682dc"/><path d="m281.3 183.1.3 1.9v4.5l-.6 4.5-1.3 3.7-2.4 4.5-2.9 3.7-1.9 1.9-4 2.7-4.3 1.9-3.2.8-1.6.3h-6.9l-4.5-1.1-4-1.6-2.9-1.6-2.4-1.9-2.9-2.9-2.4-3.7-1.9-4.3-1.1-4.5-.3-2.7V186l.5-3.5 1.1-3.5 1.9-3.7 1.9-2.7 2.4-2.7 2.1-2.1 3.7-2.7 3.7-1.6 4-1.1 2.7-.3 4.5.3 5.1 1.1 4 1.6 3.2 1.9 2.9 2.4 2.7 2.7 2.1 3.5 1.9 4.3zM443.6 77.7v49l-.3 104-.8 1.3-4.3 3.2-15.2 11.2-3.7 2.9-5.6 4.3-5.1 3.7-3.7 2.9-4.9 3.8-4.8 3.7-3.5 2.7-7.5 5.6-3.5 2.7-5.6 4.3-5.1 3.7-4 3.2-3.7 2.7-6.9 5.3-7.5 5.6-6.9 5.3-3.7 2.7-4.8 3.7-4.5 3.5-5.1 3.7-3.5 2.7-3.7 2.9-4.3 3.2-5.6 4.3-3.7 3.2-1.1.3-2.4-1.3-2.9-2.4-4.8-3.5-5.6-4.3-3.2-2.4-10.1-7.7-5.1-3.7-2.7-2.1-4-2.7-3.7-1.9-1.9.3-3.7 1.9-9 6.4-3.5 2.7-4.8 3.7-5.1 3.7-4.3 3.5-8.5 6.4-3.7 2.9-1.3.5-2.4-1.6-2.7-2.4-7.5-5.3-4.3-3.2-3.5-2.7-5.6-4.3-4.3-3.2-3.5-2.7-5.1-3.7-3.7-2.9-5.6-4.3-2.9-2.1-4.8-3.7-3.2-2.4-5.1-3.7-3.7-2.9-5.3-4-3.5-2.7-4.3-3.2-4.5-3.5-7.5-5.6-4.5-3.5-5.1-3.7-3.7-2.9-5.6-4.3-5.1-3.7-3.7-2.9-4.3-3.2-2.4-1.9-5.6-4.3-5.1-3.7-4.5-3.7-.3-1.1-.3-83.8.4-30.2V88.3l.3-18.9.3-.5.8-.3h73.4l140.8.3h24.2l25.8-.3h109.1l.8.5zM332.9 194.5l-.3-7.5-.5-7.7-1.1-6.9-1.9-6.7-2.7-6.9-3.5-7.2-2.4-4.3-2.7-4-2.7-3.7-2.1-2.7-4.5-4.5-2.7-2.4-2.9-2.4-4.5-3.2-6.1-3.7-7.7-3.7-5.6-2.1-5.3-1.6-6.9-1.3-7.5-.8h-7.7l-3.2.3-5.3.8-7.2 1.6-8 2.7-5.1 2.1-5.1 2.7-4 2.4-4.5 3.2-3.7 2.9-5.1 5.1-2.9 3.2-2.4 2.9-3.2 4.5-2.9 4.8-3.7 7.5-2.1 5.9-1.6 5.3-1.6 7.7-.8 6.9v10.1l.8 6.1 1.6 7.2 2.7 8 2.4 5.6 3.7 6.9 3.2 5.1 2.7 3.5 2.4 2.9 6.7 6.7 4.5 3.7 5.3 3.7 5.6 3.2 5.1 2.4 7.5 2.7 4.5 1.3 7.7 1.6 9 .8H280l1.9-.3 2.7-.8 1.9-1.3 2.7-2.7 1.3-2.7v-1.9l-.3-.8-1.3-2.7-1.9-2.1-2.1-1.6-2.7-.8h-25l-5.9-.3-6.7-1.1-6.7-1.6-5.1-1.9-5.3-2.4-3.2-1.9-4-2.7-2.9-2.1-4.5-4.5-2.4-2.7-3.2-4.3-2.4-3.5-2.1-4-2.7-6.1-1.9-6.4-1.3-6.7-.5-5.1v-6.7l.5-4.5 1.1-5.3 1.6-5.3 2.1-5.6 2.4-4.5 2.4-4 2.9-4 1.9-2.1 2.1-2.1 4-3.7 2.9-2.4 3.5-2.4 3.5-2.1 5.6-2.7 6.4-2.1 6.1-1.3 5.3-.5h9.3l3.5.3 3.7.5 5.6 1.3 5.1 1.6 5.1 2.4 4.3 2.4 3.7 2.4 4.3 3.2 2.9 2.7 3.7 4 3.2 4.3 3.2 5.3 2.7 5.6 2.7 8 1.1 5.1.8 7.2.3 7.2V203l-.5 3.7-1.3 2.9-2.4 2.4-2.7 1.3h-3.5l-1.1-.3-2.4-1.3-1.6-1.9-1.1-2.1-.5-3.7v-15.7l-.3-5.3-.5-3.7-1.1-3.5-2.1-5.6-3.2-5.9-2.1-2.9-2.9-3.7-2.4-2.1-2.7-2.1-2.7-1.9-4.3-2.4-5.6-2.4-4.3-1.1-5.6-.8h-6.7l-2.4.3-4.3.8-4.8 1.3-4.3 1.9-4.3 2.4-4.5 3.5-2.1 2.1-2.9 3.2-2.7 3.5-2.4 4.3-2.4 5.6-1.6 5.6-.8 5.1v6.1l.3 2.4 1.1 5.1 1.3 4.3 2.4 5.3 2.4 4 2.9 4 3.2 3.5 3.5 2.9 2.9 2.1 4 2.4 4.8 2.1 5.3 1.6 5.3 1.1h6.4l5.3-1.1 6.7-2.1 5.6-2.7 3.7-2.4 4.5-3.2 1.3-.3.8.5 1.3 1.9 2.4 2.4 2.9 2.1 2.9 1.9 3.7 1.6 4.3 1.3h3.7l3.2-.5 4-1.3 4-1.9 4-2.7 3.2-3.2 2.4-3.2 2.4-4.5 1.3-4.3.5-3.7v-11.5z" style="fill:#fdfcfd"/><path d="m255.7 326.5 1.3.5 2.7 2.1 5.3 4 4.8 3.5 4.5 3.5 4.8 3.5 3.5 2.7 4.8 3.7 4.8 3.5 2.7 2.1 9.6 7.2 2.7 2.1L322 376l4.5 3.5 5.1 3.7 2.7 2.1 11.7 8.8 3.5 2.7 8.5 6.4 4.8 3.7 4 2.9 4.8 3.7 3.2 2.4 5.1 3.7 4.8 3.7 5.1 3.7 10.1 7.7 5.1 3.7 4.8 3.7 5.1 3.7 10.1 7.7 2.4 1.9 3.2 2.4 5.6 4.3 4.3 3.2 5.6 4.3 3.5 2.7 5.1 3.7 4.3 3.5 2.9 2.1 5.1 3.7 3.7 2.9 2.9 2.1 3.5 2.7.3 1.1-2.1.3h-28.2l-32.2.3-366.7-.3H37l-2.1-.3 1.1-1.3 5.1-3.7 3.5-2.7 2.9-2.1 4.5-3.5 3.7-2.9 4.8-3.7 4.3-3.2 4.8-3.7 2.9-2.1 6.9-5.3 9-6.9 4.8-3.7 4.8-3.5 2.9-2.4 8.5-6.4 3.5-2.7 8.5-6.4 4.5-3.5 5.3-4 3.5-2.7 4.5-3.5 5.1-3.7 6.9-5.3 7.5-5.6 8-6.1 5.1-3.7 6.9-5.3 5.1-3.7 4.8-3.7 3.2-2.4 4.8-3.5 4.8-3.7 3.2-2.4 2.9-2.1 3.5-2.7 4.3-3.2 4-2.9 3.5-2.7 4.8-3.7 2.9-2.1 4.3-3.2 3.7-2.9 3.2-2.4 2.9-2.1 4.5-3.5 2.4-1.9zM18.1 214.2l1.1.5 3.5 2.9 4.5 3.2 3.7 2.7 4.8 3.5 3.5 2.7 4.8 3.7 5.1 3.7 8.5 6.4 2.9 2.1 4.8 3.7 4.3 3.2 2.9 2.1 6.9 5.3 4 2.9 4.5 3.5 3.5 2.7 2.4 1.9 3.7 2.7 2.7 2.1 3.2 2.4 2.4 1.9 3.7 2.7 3.7 2.9 3.2 2.4 4.8 3.7 3.7 2.7 2.7 2.1 3.5 2.7 5.1 3.7 3.7 2.9 3.5 2.7 4 2.9 4.8 3.7 3.5 2.7 5.6 4.3 3.2 2.4 2.7 2.1 5.1 3.7 4.8 3.7 3.7 2.9 4 2.9 4.5 3.5 4 3.2 2.7 1.9 1.1 1.1-.5 1.1-1.9 1.9-2.9 2.1-5.1 3.7-4 3.2-5.1 3.7-4 3.2-3.5 2.7-7.5 5.6-6.9 5.3-3.2 2.4-9 6.9-5.3 4-6.9 5.3-5.3 4-3.5 2.7-4.8 3.7-2.9 2.1-6.9 5.3-5.1 3.7-4.8 3.7-3.5 2.7-3.2 2.4-5.6 4.3-3.5 2.7-5.1 3.7-6.9 5.3-11.7 8.8-3.5 2.7-5.1 3.7-4.5 3.5-3.2 2.4-5.6 4.3-3.2 2.4-4.8 3.5-3.7 2.7-3.7 2.9-2.7 1.9-1.1-.3v-42.8l-.4-54.1v-39.1l.3-88.3.3-28.7.3-14.1zm475.3 0 1.1.3.3 42.6v228.6h-1.1L490 483l-5.3-4-4.8-3.7-4.5-3.2-4.8-3.7-5.1-3.7-4.8-3.7-4.5-3.5-3.2-2.4-3.5-2.7-4.8-3.7-4.3-3.2-8-6.1-4.3-3.2-3.5-2.7-4.8-3.7-5.1-3.7-4-3.2-5.1-3.7-4.8-3.7-5.3-4-4.8-3.7-4.3-3.2-3.5-2.7-4.3-3.2-4.8-3.7-4.3-3.2-3.5-2.7-4.3-3.2-4.8-3.7-4.3-3.2-4.5-3.5-4.8-3.7-4.3-3.2-3.5-2.7-4.8-3.7-4.5-3.5-5.3-4-2.7-2.1-2.9-2.1-.3-1.3 2.1-1.9 2.9-2.1 5.1-3.7 3.5-2.7 3.7-2.9 5.1-3.7 3.7-2.9 3.5-2.7 4-2.9 3.2-2.4 3.7-2.9 3.5-2.7 5.1-3.7 3.7-2.9 3.5-2.7 4.8-3.5 4.3-3.5 4.3-3.2 5.1-3.7 3.7-2.9 7.5-5.6 3.5-2.7 3.7-2.9 8.5-6.4 3.7-2.9 5.6-4.3 2.9-2.1 6.9-5.3 4.8-3.5 4.3-3.5 2.9-2.1 5.6-4.3 3.2-2.4 3.7-2.9 3.2-2.4 10.1-7.5 3.5-2.7 3.7-2.7 3.7-2.9 5.6-4.3zM255.5 19.4l1.3.5 4.3 3.5 5.6 4.3 4.8 3.7 3.7 2.7 3.2 2.1v.5l1.1.5 5.1 3.7 3.5 2.7 2.4 1.9 5.1 3.7 2.1 1.6v.5l-.5.3h-80.4l-1.3-.3 1.6-1.9 3.5-2.9 4.8-3.5 4.8-3.7 4.5-3.5 4.8-3.7 4.3-3.2 2.7-2.1 4.5-3.5 2.9-2.4zm-204.4 156 .5.3V218l-1.3-.5-2.4-1.6-4-3.2-3.5-2.7-4.8-3.7-4.8-3.5-4.5-3.2L24 198l-.8-1.1 2.9-2.7 3.7-2.9 5.1-3.7 3.5-2.7 4.3-3.5 3.5-2.7 4.5-3.2zm409.5-.6 1.1.5v.5l1.1.5 1.9 1.6 10.1 7.5 4.3 3.2 2.7 2.1 3.5 2.7 3.2 2.7-.3 1.1-3.7 2.9-9.6 7.2-3.7 2.9-3.5 2.7-2.9 2.1-2.7 1.9-1.3.3-.3-.5v-36.5z" style="fill:#99c6fe"/></svg>