<svg xmlns="http://www.w3.org/2000/svg" xml:space="preserve" viewBox="0 0 512 512"><path d="m511.2 226.7.3-24v-6.1l-.3-2.9-1.1-1.6-2.7-2.4-4.5-3.5-4.8-3.7-4.5-3.5-5.1-3.7-4.8-3.7-10.6-8-5.1-3.7-3.7-2.7-2.9-2.4-.8-1.1-.3-2.1-.3-12.2-.3-46.6-.3-20.5-.3-13-.3-3.7-1.9-2.1-1.1-.8-1.6-.3-4.3-.3-12.8-.3-73.2-.3h-37.5l-3.5-1.9-2.9-2.1-4.8-3.5-4-3.2-4.3-3.2-5.1-3.7-3.7-2.9-5.6-4.3-4.3-3.2-4.8-3.7-5.3-4-4.8-3.7-11.7-8.8-4.8-2.9-.5-.4h-.8l-4.3 2.1-4.5 3.2-10.1 7.7-4.3 3.2-3.7 2.9-4.8 3.7-5.1 3.7-4.8 3.7-5.6 4.3-4.3 3.2-4.8 3.7-5.3 4-4.8 3.7-2.9 1.9-2.1.5-121.3.4-5.3.5-2.9 1.1-1.3 1.3-.8 2.1-.3 2.4-.3 9-.3 17-.3 64.1-.3 4-1.3 1.3-3.2 2.7-5.1 3.7-5.6 4.3-5.1 3.7-3.5 2.7-9.6 7.2-4.5 3.5-5.6 4.3-2.7 2.1-2.7 2.4-1.3 1.6v1.1l-.3 46.6v235.2l.3 27.7.5 3.2 1.6 2.4 2.9 1.9 1.9.8 2.1.3h12l24.5-.3 136-.5h130.9l115.8.5h71.9l3.7-.5 2.7-1.1 2.1-1.6 1.6-2.7.5-1.3v-15.2l-.3-27.9-.3-73.7v-92.6zm-50.8-46.5.3-5.3 1.1.5v.5l1.1.5 1.9 1.6 10.1 7.5 4.3 3.2 2.7 2.1 3.5 2.7 3.2 2.7-.3 1.1-3.7 2.9-9.6 7.2-3.7 2.9-3.5 2.7-2.9 2.1-2.7 1.9-1.3.3-.3-.5v-36.6zM216.9 49.5l3.5-2.9 4.8-3.5 4.8-3.7 4.5-3.5 4.8-3.7 4.3-3.2 2.7-2.1 4.5-3.5 2.9-2.4 1.9-1.6 1.3.5 4.3 3.5 5.6 4.3 4.8 3.7 3.7 2.7 3.2 2.1v.5l1.1.5 5.1 3.7 3.5 2.7 2.4 1.9 5.1 3.7 2.1 1.6v.5l-.5.3h-80.4l-1.3-.3zm-149 38.8.3-18.9.3-.5.8-.3h73.4l140.8.3h24.2l25.8-.3h109.1l.8.5.3 8.5v49l-.3 104-.8 1.3-4.3 3.2-15.2 11.2-3.7 2.9-5.6 4.3-5.1 3.7-3.7 2.9-5 3.9-4.8 3.7-3.5 2.7-7.5 5.6-3.5 2.7-5.6 4.3-5.1 3.7-4 3.2-3.7 2.7-6.9 5.3-7.5 5.6-6.9 5.3-3.7 2.7-4.8 3.7-4.5 3.5-5.1 3.7-3.5 2.7-3.7 2.9-4.3 3.2-5.6 4.3-3.7 3.2-1.1.3-2.4-1.3-2.9-2.4-4.8-3.5-5.6-4.3-3.2-2.4-10.1-7.7-5.1-3.7-2.7-2.1-4-2.7-3.7-1.9-1.9.3-3.7 1.9-9 6.4-3.5 2.7-4.8 3.7-5.1 3.7-4.3 3.5-8.5 6.4-3.7 2.9-1.3.5-2.4-1.6-2.7-2.4-7.5-5.3-4.3-3.2-3.5-2.7-5.6-4.3-4.3-3.2-3.5-2.7-5.1-3.7-3.7-2.9-5.6-4.3-2.9-2.1-4.8-3.7-3.2-2.4-5.1-3.7-3.7-2.9-5.3-4-3.5-2.7-4.3-3.2-4.5-3.5-7.5-5.6-4.5-3.5-5.1-3.7-3.7-2.9-5.6-4.3-5.1-3.7-3.7-2.9-4.3-3.2-2.4-1.9-5.6-4.3-5.1-3.7-4.5-3.7-.3-1.1-.3-83.8.4-30.2zm-41.8 106 3.7-2.9 5.1-3.7 3.5-2.7 4.3-3.5 3.5-2.7 4.5-3.2.5-.3.5.3v42.3l-1.3-.5-2.4-1.6-4-3.2-3.5-2.7-4.8-3.7-4.8-3.5-4.5-3.2L24 198l-.8-1.1zm2.4 283.6-3.7 2.7-3.7 2.9-2.7 1.9-1.1-.3v-42.8l-.3-53.8v-39.1l.3-88.3.3-28.7.3-14.1.3-4 1.1.5 3.5 2.9 4.5 3.2 3.7 2.7 4.8 3.5 3.5 2.7 4.8 3.7 5.1 3.7 8.5 6.4 2.9 2.1 4.8 3.7 4.3 3.2 2.9 2.1 6.9 5.3 4 2.9 4.5 3.5 3.5 2.7 2.4 1.9 3.7 2.7 2.7 2.1 3.2 2.4 2.4 1.9 3.7 2.7 3.7 2.9 3.2 2.4 4.8 3.7 3.7 2.7 2.7 2.1 3.5 2.7 5.1 3.7 3.7 2.9 3.5 2.7 4 2.9 4.8 3.7 3.5 2.7 5.6 4.3 3.2 2.4 2.7 2.1 5.1 3.7 4.8 3.7 3.7 2.9 4 2.9 4.5 3.5 4 3.2 2.7 1.9 1.1 1.1-.5 1.1-1.9 1.9-2.9 2.1-5.1 3.7-4 3.2-5.1 3.7-4 3.2-3.5 2.7-7.5 5.6-6.9 5.3-3.2 2.4-9 6.9-5.3 4-6.9 5.3-5.3 4-3.5 2.7-4.8 3.7-2.9 2.1-6.9 5.3-5.1 3.7-4.8 3.7-3.5 2.7-3.2 2.4-5.6 4.3-3.5 2.7-5.1 3.7-6.9 5.3-11.7 8.8-3.5 2.7-5.1 3.7-4.5 3.5-3.2 2.4-5.6 4.3-3.2 2.4zm446.2 16.5h-28.2l-32.2.3-366.7-.3H37l-2.1-.3 1.1-1.3 5.1-3.7 3.5-2.7 2.9-2.1 4.5-3.5 3.7-2.9 4.8-3.7 4.3-3.2 4.8-3.7 2.9-2.1 6.9-5.3 9-6.9 4.8-3.7 4.8-3.5 2.9-2.4 8.5-6.4 3.5-2.7 8.5-6.4 4.5-3.5 5.3-4 3.5-2.7 4.5-3.5 5.1-3.7 6.9-5.3 7.5-5.6 8-6.1 5.1-3.7 6.9-5.3 5.1-3.7 4.8-3.7 3.2-2.4 4.8-3.5 4.8-3.7 3.2-2.4 2.9-2.1 3.5-2.7 4.3-3.2 4-2.9 3.5-2.7 4.8-3.7 2.9-2.1 4.3-3.2 3.7-2.9 3.2-2.4 2.9-2.1 4.5-3.5 2.4-1.9 4.5-3.2 1.3.5 2.7 2.1 5.3 4 4.8 3.5 4.5 3.5 4.8 3.5 3.5 2.7 4.8 3.7 4.8 3.5 2.7 2.1 9.6 7.2 2.7 2.1L322 376l4.5 3.5 5.1 3.7 2.7 2.1 11.7 8.8 3.5 2.7 8.5 6.4 4.8 3.7 4 2.9 4.8 3.7 3.2 2.4 5.1 3.7 4.8 3.7 5.1 3.7 10.1 7.7 5.1 3.7 4.8 3.7 5.1 3.7 10.1 7.7 2.4 1.9 3.2 2.4 5.6 4.3 4.3 3.2 5.6 4.3 3.5 2.7 5.1 3.7 4.3 3.5 2.9 2.1 5.1 3.7 3.7 2.9 2.9 2.1 3.5 2.7.3 1.1zm20-8.7h-1.1l-3.7-2.7-5.3-4-4.8-3.7-4.5-3.2-4.8-3.7-5.1-3.7-4.8-3.7-4.5-3.5-3.2-2.4-3.5-2.7-4.8-3.7-4.3-3.2-8-6.1-4.3-3.2-3.5-2.7-4.8-3.7-5.1-3.7-4-3.2-5.1-3.7-4.8-3.7-5.3-4-4.8-3.7-4.3-3.2-3.5-2.7-4.3-3.2-4.8-3.7-4.3-3.2-3.5-2.7-4.3-3.2-4.8-3.7-4.3-3.2-4.5-3.5-4.8-3.7-4.3-3.2-3.5-2.7-4.8-3.7-4.5-3.5-5.3-4-2.7-2.1-2.9-2.1-.3-1.3 2.1-1.9 2.9-2.1 5.1-3.7 3.5-2.7 3.7-2.9 5.1-3.7 3.7-2.9 3.5-2.7 4-2.9 3.2-2.4 3.7-2.9 3.5-2.7 5.1-3.7 3.7-2.9 3.5-2.7 4.8-3.5 4.3-3.5 4.3-3.2 5.1-3.7 3.7-2.9 7.5-5.6 3.5-2.7 3.7-2.9 8.5-6.4 3.7-2.9 5.6-4.3 2.9-2.1 6.9-5.3 4.8-3.5 4.3-3.5 2.9-2.1 5.6-4.3 3.2-2.4 3.7-2.9 3.2-2.4 10.1-7.5 3.5-2.7 3.7-2.7 3.7-2.9 5.6-4.3 2.9-2.1 1.1.3.3 42.6v228.7zM181.8 207l2.7 8 2.4 5.6 3.7 6.9 3.2 5.1 2.7 3.5 2.4 2.9 6.7 6.7 4.5 3.7 5.3 3.7 5.6 3.2 5.1 2.4 7.5 2.7 4.5 1.3 7.7 1.6 9 .8H280l1.9-.3 2.7-.8 1.9-1.3 2.7-2.7 1.3-2.7v-1.9l-.3-.8-1.3-2.7-1.9-2.1-2.1-1.6-2.7-.8h-25l-5.9-.3-6.7-1.1-6.7-1.6-5.1-1.9-5.3-2.4-3.2-1.9-4-2.7-2.9-2.1-4.5-4.5-2.4-2.7-3.2-4.3-2.4-3.5-2.1-4-2.7-6.1-1.9-6.4-1.3-6.7-.5-5.1v-6.7l.5-4.5 1.1-5.3 1.6-5.3 2.1-5.6 2.4-4.5 2.4-4 2.9-4 1.9-2.1 2.1-2.1 4-3.7 2.9-2.4 3.5-2.4 3.5-2.1 5.6-2.7 6.4-2.1 6.1-1.3 5.3-.5h9.3l3.5.3 3.7.5 5.6 1.3 5.1 1.6 5.1 2.4 4.3 2.4 3.7 2.4 4.3 3.2 2.9 2.7 3.7 4 3.2 4.3 3.2 5.3 2.7 5.6 2.7 8 1.1 5.1.8 7.2.3 7.2V203l-.5 3.7-1.3 2.9-2.4 2.4-2.7 1.3h-3.5l-1.1-.3-2.4-1.3-1.6-1.9-1.1-2.1-.5-3.7v-15.7l-.3-5.3-.5-3.7-1.1-3.5-2.1-5.6-3.2-5.9-2.1-2.9-2.9-3.7-2.4-2.1-2.7-2.1-2.7-1.9-4.3-2.4-5.6-2.4-4.3-1.1-5.6-.8h-6.7l-2.4.3-4.3.8-4.8 1.3-4.3 1.9-4.3 2.4-4.5 3.5-2.1 2.1-2.9 3.2-2.7 3.5-2.4 4.3-2.4 5.6-1.6 5.6-.8 5.1v6.1l.3 2.4 1.1 5.1 1.3 4.3 2.4 5.3 2.4 4 2.9 4 3.2 3.5 3.5 2.9 2.9 2.1 4 2.4 4.8 2.1 5.3 1.6 5.3 1.1h6.4l5.3-1.1 6.7-2.1 5.6-2.7 3.7-2.4 4.5-3.2 1.3-.3.8.5 1.3 1.9 2.4 2.4 2.9 2.1 2.9 1.9 3.7 1.6 4.3 1.3h3.7l3.2-.5 4-1.3 4-1.9 4-2.7 3.2-3.2 2.4-3.2 2.4-4.5 1.3-4.3.5-3.7v-11.4l-.3-7.5-.5-7.7-1.1-6.9-1.9-6.7-2.7-6.9-3.5-7.2-2.4-4.3-2.7-4-2.7-3.7-2.1-2.7-4.5-4.5-2.7-2.4-2.9-2.4-4.5-3.2-6.1-3.7-7.7-3.7-5.6-2.1-5.3-1.6-6.9-1.3-7.5-.8h-7.7l-3.2.3-5.3.8-7.2 1.6-8 2.7-5.1 2.1-5.1 2.7-4 2.4-4.5 3.2-3.7 2.9-5.1 5.1-2.9 3.2-2.4 2.9-3.2 4.5-2.9 4.8-3.7 7.5-2.1 5.9-1.6 5.3-1.6 7.7-.8 6.9v10.1l.8 6.1zm99.7-17.5-.5 4.5-1.3 3.7-2.4 4.5-2.9 3.7-1.9 1.9-4 2.7-4.3 1.9-3.2.8-1.6.3h-6.9l-4.5-1.1-4-1.6-2.9-1.6-2.4-1.9-2.9-2.9-2.4-3.7-1.9-4.3-1.1-4.5-.3-2.7V186l.5-3.5 1.1-3.5 1.9-3.7 1.9-2.7 2.4-2.7 2.1-2.1 3.7-2.7 3.7-1.6 4-1.1 2.7-.3 4.5.3 5.1 1.1 4 1.6 3.2 1.9 2.9 2.4 2.7 2.7 2.1 3.5 1.9 4.3.8 3.2.3 1.9v4.5z"/><path d="m255.7 326.5 1.3.5 2.7 2.1 5.3 4 4.8 3.5 4.5 3.5 4.8 3.5 3.5 2.7 4.8 3.7 4.8 3.5 2.7 2.1 9.6 7.2 2.7 2.1L322 376l4.5 3.5 5.1 3.7 2.7 2.1 11.7 8.8 3.5 2.7 8.5 6.4 4.8 3.7 4 2.9 4.8 3.7 3.2 2.4 5.1 3.7 4.8 3.7 5.1 3.7 10.1 7.7 5.1 3.7 4.8 3.7 5.1 3.7 10.1 7.7 2.4 1.9 3.2 2.4 5.6 4.3 4.3 3.2 5.6 4.3 3.5 2.7 5.1 3.7 4.3 3.5 2.9 2.1 5.1 3.7 3.7 2.9 2.9 2.1 3.5 2.7.3 1.1-2.1.3h-28.2l-32.2.3-366.7-.3H37l-2.1-.3 1.1-1.3 5.1-3.7 3.5-2.7 2.9-2.1 4.5-3.5 3.7-2.9 4.8-3.7 4.3-3.2 4.8-3.7 2.9-2.1 6.9-5.3 9-6.9 4.8-3.7 4.8-3.5 2.9-2.4 8.5-6.4 3.5-2.7 8.5-6.4 4.5-3.5 5.3-4 3.5-2.7 4.5-3.5 5.1-3.7 6.9-5.3 7.5-5.6 8-6.1 5.1-3.7 6.9-5.3 5.1-3.7 4.8-3.7 3.2-2.4 4.8-3.5 4.8-3.7 3.2-2.4 2.9-2.1 3.5-2.7 4.3-3.2 4-2.9 3.5-2.7 4.8-3.7 2.9-2.1 4.3-3.2 3.7-2.9 3.2-2.4 2.9-2.1 4.5-3.5 2.4-1.9zM18.1 214.2l1.1.5 3.5 2.9 4.5 3.2 3.7 2.7 4.8 3.5 3.5 2.7 4.8 3.7 5.1 3.7 8.5 6.4 2.9 2.1 4.8 3.7 4.3 3.2 2.9 2.1 6.9 5.3 4 2.9 4.5 3.5 3.5 2.7 2.4 1.9 3.7 2.7 2.7 2.1 3.2 2.4 2.4 1.9 3.7 2.7 3.7 2.9 3.2 2.4 4.8 3.7 3.7 2.7 2.7 2.1 3.5 2.7 5.1 3.7 3.7 2.9 3.5 2.7 4 2.9 4.8 3.7 3.5 2.7 5.6 4.3 3.2 2.4 2.7 2.1 5.1 3.7 4.8 3.7 3.7 2.9 4 2.9 4.5 3.5 4 3.2 2.7 1.9 1.1 1.1-.5 1.1-1.9 1.9-2.9 2.1-5.1 3.7-4 3.2-5.1 3.7-4 3.2-3.5 2.7-7.5 5.6-6.9 5.3-3.2 2.4-9 6.9-5.3 4-6.9 5.3-5.3 4-3.5 2.7-4.8 3.7-2.9 2.1-6.9 5.3-5.1 3.7-4.8 3.7-3.5 2.7-3.2 2.4-5.6 4.3-3.5 2.7-5.1 3.7-6.9 5.3-11.7 8.8-3.5 2.7-5.1 3.7-4.5 3.5-3.2 2.4-5.6 4.3-3.2 2.4-4.8 3.5-3.7 2.7-3.7 2.9-2.7 1.9-1.1-.3v-42.8l-.4-54.1v-39.1l.3-88.3.3-28.7.3-14.1zm475.3 0 1.1.3.3 42.6v228.6h-1.1L490 483l-5.3-4-4.8-3.7-4.5-3.2-4.8-3.7-5.1-3.7-4.8-3.7-4.5-3.5-3.2-2.4-3.5-2.7-4.8-3.7-4.3-3.2-8-6.1-4.3-3.2-3.5-2.7-4.8-3.7-5.1-3.7-4-3.2-5.1-3.7-4.8-3.7-5.3-4-4.8-3.7-4.3-3.2-3.5-2.7-4.3-3.2-4.8-3.7-4.3-3.2-3.5-2.7-4.3-3.2-4.8-3.7-4.3-3.2-4.5-3.5-4.8-3.7-4.3-3.2-3.5-2.7-4.8-3.7-4.5-3.5-5.3-4-2.7-2.1-2.9-2.1-.3-1.3 2.1-1.9 2.9-2.1 5.1-3.7 3.5-2.7 3.7-2.9 5.1-3.7 3.7-2.9 3.5-2.7 4-2.9 3.2-2.4 3.7-2.9 3.5-2.7 5.1-3.7 3.7-2.9 3.5-2.7 4.8-3.5 4.3-3.5 4.3-3.2 5.1-3.7 3.7-2.9 7.5-5.6 3.5-2.7 3.7-2.9 8.5-6.4 3.7-2.9 5.6-4.3 2.9-2.1 6.9-5.3 4.8-3.5 4.3-3.5 2.9-2.1 5.6-4.3 3.2-2.4 3.7-2.9 3.2-2.4 10.1-7.5 3.5-2.7 3.7-2.7 3.7-2.9 5.6-4.3zM255.5 19.4l1.3.5 4.3 3.5 5.6 4.3 4.8 3.7 3.7 2.7 3.2 2.1v.5l1.1.5 5.1 3.7 3.5 2.7 2.4 1.9 5.1 3.7 2.1 1.6v.5l-.5.3h-80.4l-1.3-.3 1.6-1.9 3.5-2.9 4.8-3.5 4.8-3.7 4.5-3.5 4.8-3.7 4.3-3.2 2.7-2.1 4.5-3.5 2.9-2.4zm-204.4 156 .5.3V218l-1.3-.5-2.4-1.6-4-3.2-3.5-2.7-4.8-3.7-4.8-3.5-4.5-3.2L24 198l-.8-1.1 2.9-2.7 3.7-2.9 5.1-3.7 3.5-2.7 4.3-3.5 3.5-2.7 4.5-3.2zm409.5-.6 1.1.5v.5l1.1.5 1.9 1.6 10.1 7.5 4.3 3.2 2.7 2.1 3.5 2.7 3.2 2.7-.3 1.1-3.7 2.9-9.6 7.2-3.7 2.9-3.5 2.7-2.9 2.1-2.7 1.9-1.3.3-.3-.5v-36.5z" style="opacity:.6"/></svg>