<?xml version="1.0" encoding="utf-8"?>
<!-- Generator: Adobe Illustrator 28.2.0, SVG Export Plug-In . SVG Version: 6.00 Build 0)  -->
<svg version="1.1" id="Layer_1" xmlns="http://www.w3.org/2000/svg" xmlns:xlink="http://www.w3.org/1999/xlink" x="0px" y="0px"
	 viewBox="0 0 512 512" style="enable-background:new 0 0 512 512;" xml:space="preserve">
<style type="text/css">
	.st0{fill:#362D59;}
</style>
<path class="st0" d="M296.7,53.5c-13.6-22.6-43.1-29.9-65.7-16.3c-6.7,4-12.3,9.6-16.3,16.3L147.3,169
	c104.9,52.3,174.1,156.4,181.9,273.3h-47.4c-7.8-100.3-68-188.9-158.4-232.9L61,317.3c50.7,22.8,86.4,69.8,94.6,124.7H46.8
	c-4.3-0.3-7.5-4-7.2-8.3c0.1-1.1,0.4-2.1,0.9-3.1l30.1-51.3c-10.2-8.5-21.9-15.1-34.4-19.5L6.3,411.2c-12.9,22.2-5.4,50.7,16.8,63.6
	c0.2,0.1,0.4,0.2,0.6,0.3c7.1,4,15,6.1,23.2,6.2h148.9c5.6-69.4-25.5-136.7-82-177.4l23.7-41c71.4,49,111.5,132.1,105.6,218.4h126.2
	c6-130.9-58.1-255-168.2-326l47.9-82c2.2-3.7,7-5,10.8-2.8c5.4,3,208,356.4,211.8,360.5c2.1,3.8,0.7,8.5-3,10.6c-1.2,0.7-2.6,1-4,1
	h-48.8c0.6,13.1,0.6,26.1,0,39.1h49c26,0.2,47.2-20.8,47.4-46.7c0-0.2,0-0.3,0-0.5c0-8.2-2.2-16.3-6.4-23.4L296.7,53.5z"/>
</svg>
