<?xml version="1.0" encoding="utf-8"?>
<!-- Generator: Adobe Illustrator 28.2.0, SVG Export Plug-In . SVG Version: 6.00 Build 0)  -->
<svg version="1.1" id="Layer_1" xmlns="http://www.w3.org/2000/svg" xmlns:xlink="http://www.w3.org/1999/xlink" x="0px" y="0px"
	 viewBox="0 0 512 512" style="enable-background:new 0 0 512 512;" xml:space="preserve">
<path d="M256,0C114.6,0,0,114.6,0,256s114.6,256,256,256s256-114.6,256-256S397.4,0,256,0z M256,481.4
	C131.5,481.4,30.6,380.5,30.6,256S131.5,30.6,256,30.6S481.4,131.5,481.4,256S380.5,481.4,256,481.4z"/>
<polygon points="189,221 189,298.3 256,337 323,298.3 323,221 256,182.3 "/>
<polygon points="355.5,111.2 355.5,146.3 386,163.9 416.4,146.3 416.4,111.2 386,93.6 "/>
<polygon points="93.5,111.2 93.5,146.3 124,163.9 154.5,146.3 154.5,111.2 124,93.6 "/>
<polygon points="93.5,366.7 93.5,401.8 124,419.5 154.5,401.8 154.5,366.7 124,349.1 "/>
<polygon points="355.5,366.7 355.5,401.8 386,419.5 416.4,401.8 416.4,366.7 386,349.1 "/>
<path d="M443.9,256.5c0,35.9-10.3,71.2-29.7,101.4l5.3,3c40.7-63.7,40.7-145.2,0-208.9l-5.3,3C433.6,185.3,443.9,220.6,443.9,256.5z
	"/>
<path d="M255.3,67.8c37.8,0,74.6,11.4,105.8,32.7l5.9-3.4C300,50,210.6,50,143.7,97.2l5.9,3.4C180.7,79.2,217.5,67.8,255.3,67.8z"/>
<path d="M66.7,256.5c0-35.9,10.3-71.2,29.7-101.4l-5.3-3c-40.7,63.7-40.7,145.2,0,208.9l5.3-3C77,327.6,66.6,292.4,66.7,256.5z"/>
<path d="M255.3,465.4c-37.8,0-74.6-11.4-105.8-32.7l-5.9,3.4c67,47.2,156.4,47.2,223.3,0l-5.9-3.4
	C329.9,454,293.1,465.4,255.3,465.4z"/>
<polygon points="204.7,200.5 156.9,152.6 149.2,157 197,204.9 "/>
<polygon points="308.9,316.7 352.9,360.8 360.6,356.3 316.6,312.4 "/>
<polygon points="193.5,312.1 149.6,356.1 157.3,360.6 201.3,316.5 "/>
<polygon points="313.2,204.7 361,156.8 353.3,152.3 305.5,200.3 "/>
</svg>
