<svg xmlns="http://www.w3.org/2000/svg" xml:space="preserve" viewBox="0 0 512 512"><path d="M502.6 85.2c0-4.9-1-10-2.5-14.7C495 54.5 479.6 44 462 44H262.5c-12.8 0-23.3-4.8-31.5-14.5-3.1-3.7-5.9-7.6-8.6-11.5-8.7-12.6-20.8-18-35.8-18H50.9C26.9 0 9.3 17.5 9.3 41.5c0 96.5 0 193.1.1 289.6 0 4.3.5 8.7 1.7 12.8 5 17.9 20.4 29.2 39.2 29.3h183c1.6 0 3.2.1 4.8.1h35.8c1.6 0 3.2-.1 4.8-.1h182c3.2 0 6.4-.2 9.5-.8 19.7-4.2 32.5-20 32.5-40.1 0-82.4.1-164.8-.1-247.1" style="fill:#fec866"/><path d="M365.6 445h-91.7v-71.7h-35.8V445h-91.8c-9.9 0-17.9 8-17.9 17.9s8 17.9 17.9 17.9h219.3c9.9 0 17.9-8 17.9-17.9s-8-17.9-17.9-17.9" style="fill:#656766"/><circle cx="255" cy="462.5" r="49.5" style="fill:#eb6e62"/></svg>