<?xml version="1.0" encoding="utf-8"?>
<!-- Generator: Adobe Illustrator 28.2.0, SVG Export Plug-In . SVG Version: 6.00 Build 0)  -->
<svg version="1.1" id="Layer_1" xmlns="http://www.w3.org/2000/svg" xmlns:xlink="http://www.w3.org/1999/xlink" x="0px" y="0px"
	 viewBox="0 0 512 512" style="enable-background:new 0 0 512 512;" xml:space="preserve">
<style type="text/css">
	.st0{fill:#FFFFFF;}
</style>
<path class="st0" d="M255,424.9c24,0,43.6,19.5,43.6,43.6S279,512,255,512c-24,0-43.6-19.5-43.6-43.6S231,424.9,255,424.9z
	 M198.3,468.4c0-6.2,1-12.1,2.9-17.7h-56.2c-10,0-18.1,8.1-18.1,18.1c0,10,8.1,18.1,18.1,18.1h56.5
	C199.4,481.2,198.3,474.9,198.3,468.4z M505.8,86.3c0-5-1-10.1-2.5-14.9c-5.2-16.2-20.8-26.8-38.6-26.8c-67.4,0-134.7,0-202.1,0
	c-13,0-23.6-4.9-31.9-14.7c-3.1-3.7-6-7.7-8.7-11.6C213.1,5.5,200.9,0,185.7,0C139.9,0,94,0,48.3,0C23.9,0,6.1,17.7,6.1,42
	c0,97.7,0,195.6,0.1,293.3c0,4.4,0.5,8.8,1.7,13c5.1,18.1,20.7,29.6,39.7,29.7c61.8,0,123.6,0,185.4,0c1.6,0,3.2,0.1,4.9,0.1h0v36.3
	c5.4-1.7,11.2-2.6,17.1-2.6c6.7,0,13.2,1.2,19.1,3.3v-37h0c1.6,0,3.2-0.1,4.9-0.1c61.5,0,122.9,0,184.3,0c3.2,0,6.5-0.2,9.6-0.8
	c20-4.3,32.9-20.3,32.9-40.6C505.9,253.1,506,169.7,505.8,86.3z M367,450.7h-58.2c1.8,5.6,2.9,11.5,2.9,17.7
	c0,6.5-1.1,12.7-3.1,18.5H367c10,0,18.1-8.1,18.1-18.1C385.1,458.8,377,450.7,367,450.7z"/>
</svg>
