<svg xmlns="http://www.w3.org/2000/svg" xml:space="preserve" viewBox="0 0 512 512"><path d="M511.7 252.5h.2c0-1-.5-1.9-.5-2.8-.1-1.2.2-2.4 0-3.5h-.4c-1.9-29-19.7-56.1-44.1-71.7-24-15.4-54.2-24-90.5-30.2-4.5-30.2-10.9-57.3-23.4-79-17.1-29.5-49.3-50.6-83.1-50.6-35.6 0-70.4 14.6-91.2 42.4-18 24.1-24.5 54.6-26.3 88.9-39.3.8-72.5 5.3-99.6 19C24.7 179.1 3.6 208.2 1 239.6H.5c-.1.8.1 1.6 0 2.3 0 .3-.2.6-.2.9h.2c-2.9 29.6 6 60.7 27.2 81.4 13.1 12.8 29.4 20.9 47.4 27l-6.6 18.3-.5.9-.2.9c-7.7 25-7.4 53.2 6.3 76.2s36.9 36.4 62.6 44.3l5.4 1.6h22.7c30.8 0 60.2-8.3 83.7-26.3 10.4-7.9 19.3-17.9 27-28.6 20.5 19.2 45.4 36.1 75 50.9l3.8 1.9 4 1.2c24.3 5.9 48 7.2 70.6-1.4 22.5-8.5 40.2-28.4 48.3-50.4h.2v-.2c9.9-26.9 8.1-57.5-3.5-83.9-2.7-6.2-7.2-11.7-10.8-17.6 6-2.7 11.8-5.6 17.4-9.6 23.6-17.1 33.5-48.3 31.2-76.9m-120.2 59.1c47.2 41.5 64.1 80.2 50.8 116.1-10.5 28.6-35.5 38.1-75 28.4-43.5-21.8-74.4-46.8-92.5-75h-11.5c-16.9 50-49.8 75-98.5 75h-16.9q-61.05-18.75-44.1-73.8l21.2-58.6h-6c-59.6-8.5-86.7-34.9-81-79.2 1.6-40.7 42.5-61.3 122.7-61.7 22.2-2.4 31.4-9.5 27.8-21.2-.2-72.8 27-109.3 81.5-109.3 42.7 0 67.3 42.3 73.8 127h17.5c76.2 11.7 113.9 35.9 113 72.5 6.4 43.1-21.2 63.1-82.8 59.8m-81-82.8c-10.9 2-19.7-.6-26.6-7.9v-59.2c0-33-7.9-49.4-23.6-49-16.9-4-25.2 16-24.8 59.9l-1.2 33.9c-1.2 16.9-6.6 25.4-16.3 25.4l-95.5 5.4c-14.9.4-22.4 6.4-22.4 18.1 0 11.3 8.1 17.3 24.2 18.1 56-2.8 82.2 1 78.6 11.5L186 321.3c-28.6 43.1-35.7 68.5-21.2 76.2 19.3 11.7 46.8-18.5 82.2-90.7 8.5-7.7 15.5-7.7 21.2 0 25 26.6 45.5 48.4 61.7 65.3 16.5 16.9 29.8 22 39.9 15.1 12.1-12.9 8.9-26.8-9.7-41.7-18.1-15.3-38.9-36.3-62.3-62.9-2.4-8.9-1.8-13.3 1.8-13.3 79 5.2 116.9.2 113.7-15.1 2.4-16.9-31.8-25.4-102.8-25.4" style="fill:#fff"/></svg>