<?xml version="1.0" encoding="utf-8"?>
<!-- Generator: Adobe Illustrator 28.2.0, SVG Export Plug-In . SVG Version: 6.00 Build 0)  -->
<svg version="1.1"
	 id="svg2" xmlns:dc="http://purl.org/dc/elements/1.1/" xmlns:rdf="http://www.w3.org/1999/02/22-rdf-syntax-ns#" xmlns:cc="http://creativecommons.org/ns#" xmlns:svg="http://www.w3.org/2000/svg"
	 xmlns="http://www.w3.org/2000/svg" xmlns:xlink="http://www.w3.org/1999/xlink" x="0px" y="0px" viewBox="0 0 512 512"
	 style="enable-background:new 0 0 512 512;" xml:space="preserve">
<style type="text/css">
	.st0{fill:#FFFFFF;}
</style>
<path class="st0" d="M511.7,252.5h0.2c0-1-0.5-1.9-0.5-2.8c-0.1-1.2,0.2-2.4,0-3.5H511c-1.9-29-19.7-56.1-44.1-71.7
	c-24-15.4-54.2-24-90.5-30.2c-4.5-30.2-10.9-57.3-23.4-79c-17.1-29.5-49.3-50.6-83.1-50.6c-35.6,0-70.4,14.6-91.2,42.4
	c-18,24.1-24.5,54.6-26.3,88.9c-39.3,0.8-72.5,5.3-99.6,19C24.7,179.1,3.6,208.2,1,239.6H0.5c-0.1,0.8,0.1,1.6,0,2.3
	c0,0.3-0.2,0.6-0.2,0.9h0.2c-2.9,29.6,6,60.7,27.2,81.4c13.1,12.8,29.4,20.9,47.4,27l-6.6,18.3l-0.5,0.9l-0.2,0.9
	c-7.7,25-7.4,53.2,6.3,76.2s36.9,36.4,62.6,44.3l5.4,1.6h5.6h17.1c30.8,0,60.2-8.3,83.7-26.3c10.4-7.9,19.3-17.9,27-28.6
	c20.5,19.2,45.4,36.1,75,50.9l3.8,1.9l4,1.2c24.3,5.9,48,7.2,70.6-1.4c22.5-8.5,40.2-28.4,48.3-50.4h0.2v-0.2
	c9.9-26.9,8.1-57.5-3.5-83.9c-2.7-6.2-7.2-11.7-10.8-17.6c6-2.7,11.8-5.6,17.4-9.6C504.1,312.3,514,281.1,511.7,252.5z M391.5,311.6
	c47.2,41.5,64.1,80.2,50.8,116.1c-10.5,28.6-35.5,38.1-75,28.4c-43.5-21.8-74.4-46.8-92.5-75h-11.5c-16.9,50-49.8,75-98.5,75h-16.9
	c-40.7-12.5-55.4-37.1-44.1-73.8l21.2-58.6h-6c-59.6-8.5-86.7-34.9-81-79.2c1.6-40.7,42.5-61.3,122.7-61.7
	c22.2-2.4,31.4-9.5,27.8-21.2c-0.2-72.8,27-109.3,81.5-109.3c42.7,0,67.3,42.3,73.8,127h17.5c76.2,11.7,113.9,35.9,113,72.5
	C480.7,294.9,453.1,314.9,391.5,311.6z M310.5,228.8c-10.9,2-19.7-0.6-26.6-7.9v-59.2c0-33-7.9-49.4-23.6-49
	c-16.9-4-25.2,16-24.8,59.9l-1.2,33.9c-1.2,16.9-6.6,25.4-16.3,25.4l-95.5,5.4c-14.9,0.4-22.4,6.4-22.4,18.1
	c0,11.3,8.1,17.3,24.2,18.1c56-2.8,82.2,1,78.6,11.5L186,321.3c-28.6,43.1-35.7,68.5-21.2,76.2c19.3,11.7,46.8-18.5,82.2-90.7
	c8.5-7.7,15.5-7.7,21.2,0c25,26.6,45.5,48.4,61.7,65.3c16.5,16.9,29.8,22,39.9,15.1c12.1-12.9,8.9-26.8-9.7-41.7
	c-18.1-15.3-38.9-36.3-62.3-62.9c-2.4-8.9-1.8-13.3,1.8-13.3c79,5.2,116.9,0.2,113.7-15.1C415.7,237.3,381.5,228.8,310.5,228.8z"/>
</svg>
