<svg xmlns="http://www.w3.org/2000/svg" xml:space="preserve" viewBox="0 0 512 512"><path d="M460.8 210.5C460.8 94.2 369.1 0 256 0S51.2 94.2 51.2 210.5c0 110.8 83.4 201.7 189.2 209.9v76c0 8.6 7 15.6 15.6 15.6s15.6-7 15.6-15.6v-76c105.8-8.2 189.2-99.1 189.2-209.9M271.6 391.7v-50.9c.7-.5 1.3-1 1.9-1.6l78.4-78.4c6.1-6.1 6.1-16 0-22.1s-16-6.1-22.1 0l-58.2 58.2V125.2c0-8.6-7-15.6-15.6-15.6s-15.6 7-15.6 15.6v94.5l-57.8-57.8c-6.1-6.1-16-6.1-22.1 0s-6.1 16 0 22.1l78.4 78.4c.5.5 1 .9 1.5 1.3v128c-90.1-8.1-160.7-85.9-160.7-180.5 0-100.1 79-181.3 176.4-181.3S432.4 111 432.4 211.1c0 94.7-70.7 172.4-160.8 180.6"/></svg>