<?xml version="1.0" encoding="utf-8"?>
<!-- Generator: Adobe Illustrator 28.2.0, SVG Export Plug-In . SVG Version: 6.00 Build 0)  -->
<svg version="1.1" id="Layer_1" xmlns="http://www.w3.org/2000/svg" xmlns:xlink="http://www.w3.org/1999/xlink" x="0px" y="0px"
	 viewBox="0 0 512 512" style="enable-background:new 0 0 512 512;" xml:space="preserve">
<path d="M399.1,182.2l28.1-55.9h-37.3c0,0-13.7,0.1-15.5,0.1c-23.7,0-35.6,9.9-35.6,29.8c0,10.2,7,32.9,21,68.2c14,35.3,21,63,21,83
	c0,42.8-23.7,74.9-71,96.4c-35.3,15.8-76.7,23.7-124,23.7c-43.3,0-81.6-6-115.1-18C23.5,392.4,0,366.5,0,331.5
	c0-51,43.4-76.4,130.1-76.4h113.4c-3.3,12.1-10.8,21.5-22.5,28.4c-10.5,6.1-22.4,9.1-35.9,9.1h-18.3c-17.5,0-32.8,3-45.7,9.1
	c-16.9,8-25.3,19.8-25.3,35.4c0,17.7,11.6,31.5,34.9,41.5c18,7.7,37.2,11.5,57.6,11.5c25.9,0,47.6-5.7,64.9-17.1
	c20.1-13.1,30.2-31.9,30.2-56.5c0-16.9-6.4-41.1-19.2-72.7c-12.8-31.5-19.2-56.1-19.2-73.6c0-55.2,45.4-83.7,136.2-85.5v-0.1h9.3
	h0.1H407h12.1c22,0,41.4,3.4,58,10.1c22.2,9,33.8,22.7,34.9,41.1c0.9,18.6-8.1,34-26.8,46.3L399.1,182.2L399.1,182.2z"/>
</svg>
