<svg xmlns="http://www.w3.org/2000/svg" xml:space="preserve" viewBox="0 0 512 512"><path d="m399.1 182.2 28.1-55.9h-37.3s-13.7.1-15.5.1c-23.7 0-35.6 9.9-35.6 29.8 0 10.2 7 32.9 21 68.2s21 63 21 83c0 42.8-23.7 74.9-71 96.4-35.3 15.8-76.7 23.7-124 23.7-43.3 0-81.6-6-115.1-18-47.2-17.1-70.7-43-70.7-78 0-51 43.4-76.4 130.1-76.4h113.4c-3.3 12.1-10.8 21.5-22.5 28.4-10.5 6.1-22.4 9.1-35.9 9.1h-18.3c-17.5 0-32.8 3-45.7 9.1-16.9 8-25.3 19.8-25.3 35.4 0 17.7 11.6 31.5 34.9 41.5 18 7.7 37.2 11.5 57.6 11.5 25.9 0 47.6-5.7 64.9-17.1 20.1-13.1 30.2-31.9 30.2-56.5 0-16.9-6.4-41.1-19.2-72.7-12.8-31.5-19.2-56.1-19.2-73.6q0-82.8 136.2-85.5v-.1h37.9c22 0 41.4 3.4 58 10.1 22.2 9 33.8 22.7 34.9 41.1.9 18.6-8.1 34-26.8 46.3z" style="fill:#4594d1"/></svg>