<svg xmlns="http://www.w3.org/2000/svg" xml:space="preserve" viewBox="0 0 512 512"><path d="M377.4 215.4c22.1-22.9 35.7-54 35.7-88.3C413.1 56.9 356.2 0 285.9 0c-48.6 0-90.8 27.3-112.2 67.4-11.4-3.1-23.5-4.8-35.9-4.8C61.8 62.6.3 124.2.3 200.1s61.6 137.5 137.5 137.5c31.5 0 60.5-10.6 83.7-28.4-6.6 16.8-10.3 35-10.3 54.1 0 82.1 67.3 148.7 150.2 148.7 83 0 150.2-66.6 150.2-148.7.1-76.8-58.7-140-134.2-147.9" style="fill:#c83237"/><linearGradient id="shodan_svg__a" x1="149.045" x2="262.637" y1="63.893" y2="260.639" gradientUnits="userSpaceOnUse"><stop offset="0" style="stop-color:#e9adaf"/><stop offset=".142" style="stop-color:#e59da0"/><stop offset=".508" style="stop-color:#db7a7d"/><stop offset=".807" style="stop-color:#d56468"/><stop offset="1" style="stop-color:#d35c60"/></linearGradient><path d="M286 19.9c-48.9 0-90 33.5-101.6 78.8-14.4-6.6-30.4-10.3-47.3-10.3-62.7 0-113.6 50.8-113.6 113.6 0 62.7 50.8 113.6 113.6 113.6 55.6 0 101.9-40 111.6-92.8 11.6 4.4 24.1 6.8 37.3 6.8 57.9 0 104.8-46.9 104.8-104.8S343.9 19.9 286 19.9" style="fill:url(#shodan_svg__a)"/><linearGradient id="shodan_svg__b" x1="288.325" x2="435.052" y1="258.2" y2="467.748" gradientUnits="userSpaceOnUse"><stop offset="0" style="stop-color:#e9adaf"/><stop offset=".424" style="stop-color:#df888b"/><stop offset=".781" style="stop-color:#d87074"/><stop offset="1" style="stop-color:#d6676b"/></linearGradient><ellipse cx="361.7" cy="363" rx="128.8" ry="127.5" style="fill:url(#shodan_svg__b)"/><path d="M214.2 202c0 42.6-34.5 77.2-77.2 77.2S59.9 244.6 59.9 202s34.5-77.2 77.2-77.2 77.1 34.6 77.1 77.2M286 57.5c-37.1 0-67.2 30.1-67.2 67.2s30 67.3 67.2 67.3 67.2-30.1 67.2-67.2-30.1-67.3-67.2-67.3m75.7 212.7c-51.2 0-92.7 41.5-92.7 92.7s41.5 92.7 92.7 92.7 92.7-41.5 92.7-92.7-41.5-92.7-92.7-92.7" style="fill:#fff"/></svg>