<svg xmlns="http://www.w3.org/2000/svg" xml:space="preserve" viewBox="0 0 512 512"><path d="M395.4 0H116.6C52.2 0 0 52.2 0 116.6v278.8C0 459.8 52.2 512 116.6 512h278.8c64.4 0 116.6-52.2 116.6-116.6V116.6C512 52.2 459.8 0 395.4 0m95.9 390.7c0 55.5-45 100.5-100.5 100.5H121.3c-55.5 0-100.5-45-100.5-100.5V121.3c0-55.5 45-100.5 100.5-100.5h269.5c55.5 0 100.5 45 100.5 100.5zm-361.5-16.1c-2.2 2.5-1.9 3 5.5 9.1 1 .8 1.9 1.6 2 1.8 1.1 1.3 16.4 12.3 17.2 12.3.2 0 .9.4 1.7.9 1.3.9 8.2 4.7 10.8 6 1.3.6 3.4 1.6 9.6 4.3 8.5 3.7 25 8.4 35.9 10.3 7.7 1.3 9.4 1.6 14 2.1 19.7 2.1 39.1 2 56.3-.5 9.6-1.3 17.5-3.1 25.9-5.6 54.8-16.9 82.6-60.9 72.7-115-.7-3.7-2.9-12-3.8-14.3-6-15-15.5-28-27.1-36.8-1.5-1.2-2.9-2.3-3.1-2.4-.4-.5-4.6-3.3-8.5-5.6-4.4-2.7-22.9-11.8-23.9-11.8-.4 0-1-.2-1.2-.4-.3-.2-2.4-1.2-4.8-2.1s-4.8-1.9-5.4-2.1c-1.3-.6-10.9-3.7-21.8-7.1-10-3.2-23.5-7.9-28.4-10-.8-.4-3.6-1.5-6.1-2.6-17.4-7.3-25-16.4-25-29.7 0-11.6 5.8-20.1 17.4-25.7 3-1.5 3.6-1.7 7.3-2.8 13.1-3.7 33-3.9 46.6-.5 9.6 2.4 12.2 3.3 18.2 5.6 8.6 3.4 19 9.4 27.4 15.8 3.9 2.9 3 3.3 10.4-5.2.5-.6 2.1-2.4 3.6-4.1s3-3.4 3.4-3.9 1.9-2.2 3.3-3.9 3.5-4 4.6-5.3 2.8-3.1 3.7-4.1 3.5-4 5.8-6.7l4.2-4.9-2.5-2.3c-1.4-1.3-3.5-3.1-4.7-4.1s-2.5-2-2.8-2.3c-6-5.5-24.4-16-35.2-20.2-2.4-.9-4.8-1.9-5.2-2.1-.5-.3-1.3-.5-1.9-.5s-1.1-.2-1.3-.5-.8-.5-1.3-.5c-.6 0-1.4-.2-1.9-.5-1-.6-5.1-1.6-13.2-3.4-9.3-2.1-10-2.2-23.3-3.8-5.1-.6-35.7-.5-40.1.1-1.7.2-5 .7-7.4 1s-5.2.8-6.1 1c-1 .2-3.1.7-4.6 1-38.2 7.8-68.2 31.4-78.1 61.2-7.1 21.4-5 49.6 5 67.9 5.8 10.6 11.7 17.1 24.5 27.4 6.4 5.1 25.2 15.2 36.6 19.7 2.3.9 4.8 1.9 5.6 2.3s2.3.9 3.3 1.3c1 .3 2.3.8 2.8 1s1.8.7 2.8 1 2.3.8 2.8 1.1c1.2.5 11.2 3.7 20 6.4 28.1 8.7 44.2 18.2 49.6 29.5 4.6 9.6 4.5 22.9-.1 32.7-1.8 3.7-10.3 13.3-11.9 13.3-.3 0-1.5.6-2.7 1.4-16.3 10.9-57.5 10.6-83.1-.7-1-.4-2.6-1.2-3.7-1.6-10.4-4.6-19.9-10.3-29-17.6-5-4-5.5-4.2-7-2.3" style="fill-rule:evenodd;clip-rule:evenodd"/></svg>