<svg xmlns="http://www.w3.org/2000/svg" xml:space="preserve" viewBox="0 0 512 512"><path d="M425.9 98.7c-.3-2.7-2.7-3.9-4.5-4.2s-38.1-.6-38.1-.6-30.6-29.7-33.6-32.7-8.8-2.1-11.2-1.5c0 0-5.8 1.8-15.4 4.8-1.5-5.1-3.9-11.5-7.3-17.9-10.9-20.9-26.6-31.8-46-31.8-1.2 0-2.7 0-3.9.3-.6-.6-1.2-1.2-1.8-2.1-8.7-9-19.3-13.3-32-13-24.8.6-49.4 18.5-69.6 50.6-14.2 22.4-24.8 50.6-27.9 72.4-28.5 8.8-48.4 14.8-48.7 15.1-14.2 4.5-14.8 4.8-16.7 18.5-1.5 10-39.1 301-39.1 301L345.3 512l136.5-33.9c.1 0-55.6-377-55.9-379.4M307.2 69.3c-7.3 2.1-15.4 4.8-24.5 7.6-.3-12.4-1.8-30-7.6-45.1 19 3.6 28.1 24.8 32.1 37.5m-40.9 12.8c-16.7 5.1-34.5 10.6-52.7 16.3 5.1-19.4 14.8-38.8 26.6-51.5 4.5-4.8 10.6-10 17.9-13 7 14.3 8.2 34.5 8.2 48.2m-33.9-65.4c5.8 0 10.6 1.2 14.8 3.9-6.7 3.3-13.3 8.5-19.4 15.1-15.7 17-27.9 43-32.7 68.4-15.1 4.5-29.7 9.1-43.3 13.3 9.1-39.9 42.4-99.5 80.6-100.7" style="fill:#95bf47"/><path d="M421.3 94.5c-1.8-.3-38.1-.6-38.1-.6s-30.6-29.7-33.6-32.7c-1.2-1.2-2.7-1.8-4.2-1.8V512l136.5-33.9s-55.7-376.6-56-379.4c-.7-2.7-2.8-3.9-4.6-4.2" style="fill:#5e8e3e"/><path d="M269.6 164.7 253.9 224s-17.6-8.2-38.8-6.7c-30.9 1.8-31.2 21.2-30.9 26.3 1.8 26.6 71.5 32.4 75.4 94.5 3 49-26 82.4-67.8 85.1-50.3 3-77.8-26.3-77.8-26.3l10.6-45.1s27.9 20.9 50 19.7c14.5-.9 19.7-12.7 19.1-21.2-2.1-34.5-59-32.7-62.7-89.3-3-47.8 28.5-96.3 97.8-100.8 27.2-2.4 40.8 4.5 40.8 4.5" style="fill:#fff"/></svg>