<svg xmlns="http://www.w3.org/2000/svg" xml:space="preserve" viewBox="0 0 512 512"><path d="M407.9 455.8c-22.3-16.7-54.8-29.3-89.7-42.7-41.4-15.8-88.3-33.9-123.1-62.3-40-31.6-59.5-71.5-59.5-122.2 0-45.5 18.6-84.1 54.4-112C230 85 290.4 68.8 364.7 68.8c20.4 0 40.4 1.4 58.5 3.7 1.4 0 3.3-.5 3.7-2.3.9-1.4.5-3.3-.9-4.2C379.6 23.7 318.7.5 255.5.5 187.2.5 123.1 27 74.8 75.3S0 187.7 0 256s26.5 132.4 74.8 180.7 112.4 74.8 180.7 74.8c55.3 0 107.8-17.2 151.9-50.2.9-.9 1.4-1.9 1.4-2.8.5-.9.1-1.8-.9-2.7m102.2-223.5c0-.9-.5-1.9-1.4-2.3-53-44.1-96.2-62.3-148.7-62.3-27.9 0-49.2 5.6-63.7 16.7-12.5 9.8-19 22.8-19 38.6 0 43.7 53.9 64.1 115.7 87.3 32.1 12.1 65 24.2 95.7 41.4.5.5.9.5 1.9.5.5 0 .9 0 1.4-.5.9-.5 1.9-.9 2.3-2.3C506 319.7 512 288.1 512 256c-.5-7.4-.9-15.3-1.9-23.7" style="fill:#fff"/></svg>