<svg xmlns="http://www.w3.org/2000/svg" xml:space="preserve" viewBox="0 0 512 512"><path d="M423.7 101.1c3.4 23.8 46.7 316.5 55.1 373.1l-123 30.5v-432c9.7 9.4 25.9 25.2 26.8 26.1l1.9 1.8h2.6c12.2.1 31.7.3 36.6.5m-81 410.9L33.3 458.6S71 167 72.5 157c1.9-13.7 2.5-14 16.7-18.5.3-.3 20.2-6.3 48.8-15.1 3.1-21.8 13.7-50.1 28-72.6C186.2 18.6 210.9.6 235.7 0c12.7-.3 23.3 4 32.1 13 .6.9 1.2 1.5 1.8 2.1 1.2-.3 2.7-.3 3.9-.3 19.4 0 35.2 10.9 46.1 31.9 3.4 6.4 5.8 12.8 7.3 17.9 9.6-3 15.4-4.8 15.4-4.8.1 0 .3-.1.4-.1zM261.8 34c-7.3 3-13.4 8.2-17.9 13-11.8 12.7-21.5 32.2-26.7 51.6 18.2-5.7 36.1-11.2 52.8-16.3 0-13.7-1.2-34-8.2-48.3m-106.6 83.7c13.6-4.2 28.3-8.8 43.4-13.3 4.8-25.5 17-51.5 32.8-68.5 6.1-6.6 12.7-11.8 19.4-15.1-4.2-2.7-9-3.9-14.8-3.9-38.3 1.1-71.6 60.8-80.8 100.8m63.5 100.1c21.2-1.5 38.9 6.7 38.9 6.7l15.7-59.4s-13.6-6.9-40.9-4.5c-69.4 4.5-101 53.1-98 101 3.7 56.7 60.7 54.9 62.8 89.5.6 8.5-4.6 20.3-19.1 21.2-22.1 1.2-50.1-19.7-50.1-19.7l-10.6 45.2s27.6 29.4 78 26.4c41.9-2.7 71-36.2 67.9-85.3-3.9-62.2-73.8-68-75.6-94.7-.3-5.2 0-24.6 31-26.4M311 69.5c-4-12.7-13.1-34-32.2-37.6 5.8 15.1 7.3 32.8 7.6 45.2 9.1-2.8 17.2-5.5 24.6-7.6"/></svg>