<svg xmlns="http://www.w3.org/2000/svg" xml:space="preserve" viewBox="0 0 512 512"><path d="M96.7.4C45.5 4.2 11.6 36 3.7 87.5 2.5 95.5 1.8 394 2.9 410c4.1 55.2 32.9 90.8 81.7 100.7 6.1 1.2 324.7 1.9 336.3.7 48-5 80.6-39.4 87.6-92.7 1.6-11.8 1.5-320.4 0-331.2-6.8-47.3-36.3-78.5-81.6-86.2C421.5.4 108.5-.5 96.7.4m163.5 36.9c3.2 2.9 24.7 26.9 34.3 38.3 7.3 8.7 2 11.3-17.5 8.6-4.2-.6-4.2-.8-4.6 17-.2 8.6-.4 20-.4 25.3 0 11.2-.5 15.1-2 16.1-1.9 1.4-26.6 1.1-28.3-.3l-1.3-1.1-.4-27.1c-.2-14.9-.6-27.6-.7-28.3-.4-1.8-1.2-1.9-12.1-1.2l-10.1.7-1.4-1.6c-2.6-3-3.2-2.2 18.6-26.9 18.4-20.9 19-21.4 21.8-21.4 1.5 0 2.6.5 4.1 1.9m-33.7 65.3c1.3 1.2 1.6 18.1.3 19.8-.7.9-5.3 1-58.9 1.3-60.4.3-59.8.3-62.1 2.8l-1.4 1.5-.2 94.7c-.1 70.5 0 95.1.5 96.3 1.4 3.3-8.6 3.1 151.5 3.3l147.8.2 1.6-1.2c3.2-2.4 3 3.4 2.9-98.5-.1-89.3-.2-94.7-1.1-96.1-2-2.9-.2-2.8-62.4-2.8-52.4 0-58.6-.1-59.4-.9-1.4-1.4-1.3-18.8 0-20.3 1-1.1 98-1.6 121.3-.5 13.6.6 18.6 3.4 21.5 11.7 1 3 1.4 214 .4 218.9-1.4 6.8-6.8 11.5-14.6 12.8-2.6.4-49.2.6-160.5.5-178.6-.2-160.4.4-166-5.3-5.3-5.3-4.8 5.5-4.7-117.5l.1-108.3 1.6-3.2c3.2-6.6 7.9-9.1 17.5-9.6 17.7-.9 123.2-.5 124.3.4m32.7 54.6c3.3.9 5.4 2.6 6.6 5.3 1.8 4 1.6 59.6-.2 63.2-3.9 7.7-14.7 8.4-18.5 1.2l-1.3-2.5v-29.1c0-31.7.1-32.3 3.2-35.3 3-3 6.3-3.9 10.2-2.8m-29.4 15.9c6.7 4.8 5.9 11.8-2 18-21.7 17-26.2 43.8-11.1 66 18.3 27 61 26.7 79.5-.5 14.8-21.8 10.2-48-11.5-65.5-4.5-3.7-5.9-5.8-5.8-9.1.3-21.6 31.1-3.3 41 24.5 15.5 43.4-17.2 89.6-63.6 89.6-50.5 0-83-52.2-60.5-97.1 8.6-17.3 26.8-31.1 34-25.9m67 184.5c1.3 1.2 2.2 4.4 5 18.4 3.5 17.3 1.1 15.4 19.3 16 15 .5 17.5 1 20 4.5 2.8 4 2.8 11.2 0 12.8-.9.5-24.5.6-85.2.6h-84.1l-1.3-1.5c-1.8-2.1-1.8-7.1 0-10.6 2.5-5 6.5-5.7 33.6-6.2 2.5 0 3.3-1.2 4.2-5.7.5-2.4 1.8-9.2 2.9-15.3 1.4-7.2 2.5-11.5 3.1-12.3l1-1.3 32.5-.3c39.2-.6 47.6-.4 49 .9" style="fill-rule:evenodd;clip-rule:evenodd"/></svg>