<?xml version="1.0" encoding="utf-8"?>
<!-- Generator: Adobe Illustrator 28.2.0, SVG Export Plug-In . SVG Version: 6.00 Build 0)  -->
<svg version="1.1" id="Layer_1" xmlns:sketch="http://www.bohemiancoding.com/sketch/ns"
	 xmlns="http://www.w3.org/2000/svg" xmlns:xlink="http://www.w3.org/1999/xlink" x="0px" y="0px" viewBox="0 0 512 512"
	 style="enable-background:new 0 0 512 512;" xml:space="preserve">
<style type="text/css">
	.st0{fill-rule:evenodd;clip-rule:evenodd;}
</style>
<g id="Page-1" sketch:type="MSShapeGroup">
	<path id="Shape" class="st0" d="M152.9,238.2c-1,0-1.4-0.4-1.7-0.8c0,0-5.9-1.2-7.6-0.7c-1.7,0.5-11.6-1.2-15.9-4.3
		c-4.3-3.1-8.7-0.9-12.7-3.3c-4-2.4-10.1-2.1-14.6-2.3c-4.5-0.2-10.2,0.2-12.3,3c-2.1,2.8-10.2,11.3-13.2,14.8
		c-2.9,3.5-14.9,16-19.6,17.9c0,0,1.2,1.9,0.5,3.3c-0.7,1.4-0.2,5.4-0.2,6.8c0,1.4,0.3,3.6-0.9,5c-1.2,1.4-1.9,3.6-1.9,4.5
		s-1.4,4,0,8.2c1.4,4.2,2.6,8.9-3.1,7c-5.7-1.9-4.5-7.1-9.2-7.3c-4.7-0.2-10.7,0-12.5-6.4c-1.7-6.4-5-17.4-5.7-19.1
		c-0.7-1.7-3.1-9.7,1.4-16.7c4.5-7,5.4-12,6.1-13.6c0.7-1.6,4-11.5,6.4-12.9c2.4-1.4,1.6-5.7,2.9-7.6c1.4-1.9,0.9-5,1.7-6.8
		c0.9-1.7,1.2-6.8,2.4-10.6c1.2-3.8,5.2-9.7,7.6-12.9c2.4-3.1,3.8-7.8,3.8-9.4s-0.9-4.9,3.1-7.6c4-2.8,11.1-11.8,11.8-13.2
		c0-0.3,0-6.8-0.4-9c-0.3-2.3-0.9-4.3,1.4-5.2c2.3-0.9,5.4-2.8,5.4-2.8s-2.2-2.8-6.8-5.1c-4.7-2.3-18.7-18.3-20-27.6
		C48,93.9,47.5,79,60.2,73.8C73,68.6,87,65.7,89.1,65.5c2.1-0.3,9.4-1.8,12.2,0.3c0,0-3.1-0.5-4.4,0c-1.3,0.5,6.2,0.3,8.1,2.3
		c0,0-3.6-1-5.7-0.8c-2.1,0.3,3.6,2.6,4.7,4.4c1,1.8,4.9,3.1,4.4,6c-0.5,2.9-0.8,7.3-0.3,8.6c0.5,1.3,1.8,3.7,2.1,7.3
		c0.3,3.7,1.3,8.6,2.3,11c1,2.3,3.6,9.7,2.6,14.9c0,0,1,2.6,6.2-3.4c5.2-6,10.4-7,13-7c2.6,0,6.5-2.6,9.1-1.6c2.6,1,5.5-0.3,8.6,0.5
		c3.1,0.8,16.1,0,19-1c2.9-1,12.7-2.3,14.8-2.3c2.1,0-2.6-3.4,1.3-6c3.9-2.6-4.2-3.9,1.8-11.5c6-7.6,0.3-9.7-0.8-11.2
		c-1-1.6-1.3-6.5-1.3-9.4c0-2.9-0.8-10.2-0.8-10.2l1-1.3c0,0-0.8-1.4-1.7-1.9c-0.8-0.5-1.6-3.5-2.3-5.4c-0.7-2-7.9-12.7-10-14.3
		c-2.1-1.7-2.5-4.1-2.1-6.4c0.3-2.3,2-4.3,1.6-6.7c-0.3-2.5-0.2-5.7-0.3-6.9c-0.2-1.2,0.3-8.1,1.8-8.7c0,0,1.1-0.5,1.6,1.1
		c0,0-0.8-5.7,1-5.7c0,0,2.1-0.7,3,2.3c0.8,3,1.6,4.6,1.8,5.4s0.8,2.1,0.8,2.1s1.8-0.8,3.3-0.2c1.5,0.7,2.5,1.3,2.5,2.1
		s0-0.7,1.8-0.7c1.8,0,3.4-0.5,3.9,1.3c0.5,1.8,0.8,3.1,1,4.9c0.2,1.8,0.5,3.3,1.1,4.6c0.7,1.3,1.6,3.6,1.6,6.7s1.2,8.9,1.6,11.5
		c0.5,2.6,6.1,12.8,6.1,12.8s8.5,1.6,12.4,0.8c3.9-0.8,10.8,0.7,10,4.3c-0.8,3.6-1.3,14.3-1.6,22.7s-1.6,24.7-3,30.4
		c-1.3,5.7-9.3,20.7-12.6,23.2c-3.3,2.5-6.9,4.1-15.9,8.4c-9,4.3-19.5,9-19.5,9s5.6,7.9,6.9,8.4c1.3,0.5,1.1-1.1,2.8-0.5
		c0.8,0.3,3.6,1.4,1.8,0.7c0,0.1,9.9,2.6,9.9,2.6c0.9,0,1.5-0.2,1.4-0.8c-0.5-2.3,1.8-5.3,2.8-5.9c1-0.7-1.5,3,0,4.6
		c1.5,1.6,22.7-4.6,22.3-3.5c-0.4,1.1,1.1,1.2,2.5,0.2c1.3-1.1,7-4.7,10.9-4.7c4,0,13.1,0.8,15.5-0.1c2.4-0.9,13.5-7.7,17.2-9.5
		c3.7-1.8,16.4-1.6,21.8-5.3c5.4-3.6,17.2-12.1,22.2-15.2c5-3.1,42-25.8,49.9-27.1s26.8-8.7,30.1-11.1c3.2-2.3,13.5-8,15.5-9.7
		c2.1-1.8,12.3,2.7,17.6,10.3c0,0,10.4-5.1,12.7-5.3c2.2-0.2,6.4-3.1,9.6-5.5c3.2-2.5,12.8-8.9,17-11c0,0,2.1-0.9,2.5-2.4
		c0.4-1.5,2.1-4.3,3.6-3.8c0,0,3.3-4.3,4.7-3c0,0,2.9-2.8,4.6-1.3c0,0,1.7,0.2,2.2,1.1c0,0,2.1-1.7,3.1-0.4c0,0,1.5-1.7,4.1,0.3
		c0,0,1.7,2.1-1.4,6c0,0-2,1-3.4,3.9c-1.4,2.9-5.2,8.3-9.4,10.4c-4.2,2.1-9.1,5.9-8.9,13.5c0.2,7.6-3.1,16.5-11,14.5
		c-8-2-15,0.7-22,4.5c0,0-0.6,4-1.3,5c-0.7,1-3.8,0.6-8.1,3.4c-4.3,2.7-6.9,3.7-10.3,6.3c-3.4,2.5-4.1,4.3-7,5.6
		c-2.9,1.3-6.1,5-7.9,7c-1.9,2-8.9,6.9-17.2,11c-8.3,4-42.3,16.2-50.1,22.6c-7.9,6.4-22.3,17.9-44.3,28.6c-0.9,0.4-1.8,0.9-2.6,1.3
		c-1.3,1.2-20.2,18.5-26.7,23.1c-6.7,4.7-9.4,5.4-11.4,16.1c-1.3,7.1-6.7,18.5-10.4,27.6c-0.8,8.9-1.3,17.5-1.5,22.7
		c-0.3,6.8-8.9,74.2-11,81.5c-2.1,7.3-2.6,12.8-1.6,18.5c1,5.7-1.6,12.5-4.7,18.2c-3.1,5.7-8.3,19.3-7.5,27.1s1.6,10.7-0.8,11.7
		c-2.3,1-9.9,0.8-10.9,3.4c-1,2.6-4.9,2.6-4.9,2.6s-1.2,11.6,0.9,13.7c2,2,9.3,10.6,0.5,17c-8.8,6.4-18,12.1-20.2,16.5
		c-2.2,4.5-7,7-8.8,8.4c-1.8,1.4-5,3.5-5.3,4.3c-0.2,0.8-2.9,2.4-5.4,1.7c0,0-2.2,1-4.5-1.6c0,0-3.7,0.4-4.4-2c0,0-3.1,0.2-3.5-2.2
		c0,0-1.6-3.5,3.1-4.9c4.7-1.5,12.1-11.9,12.4-13.6c0.2-1.7,3.7-12.2,6.4-16.5c2.6-4.3,6.1-15.7,6.6-26c0,0-1.1-0.7-1.1-1.8
		c0-1.1,0.1-6.1,0.6-8c0.5-1.9,1.6-7.5,0.9-15.6c-0.7-8.2,1-21.5,0-30.8c-1-9.2,0.9-73.1,3.7-81.5c2.8-8.3,3.8-10.2,3.6-13.6
		c-0.2-3.3,0-13.4,1-13.9c1-0.5,1.2-13.2,0.9-14.6c-0.4-1.4-7.8-6.6-8.8-10.2c0,0,0.2,3.8,0,5.2c-0.2,1.4-0.3-0.3-3.1-3.3
		c-2.8-3-8-9.2-8.3-13.7C160.6,242.8,152.9,238.2,152.9,238.2L152.9,238.2z"/>
	<path id="Shape_00000059307583479665128420000012573823302491101621_" class="st0" d="M186.6,160.4c-0.8,14.1-33.8,78.4-33.8,78.4
		c-1.2,5.7-0.9,11-0.3,14.2c1.4,7.6-5.6,18.9-5.6,18.9l7.6,4c10.3-6,5.9-23.8,5.9-23.8c-0.9-3.2-0.9-6.3-0.5-9.2l0.1,0.1
		c0,0,37.4-74.2,35.6-80C195.6,162.9,191.2,162.3,186.6,160.4L186.6,160.4L186.6,160.4z"/>
</g>
</svg>
