<svg xmlns="http://www.w3.org/2000/svg" xml:space="preserve" viewBox="0 0 512 512"><path d="M152.9 238.2c-1 0-1.4-.4-1.7-.8 0 0-5.9-1.2-7.6-.7s-11.6-1.2-15.9-4.3-8.7-.9-12.7-3.3-10.1-2.1-14.6-2.3-10.2.2-12.3 3-10.2 11.3-13.2 14.8c-2.9 3.5-14.9 16-19.6 17.9 0 0 1.2 1.9.5 3.3s-.2 5.4-.2 6.8.3 3.6-.9 5-1.9 3.6-1.9 4.5-1.4 4 0 8.2 2.6 8.9-3.1 7-4.5-7.1-9.2-7.3-10.7 0-12.5-6.4c-1.7-6.4-5-17.4-5.7-19.1s-3.1-9.7 1.4-16.7 5.4-12 6.1-13.6 4-11.5 6.4-12.9 1.6-5.7 2.9-7.6c1.4-1.9.9-5 1.7-6.8.9-1.7 1.2-6.8 2.4-10.6s5.2-9.7 7.6-12.9c2.4-3.1 3.8-7.8 3.8-9.4s-.9-4.9 3.1-7.6c4-2.8 11.1-11.8 11.8-13.2 0-.3 0-6.8-.4-9-.3-2.3-.9-4.3 1.4-5.2s5.4-2.8 5.4-2.8-2.2-2.8-6.8-5.1c-4.7-2.3-18.7-18.3-20-27.6C48 93.9 47.5 79 60.2 73.8 73 68.6 87 65.7 89.1 65.5c2.1-.3 9.4-1.8 12.2.3 0 0-3.1-.5-4.4 0s6.2.3 8.1 2.3c0 0-3.6-1-5.7-.8-2.1.3 3.6 2.6 4.7 4.4 1 1.8 4.9 3.1 4.4 6s-.8 7.3-.3 8.6 1.8 3.7 2.1 7.3c.3 3.7 1.3 8.6 2.3 11 1 2.3 3.6 9.7 2.6 14.9 0 0 1 2.6 6.2-3.4s10.4-7 13-7 6.5-2.6 9.1-1.6 5.5-.3 8.6.5 16.1 0 19-1 12.7-2.3 14.8-2.3-2.6-3.4 1.3-6-4.2-3.9 1.8-11.5.3-9.7-.8-11.2c-1-1.6-1.3-6.5-1.3-9.4s-.8-10.2-.8-10.2l1-1.3s-.8-1.4-1.7-1.9c-.8-.5-1.6-3.5-2.3-5.4-.7-2-7.9-12.7-10-14.3-2.1-1.7-2.5-4.1-2.1-6.4.3-2.3 2-4.3 1.6-6.7-.3-2.5-.2-5.7-.3-6.9-.2-1.2.3-8.1 1.8-8.7 0 0 1.1-.5 1.6 1.1 0 0-.8-5.7 1-5.7 0 0 2.1-.7 3 2.3.8 3 1.6 4.6 1.8 5.4s.8 2.1.8 2.1 1.8-.8 3.3-.2c1.5.7 2.5 1.3 2.5 2.1s0-.7 1.8-.7 3.4-.5 3.9 1.3.8 3.1 1 4.9.5 3.3 1.1 4.6c.7 1.3 1.6 3.6 1.6 6.7s1.2 8.9 1.6 11.5c.5 2.6 6.1 12.8 6.1 12.8s8.5 1.6 12.4.8 10.8.7 10 4.3-1.3 14.3-1.6 22.7-1.6 24.7-3 30.4c-1.3 5.7-9.3 20.7-12.6 23.2s-6.9 4.1-15.9 8.4-19.5 9-19.5 9 5.6 7.9 6.9 8.4 1.1-1.1 2.8-.5c.8.3 3.6 1.4 1.8.7 0 .1 9.9 2.6 9.9 2.6.9 0 1.5-.2 1.4-.8-.5-2.3 1.8-5.3 2.8-5.9 1-.7-1.5 3 0 4.6s22.7-4.6 22.3-3.5 1.1 1.2 2.5.2c1.3-1.1 7-4.7 10.9-4.7 4 0 13.1.8 15.5-.1s13.5-7.7 17.2-9.5 16.4-1.6 21.8-5.3c5.4-3.6 17.2-12.1 22.2-15.2s42-25.8 49.9-27.1 26.8-8.7 30.1-11.1c3.2-2.3 13.5-8 15.5-9.7 2.1-1.8 12.3 2.7 17.6 10.3 0 0 10.4-5.1 12.7-5.3 2.2-.2 6.4-3.1 9.6-5.5 3.2-2.5 12.8-8.9 17-11 0 0 2.1-.9 2.5-2.4s2.1-4.3 3.6-3.8c0 0 3.3-4.3 4.7-3 0 0 2.9-2.8 4.6-1.3 0 0 1.7.2 2.2 1.1 0 0 2.1-1.7 3.1-.4 0 0 1.5-1.7 4.1.3 0 0 1.7 2.1-1.4 6 0 0-2 1-3.4 3.9s-5.2 8.3-9.4 10.4-9.1 5.9-8.9 13.5-3.1 16.5-11 14.5c-8-2-15 .7-22 4.5 0 0-.6 4-1.3 5s-3.8.6-8.1 3.4c-4.3 2.7-6.9 3.7-10.3 6.3-3.4 2.5-4.1 4.3-7 5.6s-6.1 5-7.9 7c-1.9 2-8.9 6.9-17.2 11-8.3 4-42.3 16.2-50.1 22.6-7.9 6.4-22.3 17.9-44.3 28.6-.9.4-1.8.9-2.6 1.3-1.3 1.2-20.2 18.5-26.7 23.1-6.7 4.7-9.4 5.4-11.4 16.1-1.3 7.1-6.7 18.5-10.4 27.6-.8 8.9-1.3 17.5-1.5 22.7-.3 6.8-8.9 74.2-11 81.5s-2.6 12.8-1.6 18.5-1.6 12.5-4.7 18.2-8.3 19.3-7.5 27.1 1.6 10.7-.8 11.7c-2.3 1-9.9.8-10.9 3.4s-4.9 2.6-4.9 2.6-1.2 11.6.9 13.7c2 2 9.3 10.6.5 17s-18 12.1-20.2 16.5c-2.2 4.5-7 7-8.8 8.4s-5 3.5-5.3 4.3c-.2.8-2.9 2.4-5.4 1.7 0 0-2.2 1-4.5-1.6 0 0-3.7.4-4.4-2 0 0-3.1.2-3.5-2.2 0 0-1.6-3.5 3.1-4.9 4.7-1.5 12.1-11.9 12.4-13.6.2-1.7 3.7-12.2 6.4-16.5 2.6-4.3 6.1-15.7 6.6-26 0 0-1.1-.7-1.1-1.8s.1-6.1.6-8 1.6-7.5.9-15.6c-.7-8.2 1-21.5 0-30.8-1-9.2.9-73.1 3.7-81.5 2.8-8.3 3.8-10.2 3.6-13.6-.2-3.3 0-13.4 1-13.9s1.2-13.2.9-14.6c-.4-1.4-7.8-6.6-8.8-10.2 0 0 .2 3.8 0 5.2s-.3-.3-3.1-3.3-8-9.2-8.3-13.7c-.4-.2-8.1-4.8-8.1-4.8" style="fill-rule:evenodd;clip-rule:evenodd;fill:#991b21"/><path d="M186.6 160.4c-.8 14.1-33.8 78.4-33.8 78.4-1.2 5.7-.9 11-.3 14.2 1.4 7.6-5.6 18.9-5.6 18.9l7.6 4c10.3-6 5.9-23.8 5.9-23.8-.9-3.2-.9-6.3-.5-9.2l.1.1s37.4-74.2 35.6-80c0-.1-4.4-.7-9-2.6" style="fill-rule:evenodd;clip-rule:evenodd"/></svg>