<svg xmlns="http://www.w3.org/2000/svg" xml:space="preserve" viewBox="0 0 512 512"><path d="m508.7 191.9-55.9-42.3 26.2-35.9c4.2-5.7 2.9-13.7-2.8-17.9L359.5 10.4c-5.7-4.2-13.7-2.9-17.9 2.8l-24.5 33.5-55.7-42.1c-2.9-2.2-7-2.2-9.9 0L3.3 191.2c-2.8 2.1-4 5.7-2.9 9l94 302.7c1.1 3.4 4.3 5.8 7.9 5.8l306.2.4c3.6 0 6.8-2.3 7.9-5.8l95.2-302.4c1.1-3.3-.1-6.9-2.9-9M402.5 492.6l-294.1-.4-90.5-291.3L256.4 21.5l51 38.6-6.4 8.7-80.5 34c-12.4 5.3-21.2 16.7-23.1 30.1l-37.7 273.7L409 287.4c12.2-5.8 20.4-17.7 21.7-31.2l7.9-87 4.6-6.3 51 38.6zm-73.6-287c-2.2-14-15.3-23.5-29.2-21.3-14 2.2-23.5 15.3-21.3 29.2l-86.5 147.3-.3 2.3 31.2-226.6c.6-4.5 3.5-8.3 7.7-10.1l77.1-32.5 105.2 76.8-7.6 83.3c-.4 4.5-3.1 8.4-7.2 10.4L193.7 362l114-127.2c13.9-2.2 23.4-15.3 21.2-29.2" style="fill-rule:evenodd;clip-rule:evenodd"/></svg>