<svg xmlns="http://www.w3.org/2000/svg" xml:space="preserve" viewBox="0 0 512 512"><path d="M409.6 0H102.4C45.8 0 0 45.8 0 102.4v307.2C0 466.2 45.8 512 102.4 512h307.2c56.6 0 102.4-45.8 102.4-102.4V102.4C512 45.8 466.2 0 409.6 0M224.2 372.6l-.7 11.4h-.9c-.5 0-1.1-.1-1.9-.2-1.6-.2-3.9-.5-6.7-1-5.7-1-13.8-2.7-23.5-5.7-19.4-6-45.4-17.3-72.1-38.3-26.5-20.8-42-40.8-50.8-56-4.4-7.6-7.2-13.9-8.9-18.5-.8-2.3-1.4-4.1-1.8-5.5-.2-.7-.3-1.2-.4-1.6 0-.2-.1-.4-.1-.5v-1.2c0-.1.1-.3.1-.5.1-.4.2-1 .4-1.6.4-1.3.9-3.2 1.8-5.5 1.7-4.6 4.4-10.9 8.9-18.5 8.9-15.2 24.3-35.2 50.9-56.1 26.7-21 52.7-32.2 72.1-38.3 9.7-3 17.8-4.7 23.5-5.7 2.9-.5 5.1-.8 6.7-1 .8-.1 1.4-.1 1.9-.2h.9l.7 11.4.7 11.4h-.3c-.3 0-.7.1-1.3.1-1.2.1-3.1.4-5.5.8-4.1.7-9.9 1.9-16.9 3.9-.2.1-.4.1-.7.2-14.1 4.8-34.1 14.2-57.6 32.6-23.4 18.3-36.6 35.6-43.8 48.1-3.6 6.3-5.8 11.3-7.1 14.8-.6 1.7-1 3-1.3 3.9-.1.4-.2.7-.2.9s.1.5.2.9c.2.9.6 2.2 1.3 3.9 1.3 3.4 3.4 8.5 7.1 14.8 7.3 12.5 20.4 29.8 43.8 48.1 23.5 18.4 43.5 27.8 57.6 32.6.2.1.4.1.7.2 7 2 12.8 3.2 16.9 3.9 2.4.4 4.3.6 5.5.8.6.1 1 .1 1.3.1h.3c-.1-.2-.1-.2-.8 11.1M168.7 256c0-50.4 40.6-91.3 90.6-91.3s90.6 40.9 90.6 91.3-40.6 91.3-90.6 91.3c-50.1 0-90.6-40.9-90.6-91.3m287 .3v.3c0 .1-.1.3-.1.5-.1.4-.2 1-.4 1.6-.4 1.3-.9 3.2-1.8 5.5-1.7 4.6-4.4 10.9-8.9 18.5-8.9 15.2-24.3 35.2-50.9 56.1-26.7 21-52.7 32.2-72.1 38.3-9.7 3-17.8 4.7-23.5 5.7-2.9.5-5.1.8-6.7 1-.8.1-1.4.1-1.9.2h-.9l-.7-11.4-.7-11.4h.3c.3 0 .7-.1 1.3-.1 1.2-.1 3.1-.4 5.5-.8 4.1-.7 9.9-1.9 16.9-3.9.2-.1.4-.1.7-.2 14.1-4.8 34.1-14.2 57.6-32.6 23.4-18.3 36.6-35.6 43.8-48.1 3.6-6.3 5.8-11.3 7.1-14.8.6-1.7 1-3 1.3-3.9.1-.4.2-.7.2-.9s-.1-.5-.2-.9c-.2-.9-.6-2.2-1.3-3.9-1.3-3.4-3.4-8.5-7.1-14.8-7.3-12.5-20.4-29.8-43.8-48.1-23.5-18.4-43.5-27.8-57.6-32.6-.2-.1-.4-.1-.7-.2-7-2-12.8-3.2-16.9-3.9-2.4-.4-4.3-.6-5.5-.8-.6-.1-1-.1-1.3-.1h-.3l.7-11.4.7-11.4h.9c.5 0 1.1.1 1.9.2 1.6.2 3.9.5 6.7 1 5.7 1 13.8 2.7 23.5 5.7 19.4 6 45.4 17.3 72.1 38.3 26.6 20.8 42.1 40.9 50.9 56.1 4.4 7.6 7.2 13.9 8.9 18.5.8 2.3 1.4 4.1 1.8 5.5.2.7.3 1.2.4 1.6 0 .2.1.4.1.5zm-233.2 28.2c3.3 10 14.2 22.8 14.2 22.8h-28.3s-5.7-2.9-11.3-17.1c-5.7-14.3-5.7-22.8-5.7-22.8h28.3c-.1 0 .7 10.7 2.8 17.1m-14.2-79.9h28.3s-10.9 12.8-14.2 22.8c-2.1 6.4-2.8 17.1-2.8 17.1h-28.3s0-8.6 5.7-22.8c5.6-14.2 11.3-17.1 11.3-17.1" style="fill:#fff"/></svg>