<svg xmlns="http://www.w3.org/2000/svg" xml:space="preserve" viewBox="0 0 512 512"><path d="M337.6 5.2c6.9-6.9 18.3-6.9 25.6 0l143.6 143.6c6.9 6.9 6.9 18.3 0 25.6L438.2 243l-29.6 118.9c-4.5 18.3-18.7 33.3-36.9 38.5L0 512l111.6-372.1c5.3-18.3 20.3-32.1 38.5-36.9l119.3-29.6zm-64.9 104.7-114 28.4c-6.1 1.6-11 6.1-13 12.2l-92.5 308 308-92.5c6.1-2 10.6-6.9 12.2-13l28.4-114zM56.4 457.6l185.8-152.2c19.9 0 36.1-16.2 36.1-36.1s-16.2-36.1-36.1-36.1-36.1 16.2-36.1 36.1L54 455.2l-.8 3.2z" style="fill-rule:evenodd;clip-rule:evenodd;fill:#fff"/></svg>