<?xml version="1.0" encoding="utf-8"?>
<!-- Generator: Adobe Illustrator 28.2.0, SVG Export Plug-In . SVG Version: 6.00 Build 0)  -->
<svg version="1.1" id="Layer_1" xmlns:serif="http://www.serif.com/"
	 xmlns="http://www.w3.org/2000/svg" xmlns:xlink="http://www.w3.org/1999/xlink" x="0px" y="0px" viewBox="0 0 512 512"
	 style="enable-background:new 0 0 512 512;" xml:space="preserve">
<style type="text/css">
	.st0{fill:#56E3FF;}
	.st1{fill:#8873FE;}
	.st2{fill:#FF557A;}
	.st3{fill:#FFAC54;}
	.st4{fill:#FFFFFF;}
	.st5{fill:#333333;}
</style>
<path class="st0" d="M117.7,299.7c2.9-91.4,26.3-176.9,65.9-252.8h-136v418h88C122.3,411.9,115.6,356.8,117.7,299.7"/>
<path class="st1" d="M136,464.9h200.2C267.8,381,227.7,273.4,231.5,156.6c1.3-38,7.1-74.7,16.7-109.7h-64.7
	c-39.6,75.9-63,161.4-65.9,252.8C115.9,356.9,122.2,411.9,136,464.9"/>
<path class="st2" d="M336,464.9h129.7V336.8C384.4,268,333.9,164.1,337.7,49.4c0-0.8,0-2.1,0-2.9H248c-9.6,35-15.4,71.8-16.7,109.7
	C227.5,273,267.6,381,336,464.9"/>
<path class="st3" d="M465.7,336.8V46.8H337.6c0,0.8,0,2.1,0,2.9C333.9,164,384.4,267.9,465.7,336.8"/>
<path class="st4" d="M495.5,15.4V78h-62.6V15.4H495.5z M495.5,496.6V434h-62.6v62.6H495.5z M16.5,15.4V78h62.6V15.4H16.5z
	 M79.1,496.6V434H16.5v62.6H79.1z"/>
<path class="st5" d="M498,93c7.1,0,12.5-5.4,12.9-12.5V12.9C510.9,5.8,505.1,0,498,0h-67.6c-7.1,0-12.9,5.8-12.9,12.9v26H94.6v-26
	C94.6,5.8,88.7,0,81.6,0H14C6.9,0,1.1,5.8,1.1,12.9v67.2C1.1,87.2,6.9,93,14,93h25.9v325.5H14c-7.1,0-12.9,5.8-12.9,12.9v67.6
	c0,7.1,5.8,12.9,12.9,12.9h67.6c7.1,0,12.9-5.8,12.9-12.9v-26.7h322.9v26.7c0,7.1,5.8,12.9,12.9,12.9H498c7.1,0,12.5-5.8,12.9-12.9
	v-67.6c0-7.1-5.8-12.9-12.9-12.9h-24.6V93H498z M432.9,15.4h62.6V78h-22.1h-15.4h-25c0,0,0-12.5,0-23.6V39
	C432.9,27.9,432.9,15.4,432.9,15.4z M16.5,78V15.4h62.6V39v15.4V78H55.3H39.9H16.5z M79.1,496.6H16.5V434h23.4h15.4h23.8v23v15.4
	V496.6z M495.5,434v62.6h-62.6c0,0,0-12.7,0-24.2V457c0-10.7,0-23,0-23h25h15.4H495.5z M457.9,418.6h-27.5
	c-7.1,0-12.9,5.8-12.9,12.9V457H94.6v-25.5c0-7.1-5.8-12.9-12.9-12.9H55.3V93h26.3c7.1,0,12.9-5.4,12.9-12.5V54.4h322.9v25.7
	c0,7.1,5.8,12.9,12.9,12.9h27.5V418.6z"/>
</svg>
