<?xml version="1.0" encoding="utf-8"?>
<!-- Generator: Adobe Illustrator 28.2.0, SVG Export Plug-In . SVG Version: 6.00 Build 0)  -->
<svg version="1.1" id="Layer_1" xmlns="http://www.w3.org/2000/svg" xmlns:xlink="http://www.w3.org/1999/xlink" x="0px" y="0px"
	 viewBox="0 0 512 512" style="enable-background:new 0 0 512 512;" xml:space="preserve">
<style type="text/css">
	.st0{fill-rule:evenodd;clip-rule:evenodd;}
</style>
<path class="st0" d="M213,383.8l42.8-42.9l0,0l85.7-85.7l-84.1-84.1l0,0l-42-42l0,0l0,0l0,0l-84-84.1l42.8-42.9l84,84.1L344,0.5
	l42,42l-85.7,85.7l84,84.1l85.7-85.7l42,42l-85.7,85.7l84.1,84.1l-42.8,42.9l-84.1-84.1L297.9,383l84.1,84.1l-42.9,42.8l-84-84.1
	l-85.7,85.7l-42-42L213,383.8 M201.2,374l0.5-0.5l42.3-42.4l-73.5-73.6l74.9-74.9l-41.3-41.3l-0.7-0.8l-74.9,74.9l-84-84.1l-42.8,43
	l84,84.1L0,344.2l42,42l85.7-85.8L201.2,374z"/>
</svg>
