<svg xmlns="http://www.w3.org/2000/svg" xml:space="preserve" viewBox="0 0 512 512"><linearGradient id="simplelogin_svg__a" x1="-2.909" x2="1343.613" y1="257" y2="257" gradientTransform="matrix(1 0 0 -1 0 513)" gradientUnits="userSpaceOnUse"><stop offset="0" style="stop-color:#ed2e7c"/><stop offset="1" style="stop-color:#a8288f"/></linearGradient><path d="M497.6 105.7H128.9l-4.7 4.8-.8.9c-3.5 3.7-7.3 7.3-11 10.6-28 26.2-62.1 45.2-99.1 55.3-1.1.3-2.1.6-3.2.9l-4.7 1.1-1.1 4.7c-.4 1.7-.7 3.4-1.1 5.2-2.3 12-3.5 24.1-3.5 36.3C-.3 302 44.9 371.2 114.9 402c.8.4 1.7.8 2.6 1.1 1.9.9 3.9 1.6 5.8 2.4l2.3.9.3.1.2-.1s.4.1.6.1h370.6c8 0 14.5-6.5 14.5-14.4V120c0-7.9-6.3-14.3-14.2-14.4.2.1.1.1 0 .1m-25 23.1L318.3 263.3c-3.2 2.7-7.9 2.7-11-.1L257 218.6c-.2-10.7-1.4-21.4-3.5-31.9-.2-.9-.3-1.8-.5-2.7l-1.1-4.7-4.7-1.2c-1.1-.2-2.2-.6-3.4-.8-25.6-7-49.9-18.4-71.7-33.7l-16.7-14.7zM264.9 255.7l-12.7 11.2c1.5-6.4 2.6-12.9 3.4-19.4zM126.5 390c-4.7-1.9-9.4-4.1-14-6.4-59.3-30.4-96.7-91.4-97-158.1 0-11.2 1.1-22.4 3.2-33.5 34.3-9.2 66.3-25.6 93.8-48.1q8.55-6.9 16.5-14.7c25.9 25.3 57 44.6 91.1 56.7 6.1 2.2 12.3 4.2 18.7 5.9.7 4 1.4 8.1 1.8 12.2.7 6.6 1.1 13.2 1.1 19.9 0 3.6-.1 7.3-.4 10.9-1 17.7-4.8 35.1-11 51.6-18.2 47.8-56 85.6-103.8 103.6m45-5.9c27.1-18.2 49.2-43.1 64.2-72.1l46.3-40.9 25.1 22.5c3.2 2.8 7.9 2.8 11.1 0l25.6-22.7L472.3 384zm189.7-128.5 128.6-114.2.2 227.8zm-200 91.5c6.1-4.5 11.8-9.5 17.1-15.1zm57.3-132.4c-.4-3.2-.9-6.4-1.5-9.7q-7.65-2.1-15-4.8s-.1 0-.1-.1c-1.3-.4-2.5-.9-3.8-1.5-2.8-1.1-5.6-2.3-8.4-3.7-1.9-.9-3.9-1.8-5.9-2.8-1.4-.6-2.8-1.4-4.2-2.2-4.4-2.3-8.8-4.9-13.1-7.7-2.6-1.6-5.2-3.4-7.7-5.2-.2-.1-.4-.2-.6-.4-2.7-1.9-5.4-3.9-8-5.9-5.2-4-10.3-8.3-15.2-12.8-2.1-1.9-4.2-3.8-6.2-5.8-5.2 5.1-10.7 10-16.4 14.7-21.1 17.6-45.7 30.7-72.2 38.3-1.7 8.9-2.6 17.9-2.6 27 .2 52.8 28.7 101.3 74.8 127q7.05 3.9 14.4 6.9c2.9-1.1 5.8-2.3 8.6-3.6.1 0 .1 0 .2-.1 2.3-1.1 4.7-2.2 6.9-3.4 2.1-1.1 4.1-2.2 6.1-3.5.7-.4 1.3-.7 1.9-1.1 1.1-.6 2.1-1.3 3.1-1.9.2-.1.5-.3.6-.5 1.8-1.1 3.5-2.3 5.2-3.6.6-.3 1.1-.7 1.6-1.2l17.1-15.1s.2 0 .2-.1c17-17.7 29.3-39.4 35.8-63.1 3.4-12.4 5.2-25.2 5.2-38 .1-5.3-.2-10.7-.8-16.1m-83.1 82.7-13.1 13.1h-.1l-54.3-54.3 16.7-16.8 37.7 37.7 13.1-13.1 45.8-45.9 16.8 16.8z" style="fill:url(#simplelogin_svg__a)"/></svg>