<svg xmlns="http://www.w3.org/2000/svg" xml:space="preserve" viewBox="0 0 512 512"><path d="M399 155.4c-20.8 2.6-39.5 10.8-54.7 23.9-4.9 4.3-8.5 7.9-8.5 8.6 0 .2.8.5 1.8.7 2.5.4 8.2 3.4 10.6 5.5 6.4 5.7 9.7 15 10.6 30l.3 5.4h-21.6v-3c0-3.4-.5-7-1.5-10.4-.8-2.7-3.2-5.6-5.3-6.6-1.8-.7-5.9-.7-7.7 0-4.2 1.7-7.2 9.2-6.1 15.1 1.6 8.4 5.6 13.2 20.2 23.7 12.1 8.7 17.5 14.5 21.4 22.4 3.1 6.3 4 10.1 4.2 17.9.2 5.7.1 7-.7 10.3-3.1 12.7-13.4 23.3-23.6 24.3-1.3.1-2.4.4-2.5.6-.3.4 7 7.6 11.4 11 19.2 15.3 42 22.9 66.9 22 21.8-.7 42.7-8.4 59.4-21.9 4.4-3.5 11.1-9.8 11.1-10.3 0-.2-1.1-.7-2.5-1.3-5.6-2-11.5-7-15.7-13.2-8.3-12.3-12.5-28.1-13.1-49.1-.8-29.5 5.9-53.3 18.4-65.6 3.5-3.4 8.8-6.5 11.9-7 1-.2 1.8-.4 1.8-.6s-1.5-1.9-3.4-3.8c-14.3-14.8-34.2-24.8-56.7-28.4-5.9-.8-20.4-1-26.4-.2m-4.3 62.5v26.9h25.4V191h23.2v132.8h-23.2v-57.6l-12.5.1-12.6.1-.1 28.7-.1 28.8H372V191h22.8v26.9zm-278.5-52.2c-6.2 1.1-10.1 3.2-12.6 7-3.1 4.5-3 .3-3 72.3v64.8l3.7.3c4.7.4 12.2-.3 16.2-1.5 2.2-.7 3.5-1.4 5.1-2.9 4-3.8 3.7 2.9 3.8-72.7.1-63.5.1-66.7-.7-67.1-1.2-.5-10.2-.7-12.5-.2m72.1 36.3c-6.7.8-12.2 3.2-17.6 7.9-4.2 3.5-40 42.8-39.8 43.7.1.3 6.6 10.9 14.6 23.3 16 25.4 18 27.8 23.4 30.6 4.7 2.4 8.6 3.1 15.6 2.8 5.5-.2 7.4-.6 13.1-2.3.5-.2 1-.5 1-.7s-7.6-11.8-16.9-25.8-16.7-25.6-16.7-25.9c.1-.3 5.5-6.1 11.9-12.9 9.5-10.1 11.8-12.2 12.2-11.8.9 1 39.1 61.1 39.1 61.6 0 .2-5.3 11.6-11.8 25.4-6.5 13.7-11.9 25.1-11.9 25.4-.1.8 5.7 2.5 10.3 3.1 9.9 1.1 16.9-1.7 21.4-8.6.8-1.3 14.6-31.6 30.7-67.4 22.4-50 29-65.1 28.6-65.4-.3-.2-2.2-.8-4.1-1.3-4.2-1.2-11.5-1.4-14.9-.4-5.6 1.6-11.1 6.2-14.1 11.6-.7 1.4-5.5 12.4-10.6 24.4s-9.4 22.1-9.6 22.4c-.5.8 1.8 4.3-18.8-29.4-9.4-15.4-17.4-28.2-17.7-28.5-1.3-1.4-11.8-2.4-17.4-1.8m-151.5.4c-19.9 1.9-32.7 11.1-36 26.1-3.5 15.6 5.5 30 21.8 35.3 1.9.6 9.7 2.3 17.2 3.8 7.5 1.4 14.5 2.8 15.5 3.1 7.9 2.1 9.9 8.2 3.7 11.5-3.5 1.9-7.9 2.2-21.8 1.4-15.5-.9-21.6-.9-24.3 0-4.6 1.6-7.6 4.8-9.2 10-.9 3.1-1.1 12.9-.3 13.8.3.3 2.1.7 3.9.9 16.2 1.8 40.7 2.4 50 1.1 21-2.8 32.6-13.2 33.9-30.5 1-12.8-5.3-23.6-17-29.4-5.4-2.7-9.5-3.8-25.9-6.8-7.7-1.4-14.9-3-16-3.5-6.8-2.9-4.9-8.8 3.3-10.6 3.4-.7 11.8-.7 24.9 0 9.6.6 10.8.5 13.3-.1 6.6-1.7 9.9-5.9 11-14.2.4-3.2.2-8.6-.4-9.6-.3-.5-9.9-1.6-20.4-2.3-7-.5-21.9-.5-27.2 0m452.9 9c-2.9 1.4-4.9 3.8-7.3 8.7-4 8.2-5.8 17.7-6.2 31.9-.4 17.2 1.7 30.6 6.5 40.3 3.7 7.5 9.4 10.9 14.6 8.7 3.5-1.5 7.3-6.8 9.8-13.7 5.9-16.3 6.6-38.7 1.5-58-4-15.3-10.9-21.9-18.9-17.9m-180.2 45.3c0 13.9 3.2 28.7 8 37 1.8 3.3 5.7 7.3 8 8.3 9.4 4.5 18.1-6.6 14.9-19-1.7-6.3-5.1-10.1-16.6-18.4-4.3-3.1-9.2-6.8-10.8-8.2-1.7-1.4-3.1-2.5-3.2-2.5s-.3 1.3-.3 2.8"/></svg>