<svg xmlns="http://www.w3.org/2000/svg" xml:space="preserve" viewBox="0 0 512 512"><path d="M188.6 269.8c-29.8 0-53.8 24.1-53.8 53.8V458c0 29.8 24 53.8 53.8 53.8s53.8-24.1 53.8-53.8V323.6c0-29.8-24-53.8-53.8-53.8M.3 323.6c0 29.8 24 53.8 53.8 53.8s53.8-24.1 53.8-53.8v-53.8H54.1C24.3 269.8.3 293.9.3 323.6M188.6.1c-29.8 0-53.8 24-53.8 53.8s24.1 53.8 53.8 53.8h53.8V53.9c0-29.8-24-53.8-53.8-53.8m0 134.9H53.8C24 135 0 159.1 0 188.8s24 53.8 53.8 53.8h134.8c29.8 0 53.8-24 53.8-53.8S218.3 135 188.6 135m323.1 53.8c0-29.8-24-53.8-53.8-53.8s-53.8 24.1-53.8 53.8v53.8h53.8c29.8 0 53.8-24 53.8-53.8m-188.3 53.8c29.8 0 53.8-24.1 53.8-53.8V54c0-29.8-24-53.8-53.8-53.8S269.6 24.3 269.6 54v134.8c0 29.8 24.1 53.8 53.8 53.8m0 161.7h-53.8v53.8c0 29.8 24.1 53.8 53.8 53.8 29.8 0 53.8-24.1 53.8-53.8 0-29.8-24.1-53.8-53.8-53.8m134.8-134.5H323.4c-29.8 0-53.8 24-53.8 53.8s24.1 53.8 53.8 53.8h134.8c29.8 0 53.8-24.1 53.8-53.8 0-29.8-24.1-53.8-53.8-53.8"/></svg>