<?xml version="1.0" encoding="utf-8"?>
<!-- Generator: Adobe Illustrator 28.2.0, SVG Export Plug-In . SVG Version: 6.00 Build 0)  -->
<svg version="1.1" id="Layer_1" xmlns="http://www.w3.org/2000/svg" xmlns:xlink="http://www.w3.org/1999/xlink" x="0px" y="0px"
	 viewBox="0 0 512 512" style="enable-background:new 0 0 512 512;" xml:space="preserve">
<path d="M186.2,349.1c-6,0-11.9-2.3-16.5-6.8c-9.1-9.1-9.1-23.8,0-32.9l139.6-139.6c9.1-9.1,23.8-9.1,32.9,0
	c9.1,9.1,9.1,23.8,0,32.9L202.6,342.3C198.1,346.8,192.1,349.1,186.2,349.1z M512,256C512,114.8,397.2,0,256,0S0,114.8,0,256
	s114.8,256,256,256S512,397.2,512,256z M465.5,256c0,115.5-94,209.5-209.5,209.5c-115.5,0-209.5-94-209.5-209.5
	c0-115.5,94-209.5,209.5-209.5C371.5,46.5,465.5,140.5,465.5,256z"/>
</svg>
