<?xml version="1.0" encoding="utf-8"?>
<!-- Generator: Adobe Illustrator 28.2.0, SVG Export Plug-In . SVG Version: 6.00 Build 0)  -->
<svg version="1.1" id="Layer_1" xmlns="http://www.w3.org/2000/svg" xmlns:xlink="http://www.w3.org/1999/xlink" x="0px" y="0px"
	 viewBox="0 0 512 512" style="enable-background:new 0 0 512 512;" xml:space="preserve">
<style type="text/css">
	.st0{fill:#FFFFFF;}
</style>
<path class="st0" d="M510.3,156.4l-114.1,334c-5.7,16.7-23.9,25.6-40.6,19.9l-239.3-81.7c0,0,0,0,0,0c2.6-11.2,4.4-17.3,7-26.7
	l1.8-6.2c27.9-3.7,47.2-13.6,62.1-30.6c11.4-13.1,22.9-34,22.7-57c0-20.4-9.8-34-18.9-45c-2.1-2.6-5.4-5.7-8.9-9.1
	c-8.5-8.2-18.8-18.1-19.9-26.9c-1.8-15.2,10.9-25,23.4-26.2c17.9-1.6,32.9,9.4,42.4,17.2c4.6-7.9,9.7-15.3,14.7-22.8
	c5.1-7.5,10.2-15,14.8-23c-11.2-9.2-25.6-15.1-40.8-20.2c0.5-2,0.9-3.9,1.4-5.9c1.2-4.7,2.3-9.3,3.1-14.5c-8-1.7-15.7-3.7-23.4-5.6
	c-7.8-2-15.7-3.9-23.5-5.6c-1,5.1-2.3,9.9-3.5,14.7c-1.5,5.7-3,11.3-4,17.5c-22.1,6.2-36.1,14.1-49.2,28.5
	c-11.8,13-23.6,33.3-23.4,54.8c0,17.3,8.5,32.7,17.4,43.5c3.6,4.4,7.8,8.3,11.8,12.1c6.9,6.4,13.5,12.6,16.9,20.9
	c6.4,15.7-7,31.7-19.7,33.7c-21.8,3.5-39-8.9-51.9-18.2c-1.6-1.2-3.3-2.3-4.9-3.5c-3.9,6.9-8.3,13.4-12.8,19.8
	c-5.7,8.3-11.4,16.5-16,25.9c7.1,8.7,18.4,13.2,29.7,17.8c3.8,1.5,7.5,3,11.1,4.7c-1.8,7.2-3.5,13.9-4.5,17.9l-0.6,2.5l0,0
	l-49.1-16.8C4.9,390.5-4,372.3,1.7,355.6l114.1-334C121.5,4.9,139.7-4,156.4,1.7l245.6,83.9c0,0,0,0,0,0c-5.6,21-8.6,35.4-11.7,50.1
	c-2.7,12.7-5.4,25.8-10,44.2c-5.5-19.1-22.6-29.3-47.6-27c-44.9,4.2-77.4,51.7-93.1,98.2c-18.8,55.5-29.8,157.8,41.6,162
	c27.8,1.6,44.2-13.3,56.7-25.5c1.5-2.1,3.7-3.6,6.1-4.5c-0.9,4.9-1.3,10.4-1.8,15.8c-0.3,4.2-0.7,8.5-1.3,12.7
	c16.3,0.1,31.8,0.9,47.4,1.7l11.6,0.6c23.5-120.5,37.6-189.1,63.2-307.3l0,0l27.2,9.3C507.1,121.5,516,139.7,510.3,156.4z
	 M346.1,211.4c-3.9,0.2-7.8,1.2-11.3,3c-14.2,7.9-22.5,27.1-29.6,48.7c-7.2,22.2-13,43.2-10.6,68.2c1.3,13.9,6.1,22.9,15.9,26.3
	c16.4,5.8,31-13.2,36.3-26.3l0,0c4.3-10.6,18.3-78.6,18.9-86.2C367.7,223.5,360.8,210.3,346.1,211.4z"/>
</svg>
