<svg xmlns="http://www.w3.org/2000/svg" xml:space="preserve" viewBox="0 0 512 512"><path d="m51.9 105.8 141.6-88C231.7-6 280.2-6 318.4 17.8l141.6 88c11.7 7.3 18.8 20.1 18.8 33.9v232.6c0 13.8-7.1 26.6-18.8 33.9l-141.6 88c-38.2 23.8-86.7 23.8-124.9 0l-141.6-88c-11.7-7.3-18.8-20.1-18.8-33.9V139.7c0-13.8 7.1-26.6 18.8-33.9M314.4 366c-4-21.1-27.1-38.8-35.3-43.6L191 269.5c-8.5-4.9-57.5-35.5-76.4-90.7-.5-1.3-1.8-2.3-3.2-2.3-2 0-3.5 1.5-3.5 3.6v149.7c0 8.2 4.5 15.9 11.5 20.1l16.6 9.5c3.5 2 7.7.8 9.7-2.8l21.7-39.3c2-3.6 6.5-4.9 9.9-2.8l68.2 40.6c3.5 2 4.7 6.7 2.8 10.3l-20.7 37.5c-2.3 3.9-.5 9 3.5 10.5 6.9 2.8 15.4 6.1 16.2 6.4 17.1 5.9 41.8 8 53.5-9.8 8.2-13.1 16.6-28 13.7-43.9zM404 180.8c0-8.2-4.4-15.9-11.5-20.1l-16.6-9.5c-3.5-2-7.7-.8-9.7 2.8L343 195.5c-2 3.6-6.5 4.9-9.9 2.8L265 157.8c-3.5-2-4.7-6.7-2.7-10.3l22.1-39.5c2.3-3.9.5-9-3.5-10.5-6.9-2.8-15.4-6.1-16.2-6.4-17.1-5.9-41.8-8-53.5 9.8-8.2 12.6-16.6 27.5-13.7 43.4 4 21.1 27.1 38.8 35.3 43.6l88.1 52.9c8.5 4.9 57.5 35.5 76.4 90.7.5 1.3 1.8 2.3 3.2 2.3 2 0 3.5-1.5 3.5-3.6z" style="fill:#dc4b40"/></svg>