<svg xmlns="http://www.w3.org/2000/svg" xml:space="preserve" viewBox="0 0 512 512"><path d="M403.4 178c-33.4-4-67-24.8-104.2-24.9-27.1 0-42 13.2-63.2 23.6 7.4-16.9 10.6-41.3 23.4-57.2 4.1-5.1 11.6-8.7 17.6-14.9 7.5-7.9 12.7-24.9 25.7-24.9 13.8 0 23.5 25.1 31.6 33.6 20.7 21.5 58.5 33.2 69.1 64.7m87.9 105.7c-57.9 15.6-86.7 34-118.2 72.1-15 18.1-26.1 36.6-37.5 58.4-14.5 27.8-26.2 67.6-58.5 77.1v-21.2c-20.6 2.7-45 4.6-60.9-3.7v.1c-14.9 53 45.7 52.3 70.2 34.8 38.8-27.6 59.1-79.2 92.5-120.6 35.8-44.3 76.8-67.3 114.7-97zm-319.6 13.7c-7.4-4.8-8.1-11.8-15.2-14.9h-2.3l-.1.1c4.2 18.1 9.7 34.3 22.2 43.5 9.4 6.9 22.4 6.7 32.8 13.7 6.4-31.6-20.5-31.5-37.4-42.4m179-26.1q.15 0 0 0 .15 0 0 0m-176.6-89.6c-16.9-10.1-62-20-63.1-44.8-.6-12.7 13.8-26.9 22.2-36.1 60-66 198.9-104.1 304.2-73.4-101.1-56.7-247-16.5-318.4 38.7-35.4 27.4-79 51.1-100.6 89.5 44.9 4.1 81.3 38 127.6 37.3 11.1-.1 23.4-1.6 28.1-11.2m113.5 154.2c16.9-9.8 47.8-5.5 57.3-23.6 2.5-4.7 1.1-16.7 3.5-27.4 1.6-7 8.4-12.8 2.4-13.6-19.3 23.4-60.4 23.6-63.2 64.6"/></svg>