<svg xmlns="http://www.w3.org/2000/svg" xml:space="preserve" viewBox="0 0 512 512"><linearGradient id="snapdrop_svg__a" x1="256" x2="256" y1="496.7" y2="19.2" gradientTransform="matrix(1 0 0 -1 0 514)" gradientUnits="userSpaceOnUse"><stop offset="0" style="stop-color:#66adf0"/><stop offset=".599" style="stop-color:#4e93f3"/><stop offset="1" style="stop-color:#4386f4"/></linearGradient><path d="M256 222.1c-28.2 0-51.2 23-51.2 51.2s23 51.2 51.2 51.2 51.2-23 51.2-51.2-23-51.2-51.2-51.2m153.6 51.2c0-84.7-68.9-153.6-153.6-153.6s-153.6 68.9-153.6 153.6c0 56.8 31 106.2 76.8 132.9l25.6-44.5c-30.5-17.9-51.2-50.4-51.2-88.3 0-56.6 45.8-102.4 102.4-102.4s102.4 45.8 102.4 102.4c0 37.9-20.7 70.4-51.2 88.3l25.6 44.5c45.8-26.7 76.8-76.1 76.8-132.9M256 17.3C114.7 17.3 0 132 0 273.3 0 368 51.5 450.4 127.7 494.7l25.6-44.3C92.4 414.8 51.2 349.1 51.2 273.3c0-113.2 91.6-204.8 204.8-204.8s204.8 91.6 204.8 204.8c0 75.8-41.2 141.6-102.4 177.2l25.6 44.3c76.5-44.3 128-126.7 128-221.4C512 132 397.3 17.3 256 17.3" style="fill:url(#snapdrop_svg__a)"/></svg>