<svg xmlns="http://www.w3.org/2000/svg" xml:space="preserve" viewBox="0 0 512 512"><path d="M503.2 73.8c-11-30.2-34.8-54-65-65C410.4 0 384.8 0 333.5 0h-155c-51.4 0-77.2 0-104.8 8.6-30.2 11-54 34.8-65 65C0 101.4 0 127 0 178.3v154.9c0 51.4 0 77.2 8.8 105 11 30.2 34.8 54 65 65 27.8 8.8 53.4 8.8 104.8 8.8h154.9c51.4 0 77.2 0 104.8-8.8 30.2-11 54-34.8 65-65 8.8-27.8 8.8-53.4 8.8-104.8V178.5c-.1-51.3-.1-77.1-8.9-104.7m-135.1 61.5c-8.6-4.2-16.8-7.2-24.4-8.8-11.6-2.4-20.8-.6-27.4 5.6s-11.4 17-14.8 32.6l-17.4 82-19.6 91.8c-6.2 29.4-17.6 50.2-34.4 62.8s-38.2 16-64.6 10.4c-12.2-2.6-22.4-6.2-30.8-10.6l9.4-44.4c8.6 4.2 16.8 7.2 24.4 8.8 11.6 2.4 20.8.6 27.4-5.6s11.4-17 14.8-32.6l17.4-82 19.6-91.8c6.2-29.4 17.6-50.2 34.4-62.8s38.2-16 64.6-10.4c12 2.6 22.4 6 30.8 10.6z" style="fill:#fff"/></svg>