<svg xmlns="http://www.w3.org/2000/svg" xml:space="preserve" viewBox="0 0 512 512"><circle cx="256" cy="256" r="256" style="fill:#ffc107"/><path d="m322.1 159.1-67.9 58.7H190v75.5h63.3l68.8 59.6z" style="fill-rule:evenodd;clip-rule:evenodd;fill:#c8c8c8"/><path d="M62.9 143.3c19.7-34 48-62.4 82.1-82.1 34-19.7 72.8-30 112.1-30 5.7 0 10.4 4.7 10.4 10.4S262.8 52 257.1 52c-72.5 0-140 39-176.2 101.7-1.9 3.3-5.4 5.2-9 5.2-1.8 0-3.5-.4-5.2-1.4-5-2.9-6.7-9.3-3.8-14.2m195.2-66.2c-.3-5.7-5.2-10.1-10.9-9.8-29.6 1.5-58.7 10.2-84.4 25C137.2 107 115.1 128 99 152.8c-3.1 4.8-1.8 11.2 3.1 14.4 1.7 1.1 3.7 1.7 5.6 1.7 3.4 0 6.7-1.7 8.7-4.7 29.1-44.9 78.4-73.3 131.8-76.1 5.8-.4 10.2-5.3 9.9-11m-5.6 35.5c-.6-5.7-5.7-9.8-11.4-9.2-43 4.5-82.3 27.2-107.7 62.2-3.4 4.6-2.3 11.1 2.3 14.5 1.8 1.3 4 2 6.1 2 3.2 0 6.4-1.5 8.4-4.3 22-30.3 55.9-49.8 93.1-53.8 5.7-.6 9.8-5.7 9.2-11.4m79.4 46.5v193.8c0 3.9-2.3 7.4-5.8 9-1.3.6-2.7.9-4.1.9-2.3 0-4.6-.8-6.5-2.4l-66.1-57.1h-59.6c-5.5 0-9.9-4.4-9.9-9.9v-75.5c0-5.5 4.4-9.9 9.9-9.9h60.6l65.1-56.3c2.9-2.5 7.1-3.1 10.6-1.5 3.6 1.5 5.8 5 5.8 8.9m-19.7 21.6-51.5 44.6c-1.8 1.6-4.1 2.4-6.5 2.4h-54.3v55.8h53.4c2.4 0 4.7.9 6.5 2.4l52.5 45.4V180.7zm138-35.6c-2.9-5-9.2-6.7-14.2-3.8s-6.7 9.2-3.8 14.2c36.2 62.7 36.2 140.7 0 203.5-2.9 5-1.2 11.3 3.8 14.2 1.6.9 3.4 1.4 5.2 1.4 3.6 0 7.1-1.9 9-5.2 19.7-34 30-72.8 30-112.1s-10.4-78.2-30-112.2m-26.3 26.6c-2.6-5.1-8.9-7.1-14-4.5s-7.1 8.9-4.5 14c24.3 47.7 24.3 104.6 0 152.2-2.6 5.1-.6 11.4 4.5 14 1.5.8 3.1 1.1 4.7 1.1 3.8 0 7.4-2.1 9.3-5.7 13.4-26.4 20.5-56 20.5-85.5s-7.1-59.3-20.5-85.6M395.7 195c-2.3-5.2-8.5-7.6-13.7-5.3s-7.6 8.5-5.3 13.7c15.2 34.2 15.2 73.3 0 107.5-2.3 5.2 0 11.4 5.3 13.7q2.1.9 4.2.9c4 0 7.8-2.3 9.5-6.2 17.6-39.4 17.6-84.8 0-124.3M255 458.8c-72.5 0-140-39-176.2-101.7-2.9-5-9.2-6.7-14.2-3.8s-6.7 9.2-3.8 14.2c19.7 34 48 62.4 82.1 82.1 34 19.7 72.8 30 112.1 30 5.7 0 10.4-4.7 10.4-10.4s-4.7-10.4-10.4-10.4M114.4 346.7c-3.1-4.8-9.6-6.2-14.4-3.1s-6.2 9.6-3.1 14.4c16.1 24.8 38.2 45.8 63.8 60.6s54.8 23.4 84.4 25h.6c5.5 0 10.1-4.3 10.4-9.8.3-5.7-4.1-10.6-9.8-10.9-53.5-2.9-102.8-31.4-131.9-76.2m126.8 40.1c-37.2-3.9-71.1-23.5-93.1-53.8-3.4-4.6-9.9-5.7-14.5-2.3s-5.7 9.9-2.3 14.5c25.4 35 64.7 57.7 107.7 62.2.4 0 .7.1 1.1.1 5.2 0 9.8-4 10.3-9.3.6-5.7-3.5-10.8-9.2-11.4" style="fill:#fff"/></svg>