<?xml version="1.0" encoding="utf-8"?>
<!-- Generator: Adobe Illustrator 28.2.0, SVG Export Plug-In . SVG Version: 6.00 Build 0)  -->
<svg version="1.1" id="Layer_1" xmlns="http://www.w3.org/2000/svg" xmlns:xlink="http://www.w3.org/1999/xlink" x="0px" y="0px"
	 viewBox="0 0 512 512" style="enable-background:new 0 0 512 512;" xml:space="preserve">
<style type="text/css">
	.st0{fill:url(#SVGID_1_);}
</style>
<g>
	<g>
		<linearGradient id="SVGID_1_" gradientUnits="userSpaceOnUse" x1="256" y1="17.28" x2="256" y2="494.72">
			<stop  offset="0" style="stop-color:#66ADF0"/>
			<stop  offset="0.599" style="stop-color:#4E93F3"/>
			<stop  offset="1" style="stop-color:#4386F4"/>
		</linearGradient>
		<path class="st0" d="M256,222.1c-28.2,0-51.2,23-51.2,51.2s23,51.2,51.2,51.2s51.2-23,51.2-51.2S284.2,222.1,256,222.1z
			 M409.6,273.3c0-84.7-68.9-153.6-153.6-153.6s-153.6,68.9-153.6,153.6c0,56.8,31,106.2,76.8,132.9l25.6-44.5
			c-30.5-17.9-51.2-50.4-51.2-88.3c0-56.6,45.8-102.4,102.4-102.4s102.4,45.8,102.4,102.4c0,37.9-20.7,70.4-51.2,88.3l25.6,44.5
			C378.6,379.5,409.6,330.1,409.6,273.3z M256,17.3C114.7,17.3,0,132,0,273.3C0,368,51.5,450.4,127.7,494.7l25.6-44.3
			C92.4,414.8,51.2,349.1,51.2,273.3c0-113.2,91.6-204.8,204.8-204.8s204.8,91.6,204.8,204.8c0,75.8-41.2,141.6-102.4,177.2
			l25.6,44.3c76.5-44.3,128-126.7,128-221.4C512,132,397.3,17.3,256,17.3z"/>
	</g>
</g>
</svg>
