<?xml version="1.0" encoding="utf-8"?>
<!-- Generator: Adobe Illustrator 28.2.0, SVG Export Plug-In . SVG Version: 6.00 Build 0)  -->
<svg version="1.1"
	 id="svg77" xmlns:dc="http://purl.org/dc/elements/1.1/" xmlns:rdf="http://www.w3.org/1999/02/22-rdf-syntax-ns#" xmlns:cc="http://creativecommons.org/ns#" xmlns:inkscape="http://www.inkscape.org/namespaces/inkscape" xmlns:svg="http://www.w3.org/2000/svg" xmlns:sodipodi="http://sodipodi.sourceforge.net/DTD/sodipodi-0.dtd"
	 xmlns="http://www.w3.org/2000/svg" xmlns:xlink="http://www.w3.org/1999/xlink" x="0px" y="0px" viewBox="0 0 512 512"
	 style="enable-background:new 0 0 512 512;" xml:space="preserve">
<style type="text/css">
	.st0{fill:#FFFFFF;}
</style>
<path class="st0" d="M434.4,316.8L434.4,316.8l-4-3.5c-0.3-0.2-0.5-0.4-0.8-0.7l-1.2-1c-1.1-0.9-2.2-1.8-3.3-2.7
	c-0.4-0.3-0.8-0.7-1.3-1c-2-1.6-4-3.1-6-4.6c-0.2-0.2-0.4-0.3-0.7-0.5c-44.5-33.4-98.6-52.2-154.4-53.5c0.8-32.2,7.6-63.6,20.2-93.4
	c21-49.6,58-91.9,104.3-119.6c56.6,33.8,97.5,87.2,115.2,150.9c17.3,62.2,10.1,129.5-19.4,186.6
	C469.6,352.6,453.2,333.4,434.4,316.8z M286,362.5c1,2.1,1.9,4.1,2.9,6.2c45.5-5.8,88.3-23.7,124.5-51.9
	c-42.6-33.2-95.3-52.7-150.6-54.2c0.5,20.6,3.5,41,9,60.9c0,0.2,0.1,0.3,0.1,0.5c0.5,2,1.1,3.9,1.7,5.9c0.1,0.2,0.1,0.5,0.2,0.7
	c1.3,4.2,2.7,8.4,4.2,12.5c0.2,0.5,0.4,1,0.5,1.4c0.6,1.5,1.1,3,1.7,4.5c0.2,0.6,0.5,1.3,0.7,1.9c0.6,1.4,1.2,2.9,1.8,4.3
	c0.2,0.5,0.4,1.1,0.7,1.6c0.8,1.9,1.6,3.7,2.5,5.6C285.9,362.4,285.9,362.5,286,362.5z M23.9,508.9c36.9-49.6,10.7-121,0.9-143.4
	l-0.5-1c-0.5-1.2-1.2-2.6-1.4-3.1l-0.4-1.4l-0.5-0.5C9.3,330.7,2,300.2,0.5,268.9l0-0.4c-0.1-0.8-0.1-1.6-0.1-2.2l0-0.2l0-0.7
	c-0.2-3-0.2-6.4-0.2-9.6c0-4.7,0.1-9,0.4-13.2c0.9-18.7,4-37.4,9-55.4C40,77,141.4,0,256,0c41-0.1,81.6,9.8,118,28.8
	c-45.7,29.1-82.1,71.9-103.3,121.8c-23.8,56-27.2,116.1-13.1,171.5c0.1,0.4,0.2,0.8,0.3,1.2c0.2,0.9,0.5,1.9,0.7,2.8
	c0.3,0.9,0.5,1.9,0.8,2.8c0.2,0.7,0.4,1.3,0.6,2c0.4,1.5,0.9,3,1.3,4.5c0.1,0.4,0.3,0.8,0.4,1.2c0.5,1.6,1,3.1,1.5,4.7
	c0,0.1,0,0.1,0.1,0.2c0.6,1.8,1.2,3.6,1.9,5.4c0,0.1,0.1,0.1,0.1,0.2c1.9,5.3,4,10.5,6.2,15.6c0.1,0.2,0.2,0.5,0.3,0.7
	c0.7,1.6,1.4,3.2,2.1,4.7c0.2,0.5,0.4,0.9,0.7,1.4c0.4,0.9,0.9,1.9,1.3,2.8c0.4,0.9,0.9,1.9,1.4,2.8c0.1,0.1,0.1,0.3,0.2,0.4
	c0.9,1.7,1.8,3.5,2.7,5.2l1.1,2.2l0,0c21.3,39.7,52.6,74.5,92.7,99.9c-83.3,43.4-182.3,38-260.9-14.8l-4.7-3.2l-3.9,4.2
	C81.5,493.8,45.6,504.5,23.9,508.9z M115.4,128.9c0,32.6,26.5,59.1,59.1,59.1s59.1-26.5,59.1-59.1s-26.5-59.1-59.1-59.1
	S115.4,96.3,115.4,128.9z M174.5,92.2c3.2,0.1,6.5,0.5,9.6,1.3c-3.4,3.9-5.3,8.9-5.3,14c0,3.7,1,7.4,2.8,10.6
	c5.9,10.3,19,13.9,29.3,8c0.1,0.9,0.2,1.9,0.2,2.8c0,0.1,0,0.1,0,0.1c-0.1,20.3-16.5,36.7-36.8,36.6s-36.7-16.5-36.6-36.8
	S154.2,92.1,174.5,92.2L174.5,92.2z"/>
</svg>
