<svg xmlns="http://www.w3.org/2000/svg" xml:space="preserve" viewBox="0 0 512 512"><linearGradient id="snippets-library_svg__a" x1="256" x2="256" y1="514" y2="2" gradientTransform="matrix(1 0 0 -1 0 514)" gradientUnits="userSpaceOnUse"><stop offset="0" style="stop-color:#545454"/><stop offset="1" style="stop-color:#000"/></linearGradient><path d="M109 0h294c60.2 0 109 48.8 109 109v294c0 60.2-48.8 109-109 109H109C48.8 512 0 463.2 0 403V109C0 48.8 48.8 0 109 0" style="fill:url(#snippets-library_svg__a)"/><path d="M333.9 202.4c4.2-1.1 8-3.6 10.6-7.1 2.7-3.5 4.1-7.7 4.1-12.1v-.1c0-5.3-2.1-10.3-5.8-14s-8.8-5.8-14-5.8h-.1c-4.4 0-8.6 1.5-12.1 4.1-3.5 2.7-6 6.4-7.1 10.6-3.2 11.7-10.2 22.1-19.9 29.4-9.7 7.4-21.5 11.4-33.7 11.4s-24-4-33.7-11.4-16.7-17.7-19.9-29.4c-1.1-4.2-3.6-8-7.1-10.6-3.5-2.7-7.7-4.1-12.1-4.1h-.1c-5.3 0-10.3 2.1-14 5.8s-5.8 8.8-5.8 14v.1c0 4.4 1.5 8.6 4.1 12.1 2.7 3.5 6.4 6 10.6 7.1 11.7 3.2 22.1 10.2 29.4 19.9 7.4 9.7 11.4 21.5 11.4 33.7s-4 24-11.4 33.7-17.7 16.7-29.4 19.9c-4.2 1.1-8 3.6-10.6 7.1-2.7 3.5-4.1 7.7-4.1 12.1v.1c0 5.3 2.1 10.3 5.8 14s8.8 5.8 14 5.8h.1c4.4 0 8.6-1.5 12.1-4.1 3.5-2.7 6-6.4 7.1-10.6 3.2-11.7 10.2-22.1 19.9-29.4 9.7-7.4 21.5-11.4 33.7-11.4s24 4 33.7 11.4 16.7 17.7 19.9 29.4c1.1 4.2 3.6 8 7.1 10.6 3.5 2.7 7.7 4.1 12.1 4.1h.1c5.3 0 10.3-2.1 14-5.8s5.8-8.8 5.8-14v-.1c0-4.4-1.5-8.6-4.1-12.1-2.7-3.5-6.4-6-10.6-7.1-11.7-3.2-22.1-10.2-29.4-19.9-7.4-9.7-11.4-21.5-11.4-33.7s4-24 11.4-33.7c7.3-9.7 17.6-16.7 29.4-19.9m-174.8-57.5c.6.6 1.5 1.1 2.3 1.2.9.1 1.8 0 2.6-.4 7.4-3.6 15.7-4.7 23.7-3.4 8.1 1.4 15.5 5.2 21.3 10.9.8.8 1.9 1.3 3 1.3s2.2-.4 3.1-1.2c.4-.4.7-.9 1-1.4.2-.5.4-1.1.4-1.7s-.1-1.1-.3-1.7c-.2-.5-.5-1-.9-1.4-7.1-7.1-16.2-11.8-26.1-13.4-9.9-1.7-20-.2-29 4.2-.6.3-1.1.7-1.6 1.3-.4.5-.7 1.2-.8 1.9s-.1 1.4.2 2c.2.7.6 1.3 1.1 1.8M138 160.1c-4.4 9-5.8 19.1-4.2 28.9s6.3 18.9 13.3 26c.7.8 1.7 1.3 2.8 1.4s2.1-.2 3-.8c.5-.4.9-.8 1.2-1.4.3-.5.5-1.1.5-1.8 0-.6 0-1.2-.3-1.8-.2-.6-.6-1.1-1-1.5-5.8-5.8-9.6-13.3-11-21.4s-.2-16.4 3.4-23.8c.4-.8.5-1.7.4-2.6s-.6-1.7-1.2-2.4c-.5-.5-1.1-.8-1.7-1.1-.7-.2-1.3-.3-2-.2s-1.3.4-1.9.8-1 1.1-1.3 1.7m210 206.2c-7.4 3.6-15.7 4.7-23.7 3.4-8.1-1.4-15.5-5.2-21.3-10.9-.8-.8-1.9-1.3-3-1.3s-2.2.4-3.1 1.2c-.4.4-.8.9-1 1.4s-.4 1.1-.4 1.7.1 1.1.3 1.7c.2.5.5 1 .9 1.4 7.1 7.1 16.2 11.8 26.1 13.4 9.9 1.7 20 .2 29-4.2.6-.3 1.1-.8 1.6-1.3.4-.5.7-1.2.8-1.9s.1-1.4-.2-2c-.2-.7-.6-1.2-1.1-1.7-.6-.6-1.5-1.1-2.3-1.2-.9-.2-1.8-.1-2.6.3m10.6-69.5c-.8.8-1.2 1.9-1.2 3.1 0 1.1.5 2.2 1.3 3 5.8 5.8 9.6 13.3 11 21.4s.2 16.4-3.4 23.8c-.4.8-.5 1.7-.4 2.6s.6 1.7 1.2 2.3c.5.5 1.1.8 1.7 1.1.6.2 1.3.3 2 .2s1.3-.4 1.9-.8 1-.9 1.3-1.5c4.4-9 5.8-19.2 4.2-29-1.7-9.9-6.3-19-13.4-26.1-.4-.4-.9-.7-1.4-.9s-1.1-.3-1.7-.3-1.1.1-1.7.4c-.5 0-1 .3-1.4.7m7.7-132.8c3.6 7.4 4.8 15.7 3.4 23.8s-5.2 15.5-11 21.4c-.8.8-1.3 1.9-1.3 3s.4 2.2 1.2 3.1c.4.4.9.8 1.4 1s1.1.4 1.7.4 1.1-.1 1.7-.3c.5-.2 1-.5 1.4-.9 7.1-7.1 11.8-16.2 13.4-26.1 1.7-9.9.2-20-4.2-29-.3-.6-.8-1.1-1.3-1.5-.6-.4-1.2-.7-1.9-.8s-1.4-.1-2 .2c-.7.2-1.2.6-1.7 1.1-.6.6-1.1 1.5-1.2 2.3-.1.6 0 1.5.4 2.3m-63.4-10.8c5.8-5.8 13.3-9.6 21.3-11 8.1-1.4 16.4-.2 23.8 3.4.8.4 1.7.5 2.6.4s1.7-.6 2.3-1.2c.5-.5.8-1.1 1.1-1.7s.3-1.3.2-2-.4-1.3-.8-1.9-.9-1-1.5-1.3c-9-4.4-19.1-5.8-29-4.2-9.9 1.7-19 6.3-26.1 13.4-.4.4-.7.9-.9 1.4s-.3 1.1-.3 1.7.1 1.1.4 1.7c.2.5.6 1 1 1.4.8.8 1.9 1.2 3.1 1.2.9 0 2-.5 2.8-1.3m-93.8 205.6c-5.8 5.8-13.3 9.6-21.4 11s-16.4.2-23.8-3.4c-.8-.4-1.7-.5-2.6-.4s-1.7.6-2.3 1.2c-.5.5-.8 1.1-1.1 1.7-.2.7-.3 1.3-.2 2s.4 1.3.8 1.9.9 1 1.6 1.3c9 4.4 19.1 5.8 29 4.2 9.9-1.7 19-6.3 26.1-13.4.4-.4.7-.9.9-1.4s.3-1.1.3-1.7-.1-1.1-.4-1.7c-.2-.5-.6-1-1-1.4-.8-.8-1.9-1.2-3.1-1.2-.9 0-2 .5-2.8 1.3M145.7 348c-3.6-7.4-4.8-15.7-3.4-23.8s5.2-15.5 11-21.4c.8-.8 1.3-1.9 1.3-3s-.4-2.2-1.2-3.1c-.4-.4-.9-.8-1.4-1s-1.1-.4-1.7-.4-1.1.1-1.7.3c-.5.2-1 .5-1.4.9-7.1 7.1-11.8 16.2-13.4 26.1-1.7 9.9-.2 20 4.2 29 .3.6.8 1.1 1.3 1.5.6.4 1.2.7 1.9.8s1.4.1 2-.2c.7-.2 1.2-.6 1.7-1.1.6-.6 1.1-1.5 1.2-2.3.1-.6 0-1.5-.4-2.3" style="fill:#fff"/></svg>