<svg xmlns="http://www.w3.org/2000/svg" xml:space="preserve" viewBox="0 0 512 512"><path d="M171.8 170.8h160.9v207.4H171.8z" style="fill:#2fcbbe"/><path d="M358.5 289.5h113.7V512H358.5z" style="fill:#77ffbd"/><path d="M38 378.1h106.4V170.8H38" style="fill:#3088d4"/><path d="M333.5 512H38.8V403.2h294.6m25.9-232.4H473v93.1H359.3zm133.3-72L262.1 2.3c-4.5-3.1-31.7-3.1-37.2 0L16.6 99.8c-6.6 3.1-10 10.2-8.5 17.3 1.6 7.1 30.7 27.5 30.7 27.5h434.3s31.2-22.3 31.2-30.9c0-7.3-5-13.2-11.7-14.9" style="fill:#4c4c4c"/></svg>