<svg xmlns="http://www.w3.org/2000/svg" xml:space="preserve" viewBox="0 0 512 512"><path d="M314.4 452.2c2 7.4-1 8.6-7.6 10.3-.8.2-1.6.4-2.2.5l-4.5-16.6c.8-.4 1.7-.8 2.8-1.1 6-1.5 9.9 1 11.5 6.9m33.2-2.2 10.4-5.3-12.2-10.3zm58.3-342.8c4.7 4.9 7.2 7.1 12.8 1.7 4.5-4.3 4.9-9 .5-13.5-.8-.8-1.5-1.5-2.3-1.9l-12.6 12c.4.4 1 1.1 1.6 1.7M155.6 72l-12.8-9.8 2.6 15.7zm-96 98.6c10.9 5.6 20.5 4.2 24.9-4.4 4.7-9.2-1.1-15.9-9.1-20-10.3-5.3-20.2-2-23.9 5.1-3.7 7.3-.8 14.7 8.1 19.3m4.3 139.6L48.1 309l3.3 11.2zM512 256c0 141.4-114.6 256-256 256S0 397.4 0 256 114.6 0 256 0s256 114.6 256 256m-54.7-114.7-9.1 3 .8 1.8 6.4-.8c.8 1.5 1.7 3.1 2.5 4.9l2.9 6.2-29.6 14-3.5-5.2-1.7.8 7.6 16 1.7-.8-1.8-6 29.6-14 3 6.4c.9 1.9 1.6 3.7 2.3 5.4l-5 3.8.9 1.8 8.4-4.5zM256 81.3c-96.5 0-174.7 78.2-174.7 174.7S159.5 430.7 256 430.7 430.7 352.5 430.7 256 352.5 81.3 256 81.3m186.6 43.3-27.2 18.7-3.8-3.9-1.6 1.1 9.2 13.4 1.6-1.1-2.3-5 27.2-18.7 3.8 3.9 1.6-1.1-9.2-13.4-1.6 1.1zm-33-39.6 3.3 4.8-23.9 22.8-4.6-3.5-1.4 1.3 11.4 12 1.4-1.3-3.1-4.6 9.8-9.4c1.4 1.5 2.9 2.9 4.2 4.1-1.3 6.1-2.4 12.6-3.1 19.1-.1.5 1 2.4 1.7 3.5l2.1 3.8 1.6-.8c-1.4-3.5-.5-7.8.1-11.2l2-11.7c4.5 1 9.6.5 13.1-2.8 4.8-4.5 3.2-10.3-.6-14.3l-12.5-13.2zm-48.7 10.9c10.4 6.9 18.2 3.1 24.2-6l10.2-15.5 5 2.2 1-1.6-12.8-8.4-1 1.6 4 3.8L381 87.9c-1.7 2.5-4.3 6.6-7.6 7.6-4 1.3-8.3-.3-10.6-1.8-7.1-4.7-6.8-11-2.1-17.8L371.9 59l5.1 2.2 1-1.6-13.6-9-1 1.6 4 3.8-12.2 18.5c-4.9 7.1-4 15 5.7 21.4m-37-19.1c3.4 1.2 7.2 2.1 11.3 2.4l6.3-5.7-.9-1.5c-4.5 3.8-9.7 4.6-15.2 2.6-9.7-3.5-13.5-14.5-9.6-25.3 3.5-9.7 10.7-12 20-8.6 10 3.6 11.2 8.7 10 13.7l1.8.7 2.8-9.6c-3.8-2.6-9.7-5.6-13.5-7-13.2-4.8-22.8-.4-27 11.3-5 14 2.2 22.8 14 27m-56.1-13.4 27.9 3.9 3.5-9-2-.3-3 5.7-15.2-2.2 2.1-15 10.2 1.4.4 4.4 1.7.2c.1-3 .8-8.2 1.5-11.1l-1.7-.2-1.6 4-10.1-1.4 2-14.1 12.1 1.7.7 5.6 1.7.2.4-8.6-25.3-3.5-.3 1.9 5.2 1.7-4.6 32.7-5.5.2zm-11.7-8.3c.2 4.9-3.2 7.3-7.8 7.4-2.4.1-6.8-1-8-3.3-.8-1.5-1.6-3.9-2.1-6.8l-1.8.5.9 9.2c2.8 1.9 7.7 2.6 11.4 2.5 8.1-.3 12.6-5.4 12.3-12.4-.4-11.2-18.8-7.9-19.2-18.5-.1-4.2 2.7-6.9 6.8-7 4.7-.2 6.7 3.3 7.7 7.3l1.8-.3-1-8.6c-2.7-.2-5.4-1-8.1-.9-7.8.3-12.2 5.2-12 11 .4 14.1 18.8 10.4 19.1 19.9m-85.7-14.3.6 1.8 5.5-.8 10.2 31.4-4.9 2.6.6 1.8 26.2-8.5-1-11.1-1.8.6-.7 8.1-13.4 4.3-10.1-30.9 4.9-2.6-.6-1.8zm-31.4 15 5.8 39-3.6 3.2.9 1.6 12-6.9-.9-1.6L148 93l-2.2-12 12.2-7 9.9 7.6-4.2 3.5.9 1.6 13.9-8-.9-1.6-4.5 1.5-31.5-24.2zm-36.1 27.1 1.2 1.5 4.8-2.7 21 25.5-3.6 4.2 1.2 1.5 12.6-10.4-1.2-1.5-4.8 2.7-21-25.5 3.6-4.2-1.2-1.5zm-19.4 48.6c11.1 9.6 21.9 6.1 30.1-3.5 2.4-2.7 4.5-6 6.3-9.7l-3-7.9-1.7.3c1.9 5.6.8 10.7-3 15.1-6.8 7.8-18.4 7.4-27-.1-7.8-6.7-7.3-14.2-.8-21.7 6.9-8 12.2-7.3 16.3-4.4l1.3-1.5-8-6.1c-3.8 2.6-8.8 7.1-11.4 10.1-9.2 10.7-8.6 21.2.9 29.4M59.2 177c9.9 5.1 20.6 3 27.1-9.6 5.5-10.6 2.3-21.1-7.6-26.2-11.3-5.8-22.4-3.6-28.9 8.9-5.5 10.8-1.8 21.1 9.4 26.9M40 207.3c13.6 3.8 15.6-14.9 24.7-12.4 4.7 1.3 6 5.3 4.7 9.7-.6 2.3-3 6.1-5.5 6.7-1.7.3-4.2.3-7.1 0l-.1 1.9 9 1.9c2.7-2.1 4.8-6.5 5.8-10.2 2.2-7.8-1.4-13.6-8.1-15.5-10.8-3-13.2 15.5-23.4 12.7-4.1-1.1-5.7-4.6-4.6-8.6 1.3-4.5 5.1-5.4 9.3-5.1l.2-1.8-8.5-1.6c-1 2.5-2.6 4.9-3.3 7.5-2 7.4 1.3 13.2 6.9 14.8m1.5 132.8-.4-4.7 30.7-24.6-.8-2.7-38.9-3.6-2.2-4.2-1.8.5 3.8 13.2 1.8-.5-.6-5.4 12.1.7 3.9 13.4-9.6 7.7-2.4-4.9-1.8.5 4.4 15.2zm40.4 36.7c12-6.8 10.7-17.6 5-27.7l-10-17.8-1.6.9 1.8 5.1-28.5 16-3.5-4.2-1.6.9 9.6 17.2c6.2 10.9 16.1 16.7 28.8 9.6m27.4 57.5-2.9-4.3 21.2-25.1 4.5 3.3 1.3-1.3-8.2-8.5-28.5 11 11.8-28.3-8.3-8.6-1.3 1.3 3.4 4.8-25.8 20.3-3.9-2.7-1.3 1.3 9 9.3 1.3-1.3-2.9-4.3 23.4-18.7.1-.1.1.1-13.7 32.6.5.5 33.4-13.1.1-.1.1.1-20.1 23.4-4.4-3.2-1.3 1.3 11 11.4zm21.4 14.1-3.9-3.9 18.8-26.8 4.9 2.3 1.1-1.5-13.2-9.3-1.1 1.5 3.9 3.9-18.8 26.8-4.9-2.3-1.1 1.5 13.2 9.3zm43.4 25 15.1-32.5 5.3 1.4.8-1.7-12.6-5.9-.8 1.7 4.5 3.1-11.4 24.6-11.8-38.4-9.1-4.2-.8 1.7 4.5 3.1-13.8 29.6-5.3-1.4-.8 1.7 12.8 6 .8-1.7-4.7-3.2 12.1-26c2.7 8.5 11.1 35.8 12.7 41.1zm40.1-28.8-15.6-4.1-.5 1.8 5 2.3-8.4 31.6-5.4-.5-.5 1.8 15.6 4.1.5-1.8-5-2.3 8.4-31.6 5.4.5zm26.4 4.4c-2.6-.6-5.1-1.9-7.8-2.2-7.6-1-12.8 3.1-13.5 8.8-1.7 13.8 16.8 13.1 15.6 22.4-.6 4.8-4.3 6.6-8.8 6-2.3-.3-6.4-2-7.3-4.5-.6-1.6-.9-4-1-7l-1.8.2-.5 9.1c2.5 2.3 7.1 3.8 10.8 4.2 8 1 13.1-3.3 14-10.1 1.4-11-17.1-10.7-15.8-21.1.5-4.1 3.7-6.3 7.8-5.8 4.6.6 6 4.2 6.3 8.4h1.8zm45.6 8-1-9.3-35.9 2-.6 9.4 1.9-.1 1.6-6.2c1.6-.2 3.5-.4 5.4-.5l6.8-.4 1.8 32.4-6 1.3.1 1.9 17.5-1-.1-1.9-6.1-.6-1.8-32.4 6.9-.4c2-.1 4-.1 5.8-.1l1.7 6zm48 17c-3.7-.5-7-3.3-9.7-5.4l-9.3-7.3c3-3.5 5-8.1 3.8-12.7-1.7-6.3-7.4-7.7-12.7-6.2l-17.4 4.6.5 1.8 5.7-.6 8.5 31.6-5.2 2.4.5 1.8 15.8-4.2-.5-1.8-5.4.5-3.5-13c2-.5 3.9-1.1 5.6-1.7 4.7 4 9.8 8.1 15.1 11.8.4.3 2.6.2 3.9.2l4.3-.1zm46.1-21.8-.8-1.7-4.6 1.3-30-25.4-2.5 1.3 3.9 38.8-3.7 3 .9 1.7 12.2-6.3-.8-1.7-5.2 1.6-1.6-12 12.4-6.4 9.4 8-4.3 3.3.8 1.7zm25-19.4-1.1-1.5-5.4 3-20-25.5 5.5-4.3c1.6-1.3 3.2-2.4 4.7-3.4l4.8 4 1.6-1.3-6.2-7.1-28.3 22.2 4.9 8.1 1.5-1.2-2.2-6c1.2-1.1 2.6-2.3 4.1-3.5l5.4-4.2 20 25.5-4.2 4.5 1.1 1.5zm24.9-24.5-1.4-1.3-4.3 3.3-23.9-22.3 3-4.6-1.4-1.3-11 11.8 1.4 1.3 4.3-3.3 23.8 22.4-3 4.6 1.4 1.3zm15.1-51.3c-10.5-6.9-21.6-6-29.4 5.7-6.6 10-4.1 20.5 6.4 27.4 9.2 6.1 19.9 5.1 27.7-6.5 6.5-9.9 4.4-20.6-4.7-26.6m34.9-39.9-33.7-12 .9-5.4-1.7-.6-4.7 13.1 1.8.6 2.7-4.8 25.5 9.1-37.1 15.4-3.4 9.5 1.7.6 2.7-4.8 30.8 11-.9 5.4 1.7.6 4.7-13.3-1.8-.6-2.7 5-27.1-9.6c8.2-3.5 34.6-14.4 39.7-16.5zm2.5-98.5 1.8-.5-3.4-13.3-1.8.5.4 5.5-17.7-4.6 13.1-13.6 2.2 5 1.8-.5-4.1-16.4-1.8.5.4 5.5-16.1 16.3-13 3.3-2.5-6.1-1.8.5 4.5 17.8 1.8-.5-.7-6.5 12.9-3.3 21.8 6.2zM83.8 347.7c-1.1-2-2.3-3.9-3.6-5.8l-28.6 16c1.2 3.3 2.2 5.9 3.9 9 4.6 8.2 12.6 11 21.7 5.9 11.1-6.2 12.1-15.2 6.6-25.1m357.8 13.8c-9.5-6.3-19.6-4.1-24 2.5-4.5 6.9-2.5 14.4 5.9 19.9 10.1 6.7 19.7 6.3 25-1.7 5.5-8.5.5-15.8-6.9-20.7M85.8 259.2s4.8 2.7 11.5-.7c8.2-4.1 11.6-6.8 20.4-25.1 8.8-19.7 18.3-43.5 33.3-57.1 14.9-13.6 31.9-23.8 56.4-17.7 0 0 0 2-10.2 2.7-4.8.7-19.7 4.1-34.7 16.3-16.3 14.9-26.5 40.8-32.6 52.3-4.1 8.8-15.6 36-31.9 36-6 .8-12.2-6.7-12.2-6.7m61.9-43.5c16.3-36.7 34.6-40.8 34.6-40.8s0 8.2.7 10.2c0 0-14.3 3.4-29.2 43.5-5.4 14.3-16.3 37.4-35.3 37.4 0 0 10.8-8.2 29.2-50.3m10.2 27.2s2.7-5.4 9.5-20.4c13.6-31.3 29.2-35.3 33.3-35.3 4.8-.7 6.8 2 6.8 2s-19.7 5.4-33.3 46.9c0 0-10.9 3.4-16.3 6.8m27.8-10.2s8.8-27.2 27.9-38l5.4 6.1s-15.6 12.2-21.7 29.9c0 0-7.5.6-11.6 2m34.7-1.4c1.4-6.8 10.2-15.6 10.2-15.6l-5.4-6.8s-10.2 7.5-15.6 21.7c0 0 4.1 0 6.1.7zm42.1-25.8s8.8-.7 11.6-4.1c0 0 21.1 9.5 27.9 26.5 0 0-8.8 0-13.6.7 0 0-6.2-11.5-25.9-23.1m63.2 25.1s-8.8-2.7-13.6-2c0 0 0-19-30.6-33.3 0 0 4.8-6.1 6.1-8.8.1 0 34.1 10.8 38.1 44.1m31.3 13.6s-6.8-5.4-16.3-10.2c0 0-8.8-50.3-50.3-52.3 0 0 2.7-5.4 4.8-8.8.7-.7 2-1.4 2.7-2 0 0 24.5-6.1 45.5 8.2 8.8 6.8 20.4 25.1 29.2 48.3 7.5 19 17 34 19.7 37.4 0 0-10.2-1.4-15.6-6.8-8.2-8.2-21.1-48.3-29.2-59.8-8.2-11.6-15.6-21.1-39.4-19.7 0 0 17 4.8 27.2 18.3 12.2 16.2 21.7 47.4 21.7 47.4m-73.4-83.6c-5.4 13.6-9.5 22.4-20.4 22.4-19.7-1.4-22.4-12.9-23.1-14.3 0-2.7 4.1-4.8 4.1-4.8-1.4 0-9.5 0-20.4-2.7-14.9-4.8-14.9 5.4-14.9 5.4s-18.3-4.8-20.4 4.8c-1.4 4.1-.7 10.9-.7 10.9s13.6-7.5 23.8 1.4c8.8 6.8 10.2 12.9 23.1 27.2 6.1 7.5 22.4 31.3 43.5 21.1 0 0-2.7-5.4-17-14.9-6.1-4.1-14.9-8.2-21.1-12.9-5.4-4.1-7.5-6.1-18.3-18.3-4.8-5.4-19-12.9-27.2-10.2-.7.7-.7 1.4-1.4 1.4 0 0 0-3.4.7-4.8.7-2 8.8-2.7 18.3 0 0 0-1.4-7.5 6.1-6.1s15.6 4.1 17.7 3.4c0 0 0 17.7 28.5 19.7 14.3.7 19.7-14.3 23.1-20.4 1.4-1.4 3.4-4.8 6.1-5.4 18.3-4.8 51.6-4.8 72.7 29.9 8.2 14.9 21.7 44.9 27.2 54.4 13.6 23.8 24.5 19.7 33.3 11.5 0 0-13.6 7.5-25.1-19.7-5.4-12.2-23.8-52.3-37.4-64.6-6.8-6.1-17-15.6-34.7-19.7-35.9-7.6-46.1 5.3-46.1 5.3m-68 8.2s2 2.7 2 4.8c0 0 2.7-2 8.8-2 .1-.1-8-2.1-10.8-2.8m-20.9 119.5h11.6v79.8s-10.3 1.3-11.6-12.9zm124.7 0h-11.6v79.8s10.9 1.3 11.6-12.9zm-104.8 0h10.9v86.2s-3.2-.6-11.6-2.6zm18 0h10.9V379s-3.2-.6-10.9-2.6zm66.9 0h-10.9v86.2s3.2-1.3 11.6-2.6zm-18.6 0H270V379s3.2-.6 10.9-2.6zm-30.3 0h11.6V379l-5.1 6.4-6.4-5.8v-91.3zm-17.3-44.1v20.3c0 9.7-2.6 18-17.6 18-12-.1-17.6-5.8-17.6-14.8v-23.4l-5.8-1.2v-2.2h20.4v2.2l-6.1 1.2v23.3c0 7.2 3.7 11.6 11.2 11.6 10.4 0 11.9-7.1 11.9-14.8v-20.1l-6.4-1.2v-2.2h15.2v2.2zm33.4 8.2h-2.1c-.4-5.1-2.5-9.9-8.4-9.9-3.7 0-6.5 2-6.5 5.9 0 10.3 19.3 6.2 19.3 21.3 0 7.4-6.2 12.8-14 12.8-4 0-8.2-1.1-11.7-3.2 0-3.4 0-6.8-.5-10.2h2.4c.6 5.1 3.1 10.7 9.5 10.7 4.6 0 7.3-2.6 7.3-7.1 0-8.6-18.7-7.2-18.7-20.3 0-8.4 5.4-12.6 13.5-12.6 3.4 0 6.8 1 9.9 2.6zm8 29.2v-2.2l4.7-1.2 14.1-38.3h5.1l14.8 38.3 4.7 1.2v2.2h-19.8v-2.2l5.4-1.2-3.9-10.7h-12.9l-3.6 10.7 5.4 1.2v2.2zm13.3-17.3h10.5l-5.5-14.1z" style="fill-rule:evenodd;clip-rule:evenodd"/></svg>