<?xml version="1.0" encoding="utf-8"?>
<!-- Generator: Adobe Illustrator 28.2.0, SVG Export Plug-In . SVG Version: 6.00 Build 0)  -->
<svg version="1.1"
	 id="svg3771" xmlns:svg="http://www.w3.org/2000/svg" xmlns:dc="http://purl.org/dc/elements/1.1/" xmlns:cc="http://creativecommons.org/ns#" xmlns:rdf="http://www.w3.org/1999/02/22-rdf-syntax-ns#" xmlns:sodipodi="http://sodipodi.sourceforge.net/DTD/sodipodi-0.dtd" xmlns:inkscape="http://www.inkscape.org/namespaces/inkscape"
	 xmlns="http://www.w3.org/2000/svg" xmlns:xlink="http://www.w3.org/1999/xlink" x="0px" y="0px" viewBox="0 0 512 512"
	 style="enable-background:new 0 0 512 512;" xml:space="preserve">
<path id="path3751" d="M171.8,170.8h160.9v207.4H171.8C171.8,378.1,171.8,170.8,171.8,170.8z"/>
<path id="path3753" d="M358.5,289.5h113.7V512H358.5V289.5z"/>
<path id="path3755" d="M38,378.1h106.4V170.8H38"/>
<path id="path3757" d="M333.5,512H38.8V403.2h294.6 M359.3,170.8H473v93.1H359.3C359.3,263.8,359.3,170.8,359.3,170.8z M492.6,98.8
	L262.1,2.3c-4.5-3.1-31.7-3.1-37.2,0L16.6,99.8c-6.6,3.1-10,10.2-8.5,17.3c1.6,7.1,30.7,27.5,30.7,27.5h434.3
	c0,0,31.2-22.3,31.2-30.9C504.3,106.4,499.3,100.5,492.6,98.8L492.6,98.8z"/>
</svg>
