<?xml version="1.0" encoding="utf-8"?>
<!-- Generator: Adobe Illustrator 28.2.0, SVG Export Plug-In . SVG Version: 6.00 Build 0)  -->
<svg version="1.1" id="Layer_1" xmlns="http://www.w3.org/2000/svg" xmlns:xlink="http://www.w3.org/1999/xlink" x="0px" y="0px"
	 viewBox="0 0 512 512" style="enable-background:new 0 0 512 512;" xml:space="preserve">
<style type="text/css">
	.st0{fill-opacity:0.996;}
	.st1{fill:#D79630;}
</style>
<path class="st0" d="M356.7,191.5l15.4,0.5l19.8-0.2l0.7-0.3l0.3-0.7l0.2-3.8l-0.2-3.9l-0.1-0.3l-0.5-0.2l-0.3,7.6l-0.2,0.6
	l-0.2,0.1l0.2-0.5l0.3-7.6l-39.6-0.5l-0.4-0.2l-0.2-0.4l0.2-37.7l-0.1-6.1l0.3-6.2l0.8-6.3l1.2-6.4l0.7-2.8l0.9-2.6l1.1-2.5l1.2-2.3
	l1.4-2l1.6-1.8l1.7-1.5l1.9-1.2l2.2-1l0.2-0.1l-2.1,1l-1.9,1.2l-1.7,1.5l-1.6,1.8l-1.4,2l-1.2,2.3l-1.1,2.5l-0.9,2.6l-0.7,2.8
	l-1.2,6.4l-0.8,6.3l-0.3,6.2l0.1,6.1l1.2-14.9l0.4-3.5l0.6-3.7l0.9-3.8l1.2-3.9l0.8-2l0.9-1.9l1.2-1.9l1.4-1.8l2.2-2.1l2.4-1.6
	l1.8-0.8l1.9-0.6l4.9-1.1h0.3l5.8,0.1l1.4,0.1l4.2,1l2.9,0.8l2.4,0.9l5.7,2.7l0.2,0.4l1.2,0.6l0.1,0.1l0.2,0.6l-0.1,0.1l-0.6,0.2
	l-3.3,0.2l-3.1,0.7l-0.4,0.1l9,0.2l0,0L391,109l-10.4,4.9l-1.6,1.4l-1.5,1.7l-0.2,0.3l-2.2,3.2l-1.9,3.7L372,128l-0.6,3.8l0.1,3.9
	l0.8,3.9l1.4,3.9l0.9,1.7l1.1,2.4l2.6,3l3.3,2.4l3.3,2l3.4,1.5l3.5,1l4.2,0.5l4.1-0.2l3.2-0.6l3-0.9l2.7-1.2l2.5-1.5l3.1-2.6
	l2.4-2.7l1.8-2.8l1.5-3l1.2-3.2l0.8-3.5l0.4-3.1l-0.1-3.3l-0.5-3.3l-0.9-3.5l-1.3-3.5l-1.7-3.5l-2-3.3l-2.2-3l-2.7-3l-2.8-2.7
	l-2.9-2.4l-3-2.1L399,97l0.2,0.1l3.6,2.1l3,2.1l2.9,2.4l2.8,2.7l2.7,3l2.2,3l2,3.3l1.7,3.5l1.3,3.5l0.9,3.5l0.5,3.3l0.1,3.3
	l-0.4,3.1l-0.8,3.5l-1.2,3.2l-1.5,3l-1.8,2.8l-2.4,2.7l-3.1,2.6l-2.5,1.5l-2.7,1.2l-3,0.9l-3.2,0.6l-4.4,0.2l-4.2-0.5l-3.5-1
	l-3.4-1.5l-3.3-2l-3.2-2.5l2,2.5l2.6,1.9l2.8,1.5l2.9,1.2l2.7,0.7l2.8,0.4l2.9,0.1l3-0.2l3.1-0.6l3.2-1.1l3.3-1.6l3.3-2l2.9-2.4
	l2.4-2.7l1.5-2.4l1.2-2.6l1.2-3.4l0.8-3.4l0.4-3.4v-3.4l-0.4-3.6l-0.9-3.6l-1.3-3.5l-1.8-3.5L416,111l-3.3-4.1l-3.1-3.1l-3.3-2.8
	l-3.6-2.5l-3.9-2.2l-4.1-1.9l-4.2-1.5l-4.4-1.2l-4.5-0.8l-4.6-0.4h-4.8l-4.9,0.4l-5.1,0.8l-6,1.4l-5.8,1.8l-5.5,2.3l-5.3,2.7l-3.3,2
	l-3.2,2.2l-3.1,2.3l-3,2.5l-2.9,2.7l-2.8,2.9l-5.2,6.3l-2.6,4l-2.5,4l-1.7,3l-1.5,3.3l-2,5l-1.5,4.6l-1.3,4.6l-1.1,4.7l-0.9,4.8
	l-0.7,5.8l-0.1,5.6l0.1,11.5l-0.1,0.3l-0.3,0.1l-15.2,0.2l-3.9-0.1l-0.6-0.2l-0.4,0.1l-0.2,0.6l-0.2,4.3l-0.4,3.6l0.4,0v0.1l0.3,0.4
	l0.6,0.3l2,0.2l17.7,0.2v6l0.3,1v162l-0.1,0.6l-1.9,7.5l-1.1,3.6l-1.3,3.5l-1.4,3.3l-1.6,3.2l-1.8,3l-1.9,2.9l-2.1,2.7l-2.2,2.6
	l-4.6,4.4l-5.2,3.9l-5.8,3.3l-6.3,2.8l-5.6,1.8l-5.9,1.3l-6.2,0.8l-6.5,0.3l-72.7,0.1l-16.4,0.4h-5.8l-6.4-0.2l-6.4-0.4l-0.2-0.1
	v-0.2l0.1-0.1h-1.6l-0.6,0l-8.9-2.3l-0.6-0.3l-4.8-2.2l-0.5-0.2l-0.2-0.1l-0.5-0.8v-0.4l-0.3-0.2l3.2-0.2l4.3-1.1l2.3-0.7l1.9-0.8
	l3.2-1.8l2.8-2.1l2.4-2.3l1.9-2.6l1.6-3.1l1.2-3.4l0.7-3.7l0.2-4l-0.2-2l-0.5-2.4l-1-4.4l-0.1-0.4l-1.2-2.2l-1.4-1.6l-0.9-1.8
	l-3.5-3.6l0,0l0,0l-0.2-0.2l-0.4-0.2l-1.4-1l-2.4-1.4l-2.5-1.1l-2.6-0.8l-4.1-0.6l-4.3,0.1l-3.8,0.8l-2,0.7l-0.2,0.1l-0.4,0.2
	l-1.4,0.5l-4,2.1l-2.9,2.3l-2.4,2.7l-1,1.5l-0.1,0.1l-0.2,0.3l-0.8,1.2l-0.4,0.8l-0.2,0.3L92,370l-1,1.9l-1.5,4l-0.7,2.8l-0.2,2.3
	v2.3l0.3,2.4l0.3,1.5l0,0.7v0.8l-1.6,0.4l1.6-0.4v0l-1.8,0.5l1.9-0.5h0.1v0.1l0.2,0.8l0.9,3.4l1.8,4.1l2.2,3.4l1.1,1.2l1.2,2.1
	l0.2,0.4l0.7,0.5l1.1,1.1l0.4,0.6l0.9,1.1l3.6,3l3.8,2.6l3.9,2.2l4.1,1.9l4.7,1.6l4.9,1.2l5.1,0.7l5.3,0.2l79.4,0.1h28.3l0.1-0.6
	l5.5-0.5l5.6-0.9l5.5-1.3l5.3-1.7l5.2-2.2l5-2.6l4.5-2.8l4.2-3.1l4-3.5l3.6-3.8l3.1-3.7l2.8-4l2.5-4.2l2.2-4.4l1.9-4.5l1.6-4.7
	l1.3-4.9l1-5l0.3-0.6l0.6-0.2h42l0.4-0.1l0.3-0.3l0.3-0.8l-0.2-169.1L356.7,191.5z M112.3,404.9l-1.1-0.1l-0.3,0.2l0.1,0.1l-0.2-0.1
	l-0.2-0.3l0.3-0.2l1.1,0.1l0.7,0.5L112.3,404.9z M143.1,420.7h-0.5l8.4-0.2l12.5-0.3l0.4,0l-12.4,0.3L143.1,420.7z M511.9,256.7
	v-0.3l-0.1-0.3l-0.6-12.8l-1.1-7l-1.8-7l-2.5-7l-3.1-6.9l-2.3-3.9l-4.4-7.1l-1.8-1.9l-3.9-3.7l-3.8-3.3l-3.6-2.8l-3.5-2.3l-6.7-3.6
	l-3.4-1.5L466,184l-3.3-1.1l-3.3-0.8l-3.3-0.6l-3.3-0.4l-8.5-0.9l-2-0.3h-2.1l-2.1,0.3l-5.1,0.5l-5.1,0.7l-5,1l-4.9,1.2l-0.7,0.2
	l-5.6,2l-5.6,1.9H406h0l-0.6,0.4l0,0l-0.8,0.3l-0.5,0.4l-0.1,0.1l0,0l0,0l-4.1,2l-3.9,2.4l-3.4,2.6l-3.2,3l0,0l-5.3,5.5l-3.5,4.7
	l-3.2,4.9l-2.8,5l-2.5,5.2l-2.6,6.7l-2.1,6.9l-1.5,7.1l-1,7.4l-0.4,5.9v0l-0.5,2l-0.2,2l0.1,2l0.4,2l0.2-7.4l-0.2,7.5l0.5,5.9l1,7.4
	l1.3,7.1l1.7,6.8l2,6.5l2.4,6.1l3,6l3.6,5.8l4.1,5.7l6.2,6.2l0,0l2.1,1.9l0.6,0.4l0.4,0.4l0.2,0.2l0.3,0.2l1.7,1.1l1.6,1.1l1.7,1
	l2,1.2l1.1,0.7l1.2,0.5l0.7,0.2l0.7,0.3l2.7,1.3l3.1,1.4l3.1,1.1l3,0.9l6,1.3l6.2,0.8l6.3,0.4h6.5l8.9-0.6l8.1-1.3l3.9-0.9l3.8-1.1
	l3.7-1.3l3.6-1.5l1.4-0.6l2.4-1.3l2.3-1.5l0.2-0.1l0.8-0.4l1.7-1.2l0.1-0.1l4-2.8l1.3-1.1l2.6-1.9l6.4-6.4l1.6-2.3l2.8-3.4l2-2.8
	l1.8-3l1.8-3.3l1.6-3.4l1.4-3.5l0.8-2.4l0.5-1.1v-0.3l-0.2-0.4l-0.4-0.4l-1.5-0.6l-0.9-0.1l-0.5-0.3l-0.1-0.3l-4.1-1.7l0,0v-0.2H503
	h-0.3l-0.2,0.2l-3.7,7.2l-3.1,5.3l-3.4,5.1l0,0l-4.5,4.3l0,0l-11,7l0,0l-2.2,1l-2.4,0.7l-6.3,0.9l-6.6,0.2l-3.8-0.3l-3.7-0.6
	l-3.5-0.9l-3.4-1.2l-3.7-1.7l-3.5-2.1l-1.8-1.4l-1.8-1.9l-2.7-2.5l-2.3-2.3l-1.4-1.6l-2.4-3.6l-2.1-3.8l-2-4.4l-1.7-4.6l-2-7.6
	l-1.3-7.6l-0.4-5.5l-0.1-5.5l-0.3-6.1l-0.1-0.1v-0.3l0.1-0.1v0.2l0.1,0.1l95.8-0.1l0.4-0.1l0.2-0.4l0.1-0.8l0-0.4l-0.1,0.1V256.7z
	 M443.4,345.7l5-0.4l5-0.7l4.9-0.9l4.4-1l4-1.1l3.5-1.3l3.4-1.5l-3.2,1.5l-3.5,1.3l-4,1.1l-4.4,1l-4.9,0.9l-5,0.7l-5,0.4l-5,0.1
	l-0.1,0L443.4,345.7z M415.6,249.5l0-0.2L415.6,249.5l0.5,0.2l15.3-0.3l-15.3,0.6l-0.3-0.1l-0.2-0.3V249.5z M464.5,217l1.2,13.6
	l0.3,5.6l0.1,6.4l-0.2,6.4l-0.1,0.4l-0.3,0.3l-0.7,0.1l-1.1-0.4h-32.2l0,0h-14.6l-0.3-0.1l-0.1-0.3v-7.6l0.4-7.5l0.7-6.5l1-6.5
	l1.1-5.6l1.2-4.9l1.2-4.2l1.3-3.4l1.9-3.8l2.2-3.1l2.5-2.5l2.8-1.9l3.3-1.3l3.7-0.6l4,0.1l4.4,0.8l1.9,0.6l1.7,0.7l1.6,0.9l1.5,1.1
	l2.3,2.3l1.8,2.9l1.3,2.7l1.1,2.9l0.9,3l0.7,3.2l1.4,9.8l0.4,4.5l0.2,5.3l0.1,18.4l-0.1,0.4l-0.4,0.2h0.1l0.7-0.1l0.3-0.3l0.1-0.4
	l0.2-6.4l-0.1-6.4l-0.3-5.6l-1.2-13.6l-1.2-7.1l0.1,0.3L464.5,217z M67.9,344.4l-6.4,0.8l-1.4,0.1l-7,0.2l-7.1-0.4l-12.8-1
	l-12.7-1.5l-9.2-1.4l-9.2-1.7l-0.2,0.2l-0.6-0.2L0.8,339l-0.1,0.4l-0.3-0.2l-0.1-0.6l0.3-0.9l0.1,0.2v-0.3l-0.1-0.2l-0.1,0.2
	l-0.1-0.5l0,0V337l-0.1-0.6l-0.2-2.6L0,325.5l0.5-7.6l-0.1-1.4L0.7,282l0.4-0.4l0.4-0.2H1.4L1,281.6L0.7,282l-0.2-0.1l-0.1-0.1v-0.3
	l0.3-0.2l2.4-0.6l2.5-0.1l1.8,0.5l0.7,0.4l0.3,0.4l0.6,0.5l0.2,0.2l0.8,1.3l0.7,0.7l26.1,39.3l3.4,4.6l3.7,4.1l2.1,1.7l2.3,1.1
	l0.5,0.1l4.1,0.7l4.3,0.1l-3.5,0.3l-2.8-0.1l-2.8-0.4l-1.6-0.5l-1.4-0.8l-0.6-0.5l0.1,0.1l0.6,0.5l1.4,0.8l1.6,0.5l2.8,0.4l2.8,0.1
	l3.5-0.3l2-0.5l1.9-0.2h0.4l4.9-0.7l4.6-1.2l4.4-1.6l4.2-2l0.4-0.2l2.3-1.7l2.9-2.8l-2.1,2.6l-2.4,2.2l-2.1,1.5l-2.3,1.2l-2.2,0.9
	l-3,0.9l-3.1,0.6l-3.2,0.3H65l3.2-0.3l3.1-0.6l3-0.9l2.2-0.9l2.3-1.2l2.1-1.5l2.4-2.2l2.1-2.6l0.4-1l0.6-0.9l0.2-0.2l1.1-1.9
	l-1.2,1.9l2.1-6.9v0v-0.6l0.2-0.4l0.1-1.1l-0.1,1v-2.6l-0.2-2.5l-0.5-2.4l-0.7-2.4l-0.9-2.2l-1.8-2.8l-2.7-2.8l-3.6-2.8l-4-2.4
	l-6.9-3.4l-7.1-3.1l5.5,1.9l5.1,2.2l4.8,2.6l4.5,2.9L82,297l1.7,1.7l1.6,2l1.5,2.2l0.7,1.9l0.7,1.9l0.1,0.4l0.5,2l0.3,2.1V311
	l-0.3-2.1l-0.5-2l-0.1-0.4l-0.7-1.9l-0.7-1.9l-1.5-2.2l-1.6-2l-1.7-1.7l-1.7-1.4l-4.5-2.9l-4.8-2.6l-5.1-2.2l-5.5-1.9l-1.2-0.3
	l-0.8-0.5l-13-4.7l-9.7-4.1l-6.9-3.4l-6.7-3.8l-1.4-1.1v-0.1l-0.9-1l-1.1-0.7l-0.5-0.2l-4.1-4l-0.3-0.4l-2-2.3l-1.7-2.5L8.7,254
	l0.2,0.1l0.2,0.1l0.1,0.1l0,0l0,0l-0.1-0.1L9,254.1L8.7,254l-0.3-0.4l-2-4.6L5,244.3l-0.8-4.5L4,235.1l-0.1-6v-4.6l0.4-4.5l0.8-4.3
	l1.3-4.1l1.3-3.1l1.5-3l1.8-2.9l2-2.8l-3.3,5.3l-2.5,5.4l-0.9,2.7l-0.8,2.7L5,218.6l0.5-2.7l0.8-2.7l0.9-2.7l2.5-5.4l3.3-5.3
	l0.9-1.4l1.3-1.3l0.6-0.5l2.7-2.6l3.3-2.7l3.5-2.3l3.7-2l5-2.1l5.1-1.7l5.9-1.5l6-1l6.2-0.5h6.3l1.9-0.3h1.9l1.4,0.3l7.1,0.3
	l7.1,0.6l7,0.9l7,1.2l7.8,1.7l7.7,2l0.6,0.4l0.2,0.7l0.1,37.5l-0.3,11.9l-0.4,0.8l-0.8,0.3l-5.6,0.1l0,0l0,0l-0.1,0l-0.1-0.1
	l-0.4-0.4l-0.7-1l-0.4-1.2l-0.1-0.1l-0.3-0.3l-0.9-1.6l-0.1-0.2l-0.1-0.1l-0.5-0.9l-0.1-0.1l-0.3-0.1l-0.2-0.3l-0.1-0.4l-0.1-0.1
	l-0.2-0.5l-0.2-0.2l-0.2-0.1l-0.1-0.4l-0.4-0.4l-0.1-0.4l-0.3-0.3l0-0.1l-0.4-0.4l-0.7-1.1l-0.5-0.9l-0.3-0.4l-0.4-0.3l0.1-0.1
	l-8.3-12.7l-2.7-4.1l-0.1-0.5l-0.4-0.3l-0.1-0.3l-0.1-0.2l-0.2-0.2l-0.7-1L77,194.5l-0.2-0.2l0-0.2l-1.1-1.3l-0.7-1.3l-0.9-0.9
	l-1-0.5l-1.2-0.2h-1.3l-1.5,0.3l-9.3-0.1h-2.6l-2.8,0.2l-6.3,1.1l-3.1,0.9l-2.8,1.2l-2.4,1.5l-2,1.9l-0.5,0.5l-0.9,1.6l-1,1.2
	l-1.5,5.2l-0.4,2.5l-0.2,2.4v0.3l0.2-2.4l0.4-2.5l1.5-5.3l-1.1,4.8l-0.4,4.8l0.1,3.2l0.6,3.7l1.2,3.3l1.8,3.1l2.5,2.9l3,2.5l3.7,2.3
	l5.6,2.7l6,2.4l26,9.4l2.5,1.1l3.6,1.4l0.8,0.1l1,0.6l1.8,1.1l1.9,0.8l3.4,1.8l3.5,2.4l1.8,1.5l1.5,0.9l6.2,6.1l1.2,2l1.7,2.4
	l2.3,4.3l1.2,2.7l0.9,2.8l0.7,2.9l0.5,3.1l-0.1-0.2l0.2,0.9v1V296l-0.4,6l-0.6,3.5l-0.9,3.4l-1.1,3.3l-1.3,3.2l-1.4,2.8l-1.6,2.8
	l-1.8,2.7l-1.9,2.6l-1.4,1.8l-2,1.7l-6.3,4.1l-4.7,2.5l-4.6,1.9l-4.7,1.7l-6,1.8l-6.1,1.5L67.9,344.4z M128.8,279.6l0,0.4l0.1,0.4
	l0,0l0.4,3.3l0.6,3.5l0.8,3.4l1,3.3l1.6,4.2l1.2,2.6l0.6,1.7l1.5,2.8l0.4,0.5l2.6,4.7l0.2,0.5l2.3,3.5l0.8,1l2,2.9l3.1,3.7l3.5,3.4
	l2.5,2l1.3,1.2l0.7,0.7l2.3,1.6l4.1,2.6l0.6,0.4l4.9,2.8l5,2.4l5.1,2.1l6,1.9l6.2,1.4l6.4,0.9l3.7,0.2l2.9,0.3H216l1.3-0.3l4.6-0.2
	l5.7-0.9l5.1-1.3l3.8-1.4l1.2-0.2h0.3l0.7-0.1l0.7-0.3l0.5-0.4l0.3,0l0.7-0.3l0,0l0.3,0.1l0.2-0.1h-0.1l0.7-0.4l1-0.2l0.8-0.5l0.1,0
	l0.5-0.1l8.5-4.2l1.7-1.2l1.4-0.7l2.9-1.9l2.5-1.9l1.3-1.1l1.1-0.8l1-0.7l0.9-1l0.1-0.3l0.5-0.2l0.8-0.7l0.4-0.6l0.2-0.1l4.1-4.6
	l0.7-1l1.6-1.9l2.2-2.9l2-3l1.8-3.1l1.8-3.5l1.6-3.6l1.4-3.7l1.2-3.8l2-8l1.4-8.1l0.9-9l0.2-9l-0.3-6.8l-0.8-6.6l-1.3-6.6l-1.8-6.5
	l-2.3-6.5l-1.3-3.2l-1.5-3l-1.6-2.8l-1.5-2.3L278,214l-0.3-0.7l-0.5-0.7l-5.2-6.7l-6.4-6.2l0,0l-2.4-2.3l-2.6-2.1l-2.1-1.5l-4.7-2.9
	l-4.8-2.5l-4.9-2.2l-5-1.9l-6.3-1.8l-6.5-1.3l-6.6-0.8l-6.8-0.4l-8.8,0.2l-5.2,0.8l-5.3,0.6l-6.1,1.2l-6,1.6l-5.8,2l-5.6,2.3
	l-3.7,1.8l-3.9,2.3l-4.2,2.8l-4.4,3.3l-2.4,2.3l-1.3,1.1l-1.4,0.9l-2.9,3.3l-1.2,2.1l-2.3,2.5V211l-0.3,0.3l0.1,0.3l-0.3,0.7
	l-0.9,0.8l-0.7,0.8l-0.3,0.8l-2.6,4.8l-2.2,4.8l-1.9,4.8l-1.6,4.8l-1.2,4.6l-1.2,5.5l-0.9,5.5l-0.5,5.6l-0.2,5.6l0-0.1l0.2-5.7
	l0.5-5.6l0.9-5.5l1.2-5.5l1.2-4.6l1.6-4.8l1.9-4.8l2.2-4.8l2.6-4.8l-2.5,4.2l-2.3,4.5l-2,4.9l-1.8,5.2l-2,7.9l-1.4,7.9l-0.7,7.8
	l-0.1,7.8l0.5,7.6L128.8,279.6z M250.1,189.5l4.1,2.2L250.1,189.5l-4.9-2.2L250.1,189.5z M240.2,185.4l-5.1-1.6l-1-0.2l1,0.2
	L240.2,185.4z M226.1,181.7l0.7,0.2L226.1,181.7l-3.8-0.5L226.1,181.7z M199.5,190.6l2.6-0.7l2.6-0.5l2.6-0.2h2.6l2.4,0.2l1.3,0.2
	l-1.5-0.1l-2.4-0.2h-2.6l-2.6,0.2l-2.6,0.5l-2.6,0.7l-2.6,1l0.1,0L199.5,190.6z M180.6,272l0.2-22.5l0-1.8l0.1,1.8l1.2-15.7l0.6-6.4
	l0.8-6.3l1.1-6.1l1.4-5.9l0.9-3l1-2.6l1.1-2.4l1.3-2.2l1.4-1.9l1.5-1.7l1.7-1.5l1.8-1.3l1.9-1l2.1-0.8l2.2-0.6l2.4-0.3l4.3-0.2
	l4.4,0.1l0.7,0.1l3.6,0.9l0.2,0.1l5.1,2.9l-1.1-1.1l0,0l1.3,1.2l2.4,2.4l1.3,1.5l1.9,2.9l1.5,3.3l2,6.5l1.5,6.6l0.9,5.6l0.5,5.7
	l0.9,7.5v0.4l0.1,4.1l-0.4,4.1l0.5,4.5l0.7,10.2v10.2l-0.6,8.5l0.6-8.5v-10.2l-0.7-10.2v29.6l-0.4,1.3l0.1,1.7l0,2.1l-0.5,7.3
	l-0.9,8.6l-1.2,8l-1.5,7.4l-0.9,3.5l-1.3,3.6l-1.7,3.8l-0.8,1.5l-1.4,2.4l-1.2,0.7l-1,0.9l-0.6,0.8l-0.3,0.3l-1.1,0.6l-1.2,0.8
	l-0.3,0.1l-6.3,2.1l-0.3,0.1h-9.6l2.9,0.7l2.8,0.1l0,0l-2.9-0.1l-2.9-0.7l-0.7-0.2H203h-0.1l-2.4-0.6l-2.2-0.8l-2.1-1l-1.9-1.2
	l-2.1-1.8l-1.8-2.1l-1.6-2.5l-1.3-2.8l-1.6-4.4l-1-3.4l-0.8-3.5l-1.3-6.9l-1-7.1l-0.8-7.4l-0.5-7.6l-0.1-5.8L180.6,272z"/>
<path class="st1" d="M352.2,360.4L352.2,360.4l1.1,0.9l0.8,0.2h27.7l0.4,0.1l0.1,0.4v58.2l-0.1,0.5l-0.3,0.4l-0.5,0.3l-0.5,0.1l0,0
	h-0.1l-2.8-0.4l-3.2-0.1H243.4l0.1-0.7l5.8-0.5l5.6-0.9l5.5-1.3l5.3-1.7l0,0l0,0l0,0l5.2-2.2l5-2.6l4.5-2.8l4.2-3.1l4-3.5l3.6-3.8
	l3.1-3.7l2.8-4l2.5-4.2l2.2-4.4l1.9-4.5l1.6-4.7l1.3-4.9l1-5l0.3-0.6l0.6-0.2h42l0.4-0.1l0.3-0.3V360.4z M300.3,361.5l0.2,0.1
	l-1.9,7.5l-1.1,3.6l-1.3,3.5l-1.4,3.3l-1.6,3.2l-1.8,3l-1.9,2.9l-2.1,2.7l-2.2,2.6l0,0l0,0l0,0l0,0l0,0l-4.6,4.4l-5.2,3.9l-5.8,3.3
	l-6.3,2.8l-5.6,1.8l-5.9,1.3l-6.2,0.8l-6.5,0.3l-72.7,0.1L150,413h-5.8l-6.4-0.2l-6.4-0.4l-0.2-0.1v-0.2l0.1-0.1h0.1l24.1,0.1
	l0.4-0.1l0.1-0.4v-49.1l0.3-0.8l0.8-0.3L300.3,361.5z"/>
</svg>
