<svg xmlns="http://www.w3.org/2000/svg" xml:space="preserve" viewBox="0 0 512 512"><path d="M269.3.2c-.1.1-6.7.5-14.5 1-14.7.8-21.4 1.3-27.8 2.4-2.1.3-5.6.9-7.6 1.1-2.1.3-5.6 1-7.6 1.5S206 7.5 203.7 8c-5.1.8-22.2 6.4-32.3 10.8-48.6 20.4-78.6 48.8-93.4 88.5-2.7 7.3-6.9 25.4-7.6 33.7-.7 6.1-.7 34.4-.1 37.7.2 1.5.8 5.5 1.2 8.7 2.4 19.2 10.2 39.2 21 54.4 23.3 32.6 64.2 53.6 146.1 75 23.5 6.1 43.1 14.1 50.4 20.5 4.5 3.9 8 10.4 8.2 15.3.5 9.5-3.5 15.9-12.8 20.3-12.4 5.8-42 6.6-68.5 1.6-10.6-1.9-28.6-7.9-40.1-13.2-12.8-5.9-39.5-23.6-42.5-28.1-.4-.7-2.3-2.6-4.1-4.3l-3.5-3.2-24.6 25c-13.5 13.8-34.7 35.3-47.1 48l-22.4 22.9 6.2 6c31.9 30.3 67.1 50.5 117.7 67.5 12.1 4.2 27.7 8.5 34.3 9.6 1.5.3 4.5 1 6.6 1.5 3.7.9 15 2.8 22.9 3.8 19.7 2.6 67.4 2.6 87.9 0C385 500 440.6 460.6 459 402.9c7.2-22.8 8.5-55.6 3.3-85.7-1.2-7-5.6-18.8-10.6-28.8-15-30-35.7-49.1-74.8-68.7-15.8-8-53-20.9-69.7-24.2-10.1-2-37.9-11-47.3-15.3-14.7-6.8-20.4-13.3-20.2-23.7.1-8.7 8-16.6 19.6-20 6.4-1.9 32.2-2.6 40.7-1.1 14.4 2.4 36.1 9.4 47.5 15.1 8 4.1 22 14.5 31.2 23.1l8 7.4 47.4-47.6c42.5-42.7 47.3-47.8 46-49.5-4.1-5.1-6.2-7.5-9.3-10.6-27.5-27.6-57.2-44.7-101.4-58.3-27.7-8.6-48.2-12.3-77.5-13.9-6.5-.4-14.3-.9-17.1-1.1-2.7-.1-5.2-.1-5.5.2"/></svg>