<?xml version="1.0" encoding="utf-8"?>
<!-- Generator: Adobe Illustrator 28.2.0, SVG Export Plug-In . SVG Version: 6.00 Build 0)  -->
<svg version="1.1" id="Layer_1" xmlns="http://www.w3.org/2000/svg" xmlns:xlink="http://www.w3.org/1999/xlink" x="0px" y="0px"
	 viewBox="0 0 512 512" style="enable-background:new 0 0 512 512;" xml:space="preserve">
<style type="text/css">
	.st0{fill-rule:evenodd;clip-rule:evenodd;fill:#EEEEEE;}
	.st1{fill-rule:evenodd;clip-rule:evenodd;fill:#3A3F51;}
	.st2{fill-rule:evenodd;clip-rule:evenodd;fill:#00CCFF;}
</style>
<path class="st0" d="M511.8,256c0,70.4-24.9,130.8-74.6,181.1c-1.7,2-3.5,3.8-5.5,5.4c-8.2,8-16.8,15.3-26,21.8
	c-43.1,31.8-92.9,47.7-149.4,47.7c-56.6,0-106.3-15.9-149.2-47.7c-11.3-8-22-17.1-31.9-27.3C36.5,398.7,12.8,354,4,303.2
	c-1.7-9.9-2.9-20-3.4-30.2c-0.2-5.7-0.4-11.3-0.4-17c0-6,0.1-11.7,0.4-17.1c0-0.6,0.2-1.1,0.5-1.7c3.7-62.8,28.4-117,74.1-162.8
	C125.5,24.8,185.8,0,256.2,0c70.7,0,131,24.8,180.9,74.5C486.9,125.1,511.8,185.6,511.8,256L511.8,256z"/>
<path class="st1" d="M459.7,100.3l-52.9,52.9c-30.9,30.9-33.6,57.8-33.6,105.3c0,42.3,6.7,81.1,38.2,112.6
	c23,23,44.9,44.7,44.9,44.7c-5.9,7.2-12.3,14.3-19.1,21.2c-1.7,2-3.5,3.8-5.5,5.4c-6,5.9-12.2,11.4-18.6,16.4l-41.4-41.4
	C334.9,380.6,305.6,377,257,377c-46.7,0-78.4,4.3-112.6,38.5c-20.4,20.4-43.8,43.9-43.8,43.9c-8.9-6.8-17.3-14.2-25.3-22.4
	c-6.6-6.6-12.8-13.4-18.5-20.3c0,0,23.1-23.2,45.2-45.3c32.7-32.7,38-70.6,38-113c0-41.3-6.8-79.8-36.8-109.9
	C82.2,127.7,53.3,99,53.3,99c6.7-8.5,14-16.7,21.8-24.5c6.9-6.8,14-13.1,21.2-19l48,48c30.7,30.7,70,38.6,112.4,38.6
	c43.6,0,82.8-8.4,114.7-40.4C391,82.1,417,56.3,417,56.3c6.8,5.6,13.5,11.6,20.1,18.2C445.4,82.8,452.9,91.4,459.7,100.3z"/>
<path class="st2" d="M186,269.1c-0.5-2.8-0.8-5.5-0.9-8.4c-0.1-1.6-0.1-3.1-0.1-4.7c0-1.7,0-3.2,0.1-4.7c0-0.2,0-0.3,0.1-0.5
	c1-17.4,7.9-32.4,20.5-45.1c13.9-13.8,30.6-20.7,50.2-20.7s36.3,6.9,50.2,20.7c13.8,14,20.7,30.8,20.7,50.3s-6.9,36.2-20.7,50.2
	c-0.5,0.5-1,1.1-1.5,1.5c-2.3,2.2-4.7,4.2-7.2,6c-12,8.8-25.8,13.2-41.4,13.2s-29.4-4.4-41.3-13.2c-3.1-2.2-6.1-4.7-8.9-7.6
	C195,295.5,188.5,283.2,186,269.1z M375.2,143.5l-1.8-1.8l66.4-64.6l-1.4-1.4L372,140.3l0.7,0.7l-0.7-0.7l0,0l-1.8-1.8l-40,40.6l5,5
	L375.2,143.5z M136.9,145.6l40.6,40.5l5-5l-40.6-40.5l-1.8,1.8L73.6,76.1l-1.4,1.4l66.5,66.3L136.9,145.6z M371.8,369.5l-42.6-42.4
	l-5,5l42.6,42.4l1.8-1.8l65.4,67.7l1.4-1.4L370,371.3L371.8,369.5z M138.5,371.6l1.8,1.7l-64.4,64.5l1.4,1.4l64.4-64.5l1.8,1.7
	l39.5-41.1l-5-4.8L138.5,371.6z"/>
</svg>
