<svg xmlns="http://www.w3.org/2000/svg" xml:space="preserve" id="sonarr-4k-light_svg__Layer_1" x="0" y="0" version="1.1" viewBox="0 0 512 512"><style>.sonarr-4k-light_svg__st4{fill:#0cf}</style><path d="M138.4 100.3c28.9 28.9 65.8 36.3 105.6 36.3 41 0 77.8-7.9 107.8-38C365.7 84.8 393.7 57 394.7 56Q330.2 3.2 243.8 3.2c-57.1 0-107.2 17.4-150.2 52.1zm262.7 263.4h51.6C473.6 328 484 288 484 243.8c0-55.4-16.4-104.2-49.1-146.5l-49.7 49.8c-29 29.1-31.6 54.4-31.6 99.1 0 39.8 6.3 76.3 35.9 105.9 3.9 3.9 7.9 7.8 11.6 11.6M98.7 352.3c30.7-30.8 35.7-66.4 35.7-106.3 0-38.9-6.4-75.1-34.6-103.4C80.9 123.8 55.1 98.2 53 96.2c-29.9 37.9-46.2 81.1-49.1 130-.3.6-.5 1-.5 1.6-.3 5.1-.4 10.4-.4 16.1 0 5.4.2 10.6.4 16 .5 9.6 1.6 19.1 3.2 28.4C13.5 327.8 30 363.4 56.2 395c.1-.2 21.8-22 42.5-42.7m196 124.7v-78.3c0-13.4 7.6-25.1 18.8-31-20.1-8.8-41.2-10.1-69.1-10.1-43.9 0-73.7 4-105.8 36.2-19 19-40.8 40.9-41.1 41.3 2 1.6 4.1 3.1 6.2 4.6 40.3 29.9 87 44.8 140.2 44.8 17.7 0 34.7-1.7 50.9-5-.1-.8-.1-1.7-.1-2.5" style="fill-rule:evenodd;clip-rule:evenodd;fill:#fff"/><path d="M177.8 256.2c-.5-2.6-.8-5.2-.8-7.9-.1-1.5-.1-2.9-.1-4.4 0-1.6 0-3 .1-4.4 0-.2 0-.3.1-.5.9-16.4 7.4-30.5 19.3-42.4 13.1-13 28.8-19.5 47.2-19.5s34.1 6.5 47.2 19.5c13 13.2 19.5 29 19.5 47.3s-6.5 34-19.5 47.2c-.5.5-.9 1-1.4 1.4-2.2 2.1-4.4 3.9-6.8 5.6-11.3 8.3-24.3 12.4-38.9 12.4s-27.6-4.1-38.8-12.4c-2.9-2.1-5.7-4.4-8.4-7.1-10.3-10-16.4-21.6-18.7-34.8" style="fill-rule:evenodd;clip-rule:evenodd;fill:#0cf"/><path d="m353.5 135.8-33.3 32.5M71.7 75.5l90.7 90.3m187.7 187 19.7 20.3m46.1-298-62.4 60.7M75.1 415.5l60.8-60.8" style="fill:none;stroke:#0cf;stroke-width:2;stroke-miterlimit:1"/><path d="m353.2 135.7-37.6 38.2m-181.7-36.2 38.2 38.1m-36.6 179 37.1-38.6M310 313l40 39.9" style="fill:none;stroke:#0cf;stroke-width:7;stroke-miterlimit:1"/><path d="M329.3 453.2h29.9v-47.6l-1.5 2.5z" class="sonarr-4k-light_svg__st4"/><path d="M475.7 363.7h-146c-19.3 0-35 15.7-35 35V477c0 19.3 15.7 35 35 35h146c19.2 0 34.8-15.7 35-35v-78.3c0-19.3-15.7-35-35-35m-83.3 104.8h-14.2v25.3h-19v-25.4h-49.3l-.5-11.6 49.2-77.1h19.7v73.4h14.2v15.4zm79.8 25.3-34.3-49.2-12.9 13.7v35.5h-19.8v-114H425v53.5l11-13.5 33.4-39.9h24l-42.5 50.4 44.8 63.5z" class="sonarr-4k-light_svg__st4"/></svg>