<svg xmlns="http://www.w3.org/2000/svg" xml:space="preserve" viewBox="0 0 512 512"><path d="M493.7 310.5V373l-147 85.9-37.3 21.8h-.2L255.8 512l-53.6-31.3-37.3-21.7-146.6-86v-62.4l54.9 32v.5l145 84.5 37.5 21.9.2.2.4-.2 37.3-21.8L438.8 343v-.5zm-55-266.8v97.8l-145.2 84.7-37.3 21.8h-.4l-37.5-22-145-84.5V43.7h-55v127.8l146.8 85.8 37.3 21.8 53.6 31.3 53.4-31.3 37.3-21.8 147-85.9V43.7z" style="fill:#1c1f2a"/><path d="M493.7 209.7v62.5l-147 85.9-37.3 21.9h-.2l-53.4 31.3-53.6-31.3-37.3-22-146.6-85.7v-62.4l54.9 32v.5l145 84.5 37.5 21.9.2.2.4-.2 37.3-21.8 145.2-84.7v-.5zm-229.1-50.6V56.5c6.6-9.9 24.5-17.7 37.7-17.7 4.8 0 8.2.4 11.2.9V0c-19 0-37.7 11.2-48.8 24.7V3.8h-40.2V159c-.1.1 40.1.1 40.1.1" style="fill:#05bb6d"/></svg>