<svg xmlns="http://www.w3.org/2000/svg" xml:space="preserve" viewBox="0 0 512 512"><path d="M231.7 407.6V195c0-8.4 6.8-15.2 15.2-15.2h31c8.4 0 15.2 6.8 15.2 15.2v212.6c0 8.4-6.8 15.2-15.2 15.2h-31c-8.4 0-15.2-6.8-15.2-15.2m99.7 15.2h29.7c8.4 0 15.2-6.8 15.2-15.2v-293c0-8.4-6.8-15.2-15.2-15.2h-29.7c-8.4 0-15.2 6.8-15.2 15.2v293.1c.1 8.3 6.9 15.1 15.2 15.1m81.8 0h28.5c9.1 0 16.4-7.4 16.4-16.4V241c0-9.1-7.4-16.4-16.4-16.4H414c-9.5 0-17.2 7.7-17.2 17.2v164.5c0 9.1 7.4 16.5 16.4 16.5M512 101.9v308.3c0 52-42.3 94.2-94.2 94.2H94.2c-52 0-94.2-42.3-94.2-94.2V101.9c0-52 42.3-94.2 94.2-94.2h323.5c52-.1 94.3 42.2 94.3 94.2M94.2 469.2h323.7c32 0 58-26 58-58V100.8c0-32-26-58-58-58H94.2c-32 0-58 26-58 58v310.4c-.1 32 26 58 58 58m69.8-46.4h32c8.4 0 15.2-6.8 15.2-15.2V252.1c0-8.4-6.8-15.2-15.2-15.2h-32c-8.4 0-15.2 6.8-15.2 15.2v155.5c0 8.4 6.8 15.2 15.2 15.2m-36.1-15.2V303.7c0-8.4-6.8-15.2-15.2-15.2h-32c-8.4 0-15.2 6.8-15.2 15.2v103.9c0 8.4 6.8 15.2 15.2 15.2h32c8.4 0 15.2-6.8 15.2-15.2" style="fill:#fff"/></svg>