<svg xmlns="http://www.w3.org/2000/svg" xml:space="preserve" viewBox="0 0 512 512"><radialGradient id="sortarr_svg__a" cx="-702.128" cy="799.197" r="1.085" gradientTransform="matrix(0 320 320 0 -255487 224885)" gradientUnits="userSpaceOnUse"><stop offset="0" style="stop-color:#2b313a"/><stop offset="1" style="stop-color:#14181f"/></radialGradient><circle cx="256" cy="256" r="251.7" style="fill:url(#sortarr_svg__a)"/><path d="M256 512c-68.4 0-132.7-26.6-181-75C26.6 388.7 0 324.4 0 256S26.6 123.3 75 75C123.3 26.6 187.6 0 256 0s132.7 26.6 181 75c48.4 48.4 75 112.6 75 181s-26.6 132.7-75 181c-48.3 48.4-112.6 75-181 75m0-503.3C119.6 8.7 8.7 119.6 8.7 256S119.6 503.3 256 503.3 503.3 392.4 503.3 256 392.4 8.7 256 8.7" style="fill:#2a2f38"/><path d="M256 424.7C163 424.7 87.3 349 87.3 256S163 87.3 256 87.3 424.7 163 424.7 256 349 424.7 256 424.7m0-334.1c-91.2 0-165.4 74.2-165.4 165.4S164.8 421.4 256 421.4 421.4 347.2 421.4 256 347.2 90.6 256 90.6m0 288.5c-67.9 0-123.1-55.2-123.1-123.1S188.1 132.9 256 132.9 379.1 188.1 379.1 256 323.9 379.1 256 379.1m0-243c-66.1 0-119.9 53.8-119.9 119.9S189.9 375.9 256 375.9 375.9 322.1 375.9 256 322.1 136.1 256 136.1m0 197.5c-42.8 0-77.6-34.8-77.6-77.6s34.8-77.6 77.6-77.6 77.6 34.8 77.6 77.6-34.8 77.6-77.6 77.6m0-151.9c-41 0-74.3 33.3-74.3 74.3s33.3 74.3 74.3 74.3 74.3-33.3 74.3-74.3-33.3-74.3-74.3-74.3" style="fill:#2d3440"/><path d="M433.9 254.4H257.6V78.1h-3.2v176.3H78.1v3.2h176.3v176.3h3.2V257.6h176.3z" style="fill:#252b35"/><path d="M360.1 151.9c4.8 0 8.7 3.9 8.7 8.7s-3.9 8.7-8.7 8.7-8.7-3.9-8.7-8.7 3.9-8.7 8.7-8.7m-23 55.2c3.6-4 3.2-10.2-.9-13.8l-73.8-65.1c-3.7-3.3-9.2-3.3-12.9 0l-73.8 65.1c-4 3.6-4.4 9.7-.9 13.8 3.6 4 9.7 4.4 13.8.9l67.3-59.4 67.3 59.4c1.9 1.6 4.2 2.4 6.5 2.4 2.8 0 5.5-1.1 7.4-3.3m-74.6 176.6 73.8-65.1c4-3.6 4.4-9.7.9-13.8-3.6-4-9.7-4.4-13.8-.9L256 363.4 188.7 304c-4-3.6-10.2-3.2-13.8.9-3.6 4-3.2 10.2.9 13.8l73.8 65.1c1.8 1.6 4.2 2.4 6.5 2.4 2.2 0 4.5-.8 6.4-2.5m3.3-56.1V184.4c0-5.4-4.4-9.8-9.8-9.8s-9.8 4.4-9.8 9.8v143.2c0 5.4 4.4 9.8 9.8 9.8s9.8-4.4 9.8-9.8" style="opacity:.9;fill:#ffc857"/></svg>