<svg xmlns="http://www.w3.org/2000/svg" xml:space="preserve" id="sortarr-light_svg__Layer_1" x="0" y="0" version="1.1" viewBox="0 0 512 512"><style>.sortarr-light_svg__st0{opacity:.2;fill:#fff}</style><circle cx="256" cy="256" r="251.7" class="sortarr-light_svg__st0"/><path d="M433.9 254.4h-9.2c-.9-91.7-75.3-166.2-167-167v-9.2h-3.3v9.2c-91.7.9-166.2 75.3-167 167h-9.2v3.3h9.2c.9 91.7 75.3 166.2 167 167v9.2h3.3v-9.2c91.7-.9 166.2-75.3 167-167h9.2zm-12.5 0h-42.3c-.9-66.6-54.9-120.6-121.5-121.5V90.6c90 .9 162.9 73.8 163.8 163.8m-167 3.2v72.6c-39.7-.9-71.8-33-72.6-72.6zm-72.7-3.2c.9-39.7 33-71.8 72.6-72.6v72.6zm75.9 0v-72.6c39.7.9 71.8 33 72.6 72.6zm72.7 3.2c-.9 39.7-33 71.8-72.6 72.6v-72.6zm-75.9-79.1c-41.5.9-75 34.4-75.9 75.9h-42.3c.9-64.8 53.4-117.3 118.2-118.2zm-75.9 79.1c.9 41.5 34.4 75 75.9 75.9v42.3c-64.8-.8-117.4-53.4-118.2-118.2zm79.1 75.9c41.5-.9 75-34.4 75.9-75.9h42.3c-.8 64.8-53.4 117.4-118.2 118.2zm75.9-79.1c-.9-41.5-34.4-75-75.9-75.9v-42.3c64.8.9 117.3 53.4 118.2 118.2zM254.4 90.6v42.3c-66.6.9-120.6 54.9-121.5 121.5H90.6c.9-90 73.8-162.9 163.8-163.8m-163.8 167h42.3c.9 66.6 54.9 120.6 121.5 121.5v42.3c-90-.9-162.9-73.8-163.8-163.8m167 163.8v-42.3c66.6-.9 120.6-54.9 121.5-121.5h42.3c-.9 90-73.8 162.9-163.8 163.8" class="sortarr-light_svg__st0"/><path d="M256 512c-68.4 0-132.7-26.6-181-75C26.6 388.7 0 324.4 0 256S26.6 123.3 75 75C123.3 26.6 187.6 0 256 0s132.7 26.6 181 75c48.4 48.4 75 112.6 75 181s-26.6 132.7-75 181c-48.3 48.4-112.6 75-181 75m0-503.3C119.6 8.7 8.7 119.6 8.7 256S119.6 503.3 256 503.3 503.3 392.4 503.3 256 392.4 8.7 256 8.7m104.1 143.2c4.8 0 8.7 3.9 8.7 8.7s-3.9 8.7-8.7 8.7-8.7-3.9-8.7-8.7 3.9-8.7 8.7-8.7m-23 55.2c3.6-4 3.2-10.2-.9-13.8l-73.8-65.1c-3.7-3.3-9.2-3.3-12.9 0l-73.8 65.1c-4 3.6-4.4 9.7-.9 13.8 3.6 4 9.7 4.4 13.8.9l67.3-59.4 67.3 59.4c1.9 1.6 4.2 2.4 6.5 2.4 2.8 0 5.5-1.1 7.4-3.3m-74.6 176.6 73.8-65.1c4-3.6 4.4-9.7.9-13.8-3.6-4-9.7-4.4-13.8-.9L256 363.4 188.7 304c-4-3.6-10.2-3.2-13.8.9-3.6 4-3.2 10.2.9 13.8l73.8 65.1c1.8 1.6 4.2 2.4 6.5 2.4 2.2 0 4.5-.8 6.4-2.5m3.3-56.1V184.4c0-5.4-4.4-9.8-9.8-9.8s-9.8 4.4-9.8 9.8v143.2c0 5.4 4.4 9.8 9.8 9.8s9.8-4.4 9.8-9.8" style="fill:#fff"/></svg>