<svg xmlns="http://www.w3.org/2000/svg" xml:space="preserve" viewBox="0 0 512 512"><path d="M410.9 181.9h84V4.4H170.3C76.4 4.4 0 80.8 0 174.6c0 69.2 41.6 128.9 101.1 155.5H0v177.5h341.7c93.9 0 170.3-76.3 170.3-170.2 0-69.2-41.6-128.9-101.1-155.5" style="fill:#f9f9f9"/><linearGradient id="sosse_svg__a" x1="93.097" x2="93.097" y1="248.273" y2="306.326" gradientUnits="userSpaceOnUse"><stop offset="0" style="stop-color:#e71d36"/><stop offset="1" style="stop-color:#971212"/></linearGradient><path d="M171.5 181.9V19.2h-1.2c-85.8 0-155.5 69.7-155.5 155.5s69.8 155.5 155.5 155.5h1.2z" style="fill:url(#sosse_svg__a)"/><linearGradient id="sosse_svg__b" x1="418.901" x2="418.901" y1="391.664" y2="460.123" gradientUnits="userSpaceOnUse"><stop offset="0" style="stop-color:#f6ea00"/><stop offset="1" style="stop-color:#ffab00"/></linearGradient><path d="M341.7 181.9h-1.2v310.9h1.2c85.8 0 155.5-69.7 155.5-155.5.1-85.6-69.7-155.4-155.5-155.4" style="fill:url(#sosse_svg__b)"/><linearGradient id="sosse_svg__c" x1="255.999" x2="255.999" y1="125.229" y2="151.713" gradientUnits="userSpaceOnUse"><stop offset="0" style="stop-color:#f6ea00"/><stop offset="1" style="stop-color:#ffab00"/></linearGradient><path d="M186.2 19.1h139.6v148.1H186.2z" style="fill:url(#sosse_svg__c)"/><linearGradient id="sosse_svg__d" x1="255.999" x2="255.999" y1="265.043" y2="305.122" gradientUnits="userSpaceOnUse"><stop offset="0" style="stop-color:#253dff"/><stop offset="1" style="stop-color:#1729c2"/></linearGradient><path d="M186.2 181.9h139.6V330H186.2z" style="fill:url(#sosse_svg__d)"/><linearGradient id="sosse_svg__e" x1="93.097" x2="93.097" y1="411.024" y2="474.357" gradientUnits="userSpaceOnUse"><stop offset="0" style="stop-color:#f6ea00"/><stop offset="1" style="stop-color:#ffab00"/></linearGradient><path d="M14.7 344.8h156.8v148.1H14.7z" style="fill:url(#sosse_svg__e)"/><linearGradient id="sosse_svg__f" x1="255.999" x2="255.999" y1="393.673" y2="466.927" gradientUnits="userSpaceOnUse"><stop offset="0" style="stop-color:#00d111"/><stop offset="1" style="stop-color:#1b7c16"/></linearGradient><path d="M186.2 344.8h139.6v148.1H186.2z" style="fill:url(#sosse_svg__f)"/><linearGradient id="sosse_svg__g" x1="410.327" x2="410.327" y1="68.029" y2="141.285" gradientUnits="userSpaceOnUse"><stop offset="0" style="stop-color:#00d111"/><stop offset="1" style="stop-color:#1b7c16"/></linearGradient><path d="M340.5 19.1h139.6v148.1H340.5z" style="fill:url(#sosse_svg__g)"/></svg>