<svg xmlns="http://www.w3.org/2000/svg" xml:space="preserve" viewBox="0 0 512 512"><linearGradient id="soulseek_svg__a" x1="256" x2="256" y1="499.629" y2="12.371" gradientUnits="userSpaceOnUse"><stop offset="0" style="stop-color:#3838cf"/><stop offset=".182" style="stop-color:#3d3dd1"/><stop offset=".397" style="stop-color:#4b4bd9"/><stop offset=".627" style="stop-color:#6363e4"/><stop offset=".868" style="stop-color:#8484f4"/><stop offset="1" style="stop-color:#99f"/></linearGradient><path d="M288.6 186.8c-4.3 23.1 30.3 30.3 30.3 30.3s21.6 5.8 87.9-31.7 96.6-69.2 96.6-69.2l-10.1 23.1 15.9-1.4L499 158h13l-15.9 23 7.2 4.3-18.7 20.2 4.3 8.6s-28.8 36-62 60.5-49 43.2-115.3 80.7C278.5 403 158.8 499.6 158.8 499.6l4.3-23.1s-13 4.3-38.9 15.9c-1.4-11.5 7.2-21.6 7.2-21.6s-4.3 4.3-41.8 15.9c10.1-17.3 18.7-24.5 18.7-24.5s-18.7 4.3-38.9 10.1c1.4-20.2 44.7-37.5 44.7-37.5s-11.5 5.8-34.6 5.8c23.1-28.8 100.9-59.1 100.9-59.1s25.9-27.4 4.3-34.6-30.3 1.4-30.3 1.4-17.3-5.8-36-14.4-50.4-39-50.4-39L.2 214.2s-2.9-10.1 11.5-10.1C1.7 192.6.2 182.5.2 182.5L6 172.4v-15.9s-5.8-14.4 14.4-5.8c-13-7.2-8.6-23.1-11.5-43.2 10.1 30.3 54.8 66.3 54.8 66.3s4.3 7.2 51.9 27.4 103.8 15.9 103.8 15.9-1.4-1.4 2.9-14.4-15.9-10.1-20.2-37.5c7.2-38.9-40.4-57.7-40.4-57.7s10.1-7.2 21.6-5.8-23.1-13-17.3-15.9 20.2 5.8 20.2 5.8l-15.9-11.5s1.4-2.9 14.4-1.4c13 1.4-2.9-7.2-11.5-18.7 13-5.8 11.5 5.8 20.2 5.8-1.4-11.5-17.3-27.4-17.3-27.4s21.6 5.8 27.4 14.4c-2.9-13-17.3-40.4-17.3-40.4s31.7 7.2 47.6 23.1l64.9 64.9 37.5 69.2-25.9 5.8 11.5 28.8z" style="fill:url(#soulseek_svg__a)"/></svg>