<svg xmlns="http://www.w3.org/2000/svg" xml:space="preserve" viewBox="0 0 512 512"><path d="M44.1 248.9c0 1.6-1.6 1.6-1.6 3.2l-4.7 55.1 4.7 52c0 1.6 1.6 3.2 3.2 3.2 0 0 1.6-1.6 1.6-3.2l4.7-52-4.7-55.1c0-1.6-1.6-3.2-3.2-3.2m63-29.9c-3.2 0-4.7 1.6-4.7 3.2l-4.7 85.1 4.7 55.1c0 1.6 1.6 3.2 3.2 3.2 3.2 0 4.7-1.6 4.7-3.2l4.7-55.1-4.7-85.1c0-1.6-1.6-3.2-3.2-3.2m-83.5 40.9-1.6 1.6-4.7 45.7 4.7 45.7c0 1.6 1.6 1.6 1.6 1.6 1.6 0 1.6-1.6 1.6-1.6l6.3-45.7-6.3-45.7c0-1.6-1.6-1.6-1.6-1.6m41-12.6c-1.6 0-1.6 1.6-3.2 3.2l-4.7 56.7 4.7 53.6c0 1.6 1.6 3.2 3.2 3.2s3.2-1.6 3.2-3.2l4.7-53.6-4.7-56.7c-.1-1.6-1.6-3.2-3.2-3.2m-59.9 30s-1.6 0-1.6 1.6L0 307.2l3.2 28.4c0 1.6 1.6 1.6 1.6 1.6 1.6 0 1.6-1.6 1.6-1.6l4.7-28.4-4.7-28.4c-.1-1.5-1.7-1.5-1.7-1.5M449 241c-7.9 0-17.3 1.6-23.6 4.7-4.7-56.7-52-100.8-110.3-100.8h-7.9c-11 0-22.1 3.1-33.1 6.3-4.7 1.6-6.3 3.2-6.3 7.9v200.1c0 3.2 3.2 6.3 6.3 7.9H449c34.7 0 63-28.4 63-63S483.6 241 449 241m-258.4-53.5c-3.1 0-6.3 3.2-6.3 6.3l-3.2 113.4 3.2 53.6c0 3.2 3.2 6.3 6.3 6.3 3.2 0 6.3-3.2 6.3-6.3l3.2-53.6-3.2-113.4c0-3.2-3.1-6.3-6.3-6.3m-63 11c-3.1 0-4.7 1.6-4.7 4.7l-3.2 104 3.2 55.1c0 3.2 1.6 4.7 4.7 4.7 1.6 0 4.7-1.6 4.7-4.7l4.7-55.1-4.7-104c0-3.1-1.5-4.7-4.7-4.7m-41 53.6c-3.2 0-4.7 1.6-4.7 3.2l-3.2 52 3.2 55.1c0 1.6 1.6 3.2 3.2 3.2s3.2-1.6 3.2-3.2l6.3-55.1-4.7-52c-.1-1.7-1.7-3.2-3.3-3.2m82-66.2c-1.6 0-4.7 1.6-4.7 4.7l-3.2 116.6 3.2 53.6c0 3.2 1.6 4.7 4.7 4.7s4.7-1.6 4.7-4.7l3.2-53.6-3.2-116.6c0-3.1-3.2-4.7-4.7-4.7m86.6-26.8h-1.6c-3.1 0-4.7 3.2-4.7 6.3l-3.2 141.8 3.2 52c0 3.2 3.2 6.3 6.3 6.3 3.2 0 6.3-3.2 6.3-6.3l3.2-52-3.2-141.8c0-3.1-3.1-6.3-6.3-6.3m-22 11c-3.2 0-6.3 3.2-6.3 6.3l-3.2 130.8 3.2 52c0 3.2 3.1 6.3 6.3 6.3s6.3-3.2 6.3-6.3l3.2-52-3.2-130.8c0-3.1-3.2-6.3-6.3-6.3M148.1 189c-3.2 0-4.7 3.2-4.7 4.7l-3.2 113.4 3.2 53.6c0 3.2 1.6 4.7 4.7 4.7 3.2 0 4.7-1.6 4.7-4.7l3.2-53.6-3.2-113.4c0-3.1-1.6-4.7-4.7-4.7m64.6 1.6c-4.7 1.6-6.3 3.2-6.3 7.9l-3.1 108.7 3.1 52c0 3.2 3.2 6.3 6.3 6.3 3.2 0 6.3-3.2 6.3-6.3l3.1-52-3.1-110.3c0-3.1-3.2-6.3-6.3-6.3" style="fill:#fff"/></svg>