<svg xmlns="http://www.w3.org/2000/svg" xml:space="preserve" viewBox="0 0 512 512"><path d="M0 166.4c0 130.3 139.6 253.5 255.9 335 34.9-23.3 69.8-51.2 102.3-79.1C202.4 292.1 53.5 173.4 2.3 131.6c0 9.3-2.3 20.9-2.3 34.8m504.8 60.5c-114-93-181.4-141.9-255.9-186.1-20.9-11.6-60.5-30.2-104.7-30.2-41.9 0-79.1 14-104.7 39.5C23.3 66.4 11.6 87.4 7 112.9c58.2 41.9 218.7 155.9 379.2 283.8 53.4-51.1 97.6-109.3 118.6-169.8M474.5 50.1C448.9 24.5 414 10.6 372.2 10.6c-44.2 0-76.8 14-102.3 27.9C314 64.1 409.4 117.6 509.4 192c2.3-9.3 2.3-20.9 2.3-30.2 2.4-46.5-11.6-86.1-37.2-111.7"/></svg>