<svg xmlns="http://www.w3.org/2000/svg" xml:space="preserve" viewBox="0 0 512 512"><path d="M365.4 9.8c-43.8 0-81 15.3-109.4 30.6-28.4-15.2-63.5-30.6-109.4-30.6C56.9 9.8 0 66.7 0 167.4c0 120.3 116 238.5 256 334.8C396 408.1 512 290 512 167.4 512 66.7 452.9 9.8 365.4 9.8" style="fill:#ccc"/><linearGradient id="southwest-airlines_svg__a" x1="14.091" x2="352.295" y1="1321.75" y2="1321.75" gradientTransform="translate(0 -1011)" gradientUnits="userSpaceOnUse"><stop offset="0" style="stop-color:#3656cc"/><stop offset=".35" style="stop-color:#304cb2"/><stop offset=".72" style="stop-color:#283b80"/></linearGradient><path d="M13.1 169.6c0 122.5 131.3 238.5 240.7 315.1 32.8-21.9 65.6-48.1 96.3-74.4C203.5 287.7 63.5 176.1 15.3 136.8c0 8.7-2.2 19.6-2.2 32.8" style="fill:url(#southwest-airlines_svg__a)"/><linearGradient id="southwest-airlines_svg__b" x1="62.253" x2="444.319" y1="1052.832" y2="1320.359" gradientTransform="translate(0 -1011)" gradientUnits="userSpaceOnUse"><stop offset=".3" style="stop-color:#e61c23"/><stop offset=".8" style="stop-color:#c3161c"/></linearGradient><path d="M487.9 226.5C380.7 138.9 317.3 93 247.2 51.4 227.6 40.5 190.4 23 148.8 23c-39.4 0-74.4 13.1-98.5 37.2C35 75.5 24 95.2 19.7 119.3c54.7 39.4 205.7 146.6 356.6 266.9 50.4-48.1 91.9-102.8 111.6-159.7" style="fill:url(#southwest-airlines_svg__b)"/><linearGradient id="southwest-airlines_svg__c" x1="298.413" x2="516.86" y1="1019.244" y2="1172.201" gradientTransform="translate(0 -1011)" gradientUnits="userSpaceOnUse"><stop offset="0" style="stop-color:#fdbc11"/><stop offset=".25" style="stop-color:#fcb415"/><stop offset=".8" style="stop-color:#f89e1c"/></linearGradient><path d="M459.5 60.2C435.4 36.1 402.6 23 363.2 23c-41.6 0-72.2 13.1-96.3 26.3 41.6 24.1 131.3 74.4 225.4 144.4 2.2-8.8 2.2-19.7 2.2-28.4 2.2-43.9-10.9-81.1-35-105.1" style="fill:url(#southwest-airlines_svg__c)"/></svg>