<svg xmlns="http://www.w3.org/2000/svg" xml:space="preserve" viewBox="0 0 512 512"><path d="M408.6 0H103.4C46.3 0 0 46.3 0 103.4v305.2C0 465.7 46.3 512 103.4 512h305.2c57.1 0 103.4-46.3 103.4-103.4V103.4C512 46.3 465.7 0 408.6 0m-.7 338.6c0 23.2-18.8 42.1-42.1 42.1H146.1c-23.2 0-42.1-18.8-42.1-42.1V173.4c0-23.2 18.8-42.1 42.1-42.1h219.8c23.2 0 42.1 18.8 42.1 42.1v165.2zm-43.8-173.3H147.9c-5.5 0-10 4.5-10 10v161.4c0 5.5 4.5 10 10 10h216.2c5.5 0 10-4.5 10-10V175.3c0-5.5-4.5-10-10-10M174.8 272.8c-9.3 0-16.8-7.5-16.8-16.8s7.5-16.8 16.8-16.8 16.8 7.5 16.8 16.8-7.5 16.8-16.8 16.8" style="fill:#fff"/></svg>