<?xml version="1.0" encoding="utf-8"?>
<!-- Generator: Adobe Illustrator 28.2.0, SVG Export Plug-In . SVG Version: 6.00 Build 0)  -->
<svg version="1.1" id="Layer_1" xmlns="http://www.w3.org/2000/svg" xmlns:xlink="http://www.w3.org/1999/xlink" x="0px" y="0px"
	 viewBox="0 0 512 512" style="enable-background:new 0 0 512 512;" xml:space="preserve">
<style type="text/css">
	.st0{fill:#FF7B00;}
	.st1{fill:#FFBC51;}
	.st2{fill:#FFE0B0;}
	.st3{fill:#CB651A;}
	.st4{fill:#1B8812;}
</style>
<path class="st0" d="M126,149.7C240.3,13.5,461,95.2,458.9,273c-0.8,114-109.5,203.1-221.4,181.5C96.9,429.6,34.6,259.3,126,149.7
	L126,149.7z"/>
<path class="st1" d="M269.9,412c0-2.1,0.3-4.2,0.4-6.2c-0.1-0.3-0.2-0.5-0.2-0.7c-0.5-2-0.9-3.9-1.5-5.8c-0.4-1.6-0.8-3.3-1.2-4.9
	c-0.1-0.3-0.1-0.6-0.2-0.9c-0.2-0.2-0.4-0.5-0.5-0.7c0-0.6-0.1-1.2-0.2-1.8v-0.1c-0.3-0.7-0.6-1.3-0.8-2c-0.1-0.5-0.4-1-0.5-1.5
	c-4.2-7.8-11.9-13.3-18.8-18.7c-1.6-1.1-3.8-2.2-6.3-3.3c-3.2-1.6-6.8-2.8-10.4-3.3c-6.7-1.6-14-2.3-19.9-1.3
	c-2.6-0.6-5.3-1-7.9-1.6c-0.4-0.4-0.9-0.8-1.5-1.2c-0.1,0-0.4-0.1-0.5-0.1c-0.6-0.1-1.2-0.2-1.8-0.3c-0.9-0.1-1.7-0.3-2.5-0.4
	c-2.3-0.5-4.5-1.2-6.6-2c-0.5-0.2-1-0.4-1.6-0.6c-0.4-0.1-0.7-0.3-1.1-0.4c-0.9-0.4-1.9-0.8-2.7-1.2c-0.2,0-0.2,0-0.3-0.1
	c-0.2,0.1-0.5,0-0.6,0c-1.8-0.3-3.4-0.7-5.2-1.1c-1.2-0.3-2.4-0.5-3.6-0.9c-2-0.5-4-1.4-6-2.3c-2.5-1.2-4.9-2.6-7.2-3.9
	c-1.6-0.9-3.3-1.9-4.9-2.8c0,0,0-0.1-0.1-0.1c0,0,0,0,0,0c-0.4-0.3-0.9-0.6-1.4-0.9c-1.1-0.7-2.2-1.4-3.3-2.1c-0.5-0.4-1-0.6-1.5-1
	c-0.7-0.5-1.4-1-2.2-1.6c-0.9-0.7-1.9-1.4-2.9-2.1c-0.4-0.2-0.7-0.5-1.1-0.8c-1.6-1.4-3.3-2.7-5-4.1c-0.5-0.4-0.9-0.8-1.3-1.2
	c-1-0.8-1.9-1.8-2.8-2.6c-0.7-0.6-1.5-1.3-2.2-2c0,0,0-0.1-0.1-0.1c-1.5-1-2.9-2.1-4.3-3.4c-1.2-1.1-2.3-2.1-3.4-3.3
	c-1.1-1.1-2.1-2.3-3.2-3.5c-1.3-1.3-2.6-2.5-4-3.8c-2-1.8-3.8-3.8-5.3-6c-1.1-1.7-2.1-3.3-3-5.1c-0.9-1.5-1.6-3.1-2.4-4.6
	c-0.8-1.5-1.6-2.9-2.5-4.3c-0.4-0.6-0.7-1.2-1.1-1.8c-0.2-0.3-0.4-0.7-0.6-1c0,0,0,0,0,0c-0.5-0.9-1.1-1.7-1.6-2.6
	c-0.9-1.6-1.8-3.3-2.7-5c-0.7-1.4-1.4-2.8-2-4.2c-0.6-0.8-1.1-1.7-1.4-2.8c-0.1-0.2-0.1-0.5-0.1-0.8c0,0-0.1,0-0.1-0.1
	c-1.6-2.4-3.5-4.8-5.5-7c-0.2-0.2-0.4-0.4-0.6-0.6c-1.1-1.1-2.3-2.1-3.6-3.1c-0.3-0.2-0.6-0.5-1-0.8c0,0,0-0.1-0.1-0.1
	c-2.2-0.9-4.3-1.9-6.5-2.8c0,0,0,0.1,0.1,0.1c-1.3-0.5-2.5-1.1-3.8-1.5c-0.2,0-0.5,0-0.6-0.1c-0.6,0-1.2,0-1.8,0
	c-2,0-3.9-0.2-5.9-0.3c-0.8,0-1.5,0-2.3-0.1c-0.2,0-0.5,0-0.7,0.1c-0.9-0.1-1.7-0.2-2.6-0.3c-0.8-0.2-1.8-0.3-2.6-0.4
	c-0.9,0.1-1.9,0.3-2.8,0.4c-0.5,0.1-1,0.1-1.5,0.2c0,0,0,0,0,0c-0.7,0-1.4,0-2.1,0.1c0,0-0.1,0.1-0.1,0.1c-0.1,0-0.2,0-0.3,0
	c-0.5,0-1,0.1-1.6,0.1c-0.8,0-1.7,0-2.5-0.4c-0.2,0-0.2,0-0.3-0.1c-0.6,0.2-1.2,0.5-1.8,0.7c-5.5,1.4-10.7,3.9-14.6,7.4
	c-6.3,4.1-12,9.2-16.5,15.2c-0.2,0.4-0.4,0.9-0.5,1.3c-0.1,0.1-0.2,0.2-0.3,0.3c-0.2,0.2-0.3,0.5-0.4,0.8c-0.7,1.6-1.3,3.2-1.9,4.8
	c-0.4,1-0.7,1.9-1.1,2.9c-0.2,0.9-0.5,1.9-0.8,2.7c-0.5,1.6-1,3.3-1.6,4.9c-0.4,1-0.7,2.1-1.1,3.2c-0.2,0.6-0.5,1.2-0.6,1.8
	c-0.2,1-0.5,2-0.8,3c-0.2,0.3-0.2,0.5-0.3,0.9c-0.1,0.9-0.1,1.7-0.2,2.5c0,0.1,0,0.1,0.1,0.2c0,0.5-0.1,0.9-0.1,1.4
	c-0.1,0.4-0.2,0.7-0.3,1.1c0,0.5,0,1-0.1,1.4c-0.4,3.8-0.6,7.6-1,11.4c-0.2,1.5-0.3,3.2-0.4,4.7c0,0.8,0,1.5-0.1,2.3
	c0,0.9,0,1.9-0.1,2.7c0,0.7-0.1,1.4-0.1,2.2c0.1,1.1,0.1,2.1,0.1,3.2c0,0.7,0,1.4,0.1,2c0,0.2,0,0.3,0,0.4c0,0.1,0.1,0.2,0.1,0.3
	c0,0.7,0,1.5,0.1,2.2c0.2,2.2,0.4,4.5,0.6,6.7c0.1,0.8,0.2,1.7,0.2,2.5c0.1,0.6,0.1,1.2,0.2,1.7c0,0,0,0,0,0
	c0.1,0.9,0.2,1.8,0.2,2.7c0,0,0,0,0,0.1c0,0.1,0,0.1,0,0.1v0.1v0.1c0,0.2,0.1,0.5,0.1,0.7c1.3,6.3,2.7,12.7,4.4,18.9
	c0.6,1.3,1.2,2.7,1.8,4.1c0.4,0.8,0.7,1.6,1.1,2.4c0.1,0.2,0.1,0.5,0.2,0.7c0.2,0.2,0.3,0.5,0.4,0.8c1.5,3.5,3.1,6.8,4.6,10.2
	c1.6,3.3,3.1,6.6,4.6,9.9s3.1,6.5,4.6,9.8c0.4,1,0.8,2,1.3,2.9c0.5,0.6,0.9,1.2,1.3,1.8c0.1,0.2,0.3,0.4,0.4,0.6
	c0.9,1.1,1.6,2.2,2.4,3.3c0.1,0.1,0.3,0.1,0.4,0.2c0.8,1.1,1.6,2.1,2.4,3.2c1,1.3,2,2.6,3,3.9c0.5,0.7,1,1.5,1.6,2.2
	c0.1,0,0.1,0.1,0.1,0.1c0.2,0.2,0.5,0.3,0.7,0.5c2.2,3.1,4.6,6.1,7.5,8.6c4.5,4.6,10,7.8,14.8,12c5.6,6.3,12.8,10.5,20.5,13.8
	c4.3,2.7,8.8,4.9,13.4,6.6c1.1,0.7,2.5,1.3,4,1.9c7.7,3.3,15.7,5.5,23.9,6.5c8.6,2.4,17.4,4.4,26.3,4.8c0.1,0,0.4,0,0.5-0.1
	c0.4-0.2,0.9-0.2,1.4-0.3c0.9-0.2,1.8-0.3,2.7-0.4c0.2,0,0.3,0,0.4,0c0,0,0,0,0.1,0c0,0,0.1,0,0.1,0c0.2,0,0.5,0,0.7-0.1
	c0.2,0,0.3,0,0.5,0c0,0,0,0,0,0s0,0,0,0c0,0,0,0,0.1,0c0.4,0,0.6-0.1,1-0.1c1.5-0.2,3.1-0.2,4.6-0.3c0.8,0,1.5-0.1,2.3-0.1
	c0.8,0,1.6,0,2.3-0.1c0.1,0,0.2,0,0.3,0c1.8-0.1,3.5-0.1,5.3-0.2c2.3-0.1,4.6-0.1,6.9-0.2c2.1-0.1,4.1-0.2,6.2-0.3
	c1.4-0.1,2.9-0.2,4.3-0.3c1-0.2,2.1-0.3,3.2-0.4c0,0,0,0,0.1,0c2.3-0.4,4.7-0.9,6.9-1.5c0.3-0.1,0.5-0.1,0.8-0.3
	c1.3-0.4,2.6-0.6,3.9-1c0.6-0.2,1.3-0.4,2-0.6c2.5-0.7,4.9-1.7,7.4-2.5c0,0,0,0,0,0.1c2.2-0.9,4.4-1.8,6.6-2.6
	c0.3-0.1,0.6-0.3,0.9-0.4c0.7-0.3,1.4-0.6,2.2-1c0.9-0.5,1.9-0.9,2.9-1.3c0.2-0.1,0.5-0.3,0.8-0.4h0.1c0,0,0,0.1-0.1,0.1
	c1.4-0.7,2.9-1.5,4.3-2.2c0-0.1,0.1-0.1,0.1-0.1c0.8-0.5,1.5-0.9,2.3-1.3c4.2-2.7,8.4-5.3,12.3-8.3c1.2-0.9,2.3-1.9,3.4-3
	c0.9-1,1.9-1.9,2.7-2.8c0.2-0.2,0.3-0.3,0.4-0.4c0.1-0.1,0.1-0.2,0.2-0.3c0.1-0.1,0.2-0.1,0.3-0.2c0.7-0.7,1.4-1.4,2.1-2.2
	c0.8-0.8,1.6-1.7,2.4-2.5c0.1,0,0.2,0,0.4-0.1c0.2-0.2,0.3-0.3,0.4-0.4c0.5-0.5,0.9-1,1.4-1.5c0.1-0.1,0.1-0.1,0.2-0.2
	c0-0.2,0-0.3,0.1-0.4c0.8-1.6,1.8-3.3,2.6-5c0.8-1.4,1.5-2.8,2.3-4.3c0.5-0.8,0.9-1.5,1.3-2.3c0.3-0.6,0.7-1.2,1.1-1.8
	c0.3-0.3,0.5-0.6,0.8-0.9c0.2-0.7,0.4-1.4,0.6-2c0.9-2.8,1.7-5.5,2.5-8.3c0-0.2,0-0.5,0.1-0.7c0,0,0,0,0-0.1
	c0.1-0.8,0.1-1.7,0.1-2.5C269.9,416.5,269.8,414.2,269.9,412z"/>
<path class="st2" d="M272.5,411.3c1-4,0.1-8-0.7-11.9c0-0.3-0.2-0.6-0.5-0.8c-0.3-1.8-0.7-3.4-1.3-5.1c-0.1-0.4-0.2-0.9-0.3-1.3
	c0.1-0.6-0.2-1.2-0.7-1.5c-0.5-2-1.4-3.9-2.6-5.6c0-0.6-0.5-1.2-1-1.3c-0.1-0.1-0.2-0.2-0.3-0.3c0-0.1-0.1-0.2-0.1-0.4
	c-0.3-0.6-0.6-1.2-0.9-1.8c-2.2-4.6-5.7-7.2-9.5-10.1c-0.5-0.4-1-0.9-1.4-1.4c-0.2,0-0.3-0.1-0.5-0.1c-0.1-0.1-0.1-0.1-0.2-0.2
	c-0.2-0.1-0.5-0.2-0.7-0.3c-0.4-0.1-0.7-0.3-1.1-0.4c-0.2-0.1-0.5-0.2-0.7-0.3c0,0,0-0.1,0-0.1c-0.4-0.3-0.9-0.5-1.4-0.7
	c-0.7-0.4-1.4-0.7-2-1.1c-0.4-0.2-0.7-0.4-1-0.6c-0.2-0.1-0.5-0.3-0.7-0.4c-0.1,0-0.1,0-0.2-0.1c-0.1-0.1-0.3-0.1-0.4-0.2
	c-0.1-0.1-0.3-0.3-0.4-0.4c-1.2-0.3-2.2-0.6-2.7-0.8c-4.6-1.5-9.3-2.4-14-3.2c-0.4-0.1-0.9-0.2-1.3-0.2c-0.4-0.4-1-0.6-1.7-0.7
	c-2.4-0.1-4.8,0-7.3,0c-0.7-0.1-1.4-0.2-2.1-0.4c-0.8-0.2-1.5,0-2.1,0.3c-0.5,0-1.1-0.1-1.6-0.1c-0.3-0.3-0.7-0.5-1.2-0.7
	c-3.1-0.5-5.7-2.5-8.7-3.2c-6.2-0.7-12.2-2.8-18.5-3.1c-3.5-0.2-5.5-3.5-8.8-4.3c-3-1-5.9-1.9-8.4-3.9c-1.3-0.8-2.6-1.3-4.1-1.6
	c-1-0.9-2.2-1.7-3.4-2.5c-4.5-2.4-8.5-5-12.6-8.1c-4.2-2.2-7.4-5.5-10.8-8.8c-2.8-2.1-5.5-4.3-8.4-6.1c-3.2-4.1-6.3-8.3-9.9-12.2
	c-3.5-3.5-6.3-7.8-9.7-11.4c-0.2-0.2-0.3-0.3-0.5-0.4c-1-3.4-3.8-5.9-4.6-9.3c-0.2-0.6-0.5-1-0.9-1.3c-0.3-0.8-0.5-1.6-0.8-2.4
	c-0.6-1.8-1.2-3.7-2.5-5.2c-1-0.9-1.7-2.1-2.3-3.4c-0.5-0.8-0.9-1.4-1.2-2.2c0-0.1-0.1-0.1-0.1-0.2c-0.1-0.2-0.1-0.4-0.3-0.6
	c-0.2-0.4-0.4-0.9-0.6-1.3c-0.9-1.9-2.3-3.5-3.9-4.7c-0.1-0.1-0.1-0.1-0.2-0.1c-0.2-0.1-0.3-0.3-0.5-0.4c-0.2-0.3-0.4-0.6-0.7-0.9
	c-0.1-0.2-0.1-0.3-0.3-0.5c-0.5-0.6-1.2-1-1.8-1.3c-0.4-0.3-0.9-0.5-1.3-0.8c-0.1-0.1-0.2-0.1-0.3-0.2c-1.5-1.5-3.1-2.9-5.1-3.6
	c-0.3-0.1-0.7-0.2-1-0.4c-0.2-0.2-0.5-0.3-0.8-0.4c-0.1,0-0.2-0.1-0.3-0.1c-1.4-0.8-2.6-1.4-4.2-1.3c-0.1,0-0.1,0-0.2,0
	c-0.2-0.2-0.4-0.4-0.6-0.5c-1.7-1.1-3.7-0.8-5.6-0.7c-1.4-0.2-2.8-0.1-4.1-0.4c-0.8-0.3-1.7-0.8-2.6-1c-2.6-0.4-5.2,1.1-7.9,0.7
	c-1.4-0.4-2.9,0.2-4.3,0.6c-2.9,1-5.9,2-8.8,3.1c-2.1,1-12.7,5-13.5,8.4c-3.5,2.6-5.8,6.4-8.6,9.7c-0.7,0.8-1.1,1.6-1.7,2.4
	c-0.7,0.5-1.3,1.4-1.7,2.1c-0.3,0.5-0.5,1-0.7,1.5c-0.1,0.1-0.1,0.3-0.2,0.4c-0.2,0.6-0.4,1.2-0.7,1.8c-0.7,1.1-1.6,2-2,3.2
	c-0.5,1.3-0.8,2.8-1.6,4.1c-1.7,3.1-2.3,6.7-3.4,10.1c-0.1,0.5-0.2,1-0.4,1.5c-0.4,1.5-0.5,3.2-0.7,4.7c-0.6,2.6-1.1,5.2-1.3,7.9
	c0.1,1.8-0.2,3.5-0.3,5.3c-0.3,4.1-1,8.1-1.1,12.2c0,0.3,0,0.7-0.1,1c-0.2,1.3-0.2,2.6-0.2,3.8c-0.1,1.1-0.1,2.3,0,3.5
	c0.2,2.3,0.3,4.5,0.6,6.8c-0.2,0.5-0.3,1-0.2,1.7c0.6,7.3,1.5,14.6,3.4,21.7c-0.1,0.5-0.1,1,0,1.6c2.2,7.1,4.2,14.1,6.2,21.3
	c1.4,3.1,2.6,6.3,3.9,9.4c1.8,3.9,4.5,7.2,6.9,10.6c3.8,4.4,5.2,10.3,8.8,14.6c6.6,5.1,10.7,12.5,16.3,18.5c2.3,2.3,4.9,4.2,7.6,6.1
	c2.5,1.9,4.3,4.4,6.8,6.2c3.4,2.3,7.3,3.9,10.2,6.9c4,3.4,8.9,5.4,13.5,7.6c2.4,1.7,4.8,3.8,7.7,4.6c2.1,0.7,4.3,0.8,6.3,1.8
	c3.2,2.5,7.2,3.7,11.1,4.5c1.3,0.1,2.7,0.6,4,1c0.1,0.1,0.1,0.3,0.2,0.4c0.4,0.6,1.1,0.7,1.7,0.8c0.3-0.1,0.6-0.2,0.8-0.5
	c5.9,1.8,12.1,3.2,18.3,3.6c0.2,0,0.4,0,0.5,0.1c0.1,0,0.2,0,0.2,0c6.2,0.7,12.6,2,18.6,0.1c0.8,0,1.5,0,2.3,0
	c2.4,0.1,5.1,0,8.1-0.1c0.7,0,1.5-0.1,2.2-0.2c10.1-0.8,21.2-2.7,24.7-3.4c2-0.4,3.9-0.8,5.8-1.2c2-0.5,4-1,5.9-1.5
	c9.5-2.4,18.8-5.7,28.1-9.3c1.1-0.4,1.9-1.1,2.3-2c0.8-0.4,1.5-0.9,2.3-1.3c0.3-0.2,0.5-0.4,0.7-0.7c0.5-0.3,1-0.6,1.4-0.9
	c2.7-2.2,6-3.5,8.8-5.5c0.6-0.2,1.2-0.7,1.6-1.3c0.1-0.1,0.3-0.2,0.4-0.4c0-0.1,0.1-0.1,0.1-0.2c1.5-1.3,3-2.6,4.4-3.9
	c0,0,0.1-0.1,0.1-0.1c1.9-0.7,3.4-2.8,4.5-4.3c0.2-0.4,0.3-0.7,0.3-1.1c0.7-0.4,1.4-1.1,1.8-1.8c0.5-0.7,0.6-1.4,0.5-2.1
	c0.1-0.2,0.2-0.4,0.2-0.6c0.2-0.5,0.5-1.1,0.7-1.6c0.3-0.3,0.4-0.6,0.5-1c0.1-0.3,0.3-0.6,0.4-0.9c0.1-0.3,0.3-0.5,0.4-0.8
	c0,0,0.1-0.1,0.1-0.1c0.5-0.3,0.9-0.8,1.3-1.4c0.2-0.1,0.4-0.3,0.5-0.6c1-1.8,1.8-3.7,2.5-5.6c0.2-0.5,0.4-1,0.6-1.6
	c0.9-1.6,1.8-3.2,2.3-5c0.1-0.3,0.2-0.7,0.2-1c0.1-0.1,0.1-0.3,0.2-0.4c0-0.1,0.1-0.2,0.1-0.3c0.3-0.3,0.6-0.7,0.6-1.1
	c0.1-1.5,0.1-3,0.2-4.4c0.1-0.5,0.2-1,0.2-1.6c0.3-1,0.6-2,1-2.9c1-0.4,1-1.9,0.3-2.7C272.3,412.3,272.4,411.7,272.5,411.3z
	 M243.3,456.3c-2.2,1.5-4.4,2.8-6.7,4c-1.1-1.5-2.2-3-3.6-4.3c-1.3-1.2-2.7-2.1-4-3.4c-1.5-1.6-2.6-3.3-3.9-5c-2-3-4.6-5.5-7.3-7.9
	c-3.3-2.8-7.3-5.6-7.9-10.2c-0.1-0.5-0.3-0.8-0.7-1c-0.3-1-1-2-1.4-3c-0.2-0.4-0.5-0.7-0.9-0.8c-0.4-0.9-1-1.7-1.5-2.6
	c-0.2-0.2-0.3-0.5-0.4-0.8c0.1-0.4,0-0.8-0.4-1.1c-0.2-0.2-0.4-0.4-0.5-0.6c-0.1-0.1-0.2-0.2-0.3-0.4c-0.8-1.1-1.3-2.3-1.9-3.5
	c-0.4-0.7-1.1-0.9-1.7-0.8c-2.6-5.1-4.4-10.6-7.1-15.6c-0.2-0.4-0.3-0.7-0.5-1c4.8,7.7,6.4,7,13.4,12.3c1.2,1.4,2.6,2.7,3.7,4.2
	c1.4,2.9,2.7,6,5.4,7.9c3.2,2.1,6.4,4.1,9.3,6.5c1.9,2.6,3.2,5.7,6.1,7.2c11.3,4,5.4,9,14.5,15.3c0.8,0.6,1.6,0.9,2.4,0.9
	c-1,1-2.2,1.8-3.2,2.8C243.9,455.7,243.6,455.9,243.3,456.3z M145.8,431c0,1.6-0.5,3.3-1.1,4.8c-1,2.4-2.8,4.3-3.9,6.5
	c-0.8,2.1-1.2,4.4-1.9,6.6c-1.4-6.1-3.5-12.1-4.2-18c-0.5-5,0.4-9.9,1.3-14.8c0.4-6.7,2.6-13.1,3-19.9c0.2-1.8,0.8-3.5,1.5-5.1
	c0.2,1.9,0.6,3.9,1,6.3c0.5,4.6,0.7,9.3,1.8,13.9c0.7,2.3,1.5,4.4,2.3,6.7c-0.2,0.3-0.2,0.5-0.2,0.8c0.1,1.1,0.1,2.4,0.2,3.6
	c0.1,0.5,0.2,1.3,0.3,2C145.7,426.6,145.7,428.8,145.8,431z M124.7,475.2c-0.3-0.1-0.6-0.1-0.9-0.2c-3.1-0.8-6.2-1.4-8.9-3.1
	c-1.1-0.6-2.3-1-3.5-1.4c-0.4-1.6-0.7-3.3-0.8-5c-0.2-2.5,0.2-4.8,0.4-7.5c0.1-2.1,0.2-4.3,0.6-6.4c0.5-1.9,1.2-3.8,1.7-5.7
	c1-0.7,1-2.6,1.1-3.8c0.3-1.3,0.7-2.7,1.2-4c0.8-2.8,0.8-5.8,1.6-8.7c0.2-0.7-0.2-1.3-0.7-1.6c0-0.3,0.1-0.7,0.1-1
	c0.1-2.7,0-5.4,0.1-8.1c0-2.7-0.2-5.5,0.4-8.1c0.3-1,0.8-1.9,1.3-2.8c0.1,3,0.3,6,0.7,8.9c0.5,3.1,1.3,6.1,1.8,9.2
	c0.3,3.7,0.2,7.5,0.8,11.1c0,0.3,0.2,0.6,0.5,0.8c-0.3,2.8-0.6,5.7-1.1,8.5c-0.2,4.3,0.9,8.7,2.3,12.8c1.4,4.1,2,8.9,5.5,11.7
	c-0.8,1.8-1.4,3.5-1.3,5C126.6,475.6,125.7,475.4,124.7,475.2z M37.2,384.7c-0.3-1.2-0.3-2.3-0.3-3.5c0.1-1.7,0.3-3.5,0.5-5.3
	c0.2-0.7,0.1-1.5-0.3-2.1c0.2-0.1,0.3-0.2,0.5-0.3c2.4-1.3,4.7-2.8,7.2-3.6c0.7-0.2,1.3-0.2,2-0.3c1-0.2,1.9-0.2,2.7-0.6
	c1.6,1.3,3.4,2.4,5.4,3c2.3,0.7,4.5,1.7,6.9,2.1c0.4,0,0.9,0,1.7-0.1c0,0,0.1,0,0.1,0c-0.8,0.9-1.5,1.8-2.3,2.6
	c-1.3,1.7-2.2,3.6-3.5,5.3c-1.1,1.4-2.3,2.8-3.5,4.1c-0.1,0.1-0.2,0.3-0.3,0.4c-0.3,0.1-0.6,0.2-0.8,0.3c-4.2,0.9-7.7,3.3-9.2,7.4
	c-1.6,2-6.4,4.2-10.9,6.6c0.1-0.6,0.2-1.3,0.4-1.8c0.8-3.7,3.4-6.6,4.3-10.2C38.1,387.3,37.8,386,37.2,384.7z M17.2,384.4
	c-0.1-0.1-0.1-0.3-0.2-0.4c0-0.2,0.1-0.3,0.1-0.5c0.2-1-0.3-2-0.8-2.8c-1.8-4.8-2.8-9.8-3.8-14.7c7.4,0.3,10.3,1,18.3-2.7
	c1-0.2,1.9-0.4,2.9-0.5c0.2,0.1,0.5,0.3,0.8,0.3c3.1,0.1,6.3,0.5,9.3,1.2c1.2,0.2,2.2,1,2.9,2.1c0,0,0,0,0,0c-3,0.4-5.7,1.6-8.3,3.1
	c-3.5,1.9-6.8,4.2-10,6.7c-1.9,1.6-2.9,4-5,5.5c-1.8,1.4-3.7,2.7-5.6,4.1C17.6,385.3,17.4,384.9,17.2,384.4z M71.3,255.8
	c0.5,0.4,1,0.5,1.2,0.4c0.2,0,0.3-0.1,0.5-0.2c0,0,0,0,0,0c2,1.1,4.1,2,6.2,2.8c0.6,1.1,1.8,1.7,2.9,2.3c0.6,0.4,1.1,0.7,1.7,1
	c0.1,0.1,0.2,0.1,0.3,0.2c0.2,0.2,0.4,0.4,0.6,0.7c0.2,0.6,0.7,1.2,1.3,1.5c0.1,0.1,0.2,0.2,0.3,0.3c0.2,0.5,0.6,1,0.9,1.4
	c1.7,2.4,3.1,5,4.3,7.6c0,0,0,0,0,0c0.6,1.6,1.2,3.3,1.8,5c0.8,2.1,1.6,4.2,2.5,6.3c0,0.4,0.1,0.8,0.3,1.3c0,0.2,0.1,0.3,0.1,0.5
	c-0.1,0.2-0.2,0.5-0.2,0.7c-1.9-1.8-3.7-3.7-5.5-5.7c-0.8-0.8-1.6-1.6-2.7-2.2c-1.6-1-3.4-1.2-4.8-2.3c-2.8-2.3-5.1-5.1-7.8-7.5
	c-2-1.6-4-3.4-6.5-4.3c-0.3-0.1-0.6,0-0.8,0.1c-1.6-1.7-3.3-3.4-4.7-5.3c-1.1-1.6-2.1-3.3-3.2-5c1.8,0,3.7-0.3,5.6,0
	c1.9,0.6,3.7,0.3,5.6,0.3C71.2,255.7,71.3,255.8,71.3,255.8z M262.4,394.2c-5-2-10.8-3.3-14-7.9c-1.9-2.6-4.4-4.5-6.4-6.9
	c-1.5-2.1-3.1-4.1-5.4-5.4c-1.5-0.8-2.8-1.5-4.2-2.6c-1.4-1.1-2.6-2.5-4.1-3.6c-0.4-0.3-0.9-0.6-1.3-0.8c0,0,0.1,0,0.1,0
	c0.5,0.1,0.9,0,1.3,0c0.2,0,0.3-0.1,0.4-0.2c1.7,0.3,3.5,0.5,5.2,1c0.3,0.1,0.5,0,0.7-0.1c0.3-0.1,0.5-0.2,0.7-0.4
	c0.2,0.1,0.5,0.1,0.7,0.2c3.6,1,7.3,1.5,10.7,3.3c1.5,0.9,2.5,2.3,4,3.4c0.3,0.2,0.6,0.3,1,0.3c1.9,1.8,4,3.6,6,5.4
	c0.1,0.1,0.3,0.3,0.5,0.4c0,0,0,0.1,0.1,0.1c0,0.4,0.2,0.8,0.6,1.1c1,1.8,2.4,3.4,3.2,5.4c0.1,0.2,0.2,0.3,0.3,0.4
	c0,0.5,0.2,1,0.5,1.4c0.6,2,1.4,4,2.1,6c-0.4-0.1-0.7-0.1-1,0C263.4,394.6,262.9,394.4,262.4,394.2z M251.7,449
	c0.2-1.2-0.2-2.4-1.3-3.5c-1.1-0.9-2.2-1.8-3.3-2.9c-1-2.8-2-5.8-4.1-8.1c-2.4-2.6-5.7-4-8.8-5.4c-2.2-2.9-3.9-6.3-7.2-8.1
	c-2.3-1.6-4.6-3.4-7.1-4.8c-2.4-2.4-2.9-6.3-5.7-8.6c-1.7-2.3-3.9-4-6.3-5.6c1.2,0.5,2.5,0.9,3.7,1.3c1.6,0.7,3.2,1.7,4.8,2.5
	c1.8,0.8,3.9,1.1,5.7,1.9c0.7,0.3,1.1,0.8,1.5,1.4c1.5,2.2,3.4,4.3,6.1,5.1c1.6,0.5,3.3,0.7,4.8,1.3c1.8,0.8,3.2,2.2,5.2,2.5
	c1.5,0.3,2.9,0.3,4.4,0.7c1.3,0.4,2.5,1.3,3.8,1.8c1.9,1,4.2,0.7,6,1.8c1.2,0.6,1.5,2.1,2.3,3.2c0.8,1.1,2,1.7,3.3,1.9
	c1.7,0.4,3.4,0.7,5.2,1c0.1,0,0.2,0,0.3,0c0,0,0,0,0,0c-0.6,0.8-1.6,1.7-1,2.7c0,0.1-0.1,0.3-0.1,0.4c-0.3,0.2-0.6,0.4-0.8,0.8
	c-0.7,0.2-1.2,1-1.4,1.7c-2,3.2-3.9,6.5-5.7,9.8c0,0.1-0.1,0.2-0.1,0.2c-0.5,0.2-0.9,0.5-1.3,1c-0.2,0.3-0.5,0.5-0.7,0.8
	c-0.4,0.5-0.6,1.1-0.7,1.7C252.6,447.8,252.1,448.4,251.7,449z M267.2,401.4c0.2,2.3,0.4,4.6,0.6,6.8c0.1,0.6,0.1,1.1,0.1,1.7
	c-0.1,0.2-0.2,0.4-0.2,0.6c-0.2,2.1-0.1,4.2-0.1,6.2c0,0.6,0,1.2,0,1.7c-0.2,1.1-0.4,2.2-0.6,3.3c-0.3,1.3-0.6,2.5-1,3.8
	c-0.2-0.1-0.3-0.2-0.5-0.2c-2.2-0.4-4.5-0.5-6.5-1.4c-1-1.1-1.2-2.7-2.5-3.6c-2-1.8-4.7-1.8-7.2-2.6c-1.3-0.5-2.5-1.4-3.9-1.8
	c-1.8-0.6-3.7-0.6-5.5-1c-1.2-0.3-2-1.1-3.1-1.6c-1.8-1-3.9-1.2-5.9-1.8c-3.2-0.7-4.2-4.2-6.7-6c-2-1.2-4.4-1.6-6.6-2.4
	c-1.5-0.8-3-1.8-4.6-2.5c-1.7-0.8-3.5-1.2-5.3-2c-2-1-3.9-2.2-5.9-3.3c-0.7-0.4-1.5-0.9-2.2-1.1c-1.6-2.2-3.3-4.3-5.2-6.1
	c0.1,0,0.2,0.1,0.2,0.1c1.1,0.2,2.3,0.1,3.4,0.5c3.6,1.1,7.1,2.3,11,1.9c2.3-0.1,4.3,1,6.5,1.1c1.4,0,2.8,0,4.1,0.4
	c2.3,0.7,3.8,2.8,6.3,3.2c0.3,0,0.5,0,0.8-0.1c0,0,0,0,0,0c1.6,0.8,3.4,1.3,5.2,1.7c2.4,1.3,5,2,7.6,3.1c2,0.7,3.6,1.9,5.6,2.5
	c1.9,0.4,3.7,0.5,5.5,0.6c2.5,0.2,4.8,0.6,7.3,0.1c1.2-0.2,2.4-0.5,3.6-0.8C263.4,401.9,265.2,401.5,267.2,401.4z M230.5,464.3
	c-0.8-0.3-1.6-0.3-2.4,0c-1.4,0.5-2.8,1-4.2,1.5c-0.9,0-1.8,0.2-2.6,0.7c0-0.1-0.1-0.2-0.1-0.3c-1-1.4-2.4-2.5-3.5-3.9
	c-0.7-1.2-1.4-2.5-2.1-3.7c0.3-0.4,0.4-0.9,0.2-1.4c-1.2-3.7-2.6-7.4-4.4-10.9c0-0.9-0.5-1.4-1.1-1.6c-0.2-0.4-0.3-0.7-0.5-1.1
	c-1.2-2.4-2-4.8-2.2-7.4c-0.1-1.3-0.1-2.7-0.2-4.1c1.8,5.4,7.4,8.6,11.2,12.5c2.9,2.8,4.9,6.4,7.5,9.4c1.6,1.9,3.7,3.1,5.5,4.9
	c0.8,1,1.5,2,2.3,3c-0.9,0.7-1.8,1.4-2.9,2C230.8,464.1,230.7,464.2,230.5,464.3z M210.8,470.2c-2.5,0.9-4.9,1.7-7.4,2.4
	c-1.2,0.3-2.3,0.6-3.5,0.9c-0.5-0.1-1.1-0.1-1.7,0c-0.4,0.1-0.7,0.2-1.1,0.3c1.1-2.4,1.4-5.8,1.9-8.1c0.6-5.2,0.5-10.5-1.5-15.3
	c-2.4-5-3.9-10.3-5.8-15.5c-1-2.4-2.7-4.4-4.2-6.5c-0.8-2.9-1.2-5.9-2.8-8.4c-1.6-2.7-4-4.8-5-7.7c-1.3-3.8-3-7.4-5-10.8
	c0.2,0.2,0.4,0.5,0.5,0.7c1.8,2.3,3.9,4.2,5.7,6.4c2.1,2.8,3.3,6.2,5.7,8.7c2.6,3.1,6.2,5.2,8.3,8.7c2.4,4.1,3.4,8.7,5.3,13
	c1.6,3.5,4.3,6.1,6.4,9.2c0.6,0.9,1.2,1.9,1.7,2.8c0.4,1.1,0.8,2.2,1.2,3.3c0.2,0.5,0.6,0.8,1.1,1c1.6,3.1,3.1,6.3,5,9.2
	c0.9,1.1,1.9,2.1,2.9,3.2c-2.2,0.8-4.3,1.6-6.5,2.3C211.6,470,211.2,470.1,210.8,470.2z M136.5,378.2c-0.2,5.4-4.1,9.8-5,15.1
	c-0.5,2.6-0.5,5.2-0.9,7.9c-0.5,2.7-1.6,5.4-1.8,8.2c-0.1,1.5-0.2,3-0.5,4.5c-0.5,0.7-1,1.4-1.2,2c-1.4,3.2-2.4,6.4-3.1,9.8
	c-0.3-2.4-1-4.6-1.4-6.9c-1.1-5.1-1.3-10.3-1.2-15.5c0-0.6-0.2-1-0.6-1.3c0.3-1.2,0.4-2.5,0.8-3.8c0.5-2.2,2.3-3.7,3.6-5.5
	c1.1-1.4,2.1-3,2.9-4.8c0.3-0.7,0.6-1.3,0.8-2c2.2-2.7,4.4-5.5,5.3-9c0.5-2.1,0.3-4.2,1.3-6.2c0.1-0.1,0.1-0.2,0.2-0.2
	C135.6,373,136,375.6,136.5,378.2z M130.3,467.9c-1.9-2.1-2.4-5.2-3.4-7.8c-1.2-3.5-2.3-6.9-2.7-10.5c-0.5-3.3,0.7-6.6,0.8-9.9
	c0.4-4,0.9-7.9,1.7-11.8c0,0.2,0,0.5,0,0.7c0.2,11.3,6.3,22,5.7,33.4C132.3,463.6,131.3,465.7,130.3,467.9z M81.3,451.2
	c0,2.1,0.1,4.1,0.3,6.2c-0.6-0.4-1.2-0.8-1.8-1.2c-0.1-0.8-0.5-1.7-1.3-2.4c-2.3-2.1-4.9-3.9-7.6-5.4c-0.4-0.2-0.7-0.5-1.1-0.7
	c1-2,2.3-4.1,3.6-6c1.7-2.9,3.6-6.1,7-7.4c1.7-0.7,3.6-1,5.2-1.9c1.4-0.7,2.7-1.4,4.1-2.1c-0.2,0.8-0.5,1.7-0.6,2.6
	C85.9,439.8,81.5,442,81.3,451.2z M68.9,408.6c0.1-2.7,0-5.9,0.6-8.6c1.6-4.9,4.7-9.1,7.6-13.3c0.4-0.5,0.8-0.9,1.2-1.4
	c0.1-0.2,0.2-0.3,0.2-0.5c4.3-2.8,8.4-5.9,13.1-8c6.1-3.6,13.4-4.7,20.1-6.7c1.5-0.5,3-1.1,4.5-1.8c0,0,0,0,0,0.1
	c-2.1,1.4-4.3,2.5-6.4,3.9c-3.3,2.2-6.6,4.5-10.2,6.5c-4.3,2.3-6.8,6.6-9.4,10.5c-0.9,1.4-1.9,2.7-2.7,4.1c-1.1,2.3-1.8,4.7-3.1,6.9
	c-1.2,2.1-2.7,4-4.1,6c-1.4,1.9-2,4.2-3.2,6.2c-1.6,2.7-4.2,4.5-6.4,6.7c-0.8,0.8-1.5,1.7-2.2,2.6C69.1,417.5,68.8,413.1,68.9,408.6
	z M59.3,384.9c1-1.2,2-2.5,2.8-3.9c1.4-2.7,3.7-4.7,5.5-7.1c0.5-0.7,0.9-1.4,1.2-2.2c0.8-0.2,1.4-1.2,1.1-2
	c-0.1-0.1-0.2-0.3-0.2-0.4c0.2-0.6,0.4-1.3,0.6-1.9c0.1-0.1,0.2-0.3,0.3-0.4c2.8-0.9,5.4-2.4,8.3-2.9c0.2,0,0.5-0.1,0.8,0
	c0.8,0.2,1.4-0.1,1.8-0.6c2.3-0.4,4.6-0.7,6.9-0.9c0.5,0,1,0,1.5,0c0,0,0,0,0,0c0,0,0,0,0,0c2.1,0,4.2,0.1,6.3-0.3
	c1.4-0.3,3-0.6,4.8-1c0.2,0,0.4-0.1,0.6-0.1c-0.5,1-1.1,2-1.8,2.9c-0.4,0.5-0.8,0.9-1.3,1.3c-2.4,0.7-4.8,1.5-7.1,2.6
	c-8.7,4-16.1,10-24.5,14.6C64.5,383.5,61.9,384.2,59.3,384.9z M48.7,363.8c-1.1-1.6-2.8-2.3-4.5-2.7c4.5-1.5,9.2-2.6,13.6-4.4
	c14-1.5,8,2,14.7,5.3c0.5,0.2,1,0.3,1.5,0.3c-1.7,0.7-3.5,1.2-5.2,2.1c-1.5,1.2-1.8,3.2-2.3,5c-0.2,0.1-0.3,0.2-0.5,0.2
	c-0.7,0.4-1.4,0.8-2,0.9c-0.6-0.1-1,0.1-1.3,0.4c-1.4,0.1-2.9-0.8-4.3-1.1c-1.7-0.5-3.5-1.1-5.1-2C51.6,366.7,50,365.4,48.7,363.8z
	 M83,294.4c0.3,1,0.6,1.9,1,2.9c0.2,0.6,0.5,1.1,0.7,1.7c-0.4,0.8,0.2,1.9,0.8,2.6c0.5,0.8,0.8,1.8,1.1,2.8
	c0.9,3.5,1.1,7.2,2.8,10.4c1.7,3.8,4,7.2,6,10.7c0,0,0,0,0,0c-2.7-1-5.8-1.2-8.3-2.6c-1.6-2-2.6-4.5-4.4-6.4
	c-2.1-2.6-4.6-4.6-6.7-7.1c-3.8-3.8-5.3-9.6-10-12.5c-2.2-1.6-5.2-2.1-7.2-4.1c-1.1-1.1-2-2.5-3.1-3.6c-1.4-1.4-3.1-2.4-4.8-3.2
	c-2.5-1.2-5.1-2.7-6.1-5.5c-1.1-3.1-1.9-6.3-2.5-9.5c2.8,2.4,6.3,4,9.5,5.8c0.9,0.6,1.9,1.4,2.9,2c3.1,1.8,6.7,2.5,9.9,3.9
	c3.3,2,7.1,3.3,10.7,4.6c1.1,0.5,1.7,1.6,2.5,2.5c1.4,1.8,3,3.3,5,4.5C82.9,294.3,82.9,294.4,83,294.4z M111.7,361.8
	c-2.7,1-5.6,1.7-8.4,2.4c1-1.4,1.6-3,2.3-4.5c0.2-0.2,0.4-0.5,0.5-0.8c0-0.1,0-0.2,0.1-0.3c0.5-0.8,1-1.6,1.7-2.3
	c1.1-1.1,2.4-2.1,3.6-3.2c1.5-1.3,2.4-2.9,3.9-4.2c1.4-1.1,3.1-2,4.6-3c0.7-0.4,1.3-0.8,1.9-1.2c2.9,2.6,6.7,2.2,10.3,1.8
	c-1.5,1.6-2.9,3.4-4.3,5C123.5,356.2,117.4,358.9,111.7,361.8z M103.3,357.6c-2.8,0.7-5.5,1.3-8.3,1.8c-1.6,0.1-3.2,0.2-4.8,0.2
	c-0.2-0.1-0.5-0.1-0.7-0.1c-0.7,0.1-1.4,0.1-2.1,0.2c-1.3,0-2.5,0.1-3.8,0.1c-1.4,0-2.7-0.4-4.1-0.4c-2.2,0-4.7,0.4-6.7-0.8
	c-2.3-3.1-3.7-4.9-7.4-5.3c2.1-0.9,4.2-1.6,6.5-1.8c4.2-0.3,8.4,0.1,12.5-0.2c3.7,0.2,7.3,1.3,10.9,1c5.8-0.3,11.4-2.3,16.9-4.4
	c-2.3,2.9-5.4,4.9-7.8,7.9c-0.3,0.5-0.7,1-0.9,1.6C103.4,357.4,103.3,357.5,103.3,357.6z M62.7,346.1c-1.1,0.2-2.2,0.3-3.3,0.5
	c-1.4,0.1-2.8,0.3-4.3,0.1c-0.3-0.1-0.7-0.1-1.1-0.2c-0.2-0.1-0.4-0.2-0.5-0.3c-2.9-1.2-5.9-2.4-9.1-3c-0.4-0.1-0.8,0-1.1,0.2
	c-2.1-0.6-4.2-1-6.2-1.6c-0.5-0.3-1-0.8-1.6-1c-1.6-1.2-3-2.7-4.4-4.1c-3.1-2.9-7.7-2.9-11-5.4c-0.3-0.3-0.6-0.6-1-0.7
	c0.4-0.2,0.9-0.4,1.4-0.6c2.4-0.4,4.9-1.2,7.4-0.8c3.6,0.2,7.1-1.2,10.7-1.6c1.2-0.2,2.4,0.2,3.7,0.5c2.1,0.5,4.1,1.1,6.1,1.9
	c2.4,1.2,4.7,2.7,7.4,3.2c4.2,0.7,8.3,2,12.3,3.6c4,1.4,7.7,2.6,11.4,4.7c1.1,0.7,2.2,1.4,3.2,2.1c-2.2,0.1-4.5,0.2-6.7,0.1
	C71.2,343.2,66.9,344.4,62.7,346.1z M55.7,329.7c-3.6-1.1-6.7-3.6-10.5-4.3c-1.9-0.4-3.7-1.1-5.6-1.2c-1.8,0-3.5,0.4-5.3,0.8
	c-1.9,0.4-3.6,0.9-5.5,1c-1.7-0.1-3.4-0.3-5,0.1c-2.9,0.5-5.7,1.1-8.2,2.8c-1.6,0.5-3.2,1-4.6,1.9c-1.4,0.6-2.3,1.7-2.9,3
	c0.2-2,0.5-4.3-0.5-5.8c-0.1-2.4-0.1-4.8,0.3-7.1c0.2-2.5,0.1-4.2,0.4-6.5c0.1-0.2,0.2-0.5,0.3-0.8c0.1,0,0.2-0.1,0.3-0.2
	c1.9,0.5,3.7,1.2,5.7,1.5c3.3,0.6,6.5-0.4,9.7-0.9c2.1,0,4.1,0,6.2-0.2c0.3,0.4,0.8,0.7,1.5,0.6c3.3-0.3,6.3,1.8,9.3,2.9
	c2.9,1,5.9,1.8,8.1,4.1c1.3,1.3,2.9,2.4,4.5,3.5c1.7,1.3,2.9,3,4.3,4.5c0.5,0.4,1,0.8,1.5,1.2C58.3,330.3,57,330.1,55.7,329.7z
	 M35.1,310.1c-2.1,0.3-4.1,0.7-6.2,0.8c-1.9,0.2-3.7-0.2-5.5,0.1c-2.8,0.5-5.5,1.3-8.3,0.9c-2-0.4-3.8-1.1-5.7-1.5
	c-0.2,0-0.5-0.1-0.7-0.1c0,0,0,0,0-0.1c0-2.6,0.6-5.1,0.8-7.7c0.3-2.7,0.2-5.4,0.7-8c4.1,3.3,9.6,4.1,14.5,5.9
	c1.8,1.1,2.8,3,4.4,4.3c2.9,1.9,6.5,2.6,9.4,4.6c1.1,0.4,2.3,0.9,3.4,1.4C39.6,310.6,37.4,309.7,35.1,310.1z M79.2,321.3
	c-1.5-1.1-3-2.2-4.5-3.4c-1.1-1.2-2.4-2.3-3.7-3.3c-0.5-0.6-1-1.2-1.5-1.8c-0.2-0.3-0.5-0.4-0.9-0.5c0,0,0,0,0,0
	c-0.2-0.1-0.4-0.2-0.5-0.3c-2.2-1.8-4.4-3.6-6.2-5.7c-2.4-3.4-3.6-7.5-6.3-10.7c-1.1-1.3-2.2-2.7-3.4-4c-1-1.2-2.3-2.1-3.2-3.2
	c0.9,0.5,1.8,0.9,2.6,1.4c2.8,1.7,4,5.2,6.9,6.7c7.8,3.7,7.8,4.1,12.1,11.3c3,4.4,7.3,7.6,10.5,11.8c0.8,1,1.3,2.2,2,3.3
	C81.8,322.4,80.5,321.8,79.2,321.3z M46.6,290.6c0.1,0.1,0.3,0.1,0.4,0.1c0.6,0.6,1.2,1.1,1.8,1.7c2.1,2.1,4.1,4.3,5.8,6.8
	c1.9,3,3.1,6.6,5.4,9.4c-2.9-1.1-5.9-1.3-8.8-2.6c-2.8-1.4-5.5-2.9-8.5-3.7c-2.7-1.4-5.5-2.9-8.4-3.8c-3.8-4.9-7.8-6.4-13.8-7.7
	c-1.7-1-3.8-1.4-5.3-2.5c-0.5-0.4-1.1-0.7-1.6-0.8c0-0.1,0.1-0.2,0.1-0.3c0.9-2.1,1.7-4.1,2.3-6.3c1.6-0.3,1.6-2.4,2.2-3.7
	c0.3-0.4,0.5-0.8,0.8-1.2c0.1,0.4,0.3,0.7,0.6,0.9c1.5,1.1,3.2,1.9,5,2.6c2.5,1,5.2,1.3,7.5,2.8c2.4,1.4,5.2,1.6,7.6,2.9
	C42.3,286.7,43.9,289.3,46.6,290.6z M11.1,334.5c1.4-1.3,3.2-2.1,5-2.5c0.3-0.1,0.6-0.2,0.8-0.3c-0.1,0.5,0.1,1,0.5,1.4
	c2.9,2.7,6.9,3.3,10.3,4.9c3,2.3,5.3,5.7,9,7.1c0.4,0.2,0.9,0.3,1.4,0.5c-1.6-0.1-3.2-0.1-4.8-0.4c-1.5-0.3-3.2,0.2-4.7,0.1
	c-2.5-0.1-5-0.3-7.5-0.2c-1.5-0.1-2.8-1-4.3-1.3c-1.3-0.3-2.8-0.3-4.1-0.7c-1.8-0.4-2.9-1.9-3.9-3.4C10,338.6,10.4,335.7,11.1,334.5
	z M118.5,337.5c-1,0.3-1.9,0.6-2.8,1c-7.2,2.6-14.5,5.8-22.1,6.1c-1.9-0.1-3.8-0.5-5.7-0.7c-0.2-0.1-0.4-0.2-0.6-0.3
	c-3.3-3.9-8.1-6.1-12.9-7.9c-0.1-0.4-0.3-0.7-0.7-1c-0.6-0.4-1.1-0.6-1.7-1c-0.4-0.5-0.9-0.7-1.4-0.6c-3.3-1.4-6.5-3.1-9.5-5.2
	c-1.5-1.3-2.5-3-4-4.3c-1.1-1.1-2.4-1.9-3.7-2.8c-2.7-2.6-5.6-5.1-9.5-5.9c-1.1-0.3-2.1-0.8-3.2-1.2c2.4,0.3,4.8,0,7.2,0.3
	c3.1,0.5,5.9,2,8.8,2.9c1.2,0.4,2.5,0.9,3.7,1.3c3.2,2.4,5.8,5.7,9.2,7.7c4.7,2.6,9.9,4,14.7,6.2c8.9,2.5,17.5,5.6,26.8,6
	C113.5,338.3,116,337.5,118.5,337.5z M38.4,266.3c0.7,5.4,1.7,11.1,3.9,16.1c0.3,0.6,0.6,1.2,1,1.7c-0.7-0.6-1.3-1.1-2.1-1.6
	c-3-1.7-6.4-2.1-9.3-3.9c-3.3-1.3-7-1.9-10-4c-0.1-0.4-0.4-0.7-0.8-0.9c0.3-0.5,0.5-1.1,0.8-1.5c1.2-1.4,2.4-2.7,3.6-3.9
	c1.6-1.3,3.2-2.6,4.8-3.9c0.2-0.2,0.3-0.3,0.4-0.5c1.6-1.1,3.5-1.9,5.1-2.9c0.7-0.5,1.4-0.9,2.1-1.3C38,261.9,38.2,264.1,38.4,266.3
	z M10.5,357.9C10.5,357.9,10.5,357.9,10.5,357.9c-0.1-0.4-0.1-0.9-0.2-1.3c0-0.3-0.1-0.6-0.1-0.8c-0.6-3.7-1.1-7.4-1.4-11.2
	c1.9,1.6,4,1.8,8.1,2.5c1.1,0.3,2,0.9,3.1,1.1c1.2,0.3,2.4,0.1,3.6,0.1c2.5,0.1,4.9,0.5,7.4,0.2c1.7-0.3,3.3,0.2,5.1,0.3
	c4.1,0.3,8.5,0,12.3,2c-0.3,0.3-0.5,0.6-0.5,1c-2.7,0.7-5.4,1.8-8.2,2.6c-3.6,0.8-7.5,0.3-11.1,1.4
	C20.6,359.3,18.6,358.2,10.5,357.9z M63.9,429.7c-0.4,1.5-0.8,2.9-1.4,4.3c-0.1,0.3-0.1,0.6,0,0.9c-0.5,2.4-0.7,4.9-1,7.3
	c-1.1-0.8-2.3-1.6-3.4-2.3c-2.7-2.1-5.4-4.2-8-6.3c0.5-0.2,0.9-0.7,1.4-1.1c1-0.7,2.1-1.6,3.2-2.3c1.2-0.7,2.6-1.6,3.7-2.7
	c1.4-1.5,2.1-3.3,3.2-5.1c1.5-1.4,3-3,4.1-4.8C65.5,421.7,64.9,425.8,63.9,429.7z M94.1,419.6c-0.7,2.2-1.8,4.3-2.7,6.4
	c-0.1,0.1-0.2,0.1-0.4,0.2c-2.6,1.3-5.1,2.6-7.6,3.9c-2.3,0.9-4.8,1.4-6.8,2.9c-2.3,1.4-3.9,3.7-5.2,6c-1.4,2.3-2.9,4.6-4.1,7.1
	c-1.1-0.7-2.2-1.5-3.3-2.2c0.3-0.3,0.6-0.7,0.7-1.1c0.2-1.8,0.4-3.5,0.6-5.3c0.5-3.9,2.4-7.6,4.3-11.1c1-1.7,1.9-3.3,3.2-4.6
	c0.7-0.7,1.5-1.4,2.2-2c0.1,0,0.3,0,0.4,0c0,0,0.1-0.1,0.2,0.1c1-0.2,1.6-1.4,2.5-2c1.8-1.2,3.2-2.7,4.5-4.3c1.4-1.3,3.4-1.6,5-2.5
	c2.3-1.2,4.8-2.1,7.4-2.8C93.1,411.9,94,414.8,94.1,419.6z M97.3,404.4c-2.2,0.5-4.4,1-6.4,1.8c-2.7,0.9-5.3,2.4-8,3.4
	c-0.4,0.1-0.8,0.3-1.2,0.6c0.2-0.3,0.3-0.7,0.5-1c1.3-2.2,3-4.1,4.3-6.3c1.7-2.6,2.5-5.6,3.9-8.3c2.6-3.7,4.9-7.6,7.9-10.9
	c1.9-1.8,4.3-2.9,6.5-4.2c2.8-1.7,5.3-3.8,8.1-5.4c0.7-0.4,1.4-0.8,2.1-1.3c-0.7,2.4-1.1,4.9-2,7.3c-1.2,3.5-2.6,7-3.9,10.4
	c-0.4,1.2-0.8,2.3-1.3,3.5c-0.1,0.3-0.1,0.5,0,0.8C104.6,398.4,100,400.4,97.3,404.4z M115,384.2c1.3-3.4,2.3-7,3.1-10.6
	c0.4-1.3,0.7-2.7,1.4-3.9c0.7-1,1.7-1.7,2.6-2.5c1.2-1.1,2.6-1.9,3.9-2.7c0.6-0.4,0.7-1.2,0.5-1.8c1.1-0.7,2.3-1.5,3.4-2.3
	c3.6-2.5,5.2-5.4,7.3-7.6c-0.4,1-0.8,2-1.2,3c-2.1,4-5.1,7.3-7.4,11.2c-3.2,7.6-0.2,8-6.9,15.4c-2.4,3.5-5.8,5.7-9.1,8.1
	C113.4,388.4,114.3,386.4,115,384.2z M150.2,360.4c0.4,2.5,1.3,4.9,3.1,6.9c3.2,3.8,7.1,7.5,8.6,12.3c0.8,1.7,1.9,3.4,1.1,5.3
	c-2,4.3-1.7,9.2,0.5,13.5c-0.4,1.7,0.1,3.7,0.3,5.4c0.2,2.2,0.5,4.4,0.8,6.6c0.6,5,2.1,9.8,3.8,14.5c0.6,1.7,1.3,3.2,2.2,4.6
	c4.1,7.9,8.3,16.2,8.7,25.3c0.3,5-1,9.8-1.1,14.7c0,2.6,0.2,5.1-0.2,7.7c-0.5,0.1-1.1,0.1-1.6,0.2c-0.8,0-1.6-0.1-2.3-0.2
	c-1-0.1-1.8,0.2-2.5,0.6c-2.4,0.2-4.8,0.4-7.2,0.5c-0.2-1.2-0.3-2.4-0.4-3.6c-0.7-8-0.5-15.9-2-23.8c0-0.2-0.1-0.3-0.2-0.5
	c-0.1-2-0.1-3.9-0.1-5.8c0-4.6,0-9.3-0.8-13.9c0-0.9-0.5-1.6-1.1-1.9c0.2-2.6,0.5-5.2,0.3-7.7c-0.3-5.2-1.4-10.4-4.1-14.9
	c-1.7-7.4-2-15.1-3.7-22.5c-1.1-5-1.8-10-2.4-15C149.3,365.8,149.4,363,150.2,360.4z M190.3,469.7c-0.4,1-0.6,2.1-0.6,3.1
	c-0.3,0.9-0.4,1.8-0.6,2.7c-2.2,0.4-4.3,0.8-6.5,1.1c-0.5,0.1-1.1,0.1-1.6,0.2c0.4-3,0-7.2,0.2-8.6c0.7-6,1.7-11.9,0.6-17.8
	c-0.6-5.1-2.6-9.8-4.7-14.4c-1.5-3.7-3.6-7.1-5.4-10.7c-2.6-6.7-4.1-13.6-4.8-20.8c0,0,0-0.1,0-0.1c1.4,2,2.7,4,3.5,6.3
	c0.9,2.3,1.7,4.5,2.7,6.7c1.2,2.9,3.8,4.8,5.1,7.6c0.9,2.1,1,4.6,2,6.7c1.4,2.6,3.6,4.6,4.6,7.4c1.5,6.6,5.1,12.2,6.5,18.7
	C191.8,461.8,191.4,465.8,190.3,469.7z M160,461.6c0,0,0.1,0,0.1,0.1c0.1,1.1,0.1,2.1,0.2,3.2C160.2,463.8,160.1,462.7,160,461.6
	C160,461.6,160,461.6,160,461.6z M203.7,427.5c1.2,4.5,0.3,9.3,1.8,13.8c0.2,0.5,0.4,0.9,0.6,1.4c-1.4-1.8-2.7-3.6-3.6-5.7
	c-2.5-6-3.8-12.9-9-17.2c-1.6-1.5-3.3-3-4.8-4.7c-2.3-2.5-3.5-6-5.7-8.7c-1.6-2-3.5-3.7-5-5.7c-1.3-1.6-2.6-3.3-3.9-4.8
	c0-0.2,0-0.4-0.2-0.7c-0.5-1.3-0.9-2.6-1.3-3.9c-0.4-1.2-0.7-2.4-1.1-3.6c-0.2-0.6-0.3-1.4-0.7-2c0.1-0.6,0.3-1.3,0.4-2
	c0.2-2.7-1-5.2-2.1-7.5c-0.8-3-2.6-5.6-4.7-7.9c-1.7-2.5-3.8-4.6-5.6-7c-0.9-2.1-1-4.3-1.1-6.5c0.7,1.6,1.5,3.2,2.4,4.7
	c0.8,1.4,1.8,3,2.9,4.3c1.3,1.6,3,2.7,4.5,4.1c0.8,1,1.7,1.8,2.7,2.5c1.5,1.8,3.1,3.6,4.8,5.3c2.5,3.2,3.3,7.3,5.3,10.8
	c1.3,1.9,3.1,3.3,4.9,4.7c0.4,0.9,0.9,1.7,1.4,2.6c1.6,2.9,3.1,5.9,4.6,8.9c2.2,4.5,3.9,9.4,6.3,14
	C199.1,420.6,202.4,423.5,203.7,427.5z M215.1,388.5c-1.6-0.3-3.1-1-4.8-1c-2.3-0.1-4.5,0.2-6.6-0.5c-2.7-0.6-5.3-1.8-8.1-1.8
	c-1.9-0.7-3.5-1.9-5.4-2.6c-1.2-0.5-2.4-0.9-3.6-1.3c-3.1-7.5-4.7-10.4-10.9-16.6c-1.3-1.9-2.6-3.8-3.8-5.7c2.5,2.1,5,4.2,7,6.8
	c1.2,1.5,2.7,2.8,4.6,3.4c1.2,0.5,2.6,0.1,3.9,0.6c1.8,0.9,3.2,2.5,5,3.4c1.9,1,4.2,1.5,6,2.8c1.5,1.2,2.5,3.2,4.3,4.1
	c2.2,1.3,4.5,2.1,6.5,3.6c1.7,1.5,3.1,3.7,5.6,4.2c0.7,0.2,1.4,0.4,2.1,0.7C216.3,388.6,215.7,388.5,215.1,388.5z M113.9,329.8
	c-3.9,0.3-7.7-0.3-11.6-1.1c-0.8-0.3-1.5-0.7-2.3-1c-2-3.3-3.8-6.7-5.9-9.9c-1.2-2.2-2.4-4.5-3.2-7c-0.2-1.1-0.4-2.2-0.6-3.3
	c2.1,4.3,4.8,8.4,8.1,12c2.7,2.8,6.7,3.8,9.3,6.7c1.8,1.8,4.1,2.8,6.5,3.6C114.2,329.8,114,329.8,113.9,329.8z M75.5,284
	c-2.9-1.1-5.9-2-8.6-3.6c-2.8-1.5-6-2.3-9-3.5c-1.8-0.8-3.2-2.2-5-3.2c-3.2-1.6-6.5-3.5-9.4-5.7c0.1-0.8-0.5-1.7-1.4-1.8
	c-0.2,0-0.4,0-0.6,0c-0.2-2.7-0.5-5.4-0.6-8.2c0.2-0.1,0.4-0.2,0.7-0.3c0.1,0,0.2,0,0.3,0c0,0,0.1,0,0.1-0.1c0.1,0,0.2,0,0.4,0
	c4.3-1.4,8.8-1.6,13.2-2.2c0.2,0,0.4-0.1,0.6-0.1c0.9,1.1,1.7,2.3,2.5,3.6c2.6,4.9,6.9,8.5,10.5,12.5c1.6,1.6,3.5,2.9,4.8,4.7
	c2.1,3.1,4.2,6.1,6.2,9.3c0.6,1.2,1.1,2.5,1.5,3.8C79.7,287.3,78.3,284.7,75.5,284z M58,396.6c2-1.6,4-3.1,5.9-4.7
	c0,0,0.1-0.1,0.1-0.1c2.7-0.7,5.3-1.6,7.8-2.9c-1.4,2.1-2.6,4.2-3.8,6.4c-2,3.6-2.1,7.7-2.2,11.7c0,1.3,0,2.7,0,4
	c-1.3,2.5-2.3,5-4.2,7.1c-0.7,0.7-1.1,1.1-1.8,1.8c-1.5,1.6-2,4-3.6,5.6c-2,1.6-4.3,2.7-6.2,4.3c-0.8,0.6-2.1,1.5-2,2.6
	c-0.1,0-0.2,0-0.3,0c-0.9-1.3-1.8-2.5-2.8-3.6c-1.8-2-3.6-3.9-5.4-5.9c2.1-1.6,4.3-5.1,5.2-6.2c2.6-3.3,2.6-7.9,5.3-11.2
	c1-1.2,2.1-2.3,3.2-3.4C54.9,400.2,56.1,398.1,58,396.6z M89.4,449.6c0.5-4.9,4.5-8.1,6.5-12.3c1.1-2.4,1.3-5,2.2-7.4
	c1-2.3,2.4-4.4,3.2-6.8c1.5-3.5,0.4-7.3,0.4-10.9c2.1-4.1,5.6-6.9,9.2-9.5c2.4-2.8,5.4-5,8.3-7.2c-0.1,0.2-0.2,0.4-0.3,0.6
	c-1,2.4-0.9,5.1-2,7.6c-0.7,1.7-1.8,3.3-2.5,5.1c-0.5,1.6-0.7,3.2-0.8,5c-0.1,4.5,0.1,9.2-0.3,13.8c-0.6,2.8-1.5,5.5-2.9,8.1
	c-1.3,2-3,4-4.9,5.6c-1.8,1.3-3.9,2.2-5.7,3.6c-2.1,1.6-3.2,3.9-5,5.7c-2.2,1.9-4,4.1-5.1,6.8C89.3,454.8,89.2,452.2,89.4,449.6z
	 M146.1,410.8c-1-4.4-1.2-8.8-1.6-13.2c-0.3-3.4-1.4-6.7-1.1-10.1c0.1-0.8,0.3-1.6,0.6-2.4c0.1,0,0.2,0,0.3,0c0,0,0.2,0,0.4-0.1
	c1.1-0.3,1.3-1.5,1.5-2.5c0.9-3.7,0.1-7.5,0.1-11.2c0.1-1.1,0.1-2.2,0.1-3.4c0.1,0.9,0.2,1.7,0.4,2.6c0.5,5.7,1.7,11.3,2.8,17
	c1.2,5.6,1.4,11.4,2.7,17c0.2,1.1,0.3,2.2,0.8,3.2c0.4,0.8,0.9,1.5,1.3,2.3c1.1,3,1.7,6,2.2,9.2c0.5,4.9-0.3,9.6-0.4,14.4
	c0,2.8,0.4,5.9,0.7,8.9c0.1,1.8,0.1,3.6,0.3,5.3c-1.6-6.2-3.5-12.3-5.5-18.3C150.4,423.1,148.1,417,146.1,410.8z M198.5,363.3
	c3.2,0.5,5.8,2.7,9,3.2c0.8,0.3,1.6,0.3,2,0.1c0.3-0.1,0.6-0.2,0.8-0.3c2.3,0.3,4.6,0.5,6.9,0.5c0.3,0,0.6,0,0.8-0.2
	c0.5-0.1,0.8-0.3,1.1-0.6c0.2,0,0.3,0,0.5,0c1.7,1.6,3.9,2.5,5.8,3.6c2.1,1.3,3.5,3.3,5.5,4.6c1.7,1.2,3.6,2.1,5.3,3.3
	c1.2,0.9,2,2.2,2.9,3.4c2.3,2.8,5.2,5.2,7.4,8.1c4.2,5.1,11.2,6.4,17.1,8.9c0.2,0.1,0.4,0.1,0.7,0.1c0.3,0.2,0.6,0.4,0.8,0.5
	c-1.3,0.2-2.6,0.4-3.9,0.8c-3.3,1.3-6.9,1.4-10.4,0.8c-1.8-0.2-3.5-0.2-5.2-0.6c-1.2-0.3-2.1-1-3.2-1.5c-2.3-1.2-4.8-2-7.3-2.9
	c-1.8-1-3.7-1.9-5.3-3.2c-1.7-1.9-3.4-3.8-5.7-4.8c-1-0.5-2.1-0.6-3.2-0.5c-2.2-1.2-4.7-1.5-6.8-2.7c-1.6-1.7-3.2-3.4-5.3-4.4
	c-1.6-0.9-3.5-1.6-5-2.7c-1.6-1.5-2.8-3.4-4.8-4.4c-1.8-1-3.9-1.4-5.7-2.5c-1-0.7-1.9-1.5-3-2.2c-1-0.8-2.4-1.3-3.7-1.4
	c-1.1-0.1-2.2-0.1-3.2-0.7c-2.4-1.8-4.2-4.3-6.3-6.4c1.6,0.7,3.3,1.2,5,1.4C187.8,360.8,193,362.7,198.5,363.3z M128.5,332.6
	c0.2,0.2,0.4,0.3,0.7,0.5c-2-1.2-4.1-2.3-6.3-3c-0.7-0.5-1.6-0.9-2.3-1.3c-3.3-1.7-7.2-2.1-10.1-4.4c-1.1-0.8-2.1-1.9-3.2-2.7
	c-2.1-1.5-4.7-2.3-6.5-4.2c-3.5-3.7-6.2-7.9-8.3-12.5c-1-2-2.9-3.5-4.1-5.5c-2.5-4.6-3-9.9-5-14.7c-1.2-2.2-2.8-4.4-4.2-6.5
	c1.8,1.6,3.7,3,6.1,3.7c3.1,1.4,4.7,4.7,7.3,6.9c1.6,1.7,3.3,3,5.1,4.4c0.5,1.4,1.2,2.8,2.3,3.6c0,0.5,0.1,1,0.3,1.5
	c1.4,3.5,3.4,6.6,5.7,9.6c2.2,3.3,5.5,6.7,8.2,9.8c1,1.5,2.1,2.9,3.2,4.2c0.3,0.4,0.5,0.8,0.7,1.2c0.5,0.7,1,1.1,1.6,1.4
	C122.4,327.5,125.3,330.2,128.5,332.6z M19.3,388.6c0.1,0,0.2-0.1,0.2-0.1c3.5-2.6,7.5-4.8,9.7-8.6c1.4-1.7,3.2-3,5-4.2
	c-0.2,2.7-0.6,5.3-0.3,8c0.1,0.9,0.1,1.7,0.5,2.5c0.4,0.8,0.5,1.5,0.2,2.3c-1.2,3-3.1,5.8-3.9,9c-0.5,1.8-0.7,3.5-1,5.3
	c-0.5,0.3-1,0.6-1.4,1c-0.2-0.5-0.5-1-0.7-1.4C25.1,397.6,21.9,393.3,19.3,388.6z M32,411.2c0.8-0.8,1.7-1.6,2.6-2.2
	c6.3-3.8,14.7-6.1,17.6-13.5c1.4-0.6,2.8-1.2,4.2-1.6c-0.4,0.3-0.8,0.7-1.2,1c-1.7,1.5-2.8,3.4-4.3,5c-1.7,1.7-3.5,3.4-4.6,5.5
	c-2,3.5-2.3,7.8-5.2,10.9c-1.2,1.5-2.2,2.9-3.6,4.1c-0.5-0.7-1.1-1.4-1.6-2.1C34.5,416,33.3,413.6,32,411.2z M95.9,464.6
	c-1.3-0.4-2.7-1.3-4.2-2.3c0.3-1.1,0.6-2.1,0.9-3.2c1-3.1,3.6-5.1,5.8-7.4c1.1-1.4,1.9-3,3.4-4.1c1.9-1.6,4.2-2.4,6.2-4.1
	c0.9-0.9,1.8-1.8,2.6-2.8c0,1.2,0,2.4-0.2,3.6c-0.4,2.4-1.6,4.7-2,7.2c-0.6,4.9-1.2,10.2-1,15.1c0.1,1,0.3,2.1,0.5,3.1
	c-0.7-0.2-1.3-0.3-2-0.5C102.6,467.5,99.2,466.4,95.9,464.6z M135,477.4c0.9-1.6,1.3-3.8,1.9-5.3c3.4-5.4,3.9-11.1,3.2-16.9
	c1.2-0.6,1-2.5,1.4-3.7c0.9-2.5,1.2-5.2,2.2-7.7c3.9-6.2,5.3-8.3,5.2-14.9c0.9,3.2,1.8,6.4,2.9,9.5c2.7,8.8,5.1,17.7,5.8,26.9
	c0.3,2.5,0.3,4.9,0.4,7.4c0.2,1.9,0.6,3.8,0.9,5.8c-1.6,0-3.1,0-4.7,0c-0.6-0.4-1.2-0.6-1.9-0.6c-1.6-0.8-3.4-0.3-4.8,0.8
	c-1.1,0.1-2.2,0.1-3.3,0C141.2,478.6,138.1,478.1,135,477.4z"/>
<path class="st3" d="M381,197.5c-1.8-8.1-4.2-16-8.8-23.1c-3.5-5.4-5.8-11.2-9.3-16.5c-3.4-4.7-8.2-8.2-11.8-12.8
	c-3.8-4.1-9-6.4-13.3-10c-8.5-7.9-15.4-12.3-24.5-13.8c1-0.5,2-0.9,2.9-1.3c5.9-1.6,12.3-1.7,18.2-0.1c0.8,0.3,1.7,0.7,2.5,1
	c-1.6-1.4-3.4-2.6-5.4-3.4c-5.3-2.1-11.3-3.2-17-2.1c8.7-4.5,17.9-8.7,27.7-9.5c7.5-0.6,14.3,3.5,21,6.4c2.4,1.1,4.9,1.9,7.4,2.7
	c-2.3-1.3-4.5-2.7-6.6-4.1c-7.4-5.6-15.7-11.4-25.5-10.6c-7.7,0.2-23.4,4.3-32.6,10.5c0.1-0.1,0.1-0.2,0.2-0.3
	c2.3-3.2,5.6-5.7,9-7.9c-4.2,1.1-8.6,3-11.6,6.2c-1.1,1.5-4.5,4.9-2.8,6.6c-0.4,0.5-0.7,0.9-0.9,1.4c-0.1,0-0.1,0-0.2,0
	c-0.5-3.9-1.7-7.8-2.8-11.6c-0.5-0.2-0.9-0.5-1.1-1c0-0.1,0-0.1,0-0.1s-0.1,0-0.1-0.1c-0.2-0.2-0.3-0.4-0.4-0.6
	c-0.2-0.1-0.3-0.3-0.4-0.4c-0.2-0.2-0.3-0.5-0.4-0.7c-0.1-0.1-0.2-0.3-0.3-0.4c-0.4-0.7-0.5-1.4-0.8-2c-0.3-0.6-0.5-1.2-0.7-1.8
	c0,0-0.1,0-0.1-0.1c-0.2-0.2-0.3-0.4-0.4-0.6c-0.1,0-0.1-0.1-0.1-0.1c0,0,0,0,0-0.1c0,0,0-0.1-0.1-0.1c-0.1-0.1-0.1-0.2-0.2-0.3
	c-1.1-1.4-2.2-2.7-3.2-4.2c-3.7-4-8.2-7.1-13.4-8.6c-2.1-0.9-4.4-1.1-6.5-2c3.7,2.7,8.1,4.5,11.3,8c2.6,2.3,4.5,5.3,6.4,8.2
	c0.8,2,1.3,4,1.7,6c-0.1-0.1-0.2-0.1-0.2-0.2c-1.2-1-2.4-2-3.7-3c-1.7-1.2-3.6-1.9-5.1-3.2c1.6,2.6,4.1,4.4,5.8,7
	c2.1,2,2.8,4.7,3.6,7.4c0,0.1,0,0.2,0,0.3c-3.2-2.3-6.7-4.2-10-6.5c-11.1-7.3-24.6-8.2-37.4-8c-16.8,0.1-34,2.1-49.7,8.4
	c-10.1,4.3-20.6,9.1-28.3,17.2c1.1-0.6,2.1-1.4,3.2-2c20.2-10.6,43.2-13.7,65.6-15.4c14.3-0.4,29.9-1.6,42.5,6.6
	c-12.4-1-25.1-0.4-37,2.8c-3,0.9-6.1,1.9-9,3c2.3-0.2,4.7-0.5,6.9-0.8c11.4-1.5,22.9-0.2,34.4,1.6c-23.1,4.1-45.5,13.8-63.8,28.6
	c-10,8.6-17.2,19.4-24.2,30.4c-5.2,8.9-8,18.9-11.4,28.6c4.4-7,8.3-14.5,12.8-21.4c7.8-10.2,16-20.2,25.5-29
	c16.1-14.9,37.4-23.8,58.6-28.7c7.8-1.8,13.2-1.3,17-0.3c0.1,1,0.6,1.9,1.4,2.6c-0.5,0.4-1,0.7-1.5,1.1c-8.8,6.1-14.5,15.4-21,23.7
	c9.7-7.6,19.2-16.7,30.4-22.2c0.6,0.1,1.1,0.2,1.7,0.2c3.8,18.8,4.6,38.3,3.9,57.4c-1.1,17.6-5.2,34.7-8.5,51.9
	c-2.6,17.7-4,35.6-7.6,53.2c8.6-19,12.4-39.8,17-60.2c8.5-33.6,9.5-68.6,3.4-102.6c0.7-0.1,1.5-0.2,2.2-0.4
	c11.8,9.9,20.6,28.3,24.2,42.1c-0.2-9.6-2.5-19.2-6.6-28c-2.4-6.5-5.8-12.2-10.1-17c11.1,2.2,14.6,9,28.3,17.8
	c4.5,3,7.4,7.7,11.5,11.1c4.2,3.5,6.5,8.9,9,13.7c2.5,4.5,5.3,8.8,7.6,13.4c2.5,4.7,3.6,9.8,5.5,14.7c5.2,13.4,11.7,26.3,14.9,40.5
	C389.7,225.8,385.1,211.7,381,197.5z"/>
<path class="st4" d="M511.9,63c-0.7-1.2-2.6-1.5-4.3-1.6c-0.5-0.5-1.5-0.3-2.2-0.6c-2.3-1.2-4.4-2.8-6.9-3.4c-1.4-0.6-2.7-1.6-4-2.5
	c-3.2-4.2-9.5-8.3-11.8-10.7c-10.1-10.3-24.8-14.4-38.8-16.1c-15.1-3-30.7-0.4-45.2,4.2c-9.3,4.3-18.9,8.1-27.3,13.8
	c-2.7,2.5-6.2,3.7-9.5,5.2c-4.4,2.9-9.2,4.5-14,6.6c-6.3,2-12.3,5-18.2,8c-2.3,1.1-4.7,2.2-7.2,3.1c-0.7,0.1-1.4,0.4-2,0.8
	c-0.1,0.1-0.4,0.2-0.5,0.3c-0.4,0.1-0.7,0.2-1,0.4c1-4.8,1.4-9.6,2.9-14.3c1.1-3.4,2.2-6.7,3.5-9.9c0.4-1.9,0.9-4,1.3-6
	c0.2-1,0.5-1.9,0.8-2.9c0,0-0.1,0.1-0.1,0.1c0.2-1,0.5-1.8,0.6-2.8c0,0,0,0,0-0.1c0-0.4,0.1-1,0.1-1.5c0-0.2,0-0.5-0.1-0.7
	c-0.1-0.3-0.2-0.7-0.3-1.1c-0.1-0.2-0.1-0.4-0.2-0.6c-0.1-0.3-0.2-0.5-0.3-0.8c0-0.1-0.1-0.1-0.1-0.2c-0.2-0.3-0.4-0.7-0.6-1.1
	c-0.1-0.1-0.1-0.3-0.2-0.4c-0.1-0.1-0.1-0.1-0.2-0.2c-0.3-0.3-0.6-0.7-0.9-1.1c-0.4-0.3-0.8-0.7-1.2-1.1c-0.4-0.3-0.8-0.5-1.2-0.7
	c-0.1-0.1-0.4-0.1-0.5-0.2c-1-0.3-2-0.5-3.1-0.8c-0.9-0.2-1.7-0.4-2.5-0.6c-0.2,0-0.4,0-0.6,0s-0.4,0-0.6,0c-0.4,0.2-1,0.3-1.5,0.4
	c-0.1,0-0.1,0.1-0.2,0.1c-0.5,0.2-1,0.4-1.5,0.6c-0.1,0.2-0.4,0.3-0.5,0.4c-0.1,0.2-0.4,0.4-0.5,0.6c-0.2,0.2-0.5,0.5-0.8,0.8
	c-0.2,0.4-0.6,1.1-0.8,1.5c-0.2,0.4-0.5,0.9-0.6,1.5c0,0,0,0,0-0.1c0,0.1-0.1,0.1-0.1,0.2c-0.1,0.2-0.2,0.5-0.3,0.8
	c0,0.2,0,0.4-0.1,0.6c-0.2,0.6-0.3,1.2-0.4,1.8c-0.2,0.5-0.3,1-0.4,1.6c0,0.1,0,0.1,0,0.1c0,0.1,0,0.1,0,0.1c0,0.1,0,0.1,0,0.1
	s0,0,0,0.1c-0.1,0.1-0.1,0.2-0.1,0.3v0.1c0,0.1,0,0.1,0,0.1c-0.1,0.4-0.2,0.9-0.3,1.3c-0.1,0.4-0.4,1-0.5,1.5c0,0.2,0,0.2-0.1,0.3
	c-0.1,0.1-0.1,0.3-0.1,0.4c-0.3,1.9-0.6,3.8-1.1,5.7c-0.5,1.7-1.1,3.3-1.7,5c-0.4,1.5-0.7,3.2-1,4.7c-0.3,1.8-0.7,3.7-1.2,5.5
	c-0.5,1.9-1.1,3.7-1.8,5.5c-0.7,1.6-1.3,3.1-1.8,4.6c-0.4,1.4-0.7,2.8-1,4.3c-0.1,0.1-0.1,0.2-0.1,0.3c-0.1,0.1-0.1,0.2-0.1,0.3
	c0,0.1-0.1,0.3-0.1,0.4v0.1v0.1c0,0.3-0.1,0.5-0.1,0.8v0.1c0,0.1,0,0.2,0,0.2s0,0,0,0.1v0.1c0,0.1,0,0.1,0,0.1
	c-0.2,1.3-0.4,2.6-0.6,3.9c-0.5,3.1-0.7,6.2-1.3,9.3c-0.4,2.2-0.9,4.5-1.5,6.7c0.1,0.2,0.1,0.4,0.1,0.6c0,1-0.3,2-0.7,2.9
	c-0.2,0.7-0.5,1.4-0.7,2c-0.4,1.5-1,2.9-1.5,4.4c-0.5,1.3-1,2.7-1.4,4c-0.5,1.4-0.8,2.7-1.2,4.1c0,0.2,0,0.3-0.1,0.5
	c-1.1,1.4-1,3.4-1.2,5.1c-0.1,0.5-0.1,1-0.2,1.6c0.1,0.4,0.3,0.8,0.4,1.3c0,0,0,0,0,0c0.1,0.2,0.1,0.4,0.2,0.6
	c0.1,0.2,0.2,0.5,0.3,0.7c0.2,0.2,0.3,0.4,0.4,0.5c0.2,0.2,0.3,0.3,0.4,0.4c0.2,0.1,0.2,0.1,0.3,0.2c0.6,0.5,1.2,0.9,1.8,1.3
	c0.3,0.2,0.5,0.4,0.9,0.6c0.2,0.2,0.4,0.2,0.6,0.3c0.7,0.3,1.4,0.5,2,0.7c0.7,0.2,1.4,0.4,2.2,0.6c0,0,0.1,0,0.1,0
	c0.1,0.1,0.2,0.1,0.3,0c0.1,0,0.2-0.1,0.4-0.2c0.5-0.1,0.9-0.1,1.4-0.1c0.5,0,0.9,0.1,1.3,0.1c0.5,0,1,0,1.5-0.1
	c0,0,0.1-0.1,0.1-0.1c0.2,0.1,0.4,0.2,0.6,0.3c0.5-0.1,1-0.1,1.5-0.1c0.5-0.3,1.2-0.5,1.8-0.7c0.2-0.1,0.5-0.3,0.8-0.4
	c0.9-0.4,1.7-0.9,2.5-1.5c0,0,0,0,0.1-0.1c0.2-0.5,0.5-0.9,0.6-1.3c0.2-0.4,0.2-0.9,0.2-1.3c0.1-0.4,0.2-0.7,0.3-1.1
	c1.2-6.4,1-12.6,2.2-19.1c1-7.7,3-15.2,4.9-22.8c1.9,0.5,3.8,1.2,5.7,1.6c1,0.6,2.4,1,4.2,1.3c6.5,1.4,12.1,5.3,18.8,5.7
	c8.9,0.7,17.5,3.7,26.5,3.4c16.4,0.1,33-1.1,48.7-6c8.1-1.9,15.1-6.6,22.8-9.4c5.3-1.5,10.4-3.3,15.7-4.8
	c13.1-3.2,26.6-5.5,40.1-5.7c0.6,0,1.2-0.2,1.7-0.4c2.2,0.1,4.3-0.3,6.5-0.3c0.9-0.1,1.4-0.4,2.5-0.5
	C510.9,65.5,512.5,64.4,511.9,63z"/>
</svg>
