<svg xmlns="http://www.w3.org/2000/svg" xml:space="preserve" viewBox="0 0 512 512"><path d="M33.7 191c15.8-9.5 31.8-18.8 47.5-28.5 17.8-11 37.1-16.8 57.9-18.4 2-.2 4.3-1.3 5.7-2.7 33.2-33.1 66.4-66.2 99.4-99.5 5.6-5.6 11.6-9.6 19.6-9.7 5.9-.1 11.9 0 17.8.4 3.7.3 5.9 2.9 5.9 6.4 0 8.2.1 16.4-1.2 24.4-.6 3.8-3.7 7.6-6.5 10.6-11.3 11.7-22.9 23.2-34.4 34.7-.9.9-1.7 1.8-3.1 3.4h4.6c29.1 0 58.3.3 87.4-.1 10-.2 17.7 3 24.4 10 1.8 1.9 3.7 3.8 5.6 5.6-1.7.2-3.4.5-5.1.5-49.8 0-99.5.1-149.3 0-8.9 0-16.7 2.6-23.2 8.6-6.7 6.2-10.3 13.7-10.3 23.4h23.8c7.5 15.1 15.1 30.1 22.5 45.3 1.1 2.3 2.7 2.4 4.7 2.4 37.6 0 75.3.1 112.9 0 37.7-.1 69.4 13.5 94.3 41.9 15.1 17.2 24.7 37.4 27.9 60.2 4.4 31-2.1 59.6-19.6 85.6-.2.3-.3.7-.7 1.6 8.7 8.6 17.6 17.3 26.3 26.2 3.2 3.3 6.1 7 8.2 11.1 10.2 19.7-5 44.5-27.2 45.3-10.3.4-18.1-4.1-25.3-10.4-7.9-6.8-15.7-13.8-23.2-20.4-1.8 5-2.9 10.3-5.5 14.8-5.6 9.8-14.3 15.7-25.8 15.7-47.8.2-95.7.1-143.5.1-.6 0-1.3-.1-1.9-.1-.7-14.3 11.7-29 26.1-31 3.1-.4 6.3-.7 9.5-.7 22-.1 44 0 66.1 0-6-2.2-12.2-3.7-17.6-6.5-23.9-12.3-36-32.2-36.1-59.1-.1-9.9 0-19.8 0-30.4h-20.5c-3.8 0-8.6-1.1-11.2.7s-3.2 6.6-4.6 10.2c-14.1 37.8-28.3 75.6-42.3 113.5-1 2.7-2.3 3.5-5.1 3.5-14.6-.1-29.1-.1-43.7-.1-2.6-14.6 11-28.6 31.2-32 .1-1.1.2-2.2.2-3.3 0-27.7 0-55.4.1-83.1 0-2.6-.8-4.2-2.7-5.7-9-7-15-16.1-18.8-26.9-6.4-18-13.2-35.8-19.8-53.7-.4-1-.7-1.9-1.2-3-10.9 0-21.8.2-32.7 0-28.3-.6-55.8-21.2-64.3-47.9.8-.4 1.6-.9 2.5-1.1 6.9-1.4 12.5-5 17-10.2 5.1-5.8 7.9-12.5 7.6-20.8H37.8c-1.4 0-2.8-.5-4.1-.8m78.3-7.1h-.3c.2 3.6.1 7.2.6 10.7 1.1 7.7 7.6 13.1 15.4 13.3 7.9.1 14.9-5.2 15.8-13.1.7-6.6.9-13.5.2-20.1-.9-8.8-7.8-14.7-15.9-14.6-8.5.1-15 6.4-15.9 15.6-.2 2.6.1 5.4.1 8.2" style="fill:#fefefe"/><path d="M200 160h-23.8c0-9.7 3.6-17.3 10.3-23.4 6.5-6 14.3-8.6 23.2-8.6 49.8.1 99.5.1 149.3 0 1.7 0 3.4-.3 5.1-.5 6.4 8.2 6.5 11.4-1.1 18.4-4.9 4.5-10.6 8.3-16.4 11.6-3 1.7-7.1 2.3-10.6 2.3-45.4.2-90.7.2-136 .2M32.3 194.2c-.5 10.2.9 20.2 4.5 29.8.8-.4 1.6-.9 2.5-1.1 6.9-1.4 12.5-5 17-10.2 5.1-5.8 7.9-12.5 7.6-20.8H37.7c-1.4 0-2.7-.5-4-.8-.5.9-1.4 2-1.4 3.1" style="fill:#ee9889"/><path d="M314.2 80.3h22.6c17 0 31.5 5.8 43.3 18.2 4.8 5.1 10.1 9.9 14.1 15.6 11.2 15.6 9.1 35.2-4.8 50.4-4.5 5-9.1 9.9-13.4 14.6 6 1.9 13.1 3.7 20 6.3 31.3 11.5 56.1 31.3 74.5 59.1 12.1 18.3 20.2 38.3 23.5 59.9 4.3 28.1 1.2 55.4-9.7 81.6-1.9 4.5-1 6.7 2 10 6.6 7.4 13.6 14.7 18.3 23.3 15.5 28.6 5.4 64.6-21.9 82.2-21.6 14-52.1 14.2-74.8-3.6-8.7 6.5-18.3 11.2-29.2 12.9-4.2.6-8.4 1.1-12.6 1.1-83.7.1-167.5.1-251.2.1h-2.6c-.1-1-.3-1.8-.3-2.7.2-12.3-.3-24.7.8-36.9 1.7-18.8 10.9-33.7 26.4-44.6 3.6-2.6 5.2-5 5.1-9.6-.3-14.3-.1-28.6-.1-42.9 0-1.4-.2-3.1-1-4-12.3-13.7-18.7-30.5-24.7-47.4-1.9-5.5-4-10.9-5.6-16.4-.8-2.8-2.2-3.6-5-3.6-17.9.5-35-2.9-50.8-11.5-31.2-17-50.5-43-55.5-78.4-1.8-12.6-1-25.6-1.2-38.4 0-.9.7-2.3 1.5-2.8 25.8-15.3 51.4-30.8 77.5-45.5 13.9-7.8 29.4-11.6 45.2-13.8 2-.3 4.3-1.5 5.7-3 30.2-30 60.5-59.8 90.2-90.3 12.6-12.9 27-20 44.9-20.1 9.4-.1 18.8-1.2 27.9 2 15.8 5.5 26.1 20 26.7 38.1.3 13.3-.1 26.6-5.8 40.1m49.9 47.2c-1.9-1.9-3.7-3.7-5.6-5.7-6.7-6.9-14.4-10.1-24.4-10-29.1.5-58.3.1-87.4.1h-4.6c1.4-1.5 2.2-2.5 3.1-3.4 11.5-11.5 23.1-22.9 34.4-34.7 2.8-2.9 5.9-6.8 6.5-10.6 1.3-8 1.2-16.3 1.2-24.4 0-3.5-2.2-6.2-5.9-6.4-5.9-.4-11.8-.5-17.8-.4-8 .1-14.1 4.1-19.6 9.7-33 33.3-66.2 66.4-99.4 99.5-1.4 1.4-3.7 2.5-5.7 2.7-20.8 1.6-40.1 7.4-57.9 18.4-15.7 9.7-31.6 19-47.5 28.5-.5 1.1-1.4 2.1-1.4 3.2-.5 10.2.9 20.2 4.5 29.8 8.5 26.7 36 47.3 64.3 47.9 10.9.2 21.7 0 32.7 0q.6 1.65 1.2 3c6.6 17.9 13.4 35.7 19.8 53.7 3.8 10.8 9.7 19.9 18.8 26.9 1.9 1.5 2.7 3.1 2.7 5.7-.1 27.7-.1 55.4-.1 83.1 0 1.1-.1 2.3-.2 3.3-20.1 3.4-33.7 17.4-31.2 32 14.5 0 29.1-.1 43.7.1 2.8 0 4.1-.7 5.1-3.5 14-37.9 28.2-75.7 42.3-113.5 1.3-3.6 1.9-8.4 4.6-10.2 2.6-1.8 7.4-.6 11.2-.7H272V382c.2 27 12.2 46.8 36.1 59.1 5.4 2.8 11.6 4.3 17.6 6.5h-66.1c-3.2 0-6.4.2-9.5.7-14.4 2-26.8 16.7-26.1 31 .6 0 1.3.1 1.9.1 47.8 0 95.7.1 143.5-.1 11.5 0 20.2-5.9 25.8-15.7 2.6-4.5 3.7-9.8 5.5-14.8 7.5 6.6 15.3 13.5 23.2 20.4 7.2 6.3 15 10.7 25.3 10.4 22.2-.8 37.5-25.6 27.2-45.3-2.1-4-5.1-7.8-8.2-11.1-8.6-8.9-17.6-17.6-26.3-26.2.4-.9.5-1.3.7-1.6 17.5-26 24-54.6 19.6-85.6-3.2-22.8-12.8-43-27.9-60.2-24.9-28.4-56.6-42-94.3-41.9-37.6.1-75.3 0-112.9 0-2.1 0-3.6-.1-4.7-2.4-7.4-15.2-15-30.2-22.5-45.3 45.3 0 90.6 0 135.9-.2 3.6 0 7.6-.6 10.6-2.3 5.8-3.3 11.5-7.1 16.4-11.6 7.8-7 7.6-10.2 1.3-18.4M112 183.9c0-2.8-.2-5.6 0-8.3.9-9.2 7.4-15.5 15.9-15.6 8.1-.1 15 5.8 15.9 14.6.7 6.6.5 13.5-.2 20.1-.9 7.9-7.9 13.2-15.8 13.1-7.8-.1-14.2-5.6-15.4-13.3-.5-3.5-.4-7.1-.6-10.7 0 .1.1.1.2.1" style="fill:#060505"/></svg>