<svg xmlns="http://www.w3.org/2000/svg" xml:space="preserve" viewBox="0 0 512 512"><path d="M265.3 512c-136 0-246.7-110.7-246.7-246.7 0-5.3.1-10.4.4-15.2.8-14.8 13.4-26.1 28.2-25.3s26.1 13.4 25.3 28.2q-.3 5.85-.3 12.3c0 106.5 86.7 193.2 193.2 193.2s193.2-86.7 193.2-193.2S371.8 72.1 265.3 72.1q-6.45 0-12.3.3c-14.8.8-27.4-10.5-28.2-25.3-.8-14.7 10.5-27.3 25.3-28.1 4.8-.3 9.9-.4 15.2-.4 136 0 246.7 110.7 246.7 246.7S401.3 512 265.3 512" style="fill:#9cafb7"/><linearGradient id="spinnerr_svg__a" x1="49.834" x2="171.234" y1="331.136" y2="480.113" gradientTransform="matrix(1 0 0 -1 0 514.48)" gradientUnits="userSpaceOnUse"><stop offset="0" style="stop-color:#34bfa3"/><stop offset="1" style="stop-color:#11dbc0"/></linearGradient><circle cx="109.8" cy="109.8" r="109.8" style="fill:url(#spinnerr_svg__a)"/></svg>