<svg xmlns="http://www.w3.org/2000/svg" xml:space="preserve" viewBox="0 0 512 512"><path d="M220.7 336.9q-1.5 0 0 0c-16.1-63.1-81.6-56.6-92.3-99.5-7.2-30.2 12.3-53.2 42.5-60.4 17.8-4.5 35.3 0 48.7 11.7 1.7 1.7 4.5 3.4 6.2 6.2 0 1 1 1 1 1.7l1 1 1 1c2.7 3.4 4.5 6.2 7.2 5.5 1.7-1 3.4-5.5 3.4-7.9 1.7-14.1 1-28.5-2.7-43.6-16-64.8-80.4-103.9-145.3-87.7S-12.5 145.5 3.6 210.3c21.3 86.8 102.9 101.2 146.5 123.1 9.6 4.5 16.8 13.4 19.6 24 4.5 19.6-7.2 39.1-26.8 43.6h-1.7c-3.4 1-4.5 0-4.5 1.7 0 1 2.7 2.7 4.5 3.4 10.6 4.5 23 5.5 35.3 1.7 31.9-6.8 51.1-38.7 44.2-70.9m173.9-26.4h-4.5c-6.2 0-10.6 1.7-13.4 3.4 0 0-1 0-1 1-5.5 3.4-7.2 8.9-7.2 8.9l-25.7 81.6c-1 2.7 1 5.5 4.5 5.5h16.8c3.4 0 6.2-2.7 7.2-5.5l27.4-89.5c.4-2.7-1.7-5.4-4.1-5.4m-16.1-9H397c5.5-1 7.9-6.2 7.9-8.9s-2.7-5.5-8.9-5.5c-5.1.4-17.5 3.8-17.5 14.4q0-1.5 0 0m132.1 57.7c9.6-48.7-31.9-48.7-48-47-1 0-2.7 1-4.5 1-13.4 1.7-14.1 2.7-16.8 1.7-1 0-1.7 0-1.7-1-1-1-1-1-1.7-1-4.5-2.7-8.9-1.7-8.9-1.7h-1c-3.4 0-6.2 2.7-7.2 5.5L381 443.6s-2.7 7.2 5.5 7.2h2.7s20.2 1.7 30.2-27.4l24.7-80.6c-4.5-1.7-6.2-2.7-8.9-4.5-5.5-3.4-5.5-7.2-1.7-6.2 3.4 1 7.9 2.7 23 1.7 23 0 26.8 27.4 14.1 47-7.2 11.7-14.1 14.1-22.3 16.8-1.7 1-4.5 1.7-6.2 1.7s-7.2 1-7.2 3.4c0 1.7 1.7 3.4 5.5 3.4 3.4 1 7.9 1 12.3 1 19.1 1.8 51.7-12.6 57.9-47.9 0-1.1-.7 1.7 0 0m-171.2 0c9.6-48.7-31.9-48.7-48-47-1 0-2.7 1-4.5 1-13.4 1.7-14.1 2.7-16.8 1.7-1 0-1.7 0-1.7-1-1-1-1-1-1.7-1-4.5-2.7-8.9-1.7-8.9-1.7h-1c-3.4 0-6.2 2.7-7.2 5.5l-39.1 126.9s-2.7 7.2 5.5 7.2h2.7s20.2 1.7 30.2-27.4l27.4-88.8h10.6c23 0 26.8 27.4 14.1 47-7.2 11.7-14.1 14.1-22.3 16.8-1.7 1-4.5 1.7-6.2 1.7s-7.2 1-7.2 3.4c0 1.7 1.7 3.4 5.5 3.4 3.4 1 7.9 1 12.3 1 17.6 1 51.2-13.4 56.3-48.7 0-1.1 0 1.7 0 0" style="fill:#fff"/></svg>