<svg xmlns="http://www.w3.org/2000/svg" xml:space="preserve" viewBox="0 0 512 512"><path d="M1518.8 1934.6H415.3c-229.6 0-415.8-186.2-415.8-415.8V415.3C-.5 185.7 185.7-.5 415.3-.5h1103.6c229.6 0 415.8 186.2 415.8 415.8v1103.6c-.1 229.6-186.2 415.7-415.9 415.7" style="fill:#ffee04" transform="translate(.132 .132)scale(.26458)"/><path d="M732.6 1168.7c-2.4 39.4 6.7 71.1 39.9 91 33 21.7 87.7 33.4 178.6 33.4 92.8 0 195.4-17.7 211.8-94.8 12.2-57.3-26-73.2-126.2-85l-363.9-45.4C434.3 1038.2 328.2 951.4 367 769.5c61.6-290.3 330-381.2 731-381.2 284.5 0 633.1 51.3 592.2 355.5h-470.1c5.7-45.4-17.7-75-55.8-90.9-37.7-17.6-91.7-23.7-145.1-23.7-120.5 0-197.4 27.7-213 100.8-7.1 33.6 14.3 63.2 118.4 75.1l353.2 39.5c281.7 31.6 405 120.5 360.6 329.9-53.8 252.8-319.9 371.2-764.4 371.2-296.5 0-686.3-53.1-627.2-377.1h485.8z" style="fill:#231f20" transform="translate(.132 .132)scale(.26458)"/></svg>