<svg xmlns="http://www.w3.org/2000/svg" xml:space="preserve" viewBox="0 0 512 512"><path d="M402 0H110C49.3 0 0 49.3 0 110v292c0 60.8 49.3 110 110 110h292c60.8 0 110-49.3 110-110V110C512 49.3 462.7 0 402 0m45.3 196.9H323c1.5-12-4.7-19.8-14.8-24-10-4.7-24.3-6.3-38.4-6.3-31.9 0-52.2 7.3-56.4 26.7-1.9 8.9 3.8 16.7 31.3 19.9l93.4 10.4c74.5 8.4 107.2 31.9 95.4 87.3-14.2 66.9-84.7 98.2-202.3 98.2-78.4 0-181.6-14-165.9-99.8H194c-.6 10.4 1.8 18.8 10.6 24.1 8.7 5.7 23.2 8.8 47.3 8.8 24.6 0 51.7-4.7 56-25.1 3.2-15.2-6.9-19.4-33.4-22.5l-96.3-12c-63.1-7.8-91.2-30.8-80.9-78.9 16.3-76.8 87.3-100.9 193.4-100.9 75.2.1 167.5 13.6 156.6 94.1"/></svg>