<svg xmlns="http://www.w3.org/2000/svg" xml:space="preserve" id="spliit_svg__Layer_1" x="0" y="0" version="1.1" viewBox="0 0 512 512"><style>.spliit_svg__st1{fill:#ed5167}</style><path d="M377.5 147.2c30.7 30.7 30.7 80.5 0 111.2L223.9 412.1l-55.6-55.6z" style="fill:#ccc"/><path d="m159.4 476.6 77.1-77.1c6.8-6.8 6.8-17.9 0-24.8l-41.3-41.3c-6.8-6.8-17.9-6.8-24.8 0l-11.1 11.1c-36.5-36.5-95.6-36.5-132.1 0l-.9.9c-35.1 36.1-35.1 94.1 0 130.2 36 37 95.1 37.8 132.1 1.9.3-.2.6-.5 1-.9M51.7 452.2c-22.9-22.9-22.9-60.1 0-83s60.1-22.9 83 0 22.9 60.1 0 83-60 22.9-83 0" class="spliit_svg__st1"/><path d="M383.9 268.2H127.7c-27 0-48.9-21.9-48.9-48.9V56.8c0-27 21.9-48.9 48.9-48.9h256.2c27 0 48.9 21.9 48.9 48.9v162.5c0 27-21.9 48.9-48.9 48.9" style="fill:#72d3b8"/><path d="M389.1 93.2c-22.9 0-41.5-18.6-41.5-41.5H164.1c0 22.9-18.6 41.5-41.5 41.5V183c22.9 0 41.5 18.6 41.5 41.5h183.5c0-22.9 18.6-41.5 41.5-41.5zm-229.7 67.3c-12.4 0-22.5-10.1-22.5-22.5s10.1-22.5 22.5-22.5 22.5 10.1 22.5 22.5-10 22.5-22.5 22.5m96.4 39.3c-34.1 0-61.7-27.6-61.7-61.7s27.6-61.7 61.7-61.7 61.7 27.6 61.7 61.7-27.6 61.7-61.7 61.7m96.4-39.3c-12.4 0-22.5-10.1-22.5-22.5s10.1-22.5 22.5-22.5 22.5 10.1 22.5 22.5-10.1 22.5-22.5 22.5" style="fill:#55bc9c"/><path d="m343.7 356.5-55.6 55.6-153.6-153.7c-30.7-30.7-30.7-80.5 0-111.2z" style="fill:#e8e8e8"/><path d="M352.7 476.7c36.5 36.5 95.6 36.5 132.1 0l.9-.9c35.1-36.1 35.1-94.1 0-130.2-36-37-95.1-37.8-132.1-1.9l-.9.9-11.1-11.1c-6.8-6.8-17.9-6.8-24.8 0l-41.3 41.3c-6.8 6.8-6.8 17.9 0 24.8zm24.5-24.5c-22.9-22.9-22.9-60.1 0-83s60.1-22.9 83 0 22.9 60.1 0 83-60.1 22.9-83 0" class="spliit_svg__st1"/><circle cx="256" cy="324.4" r="20.5" style="fill:#333538"/></svg>