<svg xmlns="http://www.w3.org/2000/svg" xml:space="preserve" viewBox="0 0 512 512"><path d="M485.7 345.6c-36-37-95.1-37.8-132.1-1.9l-.9.9-11.1-11.1c-6.2-6.2-15.8-6.8-22.6-1.8l-7.3-7.3 56.2-56.2H256.6l-.6.6-121.5-121.6c-30.7 30.7-30.7 80.5 0 111.2l65.9 65.9-7.3 7.3c-6.8-5-16.5-4.4-22.6 1.8l-11.1 11.1c-36.5-36.5-95.6-36.5-132.1 0l-.9.9c-35.1 36.1-35.1 94.1 0 130.2 36 37 95.1 37.8 132.1 1.9l.9-.9.1-.1L224 412l32-32 19.5 19.5.1.1 77.1 77.1.1.1c36.5 36.5 95.6 36.5 132.1 0l.9-.9c35-36.2 35-94.3-.1-130.3M134.8 452.2c-22.9 22.9-60.1 22.9-83 0s-22.9-60.1 0-83 60.1-22.9 83 0 22.9 60 0 83M256 344.9c-11.3 0-20.5-9.2-20.5-20.5s9.2-20.5 20.5-20.5 20.5 9.2 20.5 20.5-9.2 20.5-20.5 20.5m204.3 107.3c-22.9 22.9-60.1 22.9-83 0s-22.9-60.1 0-83 60.1-22.9 83 0c22.9 22.8 22.9 60 0 83M255.8 199.8c-34.1 0-61.7-27.6-61.7-61.7s27.6-61.7 61.7-61.7 61.7 27.6 61.7 61.7c0 34-27.6 61.7-61.7 61.7m96.4-39.3c-12.4 0-22.5-10.1-22.5-22.5s10.1-22.5 22.5-22.5 22.5 10.1 22.5 22.5c0 12.5-10.1 22.5-22.5 22.5m-170.3-22.4c0 12.1-9.5 21.9-21.4 22.4L137 137c.5-11.9 10.4-21.4 22.4-21.4 12.5 0 22.5 10.1 22.5 22.5m-103 81.2V56.8c0-27 21.9-48.9 48.9-48.9H384c27 0 48.9 21.9 48.9 48.9v162.5c0 27-21.9 48.9-48.9 48.9h-3.4l9-9H259.1l-34.7-34.7h123.1c0-22.9 18.6-41.5 41.5-41.5V93.2c-22.9 0-41.5-18.6-41.5-41.5H164.1c0 22.9-18.6 41.5-41.5 41.5V147c-28.5 34.4-26.7 85.6 5.5 117.9l3.4 3.4h-3.7c-27-.1-48.9-22-48.9-49" style="fill:#fff"/></svg>