<svg xmlns="http://www.w3.org/2000/svg" xml:space="preserve" viewBox="0 0 512 512"><path d="M.1 252H253v260C113 510.4 0 396.4 0 256m511.9-4C509.8 112.5 396 0 256 0h-3v252z" style="fill:#242424"/><path d="M253 .8V252H.1C2.2 113.5 114.3 1.6 253 0zM511.9 252H253v260h3c141.4 0 256-114.6 256-256 0-1.3 0-2.7-.1-4"/><path d="M348.8 312c0 17.3-4.3 31.9-13 43.5-8.7 11.7-21 20.5-37 26.5q-24 9-57 9c-18.7 0-34.9-1.5-48.5-4.5-13.3-3-25.2-7.2-35.5-12.5v-40c10.7 5.3 23.5 10.3 38.5 15 15.3 4.3 30.9 6.5 46.5 6.5 22.3 0 38.5-3.5 48.5-10.5 10-7.3 15-17 15-29 0-6.7-1.8-12.7-5.5-18s-10.3-10.7-20-16q-13.95-7.95-40.5-18c-17.3-6.7-32.2-13.3-44.5-20s-21.8-14.7-28.5-24-10-21.3-10-36c0-22.7 9.2-40.2 27.5-52.5 18.7-12.3 43-18.5 73.1-18.5 16.3 0 31.5 1.7 45.5 5 14.3 3 27.7 7.3 40 13l-15 35c-7.3-3.3-15.2-6.2-23.5-8.5-8-2.7-16.2-4.7-24.5-6-8.3-1.7-16.8-2.5-25.5-2.5-18 0-31.9 3-41.5 9-9.3 5.7-14 13.5-14 23.5 0 7.3 2.2 13.7 6.5 19 4.3 5 11.5 10 21.5 15 10.3 4.7 24 10.3 41 17q25.5 9.45 43.5 19.5c12 6.7 21.2 14.8 27.5 24.5 6.2 9.4 9.4 21.2 9.4 35.5" style="fill:#22d3ee"/></svg>