<svg xmlns="http://www.w3.org/2000/svg" xml:space="preserve" viewBox="0 0 512 512"><path d="M256 0C114.6 0 0 114.6 0 256s114.6 256 256 256 256-114.6 256-256S397.4 0 256 0m.9 62.5c99.7 1 187.9 73.7 179.9 85.5-13.7 20.3-78.8-34.2-178.5-35.2s-145.9 50.5-182.5 31.7c-12.6-6.5 81.4-83 181.1-82m179.9 159.2c-12.5 18.4-67.3-24.9-152-33.7v107.7c20 .4 43.1 1.7 45.6 5.9 4.1 7.1-27.9 60.3-32 67.5-4.1 7.1-34.2 61.4-42.4 61.4s-38.3-54.3-42.4-61.4-36.1-60.3-32-67.5c2.4-4.1 24.4-5.5 44-5.9V188.2c-77.6 8.5-117.5 46.7-149.7 30.1-12.7-6.5 81.4-83 181.1-82 99.6.9 187.8 73.7 179.8 85.4"/><path d="M330.4 301.8c-2.5-4.2-25.6-5.6-45.6-5.9V169.3c0-3.8-7.1-6.8-16-6.8h-27.3c-8.8 0-16 3.1-16 6.8v126.5c-19.6.4-41.6 1.8-44 5.9-4.1 7.1 27.9 60.3 32 67.5 4.1 7.1 34.2 61.4 42.4 61.4s38.3-54.3 42.4-61.4c4.2-7.1 36.2-60.3 32.1-67.4" style="opacity:.5"/></svg>