<?xml version="1.0" encoding="utf-8"?>
<!-- Generator: Adobe Illustrator 28.2.0, SVG Export Plug-In . SVG Version: 6.00 Build 0)  -->
<svg version="1.1" id="Layer_1" xmlns="http://www.w3.org/2000/svg" xmlns:xlink="http://www.w3.org/1999/xlink" x="0px" y="0px"
	 viewBox="0 0 512 512" style="enable-background:new 0 0 512 512;" xml:space="preserve">
<style type="text/css">
	.st0{fill:#FFFFFF;}
</style>
<path class="st0" d="M403.4,0H108.6C48.6,0,0,48.6,0,108.6v294.8C0,463.4,48.6,512,108.6,512h294.8c60,0,108.6-48.6,108.6-108.6
	V108.6C512,48.6,463.4,0,403.4,0z M256,465.5c-115.6,0-209.5-93.8-209.5-209.5S140.4,46.5,256,46.5S465.5,140.4,465.5,256
	S371.6,465.5,256,465.5z"/>
<path class="st0" d="M431,174.7c-1.8-4.3-5.4-7.7-9.9-9.2c-4.5-1.6-9.4-1.1-13.5,1.2L319,216.6c-14.3,8-23.1,23.1-23.1,39.4
	c0,0,0,0.1,0,0.1c0,0,0,0.1,0,0.1c0,16.3,8.8,31.4,23,39.4l65.4,36.9l0.1-0.2l23.3,13.1c4.1,2.3,8.9,2.7,13.4,1.2s8.1-4.9,9.9-9.2
	v-0.1C453,285.3,453,226.7,431,174.7z"/>
<path class="st0" d="M238.7,292.3c-3.6-2.1-7.4-3.6-11.3-4.6c-11.5-3.1-24-1.5-34.6,4.8l-64.6,38.2l0.1,0.2l-22.9,13.6
	c-4.1,2.4-6.9,6.4-7.8,11c-0.9,4.7,0.2,9.4,3,13.2v0.1c34,45.1,84.8,74.4,140.8,81.3c4.7,0.6,9.4-0.9,13-4c3.6-3.1,5.6-7.6,5.7-12.3
	l1.2-101.8C261.5,315.6,252.8,300.5,238.7,292.3z"/>
<path class="st0" d="M260.3,182.9l-0.7-75.1h-0.3L259,81.1c0-4.7-2.1-9.2-5.6-12.3s-8.2-4.6-12.9-4h-0.1
	c-56,6.9-106.8,36.2-140.8,81.3c-2.8,3.8-3.9,8.6-3,13.2c0.9,4.7,3.7,8.7,7.8,11.1l87.4,51.9c14.1,8.4,31.6,8.5,45.7,0.3
	c0.9-0.5,1.8-1.1,2.7-1.7C252.8,212.5,260.5,198.2,260.3,182.9z"/>
</svg>
