<svg xmlns="http://www.w3.org/2000/svg" xml:space="preserve" viewBox="0 0 512 512"><path d="M256 0C114.7 0 0 114.7 0 256s114.7 256 256 256 256-114.7 256-256S397.3 0 256 0" style="fill:#1ed760"/><path d="M419.7 230.3c-5.4 0-8.7-1.3-13.3-4-73.5-43.9-204.9-54.4-290-30.7-3.7 1-8.4 2.7-13.3 2.7-13.6 0-24.1-10.6-24.1-24.4 0-14 8.7-22 18-24.7 36.3-10.6 77-15.7 121.3-15.7 75.4 0 154.3 15.7 212 49.3 8.1 4.6 13.3 11 13.3 23.3.1 14.2-11.3 24.2-23.9 24.2m-32 78.7c-5.4 0-9-2.4-12.7-4.3-64.5-38.2-160.7-53.6-246.3-30.3-5 1.3-7.6 2.7-12.3 2.7-11 0-20-9-20-20s5.4-18.4 16-21.4c28.7-8.1 58-14 101-14 67 0 131.7 16.6 182.7 47 8.4 5 11.7 11.4 11.7 20.3-.2 11-8.8 20-20.1 20m-27.8 67.7c-4.3 0-7-1.3-11-3.7-64.4-38.8-139.4-40.5-213.4-25.3-4 1-9.3 2.7-12.3 2.7-10 0-16.3-7.9-16.3-16.3 0-10.6 6.3-15.7 14-17.3 84.5-18.7 170.9-17 244.6 27 6.3 4 10 7.6 10 17s-7.2 15.9-15.6 15.9"/></svg>