<?xml version="1.0" encoding="utf-8"?>
<!-- Generator: Adobe Illustrator 28.2.0, SVG Export Plug-In . SVG Version: 6.00 Build 0)  -->
<svg version="1.1" id="Layer_1" xmlns="http://www.w3.org/2000/svg" xmlns:xlink="http://www.w3.org/1999/xlink" x="0px" y="0px"
	 viewBox="0 0 512 512" style="enable-background:new 0 0 512 512;" xml:space="preserve">
<style type="text/css">
	.st0{fill:url(#SVGID_1_);}
	.st1{fill:url(#SVGID_00000076599588835492564520000014995608079501889152_);}
	.st2{fill:url(#SVGID_00000051351585142565224320000003756879891532091520_);}
	.st3{fill:url(#SVGID_00000034067300920998230490000008510322394449671091_);}
	.st4{fill:url(#SVGID_00000011713519274984983850000009274010764752688018_);}
	.st5{fill:url(#SVGID_00000150066026563897433980000006003256262631212730_);}
	.st6{fill:url(#SVGID_00000139289149386108689150000000634466542983323552_);}
</style>
<linearGradient id="SVGID_1_" gradientUnits="userSpaceOnUse" x1="-163.922" y1="321.3834" x2="-263.1271" y2="408.2493" gradientTransform="matrix(2.314322e-16 -3.7796 3.7796 2.314322e-16 -1120.5499 -548.3996)">
	<stop  offset="0" style="stop-color:#FF8AA1"/>
	<stop  offset="1" style="stop-color:#FFD850"/>
</linearGradient>
<path class="st0" d="M0,256L0,256C0,114.6,114.6,0,256,0l0,0c141.4,0,256,114.6,256,256l0,0c0,141.4-114.6,256-256,256l0,0
	C114.6,512,0,397.4,0,256z"/>
<linearGradient id="SVGID_00000083075752913543725440000011333292192242404796_" gradientUnits="userSpaceOnUse" x1="-174.9478" y1="332.483" x2="-287.0809" y2="418.6732" gradientTransform="matrix(2.024893e-16 -3.3069 3.3083 2.025726e-16 -986.8221 -508.3277)">
	<stop  offset="0" style="stop-color:#F9F9F9"/>
	<stop  offset="1" style="stop-color:#FFFFFF;stop-opacity:0.973"/>
</linearGradient>
<path style="fill:url(#SVGID_00000083075752913543725440000011333292192242404796_);" d="M31.9,256L31.9,256
	c0-123.7,100.3-224,224-224h0.2c123.7,0,224,100.3,224,224l0,0c0,123.7-100.3,224-224,224h-0.2C132.2,480,31.9,379.7,31.9,256z"/>
<linearGradient id="SVGID_00000017483717132890975830000016034640772727782307_" gradientUnits="userSpaceOnUse" x1="-204.6108" y1="346.6935" x2="-301.1178" y2="431.3118" gradientTransform="matrix(1.750299e-16 -2.8585 2.8596 1.751016e-16 -859.4651 -470.3161)">
	<stop  offset="0" style="stop-color:#857679"/>
	<stop  offset="1" style="stop-color:#110C0C"/>
</linearGradient>
<path style="fill:url(#SVGID_00000017483717132890975830000016034640772727782307_);" d="M62.3,256L62.3,256
	c0-106.9,86.7-193.6,193.6-193.6h0.2c106.9,0,193.6,86.7,193.6,193.6l0,0c0,106.9-86.7,193.6-193.6,193.6h-0.2
	C149,449.6,62.3,362.9,62.3,256z"/>
<linearGradient id="SVGID_00000102538806380934794690000012105278821695556505_" gradientUnits="userSpaceOnUse" x1="-179.9274" y1="367.8123" x2="-325.4941" y2="360.4908" gradientTransform="matrix(0 -2.8585 2.8596 0 -859.4915 -470.3161)">
	<stop  offset="0" style="stop-color:#FFA56A;stop-opacity:0.286"/>
	<stop  offset="1" style="stop-color:#474747;stop-opacity:2.600000e-02"/>
</linearGradient>
<path style="fill:url(#SVGID_00000102538806380934794690000012105278821695556505_);" d="M255.8,62.4
	C149.1,62.2,62.4,148.5,62.2,255.1c0,0.2,0,0.3,0,0.5v0.8c0,93.8,67.4,174,159.7,190.2l88.8-376.4C293,65,274.5,62.4,256,62.4H255.8
	z"/>
<linearGradient id="SVGID_00000172411446295417438140000014376141704072422017_" gradientUnits="userSpaceOnUse" x1="-22.3387" y1="409.0251" x2="19.5584" y2="407.7656" gradientTransform="matrix(3.8615 0 0 3.8615 279.5358 -1323.8016)">
	<stop  offset="0" style="stop-color:#573A3D;stop-opacity:0"/>
	<stop  offset="1" style="stop-color:#000000;stop-opacity:0.314"/>
</linearGradient>
<path style="fill:url(#SVGID_00000172411446295417438140000014376141704072422017_);" d="M181.6,122.7c-1.2,0-2,0.2-2.7,0.3
	c-13.6,1.4-24,12.8-24.2,26.6V160c0,0,0,0,0,0.1c0.1,9.7,5.5,18.6,14,23.3l129.3,71l-129,74h0.2c-0.2,0-0.4,0.1-0.6,0.2
	c-8.5,4.7-13.7,13.7-13.8,23.4v11c0.2,20,23,32.8,40.3,22.8l150.8-87.2l0,0h0.1c8.3-4.8,13.3-13.8,13.2-23.4V234
	c0-9.7-5.3-18.6-13.7-23.4l0,0c-50.3-28.1-150.7-84.4-150.7-84.4l0,0c-1.9-1-3.9-1.7-6-2C186.5,123.3,184.1,122.8,181.6,122.7
	L181.6,122.7z"/>
<linearGradient id="SVGID_00000013871988461721417670000018402092290682295439_" gradientUnits="userSpaceOnUse" x1="-22.8275" y1="440.9131" x2="-1.006" y2="384.9873" gradientTransform="matrix(3.8615 0 0 3.8615 279.3468 -1323.8016)">
	<stop  offset="0" style="stop-color:#F87191"/>
	<stop  offset="1" style="stop-color:#FFDB80"/>
</linearGradient>
<path style="fill:url(#SVGID_00000013871988461721417670000018402092290682295439_);" d="M180.7,124.5c-1,0-1.7,0.1-2.4,0.3
	c-12.8,1.3-22.6,12-22.7,24.8V160c0.1,9.1,5.1,17.4,13.1,21.8L299.9,254v0.8l-131.4,75.3l0,0c-7.9,4.4-12.9,12.8-12.9,21.9v11
	c0.2,18.7,21.6,30.7,37.7,21.3L344,297h0.1c7.7-4.5,12.5-12.9,12.4-21.9v-41.4c-0.1-9-5-17.3-12.9-21.8l-150.7-84.3
	c-1.8-1-3.8-1.7-5.8-1.9C185,124.9,182.9,124.5,180.7,124.5L180.7,124.5z"/>
<linearGradient id="SVGID_00000000931521879568014780000012932464793668017842_" gradientUnits="userSpaceOnUse" x1="-22.8575" y1="390.0831" x2="14.667" y2="395.3927" gradientTransform="matrix(3.8615 0 0 3.8615 279.3468 -1323.8054)">
	<stop  offset="0" style="stop-color:#FFCD91"/>
	<stop  offset="1" style="stop-color:#FC7778"/>
</linearGradient>
<path style="fill:url(#SVGID_00000000931521879568014780000012932464793668017842_);" d="M180.7,124.5c-1,0-1.7,0.1-2.4,0.3
	c-12.8,1.3-22.6,12-22.7,24.8v10.3c0.1,9.2,5.1,17.6,13.1,22L299.9,254v0.6l20.3-11.3c44.2-23.1,21.4-32.3-13-51.5
	c-50.2-28.1-114.4-64.1-114.4-64.1c-1.8-1-3.8-1.6-5.8-1.9C185,124.9,182.9,124.5,180.7,124.5L180.7,124.5z"/>
</svg>
