<svg xmlns="http://www.w3.org/2000/svg" xml:space="preserve" viewBox="0 0 512 512"><path d="M404.1 108.5c12.3-6.2 20-18.9 20-32.9 0-56-58-92.5-107.3-67.6L118.5 108.3c-18.8 9.5-30.6 28.9-30.6 50.2v109.8c0 19.8 6.1 37.6 16.3 52-18.2-28 4.9-62.8 35.8-78.4" style="fill:#55c6cc"/><path d="M110.1 401.4c-13.7 6.9-22.3 21.1-22.3 36.6 0 54.9 56.8 90.6 105.1 66.2l205.2-103.8c15.9-8 26-24.5 26-42.6V242.7c0-19.4-5.9-36.8-15.7-50.9 17.1 27.9-5.9 62-36.4 77.4" style="fill:#135d66"/><path d="M140 241.9c-32 16.2-55.7 52.9-33.7 81.4 24.4 31.7 69 45.3 108.9 25.1L372 269.2c32-16.2 55.7-52.9 33.7-81.4-24.4-31.7-69-45.3-108.9-25.1z" style="fill:#157983"/></svg>