<svg xmlns="http://www.w3.org/2000/svg" xml:space="preserve" viewBox="0 0 512 512"><path d="M0 102.6C0 46.2 45.8.4 102.4.4h307.2C466.2.4 512 46.2 512 102.6v306.7c0 56.5-45.8 102.2-102.4 102.2H102.4C45.8 511.6 0 465.8 0 409.4zm102.4-57.5h307.2c31.8 0 57.6 25.7 57.6 57.5v306.7c0 31.8-25.8 57.5-57.6 57.5H102.4c-31.8 0-57.6-25.7-57.6-57.5V102.6c0-31.7 25.8-57.5 57.6-57.5m207.7 198.1v119.7h44.7V243.2c0-54.1-45-97.9-100.6-97.9s-100.6 43.8-100.6 97.9v119.7h44.7V243.2c0-30 25-54.4 55.9-54.4s55.9 24.3 55.9 54.4" style="fill-rule:evenodd;clip-rule:evenodd;fill:#086dd6"/></svg>