<svg xmlns="http://www.w3.org/2000/svg" xml:space="preserve" viewBox="0 0 512 512"><path d="M387.8 426.8c31.1-2.3 44.9-17.2 48.4-50.7 2.8-26 3.8-39.1 5.1-65.2 1.6-31.1 17.4-49.1 32.7-57.4 4.6-2.6 4.6-8.5 0-11.4-15.9-9.5-31.4-29.8-32.8-56.5-1.4-25.6-2.4-38.4-5.1-64-3.9-36.1-15.6-47.7-46.6-50-93-5.8-186.2-5.8-279.2 0-31.1 2.3-42.8 13.9-46.6 50-2.7 25.6-3.7 38.4-5.1 64-1.4 26.7-16.8 47-32.8 56.5-4.6 2.6-4.6 8.8 0 11.4 15.3 8 31.1 26 32.7 57.4 1.4 26 2.4 39.1 5.1 65.2 3.5 33.5 17.3 48.4 48.4 50.7 92.4 5.7 183.4 5.7 275.8 0" style="opacity:.4"/><path d="M508.1 248c-17.9-10.8-35.3-33.7-36.6-64-1.3-29-2.3-43.5-5-72.5-3.7-40.8-16.7-53.8-52-56.1-105.6-5.7-211.5-5.7-317.1.1-35.3 2.2-48.3 15.2-52 56.1-2.6 29-3.6 43.5-5 72.5-1.4 30.3-18.7 53.2-36.6 64-2.4 1.3-3.9 3.8-3.9 6.5s1.5 5.2 3.9 6.5c17.2 9.1 35 29.4 36.5 64.9 1.3 29.5 2.3 44.2 5 73.8 3.4 37.9 18.7 54.6 54 56.8 104.6 5.6 208.6 5.6 313.2 0v-.1c35.3-2.2 50.6-19 54-56.8 2.7-29.5 3.7-44.2 5-73.8 1.6-35.2 19.4-55.5 36.5-64.9 5.3-3 5.3-9.7.1-13m-34.1 5.6c-15.3 8.3-31.1 26.3-32.7 57.4-1.4 26.1-2.4 39.1-5.1 65.2-3.6 33.5-17.4 48.4-48.4 50.7h.1c-92.4 5.7-183.4 5.7-275.8 0-31.1-2.3-44.9-17.2-48.4-50.7-2.8-26.1-3.8-39.1-5.1-65.2-1.6-31.4-17.4-49.3-32.7-57.4-4.6-2.6-4.6-8.8 0-11.4 16-9.5 31.4-29.8 32.8-56.5 1.4-25.6 2.4-38.4 5.1-64 3.8-36.1 15.6-47.7 46.6-50 93-5.8 186.2-5.8 279.2 0 31.1 2.3 42.8 13.9 46.6 50 2.7 25.6 3.7 38.4 5.1 64 1.4 26.7 16.9 47 32.8 56.5 4.5 2.9 4.5 8.8-.1 11.4m-299.8 51.3c3.4-4.4 7.3-6.4 11.8-6.4 4.9 0 9.8 2 14.7 5.4 15.7 10.3 33.3 16.3 54.4 16.3 16.2 0 28.9-6.9 28.9-20.7 0-35.9-119.1-16.3-119.1-97 0-43.3 35.3-67.4 80.9-67.4 32.4 0 55.9 9.4 73.5 20.7 4.4 2.9 7.3 8.8 7.3 14.7 0 3.4-1 6.9-2.9 9.8l-5.4 7.9c-3.9 5.4-8.3 7.9-13.7 7.9-3.9 0-7.9-1.5-12.3-3.4-13.2-6.9-27-10.3-43.6-10.3s-27.4 9.4-27.4 19.2c0 36.9 119.1 16.7 119.1 95 0 43.8-35.3 70.9-89.2 70.9-34.3 0-59.3-10.3-82.3-30.5-3.9-3.4-5.4-7.9-5.4-12.3 0-3.4 1-7.4 3.4-10.3z"/></svg>