<svg xmlns="http://www.w3.org/2000/svg" xml:space="preserve" viewBox="0 0 512 512"><linearGradient id="steam_svg__a" x1="-97.24" x2="-95.533" y1="-.247" y2="-.247" gradientTransform="rotate(90 -14494.934 14676.98)scale(299.9991)" gradientUnits="userSpaceOnUse"><stop offset="0" style="stop-color:#111d2e"/><stop offset=".21" style="stop-color:#051839"/><stop offset=".41" style="stop-color:#0a1b48"/><stop offset=".58" style="stop-color:#132e62"/><stop offset=".74" style="stop-color:#144b7e"/><stop offset=".87" style="stop-color:#136497"/><stop offset="1" style="stop-color:#1387b8"/></linearGradient><path d="M10.6 329.6C42.2 435.1 140 512 255.8 512c141.4 0 256-114.6 256-256S397.2 0 255.8 0C120.2 0 9.2 105.5.4 239c16.6 27.8 23 45 10.2 90.6" style="fill:url(#steam_svg__a)"/><path d="M242.6 191.9v1.3l-62.6 91c-10.1-.5-20.3 1.3-30 5.3-4.3 1.7-8.2 3.9-12 6.3L.5 239.1s-3.2 52.4 10.1 91.4l97.2 40.1c4.9 21.8 19.9 41 41.9 50.2 36.1 15.1 77.8-2.1 92.8-38.3 3.9-9.4 5.7-19.4 5.5-29.2l89.6-64.1h2.2c53.6 0 97.2-43.7 97.2-97.4s-43.6-97.4-97.2-97.4c-53.5.1-97.2 43.8-97.2 97.5m-15 184.4c-11.6 27.9-43.7 41.2-71.6 29.6-12.9-5.4-22.6-15.2-28.2-26.9l31.7 13.1c20.6 8.6 44.2-1.2 52.7-21.8 8.6-20.6-1.2-44.2-21.7-52.8l-32.7-13.6c12.6-4.8 27-5 40.4.6 13.5 5.6 24 16.2 29.6 29.8 5.5 13.6 5.4 28.5-.2 42m112.3-119.5c-35.7 0-64.8-29.1-64.8-64.9s29.1-64.9 64.8-64.9 64.8 29.1 64.8 64.9-29.1 64.9-64.8 64.9m-48.6-65c0-26.9 21.8-48.8 48.7-48.8s48.7 21.8 48.7 48.8c0 26.9-21.8 48.7-48.7 48.7s-48.7-21.8-48.7-48.7" style="fill:#fff"/></svg>