<?xml version="1.0" encoding="utf-8"?>
<!-- Generator: Adobe Illustrator 28.2.0, SVG Export Plug-In . SVG Version: 6.00 Build 0)  -->
<svg version="1.1" id="Layer_1" xmlns:svg="http://www.w3.org/2000/svg"
	 xmlns="http://www.w3.org/2000/svg" xmlns:xlink="http://www.w3.org/1999/xlink" x="0px" y="0px" viewBox="0 0 512 512"
	 style="enable-background:new 0 0 512 512;" xml:space="preserve">
<style type="text/css">
	.st0{opacity:0.5;}
</style>
<path d="M390.4,46.3l-0.4,0.1l0.2-14.4c0.3-20.4-18.4-35.6-38.1-31.3l-262,57.7C63.6,64.3,44.7,87.8,44.7,115v332.8
	c0,23.7,17.7,43.5,41,46.2l137.5,18l121.1-120.5l46.1-47.3V46.3z M311.3,327.6c0,0-4.5,69.6-77.7,77.6c-12.9,1.4-26,0.5-38.5-2.5
	c-17.4-3.8-48.1-11.7-63.1-21l-2.8-79.4h7.4c0,0,14.6,35.3,56.1,52.4c7.7,3.1,16.1,4.3,24.3,3.1c10.3-1.5,22.4-7.1,27.3-23.8
	c0,0,8.3-24.4-34.7-37.8c-34.4-10.8-66.8-21.8-80.2-58.1c-6.3-17.2-7.4-36.2-3.1-54.5c5.7-23.8,22-57.3,68-71.7
	c0,0,60.5-16.4,102,5.8l-1.8,94.8h-10.1v0c0,0-23.5-30.6-40.9-38.9c-11.1-5.2-27.5-7.2-40.4-0.8c-19,9.5-21,36.2-3.5,46.8
	c4.1,2.6,9.7,4.8,16.9,6.5C255.2,235,319.1,253.4,311.3,327.6z M467.3,265.4l-1.5,1.6l-64.4,65V43.9l25.5-5.6
	c19.5-4.3,38,10.4,38.2,30.4L467.3,265.4z"/>
<polygon class="st0" points="401.4,347.7 401.4,348.7 352.1,399.3 244.3,506.5 428.9,458.4 463.4,285.1 "/>
</svg>
