<svg xmlns="http://www.w3.org/2000/svg" xml:space="preserve" viewBox="0 0 512 512"><path d="M25.6 353.4c0-39.9.2-79.8-.1-119.7-.1-12.9 3.9-23.4 13.3-32.3 14-13.4 27.6-27.2 41.4-40.8 10.4-10.2 24.1-10.5 33.8-1 9.5 9.4 9.3 23.6-.8 33.9-11.6 11.8-23.7 23.2-35 35.3-3.1 3.3-5.5 8.7-5.5 13.1-.3 70-.3 139.9-.2 209.9 0 10.4 3.1 13.5 13.7 13.5 16 .1 32.1.4 48-.2 4.5-.2 10.1-2.2 13.3-5.4 22.2-21.5 43.9-43.5 65.7-65.4 8-8 7.8-12.2-.4-20.5-27.4-27.4-54.8-54.8-82.2-82.3-16.6-16.7-16.8-36-.2-52.5 33.7-33.4 67.5-66.8 101.4-100.1 14.9-14.7 34.4-14.4 49.4.4 34 33.6 67.9 67.2 101.8 100.8 15 14.9 15.2 34.8.1 50.1-27.5 27.7-55.2 55.3-82.8 82.9-9.4 9.5-9.5 12.8 0 22.2 24.8 24.9 49.7 49.7 74.5 74.5 11.6 11.6 12.4 25.4 2 35.6-9.7 9.5-23.7 8.4-35-2.8-24.9-24.8-49.7-49.7-74.5-74.5-8.8-8.8-13.1-8.8-21.7-.2-23.7 23.6-47.4 47.1-70.9 71-8.8 9-18.8 13.3-31.5 13-27.2-.5-54.5-.1-81.8-.2-21.2-.1-35.4-14-35.5-35.4-.4-40.9-.3-81.9-.3-122.9m313.2-88.6c-2.6-3.6-4.4-7-7.1-9.6-22.1-22-44.3-43.9-66.5-65.8-7-6.9-11.6-7-18.6 0-22.4 22.1-44.8 44.3-67 66.5-6.8 6.7-6.8 12-.2 18.7 22.4 22.5 44.9 45 67.4 67.4 6.5 6.5 11.8 6.7 18.1.5 22.9-22.8 45.8-45.6 68.5-68.6 2.2-2.3 3.4-5.6 5.4-9.1m147.7-31.1c0-11.4-2.4-21.5-10.9-29.9-42.6-42-85-84.3-127.5-126.4q-33.75-33.6-67.8-66.9c-13.6-13.4-33.8-14.2-47-1.4-24 23.3-47.7 46.8-71.2 70.7-3.5 3.5-6 9-6.9 13.9-1.8 9.9 3.7 19 12.8 23.4s19.1 2.9 27.1-4.9c17.3-16.8 34.4-34 51.7-50.8 7.4-7.2 11.4-7.1 18.5 0 56.1 55.5 112.3 111 168.1 166.8 3.6 3.6 6.1 10.2 6.1 15.4.4 69.4.3 138.8.3 208.2 0 12.6-.2 25.3.1 37.9.3 11.9 9.7 21.4 21.3 22.1 12.6.7 22.7-7.1 24.6-19.3.6-3.9.7-7.8.7-11.8V357.6c0-41.3-.1-82.6 0-123.9" style="fill:#12415a"/></svg>