<?xml version="1.0" encoding="utf-8"?>
<!-- Generator: Adobe Illustrator 28.2.0, SVG Export Plug-In . SVG Version: 6.00 Build 0)  -->
<svg version="1.1" id="Layer_1" xmlns="http://www.w3.org/2000/svg" xmlns:xlink="http://www.w3.org/1999/xlink" x="0px" y="0px"
	 viewBox="0 0 512 512" style="enable-background:new 0 0 512 512;" xml:space="preserve">
<path id="Path" d="M256,93.4c141.4,0,256,114.6,256,256c0,24-3.3,47.2-9.5,69.3h-48.8c7.6-21.7,11.7-45,11.7-69.3
	C465.4,233.7,371.6,140,256,140S46.6,233.7,46.6,349.4c0,7.9,0.4,15.8,1.3,23.5h60.9h229.3c19.1,0,34.5-15.5,34.5-34.5
	c0-19.1-15.5-34.5-34.5-34.5h-0.5h-20.1l-2.9-19.9c-4.2-29-29.2-50.7-58.8-50.7c-26.6,0-49.7,17.6-57,42.7l-4.9,16.7h-17.4h-5.3
	c-17.7,0-32.1,14.4-32.1,32.1c0,0.5,0,1.1,0,1.6H92.4c0-0.2,0-0.4,0-0.6v-1c0-39.6,29.2-72.3,67.2-77.9l0.6-0.1l0.4-0.8
	c17.3-35.3,53.2-58.9,93.8-59.4h1.4c46.5,0,86.5,30.1,100.6,72.6l0.1,0.2l1.1,0.3c35,8.6,61,39.9,61.6,77.4v1.3
	c0,40.9-30.3,74.8-69.7,80.3H9.5c-6.2-22-9.5-45.3-9.5-69.3C0,208,114.6,93.4,256,93.4z"/>
</svg>
