<?xml version="1.0" encoding="utf-8"?>
<!-- Generator: Adobe Illustrator 28.2.0, SVG Export Plug-In . SVG Version: 6.00 Build 0)  -->
<svg version="1.1" id="svg1" xmlns:svg="http://www.w3.org/2000/svg"
	 xmlns="http://www.w3.org/2000/svg" xmlns:xlink="http://www.w3.org/1999/xlink" x="0px" y="0px" viewBox="0 0 512 512"
	 style="enable-background:new 0 0 512 512;" xml:space="preserve">
<style type="text/css">
	.st0{fill:#FFFFFF;}
	.st1{fill:#FC5200;}
</style>
<circle id="path2" class="st0" cx="256.5" cy="256.5" r="254.7"/>
<path id="rect1-8" class="st1" d="M256.2,0C135.9,0.3,31.9,84.3,6.4,201.9c6.8-4.7,15-7.5,23.9-7.5c23.2,0,42.1,18.9,42.1,42.1
	c0,5.9-1.2,11.4-3.4,16.5l63.6,54c7.7-10.2,19.9-16.9,33.6-16.9c12.6,0,23.9,5.6,31.6,14.3l82.6-120.2c-7.8-7.6-12.7-18.3-12.7-30.1
	c0-23.2,18.9-42.1,42.1-42.1c23.2,0,42.1,18.9,42.1,42.1c0,2.7-0.3,5.4-0.8,8l97.7,75.4c7.7-10,19.7-16.4,33.3-16.4
	c11.4,0,21.7,4.6,29.3,12C499.4,101.1,388.8,0,256.2,0z M309.8,129.2c-13.7,0-24.9,11.2-24.9,24.9c0,13.7,11.2,24.9,24.9,24.9
	c13.7,0,24.9-11.2,24.9-24.9C334.7,140.4,323.5,129.2,309.8,129.2z M344.1,178.5c-7.6,10.7-20.2,17.8-34.3,17.8
	c-5.2,0-10.2-1-14.9-2.8l-88,128.1c0.9,3.4,1.4,7,1.4,10.6c0,23.2-18.9,42.1-42.1,42.1s-42.1-18.9-42.1-42.1c0-3.1,0.4-6.1,1-9
	l-66-56.1c-7.5,7.1-17.6,11.4-28.8,11.4c-11.6,0-22.1-4.8-29.7-12.4C2.7,320.6,22.2,373,56.1,415.6v-133
	c0.9-0.5,18.3,15.7,18.3,15.7v137.7c22.1,22.6,48.3,41,77.1,54.1V385c4.7,2.3,9.6,3.7,14.7,3.7c1.3,0,2.5-0.1,3.7-0.3V497
	c24.8,8.9,50.7,14,77,15V292.7l18.5-28.1V512c25.9-1,51.5-5.9,75.9-14.5V196.9c1.7-1.1,20.8,12.8,20.8,12.8v280
	c28.3-13.1,54.1-31.2,75.9-53.6V298.4c5,6.3,11.3,11.4,18.5,15.1v102c27.8-34.8,46.1-76.2,53-120.2c-7.4,6.3-16.8,10.1-27.2,10.1
	c-23.2,0-42.1-18.9-42.1-42.1c0-3.4,0.4-6.7,1.2-9.9L344.1,178.5z M30.2,211.6c-13.7,0-24.9,11.2-24.9,24.9
	c0,13.7,11.2,24.9,24.9,24.9s24.9-11.2,24.9-24.9C55.1,222.7,44,211.6,30.2,211.6z M482.1,238.4c-13.7,0-24.9,11.2-24.9,24.9
	c0,13.7,11.2,24.9,24.9,24.9c13.7,0,24.9-11.2,24.9-24.9C507,249.6,495.9,238.4,482.1,238.4z M166.2,307.3
	c-13.7,0-24.9,11.2-24.9,24.9c0,13.7,11.2,24.9,24.9,24.9c13.7,0,24.9-11.2,24.9-24.9C191.1,318.5,179.9,307.3,166.2,307.3z"/>
</svg>
