<svg xmlns="http://www.w3.org/2000/svg" xml:space="preserve" viewBox="0 0 512 512"><circle cx="256.5" cy="256.5" r="254.7" style="fill:#fff"/><path d="M256.2 0C135.9.3 31.9 84.3 6.4 201.9c6.8-4.7 15-7.5 23.9-7.5 23.2 0 42.1 18.9 42.1 42.1 0 5.9-1.2 11.4-3.4 16.5l63.6 54c7.7-10.2 19.9-16.9 33.6-16.9 12.6 0 23.9 5.6 31.6 14.3l82.6-120.2c-7.8-7.6-12.7-18.3-12.7-30.1 0-23.2 18.9-42.1 42.1-42.1s42.1 18.9 42.1 42.1c0 2.7-.3 5.4-.8 8l97.7 75.4c7.7-10 19.7-16.4 33.3-16.4 11.4 0 21.7 4.6 29.3 12C499.4 101.1 388.8 0 256.2 0m53.6 129.2c-13.7 0-24.9 11.2-24.9 24.9s11.2 24.9 24.9 24.9 24.9-11.2 24.9-24.9-11.2-24.9-24.9-24.9m34.3 49.3c-7.6 10.7-20.2 17.8-34.3 17.8-5.2 0-10.2-1-14.9-2.8l-88 128.1c.9 3.4 1.4 7 1.4 10.6 0 23.2-18.9 42.1-42.1 42.1s-42.1-18.9-42.1-42.1c0-3.1.4-6.1 1-9l-66-56.1c-7.5 7.1-17.6 11.4-28.8 11.4-11.6 0-22.1-4.8-29.7-12.4C2.7 320.6 22.2 373 56.1 415.6v-133c.9-.5 18.3 15.7 18.3 15.7V436c22.1 22.6 48.3 41 77.1 54.1V385c4.7 2.3 9.6 3.7 14.7 3.7 1.3 0 2.5-.1 3.7-.3V497c24.8 8.9 50.7 14 77 15V292.7l18.5-28.1V512c25.9-1 51.5-5.9 75.9-14.5V196.9c1.7-1.1 20.8 12.8 20.8 12.8v280c28.3-13.1 54.1-31.2 75.9-53.6V298.4c5 6.3 11.3 11.4 18.5 15.1v102c27.8-34.8 46.1-76.2 53-120.2-7.4 6.3-16.8 10.1-27.2 10.1-23.2 0-42.1-18.9-42.1-42.1q0-5.1 1.2-9.9zM30.2 211.6c-13.7 0-24.9 11.2-24.9 24.9s11.2 24.9 24.9 24.9 24.9-11.2 24.9-24.9c0-13.8-11.1-24.9-24.9-24.9m451.9 26.8c-13.7 0-24.9 11.2-24.9 24.9s11.2 24.9 24.9 24.9S507 277 507 263.3s-11.1-24.9-24.9-24.9m-315.9 68.9c-13.7 0-24.9 11.2-24.9 24.9s11.2 24.9 24.9 24.9 24.9-11.2 24.9-24.9-11.2-24.9-24.9-24.9" style="fill:#fc5200"/></svg>