<svg xmlns="http://www.w3.org/2000/svg" xml:space="preserve" viewBox="0 0 512 512"><path d="M228.2 497.1C119.8 435 77.1 410.5 57 399l-23.3-13.3V125.9L254.7 0l3.3 1.8c1.8 1 52.2 29.4 111.9 63.1l108.6 61.3-.1 129.7-.1 129.7-24.8 14c-26.5 15-62.9 35.7-90 51.1-9.2 5.2-19.7 11.3-23.4 13.4-3.6 2.1-8.8 5.1-11.5 6.5s-6 3.3-7.4 4.2c-3.3 2.1-16.6 9.7-17.1 9.7-.2 0-1.5.7-2.9 1.6s-6.6 3.9-11.6 6.8c-5 2.8-9.3 5.4-9.8 5.7-.4.3-2.2 1.3-3.9 2.2-1.7 1-4.6 2.6-6.4 3.6s-4.6 2.6-6.1 3.4c-1.6.8-3.9 2.1-5.3 2.9-1.3.7-2.8 1.3-3.3 1.3-.2 0-12.3-6.7-26.6-14.9" style="fill:#628eb9"/><path d="M228.7 497.1c-14.3-8.2-64.1-36.7-110.6-63.3l-84.6-48.4V126.2l109.3-62.3C202.9 29.7 252.7 1.3 253.5 1c1.4-.7 3.7.6 113 62.2L478 126.1l.1 55.6c0 30.6.1 85.3.2 121.6s0 69.7-.2 74.2l-.3 8.2-37.5 21.3c-20.6 11.7-67.9 38.5-105.1 59.6s-68.2 38.8-69 39.4-1.8 1.1-2.2 1.1-1 .2-1.3.4-2.2 1.4-4.3 2.5l-3.8 2.1z" style="fill:#0073bd"/><path d="M264.9 506.5c.3-.3.7-.5.9-.3s-.1.4-.6.6c-.8.2-.8.2-.3-.3M180 447.4c-41.1-23.6-86.4-49.6-100.6-57.8l-25.9-14.9v-237l100.1-57.8c55.1-31.8 100.6-57.8 101.1-57.8.6 0 46.7 26 102.6 57.8L459 137.7v237l-101.6 57.5c-55.9 31.6-101.8 57.7-102.1 57.8-.3.3-34.2-18.9-75.3-42.6m-7-59.9c6.4-.7 15.4-3.2 21.4-5.9 5.2-2.3 40.7-22.5 44-25 4.2-3.2 7.6-10.3 7.6-15.9 0-3.5-2.2-8.9-5.2-12.7-3.3-4.2-7.3-6.1-13.6-6.3-3.7-.2-5.2 0-7.1.7-1.3.5-10.3 5.5-20.1 11.1s-19.3 11-21.3 11.9c-4.7 2.2-9.7 3.2-15.3 3.2-6.1 0-10.1-.8-15-2.8-16.8-7-26.2-22.9-24-40.9 1.1-9.2 5.2-17.2 11.9-23.5 3.4-3.1 8-5.9 38.8-23.8 19.3-11.1 36.8-21.1 39-22.2 5.8-2.7 10-3.7 16.5-3.7 5.1 0 10.4.7 12.2 1.7.4.2 2.4 1.1 4.5 2 6.7 3 12.2 7.8 17 14.9 3.2 4.7 7.5 8.6 10.8 9.6 12 3.6 23.4-3.4 25.9-15.8 1.2-6.1-.8-11.8-6.8-20-3.8-5.2-8.1-9.6-13-13.7-3.5-2.9-10.9-8-11.5-8-.2 0-1.3-.6-2.4-1.4-2.4-1.6-3.8-2.3-8.3-3.9-6.3-2.2-11.3-3.7-15-4.3-4.1-.7-18.2-.9-23.6-.4-5 .5-14.1 3.1-20.1 5.6-6.2 2.6-76.1 42.9-83.1 47.8-14.6 10.3-26 27.5-30.2 45.5-2 8.7-2.4 12.6-2 21.8.6 12.4 2.6 20.4 7.7 31.2 6.3 13.2 16.5 24.2 30.2 32.6 5.5 3.4 7.9 4.6 12.5 6.1 8.8 3 14.2 4.2 21 4.7 2.3.2 4.3.4 4.4.4.3.4 7.8-.1 12.2-.6m117.5-68.3c5.3-.6 6.1-.8 11.6-2.2 4.5-1.2 10.3-3.4 14.9-5.7 4.5-2.3 72.6-41.7 76-44 9.8-6.6 18.7-16.2 24.4-26.3 4.6-8.1 8.1-18.3 9.7-28.5.9-5.7.3-21-1-27-2.1-9.7-4.2-14.7-10-24.5-3.7-6.3-6.5-9.9-11.1-14.5-5.8-5.8-15.1-12.3-22.3-15.7-3.6-1.7-16-5.6-19.8-6.2-15.6-2.6-32.3-.3-46.5 6.4-5.6 2.6-40.1 22.4-42.6 24.5-2.3 1.8-4.9 5.9-6.2 9.6-1.6 4.9-1.3 9.2 1.2 14.1s5 7.5 9.2 9.4c2.9 1.3 3.9 1.5 7.8 1.6 3.3 0 5.2-.2 7-.9 1.4-.5 10.4-5.5 20-11.1 20.8-12 21.6-12.4 26.6-13.8 3.1-.9 5.2-1.1 10.2-1.1 7.8 0 10.9.8 18.2 4.5 10.5 5.3 18 15.4 20.1 27.2.9 4.8.9 7.7 0 13.3-1.5 9.9-6.6 18.5-14.4 24.4-3.7 2.8-70 41.3-75.7 44-7.1 3.3-16.4 4.3-24.5 2.7-6.4-1.3-15.4-6.4-20.1-11.3-1.1-1.2-3.2-3.9-4.6-6-2.7-4.1-6.6-7.9-9.8-9.6-1.7-.9-2.8-1.1-7.8-1.1-5.2 0-6 .1-8.6 1.4-7.6 3.7-12.5 13.4-11 21.5 2.6 13.6 24.1 34.2 41.8 40.2 9.9 3.4 12.6 4 23.8 5.3 1.9.1 9.9-.2 13.5-.6" style="fill:#121657"/><path d="M183.8 449.6c-38.7-22.2-70.5-40.5-70.7-40.7-.3-.3-12.9-37.7-15.5-45.9-.9-2.9-3-9.3-4.7-14.2s-3-9-2.9-9.1.8 1.2 1.6 3c6.1 13.7 16.7 25.5 30.4 34 6.2 3.9 8.9 5.1 17.5 7.9 8 2.6 12.9 3.5 21.9 3.7 5.1.2 15-.7 17.5-1.5.5-.2 1.4-.4 1.9-.5 2.6-.5 8.8-2.6 13.1-4.4 2.6-1.1 13.5-7.1 24.3-13.2 21.5-12.4 23.1-13.5 26-19.6 1.4-2.9 1.5-3.7 1.5-8 0-4.4-.1-5-1.7-8.2-2.4-4.8-6.4-8.8-10.5-10.3s-10.2-1.6-13.9-.2c-1.4.5-11 5.9-21.3 11.8-23.3 13.5-24.8 14-35.5 14.1-6.7 0-7.5-.1-11.3-1.4-8.6-3.1-14.6-7.2-19.4-13.3-6.3-8-9-17.9-7.8-28.1.7-5.6 1.5-8.5 4-13.4 2.6-5 5.7-8.8 9.8-12.2 3.6-2.9 73.1-43.3 77.4-45 6.1-2.4 8.7-2.8 16.3-2.7 7 .1 7.4.2 12 2 9 3.5 14.9 8.2 19.9 15.7 3.1 4.7 6.8 8.2 10.2 9.8 1.8.9 3.2 1.1 7.5 1.1 4.9 0 5.5-.1 8.6-1.6 5.3-2.6 9.2-7.5 10.7-13.6 2-7.7-.6-14.4-9.5-25.1-4-4.8-5.8-6.6-10.2-10.2l-3.7-3-2.2-6.5c-4.5-13.1-7.2-21.4-7-21.6.1-.1.9 1 1.7 2.5 3.1 5.5 8.1 8.3 15.4 8.7 4 .2 4.9.1 7.5-1 1.6-.7 11.2-5.9 21.2-11.7 19.2-11.1 21.5-12.2 26.6-13.4 5.3-1.3 16.7-.9 20.2.7.6.2 2.2.9 3.7 1.5 10 3.9 18.8 13.4 22 23.6 2.4 7.8 2.3 18-.3 24.9-2.8 7.5-8.7 15-15.2 19.3-1.2.8-18 10.6-37.3 21.7-41.6 24-41 23.7-52 23.7-8.2 0-10.6-.6-17.3-3.9-6.9-3.4-11.4-7.4-15.6-13.6-2.7-4.1-3.9-5.4-6.9-7.8-3.3-2.6-5.9-3.5-11-3.5-7.7 0-13.8 3.5-17.1 9.9-4.7 9-3.5 16.4 4.6 27.2 3.4 4.5 9.6 10.9 13.8 14.4 3.7 3 11.4 7.9 15.5 9.8 5.3 2.5 16.9 6.1 22 6.8 9.2 1.2 20.8.9 28-.7 5-1.1 12.6-3.7 16.3-5.4 6.3-3 77-43.9 81.4-47.2 12.1-8.9 22.5-22.7 27.7-36.9 1.2-3.2 3.3-11.5 4.1-16.5.8-4.4.2-19.2-1-26.5-.3-1.5 4.2 10.6 6.7 18.3.8 2.3 6.9 21 13.7 41.5l12.3 37.3-.1 92-101.9 57.6C301 464.1 255 490 254.7 490c-.2 0-32.1-18.2-70.9-40.4" style="fill:#0d1041"/></svg>