<svg xmlns="http://www.w3.org/2000/svg" xml:space="preserve" viewBox="0 0 512 512"><path d="M240.8 327.9c3 3.8 5.2 9.2 5.2 12.7 0 5.6-3.4 12.8-7.6 15.9-3.4 2.5-38.8 22.7-44 25-6 2.7-15 5.2-21.4 5.9-4.4.5-11.9 1-12.1.8-.1-.1-2.1-.3-4.4-.4-6.8-.5-12.2-1.7-21-4.7-4.6-1.6-7-2.7-12.5-6.1-13.7-8.4-23.9-19.4-30.2-32.6-5.2-10.8-7.2-18.8-7.7-31.2-.4-9.2-.1-13 2-21.8 4.2-18 15.6-35.2 30.2-45.5 7-4.9 76.9-45.2 83.1-47.8 6-2.6 15.2-5.1 20.1-5.6 5.3-.6 19.5-.3 23.6.4 3.7.6 8.7 2.1 15 4.3 4.5 1.6 5.9 2.3 8.3 3.9 1.1.8 2.2 1.4 2.4 1.4.6 0 8 5.2 11.5 8 4.9 4 9.1 8.5 13 13.7 6 8.1 8 13.9 6.8 20-2.4 12.4-13.9 19.4-25.9 15.8-3.2-1-7.6-4.8-10.8-9.6-4.8-7.1-10.2-11.9-17-14.9-2-.9-4-1.8-4.5-2-1.8-1-7.1-1.7-12.2-1.7-6.5 0-10.7.9-16.5 3.7-2.2 1-19.8 11-39 22.2-30.8 17.8-35.5 20.7-38.8 23.8-6.8 6.3-10.8 14.3-11.9 23.5-2.2 18 7.2 33.9 24 40.9 4.8 2 8.9 2.8 15 2.8 5.6 0 10.6-1.1 15.3-3.2 1.9-.9 11.5-6.2 21.3-11.9s18.8-10.7 20.1-11.1c1.8-.7 3.4-.8 7.1-.7 6.1 0 10.2 1.9 13.5 6.1m175.2-167c-3.7-6.3-6.5-9.9-11.1-14.5-5.8-5.8-15.1-12.3-22.3-15.7-3.6-1.7-16-5.6-19.8-6.2-15.6-2.6-32.3-.3-46.5 6.4-5.6 2.6-40.1 22.4-42.6 24.5-2.3 1.8-4.9 5.9-6.2 9.6-1.6 4.9-1.3 9.2 1.2 14.1s5 7.5 9.2 9.4c2.9 1.3 3.9 1.5 7.8 1.6 3.3 0 5.2-.2 7-.9 1.4-.5 10.4-5.5 20-11.1 20.8-12 21.6-12.4 26.6-13.8 3.1-.9 5.2-1.1 10.2-1.1 7.8 0 10.9.8 18.2 4.5 10.5 5.3 18 15.4 20.1 27.2.9 4.8.9 7.7 0 13.3-1.5 9.9-6.6 18.5-14.4 24.4-3.7 2.8-70 41.3-75.7 44-7.1 3.3-16.4 4.3-24.5 2.7-6.4-1.3-15.4-6.4-20.1-11.3-1.1-1.2-3.2-3.9-4.6-6-2.7-4.1-6.6-7.9-9.8-9.6-1.7-.9-2.8-1.1-7.8-1.1-5.2 0-6 .1-8.6 1.4-7.6 3.7-12.5 13.4-11 21.5 2.6 13.6 24.1 34.2 41.8 40.2 9.9 3.4 12.6 4 23.8 5.3 1.9.2 9.9-.1 13.5-.5 5.3-.6 6.1-.8 11.6-2.2 4.5-1.2 10.3-3.4 14.9-5.7 4.5-2.3 72.6-41.7 76-44 9.8-6.6 18.7-16.2 24.4-26.3 4.6-8.1 8.1-18.3 9.7-28.5.9-5.7.3-21-1-27-2.1-9.7-4.1-14.7-10-24.6m62.6-34.7-.1 129.7-.1 129.7-24.8 14c-26.5 15-62.9 35.7-90 51.1-9.2 5.2-19.7 11.3-23.4 13.4-3.6 2.1-8.8 5.1-11.5 6.5s-6 3.3-7.4 4.2c-3.3 2.1-16.6 9.7-17.1 9.7-.2 0-1.5.7-2.9 1.6s-6.6 3.9-11.6 6.8c-5 2.8-9.3 5.4-9.8 5.7-.4.3-2.2 1.3-3.9 2.2-1.7 1-4.6 2.6-6.4 3.6s-4.6 2.6-6.1 3.4c-1.6.8-3.9 2.1-5.3 2.9-1.3.7-2.8 1.3-3.3 1.3 0 0-.1 0-.2-.1l-.1.1-2.7-1.5c-4.5-2.4-13.6-7.5-23.8-13.4C119.8 435 77.1 410.5 57 399l-23.3-13.3v-.2l-.3-.1V126.2l.2-.1v-.2L254.7 0l3.3 1.8c1.8 1 52.2 29.4 111.9 63.1zM265.8 506.1c-.2-.2-.6 0-.9.3q-.75.75.3.3c.4-.1.7-.4.6-.6M459 374.7v-237L357.4 79.9c-55.9-31.8-102.1-57.8-102.6-57.8-.6 0-46.1 26-101.1 57.8L53.4 137.7v237l25.9 14.9c14.2 8.2 59.5 34.2 100.6 57.8s75 42.8 75.3 42.6 46.3-26.2 102.1-57.8z" style="fill:#fff"/></svg>