<svg xmlns="http://www.w3.org/2000/svg" xml:space="preserve" viewBox="0 0 512 512"><path d="M457.1 0H54.9C24.6 0 0 24.6 0 54.9v402.2C0 487.4 24.6 512 54.9 512h402.2c30.3 0 54.9-24.6 54.9-54.9V54.9C512 24.6 487.4 0 457.1 0M243.4 426.6c-32.2 0-67.5-6.4-102.4-21.4V316c31.5 17.3 71.2 30 102.4 30 21 0 36-5.6 36-22.9 0-44.6-142.5-28.1-142.5-131.6 0-66.4 50.6-106.1 126.8-106.1 31.1 0 61.9 4.9 93 17.2v88.1c-28.5-15.4-64.5-24-93-24-19.9 0-31.9 5.6-31.9 20.2 0 42 142.9 22.1 143.2 133.9.1 67.2-53.6 105.8-131.6 105.8" style="fill-rule:evenodd;clip-rule:evenodd;fill:#fff"/></svg>