<svg xmlns="http://www.w3.org/2000/svg" xml:space="preserve" viewBox="0 0 512 512"><path d="M244.5 115.9c-11.1-5.3-19-12.8-23.3-24.3-1.7-5.8-2.9-11.5.1-17.1 1.8-2.4 3.6-4.4 5.7-6.5.5-.5 1-1.1 1.5-1.7 4.8-4.4 10.5-3.8 16.7-3.6 3.3.2 6.5.6 9.8 1.1 3.6.4 7.1.4 10.7.4h2.2c3.5 0 6-.2 9.4-1.3 3.2-1.1 4.6-1.1 7.8.1 2.2 1.7 2.2 1.7 4.2 3.8l2 2.1c4 4.8 4.3 8.7 4.1 14.8-1.1 10.2-5.7 18.6-13.4 25.4-2.5 2-5.1 3.6-8 5-.6.3-1.3.6-1.9 1-8.3 3.3-19 3.5-27.6.8m-22.1-49.7c1.8-2.4 3.4-3.8 5.8-5.5 7.8-4.5 17.9-3.9 26.4-1.8.7.2 1.3.4 2 .5 7.6 1.5 15.7 1.8 22.3-2.5 3.3-3.7 3.3-7.1 3.3-11.8 0-.8 0-1.7-.1-2.5 0-2.9-.1-5.8-.2-8.7-2-1-2-1-3.9-1.1h-38.6c-6.6 0-10.7 2.7-15.4 7.1-6 7.3-6 7.3-5 28h2c.5-.5.9-1.1 1.4-1.7m68.7-3.9L295 65c.1-2 .2-4 .2-6.1v-2.5c.2-4 .4-7.7-1-11.5-1.8-3.4-3.5-5.7-7.2-6.9-.1 1.8-.3 3.6-.4 5.4-.1.8-.1 1.5-.2 2.2-.2 2.8-.4 5.5-.4 8.3.3 3.3.5 4.5 2.9 6.8.7.6 1.4 1.1 2.2 1.6m-44 59.2c-.7-.2-1.4-.3-2.1-.5v5c3.3 2 5.8 3 9.7 3.4h3.9c5.1 0 8.4-.2 12.4-3.4.8-2.7.8-2.7 1-5-8.1 1.3-16.8 1.9-24.9.5m38.3 107.1c-3.6-.1-7.3-.2-10.9-.2-4 .2-6.4.6-9.2 3.5-2 3.2-2 3.2-4.9 3.8h-2.5c-2.5.2-2.5.2-4.9-.8-1.1-1.6-2.3-3.1-3.5-4.7-2.1-1.9-4.3-2-7.1-2l-2.1.1c-2.2 0-4.5.1-6.8.1-1.6 0-3.1.1-4.7.1l-13.8.3v7c2.2 1.1 2.2 1.1 7.2 2.2.7.2 1.4.3 2.1.5 1.5.3 3 .6 4.5 1 2.4.5 4.7 1 7.1 1.5 1.5.3 3.1.7 4.6 1 .8.2 1.5.3 2.2.5 6.4 1.4 12.3 2.2 18.9 1 1.2-.3 1.2-.3 2.4-.7 1-.2 1.9-.5 2.8-.7 1-.3 1.9-.5 2.9-.8 2-.5 4.1-1.1 6.1-1.6 4.8-1.3 9.7-2.6 14.5-3.9l5-1.3c.8-.2 1.5-.4 2.2-.6l3.3-.9v-4l-11.1-.3c-1.3 0-2.8 0-4.3-.1m-28.5-80.9 1.1 1.3c4.1-3.3 8-5.8 13.3-6.3 9.8-.1 17.6-2.2 26.7-5.7v-3c-7.6-3.2-14.7-5.1-23-5-1 1.1-1 1.1-2.9 2-8.7 3.8-17.2 4.5-26.1 1-.7-.5-1.3-1.1-1.9-1.6-3.4-2.2-3.4-2.2-12.5-1.1-.9.2-1.7.5-2.6.7-.8.2-1.5.4-2.2.6-.8.2-1.6.5-2.4.7s-1.6.4-2.3.7c-2.5 1.3-3 2.5-4 5 7.3 2.9 13.9 5.2 21.7 5.4 6.9.1 11.8.4 17.1 5.3m-58 49.2c2.1-3.9 2.1-7.7 1.1-11.9-1.9-2.9-3.9-4.6-7-6-3.8-.6-7.5-.8-11 1-.2 4.2.3 8.1 1.1 12.2.1.7.3 1.4.4 2.2.5 2.5 1 5.1 1.5 7.6 2.7 0 5.3.1 8 0 2.5-1.2 4.2-2.9 5.9-5.1m-5.6-54.8h9.7c4 0 8 0 11.9-.1-3.6-3.6-3.6-3.6-25-8v7c1.1 1 1.1 1 3.4 1.1m90.1 4.8h-8.2c-5.4 0-7 .2-11.3 3.6-3.8 4.6-3.8 4.6-3.5 18.9 0 1.6.1 3.2.1 4.9 0 4.3 0 8.5.1 12.8.1 4.4.1 8.9.2 13.3l.3 28.6h2c.4-.8.9-1.6 1.3-2.5 5.1-3.4 5.1-3.4 11.5-3.3h3.6c3.8 0 7.6-.1 11.4-.1h7.9c7.1-.1 14.1-.1 21.2-.1h2.1c1-3 1-3 1.3-6.1.1-1.2.2-2.4.2-3.5.1-2.1.3-4.2.4-6.3-4.9-1.9-9-3.8-11.4-8.8-1.6-5.5-1.9-11.7.7-16.9 2.6-3.6 5.5-5.9 9.9-6.7.8-.1 1.6-.1 2.4-.2s1.6-.1 2.4-.2c.6 0 1.2-.1 1.9-.2.5-2.2 1-4.5 1.4-6.8l.6-2.8c.3-1.4.3-1.4.6-2.7s.3-1.3.5-2.7c.8-4.1.9-7.9.9-12.1-7.7 0-15.3 0-23-.1zM151 352c4.2 0 8.4-.1 12.6-.1h5.1c2.5 0 5 0 7.5-.1h2.4c2.8 0 5.5 0 8.4.2 6.4 2 9.6 6.1 12.8 11.8 1.6 2.8 3 5 5.3 7.2 2.2 1.9 4.1 3.6 5.8 6 1.5 6.2 0 12.2-2.2 18-.3.7-.5 1.3-.8 2-.9 2.9-.9 2.9-2 5-13.6 4.5-28.9 9.5-43.3 6.5-5.5-1.5-12.4-3.2-17.7-.5v6c4.4.2 8.7.5 13 1 11 3.3 20.6 2 31.5-.7 2.2-.5 4.4-1.1 6.6-1.6 1.5-.3 2.9-.7 4.4-1.1.7-.2 1.4-.3 2.1-.5 3.9-1 3.9-1 7.4-2.1 4.4-2.5 6.7-4.4 8.7-9.1.2-.7.5-1.3.7-1.9 1.8-4.7 3.2-9.3 3.6-14.3-.3-5.1-1.9-7.2-5.6-10.7-2.9-2.5-5.3-4.7-7.4-8-3.2-5.9-6.5-11.1-10.9-16.2-4.7-4-9.5-5.2-15.5-5.1l-2.2.1c-3.9 0-7.6.1-11.4.7-3.2.6-6.4 1-9.6 1.4-.8.1-1.5.2-2.3.3l-4.6.5c-1.2.1-2.3.3-3.5.4zm9.4 52.5c8.5 2.2 16.1 1.9 24.6-.1l2.7-.7c1.8-.4 3.6-.8 5.4-1.3 5.3-1.5 9.5-3.1 12.3-8.1 1.8-5.4 4.3-11 1.5-16.4-4-3-6.4-5.8-9-10s-5.1-8.1-8.6-11.6c-3.1-1.3-3.1-1.3-23.8-.3h-17.7c-1.3 15.7-2.3 31.2-2 47 5 .3 9.9.5 14.6 1.5m167-225.6c-2.6 0-4.1 0-6.4 1.1-2.6 2.6-4.7 4.4-5.4 8-.1 5.5.8 8.3 4.5 12.2 3.7 2.2 3.7 2.2 10.9 1.7 2-7.3 3.5-14.4 4-22-3-1-3-1-5.2-1.1-1.2.1-1.2.1-2.4.1m-105 44.4c3.9 0 7.8.1 11.7.1l3.7.1h3.6l3.3.1c2.9-.1 2.9-.1 5.3.4 2 3 2 3 5 4 0-8.9.1-17.7.1-26.6v-41.3c0-2.4 0-4.7-.2-7.1-3.3-3.3-6.4-5.8-11.2-6.5h-13.5c-3.7 0-7.4 0-11.1.1-3.8 0-7.7.1-11.5.1-8.2.1-16.5.1-24.7.2 0 2.9 0 5.7.4 8.5.2 1.2.2 1.2.5 2.4.2.9.4 1.8.5 2.7l.6 2.7c.7 3.2 1.3 6.4 2 9.6.6.1 1.2.2 1.9.4.8.2 1.6.3 2.5.5 5.6 1.1 8.2 3.5 12 7.7 2.3 4.6 2.5 8.3 1.7 13.4-1.2 3.7-2.7 6.2-6 8.3-2.1 1.1-4 2.3-6 3.7-.6 2.8-.6 2.8.5 8.5.2.9.4 1.8.5 2.7.3 1.6.6 3.2 1 4.8 6.5.1 13 .1 19.5.2 2.6.2 5.2.3 7.9.3m91.5-81.2h9.7c2.3-.1 2.3-.1 3.3-1.1v-7c-3.3 0-5.6.3-8.7 1.3l-2.2.7c-1.1.3-2.2.6-3.3 1-1.2.4-2.4.7-3.6 1l-3.4 1c-2.7 1-2.7 1-3.7 3h8.5c1.2 0 2.3.1 3.4.1M315 230v-2h-8v3zm24.4 91.5-2.6.8c-2.6.7-2.6.7-4.8 1.7l-1 3c4.9 3.2 8 4.7 14 4 2.4-2.4 2.4-2.4 3-9l-1-1c-2.7-.2-5 0-7.6.5M320.7 266c3.6-1.1 6.9-2.1 10-4.2 4.7-3.8 6.9-7.2 7.7-13.2-.7-6-2.8-9.2-7.5-13-5.2-2.6-11.4-2.6-17-1-5.6 1.8-11.2 3.3-16.9 4.6-2.2.5-4.5 1.1-6.7 1.6-3.6.9-7.2 1.8-10.8 2.6-3.6.9-7.2 1.8-10.9 2.6-1.2.3-2.3.6-3.5.8-7.2 1.7-14.2 3.6-21.1 6 .5 5.8 2.2 11 3.9 16.5.4 1.2.8 2.3 1.1 3.4 1.3 4 2.6 8 3.9 12.1 3.6 0 6.4-.5 9.8-1.5.8-.2 1.5-.4 2.3-.7 6.4-1.8 12.6-3.7 18.9-5.9 5.2-1.8 10.4-3.4 15.8-4.9 6.2-1.7 12.5-3.4 18.6-5.3.9 0 1.7-.2 2.4-.5m29.3 75.4c-5.2 1.6-11 1.3-16-.4-3-2.3-5.7-4.5-9.3-5.8-5.1-1.5-8.5-2.7-11.7-7.2-.8-3.9-.4-5.4 1.8-8.7 9.8-4.6 9.8-4.6 20.7-6.4 1.5-.3 3-.6 4.6-.9 5-2.3 9.5-2.4 15-2 4 1.3 5.5 2.7 8 6 .6 4.1.3 8-.3 12.1-2 5.5-7.6 10.6-12.8 13.3m2-13.4c.4-3.5.7-5.8-1.1-8.9-6.5-3.8-17-2.3-22.8 2.3-1.7 2.2-1.5 3.8-1.2 6.5 2 3 2 3 4.5 4.1.9.3 1.7.6 2.5.9 2 2 2 2 4.3 2.2h2.7c1.7 0 3.3-.1 5-.2 3-1.4 3-1.4 6.1-6.9m-131.6-73c6.2 2.6 12 2.4 18.6 2 .3-2.3.6-4.7 1-7l2-3c-5.3-1.2-10.6-2.4-15.9-3.5-2.2-.5-4.4-1-6.5-1.5l-9.6-2.1c-1-.2-2-.4-3.1-.7-11.6-2.7-21.5-5.4-27.9 6.8-.9 4.3-.4 7.2 1.5 11.2 5.5 6.1 11.5 8.6 19.5 9.8 0-.9.1-1.7.2-2.5.1-1.1.1-2.2.2-3.3.2-3.7 0-5.5 2.6-8.1 6.2-1 11.7-.5 17.4 1.9m22.6 13.3c-.7-2.1-1.3-4.2-2-6.3-7.9-.2-15.6-.1-23.1-3.1-4.6-2-8-2.3-12.9-1.9 1.1 12.9 3.1 25.4 6 38l4-1c.2-5.8-.2-10.8-1.6-16.4-.2-.6-.3-1.1-.4-1.6l5-1c.9 4.9 1.4 9.8 1.8 14.8.1.8.1 1.5.2 2.2l5-2v-4.7c0-2.7 0-5-.6-7.6-.2-.8-.2-.8-.5-1.7h4l2 7h2l1-2 2.7-.9c1.1-.3 2.2-.5 3.3-.8s2.2-.5 3.4-.8c.9-.2 1.7-.4 2.6-.6 0-3 0-3-.9-6.1-.3-1.1-.6-2.3-1-3.5m61.8 7-2.4.8c-.9.3-1.7.6-2.5.9-2.9 1-5.9 2-8.8 3 1 2 1 2 3 3.7 1.3.9 1.3.9 2.6 1.9 4.5 3.3 4.5 3.3 12.4 4.4l3-16c-3 0-3 0-5 .5-.9.3-1.6.6-2.3.8M482 376c-.3.7-.7 1.3-1 2-9.4 17.8-21.3 33.9-34.8 48.7-1.8 2-3.5 4-5.2 6.1-38.7 44.1-98.5 70.7-155.9 77.2l-2.4.3c-8.4.9-16.7 1-25.1 1h-2.3c-14.2 0-28.1-.9-42.1-3.2-1.4-.2-1.4-.2-2.9-.5-60.6-10.6-119.4-45.3-156-94.9l-3.9-5.1C26.3 376.4 10.4 337.8 4 299c-.2-1-.3-1.9-.5-2.9C-6.8 230.4 8.8 160.9 48 107c5.6-7.6 11.6-14.9 18-21.8 1.8-1.9 3.5-3.9 5.2-6C112.7 31.8 177.3 4.8 239.2.3c4.4-.3 8.9-.3 13.3-.5C318.9-1.4 384.2 24.4 432.2 70c8.8 8.6 17.4 17.2 24.8 27 .4.5.8 1 1.2 1.6 33.2 43 52.1 95.1 53.8 149.4l.1 3.5c.8 43.3-9.7 86.3-30.1 124.5M94 270c5.9 22.7 15.3 43.6 29.8 62.2.8.9 1.5 1.9 2.2 2.8 3.5 4.5 6.5 10.2 12 12l.6-9.3c.1-1.3.1-2.6.2-3.8.4-5.8 2-12.6-2.1-17.4-5.6-6.7-5.6-6.7-9.7-14.6-.5-1-.5-1-1.1-2-16-29.2-20.5-62.8-14.7-95.5 7.2-37.7 27.3-71.2 59-93.3.6-.4 1.1-.8 1.7-1.2 10.4-7.3 21.2-12.6 33-17.4 1.4-.5 2.7-1.1 4-1.6-.5-9.6-.5-9.6-1-19-3.3 0-5.8.9-8.9 2.1-1.1.4-1.1.4-2.1.9-21.7 8.7-41.7 20.8-57.9 37.8l-4.5 4.8c-19.8 20.5-34.1 46.1-40.5 74-.3 1.5-.7 3-1 4.5-5.5 21.9-5.4 48.7.1 70.5.3 1.2.6 2.3.9 3.5m79-128c.9-.7 1.7-1.3 2.5-2 2.6-3.1 2.9-3.9 3.2-7.7.1-2.5.1-4 1.2-6.3 4.4-3.6 7.3-4.6 13-4 3.4 3.4 12.4 4.8 17 5 2.4-1.8 4.4-3.2 7.2-4.4 1.2-.4 2.4-.9 3.5-1.3 1.8-.7 1.8-.7 3.5-1.3 1.4-.5 1.4-.5 2.7-1-2.6-2.5-4.8-5.1-7-8l-1.4-2.3c-.5-.8-1-1.7-1.5-2.5-1.4-2.4-1.4-2.4-3.1-4.2-11-1.8-11-1.8-38.6 18.2l-2.4 1.8c-20 15.1-35.8 35.8-45 59.1l-.9 2.4c-5.2 13.7-7.7 27.6-7.6 42.2 0 2.5.1 5 0 7.5-.1 25.9 8.1 46.9 19.5 69.8h2c.3-8.8 1.5-13.9 7.3-20.8 10.4-5.8 10.4-5.8 22.6-5.9 1.4 0 2.7 0 4.1-.1 3.2-.1 6.3-.2 9.5-.2h2.5v-1c-4.8-2.4-9.5-4.6-13.4-8.2-3.9-6.8-6.2-12.8-5.6-20.8 1.1-5.6 3.5-11.3 8.3-14.6 2.4-1.4 4.6-2.6 6.7-4.4.6-2 .6-2 .6-4.1l-.6-3.9c-.3-2.9-.3-2.9-1-5l-3-2c-3.8-3.7-4.8-7.3-5.8-12.3-.2-.9-.3-1.9-.5-2.8-1.2-7-3.2-14.8-1.8-21.9.5-.7 1-1.3 1.5-1.9 2.2-3.2 2.2-3.2 1-11-1-5-1.7-9.8-1.8-14.8.4-2.2 0-3.7 1.6-5.3m-50 281.7-.8-2.4c-.5-1.6-1-3.1-1.6-4.7-1.7-3.6-1.7-3.6-3.7-4.4-2-.2-2-.2-4 .8.5 2.6 1 5.1 1.9 7.6 2.6 7 3.6 13.3 4 20.7l.1 2.6h6c.8-7.1.3-13.3-1.9-20.2m13.1 16.2c.2-10.4-2.7-21.7-6.2-31.5-.4-1.2-.4-1.2-.9-2.4-.4-1.2-.8-2.3-1.2-3.4-.6-1.8-.6-1.8-1.3-3.6-1.2-3.4-1.2-3.4-2.5-6l-3-1-3 2c.5 2.3 1.1 4.3 2 6.5 5.9 13 8.3 26.1 9.7 40.2.1 1.1.2 2.3.3 3.4h6v-1.8c0-.9 0-1.6.1-2.4M253 439c-3.5-6.8-8-11.9-15-15l-2 5c3.9 2.6 6 5.4 8.5 9.2 1.7 2.7 1.7 2.7 3.5 4.8 2.7.3 2.7.3 5 0zm-16-89v-41h-6v41zm27 75h-6v19h6zm10 0-5-1c-2.6 6.5-3.4 12-3 19h5c.6-5.4 1.5-10.7 2.6-16.1.1-.6.3-1.3.4-1.9m0-90h-6v50h6zm11-14h-5v94h5zm98 107.4c0-3.9-.1-7.8-.2-11.6l-.1-2.3v-.6c-.1-3.3-.2-6.6-.4-10l-.3-7c-.6-15.7-1.3-31.5-2-47.2-.1-1.7-.2-3.4-.2-5.1-.4-7.7-.7-15.3-.9-23-.1-4.4-.3-8.8-.4-13.3v-2.9l-.1-3.1c-.1-5.8-.5-9.2-3.7-13.6l-.9-1.2c-.4-.4-.9-.8-1.3-1.2-3-2.6-5.5-3.9-8.7-4.5-1.7-.3-3.6-.4-5.9-.4h-3.3c-3.4 0-6.9 0-10.3.1-1.9 0-3.8 0-5.7.1h-1.4c-5.5 0-11 .1-16.5.2h-4.5l.6-5.8.4.8v-5h6v4l15 .3 6.1.1c3 0 6 .1 9 .1l2.9.1h1.6c3.9 0 7.7.1 11.3 1.3 1.8.6 3.5 1.4 5.2 2.6 2.8 2.7 3.9 4.5 8 4.5.8-2.1 1.6-4.2 2.3-6.4.3-.9.6-1.8 1-2.7 3.1-8.2 5-16.2 6.1-24.4.8-5.8 1.1-11.7 1.1-17.9v-2.5c0-12.3-.1-24.4-3.8-36.3-.1-.2-.1-.4-.2-.6s-.1-.4-.2-.6-.1-.4-.2-.6c-8.7-27.5-23.8-50.4-46.2-68.6-.6-.5-1.2-1-1.8-1.4-10.9-8.8-24.8-18.5-39-20-.4.5-.8 1-1.2 1.6-2 2.5-3.9 5.1-5.9 7.5-1.1 1.3-2.2 2.7-3.3 4-.9 1-1.7 2-2.6 2.9 1.8.7 3.6 1.4 5.4 2 .8.3 1.5.6 2.2.8.7.3 1.5.5 2.2.8s1.4.5 2.1.8c1.3.5 2.7 1 4 1.5.2.1.3.2.5.3l2.1 1.1c.8.2 1.4.3 2.1.3 1.7.1 3.2-.4 5-1.1.2-.1.5-.2.7-.3 3.2-1.3 6.4-2.3 9.7-3.3 1.2-.1 2.3-.2 3.4-.1 3.1.1 5.5 1.1 8.6 3.1 2 3 2.2 3.9 2.4 7.4v.7c.1 1.6.2 2.7.8 3.9.3.6.6 1.2 1.1 1.9l1.5 1.5c.9 1 1.8 1.9 2.6 3 .2.2.3.4.5.6.2 7 .2 7-1 14-.1.4-.1.8-.2 1.2-.5 2.9-.8 5.6-.9 8.4 0 1.4 0 2.9.1 4.3 1 1.3 2 2.7 3 4 0 .5 0 1 .1 1.6.1 3.7-.2 7.2-.7 10.8-.3 1.8-.6 3.6-1 5.4-.1.3-.1.5-.2.7l-.4 1.7c0 .2-.1.4-.2.7-1.1 5.3-2 10.4-4.6 15.2h-2c-2.7 1.8-3 3.1-3.7 6.4-.2 1.3-.3 2.6-.5 3.8-.2 1.3-.3 2.6-.5 3.9l-.3 3-7-1c2.9-5.7 3.4-11.6 3.9-17.8l.1-2.2h4c3-2 3-2 3.7-4 .1-.8.3-1.7.5-2.5.2-.9.3-1.8.5-2.7.3-1.5.3-1.5.5-2.9 1-5.1 1.9-10.2 2.1-15.4-.3-3.5-.3-3.5-1.8-5.1-1.8-1.4-1.8-1.4-1.6-4.2l.3-3.3c.4-4 .9-7.9 1.9-11.8.8-3.4 1.4-6.5.9-10.1-1.7-2.5-2.7-2.9-5.7-3.7-.8-.1-1.5-.2-2.3-.3 1-4.1 1.3-7.8 1-12l-3-2c-3.8-.5-6.7.1-10.2 1.4-2.5.9-4.9 1.7-7.5 2.4-1.4.3-1.4.3-2.7.6-1.2.3-1.2.3-2.5.6-2.2.3-2.2.3-3.6-1.3L302 130c-7.3-4-14.3-5.6-22.6-6H277c.3-3.3.3-5.4 2.9-7.7 3.1-1.7 6.2-3.5 8.9-5.9 7.9-8.7 12.5-20.2 12.6-31.9V56.3c0-6.2-.3-11.5-3.9-16.8-1-1.1-1-1.1-1.9-2.2-.6-.8-1.3-1.5-1.9-2.2-6-5.2-11.5-7.8-19.4-7.8-1 0-1.9 0-2.8.1-3.1 0-6.2 0-9.3.1-2.1 0-4.3.1-6.4.1-12.3.1-23.8-1.3-33.8 6.4-5.8 5.8-8.3 12.1-8.4 20.2v14.5c-.1 12-.2 24.2 7 34.4.5.6 1 1.2 1.4 1.9 3.6 4.9 7 8.2 12.4 11.2 2.6 1.2 2.6 1.2 4.6 2.8.9 2.6.9 2.6 1 5-7.5-.2-16.1.6-22.6 4.7-1.5 1.2-3.1 2.3-4.7 3.4-1.7.3-2.8.6-3.8.6-6.2-1.9-12.3-3.6-18.6-4.5-.8-.1-1.5-.2-2.3-.3-2 .1-2 .1-4 2.1-.1 3.1-.1 3.1 0 6h.4v.1l.3 3.3c.1.9.2 1.7.3 2.5-2.7-.1-4.5-.3-6.8 1.1-2.3 3.8-2.3 3.8.2 17.4l.6 3c.5 2.9 1.1 5.8 1.6 8.7.1.7.2 1.3.4 1.9h-2c-1.6 1.1-1.6 1.1-3 3-.4 5.2.4 9.9 1.3 15 .2 1 .4 1.9.5 2.8.2 1 .4 1.9.5 2.9.2.9.3 1.8.5 2.8.6 3.2.7 4.2 3.1 6.5 2.6.5 2.6.5 5 2 1.1 3.5 1.1 3.5 1.4 6.1.2 1.6.4 3.2.5 4.7.1.8.2 1.5.3 2.3.3 2.5.6 3.7 2.1 5.7 2.1 1.6 2.1 1.6 7.6 1.5.8 0 1.5 0 2.2-.1 1.5 0 2.9-.1 4.4-.1 1.2 0 2.3-.1 3.4-.1v5c-7.3-1.7-14.5-3.9-22-3-5.9 2.4-10.4 6-13 12-.9 7.4-.8 12.4 3 18.4v.6c1.3 1.7 2.9 2.9 4.6 3.9 5 3.7 11.6 6.3 17.3 7l3.1.1v3h.3c.2 1.9.3 2.8.7 6-5.2-.1-10.5-.1-15.8-.2h-6.4c-3.2 0-6.3-.1-9.5-.1h-3c-4.8-.1-8.9-.4-13.4 1.7-4 3.2-7.4 6.8-8.4 12-.1.9-.1 1.8-.2 2.6-.1 1.5-.1 1.5-.2 2.9-.1 1-.1 2-.2 3-.2 2.9-.4 5.9-.6 8.8l-.4 6.7c-.1 1.9-.1 1.9-.2 3.7q-1.8 29.1-3.9 58.2c-.1.8-.1 1.6-.2 2.4-.6 7.6-1.1 15.2-1.7 22.8-.2 2.9-.4 5.7-.7 8.6-.1 1.3-.2 2.7-.3 4s-.2 2.5-.3 3.7-.2 2.4-.3 3.5c-.4 5.1-.4 5.1-.4 17.5h46v-6h-40c1-7 1-7 1.1-10.3v-8.7c.8 0 1.6 0 2.4-.1h3.2c3.6-.1 6.4.1 9.9 1.1 13.7 3.9 13.7 3.9 45.8-4.9.8-.2 1.5-.4 2.3-.6 7.5-2.1 10.3-4.7 14.2-11.2.4-.8.9-1.5 1.3-2.2 1.8-2.9 3.1-5.7 4-9 .4-5.8 1.6-12.7-2.2-17.5-.8-.9-.8-.9-1.5-1.8-1.1-1.2-2.2-2.5-3.2-3.7-3.5-3.3-6-6.3-8.3-10.5-3-5.3-5.8-10.8-10.8-14.5-9.5-5.3-19.6-6.8-30.2-4.1-3.6 1-7.1 1.3-10.8 1.5-.8 0-1.5.1-2.2.1-2.6.2-5.1.3-7.7.4.3-5.4.6-10.8 1-16.2.1-2.2.3-4.4.4-6.6.2-3.2.4-6.5.6-9.7.1-1 .1-2.1.2-3.1 0-1 .1-2 .2-3s.1-1.9.2-2.8c.2-3.4.7-5.8 2.5-8.7 4.3-3.8 7.7-4.5 13.2-4.5l2.8.1c2.9 0 5.9 0 8.8.1 2.1 0 4.1.1 6.1.1 6 0 12 .1 18 .2.6 5.2.9 8.5 5 12 8.8 1.3 17-4.1 24-9 1.9-2.8 1.9-2.8 4-5 3.3-.7 6.6-.9 10-1 1 3 1 3 2.2 4.7.4.3.8.6 1.1.8.2.2.4.3.7.5h.5c1 .3 2.4.2 5.5 0v-.2c1.8-.3 3.7-.8 5.6-1.4.1 0 .2 0 .2-.1l2.7-.9c.3-.1.7-.2 1-.3 1.4-.4 2.7-.9 4.1-1.3.8-.2 1.5-.5 2.3-.7 1.1-.4 2.3-.8 3.4-1.2 1.9-.6 3.9-1.2 5.9-1.7 1 0 1.8 0 2.4.1.2 0 .4.1.6.1h.1c1.2.4 2.2 1.2 3.6 2.5l.1.1c2.2 2.3 4 4.1 6.7 5.9 1 .6 1.9 1.1 2.9 1.6 3.1 1.8 5.1 2.5 8.7 2.8.8-.1 1.4-.1 1.8-.2h.9c.9-.4 1.3-.7 1.7-1.1l.3.1.6-1.3c.3-.5.6-1.3 1.1-2.3.5-1.2.9-2.3 1.4-3.4 5.6 0 11.2-.1 16.9-.1h6.9c3.4 0 6.8-.1 10.1-.1h9.2c3.5 0 5.8.4 8.9 2.2 2.6 2.6 3.9 4.3 4.6 7.9 0 1.1.1 2.2.1 3.3.1 1.9.2 3.8.2 5.7 0 1.4.1 2.8.1 4.2.2 4.5.3 9 .4 13.5.2 9.2.3 18.3 1 27.5.5 6.1.7 12.2.8 18.3.4 15.9 1 31.8 1.7 47.7l1 20.1h-81v6h87zM349 347c6.9-1.8 11.4-5.5 15.6-11.2 4-6.9 4.6-14 3.4-21.8-1.4-3.5-3.7-5.1-6.8-7.2-5.4-3.2-11-3.8-17.1-2.3-4.1.9-4.1.9-8.2 1.5-3.2.5-3.2.5-5.9 1.1-1.9 2.2-1.9 2.2-5 2.8-3.8.9-7.3 1.9-11 3.2-3 1.9-4.7 3.7-6 7-.6 4.1-.9 8.2 1 12 2.8 3.5 5.2 5.3 9.4 6.6 3.1.9 4.9 1.7 7.7 3.4 7.5 5.1 13.9 5.8 22.9 4.9m-12 23v55h5v-55zm-12-13v76h6v-76zm-12 9v51h6v-51zm-92-52v24h5v-24zm177 107c2.3-12.3 5.9-23.7 10.3-35.4 1.1-2.8 2-5.6 2.7-8.6-1.7-.4-3.3-.7-5-1l-1 1c-10.1 20.2-16 44.4-15 67h6c.1-1.9.2-3.8.3-5.8 0-.8.1-1.6.1-2.4.2-4 .4-8 1-11.9.2-1 .4-1.9.6-2.9m17-17-4-2-1 1c-8.3 13.5-10.7 25.5-10 41h6c-.4-11.4.4-20.1 5.6-30.3 1.8-3.3 2.8-6 3.4-9.7m5-204.1c-.5-2-1-4-1.5-6.1-4.2-18.9-11.8-36.5-22.2-52.8-.4-.7-.9-1.3-1.3-2-10.5-16.2-24.3-30.2-39.8-41.7-1.1-.8-2.1-1.5-3.2-2.3-6.5-4.9-13.2-8.7-20.5-12.3-1.5-.8-1.5-.8-3.1-1.5-7-3.4-13.8-6.1-21.4-8.2l-1 19c1.9 1 3.9 1.9 5.8 2.8 17.8 8 34.4 17.7 48.1 31.9.7.8 1.4 1.5 2.1 2.3 16.8 17.8 28.8 37.6 35.6 61.2 8.1 30 9.7 68.8-5.8 96.9-9.4 15.9-8.5 30-6.8 47.9h1c5.4-6.5 10.1-13.4 14.2-20.8.6-1.1 1.2-2.2 1.8-3.2 18.2-32.9 26.1-74 18-111.1" style="fill:#fff"/></svg>