<svg xmlns="http://www.w3.org/2000/svg" xml:space="preserve" viewBox="0 0 512 512"><path d="M416 512H96c-53 0-96-43-96-96V96C0 43 43 0 96 0h320c53 0 96 43 96 96v320c0 53-43 96-96 96" style="fill:#1a1a1c"/><path d="M262.2 381.8c-31.1 0-56.5-6.7-76.4-20.2C166 348.2 154 329 149.9 304l55.7-14.4c2.2 11.2 6 20 11.3 26.4s11.8 11 19.7 13.7c7.8 2.7 16.4 4.1 25.7 4.1 14.1 0 24.5-2.5 31.2-7.4 6.7-5 10.1-11.1 10.1-18.5s-3.2-13-9.6-17.1c-6.4-4-16.7-7.3-30.7-9.8l-13.4-2.4q-25.05-4.8-45.6-13.2c-13.8-5.6-24.8-13.4-33.1-23.3s-12.5-22.7-12.5-38.4c0-23.7 8.6-41.9 25.9-54.5s40-19 68.2-19c26.6 0 48.7 5.9 66.3 17.8s29.1 27.4 34.6 46.6l-56.2 17.3c-2.6-12.2-7.8-20.8-15.6-25.9s-17.5-7.7-29.1-7.7q-17.25 0-26.4 6c-6.1 4-9.1 9.5-9.1 16.6q0 11.55 9.6 17.1c6.4 3.7 15 6.5 25.9 8.4l13.4 2.4c17.9 3.2 34.2 7.4 48.8 12.7s26.1 12.8 34.6 22.6 12.7 23 12.7 39.6c0 25-9.1 44.3-27.1 57.9-18.3 13.4-42.5 20.2-73 20.2" style="fill:#8b5cf6"/></svg>