<svg xmlns="http://www.w3.org/2000/svg" xml:space="preserve" viewBox="0 0 512 512"><path d="M39.1 0h433.7C494.5 0 512 17.5 512 39.1v433.7c0 21.6-17.5 39.1-39.1 39.1H39.1C17.5 512 0 494.5 0 472.9V39.1C0 17.5 17.5 0 39.1 0" style="fill:#46494d"/><path d="M348.1 295.2c-7.5 0-15.2-.5-23.2-1.7-23.8-3.4-49.8-12.5-75-21.2-24-8.3-48.8-16.9-69.7-19.9-40.7-5.7-71.7 8.8-104.6 24.2l-10.9-23.2c34.8-16.3 70.9-33.2 119.1-26.4 23.5 3.3 49.5 12.3 74.6 21.1 24 8.3 48.9 17 70.2 20.1 41.5 6 73.8-8.1 108.1-23.1l10.3 23.5c-30.2 13.1-61.1 26.6-98.9 26.6M70.1 265" style="fill:#7ca7db"/><path d="M357.4 313.3c.7 1.2.6 2.7-.1 3.8-18.2 29.8-48.4 49.8-82.9 54.9-5.8.9-11.5 1.3-17.2 1.3-57.1 0-107.3-42-115.9-100.1-.3-2 1.1-4 3.1-4.3 6.9-1.1 13.6-1.6 20.5-1.4 1.8 0 3.3 1.4 3.6 3.2 7.2 43.6 44.6 75.3 88.8 75.3h.1c27.5 0 53.1-12.3 70.3-33.9.8-1 2.1-1.5 3.3-1.4 7.7.7 15.4 1 23 .7h.1c1.4 0 2.6.7 3.3 1.9m-201.6-104c7.1-.3 14.4-.1 21.8.6 1.4.1 2.8-.5 3.5-1.8 26.4-42 82-54.7 124-28.4 24.3 15.2 39.9 41.4 41.9 69.9.1 2 1.8 3.5 3.8 3.5h.1c6.8-.2 13.6-.9 20.3-2.2 1.9-.4 3.2-2.1 3.1-4-2.3-29.5-15.5-56.9-37.3-77-21.7-20.1-50-31.2-79.7-31.2-44.8 0-85.1 25-105 65.1-.6 1.2-.5 2.6.2 3.7.7 1.2 1.9 1.9 3.3 1.8m43.7-88.8c1.8 5.5 6.9 9 12.4 9 1.3 0 2.7-.2 4-.6 6.9-2.2 10.6-9.6 8.4-16.5L216.7 89c-2.2-6.9-9.6-10.6-16.5-8.4s-10.6 9.6-8.4 16.5zM376 182.8c2.7 0 5.4-.8 7.7-2.5l20-14.5c5.8-4.2 7.1-12.4 2.9-18.3-4.2-5.8-12.4-7.1-18.3-2.9l-20 14.5c-5.8 4.2-7.1 12.4-2.9 18.3 2.5 3.6 6.5 5.4 10.6 5.4m-77.4-53.9c1.3.4 2.7.6 4 .6 5.5 0 10.6-3.5 12.4-9l7.6-23.5c2.2-6.9-1.5-14.2-8.4-16.5-6.9-2.2-14.2 1.5-16.5 8.4l-7.6 23.5c-2.2 6.9 1.6 14.3 8.5 16.5M216 383.1c-6.9-2.2-14.2 1.5-16.5 8.4l-7.6 23.5c-2.2 6.9 1.5 14.2 8.4 16.5 1.3.4 2.7.6 4 .6 5.5 0 10.6-3.5 12.4-9l7.6-23.5c2.3-6.9-1.5-14.3-8.3-16.5m99 8.4c-2.2-6.9-9.6-10.6-16.5-8.4s-10.6 9.6-8.4 16.5l7.6 23.5c1.8 5.5 6.9 9 12.4 9 1.3 0 2.7-.2 4-.6 6.9-2.2 10.6-9.6 8.4-16.5zm88.6-45.4-20-14.5c-5.8-4.2-14-3-18.3 2.9-4.2 5.8-3 14 2.9 18.3l20 14.5c2.3 1.7 5 2.5 7.7 2.5 4 0 8-1.9 10.6-5.4 4.2-5.8 2.9-14-2.9-18.3m-272.7-14.5-20 14.5c-5.8 4.2-7.1 12.4-2.9 18.3 2.6 3.5 6.5 5.4 10.6 5.4 2.7 0 5.4-.8 7.7-2.5l20-14.5c5.8-4.2 7.1-12.4 2.9-18.3-4.3-5.8-12.5-7.1-18.3-2.9m-20-165.7 20 14.5c2.3 1.7 5 2.5 7.7 2.5 4 0 8-1.9 10.6-5.4 4.2-5.8 2.9-14-2.9-18.3l-20-14.5c-5.8-4.2-14-2.9-18.3 2.9-4.2 5.8-2.9 14 2.9 18.3" style="fill:#fefefe"/></svg>