<svg xmlns="http://www.w3.org/2000/svg" xml:space="preserve" viewBox="0 0 512 512"><path d="M460.5 99.7s-2.6-31.8-4.3-43.2-4-15.4-4-15.4c-10.4-22.3-30.4-33.5-51.6-38.7-10.1-1.7-22.7-2-36-2.3h-120C166.1 4.3 133 49.3 124.2 73.2 89.1 176.9 56.5 379.2 52 407.3c-4.4 28.1-5 45.2-5 45.2-.3 7.1.4 14.9 2.3 22.4 9.6 27.6 38.7 50.8 102.8 27.7 60.5-26 132-58.3 206-94.6 29.9-17 69.6-49.8 91.3-92.3 8.9-17.4 14.7-36.4 15.6-56.6-.5-51.8-.9-106.7-4.5-159.4m-98.7 39.8c0 5.5-4.6 10-10.3 10h-5.2c-34.2 0-61.9 26.8-61.9 59.8v53.6c0 63.3-53.2 114.6-118.7 114.6h-5.2c-5.7 0-10.3-4.5-10.3-10v-34.9c0-5.5 4.6-10 10.3-10h5.2c34.2 0 61.9-26.8 61.9-59.8v-53.6c0-63.3 53.2-114.6 118.7-114.6h5.2c5.7 0 10.3 4.5 10.3 10z"/></svg>