<svg xmlns="http://www.w3.org/2000/svg" xml:space="preserve" viewBox="0 0 512 512"><path d="M405.3 0H106.7C47.8 0 0 47.8 0 106.7v298.7C0 464.2 47.8 512 106.7 512h298.7c58.9 0 106.7-47.8 106.7-106.7V106.7C512 47.8 464.2 0 405.3 0M243.1 320.7c-3.5 9.1-8.7 17-15.7 23.8-6.8 6.7-15.2 12.1-25.1 16-9.9 3.8-21.3 5.8-34.1 5.8-7.4 0-14.6-.7-21.8-2.2-7.1-1.4-14-3.4-20.6-6.1-6.5-2.7-12.6-5.9-18.4-9.6s-10.9-7.9-15.4-12.5l12.6-20.6c1.1-1.5 2.5-2.7 4.2-3.7 1.7-1.1 3.5-1.6 5.4-1.6 2.7 0 5.5 1.1 8.6 3.4 3.1 2.1 6.8 4.5 11 7.2 4.3 2.7 9.2 5.1 14.9 7.4 5.8 2.1 12.6 3.2 20.6 3.2 12.3 0 21.8-2.9 28.5-8.6 6.7-5.9 10.1-14.2 10.1-25.1 0-6.1-1.5-11-4.6-14.9q-4.5-5.7-12-9.6c-5-2.7-10.7-4.9-17.1-6.7s-12.9-3.8-19.5-5.9-13.1-4.7-19.5-7.7q-9.6-4.5-17.1-11.7c-5-4.8-9.1-10.8-12.2-17.9q-4.5-10.95-4.5-26.7c0-8.4 1.7-16.6 5-24.6q5.1-12 14.7-21.3c6.4-6.2 14.3-11.1 23.7-14.9 9.4-3.7 20.2-5.6 32.3-5.6 13.7 0 26.2 2.1 37.8 6.4 11.5 4.3 21.3 10.2 29.4 17.9l-10.7 20.3c-1.3 2.2-2.7 3.9-4.2 5-1.4 1-3.1 1.4-5.3 1.4s-4.7-.8-7.4-2.4c-2.6-1.7-5.7-3.6-9.3-5.6s-7.9-3.8-12.8-5.4c-4.8-1.7-10.5-2.6-17.1-2.6-6 0-11.2.7-15.7 2.2-4.5 1.4-8.3 3.4-11.4 5.9-3 2.6-5.2 5.7-6.7 9.3-1.5 3.5-2.2 7.4-2.2 11.7 0 5.4 1.5 10 4.5 13.6 3.1 3.6 7.1 6.7 12.2 9.3q7.5 3.9 17.1 6.9c6.4 2 13 4.2 19.7 6.6 6.7 2.2 13.3 4.9 19.7 8 6.4 3 12.1 6.8 17.1 11.5 5 4.6 9 10.2 12 17 3.1 6.7 4.6 14.9 4.6 24.5.1 10.2-1.7 20-5.3 29.2m78-.8c0 6.9-.9 13.2-2.6 18.8s-4.3 10.3-7.7 14.3q-5.1 5.85-12.6 9c-5.1 2.1-11 3.2-17.7 3.2q-4.65 0-9-.6c-3-.3-6.1-.9-9.3-1.7.2-2.3.4-4.6.6-6.8.2-2.3.4-4.6.6-6.8.2-1.3.7-2.2 1.5-3 .9-.8 2-1.2 3.6-1.2 1 0 2.2.2 3.8.6q2.4.6 6 .6c3.2 0 6.1-.5 8.6-1.4 2.5-1 4.6-2.5 6.2-4.5 1.7-2 3-4.7 3.8-7.9.9-3.3 1.3-7.3 1.3-11.9v-80h23v79.3zm97 20.9c-1.9 4.8-4.7 9.1-8.4 12.7-3.6 3.6-8.1 6.4-13.4 8.5-5.3 2-11.3 3.1-18.2 3.1-3.9 0-7.8-.4-11.6-1.2-3.8-.7-7.5-1.8-11-3.2s-6.7-3.1-9.8-5.1-5.8-4.2-8.2-6.7l6.7-11c.6-.8 1.3-1.5 2.2-2 .9-.6 1.9-.9 2.9-.9 1.4 0 3 .6 4.6 1.8 1.7 1.1 3.6 2.4 5.9 3.8s4.9 2.7 7.9 3.9c3.1 1.1 6.7 1.7 11 1.7 6.5 0 11.6-1.5 15.2-4.6s5.4-7.6 5.4-13.4c0-3.2-.8-5.9-2.5-7.9-1.6-2-3.7-3.8-6.4-5.1-2.7-1.4-5.7-2.6-9.1-3.6s-6.9-2-10.4-3.2-7-2.5-10.4-4.1-6.5-3.7-9.1-6.2c-2.7-2.6-4.8-5.7-6.5-9.6-1.6-3.9-2.4-8.6-2.4-14.3 0-4.5.9-8.9 2.6-13.1 1.8-4.3 4.4-8.1 7.9-11.3s7.6-5.9 12.6-7.9 10.8-3 17.2-3c7.3 0 14 1.1 20.1 3.4s11.4 5.5 15.7 9.6l-5.7 10.8c-.7 1.2-1.4 2.1-2.2 2.6-.7.5-1.7.8-2.8.8-1.2 0-2.5-.4-3.9-1.3s-3-1.9-4.9-3-4.2-2-6.8-2.9-5.6-1.4-9.1-1.4q-4.8 0-8.4 1.2c-2.4.7-4.4 1.8-6.1 3.2-1.6 1.4-2.8 3-3.6 4.9s-1.2 4-1.2 6.2c0 2.9.8 5.3 2.4 7.3 1.7 1.9 3.8 3.6 6.5 4.9 2.7 1.4 5.7 2.6 9.1 3.7s6.9 2.2 10.5 3.5c3.6 1.2 7.1 2.6 10.5 4.3 3.4 1.6 6.5 3.6 9.1 6.1 2.7 2.4 4.8 5.5 6.4 9 1.7 3.6 2.5 7.9 2.5 13.1.1 5.8-.8 11-2.8 15.9"/></svg>