<svg xmlns="http://www.w3.org/2000/svg" xml:space="preserve" viewBox="0 0 512 512"><path d="M256 0C114.6 0 0 114.6 0 256s114.6 256 256 256 256-114.6 256-256S397.4 0 256 0m0 456.7c-110.8 0-200.7-89.9-200.7-200.7S145.2 55.3 256 55.3 456.7 145.2 456.7 256 366.8 456.7 256 456.7"/><circle cx="256" cy="256" r="200.7" style="opacity:.5"/><path d="M234.1 194.5c-7.1-2.3-12.1-2.2-16.2-2-10.5.4-39.7 2.3-81.8 2.4-.4 0-.7.3-.7.7-.1 3.9 0 7.2 0 9.7.1 3.6.3 5.4.4 6.1.3 3 .8 5.5 1.2 7.3.2.4 1 1.7 2.6 2.4.9.3 1.7.3 2.2.3l63.2-.3c-8.5 13.4-17.2 23.9-24.3 31.6-5.2 5.6-12.4 13.3-23.2 21.6-2.8 2.2-9.6 6.9-23 16.4-4.9 3.4-8.9 6.2-11.6 8.1-.4.3-1.9 1.8-2.1 4.3-.1 1.6.3 3.2 1.4 4.6l2.5 3.2c8 10.3 23 11.9 32.9 3.4l44.1-37.6L239 313c3.8 3.8 10 4 14 .3l7.6-7c.4-.3 4.3-3.8 3.8-9-.4-4-3.1-6.4-3.7-6.9-2.1-2.1-5.3-5.1-9.1-8.8-13.5-12.9-17.1-15.8-19.4-17.4-3.1-2.3-7.7-5.5-13.8-8.7.7-2.1 1.3-3.6 1.4-3.7.1-.2.3-.4.3-.5 3.7-5.8 6.6-9.6 6.6-9.6s4.2-5.5 10.3-13.7c2.8-3.7 5-6.8 6.3-8.7.6-1 1.8-3 1.7-6.4 0-2.4-.2-4.1-1.4-7.4l-3.2-5.4c-1.2-1.7-3-4.5-6.3-5.6m156.7-6.2c4.1.3 4.7.5 5.3.7 2 .8 3.4 1.8 5.3 3.4 2.4 2 5.7 4.9 9.2 9.1-.5 5.7-1.4 13.7-3.6 22.9-5.4 22.5-14.6 38-21.1 48.8-7.6 12.6-20 30.2-39.3 48-.7.5-1.8 1.1-3.1 1.7 0 0-1.1.5-2.1.9-3.3 1.2-9.9-1.7-12.2-2.7-2.9-1.3-6.2-2.8-9.8-4.7-.5-1.3-1-3.4-.4-5.8.6-2.2 1.8-3.5 3.9-5.6 3.9-3.9 5.9-5.8 8.2-8 .7-.6 4.3-3.9 7.8-7.6 5.2-5.4 8.5-10 10.9-13.2 0 0 5.3-7.2 9.6-14.9 10-17.8 14.8-39 16-44.7l-58.8.6v39.1c.1 1-3 2-4.9 2.1l-21.1-.3c-1 0-3.2-.9-3.2-1.9.1-22.4.2-44.8.2-67.3 5.3.1 13.5.1 23.6 0 18.1-.2 19.4-.6 40.5-.9"/></svg>