<svg xmlns="http://www.w3.org/2000/svg" xml:space="preserve" viewBox="0 0 512 512"><linearGradient id="sveltia-cms-dark_svg__a" x1="256" x2="256" y1="512" y2="0" gradientUnits="userSpaceOnUse"><stop offset="0" style="stop-color:#000"/><stop offset="1" style="stop-color:#000;stop-opacity:.6"/></linearGradient><path d="M41.5 511.1C17.8 506.5 0 485.7 0 460.8V51.2C0 22.9 22.9 0 51.2 0h53.7L28 123.1a57.57 57.57 0 0 0 0 61.1l108.9 174.3zm184-406.3c27-16.9 62.5-8.7 79.4 18.3L384 249.7l79.2-126.6C474.1 105.6 492.8 96 512 96V51.2C512 22.9 489.1 0 460.8 0H240.7l-96 153.6 108.9 174.3c11.7 18.7 11.7 42.4 0 61.1l-76.9 123h284.1c28.3 0 51.2-22.9 51.2-51.2V262.3l-79.2 126.6c-10.5 16.8-29 27.1-48.8 27.1s-38.3-10.2-48.8-27.1l-128-204.8c-16.9-26.9-8.7-62.5 18.3-79.3" style="fill:url(#sveltia-cms-dark_svg__a)"/></svg>