<svg xmlns="http://www.w3.org/2000/svg" xml:space="preserve" viewBox="0 0 512 512"><path d="M256 0C114.8 0 0 114.8 0 256s114.8 256 256 256 256-114.8 256-256S397.2 0 256 0m-68 385.5c-27.1 4.6-49.4-3-54.9-26-1.8-8.4-3-16.9-3.3-25.6-.6-9.2.4-18.3-.3-27.5-2-25.1-5.2-33.6-29.2-34.8v-31.2c1.8-.4 3.4-.7 5.2-.9 13.2-.7 18.8-4.7 21.7-17.7 1.4-7.3 2.2-14.7 2.5-22.1 1-14.3.6-28.8 3-43 3.4-20.4 16-30.2 37-31.4 5.9-.3 11.9 0 18.7 0v28c-2.9.2-5.3.6-7.9.6-17-.6-17.9 5.2-19.2 19.4-.8 8.8.3 17.8-.3 26.7-.7 8.9-1.8 17.6-3.5 26.4-2.5 12.5-10.2 22-21 29.8 20.9 13.6 23.2 34.6 24.6 56 .7 11.5.4 23.1 1.6 34.6.9 8.9 4.3 11.1 13.5 11.4 3.7.1 7.6 0 11.9 0v27.3zm23.7-128.2c-.6 9.7-9 17.2-18.7 16.6h-1.2c-9.8-.5-17.5-9-17-18.9.5-9.8 9-17.5 18.8-17h.4c9.9.2 17.9 8.4 17.7 18.3zm44.6 16.6c-11 0-18.3-6.9-18.3-17.6-.1-.6-.1-1.1-.1-1.7.3-9.5 8.3-16.9 17.8-16.6 10.9-.1 18.1 7 18.2 17.7 0 11.2-6.8 18.2-17.6 18.2m62.2 0h-.2c-10 0-18.1-8.1-18.1-18.1.3-10 8.7-18 18.7-17.8 10 0 18.9 8.5 18.4 18.2-.6 10.6-9.7 19.3-18.8 17.7m93.3-2.5c-1.4.5-2.8.8-4.2 1-15.3 1-22.2 7.3-23.7 22.5-1 9.7-.9 19.7-1.6 29.5-.3 10.7-1.3 21.5-3 32.1-3.9 19.3-16 28.9-35.8 30.1-6.4.4-12.8 0-19.8 0v-27.9c3.7-.2 7-.5 10.3-.6 11.9-.3 16-4.1 16.6-15.9.7-13 1-26 1.5-38.9.9-18.8 6-35.5 23.4-47.3-9.9-7.1-17.9-15.8-20.1-27.4-2.5-14.1-3.2-28.5-4.6-42.8-.7-7.2-.7-14.4-1.4-21.5-.7-7.8-6-10.4-13-10.5-4-.1-8.1-.1-13.3-.1v-27.2c32.9-5.4 55.5 5.5 57.6 36.8.9 13.2.8 26.5 1.6 39.7.4 7.1 1.5 14.3 3.2 21.2 2.9 10.8 8.6 14.7 20 15.2 1.9.1 3.6.4 6.2.7v31.3z"/></svg>