<svg xmlns="http://www.w3.org/2000/svg" xml:space="preserve" viewBox="0 0 512 512"><path d="M256 499.8C121.6 499.8 12.2 390.4 12.2 256S121.6 12.2 256 12.2 499.8 121.6 499.8 256 390.4 499.8 256 499.8" style="fill:#85ea2d"/><path d="M256 24.4c127.9 0 231.6 103.7 231.6 231.6S383.9 487.6 256 487.6 24.4 383.9 24.4 256 128.1 24.4 256 24.4M256 0C114.8 0 0 114.8 0 256s114.8 256 256 256 256-114.8 256-256S397.2 0 256 0m-94.8 173.2c-.8 8.8.3 17.8-.3 26.7-.7 8.9-1.8 17.6-3.5 26.4-2.5 12.5-10.2 22-21 29.8 20.9 13.6 23.2 34.6 24.6 56 .7 11.5.4 23.1 1.6 34.6.9 8.9 4.3 11.1 13.5 11.4 3.7.1 7.6 0 11.9 0v27.4c-27.1 4.6-49.4-3-54.9-26-1.8-8.4-3-16.9-3.3-25.6-.6-9.2.4-18.3-.3-27.5-2-25.1-5.2-33.6-29.2-34.8v-31.2c1.8-.4 3.4-.7 5.2-.9 13.2-.7 18.8-4.7 21.7-17.7 1.4-7.3 2.2-14.7 2.5-22.1 1-14.3.6-28.8 3-43 3.4-20.4 16-30.2 37-31.4 5.9-.3 11.9 0 18.7 0v28c-2.9.2-5.3.6-7.9.6-17.1-.6-18 5.2-19.3 19.3M194 238h-.4c-9.8-.5-18.3 7.2-18.8 17-.5 9.9 7.2 18.4 17 18.9h1.2c9.7.6 18.1-6.9 18.7-16.6v-1c.2-9.9-7.8-18.1-17.7-18.3m61.7 0c-9.5-.3-17.5 7.2-17.8 16.6 0 .6 0 1.1.1 1.7 0 10.7 7.3 17.6 18.3 17.6 10.8 0 17.6-7.1 17.6-18.2-.1-10.7-7.3-17.8-18.2-17.7m63.2 0c-10-.2-18.4 7.8-18.7 17.8 0 10 8.1 18.1 18.1 18.1h.2c9.1 1.6 18.2-7.2 18.8-17.7.5-9.7-8.4-18.2-18.4-18.2m86.7 1.5c-11.4-.5-17.1-4.3-20-15.2-1.8-6.9-2.9-14.1-3.2-21.2-.8-13.2-.7-26.5-1.6-39.7-2.1-31.3-24.7-42.2-57.6-36.8v27.2c5.2 0 9.3 0 13.3.1 7 .1 12.3 2.8 13 10.5.7 7.1.7 14.3 1.4 21.5 1.4 14.3 2.2 28.7 4.6 42.8 2.2 11.6 10.1 20.3 20.1 27.4-17.4 11.7-22.5 28.4-23.4 47.3-.5 12.9-.8 25.9-1.5 38.9-.6 11.8-4.7 15.6-16.6 15.9-3.3.1-6.6.4-10.3.6v27.9c7 0 13.4.4 19.8 0 19.9-1.2 31.9-10.8 35.8-30.1 1.7-10.6 2.7-21.4 3-32.1.7-9.8.6-19.8 1.6-29.5 1.5-15.3 8.5-21.6 23.7-22.5 1.5-.2 2.9-.5 4.2-1v-31.2c-2.6-.4-4.4-.7-6.3-.8" style="fill:#173647"/></svg>