<svg xmlns="http://www.w3.org/2000/svg" xml:space="preserve" viewBox="0 0 512 512"><linearGradient id="swetrix-light_svg__a" x1="20.449" x2="398.46" y1="491.551" y2="113.54" gradientUnits="userSpaceOnUse"><stop offset="0" style="stop-color:#fff;stop-opacity:.25"/><stop offset="1" style="stop-color:#fff"/></linearGradient><path d="M69.8 372.4c38.6 0 69.8 31.3 69.8 69.8S108.4 512 69.8 512 0 480.7 0 442.2s31.3-69.8 69.8-69.8m186.2 0c38.6 0 69.8 31.3 69.8 69.8S294.6 512 256 512s-69.8-31.3-69.8-69.8 31.2-69.8 69.8-69.8m0-186.2c38.6 0 69.8 31.3 69.8 69.8s-31.3 69.8-69.8 69.8-69.8-31.3-69.8-69.8 31.2-69.8 69.8-69.8m186.2 0c38.6 0 69.8 31.3 69.8 69.8s-31.3 69.8-69.8 69.8-69.8-31.3-69.8-69.8 31.2-69.8 69.8-69.8M256 0c38.6 0 69.8 31.3 69.8 69.8s-31.3 69.8-69.8 69.8-69.8-31.3-69.8-69.8S217.4 0 256 0" style="fill:url(#swetrix-light_svg__a)"/></svg>