<?xml version="1.0" encoding="utf-8"?>
<!-- Generator: Adobe Illustrator 28.2.0, SVG Export Plug-In . SVG Version: 6.00 Build 0)  -->
<svg version="1.1" id="Layer_1" xmlns="http://www.w3.org/2000/svg" xmlns:xlink="http://www.w3.org/1999/xlink" x="0px" y="0px"
	 viewBox="0 0 512 512" style="enable-background:new 0 0 512 512;" xml:space="preserve">
<style type="text/css">
	.st0{fill:#FFFFFF;}
</style>
<path class="st0" d="M256,512c141.4,0,256-114.6,256-256C512,114.6,397.4,0,256,0S0,114.6,0,256C0,397.4,114.6,512,256,512z"/>
<path d="M356,233l-34.3-108.2c-6.2-19.8-22.2-29-44.1-29h-38.6c-22,0-37.9,9.2-44.1,29L160.5,233c-6.2,19.3-0.5,32.7,17.8,35.5
	c19.8,2.9,43.5,4.6,68.1,5v115.7h-34.1c-13.3,0-22,7.5-22,18.3c0,5.8,3.7,9.9,9.3,9.9h117.3c5.6,0,9.4-4,9.4-9.9
	c0-10.8-8.8-18.3-22.1-18.3h-34V273.5c24.5-0.4,48.1-2.1,68-5C356.5,265.7,362.2,252.2,356,233z"/>
</svg>
