<svg xmlns="http://www.w3.org/2000/svg" xml:space="preserve" viewBox="0 0 512 512"><path d="M427.7 512H84.3C37.8 512 0 474.2 0 427.7V84.3C0 37.8 37.8 0 84.3 0h343.3C474.2 0 512 37.8 512 84.3v343.3c0 46.6-37.8 84.4-84.3 84.4"/><path d="M367.7 116.7H255.8c-23.1 0-41.9 18.8-41.9 41.9v195c0 23.1 18.8 41.9 41.9 41.9h111.8c23.1 0 41.9-18.8 41.9-41.9v-195c.1-23.2-18.7-41.9-41.8-41.9m14.1 235.6c0 8.4-6.8 15.3-15.3 15.3H257c-8.4 0-15.3-6.8-15.3-15.3V159.8c0-8.4 6.8-15.3 15.3-15.3h109.6c8.4 0 15.3 6.8 15.3 15.3v192.5zM173 367.5c-7.9 0-14.2-6.4-14.2-14.2V158.8c0-7.9 6.4-14.2 14.2-14.2 7.9 0 14.2 6.4 14.2 14.2v194.5c0 7.9-6.4 14.2-14.2 14.2M117 340c-7.9 0-14.2-6.4-14.2-14.2V186.3c0-7.9 6.4-14.2 14.2-14.2 7.9 0 14.2 6.4 14.2 14.2v139.5c.1 7.9-6.3 14.2-14.2 14.2" style="fill:#fff"/></svg>