<svg xmlns="http://www.w3.org/2000/svg" xml:space="preserve" viewBox="0 0 512 512"><radialGradient id="sync-in_svg__a" cx="109.343" cy="539.821" r="6.73" gradientTransform="matrix(0 -64.2714 43.3138 0 -23063.785 7483.993)" gradientUnits="userSpaceOnUse"><stop offset="0" style="stop-color:#75277f"/><stop offset="1" style="stop-color:#c53bd7"/></radialGradient><path d="M170.8 93.9 274.9 0v54.7c105.3 6.9 188.8 94.6 188.8 201.7 0 92.8-62.6 171-147.9 194.8l36.7-33.1-50.6-45.6c48-16.7 82.5-62.4 82.5-116 0-63.3-47.9-115.4-109.4-122.1V188z" style="fill-rule:evenodd;clip-rule:evenodd;fill:url(#sync-in_svg__a)"/><radialGradient id="sync-in_svg__b" cx="109.359" cy="534.613" r="6.73" gradientTransform="scale(43.3138 64.2714)rotate(90 323.788 215.307)" gradientUnits="userSpaceOnUse"><stop offset="0" style="stop-color:#0578bf"/><stop offset="1" style="stop-color:#009dff"/></radialGradient><path d="M219.2 137.6c-52.7 13.9-91.5 61.8-91.5 118.8 0 67.1 53.9 121.7 120.7 122.8v-55.1L352.5 418l-104.1 94v-53.5c-110.6-1.1-200.1-91.3-200.1-202.2 0-97.9 69.7-179.6 162.1-198.2l-39.6 35.7z" style="fill-rule:evenodd;clip-rule:evenodd;fill:url(#sync-in_svg__b)"/></svg>