<svg xmlns="http://www.w3.org/2000/svg" xml:space="preserve" viewBox="0 0 512 512"><path d="M470.8 365.6c-.9-53.7-1.6-107.4-2.4-161.1-.9-63.6-1.7-127.3-2.6-190.9-.1-9.9-6.6-15.2-15.9-13.1-25.8 5.9-51.7 11.7-77.5 17.5C306.7 32.7 241 47.5 175.3 62.2c-9.1 2-12.2 6.1-12.1 15.5.2 7.5.3 14.9.4 22.4 1.3 90.7 2.5 181.4 3.7 272.1v9.8c-2.5-1.9-4.4-3.5-6.4-5-17-12.6-36.1-17.4-56.9-14-51.5 8.5-78.6 64.8-53.4 110.5 15.3 27.7 48.4 43.4 78.8 37.3 38-7.6 62.5-38.6 61.7-77.8-.4-20.2-.8-40.4-1.1-60.7l-3-224.1c-.1-4.6 0-9.2 0-14 85.6-19.2 171.1-38.4 256.8-57.6 1.1 81.6 2.2 162.6 3.3 244.4-1.7-1.3-2.6-2.1-3.6-2.9-17.3-13.9-37.1-19.3-58.9-16-54.2 8.2-83.1 71.4-49.5 117.3 17.9 24.4 42.6 35.1 72.6 30.4 30.3-4.8 50.1-23 59.9-52 3.6-10.6 3.4-21.4 3.2-32.2M115.6 489.4c-28.6.1-51.7-23.7-51.6-52.8s23.6-52.6 53-52.2c27.9.4 51.4 22.4 51.2 53.2-.2 29.6-23.7 51.8-52.6 51.8m327.7-438c0 .9-2.1 2.3-3.4 2.6-12.5 3-25 5.8-37.5 8.6-20 4.5-40.1 8.9-60.1 13.4-41.4 9.3-82.8 18.5-124.3 27.8-9.6 2.2-19.3 4.3-28.9 6.5-.6.1-1.2.1-3 .3 0-8.8-.1-17.4.2-25.9 0-.9 2.2-2.2 3.5-2.5 14.7-3.4 29.5-6.7 44.3-10 19.8-4.4 39.5-8.8 59.3-13.3l113.7-25.5c10.6-2.4 21.2-4.9 31.9-7.3 1.1-.2 2.2-.2 4.4-.4.1 8.9.2 17.3-.1 25.7m-47.4 377c-28.1 0-52-24.1-52-52.4 0-28.6 23.8-52.7 52.1-52.7 28.9 0 52.3 23.7 52.3 53.1-.2 28.3-24 52-52.4 52" style="fill:#fff"/><path d="M64 436.6c.1-29.1 23.6-52.6 53-52.2 27.9.4 51.4 22.4 51.2 53.2-.2 29.6-23.7 51.8-52.6 51.8-28.6.1-51.7-23.7-51.6-52.8m384.2-60.2c0-29.4-23.3-53.1-52.3-53.1-28.3 0-52.1 24.1-52.1 52.7 0 28.2 24 52.4 52 52.4 28.5 0 52.3-23.7 52.4-52m-259-266c9.6-2.2 19.3-4.3 28.9-6.5 41.4-9.3 82.8-18.6 124.3-27.8 20-4.5 40.1-8.9 60.1-13.4 12.5-2.8 25-5.6 37.5-8.6 1.3-.3 3.4-1.7 3.4-2.6.3-8.4.2-16.9.2-25.8-2.2.2-3.3.1-4.4.4-10.6 2.4-21.2 4.9-31.9 7.3L293.6 58.9c-19.8 4.4-39.5 8.8-59.3 13.3-14.8 3.3-29.5 6.6-44.3 10-1.4.3-3.5 1.6-3.5 2.5-.3 8.6-.2 17.1-.2 25.9 1.7-.1 2.3-.1 2.9-.2" style="opacity:.7;fill:#fff"/></svg>