<svg xmlns="http://www.w3.org/2000/svg" xml:space="preserve" viewBox="0 0 512 512"><path d="m437.3 75-22.5 158.5L256.3 256l22.5-158.5z" style="opacity:.8;fill:#a295ae"/><path d="m75.1 437.1 22.5-158.5L256.2 256l-22.5 158.5z" style="opacity:.8;fill:#5d6f6d"/><path d="m75.1 75.2 158.5 22.5 22.5 158.5-158.5-22.4z" style="opacity:.8;fill:#8cd592"/><path d="m437.2 437.1-158.5-22.5L256.1 256l158.5 22.5z" style="opacity:.8;fill:#665e74"/><path d="m256.3 512-96.2-128 96.2-128 96.2 128z" style="opacity:.8;fill:#3c3647"/><path d="m512 255.7-128 96.2-128-96.2 128-96.2z" style="opacity:.8;fill:#837193"/><path d="m256 0 96.2 128L256 256l-96.2-128z" style="opacity:.8;fill:#a2f4ac"/><path d="M0 256.2 128 160l128 96.2-128 96.2z" style="opacity:.8;fill:#7ea685"/><path d="m256 195.1 60.9 60.9-60.9 60.9-60.9-60.9z" style="fill:#3c3647"/></svg>