<svg xmlns="http://www.w3.org/2000/svg" xml:space="preserve" id="tandoor-recipes_svg__svg48" x="0" y="0" version="1.1" viewBox="0 0 512 512"><style>.tandoor-recipes_svg__st1{fill-rule:evenodd;clip-rule:evenodd;fill:#161616}</style><linearGradient id="tandoor-recipes_svg__ellipse2_00000006706518564687951110000009291237621761505696_" x1="-22.496" x2="-21.429" y1="256" y2="256" gradientTransform="matrix(0 0 0 0 2947.959 -381.062)" gradientUnits="userSpaceOnUse"><stop offset="0" style="stop-color:#272727"/><stop offset="1" style="stop-color:#6c6c6c"/></linearGradient><circle id="tandoor-recipes_svg__ellipse2_00000059296264395257429230000012935247206760467865_" cx="256" cy="256" r="256" style="fill-rule:evenodd;clip-rule:evenodd;fill:url(#tandoor-recipes_svg__ellipse2_00000006706518564687951110000009291237621761505696_)"/><path d="M511.7 267.3 299.6 55.2l-3 73.4-25.5 11.8-59.3-59.3-3.4 76.9 13 5.4-17.8 8.2L309 277 151.3 441.1l68.3 68.3c11.9 1.7 24 2.6 36.3 2.6 137.6 0 249.8-108.5 255.8-244.7" class="tandoor-recipes_svg__st1"/><path id="tandoor-recipes_svg__path21" d="M256.1 220c30.2 0 56.6-12.7 73.3-25.9 17-13.4 41.5-10.7 55.2 6 22.5 27.3 36 61.9 36 99.5 0 61.6-38 137.5-90.8 164.2-22.7 11.4-46.3 16.9-73.7 16.9h-.1c-27.4 0-50.9-5.4-73.7-16.9-52.9-26.6-90.8-102.7-90.8-164.2 0-37.6 13.5-72.2 36-99.5 13.7-16.7 38.3-19.3 55.2-6 16.8 13.2 43.2 25.9 73.4 25.9" style="fill-rule:evenodd;clip-rule:evenodd;fill:#ffcb76"/><path id="tandoor-recipes_svg__path25" d="M232.3 26.9c-1.6-2.1-1.6-5 0-7.1s4.4-3 6.8-2c12.6 4.6 28.9 11.8 41.7 21.4 26.5 19.9 33.7 33.3 39.6 47.1 7 16.3 8 33.1 6.5 44.8-4.2 33.6-31.6 61.5-70.5 61.5-39 0-69.9-27.6-70.5-61.5-.4-20.5 6.8-36.8 14.7-48.4 2-2.9 5.7-4.1 8.9-2.9 3.3 1.2 5.4 4.5 5 8-1.1 7.3-1.8 15-1.5 21.1 1.3 20.7 14.6 26.1 28.3 26 14.6-.1 29.4-11.6 24.1-40.9-4.7-25.7-21.4-51.4-33.1-67.1" style="fill-rule:evenodd;clip-rule:evenodd;fill:#ff6f00"/><path d="M285.3 80.2c-11.1-28.3-33.4-48.4-54.1-57.8-.3 1.6.1 3.2 1.1 4.5C244 42.6 260.7 68.3 265.4 94c5.3 29.3-9.5 40.7-24.1 40.9-13.7.1-27-5.2-28.3-26-.4-6.1.4-13.8 1.5-21.1.2-1.5-.1-3-.8-4.3-17.6 47.7 2.6 80.5 42.2 75.1 24.8-3.6 50.4-24.6 29.4-78.4" style="fill-rule:evenodd;clip-rule:evenodd;fill:#ffd100"/><path id="tandoor-recipes_svg__path37" d="M227.1 422c-5.7 0-10.8-1.9-14.6-5-2.3-1.8-3.2-5-2.2-7.9 1-2.8 3.7-4.7 6.7-4.7 14.3-.1 39.1-.1 39.1-.1s24.7 0 39.1.1c3 0 5.6 1.8 6.7 4.7 1 2.8.1 6-2.2 7.9-3.9 3.2-9 5-14.6 5zm-11.3-30.7c-3.1 0-6.1-1.3-8.3-3.5s-3.5-5.2-3.5-8.3v-13.4c0-4.3-2.8-7.9-7-9.1-14.2-4-24.7-16.8-24.7-32 0-18.3 15.3-33.2 34.3-33.2 7.3 0 13.8-4.6 16.2-11.4 3.3-9.5 12.8-20.3 33.1-20.3h.2c20.3 0 29.8 10.8 33.1 20.3 2.4 6.9 8.9 11.4 16.2 11.4 18.9 0 34.3 14.9 34.3 33.2 0 15.1-10.5 27.9-24.7 32-4.1 1.2-7 4.8-7 9.1v13.4c0 3.1-1.3 6.1-3.5 8.3s-5.2 3.5-8.3 3.5z" class="tandoor-recipes_svg__st1"/></svg>