<svg xmlns="http://www.w3.org/2000/svg" xml:space="preserve" viewBox="0 0 512 512"><linearGradient id="tasktrove-light_svg__a" x1="256" x2="256" y1="512" y2="0" gradientUnits="userSpaceOnUse"><stop offset="0" style="stop-color:#fff;stop-opacity:.8"/><stop offset="1" style="stop-color:#fff;stop-opacity:.6"/></linearGradient><path d="M416.5 0h-321C42.8 0 0 42.8 0 95.5v320.9C0 469.2 42.8 512 95.5 512h320.9c52.8 0 95.5-42.8 95.5-95.5v-321C512 42.8 469.2 0 416.5 0M431 182.9 233.6 380.3l-.7.7c-.1.1-.3.3-.4.5-16.1 16.1-42.2 16.1-58.4 0l-89.8-89.8c-16.1-16.1-16.1-42.2 0-58.4 16.1-16.1 42.2-16.1 58.4 0l7.2 7.2 23 23 14.2 14.2.2.2c7.6 7.6 19.9 7.6 27.5 0l40.4-40.4 115.2-115.1c16.7-16.7 43.7-16.7 60.4 0 16.9 16.8 16.9 43.8.2 60.5" style="fill:url(#tasktrove-light_svg__a)"/><path d="m149.5 240.1 80.3-79.6c12.6-12.4 32.8-12.6 45.6-.4l29.3 28.1-49.3 49.3-40.5 40.5c-7.6 7.6-19.9 7.6-27.5 0l-.2-.2-14.2-14.3-23-23zm216.8 7.5L233.6 380.3l-.7.7c-.1.1-.3.3-.4.5-16.1 16.1-42.2 16.1-58.4 0l-83.2-83.2L0 388.2v28.3C0 469.2 42.8 512 95.5 512h320.9c52.8 0 95.5-42.8 95.5-95.5v-28.7z" style="fill:#fff"/></svg>