<svg xmlns="http://www.w3.org/2000/svg" xml:space="preserve" viewBox="0 0 512 512"><path d="M256 0C114.6 0 0 114.6 0 256s114.6 256 256 256 256-114.6 256-256S397.4 0 256 0m12.6 353.8.4 66-164.1 1.2-1-180.8c0-7.1 5.7-12.9 12.8-12.9h.1c7.1 0 12.8 5.7 12.9 12.8l.8 155.1 112.7-.7-.3-40.3c-7.9-4.5-13.3-13-13.3-22.7 0-14.4 11.7-26 26-26s26 11.7 26 26c.1 9.4-5.2 17.8-13 22.3M153.2 217.2c1-1 105.1-99.3 207.3 2.4 5 5 5.1 13.2 0 18.2-2.5 2.5-5.8 3.8-9.1 3.8s-6.6-1.2-9.1-3.7c-84.1-83.7-167.8-5.5-171.3-2.1-5.1 4.9-13.3 4.8-18.2-.4-4.8-5.2-4.7-13.3.4-18.2m90.1 47.3c-15.1 4.9-25.6 15.4-25.7 15.5-5 5-13.1 5.1-18.2.2-5.1-5-5.2-13.1-.2-18.1 1-1 25-25.4 58.5-25.7 20.6-.1 39.6 8.4 56.9 25.5 5 5 5.1 13.1.1 18.2-2.5 2.5-5.8 3.8-9.1 3.8s-6.5-1.2-9.1-3.7c-16.8-16.8-34.2-21.9-53.2-15.7m71.3 156.4c-7.1 0-12.9-5.8-12.9-12.9s5.8-12.9 12.9-12.9h79.6L393 238.8c-.1-7.1 5.7-12.9 12.8-13h.1c7.1 0 12.8 5.7 12.9 12.8l1.5 182.3zm147.9-188.8L256.3 72.6 57.2 232.8c-2.4 1.9-5.2 2.8-8.1 2.8-3.8 0-7.5-1.6-10-4.8-4.5-5.5-3.6-13.6 2-18.1L255.9 39.8l222.3 171.9c5.6 4.3 6.7 12.4 2.3 18-4.3 5.7-12.4 6.7-18 2.4"/></svg>