<svg xmlns="http://www.w3.org/2000/svg" xml:space="preserve" viewBox="0 0 512 512"><path d="M202.8 302.3c-2.8 0-4.1 2.9-4.1 8.5 0 5.5 1.4 8.2 4.1 8.2 2.8 0 4.1-2.7 4.1-8.2 0-5.6-1.4-8.5-4.1-8.5m1.6 10.2c-.4.4-1 .6-1.7.6s-1.2-.2-1.7-.6c-.4-.4-.6-1-.6-1.7s.2-1.2.6-1.7c.4-.4 1-.6 1.7-.6s1.2.2 1.7.6c.4.4.6 1 .6 1.7.1.7-.2 1.3-.6 1.7m-1.6 29.1c-2.8 0-4.1 2.9-4.1 8.5 0 5.5 1.4 8.2 4.1 8.2 2.8 0 4.1-2.7 4.1-8.2 0-5.7-1.4-8.5-4.1-8.5m1.6 10.2c-.4.4-1 .6-1.7.6s-1.2-.2-1.7-.6c-.4-.4-.6-1-.6-1.7s.2-1.2.6-1.7c.4-.4 1-.6 1.7-.6s1.2.2 1.7.6c.4.4.6 1 .6 1.7.1.8-.2 1.3-.6 1.7m108.9 29.1c-2.8 0-4.1 2.9-4.1 8.5 0 5.5 1.4 8.2 4.1 8.2s4.1-2.7 4.1-8.2c0-5.6-1.4-8.5-4.1-8.5m1.7 10.2c-.4.4-1 .6-1.7.6s-1.2-.2-1.7-.6-.6-1-.6-1.7.2-1.2.6-1.7c.4-.4 1-.6 1.7-.6s1.2.2 1.7.6c.4.4.6 1 .6 1.7s-.2 1.3-.6 1.7m-75.4-88.8c-2.8 0-4.1 2.9-4.1 8.5 0 5.5 1.4 8.2 4.1 8.2 2.8 0 4.1-2.7 4.1-8.2 0-5.6-1.4-8.5-4.1-8.5m1.6 10.2c-.4.4-1 .6-1.7.6s-1.2-.2-1.7-.6c-.4-.4-.6-1-.6-1.7s.2-1.2.6-1.7c.4-.4 1-.6 1.7-.6s1.2.2 1.7.6c.4.4.6 1 .6 1.7.1.7-.1 1.3-.6 1.7m72.1 29.1c-2.8 0-4.1 2.9-4.1 8.5 0 5.5 1.4 8.2 4.1 8.2s4.1-2.7 4.1-8.2c0-5.7-1.4-8.5-4.1-8.5m1.7 10.2c-.4.4-1 .6-1.7.6s-1.2-.2-1.7-.6c-.4-.4-.6-1-.6-1.7s.2-1.2.6-1.7c.4-.4 1-.6 1.7-.6s1.2.2 1.7.6c.4.4.6 1 .6 1.7 0 .8-.2 1.3-.6 1.7m-75.4 29.1c-2.8 0-4.1 2.9-4.1 8.5 0 5.5 1.4 8.2 4.1 8.2 2.8 0 4.1-2.7 4.1-8.2 0-5.6-1.4-8.5-4.1-8.5m1.6 10.2c-.4.4-1 .6-1.7.6s-1.2-.2-1.7-.6c-.4-.4-.6-1-.6-1.7s.2-1.2.6-1.7c.4-.4 1-.6 1.7-.6s1.2.2 1.7.6c.4.4.6 1 .6 1.7.1.7-.1 1.3-.6 1.7m145.6-256.2c0 6.6-5.6 12-12.6 12-6.9 0-12.6-5.4-12.6-12s5.6-12 12.6-12 12.6 5.4 12.6 12m-184 246c-2.8 0-4.1 2.9-4.1 8.5 0 5.5 1.4 8.2 4.1 8.2 2.8 0 4.1-2.7 4.1-8.2 0-5.6-1.4-8.5-4.1-8.5m1.6 10.2c-.4.4-1 .6-1.7.6s-1.2-.2-1.7-.6-.6-1-.6-1.7.2-1.2.6-1.7c.4-.4 1-.6 1.7-.6s1.2.2 1.7.6c.4.4.6 1 .6 1.7.1.7-.2 1.3-.6 1.7m296-98.1c6.4 0 11.6-4.9 11.6-11 0-6-5.2-11-11.6-11h-51.7v-29.8h51.7c6.4 0 11.6-4.9 11.6-11 0-6-5.2-11-11.6-11h-51.7v-29.8h51.7c6.4 0 11.6-4.9 11.6-11 0-6-5.2-11-11.6-11h-51.7v-29.8h51.7c6.4 0 11.6-4.9 11.6-11 0-6-5.2-11-11.6-11h-51.7c-.5-28.6-23.6-51.6-52.2-52.2V11.9c0-6.4-4.9-11.6-11-11.6s-11 5.2-11 11.6v51.7h-29.8V11.9c0-6.4-4.9-11.6-11-11.6s-11 5.2-11 11.6v51.7H293V11.9c0-6.4-4.9-11.6-11-11.6s-11 5.2-11 11.6v51.7h-29.8V11.9c0-6.4-4.9-11.6-11-11.6s-11 5.2-11 11.6v51.7h-29.8V11.8c0-6.4-4.9-11.6-11-11.6s-11 5.2-11 11.6v51.7h-29.8V11.8c0-6.4-4.9-11.6-11-11.6s-11 5.2-11 11.6v51.8c-28.5.5-51.6 23.6-52.1 52.2H11.6c-6.4 0-11.6 4.9-11.6 11s5.2 11 11.6 11h51.9v29.8H11.6c-6.4 0-11.6 4.9-11.6 11s5.2 11 11.6 11h51.9v29.8H11.6c-6.4 0-11.6 4.9-11.6 11s5.2 11 11.6 11h51.9v29.8H11.6c-6.4 0-11.6 4.9-11.6 11s5.2 11 11.6 11h51.9V323H11.6C5.2 323 0 327.9 0 334s5.2 11 11.6 11h51.9v29.8H11.6c-6.4 0-11.6 4.9-11.6 11s5.2 11 11.6 11h52c.5 28.6 23.6 51.7 52.2 52.2v51.3c0 6.4 4.9 11.6 11 11.6 6 0 11-5.2 11-11.6V449h29.8v51.3c0 6.4 4.9 11.6 11 11.6 6 0 11-5.2 11-11.6V449h29.8v51.3c0 6.4 4.9 11.6 11 11.6 6 0 11-5.2 11-11.6V449H271v51.4c0 6.4 4.9 11.6 11 11.6 6 0 11-5.2 11-11.6V449h29.8v51.3c0 6.4 4.9 11.6 11 11.6 6 0 11-5.2 11-11.6V449h29.8v51.3c0 6.4 4.9 11.6 11 11.6 6 0 11-5.2 11-11.6v-51.4c28.6-.5 51.7-23.6 52.2-52.2h51.7c6.4 0 11.6-4.9 11.6-11 0-6-5.2-11-11.6-11h-51.7v-29.8h51.7c6.4 0 11.6-4.9 11.6-11 0-6-5.2-11-11.6-11h-51.7V293zm-285.5 8.6 5.2-1.8v3.2l-5.2 1.8zM97.7 171h101.1v3.5H97.7zm76 12.1v3.5h-76v-3.5zm-76 12h59.2v3.5H97.7zM87 150.4c.4 0 .8-.1 1.3-.1s1-.2 1.5-.4.9-.4 1.2-.7.5-.6.5-.9c0-.6-.1-1.1-.2-1.7-.2-.5-.3-1.1-.5-1.6s-.3-1.1-.4-1.6q-.3-1.65.3-2.7c.6-1.05 1-1.3 1.8-1.7s1.7-.6 2.8-.6c.6 0 1 0 1.4.1s.7.1 1 .2l-.3 2.5c-.3-.1-.7-.1-1-.1h-.9c-.7 0-1.2.2-1.6.6s-.6 1-.4 1.8c.1.6.2 1.1.4 1.6s.4 1 .6 1.6c.2.5.2 1.1.2 1.6 0 1-.4 1.7-1.1 2.3s-1.8.8-3.2.8v.5c1.4 0 2.4.3 3.2.8.7.5 1.1 1.2 1.1 2.1 0 .6-.1 1.1-.2 1.6-.2.5-.4 1-.6 1.6-.2.5-.3 1-.4 1.6-.2.8 0 1.5.4 2s1 .7 1.7.7c.3 0 .6 0 .9-.1.3 0 .6-.1 1-.1l.3 2.5c-.3.1-.7.2-1 .2h-1.4c-1 0-1.9-.2-2.8-.6q-1.2-.6-1.8-1.8c-.4-.8-.5-1.7-.3-2.8.1-.6.2-1.1.4-1.6s.4-1.1.5-1.6c.2-.5.2-1.1.2-1.6 0-.4-.2-.7-.5-.9s-.7-.4-1.2-.6l-1.5-.3c-.5-.1-.9-.1-1.4-.1zm11.8 92.7c-.4 0-.9 0-1.4.1-.6.1-1.1.2-1.6.3q-.75.3-1.2.6c-.3.3-.5.6-.5 1 0 .6.1 1.2.2 1.7.2.6.4 1.1.6 1.7s.4 1.1.4 1.7c.2 1.2.1 2.2-.3 3.1s-1.1 1.5-1.9 2-1.8.7-2.9.7c-.6 0-1.1 0-1.5-.1s-.8-.1-1.1-.2l.4-2.7c.4 0 .7.1 1 .1s.6.1.9.1c.7 0 1.3-.2 1.8-.7s.6-1.2.4-2.1c-.1-.6-.2-1.1-.5-1.7-.2-.6-.4-1.1-.6-1.7s-.3-1.1-.3-1.7c0-.9.4-1.7 1.2-2.2.8-.6 1.9-.8 3.4-.9v-.5c-1.4 0-2.6-.3-3.4-.9s-1.2-1.4-1.2-2.5c0-.6.1-1.2.3-1.7.2-.6.4-1.1.6-1.7s.4-1.1.5-1.7c.1-.8 0-1.4-.5-1.9-.4-.4-1.1-.7-1.8-.7h-.9c-.3 0-.7.1-1 .1l-.4-2.7c.3-.1.7-.2 1.1-.2.4-.1.9-.1 1.5-.1q1.65 0 3 .6c.9.4 1.5 1.1 1.9 1.9s.6 1.8.3 2.9c-.1.6-.2 1.2-.4 1.7-.2.6-.4 1.1-.6 1.7s-.2 1.2-.2 1.8c0 .4.2.7.5 1s.7.5 1.3.7c.5.2 1 .4 1.6.4.5.1 1 .2 1.4.2v2.5zm25.5-21.5H97.4v-3.5h26.8v3.5zm-26.6-11.4v-3.5h75.5v3.5zm67 153.6.2-14.7 12.6 7.5zm22.1-165.2h-25.2v-3.5h25.2zm16 201.9c-5 0-7.4-3.7-7.4-11.1 0-7.6 2.5-11.4 7.4-11.4 5 0 7.4 3.8 7.4 11.4 0 7.4-2.5 11.1-7.4 11.1m0-39.3c-5 0-7.4-3.7-7.4-11.1 0-7.6 2.5-11.4 7.4-11.4 5 0 7.4 3.8 7.4 11.4 0 7.4-2.5 11.1-7.4 11.1m0-39.3c-5 0-7.4-3.7-7.4-11.1 0-7.6 2.5-11.4 7.4-11.4 5 0 7.4 3.8 7.4 11.4 0 7.4-2.5 11.1-7.4 11.1m9.1-135.4h-32.6V183h32.6zm16.2 213.7h-13.6v-2.9h5.5v-18.9h3.2v18.9h4.9zm-13.2-16.9v-3.1l5.2-1.8v3.2zm13.2-22.4h-13.6V358h5.5v-18.9h3.2V358h4.9zM214.9 344v-3.1l5.2-1.8v3.2zm13.2-22.4h-13.6v-2.9h5.5v-18.9h3.2v18.9h4.9zm41.7-2.9h5.5V303l-5.2 1.8v-3.1l5.2-1.8h3.2v18.9h4.9v2.9h-13.6zm-30.2 81.8c-5 0-7.4-3.7-7.4-11.1 0-7.6 2.5-11.4 7.4-11.4 5 0 7.4 3.8 7.4 11.4 0 7.4-2.5 11.1-7.4 11.1m-6.3-56.5v-3.1l5.2-1.8h3.2V358h4.9v2.9H233V358h5.5v-15.7zm6.3-22.1c-5 0-7.4-3.7-7.4-11.1 0-7.6 2.5-11.4 7.4-11.4 5 0 7.4 3.8 7.4 11.4 0 7.4-2.5 11.1-7.4 11.1m25.4 78.3h-13.6v-2.9h5.5v-15.7l-5.2 1.8v-3.1l5.2-1.8h3.2v18.9h4.9zm0-39.3h-13.6V358h5.5v-15.7l-5.2 1.8V341l5.2-1.8h3.2V358h4.9zm0-39.3h-13.6v-2.9h5.5V303l-5.2 1.8v-3.1l5.2-1.8h3.2v18.9h4.9zm18.4 78.6h-13.6v-2.9h5.5v-15.7l-5.2 1.8v-3.1l5.2-1.8h3.2v18.9h4.9zm-7-39c-5 0-7.4-3.7-7.4-11.1 0-7.6 2.5-11.4 7.4-11.4 5 0 7.4 3.8 7.4 11.4.1 7.4-2.4 11.1-7.4 11.1m25.4 39h-13.6v-2.9h5.5v-15.7l-5.2 1.8v-3.1l5.2-1.8h3.2v18.9h4.9zm0-39.3h-13.6V358h5.5v-15.7l-5.2 1.8V341l5.2-1.8h3.2V358h4.9zm0-39.3h-13.6v-2.9h5.5V303l-5.2 1.8v-3.1l5.2-1.8h3.2v18.9h4.9zm11.5 78.9c-5 0-7.4-3.7-7.4-11.1 0-7.6 2.5-11.4 7.4-11.4s7.4 3.8 7.4 11.4c0 7.4-2.5 11.1-7.4 11.1m0-39.3c-5 0-7.4-3.7-7.4-11.1 0-7.6 2.5-11.4 7.4-11.4s7.4 3.8 7.4 11.4c0 7.4-2.5 11.1-7.4 11.1m0-39.3c-5 0-7.4-3.7-7.4-11.1 0-7.6 2.5-11.4 7.4-11.4s7.4 3.8 7.4 11.4c0 7.4-2.5 11.1-7.4 11.1m60.9-151.6c-19.4 0-35.2-15.9-35.2-35.4 0-19.6 15.8-35.4 35.2-35.4s35.2 15.8 35.2 35.4-15.7 35.4-35.2 35.4m-60.9 132c-2.8 0-4.1 2.9-4.1 8.5 0 5.5 1.4 8.2 4.1 8.2s4.1-2.7 4.1-8.2c0-5.6-1.4-8.5-4.1-8.5m1.7 10.2c-.4.4-1 .6-1.7.6s-1.2-.2-1.7-.6c-.4-.4-.6-1-.6-1.7s.2-1.2.6-1.7c.4-.4 1-.6 1.7-.6s1.2.2 1.7.6c.4.4.6 1 .6 1.7s-.2 1.3-.6 1.7m-38.6 29.1c-2.8 0-4.1 2.9-4.1 8.5 0 5.5 1.4 8.2 4.1 8.2 2.8 0 4.1-2.7 4.1-8.2.1-5.7-1.3-8.5-4.1-8.5m1.7 10.2c-.4.4-1 .6-1.7.6s-1.2-.2-1.7-.6c-.4-.4-.6-1-.6-1.7s.2-1.2.6-1.7c.4-.4 1-.6 1.7-.6s1.2.2 1.7.6c.4.4.6 1 .6 1.7 0 .8-.2 1.3-.6 1.7" style="fill-rule:evenodd;clip-rule:evenodd;fill:#fff"/></svg>