<svg xmlns="http://www.w3.org/2000/svg" xml:space="preserve" viewBox="0 0 512 512"><path d="M413.9 0H98.1C43.9 0 0 43.9 0 98.1V414c0 54.1 43.9 98 98.1 98H414c54.2 0 98.1-43.9 98.1-98.1V98.1C512 43.9 468.1 0 413.9 0M357 362.4c-5.8 17.8-16.7 33.5-31.4 45a94.5 94.5 0 0 1-51.2 19.8c-21 2.7-42.3.7-62.4-5.7-42.6-15.2-61.1-47.9-63.9-90.8v-247h68.7v71.1h145.8v50.9H220.1c-1.1 1.2-2 2.6-2.5 4.1-.5 1.6-.5 3.2-.2 4.8v106.3c.1 6.1 1 12.2 2.5 18.2 1.4 7.6 5.5 14.5 11.5 19.5 6 4.9 13.6 7.6 21.3 7.4 23 .9 34.1-6 40.8-24.4 3.4-10.7 4.8-22 4.2-33.3v-58.1c.2-.9.5-1.8.9-2.6h63s1.2.8 1.2 1.3c-.9 37.8 5.9 76.2-5.8 113.5"/></svg>