<?xml version="1.0" encoding="utf-8"?>
<!-- Generator: Adobe Illustrator 28.2.0, SVG Export Plug-In . SVG Version: 6.00 Build 0)  -->
<svg version="1.1" id="Layer_1" xmlns="http://www.w3.org/2000/svg" xmlns:xlink="http://www.w3.org/1999/xlink" x="0px" y="0px"
	 viewBox="0 0 512 512" style="enable-background:new 0 0 512 512;" xml:space="preserve">
<style type="text/css">
	.st0{fill-rule:evenodd;clip-rule:evenodd;fill:#FFFFFF;}
</style>
<path class="st0" d="M153.5,256c0-56.5,46-102.4,102.5-102.4S358.5,199.5,358.5,256s-46,102.4-102.5,102.4S153.5,312.5,153.5,256z
	 M195.7,256c0,33.2,27,60.2,60.3,60.2c33.2,0,60.3-27,60.3-60.2s-27.1-60.2-60.3-60.2C222.7,195.8,195.7,222.8,195.7,256z
	 M499,328.3l-49.9-42.5l0.9-5.8c1-7.8,1.4-15.9,1.4-24c0-10-0.5-20.3-2.3-29.7l49.9-42.4l1.1-0.9c1.3-1.3,2.2-3,2.6-4.8
	s0.1-3.8-0.6-5.5c-10.2-30.8-27.8-60-49.4-84.3c-3.1-3.5-7.4-4.7-11.4-3l-62.9,21.5l-5.2-4c-14.3-10.7-30-19.3-46.7-25.7l-12.5-64
	l-0.4-1.3c-0.6-1.8-1.7-3.4-3.2-4.6s-3.2-2-5.1-2.3l0,0c-32.6-6.5-66.1-6.5-98.7,0c-2.1,0.3-4.1,1.3-5.6,2.8s-2.6,3.4-3,5.5
	l-12.4,64l-5.7,2.3c-16.7,6.8-32.3,16.1-46.3,27.5L70.8,85.3l-1.4-0.4c-1.8-0.4-3.8-0.3-5.5,0.3c-1.8,0.6-3.4,1.7-4.5,3.2
	c-21.6,24.3-39.2,53.5-49.4,84.3c-0.9,1.9-1,4.1-0.5,6.2c0.6,2,1.8,3.9,3.5,5.1l49.9,42.5l-0.9,5.8c-1,7.8-1.4,16-1.4,24
	c-0.1,10,0.6,19.9,2.3,29.7L13,328.3l-1.1,0.9c-1.3,1.3-2.2,3-2.6,4.9c-0.3,1.8-0.1,3.8,0.6,5.5c10.2,30.8,27.7,60,49.4,84.2
	c3.1,3.5,7.4,4.8,11.4,3l62.9-21.5l4.6,3.7c14.4,10.9,30.4,19.7,47.3,26l12.4,64l0.3,1.3c0.6,1.8,1.7,3.4,3.2,4.6s3.2,2,5.1,2.3
	c16.3,3,32.6,4.7,49.4,4.7c16.8,0,33.1-1.7,49.4-4.7c2.1-0.3,4.1-1.3,5.6-2.8s2.6-3.4,3-5.5l12.5-64l6.2-2.5
	c16.5-7,31.9-16.1,45.7-27.2l62.8,21.5l1.4,0.5c3.7,1,7.4-0.4,10.1-3.5c21.7-24.2,39.2-53.4,49.4-84.2c0.9-1.9,1-4.1,0.5-6.2
	C502,331.3,500.7,329.5,499,328.3z M256,405.8c-82.9,0-150-67.1-150-149.8s67.1-149.8,150-149.8S406,173.3,406,256
	S338.9,405.8,256,405.8z"/>
</svg>
