<svg xmlns="http://www.w3.org/2000/svg" xml:space="preserve" viewBox="0 0 512 512"><linearGradient id="telebugs_svg__a" x1="256" x2="256" y1="514" y2="2" gradientTransform="matrix(1 0 0 -1 0 514)" gradientUnits="userSpaceOnUse"><stop offset=".55" style="stop-color:#0064e6"/><stop offset="1" style="stop-color:#0884bc"/></linearGradient><path d="M256 0c141.4 0 256 114.6 256 256S397.4 512 256 512 0 397.4 0 256 114.6 0 256 0" style="fill:url(#telebugs_svg__a)"/><path d="M407.2 170.7c-.2-4.4-2.1-8.6-5.3-11.6s-7.5-4.7-11.9-4.5c-4.4.1-8.6 2-11.7 5.1-3.1 3.2-4.8 7.4-4.8 11.9.1 4.2 0 8.3-.4 12.5-6.1.3-12.2.1-18.2-.5-1.9-9.4-5.7-18.3-11.3-26.1s-12.7-14.3-21-19.1c-17.4-10.1-37.5-11.4-55.3-5.4-3.5-4.9-6.7-10.1-9.5-15.5 3.4-2.4 7-4.6 10.6-6.6 4.1-2.1 7.2-5.7 8.6-10.1.7-2.2.9-4.4.7-6.7s-.9-4.4-2-6.4c-2.2-4-5.9-7-10.3-8.2-2.2-.6-4.5-.7-6.7-.4s-4.4 1.1-6.4 2.2c-9.3 5.1-18.1 11.2-26.2 18.1-2.7 2.3-4.6 5.3-5.5 8.8-.9 3.4-.6 7 .6 10.3 4.6 11.7 10.5 22.8 17.8 33-3.3 3.6-6.1 7.5-8.6 11.7-1.4 2.5-1.3 5.5.2 7.9 5.2 8.4 11.4 16.2 18.4 23.3-4.3 1.8-8.4 4.3-12 7.4-15.7-13.3-29.5-28.6-41.2-45.5q3.75-7.35 8.1-14.4c2.3-3.8 3-8.4 2-12.8-2.2-9-11.2-14.6-20.3-12.4h-.1c-4.3 1.1-8.1 3.8-10.4 7.7-5.1 8.4-9.8 17.1-14 26-1.2 2.6-1.7 5.4-1.6 8.2.2 2.8 1.1 5.6 2.6 8 15.9 25.2 35.9 47.5 59.2 66q-.3 3.15 0 6.3l-4.5-1.8-.6-.2c-27.1-10.4-55.7-16.2-84.6-17.4-2.8-.1-5.6.5-8.2 1.7-2.5 1.3-4.7 3.1-6.3 5.5-14.9 21.3-26.6 44.7-34.9 69.4-1.4 4.2-1.1 8.9.9 12.9s5.5 7 9.7 8.5c4.2 1.4 8.9 1.1 12.9-.9s7-5.5 8.5-9.8c6.2-18.6 14.8-36.4 25.4-52.9 8.7.7 17.4 1.9 26 3.6-4.7 5.3-8.9 11-12.4 17.2-24.9 43.1-14.6 95.6 23 117.3s88.2 4.4 113-38.7c3.5-6.1 6.4-12.6 8.7-19.4 5.8 6.6 11.1 13.6 16.1 20.8-9 17.4-20.2 33.7-33.1 48.5-3 3.4-4.5 7.7-4.2 12.2.1 2.2.7 4.4 1.7 6.4 1.9 4 5.4 7.1 9.6 8.5 4.2 1.5 8.9 1.2 12.9-.8 2-1 3.8-2.3 5.2-4 17.2-19.5 31.6-41.4 42.6-64.9 1.2-2.6 1.7-5.4 1.6-8.2-.2-2.8-1.1-5.6-2.6-8-15.5-24.6-35-46.5-57.6-64.9l-.2-.2c-1.3-1-2.5-2-3.8-3 1.9-.9 3.7-2 5.5-3.2 27.7 10.8 57 17 86.8 18.2 2.8.1 5.6-.5 8.2-1.7 2.5-1.3 4.7-3.1 6.3-5.5 5.6-8.1 10.8-16.5 15.5-25.1 1.1-1.9 1.7-4.1 2-6.3.2-2.2.1-4.4-.6-6.6-1.2-4.3-4.1-7.9-8.1-10.1-3.9-2.1-8.5-2.6-12.8-1.4-4.3 1.3-7.9 4.2-10.1 8.1-2.6 4.8-5.4 9.6-8.4 14.2-20.5-1.6-40.6-6-60-12.9.9-4.7 1-9.4.4-14.1 9.6 2.5 19.4 3.9 29.4 4.3 1.4.1 2.7-.3 4-.9 1.2-.7 2.2-1.6 2.9-2.8 2.4-4.2 4.4-8.7 5.9-13.3 12.5 1.1 25.1.7 37.5-1.1 3.5-.5 6.7-2.1 9.2-4.6s4.2-5.6 4.9-9.1c2-10.4 2.9-21.1 2.6-31.7" style="fill:#fff"/></svg>