<svg xmlns="http://www.w3.org/2000/svg" xml:space="preserve" viewBox="0 0 512 512"><path d="M148.1 460.6h-.2c1.8-2.6 4.1-5 6.1-7.5 4.9-6.3 10.6-12.5 15.5-18.7-5.5-11.1-12.9-25.6-17.4-36.8 2.5-3.4 6.1-7.4 8.9-10.7q8.1-9.75 16.5-19.2c10.1-11.7 20.3-23.4 30.5-35 8.9-9.9 17.6-19.9 26.2-30.1-12.7 4.3-32.1 8.6-45.6 9.6-.4-9.4.2-17 1.3-26.3.7-4.7 1.3-8.5 2.3-13.1-2.6 2.7-5.6 6.2-8.1 9l-16.8 18.7-51.6 58.2c-2.7-.5-7.3-.9-10.2-1.3-6.5-.8-13-1.6-19.6-2.3-3.7 3.5-7.2 7.4-10.8 11.1-8 8.2-16 16.4-24 24.5-1.4 1.4-8.1 8.2-9.3 8.9.5-1.1 6.4-7.9 7.6-9.2 11.5-13.4 23.1-26.7 34.7-39.9 9.5.6 20.1 2.2 29.9 3 4.9-4.8 12.1-13.5 16.7-18.9l26-29.5 23.6-26.2c4.6-5 9.3-10.1 13.6-15.3 1.2-1.5 1.9-4 2.6-5.9 5.8-16.4 16.2-28.4 32-35.9-2.7-2.7-11.1-4.8-15.2-6.7 2.9-3.4 10.8-10.7 14.4-13.8 2.1-6.7 4.2-11.4 7.3-17.7-4.2-3.6-9.5-8.2-14-11.4-17.4 1.2-42.1 6.4-59.5 9.8l-22.5 4.5c-9.3 1.7-18.7 3.3-28 5.2 3.1-1.2 6.1-2.9 9.1-4.3l14.9-6.9q32.55-15.15 64.8-30.6l62.7-29.7c5.4-2.6 10.9-5.2 16.3-7.7 1.5-.7 8.2-3.7 9.1-4.4 4.8-3.4 9.8-8.8 14.3-12.8 8.1-7.1 16.6-13.8 25.4-20.2 33-24.2 72.4-42.9 110.8-56.7C451.1 14 465.8 9 479.1 6.1h.3l.2.4c-2.9 13.7-5.2 27.3-8.4 41-13.1 56.3-35.4 108.2-75.7 150.7-5.7 6.1-11.4 11.3-17.5 17-13.2 39.4-26 79-38.6 118.6l-10.5 33c-1.3 4.2-2.6 8.8-4 12.9.2-34.8 0-69.6-.6-104.3-4.2-4.5-8.6-10.2-12.3-15-9.8 4.3-22.5 14.1-30 21.7-3.1-6-3.4-8.2-8-14.3-3.6 8.9-11.4 18.2-19.3 23.6-5.5 3.8-8.1 4.8-12.7 9.9-6 6.8-12 13.8-18 20.6L181.7 370l-15 17.3c-2.7 3.1-6.2 7.5-9.1 10.2.9 2.6 3.7 8.3 4.9 11.1l11.8 25c-3.3 3.9-8.7 9.2-12.4 13-4 4.2-9.9 10.6-13.8 14m329.1-230.8-8.4-13.2c-.7-1.2-3.3-5.5-4-6.2l-47.4 73.8c8.5 0 17.7-.2 26.1 0-.9 8.9-2.9 17.5-5.3 26.1-10.6 36.1-31.6 68.3-60.5 92.5-26.2 21.6-57.8 35.5-91.4 40.2-7.8 1.1-15.5 1.4-23.3 1.7-3.6.1-8.4-.7-11.8-.1-4.3.8-3.7 4-1.1 6.7 6.5 1 15.9.8 22.5.4 36.5-2.3 71.6-15 101.1-36.7 39.3-28.9 68.3-73.6 76.1-122.1.5-3.2 1.6-10.3 1.6-13.4-.9-1.4-1.6-2.3-3.4-2.5-5.5-.5-11.6-.2-17.1-.3 11.2-17.5 22.4-35 33.8-52.3 7.5 11.5 15 23 22.3 34.7 3.5 5.6 7.8 12.6 11.5 17.9-2.8-.1-5.6-.1-8.4-.1-13.7-.1-12.6-1.4-14.2 11.5-.5 4-1.2 8-1.9 12-1.3 6.6-3.7 15.6-5.7 21.9-28.3 91-112.3 153.5-207.9 154.4-8.2.1-16.4-.3-24.5-1.1-3.4-.3-6.7-.8-10-1.2-3.5-.4-4.8 4.3-2.5 6.4 1.5 1.2 5.8 1.3 7.9 1.6 18 2.2 36.1 2.2 54.1.1 60.1-7 115-37.8 152.2-85.6 24.7-31.4 42.4-72.6 46.6-112.5 9.4-.1 18.6-.2 27.9-.1-11.6-18.3-23.2-36.4-34.9-54.5M38.8 290.7c5.4-6.3 12.3-13.5 18-19.7 5.8-6.3 14.6-16.5 20.9-21.9 5.8 1.4 12 2.4 17.9 3.8 9.9 2.2 21.2 5.3 31.2 6.8 2.6 13 17 14 22.1 5.1 7.3-12.6-12-25.6-21.6-9.6l-27-6c-8-1.8-16.4-3.8-24.4-5.4L49 272.6c-3.4 3.7-8.1 9.2-11.5 12.5-13-53.7-2.1-109.5 25.4-156.7 14.3-23.7 32.7-44.8 54.3-62.1 3.5-2.8 7.1-5.5 10.7-8.1 2.1-1.5 5.8-3.9 7.7-5.5-.7-4.3-1.8-5.7-4.4-9.2-2.6-3.4-5-6.9-7.7-10.1l67.5-6c-4.3 10.8-9.2 21.4-13.6 32.1q-3.6 8.7-7.5 17.4c-1 2.1-2.4 5.8-3.5 7.8-3.7-4.1-8.6-9.9-12-14.2-6.4 2.8-15.5 9.9-21.1 14.2-27.7 21.3-49.9 50.6-63.1 83-10.8 26.6-15.1 52.6-13.7 81.5 1.9-2 5.1-5.3 6.7-7.3.5-16 1.8-29.5 5.6-45.2 8.9-36.1 28.1-68.9 55.1-94.4 8.1-7.7 19.5-16.6 29-22.4 4.4 6 10.6 13.7 15.5 19.3 9.9-22.1 18.9-44.7 28.7-66.9 1.9-4.3 3.8-8.5 5.5-12.9-1 .1-2.2.1-3.2.2-19 1.4-38 3-56.9 4.8-9.6.8-22.6 1.5-31.9 2.8 3.7 6.9 11.6 15.8 16.1 22.9-8.5 5.5-16.6 12.1-24.1 18.8-37.5 32.9-63.4 77.1-73.7 126-5.9 28.5-5.7 67.3 1.9 95.5 2.8.1 5.4.2 8 .3m16.4 67.7C63.6 350 72 339.8 80.4 331c3.9.8 9.3 1.3 13.4 1.8 7.2.9 14.3 1.6 21.5 2.3 18.7-20.8 37.2-41.8 55.5-62.9q11.85-13.35 23.1-27c2.7-3.3 6.1-7.2 8.6-10.5l-.2-.1q-27 27.45-53.1 55.5c-8.7 9.3-17.5 19.9-26.3 28.9-11.6-2.9-23.1-5.9-34.7-9.1-6-1.6-12.7-3.2-18.6-5-3.3 3.1-6.8 7.2-9.8 10.6l-17.1 19.4c-6.5 7.2-12.8 14.4-19.1 21.8-2.5 2.9-7.7 8.8-9.5 11.8 17.8-17 34.3-35.3 51.5-52.8 1.8-1.8 3.5-3.7 5.4-5.4 9.2 2.1 19.4 5.3 28.7 7.7 6.6 1.8 13.3 3.5 19.9 5-2 2.4-4 4.8-5.8 7.4-5.9-.9-12.1-1.6-18.1-2.3-5.4-.7-11.9-1.7-17.3-2.1-2.3 2.2-4.4 4.6-6.5 6.9-6.8 7.5-13.5 15.2-20.5 22.5-6.6-3.6-13-3-16.9 4-2.8 5.2-.1 13.9 5.5 15.9 11.4 4.2 20.1-6.3 15.2-16.9M202.4 463c2.1-2.3 5.1-5.2 7.1-7.5 3.6-4 7.3-8.2 11.1-11.9-5.5-13.1-13.4-27-19.3-40.7 16.3-18.6 32.7-37.1 49.1-55.6 7.1 7.1 15.1 14.4 21.8 21.6-4.8 9.5 4.9 19.5 14.5 15.7 14.9-5.9 5.1-27.4-9.4-20.5-.6.3-1.2.6-1.7.9-7.6-7.3-17.8-17.9-25.6-24.5-7.1 7.7-14.2 16-21.1 24l-33.2 37.9c1.4 3.2 3 6.6 4.6 9.7 5.2 10.3 10.1 20.7 15.1 31.2-13.3 15.5-27 30.7-39.8 46.6-2.3 2.9-5.1 5.6-7.3 8.7 1.9-1.7 4.7-4.7 6.5-6.6l11.6-12c5.3-5.6 10.7-11.3 16-17m-4.5-24.8c-6.1-13.1-12.4-26.2-18.9-39.1l60.3-68.9c10.2-11.5 20.2-23 30.2-34.7 5 0 11.3-.1 16.3-.5.1-1.6.4-3.1-.5-4.3-1-.4-1.7-.2-2.7-.1-5 .2-10.3.4-15.3.4l-58.8 67c-7.9 9.2-15.8 18.3-23.8 27.4-3.1 3.6-7.6 9.1-10.9 12.3 4.2 9 8.4 18 12.7 26.9 1.4 2.9 4.9 10.8 6.4 13.1-13.3 15-25.7 30.8-38.9 45.8-1.8 2.1-3.7 4.4-5.3 6.6.6-.3.4-.2 1-.7 5.2-5.4 10.5-10.7 15.6-16.1 6.3-6.7 12.5-13.4 18.7-20.2 4.4-4.8 9.5-10 13.9-14.9m-89.6-25.9c1.5-2.8 1.7-6.1.7-9-.5-1.5-1.3-2.8-2.3-4.1 12.6-14.7 25.5-29 38.1-43.5l16.8-19.1c2.7-3 6.2-7.4 8.9-10.2.7 2.8.9 3.4 2.3 6 1.6-2.9 3.5-11.9 2.4-14.9l-.5-.2c-3 .2-10.8.2-13.3 2-.4.3-.5 1-.6 1.5.9.8 5 1.3 6.6 1.7-2 1.6-5.9 6.3-7.8 8.5l-13.4 15c-14.8 16.6-29.5 33.4-44 50.2-6.6-1.9-13.4 1.4-15.1 8.3-.7 2.9-.2 6 1.5 8.5.9 1.4 1.6 2.1 2.9 3.1 5.9 3.3 13.4 2.6 16.8-3.8M66.4 283.6c11.3 2.9 22.6 5.6 33.9 8.2.8 7.2 5.9 12.5 13.5 11.4 3.2-.5 6.1-2.3 7.9-5 8.4-12.2-10.9-27-20.6-11.4-11.5-2.5-24.9-5.7-36.3-8.8-10.5 11-21.9 25-32 36.6-10.4 12.3-23.1 26-32.8 38.5v.3c1.5-1 11.4-11.9 13.2-13.8L41.4 310c8-8.6 16.7-18.1 25-26.4m66.9 129.3c-1.2-3.7-3.2-7.9-4.6-11.5 7.2-8.9 15.4-16.9 22.9-25.6 12.2-14.1 24.4-27.9 37-41.6.7 1.6 2.4 5.7 3.8 6.3 2-1.2.6-12.2.1-14.7-.9-.5-.4-.3-1.6-.2-3.4.3-9.9.6-12.7 2.2l-.3.5c1.1 1.7 5.1 2.1 7 2.5-3.1 3.8-7.1 8-10.5 11.7L155.1 364q-11.1 12.75-22.5 25.2c-2.2 2.4-7.6 8.9-9.7 10.8 1.8 4.2 3.2 7.9 4.8 12.1-2.8 3.3-27.1 32.2-27.7 34.1.4-.3.5-.3.8-.6 10.5-10.5 22-22.4 32.5-32.7m109.6-19.4c3.5 1.4 6.7 2.1 10.4.6 2.8-1.2 5-3.4 6.1-6.2 1.2-2.9 1.1-6.4-.2-9.2-1.3-2.7-3.6-4.8-6.5-5.8-1.9-.6-3.7-.7-5.6-.5-3.6.8-5.9 1.8-8 5.2-1.7 2.7-2.1 6.1-1.3 9.2.5 1.7.9 2.3 2 3.6-4.1 4-9.7 10.2-13.4 14.7-3.9-1.3-7.3.2-8.5 4.2-.6 1.8-.4 3.8.5 5.5 2.2 3.9 6.5 3.9 10 1.6 3.8-3.9 1.5-7.2 2-7.9 3.2-5.2 8.4-10.1 12.5-15m-113.5 41c-6.4 1.3-10.6 7.6-9.3 14s7.6 10.6 14 9.4c6.5-1.3 10.7-7.6 9.4-14-1.4-6.5-7.7-10.7-14.1-9.4m102.2 15.8c7.6-7.9 14.7-16.3 21.9-24.5 8-9 15.9-18.3 23.5-27.6l-.2-.5c-22.4 20.9-44.3 44.8-64.3 68-11.4 13-22.5 26.4-33.3 40l.2.2c15.3-16 30.4-32.1 45.4-48.3 2.2-2.5 4.5-4.9 6.8-7.3M90.9 369.6c-4.9 1.6-6.9 4.5-7 9.7-5.2 5.2-10.1 10.7-14.8 16.3-1.8 2.1-5 5.6-6.4 7.7.8-.5 6.8-6.6 7.9-7.7 4.9-4.9 9-8.7 14.2-13.4 1.5 2.1 4.1 4.8 6.8 5 12.9 1.1 14.4-18.7-.7-17.6" style="fill:#fff"/></svg>