<svg xmlns="http://www.w3.org/2000/svg" xml:space="preserve" id="tenzu_svg__svg38" x="0" y="0" version="1.1" viewBox="0 0 512 512"><style>.tenzu_svg__st0{fill:#0eb188}.tenzu_svg__st1{fill:#131a3e}.tenzu_svg__st4{fill-opacity:.7216;fill:#fbc259}.tenzu_svg__st5{fill:#fbc259}</style><path id="tenzu_svg__path27-4" d="M141.2 395.9s-6.7 35.8-9.7 59c-1.5 11.2.7 15.7 6.7 20.2 13.4 6.7 40.3 9.7 55.3 8.2 6.7-2.2 10.5-6 10.5-17.9 2.2-28.4-2.2-68.7-2.2-68.7M78.5 357.8S58.3 378 56.8 383.9c-2.2 6-.7 9 .7 11.2 3 4.5 17.9 17.2 27.6 17.9 8.2 0 9.7-.7 14.2-4.5 6.7-6 20.9-30.6 20.9-30.6zm304.7 38.1s6.7 35.8 9.7 59c1.5 11.2-.7 15.7-6.7 20.2-13.4 6.7-40.3 9.7-55.3 8.2-6.7-2.2-10.5-6-10.5-17.9-2.2-28.4 2.2-68.7 2.2-68.7m122.5-38.9s20.2 20.2 21.7 26.1c2.2 6 .7 9-.7 11.2-3 4.5-17.9 17.2-27.6 17.9-8.2 0-9.7-.7-14.2-4.5-6.7-6-20.9-30.6-20.9-30.6z" class="tenzu_svg__st0"/><path id="tenzu_svg__path28-3" d="M78.8 134.9c-31.7-13.7-38.3 11.2-26.3 29.3-34.1-2.5-42.5 33.6-21.5 50.5-25.1 1.9-33.5 38-16.2 48.6-31.7 35.5-6.6 76.6 21.5 76-.6 31.2 17.9 33.6 26.9 32.4 10.2 24.3 38.9 30.5 50.2 26.8 10.2 35.5 52 36.8 64 23.7 26.9 34.9 71.2 17.4 73.6 0 27.5 36.1 73.6 13.1 74.8-11.8 37.1 31.2 76-5 71.2-19.3 27.5 15 59.8-1.2 64.6-43 26.9-3.7 41.9-37.4 31.1-56.1 29.9-13.1 20.9-54.2.6-72.9 25.7-26.2 1.8-62.3-31.1-74.1 10.8-21.2-14.4-38-25.1-34.9-2.4-26.9-34.1-26.3-46.1-13.2-8.4-11.8-50.2-13.7-52.6-5-25.7-12.5-70-6.9-70 5-9.6-11.8-82.6-6.9-84.9 5.6 0 0-53.2-1.9-63.4 12.5-15.6-7.5-43.1 6.8-41.3 19.9" class="tenzu_svg__st1"/><path id="tenzu_svg__path29-9" d="M157.7 147.2c-9.7 44.1-5.2 114.2-3.7 125.4 7.5 28.4 29.9 44.8 57.5 53.8 20.2 5.2 82.9 1.5 90.3-1.5 40.3-6.7 53-29.1 53-58.2.7-29.9-11.9-114.2-16.4-121.7-38.1-37.3-112.7-52.3-181.4 3zm-9.7-22.4S77.8 51.6 95 38.2c12.7-15.7 85.9 25.4 85.9 25.4zm203.8 3.8s56.7-85.1 38.1-94.8c-14.9-12.7-80.6 41.1-80.6 41.1z" class="tenzu_svg__st0"/><path id="tenzu_svg__path30-0" d="M156.2 112.9s-53.8-50-41.8-59c9-10.5 62.7 20.2 62.7 20.2zm187.4 5.2s44.8-59 31.4-65.7c-10.5-9-58.2 31.4-58.2 31.4z" style="fill:#0a7c6d"/><linearGradient id="tenzu_svg__path15-8_00000179643417937592331450000010147309341336702911_" x1="2052.098" x2="1729.815" y1="-1486.934" y2="-1234.257" gradientTransform="matrix(.3102 -.02679 -.02679 -.3102 -448.54 -26.117)" gradientUnits="userSpaceOnUse"><stop offset="0" style="stop-color:#0eb188"/><stop offset=".484" style="stop-color:#8a9bf1"/><stop offset=".924" style="stop-color:#8a9bf1;stop-opacity:0"/></linearGradient><path id="tenzu_svg__path15-8" d="M215.1 365.3s6.7 1.8 8.9 3.6c1.8 1.4 2.3 4.9 2.2 7.4 0 2.5-3.3 6.3-7.2 6.1-3.5-.2-7.3-6.7-9.4-9.8-2.2-3-6.2-9.8-11.2-12.5-5.9-3.1-13-9.9-16.1-11.8-3-1.8-5.6-1.4-14.9-7.4-18.6-12-46-29.8-46-29.8s43.7 27.1 53.8 31.2c9.7 3.9 13.1 6.4 17.4 9.4 4.2 3 10.1 2.9 13.8 6.7 2.7 3 6 5.2 8.7 6.9" style="fill:url(#tenzu_svg__path15-8_00000179643417937592331450000010147309341336702911_)"/><path id="tenzu_svg__path32-5" d="M183.2 151.6c0 14.1 7.4 49.3 67.9 19.5 14.5 12.1 62 15.1 73.6-15.6 33.9 11.6 51.8-22.2 22.3-47.4 9.2-7.6-3.9-33.3-25.2-28.7 15.5-20.9-14.6-75.1-63.5-37.4-16-24.2-51.4-12.6-59.2 9.6-12.1-13.2-39.7-4.9-47.3 32.8-14.7 6.6-37.5 22.6-8.3 44-2.1 31.8 24.4 25.4 39.7 23.2" class="tenzu_svg__st1"/><path id="tenzu_svg__path33-6" d="m197 185.8 3.2 55-103.6 45.1-3.9-120.2z" class="tenzu_svg__st4"/><path id="tenzu_svg__path34-3" d="m306.3 185.8-3 55 101.1 44 6.4-119.1z" class="tenzu_svg__st4"/><ellipse id="tenzu_svg__ellipse34" cx="192" cy="213.7" class="tenzu_svg__st5" rx="27.6" ry="28.4"/><ellipse id="tenzu_svg__ellipse35-6" cx="311.5" cy="213.7" class="tenzu_svg__st5" rx="27.6" ry="28.4"/><ellipse id="tenzu_svg__ellipse36-3" cx="87.5" cy="226.4" class="tenzu_svg__st5" rx="38.8" ry="61.2"/><ellipse id="tenzu_svg__ellipse37-0" cx="416" cy="226.4" class="tenzu_svg__st5" rx="38.8" ry="61.2"/><path d="M259.6 329.4h-6.7v-37.7c-12-.3-24-2.3-33.5-5.4l2.1-6.4c21.7 7 50.1 6.7 64.7-.5l3 6c-8.1 4-18.6 5.9-29.5 6.3v37.7z" style="fill:#212d69"/></svg>