<svg xmlns="http://www.w3.org/2000/svg" xml:space="preserve" viewBox="0 0 512 512"><path d="M489.1 22.8a77.82 77.82 0 0 0-55-22.8H77.9c-20.6 0-40.4 8.2-55 22.8a77.82 77.82 0 0 0-22.8 55v356.4c0 20.6 8.2 40.4 22.8 55s34.4 22.8 55 22.8h356.2c20.6 0 40.4-8.2 55-22.8s22.8-34.4 22.8-55V77.8c0-20.6-8.2-40.4-22.8-55m-69.5 94.5H285.1v228.3h100.1v57.9H285.1v23.2c0 14.1-11.5 25.6-25.6 25.6s-25.6-11.5-25.6-25.6V297.4L97.5 352.8v-77.1l12.5-4.8 40.5-15.6-53-20.7v-77L233.9 213v-95.6H99.5c-15.8 0-28.7-12.8-28.7-28.7S83.6 60 99.5 60h320.2c15.8 0 28.7 12.8 28.7 28.7s-12.9 28.6-28.8 28.6M117.1 289.1l87.4-33.7-87.4-34.2v-34.7l133.6 54.2v28.8l-133.6 54.2zm248.6 76v18.8h-97.5v-18.8z"/></svg>