<svg xmlns="http://www.w3.org/2000/svg" xml:space="preserve" viewBox="0 0 512 512"><path d="M497.6 434.2V77.8c0-17-6.6-32.9-18.6-44.9s-27.9-18.6-44.9-18.6H77.9c-17 0-32.9 6.6-44.9 18.6S14.4 60.8 14.4 77.8v356.4c0 17 6.6 32.9 18.6 44.9s27.9 18.6 44.9 18.6h356.2c17 0 32.9-6.6 44.9-18.6s18.6-28 18.6-44.9" style="fill:#18181b"/><path d="M434.1 0H77.9c-20.6 0-40.4 8.2-55 22.8a77.82 77.82 0 0 0-22.8 55v356.4c0 20.6 8.2 40.4 22.8 55s34.4 22.8 55 22.8h356.2c20.6 0 40.4-8.2 55-22.8s22.8-34.4 22.8-55V77.8c0-20.6-8.2-40.4-22.8-55a77.82 77.82 0 0 0-55-22.8m63.5 434.2c0 17-6.6 32.9-18.6 44.9s-27.9 18.6-44.9 18.6H77.9c-17 0-32.9-6.6-44.9-18.6s-18.6-27.9-18.6-44.9V77.8c0-17 6.6-32.9 18.6-44.9s27.9-18.6 44.9-18.6h356.2c17 0 32.9 6.6 44.9 18.6s18.6 27.9 18.6 44.9z" style="fill:#2e2e30"/><path d="M419.6 59.9H99.5c-15.8 0-28.7 12.8-28.7 28.7s12.8 28.7 28.7 28.7H234v309.4c0 14.1 11.5 25.6 25.6 25.6s25.6-11.5 25.6-25.6V117.3h134.5c15.8 0 28.7-12.8 28.7-28.7s-12.9-28.7-28.8-28.7" style="fill:#e6e6e6"/><path d="M270.2 227.6v55.1L97.5 352.8v-77.1l12.5-4.8 40.5-15.6-53-20.7v-77zm-21.5 175.9h136.5v-57.9H248.7z" style="fill:#14191f"/><path d="m117.1 289.1 87.4-33.7-87.4-34.2v-34.7l133.6 54.2v28.8l-133.6 54.2z" style="fill:#00bf63"/><path d="M365.7 365.1v18.8h-97.5v-18.8z" style="fill:#737373"/></svg>