<svg xmlns="http://www.w3.org/2000/svg" xml:space="preserve" viewBox="0 0 512 512"><path d="M35 46.7h441.5c16.8 0 30.2 13.5 30.2 30.2v356.6c0 16.8-13.5 30.2-30.2 30.2H35c-16.8 0-30.2-13.5-30.2-30.2V77C4.7 60.2 18.2 46.7 35 46.7" style="fill:#3f3f45"/><path d="M35.2 42.5C15.8 42.5 0 58.3 0 77.7v356.6c0 19.4 15.8 35.2 35.2 35.2h441.5c19.4 0 35.2-15.8 35.2-35.2V77.7c0-19.4-15.8-35.2-35.2-35.2zm0 10h441.5c14.1 0 25.2 11.2 25.2 25.2v266H10v-266c0-14.1 11.2-25.2 25.2-25.2M10 353.7h492v80.6c0 14.1-11.2 25.2-25.2 25.2H35.2c-14.1 0-25.2-11.2-25.2-25.2z" style="fill:#090909"/><path d="M49 418.9V408l27.1-10.7L49 386.7v-10.9l38.9 16.8v9.3zm41.9 22v-7H136v7z" style="fill:#e4e4e4"/><path d="M65.2 72.9c-4.3 0-7.8 3.5-7.8 7.8V125c0 4.3 3.5 7.8 7.8 7.8h364c4.3 0 7.8-3.5 7.8-7.8V80.7c0-4.3-3.5-7.8-7.8-7.8zm-1 70.8h260.3c3.8 0 6.8 3.1 6.8 6.8v37.4c0 3.8-3.1 6.8-6.8 6.8H64.2c-3.8 0-6.8-3.1-6.8-6.8v-37.4c-.1-3.8 3-6.8 6.8-6.8m-2.6 61.9h349.5c2.4 0 4.3 1.9 4.3 4.3v23.5c0 2.4-1.9 4.3-4.3 4.3H61.6c-2.4 0-4.3-1.9-4.3-4.3v-23.5c0-2.4 2-4.3 4.3-4.3m0 42.8H374c2.4 0 4.3 1.9 4.3 4.3v23.5c0 2.4-1.9 4.3-4.3 4.3H61.6c-2.4 0-4.3-1.9-4.3-4.3v-23.5c0-2.3 2-4.3 4.3-4.3m0 42.9H219c2.4 0 4.3 1.9 4.3 4.3v23.5c0 2.4-1.9 4.3-4.3 4.3H61.6c-2.4 0-4.3-1.9-4.3-4.3v-23.5c0-2.4 2-4.3 4.3-4.3" style="fill:#0f0"/><path d="M114.8 87.8h-17l-9.7 37.9H77.6l9.7-37.9H70.5l2-7.8h44.3zm35.1 37.8h-22.2c-3.4 0-6.5-.8-9.3-2.3-3-1.7-4.9-4.4-5.8-8.1-.8-3.7-.7-7.8.4-12.2s3-8.4 5.7-11.9c2.9-3.9 6.3-6.7 10.1-8.5 2.1-1 4.1-1.6 5.9-2s3.9-.6 6.1-.6h20.6l-2.1 8.1h-19c-1.7 0-3.2.2-4.5.7-1.2.4-2.6 1.2-4 2.4s-2.5 2.3-3.2 3.5c-.7 1.1-1.3 2.5-1.7 4.1h30l-2.1 8.1H125c-.4 1.5-.5 2.8-.4 3.9s.5 2.2 1.2 3.4 1.6 2.1 2.5 2.7c1 .6 2.2.9 3.7.9h20zm53.4 0h-12.8l-7.2-17.8h-12.2l-4.6 17.8h-10.9L167.1 80h33.4c3.8 0 6.5 1.5 8.2 4.4s2.1 6.4 1.1 10.4c-.8 3.2-2.6 5.9-5.3 8.1s-5.7 3.6-9.1 4.2zm-6.6-31.3c.5-2.1.2-3.8-1.2-4.9-1.3-1.2-3.2-1.8-5.9-1.8H176l-3.3 12.8h14c2 0 4-.5 5.8-1.4 2.3-1.1 3.7-2.7 4.2-4.7m66.1 31.3H253l8.9-34.9-21.9 34.9h-11.7L224.1 90l-9.1 35.6h-9.5L217.2 80h15.2l4.1 36.1L258.6 80h15.8zm18.8 0h-12.2L281.1 80h12.2zm56.1 0h-13.3l-7.8-15.2-14.7 15.4h-13.6l23.6-22.7-11.5-23h13.7l6.5 15.2 15-15.2H349l-23.4 22.8z" style="fill:#26262b"/></svg>