<svg xmlns="http://www.w3.org/2000/svg" xml:space="preserve" viewBox="0 0 512 512"><path d="M35.2 42.5C15.8 42.5 0 58.3 0 77.7v356.6c0 19.4 15.8 35.2 35.2 35.2h441.5c19.4 0 35.2-15.8 35.2-35.2V77.7c0-19.4-15.8-35.2-35.2-35.2zm0 10h441.5c14.1 0 25.2 11.2 25.2 25.2v266H10v-266c0-14.1 11.2-25.2 25.2-25.2M10 353.7h492v80.6c0 14.1-11.2 25.2-25.2 25.2H35.2c-14.1 0-25.2-11.2-25.2-25.2zm39 65.2V408l27.1-10.7L49 386.7v-10.9l38.9 16.8v9.3zm41.9 22v-7H136v7zM196.7 94.3q-.75 3-4.2 4.8c-1.8.9-3.8 1.4-5.8 1.4h-14l3.3-12.8h13.7c2.7 0 4.7.6 5.9 1.8 1.3 1 1.7 2.7 1.1 4.8M374 248.4H61.6c-2.4 0-4.3 1.9-4.3 4.3v23.5c0 2.4 1.9 4.3 4.3 4.3H374c2.4 0 4.3-1.9 4.3-4.3v-23.5c0-2.3-1.9-4.3-4.3-4.3m37.1-42.8H61.6c-2.4 0-4.3 1.9-4.3 4.3v23.5c0 2.4 1.9 4.3 4.3 4.3h349.5c2.4 0 4.3-1.9 4.3-4.3v-23.5c0-2.4-1.9-4.3-4.3-4.3M64.2 194.7h260.3c3.8 0 6.8-3.1 6.8-6.8v-37.4c0-3.8-3.1-6.8-6.8-6.8H64.2c-3.8 0-6.8 3.1-6.8 6.8v37.4c-.1 3.7 3 6.8 6.8 6.8M219 291.3H61.6c-2.4 0-4.3 1.9-4.3 4.3v23.5c0 2.4 1.9 4.3 4.3 4.3H219c2.4 0 4.3-1.9 4.3-4.3v-23.5c0-2.4-1.9-4.3-4.3-4.3M437 80.7V125c0 4.3-3.5 7.8-7.8 7.8h-364c-4.3 0-7.8-3.5-7.8-7.8V80.7c0-4.3 3.5-7.8 7.8-7.8h364c4.3 0 7.8 3.4 7.8 7.8M97.8 87.8h17l2-7.8H72.5l-2 7.8h16.7l-9.7 37.9h10.6zm27.1 19h29.8l2.1-8.1h-30c.4-1.7 1-3 1.7-4.1s1.8-2.3 3.2-3.5 2.8-2 4-2.4c1.3-.5 2.8-.7 4.5-.7h19l2.1-8.1h-20.6c-2.2 0-4.2.2-6.1.6-1.8.4-3.7 1.1-5.9 2-3.8 1.8-7.2 4.6-10.1 8.5-2.6 3.6-4.5 7.5-5.7 11.9-1.1 4.4-1.3 8.5-.4 12.2s2.8 6.4 5.8 8.1c2.8 1.6 5.9 2.3 9.3 2.3h22.2l2-7.9h-20c-1.5 0-2.8-.3-3.7-.9s-1.8-1.5-2.5-2.7-1.1-2.3-1.2-3.4c-.1-1 .1-2.3.5-3.8m70.5.2c3.4-.6 6.5-2 9.1-4.2 2.7-2.2 4.4-4.9 5.3-8.1 1-4 .7-7.4-1.1-10.4-1.7-3-4.5-4.4-8.2-4.4h-33.4l-11.7 45.6h10.9l4.6-17.8h12.2l7.2 17.8h12.8zm67.4 18.6L274.4 80h-15.8l-22.1 36.1-4.1-36.1h-15.2l-11.7 45.6h9.5l9.1-35.6 4.2 35.6H240l21.8-34.9-8.9 34.9zm18.8 0L293.2 80H281l-11.7 45.6zm44-22.8L349 80h-13.3l-15 15.2-6.6-15.2h-13.7l11.5 23-23.6 22.7h13.6l14.7-15.4 7.8 15.2h13.3z"/></svg>