<?xml version="1.0" encoding="utf-8"?>
<!-- Generator: Adobe Illustrator 28.2.0, SVG Export Plug-In . SVG Version: 6.00 Build 0)  -->
<svg version="1.1" id="Layer_1" xmlns="http://www.w3.org/2000/svg" xmlns:xlink="http://www.w3.org/1999/xlink" x="0px" y="0px"
	 viewBox="0 0 512 512" style="enable-background:new 0 0 512 512;" xml:space="preserve">
<path d="M447.3,68.8C447.3,13.8,395,0,353.7,0v8.3c24.8,0,44,8.3,44,27.5c-0.7,16.1-14.4,28.5-30.5,27.8c-0.9,0-1.7-0.1-2.6-0.2
	c-31.1-3.3-61.7-10.7-90.8-22c-31-11.7-63.4-19.1-96.3-22C127.9,17.3,86,56,84,105.6c0,0.6,0,1.1-0.1,1.7
	c-0.4,26.9,16.1,51.1,41.3,60.6l2.8-5.5c-10.5-5-17.1-15.9-16.5-27.5c2.4-18.9,19.6-32.4,38.5-30.3c34.9,3.8,69.1,12.2,101.8,24.8
	c33.4,9.6,67.4,17,101.8,22v85.3l-41.3,35.8v2.8l41.3,35.8v118.4c-20.9,11.9-44.8,17.6-68.8,16.5c-40.6,2.1-80-14-107.4-44
	l112.9-55.1V154.1l-137.6,60.6c15.4-33.1,40.3-60.9,71.6-79.8l-2.8-5.5C133,150.9,69.1,228.2,64.7,319.3
	C65,425.6,151.1,511.7,257.4,512c98.9,1.4,180.2-77.6,181.7-176.4c0-0.8,0-1.7,0-2.5h-5.5C419,368.2,394.1,398,362,418.4V305.5
	l44-35.8V267l-41.3-35.8v-82.6c43.4,2.2,80.3-31.3,82.5-74.6C447.3,72.3,447.3,70.5,447.3,68.8z M207.8,371.6l-33,16.5
	c-21.8-30.4-32.5-67.3-30.3-104.6c-0.2-19.6,2.6-39.1,8.3-57.8l57.8-24.8L207.8,371.6z"/>
</svg>
