<svg xmlns="http://www.w3.org/2000/svg" xml:space="preserve" viewBox="0 0 512 512"><path d="m380.8 195 32.3-32.3c2.6-2.6 3.7-6 3.7-9.6 0-7.5-6.2-13.5-13.7-13.1-3.3.2-6.4 1.5-8.8 3.7-11 10.9-32.4 32.4-32.4 32.4L330 144.2l32.3-32.3c2.6-2.6 3.7-6 3.7-9.6 0-7.5-6.2-13.5-13.7-13.1-3.3.2-6.4 1.5-8.8 3.7-11 10.9-32.4 32.4-32.4 32.4L282 96.2c-6.4-6.4-16.7-6.4-23 0l-39.7 39.7-32.3-32.3c-2.6-2.6-6-3.7-9.6-3.7-7.5 0-13.5 6.2-13.1 13.7.2 3.3 1.5 6.4 3.7 8.8 10.9 11 32.4 32.4 32.4 32.4l-41.7 41.7-32.3-32.3c-2.6-2.6-6-3.7-9.6-3.7-3.8 0-7.1 1.5-9.5 4s-3.8 5.9-3.6 9.7c.2 3.3 1.5 6.4 3.7 8.8 10.9 11 32.4 32.4 32.4 32.4L100 255.1c-6.4 6.4-6.4 16.7 0 23l29 29-32.3 32.3c-2.6 2.6-3.7 6-3.7 9.6 0 7.5 6.2 13.5 13.7 13.1 3.3-.2 6.4-1.5 8.8-3.7l32.4-32.4 31.8 31.8c-.6.6-20.9 21-32.3 32.3-2.6 2.6-3.7 6-3.7 9.6 0 7.5 6.2 13.5 13.7 13.1 3.3-.2 6.4-1.5 8.8-3.7 11-10.9 32.4-32.4 32.4-32.4l29.8 29.8c6.4 6.4 16.7 6.4 23 0l39.7-39.7s20.8 20.7 32.3 32.3c2.6 2.6 6 3.7 9.6 3.7 7.5 0 13.5-6.2 13.1-13.7-.2-3.3-1.5-6.4-3.7-8.8-10.8-10.9-32-32-32.4-32.4l41.7-41.7c.4.4 20.9 20.8 32.3 32.3 2.6 2.6 6 3.7 9.6 3.7 7.5 0 13.5-6.2 13.1-13.7-.2-3.3-1.5-6.4-3.7-8.8-10.9-11-32.4-32.4-32.4-32.4l39.7-39.7c6.4-6.4 6.4-16.7 0-23zm-64.8 1.4c-3.1 5.8-9.8 8.8-15.9 7.1l9.8 38.3c1.8 7-2.5 14.3-9.6 16.5l-71.4 21.8 13.2 51c1.9 7-2.4 14.5-9.5 16.6-7.1 2.2-14.4-1.8-16.1-8.8L200 275.3c-1.8-7 2.5-14.4 9.6-16.5L281 237l-6.6-25.8c-4.4 4.9-11.6 6.1-16.9 2.8-5.4-3.3-7.4-10.1-4.8-16.1l13-31.1q1.05-2.55 3-4.5c2.7-2.7 6.3-4.3 10.1-4.2 2.7 0 5.2.9 7.3 2.4l26.4 19.4c5 3.7 6.5 10.7 3.5 16.5M139.4 80c0-8-1.8-15.8-4.9-23 31.5-18.4 68.1-28.9 107.3-28.9 7.7.1 14.1-6.1 14.2-13.9.1-7.7-6.1-14.1-13.9-14.2h-.3C196.4 0 154 12.7 117.6 34.5 107.3 26 94.3 21.4 80.7 21.3 48.5 21.3 22 47.7 22 80c0 13.5 4.7 26.4 13 36.7C12.9 153.2 0 196 0 241.8c-.1 7.7 6.1 14.1 13.9 14.2 7.7.1 14.1-6.1 14.2-13.9v-.3c0-39.5 10.7-76.4 29.4-108.1 7.3 3.2 15.2 5 23.2 5.1 32.3-.1 58.7-26.5 58.7-58.8m-58.7 30.7c-7 0-13.8-2.4-19.2-6.8C54.3 98 50.1 89.3 50.1 80c0-17.1 13.6-30.6 30.6-30.6 9.5 0 17.9 4 23.7 11.3l.3.3c4.3 5.4 6.6 12.1 6.6 19 .1 17.1-13.5 30.7-30.6 30.7M512 270.2c.1-7.7-6.1-14.1-13.8-14.2s-14.1 6.1-14.2 13.8v.4c0 39.5-10.7 76.4-29.4 108.1-7.3-3.2-15.2-5-23.2-5.1-32.2 0-58.7 26.4-58.7 58.7 0 8 1.8 15.8 4.9 23-31.5 18.4-68.1 28.9-107.3 28.9-7.7-.1-14.1 6.1-14.2 13.8s6.1 14.1 13.8 14.2h.4c45.4 0 87.9-12.7 124.2-34.5 10.4 8.4 23.4 13.1 36.9 13.1 32.2 0 58.7-26.4 58.7-58.7 0-13.5-4.7-26.4-13-36.7 22-36.2 34.9-79 34.9-124.8m-80.7 192.4c-9.5 0-17.9-4-23.7-11.3l-.3-.3c-4.3-5.4-6.6-12.1-6.6-19 0-17.1 13.5-30.6 30.6-30.6 7 0 13.8 2.4 19.2 6.8 7.2 5.8 11.4 14.6 11.4 23.8 0 17.1-13.5 30.6-30.6 30.6"/></svg>