<svg xmlns="http://www.w3.org/2000/svg" xml:space="preserve" viewBox="0 0 512 512"><path d="M427 512H85c-47 0-85-38.1-85-85V85C0 38 38.1 0 85 0h342c47 0 85 38.1 85 85v342c0 46.9-38.1 85-85 85" style="fill:#4b8df8"/><path d="M256 86.2c-93.8 0-169.8 76-169.8 169.8s76 169.8 169.8 169.8 169.8-76 169.8-169.8S349.8 86.2 256 86.2m0 315.9c-80.7 0-146.1-65.4-146.1-146.1S175.3 109.9 256 109.9 402.1 175.3 402.1 256 336.7 402.1 256 402.1m83.1-223.6v42.7h-61.6v146.6h-43V221.2h-61.6v-42.7z" style="fill:#fff"/></svg>