<svg xmlns="http://www.w3.org/2000/svg" xml:space="preserve" viewBox="0 0 512 512"><path d="M256 0C114.8 0 0 114.9 0 256c0 140.2 113.3 254.4 253.1 256V256.3h-83.8c-24.9 0-45.2 20.3-45.2 45.2s20.3 45.2 45.2 45.2v55.8c-55.7 0-101-45.3-101-100.9 0-55.7 45.3-101 101-101h83.8v-28.2c0-46.3 37.7-84 84-84s84 37.7 84 84-37.7 84-84 84h-28.2v250.2C424.8 482 512 379 512 256 512 114.9 397.2 0 256 0m109.4 172.2c0-15.6-12.7-28.2-28.2-28.2-15.6 0-28.2 12.7-28.2 28.2v28.2h28.2c15.5.1 28.2-12.6 28.2-28.2" style="fill:#464646"/></svg>