<?xml version="1.0" encoding="utf-8"?>
<!-- Generator: Adobe Illustrator 28.2.0, SVG Export Plug-In . SVG Version: 6.00 Build 0)  -->
<svg version="1.1" id="Layer_1" xmlns="http://www.w3.org/2000/svg" xmlns:xlink="http://www.w3.org/1999/xlink" x="0px" y="0px"
	 viewBox="0 0 512 512" style="enable-background:new 0 0 512 512;" xml:space="preserve">
<style type="text/css">
	.st0{fill:url(#SVGID_1_);}
	.st1{opacity:0.9;fill:url(#SVGID_00000181807703254388359750000003666934979884571315_);enable-background:new    ;}
	.st2{fill:url(#SVGID_00000001624192517123450700000005995767216529985461_);}
	.st3{fill:url(#SVGID_00000042731865848037726080000008609513492967337090_);}
	.st4{fill:url(#SVGID_00000132782036608573937610000002835426923125398401_);}
	.st5{fill:url(#SVGID_00000128476151230087149720000012214131067268361369_);}
	.st6{fill:url(#SVGID_00000106860677161442873170000011667958607622759859_);}
	.st7{fill:url(#SVGID_00000080194471892503135230000010538409887464168370_);}
	.st8{opacity:0.6;fill:#FFFFFF;enable-background:new    ;}
	.st9{fill:#FFFFFF;filter:url(#Adobe_OpacityMaskFilter);}
	.st10{mask:url(#i_00000019638847186487932360000012889682954062489783_);}
	.st11{opacity:0.7;fill:url(#SVGID_00000160191221568043946690000012966959021525695366_);enable-background:new    ;}
	.st12{fill-rule:evenodd;clip-rule:evenodd;fill:#458FCD;}
	.st13{fill:#FFFFFF;}
</style>
<g>
	
		<linearGradient id="SVGID_1_" gradientUnits="userSpaceOnUse" x1="108.7393" y1="440.0281" x2="469.6215" y2="103.4143" gradientTransform="matrix(1 0 0 -1 0 514)">
		<stop  offset="0" style="stop-color:#1B91F3"/>
		<stop  offset="1" style="stop-color:#0B68CB"/>
	</linearGradient>
	<path class="st0" d="M212.2,94.8L212.2,94.8c16.2-56.4,86.4-83.9,158-83.9c49.5,0,93.9,15.7,124.3,40.5
		c-18.2,0.9-36.1,4.4-53.2,10.6c24.6,9.1,45.7,23.2,61.4,40.6c-11.8-2-23.8-2.9-35.8-2.7c29.5,42.7,45.2,93.3,45.1,145.2
		c0,141.4-114.6,256-256,256c-139.2,0-256-116.6-256-256c0-22,2.9-44.8,8.6-66.1c1.5-4.5,3.6-8.8,6.3-10.3c3.5-2,6.6,3.9,7.1,5.8
		c3.7,14,8.8,27.7,15,40.8C36.5,186,49,159.4,66.2,136.3c11.5-15.4,22.1-29.6,27-70.6c0.3-2.8,2.9-4.7,5.6-3.9
		C136,74,155.9,136.1,152.9,188c20.6,2.9,20.5-18.6,20.5-18.6C166.8,149.2,171.2,111.6,212.2,94.8L212.2,94.8z"/>
	
		<radialGradient id="SVGID_00000086663704636119680550000017506922125980189084_" cx="-49.8976" cy="652.9263" r="0.7314" gradientTransform="matrix(117.9299 271.4496 260.0389 -112.9726 -163813.625 87518.5938)" gradientUnits="userSpaceOnUse">
		<stop  offset="0.53" style="stop-color:#0B4186;stop-opacity:0"/>
		<stop  offset="1" style="stop-color:#0B4186;stop-opacity:0.45"/>
	</radialGradient>
	<path style="opacity:0.9;fill:url(#SVGID_00000086663704636119680550000017506922125980189084_);enable-background:new    ;" d="
		M503.6,179.9c6.2,140.8-109.5,262.2-250.7,262.2C120.8,442.1,12.6,340,2.8,210.3C1,222.5,0.1,234.7,0,247
		c1,138.7,117.5,254.1,256,254.1c141.4,0,256-114.6,256-256C512,222.6,509.1,200.7,503.6,179.9L503.6,179.9z"/>
	
		<radialGradient id="SVGID_00000158003135992960551740000008620383798777725618_" cx="-50.1644" cy="653.9396" r="0.7314" gradientTransform="matrix(-38.9504 -49.8596 -82.5065 64.4542 52262.9453 -44528.1328)" gradientUnits="userSpaceOnUse">
		<stop  offset="0" style="stop-color:#EF3ACC;stop-opacity:0"/>
		<stop  offset="1" style="stop-color:#EF3ACC;stop-opacity:0.64"/>
	</radialGradient>
	<path style="fill:url(#SVGID_00000158003135992960551740000008620383798777725618_);" d="M249.8,113.4
		c-2.8-4.9-15.5-12.1-21.1-13.4c21.1-67.5,128.4-88.2,194.1-76.3c27.3,5,61.4,19.9,71.7,27.6C464,26.6,419.6,10.9,370.2,10.9
		c-71.6,0-141.8,27.5-158,83.9h-0.1c-41,16.8-45.3,54.4-38.8,74.7C179.7,145.3,209.7,115.7,249.8,113.4L249.8,113.4z"/>
	
		<linearGradient id="SVGID_00000034082631540122250060000010995274011482530689_" gradientUnits="userSpaceOnUse" x1="196.893" y1="325.6917" x2="326.7492" y2="470.2492" gradientTransform="matrix(1 0 0 -1 0 514)">
		<stop  offset="0" style="stop-color:#0F5DB0"/>
		<stop  offset="1" style="stop-color:#0F5DB0;stop-opacity:0"/>
	</linearGradient>
	<path style="fill:url(#SVGID_00000034082631540122250060000010995274011482530689_);" d="M324.2,66.8c-57.5,11.3-76.3,15-95.5,33.3
		c21.6-57.2,76.8-68.8,142.5-42.7C355.5,60.6,339.8,63.8,324.2,66.8L324.2,66.8z"/>
	
		<radialGradient id="SVGID_00000151528014311634673610000016881847258018626179_" cx="-49.9775" cy="653.0735" r="0.7314" gradientTransform="matrix(200.5003 -415.9102 -513.7714 -247.6768 345710.4062 141349.6094)" gradientUnits="userSpaceOnUse">
		<stop  offset="2.000000e-02" style="stop-color:#094188"/>
		<stop  offset="0.97" style="stop-color:#0B4186;stop-opacity:0"/>
	</radialGradient>
	<path style="fill:url(#SVGID_00000151528014311634673610000016881847258018626179_);" d="M13.9,171.2
		c-15.7,64.3-3.6,139.9,67.8,203.4c-21.2-23.2-47.2-109,10.1-170.3c3.9-4.1,10.5-1.1,10.7,4.5c4.7,127.4,107.5,205.2,226,190.6
		c-36.7-2.1-158.1-44.6-67.8-61.4c47.2-8.8,121.2-22.6,121.2-89c0-107.7-83.3-139.2-133.7-134.5c-34.6,3.2-65.3,25.1-74.8,55
		c3.6,11.8-10.9,20-20.5,18.6C156,136.1,136,74,98.7,61.8c-2.6-0.9-5.3,1.1-5.6,3.9c-4.9,41.1-15.5,55.3-27,70.6
		c-17.2,23-29.7,49.6-29.1,78.9c-6.3-13.1-11.3-26.7-15-40.8c-0.4-1.6-2.7-6-5.5-6.2C15.1,168.2,14.3,169.6,13.9,171.2L13.9,171.2z"
		/>
	
		<linearGradient id="SVGID_00000171720972234661945950000010367288846637616567_" gradientUnits="userSpaceOnUse" x1="350.3445" y1="254.9593" x2="289.9659" y2="106.7079" gradientTransform="matrix(1 0 0 -1 0 514)">
		<stop  offset="0" style="stop-color:#E247C4;stop-opacity:0"/>
		<stop  offset="1" style="stop-color:#E247C4;stop-opacity:0.64"/>
	</linearGradient>
	<path style="fill:url(#SVGID_00000171720972234661945950000010367288846637616567_);" d="M228.9,344.5
		c69.5,56.4,209.3,14.1,209.3-123.1C381.8,306.9,309.9,365.9,228.9,344.5L228.9,344.5z"/>
	
		<linearGradient id="SVGID_00000078030627987210400320000008015831658122554813_" gradientUnits="userSpaceOnUse" x1="50.4671" y1="362.8195" x2="103.6629" y2="148.7185" gradientTransform="matrix(1 0 0 -1 0 514)">
		<stop  offset="0.1" style="stop-color:#EF3ACC"/>
		<stop  offset="1" style="stop-color:#EF3ACC;stop-opacity:0"/>
	</linearGradient>
	<path style="fill:url(#SVGID_00000078030627987210400320000008015831658122554813_);" d="M91.8,204.2c0.6-0.7,1.4-1.2,2.3-1.6
		c0.9-0.3,1.8-0.4,2.8-0.3c-51.2,62.5-9.9,172.3,18.5,199.2c1.6,4.5-26.9-18.9-30.8-24.3C62.9,358.9,32,268.2,91.8,204.2z"/>
	
		<linearGradient id="SVGID_00000104683678465095942450000001251203893142738837_" gradientUnits="userSpaceOnUse" x1="255.9966" y1="332.1802" x2="255.9966" y2="115.6809" gradientTransform="matrix(1 0 0 -1 0 514)">
		<stop  offset="0" style="stop-color:#FFFFFF"/>
		<stop  offset="0.91" style="stop-color:#BEE1FE"/>
		<stop  offset="1" style="stop-color:#96CEFD"/>
	</linearGradient>
	<path style="fill:url(#SVGID_00000104683678465095942450000001251203893142738837_);" d="M256,349.7c69.5,0,125.9-46,125.9-102.7
		S325.5,144.2,256,144.2c-59.3,0-125.9,38.6-125.9,104.2c0,101.4,107.2,159.8,198.5,150.9c-6.9-0.8-49.7-3.1-78.6-35.8
		c-2.6-2.9-7.1-8.1-5.1-11.4C247,348.8,252.6,349.7,256,349.7L256,349.7z"/>
	<path class="st8" d="M368.2,200.3l-99.5,95.2c-8.8,6.3-18.2,6.7-27.5,1l-97.6-95.9c2.8-4.5,5.9-8.7,9.4-12.7l10.2,9.6
		c25.6,24,46.4,43.4,75.6,68.4c13.2,11.2,17.3,11,30.2,0c33.4-28.5,57.8-50.1,89.6-78.5C362.1,191.4,365.3,195.7,368.2,200.3
		L368.2,200.3z"/>
	<defs>
		<filter id="Adobe_OpacityMaskFilter" filterUnits="userSpaceOnUse" x="100.9" y="128.4" width="318.2" height="288.5">
			<feColorMatrix  type="matrix" values="1 0 0 0 0  0 1 0 0 0  0 0 1 0 0  0 0 0 1 0"/>
		</filter>
	</defs>
	
		<mask maskUnits="userSpaceOnUse" x="100.9" y="128.4" width="318.2" height="288.5" id="i_00000019638847186487932360000012889682954062489783_">
		<path class="st9" d="M381.9,246.9c0,56.7-56.4,102.7-125.9,102.7c-3.4,0-9-0.9-11.1,2.5c-2.1,3.3,2.5,8.5,5.1,11.4
			c27.2,30.7,66.6,34.6,77,35.6l1.6,0.2c-91.3,8.8-198.5-49.5-198.5-150.9c-0.1-16.9,4.6-33.5,13.6-47.8l98.1,89.1
			c7,6.3,18.7,6.3,25.7,0l99.9-90.8C376.6,213.3,381.9,229.6,381.9,246.9L381.9,246.9z"/>
	</mask>
	<g class="st10">
		
			<linearGradient id="SVGID_00000181766249537874379860000009319278515730671537_" gradientUnits="userSpaceOnUse" x1="260.0451" y1="209.6682" x2="260.0451" y2="118.9723" gradientTransform="matrix(1 0 0 -1 0 514)">
			<stop  offset="0" style="stop-color:#BCE0FD"/>
			<stop  offset="1" style="stop-color:#88CCFC"/>
		</linearGradient>
		<path style="opacity:0.7;fill:url(#SVGID_00000181766249537874379860000009319278515730671537_);enable-background:new    ;" d="
			M100.9,128.4h318.2V417H100.9L100.9,128.4z"/>
		<g>
			<path class="st12" d="M226.8,290.3c-18.5-19.3-74.1-83.4-74.1-83.4l4.3,0.2l86.9,64.9c6.5,4.7,15.8,4.7,22.2-0.1l85.2-64.7
				l4.5-0.4c0,0-53.7,62.6-74.3,83.2S245.3,309.6,226.8,290.3L226.8,290.3z"/>
		</g>
	</g>
	<path class="st13" d="M273.7,92.8c13.5-4.2,12.3-17.6,12.3-17.6s-6.7-7.9-20.1-3.5c-12.5,4.1-14.4,13-14.4,13
		S258.3,97.7,273.7,92.8L273.7,92.8z"/>
</g>
</svg>
