<svg xmlns="http://www.w3.org/2000/svg" xml:space="preserve" viewBox="0 0 512 512"><path d="M265.6 207.5c23.3.9 81.7-7.6 129.3-48.1 34.8 6.7 68.7 13.1 81.3 15.4-62.8 37.2-164.5 102.1-210.6 102.1-49.7 0-159.4-64.8-227-102.1 13.6-2.4 50.1-8.7 87.6-15.4 51.4 40.6 114.3 49 139.4 48.1m0 93.1c14.7 0 51.5-1.7 101.1-21.2-10.2 12.8-23 54.6-32.6 69.3-23 32.1-49.5 51.9-68.5 66.8-20.4-14.9-49-34.7-73.8-66.8-10.3-14.8-24.1-56.5-35.2-69.3 53.5 19.5 94.3 21.2 109 21.2m131.8-60.3c14.3-3 45.1-9.8 53.8-12.8-21.8 65.4-124.2 188-176.6 252.2l11.5-65.5s34.6-27 51.2-52.6c16.6-25.7 60.1-121.3 60.1-121.3m73.6-45.6c17.3 11.6 39.7 20.5 41 30.2-17.3 24.4-92.2 104.6-92.2 104.6l35.2 25c-63.4 45.6-129.9 82.2-180.5 141.9 0 0 94.7-122.6 120.3-156.6 73.5-97.6 76.2-145.1 76.2-145.1m-205.4-163 18.6-16 57 19.9 30.7 120c-17.9 18-54.5 39.2-106.2 39.2-55.7 0-95.2-21.2-114.5-39.2l33.1-120 61.4-19.9zM123.5 240.3c-15.4-3-48.6-9.8-57.9-12.8 23.4 65.4 133.8 188 190.3 252.2l-12.4-65.5s-37.3-27-55.2-52.6c-17.9-25.7-64.8-121.3-64.8-121.3m-79.3-45.6C25.5 206.3 1.4 215.2 0 224.9c18.6 24.4 99.3 104.6 99.3 104.6l-37.9 25c68.3 45.6 140 82.2 194.5 141.9 0 0-102.1-122.6-129.7-156.6-79.1-97.6-82-145.1-82-145.1" style="fill:#fff"/></svg>