<svg xmlns="http://www.w3.org/2000/svg" xml:space="preserve" viewBox="0 0 512 512"><path d="M319.8 182.2c0 5.9-4.8 10.8-10.8 10.8-5.9 0-10.8-4.8-10.8-10.8 0-5.9 4.8-10.8 10.8-10.8s10.8 4.9 10.8 10.8m-60.2-55.4c-5.9 0-10.8 4.8-10.8 10.8 0 5.9 4.8 10.8 10.8 10.8 5.9 0 10.8-4.8 10.8-10.8-.1-6-4.9-10.8-10.8-10.8m-61.3-15.7c-5.9 0-10.8 4.8-10.8 10.8s4.8 10.8 10.8 10.8c5.9 0 10.8-4.8 10.8-10.8s-4.9-10.8-10.8-10.8m-62.6 15.7c-5.9 0-10.8 4.8-10.8 10.8 0 5.9 4.8 10.8 10.8 10.8 5.9 0 10.8-4.8 10.8-10.8s-4.9-10.8-10.8-10.8m-47.6 44.6c-5.9 0-10.8 4.8-10.8 10.8 0 5.9 4.8 10.8 10.8 10.8s10.8-4.8 10.8-10.8c0-5.9-4.9-10.8-10.8-10.8m-21.5 68.7c-5.9 0-10.8 4.8-10.8 10.8s4.8 10.8 10.8 10.8 10.8-4.8 10.8-10.8-4.9-10.8-10.8-10.8m16.7 72c-5.9 0-10.8 4.8-10.8 10.8 0 5.9 4.8 10.8 10.8 10.8S94 328.8 94 322.9c0-6-4.8-10.8-10.7-10.8m46.6 48.9c-5.9 0-10.8 4.8-10.8 10.8 0 5.9 4.8 10.8 10.8 10.8 5.9 0 10.8-4.8 10.8-10.8-.1-6-4.9-10.8-10.8-10.8m68.4 17.4c-5.9 0-10.8 4.8-10.8 10.8 0 5.9 4.8 10.8 10.8 10.8 5.9 0 10.8-4.8 10.8-10.8-.1-6-4.9-10.8-10.8-10.8m175.4-156.6c0-9.7 6.4-17.5 14.4-17.5h13.6c8 0 14.4 7.8 14.4 17.5v152.3c-8.8-.4-16.9-.3-24.1 0-5 .2-11.2.4-18.3.9zM280 397.4c5.3-2 10.5-3.9 15.8-5.8v-66.9c0-12.8-6.4-23.2-14.4-23.2h-13.6c-8 0-14.4 10.4-14.4 23.2v82.1c5.7-1.7 11.4-3.6 17-5.8q4.35-1.65 9.6-3.6m174.4-18.9q11.7 2.25 21.9 5.1V170.1c0-9.1-6.4-16.5-14.4-16.5h-13.6c-8 0-14.4 7.4-14.4 16.5v205.4c6.5.7 13.4 1.7 20.5 3m-98.4-1.9V271.5c0-11.4-6.4-20.6-14.4-20.6H328c-8 0-14.4 9.2-14.4 20.6v114.2c6.7-2 13.6-3.8 21.1-5.5 7.5-1.6 14.7-2.7 21.3-3.6m45.5 29.9c-15.5 2.2-38.8 5.5-67.2 15.2-10.6 3.6-20.2 7.6-55.1 20.2-10 3.6-18.2 6.6-23.6 8.5-14.9 4.7-31.9 8.4-57.4 8.4C88.8 458.8 0 368 0 256S88.8 53.2 198.3 53.2c80.3 0 149.5 48.9 180.7 119.2l-28.2 14.4c-25.9-59.7-84.4-101.4-152.4-101.4-92.1 0-166.7 76.3-166.7 170.5s74.6 170.5 166.7 170.5h.5c25.4 0 50.5-4.8 74.2-14.1 2.9-1.1 6.1-2.4 9.7-3.7 17.8-6.6 34.1-12.7 54.6-17.1 24.8-5.4 44.6-5.6 57.4-6.2 16.6-.8 38-.2 62.4 4.4 22.1 4.2 40.6 10.5 55 16.6-46.8-6.1-84.9-3.4-110.7.2M209 238.2v-68.6c0-5.9-4.8-10.8-10.8-10.8s-10.8 4.8-10.8 10.8v68.6c-5.2 3.5-8.7 9.4-8.7 16.2 0 1.4.2 2.8.4 4.1l-41.8 45.9c-4 4.4-3.7 11.2.7 15.2s11.2 3.7 15.2-.7l41.3-45.4q1.8.3 3.6.3c10.7 0 19.4-8.7 19.4-19.4.2-6.8-3.3-12.7-8.5-16.2"/></svg>