<svg xmlns="http://www.w3.org/2000/svg" xml:space="preserve" viewBox="0 0 512 512"><path d="M167.7 8.8h176.6C432 8.8 503.2 80 503.2 167.7v176.6c0 87.8-71.1 158.9-158.9 158.9H167.7C80 503.2 8.8 432 8.8 344.3V167.7C8.8 80 80 8.8 167.7 8.8" style="fill:#ffe8cc"/><path d="M344.3 512H167.7C75.2 512 0 436.8 0 344.3V167.7C0 75.2 75.2 0 167.7 0h176.6C436.8 0 512 75.2 512 167.7v176.6c0 92.5-75.2 167.7-167.7 167.7M167.7 17.7c-82.7 0-150 67.3-150 150v176.6c0 82.8 67.3 150.1 150.1 150.1h176.6c82.8 0 150.1-67.3 150.1-150.1V167.7c-.2-82.7-67.5-150-150.2-150z" style="fill:#e7d1b8"/><path d="m256 61.8 44.1 158.9L450.2 256l-150.1 35.3L256 450.2l-44.1-158.9L61.8 256l150.1-35.3z" style="fill:#f97316"/></svg>