<svg xmlns="http://www.w3.org/2000/svg" xml:space="preserve" image-rendering="optimizeQuality" shape-rendering="geometricPrecision" text-rendering="geometricPrecision" viewBox="0 0 512 512"><path d="M463.9 144.6v-20.1c-27.3-1.8-50.4-10.8-68.9-25.4-15.7-21.9-25.5-50-29.1-81.3h-17.8c-1.2-5.8-2.2-11.7-2.9-17.8h-89.7v296.2c7 88.8-36.9 120.2-78.6 116.3-24.6-20.2-37.2-55.5-15.7-96.6 9.9-18.9 31-29.1 64.3-34.6v-83.5c-9 .9-17.6 2.2-25.8 3.8V180C46 194.5-1.8 335.8 51.2 422.5c20.2 33.1 53.6 56.4 90.8 66.4 64 40.4 156.3 31.9 207.9-56.7 23.5-40.2 23.3-60.2 23.3-103.9L367 192.7c40.4 24.3 75 37.3 114.6 33.5V147c-6.1-.4-12-1.3-17.7-2.4m-.5 69.1c-39.6 3.9-74.2-9.1-114.6-33.4v148c.3 144.1-115.4 188.9-198.8 162.5.3.1.6.1 1 .2-28.7-8.9-53.7-26.2-68.9-50.7-39.5-63.7-25.2-216.7 117.3-239.4v80.4c-33.3 5.5-51.3 15.7-61.2 34.6-17.8 34-12.3 64.1 4.1 84.9 0 0-.1 0-.1-.1 4 5.1 8.7 9.7 13.9 13.6l.1.1c.6.5 1.3 1 1.9 1.4l.1.1c2.7 1.9 5.5 3.6 8.4 5.2.1 0 .1.1.2.1.6.3 1.3.7 2 1 .1.1.3.1.4.2.6.3 1.3.6 1.9.9.1.1.3.1.4.2.7.3 1.3.6 2 .9h.1c3 1.3 6.1 2.4 9.3 3.2.1 0 .1 0 .2.1.7.2 1.5.4 2.2.6.1 0 .1 0 .2.1 44.7 11 97.4-17.6 89.8-114.4V17.8h72.3c.2 2 .5 3.9.8 5.9.1.6.2 1.3.3 1.9l.6 3.9c.1.7.2 1.4.4 2.1.3 1.4.5 2.7.8 4 .1.5.2 1.1.3 1.6.4 1.8.8 3.5 1.2 5.2.2.6.3 1.3.5 1.9.3 1.1.6 2.3.9 3.4l.6 2.1c.3 1.1.7 2.1 1 3.2.2.6.4 1.3.6 1.9.5 1.6 1.1 3.1 1.7 4.6.2.6.4 1.1.6 1.7.4 1 .8 2.1 1.2 3.1.3.7.6 1.4.9 2l1.2 2.7c.3.7.6 1.3.9 2l1.5 3c.4.8.8 1.6 1.2 2.3.6 1 1.1 2 1.7 3 .4.6.8 1.3 1.1 1.9.5.7.9 1.5 1.4 2.2.4.6.8 1.3 1.2 1.9l1.5 2.1c.4.6.8 1.2 1.3 1.8.8 1.1 1.7 2.3 2.6 3.4l1.5 1.8c.5.6 1 1.1 1.4 1.7.6.6 1.1 1.3 1.7 1.9.5.5.9 1 1.4 1.5.6.6 1.2 1.3 1.8 1.9l1.1 1.1c1.3 1.3 2.6 2.5 4 3.7.4.3.7.6 1.1 1 .8.7 1.5 1.3 2.3 1.9.4.3.7.6 1.1.9.8.7 1.7 1.3 2.5 1.9.2.1.3.2.5.3 3.1 2.2 6.3 4.3 9.6 6.2.1.1.2.1.4.2 16 9.1 35.1 14.5 57.3 15.9v9.9h-.1v69.3zm-12-68.2v56.9c-29.4.4-58.2-9.4-96.4-32.4l-18.2-10.9v169.2c.2 111.5-69.7 143.5-99.7 152.1-56.2 16.1-118.5-3.9-144.9-46.4-18.6-29.9-25.7-89.2-2.4-140.2 13.2-28.9 40.7-64.8 97.5-78.3v55.9c-31 6.6-49.1 18.6-59.8 39-19.5 37.2-15.7 75.9 10.1 103.5 25.5 27.3 65.7 36.4 97.8 22.3 17.8-7.9 32-22.4 41-42.1 9.8-21.4 13.5-48.5 11-80.5V29.8h50c11 67.1 51.1 107.7 114 115.7" style="fill-rule:evenodd;clip-rule:evenodd"/></svg>