<?xml version="1.0" encoding="utf-8"?>
<!-- Generator: Adobe Illustrator 28.2.0, SVG Export Plug-In . SVG Version: 6.00 Build 0)  -->
<svg version="1.1" id="Layer_1" xmlns="http://www.w3.org/2000/svg" xmlns:xlink="http://www.w3.org/1999/xlink" x="0px" y="0px"
	 viewBox="0 0 512 512" style="enable-background:new 0 0 512 512;" xml:space="preserve">
<style type="text/css">
	.st0{fill:#FFFFFF;}
</style>
<g>
	<polygon class="st0" points="271,314 50,314 50,387.4 123.9,387.4 123.9,512 197.3,512 197.3,387.4 271,387.4 	"/>
	<polygon class="st0" points="388.4,314 388.4,240.4 314.8,240.4 314.7,512 388.1,512 388.1,387.4 461.8,387.4 461.8,314 	"/>
	<polygon class="st0" points="241,198 462,198 462,124.6 388.3,124.6 388.3,0 314.8,0 314.8,124.6 241,124.6 	"/>
	<polygon class="st0" points="123.7,0 123.7,124.6 50,124.6 50,198 123.5,198 123.5,271.5 197.1,271.5 197.2,0 	"/>
</g>
</svg>
