<svg xmlns="http://www.w3.org/2000/svg" xml:space="preserve" viewBox="0 0 512 512"><linearGradient id="timesy_svg__a" x1="145.148" x2="145.148" y1="514" y2="2" gradientTransform="matrix(1 0 0 -1 0 514)" gradientUnits="userSpaceOnUse"><stop offset="0" style="stop-color:#fafafa"/><stop offset="1" style="stop-color:#a1a1aa"/></linearGradient><path d="m254.7 254.7 1.3 1.3-.5-1.8c-8.7-31.2-25-58.2-46.4-79.5-22.5-22.4-50.5-38.6-81.1-46.8-29.7-8-61.8-8.5-93.7 0 8.5 31.8 25 59.4 46.8 81.1 30.6-8.2 63-8.2 93.7 0 29.2 7.9 56.8 23.1 79.9 45.7" style="fill:url(#timesy_svg__a)"/><linearGradient id="timesy_svg__b" x1="259.075" x2="259.075" y1="514" y2="2" gradientTransform="matrix(1 0 0 -1 0 514)" gradientUnits="userSpaceOnUse"><stop offset="0" style="stop-color:#fafafa"/><stop offset="1" style="stop-color:#a1a1aa"/></linearGradient><path d="M256 0c-23.3 23.3-38.9 51.4-46.9 81.1 22.4 22.4 38.6 50.5 46.9 81.1 7.9 29.2 8.5 60.7.5 92l-.5 1.8 1.3-1.3c22.6-23.1 37.9-50.7 45.6-79.9 8.2-30.7 8.1-63 0-93.7-8-29.7-23.6-57.8-46.9-81.1" style="fill:url(#timesy_svg__b)"/><linearGradient id="timesy_svg__c" x1="366.854" x2="366.854" y1="514" y2="2" gradientTransform="matrix(1 0 0 -1 0 514)" gradientUnits="userSpaceOnUse"><stop offset="0" style="stop-color:#fafafa"/><stop offset="1" style="stop-color:#a1a1aa"/></linearGradient><path d="M384 128c-8.2 30.6-24.4 58.7-46.8 81.1-21.3 21.4-48.3 37.7-79.5 46.4l-1.7.5 1.8.5c31.3 8.1 62.9 7.4 92-.5 30.6-8.3 58.7-24.5 81.1-46.9 21.8-21.7 38.3-49.3 46.8-81.1-31.8-8.5-64-8-93.7 0" style="fill:url(#timesy_svg__c)"/><linearGradient id="timesy_svg__d" x1="366.852" x2="366.852" y1="514" y2="2" gradientTransform="matrix(1 0 0 -1 0 514)" gradientUnits="userSpaceOnUse"><stop offset="0" style="stop-color:#fafafa"/><stop offset="1" style="stop-color:#a1a1aa"/></linearGradient><path d="m256 256 .5 1.8c8.7 31.2 25 58.2 46.4 79.5 22.5 22.4 50.5 38.6 81.1 46.8 29.7 8 61.8 8.5 93.7 0-8.5-31.8-25-59.4-46.8-81.1-30.6 8.2-63 8.2-93.7 0-29.2-7.8-56.8-23-79.9-45.6z" style="fill:url(#timesy_svg__d)"/><linearGradient id="timesy_svg__e" x1="252.924" x2="252.924" y1="514" y2="2" gradientTransform="matrix(1 0 0 -1 0 514)" gradientUnits="userSpaceOnUse"><stop offset="0" style="stop-color:#fafafa"/><stop offset="1" style="stop-color:#a1a1aa"/></linearGradient><path d="M302.9 430.9c-22.4-22.4-38.6-50.5-46.9-81.1-7.9-29.2-8.5-60.7-.5-92l.5-1.8-1.3 1.3c-22.6 23.1-37.9 50.7-45.6 79.9-8.2 30.7-8.1 63 0 93.7 7.9 29.7 23.6 57.8 46.9 81.1 23.3-23.3 38.9-51.4 46.9-81.1" style="fill:url(#timesy_svg__e)"/><linearGradient id="timesy_svg__f" x1="145.147" x2="145.147" y1="514" y2="2" gradientTransform="matrix(1 0 0 -1 0 514)" gradientUnits="userSpaceOnUse"><stop offset="0" style="stop-color:#fafafa"/><stop offset="1" style="stop-color:#a1a1aa"/></linearGradient><path d="m254.2 256.5 1.8-.5-1.8-.5c-31.3-8.1-62.9-7.4-92 .5-30.6 8.3-58.7 24.5-81.1 46.9-21.8 21.7-38.3 49.3-46.8 81.1 31.8 8.5 64 8 93.7 0 8.2-30.6 24.4-58.7 46.8-81.1 21.3-21.4 48.3-37.7 79.4-46.4" style="fill:url(#timesy_svg__f)"/></svg>