<svg xmlns="http://www.w3.org/2000/svg" xml:space="preserve" viewBox="0 0 512 512"><path d="M434.8 51.2h-25.5V25.5c0-14.1-11.4-25.5-25.5-25.5s-25.5 11.4-25.5 25.5v25.7H153.8V25.5c0-14.1-11.4-25.5-25.5-25.5s-25.5 11.4-25.5 25.5v25.7H77.2c-28.4 0-51.1 22.8-51.1 51.2v358.4c0 3.4.4 6.9 1 10.2.1.5.3 1 .4 1.5.3 1.1.5 2.2.9 3.4.2.7.5 1.3.7 2 .3.9.6 1.7.9 2.6 0 .1.1.1.1.2.2.6.5 1.2.8 1.7.4.9.9 1.9 1.3 2.8.2.4.4.7.6 1 2.2 3.9 5 7.6 8.2 10.8q3.3 3.3 7.2 6c.1.1.3.2.4.3.8.6 1.7 1 2.6 1.6.6.3 1.1.7 1.7 1s1.3.6 2 .9c.9.4 1.7.9 2.6 1.2 0 0 .1 0 .1.1.5.2 1.1.4 1.6.6 1 .4 2 .8 3 1.1.7.2 1.4.4 2.2.6.9.2 1.8.5 2.7.7 1.2.2 2.5.4 3.7.6.4.1.8.1 1.2.2 1.7.2 3.4.3 5.2.3h357.6c1.7 0 3.4-.1 5.2-.3.6-.1 1.2-.2 1.9-.3 1-.1 2.1-.3 3.1-.5 1.1-.2 2.2-.5 3.3-.8.5-.1 1-.2 1.5-.4 1.2-.4 2.4-.8 3.6-1.3.3-.1.7-.2 1-.4h.1c1.2-.5 2.3-1.1 3.4-1.6.4-.2.7-.3 1.1-.5 1-.5 2-1.2 2.9-1.8.4-.3.9-.5 1.3-.8.8-.5 1.5-1.1 2.3-1.7.6-.4 1.2-.8 1.7-1.3.5-.4.9-.8 1.4-1.2.8-.7 1.6-1.3 2.3-2.1.7-.7 1.3-1.4 2-2.2.4-.5.9-1 1.3-1.5s.8-1 1.2-1.6c.6-.8 1.3-1.6 1.8-2.5.3-.4.5-.8.7-1.2.6-1 1.3-2 1.8-3.1.2-.3.3-.6.4-.9.6-1.2 1.2-2.4 1.7-3.6v-.1c.1-.2.2-.5.3-.7.5-1.3 1-2.6 1.4-4 .1-.3.1-.6.2-.9.4-1.3.7-2.6 1-4 .1-.6.2-1.1.3-1.7.2-1.1.4-2.2.5-3.3.2-1.6.2-3.2.2-4.8V102.4c.2-28.4-22.8-51.2-50.9-51.2m9.3 398.1c0 11.5-9.4 20.9-20.9 20.9H88.8c-11.5 0-20.9-9.4-20.9-20.9V229.9c0-11.5 9.4-20.9 20.9-20.9h334.4c11.5 0 20.9 9.4 20.9 20.9z"/><path d="M26.1 208h459.7v87.6H26.1z" style="fill-opacity:5.000000e-02"/><path d="M26.1 295.5h459.7v87.6H26.1z" style="fill-opacity:.2"/><path d="M26.1 383.1h459.7v32.8c0 30.2-24.5 54.7-54.7 54.7H80.9c-30.2 0-54.7-24.5-54.7-54.7v-32.8z" style="fill-opacity:.5"/></svg>