<svg xmlns="http://www.w3.org/2000/svg" xml:space="preserve" viewBox="0 0 512 512"><circle cx="70.2" cy="441.8" r="70.2" style="opacity:.25;fill:#fff" transform="rotate(-89.685 70.225 441.78)"/><path d="M177.7 222.8q-20.7-12.75-43.2-22.5h-12.8l1.3-4.7c-38.2-14.8-79.6-23-123-23v99.5c57.8 0 110.7 20.4 152.1 54.4zM246.9 337l-.2.8c-.5 2.7-1.1 5.6-1.8 8.6l-2.4 10-.2.9q-.75 4.95-1.5 9.3c-.7 3.7-1 6.8-1 9.6 0 16 6.9 24.8 12.6 29.5 7.6 6.1 18.7 9.1 33.9 9.1 3.7 0 8.2-.4 13.5-1.1 5.4-.7 10.8-1.7 15.9-2.8 2.1-.5 4.2-.9 6.3-1.4l-12.4 50q-4.35 1.2-9.6 2.4c-6.6 1.5-13.9 2.9-21.7 4.2s-16.1 2.4-24.8 3.2c-5.8.6-11.6 1-17.2 1.1 2.4 13.5 3.6 27.4 3.6 41.6h99.5c0-84-30.5-160.8-81.1-220.1z" style="opacity:.5;fill:#fff"/><path d="m383.5 172.8-7.7 27.5h-94.3l-2.9 11.4c80.5 74.8 130.9 181.6 130.9 300.2H512c0-130-48.5-248.8-128.5-339.1M306.7 102l-11.4 46.3h65.1c-16.8-16.6-34.7-32.1-53.7-46.3m-110.5 46.3 20.9-81.5 26.1-5.4C170.9 22.2 88 0 0 0v102.4c68 0 132.2 16.6 188.6 45.9z" style="opacity:.75;fill:#fff"/><path d="m267.3 361.9 2.3-9.5c.8-3.4 1.5-6.6 2-9.5l29.7-117.2H395L423.8 123h-96.1L355 12.3 196.5 45.2l-20 77.8h-59.1L88.2 225.7H151l-28.4 115.1c-1 4.2-2.2 8.8-3.6 14.3l-3.3 15.3c-.8 5.1-1.5 10-2.1 14.9-.6 5.1-.9 9.7-.9 13.7q0 19.8 5.4 37.2c4 12 10.8 22.8 20.3 32.2 9.5 8.8 21.9 15.6 36.9 20.3 14.6 4.8 32.8 7.3 53.9 7.3 8.8 0 17.8-.5 26.8-1.4 9.2-.9 18.1-2.1 26.4-3.4 8.3-1.4 16-2.8 23.2-4.5 7.2-1.6 13.4-3.3 18.5-5l6.7-2.2 26.3-106.2-21.4 6.5c-2.8.9-6.5 1.9-10.6 3.1-4.6 1.1-9.5 2.2-14.8 3.3-4.5 1-9.2 1.8-13.9 2.5-4.2.6-7.5.9-10.1.9-12.3 0-16.7-2.5-18-3.5-.8-.6-3.1-2.5-3.1-9.7 0-.8.1-2.4.6-5.2q.6-4.5 1.5-9.3m-14.9 43.9c7.6 6.1 18.7 9.1 33.9 9.1 3.7 0 8.2-.4 13.5-1.1 5.4-.7 10.8-1.7 15.9-2.8 2.1-.5 4.2-.9 6.3-1.4l-12.4 50q-4.35 1.2-9.6 2.4c-6.6 1.5-13.9 2.9-21.7 4.2s-16.1 2.4-24.8 3.2c-8.2.8-16.4 1.3-24.3 1.3-18.5 0-33.9-2-46.2-6.1-11.5-3.6-20.7-8.6-27.2-14.5-6.5-6.4-11-13.5-13.7-21.6-2.8-8.9-4.2-18.8-4.2-29.4 0-3 .2-6.7.7-10.9.5-4.5 1.1-9 1.8-13l3-14.1q1.95-7.65 3.6-14.1l36.1-146.5h-61.6l14.8-52H196L216.9 67l103.6-21.5-25.4 103.1h95.1l-14.5 52h-94.3L246.9 337l-.2.8c-.5 2.7-1.1 5.6-1.8 8.6l-2.4 10-.2.9q-.75 4.95-1.5 9.3c-.7 3.7-1 6.8-1 9.6 0 16.1 6.9 25 12.6 29.6" style="fill:#fff"/></svg>