<?xml version="1.0" encoding="utf-8"?>
<!-- Generator: Adobe Illustrator 28.2.0, SVG Export Plug-In . SVG Version: 6.00 Build 0)  -->
<svg version="1.1"
	 id="svg33" xmlns:inkscape="http://www.inkscape.org/namespaces/inkscape" xmlns:svg="http://www.w3.org/2000/svg" xmlns:sodipodi="http://sodipodi.sourceforge.net/DTD/sodipodi-0.dtd"
	 xmlns="http://www.w3.org/2000/svg" xmlns:xlink="http://www.w3.org/1999/xlink" x="0px" y="0px" viewBox="0 0 512 512"
	 style="enable-background:new 0 0 512 512;" xml:space="preserve">
<style type="text/css">
	.st0{fill-rule:evenodd;clip-rule:evenodd;fill:#61E0EE;}
	.st1{fill-rule:evenodd;clip-rule:evenodd;}
	.st2{fill-rule:evenodd;clip-rule:evenodd;fill:#D6C295;}
	.st3{fill:#61E0EE;}
	
		.st4{clip-path:url(#SVGID_00000026151684443042196890000003745754540377279633_);fill-rule:evenodd;clip-rule:evenodd;fill:#4FCBE0;}
	.st5{fill-rule:evenodd;clip-rule:evenodd;fill:#B7F8FF;}
	.st6{fill-rule:evenodd;clip-rule:evenodd;fill:#EDEDED;}
	.st7{fill-rule:evenodd;clip-rule:evenodd;fill:#FFFFFF;}
	.st8{fill-rule:evenodd;clip-rule:evenodd;fill:#F78422;}
	.st9{fill:#8D2D00;}
	.st10{fill-rule:evenodd;clip-rule:evenodd;fill:#8D2D00;}
</style>
<path id="path1" class="st0" d="M134.1,146.3c-0.7-4.4-9.7-11.1-13.4-12.7c-45.9-18.8-29.8,33.9-3,31.9"/>
<path id="path2" class="st1" d="M103.9,124.5L103.9,124.5h0.3h0.3h0.3h0.3h0.3h0.3h0.3h0.3h0.3h0.3h0.3h0.3h0.3h0.3h0.3h0.3h0.3h0.3
	h0.3h0.3h0.3h0.3h0.3h0.3h0.3h0.3h0.3h0.3h0.3h0.3h0.3h0.3h0.3h0.3h0.3h0.3h0.3h0.3h0.3h0.3h0.3h0.3h0.3h0.3h0.3h0.3h0.3h0.3h0.3
	h0.3h0.3h0.3h0.3h0.3h0.3h0.3h0.3h0.3h0.3h0.3h0.3h0.3h0.3h0.3h0.3h0.3h0.3h0.3h0.3h0.3h0.3h0.3h0.3h0.3h0.3l0,0l0,0l0,0l0,0l0,0
	l0,0l0,0l0,0l0,0l0,0l0,0l0,0l0,0l0,0l0,0l0,0l0,0l0,0l0,0l0,0l0,0l0,0l0,0l0,0l0,0l0,0l0,0l0,0l0.3,0.3l0.3,0.3l0.3,0.3l0.3,0.3
	l0.3,0.3l0.3,0.3l0.3,0.3l0.3,0.3l0,0l0,0l0,0l0,0l0,0l0,0l0,0l0,0l0,0l0,0l0,0l0,0l0,0l0,0l0,0l0,0l0,0l0,0l0,0l0,0l0,0l0,0l0,0
	l0,0l0,0l0,0l0,0l0,0l0,0l0,0l0,0l0,0l0,0l0,0l0,0l0,0l0,0l0,0l0,0l0,0l0,0l0,0l0,0l0,0l0,0l0,0l0,0l0,0l0,0l0,0l0,0l0,0l0,0l0,0
	l0,0l0,0l0,0l0,0l0,0l0,0l0,0v0.3v0.3l0,0v0.3v0.3v0.3v0.3v0.3v0.3v0.3v0.3v0.3v0.3v0.3v0.3v0.3v0.3v0.3v0.3l0,0l0,0l0,0l0,0l0,0
	l0,0l0,0l0,0v0.3v0.3v0.3v0.3v0.3v0.3v0.3v0.3v0.3v0.3v0.3v0.3v0.3v0.3l-0.3,0.3l-0.3,0.3l-0.3,0.3l-0.3,0.3l-0.3,0.3l-0.3,0.3h-0.3
	H129h-0.3l7,11.1h-0.3h-0.3h-0.3h-0.3h-0.3h-0.3h-0.3h-0.3h-0.3h-0.3h-0.3h-0.3h-0.3H131h-0.3h-0.3H130l-0.3-0.3l-0.3-0.3L129,150
	l-0.3-0.3l-0.3-0.3L128,149v-0.3v-0.3V148v-0.3v-0.3V147v-0.3v-0.3l0,0l0,0l0,0l0,0l0,0l0,0l0,0l0,0l0,0l0,0l0,0l0,0l0,0l0,0l0,0
	l0,0l0,0l0,0l0,0l0,0l0,0l0,0l0,0l0,0l0,0l0,0l0,0l0,0l0,0l0,0l0,0l0,0l0,0l0,0l0,0l0,0l0,0l0,0l0,0l0,0l0,0l0,0l0,0l0,0l0,0l0,0
	l0,0l0,0l0,0l0,0l0,0l0,0l0,0l0,0l0,0l0,0l0,0l0,0l0,0l0,0l0,0l0,0l0,0l0,0l0,0l0,0l0,0l0,0l0,0l0,0l0,0l0,0l0,0l0,0l0,0l0,0l0,0
	l-5.7-5.7l0,0H122h-0.3h-0.3H121h-0.3h-0.3l0,0l0,0l0,0l0,0l0,0l0,0l0,0l0,0l0,0l0,0l0,0l0,0l0,0l0,0l0,0l0,0l0,0l0,0l0,0l0,0l0,0
	l0,0l0,0l0,0l0,0l0,0l0,0l0,0H120h-0.3h-0.3H119h-0.3h-0.3H118h-0.3h-0.3H117h-0.3h-0.3H116h-0.3h-0.3H115h-0.3h-0.3h-0.3h-0.3h-0.3
	h-0.3h-0.3h-0.3h-0.3h-0.3h-0.3h-0.3h-0.3h-0.3h-0.3h-0.3h-0.3h-0.3h-0.3h-0.3h-0.3h-0.3h-0.3h-0.3h-0.3h-0.3h-0.3h-0.3h-0.3h-0.3
	h-0.3h-0.3h-0.3h-0.3h-0.3h-0.3h-0.3h-0.3l0,0l0,0l0,0l0,0l0,0l0,0l0,0l0,0l0,0l0,0l0,0l0,0l0,0l0,0l0,0l0,0l0,0l0,0l0,0l0,0l0,0
	l0,0l0,0l0,0l0,0l0,0l0,0l0,0l0,0l0,0l0,0l0,0l0,0l0,0l0,0l0,0l0,0l0,0l0,0l0,0l0,0l0,0l0,0l0,0l0,0l0,0l0,0l0,0l0,0l0,0l0,0l0,0
	l0,0l0,0l0,0l0,0l0,0l0,0l0,0l0,0l0,0l0,0l0,0l0,0l0,0l0,0l0,0l0,0l0,0l0,0l0,0l0,0l0,0l0,0l0,0l0,0l0,0l0,0l0,0l0,0l0,0l0,0l0,0
	l0,0l0,0l0,0l0,0l0,0l0,0l0,0l0,0l0,0l0,0l0,0l0,0l0,0l0,0l0,0l0,0l0,0l0,0l0,0l0,0l0,0l0,0l0,0l0,0l0,0l0,0l0,0l0,0l0,0l0,0l0,0
	l0,0l0,0l0,0l0,0l0,0l0,0l0,0l0,0l0,0l0,0l0,0l0,0l0,0l0,0l0,0l0,0l0,0l0,0l0,0l0,0l0,0l0,0l0,0l0,0l0,0l0,0l0,0l0,0l0,0l0,0l0,0
	l0,0l0,0l0,0l0,0l0,0l0,0l0,0l0,0l0,0l0,0l0,0l0,0l0,0l0,0l0,0l0,0l0,0l0,0l0,0l0,0l0,0l0,0l0,0l0,0l0,0l0,0l0,0l0,0l0,0l0,0l0,0
	l0,0l0,0l0,0l0,0l0,0l0,0l0,0l0,0l0,0l0,0l0,0l0,0l0,0l0,0l0,0l0,0l0,0l0,0l0,0l0,0l0,0l0,0l0,0l0,0l0,0l0,0l0,0l0,0l0,0l0,0l0,0
	l0,0l0,0l0,0l0,0l0,0l0,0l0,0l0,0l0,0l0,0l0,0l0,0l0,0l0,0l0,0l0,0l0,0l0,0l0,0l0,0l0,0l0,0l0,0l0,0l0,0l0,0l0,0l0,0l0,0l0,0l0,0
	l0,0l0,0l0,0l0,0l0,0l0,0l0,0l0,0l0,0l0,0l0,0l0,0l0,0l0,0l0,0l0,0l0,0l0,0l0,0l0,0l0,0l0,0l0,0l0,0l0,0l0,0l0,0l0,0l0,0l0,0l0,0
	l0,0l0,0l0,0l0,0l0,0l0,0l0,0l0,0l0,0l0,0l0,0l0,0l0,0l0,0l0,0l0,0l0,0l0,0l0,0l0,0l0,0l0,0l0,0l0,0l0,0l0,0l0,0l0,0l0,0l0,0l0,0
	l0,0l0,0l0,0l0,0l0,0l0,0l0,0l0,0l0,0l0,0l0,0l0,0l0,0l0,0l0,0l0,0l0,0l0,0l0,0l0,0l0,0l0,0l0,0l0,0l0,0l0,0l0,0l0,0l0,0l0,0l0,0
	l0,0l0,0l0,0l0,0l0,0l0,0l0,0l0,0l0,0l0,0l0,0l0,0l0,0l0,0l0,0l0,0l0,0l0,0l0,0l0,0l0,0l0,0l0,0l0,0l0,0l0,0l0,0l0,0l0,0l0,0l0,0
	l0,0l0,0l0,0l0,0l0,0l0,0l0,0l0,0l0,0l0,0l0,0l0,0l0,0l0,0l0,0l0,0l0,0l0,0l0,0l0,0l0,0l0,0l0,0l0,0l0,0l0,0l0,0l0,0l0,0l0,0l0,0
	l0,0l0,0l0,0l0,0l0,0l0,0l0,0l0,0l0,0l0,0l0,0l0,0l0,0l0,0l0,0l0,0l0,0l0,0l0,0l0,0l0,0l0,0l0,0l0,0l0,0l0,0l0,0l0,0l0,0l0,0l0,0
	l0,0l0,0l0,0l0,0l0,0l0,0l0,0l0,0l0,0l0,0l0,0l0,0l0,0l0,0l0,0l0,0l0,0l0,0l0,0l0,0l0,0l0,0l0,0l0,0l0,0l0,0l0,0l0,0l0,0l0,0l0,0
	l0,0l0,0l0,0h0.3h0.3h0.3h0.3h0.3h0.3h0.3h0.3h0.3h0.3h0.3h0.3l0.3,0.3l0.3,0.3l0.3,0.3l0.3,0.3l0.3,0.3l0.3,0.3v0.3v0.3v0.3v0.3
	v0.3v0.3v0.3v0.3v0.3v0.3v0.3v0.3v0.3v0.3v0.3v0.3v0.3v0.3v0.3v0.3v0.3v0.3l-0.3,0.3l-0.3,0.3l-0.3,0.3l-0.3,0.3l-0.3,0.3l-0.3,0.3
	h-0.3h-0.3h-0.3h-0.3h-0.3h-0.3h-0.3h-0.3h-0.3h-0.3h-0.3h-0.3h-0.3h-0.3h-0.3h-0.3h-0.3h-0.3h-0.3h15.8h-0.3H115h-0.3h-0.3h-0.3
	h-0.3h-0.3h-0.3h-0.3h-0.3h-0.3h-0.3h-0.3h-0.3h-0.3h-0.3h-0.3h-0.3h-0.3h-0.3h-0.3h-0.3h-0.3h-0.3h-0.3h-0.3h-0.3h-0.3h-0.3h-0.3
	h-0.3h-0.3h-0.3h-0.3h-0.3h-0.3h-0.3h-0.3h-0.3h-0.3h-0.3h-0.3h-0.3h-0.3l0,0h-0.3h-0.3l0,0h-0.3h-0.3l0,0l0,0h-0.3l0,0l0,0l0,0l0,0
	l0,0l0,0l0,0l0,0l0,0l0,0l0,0l0,0l0,0l0,0l0,0l0,0l0,0l0,0l0,0l0,0l0,0l0,0l0,0l0,0l0,0l0,0l0,0l0,0l0,0l0,0l0,0l0,0l0,0l0,0l0,0
	l0,0l0,0l0,0l0,0l0,0l0,0l0,0l0,0l0,0l0,0l0,0l0,0l0,0l0,0l0,0l0,0l0,0l0,0l0,0l0,0l0,0l0,0l0,0l0,0l0,0l0,0l0,0l0,0l0,0l0,0l0,0
	l0,0l0,0l0,0l0,0l0,0l0,0l0,0l0,0l0,0l0,0l0,0l0,0l0,0l0,0l0,0l0,0l0,0l0,0l0,0l0,0l0,0l0,0l0,0l0,0l0,0l0,0l0,0l0,0l0,0l0,0l0,0
	l0,0l0,0l0,0l0,0l0,0l0,0l0,0l0,0l0,0l0,0l0,0l0,0l0,0l0,0l0,0l0,0l0,0l0,0l0,0l0,0l0,0l0,0l0,0l0,0l0,0l0,0l0,0l0,0l0,0l0,0l0,0
	l0,0l0,0l0,0l0,0l0,0l0,0l0,0l0,0l0,0l0,0l0,0l0,0l0,0l0,0l0,0l0,0l0,0l0,0l0,0l0,0l0,0l0,0l0,0l0,0l0,0l0,0l0,0l0,0l0,0l0,0l0,0
	l0,0l0,0l0,0l0,0l0,0l0,0l0,0l0,0l0,0l0,0l0,0l0,0l0,0l0,0l0,0l0,0l0,0l0,0l0,0l0,0l0,0l0,0l0,0l0,0l0,0l0,0l0,0l0,0l0,0l0,0l0,0
	l0,0l0,0l0,0l0,0l0,0l0,0l0,0l0,0l0,0l0,0l0,0l0,0l0,0l0,0l0,0l0,0l0,0l0,0l0,0l0,0l0,0l0,0l0,0l0,0l0,0l0,0l0,0l0,0l0,0l0,0l0,0
	l0,0l0,0l0,0l0,0l0,0l0,0l0,0l0,0l0,0l0,0l0,0l0,0l0,0l0,0l0,0l0,0l0,0l0,0l0,0l0,0l0,0l0,0l0,0l0,0l0,0l0,0l0,0l0,0l0,0l0,0l0,0
	l0,0l0,0l0,0l0,0l0,0l0,0l0,0l0,0l0,0l0,0l0,0l0,0l0,0l0,0l0,0l0,0l0,0l0,0l0,0l0,0l0,0l0,0l0,0l0,0l0,0l0,0l0,0l0,0l0,0l0,0l0,0
	l0,0l0,0l0,0l0,0l0,0l0,0l0,0l0,0l0,0l0,0l0,0l0,0l0,0l0,0l0,0l0,0l0,0l0,0l0,0l0,0l0,0l0,0l0,0l0,0l0,0l0,0l0,0l0,0l0,0l0,0l0,0
	l0,0l0,0l0,0l0,0l0,0l0,0l0,0l0,0l0,0l0,0l0,0l0,0l0,0l0,0l0,0h0.3l0,0l0,0h0.3h0.3h0.3h0.3h0.3h0.3h0.3h0.3h0.3h0.3h0.3h0.3h0.3
	h0.3h0.3h0.3h0.3h0.3h0.3h0.3h0.3h0.3h0.3h0.3h0.3h0.3h0.3h0.3h0.3h0.3h0.3h0.3h0.3h0.3h0.3h0.3h0.3h0.3L103.9,124.5L103.9,124.5z"
	/>
<path id="path3_00000033339937350180477960000010005808529367990460_" class="st2" d="M386.9,292.2c0,0,30.5,25.8,27.5,50
	c-3.4,24.1-24.1,26.2-28.8,8c-4.7-17.8-10.4-34.2-23.8-41.2C349,302.3,367.8,275.4,386.9,292.2L386.9,292.2z"/>
<path d="M398.3,366c-7.7,0-13.7-5.7-16.1-14.8c-4.4-16.4-9.7-32.5-21.8-38.6c-4.4-2-6.7-6-6.4-11.1c0.3-6.7,5.4-13.7,12.4-16.8
	c7.7-3.4,16.1-1.7,23.1,4.7c1.3,1.3,32.2,27.5,28.5,53.3c-2.3,16.4-11.7,22.8-19.1,23.1C399,366,398.6,366,398.3,366z M374.2,290.5
	c-2,0-3.7,0.3-5,1c-4.7,2-7.7,6.7-7.7,10.1c0,2,0.7,3,2.3,4c14.8,7.4,20.8,25.5,25.5,43.6c1.3,5.7,5,9.4,9.4,9.1
	c4.7-0.3,10.4-5.7,12.1-16.8c3-21.8-25.8-46.3-26.2-46.6l0,0C380.9,291.5,377.2,290.5,374.2,290.5z"/>
<path class="st3" d="M272.6,57.8c-0.3,0-0.3,0-0.7,0c-2-0.3-3.4-2.3-3.4-4.4c3-20.8,8.7-32.2,17.1-34.9c8-2.7,14.8,4.4,15.1,4.7
	c1.3,1.3,1.3,4,0,5.4c-1.3,1.3-4,1.3-5.4,0c0,0-3.7-3.7-7.4-2.7c-2.3,0.7-8.4,5-12.1,28.8C275.9,56.5,274.2,57.8,272.6,57.8z"/>
<path class="st3" d="M257.5,55.5c-2,0-3.4-1.3-3.7-3.4c-3.4-25.2-9.1-29.8-11.4-30.5c-3-1-6.4,2-6.4,2c-1.3,1.3-3.7,1.7-5.4,0
	c-1.3-1.3-1.7-3.7,0-5.4c2.3-2.3,8-6,14.1-4c8.4,2.7,13.7,14.8,16.8,36.9c0.3,2-1.3,4-3.4,4.4C257.8,55.5,257.8,55.5,257.5,55.5z"/>
<path class="st3" d="M265.2,50.1c-2,0-3.7-1.7-3.7-3.4c-1.7-25.2,1.3-39.9,9.7-44.9c5.4-3,11.1-1.3,13.4,0.3c1.7,1,2.3,3.4,1,5.4
	c-1,1.7-3.4,2.3-5,1.3c-0.3,0-3-1.7-5.7-0.3c-2.3,1.7-8,8.4-6,37.9C269.2,48.1,267.5,49.8,265.2,50.1L265.2,50.1z"/>
<path id="path7_00000112617227707587969950000009443101036243281571_" class="st2" d="M345.7,488.4c0,0-2.3-39.9-23.1-52
	c-21.1-12.1-35.2,3.4-23.8,17.8c11.4,14.4,21.1,29.2,18.4,43.6C314.5,512.5,347.3,513.5,345.7,488.4z"/>
<path d="M328.6,511.8c-3.7,0-7.4-1-10.4-3c-4-2.7-5.7-7-4.7-11.7c2.3-13.1-7-27.5-17.8-40.6c-6-7.7-6.7-16.4-1.3-22.5
	c4.7-5.7,15.4-9.4,29.8-1c22.5,12.7,25.2,53,25.2,55c0.7,9.4-3.4,17.1-10.4,21.1C335.9,511.2,332.3,511.8,328.6,511.8z M308.1,435.7
	c-3.7,0-6.4,1.3-8,3c-2.7,3.4-2.3,8,1.7,12.7c11.7,14.8,22.1,30.5,19.1,46.6c-0.3,1.7,0.3,3,1.7,4.4c2.7,2,8.4,2.3,12.7,0
	c3.4-1.7,7-5.7,6.7-14.1l0,0c0-0.3-2.3-38.2-21.5-49C315.8,437.1,311.8,435.7,308.1,435.7z"/>
<path id="path8_00000174589325631811892540000014858496992813068963_" class="st2" d="M164.6,493.1c0,0,21.1-34.2,10.7-56
	c-10.4-21.8-30.9-17.4-29.8,1c1,18.4,0.3,35.9-10.1,46.3C125,494.7,151.2,514.5,164.6,493.1z"/>
<path d="M149.2,506.5c-0.7,0-1.3,0-2,0c-7.7-0.7-14.8-6-17.1-12.4c-1.7-4.4-0.7-9.1,2.7-12.4c9.4-9.4,9.7-26.5,9.1-43.6
	c-0.7-9.7,4-17.1,11.7-19.1c7-1.7,18.1,1.3,25.2,16.4c11.1,23.5-10.1,57.7-11.1,59.7C163.2,502.5,156.5,506.5,149.2,506.5z
	 M157.2,426c-0.7,0-1.3,0-2,0.3c-4,1-6.4,5.4-6,11.4c1,18.8,0.7,37.6-11.1,49.3c-1.3,1.3-1.7,2.7-1,4.4c1,3,5.4,6.7,10.7,7.4
	c3.7,0.3,9.1-0.7,13.4-7.7l0,0c0.3-0.3,20.1-32.5,10.7-52.3C167.6,429.7,161.9,426,157.2,426z"/>
<path id="path9" class="st0" d="M382.2,111.8c4.4,1.7,8.7-1,12.1-3.7c38.9-30.2-14.4-42.6-25.8-18.4"/>
<path id="path10" class="st1" d="M391.3,72.2L391.3,72.2L391.3,72.2h0.3l0,0h0.3l0,0l0,0h0.3l0,0l0,0l0,0l0,0l0,0l0,0l0,0l0,0l0,0
	l0,0l0,0l0,0l0,0l0,0l0,0l0,0l0,0l0,0l0,0l0,0l0,0l0,0l0,0l0,0l0,0l0,0l0,0l0,0l0,0l0,0l0,0l0,0l0,0l0,0l0,0l0,0l0,0l0,0l0,0l0,0
	l0,0l0,0l0,0l0,0l0,0l0,0l0,0l0,0l0,0l0,0l0,0l0,0l0,0l0,0l0,0l0,0l0,0l0,0l0,0l0,0l0,0l0,0l0,0l0,0l0,0l0,0l0,0l0,0l0,0l0,0l0,0
	l0,0l0,0l0,0l0,0l0,0l0,0l0,0l0,0l0,0l0,0l0,0l0,0l0,0l0,0l0,0l0,0l0,0l0,0l0,0l0,0l0,0l0,0l0,0l0,0l0,0l0,0l0,0l0,0l0,0l0,0l0,0
	l0,0l0,0l0,0l0,0l0,0l0,0l0,0l0,0l0,0l0,0l0,0l0,0l0,0l0,0l0,0l0,0l0,0l0,0l0,0l0,0l0,0l0,0l0,0l0,0l0,0l0,0l0,0l0,0l0,0l0,0l0,0
	l0,0l0,0l0,0l0,0l0,0l0,0l0,0l0,0l0,0l0,0l0,0l0,0l0,0l0,0l0,0l0,0l0,0l0,0l0,0l0,0l0,0l0,0l0,0l0,0l0,0l0,0l0,0l0,0l0,0l0,0v0.3
	l0,0l0,0l0,0v0.3v0.3l0,0l0,0v0.3v0.3v0.3v0.3l0,0v0.3v0.3v0.3v0.3v0.3v0.3v0.3v0.3v0.3v0.3v0.3v0.3v0.3v0.3v0.3v0.3v0.3v0.3v0.3
	v0.3v0.3v0.3v0.3v0.3V83v0.3v0.3V84v0.3v0.3V85v0.3v0.3V86v0.3v0.3V87v0.3v0.3V88v0.3v0.3V89v0.3v0.3V90v0.3v0.3V91v0.3v0.3V92v0.3
	v0.3V93v0.3v0.3V94v0.3v0.3V95v0.3v0.3V96v0.3v0.3V97v0.3v0.3V98v0.3v0.3V99v0.3v0.3v0.3v0.3v0.3v0.3v0.3v0.3v0.3v0.3v0.3v0.3v0.3
	v0.3v0.3v0.3v0.3v0.3v0.3v0.3v0.3v0.3v0.3v0.3v0.3v0.3v0.3v0.3l-0.3,0.3l-0.3,0.3l-0.3,0.3l-0.3,0.3l-0.3,0.3l-0.3,0.3l-0.3,0.3
	l-0.3,0.3l-0.3,0.3l-0.3,0.3l-0.3,0.3l-0.3,0.3l-0.3,0.3l-0.3,0.3l-0.3,0.3l-0.3,0.3l-0.3,0.3l-0.3,0.3l-0.3,0.3l-0.3,0.3l-0.3,0.3
	l-0.3,0.3l-0.3,0.3l-0.3,0.3l-0.3,0.3l-0.3,0.3l-0.3,0.3l-0.3,0.3l-0.3,0.3l-0.3,0.3l-0.3,0.3l-0.3,0.3l-0.3,0.3l-0.3,0.3l-0.3,0.3
	l-0.3,0.3l-0.3,0.3l-0.3,0.3l-0.3,0.3h-0.3h-0.3h-0.3h-0.3h-0.3h-0.3h-0.3h-0.3h-0.3h-0.3h-0.3h-0.3h-0.3h-0.3h-0.3h-0.3h-0.3h-0.3
	h-0.3h-0.3h-0.3h-0.3h-0.3h-0.3h-0.3h-0.3l0,0l0,0l0,0l0,0l0,0l0,0l0,0l0,0l0,0l0,0l0,0l0,0l0,0l0,0l0,0l0,0l0,0l0,0l0,0l0,0l0,0
	l0,0l0,0l0,0l0,0l0,0l0,0l0,0l0,0l0,0l0,0l0,0l0,0l0,0l0,0l0,0l0,0l0,0l0,0l0,0l0,0l0,0l0,0l0,0l0,0l0,0l0,0l0,0l0,0l0,0l0,0l0,0
	l0,0l0,0l0,0l0,0l0,0l0,0l0,0l0,0l0,0l0,0h-0.3h-0.3l0,0h-0.3h-0.3l0,0l0,0h-0.3l0,0l0,0h-0.3l0,0l0,0l0,0h-0.3h-0.3h-0.3h-0.3h-0.3
	l-0.3-0.3l-0.3-0.3l-0.3-0.3l-0.3-0.3l-0.3-0.3l-0.3-0.3v-0.3v-0.3v-0.3v-0.3v-0.3v-0.3v-0.3v-0.3v-0.3v-0.3v-0.3v-0.3v-0.3v-0.3
	v-0.3v-0.3v-0.3v-0.3v-0.3v-0.3v-0.3v-0.3l0.3-0.3l0.3-0.3l0.3-0.3l0.3-0.3l0.3-0.3h0.3h0.3h0.3h0.3h0.3h0.3h0.3h0.3h0.3h0.3h0.3
	h0.3h0.3h0.3h0.3h0.3h0.3h0.3l0,0l0,0l0,0l0,0l0,0l0,0l0,0l0,0l0,0l0,0l0,0l0,0l0,0l0,0l0,0l0,0l0,0l0,0l0,0l0,0l0,0l0,0l0,0l0,0
	l0,0l0,0l0,0l0,0l0,0l0,0l0,0l0,0l0,0l0,0l0,0l0,0l0,0l0,0l0,0l0,0l0,0l0,0l0,0l0,0l0,0l0,0l0,0l0,0l0,0l0,0l0,0l0,0l0,0l0,0l0,0
	l0,0l0,0l0,0l0,0l0,0l0,0l0,0l0,0l0,0l0,0l0,0l0,0l0,0l0,0l0,0l0,0l0,0l0,0l0,0l0,0l0,0l0,0l0,0l0,0l0,0l0,0l0,0l0,0l0,0l0,0l0,0
	l0,0l0,0l0,0l0,0l0,0l0,0l0,0l0,0l0,0l0,0l0,0l0,0l0,0l0,0l0,0l0,0l0.3-0.3h0.3h0.3h0.3h0.3h0.3h0.3h0.3h0.3h0.3h0.3h0.3h0.3h0.3
	h0.3h0.3h0.3h0.3h0.3h0.3h0.3h0.3l0,0l0,0l0,0l0,0l0,0l0,0l0,0l0,0l0,0l0,0l0,0l0,0l0,0l0,0l0,0l0,0l0,0l0,0l0,0l0,0l0,0l0,0l0,0
	l0,0l0,0l0,0l0,0l0,0l0,0l0,0l0,0l0,0l0,0l0,0l0,0l0,0l0,0l0,0l0,0l0,0l0,0l0,0l0,0l0,0l0,0l0,0l0,0l0,0l0,0l0,0l0,0l0,0l0,0l0,0
	l0,0l0,0l0,0l0,0l0,0l0,0l0,0l0,0l0,0l0,0l0,0l0,0l0,0l0,0l0,0l0,0l0,0l0,0l0,0l0,0l0,0l0,0l0,0l0,0l0,0l0,0l0,0l0,0l0,0l0,0l0,0
	l0,0l0,0l0,0l0,0l0,0l0,0l0,0l0,0l0,0l0,0l0,0l0,0l0,0l0,0l0,0l0,0l0,0l0,0l0,0l0,0l0,0l0,0l0,0l0,0l0,0l0,0l0,0l0,0l0,0l0,0l0,0
	l0,0l0,0l0,0l0,0l0,0l0,0l0,0l0,0l0,0l0,0l0,0l0,0l0,0l0,0l0,0l0,0l0,0l0,0l0,0l0,0l0,0l0,0l0,0l0,0l0,0l0,0l0,0l0,0l0,0l0,0l0,0
	l0,0l0,0l0,0l0,0l0,0l0,0l0,0l0,0l0,0l0,0l0,0l0,0l0,0l0,0l0,0l0,0l0,0l0,0l0,0l0,0l0,0l0,0l0,0l0,0l0,0l0,0l0,0l0,0l0,0l0,0l0,0
	l0,0l0,0l0,0l0,0l0,0l0,0l0,0l0,0l0,0l0,0l0,0l0,0l0,0l0,0l0,0l0,0l0,0l0,0l0,0l0,0l0,0l0,0l0,0l0,0l0,0l0,0l0,0l0,0l0,0l0,0l0,0
	l0,0l0,0l0,0l0,0l0,0l0,0l0,0l0,0l0,0l0,0l0,0l0,0l0,0l0,0l0,0l0,0l0,0l0,0l0,0l0,0l0,0l0,0l0,0l0,0l0,0l0,0l0,0l0,0l0,0l0,0l0,0
	l0,0l0,0l0,0l0,0l0,0l0,0l0,0l0,0l0,0l0,0l0,0l0,0l0,0l0,0l0,0l0,0l0,0l0,0l0,0l0,0l0,0l0,0l0,0l0,0l0,0l0,0l0,0l0,0l0,0l0,0l0,0
	l0,0l0,0l0,0l0,0l0,0l0,0l0,0l0,0l0,0l0,0l0,0l0,0l0,0l0,0l0,0l0,0l0,0l0,0l0,0l0,0l0,0l0,0l0,0l0,0l0,0l0,0l0,0l0,0l0,0l0,0l0,0
	l0,0l0,0l0,0l0,0l0,0l0,0l0,0l0,0l0,0l0,0l0,0l0,0l0,0l0,0l0,0l0,0l0,0l0,0l0,0l0,0l0,0l0,0l0,0l0,0l0,0l0,0l0,0l0,0l0,0l0,0l0,0
	l0,0l0,0l0,0l0,0l0,0l0,0l0,0l0,0l0,0l0,0l0,0l0,0l0,0l0,0l0,0l0,0l0,0l0,0l0,0l0,0l0,0l0,0l0,0l0,0l0,0l0,0l0,0l0,0l0,0l0,0l0,0
	l0,0l0,0l0,0l0,0l0,0l0,0l0,0l0,0l0,0l0,0l0,0l0,0l0,0l0,0l0,0l0,0l0,0l0,0l0,0l0,0l0,0l0,0l0,0l0,0l0,0l0,0l0,0l0,0l0,0l0,0l0,0
	l0,0l0,0l0,0l0,0l0,0l0,0l0,0l0,0l0,0l0,0l0,0l0,0l0,0l0,0l0,0l0,0l0,0l0,0l0,0l0,0l0,0l0,0l0,0l0,0l0,0l0,0l0,0l0,0l0,0l0,0l0,0
	l0,0l0,0l0,0l0,0l0,0l0,0l0,0l0,0l0,0l0,0l0,0l0,0l0,0l0,0l0,0l0,0l0,0l0,0l0,0l0,0l0,0l0,0l0,0l0,0l0,0l0,0l0,0l0,0l0,0l0,0l0,0
	l0,0l0,0l0,0l0,0l0,0l0,0l0,0l0,0l0,0l0,0l0,0l0,0l0,0l0,0l0,0l0,0l0,0l0,0l0,0l0,0l0,0l0,0l0,0l0,0l0,0l0,0l0,0l0,0l0,0l0,0l0,0
	l0,0l0,0v0.3v0.3v0.3l-0.3,0.3l-0.3,0.3l-0.3,0.3l-0.3,0.3l-7-18.4h-0.3h-0.3h-0.3h-0.3h-0.3h-0.3h-0.3h-0.3h-0.3h-0.3h-0.3h-0.3
	h-0.3h-0.3h-0.3h-0.3h-0.3h-0.3h-0.3h-0.3h-0.3h-0.3h-0.3h1.3l-0.3-0.3l-0.3-0.3l-0.3-0.3l-0.3-0.3l-0.3-0.3V92v-0.3v-0.3V91v-0.3
	v-0.3V90v-0.3v-0.3V89v-0.3v-0.3V88v-0.3v-0.3V87v-0.3v-0.3V86l0,0v-0.3v-0.3V85v-0.3v-0.3V84v-0.3v-0.3V83l0,0l0,0l0,0l0,0l0,0l0,0
	l0,0l0,0l0,0l0,0l0,0l0,0l0,0l0,0l0,0l0,0l0,0l0,0l0,0l0,0l0,0l0,0l0,0l0,0l0,0l0,0l0,0l0,0l0,0l0,0l0,0l0,0l0,0l0,0l0,0l0,0l0,0
	l0,0l0,0l0,0l0,0l0,0l0,0l0,0l0,0l0,0l0,0l0,0l0,0l0,0l0,0l0,0l0,0l0,0l0,0l0,0l0,0l0,0l0,0l0,0l0,0l0,0l0,0l0,0l0,0l0,0l0,0l0,0
	l0,0l0,0l0,0l0,0l0,0l0,0l0,0l0,0l0,0l0,0l0,0l0,0l0,0l0,0l0,0l0,0l0,0l0,0l0,0l0,0l0,0l0,0l0,0l0,0l0,0l0,0l0,0l0,0l0,0l0,0l0,0
	l0,0l0,0l0,0l0,0l0,0l0,0l0,0l0,0l0,0l0,0l0,0l0,0l0,0h0.3l0,0l0,0l0,0l0,0l0,0h0.3l0,0h0.3l0,0l0,0h0.3l0,0l0,0l0,0h0.3l0,0h0.3
	l0,0l0,0h0.3l0,0l0,0h0.3h0.3l0,0h0.3h0.3l0,0h0.3l0,0h0.3h0.3l0,0h0.3l0,0h0.3h0.3l0,0h0.3l0,0h0.3h0.3h0.3l0,0h0.3h0.3l0,0h0.3
	l0,0h0.3h0.3l0,0l0,0h0.3l0,0l0,0h0.3l0,0l0,0l0,0h0.3l0,0L391.3,72.2L391.3,72.2L391.3,72.2z"/>
<path id="path11" class="st0" d="M379.5,431.4c0,0,20.5-39.9,16.4-74.1c-12.1-107.3,19.4-128.1,7-193.5
	c-4.4-22.8-12.4-48.6-26.2-67.4C347,54.8,288.7,33.3,238,43c-20.5,4-38.6,12.7-56.7,22.1c-63,33.5-76.1,104.3-68.1,164
	c3.7,26.5,26.2,67.4,23.1,93.9c-7,55-5,84.8,12.1,120.7c14.8,30.2,71.8,53.3,134.1,46.6C293.4,489.4,357.1,478,379.5,431.4
	L379.5,431.4z"/>
<g>
	<defs>
		<path id="SVGID_1_" d="M379.5,431.4c0,0,20.5-39.9,16.4-74.1c-12.1-107.3,19.4-128.1,7-193.5c-4.4-22.8-12.4-48.6-26.2-67.4
			C347,54.8,288.7,33.3,238,43c-20.5,4-38.6,12.7-56.7,22.1c-63,33.5-76.1,104.3-68.1,164c3.7,26.5,26.2,67.4,23.1,93.9
			c-7,55-5,84.8,12.1,120.7c14.8,30.2,71.8,53.3,134.1,46.6C293.4,489.4,357.1,478,379.5,431.4L379.5,431.4z"/>
	</defs>
	<clipPath id="SVGID_00000100364483232094454720000011024181989798979748_">
		<use xlink:href="#SVGID_1_"  style="overflow:visible;"/>
	</clipPath>
	
		<path id="path13" style="clip-path:url(#SVGID_00000100364483232094454720000011024181989798979748_);fill-rule:evenodd;clip-rule:evenodd;fill:#4FCBE0;" d="
		M154.2,91.3c0,0-20.8,51-8,92.6s35.2,98.9,31.5,156.9c-3.7,57.7,2.7,94.9,15.4,111.3c25.8,32.9,95.9,37.9,114,32.5
		c18.1-5.4-70.4,18.4-121.1-2s-57.7-106.3-51-160c6.7-53.7-36.2-69.1-21.8-161.3C135.7,107.1,136.4,110.1,154.2,91.3z"/>
	
		<path id="path14" style="clip-path:url(#SVGID_00000100364483232094454720000011024181989798979748_);fill-rule:evenodd;clip-rule:evenodd;fill:#4FCBE0;" d="
		M238.7,170.5c0,0-6.4,31.5-43.6,29.5c-37.6-1.7-39.9-39.9-39.9-39.9L238.7,170.5z"/>
	
		<path id="path15" style="clip-path:url(#SVGID_00000100364483232094454720000011024181989798979748_);fill-rule:evenodd;clip-rule:evenodd;fill:#4FCBE0;" d="
		M398.6,154.7c0,0-6.4,31.5-43.6,29.5c-37.6-1.7-39.9-39.9-39.9-39.9L398.6,154.7z"/>
</g>
<path id="path16" class="st1" d="M263.2,35.7L263.2,35.7h0.7h0.3h0.3h0.3h0.3h0.3h0.3h0.3h0.3h0.3h0.3h0.3h0.3h0.3h0.3h0.3h0.3h0.3
	h0.3h0.3h0.3h0.3h0.3h0.3h0.3h0.3h0.3h0.3h0.3h0.3h0.3h0.3h0.3h0.3h0.3h0.3h0.3h0.3h0.3h0.3h0.3h0.3h0.3h0.3h0.7h0.7h0.7h0.7h0.7
	h0.7h0.7h0.7h0.7h0.7h0.7h0.7h0.7h0.7h0.7h0.7h0.7h0.7h0.7h0.7h0.7h0.7h0.7h0.7h0.7h0.7h0.7h0.7h0.7h0.7h0.7h0.7h0.7h0.7h0.7h0.7
	h0.7h0.7h0.7h0.7l0.7,0.3l0.7,0.3l0.7,0.3l0.7,0.3l0.7,0.3l0.7,0.3l0.7,0.3l0.7,0.3l0.7,0.3l0.7,0.3l0.7,0.3l0.7,0.3l0.7,0.3
	l0.7,0.3l0.7,0.3l0.7,0.3l0.7,0.3l0.7,0.3l0.7,0.3l0.7,0.3l0.7,0.3l0.7,0.3l0.7,0.3l0.7,0.3l0.7,0.3l0.7,0.3l0.7,0.3l0.7,0.3
	l0.7,0.3l0.7,0.3l0.7,0.3l0.7,0.3l0.7,0.3l0.7,0.3l0.7,0.3l0.7,0.3l0.7,0.3l0.7,0.3l0.7,0.3l0.7,0.3l0.7,0.3l0.7,0.3l0.7,0.3
	l0.7,0.3l0.7,0.3l0.7,0.3l0.7,0.3l0.7,0.3l0.7,0.3l0.7,0.3l0.7,0.3l0.7,0.3l0.7,0.3l0.7,0.3l0.7,0.3l0.7,0.3l0.7,0.3l0.7,0.3
	l0.7,0.3l0.7,0.3l0.7,0.3h0.3h0.3h0.3h0.3h0.3h0.3h0.3h0.3h0.3h0.3h0.3h0.3h0.3h0.3h0.3h0.3h0.3h0.3h0.3l0.3,0.3h0.3l0.3,0.3
	l0.3,0.3l0.3,0.3l0.3,0.3l0.3,0.3l0.3,0.3l0.3,0.3l0.3,0.3l0.3,0.3l0.3,0.3l0.3,0.3l0.3,0.3l0.3,0.3l0.3,0.3l0.3,0.3l0.3,0.3
	l0.3,0.3l0.3,0.3l0.3,0.3l0.3,0.3l0.3,0.3l0.3,0.3l0.3,0.3l0.3,0.3l0.3,0.3l0.3,0.3l0.3,0.3l0.3,0.3l0.3,0.3l0.3,0.3l0.3,0.3
	l0.3,0.3l0.3,0.3l0.3,0.3l0.3,0.3l0.3,0.3l0.3,0.3l0.3,0.3l0.3,0.3l0.3,0.3l0.3,0.3l0.3,0.3l0.3,0.3l0.3,0.3l0.3,0.3l0.3,0.3
	l0.3,0.3l0.3,0.3l0.3,0.3l0.3,0.3l0.3,0.3l0.3,0.3l0.3,0.3l0.3,0.3l0.3,0.3l0.3,0.3l0.3,0.3l0.3,0.3l0.3,0.3l0.3,0.3l0.3,0.3
	l0.3,0.3l0.3,0.3l0.3,0.3l0.3,0.3l0.3,0.3l0.3,0.3l0.3,0.3l0.3,0.3l0.3,0.3l0.3,0.3l0.3,0.3l0.3,0.3l0.3,0.3l0.3,0.3l0.3,0.3
	l0.3,0.3l-15.1-8.4l0.3,0.3l0.3,0.3l0.3,0.3l0.3,0.3l0.3,0.3l0.3,0.3l0.3,0.3l0.3,0.3l0.3,0.3l0.3,0.3l0.3,0.3l0.3,0.3l0.3,0.3
	l0.3,0.3l-1.3-1.3l0.3,0.3l0.3,0.3l0.3,0.3l0.3,0.3l0.3,0.3l0.3,0.3l0.3,0.3l0.3,0.3l0.3,0.3l0.3,0.3l0.3,0.3l0.3,0.3l0.3,0.3
	l0.3,0.3l0.3,0.3l0.3,0.3l0.3,0.3l0.3,0.3l0.3,0.3l0.3,0.3l0.3,0.3l0.3,0.3l0.3,0.3l0.3,0.3l0.3,0.3l0.3,0.3l0.3,0.3l0.3,0.3
	l0.3,0.3l-3-3l0,0l0.3,0.3l0.3,0.3l0.3,0.3l0.3,0.3l0.3,0.3l0.3,0.3l0.3,0.3l0.3,0.3l0.3,0.3l0.3,0.3l0.3,0.3l0.3,0.3l0.3,0.3
	l0.3,0.3l0.3,0.3l0.3,0.3l0.3,0.3l0.3,0.3l0.3,0.3l0.3,0.3l0.3,0.3l0.3,0.3l0.3,0.3l0.3,0.3l0.3,0.3l0.3,0.3l0.3,0.3l0.3,0.3
	l0.3,0.3l0.3,0.3l0.3,0.3l0.3,0.3l0.3,0.3l0.3,0.3l0.3,0.3l0.3,0.3l0.3,0.3l0.3,0.3l0.3,0.3l0.3,0.3v0.3l0.3,0.3v0.3v0.3l0.3,0.3
	v0.3v0.3v0.3v0.3v0.3v0.3v0.3v0.3v0.3v0.3v0.3v0.3v0.3v0.3v0.3v0.3v0.3v0.3v0.3v0.3v0.3v0.3v0.3v0.3v0.3v0.3v0.3v0.3v0.3v0.3v0.3
	v0.3v0.3v0.3v0.3v0.3v0.3v0.3v0.3v0.3v0.3v0.3v0.3v0.3l0.3,0.7l0.3,0.7l0.3,0.7l0.3,0.7l0.3,0.7l0.3,0.7l0.3,0.7l0.3,0.7l0.3,0.7
	l0.3,0.7l0.3,0.7l0.3,0.7l0.3,0.7l0.3,0.7l0.3,0.7l0.3,0.7l0.3,0.7l0.3,0.7l0.3,0.7l0.3,0.7l0.3,0.7l0.3,0.7l0.3,0.7l0.3,0.7
	l0.3,0.7l0.3,0.7l0.3,0.7l0.3,0.7l0.3,0.7l0.3,0.7l0.3,0.7l0.3,0.7l0.3,0.7l0.3,0.7l0.3,0.7l0.3,0.7l0.3,0.7l0.3,0.7l0.3,0.7
	l0.3,0.7l0.3,0.7l0.3,0.7l0.3,0.7l0.3,0.7l0.3,0.7l0.3,0.7l0.3,0.7l0.3,0.7l0.3,0.7l0.3,0.7l0.3,0.7l0.3,0.7l0.3,0.7l0.3,0.7
	l0.3,0.7l0.3,0.7l0.3,0.7l0.3,0.7l0.3,0.7l0.3,0.7v0.7v0.7v0.7v0.7v0.7v0.7v0.7v0.7v0.7v0.7v0.7v0.7v0.7v0.7v0.7v0.7v0.7v0.7v0.7
	v0.7v0.7v0.7v0.7v0.7v0.7v0.7v0.7v0.7v0.7v0.7v0.7v0.7v0.7v0.7v0.7v0.7v0.7v0.7v0.7v0.7v0.7v0.7v0.3v0.3v0.3v0.3v0.3v0.3v0.3v0.3
	v0.3v0.3v0.3v0.3v0.3v0.3v0.3v0.3v0.3v0.3v0.3v0.3v0.3v0.3v0.3v0.3v0.3v0.3v0.3v0.3v0.3v0.3v0.3v0.3v0.3v0.3v0.3v0.3v0.3v0.3v0.3
	v0.3v0.3v0.3v0.3v0.3v0.3v0.3v0.3v0.3v0.3v0.3v0.3v0.3v0.3v0.3v0.3v0.3v0.3v0.3v0.3v0.3v0.3v0.3v0.3v0.3v0.3v0.3v0.3v0.3v0.3v0.3
	v0.3v0.3v0.3v0.3v0.3v0.3v0.3v0.3v0.3v0.3v0.3v0.3v0.3v0.3v0.3v0.3v0.3v0.3v0.3v-17.4v0.3v0.3v0.3v0.3v0.7v0.7v0.7v0.7v0.7v0.7v0.7
	v0.7v0.7v0.7v0.7v0.7v0.7v0.7v0.7v0.7v0.7v0.7v0.7v0.7v0.7v0.7v0.7v0.7v0.7v0.7v0.7v0.7v0.7v0.7v0.7v0.7v0.7v0.7v0.7v0.7v0.7v0.7
	v0.7v0.7v0.7v0.7v0.7v0.7v0.7v0.7v0.7v0.7v0.7v0.7v0.7v0.7v0.7v0.7v0.7v0.7v0.7l-0.3,1.3l-0.3,1.3l-0.3,1.3l-0.3,1.3l-0.3,1.3
	l-0.3,1.3l-0.3,2.3l-0.3,2.3l-0.3,1.3l-0.3,1.3l-0.3,1.3l-0.3,1.3l-0.3,1.3l-0.3,1.3v0.7v0.7v0.7v0.7v0.7v0.7v0.7v0.7v0.7v0.7v0.7
	v0.7v0.7v0.7v0.7v0.7v0.7v0.7v0.7v0.7v0.7v0.7v0.7v0.7v0.7v0.7v0.7v0.7v0.7v0.7v0.7v0.7v0.7v0.7v0.7v0.7v0.7v0.7v0.7v0.7v0.7v0.7
	v0.7v0.7v0.7v0.7v0.7v0.7v0.7v0.7v0.7v0.7v0.7v0.7v0.7v0.7v0.7v1v1v1v1v1v1v1v1v1v1v1v1v1v1v1v1v0.3v0.3v0.3v0.3v0.3v-2.3v0.3v0.3
	v0.3v0.3v0.3v0.3v0.3v0.3v0.3v0.3v0.3v0.3v0.3v0.3v0.3v0.3v0.3v0.3v0.3v0.3v0.3v0.7v0.7v0.7v0.7v0.7v0.7v0.7v0.7v0.7v0.7v0.7v0.7
	v0.7v0.7v0.7v0.7v0.7v0.7v0.7v0.7v0.7v0.7v0.7v0.7v0.7v0.7v0.7v0.7v0.7v0.7v0.7v0.7v0.7v0.7v0.7v0.7v0.7v0.7v0.7v0.7v0.7v0.7v0.7
	v0.7v0.7v0.7v0.7v0.7v0.7v0.7v0.7v0.7v0.7v0.7v0.7v0.7v0.7v0.7v0.7v0.7v0.7v0.7v0.7v0.7v0.7v0.7v0.7v0.3v0.3v0.3v0.3v0.3v0.3v0.3
	v0.3v0.3v0.3v0.3v0.3v0.3v0.3v0.3v0.3v0.3v0.3v0.3v0.3v0.3v0.3v0.3v0.3v0.3v0.3v0.3v0.3v0.3v0.3v0.3v0.3v0.3v0.3v0.3v0.3v0.3v0.3
	v0.3v0.3v0.3v0.3v0.3v0.3v0.3v0.3v0.3v0.3v0.3v0.3v0.3v0.3v0.3v0.3v0.3v0.3v0.3v0.3v0.3v0.3v0.3v0.3v0.3v0.3v0.3v0.3v0.3v0.3v0.3
	v0.3v0.3v0.3v0.3v0.3v0.3v0.3v0.3v0.3v0.3v0.3v0.3v0.3v0.3v0.3v0.3v0.3v0.3v0.3v0.3v0.3v0.3v0.3v0.3v0.3v0.3v0.3v0.3v0.3v0.3v0.3
	v0.3v0.3v0.3v0.3v0.3v0.3v0.3v0.3v0.3v0.3v0.3v0.3v0.3v0.3v0.3v0.3v0.3v0.3v0.3v0.3v0.3v0.3v0.3v0.3v0.3v0.3v0.3v0.3l-9.4,5.7
	l-0.3,0.7l-0.3,0.7l-0.3,0.7l-0.3,0.7l-0.3,0.7l-0.3,0.7l-0.3,0.7l-0.3,0.7l-0.3,0.7l-0.3,0.7l-0.3,0.7l-0.3,0.7l-0.3,0.7l-0.3,0.7
	l-0.3,0.7l-0.3,0.7l-0.3,0.7l-0.3,0.7l-0.3,0.7l-0.3,0.7l-0.3,0.7l-0.3,0.7l-0.3,0.3l-0.3,0.3l-0.3,0.3l-0.3,0.3l-0.3,0.3l-0.3,0.3
	l-0.3,0.3l-0.3,0.3l-0.3,0.3l-0.3,0.3l-0.3,0.3l-0.3,0.3v0.3v0.3v0.3v0.3v0.3v0.3v0.3v0.3v0.3l-0.3,0.7l-0.3,0.3l-0.3,0.3l-0.3,0.3
	v0.3v0.3v0.3l0,0l0,0v0.3v0.3v0.3v0.3v0.3v0.3v0.3v0.3v0.3v0.3v0.3v0.3v0.3v0.3v0.3v0.3v0.3v0.3v0.3v0.3v0.3v0.3v0.3v0.3v0.3v0.3
	v0.3l-0.3,0.3v0.3l-0.3,0.3l-0.3,0.3l-0.3,0.3l-0.3,0.3l-0.3,0.3l-0.3,0.3l-0.3,0.3l-0.3,0.3l-0.3,0.3l-0.3,0.3l-0.3,0.3l-0.3,0.3
	l-0.3,0.3l-0.3,0.3l-0.3,0.3l-0.3,0.3l-0.3,0.3l-0.3,0.3l-0.3,0.3l-0.3,0.3l-0.3,0.3l-0.3,0.3l-0.3,0.3l-0.3,0.3l-0.3,0.3l-0.3,0.3
	l-0.3,0.3l-0.3,0.3l-0.3,0.3l-0.3,0.3l-0.3,0.3l3.4-4.4l-0.3,0.3l-0.3,0.3l-0.3,0.3l-0.3,0.3l-0.3,0.3l-0.3,0.3l-0.3,0.3l-0.3,0.3
	l-0.3,0.3l-0.3,0.3l-0.3,0.3l-0.3,0.3l-0.3,0.3l-0.3,0.3l-0.3,0.3l-0.3,0.3l-0.3,0.3l-0.3,0.3l-0.3,0.3l-0.3,0.3l-0.3,0.3l-0.3,0.3
	l-0.3,0.3l-0.3,0.3l-0.3,0.3l-0.3,0.3l-0.3,0.3l-0.3,0.3l-0.3,0.3l-0.3,0.3l-0.3,0.3l-0.3,0.3l-0.3,0.3l-0.3,0.3l-0.3,0.3l-0.3,0.3
	l-0.3,0.3l-0.3,0.3l-0.3,0.3l-0.3,0.3l-0.3,0.3l-0.3,0.3l-0.3,0.3l-0.3,0.3l-0.3,0.3l-0.3,0.3l-0.3,0.3l-0.3,0.3l-0.3,0.3l-0.3,0.3
	l-0.3,0.3l-0.3,0.3l-0.3,0.3l-0.3,0.3l-0.3,0.3l-0.3,0.3l-0.3,0.3l-0.3,0.3l-0.3,0.3l-0.3,0.3l-0.3,0.3l-0.3,0.3l-0.3,0.3l-0.3,0.3
	l-0.3,0.3l-0.3,0.3l-0.3,0.3l-0.3,0.3l-0.3,0.3l-0.3,0.3l-0.3,0.3l-0.3,0.3l-0.3,0.3l-0.3,0.3l-0.3,0.3l-0.3,0.3l-0.3,0.3l-0.3,0.3
	l-0.3,0.3l-0.3,0.3l-0.3,0.3l-0.3,0.3l-0.3,0.3l-0.3,0.3l-0.3,0.3l-0.3,0.3l-0.3,0.3l-0.3,0.3l-0.3,0.3l-0.3,0.3l-0.3,0.3l-0.3,0.3
	l-0.3,0.3l-0.3,0.3l-0.3,0.3l-0.3,0.3h-0.3H341h-0.3h-0.3H340h-0.3h-0.3H339h-0.3h-0.3H338l-0.3,0.3l-0.3,0.3l-0.3,0.3l-0.3,0.3
	l-0.3,0.3l-0.3,0.3l-0.3,0.3l-0.3,0.3l-0.3,0.3l-0.3,0.3l-0.3,0.3l-0.3,0.3l-0.3,0.3l-0.3,0.3l-0.3,0.3l-0.3,0.3l-0.3,0.3l-0.3,0.3
	l-0.3,0.3l-0.3,0.3l-0.3,0.3l-0.3,0.3l-0.3,0.3l-0.3,0.3l-0.3,0.3l-0.3,0.3l-0.3,0.3l-0.3,0.3l-0.3,0.3l-0.3,0.3l-0.3,0.3l-0.3,0.3
	l-0.3,0.3l-0.3,0.3l-0.3,0.3l-0.3,0.3l-0.3,0.3l-0.3,0.3l-0.3,0.3l-0.3,0.3l-0.3,0.3l-0.3,0.3l-0.3,0.3l-0.3,0.3l-0.3,0.3l-0.3,0.3
	l-0.3,0.3l-0.3,0.3l-0.3,0.3l-0.3,0.3l-0.3,0.3l-0.3,0.3l-0.3,0.3l-0.3,0.3l-0.3,0.3l-0.3,0.3l-0.3,0.3l-0.3,0.3l-0.3,0.3l-0.3,0.3
	l-0.3,0.3l-0.3,0.3l-0.3,0.3l-0.3,0.3l-0.3,0.3l-0.3,0.3h-0.3h-0.3h-0.3h-0.3h-0.3h-0.3h-0.3h-0.3h-0.3h-0.3h-0.3h-0.3h-0.3h-0.3
	h-0.3h-0.3h-0.3h-0.3h-0.3h-0.3h-0.3h-0.3h-0.3h-0.3h-0.3h-0.3h-0.3h-0.3h-0.3h-0.3h-0.3h-0.3h-0.3h-0.3h-0.3h-0.3h-0.3h-0.3h-0.3
	h-0.3h-0.3h-0.3h-0.3h-0.3h-0.3h-0.3h-0.3h-0.3h-0.3h-0.3h-0.3h-0.3H298h-0.3h-0.3H297h-0.3h-0.3H296h-0.3H295h-0.7h-0.7H293h-0.7
	h-0.7H291h-0.7h-0.7H289h-0.3h-0.3H288h-0.3h-0.3H287h-0.3h-0.3H286h-0.3h-0.3H285h-0.3h-0.3H284h-0.3h-0.3H283h-0.3h-0.3H282h-0.3
	h-0.3h-0.7h-0.7h-0.7h-0.7h-0.7h-0.7h-0.7h-0.7h-0.7h-0.7h-0.7h-0.7h-0.7h-0.7h-0.7h-0.7h-0.7h-0.7h-0.7h-0.7h-0.7h-0.7h-0.7h-0.7
	h-0.7h-0.7h-0.7h-0.7h-0.7h-0.7h-0.7h-0.7h-0.7h-0.7h-0.7h-0.7h-0.7h-0.7h-0.7h-0.7h-0.7h-0.7h-0.7h-0.7h-0.7h-0.7h-0.7h-0.7h-0.7
	h-0.7h-0.7h-0.7h-0.7h-0.7h-0.7h-0.7h-0.7h-0.7h-0.7H241h-0.7h-0.7H239h-0.7h-0.7H237h-0.7h-0.7H235h-0.7h-0.7H233h-0.7h-0.7H231
	h-0.7h-0.7H229h-0.7h-0.7H227h-0.7h-0.7h-0.7h-0.7h-0.7h-0.7h-0.7h-0.7h-0.7h-0.7h-0.7h-0.7h-0.7h-0.7h-0.7h-0.7h-0.7h-0.7h-0.7
	l-0.7-0.3l-0.7-0.3l-0.7-0.3l-0.7-0.3l-0.7-0.3l-0.7-0.3l-0.7-0.3l-0.7-0.3l-0.7-0.3l-0.7-0.3l-0.7-0.3l-0.7-0.3l-0.7-0.3l-0.7-0.3
	l-0.7-0.3l-0.7-0.3l-0.7-0.3l-0.7-0.3l-0.7-0.3l-0.7-0.3l-0.7-0.3l-0.7-0.3l-0.7-0.3l-0.7-0.3l-0.7-0.3l-0.7-0.3l-0.7-0.3l-0.7-0.3
	l-0.7-0.3l-0.7-0.3l-0.7-0.3l-0.7-0.3l-0.7-0.3l-0.7-0.3l-0.7-0.3l-0.7-0.3l-0.7-0.3l-0.7-0.3l-0.7-0.3l-0.7-0.3l-0.7-0.3l-0.7-0.3
	l-0.7-0.3l-0.7-0.3l-0.7-0.3l-0.7-0.3l-0.7-0.3l-0.7-0.3l-0.7-0.3l-0.7-0.3l-0.7-0.3l-0.7-0.3l-0.7-0.3l-0.7-0.3l-0.7-0.3l-0.7-0.3
	l-0.3-0.3l-0.3-0.3l-0.3-0.3l-0.3-0.3l-0.3-0.3l-0.3-0.3l-0.3-0.3l-0.3-0.3l-0.3-0.3l-0.3-0.3l-0.3-0.3l-0.3-0.3l-0.3-0.3H172h-0.3
	h-0.3H171h-0.3h-0.3H170h-0.3h-0.3h-0.3h-0.3h-0.3h-0.3h-0.3h-0.3h-0.3h-0.3h-0.3h-0.3h-0.3h-0.3h-0.3h-0.3h-0.3h-0.3h-0.3h-0.3
	h-0.3h-0.3h-0.3h-0.3h-0.3h-0.3h-0.3h-0.3h-0.3h-0.3h-0.3h-0.3h-0.3h-0.3h-0.3h-0.3h-0.3h-0.3h-0.3h-0.3h-0.3h-0.3h-0.3h-0.3h-0.3
	h-0.3h-0.3h-0.3h-0.3h-0.3h-0.3h-0.3h-0.3h-0.3h-0.3h-0.3h-0.3h-0.3l-0.3-0.3h-0.3h-0.3l-0.3-0.3l-0.3-0.3h-0.3l-0.3-0.3l-0.3-0.3
	l-0.3-0.3l-0.3-0.3l-0.3-0.3l-0.3-0.3l-0.3-0.3l-0.3-0.3l-0.3-0.3l-0.3-0.3l-0.3-0.3l-0.3-0.3l-0.3-0.3l-0.3-0.3l-0.3-0.3l-0.3-0.3
	V474l-0.3-0.3v-0.3v-0.3v-0.3v-0.3v-0.3v-0.3v-0.3v-0.3v-0.3v-0.3v-0.3v-0.3v-0.3v-0.3v-0.3v-0.3v-0.3v-0.3v-0.3v-0.3v-0.3v-0.3
	v-0.3v-0.3v-0.3v-0.3v-0.3v-0.3v-0.3v-0.3v-0.3v-0.3v-0.3v-0.3v-0.3v-0.3v-0.3v-0.3v-0.3v-0.3v-0.3v-0.3v-0.3v-0.3v-0.3v-0.3v-0.3
	v-0.3v-0.3v-0.3v-0.3v-0.3v-0.3v-0.3v-0.3v-0.3v-0.3v-0.3v-0.3v-0.3v-0.3v-0.3v-0.3v-0.3v-0.3v-0.3v-0.3v-0.3v-0.3v-0.3v-0.3v-0.3
	v-0.3v-0.3v-0.3l-0.3-0.3l-0.3-0.3l-0.3-0.3l-0.3-0.3l-0.3-0.3l-0.3-0.3l1.7-3.7l-0.3-0.3l-0.3-0.3l-0.3-0.3l-0.3-0.3l-0.3-0.3
	l-0.3-0.3l-0.3-0.3l-0.3-0.3l-0.3-0.3l-0.3-0.3l-0.3-0.3l-0.3-0.3l-0.3-0.3l-0.3-0.3l-0.3-0.3l-0.3-0.3l-0.3-0.3l-0.3-0.3l-0.3-0.3
	l-0.3-0.3l-0.3-0.3l-0.3-0.3v-0.3v-0.3v-0.3v-0.3v-0.3v-0.3V433v-0.3v-0.3V432v-0.3v-0.3V431v-0.3v-0.3V430v-0.3v-0.3V429v-0.3v-0.3
	V428v-0.3v-0.3V427v-0.3v-0.3V426v-0.3v-0.3V425v-0.3v-0.3V424v-0.3v-0.3V423v-0.3v-0.3V422v-0.3v-0.3V421v-0.3v-0.3V420v-0.3v-0.3
	V419v-0.3v-0.3V418v-0.3v-0.3v-0.3v-0.3v-0.3v-0.3v-0.3v-0.3v-0.3v-0.3v-0.3v-0.3v-0.3v-0.3v-0.3v-0.3v-0.3v-0.3v-0.3v-0.3v-0.3
	v-0.3v-0.3v-0.3v-0.3v-0.3v-0.3v-0.3v-0.3v-0.3v-0.3v-0.3v-0.3v-0.3v-0.3v-0.3v-0.3v-0.3v-0.3v-0.3v-0.3v-0.3v-0.3v-0.3v-0.3v-0.3
	v-0.3v-0.3v-0.3v-0.3v-0.3v-0.3v-0.3v-0.3v-0.3v-0.3v-0.3v-0.3v-0.3v-0.3v-0.3v-0.3v-0.3v-0.3v-0.3v-0.3v-0.3v-0.3v-0.3v-0.3v-0.3
	v-0.3v-0.3v-0.3v-0.3v-0.3v-0.3v-0.3v-0.3v-0.3v-0.3v-0.3v-0.3v-0.3v-0.3v-0.3v-16.8V372v-0.3v-0.3V371v-0.3V370v-0.7v-0.7V368v-0.7
	v-0.7V366v-0.7v-0.7V364v-0.7v-0.7V362v-0.7v-0.7v-0.7v-0.7v-0.7v-0.7v-0.7v-0.7v-0.7v-0.7v-0.7v-0.7v-0.7v-0.7v-0.7v-0.7v-0.7v-0.7
	v-0.7v-0.7v-0.7v-0.7v-0.7v-0.7v-0.7v-0.7v-0.7v-0.7v-0.7v-0.7v-0.7v-0.7v-0.7v-0.7v-0.7v-0.7v-0.7v-0.7v-0.7v-0.7v-0.7v-0.7v-0.7
	v-0.7v-0.7v-0.7v-1.3v-1.3v-1.3v-1.3v-1.3v-1.3v-1.3v-1.3V319v-1.3v-1.3V315v-0.3v-0.3V314v-0.3v-0.3V313v-0.3v-0.3V312v-0.3v-0.3
	V311v-0.3v-0.3V310v-0.3v-0.3V309v-0.3v-0.3V308v-0.3v-0.3V307v-0.3v-0.3V306v-0.3v-0.3v-0.3v-0.3v-0.3v-0.3v-0.3v-0.3v-0.3v-0.3
	v-0.3v-0.3v-0.3v-0.3v-0.3v-0.3v-0.3v-0.3v-0.3v-0.3v-0.3v-0.3v-0.3v-0.3v-0.3v-0.3v-0.3v-0.3v-0.3v-0.3v-0.3v-0.3v-0.3v-0.3v-0.3
	v-0.3v-0.3v-0.3v-0.3v-0.3v-0.3v-0.3v-0.3v-0.3v-0.3v-0.3v-0.3v-0.3v-0.3v-0.3v-0.3v-0.3v-0.3v-0.3v-0.3v-0.3v-0.3v-0.3v-0.3v-0.3
	v-0.3v-0.3v-0.3v-0.3v-0.3v-0.3v-0.3v-0.3v-0.3v-0.3v-0.3v-0.3v-0.3l-9.4,6.4v-0.7l-0.3-0.7l-0.3-0.7l-0.3-0.7l-0.3-0.7l-0.3-0.7
	l-0.3-0.7l-0.3-0.7l-0.3-0.7l-0.3-0.7l-0.3-0.7l0.7-2l-0.3-0.7l-0.3-1l-0.3-0.7l-0.3-0.7l-0.3-0.7l-0.3-0.7l-0.3-0.7l-0.7-1.7
	l-0.7-1.7l0-1.7l-0.7-1.7l-0.3-1.7l-0.7-1.7l-0.7-1.7l-0.3-0.7l-0.3-0.7l-0.3-0.7l-0.3-0.7l-0.3-0.7l0.3-1l-0.3-0.7L115,256l0-1
	l-0.3-0.7l-0.3-0.7l-0.3-0.7l-0.3-0.7l-0.3-0.7l-0.3-0.7l-0.3-0.7l-0.3-0.7l0.3-1.3v-0.3v-0.3v-0.3v-0.3v-0.3v-0.3v-0.3v-0.3v-0.3
	v-0.3v-0.3v-0.3v-0.3v-0.3v-0.3v-0.3v-0.3v-0.3v-0.3v-0.3v-0.3v-0.3v-0.3v-0.3v-0.3v-0.3v-0.3v-0.3v-0.3v-0.3v-0.3v-0.3v-0.3v-0.3
	v-0.3v-0.3v-0.3v-0.3v-0.3v-0.3v-0.3v-0.3v-0.3v-0.3v-0.3v-0.3v-0.3v-0.3v-0.3v-0.3v-0.3v-0.3v-0.7v-0.7v-0.7v-0.7v-0.7v-0.7v-0.7
	v-0.7v-0.7v-0.7v-0.7v-0.7v-0.7v-0.7v-0.7v-0.7v-0.7v-0.7v-0.7v-0.7v-0.7v-0.7v-0.7v-0.7v-0.7v-0.7v-0.7v-0.7v-0.7v-0.7V210v-0.7
	v-0.7V208v-0.7v-0.7V206v-0.7v-0.7V204v-0.7v-0.7V202v-0.7v-0.7V200v-0.7v-0.7V198v-0.7v-0.7V196v-0.7v-0.7v-0.7v-0.7v-0.7v-0.7
	v-0.7v-0.7v-0.7v-0.7v-0.7v-0.3v-0.3v-0.3v-0.3v-0.3v-0.3v-0.3v-0.3v-0.3v-0.3v-0.3v-0.3v-0.3v-0.3v-0.3v-0.3v-0.3v-0.3v-0.3v-0.3
	v-0.3v-0.3v-0.3v-0.3v-0.3v-0.3v-0.3v-0.3v-0.3v-0.3v-0.3v-0.3v-0.3v-0.3v-0.3v-0.3v-0.3v-0.3v-0.3v-0.3v-0.3v-0.3v-0.3v-0.3v-0.3
	v-0.3v-0.3v-0.3v-0.3v-0.3v-0.3v-0.3v-0.3v-0.3v-0.3v-0.3v-0.3v-0.3v-0.3v-0.3v-0.3v-0.3v-0.3v-0.3v-0.3v-0.3v-0.3v-0.3v-0.3v-0.3
	v-0.3v-0.3v-0.3v-0.3v-0.3v-0.3v-0.3v-0.3v-0.3v-0.3v-0.3v-0.3v-0.3v-0.3v-0.3v-0.3v-0.3v-0.3v-0.3v-0.3v-0.3v-0.3v-0.3v-0.3v-0.3
	v-0.3v-0.3v-0.3v-0.3v-0.3v-0.3v-0.3V154v-0.3v-0.3V153v-0.3v-0.3V152v-0.3v-0.3V151v-0.3v-0.3V150v-0.3v-0.3V149v-0.3v-0.3V148
	v-0.3v-0.3V147v-0.3v-0.3V146v-0.3v-0.3V145v-0.3v-0.3V144v-0.3v-0.3V143v-0.3v-0.3V142v-0.3v-0.3V141v-0.3v-0.3V140v-0.3v-0.3V139
	v-0.3v-0.3v-0.3v-0.3v-0.3v-0.3v-0.3v-0.3v-0.3v-0.3v-0.3v-0.3v-0.3v-0.3v-0.3v-0.3v-0.3v-0.3v-0.3v-0.3v-0.3v-0.3v-0.3v-0.3v-0.3
	v-0.3v-0.3v-0.3v-0.3v-0.3v-0.3l0.3-0.3v-0.3l0.3-0.3l0.3-0.3l0.3-0.3l0.3-0.3l0.3-0.3l0.3-0.3l0.3-0.3l0.3-0.3l0.3-0.3l0.3-0.3
	l0.3-0.3l0.3-0.3l0.3-0.3l0.3-0.3l0.3-0.3l0.3-0.3l0.3-0.3l0.3-0.3l0.3-0.3l0.3-0.3l0.3-0.3l0.3-0.3l0.3-0.3l0.3-0.3l0.3-0.3
	l0.3-0.3l0.3-0.3l0.3-0.3l0.3-0.3l0.3-0.3l0.3-0.3l5.7-10.1l0.3-0.3l0.3-0.3l0.3-0.3l0.3-0.3l0.3-0.3l0.3-0.3l0.3-0.3l0.3-0.3
	l0.3-0.3l0.3-0.3l0.3-0.3l0.3-0.3l0.3-0.3l0.3-0.3l0.3-0.3l0.3-0.3l0.3-0.3l0.3-0.3l0.3-0.3l0.3-0.3l0.3-0.3l0.3-0.3l0.3-0.3
	l0.3-0.3l0.3-0.3l0.3-0.3l0.3-0.3l0.3-0.3l0.3-0.3l0.3-0.3l0.3-0.3l-3.7,0.3l0.3-0.3l0.3-0.3l0.3-0.3l0.3-0.3l0.3-0.3l0.3-0.3
	l0.3-0.3l0.3-0.3l0.3-0.3l0.3-0.3l-0.7,0l0.3-0.3l0.3-0.3l0,0l0.3-0.3l0.3-0.3l0.3-0.3l0.3-0.3l0.3-0.3l0.3-0.3l0.3-0.3l-0.3-0.3
	h0.3l0.3-0.3l0.3-0.3l0.3-0.3l0-0.3l0.3-0.3l0.3-0.3l0.3-0.3l0.3-0.3l0.3-0.3l0.3-0.3l-0.3,0l0.3-0.3l0.3-0.3l0.3-0.3l0.3-0.3
	l0.3-0.3h0l0.3-0.3l0.3-0.3l0.3-0.3l0.3-0.3l0.3-0.3h0l0.3-0.3l0.3-0.3l0.3-0.3l0.3-0.3l0.3-0.3h0l0.3-0.3l0.3-0.3l0.3-0.3l0.3-0.3
	l0.3-0.3h0l0.3-0.3l0.3-0.3l0.3-0.3l0.3-0.3h0.3l0.3-0.3l0.3-0.3l0.3-0.3l0.3-0.3l0.3-0.3l0.3-0.3l0.3-0.3l0,0.3l0.3-0.3l0.3-0.3
	h0.3v-0.3l0.3-0.3l0.3-0.3l0.3-0.3l0.3-0.3l0.3-0.3l0.3-0.3l0.3-0.3l0.3-0.3l0.3,0.3l0.3-0.3l0.3-0.3l0.3-0.3l0.3-0.3l0.3-0.3
	l0.3-0.3l0.3-0.3l0.3-0.3l0.3-0.3l0.3-0.3l0.3,0.7l0.3-0.3l0.3-0.3h0.3l0.3-0.3l0.3-0.3l0.3-0.3l0.3-0.3l0.3-0.3l0.3-0.3l0.3,0.3
	l0.3-0.3l0.3-0.3l0.3-0.3l0.3-0.3l0.3-0.3l0.3-0.3l0.3,0.3l0.3-0.3l0.3-0.3h0.3l0.3-0.3l0.3-0.3l0.3-0.3l0.3-0.3l0.3-0.3l0.3-0.3
	l0.3-0.3l0.3-0.3l0.7,0.7l0.3-0.3l0.3-0.3h0.3l0.3-0.3l0.3-0.3l0.3-0.3l0.3-0.3l0.3-0.3l0.7,0.3l0.3-0.3l0.3-0.3l0.3-0.3l0.3-0.3
	l0.3-0.3l0.3-0.3l0.3-0.3l0.3-0.3l1,0.7l1-0.3l1-0.3l1-0.3l1-0.3l1-0.3l1-0.3l0-1.3l1-0.3l1-0.3l1-0.3l1-0.3l1-0.3l0.3-0.3l0.3-0.3
	l0.3-0.3l0.3-0.3l0.3-0.3h0.3l0.3-0.3l0.3-0.3l0.3-0.3l0.3-0.3l0.3-0.3l0.3-0.3l0.3-0.3l1,0.7l0.3-0.3l0.3-0.3l0.3-0.3l0.3-0.3
	l0.3-0.3l0.3-0.3l0.3-0.3l1.3,0.7h0.3l0.3-0.3l0.3-0.3l0.3-0.3l0.3-0.3l0.3-0.3l1,0.3l0.3-0.3l0.3-0.3l0.3-0.3l0.3-0.3l0.3-0.3
	l0.3-0.3l0.3-0.3l0.3-0.3l0.3-0.3l1.3,1h0.7l0.3-0.3l0.3-0.3l0.3-0.3l0.7,0.3l0.3-0.3l0.3-0.3l0.3-0.3l0.3-0.3l0.3-0.3l0.3-0.3
	l1.3,0.7l0.3-0.3l0.3-0.3l0.3-0.3l0.3-0.3h0.3h0.3h0.3h0.3h0.3h0.3h0.3h0.3h0.3h0.3h0.3h0.3h0.3h0.3h0.3h0.3h0.3h0.3h0.3h0.3h0.3
	h0.3h0.3h0.3h0.3h0.3h0.3h0.3h0.3h0.3h0.3h0.3h0.3h0.3h0.3h0.3h0.3h0.3h0.3h0.3h0.3h0.3h0.3h0.3h0.3h0.3h0.3h0.3h0.3h0.3h0.3h0.3
	h0.3h0.3h0.3h0.3h0.3h0.3h0.3h0.3h0.3h0.3h0.3h0.3h0.3l7-6.7l0,0h0.3h0.3h0.3h0.3h0.3h0.3h0.3h0.3h0.3h0.3h0.3h0.3h0.3h0.3h0.3h0.3
	h0.3h0.3h0.3h0.3h0.3h0.3h0.3h0.3h0.3h0.3h0.3h0.3h0.3h0.3h0.3h0.3h0.3h0.3h0.3h0.3h0.3h0.3h0.3h0.3h0.3h0.3h0.3h0.3h0.3h0.3h0.3
	h0.3h0.3h0.3h0.3h0.3h0.3h0.3h0.3h0.3h0.3h0.3h0.3h0.3h0.3L263.2,35.7L263.2,35.7z M262.5,45.7L262.5,45.7h-0.7h-0.3h-0.3h-0.3h-0.3
	h-0.3h-0.3h-0.3h-0.3h-0.3h-0.3h-0.3h-0.3h-0.3h-0.3h-0.3h-0.3h-0.3h-0.3h-0.3h-0.3h-0.3h-0.3h-0.3h-0.3h-0.3h-0.3h-0.3h-0.3h-0.3
	h-0.3h-0.3h-0.3h-0.3h-0.3h-0.3h-0.3h-0.3h-0.3h-0.3h-0.3h-0.3h-0.3h-0.3h-0.3h-0.3h-0.3h-0.3h-0.3h-0.3h-0.3h-0.3h-0.3h-0.3h-0.3
	h-0.3h-0.3h-0.3h-0.3H242h-0.3h-0.3H241h-0.3l2.3,1.3h-0.3h-0.3H242h-0.3h-0.3H241h-0.3h-0.3H240h-0.3h-0.3H239h-0.3h-0.3H238h-0.3
	h-0.3H237h-0.3h-0.3H236h-0.3h-0.3H235h-0.3h-0.3H234h-0.3h-0.3H233h-0.3h-0.3H232h-0.3h-0.3H231h-0.3h-0.3H230h-0.3h-0.3H229h-0.3
	h-0.3H228h-0.3h-0.3H227h-0.3h-0.3H226h-0.3h-0.3h-0.3h-0.3h-0.3h-0.3h-0.3h-0.3h-0.3h-0.3h-0.3h-0.3h-0.3h-0.3h-0.3h-0.3h-0.3h-0.3
	h-0.3l-0.3,0.3l-0.3,0.3l-0.3,0.3l-5.7,7.7l-0.3,0.3l-0.3,0.3l-0.3,0.3l-0.3,0.3l-0.3,0.3l-0.3,0.3l-1-0.7h-0.3l-0.3,0.3l-0.3,0.3
	l-0.3,0.3l-0.3,0.3l-0.3,0.3l-0.3,0.3l-0.3,0.3l-0.3,0.3l-0.3,0.3l-0.3,0.3l-0.3,0.3l-0.3,0.3l-0.3,0.3l-0.3,0.3l-0.3,0.3l-0.3,0.3
	l-2-2h-0.3l-0.3,0.3l-0.3,0.3l-0.3,0.3l-0.3,0.3l-1-0.3l-0.3,0.3l-0.3,0.3l-0.3,0.3l-0.3,0.3l-0.3,0.3l-0.3,0.3l-0.3,0.3l-1-0.7
	l-0.3,0.3l-0.3,0.3h-0.3l-0.3,0.3l-1,0.3l-1,0.3l-1,0.3l-1,0.3l-1,0.3l-0.3,0.7l-0.7,0.7l-1,0.3l-1,0.3l-0.7,0.7l-1,0.3l-1,0.3
	l-1,0.3l-0.3,0.3l-0.3,0.3l-0.3,0.3h0l-0.3,0.3l-0.3,0.3l-0.3,0.3l-0.3,0.3l-0.3,0.3l-0.3,0.3l-0.3,0.3l-0.3-0.7l-0.3,0.3l-0.3,0.3
	l-0.3,0.3l-0.3,0.3l-0.3,0.3l-0.3,0.3l-0.3,0.3l-0.3,0.3l-0.3-1l-0.3,0.3l-0.3,0.3l-0.3,0.3l-0.3,0.3l-0.3,0.3l-0.3,0.3l-0.3,0.3
	l-0.3,0.3l-0.3,0.3l-0.3,0.3l-0.3-1l-0.3,0.3l-0.3,0.3l-0.3,0.3h0h-0.3l-0.3,0.3l-0.3,0.3l-0.3,0.3l-0.3,0.3l-0.3,0.3l-0.3-0.3
	l-0.3,0.3l-0.3,0.3l-0.3,0.3l-0.3,0.3l-0.3,0.3l-0.3,0.3l-0.3,0.3l-0.3,0.3l0-0.7l-0.3,0.3h-0.3l-0.3,0.3l-0.3,0.3l-0.3,0.3
	l-0.3,0.3l-0.3,0.3l-0.3,0.3l-0.3,0.3l-0.3,0.3l-0.3,0.3l-0.3,0.3l-0.3,0.3l0.3-0.7l-0.3,0.3l-0.3,0.3l-0.3,0.3l-0.3,0.3l-0.3,0.3
	l-0.3,0.3l-0.3,0.3l-0.3,0.3l-0.3,0.3l-0.3,0.3l-0.3,0.3l0.3-1l-0.3,0.3l-0.3,0.3l-0.3,0.3l-0.3,0.3l-0.3,0.3l-0.3,0.3l-0.3,0.3
	l-0.3,0.3l-0.3,0.3l-0.3,0.3l-0.3,0.3l0.3-0.7l-0.3,0.3l-0.3,0.3l0,0.3h-0.3l-0.3,0.3l-0.3,0.3l-0.3,0.3l-0.3,0.3l-0.3,0.3l-0.3,0.3
	l-0.3,0.3l-0.3,0.3l0.3-0.3v0.3l-0.3,0.3l-0.3,0.3l-0.3,0.3l-0.3,0.3l-0.3,0.3l-0.3,0.3l-0.3,0.3l-0.3,0.3l-0.3,0.3l-0.3,0.3
	l-0.3,0.3l-0.3,0.3l0.7-0.7V97l-0.3,0.3l-0.3,0.3l-0.3,0.3l-0.3,0.3l-0.3,0.3l-0.3,0.3l-0.3,0.3l-0.3,0.3l-0.3,0.3l-0.3,0.3
	l-0.3,0.3l-0.3,0.3l1-0.3l-0.3,0.3l-0.3,0.3l-0.3,0.3l-0.3,0.3l-0.3,0.3l-0.3,0.3l-0.3,0.3l-0.3,0.3l-0.3,0.3l-0.3,0.3l-0.3,0.3
	l1-0.3l-0.3,0.3l-0.3,0.3l-0.3,0.3l-0.3,0.3l0.3,0l-0.3,0.3l-0.3,0.3l-0.3,0.3l-0.3,0.3l-0.3,0.3l-0.3,0.3l0.7,0l-0.3,0.3l-0.3,0.3
	l-0.3,0.3l-0.3,0.3l-0.3,0.3l-0.3,0.3l-0.3,0.3l-0.3,0.3l-0.3,0.3l1,0l-0.3,0.3l-0.3,0.3l-0.3,0.3l-0.3,0.3l-0.3,0.3l-0.3,0.3
	l-0.3,0.3l-0.3,0.3l-0.3,0.3l-0.3,0.3l-0.3,0.3l1.3,0l0,0l-0.3,0.3l-0.3,0.3l-0.3,0.3l-0.3,0.3l0.3,0.3v0.3l-0.3,0.3l-0.3,0.3
	l-0.3,0.3l0.3,0.3h-0.3l-0.3,0.3v0.3l-0.3,0.3v0.3v0.3v0.3v0.3v0.3v0.3v0.3v0.3v0.3v0.3v0.3v0.3v0.3v0.3v0.3v0.3v0.3v0.3v0.3v0.3
	v0.3v0.3v0.3v0.3v0.3v0.3v0.3v0.3v0.3v0.3v0.3v0.3v0.3v0.3v0.3v0.3v0.3v0.3v0.3v0.3v0.3v0.3v0.3v0.3v0.3v0.3v0.3v0.3v0.3v0.3v0.3
	v0.3v0.3v0.3v0.3v0.3v0.3v0.3v0.3v0.3v0.3v0.3v0.3v0.3v0.3v0.3v0.3v0.3v0.3v0.3v0.3v0.3v0.3v0.3v0.3v0.3v0.3v0.3v0.3v0.3v0.3v0.3
	v0.3v0.3v0.3v0.3v0.3v0.3v0.3v0.3v0.3v0.3v0.3v0.3v0.3v0.3v0.3v0.3v0.3v0.3v0.3v0.3v0.3v0.3v0.3v0.3v0.3v0.3v0.3v0.3v0.3v0.3v0.3
	v0.3v0.3v0.3v0.3v0.3v0.3v0.3v0.3v0.3v0.3v0.3v0.3v0.3v0.3v0.3v0.3v0.3v0.3v0.3v0.3v0.3v0.3v0.3v0.3v0.3v0.3v0.3v0.3v0.3v0.3v0.3
	v0.3v0.3v0.3v0.3v0.3v0.3v0.3v0.3v0.3v0.3v0.3v0.3v0.3v0.3v0.3v0.3v0.3v0.3v0.3v0.3v0.3v0.3v0.3v0.3v0.3v0.3v0.3v0.3v0.3v0.3v0.3
	v0.3v0.3v0.3v0.3v0.3v0.3v0.3v0.3v0.3v0.3v0.3v0.3v0.3v0.3v0.3v0.3v0.3v0.3v0.3v0.7v0.7v0.7v0.7v0.7v0.7v0.7v0.7v0.7v0.7v0.7v0.7
	v0.7v0.7v0.7v0.7v0.7v0.7v0.7v0.7v0.7v0.7v0.7v0.7v0.7v0.7v0.7v0.7v0.7v0.7v0.7v0.7v0.7v0.7v0.7v0.7v0.7v0.7v0.7v0.7v0.7v0.7v0.7
	v0.7v0.7v0.7v0.7v0.7v0.7v0.7v0.7v0.7v0.7v0.7v0.7v0.7v0.7v0.7v0.7v0.7v0.7v0.7v0.7v0.3v0.3v0.3v0.3v0.3v0.3v0.3v0.3v0.3v0.3v0.3
	v0.3v0.3v0.3v0.3v0.3v0.3v0.3v0.3v0.3v0.3v0.3v0.3v0.3v0.3v0.3v0.3v0.3v0.3v0.3v0.3v0.3v0.3v0.3v0.3v0.3v0.3v0.3v0.3v0.3v0.3v0.3
	v0.3v0.3v0.3v0.3v0.3v0.3v0.3v0.3v0.3v0.3l0.3,0.7l0.3,0.7l0.3,0.7l0.3,0.7l0.3,0.7l0.3,0.7l0.3,0.7l0.3,0.7l0.3,0.7l0.3,0.7
	l0.3,0.7l0.3,0.7l0.3,0.7l0.3,0.7l0.3,0.7l0.3,0.7l0.3,0.7l0.3,0.7l0.7,1.7l0.7,1.7l0.7,1.7l0.7,1.7l0.7,1.7l0.7,1.7l0.7,1.7
	l0.3,0.7l0.3,0.7l0.3,0.7l0.3,0.7l0.3,0.7l0.3,0.7l0.3,0.7l0.3,0.7l0.3,0.7l0.3,0.7l0.3,0.7l0.3,0.7l0.3,0.7l0.3,0.7l0.3,0.7
	l0.3,0.7l0.3,0.7l0.3,0.7l0.3,0.7l0.3,0.7v0.3v0.3v0.3v0.3v0.3v0.3v0.3v0.3v0.3v0.3v0.3v0.3v0.3v0.3v0.3v0.3v0.3v0.3v0.3v0.3v0.3
	v0.3v0.3v0.3v0.3v0.3v0.3v0.3v0.3v0.3v0.3v0.3v0.3v0.3v0.3v0.3v0.3v0.3v0.3v0.3v0.3v0.3v0.3v0.3v0.3v0.3v0.3v0.3v0.3v0.3v0.3v0.3
	v0.3v0.3v0.3v0.3v0.3v0.3v0.3v0.3v0.3v0.3v0.3v0.3v0.3v0.3v0.3v0.3v0.3v0.3v0.3v0.3v0.3v0.3v0.3v0.3v0.3v0.3v0.3v0.3v0.3v0.3v0.3
	v0.3v0.3v0.3v0.3v0.3v0.3v0.3v0.3v0.3v0.3v0.3v0.3v0.3v0.3v0.3v0.3v0.3v1.3v1.3v1.3v1.3v1.3v1.3v1.3v1.3v1.3v1.3v1.3v1.3v0.7v0.7
	v0.7v0.7v0.7v0.7v0.7v0.7v0.7v0.7v0.7v0.7v0.7v0.7v0.7v0.7v0.7v0.7v0.7v0.7v0.7v0.7v0.7v0.7v0.7v0.7v0.7v0.7v0.7v0.7v0.7v0.7v0.7
	v0.7v0.7v0.7v0.7v0.7v0.7v0.7v0.7v0.7v0.7v0.7v0.7v0.7v0.3v0.3v0.3v0.3v0.3v0.3v0.3v0.3v0.3v0.3v0.3v0.3v0.3v0.3v0.3v0.3v0.3v5.7
	v0.3v0.3v0.3v0.3v0.3v0.3v0.3v0.3v0.3v0.3v0.3v0.3v0.3v0.3v0.3v0.3v0.3v0.3v0.3v0.3v0.3v0.3v0.3v0.3v0.3v0.3v0.3v0.3v0.3v0.3v0.3
	v0.3v0.3v0.3v0.3v0.3v0.3v0.3v0.3v0.3v0.3v0.3v0.3v0.3v0.3v0.3v0.3v0.3v0.3v0.3v0.3v0.3v0.3v0.3v0.3v0.3v0.3v0.3v0.3v0.3v0.3v0.3
	v0.3v0.3v0.3v0.3v0.3v0.3v0.3v0.3v0.3v0.3v0.3v0.3v0.3v0.3v0.3v0.3v0.3v0.3v0.3v0.3v0.3v0.3v0.3v0.3v0.3v0.3v0.3v0.3v0.3v0.3v0.3
	v0.3v0.3v0.3v0.3v0.3v0.3v0.3v0.3v0.3v0.3v0.3v0.3v0.3v0.3v0.3v0.3v0.3v0.3v0.3v0.3v0.3v0.3v0.3v0.3v0.3v0.3v0.3v0.3v0.3v0.3v0.3
	v0.3v0.3v0.3v0.3v0.3v0.3v0.3v0.3v0.3v0.3v0.3v0.3v0.3v0.3v0.3v0.3v0.3v0.3v0.3v0.3v0.3l-2.3,11.7v0.3l0.3,0.3l0.3,0.3l0.3,0.3
	l0.3,0.3l0.3,0.3l0.3,0.3l0.3,0.3l0.3,0.3l0.3,0.3l0.3,0.3l0.3,0.3l0.3,0.3l0.3,0.3l0.3,0.3l0.3,0.3l0.3,0.3l0.3,0.3l0.3,0.3
	l0.3,0.3l0.3,0.3l0.3,0.3l0,0l0,0l0,0l0,0l0,0l0,0l0,0l0,0l0,0l0,0l0,0l0,0l0,0l0,0l0,0l0,0l0,0l0,0l0,0l0,0l0,0l0,0l0,0l0,0l0,0
	l0,0l0,0l0,0l0,0l0,0l0,0l0,0l0,0l0,0l0,0l0,0l0,0l0,0l0,0l0,0l0,0l0,0l0,0l0,0l0,0l0,0l0,0l0,0l0,0l0,0l0,0l0,0l0,0l0,0l0,0l0,0
	l0,0l0,0l0,0l0,0l0,0l0,0l0,0l0,0l0,0l0,0l0,0l0,0l0,0l0,0l0,0l0,0l0,0l0,0l0,0l0,0l0,0l0,0l0,0l0,0l0,0l0,0l0,0l0,0l0,0l0,0l0,0
	l0,0l0,0l0,0l0,0l0,0l0,0l0,0l0,0l0,0l0,0l0,0l0,0l0,0l0,0l0,0l0,0l0,0h0.3h0.3l0,0h0.3h0.3h0.3h0.3h0.3h0.3h0.3h0.3h0.3h0.3h0.3
	h0.3h0.3h0.3h0.3h0.3h0.3h0.3h0.3h0.3h0.3h0.3h0.3h0.3h0.3h0.3h0.3h0.3h0.3h0.3h0.3h0.3h0.3h0.3h0.3h0.3h0.3h0.3h0.3h0.3h0.3h0.3
	h0.3h0.3h0.3h0.3h0.3h0.3h0.3h0.3h0.3h0.3h0.3h0.3h0.3h0.3h0.3l0.3,0.3l0.3,0.3l0.3,0.3l0.3,0.3l0.3,0.3l0.3,0.3l0.3,0.3l0.3,0.3
	l0.3,0.3l0.3,0.3l0.3,0.3l0.3,0.3l0.3,0.3l0.3,0.3l0.3,0.3l0.3,0.3l0.3,0.3l0.3,0.3l0.3,0.3l0.3,0.3l0.3,0.3l0.3,0.3l0.3,0.3
	l0.3,0.3l0.3,0.3l0.3,0.3l0.3,0.3l0.3,0.3l0.3,0.3l0.7,0.3l0.7,0.3l0.7,0.3l0.7,0.3l0.7,0.3l0.7,0.3l0.7,0.3l0.7,0.3l0.7,0.3
	l0.7,0.3l0.7,0.3l0.7,0.3l0.7,0.3l0.7,0.3l0.7,0.3l0.7,0.3l0.7,0.3l0.7,0.3l0.7,0.3l0.7,0.3l0.7,0.3l0.7,0.3l0.7,0.3l0.7,0.3
	l0.7,0.3l0.7,0.3l0.7,0.3l0.7,0.3l0.7,0.3l0.7,0.3l0.7,0.3l0.7,0.3l0.7,0.3l0.7,0.3l0.7,0.3h0.7h0.7h0.7h0.7h0.7h0.7h0.7h0.7h0.7
	h0.7h0.7h0.7h0.7h0.7h0.7h0.7h0.7h0.7h0.7h0.7h0.7h0.7h0.7h0.7h0.7h0.7h0.7h0.7h0.7h0.7h0.7h0.7h0.7h0.7h0.7h0.7h0.7h0.7h0.7h0.7
	h0.7h0.7h0.7h0.7h0.7h0.7h0.7h0.7h0.7h0.7h0.7h0.7h0.7h0.7h0.7h0.7h0.7h0.7h0.7h0.7h0.7h0.7h0.7h0.7h0.7h0.7h0.7h0.7h0.7h0.7h0.7
	h0.7h0.7h0.7h0.7h0.7h0.7h0.7h0.7h0.7h0.7h0.7h0.7h0.7h0.7h0.7h0.7h0.7h0.7h0.7h0.7h0.7h0.7h0.7h0.7h0.7h0.7h0.7h0.7h0.7h0.7h0.7
	h0.7h0.7h0.7h0.3h0.3h0.3h0.3h0.3h0.3h0.3h0.3h0.3h0.3h0.3h0.3h0.3h0.3h0.3h0.3h0.3h0.3h0.3h0.3h0.3h0.3h0.3h0.3h0.3h0.3h0.7h0.7
	h0.7h0.7h0.7h0.7h0.7h0.3h0.3h0.3h0.3h0.3h0.3h0.3h0.3h0.3h0.3h0.3h0.3h0.3h0.3h0.3h0.3h0.3h0.3h0.3h0.3h0.3h0.3h0.3h0.3h0.3h0.3
	h0.3h0.3h0.3h0.3h0.3h0.3h0.3h0.3h0.3h0.3h0.3h0.3h0.3h0.3h0.3h0.3h0.3h0.3h0.3h0.3h0.3h0.3h0.3h0.3h0.3h0.3h0.3h0.3h0.3h0.3h0.3
	h0.3h0.3h0.3h0.3h0.3h0.3h0.3h0.3h0.3l0.3-0.3l0.3-0.3l0.3-0.3l0.3-0.3l0.3-0.3l0.3-0.3l0.3-0.3l0.3-0.3l0.3-0.3l0.3-0.3l0.3-0.3
	l0.3-0.3l0.3-0.3l0.3-0.3l0.3-0.3l0.3-0.3l0.3-0.3l0.3-0.3l0.3-0.3l0.3-0.3l0.3-0.3l0.3-0.3l0.3-0.3l0.3-0.3l0.3-0.3l0.3-0.3
	l0.3-0.3l0.3-0.3l0.3-0.3l0.3-0.3l0.3-0.3l0.3-0.3l0.3-0.3l0.3-0.3l0.3-0.3l0.3-0.3l0.3-0.3l0.3-0.3l0.3-0.3l0.3-0.3l0.3-0.3
	l0.3-0.3l0.3-0.3l0.3-0.3l0.3-0.3l0.3-0.3l0.3-0.3l0.3-0.3l0.3-0.3l0.3-0.3l0.3-0.3l0.3-0.3l0.3-0.3l0.3-0.3l0.3-0.3l0.3-0.3
	l0.3-0.3l0.3-0.3l0.3-0.3l0.3-0.3h0.3h0.3h0.3h0.3h0.3h0.3h0.3h0.3h0.3h0.3h0.3h0.3h0.3h0.3h0.3h0.3h0.3h0.3h0.3h0.3h0.3h0.3h0.3
	h0.3h0.3h0.3h0.3h0.3h0.3h0.3h0.3h0.3l0.3-0.3h0.3h0.3l0.3-0.3l0.3-0.3l0.3-0.3l0.3-0.3l0.3-0.3l0.3-0.3l0.3-0.3l0.3-0.3l0.3-0.3
	l0.3-0.3l0.3-0.3l0.3-0.3l0.3-0.3l0.3-0.3l0.3-0.3l0.3-0.3l0.3-0.3l0.3-0.3l0.3-0.3l0.3-0.3l0.3-0.3l0.3-0.3l0.3-0.3l0.3-0.3
	l0.3-0.3l0.3-0.3l0.3-0.3l0.3-0.3l0.3-0.3l0.3-0.3l0.3-0.3l0.3-0.3l0.3-0.3l0.3-0.3l0.3-0.3l0.3-0.3l0.3-0.3l0.3-0.3l0.3-0.3
	l0.3-0.3l0.3-0.3l0.3-0.3l0.3-0.3l0.3-0.3l0.3-0.3l0.3-0.3l0.3-0.3l0.3-0.3l0.3-0.3l0.3-0.3l0.3-0.3l0.3-0.3l0.3-0.3l0.3-0.3
	l0.3-0.3l0.3-0.3l0.3-0.3l0.3-0.3l0.3-0.3l0.3-0.3l0.3-0.3l0.3-0.3l0.3-0.3l0.3-0.3l0.3-0.3l0.3-0.3l0.3-0.3l0.3-0.3l0.3-0.3
	l0.3-0.3l0.3-0.3l0.3-0.3l0.3-0.3l0.3-0.3l0.3-0.3l0.3-0.3l0.3-0.3v-0.3v-0.3l0.3-0.3v-0.3v-0.3v-0.3v-0.3v-0.3v-0.3v-0.3v-0.3v-0.3
	v-0.3v-0.3v-0.3v-0.3v-0.3v-0.3v-0.3v-0.3v-0.3v-0.3v-0.3v-0.3v-0.3v-0.3v-0.3v-0.3v-0.3v-0.3v-0.3v-0.3v-0.3v-0.3v-0.3v-0.3v-0.3
	v-0.3v-0.3v-0.3v-0.3v-0.3v-0.3v-0.3v-0.3v-0.3v-0.3v-0.3v-0.3v-0.3v-0.3v-0.3v-0.3v-0.3v-0.3v-0.3l0,0l0,0v-0.3v-0.3v-0.3v-0.3
	l0.3-0.3l0.3-0.3l0.3-0.3v-0.3v-0.3v-0.3v-0.3v-0.3v-0.3v-0.3v-0.3v-0.3v-0.3v-0.3l0.3-0.3l0.3-0.3l0.3-0.3l0.3-0.3l0.3-0.3l0.3-0.3
	l0.3-0.3l0.3-0.3l0.3-0.3l0.3-0.3l0.3-0.3l0.3-0.3l0.3-0.3l0.3-0.7l0.3-0.7l0.3-0.7l0.3-0.7l0.3-0.7l0.3-0.7l0.3-0.7l0.3-0.7
	l0.3-0.7l0.3-0.7l0.3-0.7l0.3-0.7l0.3-0.7l0.3-0.7l0.3-0.7l0.3-0.7l0.3-0.7l0.3-0.7l0.3-0.7l0.3-0.7v-0.3V372v-0.3v-0.3V371v-0.3
	v-0.3V370v-0.3v-0.3V369v-0.3v-0.3V368v-0.3v-0.3V367v-0.3v-0.3V366v-0.3v-0.3V365v-0.3v-0.3V364v-0.3v-0.3V363v-0.3v-0.3V362v-0.3
	v-0.3v-0.3v-0.3v-0.3v-0.3v-0.3v-0.3v-0.3v-0.3v-0.3v-0.3v-0.3v-0.3v-0.3v-0.3v-0.3v-0.3v-0.3v-0.3v-0.3v-0.3v-0.3v-0.3v-0.3v-0.3
	v-0.3v-0.3v-0.3v-0.3v-0.3v-0.3v-0.3v-0.3v-0.3v-0.3v-0.3v-0.3v-0.3v-0.3v-0.3v-0.3v-0.3v-0.3v-0.3v-0.3v-0.3v-0.3v-0.3v-0.3v-0.3
	v-0.3v-0.3v-0.3v-0.3v-0.3v-0.3v-0.3v-0.3v-0.3v-0.3v-0.3v-0.3v-0.3v-0.3v-0.3v-0.3v-0.3v-0.3v-0.3v-0.3v-0.3v-0.3v-0.3v28.5v-0.3
	V365v-0.3v-0.3V364v-0.3v-0.3V363v-0.3v-0.3V362v-0.3v-0.3v-0.3v-0.3v-0.3v-0.3v-0.3v-0.3v-0.3v-0.3v-0.7v-0.7v-0.7v-0.7v-0.7v-0.7
	v-0.7v-0.7v-0.7v-0.7v-0.7v-0.7v-0.7v-0.7v-0.7v-0.7v-0.7v-0.7v-0.7v-0.7v-0.7v-0.7v-0.7v-0.7v-0.7v-0.7v-0.7v-0.7v-0.7v-0.7v-0.7
	v-0.7v-0.7v-0.7v-0.7v-0.7v-0.7v-0.7v-0.7v-0.7v-0.7v-0.7v-0.7v-0.7v-0.7v-0.7v-0.7v-0.7v-0.7v-0.7v-0.7v-0.7v-0.7v-0.7v-0.7V321
	v-0.7v-0.7V319v-0.7v-0.7V317v-0.7v-0.7V315v-0.7v-0.7V313v-0.7v-0.7V311v-0.7v-0.7V309v-0.7v-0.7v-0.3V307v-0.3v-0.3v5.7v-0.3v-0.3
	V311v-0.3v-0.3V310v-0.3v-0.3V309v-0.3v-0.3V308v-0.3v-1v-1v-1v-1v-1v-1v-1v-1v-1v-1v-1v-1v-1v-1v-1v-1v-1v-1v-1v-1v-1v-1v-0.7v-0.7
	v-0.7v-0.7v-0.7v-0.7v-0.7v-0.7v-0.7v-0.7v-0.7v-0.7v-0.7v-0.7v-0.7v-0.7v-0.7v-0.7v-0.7v-0.7v-0.7v-0.7v-0.7v-0.7v-0.7v-0.7v-0.7
	v-0.7V266v-0.7v-0.7V264v-0.7v-0.7V262v-0.7v-0.7V260v-0.7v-0.7V258v-0.7v-0.7V256v-0.7v-0.7V254v-0.7v-0.7V252v-0.7l0.3-1.3
	l0.3-1.3l0.3-1.3l0.3-1.3l0.3-1.3l0.3-1.3l0.3-2.3l0.3-2.3l0.3-1.3l0.3-1.3l0.3-1.3l0.3-1.3l0.3-1.3l0.3-1.3v-0.7v-0.7v-0.7v-0.7
	v-0.7v-0.7v-0.7v-0.7v-0.7v-0.7v-0.7v-0.7v-0.7v-0.7v-0.7v-0.7v-0.7v-0.7v-0.7v-0.7v-0.7v-0.7v-0.7v-0.7v-0.7v-0.7v-0.7v-0.7v-0.7
	v-0.7v-0.7V209v-0.7v-0.7V207v-0.7v-0.7V205v-0.7v-0.7V203v-0.7v-0.7V201v-0.7v-0.7V199v-0.7v-0.7V197v-0.7v-0.7V195v-0.7v-0.7v-0.7
	v-0.7v-0.3v-0.3v-0.3v-0.3v-0.3v-0.3v-0.3v-0.3v-0.3v-0.3v-0.3v-0.3v-0.3v-0.3v-0.3v-0.3v-0.3v-0.3v-0.3v-0.3v-0.3v-0.3v-0.3v-0.3
	v-0.3v-0.3v-0.3v-0.3v-0.3v-0.3v-0.3v-0.3v-0.3v-0.3v-0.3v-0.3v-0.3v-0.3v-0.3v-0.3v-0.3v-0.3v-0.3v-0.3v-0.3v-0.3v-0.3v-0.3v-0.3
	v-0.3v-0.3v-0.3v-0.3v-0.3v-0.3v-0.3v-0.3v-0.3v-0.3v-0.3v-0.3v-0.3v-0.3v-0.3v-0.3v-0.3v-0.3v-0.3v-0.3v-0.3v-0.3v-0.3v-0.3v-0.3
	v-0.3v-0.3v-0.3v-0.3v-0.3v-0.3v-0.3v-0.3v-0.3v-0.3v-0.3v-0.3v-0.3v-0.3v-0.3v-0.3v-0.3v-0.3v-0.3v-0.3v-0.7v-0.7v-0.7v-0.7v-0.7
	v-0.7v-0.7v-0.7v-0.7V154v-0.7v-0.7V152v-0.7v-0.7V150v-0.7v-0.7V148v-0.7v-0.7V146v-0.7v-0.7V144v-0.7v-0.7V142v-0.7v-0.7V140v-0.7
	v-0.7v-0.7v-0.7v-0.7v-0.7v-0.7v-0.7v-0.7v-0.7v-0.7v-0.7v-0.7v-0.7v-0.7v-0.7l-0.3-0.7l-0.3-0.7l-0.3-0.7l-0.3-0.7l-0.3-0.7
	l-0.3-0.7l-0.3-0.7l-0.3-0.7l3.4,10.4l-0.3-0.7l-0.3-0.7l-0.3-0.7l-0.3-0.7l-0.3-0.7l-0.3-0.7l-0.3-0.7l-0.3-0.7l-0.3-0.7l-0.3-0.7
	l-0.3-0.7l-0.3-0.7l-0.3-0.7l-0.3-0.7l-0.3-0.7l-0.3-0.7l-0.3-0.7l-0.3-0.7l-0.3-0.7l-0.3-0.7l-0.3-0.7l-0.3-0.7l-0.3-0.7l-0.3-0.7
	l-0.3-0.7l-0.3-0.7l-0.3-0.7l-0.3-0.7l-0.3-0.7l-0.3-0.7l-0.3-0.7l3.7,4l-0.3-0.3l-0.3-0.3l-0.3-0.3l-0.3-0.3l-0.3-0.3l-0.3-0.3
	l-0.3-0.3l-0.3-0.3l-0.3-0.3l-0.3-0.3l-0.3-0.3l-0.3-0.3l-0.3-0.3l1-2.3v-0.3v-0.3v-0.3v-0.3v-0.3v-0.3v-0.3v-0.3v-0.3v-0.3v-0.3
	v-0.3v-0.3v-0.3v-0.3v-0.3v-0.3v-0.3v-0.3v-0.3v-0.3v-0.3v-0.3v-0.3v-0.3v-0.3v-0.3v-0.3v-0.3v-0.3v-0.3v-0.3v-0.3v-0.3V99v-0.3
	v-0.3V98v-0.3v-0.3V97v-0.3v-0.3V96v-0.3v-0.3V95v-0.3v-0.3V94v-0.3v-0.3l-0.3-0.3l-0.3-0.3l-0.3-0.3l-0.3-0.3l-0.3-0.3l-0.3-0.3
	l-0.3-0.3l-0.3-0.3l-0.3-0.3l-0.3-0.3l-0.3-0.3l-0.3-0.3l-0.3-0.3l-0.3-0.3l-5.4,7l-0.3-0.3l-0.3-0.3l-0.3-0.3l-0.3-0.3l-0.3-0.3
	l-0.3-0.3l0.7,0.3l0,0l-0.3-0.3l-0.3-0.3l-0.3-0.3l-0.3-0.3l-0.3-0.3l-0.3-0.3l-0.3-0.3l-0.3-0.3l-0.3-0.3l1,0.7v-0.3l-0.3-0.3
	l-0.3-0.3l0,0h-0.3l-0.3-0.3l-0.3-0.3l-0.3-0.3l-0.3-0.3l-0.3-0.3l-0.3-0.3l-0.3-0.3l-0.3-0.3l-0.3-0.3l-0.3-0.3l-0.3-0.3l1.3,1l0,0
	l-0.3-0.3l-0.3-0.3l0,0l-0.3-0.3l-0.3-0.3l-0.3-0.3l-0.3-0.3l-0.3-0.3l-0.3-0.3l-0.3-0.3l-0.3-0.3l-0.3-0.3l-0.3-0.3l-0.3-0.3
	l-0.3-0.3l1.3,1.3l-0.3-0.3l-0.3-0.3l0,0l-0.3-0.3l-0.3-0.3l-0.3-0.3l-0.3-0.3l-0.3-0.3l-0.3-0.3l-0.3-0.3l-0.3-0.3l-0.3-0.3
	l-0.3-0.3l-0.3-0.3l1,1.3v-0.3l-0.3-0.3l-0.3-0.3l-0.3-0.3l0,0.3l-0.3-0.3l-0.3-0.3l-0.3-0.3l-0.3-0.3l-0.3-0.3l-0.3-0.3l-0.3-0.3
	l-0.3-0.3l-0.3-0.3l-0.3-0.3l1,1.3l-0.3-0.3l-0.3-0.3l-0.3-0.3l-0.3-0.3l-0.3-0.3l0.3,0.3H352l-0.3-0.3l-0.3-0.3l-0.3-0.3l-0.3-0.3
	l-0.3-0.3l-0.3-0.3l0.3,0.7v-0.3l-0.3-0.3l-0.3-0.3l-0.3-0.3l-0.3-0.3l-0.3-0.3l-0.3-0.3l-0.3-0.3l-0.3-0.3l-0.3-0.3l0.7,1.3h-0.3
	l-0.3-0.3l-0.3-0.3l0,0l-0.3-0.3l-0.3-0.3l-0.3-0.3l-0.3-0.3l-0.3-0.3l-0.3-0.3l-0.3-0.3l-0.3-0.3l-0.3-0.3l-0.3-0.3l-0.3-0.3H343
	l-0.3-0.3h-0.3l1,1.3H343h-0.3h-0.3H342h-0.3h-0.3H341h-0.3h-0.3H340h-0.3h-0.3H339h-0.3h-0.3H338h-0.3h-0.3h-0.3h-0.3h-0.3h-0.3
	h-0.3h-0.3h-0.3h-0.3h-0.3h-0.3h-0.3h-0.3h-0.3h-0.3h-0.3h-0.3h-0.3h-0.3h-0.3h-0.3h-0.3h-0.3l-0.7-0.3l3-6.4l-0.7-0.3l-0.7-0.3
	l-0.7-0.3h0l-0.7-0.3l-0.7-0.3l-0.7-0.3l-0.7-0.3l-0.7-0.3l-0.7-0.3l-0.7-0.3h0.3h-0.3l-0.7-0.3l-0.7-0.3l-0.7-0.3l-0.7-0.3
	l-0.7-0.3l-0.7-0.3l-0.7-0.3l-0.7-0.3l-0.7-0.3l0.7,0.3l-0.7-0.3l-0.7-0.3h-0.3l-0.7-0.3l-0.7-0.3l-0.3,0l-0.7-0.3l-0.7-0.3
	l-0.7-0.3l-0.7-0.3l-0.7-0.3l0,0.3l-0.7-0.3l-0.7-0.3l-0.7-0.3l-0.7-0.3l-0.7-0.3l0,0.3h-0.7l-0.7-0.3l-0.7-0.3l-0.7-0.3l-0.7-0.3
	l0,0.3l-0.7-0.3l-0.7-0.3l-0.7-0.3l-0.7-0.3l-0.7-0.3l-0.7-0.3l-0.7-0.3h-0.7h-0.7h-0.7h-0.7h-0.7H298h-0.7h-0.7H296h-0.7h-0.7H294
	h-0.7h-0.7H292h-0.7h-0.7H290h-0.7h-0.7H288h-0.7h-0.7H286h-0.7h-0.7H284h-0.7h-0.7H282h-0.7h-0.7h-0.7h-0.7h-0.7h-0.7h-0.7h-0.7
	h-0.7h-0.7h-0.7h-0.7h-0.7h-0.7h-0.7h-0.3h-0.3h-0.3h-0.3h-0.3h-0.3h-0.3h-0.3h-0.3h-0.3h-0.3h-0.3h-0.3h-0.3h-0.3h-0.3h-0.3h-0.3
	h-0.3h-0.3h-0.3h-0.3h-0.3h-0.3h-0.3h-0.3h-0.3h-0.3h-0.3h-0.3h-0.3h-0.3h-0.3h-0.3h-0.3h-0.3h-0.3h-0.3h-0.3h-0.3h-0.3h-0.3h-0.3
	h5.7h-0.3h-0.3V45.7z"/>
<path id="path17" class="st5" d="M275.2,468.3c63.7-11.1,78.8-40.6,82.5-54.3c7-25.5,10.4-74.8,4-101.3c-2-9.1-6.4-19.4-13.1-27.2
	c-15.1-16.4-83.5-18.1-109-14.1c-10.1,1.7-19.4,5-28.5,9.1c-31.9,13.4-42.6,169,17.4,184.1C244.7,468.9,265.2,469.9,275.2,468.3z"/>
<circle id="circle17" class="st5" cx="385.6" cy="192.6" r="4.4"/>
<ellipse id="circle18" transform="matrix(0.1602 -0.9871 0.9871 0.1602 -59.8449 330.9728)" class="st5" cx="164.6" cy="200.7" rx="4.4" ry="4.4"/>
<path id="path18" class="st6" d="M304.1,217.8c-2,6.4-3.4,18.4-7.4,23.8c-2,2.3-6,2.3-8.7,2.3c-15.1-0.7-13.7-16.1-15.1-29.8"/>
<path id="path19" class="st1" d="M272.9,210L272.9,210h0.3h0.3h0.3h0.3h0.3h0.3h0.3h0.3h0.3h0.3l0,0l0,0l0,0l0,0v0.3v0.3v0.3v0.3
	v0.3v0.3v0.3v0.3v0.3v0.3v0.3v0.3v0.3v0.3v0.3v0.3v0.7v0.7v0.7v0.7v0.7v1.3v0.7v0.7v0.7v0.7v0.3v0.3v0.3v0.3v0.3v0.3v0.3v0.3v0.3
	v0.3v0.3v0.3v0.3v0.3v0.3v0.3v0.3v0.3v0.3v0.3v0.3v0.3v0.3v0.3v0.3v0.3v0.3v0.3v0.3l0,0l0,0l0,0l0,0l0,0l0,0l0,0l0,0l0,0l0,0l0,0
	l0,0l0,0l0,0l0,0l0,0l0,0l0,0l0,0l0,0l0,0l0,0l0,0l0,0l0,0l0,0l0,0l0,0l0,0l0,0l0,0l0,0l0,0l0,0l0,0l0,0l0,0l0,0l0,0l0,0l0,0l0,0
	l0,0l0,0l0,0l0,0l0,0l0,0l0,0l0,0l0,0l0,0l0,0l0,0l0,0l0,0l0,0l0,0l0,0l0,0l0,0l0,0l0,0l0,0l0,0l0,0l0,0l0,0l0,0l0,0l0,0l0,0l0,0
	l0,0l0,0l0,0l0,0l0,0l0,0l0,0l0,0l0,0l0,0l0,0l0,0l0,0l0,0l0,0l0,0l0,0l0,0l0,0l0,0l0,0l0,0l0,0l0,0l0,0l0,0l0,0l0,0l0,0l0,0l0,0
	l0,0l0,0l0,0l0,0l0,0l0,0l0,0l0,0l0,0l0,0l0,0l0,0l0,0l0,0l0,0l0,0l0,0l0,0l0,0l0,0l0,0l0,0l0,0l0,0l0,0l0,0l0,0l0,0l0,0l0,0l0,0
	l0,0l0,0l0,0l0,0l0,0l0,0l0,0h0.3h0.3h0.3h0.3h0.3l0,0l0,0l0,0l0,0l0,0l0,0l0,0l0,0l0,0l0,0l0,0l0,0l0,0l0,0l0,0l0,0l0,0l0,0l0,0
	l0,0l0,0l0,0l0,0l0,0l0,0l0,0l0,0l0,0l0,0l0,0l0,0l0,0l0,0l0,0l0,0l0,0l0,0l0,0l0,0l0,0l0,0l0,0l0,0l0,0l0,0l0,0l0,0l0,0l0,0l0,0
	l0,0l0,0l0,0l0,0l0,0l0,0l0,0l0,0l0,0l0,0l0,0l0,0l0,0l0,0l0,0l0,0l0,0l0,0l0,0l0,0l0,0l0,0l0,0l0,0l0,0l0,0l0,0l0,0l0,0l0,0l0,0
	l0,0l0,0l0,0l0,0l0,0l0,0l0,0l0,0l0,0l0,0l0,0l0,0l0,0l0,0l0,0l0,0l0,0l0,0l0,0l0,0l0,0l0,0l0,0l0,0l0,0l0,0l0,0l0,0l0,0v-0.3v-0.3
	v-0.3v-0.3v-0.3v-0.3v-0.3v-0.3v-0.3v-0.3v-0.3v-0.3v-0.3v-0.3v-0.3v-0.3v-0.3v-0.3v-0.3v-0.3v-0.3v-0.3v-0.3v-0.3v-0.3v-0.3v-0.3
	v-0.3v-0.3v-0.3v-0.3v-0.3v-0.3l0.3-0.7l0.3-0.7l0.3-0.7l0.3-0.7v-0.3v-0.3v-0.3v-0.3v-0.3v-0.3v-0.3v-0.3v-0.3v-0.3v-0.3v-0.3v-0.3
	v-0.3v-0.3v-0.3v-0.3v-0.3v-0.3v-0.3l0,0v-0.3v-0.3v-0.3v-0.3v-0.3V210v-0.3l0,0l0,0l0,0h0.3h0.3h0.3h0.3h0.3h0.3h0.3h0.3h0.3h0.3
	h0.3h0.3h0.3h0.3h0.3h0.3h0.3h0.3h0.3h0.3h0.3h0.3h0.3h0.3l0,0l0,0l0,0l0,0v0.3v0.3v0.3v0.3v0.3v0.3v0.3v0.3v0.3v0.3v0.3v0.3v0.3
	v0.3v0.3v0.3v0.3l0,0l0,0l0,0l0,0l0,0l0,0l0,0l0,0l0,0l0,0v0.3v0.3v0.3v0.3v0.3v0.3v0.3v0.3v0.3v0.3v0.3l-0.3,0.7l-0.3,0.7l-0.3,0.7
	l-0.3,1v0.3v0.3v0.3v0.3v0.3v0.3v0.3v0.3v0.3v0.3v0.3v0.3v0.3v0.3v0.3v0.3v0.3v0.3v0.3v0.3v0.3v0.3v0.3v0.3v0.3v0.3v0.3v0.3v0.3v0.3
	v0.3v0.3v0.3v0.3v0.3v0.3v0.3v0.3v0.3v0.3v0.3v0.3v0.3v0.3v0.3v0.3v0.3v0.3v0.3v0.3v0.3v0.3v0.3v0.3v0.3v0.3v0.3v0.3v0.3v0.3v0.3
	v0.3v0.3v0.3v0.3v0.3l0,0l0,0l0,0l0,0l0,0l0,0l0,0l0,0l0,0l0,0l0,0l0,0l0,0l0,0l0,0l0,0l0,0l0,0l0,0l0,0l0,0l0,0l0,0l0,0l0,0l0,0
	l0,0l0,0l0,0l0,0l0,0l0,0l0,0l0,0l0,0l0,0l0,0l0,0l0,0l0,0l0,0l0,0l0,0l0,0l0,0l0,0l0,0l0,0l0,0h-0.3h-0.3H285h-0.3h-0.3H284h-0.3
	h-0.3H283h-0.3h-0.3H282h-0.3h-0.3h-0.3h-0.3h-0.3h-0.3h-0.3h-0.3h-0.3h-0.3h-0.3H290h-0.3l0,0l0,0l0,0h-0.3H289h-0.3h-0.3h-0.7
	h-0.3H287h-0.3h-0.3H286h-0.3h-0.3H285h-0.3h-0.3H284h-0.3h-0.3H283h-0.3h-0.3H282h-0.3h-0.3h-0.3h-0.3h-0.3h-0.3h-0.3h-0.3h-0.3
	h-0.3h-0.3h-0.3h-0.3h-0.3h-0.3h-0.3h-0.3h-0.3l0,0h-0.3l0,0l0,0l0,0l0,0l0,0l0,0l0,0l0,0l0,0l0,0l0,0l0,0l0,0l0,0l0,0l0,0l0,0l0,0
	l0,0l0,0l0,0l0,0l0,0l0,0l0,0l0,0l0,0l0,0l0,0l0,0l0,0l0,0l0,0l0,0l0,0l0,0l0,0l0,0l0,0l0,0l0,0l0,0l0,0l0,0l0,0l0,0l0,0l0,0l0,0
	l0,0l0,0l0,0l0,0l0,0l0,0l0,0l0,0l0,0l0,0l0,0l0,0l0,0l0,0l0,0l0,0l0,0l0,0l0,0l0,0l0,0l0,0l0,0l0,0l0,0l0,0l0,0l0,0l0,0l0,0l0,0
	l0,0l0,0l0,0l0,0l0,0l0,0l0,0l0,0l0,0l0,0l0,0l0,0l0,0l0,0l0,0l0,0l0,0l0,0l0,0l0,0l0,0l0,0l0,0l0,0l0,0v-0.3v-0.3v-0.3v-0.3v-0.3
	v-0.3v-0.3v-0.3v-0.3v-0.3v-0.3v-0.3v-0.3v-0.3v-0.3v-0.3v-0.3v-0.3v-0.3v-0.3v-0.3v-0.3v-0.3v-0.3v-0.3v-0.3v-0.3v-0.3v-0.3v-0.7
	v-0.7v-0.7v-0.7v-1.3v-0.7v-0.7v-0.7v-0.7v-0.7v-0.3v-0.3v-0.3v-0.3v-0.3v-0.3v-0.3v-0.3v-0.3v-0.3v-0.3v-0.3v-0.3v-0.3v-0.3v-0.3
	v-0.3v-0.3v-0.3v-0.3l0,0l0,0l0,0h0.3h0.3h0.3h0.3h0.3h0.3h0.3h0.3h0.3h0.3h0.3L272.9,210L272.9,210z"/>
<path id="path20" class="st1" d="M287.7,170.5c-12.4,0.7-21.8,7.7-21.5,15.4c0.3,7.7,10.7,13.7,23.1,12.7c12.4-1,21.8-7.7,21.5-15.4
	C310.1,175.5,299.7,169.5,287.7,170.5z"/>
<path id="path21" class="st1" d="M290,190.6L290,190.6h0.3h0.3h0.3l0,0l0,0l0,0l0,0l0,0l0,0l0,0l0,0l0,0l0,0l0,0l0,0l0,0l0,0l0,0
	l0,0l0,0l0,0l0,0l0,0l0,0l0,0l0,0l0,0v0.3v0.3v0.3v0.3v0.3v0.3v0.3v0.3v0.3v0.3v0.3v0.3v0.3v0.3v0.3v0.3v0.3v0.3v0.3v0.3v0.3v0.3
	v0.3v0.3v0.3v0.3v0.3v0.3v0.3v0.7v0.7v0.7v0.7v0.7v0.7v1.3v1.3v0.7v0.7v0.7v0.7v0.7v0.7v0.3v0.3v0.3v0.3v0.3v0.3v0.3v0.3v0.3v0.3
	v0.3v0.3v0.3v0.3v0.3l0,0l0,0l0,0l0,0l0,0l0,0l0,0l0,0l0,0l0,0l0,0l0,0l0,0l0,0l0,0l0,0l0,0l0,0l0,0l0,0l0,0l0,0l0,0h-0.3l0,0h-0.3
	H290h-0.3h-0.3H289h-0.3h-0.3H288h-0.3l0,0l0,0l0,0l0,0l0,0l0,0l0,0l0,0l0,0l0,0l0,0l0,0l0,0l0,0l0,0l0,0l0,0l0,0l0,0l0,0l0,0l0,0
	l0,0l0,0v-0.3v-0.3v-0.3v-0.3v-0.3v-0.3v-0.3v-0.3v-0.3v-0.3v-0.3v-0.3v-0.7v-0.7V210v-0.7v-0.7V208v-1.3v-1.3v-0.7V204v-0.7v-0.7
	V202v-0.7V201v-0.3v-0.3V200v-0.3v-0.3V199v-0.3v-0.3V198v-0.3v-0.3V197v-0.3v-0.3V196v-0.3v-0.3V195v-0.3v-0.3v-0.3v-0.3v-0.3v-0.3
	v-0.3v-0.3v-0.3v-0.3v-0.3l0,0l0,0l0,0l0,0l0,0l0,0l0,0l0,0l0,0l0,0l0,0l0,0l0,0l0,0l0,0l0,0l0,0l0,0l0,0l0,0l0,0l0,0l0,0l0,0h0.3
	h0.3h0.3h0.3L290,190.6L290,190.6z"/>
<path id="path22" class="st1" d="M255.8,197L255.8,197h0.7h0.3h0.3h0.3h0.3l0.3,0.3l0.3,0.3l0.3,0.3l0.3,0.3l0.3,0.3l0.3,0.3
	l0.3,0.3l0.3,0.3l0.3,0.3l0.3,0.3l0.3,0.3l0.3,0.3l0.3,0.3l0.3,0.3l0.3,0.3l0.3,0.3l0.3,0.3l0.3,0.3l0.3,0.3l0.3,0.3l0.3,0.3
	l0.3,0.3l0.3,0.3l0.3,0.3l0.3,0.3l0.3,0.3l0.3,0.3l0.3,0.3l0.3,0.3l0.3,0.3l0.3,0.3l0.3,0.3l0.3,0.3l0.3,0.3l0.3,0.3l0.3,0.3
	l0.3,0.3l0.3,0.3h0.3h0.3h0.3h0.3h0.3h0.3h0.3h0.3h0.3h0.3h0.3h0.3h0.3h0.3h0.3h0.3h0.3h0.3h0.3h0.3h0.3h0.3h0.3h0.3h0.3h0.3h0.3
	h0.3h0.3h0.3h0.3h0.3h0.3h0.3h0.3h0.3h0.3h0.3h0.3h0.3h0.3h0.3h0.3h0.3h0.3h0.3h0.3h0.3h0.3h0.3h0.3h0.3h0.3h0.3h0.3h0.3h0.3h0.3
	h0.3h0.3h0.3h0.3h0.3h0.3h0.3h0.3h0.3h0.3h0.3h0.3h0.3h0.3h0.3h0.3h0.3h0.3h0.3h0.3h0.3h0.3h0.3h0.3h0.3h0.3h0.3h0.3h0.3h0.3h0.3
	h0.3h0.3h0.3h0.3h0.3h0.3h0.3h0.3h0.3h0.3h0.3h0.3h0.3h0.3h0.3h0.3h0.3h0.3h0.3h0.3h0.3h0.3h0.3h0.3h0.3h0.3h0.3h0.3h0.3h0.3h0.3
	h0.3h0.3h0.3h0.3h0.3h0.3h0.3h0.3h0.3h0.3h0.3h0.3h0.3h0.3h0.3h0.3h0.3h0.3h0.3h0.3h0.3h0.3h0.3h0.3h0.3h0.3h0.3h0.3h0.3h0.3h0.3
	h0.3h0.3h0.3h0.3h0.3h0.3h0.3h0.3h0.3h0.3h0.3h0.3h0.3h0.3h0.3h0.3h0.3h0.3h0.3h0.3h0.3h0.3h0.3h0.3h0.3h0.3h0.3h0.3h0.3h0.3h0.3
	h0.3h0.3h0.3h0.3h0.3h0.3h0.3h0.3h0.3h0.3h0.3h0.3h0.3h0.3h0.3h0.3h0.3h0.3h0.3h0.3h0.3h0.3h0.3h0.3h0.3h0.3h0.3h0.3h0.3h0.3h0.3
	h0.3h0.3h0.3h0.3h0.3h0.3h0.3h0.3h0.3h0.3h0.3h0.3h0.3h0.3h0.3h0.3h0.3h0.3h0.3h0.3h0.3l0.3,0.3l0.3,0.3l0.3,0.3l0.3,0.3l0.3,0.3
	v0.3v0.3v0.3v0.3v0.3v0.3v0.3v0.3v0.3v0.3v0.3v0.3v0.3v0.3l-0.3,0.3l-0.3,0.3l-0.3,0.3l-0.3,0.3l-0.3,0.3h-0.3h-0.3H348h-0.3h-0.3
	H347h-0.3h-0.3H346h-0.3h-0.3H345h-0.3h-0.3H344h-0.3h-0.3H343h-0.3h-0.3H342h-0.3h-0.3H341h-0.3h-0.3H340h-0.3h-0.3H339h-0.3h-0.3
	H338h-0.3h-0.3h-0.3h-0.3h-0.3h-0.3h-0.3h-0.3h-0.3h-0.3h-0.3h-0.3h-0.3h-0.3h-0.3h-0.3h-0.3h-0.3h-0.3h-0.3h-0.3h-0.3h-0.3h-0.3
	h-0.3h-0.3h-0.3h-0.3h-0.3h-0.3h-0.3h-0.3h-0.3h-0.3h-0.3h-0.3h-0.3h-0.3h-0.3h-0.3h-0.3h-0.3h-0.3h-0.3h-0.3h-0.3h-0.3h-0.3h-0.3
	h-0.3h-0.3h-0.3h-0.3h-0.3h-0.3h-0.3h-0.3h-0.3h-0.3h-0.3h-0.3h-0.3h-0.3h-0.3h-0.3h-0.3h-0.3h-0.3h-0.3h-0.3h-0.3h-0.3h-0.3h-0.3
	h-0.3h-0.3h-0.3h-0.3h-0.3h-0.3h-0.3h-0.3h-0.3h-0.3h-0.3h-0.3h-0.3h-0.3h-0.3h-0.3h-0.3h-0.3h-0.3h-0.3h-0.3h-0.3h-0.3h-0.3h-0.3
	h-0.3h-0.3h-0.3h-0.3h-0.3h-0.3h-0.3h-0.3h-0.3h-0.3h-0.3h-0.3h-0.3h-0.3h-0.3h-0.3h-0.3h-0.3h-0.3H298h-0.3h-0.3H297h-0.3h-0.3H296
	h-0.3h-0.3H295h-0.3h-0.3H294h-0.3h-0.3H293h-0.3h-0.3H292h-0.3h-0.3H291l-17.8,0.3l0,0h-0.3h-0.3h-0.3h-0.3h-0.3h-0.3h-0.3h-0.3
	h-0.3h-0.3h-0.3h-0.3h-0.3h-0.3h-0.3h-0.3h-0.3h-0.3h-0.3h-0.3h-0.3h-0.3h-0.3h-0.3h-0.3h-0.3h-0.3h-0.3h-0.3h-0.3h-0.3h-0.3
	l-0.3-0.3h-0.3l-0.3-0.3l-0.3-0.3l-0.3-0.3l-0.3-0.3l2.7-4l-0.3-0.3l-0.3-0.3l-0.3-0.3l0,0h-0.3l-0.3-0.3l-0.3-0.3l-0.3-0.3
	l-0.3-0.3l-0.3-0.3l-0.3-0.3l-0.3-0.3l0.3,0.7l0,0l-0.3-0.3l-0.3-0.3l-0.3-0.3l-0.3-0.3l-0.3-0.3l-0.3-0.3l-0.3-0.3l0.3,0.7
	l-0.3-0.3l-0.3-0.3l-0.3-0.3l-0.3-0.3l0,0.3v-0.3l-0.3-0.3l-0.3-0.3l-0.3-0.3l-0.3-0.3l-0.3-0.3l-0.3-0.3l-0.3-0.3l-0.3-0.3l0.3,0.7
	l-0.3-0.3l-0.3-0.3l-0.3-0.3h0v-0.3l-0.3-0.3l-0.3-0.3l-0.3-0.3V202v-0.3v-0.3V201v-0.3v-0.3V200v-0.3v-0.3V199v-0.3v-0.3V198v-0.3
	l0.3-0.3l0.3-0.3l0.3-0.3l0.3-0.3l0.3-0.3h0.3h0.3h0.3h0.3h0.3h0.3L255.8,197L255.8,197z"/>
<path id="path23" class="st5" d="M333.9,65.9c-4.7-1.3-9.1-0.7-9.7,1.7s2.3,5.7,7,7c4.7,1.3,9.1,0.7,9.7-1.7S338.6,67.5,333.9,65.9z
	"/>
<path id="path24" class="st5" d="M162.6,86.6c-3,3.7-4,8-2.3,9.7c2,1.7,6,0,9.4-3.7c3-3.7,4-8,2.3-9.7
	C169.9,81.3,165.9,83,162.6,86.6L162.6,86.6z"/>
<path id="path25_00000046305357245823844420000001651715392607028132_" class="st7" d="M365.8,82.3c-25.2-3.7-48.3,13.7-51.6,38.9
	c-3.7,25.2,13.7,48.3,38.9,51.6c25.2,3.7,48.3-13.7,51.6-38.9S390.6,86,365.8,82.3z"/>
<path d="M359.4,177.2c-2.3,0-4.7,0-7-0.3c-27.2-3.7-45.9-28.8-41.9-56c2-13.1,8.7-24.8,19.4-32.5c10.7-7.7,23.8-11.4,36.9-9.4l0,0
	c27.2,3.7,45.9,28.8,41.9,56C404.7,159.4,383.6,177.2,359.4,177.2z M359.1,85.6c-9.1,0-17.8,3-25.2,8.4
	c-9.1,6.7-14.8,16.4-16.4,27.5c-3.4,22.8,12.7,44.3,35.5,47.6s44.3-12.7,47.6-35.5c3.4-22.8-12.7-44.3-35.5-47.6l0,0
	C363.1,85.6,361.1,85.6,359.1,85.6z"/>
<path id="path26_00000165943614631685730110000017695370854552433848_" class="st7" d="M204.5,95.7c-25.2-3.7-48.3,13.7-52,38.9
	c-3.7,25.2,13.7,48.3,38.9,51.6c25.2,3.7,48.3-13.7,51.6-38.9C246.7,122.5,229.3,99.4,204.5,95.7z"/>
<path d="M198.1,190.6c-2.3,0-4.7,0-7-0.7c-27.2-3.7-45.9-28.8-41.9-56c2-13.1,8.7-24.8,19.4-32.5c10.7-8,23.5-11.4,36.9-9.4
	c13.1,2,24.8,8.7,32.5,19.4c8,10.7,11.4,23.5,9.4,36.9c-2,13.1-8.7,24.8-19.4,32.5C218.9,187.2,208.5,190.6,198.1,190.6z M197.8,99
	c-9.1,0-17.8,3-25.2,8.4c-9.1,6.7-14.8,16.4-16.4,27.5c-3.4,22.8,12.7,44.3,35.5,47.6c11.1,1.7,22.1-1.3,31.2-8
	c9.1-6.7,14.8-16.4,16.4-27.5c1.7-11.1-1.3-22.1-8-31.2s-16.4-14.8-27.5-16.4C201.8,99,199.8,99,197.8,99z"/>
<path id="path27" class="st1" d="M356.1,121.2c-8.7-1.3-17.1,5-18.4,13.7c-1.3,8.7,5,17.1,13.7,18.4c8.7,1.3,17.1-5,18.4-13.7
	C371.2,130.6,365.1,122.5,356.1,121.2z"/>
<path id="path28" class="st1" d="M197.1,132.6c-8.7-1.3-17.1,5-18.4,13.7c-1.3,8.7,5,17.1,13.7,18.4c8.7,1.3,17.1-5,18.4-13.7
	C212.2,142,205.8,133.9,197.1,132.6z"/>
<path id="path29" class="st7" d="M357.4,127.9c-2.3-0.3-4.7,1.3-5,4c-0.3,2.3,1.3,4.7,4,5c2.3,0.3,4.7-1.3,5-4
	C361.8,130.6,360.1,128.2,357.4,127.9L357.4,127.9z"/>
<path id="path30" class="st7" d="M198.5,139.3c-2.3-0.3-4.7,1.3-5,4c-0.3,2.3,1.3,4.7,4,5c2.3,0.3,4.7-1.3,5-4
	C202.5,142,200.8,139.6,198.5,139.3z"/>
<path id="path36-6_00000054957639276171832870000013885177338405975210_" sodipodi:nodetypes="ccccc" class="st8" d="M346.8,372.6
	l-4.8,18.3l-132.4,64.9l3.5-21.1L346.8,372.6z"/>
<path class="st9" d="M207.5,458.9l4.4-25.2l137.5-63.9l-5.7,22.3l-0.5,0.5L207.5,458.9z M214.8,436.2l-2.8,17.1l128.9-63.4l3.6-14.1
	L214.8,436.2z"/>
<path id="path36-6-2_00000121970333717633083190000005053041279072264353_" sodipodi:nodetypes="cccccc" class="st8" d="M216,436.2
	l-7.3,21.1l-46.5-88l-1.7-2.8c-5.3-9.6-0.9-20.7,8.7-14.4L216,436.2z"/>
<path class="st9" d="M209.1,461.4l-50-94.2c-3.5-6.5-3.1-13.7,0.6-17.2c1.3-1.3,4.6-3.4,10.4,0.3l0.4,0.2l0.1,0.3l47.1,84.9
	L209.1,461.4z M163.9,351.5c-0.7-0.2-1.5,0.4-2.4,0.9c-2.1,1.8-2.7,7.4,0.3,13.1l1.7,2.8l44.7,84.6l5.9-16.6l-46-83.3
	C167,352.3,165.5,351.4,163.9,351.5z"/>
<path id="path37_00000137116165097609979030000006438791711016511380_" sodipodi:nodetypes="ccc" class="st10" d="M301.6,284.6
	c-0.4-3.1-6.3-0.7-8.3,0.1l-130.4,65.1l24.9,3.2l108.9-54.3"/>
<path class="st9" d="M187.9,354.9L157,351l135.6-67.7c2.3-1.2,6.5-2.6,9-1.3c1.1,0.4,1.7,1.5,1.6,2.5l0.1,1.6l-3.4,0.5l-0.1-1.6l0,0
	c-0.4-0.2-2.9,0.1-5.8,1.4l-125.5,62.6l18.9,2.4l110.1-54.9l1.4,2.9L187.9,354.9z"/>
<polygon id="rect33-7-5_00000129917267712861009190000006146559712796789688_" class="st8" points="170.9,350.1 301.7,285.2 
	346.1,372.4 215.4,437.3 "/>
<path class="st9" d="M214.6,439.4l-45.8-90.1l1.4-0.7l132.2-65.5l45.8,90.1l-1.4,0.7L214.6,439.4z M173.1,351.2l42.7,84.1
	l127.9-63.5L301,287.6L173.1,351.2z"/>
<path id="path38_00000019646510184345738680000013719526740819328948_" sodipodi:nodetypes="cc" class="st8" d="M198.7,416.5
	l15.4,28.2"/>
<rect x="203.6" y="374.4" transform="matrix(0.8325 -0.554 0.554 0.8325 -203.936 186.172)" class="st9" width="4.7" height="112"/>
<path id="path38-1_00000067220969585534679950000017145725935766095246_" sodipodi:nodetypes="cc" class="st8" d="M177.3,388.5
	L211,448"/>
<rect x="191.8" y="300.9" transform="matrix(0.8229 -0.5681 0.5681 0.8229 -203.1043 184.4059)" class="st9" width="5" height="234.4"/>
<path id="path38-9-3_00000018206549057792657890000007706429745874363808_" sodipodi:nodetypes="cc" class="st8" d="M215.3,442.9
	l42.2-21"/>
<rect x="155.1" y="430.2" transform="matrix(0.85 -0.5267 0.5267 0.85 -192.3981 189.3899)" class="st9" width="162.6" height="4.7"/>
<path id="path38-9-3-61_00000048483248465379717650000000736125609712511106_" sodipodi:nodetypes="cc" class="st8" d="M319.4,392
	l25.1-12.4"/>
<rect x="282.3" y="383.3" transform="matrix(0.8517 -0.524 0.524 0.8517 -152.873 230.9874)" class="st9" width="98.9" height="4.7"/>
<path id="path38-9-3-61-8_00000065058998126328968760000005053058850384211080_" sodipodi:nodetypes="cc" class="st8" d="
	M309.2,402.1l33.5-16.5"/>
<rect x="260.6" y="391.6" transform="matrix(0.8526 -0.5225 0.5225 0.8526 -157.9041 228.3533)" class="st9" width="130.4" height="5"/>
<path id="path38-9-3-6_00000034782347873242004930000016916292072033039242_" sodipodi:nodetypes="cc" class="st8" d="M211.5,449.3
	l40.9-20.6"/>
<rect x="152.9" y="436.7" transform="matrix(0.8499 -0.527 0.527 0.8499 -196.5484 188.2086)" class="st9" width="158.3" height="4.7"/>
<ellipse id="circle9" transform="matrix(0.2788 -0.9603 0.9603 0.2788 -166.4597 474.7419)" class="st7" cx="232.9" cy="348.2" rx="26.7" ry="29.4"/>
<path id="path9-0" class="st7" d="M242.6,382.9l-6.6-11c16-8.7,21.6-27.7,12.9-42.6l0,0l12-6.4C273.4,343.6,265.3,370.4,242.6,382.9
	L242.6,382.9z"/>
<path id="path10-6" class="st7" d="M247.5,390.5c27.3-15,37.1-47.3,21.9-72.5l0,0l12.5-6.8c19.2,31.3,7,72-27.4,90.7L247.5,390.5z"
	/>
<path id="path32_00000011714329583052597680000002520837083700728757_" class="st2" d="M220.9,350.6c0,0-13.1-37.9-36.6-43.6
	s-33.2,13.1-18.1,23.8c15.1,10.7,28.2,22.1,29.5,36.9C197.4,382.4,229.3,374.4,220.9,350.6z"/>
<path d="M185,302.9c-16.1-4-25.5,2.3-28.5,9.1c-3.4,7.4-0.3,15.8,7.4,21.5c13.7,9.7,26.8,20.8,28.2,34.2c0.3,4.7,3.4,8.4,7.7,10.1
	c1.7,0.7,3.7,1,5.4,1c5.4,0,11.1-2.3,14.8-6.4c6-5.7,7.4-14.1,4.4-23.1C223.6,347.2,210.2,309,185,302.9z M214.9,367.3
	c-3.7,3.7-9.4,4.7-12.4,3.7c-1.7-0.7-2.3-2-2.7-3.7c-1.7-16.1-16.1-28.5-31.2-39.6c-5-3.7-6.7-8-5-12.1c1.3-3.4,5.7-6,12.4-6
	c2,0,4.7,0.3,7.4,1c21.1,5,33.9,40.9,33.9,41.2C220.2,359.9,217.6,364.6,214.9,367.3z"/>
<path d="M358.4,58.1c-34.4,0-62.8,25.8-66.9,59.1c-3.5-2.5-7.2-3.7-11.3-3.7c-7.9,0-14.4,5.2-18,8.9c-8.1-28.2-34-48.8-64.8-48.8
	c-37.2,0-67.4,30.2-67.4,67.4c0,36.9,30.2,67.1,67.4,67.1s67.4-30.2,67.4-67.1c0-3.3-0.2-6.6-0.7-9.7c0.3-0.2,0.7-0.4,1-0.7
	c0,0,7-9.4,15.1-9.4c3.7,0,7.3,2,10.8,5.9c0.8,36.5,30.7,65.9,67.4,65.9c36.9,0,67.1-30.2,67.4-67.4
	C425.8,88.3,395.6,58.1,358.4,58.1z M197.4,200.7c-32.9,0-59.7-26.8-59.7-59.7c0-32.9,26.8-59.7,59.7-59.7s59.7,26.8,59.7,59.7
	C257.1,173.8,230.3,200.7,197.4,200.7z M358.4,185.2c-32.5,0-59-26.2-59.7-58.5c0.2-0.6,0.2-1.3,0-1.9c0.4-32.6,27-59,59.7-59
	c32.9,0,59.7,26.8,59.7,59.7S391.3,185.2,358.4,185.2z"/>
</svg>
