<?xml version="1.0" encoding="utf-8"?>
<!-- Generator: Adobe Illustrator 28.2.0, SVG Export Plug-In . SVG Version: 6.00 Build 0)  -->
<svg version="1.1"
	 id="svg33" xmlns:sodipodi="http://sodipodi.sourceforge.net/DTD/sodipodi-0.dtd" xmlns:svg="http://www.w3.org/2000/svg" xmlns:inkscape="http://www.inkscape.org/namespaces/inkscape"
	 xmlns="http://www.w3.org/2000/svg" xmlns:xlink="http://www.w3.org/1999/xlink" x="0px" y="0px" viewBox="0 0 512 512"
	 style="enable-background:new 0 0 512 512;" xml:space="preserve">
<style type="text/css">
	.st0{fill-rule:evenodd;clip-rule:evenodd;fill:#61E0EE;}
	.st1{fill-rule:evenodd;clip-rule:evenodd;}
	.st2{fill-rule:evenodd;clip-rule:evenodd;fill:#D6C295;}
	.st3{fill:#61E0EE;}
	.st4{clip-path:url(#SVGID_00000015330507135514987190000005097032270961207992_);}
	.st5{fill-rule:evenodd;clip-rule:evenodd;fill:#4FCBE0;}
	.st6{fill-rule:evenodd;clip-rule:evenodd;fill:#B7F8FF;}
	.st7{fill-rule:evenodd;clip-rule:evenodd;fill:#EDEDED;}
	.st8{fill-rule:evenodd;clip-rule:evenodd;fill:#FFFFFF;}
	.st9{fill-rule:evenodd;clip-rule:evenodd;fill:#F78422;}
	.st10{fill:#8D2D00;}
	.st11{fill-rule:evenodd;clip-rule:evenodd;fill:#8D2D00;}
</style>
<g id="g33" transform="matrix(3.3533662,0,0,3.3533662,-52.043979,63.838727)" inkscape:label="gopher">
	<path id="path1" class="st0" d="M55.5,24.6c-0.2-1.3-2.9-3.3-4-3.8c-13.7-5.6-8.9,10.1-0.9,9.5"/>
	<path id="path2" class="st1" d="M46.5,18.1L46.5,18.1l0.1,0l0.1,0l0.1,0l0.1,0l0.1,0l0.1,0l0.1,0l0.1,0l0.1,0l0.1,0l0.1,0l0.1,0
		l0.1,0l0.1,0l0.1,0l0.1,0l0.1,0l0.1,0l0.1,0l0.1,0l0.1,0l0.1,0l0.1,0l0.1,0l0.1,0l0.1,0l0.1,0l0.1,0l0.1,0l0.1,0l0.1,0l0.1,0l0.1,0
		l0.1,0l0.1,0l0.1,0l0.1,0l0.1,0l0.1,0l0.1,0l0.1,0l0.1,0l0.1,0l0.1,0l0.1,0l0.1,0l0.1,0l0.1,0l0.1,0l0.1,0l0.1,0l0.1,0l0.1,0l0.1,0
		l0.1,0l0.1,0l0.1,0l0.1,0l0.1,0l0.1,0l0.1,0l0.1,0l0.1,0l0.1,0l0.1,0l0.1,0l0.1,0l0.1,0l0.1,0l0.1,0l0.1,0l0.1,0l0.1,0l0.1,0l0.1,0
		l0,0l0,0l0,0l0,0l0,0l0,0l0,0l0,0l0,0l0,0l0,0l0,0l0,0l0,0l0,0l0,0l0,0l0,0l0,0l0,0l0,0l0,0l0,0l0,0l0,0l0,0l0,0l0,0l0.1,0.1
		l0.1,0.1l0.1,0.1l0.1,0.1l0.1,0.1l0.1,0.1l0.1,0.1l0.1,0.1l0,0l0,0l0,0l0,0l0,0l0,0l0,0l0,0l0,0l0,0l0,0l0,0l0,0l0,0l0,0l0,0l0,0
		l0,0l0,0l0,0l0,0l0,0l0,0l0,0l0,0l0,0l0,0l0,0l0,0l0,0l0,0l0,0l0,0l0,0l0,0l0,0l0,0l0,0l0,0l0,0l0,0l0,0l0,0l0,0l0,0l0,0l0,0l0,0
		l0,0l0,0l0,0l0,0l0,0l0,0l0,0l0,0l0,0l0,0l0,0l0,0l0,0l0,0.1l0,0.1l0,0l0,0.1l0,0.1l0,0.1l0,0.1l0,0.1l0,0.1l0,0.1l0,0.1l0,0.1
		l0,0.1l0,0.1l0,0.1l0,0.1l0,0.1l0,0.1l0,0.1l0,0l0,0l0,0l0,0l0,0l0,0l0,0l0,0l0,0.1l0,0.1l0,0.1l0,0.1l0,0.1l0,0.1l0,0.1l0,0.1
		l0,0.1l0,0.1l0,0.1l0,0.1l0,0.1l0,0.1l-0.1,0.1l-0.1,0.1l-0.1,0.1l-0.1,0.1l-0.1,0.1l-0.1,0.1l-0.1,0l-0.1,0l-0.1,0L56,26l-0.1,0
		l-0.1,0l-0.1,0l-0.1,0l-0.1,0l-0.1,0h-0.1l-0.1,0l-0.1,0l-0.1,0l-0.1,0l-0.1,0l-0.1,0l-0.1,0l-0.1,0l-0.1,0l-0.1,0l-0.1-0.1
		l-0.1-0.1l-0.1-0.1l-0.1-0.1l-0.1-0.1l-0.1-0.1l0-0.1l0-0.1l0-0.1l0-0.1l0-0.1l0-0.1l0-0.1l0-0.1l0,0l0,0l0,0l0,0l0,0l0,0l0,0l0,0
		l0,0l0,0l0,0l0,0l0,0l0,0l0,0l0,0l0,0l0,0l0,0l0,0l0,0l0,0l0,0l0,0l0,0l0,0l0,0l0,0l0,0l0,0l0,0l0,0l0,0l0,0l0,0l0,0l0,0l0,0l0,0
		l0,0l0,0l0,0l0,0l0,0l0,0l0,0l0,0l0,0l0,0l0,0l0,0l0,0l0,0l0,0l0,0l0,0l0,0l0,0l0,0l0,0l0,0l0,0l0,0l0,0l0,0l0,0l0,0l0,0l0,0l0,0
		l0,0l0,0l0,0l0,0l0,0l0,0l0,0L52,22.9L52,22.9l-0.1,0l-0.1,0l-0.1,0l-0.1,0l-0.1,0l-0.1,0l0,0l0,0l0,0l0,0l0,0l0,0l0,0l0,0l0,0l0,0
		l0,0l0,0l0,0l0,0l0,0l0,0l0,0l0,0l0,0l0,0l0,0l0,0l0,0l0,0l0,0l0,0l0,0l0,0l-0.1,0l-0.1,0l-0.1,0l-0.1,0l-0.1,0l-0.1,0l-0.1,0
		l-0.1,0l-0.1,0l-0.1,0l-0.1,0l-0.1,0l-0.1,0l-0.1,0l-0.1,0l-0.1,0l-0.1,0l-0.1,0l-0.1,0l-0.1,0l-0.1,0l-0.1,0l-0.1,0l-0.1,0l-0.1,0
		l-0.1,0l-0.1,0l-0.1,0l-0.1,0l-0.1,0l-0.1,0l-0.1,0l-0.1,0l-0.1,0l-0.1,0l-0.1,0l-0.1,0l-0.1,0l-0.1,0l-0.1,0l-0.1,0l-0.1,0l-0.1,0
		l-0.1,0l-0.1,0l-0.1,0l-0.1,0l-0.1,0l-0.1,0l-0.1,0l-0.1,0l-0.1,0l-0.1,0l-0.1,0l0,0l0,0l0,0l0,0l0,0l0,0l0,0l0,0l0,0l0,0l0,0l0,0
		l0,0l0,0l0,0l0,0l0,0l0,0l0,0l0,0l0,0l0,0h0h0h0l0,0l0,0l0,0l0,0l0,0l0,0l0,0l0,0l0,0l0,0l0,0l0,0l0,0l0,0l0,0l0,0l0,0l0,0l0,0l0,0
		l0,0l0,0l0,0l0,0l0,0l0,0l0,0l0,0l0,0l0,0l0,0l0,0l0,0l0,0l0,0l0,0l0,0l0,0l0,0l0,0l0,0l0,0l0,0l0,0l0,0l0,0l0,0l0,0l0,0l0,0l0,0
		l0,0l0,0l0,0l0,0l0,0l0,0l0,0l0,0l0,0l0,0l0,0l0,0l0,0l0,0l0,0l0,0l0,0l0,0l0,0l0,0l0,0l0,0l0,0l0,0l0,0l0,0l0,0l0,0l0,0l0,0l0,0
		l0,0l0,0l0,0l0,0l0,0l0,0l0,0l0,0l0,0l0,0l0,0l0,0l0,0l0,0l0,0l0,0l0,0l0,0l0,0l0,0l0,0l0,0l0,0l0,0l0,0l0,0l0,0l0,0l0,0l0,0l0,0
		l0,0l0,0l0,0l0,0l0,0l0,0l0,0l0,0l0,0l0,0l0,0l0,0l0,0l0,0l0,0l0,0l0,0l0,0l0,0l0,0l0,0l0,0l0,0l0,0l0,0l0,0l0,0l0,0l0,0l0,0l0,0
		l0,0l0,0l0,0l0,0l0,0l0,0l0,0v0l0,0v0v0v0v0l0,0v0l0,0l0,0l0,0l0,0l0,0l0,0l0,0l0,0l0,0l0,0l0,0l0,0l0,0l0,0l0,0l0,0l0,0l0,0l0,0
		l0,0l0,0l0,0l0,0l0,0l0,0l0,0l0,0l0,0l0,0l0,0l0,0l0,0l0,0l0,0l0,0l0,0l0,0l0,0l0,0l0,0l0,0l0,0l0,0l0,0l0,0l0,0l0,0l0,0l0,0l0,0
		l0,0l0,0l0,0l0,0l0,0l0,0l0,0l0,0l0,0l0,0l0,0l0,0l0,0l0,0l0,0l0,0l0,0l0,0l0,0l0,0l0,0l0,0l0,0l0,0l0,0l0,0l0,0l0,0l0,0l0,0l0,0
		l0,0l0,0l0,0l0,0l0,0l0,0l0,0l0,0l0,0l0,0l0,0l0,0l0,0l0,0l0,0l0,0l0,0l0,0l0,0l0,0l0,0l0,0l0,0l0,0l0,0l0,0l0,0l0,0l0,0l0,0l0,0
		l0,0l0,0l0,0l0,0l0,0l0,0l0,0l0,0l0,0l0,0l0,0l0,0l0,0l0,0l0,0l0,0l0,0l0,0l0,0l0,0l0,0l0,0l0,0l0,0l0,0l0,0l0,0l0,0l0,0l0,0l0,0
		l0,0l0,0l0,0l0,0l0,0l0,0l0,0l0,0l0,0l0,0l0,0l0,0l0,0l0,0l0,0l0,0l0,0l0,0l0,0l0,0l0,0l0,0l0,0l0,0l0,0l0,0l0,0l0,0l0,0l0,0l0,0
		l0,0l0,0l0,0l0,0l0,0l0,0l0,0l0,0l0,0l0,0l0,0l0,0l0,0l0,0l0,0l0,0l0,0l0,0l0,0l0,0l0,0l0,0l0,0l0,0l0,0l0,0l0,0l0,0l0,0l0,0l0,0
		l0,0l0,0l0,0l0,0l0,0l0,0l0,0l0,0l0,0l0,0l0,0l0,0l0,0l0,0l0,0l0,0l0,0l0,0l0,0l0,0l0,0l0,0l0,0l0,0l0,0l0,0l0,0l0,0l0,0l0,0l0,0
		l0,0l0,0l0,0l0,0l0,0l0,0l0,0l0,0l0,0l0,0l0,0l0,0l0,0l0,0l0,0l0,0l0,0l0,0l0,0l0,0l0,0l0,0l0,0l0,0l0,0h0l0,0h0h0l0,0h0l0,0l0,0
		l0,0l0,0l0,0l0,0l0,0l0.1,0l0.1,0l0.1,0l0.1,0l0.1,0l0.1,0l0.1,0l0.1,0l0.1,0l0.1,0l0.1,0l0.1,0l0.1,0.1l0.1,0.1l0.1,0.1l0.1,0.1
		l0.1,0.1l0.1,0.1l0,0.1l0,0.1l0,0.1l0,0.1l0,0.1l0,0.1l0,0.1l0,0.1l0,0.1l0,0.1l0,0.1l0,0.1l0,0.1l0,0.1l0,0.1l0,0.1l0,0.1l0,0.1
		l0,0.1l0,0.1l0,0.1l0,0.1l-0.1,0.1l-0.1,0.1l-0.1,0.1l-0.1,0.1l-0.1,0.1l-0.1,0.1l-0.1,0l-0.1,0l-0.1,0l-0.1,0l-0.1,0l-0.1,0
		l-0.1,0l-0.1,0l-0.1,0l-0.1,0l-0.1,0l-0.1,0l-0.1,0l-0.1,0l-0.1,0l-0.1,0l-0.1,0l-0.1,0h-0.1H50l-0.1,0l-0.1,0l-0.1,0l-0.1,0
		l-0.1,0l-0.1,0l-0.1,0l-0.1,0l-0.1,0l-0.1,0l-0.1,0l-0.1,0l-0.1,0l-0.1,0l-0.1,0l-0.1,0l-0.1,0l-0.1,0l-0.1,0l-0.1,0l-0.1,0l-0.1,0
		l-0.1,0l-0.1,0l-0.1,0l-0.1,0l-0.1,0l-0.1,0l-0.1,0l-0.1,0l-0.1,0l-0.1,0l-0.1,0l-0.1,0l-0.1,0l-0.1,0l-0.1,0l-0.1,0l-0.1,0l-0.1,0
		l-0.1,0l-0.1,0l-0.1,0l-0.1,0l0,0l-0.1,0l-0.1,0l0,0l-0.1,0l-0.1,0l0,0l0,0l-0.1,0l0,0l0,0l0,0l0,0l0,0l0,0l0,0l0,0l0,0l0,0l0,0
		l0,0l0,0l0,0l0,0l0,0l0,0l0,0l0,0l0,0l0,0l0,0l0,0l0,0l0,0l0,0l0,0l0,0l0,0l0,0l0,0l0,0l0,0l0,0l0,0l0,0l0,0l0,0l0,0l0,0l0,0l0,0
		l0,0l0,0l0,0l0,0l0,0l0,0l0,0l0,0l0,0l0,0l0,0l0,0l0,0l0,0l0,0l0,0l0,0l0,0l0,0l0,0l0,0l0,0l0,0l0,0l0,0l0,0l0,0l0,0l0,0l0,0l0,0
		l0,0l0,0l0,0l0,0l0,0l0,0l0,0l0,0l0,0l0,0l0,0l0,0l0,0l0,0l0,0l0,0l0,0l0,0l0,0l0,0l0,0l0,0l0,0l0,0l0,0l0,0l0,0l0,0l0,0l0,0l0,0
		l0,0l0,0l0,0l0,0l0,0l0,0l0,0l0,0l0,0l0,0l0,0l0,0l0,0l0,0l0,0l0,0l0,0l0,0l0,0l0,0l0,0l0,0l0,0l0,0l0,0l0,0l0,0l0,0l0,0l0,0l0,0
		l0,0l0,0l0,0l0,0l0,0l0,0l0,0l0,0l0,0l0,0l0,0l0,0l0,0l0,0l0,0l0,0l0,0l0,0l0,0l0,0l0,0l0,0l0,0l0,0l0,0l0,0l0,0l0,0l0,0l0,0l0,0
		l0,0l0,0l0,0l0,0l0,0l0,0l0,0l0,0l0,0l0,0l0,0l0,0l0,0l0,0l0,0l0,0l0,0l0,0l0,0l0,0l0,0l0,0l0,0l0,0l0,0l0,0l0,0l0,0l0,0l0,0l0,0
		l0,0l0,0l0,0l0,0l0,0l0,0l0,0l0,0l0,0l0,0l0,0l0,0l0,0l0,0l0,0l0,0v0v0v0l0,0l0,0l0,0l0,0l0,0l0,0l0,0l0,0l0,0l0,0l0,0l0,0l0,0l0,0
		l0,0l0,0l0,0l0,0l0,0l0,0l0,0l0,0l0,0l0,0l0,0l0,0l0,0l0,0l0,0l0,0l0,0l0,0l0,0l0,0l0,0l0,0l0,0l0,0l0,0l0,0l0,0l0,0l0,0l0,0l0,0
		l0,0l0,0l0,0l0,0l0,0l0,0l0,0l0,0l0,0l0,0l0,0l0,0l0,0l0,0l0,0l0,0l0,0l0,0l0,0l0,0l0,0l0,0l0,0l0,0l0,0l0,0l0,0l0,0l0,0l0,0l0,0
		l0,0l0,0l0,0l0,0l0,0l0,0l0,0l0,0l0,0l0,0l0,0l0,0l0,0l0,0l0,0l0,0l0,0l0,0l0,0l0,0l0,0l0,0l0,0l0,0l0,0l0,0l0,0l0,0l0,0l0,0l0,0
		l0,0l0,0l0,0l0,0l0,0l0,0l0.1,0l0,0l0,0l0.1,0l0.1,0l0.1,0l0.1,0l0.1,0l0.1,0l0.1,0l0.1,0l0.1,0l0.1,0l0.1,0l0.1,0l0.1,0l0.1,0
		l0.1,0l0.1,0l0.1,0l0.1,0l0.1,0l0.1,0l0.1,0l0.1,0l0.1,0l0.1,0l0.1,0l0.1,0l0.1,0l0.1,0l0.1,0l0.1,0l0.1,0l0.1,0l0.1,0l0.1,0l0.1,0
		l0.1,0l0.1,0h0.1L46.5,18.1L46.5,18.1z"/>
	<g>
		<path id="path3_00000033339937350180477960000010005808529367990460_" class="st2" d="M130.9,68.1c0,0,9.1,7.7,8.2,14.9
			c-1,7.2-7.2,7.8-8.6,2.4c-1.4-5.3-3.1-10.2-7.1-12.3C119.6,71.1,125.2,63.1,130.9,68.1L130.9,68.1z"/>
		<path d="M134.3,90.1c-2.3,0-4.1-1.7-4.8-4.4c-1.3-4.9-2.9-9.7-6.5-11.5c-1.3-0.6-2-1.8-1.9-3.3c0.1-2,1.6-4.1,3.7-5
			c2.3-1,4.8-0.5,6.9,1.4c0.4,0.4,9.6,8.2,8.5,15.9c-0.7,4.9-3.5,6.8-5.7,6.9C134.5,90.1,134.4,90.1,134.3,90.1z M127.1,67.6
			c-0.6,0-1.1,0.1-1.5,0.3c-1.4,0.6-2.3,2-2.3,3c0,0.6,0.2,0.9,0.7,1.2c4.4,2.2,6.2,7.6,7.6,13c0.4,1.7,1.5,2.8,2.8,2.7
			c1.4-0.1,3.1-1.7,3.6-5c0.9-6.5-7.7-13.8-7.8-13.9c0,0,0,0,0,0C129.1,67.9,128,67.6,127.1,67.6z"/>
	</g>
	<path class="st3" d="M96.8-1.8c-0.1,0-0.1,0-0.2,0c-0.6-0.1-1-0.7-1-1.3c0.9-6.2,2.6-9.6,5.1-10.4c2.4-0.8,4.4,1.3,4.5,1.4
		c0.4,0.4,0.4,1.2,0,1.6c-0.4,0.4-1.2,0.4-1.6,0c0,0-1.1-1.1-2.2-0.8c-0.7,0.2-2.5,1.5-3.6,8.6C97.8-2.2,97.3-1.8,96.8-1.8z"/>
	<path class="st3" d="M92.3-2.5c-0.6,0-1-0.4-1.1-1c-1-7.5-2.7-8.9-3.4-9.1c-0.9-0.3-1.9,0.6-1.9,0.6c-0.4,0.4-1.1,0.5-1.6,0
		c-0.4-0.4-0.5-1.1,0-1.6c0.7-0.7,2.4-1.8,4.2-1.2c2.5,0.8,4.1,4.4,5,11c0.1,0.6-0.4,1.2-1,1.3C92.4-2.5,92.4-2.5,92.3-2.5z"/>
	<path class="st3" d="M94.6-4.1c-0.6,0-1.1-0.5-1.1-1c-0.5-7.5,0.4-11.9,2.9-13.4c1.6-0.9,3.3-0.4,4,0.1c0.5,0.3,0.7,1,0.3,1.6
		c-0.3,0.5-1,0.7-1.5,0.4c-0.1,0-0.9-0.5-1.7-0.1c-0.7,0.5-2.4,2.5-1.8,11.3C95.8-4.7,95.3-4.2,94.6-4.1C94.6-4.1,94.6-4.1,94.6-4.1
		z"/>
	<g>
		<path id="path7_00000112617227707587969950000009443101036243281571_" class="st2" d="M118.6,126.6c0,0-0.7-11.9-6.9-15.5
			c-6.3-3.6-10.5,1-7.1,5.3c3.4,4.3,6.3,8.7,5.5,13C109.3,133.8,119.1,134.1,118.6,126.6z"/>
		<path d="M113.5,133.6c-1.1,0-2.2-0.3-3.1-0.9c-1.2-0.8-1.7-2.1-1.4-3.5c0.7-3.9-2.1-8.2-5.3-12.1c-1.8-2.3-2-4.9-0.4-6.7
			c1.4-1.7,4.6-2.8,8.9-0.3c6.7,3.8,7.5,15.8,7.5,16.4c0.2,2.8-1,5.1-3.1,6.3C115.7,133.4,114.6,133.6,113.5,133.6z M107.4,110.9
			c-1.1,0-1.9,0.4-2.4,0.9c-0.8,1-0.7,2.4,0.5,3.8c3.5,4.4,6.6,9.1,5.7,13.9c-0.1,0.5,0.1,0.9,0.5,1.3c0.8,0.6,2.5,0.7,3.8,0
			c1-0.5,2.1-1.7,2-4.2c0,0,0,0,0,0c0-0.1-0.7-11.4-6.4-14.6C109.7,111.3,108.5,110.9,107.4,110.9z"/>
	</g>
	<g>
		<path id="path8_00000174589325631811892540000014858496992813068963_" class="st2" d="M64.6,128c0,0,6.3-10.2,3.2-16.7
			c-3.1-6.5-9.2-5.2-8.9,0.3c0.3,5.5,0.1,10.7-3,13.8C52.8,128.5,60.6,134.4,64.6,128z"/>
		<path d="M60,132c-0.2,0-0.4,0-0.6,0c-2.3-0.2-4.4-1.8-5.1-3.7c-0.5-1.3-0.2-2.7,0.8-3.7c2.8-2.8,2.9-7.9,2.7-13
			c-0.2-2.9,1.2-5.1,3.5-5.7c2.1-0.5,5.4,0.4,7.5,4.9c3.3,7-3,17.2-3.3,17.8C64.2,130.8,62.2,132,60,132z M62.4,108
			c-0.2,0-0.4,0-0.6,0.1c-1.2,0.3-1.9,1.6-1.8,3.4c0.3,5.6,0.2,11.2-3.3,14.7c-0.4,0.4-0.5,0.8-0.3,1.3c0.3,0.9,1.6,2,3.2,2.2
			c1.1,0.1,2.7-0.2,4-2.3c0,0,0,0,0,0c0.1-0.1,6-9.7,3.2-15.6C65.5,109.1,63.8,108,62.4,108z"/>
	</g>
	<path id="path9" class="st0" d="M129.5,14.3c1.3,0.5,2.6-0.3,3.6-1.1c11.6-9-4.3-12.7-7.7-5.5"/>
	<path id="path10" class="st1" d="M132.2,2.5L132.2,2.5L132.2,2.5l0.1,0l0,0l0.1,0l0,0l0,0l0.1,0l0,0l0,0l0,0l0,0l0,0l0,0l0,0l0,0
		l0,0l0,0l0,0l0,0l0,0l0,0l0,0l0,0l0,0l0,0l0,0l0,0l0,0l0,0l0,0l0,0l0,0l0,0l0,0l0,0l0,0l0,0l0,0l0,0l0,0l0,0l0,0l0,0l0,0l0,0l0,0
		l0,0l0,0l0,0l0,0l0,0l0,0l0,0l0,0l0,0l0,0l0,0l0,0l0,0l0,0l0,0l0,0l0,0l0,0l0,0l0,0l0,0l0,0l0,0l0,0l0,0l0,0l0,0l0,0l0,0l0,0l0,0
		l0,0l0,0l0,0l0,0l0,0l0,0l0,0l0,0l0,0l0,0l0,0l0,0l0,0l0,0l0,0l0,0l0,0l0,0l0,0l0,0l0,0l0,0l0,0l0,0l0,0l0,0l0,0l0,0l0,0l0,0l0,0
		l0,0l0,0l0,0l0,0l0,0l0,0l0,0l0,0l0,0l0,0l0,0l0,0l0,0l0,0l0,0l0,0l0,0l0,0l0,0l0,0l0,0l0,0l0,0l0,0l0,0l0,0l0,0l0,0l0,0l0,0l0,0
		l0,0l0,0l0,0l0,0l0,0l0,0l0,0l0,0l0,0l0,0l0,0l0,0l0,0l0,0l0,0l0,0l0,0l0,0l0,0l0,0l0,0l0,0l0,0l0,0l0,0l0,0l0,0l0,0l0,0l0,0l0,0
		l0,0.1l0,0l0,0l0,0l0,0.1l0,0.1l0,0l0,0l0,0.1l0,0.1l0,0.1l0,0.1l0,0l0,0.1l0,0.1l0,0.1l0,0.1l0,0.1l0,0.1v0.1l0,0.1l0,0.1l0,0.1
		l0,0.1l0,0.1l0,0.1l0,0.1l0,0.1l0,0.1l0,0.1l0,0.1l0,0.1l0,0.1l0,0.1l0,0.1l0,0.1l0,0.1l0,0.1l0,0.1l0,0.1l0,0.1l0,0.1l0,0.1l0,0.1
		l0,0.1l0,0.1l0,0.1l0,0.1l0,0.1l0,0.1l0,0.1l0,0.1l0,0.1l0,0.1l0,0.1l0,0.1l0,0.1l0,0.1l0,0.1l0,0.1l0,0.1l0,0.1l0,0.1l0,0.1l0,0.1
		l0,0.1l0,0.1l0,0.1l0,0.1l0,0.1l0,0.1l0,0.1l0,0.1l0,0.1l0,0.1l0,0.1l0,0.1l0,0.1l0,0.1l0,0.1l0,0.1l0,0.1l0,0.1l0,0.1l0,0.1l0,0.1
		l0,0.1l0,0.1l0,0.1l0,0.1l0,0.1l0,0.1l0,0.1l0,0.1l0,0.1l0,0.1l0,0.1l0,0.1l0,0.1l0,0.1l0,0.1l0,0.1l0,0.1l0,0.1l0,0.1l0,0.1l0,0.1
		l0,0.1l0,0.1l0,0.1l0,0.1l0,0.1l0,0.1l0,0.1l-0.1,0.1l-0.1,0.1l-0.1,0.1l-0.1,0.1l-0.1,0.1l-0.1,0.1l-0.1,0.1l-0.1,0.1l-0.1,0.1
		l-0.1,0.1l-0.1,0.1l-0.1,0.1l-0.1,0.1l-0.1,0.1l-0.1,0.1l-0.1,0.1l-0.1,0.1l-0.1,0.1l-0.1,0.1l-0.1,0.1l-0.1,0.1l-0.1,0.1l-0.1,0.1
		l-0.1,0.1l-0.1,0.1l-0.1,0.1l-0.1,0.1l-0.1,0.1l-0.1,0.1l-0.1,0.1l-0.1,0.1l-0.1,0.1l-0.1,0.1l-0.1,0.1l-0.1,0.1l-0.1,0.1l-0.1,0.1
		l-0.1,0.1l-0.1,0.1l-0.1,0l-0.1,0l-0.1,0l-0.1,0l-0.1,0l-0.1,0l-0.1,0l-0.1,0l-0.1,0l-0.1,0l-0.1,0l-0.1,0l-0.1,0l-0.1,0l-0.1,0
		l-0.1,0l-0.1,0l-0.1,0l-0.1,0l-0.1,0l-0.1,0l-0.1,0l-0.1,0l-0.1,0l-0.1,0l-0.1,0l0,0l0,0l0,0l0,0l0,0l0,0l0,0l0,0l0,0l0,0l0,0l0,0
		l0,0l0,0l0,0l0,0l0,0l0,0l0,0l0,0l0,0l0,0l0,0l0,0l0,0l0,0l0,0l0,0l0,0l0,0l0,0l0,0l0,0l0,0l0,0l0,0l0,0l0,0l0,0l0,0l0,0l0,0l0,0
		l0,0l0,0l0,0l0,0l0,0h0h0l0,0l0,0l0,0l0,0l0,0l0,0l0,0l0,0l0,0l0,0l0,0l0,0l-0.1,0l-0.1,0l0,0l-0.1,0l-0.1,0l0,0l0,0l-0.1,0l0,0
		l0,0l-0.1,0l0,0l0,0l0,0l-0.1,0l-0.1,0l-0.1,0l-0.1,0l-0.1,0l-0.1-0.1l-0.1-0.1l-0.1-0.1l-0.1-0.1l-0.1-0.1l-0.1-0.1l0-0.1l0-0.1
		l0-0.1l0-0.1l0-0.1l0-0.1l0-0.1l0-0.1l0-0.1l0-0.1l0-0.1l0-0.1l0-0.1l0-0.1l0-0.1l0-0.1l0-0.1l0-0.1l0-0.1l0-0.1l0-0.1l0-0.1
		l0.1-0.1l0.1-0.1l0.1-0.1l0.1-0.1l0.1-0.1l0.1,0l0.1,0l0.1,0l0.1,0l0.1,0l0.1,0l0.1,0l0.1,0l0.1,0l0.1,0l0.1,0l0.1,0l0.1,0l0.1,0
		l0.1,0l0.1,0l0.1,0l0.1,0l0,0l0,0l0,0l0,0l0,0l0,0l0,0l0,0l0,0l0,0l0,0l0,0l0,0l0,0l0,0l0,0l0,0l0,0l0,0l0,0l0,0h0l0,0h0l0,0h0h0h0
		h0l0,0h0l0,0l0,0l0,0l0,0l0,0l0,0l0,0l0,0l0,0l0,0l0,0l0,0l0,0l0,0l0,0l0,0l0,0l0,0l0,0l0,0l0,0l0,0l0,0l0,0l0,0l0,0l0,0l0,0l0,0
		l0,0l0,0l0,0l0,0l0,0l0,0l0,0l0,0l0,0l0,0l0,0l0,0l0,0l0,0l0,0l0,0l0,0l0,0l0,0l0,0l0,0l0,0l0,0l0,0l0,0l0,0l0,0l0,0l0,0l0,0l0,0
		l0,0l0,0l0,0l0,0l0,0l0,0l0,0l0,0l0,0l0,0l0,0l0.1-0.1l0.1,0l0.1,0l0.1,0l0.1,0l0.1,0l0.1,0l0.1,0l0.1,0l0.1,0l0.1,0l0.1,0l0.1,0
		l0.1,0l0.1,0l0.1,0l0.1,0l0.1,0l0.1,0l0.1,0l0.1,0l0.1,0l0,0l0,0l0,0l0,0l0,0l0,0l0,0l0,0l0,0l0,0l0,0l0,0l0,0l0,0l0,0l0,0l0,0l0,0
		l0,0l0,0l0,0l0,0l0,0l0,0l0,0l0,0l0,0l0,0l0,0l0,0l0,0l0,0l0,0l0,0l0,0l0,0l0,0l0,0l0,0l0,0l0,0l0,0l0,0l0,0l0,0l0,0l0,0l0,0l0,0
		l0,0l0,0l0,0l0,0l0,0l0,0l0,0l0,0l0,0l0,0l0,0l0,0l0,0l0,0l0,0l0,0l0,0l0,0l0,0l0,0l0,0l0,0l0,0l0,0l0,0l0,0l0,0l0,0l0,0l0,0l0,0
		l0,0l0,0l0,0l0,0l0,0l0,0l0,0l0,0l0,0l0,0l0,0l0,0l0,0l0,0l0,0l0,0l0,0l0,0l0,0l0,0l0,0l0,0l0,0l0,0l0,0l0,0l0,0l0,0v0v0l0,0v0l0,0
		v0l0,0v0l0,0l0,0l0,0l0,0l0,0l0,0l0,0l0,0l0,0l0,0l0,0l0,0l0,0l0,0l0,0l0,0l0,0l0,0l0,0l0,0l0,0l0,0l0,0l0,0l0,0l0,0l0,0l0,0l0,0
		l0,0l0,0l0,0l0,0l0,0l0,0l0,0l0,0l0,0l0,0l0,0l0,0l0,0l0,0l0,0l0,0l0,0l0,0l0,0l0,0l0,0l0,0l0,0l0,0l0,0l0,0l0,0l0,0l0,0l0,0l0,0
		l0,0l0,0l0,0l0,0l0,0l0,0l0,0l0,0l0,0l0,0l0,0l0,0l0,0l0,0l0,0l0,0l0,0l0,0l0,0l0,0l0,0l0,0l0,0l0,0l0,0l0,0l0,0l0,0l0,0l0,0l0,0
		l0,0l0,0l0,0l0,0l0,0l0,0l0,0l0,0l0,0l0,0l0,0l0,0l0,0l0,0l0,0l0,0l0,0l0,0l0,0l0,0l0,0l0,0l0,0l0,0l0,0l0,0l0,0l0,0l0,0l0,0l0,0
		l0,0l0,0l0,0l0,0l0,0l0,0l0,0l0,0l0,0l0,0l0,0l0,0l0,0l0,0l0,0l0,0l0,0l0,0l0,0l0,0l0,0l0,0l0,0l0,0l0,0l0,0l0,0l0,0l0,0l0,0l0,0
		l0,0l0,0l0,0l0,0l0,0l0,0l0,0l0,0l0,0l0,0l0,0l0,0l0,0l0,0l0,0l0,0l0,0l0,0l0,0l0,0l0,0l0,0l0,0l0,0l0,0l0,0l0,0l0,0l0,0l0,0h0l0,0
		h0h0h0l0,0h0l0,0h0l0,0l0,0l0,0l0,0l0,0l0,0l0,0l0,0l0,0l0,0l0,0l0,0l0,0l0,0l0,0l0,0l0,0l0,0l0,0l0,0l0,0l0,0l0,0l0,0l0,0l0,0l0,0
		l0,0l0,0l0,0l0,0l0,0l0,0l0,0l0,0l0,0l0,0l0,0l0,0l0,0l0,0l0,0l0,0l0,0l0,0l0,0l0,0l0,0l0,0l0,0l0,0l0,0l0,0l0,0l0,0l0,0l0,0l0,0
		l0,0l0,0l0,0l0,0l0,0l0,0l0,0l0,0l0,0l0,0l0,0l0,0l0,0l0,0l0,0l0,0l0,0l0,0l0,0l0,0l0,0l0,0l0,0l0,0l0,0l0,0l0,0l0,0l0,0l0,0l0,0
		l0,0l0,0l0,0l0,0l0,0l0,0l0,0l0,0l0,0l0,0l0,0l0,0l0,0l0,0l0,0l0,0l0,0l0,0l0,0l0,0l0,0l0,0l0,0l0,0l0,0l0,0l0,0l0,0l0,0l0,0l0,0
		l0,0l0,0l0,0l0,0l0,0l0,0l0,0l0,0l0,0l0,0l0,0l0,0l0,0l0,0l0,0l0,0l0,0l0,0l0,0l0,0l0,0l0,0l0,0l0,0l0,0l0,0l0,0l0,0l0,0l0,0l0,0
		l0,0l0,0l0,0l0,0l0,0l0,0l0,0l0,0l0,0l0,0l0,0l0,0l0,0l0,0l0,0l0,0l0,0l0,0l0,0l0,0l0,0l0,0l0,0l0,0l0,0l0,0l0,0l0,0l0,0l0,0l0,0
		l0,0.1l0,0.1l0,0.1l-0.1,0.1l-0.1,0.1l-0.1,0.1l-0.1,0.1L126.3,9L126.2,9l-0.1,0l-0.1,0l-0.1,0l-0.1,0l-0.1,0l-0.1,0l-0.1,0l-0.1,0
		l-0.1,0l-0.1,0l-0.1,0l-0.1,0l-0.1,0l-0.1,0l-0.1,0l-0.1,0l-0.1,0l-0.1,0l-0.1,0l-0.1,0l-0.1,0l-0.1,0L124.4,9l-0.1-0.1l-0.1-0.1
		l-0.1-0.1l-0.1-0.1l-0.1-0.1l0-0.1l0-0.1l0-0.1l0-0.1l0-0.1l0-0.1l0-0.1l0-0.1l0-0.1l0-0.1l0-0.1l0-0.1l0-0.1l0-0.1l0-0.1l0-0.1
		l0-0.1l0-0.1l0-0.1l0,0l0-0.1l0-0.1l0-0.1l0-0.1l0-0.1l0-0.1l0-0.1l0-0.1l0-0.1l0,0l0,0l0,0l0,0l0,0l0,0l0,0l0,0l0,0l0,0l0,0l0,0
		l0,0l0,0l0,0l0,0l0,0l0,0l0,0l0,0l0,0l0,0l0,0l0,0l0,0l0,0l0,0l0,0l0,0l0,0l0,0l0,0l0,0l0,0l0,0l0,0l0,0l0,0l0,0l0,0l0,0l0,0l0,0
		l0,0l0,0l0,0l0,0l0,0l0,0l0,0l0,0l0,0l0,0l0,0l0,0l0,0l0,0l0,0l0,0l0,0l0,0l0,0l0,0l0,0l0,0l0,0l0,0l0,0l0,0l0,0l0,0l0,0l0,0l0,0
		l0,0l0,0l0,0l0,0l0,0l0,0l0,0l0,0l0,0l0,0l0,0l0,0l0,0l0,0l0,0l0,0l0,0l0,0l0,0l0,0l0,0l0,0l0,0l0,0l0,0l0,0l0,0l0,0l0,0l0,0l0,0
		l0,0l0,0l0,0l0,0l0,0l0,0l0,0l0.1,0l0,0l0,0l0,0l0,0l0,0l0.1,0l0,0l0.1,0l0,0l0,0l0.1,0l0,0l0,0l0,0l0.1,0l0,0l0.1,0l0,0l0,0l0.1,0
		l0,0l0,0l0.1,0l0.1,0l0,0l0.1,0l0.1,0l0,0l0.1,0l0,0l0.1,0l0.1,0l0,0l0.1,0l0,0l0.1,0l0.1,0l0,0l0.1,0l0,0l0.1,0l0.1,0l0.1,0l0,0
		l0.1,0l0.1,0l0,0l0.1,0l0,0l0.1,0l0.1,0l0,0l0,0l0.1,0l0,0l0,0l0.1,0l0,0l0,0l0,0l0.1,0h0L132.2,2.5L132.2,2.5L132.2,2.5z"/>
	<path id="path11" class="st0" d="M128.7,109.6c0,0,6.1-11.9,4.9-22.1c-3.6-32,5.8-38.2,2.1-57.7c-1.3-6.8-3.7-14.5-7.8-20.1
		C119-2.7,101.6-9.1,86.5-6.2C80.4-5,75-2.4,69.6,0.4c-18.8,10-22.7,31.1-20.3,48.9c1.1,7.9,7.8,20.1,6.9,28
		c-2.1,16.4-1.5,25.3,3.6,36c4.4,9,21.4,15.9,40,13.9C103,126.9,122,123.5,128.7,109.6L128.7,109.6z"/>
	<g>
		<defs>
			<path id="SVGID_1_" d="M128.7,109.6c0,0,6.1-11.9,4.9-22.1c-3.6-32,5.8-38.2,2.1-57.7c-1.3-6.8-3.7-14.5-7.8-20.1
				C119-2.7,101.6-9.1,86.5-6.2C80.4-5,75-2.4,69.6,0.4c-18.8,10-22.7,31.1-20.3,48.9c1.1,7.9,7.8,20.1,6.9,28
				c-2.1,16.4-1.5,25.3,3.6,36c4.4,9,21.4,15.9,40,13.9C103,126.9,122,123.5,128.7,109.6L128.7,109.6z"/>
		</defs>
		<clipPath id="SVGID_00000093162985325275091840000004174937389032825219_">
			<use xlink:href="#SVGID_1_"  style="overflow:visible;"/>
		</clipPath>
		<g id="g15" style="clip-path:url(#SVGID_00000093162985325275091840000004174937389032825219_);">
			<path id="path13" class="st5" d="M61.5,8.2c0,0-6.2,15.2-2.4,27.6s10.5,29.5,9.4,46.8c-1.1,17.2,0.8,28.3,4.6,33.2
				c7.7,9.8,28.6,11.3,34,9.7s-21,5.5-36.1-0.6c-15.1-6.1-17.2-31.7-15.2-47.7c2-16-10.8-20.6-6.5-48.1C56,12.9,56.2,13.8,61.5,8.2z
				"/>
			<path id="path14" class="st5" d="M86.7,31.8c0,0-1.9,9.4-13,8.8c-11.2-0.5-11.9-11.9-11.9-11.9L86.7,31.8z"/>
			<path id="path15" class="st5" d="M134.4,27.1c0,0-1.9,9.4-13,8.8c-11.2-0.5-11.9-11.9-11.9-11.9L134.4,27.1z"/>
		</g>
	</g>
	<path id="path16" class="st1" d="M94-8.4L94-8.4l0.2,0l0.1,0l0.1,0l0.1,0l0.1,0l0.1,0l0.1,0l0.1,0l0.1,0l0.1,0l0.1,0l0.1,0l0.1,0
		l0.1,0l0.1,0l0.1,0l0.1,0l0.1,0l0.1,0l0.1,0l0.1,0l0.1,0l0.1,0l0.1,0l0.1,0l0.1,0l0.1,0l0.1,0l0.1,0l0.1,0l0.1,0l0.1,0l0.1,0l0.1,0
		l0.1,0l0.1,0l0.1,0l0.1,0l0.1,0l0.1,0l0.1,0l0.1,0l0.1,0l0.1,0l0.2,0l0.2,0l0.2,0l0.2,0l0.2,0l0.2,0l0.2,0l0.2,0l0.2,0l0.2,0l0.2,0
		l0.2,0l0.2,0l0.2,0l0.2,0l0.2,0l0.2,0l0.2,0l0.2,0l0.2,0l0.2,0l0.2,0l0.2,0l0.2,0l0.2,0l0.2,0l0.2,0l0.2,0l0.2,0l0.2,0l0.2,0l0.2,0
		l0.2,0l0.2,0l0.2,0l0.2,0l0.2,0l0.2,0l0.2,0l0.2,0l0.2,0.1l0.2,0.1l0.2,0.1l0.2,0.1l0.2,0.1l0.2,0.1l0.2,0.1l0.2,0.1l0.2,0.1
		l0.2,0.1l0.2,0.1l0.2,0.1l0.2,0.1l0.2,0.1l0.2,0.1l0.2,0.1l0.2,0.1l0.2,0.1l0.2,0.1l0.2,0.1l0.2,0.1l0.2,0.1l0.2,0.1l0.2,0.1
		l0.2,0.1l0.2,0.1l0.2,0.1l0.2,0.1l0.2,0.1l0.2,0.1l0.2,0.1l0.2,0.1l0.2,0.1l0.2,0.1l0.2,0.1l0.2,0.1l0.2,0.1l0.2,0.1l0.2,0.1
		l0.2,0.1l0.2,0.1l0.2,0.1l0.2,0.1l0.2,0.1l0.2,0.1l0.2,0.1l0.2,0.1l0.2,0.1l0.2,0.1l0.2,0.1l0.2,0.1l0.2,0.1l0.2,0.1l0.2,0.1
		l0.2,0.1l0.2,0.1l0.2,0.1l0.2,0.1l0.2,0.1l0.2,0.1l0.2,0.1l0.1,0l0.1,0l0.1,0l0.1,0l0.1,0l0.1,0l0.1,0l0.1,0l0.1,0l0.1,0l0.1,0
		l0.1,0l0.1,0l0.1,0l0.1,0l0.1,0l0.1,0l0.1,0l0.1,0l0.1,0.1l0.1,0l0.1,0.1l0.1,0.1l0.1,0.1l0.1,0.1l0.1,0.1l0.1,0.1l0.1,0.1l0.1,0.1
		l0.1,0.1l0.1,0.1l0.1,0.1l0.1,0.1l0.1,0.1l0.1,0.1l0.1,0.1l0.1,0.1l0.1,0.1l0.1,0.1l0.1,0.1l0.1,0.1l0.1,0.1l0.1,0.1l0.1,0.1
		l0.1,0.1l0.1,0.1l0.1,0.1l0.1,0.1l0.1,0.1l0.1,0.1l0.1,0.1l0.1,0.1l0.1,0.1l0.1,0.1l0.1,0.1l0.1,0.1l0.1,0.1l0.1,0.1l0.1,0.1
		l0.1,0.1l0.1,0.1l0.1,0.1l0.1,0.1l0.1,0.1l0.1,0.1l0.1,0.1l0.1,0.1l0.1,0.1l0.1,0.1l0.1,0.1l0.1,0.1l0.1,0.1l0.1,0.1l0.1,0.1
		l0.1,0.1l0.1,0.1l0.1,0.1l0.1,0.1l0.1,0.1l0.1,0.1l0.1,0.1l0.1,0.1l0.1,0.1l0.1,0.1l0.1,0.1l0.1,0.1l0.1,0.1l0.1,0.1l0.1,0.1
		l0.1,0.1l0.1,0.1l0.1,0.1l0.1,0.1l0.1,0.1l0.1,0.1l0.1,0.1l0.1,0.1l0.1,0.1L124,3l0.1,0.1l0.1,0.1l0.1,0.1l0.1,0.1l0.1,0.1l0.1,0.1
		l0.1,0.1l0.1,0.1l0.1,0.1l0.1,0.1l0.1,0.1l0.1,0.1l0.1,0.1l0.1,0.1L125,4l0.1,0.1l0.1,0.1l0.1,0.1l0.1,0.1l0.1,0.1l0.1,0.1l0.1,0.1
		l0.1,0.1l0.1,0.1l0.1,0.1l0.1,0.1l0.1,0.1l0.1,0.1l0.1,0.1l0.1,0.1l0.1,0.1l0.1,0.1l0.1,0.1l0.1,0.1l0.1,0.1l0.1,0.1l0.1,0.1
		l0.1,0.1l0.1,0.1l0.1,0.1l0.1,0.1l0.1,0.1l0.1,0.1l0.1,0.1L127,6L127,6l0.1,0.1l0.1,0.1l0.1,0.1l0.1,0.1l0.1,0.1l0.1,0.1l0.1,0.1
		l0.1,0.1l0.1,0.1l0.1,0.1l0.1,0.1l0.1,0.1l0.1,0.1l0.1,0.1l0.1,0.1l0.1,0.1l0.1,0.1l0.1,0.1l0.1,0.1l0.1,0.1l0.1,0.1l0.1,0.1
		l0.1,0.1l0.1,0.1l0.1,0.1l0.1,0.1l0.1,0.1l0.1,0.1l0.1,0.1l0.1,0.1l0.1,0.1l0.1,0.1l0.1,0.1l0.1,0.1l0.1,0.1l0.1,0.1l0.1,0.1
		l0.1,0.1l0.1,0.1l0.1,0.1l0,0.1l0.1,0.1l0,0.1l0,0.1l0.1,0.1l0,0.1l0,0.1l0,0.1l0,0.1l0,0.1l0,0.1l0,0.1l0,0.1l0,0.1l0,0.1l0,0.1
		l0,0.1l0,0.1l0,0.1l0,0.1l0,0.1l0,0.1l0,0.1l0,0.1l0,0.1l0,0.1l0,0.1l0,0.1l0,0.1l0,0.1l0,0.1l0,0.1l0,0.1l0,0.1l0,0.1l0,0.1l0,0.1
		l0,0.1l0,0.1l0,0.1l0,0.1l0,0.1l0,0.1l0,0.1l0,0.1l0,0.1l0,0.1l0,0.1l0,0.1l0.1,0.2l0.1,0.2l0.1,0.2l0.1,0.2l0.1,0.2l0.1,0.2
		l0.1,0.2l0.1,0.2l0.1,0.2l0.1,0.2l0.1,0.2l0.1,0.2l0.1,0.2l0.1,0.2l0.1,0.2l0.1,0.2l0.1,0.2l0.1,0.2l0.1,0.2l0.1,0.2l0.1,0.2
		l0.1,0.2l0.1,0.2l0.1,0.2l0.1,0.2l0.1,0.2l0.1,0.2l0.1,0.2l0.1,0.2l0.1,0.2l0.1,0.2l0.1,0.2l0.1,0.2l0.1,0.2l0.1,0.2l0.1,0.2
		l0.1,0.2l0.1,0.2l0.1,0.2l0.1,0.2l0.1,0.2l0.1,0.2l0.1,0.2l0.1,0.2l0.1,0.2l0.1,0.2l0.1,0.2l0.1,0.2l0.1,0.2l0.1,0.2l0.1,0.2
		l0.1,0.2l0.1,0.2l0.1,0.2l0.1,0.2l0.1,0.2l0.1,0.2l0.1,0.2l0.1,0.2l0.1,0.2l0,0.2l0,0.2l0,0.2l0,0.2l0,0.2l0,0.2l0,0.2l0,0.2l0,0.2
		l0,0.2l0,0.2l0,0.2l0,0.2l0,0.2l0,0.2l0,0.2l0,0.2l0,0.2l0,0.2l0,0.2l0,0.2l0,0.2l0,0.2l0,0.2l0,0.2l0,0.2l0,0.2l0,0.2l0,0.2l0,0.2
		l0,0.2l0,0.2l0,0.2l0,0.2l0,0.2l0,0.2l0,0.2l0,0.2l0,0.2l0,0.2l0,0.2l0,0.2l0,0.1l0,0.1l0,0.1l0,0.1l0,0.1l0,0.1l0,0.1l0,0.1l0,0.1
		l0,0.1l0,0.1l0,0.1l0,0.1l0,0.1l0,0.1l0,0.1l0,0.1l0,0.1l0,0.1l0,0.1l0,0.1l0,0.1l0,0.1l0,0.1l0,0.1l0,0.1l0,0.1l0,0.1l0,0.1l0,0.1
		l0,0.1l0,0.1l0,0.1l0,0.1l0,0.1l0,0.1l0,0.1l0,0.1l0,0.1l0,0.1l0,0.1l0,0.1l0,0.1l0,0.1l0,0.1l0,0.1l0,0.1l0,0.1l0,0.1l0,0.1l0,0.1
		l0,0.1l0,0.1l0,0.1l0,0.1l0,0.1l0,0.1l0,0.1l0,0.1l0,0.1l0,0.1l0,0.1l0,0.1l0,0.1l0,0.1l0,0.1l0,0.1l0,0.1l0,0.1l0,0.1l0,0.1l0,0.1
		l0,0.1l0,0.1l0,0.1l0,0.1l0,0.1l0,0.1l0,0.1l0,0.1l0,0.1l0,0.1l0,0.1v0.1l0,0.1v0.1v0.1v0.1l0,0.1V39l0,0.1l0,0.1l0,0.1l0,0.1
		l0,0.2l0,0.2l0,0.2l0,0.2l0,0.2l0,0.2l0,0.2l0,0.2l0,0.2l0,0.2l0,0.2l0,0.2l0,0.2l0,0.2l0,0.2l0,0.2l0,0.2l0,0.2l0,0.2l0,0.2l0,0.2
		l0,0.2l0,0.2l0,0.2l0,0.2l0,0.2l0,0.2l0,0.2l0,0.2l0,0.2l0,0.2l0,0.2l0,0.2l0,0.2l0,0.2l0,0.2l0,0.2l0,0.2l0,0.2l0,0.2l0,0.2l0,0.2
		l0,0.2l0,0.2l0,0.2l0,0.2l0,0.2l0,0.2l0,0.2l0,0.2l0,0.2l0,0.2l0,0.2l0,0.2l0,0.2l0,0.2l0,0.2l-0.1,0.4l-0.1,0.4l-0.1,0.4l-0.1,0.4
		l-0.1,0.4l-0.1,0.4l-0.1,0.7l-0.1,0.7l-0.1,0.4l-0.1,0.4l-0.1,0.4l-0.1,0.4l-0.1,0.4l-0.1,0.4l0,0.2l0,0.2l0,0.2l0,0.2l0,0.2l0,0.2
		l0,0.2l0,0.2l0,0.2l0,0.2l0,0.2l0,0.2l0,0.2l0,0.2l0,0.2l0,0.2l0,0.2l0,0.2l0,0.2l0,0.2l0,0.2l0,0.2l0,0.2l0,0.2l0,0.2l0,0.2l0,0.2
		l0,0.2l0,0.2l0,0.2l0,0.2l0,0.2l0,0.2l0,0.2l0,0.2l0,0.2l0,0.2l0,0.2l0,0.2l0,0.2l0,0.2l0,0.2l0,0.2l0,0.2l0,0.2l0,0.2l0,0.2l0,0.2
		l0,0.2l0,0.2l0,0.2l0,0.2l0,0.2l0,0.2l0,0.2l0,0.2l0,0.2l0,0.3l0,0.3l0,0.3l0,0.3l0,0.3l0,0.3l0,0.3l0,0.3l0,0.3l0,0.3l0,0.3l0,0.3
		l0,0.3l0,0.3l0,0.3l0,0.3l0,0.1l0,0.1l0,0.1l0,0.1l0,0.1V73l0,0.1v0.1v0.1v0.1v0.1v0.1l0,0.1v0.1l0,0.1l0,0.1l0,0.1l0,0.1l0,0.1
		l0,0.1l0,0.1l0,0.1l0,0.1l0,0.1l0,0.1l0,0.1l0,0.1l0,0.2l0,0.2l0,0.2l0,0.2l0,0.2l0,0.2l0,0.2l0,0.2l0,0.2l0,0.2l0,0.2l0,0.2l0,0.2
		l0,0.2l0,0.2l0,0.2l0,0.2l0,0.2l0,0.2l0,0.2l0,0.2l0,0.2l0,0.2l0,0.2l0,0.2l0,0.2l0,0.2l0,0.2l0,0.2l0,0.2l0,0.2l0,0.2l0,0.2l0,0.2
		l0,0.2l0,0.2l0,0.2l0,0.2l0,0.2l0,0.2l0,0.2l0,0.2l0,0.2l0,0.2l0,0.2l0,0.2l0,0.2l0,0.2l0,0.2l0,0.2l0,0.2l0,0.2l0,0.2l0,0.2l0,0.2
		l0,0.2l0,0.2l0,0.2l0,0.2l0,0.2l0,0.2l0,0.2l0,0.2l0,0.2l0,0.2l0,0.2l0,0.2l0,0.1l0,0.1l0,0.1l0,0.1l0,0.1l0,0.1l0,0.1l0,0.1l0,0.1
		l0,0.1l0,0.1l0,0.1l0,0.1l0,0.1l0,0.1l0,0.1l0,0.1l0,0.1l0,0.1l0,0.1l0,0.1l0,0.1l0,0.1v0.1l0,0.1l0,0.1l0,0.1l0,0.1l0,0.1l0,0.1
		l0,0.1l0,0.1l0,0.1l0,0.1l0,0.1l0,0.1l0,0.1l0,0.1l0,0.1l0,0.1l0,0.1l0,0.1l0,0.1l0,0.1l0,0.1l0,0.1l0,0.1l0,0.1l0,0.1l0,0.1l0,0.1
		l0,0.1l0,0.1l0,0.1l0,0.1l0,0.1l0,0.1l0,0.1l0,0.1l0,0.1l0,0.1l0,0.1l0,0.1l0,0.1l0,0.1l0,0.1l0,0.1l0,0.1l0,0.1l0,0.1l0,0.1l0,0.1
		l0,0.1l0,0.1l0,0.1l0,0.1l0,0.1l0,0.1l0,0.1l0,0.1l0,0.1l0,0.1l0,0.1l0,0.1l0,0.1l0,0.1l0,0.1l0,0.1l0,0.1l0,0.1l0,0.1l0,0.1l0,0.1
		l0,0.1l0,0.1l0,0.1l0,0.1l0,0.1l0,0.1l0,0.1l0,0.1l0,0.1l0,0.1l0,0.1l0,0.1l0,0.1l0,0.1l0,0.1l0,0.1l0,0.1l0,0.1l0,0.1l0,0.1l0,0.1
		l0,0.1l0,0.1l0,0.1l0,0.1l0,0.1l0,0.1l0,0.1l0,0.1l0,0.1l0,0.1l0,0.1l0,0.1l0,0.1l0,0.1L133,103l-0.1,0.2l-0.1,0.2l-0.1,0.2
		l-0.1,0.2l-0.1,0.2l-0.1,0.2l-0.1,0.2l-0.1,0.2l-0.1,0.2l-0.1,0.2l-0.1,0.2l-0.1,0.2l-0.1,0.2l-0.1,0.2l-0.1,0.2l-0.1,0.2l-0.1,0.2
		l-0.1,0.2l-0.1,0.2l-0.1,0.2l-0.1,0.2l-0.1,0.2l-0.1,0.1l-0.1,0.1l-0.1,0.1l-0.1,0.1l-0.1,0.1l-0.1,0.1l-0.1,0.1l-0.1,0.1l-0.1,0.1
		l-0.1,0.1l-0.1,0.1l-0.1,0.1l0,0.1l0,0.1l0,0.1l0,0.1l0,0.1l0,0.1l0,0.1l0,0.1l0,0.1l-0.1,0.2l-0.1,0.1l-0.1,0.1l-0.1,0.1l0,0.1
		l0,0.1l0,0.1l0,0l0,0l0,0.1l0,0.1l0,0.1l0,0.1l0,0.1l0,0.1l0,0.1l0,0.1l0,0.1l0,0.1l0,0.1l0,0.1l0,0.1l0,0.1l0,0.1l0,0.1l0,0.1
		l0,0.1l0,0.1l0,0.1l0,0.1l0,0.1l0,0.1l0,0.1l0,0.1l0,0.1l0,0.1l-0.1,0.1l0,0.1l-0.1,0.1l-0.1,0.1l-0.1,0.1l-0.1,0.1l-0.1,0.1
		l-0.1,0.1l-0.1,0.1l-0.1,0.1l-0.1,0.1l-0.1,0.1l-0.1,0.1l-0.1,0.1l-0.1,0.1l-0.1,0.1l-0.1,0.1l-0.1,0.1l-0.1,0.1l-0.1,0.1l-0.1,0.1
		l-0.1,0.1l-0.1,0.1l-0.1,0.1l-0.1,0.1l-0.1,0.1l-0.1,0.1l-0.1,0.1l-0.1,0.1l-0.1,0.1l-0.1,0.1l-0.1,0.1l-0.1,0.1L127,115l-0.1,0.1
		l-0.1,0.1l-0.1,0.1l-0.1,0.1l-0.1,0.1l-0.1,0.1l-0.1,0.1l-0.1,0.1l-0.1,0.1l-0.1,0.1l-0.1,0.1l-0.1,0.1l-0.1,0.1l-0.1,0.1l-0.1,0.1
		l-0.1,0.1l-0.1,0.1l-0.1,0.1l-0.1,0.1l-0.1,0.1l-0.1,0.1l-0.1,0.1l-0.1,0.1l-0.1,0.1l-0.1,0.1l-0.1,0.1l-0.1,0.1l-0.1,0.1l-0.1,0.1
		l-0.1,0.1l-0.1,0.1l-0.1,0.1l-0.1,0.1l-0.1,0.1l-0.1,0.1l-0.1,0.1l-0.1,0.1l-0.1,0.1l-0.1,0.1l-0.1,0.1l-0.1,0.1l-0.1,0.1l-0.1,0.1
		l-0.1,0.1l-0.1,0.1l-0.1,0.1l-0.1,0.1l-0.1,0.1l-0.1,0.1l-0.1,0.1l-0.1,0.1l-0.1,0.1l-0.1,0.1l-0.1,0.1l-0.1,0.1l-0.1,0.1l-0.1,0.1
		l-0.1,0.1l-0.1,0.1l-0.1,0.1l-0.1,0.1l-0.1,0.1l-0.1,0.1l-0.1,0.1l-0.1,0.1l-0.1,0.1l-0.1,0.1l-0.1,0.1l-0.1,0.1l-0.1,0.1l-0.1,0.1
		l-0.1,0.1l-0.1,0.1l-0.1,0.1l-0.1,0.1l-0.1,0.1l-0.1,0.1l-0.1,0.1l-0.1,0.1l-0.1,0.1l-0.1,0.1l-0.1,0.1l-0.1,0.1l-0.1,0.1l-0.1,0.1
		l-0.1,0.1l-0.1,0.1l-0.1,0.1l-0.1,0.1l-0.1,0.1l-0.1,0.1l-0.1,0.1l-0.1,0.1l-0.1,0.1l-0.1,0.1l-0.1,0.1l-0.1,0l-0.1,0l-0.1,0
		l-0.1,0l-0.1,0l-0.1,0l-0.1,0l-0.1,0l-0.1,0l-0.1,0l-0.1,0l-0.1,0.1l-0.1,0.1l-0.1,0.1l-0.1,0.1l-0.1,0.1l-0.1,0.1l-0.1,0.1
		l-0.1,0.1l-0.1,0.1l-0.1,0.1l-0.1,0.1l-0.1,0.1l-0.1,0.1l-0.1,0.1l-0.1,0.1l-0.1,0.1l-0.1,0.1l-0.1,0.1l-0.1,0.1l-0.1,0.1l-0.1,0.1
		l-0.1,0.1l-0.1,0.1l-0.1,0.1l-0.1,0.1l-0.1,0.1l-0.1,0.1l-0.1,0.1l-0.1,0.1l-0.1,0.1l-0.1,0.1l-0.1,0.1l-0.1,0.1l-0.1,0.1l-0.1,0.1
		l-0.1,0.1l-0.1,0.1l-0.1,0.1l-0.1,0.1l-0.1,0.1l-0.1,0.1l-0.1,0.1l-0.1,0.1l-0.1,0.1l-0.1,0.1l-0.1,0.1l-0.1,0.1l-0.1,0.1l-0.1,0.1
		l-0.1,0.1l-0.1,0.1l-0.1,0.1l-0.1,0.1l-0.1,0.1l-0.1,0.1l-0.1,0.1l-0.1,0.1l-0.1,0.1l-0.1,0.1l-0.1,0.1l-0.1,0.1l-0.1,0.1l-0.1,0.1
		l-0.1,0.1l-0.1,0.1l-0.1,0.1l-0.1,0l-0.1,0l-0.1,0l-0.1,0l-0.1,0l-0.1,0l-0.1,0l-0.1,0l-0.1,0l-0.1,0l-0.1,0l-0.1,0l-0.1,0l-0.1,0
		l-0.1,0l-0.1,0l-0.1,0l-0.1,0l-0.1,0l-0.1,0l-0.1,0l-0.1,0l-0.1,0l-0.1,0l-0.1,0l-0.1,0l-0.1,0l-0.1,0l-0.1,0l-0.1,0l-0.1,0l-0.1,0
		l-0.1,0l-0.1,0l-0.1,0l-0.1,0l-0.1,0l-0.1,0l-0.1,0l-0.1,0l-0.1,0l-0.1,0l-0.1,0l-0.1,0l-0.1,0l-0.1,0l-0.1,0l-0.1,0l-0.1,0l-0.1,0
		l-0.1,0l-0.1,0l-0.1,0l-0.1,0l-0.1,0l-0.1,0l-0.1,0l-0.1,0l-0.1,0l-0.1,0l-0.2,0l-0.2,0l-0.2,0l-0.2,0l-0.2,0l-0.2,0l-0.2,0l-0.2,0
		l-0.2,0l-0.2,0l-0.1,0l-0.1,0l-0.1,0l-0.1,0l-0.1,0l-0.1,0l-0.1,0l-0.1,0l-0.1,0l-0.1,0l-0.1,0l-0.1,0l-0.1,0l-0.1,0l-0.1,0l-0.1,0
		l-0.1,0l-0.1,0l-0.1,0l-0.1,0l-0.1,0l-0.1,0l-0.1,0l-0.2,0l-0.2,0l-0.2,0l-0.2,0l-0.2,0l-0.2,0l-0.2,0l-0.2,0l-0.2,0l-0.2,0l-0.2,0
		l-0.2,0l-0.2,0l-0.2,0l-0.2,0l-0.2,0l-0.2,0l-0.2,0l-0.2,0l-0.2,0l-0.2,0l-0.2,0l-0.2,0l-0.2,0h-0.2l-0.2,0l-0.2,0l-0.2,0l-0.2,0
		l-0.2,0l-0.2,0l-0.2,0l-0.2,0l-0.2,0l-0.2,0l-0.2,0l-0.2,0l-0.2,0l-0.2,0l-0.2,0l-0.2,0l-0.2,0l-0.2,0l-0.2,0l-0.2,0l-0.2,0l-0.2,0
		l-0.2,0l-0.2,0l-0.2,0l-0.2,0l-0.2,0l-0.2,0l-0.2,0l-0.2,0l-0.2,0l-0.2,0l-0.2,0l-0.2,0l-0.2,0l-0.2,0l-0.2,0l-0.2,0l-0.2,0l-0.2,0
		l-0.2,0l-0.2,0l-0.2,0l-0.2,0l-0.2,0l-0.2,0l-0.2,0l-0.2,0l-0.2,0l-0.2,0l-0.2,0l-0.2,0l-0.2,0l-0.2,0l-0.2,0l-0.2,0l-0.2,0l-0.2,0
		l-0.2,0l-0.2,0l-0.2,0l-0.2,0l-0.2,0l-0.2,0l-0.2,0l-0.2,0l-0.2,0l-0.2,0l-0.2,0l-0.2,0l-0.2,0l-0.2,0l-0.2,0l-0.2,0l-0.2,0
		l-0.2-0.1l-0.2-0.1l-0.2-0.1l-0.2-0.1l-0.2-0.1l-0.2-0.1l-0.2-0.1l-0.2-0.1l-0.2-0.1l-0.2-0.1l-0.2-0.1l-0.2-0.1l-0.2-0.1l-0.2-0.1
		l-0.2-0.1l-0.2-0.1l-0.2-0.1l-0.2-0.1l-0.2-0.1l-0.2-0.1l-0.2-0.1l-0.2-0.1l-0.2-0.1l-0.2-0.1l-0.2-0.1l-0.2-0.1l-0.2-0.1l-0.2-0.1
		l-0.2-0.1l-0.2-0.1l-0.2-0.1l-0.2-0.1l-0.2-0.1l-0.2-0.1l-0.2-0.1l-0.2-0.1l-0.2-0.1l-0.2-0.1l-0.2-0.1l-0.2-0.1l-0.2-0.1l-0.2-0.1
		l-0.2-0.1l-0.2-0.1l-0.2-0.1l-0.2-0.1l-0.2-0.1l-0.2-0.1l-0.2-0.1l-0.2-0.1l-0.2-0.1l-0.2-0.1l-0.2-0.1l-0.2-0.1l-0.2-0.1l-0.2-0.1
		l-0.1-0.1l-0.1-0.1l-0.1-0.1l-0.1-0.1l-0.1-0.1l-0.1-0.1l-0.1-0.1l-0.1-0.1l-0.1-0.1l-0.1-0.1l-0.1-0.1l-0.1-0.1l-0.1-0.1l-0.1,0
		l-0.1,0l-0.1,0l-0.1,0l-0.1,0l-0.1,0l-0.1,0l-0.1,0l-0.1,0l-0.1,0l-0.1,0l-0.1,0l-0.1,0l-0.1,0l-0.1,0l-0.1,0l-0.1,0l-0.1,0l-0.1,0
		l-0.1,0l-0.1,0l-0.1,0l-0.1,0l-0.1,0l-0.1,0l-0.1,0l-0.1,0l-0.1,0l-0.1,0l-0.1,0l-0.1,0l-0.1,0l-0.1,0l-0.1,0l-0.1,0l-0.1,0l-0.1,0
		l-0.1,0l-0.1,0l-0.1,0l-0.1,0l-0.1,0l-0.1,0l-0.1,0l-0.1,0l-0.1,0l-0.1,0l-0.1,0l-0.1,0l-0.1,0l-0.1,0l-0.1,0l-0.1,0l-0.1,0l-0.1,0
		l-0.1,0l-0.1,0l-0.1,0l-0.1,0l-0.1,0l-0.1,0l-0.1,0l-0.1,0l-0.1,0l-0.1,0l-0.1-0.1l-0.1,0l-0.1,0l-0.1-0.1l-0.1-0.1l-0.1,0
		l-0.1-0.1l-0.1-0.1l-0.1-0.1l-0.1-0.1l-0.1-0.1l-0.1-0.1l-0.1-0.1l-0.1-0.1l-0.1-0.1l-0.1-0.1l-0.1-0.1l-0.1-0.1l-0.1-0.1l-0.1-0.1
		l-0.1-0.1l-0.1-0.1l0-0.1l-0.1-0.1l0-0.1l0-0.1l0-0.1l0-0.1l0-0.1l0-0.1l0-0.1l0-0.1l0-0.1l0-0.1l0-0.1l0-0.1l0-0.1l0-0.1l0-0.1
		l0-0.1l0-0.1l0-0.1l0-0.1l0-0.1l0-0.1l0-0.1l0-0.1l0-0.1l0-0.1l0-0.1l0-0.1l0-0.1l0-0.1l0-0.1l0-0.1l0-0.1l0-0.1l0-0.1l0-0.1l0-0.1
		l0-0.1l0-0.1l0-0.1l0-0.1l0-0.1l0-0.1l0-0.1l0-0.1l0-0.1l0-0.1l0-0.1l0-0.1l0-0.1l0-0.1l0-0.1l0-0.1l0-0.1l0-0.1l0-0.1l0-0.1l0-0.1
		l0-0.1l0-0.1l0-0.1l0-0.1l0-0.1l0-0.1l0-0.1l0-0.1l0-0.1l0-0.1l0-0.1l0-0.1l0-0.1l0-0.1l0-0.1l0-0.1l0-0.1l0-0.1l-0.1-0.1l-0.1-0.1
		l-0.1-0.1l-0.1-0.1l-0.1-0.1l-0.1-0.1L58,113l-0.1-0.1l-0.1-0.1l-0.1-0.1l-0.1-0.1l-0.1-0.1l-0.1-0.1l-0.1-0.1l-0.1-0.1l-0.1-0.1
		l-0.1-0.1l-0.1-0.1l-0.1-0.1l-0.1-0.1l-0.1-0.1l-0.1-0.1l-0.1-0.1l-0.1-0.1l-0.1-0.1l-0.1-0.1l-0.1-0.1l-0.1-0.1l-0.1-0.1l0-0.1
		l0-0.1l0-0.1l0-0.1l0-0.1l0-0.1l0-0.1l0-0.1l0-0.1l0-0.1l0-0.1l0-0.1l0-0.1l0-0.1l0-0.1l0-0.1l0-0.1l0-0.1l0-0.1l0-0.1l0-0.1l0-0.1
		l0-0.1l0-0.1l0-0.1l0-0.1l0-0.1l0-0.1l0-0.1l0-0.1l0-0.1l0-0.1l0-0.1l0-0.1l0-0.1l0-0.1l0-0.1l0-0.1l0-0.1l0-0.1l0-0.1l0-0.1l0-0.1
		l0-0.1l0-0.1l0-0.1l0-0.1l0-0.1l0-0.1l0-0.1l0-0.1l0-0.1l0-0.1l0-0.1l0-0.1l0-0.1l0-0.1l0-0.1l0-0.1l0-0.1l0-0.1l0-0.1l0-0.1l0-0.1
		l0-0.1l0-0.1l0-0.1l0-0.1l0-0.1l0-0.1l0-0.1l0-0.1l0-0.1l0-0.1l0-0.1l0-0.1l0-0.1l0-0.1l0-0.1l0-0.1l0-0.1l0-0.1l0-0.1l0-0.1l0-0.1
		l0-0.1l0-0.1l0-0.1l0-0.1l0-0.1l0-0.1l0-0.1l0-0.1l0-0.1l0-0.1l0-0.1l0-0.1l0-0.1l0-0.1l0-0.1l0-0.1l0-0.1l0-0.1l0-0.1l0-0.1l0-0.1
		l0-0.1l0-0.1l0-0.1l0-0.1l0-0.1l0-0.1l0-0.1l0-0.1l0-0.1l0-0.1l0-0.1l0-0.1l0-0.1l0-0.1l0-0.1l0-0.1l0-0.1l0-0.1l0-0.1l0-0.1l0-0.1
		l0-0.1l0-0.1l0-0.1l0-0.1l0-0.1l0-0.1l0-0.1l0-0.1l0-0.1v-0.1v-0.1V92v-0.1l0-0.1l0-0.1l0-0.1l0-0.1l0-0.2l0-0.2l0-0.2l0-0.2l0-0.2
		l0-0.2l0-0.2l0-0.2l0-0.2l0-0.2l0-0.2l0-0.2l0-0.2l0-0.2l0-0.2l0-0.2l0-0.2l0-0.2l0-0.2l0-0.2l0-0.2l0-0.2l0-0.2l0-0.2l0-0.2l0-0.2
		l0-0.2l0-0.2l0-0.2l0-0.2l0-0.2l0-0.2l0-0.2l0-0.2l0-0.2l0-0.2l0-0.2l0-0.2l0-0.2l0-0.2l0-0.2l0-0.2l0-0.2l0-0.2l0-0.2l0-0.2l0-0.2
		l0-0.2l0-0.2l0-0.2l0-0.2l0-0.2l0-0.2l0-0.2l0-0.2l0-0.2l0-0.2l0-0.2l0-0.2l0-0.4l0-0.4l0-0.4l0-0.4l0-0.4l0-0.4l0-0.4l0-0.4l0-0.4
		l0-0.4l0-0.4l0-0.4l0-0.1l0-0.1l0-0.1l0-0.1l0-0.1l0-0.1l0-0.1l0-0.1l0-0.1l0-0.1l0-0.1l0-0.1l0-0.1l0-0.1l0-0.1l0-0.1v-0.1v-0.1
		v-0.1l0-0.1l0-0.1l0-0.1l0-0.1l0-0.1l0-0.1l0-0.1l0-0.1l0-0.1l0-0.1l0-0.1l0-0.1l0-0.1l0-0.1l0-0.1l0-0.1l0-0.1l0-0.1l0-0.1l0-0.1
		l0-0.1l0-0.1l0-0.1l0-0.1l0-0.1l0-0.1l0-0.1l0-0.1l0-0.1l0-0.1l0-0.1l0-0.1l0-0.1l0-0.1l0-0.1l0-0.1l0-0.1l0-0.1l0-0.1l0-0.1l0-0.1
		l0-0.1l0-0.1l0-0.1l0-0.1l0-0.1l0-0.1l0-0.1l0-0.1l0-0.1l0-0.1l0-0.1l0-0.1l0-0.1l0-0.1l0-0.1l0-0.1l0-0.1l0-0.1l0-0.1l0-0.1l0-0.1
		l0-0.1l0-0.1l0-0.1l0-0.1l0-0.1l0-0.1l0-0.1l0-0.1l0-0.1l0-0.1l0-0.1l0-0.1l0-0.1l0-0.1l0-0.1l0-0.1l0-0.1l0-0.1l0-0.1L53,66.8
		L53,66.6l-0.1-0.2l-0.1-0.2l-0.1-0.2l-0.1-0.2l-0.1-0.2l-0.1-0.2l-0.1-0.2l-0.1-0.2l-0.1-0.2l-0.1-0.2L52.2,64l-0.1-0.2L52,63.5
		l-0.1-0.2l-0.1-0.2l-0.1-0.2l-0.1-0.2l-0.1-0.2l-0.2-0.5l-0.2-0.5L51.1,61l-0.2-0.5L50.8,60l-0.2-0.5l-0.2-0.5l-0.1-0.2l-0.1-0.2
		l-0.1-0.2l-0.1-0.2l-0.1-0.2L50,57.7l-0.1-0.2l-0.1-0.2L49.8,57l-0.1-0.2l-0.1-0.2l-0.1-0.2l-0.1-0.2l-0.1-0.2l-0.1-0.2l-0.1-0.2
		l-0.1-0.2L49.1,55l0-0.1l0-0.1l0-0.1l0-0.1l0-0.1l0-0.1l0-0.1l0-0.1l0-0.1l0-0.1l0-0.1l0-0.1l0-0.1l0-0.1l0-0.1l0-0.1l0-0.1l0-0.1
		l0-0.1l0-0.1l0-0.1l0-0.1l0-0.1l0-0.1l0-0.1l0-0.1l0-0.1l0-0.1l0-0.1l0-0.1l0-0.1l0-0.1l0-0.1l0-0.1l0-0.1l0-0.1l0-0.1l0-0.1l0-0.1
		l0-0.1l0-0.1l0-0.1l0-0.1l0-0.1l0-0.1l0-0.1l0-0.1l0-0.1l0-0.1l0-0.1l0-0.1l0-0.1l0-0.2l0-0.2l0-0.2l0-0.2l0-0.2l0-0.2l0-0.2l0-0.2
		l0-0.2l0-0.2l0-0.2l0-0.2l0-0.2l0-0.2l0-0.2l0-0.2l0-0.2l0-0.2l0-0.2l0-0.2l0-0.2l0-0.2l0-0.2l0-0.2l0-0.2l0-0.2l0-0.2l0-0.2l0-0.2
		l0-0.2l0-0.2l0-0.2l0-0.2l0-0.2l0-0.2l0-0.2l0-0.2l0-0.2l0-0.2l0-0.2l0-0.2l0-0.2l0-0.2l0-0.2l0-0.2v-0.2l0-0.2l0-0.2l0-0.2l0-0.2
		l0-0.2l0-0.2l0-0.2l0-0.2l0-0.2l0-0.2l0-0.2l0-0.2l0-0.2l0-0.2l0-0.2l0-0.2l0-0.2l0-0.1l0-0.1l0-0.1l0-0.1l0-0.1l0-0.1l0-0.1l0-0.1
		l0-0.1l0-0.1l0-0.1l0-0.1l0-0.1l0-0.1l0-0.1l0-0.1l0-0.1l0-0.1l0-0.1l0-0.1l0-0.1l0-0.1l0-0.1l0-0.1l0-0.1l0-0.1l0-0.1l0-0.1l0-0.1
		l0-0.1l0-0.1l0-0.1l0-0.1l0-0.1l0-0.1l0-0.1l0-0.1l0-0.1l0-0.1l0-0.1l0-0.1l0-0.1l0-0.1l0-0.1l0-0.1l0-0.1l0-0.1l0-0.1l0-0.1l0-0.1
		l0-0.1l0-0.1l0-0.1l0-0.1l0-0.1l0-0.1l0-0.1l0-0.1l0-0.1l0-0.1l0-0.1l0-0.1l0-0.1l0-0.1l0-0.1l0-0.1l0-0.1l0-0.1l0-0.1l0-0.1l0-0.1
		l0-0.1l0-0.1l0-0.1l0-0.1l0-0.1l0-0.1l0-0.1l0-0.1l0-0.1l0-0.1l0-0.1l0-0.1l0-0.1l0-0.1l0-0.1l0-0.1l0-0.1l0-0.1l0-0.1l0-0.1l0-0.1
		l0-0.1l0-0.1l0-0.1l0-0.1l0-0.1l0-0.1l0-0.1l0-0.1l0-0.1l0-0.1l0-0.1l0-0.1l0-0.1l0-0.1l0-0.1l0-0.1l0-0.1l0-0.1l0-0.1l0-0.1l0-0.1
		l0-0.1l0-0.1l0-0.1l0-0.1l0-0.1l0-0.1l0-0.1l0-0.1l0-0.1l0-0.1l0-0.1l0-0.1l0-0.1l0-0.1l0-0.1l0-0.1l0-0.1l0-0.1l0-0.1l0-0.1l0-0.1
		l0-0.1l0-0.1l0-0.1l0-0.1l0-0.1l0-0.1l0-0.1l0-0.1l0-0.1l0-0.1l0-0.1l0-0.1l0-0.1l0-0.1l0-0.1l0-0.1l0-0.1l0-0.1l0-0.1l0-0.1l0-0.1
		l0-0.1l0-0.1l0-0.1l0-0.1l0-0.1l0-0.1l0-0.1l0-0.1l0-0.1l0-0.1l0-0.1l0-0.1l0-0.1l0-0.1l0-0.1l0-0.1l0-0.1l0-0.1l0-0.1l0-0.1l0-0.1
		l0-0.1l0-0.1l0-0.1l0.1-0.1l0-0.1l0.1-0.1l0.1-0.1l0.1-0.1l0.1-0.1l0.1-0.1l0.1-0.1l0.1-0.1l0.1-0.1l0.1-0.1l0.1-0.1l0.1-0.1
		l0.1-0.1l0.1-0.1l0.1-0.1l0.1-0.1l0.1-0.1l0.1-0.1l0.1-0.1l0.1-0.1l0.1-0.1l0.1-0.1l0.1-0.1l0.1-0.1l0.1-0.1l0.1-0.1l0.1-0.1
		l0.1-0.1l0.1-0.1l0.1-0.1l0.1-0.1l0.1-0.1L54,13l0.1-0.1l0.1-0.1l0.1-0.1l0.1-0.1l0.1-0.1l0.1-0.1l0.1-0.1l0.1-0.1l0.1-0.1l0.1-0.1
		l0.1-0.1l0.1-0.1l0.1-0.1l0.1-0.1l0.1-0.1l0.1-0.1l0.1-0.1l0.1-0.1l0.1-0.1l0.1-0.1l0.1-0.1l0.1-0.1l0.1-0.1l0.1-0.1l0.1-0.1
		l0.1-0.1l0.1-0.1l0.1-0.1l0.1-0.1l0.1-0.1l0.1-0.1L56,10l0.1-0.1l0.1-0.1l0.1-0.1l0.1-0.1l0.1-0.1l0.1-0.1l0.1-0.1l0.1-0.1l0.1-0.1
		l0.1-0.1L56.8,9l0.1-0.1l0.1-0.1L57,8.8l0.1-0.1l0.1-0.1l0.1-0.1l0.1-0.1l0.1-0.1l0.1-0.1l0.1-0.1L57.6,8L57.7,8l0.1-0.1l0.1-0.1
		l0.1-0.1L58,7.6l0.1-0.1l0.1-0.1l0.1-0.1l0.1-0.1l0.1-0.1l0.1-0.1L58.5,7l0.1-0.1l0.1-0.1l0.1-0.1l0.1-0.1l0.1-0.1L59,6.5l0.1-0.1
		l0.1-0.1l0.1-0.1l0.1-0.1l0.1-0.1L59.5,6l0.1-0.1l0.1-0.1l0.1-0.1l0.1-0.1l0.1-0.1L60,5.5l0.1-0.1l0.1-0.1l0.1-0.1l0.1-0.1l0.1-0.1
		L60.5,5l0.1-0.1l0.1-0.1l0.1-0.1l0.1-0.1L61,4.6l0.1-0.1l0.1-0.1l0.1-0.1l0.1-0.1l0.1-0.1l0.1-0.1l0.1-0.1L61.7,4l0.1-0.1l0.1-0.1
		L62,3.8L62,3.7l0.1-0.1l0.1-0.1l0.1-0.1l0.1-0.1l0.1-0.1l0.1-0.1l0.1-0.1l0.1-0.1L62.9,3L63,2.9l0.1-0.1l0.1-0.1l0.1-0.1l0.1-0.1
		l0.1-0.1l0.1-0.1l0.1-0.1l0.1-0.1l0.1-0.1L64,2.2l0.1-0.1L64.2,2L64.3,2l0.1-0.1l0.1-0.1l0.1-0.1l0.1-0.1l0.1-0.1l0.1-0.1L65,1.5
		l0.1-0.1l0.1-0.1l0.1-0.1l0.1-0.1l0.1-0.1l0.1-0.1L65.7,1l0.1-0.1l0.1-0.1L66,0.8l0.1-0.1l0.1-0.1l0.1-0.1l0.1-0.1l0.1-0.1l0.1-0.1
		l0.1-0.1l0.1-0.1L67,0.2l0.1-0.1l0.1-0.1L67.3,0l0.1-0.1l0.1-0.1l0.1-0.1l0.1-0.1l0.1-0.1L68-0.4l0.1-0.1l0.1-0.1l0.1-0.1l0.1-0.1
		l0.1-0.1l0.1-0.1l0.1-0.1l0.1-0.1L69.1-1l0.3-0.1l0.3-0.1l0.3-0.1l0.3-0.1l0.3-0.1l0.3-0.1L70.9-2l0.3-0.1l0.3-0.1l0.3-0.1l0.3-0.1
		l0.3-0.1l0.1-0.1l0.1-0.1l0.1-0.1l0.1-0.1l0.1-0.1L73-3l0.1-0.1l0.1-0.1l0.1-0.1l0.1-0.1l0.1-0.1l0.1-0.1l0.1-0.1L74-3.5l0.1-0.1
		l0.1-0.1l0.1-0.1l0.1-0.1l0.1-0.1l0.1-0.1l0.1-0.1L75.1-4L75.2-4l0.1-0.1l0.1-0.1l0.1-0.1l0.1-0.1l0.1-0.1L76-4.4l0.1-0.1l0.1-0.1
		l0.1-0.1l0.1-0.1l0.1-0.1l0.1-0.1l0.1-0.1l0.1-0.1l0.1-0.1L77.3-5L77.5-5l0.1-0.1l0.1-0.1l0.1-0.1L78-5.2l0.1-0.1l0.1-0.1l0.1-0.1
		l0.1-0.1l0.1-0.1l0.1-0.1L79-5.6l0.1-0.1l0.1-0.1l0.1-0.1l0.1-0.1l0.1,0l0.1,0l0.1,0l0.1,0l0.1,0l0.1,0l0.1,0l0.1,0l0.1,0l0.1,0
		l0.1,0l0.1,0l0.1,0l0.1,0l0.1,0l0.1,0l0.1,0l0.1,0l0.1,0l0.1,0l0.1,0l0.1,0l0.1,0l0.1,0l0.1,0l0.1,0l0.1,0l0.1,0l0.1,0l0.1,0l0.1,0
		l0.1,0l0.1,0l0.1,0l0.1,0l0.1,0l0.1,0l0.1,0l0.1,0l0.1,0l0.1,0l0.1,0l0.1,0l0.1,0l0.1,0l0.1,0l0.1,0l0.1,0l0.1,0l0.1,0l0.1,0l0.1,0
		l0.1,0l0.1,0l0.1,0l0.1,0l0.1,0l0.1,0l0.1,0l0.1,0l0.1,0l0.1,0l0.1,0l0.1,0l0.1,0L88-8L88-8l0.1,0l0.1,0l0.1,0l0.1,0l0.1,0l0.1,0
		l0.1,0l0.1,0l0.1,0l0.1,0l0.1,0l0.1,0l0.1,0l0.1,0l0.1,0l0.1,0l0.1,0l0.1,0l0.1,0l0.1,0l0.1,0l0.1,0l0.1,0l0.1,0l0.1,0l0.1,0l0.1,0
		l0.1,0l0.1,0l0.1,0l0.1,0l0.1,0l0.1,0l0.1,0l0.1,0l0.1,0l0.1,0l0.1,0l0.1,0l0.1,0l0.1,0l0.1,0l0.1,0l0.1,0l0.1,0l0.1,0l0.1,0l0.1,0
		l0.1,0l0.1,0l0.1,0l0.1,0l0.1,0l0.1,0l0.1,0l0.1,0l0.1,0l0.1,0l0.1,0h0.1l0.1,0L94-8.4L94-8.4z M93.8-5.4L93.8-5.4l-0.2,0l-0.1,0
		l-0.1,0l-0.1,0l-0.1,0l-0.1,0l-0.1,0l-0.1,0l-0.1,0l-0.1,0l-0.1,0l-0.1,0l-0.1,0l-0.1,0l-0.1,0l-0.1,0l-0.1,0l-0.1,0l-0.1,0l-0.1,0
		l-0.1,0l-0.1,0l-0.1,0l-0.1,0l-0.1,0l-0.1,0l-0.1,0l-0.1,0l-0.1,0l-0.1,0l-0.1,0l-0.1,0l-0.1,0l-0.1,0l-0.1,0l-0.1,0l-0.1,0l-0.1,0
		l-0.1,0l-0.1,0l-0.1,0l-0.1,0l-0.1,0l-0.1,0l-0.1,0l-0.1,0l-0.1,0l-0.1,0l-0.1,0l-0.1,0l-0.1,0l-0.1,0l-0.1,0l-0.1,0l-0.1,0l-0.1,0
		l-0.1,0l-0.1,0l-0.1,0l-0.1,0l-0.1,0l-0.1,0l-0.1,0l-0.1,0L88-5l-0.1,0l-0.1,0l-0.1,0l-0.1,0l-0.1,0l-0.1,0l-0.1,0l-0.1,0l-0.1,0
		l-0.1,0l-0.1,0l-0.1,0l-0.1,0l-0.1,0l-0.1,0l-0.1,0l-0.1,0l-0.1,0l-0.1,0l-0.1,0l-0.1,0l-0.1,0l-0.1,0l-0.1,0l-0.1,0l-0.1,0l-0.1,0
		l-0.1,0l-0.1,0l-0.1,0l-0.1,0l-0.1,0l-0.1,0l-0.1,0l-0.1,0l-0.1,0l-0.1,0l-0.1,0l-0.1,0l-0.1,0l-0.1,0l-0.1,0l-0.1,0l-0.1,0l-0.1,0
		l-0.1,0l-0.1,0l-0.1,0l-0.1,0l-0.1,0l-0.1,0l-0.1,0l-0.1,0l-0.1,0l-0.1,0l-0.1,0l-0.1,0l-0.1,0l-0.1,0l-0.1,0l-0.1,0l-0.1,0l-0.1,0
		l-0.1,0l-0.1,0l-0.1,0l-0.1,0l-0.1,0l-0.1,0l-0.1,0l-0.1,0.1l-0.1,0.1l-0.1,0.1L79-2.4l-0.1,0.1l-0.1,0.1l-0.1,0.1l-0.1,0.1
		l-0.1,0.1l-0.1,0.1L78.1-2L78-2l-0.1,0.1l-0.1,0.1l-0.1,0.1l-0.1,0.1l-0.1,0.1l-0.1,0.1l-0.1,0.1l-0.1,0.1l-0.1,0.1l-0.1,0.1
		l-0.1,0.1l-0.1,0.1l-0.1,0.1l-0.1,0.1l-0.1,0.1l-0.1,0.1L75.8-1L75.7-1l-0.1,0.1l-0.1,0.1l-0.1,0.1l-0.1,0.1L75-0.7l-0.1,0.1
		l-0.1,0.1l-0.1,0.1l-0.1,0.1l-0.1,0.1l-0.1,0.1l-0.1,0.1L74-0.2l-0.1,0.1L73.8,0L73.7,0l-0.1,0.1l-0.3,0.1L73,0.3l-0.3,0.1
		l-0.3,0.1l-0.3,0.1L72,0.8L71.8,1l-0.3,0.1l-0.3,0.1L71,1.4l-0.3,0.1l-0.3,0.1l-0.3,0.1l-0.1,0.1l-0.1,0.1l-0.1,0.1L69.8,2
		l-0.1,0.1l-0.1,0.1l-0.1,0.1l-0.1,0.1l-0.1,0.1l-0.1,0.1l-0.1,0.1L69,2.5l-0.1,0.1l-0.1,0.1l-0.1,0.1l-0.1,0.1l-0.1,0.1l-0.1,0.1
		l-0.1,0.1l-0.1,0.1L68.1,3L68,3.1l-0.1,0.1l-0.1,0.1l-0.1,0.1l-0.1,0.1l-0.1,0.1l-0.1,0.1l-0.1,0.1l-0.1,0.1l-0.1,0.1L67,3.7
		l-0.1,0.1l-0.1,0.1l-0.1,0.1L66.7,4L66.6,4l-0.1,0.1l-0.1,0.1l-0.1,0.1l-0.1,0.1l-0.1,0.1L66,4.4l-0.1,0.1l-0.1,0.1l-0.1,0.1
		l-0.1,0.1l-0.1,0.1l-0.1,0.1l-0.1,0.1l-0.1,0.1L65.2,5l-0.1,0.1L65,5.1l-0.1,0.1l-0.1,0.1l-0.1,0.1l-0.1,0.1l-0.1,0.1l-0.1,0.1
		l-0.1,0.1l-0.1,0.1l-0.1,0.1l-0.1,0.1l-0.1,0.1L64,6l-0.1,0.1l-0.1,0.1l-0.1,0.1l-0.1,0.1l-0.1,0.1l-0.1,0.1l-0.1,0.1l-0.1,0.1
		l-0.1,0.1l-0.1,0.1l-0.1,0.1L63,6.8l-0.1,0.1L62.8,7l-0.1,0.1l-0.1,0.1l-0.1,0.1l-0.1,0.1l-0.1,0.1l-0.1,0.1l-0.1,0.1l-0.1,0.1
		l-0.1,0.1L62,7.7l-0.1,0.1l-0.1,0.1L61.8,8L61.7,8l-0.1,0.1l-0.1,0.1l-0.1,0.1l-0.1,0.1l-0.1,0.1l-0.1,0.1l-0.1,0.1l-0.1,0.1
		L61,8.7L61,8.8l-0.1,0.1L60.8,9l-0.1,0.1l-0.1,0.1l-0.1,0.1l-0.1,0.1l-0.1,0.1l-0.1,0.1l-0.1,0.1l-0.1,0.1l-0.1,0.1l-0.1,0.1
		L60,9.8L60,9.9L59.9,10l-0.1,0.1l-0.1,0.1l-0.1,0.1l-0.1,0.1l-0.1,0.1l-0.1,0.1l-0.1,0.1l-0.1,0.1l-0.1,0.1l-0.1,0.1l-0.1,0.1
		L59.1,11L59,11.1l-0.1,0.1l-0.1,0.1l-0.1,0.1l-0.1,0.1l-0.1,0.1l-0.1,0.1l-0.1,0.1l-0.1,0.1l-0.1,0.1l-0.1,0.1L58.3,12l-0.1,0.1
		l-0.1,0.1l-0.1,0.1l-0.1,0.1L58,12.4l-0.1,0.1l-0.1,0.1l-0.1,0.1l-0.1,0.1l-0.1,0.1l-0.1,0.1L57.6,13l-0.1,0.1l-0.1,0.1l-0.1,0.1
		l-0.1,0.1l-0.1,0.1l-0.1,0.1l-0.1,0.1l-0.1,0.1l-0.1,0.1L57,13.9L56.9,14l-0.1,0.1l-0.1,0.1l-0.1,0.1l-0.1,0.1l-0.1,0.1l-0.1,0.1
		l-0.1,0.1l-0.1,0.1l-0.1,0.1l-0.1,0.1L56.3,15L56.3,15l-0.1,0.1l-0.1,0.1l-0.1,0.1l-0.1,0.1L56,15.5L56,15.6l-0.1,0.1l-0.1,0.1
		l-0.1,0.1L55.8,16L55.7,16l-0.1,0.1l0,0.1l-0.1,0.1l0,0.1l0,0.1l0,0.1l0,0.1l0,0.1l0,0.1l0,0.1l0,0.1l0,0.1l0,0.1l0,0.1l0,0.1
		l0,0.1l0,0.1l0,0.1l0,0.1l0,0.1l0,0.1l0,0.1l0,0.1l0,0.1l0,0.1l0,0.1l0,0.1l0,0.1l0,0.1l0,0.1l0,0.1l0,0.1l0,0.1l0,0.1l0,0.1l0,0.1
		l0,0.1l0,0.1l0,0.1l0,0.1l0,0.1l0,0.1l0,0.1l0,0.1l0,0.1l0,0.1l0,0.1l0,0.1l0,0.1l0,0.1l0,0.1l0,0.1l0,0.1l0,0.1l0,0.1l0,0.1l0,0.1
		l0,0.1l0,0.1l0,0.1l0,0.1l0,0.1l0,0.1l0,0.1l0,0.1l0,0.1l0,0.1l0,0.1l0,0.1l0,0.1l0,0.1l0,0.1l0,0.1l0,0.1l0,0.1l0,0.1l0,0.1l0,0.1
		l0,0.1l0,0.1l0,0.1l0,0.1l0,0.1l0,0.1l0,0.1l0,0.1l0,0.1l0,0.1l0,0.1l0,0.1l0,0.1l0,0.1l0,0.1l0,0.1l0,0.1l0,0.1l0,0.1l0,0.1l0,0.1
		l0,0.1l0,0.1l0,0.1l0,0.1l0,0.1l0,0.1l0,0.1l0,0.1l0,0.1l0,0.1l0,0.1l0,0.1l0,0.1l0,0.1l0,0.1l0,0.1l0,0.1l0,0.1l0,0.1l0,0.1l0,0.1
		l0,0.1l0,0.1l0,0.1l0,0.1l0,0.1l0,0.1l0,0.1l0,0.1l0,0.1l0,0.1l0,0.1l0,0.1l0,0.1l0,0.1l0,0.1l0,0.1l0,0.1l0,0.1l0,0.1l0,0.1l0,0.1
		l0,0.1l0,0.1l0,0.1l0,0.1l0,0.1l0,0.1l0,0.1l0,0.1l0,0.1l0,0.1l0,0.1l0,0.1l0,0.1l0,0.1l0,0.1l0,0.1l0,0.1l0,0.1l0,0.1l0,0.1l0,0.1
		l0,0.1l0,0.1l0,0.1l0,0.1l0,0.1l0,0.1l0,0.1l0,0.1l0,0.1l0,0.1l0,0.1l0,0.1l0,0.1l0,0.1l0,0.1l0,0.1l0,0.1l0,0.1l0,0.1l0,0.1l0,0.1
		l0,0.1l0,0.1l0,0.1l0,0.1l0,0.1l0,0.1l0,0.1l0,0.1l0,0.1l0,0.1l0,0.1l0,0.1l0,0.1l0,0.1l0,0.2l0,0.2l0,0.2l0,0.2l0,0.2l0,0.2l0,0.2
		l0,0.2l0,0.2l0,0.2l0,0.2l0,0.2l0,0.2l0,0.2l0,0.2l0,0.2l0,0.2v0.2l0,0.2l0,0.2l0,0.2l0,0.2l0,0.2l0,0.2l0,0.2l0,0.2l0,0.2l0,0.2
		l0,0.2l0,0.2l0,0.2l0,0.2l0,0.2l0,0.2l0,0.2l0,0.2l0,0.2l0,0.2l0,0.2l0,0.2l0,0.2l0,0.2l0,0.2l0,0.2l0,0.2l0,0.2l0,0.2l0,0.2l0,0.2
		l0,0.2l0,0.2l0,0.2l0,0.2l0,0.2l0,0.2l0,0.2l0,0.2l0,0.2l0,0.2l0,0.2l0,0.2l0,0.2l0,0.2l0,0.1l0,0.1l0,0.1l0,0.1l0,0.1l0,0.1l0,0.1
		l0,0.1l0,0.1l0,0.1l0,0.1l0,0.1l0,0.1l0,0.1l0,0.1l0,0.1l0,0.1l0,0.1l0,0.1l0,0.1l0,0.1l0,0.1l0,0.1l0,0.1l0,0.1l0,0.1l0,0.1l0,0.1
		l0,0.1l0,0.1l0,0.1l0,0.1l0,0.1l0,0.1l0,0.1l0,0.1l0,0.1l0,0.1l0,0.1l0,0.1l0,0.1l0,0.1l0,0.1l0,0.1l0,0.1l0,0.1l0,0.1l0,0.1l0,0.1
		l0,0.1l0,0.1l0,0.1l0.1,0.2l0.1,0.2l0.1,0.2l0.1,0.2l0.1,0.2l0.1,0.2l0.1,0.2l0.1,0.2l0.1,0.2l0.1,0.2l0.1,0.2l0.1,0.2l0.1,0.2
		l0.1,0.2l0.1,0.2l0.1,0.2l0.1,0.2l0.1,0.2l0.2,0.5l0.2,0.5l0.2,0.5l0.2,0.5l0.2,0.5l0.2,0.5l0.2,0.5l0.1,0.2l0.1,0.2l0.1,0.2
		l0.1,0.2l0.1,0.2l0.1,0.2l0.1,0.2l0.1,0.2l0.1,0.2l0.1,0.2l0.1,0.2l0.1,0.2l0.1,0.2l0.1,0.2l0.1,0.2l0.1,0.2l0.1,0.2l0.1,0.2
		l0.1,0.2l0.1,0.2l0,0.1l0,0.1l0,0.1l0,0.1l0,0.1l0,0.1l0,0.1l0,0.1l0,0.1l0,0.1l0,0.1l0,0.1l0,0.1l0,0.1l0,0.1l0,0.1l0,0.1l0,0.1
		l0,0.1l0,0.1l0,0.1l0,0.1l0,0.1l0,0.1l0,0.1l0,0.1l0,0.1l0,0.1l0,0.1l0,0.1l0,0.1l0,0.1l0,0.1l0,0.1l0,0.1l0,0.1l0,0.1l0,0.1l0,0.1
		l0,0.1l0,0.1l0,0.1l0,0.1l0,0.1l0,0.1l0,0.1l0,0.1l0,0.1l0,0.1l0,0.1l0,0.1l0,0.1l0,0.1l0,0.1l0,0.1l0,0.1l0,0.1l0,0.1l0,0.1l0,0.1
		l0,0.1l0,0.1l0,0.1l0,0.1l0,0.1l0,0.1l0,0.1l0,0.1l0,0.1l0,0.1l0,0.1l0,0.1l0,0.1l0,0.1l0,0.1l0,0.1l0,0.1l0,0.1l0,0.1l0,0.1l0,0.1
		l0,0.1v0.1l0,0.1l0,0.1l0,0.1l0,0.1l0,0.1l0,0.1l0,0.1l0,0.1l0,0.1l0,0.1l0,0.1l0,0.1l0,0.1l0,0.1l0,0.1l0,0.1l0,0.1l0,0.4l0,0.4
		l0,0.4l0,0.4l0,0.4l0,0.4l0,0.4l0,0.4l0,0.4l0,0.4l0,0.4l0,0.4l0,0.2l0,0.2l0,0.2l0,0.2l0,0.2l0,0.2l0,0.2l0,0.2l0,0.2l0,0.2l0,0.2
		l0,0.2l0,0.2l0,0.2l0,0.2l0,0.2l0,0.2l0,0.2l0,0.2l0,0.2l0,0.2l0,0.2l0,0.2l0,0.2l0,0.2l0,0.2l0,0.2l0,0.2l0,0.2l0,0.2l0,0.2l0,0.2
		l0,0.2l0,0.2l0,0.2l0,0.2l0,0.2l0,0.2l0,0.2l0,0.2l0,0.2l0,0.2l0,0.2l0,0.2l0,0.2l0,0.2l0,0.1l0,0.1l0,0.1l0,0.1l0,0.1l0,0.1l0,0.1
		l0,0.1l0,0.1l0,0.1l0,0.1l0,0.1l0,0.1l0,0.1l0,0.1l0,0.1l0,0.1V92v0.1v0.1v0.1l0,0.1l0,0.1l0,0.1l0,0.1l0,0.1l0,0.1l0,0.1l0,0.1
		l0,0.1l0,0.1l0,0.1l0,0.1l0,0.1l0,0.1l0,0.1l0,0.1l0,0.1l0,0.1l0,0.1l0,0.1l0,0.1l0,0.1l0,0.1l0,0.1l0,0.1l0,0.1l0,0.1l0,0.1l0,0.1
		l0,0.1l0,0.1l0,0.1l0,0.1l0,0.1l0,0.1l0,0.1l0,0.1l0,0.1l0,0.1l0,0.1l0,0.1l0,0.1l0,0.1l0,0.1l0,0.1l0,0.1l0,0.1l0,0.1l0,0.1l0,0.1
		l0,0.1l0,0.1l0,0.1l0,0.1l0,0.1l0,0.1l0,0.1l0,0.1l0,0.1l0,0.1l0,0.1l0,0.1l0,0.1l0,0.1l0,0.1l0,0.1l0,0.1l0,0.1l0,0.1l0,0.1l0,0.1
		l0,0.1l0,0.1l0,0.1l0,0.1l0,0.1l0,0.1l0,0.1l0,0.1l0,0.1l0,0.1l0,0.1l0,0.1l0,0.1l0,0.1l0,0.1l0,0.1l0,0.1l0,0.1l0,0.1l0,0.1l0,0.1
		l0,0.1l0,0.1l0,0.1l0,0.1l0,0.1l0,0.1l0,0.1l0,0.1l0,0.1l0,0.1l0,0.1l0,0.1l0,0.1l0,0.1l0,0.1l0,0.1l0,0.1l0,0.1l0,0.1l0,0.1l0,0.1
		l0,0.1l0,0.1l0,0.1l0,0.1l0,0.1l0,0.1l0,0.1l0,0.1l0,0.1l0,0.1l0,0.1l0,0.1l0,0.1l0,0.1l0,0.1l0,0.1l0,0.1l0,0.1l0,0.1l0,0.1l0,0.1
		l0,0.1l0,0.1l0,0.1l0,0.1l0,0.1l0,0.1l0,0.1l0,0.1L60,110l0,0.1l0.1,0.1l0.1,0.1l0.1,0.1l0.1,0.1l0.1,0.1l0.1,0.1l0.1,0.1l0.1,0.1
		l0.1,0.1l0.1,0.1l0.1,0.1l0.1,0.1l0.1,0.1l0.1,0.1l0.1,0.1l0.1,0.1l0.1,0.1l0.1,0.1l0.1,0.1l0.1,0.1l0.1,0.1l0,0l0,0l0,0l0,0l0,0
		l0,0l0,0l0,0l0,0l0,0l0,0l0,0l0,0l0,0l0,0l0,0l0,0l0,0l0,0l0,0l0,0l0,0l0,0l0,0l0,0l0,0l0,0l0,0l0,0l0,0l0,0l0,0l0,0l0,0l0,0l0,0
		l0,0l0,0l0,0l0,0l0,0l0,0l0,0l0,0l0,0l0,0l0,0l0,0l0,0l0,0l0,0l0,0l0,0l0,0l0,0l0,0l0,0l0,0l0,0l0,0l0,0l0,0l0,0l0,0l0,0l0,0l0,0
		l0,0l0,0l0,0l0,0l0,0l0,0l0,0l0,0l0,0l0,0l0,0l0,0l0,0l0,0l0,0l0,0l0,0l0,0l0,0l0,0l0,0l0,0l0,0l0,0l0,0l0,0l0,0l0,0l0,0l0,0l0,0
		l0,0l0,0l0,0l0,0l0,0l0,0l0.1,0l0.1,0l0,0l0.1,0l0.1,0l0.1,0l0.1,0l0.1,0l0.1,0l0.1,0l0.1,0l0.1,0l0.1,0l0.1,0l0.1,0l0.1,0l0.1,0
		l0.1,0l0.1,0l0.1,0l0.1,0l0.1,0l0.1,0l0.1,0l0.1,0l0.1,0l0.1,0l0.1,0l0.1,0l0.1,0l0.1,0l0.1,0l0.1,0l0.1,0l0.1,0l0.1,0l0.1,0l0.1,0
		l0.1,0l0.1,0l0.1,0l0.1,0l0.1,0l0.1,0l0.1,0l0.1,0l0.1,0l0.1,0l0.1,0l0.1,0l0.1,0l0.1,0l0.1,0l0.1,0l0.1,0l0.1,0l0.1,0l0.1,0l0.1,0
		l0.1,0l0.1,0.1l0.1,0.1l0.1,0.1l0.1,0.1l0.1,0.1l0.1,0.1l0.1,0.1l0.1,0.1l0.1,0.1l0.1,0.1l0.1,0.1l0.1,0.1l0.1,0.1l0.1,0.1l0.1,0.1
		l0.1,0.1l0.1,0.1l0.1,0.1l0.1,0.1l0.1,0.1l0.1,0.1l0.1,0.1l0.1,0.1l0.1,0.1l0.1,0.1l0.1,0.1l0.1,0.1l0.1,0.1l0.1,0.1l0.2,0.1
		l0.2,0.1l0.2,0.1l0.2,0.1l0.2,0.1l0.2,0.1l0.2,0.1l0.2,0.1l0.2,0.1l0.2,0.1l0.2,0.1l0.2,0.1l0.2,0.1l0.2,0.1l0.2,0.1l0.2,0.1
		l0.2,0.1l0.2,0.1l0.2,0.1l0.2,0.1l0.2,0.1l0.2,0.1l0.2,0.1l0.2,0.1l0.2,0.1l0.2,0.1l0.2,0.1l0.2,0.1l0.2,0.1l0.2,0.1l0.2,0.1
		l0.2,0.1l0.2,0.1l0.2,0.1l0.2,0.1l0.2,0l0.2,0l0.2,0l0.2,0l0.2,0l0.2,0l0.2,0l0.2,0l0.2,0l0.2,0l0.2,0l0.2,0l0.2,0l0.2,0l0.2,0
		l0.2,0l0.2,0l0.2,0l0.2,0l0.2,0l0.2,0l0.2,0l0.2,0l0.2,0l0.2,0l0.2,0l0.2,0l0.2,0l0.2,0l0.2,0l0.2,0l0.2,0l0.2,0l0.2,0l0.2,0l0.2,0
		l0.2,0l0.2,0l0.2,0l0.2,0l0.2,0l0.2,0l0.2,0l0.2,0l0.2,0l0.2,0l0.2,0l0.2,0l0.2,0l0.2,0l0.2,0l0.2,0l0.2,0l0.2,0l0.2,0l0.2,0l0.2,0
		l0.2,0l0.2,0l0.2,0l0.2,0l0.2,0l0.2,0l0.2,0l0.2,0l0.2,0l0.2,0l0.2,0l0.2,0l0.2,0l0.2,0l0.2,0l0.2,0l0.2,0l0.2,0l0.2,0l0.2,0l0.2,0
		l0.2,0l0.2,0h0.2l0.2,0l0.2,0l0.2,0l0.2,0l0.2,0l0.2,0l0.2,0l0.2,0l0.2,0l0.2,0l0.2,0l0.2,0l0.2,0l0.2,0l0.2,0l0.2,0l0.2,0l0.2,0
		l0.2,0l0.2,0l0.2,0l0.2,0l0.2,0l0.2,0l0.1,0l0.1,0l0.1,0l0.1,0l0.1,0l0.1,0l0.1,0l0.1,0l0.1,0l0.1,0l0.1,0l0.1,0l0.1,0l0.1,0l0.1,0
		l0.1,0l0.1,0l0.1,0l0.1,0l0.1,0l0.1,0l0.1,0l0.1,0l0.1,0l0.1,0l0.1,0l0.2,0l0.2,0l0.2,0l0.2,0l0.2,0l0.2,0l0.2,0l0.1,0l0.1,0l0.1,0
		l0.1,0l0.1,0l0.1,0l0.1,0l0.1,0l0.1,0l0.1,0l0.1,0l0.1,0l0.1,0l0.1,0l0.1,0l0.1,0l0.1,0l0.1,0l0.1,0l0.1,0l0.1,0l0.1,0l0.1,0l0.1,0
		l0.1,0l0.1,0l0.1,0l0.1,0l0.1,0l0.1,0l0.1,0l0.1,0l0.1,0l0.1,0l0.1,0l0.1,0l0.1,0l0.1,0l0.1,0l0.1,0l0.1,0l0.1,0l0.1,0l0.1,0l0.1,0
		l0.1,0l0.1,0l0.1,0l0.1,0l0.1,0l0.1,0l0.1,0l0.1,0l0.1,0l0.1,0l0.1,0l0.1,0l0.1,0l0.1,0l0.1,0l0.1,0l0.1,0l0.1,0l0.1,0l0.1,0l0.1,0
		l0.1-0.1l0.1-0.1l0.1-0.1l0.1-0.1l0.1-0.1l0.1-0.1l0.1-0.1l0.1-0.1l0.1-0.1l0.1-0.1l0.1-0.1l0.1-0.1l0.1-0.1l0.1-0.1l0.1-0.1
		l0.1-0.1l0.1-0.1l0.1-0.1l0.1-0.1l0.1-0.1l0.1-0.1l0.1-0.1l0.1-0.1l0.1-0.1l0.1-0.1l0.1-0.1l0.1-0.1l0.1-0.1l0.1-0.1l0.1-0.1
		l0.1-0.1l0.1-0.1l0.1-0.1l0.1-0.1l0.1-0.1l0.1-0.1l0.1-0.1l0.1-0.1l0.1-0.1l0.1-0.1l0.1-0.1l0.1-0.1l0.1-0.1l0.1-0.1l0.1-0.1
		l0.1-0.1l0.1-0.1l0.1-0.1l0.1-0.1l0.1-0.1l0.1-0.1l0.1-0.1l0.1-0.1l0.1-0.1l0.1-0.1l0.1-0.1l0.1-0.1l0.1-0.1l0.1-0.1l0.1-0.1l0.1,0
		l0.1,0l0.1,0l0.1,0l0.1,0l0.1,0l0.1,0l0.1,0l0.1,0l0.1,0l0.1,0l0.1,0l0.1,0l0.1,0l0.1,0l0.1,0l0.1,0l0.1,0l0.1,0l0.1,0l0.1,0l0.1,0
		l0.1,0l0.1,0l0.1,0l0.1,0l0.1,0l0.1,0l0.1,0l0.1,0l0.1,0l0.1,0l0.1-0.1l0.1,0l0.1,0l0.1-0.1l0.1-0.1l0.1-0.1l0.1-0.1l0.1-0.1
		l0.1-0.1l0.1-0.1l0.1-0.1l0.1-0.1l0.1-0.1l0.1-0.1l0.1-0.1l0.1-0.1l0.1-0.1l0.1-0.1l0.1-0.1l0.1-0.1l0.1-0.1l0.1-0.1l0.1-0.1
		l0.1-0.1l0.1-0.1l0.1-0.1l0.1-0.1l0.1-0.1l0.1-0.1l0.1-0.1l0.1-0.1l0.1-0.1l0.1-0.1l0.1-0.1l0.1-0.1l0.1-0.1l0.1-0.1l0.1-0.1
		l0.1-0.1l0.1-0.1l0.1-0.1l0.1-0.1l0.1-0.1l0.1-0.1l0.1-0.1l0.1-0.1l0.1-0.1l0.1-0.1l0.1-0.1l0.1-0.1l0.1-0.1l0.1-0.1l0.1-0.1
		l0.1-0.1l0.1-0.1l0.1-0.1l0.1-0.1l0.1-0.1l0.1-0.1l0.1-0.1l0.1-0.1l0.1-0.1l0.1-0.1l0.1-0.1l0.1-0.1l0.1-0.1l0.1-0.1l0.1-0.1
		l0.1-0.1l0.1-0.1l0.1-0.1l0.1-0.1l0.1-0.1l0.1-0.1l0.1-0.1l0.1-0.1l0.1-0.1l0.1-0.1l0.1-0.1l0.1-0.1l0-0.1l0-0.1l0.1-0.1l0-0.1
		l0-0.1l0-0.1l0-0.1l0-0.1l0-0.1l0-0.1l0-0.1l0-0.1l0-0.1l0-0.1l0-0.1l0-0.1l0-0.1l0-0.1l0-0.1l0-0.1l0-0.1l0-0.1l0-0.1l0-0.1l0-0.1
		l0-0.1l0-0.1l0-0.1l0-0.1l0-0.1l0-0.1l0-0.1l0-0.1l0-0.1l0-0.1l0-0.1l0-0.1l0-0.1l0-0.1l0-0.1l0-0.1l0-0.1l0-0.1l0-0.1l0-0.1l0-0.1
		l0-0.1l0-0.1l0-0.1l0-0.1l0-0.1l0-0.1l0-0.1l0-0.1l0-0.1l0-0.1l0,0l0,0l0-0.1l0-0.1l0-0.1l0-0.1l0.1-0.1l0.1-0.1l0.1-0.1l0-0.1
		l0-0.1l0-0.1l0-0.1l0-0.1l0-0.1l0-0.1l0-0.1l0-0.1l0-0.1l0-0.1l0.1-0.1l0.1-0.1l0.1-0.1l0.1-0.1l0.1-0.1l0.1-0.1l0.1-0.1l0.1-0.1
		l0.1-0.1l0.1-0.1l0.1-0.1l0.1-0.1l0.1-0.1l0.1-0.2l0.1-0.2l0.1-0.2l0.1-0.2l0.1-0.2l0.1-0.2l0.1-0.2l0.1-0.2l0.1-0.2l0.1-0.2
		l0.1-0.2l0.1-0.2l0.1-0.2l0.1-0.2l0.1-0.2l0.1-0.2l0.1-0.2l0.1-0.2l0.1-0.2l0.1-0.2l0-0.1l0-0.1l0-0.1l0-0.1l0-0.1l0-0.1l0-0.1
		l0-0.1l0-0.1l0-0.1l0-0.1l0-0.1l0-0.1l0-0.1l0-0.1l0-0.1l0-0.1l0-0.1l0-0.1l0-0.1l0-0.1l0-0.1l0-0.1l0-0.1l0-0.1l0-0.1l0-0.1l0-0.1
		l0-0.1l0-0.1l0-0.1l0-0.1l0-0.1l0-0.1l0-0.1l0-0.1l0-0.1l0-0.1l0-0.1l0-0.1l0-0.1l0-0.1l0-0.1l0-0.1l0-0.1l0-0.1l0-0.1l0-0.1l0-0.1
		l0-0.1l0-0.1l0-0.1l0-0.1l0-0.1l0-0.1l0-0.1l0-0.1l0-0.1l0-0.1l0-0.1l0-0.1l0-0.1l0-0.1l0-0.1l0-0.1l0-0.1l0-0.1l0-0.1l0-0.1l0-0.1
		l0-0.1l0-0.1l0-0.1l0-0.1l0-0.1l0-0.1l0-0.1l0-0.1l0-0.1l0-0.1l0-0.1l0-0.1l0-0.1l0-0.1l0-0.1l0-0.1l0-0.1l0-0.1l0-0.1l0-0.1l0-0.1
		l0-0.1l0-0.1l0-0.1l0-0.1l0-0.1l0-0.1l0-0.1l0-0.1l0-0.1l0-0.1l0-0.1l0-0.1l0-0.1v-0.1v-0.1V90l0-0.1l0-0.1l0-0.1l0-0.1l0-0.1
		l0-0.1l0-0.1l0-0.1l0-0.1l0-0.1l0-0.1l0-0.1l0-0.1l0-0.1l0-0.1l0-0.1l0-0.1l0-0.1l0-0.1l0-0.1l0-0.1l0-0.2l0-0.2l0-0.2l0-0.2l0-0.2
		l0-0.2l0-0.2l0-0.2l0-0.2l0-0.2l0-0.2l0-0.2l0-0.2l0-0.2l0-0.2l0-0.2l0-0.2l0-0.2l0-0.2l0-0.2l0-0.2l0-0.2l0-0.2l0-0.2l0-0.2l0-0.2
		l0-0.2l0-0.2l0-0.2l0-0.2l0-0.2l0-0.2l0-0.2l0-0.2l0-0.2l0-0.2l0-0.2l0-0.2l0-0.2l0-0.2l0-0.2l0-0.2l0-0.2l0-0.2l0-0.2l0-0.2l0-0.2
		l0-0.2l0-0.2l0-0.2l0-0.2l0-0.2l0-0.2l0-0.2l0-0.2l0-0.2l0-0.2l0-0.2l0-0.2l0-0.2l0-0.2l0-0.2l0-0.2l0-0.2l0-0.2l0-0.2l0-0.2l0-0.2
		l0-0.2l0-0.2l0-0.2l0-0.2l0-0.2l0-0.2l0-0.2l0-0.2l0-0.1l0-0.1l0-0.1l0-0.1V74l0-0.1v-0.1l0-0.1v-0.1l0-0.1v-0.1l0-0.1v-0.1l0-0.1
		l0-0.1l0-0.1l0-0.1l0-0.1l0-0.3l0-0.3l0-0.3l0-0.3l0-0.3l0-0.3l0-0.3l0-0.3l0-0.3l0-0.3l0-0.3l0-0.3l0-0.3l0-0.3l0-0.3l0-0.3l0-0.3
		l0-0.3l0-0.3l0-0.3l0-0.3l0-0.3l0-0.2l0-0.2l0-0.2l0-0.2l0-0.2l0-0.2l0-0.2l0-0.2l0-0.2l0-0.2l0-0.2l0-0.2l0-0.2l0-0.2l0-0.2l0-0.2
		l0-0.2l0-0.2l0-0.2l0-0.2l0-0.2l0-0.2l0-0.2l0-0.2l0-0.2l0-0.2l0-0.2l0-0.2l0-0.2l0-0.2l0-0.2l0-0.2l0-0.2l0-0.2l0-0.2l0-0.2l0-0.2
		l0-0.2l0-0.2l0-0.2l0-0.2l0-0.2l0-0.2l0-0.2l0-0.2l0-0.2l0-0.2l0-0.2l0-0.2l0-0.2l0-0.2l0.1-0.4l0.1-0.4l0.1-0.4l0.1-0.4l0.1-0.4
		l0.1-0.4l0.1-0.7l0.1-0.7l0.1-0.4l0.1-0.4l0.1-0.4l0.1-0.4l0.1-0.4l0.1-0.4l0-0.2l0-0.2l0-0.2l0-0.2l0-0.2l0-0.2l0-0.2l0-0.2l0-0.2
		l0-0.2l0-0.2l0-0.2l0-0.2l0-0.2l0-0.2l0-0.2l0-0.2l0-0.2l0-0.2l0-0.2l0-0.2l0-0.2l0-0.2l0-0.2l0-0.2l0-0.2l0-0.2l0-0.2l0-0.2l0-0.2
		l0-0.2l0-0.2l0-0.2l0-0.2l0-0.2l0-0.2l0-0.2l0-0.2l0-0.2l0-0.2l0-0.2l0-0.2l0-0.2l0-0.2l0-0.2l0-0.2l0-0.2l0-0.2l0-0.2l0-0.2l0-0.2
		l0-0.2l0-0.2l0-0.2l0-0.2l0-0.2l0-0.2l0-0.1l0-0.1l0-0.1l0-0.1v-0.1v-0.1l0-0.1v-0.1l0-0.1v-0.1v-0.1l0-0.1l0-0.1l0-0.1l0-0.1
		l0-0.1l0-0.1l0-0.1l0-0.1l0-0.1l0-0.1l0-0.1l0-0.1l0-0.1l0-0.1l0-0.1l0-0.1l0-0.1l0-0.1l0-0.1l0-0.1l0-0.1l0-0.1l0-0.1l0-0.1l0-0.1
		l0-0.1l0-0.1l0-0.1l0-0.1l0-0.1l0-0.1l0-0.1l0-0.1l0-0.1l0-0.1l0-0.1l0-0.1l0-0.1l0-0.1l0-0.1l0-0.1l0-0.1l0-0.1l0-0.1l0-0.1l0-0.1
		l0-0.1l0-0.1l0-0.1l0-0.1l0-0.1l0-0.1l0-0.1l0-0.1l0-0.1l0-0.1l0-0.1l0-0.1l0-0.1l0-0.1l0-0.1l0-0.1l0-0.1l0-0.1l0-0.1l0-0.1l0-0.1
		l0-0.1l0-0.1l0-0.1l0-0.1l0-0.1l0-0.1l0-0.1l0-0.1l0-0.1l0-0.1l0-0.1l0-0.1l0-0.1l0-0.1l0-0.1l0-0.1l0-0.2l0-0.2l0-0.2l0-0.2l0-0.2
		l0-0.2l0-0.2l0-0.2l0-0.2l0-0.2l0-0.2l0-0.2l0-0.2l0-0.2l0-0.2l0-0.2l0-0.2l0-0.2l0-0.2l0-0.2l0-0.2l0-0.2l0-0.2l0-0.2l0-0.2l0-0.2
		l0-0.2l0-0.2l0-0.2l0-0.2l0-0.2l0-0.2l0-0.2l0-0.2l0-0.2l0-0.2l0-0.2l0-0.2l0-0.2l0-0.2l0-0.2l0-0.2l0-0.2l0-0.2l0-0.2l0-0.2l0-0.2
		l-0.1-0.2l-0.1-0.2l-0.1-0.2l-0.1-0.2l-0.1-0.2l-0.1-0.2l-0.1-0.2l-0.1-0.2L132,21l-0.1-0.2l-0.1-0.2l-0.1-0.2l-0.1-0.2l-0.1-0.2
		l-0.1-0.2l-0.1-0.2l-0.1-0.2l-0.1-0.2l-0.1-0.2l-0.1-0.2l-0.1-0.2l-0.1-0.2l-0.1-0.2l-0.1-0.2l-0.1-0.2l-0.1-0.2l-0.1-0.2l-0.1-0.2
		l-0.1-0.2l-0.1-0.2l-0.1-0.2l-0.1-0.2l-0.1-0.2l-0.1-0.2l-0.1-0.2l-0.1-0.2l-0.1-0.2l-0.1-0.2l-0.1-0.2l-0.1-0.2L130,16l-0.1-0.1
		l-0.1-0.1l-0.1-0.1l-0.1-0.1l-0.1-0.1l-0.1-0.1l-0.1-0.1l-0.1-0.1l-0.1-0.1l-0.1-0.1l-0.1-0.1l-0.1-0.1l-0.1-0.1L129,14l0-0.1
		l0-0.1l0-0.1l0-0.1l0-0.1l0-0.1l0-0.1l0-0.1l0-0.1l0-0.1l0-0.1l0-0.1l0-0.1l0-0.1l0-0.1l0-0.1l0-0.1l0-0.1l0-0.1l0-0.1l0-0.1l0-0.1
		l0-0.1l0-0.1l0-0.1l0-0.1l0-0.1l0-0.1l0-0.1l0-0.1l0-0.1l0-0.1l0-0.1l0-0.1l0-0.1l0-0.1l0-0.1l0-0.1l0-0.1l0-0.1l0-0.1l0-0.1l0-0.1
		l0-0.1l0-0.1l0-0.1l0-0.1l0-0.1l0-0.1l0-0.1l0-0.1l0-0.1l-0.1-0.1l-0.1-0.1l-0.1-0.1l-0.1-0.1l-0.1-0.1l-0.1-0.1l-0.1-0.1l-0.1-0.1
		l-0.1-0.1l-0.1-0.1l-0.1-0.1l-0.1-0.1l-0.1-0.1l-0.1-0.1L126,9.5l-0.1-0.1l-0.1-0.1l-0.1-0.1l-0.1-0.1l-0.1-0.1l-0.1-0.1L125.6,9
		L125.6,9l-0.1-0.1l-0.1-0.1l-0.1-0.1l-0.1-0.1l-0.1-0.1l-0.1-0.1l-0.1-0.1l-0.1-0.1l-0.1-0.1L125,8.3L125,8.2l-0.1-0.1l-0.1-0.1
		L124.8,8L124.7,8l-0.1-0.1l-0.1-0.1l-0.1-0.1l-0.1-0.1l-0.1-0.1l-0.1-0.1l-0.1-0.1l-0.1-0.1l-0.1-0.1l-0.1-0.1l-0.1-0.1L124,7.2
		L124,7.2l-0.1-0.1L123.8,7L123.8,7l-0.1-0.1l-0.1-0.1l-0.1-0.1l-0.1-0.1l-0.1-0.1l-0.1-0.1l-0.1-0.1l-0.1-0.1l-0.1-0.1l-0.1-0.1
		l-0.1-0.1l-0.1-0.1L123,6.2l-0.1-0.1l-0.1-0.1L122.8,6l-0.1-0.1l-0.1-0.1l-0.1-0.1l-0.1-0.1l-0.1-0.1l-0.1-0.1l-0.1-0.1l-0.1-0.1
		l-0.1-0.1l-0.1-0.1l-0.1-0.1L122,5.3L122,5.2l-0.1-0.1l-0.1-0.1l-0.1-0.1L121.7,5l-0.1-0.1l-0.1-0.1l-0.1-0.1l-0.1-0.1l-0.1-0.1
		l-0.1-0.1l-0.1-0.1l-0.1-0.1l-0.1-0.1l-0.1-0.1L121,4.4l-0.1-0.1l-0.1-0.1l-0.1-0.1l-0.1-0.1l-0.1-0.1L120.6,4L120.5,4l-0.1-0.1
		l-0.1-0.1l-0.1-0.1l-0.1-0.1l-0.1-0.1l-0.1-0.1L120,3.6L120,3.5l-0.1-0.1l-0.1-0.1l-0.1-0.1l-0.1-0.1l-0.1-0.1l-0.1-0.1l-0.1-0.1
		l-0.1-0.1l-0.1-0.1L119.3,3L119.2,3l-0.1-0.1l-0.1-0.1L119,2.8l-0.1-0.1l-0.1-0.1l-0.1-0.1l-0.1-0.1l-0.1-0.1l-0.1-0.1l-0.1-0.1
		l-0.1-0.1l-0.1-0.1l-0.1-0.1l-0.1-0.1l-0.1,0l-0.1-0.1l-0.1,0L117.9,2l-0.1,0l-0.1,0l-0.1,0l-0.1,0l-0.1,0l-0.1,0l-0.1,0l-0.1,0
		l-0.1,0l-0.1,0l-0.1,0l-0.1,0l-0.1,0l-0.1,0l-0.1,0l-0.1,0l-0.1,0l-0.1,0l-0.1,0l-0.1,0l-0.1,0l-0.1,0l-0.1,0l-0.1,0l-0.1,0l-0.1,0
		l-0.1,0l-0.1,0l-0.1,0l-0.1,0l-0.1,0l-0.1,0l-0.1,0l-0.1,0l-0.1,0l-0.1,0l-0.1,0l-0.1,0l-0.1,0l-0.1,0l-0.2-0.1L114.6,0l-0.2-0.1
		l-0.2-0.1l-0.2-0.1L114-0.3l-0.2-0.1l-0.2-0.1l-0.2-0.1l-0.2-0.1l-0.2-0.1l-0.2-0.1l-0.2-0.1L112.7-1L112.6-1l-0.2-0.1l-0.2-0.1
		l-0.2-0.1l-0.2-0.1l-0.2-0.1l-0.2-0.1l-0.2-0.1l-0.2-0.1l-0.2-0.1L111-1.8l-0.2-0.1l-0.2-0.1L110.5-2l-0.2-0.1l-0.2-0.1L110-2.2
		l-0.2-0.1l-0.2-0.1l-0.2-0.1l-0.2-0.1l-0.2-0.1L109-2.6l-0.2-0.1l-0.2-0.1l-0.2-0.1l-0.2-0.1l-0.2-0.1L108-3L107.8-3l-0.2-0.1
		l-0.2-0.1l-0.2-0.1l-0.2-0.1L107-3.3l-0.2-0.1l-0.2-0.1l-0.2-0.1l-0.2-0.1l-0.2-0.1l-0.2-0.1l-0.2-0.1l-0.2,0l-0.2,0l-0.2,0l-0.2,0
		l-0.2,0l-0.2,0l-0.2,0l-0.2,0l-0.2,0l-0.2,0l-0.2,0l-0.2,0l-0.2,0l-0.2,0l-0.2,0l-0.2,0l-0.2,0l-0.2,0l-0.2,0l-0.2,0l-0.2,0l-0.2,0
		l-0.2,0l-0.2,0l-0.2,0l-0.2,0l-0.2,0l-0.2,0l-0.2,0l-0.2,0l-0.2,0l-0.2,0l-0.2,0l-0.2,0l-0.2,0l-0.2,0l-0.2,0l-0.2,0l-0.2,0l-0.2,0
		l-0.2,0l-0.2,0l-0.2,0l-0.2,0l-0.2,0l-0.1,0l-0.1,0l-0.1,0l-0.1,0l-0.1,0l-0.1,0l-0.1,0l-0.1,0l-0.1,0l-0.1,0l-0.1,0l-0.1,0l-0.1,0
		l-0.1,0l-0.1,0l-0.1,0l-0.1,0l-0.1,0l-0.1,0l-0.1,0l-0.1,0l-0.1,0l-0.1,0l-0.1,0l-0.1,0l-0.1,0l-0.1,0l-0.1,0l-0.1,0l-0.1,0l-0.1,0
		l-0.1,0l-0.1,0l-0.1,0l-0.1,0l-0.1,0l-0.1,0l-0.1,0l-0.1,0l-0.1,0h-0.1l-0.1,0l-0.1,0H94l-0.1,0H93.8L93.8-5.4z"/>
	<path id="path17" class="st6" d="M97.6,120.6c19-3.3,23.5-12.1,24.6-16.2c2.1-7.6,3.1-22.3,1.2-30.2c-0.6-2.7-1.9-5.8-3.9-8.1
		c-4.5-4.9-24.9-5.4-32.5-4.2c-3,0.5-5.8,1.5-8.5,2.7c-9.5,4-12.7,50.4,5.2,54.9C88.5,120.8,94.6,121.1,97.6,120.6z"/>
	<circle id="circle17" class="st6" cx="130.5" cy="38.4" r="1.3"/>
	<circle id="circle18" class="st6" cx="64.6" cy="40.8" r="1.3"/>
	<g id="g30">
		<path id="path18" class="st7" d="M106.2,45.9c-0.6,1.9-1,5.5-2.2,7.1c-0.6,0.7-1.8,0.7-2.6,0.7c-4.5-0.2-4.1-4.8-4.5-8.9"/>
		<path id="path19" class="st1" d="M96.9,43.6L96.9,43.6l0.1,0l0.1,0l0.1,0l0.1,0l0.1,0l0.1,0l0.1,0l0.1,0l0.1,0l0.1,0l0,0l0,0l0,0
			l0,0l0,0.1l0,0.1l0,0.1l0,0.1l0,0.1l0,0.1l0,0.1l0,0.1l0,0.1l0,0.1l0,0.1l0,0.1l0,0.1l0,0.1l0,0.1l0,0.1l0,0.2l0,0.2l0,0.2l0,0.2
			l0,0.2l0,0.4l0,0.2l0,0.2l0,0.2l0,0.2l0,0.1l0,0.1l0,0.1l0,0.1l0,0.1l0,0.1l0,0.1l0,0.1l0,0.1l0,0.1l0,0.1l0,0.1l0,0.1l0,0.1
			l0,0.1l0,0.1l0,0.1l0,0.1l0,0.1l0,0.1l0,0.1l0,0.1l0,0.1l0,0.1l0,0.1l0,0.1l0,0.1l0,0.1l0,0.1l0,0l0,0l0,0l0,0l0,0l0,0l0,0l0,0
			l0,0l0,0l0,0l0,0l0,0l0,0l0,0l0,0l0,0l0,0l0,0l0,0l0,0l0,0l0,0l0,0l0,0l0,0l0,0l0,0l0,0l0,0l0,0l0,0l0,0l0,0l0,0l0,0l0,0l0,0l0,0
			l0,0l0,0l0,0l0,0l0,0l0,0l0,0l0,0l0,0l0,0l0,0l0,0l0,0l0,0l0,0l0,0l0,0l0,0l0,0l0,0l0,0l0,0l0,0l0,0l0,0l0,0l0,0l0,0l0,0l0,0l0,0
			l0,0l0,0l0,0l0,0l0,0l0,0l0,0l0,0l0,0l0,0l0,0l0,0l0,0l0,0l0,0l0,0l0,0l0,0l0,0l0,0l0,0l0,0l0,0l0,0l0,0l0,0l0,0l0,0l0,0l0,0l0,0
			l0,0l0,0l0,0l0,0l0,0l0,0l0,0l0,0l0,0l0,0l0,0l0,0l0,0l0,0l0,0l0,0l0,0l0,0l0,0l0,0l0,0l0,0l0,0l0,0l0,0l0,0l0,0l0,0l0,0l0,0l0,0
			l0,0l0,0l0,0l0,0l0,0l0,0l0,0l0,0l0,0l0,0l0.1,0l0.1,0l0.1,0l0.1,0l0.1,0h0h0h0h0l0,0l0,0l0,0l0,0l0,0l0,0l0,0l0,0l0,0l0,0l0,0
			l0,0l0,0l0,0l0,0l0,0l0,0l0,0l0,0l0,0l0,0l0,0l0,0l0,0l0,0l0,0l0,0l0,0l0,0l0,0l0,0l0,0l0,0l0,0l0,0l0,0l0,0l0,0l0,0l0,0l0,0l0,0
			l0,0l0,0l0,0l0,0l0,0l0,0l0,0l0,0l0,0l0,0l0,0l0,0l0,0l0,0l0,0l0,0l0,0l0,0l0,0l0,0l0,0l0,0l0,0l0,0l0,0l0,0l0,0l0,0l0,0l0,0l0,0
			l0,0l0,0l0,0l0,0l0,0l0,0l0,0l0,0l0,0l0,0l0,0l0,0l0,0l0,0l0,0l0,0l0,0l0,0l0,0l0,0l0,0l0,0l0,0l0,0l0,0l0,0l0,0l0,0l0,0l0,0l0,0
			l0,0l0,0l0-0.1l0-0.1l0-0.1l0-0.1l0-0.1l0-0.1l0-0.1l0-0.1l0-0.1l0-0.1l0-0.1l0-0.1l0-0.1l0-0.1l0-0.1l0-0.1l0-0.1l0-0.1l0-0.1
			l0-0.1l0-0.1l0-0.1l0-0.1l0-0.1l0-0.1l0-0.1l0-0.1l0-0.1l0-0.1l0-0.1l0-0.1l0-0.1l0-0.1l0.1-0.2l0.1-0.2l0.1-0.2l0.1-0.2l0-0.1
			l0-0.1l0-0.1l0-0.1l0-0.1l0-0.1l0-0.1l0-0.1l0-0.1l0-0.1l0-0.1l0-0.1l0-0.1l0-0.1l0-0.1l0-0.1l0-0.1l0-0.1l0-0.1l0-0.1l0,0l0-0.1
			l0-0.1l0-0.1l0-0.1l0-0.1l0-0.1l0-0.1l0,0l0,0l0,0l0.1,0l0.1,0l0.1,0l0.1,0l0.1,0l0.1,0l0.1,0l0.1,0l0.1,0l0.1,0l0.1,0l0.1,0
			l0.1,0l0.1,0l0.1,0l0.1,0l0.1,0l0.1,0l0.1,0l0.1,0l0.1,0l0.1,0l0.1,0l0.1,0l0,0l0,0l0,0l0,0l0,0.1l0,0.1l0,0.1l0,0.1l0,0.1l0,0.1
			l0,0.1l0,0.1l0,0.1l0,0.1l0,0.1v0.1l0,0.1l0,0.1l0,0.1l0,0.1l0,0.1l0,0l0,0l0,0l0,0l0,0l0,0l0,0l0,0l0,0l0,0l0,0.1l0,0.1l0,0.1
			l0,0.1l0,0.1l0,0.1l0,0.1l0,0.1l0,0.1l0,0.1l0,0.1l-0.1,0.2l-0.1,0.2l-0.1,0.2l-0.1,0.3l0,0.1l0,0.1l0,0.1l0,0.1l0,0.1l0,0.1
			l0,0.1l0,0.1l0,0.1l0,0.1l0,0.1l0,0.1l0,0.1l0,0.1l0,0.1l0,0.1l0,0.1l0,0.1l0,0.1l0,0.1l0,0.1l0,0.1l0,0.1l0,0.1l0,0.1l0,0.1
			l0,0.1l0,0.1l0,0.1l0,0.1l0,0.1l0,0.1l0,0.1l0,0.1l0,0.1l0,0.1l0,0.1l0,0.1l0,0.1l0,0.1l0,0.1l0,0.1l0,0.1l0,0.1l0,0.1l0,0.1
			l0,0.1l0,0.1l0,0.1l0,0.1l0,0.1l0,0.1l0,0.1l0,0.1l0,0.1l0,0.1l0,0.1l0,0.1l0,0.1l0,0.1l0,0.1l0,0.1l0,0.1l0,0.1l0,0.1l0,0.1l0,0
			l0,0l0,0l0,0l0,0l0,0l0,0l0,0l0,0l0,0l0,0l0,0l0,0l0,0l0,0l0,0l0,0l0,0l0,0l0,0l0,0l0,0l0,0l0,0l0,0l0,0l0,0l0,0l0,0l0,0l0,0l0,0
			l0,0l0,0l0,0l0,0l0,0l0,0l0,0l0,0l0,0l0,0l0,0l0,0l0,0l0,0l0,0l0,0l0,0l-0.1,0l-0.1,0l-0.1,0l-0.1,0l-0.1,0l-0.1,0l-0.1,0l-0.1,0
			l-0.1,0l-0.1,0l-0.1,0l-0.1,0l-0.1,0l-0.1,0l-0.1,0l-0.1,0l-0.1,0l-0.1,0l-0.1,0l-0.1,0l-0.1,0l-0.1,0l-0.1,0H102l-0.1,0h0h0h0
			l-0.1,0l-0.1,0l-0.1,0l-0.1,0l-0.2,0l-0.1,0l-0.1,0l-0.1,0l-0.1,0l-0.1,0l-0.1,0l-0.1,0l-0.1,0l-0.1,0l-0.1,0l-0.1,0l-0.1,0
			l-0.1,0l-0.1,0l-0.1,0l-0.1,0l-0.1,0l-0.1,0l-0.1,0l-0.1,0l-0.1,0l-0.1,0l-0.1,0l-0.1,0l-0.1,0l-0.1,0l-0.1,0l-0.1,0l-0.1,0
			l-0.1,0l-0.1,0l-0.1,0l-0.1,0l-0.1,0l-0.1,0l0,0l-0.1,0l0,0l0,0l0,0l0,0l0,0l0,0l0,0l0,0l0,0l0,0l0,0l0,0l0,0l0,0l0,0l0,0l0,0l0,0
			l0,0l0,0l0,0l0,0l0,0l0,0l0,0l0,0l0,0l0,0l0,0l0,0l0,0l0,0l0,0l0,0l0,0l0,0l0,0l0,0l0,0l0,0l0,0l0,0l0,0l0,0l0,0l0,0l0,0l0,0l0,0
			l0,0l0,0l0,0l0,0l0,0l0,0l0,0l0,0l0,0l0,0l0,0l0,0l0,0l0,0l0,0l0,0l0,0l0,0l0,0l0,0l0,0l0,0l0,0l0,0l0,0l0,0l0,0l0,0l0,0l0,0l0,0
			l0,0l0,0l0,0l0,0l0,0l0,0l0,0l0,0l0,0l0,0l0,0l0,0l0,0l0,0l0,0l0,0l0,0l0,0l0,0l0,0l0,0l0,0l0,0l0,0l0,0l0-0.1l0-0.1l0-0.1l0-0.1
			l0-0.1l0-0.1l0-0.1l0-0.1l0-0.1l0-0.1l0-0.1l0-0.1l0-0.1l0-0.1l0-0.1l0-0.1l0-0.1l0-0.1l0-0.1l0-0.1l0-0.1l0-0.1l0-0.1l0-0.1
			l0-0.1l0-0.1l0-0.1l0-0.1l0-0.1l0-0.2l0-0.2l0-0.2l0-0.2l0-0.4l0-0.2l0-0.2l0-0.2l0-0.2l0-0.2l0-0.1l0-0.1l0-0.1l0-0.1l0-0.1
			l0-0.1l0-0.1l0-0.1l0-0.1l0-0.1l0-0.1l0-0.1l0-0.1l0-0.1l0-0.1l0-0.1l0-0.1l0-0.1l0-0.1l0-0.1l0,0l0,0l0,0l0.1,0l0.1,0l0.1,0
			l0.1,0l0.1,0l0.1,0l0.1,0l0.1,0l0.1,0l0.1,0l0.1,0L96.9,43.6L96.9,43.6z"/>
		<path id="path20" class="st1" d="M101.3,31.8c-3.7,0.2-6.5,2.3-6.4,4.6c0.1,2.3,3.2,4.1,6.9,3.8s6.5-2.3,6.4-4.6
			C108,33.3,104.9,31.5,101.3,31.8z"/>
		<path id="path21" class="st1" d="M102,37.8L102,37.8l0.1,0l0.1,0l0.1,0l0,0l0,0l0,0l0,0l0,0l0,0l0,0l0,0l0,0l0,0l0,0l0,0l0,0l0,0
			l0,0l0,0l0,0l0,0l0,0l0,0l0,0l0,0l0,0l0,0l0,0.1l0,0.1l0,0.1l0,0.1l0,0.1l0,0.1l0,0.1l0,0.1l0,0.1l0,0.1l0,0.1l0,0.1l0,0.1l0,0.1
			l0,0.1l0,0.1l0,0.1l0,0.1l0,0.1l0,0.1l0,0.1l0,0.1l0,0.1l0,0.1l0,0.1l0,0.1l0,0.1l0,0.1l0,0.1l0,0.2l0,0.2l0,0.2l0,0.2l0,0.2
			l0,0.2l0,0.4l0,0.4l0,0.2l0,0.2l0,0.2l0,0.2l0,0.2l0,0.2l0,0.1l0,0.1l0,0.1l0,0.1l0,0.1l0,0.1l0,0.1l0,0.1l0,0.1v0.1l0,0.1l0,0.1
			l0,0.1l0,0.1l0,0.1l0,0l0,0l0,0l0,0l0,0l0,0l0,0l0,0l0,0l0,0l0,0l0,0l0,0l0,0l0,0l0,0l0,0l0,0l0,0l0,0l0,0l0,0l0,0l-0.1,0l0,0
			l-0.1,0l-0.1,0l-0.1,0l-0.1,0h-0.1l-0.1,0l-0.1,0l-0.1,0l-0.1,0l0,0l0,0l0,0l0,0l0,0l0,0l0,0l0,0l0,0l0,0l0,0l0,0l0,0l0,0l0,0l0,0
			l0,0l0,0l0,0l0,0l0,0l0,0l0,0l0,0l0-0.1l0-0.1l0-0.1l0-0.1l0-0.1l0-0.1l0-0.1l0-0.1l0-0.1l0-0.1l0-0.1l0-0.1l0-0.2l0-0.2l0-0.2
			l0-0.2l0-0.2l0-0.2l0-0.4l0-0.4l0-0.2l0-0.2l0-0.2l0-0.2l0-0.2l0-0.2l0-0.1l0-0.1l0-0.1l0-0.1l0-0.1l0-0.1l0-0.1l0-0.1l0-0.1
			l0-0.1l0-0.1l0-0.1l0-0.1l0-0.1l0-0.1l0-0.1l0-0.1l0-0.1l0-0.1l0-0.1l0-0.1l0-0.1l0-0.1l0-0.1v-0.1l0-0.1l0-0.1l0-0.1l0-0.1l0-0.1
			l0,0l0,0l0,0l0,0l0,0l0,0l0,0l0,0l0,0l0,0l0,0l0,0l0,0l0,0l0,0l0,0l0,0l0,0l0,0l0,0l0,0l0,0l0,0l0,0l0.1,0l0.1,0l0.1,0l0.1,0
			L102,37.8L102,37.8z"/>
		<path id="path22" class="st1" d="M91.8,39.7L91.8,39.7l0.2,0l0.1,0l0.1,0l0.1,0l0.1,0l0.1,0.1l0.1,0.1l0.1,0.1l0.1,0.1l0.1,0.1
			l0.1,0.1l0.1,0.1l0.1,0.1l0.1,0.1l0.1,0.1l0.1,0.1l0.1,0.1l0.1,0.1l0.1,0.1l0.1,0.1l0.1,0.1l0.1,0.1l0.1,0.1l0.1,0.1l0.1,0.1
			l0.1,0.1l0.1,0.1l0.1,0.1l0.1,0.1l0.1,0.1l0.1,0.1l0.1,0.1l0.1,0.1l0.1,0.1l0.1,0.1l0.1,0.1l0.1,0.1l0.1,0.1l0.1,0.1l0.1,0.1
			l0.1,0.1l0.1,0.1l0.1,0.1l0.1,0l0.1,0l0.1,0l0.1,0l0.1,0l0.1,0l0.1,0l0.1,0l0.1,0l0.1,0l0.1,0l0.1,0l0.1,0l0.1,0l0.1,0l0.1,0
			l0.1,0l0.1,0l0.1,0l0.1,0l0.1,0l0.1,0l0.1,0l0.1,0l0.1,0l0.1,0l0.1,0l0.1,0l0.1,0l0.1,0l0.1,0l0.1,0l0.1,0l0.1,0l0.1,0l0.1,0
			l0.1,0l0.1,0l0.1,0l0.1,0l0.1,0l0.1,0l0.1,0l0.1,0l0.1,0l0.1,0l0.1,0l0.1,0l0.1,0l0.1,0l0.1,0l0.1,0l0.1,0l0.1,0l0.1,0l0.1,0
			l0.1,0l0.1,0l0.1,0l0.1,0l0.1,0l0.1,0l0.1,0l0.1,0l0.1,0l0.1,0l0.1,0l0.1,0l0.1,0l0.1,0l0.1,0l0.1,0l0.1,0l0.1,0l0.1,0l0.1,0
			l0.1,0l0.1,0l0.1,0l0.1,0l0.1,0l0.1,0l0.1,0l0.1,0l0.1,0l0.1,0l0.1,0l0.1,0l0.1,0l0.1,0l0.1,0l0.1,0l0.1,0l0.1,0l0.1,0l0.1,0
			l0.1,0l0.1,0l0.1,0l0.1,0l0.1,0l0.1,0l0.1,0l0.1,0l0.1,0l0.1,0l0.1,0l0.1,0l0.1,0l0.1,0l0.1,0l0.1,0l0.1,0l0.1,0l0.1,0h0.1h0.1
			h0.1h0.1l0.1,0l0.1,0l0.1,0l0.1,0l0.1,0l0.1,0l0.1,0l0.1,0l0.1,0l0.1,0l0.1,0l0.1,0l0.1,0l0.1,0l0.1,0l0.1,0l0.1,0l0.1,0l0.1,0
			l0.1,0l0.1,0l0.1,0l0.1,0l0.1,0l0.1,0l0.1,0l0.1,0l0.1,0l0.1,0l0.1,0l0.1,0l0.1,0l0.1,0l0.1,0l0.1,0l0.1,0l0.1,0l0.1,0l0.1,0
			l0.1,0l0.1,0l0.1,0l0.1,0l0.1,0l0.1,0l0.1,0l0.1,0l0.1,0l0.1,0l0.1,0l0.1,0l0.1,0l0.1,0l0.1,0l0.1,0l0.1,0l0.1,0l0.1,0l0.1,0
			l0.1,0l0.1,0l0.1,0l0.1,0l0.1,0l0.1,0l0.1,0l0.1,0l0.1,0l0.1,0l0.1,0l0.1,0l0.1,0l0.1,0l0.1,0l0.1,0l0.1,0l0.1,0l0.1,0l0.1,0
			l0.1,0l0.1,0l0.1,0l0.1,0l0.1,0l0.1,0l0.1,0l0.1,0l0.1,0l0.1,0l0.1,0l0.1,0l0.1,0l0.1,0l0.1,0l0.1,0l0.1,0l0.1,0l0.1,0l0.1,0
			l0.1,0l0.1,0l0.1,0l0.1,0l0.1,0l0.1,0l0.1,0l0.1,0l0.1,0l0.1,0l0.1,0l0.1,0l0.1,0l0.1,0l0.1,0l0.1,0l0.1,0.1l0.1,0.1l0.1,0.1
			l0.1,0.1l0.1,0.1l0,0.1l0,0.1l0,0.1l0,0.1l0,0.1l0,0.1l0,0.1l0,0.1l0,0.1l0,0.1l0,0.1l0,0.1l0,0.1l0,0.1l-0.1,0.1l-0.1,0.1
			l-0.1,0.1l-0.1,0.1l-0.1,0.1l-0.1,0l-0.1,0l-0.1,0l-0.1,0l-0.1,0l-0.1,0l-0.1,0l-0.1,0l-0.1,0l-0.1,0l-0.1,0l-0.1,0l-0.1,0l-0.1,0
			l-0.1,0l-0.1,0l-0.1,0l-0.1,0l-0.1,0l-0.1,0l-0.1,0l-0.1,0l-0.1,0l-0.1,0l-0.1,0l-0.1,0l-0.1,0l-0.1,0l-0.1,0l-0.1,0l-0.1,0
			l-0.1,0l-0.1,0l-0.1,0l-0.1,0l-0.1,0l-0.1,0l-0.1,0l-0.1,0l-0.1,0l-0.1,0l-0.1,0l-0.1,0l-0.1,0l-0.1,0l-0.1,0l-0.1,0l-0.1,0
			l-0.1,0l-0.1,0l-0.1,0l-0.1,0l-0.1,0l-0.1,0l-0.1,0l-0.1,0l-0.1,0l-0.1,0l-0.1,0l-0.1,0l-0.1,0l-0.1,0l-0.1,0l-0.1,0l-0.1,0
			l-0.1,0l-0.1,0l-0.1,0l-0.1,0l-0.1,0l-0.1,0l-0.1,0l-0.1,0l-0.1,0l-0.1,0l-0.1,0l-0.1,0l-0.1,0l-0.1,0l-0.1,0l-0.1,0l-0.1,0
			l-0.1,0l-0.1,0l-0.1,0l-0.1,0l-0.1,0l-0.1,0l-0.1,0l-0.1,0l-0.1,0l-0.1,0l-0.1,0l-0.1,0l-0.1,0l-0.1,0l-0.1,0l-0.1,0l-0.1,0
			l-0.1,0l-0.1,0l-0.1,0l-0.1,0l-0.1,0h-0.1h-0.1l-0.1,0l-0.1,0l-0.1,0l-0.1,0l-0.1,0l-0.1,0l-0.1,0l-0.1,0l-0.1,0l-0.1,0l-0.1,0
			l-0.1,0l-0.1,0l-0.1,0l-0.1,0l-0.1,0l-0.1,0l-0.1,0l-0.1,0l-0.1,0l-0.1,0l-0.1,0l-0.1,0l-0.1,0l-0.1,0l-0.1,0l-0.1,0l-0.1,0
			l-0.1,0l-0.1,0l-0.1,0l-0.1,0l-0.1,0l-0.1,0l-0.1,0l-0.1,0l-0.1,0l-0.1,0l-0.1,0l-0.1,0l-0.1,0l-0.1,0l-0.1,0l-0.1,0l-0.1,0
			l-0.1,0l-0.1,0l-0.1,0l-0.1,0l-0.1,0l-0.1,0l-0.1,0l-0.1,0l-0.1,0l-0.1,0l-0.1,0l-0.1,0l-0.1,0l-0.1,0l-0.1,0l-0.1,0l-0.1,0
			l-0.1,0l-0.1,0l-0.1,0l-0.1,0l-0.1,0L97,46L97,46l-0.1,0l-0.1,0l-0.1,0l-0.1,0l-0.1,0l-0.1,0l-0.1,0l-0.1,0l-0.1,0l-0.1,0l-0.1,0
			l-0.1,0l-0.1,0l-0.1,0l-0.1,0l-0.1,0l-0.1,0l-0.1,0l-0.1,0l-0.1,0l-0.1,0l-0.1,0l-0.1,0l-0.1,0l-0.1,0l-0.1,0l-0.1,0l-0.1,0
			l-0.1,0l-0.1,0l-0.1,0l-0.1,0l-0.1-0.1l-0.1,0l-0.1-0.1l-0.1-0.1l-0.1-0.1l-0.1-0.1L94,44.3l-0.1-0.1l-0.1-0.1l-0.1-0.1L93.7,44
			L93.6,44l-0.1-0.1l-0.1-0.1l-0.1-0.1l-0.1-0.1l-0.1-0.1l-0.1-0.1l-0.1-0.1L93,43.5L93,43.5l-0.1-0.1l-0.1-0.1l-0.1-0.1l-0.1-0.1
			l-0.1-0.1l-0.1-0.1l-0.1-0.1L92.4,43l-0.1-0.1l-0.1-0.1l-0.1-0.1l-0.1-0.1L92,42.7L92,42.6l-0.1-0.1l-0.1-0.1l-0.1-0.1l-0.1-0.1
			l-0.1-0.1l-0.1-0.1l-0.1-0.1l-0.1-0.1L91.3,42l-0.1-0.1l-0.1-0.1l-0.1-0.1L91,41.7L91,41.6l-0.1-0.1l-0.1-0.1l-0.1-0.1l0-0.1
			l0-0.1l0-0.1l0-0.1l0-0.1l0-0.1l0-0.1l0-0.1l0-0.1l0-0.1l0-0.1l0-0.1l0-0.1l0-0.1l0.1-0.1l0.1-0.1l0.1-0.1l0.1-0.1l0.1-0.1l0.1,0
			l0.1,0l0.1,0l0.1,0l0.1,0l0.1,0L91.8,39.7L91.8,39.7z"/>
		<path id="path23" class="st6" d="M115.1,0.6c-1.4-0.4-2.7-0.2-2.9,0.5c-0.2,0.7,0.7,1.7,2.1,2.1c1.4,0.4,2.7,0.2,2.9-0.5
			S116.5,1.1,115.1,0.6z"/>
		<path id="path24" class="st6" d="M64,6.8c-0.9,1.1-1.2,2.4-0.7,2.9c0.6,0.5,1.8,0,2.8-1.1c0.9-1.1,1.2-2.4,0.7-2.9
			C66.2,5.2,65,5.7,64,6.8L64,6.8z"/>
		<g>
			<path id="path25_00000046305357245823844420000001651715392607028132_" class="st8" d="M124.6,5.5c-7.5-1.1-14.4,4.1-15.4,11.6
				c-1.1,7.5,4.1,14.4,11.6,15.4c7.5,1.1,14.4-4.1,15.4-11.6S132,6.6,124.6,5.5z"/>
			<path d="M122.7,33.8c-0.7,0-1.4,0-2.1-0.1c-8.1-1.1-13.7-8.6-12.5-16.7c0.6-3.9,2.6-7.4,5.8-9.7s7.1-3.4,11-2.8c0,0,0,0,0,0
				c8.1,1.1,13.7,8.6,12.5,16.7C136.2,28.5,129.9,33.8,122.7,33.8z M122.6,6.5c-2.7,0-5.3,0.9-7.5,2.5c-2.7,2-4.4,4.9-4.9,8.2
				c-1,6.8,3.8,13.2,10.6,14.2c6.8,1,13.2-3.8,14.2-10.6c1-6.8-3.8-13.2-10.6-14.2l0,0C123.8,6.5,123.2,6.5,122.6,6.5z"/>
		</g>
		<g>
			<path id="path26_00000165943614631685730110000017695370854552433848_" class="st8" d="M76.5,9.5C69,8.4,62.1,13.6,61,21.1
				c-1.1,7.5,4.1,14.4,11.6,15.4c7.5,1.1,14.4-4.1,15.4-11.6C89.1,17.5,83.9,10.6,76.5,9.5z"/>
			<path d="M74.6,37.8c-0.7,0-1.4,0-2.1-0.2c-8.1-1.1-13.7-8.6-12.5-16.7c0.6-3.9,2.6-7.4,5.8-9.7c3.2-2.4,7-3.4,11-2.8
				c3.9,0.6,7.4,2.6,9.7,5.8c2.4,3.2,3.4,7,2.8,11c-0.6,3.9-2.6,7.4-5.8,9.7C80.8,36.8,77.7,37.8,74.6,37.8z M74.5,10.5
				c-2.7,0-5.3,0.9-7.5,2.5c-2.7,2-4.4,4.9-4.9,8.2c-1,6.8,3.8,13.2,10.6,14.2c3.3,0.5,6.6-0.4,9.3-2.4s4.4-4.9,4.9-8.2
				c0.5-3.3-0.4-6.6-2.4-9.3c-2-2.7-4.9-4.4-8.2-4.9C75.7,10.5,75.1,10.5,74.5,10.5z"/>
		</g>
		<path id="path27" class="st1" d="M121.7,17.1c-2.6-0.4-5.1,1.5-5.5,4.1c-0.4,2.6,1.5,5.1,4.1,5.5c2.6,0.4,5.1-1.5,5.5-4.1
			C126.2,19.9,124.4,17.5,121.7,17.1z"/>
		<path id="path28" class="st1" d="M74.3,20.5c-2.6-0.4-5.1,1.5-5.5,4.1c-0.4,2.6,1.5,5.1,4.1,5.5c2.6,0.4,5.1-1.5,5.5-4.1
			C78.8,23.3,76.9,20.9,74.3,20.5z"/>
		<path id="path29" class="st8" d="M122.1,19.1c-0.7-0.1-1.4,0.4-1.5,1.2c-0.1,0.7,0.4,1.4,1.2,1.5c0.7,0.1,1.4-0.4,1.5-1.2
			C123.4,19.9,122.9,19.2,122.1,19.1L122.1,19.1z"/>
		<path id="path30" class="st8" d="M74.7,22.5c-0.7-0.1-1.4,0.4-1.5,1.2c-0.1,0.7,0.4,1.4,1.2,1.5c0.7,0.1,1.4-0.4,1.5-1.2
			C75.9,23.3,75.4,22.6,74.7,22.5z"/>
	</g>
	<g id="g31" transform="translate(7.055664,75.208984)">
		<g id="g38" transform="matrix(0.9048327,-0.22375486,0.22375486,0.9048327,-65.861928,-117.19462)" inkscape:label="book">
			<g id="g41">
				<g>
					<path id="path36-6_00000054957639276171832870000013885177338405975210_" sodipodi:nodetypes="ccccc" class="st9" d="
						M150.6,185.4l-2.9,5.3l-46.1,10l2.7-6.3L150.6,185.4z"/>
					<path class="st10" d="M100.7,201.5l3.3-7.5l47.6-9.3l-3.5,6.5l-0.2,0.1L100.7,201.5z M104.7,195l-2.2,5.1l44.9-9.8l2.2-4.1
						L104.7,195z"/>
				</g>
				<g>
					<path id="path36-6-2_00000121970333717633083190000005053041279072264353_" sodipodi:nodetypes="cccccc" class="st9" d="
						M105.1,195.1l-3.9,6l-7.7-30.9l-0.3-1c-0.9-3.4,1.3-6.5,3.8-3.8L105.1,195.1z"/>
					<path class="st10" d="M101,202.4l-8.3-33.1c-0.6-2.3,0.1-4.5,1.5-5.3c0.5-0.3,1.7-0.7,3.2,0.9l0.1,0.1l0,0.1l8.1,30L101,202.4z
						 M95.4,164.8c-0.2-0.1-0.5,0-0.8,0.1c-0.8,0.4-1.4,2.1-0.9,4.1l0.3,1l7.4,29.7l3.1-4.7l-7.9-29.4
						C96.3,165.3,95.9,164.9,95.4,164.8z"/>
				</g>
				<g>
					<path id="path37_00000137116165097609979030000006438791711016511380_" sodipodi:nodetypes="ccc" class="st11" d="M143.3,154.6
						c0.1-1-1.9-0.7-2.6-0.6l-45.5,10.2l7.5,2.9l38-8.5"/>
					<path class="st10" d="M102.6,167.7l-9.3-3.6l47.3-10.6c0.8-0.2,2.2-0.3,2.9,0.3c0.3,0.2,0.4,0.6,0.3,0.9l-0.1,0.5l-1.1-0.1
						l0.1-0.5c0,0,0,0,0,0c-0.1-0.1-0.9-0.2-1.9,0L97,164.4l5.7,2.2l38.4-8.6l0.2,1L102.6,167.7z"/>
				</g>
				<g>
					<polygon id="rect33-7-5_00000129917267712861009190000006146559712796789688_" class="st9" points="97.7,164.9 143.3,154.8 
						150.4,185.3 104.8,195.4 					"/>
					<path class="st10" d="M104.4,196l-7.3-31.5l0.5-0.1l46.1-10.2l7.3,31.5l-0.5,0.1L104.4,196z M98.3,165.4l6.8,29.4l44.6-9.9
						l-6.8-29.4L98.3,165.4z"/>
				</g>
				<g id="g40" transform="matrix(1.0605469,0.16207524,-0.16207524,1.0605469,44.030352,61.2713)">
					<g>
						<path id="path38_00000019646510184345738680000013719526740819328948_" sodipodi:nodetypes="cc" class="st9" d="M70.5,108.4
							l3.8,8.8"/>
						
							<rect x="71.6" y="96" transform="matrix(0.8793 -0.4762 0.4762 0.8793 -44.9661 48.0566)" class="st10" width="1.4" height="33.4"/>
					</g>
					<g>
						<path id="path38-1_00000067220969585534679950000017145725935766095246_" sodipodi:nodetypes="cc" class="st9" d="M64.9,99.5
							l8.4,18.6"/>
						
							<rect x="68.4" y="73.8" transform="matrix(0.8711 -0.4912 0.4912 0.8711 -44.5084 47.9787)" class="st10" width="1.5" height="69.9"/>
					</g>
					<g>
						<path id="path38-9-3_00000018206549057792657890000007706429745874363808_" sodipodi:nodetypes="cc" class="st9" d="
							M74.7,116.7l13.1-5.1"/>
						
							<rect x="57" y="113.5" transform="matrix(0.8943 -0.4475 0.4475 0.8943 -42.5095 48.4262)" class="st10" width="48.5" height="1.4"/>
					</g>
					<g>
						<path id="path38-9-3-61_00000048483248465379717650000000736125609712511106_" sodipodi:nodetypes="cc" class="st9" d="
							M107,104.4l7.8-3"/>
						
							<rect x="96.1" y="102.1" transform="matrix(0.8957 -0.4446 0.4446 0.8957 -34.1617 60.0309)" class="st10" width="29.5" height="1.4"/>
					</g>
					<g>
						<path id="path38-9-3-61-8_00000065058998126328968760000005053058850384211080_" sodipodi:nodetypes="cc" class="st9" d="
							M103.7,107.1l10.4-4"/>
						
							<rect x="89.4" y="104.4" transform="matrix(0.8965 -0.4431 0.4431 0.8965 -35.3133 59.1496)" class="st10" width="38.9" height="1.5"/>
					</g>
					<g>
						<path id="path38-9-3-6_00000034782347873242004930000016916292072033039242_" sodipodi:nodetypes="cc" class="st9" d="
							M73.4,118.5l12.7-5"/>
						
							<rect x="56.2" y="115.3" transform="matrix(0.8941 -0.4478 0.4478 0.8941 -43.5109 48.0161)" class="st10" width="47.2" height="1.4"/>
					</g>
				</g>
			</g>
			<g id="g39" transform="matrix(0.41732477,0.83289362,-0.8926863,0.37590972,223.14936,31.906724)" inkscape:label="rss">
				
					<ellipse id="circle9" transform="matrix(0.988 -0.1544 0.1544 0.988 -23.8595 16.0944)" class="st8" cx="91.7" cy="161.7" rx="9.8" ry="9.1"/>
				<path id="path9-0" class="st8" d="M103.3,166.7l-4.4-0.7c0.9-5.9-3.2-11.4-9.1-12.4l0,0l0.7-4.4
					C98.8,150.5,104.5,158.3,103.3,166.7L103.3,166.7z"/>
				<path id="path10-6" class="st8" d="M106.4,167.1c1.5-10.1-5.4-19.5-15.5-21.1c0,0,0,0,0,0l0.7-4.6c12.6,1.9,21.3,13.7,19.4,26.4
					L106.4,167.1z"/>
			</g>
		</g>
	</g>
	<g>
		<path id="path32_00000011714329583052597680000002520837083700728757_" class="st2" d="M81.4,85.5c0,0-3.9-11.3-10.9-13
			c-7-1.7-9.9,3.9-5.4,7.1c4.5,3.2,8.4,6.6,8.8,11C74.4,95,83.9,92.6,81.4,85.5z"/>
		<path d="M76.7,93.9c-0.5,0-1.1-0.1-1.6-0.3c-1.3-0.5-2.2-1.6-2.3-3c-0.4-4-4.3-7.3-8.4-10.2c-2.3-1.7-3.2-4.2-2.2-6.4
			c0.9-2,3.7-3.9,8.5-2.7c7.5,1.8,11.5,13.2,11.7,13.8c0.9,2.7,0.5,5.2-1.3,6.9C80,93.2,78.3,93.9,76.7,93.9z M68,73.3
			c-2,0-3.3,0.8-3.7,1.8c-0.5,1.2,0,2.5,1.5,3.6c4.5,3.3,8.8,7,9.3,11.8c0.1,0.5,0.3,0.9,0.8,1.1c0.9,0.3,2.6,0,3.7-1.1
			c0.8-0.8,1.6-2.2,0.7-4.6c0,0,0,0,0,0c0-0.1-3.8-10.8-10.1-12.3C69.4,73.4,68.6,73.3,68,73.3z"/>
	</g>
	<path d="M74.4,43C63.3,43,54.3,34,54.3,23c0-11.1,9-20.1,20.1-20.1s20.1,9,20.1,20.1C94.5,34,85.5,43,74.4,43z M74.4,5.2
		c-9.8,0-17.8,8-17.8,17.8s8,17.8,17.8,17.8s17.8-8,17.8-17.8S84.2,5.2,74.4,5.2z"/>
	<path d="M122.4,38.5c-11.1,0-20.1-9-20.1-20.1c0-11.1,9-20.1,20.1-20.1s20.1,9,20.1,20.1C142.4,29.5,133.4,38.5,122.4,38.5z
		 M122.4,0.6c-9.8,0-17.8,8-17.8,17.8s8,17.8,17.8,17.8s17.8-8,17.8-17.8S132.2,0.6,122.4,0.6z"/>
	<path d="M93.7,20.3c-0.2,0-0.5-0.1-0.7-0.2c-0.5-0.4-0.6-1.1-0.2-1.6c0.1-0.1,2.7-3.7,6.3-3.7c2,0,3.7,1,5.3,3
		c0.4,0.5,0.3,1.2-0.2,1.6c-0.5,0.4-1.2,0.3-1.6-0.2c-1.1-1.4-2.3-2.1-3.5-2.1c-2.4,0-4.5,2.8-4.5,2.8C94.3,20.1,94,20.3,93.7,20.3z
		"/>
</g>
</svg>
