<svg xmlns="http://www.w3.org/2000/svg" xmlns:xlink="http://www.w3.org/1999/xlink" xml:space="preserve" id="tinyfeed_svg__svg33" x="0" y="0" version="1.1" viewBox="0 0 512 512"><style>.tinyfeed_svg__st0{fill:#61e0ee}.tinyfeed_svg__st0,.tinyfeed_svg__st1,.tinyfeed_svg__st2{fill-rule:evenodd;clip-rule:evenodd}.tinyfeed_svg__st2{fill:#d6c295}.tinyfeed_svg__st3{fill:#61e0ee}.tinyfeed_svg__st5{fill:#b7f8ff}.tinyfeed_svg__st5,.tinyfeed_svg__st7,.tinyfeed_svg__st8{fill-rule:evenodd;clip-rule:evenodd}.tinyfeed_svg__st7{fill:#fff}.tinyfeed_svg__st8{fill:#f78422}.tinyfeed_svg__st9{fill:#8d2d00}</style><path id="tinyfeed_svg__path1" d="M134.1 146.3c-.7-4.4-9.7-11.1-13.4-12.7-45.9-18.8-29.8 33.9-3 31.9" class="tinyfeed_svg__st0"/><path id="tinyfeed_svg__path2" d="M103.9 124.5h22.5l.3.3.3.3.3.3.3.3.3.3.3.3.3.3.3.3v9.6l-.3.3-.3.3-.3.3-.3.3-.3.3-.3.3h-.3 2.3-.3l7 11.1H130l-.3-.3-.3-.3-.4 1.2-.3-.3-.3-.3-.4-.4v-2.6l-5.7-5.7h-18.7 3.6l.3.3.3.3.3.3.3.3.3.3.3.3v6.6l-.3.3-.3.3-.3.3-.3.3-.3.3-.3.3h-5.7 15.8-16.4 11.7z" class="tinyfeed_svg__st1"/><path id="tinyfeed_svg__path3_00000033339937350180477960000010005808529367990460_" d="M386.9 292.2s30.5 25.8 27.5 50c-3.4 24.1-24.1 26.2-28.8 8-4.7-17.8-10.4-34.2-23.8-41.2-12.8-6.7 6-33.6 25.1-16.8" class="tinyfeed_svg__st2"/><path d="M398.3 366c-7.7 0-13.7-5.7-16.1-14.8-4.4-16.4-9.7-32.5-21.8-38.6-4.4-2-6.7-6-6.4-11.1.3-6.7 5.4-13.7 12.4-16.8 7.7-3.4 16.1-1.7 23.1 4.7 1.3 1.3 32.2 27.5 28.5 53.3-2.3 16.4-11.7 22.8-19.1 23.1.1.2-.3.2-.6.2m-24.1-75.5c-2 0-3.7.3-5 1-4.7 2-7.7 6.7-7.7 10.1 0 2 .7 3 2.3 4 14.8 7.4 20.8 25.5 25.5 43.6 1.3 5.7 5 9.4 9.4 9.1 4.7-.3 10.4-5.7 12.1-16.8 3-21.8-25.8-46.3-26.2-46.6-3.7-3.4-7.4-4.4-10.4-4.4"/><path d="M272.6 57.8h-.7c-2-.3-3.4-2.3-3.4-4.4 3-20.8 8.7-32.2 17.1-34.9 8-2.7 14.8 4.4 15.1 4.7 1.3 1.3 1.3 4 0 5.4-1.3 1.3-4 1.3-5.4 0 0 0-3.7-3.7-7.4-2.7-2.3.7-8.4 5-12.1 28.8.1 1.8-1.6 3.1-3.2 3.1m-15.1-2.3c-2 0-3.4-1.3-3.7-3.4-3.4-25.2-9.1-29.8-11.4-30.5-3-1-6.4 2-6.4 2-1.3 1.3-3.7 1.7-5.4 0-1.3-1.3-1.7-3.7 0-5.4 2.3-2.3 8-6 14.1-4 8.4 2.7 13.7 14.8 16.8 36.9.3 2-1.3 4-3.4 4.4z" class="tinyfeed_svg__st3"/><path d="M265.2 50.1c-2 0-3.7-1.7-3.7-3.4-1.7-25.2 1.3-39.9 9.7-44.9 5.4-3 11.1-1.3 13.4.3 1.7 1 2.3 3.4 1 5.4-1 1.7-3.4 2.3-5 1.3-.3 0-3-1.7-5.7-.3-2.3 1.7-8 8.4-6 37.9.3 1.7-1.4 3.4-3.7 3.7" class="tinyfeed_svg__st3"/><path id="tinyfeed_svg__path7_00000112617227707587969950000009443101036243281571_" d="M345.7 488.4s-2.3-39.9-23.1-52c-21.1-12.1-35.2 3.4-23.8 17.8s21.1 29.2 18.4 43.6c-2.7 14.7 30.1 15.7 28.5-9.4" class="tinyfeed_svg__st2"/><path d="M328.6 511.8c-3.7 0-7.4-1-10.4-3-4-2.7-5.7-7-4.7-11.7 2.3-13.1-7-27.5-17.8-40.6-6-7.7-6.7-16.4-1.3-22.5 4.7-5.7 15.4-9.4 29.8-1 22.5 12.7 25.2 53 25.2 55 .7 9.4-3.4 17.1-10.4 21.1-3.1 2.1-6.7 2.7-10.4 2.7m-20.5-76.1c-3.7 0-6.4 1.3-8 3-2.7 3.4-2.3 8 1.7 12.7 11.7 14.8 22.1 30.5 19.1 46.6-.3 1.7.3 3 1.7 4.4 2.7 2 8.4 2.3 12.7 0 3.4-1.7 7-5.7 6.7-14.1 0-.3-2.3-38.2-21.5-49-4.7-2.2-8.7-3.6-12.4-3.6"/><path id="tinyfeed_svg__path8_00000174589325631811892540000014858496992813068963_" d="M164.6 493.1s21.1-34.2 10.7-56-30.9-17.4-29.8 1c1 18.4.3 35.9-10.1 46.3-10.4 10.3 15.8 30.1 29.2 8.7" class="tinyfeed_svg__st2"/><path d="M149.2 506.5h-2c-7.7-.7-14.8-6-17.1-12.4-1.7-4.4-.7-9.1 2.7-12.4 9.4-9.4 9.7-26.5 9.1-43.6-.7-9.7 4-17.1 11.7-19.1 7-1.7 18.1 1.3 25.2 16.4 11.1 23.5-10.1 57.7-11.1 59.7-4.5 7.4-11.2 11.4-18.5 11.4m8-80.5c-.7 0-1.3 0-2 .3-4 1-6.4 5.4-6 11.4 1 18.8.7 37.6-11.1 49.3-1.3 1.3-1.7 2.7-1 4.4 1 3 5.4 6.7 10.7 7.4 3.7.3 9.1-.7 13.4-7.7.3-.3 20.1-32.5 10.7-52.3-4.3-9.1-10-12.8-14.7-12.8"/><path id="tinyfeed_svg__path9" d="M382.2 111.8c4.4 1.7 8.7-1 12.1-3.7 38.9-30.2-14.4-42.6-25.8-18.4" class="tinyfeed_svg__st0"/><path id="tinyfeed_svg__path10" d="M391.3 72.2h.9v35.2l-.3.3-.3.3-.3.3-.3.3-.3.3-.3.3-.3.3-.3.3-.3.3-.3.3-.3.3-.3.3-.3.3-.3.3-.3.3-.3.3-.3.3-.3.3-.3.3-.3.3-.3.3-.3.3-.3.3-.3.3-.3.3-.3.3-.3.3-.3.3-.3.3-.3.3-.3.3-.3.3-.3.3-.3.3-.3.3-.3.3-.3.3-.3.3-.3.3h-11.1l-.3-.3-.3-.3-.3-.3-.3-.3-.3-.3-.3-.3v-6.6l.3-.3.3-.3.3-.3.3-.3.3-.3h5.4l.3-.3h6.3v.9l-.3.3-.3.3-.3.3-.3.3-7-18.4H366h1.3l-.3-.3-.3-.3-.3-.3-.3-.3-.3-.3v.9-9h8.7z" class="tinyfeed_svg__st1"/><path id="tinyfeed_svg__path11" d="M379.5 431.4s20.5-39.9 16.4-74.1c-12.1-107.3 19.4-128.1 7-193.5-4.4-22.8-12.4-48.6-26.2-67.4C347 54.8 288.7 33.3 238 43c-20.5 4-38.6 12.7-56.7 22.1-63 33.5-76.1 104.3-68.1 164 3.7 26.5 26.2 67.4 23.1 93.9-7 55-5 84.8 12.1 120.7 14.8 30.2 71.8 53.3 134.1 46.6 10.9-.9 74.6-12.3 97-58.9" class="tinyfeed_svg__st0"/><defs><path id="tinyfeed_svg__SVGID_1_" d="M379.5 431.4s20.5-39.9 16.4-74.1c-12.1-107.3 19.4-128.1 7-193.5-4.4-22.8-12.4-48.6-26.2-67.4C347 54.8 288.7 33.3 238 43c-20.5 4-38.6 12.7-56.7 22.1-63 33.5-76.1 104.3-68.1 164 3.7 26.5 26.2 67.4 23.1 93.9-7 55-5 84.8 12.1 120.7 14.8 30.2 71.8 53.3 134.1 46.6 10.9-.9 74.6-12.3 97-58.9"/></defs><clipPath id="tinyfeed_svg__SVGID_00000100364483232094454720000011024181989798979748_"><use xlink:href="#tinyfeed_svg__SVGID_1_" style="overflow:visible"/></clipPath><path id="tinyfeed_svg__path13" d="M154.2 91.3s-20.8 51-8 92.6 35.2 98.9 31.5 156.9c-3.7 57.7 2.7 94.9 15.4 111.3 25.8 32.9 95.9 37.9 114 32.5s-70.4 18.4-121.1-2-57.7-106.3-51-160-36.2-69.1-21.8-161.3c22.5-54.2 23.2-51.2 41-70" style="clip-path:url(#tinyfeed_svg__SVGID_00000100364483232094454720000011024181989798979748_);fill-rule:evenodd;clip-rule:evenodd;fill:#4fcbe0"/><path id="tinyfeed_svg__path14" d="M238.7 170.5s-6.4 31.5-43.6 29.5c-37.6-1.7-39.9-39.9-39.9-39.9z" style="clip-path:url(#tinyfeed_svg__SVGID_00000100364483232094454720000011024181989798979748_);fill-rule:evenodd;clip-rule:evenodd;fill:#4fcbe0"/><path id="tinyfeed_svg__path15" d="M398.6 154.7s-6.4 31.5-43.6 29.5c-37.6-1.7-39.9-39.9-39.9-39.9z" style="clip-path:url(#tinyfeed_svg__SVGID_00000100364483232094454720000011024181989798979748_);fill-rule:evenodd;clip-rule:evenodd;fill:#4fcbe0"/><path id="tinyfeed_svg__path16" d="M263.2 35.7h41.6l.7.3.7.3.7.3.7.3.7.3.7.3.7.3.7.3.7.3.7.3.7.3.7.3.7.3.7.3.7.3.7.3.7.3.7.3.7.3.7.3.7.3.7.3.7.3.7.3.7.3.7.3.7.3.7.3.7.3.7.3.7.3.7.3.7.3.7.3.7.3.7.3.7.3.7.3.7.3.7.3.7.3.7.3.7.3.7.3.7.3.7.3.7.3.7.3.7.3.7.3.7.3.7.3.7.3.7.3.7.3.7.3.7.3.7.3.7.3.7.3.7.3h5.7l.3.3h.3l.3.3.3.3.3.3.3.3.3.3.3.3.3.3.3.3.3.3.3.3.3.3.3.3.3.3.3.3.3.3.3.3.3.3.3.3.3.3.3.3.3.3.3.3.3.3.3.3.3.3.3.3.3.3.3.3.3.3.3.3.3.3.3.3.3.3.3.3.3.3.3.3.3.3.3.3.3.3.3.3.3.3.3.3.3.3.3.3.3.3.3.3.3.3.3.3.3.3.3.3.3.3.3.3.3.3.3.3.3.3.3.3.3.3.3.3.3.3.3.3.3.3.3.3.3.3.3.3.3.3.3.3.3.3.3.3.3.3.3.3.3.3.3.3.3.3.3.3.3.3.3.3.3.3-15.1-8.4.3.3.3.3.3.3.3.3.3.3.3.3.3.3.3.3.3.3.3.3.3.3.3.3.3.3.3.3-1.3-1.3.3.3.3.3.3.3.3.3.3.3.3.3.3.3.3.3.3.3.3.3.3.3.3.3.3.3.3.3.3.3.3.3.3.3.3.3.3.3.3.3.3.3.3.3.3.3.3.3.3.3.3.3.3.3.3.3.3.3-3-3 .3.3.3.3.3.3.3.3.3.3.3.3.3.3.3.3.3.3.3.3.3.3.3.3.3.3.3.3.3.3.3.3.3.3.3.3.3.3.3.3.3.3.3.3.3.3.3.3.3.3.3.3.3.3.3.3.3.3.3.3.3.3.3.3.3.3.3.3.3.3.3.3.3.3.3.3.3.3.3.3v.3l.3.3v.6l.3.3v13.2l.3.7.3.7.3.7.3.7.3.7.3.7.3.7.3.7.3.7.3.7.3.7.3.7.3.7.3.7.3.7.3.7.3.7.3.7.3.7.3.7.3.7.3.7.3.7.3.7.3.7.3.7.3.7.3.7.3.7.3.7.3.7.3.7.3.7.3.7.3.7.3.7.3.7.3.7.3.7.3.7.3.7.3.7.3.7.3.7.3.7.3.7.3.7.3.7.3.7.3.7.3.7.3.7.3.7.3.7.3.7.3.7.3.7.3.7.3.7.3.7v56.1V185v41.1l-.3 1.3-.3 1.3-.3 1.3-.3 1.3-.3 1.3-.3 1.3-.3 2.3-.3 2.3-.3 1.3-.3 1.3-.3 1.3-.3 1.3-.3 1.3-.3 1.3v57.4-2.3V393l-9.4 5.7-.3.7-.3.7-.3.7-.3.7-.3.7-.3.7-.3.7-.3.7-.3.7-.3.7-.3.7-.3.7-.3.7-.3.7-.3.7-.3.7-.3.7-.3.7-.3.7-.3.7-.3.7-.3.7-.3.3-.3.3-.3.3-.3.3-.3.3-.3.3-.3.3-.3.3-.3.3-.3.3-.3.3-.3.3v2.7l-.3.7-.3.3-.3.3-.3.3v9l-.3.3v.3l-.3.3-.3.3-.3.3-.3.3-.3.3-.3.3-.3.3-.3.3-.3.3-.3.3-.3.3-.3.3-.3.3-.3.3-.3.3-.3.3-.3.3-.3.3-.3.3-.3.3-.3.3-.3.3-.3.3-.3.3-.3.3-.3.3-.3.3-.3.3-.3.3-.3.3-.3.3 3.4-4.4-.3.3-.3.3-.3.3-.3.3-.3.3-.3.3-.3.3-.3.3-.3.3-.3.3-.3.3-.3.3-.3.3-.3.3-.3.3-.3.3-.3.3-.3.3-.3.3-.3.3-.3.3-.3.3-.3.3-.3.3-.3.3-.3.3-.3.3-.3.3-.3.3-.3.3-.3.3-.3.3-.3.3-.3.3-.3.3-.3.3-.3.3-.3.3-.3.3-.3.3-.3.3-.3.3-.3.3-.3.3-.3.3-.3.3-.3.3-.3.3-.3.3-.3.3-.3.3-.3.3-.3.3-.3.3-.3.3-.3.3-.3.3-.3.3-.3.3-.3.3-.3.3-.3.3-.3.3-.3.3-.3.3-.3.3-.3.3-.3.3-.3.3-.3.3-.3.3-.3.3-.3.3-.3.3-.3.3-.3.3-.3.3-.3.3-.3.3-.3.3-.3.3-.3.3-.3.3-.3.3-.3.3-.3.3-.3.3-.3.3-.3.3-.3.3-.3.3-.3.3-.3.3-.3.3-.3.3-.3.3h-.3.3-3l-.3.3-.3.3-.3.3-.3.3-.3.3-.3.3-.3.3-.3.3-.3.3-.3.3-.3.3-.3.3-.3.3-.3.3-.3.3-.3.3-.3.3-.3.3-.3.3-.3.3-.3.3-.3.3-.3.3-.3.3-.3.3-.3.3-.3.3-.3.3-.3.3-.3.3-.3.3-.3.3-.3.3-.3.3-.3.3-.3.3-.3.3-.3.3-.3.3-.3.3-.3.3-.3.3-.3.3-.3.3-.3.3-.3.3-.3.3-.3.3-.3.3-.3.3-.3.3-.3.3-.3.3-.3.3-.3.3-.3.3-.3.3-.3.3-.3.3-.3.3-.3.3-.3.3-.3.3-.3.3-.3.3-.3.3h-78.1.9-27.3l-.7-.3-.7-.3-.7-.3-.7-.3-.7-.3-.7-.3-.7-.3-.7-.3-.7-.3-.7-.3-.7-.3-.7-.3-.7-.3-.7-.3-.7-.3-.7-.3-.7-.3-.7-.3-.7-.3-.7-.3-.7-.3-.7-.3-.7-.3-.7-.3-.7-.3-.7-.3-.7-.3-.7-.3-.7-.3-.7-.3-.7-.3-.7-.3-.7-.3-.7-.3-.7-.3-.7-.3-.7-.3-.7-.3-.7-.3-.7-.3-.7-.3-.7-.3-.7-.3-.7-.3-.7-.3-.7-.3-.7-.3-.7-.3-.7-.3-.7-.3-.7-.3-.7-.3-.7-.3-.7-.3-.7-.3-.7-.3-.3-.3-.3-.3-.3-.3-.3-.3-.3-.3-.3-.3-.3-.3-.3-.3-.3-.3-.3-.3-.3-.3-.3-.3-.3-.3h1.4-19.4l-.3-.3h-.6l-.3-.3-.3-.3h-.3l-.3-.3-.3-.3-.3-.3-.3-.3-.3-.3-.3-.3-.3-.3-.3-.3-.3-.3-.3-.3-.3-.3-.3-.3-.3-.3-.3-.3-.3-.3-.3-.3V474l-.3-.3v-22.5l-.3-.3-.3-.3-.3-.3-.3-.3-.3-.3-.3-.3 1.7-3.7-.3-.3-.3-.3-.3-.3-.3-.3-.3-.3-.3-.3-.3-.3-.3-.3-.3-.3-.3-.3-.3-.3-.3-.3-.3-.3-.3-.3-.3-.3-.3-.3-.3-.3-.3-.3-.3-.3-.3-.3-.3-.3-.3-.3v-155l-9.4 6.4v-.7l-.3-.7-.3-.7-.3-.7-.3-.7-.3-.7-.3-.7-.3-.7-.3-.7-.3-.7-.3-.7.7-2-.3-.7-.3-1-.3-.7-.3-.7-.3-.7-.3-.7-.3-.7-.7-1.7-.7-1.7v-1.7l-.7-1.7-.3-1.7-.7-1.7-.7-1.7-.3-.7-.3-.7-.3-.7-.3-.7-.3-.7.3-1-.3-.7-4.9-2.5v-1l-.3-.7-.3-.7-.3-.7-.3-.7-.3-.7-.3-.7-.3-.7-.3-.7.3-1.3V129.7l.3-.3v-.3l.3-.3.3-.3.3-.3.3-.3.3-.3.3-.3.3-.3.3-.3.3-.3.3-.3.3-.3.3-.3.3-.3.3-.3.3-.3.3-.3.3-.3.3-.3.3-.3.3-.3.3-.3.3-.3.3-.3.3-.3.3-.3.3-.3.3-.3.3-.3.3-.3.3-.3.3-.3 5.7-10.1.3-.3.3-.3.3-.3.3-.3.3-.3.3-.3.3-.3.3-.3.3-.3.3-.3.3-.3.3-.3.3-.3.3-.3.3-.3.3-.3.3-.3.3-.3.3-.3.3-.3.3-.3.3-.3.3-.3.3-.3.3-.3.3-.3.3-.3.3-.3.3-.3.3-.3.3-.3-3.7.3.3-.3.3-.3.3-.3.3-.3.3-.3.3-.3.3-.3.3-.3.3-.3.3-.3h-.7l.3-.3.3-.3.3-.3.3-.3.3-.3.3-.3.3-.3.3-.3.3-.3-.3-.3h.3l.3-.3.3-.3.3-.3v-.3l.3-.3.3-.3.3-.3.3-.3.3-.3.3-.3h-.3l.3-.3.3-.3.3-.3.3-.3.3-.3.3-.3.3-.3.3-.3.3-.3.3-.3.3-.3.3-.3.3-.3.3-.3.3-.3.3-.3.3-.3.3-.3.3-.3.3-.3.3-.3.3-.3.3-.3.3-.3h.3l.3-.3.3-.3.3-.3.3-.3.3-.3.3-.3.3-.3v.3l.3-.3.3-.3h.3v-.3l.3-.3.3-.3.3-.3.3-.3.3-.3.3-.3.3-.3.3-.3.3.3.3-.3.3-.3.3-.3.3-.3.3-.3.3-.3.3-.3.3-.3.3-.3.3-.3.3.7.3-.3.3-.3h.3l.3-.3.3-.3.3-.3.3-.3.3-.3.3-.3.3.3.3-.3.3-.3.3-.3.3-.3.3-.3.3-.3.3.3.3-.3.3-.3h.3l.3-.3.3-.3.3-.3.3-.3.3-.3.3-.3.3-.3.3-.3.7.7.3-.3.3-.3h.3l.3-.3.3-.3.3-.3.3-.3.3-.3.7.3.3-.3.3-.3.3-.3.3-.3.3-.3.3-.3.3-.3.3-.3 1 .7 1-.3 1-.3 1-.3 1-.3 1-.3 1-.3v-1.3l1-.3 1-.3 1-.3 1-.3 1-.3.3-.3.3-.3.3-.3.3-.3.3-.3h.3l.3-.3.3-.3.3-.3.3-.3.3-.3.3-.3.3-.3 1 .7.3-.3.3-.3.3-.3.3-.3.3-.3.3-.3.3-.3 1.3.7h.3l.3-.3.3-.3.3-.3.3-.3.3-.3 1 .3.3-.3.3-.3.3-.3.3-.3.3-.3.3-.3.3-.3.3-.3.3-.3 1.3 1h.7l.3-.3.3-.3.3-.3.7.3.3-.3.3-.3.3-.3.3-.3.3-.3.3-.3 1.3.7.3-.3.3-.3.3-.3.3-.3h19.5l7-6.7h18.3zm-.7 10h-21.8L243 47h-22.7l-.3.3-.3.3-.3.3-5.7 7.7-.3.3-.3.3-.3.3-.3.3-.3.3-.3.3-1-.7h-.3l-.3.3-.3.3-.3.3-.3.3-.3.3-.3.3-.3.3-.3.3-.3.3-.3.3-.3.3-.3.3-.3.3-.3.3-.3.3-.3.3-2-2h-.3l-.3.3-.3.3-.3.3-.3.3-1-.3-.3.3-.3.3-.3.3-.3.3-.3.3-.3.3-.3.3-1-.7-.3.3-.3.3h-.3l-.3.3-1 .3-1 .3-1 .3-1 .3-1 .3-.3.7-.7.7-1 .3-1 .3-.7.7-1 .3-1 .3-1 .3-.3.3-.3.3-.3.3-.3.3-.3.3-.3.3-.3.3-.3.3-.3.3-.3.3-.3-.7-.3.3-.3.3-.3.3-.3.3-.3.3-.3.3-.3.3-.3.3-.3-1-.3.3-.3.3-.3.3-.3.3-.3.3-.3.3-.3.3-.3.3-.3.3-.3.3-.3-1-.3.3-.3.3-.3.3h-.3l-.3.3-.3.3-.3.3-.3.3-.3.3-.3-.3-.3.3-.3.3-.3.3-.3.3-.3.3-.3.3-.3.3-.3.3v-.7l-.3.3h-.3l-.3.3-.3.3-.3.3-.3.3-.3.3-.3.3-.3.3-.3.3-.3.3-.3.3-.3.3.3-.7-.3.3-.3.3-.3.3-.3.3-.3.3-.3.3-.3.3-.3.3-.3.3-.3.3-.3.3.3-1-.3.3-.3.3-.3.3-.3.3-.3.3-.3.3-.3.3-.3.3-.3.3-.3.3-.3.3.3-.7-.3.3-.3.3v.3h-.3l-.3.3-.3.3-.3.3-.3.3-.3.3-.3.3-.3.3-.3.3.3-.3v.3l-.3.3-.3.3-.3.3-.3.3-.3.3-.3.3-.3.3-.3.3-.3.3-.3.3-.3.3-.3.3.7-.7V97l-.3.3-.3.3-.3.3-.3.3-.3.3-.3.3-.3.3-.3.3-.3.3-.3.3-.3.3-.3.3 1-.3-.3.3-.3.3-.3.3-.3.3-.3.3-.3.3-.3.3-.3.3-.3.3-.3.3-.3.3 1-.3-.3.3-.3.3-.3.3-.3.3h.3l-.3.3-.3.3-.3.3-.3.3-.3.3-.3.3h.7l-.3.3-.3.3-.3.3-.3.3-.3.3-.3.3-.3.3-.3.3-.3.3h1l-.3.3-.3.3-.3.3-.3.3-.3.3-.3.3-.3.3-.3.3-.3.3-.3.3-.3.3h1.3l-.3.3-.3.3-.3.3-.3.3.3.3v.3l-.3.3-.3.3-.3.3.3.3h-.3l-.3.3v.3l-.3.3v117.9l.3.7.3.7.3.7.3.7.3.7.3.7.3.7.3.7.3.7.3.7.3.7.3.7.3.7.3.7.3.7.3.7.3.7.3.7.7 1.7.7 1.7.7 1.7.7 1.7.7 1.7.7 1.7.7 1.7.3.7.3.7.3.7.3.7.3.7.3.7.3.7.3.7.3.7.3.7.3.7.3.7.3.7.3.7.3.7.3.7.3.7.3.7.3.7.3.7v132.1l-2.3 11.7v.3l.3.3.3.3.3.3.3.3.3.3.3.3.3.3.3.3.3.3.3.3.3.3.3.3.3.3.3.3.3.3.3.3.3.3.3.3.3.3.3.3.3.3h17.7l.3.3.3.3.3.3.3.3.3.3.3.3.3.3.3.3.3.3.3.3.3.3.3.3.3.3.3.3.3.3.3.3.3.3.3.3.3.3.3.3.3.3.3.3.3.3.3.3.3.3.3.3.3.3.3.3.3.3.7.3.7.3.7.3.7.3.7.3.7.3.7.3.7.3.7.3.7.3.7.3.7.3.7.3.7.3.7.3.7.3.7.3.7.3.7.3.7.3.7.3.7.3.7.3.7.3.7.3.7.3.7.3.7.3.7.3.7.3.7.3.7.3.7.3.7.3.7.3h106l.3-.3.3-.3.3-.3.3-.3.3-.3.3-.3.3-.3.3-.3.3-.3.3-.3.3-.3.3-.3.3-.3.3-.3.3-.3.3-.3.3-.3.3-.3.3-.3.3-.3.3-.3.3-.3.3-.3.3-.3.3-.3.3-.3.3-.3.3-.3.3-.3.3-.3.3-.3.3-.3.3-.3.3-.3.3-.3.3-.3.3-.3.3-.3.3-.3.3-.3.3-.3.3-.3.3-.3.3-.3.3-.3.3-.3.3-.3.3-.3.3-.3.3-.3.3-.3.3-.3.3-.3.3-.3.3-.3.3-.3.3-.3.3-.3.3-.3.3-.3h9.6l.3-.3h.6l.3-.3.3-.3.3-.3.3-.3.3-.3.3-.3.3-.3.3-.3.3-.3.3-.3.3-.3.3-.3.3-.3.3-.3.3-.3.3-.3.3-.3.3-.3.3-.3.3-.3.3-.3.3-.3.3-.3.3-.3.3-.3.3-.3.3-.3.3-.3.3-.3.3-.3.3-.3.3-.3.3-.3.3-.3.3-.3.3-.3.3-.3.3-.3.3-.3.3-.3.3-.3.3-.3.3-.3.3-.3.3-.3.3-.3.3-.3.3-.3.3-.3.3-.3.3-.3.3-.3.3-.3.3-.3.3-.3.3-.3.3-.3.3-.3.3-.3.3-.3.3-.3.3-.3.3-.3.3-.3.3-.3.3-.3.3-.3.3-.3.3-.3.3-.3.3-.3.3-.3.3-.3.3-.3.3-.3.3-.3.3-.3v-.6l.3-.3v-17.1l.3-.3.3-.3.3-.3v-3.3l.3-.3.3-.3.3-.3.3-.3.3-.3.3-.3.3-.3.3-.3.3-.3.3-.3.3-.3.3-.3.3-.3.3-.7.3-.7.3-.7.3-.7.3-.7.3-.7.3-.7.3-.7.3-.7.3-.7.3-.7.3-.7.3-.7.3-.7.3-.7.3-.7.3-.7.3-.7.3-.7.3-.7v-.3V372v-32.2 28.5-47.8.5-14.6 5.7-60.8l.3-1.3.3-1.3.3-1.3.3-1.3.3-1.3.3-1.3.3-2.3.3-2.3.3-1.3.3-1.3.3-1.3.3-1.3.3-1.3.3-1.3V128.8l-.3-.7-.3-.7-.3-.7-.3-.7-.3-.7-.3-.7-.3-.7-.3-.7 3.4 10.4-.3-.7-.3-.7-.3-.7-.3-.7-.3-.7-.3-.7-.3-.7-.3-.7-.3-.7-.3-.7-.3-.7-.3-.7-.3-.7-.3-.7-.3-.7-.3-.7-.3-.7-.3-.7-.3-.7-.3-.7-.3-.7-.3-.7-.3-.7-.3-.7-.3-.7-.3-.7-.3-.7-.3-.7-.3-.7-.3-.7-.3-.7 3.7 4-.3-.3-.3-.3-.3-.3-.3-.3-.3-.3-.3-.3-.3-.3-.3-.3-.3-.3-.3-.3-.3-.3-.3-.3-.3-.3 1-2.3V93.4l-.3-.3-.3-.3-.3-.3-.3-.3-.3-.3-.3-.3-.3-.3-.3-.3-.3-.3-.3-.3-.3-.3-.3-.3-.3-.3-.3-.3-5.4 7-.3-.3-.3-.3-.3-.3-.3-.3-.3-.3-.3-.3.7.3-.3-.3-.3-.3-.3-.3-.3-.3-.3-.3-.3-.3-.3-.3-.3-.3-.3-.3 1 .7v-.3l-.3-.3-.3-.3h-.3l-.3-.3-.3-.3-.3-.3-.3-.3-.3-.3-.3-.3-.3-.3-.3-.3-.3-.3-.3-.3-.3-.3 1.3 1-.3-.3-.3-.3-.3-.3-.3-.3-.3-.3-.3-.3-.3-.3-.3-.3-.3-.3-.3-.3-.3-.3-.3-.3-.3-.3-.3-.3 1.3 1.3-.3-.3-.3-.3-.3-.3-.3-.3-.3-.3-.3-.3-.3-.3-.3-.3-.3-.3-.3-.3-.3-.3-.3-.3-.3-.3 1 1.3v-.3l-.3-.3-.3-.3-.3-.3v.3l-.3-.3-.3-.3-.3-.3-.3-.3-.3-.3-.3-.3-.3-.3-.3-.3-.3-.3-.3-.3 1 1.3-.3-.3-.3-.3-.3-.3-.3-.3-.3-.3.3.3H352l-.3-.3-.3-.3-.3-.3-.3-.3-.3-.3-.3-.3.3.7v-.3l-.3-.3-.3-.3-.3-.3-.3-.3-.3-.3-.3-.3-.3-.3-.3-.3-.3-.3.7 1.3h-.3l-.3-.3-.3-.3-.3-.3-.3-.3-.3-.3-.3-.3-.3-.3-.3-.3-.3-.3-.3-.3-.3-.3-.3-.3-.3-.3H343l-.3-.3h-.3l1 1.3h-12.6l-.7-.3 3-6.4-.7-.3-.7-.3-.7-.3-.7-.3-.7-.3-.7-.3-.7-.3-.7-.3-.7-.3-.7-.3h.3-.3l-.7-.3-.7-.3-.7-.3-.7-.3-.7-.3-.7-.3-.7-.3-.7-.3-.7-.3.7.3-.7-.3-.7-.3h-.3l-.7-.3-.7-.3h-.3l-.7-.3-.7-.3-.7-.3-.7-.3-.7-.3v.3l-.7-.3-.7-.3-.7-.3-.7-.3-.7-.3v.3h-.7l-.7-.3-.7-.3-.7-.3-.7-.3v.3l-.7-.3-.7-.3-.7-.3-.7-.3-.7-.3-.7-.3-.7-.3h-43.1 5.7-.6V45.7z" class="tinyfeed_svg__st1"/><path id="tinyfeed_svg__path17" d="M275.2 468.3c63.7-11.1 78.8-40.6 82.5-54.3 7-25.5 10.4-74.8 4-101.3-2-9.1-6.4-19.4-13.1-27.2-15.1-16.4-83.5-18.1-109-14.1-10.1 1.7-19.4 5-28.5 9.1-31.9 13.4-42.6 169 17.4 184.1 16.2 4.3 36.7 5.3 46.7 3.7" class="tinyfeed_svg__st5"/><circle id="tinyfeed_svg__circle17" cx="385.6" cy="192.6" r="4.4" class="tinyfeed_svg__st5"/><circle id="tinyfeed_svg__circle18" cx="164.6" cy="200.7" r="4.4" class="tinyfeed_svg__st5" transform="rotate(-80.781 164.587 200.654)"/><path id="tinyfeed_svg__path18" d="M304.1 217.8c-2 6.4-3.4 18.4-7.4 23.8-2 2.3-6 2.3-8.7 2.3-15.1-.7-13.7-16.1-15.1-29.8" style="fill-rule:evenodd;clip-rule:evenodd;fill:#ededed"/><path id="tinyfeed_svg__path19" d="M272.9 210h3v21.1h1.5v-9.9l.3-.7.3-.7.3-.7.3-.7v-8.7h7.2v8.4l-.3.7-.3.7-.3.7-.3 1V241h-.6 1-6.3H290h-13.7v-22.3h3.3z" class="tinyfeed_svg__st1"/><path id="tinyfeed_svg__path20" d="M287.7 170.5c-12.4.7-21.8 7.7-21.5 15.4s10.7 13.7 23.1 12.7 21.8-7.7 21.5-15.4c-.7-7.7-11.1-13.7-23.1-12.7" class="tinyfeed_svg__st1"/><path id="tinyfeed_svg__path21" d="M290 190.6h.9v24.2h-3.2v-5 .2-18.3h1.2z" class="tinyfeed_svg__st1"/><path id="tinyfeed_svg__path22" d="M255.8 197h1.9l.3.3.3.3.3.3.3.3.3.3.3.3.3.3.3.3.3.3.3.3.3.3.3.3.3.3.3.3.3.3.3.3.3.3.3.3.3.3.3.3.3.3.3.3.3.3.3.3.3.3.3.3.3.3.3.3.3.3.3.3.3.3.3.3.3.3.3.3.3.3.3.3.3.3.3.3h70.2l.3.3.3.3.3.3.3.3.3.3v4.2l-.3.3-.3.3-.3.3-.3.3-.3.3h-.6 9.3-57l-17.8.3h-9.6l-.3-.3h-.3l-.3-.3-.3-.3-.3-.3-.3-.3 2.7-4-.3-.3-.3-.3-.3-.3h-.3l-.3-.3-.3-.3-.3-.3-.3-.3-.3-.3-.3-.3-.3-.3.3.7-.3-.3-.3-.3-.3-.3-.3-.3-.3-.3-.3-.3-.3-.3.3.7-.3-.3-.3-.3-.3-.3-.3-.3v.3-.3l-.3-.3-.3-.3-.3-.3-.3-.3-.3-.3-.3-.3-.3-.3-.3-.3.3.7-.3-.3-.3-.3-.3-.3v-.3l-.3-.3-.3-.3-.3-.3v.3-4.3l.3-.3.3-.3.3-.3.3-.3.3-.3h1.8z" class="tinyfeed_svg__st1"/><path id="tinyfeed_svg__path23" d="M333.9 65.9c-4.7-1.3-9.1-.7-9.7 1.7s2.3 5.7 7 7 9.1.7 9.7-1.7-2.3-5.4-7-7" class="tinyfeed_svg__st5"/><path id="tinyfeed_svg__path24" d="M162.6 86.6c-3 3.7-4 8-2.3 9.7 2 1.7 6 0 9.4-3.7 3-3.7 4-8 2.3-9.7-2.1-1.6-6.1.1-9.4 3.7" class="tinyfeed_svg__st5"/><path id="tinyfeed_svg__path25_00000046305357245823844420000001651715392607028132_" d="M365.8 82.3c-25.2-3.7-48.3 13.7-51.6 38.9-3.7 25.2 13.7 48.3 38.9 51.6 25.2 3.7 48.3-13.7 51.6-38.9S390.6 86 365.8 82.3" class="tinyfeed_svg__st7"/><path d="M359.4 177.2c-2.3 0-4.7 0-7-.3-27.2-3.7-45.9-28.8-41.9-56 2-13.1 8.7-24.8 19.4-32.5S353.7 77 366.8 79c27.2 3.7 45.9 28.8 41.9 56-4 24.4-25.1 42.2-49.3 42.2m-.3-91.6c-9.1 0-17.8 3-25.2 8.4-9.1 6.7-14.8 16.4-16.4 27.5-3.4 22.8 12.7 44.3 35.5 47.6s44.3-12.7 47.6-35.5c3.4-22.8-12.7-44.3-35.5-47.6-2-.4-4-.4-6-.4"/><path id="tinyfeed_svg__path26_00000165943614631685730110000017695370854552433848_" d="M204.5 95.7c-25.2-3.7-48.3 13.7-52 38.9s13.7 48.3 38.9 51.6c25.2 3.7 48.3-13.7 51.6-38.9 3.7-24.8-13.7-47.9-38.5-51.6" class="tinyfeed_svg__st7"/><path d="M198.1 190.6c-2.3 0-4.7 0-7-.7-27.2-3.7-45.9-28.8-41.9-56 2-13.1 8.7-24.8 19.4-32.5 10.7-8 23.5-11.4 36.9-9.4 13.1 2 24.8 8.7 32.5 19.4 8 10.7 11.4 23.5 9.4 36.9-2 13.1-8.7 24.8-19.4 32.5-9.1 6.4-19.5 9.8-29.9 9.8m-.3-91.6c-9.1 0-17.8 3-25.2 8.4-9.1 6.7-14.8 16.4-16.4 27.5-3.4 22.8 12.7 44.3 35.5 47.6 11.1 1.7 22.1-1.3 31.2-8s14.8-16.4 16.4-27.5c1.7-11.1-1.3-22.1-8-31.2s-16.4-14.8-27.5-16.4c-2-.4-4-.4-6-.4"/><path id="tinyfeed_svg__path27" d="M356.1 121.2c-8.7-1.3-17.1 5-18.4 13.7s5 17.1 13.7 18.4 17.1-5 18.4-13.7c1.4-9-4.7-17.1-13.7-18.4" class="tinyfeed_svg__st1"/><path id="tinyfeed_svg__path28" d="M197.1 132.6c-8.7-1.3-17.1 5-18.4 13.7s5 17.1 13.7 18.4 17.1-5 18.4-13.7c1.4-9-5-17.1-13.7-18.4" class="tinyfeed_svg__st1"/><path id="tinyfeed_svg__path29" d="M357.4 127.9c-2.3-.3-4.7 1.3-5 4-.3 2.3 1.3 4.7 4 5 2.3.3 4.7-1.3 5-4 .4-2.3-1.3-4.7-4-5" class="tinyfeed_svg__st7"/><path id="tinyfeed_svg__path30" d="M198.5 139.3c-2.3-.3-4.7 1.3-5 4-.3 2.3 1.3 4.7 4 5 2.3.3 4.7-1.3 5-4 0-2.3-1.7-4.7-4-5" class="tinyfeed_svg__st7"/><path id="tinyfeed_svg__path36-6_00000054957639276171832870000013885177338405975210_" d="m346.8 372.6-4.8 18.3-132.4 64.9 3.5-21.1z" class="tinyfeed_svg__st8"/><path d="m207.5 458.9 4.4-25.2 137.5-63.9-5.7 22.3-.5.5zm7.3-22.7-2.8 17.1 128.9-63.4 3.6-14.1z" class="tinyfeed_svg__st9"/><path id="tinyfeed_svg__path36-6-2_00000121970333717633083190000005053041279072264353_" d="m216 436.2-7.3 21.1-46.5-88-1.7-2.8c-5.3-9.6-.9-20.7 8.7-14.4z" class="tinyfeed_svg__st8"/><path d="m209.1 461.4-50-94.2c-3.5-6.5-3.1-13.7.6-17.2 1.3-1.3 4.6-3.4 10.4.3l.4.2.1.3 47.1 84.9zm-45.2-109.9c-.7-.2-1.5.4-2.4.9-2.1 1.8-2.7 7.4.3 13.1l1.7 2.8 44.7 84.6 5.9-16.6-46-83.3c-1.1-.7-2.6-1.6-4.2-1.5" class="tinyfeed_svg__st9"/><path id="tinyfeed_svg__path37_00000137116165097609979030000006438791711016511380_" d="M301.6 284.6c-.4-3.1-6.3-.7-8.3.1l-130.4 65.1 24.9 3.2 108.9-54.3" style="fill-rule:evenodd;clip-rule:evenodd;fill:#8d2d00"/><path d="M187.9 354.9 157 351l135.6-67.7c2.3-1.2 6.5-2.6 9-1.3 1.1.4 1.7 1.5 1.6 2.5l.1 1.6-3.4.5-.1-1.6c-.4-.2-2.9.1-5.8 1.4L168.5 349l18.9 2.4 110.1-54.9 1.4 2.9z" class="tinyfeed_svg__st9"/><path id="tinyfeed_svg__rect33-7-5_00000129917267712861009190000006146559712796789688_" d="m170.9 350.1 130.8-64.9 44.4 87.2-130.7 64.9z" class="tinyfeed_svg__st8"/><path d="m214.6 439.4-45.8-90.1 1.4-.7 132.2-65.5 45.8 90.1-1.4.7zm-41.5-88.2 42.7 84.1 127.9-63.5-42.7-84.2z" class="tinyfeed_svg__st9"/><path id="tinyfeed_svg__path38_00000019646510184345738680000013719526740819328948_" d="m198.7 416.5 15.4 28.2" class="tinyfeed_svg__st8"/><path d="m172.979 385.066 3.912-2.604 62.048 93.24-3.912 2.604z" class="tinyfeed_svg__st9"/><path id="tinyfeed_svg__path38-1_00000067220969585534679950000017145725935766095246_" d="M177.3 388.5 211 448" class="tinyfeed_svg__st8"/><path d="m125.67 323.055 4.114-2.84 133.162 192.887-4.114 2.84z" class="tinyfeed_svg__st9"/><path id="tinyfeed_svg__path38-9-3_00000018206549057792657890000007706429745874363808_" d="m215.3 442.9 42.2-21" class="tinyfeed_svg__st8"/><path d="m166.023 473.369 138.21-85.642 2.476 3.995-138.21 85.642z" class="tinyfeed_svg__st9"/><path id="tinyfeed_svg__path38-9-3-61_00000048483248465379717650000000736125609712511106_" d="m319.4 392 25.1-12.4" class="tinyfeed_svg__st8"/><path d="m288.411 409.519 84.233-51.824 2.463 4.003-84.233 51.824z" class="tinyfeed_svg__st9"/><path id="tinyfeed_svg__path38-9-3-61-8_00000065058998126328968760000005053058850384211080_" d="m309.2 402.1 33.5-16.5" class="tinyfeed_svg__st8"/><path d="m268.894 426.068 111.18-68.134 2.612 4.263-111.179 68.134z" class="tinyfeed_svg__st9"/><path id="tinyfeed_svg__path38-9-3-6_00000034782347873242004930000016916292072033039242_" d="m211.5 449.3 40.9-20.6" class="tinyfeed_svg__st8"/><path d="m163.542 478.782 134.54-83.424 2.476 3.994-134.539 83.424z" class="tinyfeed_svg__st9"/><ellipse id="tinyfeed_svg__circle9" cx="232.9" cy="348.2" class="tinyfeed_svg__st7" rx="26.7" ry="29.4" transform="rotate(-73.811 232.869 348.218)"/><path id="tinyfeed_svg__path9-0" d="m242.6 382.9-6.6-11c16-8.7 21.6-27.7 12.9-42.6l12-6.4c12.5 20.7 4.4 47.5-18.3 60" class="tinyfeed_svg__st7"/><path id="tinyfeed_svg__path10-6" d="M247.5 390.5c27.3-15 37.1-47.3 21.9-72.5l12.5-6.8c19.2 31.3 7 72-27.4 90.7z" class="tinyfeed_svg__st7"/><path id="tinyfeed_svg__path32_00000011714329583052597680000002520837083700728757_" d="M220.9 350.6s-13.1-37.9-36.6-43.6-33.2 13.1-18.1 23.8 28.2 22.1 29.5 36.9c1.7 14.7 33.6 6.7 25.2-17.1" class="tinyfeed_svg__st2"/><path d="M185 302.9c-16.1-4-25.5 2.3-28.5 9.1-3.4 7.4-.3 15.8 7.4 21.5 13.7 9.7 26.8 20.8 28.2 34.2.3 4.7 3.4 8.4 7.7 10.1 1.7.7 3.7 1 5.4 1 5.4 0 11.1-2.3 14.8-6.4 6-5.7 7.4-14.1 4.4-23.1-.8-2.1-14.2-40.3-39.4-46.4m29.9 64.4c-3.7 3.7-9.4 4.7-12.4 3.7-1.7-.7-2.3-2-2.7-3.7-1.7-16.1-16.1-28.5-31.2-39.6-5-3.7-6.7-8-5-12.1 1.3-3.4 5.7-6 12.4-6 2 0 4.7.3 7.4 1 21.1 5 33.9 40.9 33.9 41.2 2.9 8.1.3 12.8-2.4 15.5M358.4 58.1c-34.4 0-62.8 25.8-66.9 59.1-3.5-2.5-7.2-3.7-11.3-3.7-7.9 0-14.4 5.2-18 8.9-8.1-28.2-34-48.8-64.8-48.8-37.2 0-67.4 30.2-67.4 67.4 0 36.9 30.2 67.1 67.4 67.1s67.4-30.2 67.4-67.1c0-3.3-.2-6.6-.7-9.7.3-.2.7-.4 1-.7 0 0 7-9.4 15.1-9.4 3.7 0 7.3 2 10.8 5.9.8 36.5 30.7 65.9 67.4 65.9 36.9 0 67.1-30.2 67.4-67.4 0-37.3-30.2-67.5-67.4-67.5m-161 142.6c-32.9 0-59.7-26.8-59.7-59.7s26.8-59.7 59.7-59.7 59.7 26.8 59.7 59.7c0 32.8-26.8 59.7-59.7 59.7m161-15.5c-32.5 0-59-26.2-59.7-58.5.2-.6.2-1.3 0-1.9.4-32.6 27-59 59.7-59 32.9 0 59.7 26.8 59.7 59.7s-26.8 59.7-59.7 59.7"/></svg>