<svg xmlns="http://www.w3.org/2000/svg" xml:space="preserve" viewBox="0 0 512 512"><path d="M288.2 270.9h-40.9c1.7-12.9 9.2-20.6 20.5-20.6 11.5.1 18.9 7.7 20.4 20.6M512 0v512H0V0zM75.8 236.1H51.5V211H32.1v25.1H21.8v17.7h10.3v54h19.3v-54h24.3v-17.7zm29.4 0H85.9v71.7h19.3zm1-32H84.9v20.8h21.3zm63.5 29.7c-1.4-.1-2.2-.1-3.2-.1-9.9 0-17.7 3.9-23.4 12v-9.6h-18.6v71.7h19.2v-33.2c0-15.4 7.7-23.2 22.5-23.2 1.6 0 1.7 0 3.4.1v-17.7zm54.3 0c-1.4-.1-2.2-.1-3.2-.1-9.9 0-17.7 3.9-23.4 12v-9.6h-18.6v71.7H198v-33.2c0-15.4 7.7-23.2 22.5-23.2 1.6 0 1.7 0 3.4.1v-17.7zm81.7 61h-19.4c-2.8 7.3-8.5 11.5-17.4 12.8H300c2.6-3.7 4.5-8 5.7-12.8m1.8-8.9c0-11.5-1-19.6-3.5-26.7-5.6-16-19.1-25.6-36-25.6-23.7 0-40.3 19.2-40.3 46.6 0 11 2.6 20.3 7.4 27.5l31.1.1c-12.1-2-18.2-8.9-19.4-21.9zm84.7-11.9c0-14.6-.7-20.1-3.8-26.2-4.4-8.8-14.1-14.2-25.3-14.2-10.4 0-18 3.5-24.8 12V236h-18.6v71.7H339v-34.1c0-6.7.7-10 3.2-13.9 3.3-5.2 9.2-8.4 15.3-8.4 4.9 0 9.1 1.6 11.6 4.3 2.8 3.1 3.8 7.8 3.8 17.9v34.1-.1h19.3zm98 5.5c0-26.4-18.2-45.8-43-45.8-24.4 0-43 19.4-43 45.2 0 11.3 3 21.1 8.4 28.8H447c-14.1-.2-23.4-11.3-23.4-27.8 0-17.4 9.2-28.5 23.7-28.5 14.3 0 23.7 11.2 23.7 28.1s-9.2 28-23.4 28.2h34.2c5.3-7.6 8.4-17.3 8.4-28.2" style="fill-rule:evenodd;clip-rule:evenodd;fill:#fff"/></svg>