<?xml version="1.0" encoding="utf-8"?>
<!-- Generator: Adobe Illustrator 28.2.0, SVG Export Plug-In . SVG Version: 6.00 Build 0)  -->
<svg version="1.1" id="Layer_1" xmlns="http://www.w3.org/2000/svg" xmlns:xlink="http://www.w3.org/1999/xlink" x="0px" y="0px"
	 viewBox="0 0 512 512" style="enable-background:new 0 0 512 512;" xml:space="preserve">
<style type="text/css">
	.st0{fill-rule:evenodd;clip-rule:evenodd;}
</style>
<path class="st0" d="M267.9,407c-10.9,0-18.2,7.4-19.8,19.9h39.6C286.3,414.4,279.1,407,267.9,407z M0,1.7v508.7h512V1.7H0z
	 M82.2,410.3H58.8v52.2H40.1v-52.2h-10v-17.1h10v-24.3h18.7v24.3h23.5v17.1H82.2z M110.7,462.5H92.1v-69.3h18.7v69.3H110.7z
	 M111.7,382.4H91.1v-20.1h20.6V382.4z M173.1,408.1c-1.7-0.1-1.8-0.1-3.3-0.1c-14.4,0-21.8,7.5-21.8,22.4v32.1h-18.7v-69.3h18v9.3
	c5.5-7.8,13-11.6,22.6-11.6c1,0,1.7,0,3.1,0.1L173.1,408.1L173.1,408.1z M225.7,408.1c-1.7-0.1-1.8-0.1-3.3-0.1
	c-14.4,0-21.8,7.5-21.8,22.4v32.1H182v-69.3h18v9.3c5.5-7.8,13-11.6,22.6-11.6c1,0,1.7,0,3.1,0.1L225.7,408.1L225.7,408.1z
	 M299.2,462.5h-30.1c8.6-1.4,14.1-5.4,16.9-12.4h18.8C303.5,454.7,301.6,458.8,299.2,462.5z M247.7,441.2
	c1.2,12.6,7.1,19.3,18.8,21.2h-30.1c-4.7-7-7.2-16-7.2-26.6c0-26.5,16.1-45.1,39-45.1c16.3,0,29.4,9.3,34.8,24.8
	c2.4,6.8,3.4,14.7,3.4,25.8L247.7,441.2L247.7,441.2z M388.2,462.5h-18.7v-33c0-9.8-1-14.3-3.7-17.3c-2.4-2.7-6.5-4.2-11.2-4.2
	c-5.9,0-11.6,3.1-14.8,8.1c-2.4,3.7-3.1,6.9-3.1,13.4v33H318v-69.3h18v9.3c6.6-8.2,13.9-11.6,24-11.6c10.9,0,20.2,5.2,24.5,13.7
	c3,5.9,3.7,11.2,3.7,25.3L388.2,462.5L388.2,462.5z M474.9,462.5h-33.1c13.7-0.2,22.6-10.9,22.6-27.3s-9.1-27.2-22.9-27.2
	c-14,0-22.9,10.8-22.9,27.6c0,16,9,26.7,22.6,26.9H408c-5.2-7.5-8.1-17-8.1-27.9c0-24.9,18-43.7,41.6-43.7c24,0,41.6,18.8,41.6,44.3
	C483.1,445.7,480.1,455.1,474.9,462.5z"/>
</svg>
