<svg xmlns="http://www.w3.org/2000/svg" xml:space="preserve" viewBox="0 0 512 512"><path d="M267.9 407c-10.9 0-18.2 7.4-19.8 19.9h39.6c-1.4-12.5-8.6-19.9-19.8-19.9M0 1.7v508.7h512V1.7zm82.2 408.6H58.8v52.2H40.1v-52.2h-10v-17.1h10v-24.3h18.7v24.3h23.5v17.1zm28.5 52.2H92.1v-69.3h18.7v69.3zm1-80.1H91.1v-20.1h20.6zm61.4 25.7c-1.7-.1-1.8-.1-3.3-.1-14.4 0-21.8 7.5-21.8 22.4v32.1h-18.7v-69.3h18v9.3c5.5-7.8 13-11.6 22.6-11.6 1 0 1.7 0 3.1.1zm52.6 0c-1.7-.1-1.8-.1-3.3-.1-14.4 0-21.8 7.5-21.8 22.4v32.1H182v-69.3h18v9.3c5.5-7.8 13-11.6 22.6-11.6 1 0 1.7 0 3.1.1zm73.5 54.4h-30.1c8.6-1.4 14.1-5.4 16.9-12.4h18.8c-1.3 4.6-3.2 8.7-5.6 12.4m-51.5-21.3c1.2 12.6 7.1 19.3 18.8 21.2h-30.1c-4.7-7-7.2-16-7.2-26.6 0-26.5 16.1-45.1 39-45.1 16.3 0 29.4 9.3 34.8 24.8 2.4 6.8 3.4 14.7 3.4 25.8zm140.5 21.3h-18.7v-33c0-9.8-1-14.3-3.7-17.3-2.4-2.7-6.5-4.2-11.2-4.2-5.9 0-11.6 3.1-14.8 8.1-2.4 3.7-3.1 6.9-3.1 13.4v33H318v-69.3h18v9.3c6.6-8.2 13.9-11.6 24-11.6 10.9 0 20.2 5.2 24.5 13.7 3 5.9 3.7 11.2 3.7 25.3zm86.7 0h-33.1c13.7-.2 22.6-10.9 22.6-27.3s-9.1-27.2-22.9-27.2c-14 0-22.9 10.8-22.9 27.6 0 16 9 26.7 22.6 26.9H408c-5.2-7.5-8.1-17-8.1-27.9 0-24.9 18-43.7 41.6-43.7 24 0 41.6 18.8 41.6 44.3 0 10.5-3 19.9-8.2 27.3" style="fill-rule:evenodd;clip-rule:evenodd;fill:#fff"/></svg>