<svg xmlns="http://www.w3.org/2000/svg" xml:space="preserve" viewBox="0 0 512 512"><path d="M141.2 256c0-27 21.8-48.9 48.8-49h.1-.3c27 0 48.9 21.9 48.9 48.9v.1c0 27-21.9 48.9-48.9 48.9h.3c-27 0-48.9-21.9-48.9-48.9m228.7-86.7h91c27 0 48.9-21.9 48.9-48.9S488 71.5 461 71.4h-91.1c-27 0-48.9 21.9-48.9 48.9v.1c0 27.1 21.9 48.9 48.9 48.9M57.3 440.4h176.8c27 0 48.9-21.9 48.9-48.9s-21.8-48.9-48.8-49H57.3c-27 0-48.9 21.9-48.9 48.9v.1c.1 27 21.9 48.9 48.9 48.9m232.2-135.5h17.3l40.4-97.8h-23.1l-24.6 64.2h-.3L275 207h-24.6zm89.7 0h21.6V207h-21.6zm61.4 0h69V285h-47.4v-19.9h42.5v-19.9h-42.5V227h44.9v-20h-66.4zM27.9 169.4h21.6V90.6h27.9V71.5H0v19.1h27.9zm80 0h21.6v-42.3h41.8v42.3h21.6V71.5h-21.6V108h-41.9V71.5H108zm114.1 0h69.2v-19.9h-47.7v-19.9H286v-19.9h-42.5V91.4h44.9V71.5H222zM3.5 305h21.4v-75.1h.3L50.1 305h16.3l25.7-75.1h.3V305H114v-98H81.5l-22.7 63.9h-.3L36 207H3.3zm310 135.5h35c7.1 0 14.1-1 20.9-3.2 6.4-2 12.3-5.2 17.6-9.3 5.1-4.1 9.2-9.3 12.1-15.2 3.2-6.5 4.8-13.7 4.8-21 .2-7.9-1.4-15.7-4.6-22.8-2.9-6-7.2-11.3-12.5-15.3-5.6-4-11.9-6.8-18.6-8.4-7.3-1.8-14.8-2.8-22.3-2.8h-32.4zm21.6-78h12.7c4.4 0 8.7.6 12.9 1.7 3.9 1.1 7.5 2.8 10.7 5.2 3.1 2.3 5.5 5.3 7.2 8.8 1.9 3.9 2.8 8.2 2.8 12.5.1 4.8-.8 9.6-2.8 14.1-1.7 3.6-4.2 6.8-7.4 9.2-3.3 2.4-7.1 4.1-11.1 5.1-4.5 1-9.2 1.6-13.8 1.5H335zm100 78h40.1c4.4 0 8.8-.5 13.1-1.4 4.2-.8 8.2-2.4 11.8-4.6 3.5-2.1 6.4-4.9 8.6-8.3 2.3-3.9 3.5-8.4 3.3-12.9 0-3-.5-6-1.5-8.9-1-2.7-2.4-5.1-4.3-7.2s-4.2-3.8-6.8-5.1c-2.8-1.4-5.7-2.3-8.8-2.8v-.3c4.8-1.4 9-4.1 12.3-7.8 3.2-3.9 4.8-8.8 4.6-13.8.2-4.5-.9-9-3.2-12.9-2.1-3.2-4.9-5.8-8.3-7.6-3.6-1.8-7.5-3.1-11.5-3.6-4.2-.6-8.5-.9-12.8-.9h-36.5v98.1zm21.6-79.7h14.7c1.7 0 3.4.2 5.1.5 1.6.3 3.2.8 4.7 1.6 1.4.7 2.6 1.8 3.4 3.1.9 1.5 1.4 3.3 1.3 5 0 1.7-.4 3.4-1.2 5-.7 1.4-1.8 2.5-3.1 3.3-1.3.9-2.8 1.5-4.3 1.8-1.6.4-3.3.6-4.9.6h-15.9zm0 39.2H473c1.9 0 3.8.1 5.7.4s3.8.8 5.5 1.5 3.2 1.8 4.4 3.2c1.2 1.6 1.8 3.5 1.7 5.5.1 1.9-.4 3.7-1.3 5.4-.8 1.4-2 2.7-3.4 3.6s-3 1.6-4.6 1.9c-1.7.4-3.4.5-5.1.6h-19.4z"/></svg>