<svg xmlns="http://www.w3.org/2000/svg" xml:space="preserve" viewBox="0 0 512 512"><path d="M430.3.6H82.9C37.7.6 1.1 37.2 1.1 82.3v64.9l86.1 50c6.6 3.8 14.8 3.8 21.4 0 5.5-3.1 170.7-98.1 173.2-99.5 4.9-2.8 10.9-2.9 15.9-.2 2.8 1.6 9.3 5.4 14.4 8.2l3.5 2c4.9 2.8 4.7 10.7.3 13.2L211 181.3l-.1.1L109.1 240c-7.4 4.2-14.7 4.3-22.3 0-12.6-7.1-63.7-36.9-85.7-49.7v43c9.9 5.8 81.2 47.2 86.1 50 6.6 3.8 14.8 3.8 21.4 0 5.5-3.1 170.7-98.1 173.2-99.5 4.9-2.8 10.9-2.9 15.9-.2 2.8 1.6 9.4 5.4 14.4 8.2l3.5 2c4.9 2.8 4.7 10.7.3 13.2l-104.7 60.3-.4.2L109.1 326c-7.4 4.2-14.7 4.3-22.3 0-12.6-7.1-63.7-36.9-85.7-49.7v43l86.1 50c6.6 3.8 14.8 3.8 21.4 0 5.5-3.1 170.7-98.1 173.2-99.5 4.9-2.8 10.9-2.9 15.9-.2 5.9 3.4 11.9 6.8 17.9 10.2 4.9 2.8 4.7 10.7.3 13.2l-105 60.4L109.1 412c-7.4 4.2-14.7 4.3-22.3 0-12.6-7.1-63.7-36.9-85.7-49.7v67.2c0 45.1 36.6 81.7 81.7 81.7h347.4c45.1 0 81.7-36.6 81.7-81.7V82.3C512 37.2 475.4.6 430.3.6"/></svg>