<svg xmlns="http://www.w3.org/2000/svg" xml:space="preserve" viewBox="0 0 512 512"><path d="M248.4 10.1c-19.2 15.7-22.2 44-6.5 63.2.5.6 1 1.1 1.4 1.7 3.7 4.2 8.2 7.7 13.3 10.2 4.2 2.2 5.7 7.4 3.5 11.6-2.2 4-7.1 5.6-11.2 3.7C234.8 93.3 224 81 218.7 66c-32.1 7.3-59.7 23.2-87.9 48.2C58 178.6 39.7 277.9 87.4 340.3c-12.1 15.4-21.2 32.4-23.6 49.6-2.9 17.4 2.6 35.1 14.9 47.7 24.3 25.5 56.8 18.9 82.9 13.6 17.5-3.6 34-6.9 43.8-.6 8.5 5.5 9.2 10.3 9.6 11.8 5.6 24.7-15.4 36.8-20.3 43.2-1.3 1.7-1.1 4.2.6 5.5q1.05.75 2.4.9c9.2 0 23.9-3.1 32.7-10.8 8.9-7.7 19-21 15.6-43.3-.2-1.3-.5-2.7-.8-4.2-2.3-8.9-8.2-20.1-22.8-29.4-20.5-13.1-45.1-8.1-66.9-3.7-25.9 5.3-42.4 7.6-54-4.5-5.6-5.7-8.1-13.8-6.5-21.7 1.4-10 7-20.9 14.9-31.5 57.6 44.8 150.8 35.7 219.3-24.9 24-20.2 42.9-45.7 55.2-74.5-16.7-6.4-29.8-19.7-35.9-36.5-1.6-4.5.7-9.4 5.2-11s9.4.7 11 5.2c1.9 5.3 4.8 10.1 8.5 14.3 16.4 18.5 44.6 20.1 63.1 3.7s20.1-44.6 3.7-63.1c-9.2-10.3-22.6-15.8-36.4-14.9-4.7.4-8.8-3.1-9.2-7.9-.4-4.7 3.1-8.8 7.9-9.2 11.8-.9 23.7 1.5 34.2 7.1 6.9-37.3 8.9-83.3-5.5-99.5-10.8-12.2-54.7-21.2-93.3-20.6 1.9 8.6 2 17.4.3 26-1 4.6-5.6 7.5-10.3 6.5-4.5-1-7.3-5.3-6.5-9.8 4.9-24.3-10.9-48-35.3-52.9-13.4-2.7-27.1.7-37.5 9.2m167.8 55.7c3.1 5.2 2.5 11.9-1.5 16.4-3.4 3-7.2-1.4-10.9-5.5s-8.2-9.1-4.8-12.1c5.4-3.2 12.3-2.7 17.2 1.2" style="fill-rule:evenodd;clip-rule:evenodd;fill:#f27395"/></svg>