<svg xmlns="http://www.w3.org/2000/svg" xml:space="preserve" viewBox="0 0 512 512"><path d="M192.2 357.9c-15.7 4.5-42.5 16.8-54.5 25.2l-8.4 5.6.4 1.3c33 30.9 77.4 49.9 126.2 49.9 65.7 0 123.4-34.3 156.1-86l-103.3.6c-101.6-.5-102.8-.5-116.5 3.4" style="fill:#814aea"/><path d="M457.1 97.4C419.7 51.1 371.1 21 311 6.8c-20.1-4.7-78.1-6.3-98.8-2.6C108.7 22.6 27.7 99.2 5.7 199.8-18.9 312.9 38 431.8 141.9 484c83.2 41.8 190 32 265.5-24.6 60-44.8 96.8-110.7 103.7-184.8 5.6-61.1-14.9-128.4-54-177.2M255.9 439.9c-101.9 0-184.6-82.6-184.6-184.6 0-12.2 1.2-24.2 3.5-35.7 1.4-10.1 3.8-18.5 8.1-28.6 23.5-63.5 81-110.5 150.4-119 6-.9 12.1-1.5 18.4-1.9 1.3 0 5.2.3 10.3.6 38.6 1.3 74.2 14.4 103.3 35.8C329.7 142.7 229.1 243 227.7 243c-.7 0-14.7-12.9-31.1-28.8s-31.8-29.2-34.3-29.9c-11-2.8-16.8.2-33.6 17.3-14.9 15-16.3 17-16.3 23.3 0 3.7 1.4 9.1 3.1 12.1 3.8 6.1 93.9 93.9 99.5 96.8 4.7 2.4 14.5 2.4 20.8.2 2.6-1 43.2-40 90-86.7 36.8-36.7 74.2-73.7 88.3-86.7 16.6 27.7 26.2 60.1 26.2 94.8.2 101.8-82.5 184.5-184.4 184.5" style="fill:#363362"/></svg>