<svg xmlns="http://www.w3.org/2000/svg" xml:space="preserve" viewBox="0 0 512 512"><linearGradient id="tor-browser-dark_svg__a" x1="-701.127" x2="-701.127" y1="795.447" y2="796.447" gradientTransform="matrix(512 0 0 -512 359233 407781)" gradientUnits="userSpaceOnUse"><stop offset="0" style="stop-color:#000"/><stop offset="1" style="stop-color:#000;stop-opacity:.7"/></linearGradient><path d="M256.5 465.4v-31c98.3-.3 177.9-80 177.9-178.4S354.8 77.9 256.5 77.6v-31c115.5.2 208.9 93.9 208.9 209.4S372 465.2 256.5 465.4m0-108.6c55.4-.3 100.3-45.3 100.3-100.8s-44.9-100.5-100.3-100.8v-31c72.6.3 131.4 59.2 131.4 131.8 0 72.7-58.8 131.6-131.4 131.9zm0-155.1c29.7.3 53.8 24.5 53.8 54.3s-24 54-53.8 54.3zM0 256c0 141.4 114.6 256 256 256s256-114.6 256-256S397.4 0 256 0 0 114.6 0 256" style="fill-rule:evenodd;clip-rule:evenodd;fill:url(#tor-browser-dark_svg__a)"/></svg>