<svg xmlns="http://www.w3.org/2000/svg" xml:space="preserve" viewBox="0 0 512 512"><path d="M374.7 260.5c-16.3-14.6-36.6-27-58-38.8-9.6-5.1-38.8-28.1-28.7-60.8l-18-7.4c28.6-44.1 65.8-88.5 111.9-129.3-36.6 12.9-69.2 31.5-93.4 65.8 14.1-30.4 37.7-60.2 63.6-90-35.4 25.3-66.4 54-85.5 92.3l13.5-54c-19.1 34.1-32.5 69.2-37.7 103.9l-28.2-11.6-5.1 3.9c24.8 44.4 11.8 68.1-.6 76-24.8 16.9-60.8 38.3-78.2 56.8-34.3 35.4-44.4 69.2-41.1 113.1 3.4 56.8 44.4 104.1 100.1 122.7 24.2 7.9 46.7 9 71.5 9 39.9 0 81.6-10.7 111.4-35.4 32.1-26.4 50.6-66.4 50.6-107.5.3-41.2-17.1-80.6-48.1-108.7M177.3 486.7c-44.4-21.4-73.7-68.1-76-105.8-3.9-77.1 33.2-99 67.5-127.2 19.1-15.8 46.1-23.6 61.3-51.8 2.8-6.2 4.5-19.7 1.1-33.8-1.7-5.1-8.4-21.9-11.3-25.9l42.3 18.5v.1h-.1c-1.1 20.3-1.1 36 2.3 51.2 3.9 16.3 25.3 39.9 34.3 67 16.9 51.8 12.4 119.3.6 171.6-2 8.2-7.2 18-14.4 27.1 2.4-4.6 4.4-9.5 5.9-14.7 12.4-42.2 16.9-61.9 11.3-109.2-.6-4.5-2.8-20.3-10.1-36.6-10.7-25.3-25.9-49.5-27.6-54.6-3.9-7.9-8.4-42.8-9-65.8.6 19.7 1.7 56.3 7.3 70.9 1.7 5.1 15.8 26.4 25.3 52.9 6.8 18 8.4 34.9 9.6 39.9 4.5 21.4-1.1 58-8.4 92.3-2.2 10.2-7 21.7-13.4 31.5 3-5.5 5.7-11.8 7.8-18.6 5.6-20.3 7.9-45.6 7.3-61.9-.6-9.6-4.5-29.8-12.4-48.4-3.9-10.1-10.7-20.3-14.6-27.6-5.1-8.4-5.1-24.2-7.3-42.2.6 19.7-1.7 29.8 3.4 43.9 2.8 8.4 13.5 19.7 16.3 30.9 3.9 14.6 8.4 30.9 8.4 41.1 0 11.3-.6 32.6-5.6 55.1-3.9 18.3-12.1 34.4-26.3 43.4 6.3-7.6 10.2-14.9 11.7-22.6 1.7-10.1 2.3-19.7 3.4-31.5 1.1-10.1.6-23.1-2.3-36.6-3.4-16.9-9.6-34.3-12.4-46.7.6 13.5 5.6 30.4 7.9 47.8 1.7 12.9 1.1 25.9.6 37.1-.6 12.9-4.5 36.6-10.7 48.4-5.6-2.8-7.9-5.6-11.8-10.1-4.5-6.2-7.9-12.9-10.7-20.3-2.3-5.6-5.1-12.4-6.2-19.7-1.7-11.3-1.1-29.3 11.8-47.3 10.1-14.6 12.4-15.8 15.8-32.1-4.5 14.6-7.9 16.3-18.6 28.7-11.8 13.5-13.5 33.8-13.5 50.1 0 6.8 2.8 14.6 5.6 21.4 2.8 7.3 5.6 15.2 9.6 20.8 3.2 4.6 6.8 8.4 10.1 11-12.7-3.2-25.6-8.2-33.8-15.5-20.3-17.4-37.7-46.7-39.9-72-1.7-20.8 17.4-51.8 44.4-67 22.5-13.5 28.1-28.1 33.2-52.9-6.8 21.4-13.5 38.8-35.4 50.6-32.1 16.9-48.4 44.4-46.7 71.5 2.3 34.3 15.8 57.4 42.8 76 5.4 3.8 13.2 7.7 21.2 11-33-8.3-37.4-13.3-48.2-26.2 0-.6-2.8-2.8-2.8-3.4-15.2-17.4-34.3-46.7-41.1-74.3-2.3-9.6-4.5-19.7-1.7-29.3 12.4-44.4 39.4-61.9 67-80.5 6.8-4.5 13.5-9 19.7-13.5 15.2-11.8 19.1-43.3 22.5-60.8-6.2 21.4-12.4 47.8-25.3 56.3-6.2 5.1-14.1 9-20.3 12.9-28.1 19.1-56.3 37.7-69.2 83.8-3.4 11.8-1.1 20.8 1.7 32.1 6.8 28.7 26.4 59.1 42.2 77.1 0 0 2.8 2.3 2.8 2.8 7.4 8.2 16.7 14.2 27.5 18.9-9.1-1.9-18-5.2-26.4-9.3" style="fill:#fff"/></svg>