<?xml version="1.0" encoding="utf-8"?>
<!-- Generator: Adobe Illustrator 28.2.0, SVG Export Plug-In . SVG Version: 6.00 Build 0)  -->
<svg version="1.1" id="Calque_1" xmlns="http://www.w3.org/2000/svg" xmlns:xlink="http://www.w3.org/1999/xlink" x="0px" y="0px"
	 viewBox="0 0 512 512" style="enable-background:new 0 0 512 512;" xml:space="preserve">
<style type="text/css">
	.st0{fill:#FEAFA6;}
	.st1{fill:#FFC3B8;}
	.st2{fill:#79CDE3;}
	.st3{fill:#FFFFFF;}
	.st4{fill:#318BC3;}
	.st5{opacity:0.5;fill:#FD9A95;enable-background:new    ;}
	.st6{fill:#1B1A44;}
	.st7{opacity:0.5;fill:url(#SVGID_1_);enable-background:new    ;}
</style>
<path class="st0" d="M45,53.1h-8.6C16.3,53.1,0,69.4,0,89.4l0,0v94.4c0,20.1,16.3,36.4,36.4,36.4l0,0H45v8.4
	c0,16.8,13.6,30.4,30.4,30.4h108.5V53.1H45z M475.6,53.1H328.2V259h108.5c16.8,0,30.4-13.6,30.4-30.4v-8.4h8.6
	c20.1,0,36.4-16.3,36.4-36.4V89.4C512,69.4,495.7,53.1,475.6,53.1L475.6,53.1z"/>
<path class="st1" d="M399.1,107.7c0-29.9-24.2-54.1-54.1-54.1h-31.8l-20.8-20.8c-5.8-5.8-15.2-5.8-21,0l-5,5L241.6,13
	c-5.1-5.1-13.3-5.1-18.4,0l-40.6,40.6h-13.2c-29.9,0-54.1,24.2-54.1,54.1l0.1,341c0,29.9,24.2,54.1,54.1,54.1h175.6
	c29.8,0,54.1-24.2,54.1-54.1L399.1,107.7z"/>
<rect x="115.3" y="259" class="st2" width="283.8" height="127.3"/>
<polygon class="st3" points="257.3,358 330.8,259 183.8,259 "/>
<path class="st4" d="M115.3,386.3v62.4c0,29.9,24.2,54.1,54.1,54.1H345c29.9,0,54.1-24.2,54.1-54.1v-62.4H115.3z M265.9,286.3
	l22.4,30.1l-31,41.6l-31.1-41.6l22.5-30.1l-28-27.3h73.2L265.9,286.3z"/>
<path class="st5" d="M152,193.9c13.9,0,25.2,8.2,25.2,18.3s-11.3,18.3-25.2,18.3s-25.2-8.2-25.2-18.3S138.1,193.9,152,193.9z
	 M362.4,193.9c13.9,0,25.2,8.2,25.2,18.3s-11.3,18.3-25.2,18.3s-25.2-8.2-25.2-18.3S348.5,193.9,362.4,193.9z"/>
<path class="st6" d="M202.8,135.6c11.3,0,20.4,12.4,20.4,27.8s-9.1,27.8-20.4,27.8s-20.4-12.4-20.4-27.8S191.5,135.6,202.8,135.6z
	 M311.6,135.6c11.3,0,20.4,12.4,20.4,27.8s-9.1,27.8-20.4,27.8s-20.4-12.4-20.4-27.8S300.3,135.6,311.6,135.6z"/>
<path class="st1" d="M179.7,386.3c32.2,0,58.3,26.1,58.3,58.3s-26.1,58.3-58.3,58.3s-58.3-26.1-58.3-58.3S147.5,386.3,179.7,386.3z
	 M332.7,386.3c32.2,0,58.3,26.1,58.3,58.3s-26.1,58.3-58.3,58.3s-58.3-26.1-58.3-58.3S300.5,386.3,332.7,386.3z M201.6,299.7
	c23.9,0,43.3,19.4,43.3,43.3s-19.4,43.3-43.3,43.3s-43.3-19.4-43.3-43.3S177.7,299.7,201.6,299.7z M312.9,299.7
	c23.9,0,43.3,19.4,43.3,43.3s-19.4,43.3-43.3,43.3s-43.3-19.4-43.3-43.3S289,299.7,312.9,299.7z"/>
<path class="st3" d="M186.9,216l0.9,24.9c0.3,8.1,7.1,14.4,15.2,14.1c1.4,0,2.7-0.3,4-0.7l6.5-2.1c7.7-2.5,12-10.7,9.5-18.4
	c-0.4-1.3-1-2.5-1.8-3.6l-13.8-20.8C201.1,200.1,186.5,204.8,186.9,216z M327.5,216l-0.9,24.9c-0.3,8.1-7.1,14.4-15.2,14.1
	c-1.4,0-2.7-0.3-4-0.7l-6.5-2.1c-7.7-2.5-12-10.7-9.5-18.4c0.4-1.3,1-2.5,1.8-3.6l13.8-20.8C313.3,200.1,327.9,204.8,327.5,216z
	 M179.7,409.5c11,0,20.6-7.8,22.8-18.6c-14.5-6.2-31-6.2-45.5,0C159.1,401.7,168.6,409.5,179.7,409.5z M152.8,422
	c7.1-8.5,7.3-20.7,0.4-29.4c-14.1,7.2-24.6,19.8-29.3,34.9C133.6,432.8,145.7,430.5,152.8,422z M206.1,392.6
	c-8,10-6.3,24.7,3.7,32.6c7.3,5.8,17.3,6.7,25.5,2.2C230.8,412.4,220.2,399.8,206.1,392.6z M201.6,316.9c8.2,0,15.3-5.8,16.9-13.8
	c-10.8-4.6-23-4.6-33.8,0C186.3,311.1,193.4,316.9,201.6,316.9z M181.6,326.2c5.3-6.3,5.4-15.4,0.3-21.8
	c-10.5,5.3-18.3,14.7-21.7,25.9C167.4,334.2,176.3,332.5,181.6,326.2z M221.3,304.4c-5.9,7.5-4.7,18.3,2.8,24.3
	c5.4,4.3,12.9,5,19,1.7C239.6,319.1,231.7,309.7,221.3,304.4z M312.9,316.9c-8.2,0-15.3-5.8-16.9-13.8c10.8-4.6,23-4.6,33.8,0
	C328.2,311.1,321.1,316.9,312.9,316.9z M332.8,326.2c-5.3-6.3-5.4-15.4-0.3-21.8c10.5,5.3,18.3,14.7,21.7,25.9
	C347.1,334.2,338.1,332.5,332.8,326.2z M293.2,304.4c5.9,7.5,4.7,18.3-2.8,24.3c-5.4,4.3-12.9,5-19,1.7
	C274.9,319.1,282.7,309.7,293.2,304.4z M332.7,409.5c11,0,20.6-7.8,22.8-18.6c-14.5-6.2-31-6.2-45.5,0
	C312.2,401.7,321.7,409.5,332.7,409.5z M305.9,422c7.1-8.5,7.3-20.7,0.4-29.4c-14.1,7.2-24.6,19.8-29.3,34.9
	C286.7,432.8,298.8,430.5,305.9,422z M359.2,392.6c-8,10-6.3,24.7,3.7,32.6c7.3,5.8,17.3,6.7,25.5,2.2
	C383.8,412.4,373.3,399.8,359.2,392.6z"/>
<path class="st1" d="M291.2,163.4c0,123.5,77.5,102.6,78.1,107.4s0,21.1,0,26s-166.5,40.1-146.1-133.4H291.2z"/>
<linearGradient id="SVGID_1_" gradientUnits="userSpaceOnUse" x1="680.1672" y1="844.6811" x2="680.1672" y2="934.8705" gradientTransform="matrix(1 0 0 1 -384.65 -674.34)">
	<stop  offset="0" style="stop-color:#FD9A95;stop-opacity:0"/>
	<stop  offset="1" style="stop-color:#FD9A95"/>
</linearGradient>
<path class="st7" d="M291.2,163.4c0,123.5,77.5,102.6,78.1,107.4s0,21.1,0,26s-166.5,40.1-146.1-133.4H291.2z"/>
</svg>
