<svg xmlns="http://www.w3.org/2000/svg" xml:space="preserve" viewBox="0 0 512 512"><circle cx="256" cy="256" r="247" style="fill:#fff"/><path d="M233.9 257.9c4.5-2.6 10.3-1.1 12.9 3.4s1.1 10.3-3.4 12.9-10.3 1.1-12.9-3.4c-2.7-4.5-1.1-10.3 3.4-12.9m66.3-71-25.1 31.9c5.9 4.6 11.7 10.2 15.7 17.1 3.9 6.8 5.9 14.7 6.9 22.1l40.2-5.8c-1.7-12.6-5.6-24.7-12.3-36.4-6.7-11.6-15.3-21.1-25.4-28.9m48.5-64.2-25.1 31.9c14.2 10.9 27.3 24.7 36.8 41.1 9.5 16.5 14.9 34.7 17.2 52.4l40.2-5.8c-3-22.9-10.3-45.5-22.6-66.8-12.3-21.2-28.1-38.8-46.5-52.8M226.6 365.8c-24.9 14.3-55.5 14.3-80.4 0S106 324.9 106 296.2s15.3-55.3 40.2-69.6l40.2 69.6zM128 34.4C5.6 105-36.3 261.6 34.4 384 105 506.4 261.6 548.3 384 477.7S548.4 250.5 477.7 128C407 5.6 250.5-36.3 128 34.4m15.1 26C251.1-1.9 389.2 35 451.6 143 513.9 251 477 389.1 369 451.5 260.9 513.9 122.8 477 60.4 369-2 260.9 35.1 122.8 143.1 60.4"/></svg>