<?xml version="1.0" encoding="utf-8"?>
<!-- Generator: Adobe Illustrator 28.2.0, SVG Export Plug-In . SVG Version: 6.00 Build 0)  -->
<svg version="1.1" id="Layer_1" xmlns="http://www.w3.org/2000/svg" xmlns:xlink="http://www.w3.org/1999/xlink" x="0px" y="0px"
	 viewBox="0 0 512 512" style="enable-background:new 0 0 512 512;" xml:space="preserve">
<style type="text/css">
	.st0{fill-rule:evenodd;clip-rule:evenodd;}
</style>
<path class="st0" d="M168.7,71.3L0,126v156.7L168.7,228c13.3-4,27.3-4,40.7,0.7l62,21.3c13.3,4.7,27.3,4.7,40.7,0.7L511.3,196V39.3
	L312,94c-13.3,4-27.3,4-40.7-0.7l-62-21.3C196.7,68,182,67.3,168.7,71.3z M168.7,261.3L0,316v156.7L168.7,418
	c13.3-4,27.3-4,40.7,0.7l62,21.3c13.3,4.7,27.3,4.7,40.7,0.7L512,386V229.3L312.7,284c-13.3,4-27.3,4-40.7-0.7L210,262
	C196.7,258,182,257.3,168.7,261.3z"/>
</svg>
