<svg xmlns="http://www.w3.org/2000/svg" xml:space="preserve" viewBox="0 0 512 512"><path d="M86.5 60.1c-3.9-9.7-5.3-15.6-4-25.9C85.6 31 85.6 31 93.8 30c16 1.6 25.8 10.3 38.5 19.6 8.3 5.8 14.3 9.7 24.5 10.2 10.2-4.9 14.4-11.5 20.7-20.8 2.2-3.1 4.3-6.3 6.5-9.5 1.7-2.6 3.5-5.1 5.3-7.8 3.1-3.1 3.1-3.1 10.3-4.3 12.2 1.6 15.9 7.3 23.8 16.5 2.5 2.8 5 5.7 7.5 8.6 5.6 7.5 5.6 7.5 5.6 13.8 14 2.1 21.3 2.7 33.2-5.5 5.3-4.5 10.5-9.1 15.6-13.9 9-6.7 15.6-7.9 26.7-9 4.1 11.4 3.1 15.8-1.4 27.3-2.2 4.3-4.4 8.6-6.7 12.8-1.1 2.1-2.1 4.2-3.2 6.3-2.2 4.2-4.4 8.4-6.7 12.5-2.7 4.8-5.3 9.6-7.7 14.5-10.9 19.3-10.9 19.3-22.3 23.6-8.6 1.1-16.9 1.3-25.6 1.1-3.1 0-6.3.1-9.5.1-6.6 0-13.2 0-19.8-.2-10.1-.2-20.1 0-30.2.2-6.4 0-12.9-.1-19.3-.1-3 .1-6 .1-9.1.2-13-.4-20.9-1.1-30.8-10.1-5.7-7.2-10.6-14.3-15.3-22.2-1.2-2-2.5-4.1-3.7-6.2-3.1-5.4-5.9-11-8.7-16.7-1.8-3.5-3.6-7.2-5.5-10.9M512 426c0 13.6-.5 18.6-9.3 29.7-7.2 5.6-12.1 8.7-20.8 11.2-8.7 2.9-13.1 4.9-20.4 10.8-23.8 19-51 18.2-80.2 15.7-13.1-3-23.4-8.2-34.6-15.7-7.4-.9-14.8-1.4-22.2-1.8-21.2-1.1-21.2-1.1-28.1-4.5-5.8.3-11.5.8-17.3 1.3-24.3 2.1-48.4 2.5-72.8 2.6-7.4 0-14.8.1-22.2.2-56.1.4-109.9-12-152.3-51.2C8.3 398.8-.5 374 0 339.7 4.2 275.5 54.9 214.5 96.3 169c5.1-5.8 5.1-5.8 9.6-12.2 14.9-19.9 26.8-22.6 51-22.4 3.2 0 6.4-.1 9.6-.1q10.05-.15 20.1 0c10.2.1 20.4-.2 30.6-.5 50.3-.5 50.3-.5 64.3 11.5 7.2 8.8 12.6 17.4 18 27.4 3.1 4 6.2 7.9 9.4 11.7 50.3 63.1 50.3 63.1 50.3 76.4 9.3 3.1 18.7 6.2 28.3 9.4-.5-3-1-6.1-1.6-9.2-.6-4.3-1.1-8.5-1.6-12.8-.3-2.4-.6-4.8-1-7.2-1.4-18-1.4-18 4.9-26.2 21-16.5 48.8-19.3 74.7-16.9 17.4 3.8 34.4 9.2 47.2 22 .7 9.2.7 9.2.6 20.9v6.3c0 6.6-.1 13.2-.2 19.8 0 4.4-.1 8.9-.1 13.3l-.3 34.1c0 9.6.2 19.2.4 28.8.2 11 .3 21.9.5 32.9.1 5.8.2 11.6.3 17.3.2 8.3.3 16.7.3 25 .2 2.5.3 5 .4 7.7m-262.9-99.3c-8.8-14.5-20.1-20.4-35.2-26.9-7.5-3.3-14.3-6.7-21.4-10.8-3.2-6.6-3.2-6.6-3.1-12.6 6.2-3.6 6.2-3.6 13.3-3.6h8.3c8.2 0 15.4.2 23.4 2 2.7.8 2.7.8 5.3 1.5 2.9-11.6 3-16.2 0-28.3-9.6-1.1-19-2.1-28.3-3.1V226h-22v22c-13.4 0-19.1 3.7-29.1 12.6-7.9 13.6-8.4 25.5-5.5 40.9 7.8 11.1 14.2 15 26.5 20.6 11.5 4.6 20 10 30.1 17.1-1.1 5.3-2.1 10.5-3.1 15.7-2.4 0-4.7.1-7 .1-3.2 0-6.2.1-9.3.1-9.4.1-18-.1-27.3-1.8-2.3-.5-4.5-1-6.7-1.6-3.5 7.1-3.5 7.1-6.3 25.2 9.9 4.8 16.5 6.3 27.7 6.7 3.4-.1 6.7-.3 10-.4v22h22c-.2-10.7-.2-10.7 3.1-22 3.5-1.7 7-3.4 10.4-5.1 11.6-4.3 11.6-4.3 19.3-10.8 7-13.1 8.1-26 4.9-40.6m31.5-44c.2 5.7.2 5.7 3.1 12.6 8.3 5.5 8.3 5.5 14.2 7.7 26.1 5.6 56.7 5.9 80.2-7.7 3.1-8.5 3.1-8.5 3.1-15.7-13.8-8.5-24.3-10.5-40-10.4-2.6.1-5 .1-7.5.2-20.9 0-36.4-.5-53.1 13.3m0 34.6c6.3 6.3 6.3 6.3 16.2 9.8 28.5 6.6 58 6.3 84.4-6.6v-12.6c-29.5 7.4-59.2 9.7-89.1 3.1-3.9-1.1-7.8-2.1-11.6-3.1.1 3.1.1 6.3.1 9.4m66.1 132.1c-20.5-1.5-40.3-3.9-60.4-8.2-1.9-.4-3.8-.8-5.7-1.3v9.4l6.3 6.3c18 6.7 34.4 7 53.5 6.3 2.1-4.2 4.2-8.4 6.3-12.5m0-28.3c-5.3-.3-10.6-.5-15.8-.8-2.2-.1-4.4-.2-6.6-.4-12.4-.6-23.8-1.7-35.8-5.2-4-1.5-4-1.5-7.9-3v12.6l6.3 6.3c18.7 6.4 37.1 6.9 56.6 6.3 1.1-5.4 2.1-10.6 3.2-15.8m0-25.2c-4.4-.3-4.4-.3-8.7-.6-3.9-.3-7.6-.5-11.3-.8-7-.5-13.9-1-20.8-1.8-7.1-3.5-7.1-3.5-25.2-6.3V399c16.3 11.2 16.3 11.2 59.8 9.4 2-4.2 4.1-8.3 6.2-12.5m0-25.1c-5.3-.7-10.6-1.4-15.8-2.1l-6.6-.9c-11.9-1.6-23.9-3.2-35.8-5.1-2.7-.5-5.3-.9-7.9-1.4v9.4l6.3 6.3c19.2 6.2 36.5 7 56.6 6.3 1.1-4.2 2.1-8.4 3.2-12.5m3.1-28.4c-5.2-.3-10.5-.5-15.7-.8-2.2-.1-4.4-.2-6.5-.4-13-.7-25.1-1.7-37.5-5.2-4.8-1.5-4.8-1.5-9.4-3 0 7.3 0 7.3 3.1 15.7 19.7 10.6 37.8 10.5 59.8 9.4 2-5.3 4.1-10.5 6.2-15.7m106.9 116.4c-23.1 4.4-45.7 8.2-69.2 6.3-10.6-3.5-10.6-3.5-34.6-6.3.2 5.7.2 5.7 3.1 12.6 13.8 7.3 24.7 10.6 40.6 10.7 2.2 0 4.3-.1 6.4-.1 18.6-.2 34.2-1.3 50.5-10.6 2.3-6.6 2.3-6.6 3.2-12.6m0-15.7c-1.6-6.4-1.6-6.4-3.1-12.6-14.7 4.9-27.6 7.1-43.2 7.2-2.5 0-4.9 0-7.4-.1-13.9.1-25.8-.1-39.3-4-3.9-1.6-3.9-1.6-7.7-3.1l-3.1 3.1 1.8 5.7c5.2 8 10.4 11.2 19.2 14.6 28.6 6.6 57.3 2.9 82.8-10.8m0-34.6c-29.8 6.6-58.8 9.7-88.9 3.1-4-1.1-7.9-2.1-11.8-3.1v9.4c13.7 8.3 24.1 10.6 39.7 10.6 2.5-.1 5-.1 7.4-.2 16.7.1 31.8.1 47.2-7.3 4.5-6.6 4.5-6.6 6.4-12.5m0-15.7c-1.6-6.4-1.6-6.4-3.1-12.6-13.8 2.8-26.9 3.6-40.9 3.6h-7.9c-13.9.1-27.4 0-41.2-2-3.8-.8-3.8-.8-7.6-1.5-1.1 3.2-2.1 6.3-3.1 9.4 5.9 8.1 10.6 9.8 20.2 13.2 30 6.6 56.7 3.9 83.6-10.1m0-31.5c-.9-5.9-.9-5.9-3.1-12.6-28.2-14.9-58.4-12-88.2-3.3-7.6 4.1-9.4 7.9-12.5 15.9 10.8 8.8 19.3 13.5 33.2 15.3 23.9 1.6 52.1 1 70.6-15.3m40.9 72.4c-9.4 0-9.4 0-20.8 2.8-10.6 3.5-10.6 3.5-13.8 9.8 1.1 3.2 2.1 6.3 3.1 9.4 3.1-.8 3.1-.8 6.1-1.6 4-1.2 4-1.2 7.9-2.3 7.9-2.2 7.9-2.2 14.4-5.5 2.5-6.7 2.5-6.7 3.1-12.6m0-25.2c-12.5 0-20.1 1.3-31.5 6.3-2.8 6.7-2.8 6.7-3.1 12.6 12 .7 20.8-.4 31.5-6.3 2.5-6.7 2.5-6.7 3.1-12.6m0-28.3c-7.1 0-7.1 0-28.3 6.3-1.1 5.3-2.1 10.5-3.1 15.7 10.6 0 10.6 0 31.5-9.4-.1-4.3-.1-8.5-.1-12.6m0-25.2c-10.6 0-10.6 0-31.5 6.3-1.1 5.3-2.1 10.5-3.1 15.7 6.3 0 6.3 0 12.3-1.6 3.4-1.2 3.4-1.2 6.8-2.3 6.8-2.2 6.8-2.2 12.4-5.5 2.3-6.6 2.3-6.6 3.1-12.6m0-25.1c-12.6 0-12.6 0-20.7 1.4-2.9.6-5.6 1.2-8.4 1.8-5 1-10 2.1-14.9 3.1 4.3 6.2 4.3 6.2 9.4 12.6 11.8 1.9 21.1-.5 31.5-6.3 2.5-6.7 2.5-6.7 3.1-12.6m0-28.3c-32.3 8-62.6 8.7-95.1 1.4-1.9-.5-3.7-.9-5.6-1.4v9.4c6.3 6.3 6.3 6.3 16.2 9.8 28.5 6.6 58 6.3 84.4-6.6.1-4.3.1-8.5.1-12.6m0-25.2c-14.9 2.5-29.2 3.6-44.3 3.7h-7.8c-14.5.2-27 .2-41-3.8-2.6-1.1-5.1-2.1-7.6-3.1v12.6c6.3 6.3 6.3 6.3 11.8 8.3 29 6.7 58.8 9.1 85.7-5.1 2.3-6.7 2.3-6.7 3.2-12.6m0-25.2c-13.3 2.7-25.9 3.6-39.4 3.6h-7.4c-14.5.1-28.7-.2-43.1-2-5.4-.8-5.4-.8-10.8-1.5v9.4c3.2 2.1 6.3 4.2 9.4 6.3 33 7.8 60.7 8.7 91.2-6.3.1-3.2.1-6.4.1-9.5m0-15.7c0-7.3 0-7.3-3.1-15.7-30.4-16.3-67.9-13.1-97.5 3.1v12.6c9.2 5.2 18.3 9.3 28.3 12.6 26.6 2.6 48.7 0 72.3-12.6" style="fill:#fff"/></svg>