<svg xmlns="http://www.w3.org/2000/svg" xml:space="preserve" viewBox="0 0 512 512"><path d="M0 90h60c0-8.3 6.7-15 15-15s15 6.7 15 15h90l-75-74H40C17.9 16 0 33.9 0 56zm300 0h120l-75-74H225z" style="fill:#d9e7ec"/><path d="M0 90h60c0 8.3 6.7 15 15 15s15-6.7 15-15h90l-75 76H0zm300 0h120l-75 76H225z" style="fill:#b6c4cf"/><path d="M0 166h256v330H40c-22.1 0-40-17.9-40-40z" style="fill:#ff631a"/><path d="M512 166H256v330h216c22.1 0 40-17.9 40-40z" style="fill:#f03800"/><path d="M60 90c0-8.3 6.7-15 15-15s15 6.7 15 15zm120 0h120l-75-74H105zm240 0h92V56c0-22.1-17.9-40-40-40H345zM256 256H100c-8.3 0-15 6.7-15 15s6.7 15 15 15h50v60h-50c-8.3 0-15 6.7-15 15s6.7 15 15 15h156v-30h-76v-60h76z" style="fill:#005fe4"/><path d="M60 90c0 8.3 6.7 15 15 15s15-6.7 15-15zm120 0h120l-75 76H105zm240 0h92v76H345zM256 256h156c8.3 0 15 6.7 15 15s-6.7 15-15 15h-46v60h46c8.3 0 15 6.7 15 15s-6.7 15-15 15H256v-30h76v-60h-76z" style="fill:#0040a0"/></svg>