<?xml version="1.0" encoding="utf-8"?>
<!-- Generator: Adobe Illustrator 28.2.0, SVG Export Plug-In . SVG Version: 6.00 Build 0)  -->
<svg version="1.1" id="Layer_2_00000011742795963065887800000017924545191449818507_"
	 xmlns="http://www.w3.org/2000/svg" xmlns:xlink="http://www.w3.org/1999/xlink" x="0px" y="0px" viewBox="0 0 512 512"
	 style="enable-background:new 0 0 512 512;" xml:space="preserve">
<style type="text/css">
	.st0{fill:url(#background_00000030468204988923681760000009881963755356427944_);}
	.st1{fill:#FFFFFF;}
</style>
<g id="_x2D_-production">
	<g id="logomark.square.gradient">
		
			<radialGradient id="background_00000065770211752648852910000003743707427336453521_" cx="516.9067" cy="524.1334" r="691.6266" gradientTransform="matrix(1 0 0 -1 0 514)" gradientUnits="userSpaceOnUse">
			<stop  offset="0" style="stop-color:#9F42C6"/>
			<stop  offset="0.27" style="stop-color:#A041C3"/>
			<stop  offset="0.42" style="stop-color:#A43EBB"/>
			<stop  offset="0.53" style="stop-color:#AA39AD"/>
			<stop  offset="0.64" style="stop-color:#B4339A"/>
			<stop  offset="0.73" style="stop-color:#C02B81"/>
			<stop  offset="0.82" style="stop-color:#CF2061"/>
			<stop  offset="0.9" style="stop-color:#E1143C"/>
			<stop  offset="0.97" style="stop-color:#F50613"/>
			<stop  offset="1" style="stop-color:#FF0000"/>
		</radialGradient>
		<path id="background" style="fill:url(#background_00000065770211752648852910000003743707427336453521_);" d="M512,120.1v271.7
			c0,66.3-53.9,120.2-120.2,120.2H120.1C53.8,512,0,458.1,0,391.8V120.1C0,53.8,53.8,0,120.1,0h271.7c35.4,0,67.2,15.3,89.3,39.7
			c5,5.5,9.5,11.5,13.3,17.9c1.9,3.1,3.6,6.3,5.3,9.5c3.5,7.3,6.4,14.8,8.4,22.8c1.1,3.9,1.9,8.1,2.5,12.3
			C511.6,107.9,512,114,512,120.1z"/>
		<g id="checkbox">
			<path class="st1" d="M145.3,191.7l84.5,84.5l15.7-15.7L161,176L145.3,191.7z M298.8,345.3l15.7-15.6l-23-23L508.2,89.9
				c-2-8-4.9-15.6-8.4-22.8L260.2,306.7C260.2,306.7,298.8,345.3,298.8,345.3z M137.8,199.1l-15.6,15.6l153.6,153.6l15.6-15.7
				l-46.1-46L494.4,57.6c-3.8-6.4-8.3-12.4-13.3-17.9L229.8,291C229.8,291,137.8,199.1,137.8,199.1z M510.6,102.2L306.1,306.7
				l15.7,15.6L512,132.1v-11.9C512,114,511.6,107.9,510.6,102.2z M268.4,237.5l-84.5-84.5l-15.7,15.7l84.5,84.5
				C252.7,253.2,268.4,237.5,268.4,237.5z M440.7,374.6c0,36.5-29.7,66.1-66.1,66.1H137.4c-36.5,0-66.1-29.7-66.1-66.1V137.4
				c0-36.5,29.7-66.2,66.1-66.2H359V49.1H137.4c-48.6,0-88.3,39.6-88.3,88.3v237.2c0,48.6,39.6,88.3,88.3,88.3h237.2
				c48.6,0,88.3-39.6,88.3-88.3v-37.4h-22.1v37.4H440.7z"/>
		</g>
	</g>
</g>
</svg>
