<svg xmlns="http://www.w3.org/2000/svg" xml:space="preserve" viewBox="0 0 512 512"><circle cx="69.3" cy="256.2" r="69.3" style="fill:#a7cafd"/><circle cx="153.9" cy="256" r="101.1" style="fill:#0a5ecb"/><circle cx="245.6" cy="256" r="132.2" style="fill:#0d6efc"/><path d="M362.9 317c-14.3 0-28.5 0-42.8-.1-3.6 0-7.2-.1-10.8-.1H204.4c.1-1.4.2-2.5.3-3.5 0-.2.1-.4.1-.6l-.3.3c-4.9 1.9-9.6 4.7-14.6 5.6-22.4 3.9-38.8-11.8-36.5-34.5 1.8-17.8 17.1-31.8 35.1-31.4 13.3.3 23.5 5.8 28.9 18.7.1.2.3.4.4.6 11.1-12.3 22.2-24.5 33.6-37.1h-25.5c4.5-18.2 8.9-36.1 13.3-54h107.5c-.7-4.5-1.5-8.8-2.2-13.2.4-19.2 14.2-31.8 29.3-34.9 14.8-3 30.7 4.9 35.5 18.2 3.6 9.8 2.3 19.4-2.8 28.6-1.1 2-1.9 4.3-3.1 7.1 5.4-1.4 9.9-2.6 14.5-3.8 14-3.5 28.2-5.3 42.6-4.2 25.7 1.9 45.4 18 50 44.4 4.1 23.5-.5 45.5-14.8 64.9-12.3 16.8-29.2 26.3-49.7 29.5-5.4.8-10.9 1-16.6 1.5-2.9 11.5-5.8 23.2-8.7 35h-60.2c2.9-12.3 5.9-24.5 8.9-37.1-2.2.1-4.3.1-6.5.1m-30.6-84.9c-10.6 10-21.2 19.9-31.8 29.9.2.2.3.4.5.6h24.5c1.6-6.5 3.1-13 4.6-19.4.8-3.8 1.4-7.5 2.2-11.1 0-.1.1-.1.2-.2zm86.1 70.7c8.4 1.3 16.4 1.6 24.6.4 17.3-2.5 31.4-10.6 41.7-24.8 10.6-14.8 14.1-31.6 12.1-49.5-1.2-10.9-5.7-20.5-14.7-27.4-8.5-6.5-18.3-8.3-28.7-8.4-13.2-.1-25.9 2.4-38.6 5.7-1.7.4-2 1.5-2.4 2.9-9.6 39.9-19.1 79.8-28.7 119.6-1.4 5.9-2.8 11.8-4.2 17.9h29.9c3-12.1 6-24.2 9-36.4m-85.2-107h-82.5c-2 8-4 16.1-6.1 24.6h43l-2.9 2.9c-18.3 17.1-35.5 35.2-51.9 54.1-2 2.3-4.6 4.5-5.6 7.2-2 5.6-3 11.5-4.4 17.4h85.7c2-8.2 4-16.3 6.1-24.8h-49c.4-.6.5-.8.7-1 19.8-19.4 39.5-38.8 59.4-58.1 1.8-1.8 3-3.5 3.5-6 1.2-5.4 2.6-10.7 4-16.3m53.4-.1c-9.4 0-18.1.1-26.9-.1-2.6-.1-3.4.8-4 3.1-5.6 24-11.3 48-17 72-2.5 10.4-4.9 20.8-7.4 31.3h29.9c8.4-35.4 16.9-70.6 25.4-106.3m-218.8 92.8c.1 7.9 3.2 12.8 9.8 15.1 12.7 4.5 26.8-5.4 26.9-18.9.1-6.7-1.7-12.4-8.4-15.5-13.3-6-28.4 4.3-28.3 19.3m228.6-125.7c.4-6.8-2.8-11.7-9.1-14.3-11.5-4.6-25.2 2.9-27.6 15.1-1.6 8 1.3 14.2 8 17.3 12.9 5.9 28-3.6 28.7-18.1m27.5 115.8c4.6-19.3 9.1-38.2 13.7-57 .2-.8 1.2-2 2-2.1 3.7-.5 7.4-1 11-.9 8.9.2 13.6 3.5 15.5 12.5 3.2 15.2.2 29.2-11.5 40.2-8.6 8-19.2 9.3-30.7 7.3m26.1-45.9c-2.3 9.7-4.5 18.9-6.8 28.4 8.7-5.2 10.7-20.4 8.6-26.8-.2-.5-1-.8-1.8-1.6" style="fill:#22262a"/><path d="M418.4 302.8c-3 12.2-6 24.2-9.1 36.4h-29.9c1.4-6 2.8-12 4.2-17.9 9.6-39.9 19.2-79.7 28.7-119.6.3-1.4.7-2.5 2.4-2.9 12.7-3.3 25.4-5.8 38.6-5.7 10.4 0 20.3 1.9 28.7 8.4 9 6.9 13.4 16.4 14.7 27.4 2 17.9-1.4 34.7-12.1 49.5-10.2 14.3-24.3 22.3-41.7 24.8-8.1 1.2-16.2.9-24.5-.4m5.5-24.2c11.5 2.1 22.1.8 30.8-7.3 11.7-11 14.7-25 11.5-40.2-1.9-9-6.6-12.3-15.5-12.5-3.7-.1-7.4.4-11 .9-.8.1-1.8 1.2-2 2.1-4.7 18.8-9.2 37.7-13.8 57m-173.3-82.8c-2 8-4 16.1-6.1 24.6h43l-2.9 2.9c-18.3 17.1-35.5 35.2-51.9 54.1-2 2.3-4.6 4.5-5.6 7.2-2 5.6-3 11.5-4.4 17.4h85.7c2-8.2 4-16.3 6.1-24.8h-49c.4-.6.5-.8.7-1 19.8-19.4 39.5-38.8 59.4-58.1 1.8-1.8 3-3.5 3.5-6 1.2-5.4 2.6-10.7 3.9-16.3zm109.1-.2c-2.6-.1-3.4.8-4 3.1-5.6 24-11.3 48-17 72-2.5 10.4-4.9 20.8-7.4 31.3h29.9c8.5-35.4 16.9-70.6 25.5-106.3-9.4 0-18.2.1-27-.1m-182.1 108c12.7 4.5 26.8-5.4 26.9-18.9.1-6.7-1.7-12.4-8.4-15.5-13.3-6-28.4 4.3-28.3 19.3.1 7.9 3.2 12.8 9.8 15.1m209.7-155c-11.5-4.6-25.2 2.9-27.6 15.1-1.6 8 1.3 14.2 8 17.3 12.8 5.9 27.9-3.6 28.7-18.1.4-6.9-2.7-11.8-9.1-14.3" style="fill:#e6e6e6"/></svg>