<svg xmlns="http://www.w3.org/2000/svg" xml:space="preserve" viewBox="0 0 512 512"><path d="M498.1 435.5v49.9c0 14.7-11.9 26.6-26.6 26.6h-431c-14.7 0-26.6-11.9-26.6-26.6v-49.9c0-10 5.5-18.7 13.7-23.2-.5 5.2-1 10.3-1.5 15.5V464c.4 20.1 13.3 36.4 31.3 39.6l.6.1h400.8c7.5-.2 15-3 20.5-7.7 6.5-5.6 10-13.6 9.8-22.5v-45.9l-2-13.6c6.7 4.8 11 12.6 11 21.5m-52-252.5c-2.9-15-15.8-31-33.6-32.9H307.3v33.4H379c12.6-.4 25.1 8.3 28.4 18.7l27.9 186.4c.7 17-6.3 26.8-18.1 26.4l-315.5 1.2c-13.1-1.4-22.3-10-22-25.7l22-184.8c3.4-12.3 11.4-22.2 24-22.2h80.8v-33.4H94.8c-13.6-.5-27.3 11.3-28.5 25.6C56 259.9 40.8 344.2 33 428.4v35.4c.4 18.3 12.4 30.5 25.6 32.9h400c11.3-.3 23.9-8.1 23.5-23.1v-45.5zM319.7 333.4l-12.9-82.6v36.7c0 11.8-9.6 21.4-21.4 21.4h-57.1c-11.8 0-21.4-9.6-21.4-21.4v-41.7l-15 87.6h-34.3l92.8 59.6L354 333.4zm59-322.9h-71.5c.1.6.1 1.3.1 1.9v68.1h71.4c32 0 58-10.2 58-22.9V33.4c0-12.6-26-22.9-58-22.9m-172.2 70h-71.3c-32 0-58-10.3-58-22.9V33.4c.1-12.6 26-22.9 58-22.9h71.4c-.1.6-.1 1.3-.1 2zm9.5-68.1v275.1c0 6.8 5.5 12.4 12.4 12.4h57.1c6.8 0 12.4-5.5 12.4-12.4V12.4c0-6.8-5.5-12.4-12.4-12.4h-57.1c-6.9 0-12.5 5.6-12.4 12.4"/></svg>