<?xml version="1.0" encoding="utf-8"?>
<!-- Generator: Adobe Illustrator 28.2.0, SVG Export Plug-In . SVG Version: 6.00 Build 0)  -->
<svg version="1.1"
	 id="svg5186" xmlns:dc="http://purl.org/dc/elements/1.1/" xmlns:rdf="http://www.w3.org/1999/02/22-rdf-syntax-ns#" xmlns:cc="http://creativecommons.org/ns#" xmlns:inkscape="http://www.inkscape.org/namespaces/inkscape" xmlns:svg="http://www.w3.org/2000/svg" xmlns:sodipodi="http://sodipodi.sourceforge.net/DTD/sodipodi-0.dtd" inkscape:export-xdpi="90" inkscape:export-ydpi="90" inkscape:output_extension="org.inkscape.output.svg.inkscape"
	 xmlns="http://www.w3.org/2000/svg" xmlns:xlink="http://www.w3.org/1999/xlink" x="0px" y="0px" viewBox="0 0 512 512"
	 style="enable-background:new 0 0 512 512;" xml:space="preserve">
<style type="text/css">
	.st0{fill:#FFFFFF;}
</style>
<path class="st0" d="M498.1,435.5v49.9c0,14.7-11.9,26.6-26.6,26.6h-431c-14.7,0-26.6-11.9-26.6-26.6v-49.9c0-10,5.5-18.7,13.7-23.2
	c-0.5,5.2-1,10.3-1.5,15.5l0,0.3v35.7l0,0.2c0.4,20.1,13.3,36.4,31.3,39.6l0.6,0.1h400.7l0.1,0c7.5-0.2,15-3,20.5-7.7
	c6.5-5.6,10-13.6,9.8-22.5v-45.9l-2-13.6C493.8,418.8,498.1,426.6,498.1,435.5z M446.1,183c-2.9-15-15.8-31-33.6-32.9H307.3v33.4
	H379c12.6-0.4,25.1,8.3,28.4,18.7l27.9,186.4c0.7,17-6.3,26.8-18.1,26.4l-315.5,1.2c-13.1-1.4-22.3-10-22-25.7l22-184.8
	c3.4-12.3,11.4-22.2,24-22.2h80.8v-33.4H94.8c-13.6-0.5-27.3,11.3-28.5,25.6C56,259.9,40.8,344.2,33,428.4v35.4
	c0.4,18.3,12.4,30.5,25.6,32.9h400c11.3-0.3,23.9-8.1,23.5-23.1v-45.5L446.1,183z M319.7,333.4l-12.9-82.6v36.7
	c0,11.8-9.6,21.4-21.4,21.4h-57.1c-11.8,0-21.4-9.6-21.4-21.4v-41.7l-15,87.6h-34.3l92.8,59.6L354,333.4H319.7z M378.7,10.5h-71.5
	c0.1,0.6,0.1,1.3,0.1,1.9v68.1h71.4c32,0,58-10.2,58-22.9V33.4C436.7,20.8,410.7,10.5,378.7,10.5z M206.5,80.5h-71.3
	c-32,0-58-10.3-58-22.9V33.4c0.1-12.6,26-22.9,58-22.9h71.4c-0.1,0.6-0.1,1.3-0.1,2V80.5z M216,12.4v275.1c0,6.8,5.5,12.4,12.4,12.4
	h57.1c6.8,0,12.4-5.5,12.4-12.4V12.4c0-6.8-5.5-12.4-12.4-12.4h-57.1C221.5,0,215.9,5.6,216,12.4z"/>
</svg>
