<?xml version="1.0" encoding="utf-8"?>
<!-- Generator: Adobe Illustrator 28.2.0, SVG Export Plug-In . SVG Version: 6.00 Build 0)  -->
<svg version="1.1" id="Layer_1" xmlns="http://www.w3.org/2000/svg" xmlns:xlink="http://www.w3.org/1999/xlink" x="0px" y="0px"
	 viewBox="0 0 512 512" style="enable-background:new 0 0 512 512;" xml:space="preserve">
<path d="M236.9,225c-33.6,16-83.6,29.4-125.8,8.3c-3.6-1.8-7.2-3.8-10.8-6.4c-0.1,0-0.2,0-0.3-0.1c-4.7-3-9.1-6.5-13.8-10.3
	C47.5,184.3,7.5,126.3,0.6,94.9c-0.2-1-0.4-2-0.6-2.9c25.1-13.2,84.1-11.8,131.2-0.7c0.1,0,0.1,0.1,0.2,0.1
	c6.4,1.6,12.5,3.2,18.2,5.1c8.2,2.5,15.5,5.6,22.1,8.8c43.9,22.1,65.6,74.1,72.5,111.2l-30.8-13.4L184,190.3L82.9,146.4l97.5,49.8
	l27.5,14L236.9,225z M339.6,321.8c-0.6-3.8-1.4-7.7-2.4-11.1c-11.3-40.9-51-66-82.4-78.6l7.5,28.2l7.3,26.7l25.8,96l-32.1-94.8
	l-9.1-27.1c0,0,0,0,0,0l-9.7-28.7c-20.9,27.1-43.1,73.3-31.4,115.8c1.8,6.3,4.3,13,7.5,20c0,0,0,0,0,0c2.2,5.1,4.8,10.3,7.7,15.7
	c21.1,38.1,56.1,78,80.4,86.7c0,0,0.1-0.1,0.1-0.1c0,0,0,0,0,0c17.8-21.9,34-86.3,32.2-133.1C340.8,331.9,340.4,326.7,339.6,321.8z
	 M505.1,44.8c-9.9-2.3-22.7-3.4-37-3.3c-39.5,0.2-90.9,9.1-128.7,24.6c-6.3,2.4-12.3,5.3-17.8,8.3c-4.5,2.4-8.8,5.1-12.4,7.7
	c-43.7,31.4-56.5,89.6-57.9,132.5l30.2-21.3l29-20.3l102.9-72.1l-98.9,79.2c0,0,0,0,0,0l-28.3,22.7l-30,23.9
	c41.3,13.1,106.1,19.8,151.7-12.8c6.4-4.7,13.1-10.4,19.6-17c0.4-0.2,0.7-0.4,1.1-0.6c4.6-4.7,9.4-9.7,13.8-15
	c0.2-0.2,0.3-0.4,0.5-0.6c0.2-0.1,0.4-0.1,0.6-0.2C478.7,140,510.2,83.3,511.9,50c0.1-1.1,0.1-2.1,0.1-3.2
	C509.9,46.1,507.6,45.4,505.1,44.8z"/>
</svg>
