<svg xmlns="http://www.w3.org/2000/svg" xml:space="preserve" viewBox="0 0 512 512"><path d="M414.1 47.2c-30-.9-45.6 13.1-49.3 14.4 3.4-6.5 5.7-10.5 14.4-19.7-29.7-.3-57.3 6.1-78.3 25.8-28.2 26.4-26 48.3-26 48.2 0 0-4.5-14.3-5.8-29.5-30.7 42.5-42.8 98.8-19.6 140.8 14.4-34.9 37.4-64.9 66.9-88.6 1-24.9 10.9-45.9 26.8-61.3-14.3 17.1-20.5 36.5-19.9 56.1 34.4-25.6 76.5-42.8 122.8-48.4-33.5 6.2-63.9 19.5-90.4 37.7 16.6 7.6 35.6 8.8 55.5 1.8-19.1 9-40.3 10.4-61.8 2.6-19 14-36 30.5-50.5 48.6 25.8 8.5 54.1 6.7 82.3-7.6-25.8 16.7-56.2 22.9-88.6 15.8-12.9 17.3-23.8 36-32.2 55.2 10.4 7.7 55.7 31.8 133.4-25.4-10.9-3.2-19.9-7.8-19.9-7.8.3.1 8 .8 30.7-12.8 20.1-11.7 37.3-33 50.1-49.5-10.8-4-19.3-8.2-19.3-8.2s14 .9 35.8-15.7c19.4-14.8 41-36.3 41.1-35.8-.2.2-48-35.2-98.2-36.7" style="fill:#4fa52b"/><path d="M68.1 124.4c22.8-6.6 37.3 1 40.4 1.3-3.8-4.3-6.3-6.9-14.7-12.1 22.7-6.1 44.9-6.6 64.7 4.2 26.5 14.6 28.8 31.7 28.9 31.5 0 0 .7-11.7-1.1-23.7 31.4 26.4 51.1 66.9 41.1 103.5-17.5-23.7-40.7-42.1-67.7-54.3-5.4-18.7-16.9-32.8-31.9-41.5 14.1 10.2 22.5 23.8 25.7 38.9-31.1-12.8-66.5-17.5-102.9-12.7 26.8-1.9 83.5 2 129.5 40.2-18.1 11.5-40.1 15.7-64.2 10.3 22.9 7.6 47.2 6.4 70.7-5.4 13.1 10.7 24.9 22.7 34.9 35.8-6.5 7.9-36.7 35.2-106.7 6.9 7.8-4.6 13.7-9.9 13.8-9.9-.2.2-6 2.2-25.8-3.7-17.5-5-34.7-17.8-47.5-27.9 7.5-5.2 13.2-10 13.2-10.1 0 0-10.5 3.5-30.3-4.9C20.5 183.4-.1 171.3 0 171.7c-.1.2 29.9-36.2 68.1-47.3" style="fill:#e47b19"/><path d="M231.6 437.6c-16.6-15.5-17.3-31.2-18.6-33.9-1.7 5.2-2.7 8.7-2.9 18.1-16.1-15.6-27.4-33.7-28-55.4-.8-29 12.2-39.5 12.2-39.5s-10.1 5.2-19.1 12.7c6.6-38.9 30.7-75.3 66-85.3C230 280.5 226 308.7 229 337c-13 13.8-19 30.3-19 46.9 1.6-16.7 8.8-30.4 19.8-40.5 4.5 31.9 17.8 63.4 39.6 91-14.6-21.1-39.1-69.7-29.7-126.6 18.5 9.2 32.7 25.2 40 47.8-4.8-22.6-17.7-42.1-39-55.5 2.5-16.1 6.8-31.8 12.7-46.5 9.8 1.5 47.2 12.7 57.8 84.4-7.6-4.1-14.9-6.4-14.9-6.4.2.1 4.7 3.8 9.5 23.1 4.4 16.9 2.1 37.4-.1 52.9-8-3.6-14.8-5.9-14.8-5.9s8 7 10.6 27.3c2.3 18.2 2.3 41.1 2.6 40.8.2.3-44.7-6.3-72.5-32.2" style="fill:#e33f3b"/></svg>