<?xml version="1.0" encoding="utf-8"?>
<!-- Generator: Adobe Illustrator 28.2.0, SVG Export Plug-In . SVG Version: 6.00 Build 0)  -->
<svg version="1.1" id="Layer_1" xmlns="http://www.w3.org/2000/svg" xmlns:xlink="http://www.w3.org/1999/xlink" x="0px" y="0px"
	 viewBox="0 0 512 512" style="enable-background:new 0 0 512 512;" xml:space="preserve">
<path d="M399,341.4l-135,77.9v-63l135-78v-29.8l-135,77.9v-63l135-78l0,0.1V181l83.2-48L251.5,0L29.8,127.9v256v0.1l0.1-0.1
	l221.6,128l228.3-131.8l-80.8-59V341.4z M103.2,185.4l60.9,35.3l0.3,0.1l73.8,42.6v63l-135-78L103.2,185.4L103.2,185.4z
	 M116.1,163.2l122.1-70.5v63.1l-5,2.9l-62.6,36L116.1,163.2z M264,233.9l-12.4,7.2l-13.4-7.7v0l-41.3-23.8l41.3-23.8l13.4-7.7
	l12.3,7v0.1l42.2,24.3L264,233.9z M267,157.4l-3-1.6V92.7l122,70.5l-54.5,31.5L267,157.4z M103.2,341.3v-62.9l60.9,35.2l0.3,0.1
	l73.8,42.6v63L103.2,341.3z"/>
</svg>
