<?xml version="1.0" encoding="utf-8"?>
<!-- Generator: Adobe Illustrator 28.2.0, SVG Export Plug-In . SVG Version: 6.00 Build 0)  -->
<svg version="1.1" id="Layer_1" xmlns="http://www.w3.org/2000/svg" xmlns:xlink="http://www.w3.org/1999/xlink" x="0px" y="0px"
	 viewBox="0 0 512 512" style="enable-background:new 0 0 512 512;" xml:space="preserve">
<style type="text/css">
	.st0{fill:#FFFFFF;}
	.st1{fill:#0095D5;}
	.st2{fill:#AEADAE;}
	.st3{fill:#31BEEC;}
</style>
<g id="logoMark">
	<polygon id="logoMark_PathItem_" class="st0" points="238.2,65.5 83,178.1 103.2,377.6 238.2,442 399,341.4 399,143.7 	"/>
	<path id="logoMark_CompoundPathItem_" class="st1" d="M399,341.4l-135,77.9h-25.8l-135-78V185.5l12.8-22.3l122.2-70.5H264
		l122.1,70.5l12.9,22.3V181l83.1-48L251.5,0L29.8,127.9v256l221.7,128l228.3-131.8l-80.8-59V341.4z"/>
	<polygon id="logoMark_PathItem_2" class="st2" points="306.2,209.6 251.6,241.1 196.9,209.6 251.6,178.1 	"/>
	<path id="logoMark_CompoundPathItem_2" class="st1" d="M264,356.3l135-78v-29.8l-135,77.9V356.3z M386.1,163.1l-54.6,31.6
		l-64.5-37.3l-3.1-1.7v29.5l42.2,24.3L264,233.9v29.5l135-78L386.1,163.1z M103.2,278.4l60.9,35.2l0.3,0.1l73.8,42.6v-29.9l-135-78
		V278.4z M170.6,194.7L116,163.1l-12.8,22.3l60.9,35.3l0.3,0.1l73.8,42.6v-30l-41.3-23.8l41.3-23.8v-30l-5,2.9L170.6,194.7z"/>
	<polygon id="logoMark_PathItem_3" class="st1" points="264,92.6 264,185.2 251.6,178.1 238.2,185.8 238.2,92.6 	"/>
	<polygon id="logoMark_PathItem_4" class="st1" points="264,233.9 264,419.3 238.2,419.3 238.2,233.4 251.6,241.1 	"/>
	<polygon id="logoMark_PathItem_5" class="st3" points="29.8,127.9 116,163.1 116,163.1 238.2,92.6 264,92.6 386.1,163.1 399,181 
		482.2,133 251.5,0 	"/>
	<polygon id="logoMark_PathItem_6" class="st3" points="29.8,384 103.2,341.3 103.2,185.5 116,163.1 29.8,127.9 	"/>
</g>
</svg>
