<svg xmlns="http://www.w3.org/2000/svg" xml:space="preserve" viewBox="0 0 512 512"><path d="M506.2 255 456 215.6c8.7-24 24.8-79.2 3.4-111.9-7.3-11.1-22.2-24.3-51.3-24.3-29.2 0-44.4 13.5-51.8 24.5-21.6 32.9-5 88.3 3.8 112.1l-15.7 13-37.1-26.9c10.8-28.4 33.2-99.2 6.7-139.3-8-12.7-24.9-27.7-58-27.7s-50 15-58.2 27.6c-26.3 40.1-3.9 110.9 6.7 139.3l-37.1 26.9-15.5-12.9c8.8-23.8 25.4-79.1 3.8-112.1-7.3-11.2-22.3-24.5-51.8-24.5s-44 13.2-51.3 24.3c-21.5 32.7-5.5 87.9 3.4 111.8L5.8 255c-4.6 3.6-6.7 9.4-5.5 15.1C30.5 411.3 169.5 501.3 310.7 471c100.7-21.6 179.4-100.2 200.9-200.9 1.3-5.6-.9-11.5-5.4-15.1m-474 17.8 51.4-40.4c5.4-4.3 7.3-11.6 4.6-17.9-11-25.7-23.4-74.1-10.1-94.3 1.8-2.6 7-10.6 26-10.6s24.6 8.1 26.4 10.8c13.3 20.2.6 68.4-10.5 94-2.9 6.3-1.1 13.7 4.2 18.1l18.1 15-18.3 13.4c-3.8 2.8-6 7.2-6.1 12v127.3c-42.3-31.5-72.5-76.4-85.7-127.4m116 146.7V280.7l83.9-61.1c5.8-4.2 7.8-11.8 5-18.3-9.7-22.4-33-92.8-13.9-122C229.3 70 240 65.4 256 65.4s26.7 4.5 32.8 13.9c19.1 29.1-4.2 99.6-13.9 122-2.8 6.5-.7 14.1 5 18.3l83.9 61.1v138.8c-67.4 36.1-148.4 36.1-215.9 0zm246.2-19.3V272.8c0-4.8-2.3-9.4-6.2-12.3L369.9 247l18-14.7c5.2-4.3 6.9-11.5 4.2-17.7-7.5-17.2-25.4-71.3-10.5-94 1.8-2.7 7.1-10.8 26.4-10.8s24.3 8 26 10.6c13.5 20.2.9 68.5-10.1 94.3-2.7 6.3-.8 13.7 4.6 17.9l51.4 40.4c-13.2 50.9-43.4 95.7-85.6 127.1h.1z" style="fill:#0097a7"/></svg>