<svg xmlns="http://www.w3.org/2000/svg" xml:space="preserve" viewBox="0 0 512 512"><path d="M37 0h438.1c20.4 0 37 16.6 37 37v438.1c0 20.4-16.6 37-37 37H37c-20.4 0-37-16.6-37-37V37C0 16.6 16.5 0 37 0" style="fill:#1976d2"/><path d="M228.9 262.7c-35.3 35.3-15.3-42.7-64.6-34.9s-6.2 75.8-50.7 53.1 35.9-27.7 13.2-72.2-74 17.6-66.2-31.8c7.8-49.3 37.5 25.6 72.8-9.7s-39.6-65 9.7-72.8-12.7 43.5 31.8 66.2 49.6-57.7 72.2-13.2-45.3 1.3-53.1 50.7 70.2 29.3 34.9 64.6m100.8 148.1c-40.8 28.7-7.7-44.7-57.7-45.5s-19.1 73.6-59 43.7c-39.9-30 40.1-21.2 25.4-68.9s-75.9 4.6-59.8-42.6 32.5 31.6 73.4 2.9c40.8-28.7-27.8-70.8 22.1-70s-20 40.7 19.9 70.7 58.7-48.4 73.4-.6-44.9-6.4-61 40.8 64.2 40.8 23.3 69.5m99.6-148.1C394 298 414 220 364.7 227.8s-6.2 75.8-50.7 53.1 35.9-27.7 13.2-72.2-74 17.6-66.2-31.8c7.8-49.3 37.5 25.6 72.8-9.7s-39.6-65 9.7-72.8-12.7 43.5 31.8 66.2 49.6-57.7 72.2-13.2c22.7 44.5-45.3 1.3-53.1 50.7-7.8 49.3 70.2 29.3 34.9 64.6" style="fill:#fff"/></svg>