<svg xmlns="http://www.w3.org/2000/svg" xml:space="preserve" viewBox="0 0 512 512"><path d="M206.7 140.2c-20.6-11.8-37.3-2.1-37.3 21.6v175.3c0 23.8 16.7 33.4 37.3 21.6l153.2-87.9c20.6-11.8 20.6-31 0-42.8zM253.9 0c-52.2.4-103.4 17-146.4 47.5C57.8 82.8 22.4 135 7.7 194c-17.4 69.9-4.8 142.4 34.2 202.1l-38 44.7 159.5 29-54.9-152.5L73.3 359c-26.2-46.5-33.8-100.8-20.6-153.5 12.1-48.4 41.1-91.2 81.8-120.1 40.1-28.5 89.2-42.1 138.2-38.3L276.3.9c-7.5-.7-14.9-1-22.4-.9m94.6 42.3 54.9 152.5 35.3-41.7c26.2 46.5 33.8 100.8 20.6 153.5-12.1 48.4-41.1 91.2-81.8 120.1-40.1 28.5-89.2 42.1-138.2 38.3l-3.6 46.2c59.8 4.8 119.7-11.8 168.8-46.7 49.7-35.2 85.1-87.4 99.9-146.7 17.4-69.8 4.8-142.4-34.2-202.1L508.1 71z" style="fill:#011627"/></svg>