<svg xmlns="http://www.w3.org/2000/svg" xml:space="preserve" viewBox="0 0 512 512"><path d="M322.5 55.3v62.2c-3 .2-5.6.4-8.3.4-35.1 0-70.1.2-105.2-.1-6.3 0-8.2 1.6-8.2 8.1.2 105.4.2 210.8.2 316.2v8.4h-80c-.2-3-.5-6-.5-9.1V127.7c0-9.8 0-9.9-10.1-9.9-34.2 0-68.4-.1-102.7.1-5.5 0-7.7-1.2-7.6-7.3.4-18.3.2-36.7.2-55.4 107.5.1 214.5.1 322.2.1m56.4 166.2c0 48.6-.1 97.1.1 145.7 0 8 .3 16.1 1.4 24 4.1 29.9 18.7 51.8 48.9 60.5 26.3 7.6 52.6 5.9 78.8-1.1 3.9-1 4-3.4 4-6.6-.1-15.8-.1-31.7-.2-47.5 0-1.6-.4-3.1-.4-3.6-10.5 0-20.4.4-30.3-.1-13.9-.7-20.6-7.2-22.5-21q-.9-6.3-.9-12.6c-.1-46.7 0-93.3 0-140v-6.5h50.3v-55.9h-50.5V84h-78.7v73.3H337V213h42.2c-.3 3.5-.3 6-.3 8.5"/></svg>