<svg xmlns="http://www.w3.org/2000/svg" xml:space="preserve" viewBox="0 0 512 512"><path d="M257.9 0c5.5 1.3 9.2 5.2 13 9 11.1 11.3 22.4 22.5 33.6 33.6 3.6 3.6 5.3 7.7 5.3 12.8-.1 28.9 0 57.8 0 86.8 0 2.1 0 4.1-2.4 5-2.2.8-3.6-.5-5-1.9-11.6-11.6-23.1-23.2-34.7-34.8-7.6-7.6-15.9-7.6-23.5 0l-36.6 36.6c-3.7 3.8-8 5.5-13.3 5.5-28.7-.1-57.5 0-86.2-.1-.8 0-1.6.1-2.3-.1-2.8-.4-4.1-3.4-2.5-5.7.6-.8 1.4-1.6 2.1-2.3 45.1-45.1 90.2-90.2 135.2-135.3 3.9-3.9 7.6-7.9 13.1-9.4 1.4.3 2.8.3 4.2.3m254 254.1c-1.3-5.5-5.2-9.2-9-13-45.3-45.3-90.6-90.5-135.9-135.8-.7-.7-1.3-1.4-2.1-2-2.3-1.6-5.3-.3-5.7 2.5-.1.8-.1 1.6-.1 2.3 0 28.8.1 57.5 0 86.3 0 5.3 1.8 9.5 5.5 13.3 12.5 12.4 24.9 24.8 37.3 37.3 6.6 6.7 6.6 15.4 0 22-5.6 5.7-11.3 11.3-17 17-6.3 6.3-12.6 12.6-18.9 18.8-1.3 1.3-2.2 2.8-1.5 4.6.8 2 2.5 2.5 4.5 2.4h87c5.3 0 9.6-1.8 13.3-5.5 11-11.1 22-22.1 33.1-33.1 3.9-3.9 7.9-7.6 9.4-13.1.1-1.2.1-2.6.1-4m-310 202.3c0 5.2 1.7 9.4 5.4 13.1 12.4 12.3 24.7 24.6 37 36.9 7.4 7.4 15.9 7.4 23.3-.1 46.4-46.4 92.8-92.8 139.1-139.2.6-.6 1.3-1.2 1.8-1.9 1.7-2.4.6-5.2-2.3-5.8-.8-.2-1.7-.1-2.6-.1h-86c-5.4 0-9.7 1.8-13.5 5.6-12.1 12.3-24.3 24.4-36.5 36.6-7.6 7.6-15.9 7.6-23.5-.1l-34.6-34.6c-1.4-1.4-2.8-3-5.2-2s-2.4 3.1-2.4 5.3v43.4q.15 21.6 0 42.9M5.4 267.6c46.5 46.5 93 93 139.6 139.5.6.6 1.1 1.2 1.7 1.6 2.1 1.5 4.9.6 5.7-1.9.3-1 .3-2.1.3-3.1v-86c0-5.3-1.8-9.6-5.5-13.3-12.3-12.2-24.6-24.5-36.8-36.8-7.5-7.5-7.4-15.8.1-23.3l35.1-35.1c1.4-1.4 2.4-2.9 1.5-4.9-.8-1.9-2.5-2.2-4.3-2.2H54.5c-4.2 0-7.9 1.4-10.9 4.3l-39 39c-2.8 2.8-4.3 6.3-4.4 12.2-.2 3 1.9 6.7 5.2 10" style="fill:#01bbf9"/><path d="M255.6 337.3c-4.3-.1-7.9-2-11.1-5.2-16.2-16.3-32.5-32.5-48.8-48.8l-16.1-16.1c-6.6-6.7-6.8-15.4-.1-22 21.8-21.9 43.7-43.8 65.6-65.6 6.4-6.4 15.2-6.3 21.7.1 21.9 21.8 43.8 43.7 65.6 65.6 6.3 6.3 6.4 15.2.1 21.5-22 22.1-44.1 44.1-66.1 66.2-2.9 2.8-6.5 4.3-10.8 4.3" style="fill:#f97f01"/></svg>