<?xml version="1.0" encoding="utf-8"?>
<!-- Generator: Adobe Illustrator 28.2.0, SVG Export Plug-In . SVG Version: 6.00 Build 0)  -->
<svg version="1.1" id="Layer_1" xmlns="http://www.w3.org/2000/svg" xmlns:xlink="http://www.w3.org/1999/xlink" x="0px" y="0px"
	 viewBox="0 0 512 512" style="enable-background:new 0 0 512 512;" xml:space="preserve">
<style type="text/css">
	.st0{fill:#FFFFFF;}
</style>
<path class="st0" d="M0,44.1v320.7l256,103l256-103V44.1H0z M196.5,343.3c-1.1-7.1-1.7-14.3-1.8-21.5C183.6,340.3,159,348,137.4,348
	c-52.2,0-81.5-38-81.5-83.6V128.9h65.6v121.6c0,20.7,11.2,37.1,34.5,37.1c22,0,35.8-15.1,35.8-36.6V128.9h65.6v176
	c0,12.8,0.7,25.6,2.1,38.4H196.5z M373.5,350.2c-67.3,0-88.8-43.5-90.6-67.3l55.8-10.3c0.9,14.7,11.2,28.9,33.7,28.9
	c16.8,0,25-9.1,25-18.5c0-7.8-5.2-14.2-21.1-17.7l-24.6-5.9c-45.7-9.7-63.8-35.5-63.8-65.7c0-39.2,34.5-71.2,82.4-71.2
	c62.1,0,83.7,38.8,85.8,63.9l-54.4,9.9c-1-15.5-14.5-27.2-30-26.2c-0.2,0-0.4,0-0.6,0c-12.5,0-23.5,7.4-23.5,18.5
	c0,9.1,7.4,14.2,16.8,15.9l28.5,5.9c44.4,9,65.9,35.8,65.9,67.2C458.9,314.4,430.8,350.2,373.5,350.2z"/>
</svg>
