<svg xmlns="http://www.w3.org/2000/svg" xml:space="preserve" viewBox="0 0 512 512"><path d="m0 364.9 256 103 256-103V44.1H0z" style="fill:#cf2a36"/><path d="M194.7 321.7C183.6 340.3 159 348 137.4 348c-52.2 0-81.5-38-81.5-83.6V128.9h65.6v121.6c0 20.7 11.2 37.1 34.5 37.1 22 0 35.8-15.1 35.8-36.6V128.9h65.6v176q0 19.2 2.1 38.4h-62.9c-1.2-7.2-1.8-14.4-1.9-21.6m144.1-49.1c.9 14.7 11.2 28.9 33.7 28.9 16.8 0 25-9.1 25-18.5 0-7.8-5.2-14.2-21.1-17.7l-24.6-5.9c-45.7-9.7-63.8-35.5-63.8-65.7 0-39.2 34.5-71.2 82.4-71.2 62.1 0 83.7 38.8 85.8 63.9l-54.4 9.9c-1-15.5-14.5-27.2-30-26.2h-.6c-12.5 0-23.5 7.4-23.5 18.5 0 9.1 7.4 14.2 16.8 15.9l28.5 5.9c44.4 9 65.9 35.8 65.9 67.2 0 36.7-28 72.4-85.3 72.4-67.3 0-88.8-43.5-90.6-67.3z" style="fill:#fff"/></svg>