<svg xmlns="http://www.w3.org/2000/svg" xml:space="preserve" viewBox="0 0 512 512"><path d="M473.2 0H38.8C17.4 0 0 17.4 0 38.8v434.4C0 494.6 17.4 512 38.8 512h434.4c21.4 0 38.8-17.4 38.8-38.8V38.8C512 17.4 494.6 0 473.2 0M266.4 410.8c-83.5 5.6-156.4-56-164.7-139.3h107.8v23.3c0 4.3 3.5 7.8 7.8 7.8h77.6c4.3 0 7.8-3.5 7.8-7.8v-77.6c0-4.3-3.5-7.8-7.8-7.8h-77.6c-4.3 0-7.8 3.5-7.8 7.8v23.3H101.6c8-79.3 74.7-139.6 154.4-139.6 83.7 0 152.3 66.3 155.1 150s-61.3 154.3-144.7 159.9" style="fill-rule:evenodd;clip-rule:evenodd"/></svg>