<svg xmlns="http://www.w3.org/2000/svg" xml:space="preserve" viewBox="0 0 512 512"><path d="M38.8 0h434.4C494.6 0 512 17.4 512 38.8v434.4c0 21.4-17.4 38.8-38.8 38.8H38.8C17.4 512 0 494.6 0 473.2V38.8C0 17.4 17.4 0 38.8 0" style="fill-rule:evenodd;clip-rule:evenodd"/><path d="M256 100.8c-79.7 0-146.4 60.4-154.4 139.6h107.8v-23.3c0-4.3 3.5-7.8 7.8-7.8h77.6c4.3 0 7.8 3.5 7.8 7.8v77.6c0 4.3-3.5 7.8-7.8 7.8h-77.6c-4.3 0-7.8-3.5-7.8-7.8v-23.3H101.6c8.4 83.3 81.2 144.9 164.7 139.3s147.5-76.4 144.7-160c-2.7-83.5-71.3-149.9-155-149.9" style="fill-rule:evenodd;clip-rule:evenodd;fill:#fff"/></svg>