<svg xmlns="http://www.w3.org/2000/svg" xml:space="preserve" viewBox="0 0 512 512"><path d="M312 141.2h-35.3c-6 0-10.8 4.9-10.8 10.8v180.4c0 6 4.9 10.8 10.8 10.8H312c6 0 10.8-4.9 10.8-10.8V152.1c0-6-4.8-10.9-10.8-10.9m-7.2 66.8c0 2.4-1.9 4.3-4.3 4.3h-12.4c-2.4 0-4.3-1.9-4.3-4.3v-40.6c0-2.4 1.9-4.3 4.3-4.3h12.4c2.4 0 4.3 1.9 4.3 4.3zm-69.7-67.4h-35.3c-6 0-10.8 4.9-10.8 10.8v180.4c0 6 4.9 10.8 10.8 10.8h35.3c6 0 10.8-4.9 10.8-10.8V151.5c0-6-4.8-10.9-10.8-10.9m-7.1 66.8c0 2.4-1.9 4.3-4.3 4.3h-12.4c-2.4 0-4.3-1.9-4.3-4.3v-40.6c0-2.4 1.9-4.3 4.3-4.3h12.4c2.4 0 4.3 1.9 4.3 4.3zm-69.8-66.8h-35.3c-6 0-10.8 4.9-10.8 10.8v180.4c0 6 4.9 10.8 10.8 10.8h35.3c6 0 10.8-4.9 10.8-10.8V151.5c0-6-4.8-10.9-10.8-10.9m-7.1 66.8c0 2.4-1.9 4.3-4.3 4.3h-12.4c-2.4 0-4.3-1.9-4.3-4.3v-40.6c0-2.4 1.9-4.3 4.3-4.3h12.4c2.4 0 4.3 1.9 4.3 4.3zm237.8-66.8h-35.3c-6 0-10.8 4.9-10.8 10.8v180.4c0 6 4.9 10.8 10.8 10.8h35.3c6 0 10.8-4.9 10.8-10.8V151.5c0-6-4.9-10.9-10.8-10.9m-7.2 66.8c0 2.4-1.9 4.3-4.3 4.3H365c-2.4 0-4.3-1.9-4.3-4.3v-40.6c0-2.4 1.9-4.3 4.3-4.3h12.4c2.4 0 4.3 1.9 4.3 4.3zm9.7-206.2H120.6C54 1.2 0 55.2 0 121.9v268.3c0 66.6 54 120.6 120.6 120.6h270.7c66.6 0 120.6-54 120.6-120.6V121.9C512 55.2 458 1.2 391.4 1.2m107.4 392c0 58.3-47.3 105.5-105.5 105.5H118.8c-58.3 0-105.5-47.3-105.5-105.5V118.8c0-58.3 47.3-105.5 105.5-105.5h274.4c58.3 0 105.5 47.3 105.5 105.5v274.4zM416.6 73H94.9c-21.7 0-39.3 17.6-39.3 39.3v284.3c0 21.7 17.6 39.3 39.3 39.3h321.7c21.7 0 39.3-17.6 39.3-39.3V112.4c0-21.7-17.6-39.4-39.3-39.4M213.3 418.9c-5.4 0-9.8-4.4-9.8-9.8s4.4-9.8 9.8-9.8 9.8 4.4 9.8 9.8-4.4 9.8-9.8 9.8m42.4 0c-5.4 0-9.8-4.4-9.8-9.8s4.4-9.8 9.8-9.8 9.8 4.4 9.8 9.8-4.4 9.8-9.8 9.8m42.4 0c-5.4 0-9.8-4.4-9.8-9.8s4.4-9.8 9.8-9.8 9.8 4.4 9.8 9.8-4.5 9.8-9.8 9.8m130.5-62.7c0 13.7-11.1 24.8-24.8 24.8H108.3c-13.7 0-24.8-11.1-24.8-24.8V127.9c0-13.7 11.1-24.8 24.8-24.8h295.5c13.7 0 24.8 11.1 24.8 24.8z" style="fill:#fff"/></svg>