<svg xmlns="http://www.w3.org/2000/svg" xml:space="preserve" viewBox="0 0 512 512"><path d="M437.4 51.6c17.4-5.3 35.2-6.7 48.8 2.2 14.4 9.4 17.8 27.9 16.9 46.7-.9 19.5-6.5 43-14.4 67.2-15.4 47.3-40.1 99.4-58.7 134 2.1 13.1 4.8 31.7 6.6 48.6 1 9.1 1.7 17.7 2 24.8.1 3.5.1 6.8-.1 9.6-.2 2.5-.5 5.6-1.6 8.2-1.5 3.5-4.5 6.3-6.8 8.3-2.7 2.2-6 4.6-9.7 6.9-7.3 4.7-16.7 9.9-26.1 14.8-18.9 9.9-39 19.1-46.3 22.3-8.4 3.7-39.2 12.2-77.9 16.6-38.8 4.4-86.8 5-129.1-8.3C57.6 427.4 12.5 371 8.9 328l-.1-1.2.2-1.1c8-44 22.6-110.3 40.4-166.1 8.9-27.8 18.6-53.4 29-72.3 5.2-9.5 10.6-17.6 16.5-23.7 5.8-5.9 12.8-10.7 21-11.2 13.1-.8 25.3 4.8 35.9 12.9 10.7 8.2 20.5 19.5 29.3 31.8 15.8 22.1 28.7 48.3 36.7 67.8l60.6-5.5c25.1-23.5 63.9-56 102-79.9 19.5-12.3 39.2-22.5 57-27.9" style="fill:#5005b3"/><path d="M222.5 473.4c-26.9 0-56.5-2.8-84.2-11.5C48.7 433.8 3.9 373.1.2 328.7l-.2-2.3.4-2.3c4-21.7 18.5-97.8 40.6-167.1 9.9-31.2 19.9-56.1 29.6-73.9 6-11 11.8-19.3 17.9-25.6 8.4-8.6 17.4-13.3 26.8-13.8 13.9-.9 28 4.1 41.8 14.7 10.4 8 20.8 19.3 31.1 33.7 16.7 23.4 28.9 49.3 35.1 63.6l51.2-4.7c14.6-13.6 56.1-50.6 101.1-78.9 22.3-14 42.2-23.7 59.2-28.9 23.1-7.1 42-6 56.1 3.3C506 56.4 513 74.7 511.8 101c-.9 18.5-5.9 41.9-14.9 69.5-18.3 56.2-47.4 113-57.9 132.8 1.5 9.4 4.2 27.9 6.2 46.1 1.1 10.2 1.8 18.7 2 25.4.1 4.1.1 7.5-.1 10.4s-.6 7.2-2.3 11.1c-2.2 5.2-6.4 9.1-9.3 11.5-2.8 2.3-6.2 4.8-10.6 7.6-6.8 4.4-15.8 9.5-26.8 15.2-18.4 9.6-38.1 18.7-46.8 22.6-9.9 4.4-42.4 13-80.4 17.3-13.9 1.7-30.5 2.9-48.4 2.9M17.7 327.2c3.3 40 47.6 93.4 125.9 117.9 43.1 13.5 92.1 11.8 125.5 8 37.5-4.3 67.6-12.5 75.3-15.9 8-3.5 27.8-12.7 45.8-22.1 10.5-5.5 19.1-10.3 25.4-14.4 3.7-2.3 6.6-4.5 8.8-6.3 2.4-2 3.8-3.7 4.4-5 .5-1.1.8-2.9.9-5.3.1-2.3.2-5.2 0-8.7-.2-6.3-.9-14.4-1.9-24.2-2.1-19.9-5.3-40.3-6.5-48.1l-.5-2.9 1.4-2.6c8.9-16.5 39.4-75 58.1-132.6 8.5-26.1 13.2-47.9 14-64.9.9-19.6-3.4-32.7-13-39-9.5-6.3-23.5-6.7-41.4-1.2-15.5 4.7-34 13.8-55 27-46.2 29-88.7 67.7-100.6 78.9l-2.2 2.1-70 6.4-2.5-6c-4.6-11.3-17.4-40.3-35.7-66.1-9.2-13-18.5-23-27.5-29.9-10.4-8-20.5-11.7-30.1-11.1-4.9.3-10.1 3.2-15.3 8.6-4.9 5-10 12.3-15.1 21.8-9.2 16.8-18.7 40.7-28.3 70.8-21.6 68.2-36 143.4-39.9 164.8m162.5-45.3c-22.3-15.9-60.8-6.1-73.3 1.6-8.6 5.3-31.9 27.6-36.7 46.7 11.2 43 73.3 101.8 149.8 26.6 0-31.9-17.5-59-39.8-74.9m-4.9 70.7c-.8 18.5-10.1 33-20.6 32.6-10.5-.5-18.4-15.8-17.6-34.3s10.1-33 20.6-32.6c10.6.5 18.5 15.9 17.6 34.3m173.8-65.9c-23.9 1.6-59 44.6-65.3 62.1 5.3 9.6 19.1 30.3 31.9 36.7 26.5 13.2 52.6.3 62.1-4.8 11.2-5.9 30.3-21.8 31.9-41-1.6-22.3-36.7-54.6-60.6-53m10.6 69.2c-2.5 18.3-13.1 32-23.6 30.5s-16.9-17.5-14.3-35.8c2.5-18.3 13.1-32 23.6-30.5 10.5 1.4 16.9 17.5 14.3 35.8" style="fill:#fff"/></svg>