<?xml version="1.0" encoding="utf-8"?>
<!-- Generator: Adobe Illustrator 28.2.0, SVG Export Plug-In . SVG Version: 6.00 Build 0)  -->
<svg version="1.1" id="Layer_1" xmlns:serif="http://www.serif.com/"
	 xmlns="http://www.w3.org/2000/svg" xmlns:xlink="http://www.w3.org/1999/xlink" x="0px" y="0px" viewBox="0 0 512 512"
	 style="enable-background:new 0 0 512 512;" xml:space="preserve">
<path d="M86.1,370.6l65.5-38l95.1,54.8l0.6,0.3c5.4,2.7,11.7,2.7,17.1,0l0.3-0.2l95.7-55.1l65.9,38.2c8.4,4.9,13.6,14,13.6,23.7
	c0,9.7-5.2,18.8-13.6,23.7l-156.7,90.5c-8.4,4.7-18.9,4.7-27.3,0L85.7,418c-8.2-4.9-13.2-13.8-13.3-23.7
	C72.5,384.6,77.7,375.5,86.1,370.6z M451.9,394.3c0-14.1-7.4-27-19.5-34l-123.8-71.7c-12-7.1-19.4-20.1-19.5-34V26.2
	c0-9.3,5-18,13-22.6c8-4.8,18-4.8,26,0l104.3,60.4c12,7.1,19.4,20.1,19.5,34C451.9,97.9,451.9,394.2,451.9,394.3z M60.6,394.3
	c0-14.1,7.4-27,19.5-34l123.7-71.7c12-7.1,19.4-20.1,19.5-34V26.2c0-9.3-5-18-13-22.6c-8-4.8-18-4.8-26,0L79.7,63.9
	c-12,7.1-19.4,20.1-19.5,34C60.1,97.9,60.5,394.2,60.6,394.3z"/>
</svg>
