<?xml version="1.0" encoding="utf-8"?>
<!-- Generator: Adobe Illustrator 28.2.0, SVG Export Plug-In . SVG Version: 6.00 Build 0)  -->
<svg version="1.1" id="Layer_1" xmlns:serif="http://www.serif.com/"
	 xmlns="http://www.w3.org/2000/svg" xmlns:xlink="http://www.w3.org/1999/xlink" x="0px" y="0px" viewBox="0 0 512 512"
	 style="enable-background:new 0 0 512 512;" xml:space="preserve">
<style type="text/css">
	.st0{fill:#2D2E83;}
	.st1{fill:#1FC2D7;}
</style>
<path class="st0" d="M65,385.4c0.1,13.6,7,26.2,18.7,33.1L236.9,507c11.8,6.7,26.4,6.7,38.2,0l153.2-88.5
	c11.8-6.9,19.1-19.5,19.1-33.1c0-13.7-7.3-26.4-19.1-33.2l-70.4-40.8v0.2l-98.9,57c-2,1-4.3,1-6.4,0L154,311.7l-69.9,40.5
	C72.3,359,65,371.7,65,385.4"/>
<path class="st1" d="M447.4,95.7c-0.1-13.6-7.4-26.3-19.1-33.2l-101.9-59c-7.9-4.6-17.7-4.6-25.5,0c-7.9,4.5-12.7,13-12.7,22.1
	v223.2c0.1,13.6,7.4,26.3,19.1,33.2l121,70.1c11.8,6.9,19.1,19.5,19.1,33.2C447.4,385.3,447.4,95.7,447.4,95.7z M64.6,95.7
	c0.1-13.6,7.4-26.3,19.1-33.2l102.2-59c7.9-4.6,17.7-4.6,25.5,0c7.9,4.5,12.7,13,12.7,22.1v223.2c-0.1,13.6-7.4,26.3-19.1,33.2
	L84.1,352.2C72.3,359,65,371.7,65,385.4C64.9,385.3,64.6,95.7,64.6,95.7z"/>
</svg>
