<svg xmlns="http://www.w3.org/2000/svg" xml:space="preserve" viewBox="0 0 512 512"><path d="m86.1 370.6 65.5-38 95.1 54.8.6.3c5.4 2.7 11.7 2.7 17.1 0l.3-.2 95.7-55.1 65.9 38.2c8.4 4.9 13.6 14 13.6 23.7s-5.2 18.8-13.6 23.7l-156.7 90.5c-8.4 4.7-18.9 4.7-27.3 0L85.7 418c-8.2-4.9-13.2-13.8-13.3-23.7.1-9.7 5.3-18.8 13.7-23.7m365.8 23.7c0-14.1-7.4-27-19.5-34l-123.8-71.7c-12-7.1-19.4-20.1-19.5-34V26.2c0-9.3 5-18 13-22.6 8-4.8 18-4.8 26 0L432.4 64c12 7.1 19.4 20.1 19.5 34zm-391.3 0c0-14.1 7.4-27 19.5-34l123.7-71.7c12-7.1 19.4-20.1 19.5-34V26.2c0-9.3-5-18-13-22.6-8-4.8-18-4.8-26 0L79.7 63.9c-12 7.1-19.4 20.1-19.5 34-.1 0 .3 296.3.4 296.4"/></svg>