<?xml version="1.0" encoding="utf-8"?>
<!-- Generator: Adobe Illustrator 28.2.0, SVG Export Plug-In . SVG Version: 6.00 Build 0)  -->
<svg version="1.1" id="Layer_1" xmlns:serif="http://www.serif.com/"
	 xmlns="http://www.w3.org/2000/svg" xmlns:xlink="http://www.w3.org/1999/xlink" x="0px" y="0px" viewBox="0 0 512 512"
	 style="enable-background:new 0 0 512 512;" xml:space="preserve">
<path d="M443.4,85.1c-2.9-8.5-8.8-15.9-16.8-20.7L325.7,6c-7.8-4.6-17.5-4.6-25.2,0c-7.8,4.5-12.6,12.9-12.6,21.9v221
	c0.1,13.5,7.3,26,18.9,32.9l50.1,29v0.2L259,367.4c-2,1-4.3,1-6.3,0L155,311.1l50.5-29.3c11.6-6.9,18.8-19.4,18.9-32.9v-221
	c0-9-4.8-17.4-12.6-21.9c-7.7-4.6-17.4-4.6-25.2,0l-31.8,18.4v-0.1L85.4,64.4c-11.7,6.8-18.9,19.3-18.9,32.9V384
	c0.1,13.5,7.3,26,18.9,32.9l151.7,87.6c11.7,6.6,26.1,6.6,37.8,0l151.7-87.6c11.7-6.8,18.9-19.3,18.9-32.8c0,0,0,0,0,0
	c0,0,0,0,0-0.1c0-5.8,0-286.7,0-286.7C445.5,93.1,444.7,89,443.4,85.1z"/>
</svg>
