<svg xmlns="http://www.w3.org/2000/svg" xml:space="preserve" viewBox="0 0 512 512"><path d="M493.8 367.6c-.7 9.7-8.7 18.6-16.7 23.9-1.8 1.1-5.6 3.3-11.5 6.6-10.9 6.3-21.5 12.6-32.7 18.6-3.7 2-6.4 3.5-8.3 4.7-3.4 2.1-6.1 3.7-8.2 4.8-14.5 7.8-29.2 16.1-43.9 24.8-4.7 2.8-9.5 5.5-14.3 8.2q-19.2 10.65-37.8 21.9c-5.2 3.2-11.8 6.6-16.3 9.3q-17.55 10.5-26.1 15.3c-12.5 7.1-24.9 8-37.1 2.7-1.5-.6-6.3-3.3-14.5-7.9-6.1-3.4-9.7-5.5-10.9-6.3-3.7-2.3-7.4-4.4-10.9-6.3-3.3-1.8-8-4.5-14.2-8.1-.9-.5-3.9-2.2-9-5-3.9-2.1-8.1-4.9-11.8-7-7.9-4.3-17.9-9.8-29.9-16.5-3.1-1.7-7.8-4.5-14.2-8.2-4.1-2.4-8.2-4.7-12.1-6.8-12.8-6.9-25.8-14.5-38-21.1-15-8.1-26.7-14.6-35.1-19.4-8.7-4.9-16.9-11.5-20.3-21.2-3.6-10-.9-21.3 6.5-29q7.95-8.25 20.4-9.3c5.3-.4 10.2.7 14.8 3.3 3.8 2.2 16.4 9.4 37.8 21.5 6.9 3.9 14.6 8.2 23.1 12.8 6 3.2 10.8 5.9 14.5 8q55.8 31.5 119.1 65.7c.3.2.8.2 1.1 0 11.6-6.3 23.6-13.8 35.3-20.4 14.8-8.4 24.1-13.6 27.9-15.8 2.8-1.6 7.6-4.3 14.4-8 5.4-3 10.5-5.9 15.3-8.8 2.3-1.6 4.6-3.5 6.9-5.9 7.6-10.4 2.9-22.4-6.9-29.2-2.4-1.6-5.5-2.6-9.2-3-3-.3-5.9.1-8.7 1.1-1 .3-3.5 1.7-7.6 4q-32.55 18.6-64.2 38.4c-.5.3-1.2.3-1.7 0-9.8-5.6-17.7-9.8-25.9-14.6-9.8-5.8-20.2-11-30.8-17.1-7.7-4.5-14.7-8.3-21-11.6-6.6-3.5-14.4-8-22.1-12.1-3.6-1.9-6.6-3.5-8.9-4.8-50.1-28.1-78.8-44.2-86-48.3-5.2-3-13.5-7.7-25.1-14.2-4.7-2.6-8.7-6.4-11.3-11.2-5.8-10.8-5.4-21.8 1.1-33.1 4.7-8.1 14.2-13.6 23.6-12.9 4.1.3 8 1.2 11.5 2.7 2.8 1.2 6.2 3.1 10.2 5.8 3.6 2.4 9 6 14 8.6.1 0 6.5 3.6 19.5 10.8 3.5 2 8.3 4.7 14.3 8.2 6.9 4 13.9 8 21.2 12 6.3 3.5 18.1 10.2 35.2 20 2.8 1.6 7.3 4.1 13.4 7.4 2.6 1.4 5.6 3.1 9 5 2.4 1.4 5.4 3 8.9 4.9 6.1 3.3 18 9.9 35.6 19.6 1.4.8 3 1.7 4.8 2.9 4 2.6 8 5.7 12.5 3 11-6.4 22.3-12.8 33.9-19.3a976 976 0 0 0 14.4-8.2c30.8-17.8 56.2-32.3 76.2-43.6 22.2-12.5 41.8-23.8 58.7-34 5.5-3.3 11.4-4.8 17.9-4.4 5.5.3 10.1 1.8 13.9 4.7 4.6 3.5 8.1 7.7 10.5 12.7 4.6 9.7 4.4 19.3-.7 28.7-2.5 4.7-6 8.3-10.4 11q-21.9 13.2-38.4 23.1c-4.1 2.5-11.7 6.1-17.7 10.7-6.2 4.7-8.4 11.4-5.9 19.1 2.1 6.4 6.5 9.8 12.6 12.5 4.3 2 8.2 1.7 12.5-.1 2.8-1.1 6.8-3.2 11.8-6.2 5.3-3.2 11.1-4.4 17.4-3.4 5.2.8 10.1 3.2 14.6 7.1 7.4 6.6 10.8 15.3 10 26.2M33 162.7c-4.9-6.9-6.7-14.6-5.3-23.1.6-3.8 2.1-7.8 4.5-11.4 3.2-4.7 6.9-8.2 11-10.7 19.5-11.6 30.6-18.1 33.4-19.7 12-6.9 24.1-13.7 36.2-20.4 3.1-1.7 7.9-4.5 14.3-8.3 15.7-9.2 31.7-18.1 47.5-27.2 4.2-2.4 9.6-5.5 16.4-9.3 4.9-2.7 20.1-11.5 45.5-26.2 3.8-2.2 6.7-3.7 8.8-4.4 7-2.4 14.1-2.9 21.4-.7 9.6 2.8 17.8 8.8 26.3 13.7 35.2 20.2 54.8 31.5 58.8 33.8 21.9 12.6 35.9 20.7 42.1 24.2 14.6 8.4 23.1 13.2 25.5 14.6 5 3 22.4 13.1 52 30.5 2.9 1.7 5.6 3.7 8.2 6.2 8.1 7.5 10.5 19.1 7.9 29.6q-2.4 10.05-10.8 16.2c-4.4 3.3-9.4 5.3-15.1 6.1-4.9.6-9.7.3-14.3-1.1-2.9-.8-7.1-2.8-12.7-6.1-16.4-9.4-27.3-15.7-32.9-18.7q-16.95-9.3-37.2-21c-5.6-3.2-10.3-5.9-14.3-8.2q-55.35-31.35-63.9-36.3c-11.7-6.8-19.5-11.2-23.4-13.3-.8-.3-1.7-.7-3-1.1-.2-.1-.5-.2-.9-.1-3.3 1.7-6.7 3.3-9.9 5.1-27.3 15.8-54.6 31.1-81.8 45.9-1.8 1-3.7 2.4-5.5 4.3-5.4 5.4-7 12.1-4.7 19.7 2.2 7.4 7.5 14.7 14.9 17.2 3.8 1.2 7.2 1.4 10.2.3 1.9-.6 4.7-2 8.5-4.1 19.6-10.9 38.9-22 57.7-33.3 1.2-.7 3.3-1.8 6.3-3.2 1.8-.8 3-.7 4.8.4 4.2 2.4 14 8.1 29.3 17q6.6 3.75 14.4 8.1c24 13 47.8 26.5 71.4 40.4 6.7 3.2 13 7.1 19 11.5.8.3 1.4.8 2 1.4.2.2.2.4-.1.5-2.2 1.2-4.4 2.3-6.5 3.8-3.2 2.4-5.9 4.2-7.9 5.4-32.4 19-64.6 37.3-96.7 55-8.6 4.7-14.5 8.8-22.8 13.8-1.9 1.1-5.1 3-7.1 2.4q-1.2-.45-2.1-.9c-9.8-5.7-16.4-9.5-19.8-11.2-11.5-6.1-22.7-12.4-33.5-18.7-4.3-2.5-8.7-4.9-13.3-7.3-5.8-3-10.3-5.4-13.4-7.2-5.5-3.2-12.8-7.3-21.6-12.2-15.1-8.2-30.5-17.3-44.7-25.1-3.9-2.1-8.6-4.9-14.3-8.3q-5.1-3-25.8-15.3c-2.6-1.6-5.5-2.2-8.6-2-4.2.3-7.1.8-9.5 0-2.1-.7-4.9-2.2-8.3-4.5-2.5-1.7-4.7-3.8-6.6-6.5m208.7 38.7c0 .8.6 1.5 1.8 2.3 2.2 1.3 4.7 2.7 7.5 4.1 4.2 2.1 5.3 5.6 10.4 2.3 3.8-2.5 7.7-4.9 11.6-7.1.2-.1.3-.4.2-.6v-.1c-2.4-3-5.2-5.5-8.3-7.7-3.8-2.6-7.4-3.4-11.4-1.3-3.3 1.8-6.3 3.4-9 5-.8.5-1.6 1.2-2.4 2.3-.3.3-.3.5-.4.8"/></svg>