<?xml version="1.0" encoding="utf-8"?>
<!-- Generator: Adobe Illustrator 28.2.0, SVG Export Plug-In . SVG Version: 6.00 Build 0)  -->
<svg version="1.1" id="Layer_1" xmlns="http://www.w3.org/2000/svg" xmlns:xlink="http://www.w3.org/1999/xlink" x="0px" y="0px"
	 viewBox="0 0 512 512" style="enable-background:new 0 0 512 512;" xml:space="preserve">
<path d="M493.8,367.6c-0.7,9.7-8.7,18.6-16.7,23.9c-1.8,1.1-5.6,3.3-11.5,6.6c-10.9,6.3-21.5,12.6-32.7,18.6c-3.7,2-6.4,3.5-8.3,4.7
	c-3.4,2.1-6.1,3.7-8.2,4.8c-14.5,7.8-29.2,16.1-43.9,24.8c-4.7,2.8-9.5,5.5-14.3,8.2c-12.8,7.1-25.4,14.4-37.8,21.9
	c-5.2,3.2-11.8,6.6-16.3,9.3c-11.7,7-20.4,12.1-26.1,15.3c-12.5,7.1-24.9,8-37.1,2.7c-1.5-0.6-6.3-3.3-14.5-7.9
	c-6.1-3.4-9.7-5.5-10.9-6.3c-3.7-2.3-7.4-4.4-10.9-6.3c-3.3-1.8-8-4.5-14.2-8.1c-0.9-0.5-3.9-2.2-9-5c-3.9-2.1-8.1-4.9-11.8-7
	c-7.9-4.3-17.9-9.8-29.9-16.5c-3.1-1.7-7.8-4.5-14.2-8.2c-4.1-2.4-8.2-4.7-12.1-6.8c-12.8-6.9-25.8-14.5-38-21.1
	c-15-8.1-26.7-14.6-35.1-19.4c-8.7-4.9-16.9-11.5-20.3-21.2c-3.6-10-0.9-21.3,6.5-29c5.3-5.5,12.1-8.6,20.4-9.3
	c5.3-0.4,10.2,0.7,14.8,3.3c3.8,2.2,16.4,9.4,37.8,21.5c6.9,3.9,14.6,8.2,23.1,12.8c6,3.2,10.8,5.9,14.5,8
	c37.2,21,76.9,42.9,119.1,65.7c0.3,0.2,0.8,0.2,1.1,0c11.6-6.3,23.6-13.8,35.3-20.4c14.8-8.4,24.1-13.6,27.9-15.8
	c2.8-1.6,7.6-4.3,14.4-8c5.4-3,10.5-5.9,15.3-8.8c2.3-1.6,4.6-3.5,6.9-5.9c7.6-10.4,2.9-22.4-6.9-29.2c-2.4-1.6-5.5-2.6-9.2-3
	c-3-0.3-5.9,0.1-8.7,1.1c-1,0.3-3.5,1.7-7.6,4C303,374,281.6,386.8,260.5,400c-0.5,0.3-1.2,0.3-1.7,0c-9.8-5.6-17.7-9.8-25.9-14.6
	c-9.8-5.8-20.2-11-30.8-17.1c-7.7-4.5-14.7-8.3-21-11.6c-6.6-3.5-14.4-8-22.1-12.1c-3.6-1.9-6.6-3.5-8.9-4.8
	c-50.1-28.1-78.8-44.2-86-48.3c-5.2-3-13.5-7.7-25.1-14.2c-4.7-2.6-8.7-6.4-11.3-11.2c-5.8-10.8-5.4-21.8,1.1-33.1
	c4.7-8.1,14.2-13.6,23.6-12.9c4.1,0.3,8,1.2,11.5,2.7c2.8,1.2,6.2,3.1,10.2,5.8c3.6,2.4,9,6,14,8.6c0.1,0,6.5,3.6,19.5,10.8
	c3.5,2,8.3,4.7,14.3,8.2c6.9,4,13.9,8,21.2,12c6.3,3.5,18.1,10.2,35.2,20c2.8,1.6,7.3,4.1,13.4,7.4c2.6,1.4,5.6,3.1,9,5
	c2.4,1.4,5.4,3,8.9,4.9c6.1,3.3,18,9.9,35.6,19.6c1.4,0.8,3,1.7,4.8,2.9c4,2.6,8,5.7,12.5,3c11-6.4,22.3-12.8,33.9-19.3
	c3.4-1.9,8.2-4.6,14.4-8.2c30.8-17.8,56.2-32.3,76.2-43.6c22.2-12.5,41.8-23.8,58.7-34c5.5-3.3,11.4-4.8,17.9-4.4
	c5.5,0.3,10.1,1.8,13.9,4.7c4.6,3.5,8.1,7.7,10.5,12.7c4.6,9.7,4.4,19.3-0.7,28.7c-2.5,4.7-6,8.3-10.4,11
	c-14.6,8.8-27.4,16.5-38.4,23.1c-4.1,2.5-11.7,6.1-17.7,10.7c-6.2,4.7-8.4,11.4-5.9,19.1c2.1,6.4,6.5,9.8,12.6,12.5
	c4.3,2,8.2,1.7,12.5-0.1c2.8-1.1,6.8-3.2,11.8-6.2c5.3-3.2,11.1-4.4,17.4-3.4c5.2,0.8,10.1,3.2,14.6,7.1
	C491.2,348,494.6,356.7,493.8,367.6z M33,162.7c-4.9-6.9-6.7-14.6-5.3-23.1c0.6-3.8,2.1-7.8,4.5-11.4c3.2-4.7,6.9-8.2,11-10.7
	c19.5-11.6,30.6-18.1,33.4-19.7c12-6.9,24.1-13.7,36.2-20.4c3.1-1.7,7.9-4.5,14.3-8.3c15.7-9.2,31.7-18.1,47.5-27.2
	c4.2-2.4,9.6-5.5,16.4-9.3c4.9-2.7,20.1-11.5,45.5-26.2c3.8-2.2,6.7-3.7,8.8-4.4c7-2.4,14.1-2.9,21.4-0.7
	c9.6,2.8,17.8,8.8,26.3,13.7c35.2,20.2,54.8,31.5,58.8,33.8c21.9,12.6,35.9,20.7,42.1,24.2c14.6,8.4,23.1,13.2,25.5,14.6
	c5,3,22.4,13.1,52,30.5c2.9,1.7,5.6,3.7,8.2,6.2c8.1,7.5,10.5,19.1,7.9,29.6c-1.6,6.7-5.2,12.1-10.8,16.2c-4.4,3.3-9.4,5.3-15.1,6.1
	c-4.9,0.6-9.7,0.3-14.3-1.1c-2.9-0.8-7.1-2.8-12.7-6.1c-16.4-9.4-27.3-15.7-32.9-18.7c-11.3-6.2-23.7-13.2-37.2-21
	c-5.6-3.2-10.3-5.9-14.3-8.2c-36.9-20.9-58.2-33-63.9-36.3c-11.7-6.8-19.5-11.2-23.4-13.3c-0.8-0.3-1.7-0.7-3-1.1
	c-0.2-0.1-0.5-0.2-0.9-0.1c-3.3,1.7-6.7,3.3-9.9,5.1c-27.3,15.8-54.6,31.1-81.8,45.9c-1.8,1-3.7,2.4-5.5,4.3
	c-5.4,5.4-7,12.1-4.7,19.7c2.2,7.4,7.5,14.7,14.9,17.2c3.8,1.2,7.2,1.4,10.2,0.3c1.9-0.6,4.7-2,8.5-4.1c19.6-10.9,38.9-22,57.7-33.3
	c1.2-0.7,3.3-1.8,6.3-3.2c1.8-0.8,3-0.7,4.8,0.4c4.2,2.4,14,8.1,29.3,17c4.4,2.5,9.2,5.2,14.4,8.1c24,13,47.8,26.5,71.4,40.4
	c6.7,3.2,13,7.1,19,11.5c0.8,0.3,1.4,0.8,2,1.4c0.2,0.2,0.2,0.4-0.1,0.5c-2.2,1.2-4.4,2.3-6.5,3.8c-3.2,2.4-5.9,4.2-7.9,5.4
	c-32.4,19-64.6,37.3-96.7,55c-8.6,4.7-14.5,8.8-22.8,13.8c-1.9,1.1-5.1,3-7.1,2.4c-0.8-0.3-1.5-0.6-2.1-0.9
	c-9.8-5.7-16.4-9.5-19.8-11.2c-11.5-6.1-22.7-12.4-33.5-18.7c-4.3-2.5-8.7-4.9-13.3-7.3c-5.8-3-10.3-5.4-13.4-7.2
	c-5.5-3.2-12.8-7.3-21.6-12.2c-15.1-8.2-30.5-17.3-44.7-25.1c-3.9-2.1-8.6-4.9-14.3-8.3c-3.4-2-12-7.1-25.8-15.3
	c-2.6-1.6-5.5-2.2-8.6-2c-4.2,0.3-7.1,0.8-9.5,0c-2.1-0.7-4.9-2.2-8.3-4.5C37.1,167.5,34.9,165.4,33,162.7z M241.7,201.4
	c0,0.8,0.6,1.5,1.8,2.3c2.2,1.3,4.7,2.7,7.5,4.1c4.2,2.1,5.3,5.6,10.4,2.3c3.8-2.5,7.7-4.9,11.6-7.1c0.2-0.1,0.3-0.4,0.2-0.6
	c0,0,0,0,0-0.1c-2.4-3-5.2-5.5-8.3-7.7c-3.8-2.6-7.4-3.4-11.4-1.3c-3.3,1.8-6.3,3.4-9,5c-0.8,0.5-1.6,1.2-2.4,2.3
	C241.8,200.9,241.8,201.1,241.7,201.4z"/>
</svg>
