<?xml version="1.0" encoding="utf-8"?>
<!-- Generator: Adobe Illustrator 28.2.0, SVG Export Plug-In . SVG Version: 6.00 Build 0)  -->
<svg version="1.1" id="Layer_1" xmlns="http://www.w3.org/2000/svg" xmlns:xlink="http://www.w3.org/1999/xlink" x="0px" y="0px"
	 viewBox="0 0 512 512" style="enable-background:new 0 0 512 512;" xml:space="preserve">
<g id="Layer_1_00000172428918187777326130000005058241994825143209_">
	<g>
		<path d="M149,440.5c6.8,0,361.7-246.2,361.7-246.2L376.2,440.5H149z"/>
		<path d="M376.2,441.8H149c-0.7,0-1.3-0.6-1.3-1.3c0-0.7,0.5-1.2,1.2-1.3c9.1-2.7,240-162,361-245.9c0.5-0.4,1.2-0.3,1.6,0.1
			c0.5,0.4,0.6,1.1,0.3,1.6L377.4,441.1C377.1,441.5,376.7,441.8,376.2,441.8z M149,439.1C149,439.1,149,439.1,149,439.1
			C149,439.1,149,439.1,149,439.1z M154.4,439.1h221l131.4-240.5c-19.4,13.4-96.6,67-173.6,119.9
			C203.7,407.5,165.9,432.2,154.4,439.1z"/>
	</g>
	<g>
		<polygon points="138.8,81.1 139.3,264.6 4.5,165.3 		"/>
		<path d="M139.3,265.9c-0.3,0-0.6-0.1-0.8-0.3L3.7,166.4c-0.4-0.3-0.6-0.7-0.5-1.1c0-0.4,0.2-0.8,0.6-1.1L138.1,80
			c0.4-0.3,0.9-0.3,1.3,0c0.4,0.2,0.7,0.7,0.7,1.2l0.5,183.5c0,0.5-0.3,1-0.7,1.2C139.7,265.9,139.5,265.9,139.3,265.9z M6.9,165.4
			L137.9,262l-0.5-178.5L6.9,165.4z"/>
	</g>
	<g>
		<path d="M252.4,359.8L1.3,174.9l141.3,257.6l0.7-0.2C150.1,429.1,195.7,398.5,252.4,359.8z"/>
		<path d="M142.6,433.8c-0.5,0-0.9-0.3-1.2-0.7L0.2,175.6c-0.3-0.5-0.2-1.2,0.3-1.6c0.5-0.4,1.2-0.4,1.7-0.1l251,184.9
			c0.3,0.3,0.5,0.7,0.5,1.1c0,0.4-0.2,0.8-0.6,1.1c-66.4,45.3-103.2,69.7-109.2,72.5c0,0-0.1,0-0.1,0.1l-0.7,0.2
			C142.9,433.8,142.8,433.8,142.6,433.8z M5.4,179.6l137.9,251.3c5-2.5,28-17.3,106.8-71L5.4,179.6z"/>
	</g>
	<g>
		<polygon points="1.3,71.5 1.3,155.7 1.3,155.7 135.6,71.5 		"/>
		<path d="M1.3,157.1c-0.2,0-0.4-0.1-0.6-0.2c-0.4-0.2-0.7-0.7-0.7-1.2V71.5c0-0.7,0.6-1.3,1.3-1.3h134.2c0.6,0,1.1,0.4,1.3,1
			c0.2,0.6-0.1,1.2-0.6,1.5L2,156.9C1.8,157,1.6,157.1,1.3,157.1z M2.7,72.9v80.5l128.3-80.5H2.7z"/>
	</g>
	<g>
		<polygon points="368.7,280 368.7,107.8 504.3,186.3 		"/>
		<path d="M368.7,281.4c-0.2,0-0.4-0.1-0.6-0.2c-0.4-0.2-0.7-0.7-0.7-1.2V107.8c0-0.5,0.3-0.9,0.7-1.2c0.4-0.2,0.9-0.2,1.3,0
			L505,185.1c0.4,0.2,0.6,0.6,0.7,1.1c0,0.5-0.2,0.9-0.6,1.1l-135.6,93.8C369.2,281.3,368.9,281.4,368.7,281.4z M370,110.1v167.4
			l131.8-91.1L370,110.1z"/>
	</g>
</g>
</svg>
