<svg xmlns="http://www.w3.org/2000/svg" xml:space="preserve" viewBox="0 0 512 512"><path d="M511.8 195 377.4 441.1c-.3.4-.7.7-1.2.7H149c-.7 0-1.3-.6-1.3-1.3s.5-1.2 1.2-1.3c9.1-2.7 240-162 361-245.9.5-.4 1.2-.3 1.6.1.5.4.6 1.1.3 1.6M3.2 165.3c-.1.4.1.8.5 1.1l134.8 99.2c.2.2.5.3.8.3h.6c.4-.2.7-.7.7-1.2l-.5-183.5c0-.5-.3-1-.7-1.2-.4-.3-.9-.3-1.3 0L3.8 164.2c-.4.3-.6.7-.6 1.1m250.5 194.6c0-.4-.2-.8-.5-1.1L2.2 173.9c-.5-.3-1.2-.3-1.7.1s-.6 1.1-.3 1.6l141.2 257.5c.3.4.7.7 1.2.7h.5l.7-.2c0-.1.1-.1.1-.1 6-2.8 42.8-27.2 109.2-72.5.4-.3.6-.7.6-1.1m-253-203c.2.1.4.2.6.2.3 0 .5-.1.7-.2l134.2-84.2c.5-.3.8-.9.6-1.5s-.7-1-1.3-1H1.3c-.7 0-1.3.6-1.3 1.3v84.2c0 .5.3 1 .7 1.2m367.4 124.3c.2.1.4.2.6.2s.5-.1.8-.3l135.6-93.8c.4-.2.6-.6.6-1.1-.1-.5-.3-.9-.7-1.1l-135.6-78.5c-.4-.2-.9-.2-1.3 0-.4.3-.7.7-.7 1.2V280c0 .5.3 1 .7 1.2"/></svg>