<svg xmlns="http://www.w3.org/2000/svg" xml:space="preserve" viewBox="0 0 512 512"><path d="M113.6 65.4c184.6 0 334.8 150.8 334.8 336.1 0 37.6-6.3 75-18.6 110.5H512V0H0v85.4l.4-.1C36.7 72.1 75 65.4 113.6 65.4M0 224.7c20.8-29.6 23.8-63.6 5.5-80.2-1.7-1.5-3.6-2.9-5.5-4.1zm107.3-107.9C88.8 95.7 58.2 88.5 22.6 93.6c-1 .1-2 .3-2.9.4-2.7.5-5.5 1-8.2 1.6C6 96.9 2.2 98.1 0 99v10.7c3.5-2.8 7.1-5.4 10.8-7.9 6.8-1.5 13.7-2.5 20.6-2.9-11 6.3-21.5 13.4-31.4 21.2v8.2l.3.2S26.4 107.8 47.1 99c5 .4 9.8 1.1 14.3 2.1-31 13.1-53.9 29.4-55.4 30.6 3.2 1.9 6.1 4.2 6.5 4.6.4-.2 30.4-19 63.5-30.3 4.5 2.1 8.8 4.6 12.6 7.5-36 10.1-70.6 28.2-70.6 28.2 2 2.3 3.7 4.7 5.2 7.3l.6-.2c36.8-15.8 76-23.9 76-23.9 3.1 4.2 5.6 8.9 7.5 14 2.9 7.7-35.1 4-80.3 18.5 2 6.3 2.5 10.9 2.5 11 0 0 42.6-9.5 81.9-10.6q.75 10.35-.6 20.7c-23.3-1.2-78.7 1.7-80.9 1.9 0 0-.2 8-2.3 15.5 0 0 40.5 1.3 77.3 8.2-2.9 8.9-6.5 17.6-10.8 26-24.6-7.4-61.8-16.3-71.6-18.6-2.7 6.5-5.9 12.8-9.7 18.8 0 0 45.5 19.9 63 29.6-7.4 11.2-22.5 27.1-22.5 27.1-4.4-3.2-8.5-6.3-12.4-9.2L0 249.2v37.7l23.6 27.6c-7.6 6-15.4 11.7-23.6 17V354l.9-.6q16.65-11.4 31.8-24.6c81.5-70.8 114.8-165.7 74.6-212m100.3 4c-38.7-52-99.2-44.6-117.2-42.1-19.8 2.8-34.8 7.1-34.8 7.1 4.4.4 10.5 1.2 14.8 2.1 3.2-.7 31-7.1 51.3-4.4h.1c-14.9 1.6-35.1 7.8-37.3 8.4h.1c.7.2 6.6 2 14.1 6.4 2.2-.6 29.7-7.9 56-8.4 0 0 9.7 4.3 19 10.7-33.9-.1-62 6.4-62.8 6.6 4 3.5 7.9 7.8 11.5 12.9 37.2-5.6 69.3-3.2 69.3-3.2s4.4 5.3 6.3 8.2c2.5 3.6 5 8.1 7 12-38-4.4-74.3-1.3-74.3-1.3 2.5 6.5 4.2 13.4 5.1 20.6 4.2 0 36.4 0 77.3 7.4 1.3 9.4 1.4 19.4.4 30-7-1.8-40.6-10.2-77.2-13.8-.7 9.2-2.5 18.7-5.2 28.5 4.1 1 49.4 11.8 74.8 22-4 12.9-9 25.5-15.1 37.5-20.4-10.1-70.6-29.7-70.6-29.7q-7.95 17.55-18.3 33.9s43 24.5 63.7 38.1c-9.9 14-20.6 27.4-32.3 40-15-13.5-52.6-42.5-55.4-44.7C65.8 320 50.5 335.2 46 339.7l45.1 51.7-1.3 1.1c-9.4 7.7-19.1 14.9-29.1 21.8-7.7 5.2-14.1 9.3-16.3 10.7-.5-.8-30-47.9-34.5-55.4-3.2 2.4-6.5 4.7-9.8 7v96.8c5.3-2.6 10.6-5.2 15.9-8 25.4-12.5 50-28.4 73-46.7 16-12.7 31.2-26.5 45.3-41.2 17.4-17.8 33.1-37.1 46.9-57.7 49.7-73.3 63-149.8 26.4-199m78.9 17.6c-2.6-3.6-5.4-6.9-8.6-10-2.7-2.6-5.5-5.1-8.5-7.3-32.1-24.2-91.1-36.3-91.1-36.3 5.6 3 10.3 6.1 10.3 6.1.3.1 24.1 6 45.2 16.4 0 0-19.2-4.4-31.5-6.1 5.1 4.5 9.9 9.6 14.2 15 0 0 39.1 7.1 56.3 16.6 0 0 8.2 8.5 15 23.3-26.8-10.9-57.2-16.6-57.2-16.6 4 9 6.9 18.7 8.7 28.8 0 0 33.4 8.2 58.5 20.2 2.2 11.9 3 24.2 2.5 36.7-19.1-9.4-38.8-17.5-59.1-24.2-.7 13.4-2.7 26.8-6.1 39.8 0 0 40.5 18.1 58.7 29-4.1 16.1-9.6 31.8-16.4 47-27.7-18-57-34-57-34-7.4 17.7-25.5 46.7-25.5 46.7.4.3 30.6 21 53.7 39.4-11.7 17.6-24.5 34.3-38.5 50-4.9-4.7-49.3-44.1-49.3-44.1-13.9 16-28.8 31.2-44.7 45.2l42.9 48.5c-27.8 22.9-55.5 40.2-55.5 40.2L67.6 458S42.4 477.1 0 497.2V512h139.5c155.6-117.8 210.9-286.2 147-373.6M276.6 512c36.3-40.6 67.3-88.5 85.9-139.7 16.1-44.4 24.9-98.7 10.6-146.9-1-3.2-2-6.4-3.3-9.6-4.6-11.8-10.5-22.1-16.9-30.2-17.4-19.5-37.1-36.7-58.6-51.5 3.2 4.1 6.1 8.3 8.6 12.6 0 0 26.3 19.5 41.5 39.3-19.6-13.9-30.6-19.6-32.1-20.3l-.2-.1c7.4 18.3 9.7 33.5 9.7 33.5s23.2 12.1 44.1 30.2c2.8 13.4 4.1 27.1 3.9 40.8-21-18.5-45.4-33-45.4-33-.5 15.8-2.6 31.6-6.1 47 0 0 23 14.6 45.4 35 0 0-6.4 28.9-16.8 51.7-14.1-13-28.8-25.3-44.1-36.8 0 0-10.7 27.8-28 55.8 21.5 18.7 41.8 38.2 41.8 38.2-12.4 19.3-26.3 37.6-41.5 54.8l-38.5-38.4c-15.7 19.4-32.7 37.5-51 54.4l11.8 13.1h79.2zm68.6 0h19.2c54.8-80.9 57.5-152.6 57.5-166.3 0-26-4.4-49.8-11.6-68.7 0 0-11.4-29.3-29.1-55.4 1.9 5.8 5.6 17.7 7.7 28.2l.4 1.9c3.5 5.8 19.2 33.5 21.3 64v.1s-11.1-15.6-19.3-25.4c-.4 16.7-2.4 33.4-6 49.7 0 0 16.5 19.1 23.8 31.4 0 0-5 26.8-15.8 52.5-10.9-15.9-24.9-31.3-24.9-31.3-8.4 20.5-18.4 40.4-30 59.3 0 0 20.9 24.4 25.4 31.4-5.7 9.7-12 19.3-18.6 28.6m36.5 0c10.2-19 21.4-42.7 29-62.8.3.6 4 10.6 6.8 20.9 5.9-20.9 10-42.3 12.3-63.9-.7-2.8-2.3-7.5-3.1-10.3 0 0 3.7-18.7 5.2-40 2 14.6 3 29.5 3 44.5 0 26-3.1 51.6-9 76.2-3 11.9-6.6 23.7-10.8 35.3h-33.4z" style="fill-rule:evenodd;clip-rule:evenodd;fill:#fff"/></svg>