<?xml version="1.0" encoding="utf-8"?>
<!-- Generator: Adobe Illustrator 28.2.0, SVG Export Plug-In . SVG Version: 6.00 Build 0)  -->
<svg version="1.1" id="Layer_1" xmlns="http://www.w3.org/2000/svg" xmlns:xlink="http://www.w3.org/1999/xlink" x="0px" y="0px"
	 viewBox="0 0 512 512" style="enable-background:new 0 0 512 512;" xml:space="preserve">
<style type="text/css">
	.st0{fill:#FFFFFF;}
	.st1{fill-rule:evenodd;clip-rule:evenodd;fill:#1414D2;}
</style>
<rect class="st0" width="512" height="512"/>
<path class="st1" d="M113.6,65.4c184.6,0,334.8,150.8,334.8,336.1c0,37.6-6.3,75-18.6,110.5H512V0H0v85.4l0.4-0.1
	C36.7,72.1,75,65.4,113.6,65.4 M0,224.7c20.8-29.6,23.8-63.6,5.5-80.2c-1.7-1.5-3.6-2.9-5.5-4.1V224.7z M107.3,116.8
	C88.8,95.7,58.2,88.5,22.6,93.6c-1,0.1-2,0.3-2.9,0.4c-2.7,0.5-5.5,1-8.2,1.6C6,96.9,2.2,98.1,0,99v10.7c3.5-2.8,7.1-5.4,10.8-7.9
	c6.8-1.5,13.7-2.5,20.6-2.9c-11,6.3-21.5,13.4-31.4,21.2v8.2l0.3,0.2c0,0,26.1-20.7,46.8-29.5c5,0.4,9.8,1.1,14.3,2.1
	c-31,13.1-53.9,29.4-55.4,30.6c3.2,1.9,6.1,4.2,6.5,4.6c0.4-0.2,30.4-19,63.5-30.3c4.5,2.1,8.8,4.6,12.6,7.5
	c-36,10.1-70.6,28.2-70.6,28.2c2,2.3,3.7,4.7,5.2,7.3l0.6-0.2c36.8-15.8,76-23.9,76-23.9c3.1,4.2,5.6,8.9,7.5,14
	c2.9,7.7-35.1,4-80.3,18.5c2,6.3,2.5,10.9,2.5,11c0,0,42.6-9.5,81.9-10.6c0.5,6.9,0.3,13.8-0.6,20.7c-23.3-1.2-78.7,1.7-80.9,1.9
	c0,0-0.2,8-2.3,15.5c0,0,40.5,1.3,77.3,8.2c-2.9,8.9-6.5,17.6-10.8,26c-24.6-7.4-61.8-16.3-71.6-18.6c-2.7,6.5-5.9,12.8-9.7,18.8
	c0,0,45.5,19.9,63,29.6h0v0C68.4,271.1,53.3,287,53.3,287c-4.4-3.2-8.5-6.3-12.4-9.2L0,249.2v37.7l23.6,27.6
	C16,320.5,8.2,326.2,0,331.5V354l0.9-0.6c11.1-7.6,21.7-15.8,31.8-24.6C114.2,258,147.5,163.1,107.3,116.8 M207.6,120.8
	c-38.7-52-99.2-44.6-117.2-42.1c-19.8,2.8-34.8,7.1-34.8,7.1c4.4,0.4,10.5,1.2,14.8,2.1c3.2-0.7,31-7.1,51.3-4.4h0.1
	c-14.9,1.6-35.1,7.8-37.3,8.4l0,0l0.1,0c0.7,0.2,6.6,2,14.1,6.4c2.2-0.6,29.7-7.9,56-8.4c0,0,9.7,4.3,19,10.7
	c-33.9-0.1-62,6.4-62.8,6.6c4,3.5,7.9,7.8,11.5,12.9c37.2-5.6,69.3-3.2,69.3-3.2s4.4,5.3,6.3,8.2c2.5,3.6,5,8.1,7,12
	c-38-4.4-74.3-1.3-74.3-1.3c2.5,6.5,4.2,13.4,5.1,20.6c4.2,0,36.4,0,77.3,7.4c1.3,9.4,1.4,19.4,0.4,30c-7-1.8-40.6-10.2-77.2-13.8
	c-0.7,9.2-2.5,18.7-5.2,28.5c4.1,1,49.4,11.8,74.8,22c-4,12.9-9,25.5-15.1,37.5c-20.4-10.1-70.6-29.7-70.6-29.7
	c-5.3,11.7-11.4,23-18.3,33.9c0,0,43,24.5,63.7,38.1c-9.9,14-20.6,27.4-32.3,40c-15-13.5-52.6-42.5-55.4-44.7
	c-12.1,14.4-27.4,29.6-31.9,34.1l45.1,51.7l-1.3,1.1c-9.4,7.7-19.1,14.9-29.1,21.8c-7.7,5.2-14.1,9.3-16.3,10.7
	c-0.5-0.8-30-47.9-34.5-55.4c-3.2,2.4-6.5,4.7-9.8,7v96.8c5.3-2.6,10.6-5.2,15.9-8c25.4-12.5,50-28.4,73-46.7
	c16-12.7,31.2-26.5,45.3-41.2c17.4-17.8,33.1-37.1,46.9-57.7C230.9,246.5,244.2,170,207.6,120.8 M286.5,138.4
	c-2.6-3.6-5.4-6.9-8.6-10c-2.7-2.6-5.5-5.1-8.5-7.3c-32.1-24.2-91.1-36.3-91.1-36.3c5.6,3,10.3,6.1,10.3,6.1
	c0.3,0.1,24.1,6,45.2,16.4c0,0-19.2-4.4-31.5-6.1c5.1,4.5,9.9,9.6,14.2,15c0,0,39.1,7.1,56.3,16.6c0,0,8.2,8.5,15,23.3
	c-26.8-10.9-57.2-16.6-57.2-16.6c4,9,6.9,18.7,8.7,28.8c0,0,33.4,8.2,58.5,20.2c2.2,11.9,3,24.2,2.5,36.7
	c-19.1-9.4-38.8-17.5-59.1-24.2c-0.7,13.4-2.7,26.8-6.1,39.8c0,0,40.5,18.1,58.7,29c-4.1,16.1-9.6,31.8-16.4,47
	c-27.7-18-57-34-57-34c-7.4,17.7-25.5,46.7-25.5,46.7l0,0c0.4,0.3,30.6,21,53.7,39.4c-11.7,17.6-24.5,34.3-38.5,50
	c-4.9-4.7-49.3-44.1-49.3-44.1c-13.9,16-28.8,31.2-44.7,45.2l42.9,48.5c-27.8,22.9-55.5,40.2-55.5,40.2L67.6,458
	c0,0-25.2,19.1-67.6,39.2V512h139.5C295.1,394.2,350.4,225.8,286.5,138.4 M276.6,512c36.3-40.6,67.3-88.5,85.9-139.7
	c16.1-44.4,24.9-98.7,10.6-146.9c-1-3.2-2-6.4-3.3-9.6c-4.6-11.8-10.5-22.1-16.9-30.2c-17.4-19.5-37.1-36.7-58.6-51.5
	c3.2,4.1,6.1,8.3,8.6,12.6c0,0,26.3,19.5,41.5,39.3c-19.6-13.9-30.6-19.6-32.1-20.3l-0.2-0.1c7.4,18.3,9.7,33.5,9.7,33.5
	c0,0,23.2,12.1,44.1,30.2c2.8,13.4,4.1,27.1,3.9,40.8c-21-18.5-45.4-33-45.4-33c-0.5,15.8-2.6,31.6-6.1,47c0,0,23,14.6,45.4,35
	c0,0-6.4,28.9-16.8,51.7c-14.1-13-28.8-25.3-44.1-36.8c0,0-10.7,27.8-28,55.8c21.5,18.7,41.8,38.2,41.8,38.2
	c-12.4,19.3-26.3,37.6-41.5,54.8l-38.5-38.4c-15.7,19.4-32.7,37.5-51,54.4l11.8,13.1H276.6z M345.2,512h19.2
	c54.8-80.9,57.5-152.6,57.5-166.3c0-26-4.4-49.8-11.6-68.7c0,0-11.4-29.3-29.1-55.4c1.9,5.8,5.6,17.7,7.7,28.2l0.4,1.9
	c3.5,5.8,19.2,33.5,21.3,64v0.1c0,0-11.1-15.6-19.3-25.4c-0.4,16.7-2.4,33.4-6,49.7c0,0,16.5,19.1,23.8,31.4c0,0-5,26.8-15.8,52.5
	c-10.9-15.9-24.9-31.3-24.9-31.3c-8.4,20.5-18.4,40.4-30,59.3c0,0,20.9,24.4,25.4,31.4C358.1,493.1,351.8,502.7,345.2,512L345.2,512
	z M381.7,512c10.2-19,21.4-42.7,29-62.8v0c0.3,0.6,4,10.6,6.8,20.9c5.9-20.9,10-42.3,12.3-63.9c-0.7-2.8-2.3-7.5-3.1-10.3
	c0,0,3.7-18.7,5.2-40c2,14.6,3,29.5,3,44.5c0,26-3.1,51.6-9,76.2c-3,11.9-6.6,23.7-10.8,35.3H381.7L381.7,512z"/>
</svg>
