<svg xmlns="http://www.w3.org/2000/svg" xml:space="preserve" viewBox="0 0 512 512"><path d="M415.6 169.7c36-19.1 35.5-70.7-.8-89.2L257.8.8 101.6 80.5c-36.2 18.5-36.6 70-.8 89.1l133.5 71.1c7.4 3.9 15.5 5.9 23.6 5.9s16.2-1.9 23.5-5.8zm-157.7 36.2c-1.6 0-3.1-.4-4.5-1.1l-133.5-71.1c-4.2-2.3-5.1-5.9-5.1-8.6s1-6.3 5.2-8.4l137.9-70.3 138.5 70.3c4.3 2.2 5.2 5.8 5.2 8.5s-.8 6.3-5.1 8.6l-134.2 71.1c-1.4.7-2.9 1.1-4.4 1m253.2 25.4c-.1-29.1-24-50.1-50.3-50.1-7.7 0-15.7 1.8-23.3 5.8l-139.2 73.1c-16.5 8.7-26.9 25.8-26.9 44.5v155.6c0 29.2 24 50.3 50.3 50.3 8 0 16.2-1.9 24-6.2L512 413.7zM325.8 467.8c-1.4.7-2.7 1.1-4 1.1-2.7 0-8.6-2.2-8.6-8.6V304.7c0-3.2 1.7-6.1 4.6-7.6L456.9 224c1.3-.7 2.6-1.1 3.9-1.1 3.4 0 8.5 2.7 8.6 8.6l.8 157.4zm-84.5-158.3v153.8c0 17-8.8 32.5-23.4 41.1-7.6 4.5-16 6.8-24.4 6.8-7.8 0-15.7-2-22.9-5.9L0 412.2l.4-55.4c.1-11.5 9.4-20.7 20.9-20.7h.1c11.5.1 20.8 9.5 20.7 21l-.2 30.5 148.6 81.1c2.7 1.4 4.9.6 6-.1s3-2.2 3-5.3V309.5c0-7.7-4.3-14.8-11.1-18.4L72.9 230.4 49.7 218c-2.2-1.1-4-.5-5.2.2s-2.6 2.1-2.6 4.6V259c0 11.5-9.3 20.9-20.9 20.9S.1 270.6.1 259v-36.2c0-16.6 8.4-31.6 22.6-40.2C37 174 54.3 173.4 69 181l.3.1 23.2 12.4 115.3 60.6c20.6 10.9 33.5 32.1 33.5 55.4" style="fill:#3bbaff"/></svg>