<?xml version="1.0" encoding="utf-8"?>
<!-- Generator: Adobe Illustrator 28.2.0, SVG Export Plug-In . SVG Version: 6.00 Build 0)  -->
<svg version="1.1"
	 id="Layer_1" xmlns:cc="http://creativecommons.org/ns#" xmlns:dc="http://purl.org/dc/elements/1.1/" xmlns:rdf="http://www.w3.org/1999/02/22-rdf-syntax-ns#"
	 xmlns="http://www.w3.org/2000/svg" xmlns:xlink="http://www.w3.org/1999/xlink" x="0px" y="0px" viewBox="0 0 512 512"
	 style="enable-background:new 0 0 512 512;" xml:space="preserve">
<style type="text/css">
	.st0{display:none;fill-rule:evenodd;clip-rule:evenodd;fill:#301506;}
	.st1{fill:#FFFFFF;}
</style>
<g transform="translate(.36060 .36060)">
	<path class="st0" d="M51.7,152.4l1.9,211.3l47.5,58.6l142.4,75.4l175-85.6l36.3-86.6l-3.7-280.2l-132.2-3.7L181.1,63.9L55.4,136.5
		L51.7,152.4z"/>
	<path class="st1" d="M255.6-0.4c-83,0-155.3,16.1-215.1,47.7v253.2c0,53.3,20,97.8,57.9,128.9c35.2,28.8,143.9,76.4,157.2,82.1
		c12.6-5.5,122.7-53.8,157.3-82.1c37.8-31,57.9-75.6,57.9-128.9V47.4C411,15.7,338.6-0.4,255.6-0.4L255.6-0.4z M378.5,48.7
		c24.7,0.3,49,1.9,72.5,4v247.9c0,47.6-17.3,86.1-50.6,113.6c-29.8,24.5-119.6,64.8-144.7,75.8c-25.4-11.2-115.5-52-144.7-75.8
		c-33.2-27-50.6-66.4-50.6-113.6V155.8C155.6,68.4,271.3,47.3,378.5,48.7L378.5,48.7z M261.2,164.1c-20.4,0-36.9,4.6-50.4,13.3
		v243.9h37.4v-78.8c3.7,1.1,9.2,2.1,16.8,2.1c41.5,0,65.4-37.4,65.4-92.1C330.5,198,305.9,164.1,261.2,164.1L261.2,164.1z
		 M389.2,164.1c-24.6,0.7-50.4,18.5-50.2,48.8c0.1,19.9,5.6,34.8,36.4,52.9c16.5,9.7,23.1,16,23.4,27.8c0.3,13.1-8.7,20.9-22.4,20.9
		c-11.9-0.1-26.2-6.7-35.8-15.2v34.5c11.7,7,26.4,11.6,41.1,11.6c37,0,53.5-26.1,54.2-50.1c0.7-21.8-5.3-38.3-36.6-56.7
		c-14-8.2-25-13.6-24.6-27.2c0.4-13.3,11.4-18,22-17.9c13.1,0.1,25.7,7.4,33.5,15.4v-32.5C423.6,171.2,409.7,163.5,389.2,164.1
		L389.2,164.1z M79.4,167.9v117.6c0,39.7,18.8,59.7,55.8,59.7c22.9,0,42.1-5.3,56.4-15V167.9h-37.4V309c-4.1,2.8-10.1,4.6-17.7,4.6
		c-17.1,0-19.7-15.7-19.7-26.3V167.9L79.4,167.9L79.4,167.9z M261.5,194.3c21.7,0,30.7,17.3,30.7,59.3c0,40.9-10.3,60.7-31.8,60.7
		c-5.1,0-9.5-1.3-12.2-2.3V197C251.2,195.4,256.4,194.3,261.5,194.3L261.5,194.3z"/>
</g>
</svg>
