<svg xmlns="http://www.w3.org/2000/svg" xml:space="preserve" viewBox="0 0 512 512"><path d="M424.8 134.4c.4 1.5.6 3.2.5 4.8v.4l-9.2 114c-.6 7.4-7.2 13-14.6 12.4s-13-7.1-12.4-14.6l6.6-81.8-16.3 13.9c-35.4 30-59.5 71.6-68 117.2-.8 4.3-3.6 7.9-7.5 9.7-3.9 1.9-8.5 1.7-12.3-.3L207.1 264l-76 139.2c-2.5 4.5-7.1 7-11.9 7-2.2 0-4.4-.5-6.5-1.7-6.6-3.6-9-11.8-5.4-18.4L189.8 239c3.6-6.6 11.8-9 18.4-5.4l80.7 44.1c12.1-44.6 37.6-84.9 73-114.9l16.3-13.9-81.8-6.6c-7.4-.6-13-7.1-12.4-14.6.6-7.4 7-13 14.6-12.4l113.7 9.2h.6c5.8.6 10.4 4.6 11.9 9.9M512 71.9v368.2c0 39.7-32.2 71.9-71.9 71.9H71.9C32.2 512 0 479.8 0 440.1V71.9C0 32.2 32.2 0 71.9 0h368.2C479.8 0 512 32.2 512 71.9m-45.5 38.9c-9.9-11.6-24.4-19.2-39.6-20.4h-.1l-10.4-.8c-.2 0-.4-.1-.6-.1l-103.3-8.4-11-.9c-25.4-2.1-50.5 19.2-52.5 44.7-.3 4.2 0 8.3.8 12.4-.6 25.7 18.5 49.5 43 56.8-6.2 9.8-11.7 19.9-16.5 30.5L240 204.8c-8.4-4.6-17.8-6.6-27.3-6.5-20.4-4.1-43.7 5.4-53.8 24l-82.4 151c-5.4 9.8-6.6 21.3-4.5 32.3 0 21.1 11 42.4 29.7 52.6 26.8 14.6 64.4 3.6 79-23.2l.1-.1 54.5-99.9 45.3 24.7c32.1 17.5 78.5-4.5 85.1-40.5 1.1-6 4.5-11.2 6.3-17 9.7 10.2 22.3 17.6 36.3 18.7 30.4 2.4 60.2-23 62.7-53.3l9.2-114.4v-.1c1.2-15.2-3.9-30.7-13.7-42.3" style="fill:#fff"/></svg>