<svg xmlns="http://www.w3.org/2000/svg" xml:space="preserve" viewBox="0 0 512 512"><path d="M422.5 252.7v231.6c0 10-8.2 17-18.2 17h-26.4V207h65.7L348 69.8 252.3 207H318v100.8c-13.9-18.6-25.8-38.9-43.5-54.5l-72.8-1.1c-7.9-2.4-14.1-6.7-16.9-14.7-4.5-12.5 1.6-18.5 8.3-28C239.7 143.2 286 79.4 335 14.8c7.7-5.6 18.1-5.6 25.8 0 148.3 203.6 90.6 125.4 148.3 203.6 5.2 11 3.5 23.3-6.9 30.2-1.7 1.1-8.4 4.2-9.9 4.2zm-267.8-30.3c-3.8 21.7.4 42.5 21.3 53.2 16.5 8.5 38.3 1.6 56.3 4.7 35.5 37 61.4 85.8 71.3 136.3 3.2 16.4 8 48.8 4.2 64.5-5.5 22.9-40 27.5-53 7.6-7.2-11-3.8-19.8-4.9-31.5C239.6 346.8 160.3 265 49.8 252.6c-13.5-1.5-27.2 1.8-38.7-7.1-21.5-16.6-9.8-50 16.4-52.7 8-.8 19.9.4 28.1 1.2 34.6 3.2 68.2 13.5 99.1 28.4M24.3 295.2c10.8-1.7 27 .6 37.9 2.6 60.5 11.1 112.6 55 133.8 112.6 9.9 26.8 26.7 96.3-22.9 90.9-28.3-3.1-23.6-32.1-27-51.6-8.3-47.9-50.6-88-98.7-94.8-14.8-2.1-28.6 1.6-39.8-10.7-15.2-16.7-5.7-45.6 16.7-49M42 403.1c67.5-8.1 75.5 94.4 9 98.1-61.9 3.5-69.9-90.8-9-98.1"/></svg>