<svg xmlns="http://www.w3.org/2000/svg" xml:space="preserve" viewBox="0 0 512 512"><path d="M291.9 510.7c94.9-13.3 173-78.6 204.8-166.2-2.5.9-5.6 2-9.2 3.1-42.7 12.6-72.6-9.9-78.7-13.8-6-3.9-12.5-10.2-13.7-9.9-3.9 24.2-26 57.7-76.4 73-27.6 8.4-57.3 8.6-78.5-3.3l7 17.5c2.8 7 7.5 18.5 10.4 25.4 0 0 18.3 43.6 34.3 74.2M58.1 152.6l75.5-14.1c6.9-1.3 14.5 2.6 16.9 8.7l51.9 129.5c7.1 13.5 8.5 16.5 13.1 22.2 0 0 35.8 51.2 90.5 38.7 36.8-8.4 54-36.1 55.2-55.7 1.2-6.3-.7-14.3-4-21.7L295 119.7c-2.5-5.7.5-11.2 6.5-12.4l63-11.7c5.8-1 12.6 2.6 15.1 8L448.5 251c2.8 5.9 8.4 15.2 12.5 20.6 0 0 14.3 20.6 37.3 16.7 5.7 0 12.1-3.1 12.1-3.1q1.5-13.8 1.5-27.9c0-141.4-114.6-256-256-256C114.6 1.3 0 115.9 0 257.3c0 113.5 73.8 209.6 176 243.2-6.9-14.2-13.9-29.9-19.6-45.2L49 166.6c-2.3-6.4 1.8-12.6 9.1-14" style="fill-rule:evenodd;clip-rule:evenodd;fill:#fff"/></svg>