<svg xmlns="http://www.w3.org/2000/svg" xml:space="preserve" viewBox="0 0 512 512"><path d="M509.9 392.7c-3.1-10.3-10.7-24.5-18.8-35.2-13.1-17.2-44-43.1-70.2-58.8-16.4-9.8-46.1-24.6-60.2-29.9-6.3-2.4-12.5-4.8-13.6-5.5l-2.1-1.1c.6-1.7 4.5-3.8 9.2-5.8 20.5-8.9 36.8-25.7 50-51.5 15.1-29.5 15.3-38.1 1.3-44.3-11.5-5.1-38.6-7-53-3.7-11.5 2.6-29.5 9.5-38.2 14.7-4.2 2.5-7.8 4.5-8.1 4.5h-.5c0-33.3-1.8-43.3-7.4-57.5-4-10.1-7.7-16.3-17.5-29.3S263.1 68.8 259 68.8c-5 0-23.8 20.1-33.1 35.4-11.3 18.5-16.8 40.3-15.3 61.1l.7 10.8c-1.9 0-4.5-1.4-7.1-3.2-15.6-10.7-32.5-15.6-56.2-16.4-23.3-.8-39.5 2.8-46.3 10.2-2.3 2.5-2.7 4-2.6 9.6l.1 6.5c-2 0-9.1-1.8-16.9-3.9-16.3-4.4-27.6-9.4-37.7-16.6-10.8-7.7-14.8-15.2-11.4-21.6 2.9-5.3-3-9.5-11.6-8.3-6.1.9-13.8 7.3-18.4 15.4-2.8 4.8-3.2 6.8-3.3 13.7 0 7.1.3 8.4 2.7 10.8 2.9 2.9 6.6 3.5 8 1.3.5-.8.9-5 .9-9.5 0-7.5.2-8.3 3.1-10.8l3.1-2.7c1.6 1 4 5.3 6.4 10.3 6.1 12.6 13.1 20.8 25.7 30.2 16.8 12.5 19.2 13.7 66.7 33.2 4.8 2 9 5 14.9 10.8 11.2 10.9 26 21.7 36.6 26.8 4.8 2.3 8.8 7 8.8 7-3 0-21.2 18.1-26 24.8-9.3 13-16.6 29.9-19.8 46.2-2 9.7-2.3 27.5-.6 36.4 1.2 6.7 5.9 12 10.4 12 2.6 0 19.1-4.9 51.2-15.1 29.6-9.4 47-23 60.3-47.1 2.6-4.7 5.2-8.6 5.8-8.6s2.5 2.5 4.2 5.6c8.5 15.1 21.6 29.3 35 37.8 12.9 8.2 19.5 10.7 59 22.5 16 4.7 17.9 5.1 21.8 3.9 6.4-1.9 7.9-5.7 8.5-21.5.5-14.1-.9-25.7-4.4-36.4-1.2-3.6-1.9-6.9-1.5-7.3l.7-.7c14 7.3 34.9 21 52.1 33.3 28.8 20.6 49.8 39.8 54.1 49.5 4.7 10.6 3.8 20-2.4 24.3-2.1 1.5-2.8 1.5-6.3 0-2.2-.9-4.6-1.4-5.4-1.1l-1.4.6c0 7.2 3.7 12 8.2 14 4.1 1.8 10.3 1.2 16-1.7 9.9-5.1 14.7-14.1 15.4-29 .6-8.7.2-11.9-1.8-18.6M364 281.6l10.4 4.9c-1.7 0-6.6-1.7-12.1-3.8-5.4-2.1-10.4-4.3-11-4.9l-1.2-1.2c2.7.1 8.2 2.3 13.9 5m-54.3-91.5c15.6-11.1 33-18.4 50.1-20.9 11-1.6 28.3-.2 37.5 3l5.3 1.8c0 5.3-13.9 33.3-20.5 42.4-5.7 8-16.4 18.3-25.2 24.1-12.2 8.1-27.1 13.2-43.5 14.9l-9 .9-.6-7.8c-.3-4.3-.9-8.8-1.3-10l-.7-2.2c11.6-5.7 67.6-39.3 70.5-41.6.8-.7 1.5-2.4 1.5-3.9v-2.6c-5.4 0-61.1 31.9-70.4 39.4l-4.6 3.7c-3.4-4.1-7.8-6.2-12.7-7l-4.1-.8c0-1.3.7-2.6 1.5-3.8s2.9-4.7 4.6-7.7c4.1-7.5 10.4-13.8 21.6-21.9m-18.8 59.5c0 2.5-6.6 9.4-9 9.4-1.2 0-3.3-1.1-4.7-2.6-1.4-1.4-2.9-4.4-3.3-6.8-.7-3.5-.4-4.7 1.7-6.8 1.4-1.4 3.4-2.9 4.5-3.3 4-1.2 10.8 5.1 10.8 10.1m-59.6-129.1c1.2-1.6 3.2-5.4 4.5-8.3s4.4-7.7 6.9-10.7c9.1-10.8 15.4-17.3 16.6-17.3 2.1.1 18.7 22.8 23.6 32.3 2.6 5 5.7 13.1 7 18 3 11.4 4 31.1 2.2 43.1-1.3 8.6-1.7 9.6-6.9 15.6-3 3.6-6.8 8.6-8.5 11.2-1.6 2.6-3.4 4.7-3.9 4.7s-2.3-.9-3.9-2.1c-1.6-1.1-3.6-2.3-4.5-2.6l-1.6-.5c.5-79.7.2-88.7-1-90.4l-1.5-2c-2.9 1.1-4.3 3.4-4.9 5.7-1.3 4.8-2.1 78.6-.9 82.9l.8 2.8c-8.5 4.7-11.2 6.1-11.4 6.1s-1.6-1.8-3-4.1c-1.4-2.2-4.9-6.9-7.8-10.5-6.4-7.7-8.3-14.5-9.3-32.5-.8-15.5 2.6-34.4 7.5-41.4m20.6 111.9c-3.1-1.8-2.5-7.3 1.3-11.1 4.1-4.1 5.5-4 9.4 0 2.2 2.3 3.2 4.5 3.2 7.5l.1 4.2c-9.3.4-13 0-14-.6m10.5 21c-1.5 4.2-6.4 4.5-8.2.6-1.7-3.8 0-8.7 3.3-9.2l2.5-.4c2.3 5.7 2.7 8.1 2.4 9m-21.5-3.6-1.6 6.5c-5.2.6-6.9-.2-9.3-2.6-4.3-4.3-4.5-9.2-.3-13 3.4-3.1 7.1-2.9 10.7.6 2 1.9 2 2.4.5 8.5m-139.7-53.9.7 1.2c-2.2-.1-4.6-1-6.8-2.1l-10.5-4.3c-3.6-1.2-8.6-3-10.9-4.1l-4.3-1.8c1.9-1.9 30.3 8.7 31.8 11.1m-10 8.8c-1.2-.6-2.5-1.2-3.7-1.8-7.9-3.9-15.4-7.9-17.6-9.5l-4.7-3.4.7-.7c23.9 12.5 34.2 17.1 38.3 18.2s8 2.7 8.7 3.5l1.2 1.5c-4.8 0-13.7-3.5-22.9-7.8m71.4 37.4c-11.2-6.3-27.6-22.6-35.2-34.9-6.7-11-15.1-29.5-14.2-31.7 1.4-3.7 26.6-7.9 39.3-6.7 26 2.6 48.3 13.4 66.9 32 7.5 7.5 16.7 20.9 15.6 22.7-.4.6-2.1 1.2-3.8 1.2s-4.9 1.2-7.2 2.8c-2.2 1.5-4.3 2.8-4.6 2.8s-3.9-2.4-8-5.4c-18-13-67.7-37.7-75.7-37.7h-.9c0 3.7 4.4 6.5 27 18.8 9.8 5.3 23.8 13.1 31.1 17.2s15.2 8.6 17.5 9.8l4.2 2.3c-1.3 4.3-1.7 8.5-1.7 12.2 0 8.9.2 8.8-13.9 7.2-9.8-1.3-26.3-7-36.4-12.6m76.2 82.8c-2.5 3.9-8.8 11-13.8 15.8-7.4 7-11.5 9.8-20.6 14.3-6.3 3-14.9 6.5-19.1 7.8-15.5 4.5-38.1 10.1-40.4 10.1h-2.4l.5-17.4c.5-15.9.9-18.3 4-27.4 7-20.2 15.1-31.5 32.3-45 11.5-9.1 28.2-15.8 37.4-15l4 .3c1.1 8.6 1.7 12.6 2 14.4.6 3.1-.2 4.1-14.3 16.6-26.5 23.6-44.7 43.5-44.7 49.1v2.3c2.2 0 9.4-6.6 17.3-14.7s21.1-20.8 29.2-28.4c8.2-7.5 15.5-14.6 16.3-15.8l1.4-2c8.2 4.2 10.6 4.6 16.1 4.2l7-.4c.1 7.3-6.7 22.8-12.2 31.2m1.3-47.1c-4.8-6-3.3-8.9.9-13.2 2.4-2.5 24.3-.3 27.3.5 3 .7 7 6.6 7 10.1 0 3.1-3 5.6-7.8 6.5-2.7.5-22.5 2.2-27.4-3.9m133.5 85.3-.3 10.3c-2.6.4-5.6-.2-8.3-1s-9.7-2.8-15.5-4.5c-28.1-8.1-37.5-12.1-49.5-21.3-9.9-7.6-16.5-14.8-22.8-25.1-5.7-9.2-10.5-22.4-8.7-24.1.6-.6 5.6-1.4 9.8-3 7-2.7 7.1-5.2 8.4-5.6 2.8-.9 25.1 22 49.3 46.3 11.6 11.6 17.4 16.7 18.5 16.2l1.7-.7c0-6.5-20.9-29.1-49.4-55.1-9.3-8.4-11.3-10.2-14.2-10.2l-3.2-.9c2-2.5 2-5.1 2.3-8.5.6-5.4 1-6.4 3.5-7.3 1.6-.6 6-.7 10-.3 8.7.9 19 6 31.5 15.3 23.2 17.7 37.8 49.1 36.9 79.5m46.7-32.2c-1.5 0-4.1-1.7-6.8-3.7s-8.8-6.4-13.7-9.6c-4.9-3.3-10.9-7.5-13.3-9.4-2.5-1.9-7.8-5.1-11.9-7.2s-7.4-4.2-7.4-4.7v-.8c2.9 0 14.8 6.9 26.5 15 12.7 8.7 26.5 19.1 26.5 19.9v.5zm43.5 34.3-11.5-9.5c-6.3-5.2-12.8-10.3-14.3-11.3s-5-3.5-7.8-5.6l-5-3.8c5.4 2 27.2 17.6 33.7 23.5l6.1 5.4zm22.2 4.4c-2.7-3.8-9.6-10.5-32-31.1-4-3.7-10.6-8.9-16.7-13.1-17.9-12.5-34.2-22.9-43.8-28.1-6.5-3.5-11.9-6.5-11.9-6.8v-.4c13.1 6 23.8 11.8 31.5 16.9 4.9 3.2 11.8 7.8 15.5 10.1 6.8 4.3 18 12.9 34.7 26.6 10.3 8.4 21.9 20.9 24.9 26.7l1.8 3.6c-.7 0-2.3-2-4-4.4" style="fill:#fff"/></svg>