<svg xmlns="http://www.w3.org/2000/svg" xml:space="preserve" viewBox="0 0 512 512"><path d="M496.4 440.5c-5.6 2.9-11.9 3.6-16 1.7-4.5-2-8.2-6.9-8.2-14l1.4-.6c.8-.3 3.2.2 5.4 1.1 3.5 1.5 4.2 1.4 6.3 0 6.2-4.3 7.1-13.7 2.4-24.3-4.3-9.7-25.3-28.9-54.1-49.5-17.2-12.3-38.1-26-52.1-33.3l-.7.7c-.4.4.3 3.7 1.5 7.3 3.5 10.7 4.9 22.3 4.4 36.4-.6 15.8-2.1 19.5-8.5 21.5-3.9 1.2-5.9.8-21.8-3.9-39.5-11.7-46.1-14.2-59-22.5-13.4-8.5-26.5-22.7-35-37.8-1.7-3.1-3.6-5.6-4.2-5.6s-3.2 3.9-5.8 8.6c-13.2 24-30.7 37.7-60.3 47.1-32.1 10.2-48.6 15.1-51.2 15.1-4.6 0-9.2-5.3-10.4-12-1.6-8.9-1.3-26.7.6-36.4 3.3-16.3 10.5-33.2 19.8-46.2 4.8-6.7 23-24.8 26-24.8 0 0-4-4.7-8.8-7-10.6-5.1-25.4-15.9-36.6-26.8-6-5.8-10.2-8.8-14.9-10.8-47.5-19.6-49.9-20.8-66.7-33.2-12.7-9.4-19.7-17.6-25.7-30.2-2.4-5-4.8-9.3-6.4-10.3l-3.1 2.7c-2.9 2.5-3.1 3.3-3.1 10.8 0 4.5-.4 8.7-.9 9.5-1.4 2.2-5.1 1.6-8-1.3-2.4-2.4-2.7-3.7-2.7-10.8 0-6.9.5-8.9 3.3-13.7 4.6-8.1 12.3-14.5 18.4-15.4 8.5-1.3 14.4 2.9 11.6 8.3-3.4 6.4.6 13.9 11.4 21.6 10.1 7.2 21.4 12.2 37.7 16.6 7.9 2.1 14.9 3.9 16.9 3.9l-.1-6.5c-.1-5.5.3-7 2.6-9.6 6.8-7.4 23.1-11 46.3-10.2 23.6.8 40.6 5.8 56.2 16.4 2.5 1.7 5.2 3.2 7.1 3.2l-.7-10.8c-1.4-20.8 4.1-42.6 15.3-61.1 9.3-15.3 28.2-35.4 33.1-35.4 4.1 0 12.1 7.4 21.8 20.5 9.8 13 13.5 19.2 17.5 29.3 5.6 14.2 7.4 24.2 7.4 57.5h.5c.3 0 3.9-2 8.1-4.5 8.7-5.2 26.7-12.1 38.2-14.7 14.4-3.3 41.5-1.4 53 3.7 14 6.2 13.7 14.8-1.3 44.3-13.2 25.8-29.5 42.6-50 51.5-4.7 2-8.7 4.2-9.2 5.8l2.1 1.1c1.1.6 7.3 3.1 13.6 5.5 14.1 5.3 43.8 20 60.2 29.9 26.2 15.7 57.1 41.6 70.2 58.8 8.2 10.7 15.8 24.9 18.8 35.2 2 6.7 2.4 10 1.9 18.8-.8 14.7-5.6 23.7-15.5 28.8" style="fill:#1f150b"/><path d="M84.6 190.7c-3.6-1.2-8.6-3-10.9-4.1l-4.3-1.8c1.9-1.9 30.2 8.7 31.7 11.1l.7 1.2c-2.2-.1-4.6-1-6.8-2.1zM486 369.6c-2.7-3.8-9.6-10.5-32-31.1-4-3.7-10.6-8.9-16.7-13.1-17.9-12.5-34.2-22.9-43.8-28.1-6.5-3.5-11.9-6.5-11.9-6.8v-.4c13.1 6 23.8 11.8 31.5 16.9 4.9 3.2 11.8 7.8 15.5 10.1 6.8 4.3 18 12.9 34.7 26.6 10.3 8.4 21.9 20.9 24.9 26.7l1.8 3.6c-.7 0-2.3-2-4-4.4m-33.7-14c-6.3-5.2-12.8-10.3-14.3-11.3s-5-3.5-7.8-5.6l-5-3.8c5.4 2 27.2 17.6 33.7 23.5l6.1 5.4-1.3 1.3zm-38.8-28.4c-2.7-2-8.8-6.4-13.7-9.6-4.9-3.3-10.9-7.5-13.3-9.4s-7.8-5.1-11.9-7.2-7.4-4.2-7.4-4.7v-.8c2.9 0 14.8 6.9 26.5 15 12.7 8.7 26.5 19.1 26.5 19.9v.5c-1.4 0-4-1.7-6.7-3.7m-51.2-44.4c-5.4-2.1-10.4-4.3-11-4.9l-1.2-1.2c2.7 0 8.1 2.2 13.8 4.9l10.4 4.9c-1.6 0-6.6-1.7-12-3.7M91.2 204.7c-1.2-.6-2.5-1.2-3.7-1.8-7.9-3.9-15.4-7.9-17.6-9.5l-4.7-3.4.7-.7c23.9 12.5 34.2 17.1 38.3 18.2s8 2.7 8.7 3.5l1.2 1.5c-4.8 0-13.7-3.5-22.9-7.8M365 372.5c-2.7-.8-9.7-2.8-15.5-4.5-28.1-8.1-37.5-12.1-49.5-21.3-9.9-7.6-16.5-14.8-22.8-25.1-5.7-9.2-10.5-22.4-8.7-24.1.6-.6 5.6-1.4 9.8-3 7-2.7 7.1-5.2 8.4-5.6 2.8-.9 25.1 22 49.3 46.3 11.6 11.6 17.4 16.7 18.5 16.2l1.7-.7c0-6.5-20.9-29.1-49.4-55.1-9.3-8.4-11.3-10.2-14.2-10.2l-3.2-.9c2-2.5 2-5.1 2.3-8.5.6-5.4 1-6.4 3.5-7.3 1.6-.6 6-.7 10-.3 8.7.9 19 6 31.5 15.3 23.3 17.5 37.9 48.9 36.9 79.3l-.3 10.3c-2.6.5-5.6 0-8.3-.8m-222.1-17c.5-15.9.9-18.3 4-27.4 7-20.2 15.1-31.5 32.3-45 11.5-9.1 28.2-15.8 37.4-15l4 .3c1.1 8.6 1.7 12.6 2 14.4.6 3.1-.2 4.1-14.3 16.6-26.5 23.6-44.7 43.5-44.7 49.1v2.3c2.2 0 9.4-6.6 17.3-14.7s21.1-20.8 29.2-28.4c8.2-7.5 15.5-14.6 16.3-15.8l1.4-2c8.2 4.2 10.6 4.6 16.1 4.2l7-.4c0 7.2-6.8 22.8-12.2 31.2-2.5 3.9-8.8 11-13.8 15.8-7.4 7-11.5 9.8-20.6 14.3-6.3 3-14.9 6.5-19.1 7.8-15.5 4.5-38.1 10.1-40.4 10.1h-2.4zm97.2-77.7c-4.8-6-3.3-8.9.9-13.2 2.4-2.5 24.3-.3 27.3.5 3 .7 7 6.6 7 10.1 0 3.1-3 5.6-7.8 6.5-2.7.5-22.5 2.2-27.4-3.9m37.1-21.3c-1.4-1.4-2.9-4.4-3.3-6.8-.7-3.5-.4-4.7 1.7-6.8 1.4-1.4 3.4-2.9 4.5-3.3 4.1-1.3 10.9 4.9 10.9 10 0 2.5-6.6 9.4-9 9.4-1.3 0-3.4-1.1-4.8-2.5m-47.2-2.9c-4.3-4.3-4.5-9.2-.3-13 3.4-3.1 7.1-2.9 10.7.6 1.9 1.9 2 2.5.5 8.5l-1.6 6.5c-5.1.6-6.9-.2-9.3-2.6m24.1.4c-1.7-3.8 0-8.7 3.3-9.2l2.5-.4c2.4 5.6 2.8 8 2.4 8.9-1.5 4.3-6.3 4.6-8.2.7m49.7-5.4c-.3-4.3-.9-8.8-1.3-10l-.7-2.2c11.6-5.7 67.6-39.3 70.5-41.6.8-.7 1.5-2.4 1.5-3.9v-2.6c-5.4 0-61.1 31.9-70.4 39.4l-4.6 3.7c-3.4-4.1-7.8-6.2-12.7-7l-4.1-.8c0-1.3.7-2.6 1.5-3.8s2.9-4.7 4.6-7.7c4.1-7.5 10.4-13.8 21.6-21.9 15.6-11.1 33-18.4 50.1-20.9 11-1.6 28.3-.2 37.5 3l5.3 1.8c0 5.3-13.9 33.3-20.5 42.4-5.7 8-16.4 18.3-25.2 24.1-12.2 8.1-27.1 13.2-43.5 14.9l-9 .9zm-104.8 6c-9.8-1.1-26.4-6.8-36.4-12.5-11.2-6.3-27.6-22.6-35.2-34.9-6.7-11-15.1-29.5-14.2-31.7 1.4-3.7 26.6-7.9 39.3-6.7 26 2.6 48.3 13.4 66.9 32 7.5 7.5 16.7 20.9 15.6 22.7-.4.6-2.1 1.2-3.8 1.2s-4.9 1.2-7.2 2.8c-2.2 1.5-4.3 2.8-4.6 2.8s-3.9-2.4-8-5.4c-18-13-67.7-37.7-75.7-37.7h-.9c0 3.7 4.4 6.5 27 18.8 9.8 5.3 23.8 13.1 31.1 17.2s15.2 8.6 17.5 9.8l4.2 2.3c-1.3 4.3-1.7 8.5-1.7 12.2 0 8.8.3 8.7-13.9 7.1m52.9-22.2c-3.1-1.8-2.5-7.3 1.3-11.1 4.1-4.1 5.5-4 9.4 0 2.2 2.3 3.2 4.5 3.2 7.5l.1 4.2c-9.3.4-13 0-14-.6M241 205.2c-1.4-2.2-4.9-6.9-7.8-10.5-6.4-7.7-8.3-14.5-9.3-32.5-.8-15.8 2.6-34.8 7.5-41.7 1.2-1.6 3.2-5.4 4.5-8.3s4.4-7.7 6.9-10.7c9.1-10.8 15.4-17.3 16.6-17.3 2.1.1 18.7 22.8 23.6 32.3 2.6 5 5.7 13.1 7 18 3 11.4 4 31.1 2.2 43.1-1.3 8.6-1.7 9.6-6.9 15.6-3 3.6-6.8 8.6-8.5 11.2-1.6 2.6-3.4 4.7-3.9 4.7s-2.3-.9-3.9-2.1c-1.6-1.1-3.6-2.3-4.5-2.6l-1.6-.5c.5-79.7.2-88.7-1-90.4l-1.5-2c-2.9 1.1-4.3 3.4-4.9 5.7-1.3 4.8-2.1 78.6-.9 82.9l.8 2.8c-8.5 4.7-11.2 6.1-11.4 6.1-.3.2-1.6-1.6-3-3.8" style="fill:#f1f2e9"/></svg>