<?xml version="1.0" encoding="utf-8"?>
<!-- Generator: Adobe Illustrator 28.2.0, SVG Export Plug-In . SVG Version: 6.00 Build 0)  -->
<svg version="1.1" id="Layer_1" xmlns="http://www.w3.org/2000/svg" xmlns:xlink="http://www.w3.org/1999/xlink" x="0px" y="0px"
	 viewBox="0 0 512 512" style="enable-background:new 0 0 512 512;" xml:space="preserve">
<style type="text/css">
	.st0{fill:url(#SVGID_1_);}
	.st1{fill:url(#SVGID_00000125572201311146647300000002380456026252743053_);}
</style>
<linearGradient id="SVGID_1_" gradientUnits="userSpaceOnUse" x1="36.9246" y1="-288.5878" x2="475.0754" y2="-35.6202" gradientTransform="matrix(1 0 0 -1 0 93.896)">
	<stop  offset="0" style="stop-color:#10E7FF"/>
	<stop  offset="0.103" style="stop-color:#33D5FF"/>
	<stop  offset="0.255" style="stop-color:#60BDFF"/>
	<stop  offset="0.408" style="stop-color:#86AAFF"/>
	<stop  offset="0.56" style="stop-color:#A39AFF"/>
	<stop  offset="0.71" style="stop-color:#B790FF"/>
	<stop  offset="0.858" style="stop-color:#C489FF"/>
	<stop  offset="1" style="stop-color:#C887FF"/>
</linearGradient>
<path class="st0" d="M256,512L37.8,384V128L256,0l218.2,128v256L256,512z M68.3,366l187.3,110l187.3-110V146L256,36.1L68.3,146V366z
	"/>
<linearGradient id="SVGID_00000049211404968906513050000015213517847444028325_" gradientUnits="userSpaceOnUse" x1="172.4933" y1="-200.5451" x2="389.8741" y2="-75.0389" gradientTransform="matrix(1 0 0 -1 0 93.896)">
	<stop  offset="0" style="stop-color:#10E7FF"/>
	<stop  offset="0.103" style="stop-color:#33D5FF"/>
	<stop  offset="0.255" style="stop-color:#60BDFF"/>
	<stop  offset="0.408" style="stop-color:#86AAFF"/>
	<stop  offset="0.56" style="stop-color:#A39AFF"/>
	<stop  offset="0.71" style="stop-color:#B790FF"/>
	<stop  offset="0.858" style="stop-color:#C489FF"/>
	<stop  offset="1" style="stop-color:#C887FF"/>
</linearGradient>
<path style="fill:url(#SVGID_00000049211404968906513050000015213517847444028325_);" d="M350.1,186.4l-76.5,134.4l24.9,43.8
	l101.4-178.3C399.9,186.4,350.1,186.4,350.1,186.4z M264.6,186.4l-76.5,134.4l24.9,43.8l101.4-178.3
	C314.4,186.4,264.6,186.4,264.6,186.4z M112.1,186.4l101.4,178.3l24.9-43.8l-76.5-134.4C161.9,186.4,112.1,186.4,112.1,186.4z
	 M112.1,186.4l101.4,178.3l24.9-43.8l-76.5-134.4C161.9,186.4,112.1,186.4,112.1,186.4z M264.6,186.4l-76.5,134.4l24.9,43.8
	l101.4-178.3C314.4,186.4,264.6,186.4,264.6,186.4z"/>
</svg>
