<?xml version="1.0" encoding="utf-8"?>
<!-- Generator: Adobe Illustrator 28.2.0, SVG Export Plug-In . SVG Version: 6.00 Build 0)  -->
<svg version="1.1" id="Layer_1" xmlns="http://www.w3.org/2000/svg" xmlns:xlink="http://www.w3.org/1999/xlink" x="0px" y="0px"
	 viewBox="0 0 512 512" style="enable-background:new 0 0 512 512;" xml:space="preserve">
<style type="text/css">
	.st0{fill:#FFFFFF;}
</style>
<path class="st0" d="M256,0L37.8,128v256L256,512l218.2-128V128L256,0z M442.9,366L255.6,476L68.3,366V146L256,36.1L442.9,146V366z
	 M273.6,320.8l76.5-134.4c0,0,49.8,0,49.8-0.1L298.5,364.6L273.6,320.8z M213.2,276.7l51.4-90.3c0,0,49.8,0,49.8-0.1l-76.3,134.1
	l0.3,0.5l-24.9,43.8l-0.3-0.5l-0.2,0.4l-24.9-43.8l0.2-0.4l-76.2-134c0,0,49.8,0,49.8,0.1L213.2,276.7z"/>
</svg>
