<svg xmlns="http://www.w3.org/2000/svg" xml:space="preserve" viewBox="0 0 512 512"><linearGradient id="vector_svg__a" x1="36.925" x2="475.075" y1="1056.588" y2="803.62" gradientTransform="translate(0 -674.104)" gradientUnits="userSpaceOnUse"><stop offset="0" style="stop-color:#10e7ff"/><stop offset=".103" style="stop-color:#33d5ff"/><stop offset=".255" style="stop-color:#60bdff"/><stop offset=".408" style="stop-color:#86aaff"/><stop offset=".56" style="stop-color:#a39aff"/><stop offset=".71" style="stop-color:#b790ff"/><stop offset=".858" style="stop-color:#c489ff"/><stop offset="1" style="stop-color:#c887ff"/></linearGradient><path d="M256 512 37.8 384V128L256 0l218.2 128v256zM68.3 366l187.3 110 187.3-110V146L256 36.1 68.3 146z" style="fill:url(#vector_svg__a)"/><linearGradient id="vector_svg__b" x1="172.493" x2="389.874" y1="294.441" y2="168.935" gradientUnits="userSpaceOnUse"><stop offset="0" style="stop-color:#10e7ff"/><stop offset=".103" style="stop-color:#33d5ff"/><stop offset=".255" style="stop-color:#60bdff"/><stop offset=".408" style="stop-color:#86aaff"/><stop offset=".56" style="stop-color:#a39aff"/><stop offset=".71" style="stop-color:#b790ff"/><stop offset=".858" style="stop-color:#c489ff"/><stop offset="1" style="stop-color:#c887ff"/></linearGradient><path d="m238.1 320.4.3.5-24.9 43.8-.3-.5-.2.4-24.9-43.8.2-.4-76.2-134s49.8 0 49.8.1l51.3 90.2 51.4-90.3s49.8 0 49.8-.1zm112-134-76.5 134.4 24.9 43.8 101.4-178.3c0 .1-49.8.1-49.8.1" style="fill:url(#vector_svg__b)"/></svg>