<svg xmlns="http://www.w3.org/2000/svg" xml:space="preserve" viewBox="0 0 512 512"><path d="M437.5 421.6c-15.9 0-23.5 6-32.3 13-9.6 7.6-20.4 16.2-41.4 16.2s-31.8-8.6-41.4-16.2c-8.8-7-16.4-13-32.3-13s-23.5 6-32.3 13c-9.6 7.6-20.4 16.2-41.4 16.2s-31.8-8.6-41.4-16.2c-8.8-7-16.4-13-32.3-13s-23.5 6-32.3 13c-6.8 6-14.7 10.6-23.3 13.6 41.1 36.3 92.9 58.3 147.5 62.8 1.5.1 3.1.2 4.6.4 5.5.4 11 .6 16.6.6s11.1-.2 16.6-.6c1.5-.1 3.1-.2 4.6-.4 66.8-5.6 128.8-37.2 172.5-88-4-.9-8-1.4-12-1.4M68.9 230.7c17.3 0 25.8-6.8 34.8-13.9 9.5-7.5 19.3-15.4 38.9-15.4s29.4 7.8 38.9 15.4c9 7.2 17.5 13.9 34.8 13.9s25.8-6.8 34.8-13.9c9.5-7.5 19.3-15.4 38.9-15.4s29.4 7.8 38.9 15.4c9 7.2 17.5 13.9 34.8 13.9s25.8-6.8 34.8-13.9c9.5-7.5 19.3-15.4 38.9-15.4s29.4 7.8 38.9 15.4c8.8 7 17.3 13.6 33.9 13.9-2.3-23-7.7-45.5-16.1-67-7.8-2.8-14.9-7.1-21.1-12.5-9.2-7.3-17.9-14.2-35.6-14.2s-26.4 6.9-35.6 14.2c-9.3 7.4-19 15.1-38.1 15.1s-28.8-7.7-38.1-15.1c-9.2-7.3-17.9-14.2-35.6-14.2s-26.4 6.9-35.6 14.2c-9.3 7.4-19 15.1-38.1 15.1s-28.8-7.7-38.1-15.1c-9.2-7.3-17.9-14.2-35.6-14.2s-26.4 6.9-35.6 14.2c-9.3 7.4-19 15.1-38.1 15.1s-28.8-7.7-38.1-15.1c-2.1-1.6-4.1-3.3-6.2-4.8-8.5 17.9-14.9 36.7-19 56 13 2.2 20.9 8.4 28.6 14.4 8.9 7.1 17.4 13.9 34.7 13.9m0-68.5c17.7 0 26.4-6.9 35.6-14.2 9.3-7.4 19-15.1 38.1-15.1s28.8 7.7 38.1 15.1c9.2 7.3 17.9 14.2 35.6 14.2s26.4-6.9 35.6-14.2c9.3-7.4 19-15.1 38.1-15.1s28.8 7.7 38.1 15.1c9.2 7.3 17.9 14.2 35.6 14.2s26.4-6.9 35.6-14.2c9.3-7.4 19-15.1 38.1-15.1s28.8 7.7 38.1 15.1c5 4.3 10.6 7.9 16.7 10.7C438.6 28 289.1-34.4 158.5 19.3 100.9 43 53.9 86.8 26.3 142.7c2.4 1.7 4.7 3.5 6.9 5.3 9.2 7.3 17.9 14.2 35.7 14.2m368.6 188.2c-16.4 0-24.1 6.2-33.2 13.3-9.4 7.5-20.1 15.9-40.6 15.9s-31.2-8.5-40.6-15.9c-9-7.2-16.8-13.3-33.1-13.3-16.4 0-24.1 6.2-33.2 13.3-9.4 7.5-20.1 15.9-40.6 15.9s-31.2-8.5-40.6-15.9c-9-7.2-16.8-13.3-33.1-13.3s-24.1 6.2-33.1 13.3c-9.4 7.5-20.1 15.9-40.6 15.9s-31.2-8.5-40.6-15.9c-2.4-1.9-4.7-3.7-7.1-5.4 12.7 28.9 30.5 55.2 52.7 77.6 12.5-1.2 19.5-6.6 27.3-12.8 9.6-7.6 20.4-16.2 41.4-16.2s31.8 8.6 41.4 16.2c8.8 7 16.4 13 32.3 13s23.5-6 32.3-13c9.6-7.6 20.4-16.2 41.4-16.2s31.8 8.6 41.4 16.2c8.8 7 16.4 13 32.3 13s23.5-6 32.3-13c9.6-7.6 20.4-16.2 41.4-16.2 7.4-.1 14.8 1.2 21.7 3.9 9.1-12 17.2-24.8 24.1-38.2-4.5-2.6-8.7-5.6-12.7-8.9-8.8-7.1-16.5-13.3-32.9-13.3m73.3-113.1c-19.3-.1-29.1-7.8-38.5-15.3-9-7.2-17.5-13.9-34.8-13.9s-25.8 6.8-34.8 13.9c-9.5 7.5-19.3 15.4-38.9 15.4s-29.4-7.8-38.9-15.4c-9-7.2-17.5-13.9-34.8-13.9s-25.8 6.8-34.8 13.9c-9.5 7.5-19.3 15.4-38.9 15.4s-29.4-7.8-38.9-15.4c-9-7.2-17.5-13.9-34.8-13.9S117 214.9 108 222c-9.5 7.5-19.3 15.4-38.9 15.4s-29.4-7.8-38.9-15.4c-7.3-5.8-14.3-11.2-25.7-13.1C2.2 221.2.8 233.7.3 246.2c-.1 3.3-.3 6.6-.3 9.9s.1 6.6.3 9.9c.1 1.4.1 2.9.2 4.3 16.8 1.3 26.3 8.7 34.7 15.4 8.8 7 17.2 13.6 34 13.6s25.1-6.6 34-13.6c9.2-7.3 19.7-15.6 39.8-15.6s30.5 8.3 39.8 15.6c8.8 7 17.2 13.6 34 13.6s25.2-6.6 34-13.6c9.2-7.3 19.7-15.6 39.8-15.6s30.5 8.3 39.8 15.6c8.8 7 17.2 13.6 34 13.6s25.2-6.6 34-13.6c9.2-7.3 19.7-15.6 39.8-15.6s30.5 8.3 39.8 15.6c8.2 6.5 16.1 12.6 30.6 13.5 1.3-7.8 2.3-15.7 2.9-23.7.2-3.1.4-6.3.6-9.4v-19.8c-.9-3.3-1.3-9-1.3-9m-73.3 42c-16.8 0-25.2 6.6-34 13.6-9.2 7.3-19.7 15.6-39.8 15.6s-30.5-8.3-39.8-15.6c-8.8-7-17.2-13.6-34-13.6s-25.2 6.6-34 13.6c-9.2 7.3-19.7 15.6-39.8 15.6s-30.5-8.3-39.8-15.6c-8.8-7-17.2-13.6-34-13.6s-25.1 6.6-34 13.6c-9.2 7.3-19.7 15.6-39.8 15.6s-30.5-8.3-39.8-15.6c-7.8-6.2-15.1-12-28.2-13.3 1.9 21.1 6.5 42 13.6 62 7.8 3 15 7.4 21.2 12.9 9 7.2 16.8 13.3 33.1 13.3s24.1-6.2 33.1-13.3c9.4-7.5 20.1-15.9 40.6-15.9s31.2 8.5 40.6 15.9c9 7.2 16.8 13.3 33.1 13.3s24.1-6.2 33.1-13.3c9.4-7.5 20.1-15.9 40.6-15.9s31.2 8.5 40.6 15.9c9 7.2 16.8 13.3 33.2 13.3 16.3 0 24.1-6.2 33.1-13.3 9.4-7.5 20.1-15.9 40.6-15.9s31.2 8.5 40.6 15.9q4.95 4.2 10.5 7.5c7.9-17.2 13.8-35.2 17.6-53.7-16.8-1.3-26.3-8.7-34.7-15.4-8.3-7-16.7-13.6-33.5-13.6" style="fill:#fff"/></svg>