<?xml version="1.0" encoding="utf-8"?>
<!-- Generator: Adobe Illustrator 28.2.0, SVG Export Plug-In . SVG Version: 6.00 Build 0)  -->
<svg version="1.1" id="svg2" xmlns="http://www.w3.org/2000/svg" xmlns:xlink="http://www.w3.org/1999/xlink" x="0px" y="0px"
	 viewBox="0 0 512 512" style="enable-background:new 0 0 512 512;" xml:space="preserve">
<style type="text/css">
	.st0{fill:#FFFFFF;}
	.st1{display:none;}
	.st2{display:inline;fill:#FFFFFF;}
</style>
<g>
	<g id="path14">
		<path class="st0" d="M438,421.6c-15.9,0-23.5,6-32.3,13c-9.6,7.6-20.4,16.2-41.4,16.2c-21,0-31.8-8.6-41.4-16.2
			c-8.8-7-16.4-13-32.3-13c-15.9,0-23.5,6-32.3,13c-9.6,7.6-20.4,16.2-41.4,16.2s-31.8-8.6-41.4-16.2c-8.8-7-16.4-13-32.3-13
			s-23.5,6-32.3,13c-6.8,6-14.7,10.6-23.3,13.6c41.1,36.3,92.9,58.3,147.5,62.8c1.5,0.1,3.1,0.2,4.6,0.4c5.5,0.4,11,0.6,16.6,0.6
			c5.6,0,11.1-0.2,16.6-0.6c1.5-0.1,3.1-0.2,4.6-0.4c66.8-5.6,128.8-37.2,172.5-88C446,422.1,442,421.6,438,421.6"/>
	</g>
	<g id="path16">
		<path class="st0" d="M69.3,230.7c17.3,0,25.8-6.8,34.8-13.9c9.5-7.5,19.3-15.4,38.9-15.4s29.4,7.8,38.9,15.4
			c9,7.2,17.5,13.9,34.8,13.9s25.8-6.8,34.8-13.9c9.5-7.5,19.3-15.4,38.9-15.4c19.6,0,29.4,7.8,38.9,15.4c9,7.2,17.5,13.9,34.8,13.9
			s25.8-6.8,34.8-13.9c9.5-7.5,19.3-15.4,38.9-15.4c19.6,0,29.4,7.8,38.9,15.4c8.8,7,17.3,13.6,33.9,13.9c-2.3-23-7.7-45.5-16.1-67
			c-7.8-2.8-14.9-7.1-21.1-12.5c-9.2-7.3-17.9-14.2-35.6-14.2c-17.7,0-26.4,6.9-35.6,14.2c-9.3,7.4-19,15.1-38.1,15.1
			s-28.8-7.7-38.1-15.1c-9.2-7.3-17.9-14.2-35.6-14.2c-17.7,0-26.4,6.9-35.6,14.2c-9.3,7.4-19,15.1-38.1,15.1
			c-19.1,0-28.8-7.7-38.1-15.1c-9.2-7.3-17.9-14.2-35.6-14.2c-17.7,0-26.4,6.9-35.6,14.2c-9.3,7.4-19,15.1-38.1,15.1
			c-19.1,0-28.8-7.7-38.1-15.1c-2.1-1.6-4.1-3.3-6.2-4.8c-8.5,17.9-14.9,36.7-19,56c13,2.2,20.9,8.4,28.6,14.4
			C43.5,223.9,52,230.7,69.3,230.7"/>
	</g>
	<g id="path18">
		<path class="st0" d="M69.3,162.2c17.7,0,26.4-6.9,35.6-14.2c9.3-7.4,19-15.1,38.1-15.1s28.8,7.7,38.1,15.1
			c9.2,7.3,17.9,14.2,35.6,14.2s26.4-6.9,35.6-14.2c9.3-7.4,19-15.1,38.1-15.1c19.1,0,28.8,7.7,38.1,15.1
			c9.2,7.3,17.9,14.2,35.6,14.2c17.7,0,26.4-6.9,35.6-14.2c9.3-7.4,19-15.1,38.1-15.1c19.1,0,28.8,7.7,38.1,15.1
			c5,4.3,10.6,7.9,16.7,10.7C439.1,28,289.6-34.4,158.9,19.3C101.3,43,54.3,86.8,26.7,142.7c2.4,1.7,4.7,3.5,6.9,5.3
			C42.8,155.3,51.5,162.2,69.3,162.2"/>
	</g>
	<g id="path20">
		<path class="st0" d="M438,350.4c-16.4,0-24.1,6.2-33.2,13.3c-9.4,7.5-20.1,15.9-40.6,15.9c-20.5,0-31.2-8.5-40.6-15.9
			c-9-7.2-16.8-13.3-33.1-13.3c-16.4,0-24.1,6.2-33.2,13.3c-9.4,7.5-20.1,15.9-40.6,15.9s-31.2-8.5-40.6-15.9
			c-9-7.2-16.8-13.3-33.1-13.3s-24.1,6.2-33.1,13.3c-9.4,7.5-20.1,15.9-40.6,15.9c-20.5,0-31.2-8.5-40.6-15.9
			c-2.4-1.9-4.7-3.7-7.1-5.4c12.7,28.9,30.5,55.2,52.7,77.6c12.5-1.2,19.5-6.6,27.3-12.8c9.6-7.6,20.4-16.2,41.4-16.2
			c21,0,31.8,8.6,41.4,16.2c8.8,7,16.4,13,32.3,13c15.9,0,23.5-6,32.3-13c9.6-7.6,20.4-16.2,41.4-16.2s31.8,8.6,41.4,16.2
			c8.8,7,16.4,13,32.3,13c15.9,0,23.5-6,32.3-13c9.6-7.6,20.4-16.2,41.4-16.2c7.4-0.1,14.8,1.2,21.7,3.9c9.1-12,17.2-24.8,24.1-38.2
			c-4.5-2.6-8.7-5.6-12.7-8.9C462.1,356.6,454.4,350.4,438,350.4"/>
	</g>
	<g id="path22">
		<path class="st0" d="M511.3,237.3c-19.3-0.1-29.1-7.8-38.5-15.3c-9-7.2-17.5-13.9-34.8-13.9c-17.3,0-25.8,6.8-34.8,13.9
			c-9.5,7.5-19.3,15.4-38.9,15.4c-19.6,0-29.4-7.8-38.9-15.4c-9-7.2-17.5-13.9-34.8-13.9c-17.3,0-25.8,6.8-34.8,13.9
			c-9.5,7.5-19.3,15.4-38.9,15.4c-19.6,0-29.4-7.8-38.9-15.4c-9-7.2-17.5-13.9-34.8-13.9c-17.3,0-25.8,6.8-34.8,13.9
			c-9.5,7.5-19.3,15.4-38.9,15.4c-19.6,0-29.4-7.8-38.9-15.4c-7.3-5.8-14.3-11.2-25.7-13.1c-2.3,12.3-3.7,24.8-4.2,37.3
			c-0.1,3.3-0.3,6.6-0.3,9.9c0,3.3,0.1,6.6,0.3,9.9c0.1,1.4,0.1,2.9,0.2,4.3c16.8,1.3,26.3,8.7,34.7,15.4c8.8,7,17.2,13.6,34,13.6
			s25.1-6.6,34-13.6c9.2-7.3,19.7-15.6,39.8-15.6s30.5,8.3,39.8,15.6c8.8,7,17.2,13.6,34,13.6s25.2-6.6,34-13.6
			c9.2-7.3,19.7-15.6,39.8-15.6c20.1,0,30.5,8.3,39.8,15.6c8.8,7,17.2,13.6,34,13.6c16.8,0,25.2-6.6,34-13.6
			c9.2-7.3,19.7-15.6,39.8-15.6s30.5,8.3,39.8,15.6c8.2,6.5,16.1,12.6,30.6,13.5c1.3-7.8,2.3-15.7,2.9-23.7c0.2-3.1,0.4-6.3,0.6-9.4
			v-19.8C511.7,243,511.3,237.3,511.3,237.3"/>
	</g>
	<g id="path24">
		<path class="st0" d="M438,279.3c-16.8,0-25.2,6.6-34,13.6c-9.2,7.3-19.7,15.6-39.8,15.6c-20.1,0-30.5-8.3-39.8-15.6
			c-8.8-7-17.2-13.6-34-13.6c-16.8,0-25.2,6.6-34,13.6c-9.2,7.3-19.7,15.6-39.8,15.6s-30.5-8.3-39.8-15.6c-8.8-7-17.2-13.6-34-13.6
			s-25.1,6.6-34,13.6c-9.2,7.3-19.7,15.6-39.8,15.6c-20.1,0-30.5-8.3-39.8-15.6c-7.8-6.2-15.1-12-28.2-13.3c1.9,21.1,6.5,42,13.6,62
			c7.8,3,15,7.4,21.2,12.9c9,7.2,16.8,13.3,33.1,13.3c16.3,0,24.1-6.2,33.1-13.3c9.4-7.5,20.1-15.9,40.6-15.9s31.2,8.5,40.6,15.9
			c9,7.2,16.8,13.3,33.1,13.3s24.1-6.2,33.1-13.3c9.4-7.5,20.1-15.9,40.6-15.9c20.5,0,31.2,8.5,40.6,15.9c9,7.2,16.8,13.3,33.2,13.3
			c16.3,0,24.1-6.2,33.1-13.3c9.4-7.5,20.1-15.9,40.6-15.9c20.5,0,31.2,8.5,40.6,15.9c3.3,2.8,6.8,5.3,10.5,7.5
			c7.9-17.2,13.8-35.2,17.6-53.7c-16.8-1.3-26.3-8.7-34.7-15.4C463.2,285.9,454.8,279.3,438,279.3"/>
	</g>
	<g id="path26" class="st1">
		<path class="st2" d="M396.6,423.2c-8.8,7-16.4,13-32.3,13c-15.9,0-23.5-6-32.3-13c-9.6-7.6-20.4-16.2-41.4-16.2
			s-31.8,8.6-41.4,16.2c-8.8,7-16.4,13-32.3,13c-15.9,0-23.5-6-32.3-13C174.9,415.6,164,407,143,407c-21,0-31.8,8.6-41.4,16.2
			c-7.8,6.2-14.7,11.6-27.3,12.8c4.2,4.2,8.6,8.3,13,12.2c8.6-3,16.5-7.6,23.3-13.6c8.8-7,16.4-13,32.3-13s23.5,6,32.3,13
			c9.6,7.6,20.4,16.2,41.4,16.2s31.8-8.6,41.4-16.2c8.8-7,16.4-13,32.3-13c15.9,0,23.5,6,32.3,13c9.6,7.6,20.4,16.2,41.4,16.2
			c21,0,31.8-8.6,41.4-16.2c8.8-7,16.4-13,32.3-13c4,0,8,0.4,11.8,1.4c3.4-4,6.7-8,9.9-12.1c-6.9-2.7-14.3-4-21.7-3.9
			C417,407,406.2,415.6,396.6,423.2"/>
	</g>
	<g id="path28" class="st1">
		<path class="st2" d="M438,338.5c-20.5,0-31.2,8.5-40.6,15.9c-9,7.2-16.8,13.3-33.1,13.3c-16.4,0-24.1-6.2-33.2-13.3
			c-9.4-7.5-20.1-15.9-40.6-15.9c-20.5,0-31.2,8.5-40.6,15.9c-9,7.2-16.8,13.3-33.1,13.3s-24.1-6.2-33.1-13.3
			c-9.4-7.5-20.1-15.9-40.6-15.9s-31.2,8.5-40.6,15.9c-9,7.2-16.8,13.3-33.1,13.3c-16.4,0-24.1-6.2-33.1-13.3
			c-6.3-5.5-13.5-9.9-21.2-12.9c2,5.7,4.3,11.3,6.7,16.9c2.4,1.7,4.7,3.5,7.1,5.4c9.4,7.5,20.1,15.9,40.6,15.9
			c20.5,0,31.2-8.5,40.6-15.9c9-7.2,16.8-13.3,33.1-13.3s24.1,6.2,33.1,13.3c9.4,7.5,20.1,15.9,40.6,15.9s31.2-8.5,40.6-15.9
			c9-7.2,16.8-13.3,33.2-13.3c16.3,0,24.1,6.2,33.1,13.3c9.4,7.5,20.1,15.9,40.6,15.9c20.5,0,31.2-8.5,40.6-15.9
			c9-7.2,16.8-13.3,33.2-13.3c16.3,0,24.1,6.2,33.1,13.3c4,3.3,8.2,6.3,12.7,8.9c1.8-3.5,3.6-7.1,5.2-10.8
			c-3.7-2.3-7.2-4.8-10.5-7.5C469.2,346.9,458.5,338.5,438,338.5"/>
	</g>
	<g id="path30" class="st1">
		<path class="st2" d="M438,269.9c-20.1,0-30.5,8.3-39.8,15.6c-8.8,7-17.2,13.6-34,13.6c-16.8,0-25.1-6.6-34-13.6
			c-9.2-7.3-19.7-15.6-39.8-15.6c-20.1,0-30.5,8.3-39.8,15.6c-8.8,7-17.2,13.6-34,13.6s-25.1-6.6-34-13.6
			c-9.2-7.3-19.7-15.6-39.8-15.6s-30.5,8.3-39.8,15.6c-8.8,7-17.2,13.6-34,13.6c-16.8,0-25.2-6.6-34-13.6
			c-8.4-6.7-17.9-14.1-34.7-15.4c0.2,3.1,0.4,6.2,0.7,9.3c13.1,1.3,20.5,7.2,28.2,13.3c9.2,7.3,19.7,15.6,39.8,15.6
			c20.1,0,30.5-8.3,39.8-15.6c8.8-7,17.2-13.6,34-13.6s25.1,6.6,34,13.6c9.2,7.3,19.7,15.6,39.8,15.6s30.5-8.3,39.8-15.6
			c8.8-7,17.2-13.6,34-13.6c16.8,0,25.1,6.6,34,13.6c9.2,7.3,19.7,15.6,39.8,15.6c20.1,0,30.5-8.3,39.8-15.6
			c8.8-7,17.2-13.6,34-13.6c16.8,0,25.2,6.6,34,13.6c8.4,6.7,18,14.1,34.7,15.4c0.6-3,1.2-6.1,1.7-9.2c-14.6-0.8-22.4-6.9-30.6-13.5
			C468.5,278.3,458.1,269.9,438,269.9"/>
	</g>
	<g id="path32" class="st1">
		<path class="st2" d="M69.3,237.3c19.6,0,29.4-7.8,38.9-15.4c9-7.2,17.5-13.9,34.8-13.9c17.3,0,25.8,6.8,34.8,13.9
			c9.5,7.5,19.3,15.4,38.9,15.4s29.4-7.8,38.9-15.4c9-7.2,17.5-13.9,34.8-13.9c17.3,0,25.8,6.8,34.8,13.9
			c9.5,7.5,19.3,15.4,38.9,15.4c19.6,0,29.4-7.8,38.9-15.4c9-7.2,17.5-13.9,34.8-13.9c17.3,0,25.8,6.8,34.8,13.9
			c9.4,7.5,19.2,15.2,38.5,15.3l0-0.6c-0.2-2-0.3-4.1-0.5-6.1c-16.6-0.2-25-6.8-33.9-13.9c-9.5-7.5-19.4-15.4-38.9-15.4
			c-19.6,0-29.4,7.8-38.9,15.4c-9,7.2-17.5,13.9-34.8,13.9s-25.8-6.8-34.8-13.9c-9.5-7.5-19.3-15.4-38.9-15.4
			c-19.6,0-29.4,7.8-38.9,15.4c-9,7.2-17.5,13.9-34.8,13.9s-25.8-6.8-34.8-13.9c-9.5-7.5-19.3-15.4-38.9-15.4s-29.4,7.8-38.9,15.4
			c-9,7.2-17.5,13.9-34.8,13.9c-17.3,0-25.8-6.8-34.8-13.9c-7.7-6.1-15.6-12.2-28.6-14.4c-0.5,2.2-0.9,4.3-1.3,6.5
			c11.5,1.9,18.5,7.4,25.7,13.1C39.8,229.5,49.7,237.3,69.3,237.3"/>
	</g>
	<g id="path34" class="st1">
		<path class="st2" d="M69.3,166.2c19.1,0,28.8-7.7,38.1-15.1c9.2-7.3,17.9-14.2,35.6-14.2c17.7,0,26.4,6.9,35.6,14.2
			c9.3,7.4,19,15.1,38.1,15.1c19.1,0,28.8-7.7,38.1-15.1c9.2-7.3,17.9-14.2,35.6-14.2c17.7,0,26.4,6.9,35.6,14.2
			c9.3,7.4,19,15.1,38.1,15.1c19.1,0,28.8-7.7,38.1-15.1c9.2-7.3,17.9-14.2,35.6-14.2s26.4,6.9,35.6,14.2
			c6.2,5.5,13.4,9.7,21.1,12.5c-0.6-1.7-1.3-3.3-2-5c-6-2.7-11.7-6.3-16.7-10.7c-9.3-7.4-19-15.1-38.1-15.1
			c-19.1,0-28.8,7.7-38.1,15.1c-9.2,7.3-17.9,14.2-35.6,14.2c-17.7,0-26.4-6.9-35.6-14.2c-9.3-7.4-19-15.1-38.1-15.1
			c-19.1,0-28.8,7.7-38.1,15.1c-9.2,7.3-17.9,14.2-35.6,14.2s-26.4-6.9-35.6-14.2c-9.3-7.4-19-15.1-38.1-15.1s-28.8,7.7-38.1,15.1
			c-9.2,7.3-17.9,14.2-35.6,14.2c-17.7,0-26.4-6.9-35.6-14.2c-2.2-1.8-4.5-3.6-6.9-5.3c-0.6,1.2-1.2,2.4-1.8,3.6
			c2.1,1.5,4.2,3.1,6.2,4.8C40.5,158.5,50.1,166.2,69.3,166.2"/>
	</g>
</g>
</svg>
