<svg xmlns="http://www.w3.org/2000/svg" xml:space="preserve" viewBox="0 0 512 512"><path d="m256.7 286.1-57.5 99.7c-18.4 31.9-7.5 72.8 24.5 91.2q3.3 1.8 6.6 3.3c.7.3 1.5.6 2.2.9.8.3 1.7.6 2.5.9 1.3.5 2.7.9 4.1 1.3.4.1.8.2 1.3.4 1.7.4 3.4.8 5.2 1.1.5.1 1 .2 1.4.2q2.7.45 5.4.6h.3c1.9.1 3.8.1 5.7.1h1.5c1.8-.1 3.6-.2 5.4-.4h.3c1.9-.2 3.8-.6 5.8-1l1.2-.3c6.2-1.5 12.3-3.9 18.1-7.2 10.5-6.1 18.7-14.6 24.3-24.5 11.5-20 12.2-45.5-.2-66.9zm.6 161.4c-13.8 0-25-11.2-25-25s11.2-25 25-25 25 11.2 25 25-11.2 25-25 25m-67.6-67.2 60.7-105.2L124.5 59.2C105.9 27.3 65 16.6 33.2 35.1 1.3 53.7-9.5 94.6 9.1 126.5l170.2 292c.1-13 3.4-26.1 10.4-38.2M67.5 113.6c-13.8 0-25-11.2-25-25s11.2-25 25-25 25 11.2 25 25c.1 13.8-11.1 25-25 25M478.6 35c-32-18.4-72.8-7.5-91.2 24.5L263 275.1 324.2 380c6.8 11.7 10.4 24.9 10.5 38.1l168.4-291.9c18.4-31.9 7.4-72.8-24.5-91.2m-33.1 78.6c-13.8 0-25-11.2-25-25s11.2-25 25-25 25 11.2 25 25-11.2 25-25 25" style="fill:#fff"/></svg>