<svg xmlns="http://www.w3.org/2000/svg" xml:space="preserve" viewBox="0 0 512 512"><path d="M512 261.4c0 68.3-26.7 132.7-75 181-25.8 25.9-56.2 45.5-89.3 58.2-5.3-30.1-11.4-58.4-12.4-69.4-2.8-33.6-11-69.3 0-101.7 9.5-27.9 25.2-36.5 27.2-79.6.7-15.2-3.9-63.2-3.9-63.2s6.7-17.5-5.1-37.8c14.2-29.3 19.7-56.1 6.3-91.3-5.2-13.7-35.2-49.4-36.6-15.4-.5 12.8-2.4 61.5-6.6 76.8-20.4-7.9-42.7-8.7-57.2-8.7-12.2 0-29.7.6-47 5.5-.1-1.3-.5-2.7-.5-4.2 0-19.8 1.2-39.4 1.6-58.8.5-13.3 5.7-29.1-14.3-22.9-42.6 13.3-42.2 72.2-40.3 103.1.3 5 .8 10.1 2.2 15 .3 1.3.9 4.2 2.3 5.4-8.5 18.3-2.7 33.3-2.7 33.3s-2.5 24.7-4.4 46.5c-.5 5.1 0 25.4.7 30.2 1.1 8.7 3.8 17.4 6.9 25.7 3.8 10.6 9.8 21.4 14.4 32.2 13.9 32.8 2.2 73.6 2.9 109.1.6 24.5-5 49.3-7.4 73.3-36.8-12.5-70.6-33.3-98.8-61.6C26.5 394-.1 329.8 0 261.4c0-60 20.4-116.7 58.1-162.4C63.4 92.6 69 86.3 75 80.4c48.3-48.4 112.6-75 181-75 70.8 0 136.3 27.8 184.4 78.5 4.7 4.9 9.1 9.9 13.4 15.2C491 144.7 512 202.9 512 261.4M175.9 151.3c.7 6.2 10-1.4 14.9-15.9 2.5-7.3 4.5-6.5 7.1-18.6.9-4.4-1.1-9.4-1.3-19.1-.1-5.1.6-19.6-.1-24.7-.5-3.7-1.3-12.9-4.2-10.1-26.7 24.4-19 65.4-16.4 88.4m166.7-4.6c-2.6-5.1-9.4-6.1-9.4-28.7 0-10 3.1-19.8 4.8-29.7 1.4-7.9 1.6-24.7 2.2-26.9 1.4-5.8 13.6 11 15.6 16.8 3.7 10.7 1 25-1.1 35.8-2.2 11.3-9.3 37.7-12.1 32.7M254.7 417c1.3-3.8 8.2-2.4 6.8 1.5-1.9 5.5-13.9 11.4-20.1 8-4.5-2.4-8.9-5.3-10.9-9.8-1-2.3-1.6-4.7-2.1-7.1-11.9 4.9-32.6-13.1-24.9-22.7 2.6-3.3 8.9-.4 6.3 2.9-3.9 5 13.3 20 17.7 12.1 1.3-2.4 5.7-2.1 6.5.5 1.3 4.2 1.2 10.1 4.3 13.8 2.2 2.7 5.7 5.8 9.7 4.5 1.8-.7 6.1-2 6.7-3.7m54.9-58.3c-1-3.9 6-5.1 6.9-1.1 1.3 5.2.6 10.8-3.6 14.9-2.4 2.3-5.4 2-8.1.7-3.4 5.9-12.1 7.5-20 4.7-4.2-1.5-2-7.4 2.3-5.9 5.4 1.8 11.7 1.7 12.1-4.5.2-2.7 4.2-3.9 6.2-1.9 4.9 4.8 4.8-4.2 4.2-6.9m12.6 130.5c1.8-3.7 7.9-.6 6.2 3.2-2.6 5.2-7.7 6.8-13.2 5.9-1.6 7.3-12.3 10.4-20.7 6.9-4.2-1.7-.6-7.1 3.5-5.4 4.6 1.9 11.6.3 9.9-5.1-.8-2.7 2.5-4.7 5.2-3.5 3.8 1.6 7.2 1.8 9.1-2m-54.7-294.5c.5-3.5 6.5-2 5.9 1.4-1.6 9.7-13 6-20.2 2.1-3.4 4.5-11.6 4.5-17.5 1.6-8.7-4.3-8.2-10.5-6.1-17.4-5.1 1.2-11 1.2-15.2.2-7.7-1.9-5.3-10.9-1.7-14.9 2.5-2.8 6.9 1.1 4.4 3.8-7.8 8.5 11.9 6.2 15.9 3.6 2.3-1.4 5.4 1 4.6 3.1-1.2 3.4-3.5 7.1-3.4 10.7s3.5 6.1 7.4 6.9c2.1.4 6.6 1.4 7-2 .3-2.5 3.1-3.4 5.3-1.9 2.7 1.9 12.7 8.2 13.6 2.8m-3.8 130.8c2.2.8 4.9-.7 5.2-2.7 0-.2.1-.5.1-.7-1.2.1-2.5.2-3.7.2s-2.4.1-3.6 0c.2 1.5.8 2.8 2 3.2m29.4-70.7c-6.8-6-14.9-8.3-27.6-8-12.8-.3-22 3.6-28.6 10.4-10 10.4-12.7 16.6-12.7 36.3 0 10.6 11.5 34.2 14.9 39.6 5.6 9.5 16.2 13.1 26.4 12.4 10.2.7 20.8-2.7 26.4-12.4 3.4-5.3 14.7-28.4 14.7-41 0-19.7-2.5-27.6-13.5-37.3M265.5 331c-11.4.3-23.9-4.6-31.8-11.6 9.4.8 18.6 2.8 28 2.9-.3-1.7-.2-3.6-.3-4.7-.7-7.8-.5-15.6.7-23.3v-.1c-1.8-2.2-3.5-4.6-5.3-6.7s-3.8-4.3-6.3-5.9c-1.3-.8-4.2-1.8-1-2.7 5.4-1.5 11.9 1.1 16.2 3.9 4.7-3.4 10.5-6.9 16.9-7.2 1.9.8-.3 2.2-.9 3.1-.8.9-1.4 1.9-2.1 2.9-1.1 1.5-7.8 10.5-8.6 11.4-.6.6-1.3 1.2-2 1.8.4 1.6-.2 3.6-.4 5.2-.4 4-.5 7.9-.4 12 .1 3.2 1.3 7.1 1 10.3 5.6-.4 11.3-1.2 16.8-2 4.8-.7 10.8-1.6 14.1-5.1 0 11.8-25 15.6-34.6 15.8m-62.9-98.1c-.9 2-2.1 5.4.1 4.8 4.8-1.2 9.7-13.7 13.4-12.9 5.6 1.3 8 11.2 11 12.3 5.6 2.2-3.1-19.4-9.5-20.8-8.6-1.7-11.9 8.6-15 16.6m91.7 0c-.9 2-2 5.4.1 4.8 4.8-1.2 9.7-13.7 13.4-12.9 5.6 1.3 8 11.2 11 12.3 5.6 2.2-3.1-19.4-9.5-20.8-8.5-1.7-11.9 8.6-15 16.6"/></svg>