<?xml version="1.0" encoding="utf-8"?>
<!-- Generator: Adobe Illustrator 28.2.0, SVG Export Plug-In . SVG Version: 6.00 Build 0)  -->
<svg version="1.1" id="Layer_1" xmlns="http://www.w3.org/2000/svg" xmlns:xlink="http://www.w3.org/1999/xlink" x="0px" y="0px"
	 viewBox="0 0 512 512" style="enable-background:new 0 0 512 512;" xml:space="preserve">
<path d="M512,261.4c0,68.3-26.7,132.7-75,181c-25.8,25.9-56.2,45.5-89.3,58.2c-5.3-30.1-11.4-58.4-12.4-69.4
	c-2.8-33.6-11-69.3,0-101.7c9.5-27.9,25.2-36.5,27.2-79.6c0.7-15.2-3.9-63.2-3.9-63.2s6.7-17.5-5.1-37.8
	c14.2-29.3,19.7-56.1,6.3-91.3c-5.2-13.7-35.2-49.4-36.6-15.4c-0.5,12.8-2.4,61.5-6.6,76.8c-20.4-7.9-42.7-8.7-57.2-8.7
	c-12.2,0-29.7,0.6-47,5.5c-0.1-1.3-0.5-2.7-0.5-4.2c0-19.8,1.2-39.4,1.6-58.8c0.5-13.3,5.7-29.1-14.3-22.9
	c-42.6,13.3-42.2,72.2-40.3,103.1c0.3,5,0.8,10.1,2.2,15c0.3,1.3,0.9,4.2,2.3,5.4c-8.5,18.3-2.7,33.3-2.7,33.3s-2.5,24.7-4.4,46.5
	c-0.5,5.1,0,25.4,0.7,30.2c1.1,8.7,3.8,17.4,6.9,25.7c3.8,10.6,9.8,21.4,14.4,32.2c13.9,32.8,2.2,73.6,2.9,109.1
	c0.6,24.5-5,49.3-7.4,73.3c-36.8-12.5-70.6-33.3-98.8-61.6C26.5,394-0.1,329.8,0,261.4c0-60,20.4-116.7,58.1-162.4
	c5.3-6.4,10.9-12.7,16.9-18.6c48.3-48.4,112.6-75,181-75c70.8,0,136.3,27.8,184.4,78.5c4.7,4.9,9.1,9.9,13.4,15.2
	C491,144.7,512,202.9,512,261.4z M175.9,151.3c0.7,6.2,10-1.4,14.9-15.9c2.5-7.3,4.5-6.5,7.1-18.6c0.9-4.4-1.1-9.4-1.3-19.1
	c-0.1-5.1,0.6-19.6-0.1-24.7c-0.5-3.7-1.3-12.9-4.2-10.1C165.6,87.3,173.3,128.3,175.9,151.3 M342.6,146.7
	c-2.6-5.1-9.4-6.1-9.4-28.7c0-10,3.1-19.8,4.8-29.7c1.4-7.9,1.6-24.7,2.2-26.9c1.4-5.8,13.6,11,15.6,16.8c3.7,10.7,1,25-1.1,35.8
	C352.5,125.3,345.4,151.7,342.6,146.7 M254.7,417c1.3-3.8,8.2-2.4,6.8,1.5c-1.9,5.5-13.9,11.4-20.1,8c-4.5-2.4-8.9-5.3-10.9-9.8
	c-1-2.3-1.6-4.7-2.1-7.1c-11.9,4.9-32.6-13.1-24.9-22.7c2.6-3.3,8.9-0.4,6.3,2.9c-3.9,5,13.3,20,17.7,12.1c1.3-2.4,5.7-2.1,6.5,0.5
	c1.3,4.2,1.2,10.1,4.3,13.8c2.2,2.7,5.7,5.8,9.7,4.5C249.8,420,254.1,418.7,254.7,417 M309.6,358.7c-1-3.9,6-5.1,6.9-1.1
	c1.3,5.2,0.6,10.8-3.6,14.9c-2.4,2.3-5.4,2-8.1,0.7c-3.4,5.9-12.1,7.5-20,4.7c-4.2-1.5-2-7.4,2.3-5.9c5.4,1.8,11.7,1.7,12.1-4.5
	c0.2-2.7,4.2-3.9,6.2-1.9C310.3,370.4,310.2,361.4,309.6,358.7 M322.2,489.2c1.8-3.7,7.9-0.6,6.2,3.2c-2.6,5.2-7.7,6.8-13.2,5.9
	c-1.6,7.3-12.3,10.4-20.7,6.9c-4.2-1.7-0.6-7.1,3.5-5.4c4.6,1.9,11.6,0.3,9.9-5.1c-0.8-2.7,2.5-4.7,5.2-3.5
	C316.9,492.8,320.3,493,322.2,489.2 M267.5,194.7c0.5-3.5,6.5-2,5.9,1.4c-1.6,9.7-13,6-20.2,2.1c-3.4,4.5-11.6,4.5-17.5,1.6
	c-8.7-4.3-8.2-10.5-6.1-17.4c-5.1,1.2-11,1.2-15.2,0.2c-7.7-1.9-5.3-10.9-1.7-14.9c2.5-2.8,6.9,1.1,4.4,3.8
	c-7.8,8.5,11.9,6.2,15.9,3.6c2.3-1.4,5.4,1,4.6,3.1c-1.2,3.4-3.5,7.1-3.4,10.7c0.1,3.6,3.5,6.1,7.4,6.9c2.1,0.4,6.6,1.4,7-2
	c0.3-2.5,3.1-3.4,5.3-1.9C256.6,193.8,266.6,200.1,267.5,194.7 M263.7,325.5c2.2,0.8,4.9-0.7,5.2-2.7c0-0.2,0.1-0.5,0.1-0.7
	c-1.2,0.1-2.5,0.2-3.7,0.2c-1.2,0-2.4,0.1-3.6,0C261.9,323.8,262.5,325.1,263.7,325.5z M293.1,254.8c-6.8-6-14.9-8.3-27.6-8
	c-12.8-0.3-22,3.6-28.6,10.4c-10,10.4-12.7,16.6-12.7,36.3c0,10.6,11.5,34.2,14.9,39.6c5.6,9.5,16.2,13.1,26.4,12.4
	c10.2,0.7,20.8-2.7,26.4-12.4c3.4-5.3,14.7-28.4,14.7-41C306.6,272.4,304.1,264.5,293.1,254.8z M265.5,331
	c-11.4,0.3-23.9-4.6-31.8-11.6c9.4,0.8,18.6,2.8,28,2.9c-0.3-1.7-0.2-3.6-0.3-4.7c-0.7-7.8-0.5-15.6,0.7-23.3c0,0,0-0.1,0-0.1
	c-1.8-2.2-3.5-4.6-5.3-6.7c-1.8-2.1-3.8-4.3-6.3-5.9c-1.3-0.8-4.2-1.8-1-2.7c5.4-1.5,11.9,1.1,16.2,3.9c4.7-3.4,10.5-6.9,16.9-7.2
	c1.9,0.8-0.3,2.2-0.9,3.1c-0.8,0.9-1.4,1.9-2.1,2.9c-1.1,1.5-7.8,10.5-8.6,11.4c-0.6,0.6-1.3,1.2-2,1.8c0.4,1.6-0.2,3.6-0.4,5.2
	c-0.4,4-0.5,7.9-0.4,12c0.1,3.2,1.3,7.1,1,10.3c5.6-0.4,11.3-1.2,16.8-2c4.8-0.7,10.8-1.6,14.1-5.1C300.1,327,275.1,330.8,265.5,331
	z M202.6,232.9c-0.9,2-2.1,5.4,0.1,4.8c4.8-1.2,9.7-13.7,13.4-12.9c5.6,1.3,8,11.2,11,12.3c5.6,2.2-3.1-19.4-9.5-20.8
	C209,214.6,205.7,224.9,202.6,232.9 M294.3,232.9c-0.9,2-2,5.4,0.1,4.8c4.8-1.2,9.7-13.7,13.4-12.9c5.6,1.3,8,11.2,11,12.3
	c5.6,2.2-3.1-19.4-9.5-20.8C300.8,214.6,297.4,224.9,294.3,232.9"/>
</svg>
