<svg xmlns="http://www.w3.org/2000/svg" xml:space="preserve" viewBox="0 0 512 512"><path d="M256 0C114.6 0 0 114.6 0 256s114.6 256 256 256 256-114.6 256-256S397.4 0 256 0m123.4 231.6c-10.5 23-30.5 55.8-49.5 80.1-40.9 52.9-70.9 79.4-102.2 79.4-20.8 0-37.8-18.3-46-48.4-8.2-30-16.2-59-24.2-88.6-9-32.2-10.5-49.5-26.2-49.5-8.2 0-13.8 3.2-18.5 6l-6.3-13.1s43.3-61.4 87.4-61.4c19.2 0 23.1 13.6 28.5 47.7 5.8 36.8 9.9 59.6 12.1 68.6 6.8 30.5 11.4 47.4 21.8 47.4 23.4 0 49.5-56.1 49.5-79 0-13.8-5.9-19-12.9-19-6.5 0-12.1 3.1-16.9 6l-4.1-6s25.1-68.5 78.1-68.5c31.2 0 41.7 19.8 41.7 46.2 0 9.1-1.7 28.9-12.3 52.1" style="fill:#fff"/></svg>