<svg xmlns="http://www.w3.org/2000/svg" xml:space="preserve" style="enable-background:new 0 0 512 512" viewBox="0 0 512 512"><linearGradient id="virtualbox-2010_svg__a" x1="-116.625" x2="135.757" y1="-471.29" y2="-471.29" gradientTransform="matrix(1 0 0 -1 246.69 -73.705)" gradientUnits="userSpaceOnUse"><stop offset="0" style="stop-color:#0a2b4d"/><stop offset=".042" style="stop-color:#7da5dc"/><stop offset=".044" style="stop-color:#83a9de"/><stop offset=".055" style="stop-color:#a1bfe8"/><stop offset=".067" style="stop-color:#b9d0f0"/><stop offset=".079" style="stop-color:#cadcf6"/><stop offset=".093" style="stop-color:#d4e4f9"/><stop offset=".11" style="stop-color:#d7e6fa"/><stop offset=".254" style="stop-color:#d0dcfa"/><stop offset=".42" style="stop-color:#85a0c8"/><stop offset=".57" style="stop-color:#2e4573"/><stop offset=".698" style="stop-color:#14335e"/><stop offset=".769" style="stop-color:#1c3866"/><stop offset=".846" style="stop-color:#4f73aa"/><stop offset=".915" style="stop-color:#6487b9"/><stop offset="1" style="stop-color:#1a3b61"/></linearGradient><path d="M258.3 284.2c68.5 0 124.4 48.1 124.4 107.2v13.5c0 59.1-55.9 106.1-124.4 106.1-68.6 0-124.5-47-124.5-106.1v-13.5c-.1-59.1 55.9-107.2 124.5-107.2" style="fill:url(#virtualbox-2010_svg__a)"/><linearGradient id="virtualbox-2010_svg__b" x1="-56.552" x2="79.438" y1="-548.973" y2="-381.039" gradientTransform="matrix(1 0 0 -1 246.69 -73.705)" gradientUnits="userSpaceOnUse"><stop offset="0" style="stop-color:#e1e6fa"/><stop offset=".07" style="stop-color:#b4c3e1"/><stop offset=".11" style="stop-color:#8293b8"/><stop offset=".155" style="stop-color:#2d4173"/><stop offset=".289" style="stop-color:#1b2f61"/><stop offset=".5" style="stop-color:#14285a"/><stop offset=".7" style="stop-color:#14285a"/><stop offset=".866" style="stop-color:#213970"/><stop offset="1" style="stop-color:#4164a5"/></linearGradient><ellipse cx="258.1" cy="391.3" rx="118.6" ry="100.6" style="fill:url(#virtualbox-2010_svg__b)"/><defs><filter id="virtualbox-2010_svg__c" width="238.2" height="202" x="139" y="290.3" filterUnits="userSpaceOnUse"><feColorMatrix values="1 0 0 0 0 0 1 0 0 0 0 0 1 0 0 0 0 0 1 0"/></filter></defs><mask id="virtualbox-2010_svg__e" width="238.2" height="202" x="139" y="290.3" maskUnits="userSpaceOnUse"><g style="filter:url(#virtualbox-2010_svg__c)"><linearGradient id="virtualbox-2010_svg__d" x1="76.382" x2="-53.496" y1="-551.182" y2="-378.83" gradientTransform="matrix(1 0 0 -1 246.69 -73.705)" gradientUnits="userSpaceOnUse"><stop offset="0" style="stop-color:#ccc"/><stop offset=".15" style="stop-color:#000"/></linearGradient><ellipse cx="258.1" cy="391.3" rx="119.1" ry="101" style="fill:url(#virtualbox-2010_svg__d)"/></g></mask><radialGradient id="virtualbox-2010_svg__f" cx="-52.418" cy="-551.627" r="205.297" gradientTransform="matrix(1 0 0 -1 246.69 -73.705)" gradientUnits="userSpaceOnUse"><stop offset="0" style="stop-color:#dce6fa"/><stop offset=".4" style="stop-color:#aac3eb"/><stop offset="1" style="stop-color:#aac3eb"/></radialGradient><ellipse cx="258.1" cy="391.3" rx="119.1" ry="101" style="mask:url(#virtualbox-2010_svg__e);fill:url(#virtualbox-2010_svg__f)"/><defs><filter id="virtualbox-2010_svg__g" width="238.2" height="202" x="139" y="290.3" filterUnits="userSpaceOnUse"><feColorMatrix values="1 0 0 0 0 0 1 0 0 0 0 0 1 0 0 0 0 0 1 0"/></filter></defs><mask id="virtualbox-2010_svg__i" width="238.2" height="202" x="139" y="290.3" maskUnits="userSpaceOnUse"><g style="filter:url(#virtualbox-2010_svg__g)"><linearGradient id="virtualbox-2010_svg__h" x1="11.443" x2="11.443" y1="-566.011" y2="-364.001" gradientTransform="matrix(1 0 0 -1 246.69 -73.705)" gradientUnits="userSpaceOnUse"><stop offset="0" style="stop-color:#999"/><stop offset=".05" style="stop-color:#000"/></linearGradient><ellipse cx="258.1" cy="391.3" rx="119.1" ry="101" style="fill:url(#virtualbox-2010_svg__h)"/></g></mask><radialGradient id="virtualbox-2010_svg__j" cx="-52.418" cy="-551.627" r="205.297" gradientTransform="matrix(1 0 0 -1 246.69 -73.705)" gradientUnits="userSpaceOnUse"><stop offset="0" style="stop-color:#dce6fa"/><stop offset=".4" style="stop-color:#aac3eb"/><stop offset="1" style="stop-color:#aac3eb"/></radialGradient><ellipse cx="258.1" cy="391.3" rx="119.1" ry="101" style="mask:url(#virtualbox-2010_svg__i);fill:url(#virtualbox-2010_svg__j)"/><defs><filter id="virtualbox-2010_svg__k" width="238.2" height="202" x="139" y="290.3" filterUnits="userSpaceOnUse"><feColorMatrix values="1 0 0 0 0 0 1 0 0 0 0 0 1 0 0 0 0 0 1 0"/></filter></defs><mask id="virtualbox-2010_svg__m" width="238.2" height="202" x="139" y="290.3" maskUnits="userSpaceOnUse"><g style="filter:url(#virtualbox-2010_svg__k)"><linearGradient id="virtualbox-2010_svg__l" x1="46.777" x2="-23.891" y1="-562.086" y2="-367.926" gradientTransform="matrix(1 0 0 -1 246.69 -73.705)" gradientUnits="userSpaceOnUse"><stop offset="0" style="stop-color:#595959"/><stop offset=".053" style="stop-color:#282828"/><stop offset=".1" style="stop-color:#000"/></linearGradient><ellipse cx="258.1" cy="391.3" rx="119.1" ry="101" style="fill:url(#virtualbox-2010_svg__l)"/></g></mask><radialGradient id="virtualbox-2010_svg__n" cx="-52.418" cy="-551.627" r="205.297" gradientTransform="matrix(1 0 0 -1 246.69 -73.705)" gradientUnits="userSpaceOnUse"><stop offset="0" style="stop-color:#dce6fa"/><stop offset=".4" style="stop-color:#aac3eb"/><stop offset="1" style="stop-color:#aac3eb"/></radialGradient><ellipse cx="258.1" cy="391.3" rx="119.1" ry="101" style="mask:url(#virtualbox-2010_svg__m);fill:url(#virtualbox-2010_svg__n)"/><defs><filter id="virtualbox-2010_svg__o" width="238.2" height="202" x="139" y="290.3" filterUnits="userSpaceOnUse"><feColorMatrix values="1 0 0 0 0 0 1 0 0 0 0 0 1 0 0 0 0 0 1 0"/></filter></defs><mask id="virtualbox-2010_svg__q" width="238.2" height="202" x="139" y="290.3" maskUnits="userSpaceOnUse"><g style="filter:url(#virtualbox-2010_svg__o)"><linearGradient id="virtualbox-2010_svg__p" x1="-23.891" x2="46.777" y1="-562.086" y2="-367.926" gradientTransform="matrix(1 0 0 -1 246.69 -73.705)" gradientUnits="userSpaceOnUse"><stop offset="0" style="stop-color:#fff"/><stop offset=".05" style="stop-color:#1a1a1a"/><stop offset=".09" style="stop-color:#000"/></linearGradient><ellipse cx="258.1" cy="391.3" rx="119.1" ry="101" style="fill:url(#virtualbox-2010_svg__p)"/></g></mask><radialGradient id="virtualbox-2010_svg__r" cx="-52.418" cy="-551.627" r="205.297" gradientTransform="matrix(1 0 0 -1 246.69 -73.705)" gradientUnits="userSpaceOnUse"><stop offset="0" style="stop-color:#dce6fa"/><stop offset=".4" style="stop-color:#aac3eb"/><stop offset="1" style="stop-color:#aac3eb"/></radialGradient><ellipse cx="258.1" cy="391.3" rx="119.1" ry="101" style="mask:url(#virtualbox-2010_svg__q);fill:url(#virtualbox-2010_svg__r)"/><linearGradient id="virtualbox-2010_svg__s" x1="-112.936" x2="135.984" y1="-530.33" y2="-530.33" gradientTransform="matrix(1 0 0 -1 246.69 -73.705)" gradientUnits="userSpaceOnUse"><stop offset=".005" style="stop-color:#3c5a78"/><stop offset=".033" style="stop-color:#6e8cbe"/><stop offset=".123" style="stop-color:#a5bee1"/><stop offset=".25" style="stop-color:#96afd2"/><stop offset=".52" style="stop-color:#3c5a87"/><stop offset=".72" style="stop-color:#2b486d"/><stop offset=".9" style="stop-color:#466491"/><stop offset="1" style="stop-color:#3c5082"/></linearGradient><path d="M382.7 401.3v3.6c0 59.1-55.9 107.1-124.4 107.1-68.6 0-124.5-48.1-124.5-107.1v-3.6c0 58.9 55.9 107 124.5 107 68.4-.1 124.4-48.1 124.4-107" style="fill:url(#virtualbox-2010_svg__s)"/><linearGradient id="virtualbox-2010_svg__t" x1="-112.427" x2="135.313" y1="-454.167" y2="-475.841" gradientTransform="matrix(1 0 0 -1 246.69 -73.705)" gradientUnits="userSpaceOnUse"><stop offset=".005" style="stop-color:#9bbee1"/><stop offset=".08" style="stop-color:#d2e6fa"/><stop offset=".134" style="stop-color:#f0f5ff"/><stop offset=".198" style="stop-color:#f0f5ff"/><stop offset=".35" style="stop-color:#dee6f0"/><stop offset=".55" style="stop-color:#afbedc"/><stop offset=".7" style="stop-color:#96afd7"/><stop offset=".909" style="stop-color:#a0b4dc"/><stop offset="1" style="stop-color:#6487af"/></linearGradient><path d="M258.1 284c-68.7 0-124.5 48-124.5 107.3s55.7 107.3 124.5 107.3c68.7 0 124.5-48 124.5-107.3 0-59.2-55.7-107.3-124.5-107.3m0 207.9c-65.5 0-118.6-45-118.6-100.6 0-55.5 53.1-100.6 118.6-100.6s118.6 45 118.6 100.6-53.1 100.6-118.6 100.6" style="fill:url(#virtualbox-2010_svg__t)"/><defs><filter id="virtualbox-2010_svg__u" width="248.9" height="214.5" x="133.7" y="284" filterUnits="userSpaceOnUse"><feColorMatrix values="1 0 0 0 0 0 1 0 0 0 0 0 1 0 0 0 0 0 1 0"/></filter></defs><mask id="virtualbox-2010_svg__w" width="248.9" height="214.5" x="133.7" y="284" maskUnits="userSpaceOnUse"><g style="filter:url(#virtualbox-2010_svg__u)"><linearGradient id="virtualbox-2010_svg__v" x1="11.443" x2="11.443" y1="-572.26" y2="-357.752" gradientTransform="matrix(1 0 0 -1 246.69 -73.705)" gradientUnits="userSpaceOnUse"><stop offset=".35" style="stop-color:#000"/><stop offset=".6" style="stop-color:#fff"/></linearGradient><ellipse cx="258.1" cy="391.3" rx="124.5" ry="107.3" style="fill:url(#virtualbox-2010_svg__v)"/></g></mask><path d="M258.1 284c-68.7 0-124.5 48-124.5 107.3s55.7 107.3 124.5 107.3c68.7 0 124.5-48 124.5-107.3 0-59.2-55.7-107.3-124.5-107.3m0 207.9c-65.5 0-118.6-45-118.6-100.6 0-55.5 53.1-100.6 118.6-100.6s118.6 45 118.6 100.6-53.1 100.6-118.6 100.6" style="mask:url(#virtualbox-2010_svg__w);fill:#142355"/><defs><filter id="virtualbox-2010_svg__x" width="248.9" height="214.5" x="133.7" y="284" filterUnits="userSpaceOnUse"><feColorMatrix values="1 0 0 0 0 0 1 0 0 0 0 0 1 0 0 0 0 0 1 0"/></filter></defs><mask id="virtualbox-2010_svg__z" width="248.9" height="214.5" x="133.7" y="284" maskUnits="userSpaceOnUse"><g style="filter:url(#virtualbox-2010_svg__x)"><linearGradient id="virtualbox-2010_svg__y" x1="-25.986" x2="48.872" y1="-567.841" y2="-362.171" gradientTransform="matrix(1 0 0 -1 246.69 -73.705)" gradientUnits="userSpaceOnUse"><stop offset=".3" style="stop-color:#000"/><stop offset="1" style="stop-color:#ccc"/></linearGradient><ellipse cx="258.1" cy="391.3" rx="124.5" ry="107.3" style="fill:url(#virtualbox-2010_svg__y)"/></g></mask><path d="M258.1 284c-68.7 0-124.5 48-124.5 107.3s55.7 107.3 124.5 107.3c68.7 0 124.5-48 124.5-107.3 0-59.2-55.7-107.3-124.5-107.3m0 207.9c-65.5 0-118.6-45-118.6-100.6 0-55.5 53.1-100.6 118.6-100.6s118.6 45 118.6 100.6-53.1 100.6-118.6 100.6" style="mask:url(#virtualbox-2010_svg__z);fill:#142355"/><radialGradient id="virtualbox-2010_svg__A" cx="-114.035" cy="1734.159" r="229.195" gradientTransform="translate(370.035 -1494.477)" gradientUnits="userSpaceOnUse"><stop offset="0" style="stop-color:#fff"/><stop offset="1" style="stop-color:#c3d2f0"/></radialGradient><path d="m474.2 102.3-17.5 221.8c-.2 3-1.7 5.8-4.1 7.6L262.4 477.2c-1.9 1.5-4.2 2.2-6.4 2.2-2.3 0-4.5-.7-6.4-2.2L59.4 331.7c-2.4-1.8-3.9-4.6-4.1-7.6L37.8 102.3c-.4-4.5 2.2-8.7 6.3-10.5L251.8.9c2.7-1.2 5.8-1.2 8.5 0l207.6 90.9c4.1 1.8 6.6 6 6.3 10.5" style="fill:url(#virtualbox-2010_svg__A)"/><linearGradient id="virtualbox-2010_svg__B" x1="4.306" x2="-193.208" y1="-318.51" y2="-152.775" gradientTransform="matrix(1 0 0 -1 246.69 -73.705)" gradientUnits="userSpaceOnUse"><stop offset="0" style="stop-color:#fff"/><stop offset=".9" style="stop-color:#f0f5ff"/><stop offset=".96" style="stop-color:#dce6f8"/><stop offset=".99" style="stop-color:#c3d2f0"/></linearGradient><path d="M39.3 96c-2.3 3.7 4.9 7.6 5.5 7.9L248 227.1c2.2 1.3 3.6 3.8 3.6 6.4h8.9c0-2.6 1.4-5 3.6-6.4l-4-7.4c-1.2.7-2.5 1.1-3.9 1.1-1.3 0-2.7-.4-3.9-1.1L48.1 97.3c-.6-.4-.9-1-.9-1.7 0 0-5.7-3.2-7.9.4" style="fill:url(#virtualbox-2010_svg__B)"/><linearGradient id="virtualbox-2010_svg__C" x1="33.435" x2="192.642" y1="-331.206" y2="-141.471" gradientTransform="matrix(1 0 0 -1 246.69 -73.705)" gradientUnits="userSpaceOnUse"><stop offset="0" style="stop-color:#fff"/><stop offset=".6" style="stop-color:#f5faff"/><stop offset=".92" style="stop-color:#e1e6fa"/><stop offset=".97" style="stop-color:#cfdaf4"/><stop offset="1" style="stop-color:#c0cfee"/></linearGradient><path d="M472.7 96c2.3 3.7-4.9 7.6-5.5 7.9L264.1 227.1c-2.2 1.3-3.6 3.8-3.6 6.4h-8.9c0-2.6-1.4-5-3.6-6.4l4-7.4c1.2.7 2.5 1.1 3.9 1.1 1.3 0 2.7-.4 3.9-1.1L463.9 97.3c.6-.4.9-1 .9-1.7 0 0 5.7-3.2 7.9.4" style="fill:url(#virtualbox-2010_svg__C)"/><linearGradient id="virtualbox-2010_svg__D" x1="9.313" x2="9.313" y1="-293.447" y2="-553.068" gradientTransform="matrix(1 0 0 -1 246.69 -73.705)" gradientUnits="userSpaceOnUse"><stop offset="0" style="stop-color:#fff"/><stop offset=".9" style="stop-color:#dce6ff"/><stop offset="1" style="stop-color:#c2d4f0"/></linearGradient><path d="M256 479.4c-5.4 0-6-7.5-6-7.5.3 0 .6-.1.8-.2.6-.3 1-1 1-1.7l-.3-236.5c0-2.6-1.4-5-3.6-6.4l4.4-7.4c1.2.7 2.5 1.1 3.9 1.1 1.3 0 2.7-.4 3.9-1.1l4 7.4c-2.2 1.3-3.6 3.8-3.6 6.4l-.4 236.5c0 .7.4 1.4 1 1.7.3.1.5.2.8.2.1 0-.5 7.5-5.9 7.5" style="fill:url(#virtualbox-2010_svg__D)"/><defs><filter id="virtualbox-2010_svg__E" width="436.4" height="479.4" x="37.8" y="0" filterUnits="userSpaceOnUse"><feColorMatrix values="1 0 0 0 0 0 1 0 0 0 0 0 1 0 0 0 0 0 1 0"/></filter></defs><mask id="virtualbox-2010_svg__G" width="436.4" height="479.4" x="37.8" y="0" maskUnits="userSpaceOnUse"><g style="filter:url(#virtualbox-2010_svg__E)"><linearGradient id="virtualbox-2010_svg__F" x1="-209.774" x2="203.732" y1="-173.917" y2="-410.735" gradientTransform="matrix(1 0 0 -1 246.69 -73.705)" gradientUnits="userSpaceOnUse"><stop offset=".78" style="stop-color:#000"/><stop offset=".8" style="stop-color:#fff"/></linearGradient><path d="m474.2 102.3-17.5 221.8c-.2 3-1.7 5.8-4.1 7.6L262.4 477.2c-1.9 1.5-4.2 2.2-6.4 2.2-2.3 0-4.5-.7-6.4-2.2L59.4 331.7c-2.4-1.8-3.9-4.6-4.1-7.6L37.8 102.3c-.4-4.5 2.2-8.7 6.3-10.5L251.8.9c2.7-1.2 5.8-1.2 8.5 0l207.6 90.9c4.1 1.8 6.6 6 6.3 10.5" style="fill:url(#virtualbox-2010_svg__F)"/></g></mask><linearGradient id="virtualbox-2010_svg__H" x1="-185.119" x2="228.393" y1="-410.736" y2="-173.916" gradientTransform="matrix(1 0 0 -1 246.69 -73.705)" gradientUnits="userSpaceOnUse"><stop offset=".2" style="stop-color:#c3d2f0"/><stop offset=".22" style="stop-color:#7da0d2"/><stop offset=".267" style="stop-color:#6e91cd"/><stop offset=".7" style="stop-color:#7396d2"/><stop offset="1" style="stop-color:#5a78b4"/></linearGradient><path d="m474.2 102.3-17.5 221.8c-.2 3-1.7 5.8-4.1 7.6L262.4 477.2c-1.9 1.5-4.2 2.2-6.4 2.2-2.3 0-4.5-.7-6.4-2.2L59.4 331.7c-2.4-1.8-3.9-4.6-4.1-7.6L37.8 102.3c-.4-4.5 2.2-8.7 6.3-10.5L251.8.9c2.7-1.2 5.8-1.2 8.5 0l207.6 90.9c4.1 1.8 6.6 6 6.3 10.5" style="mask:url(#virtualbox-2010_svg__G);fill:url(#virtualbox-2010_svg__H)"/><defs><filter id="virtualbox-2010_svg__I" width="436.4" height="479.4" x="37.8" y="0" filterUnits="userSpaceOnUse"><feColorMatrix values="1 0 0 0 0 0 1 0 0 0 0 0 1 0 0 0 0 0 1 0"/></filter></defs><mask id="virtualbox-2010_svg__K" width="436.4" height="479.4" x="37.8" y="0" maskUnits="userSpaceOnUse"><g style="filter:url(#virtualbox-2010_svg__I)"><linearGradient id="virtualbox-2010_svg__J" x1="-184.907" x2="227.758" y1="-411.035" y2="-172.783" gradientTransform="matrix(1 0 0 -1 246.69 -73.705)" gradientUnits="userSpaceOnUse"><stop offset=".2" style="stop-color:#fff"/><stop offset=".22" style="stop-color:#000"/></linearGradient><path d="m474.2 102.3-17.5 221.8c-.2 3-1.7 5.8-4.1 7.6L262.4 477.2c-1.9 1.5-4.2 2.2-6.4 2.2-2.3 0-4.5-.7-6.4-2.2L59.4 331.7c-2.4-1.8-3.9-4.6-4.1-7.6L37.8 102.3c-.4-4.5 2.2-8.7 6.3-10.5L251.8.9c2.7-1.2 5.8-1.2 8.5 0l207.6 90.9c4.1 1.8 6.6 6 6.3 10.5" style="fill:url(#virtualbox-2010_svg__J)"/></g></mask><linearGradient id="virtualbox-2010_svg__L" x1="-209.139" x2="203.52" y1="-172.784" y2="-411.033" gradientTransform="matrix(1 0 0 -1 246.69 -73.705)" gradientUnits="userSpaceOnUse"><stop offset="0" style="stop-color:#b9c8dc"/><stop offset=".3" style="stop-color:#d7d5eb"/><stop offset=".5" style="stop-color:#d7dceb"/><stop offset=".78" style="stop-color:#dcdceb"/><stop offset=".8" style="stop-color:#c3d2f0"/></linearGradient><path d="m474.2 102.3-17.5 221.8c-.2 3-1.7 5.8-4.1 7.6L262.4 477.2c-1.9 1.5-4.2 2.2-6.4 2.2-2.3 0-4.5-.7-6.4-2.2L59.4 331.7c-2.4-1.8-3.9-4.6-4.1-7.6L37.8 102.3c-.4-4.5 2.2-8.7 6.3-10.5L251.8.9c2.7-1.2 5.8-1.2 8.5 0l207.6 90.9c4.1 1.8 6.6 6 6.3 10.5" style="mask:url(#virtualbox-2010_svg__K);fill:url(#virtualbox-2010_svg__L)"/><defs><filter id="virtualbox-2010_svg__M" width="436.4" height="479.4" x="37.8" y="0" filterUnits="userSpaceOnUse"><feColorMatrix values="1 0 0 0 0 0 1 0 0 0 0 0 1 0 0 0 0 0 1 0"/></filter></defs><mask id="virtualbox-2010_svg__O" width="436.4" height="479.4" x="37.8" y="0" maskUnits="userSpaceOnUse"><g style="filter:url(#virtualbox-2010_svg__M)"><radialGradient id="virtualbox-2010_svg__N" cx="-187.813" cy="-137.365" r="64.559" gradientTransform="matrix(1 0 0 -1 246.69 -73.705)" gradientUnits="userSpaceOnUse"><stop offset="0" style="stop-color:#595959"/><stop offset="1" style="stop-color:#000"/></radialGradient><path d="m474.2 102.3-17.5 221.8c-.2 3-1.7 5.8-4.1 7.6L262.4 477.2c-1.9 1.5-4.2 2.2-6.4 2.2-2.3 0-4.5-.7-6.4-2.2L59.4 331.7c-2.4-1.8-3.9-4.6-4.1-7.6L37.8 102.3c-.4-4.5 2.2-8.7 6.3-10.5L251.8.9c2.7-1.2 5.8-1.2 8.5 0l207.6 90.9c4.1 1.8 6.6 6 6.3 10.5" style="fill:url(#virtualbox-2010_svg__N)"/></g></mask><path d="m474.2 102.3-17.5 221.8c-.2 3-1.7 5.8-4.1 7.6L262.4 477.2c-1.9 1.5-4.2 2.2-6.4 2.2-2.3 0-4.5-.7-6.4-2.2L59.4 331.7c-2.4-1.8-3.9-4.6-4.1-7.6L37.8 102.3c-.4-4.5 2.2-8.7 6.3-10.5L251.8.9c2.7-1.2 5.8-1.2 8.5 0l207.6 90.9c4.1 1.8 6.6 6 6.3 10.5" style="mask:url(#virtualbox-2010_svg__O);fill:#e1f5ff"/><radialGradient id="virtualbox-2010_svg__P" cx="9.347" cy="-179.254" r="133.002" gradientTransform="matrix(1 0 0 -1 246.69 -73.705)" gradientUnits="userSpaceOnUse"><stop offset="0" style="stop-color:#19416e"/><stop offset="1" style="stop-color:#0a2d64"/></radialGradient><path d="m422 97.1-162.7 94.7c-1 .6-2.1.8-3.1.8-1.1 0-2.2-.3-3.1-.8l-163-94.7c-.5-.3-.8-.9-.8-1.4 0-.6.4-1.1.9-1.4L253.7 19c1.5-.7 3.3-.7 4.8 0l163.3 75.3c.5.2.9.8.9 1.4.1.6-.2 1.1-.7 1.4" style="fill:url(#virtualbox-2010_svg__P)"/><radialGradient id="virtualbox-2010_svg__Q" cx="-100.251" cy="-354.623" r="115.975" gradientTransform="matrix(1 0 0 -1 246.69 -73.705)" gradientUnits="userSpaceOnUse"><stop offset="0" style="stop-color:#19416e"/><stop offset="1" style="stop-color:#0a2d64"/></radialGradient><path d="m229.3 247.6 1.8 172c0 .7-.4 1.3-1 1.6-.3.1-.5.2-.8.2-.4 0-.7-.1-1-.3L75.7 308.6c-1.4-1-2.2-2.6-2.4-4.3l-11.5-162c0-.7.3-1.3.9-1.6s1.3-.3 1.8 0l161.9 101.6c1.8 1.2 2.9 3.2 2.9 5.3" style="fill:url(#virtualbox-2010_svg__Q)"/><radialGradient id="virtualbox-2010_svg__R" cx="-2674.981" cy="-449.204" r="126.847" gradientTransform="rotate(180 -1040.048 -64.896)scale(.9143)" gradientUnits="userSpaceOnUse"><stop offset="0" style="stop-color:#19416e"/><stop offset="1" style="stop-color:#0a2d64"/></radialGradient><path d="m282.7 247.6-1.8 172c0 .7.4 1.3 1 1.6.2.1.5.2.8.2.4 0 .7-.1 1.1-.3l152.6-112.5c1.4-1 2.2-2.6 2.4-4.3l11.6-161.9c0-.7-.3-1.3-.9-1.6s-1.3-.3-1.8 0l-162 101.5a6.79 6.79 0 0 0-3 5.3" style="fill:url(#virtualbox-2010_svg__R)"/><linearGradient id="virtualbox-2010_svg__S" x1="-156.227" x2="174.914" y1="-132.938" y2="-132.938" gradientTransform="matrix(1 0 0 -1 246.69 -73.705)" gradientUnits="userSpaceOnUse"><stop offset="0" style="stop-color:#234b82"/><stop offset=".489" style="stop-color:#3c5a8c"/><stop offset=".511" style="stop-color:#e6f0ff"/><stop offset=".77" style="stop-color:#fff"/><stop offset="1" style="stop-color:#f0f5ff"/></linearGradient><path d="M419.8 99c1.1-.6 1.8-1.9 1.8-3.2-.1-1.3-.9-2.6-2.1-3.1L259.6 19c-1.1-.5-2.3-.8-3.5-.8s-2.4.3-3.5.8L92.5 92.7c-1.2.6-2.1 1.8-2.1 3.1s.7 2.5 1.8 3.2l2.4 1.2c-.5-.3-.8-.8-.8-1.4s.4-1.1.9-1.3l159-73.3c1.5-.7 3.2-.7 4.7 0l158.8 73.3c.5.2.9.8.9 1.3 0 .6-.3 1.1-.8 1.4z" style="fill:url(#virtualbox-2010_svg__S)"/><linearGradient id="virtualbox-2010_svg__T" x1="18.765" x2="238.307" y1="-474.008" y2="-254.465" gradientTransform="matrix(1 0 0 -1 246.69 -73.705)" gradientUnits="userSpaceOnUse"><stop offset="0" style="stop-color:#afc3d7"/><stop offset=".203" style="stop-color:#bed2e6"/><stop offset=".588" style="stop-color:#bed7eb"/><stop offset=".615" style="stop-color:#3c5a8c"/><stop offset="1" style="stop-color:#234b82"/></linearGradient><path d="M281.7 414.8v.1c0 1.5.8 2.8 2.1 3.5.6.3 1.2.4 1.8.4.8 0 1.6-.2 2.3-.8l147.2-108.5c1.9-1.4 3.2-3.6 3.3-6.1l11.2-156.3v-.3c0-1.4-.7-2.6-1.9-3.3-.6-.4-1.3-.6-2-.6q-1.05 0-2.1.6l-1.7 1.1c.5-.3 1.2-.3 1.8 0 .5.3.9.9.8 1.6l-11.1 155.4c-.1 1.6-.9 3.1-2.3 4.1L284.7 413.8c-.3.2-.6.3-1 .3-.3 0-.5-.1-.8-.2-.6-.3-.9-.9-.9-1.5z" style="fill:url(#virtualbox-2010_svg__T)"/><linearGradient id="virtualbox-2010_svg__U" x1="-219.6" x2="-.057" y1="-254.469" y2="-474.012" gradientTransform="matrix(1 0 0 -1 246.69 -73.705)" gradientUnits="userSpaceOnUse"><stop offset="0" style="stop-color:#234b82"/><stop offset=".385" style="stop-color:#3c5a8c"/><stop offset=".405" style="stop-color:#f0f5ff"/><stop offset=".691" style="stop-color:#fff"/><stop offset="1" style="stop-color:#fff"/></linearGradient><path d="M230.1 412.4c0 .6-.4 1.2-.9 1.5-.2.1-.5.2-.8.2-.4 0-.7-.1-1-.3L80.9 305.9c-1.3-1-2.2-2.5-2.3-4.1l-11-155.5c0-.6.3-1.2.8-1.6.5-.3 1.2-.3 1.8 0l-1.7-1.1q-1.05-.6-2.1-.6c-.7 0-1.4.2-2 .6-1.2.7-1.9 2-1.9 3.3v.3l11.2 156.3c.2 2.4 1.4 4.6 3.3 6.1l147.2 108.5c.7.5 1.5.8 2.3.8.6 0 1.2-.1 1.8-.4 1.3-.7 2.1-2 2.1-3.5v-.1z" style="fill:url(#virtualbox-2010_svg__U)"/><linearGradient id="virtualbox-2010_svg__V" x1="-114.036" x2="-114.036" y1="1715.291" y2="1497.496" gradientTransform="translate(370.035 -1494.477)" gradientUnits="userSpaceOnUse"><stop offset="0" style="stop-color:#fff"/><stop offset="1" style="stop-color:#bedcfa"/></linearGradient><path d="M463.7 94 259.2 3.7c-1.9-.9-4.1-.9-6 0L48.3 94c-.6.3-1.1.9-1.1 1.6s.3 1.4.9 1.7l204.2 122.4c1.2.7 2.5 1.1 3.9 1.1 1.3 0 2.7-.4 3.9-1.1L463.9 97.3c.6-.4.9-1 .9-1.7-.1-.7-.5-1.3-1.1-1.6m-46.3 3.4-158.2 92.1c-.9.5-2 .8-3 .8-1.1 0-2.1-.3-3-.8L94.7 97.4c-.5-.3-.8-.8-.8-1.4s.4-1.1.9-1.3l159-73.3c1.5-.7 3.2-.7 4.7 0l158.8 73.3c.5.2.9.8.9 1.3s-.3 1.1-.8 1.4" style="fill:url(#virtualbox-2010_svg__V)"/><defs><filter id="virtualbox-2010_svg__W" width="417.5" height="217.8" x="47.2" y="3" filterUnits="userSpaceOnUse"><feColorMatrix values="1 0 0 0 0 0 1 0 0 0 0 0 1 0 0 0 0 0 1 0"/></filter></defs><mask id="virtualbox-2010_svg__Y" width="417.5" height="217.8" x="47.2" y="3" maskUnits="userSpaceOnUse"><g style="filter:url(#virtualbox-2010_svg__W)"><linearGradient id="virtualbox-2010_svg__X" x1="-269.804" x2="43.782" y1="1682.518" y2="1501.469" gradientTransform="translate(370.035 -1494.477)" gradientUnits="userSpaceOnUse"><stop offset=".6" style="stop-color:#000"/><stop offset="1" style="stop-color:#fff"/></linearGradient><path d="M463.7 94 259.2 3.7c-1.9-.9-4.1-.9-6 0L48.3 94c-.6.3-1.1.9-1.1 1.6s.3 1.4.9 1.7l204.2 122.4c1.2.7 2.5 1.1 3.9 1.1 1.3 0 2.7-.4 3.9-1.1L463.9 97.3c.6-.4.9-1 .9-1.7-.1-.7-.5-1.3-1.1-1.6m-46.3 3.4-158.2 92.1c-.9.5-2 .8-3 .8-1.1 0-2.1-.3-3-.8L94.7 97.4c-.5-.3-.8-.8-.8-1.4s.4-1.1.9-1.3l159-73.3c1.5-.7 3.2-.7 4.7 0l158.8 73.3c.5.2.9.8.9 1.3s-.3 1.1-.8 1.4" style="fill:url(#virtualbox-2010_svg__X)"/></g></mask><path d="M463.7 94 259.2 3.7c-1.9-.9-4.1-.9-6 0L48.3 94c-.6.3-1.1.9-1.1 1.6s.3 1.4.9 1.7l204.2 122.4c1.2.7 2.5 1.1 3.9 1.1 1.3 0 2.7-.4 3.9-1.1L463.9 97.3c.6-.4.9-1 .9-1.7-.1-.7-.5-1.3-1.1-1.6m-46.3 3.4-158.2 92.1c-.9.5-2 .8-3 .8-1.1 0-2.1-.3-3-.8L94.7 97.4c-.5-.3-.8-.8-.8-1.4s.4-1.1.9-1.3l159-73.3c1.5-.7 3.2-.7 4.7 0l158.8 73.3c.5.2.9.8.9 1.3s-.3 1.1-.8 1.4" style="mask:url(#virtualbox-2010_svg__Y);fill:#c3dcfa"/><defs><filter id="virtualbox-2010_svg__Z" width="417.5" height="217.8" x="47.2" y="3" filterUnits="userSpaceOnUse"><feColorMatrix values="1 0 0 0 0 0 1 0 0 0 0 0 1 0 0 0 0 0 1 0"/></filter></defs><mask id="virtualbox-2010_svg__ab" width="417.5" height="217.8" x="47.2" y="3" maskUnits="userSpaceOnUse"><g style="filter:url(#virtualbox-2010_svg__Z)"><linearGradient id="virtualbox-2010_svg__aa" x1="-200.723" x2="-27.348" y1="1693.526" y2="1486.907" gradientTransform="translate(370.035 -1494.477)" gradientUnits="userSpaceOnUse"><stop offset="0" style="stop-color:#7a7a7a"/><stop offset=".305" style="stop-color:#000"/></linearGradient><path d="M463.7 94 259.2 3.7c-1.9-.9-4.1-.9-6 0L48.3 94c-.6.3-1.1.9-1.1 1.6s.3 1.4.9 1.7l204.2 122.4c1.2.7 2.5 1.1 3.9 1.1 1.3 0 2.7-.4 3.9-1.1L463.9 97.3c.6-.4.9-1 .9-1.7-.1-.7-.5-1.3-1.1-1.6m-46.3 3.4-158.2 92.1c-.9.5-2 .8-3 .8-1.1 0-2.1-.3-3-.8L94.7 97.4c-.5-.3-.8-.8-.8-1.4s.4-1.1.9-1.3l159-73.3c1.5-.7 3.2-.7 4.7 0l158.8 73.3c.5.2.9.8.9 1.3s-.3 1.1-.8 1.4" style="fill:url(#virtualbox-2010_svg__aa)"/></g></mask><linearGradient id="virtualbox-2010_svg__ac" x1="-168.65" x2="-61.376" y1="1684.812" y2="1499.008" gradientTransform="translate(370.035 -1494.477)" gradientUnits="userSpaceOnUse"><stop offset=".005" style="stop-color:#fff5f0"/><stop offset=".25" style="stop-color:#fff"/></linearGradient><path d="M463.7 94 259.2 3.7c-1.9-.9-4.1-.9-6 0L48.3 94c-.6.3-1.1.9-1.1 1.6s.3 1.4.9 1.7l204.2 122.4c1.2.7 2.5 1.1 3.9 1.1 1.3 0 2.7-.4 3.9-1.1L463.9 97.3c.6-.4.9-1 .9-1.7-.1-.7-.5-1.3-1.1-1.6m-46.3 3.4-158.2 92.1c-.9.5-2 .8-3 .8-1.1 0-2.1-.3-3-.8L94.7 97.4c-.5-.3-.8-.8-.8-1.4s.4-1.1.9-1.3l159-73.3c1.5-.7 3.2-.7 4.7 0l158.8 73.3c.5.2.9.8.9 1.3s-.3 1.1-.8 1.4" style="mask:url(#virtualbox-2010_svg__ab);fill:url(#virtualbox-2010_svg__ac)"/><defs><filter id="virtualbox-2010_svg__ad" width="417.5" height="217.8" x="47.2" y="3" filterUnits="userSpaceOnUse"><feColorMatrix values="1 0 0 0 0 0 1 0 0 0 0 0 1 0 0 0 0 0 1 0"/></filter></defs><mask id="virtualbox-2010_svg__af" width="417.5" height="217.8" x="47.2" y="3" maskUnits="userSpaceOnUse"><g style="filter:url(#virtualbox-2010_svg__ad)"><linearGradient id="virtualbox-2010_svg__ae" x1="-236.881" x2="8.81" y1="1487.137" y2="1693.296" gradientTransform="translate(370.035 -1494.477)" gradientUnits="userSpaceOnUse"><stop offset="0" style="stop-color:#141414"/><stop offset=".25" style="stop-color:#000"/></linearGradient><path d="M463.7 94 259.2 3.7c-1.9-.9-4.1-.9-6 0L48.3 94c-.6.3-1.1.9-1.1 1.6s.3 1.4.9 1.7l204.2 122.4c1.2.7 2.5 1.1 3.9 1.1 1.3 0 2.7-.4 3.9-1.1L463.9 97.3c.6-.4.9-1 .9-1.7-.1-.7-.5-1.3-1.1-1.6m-46.3 3.4-158.2 92.1c-.9.5-2 .8-3 .8-1.1 0-2.1-.3-3-.8L94.7 97.4c-.5-.3-.8-.8-.8-1.4s.4-1.1.9-1.3l159-73.3c1.5-.7 3.2-.7 4.7 0l158.8 73.3c.5.2.9.8.9 1.3s-.3 1.1-.8 1.4" style="fill:url(#virtualbox-2010_svg__ae)"/></g></mask><path d="M463.7 94 259.2 3.7c-1.9-.9-4.1-.9-6 0L48.3 94c-.6.3-1.1.9-1.1 1.6s.3 1.4.9 1.7l204.2 122.4c1.2.7 2.5 1.1 3.9 1.1 1.3 0 2.7-.4 3.9-1.1L463.9 97.3c.6-.4.9-1 .9-1.7-.1-.7-.5-1.3-1.1-1.6m-46.3 3.4-158.2 92.1c-.9.5-2 .8-3 .8-1.1 0-2.1-.3-3-.8L94.7 97.4c-.5-.3-.8-.8-.8-1.4s.4-1.1.9-1.3l159-73.3c1.5-.7 3.2-.7 4.7 0l158.8 73.3c.5.2.9.8.9 1.3s-.3 1.1-.8 1.4" style="mask:url(#virtualbox-2010_svg__af);fill:#2b388f"/><linearGradient id="virtualbox-2010_svg__ag" x1="-277.187" x2="-169.025" y1="1875.93" y2="1688.589" gradientTransform="translate(370.035 -1494.477)" gradientUnits="userSpaceOnUse"><stop offset=".005" style="stop-color:#e6e1e1"/><stop offset=".5" style="stop-color:#e3e0dc"/><stop offset="1" style="stop-color:#eee9e1"/></linearGradient><path d="M251.5 233.5c0-2.6-1.4-5-3.6-6.4L44.8 103.9c-.6-.4-1.3-.4-1.9 0s-.9 1-.9 1.7l16.7 217.8c.2 2.1 1.2 4.1 2.9 5.4l187.3 142.7c.3.3.7.4 1.1.4.3 0 .6-.1.8-.2.6-.3 1-1 1-1.7zm-24.7 182c-.2.1-.5.2-.8.2-.4 0-.7-.1-1-.3L78.5 307.5c-1.3-1-2.2-2.5-2.3-4.1l-11-155.5c0-.6.3-1.2.8-1.6.5-.3 1.2-.3 1.8 0l155.4 97.5c1.7 1.1 2.8 3 2.8 5.1l1.7 165.1q0 1.05-.9 1.5" style="fill:url(#virtualbox-2010_svg__ag)"/><defs><filter id="virtualbox-2010_svg__ah" width="209.9" height="368.2" x="42" y="103.7" filterUnits="userSpaceOnUse"><feColorMatrix values="1 0 0 0 0 0 1 0 0 0 0 0 1 0 0 0 0 0 1 0"/></filter></defs><mask id="virtualbox-2010_svg__aj" width="209.9" height="368.2" x="42" y="103.7" maskUnits="userSpaceOnUse"><g style="filter:url(#virtualbox-2010_svg__ah)"><linearGradient id="virtualbox-2010_svg__ai" x1="-65.253" x2="-380.959" y1="1873.396" y2="1691.123" gradientTransform="translate(370.035 -1494.477)" gradientUnits="userSpaceOnUse"><stop offset=".2" style="stop-color:#000"/><stop offset=".9" style="stop-color:#fff"/></linearGradient><path d="M251.5 233.5c0-2.6-1.4-5-3.6-6.4L44.8 103.9c-.6-.4-1.3-.4-1.9 0s-.9 1-.9 1.7l16.7 217.8c.2 2.1 1.2 4.1 2.9 5.4l187.3 142.7c.3.3.7.4 1.1.4.3 0 .6-.1.8-.2.6-.3 1-1 1-1.7zm-24.7 182c-.2.1-.5.2-.8.2-.4 0-.7-.1-1-.3L78.5 307.5c-1.3-1-2.2-2.5-2.3-4.1l-11-155.5c0-.6.3-1.2.8-1.6.5-.3 1.2-.3 1.8 0l155.4 97.5c1.7 1.1 2.8 3 2.8 5.1l1.7 165.1q0 1.05-.9 1.5" style="fill:url(#virtualbox-2010_svg__ai)"/></g></mask><linearGradient id="virtualbox-2010_svg__ak" x1="-80.075" x2="-347.151" y1="1933.439" y2="1615.151" gradientTransform="translate(370.035 -1494.477)" gradientUnits="userSpaceOnUse"><stop offset="0" style="stop-color:#e6d2f0"/><stop offset="1" style="stop-color:#c3c8dc"/></linearGradient><path d="M251.5 233.5c0-2.6-1.4-5-3.6-6.4L44.8 103.9c-.6-.4-1.3-.4-1.9 0s-.9 1-.9 1.7l16.7 217.8c.2 2.1 1.2 4.1 2.9 5.4l187.3 142.7c.3.3.7.4 1.1.4.3 0 .6-.1.8-.2.6-.3 1-1 1-1.7zm-24.7 182c-.2.1-.5.2-.8.2-.4 0-.7-.1-1-.3L78.5 307.5c-1.3-1-2.2-2.5-2.3-4.1l-11-155.5c0-.6.3-1.2.8-1.6.5-.3 1.2-.3 1.8 0l155.4 97.5c1.7 1.1 2.8 3 2.8 5.1l1.7 165.1q0 1.05-.9 1.5" style="mask:url(#virtualbox-2010_svg__aj);fill:url(#virtualbox-2010_svg__ak)"/><linearGradient id="virtualbox-2010_svg__al" x1="49.117" x2="-59.045" y1="1875.932" y2="1688.59" gradientTransform="translate(370.035 -1494.477)" gradientUnits="userSpaceOnUse"><stop offset="0" style="stop-color:#7896be"/><stop offset="1" style="stop-color:#4164a5"/></linearGradient><path d="M469.1 103.9c-.6-.4-1.3-.4-1.9 0L264.1 227.1c-2.2 1.3-3.6 3.8-3.6 6.4l-.4 236.5c0 .7.4 1.4 1 1.7.3.1.5.2.8.2.4 0 .8-.1 1.1-.4l187.3-142.7c1.7-1.3 2.8-3.2 2.9-5.4L470 105.7c.1-.7-.3-1.4-.9-1.8m-33.3 199.4c-.1 1.6-.9 3.1-2.3 4.1l-146.4 108c-.3.2-.7.3-1 .3s-.5-.1-.8-.2c-.6-.3-.9-.9-.9-1.5l1.7-165.1c0-2.1 1.1-4 2.8-5.1l155.4-97.5c.5-.3 1.2-.3 1.8 0s.9.9.8 1.6z" style="fill:url(#virtualbox-2010_svg__al)"/><defs><filter id="virtualbox-2010_svg__am" width="209.9" height="368.2" x="260.1" y="103.7" filterUnits="userSpaceOnUse"><feColorMatrix values="1 0 0 0 0 0 1 0 0 0 0 0 1 0 0 0 0 0 1 0"/></filter></defs><mask id="virtualbox-2010_svg__ao" width="209.9" height="368.2" x="260.1" y="103.7" maskUnits="userSpaceOnUse"><g style="filter:url(#virtualbox-2010_svg__am)"><linearGradient id="virtualbox-2010_svg__an" x1="77.339" x2="-107.776" y1="1829.78" y2="1722.904" gradientTransform="translate(370.035 -1494.477)" gradientUnits="userSpaceOnUse"><stop offset=".005" style="stop-color:gray"/><stop offset=".6" style="stop-color:#000"/></linearGradient><path d="M469.1 103.9c-.6-.4-1.3-.4-1.9 0L264.1 227.1c-2.2 1.3-3.6 3.8-3.6 6.4l-.4 236.5c0 .7.4 1.4 1 1.7.3.1.5.2.8.2.4 0 .8-.1 1.1-.4l187.3-142.7c1.7-1.3 2.8-3.2 2.9-5.4L470 105.7c.1-.7-.3-1.4-.9-1.8m-33.3 199.4c-.1 1.6-.9 3.1-2.3 4.1l-146.4 108c-.3.2-.7.3-1 .3s-.5-.1-.8-.2c-.6-.3-.9-.9-.9-1.5l1.7-165.1c0-2.1 1.1-4 2.8-5.1l155.4-97.5c.5-.3 1.2-.3 1.8 0s.9.9.8 1.6z" style="fill:url(#virtualbox-2010_svg__an)"/></g></mask><path d="M469.1 103.9c-.6-.4-1.3-.4-1.9 0L264.1 227.1c-2.2 1.3-3.6 3.8-3.6 6.4l-.4 236.5c0 .7.4 1.4 1 1.7.3.1.5.2.8.2.4 0 .8-.1 1.1-.4l187.3-142.7c1.7-1.3 2.8-3.2 2.9-5.4L470 105.7c.1-.7-.3-1.4-.9-1.8m-33.3 199.4c-.1 1.6-.9 3.1-2.3 4.1l-146.4 108c-.3.2-.7.3-1 .3s-.5-.1-.8-.2c-.6-.3-.9-.9-.9-1.5l1.7-165.1c0-2.1 1.1-4 2.8-5.1l155.4-97.5c.5-.3 1.2-.3 1.8 0s.9.9.8 1.6z" style="mask:url(#virtualbox-2010_svg__ao);fill:#78a0e6"/><defs><filter id="virtualbox-2010_svg__ap" width="209.9" height="368.2" x="260.1" y="103.7" filterUnits="userSpaceOnUse"><feColorMatrix values="1 0 0 0 0 0 1 0 0 0 0 0 1 0 0 0 0 0 1 0"/></filter></defs><mask id="virtualbox-2010_svg__ar" width="209.9" height="368.2" x="260.1" y="103.7" maskUnits="userSpaceOnUse"><g style="filter:url(#virtualbox-2010_svg__ap)"><linearGradient id="virtualbox-2010_svg__aq" x1="-49.108" x2="20.093" y1="1976.808" y2="1584.349" gradientTransform="translate(370.035 -1494.477)" gradientUnits="userSpaceOnUse"><stop offset=".005" style="stop-color:gray"/><stop offset=".4" style="stop-color:#000"/></linearGradient><path d="M469.1 103.9c-.6-.4-1.3-.4-1.9 0L264.1 227.1c-2.2 1.3-3.6 3.8-3.6 6.4l-.4 236.5c0 .7.4 1.4 1 1.7.3.1.5.2.8.2.4 0 .8-.1 1.1-.4l187.3-142.7c1.7-1.3 2.8-3.2 2.9-5.4L470 105.7c.1-.7-.3-1.4-.9-1.8m-33.3 199.4c-.1 1.6-.9 3.1-2.3 4.1l-146.4 108c-.3.2-.7.3-1 .3s-.5-.1-.8-.2c-.6-.3-.9-.9-.9-1.5l1.7-165.1c0-2.1 1.1-4 2.8-5.1l155.4-97.5c.5-.3 1.2-.3 1.8 0s.9.9.8 1.6z" style="fill:url(#virtualbox-2010_svg__aq)"/></g></mask><path d="M469.1 103.9c-.6-.4-1.3-.4-1.9 0L264.1 227.1c-2.2 1.3-3.6 3.8-3.6 6.4l-.4 236.5c0 .7.4 1.4 1 1.7.3.1.5.2.8.2.4 0 .8-.1 1.1-.4l187.3-142.7c1.7-1.3 2.8-3.2 2.9-5.4L470 105.7c.1-.7-.3-1.4-.9-1.8m-33.3 199.4c-.1 1.6-.9 3.1-2.3 4.1l-146.4 108c-.3.2-.7.3-1 .3s-.5-.1-.8-.2c-.6-.3-.9-.9-.9-1.5l1.7-165.1c0-2.1 1.1-4 2.8-5.1l155.4-97.5c.5-.3 1.2-.3 1.8 0s.9.9.8 1.6z" style="mask:url(#virtualbox-2010_svg__ar);fill:#7896be"/><path d="M94.4 245.1c-.7-.5-1.5-1.3-2.2-2.2s-1.3-2-1.9-3.2-1.1-2.5-1.5-3.8-.7-2.6-.8-3.9q-.15-1.95 0-3.3c.1-.9.4-1.6.8-2.1s.9-.8 1.5-.8 1.3.2 2 .8l9.2 6.5c.7.5 1.5 1.3 2.2 2.2s1.3 2 1.9 3.2 1.1 2.5 1.5 3.8.7 2.6.8 3.9q.15 1.95 0 3.3c-.1.9-.4 1.6-.8 2.1s-.9.8-1.5.8-1.3-.2-2-.8zm6.7-16.9-9.6-6.8c-1.1-.8-2.2-1.2-3.1-1.2s-1.7.4-2.3 1.2-1 1.9-1.3 3.3q-.3 2.1 0 5.1c.2 2 .7 4 1.3 6s1.4 4 2.3 5.8 1.9 3.5 3 4.9 2.2 2.6 3.3 3.4l9.6 6.8c1.1.8 2.2 1.2 3.1 1.2s1.7-.4 2.3-1.2 1-1.9 1.3-3.3q.3-2.1 0-5.1c-.2-2-.7-4-1.3-6s-1.4-4-2.3-5.8-1.9-3.5-3-4.9c-1-1.4-2.1-2.6-3.3-3.4m23.9 17-13.9-9.9 3.2 28.7 3.2 2.3-2.7-23.6 10.5 7.5c.4.3.7.6 1.1 1.1.3.5.7 1 1 1.6s.5 1.2.7 1.9c.2.6.3 1.3.4 2 .1.6.1 1.2 0 1.7s-.2.8-.4 1.1-.4.4-.7.4-.6-.1-1-.4l-9-6.4 11.1 21.1 4.6 3.3-7.4-13.8 1.5 1c.8.6 1.5.8 2.1.8s1.1-.3 1.5-.8.7-1.3.9-2.2c.2-1 .2-2.1 0-3.5-.1-1.3-.4-2.7-.9-4.1q-.6-2.1-1.5-3.9c-.6-1.2-1.3-2.4-2-3.4-.8-1.2-1.6-2-2.3-2.5m47.8 34.1-11.5-8.2c-1.1-.8-2.2-1.2-3.1-1.2s-1.7.4-2.3 1.2-1 1.9-1.3 3.3q-.3 2.1 0 5.1c.2 2 .7 4 1.3 6s1.4 4 2.3 5.8 1.9 3.5 3 5c1.1 1.4 2.2 2.6 3.3 3.4l9.8 7 1.3-3.7-11.5-8.2c-.7-.5-1.5-1.3-2.2-2.2s-1.3-2-1.9-3.2-1.1-2.5-1.5-3.8-.7-2.6-.8-3.9-.1-2.4 0-3.3.4-1.6.8-2.1.9-.8 1.5-.8 1.3.2 2 .8l9.4 6.7zm4.9 3.5-3.2-2.3 2.9 26c0 .2 0 .4.1.5 0 .2.1.4.1.6.1.2.1.4.2.6l.3.6c.1.2.2.4.3.5.1.2.2.3.3.5.1.1.2.3.3.4l.3.3 14.6 10.4 1.3-3.7-14.9-10.6zm34 24.2-11.5-8.2c-1.1-.8-2.2-1.2-3.1-1.2s-1.7.4-2.3 1.2-1 1.9-1.3 3.3c-.2 1.4-.3 3.1 0 5.1.2 2 .7 4 1.3 6s1.4 4 2.3 5.8 1.9 3.5 3 5c1.1 1.4 2.2 2.6 3.4 3.4l9.9 7 1.3-3.7-11.5-8.2q-.9-.6-1.8-1.8c-.6-.7-1.1-1.6-1.7-2.5-.5-.9-1-1.9-1.4-3-.4-1-.8-2.1-1-3.2l13.7 9.8 1.3-3.7-15.6-11.1c.1-.9.2-1.6.4-2.2s.5-1 .9-1.3.8-.4 1.4-.3c.5.1 1.1.3 1.7.7l9.4 6.7zm-69.1-49.5-.6-.3c-.2-.1-.3-.1-.5 0-.2 0-.3.1-.4.2s-.2.3-.3.5l-7 20 3.7 2.7 5.7-16.8 5.9 15.7-8.5-6.1 2.4 6.4 8.6 6.1 2.3 6.3 3.7 2.7-13.1-34.4c-.1-.3-.3-.7-.5-1s-.3-.6-.5-.9-.4-.5-.6-.7c.1 0-.1-.2-.3-.4M255.3 37.7l-130.1 60 129.1 73.8 131.4-73.8zm-.8 123.1-111.3-63 72.1-33.6 17.4 7.5-45.1 44.5 77.8-31.7-27.7 32.1L287 96.1l-25 31.2 26.4 14.6zm19.8-35.9 37.9-47.1-47.5 19.4 26.5-31.1-71.5 29.3L245.1 70l-21.3-9.8 31.5-14.7 112.6 52.4-70.5 39.1zm38.9 171-3.9 2.8c-.2 1.1-.4 2.3-.6 3.4-.2 1.2-.4 2.4-.6 3.7s-.5 2.6-.7 4-.5 2.8-.8 4.2-.5 2.8-.8 4.2c-.3 1.3-.5 2.7-.7 3.9-.2 1.3-.5 2.5-.7 3.6-.2 1.2-.5 2.3-.7 3.3-.1-1-.2-2.1-.3-3.1-.1-1.1-.2-2.1-.3-3.2s-.2-2.1-.3-3.2l-.3-3.3c-.1-1.1-.2-2.2-.3-3.2-.1-1.1-.2-2.1-.2-3.1-.1-1-.1-2-.2-2.9s-.1-1.9-.1-2.8l-4.5 3.2.3 3.9.3 3.9c.1 1.3.2 2.5.4 3.8.1 1.2.3 2.5.4 3.7s.3 2.5.4 3.7c.1 1.3.3 2.5.5 3.8s.3 2.6.5 3.9.4 2.6.5 3.9l5-3.6c.4-1.7.7-3.4 1.1-5.1s.7-3.3 1.1-5c.3-1.6.7-3.3 1-4.9s.7-3.2 1-4.8.6-3.1.9-4.7.6-3.2.9-4.7c.3-1.6.6-3.2.9-4.7.2-1.5.5-3 .8-4.6m6.5 3.7-3.7 2.7-.1 1.1-1.6 24.6 3.7-2.7zm-1.1-9.9c-.2.1-.4.3-.5.4-.2.1-.3.3-.5.5-.1.2-.3.3-.4.5l-.3.6c-.1.2-.2.4-.2.6-.1.2-.1.5-.2.7-.1.3-.1.5-.1.8s-.1.6-.1.9v1.6c0 .2.1.4.1.5s.1.3.2.3l.2.2h.3c.1 0 .3-.1.4-.2.2-.1.3-.2.5-.3s.4-.3.5-.4c.2-.1.3-.3.5-.5.1-.2.3-.3.4-.5l.3-.6c.1-.2.2-.4.2-.6.1-.2.1-.5.2-.7.1-.3.1-.5.1-.8s.1-.6.1-.9v-1.6c0-.2-.1-.4-.1-.5s-.1-.3-.2-.3l-.2-.2h-.3c-.1 0-.3.1-.4.2-.1 0-.3.2-.5.3m13.6.4c-.1.1-.3.2-.4.4-.1.1-.3.3-.4.5s-.3.4-.4.6-.3.5-.4.8-.3.6-.4.9c-.2.4-.3.7-.5 1.2-.2.4-.4.9-.6 1.4s-.4 1.1-.6 1.7l-.3-4.1-2.8 2-1.7 25.7 3.7-2.7 1.1-16.4c.2-.4.3-.8.5-1.2s.3-.7.4-1.1c.1-.3.3-.6.4-.9s.2-.5.3-.8l.3-.6c.1-.2.2-.3.3-.5.1-.1.2-.3.3-.4l.3-.3.1-.1.1-.1c.1 0 .1 0 .2-.1.1 0 .1 0 .2-.1h.2c.1 0 .1 0 .2-.1h.4l.9-6.4c-.1 0-.1 0-.2.1-.1 0-.1 0-.2.1-.1 0-.1 0-.2.1-.1 0-.1 0-.2.1 0 0-.1 0-.1.1 0 0-.1 0-.1.1l-.1.1c-.3-.1-.3-.1-.3 0m9.2-13.7-2.2 1.6c-.1.8-.3 1.6-.5 2.4s-.3 1.5-.5 2.3c-.2.7-.3 1.5-.5 2.2s-.4 1.4-.5 2l-1.9 1.4-.3 4.4 1.9-1.4-.9 13.8c0 .7-.1 1.3-.1 1.9v1.5c0 .4.1.8.2 1.2.1.3.2.6.3.8s.3.4.4.5c.2.1.4.1.6.1s.5-.1.7-.2q.45-.15.9-.6c.2-.1.3-.2.5-.4.2-.1.3-.3.5-.4l.5-.5.5-.5c.2-.2.3-.4.5-.6.1-.2.3-.4.4-.6s.3-.4.4-.6.3-.4.4-.6v-3.7l-.3.3c-.1.1-.2.2-.3.2l-.2.2c-.1.1-.2.1-.2.2-.1.1-.2.1-.2.2-.1.1-.2.1-.2.2-.1.1-.2.1-.2.2-.1.1-.2.1-.2.2-.1.1-.2.1-.3.2h-.3c-.1 0-.2 0-.2-.1l-.2-.2c0-.1-.1-.2-.1-.4 0-.1-.1-.3-.1-.4v-1.1l.9-13.5 3.1-2.3.3-4.4-3.1 2.3zm18.6-6.1-3.7 2.7-1.3 19.4c-.2.4-.5.7-.7 1s-.4.6-.7.8c-.2.3-.4.5-.6.7s-.4.4-.6.5-.3.2-.4.2h-.4q-.15 0-.3-.3c-.1-.1-.1-.3-.2-.5s-.1-.5-.1-.8 0-.8-.1-1.2v-1.6c0-.6.1-1.3.1-2l.9-13.1-3.7 2.7c0 .3 0 .6-.1 1.1 0 .4-.1 1-.1 1.6s-.1 1.3-.2 2.1-.1 1.6-.2 2.6c-.1.9-.1 1.8-.2 2.6s-.1 1.5-.1 2.1-.1 1.1-.1 1.6c0 .4-.1.8-.1 1.1-.1 1-.1 2-.1 2.9v2.3c0 .7.1 1.3.2 1.8q.15.75.3 1.2c.1.3.3.6.5.7q.3.3.6.3c.2 0 .5 0 .8-.1s.6-.3.9-.5c.2-.1.4-.3.6-.5l.6-.6c.2-.2.4-.5.6-.7.2-.3.4-.5.6-.8l.6-.9c.2-.3.4-.6.6-1 .2-.3.4-.7.6-1 .2-.4.4-.7.6-1.1l.2 2.6 2.8-2.1zm8.2 14c-.1.1-.3.2-.4.2-.1.1-.2.1-.3.1h-.3c-.1 0-.2-.1-.2-.2-.1-.1-.1-.2-.2-.3 0-.1-.1-.3-.1-.4v-1.3c0-.3.1-.6.1-.9s.1-.6.2-.8c.1-.3.2-.5.3-.8s.2-.5.3-.8.3-.5.5-.8c.2-.2.4-.5.6-.7l.7-.7c.2-.2.5-.5.9-.7l1.1-.8-.3 5.2-.3.6-.3.6c-.1.2-.2.3-.3.5s-.2.3-.3.4-.2.3-.3.4-.2.2-.3.4l-.3.3c-.6.3-.7.4-.8.5m2.5-22.2c-.2.1-.4.3-.6.5l-.6.6c-.2.2-.4.4-.7.6-.2.2-.4.5-.7.7-.2.2-.5.5-.7.8-.3.3-.5.6-.8 1s-.6.7-.9 1.1-.6.8-.9 1.3l.1 3.7c.2-.2.4-.5.6-.7l.6-.6c.2-.2.4-.4.5-.6.2-.2.3-.4.5-.5l.5-.5.5-.5c.2-.1.3-.3.5-.4s.4-.3.5-.4c.2-.1.4-.3.6-.4s.3-.2.5-.2.3-.1.4-.1.3 0 .4.1.2.1.3.3c.1.1.1.3.2.5 0 .2.1.4.1.7v.9l-.1 1.7-1 .7c-.6.4-1.2.9-1.7 1.4l-1.5 1.5c-.5.5-.9 1.1-1.3 1.6-.4.6-.7 1.2-1.1 1.8-.3.6-.6 1.2-.8 1.9-.2.6-.5 1.3-.6 1.9-.2.6-.3 1.3-.4 1.9s-.2 1.3-.2 1.9c-.1 1.2-.1 2.2.1 3 .1.8.3 1.4.7 1.7.3.3.7.5 1.3.4.5-.1 1.1-.4 1.9-.9.2-.1.4-.3.6-.5l.6-.6c.2-.2.4-.5.6-.7.2-.3.4-.5.6-.8l.6-.9c.2-.3.4-.6.5-.9.2-.3.3-.7.5-1s.3-.7.5-1l.2 2.6 2.7-2 1.2-17.7c0-.7.1-1.3 0-1.9 0-.6 0-1.1-.1-1.5s-.2-.8-.3-1.1-.3-.6-.5-.8-.4-.3-.6-.4-.5-.1-.8 0-.6.2-1 .4c-.6-.2-1 0-1.5.4m14.4-20-3.6 2.6-2 30.9v1.4c0 .4 0 .8.1 1.1 0 .3.1.6.2.8s.2.4.3.5.2.2.4.2h.5c.2 0 .4-.1.6-.2s.5-.3.7-.4c.2-.2.4-.3.7-.5.2-.2.4-.4.7-.6l.7-.7c.2-.3.5-.5.7-.8l.1-3.7-.9.7c-.1.1-.2.1-.2.1h-.2c-.1 0-.1 0-.1-.1 0 0-.1-.1-.1-.2s0-.2-.1-.3v-2.1zm9.1 22.8-1.7 1.1.7-10.3 1.6-1.1c.3-.2.6-.4.8-.5s.5-.2.7-.2h.6c.2 0 .3.1.4.3.1.1.2.3.3.5s.2.4.2.7c0 .2.1.5.1.8v1c0 .4-.1.8-.1 1.2-.1.4-.1.8-.2 1.2s-.2.7-.3 1.1-.2.7-.4 1c-.1.3-.3.7-.5 1l-.6.9c-.2.3-.4.5-.7.8-.3.1-.6.3-.9.5m-.6-14.2.6-8.7 1.7-1.3.6-.3c.2-.1.3-.1.5-.1.1 0 .3 0 .4.1s.2.1.3.3c.1.1.2.3.2.4.1.2.1.4.1.6s.1.5.1.7v.9c0 .3-.1.6-.1.9s-.1.6-.2.9l-.3.9c-.1.3-.2.6-.4.9-.1.3-.3.6-.5.9s-.3.5-.5.8c-.2.2-.4.5-.6.7s-.4.4-.7.6zm3.2-15.4-6.1 4.4-2.3 34.3 4.9-3.6c.7-.5 1.3-1 1.9-1.6s1.2-1.1 1.7-1.8c.5-.6 1-1.3 1.4-1.9.4-.7.8-1.4 1.1-2.1s.6-1.5.9-2.2.5-1.5.7-2.3.4-1.5.5-2.3l.3-2.4v-1.2c0-.4-.1-.8-.1-1.1-.1-.3-.1-.7-.2-1s-.2-.6-.4-.8c-.1-.3-.3-.5-.5-.6-.2-.2-.4-.3-.6-.4s-.4-.1-.6-.1-.5.1-.7.2c.2-.4.5-.7.7-1.1s.4-.7.6-1.1.4-.7.5-1.1c.2-.4.3-.7.4-1.1s.2-.7.3-1.1l.3-1.2c.1-.4.1-.8.2-1.3 0-.4.1-.9.1-1.4v-1.8c0-.5-.1-1-.2-1.4s-.2-.8-.4-1.1-.3-.6-.5-.7c-.2-.2-.5-.3-.7-.4-.3-.1-.6 0-.9 0s-.7.2-1.1.4q-.45.45-1.2.9m13.6 18.3q-.3.3-.6.3c-.2.1-.4.1-.5 0-.2 0-.3-.1-.4-.3q-.15-.15-.3-.6c-.1-.2-.2-.6-.2-.9-.1-.4-.1-.9-.1-1.4v-1.8c0-.7.1-1.5.1-2.3 0-.7.1-1.3.2-1.9s.1-1.2.2-1.7l.3-1.5c.1-.5.2-.9.4-1.3.1-.4.3-.7.4-1.1.2-.3.3-.6.5-.9s.4-.5.6-.7l.6-.6q.3-.3.6-.3c.2-.1.4-.1.5 0 .1 0 .3.1.4.3q.15.15.3.6c.1.3.2.6.2 1s.1.9.1 1.4v1.9c0 .7-.1 1.5-.1 2.3 0 .7-.1 1.3-.2 1.9s-.1 1.1-.2 1.7c-.1.5-.2 1-.3 1.4s-.2.8-.4 1.2c-.1.4-.3.7-.4 1s-.3.6-.5.9-.3.5-.5.7c-.3.4-.5.6-.7.7m1.5-21.4c-.5.4-1 .8-1.5 1.3s-.9 1-1.3 1.6-.8 1.2-1.2 1.9-.7 1.4-1.1 2.2c-.3.8-.6 1.6-.9 2.5s-.5 1.8-.7 2.8-.4 2-.5 3q-.15 1.5-.3 3.3c-.1 1.1-.1 2.1-.1 3.1 0 .9 0 1.7.1 2.4q.15 1.05.3 1.8c.2.5.3.9.6 1.2.2.3.5.5.8.7.3.1.6.2 1 .2s.8-.2 1.2-.4.9-.5 1.4-.9 1-.8 1.5-1.3.9-1 1.3-1.6.8-1.2 1.2-1.9.7-1.4 1.1-2.3c.3-.8.6-1.7.9-2.5.3-.9.5-1.8.7-2.8s.4-2 .5-3 .3-2.1.3-3.3c.1-1.1.1-2 .1-2.9s0-1.7-.1-2.3c-.1-.7-.2-1.3-.4-1.8q-.3-.75-.6-1.2c-.2-.3-.5-.6-.8-.7s-.6-.2-1-.2q-.6 0-1.2.3c-.3.1-.8.4-1.3.8m19.2-13.5-3.7 2.7c-.1.3-.2.6-.3 1-.1.3-.2.7-.3 1s-.2.7-.3 1-.2.7-.3 1-.2.7-.3 1l-.3.9-.3.9c-.1.3-.2.6-.3.8l-1.4-5-4.2 3 2.9 9.4-5.2 16.3 3.8-2.8c.1-.4.2-.8.3-1.3.1-.4.2-.8.3-1.3.1-.4.2-.9.3-1.3s.2-.9.4-1.3c.1-.4.2-.9.4-1.3.1-.4.2-.8.4-1.2.1-.4.2-.8.4-1.2.1-.4.2-.8.4-1.1l1.8 6.6 4.3-3.1-3.5-10.8z" style="fill:#fff"/></svg>