<?xml version="1.0" encoding="utf-8"?>
<!-- Generator: Adobe Illustrator 28.2.0, SVG Export Plug-In . SVG Version: 6.00 Build 0)  -->
<svg version="1.1" id="Layer_1" xmlns="http://www.w3.org/2000/svg" xmlns:xlink="http://www.w3.org/1999/xlink" x="0px" y="0px"
	 viewBox="0 0 512 512" style="enable-background:new 0 0 512 512;" xml:space="preserve">
<style type="text/css">
	.st0{fill-rule:evenodd;clip-rule:evenodd;fill:#FFFFFF;}
</style>
<path class="st0" d="M427.5,0h-343C37.8,0,0,37.8,0,84.5v343C0,474.2,37.8,512,84.5,512h343c46.7,0,84.5-37.8,84.5-84.5v-343
	C512,37.8,474.2,0,427.5,0z M151.8,136.7c14.4,0,26.1,11.7,26.1,26.1c0,14.4-11.7,26.1-26.1,26.1c-14.4,0-26.1-11.7-26.1-26.1
	C125.7,148.4,137.4,136.7,151.8,136.7z M256,375.3c-71.8,0-130.2-58.4-130.2-130.2H170c0,47.4,38.6,86,86,86c47.4,0,86-38.6,86-86
	h44.2C386.2,316.9,327.8,375.3,256,375.3z M360.2,188.9c-14.4,0-26.1-11.7-26.1-26.1c0-14.4,11.7-26.1,26.1-26.1
	c14.4,0,26.1,11.7,26.1,26.1C386.3,177.2,374.6,188.9,360.2,188.9z"/>
</svg>
