<?xml version="1.0" encoding="utf-8"?>
<!-- Generator: Adobe Illustrator 28.2.0, SVG Export Plug-In . SVG Version: 6.00 Build 0)  -->
<svg version="1.1" id="Layer_1" xmlns="http://www.w3.org/2000/svg" xmlns:xlink="http://www.w3.org/1999/xlink" x="0px" y="0px"
	 viewBox="0 0 512 512" style="enable-background:new 0 0 512 512;" xml:space="preserve">
<style type="text/css">
	.st0{fill-rule:evenodd;clip-rule:evenodd;fill:#1700FF;}
	.st1{fill-rule:evenodd;clip-rule:evenodd;fill:#FFFFFF;}
</style>
<path class="st0" d="M427.5,512h-343C37.8,512,0,474.2,0,427.5v-343C0,37.8,37.8,0,84.5,0h343C474.2,0,512,37.8,512,84.5v343
	C512,474.2,474.2,512,427.5,512z"/>
<path class="st1" d="M177.9,162.8c0,14.4-11.7,26.1-26.1,26.1s-26.1-11.7-26.1-26.1c0-14.4,11.7-26.1,26.1-26.1
	S177.9,148.4,177.9,162.8z M386.3,162.8c0,14.4-11.7,26.1-26.1,26.1c-14.4,0-26.1-11.7-26.1-26.1c0-14.4,11.7-26.1,26.1-26.1
	C374.6,136.7,386.3,148.4,386.3,162.8z M256,375.3c-71.8,0-130.2-58.4-130.2-130.2H170c0,47.4,38.6,86,86,86c47.4,0,86-38.6,86-86
	h44.2C386.2,316.9,327.8,375.3,256,375.3z"/>
</svg>
