<svg xmlns="http://www.w3.org/2000/svg" xml:space="preserve" viewBox="0 0 512 512"><path d="M2.1 184.2C0 194.9 0 208.1 0 230.2v53.1c0 27.4 0 41.1 4 53.4 3.5 10.9 9.3 20.8 16.9 29.3 8.6 9.6 20.5 16.4 44.2 30.1l46 26.6c21 12.1 32.7 18.9 43.9 22.1V280.9c0-8.2-4.5-15.7-11.7-19.7z" style="fill:#c9191e"/><path d="M386.8 208.3v85.5c0 11.8 5.1 23.1 14.1 30.8l61.5 53.2c3.6 3 7.3 5.5 11.2 7.5 4 1.8 7.9 2.7 11.6 2.7 8 0 14.5-2.6 19.3-7.9q7.5-8.1 7.5-21v-216c0-8.6-2.5-15.5-7.5-20.8-4.8-5.4-11.3-8.1-19.3-8.1-3.7 0-7.6.9-11.6 2.7-3.9 1.8-7.6 4.3-11.2 7.5l-61.5 53c-9 7.8-14.1 19-14.1 30.9M22.6 153.7c-1.7-.9-3.5-1.6-5.3-1.9 1.1-1.5 2.3-2.9 3.6-4.3 8.6-9.6 20.5-16.4 44.2-30.1l46-26.6c23.7-13.7 35.6-20.6 48.2-23.2 11.2-2.4 22.7-2.4 33.9 0 12.6 2.7 24.5 9.5 48.2 23.2l45.5 26.3c.2.1.4.2.5.3 23.7 13.7 35.6 20.6 44.2 30.1 7.6 8.5 13.4 18.5 16.9 29.3 4 12.3 4 26 4 53.4v53.1c0 27.4 0 41.1-4 53.4-3.5 10.9-9.3 20.8-16.9 29.3-8.6 9.6-20.5 16.4-44.2 30.1-.2.1-.4.2-.6.4l-45.4 26.2c-23.7 13.7-35.6 20.6-48.2 23.2-.5.1-1 .2-1.6.3V280.9c0-21.6-11.8-41.5-30.8-51.8z" style="fill:#000091"/></svg>