<svg xmlns="http://www.w3.org/2000/svg" xml:space="preserve" viewBox="0 0 512 512"><linearGradient id="vitepress_svg__a" x1="83.416" x2="430.811" y1="502.982" y2="9.857" gradientTransform="matrix(1 0 0 -1 0 514)" gradientUnits="userSpaceOnUse"><stop offset="0" style="stop-color:#49c7ff"/><stop offset="1" style="stop-color:#bd36ff"/></linearGradient><path d="M53.7 84c-3-21.7 11.9-41.9 33.4-44.9L359.3.4c21.5-3.1 41.3 12.1 44.3 33.8L458.3 428c3 21.7-11.9 41.9-33.4 44.9l-272.2 38.7c-21.5 3.1-41.3-12.1-44.3-33.8z" style="fill:url(#vitepress_svg__a)"/><path d="M73.2 81.3c-1.5-10.9 6-20.9 16.7-22.5L362 20.1c10.7-1.5 20.7 6 22.2 16.9l54.6 393.7c1.5 10.9-6 20.9-16.7 22.5L150 491.9c-10.7 1.5-20.7-6-22.2-16.9z" style="fill:#fff"/><linearGradient id="vitepress_svg__b" x1="176.85" x2="335.141" y1="388.356" y2="228.451" gradientTransform="matrix(1 0 0 -1 0 514)" gradientUnits="userSpaceOnUse"><stop offset="0" style="stop-color:#41d1ff"/><stop offset="1" style="stop-color:#bd34fe"/></linearGradient><path d="m354 159.1-78.2 205.2c-1.6 4.2-7.2 5-9.9 1.4L131.6 190.2c-3-3.9-.1-9.6 4.8-9.4l108 4.4c.7 0 1.4-.1 2-.3l100.4-33.4c4.6-1.6 8.9 3 7.2 7.6" style="fill:url(#vitepress_svg__b)"/><linearGradient id="vitepress_svg__c" x1="243.926" x2="291.207" y1="371.118" y2="210.027" gradientTransform="matrix(1 0 0 -1 0 514)" gradientUnits="userSpaceOnUse"><stop offset="0" style="stop-color:#ffea83"/><stop offset=".083" style="stop-color:#ffdd35"/><stop offset="1" style="stop-color:#ffa800"/></linearGradient><path d="m288.3 134.1-75.6 26.3c-1.2.4-2 1.7-1.9 3l6.8 82.6c.2 1.9 2.1 3.2 3.9 2.5l20.9-8.1c2-.8 4 .8 3.9 2.9l-1.9 32.8c-.1 2.2 2.1 3.8 4.1 2.8l12.8-6c2-.9 4.2.6 4.1 2.8l-3.1 51.6c-.2 3.2 4.2 4.4 5.5 1.4l.9-2 45.3-137c.8-2.3-1.4-4.5-3.7-3.7l-21.7 7.5c-2 .7-4.1-1-3.8-3.2l7.3-53.1c.3-2-1.8-3.8-3.8-3.1" style="fill:url(#vitepress_svg__c)"/></svg>