<svg xmlns="http://www.w3.org/2000/svg" xml:space="preserve" viewBox="0 0 512 512"><path d="M458.3 428 403.6 34.2c-3-21.7-22.9-36.9-44.3-33.8L87.1 39.1C65.7 42.2 50.7 62.3 53.7 84l54.6 393.7c3 21.7 22.9 36.9 44.3 33.8l272.2-38.7c21.5-3 36.5-23.1 33.5-44.8m-36.2 25.2L150 491.9c-10.7 1.5-20.7-6-22.2-16.9L73.2 81.3c-1.5-10.9 6-20.9 16.7-22.5L362 20.1c10.7-1.5 20.7 6 22.2 16.9l54.6 393.7c1.5 10.9-5.9 21-16.7 22.5M288.3 134.1l-75.6 26.3c-1.2.4-2 1.7-1.9 3l6.8 82.6c.2 1.9 2.1 3.2 3.9 2.5l20.9-8.1c2-.8 4 .8 3.9 2.9l-1.9 32.8c-.1 2.2 2.1 3.8 4.1 2.8l12.8-6c2-.9 4.2.6 4.1 2.8l-3.1 51.6c-.2 3.2 4.2 4.4 5.5 1.4l.9-2 45.3-137c.8-2.3-1.4-4.5-3.7-3.7l-21.7 7.5c-2 .7-4.1-1-3.8-3.2l7.3-53.1c.3-2-1.8-3.8-3.8-3.1m65.7 25-78.2 205.2c-1.6 4.2-7.2 5-9.9 1.4L131.6 190.2c-3-3.9-.1-9.6 4.8-9.4l67.5 2.7 5.2 63.2c.3 3.6 2.3 6.9 5.3 8.8s6.8 2.3 10.1 1l12.8-5-1.4 24.2c-.2 4.1 1.6 7.9 5 10.1 3.3 2.3 7.5 2.6 11.2.9l4.2-2-2.6 42.2c-.3 5.6 3.2 10.4 8.6 11.8 1 .2 1.9.4 2.8.4 4.4 0 8.3-2.5 10.3-6.7l1.1-2.4L322 192.5c1.4-4.2.3-8.7-2.8-11.7-3.1-3.1-7.6-4.1-11.7-2.7l-13.1 4.5 2-14.4 50.4-16.8c4.6-1.5 8.9 3.1 7.2 7.7"/></svg>