<svg xmlns="http://www.w3.org/2000/svg" xml:space="preserve" viewBox="0 0 512 512"><path d="M407.5 0h-303C46.8 0 0 46.8 0 104.5v303C0 465.2 46.8 512 104.5 512h303c57.7 0 104.5-46.8 104.5-104.5v-303C512 46.8 465.2 0 407.5 0m-5.9 133.5L282.6 404c-2.7 6.2-6.1 11-10.2 14.2-4.1 3-9.6 4.4-16.4 4.4-6.5 0-12-1.5-16.4-4.4-4.1-3.3-7.5-8-10.2-14.2L109.8 133.5c-2.4-6.2-3-11.5-1.8-16s3.6-7.8 7.1-10.2c3.8-2.7 8.4-4 13.8-4 6.8 0 12 1.5 15.5 4.4 3.6 3 6.5 7.4 8.9 13.3L257 361.3l102.8-240.7q4.05-8.4 9.3-12.9c3.8-3 9-4.4 15.5-4.4 5.3 0 9.6 1.3 12.9 4 3.6 2.4 5.8 5.8 6.7 10.2.9 4.5.1 9.8-2.6 16"/></svg>