<svg xmlns="http://www.w3.org/2000/svg" xml:space="preserve" viewBox="0 0 512 512"><path d="M454.6.2H181.7c-31.7 0-57.4 25.7-57.4 57.4v272.8c0 31.7 25.7 57.4 57.4 57.4h272.8c31.7 0 57.4-25.7 57.4-57.4V57.6C512 25.9 486.3.2 454.6.2m-20.1 274.6c0 19.6-15.9 35.5-35.5 35.5H237.4c-19.6 0-35.5-15.9-35.5-35.5V113.2c0-19.6 15.9-35.5 35.5-35.5H399c19.6 0 35.5 15.9 35.5 35.5z" style="fill:#0097d3"/><path d="M387.7 310.4V181.6c0-31.7-25.7-57.4-57.4-57.4H57.4C25.7 124.2 0 149.9 0 181.6v272.8c0 31.7 25.7 57.4 57.4 57.4h272.8c31.7 0 57.4-25.7 57.4-57.4v-66.6h-77.5v10.9c0 19.6-15.9 35.5-35.5 35.5H113c-19.6 0-35.5-15.9-35.5-35.5V237.2c0-19.6 15.9-35.5 35.5-35.5h161.6c19.6 0 35.5 15.9 35.5 35.5v73.2z" style="fill:#f38b00"/><path d="M197.6 201.6h-73.3l.1 31.1z" style="fill:#0077a9"/><path d="m387.6 418.9.1-31.1h-73.3z" style="fill:#c96d00"/></svg>