<svg xmlns="http://www.w3.org/2000/svg" xml:space="preserve" viewBox="0 0 512 512"><path d="m325 445.7.6-1.3-7.2-1.8c-2.5-.8-5-1.2-7.7-1.2-16.3 0-29.6 15.3-29.6 34.2V503c0 3.3 2.1 6.1 4.8 6.6l8.5 2.2.9-2.1H336c2.4 0 4.3-2.2 4.3-5v-29.2c0-12.7-6.2-23.9-15.3-29.8m-1.9 33.4 1.9 19.5c.2 2.2-1.1 4.2-3 4.5h-4.7c-2 0-3.5-1.9-3.5-4.2v-.4l1.4-19.3c-3.4-1.5-5.7-4.8-5.7-8.7 0-5.3 4.3-9.5 9.5-9.5s9.5 4.3 9.5 9.5c0 3.8-2.2 7-5.4 8.6" style="opacity:.78;fill-opacity:.9961"/><path d="M319.1 443.6c-16.3 0-29.6 15.3-29.6 34.2v27.4c0 3.7 2.6 6.7 5.8 6.7h48.9c2.4 0 4.3-2.2 4.3-5v-29.2c.2-18.8-13.1-34.1-29.4-34.1m4 35.5 1.9 19.5c.2 2.2-1.1 4.2-3 4.5h-4.7c-2 0-3.5-1.9-3.5-4.2v-.4l1.4-19.3c-3.4-1.5-5.7-4.8-5.7-8.7 0-5.3 4.3-9.5 9.5-9.5s9.5 4.3 9.5 9.5c0 3.8-2.2 7-5.4 8.6m151.6-203c-1-64.4-23.5-109-35.7-132.9-2.6-5.2-5.3-10.5-5.8-12.4-.6-2.2-1.7-9.6-2.8-17.4C419.5 39.6 410 1.8 388.7.1c-8.4-.7-22.9 3.2-60.8 39.7-14.9 14.4-28.1 28.6-34 35.1-15.1-.3-47.5.7-55.7 1.2-1.5.1-4.1.5-24.4 4.4-4.3.8-9.2 1.8-13 2.5-5.6-7.6-16.6-22.2-28.9-36.8-10.4-12.3-19.5-21.9-27.2-28.8C132.6 6.7 123.6 2.6 115.6 4 99.3 6.8 89.8 26.9 83.4 44c-7.2 19.3-13.5 44.4-19.6 68.6-2.6 10.1-5.2 20.6-7.8 30.4l-1.3 4.7c-14.4 53.2-21.6 79.9-15 138.5 3.1 27.7 22.1 63 34.1 80.1 7.6 10.9 24.7 29.4 47.5 43.9-1.6 1.9-2.9 4.1-4 6.4-7.1 15.3-.5 33.5 14.8 40.6 38.4 17.8 79.9 24 119.9 24 6.4 0 12.8-.2 19.1-.5v-5c0-24.4 17.8-44.2 39.6-44.2 3.5 0 7 .5 10.4 1.5l6.1 1.5c.2 0 .3.1.4.1 13.4 3.3 24.2 13.3 28.3 26.5.8 2.6 1.4 5.3 1.9 8 6.7-1.4 13.2-2.8 19.4-4.2 16.5-3.8 27.3-20.1 23.6-36.6-1.1-5-3.4-9.4-6.4-13 3.1-1.6 6.2-3.3 9.2-5.1 22.5-13.6 41.1-33.6 53.5-57.8 12-23 18-49.4 17.6-76.3m-224.6 21.7c-27.8 2.9-53.7-20.9-57.8-53.1s15-60.7 42.8-63.6c2.2-.2 4.4-.3 6.6-.2 25.5 1.2 47.4 24 51.2 53.3 4.1 32.2-15 60.7-42.8 63.6M419 234.2c.1 30.4-19 54.8-42.8 54.6-23.7-.2-43.1-25-43.2-55.4s19-54.8 42.8-54.6 43.1 25 43.2 55.4" style="fill-opacity:.9961"/></svg>