<svg xmlns="http://www.w3.org/2000/svg" xml:space="preserve" viewBox="0 0 512 512"><path d="M360.8 278.7h98.7v1c0 48.1-15.9 96.9-43.5 134.1-24.8 33.5-56.2 59.2-90.7 74.4-29.6 13.1-61 19.2-98.8 19.2-31.9 0-58.8-5.2-84.8-16.4-28.6-12.2-53.4-28.8-73.8-49.2-68-68-86-179.9-43-266.3 22-44.1 62-82.2 109.8-104.6 28.6-13.4 62.4-20.8 95.3-20.8h1v98.6h-1c-23 0-45.3 6-64.5 17.5-17 10.1-31.5 23.5-43.3 40.1-9.5 13.2-15.6 26.5-19.3 41.9-10.2 42.7 2.3 87.8 33.6 120.6 31.5 33 76.2 47.7 119.7 39.4 13.5-2.6 28.3-8.6 41.9-17 16.1-10 29.4-22.3 39.4-36.5 15.8-22.4 23.4-47 23.4-75v-1zm149-137c-14.2-6.1-28-14.5-41.3-22.7-5.4-3.3-11.1-6.8-16.6-10-18.2-10.4-36.7-21.2-54.5-31.5-21.3-12.3-43.3-25.1-65-37.5-6-3.4-11.9-7.2-18.3-11.2-15.1-9.6-30.8-19.6-47-24.3l-1.3-.4v280.4l1.3-.4c16.3-4.7 31.9-14.6 47-24.3 6.3-4 12.3-7.8 18.3-11.2 22.4-12.8 45.1-25.9 67-38.7 17.2-10 34.9-20.3 52.5-30.3 5.8-3.3 11.8-7 17.5-10.5 13-8 26.5-16.2 40.4-22.2l.6-.3v-4.8z" style="fill:#fff"/></svg>