<svg xmlns="http://www.w3.org/2000/svg" xml:space="preserve" viewBox="0 0 512 512"><path d="M256 0C114.6 0 0 114.6 0 256s114.6 256 256 256 256-114.6 256-256S397.4 0 256 0m75.4 250.4c-1.1 2.1-2.1 4.3-3.3 6.3s-2.4 4.1-3.6 6.1c-.9 1.5-1.8 3.1-2.7 4.6l-3 5.1c-1.1 1.8-2.2 3.7-3.3 5.5-1.2 2-2.3 3.9-3.5 5.9-1.3 2.1-2.5 4.1-3.7 6.2s-2.5 4.3-3.8 6.4l-3.9 6.6c-1.3 2.3-2.7 4.5-4 6.8-1.4 2.3-2.7 4.6-4.1 6.9s-2.7 4.6-4.1 6.9-2.7 4.6-4.1 6.9c-1.3 2.3-2.7 4.5-4 6.8l-3.9 6.6c-1.3 2.1-2.5 4.3-3.8 6.4s-2.5 4.1-3.7 6.2c-1.2 2-2.3 3.9-3.5 5.9-1.1 1.8-2.2 3.7-3.3 5.5l-3 5.1c-.9 1.6-1.8 3.1-2.7 4.6-.8 1.3-1.6 2.7-2.4 4-1.2 1.9-2.3 3.8-3.4 5.7-3.4 5.5-7.1 10.9-10.6 16.3-1.5 2.3-3.6 4.8-6 6.2-2.7 1.5-7 1.5-9.5-.3-1.3-.9-2.4-2.2-3.1-3.6-.1-.2-.1-.3-.2-.4-.4-1-.6-2.1-.8-3.2s-.3-2.3-.3-3.5c0-2.3.3-4.6.7-6.9 0-.2 16.9-101.7 16.9-101.7-3.9-.1-38.1-.4-41.9-.4-3.1 0-6.2-.1-9-1.4-1.8-.9-3.7-2-5.2-3.4-1.1-.9-1.8-2-2.4-3.2 0-.1-.1-.2-.1-.3-.1 0-.1-.1-.1-.1-.5-1.1-1-2.2-1.3-3.3s-.4-2.1-.5-3.2c-.2-4.6 1.2-9.3 3.2-13.3 1.1-2.1 2.1-4.3 3.3-6.3s2.4-4.1 3.6-6.1c.9-1.5 1.8-3.1 2.7-4.6l3-5.1c1.1-1.8 2.2-3.7 3.3-5.5 1.2-2 2.3-3.9 3.5-5.9 1.3-2.1 2.5-4.1 3.7-6.2s2.5-4.3 3.8-6.4l3.9-6.6c1.3-2.3 2.7-4.5 4-6.8 1.4-2.3 2.7-4.6 4.1-6.9s2.7-4.6 4.1-6.9l4.1-6.9c1.3-2.3 2.7-4.5 4-6.8l3.9-6.6c1.3-2.1 2.5-4.3 3.8-6.4s2.5-4.1 3.7-6.2c1.2-2 2.3-3.9 3.5-5.9 1.1-1.8 2.2-3.7 3.3-5.5l3-5.1 2.7-4.6c.8-1.3 1.6-2.7 2.4-4 1.2-1.9 2.3-3.8 3.4-5.7 3.4-5.5 7.1-10.9 10.6-16.3 1.5-2.3 3.6-4.8 6-6.2 2.7-1.5 7-1.5 9.5.3 1.3.9 2.4 2.2 3.1 3.6.1.2.1.3.2.4.4 1 .6 2.1.8 3.2s.3 2.3.3 3.5c0 2.3-.3 4.6-.7 6.9 0 .2-16.9 101.7-16.9 101.7 3.9.1 38.1.4 41.9.4 3.1 0 6.2.1 9 1.4 1.8.9 3.7 2 5.2 3.4 1.1.9 1.8 2 2.4 3.2 0 .1.1.2.1.3.1 0 .1.1.1.1.5 1.1 1 2.2 1.3 3.3s.4 2.1.5 3.2c.2 4.5-1.2 9.2-3.2 13.3"/></svg>