<?xml version="1.0" encoding="utf-8"?>
<!-- Generator: Adobe Illustrator 28.2.0, SVG Export Plug-In . SVG Version: 6.00 Build 0)  -->
<svg version="1.1" id="Layer_1" xmlns="http://www.w3.org/2000/svg" xmlns:xlink="http://www.w3.org/1999/xlink" x="0px" y="0px"
	 viewBox="0 0 512 512" style="enable-background:new 0 0 512 512;" xml:space="preserve">
<g>
	<path d="M492.5,334c-8.4-3.6-18.1,0.4-21.7,8.8c-32.5,77-105.4,129.4-188.8,135.5v-39.9c0.9-2.2,1.9-4.3,3.1-6.3
		c10.4-18.6,29.7-29.2,52-41.4c25.5-14,54.3-29.8,71.9-61.2c4.4-8,1.4-18.1-6.6-22.5c-7.9-4.3-17.8-1.5-22.3,6.3
		c-13,23.1-35.3,35.4-59,48.3c-13.4,7.4-27.1,14.9-39.2,24.5v-23.8c0-34.1,22.6-53.5,51.1-78.1c34.8-30,74.2-63.9,74.2-132
		c0-9.2-7.4-16.6-16.6-16.6c-9.1,0-16.6,7.4-16.6,16.6c0,33.7-12.4,56.6-29.7,76c-17-23.4-28.7-53.7-28.7-76
		c0-9.2-7.4-16.6-16.6-16.6c-9.1,0-16.6,7.4-16.6,16.6c0,30.8,15.1,69.5,37.8,99.2l-8.9,7.7c-16.8,14.5-34,29.3-46,47.7
		c-12.1-18.5-29.2-33.2-46.1-47.7l-8.9-7.7c22.7-29.6,37.8-68.4,37.8-99.2c0-9.2-7.4-16.6-16.6-16.6c-9.1,0-16.6,7.4-16.6,16.6
		c0,22.3-11.8,52.6-28.7,76c-17.4-19.4-29.8-42.2-29.8-76c0-9.2-7.4-16.6-16.6-16.6c-9.1,0-16.6,7.4-16.6,16.6
		c0,68.1,39.4,102,74.2,132c28.5,24.6,51.1,44,51.1,78.1v23.9c-12.1-9.7-25.8-17.3-39.2-24.6c-23.7-13-46-25.3-59-48.3
		c-4.5-8-14.6-10.8-22.6-6.3s-10.8,14.6-6.3,22.6c17.6,31.4,46.4,47.2,71.9,61.1c22.4,12.3,41.7,22.9,52,41.4
		c1.1,2.1,2.2,4.2,3.1,6.4v39.9C126.1,469.2,34,362.3,43.1,239.6C47,186.3,70,136.2,107.8,98.4c87.1-87,228.3-87,315.4,0.2
		c20.2,20.3,36.4,44.2,47.6,70.6c3.5,8.5,13.3,12.4,21.7,8.9c8.5-3.5,12.4-13.3,8.9-21.7l0,0C446.2,26.1,295.9-34.8,165.6,20.3
		c-61.3,25.9-110.1,74.7-136,136c-55,130.2,6,280.4,136.2,335.4c96,40.5,206.9,18.9,280.6-54.8c23.4-23.3,42.1-51,54.9-81.4
		C504.9,347.2,500.9,337.5,492.5,334z"/>
</g>
</svg>
