<svg xmlns="http://www.w3.org/2000/svg" xml:space="preserve" viewBox="0 0 512 512"><path d="M512 426.9c0 24.4-9.6 46.5-25.3 62.8-13.2 11.1-30.3 17.9-49.7 17.9h-56.8c-29.3-15-49.4-45.5-49.4-80.7 0-50 40.6-90.6 90.6-90.6 31.2 0 58.7 15.7 75 39.7l9.5 18.4c.2.3.3.6.4.9 3.7 9.9 5.7 20.5 5.7 31.6m-189.2 0c0-8.1 1-16 2.8-23.5-16.5 16.7-38.5 27-62.7 27-51.2 0-92.8-45.8-92.8-102.3s41.5-102.3 92.8-102.3 92.8 45.8 92.8 102.3c0 10.1-1.3 19.8-3.8 29 17.8-17.8 42.4-28.8 69.5-28.8 22.6 0 44.1 7.7 61.4 21.4L325.6 46C296.9-9.5 217.7-9.5 189 46L8.8 394.2c-26.8 51.7 10.8 113.4 69 113.4h287c-26.2-18.3-42-48.1-42-80.7"/></svg>