<svg xmlns="http://www.w3.org/2000/svg" xml:space="preserve" viewBox="0 0 512 512"><path d="M346.8 280.8h45.8l-18.3-67.9zM416.2 1.1H95.8C42.9 1.1 0 44 0 96.9v318.2c0 52.9 42.9 95.8 95.8 95.8h320.5c52.9 0 95.8-42.9 95.8-95.8V96.9c-.1-52.9-43-95.8-95.9-95.8M187.1 348.5l-11.5-122.2-48.8 122.2H72L52.5 162.8h48.4l6.6 135.2 53.1-135.2h49.7L222.1 298l47.1-135.2h48.7l-76 185.7zm223.6 0-8.8-32.8h-69.3l-13.4 32.8h-47.4L352 162.8h52.4l54.1 185.7z" style="fill-rule:evenodd;clip-rule:evenodd;fill:#fff"/></svg>