<?xml version="1.0" encoding="utf-8"?>
<!-- Generator: Adobe Illustrator 28.2.0, SVG Export Plug-In . SVG Version: 6.00 Build 0)  -->
<svg version="1.1" id="svg914" xmlns:svg="http://www.w3.org/2000/svg"
	 xmlns="http://www.w3.org/2000/svg" xmlns:xlink="http://www.w3.org/1999/xlink" x="0px" y="0px" viewBox="0 0 512 512"
	 style="enable-background:new 0 0 512 512;" xml:space="preserve">
<style type="text/css">
	.st0{fill-rule:evenodd;clip-rule:evenodd;}
</style>
<path class="st0" d="M346.8,280.8h45.8l-18.3-67.9L346.8,280.8z M416.2,1.1H95.8C42.9,1.1,0,44,0,96.9v318.2
	c0,52.9,42.9,95.8,95.8,95.8h320.5c52.9,0,95.8-42.9,95.8-95.8V96.9C512,44,469.1,1.1,416.2,1.1z M187.1,348.5l-11.5-122.2
	l-48.8,122.2H72L52.5,162.8h48.4l6.6,135.2l53.1-135.2h49.7l11.8,135.2l47.1-135.2h48.7l-76,185.7H187.1z M410.7,348.5l-8.8-32.8
	h-69.3l-13.4,32.8h-47.4L352,162.8h52.4l54.1,185.7H410.7z"/>
</svg>
