<svg xmlns="http://www.w3.org/2000/svg" xml:space="preserve" viewBox="0 0 512 512"><path d="m356.4 232.7-58.2 15.1v-23.6h58.2zm53.1 95.2h-45.9V346l45.9.2zm-301.7 18.4 45.9-.2V328h-45.9zm190.4-30.5h58.2v-8.9l-58.2-11.8zm-6.1-91.6h-66.4v25.1l10.9 2.8-2.3 25.5 3.2-34.7h43.6l.8 9.1 10.2-2.6zm-72.4 0h-58.2v8.5l58.2 15.1zm-58.2 91.5h58.2v-20.6l-58.2 11.7zm64.2 0h5l2.2-23.3-7.2 1.4zM512 256c0 141.2-114.8 256-256 256S0 397.2 0 256 114.8 0 256 0s256 114.8 256 256M376.2 476.6l-10-69.1 2.8 20.7H148.4l2.3-16.5-9.5 66c.1 0 .2.1.3.2l.2-1.3-.3 1.9c34.3 17.8 73.3 27.8 114.6 27.8 42.7 0 82.9-10.8 118.1-29.7zm-227.7-48.5H369l-.7-5.1-5.7-41.3H154.8zm345.1-93.5c8.2-24.7 12.7-51.2 12.7-78.6 0-20.8-2.6-41-7.4-60.3l-137.1 35.6v-12.4h10.7v-4h-.1v-.1h-.2L258.6 159 145 214.8h-.4v4.1H156v12.3L13.4 194.3c-5 19.7-7.7 40.4-7.7 61.7 0 27.8 4.6 54.6 13 79.6L156 307.9v14.6h-52.8v23.7h-5.7l-.1 4.5 57.8 29.8-.2 1.1h207.5l-.2-1.3 57.7-29.6-.1-4.5h-5.8v-23.7h-52.3V308zm-201.5-40.7-6.4-1.3-1.6-16.6 3.7 39.7h4.3z" style="fill:#fff"/><path d="M225.7 293.9v-44.6l10.9 2.8-2.3 25.5-1.4 14.8zm56.2-41.9 2.2 24 1.6 16.6 6.4 1.3v-44.5zm-62.2 43.1v-47.3l-58.2-15.1v74.2zm78.5-47.3v47.4l58.2 11.8v-74.2zm200.7-52.1-137.1 35.6V308l131.8 26.6c8.2-24.7 12.7-51.2 12.7-78.6 0-20.8-2.6-41-7.4-60.3M156 231.2 13.4 194.3c-5 19.7-7.7 40.4-7.7 61.7 0 27.8 4.6 54.6 13 79.6L156 307.9z" style="opacity:.35;fill:#fff"/><path d="m366.2 407.5 10 69.1H141.7l-.2 1.3c-.1-.1-.2-.2-.3-.2l9.5-66-2.3 16.5H369zm-135.5-91.8h57.1l-6.7-72.8h-43.6zm141.7-100.8v-.1h-.2L258.6 159 145 214.8h-.4v4.1h227.9zm-10.1 165.4.2 1.3H155l.2-1.1-57.8-29.8.1-4.5h5.7v-23.7h310.9v23.7h5.8l.1 4.5zm1.3-52.4V346l45.9.2v-18.3zm-71.9 0v18.5H359v-18.5zm-60.5 0v18.5h55.9v-18.5zm-72.9 0v18.5h68.2v-18.5zm-50.5 18.4 45.9-.2V328h-45.9z" style="opacity:.6;fill:#fff"/></svg>