<svg xmlns="http://www.w3.org/2000/svg" xml:space="preserve" viewBox="0 0 512 512"><path d="M181.4 256.7C239.4 170.8 296.7 85.9 354.5.1h-6C289.3.1 224.9.2 165.7 0 121 99.9 73.4 205 28.6 304.9c-.5 1.2-1 2.5-1.8 4.5h130.7C114.4 377.2 71.7 444.1 29.1 511c.4.3.7.6 1.1 1l279.9-254.1c-.1-.4-.3-.8-.4-1.2zm-71.8 159.8c-.4-.4-.8-.7-1.2-1.1 28.7-39.5 57.4-79 87-119.6H51.9L76 270c19.6-20.4 39.2-40.8 58.8-61.3 10.9-11.4 21.8-22.9 32.7-34.3 17.1-18 34.3-35.9 51.4-53.9 11.2-11.7 22.4-23.5 33.6-35.2 13.8-14.6 27.6-29.2 41.5-43.8 1.2-1.3 2.8-2.1 4.3-3.1 0-.1.1-.2.1-.2s0 .1-.1.2c-1.6 2.5-3.1 5.1-4.7 7.6-.1.2-.2.3-.3.5-.7 1.1-1.4 2.3-2.1 3.4-2.4 3.8-4.7 7.7-7.2 11.4-26.9 41.9-53.9 83.8-80.8 125.7l-54.6 85.2c-.7 1-1.2 2.1-2.3 4.1 36.6 0 74.4-.5 110.2-.5-48.4 46.4-98.4 94.4-146.9 140.7m375.6-37.6H327.5l-24.8-86.4c20.2-18.3 40.4-36.7 60.5-55-.1-.4-.3-.8-.4-1.2h-76.3l-15.5-54c29.1-43.1 58-86 87.1-129z"/></svg>