<?xml version="1.0" encoding="utf-8"?>
<!-- Generator: Adobe Illustrator 28.2.0, SVG Export Plug-In . SVG Version: 6.00 Build 0)  -->
<svg version="1.1" id="weaviate_logos" xmlns="http://www.w3.org/2000/svg" xmlns:xlink="http://www.w3.org/1999/xlink" x="0px"
	 y="0px" viewBox="0 0 512 512" style="enable-background:new 0 0 512 512;" xml:space="preserve">
<style type="text/css">
	.st0{fill:#FFFFFF;}
</style>
<g>
	<path class="st0" d="M495.4,156.1l-88.6-51.5c-14.9-8.6-33.6,2.1-33.6,19.3v130.2l-62.9-36.2c-33.7-19.4-75.2-19.4-108.8,0.1
		l-62.6,36.2V123.8c0-17.2-18.6-27.9-33.5-19.3l-88.7,51.5C6.3,162,0,173.1,0,185v122.4c0,8.5,2.1,16.7,6.1,23.9l0,0
		c4,7.4,9.8,13.7,17.1,18.4l45.7,29.2l35,22.3c21,13.4,48.1,12.3,67.9-2.7l2.6-2c0.2-0.2,0.5-0.4,0.8-0.6l52.8-40.3
		c15.4-11.8,40.7-11.8,56.1,0l52.6,40.1c0,0,0.2,0.1,0.2,0.2l3.3,2.6c19.9,15,46.9,16,67.9,2.7l35-22.3l45.8-29.2
		c7.2-4.7,13-11,17-18.3c4-7.3,6.1-15.4,6.1-24V185l0,0C512,173.1,505.6,162.1,495.4,156.1L495.4,156.1z"/>
	<path class="st0" d="M373.9,333.6v44c0,13.6-9.7,24.6-21.5,24.6c-4.6,0-10.4-2.3-15.8-6.4l-52.6-40.1c-15.4-11.8-40.7-11.8-56.1,0
		l-52.8,40.3c-5.2,4-8.6,5.1-13.6,5.1c-12.3,0.1-23.2-9-23.1-23.5v-43.8l75.4-48.7c25.8-16.7,58.9-16.7,84.7,0l75.5,47.5
		L373.9,333.6L373.9,333.6z"/>
	<path class="st0" d="M373.3,254.1l0.2,80.1l-74.9-47.9c-25.8-16.5-58.8-16.5-84.7,0l-75.1,48l0.1-80.1l62.7-36.3
		c33.6-19.5,75.1-19.5,108.8-0.1L373.3,254.1C373.3,254.1,373.3,254.1,373.3,254.1z"/>
	<path class="st0" d="M512,185v122.3c0,8.6-2.2,16.8-6.1,24l-132.7-77.2V123.8c0-17.2,18.7-27.9,33.6-19.3l88.6,51.5
		C505.7,162.1,512,173.1,512,185L512,185L512,185z"/>
	<path class="st0" d="M138.8,123.8v130.4L6.1,331.4C2.1,324.2,0,316,0,307.4V185c0-11.9,6.3-22.9,16.6-28.9l88.6-51.5
		C120.1,95.9,138.8,106.7,138.8,123.8L138.8,123.8L138.8,123.8z"/>
	<path class="st0" d="M350.6,400.6c11.8,0,22.8-9.3,22.8-22.7l-0.1-44l70.1,44.7L408,401.2c-21,13.4-48.1,12.4-67.9-2.7l-3.3-2.6
		C341.8,399.3,346,400.6,350.6,400.6L350.6,400.6L350.6,400.6z"/>
	<path class="st0" d="M505.9,331.4c-4,7.3-9.8,13.6-17,18.3L443,378.8l-69.7-44.6l-0.2-80.1L505.9,331.4L505.9,331.4z"/>
	<path class="st0" d="M138.8,377.9c0,13.4,11.1,24,22.8,22.7c5.2-0.6,9.2-1.4,13.4-4.5l-3.2,2.5c-19.9,15-46.9,16-67.9,2.7l-35-22.3
		v-0.1l69.9-44.6L138.8,377.9L138.8,377.9L138.8,377.9L138.8,377.9z"/>
	<path class="st0" d="M138.8,254.2v80l-69.9,44.6v0.1l-45.7-29.1c-7.3-4.7-13.2-11-17.1-18.4L138.8,254.2L138.8,254.2L138.8,254.2z"
		/>
</g>
</svg>
