<?xml version="1.0" encoding="utf-8"?>
<!-- Generator: Adobe Illustrator 28.2.0, SVG Export Plug-In . SVG Version: 6.00 Build 0)  -->
<svg version="1.1" id="weaviate_logos" xmlns="http://www.w3.org/2000/svg" xmlns:xlink="http://www.w3.org/1999/xlink" x="0px"
	 y="0px" viewBox="0 0 512 512" style="enable-background:new 0 0 512 512;" xml:space="preserve">
<path d="M132.1,251.5l-9.8,5.7L3.6,326.3c-1.6-3.8-2.7-7.8-3.2-11.9c0-0.2,0-0.4-0.1-0.6c-0.1-0.7-0.1-1.4-0.2-2.1
	c0-0.2,0-0.5-0.1-0.7C0,310.1,0,309.2,0,308.3V183.7c0-10.4,5.6-20.2,14.6-25.5l65.7-38.2l24.7-14.4c0.7-0.4,1.4-0.7,2.1-1
	c2.2-0.9,4.5-1.4,6.9-1.4c3.1,0,6.2,0.8,9.1,2.4c5.7,3.3,9.1,9.1,9.1,15.6V251.5z M149.4,406.4c-3.6-1.4-6.9-3.5-9.7-6.2
	c-5.2-5.2-8.1-12.5-8-20.5v-35.4l-57.6,36.8l29.6,18.8C117.5,408.7,134.2,410.8,149.4,406.4z M131.7,332.7l0.4-0.3v-70.3L8,334.3
	c3.5,5.3,8,9.7,13.5,13.2l44,28.1l66.2-42.3V332.7z M495,344.3c0.2-0.2,0.5-0.4,0.7-0.6c0.5-0.4,0.9-0.8,1.4-1.3
	c0.2-0.2,0.4-0.4,0.6-0.6c0.6-0.5,1.1-1.1,1.6-1.7c0.1-0.1,0.2-0.2,0.2-0.2c0.6-0.7,1.2-1.3,1.8-2c0.2-0.2,0.3-0.4,0.5-0.6
	c0.4-0.5,0.8-1,1.2-1.5c0.2-0.3,0.4-0.5,0.6-0.8c0.2-0.2,0.3-0.5,0.5-0.7l-124-72.2l0.2,69l0.8,0.5l-0.2,1.7l65.9,42l43.9-27.8
	c0,0,0,0,0,0c0.8-0.5,1.5-1,2.2-1.5c0.2-0.2,0.4-0.3,0.6-0.5C494,345.1,494.5,344.7,495,344.3z M399.7,404.4
	c0.2-0.1,0.3-0.1,0.5-0.2c2.8-1.2,5.5-2.6,8.1-4.3l29.6-18.9l-57.3-36.7v35.4c0,12.2-6.6,22.6-16,27.2c11,2.7,22.7,2.1,33.4-1.9
	C398.6,404.8,399.1,404.6,399.7,404.4z M511.8,312.8C511.8,312.8,511.8,312.8,511.8,312.8c0.1-0.7,0.1-1.4,0.2-2.1
	c0-0.6,0.1-1.3,0.1-1.9c0-0.2,0-0.4,0-0.6V183.7c0-10.4-5.6-20.1-14.6-25.5l-90.2-52.4c-5.7-3.3-12.5-3.3-18.3,0
	c-5.7,3.3-9.1,9.1-9.1,15.7v129.8l0.1,0.1l0,0.1l128.4,74.7C510.2,321.9,511.3,317.4,511.8,312.8z M301.7,281.8l69,43.4l-0.2-68.6
	L309,221.2c-32.8-18.9-73.5-18.9-106.2,0.1l-61.4,35.5l-0.1,69.7l69.3-44.7C238.3,263.8,274.1,263.8,301.7,281.8z M224.7,353.7
	c17.3-13.2,45.4-13.2,62.7,0l53.3,40.7c0.3,0.2,0.5,0.4,0.8,0.6c3.8,2.5,7.1,3.5,10.8,3.5c9,0,18.6-7.1,18.6-18.5l-0.1-42l0,0l0-0.1
	l-73.9-47.3c-24.6-15.8-56.5-15.8-81.3,0l-74.3,47.5v41.9c0,5.6,2.3,10.8,6.4,14.5c3.4,3.1,7.6,4.5,11.7,4.1
	c4.7-0.5,7.7-1.2,10.7-3.2c0.4-0.3,0.7-0.6,1-0.8L224.7,353.7z"/>
</svg>
