<svg xmlns="http://www.w3.org/2000/svg" xml:space="preserve" viewBox="0 0 512 512"><path d="m132.1 251.5-9.8 5.7L3.6 326.3C2 322.5.9 318.5.4 314.4c0-.2 0-.4-.1-.6-.1-.7-.1-1.4-.2-2.1 0-.2 0-.5-.1-.7V183.7c0-10.4 5.6-20.2 14.6-25.5L80.3 120l24.7-14.4c.7-.4 1.4-.7 2.1-1 2.2-.9 4.5-1.4 6.9-1.4 3.1 0 6.2.8 9.1 2.4 5.7 3.3 9.1 9.1 9.1 15.6v130.3zm17.3 154.9c-3.6-1.4-6.9-3.5-9.7-6.2-5.2-5.2-8.1-12.5-8-20.5v-35.4l-57.6 36.8 29.6 18.8c13.8 8.8 30.5 10.9 45.7 6.5m-17.7-73.7.4-.3v-70.3L8 334.3q5.25 7.95 13.5 13.2l44 28.1 66.2-42.3zM495 344.3c.2-.2.5-.4.7-.6.5-.4.9-.8 1.4-1.3l.6-.6c.6-.5 1.1-1.1 1.6-1.7l.2-.2c.6-.7 1.2-1.3 1.8-2 .2-.2.3-.4.5-.6l1.2-1.5c.2-.3.4-.5.6-.8.2-.2.3-.5.5-.7l-124-72.2.2 69 .8.5-.2 1.7 65.9 42 43.9-27.8c.8-.5 1.5-1 2.2-1.5.2-.2.4-.3.6-.5zm-95.3 60.1c.2-.1.3-.1.5-.2 2.8-1.2 5.5-2.6 8.1-4.3l29.6-18.9-57.3-36.7v35.4c0 12.2-6.6 22.6-16 27.2 11 2.7 22.7 2.1 33.4-1.9.6-.2 1.1-.4 1.7-.6m112.1-91.6c.1-.7.1-1.4.2-2.1 0-.6.1-1.3.1-1.9V183.7c0-10.4-5.6-20.1-14.6-25.5l-90.2-52.4c-5.7-3.3-12.5-3.3-18.3 0-5.7 3.3-9.1 9.1-9.1 15.7v129.8l.1.1v.1l128.4 74.7c1.8-4.3 2.9-8.8 3.4-13.4m-210.1-31 69 43.4-.2-68.6-61.5-35.4c-32.8-18.9-73.5-18.9-106.2.1l-61.4 35.5-.1 69.7 69.3-44.7c27.7-18 63.5-18 91.1 0m-77 71.9c17.3-13.2 45.4-13.2 62.7 0l53.3 40.7c.3.2.5.4.8.6 3.8 2.5 7.1 3.5 10.8 3.5 9 0 18.6-7.1 18.6-18.5l-.1-42v-.1l-73.9-47.3c-24.6-15.8-56.5-15.8-81.3 0l-74.3 47.5V380c0 5.6 2.3 10.8 6.4 14.5 3.4 3.1 7.6 4.5 11.7 4.1 4.7-.5 7.7-1.2 10.7-3.2.4-.3.7-.6 1-.8z" style="fill:#fff"/></svg>