<svg xmlns="http://www.w3.org/2000/svg" xml:space="preserve" viewBox="0 0 512 512"><circle cx="256" cy="256" r="256" style="fill:#4a90e2"/><path d="M75.7 375.5c26.5 44.1 83.7 58.4 127.8 31.9 24.9-15 40.2-39.7 44.2-66.3h73c.6 1.3 1.3 2.6 2 3.9 11.4 19 36 25.1 55 13.7s25.1-36 13.7-55-36-25.1-55-13.7c-6.8 4.1-11.9 9.8-15.2 16.4H208.9c4.5 11.3 5.2 23.4 2.4 34.8-3.5 14.4-12.5 27.4-26.2 35.7-27.2 16.3-62.5 7.6-78.8-19.6-16.3-27.3-7.5-62.6 19.7-79 5.5-3.3 11.3-5.6 17.2-6.9l-10.8-34.2c-8.5 2.2-16.9 5.6-24.8 10.4-44.1 26.6-58.4 83.8-31.9 127.9m365.2-2c25.4-44.7 9.8-101.6-34.9-127-25.2-14.3-54.3-15.6-79.4-6l-35.8-63.6c.8-1.2 1.6-2.4 2.4-3.7 10.9-19.2 4.2-43.7-15-54.6s-43.7-4.2-54.6 15-4.2 43.7 15 54.6c6.9 3.9 14.4 5.5 21.7 5.2l36.8 65.4 18.3 32.5c7.6-9.5 17.9-16 29.1-19.2 14.3-4 30.1-2.6 44 5.4 27.6 15.7 37.2 50.7 21.5 78.3s-50.7 37.2-78.3 21.5c-5.6-3.2-10.4-7.1-14.4-11.6l-24.5 26.2c6.1 6.3 13.2 12 21.2 16.5 44.6 25.5 101.5 9.8 126.9-34.9" style="fill:#152941"/><path d="M255.7 56.1c-51.5.5-92.8 42.5-92.3 94 .3 29 13.8 54.8 34.7 71.7L161 284.7c-1.4-.1-2.9-.2-4.4-.2-22.1.2-39.9 18.3-39.7 40.4s18.3 39.9 40.4 39.7 39.9-18.3 39.7-40.4c-.1-7.9-2.4-15.2-6.4-21.4l38.1-64.7 18.9-32.2c-12-1.9-22.8-7.4-31.2-15.5-10.6-10.3-17.3-24.7-17.4-40.7-.3-31.7 25.2-57.7 56.9-57.9 31.7-.3 57.7 25.2 57.9 56.9.1 6.2-.9 12.4-2.8 18.3l34.9 8c2.5-8.7 3.7-17.6 3.6-26.6-.3-51.4-42.3-92.8-93.8-92.3" style="fill:#fff"/></svg>