<?xml version="1.0" encoding="utf-8"?>
<!-- Generator: Adobe Illustrator 28.2.0, SVG Export Plug-In . SVG Version: 6.00 Build 0)  -->
<svg version="1.1"
	 id="svg4510" xmlns:dc="http://purl.org/dc/elements/1.1/" xmlns:cc="http://creativecommons.org/ns#" xmlns:rdf="http://www.w3.org/1999/02/22-rdf-syntax-ns#" xmlns:inkscape="http://www.inkscape.org/namespaces/inkscape" xmlns:svg="http://www.w3.org/2000/svg" xmlns:sodipodi="http://sodipodi.sourceforge.net/DTD/sodipodi-0.dtd"
	 xmlns="http://www.w3.org/2000/svg" xmlns:xlink="http://www.w3.org/1999/xlink" x="0px" y="0px" viewBox="0 0 512 512"
	 style="enable-background:new 0 0 512 512;" xml:space="preserve">
<path d="M510.7,288.2c-3.5-18.3-11.2-33.7-22.8-45.8c-9-9.4-11.1-10.8-46.2-31.1c-23.4-13.5-34.3-20-37.1-21.8
	c-0.1-2.8,0-12.1,0.4-33.5c0.9-43.8,0.9-52.7-0.3-59.5c-3.3-19-11.2-34.6-25-49c-13.8-14.4-29.3-23.1-47.4-26.6
	c-7.5-1.4-23.6-1.3-32,0.3c-16.5,3.1-29.9,9.2-43.6,19.8l-3.3,2.6l-1.7-1.3c-12.3-9-26.3-15.5-40.5-18.7c-9.2-2.1-24.8-2.4-34-0.8
	c-18,3.2-32.5,11.2-47.2,26c-12.4,12.5-20,25.5-23.8,40.9c-2.7,10.7-2.8,13.5-2.4,59.6l0.3,40.5l-7.4,4.4
	c-21.9,13-58.7,35.8-62.5,38.6c-5.4,4-13.5,12.2-17.3,17.6c-7.8,11-13.3,24.7-15.7,39.5c-4.6,27.5,4.1,53.8,24.2,74.2
	c6.6,6.6,11,10.1,18.2,14.3c4.2,2.5,10.8,5.7,15.1,7.4c-0.2,1.6-0.5,5.8-0.6,9.1c-0.8,20,4.2,38.8,15,55.7c4,6.2,14,16.8,19.9,21
	c11.4,8.1,25.4,13.7,40.4,16.4c5.9,1,8.1,1.2,16.2,0.9c9.9-0.3,14.6-1.1,22.6-3.9c6.5-2.2,10-4.1,47.1-24.8l33.2-18.5l24.3,14.4
	c39.7,23.4,41.9,24.7,47.5,27.5c8.9,4.4,18.2,7.1,27.7,8.1c2.7,0.3,5.4,0.4,8.1,0.4c9.7,0,19.6-1.8,30.1-5.3
	c7.9-2.7,18.4-8.1,24.5-12.5c13.7-10.1,25.1-26.6,30.5-44c3.4-11.2,3.9-15.1,4-30.4l0.1-11.7l2.8-1c15.2-5.7,30.1-16.3,40-28.5
	c10.1-12.4,15.9-24.4,18.9-39C512.5,312.5,512.3,296.6,510.7,288.2z M300.1,282.4c-5,2.5-8,5.2-11.4,10.5c-3.5,5.4-5,10.5-5,16.4
	c0,7.7,2.3,13.4,7.8,19.4c5,5.4,6.3,6.3,47.2,30.1c44.8,26.1,48.5,29.8,51.1,40.5c1.1,4.3,0.7,10.6-0.8,14.5
	c-3.6,9.1-8.7,14.4-16.8,17.2c-4,1.4-9.4,1.8-13.3,1.1c-7.2-1.3-14.6-5.4-78.4-43c-13.9-8.1-19.6-10.2-28.4-10.2c-0.2,0-0.3,0,0,0.3
	c-9.5,0.1-11.2,1.1-40.3,17.6c-23.2,13.2-43.8,24.7-49,27.4c-7.1,3.6-16.7,6.6-21.4,6.6c-2.4,0-6.6-1.2-9.6-2.6
	c-5.5-2.7-11.7-9.3-14.4-15.5c-1.6-3.7-2.1-11.4-0.9-15.6c2-7,5.2-11,13.9-17.1c7.5-5.3,13.8-9.1,42.5-25.4
	c26-14.7,33.5-19.1,36.7-21.4c4.1-2.9,8.4-8.3,10.6-13c1.8-3.9,2.1-5.3,2.3-9.9c0.3-6.9-1.1-11.8-5.1-17.9
	c-6.6-10.1-16.6-14.7-28.1-13c-6.4,1-10.1,2.5-21.9,9.2c-15.4,8.6-18.7,10.5-38.8,22.4c-20,11.8-25.2,14.6-31.3,16.6
	c-14.7,4.9-22.7,4-29.7-3.1c-5.9-6-9.1-13.4-9.1-20.7c0-6.5,1.7-11.5,5.2-15.5c4.3-4.9,10.9-9.4,35.3-23.7
	c9.3-5.5,23.3-13.8,31.1-18.5l17.3-10.5c9-5.4,14.5-13.1,16.9-23.6c0.2-0.9,0.6-2.7,1-50.3c0.4-44,0.5-47.4,1.4-51.8
	c1.9-9.3,4.6-15,9.1-19.7c4.3-4.4,11-7,18.4-7c8,0,15.8,3.1,20.8,8.3c5.2,5.4,6.9,10.8,7.5,24c0.3,4.3,0.2,26.4,0,49.2
	c-0.3,35.8-0.3,42.3,0.4,46.4c1.5,9,6.2,16.6,13.2,21.4c6.9,4.7,15.5,6.2,24.2,4.3c11.9-2.7,21-12.7,23.1-25.7
	c0.6-3.6,0.8-15,1.2-50.8c0.4-42.3,0.5-46.1,1.4-50.5c1.9-9.3,4.5-15,9.1-19.7c4.3-4.4,11-7,18.4-7c8,0,15.8,3.1,20.8,8.3
	c5.1,5.3,6.9,10.8,7.5,23.7c0.2,4.1,0.2,26.5-0.1,49.8v1.3c-0.5,46.2-0.5,46.2,3.2,54.2c3.7,8.1,7.9,11.1,25.7,21.4
	c22,12.6,56.8,33.1,61,35.8c9.9,6.4,15.3,11.3,17.5,16.1c2.4,5.3,2.6,12.6,0.7,19c-2.1,6.7-8.9,15-14.7,17.9
	c-2.9,1.4-2.9,1.4-8.3,1.4c-6.6,0-13.2-1.5-19.8-4.4c-1.9-0.8-17.1-9.3-36.8-20.7c-45-25.9-45-25.9-53.7-27.2
	C310.9,278.8,305.5,279.7,300.1,282.4z"/>
</svg>
