<svg xmlns="http://www.w3.org/2000/svg" xml:space="preserve" viewBox="0 0 512 512"><path d="M256 512C114.8 512 0 397.2 0 256S114.8 0 256 0s256 114.8 256 256-114.8 256-256 256m0-460.8C143.1 51.2 51.2 143.1 51.2 256S143.1 460.8 256 460.8 460.8 368.9 460.8 256 368.9 51.2 256 51.2m83.1 267.5h41v-98.4l-46.2-46.2-29 29 34.2 34.2zm41.1 20.5h-143L203.1 305l14.5-14.5 28.2 28.2h58.1l-57.2-57.3 14.6-14.6 57.2 57.2v-58l-28.1-28.1 14.4-14.4-71-71.4H90.9l40.9 40.9v.1h84.8l29.9 29.9-43.8 43.8-29.9-30v-23.2h-41v40.2l70.9 70.9-28.9 28.9 46.2 46.2h201z"/></svg>