<?xml version="1.0" encoding="utf-8"?>
<!-- Generator: Adobe Illustrator 28.2.0, SVG Export Plug-In . SVG Version: 6.00 Build 0)  -->
<svg version="1.1" id="Layer_1" xmlns="http://www.w3.org/2000/svg" xmlns:xlink="http://www.w3.org/1999/xlink" x="0px" y="0px"
	 viewBox="0 0 512 512" style="enable-background:new 0 0 512 512;" xml:space="preserve">
<style type="text/css">
	.st0{fill:url(#SVGID_1_);}
</style>
<linearGradient id="SVGID_1_" gradientUnits="userSpaceOnUse" x1="0" y1="255.95" x2="512" y2="255.95">
	<stop  offset="0" style="stop-color:#FFFFFF;stop-opacity:0.5"/>
	<stop  offset="7.182682e-02" style="stop-color:#FFFFFF;stop-opacity:0.5359"/>
	<stop  offset="1" style="stop-color:#FFFFFF"/>
</linearGradient>
<path class="st0" d="M63.1,89.7c9.2,0,18.2,1.8,27.1,5.3c9,3.5,16.8,8.6,23.3,15.2c6.5,6.4,11.2,13.7,14.1,21.7l34,99.6l27.9-82.9
	c13.6-40.4,35.2-60.7,64.8-60.7c6.5,0,14.4,1.5,23.6,4.4c10.4,3.3,19.1,9.2,26.2,17.6s13.5,21.3,19.3,38.7l27.6,82.9l34.3-99.6
	c2.7-7.8,7.3-15,13.8-21.7c6.7-6.6,14.4-11.7,23-15.2s17.8-5.3,27.4-5.3c8.8,0.6,17.7,3,26.5,7.3c11.1,5.5,19.9,13.5,26.2,24
	c6.5,10.5,9.8,22.6,9.8,36c0,11.7-2.6,22.9-7.8,33.4l-90.1,187.8c-14.6,30.5-36.2,45.7-64.8,45.7c-12.9-0.6-24.5-4.7-34.8-12.3
	c-10.4-7.8-18.4-18.7-24.2-32.5L256,293.4l-34.3,85.8c-3.5,9.2-8.1,17.1-13.8,23.7c-5.8,6.4-12.5,11.5-20.2,15.2s-15.7,5.7-24.2,5.9
	c-14.4,0-26.9-3.5-37.4-10.5c-10.6-7.2-19.8-18.9-27.6-35.2L8.4,190.5c-5.6-11.9-8.4-23-8.4-33.4c0-12.9,3.3-24.7,9.8-35.5
	c6.5-10.9,15.5-19.1,26.8-24.6C45.4,92.8,54.2,90.3,63.1,89.7L63.1,89.7z"/>
</svg>
