<?xml version="1.0" encoding="utf-8"?>
<!-- Generator: Adobe Illustrator 28.2.0, SVG Export Plug-In . SVG Version: 6.00 Build 0)  -->
<svg version="1.1" id="Layer_1" xmlns="http://www.w3.org/2000/svg" xmlns:xlink="http://www.w3.org/1999/xlink" x="0px" y="0px"
	 viewBox="0 0 512 512" style="enable-background:new 0 0 512 512;" xml:space="preserve">
<path id="path3840" d="M500.7,354.1c4.1-5.7,7.2-12.3,9.8-18c1-1,1-1.5,1-3.1c0-1,1-1.5,0-1.5c0-1-6.7-1-9.3,1
	c-1.5,1.5-9.3,22.1-31.9,42.7c-13.4,11.3-27.3,15.4-40.1,13.9c-9.8-1-17.5-7.2-21.6-18c-4.1-11.3-5.1-24.7-1.5-42.2
	c6.7-31.4,14.9-46.8,25.7-46.8c6.7,0,7.2,11.3,1,35.5c-5.1,16.5-12.3,27.8-20.6,33.9c-3.1,1.5-4.1,3.1-4.1,4.1c0,1.5,2.6,1.5,6.7,0
	c15.4-4.1,29.8-9.8,42.2-17.5c12.3-8.2,20.6-16.5,23.1-24.7c2.6-9.8-1-18-9.3-24.7c-8.2-6.7-19.5-10.8-32.9-11.3
	c-13.4-0.5-26.2,1.5-38.6,7.2c0-1,1-1,1-1.5c20.6-31.9,35.5-61.7,43.7-91.6c9.3-28.8,6.7-50.4-7.2-63.3c-5.1-4.1-12.3-7.2-22.1-9.8
	c-19-5.1-39.6-11.3-23.7,9.8c2.6,4.1,4.1,8.2,5.1,12.3c3.1,14.9,2.6,33.9-3.1,56.6c-5.7,23.1-14.9,47.8-26.2,72.5
	c-11.3,24.7-23.7,47.8-38.1,67.4c-13.9,19.5-27.3,33.9-40.1,41.1c-1-1.5-1-3.1-1-5.1v-12.3c0-4.1,1-7.2,1-9.8
	c3.1-19.5,6.7-41.1,11.3-63.3c5.1-22.1,9.3-42.2,13.4-60.2c3.1-11.3,5.1-19.5,5.7-25.7c0.5-6.2,0-9.8-1.5-12.3
	c-1.5-2.6-6.7-5.7-13.4-9.3c-4.1-2.6-9.3-5.1-15.4-8.2c-12.3-7.2-13.4-7.2-17.5,5.7c-3.1,11.3-9.8,27.8-19,50.4
	c-8.2,22.1-18,44.2-28.8,68.4c-10.8,23.7-20.6,43.7-30.3,59.1c-9.8,16.5-17.5,24.7-23.7,24.7c-1.5,0-2.6-1-2.6-2.6
	c0-1.5-1-3.1-1-5.7c0-4.1,1-8.2,1-12.3c1-4.1,1.5-7.2,1.5-9.8c2.6-13.4,6.7-28.8,10.8-46.8c5.1-18,9.8-36,13.9-53.5
	c5.1-17.5,9.3-31.9,12.3-44.2c5.1-15.4,8.2-25.7,9.3-31.4c1-5.1-2.6-9.8-8.2-13.4c-5.1-2.6-13.4-7.2-23.7-13.9
	c-8.2-5.1-11.3-4.1-19.5-1.5c-20.6,7.2-40.1,15.4-61.7,25.7c-24.7,11.3-46.3,23.7-64.3,35.5c-18,12.3-29.8,23.1-34.5,32.9
	c-5.7,12.3-5.1,24.7,1.5,36c4.1,6.7,9.3,12.3,15.4,17.5c24.7,17.5,16.5,7.2,19-12.3c1-7.2,3.1-13.9,6.7-19.5
	c8.2-13.9,23.1-29.8,46.3-47.8c22.1-17.5,46.8-31.9,74.1-42.7c-5.1,18-9.8,38.1-15.4,59.1c-5.7,21.6-10.8,42.2-15.4,61.7
	c-4.6,19.5-8.2,36-10.8,49.4c-1.5,6.7-1.5,12.3-1.5,18c0,5.7,2.6,11.3,5.7,17.5c4.1,5.7,9.3,9.8,14.9,13.4c5.7,3.1,11.3,5.1,18,5.1
	c13.4-1,25.7-9.3,37-25.7c12.3-16.5,23.1-36,32.9-59.1c9.8-23.1,19-46.3,26.2-68.9c-4.1,18-7.2,36-9.8,53.5
	c-3.1,17.5-5.1,32.9-6.7,46.3c-1,6.7-1,12.3-1,18c1,5.7,3.1,11.3,7.2,17.5c4.1,6.2,9.3,9.8,15.4,13.4c5.7,3.1,12.3,5.1,19,5.7
	c12.3,0,29.8-11.3,51.9-33.9c5.1-5.7,10.8-11.3,15.4-17.5c-1,15.4,4.1,27.8,16.5,37c13.9,10.8,30.3,16.5,50.4,17.5
	c19.5,1,38.6-5.7,54.5-17.5C484.3,374.7,493.5,364.9,500.7,354.1"/>
</svg>
