<?xml version="1.0" encoding="utf-8"?>
<!-- Generator: Adobe Illustrator 28.2.0, SVG Export Plug-In . SVG Version: 6.00 Build 0)  -->
<svg version="1.1" id="svg1020" xmlns:svg="http://www.w3.org/2000/svg"
	 xmlns="http://www.w3.org/2000/svg" xmlns:xlink="http://www.w3.org/1999/xlink" x="0px" y="0px" viewBox="0 0 512 512"
	 style="enable-background:new 0 0 512 512;" xml:space="preserve">
<g>
	<path d="M427.1,284.1c-19.1,0-24.7,15.8-24.7,33c0,17.3,5.6,33.1,24.7,33.1c19,0,24.6-15.8,24.6-33.1
		C451.8,299.8,446.1,284.1,427.1,284.1z"/>
	<path d="M259.8,298.3c0-7-5-12.3-16.2-12.3h-14.9v24.7h14.9C253.9,310.7,259.8,306,259.8,298.3z"/>
	<polygon points="155.4,293.4 144.6,322.5 166.6,322.5 155.8,293.4 	"/>
	<path d="M0,0v512h512V0H0z M324.2,223.3h7.8c3.4,0,5.7-1.2,5.7-5.4v-51.6c0-3.7-1.6-5.2-6.5-5.2h-7v-8.9h44.3v8.9h-6.7
		c-5.3,0-7.1,1.1-7.1,5.6v56.6h18.3c12.4,0,15-7.4,16.2-21.2h9.3v30.1h-74.1V223.3z M242.1,223.3h7.7c3.4,0,5.7-1.2,5.7-5.4v-51.6
		c0-3.7-1.6-5.2-6.5-5.2h-7v-8.9h44.2v8.9h-6.8c-5.3,0-7.1,1.1-7.1,5.6v56.6h18.2c12.5,0,15-7.4,16.3-21.2h9.2v30.1h-74V223.3z
		 M34.3,161.2h-1.7v-8.9h35v8.9h-5.1c-2.7,0-3.7,1.6-3.7,3.2c0,1.2,0.4,2.7,1.1,4.4l15.2,44.7h0.2l14.4-42l-2-5.7
		c-1.2-3.6-3.7-4.5-7.2-4.5h-2.9v-8.9h36.2v8.9h-6.4c-2.5,0-3.4,1.1-3.4,2.7c0,1.2,0.6,2.9,1,4.1l13.3,44.7h0.2l15.4-43.7
		c0.5-1.4,0.9-2.6,0.9-4.1c0-1.9-0.9-3.7-5.2-3.7h-5.8v-8.9h109.8v27.4h-9c-1.8-11.6-2.9-18.5-18.9-18.5h-21.2v25.2h5.8
		c7.3,0,10.6-3.5,10.6-13.4v-1.5h8.5v39h-8.5v-1.7c0-9.8-3.3-13.5-10.6-13.5h-5.8v28.1h24.1c11,0,15-7.3,16.3-21.2h8.8v30.1h-79.2
		v-9h6.7c4.2,0,6.4-1.2,6.4-8.4V168c0-5.2-2.4-6.8-8-6.8h-2.5c-5.8,0-8.5,1.3-10.5,7.3l-21.9,63.8h-16.6l-12.7-41.6h-0.2l-14,41.6
		H64.3l-22.7-66.9C40.6,162.1,38.9,161.2,34.3,161.2z M83.7,311.2c7.8,0,10-5.7,10-11.9v-1.6h8.4v36.9h-8.4v-2.7
		c0-8.5-3.3-11.7-10.8-11.7h-5V342c0,4.5,2.1,6.2,7.7,6.2h6v9l-44.3,0v-9H55c4.3,0,6.1-2.5,6.1-5.9v-51.7c0-2.9-2-4.5-5.6-4.5h-8
		V277h75.8v27.3h-8.7c-1.2-9.5-3.1-18.4-20.8-18.4H78.1v25.2H83.7z M286.6,340.5c0,13.8-6.6,19.1-16.6,19.1
		c-11.7,0-15.6-5.6-15.6-16.5v-4.2c0-13.8-5.9-19.3-19.3-19.3h-6.3v24.2c0,3.2,1.5,4.3,5,4.3h8.8v9h-80v-9h8.9c2.5,0,3.4-0.6,3.4-2
		c0-0.8-0.2-2-0.7-3.3c-0.4-1.1-4.2-11.4-4.2-11.4h-28.6c0,0-3.5,9.5-4.1,11.1c-0.4,1.2-0.7,2.2-0.7,3.3c0,1.7,1.4,2.3,3.8,2.3h8.5
		v9H111v-9c6.4,0,10.4-0.9,12.7-6.5l25.6-64.6h15.4l26.2,64.6c2.2,5.7,6.3,6.5,12.7,6.5h3.3c3.5,0,5-1.1,5-4.3v-53.5
		c0-3.2-1.2-4.4-5-4.4h-8.4V277H251c17.5,0,25.7,8.3,25.7,20.8c0,15.5-15.4,18.6-22.7,19v0.2c8.5,0.6,15.6,4.1,15.6,16.5v4.7
		c0,8.2,1.7,10,4.6,10c2.9,0,4.4-2.3,4.4-7.6v-2.2l8,0V340.5z M375.6,323.4h-2.2c-4.7,0-6.4,1.3-6.4,6v27.8h-8.2l-4.5-6.1
		c-1.9,1.7-10,8.6-25.1,8.6c-23.5,0-38.6-18-38.6-42.6c0-24.4,14.9-42.5,38.6-42.5c14.8,0,22.3,7.4,24,9l3-6.5h8.5v27.3h-9.9
		c-1.8-4.9-7.1-19.3-22.6-19.3c-14.9,0-22.6,13.9-22.6,32c0,18.4,7.7,32.2,23.1,32.2c12.3,0,17.9-6.4,17.9-15.6v-4.7
		c0-3.9-2.4-5.7-6.4-5.7h-5.5v-9h37V323.4z M427.1,359.7c-26.3,0-43.7-18.5-43.7-42.6c0-24.1,17.4-42.5,43.7-42.5
		c26.2,0,43.6,18.4,43.6,42.5C470.7,341.1,453.3,359.7,427.1,359.7z M442,234.7c-14.6,0-22.3-7.9-24.3-9.6l-2.7,7.2h-8.2v-30.1h9.3
		c1.9,13.5,11.3,22.3,27.1,22.3c11.3,0,17-5.8,17-11.2c0-7.1-6.8-10.2-17.1-12.4c-4.1-0.9-6.8-1.4-11.3-2.3
		c-13.7-2.9-25.5-9.7-25.5-24.6c0-16.4,15.3-24.1,30.4-24.1c14.4,0,21.8,7.7,22.5,8.4l4-6h6.5v27.4h-9c-3.1-10.1-8.8-19.5-23.6-19.5
		c-9.8,0-16.4,4.2-16.4,10.4c0,7.1,6.4,9.6,16.3,11.7c2.9,0.7,5.6,1.1,8.4,1.8c16,3.2,29.2,10,29.2,25.9
		C474.8,226.4,460.7,234.7,442,234.7z"/>
</g>
</svg>
