<svg xmlns="http://www.w3.org/2000/svg" xml:space="preserve" viewBox="0 0 512 512"><path d="M0 512h512V0H0z" style="fill:#b31e30"/><path d="M184.5 161.2v25.2h5.8c7.3 0 10.6-3.5 10.6-13.4v-1.5h8.5v39h-8.5v-1.7c0-9.8-3.3-13.5-10.6-13.5h-5.8v28.1h24.1c11 0 15-7.3 16.3-21.2h8.8v30.1h-79.2v-9h6.7c4.2 0 6.4-1.2 6.4-8.4V168c0-5.2-2.4-6.8-8-6.8h-2.5c-5.8 0-8.5 1.3-10.5 7.3l-21.9 63.8h-16.6l-12.7-41.6h-.2l-14 41.6H64.3l-22.7-66.9c-1-3.3-2.7-4.3-7.3-4.3h-1.7v-8.9h35v8.9h-5.1c-2.7 0-3.7 1.6-3.7 3.2 0 1.2.4 2.7 1.1 4.4l15.2 44.7h.2l14.4-42-2-5.7c-1.2-3.6-3.7-4.5-7.2-4.5h-2.9v-8.9h36.2v8.9h-6.4c-2.5 0-3.4 1.1-3.4 2.7 0 1.2.6 2.9 1 4.1l13.3 44.7h.2l15.4-43.7c.5-1.4.9-2.6.9-4.1 0-1.9-.9-3.7-5.2-3.7h-5.8v-8.9h109.8v27.4h-9c-1.8-11.6-2.9-18.5-18.9-18.5zm131.7 71.1v-30.1H307c-1.2 13.8-3.7 21.2-16.3 21.2h-18.2v-56.6c0-4.4 1.8-5.6 7.1-5.6h6.8v-8.9h-44.2v8.9h7c4.8 0 6.5 1.6 6.5 5.2V218c0 4.2-2.3 5.4-5.7 5.4h-7.7v9zm82.1 0v-30.1H389c-1.2 13.8-3.8 21.2-16.2 21.2h-18.3v-56.6c0-4.4 1.8-5.6 7.1-5.6h6.7v-8.9H324v8.9h7c4.9 0 6.5 1.6 6.5 5.2V218c0 4.2-2.3 5.4-5.7 5.4H324v9zm61-74c-.8-.8-8.1-8.4-22.5-8.4-15.1 0-30.4 7.7-30.4 24.1 0 14.9 11.9 21.7 25.5 24.6 4.5 1 7.2 1.5 11.3 2.3 10.2 2.2 17.1 5.3 17.1 12.4 0 5.4-5.7 11.2-17 11.2-15.8 0-25.2-8.8-27.1-22.3h-9.3v30.1h8.2l2.7-7.2c1.9 1.7 9.6 9.6 24.3 9.6 18.7 0 32.7-8.3 32.7-24.7 0-15.9-13.1-22.7-29.2-25.9-2.9-.7-5.5-1.2-8.4-1.8-10-2.1-16.3-4.6-16.3-11.7 0-6.2 6.5-10.4 16.4-10.4 14.8 0 20.5 9.4 23.6 19.5h9v-27.4h-6.5zM91.7 357.2v-9h-6c-5.6 0-7.7-1.7-7.7-6.2v-21.8h5c7.5 0 10.8 3.3 10.8 11.7v2.7h8.4v-36.9h-8.4v1.6c0 6.2-2.3 11.9-10 11.9h-5.7V286h15.8c17.7 0 19.6 8.9 20.8 18.4h8.7V277H47.5v8.9h8c3.6 0 5.6 1.6 5.6 4.5v51.7c0 3.4-1.8 5.9-6.1 5.9h-7.5v9zm335.4-82.6c-26.3 0-43.7 18.4-43.7 42.5 0 24 17.4 42.6 43.7 42.6 26.2 0 43.6-18.5 43.6-42.6s-17.4-42.5-43.6-42.5m0 9.5c19 0 24.6 15.8 24.6 33 0 17.3-5.7 33.1-24.6 33.1-19.1 0-24.7-15.8-24.7-33.1s5.6-33 24.7-33m-73.9-.5c-1.7-1.5-9.2-9-24-9-23.7 0-38.6 18.1-38.6 42.5 0 24.6 15.1 42.6 38.6 42.6 15.1 0 23.3-6.9 25.1-8.6l4.5 6.1h8.2v-27.8c0-4.7 1.7-6 6.4-6h2.2v-9h-37v9h5.5c4 0 6.4 1.8 6.4 5.7v4.7c0 9.2-5.6 15.6-17.9 15.6-15.4 0-23.1-13.8-23.1-32.2 0-18.1 7.7-32 22.6-32 15.5 0 20.8 14.4 22.6 19.3h9.9V277h-8.5zm-66.6 54.7v2.2c0 13.8-6.6 19.1-16.6 19.1-11.7 0-15.6-5.6-15.6-16.5v-4.2c0-13.8-5.9-19.3-19.3-19.3h-6.3v24.2c0 3.2 1.5 4.3 5 4.3h8.8v9h-80v-9h8.9c2.5 0 3.4-.6 3.4-2 0-.8-.2-2-.7-3.3-.4-1.1-4.2-11.4-4.2-11.4h-28.6s-3.5 9.5-4.1 11.1c-.4 1.2-.7 2.2-.7 3.3 0 1.7 1.4 2.3 3.8 2.3h8.5v9H111v-9c6.4 0 10.4-.9 12.7-6.5l25.6-64.6h15.4l26.2 64.6c2.2 5.7 6.3 6.5 12.7 6.5h3.3c3.5 0 5-1.1 5-4.3v-53.5c0-3.2-1.2-4.4-5-4.4h-8.4V277H251c17.5 0 25.7 8.3 25.7 20.8 0 15.5-15.4 18.6-22.7 19v.2c8.5.6 15.6 4.1 15.6 16.5v4.7c0 8.2 1.7 10 4.6 10s4.4-2.3 4.4-7.6v-2.2zm-120-15.8-10.8-29.2h-.4l-10.8 29.2zm93.2-24.2c0-7-5-12.3-16.2-12.3h-14.9v24.7h14.9c10.3 0 16.2-4.7 16.2-12.4" style="fill:#ffcc02"/></svg>