<svg xmlns="http://www.w3.org/2000/svg" xml:space="preserve" viewBox="0 0 512 512"><path d="M406.7 101.3h73.2c18 0 32.1 14 32.1 31.7v72.4c0 27.9-34.7 41.9-53.9 21.6l-73.2-72.4c-20.6-19-6.5-53.3 21.8-53.3M246.1 276.6h-52.7c-30.8 0-55.2-25.4-56.5-55.9v-88.9c0-17.8-14.1-31.7-32.1-31.7H31.6c-28.3 0-42.4 34.3-21.8 53.3L38 181.3l38.5 38.1 1.3 1.3 6.4 6.3 104 102.9 9 8.9 2.6 2.5 38.5 38.1 23.1 22.9c20.6 20.3 53.9 6.3 53.9-21.6v-72.4c0-17.8-14.1-31.7-32.1-31.7zm196.5 0H390c-30.8 0-55.2-25.4-56.5-55.9v-88.9c0-17.8-14.1-31.7-32.1-31.7h-73.2c-28.3 0-42.4 34.3-21.8 53.3l28.3 27.9 38.5 38.1 1.3 1.3 6.4 6.3 104 102.9 9 8.9 2.6 2.5 38.5 38.1 23.1 22.9c20.6 20.3 53.9 6.3 53.9-21.6v-72.4c0-17.8-14.1-31.7-32.1-31.7z" style="fill:#fff"/></svg>