<svg xmlns="http://www.w3.org/2000/svg" xml:space="preserve" viewBox="0 0 512 512"><path d="M240.5 509.8c-65.5-30.4-118.7-62.1-185.6-99.5-30.2-16.9-32-19.3-41.1-29.4-3.6-4.1-5.5-9.1-5.5-12.2v-227c0-3.1 2.3-8.3 4.9-11.6 11-14 11.8-14.5 43.2-31.6C106.3 70.2 160 47 209.7 18.6c32.5-18.6 41-21.1 57.2-17 10.4 2.6 214.2 110.2 222.5 118 3 2.8 6.7 6.7 9.2 10.6 2.2 3.5 5 8.3 5 11.5v225.5c0 3.3-2.4 6.3-4.3 9-5.8 8.3-12.7 15.9-21.2 21.6-2.2 1.5-9.1 5.8-13.3 8.4-54.5 29.1-107.7 58.4-157.1 84.7-4.5 2.4-10.1 5.4-12.6 6.8-22.6 12.9-24.6 13.7-36.1 14.2-8.1.4-13.1-.2-18.5-2.1z" style="fill:#2a4c7d;stroke:#2a4c7d;stroke-width:.7112;stroke-miterlimit:11.3386"/><path d="M147.1 160.4V174h-34v13.6h-34v47.6H65.5V276h13.6v47.7h34v13.6h34v13.6h47.7V276h122.5v74.9H365v-13.6h34v-13.6h34V276h13.6v-40.8H433v-47.7h-34v-13.6h-34v-13.6h-47.7v74.9H194.8v-74.9zm13.6 13.6h20.4v163.4h-20.4zm170.2 0h20.4v163.4h-20.4zm-204.2 13.6h20.4v136.2h-20.4zm238.3 0h20.4v136.2H365zM92.6 201.2H113v108.9H92.6zm306.4 0h20.4v108.9H399zm-204.2 47.7h122.5v13.6H194.8z" style="fill:#fff"/></svg>