<?xml version="1.0" encoding="utf-8"?>
<!-- Generator: Adobe Illustrator 28.2.0, SVG Export Plug-In . SVG Version: 6.00 Build 0)  -->
<svg version="1.1" id="Layer_1" xmlns="http://www.w3.org/2000/svg" xmlns:xlink="http://www.w3.org/1999/xlink" x="0px" y="0px"
	 viewBox="0 0 512 512" style="enable-background:new 0 0 512 512;" xml:space="preserve">
<style type="text/css">
	.st0{fill:#B3B3B3;}
	.st1{fill:#FFFFFF;}
	.st2{fill:url(#SVGID_1_);}
	.st3{fill-rule:evenodd;clip-rule:evenodd;fill:#FFFFFF;}
</style>
<path class="st0" d="M143.8,431.2l7.7,4.5c32.2,19.1,69.2,29.2,106.8,29.2h0.1c115.7,0,209.8-94.1,209.9-209.8
	c0-56.1-21.8-108.8-61.4-148.4C367.6,67.2,314.2,45,258.5,45.2c-115.8,0-209.9,94.1-210,209.8c-0.1,39.5,11.1,78.2,32.1,111.7l5,7.9
	L64.4,452L143.8,431.2z M3.7,512l35.8-130.8C17.5,342.9,5.8,299.5,5.9,255C5.9,115.8,119.2,2.6,258.4,2.6
	c67.5,0,130.9,26.3,178.6,74s73.9,111.1,73.9,178.6c-0.1,139.2-113.3,252.4-252.5,252.4h-0.1c-42.3,0-83.8-10.6-120.7-30.7L3.7,512z
	"/>
<path class="st1" d="M1.1,509.4L37,378.6C14.8,340.2,3.2,296.7,3.3,252.4C3.3,113.2,116.6,0,255.8,0c67.5,0,130.9,26.3,178.6,74
	s73.9,111.1,73.9,178.6C508.2,391.8,394.9,505,255.8,505h-0.1c-42.3,0-83.8-10.6-120.7-30.7L1.1,509.4z"/>
<linearGradient id="SVGID_1_" gradientUnits="userSpaceOnUse" x1="254.6577" y1="345.3632" x2="256.7855" y2="704.074" gradientTransform="matrix(1 0 0 1 0 -277.552)">
	<stop  offset="0" style="stop-color:#57D163"/>
	<stop  offset="1" style="stop-color:#23B33A"/>
</linearGradient>
<path class="st2" d="M255.8,42.6c-115.8,0-209.9,94.1-210,209.8c0,39.5,11.2,78.2,32.2,111.7l5,7.9l-21.2,77.4l79.4-20.8l7.7,4.5
	c32.2,19.1,69.2,29.2,106.8,29.2h0.1c115.7,0,209.8-94.1,209.9-209.8c0.2-55.7-21.9-109.1-61.4-148.4
	C365,64.7,311.5,42.5,255.8,42.6z"/>
<path class="st3" d="M192.7,146.9c-4.7-10.5-9.7-10.7-14.2-10.9l-12.1-0.1c-4.2,0-11,1.6-16.8,7.9s-22.1,21.6-22.1,52.6
	s22.6,61,25.8,65.2s43.6,69.9,107.8,95.2c53.3,21,64.1,16.8,75.7,15.8c11.6-1.1,37.3-15.3,42.6-30c5.3-14.7,5.3-27.4,3.7-30
	c-1.6-2.6-5.8-4.2-12.1-7.4c-6.3-3.2-37.3-18.4-43.1-20.5c-5.8-2.1-10-3.2-14.2,3.2c-4.2,6.3-16.3,20.5-20,24.7s-7.4,4.7-13.7,1.6
	c-6.3-3.2-26.6-9.8-50.7-31.3c-18.8-16.7-31.4-37.4-35.1-43.7s-0.4-9.7,2.8-12.9c2.8-2.8,6.3-7.4,9.5-11.1c3.2-3.7,4.2-6.3,6.3-10.5
	s1.1-7.9-0.5-11.1C210.5,190.6,198.3,159.4,192.7,146.9"/>
</svg>
