<svg xmlns="http://www.w3.org/2000/svg" xml:space="preserve" viewBox="0 0 512 512"><path d="m255.5 378.9 77.4 130.8H175.4l13.8-20.7zM49.7 502.8l-.5-.5c.1 0 .1 0 .5.5m-6-3.2c1.8.9 3.2 1.8 5.1 2.8-1.4-1-3.2-1.9-5.1-2.8m436.1-8.8c-3.2 2.8-6.4 5.5-10.1 7.8 3.6-2.3 6.8-4.6 10.1-7.8m-17.5 12c-1.4.5-2.8.9-3.7 1.4 1.4-.5 2.3-.9 3.7-1.4m-418.6-3.2c-.5-.5-.9-.5-1.4-.9.5.4 1 .4 1.4.9m460.9-376.7v115.6c-29.9-.5-59.9 8.3-83.8 27.2-56.2 43.7-52 130.8-6.9 188.8 14.7 19.3 29.5 36.8 44.7 49.7-8.3 3.7-18 5.5-27.6 5.5h-95.3l49.3-82.9s-2.3-2.3-6.9-11.5-6.9-23-6.9-23l-37.3 71.8-77.8-134-78.7 131.7-41-69.5s-1.4 8.7-6 18c-4.6 9.2-6.9 11.5-6.9 11.5l37.8 67.2 11.5 20.7H81c-11.1 0-21.6-2.8-31.3-6.9 15.2-13.4 29.9-31.3 45.1-50.6 45.1-58 49.3-145-6.9-188.8-23-18-51.6-26.7-80.6-27.2V122.9C7.4 94.8 23 70.4 46.5 58 36.8 41.9 34.1 30.8 29 0c37.3 25.3 64.5 38.7 104.5 49.3h.9c17-9.2 68.6-23 114.6-23 54.3-2.3 108.2 14.7 123.4 23C412.5 38.7 439.7 25.3 477 0c-4.6 29-7.4 41-16.1 55.7 25.8 11.5 43.7 37.3 43.7 67.2M147.8 265.7c52 0 94.4-42.4 94.4-94.4s-42.4-94.4-94.4-94.4-94.4 42.4-94.4 94.4 42.4 94.4 94.4 94.4m238.5 14.2c-48.3 2.8-70.9-6.4-103.6-32.2l-29 45.6-27.6-43.7c-32.7 25.8-55.3 35-103.6 32.2 2.3 5.1 4.6 9.7 6.4 14.3 44.2 1.4 65.8-7.8 97.2-32.7l27.6 43.7 29-45.6c31.3 24.4 53.4 34.1 97.2 32.7 1.8-4.6 4.1-9.2 6.4-14.3M454 166.7c0-52-42.4-94.4-94.4-94.4s-94.4 42.4-94.4 94.4 42.4 94.4 94.4 94.4 94.4-42.4 94.4-94.4m-103.6-39.2c-21.6 0-39.1 17.5-39.1 39.1s17.5 39.1 39.1 39.1 39.1-17.5 39.1-39.1-17.5-39.1-39.1-39.1m-154.3 39.2c0-21.6-17.5-39.1-39.1-39.1s-39.1 17.5-39.1 39.1 17.5 39.1 39.1 39.1 39.1-17.5 39.1-39.1M36.8 495c1.8 1.4 3.7 2.8 6 4.1-2.3-1.8-4.1-2.8-6-4.1"/><path d="M504.6 238.5V436c0 30.8-18.9 57.6-46 68.1-15.2-13.4-29.9-30.8-44.7-50.2-45.1-58-49.3-145 6.9-188.8 24-18.3 53.9-27.1 83.8-26.6M87.9 263.4c-23-18-51.6-26.7-80.6-27.2V436c0 29.5 17.5 54.8 42.4 66.8 15.2-13.4 29.9-31.3 45.1-50.6 45.2-58.1 49.3-145.1-6.9-188.8m245.9 200.7 37.3-71.8s2.3 13.8 6.9 23 6.9 11.5 6.9 11.5L334.3 512l-78.7-133.1-66.3 110L174 512l-12.9-23-37.8-67.2s2.3-2.3 6.9-11.5 6-18 6-18l41 69.5L256 330.1z" style="opacity:.65"/><path d="m226.1 263.4 27.6 43.7 29-45.6c31.3 24.4 53.4 34.1 97.2 32.7 1.8-4.1 4.1-8.7 6.4-14.3-48.3 2.8-70.9-6.4-103.6-32.2l-29 45.6-27.6-43.7c-32.7 25.8-55.3 35-103.6 32.2 2.3 5.1 4.6 9.7 6.4 14.3 43.8 1.3 65.9-7.9 97.2-32.7" style="opacity:.9"/></svg>