<svg xmlns="http://www.w3.org/2000/svg" xml:space="preserve" id="wiki-js_svg__Layer_1" x="0" y="0" version="1.1" viewBox="0 0 512 512"><style>.wiki-js_svg__st4{fill:#02bef3}.wiki-js_svg__st21{fill:#f5f6f2}</style><path d="M258.8 260.2s84.8 3.1 123.7 36.7 65.7 97.8 54.2 153.5c-22.9-5.3-120.7-22.2-160.4-71s-38.2-83.2-33.6-103.9c4.7-20.6 16.1-15.3 16.1-15.3" style="fill:#1c9cf3"/><radialGradient id="wiki-js_svg__SVGID_1_" cx="-482.155" cy="-9.756" r="2.649" gradientTransform="matrix(-101.7007 0 0 101.7007 -48789.313 1248.985)" gradientUnits="userSpaceOnUse"><stop offset="0" style="stop-color:#3d4ead"/><stop offset="1" style="stop-color:#00c0f3"/></radialGradient><path d="M244 275.7c-1.9 8.7-4 22.4.2 40.5 4.6 19.7 15.5 41 33.4 62.4 41 48.9 156.4 68.7 157.8 69 4.4-25.4 1.4-51.8-8.9-79.5-10.2-27.3-26.5-51.6-45.9-68.4-38.3-33.1-123.3-36.5-124.1-36.5h-.9l-.6-.3s-.7-.3-1.7-.3c-4.2-.1-7.4 4.6-9.3 13.1" style="fill:url(#wiki-js_svg__SVGID_1_)"/><path d="M236.7 260.2s10.7 22.2-14.5 55.8-77.9 87.8-209.3 76.4c4.6-31.3 27.5-63.4 52.7-86.3s81.7-46.6 119.1-47.4c37.5-.8 52 1.5 52 1.5" style="fill:#04bbf3"/><linearGradient id="wiki-js_svg__SVGID_00000099626596539045454660000015696715377545819577_" x1="-483.369" x2="-480.72" y1="-14.438" y2="-14.438" gradientTransform="matrix(-84.1661 0 0 -49.3621 -40446.32 -386.285)" gradientUnits="userSpaceOnUse"><stop offset="0" style="stop-color:#3f51b4"/><stop offset="1" style="stop-color:#00c0f3"/></linearGradient><path d="M185.4 261.6c-17.5.4-40.9 6-64.3 15.4-22.8 9.2-42.9 20.9-55.1 32-27.5 25-45.3 54.7-50.6 81.2 10.6.8 30.3 1.2 30.3 1.2 47 0 86.3-8.6 118.6-27 28.6-16.3 45.7-36.6 56.2-50.5 20-26.7 16.9-45.3 15.1-51.1-4.4-.5-15.5-1.4-35.3-1.4-4.7.1-9.7.1-14.9.2" style="fill:url(#wiki-js_svg__SVGID_00000099626596539045454660000015696715377545819577_)"/><path d="M504 182.3s-15.3 44.3-90.1 65.7-155 7.6-155 7.6 19.1-50.4 74.1-74.1c54.9-23.6 151.9-2.3 171 .8" class="wiki-js_svg__st4"/><radialGradient id="wiki-js_svg__SVGID_00000044176816675767805340000002673496715295742373_" cx="-482.155" cy="-9.756" r="2.649" gradientTransform="matrix(-101.6987 0 0 101.6987 -48788.36 1248.961)" gradientUnits="userSpaceOnUse"><stop offset="0" style="stop-color:#3d4ead"/><stop offset="1" style="stop-color:#00c0f3"/></radialGradient><path d="M331.5 186.5c-44.8 19.3-65.9 56.6-72.1 69.5 9.2 1.3 30.4 3.7 57 3.7 35.3 0 67.5-4.1 95.8-12.2 60.4-17.3 82.4-51.6 88.5-63.2-1-.2-69.8-13.8-109-13.8-28.2 0-43.2 8.7-60.2 16" style="fill:url(#wiki-js_svg__SVGID_00000044176816675767805340000002673496715295742373_)"/><path d="M235.3 262.7s-108.9-5.1-172.8-51.8C-1.5 164.3 0 149 0 149s71.7-.2 107.1 12.5c35.4 12.8 91 48.7 128.2 101.2" class="wiki-js_svg__st4"/><radialGradient id="wiki-js_svg__SVGID_00000054969080515124046400000006708870030619548850_" cx="-482.33" cy="-15.238" r="2.649" gradientTransform="matrix(-80.9379 -165.4614 -19.7482 172.5917 -39141.602 -76616.094)" gradientUnits="userSpaceOnUse"><stop offset="0" style="stop-color:#0072e9"/><stop offset="1" style="stop-color:#00fdfe"/></radialGradient><path d="M66.2 210.1c24.7 18 54.6 30.8 89.6 39.4 37.3 4.5 68.2 11.4 75.6 12-16.4-22.3-36.7-42.4-58.6-59.1-21.2-16.3-43.5-29.1-62-36.4-3.4-1.4-7.1-2.6-10.8-3.7-32.7-9.8-87.4-10.4-95.9-10.5 2.1 3.7 9.4 19.9 62.1 58.3" style="fill:url(#wiki-js_svg__SVGID_00000054969080515124046400000006708870030619548850_)"/><radialGradient id="wiki-js_svg__SVGID_00000083088243010848185470000011857535233827603338_" cx="-374.227" cy="-6.225" r="2.65" gradientTransform="matrix(6.1587 .8097 -2.2587 17.3931 2520.904 730.629)" gradientUnits="userSpaceOnUse"><stop offset="0" style="stop-color:#153e68;stop-opacity:.34"/><stop offset="1" style="stop-color:#153e68;stop-opacity:1.000000e-02"/></radialGradient><path d="M236.1 273.3c9.7 1.2 14.9 22.9 11.7 48.3-3.3 25.4-13.8 45.1-23.4 43.8-9.7-1.2-14.9-22.9-11.7-48.3s13.7-45 23.4-43.8" style="fill-rule:evenodd;clip-rule:evenodd;fill:url(#wiki-js_svg__SVGID_00000083088243010848185470000011857535233827603338_)"/><radialGradient id="wiki-js_svg__SVGID_00000047029805212092998390000009406882341272397197_" cx="-490.401" cy="-.211" r="2.649" gradientTransform="matrix(-15.9255 16.913 40.0385 37.7006 -7498.446 8617.758)" gradientUnits="userSpaceOnUse"><stop offset="0" style="stop-color:#00336f"/><stop offset="1" style="stop-color:#00336f;stop-opacity:0"/></radialGradient><path d="M250.4 259.7c-32.4 6.1 13.4 151.2 62.5 173.2 94.3 42.4 146.6-39.1 146.6-68.7 0-29.5-129.9-119.4-209.1-104.5" style="fill:url(#wiki-js_svg__SVGID_00000047029805212092998390000009406882341272397197_)"/><radialGradient id="wiki-js_svg__SVGID_00000016777806103100983200000015371182786640727486_" cx="-486.104" cy="3.705" r="2.649" gradientTransform="matrix(-10.0251 17.5384 37.777 22.1782 -4717.46 8736.093)" gradientUnits="userSpaceOnUse"><stop offset="0" style="stop-color:#00336f;stop-opacity:.5"/><stop offset="1" style="stop-color:#00336f;stop-opacity:0"/></radialGradient><path d="M204.6 301.1c-11.8 21.4 83 94.4 125.3 86.2s98.9-51 94.5-74.3-81.4-87.9-143.1-64.8c-40.4 15.1-64.9 31.5-76.7 52.9" style="fill:url(#wiki-js_svg__SVGID_00000016777806103100983200000015371182786640727486_)"/><radialGradient id="wiki-js_svg__SVGID_00000061467764322049680500000008893387312367345024_" cx="-481.721" cy="4.144" r="2.649" gradientTransform="matrix(-7.6276 18.7061 40.3691 17.009 -3548.829 9236.03)" gradientUnits="userSpaceOnUse"><stop offset="0" style="stop-color:#00336f;stop-opacity:.5"/><stop offset="1" style="stop-color:#00336f;stop-opacity:0"/></radialGradient><path d="M245 310.6c-8.9 22.8 53.3 87.7 94.2 74.1s91.3-63.6 83.9-86.1-92.3-76.4-150.4-45.4c-38.1 20.3-18.8 34.6-27.7 57.4" style="fill:url(#wiki-js_svg__SVGID_00000061467764322049680500000008893387312367345024_)"/><radialGradient id="wiki-js_svg__SVGID_00000073698473087487290520000009010793628442680207_" cx="-482.721" cy="6.599" r="2.649" gradientTransform="matrix(-6.4966 15.7801 34.2551 14.2962 -3082.88 7810.334)" gradientUnits="userSpaceOnUse"><stop offset="0" style="stop-color:#00336f"/><stop offset="1" style="stop-color:#00336f;stop-opacity:0"/></radialGradient><path d="M238.6 300.2c-7.6 19.2 45.1 73.9 79.9 62.3s77.6-53.7 71.3-72.7-78.3-64.3-127.6-38.1c-32.4 17.2-16 29.3-23.6 48.5" style="fill:url(#wiki-js_svg__SVGID_00000073698473087487290520000009010793628442680207_)"/><radialGradient id="wiki-js_svg__SVGID_00000169548944506138587390000005350247699950368685_" cx="-498.415" cy="-16.62" r="2.649" gradientTransform="matrix(-15.0524 -15.4462 -43.2636 35.2097 -8048.156 -6821.623)" gradientUnits="userSpaceOnUse"><stop offset="0" style="stop-color:#002d68"/><stop offset="1" style="stop-color:#002d68;stop-opacity:0"/></radialGradient><path d="M250.1 298.2c-6.4 19.5-78.1 100.2-127.5 111.5-49.5 11.3-98.2-40.5-102.7-64.3-4.6-23.9 70.1-91.9 146.5-97.8 50.2-3.9 94.5 17.8 83.7 50.6" style="fill:url(#wiki-js_svg__SVGID_00000169548944506138587390000005350247699950368685_)"/><radialGradient id="wiki-js_svg__SVGID_00000129179656260356093580000003822078109557461120_" cx="-495.573" cy="-17.367" r="2.649" gradientTransform="matrix(-16.3278 -19.5466 -40.7644 38.5494 -8628.613 -8743.463)" gradientUnits="userSpaceOnUse"><stop offset="0" style="stop-color:#002d68"/><stop offset="1" style="stop-color:#002d68;stop-opacity:0"/></radialGradient><path d="M248.7 287.3C243.8 310 178 400.5 129.1 410.1c-48.8 9.6-101.8-55.7-108.2-84.5s63.3-104 139.7-105.1c50.2-.6 96.4 28.7 88.1 66.8" style="fill:url(#wiki-js_svg__SVGID_00000129179656260356093580000003822078109557461120_)"/><radialGradient id="wiki-js_svg__SVGID_00000100365825026631542910000003379411140802616242_" cx="-501.13" cy="-23.135" r="2.649" gradientTransform="matrix(-7.1718 -13.7916 -32.6035 16.8217 -4182.517 -6239.855)" gradientUnits="userSpaceOnUse"><stop offset="0" style="stop-color:#002d68"/><stop offset="1" style="stop-color:#002d68;stop-opacity:0"/></radialGradient><path d="M213.3 301.3c-7 12.6-64.4 56.3-97.3 55.1-32.9-1.3-55.8-47.2-55.1-65s58.1-52 107.2-41.8c32.2 6.8 56.9 30.6 45.2 51.7" style="fill:url(#wiki-js_svg__SVGID_00000100365825026631542910000003379411140802616242_)"/><radialGradient id="wiki-js_svg__SVGID_00000090264477401149760660000008593182760697577614_" cx="-466.372" cy="-25.82" r="2.649" gradientTransform="matrix(6.9351 -13.9121 -32.7812 -16.4726 2516.245 -6683.058)" gradientUnits="userSpaceOnUse"><stop offset="0" style="stop-color:#002d68"/><stop offset="1" style="stop-color:#002d68;stop-opacity:0"/></radialGradient><path d="M140.9 280.1c-14.3 1.8-83.4-18.9-101.7-46.3s5.3-72.9 20.1-82.8 76.2 16.4 96.9 62.1c13.5 30.1 8.7 64-15.3 67" style="fill:url(#wiki-js_svg__SVGID_00000090264477401149760660000008593182760697577614_)"/><radialGradient id="wiki-js_svg__SVGID_00000072265136096101793390000013817210290084644014_" cx="-468.67" cy="-3.182" r="2.651" gradientTransform="matrix(85.4367 -11.1534 3.2014 24.5235 40338.71 -4919.085)" gradientUnits="userSpaceOnUse"><stop offset="0" style="stop-color:#00326d"/><stop offset="1" style="stop-color:#003b79;stop-opacity:0"/></radialGradient><path d="M392.2 161.3c62-8.2 115.6 9.4 119.6 39.3s-43.2 60.8-105.2 69S291 260.2 287 230.3s43.2-60.8 105.2-69" style="fill-rule:evenodd;clip-rule:evenodd;fill:url(#wiki-js_svg__SVGID_00000072265136096101793390000013817210290084644014_)"/><radialGradient id="wiki-js_svg__SVGID_00000120541194831276949090000004834185701073204923_" cx="-467.419" cy="-9.897" r="2.652" gradientTransform="matrix(77.0216 8.0935 -2.4894 23.7478 36274.672 4225.187)" gradientUnits="userSpaceOnUse"><stop offset="0" style="stop-color:#00326d"/><stop offset="1" style="stop-color:#003b79;stop-opacity:0"/></radialGradient><path d="M404.8 165.3c56 5.8 98.9 34 96 62.9-3 29-50.8 47.8-106.8 42s-99-34-96-62.9 50.8-47.7 106.8-42" style="fill-rule:evenodd;clip-rule:evenodd;fill:url(#wiki-js_svg__SVGID_00000120541194831276949090000004834185701073204923_)"/><radialGradient id="wiki-js_svg__SVGID_00000090272808260413514760000000240365541383177149_" cx="-466.343" cy="-1.934" r="2.651" gradientTransform="matrix(64.9687 -7.8898 2.5041 20.5612 30587.508 -3409.058)" gradientUnits="userSpaceOnUse"><stop offset="0" style="stop-color:#00326d"/><stop offset="1" style="stop-color:#003b79;stop-opacity:0"/></radialGradient><path d="M364.9 174.7c47.2-5.8 88 9.8 91.1 34.9s-32.7 50.1-79.9 56c-47.2 5.8-88-9.8-91.1-34.9s32.7-50.2 79.9-56" style="fill-rule:evenodd;clip-rule:evenodd;fill:url(#wiki-js_svg__SVGID_00000090272808260413514760000000240365541383177149_)"/><path d="M241.1 261.8c.1 1.5 4 32-22.4 43.4-20.4 8.8-45.4 13.2-101-12s-74.9-61.8-74.9-61.8 31.1 11.4 50.4 12.8 69.2 8.6 81.9 10.9c12.7 2.4 35.3.5 43.8-1.4 8.6-1.9 21.3-7.2 22.2 8.1" style="fill:#b3c3ce"/><linearGradient id="wiki-js_svg__SVGID_00000167378359494842039900000005886456561935568306_" x1="-484.316" x2="-481.667" y1="-9.2" y2="-9.2" gradientTransform="matrix(-74.9171 0 0 74.9171 -36042.113 959.397)" gradientUnits="userSpaceOnUse"><stop offset="0" style="stop-color:#f5f7fa"/><stop offset=".53" style="stop-color:#f1f4f2"/><stop offset="1" style="stop-color:#bad7e9"/></linearGradient><path d="M117.8 291.6c55.6 25.2 80.6 20.8 101 12 26.3-11.4 22.5-41.9 22.4-43.4-.9-15.2-13.7-10-22.1-8.1-8.5 1.9-30.5.6-48.8-.7-21.8-1.5-56.9-6.1-76.9-8.8C74.2 240 43 229.8 43 229.8s19.3 36.6 74.8 61.8" style="fill:url(#wiki-js_svg__SVGID_00000167378359494842039900000005886456561935568306_)"/><path d="M224.5 234s-17.7-14-32.1-29.2-60.9-59.2-72.4-71.1S77.3 81 73.1 63.8C63.7 84.7 57.5 123 69 160s38.2 63.7 73.6 78.5 66.2 14 74.8 14c8.7 0 20.7-5.7 7.1-18.5" class="wiki-js_svg__st21"/><linearGradient id="wiki-js_svg__SVGID_00000108282530697523720320000014679709292512369312_" x1="-485.366" x2="-482.717" y1="-10.012" y2="-10.012" gradientTransform="matrix(-66.44 0 0 66.44 -32007.428 823.85)" gradientUnits="userSpaceOnUse"><stop offset="0" style="stop-color:#fafafa"/><stop offset=".26" style="stop-color:#f1f6f8"/><stop offset=".73" style="stop-color:#dce5eb"/><stop offset="1" style="stop-color:#bbcfda"/></linearGradient><path d="M70.6 160c11.5 37 38.2 63.7 73.6 78.5s66.2 15 74.8 15c4.9 0 20.3-.6 21.1-2.9 1.6-4.9-7.8-8.6-13.7-14.1-15.7-12.4-15.4-13.7-32.4-31.7-14.4-15.2-60.9-59.2-72.4-71.1C110 121.8 78.8 81 74.7 63.8 65.2 84.7 59 123 70.6 160" style="fill:url(#wiki-js_svg__SVGID_00000108282530697523720320000014679709292512369312_)"/><linearGradient id="wiki-js_svg__SVGID_00000157296625622084918470000016553879963151452046_" x1="-477.717" x2="-475.069" y1="-20.4" y2="-20.4" gradientTransform="scale(73.7769 -73.7769)rotate(90 -244.913 229.32)" gradientUnits="userSpaceOnUse"><stop offset="0" style="stop-color:#fdfdff"/><stop offset=".26" style="stop-color:#f1f2f2"/><stop offset=".73" style="stop-color:#bfd2e0"/><stop offset="1" style="stop-color:#afc0cc"/></linearGradient><path d="M420.3 84.6c-15.3 13.7-42.3 32-68.3 48.8s-42.8 45.1-62.6 74.8c-19.9 29.8-39.7 44.3-39.7 44.3s31.3 4.6 61.1 4.6c45.8 0 97.8-38.2 116.8-58.8 19.1-20.6 31.9-54.2 32.1-88.6.2-40.2-18.4-48-18.4-48s-5.7 9.1-21 22.9" style="fill:url(#wiki-js_svg__SVGID_00000157296625622084918470000016553879963151452046_)"/><linearGradient id="wiki-js_svg__SVGID_00000115486125837506690270000005297366347280673933_" x1="-477.717" x2="-475.068" y1="-20.338" y2="-20.338" gradientTransform="matrix(0 -73.8925 -73.8925 0 -1152.875 -35042.36)" gradientUnits="userSpaceOnUse"><stop offset="0" style="stop-color:#f1f6f6"/><stop offset=".41" style="stop-color:#fdfdfd"/><stop offset=".55" style="stop-color:#f5f8fa"/><stop offset=".89" style="stop-color:#d6e1e7"/><stop offset=".98" style="stop-color:#c3d3dd"/><stop offset="1" style="stop-color:#c3d3dd"/></linearGradient><path d="M422.5 81.5c-15.3 13.7-46 35.1-72 51.9s-42.8 45.1-62.6 74.8c-15.3 22.9-34.4 35.5-42.4 42.1-2.4 2-3.8 7.2-3.8 7.2 27.6 4 34-.4 67.6-.4 45.8 0 97.8-38.2 116.8-58.8 19.1-20.6 31.3-54.2 32.1-88.6s-16.8-48.1-16.8-48.1-3.7 6.1-18.9 19.9" style="fill:url(#wiki-js_svg__SVGID_00000115486125837506690270000005297366347280673933_)"/><radialGradient id="wiki-js_svg__SVGID_00000041976229573794373440000018308518224694534565_" cx="-456.325" cy="-28.268" r="2.647" gradientTransform="matrix(22.6585 14.6507 -7.1179 11.0083 10292.691 7207.865)" gradientUnits="userSpaceOnUse"><stop offset="0" style="stop-color:#153e68"/><stop offset="1" style="stop-color:#153e68;stop-opacity:0"/></radialGradient><path d="M173.1 182c33.1 21.4 51.6 51.9 41.2 68s-45.8 11.8-78.9-9.6-51.6-51.9-41.2-68c10.4-16.2 45.7-11.8 78.9 9.6" style="fill-rule:evenodd;clip-rule:evenodd;fill:url(#wiki-js_svg__SVGID_00000041976229573794373440000018308518224694534565_)"/><radialGradient id="wiki-js_svg__SVGID_00000058558307400317566490000016542850844336969116_" cx="-457.141" cy="-35.347" r="2.647" gradientTransform="matrix(21.5258 16.2692 -6.6353 8.7792 9758.087 7950.64)" gradientUnits="userSpaceOnUse"><stop offset="0" style="stop-color:#153e68"/><stop offset="1" style="stop-color:#153e68;stop-opacity:0"/></radialGradient><path d="M169.9 179.7c31.5 23.8 49.1 53.5 39.4 66.4-9.7 12.8-43.1 3.9-74.6-19.8s-49.1-53.5-39.4-66.4 43.1-4 74.6 19.8" style="fill-rule:evenodd;clip-rule:evenodd;fill:url(#wiki-js_svg__SVGID_00000058558307400317566490000016542850844336969116_)"/><radialGradient id="wiki-js_svg__SVGID_00000111880138605847055540000000192261578384802486_" cx="-455.051" cy="31.998" r="2.649" gradientTransform="matrix(22.394 -12.5195 4.7833 8.5561 10362.054 -5747.58)" gradientUnits="userSpaceOnUse"><stop offset="0" style="stop-color:#153e68"/><stop offset="1" style="stop-color:#153e68;stop-opacity:0"/></radialGradient><path d="M312 200.5c32.7-18.3 65-23 72-10.5s-13.9 37.5-46.7 55.8c-32.7 18.3-65 23-72 10.5-6.9-12.4 14-37.5 46.7-55.8" style="fill-rule:evenodd;clip-rule:evenodd;fill:url(#wiki-js_svg__SVGID_00000111880138605847055540000000192261578384802486_)"/><radialGradient id="wiki-js_svg__SVGID_00000179647663201336296550000010616792095350852227_" cx="-454.429" cy="27.708" r="2.649" gradientTransform="matrix(22.1522 -12.3843 5.2646 9.4169 10256.38 -5678.76)" gradientUnits="userSpaceOnUse"><stop offset="0" style="stop-color:#153e68"/><stop offset="1" style="stop-color:#153e68;stop-opacity:0"/></radialGradient><path d="M321.7 185c32.4-18.1 64.9-21.6 72.6-7.9 7.7 13.8-12.4 39.6-44.7 57.8-32.4 18.1-64.9 21.6-72.6 7.9-7.7-13.8 12.3-39.7 44.7-57.8" style="fill-rule:evenodd;clip-rule:evenodd;fill:url(#wiki-js_svg__SVGID_00000179647663201336296550000010616792095350852227_)"/><radialGradient id="wiki-js_svg__SVGID_00000084520567744429099910000010239759715438348473_" cx="-456.253" cy="30.353" r="2.65" gradientTransform="matrix(20.8963 -14.4026 6.4928 9.4202 9671.728 -6634.719)" gradientUnits="userSpaceOnUse"><stop offset="0" style="stop-color:#153e68"/><stop offset="1" style="stop-color:#1a426b;stop-opacity:0"/></radialGradient><path d="M317.6 197.5c30.6-21.1 63.1-27 72.6-13.2s-7.6 42-38.2 63.1c-30.5 21.1-63.1 27-72.6 13.2-9.4-13.7 7.7-42 38.2-63.1" style="fill-rule:evenodd;clip-rule:evenodd;fill:url(#wiki-js_svg__SVGID_00000084520567744429099910000010239759715438348473_)"/><radialGradient id="wiki-js_svg__SVGID_00000146489186226093185230000002514237982795983764_" cx="-464.922" cy="67.517" r="2.65" gradientTransform="matrix(8.0193 -17.9642 7.8685 3.5125 3572.94 -8412.2)" gradientUnits="userSpaceOnUse"><stop offset="0" style="stop-color:#153e68"/><stop offset="1" style="stop-color:#1b436c;stop-opacity:0"/></radialGradient><path d="M355 167.6c11.7-26.3 30.6-43.4 42.1-38.3s11.3 30.6-.4 56.9-30.6 43.4-42.1 38.3c-11.5-5.2-11.3-30.6.4-56.9" style="fill-rule:evenodd;clip-rule:evenodd;fill:url(#wiki-js_svg__SVGID_00000146489186226093185230000002514237982795983764_)"/><linearGradient id="wiki-js_svg__SVGID_00000147179778601145121210000004910477118853708734_" x1="-476.688" x2="-474.038" y1=".182" y2=".182" gradientTransform="rotate(-81.981 -12199.581 -14249.649)scale(52.0771)" gradientUnits="userSpaceOnUse"><stop offset="0" style="stop-color:#fdfdff"/><stop offset=".26" style="stop-color:#f1f2f2"/><stop offset=".73" style="stop-color:#bfd2e0"/><stop offset="1" style="stop-color:#afc0cc"/></linearGradient><path d="M100 127.7c-3.3 24 2.4 48.8 13.7 65.1s43.8 48.1 75.9 52.6c20.8 2.9 43.2 2.8 43.2 2.8s-12.5-12.1-23.4-34.9-19.9-44.2-36.4-58.5-33.6-29.7-42.9-40.9c-9.3-11.1-12.4-18-12.4-18s-13.9 3.7-17.7 31.8" style="fill:url(#wiki-js_svg__SVGID_00000147179778601145121210000004910477118853708734_)"/><linearGradient id="wiki-js_svg__SVGID_00000038380962255560635340000018378209168201631631_" x1="-488.095" x2="-485.445" y1="-12.452" y2="-12.452" gradientTransform="rotate(-180 -12386.014 -232.566)scale(51.2362)" gradientUnits="userSpaceOnUse"><stop offset="0" style="stop-color:#fafafa"/><stop offset=".26" style="stop-color:#f1f6f8"/><stop offset=".73" style="stop-color:#dce5eb"/><stop offset="1" style="stop-color:#bbcfda"/></linearGradient><path d="M101.1 127.9c-2.9 24.1 2.4 48.8 13.7 65.1s43.8 48.1 75.9 52.6c23.5 3.3 25.7 4.6 45.4 4.5 0 0-14.7-13.8-25.6-36.5s-20-44.3-36.5-58.6-35.9-32.3-45.2-43.4-11.3-15.7-11.3-15.7-13.6 7.9-16.4 32" style="fill:url(#wiki-js_svg__SVGID_00000038380962255560635340000018378209168201631631_)"/><radialGradient id="wiki-js_svg__SVGID_00000074402764626664052860000005812612502347062967_" cx="-440.065" cy="-40.434" r="2.647" gradientTransform="matrix(2.9526 8.5486 -16.327 5.6392 822.238 4270.351)" gradientUnits="userSpaceOnUse"><stop offset="0" style="stop-color:#153e68"/><stop offset="1" style="stop-color:#153e68;stop-opacity:0"/></radialGradient><path d="M226.3 265.4c4.3 12.5-11.6 29.3-35.4 37.6-23.9 8.2-46.8 4.8-51.1-7.7s11.6-29.3 35.4-37.6c23.9-8.2 46.8-4.8 51.1 7.7" style="fill-rule:evenodd;clip-rule:evenodd;fill:url(#wiki-js_svg__SVGID_00000074402764626664052860000005812612502347062967_)"/><radialGradient id="wiki-js_svg__SVGID_00000076599442970684453940000017674400208548396192_" cx="-455.981" cy="-49.171" r="2.651" gradientTransform="matrix(.3333 8.0865 -15.0814 .6217 -413.437 3993.31)" gradientUnits="userSpaceOnUse"><stop offset="0" style="stop-color:#153e68"/><stop offset="1" style="stop-color:#153e68;stop-opacity:0"/></radialGradient><path d="M216.1 273.8c.5 11.8-17 22.2-39.1 23.1-22 .9-40.3-8-40.8-19.8s17-22.2 39.1-23.1c22-.9 40.3 8 40.8 19.8" style="fill-rule:evenodd;clip-rule:evenodd;fill:url(#wiki-js_svg__SVGID_00000076599442970684453940000017674400208548396192_)"/><radialGradient id="wiki-js_svg__SVGID_00000156570023965113262450000004832653247881059995_" cx="-416.182" cy="-47.794" r="2.652" gradientTransform="matrix(2.3713 5.6102 -12.4247 5.2516 595.955 2868.07)" gradientUnits="userSpaceOnUse"><stop offset="0" style="stop-color:#153e68"/><stop offset="1" style="stop-color:#153e68;stop-opacity:0"/></radialGradient><path d="M235.8 268.3c3.5 8.2-8.5 21.1-26.6 28.8-18.2 7.7-35.7 7.3-39.2-.9s8.5-21.1 26.6-28.8 35.7-7.3 39.2.9" style="fill-rule:evenodd;clip-rule:evenodd;fill:url(#wiki-js_svg__SVGID_00000156570023965113262450000004832653247881059995_)"/><linearGradient id="wiki-js_svg__SVGID_00000053512588757114219570000003890570319719305660_" x1="-489.875" x2="-487.226" y1="1.361" y2="1.361" gradientTransform="rotate(-124.418 -7984.695 -4181.97)scale(33.283)" gradientUnits="userSpaceOnUse"><stop offset="0" style="stop-color:#fdfdff"/><stop offset=".26" style="stop-color:#f1f2f2"/><stop offset=".73" style="stop-color:#bfd2e0"/><stop offset="1" style="stop-color:#afc0cc"/></linearGradient><path d="M128.4 263.9c8.8 12.8 22.2 22 34.5 24.8 12.4 2.8 41.4 3.8 58.5-7.9 11.1-7.6 21.6-17.3 21.6-17.3s-11.1-.3-26.1-6.4c-15-6-28.4-12.3-42.4-11.9s-28.7.5-37.9-.8c-9.2-1.2-13.6-3.2-13.6-3.2s-4.9 7.8 5.4 22.7" style="fill:url(#wiki-js_svg__SVGID_00000053512588757114219570000003890570319719305660_)"/><linearGradient id="wiki-js_svg__SVGID_00000094615809533348625690000005148819702072934331_" x1="-487.409" x2="-484.76" y1="-25.888" y2="-25.888" gradientTransform="rotate(137.563 -8082.705 2828.833)scale(32.745)" gradientUnits="userSpaceOnUse"><stop offset="0" style="stop-color:#fafafa"/><stop offset=".26" style="stop-color:#f1f6f8"/><stop offset=".73" style="stop-color:#dce5eb"/><stop offset="1" style="stop-color:#bbcfda"/></linearGradient><path d="M129 263.5c9 12.6 22.2 22 34.5 24.8 12.4 2.8 41.4 3.8 58.5-7.9 12.5-8.6 14.1-8.9 23.3-17.5 0 0-12.9-.2-27.8-6.2-15-6-28.4-12.3-42.4-11.9-13.9.4-30.8.3-40-1-9.2-1.2-12.1-2.6-12.1-2.6s-3.1 9.7 6 22.3" style="fill:url(#wiki-js_svg__SVGID_00000094615809533348625690000005148819702072934331_)"/><radialGradient id="wiki-js_svg__SVGID_00000100351685127487139730000007554414636297524386_" cx="-502.02" cy="-5.333" r="2.65" gradientTransform="matrix(-26.0778 0 0 26.0778 -12760.892 430)" gradientUnits="userSpaceOnUse"><stop offset="0" style="stop-color:#f9f9fa"/><stop offset="1" style="stop-color:#f5f7f7"/></radialGradient><path d="M402.3 259.5c-13.7 5.8-74.8 2.5-97.3 0-22.4-2.5-45.6-2.1-49.9-2.5-15.5-1.4-12.7 3.6-13.7 19.2-2.5 43 13.7 51.7 25.7 53.5 11.9 1.8 22.8-4 22.8-4s118.2-53.5 129.1-59.3c2-11.1 1.5-14.6-.9-14.6-2.9 0-8.4 4.6-15.8 7.7" style="fill:url(#wiki-js_svg__SVGID_00000100351685127487139730000007554414636297524386_)"/><radialGradient id="wiki-js_svg__SVGID_00000038396812682604992180000005793894771263206807_" cx="-439.733" cy="-42.783" r="2.65" gradientTransform="matrix(13.784 9.7836 -4.6236 6.5141 6143.212 4871.811)" gradientUnits="userSpaceOnUse"><stop offset="0" style="stop-color:#153e68"/><stop offset="1" style="stop-color:#153e68;stop-opacity:0"/></radialGradient><path d="M292 273.7c20.2 14.3 31 33.6 24.3 43.2-6.8 9.5-28.6 5.6-48.8-8.7s-31-33.6-24.3-43.2c6.8-9.5 28.6-5.6 48.8 8.7" style="fill-rule:evenodd;clip-rule:evenodd;fill:url(#wiki-js_svg__SVGID_00000038396812682604992180000005793894771263206807_)"/><radialGradient id="wiki-js_svg__SVGID_00000047056766137078037730000001996920267031869351_" cx="-428.968" cy="-42.545" r="2.649" gradientTransform="matrix(10.5825 7.5113 -4.6236 6.5141 4617.333 3790.196)" gradientUnits="userSpaceOnUse"><stop offset="0" style="stop-color:#153e68"/><stop offset="1" style="stop-color:#153e68;stop-opacity:0"/></radialGradient><path d="M286.7 273.7c15.5 11 22.5 27.6 15.8 37.2-6.8 9.5-24.8 8.3-40.3-2.6-15.5-11-22.5-27.6-15.8-37.2 6.8-9.6 24.9-8.4 40.3 2.6" style="fill-rule:evenodd;clip-rule:evenodd;fill:url(#wiki-js_svg__SVGID_00000047056766137078037730000001996920267031869351_)"/><radialGradient id="wiki-js_svg__SVGID_00000069368902436871659130000005917971206642628738_" cx="-428.332" cy="-43.163" r="2.648" gradientTransform="matrix(10.5825 7.5113 -4.6236 6.5141 4623.14 3790.647)" gradientUnits="userSpaceOnUse"><stop offset="0" style="stop-color:#153e68"/><stop offset="1" style="stop-color:#153e68;stop-opacity:0"/></radialGradient><path d="M302.1 274.9c15.5 11 22.5 27.6 15.8 37.2-6.8 9.5-24.8 8.3-40.3-2.6s-22.5-27.6-15.8-37.2c6.8-9.6 24.8-8.4 40.3 2.6" style="fill-rule:evenodd;clip-rule:evenodd;fill:url(#wiki-js_svg__SVGID_00000069368902436871659130000005917971206642628738_)"/><linearGradient id="wiki-js_svg__SVGID_00000110471084218247217360000013220656449232987296_" x1="-462.052" x2="-459.405" y1="-24.77" y2="-24.77" gradientTransform="scale(33.2822 -33.2822)rotate(31.277 -255.496 822.43)" gradientUnits="userSpaceOnUse"><stop offset="0" style="stop-color:#fdfdff"/><stop offset=".26" style="stop-color:#f1f2f2"/><stop offset=".73" style="stop-color:#bfd2e0"/><stop offset="1" style="stop-color:#afc0cc"/></linearGradient><path d="M249.9 278.6c10.7 17.7 37.6 28.8 50 31.3s28.4-.4 41.7-8.4c15.5-9.3 14.2-18.3 14.2-18.3s-4.9-.1-13.7-2.7c-8.9-2.7-22.3-8.8-34.8-14.9-12.6-6.1-27.4-5.9-43.5-6.6s-26.4-4.9-26.4-4.9 5.5 13.1 12.5 24.5" style="fill:url(#wiki-js_svg__SVGID_00000110471084218247217360000013220656449232987296_)"/><linearGradient id="wiki-js_svg__SVGID_00000001624042702502720270000014850387709654399383_" x1="-465.056" x2="-462.407" y1="5.815" y2="5.815" gradientTransform="scale(32.7455 -32.7455)rotate(-66.741 -238.063 -360.2)" gradientUnits="userSpaceOnUse"><stop offset="0" style="stop-color:#fafafa"/><stop offset=".26" style="stop-color:#f1f6f8"/><stop offset=".73" style="stop-color:#dce5eb"/><stop offset="1" style="stop-color:#bbcfda"/></linearGradient><path d="M249.5 278.1c10.7 17.7 37.6 28.8 50 31.3s28.2-.6 41.7-8.4c13.4-7.8 14.6-17.7 14.6-17.7s-3.2 0-12.1-2.6c-8.9-2.7-24.3-9.5-36.9-15.6s-27.4-5.9-43.5-6.6-27.9-5.8-27.9-5.8c5 11.4 6.3 12.4 14.1 25.4" style="fill:url(#wiki-js_svg__SVGID_00000001624042702502720270000014850387709654399383_)"/><path d="M415 268.2s5-3.8 4.6-11.5c-.4-7.6 1.5-19.1-38.9-43.9-13.4 24.1-59.6 88.2-79.8 102.7s-23.5 14-23.5 14 11.7-1.4 22-9.1c11-8.1 115.6-52.2 115.6-52.2" style="fill:#cbd3dd"/><linearGradient id="wiki-js_svg__SVGID_00000037651987932306994520000003091640031138576041_" x1="-460.158" x2="-457.509" y1="12.608" y2="12.608" gradientTransform="scale(24.1953 -24.1953)rotate(-65.725 -240.66 -365.297)" gradientUnits="userSpaceOnUse"><stop offset="0" style="stop-color:#aebcd0"/><stop offset=".22" style="stop-color:#859bb9"/><stop offset=".53" style="stop-color:#a1b1c9"/><stop offset="1" style="stop-color:#97a9c3"/></linearGradient><path d="M302.3 316.3c-12.6 9-16.4 10.8-19.2 12 1-.3 8.9-2.4 17.7-7C313 314.8 416.5 269 416.5 269s5-3.8 4.6-11.5c-.4-7.6 1.5-19.1-38.9-43.9-13.4 24.1-59.6 88.2-79.9 102.7" style="fill:url(#wiki-js_svg__SVGID_00000037651987932306994520000003091640031138576041_)"/><linearGradient id="wiki-js_svg__SVGID_00000134965623506149810450000008586397200876101512_" x1="-481.829" x2="-479.181" y1="-30.054" y2="-30.054" gradientTransform="matrix(0 -32.3979 -32.3979 0 -741.493 -15253.36)" gradientUnits="userSpaceOnUse"><stop offset="0" style="stop-color:#c0cbda"/><stop offset=".02" style="stop-color:#c0cbda"/><stop offset=".11" style="stop-color:#d4dbe5"/><stop offset=".45" style="stop-color:#f5f6f9"/><stop offset=".59" style="stop-color:#fdfdfd"/><stop offset="1" style="stop-color:#fcfdfd"/></linearGradient><path d="M239.4 271.1c-2.5 0-24.5 40-14.2 85.8 0 0 14.7-17.7 16.5-62.1.7-18.4-.6-23.7-2.3-23.7" style="fill:url(#wiki-js_svg__SVGID_00000134965623506149810450000008586397200876101512_)"/><path d="M182 143.7c5.2-5.1 22.8-1 26.9 4.5 4.1 5.4 24.9 26.3 23.9 57.9 3.2.1 7.5.7 12.3.7 4.2 0 8.1-.4 11.3-.6-1-31.6 19.9-52.5 23.9-58 4.1-5.6 21.8-9.6 26.9-4.5 5.2 5.1-8.3 4.5-14.5 3-20.1 4.5-33 49-35.7 59.4 4.7-.3 7.7.1 7.7 3.2 0 4.7-6.6 12.3-15.8 13.1.4 1.9 2.6 12.4.1 23.5-1 4.5-10.3 9.6-10.3 9.6-9.8-32.2-.1-35.4 0-35.6-8.1-1.2-12.5-6.3-12.5-10.6 0-2.8 2.1-3.3 5.6-3.2-2.8-10.5-15.6-54.9-35.7-59.4-5.8 1.5-19.3 2-14.1-3" style="fill:#00c6f9"/><radialGradient id="wiki-js_svg__SVGID_00000049185073389076064010000017906014098542578563_" cx="-498.311" cy="-6.254" r="2.649" gradientTransform="matrix(-28.0142 0 0 19.2136 -13715.088 320.16)" gradientUnits="userSpaceOnUse"><stop offset="0" style="stop-color:#3f51b5"/><stop offset="1" style="stop-color:#04bbf3"/></radialGradient><path d="M280.5 149.8c-4.1 5.4-24.9 26.3-23.9 58-3.2.2-7.1.6-11.3.6-4.9 0-9.1-.6-12.3-.7 1-31.6-19.9-52.5-23.9-57.9-4.1-5.6-21.8-9.6-26.9-4.5-5.2 5.1 8.3 4.5 14.5 3 20.1 4.4 32.9 48.9 35.7 59.4-3.5-.1-5.6.5-5.6 3.2 0 4.3 3.2 9.7 11.3 10.9-.1.3-6.8 5.1 1.2 35.3 0 0 12.6-1.2 10.7-27-.2-3-.5-5.4-.9-7.3 9.2-.8 16.1-7.3 16.1-12 0-3.1-3-3.4-7.7-3.2 2.7-10.4 15.6-55 35.7-59.4 6.2 1.5 19.7 2 14.5-3-1.7-1.6-4.6-2.3-8-2.3-7.4 0-16.4 3.1-19.2 6.9" style="fill:url(#wiki-js_svg__SVGID_00000049185073389076064010000017906014098542578563_)"/><linearGradient id="wiki-js_svg__SVGID_00000117674461622748461170000001636087629249650836_" x1="-477.984" x2="-475.335" y1="-19.975" y2="-19.975" gradientTransform="scale(69.6015 -69.6015)rotate(90 -245.246 228.78)" gradientUnits="userSpaceOnUse"><stop offset="0" style="stop-color:#afc0cc"/><stop offset=".24" style="stop-color:#afc0cc"/><stop offset=".74" style="stop-color:#f1f2f2"/><stop offset="1" style="stop-color:#fdfdff"/></linearGradient><path d="M194.9 94.9c-3.8 7.7 9.6 8.8 14.2 6.5 14.8 6.8 24.3 74.5 26.3 90.5-2.6-.1-4.2.7-4.2 4.9 0 6.6 3.6 16 9.5 17.8-.1.4-.2.7-.2.7s-10.1 18.9-1.7 60.1c0 0 9.4-20.6 9.4-49.3 0-4.6-.4-8.2-.7-11.1 6.8-1.2 11.9-11.1 11.9-18.2 0-4.7-2.2-5.2-5.7-4.8 1.6-18.9 8-83 26.3-90.6 4.6 2.3 17.5 1.4 13.6-6.3-3.8-7.7-17.3-1.6-22.7 5.6-5.9 7.9-20.1 43.3-19.3 91.5-2.4.3-3.6.7-6.8.7-3.6 0-6.7-.8-9.1-1.1.7-48.2-15-79.9-17.6-88.2-2.5-7.9-10.3-12.6-16.4-12.6-2.8.1-5.5 1.3-6.8 3.9" style="fill:url(#wiki-js_svg__SVGID_00000117674461622748461170000001636087629249650836_)"/><linearGradient id="wiki-js_svg__SVGID_00000009588697311650749410000010678629869359357870_" x1="-477.989" x2="-475.34" y1="-19.732" y2="-19.732" gradientTransform="scale(71.542 -71.542)rotate(90 -245.182 228.864)" gradientUnits="userSpaceOnUse"><stop offset="0" style="stop-color:#fafafa"/><stop offset=".26" style="stop-color:#f1f6f8"/><stop offset=".73" style="stop-color:#dce5eb"/><stop offset="1" style="stop-color:#bbcfda"/></linearGradient><path d="M194.9 96.4c-3.8 7.6 9.6 8.8 14.2 6.5 14.8 6.7 24.3 73.9 26.3 89.8-2.6-.1-4.2.7-4.2 4.9 0 6.5 3.6 15.9 9.5 17.7-.1.4-.2.6-.2.6s-17.5 60.4-6 100c0 0 15.1-50.2 13.7-89.3-.2-4.5-.4-8.1-.7-11 6.8-1.2 11.9-11 11.9-18.1 0-4.7-2.2-5.2-5.7-4.8 1.6-18.8 8-82.4 26.3-89.9 4.6 2.3 17.5 1.4 13.6-6.2-3.8-7.6-17.3-1.5-22.7 5.6-5.9 7.8-20.1 42.9-19.3 90.8-2.4.3-3.6.7-6.8.7-3.6 0-6.7-.8-9.1-1 .7-47.8-15-79.2-17.6-87.5-2.5-7.9-10.3-12.5-16.4-12.5-2.8-.1-5.5 1.1-6.8 3.7" style="fill:url(#wiki-js_svg__SVGID_00000009588697311650749410000010678629869359357870_)"/><path d="M261.2 234.3s15.2-12.1 27.7-25.2c12.4-13.1 52.5-51.1 62.4-61.4s36.9-45.4 40.4-60.3c8.2 18.1 13.5 51.1 3.5 83-9.9 31.9-33 55-63.5 67.7-30.5 12.8-57.1 12.1-64.5 12.1s-17.7-4.9-6-15.9" class="wiki-js_svg__st21"/><linearGradient id="wiki-js_svg__SVGID_00000009548383371274141800000010447881224987351980_" x1="-477.993" x2="-475.344" y1="-.033" y2="-.033" gradientTransform="matrix(0 -61.4593 61.4593 0 325.44 -29126.832)" gradientUnits="userSpaceOnUse"><stop offset="0" style="stop-color:#f1f6f6"/><stop offset=".41" style="stop-color:#fdfdfd"/><stop offset=".55" style="stop-color:#f5f8fa"/><stop offset=".89" style="stop-color:#d6e1e7"/><stop offset=".98" style="stop-color:#c3d3dd"/><stop offset="1" style="stop-color:#c3d3dd"/></linearGradient><path d="M350 147.8c-9.9 10.3-50 48.2-62.4 61.4-14.7 15.5-14.4 16.6-28 27.3-5.1 4.8-13.1 10.2-12 12.5s14.1 1.3 18.3 1.3c7.4 0 34 .7 64.5-12.1s53.5-35.8 63.5-67.7c9.9-31.9 4.6-64.9-3.5-83-3.5 14.9-30.5 50-40.4 60.3" style="fill:url(#wiki-js_svg__SVGID_00000009548383371274141800000010447881224987351980_)"/></svg>