<svg xmlns="http://www.w3.org/2000/svg" xml:space="preserve" viewBox="0 0 512 512"><path d="M21.6 333.3C16.4 324.2 10.5 316 6.7 307c-15.3-37.1-3.8-78.8 27.8-103.2 1.7-1.3 2.6-2.4 2.2-5-2.2-13.6-1.4-26.9 3.8-39.8.4-1-.1-2.9-.9-3.8-11.5-12.9-18.6-27.9-20.9-45-4-29.7 4.8-55.4 26.2-76.4C62.4 16.7 83.7 8.7 108.2 8.7h386.1v105.8H512V256h-34.6v35.1h34.5v212.2h-4.2c-133.1 0-266.2-.4-399.3 0-50.6.2-93.4-33.9-104.8-79.6-8-32.3-2.3-62.2 17.3-89.3.4-.7.8-1.3.7-1.1m78.6-113c-7.1.4-14.3.1-21.2 1.2-22.8 3.7-42 25.3-43.3 47.6-1.8 29.8 18.1 50.7 39.3 55.4 8.3 1.8 17 1.4 25.6 2 0 .2-.1.3-.1.5-1.6.1-3.3 0-4.9.3-39.5 5.9-66.8 44.9-58.6 83.9 6.9 33 35.3 56.4 69.1 56.5 31.5.1 62.9 0 94.4 0 6.7 0 13.4-.1 20.1-.1 10.8 0 21.6.1 32.3.1h241.5v-17.4h-17.1V344.5h17v-18.1h-52.8v-17.3h-17.4v-70.4h17.3v-17.9h53V203h-17v-34.9h17v-18.2h-34.9v-17.5h-17.4V62.1h17.1V44H198.3c-3 0-6 .1-9 .1-28.7 0-57.4-.1-86.1 0-2.6 0-5.2.5-7.7 1-24.3 5.2-40.9 26.4-42 49.2-1 20.4 10.4 41.8 31.1 51 5.4 2.4 11.3 3.5 17 5.2-25.6 3.4-39 31.5-25.7 53.1 5.7 9.1 14 14.3 24.3 16.7" style="fill:#060505"/><path d="M220.4 467.5c-6.7 0-13.4.1-20.1.1-31.5 0-62.9.1-94.4 0-33.7-.1-62.2-23.4-69.1-56.5-8.1-39 19.1-78 58.6-83.9 1.6-.2 3.3-.2 4.9-.3 1.1.1 2.2.2 3.3.2H217c-14 3.1-26.3 9.6-36.2 19.7-15.5 15.8-23.7 34.6-21.2 57.3 2.7 25.1 15.1 43.8 37.5 55.3 7.2 3.7 15.5 5.5 23.3 8.1" style="fill:#f16422"/><path d="M220.4 467.5c-7.8-2.7-16-4.4-23.3-8.1-22.3-11.5-34.8-30.2-37.5-55.3-2.4-22.6 5.8-41.5 21.2-57.3 9.9-10.1 22.2-16.5 36.2-19.7H103.6c-1.1 0-2.2-.1-3.3-.2 0-.2.1-.3.1-.5 1.9-.1 3.8-.1 5.7-.1 15.1-.1 30.2-.1 45.4-.1 1.2 0 2.5.1 3.7.1 39.6 0 79.2.1 118.9.1 55.7 0 111.5-.1 167.2-.1h52.8v18.1h-17c-.5 0-1.1-.1-1.6-.1-82.5 0-164.9-.1-247.4.1-24.9.1-46.5 19.1-50.5 43.7-4.6 28.1 12.4 54 40 60.8 2.9.7 5.9 1.2 8.9 1.2 83.1.1 166.3.1 249.4.1.4 0 .8-.1 1.2-.1h17.1v17.4H252.7c-10.8.1-21.6 0-32.3 0" style="fill:#c95328"/><path d="M441.4 326.3c-55.7 0-111.5.1-167.2.1-39.6 0-79.2 0-118.9-.1-1.2 0-2.5-.1-3.7-.1-3.6-1-7.4-1.7-10.9-3.1-19.3-7.7-31.4-21.8-34.1-42.4-2.6-20.4 4.8-37.2 21.4-49.7 8.1-6.1 17.4-9.5 27.6-10.2l32-.3c4 .1 7.9.2 11.9.2H432c3.1 0 6.3.1 9.4.1v17.9h-17.3c-.9-.1-1.9-.2-2.8-.2H160.5c-16.1 0-28.9 8.6-34.2 22.6-8.9 23.4 8.4 48 33.8 48h250.6c4.5 0 9-.1 13.5-.1h17.4c-.2 6-.2 11.7-.2 17.3" style="fill:#1065af"/><path d="M441.3 220.7c-3.1 0-6.3-.1-9.4-.1H199.4c-4 0-7.9-.1-11.9-.2-.7-.3-1.4-.7-2.2-.9-15.4-4.4-25.5-16.4-26.3-32.7-.7-14.9 7.9-28.9 23.2-34.6 1.3-.5 2.5-1.4 3.7-2 .4-.1.7-.3 1.1-.4 4.4.1 8.7.2 13.1.2 84.9 0 169.8 0 254.7-.1 1.5 0 3-.1 4.5-.2h34.9v18.2h-17c-1.6 0-3.3-.1-4.9-.1H238c-14.6 0-29.3-.1-43.9 0-11.6.1-19.8 11.4-16.5 22.5 2.4 8 9.2 12.5 19 12.5 92.3 0 184.6.1 277 .1 1.2 0 2.5-.1 3.7-.1h17v17.8c-17.7.1-35.3.1-53 .1" style="fill:#e9a423"/><path d="M459.3 149.8c-1.5.1-3 .2-4.5.2-84.9 0-169.8.1-254.7.1-4.4 0-8.7-.2-13.1-.2-.5-.2-.9-.6-1.4-.7-13.8-2.4-24.9-9.2-33.3-20.3-18.1-23.9-12.6-58 12-75.1 7.5-5.2 15.9-8.2 24.8-9.6 3 0 6-.1 9-.1H459v18.1h-17.1c-1.5-.1-3-.4-4.5-.4-80.3 0-160.5.2-240.8-.1-19.4-.1-32.2 12.7-36 25.5-6.5 22 9.9 44.4 33.1 45.3h3.7c79.9 0 159.7.1 239.6.1 1.6 0 3.3-.1 4.9-.2h17.4z" style="fill:#1e7e3f"/><path d="M477.1 344.4v105.8c-.4 0-.8.1-1.2.1-83.1 0-166.3 0-249.4-.1-3 0-6-.5-8.9-1.2-27.6-6.9-44.6-32.7-40-60.8 4-24.6 25.6-43.6 50.5-43.7 82.5-.2 164.9-.1 247.4-.1.6-.1 1.1 0 1.6 0m-56-106H160.3c-16.1 0-28.9 8.6-34.2 22.6-8.9 23.4 8.4 48 33.8 48h250.6c4.5 0 9-.1 13.5-.1v-70.4c-1 0-2-.1-2.9-.1m16.3-176.7c-80.3 0-160.5.2-240.8-.1-19.4-.1-32.2 12.7-36 25.5-6.5 22 9.9 44.4 33.1 45.3h3.7c79.9 0 159.7.1 239.6.1 1.6 0 3.3-.1 4.9-.2V62c-1.6-.1-3.1-.3-4.5-.3M477.2 168c-1.6 0-3.3-.1-4.9-.1H238c-14.6 0-29.3-.1-43.9 0-11.6.1-19.8 11.4-16.5 22.5 2.4 8 9.2 12.5 19 12.5 92.3 0 184.6.1 277 .1 1.2 0 2.5-.1 3.7-.1-.1-11.6-.1-23.2-.1-34.9" style="fill:#fffefe"/><path d="M189.1 44.1c-9 1.4-17.3 4.4-24.8 9.6-24.7 17.1-30.2 51.2-12 75.1 8.5 11.1 19.5 18 33.3 20.3.5.1 1 .5 1.4.7-.4.1-.7.3-1.1.4-12.4-.1-24.8-.2-37.2-.2-15.8.1-31.6.3-47.4.4-5.7-1.7-11.6-2.8-17-5.2-20.7-9.2-32.1-30.5-31.1-51 1.1-22.8 17.7-44 42-49.2 2.5-.5 5.1-1 7.7-1 28.8 0 57.5.1 86.2.1" style="fill:#41b54a"/><path d="M155.5 220.8q-15.3 1.05-27.6 10.2c-16.6 12.5-24 29.3-21.4 49.7 2.7 20.7 14.8 34.7 34.1 42.4 3.5 1.4 7.3 2.1 10.9 3.1-15.1 0-30.2.1-45.4.1-1.9 0-3.8.1-5.7.1-8.5-.6-17.3-.1-25.6-2-21.2-4.7-41.1-25.6-39.3-55.4 1.3-22.2 20.5-43.9 43.3-47.6 7-1.1 14.1-.8 21.2-1.2 3 .1 6 .2 9 .2 15.6.2 31.1.3 46.5.4" style="fill:#4395d0"/><path d="M155.5 220.8c-15.4-.1-30.9-.1-46.3-.2-3 0-6-.1-9-.2-10.2-2.5-18.6-7.7-24.2-16.7-13.4-21.6.1-49.7 25.4-53.1 15.8-.1 31.6-.4 47.4-.4 12.4 0 24.8.1 37.2.2-1.2.7-2.4 1.6-3.7 2-15.3 5.6-23.9 19.7-23.2 34.6.8 16.3 11 28.3 26.3 32.7.7.2 1.5.6 2.2.9-10.7-.1-21.4.1-32.1.2" style="fill:#fdb815"/></svg>