<svg xmlns="http://www.w3.org/2000/svg" xml:space="preserve" id="wiki-js-light_svg__wiki-js_svg__Layer_1" x="0" y="0" version="1.1" viewBox="0 0 512 512"><style>.wiki-js-light_svg__st0{opacity:.6;fill:#fff}</style><path d="M303.8 316.3c11.1-8 30.1-30.8 47.1-53.8-17.9-.5-35.8-1.8-45.9-3-22.4-2.5-25.1 1-50.8-.7-12.4-.9-11.8 1.8-12.8 17.4-2.5 43 13.7 51.7 25.7 53.5 9.8 1.5 18.9-2.2 21.8-3.5 2.9-1.7 7.3-4.5 14.9-9.9" class="wiki-js-light_svg__st0"/><path d="M4.1 151.8c6.2.1 36.6.4 65.4 4.3.4 1.3.7 2.6 1.1 3.9 11.5 37 38.2 63.7 73.6 78.5 24.8 10.4 47.3 13.6 61.5 14.6-10.3 0-23.6-.8-35.4-1.7-4.7-.7-9.5-1.3-14.5-1.9-35-8.6-64.9-21.4-89.6-39.4-52.7-38.4-60-54.6-62.1-58.3m350.2 106.1c3.7-5.1 7.3-10.1 10.6-14.9-17.4 8.3-36.2 14.1-54 14.1-13.3 0-22.4.7-30.2 1.3 9.7.7 21.4 1.3 34.5 1.3 13.4 0 26.5-.6 39.1-1.8m25.4 39c-2.8-2.4-5.9-4.7-9.1-6.8-29 13-61.7 27.7-68.3 31.2-8.8 4.6-16.7 6.7-17.7 7 2.8-1.2 6.6-3 19.2-12 9-6.4 23-22.4 36.9-40.5-39.6-14-84.8-15.6-84.8-15.6s-9.6-4.5-14.8 10.8c-.4 3.4-1.1 7.4-2.6 11.4-3.2 21.1-.6 53.3 34.9 96.9 39.7 48.8 137.5 65.7 160.4 71 11.6-55.6-15.2-119.8-54.1-153.4m-261.9-5.3c-5.4-2.5-10.5-5-15.2-7.7-16.2 7.8-30.1 16.6-39.4 25.1-27.5 25-45.3 54.7-50.6 81.2 10.6.8 30.3 1.2 30.3 1.2 47 0 86.3-8.6 118.6-27 28.6-16.3 45.7-36.6 56.2-50.5 4.1-5.5 7.2-10.6 9.6-15.3-2.4 1.9-5.2 3.6-8.5 5-20.4 8.8-45.4 13.2-101-12m325.8-116.5c-4.5 8.8-9.9 16.7-16 23.2-6.5 7-16.8 16.1-29.3 24.9 12.6 9.1 18.6 16 21.5 21.5 53.7-18 73.8-49.4 79.6-60.4-.6-.1-26.7-5.3-55.8-9.2" style="opacity:.4;fill:#fff"/><path d="M442.9 61.6s-3.7 6.1-18.9 19.9c-15.3 13.7-46 35.1-72 51.9s-42.8 45.1-62.6 74.8c-15 22.5-33.7 35.1-42 41.7 1.9-4 3.2-10.2 2.5-19.8-.2-3-.5-5.4-.9-7.3 9.2-.8 16.1-7.3 16.1-12 0-3.1-3-3.4-7.7-3.2 2.7-10.4 15.6-55 35.7-59.4 6.2 1.5 19.7 2 14.5-3-1.7-1.6-4.6-2.3-8-2.3-7.4 0-16.4 3.1-19.2 6.9-4.1 5.4-24.9 26.3-23.9 58-3.2.2-7.1.6-11.3.6-4.9 0-9.1-.6-12.3-.7 1-31.6-19.9-52.5-23.9-57.9-4.1-5.6-21.8-9.6-26.9-4.5-5.2 5.1 8.3 4.5 14.5 3 20.1 4.4 32.9 48.9 35.7 59.4-3.5-.1-5.6.5-5.6 3.2 0 4.3 3.2 9.7 11.3 10.9-.1.3-4.7 3.6-1.7 22.3-2.9-2.3-7-4.7-10-7.6-15.7-12.4-15.4-13.7-32.4-31.7-14.4-15.2-60.9-59.2-72.4-71.1S78.8 81 74.7 63.8C65.2 84.7 59 123 70.6 160c11.5 37 38.2 63.7 73.6 78.5 24.8 10.4 47.3 13.6 61.5 14.6-10.3 0-23.6-.8-35.4-1.7-21.8-1.5-56.9-6.1-76.9-8.8C74.2 240 43 229.8 43 229.8s19.3 36.6 74.8 61.8c55.6 25.2 80.6 20.8 101 12 26.3-11.4 22.5-41.9 22.4-43.4-.1-1.3-.3-2.5-.5-3.5 1-.4 2.3-1 3.7-2.4-.7 1.7-1.1 3.1-1.1 3.1 27.6 4 34-.4 67.6-.4 17.8 0 36.6-5.8 54-14.1 8.1-11.7 14.9-22.3 18.9-29.4 5.6 3.5 10.5 6.7 14.6 9.6 12.6-8.9 22.9-17.9 29.3-24.9 19.1-20.6 31.3-54.2 32.1-88.6.7-34.3-16.9-48-16.9-48" class="wiki-js-light_svg__st0"/><path d="M113.7 192.8c-11.3-16.3-17-41.1-13.7-65.1 3.8-28.1 17.7-31.8 17.7-31.8s3.1 6.9 12.4 18c9.3 11.2 26.4 26.6 42.9 40.9s25.5 35.7 36.4 58.5 23.4 34.9 23.4 34.9-22.4.1-43.2-2.8c-32.1-4.5-64.6-36.3-75.9-52.6M311 310.2c7.9-7.5 17.8-19.1 27.8-31.8-8.9-3.3-20.5-8.6-30.4-13.4-12.6-6.1-27.4-5.9-43.5-6.6-7-.3-13.3-1.5-18-2.7.3-2.4.5-4.8.7-7.2 0 .1 0 .3.1.4 1.1 2.3 14.1 1.3 18.3 1.3 7.4 0 34 .7 64.5-12.1s53.5-35.8 63.5-67.7c9.9-31.9 4.6-64.9-3.5-83-3.5 14.9-30.5 50-40.4 60.3s-50 48.2-62.4 61.4c-14.7 15.5-14.4 16.6-28 27.3-4.6 4.3-11.6 9.2-12.1 11.8.6-7.3.9-14.7.7-21.7-.2-4.5-.4-8.1-.7-11 6.8-1.2 11.9-11 11.9-18.1 0-4.7-2.2-5.2-5.7-4.8 1.6-18.8 8-82.4 26.3-89.9 4.6 2.3 17.5 1.4 13.6-6.2-3.8-7.6-17.3-1.5-22.7 5.6-5.9 7.8-20.1 42.9-19.3 90.8-2.4.3-3.6.7-6.8.7-3.6 0-6.7-.8-9.1-1 .7-47.8-15-79.2-17.6-87.5-2.5-7.9-10.3-12.5-16.4-12.5-2.8-.1-5.5 1.1-6.8 3.7-3.8 7.6 9.6 8.8 14.2 6.5 14.8 6.7 24.3 73.9 26.3 89.8-2.6-.1-4.2.7-4.2 4.9 0 6.5 3.6 15.9 9.5 17.7-.1.4-.2.6-.2.6s-5.9 20.4-8.6 45.2c-4.3-.9-9.2-2.3-14.4-4.4-15-6-28.4-12.3-42.4-11.9-13.9.4-30.8.3-40-1-9.2-1.2-12.1-2.6-12.1-2.6s-3.1 9.7 6 22.3c9 12.6 22.2 22 34.5 24.8 12.4 2.8 41.4 3.8 58.5-7.9 3.8-2.6 6.5-4.4 8.8-6-.2 4.3-.3 8.6-.2 13-6 15.9-11.7 41.6-5.4 69.5 0 0 14.7-17.7 16.5-62.1.1-3.4.2-6.4.2-9 1.1-5.4 2.2-11.3 3.2-17.5 1.5 2.5 3.4 5.5 6 9.7 10.7 17.7 37.6 28.8 50 31.3 3 .8 6.3 1.1 9.8 1" style="fill:#fff"/><path d="M303.8 316.3c-12.6 9-16.4 10.8-19.2 12 1-.3 8.9-2.4 17.7-7C314.5 314.8 418 269 418 269s5-3.8 4.6-11.5c-.4-7.6 1.5-19.1-38.9-43.9-13.4 24.1-59.6 88.2-79.9 102.7" class="wiki-js-light_svg__st0"/></svg>