<svg xmlns="http://www.w3.org/2000/svg" xml:space="preserve" viewBox="0 0 512 512"><path d="M491.9 156.3C479 125.9 460.5 98.5 437 75s-50.9-42-81.4-54.9C324.1 6.8 290.6 0 256 0c-34.5 0-68.1 6.8-99.7 20.1C125.9 33 98.5 51.5 75 75s-42 50.9-54.9 81.4C6.8 187.9 0 221.4 0 256c0 34.5 6.8 68.1 20.1 99.7C33 386.1 51.5 413.5 75 437s50.9 42 81.4 54.9c31.6 13.3 65.1 20.1 99.7 20.1s68.1-6.8 99.7-20.1c30.5-12.9 57.8-31.3 81.4-54.9 23.5-23.5 42-50.9 54.9-81.4 13.3-31.6 20.1-65.1 20.1-99.7-.2-34.4-7-68-20.3-99.6" style="fill:#636"/><path d="M311.9 315.5c-4.7 0-8.5-3.8-8.5-8.5v-87.5c0-26.2-21.3-47.4-47.3-47.4-26.2 0-47.4 21.3-47.4 47.3V307c0 4.7-3.8 8.5-8.5 8.5s-8.5-3.8-8.5-8.5v-87.5c0-35.5 28.9-64.4 64.4-64.4h.2c35.6 0 64.4 28.9 64.4 64.5V307c-.3 4.7-4.1 8.5-8.8 8.5m46.8 44.4c-4.7 0-8.5-3.8-8.5-8.5V222c0-25.2-9.7-48.8-27.5-66.6s-41.4-27.6-66.6-27.6h-.2c-25.1 0-48.7 9.8-66.5 27.5-17.8 17.8-27.6 41.4-27.6 66.6v129.5c0 4.7-3.8 8.5-8.5 8.5s-8.5-3.8-8.5-8.5V221.9c.1-29.7 11.6-57.7 32.6-78.7s48.9-32.5 78.6-32.5h.2c29.7.1 57.7 11.6 78.7 32.6s32.6 49 32.5 78.7v129.4c-.1 4.7-3.9 8.5-8.7 8.5m45.8 40.9c-4.7 0-8.5-3.8-8.5-8.5V226.9c0-77.2-62.8-140.1-140.1-140.1-77.2 0-140 62.8-140 140.1v165.3c0 4.7-3.8 8.5-8.5 8.5s-8.5-3.8-8.5-8.5V226.9c0-42 16.4-81.5 46-111.2 29.6-29.6 69.1-46 111-46h.1c42 0 81.4 16.4 111.1 46 29.6 29.6 46 69.1 46 111.1v165.3c0 4.9-3.8 8.7-8.6 8.7M256 425c-4.7 0-8.5-3.8-8.5-8.5v-194c0-4.7 3.8-8.5 8.5-8.5s8.5 3.8 8.5 8.5v194c0 4.7-3.8 8.5-8.5 8.5" style="fill:#fce187"/></svg>