<?xml version="1.0" encoding="utf-8"?>
<!-- Generator: Adobe Illustrator 28.2.0, SVG Export Plug-In . SVG Version: 6.00 Build 0)  -->
<svg version="1.1" id="Layer_1" xmlns="http://www.w3.org/2000/svg" xmlns:xlink="http://www.w3.org/1999/xlink" x="0px" y="0px"
	 viewBox="0 0 512 512" style="enable-background:new 0 0 512 512;" xml:space="preserve">
<style type="text/css">
	.st0{fill:#FFFFFF;}
</style>
<path class="st0" d="M210.6,358.5v31.8l-37.9,15.2v-31.8L210.6,358.5z M210.6,308.3v32L172.7,355v-31.5L210.6,308.3z M158,360.6V387
	l-33.4,13.3v-26.2L158,360.6z M158,310.7v26.4l-33.4,13.3V324L158,310.7z M108.4,361.7v19.8l-26.7,10.7V373L108.4,361.7z
	 M108.4,311.8V331l-26.7,11v-19.2L108.4,311.8z M62.7,352.1v16.6l-19.8,8v-16.8L62.7,352.1z M62.7,300v16.6l-19.8,8v-17.1L62.7,300z
	 M16.3,340.9v13.9l-14.7,6.7v-13.6L16.3,340.9z M16.3,289.1v13.6l-14.7,6.7v-13.9L16.3,289.1z M210.6,203.1v31.8l-37.9,14.9v-31.5
	L210.6,203.1z M210.6,154v31.5l-37.9,15.2V169L210.6,154z M158,207.4v26.2l-33.4,13.6v-26.4L158,207.4z M158,155.9v26.4l-33.4,13.6
	v-26.4L158,155.9z M108.4,208.8V228l-26.7,10.7v-19.2L108.4,208.8z M108.4,157.2v19.5l-26.7,10.4v-19L108.4,157.2z M62.7,197v16.6
	L43,221.3v-17.1L62.7,197z M62.7,145.5v16.8L43,170v-16.8L62.7,145.5z M16.3,185.5v13.9l-14.7,6.7v-13.9L16.3,185.5z M16.3,134.3
	v14.1l-14.7,6.7v-13.9L16.3,134.3z M266.4,388.4v48.1c-18.5,7.1-34.3,14-47.2,20.6v-48.3L266.4,388.4z M266.4,338v44.8l-47.2,20.6
	V358L266.4,338z M266.4,286.4v45.9l-47.2,20.3v-46.2L266.4,286.4z M266.4,236.2v44.6l-47.2,20V256L266.4,236.2z M266.4,185.5v45.1
	l-47.2,20v-45.1L266.4,185.5z M266.4,135.3v44.6l-47.2,20v-44.8L266.4,135.3z M266.4,78.5V130l-47.2,19.8v-48.1
	C235.5,92.3,251.3,84.5,266.4,78.5z M212.8,405.5v37.6L168.4,461v-37.6L212.8,405.5z M212.8,252v37.6l-44.3,17.9v-37.6L212.8,252z
	 M212.8,97.4V135l-44.3,18.2v-37.6L212.8,97.4z M160.2,410.3v28.8l-39.8,16v-28.6L160.2,410.3z M160.2,257.1v28.8l-39.8,15.7v-28.8
	L160.2,257.1z M160.2,102.2V131l-39.8,16v-28.6L160.2,102.2z M110,411.6v21.9l-31.8,12.8v-21.9L110,411.6z M110,258.1V280
	l-31.8,12.5v-21.6L110,258.1z M110,103.6v21.9L78.2,138v-21.6L110,103.6z M64.1,402v18.2l-24.6,10.1v-18.2L64.1,402z M64.1,246.7
	v18.2l-24.6,9.6v-18.2L64.1,246.7z M64.1,92.1v18.4l-24.6,9.3v-18.2L64.1,92.1z M18.2,390.8v16L0,414.3v-15.2L18.2,390.8z M18.2,236
	v15.7L0,259.2V244L18.2,236z M18.2,83.3V99L0,106.5V91L18.2,83.3z M393.5,51c-39.9,0-80.5,8.5-122,25.4v50.7
	c28.3-11.9,55.5-20.4,81.7-25.4v114c-29,4.3-56.2,12.3-81.7,24v34.4c29.4-14.2,56.6-23,81.7-26.2v117.5
	c-29.7,4.3-56.9,11.3-81.7,21.1v48.1c46.6-15.7,88.8-23.5,126.5-23.5c45.6,0,83.6,10,114,29.9V80.4C475.9,60.8,436.4,51,393.5,51z
	 M393.7,97.7c27.6,0,51.3,5,71,14.9v111.8c-23-7.5-46.3-11.2-69.9-11.2l-10.7,0.3V98.2C387.3,97.9,390.5,97.7,393.7,97.7z
	 M394.3,244.8c25.8,0,49.3,4.6,70.5,13.9v113.7c-20.8-6.4-44.1-9.6-69.9-9.6h-10.7V245.3C387.7,245,391.1,244.8,394.3,244.8z"/>
</svg>
