<svg xmlns="http://www.w3.org/2000/svg" xml:space="preserve" viewBox="0 0 512 512"><path d="M170.7 64H21.3C9.6 64 0 73.6 0 85.3V128h170.7z" style="opacity:.3;fill:#fff"/><path d="M170.7 64h170.7v64H170.7z" style="opacity:.6;fill:#fff"/><path d="M512 85.3V128H341.3V64h149.3c11.8 0 21.4 9.6 21.4 21.3m0 53.7v287.7c0 11.7-9.6 21.3-21.3 21.3H21.3C9.6 448 0 438.4 0 426.7V139zM202.4 286.9c.1-3.2-1.2-6.3-4-8.5l-93.9-93.9c-4.3-4.3-12.8-4.3-17.1 0l-19.2 19.2c-5.3 4.3-5.3 11.7 0 17.1l66.1 66.1L68.2 353c-5.3 5.3-5.3 12.8 0 17.1l19.2 19.2c5.3 5.3 12.8 5.3 17.1 0l93.9-93.9c2.8-2.2 4.1-5.3 4-8.5M437.3 352c0-6.4-4.3-10.7-10.7-10.7H256c-6.4 0-10.7 4.3-10.7 10.7v32c0 6.4 4.3 10.7 10.7 10.7h170.7c6.4 0 10.7-4.3 10.7-10.7v-32z" style="fill:#fff"/></svg>