<svg xmlns="http://www.w3.org/2000/svg" xml:space="preserve" viewBox="0 0 512 512"><path d="M394.3 229.3q-5.7 0-11.7.6l-13.9 1.4v147h26.2c24.5 0 46.3 3 65.4 8.9l20 6.2V248.5l-9.3-4.1c-23.3-10.1-49.1-15.1-76.7-15.1" style="fill:#ff0"/><path d="M393.7 82.2c-3.8 0-7.6.2-11.3.6l-13.8 1.5v145.1l26.3-.7c22 0 43.6 3.5 65 10.4l20.3 6.6V103.1l-8.5-4.3c-22.3-11.2-48.5-16.6-78-16.6" style="fill:green"/><path d="m368.7 230.4-17.4 2.2c-25.2 3.2-51.7 11.5-79.7 24.4v146.1l5.7-2.3c23.5-9.3 49.5-16 78.2-20.2l13.3-1.9zM210.6 358.5v31.8l-37.9 15.2v-31.8zm0-50.2v32L172.7 355v-31.5zM158 360.6V387l-33.4 13.3v-26.2zm0-49.9v26.4l-33.4 13.3V324zm-49.6 51v19.8l-26.7 10.7V373zm0-49.9V331l-26.7 11v-19.2zm-45.7 40.3v16.6l-19.8 8v-16.8zm0-52.1v16.6l-19.8 8v-17.1zm-46.4 40.9v13.9l-14.7 6.7v-13.6zm0-51.8v13.6l-14.7 6.7v-13.9z" style="fill:#00f"/><path d="m368.7 83-18.4 3.5c-25.5 4.9-51.8 12.9-78.8 23.8v146.4l6.5-3c24.1-11.1 49.8-18.7 77.5-22.8l13.2-1.9zM210.6 203.1v31.8l-37.9 14.9v-31.5zm0-49.1v31.5l-37.9 15.2V169zM158 207.4v26.2l-33.4 13.6v-26.4zm0-51.5v26.4l-33.4 13.6v-26.4zm-49.6 52.9V228l-26.7 10.7v-19.2zm0-51.6v19.5l-26.7 10.4v-19zM62.7 197v16.6L43 221.3v-17.1zm0-51.5v16.8L43 170v-16.8zm-46.4 40v13.9l-14.7 6.7v-13.9zm0-51.2v14.1l-14.7 6.7v-13.9z" style="fill:red"/><path d="M266.4 388.4v48.1c-18.5 7.1-34.3 14-47.2 20.6v-48.3zm0-50.4v44.8l-47.2 20.6V358zm0-51.6v45.9l-47.2 20.3v-46.2zm0-50.2v44.6l-47.2 20V256zm0-50.7v45.1l-47.2 20v-45.1zm0-50.2v44.6l-47.2 20v-44.8zm0-56.8V130l-47.2 19.8v-48.1c16.3-9.4 32.1-17.2 47.2-23.2m-53.6 327v37.6L168.4 461v-37.6zm0-153.5v37.6l-44.3 17.9v-37.6zm0-154.6V135l-44.3 18.2v-37.6zm-52.6 312.9v28.8l-39.8 16v-28.6zm0-153.2v28.8l-39.8 15.7v-28.8zm0-154.9V131l-39.8 16v-28.6zM110 411.6v21.9l-31.8 12.8v-21.9zm0-153.5V280l-31.8 12.5v-21.6zm0-154.5v21.9L78.2 138v-21.6zM64.1 402v18.2l-24.6 10.1v-18.2zm0-155.3v18.2l-24.6 9.6v-18.2zm0-154.6v18.4l-24.6 9.3v-18.2zM18.2 390.8v16L0 414.3v-15.2zm0-154.8v15.7L0 259.2V244zm0-152.7V99L0 106.5V91zM393.5 51c-39.9 0-80.5 8.5-122 25.4v50.7c28.3-11.9 55.5-20.4 81.7-25.4v114c-29 4.3-56.2 12.3-81.7 24v34.4c29.4-14.2 56.6-23 81.7-26.2v117.5c-29.7 4.3-56.9 11.3-81.7 21.1v48.1c46.6-15.7 88.8-23.5 126.5-23.5 45.6 0 83.6 10 114 29.9V80.4Q457.85 51 393.5 51m.2 46.7c27.6 0 51.3 5 71 14.9v111.8c-23-7.5-46.3-11.2-69.9-11.2l-10.7.3V98.2c3.2-.3 6.4-.5 9.6-.5m.6 147.1c25.8 0 49.3 4.6 70.5 13.9v113.7q-31.2-9.6-69.9-9.6h-10.7V245.3c3.5-.3 6.9-.5 10.1-.5"/></svg>