<svg xmlns="http://www.w3.org/2000/svg" xml:space="preserve" viewBox="0 0 512 512"><path d="M430 0H82C36.7 0 0 36.7 0 82v348c0 45.3 36.7 82 82 82h348c45.3 0 82-36.7 82-82V82c0-45.3-36.7-82-82-82M147.8 322.2 127 261.8l-14.7 60.4H86l-33.1-97.6H80l28 84.5c10-28.3 16.3-54.7 6.6-84.5H141l33.2 97.6zm37.5-38.1c-5-13.2-12.5-25.4-22-35.8 8.8-7.6 16.3-16.7 22-26.8 5.8 10.1 13.2 19.2 22.1 26.8-9.7 10.4-17.2 22.6-22.1 35.8m61 38.1h-26.4v-97.6c8.4 3.7 18 3.7 26.4 0h.1v97.6zM233 216.5c-9.2 0-16.7-6.6-16.7-14.8s7.5-14.8 16.7-14.8 16.7 6.6 16.7 14.8c.1 8.1-7.4 14.8-16.7 14.8m93.8 105.1c-15.1 5.8-41.8 4.8-55.5-5.8-14.2-11-6.8-27.8 10.2-23.9-3 12.9 4.8 24.3 19.7 26.1 14.9 1.7 21.9-5 23.1-13.2 1.3-9.2-5.2-16.2-25-21.5-20.5-5.5-33.4-10.7-35-28.9-1.6-16.9 12.2-28.4 29.5-31.7 17.6-3.3 36 .3 45 7.9 7.3 6.2 6.1 12.7 2.7 16.6-4.2 4.8-18 5.5-23.6-1.4 2.8-6 .5-15.3-11.5-17.4-11.1-2-21.7 5.3-20.2 16.1 1.4 10.2 14.8 11.3 28.9 16.1 15.7 5.2 31.8 10 33.4 28.9 1.6 17.6-8.2 27-21.7 32.1m132.3.6h-26.4V256c0-8.8.3-19.9-6.3-24.5-5.5-3.8-15.5-4.8-22.7.6-7.9 5.9-10.2 13.3-10.2 28.8v61.3h-27V189.8h27.1v40.1c7.4-5.5 16.4-8.4 25.6-8.3 23.8 0 39.9 10.2 39.9 34z"/></svg>