<svg xmlns="http://www.w3.org/2000/svg" xml:space="preserve" viewBox="0 0 512 512"><path d="M171.4 27.5c-48.2.7-97.2 12.4-128.6 6.7-2.4-.4-3.8 2.4-2.1 4.1 26.5 25.3 36.5 50.7 66 54.2l.9.2c-13.6 14-25.2 32.4-33.4 56.1-8.8 25.4-11.3 52.9-14.2 84.8-4.4 47.4-9.3 101-36.1 168.3C13.3 428.5 5.3 456.2 0 484.5h40.8c4.7-23.2 11.5-46 20.2-68 28.9-72.6 34.3-131.8 38.7-179.4 2.7-29.2 5-54.5 12.2-75.3 21-60.3 70.9-73.6 109.9-66 37.8 7.3 75 36.9 73 79.2-1.4 28.8-14 41.7-23.2 51.2-5 5.2-9.8 10.1-12.1 17.1-5.5 16.5.2 35 15.3 49.6 40 37.3 61.8 107.5 60.6 191.7h39.9c1.1-95.3-25.1-176.1-72.9-220.7-3.8-3.6-4.8-6.5-5.7-6 2.2-2.8 5.8-6 8.3-8.7 52.9-39.2 140-3.4 192.6 17.4 13.6 5.4 20.3-7.8 7.3-15.5-45.2-26.7-137.7-97.2-189.6-143.4-7.2-6.4-12.2-14-20.6-21.1-27.9-49.5-75.2-59.8-123.3-59.1M234.8 136c-1.2.1-2.4.2-3.6.4-14.8 2.8-24.5 17.1-21.8 31.9 1.9 10 9.2 18.2 19.1 21.1 14.3 4.7 29.7-3.1 34.4-17.4s-3.1-29.7-17.4-34.4c-3.4-1.3-7.1-1.8-10.7-1.6m-79.7 264.8c-.7 0-1.4.2-2 .7-1.9 1.4-3.5 5.5-1.4 10.3 9.7 22.3 16.4 45.8 22.6 72.7h40.5c-10.2-29.9-29.3-61.3-50.1-79.1-3.7-3.2-7.2-4.7-9.6-4.6" style="fill:#439746"/></svg>