<?xml version="1.0" encoding="utf-8"?>
<!-- Generator: Adobe Illustrator 28.2.0, SVG Export Plug-In . SVG Version: 6.00 Build 0)  -->
<svg version="1.1" id="Layer_1" xmlns="http://www.w3.org/2000/svg" xmlns:xlink="http://www.w3.org/1999/xlink" x="0px" y="0px"
	 viewBox="0 0 512 512" style="enable-background:new 0 0 512 512;" xml:space="preserve">
<style type="text/css">
	.st0{fill:#FFFFFF;}
</style>
<path class="st0" d="M171.4,27.5c-48.2,0.7-97.2,12.4-128.6,6.7c-2.4-0.4-3.8,2.4-2.1,4.1c26.5,25.3,36.5,50.7,66,54.2l0.9,0.2
	c-13.6,14-25.2,32.4-33.4,56.1c-8.8,25.4-11.3,52.9-14.2,84.8c-4.4,47.4-9.3,101-36.1,168.3C13.3,428.5,5.3,456.2,0,484.5h40.8
	c4.7-23.2,11.5-46,20.2-68c28.9-72.6,34.3-131.8,38.7-179.4c2.7-29.2,5-54.5,12.2-75.3c21-60.3,70.9-73.6,109.9-66
	c37.8,7.3,75,36.9,73,79.2c-1.4,28.8-14,41.7-23.2,51.2c-5,5.2-9.8,10.1-12.1,17.1c-5.5,16.5,0.2,35,15.3,49.6
	c40,37.3,61.8,107.5,60.6,191.7h39.9c1.1-95.3-25.1-176.1-72.9-220.7c-3.8-3.6-4.8-6.5-5.7-6c2.2-2.8,5.8-6,8.3-8.7
	c52.9-39.2,140-3.4,192.6,17.4c13.6,5.4,20.3-7.8,7.3-15.5c-45.2-26.7-137.7-97.2-189.6-143.4c-7.2-6.4-12.2-14-20.6-21.1
	C266.8,37.1,219.5,26.8,171.4,27.5L171.4,27.5z M234.8,136c-1.2,0.1-2.4,0.2-3.6,0.4c-14.8,2.8-24.5,17.1-21.8,31.9
	c1.9,10,9.2,18.2,19.1,21.1c14.3,4.7,29.7-3.1,34.4-17.4s-3.1-29.7-17.4-34.4C242.1,136.3,238.4,135.8,234.8,136L234.8,136z
	 M155.1,400.8c-0.7,0-1.4,0.2-2,0.7c-1.9,1.4-3.5,5.5-1.4,10.3c9.7,22.3,16.4,45.8,22.6,72.7h40.5c-10.2-29.9-29.3-61.3-50.1-79.1
	C161,402.2,157.5,400.7,155.1,400.8L155.1,400.8z"/>
</svg>
