<svg xmlns="http://www.w3.org/2000/svg" xml:space="preserve" viewBox="0 0 512 512"><path d="M36.4 256c0 87.2 50.4 162.4 124 197.6l-105-287C43.2 193.6 36 224 36 256zm367.8-11.1c0-27.2-9.8-45.9-18.1-60.6-11.1-18.1-21.6-33.4-21.6-51.5 0-20.2 15.3-39 36.9-39 1 0 1.6 0 3.2.2-39.4-35.6-91.8-58-148.6-57.6-76.7 0-144.2 39.4-183.5 99.2 5.2 0 10.4 0 14.4.3 23 0 58.5-2.8 58.5-2.8 11.8-.7 13.6 16.8 1.6 18.4 0 0-11.9 1.4-25.1 2.1l80 237.9L250 247.4l-34.2-93.7c-11.8-.7-23-2.1-23-2.1-11.8-.7-10.4-18.8 1.4-18.1 0 0 36 2.4 57.6 2.8 23 0 58.5-2.8 58.5-2.8 11.8-.7 13.6 16.8 1.6 18.1 0 0-11.9 1.4-25.1 2.1l79.4 236.1 21.9-73.2c9.1-30.8 16-52.4 16-71.5h.1zm-144.4 30.3L194 466.7c19.7 5.6 40.8 8.8 62.4 8.8 25.6 0 50.1-4.4 72.9-12.4-.6-.9-1.1-1.9-1.6-3zm188.9-124.8c1 7.2 1.6 14.4 1.6 22.6 0 22.3-4.2 47.3-16.7 78.7l-67.1 193.9c65.3-38.1 109.2-108.8 109.2-189.8-.1-38.2-10.1-74.2-26.9-105.1zM256 0C114.8 0 0 114.8 0 256c0 140.8 115.2 256 256 256s256-114.8 256-256C512 115.2 396.8 0 256 0m0 500.3C121.3 500.3 11.7 390.7 11.7 256 11.7 121.6 121.6 12 256 12s244.3 109.6 244 244.3c.3 134.1-109.6 243.7-244 244" style="fill:#0073aa"/></svg>