<?xml version="1.0" encoding="utf-8"?>
<!-- Generator: Adobe Illustrator 28.2.0, SVG Export Plug-In . SVG Version: 6.00 Build 0)  -->
<svg version="1.1" id="Layer_1" xmlns="http://www.w3.org/2000/svg" xmlns:xlink="http://www.w3.org/1999/xlink" x="0px" y="0px"
	 viewBox="0 0 512 512" style="enable-background:new 0 0 512 512;" xml:space="preserve">
<style type="text/css">
	.st0{fill:#C7E0E4;}
	.st1{fill:#26CBEE;}
	.st2{fill:#FCFCF7;}
	.st3{fill:url(#SVGID_1_);}
	.st4{fill:#92FCFC;}
	.st5{fill:#24173E;}
	.st6{fill:#0F5191;}
	.st7{fill:#5EE1F6;}
	.st8{fill:#FCEDDD;}
	.st9{fill:#5E0A41;}
	.st10{fill:#EE8A84;}
	.st11{fill:#DE454A;}
	.st12{fill:#A52D53;}
	.st13{fill:#FCB330;}
	.st14{fill:#5F5F78;}
	.st15{fill:#FA5B53;}
	.st16{fill:url(#SVGID_00000124865392716880750060000012930152727801657020_);}
	.st17{fill:#BB6518;}
	.st18{fill:#4C9FC2;}
	.st19{fill:#B3C4D3;}
	.st20{fill:#FAD335;}
	.st21{fill:#FBF83C;}
	.st22{fill:#FAB59D;}
	.st23{fill:url(#SVGID_00000045577841703953360230000012534564556304418220_);}
	.st24{fill:#D5D4DD;}
	.st25{fill:#0D72AC;}
	.st26{fill:#F7F06C;}
	.st27{fill:#030213;}
	.st28{fill:#FFF19C;}
	.st29{fill:url(#SVGID_00000165205287759632537670000001724217813639404729_);}
	.st30{fill:#5A80A0;}
	.st31{fill:url(#SVGID_00000017480344933457581070000012158354446330239109_);}
	.st32{fill:url(#SVGID_00000014613677645104877520000011080533402720322491_);}
	.st33{fill:url(#SVGID_00000123419504468495029230000008065499511845522579_);}
	.st34{fill:#35456C;}
	.st35{fill:url(#SVGID_00000142134657571915615260000008508246913071997840_);}
	.st36{fill:url(#SVGID_00000015313696441754030090000014335470546864478134_);}
	.st37{fill:url(#SVGID_00000139990075445705383750000006391232662606614171_);}
	.st38{fill:url(#SVGID_00000054964529849507728360000006272422573954930360_);}
</style>
<path class="st0" d="M374.2,86.2c0.4,2.5,0.6,5.1,2.6,6.9c-0.5,0.9-0.7,1.6-0.7,2.7c-2.9-2.7-3.6-5.6-4.5-9.3
	c0.5,0.6,0.8,1.1,1.5,1.6C373.8,87.7,373.8,87,374.2,86.2z"/>
<path class="st1" d="M365.1,73.5c0.7,2.7,1.6,9.9,0.4,12.4c-0.3,0.6-0.6,0.7-1.2,0.8c-0.4-3.4-0.6-6.7-1.3-10
	C364.2,75.7,364.7,75,365.1,73.5z"/>
<path class="st0" d="M329.2,74.8c3.9-0.2,7.6-0.3,11.5,0.2c3.5,0.4,9.5,2.8,12.6,2.3L353,77c-0.3-0.4-0.5-0.7-0.8-1.1
	c2.8,1.7,6.3,4.2,7.7,7.3c-6-4.1-13.8-7-21-7.6c-3.1-0.2-6.2,0.1-9.3-0.6L329.2,74.8z"/>
<path class="st2" d="M371.6,86.4c-1.1-6.3,0-12.4,3.8-17.8c2.9-4.1,7.5-7.4,12.5-8.1c5.5-0.8,10.9,0.4,15.4,3.8
	c4.5,3.5,7.2,8.6,7.9,14.2c0.5,4.2-0.1,8.1-2.7,11.5c-3.1,4.1-7.8,6.3-12.8,6.8c-3.9,0.4-7.6-0.6-11.4-0.7c-1.9,0-4.2,0.6-6.1,0.3
	c-0.7-0.1-1.4-0.5-2-0.9c0.1-1.1,0.2-1.7,0.7-2.7c6-2.7,8.9-1.4,14.9-0.6c3.8,0.5,7.8-0.6,10.8-3.1c2.8-2.3,4.2-4.9,4.4-8.6
	c0.3-4-0.7-7.8-3.4-10.8c-2.9-3.2-7.2-4.9-11.5-5c-0.3,0-0.5,0-0.8,0s-0.5,0-0.8,0s-0.5,0-0.8,0.1c-0.3,0-0.5,0.1-0.8,0.1
	s-0.5,0.1-0.8,0.2s-0.5,0.1-0.8,0.2s-0.5,0.1-0.8,0.2s-0.5,0.2-0.8,0.3c-0.3,0.1-0.5,0.2-0.7,0.3c-0.2,0.1-0.5,0.2-0.7,0.3
	c-0.2,0.1-0.5,0.2-0.7,0.4c-0.2,0.1-0.5,0.3-0.7,0.4s-0.5,0.3-0.7,0.5s-0.4,0.3-0.6,0.5s-0.4,0.3-0.6,0.5s-0.4,0.4-0.6,0.5
	c-4.6,4.5-6,10.5-6,16.7c-0.3,0.8-0.4,1.5-1.1,1.8C372.4,87.6,372,87.1,371.6,86.4z"/>
<path class="st2" d="M329.2,74.8c-2,0-4.4-0.7-6.1-1.6c-2.8-1.5-4.7-4-5.6-7c-1.3-4.6,0-10,2.3-14.1c0.1-0.3,0.3-0.5,0.5-0.8
	s0.3-0.5,0.5-0.7s0.3-0.5,0.5-0.7s0.4-0.5,0.6-0.7s0.4-0.4,0.6-0.7c0.2-0.2,0.4-0.4,0.6-0.6c0.2-0.2,0.4-0.4,0.7-0.6
	c0.2-0.2,0.5-0.4,0.7-0.6c0.2-0.2,0.5-0.4,0.7-0.5c0.2-0.2,0.5-0.3,0.7-0.5c0.3-0.2,0.5-0.3,0.8-0.5c0.3-0.1,0.5-0.3,0.8-0.4
	c0.3-0.1,0.5-0.3,0.8-0.4c0.3-0.1,0.6-0.2,0.8-0.3c0.3-0.1,0.6-0.2,0.8-0.3c0.3-0.1,0.6-0.2,0.9-0.2c5.8-1.6,11.8-0.8,17.1,2.2
	c10.3,6.1,14.3,16.7,17.1,27.7c-0.4,1.5-0.9,2.2-2.1,3.1c-0.5-2-1.2-3.9-1.9-5.8c-0.8-2.2-1.8-4.4-3.1-6.4
	c-4.1-8.1-9.1-13.5-17.9-16.4c-3.4-1.1-7.2-0.8-10.4,0.8c-3.2,1.6-5.8,4.5-6.8,8c-0.1,0.2-0.1,0.4-0.2,0.5c0,0.2-0.1,0.4-0.1,0.6
	c0,0.2-0.1,0.4-0.1,0.6c0,0.2,0,0.4-0.1,0.6c0,0.2,0,0.4,0,0.6c0,0.2,0,0.4,0,0.6c0,0.2,0,0.4,0,0.6c0,0.2,0,0.4,0.1,0.6
	c0,0.2,0.1,0.4,0.1,0.6c0,0.2,0.1,0.4,0.1,0.6c0,0.2,0.1,0.4,0.1,0.6c0.1,0.2,0.1,0.4,0.2,0.5c0.1,0.2,0.1,0.4,0.2,0.5
	c0.1,0.2,0.1,0.4,0.2,0.5c0.1,0.2,0.2,0.3,0.3,0.5c0.1,0.2,0.2,0.3,0.3,0.5c1.5,2.4,3.8,3.9,6.5,4.6c2.2,0.5,4.6,0.4,6.9,0.6
	c5.1,0.4,10.8,2.2,15,5.1c0.2,0.4,0.5,0.7,0.8,1.1l0.3,0.3c-3.1,0.6-9.1-1.8-12.6-2.3C336.9,74.5,333.1,74.6,329.2,74.8z"/>
<linearGradient id="SVGID_1_" gradientUnits="userSpaceOnUse" x1="385.8473" y1="322.168" x2="393.3629" y2="348.4196" gradientTransform="matrix(1 0 0 1 0 -256)">
	<stop  offset="0" style="stop-color:#15173E"/>
	<stop  offset="1" style="stop-color:#27315C"/>
</linearGradient>
<path class="st3" d="M374.2,86.2c0.1-6.2,1.4-12.3,6-16.7c0.2-0.2,0.4-0.4,0.6-0.5c0.2-0.2,0.4-0.3,0.6-0.5s0.4-0.3,0.6-0.5
	s0.4-0.3,0.7-0.5c0.2-0.1,0.5-0.3,0.7-0.4s0.5-0.3,0.7-0.4s0.5-0.2,0.7-0.3c0.2-0.1,0.5-0.2,0.7-0.3c0.3-0.1,0.5-0.2,0.8-0.3
	c0.3-0.1,0.5-0.2,0.8-0.2c0.3-0.1,0.5-0.1,0.8-0.2s0.5-0.1,0.8-0.2c0.3,0,0.5-0.1,0.8-0.1s0.5-0.1,0.8-0.1s0.5,0,0.8,0s0.5,0,0.8,0
	c4.2,0.2,8.6,1.9,11.5,5c2.7,3,3.7,6.8,3.4,10.8c-0.2,3.7-1.6,6.3-4.4,8.6c-3,2.5-6.9,3.5-10.8,3.1c-6-0.7-8.9-2-14.9,0.6
	C374.7,91.3,374.5,88.8,374.2,86.2z"/>
<path class="st4" d="M387.5,71.4c3-1.1,5.9-1,8.8,0.4c2,1,3.8,2.6,4.5,4.9c0.5,1.6,0.5,3.4-0.4,4.9s-2.6,2.4-4.3,2.7
	c-5.1,1-11.2-0.3-16.5-0.1c0.3-2.9,0.6-5.8,2.3-8.2C383.3,73.7,385.3,72.4,387.5,71.4z"/>
<path class="st0" d="M381.9,75.8c1.4-2.1,3.4-3.4,5.6-4.5c1,0.1,2,0.2,3,0.2c1.2,0,2.5,0.1,3.5,0.8c0.1,0.4,0.2,0.7-0.1,1
	c-1.3,1.6-8.7,2.7-10.7,2.7C382.8,76,382.4,75.9,381.9,75.8z"/>
<path class="st5" d="M352.3,75.8c-4.2-2.9-9.9-4.7-15-5.1c-2.3-0.2-4.6-0.1-6.9-0.6c-2.7-0.6-5-2.1-6.5-4.6
	c-0.1-0.2-0.2-0.3-0.3-0.5c-0.1-0.2-0.2-0.3-0.3-0.5c-0.1-0.2-0.2-0.3-0.2-0.5c-0.1-0.2-0.1-0.4-0.2-0.5c-0.1-0.2-0.1-0.4-0.2-0.5
	c-0.1-0.2-0.1-0.4-0.1-0.6c0-0.2-0.1-0.4-0.1-0.6c0-0.2-0.1-0.4-0.1-0.6c0-0.2,0-0.4-0.1-0.6c0-0.2,0-0.4,0-0.6c0-0.2,0-0.4,0-0.6
	c0-0.2,0-0.4,0-0.6c0-0.2,0-0.4,0.1-0.6c0-0.2,0.1-0.4,0.1-0.6c0-0.2,0.1-0.4,0.1-0.6c0-0.2,0.1-0.4,0.2-0.5c1-3.5,3.6-6.4,6.8-8
	c3.2-1.6,7-1.9,10.4-0.8c8.8,2.9,13.8,8.3,17.9,16.4c1.3,2,2.3,4.2,3.1,6.4c0.7,1.9,1.4,3.8,1.9,5.8c0.6,3.4,0.9,6.7,1.3,10
	c-1.5-1.1-2.9-2.2-4.2-3.6C358.5,80,355.1,77.6,352.3,75.8z"/>
<path class="st6" d="M346.1,57c0.9,0.8,1.7,1.6,2.5,2.4c2.2,0.8,4.5,1.9,6.4,3.3c0.8,1.4,1.6,3,2.7,4.1c0.4-0.2,0.6-0.2,0.8-0.5v0.1
	c-0.1-0.1-0.2-0.2-0.3-0.3c-0.5-0.6-1.5-1.1-1.5-1.8l0.9,0.4l0.3-0.1c1.3,2,2.3,4.2,3.1,6.4l-0.1,1.8l-0.2,0.2c-1-1.5-1.2-3.4-2.1-5
	c-0.4-0.6-0.7-0.6-1.4-0.7c0.2,0.5,0.3,1,0.3,1.5c-0.5,1.3-1.2,3.4-2.4,4.1c-1.2-0.4-2.2-2.5-2.9-3.6c-2.5-1.2-5-2.1-7.6-3
	c0.7-0.2,1.7-0.7,2.2-1.2c1.4-1.8-0.3-5.6-0.7-7.6L346.1,57z"/>
<path class="st7" d="M346.1,57c0.9,0.8,1.7,1.6,2.5,2.4c1.7,2,5.4,6,5,8.8c-0.1,0.5-0.1,0.4-0.5,0.8l-0.8,0.1c-2.5-1.2-5-2.1-7.6-3
	c0.7-0.2,1.7-0.7,2.2-1.2c1.4-1.8-0.3-5.6-0.7-7.6L346.1,57z"/>
<path class="st4" d="M330.9,64.1c-0.1-0.1-0.2-0.1-0.3-0.2c-1.3-1.1-2.4-2.6-2.5-4.4c-0.1-1.4,0.6-2.7,1.5-3.7
	c1.8-2,4.7-2.9,7.3-2.9c3.6,0,6.7,1.7,9.2,4.2v0.3c0.3,2,2.1,5.8,0.7,7.6c-0.5,0.6-1.5,1-2.2,1.2C340.2,64.7,335.5,64.7,330.9,64.1z
	"/>
<path class="st2" d="M193.1,42.5c5.1-0.3,11.8,0.5,17,1.1c2.5,0.3,5.2,0.9,7.8,0.9c1.7,0,3.6-0.7,5.3-1.1c4.7-1.1,9.4-1.4,14.2-0.3
	c3,0.6,5.8,1.7,8.5,2.9c6.1,2.7,9.4,5.6,13,11.2c6.1,2.9,12.8,5,19.2,8c10.8,5.2,23.9,14.3,32.7,22.3c3.8,3.5,7.3,7.5,11,11.1
	c1.3-2,2.6-4.2,4.2-5.9c2.3-2.4,5.2-3.3,8.5-3.3c7.6,0,10.4,7.5,15,12l0.3,0.3c7.2,1.3,14.5,1.6,21.7,2.6c9.4,1.3,20.4,4.8,28.6,9.4
	c4.9,2.7,9.4,6.1,13.9,9.4c3.9-3.2,7.8-6.2,12.2-8.6c9.5-5.3,21.6-8.4,32.5-8.5c5.7-0.1,12.1,0.4,17.6-1.7
	c7.6-2.9,11.6-11.8,19.4-13.9c2.8-0.7,6.5-0.5,8.9,1.1c3.4,2.2,5,6.4,5.8,10.2c1.2,5.8,1.6,12,1.6,17.9c0,3.1,0,6.3-0.3,9.4
	c-1.3,13.9-6.2,28.2-13.9,39.8c-9,13.6-23.4,25.6-38.8,31c-4.9,1.7-9.8,2.6-14.8,3.6c0.6,9.2,0.4,18.5,0.4,27.7
	c0,7.8,0.2,15.6-0.1,23.4c-0.1,2.8-0.6,5.6-0.7,8.4c-0.1,3.6,0.1,7.3-0.2,10.9c-0.9,8.3-3.1,19-5.1,27.1
	c-8.6,33.3-24.2,65.6-46.9,91.6c-5,5.7-10.4,10.9-15.9,16.1c-15.9,15.1-29.8,25.5-48.7,36.7c-17.9,10.3-38.1,17.2-58.4,20.8
	c-5.4,1-10.9,2-16.4,2.6c-3.3,0.4-6.7,0.2-10,0.4c-11,0.7-22.6,0.9-33.6-0.1c-23.7-2.1-48.6-9.1-69.7-20c-9.2-4.7-18-10.7-26.4-16.6
	c-32.2-22.5-58.5-55.6-71.6-92.8C36.7,328,34,315.5,32,303.2c-1.1-6.8-1.3-13.4-1.4-20.3c-0.1-4.6,0.2-9.5-0.7-14
	c0-0.1,0-0.2-0.1-0.4c-1.9-1.2-3.6-2.5-5.2-4c-10.9-10.6-13.2-28.2-13.8-42.7c-0.2-4.3-2.5-5.3-5.4-8C1.8,210.4,0.1,207,0,202
	c0-9.2-1-19.1,6-26.3c8.4-8.7,24.3-9,35.5-9.1c-1.9-1.5-3.9-2.9-5.6-4.6c-5.1-4.9-7.6-10.5-7.7-17.6c-0.1-8.2,2.8-14.2,8.5-20
	C49.9,111,76.2,106,94.5,105.8c1.3-3.2,1.9-6.6,2.9-9.9c3.1-9.4,8.3-20,15-27.2c3.8-4.1,8-7.8,12.7-10.8c12.9-8.1,32.9-13.4,48-14.8
	C179.8,42.4,186.5,42.8,193.1,42.5z"/>
<path class="st5" d="M232.2,49.6c5.8-0.2,10.5,1,15.2,4.4c3.4,2.4,5.3,4.8,6,9c6.5,3.4,14.3,6.1,21.1,9.3
	c14.5,6.8,36.9,23.5,46.3,36.6c3.1,4.3,5.3,8.9,7.1,13.9c0-3.2,0-6.5,0.3-9.7c0.3-3.8,0.7-12.8,3.8-15.2c3.7-2.8,8.6,3.1,11.1,5.4
	c1.6,1.4,3.3,2.7,5.2,3.8c9.7,5.6,19.3,4.6,29.7,6.5c13.1,2.4,28.3,10,36,21.1c2.9-2.9,5.7-5.9,9-8.4c10.4-8,23.9-11.6,36.8-12.4
	c6.1-0.4,12.5-0.4,18.2-2.7c1.8-0.7,3.7-1.5,5.3-2.6c3.5-2.3,12.9-10.7,16.2-11.1c0.9-0.1,1.6,0.1,2.3,0.7c1.5,1.5,1.5,4.8,1.6,6.8
	c1,26.9-1.4,48.8-20.9,69.6c-8.5,9-21,16.6-33.1,19.4c-4.5,1-9.1,1.4-13.7,1.5c1.4,45.8,2.8,87.9-14.5,131.3c-0.5,1.4-1.1,2.7-1.6,4
	c-0.6,1.3-1.1,2.7-1.7,4s-1.2,2.7-1.8,4c-0.6,1.3-1.2,2.6-1.9,3.9c-0.6,1.3-1.3,2.6-2,3.9s-1.3,2.6-2,3.9s-1.4,2.6-2.1,3.8
	c-0.7,1.3-1.4,2.5-2.2,3.8c-0.7,1.3-1.5,2.5-2.3,3.7s-1.5,2.5-2.3,3.7s-1.6,2.4-2.4,3.6s-1.6,2.4-2.5,3.6c-0.8,1.2-1.7,2.4-2.6,3.5
	c-0.9,1.2-1.7,2.3-2.6,3.5s-1.8,2.3-2.7,3.4c-0.9,1.1-1.8,2.3-2.8,3.4c-0.9,1.1-1.9,2.2-2.8,3.3c-1,1.1-1.9,2.2-2.9,3.3
	c-1,1.1-2,2.1-3,3.2s-2,2.1-3,3.1s-2,2.1-3.1,3.1c-1,1-2.1,2-3.1,3c-1.1,1-2.1,2-3.2,3s-2.2,1.9-3.3,2.9c-1.1,1-2.2,1.9-3.3,2.8
	c-1.1,0.9-2.2,1.9-3.4,2.8c-1.1,0.9-2.3,1.8-3.4,2.7c-1.2,0.9-2.3,1.8-3.5,2.6c-1.2,0.9-2.3,1.7-3.5,2.6c-1.2,0.8-2.4,1.7-3.6,2.5
	s-2.4,1.6-3.6,2.4s-2.4,1.6-3.7,2.3c-10.6,6.5-21.8,11.5-33.2,16.5c-3.8,1.7-7.9,2.9-12,4.1c-2.6,0.8-5.2,1.5-7.8,2.2
	c-2.6,0.7-5.2,1.3-7.9,1.9c-2.6,0.6-5.3,1.1-7.9,1.6s-5.3,0.9-8,1.3s-5.3,0.7-8,1s-5.4,0.5-8,0.7c-2.7,0.2-5.4,0.3-8.1,0.4
	c-2.7,0.1-5.4,0.1-8.1,0.1c-26.5-0.4-58.9-8.3-82.5-20.4c-9.1-4.7-17.4-10.3-25.7-16.3c-8.5-6.1-16.8-12.3-24.1-19.8
	c-5.9-6.1-11.6-12.2-16.8-18.8c-0.9-1.2-1.9-2.5-2.8-3.7s-1.8-2.5-2.7-3.8c-0.9-1.3-1.7-2.6-2.6-3.9c-0.8-1.3-1.7-2.6-2.5-3.9
	c-0.8-1.3-1.6-2.6-2.4-4c-0.8-1.3-1.5-2.7-2.3-4.1c-0.7-1.4-1.5-2.7-2.2-4.1s-1.4-2.8-2.1-4.2c-0.7-1.4-1.3-2.8-1.9-4.2
	c-0.6-1.4-1.2-2.8-1.8-4.3c-0.6-1.4-1.2-2.9-1.7-4.3c-0.6-1.4-1.1-2.9-1.6-4.4s-1-2.9-1.5-4.4s-0.9-3-1.4-4.4
	c-0.4-1.5-0.8-3-1.2-4.5s-0.8-3-1.1-4.5c-1.9-8.1-3.6-15.9-4.4-24.2c-1-10.1-1-20.2-0.8-30.4c-2-1.3-4-2.6-5.8-4.1
	c-13.5-11.5-13.2-32.3-14.5-48.6c-2.2-1.2-4.8-2.3-6.8-4c-1.9-1.6-2.7-3.4-2.9-5.8c-0.4-4.4-0.7-18.3,2.3-21.5c1.8-2,4.6-3.2,7.1-4
	c4.9-1.4,10.4-1.7,15.4-2.3c8.9-1,17.6-2.3,26.6-2.5c1.7-1.5,3.1-3.3,4.5-5c-8-1.4-15.8-4.3-21.8-10c-3.7-3.6-6-8.1-6.1-13.3
	c0-5.8,2.6-10.9,6.7-14.9c13.5-13.4,39.8-16,58-15.8c1.4-4.2,2.3-8.6,3.5-12.8c3.8-13.2,10-25.6,21.3-34c6-4.4,12.7-7.3,19.7-9.6
	c24.4-8.2,48.5-7.8,73.6-4.1C223.5,50.4,227.2,50,232.2,49.6z"/>
<path class="st8" d="M134.8,308.1c2-0.4,6.5-1.4,8.2-0.5c-0.9,1.1-2.2,1.5-3.5,1.9l-0.8,0.2C137.8,308.6,136.1,308.4,134.8,308.1z"
	/>
<path class="st9" d="M139.5,309.5c1.3-0.5,2.6-0.9,3.5-1.9c0.1,0.9,0.1,1.5,0.6,2.2c1.1,0.4,2,0.1,3.2-0.1c-2,1-4.2,2-6.1,3.2
	C140,311.8,139.6,310.8,139.5,309.5z"/>
<path class="st10" d="M230.2,56h0.4c3.3-0.2,9.9,0.6,12.3,3c0.4,0.4,0.3,0.5,0.4,1c-4.3-1.4-8.8-2.3-13.1-3.6L230.2,56z"/>
<path class="st11" d="M273.1,161.1c0.6-1.4,1.2-2.8,1.9-4.1c0.3,1.1,0.4,2.1,1.5,2.8c0.6,0.4,1.3,0.7,2,1c-0.3,0.5-0.3,2.2-0.4,2.9
	C276.7,163.9,274.3,161.9,273.1,161.1z"/>
<path class="st12" d="M279.4,144.9c0.4,1,0.8,1.8,1.8,2.3c0.8,0.4,1.7,0.4,2.6,0.4c-1.1,1.9-1.3,2.9-1,5c-1.5-1.5-3-2.2-4.9-2.9
	C278.5,148.1,279,146.6,279.4,144.9z"/>
<path class="st13" d="M276.8,204.3c0,0.2,0.1,0.3,0.1,0.5c0.1,0.7-0.1,1.2-0.3,1.9c-0.3,0.8-0.4,1.1-0.1,1.9
	c0.5,0.2,0.9,0.4,1.4,0.5c0.8,0.3,1,0.5,1.5,1.2c-0.7-0.2-1.4-0.5-2.1-0.7l-0.2,0.2l0.5,0.6c-0.1,0.1-0.2,0.2-0.3,0.3
	c-0.6,0.5-1.3,0.9-2,1.3l0.1,0.6l1,0.8l-6.4-1.6c1-0.4,2-0.8,2.9-1.2C275.4,209.2,276,206.8,276.8,204.3z"/>
<path class="st10" d="M319.8,126c0.1,0.1,0.3,0.2,0.4,0.4c2.3,2.3,4.3,7.5,4.3,10.7c-1.6-1.4-3.2-2.9-5-3.9
	C319.5,130.8,319.6,128.4,319.8,126z"/>
<path class="st14" d="M304.6,180.8c2.6,0.3,13.1,8.5,15.6,10.6l-6.3-1.2l-11.9-2.8c0.6-0.3,1.5,0,2.2,0.1c1.4-1,2.8-3.1,4-4.4
	C307,182.5,305.8,181.6,304.6,180.8z"/>
<path class="st15" d="M319.3,140.4c2,1.4,4.1,2.8,5.9,4.4c0.3,2.4,0.5,4.8,0,7.2l-0.4,0.2c-2.3-1.8-4.4-3-7.1-4.2
	C318.4,145.6,318.8,143,319.3,140.4z"/>
<path class="st15" d="M277.9,149.7c1.9,0.7,3.4,1.5,4.9,2.9c0.5,1.8,0.5,4.5-0.4,6.2c-0.5,1-1.1,1.5-2.2,1.8
	c-0.5,0.1-1.1,0.2-1.7,0.3c-0.7-0.3-1.4-0.6-2-1c-1-0.6-1.2-1.7-1.5-2.8C276.1,154.6,277,152.2,277.9,149.7z"/>
<path class="st15" d="M305.3,118.3c3.1,1.4,6.5,3.7,9.2,5.8c0.1,2.3-0.1,4.7-0.1,7.1c-2.9-2-6-3.5-9.2-4.9
	C305.5,123.6,305.3,120.9,305.3,118.3z"/>
<path class="st11" d="M302.9,101.7c7.7,4.2,11,11.1,15.5,18c-4.3-3.6-8.9-6.1-13.7-9.1c-0.2-1.9-0.4-6.6-1.4-7.9L302.9,101.7z"/>
<path class="st15" d="M302.2,146.8c3.1,1.8,6.3,3.6,9.4,5.4c-0.7,2.4-1.3,4.9-1.5,7.4c-2.8-2.4-5.9-3.8-9.2-5.4
	C301.5,151.8,301.9,149.3,302.2,146.8z"/>
<path class="st15" d="M304.3,132.7c3.2,1.9,6.5,3.3,9.9,4.7c-0.1,2.6-0.6,5.2-1.1,7.8c-3.4-1.5-6.7-3-9.8-5.1
	C303.5,137.7,303.9,135.2,304.3,132.7z"/>
<path class="st2" d="M48.2,306.4c2.4,1.8,4.7,3.9,7,5.9c-0.2,0.5-0.3,0.8-0.2,1.3c-0.4,4.3,1.4,13.9,0.5,17.2l-0.7,0.6
	c-1.5-4-2.8-8.1-3.9-12.3C49.8,314.9,48.9,310.7,48.2,306.4z"/>
<path class="st15" d="M316.1,154.4c3.4,1.5,6.7,2.8,9.5,5.3c0,2.6,0,5.3-0.7,7.9c-3.3-1.9-6.6-3.8-10-5.6
	C315.3,159.4,315.7,156.9,316.1,154.4z"/>
<path class="st15" d="M299.4,160.6c3.1,1.8,6.4,3.4,9.7,5c-0.5,2.9-0.9,5.8-1.7,8.7c-3.2-2.1-6.4-4.3-9.8-6
	C298.1,165.7,298.8,163.2,299.4,160.6z"/>
<path class="st15" d="M284.1,154c3.7,1.9,8.2,3.1,11.6,5.5c-0.5,2.4-1.1,4.7-1.7,7.1c-3.6-2.3-7.8-3.9-11.5-6
	C283,158.4,283.5,156.2,284.1,154z"/>
<path class="st15" d="M287.4,140.4c3.2,0.1,8.1,2.8,10.8,4.5c-0.5,2.6-1,5.2-1.5,7.8c-3.8-1.7-7.5-3.8-11-5.9
	C287,145.4,286.6,142.2,287.4,140.4z"/>
<path class="st2" d="M110.3,324.1c-0.3-0.1-0.4-0.3-0.7-0.5l0.1-0.5c6.6-7.2,15.7-12.4,25-14.9c1.3,0.3,3,0.5,3.9,1.6
	c-4.7,1.8-9.8,3.4-14.2,5.9C120,318,115.5,323.8,110.3,324.1z"/>
<path class="st2" d="M47.1,295.9c-0.7-6.2-1.7-20.2-0.9-26.2c0.7-0.4,1.4-0.1,2.1-0.1c0.1,2.2,0.3,4.5,0.4,6.7l1.8,1.6
	c0.1,2.8,0.7,20,0.1,21.4C49.6,298.2,48.3,297,47.1,295.9z"/>
<path class="st15" d="M314.4,167.9c3.2,2.6,6.8,4.7,10.3,6.8c-0.6,3.1-1.4,6.1-2.2,9.2c-0.1,0-8.7-5.4-10-6.1
	C313.5,174.5,313.9,171.2,314.4,167.9z"/>
<linearGradient id="SVGID_00000138564689789610269500000001446436400534966944_" gradientUnits="userSpaceOnUse" x1="300.8557" y1="470.5515" x2="299.5928" y2="478.3085" gradientTransform="matrix(1 0 0 1 0 -256)">
	<stop  offset="0" style="stop-color:#E89F2B"/>
	<stop  offset="1" style="stop-color:#D9883B"/>
</linearGradient>
<path style="fill:url(#SVGID_00000138564689789610269500000001446436400534966944_);" d="M277.6,210.5l-0.5-0.6l0.2-0.2
	c0.7,0.2,1.4,0.5,2.1,0.7c6.8,2.8,13.9,4,20.7,6.4c3.8,0.9,7.4,2.3,11.1,3.6c0.7,0.2,1.3,0.4,2,0.6c2.7,0.7,4.9,1.1,7.7,0.7
	c1.5,0.5,3,0.7,4.5,1.1c-1.5,1.3-3.1,2.6-5,3.4c-11.1-1.9-21.9-5.9-32.6-9.3c-3.6-1.2-7.9-2-11.3-3.6l-1-0.8l-0.1-0.6
	c0.7-0.4,1.4-0.7,2-1.3C277.4,210.7,277.5,210.6,277.6,210.5z"/>
<path class="st17" d="M277.6,210.5l-0.5-0.6l0.2-0.2c0.7,0.2,1.4,0.5,2.1,0.7c6.8,2.8,13.9,4,20.7,6.4c-0.3,0.1-0.4,0.2-0.6,0.3
	C296,218.2,281.1,212.4,277.6,210.5z"/>
<path class="st2" d="M93.7,154.3c3.6,1.2,6.9,3,10.6,4c-2.8,2.1-6.6,3.1-9.5,5.1c-2.2,1.5-4.3,3.1-6.3,4.9c-1.7,1.5-3.3,3.2-5.2,4.5
	c-3.8,0-7.7-0.1-11.5-0.4C77.4,165.2,85.7,158.9,93.7,154.3z"/>
<path class="st12" d="M219.1,163.7c4.7,0.9,9.4,2,14.1,2.5c5.4,0.6,26.9,1.3,31.1-0.3l0.4-0.5c1.2,0.6,2.7,1,3.7,2l0.2,0.7
	c-1.2,1.7-13.2,3.8-15.9,4.2c-10.2,1.8-19.6-0.5-29.5-2.6c-2.1-0.5-5.4-0.7-7.2-1.8l0.2-0.2c1-0.2,1.9,0.1,2.7,0.6
	c0.5,0.3,0.7,0.4,1.3,0.4c0.2-0.3,0.2-0.3,0.3-0.7c0.2-0.8-0.1-2.6-0.6-3.2c-0.2-0.2-0.5-0.5-0.7-0.7L219.1,163.7z"/>
<path class="st18" d="M431.8,185.9c2.9-1.5,6.8-1.8,10-2.6c7.4-1.9,15.5-5,22.1-8.9c12.6-7.7,21.1-19.8,26-33.6c1-2.8,2-8.1,4.2-10
	l-0.2,0.7l0.5,0.4c-2.7,18.9-11.4,33.5-26.8,44.9c-7.8,5.8-22.2,12-32.1,10.5C434,187.1,433,186.6,431.8,185.9z"/>
<path class="st19" d="M63.7,352.6c0.1,0.1,0.1,0.1,0.2,0.2c2.6,2.1,4.5,5,7.1,7.1c5.5,4.7,12.1,8.9,18.1,12.9l0.3-0.4
	c0.6,1.3,1.1,2.8,1.9,3.9c1.3,3.2,1.7,6.6,3,9.7c3.1,7.7,8.1,15,12.4,22.1c-4.9-4.8-10-9.5-14.6-14.5
	C82.6,383.6,68.5,365.6,63.7,352.6z"/>
<path class="st19" d="M310.1,395.1c3.3,1.1,6.5,2.1,9.9,2.6c14.4,1.9,36.9-1.2,50-7.6c1.6-0.8,3.1-1.6,4.6-2.5
	c-4.3,5.3-12.4,14.3-18.8,16.5c-3.9,1.3-9.6,1.9-13.8,2.3c-13.6,1.4-25.2-1.6-37.7-6.5l-1.6-0.5c2.2-0.4,3.9-2.8,6.1-3.6
	C309.2,395.6,309.6,395.4,310.1,395.1z"/>
<path class="st2" d="M413.4,159.9c0.4-2.5,0.7-5,1.2-7.5c4.1-18.5,21.2-28,39-30.4c7.9-1,15.8-0.5,23.5-2.7
	c4.8-1.4,9.8-3.6,13.9-6.6c1.3-1,2.4-2.2,3.7-3.1l0.3,0.3c-1.7,3.8-4.2,6.5-7,9.5c-10.1,9.6-24.1,7.4-36.8,9.8
	c-5.6,1.1-11.4,3.4-16.5,6.1c-0.7,0.4-1.4,0.7-2,1.1c-0.7,0.4-1.3,0.8-2,1.2c-0.6,0.4-1.3,0.9-1.9,1.4s-1.2,1-1.8,1.5
	c-0.6,0.5-1.1,1-1.7,1.6c-0.6,0.5-1.1,1.1-1.6,1.7c-0.5,0.6-1,1.2-1.5,1.8s-0.9,1.2-1.4,1.9C419.1,150.3,415.8,158.6,413.4,159.9z"
	/>
<path class="st20" d="M323.6,203.5c2.7,1,5.6,1.9,8.2,3.2c5.2,1.4,10.7,4.1,14.6,7.9c0.5,0.5,5.2,6.1,5.2,6.1c0.2,0,0.8-0.3,1-0.4
	c2.1,3.8,7.9,18.5,6.7,22.6c-0.7,1-1.4,1.4-2.6,1.6c-1.8,0.3-3.5,0-5.3-0.3c-4.7-8.5-7.8-23.9-17.3-28.2c-3.4,1.5-5.9,4.3-8.7,6.8
	c-1.5-0.4-3-0.7-4.5-1.1c-2.8,0.4-5-0.1-7.7-0.7c-0.6-0.2-1.3-0.4-2-0.6c1.2-0.7,2.5-0.7,3.8-1.2l0.3-0.9h0.2c0.6,0,1.3,0,1.9,0
	c1.8-0.1,4-1,5.2-2.4c1.8-2.2,1.5-4.4,1.3-7C324.8,206.9,323.6,205.6,323.6,203.5z"/>
<path class="st21" d="M323.6,203.5c2.7,1,5.6,1.9,8.2,3.2c-2.1-0.1-3.7-1.3-5.6-1.7c-0.6-0.1-0.6-0.1-1.1,0.3c1,2.7,2.5,5.6,1.2,8.5
	c-1,2.3-3.3,3.7-3.5,6.1c0.5-0.2,7.4-6.8,7.7-7.4c0.4-0.8,0.7-1.7,1-2.5c0.2,1,0.3,1.5-0.3,2.3c-1.8,2.6-7.5,7.8-10.2,9.5
	c-2.8,0.4-5-0.1-7.7-0.7c-0.6-0.2-1.3-0.4-2-0.6c1.2-0.7,2.5-0.7,3.8-1.2l0.3-0.9h0.2c0.6,0,1.3,0,1.9,0c1.8-0.1,4-1,5.2-2.4
	c1.8-2.2,1.5-4.4,1.3-7C324.8,206.9,323.6,205.6,323.6,203.5z"/>
<path class="st2" d="M44.8,147.9c-0.8-2.9-0.5-5.6,0.6-8.4c2.5-6.4,7.7-9.6,13.7-12.3c21.3-9.4,45.2-6.9,67.5-4.1
	c7,0.9,14.1,1.4,21,2.5c5.8,1,11.6,2.4,17.3,3.8c16.8,3.9,32,8.3,48.2,14.5c-0.2,0.3-0.4,0.4-0.7,0.6c-4.5,0.8-10.2-1.3-14.6-2.4
	c-5.9-2.3-12.7-3.3-18.9-4.8c-7.2-1.8-14.2-4.2-21.5-5.8c-0.2,0-0.3,0.1-0.5,0.1c-0.7,0.1-1.4,0-2.1-0.2c0,0.7,0.2,1,0.5,1.6
	c-0.1,0.6-0.1,1.2-0.5,1.7l-0.4,0.1c0.1,0,0.2,0.1,0.2,0.1c0.6,0.3,1,0.8,1.4,1.2c-5-2.3-9.8-4.3-15-6c-3.7-1.2-7.5-2.4-11.3-3.2
	c-20.9-4.7-53.3-6.3-72.8,3.8c-4.8,2.5-9.9,7.6-11.4,12.9C45.3,144.9,45.5,146.8,44.8,147.9z"/>
<path class="st22" d="M141.1,130.2c4.6-1.5,11.8-0.5,16.3,1.3c-0.2,0-0.3,0.1-0.5,0.1c-0.7,0.1-1.4,0-2.1-0.2c0,0.7,0.2,1,0.5,1.6
	c-0.1,0.6-0.1,1.2-0.5,1.7l-0.4,0.1c0.1,0,0.2,0.1,0.2,0.1c0.6,0.3,1,0.8,1.4,1.2C151.1,133.8,146.3,131.8,141.1,130.2z"/>
<path class="st15" d="M282.1,86.3c6.8,3.3,9.6,6.1,15.2,10.8c1.8,1.5,4,2.9,5.5,4.6l0.5,1c-0.2,2.3-0.3,4.6-0.3,6.9
	c-3.9-2.1-8.3-4.6-12.4-6.1c-0.5,2.4-0.9,4.5,0,6.8c4.1,2.1,8.2,4.2,12.3,6.5c0,2.8-0.5,5.3-1.3,8c-4.1-1.9-7.6-4-11.3-6.7
	c-1.5,2.2-2.1,4.2-2.3,6.8c4,2.3,8.4,3.8,12.4,6.1c-0.2,2.7-0.9,5.3-1.4,7.9c-3.7-2.8-8-4.7-12.4-5.9c0,0.1-0.1,0.3-0.1,0.4
	c-0.1,0.5-0.4,1-0.6,1.5c-0.4,0.9-0.8,1.9-0.5,2.9s1.2,1.9,2,2.5c-0.8,1.9-0.4,5.1-1.7,6.4c-0.8,0.2-1.2,0.3-1.8,0.8
	c-0.9,0-1.8,0-2.6-0.4c-1-0.5-1.5-1.3-1.8-2.3c1.3-4.8,2.5-9.4,3.3-14.3c2.9-11.8,4.4-25.3,1.7-37.3
	C283.8,90.9,282.9,88.6,282.1,86.3z"/>
<linearGradient id="SVGID_00000103261284995426530350000006619918402960876206_" gradientUnits="userSpaceOnUse" x1="244.271" y1="396.0493" x2="208.2751" y2="423.247" gradientTransform="matrix(1 0 0 1 0 -256)">
	<stop  offset="0" style="stop-color:#D5344B"/>
	<stop  offset="1" style="stop-color:#FF6957"/>
</linearGradient>
<path style="fill:url(#SVGID_00000103261284995426530350000006619918402960876206_);" d="M193.4,146.1c-0.1,0-0.1-0.1-0.2-0.1
	c-0.1-0.1-0.2-0.2-0.3-0.2c-0.6-0.4-1.2-0.8-1.6-1.3c-1.1-1.2-2.1-2.3-2.1-4l0.6-0.1l-0.3-0.1c1.9,0.6,6,2.2,8,1.9
	c0.1,0,0.3,0,0.4-0.1c4.4,1.1,10.1,3.2,14.6,2.4c0.3-0.2,0.5-0.4,0.7-0.6c5.7,0.5,19.5,7.2,24.9,9.6c9,3.9,17.9,7.9,26.7,12
	l-0.4,0.5c-4.2,1.6-25.6,0.9-31.1,0.3c-4.7-0.5-9.4-1.6-14.1-2.5c-2.2-0.9-4.5-1.5-6.7-2.2c-0.2-0.8,0-1.4,0-2.2
	c0-2.3-2.5-5.6-4.1-7.3C204.3,147.7,199.2,146.4,193.4,146.1z"/>
<path class="st1" d="M50.6,278c3.3,1,7.8,2.9,11.2,2.9c0.5,2.3,1,4.7,3.2,6c2.1,1.3,5.6,1.3,8,1.8c0.7,3,1.4,5.9,2.6,8.8
	c5.3,11.6,17,20.6,27,28c-15.7-3.8-30.6-9.5-43.8-18.9c-2.8-2-6.1-4.2-8.2-7v-0.1C51.2,298,50.7,280.7,50.6,278z"/>
<path class="st2" d="M55.2,312.3c6,4.3,12.3,7.6,19,10.8c2,1,4.2,1.8,6.2,2.8c0,19.1,3.7,28.9,9,46.6l-0.3,0.4
	c-6-4.1-12.6-8.3-18.1-12.9c-2.6-2.2-4.5-5-7.1-7.1c-0.1-0.1-0.1-0.1-0.2-0.2c-2.6-4.4-4.3-9.1-6.1-13.9c-1-2.4-2-4.8-2.7-7.3
	l0.7-0.6c0.9-3.2-0.9-12.8-0.5-17.2C54.9,313.1,55,312.8,55.2,312.3z"/>
<path class="st24" d="M55,313.6c0.3,0.4,0.5,0.8,0.6,1.3c0.5,2.7,2.3,20.8,2,22.9c-0.1,0.5-0.1,0.4-0.1,0.8c-1-2.4-2-4.8-2.7-7.3
	l0.7-0.6C56.4,327.6,54.7,318,55,313.6z"/>
<path class="st2" d="M15.3,193.6c0-2.4-0.7-6.8,1.1-8.5c1.8-1.8,9.4-2.4,12.1-2.7c25-3.5,50.9-5.1,76-1.7c6.5,0.9,13.5,1.6,18.5,6.3
	c1.2,1.1,2.8,3.4,4.3,4c1.2,0.5,21.2,0.3,24.2,0.1c2.2-2.4,4.3-5.2,7.2-6.9c6.9-4.1,29.2-4.8,37.8-5.1c4.7-0.2,9.3-0.2,14-0.2
	s9.3,0.2,13.9,0.5c4.6,0.3,9.3,0.6,13.9,1.1c4.6,0.5,9.2,1,13.9,1.7c5.4,0.8,13.7,1.2,17.9,4.9c0.5,0.5,0.9,1,1.3,1.6
	c0,1.8,0.1,3.6-0.1,5.4H271c-0.4-0.5-0.3-0.3-0.5-0.8c-0.5-1.1-0.9-2.2-1.8-3.1c-4.5-4.9-39.4-6.7-47.6-7c-12.6-0.5-49.6-0.5-60.1,4
	c-3,1.3-4.5,3.5-6.8,5.5c-0.9,0.8-1.9,1.4-3.1,1.8c-5.1,1.5-19,0.7-24.7,0.3c-3.3-2.2-5.3-6.2-9.2-7.6c-15-5.3-56.6-4.3-73.7-2.8
	c-3.6,0.3-7.2,1-10.7,1.5c-4.8,0.7-9.7,1-14.2,3C17.6,190.1,17,192.6,15.3,193.6z"/>
<path class="st25" d="M300.7,388c0-3.9-0.1-7.7-1-11.6c-2.7-10.4-9.6-19.6-7.7-30.9c0,7.3,4.3,14.5,9.4,19.5
	c10.9,10.9,29.8,18.6,45.2,18.5c11.4-0.1,22.7-3.3,32.7-8.3c3.3-1.6,6.5-3.3,9-6c0.1-0.1,0.3-0.3,0.4-0.4l0.6,0.4
	c-0.1,1.5-8.1,9.5-9.8,11c-7.3,6.6-23.7,10.8-33.3,12.2c-6.8,1-15.8,1.4-22.6,1c-4.7-0.3-9.4-1.7-14.1-2.2c-2.7-0.3-5.9,0.5-8.5-0.3
	c-3-0.8-5.9-2.6-8.8-3.7c-0.3-0.3-0.5-0.6-0.8-0.9c-1.2-1.6-7.1-2.9-9.4-5.2c3,1.2,16.8,7.6,18.6,7.5L300.7,388z"/>
<path class="st19" d="M100.7,381c3.1,1.9,27.3,15.4,30.1,14.9c0.2,0,0.4-0.1,0.5-0.2c0.4,0.6,1,1.8,1.6,2.3
	c7.5,16.9,26,37.5,41.4,47.8c-16.8-4.9-36.1-13.1-49.1-25.1c-1.2-5.7-6.9-10.3-10.5-14.7C108.9,399.1,102.5,390.2,100.7,381z"/>
<path class="st2" d="M277.9,190.8c0-0.9-0.1-1.6,0.3-2.5c0.6-0.3,1-0.4,1.7-0.3c1.4,0.2,2.8,0.9,4.3,1.3c1.7,0.5,3.5,0.7,5.2,1.2
	c3.6,1,7,2.2,10.6,3.2c8.1,2.3,16.5,4,24.4,6.7c13.6,4.7,21.1,6.8,28.2,19.9c-0.2,0.1-0.8,0.4-1,0.4c0,0-4.7-5.6-5.2-6.1
	c-3.8-3.8-9.4-6.5-14.6-7.9c-2.6-1.3-5.5-2.2-8.2-3.2c0.1,2.1,1.3,3.4,0.3,5.5c0.3,2.6,0.5,4.9-1.3,7c-1.2,1.4-3.3,2.3-5.2,2.4
	c-0.6,0-1.3,0-1.9,0h-0.2l-0.3,0.9c-1.3,0.5-2.6,0.5-3.8,1.2c-3.7-1.3-7.3-2.7-11.1-3.6c-6.9-2.5-13.9-3.7-20.7-6.4
	c-0.5-0.7-0.7-0.9-1.5-1.2c-0.5-0.2-0.9-0.4-1.4-0.5c-0.3-0.8-0.1-1.1,0.1-1.9c0.2-0.7,0.4-1.2,0.3-1.9c0-0.2-0.1-0.3-0.1-0.5
	C277.3,199.8,277.6,195.3,277.9,190.8z"/>
<path class="st26" d="M285.5,193.8c6-0.1,20.5,4.7,26.7,6.6c3.7,0.9,7.9,1.6,11.3,3.2c0.1,2.1,1.3,3.4,0.3,5.5
	c-0.8-2.3-2.2-3.7-4.4-4.7c-2.1-1-4.5-1.5-6.9-2c0.1,4.5-0.1,9.7-1.3,14.2c-0.7-1.2-0.5-2.6-0.3-3.9v0.5c0.8-3.7,1.2-6.9,0.8-10.7
	c-1.2,3.7-0.6,7.3-2.8,10.7l-0.4-0.1c1.7-3.7,1.9-7.4,2.2-11.4c-1.2-0.4-2.3-0.6-3.6-0.8c-0.7-0.8-1.1-1.5-2.2-1.7
	c-0.6,0.4-0.9,0.5-1.1,1.2c-0.1,0.4,0,0.8-0.1,1.2c0,0.1-0.1,0.1-0.1,0.2c-0.1-0.5-0.2-0.9-0.3-1.3c-0.8-0.8-1.9-0.8-2.9-1
	c-0.5-0.3-0.6-0.3-1.2-0.4l-0.4,0.4c-0.9-1.1-3.1-1.2-4.5-1.5c-0.1,1.1-0.2,2.2-0.4,3.4c-0.2,1.1-0.5,2.2-0.8,3.3
	c-0.5-1.9-1-3.8-2-5.5c-0.5-0.9-1.1-1.6-2.1-1.9c-0.9,2.1-1.8,4.1-2.9,6.1c0-2.9,0.2-5.9-0.4-8.8l-0.9-0.1L285.5,193.8z"/>
<path class="st27" d="M303.9,201.7c0-0.1,0.1-0.1,0.1-0.2c0.1-0.4,0-0.8,0.1-1.2c0.2-0.7,0.5-0.8,1.1-1.2c1.1,0.2,1.5,0.9,2.2,1.7
	c1.2,0.2,2.4,0.4,3.6,0.8c-0.2,4-0.4,7.7-2.2,11.4c-0.9,0.7-1.7,1.5-2.8,1.9c-1.1,0.4-2.2,0.5-3.2,0c-2-1.1-2.8-3.6-3.4-5.6
	c-0.2-3.2,0.8-6.7,1.5-9.9c1,0.2,2.1,0.2,2.9,1C303.8,200.8,303.9,201.2,303.9,201.7z"/>
<path class="st28" d="M303.9,201.7c0-0.1,0.1-0.1,0.1-0.2c0.1-0.4,0-0.8,0.1-1.2c0.2-0.7,0.5-0.8,1.1-1.2c1.1,0.2,1.5,0.9,2.2,1.7
	c-0.2,2.2,0,7.9-1.5,9.5c-0.5,0.5-0.9,0.4-1.6,0.4c-0.7-0.5-1-0.9-1.1-1.8C302.9,206.6,303.8,204,303.9,201.7z"/>
<path class="st27" d="M312.7,202.3c2.3,0.5,4.7,0.9,6.9,2c2.2,1.1,3.6,2.4,4.4,4.7c0.3,2.6,0.5,4.9-1.3,7c-1.2,1.4-3.3,2.3-5.2,2.4
	c-0.6,0-1.3,0-1.9,0h-0.2c-1.3-0.4-2.7-0.7-4-1.3l-0.1-0.6C312.5,212.1,312.7,206.9,312.7,202.3z"/>
<path class="st28" d="M315.7,208c0.5,0,1.1,0.1,1.6,0.2c0.9,0.2,1.9,0.8,2.3,1.7c0.7,1.3,0.4,2.5-0.1,3.9c-0.7,0.3-1.8,0.8-2.6,0.8
	c-0.8,0-1-0.2-1.5-0.8C314.9,211.8,315.4,209.8,315.7,208z"/>
<linearGradient id="SVGID_00000014624734300834825810000002615501015036064946_" gradientUnits="userSpaceOnUse" x1="298.1505" y1="455.1221" x2="284.3906" y2="461.6747" gradientTransform="matrix(1 0 0 1 0 -256)">
	<stop  offset="0" style="stop-color:#000000"/>
	<stop  offset="1" style="stop-color:#04042A"/>
</linearGradient>
<path style="fill:url(#SVGID_00000014624734300834825810000002615501015036064946_);" d="M285.2,194.5l0.9,0.1
	c0.6,2.8,0.4,5.9,0.4,8.8c1.1-2,2-4,2.9-6.1c1,0.3,1.6,1,2.1,1.9c1,1.7,1.5,3.6,2,5.5c0.3-1.1,0.6-2.2,0.8-3.3
	c0.2-1.1,0.3-2.2,0.4-3.4c1.4,0.3,3.6,0.4,4.5,1.5l0.4-0.4c0.6,0,0.7,0,1.2,0.4c-0.7,3.2-1.7,6.6-1.5,9.9l-0.2,0.8
	c-1.4,0.6-4.1,1.4-5.6,1.2c-0.7-0.1-1.5-0.2-2-0.7c-1.1-1.1-1-4-1.2-5.5c-0.7,1.3-1.4,3.3-2.5,4.3c-0.6,0.5-0.9,0.6-1.7,0.5
	c-1.5-2.7-3.4-11.6-3.6-14.9C283.3,194.5,284.3,194.5,285.2,194.5z"/>
<path class="st28" d="M299.2,199.4l0.4-0.4c0.6,0,0.7,0,1.2,0.4c-0.7,3.2-1.7,6.6-1.5,9.9l-0.2,0.8c-1.4,0.6-4.1,1.4-5.6,1.2
	C296,207.7,297.8,203.6,299.2,199.4z"/>
<path class="st20" d="M277.9,190.8c2.6,0.9,5,2.4,7.6,3l-0.2,0.6c-0.9,0.1-2,0-2.8,0.5c0.2,3.3,2.1,12.1,3.6,14.9
	c0.8,0,1.1,0,1.7-0.5c1.1-1,1.8-3,2.5-4.3c0.2,1.5,0.1,4.5,1.2,5.5c0.5,0.5,1.4,0.6,2,0.7c1.5,0.2,4.2-0.6,5.6-1.2l0.2-0.8
	c0.6,2.1,1.4,4.6,3.4,5.6c1,0.5,2.2,0.5,3.2,0c1.1-0.4,1.9-1.2,2.8-1.9l0.4,0.1c2.2-3.4,1.6-7,2.8-10.7c0.3,3.7,0,7-0.8,10.7v-0.5
	c-0.3,1.3-0.5,2.7,0.3,3.9l0.1,0.6c1.2,0.6,2.6,0.9,4,1.3l-0.3,0.9c-1.3,0.5-2.6,0.5-3.8,1.2c-3.7-1.3-7.3-2.7-11.1-3.6
	c-6.9-2.5-13.9-3.7-20.7-6.4c-0.5-0.7-0.7-0.9-1.5-1.2c-0.5-0.2-0.9-0.4-1.4-0.5c-0.3-0.8-0.1-1.1,0.1-1.9c0.2-0.7,0.4-1.2,0.3-1.9
	c0-0.2-0.1-0.3-0.1-0.5C277.3,199.8,277.6,195.3,277.9,190.8z"/>
<path class="st1" d="M104.2,158.2c11.8,1.2,23.4,2.9,35.1,5c11.6,2.1,23.2,4.6,34.6,7.6c2.6,0.7,6.7,1.1,8.9,2.3l-0.1,0.1h-0.5
	l0.1,0.1c-0.7,0.1-1.5,0.2-2.2,0.3c-8.1,0.4-17.8,1.6-24.8,5.9c-2.5,1.5-4.6,3.5-6.8,5.4c-5.8-0.3-11.4-0.4-17.1,0.2
	c-0.4-0.6-0.8-1.3-1.3-1.8c-8.6-9.7-34.3-9.4-46.9-10.4c1.9-1.3,3.5-3,5.2-4.5c2-1.8,4.1-3.4,6.3-4.9
	C97.7,161.3,101.5,160.3,104.2,158.2z"/>
<path class="st15" d="M160.4,305.5c9.3-2.9,24.8-1.7,33.6,2.9c1,0.5,1.9,1.2,2.8,1.8l0.8,0.6c-3.7,2.7-7.2,5.8-11.1,8.1
	c-4.4,2.6-9.6,5.1-14.4,6.7c-14,4.5-31.6,4.6-46.2,2.5c-4.5-0.7-11.8-3.9-15.5-4c5.2-0.2,9.7-6,14.2-8.5c4.4-2.4,9.5-4.1,14.2-5.9
	l0.8-0.2c0.1,1.3,0.5,2.2,1.2,3.3c1.9-1.2,4.1-2.2,6.1-3.2c2.2-0.2,5-1.8,7.1-2.5C156,306.5,158.2,306,160.4,305.5z"/>
<path class="st8" d="M160.4,305.5c0.1,0.1,0.2,0.1,0.3,0.2c1.7,0.9,4.2,0.2,6.2,1c-0.1,0.4,0,0.3-0.3,0.4c-3.5,1.6-8.2,1.9-11.9,2.9
	c-3.4,0.9-6.8,2.2-10.3,3c-1,0.2-2.3,0.5-3.3,0.1c-0.1-0.1-0.2-0.1-0.4-0.2c1.9-1.2,4.1-2.2,6.1-3.2c2.2-0.2,5-1.8,7.1-2.5
	C156,306.5,158.2,306,160.4,305.5z"/>
<path class="st19" d="M294.1,404.7l0.5,0.1c17.1,7.6,32.3,11.4,51.2,9.1c-8.7,6.4-17,12.5-26.8,17.2c-2.1,1-4.6,2.3-7,2.7
	c-3.7,0.6-12.3-0.6-16.2-1.2c-10.6-1.7-22.1-6.4-31.4-11.6c-3.5-2-6.9-4.2-10.3-6.3v-0.3c2.8-0.1,5.6-1.2,8.3-1.6
	c3.7-0.5,7.5-0.7,11.2-1.4C280.9,410.3,287.6,407.8,294.1,404.7z"/>
<path class="st25" d="M93.7,154.3c5.5-5.8,28.2-13.6,36-13.8c5.3-0.1,10.6,2.5,15.4,4.4c4.8,1.9,9.6,3.5,14.3,5.7
	c10.1,4.7,19.8,10.4,29.9,15c5.6,2.6,11.5,4.4,17.2,6.8c-8.7,0.6-17.6,1.1-26.3,1.1c0.7-0.2,1.5-0.2,2.2-0.3l-0.1-0.1h0.5l0.1-0.1
	c-2.2-1.2-6.3-1.6-8.9-2.3c-11.4-3-23-5.5-34.6-7.6s-23.3-3.7-35.1-5C100.6,157.2,97.2,155.5,93.7,154.3z"/>
<path class="st18" d="M122.3,144.3c0.4,0,0.8,0.1,1.1,0.1c-6,1.2-12.1,4.8-17.4,7.7l0.1,0.5l-0.5-0.6l-0.3,0.3l0.5-0.1l-0.4,0.1
	l0.7-0.1l-0.3-0.1c0.3-0.6,2.7-1.8,3.4-2.2c0.1-0.1,0.2-0.2,0.3-0.3c0.5-0.4,0.5-0.5,0.5-1.1c-0.3-0.3-0.1-0.2-0.7-0.3
	c-0.8,0.5-1.2,1-1.7,1.8l-0.2,0.3l-0.3-0.1v-0.6c0.7-1.1,1.9-2.5,3.1-3.1s4.2-1.6,5.4-1.2c-0.4,0.7-0.5,0.6-0.3,1.4
	C117.6,146.5,120.1,145,122.3,144.3z"/>
<path class="st19" d="M243.4,68.4c6.5,1.5,19.9,6.9,25.3,11.1c1.5,1.1,2.6,2.5,3.6,4c1.9,3,3.5,6.3,4.3,9.7
	c3.5,13.8-0.2,32.1-3.4,45.8c-1.5,6.4-3.4,13.9-6.9,19.5c-8.3-4.4-16.9-8-25.6-11.6c-5-2.1-9.9-4.4-14.9-6.4
	c-12.7-5-26.1-9.6-39.2-13.3c2.7-0.2,4.8,1.5,7.3,1.4c0.5,0,0.6-0.3,0.9-0.6l-0.2-0.5c-0.4-0.3-0.9-0.6-1.4-0.8
	c-0.1,0-0.2-0.1-0.2-0.1c8,1.5,16.1,3.4,23.8,5.8c7,2.1,13.9,4.8,20.9,6.5c5.5,1.3,11.3,1.3,16.2-1.8c5.5-3.5,8.9-9.9,10.2-16.2
	c0.8-3.9,1.1-8.1,1.2-12.1c0.4-12.9-2.2-24.3-12.5-32.8c-1.8-1.5-8.2-5.5-9.2-7.2C243.6,68.7,243.5,68.5,243.4,68.4z"/>
<path class="st19" d="M143.5,401.8c7.1,2.5,14.3,5.3,21.6,7.3c4.4,1.2,8.9,2.1,13.4,3c1.9,0.4,4.4,1.4,6.4,1.3
	c0.4,0.4,0.8,0.9,1.2,1.3c3,3.7,6.4,7,10,10.3c12.7,11.9,26.7,21.5,42.7,28.6c-13,1-27-0.1-39.7-3.2c-4.9-1.2-8.9-3.5-13.2-6.1
	c-11-6.7-19.7-14.6-28.3-24.1C152.3,414.4,147.5,408.5,143.5,401.8z"/>
<path class="st19" d="M197.8,414.6c11.9,1.2,23,1.8,34.9,1.6c2.7-0.1,6,0.2,8.6-0.6c1.2,0.9,2.4,1.9,3.6,2.7
	c4.5,3.6,9.3,6.4,14.3,9.2c14,7.7,24.3,11.1,40.2,13.2c-9.7,4.3-31.3,10.2-41.8,9.7c-2.9-0.1-5.7-1-8.4-1.9
	C230.7,443.1,210.5,428.8,197.8,414.6z"/>
<path class="st2" d="M80.4,325.9c2.3,0.8,4.7,1.6,7.1,2.3c5.4,1.6,10.7,2.8,16.3,3.9c3.6,0.7,7.9,1,11.4,2.2
	c-0.3,14.7,2.9,29.8,8.3,43.4c2.4,6.1,5.3,12,8,18.1c-0.2,0.1-0.3,0.2-0.5,0.2c-2.7,0.5-27-13-30.1-14.9l-1.3-2
	c-1.4-0.4-2.7-1.1-4.1-1.6c-1.1-0.4-3-1.5-4.1-1c-0.8-1.2-1.4-2.6-1.9-3.9C84.1,354.8,80.4,345,80.4,325.9z"/>
<path class="st30" d="M80.4,325.9c2.3,0.8,4.7,1.6,7.1,2.3c-0.7,3.3,0.3,7.7,0.8,11c1.7,10.5,4,20.2,7.5,30.2
	c1.1,3.2,2.2,6.5,3.7,9.6c-1.4-0.4-2.7-1.1-4.1-1.6c-1.1-0.4-3-1.5-4.1-1c-0.8-1.2-1.4-2.6-1.9-3.9C84.1,354.8,80.4,345,80.4,325.9z
	"/>
<path class="st2" d="M334.3,155.2c1.1,1.2,2.1,4,2.9,5.4c1.4,2.4,2.8,4.6,4.4,6.8c8.6,11.9,22.2,21,36.2,25.2
	c4.6,1.4,9.4,2.2,14.1,2.9c-3.6,13.6-6.8,26.8-15.1,38.5c-3.1,4-6.8,6.4-10.3,9.9c-0.4-3.8-0.8-7.6-1.8-11.3
	c-2.1-7.9-7.9-20.4-13.7-26.2c-2.6-2.6-5.8-4.7-9.1-6.3c-4.4-2.2-9.4-3.1-13.7-5.7l-0.4-0.2C332.1,181.4,333.7,168.6,334.3,155.2z"
	/>
<path class="st18" d="M340.3,179.5c3,1.6,5.3,4.6,8,6.6c11,8.2,20,12.6,33.4,15.8c-2.4,8.2-3,13.3-7.1,21.3
	c-0.9,1.6-1.9,3.2-2.9,4.8c-0.7-2.1-1.3-4.3-2.2-6.3c-1.3-3.1-3-5.9-4.7-8.8c-7.1-11.8-14.2-16.3-26.8-21.5
	C338.3,187.4,339.4,183.3,340.3,179.5z"/>
<linearGradient id="SVGID_00000110462832745245174800000006744490663939887502_" gradientUnits="userSpaceOnUse" x1="132.1737" y1="421.626" x2="134.7815" y2="381.7599" gradientTransform="matrix(1 0 0 1 0 -256)">
	<stop  offset="0" style="stop-color:#A9294B"/>
	<stop  offset="1" style="stop-color:#EF5259"/>
</linearGradient>
<path style="fill:url(#SVGID_00000110462832745245174800000006744490663939887502_);" d="M44.8,147.9c0.7-1.1,0.5-2.9,0.9-4.2
	c1.5-5.3,6.6-10.4,11.4-12.9c19.4-10.1,51.9-8.5,72.8-3.8c3.8,0.8,7.5,2.1,11.3,3.2c5.2,1.7,10,3.7,15,6c-0.4-0.5-0.9-0.9-1.4-1.2
	c-0.1,0-0.2-0.1-0.2-0.1l0.4-0.1c0.4-0.5,0.4-1.1,0.5-1.7c-0.3-0.6-0.5-0.9-0.5-1.6c0.7,0.2,1.3,0.4,2.1,0.2c0.2,0,0.3-0.1,0.5-0.1
	c7.3,1.6,14.3,4,21.5,5.8c6.2,1.6,13,2.5,18.9,4.8c-0.1,0-0.3,0.1-0.4,0.1c-1.9,0.3-6-1.3-8-1.9l0.3,0.1l-0.6,0.1c0,1.7,1,2.8,2.1,4
	c0.5,0.5,1.1,0.9,1.6,1.3c0.1,0.1,0.2,0.2,0.3,0.2s0.1,0.1,0.2,0.1c5.8,0.2,10.9,1.6,15,6c1.6,1.7,4.1,4.9,4.1,7.3
	c0,0.8-0.2,1.4,0,2.2c2.2,0.7,4.6,1.3,6.7,2.2l-0.1,0.5c0.2,0.3,0.4,0.5,0.7,0.7c0.5,0.6,0.8,2.5,0.6,3.2c-0.1,0.4-0.1,0.4-0.3,0.7
	c-0.6,0-0.8-0.1-1.3-0.4c-0.8-0.5-1.7-0.8-2.7-0.6l-0.2,0.2c-17.6-3.8-33.2-13.8-49.3-21.5c-8.7-4.2-18-8.3-27.1-11.3
	c-8.7-2.8-17.7-4.8-26.7-6.6c-15-2.9-32-2.9-46.6,2.1c-3,1-6,2.1-8.6,3.9c-3.1,2.1-7.4,5.7-8,9.6c-0.4,2.6,0.5,4.2,2,6.2
	c2.9-3.2,3.3-7.3,7-10c12.5-9.4,39.3-7.7,54.1-5.5c-4.8,2.7-10.3,4.2-15.2,7c-6.5,3.7-13.1,8.3-18.9,13.1c-2.7,2.3-5.2,4.9-7.9,7.1
	l-0.3,0.2c-6.6-2.1-13.3-2.6-19.2-6.5C48.2,154,45.5,151.3,44.8,147.9z"/>
<path class="st15" d="M156.1,136.1c-0.4-0.5-0.9-0.9-1.4-1.2c-0.1,0-0.2-0.1-0.2-0.1l0.4-0.1c0.4-0.5,0.4-1.1,0.5-1.7
	c-0.3-0.6-0.5-0.9-0.5-1.6c0.7,0.2,1.3,0.4,2.1,0.2c0.2,0,0.3-0.1,0.5-0.1c7.3,1.6,14.3,4,21.5,5.8c6.2,1.6,13,2.5,18.9,4.8
	c-0.1,0-0.3,0.1-0.4,0.1c-1.9,0.3-6-1.3-8-1.9l0.3,0.1l-0.6,0.1c0,1.7,1,2.8,2.1,4c0.5,0.5,1.1,0.9,1.6,1.3c0.1,0.1,0.2,0.2,0.3,0.2
	s0.1,0.1,0.2,0.1c5.8,0.2,10.9,1.6,15,6c1.6,1.7,4.1,4.9,4.1,7.3c0,0.8-0.2,1.4,0,2.2c-4.6-1.6-9.2-2.9-13.7-4.8
	c-11-4.5-21.5-10.3-32.2-15.5C164.3,140.3,157.6,137.6,156.1,136.1z"/>
<path class="st25" d="M130.6,213.1c6.3-0.5,10.7-1,17.1-0.3c0.1,5.5,0.2,11.4,1.1,16.8c4.4,15.2,5.6,27.3,20.9,35.6
	c16.5,9,47.4,9.7,65.3,4.3c9.5-2.8,16.7-8.6,21.3-17.3c4.6-8.6,6.7-25.7,7.9-35.7c4.8,0.6,9.1,2.8,13.7,4.2
	c13.7,4.2,28.3,9.2,42.2,12.5c6-1.6,9.5-4.5,13.8-9c1.9,3.5,3.4,7,4.7,10.8c-0.7-0.1-1.6-0.5-2.2-0.1c-1,0.7-1.8,1.8-2.8,2.6
	c-2.9,2.3-7.6,3.5-11.1,4.3c-16.9-3.4-34.7-12.8-52-13.4c-0.4,6.6-1.3,13.9-4.4,19.8c-1.1,1.3-1.9,2.7-1.7,4.4
	c0,0.3,0.1,0.5,0.1,0.8c-2.7,3.5-4.9,6.6-6.6,10.6c-0.5-0.2-0.6-0.2-1.1-0.1c-0.6,0.7-1.2,1.5-1.7,2.2c-8.9,10.9-16.9,13-30.5,14.3
	c-17.1,1.6-45.5,1.1-59.2-10.5c-11.3-9.6-16.5-25.1-17.6-39.5c0-0.1-0.1-0.2-0.1-0.3c-0.7-2.5,0.3-7.2-2.4-8.8
	c-2.4-1.4-9.1-0.5-11.8,0.1c-2.6,17.7-7.3,37.7-22.4,49c-10.6,7.9-25.4,9.6-38.2,10.2c-1,0-4.9-0.1-5.2,0.8l0.2,0.5
	c-2-0.4-4-0.9-6-1.2c-3.4,0-7.9-1.9-11.2-2.9l-1.8-1.6c-0.2-2.2-0.3-4.5-0.4-6.7c6.4,1.1,12.4,1.7,18.8,2.1
	c3.7,0.2,7.4,0.5,11.2,0.3c10.8-0.5,26.2-3.3,34.4-10.7C124.6,250.8,129.7,228.6,130.6,213.1z"/>
<path class="st2" d="M115.1,334.3c2.8,0.7,5.5,0.9,8.4,1.1c0.1,0,0.1,0,0.2,0c9.5,1.9,20.2,2.1,29.9,1.3c0.4,4.6,0.7,9.3,1.5,13.9
	c2.9,17.8,10.6,34.6,20.4,49.6c3,4.5,6.6,8.6,9.5,13.1c-2,0-4.4-0.9-6.4-1.3c-4.5-1-9-1.8-13.4-3c-7.3-2-14.4-4.8-21.6-7.3l-1.9-1.9
	c-1.8-0.4-7.2-2.3-8.6-1.9c-0.6-0.5-1.2-1.6-1.6-2.3c-2.7-6-5.6-11.9-8-18.1C118,364.1,114.8,349,115.1,334.3z"/>
<path class="st30" d="M115.1,334.3c2.8,0.7,5.5,0.9,8.4,1.1c0.1,0,0.1,0,0.2,0c-0.4,0.1-0.8,0.1-0.9,0.5c-0.6,1.3-0.1,4.1,0,5.6
	c1,13.6,4.6,27.9,10.2,40.4c1.6,3.6,3.4,7,5.1,10.5c1.2,2.5,2.2,5.2,3.7,7.6c-1.8-0.4-7.2-2.3-8.6-1.9c-0.6-0.5-1.2-1.6-1.6-2.3
	c-2.7-6-5.6-11.9-8-18.1C118,364.1,114.8,349,115.1,334.3z"/>
<path class="st2" d="M190.6,330.5c0,0.1,0.1,0.3,0.1,0.4c0.6,2.1,0.7,4.6,1,6.8c0.6,4,1.5,7.9,2.7,11.8
	c6.8,23.4,21.1,42.5,38.6,59.1c2.6,2.5,5.5,4.6,8.2,7c-2.6,0.8-5.9,0.5-8.6,0.6c-11.9,0.2-23-0.4-34.9-1.6l-1.6-1.3
	c-2,0.2-9,0.3-10.1,1.4c-0.4-0.4-0.8-0.8-1.2-1.3c-2.9-4.6-6.5-8.6-9.5-13.1c-9.8-15-17.5-31.8-20.4-49.6c-0.7-4.6-1-9.3-1.5-13.9
	c2.5-0.3,5-0.4,7.5-0.7C170.1,334.9,181.8,332.8,190.6,330.5z"/>
<path class="st30" d="M153.5,336.8c2.5-0.3,5-0.4,7.5-0.7c2,28.2,14.5,57.7,35.2,77.2c-2,0.2-9,0.3-10.1,1.4
	c-0.4-0.4-0.8-0.8-1.2-1.3c-2.9-4.6-6.5-8.6-9.5-13.1c-9.8-15-17.5-31.8-20.4-49.6C154.2,346.1,153.9,341.4,153.5,336.8z"/>
<path class="st25" d="M488.2,119.5c2.8-3,5.3-5.7,7-9.5c0.5,3.3,0.7,19.5-0.8,21.8l-0.5-0.4l0.2-0.7c-2.2,2-3.2,7.2-4.2,10
	c-4.9,13.7-13.3,25.9-26,33.6c-6.6,4-14.6,7-22.1,8.9c-3.2,0.8-7.1,1.1-10,2.6c-1.3-0.4-2.5-0.9-3.8-1.2l-0.1,0.4
	c-0.7,4.3-0.4,8.9-0.3,13.2c0.1,9.3,0.4,18.6,0.5,27.9c0,7.7-0.1,15.3-0.3,23c-0.1,6.8-0.1,13.7-0.8,20.5
	c-2.9,28.3-14.4,64.8-30.1,88.6c0-1.1,0-2.3-0.2-3.5c0-0.4,0-0.5,0-1c-0.2-1.4-1.6-2.5-2.7-3.2c-3.4-2.2-7.5-3.3-11.1-5.2
	c-7.2-3.8-14-8.5-20.4-13.4c3.1-0.7,6.3-1,9.3-2.1c6.2-2.3,15.3-9.7,19.4-14.8l1.4-2.4c0.7-1,1.4-2.4,1.5-3.7
	c0.7-1.7,1.9-4.3,3.1-5.6l0.4,0.1c2.2-2.1,4.1-7.9,5.4-10.7c6.8-14.2,10.9-29.4,13.9-44.8c1.2-6.4,1.8-12.8,2.6-19.3l3-24.8
	c0.7-5.3,1.1-11,2.4-16.2c0.7-2.8,1.9-5.4,3.7-7.6c6.8-8.5,18.9-9.8,28.2-14c4.9-2.2,9.7-5.5,13.7-9.2
	C482,146.8,487.3,134.7,488.2,119.5z"/>
<path class="st2" d="M227.9,317.6c0.5-0.7,2.6-1.5,3.4-2c2.2,6.5,4.4,13.2,7.4,19.4c7.6,16,20.3,29.2,34.4,39.7
	c2.7,2.6,5.7,4.5,8.9,6.4c2.3,2.3,8.2,3.6,9.4,5.2c0.2,0.3,0.5,0.6,0.8,0.9c-2.7-0.7-7.4-4-9.8-3.2c5.8,3.6,11.7,5.9,18.2,8
	c3.2,1,6.5,1.9,9.6,3.2c-0.4,0.2-0.8,0.4-1.3,0.6c-2.2,0.8-3.9,3.2-6.1,3.6l1.6,0.5c-0.7,0.1-1.4,0.1-2.1,0.3
	c-1.3,0.4-6.5,3.2-7.3,4.1c-0.2,0.2-0.2,0.2-0.2,0.5l-0.5-0.1c-6.5,3.1-13.2,5.6-20.3,6.8c-3.7,0.6-7.5,0.8-11.2,1.4
	c-2.8,0.4-5.5,1.5-8.3,1.6v0.3c-0.1,0-0.3,0-0.4-0.1c-1.1-0.2-1.8-1.2-2.9-1.2c-2.8,1.9-4.1,2.7-7.5,2.8c0.6,0.6,1.3,1.2,1.6,2
	c-1.3-0.8-2.4-1.7-3.6-2.7c-2.7-2.4-5.6-4.5-8.2-7c-17.5-16.5-31.8-35.7-38.6-59.1c-1.2-3.9-2-7.8-2.7-11.8c-0.4-2.2-0.4-4.7-1-6.8
	c0-0.1-0.1-0.3-0.1-0.4c2.1-0.6,4.4-1,6.5-1.4c9-2.7,18.1-5.7,26.6-9.7l1.1-0.6C225.9,318.4,226.9,318,227.9,317.6z"/>
<linearGradient id="SVGID_00000084511051834965116460000008536637878084452011_" gradientUnits="userSpaceOnUse" x1="252.8314" y1="632.0113" x2="188.3973" y2="627.1302" gradientTransform="matrix(1 0 0 1 0 -256)">
	<stop  offset="0" style="stop-color:#5A6B95"/>
	<stop  offset="1" style="stop-color:#6E8EA2"/>
</linearGradient>
<path style="fill:url(#SVGID_00000084511051834965116460000008536637878084452011_);" d="M190.6,330.5c2.1-0.6,4.4-1,6.5-1.4
	l0.2,0.4c1.6,3.7,2.1,8,3,11.9c1.1,4.6,2.6,9.1,4.3,13.5c2.1,5.7,4.6,11.3,7.7,16.5c8.5,14.2,26.9,35.7,41.8,42.9v0.3
	c-0.1,0-0.3,0-0.4-0.1c-1.1-0.2-1.8-1.2-2.9-1.2c-2.8,1.9-4.1,2.7-7.5,2.8c0.6,0.6,1.3,1.2,1.6,2c-1.3-0.8-2.4-1.7-3.6-2.7
	c-2.7-2.4-5.6-4.5-8.2-7c-17.5-16.5-31.8-35.7-38.6-59.1c-1.2-3.9-2-7.8-2.7-11.8c-0.4-2.2-0.4-4.7-1-6.8
	C190.7,330.8,190.7,330.7,190.6,330.5z"/>
<linearGradient id="SVGID_00000102533113540986029950000006802291471530147769_" gradientUnits="userSpaceOnUse" x1="263.8102" y1="616.4043" x2="251.7619" y2="627.7732" gradientTransform="matrix(1 0 0 1 0 -256)">
	<stop  offset="0" style="stop-color:#636F91"/>
	<stop  offset="1" style="stop-color:#7A8FA3"/>
</linearGradient>
<path style="fill:url(#SVGID_00000102533113540986029950000006802291471530147769_);" d="M227.9,317.6c0.5-0.7,2.6-1.5,3.4-2
	c2.2,6.5,4.4,13.2,7.4,19.4c7.6,16,20.3,29.2,34.4,39.7c2.7,2.6,5.7,4.5,8.9,6.4c2.3,2.3,8.2,3.6,9.4,5.2c0.2,0.3,0.5,0.6,0.8,0.9
	c-2.7-0.7-7.4-4-9.8-3.2c5.8,3.6,11.7,5.9,18.2,8c3.2,1,6.5,1.9,9.6,3.2c-0.4,0.2-0.8,0.4-1.3,0.6c-2.2,0.8-3.9,3.2-6.1,3.6l1.6,0.5
	c-0.7,0.1-1.4,0.1-2.1,0.3c-1.3,0.4-6.5,3.2-7.3,4.1c-0.2,0.2-0.2,0.2-0.2,0.5l-0.5-0.1c-2.1-1.4-4.7-2.5-6.9-3.7
	c-3.8-2-7.4-4.2-11-6.6c-28.3-19.7-41.2-42.5-52-74.6l-0.4-0.4l1.1-0.6C225.9,318.4,226.9,318,227.9,317.6z"/>
<path class="st14" d="M224.9,318.8c3.4,2.5,4.7,5.3,7.3,8.3c0.5,1,1,2.1,1.3,3.2c-0.4-0.3-0.6-0.6-0.9-1c-1.2-2-6.5-8.5-8.4-9.5
	l-0.4-0.4L224.9,318.8z"/>
<path class="st34" d="M227.9,317.6c2.6,2.9,4.1,5.7,4.4,9.6c-2.6-3-4-5.8-7.3-8.3C225.9,318.4,226.9,318,227.9,317.6z"/>
<path class="st2" d="M302.7,399.4l-2.1-0.5c-12.6-3.2-38.2-21.9-44.9-33.4c-0.3-0.6-0.3-0.6-0.1-1.2c8.5,7.4,16.4,14.8,26.7,19.8
	c5.8,3.6,11.7,5.9,18.2,8c3.2,1,6.5,1.9,9.6,3.2c-0.4,0.2-0.8,0.4-1.3,0.6C306.6,396.5,304.8,398.9,302.7,399.4z"/>
<linearGradient id="SVGID_00000129928574081731853030000012948215015556037521_" gradientUnits="userSpaceOnUse" x1="250.3381" y1="615.0635" x2="260.2796" y2="608.1888" gradientTransform="matrix(1 0 0 1 0 -256)">
	<stop  offset="0" style="stop-color:#1F1A38"/>
	<stop  offset="1" style="stop-color:#2A4580"/>
</linearGradient>
<path style="fill:url(#SVGID_00000129928574081731853030000012948215015556037521_);" d="M227.9,317.6c0.5-0.7,2.6-1.5,3.4-2
	c2.2,6.5,4.4,13.2,7.4,19.4c7.6,16,20.3,29.2,34.4,39.7c2.7,2.6,5.7,4.5,8.9,6.4c2.3,2.3,8.2,3.6,9.4,5.2c0.2,0.3,0.5,0.6,0.8,0.9
	c-2.7-0.7-7.4-4-9.8-3.2c-10.3-5.1-18.2-12.4-26.7-19.8c-0.7-1.3-3.4-3.3-4.6-4.6c-1.6-1.7-3.2-3.5-4.6-5.4
	c-1.9-2.6-3.5-5.5-5.1-8.3c-1.3-2.2-2.9-4.4-4-6.8c-1.3-2.8-2.2-5.8-3.5-8.6l-0.1-0.2c-0.3-1.1-0.8-2.1-1.3-3.2
	C232,323.2,230.5,320.4,227.9,317.6z"/>
<path class="st2" d="M108.6,114.3c0.9-3.4,1.9-6.8,2.9-10.1c4.7-15.5,10.4-27.6,25.4-35.5c3.5-1.9,7.3-3.2,11.1-4.4
	c21.6-7.1,46.1-8.2,68.3-3.8c5.1,1,10.3,2.2,15.3,3.8c4,1.3,7.8,2.9,11.8,4.1c0.1,0.1,0.2,0.3,0.2,0.4c1,1.7,7.4,5.7,9.2,7.2
	c10.3,8.5,12.9,19.8,12.5,32.8c-0.1,4-0.3,8.2-1.2,12.1c-1.3,6.3-4.7,12.6-10.2,16.2c-4.9,3.1-10.7,3.1-16.2,1.8
	c-7.1-1.7-14-4.4-20.9-6.5c-7.8-2.4-15.9-4.3-23.8-5.8c0.1,0,0.2,0,0.2,0.1c0.5,0.2,0.9,0.5,1.4,0.8l0.2,0.5
	c-0.3,0.3-0.4,0.6-0.9,0.6c-2.5,0.1-4.6-1.6-7.3-1.4c-11.8-3.2-23.8-6.3-35.9-8.4c-6.3-1-12.6-1.6-18.9-2.3
	C124.1,115.5,116.3,114.5,108.6,114.3z"/>
<path class="st5" d="M180.2,76.8c2.9,0.9,6.4,1,9.4,1.3c-2,5.2-6.2,18.9-5.9,24.1c1,1.7,2.3,3.5,4.3,4.2c1.1,0.4,2.2,0.2,3.2-0.3
	c1.8-0.9,3.3-2.6,4.2-4.3c1.6-3,2.3-6.8,3.3-10c1.3-4.1,2.7-8.2,4.1-12.4c3.5,0.7,7,1.1,10.5,1.7c-1,2.2-1.9,4.4-2.7,6.7
	c-0.9,3.6-1.9,7.2-2.9,10.8c-1.8,6.3-4.3,12-10.3,15.3c-0.3,0.2-0.6,0.3-0.9,0.4c-0.3,0.1-0.6,0.3-0.9,0.4c-0.3,0.1-0.6,0.2-0.9,0.4
	c-0.3,0.1-0.6,0.2-0.9,0.3c-0.3,0.1-0.6,0.2-0.9,0.3c-0.3,0.1-0.6,0.2-0.9,0.2c-0.3,0.1-0.6,0.1-1,0.2c-0.3,0.1-0.6,0.1-1,0.1
	c-0.3,0-0.6,0.1-1,0.1c-0.3,0-0.6,0-1,0c-0.3,0-0.6,0-1,0c-0.3,0-0.6,0-1-0.1c-0.3,0-0.6-0.1-1-0.1c-0.3,0-0.6-0.1-1-0.2
	c-0.3-0.1-0.6-0.1-0.9-0.2c-0.3-0.1-0.6-0.2-0.9-0.2c-3.4-1-6.5-3.1-8.1-6.4c-1-1.9-1.4-3.9-1.4-6.1
	C173.1,95.7,177.8,84.1,180.2,76.8z"/>
<path class="st5" d="M140.2,75.8c0.7-0.2,0.4-0.2,1,0.1c0.2,2.7-0.6,5.7-0.9,8.4c-0.5,4.1-0.7,8.1-1.3,12.2
	c2.8-7.1,6.7-13.6,10.7-20.1c2.5-0.1,4.9-0.4,7.3-0.7c0.1,6.8,0.3,13.5,0,20.3c2.9-6.7,5.8-13.2,9.8-19.4c3.5,0.3,7,0.2,10.4,0.3
	c-3.1,4.4-5.4,9.3-8.2,13.9c-1.5,2.9-3.3,5.6-4.9,8.4c-2.5,4.5-4.8,9.1-7.9,13.4c-2.4-0.5-4.8-0.5-7.2-0.4c-0.6-6.1-1-12.1-1-18.2
	c-3.9,5.4-7.3,11.4-10.8,17.1c-2.4-0.6-4.9-0.7-7.3-0.8c-0.3-11.2-0.1-22.8,0.5-34C133.7,76.1,136.9,76,140.2,75.8z"/>
<path class="st5" d="M219.8,81.5c5,1,10.2,1.7,15.1,3.2c5.7,1.7,11.2,4.9,14.1,10.3c2.4,4.5,2.3,9.9,0.7,14.7
	c-1.9,5.8-5.8,9.9-11.2,12.6c-2.1,0.8-4.2,1.5-6.4,1.6c-6.8,0.5-16.2-2.4-23-3.9c0.9-5.1,2.7-10.1,4-15.1
	C215.2,97.1,217.1,89.2,219.8,81.5z"/>
<path class="st2" d="M227.2,92.9c3.8,1.1,9,2.6,11.2,6.1c1.4,2.1,1.4,4.6,0.8,7c-0.9,3.3-2.5,5.2-5.4,6.9c-4.1,1.5-8.1,0.3-12.2-0.6
	C223.5,105.8,225.3,99.4,227.2,92.9z"/>
<linearGradient id="SVGID_00000091704135308161089740000018321806263804913838_" gradientUnits="userSpaceOnUse" x1="143.5465" y1="521.3673" x2="143.1199" y2="438.9804" gradientTransform="matrix(1 0 0 1 0 -256)">
	<stop  offset="0" style="stop-color:#F4B72D"/>
	<stop  offset="1" style="stop-color:#FBD62F"/>
</linearGradient>
<path style="fill:url(#SVGID_00000091704135308161089740000018321806263804913838_);" d="M126.5,194.5c5.6,0.4,19.5,1.2,24.7-0.3
	c1.2-0.3,2.2-1,3.1-1.8c2.4-2.1,3.8-4.3,6.8-5.5c10.5-4.4,47.5-4.4,60.1-4c8.2,0.3,43.1,2.1,47.6,7c0.8,0.9,1.3,2,1.8,3.1
	c0.2,0.5,0.1,0.3,0.5,0.8h0.3l-0.3,5.8c-0.4,8.3-7,5.5-12,10c-0.1,0.1-0.2,0.1-0.2,0.2c-1.1,3.8-1.1,8-1.6,11.9
	c-1.2,10.2-3.8,24.6-10.8,32.4c-7.2,8.2-17.9,10.8-28.4,11.3c-11.1,0.6-30.1,0.3-40.6-3.6c-4.1-1.5-7.8-4-11.1-7
	c-11.1-10.1-12-31.7-12.5-45.8c-1-0.6-2.1-1.1-3.2-1.5c-1.1-0.4-2.2-0.8-3.4-1.1c-8.1-2.1-16-1.5-23.2,2.7c-0.5,2.9-0.5,5.9-0.9,8.8
	c-1.5,11-4.9,25.8-11.8,34.6c-6,7.7-15.9,10.8-25.2,11.9c-11.4,1.4-29.8,0.9-40.6-2.9c-0.8-0.3-1.5-0.6-2.2-0.9s-1.4-0.7-2.1-1.1
	c-0.7-0.4-1.4-0.8-2-1.3c-0.7-0.4-1.3-0.9-1.9-1.4c-13-10.4-11-30.3-12.9-45.1c-0.8-6.2-5.4-5.4-9.5-8.6c0-3.3,0-6.5,0.2-9.8
	c1.6-0.9,2.3-3.5,3.4-5c4.4-2,9.4-2.3,14.2-3c3.6-0.5,7.1-1.1,10.7-1.5c17.1-1.5,58.7-2.5,73.7,2.8
	C121.3,188.3,123.2,192.3,126.5,194.5z"/>
<path class="st28" d="M249.3,210.9c1.7,2.9,0.6,7.8-0.3,10.9c-0.3,0.9-0.7,1.6-1.4,2.2C247.9,219.7,248.7,215.3,249.3,210.9z"/>
<path class="st28" d="M115.1,208.2c0.5,0.4,0.8,0.4,1,1c0.7,3-0.7,9.2-1.9,12c-0.3,0.1-0.6,0.3-0.9,0.3
	C113.9,217.1,114.7,212.7,115.1,208.2z"/>
<path class="st5" d="M257.8,190.1c1,0,1.9,0,2.8,0.3c1.3,0.3,2.5,1,3.2,2.2c0.5,0.8,0.6,1.9,0.3,2.8c-0.5,1.9-2.2,3.3-3.8,4.2
	c-1.3,0-2.3-0.2-3.3-0.9c-1.5-0.9-2.7-2.5-3.1-4.2c-0.2-0.9-0.1-1.9,0.5-2.7C255.3,190.5,256.5,190.3,257.8,190.1z"/>
<linearGradient id="SVGID_00000060011673032233717380000008503466455511329932_" gradientUnits="userSpaceOnUse" x1="28.4314" y1="448.0409" x2="19.3148" y2="453.3173" gradientTransform="matrix(1 0 0 1 0 -256)">
	<stop  offset="0" style="stop-color:#160F1B"/>
	<stop  offset="1" style="stop-color:#1D132F"/>
</linearGradient>
<path style="fill:url(#SVGID_00000060011673032233717380000008503466455511329932_);" d="M22.7,190c1.3-0.1,2.7-0.3,3.9,0.1
	c1.2,0.4,2.4,1.2,3,2.4c0.5,1,0.5,2.1,0.1,3.2c-0.8,2.1-2.6,2.8-4.4,3.7c-1.4,0.1-2.4-0.1-3.7-0.6c-1.4-0.6-2.7-1.5-3.3-2.9
	c-0.4-1-0.3-2.1,0.2-3C19.4,191.3,21,190.6,22.7,190z"/>
<path class="st5" d="M113.2,221.5c-0.7,2-0.9,4.3-1.3,6.4c-1.6,7.2-4,15.6-9.6,20.8c-8.7,8.1-24.7,7.4-35.8,7
	c-8.8-0.3-20.2-1-26.6-7.9c-1.8-1.9-3.1-4.1-4-6.5c-3.4-8.9-4.3-26.5-3.9-36.3c0.2-4.6,1.1-8,4.6-11.2c7.3-6.5,26.1-5.9,35.7-5.8
	c4.7,0,9.5-0.1,14.2,0.2c7.3,0.4,21.1,1.2,26,7c3.2,3.7,2.7,8.5,2.5,13C114.7,212.7,113.9,217.1,113.2,221.5z"/>
<path class="st0" d="M39.6,208c1.9,2.2,3,3.6,6,3.9h0.3c-2,1.9-4,3.8-6.3,5.4C39.2,214.2,39.2,211.3,39.6,208z"/>
<path class="st34" d="M99,195.6c2,0.6,4.6,1,6.2,2.5c0.2,0.4,0.3,0.5,0.2,1c-1,2.7-10.4,8.5-13.2,10.1c-0.8,0.4-1.8,0.7-2.5,1.2
	c-0.3,0.2-0.5,0.6-0.7,0.9c-1.5-0.3-3-0.4-4.5-0.5C89.1,205.4,94.7,201,99,195.6z"/>
<path class="st30" d="M39.9,230.3c1.9-1.6,3.8-3.1,5.6-4.8c2.1-2,6-7.5,8.4-8.6c0.9,3,2.4,6.5,2.8,9.5c-0.5,0.7-0.5,0.9-0.6,1.7
	c0,0.2,0,0.3,0,0.5c-1.5,1.9-3.4,3.5-5,5.2c-2.6,2.6-5,5.5-7.9,7.8C42,237.8,41.2,234,39.9,230.3z"/>
<path class="st2" d="M84.5,210.7c1.5,0.2,3,0.2,4.5,0.5c0.2,3-0.1,6.1-0.2,9.1c-0.1,5.9,0.1,11.9-0.8,17.7c-1.8,0-3.5-0.2-5.2-0.5
	c-0.3-2.7-0.5-5.4-0.3-8.2c-0.1-0.6-0.4-1.1-0.6-1.6c0-1.1,0.2-2.2,0.4-3.3c-1.4-1-3.6-3.5-5.2-3.8c-0.6,0.2-0.8,0.3-1.3,0.8
	c-0.3,0.3-0.6,0.6-1,0.9l-0.4,0.3l0.8-1.2c0.7-1,1.2-1.8,1.4-3c0-0.1,0-0.3,0-0.4C76.9,216.4,83,211.8,84.5,210.7z"/>
<path class="st34" d="M76.5,218.3c0.5,0.9,0.8,1.5,1.7,2c1.8,0.3,3.3-0.8,4.9-1.6c-0.4,3.5-0.3,7.1-0.7,10.6
	c-0.1-0.6-0.4-1.1-0.6-1.6c0-1.1,0.2-2.2,0.4-3.3c-1.4-1-3.6-3.5-5.2-3.8c-0.6,0.2-0.8,0.3-1.3,0.8c-0.3,0.3-0.6,0.6-1,0.9l-0.4,0.3
	l0.8-1.2C75.8,220.3,76.3,219.5,76.5,218.3z"/>
<path class="st2" d="M39.6,208c1.3-4.9,4.1-9.3,8.5-11.9c2.1-1.3,11.8-3.1,14-2.3c0.2,0.1,0.3,0.2,0.4,0.3c0,2.6-8.2,10.5-10.2,12.4
	c-2,2-4.1,3.9-6.4,5.4h-0.3C42.5,211.7,41.4,210.3,39.6,208z"/>
<path class="st30" d="M75.6,193.7c4,0,8.1,0,12.1,0c-3.2,4.7-6.7,8.3-11,12c-1.7,1.6-3.7,3-5.3,4.7c-0.8,0.2-1.6,0.4-2.3,0.9
	c-0.6,0.3-1,0.6-1.4,1l0.2,0.6c-0.1,0-0.2,0.1-0.3,0.1c-1,0.4-1.4,0.6-1.8,1.6c-0.2,0.5-0.4,1-0.6,1.5l0.3-0.4l-0.3-0.1
	c0-0.8,0.1-1.5,0-2.3c-0.6,0.9-2.7,6.2-3.3,6.6c-0.3,0.2-0.7,0.3-1,0.4c-0.5-1.4-1-2.8-1.4-4.2c0.3-1.1,0.2-2.4,0.2-3.6
	C64,205.5,70.2,200,75.6,193.7z"/>
<path class="st2" d="M71.5,210.4c1.4,0.7,2.4,1.5,3.4,2.6c-2,4.6-6.9,15.8-9.5,19.4c-0.7,0.9-1.6,2-2.8,2.4c-0.4,0.2-1,0.3-1.4,0.1
	c-2-0.9-3.9-6.6-4.6-8.6c-0.4-3-2-6.5-2.8-9.5c-0.5-1.4-0.6-2.9-0.8-4.3c1.3-0.3,3.1-1,4.4-0.3c1.2,0.7,1.6,2.7,2,3.9
	c0.4,1.4,0.9,2.8,1.4,4.2c0.3-0.1,0.7-0.2,1-0.4c0.5-0.4,2.7-5.6,3.3-6.6c0,0.8-0.1,1.5,0,2.3l0.3,0.1l-0.3,0.4
	c0.2-0.5,0.4-1,0.6-1.5c0.4-1,0.8-1.2,1.8-1.6c0.1,0,0.2-0.1,0.3-0.1l-0.2-0.6c0.5-0.4,0.9-0.8,1.4-1
	C69.8,210.9,70.6,210.7,71.5,210.4z"/>
<path class="st34" d="M60.8,220.4c0.3-0.1,0.7-0.2,1-0.4c0.5-0.4,2.7-5.6,3.3-6.6c0,0.8-0.1,1.5,0,2.3l0.3,0.1l-0.3,0.4
	c0.2-0.5,0.4-1,0.6-1.5c0.4-1,0.8-1.2,1.8-1.6c0.1,0,0.2-0.1,0.3-0.1l-0.2-0.6c0.5-0.4,0.9-0.8,1.4-1c-2.1,5.2-4.5,10.6-5.7,16.1
	C62.3,225.1,61.6,222.8,60.8,220.4z"/>
<path class="st25" d="M74.4,222.5l0.4-0.3c0.4-0.3,0.6-0.5,1-0.9c0.4-0.5,0.7-0.6,1.3-0.8c1.6,0.3,3.8,2.8,5.2,3.8
	c-0.1,1.1-0.4,2.2-0.4,3.3c-0.3,1.1-0.7,2-1.3,2.9c-2.7,3.9-6.1,7.3-9.2,10.8c-2.8,3.2-5.4,6.8-8.5,9.8c-3.5-0.7-7.1-1.8-10.6-2.7
	c3.7-5.6,9.6-9.9,14-15C69.3,230,71.5,226,74.4,222.5z"/>
<path class="st5" d="M247.7,224.1c-0.7,1.8-0.7,4.5-1,6.4c-1.1,6.7-3.3,13.9-8.4,18.7c-8.3,7.8-22.7,7.8-33.4,7.4
	c-3.8-0.1-7.6-0.6-11.5-1c-8.2-0.9-16.2-1.8-22.1-8.3c-0.5-0.6-1-1.1-1.5-1.8c-0.5-0.6-0.9-1.2-1.3-1.9c-0.4-0.6-0.8-1.3-1.1-2
	s-0.7-1.4-0.9-2.1c-3-7.6-4.8-23.9-4.4-32.3c0.2-4.6,1.6-9.9,5.2-13.1c1.8-1.6,4-2.7,6.2-3.4c10.1-3.2,32.2-3,43.1-2.4
	c8.4,0.5,25.3,0.2,31.1,7.1c3.6,4.4,2.3,10.3,1.7,15.4C248.7,215.3,247.9,219.7,247.7,224.1z"/>
<path class="st19" d="M171.5,204.1c-0.1,2.3-0.2,4.8,1.4,6.6c1,1.1,2.7,1.6,4.2,1.6c0.7,0,1.4-0.1,2.1-0.2c-3.2,3.4-6.5,6.6-10,9.7
	C169,215.6,167.4,209.5,171.5,204.1z"/>
<path class="st30" d="M186.3,219.5c0.6,1.1,1,2,2.1,2.7c0.4,1,0.5,2.1,0.7,3.2c-0.6,0.9-0.1,2.5,0,3.6c-3,5.8-8.2,10.6-12.6,15.4
	c-1.6-3-3.4-5.9-5.3-8.7C172.7,233.4,183.9,221.4,186.3,219.5z"/>
<path class="st30" d="M187,250.9l0.2-0.5c3.6-6.6,13.3-14.5,19-19.3c0.6,0.8,1,1.8,2,2.2c0.2,0.9,0.2,2.2,0.9,2.9
	c0.8,0.3,1.4,0.3,2.2,0.3c-3,6.3-9,10.6-13.1,16.2C194.2,251.3,191.1,250.6,187,250.9z"/>
<path class="st30" d="M237.4,197.2c1.7,0.8,4.7,1.9,5.5,3.8c0.5,1.4-0.1,3-0.7,4.2c-2.6,5-14.5,16.8-19.3,20.5
	c-1.3,1-2.7,1.8-4.2,2.6c0.9-3,5.3-4.5,6.6-7.7c1-2.5-0.4-4.4-1.4-6.6c-0.2-2.7,1.3-4,2.9-5.9C230.2,204.3,233.9,200.8,237.4,197.2z
	"/>
<path class="st2" d="M195.5,226.8c1.6-3.7,5.4-14.6,9-16.2c0.9-0.4,1.7-0.3,2.7,0.1c0.7,0.6,0.7,1.1,0.9,1.9l-6.1,12.2
	c-1.4,3-2.7,6.3-4.7,9c-0.6,0.9-1.6,1.9-2.6,2.3c-0.6,0.2-0.9,0.2-1.4,0.1c-2.1-1.3-3.5-8.3-4.2-10.8c-0.1-1.1-0.3-2.1-0.7-3.2
	c-0.6-3.6-1.6-7-2.3-10.6c1.7-0.4,3.4-0.7,5.1-1c0.6,3.2,1.8,6.2,2.8,9.3C194.3,222.2,194.9,224.5,195.5,226.8z"/>
<path class="st2" d="M171.5,204.1c2.9-4.4,7.3-8.2,12.6-9.2c3.9-0.8,8.5-0.8,12.5-0.7c-4,6.6-11.5,13.4-17.5,18
	c-0.7,0.1-1.4,0.2-2.1,0.2c-1.5,0-3.2-0.5-4.2-1.6C171.2,208.9,171.4,206.4,171.5,204.1z"/>
<path class="st30" d="M213.5,193.4c3.6,1.2,7,1.3,10.8,1.4l0.6,0.2c-0.5,1.9-4.7,5.4-6.2,6.8c-2.3,2.8-7.3,9.3-10.6,10.7
	c-0.1-0.8-0.2-1.4-0.9-1.9c-0.9-0.3-1.7-0.5-2.7-0.1c-3.5,1.6-7.3,12.5-9,16.2c-0.7-2.3-1.2-4.6-1.6-6.9c1.3-1,2.4-6.9,3.8-8.8
	c2-2.9,4.6-5.5,7-8.1C207.6,199.7,210.3,196.4,213.5,193.4z"/>
<path class="st18" d="M224.3,194.8l0.6,0.2c-0.5,1.9-4.7,5.4-6.2,6.8l-0.4-0.1c0.5-1.2,2.3-2.4,3.1-3.5c0.6-0.8,0.7-1.3,0.6-2.2
	c-0.6-0.7-2.1-0.8-3-1C220.7,195,222.5,195,224.3,194.8z"/>
<path class="st2" d="M208.2,233.3c0.9-5.9,8.1-9.6,11.8-13.6c0.1-0.7,0.2-1-0.2-1.6c-1.6-2.7-7.1,1.5-9.8,0.5
	c-0.7-0.8-0.9-1.3-0.8-2.3c0.1-1.4,0.6-2.5,1.7-3.3c1.9-1.6,4.8-2,7.1-1.8c2.5,0.3,4.3,0.9,5.8,2.9c1,2.2,2.4,4.1,1.4,6.6
	c-1.3,3.3-5.7,4.7-6.6,7.7l-1.8,1.7c3.4,0.7,7,0.5,10.5,0.4c0.2,2.3,0.3,4.6,0.2,6.9c-5.4,0-11-0.3-16.4-0.9c-0.8,0-1.4,0-2.2-0.3
	C208.4,235.5,208.4,234.2,208.2,233.3z"/>
<path class="st1" d="M336.8,110.8c0-1-0.1-1.9,0.1-2.9c1.5,0.8,2.6,2.3,3.9,3.3c3.4,2.7,8.3,5,12.4,6.3c7.3,2.3,14.7,2.2,22.2,3.4
	c12.6,2,26.9,9.3,32.9,21.1c0,0.1,0.1,0.1,0.1,0.2c1.8,7,1.5,14.3,4.2,21.1c0.2-1,0.2-2.6,0.7-3.5c2.3-1.3,5.7-9.6,7.7-12.4
	c0.4-0.6,0.9-1.2,1.4-1.9c0.5-0.6,1-1.2,1.5-1.8s1.1-1.1,1.6-1.7c0.6-0.5,1.1-1.1,1.7-1.6s1.2-1,1.8-1.5c0.6-0.5,1.2-0.9,1.9-1.4
	c0.6-0.4,1.3-0.9,2-1.2c0.7-0.4,1.3-0.8,2-1.1c5.1-2.7,10.8-5,16.5-6.1c12.6-2.4,26.6-0.2,36.8-9.8c-0.9,15.2-6.2,27.3-17.7,37.6
	c-4,3.6-8.8,6.9-13.7,9.2c-9.4,4.2-21.4,5.5-28.2,14c-1.8,2.3-2.9,4.8-3.7,7.6c-1.4,5.2-1.8,10.9-2.4,16.2l-3,24.8
	c-0.7,6.5-1.3,12.9-2.6,19.3c-2.9,15.4-7.1,30.6-13.9,44.8c-1.4,2.8-3.3,8.7-5.4,10.7l-0.4-0.1c-1.2,1.3-2.4,3.9-3.1,5.6
	c-0.1,1.3-0.7,2.6-1.5,3.7l-1.4,2.4c-4.1,5.1-13.2,12.6-19.4,14.8c-3,1.1-6.2,1.5-9.3,2.1c-7.2-4.7-22.3-15.1-30.9-13.2
	c-1.4,0.3-2.3,1-3,2.2c-0.5,0.8-1,1.5-1.4,2.4c14.4,1.2,24,10.7,35.5,18.3c4.7,3.1,9.5,6.3,14.4,9c2.6,1.4,5.4,2.6,8.1,3.9
	c1.2,0.5,2.3,1.1,3.3,1.8c-5.3,9.3-17.7,15-27.6,17.7c-7.3,2-16.4,2-23.8,0.5c-14.1-2.4-29-10.4-36.5-23c-1.5-2.6-2.2-8-5-9.4
	c-0.4,0-0.8,0-1.2,0.2c-1.3,0.7-1.9,1.6-2.3,2.9c-1.9,11.3,5,20.5,7.7,30.9c1,3.8,1,7.6,1,11.6l-0.2,0.6c-1.8,0.1-15.7-6.3-18.6-7.5
	c-3.2-1.9-6.2-3.8-8.9-6.4c-14-10.5-26.8-23.8-34.4-39.7c-3-6.2-5.2-12.9-7.4-19.4c1.6-1.5,3.7-2.7,5.4-4c2.4-1.9,10-9.4,11.3-11.7
	c0.4-0.7,0.5-1.2,0.3-2c-1.9-2-5.8-2.1-8.4-2.6c-0.8,2.8-1.5,5.3-3.5,7.5c-9.5,10.4-36.8,20.8-50.8,21.6c2.5-1.3,4.9-2.7,7.3-4.1
	c11.5-6.8,24.4-19.4,27.8-32.7c2.3,0.3,5,0.9,7.2,0.6c0.6-0.4,1-0.6,1.2-1.4c0.2-1-0.2-2.2-0.7-3c-0.6-0.9-1.5-1.3-2.5-1.5
	c-2.1-0.2-12.4,2.7-15.2,3.2c-10.2,1.9-20.1,2.6-30.4,3.2c-14.4,1-28.9,1.3-43.4,1c-14.4-0.2-29.1-0.3-43.4-2.2
	c-8.6-1.1-17.1-3.9-25.7-5.3l-0.2-0.5c0.3-1,4.3-0.8,5.2-0.8c12.8-0.6,27.6-2.4,38.2-10.2c15.2-11.3,19.8-31.3,22.4-49
	c2.7-0.6,9.4-1.5,11.8-0.1c2.7,1.5,1.8,6.2,2.4,8.8c0,0.1,0.1,0.2,0.1,0.3c1.1,14.4,6.3,29.9,17.6,39.5
	c13.7,11.6,42.1,12.1,59.2,10.5c13.6-1.3,21.6-3.4,30.5-14.3c0.6-0.7,1.2-1.5,1.7-2.2c0.5,0,0.7,0,1.1,0.1c1.7-4.1,3.9-7.2,6.6-10.6
	c-0.1-0.3-0.1-0.5-0.1-0.8c-0.2-1.8,0.7-3.1,1.7-4.4c3.1-5.9,4-13.2,4.4-19.8c17.3,0.6,35.1,10,52,13.4c3.5-0.8,8.2-2,11.1-4.3
	c1-0.8,1.7-1.9,2.8-2.6c0.6-0.4,1.5-0.1,2.2,0.1c1.1,2.4,2.8,5.4,3.4,7.9c0.8,1.5,1.6,3.1,2.4,4.6c0.4,0.6,0.8,1.2,1.3,1.8
	c2.4,3.1,5.6,5.4,9.7,5.8c6.2,0.6,13.3-2.7,18-6.6c17.2-14.4,25-41.3,27.1-62.9l-0.2-0.6c-8.9,4.1-14.6,2.2-23.5-0.7
	c-11.5-4.7-22.4-12.4-29.5-22.7c-4.9-7.1-9.1-16.7-10.4-25.2c-0.7-4.7-0.6-9.7-0.6-14.4C336.3,118.4,336.2,114.4,336.8,110.8z"/>
<path class="st18" d="M322.6,241.8c3.5-0.8,8.2-2,11.1-4.3c1-0.8,1.7-1.9,2.8-2.6c0.6-0.4,1.5-0.1,2.2,0.1c1.1,2.4,2.8,5.4,3.4,7.9
	l-0.3,0.1c-1.5-1.5-2.6-5-3.5-7c-2.2,1.6-4,4-6.7,4.8c-1.8,0.5-4.8-0.5-6.1,0.8c1.6,1.1,5.6,0.1,9,2.9v0.3c-1.3,0-2.3-1.5-3.6-1.9
	C328.3,242.2,325.2,242.1,322.6,241.8z"/>
<path class="st7" d="M378.9,262.2c1-8.3,1.6-8.2,6.5-14.5c0.5,3.8-0.5,8.1-2.8,11.1C381.6,260.1,380.3,261.2,378.9,262.2z"/>
<path class="st18" d="M273,374.7c0.9,0.1,1.8,0.2,2.7,0.5c4.4,1.6,8.4,4.3,12.6,6.4c4.1,2.1,8.6,3.7,12.4,6.4l-0.2,0.6
	c-1.8,0.1-15.7-6.3-18.6-7.5C278.7,379.2,275.7,377.3,273,374.7z"/>
<path class="st6" d="M387.9,309.8c-0.4-0.2-1-0.6-1.2-0.9c-0.4-0.5-0.6-1.1-0.3-1.8c0.6-1.7,3.2-3,4.7-3.6c2.2-0.8,3.9-1.1,6.1-0.1
	c-1.2,1.3-2.4,3.9-3.1,5.6c-0.1,1.3-0.7,2.6-1.5,3.7c-1.8-0.7-3.1-1.5-4.6-2.7L387.9,309.8z"/>
<path class="st18" d="M394,309.1c-0.1,1.3-0.7,2.6-1.5,3.7c-1.8-0.7-3.1-1.5-4.6-2.7v-0.2C390.1,309.9,391.9,309.7,394,309.1z"/>
<path class="st6" d="M368.3,305c2.3-0.1,4.8,0,7,0.8c1.5,0.5,4.2,1.9,4.7,3.6c0.2,0.7,0.3,1.2-0.1,1.8c-0.8,1.5-2.9,2.4-4.4,2.9
	c-2.9,0.2-6.4,0.5-9-0.9c-1.3-0.7-2.5-1.8-2.9-3.3c-0.2-0.9-0.1-1.7,0.4-2.5C365,305.9,366.5,305.3,368.3,305z"/>
<path class="st6" d="M363.2,287.1c1.4-0.1,2.8-0.1,4.3-0.1c2.7,0,7.2-0.1,9.1,2.1c0.8,0.9,1,2,0.9,3.2c-0.1,1.8-1.4,2.8-2.6,3.9
	c-2.2,0.6-4.7,0.5-7,0.2c-2.1-0.2-4.7-0.7-6.1-2.5c-0.9-1.2-1-2.8-0.7-4.2C361.3,288.4,362.1,287.8,363.2,287.1z"/>
<linearGradient id="SVGID_00000111876963844593554870000003090631769823093637_" gradientUnits="userSpaceOnUse" x1="282.9636" y1="572.1942" x2="288.5938" y2="553.8406" gradientTransform="matrix(1 0 0 1 0 -256)">
	<stop  offset="0" style="stop-color:#057DBC"/>
	<stop  offset="1" style="stop-color:#0CB1DC"/>
</linearGradient>
<path style="fill:url(#SVGID_00000111876963844593554870000003090631769823093637_);" d="M263.1,298.9c7.2,7.5,15.4,13.1,26.1,13.4
	c9.5,0.2,16-3.4,22.8-9.7c-0.1,2.5-1.4,5.1-3,7c-4,4.6-10.6,7.3-16.6,7.6c-8.6,0.4-16.3-1.5-22.7-7.4
	C266.9,307.3,263.2,302.8,263.1,298.9z"/>
<path class="st2" d="M327.1,323.5c14.4,1.2,24,10.7,35.5,18.3c4.7,3.1,9.5,6.3,14.4,9c2.6,1.4,5.4,2.6,8.1,3.9l-0.4,0.5
	c-1.5-0.1-3,0.1-4.5-0.1c-2.9-0.4-5.7-1.6-8.4-2.7c-3.8-1.6-7.5-3.4-11-5.5c-7.8-4.8-14.8-10.5-23.1-14.6c-4.9-2.4-10.4-3-15.6-4.7
	C323.6,325.7,324.9,324.5,327.1,323.5z"/>
<path class="st2" d="M336.8,110.8c0-1-0.1-1.9,0.1-2.9c1.5,0.8,2.6,2.3,3.9,3.3c3.4,2.7,8.3,5,12.4,6.3c7.3,2.3,14.7,2.2,22.2,3.4
	c12.6,2,26.9,9.3,32.9,21.1c0,0.1,0.1,0.1,0.1,0.2c-1.2,2-0.7,4.9-0.4,7.1c-2.1-3.1-4.2-6.3-6.8-9.1c-2.4-2.6-5.4-4.6-8.4-6.3
	c-9.5-5.5-17.5-6.2-28-7.6c-6.9-0.9-12.5-2-18.4-6C342.6,117.8,339.9,114.2,336.8,110.8z"/>
<path class="st25" d="M376.7,184.3c2-0.3,9.8,2.1,12.9,2.5c1.3,0.2,3.7,0.7,4.8-0.2v-0.5c-1.1-0.2-2.3-0.3-3.2-0.8
	c0-0.2,0-0.5-0.1-0.7c-0.2-0.5-0.4-0.8-0.9-1c-3.3-1.2-8.2-1-11.8-3.1c-2.6-1.5-5.5-2.3-8.1-3.6c-2-1-3.8-2.4-5.5-3.8
	c-5.8-4.5-11.8-9.9-15.9-16.1c-1-1.5-1.6-3.2-2.4-4.7c-1.1-2.1-2.1-3.9-2.7-6.3c-1.2-4.2-1.7-9.2-2.3-13.5c0.9,0.6,0.4,3,1.5,3.8
	l0.5-0.3c0.2-1.3-1.1-2.3-0.9-3.7l-0.4,0.1l0.6-0.1c0.1,2.1,1.6,4.9,2.5,6.8c4.9,10.4,14.1,20.6,24.3,25.9c4.8,2.5,10.1,4.2,15.2,6
	c6.3,2.2,12.8,5.6,15.8,11.9c0,0.8,0,1.8-0.2,2.6l-0.2-0.6C391.3,189.1,385.6,187.2,376.7,184.3z"/>
<path class="st25" d="M337,374.7c2.9-1,8.3,0.6,11.7,0.5l0.1-0.5c-0.4-0.2-0.2,0-0.6-0.5l0.2-1.3l-0.2-0.2c-2.1,0.5-6.2,0.2-8.2-0.5
	c-2.8-1-5.8-1.2-8.5-2.1c-11-3.8-21.8-10.9-28.2-20.8c-1.8-2.7-3-5.8-4.4-8.7c4,2,6.4,5.1,9.7,8c8.8,8,20.1,13,31.8,15
	c15.2,2.7,31.6,0.6,44.4-8.4l0.4-0.5c1.2,0.5,2.3,1.1,3.3,1.8c-5.3,9.3-17.7,15-27.6,17.7C353.5,376.3,344.4,376.3,337,374.7z"/>
<path class="st2" d="M400.6,183c0.7,0.2,1.1,0.1,1.5,0.8c0.8,1.6,0.5,4.7,0.5,6.4c-0.6,14.1-5.8,34.3-11.6,47.1
	c-1.6,3.5-3.2,7.2-5.6,10.2c-4.9,6.4-5.5,6.2-6.5,14.5c-2.2,1.8-4.5,3.5-7.1,4.5c-4.8,1.9-9.7,1.2-14.3-0.9
	c-5.2-2.4-11.6-8.7-13.5-14c-0.5-1.6-0.3-2.9,0.4-4.3c0.4,0.6,0.8,1.2,1.3,1.8c2.4,3.1,5.6,5.4,9.7,5.8c6.2,0.6,13.3-2.7,18-6.6
	c17.2-14.4,25-41.3,27.1-62.9C400.7,184.9,400.6,183.8,400.6,183z"/>
<path class="st5" d="M269.4,249c7-4.9,15.9-8.1,24.5-6.6c8.3,1.5,16.9,7,21.7,14c5.3,7.7,7.7,18.4,5.9,27.6
	c-1.3,6.9-5.1,13.4-9.5,18.7c-6.8,6.3-13.3,9.9-22.8,9.7c-10.8-0.3-19-5.9-26.1-13.4c-1.7-2.1-3.1-4.5-4.3-7
	c-4.3-9-4.1-18.6-0.8-27.9c1.7-4.1,3.9-7.2,6.6-10.6c-0.1-0.3-0.1-0.5-0.1-0.8c-0.2-1.8,0.7-3.1,1.7-4.4
	C267.1,249,268.3,248.9,269.4,249z"/>
<path class="st18" d="M264.6,253.4c-0.1-0.3-0.1-0.5-0.1-0.8c-0.2-1.8,0.7-3.1,1.7-4.4c0.9,0.8,2.1,0.7,3.2,0.7
	C267.7,250.4,266.1,251.8,264.6,253.4z"/>
<path class="st19" d="M263.6,283.7c1.7,1.1,3.4,4.4,4.5,6.1c5.1,8.1,13.4,12.6,23.1,12.5c2.2-0.6,4.4-1.5,6.6-2.3
	c5.1-2.4,7.6-4.7,11.6-8.6c0.8-0.8,1-0.6,2-0.7c-0.7,1.4-1.4,2.7-2.3,3.9c-3.7,5.4-9.6,8.8-16,9.9c-6.6,1.1-13.7-0.7-19.1-4.6
	c-0.3-0.2-0.7-0.5-1-0.7c-0.3-0.3-0.6-0.5-1-0.8c-0.3-0.3-0.6-0.5-0.9-0.8s-0.6-0.6-0.9-0.9s-0.6-0.6-0.8-0.9
	c-0.3-0.3-0.5-0.6-0.8-1c-0.3-0.3-0.5-0.7-0.7-1s-0.5-0.7-0.7-1s-0.4-0.7-0.6-1.1s-0.4-0.7-0.6-1.1s-0.4-0.7-0.5-1.1
	c-0.2-0.4-0.3-0.8-0.5-1.1c-0.1-0.4-0.3-0.8-0.4-1.2c-0.1-0.4-0.2-0.8-0.3-1.2c-0.1-0.4-0.2-0.8-0.3-1.2
	C263.8,284.5,263.7,284.1,263.6,283.7z"/>
<path class="st0" d="M298.4,300.4c0.9-0.4,1.9-1,2.9-0.9l0.1,0.4c-1,1.2-1.9,1.7-3.4,2.2c-0.7-0.1-1.1,0-1.6-0.5
	C296.8,301,297.6,300.8,298.4,300.4z"/>
<path class="st2" d="M263.6,283.7c-1.4-8-0.6-15.7,4.1-22.4c3.9-5.7,9.6-9.7,16.5-11c7.2-1.3,13.8,0.1,19.9,4.3
	c5,3.5,9.5,12.4,10.5,18.5c1,6.4-0.4,12.1-3.2,17.8c-1,0-1.3-0.1-2,0.7c-3.9,4-6.4,6.2-11.6,8.6c-2.2,0.8-4.4,1.6-6.6,2.3
	c-9.6,0.1-18-4.5-23.1-12.5C267,288.1,265.3,284.7,263.6,283.7z"/>
<path class="st5" d="M289.1,254.5c2.3,0,4.3,0.5,6.5,1.1c-0.4,0.3-0.8,0.5-1.2,0.8c-2,1.5-3.1,4.3-3.4,6.7c-0.3,2.8,0.5,5.4,2.3,7.6
	c0.1,0.1,0.2,0.3,0.3,0.4c0.1,0.1,0.2,0.2,0.3,0.4c0.1,0.1,0.2,0.2,0.4,0.3c0.1,0.1,0.3,0.2,0.4,0.3c0.1,0.1,0.3,0.2,0.4,0.3
	c0.1,0.1,0.3,0.2,0.4,0.3c0.1,0.1,0.3,0.2,0.4,0.3c0.1,0.1,0.3,0.2,0.4,0.2c0.1,0.1,0.3,0.1,0.5,0.2s0.3,0.1,0.5,0.2
	s0.3,0.1,0.5,0.2s0.3,0.1,0.5,0.1s0.3,0.1,0.5,0.1s0.3,0.1,0.5,0.1s0.3,0,0.5,0.1c0.2,0,0.3,0,0.5,0c3.8,0.2,6.3-2,8.9-4.5
	c1.1,4.5,1.3,8.8,0,13.3c-1.8,5.9-6,10.2-11.4,13c-2.2,1-4.4,1.6-6.8,1.8c-5.5,0.4-10.5-1-14.7-4.6c-4.5-3.9-7.4-10.1-7.8-16
	c-0.4-5.8,1.7-11.3,5.6-15.7C278,257,283,254.8,289.1,254.5z"/>
</svg>
