<svg xmlns="http://www.w3.org/2000/svg" xml:space="preserve" viewBox="0 0 512 512"><path d="M247 406.4c-32.4 16.9-66.4 28-101.2 33 .9-.2 1.9-.5 2.8-.7.2-.1.4-.1.6-.2 1-.3 2-.5 3-.8.1 0 .2-.1.4-.1.9-.2 1.8-.5 2.6-.7.2-.1.4-.1.5-.2.9-.3 1.8-.5 2.7-.8.2-.1.4-.1.6-.2.8-.3 1.7-.5 2.5-.8.1 0 .1 0 .2-.1 1.2-.2 2.5-.5 3.7-.7.5-.1 1-.2 1.6-.3 1-.2 2-.4 2.9-.6.8-.2 1.6-.3 2.3-.5.9-.2 1.9-.4 2.8-.7.8-.2 1.6-.4 2.5-.6s1.8-.5 2.7-.7c.8-.2 1.7-.4 2.5-.7.9-.2 1.8-.5 2.7-.8.9-.2 1.7-.5 2.6-.7.9-.3 1.8-.5 2.6-.8.9-.3 1.7-.5 2.6-.8s1.7-.6 2.6-.9 1.7-.6 2.6-.9 1.7-.6 2.6-.9 1.7-.6 2.6-.9c.8-.3 1.7-.6 2.5-1 .9-.3 1.8-.7 2.6-1s1.7-.7 2.5-1c.9-.4 1.8-.7 2.6-1.1.8-.3 1.7-.7 2.5-1.1l2.7-1.2c.8-.4 1.6-.7 2.5-1.1l2.7-1.2 2.4-1.2c.9-.4 1.8-.9 2.7-1.3l2.4-1.2c.9-.5 1.8-.9 2.7-1.4l2.4-1.2 2.7-1.5c.8-.4 1.5-.8 2.3-1.3.6-.3 1.2-.7 1.8-1 1.1.8 2.2 1.4 3.4 1.9M174.1 425c.3-.1.7-.2 1-.2.5-.1 1-.2 1.5-.4 1.2-.3 2.3-.6 3.5-.9.4-.1.9-.2 1.3-.4 1.6-.4 3.1-.9 4.6-1.3.2-.1.4-.1.6-.2 1.4-.4 2.7-.8 4.1-1.3.5-.2 1-.3 1.4-.5 1.1-.4 2.2-.7 3.4-1.1.5-.2.9-.3 1.4-.5 1.5-.5 3-1.1 4.5-1.6h.1c1.5-.6 3.1-1.2 4.6-1.8.5-.2.9-.4 1.4-.6 1.1-.4 2.2-.9 3.3-1.4l1.5-.6c1.3-.5 2.6-1.1 3.9-1.7.2-.1.5-.2.7-.3l4.5-2.1c.5-.2.9-.4 1.4-.6 1.1-.5 2.2-1 3.2-1.6.5-.3 1-.5 1.5-.8 1.2-.6 2.3-1.2 3.5-1.8.4-.2.7-.4 1.1-.6 1.3-.7 2.7-1.4 4-2.1-4.1-2.2-8.1-4.4-12.1-6.7-16.2 12.5-32.8 22.9-49.9 31.1m192.1 14.4c-1-.2-1.9-.5-2.9-.7-.2 0-.3-.1-.5-.1-1-.3-2.1-.6-3.1-.8-.1 0-.1 0-.2-.1-1-.3-1.9-.5-2.8-.8-.1 0-.3-.1-.4-.1-.9-.3-1.9-.6-2.8-.8-.2-.1-.4-.1-.5-.2l-2.7-.9c-69.3-12.4-135.7-56.6-187.2-124.3-46.7-61.5-74.6-135.2-74.6-197.1v-5c0-.7 0-1.4.1-2l-15.9-5.7v.2c-.2 1.9-.3 3.9-.4 5.8v.4c-.1 1.9-.2 3.8-.2 5.7v.6c-1.2 58.3 23.8 126.7 67.8 185.5.1.1.1.2.2.2 1.5 2.1 3.1 4.1 4.7 6.1l.1.1c1.6 2.1 3.3 4.1 4.9 6.2 1.8 2.2 3.6 4.3 5.4 6.5.2.2.3.4.5.6 1.4 1.7 2.8 3.3 4.3 4.9.9 1 1.7 2 2.6 2.9.5.6 1.1 1.2 1.6 1.8 33.6 36.7 73.7 66.4 117.1 86.1l-.1.1c27.1 12.2 55.7 20.7 85 24.9m-174-74c-15.1-13-29.3-27.3-42.4-42.6-.1-.1-.2-.2-.3-.4-1.7-1.9-3.3-3.9-4.9-5.9-.1-.2-.3-.3-.4-.5-.2-.3-.4-.5-.6-.8-1.3-1.6-2.6-3.2-3.9-4.9-.4-.5-.8-1-1.1-1.5-1.3-1.6-2.5-3.3-3.8-4.9-.3-.5-.7-.9-1-1.4-1.3-1.8-2.6-3.5-3.9-5.3-.2-.3-.5-.7-.7-1-1.5-2.1-2.9-4.1-4.4-6.2 0-.1-.1-.1-.1-.2-3-4.4-6-8.8-8.8-13.4-2.8-4.5-5.5-9.1-8.2-13.6-.1-.2-.3-.4-.4-.7-1.1-2-2.3-4-3.4-6-.2-.3-.3-.6-.5-.9-1.2-2.1-2.3-4.3-3.4-6.4-.1-.1-.1-.2-.2-.4-1.1-2.1-2.1-4.1-3.1-6.2-.6-1.2-1.2-2.5-1.8-3.7-.4-.8-.7-1.5-1.1-2.3-.7-1.6-1.5-3.2-2.2-4.7-.1-.2-.2-.5-.3-.7-3.7-8.3-7.1-16.7-10.1-25.1-7.2-20.2-12-40.3-14.5-59.7v-.2c-.6-4.9-1.1-9.8-1.4-14.6 0-.7-.1-1.4-.1-2-.1-1.1-.1-2.2-.1-3.3 0-1-.1-2-.1-2.9 0-1 0-2-.1-2.9v-5.9c0-1.9.1-3.9.2-5.8 0-.4 0-.8.1-1.2.1-1.6.2-3.2.3-4.7.1-.7.1-1.3.2-2 .1-.8.1-1.5.2-2.3L0 72.6c5.4 112.2 91.4 223.1 192.2 292.8m95.9 28.6-1.9-1.5c-.3-.2-.6-.5-.9-.7l-2.1-1.7-3.7-3c-1.3-1.1-2.6-2.2-4-3.4l-2.2-1.9-3.2-2.8c-5.7-5.2-11.3-10.6-16.8-16.3l-2.4-2.5.1-.1c-60-63.8-96.4-151.5-96.4-224.8 0-3.1.1-6.2.3-9.2l-59.4-17.5v4.7c0 60.4 27.4 132.4 73.2 192.8 1.5 2 3.1 4 4.6 6 .5.7 1 1.3 1.6 1.9 1 1.3 2.1 2.6 3.1 3.9.6.8 1.3 1.5 1.9 2.3 1 1.1 1.9 2.3 2.9 3.4l2.1 2.4c.9 1.1 1.9 2.1 2.8 3.2.7.8 1.4 1.6 2.2 2.4.9 1 1.8 2 2.8 3 .7.8 1.5 1.6 2.2 2.4.9 1 1.8 2 2.8 2.9.8.8 1.5 1.6 2.3 2.4.9.9 1.8 1.9 2.8 2.8.8.8 1.6 1.5 2.3 2.3.9.9 1.9 1.8 2.8 2.7.8.8 1.6 1.5 2.4 2.3.9.9 1.9 1.8 2.8 2.7.8.7 1.6 1.5 2.4 2.2 1 .9 1.9 1.7 2.9 2.6l2.4 2.1c1 .9 2 1.7 3 2.6.8.7 1.6 1.3 2.3 2 1 .9 2.1 1.7 3.1 2.6.8.6 1.5 1.2 2.3 1.8 1.1.9 2.3 1.8 3.4 2.7.7.5 1.3 1 2 1.6 1.8 1.4 3.6 2.7 5.4 4.1.4.3.9.6 1.4 1l4.2 3c.7.5 1.5 1 2.3 1.5 1.1.8 2.2 1.5 3.3 2.3.8.6 1.7 1.1 2.5 1.6 1 .7 2.1 1.4 3.1 2 .9.6 1.7 1.1 2.6 1.6 1 .6 2.1 1.3 3.1 1.9.9.5 1.8 1.1 2.7 1.6 1 .6 2 1.2 3.1 1.8l2.7 1.5c1 .6 2 1.1 3.1 1.7.9.5 1.8 1 2.8 1.5s2 1.1 3.1 1.6c.9.5 1.8.9 2.8 1.4s2.1 1 3.1 1.5c.9.4 1.9.9 2.8 1.3 1 .5 2.1 1 3.1 1.4.9.4 1.9.8 2.8 1.2 1.1.5 2.1.9 3.2 1.4l2.7 1.2c1.1.4 2.2.9 3.3 1.3.9.4 1.8.7 2.7 1.1 1.1.4 2.3.9 3.4 1.3.8.3 1.7.6 2.5.9 1.3.5 2.6.9 3.9 1.3.7.2 1.4.5 2.1.7 2 .6 4 1.3 6 1.9.6.2 1.2.3 1.8.5 1.4.4 2.9.8 4.3 1.2l2.4.6c1 .3 2.1.5 3.1.8-17.8-8.4-34.5-18.9-50.2-31M512 72.6l-65.8 25.5c0 .3 0 .5.1.8.1.8.1 1.6.2 2.3s.1 1.4.2 2.1c.1.8.1 1.6.2 2.4 0 .7.1 1.4.1 2.1 0 .8.1 1.6.1 2.4 0 .7.1 1.4.1 2.2v9.2c0 .8 0 1.6-.1 2.5 0 .7 0 1.5-.1 2.2 0 .8-.1 1.6-.1 2.5 0 .7-.1 1.5-.1 2.2-.1.8-.1 1.7-.2 2.5-.1.7-.1 1.5-.2 2.2-.1.8-.1 1.7-.2 2.5-.1.7-.1 1.5-.2 2.2-.1.9-.2 1.7-.3 2.6-.1.7-.2 1.5-.3 2.2-.1.9-.2 1.7-.3 2.6-.1.7-.2 1.4-.3 2.2-.1.9-.3 1.8-.4 2.7l-.3 2.1c-.1.9-.3 1.8-.4 2.7-.1.7-.2 1.4-.4 2.1-.2.9-.3 1.8-.5 2.8-.1.7-.3 1.4-.4 2.1-.2.9-.4 1.9-.6 2.8-.1.7-.3 1.3-.4 2-.2 1-.4 1.9-.6 2.9-.1.7-.3 1.3-.5 2-.2 1-.5 2-.7 3-.2.6-.3 1.3-.5 1.9-.3 1-.5 2.1-.8 3.1-.2.6-.3 1.2-.5 1.8-.3 1.1-.6 2.1-.9 3.2-.2.6-.3 1.1-.5 1.7-.3 1.1-.6 2.2-1 3.3-.2.5-.3 1-.5 1.6-.4 1.1-.7 2.3-1.1 3.4-.2.5-.3.9-.5 1.4l-1.2 3.6c-.1.4-.3.8-.4 1.2-.4 1.3-.9 2.5-1.3 3.8-.1.3-.2.7-.4 1-.5 1.3-1 2.7-1.5 4-.1.2-.2.5-.3.7-.5 1.4-1.1 2.9-1.7 4.3 0 .1-.1.2-.1.3-4.6 11.5-9.9 23-15.9 34.4-1.4 2.6-2.8 5.3-4.3 7.9-.1.2-.2.3-.3.5-4.5 8-9.3 15.8-14.4 23.5 0 .1-.1.1-.1.2-3.4 5.1-6.9 10.2-10.6 15.2l-.1.1c-18.5 25.2-40 48.4-63.7 68.4 113.5-76.4 189.9-190.9 195-295.1m-96.7 153.9s0-.1 0 0l2.1-4.8c0-.1.1-.1.1-.2.7-1.5 1.3-3.1 1.9-4.6 0-.1.1-.2.1-.3l1.8-4.5c.1-.2.1-.3.2-.5.6-1.5 1.1-2.9 1.7-4.4.1-.2.1-.4.2-.6.5-1.4 1-2.9 1.5-4.3.1-.2.2-.4.2-.7.5-1.4 1-2.8 1.4-4.2.1-.3.2-.5.2-.8.4-1.4.9-2.7 1.3-4.1.1-.3.2-.6.3-.8.4-1.3.8-2.7 1.2-4l.3-.9c.4-1.3.7-2.6 1.1-3.9.1-.3.2-.7.3-1 .3-1.3.7-2.6 1-3.8.1-.4.2-.7.3-1.1.3-1.3.6-2.5.9-3.8.1-.4.2-.8.3-1.1.3-1.2.6-2.5.8-3.7l.3-1.2c.3-1.2.5-2.4.7-3.6.1-.4.2-.8.2-1.3.2-1.2.4-2.4.7-3.6.1-.4.2-.9.2-1.3.2-1.2.4-2.3.6-3.5.1-.4.1-.9.2-1.3.2-1.2.3-2.3.5-3.5.1-.5.1-.9.2-1.4.1-1.1.3-2.3.4-3.4.1-.5.1-.9.2-1.4.1-1.1.2-2.2.3-3.4 0-.5.1-1 .1-1.4l.3-3.3c0-.5.1-1 .1-1.5.1-1.1.1-2.2.2-3.3 0-.5.1-1 .1-1.5.1-1.1.1-2.2.1-3.3 0-.5 0-1 .1-1.5v-9.3c0-1.1-.1-2.2-.1-3.3v-1.3c-.1-1.2-.1-2.3-.2-3.5 0-.4 0-.8-.1-1.1-.1-1.3-.2-2.6-.3-3.8 0-.2 0-.5-.1-.7v-.1l-15.9 5.7c0 .6 0 1.3.1 2v5.2c0 43.8-14.1 94.6-39.8 142.8-.8 1.5-1.7 3.1-2.5 4.6-.3.5-.6 1-.8 1.5-.6 1-1.1 2.1-1.7 3.1-.3.6-.7 1.2-1 1.8-.5.9-1.1 1.9-1.6 2.8-.4.6-.7 1.3-1.1 1.9-.5.9-1 1.7-1.5 2.6-.4.7-.8 1.3-1.2 2-.5.8-1 1.7-1.5 2.5-.4.7-.8 1.3-1.2 2l-1.5 2.4c-.4.7-.9 1.3-1.3 2l-1.5 2.4c-.4.7-.9 1.3-1.3 2-.5.8-1 1.6-1.6 2.3-.4.7-.9 1.3-1.4 2-.5.8-1 1.5-1.6 2.3-.5.7-.9 1.3-1.4 2-.5.8-1.1 1.5-1.6 2.3-.5.7-.9 1.3-1.4 2s-1.1 1.5-1.6 2.2-1 1.3-1.4 2c-.5.7-1.1 1.5-1.6 2.2-.5.6-1 1.3-1.5 1.9-.6.7-1.1 1.4-1.7 2.2-.5.6-1 1.3-1.5 1.9-.6.7-1.1 1.4-1.7 2.1-.5.6-1 1.3-1.5 1.9-.6.7-1.1 1.4-1.7 2.1-.5.6-1 1.2-1.5 1.9-.6.7-1.2 1.4-1.7 2.1l-1.5 1.8-1.8 2.1c-.5.6-1 1.2-1.6 1.8-.6.7-1.2 1.4-1.8 2-.5.6-1.1 1.2-1.6 1.8-.6.7-1.2 1.3-1.8 2-.5.6-1.1 1.2-1.6 1.8-.6.7-1.2 1.3-1.8 2-.5.6-1.1 1.1-1.6 1.7-.6.7-1.3 1.3-1.9 2-.5.6-1.1 1.1-1.6 1.7-.6.7-1.3 1.3-1.9 2-.5.6-1.1 1.1-1.6 1.6l-1.9 1.9-1.6 1.6c-.7.6-1.3 1.3-2 1.9-.5.5-1.1 1-1.6 1.6-.7.6-1.4 1.3-2 1.9-.5.5-1.1 1-1.6 1.5-.7.6-1.4 1.3-2.1 1.9-.5.5-1.1 1-1.6 1.5-.7.6-1.4 1.3-2.1 1.9-.5.5-1.1.9-1.6 1.4-.7.6-1.5 1.3-2.2 1.9-.5.4-1 .9-1.6 1.3-.8.6-1.5 1.3-2.3 1.9-.5.4-1 .8-1.5 1.3-.8.7-1.6 1.3-2.4 2-.5.4-1 .8-1.4 1.2-.8.7-1.7 1.3-2.5 2-.4.4-.9.7-1.3 1.1-.1.1-.2.2-.3.2 1.4 1.2 2.8 2.4 4.3 3.6 57.1-40.5 102.9-97.3 129.2-156.7M275.9 374.6c.2-.2.5-.4.7-.6.7-.5 1.4-1.1 2-1.6s1.2-.9 1.8-1.4c.7-.5 1.3-1.1 2-1.6l1.8-1.5c.7-.5 1.3-1.1 2-1.6l1.8-1.5c.6-.6 1.3-1.1 1.9-1.7.6-.5 1.2-1 1.8-1.6s1.3-1.1 1.9-1.7c.6-.5 1.2-1.1 1.8-1.6.6-.6 1.3-1.1 1.9-1.7.6-.5 1.2-1.1 1.8-1.6.6-.6 1.2-1.1 1.8-1.7s1.2-1.1 1.8-1.7l1.8-1.8c.6-.6 1.2-1.1 1.7-1.7l1.8-1.8 1.7-1.7 1.8-1.8c.6-.6 1.1-1.2 1.7-1.8s1.2-1.2 1.7-1.8c.6-.6 1.1-1.2 1.7-1.8s1.1-1.2 1.7-1.8 1.1-1.2 1.7-1.9c.6-.6 1.1-1.2 1.7-1.8s1.1-1.2 1.7-1.9c.6-.6 1.1-1.2 1.6-1.9.6-.6 1.1-1.3 1.7-1.9.5-.6 1.1-1.2 1.6-1.9.6-.6 1.1-1.3 1.7-1.9.5-.6 1.1-1.3 1.6-1.9.5-.7 1.1-1.3 1.6-2 .5-.6 1-1.3 1.6-1.9.5-.7 1.1-1.3 1.6-2 .5-.6 1-1.3 1.5-1.9.5-.7 1.1-1.4 1.6-2s1-1.3 1.5-1.9c.5-.7 1.1-1.4 1.6-2.1.5-.6 1-1.3 1.5-1.9.5-.7 1-1.4 1.6-2.1.5-.6 1-1.3 1.4-1.9l1.5-2.1c.5-.7.9-1.3 1.4-2l1.5-2.1c.5-.7.9-1.3 1.4-2s1-1.4 1.5-2.2c.5-.7.9-1.3 1.3-2 .5-.7 1-1.5 1.5-2.2.4-.7.9-1.3 1.3-2 .5-.7 1-1.5 1.4-2.2s.9-1.3 1.3-2c.5-.7.9-1.5 1.4-2.2.4-.7.8-1.3 1.3-2s.9-1.5 1.4-2.2c.4-.7.8-1.3 1.2-2 .5-.8.9-1.5 1.4-2.3.4-.7.8-1.3 1.2-2 .4-.8.9-1.5 1.3-2.3.4-.7.8-1.3 1.2-2 .4-.8.9-1.5 1.3-2.3.4-.7.8-1.4 1.1-2 .4-.8.9-1.5 1.3-2.3.4-.7.7-1.4 1.1-2 .4-.8.8-1.5 1.2-2.3.4-.7.7-1.4 1.1-2 .4-.8.8-1.6 1.2-2.3s.7-1.4 1.1-2.1c.4-.8.8-1.6 1.2-2.3.3-.7.7-1.4 1-2.1.4-.8.8-1.6 1.1-2.4.3-.7.7-1.4 1-2.1.4-.8.7-1.6 1.1-2.4.3-.7.6-1.4 1-2.1.4-.8.7-1.6 1.1-2.4l.9-2.1c.4-.8.7-1.6 1-2.4l.9-2.1c.3-.8.7-1.6 1-2.4l.9-2.1c.3-.8.6-1.6 1-2.4.3-.7.6-1.4.8-2.1l.9-2.4c.3-.7.5-1.4.8-2.1l.9-2.4c.3-.7.5-1.4.8-2.1l.9-2.4c.2-.7.5-1.4.7-2.1.3-.8.6-1.6.8-2.4.2-.7.5-1.4.7-2.1.3-.8.5-1.6.8-2.4.2-.7.5-1.4.7-2.1.3-.8.5-1.6.8-2.4l.6-2.1c.2-.8.5-1.6.7-2.4l.6-2.1c.2-.8.5-1.6.7-2.4l.6-2.1.6-2.4c.2-.7.4-1.4.5-2l.6-2.4c.2-.7.3-1.4.5-2l.6-2.4c.2-.7.3-1.4.5-2 .2-.8.3-1.6.5-2.4.1-.7.3-1.4.4-2 .2-.8.3-1.6.5-2.4.1-.7.3-1.4.4-2 .1-.8.3-1.6.4-2.4.1-.7.2-1.4.4-2 .1-.8.3-1.6.4-2.4.1-.7.2-1.4.3-2l.3-2.4c.1-.7.2-1.3.3-2l.3-2.4c.1-.7.2-1.3.2-2l.3-2.4c.1-.6.1-1.3.2-1.9.1-.8.1-1.6.2-2.4.1-.6.1-1.3.2-1.9.1-.8.1-1.6.2-2.4 0-.6.1-1.2.1-1.8.1-.8.1-1.7.1-2.5 0-.6.1-1.2.1-1.7 0-.9.1-1.9.1-2.8v-10.4L357 126.2c.1 2.9.3 6 .3 9.2 0 74.6-37.7 162.4-96.3 224.9 4.8 4.9 9.9 9.7 14.9 14.3"/></svg>