<?xml version="1.0" encoding="utf-8"?>
<!-- Generator: Adobe Illustrator 28.2.0, SVG Export Plug-In . SVG Version: 6.00 Build 0)  -->
<svg version="1.1"
	 id="svg2" xmlns:svg="http://www.w3.org/2000/svg" xmlns:sodipodi="http://sodipodi.sourceforge.net/DTD/sodipodi-0.dtd" xmlns:inkscape="http://www.inkscape.org/namespaces/inkscape" inkscape:export-filename="C:\Projects\xpipe\xpipex\app\src\main\resources\io\xpipe\app\resources\img\logo\full\logo_32x32.png" sodipodi:docname="logo_app_full.svg"
	 xmlns="http://www.w3.org/2000/svg" xmlns:xlink="http://www.w3.org/1999/xlink" x="0px" y="0px" viewBox="0 0 512 512"
	 style="enable-background:new 0 0 512 512;" xml:space="preserve">
<style type="text/css">
	.st0{fill-rule:evenodd;clip-rule:evenodd;}
</style>
<path class="st0" d="M400.1,0H111.9C50.1,0,0,50.1,0,111.9v288.3C0,461.9,50.1,512,111.9,512h288.3c61.8,0,111.9-50.1,111.9-111.9
	V111.9C512,50.1,461.9,0,400.1,0z M140.5,47.6c7.1-4.5,15.5-6.8,24.8-6.8c48.2,0.4,122.3,56.5,191.1,143.3H356
	C277.9,103,225.7,81.8,207.2,76.9c-5.9-1.9-11.1-2.6-15.5-2.6c-5.9,0-10.8,1.5-14.4,4.5c-4.4,4.1-7.4,12.1-7.4,23.8
	c0,32.1,20.4,89,57.4,150.9L194,298c-47.1-76.9-74.1-150.5-74.1-199.2C119.8,75.5,126.1,56.9,140.5,47.6z M178.4,450H124H98.8
	l88.5-115.4l37.4,47.9L178.4,450z M408.8,447c-7.1,4.5-24.8,6.8-24.8,6.8c-54.8-0.4-105.2-25.3-181.4-135.8L293,193.1l0.7-1.1h71.5
	l-94.4,133.1c51.8,62.6,92.6,83.8,125.6,83.4c1.8,0,3.3,0,5.1-0.4c0.7-0.4,2.2-0.7,3.7-1.1c0,0,0.4-0.4,0.7-0.4
	c0.7-0.4,1.8-0.7,2.9-1.5c0.4,0,1.1-0.4,1.5-0.7c0.4-0.4,1.1-0.7,1.5-1.1s1.1-0.7,1.5-1.1c1.5-1.5,2.9-3,4-4.5
	c4.8-5.2,9.7-11.7,11.9-16.9h0.4c0.4,4.5,0.7,9.1,0.7,13.2C430.3,418.3,423.6,437.1,408.8,447z"/>
</svg>
