<svg xmlns="http://www.w3.org/2000/svg" xml:space="preserve" viewBox="0 0 512 512"><radialGradient id="xpipe_svg__a" cx="-265.863" cy="458.317" r="206" gradientTransform="matrix(1.7339 -1.7906 2.0518 1.987 -205.896 -1110.676)" gradientUnits="userSpaceOnUse"><stop offset="0" style="stop-color:#fff"/><stop offset="1" style="stop-color:#b6b4b4"/></radialGradient><path d="M113 2h286c61.3 0 111 49.7 111 111v286c0 61.3-49.7 111-111 111H113C51.7 510 2 460.3 2 399V113C2 51.7 51.7 2 113 2" style="fill-rule:evenodd;clip-rule:evenodd;fill:url(#xpipe_svg__a)"/><path d="M399 512H113C50.7 512 0 461.3 0 399V113C0 50.7 50.7 0 113 0h286c62.3 0 113 50.7 113 113v286c0 62.3-50.7 113-113 113M113 4C52.9 4 4 52.9 4 113v286c0 60.1 48.9 109 109 109h286c60.1 0 109-48.9 109-109V113C508 52.9 459.1 4 399 4z" style="fill:#434342"/><path d="m355.5 184.7-.2.2C278 104.1 228.7 94.4 210.4 89.3c-5.7-1.6-10.9-2.4-15.4-2.4-6.2 0-11 1.5-14.5 4.4-4.7 3.8-7.5 11.7-7.5 23.4 0 30.7 17.2 83.5 51.2 142.7l2.9-3.7 1 10.1-3.6-5.9c1.2 2 2.3 4 3.5 6l-32.8 45.5c-46.4-76.5-71.8-149.7-71.9-198.1 0-23.3 6.4-41.5 20.7-51 7-4.7 15.4-6.9 24.7-6.9 47.8.3 118.6 45.3 186.8 131.3M194.3 344.6l-94.1 103.7 8.3 9.3 75.7.4 46.4-70zm233.9 35.1h-.2c-2.3 5.1-4.3 22.4-8.9 27.5-1.2 1.5-2.6 3-4.1 4.4-.5.4-1 .7-1.5 1.1s-1 .8-1.5 1.1-.9.6-1.4.9c-1.1.6-2.1 1.1-3 1.4l-.9.3c-1.6.5-2.9.8-3.8 1-1.7.3-3.4.5-5.3.5-32.6.4-73-20.6-124.7-82.8l93.9-131.7h.1l-2.7-10.9-7.9 10.9h-60.4l-.9 1.3-89.5 123.8c75.7 109.4 124 129.3 178.5 129.7 35.6-5.9 44.4-24.5 44.7-54.5 0-4.2-.1-19.5-.5-24"/><path d="m293.3 192.5-.7 1.1-89.7 123.9c75.7 109.6 125.7 134.3 180 134.7 0 0 17.6-2.2 24.6-6.7 14.7-9.7 21.3-28.4 21.3-52.8 0-4.1-.4-8.6-.7-13.1h-.4c-2.2 5.2-7 11.6-11.8 16.8-1.1 1.5-2.6 3-4 4.5-.4.4-1.1.7-1.5 1.1s-1.1.7-1.5 1.1-1.1.7-1.5.7c-1.1.7-2.2 1.1-2.9 1.5-.4 0-.7.4-.7.4-1.5.4-2.9.7-3.7 1.1-1.8.4-3.3.4-5.1.4-32.7.4-73.1-20.6-124.6-82.7l93.7-132.1h-70.8zM166 42.4c-9.2 0-17.6 2.2-24.6 6.7-14.3 9.4-20.6 27.7-20.6 50.9 0 48.3 26.8 121.2 73.5 197.6l33.1-44.2c-36.7-61.4-57-117.9-57-149.7 0-11.6 2.9-19.5 7.3-23.6 3.7-3 8.5-4.5 14.3-4.5 4.4 0 9.6.7 15.4 2.6 18.4 4.9 70.2 25.8 147.7 106.3h.4C287.3 98.6 213.8 42.8 166 42.4m-41 406.1h-25L187.8 334l37.1 47.5-45.9 67z" style="fill:#0b898a"/></svg>