<svg xmlns="http://www.w3.org/2000/svg" xml:space="preserve" viewBox="0 0 512 512"><path d="M256 0C114.6 0 0 114.6 0 256s114.6 256 256 256 256-114.6 256-256S397.4 0 256 0m98.5 192.8c7.9-18.4 14.3-30.7 22.7-44.5 6.5-10.8 19.9-36.2 29.9-37.6 14.3-2.1-7.4 36.6-16 56.8-5.9 13.7-10.1 24.6-17.8 42.7-2.5 6-10.3 14.6-19.3 10.2-7.6-3.8-5-14.8.5-27.6m-43.7-4.6c.5-11 6.5-37.7 8.4-47.3 2.5-12.3 10-41.7 19.5-45.2 9.4-3.4 4 33.4 2 55.2-1.7 18.5-2.7 24.6-6.2 45.1-1.1 6.4-4.3 14.6-14.3 13.5-8.3-1.2-9.7-15-9.4-21.3m82.7 138.4c-12.3 10.8-28.3 20.9-45.6 30.4s-35.3 18.1-49.6 24.8c-31.3 14.6-64.3 28.8-104.9 32.9-110 11.1-98-88.7-93.7-121.7 3.3-25.7 17.1-62.8 19.4-69.5-3-9.5-5.3-17.5-7.2-27.7-1.6-8.6-2.4-18.6-.4-27.2 2-8.5 7.7-18 17.1-21.9 7.5-3.1 13-1.9 20 4.5 5.8 5.2 10.6 13 15.3 21 6.8 11.7 9.5 23.9 15.3 35.8 1.1 2.3 6.9 3.3 10.3 2.4.8-.2 1.7-2.2 1.2-3.7-7.4-25.4-12.8-46.4-9-64.8 3.4-17 18-20.8 28.6-21.2 6.7.5 12.2 3.4 16 8 16.4 19.9 13 54 14.4 80 25.6 1.4 46.7 4.5 74 12.5 20.8 6.1 49.6 16.2 66.4 27.2 16.8 10.9 29.4 25 32 44 1.6 11.5-7.4 23.4-19.6 34.2"/></svg>