<?xml version="1.0" encoding="utf-8"?>
<!-- Generator: Adobe Illustrator 28.2.0, SVG Export Plug-In . SVG Version: 6.00 Build 0)  -->
<svg version="1.1" id="Layer_1" xmlns="http://www.w3.org/2000/svg" xmlns:xlink="http://www.w3.org/1999/xlink" x="0px" y="0px"
	 viewBox="0 0 512 512" style="enable-background:new 0 0 512 512;" xml:space="preserve">
<style type="text/css">
	.st0{fill:#70B700;}
	.st1{fill:#FF7700;}
	.st2{fill:#FF0000;}
	.st3{fill:#0087CB;}
	.st4{fill:#505052;}
</style>
<path class="st0" d="M256,113.9c-10.2,0-18.5-8.3-18.5-18.5V18.5C237.5,8.3,245.8,0,256,0c10.2,0,18.5,8.3,18.5,18.5v76.8
	C274.5,105.6,266.2,113.9,256,113.9z"/>
<path class="st1" d="M493.5,274.5h-76.8c-10.2,0-18.5-8.3-18.5-18.5c0-10.2,8.3-18.5,18.5-18.5h76.8c10.2,0,18.5,8.3,18.5,18.5
	C512,266.2,503.7,274.5,493.5,274.5z"/>
<path class="st2" d="M256,512c-10.2,0-18.5-8.3-18.5-18.5v-76.8c0-10.2,8.3-18.5,18.5-18.5c10.2,0,18.5,8.3,18.5,18.5v76.8
	C274.5,503.7,266.2,512,256,512z"/>
<path class="st3" d="M95.4,274.5H18.5C8.3,274.5,0,266.2,0,256c0-10.2,8.3-18.5,18.5-18.5h76.8c10.2,0,18.5,8.3,18.5,18.5
	C113.9,266.2,105.6,274.5,95.4,274.5z"/>
<path class="st4" d="M298.8,256.1L453.2,79.7c11.7-13.3,10.3-33.6-3-45.3c-13.4-11.7-33.6-10.3-45.3,3L256.1,207.4L107.4,37.4
	c-11.7-13.3-32-14.7-45.3-3c-13.3,11.7-14.7,32-3,45.3l154.4,176.4L59.1,432.6c-11.7,13.3-10.3,33.6,3,45.3
	c6.1,5.3,13.6,7.9,21.1,7.9c8.9,0,17.8-3.7,24.2-11l148.7-169.9l148.7,169.9c6.3,7.3,15.2,11,24.2,11c7.5,0,15-2.6,21.1-7.9
	c13.3-11.7,14.7-32,3-45.3L298.8,256.1z"/>
</svg>
