<svg xmlns="http://www.w3.org/2000/svg" xml:space="preserve" viewBox="0 0 512 512"><path d="M256 113.9c-10.2 0-18.5-8.3-18.5-18.5V18.5C237.5 8.3 245.8 0 256 0s18.5 8.3 18.5 18.5v76.8c0 10.3-8.3 18.6-18.5 18.6M512 256c0-10.2-8.3-18.5-18.5-18.5h-76.8c-10.2 0-18.5 8.3-18.5 18.5s8.3 18.5 18.5 18.5h76.8c10.2 0 18.5-8.3 18.5-18.5M274.5 493.5v-76.8c0-10.2-8.3-18.5-18.5-18.5s-18.5 8.3-18.5 18.5v76.8c0 10.2 8.3 18.5 18.5 18.5s18.5-8.3 18.5-18.5M113.9 256c0-10.2-8.3-18.5-18.5-18.5H18.5C8.3 237.5 0 245.8 0 256s8.3 18.5 18.5 18.5h76.8c10.3 0 18.6-8.3 18.6-18.5m184.9.1L453.2 79.7c11.7-13.3 10.3-33.6-3-45.3-13.4-11.7-33.6-10.3-45.3 3l-148.8 170-148.7-170c-11.7-13.3-32-14.7-45.3-3s-14.7 32-3 45.3l154.4 176.4L59.1 432.6c-11.7 13.3-10.3 33.6 3 45.3 6.1 5.3 13.6 7.9 21.1 7.9 8.9 0 17.8-3.7 24.2-11l148.7-169.9 148.7 169.9c6.3 7.3 15.2 11 24.2 11 7.5 0 15-2.6 21.1-7.9 13.3-11.7 14.7-32 3-45.3z"/></svg>