<?xml version="1.0" encoding="utf-8"?>
<!-- Generator: Adobe Illustrator 28.2.0, SVG Export Plug-In . SVG Version: 6.00 Build 0)  -->
<svg version="1.1" id="Layer_1" xmlns="http://www.w3.org/2000/svg" xmlns:xlink="http://www.w3.org/1999/xlink" x="0px" y="0px"
	 viewBox="0 0 512 512" style="enable-background:new 0 0 512 512;" xml:space="preserve">
<style type="text/css">
	.st0{fill:#FFFFFF;}
</style>
<path class="st0" d="M328.3,168.9h89.5L373.4,51.1L328.3,168.9z M108.8,376.3c-5.3-3.5-11.7-5.3-19.5-5.3c-8.3,0-15.8,2-22.1,6.1
	c-6.3,4-11.5,8.5-15.7,13.6v60.5c3.9,4.8,8.8,8.6,14.8,11.4c5.9,2.8,12.3,4.3,19.2,4.3c12.5,0,22.2-3.9,29-11.8
	c6.7-7.9,10.1-20,10.1-36.3c0-10.6-1.3-19.6-4-26.6C118.2,385,114.1,379.8,108.8,376.3z M0,0v512h512V0H0z M144.1,451.8
	c-4.6,9.6-11.2,17.2-20.1,22.7s-19.7,8.2-32.6,8.2c-17.5,0-31.1-5.1-41-15.3l-1.7,12.6h-21V308.7l24-2.4v67.5
	c5.5-5.8,11.8-10.4,19.1-13.7c7.2-3.2,15.2-4.8,23.8-4.8c13.5,0,24.3,2.6,32.5,7.9c8.2,5.2,14.4,12.6,18.2,22.2
	c3.8,9.5,5.7,20.7,5.7,33.4C150.9,431.2,148.6,442.1,144.1,451.8z M155.2,248h-34.6v-84.6L29,27.8h37.7l71.9,110.3l72.7-110.3h35.4
	l-91.6,135.3V248z M256,300.7c5.3,0,9.5,1.3,12.7,3.9c3.2,2.6,4.8,5.8,4.8,9.6c0,3.9-1.6,7.2-4.8,9.9c-3.2,2.7-7.4,4-12.7,4
	c-5,0-9.2-1.3-12.4-4c-3.2-2.7-4.8-6-4.8-9.9c0-3.8,1.6-7,4.8-9.6C246.8,302,251,300.7,256,300.7z M317.5,480H204.7v-15.5h46.4
	v-91.3h-45v-15.5h69v106.7h42.4V480H317.5z M297.8,248H264l88.2-220.3h43.7L484.2,248h-35.8l-21.7-56.1H319.3L297.8,248z M484.6,480
	h-24v-74.4c0-8.3-0.6-15.1-1.7-20.2c-1.1-5.1-3.5-8.9-7.1-11.2c-3.6-2.3-9.2-3.5-16.9-3.5c-5.9,0-11.4,1-16.7,3.1s-9.8,4.7-13.9,7.8
	s-7.4,6.3-10,9.4V480h-24V357.8h20.4l1.9,17c6.1-6.2,13.8-11,22.9-14.5c9.2-3.3,18.1-5,26.8-5c14.8,0,25.5,3.2,32.2,9.5
	c6.7,6.3,10,15.2,10,26.4V480z"/>
</svg>
