<?xml version="1.0" encoding="utf-8"?>
<!-- Generator: Adobe Illustrator 28.2.0, SVG Export Plug-In . SVG Version: 6.00 Build 0)  -->
<svg version="1.1" id="Layer_1" xmlns="http://www.w3.org/2000/svg" xmlns:xlink="http://www.w3.org/1999/xlink" x="0px" y="0px"
	 viewBox="0 0 512 512" style="enable-background:new 0 0 512 512;" xml:space="preserve">
<style type="text/css">
	.st0{fill:#FFFFFF;}
</style>
<path class="st0" d="M123.8,289c86.1,3.7,149.5,20.3,196.8,41.5c0.3,0.1,0.6,0.3,0.8,0.4c1.4,0.6,2.7,1.2,4.1,1.9
	c0.7,0.3,1.5,0.7,2.2,1c0.8,0.4,1.7,0.8,2.5,1.2c1.1,0.5,2.3,1.1,3.4,1.7c0.4,0.2,0.8,0.4,1.2,0.6c45.2,22.7,74.5,49.5,94.9,71.6
	c-61.2-37.3-108.3-56.5-161.7-66.6c-33-6.3-68.7-8.8-108.1-8.8c-39.8,0-83.3,2.6-131.3,6.6c24-30.9,32-45.5,34.6-51.6
	c18.4-0.4,35.9-0.3,52.6,0.2L123.8,289z M326,287.3c1.6,0.9,3.2,1.7,4.8,2.6c1.3,0.7,2.6,1.5,3.8,2.2c0.7,0.4,1.4,0.8,2.1,1.2
	c16.3,9.6,31.4,20.1,45.1,31.7c20.1,16.9,37.3,35.8,51.5,56.5c-30.5-69.4-87.8-125.9-170.8-168.2c-1.8,7.8-6.8,22-20.3,39.8
	c29.8,8.7,57.4,19.9,82.5,33.4C325.2,286.8,325.6,287.1,326,287.3z M138.1,280.7c0.8,0,1.6,0.1,2.4,0.2c0.9,0.1,1.9,0.1,2.8,0.2
	c2.7,0.2,5.4,0.4,8.1,0.6c0.2,0,0.3,0,0.5,0c28.9,2.3,56.2,6.2,81.8,11.7c0,0,0.1,0,0.1,0c8.3,1.8,16.4,3.7,24.3,5.8
	c0.8,0.2,1.5,0.4,2.3,0.6c1.7,0.5,3.4,0.9,5,1.4c1,0.3,2,0.6,3,0.9c1.4,0.4,2.8,0.8,4.3,1.3c1.1,0.3,2.2,0.7,3.3,1
	c1.3,0.4,2.6,0.8,3.8,1.2c2.4,0.8,4.9,1.6,7.3,2.4c0.8,0.3,1.7,0.6,2.5,0.8c1.4,0.5,2.8,1,4.3,1.5c0.9,0.3,1.7,0.6,2.6,0.9
	c1.4,0.5,2.8,1,4.2,1.6c0.8,0.3,1.7,0.6,2.5,1c1.4,0.5,2.8,1.1,4.2,1.6c0.8,0.3,1.6,0.6,2.4,1c1.4,0.6,2.8,1.1,4.2,1.7
	c0.6,0.3,1.3,0.5,1.9,0.8c2.5,1,5,2.1,7.4,3.2c1,0.5,2.1,0.9,3.1,1.4c1,0.5,2,0.9,3,1.4c1.2,0.6,2.4,1.1,3.6,1.7
	c0.9,0.4,1.7,0.8,2.6,1.3c1.4,0.7,2.8,1.4,4.3,2.1c0.4,0.2,0.8,0.4,1.2,0.6c0.3,0.2,0.6,0.3,0.9,0.5c0.7,0.4,1.5,0.8,2.2,1.1
	c0.9,0.5,1.8,0.9,2.6,1.4c0.8,0.4,1.5,0.8,2.3,1.2c1.5,0.8,2.9,1.6,4.3,2.4c0.1,0.1,0.3,0.2,0.4,0.2c0.9,0.5,1.8,1,2.7,1.5
	c0.2,0.1,0.5,0.3,0.7,0.4c0.5,0.3,0.9,0.5,1.4,0.8c28.1,16.4,49.1,33.9,65.4,50.1c0.3,0.3,0.6,0.5,0.8,0.8c0.2,0.2,0.3,0.3,0.5,0.5
	c3.6,3.6,6.9,7,10,10.4c-0.5-0.9-1-1.7-1.6-2.6c-0.5-0.8-1-1.6-1.5-2.4c-0.3-0.5-0.6-1-1-1.5c-39.8-63.3-101.3-99.1-149.2-118.6
	c-52.4-21.3-98.9-27.7-111.7-29.1C165.4,260,150.3,272.3,138.1,280.7z M395.8,143.3c-45.5-3.7-99.8,4.1-99.8,4.1l-8.2-6.9
	c72.5-19.2,125.6-20,125.6-20L395.8,143.3z M512,85.2l-5.2,5.9c-1.1,1.4-104.1,137.9-126.2,203c-2.4-2.5-4.8-5-7.3-7.5
	c10-26.7,32.1-65.6,65.9-116.2c22.8-34.1,44.9-64.5,54.8-77.8c-3.4-0.1-7.6-0.2-12.7-0.2c-20.1,0-52.2,1.1-91.7,6.3
	c-61.2,8.1-153.4,28.1-244.7,77.5c-6.7,3.6-13.1,7.1-19.8,10.9l-0.1,0.1L19.1,257.4l-8.5,37l44.3,0.5c-1.5,2.5-3.4,5.6-5.8,9.3
	l-44.5-0.5c-0.4,0-0.7,0-1-0.1c-2.5-0.6-4.1-3.1-3.5-5.6l10.4-44.4c0.3-1.1,1-2.1,2-2.8l64.8-43c0-18.4,0.1-34.4,0.1-34.4
	s20.2-21.3,44.1-29.2c-0.9,4.7-4,22.3-6.9,38.8l5.4-3.6c0.2-0.1,0.3-0.2,0.5-0.3c2.8-1.6,5.6-3.2,8.4-4.7c3.7-21,8.5-47.8,8.5-47.8
	s33.4-35.2,65.2-31.9c2.1,0.2,74,4.6,116.7,7.2c25.6-5.8,49-9.7,69.1-12.4c40.1-5.3,72.8-6.4,92.9-6.4c14,0,21.9,0.5,22.1,0.5
	L512,85.2z"/>
</svg>
