<svg xmlns="http://www.w3.org/2000/svg" xml:space="preserve" viewBox="0 0 512 512"><path d="M449.5 424.5c3 2.7 4.6 4.3 4.8 4.4-72.4-169.1-286.6-186.2-286.6-186.2-3.4 12.5-21.6 28.5-43.7 41.8 211.5 9.2 287.6 95.5 325.5 140" style="fill:#41b883"/><path d="M453.3 429c-39.8-46.7-124.1-152.2-393.2-145 0 0-2.2 12.1-41.4 61.4 220.8-19.1 297.1-5.4 434.6 83.6m.9-.1c-10.6-42.9-43.8-147.3-195.1-222.3 0 0-.7 20.1-24.5 49.1 69.2 19.1 173.3 65.1 219.6 173.2" style="fill:#34495e"/><path d="M413.4 120.5s-53.1.8-125.6 20l8.2 6.9s54.3-7.8 99.8-4.1zm90-36.9c-.2 0-8.1-.5-22.1-.5-20.1 0-52.8 1.1-92.9 6.4-20.1 2.7-43.5 6.6-69.1 12.4-42.7-2.6-114.6-7-116.7-7.2-31.8-3.3-65.2 31.9-65.2 31.9s-4.8 26.8-8.5 47.8c-2.8 1.5-5.6 3.1-8.4 4.7-.2.1-.3.2-.5.3l-5.4 3.6c2.9-16.5 6-34.1 6.9-38.8-23.9 7.9-44.1 29.2-44.1 29.2s-.1 16-.1 34.4l-64.8 43c-1 .7-1.7 1.7-2 2.8L.1 298c-.6 2.5 1 5 3.5 5.6.3.1.6.1 1 .1l44.5.5c2.4-3.7 4.3-6.8 5.8-9.3l-44.3-.5 8.5-37L125 187.2l.1-.1c6.7-3.8 13.1-7.3 19.8-10.9 91.3-49.4 183.5-69.4 244.7-77.5 39.5-5.2 71.6-6.3 91.7-6.3 5.1 0 9.3.1 12.7.2-9.9 13.3-32 43.7-54.8 77.8-33.8 50.6-55.9 89.5-65.9 116.2 2.5 2.5 4.9 5 7.3 7.5 22.1-65.1 125.1-201.6 126.2-203l5.2-5.9z" style="fill:#606060"/></svg>