<svg xmlns="http://www.w3.org/2000/svg" xml:space="preserve" viewBox="0 0 512 512"><path d="M232.5.6c-1.6.2-6.8.9-11.5 1.5-24.8 3.2-53.5 12-76.8 23.4C116.5 39 96.7 53.2 74.9 74.9c-40.9 41-66 91.6-73.4 148.4-2 15.5-2 47.4 0 63.7 7.2 57.9 32 108.7 73.4 150 32.1 32.1 69.3 54 111.6 65.8 26 7.3 46.8 9.7 77 8.9 38.1-1 69.5-8.5 103-24.6 43.9-21.2 81.1-54.4 107-95.6 19.2-30.5 32.9-69.5 37.1-106.1 2-16.7 1.4-50-1.1-66.4-8.3-54.7-33.2-104.6-71.5-143.1-6.9-6.9-16-15.3-20.3-18.8-28.1-22.6-64.4-40.9-98.7-49.6-21-5.4-32-6.7-58.5-7-13.7-.2-26.3-.1-28 .1m171.8 117.8c8.7 4.2 11.9 12.6 7.9 20.6-1.9 3.9-2.2 3.9-11.6 2-11-2.2-31.4 1.3-47.2 8-51.4 22-98.4 79.8-121.3 149.1-7.1 21.6-9.4 33.7-11 58-1.4 20.6-2.6 21.9-20.9 21.9-7.5 0-10.4.5-15.4 2.5-3.4 1.4-6.2 2.5-6.3 2.5s-1-1.8-2-3.9l-1.7-4 4.2-6.3c11.6-17.4 21.4-45.2 27.1-77.3 3-17 3.8-48.7 1.5-64.3-5-34.2-19.3-58.7-38.6-66.4-4.5-1.9-7.5-2.3-17-2.3-11 0-11.8.1-18.1 3.3-7.2 3.5-18 13.8-23.4 22.4-1.7 2.7-3.2 4.8-3.5 4.8s-2.4-1.8-4.5-4c-3.9-4-4-4.3-3.9-10.9 0-5.7.6-8 3.3-13.6 6.2-12.5 19.9-23.4 35-27.7 8.9-2.6 26.2-2.7 35.1-.4 32.8 8.8 55.4 45.1 62 99.6.6 5.2 1.3 9.6 1.5 9.8s2-2.8 3.9-6.7c4.6-9 9.1-16.2 17.9-28.1 30.7-41.7 69.9-74.7 102.6-86.4 17.1-6.1 34.6-7 44.4-2.2"/></svg>