<svg xmlns="http://www.w3.org/2000/svg" xml:space="preserve" viewBox="0 0 512 512"><path d="M384 0H128C57.3 0 0 57.3 0 128v256c0 70.7 57.3 128 128 128h256c70.7 0 128-57.3 128-128V128C512 57.3 454.7 0 384 0M270.2 387.9c-3.4 9.2-7.6 16.7-12.5 22.5-4.8 5.9-10.5 10.3-17 13.1q-9.75 4.2-22.5 4.2h-30.5v-36.4h20.9c3.8 0 6.8-.6 9.1-1.7s4.2-3 5.8-5.6c1.7-2.5 3.2-5.9 4.7-10.2l4.5-12-63.4-164.4h48.3l27.7 81.6c3.1 9.6 6.1 19.3 9.1 29.1.7 2.3 1.3 4.6 2 6.8.7-2.3 1.3-4.6 1.9-6.8 2.9-9.8 5.9-19.5 9.1-29.1l27.8-81.6H343z"/></svg>