<?xml version="1.0" encoding="utf-8"?>
<!-- Generator: Adobe Illustrator 28.2.0, SVG Export Plug-In . SVG Version: 6.00 Build 0)  -->
<svg version="1.1" id="Layer_1" xmlns="http://www.w3.org/2000/svg" xmlns:xlink="http://www.w3.org/1999/xlink" x="0px" y="0px"
	 viewBox="0 0 512 512" style="enable-background:new 0 0 512 512;" xml:space="preserve">
<style type="text/css">
	.st0{fill-rule:evenodd;clip-rule:evenodd;}
</style>
<path class="st0" d="M232.1,288.8c-12.8,30.9-43.2,52.6-78.6,52.6H85.1c-47,0-85.1-38.2-85.1-85.3c0-47.1,38.1-85.3,85.1-85.3h68.4
	c35.4,0,65.8,21.7,78.6,52.6H82.6c-18.1,0-32.8,14.7-32.8,32.8v0c0,18.1,14.7,32.8,32.8,32.8H232.1z M424.3,168.2h-70.4
	c-36.9,0-68.4,22.8-81.4,55.1h153.2c18.1,0,32.8,14.7,32.8,32.8v0c0,18.1-14.7,32.8-32.8,32.8H272.5c13,32.2,44.5,55,81.3,55h70.4
	c48.5,0,87.7-39.3,87.7-87.8C512,207.5,472.8,168.2,424.3,168.2z M150.5,256c0-11.6,9.3-21,20.9-21h166.9l0,0
	c11.6,0,20.9,9.4,20.9,21c0,11.6-9.3,21-20.9,21H171.5C159.9,277.1,150.4,267.6,150.5,256z"/>
</svg>
