<svg xmlns="http://www.w3.org/2000/svg" xml:space="preserve" id="yourls_svg__Layer_1" x="0" y="0" version="1.1" viewBox="0 0 512 512"><style>.yourls_svg__st0{fill-rule:evenodd;clip-rule:evenodd;fill:#026090}.yourls_svg__st1{fill:#fff}</style><path d="M353.1 170.4h68.6c47.2 0 85.4 38.3 85.4 85.6 0 47.2-38.2 85.5-85.4 85.5h-68.6c-47.2 0-85.4-38.3-85.4-85.5 0-47.3 38.2-85.6 85.4-85.6m0 54.9c-16.9 0-30.6 13.7-30.6 30.7 0 16.9 13.7 30.7 30.6 30.7h68.6c16.9 0 30.6-13.8 30.6-30.7s-13.7-30.7-30.6-30.7zM91.3 172.9h66.6c45.8 0 82.9 37.2 82.9 83.1s-37.1 83.1-82.9 83.1H91.3c-45.8 0-82.9-37.2-82.9-83.1s37.1-83.1 82.9-83.1m0 53.3c-16.4 0-29.8 13.4-29.7 29.8 0 16.4 13.3 29.8 29.7 29.8h66.6c16.4 0 29.8-13.3 29.7-29.8 0-16.4-13.3-29.8-29.7-29.8z" class="yourls_svg__st0"/><path d="M351.7 178.4c-42.8 0-77.5 34.7-77.5 77.6s34.7 77.6 77.5 77.6h71.4c42.8 0 77.5-34.7 77.5-77.6s-34.7-77.6-77.5-77.6zm0-11.5h71.4c49.1 0 88.9 39.9 88.9 89.1s-39.8 89.1-88.9 89.1h-71.4c-49.1 0-88.9-39.9-88.9-89.1s39.8-89.1 88.9-89.1m0 68.6c-11.3 0-20.4 9.2-20.4 20.5s9.1 20.5 20.4 20.5h71.4c11.3 0 20.4-9.2 20.4-20.5s-9.1-20.5-20.4-20.5zm0-11.4h71.4c17.6 0 31.9 14.3 31.9 31.9s-14.3 31.9-31.9 31.9h-71.4c-17.6 0-31.9-14.3-31.9-31.9s14.2-31.9 31.9-31.9M88.9 178.4c-42.8 0-77.5 34.7-77.5 77.6s34.7 77.6 77.5 77.6h71.4c42.8 0 77.5-34.7 77.5-77.6s-34.7-77.6-77.5-77.6zm0-11.5h71.4c49.1 0 88.9 39.9 88.9 89.1s-39.8 89.1-88.9 89.1H88.9C39.8 345.1 0 305.2 0 256s39.8-89.1 88.9-89.1m0 68.6c-11.3 0-20.4 9.2-20.4 20.5s9.1 20.5 20.4 20.5h71.4c11.3 0 20.4-9.2 20.4-20.5s-9.1-20.5-20.4-20.5zm0-11.4h71.4c17.6 0 31.9 14.3 31.9 31.9s-14.3 31.9-31.9 31.9H88.9C71.3 287.9 57 273.6 57 256s14.3-31.9 31.9-31.9" class="yourls_svg__st1"/><path d="M175.4 287.9c-17.6 0-31.9-14.3-31.9-31.9s14.3-31.9 31.9-31.9H338c17.6 0 31.9 14.3 31.9 31.9s-14.3 31.9-31.9 31.9z" class="yourls_svg__st1"/><path id="yourls_svg__a" d="M175.4 276.5H338c11.3 0 20.4-9.2 20.4-20.5s-9.1-20.5-20.4-20.5H175.4c-11.3 0-20.4 9.2-20.4 20.5-.1 11.3 9.1 20.5 20.4 20.5" class="yourls_svg__st0"/></svg>