<svg xmlns="http://www.w3.org/2000/svg" xml:space="preserve" viewBox="0 0 512 512"><path d="M199.6 383.7c-79-1.5-111-2.9-130.6-5.5-14.4-1.9-21.4-3.8-29.4-7.8-13.2-6.6-21.3-15.9-27.2-30.8C7 326 4.8 315.1 2.8 292.2.5 266.3.3 261.7.1 221.4c-.3-47.4.2-62.9 3.4-94.4 1.6-16.5 4-27.4 8.5-39.1 4.1-10.6 7.8-16.4 14.6-22.9 8.5-8.1 17.9-13 29.6-15.6 17.6-3.9 97.2-6.9 182.8-6.9s165.2 3 182.8 6.9c12.7 2.8 22.1 8 31.2 17.3 7.1 7.3 10.8 13.9 15.2 27.3 4.5 13.8 6.2 26.1 8.8 62.3 1.2 17.2 1.2 96.4 0 113.6-1.4 20.1-3.2 38-4.3 44.5-3 16.5-8.9 31.9-15.5 40.7-4.5 6-13.5 13.2-21 16.8-7.6 3.7-14.8 5.5-26.5 6.6-36.2 3.8-146.5 6.4-210.1 5.2" style="fill:#c2352a"/><circle cx="384" cy="332.8" r="128" style="fill:#03a9f4"/><path d="M249.5 252c67.7-38.5 66.3-37.7 66.3-38.5 0-.7-118.6-68.9-119.1-68.5-.4.3-.5 136-.1 136.4.1.2.6.2.9 0 .3-.1 23.7-13.3 52-29.4m160.1 4v68.3h25.6L384 392.5l-51.2-68.3h25.6V256zm-85.3 136.5h119.5v17.1H324.3z" style="fill:#fff"/></svg>