<svg xmlns="http://www.w3.org/2000/svg" xml:space="preserve" viewBox="0 0 512 512"><path d="M314.4 11.3c48.3-25.2 108.1-6.8 133.5 41s6.9 106.9-41.4 132.1l-39.7 20.9c34.2 1.3 66.8 20 83.9 52.2 25.4 47.8 6.9 106.9-41.4 132.1L197.6 500.7c-48.3 25.2-108.1 6.8-133.5-41s-6.9-106.9 41.4-132.1l39.7-20.9c-34.2-1.3-66.8-20-83.9-52.2-25.4-47.8-6.9-106.9 41.4-132.1 0 .1 211.7-111.1 211.7-111.1M200.1 177.2l128.2 79.1-128.2 78.8z" style="fill:#f40407"/><path d="M200.1 177.2v157.9l128.2-78.8z" style="fill:#fff"/></svg>