<svg xmlns="http://www.w3.org/2000/svg" xml:space="preserve" viewBox="0 0 512 512"><linearGradient id="youtrack-dark_svg__a" x1="63.421" x2="420.477" y1="462.954" y2="105.897" gradientUnits="userSpaceOnUse"><stop offset="0" style="stop-color:#000;stop-opacity:.5"/><stop offset="1" style="stop-color:#000;stop-opacity:.8"/></linearGradient><path d="m119.2 96 87.1-72.5c36.5-30.5 89.4-31.4 127-2.1C357.1 40 370.7 67.5 372.1 96zM96 416V115.3L.7 194.7c-.8.7-1 2-.3 2.8l70.5 84.1L9.8 407.5c-.4.9-.2 1.9.6 2.5l137.4 101.6c.8.6 1.8.6 2.5-.1 8.3-7.8 60.3-54.8 140.8-95.5zm415.9-72-42.4-188.7c-.2-1.1-1.4-1.8-2.5-1.5l-51 14.7v198.7c49.7-14.6 85.3-19.6 94.2-20.8 1.2-.1 2-1.2 1.7-2.4" style="fill:url(#youtrack-dark_svg__a)"/><path d="M96 96v320h320V96zm57 39.9 27.2 47.9 3.2 6.9 3.2-6.9 26.5-47.8h24.8l-43.2 74.9V256h-22.9v-45l-43.9-75H153zM264 376H136v-24h128zm74.6-219h-36.4v99h-23.4v-99h-36.5v-21.1h96.3z"/></svg>