<svg xmlns="http://www.w3.org/2000/svg" xml:space="preserve" viewBox="0 0 512 512"><path d="M382.1 450.2H48.6C21.7 450.2 0 428.5 0 401.6V181.8c.5-8.4 2.7-24.8 14.9-36.1 11-10.2 25.1-11.5 33-12.1 31.5-2.2 103-1.8 196.6 2.4 20.5 1.2 55 6.1 91.8 25.9 13.3 7.1 34.4 18.8 53.6 41.2 33 38.7 38 83.9 38.9 103.9v96.4c0 25.9-20.9 46.8-46.7 46.8m129.8-150.1c.6-28.5-.9-101.5-58.7-164.3-56-60.9-128.2-71.6-155.7-73.9-10.4-.9-19.1 5.5-20 15.9S282.6 97.2 293 98c23.2 1.9 82.1 12 129.2 63.1 48.5 52.8 52.6 114.2 52.2 138.2-.2 10.4 8 19 18.4 19.2h.4c10.1 0 18.5-8.1 18.7-18.4" style="fill:#e73310"/><path d="m299 283.7-139-80.2c-6.8-3.9-15.2 1-15.2 8.8v160.5c0 7.8 8.5 12.7 15.2 8.8l139-80.2c6.7-4 6.7-13.7 0-17.7" style="fill:#fff"/></svg>