<?xml version="1.0" encoding="utf-8"?>
<!-- Generator: Adobe Illustrator 28.2.0, SVG Export Plug-In . SVG Version: 6.00 Build 0)  -->
<svg version="1.1" id="Layer_1" xmlns="http://www.w3.org/2000/svg" xmlns:xlink="http://www.w3.org/1999/xlink" x="0px" y="0px"
	 viewBox="0 0 512 512" style="enable-background:new 0 0 512 512;" xml:space="preserve">
<path d="M261.6,344.6c0-72.3,58.6-130.8,130.8-130.8c37.8,0,71.8,16,95.8,41.7c0.4-31.1,0.2-78.3-0.7-91.3c-2.7-37-4.4-49.6-9-63.7
	c-4.5-13.7-8.3-20.4-15.5-27.9c-9.3-9.5-18.9-14.8-31.9-17.7c-18-4-99.3-7.1-186.8-7.1S75.4,50.9,57.4,54.9
	c-12,2.7-21.6,7.7-30.3,15.9c-6.9,6.6-10.7,12.6-14.9,23.4c-4.6,12-7.1,23.1-8.7,40c-3.3,32.2-3.8,48-3.5,96.5
	c0.2,41.2,0.4,45.9,2.8,72.4c2,23.4,4.3,34.5,9.8,48.4c6,15.2,14.3,24.7,27.8,31.5c8.2,4.1,15.3,6,30,8c20,2.7,52.7,4.1,133.5,5.6
	c19.6,0.4,43.5,0.4,68.5,0.1C265.5,380.7,261.6,363.1,261.6,344.6z M201.8,292c-0.3,0.2-0.8,0.2-0.9,0c-0.4-0.4-0.3-139.1,0.1-139.4
	c0.5-0.4,121.7,69.3,121.7,70c0,0.8,1.4,0-67.8,39.3C226,278.4,202.1,291.9,201.8,292z M392.4,225c-65.9,0-119.6,53.7-119.6,119.6
	s53.7,119.6,119.6,119.6S512,410.5,512,344.6S458.3,225,392.4,225z M453.5,423H331.4v-17.5h61l-52.3-69.8h26.2v-69.7h52.3v69.8h26.2
	l-52.3,69.7h61.1V423z"/>
</svg>
