<svg xmlns="http://www.w3.org/2000/svg" xml:space="preserve" viewBox="0 0 512 512"><path d="M399.4 114.8H112.6c-41.4 0-75 33.7-75 75v132.4c0 41.4 33.7 75 75 75h286.9c41.4 0 75-33.7 75-75V189.8c0-41.4-33.7-75-75.1-75M320.5 271l-88.3 55.2c-2.9 1.8-6.1 2.7-9.4 2.7-2.9 0-5.9-.7-8.6-2.2-5.6-3.1-9.1-9-9.1-15.4V200.8c0-6.4 3.5-12.3 9.1-15.4s12.5-2.9 17.9.5l88.3 55.2c5.2 3.2 8.3 8.9 8.3 15s-3 11.6-8.2 14.9m78.9-193.8H112.6C50.5 77.2 0 127.7 0 189.8v132.4c0 62.1 50.5 112.6 112.6 112.6h286.9c62.1 0 112.6-50.5 112.6-112.6V189.8c-.1-62.1-50.6-112.6-112.7-112.6m101.6 245c0 56-45.5 101.5-101.5 101.5H112.6c-56 0-101.5-45.5-101.5-101.5V189.8c0-56 45.5-101.5 101.5-101.5h286.9c56 0 101.5 45.5 101.5 101.5z"/></svg>