<svg xmlns="http://www.w3.org/2000/svg" xml:space="preserve" viewBox="0 0 512 512"><path d="m362.4 321.7 20.4.2c53.2 0 96.3-43.1 96.3-96.3s-43.1-96.3-96.3-96.3c-4.8 0-9.6.4-14.2 1.1.2-2.8.4-5.6.4-8.4 0-59.5-48.2-107.7-107.7-107.7-56.9 0-103.5 44.1-107.4 100-5.4-.9-11-1.3-16.6-1.3-57.7 0-104.4 46.7-104.4 104.4C32.9 270.6 73 321 124.3 321l24.6.2" style="fill:#dcebf9"/><linearGradient id="yundera_svg__a" x1="109.148" x2="398.121" y1="436.711" y2="147.738" gradientTransform="matrix(1 0 0 -1 0 514.46)" gradientUnits="userSpaceOnUse"><stop offset="0" style="stop-color:#27b4e1"/><stop offset=".093" style="stop-color:#3da4d5"/><stop offset=".42" style="stop-color:#8870ae"/><stop offset=".69" style="stop-color:#bf4a92"/><stop offset=".891" style="stop-color:#e13281"/><stop offset="1" style="stop-color:#ee2a7b"/></linearGradient><path d="m382.9 336.2-20.6-.2c-7.9-.1-14.3-6.6-14.2-14.5s6.5-14.2 14.4-14.2h.1l20.4.2c45 0 81.8-36.7 81.8-81.9s-36.7-81.9-81.9-81.9c-4 0-8.1.3-12.1.9-4.3.6-8.7-.7-11.9-3.7s-4.9-7.2-4.5-11.6c.2-2.7.3-5.1.3-7.3 0-51.5-41.9-93.3-93.3-93.3-48.8 0-89.6 38.1-93.1 86.7-.3 4-2.2 7.7-5.4 10.2s-7.2 3.6-11.2 2.9c-4.8-.8-9.6-1.1-14.3-1.1-49.7 0-90.1 40.4-90.1 90.1 0 47.5 36 89.2 77 89.2l24.7.2c7.9.1 14.3 6.6 14.2 14.5s-6.7 14.3-14.5 14.2l-24.6-.2c-57.2 0-105.6-54-105.6-117.9 0-65.5 53.3-118.8 118.8-118.8 1.4 0 2.8 0 4.2.1 11-56.5 61-98.8 119.8-98.8 64.9 0 118.2 51 121.8 115 60.9.2 110.3 49.7 110.3 110.6.1 61-49.6 110.6-110.5 110.6" style="fill:url(#yundera_svg__a)"/><path d="m274.8 355.7 84.5-102.8c5.6-6.8 4.6-16.9-2.2-22.4-6.8-5.6-16.9-4.6-22.4 2.2l-84.5 102.8c-5.9 7.2-9.2 16.4-9.3 25.7l-.7 71.2c-15 6.3-25.5 21-25.5 38.2 0 22.8 18.6 41.4 41.4 41.4s41.4-18.6 41.4-41.4c0-17.2-10.5-32-25.5-38.2l.7-70.9c0-2.1.8-4.2 2.1-5.8M256 483.3c-7 0-12.7-5.7-12.7-12.7s5.7-12.7 12.7-12.7 12.7 5.7 12.7 12.7-5.7 12.7-12.7 12.7m-39.4-154.7-63.9-77.7c-5.6-6.8-4.6-16.9 2.2-22.4 6.8-5.6 16.9-4.6 22.4 2.2l63.9 77.7c5.6 6.8 4.6 16.9-2.2 22.4-3 2.4-6.6 3.6-10.1 3.6-4.6 0-9.1-2-12.3-5.8" style="fill:#294056"/></svg>