<?xml version="1.0" encoding="utf-8"?>
<!-- Generator: Adobe Illustrator 28.2.0, SVG Export Plug-In . SVG Version: 6.00 Build 0)  -->
<svg version="1.1" id="Layer_1" xmlns="http://www.w3.org/2000/svg" xmlns:xlink="http://www.w3.org/1999/xlink" x="0px" y="0px"
	 viewBox="0 0 512 512" style="enable-background:new 0 0 512 512;" xml:space="preserve">
<style type="text/css">
	.st0{fill:#8FDFC8;}
</style>
<path class="st0" d="M512,256c0,29.5-9.5,56.7-25.6,78.9c-13.7,18.9-32.3,34.1-53.8,43.8c-16.7,7.5-35.2,11.6-54.7,11.6H0v-54.8
	l0.6-0.6L158,177.5H0v-55.4h236.9v54.8l-0.6,0.6L79,334.9h92.6l215.3,0c0,0,0,0,0,0c39.6-4.5,70.3-38.1,70.3-78.9
	c0-43.8-35.5-79.4-79.3-79.4s-79.3,35.5-79.3,79.4c0,2.7,0.1,5.4,0.4,8l-44.4,44.9c-7-16.2-10.8-34.1-10.8-52.9
	c0-74.2,60-134.3,134.1-134.3S512,181.8,512,256z"/>
</svg>
