<svg xmlns="http://www.w3.org/2000/svg" xml:space="preserve" viewBox="0 0 512 512"><path d="M48 32c-8.8 0-16 7.2-16 16v352H0V48C0 21.5 21.5 0 48 0h428.7c21.4 0 32.1 25.9 17 41l-264 264H304v-33h32v41c0 13.3-10.7 24-24 24H197.6l-55 55H392V192h32v200c0 17.7-14.3 32-32 32H110.6l-56 56H464c8.8 0 16-7.2 16-16V112h32v352c0 26.5-21.5 48-48 48H35.3c-21.4 0-32.1-25.9-17-41l263-263H208v32h-32v-40c0-13.3 10.7-24 24-24h113.4l56-56H120v200H88V120c0-17.7 14.3-32 32-32h281.4l56-56z" style="fill-rule:evenodd;clip-rule:evenodd;fill:#4173e7"/></svg>