<svg xmlns="http://www.w3.org/2000/svg" xml:space="preserve" viewBox="0 0 512 512"><linearGradient id="zen-notes_svg__a" x1="0" x2="512" y1="256" y2="256" gradientUnits="userSpaceOnUse"><stop offset="0" style="stop-color:#f6a50d"/><stop offset=".331" style="stop-color:#f6ab0e"/><stop offset=".751" style="stop-color:#f8ba11"/><stop offset="1" style="stop-color:#f9c714"/></linearGradient><path d="M80 0h352c44.2 0 80 35.8 80 80v352c0 44.2-35.8 80-80 80H80c-44.2 0-80-35.8-80-80V80C0 35.8 35.8 0 80 0" style="fill:url(#zen-notes_svg__a)"/><path d="M89.9 77h213.8c6.6 0 11.9 5.3 11.9 11.9v213.8c0 6.6-5.3 11.9-11.9 11.9H89.9c-6.6 0-11.9-5.3-11.9-11.9V88.9C78 82.3 83.3 77 89.9 77" shape-rendering="crispEdges" style="fill:#fff;fill-opacity:.6"/><path d="M208.8 130.2h213.7c6.6 0 11.9 5.3 11.9 11.9v213.8c0 6.6-5.3 11.9-11.9 11.9H208.8c-6.6 0-11.9-5.3-11.9-11.9V142.1c0-6.5 5.4-11.9 11.9-11.9" shape-rendering="crispEdges" style="fill:#fff;fill-opacity:.8"/><path d="M148.9 197h213.8c6.6 0 11.9 5.3 11.9 11.9v213.8c0 6.6-5.3 11.9-11.9 11.9H148.9c-6.6 0-11.9-5.3-11.9-11.9V208.9c0-6.6 5.3-11.9 11.9-11.9" style="fill:#fff"/><path d="M279.6 368.9h-92.5c-3.9 0-7.1-3.2-7.1-7.1s3.2-7.1 7.1-7.1h92.5c3.9 0 7.1 3.2 7.1 7.1s-3.1 7.1-7.1 7.1m22.6-99.7c0-3.9-3.2-7.1-7.1-7.1h-108c-3.9 0-7.1 3.2-7.1 7.1s3.2 7.1 7.1 7.1H295c4 .1 7.2-3.1 7.2-7.1m30.8 46.3c0-3.9-3.2-7.1-7.1-7.1H187.1c-3.9 0-7.1 3.2-7.1 7.1s3.2 7.1 7.1 7.1h138.8c3.9 0 7.1-3.2 7.1-7.1" style="fill:#fcc438"/></svg>