<?xml version="1.0" encoding="utf-8"?>
<!-- Generator: Adobe Illustrator 28.2.0, SVG Export Plug-In . SVG Version: 6.00 Build 0)  -->
<svg version="1.1" id="Layer_1" xmlns="http://www.w3.org/2000/svg" xmlns:xlink="http://www.w3.org/1999/xlink" x="0px" y="0px"
	 viewBox="0 0 512 512" style="enable-background:new 0 0 512 512;" xml:space="preserve">
<style type="text/css">
	.st0{fill-rule:evenodd;clip-rule:evenodd;}
</style>
<path class="st0" d="M106.2,268l10.5,39.1l-49,49l66.9,17.9l10.5,39.1L0,374.2L106.2,268z M412.3,145.1l-39.1-10.5l-17.9-66.9
	l-49,49l-39.1-10.5L373.4,0L412.3,145.1z M367,473.1l28.6-28.6l66.9,17.9l-17.9-66.9l28.6-28.6L512,512L367,473.1z M248,490.9
	l-8.6-88.6l60.4,16.2L248,490.9z M149.3,155.5l36.8,81.1l44.2-44.2L149.3,155.5z M489.3,246.3l-88.6-8.6l16.2,60.4L489.3,246.3z
	 M426,393.4c-2.5-9.4-10.5-16-19.6-17.1c-1.3-0.3-3.3-1-4.7-2.7l-5.2-19.5c0-2.4,0.5-4.3,1.2-5.6c8.5-5.3,13-15.7,10.2-25.9
	c-3.3-12.5-16.1-19.8-28.6-16.5c-12.5,3.3-19.8,16.1-16.5,28.6c2.1,7.9,8,13.7,15.2,16.1l-0.9,0.2c0,0,6.7,0.6,10,9.1
	c0.7,1.8,1.4,4.8,1.8,6.7c0.8,3.2,0.9,3.4,1.7,6.5c1.5,5.1-1.7,7.4-1.7,7.4l0.9-0.2c-1.9,1.4-3.6,3-5,4.9l0.4-1.4
	c0,0-2.9,3.5-9.4,2.7l-172.4-47.3c-4.2-1.3-8.1-2.7-11.4-4.2c-9.1-4.1-10.8-9-10.8-12c0.2-2.3,1.4-5.7,4.9-10.5
	c4.6-6.2,11.2-13,18.3-20.6c0.1-0.1,0.1-0.1,0.2-0.2l88.7-89.3c8.1-7.7,15.5-14.7,21.7-20.1c1.5-1.3,3.1-2.2,4.3-3.5
	c2.4-2.4,4.8-3.6,7-4.3l-0.2,0c0,0,10-3.1,14.3,8.8c0.7,1.8,1.9,10,2.4,15.1c0.3,1.5-0.4,3.2-1.2,4.7c-7.7,5.5-11.6,15.3-9,25
	c3.3,12.5,16.1,19.8,28.6,16.5c12.5-3.3,19.8-16.1,16.5-28.6c-2-7.3-7.2-12.9-13.7-15.5l0.9-0.2c0,0-7.1-2-9.2-5.3
	c-1.7-2.6-4.8-12.4-5.4-14.3c-2.5-7.5,5.3-14.6,5.3-14.6l-0.7,0.2c4.8-5.6,6.8-13.4,4.7-21.1c-3.3-12.5-16.1-19.8-28.6-16.5
	c-11.6,3.1-18.8,14.5-17,26.1l-0.8-0.8c0,0,1.6,9.1-3.6,15.2c-1.1,1.3-2.2,2.8-3.4,4.3c-4.5,5.2-10,11.3-16.2,17.9l-96,96.6
	c-6.2,5.9-11.9,11.2-17.1,15.2c-6.5,5-13.4,5.4-16.8,5.3c-0.4,0-0.8-0.1-1.3-0.1c-0.5-0.1-0.8-0.1-0.8-0.1l0.1,0.1c-2,0-4,0.2-6,0.8
	c-12.5,3.3-19.8,16.1-16.5,28.6c3.3,12.5,16.1,19.8,28.6,16.5c4.4-1.2,8.2-3.6,11.1-6.7c2.5-0.8,6.6-1.2,13.3-0.1
	c7.7,1.2,16.8,3.3,26.9,5.7c3.6,0.8,7.3,1.8,11,2.7l95,26c2.9,0.9,5.8,1.7,8.6,2.5c13.5,4,37.6,10.3,39.3,10.8c11,3.2,10.3,8,10.3,8
	l0.5-1.8c0.1,1.3,0.3,2.5,0.7,3.8c3.3,12.5,16.1,19.8,28.6,16.5C422,418.7,429.4,405.9,426,393.4z"/>
</svg>
