<?xml version="1.0" encoding="utf-8"?>
<!-- Generator: Adobe Illustrator 28.2.0, SVG Export Plug-In . SVG Version: 6.00 Build 0)  -->
<svg version="1.1" id="Layer_1" xmlns="http://www.w3.org/2000/svg" xmlns:xlink="http://www.w3.org/1999/xlink" x="0px" y="0px"
	 viewBox="0 0 512 512" style="enable-background:new 0 0 512 512;" xml:space="preserve">
<path d="M512,412.6c0.5,53.2-132.6,77.4-256,77.4S-0.1,465.7-0.1,412.5c0-53.2,132.6-77.4,256-77.4c3.5,0,7,0.1,10.5,0.1
	c-43.8,15.8-101.3,32.7-135,39.6c-15,2.4-29.1,5.3-42,8.7c-46.1,11.9-57.9,24.8-58.9,28.5c105.2-11.8,292.4-47.7,438.4-178
	C341.5,383.2,249.4,438.6,199.5,457.7c18.3,1.2,37.2,1.7,56.4,1.7c62.9,0,122-6.3,166.5-17.9c48.4-12.5,59-26.1,59-29
	c0-2.9-10.6-16.4-59-29c-19.3-5.1-41.6-9.1-65.9-12.1c9-8.4,17.4-17.4,27.2-27C456.4,355.8,512,378.1,512,412.6z M0,99.5
	C0,46.3,132.6,22,256,22s256,24.2,256,77.4c0.5,133.5-176.6,191.8-215.7,210.3c36-19,112.7-91.4,113.4-146.7
	c-45.4,9.4-100.4,13.9-153.7,13.9C132.6,176.9,0,152.7,0,99.5z M30.5,99.4c0,2.9,10.6,16.5,59,29c44,11.6,103.6,17.9,166.5,17.9
	s122-6.3,166.5-17.9c48.4-12.6,59-26.1,59-29c0-2.9-10.6-16.5-59-29C378.4,58.8,318.9,52.5,256,52.5S134,58.8,89.5,70.4
	C41.1,83,30.5,96.5,30.5,99.4z M296.3,309.7c-1.3,0.6-2.5,1.2-3.5,1.7C293.9,310.9,295.1,310.3,296.3,309.7z"/>
</svg>
